Processing chpn_op23.mid...

Track 0: Chopin Ballade in G minor Opus 32
Track 1: Piano right
Note ON: Time 1, Note Name: C3, Velocity: 90
Note OFF: Time 1200, Note Name: C3
Note ON: Time 1200, Note Name: D#3, Velocity: 79
Note OFF: Time 1440, Note Name: D#3
Note ON: Time 1440, Note Name: G#3, Velocity: 83
Note OFF: Time 1680, Note Name: G#3
Note ON: Time 1680, Note Name: A#3, Velocity: 76
Note OFF: Time 1920, Note Name: A#3
Note ON: Time 1920, Note Name: C4, Velocity: 83
Note OFF: Time 2160, Note Name: C4
Note ON: Time 2160, Note Name: G#3, Velocity: 75
Note OFF: Time 2400, Note Name: G#3
Note ON: Time 2400, Note Name: D#4, Velocity: 76
Note OFF: Time 2640, Note Name: D#4
Note ON: Time 2640, Note Name: A#4, Velocity: 72
Note OFF: Time 2880, Note Name: A#4
Note ON: Time 2880, Note Name: C5, Velocity: 73
Note OFF: Time 3120, Note Name: C5
Note ON: Time 3120, Note Name: G#4, Velocity: 68
Note OFF: Time 3360, Note Name: G#4
Note ON: Time 3360, Note Name: D#5, Velocity: 76
Note OFF: Time 3600, Note Name: D#5
Note ON: Time 3600, Note Name: A#5, Velocity: 68
Note OFF: Time 3840, Note Name: A#5
Note ON: Time 3840, Note Name: C6, Velocity: 69
Note OFF: Time 4080, Note Name: C6
Note ON: Time 4080, Note Name: G5, Velocity: 58
Note OFF: Time 4320, Note Name: G5
Note ON: Time 4320, Note Name: A#5, Velocity: 59
Note OFF: Time 4560, Note Name: A#5
Note ON: Time 4560, Note Name: G#5, Velocity: 53
Note OFF: Time 4800, Note Name: G#5
Note ON: Time 4800, Note Name: G5, Velocity: 49
Note OFF: Time 5280, Note Name: G5
Note ON: Time 5280, Note Name: F#5, Velocity: 44
Note OFF: Time 5520, Note Name: F#5
Note ON: Time 6000, Note Name: F#5, Velocity: 40
Note OFF: Time 6240, Note Name: F#5
Note ON: Time 6240, Note Name: G5, Velocity: 44
Note OFF: Time 6480, Note Name: G5
Note ON: Time 6480, Note Name: F#5, Velocity: 41
Note OFF: Time 6720, Note Name: F#5
Note ON: Time 6720, Note Name: F5, Velocity: 44
Note OFF: Time 6960, Note Name: F5
Note ON: Time 6960, Note Name: F#5, Velocity: 41
Note OFF: Time 7200, Note Name: F#5
Note ON: Time 7200, Note Name: A5, Velocity: 45
Note OFF: Time 7360, Note Name: A5
Note ON: Time 7360, Note Name: G5, Velocity: 41
Note OFF: Time 7520, Note Name: G5
Note ON: Time 7520, Note Name: D#5, Velocity: 44
Note OFF: Time 7680, Note Name: D#5
Note ON: Time 7680, Note Name: D#5, Velocity: 43
Note OFF: Time 8040, Note Name: D#5
Note ON: Time 8040, Note Name: D5, Velocity: 39
Note OFF: Time 8160, Note Name: D5
Note ON: Time 8160, Note Name: F5, Velocity: 40
Note OFF: Time 8320, Note Name: F5
Note ON: Time 8320, Note Name: D#5, Velocity: 39
Note OFF: Time 8480, Note Name: D#5
Note ON: Time 8480, Note Name: D5, Velocity: 33
Note OFF: Time 8624, Note Name: D5
Note ON: Time 8640, Note Name: D5, Velocity: 31
Note OFF: Time 9120, Note Name: D5
Note ON: Time 10560, Note Name: C5, Velocity: 43
Note OFF: Time 11280, Note Name: C5
Note ON: Time 11280, Note Name: G4, Velocity: 46
Note OFF: Time 11520, Note Name: G4
Note ON: Time 11760, Note Name: A#4, Velocity: 62
Note ON: Time 15120, Note Name: C4, Velocity: 48
Note ON: Time 15360, Note Name: D4, Velocity: 44
Note OFF: Time 15600, Note Name: A#4
Note ON: Time 15600, Note Name: F#4, Velocity: 44
Note OFF: Time 15840, Note Name: F#4
Note ON: Time 15840, Note Name: A#4, Velocity: 49
Note OFF: Time 16080, Note Name: A#4
Note ON: Time 16080, Note Name: A4, Velocity: 47
Note OFF: Time 16320, Note Name: A4
Note OFF: Time 16320, Note Name: D4
Note OFF: Time 16320, Note Name: C4
Note ON: Time 16320, Note Name: G4, Velocity: 44
Note ON: Time 16800, Note Name: A#3, Velocity: 28
Note ON: Time 16800, Note Name: D4, Velocity: 33
Note OFF: Time 17275, Note Name: D4
Note OFF: Time 17275, Note Name: A#3
Note ON: Time 17280, Note Name: A#3, Velocity: 28
Note ON: Time 17280, Note Name: D4, Velocity: 33
Note OFF: Time 17755, Note Name: D4
Note OFF: Time 17755, Note Name: A#3
Note OFF: Time 17760, Note Name: G4
Note ON: Time 17760, Note Name: D5, Velocity: 47
Note ON: Time 18240, Note Name: D4, Velocity: 28
Note ON: Time 18240, Note Name: G4, Velocity: 33
Note OFF: Time 18715, Note Name: G4
Note OFF: Time 18715, Note Name: D4
Note ON: Time 18720, Note Name: D4, Velocity: 28
Note ON: Time 18720, Note Name: G4, Velocity: 33
Note OFF: Time 19195, Note Name: G4
Note OFF: Time 19195, Note Name: D4
Note OFF: Time 19200, Note Name: D5
Note ON: Time 19200, Note Name: C5, Velocity: 47
Note ON: Time 19680, Note Name: C4, Velocity: 22
Note ON: Time 19680, Note Name: D#4, Velocity: 23
Note ON: Time 19680, Note Name: G4, Velocity: 28
Note OFF: Time 20155, Note Name: G4
Note OFF: Time 20155, Note Name: D#4
Note OFF: Time 20155, Note Name: C4
Note ON: Time 20160, Note Name: C4, Velocity: 22
Note ON: Time 20160, Note Name: D#4, Velocity: 23
Note ON: Time 20160, Note Name: G4, Velocity: 28
Note OFF: Time 20635, Note Name: G4
Note OFF: Time 20635, Note Name: D#4
Note OFF: Time 20635, Note Name: C4
Note OFF: Time 20640, Note Name: C5
Note ON: Time 20880, Note Name: C4, Velocity: 48
Note ON: Time 21120, Note Name: D4, Velocity: 44
Note ON: Time 21360, Note Name: F#4, Velocity: 44
Note OFF: Time 21600, Note Name: F#4
Note ON: Time 21600, Note Name: A#4, Velocity: 49
Note OFF: Time 21840, Note Name: A#4
Note ON: Time 21840, Note Name: A4, Velocity: 47
Note OFF: Time 22080, Note Name: A4
Note OFF: Time 22080, Note Name: D4
Note OFF: Time 22080, Note Name: C4
Note ON: Time 22080, Note Name: G4, Velocity: 44
Note ON: Time 22560, Note Name: A#3, Velocity: 28
Note ON: Time 22560, Note Name: D4, Velocity: 33
Note OFF: Time 23035, Note Name: D4
Note OFF: Time 23035, Note Name: A#3
Note ON: Time 23040, Note Name: A#3, Velocity: 28
Note ON: Time 23040, Note Name: D4, Velocity: 33
Note OFF: Time 23515, Note Name: D4
Note OFF: Time 23515, Note Name: A#3
Note OFF: Time 23520, Note Name: G4
Note ON: Time 23520, Note Name: E4, Velocity: 44
Note ON: Time 24000, Note Name: A3, Velocity: 28
Note ON: Time 24000, Note Name: G3, Velocity: 28
Note ON: Time 24000, Note Name: C#4, Velocity: 33
Note OFF: Time 24475, Note Name: C#4
Note OFF: Time 24475, Note Name: G3
Note OFF: Time 24475, Note Name: A3
Note ON: Time 24480, Note Name: A3, Velocity: 28
Note ON: Time 24480, Note Name: G3, Velocity: 28
Note ON: Time 24480, Note Name: C#4, Velocity: 33
Note OFF: Time 24955, Note Name: C#4
Note OFF: Time 24955, Note Name: G3
Note OFF: Time 24955, Note Name: A3
Note OFF: Time 24960, Note Name: E4
Note ON: Time 24960, Note Name: F#4, Velocity: 44
Note ON: Time 25440, Note Name: F#3, Velocity: 20
Note ON: Time 25440, Note Name: A3, Velocity: 23
Note ON: Time 25440, Note Name: D4, Velocity: 28
Note OFF: Time 25915, Note Name: D4
Note OFF: Time 25915, Note Name: A3
Note OFF: Time 25915, Note Name: F#3
Note ON: Time 25920, Note Name: F#3, Velocity: 20
Note ON: Time 25920, Note Name: A3, Velocity: 23
Note ON: Time 25920, Note Name: D4, Velocity: 28
Note OFF: Time 26395, Note Name: D4
Note OFF: Time 26395, Note Name: A3
Note OFF: Time 26395, Note Name: F#3
Note OFF: Time 26400, Note Name: F#4
Note ON: Time 26640, Note Name: C4, Velocity: 48
Note ON: Time 26880, Note Name: D4, Velocity: 44
Note ON: Time 27120, Note Name: F#4, Velocity: 44
Note OFF: Time 27360, Note Name: F#4
Note ON: Time 27360, Note Name: A#4, Velocity: 49
Note OFF: Time 27600, Note Name: A#4
Note ON: Time 27600, Note Name: A4, Velocity: 47
Note OFF: Time 27840, Note Name: A4
Note OFF: Time 27840, Note Name: D4
Note OFF: Time 27840, Note Name: C4
Note ON: Time 27840, Note Name: G4, Velocity: 44
Note ON: Time 28320, Note Name: A#3, Velocity: 28
Note ON: Time 28320, Note Name: D4, Velocity: 33
Note OFF: Time 28795, Note Name: D4
Note OFF: Time 28795, Note Name: A#3
Note ON: Time 28800, Note Name: A#3, Velocity: 28
Note ON: Time 28800, Note Name: D4, Velocity: 33
Note OFF: Time 29275, Note Name: D4
Note OFF: Time 29275, Note Name: A#3
Note OFF: Time 29280, Note Name: G4
Note ON: Time 29280, Note Name: G5, Velocity: 53
Note ON: Time 29760, Note Name: A#4, Velocity: 28
Note ON: Time 29760, Note Name: G4, Velocity: 28
Note ON: Time 29760, Note Name: C#5, Velocity: 33
Note OFF: Time 30235, Note Name: C#5
Note OFF: Time 30235, Note Name: G4
Note OFF: Time 30235, Note Name: A#4
Note ON: Time 30240, Note Name: A#4, Velocity: 28
Note ON: Time 30240, Note Name: G4, Velocity: 28
Note ON: Time 30240, Note Name: C#5, Velocity: 33
Note OFF: Time 30715, Note Name: C#5
Note OFF: Time 30715, Note Name: G4
Note OFF: Time 30715, Note Name: A#4
Note OFF: Time 30720, Note Name: G5
Note ON: Time 30720, Note Name: F5, Velocity: 50
Note ON: Time 31200, Note Name: A#4, Velocity: 29
Note ON: Time 31200, Note Name: C5, Velocity: 34
Note OFF: Time 31675, Note Name: C5
Note OFF: Time 31675, Note Name: A#4
Note ON: Time 31680, Note Name: A#4, Velocity: 29
Note ON: Time 31680, Note Name: C5, Velocity: 35
Note OFF: Time 32155, Note Name: C5
Note OFF: Time 32155, Note Name: A#4
Note OFF: Time 32160, Note Name: F5
Note ON: Time 32160, Note Name: D#4, Velocity: 48
Note ON: Time 32400, Note Name: F4, Velocity: 48
Note OFF: Time 32640, Note Name: F4
Note ON: Time 32640, Note Name: A4, Velocity: 44
Note ON: Time 32880, Note Name: D#5, Velocity: 46
Note OFF: Time 33120, Note Name: D#5
Note ON: Time 33120, Note Name: D5, Velocity: 51
Note OFF: Time 33360, Note Name: D5
Note ON: Time 33480, Note Name: C#5, Velocity: 49
Note OFF: Time 33590, Note Name: C#5
Note OFF: Time 33600, Note Name: A4
Note OFF: Time 33600, Note Name: D#4
Note ON: Time 33600, Note Name: C#5, Velocity: 46
Note ON: Time 34080, Note Name: D#4, Velocity: 20
Note ON: Time 34080, Note Name: F4, Velocity: 23
Note ON: Time 34080, Note Name: A4, Velocity: 28
Note OFF: Time 34555, Note Name: A4
Note OFF: Time 34555, Note Name: F4
Note OFF: Time 34555, Note Name: D#4
Note ON: Time 34560, Note Name: D#4, Velocity: 20
Note ON: Time 34560, Note Name: F4, Velocity: 23
Note ON: Time 34560, Note Name: A4, Velocity: 28
Note OFF: Time 35035, Note Name: A4
Note OFF: Time 35035, Note Name: F4
Note OFF: Time 35035, Note Name: D#4
Note OFF: Time 35040, Note Name: C#5
Note ON: Time 35040, Note Name: D5, Velocity: 46
Note ON: Time 35520, Note Name: F4, Velocity: 23
Note ON: Time 35520, Note Name: D4, Velocity: 19
Note ON: Time 35520, Note Name: A#4, Velocity: 28
Note OFF: Time 35995, Note Name: A#4
Note OFF: Time 35995, Note Name: D4
Note OFF: Time 35995, Note Name: F4
Note ON: Time 36000, Note Name: F4, Velocity: 23
Note ON: Time 36000, Note Name: D4, Velocity: 18
Note ON: Time 36000, Note Name: A#4, Velocity: 28
Note OFF: Time 36475, Note Name: A#4
Note OFF: Time 36475, Note Name: D4
Note OFF: Time 36475, Note Name: F4
Note OFF: Time 36480, Note Name: D5
Note ON: Time 36480, Note Name: C5, Velocity: 47
Note ON: Time 36960, Note Name: D#4, Velocity: 28
Note ON: Time 36960, Note Name: G4, Velocity: 33
Note OFF: Time 37435, Note Name: G4
Note OFF: Time 37435, Note Name: D#4
Note ON: Time 37440, Note Name: D#4, Velocity: 28
Note ON: Time 37440, Note Name: G4, Velocity: 34
Note OFF: Time 37915, Note Name: G4
Note OFF: Time 37915, Note Name: D#4
Note OFF: Time 37920, Note Name: C5
Note ON: Time 38160, Note Name: C4, Velocity: 48
Note ON: Time 38400, Note Name: D4, Velocity: 44
Note ON: Time 38640, Note Name: F#4, Velocity: 44
Note OFF: Time 38880, Note Name: F#4
Note ON: Time 38880, Note Name: A#4, Velocity: 49
Note OFF: Time 39120, Note Name: A#4
Note ON: Time 39120, Note Name: A4, Velocity: 47
Note OFF: Time 39360, Note Name: A4
Note OFF: Time 39360, Note Name: D4
Note OFF: Time 39360, Note Name: C4
Note ON: Time 39360, Note Name: G4, Velocity: 44
Note ON: Time 39840, Note Name: A#3, Velocity: 28
Note ON: Time 39840, Note Name: D4, Velocity: 33
Note OFF: Time 40315, Note Name: D4
Note OFF: Time 40315, Note Name: A#3
Note ON: Time 40320, Note Name: A#3, Velocity: 28
Note ON: Time 40320, Note Name: D4, Velocity: 33
Note OFF: Time 40795, Note Name: D4
Note OFF: Time 40795, Note Name: A#3
Note OFF: Time 40800, Note Name: G4
Note ON: Time 40800, Note Name: D5, Velocity: 47
Note ON: Time 41280, Note Name: D4, Velocity: 28
Note ON: Time 41280, Note Name: G4, Velocity: 33
Note OFF: Time 41755, Note Name: G4
Note OFF: Time 41755, Note Name: D4
Note ON: Time 41760, Note Name: D4, Velocity: 28
Note ON: Time 41760, Note Name: G4, Velocity: 33
Note OFF: Time 42235, Note Name: G4
Note OFF: Time 42235, Note Name: D4
Note OFF: Time 42240, Note Name: D5
Note ON: Time 42240, Note Name: C5, Velocity: 47
Note ON: Time 42720, Note Name: C4, Velocity: 23
Note ON: Time 42720, Note Name: D#4, Velocity: 23
Note ON: Time 42720, Note Name: G4, Velocity: 28
Note OFF: Time 43195, Note Name: G4
Note OFF: Time 43195, Note Name: D#4
Note OFF: Time 43195, Note Name: C4
Note ON: Time 43200, Note Name: C4, Velocity: 23
Note ON: Time 43200, Note Name: D#4, Velocity: 23
Note ON: Time 43200, Note Name: G4, Velocity: 28
Note OFF: Time 43675, Note Name: G4
Note OFF: Time 43675, Note Name: D#4
Note OFF: Time 43675, Note Name: C4
Note OFF: Time 43680, Note Name: C5
Note ON: Time 43920, Note Name: C4, Velocity: 48
Note ON: Time 44160, Note Name: D4, Velocity: 44
Note ON: Time 44400, Note Name: F#4, Velocity: 44
Note OFF: Time 44640, Note Name: F#4
Note ON: Time 44640, Note Name: A#4, Velocity: 49
Note OFF: Time 44880, Note Name: A#4
Note ON: Time 44880, Note Name: A4, Velocity: 47
Note OFF: Time 45120, Note Name: A4
Note OFF: Time 45120, Note Name: D4
Note OFF: Time 45120, Note Name: C4
Note ON: Time 45120, Note Name: G4, Velocity: 44
Note ON: Time 45600, Note Name: A#3, Velocity: 28
Note ON: Time 45600, Note Name: D4, Velocity: 33
Note OFF: Time 46075, Note Name: D4
Note OFF: Time 46075, Note Name: A#3
Note ON: Time 46080, Note Name: A#3, Velocity: 28
Note ON: Time 46080, Note Name: D4, Velocity: 33
Note OFF: Time 46555, Note Name: D4
Note OFF: Time 46555, Note Name: A#3
Note OFF: Time 46560, Note Name: G4
Note ON: Time 46560, Note Name: E4, Velocity: 44
Note ON: Time 47040, Note Name: A3, Velocity: 23
Note ON: Time 47040, Note Name: G3, Velocity: 23
Note ON: Time 47040, Note Name: C#4, Velocity: 28
Note OFF: Time 47515, Note Name: C#4
Note OFF: Time 47515, Note Name: G3
Note OFF: Time 47515, Note Name: A3
Note ON: Time 47520, Note Name: A3, Velocity: 23
Note ON: Time 47520, Note Name: G3, Velocity: 23
Note ON: Time 47520, Note Name: C#4, Velocity: 28
Note OFF: Time 47995, Note Name: C#4
Note OFF: Time 47995, Note Name: G3
Note OFF: Time 47995, Note Name: A3
Note OFF: Time 48000, Note Name: E4
Note ON: Time 48000, Note Name: F#4, Velocity: 44
Note ON: Time 48480, Note Name: F#3, Velocity: 17
Note ON: Time 48480, Note Name: A3, Velocity: 19
Note ON: Time 48480, Note Name: D4, Velocity: 23
Note OFF: Time 48955, Note Name: D4
Note OFF: Time 48955, Note Name: A3
Note OFF: Time 48955, Note Name: F#3
Note ON: Time 48960, Note Name: F#3, Velocity: 17
Note ON: Time 48960, Note Name: A3, Velocity: 19
Note ON: Time 48960, Note Name: D4, Velocity: 23
Note OFF: Time 49435, Note Name: D4
Note OFF: Time 49435, Note Name: A3
Note OFF: Time 49435, Note Name: F#3
Note OFF: Time 49440, Note Name: F#4
Note ON: Time 49680, Note Name: C4, Velocity: 48
Note ON: Time 49920, Note Name: D4, Velocity: 44
Note ON: Time 50160, Note Name: F#4, Velocity: 44
Note OFF: Time 50400, Note Name: F#4
Note ON: Time 50400, Note Name: A#4, Velocity: 49
Note OFF: Time 50640, Note Name: A#4
Note ON: Time 50640, Note Name: A4, Velocity: 47
Note OFF: Time 50880, Note Name: A4
Note OFF: Time 50880, Note Name: D4
Note OFF: Time 50880, Note Name: C4
Note ON: Time 50880, Note Name: G4, Velocity: 44
Note ON: Time 51360, Note Name: D4, Velocity: 28
Note ON: Time 51360, Note Name: B3, Velocity: 28
Note ON: Time 51360, Note Name: F4, Velocity: 33
Note OFF: Time 51835, Note Name: F4
Note OFF: Time 51835, Note Name: B3
Note OFF: Time 51835, Note Name: D4
Note ON: Time 51840, Note Name: D4, Velocity: 28
Note ON: Time 51840, Note Name: B3, Velocity: 28
Note ON: Time 51840, Note Name: F4, Velocity: 33
Note OFF: Time 52315, Note Name: F4
Note OFF: Time 52315, Note Name: B3
Note OFF: Time 52315, Note Name: D4
Note OFF: Time 52320, Note Name: G4
Note ON: Time 52320, Note Name: G5, Velocity: 58
Note ON: Time 52800, Note Name: F4, Velocity: 28
Note ON: Time 52800, Note Name: B4, Velocity: 31
Note ON: Time 52800, Note Name: G4, Velocity: 31
Note ON: Time 52800, Note Name: D5, Velocity: 36
Note OFF: Time 53275, Note Name: D5
Note OFF: Time 53275, Note Name: B4
Note OFF: Time 53275, Note Name: G4
Note OFF: Time 53275, Note Name: F4
Note ON: Time 53280, Note Name: F4, Velocity: 32
Note ON: Time 53280, Note Name: B4, Velocity: 32
Note ON: Time 53280, Note Name: G4, Velocity: 28
Note ON: Time 53280, Note Name: D5, Velocity: 37
Note OFF: Time 53755, Note Name: D5
Note OFF: Time 53755, Note Name: B4
Note OFF: Time 53755, Note Name: G4
Note OFF: Time 53755, Note Name: F4
Note OFF: Time 53760, Note Name: G5
Note ON: Time 53760, Note Name: G5, Velocity: 62
Note ON: Time 54240, Note Name: G4, Velocity: 33
Note ON: Time 54240, Note Name: C5, Velocity: 33
Note ON: Time 54240, Note Name: D#5, Velocity: 39
Note OFF: Time 54715, Note Name: D#5
Note OFF: Time 54715, Note Name: C5
Note OFF: Time 54715, Note Name: G4
Note ON: Time 54720, Note Name: G4, Velocity: 34
Note ON: Time 54720, Note Name: C5, Velocity: 34
Note ON: Time 54720, Note Name: D#5, Velocity: 40
Note OFF: Time 55195, Note Name: D#5
Note OFF: Time 55195, Note Name: C5
Note OFF: Time 55195, Note Name: G4
Note OFF: Time 55200, Note Name: G5
Note ON: Time 55200, Note Name: D5, Velocity: 66
Note ON: Time 55680, Note Name: D4, Velocity: 35
Note ON: Time 55680, Note Name: G4, Velocity: 41
Note OFF: Time 56155, Note Name: G4
Note OFF: Time 56155, Note Name: D4
Note ON: Time 56160, Note Name: D4, Velocity: 36
Note ON: Time 56160, Note Name: G4, Velocity: 42
Note OFF: Time 56635, Note Name: G4
Note OFF: Time 56635, Note Name: D4
Note OFF: Time 56640, Note Name: D5
Note ON: Time 56640, Note Name: C5, Velocity: 58
Note ON: Time 57120, Note Name: C4, Velocity: 35
Note ON: Time 57120, Note Name: G4, Velocity: 41
Note OFF: Time 57595, Note Name: G4
Note OFF: Time 57595, Note Name: C4
Note ON: Time 57600, Note Name: C4, Velocity: 34
Note ON: Time 57600, Note Name: G4, Velocity: 40
Note OFF: Time 58075, Note Name: G4
Note OFF: Time 58075, Note Name: C4
Note OFF: Time 58080, Note Name: C5
Note ON: Time 58080, Note Name: G4, Velocity: 62
Note ON: Time 58560, Note Name: A#3, Velocity: 31
Note ON: Time 58560, Note Name: D4, Velocity: 37
Note OFF: Time 59035, Note Name: D4
Note OFF: Time 59035, Note Name: A#3
Note ON: Time 59040, Note Name: A#3, Velocity: 30
Note ON: Time 59040, Note Name: D4, Velocity: 36
Note OFF: Time 59515, Note Name: D4
Note OFF: Time 59515, Note Name: A#3
Note OFF: Time 59520, Note Name: G4
Note ON: Time 59520, Note Name: G5, Velocity: 62
Note ON: Time 60000, Note Name: G4, Velocity: 33
Note ON: Time 60000, Note Name: C5, Velocity: 33
Note ON: Time 60000, Note Name: D#5, Velocity: 39
Note OFF: Time 60475, Note Name: D#5
Note OFF: Time 60475, Note Name: C5
Note OFF: Time 60475, Note Name: G4
Note ON: Time 60480, Note Name: G4, Velocity: 34
Note ON: Time 60480, Note Name: C5, Velocity: 34
Note ON: Time 60480, Note Name: D#5, Velocity: 40
Note OFF: Time 60955, Note Name: D#5
Note OFF: Time 60955, Note Name: C5
Note OFF: Time 60955, Note Name: G4
Note OFF: Time 60960, Note Name: G5
Note ON: Time 60960, Note Name: D5, Velocity: 59
Note ON: Time 61440, Note Name: D4, Velocity: 35
Note ON: Time 61440, Note Name: G4, Velocity: 41
Note OFF: Time 61915, Note Name: G4
Note OFF: Time 61915, Note Name: D4
Note ON: Time 61920, Note Name: D4, Velocity: 36
Note ON: Time 61920, Note Name: G4, Velocity: 42
Note OFF: Time 62395, Note Name: G4
Note OFF: Time 62395, Note Name: D4
Note OFF: Time 62400, Note Name: D5
Note ON: Time 62400, Note Name: C5, Velocity: 64
Note ON: Time 62880, Note Name: C4, Velocity: 35
Note ON: Time 62880, Note Name: G4, Velocity: 41
Note OFF: Time 63355, Note Name: G4
Note OFF: Time 63355, Note Name: C4
Note ON: Time 63360, Note Name: C4, Velocity: 34
Note ON: Time 63360, Note Name: G4, Velocity: 40
Note OFF: Time 63835, Note Name: G4
Note OFF: Time 63835, Note Name: C4
Note OFF: Time 63840, Note Name: C5
Note ON: Time 63840, Note Name: G4, Velocity: 62
Note ON: Time 64320, Note Name: A#3, Velocity: 31
Note ON: Time 64320, Note Name: C#4, Velocity: 37
Note OFF: Time 64795, Note Name: C#4
Note OFF: Time 64795, Note Name: A#3
Note ON: Time 64800, Note Name: A#3, Velocity: 30
Note ON: Time 64800, Note Name: C#4, Velocity: 36
Note OFF: Time 65275, Note Name: C#4
Note OFF: Time 65275, Note Name: A#3
Note OFF: Time 65280, Note Name: G4
Note ON: Time 65280, Note Name: F4, Velocity: 57
Note ON: Time 65760, Note Name: A#3, Velocity: 35
Note ON: Time 65760, Note Name: D4, Velocity: 42
Note OFF: Time 66235, Note Name: D4
Note OFF: Time 66235, Note Name: A#3
Note ON: Time 66240, Note Name: A#3, Velocity: 35
Note ON: Time 66240, Note Name: D4, Velocity: 42
Note OFF: Time 66715, Note Name: D4
Note OFF: Time 66715, Note Name: A#3
Note OFF: Time 66720, Note Name: F4
Note ON: Time 66720, Note Name: D5, Velocity: 60
Note ON: Time 67200, Note Name: F4, Velocity: 38
Note ON: Time 67200, Note Name: D4, Velocity: 38
Note ON: Time 67200, Note Name: A#4, Velocity: 45
Note OFF: Time 67675, Note Name: A#4
Note OFF: Time 67675, Note Name: D4
Note OFF: Time 67675, Note Name: F4
Note ON: Time 67680, Note Name: F4, Velocity: 38
Note ON: Time 67680, Note Name: D4, Velocity: 38
Note ON: Time 67680, Note Name: A#4, Velocity: 45
Note OFF: Time 68155, Note Name: A#4
Note OFF: Time 68155, Note Name: D4
Note OFF: Time 68155, Note Name: F4
Note ON: Time 68160, Note Name: D#4, Velocity: 51
Note ON: Time 68160, Note Name: A4, Velocity: 51
Note OFF: Time 68580, Note Name: D5
Note ON: Time 68580, Note Name: D5, Velocity: 55
Note OFF: Time 68640, Note Name: D5
Note OFF: Time 68640, Note Name: A4
Note OFF: Time 68640, Note Name: D#4
Note ON: Time 68640, Note Name: D#4, Velocity: 48
Note ON: Time 68640, Note Name: A4, Velocity: 48
Note ON: Time 68640, Note Name: C5, Velocity: 62
Note OFF: Time 69120, Note Name: C5
Note OFF: Time 69120, Note Name: A4
Note OFF: Time 69120, Note Name: D#4
Note ON: Time 69120, Note Name: D#4, Velocity: 45
Note ON: Time 69120, Note Name: A4, Velocity: 45
Note ON: Time 69120, Note Name: B4, Velocity: 58
Note OFF: Time 69600, Note Name: B4
Note OFF: Time 69600, Note Name: A4
Note OFF: Time 69600, Note Name: D#4
Note ON: Time 69600, Note Name: D#4, Velocity: 50
Note ON: Time 69600, Note Name: A4, Velocity: 50
Note ON: Time 69600, Note Name: C5, Velocity: 65
Note OFF: Time 70080, Note Name: C5
Note OFF: Time 70080, Note Name: A4
Note OFF: Time 70080, Note Name: D#4
Note ON: Time 70080, Note Name: D#4, Velocity: 49
Note ON: Time 70080, Note Name: A4, Velocity: 49
Note ON: Time 70080, Note Name: D5, Velocity: 64
Note OFF: Time 70560, Note Name: D5
Note OFF: Time 70560, Note Name: A4
Note OFF: Time 70560, Note Name: D#4
Note ON: Time 70560, Note Name: D#4, Velocity: 51
Note ON: Time 70560, Note Name: A4, Velocity: 51
Note ON: Time 70560, Note Name: D#5, Velocity: 66
Note OFF: Time 71040, Note Name: D#5
Note OFF: Time 71040, Note Name: A4
Note OFF: Time 71040, Note Name: D#4
Note ON: Time 71040, Note Name: D#5, Velocity: 71
Note ON: Time 71520, Note Name: D#4, Velocity: 49
Note ON: Time 71520, Note Name: A#4, Velocity: 49
Note OFF: Time 72000, Note Name: A#4
Note OFF: Time 72000, Note Name: D#4
Note ON: Time 72000, Note Name: D#4, Velocity: 49
Note ON: Time 72000, Note Name: A#4, Velocity: 49
Note OFF: Time 72480, Note Name: A#4
Note OFF: Time 72480, Note Name: D#4
Note OFF: Time 72480, Note Name: D#5
Note ON: Time 72480, Note Name: D4, Velocity: 43
Note ON: Time 72480, Note Name: A#4, Velocity: 43
Note ON: Time 72480, Note Name: D5, Velocity: 56
Note OFF: Time 72960, Note Name: A#4
Note OFF: Time 72960, Note Name: D4
Note ON: Time 72960, Note Name: D4, Velocity: 43
Note ON: Time 72960, Note Name: A#4, Velocity: 43
Note OFF: Time 73440, Note Name: A#4
Note OFF: Time 73440, Note Name: D4
Note ON: Time 73440, Note Name: D4, Velocity: 43
Note ON: Time 73440, Note Name: A#4, Velocity: 43
Note OFF: Time 73920, Note Name: A#4
Note OFF: Time 73920, Note Name: D4
Note OFF: Time 73920, Note Name: D5
Note ON: Time 73920, Note Name: C4, Velocity: 51
Note ON: Time 73920, Note Name: F#4, Velocity: 51
Note ON: Time 74340, Note Name: A#4, Velocity: 50
Note OFF: Time 74400, Note Name: A#4
Note OFF: Time 74400, Note Name: F#4
Note OFF: Time 74400, Note Name: C4
Note ON: Time 74400, Note Name: C4, Velocity: 48
Note ON: Time 74400, Note Name: F#4, Velocity: 48
Note ON: Time 74400, Note Name: A4, Velocity: 57
Note OFF: Time 74880, Note Name: A4
Note OFF: Time 74880, Note Name: F#4
Note OFF: Time 74880, Note Name: C4
Note ON: Time 74880, Note Name: C4, Velocity: 43
Note ON: Time 74880, Note Name: F#4, Velocity: 43
Note ON: Time 74880, Note Name: G#4, Velocity: 54
Note OFF: Time 75360, Note Name: G#4
Note OFF: Time 75360, Note Name: F#4
Note OFF: Time 75360, Note Name: C4
Note ON: Time 75360, Note Name: C4, Velocity: 48
Note ON: Time 75360, Note Name: F#4, Velocity: 48
Note ON: Time 75360, Note Name: A4, Velocity: 57
Note OFF: Time 75840, Note Name: A4
Note OFF: Time 75840, Note Name: F#4
Note OFF: Time 75840, Note Name: C4
Note ON: Time 75840, Note Name: C4, Velocity: 47
Note ON: Time 75840, Note Name: F#4, Velocity: 47
Note ON: Time 75840, Note Name: A#4, Velocity: 56
Note OFF: Time 76320, Note Name: A#4
Note OFF: Time 76320, Note Name: F#4
Note OFF: Time 76320, Note Name: C4
Note ON: Time 76320, Note Name: C4, Velocity: 49
Note ON: Time 76320, Note Name: F#4, Velocity: 49
Note ON: Time 76320, Note Name: C5, Velocity: 58
Note OFF: Time 76800, Note Name: C5
Note OFF: Time 76800, Note Name: F#4
Note OFF: Time 76800, Note Name: C4
Note ON: Time 76800, Note Name: C5, Velocity: 67
Note ON: Time 77280, Note Name: C4, Velocity: 49
Note ON: Time 77280, Note Name: G4, Velocity: 49
Note OFF: Time 77760, Note Name: G4
Note OFF: Time 77760, Note Name: C4
Note ON: Time 77760, Note Name: C4, Velocity: 49
Note ON: Time 77760, Note Name: G4, Velocity: 49
Note OFF: Time 78240, Note Name: G4
Note OFF: Time 78240, Note Name: C4
Note OFF: Time 78240, Note Name: C5
Note ON: Time 78240, Note Name: A#3, Velocity: 43
Note ON: Time 78240, Note Name: G4, Velocity: 43
Note ON: Time 78240, Note Name: A#4, Velocity: 51
Note OFF: Time 78720, Note Name: G4
Note OFF: Time 78720, Note Name: A#3
Note ON: Time 78720, Note Name: A#3, Velocity: 43
Note ON: Time 78720, Note Name: G4, Velocity: 43
Note OFF: Time 79200, Note Name: G4
Note OFF: Time 79200, Note Name: A#3
Note ON: Time 79200, Note Name: A#3, Velocity: 43
Note ON: Time 79200, Note Name: G4, Velocity: 43
Note OFF: Time 79680, Note Name: G4
Note OFF: Time 79680, Note Name: A#3
Note OFF: Time 79680, Note Name: A#4
Note ON: Time 79680, Note Name: D#4, Velocity: 50
Note ON: Time 79680, Note Name: G4, Velocity: 50
Note ON: Time 79680, Note Name: A4, Velocity: 56
Note OFF: Time 80160, Note Name: G4
Note OFF: Time 80160, Note Name: D#4
Note ON: Time 80160, Note Name: D#4, Velocity: 50
Note ON: Time 80160, Note Name: G4, Velocity: 50
Note OFF: Time 80640, Note Name: G4
Note OFF: Time 80640, Note Name: D#4
Note ON: Time 80640, Note Name: D#4, Velocity: 50
Note ON: Time 80640, Note Name: G4, Velocity: 50
Note OFF: Time 81120, Note Name: G4
Note OFF: Time 81120, Note Name: D#4
Note OFF: Time 81120, Note Name: A4
Note ON: Time 81120, Note Name: D4, Velocity: 42
Note ON: Time 81120, Note Name: F#4, Velocity: 42
Note ON: Time 81120, Note Name: A4, Velocity: 51
Note OFF: Time 81600, Note Name: F#4
Note OFF: Time 81600, Note Name: D4
Note ON: Time 81600, Note Name: D4, Velocity: 42
Note ON: Time 81600, Note Name: F#4, Velocity: 42
Note OFF: Time 82080, Note Name: F#4
Note OFF: Time 82080, Note Name: D4
Note ON: Time 82080, Note Name: D4, Velocity: 42
Note ON: Time 82080, Note Name: F#4, Velocity: 42
Note OFF: Time 82320, Note Name: A4
Note ON: Time 82320, Note Name: A4, Velocity: 51
Note OFF: Time 82440, Note Name: A4
Note ON: Time 82440, Note Name: A3, Velocity: 51
Note ON: Time 82500, Note Name: E4, Velocity: 51
Note OFF: Time 82560, Note Name: F#4
Note OFF: Time 82560, Note Name: D4
Note ON: Time 82560, Note Name: A4, Velocity: 51
Note OFF: Time 83040, Note Name: A3
Note OFF: Time 83040, Note Name: E4
Note OFF: Time 84960, Note Name: A4
Note ON: Time 84960, Note Name: A4, Velocity: 66
Note OFF: Time 85560, Note Name: A4
Note ON: Time 85560, Note Name: A#4, Velocity: 56
Note OFF: Time 85680, Note Name: A#4
Note ON: Time 85680, Note Name: A4, Velocity: 56
Note OFF: Time 85800, Note Name: A4
Note ON: Time 85800, Note Name: G#4, Velocity: 57
Note OFF: Time 85920, Note Name: G#4
Note ON: Time 85920, Note Name: A4, Velocity: 58
Note OFF: Time 86040, Note Name: A4
Note ON: Time 86040, Note Name: G5, Velocity: 60
Note OFF: Time 86160, Note Name: G5
Note ON: Time 86160, Note Name: E5, Velocity: 61
Note OFF: Time 86280, Note Name: E5
Note ON: Time 86280, Note Name: F5, Velocity: 62
Note OFF: Time 86400, Note Name: F5
Note ON: Time 86400, Note Name: F5, Velocity: 63
Note OFF: Time 86520, Note Name: F5
Note ON: Time 86520, Note Name: G6, Velocity: 64
Note OFF: Time 86640, Note Name: G6
Note ON: Time 86640, Note Name: F6, Velocity: 66
Note OFF: Time 86760, Note Name: F6
Note ON: Time 86760, Note Name: E6, Velocity: 66
Note OFF: Time 86880, Note Name: E6
Note ON: Time 86880, Note Name: D#6, Velocity: 67
Note OFF: Time 86960, Note Name: D#6
Note ON: Time 86960, Note Name: C6, Velocity: 58
Note OFF: Time 87040, Note Name: C6
Note ON: Time 87040, Note Name: A5, Velocity: 58
Note OFF: Time 87120, Note Name: A5
Note ON: Time 87120, Note Name: A#5, Velocity: 62
Note OFF: Time 87200, Note Name: A#5
Note ON: Time 87200, Note Name: D6, Velocity: 58
Note OFF: Time 87280, Note Name: D6
Note ON: Time 87280, Note Name: C6, Velocity: 58
Note OFF: Time 87360, Note Name: C6
Note ON: Time 87360, Note Name: A#5, Velocity: 66
Note OFF: Time 87440, Note Name: A#5
Note ON: Time 87440, Note Name: G5, Velocity: 58
Note OFF: Time 87520, Note Name: G5
Note ON: Time 87520, Note Name: F5, Velocity: 58
Note OFF: Time 87600, Note Name: F5
Note ON: Time 87600, Note Name: D5, Velocity: 62
Note OFF: Time 87680, Note Name: D5
Note ON: Time 87680, Note Name: D#5, Velocity: 58
Note OFF: Time 87760, Note Name: D#5
Note ON: Time 87760, Note Name: E5, Velocity: 58
Note OFF: Time 87840, Note Name: E5
Note ON: Time 87840, Note Name: F5, Velocity: 63
Note OFF: Time 87920, Note Name: F5
Note ON: Time 87920, Note Name: F#5, Velocity: 58
Note OFF: Time 88000, Note Name: F#5
Note ON: Time 88000, Note Name: A5, Velocity: 58
Note OFF: Time 88080, Note Name: A5
Note ON: Time 88080, Note Name: G5, Velocity: 58
Note OFF: Time 88160, Note Name: G5
Note ON: Time 88160, Note Name: F5, Velocity: 56
Note OFF: Time 88240, Note Name: F5
Note ON: Time 88240, Note Name: D#5, Velocity: 56
Note OFF: Time 88320, Note Name: D#5
Note ON: Time 88320, Note Name: C#5, Velocity: 64
Note OFF: Time 88560, Note Name: C#5
Note ON: Time 88800, Note Name: D5, Velocity: 66
Note OFF: Time 90240, Note Name: D5
Note ON: Time 90240, Note Name: C5, Velocity: 56
Note OFF: Time 90720, Note Name: C5
Note ON: Time 90720, Note Name: G4, Velocity: 57
Note OFF: Time 91200, Note Name: G4
Note ON: Time 91200, Note Name: A#4, Velocity: 62
Note OFF: Time 92640, Note Name: A#4
Note ON: Time 92640, Note Name: F#4, Velocity: 53
Note OFF: Time 94080, Note Name: F#4
Note ON: Time 94080, Note Name: G4, Velocity: 47
Note OFF: Time 94560, Note Name: G4
Note ON: Time 94560, Note Name: A#4, Velocity: 28
Note ON: Time 94560, Note Name: A#5, Velocity: 50
Note OFF: Time 94800, Note Name: A#5
Note OFF: Time 94800, Note Name: A#4
Note ON: Time 94800, Note Name: D5, Velocity: 45
Note OFF: Time 95040, Note Name: D5
Note ON: Time 95040, Note Name: F5, Velocity: 48
Note OFF: Time 95280, Note Name: F5
Note ON: Time 95280, Note Name: D#5, Velocity: 45
Note OFF: Time 96000, Note Name: D#5
Note ON: Time 96000, Note Name: A4, Velocity: 31
Note ON: Time 96000, Note Name: A5, Velocity: 50
Note OFF: Time 96240, Note Name: A5
Note OFF: Time 96240, Note Name: A4
Note ON: Time 96240, Note Name: C#5, Velocity: 44
Note OFF: Time 96480, Note Name: C#5
Note ON: Time 96480, Note Name: D#5, Velocity: 49
Note OFF: Time 96720, Note Name: D#5
Note ON: Time 96720, Note Name: D5, Velocity: 45
Note OFF: Time 97440, Note Name: D5
Note ON: Time 97440, Note Name: A#4, Velocity: 30
Note ON: Time 97440, Note Name: A#5, Velocity: 50
Note OFF: Time 97680, Note Name: A#5
Note OFF: Time 97680, Note Name: A#4
Note ON: Time 97680, Note Name: D5, Velocity: 48
Note OFF: Time 97920, Note Name: D5
Note ON: Time 97920, Note Name: F5, Velocity: 50
Note OFF: Time 98160, Note Name: F5
Note ON: Time 98160, Note Name: D#5, Velocity: 47
Note OFF: Time 98880, Note Name: D#5
Note ON: Time 98880, Note Name: G#4, Velocity: 32
Note ON: Time 98880, Note Name: G#5, Velocity: 51
Note OFF: Time 99120, Note Name: G#5
Note OFF: Time 99120, Note Name: G#4
Note ON: Time 99120, Note Name: C#5, Velocity: 47
Note OFF: Time 99360, Note Name: C#5
Note ON: Time 99360, Note Name: D#5, Velocity: 52
Note OFF: Time 99600, Note Name: D#5
Note ON: Time 99600, Note Name: D5, Velocity: 47
Note OFF: Time 100320, Note Name: D5
Note ON: Time 100320, Note Name: G4, Velocity: 32
Note ON: Time 100320, Note Name: G5, Velocity: 53
Note OFF: Time 100560, Note Name: G5
Note OFF: Time 100560, Note Name: G4
Note ON: Time 100560, Note Name: B4, Velocity: 50
Note OFF: Time 100800, Note Name: B4
Note ON: Time 100800, Note Name: D5, Velocity: 53
Note OFF: Time 101040, Note Name: D5
Note ON: Time 101040, Note Name: C5, Velocity: 49
Note OFF: Time 101760, Note Name: C5
Note ON: Time 101760, Note Name: C4, Velocity: 41
Note ON: Time 101760, Note Name: C5, Velocity: 54
Note OFF: Time 102000, Note Name: C5
Note OFF: Time 102000, Note Name: C4
Note ON: Time 102000, Note Name: G#4, Velocity: 49
Note OFF: Time 102240, Note Name: G#4
Note ON: Time 102240, Note Name: A#4, Velocity: 55
Note OFF: Time 102480, Note Name: A#4
Note ON: Time 102480, Note Name: A4, Velocity: 49
Note OFF: Time 103200, Note Name: A4
Note ON: Time 103200, Note Name: D#4, Velocity: 43
Note ON: Time 103200, Note Name: D#5, Velocity: 55
Note OFF: Time 103440, Note Name: D#5
Note OFF: Time 103440, Note Name: D#4
Note ON: Time 103440, Note Name: B4, Velocity: 53
Note OFF: Time 103680, Note Name: B4
Note ON: Time 103680, Note Name: D5, Velocity: 56
Note OFF: Time 103920, Note Name: D5
Note ON: Time 103920, Note Name: C5, Velocity: 52
Note OFF: Time 104640, Note Name: C5
Note ON: Time 104640, Note Name: D#4, Velocity: 48
Note ON: Time 104640, Note Name: G4, Velocity: 57
Note OFF: Time 104880, Note Name: D#4
Note ON: Time 104880, Note Name: D4, Velocity: 51
Note OFF: Time 105120, Note Name: D4
Note OFF: Time 105120, Note Name: G4
Note ON: Time 105120, Note Name: C#4, Velocity: 52
Note ON: Time 105120, Note Name: F#4, Velocity: 47
Note ON: Time 105120, Note Name: A4, Velocity: 57
Note OFF: Time 105360, Note Name: C#4
Note ON: Time 105360, Note Name: C4, Velocity: 52
Note OFF: Time 105600, Note Name: C4
Note OFF: Time 105600, Note Name: A4
Note OFF: Time 105600, Note Name: F#4
Note ON: Time 105600, Note Name: A#3, Velocity: 60
Note ON: Time 105600, Note Name: G4, Velocity: 60
Note ON: Time 105600, Note Name: A#4, Velocity: 71
Note OFF: Time 106080, Note Name: A#4
Note OFF: Time 106080, Note Name: G4
Note OFF: Time 106080, Note Name: A#3
Note ON: Time 106080, Note Name: A#4, Velocity: 52
Note ON: Time 106080, Note Name: A#5, Velocity: 71
Note ON: Time 106320, Note Name: D5, Velocity: 67
Note OFF: Time 106560, Note Name: D5
Note ON: Time 106560, Note Name: F5, Velocity: 71
Note OFF: Time 106800, Note Name: F5
Note ON: Time 106800, Note Name: D#5, Velocity: 66
Note OFF: Time 107040, Note Name: A#5
Note OFF: Time 107040, Note Name: A#4
Note OFF: Time 107520, Note Name: D#5
Note ON: Time 107520, Note Name: A4, Velocity: 57
Note ON: Time 107520, Note Name: A5, Velocity: 71
Note ON: Time 107760, Note Name: C#5, Velocity: 65
Note OFF: Time 108000, Note Name: C#5
Note ON: Time 108000, Note Name: D#5, Velocity: 72
Note OFF: Time 108240, Note Name: D#5
Note ON: Time 108240, Note Name: D5, Velocity: 66
Note OFF: Time 108480, Note Name: A5
Note OFF: Time 108480, Note Name: A4
Note OFF: Time 108960, Note Name: D5
Note ON: Time 108960, Note Name: A#4, Velocity: 56
Note ON: Time 108960, Note Name: A#5, Velocity: 72
Note ON: Time 109200, Note Name: D5, Velocity: 69
Note OFF: Time 109440, Note Name: D5
Note ON: Time 109440, Note Name: F5, Velocity: 73
Note OFF: Time 109680, Note Name: F5
Note ON: Time 109680, Note Name: D#5, Velocity: 67
Note OFF: Time 109920, Note Name: D#5
Note OFF: Time 109920, Note Name: A#5
Note OFF: Time 109920, Note Name: A#4
Note ON: Time 110400, Note Name: G#4, Velocity: 57
Note ON: Time 110400, Note Name: G#5, Velocity: 74
Note ON: Time 110640, Note Name: C#5, Velocity: 67
Note OFF: Time 110880, Note Name: C#5
Note ON: Time 110880, Note Name: D#5, Velocity: 74
Note OFF: Time 111120, Note Name: D#5
Note ON: Time 111120, Note Name: D5, Velocity: 67
Note OFF: Time 111360, Note Name: D5
Note OFF: Time 111360, Note Name: G#5
Note OFF: Time 111360, Note Name: G#4
Note ON: Time 111840, Note Name: G4, Velocity: 57
Note ON: Time 111840, Note Name: G5, Velocity: 75
Note ON: Time 112080, Note Name: B4, Velocity: 71
Note OFF: Time 112320, Note Name: B4
Note ON: Time 112320, Note Name: D5, Velocity: 75
Note OFF: Time 112560, Note Name: D5
Note ON: Time 112560, Note Name: C5, Velocity: 70
Note OFF: Time 112800, Note Name: C5
Note OFF: Time 112800, Note Name: G5
Note OFF: Time 112800, Note Name: G4
Note ON: Time 113280, Note Name: C4, Velocity: 57
Note ON: Time 113280, Note Name: C5, Velocity: 75
Note ON: Time 113520, Note Name: G#4, Velocity: 69
Note OFF: Time 113760, Note Name: G#4
Note ON: Time 113760, Note Name: A#4, Velocity: 76
Note OFF: Time 114000, Note Name: A#4
Note ON: Time 114000, Note Name: A4, Velocity: 69
Note OFF: Time 114240, Note Name: A4
Note OFF: Time 114240, Note Name: C5
Note OFF: Time 114240, Note Name: C4
Note ON: Time 114720, Note Name: D#4, Velocity: 59
Note ON: Time 114720, Note Name: D#5, Velocity: 76
Note ON: Time 114960, Note Name: B4, Velocity: 73
Note OFF: Time 115200, Note Name: B4
Note ON: Time 115200, Note Name: D5, Velocity: 77
Note OFF: Time 115440, Note Name: D5
Note ON: Time 115440, Note Name: C5, Velocity: 71
Note OFF: Time 115680, Note Name: C5
Note OFF: Time 115680, Note Name: D#5
Note OFF: Time 115680, Note Name: D#4
Note ON: Time 116160, Note Name: F#3, Velocity: 78
Note ON: Time 116160, Note Name: F#4, Velocity: 78
Note ON: Time 116400, Note Name: C#4, Velocity: 71
Note OFF: Time 116640, Note Name: C#4
Note ON: Time 116640, Note Name: D#4, Velocity: 71
Note OFF: Time 116880, Note Name: D#4
Note ON: Time 116880, Note Name: D4, Velocity: 71
Note OFF: Time 117120, Note Name: D4
Note OFF: Time 117120, Note Name: F#4
Note OFF: Time 117120, Note Name: F#3
Note ON: Time 117120, Note Name: G4, Velocity: 79
Note ON: Time 117120, Note Name: A#3, Velocity: 67
Note OFF: Time 117360, Note Name: A#3
Note OFF: Time 117360, Note Name: G4
Note ON: Time 117360, Note Name: C4, Velocity: 78
Note ON: Time 117360, Note Name: G3, Velocity: 53
Note OFF: Time 117480, Note Name: G3
Note OFF: Time 117480, Note Name: C4
Note ON: Time 117480, Note Name: A#3, Velocity: 65
Note OFF: Time 117600, Note Name: A#3
Note ON: Time 117600, Note Name: A3, Velocity: 64
Note OFF: Time 117720, Note Name: A3
Note ON: Time 117720, Note Name: G3, Velocity: 65
Note OFF: Time 117840, Note Name: G3
Note ON: Time 117840, Note Name: A#3, Velocity: 77
Note ON: Time 117840, Note Name: G4, Velocity: 77
Note OFF: Time 118080, Note Name: G4
Note OFF: Time 118080, Note Name: A#3
Note ON: Time 118080, Note Name: C4, Velocity: 77
Note ON: Time 118080, Note Name: G3, Velocity: 52
Note OFF: Time 118200, Note Name: G3
Note OFF: Time 118200, Note Name: C4
Note ON: Time 118200, Note Name: A#3, Velocity: 64
Note OFF: Time 118320, Note Name: A#3
Note ON: Time 118320, Note Name: A3, Velocity: 64
Note OFF: Time 118440, Note Name: A3
Note ON: Time 118440, Note Name: G3, Velocity: 63
Note OFF: Time 118560, Note Name: G3
Note ON: Time 118560, Note Name: F4, Velocity: 69
Note OFF: Time 118680, Note Name: F4
Note ON: Time 118680, Note Name: C4, Velocity: 52
Note OFF: Time 118800, Note Name: C4
Note ON: Time 118800, Note Name: D#4, Velocity: 54
Note OFF: Time 118920, Note Name: D#4
Note ON: Time 118920, Note Name: F#3, Velocity: 55
Note OFF: Time 119040, Note Name: F#3
Note ON: Time 119040, Note Name: C4, Velocity: 57
Note OFF: Time 119160, Note Name: C4
Note ON: Time 119160, Note Name: D#4, Velocity: 58
Note OFF: Time 119280, Note Name: D#4
Note ON: Time 119280, Note Name: F#4, Velocity: 60
Note OFF: Time 119400, Note Name: F#4
Note ON: Time 119400, Note Name: C5, Velocity: 62
Note OFF: Time 119520, Note Name: C5
Note ON: Time 119520, Note Name: F5, Velocity: 63
Note OFF: Time 119640, Note Name: F5
Note ON: Time 119640, Note Name: D#5, Velocity: 65
Note OFF: Time 119760, Note Name: D#5
Note ON: Time 119760, Note Name: D5, Velocity: 67
Note OFF: Time 119880, Note Name: D5
Note ON: Time 119880, Note Name: C5, Velocity: 68
Note OFF: Time 120000, Note Name: C5
Note ON: Time 120000, Note Name: G5, Velocity: 79
Note ON: Time 120000, Note Name: A#4, Velocity: 67
Note OFF: Time 120120, Note Name: A#4
Note OFF: Time 120120, Note Name: G5
Note ON: Time 120240, Note Name: G4, Velocity: 53
Note ON: Time 120240, Note Name: C5, Velocity: 78
Note OFF: Time 120360, Note Name: C5
Note OFF: Time 120360, Note Name: G4
Note ON: Time 120360, Note Name: A#4, Velocity: 65
Note OFF: Time 120480, Note Name: A#4
Note ON: Time 120480, Note Name: A4, Velocity: 64
Note OFF: Time 120600, Note Name: A4
Note ON: Time 120600, Note Name: G4, Velocity: 65
Note OFF: Time 120720, Note Name: G4
Note ON: Time 120720, Note Name: A#4, Velocity: 69
Note ON: Time 120720, Note Name: G5, Velocity: 77
Note OFF: Time 120960, Note Name: G5
Note OFF: Time 120960, Note Name: A#4
Note ON: Time 120960, Note Name: C5, Velocity: 77
Note ON: Time 120960, Note Name: G4, Velocity: 52
Note OFF: Time 121080, Note Name: G4
Note OFF: Time 121080, Note Name: C5
Note ON: Time 121080, Note Name: A#4, Velocity: 64
Note OFF: Time 121200, Note Name: A#4
Note ON: Time 121200, Note Name: A4, Velocity: 64
Note OFF: Time 121320, Note Name: A4
Note ON: Time 121320, Note Name: G4, Velocity: 63
Note OFF: Time 121440, Note Name: G4
Note ON: Time 121440, Note Name: F5, Velocity: 69
Note OFF: Time 121560, Note Name: F5
Note ON: Time 121560, Note Name: C5, Velocity: 52
Note OFF: Time 121680, Note Name: C5
Note ON: Time 121680, Note Name: D#5, Velocity: 54
Note OFF: Time 121800, Note Name: D#5
Note ON: Time 121800, Note Name: F#4, Velocity: 55
Note OFF: Time 121920, Note Name: F#4
Note ON: Time 121920, Note Name: C5, Velocity: 57
Note OFF: Time 122040, Note Name: C5
Note ON: Time 122040, Note Name: D#5, Velocity: 58
Note OFF: Time 122160, Note Name: D#5
Note ON: Time 122160, Note Name: F#5, Velocity: 60
Note OFF: Time 122280, Note Name: F#5
Note ON: Time 122280, Note Name: C6, Velocity: 62
Note OFF: Time 122400, Note Name: C6
Note ON: Time 122400, Note Name: F6, Velocity: 63
Note OFF: Time 122520, Note Name: F6
Note ON: Time 122520, Note Name: D#6, Velocity: 65
Note OFF: Time 122640, Note Name: D#6
Note ON: Time 122640, Note Name: D6, Velocity: 67
Note OFF: Time 122760, Note Name: D6
Note ON: Time 122760, Note Name: C6, Velocity: 68
Note OFF: Time 122880, Note Name: C6
Note ON: Time 122880, Note Name: G6, Velocity: 76
Note ON: Time 122880, Note Name: A#5, Velocity: 64
Note OFF: Time 123000, Note Name: A#5
Note OFF: Time 123000, Note Name: G6
Note ON: Time 123240, Note Name: G6, Velocity: 63
Note ON: Time 123240, Note Name: C7, Velocity: 75
Note OFF: Time 123360, Note Name: C7
Note OFF: Time 123360, Note Name: G6
Note ON: Time 123360, Note Name: A#6, Velocity: 68
Note OFF: Time 123480, Note Name: A#6
Note ON: Time 123480, Note Name: D6, Velocity: 68
Note OFF: Time 123600, Note Name: D6
Note ON: Time 123600, Note Name: A#6, Velocity: 73
Note ON: Time 123600, Note Name: F#6, Velocity: 62
Note OFF: Time 123720, Note Name: F#6
Note OFF: Time 123720, Note Name: A#6
Note ON: Time 123720, Note Name: A6, Velocity: 67
Note OFF: Time 123840, Note Name: A6
Note ON: Time 123840, Note Name: D6, Velocity: 66
Note OFF: Time 123960, Note Name: D6
Note ON: Time 123960, Note Name: F#5, Velocity: 60
Note ON: Time 123960, Note Name: A#5, Velocity: 71
Note OFF: Time 124080, Note Name: A#5
Note OFF: Time 124080, Note Name: F#5
Note ON: Time 124080, Note Name: A5, Velocity: 64
Note OFF: Time 124200, Note Name: A5
Note ON: Time 124200, Note Name: D5, Velocity: 64
Note OFF: Time 124320, Note Name: D5
Note ON: Time 124320, Note Name: C6, Velocity: 66
Note ON: Time 124320, Note Name: G5, Velocity: 56
Note OFF: Time 124440, Note Name: G5
Note OFF: Time 124440, Note Name: C6
Note ON: Time 124440, Note Name: A#5, Velocity: 60
Note OFF: Time 124560, Note Name: A#5
Note ON: Time 124560, Note Name: D6, Velocity: 60
Note OFF: Time 124680, Note Name: D6
Note ON: Time 124680, Note Name: G6, Velocity: 62
Note ON: Time 124680, Note Name: C7, Velocity: 74
Note OFF: Time 124800, Note Name: C7
Note OFF: Time 124800, Note Name: G6
Note ON: Time 124800, Note Name: A#6, Velocity: 68
Note OFF: Time 124920, Note Name: A#6
Note ON: Time 124920, Note Name: D6, Velocity: 69
Note OFF: Time 125040, Note Name: D6
Note ON: Time 125040, Note Name: A#6, Velocity: 71
Note ON: Time 125040, Note Name: F#6, Velocity: 60
Note OFF: Time 125160, Note Name: F#6
Note OFF: Time 125160, Note Name: A#6
Note ON: Time 125160, Note Name: A6, Velocity: 64
Note OFF: Time 125280, Note Name: A6
Note ON: Time 125280, Note Name: D6, Velocity: 63
Note OFF: Time 125400, Note Name: D6
Note ON: Time 125400, Note Name: F#5, Velocity: 56
Note ON: Time 125400, Note Name: A#5, Velocity: 66
Note OFF: Time 125520, Note Name: A#5
Note OFF: Time 125520, Note Name: F#5
Note ON: Time 125520, Note Name: A5, Velocity: 60
Note OFF: Time 125640, Note Name: A5
Note ON: Time 125640, Note Name: D5, Velocity: 60
Note OFF: Time 125760, Note Name: D5
Note ON: Time 125760, Note Name: G5, Velocity: 56
Note ON: Time 125760, Note Name: C6, Velocity: 66
Note OFF: Time 125880, Note Name: C6
Note OFF: Time 125880, Note Name: G5
Note ON: Time 125880, Note Name: A#5, Velocity: 60
Note OFF: Time 126000, Note Name: A#5
Note ON: Time 126000, Note Name: D6, Velocity: 60
Note OFF: Time 126120, Note Name: D6
Note ON: Time 126120, Note Name: G6, Velocity: 62
Note ON: Time 126120, Note Name: C7, Velocity: 74
Note OFF: Time 126240, Note Name: C7
Note OFF: Time 126240, Note Name: G6
Note ON: Time 126240, Note Name: A#6, Velocity: 68
Note OFF: Time 126360, Note Name: A#6
Note ON: Time 126360, Note Name: D6, Velocity: 69
Note OFF: Time 126480, Note Name: D6
Note ON: Time 126480, Note Name: A#6, Velocity: 71
Note ON: Time 126480, Note Name: F#6, Velocity: 60
Note OFF: Time 126600, Note Name: F#6
Note OFF: Time 126600, Note Name: A#6
Note ON: Time 126600, Note Name: A6, Velocity: 64
Note OFF: Time 126720, Note Name: A6
Note ON: Time 126720, Note Name: D6, Velocity: 63
Note OFF: Time 126840, Note Name: D6
Note ON: Time 126840, Note Name: F#5, Velocity: 56
Note ON: Time 126840, Note Name: A#5, Velocity: 66
Note OFF: Time 126960, Note Name: A#5
Note OFF: Time 126960, Note Name: F#5
Note ON: Time 126960, Note Name: A5, Velocity: 60
Note OFF: Time 127080, Note Name: A5
Note ON: Time 127080, Note Name: D5, Velocity: 60
Note OFF: Time 127200, Note Name: D5
Note ON: Time 127200, Note Name: C5, Velocity: 59
Note ON: Time 127200, Note Name: G4, Velocity: 50
Note OFF: Time 127320, Note Name: G4
Note OFF: Time 127320, Note Name: C5
Note ON: Time 127320, Note Name: A#4, Velocity: 54
Note OFF: Time 127440, Note Name: A#4
Note ON: Time 127440, Note Name: D5, Velocity: 54
Note OFF: Time 127560, Note Name: D5
Note ON: Time 127560, Note Name: C6, Velocity: 66
Note ON: Time 127560, Note Name: G5, Velocity: 55
Note OFF: Time 127680, Note Name: G5
Note OFF: Time 127680, Note Name: C6
Note ON: Time 127680, Note Name: A#5, Velocity: 61
Note OFF: Time 127800, Note Name: A#5
Note ON: Time 127800, Note Name: D5, Velocity: 62
Note OFF: Time 127920, Note Name: D5
Note ON: Time 127920, Note Name: A#5, Velocity: 63
Note ON: Time 127920, Note Name: F#5, Velocity: 54
Note OFF: Time 128040, Note Name: F#5
Note OFF: Time 128040, Note Name: A#5
Note ON: Time 128040, Note Name: A5, Velocity: 57
Note OFF: Time 128160, Note Name: A5
Note ON: Time 128160, Note Name: D5, Velocity: 56
Note OFF: Time 128280, Note Name: D5
Note ON: Time 128280, Note Name: A#4, Velocity: 59
Note ON: Time 128280, Note Name: F#4, Velocity: 50
Note OFF: Time 128400, Note Name: F#4
Note OFF: Time 128400, Note Name: A#4
Note ON: Time 128400, Note Name: A4, Velocity: 54
Note OFF: Time 128520, Note Name: A4
Note ON: Time 128520, Note Name: D4, Velocity: 54
Note OFF: Time 128640, Note Name: D4
Note ON: Time 128640, Note Name: C5, Velocity: 59
Note ON: Time 128640, Note Name: G4, Velocity: 50
Note OFF: Time 128760, Note Name: G4
Note OFF: Time 128760, Note Name: C5
Note ON: Time 128760, Note Name: A#4, Velocity: 54
Note OFF: Time 128880, Note Name: A#4
Note ON: Time 128880, Note Name: D5, Velocity: 54
Note OFF: Time 129000, Note Name: D5
Note ON: Time 129000, Note Name: C6, Velocity: 59
Note ON: Time 129000, Note Name: G5, Velocity: 49
Note OFF: Time 129120, Note Name: G5
Note OFF: Time 129120, Note Name: C6
Note ON: Time 129120, Note Name: A#5, Velocity: 54
Note OFF: Time 129240, Note Name: A#5
Note ON: Time 129240, Note Name: D5, Velocity: 55
Note OFF: Time 129360, Note Name: D5
Note ON: Time 129360, Note Name: A5, Velocity: 56
Note ON: Time 129360, Note Name: D5, Velocity: 48
Note OFF: Time 129480, Note Name: D5
Note OFF: Time 129480, Note Name: A5
Note ON: Time 129480, Note Name: G5, Velocity: 51
Note OFF: Time 129600, Note Name: G5
Note ON: Time 129600, Note Name: A#4, Velocity: 50
Note OFF: Time 129720, Note Name: A#4
Note ON: Time 129720, Note Name: D#5, Velocity: 53
Note ON: Time 129720, Note Name: A#4, Velocity: 45
Note OFF: Time 129840, Note Name: A#4
Note OFF: Time 129840, Note Name: D#5
Note ON: Time 129840, Note Name: D5, Velocity: 48
Note OFF: Time 129960, Note Name: D5
Note ON: Time 129960, Note Name: G4, Velocity: 48
Note OFF: Time 130080, Note Name: G4
Note ON: Time 130080, Note Name: C5, Velocity: 45
Note ON: Time 130080, Note Name: G4, Velocity: 38
Note OFF: Time 130200, Note Name: G4
Note OFF: Time 130200, Note Name: C5
Note ON: Time 130200, Note Name: A#4, Velocity: 40
Note OFF: Time 130320, Note Name: A#4
Note ON: Time 130320, Note Name: D4, Velocity: 40
Note OFF: Time 130440, Note Name: D4
Note ON: Time 130440, Note Name: D4, Velocity: 41
Note ON: Time 130440, Note Name: A4, Velocity: 50
Note OFF: Time 130560, Note Name: A4
Note OFF: Time 130560, Note Name: D4
Note ON: Time 130560, Note Name: G4, Velocity: 45
Note OFF: Time 130680, Note Name: G4
Note ON: Time 130680, Note Name: A#3, Velocity: 46
Note OFF: Time 130800, Note Name: A#3
Note ON: Time 130800, Note Name: D#4, Velocity: 47
Note ON: Time 130800, Note Name: A#3, Velocity: 40
Note OFF: Time 130920, Note Name: A#3
Note OFF: Time 130920, Note Name: D#4
Note ON: Time 130920, Note Name: D4, Velocity: 43
Note OFF: Time 131040, Note Name: D4
Note ON: Time 131040, Note Name: G3, Velocity: 42
Note OFF: Time 131160, Note Name: G3
Note ON: Time 131160, Note Name: G3, Velocity: 38
Note ON: Time 131160, Note Name: C4, Velocity: 45
Note OFF: Time 131280, Note Name: C4
Note OFF: Time 131280, Note Name: G3
Note ON: Time 131280, Note Name: A#3, Velocity: 40
Note OFF: Time 131400, Note Name: A#3
Note ON: Time 131400, Note Name: D3, Velocity: 40
Note OFF: Time 131520, Note Name: D3
Note ON: Time 131520, Note Name: G3, Velocity: 45
Note ON: Time 131520, Note Name: C4, Velocity: 53
Note OFF: Time 131640, Note Name: C4
Note OFF: Time 131640, Note Name: G3
Note ON: Time 131640, Note Name: A#3, Velocity: 48
Note OFF: Time 131760, Note Name: A#3
Note ON: Time 131760, Note Name: D3, Velocity: 48
Note OFF: Time 131880, Note Name: D3
Note ON: Time 131880, Note Name: G3, Velocity: 46
Note ON: Time 131880, Note Name: D4, Velocity: 55
Note OFF: Time 132000, Note Name: D4
Note OFF: Time 132000, Note Name: G3
Note ON: Time 132000, Note Name: C4, Velocity: 50
Note OFF: Time 132120, Note Name: C4
Note ON: Time 132120, Note Name: D#3, Velocity: 51
Note OFF: Time 132240, Note Name: D#3
Note ON: Time 132240, Note Name: G3, Velocity: 45
Note ON: Time 132240, Note Name: C4, Velocity: 54
Note OFF: Time 132360, Note Name: C4
Note OFF: Time 132360, Note Name: G3
Note ON: Time 132360, Note Name: A#3, Velocity: 50
Note OFF: Time 132480, Note Name: A#3
Note ON: Time 132480, Note Name: D3, Velocity: 50
Note OFF: Time 132600, Note Name: D3
Note ON: Time 132600, Note Name: G3, Velocity: 45
Note ON: Time 132600, Note Name: D4, Velocity: 53
Note OFF: Time 132720, Note Name: D4
Note OFF: Time 132720, Note Name: G3
Note ON: Time 132720, Note Name: C4, Velocity: 48
Note OFF: Time 132840, Note Name: C4
Note ON: Time 132840, Note Name: D#3, Velocity: 48
Note OFF: Time 132960, Note Name: D#3
Note ON: Time 132960, Note Name: G3, Velocity: 45
Note ON: Time 132960, Note Name: C4, Velocity: 53
Note OFF: Time 133080, Note Name: C4
Note OFF: Time 133080, Note Name: G3
Note ON: Time 133080, Note Name: A#3, Velocity: 48
Note OFF: Time 133200, Note Name: A#3
Note ON: Time 133200, Note Name: D3, Velocity: 48
Note OFF: Time 133320, Note Name: D3
Note ON: Time 133320, Note Name: D4, Velocity: 55
Note ON: Time 133320, Note Name: G3, Velocity: 46
Note OFF: Time 133440, Note Name: G3
Note OFF: Time 133440, Note Name: D4
Note ON: Time 133440, Note Name: C4, Velocity: 50
Note OFF: Time 133560, Note Name: C4
Note ON: Time 133560, Note Name: D#3, Velocity: 51
Note OFF: Time 133680, Note Name: D#3
Note ON: Time 133680, Note Name: G3, Velocity: 45
Note ON: Time 133680, Note Name: C4, Velocity: 54
Note OFF: Time 133800, Note Name: C4
Note OFF: Time 133800, Note Name: G3
Note ON: Time 133800, Note Name: A#3, Velocity: 50
Note OFF: Time 133920, Note Name: A#3
Note ON: Time 133920, Note Name: D3, Velocity: 50
Note OFF: Time 134040, Note Name: D3
Note ON: Time 134040, Note Name: D4, Velocity: 53
Note ON: Time 134040, Note Name: G3, Velocity: 45
Note OFF: Time 134160, Note Name: G3
Note OFF: Time 134160, Note Name: D4
Note ON: Time 134160, Note Name: C4, Velocity: 48
Note OFF: Time 134280, Note Name: C4
Note ON: Time 134280, Note Name: D#3, Velocity: 48
Note OFF: Time 134400, Note Name: D#3
Note ON: Time 134400, Note Name: G3, Velocity: 50
Note OFF: Time 134520, Note Name: G3
Note ON: Time 134520, Note Name: D4, Velocity: 51
Note OFF: Time 134640, Note Name: D4
Note ON: Time 134640, Note Name: A#3, Velocity: 52
Note OFF: Time 134760, Note Name: A#3
Note ON: Time 134760, Note Name: D4, Velocity: 53
Note OFF: Time 134880, Note Name: D4
Note ON: Time 134880, Note Name: G4, Velocity: 55
Note OFF: Time 135000, Note Name: G4
Note ON: Time 135000, Note Name: A#4, Velocity: 56
Note OFF: Time 135120, Note Name: A#4
Note ON: Time 135120, Note Name: D5, Velocity: 57
Note OFF: Time 135240, Note Name: D5
Note ON: Time 135240, Note Name: G5, Velocity: 58
Note OFF: Time 135360, Note Name: G5
Note ON: Time 135360, Note Name: A#5, Velocity: 59
Note OFF: Time 135480, Note Name: A#5
Note ON: Time 135480, Note Name: D6, Velocity: 61
Note OFF: Time 135600, Note Name: D6
Note ON: Time 135600, Note Name: G6, Velocity: 62
Note OFF: Time 135720, Note Name: G6
Note ON: Time 135720, Note Name: D7, Velocity: 63
Note OFF: Time 135840, Note Name: D7
Note ON: Time 135840, Note Name: A#6, Velocity: 63
Note OFF: Time 135960, Note Name: A#6
Note ON: Time 135960, Note Name: D7, Velocity: 60
Note OFF: Time 136080, Note Name: D7
Note ON: Time 136080, Note Name: G6, Velocity: 59
Note OFF: Time 136200, Note Name: G6
Note ON: Time 136200, Note Name: D6, Velocity: 58
Note OFF: Time 136320, Note Name: D6
Note ON: Time 136320, Note Name: A#5, Velocity: 58
Note OFF: Time 136440, Note Name: A#5
Note ON: Time 136440, Note Name: G5, Velocity: 57
Note OFF: Time 136560, Note Name: G5
Note ON: Time 136560, Note Name: D5, Velocity: 56
Note OFF: Time 136680, Note Name: D5
Note ON: Time 136680, Note Name: A#4, Velocity: 56
Note OFF: Time 136800, Note Name: A#4
Note ON: Time 136800, Note Name: G4, Velocity: 55
Note OFF: Time 136920, Note Name: G4
Note ON: Time 136920, Note Name: D4, Velocity: 54
Note OFF: Time 137040, Note Name: D4
Note ON: Time 137040, Note Name: A#3, Velocity: 53
Note OFF: Time 137160, Note Name: A#3
Note ON: Time 137160, Note Name: D3, Velocity: 53
Note OFF: Time 137280, Note Name: D3
Note ON: Time 137280, Note Name: G3, Velocity: 49
Note OFF: Time 137400, Note Name: G3
Note ON: Time 137400, Note Name: D4, Velocity: 50
Note OFF: Time 137520, Note Name: D4
Note ON: Time 137520, Note Name: A#3, Velocity: 52
Note OFF: Time 137640, Note Name: A#3
Note ON: Time 137640, Note Name: D4, Velocity: 54
Note OFF: Time 137760, Note Name: D4
Note ON: Time 137760, Note Name: G4, Velocity: 55
Note OFF: Time 137880, Note Name: G4
Note ON: Time 137880, Note Name: D5, Velocity: 57
Note OFF: Time 138000, Note Name: D5
Note ON: Time 138000, Note Name: A#4, Velocity: 57
Note OFF: Time 138120, Note Name: A#4
Note ON: Time 138120, Note Name: D5, Velocity: 56
Note OFF: Time 138240, Note Name: D5
Note ON: Time 138240, Note Name: G4, Velocity: 54
Note OFF: Time 138360, Note Name: G4
Note ON: Time 138360, Note Name: D4, Velocity: 53
Note OFF: Time 138480, Note Name: D4
Note ON: Time 138480, Note Name: A#3, Velocity: 51
Note OFF: Time 138600, Note Name: A#3
Note ON: Time 138600, Note Name: D3, Velocity: 49
Note OFF: Time 138720, Note Name: D3
Note ON: Time 138720, Note Name: F#3, Velocity: 49
Note OFF: Time 138840, Note Name: F#3
Note ON: Time 138840, Note Name: D4, Velocity: 50
Note OFF: Time 138960, Note Name: D4
Note ON: Time 138960, Note Name: A#3, Velocity: 52
Note OFF: Time 139080, Note Name: A#3
Note ON: Time 139080, Note Name: D4, Velocity: 54
Note OFF: Time 139200, Note Name: D4
Note ON: Time 139200, Note Name: F#4, Velocity: 55
Note OFF: Time 139320, Note Name: F#4
Note ON: Time 139320, Note Name: D5, Velocity: 57
Note OFF: Time 139440, Note Name: D5
Note ON: Time 139440, Note Name: A#4, Velocity: 57
Note OFF: Time 139560, Note Name: A#4
Note ON: Time 139560, Note Name: D5, Velocity: 56
Note OFF: Time 139680, Note Name: D5
Note ON: Time 139680, Note Name: F#4, Velocity: 54
Note OFF: Time 139800, Note Name: F#4
Note ON: Time 139800, Note Name: D4, Velocity: 53
Note OFF: Time 139920, Note Name: D4
Note ON: Time 139920, Note Name: A#3, Velocity: 51
Note OFF: Time 140040, Note Name: A#3
Note ON: Time 140040, Note Name: D3, Velocity: 49
Note OFF: Time 140160, Note Name: D3
Note ON: Time 140160, Note Name: G3, Velocity: 50
Note OFF: Time 140280, Note Name: G3
Note ON: Time 140280, Note Name: D4, Velocity: 51
Note OFF: Time 140400, Note Name: D4
Note ON: Time 140400, Note Name: A#3, Velocity: 52
Note OFF: Time 140520, Note Name: A#3
Note ON: Time 140520, Note Name: D4, Velocity: 53
Note OFF: Time 140640, Note Name: D4
Note ON: Time 140640, Note Name: G4, Velocity: 55
Note OFF: Time 140760, Note Name: G4
Note ON: Time 140760, Note Name: A#4, Velocity: 56
Note OFF: Time 140880, Note Name: A#4
Note ON: Time 140880, Note Name: D5, Velocity: 57
Note OFF: Time 141000, Note Name: D5
Note ON: Time 141000, Note Name: G5, Velocity: 58
Note OFF: Time 141120, Note Name: G5
Note ON: Time 141120, Note Name: A#5, Velocity: 59
Note OFF: Time 141240, Note Name: A#5
Note ON: Time 141240, Note Name: D6, Velocity: 61
Note OFF: Time 141360, Note Name: D6
Note ON: Time 141360, Note Name: G6, Velocity: 62
Note OFF: Time 141480, Note Name: G6
Note ON: Time 141480, Note Name: D7, Velocity: 63
Note OFF: Time 141600, Note Name: D7
Note ON: Time 141600, Note Name: A#6, Velocity: 63
Note OFF: Time 141720, Note Name: A#6
Note ON: Time 141720, Note Name: D7, Velocity: 60
Note OFF: Time 141840, Note Name: D7
Note ON: Time 141840, Note Name: G6, Velocity: 59
Note OFF: Time 141960, Note Name: G6
Note ON: Time 141960, Note Name: D6, Velocity: 58
Note OFF: Time 142080, Note Name: D6
Note ON: Time 142080, Note Name: A#5, Velocity: 58
Note OFF: Time 142200, Note Name: A#5
Note ON: Time 142200, Note Name: G5, Velocity: 57
Note OFF: Time 142320, Note Name: G5
Note ON: Time 142320, Note Name: D5, Velocity: 56
Note OFF: Time 142440, Note Name: D5
Note ON: Time 142440, Note Name: A#4, Velocity: 56
Note OFF: Time 142560, Note Name: A#4
Note ON: Time 142560, Note Name: G4, Velocity: 55
Note OFF: Time 142680, Note Name: G4
Note ON: Time 142680, Note Name: D4, Velocity: 54
Note OFF: Time 142800, Note Name: D4
Note ON: Time 142800, Note Name: A#3, Velocity: 53
Note OFF: Time 142920, Note Name: A#3
Note ON: Time 142920, Note Name: D3, Velocity: 53
Note OFF: Time 143040, Note Name: D3
Note ON: Time 143040, Note Name: F#3, Velocity: 49
Note OFF: Time 143160, Note Name: F#3
Note ON: Time 143160, Note Name: D4, Velocity: 50
Note OFF: Time 143280, Note Name: D4
Note ON: Time 143280, Note Name: A#3, Velocity: 52
Note OFF: Time 143400, Note Name: A#3
Note ON: Time 143400, Note Name: D4, Velocity: 54
Note OFF: Time 143520, Note Name: D4
Note ON: Time 143520, Note Name: F#4, Velocity: 55
Note OFF: Time 143640, Note Name: F#4
Note ON: Time 143640, Note Name: D5, Velocity: 57
Note OFF: Time 143760, Note Name: D5
Note ON: Time 143760, Note Name: A#4, Velocity: 57
Note OFF: Time 143880, Note Name: A#4
Note ON: Time 143880, Note Name: D5, Velocity: 56
Note OFF: Time 144000, Note Name: D5
Note ON: Time 144000, Note Name: F#4, Velocity: 54
Note OFF: Time 144120, Note Name: F#4
Note ON: Time 144120, Note Name: D4, Velocity: 53
Note OFF: Time 144240, Note Name: D4
Note ON: Time 144240, Note Name: A#3, Velocity: 51
Note OFF: Time 144360, Note Name: A#3
Note ON: Time 144360, Note Name: D3, Velocity: 49
Note OFF: Time 144480, Note Name: D3
Note ON: Time 144480, Note Name: F3, Velocity: 49
Note OFF: Time 144600, Note Name: F3
Note ON: Time 144600, Note Name: D4, Velocity: 50
Note OFF: Time 144720, Note Name: D4
Note ON: Time 144720, Note Name: A#3, Velocity: 52
Note OFF: Time 144840, Note Name: A#3
Note ON: Time 144840, Note Name: D4, Velocity: 54
Note OFF: Time 144960, Note Name: D4
Note ON: Time 144960, Note Name: F4, Velocity: 55
Note OFF: Time 145080, Note Name: F4
Note ON: Time 145080, Note Name: D5, Velocity: 57
Note OFF: Time 145200, Note Name: D5
Note ON: Time 145200, Note Name: A#4, Velocity: 57
Note OFF: Time 145320, Note Name: A#4
Note ON: Time 145320, Note Name: D5, Velocity: 56
Note OFF: Time 145440, Note Name: D5
Note ON: Time 145440, Note Name: F4, Velocity: 54
Note OFF: Time 145560, Note Name: F4
Note ON: Time 145560, Note Name: D4, Velocity: 53
Note OFF: Time 145680, Note Name: D4
Note ON: Time 145680, Note Name: A#3, Velocity: 51
Note OFF: Time 145800, Note Name: A#3
Note ON: Time 145800, Note Name: D3, Velocity: 49
Note OFF: Time 145920, Note Name: D3
Note ON: Time 145920, Note Name: F3, Velocity: 50
Note OFF: Time 146040, Note Name: F3
Note ON: Time 146040, Note Name: C4, Velocity: 51
Note OFF: Time 146160, Note Name: C4
Note ON: Time 146160, Note Name: A3, Velocity: 52
Note OFF: Time 146280, Note Name: A3
Note ON: Time 146280, Note Name: C4, Velocity: 53
Note OFF: Time 146400, Note Name: C4
Note ON: Time 146400, Note Name: F4, Velocity: 55
Note OFF: Time 146520, Note Name: F4
Note ON: Time 146520, Note Name: A4, Velocity: 56
Note OFF: Time 146640, Note Name: A4
Note ON: Time 146640, Note Name: C5, Velocity: 57
Note OFF: Time 146760, Note Name: C5
Note ON: Time 146760, Note Name: F5, Velocity: 58
Note OFF: Time 146880, Note Name: F5
Note ON: Time 146880, Note Name: A5, Velocity: 59
Note OFF: Time 147000, Note Name: A5
Note ON: Time 147000, Note Name: C6, Velocity: 61
Note OFF: Time 147120, Note Name: C6
Note ON: Time 147120, Note Name: F6, Velocity: 62
Note OFF: Time 147240, Note Name: F6
Note ON: Time 147240, Note Name: A6, Velocity: 63
Note OFF: Time 147360, Note Name: A6
Note ON: Time 147360, Note Name: F7, Velocity: 63
Note OFF: Time 147600, Note Name: F7
Note ON: Time 151440, Note Name: C4, Velocity: 30
Note ON: Time 151440, Note Name: F4, Velocity: 36
Note OFF: Time 153120, Note Name: F4
Note OFF: Time 153120, Note Name: C4
Note ON: Time 153120, Note Name: D4, Velocity: 34
Note ON: Time 153120, Note Name: G4, Velocity: 42
Note OFF: Time 154080, Note Name: G4
Note ON: Time 154080, Note Name: G4, Velocity: 37
Note OFF: Time 154560, Note Name: G4
Note OFF: Time 154560, Note Name: D4
Note ON: Time 154560, Note Name: D#4, Velocity: 42
Note OFF: Time 156480, Note Name: D#4
Note ON: Time 156480, Note Name: D#5, Velocity: 50
Note OFF: Time 157200, Note Name: D#5
Note ON: Time 157200, Note Name: D5, Velocity: 40
Note OFF: Time 157440, Note Name: D5
Note ON: Time 157440, Note Name: G4, Velocity: 33
Note ON: Time 157440, Note Name: C5, Velocity: 49
Note OFF: Time 158880, Note Name: C5
Note OFF: Time 158880, Note Name: G4
Note ON: Time 158880, Note Name: D5, Velocity: 48
Note ON: Time 158880, Note Name: A4, Velocity: 37
Note OFF: Time 159840, Note Name: D5
Note ON: Time 159840, Note Name: D5, Velocity: 37
Note OFF: Time 160320, Note Name: D5
Note OFF: Time 160320, Note Name: A4
Note ON: Time 160320, Note Name: A#4, Velocity: 40
Note OFF: Time 161760, Note Name: A#4
Note ON: Time 161760, Note Name: A#5, Velocity: 60
Note OFF: Time 162720, Note Name: A#5
Note ON: Time 162720, Note Name: A#5, Velocity: 56
Note OFF: Time 163200, Note Name: A#5
Note ON: Time 163200, Note Name: A#5, Velocity: 59
Note OFF: Time 164160, Note Name: A#5
Note ON: Time 164160, Note Name: G#5, Velocity: 55
Note OFF: Time 164614, Note Name: G#5
Note ON: Time 164640, Note Name: G#5, Velocity: 59
Note OFF: Time 165120, Note Name: G#5
Note ON: Time 165120, Note Name: G5, Velocity: 56
Note OFF: Time 165600, Note Name: G5
Note ON: Time 165600, Note Name: F#5, Velocity: 55
Note OFF: Time 166060, Note Name: F#5
Note ON: Time 166080, Note Name: F#5, Velocity: 58
Note OFF: Time 167040, Note Name: F#5
Note ON: Time 167040, Note Name: G5, Velocity: 56
Note OFF: Time 168000, Note Name: G5
Note ON: Time 168000, Note Name: G#5, Velocity: 62
Note OFF: Time 168720, Note Name: G#5
Note ON: Time 168720, Note Name: D#5, Velocity: 56
Note OFF: Time 168960, Note Name: D#5
Note ON: Time 168960, Note Name: G5, Velocity: 59
Note OFF: Time 169920, Note Name: G5
Note ON: Time 169920, Note Name: F5, Velocity: 50
Note OFF: Time 170880, Note Name: F5
Note ON: Time 170880, Note Name: G5, Velocity: 59
Note OFF: Time 171600, Note Name: G5
Note ON: Time 171600, Note Name: D5, Velocity: 53
Note OFF: Time 171840, Note Name: D5
Note ON: Time 171840, Note Name: F5, Velocity: 59
Note OFF: Time 172320, Note Name: F5
Note ON: Time 172320, Note Name: D#5, Velocity: 55
Note OFF: Time 172800, Note Name: D#5
Note ON: Time 172800, Note Name: D5, Velocity: 55
Note OFF: Time 173280, Note Name: D5
Note ON: Time 173280, Note Name: C5, Velocity: 55
Note OFF: Time 173440, Note Name: C5
Note ON: Time 173440, Note Name: D5, Velocity: 50
Note OFF: Time 173600, Note Name: D5
Note ON: Time 173600, Note Name: C5, Velocity: 50
Note OFF: Time 173760, Note Name: C5
Note ON: Time 173760, Note Name: B4, Velocity: 53
Note OFF: Time 174000, Note Name: B4
Note ON: Time 174000, Note Name: C5, Velocity: 50
Note OFF: Time 174240, Note Name: C5
Note ON: Time 174240, Note Name: D5, Velocity: 50
Note OFF: Time 174480, Note Name: D5
Note ON: Time 174480, Note Name: D#5, Velocity: 50
Note OFF: Time 174660, Note Name: D#5
Note ON: Time 174660, Note Name: C4, Velocity: 30
Note ON: Time 174720, Note Name: F4, Velocity: 36
Note OFF: Time 176160, Note Name: F4
Note OFF: Time 176160, Note Name: C4
Note ON: Time 176160, Note Name: D4, Velocity: 34
Note ON: Time 176160, Note Name: G4, Velocity: 42
Note OFF: Time 177120, Note Name: G4
Note ON: Time 177120, Note Name: G4, Velocity: 37
Note OFF: Time 177600, Note Name: G4
Note OFF: Time 177600, Note Name: D4
Note ON: Time 177600, Note Name: D#4, Velocity: 42
Note OFF: Time 179520, Note Name: D#4
Note ON: Time 179520, Note Name: D#5, Velocity: 55
Note OFF: Time 180240, Note Name: D#5
Note ON: Time 180240, Note Name: D5, Velocity: 44
Note OFF: Time 180480, Note Name: D5
Note ON: Time 180480, Note Name: G4, Velocity: 34
Note ON: Time 180480, Note Name: C5, Velocity: 53
Note OFF: Time 181920, Note Name: C5
Note OFF: Time 181920, Note Name: G4
Note ON: Time 181920, Note Name: A4, Velocity: 40
Note ON: Time 181920, Note Name: D5, Velocity: 52
Note OFF: Time 182870, Note Name: D5
Note ON: Time 182880, Note Name: D5, Velocity: 47
Note OFF: Time 183360, Note Name: D5
Note OFF: Time 183360, Note Name: A4
Note ON: Time 183360, Note Name: A#4, Velocity: 49
Note OFF: Time 184800, Note Name: A#4
Note ON: Time 184800, Note Name: A#5, Velocity: 66
Note OFF: Time 185750, Note Name: A#5
Note ON: Time 185760, Note Name: A#5, Velocity: 60
Note OFF: Time 186220, Note Name: A#5
Note ON: Time 186240, Note Name: A#5, Velocity: 68
Note OFF: Time 187680, Note Name: A#5
Note ON: Time 187680, Note Name: C5, Velocity: 61
Note OFF: Time 188640, Note Name: C5
Note ON: Time 188640, Note Name: D5, Velocity: 55
Note OFF: Time 189120, Note Name: D5
Note ON: Time 189120, Note Name: D#5, Velocity: 60
Note OFF: Time 189280, Note Name: D#5
Note ON: Time 189280, Note Name: F5, Velocity: 53
Note OFF: Time 189440, Note Name: F5
Note ON: Time 189440, Note Name: D#5, Velocity: 53
Note OFF: Time 189600, Note Name: D#5
Note ON: Time 189600, Note Name: D5, Velocity: 52
Note OFF: Time 190080, Note Name: D5
Note ON: Time 190080, Note Name: D#5, Velocity: 55
Note OFF: Time 190560, Note Name: D#5
Note ON: Time 190560, Note Name: G5, Velocity: 56
Note OFF: Time 191034, Note Name: G5
Note ON: Time 191040, Note Name: G5, Velocity: 61
Note OFF: Time 191680, Note Name: G5
Note ON: Time 191680, Note Name: F5, Velocity: 48
Note OFF: Time 191840, Note Name: F5
Note ON: Time 191840, Note Name: D#5, Velocity: 48
Note OFF: Time 191980, Note Name: D#5
Note ON: Time 192000, Note Name: D#5, Velocity: 50
Note OFF: Time 193440, Note Name: D#5
Note ON: Time 193920, Note Name: G4, Velocity: 36
Note OFF: Time 194160, Note Name: G4
Note ON: Time 194160, Note Name: G#4, Velocity: 34
Note OFF: Time 194400, Note Name: G#4
Note ON: Time 194400, Note Name: A#4, Velocity: 37
Note OFF: Time 194560, Note Name: A#4
Note ON: Time 194560, Note Name: D5, Velocity: 34
Note OFF: Time 194720, Note Name: D5
Note ON: Time 194720, Note Name: C5, Velocity: 34
Note OFF: Time 194880, Note Name: C5
Note ON: Time 194880, Note Name: A#4, Velocity: 42
Note OFF: Time 196320, Note Name: A#4
Note ON: Time 196800, Note Name: G4, Velocity: 36
Note OFF: Time 197040, Note Name: G4
Note ON: Time 197040, Note Name: G#4, Velocity: 34
Note OFF: Time 197280, Note Name: G#4
Note ON: Time 197280, Note Name: A#4, Velocity: 37
Note OFF: Time 197440, Note Name: A#4
Note ON: Time 197440, Note Name: D5, Velocity: 34
Note OFF: Time 197600, Note Name: D5
Note ON: Time 197600, Note Name: C5, Velocity: 34
Note OFF: Time 197760, Note Name: C5
Note ON: Time 197760, Note Name: A#4, Velocity: 42
Note OFF: Time 199200, Note Name: A#4
Note ON: Time 199680, Note Name: F4, Velocity: 36
Note OFF: Time 199920, Note Name: F4
Note ON: Time 199920, Note Name: G#4, Velocity: 34
Note OFF: Time 200160, Note Name: G#4
Note ON: Time 200160, Note Name: A#4, Velocity: 37
Note OFF: Time 200320, Note Name: A#4
Note ON: Time 200320, Note Name: D5, Velocity: 34
Note OFF: Time 200480, Note Name: D5
Note ON: Time 200480, Note Name: C5, Velocity: 34
Note OFF: Time 200640, Note Name: C5
Note ON: Time 200640, Note Name: A#4, Velocity: 42
Note OFF: Time 201280, Note Name: A#4
Note ON: Time 201280, Note Name: C#4, Velocity: 34
Note ON: Time 201440, Note Name: D#4, Velocity: 34
Note OFF: Time 201600, Note Name: D#4
Note ON: Time 201600, Note Name: G4, Velocity: 39
Note OFF: Time 201760, Note Name: G4
Note OFF: Time 201760, Note Name: C#4
Note ON: Time 201760, Note Name: C5, Velocity: 34
Note OFF: Time 201920, Note Name: C5
Note ON: Time 201920, Note Name: A#4, Velocity: 35
Note OFF: Time 202080, Note Name: A#4
Note ON: Time 202080, Note Name: G#4, Velocity: 38
Note OFF: Time 202800, Note Name: G#4
Note ON: Time 202800, Note Name: B3, Velocity: 37
Note ON: Time 203040, Note Name: D#4, Velocity: 38
Note OFF: Time 203280, Note Name: D#4
Note OFF: Time 203280, Note Name: B3
Note ON: Time 203280, Note Name: F4, Velocity: 35
Note OFF: Time 203520, Note Name: F4
Note ON: Time 203520, Note Name: G4, Velocity: 46
Note OFF: Time 204960, Note Name: G4
Note ON: Time 205440, Note Name: G4, Velocity: 36
Note OFF: Time 205680, Note Name: G4
Note ON: Time 205680, Note Name: G#4, Velocity: 34
Note OFF: Time 205920, Note Name: G#4
Note ON: Time 205920, Note Name: A#4, Velocity: 37
Note OFF: Time 206080, Note Name: A#4
Note ON: Time 206080, Note Name: D5, Velocity: 34
Note OFF: Time 206240, Note Name: D5
Note ON: Time 206240, Note Name: C5, Velocity: 34
Note OFF: Time 206400, Note Name: C5
Note ON: Time 206400, Note Name: A#4, Velocity: 42
Note OFF: Time 206880, Note Name: A#4
Note ON: Time 206880, Note Name: A#5, Velocity: 51
Note OFF: Time 208320, Note Name: A#5
Note ON: Time 208480, Note Name: G4, Velocity: 36
Note OFF: Time 208640, Note Name: G4
Note ON: Time 208640, Note Name: G#4, Velocity: 34
Note OFF: Time 208800, Note Name: G#4
Note ON: Time 208800, Note Name: A#4, Velocity: 37
Note OFF: Time 208960, Note Name: A#4
Note ON: Time 208960, Note Name: D5, Velocity: 34
Note OFF: Time 209120, Note Name: D5
Note ON: Time 209120, Note Name: C5, Velocity: 34
Note OFF: Time 209280, Note Name: C5
Note ON: Time 209280, Note Name: A#4, Velocity: 42
Note OFF: Time 209760, Note Name: A#4
Note ON: Time 209760, Note Name: A#5, Velocity: 50
Note OFF: Time 211200, Note Name: A#5
Note ON: Time 211360, Note Name: F4, Velocity: 36
Note OFF: Time 211520, Note Name: F4
Note ON: Time 211520, Note Name: G#4, Velocity: 34
Note OFF: Time 211680, Note Name: G#4
Note ON: Time 211680, Note Name: A#4, Velocity: 37
Note OFF: Time 211840, Note Name: A#4
Note ON: Time 211840, Note Name: D5, Velocity: 34
Note OFF: Time 212000, Note Name: D5
Note ON: Time 212000, Note Name: C5, Velocity: 34
Note OFF: Time 212160, Note Name: C5
Note ON: Time 212160, Note Name: A#4, Velocity: 42
Note OFF: Time 212800, Note Name: A#4
Note ON: Time 212800, Note Name: C#4, Velocity: 34
Note ON: Time 212960, Note Name: D#4, Velocity: 34
Note OFF: Time 213120, Note Name: D#4
Note ON: Time 213120, Note Name: G4, Velocity: 39
Note OFF: Time 213280, Note Name: G4
Note OFF: Time 213280, Note Name: C#4
Note ON: Time 213280, Note Name: C5, Velocity: 34
Note OFF: Time 213440, Note Name: C5
Note ON: Time 213440, Note Name: A#4, Velocity: 35
Note OFF: Time 213600, Note Name: A#4
Note ON: Time 213600, Note Name: G#4, Velocity: 38
Note OFF: Time 214320, Note Name: G#4
Note ON: Time 214320, Note Name: B3, Velocity: 37
Note ON: Time 214560, Note Name: D#4, Velocity: 38
Note OFF: Time 214800, Note Name: D#4
Note OFF: Time 214800, Note Name: B3
Note ON: Time 214800, Note Name: F4, Velocity: 35
Note OFF: Time 215040, Note Name: F4
Note ON: Time 215040, Note Name: G4, Velocity: 46
Note OFF: Time 216720, Note Name: G4
Note ON: Time 216720, Note Name: G4, Velocity: 34
Note OFF: Time 216960, Note Name: G4
Note ON: Time 216960, Note Name: A#4, Velocity: 36
Note OFF: Time 217200, Note Name: A#4
Note ON: Time 217200, Note Name: G5, Velocity: 37
Note OFF: Time 217440, Note Name: G5
Note ON: Time 217440, Note Name: F5, Velocity: 40
Note OFF: Time 217680, Note Name: F5
Note ON: Time 217680, Note Name: D#5, Velocity: 37
Note OFF: Time 217920, Note Name: D#5
Note ON: Time 217920, Note Name: D5, Velocity: 46
Note OFF: Time 219600, Note Name: D5
Note ON: Time 219600, Note Name: A#4, Velocity: 34
Note OFF: Time 219840, Note Name: A#4
Note ON: Time 219840, Note Name: D5, Velocity: 36
Note OFF: Time 220080, Note Name: D5
Note ON: Time 220080, Note Name: A#5, Velocity: 37
Note OFF: Time 220320, Note Name: A#5
Note ON: Time 220320, Note Name: D5, Velocity: 40
Note OFF: Time 220560, Note Name: D5
Note ON: Time 220560, Note Name: D#5, Velocity: 37
Note OFF: Time 220800, Note Name: D#5
Note ON: Time 220800, Note Name: E5, Velocity: 46
Note OFF: Time 221280, Note Name: E5
Note ON: Time 221280, Note Name: F5, Velocity: 46
Note OFF: Time 222480, Note Name: F5
Note ON: Time 222480, Note Name: D5, Velocity: 39
Note OFF: Time 222720, Note Name: D5
Note ON: Time 222720, Note Name: F5, Velocity: 43
Note OFF: Time 222960, Note Name: F5
Note ON: Time 222960, Note Name: D6, Velocity: 50
Note OFF: Time 223200, Note Name: D6
Note ON: Time 223200, Note Name: C6, Velocity: 46
Note OFF: Time 223440, Note Name: C6
Note ON: Time 223440, Note Name: A#5, Velocity: 41
Note OFF: Time 223680, Note Name: A#5
Note ON: Time 223680, Note Name: G#5, Velocity: 45
Note OFF: Time 223920, Note Name: G#5
Note ON: Time 223920, Note Name: A5, Velocity: 40
Note OFF: Time 224160, Note Name: A5
Note ON: Time 224160, Note Name: F6, Velocity: 51
Note OFF: Time 224400, Note Name: F6
Note ON: Time 224400, Note Name: E6, Velocity: 46
Note OFF: Time 224640, Note Name: E6
Note ON: Time 224640, Note Name: D6, Velocity: 45
Note OFF: Time 224880, Note Name: D6
Note ON: Time 224880, Note Name: A5, Velocity: 40
Note OFF: Time 225120, Note Name: A5
Note ON: Time 225120, Note Name: D5, Velocity: 40
Note OFF: Time 225360, Note Name: D5
Note ON: Time 225360, Note Name: A4, Velocity: 36
Note OFF: Time 225600, Note Name: A4
Note ON: Time 225600, Note Name: F4, Velocity: 39
Note OFF: Time 225840, Note Name: F4
Note ON: Time 225840, Note Name: D4, Velocity: 34
Note OFF: Time 226080, Note Name: D4
Note ON: Time 226080, Note Name: E4, Velocity: 39
Note OFF: Time 226260, Note Name: E4
Note ON: Time 226260, Note Name: G4, Velocity: 31
Note OFF: Time 226320, Note Name: G4
Note ON: Time 226320, Note Name: F4, Velocity: 36
Note OFF: Time 226560, Note Name: F4
Note ON: Time 228240, Note Name: D4, Velocity: 38
Note ON: Time 228480, Note Name: E4, Velocity: 37
Note ON: Time 228720, Note Name: G#4, Velocity: 37
Note OFF: Time 228960, Note Name: G#4
Note ON: Time 228960, Note Name: C5, Velocity: 41
Note OFF: Time 229200, Note Name: C5
Note ON: Time 229200, Note Name: B4, Velocity: 39
Note OFF: Time 229440, Note Name: B4
Note OFF: Time 229440, Note Name: E4
Note OFF: Time 229440, Note Name: D4
Note ON: Time 229440, Note Name: A4, Velocity: 37
Note ON: Time 229920, Note Name: C4, Velocity: 23
Note ON: Time 229920, Note Name: E4, Velocity: 28
Note OFF: Time 230395, Note Name: E4
Note OFF: Time 230395, Note Name: C4
Note ON: Time 230400, Note Name: C4, Velocity: 23
Note ON: Time 230400, Note Name: E4, Velocity: 28
Note OFF: Time 230875, Note Name: E4
Note OFF: Time 230875, Note Name: C4
Note OFF: Time 230880, Note Name: A4
Note ON: Time 230880, Note Name: E5, Velocity: 41
Note ON: Time 231360, Note Name: A4, Velocity: 28
Note OFF: Time 231835, Note Name: A4
Note ON: Time 231840, Note Name: A4, Velocity: 28
Note OFF: Time 232315, Note Name: A4
Note OFF: Time 232320, Note Name: E5
Note ON: Time 232320, Note Name: D5, Velocity: 39
Note ON: Time 232800, Note Name: A4, Velocity: 28
Note ON: Time 232800, Note Name: F4, Velocity: 23
Note OFF: Time 233275, Note Name: F4
Note OFF: Time 233275, Note Name: A4
Note ON: Time 233280, Note Name: F4, Velocity: 23
Note ON: Time 233280, Note Name: A4, Velocity: 28
Note OFF: Time 233755, Note Name: A4
Note OFF: Time 233755, Note Name: F4
Note OFF: Time 233760, Note Name: D5
Note ON: Time 234000, Note Name: D4, Velocity: 40
Note ON: Time 234240, Note Name: E4, Velocity: 37
Note ON: Time 234480, Note Name: G#4, Velocity: 37
Note OFF: Time 234720, Note Name: G#4
Note ON: Time 234720, Note Name: C5, Velocity: 41
Note OFF: Time 234960, Note Name: C5
Note ON: Time 234960, Note Name: B4, Velocity: 39
Note OFF: Time 235200, Note Name: B4
Note OFF: Time 235200, Note Name: E4
Note OFF: Time 235200, Note Name: D4
Note ON: Time 235200, Note Name: A4, Velocity: 37
Note ON: Time 235680, Note Name: C4, Velocity: 23
Note ON: Time 235680, Note Name: E4, Velocity: 28
Note OFF: Time 236155, Note Name: E4
Note OFF: Time 236155, Note Name: C4
Note ON: Time 236160, Note Name: C4, Velocity: 23
Note ON: Time 236160, Note Name: E4, Velocity: 28
Note OFF: Time 236635, Note Name: E4
Note OFF: Time 236635, Note Name: C4
Note OFF: Time 236640, Note Name: A4
Note ON: Time 236640, Note Name: F#4, Velocity: 37
Note ON: Time 237120, Note Name: E4, Velocity: 28
Note ON: Time 237120, Note Name: A3, Velocity: 23
Note ON: Time 237120, Note Name: C4, Velocity: 23
Note OFF: Time 237595, Note Name: C4
Note OFF: Time 237595, Note Name: A3
Note OFF: Time 237595, Note Name: E4
Note ON: Time 237600, Note Name: E4, Velocity: 28
Note ON: Time 237600, Note Name: A3, Velocity: 23
Note ON: Time 237600, Note Name: C4, Velocity: 23
Note OFF: Time 238075, Note Name: C4
Note OFF: Time 238075, Note Name: A3
Note OFF: Time 238075, Note Name: E4
Note OFF: Time 238080, Note Name: F#4
Note ON: Time 238080, Note Name: G#4, Velocity: 37
Note ON: Time 238560, Note Name: B3, Velocity: 19
Note ON: Time 238560, Note Name: E4, Velocity: 23
Note OFF: Time 239035, Note Name: E4
Note OFF: Time 239035, Note Name: B3
Note ON: Time 239040, Note Name: B3, Velocity: 19
Note ON: Time 239040, Note Name: E4, Velocity: 23
Note OFF: Time 239515, Note Name: E4
Note OFF: Time 239515, Note Name: B3
Note OFF: Time 239520, Note Name: G#4
Note ON: Time 239760, Note Name: D4, Velocity: 40
Note ON: Time 240000, Note Name: E4, Velocity: 37
Note ON: Time 240240, Note Name: G#4, Velocity: 37
Note OFF: Time 240480, Note Name: G#4
Note ON: Time 240480, Note Name: C5, Velocity: 41
Note OFF: Time 240720, Note Name: C5
Note ON: Time 240720, Note Name: B4, Velocity: 39
Note OFF: Time 240960, Note Name: B4
Note OFF: Time 240960, Note Name: E4
Note OFF: Time 240960, Note Name: D4
Note ON: Time 240960, Note Name: A4, Velocity: 37
Note ON: Time 241440, Note Name: C4, Velocity: 23
Note ON: Time 241440, Note Name: E4, Velocity: 28
Note OFF: Time 241915, Note Name: E4
Note OFF: Time 241915, Note Name: C4
Note ON: Time 241920, Note Name: C4, Velocity: 23
Note ON: Time 241920, Note Name: E4, Velocity: 28
Note OFF: Time 242395, Note Name: E4
Note OFF: Time 242395, Note Name: C4
Note OFF: Time 242400, Note Name: A4
Note ON: Time 242400, Note Name: E5, Velocity: 53
Note ON: Time 242880, Note Name: C5, Velocity: 32
Note ON: Time 242880, Note Name: A4, Velocity: 26
Note OFF: Time 243355, Note Name: A4
Note OFF: Time 243355, Note Name: C5
Note ON: Time 243360, Note Name: A4, Velocity: 26
Note ON: Time 243360, Note Name: C5, Velocity: 32
Note OFF: Time 243835, Note Name: C5
Note OFF: Time 243835, Note Name: A4
Note OFF: Time 243840, Note Name: E5
Note ON: Time 243840, Note Name: F#5, Velocity: 53
Note ON: Time 244320, Note Name: E4, Velocity: 26
Note ON: Time 244320, Note Name: A4, Velocity: 26
Note ON: Time 244320, Note Name: C5, Velocity: 32
Note OFF: Time 244795, Note Name: C5
Note OFF: Time 244795, Note Name: A4
Note OFF: Time 244795, Note Name: E4
Note ON: Time 244800, Note Name: A4, Velocity: 26
Note ON: Time 244800, Note Name: C5, Velocity: 32
Note ON: Time 244800, Note Name: E4, Velocity: 26
Note OFF: Time 245275, Note Name: E4
Note OFF: Time 245275, Note Name: C5
Note OFF: Time 245275, Note Name: A4
Note OFF: Time 245280, Note Name: F#5
Note ON: Time 245520, Note Name: C4, Velocity: 40
Note ON: Time 245760, Note Name: E4, Velocity: 37
Note ON: Time 246000, Note Name: G#4, Velocity: 37
Note OFF: Time 246240, Note Name: G#4
Note ON: Time 246240, Note Name: B4, Velocity: 41
Note OFF: Time 246480, Note Name: B4
Note ON: Time 246480, Note Name: A4, Velocity: 39
Note OFF: Time 246720, Note Name: A4
Note OFF: Time 246720, Note Name: E4
Note OFF: Time 246720, Note Name: C4
Note ON: Time 246720, Note Name: A4, Velocity: 37
Note ON: Time 247200, Note Name: E4, Velocity: 28
Note ON: Time 247200, Note Name: C4, Velocity: 23
Note OFF: Time 247675, Note Name: C4
Note OFF: Time 247675, Note Name: E4
Note ON: Time 247680, Note Name: C4, Velocity: 23
Note ON: Time 247680, Note Name: E4, Velocity: 28
Note OFF: Time 248155, Note Name: E4
Note OFF: Time 248155, Note Name: C4
Note OFF: Time 248160, Note Name: A4
Note ON: Time 248160, Note Name: F#5, Velocity: 55
Note ON: Time 248640, Note Name: E4, Velocity: 28
Note ON: Time 248640, Note Name: A4, Velocity: 28
Note ON: Time 248640, Note Name: C5, Velocity: 34
Note OFF: Time 249115, Note Name: C5
Note OFF: Time 249115, Note Name: A4
Note OFF: Time 249115, Note Name: E4
Note ON: Time 249120, Note Name: E4, Velocity: 28
Note ON: Time 249120, Note Name: A4, Velocity: 28
Note ON: Time 249120, Note Name: C5, Velocity: 36
Note OFF: Time 249595, Note Name: C5
Note OFF: Time 249595, Note Name: A4
Note OFF: Time 249595, Note Name: E4
Note OFF: Time 249600, Note Name: F#5
Note ON: Time 249600, Note Name: G#5, Velocity: 58
Note ON: Time 250080, Note Name: A4, Velocity: 30
Note ON: Time 250080, Note Name: C5, Velocity: 30
Note ON: Time 250080, Note Name: D#5, Velocity: 36
Note OFF: Time 250555, Note Name: D#5
Note OFF: Time 250555, Note Name: C5
Note OFF: Time 250555, Note Name: A4
Note ON: Time 250560, Note Name: D#5, Velocity: 37
Note ON: Time 250560, Note Name: C5, Velocity: 30
Note ON: Time 250560, Note Name: A4, Velocity: 30
Note OFF: Time 251035, Note Name: A4
Note OFF: Time 251035, Note Name: C5
Note OFF: Time 251035, Note Name: D#5
Note OFF: Time 251040, Note Name: G#5
Note ON: Time 251040, Note Name: F#5, Velocity: 62
Note ON: Time 251520, Note Name: A4, Velocity: 31
Note ON: Time 251520, Note Name: D#5, Velocity: 39
Note ON: Time 251520, Note Name: C5, Velocity: 31
Note OFF: Time 252000, Note Name: C5
Note OFF: Time 252000, Note Name: F#5
Note OFF: Time 252000, Note Name: A4
Note OFF: Time 252000, Note Name: D#5
Note ON: Time 252240, Note Name: G#5, Velocity: 65
Note OFF: Time 252460, Note Name: G#5
Note ON: Time 252480, Note Name: G#5, Velocity: 66
Note ON: Time 252960, Note Name: D#5, Velocity: 45
Note ON: Time 252960, Note Name: C5, Velocity: 35
Note ON: Time 252960, Note Name: A4, Velocity: 35
Note OFF: Time 253435, Note Name: A4
Note OFF: Time 253435, Note Name: C5
Note OFF: Time 253435, Note Name: D#5
Note ON: Time 253440, Note Name: D#5, Velocity: 45
Note ON: Time 253440, Note Name: C5, Velocity: 35
Note ON: Time 253440, Note Name: A4, Velocity: 35
Note OFF: Time 253915, Note Name: A4
Note OFF: Time 253915, Note Name: C5
Note OFF: Time 253915, Note Name: D#5
Note OFF: Time 253920, Note Name: G#5
Note ON: Time 253920, Note Name: F#5, Velocity: 69
Note ON: Time 254400, Note Name: A4, Velocity: 38
Note ON: Time 254400, Note Name: C5, Velocity: 38
Note ON: Time 254400, Note Name: D#5, Velocity: 47
Note OFF: Time 254880, Note Name: D#5
Note OFF: Time 254880, Note Name: F#5
Note OFF: Time 254880, Note Name: A4
Note OFF: Time 254880, Note Name: C5
Note ON: Time 255120, Note Name: G#5, Velocity: 71
Note OFF: Time 255340, Note Name: G#5
Note ON: Time 255360, Note Name: G#5, Velocity: 74
Note ON: Time 255840, Note Name: D#5, Velocity: 50
Note ON: Time 255840, Note Name: C5, Velocity: 39
Note ON: Time 255840, Note Name: A4, Velocity: 39
Note OFF: Time 256315, Note Name: A4
Note OFF: Time 256315, Note Name: C5
Note OFF: Time 256315, Note Name: D#5
Note ON: Time 256320, Note Name: D#5, Velocity: 50
Note ON: Time 256320, Note Name: C5, Velocity: 40
Note ON: Time 256320, Note Name: A4, Velocity: 40
Note OFF: Time 256795, Note Name: A4
Note OFF: Time 256795, Note Name: C5
Note OFF: Time 256795, Note Name: D#5
Note OFF: Time 256800, Note Name: G#5
Note ON: Time 256800, Note Name: F#5, Velocity: 81
Note ON: Time 257280, Note Name: D#5, Velocity: 53
Note ON: Time 257280, Note Name: A4, Velocity: 42
Note ON: Time 257280, Note Name: C5, Velocity: 42
Note OFF: Time 257760, Note Name: C5
Note OFF: Time 257760, Note Name: F#5
Note OFF: Time 257760, Note Name: D#5
Note OFF: Time 257760, Note Name: A4
Note ON: Time 258000, Note Name: G#5, Velocity: 77
Note OFF: Time 258240, Note Name: G#5
Note ON: Time 258240, Note Name: A5, Velocity: 78
Note ON: Time 258720, Note Name: F#5, Velocity: 57
Note ON: Time 258720, Note Name: C5, Velocity: 47
Note ON: Time 258720, Note Name: D#5, Velocity: 47
Note OFF: Time 259195, Note Name: D#5
Note OFF: Time 259195, Note Name: C5
Note OFF: Time 259195, Note Name: F#5
Note ON: Time 259200, Note Name: F#5, Velocity: 59
Note ON: Time 259200, Note Name: D#5, Velocity: 48
Note ON: Time 259200, Note Name: C5, Velocity: 48
Note OFF: Time 259675, Note Name: C5
Note OFF: Time 259675, Note Name: D#5
Note OFF: Time 259675, Note Name: F#5
Note OFF: Time 259680, Note Name: A5
Note ON: Time 259680, Note Name: G#5, Velocity: 94
Note ON: Time 260160, Note Name: F#5, Velocity: 63
Note ON: Time 260160, Note Name: D#5, Velocity: 50
Note ON: Time 260160, Note Name: C5, Velocity: 50
Note OFF: Time 260635, Note Name: C5
Note OFF: Time 260635, Note Name: D#5
Note OFF: Time 260635, Note Name: F#5
Note OFF: Time 260640, Note Name: G#5
Note ON: Time 260640, Note Name: D#5, Velocity: 50
Note ON: Time 260640, Note Name: C5, Velocity: 50
Note ON: Time 260640, Note Name: F#5, Velocity: 61
Note ON: Time 260640, Note Name: A5, Velocity: 100
Note OFF: Time 261115, Note Name: A5
Note OFF: Time 261115, Note Name: D#5
Note OFF: Time 261115, Note Name: C5
Note OFF: Time 261115, Note Name: F#5
Note ON: Time 261120, Note Name: B4, Velocity: 82
Note ON: Time 261120, Note Name: D5, Velocity: 82
Note ON: Time 261120, Note Name: B5, Velocity: 99
Note ON: Time 261120, Note Name: G#5, Velocity: 82
Note ON: Time 261120, Note Name: E5, Velocity: 82
Note OFF: Time 262560, Note Name: E5
Note OFF: Time 262560, Note Name: B5
Note OFF: Time 262560, Note Name: B4
Note OFF: Time 262560, Note Name: D5
Note OFF: Time 262560, Note Name: G#5
Note ON: Time 262560, Note Name: E5, Velocity: 81
Note ON: Time 262560, Note Name: D5, Velocity: 81
Note ON: Time 262560, Note Name: G#5, Velocity: 81
Note ON: Time 262560, Note Name: C#6, Velocity: 96
Note OFF: Time 263520, Note Name: C#6
Note OFF: Time 263520, Note Name: E5
Note OFF: Time 263520, Note Name: D5
Note OFF: Time 263520, Note Name: G#5
Note ON: Time 263520, Note Name: D5, Velocity: 77
Note ON: Time 263520, Note Name: E5, Velocity: 77
Note ON: Time 263520, Note Name: G#5, Velocity: 77
Note ON: Time 263520, Note Name: C#6, Velocity: 91
Note OFF: Time 264000, Note Name: C#6
Note OFF: Time 264000, Note Name: D5
Note OFF: Time 264000, Note Name: E5
Note OFF: Time 264000, Note Name: G#5
Note ON: Time 264000, Note Name: A5, Velocity: 96
Note ON: Time 264000, Note Name: C#5, Velocity: 81
Note ON: Time 264000, Note Name: A4, Velocity: 81
Note OFF: Time 265440, Note Name: A4
Note OFF: Time 265440, Note Name: C#5
Note OFF: Time 265440, Note Name: A5
Note ON: Time 265440, Note Name: A5, Velocity: 89
Note ON: Time 265440, Note Name: C#6, Velocity: 89
Note ON: Time 265440, Note Name: A6, Velocity: 105
Note OFF: Time 266400, Note Name: A6
Note OFF: Time 266400, Note Name: C#6
Note OFF: Time 266400, Note Name: A5
Note ON: Time 266400, Note Name: G#5, Velocity: 85
Note ON: Time 266400, Note Name: C#6, Velocity: 85
Note ON: Time 266400, Note Name: G#6, Velocity: 101
Note OFF: Time 266880, Note Name: G#6
Note OFF: Time 266880, Note Name: C#6
Note OFF: Time 266880, Note Name: G#5
Note ON: Time 266880, Note Name: F#5, Velocity: 85
Note ON: Time 266880, Note Name: C#6, Velocity: 89
Note ON: Time 266880, Note Name: F#6, Velocity: 103
Note OFF: Time 268320, Note Name: F#6
Note OFF: Time 268320, Note Name: C#6
Note OFF: Time 268320, Note Name: F#5
Note ON: Time 268320, Note Name: B5, Velocity: 86
Note ON: Time 268320, Note Name: D#6, Velocity: 86
Note ON: Time 268320, Note Name: G#6, Velocity: 102
Note OFF: Time 269280, Note Name: G#6
Note OFF: Time 269280, Note Name: D#6
Note OFF: Time 269280, Note Name: B5
Note ON: Time 269280, Note Name: G#6, Velocity: 93
Note ON: Time 269280, Note Name: D#6, Velocity: 79
Note ON: Time 269280, Note Name: A5, Velocity: 79
Note OFF: Time 269760, Note Name: A5
Note OFF: Time 269760, Note Name: D#6
Note OFF: Time 269760, Note Name: G#6
Note ON: Time 269760, Note Name: E6, Velocity: 103
Note ON: Time 269760, Note Name: G#5, Velocity: 88
Note ON: Time 269760, Note Name: E5, Velocity: 88
Note OFF: Time 271200, Note Name: E5
Note OFF: Time 271200, Note Name: G#5
Note OFF: Time 271200, Note Name: E6
Note ON: Time 271200, Note Name: E6, Velocity: 113
Note ON: Time 271200, Note Name: E5, Velocity: 96
Note OFF: Time 272160, Note Name: E5
Note OFF: Time 272160, Note Name: E6
Note ON: Time 272160, Note Name: E5, Velocity: 96
Note ON: Time 272160, Note Name: E6, Velocity: 113
Note OFF: Time 272640, Note Name: E6
Note OFF: Time 272640, Note Name: E5
Note ON: Time 272640, Note Name: A5, Velocity: 86
Note ON: Time 272640, Note Name: E5, Velocity: 94
Note ON: Time 272640, Note Name: E6, Velocity: 113
Note OFF: Time 273600, Note Name: E6
Note OFF: Time 273600, Note Name: E5
Note ON: Time 273600, Note Name: D5, Velocity: 82
Note ON: Time 273600, Note Name: D6, Velocity: 97
Note OFF: Time 274080, Note Name: D6
Note OFF: Time 274080, Note Name: D5
Note OFF: Time 274080, Note Name: A5
Note ON: Time 274080, Note Name: D6, Velocity: 95
Note ON: Time 274080, Note Name: D5, Velocity: 81
Note OFF: Time 274240, Note Name: D5
Note OFF: Time 274240, Note Name: D6
Note ON: Time 274240, Note Name: E5, Velocity: 79
Note ON: Time 274240, Note Name: E6, Velocity: 93
Note OFF: Time 274400, Note Name: E6
Note OFF: Time 274400, Note Name: E5
Note ON: Time 274400, Note Name: D5, Velocity: 75
Note ON: Time 274400, Note Name: D6, Velocity: 90
Note OFF: Time 274560, Note Name: D6
Note OFF: Time 274560, Note Name: D5
Note ON: Time 274560, Note Name: C#5, Velocity: 82
Note ON: Time 274560, Note Name: C#6, Velocity: 97
Note OFF: Time 274800, Note Name: C#6
Note OFF: Time 274800, Note Name: C#5
Note ON: Time 274800, Note Name: D6, Velocity: 93
Note ON: Time 274800, Note Name: D5, Velocity: 79
Note OFF: Time 275040, Note Name: D5
Note OFF: Time 275040, Note Name: D6
Note ON: Time 275040, Note Name: F#6, Velocity: 97
Note ON: Time 275040, Note Name: F#5, Velocity: 82
Note OFF: Time 275280, Note Name: F#5
Note OFF: Time 275280, Note Name: F#6
Note ON: Time 275280, Note Name: E6, Velocity: 92
Note ON: Time 275280, Note Name: E5, Velocity: 78
Note OFF: Time 275520, Note Name: E5
Note OFF: Time 275520, Note Name: E6
Note ON: Time 275520, Note Name: D5, Velocity: 94
Note ON: Time 275520, Note Name: G#5, Velocity: 86
Note ON: Time 275520, Note Name: D6, Velocity: 113
Note OFF: Time 276480, Note Name: D6
Note OFF: Time 276480, Note Name: D5
Note ON: Time 276480, Note Name: C#5, Velocity: 82
Note ON: Time 276480, Note Name: C#6, Velocity: 97
Note OFF: Time 276960, Note Name: C#6
Note OFF: Time 276960, Note Name: C#5
Note OFF: Time 276960, Note Name: G#5
Note ON: Time 276960, Note Name: C#6, Velocity: 95
Note ON: Time 276960, Note Name: C#5, Velocity: 81
Note OFF: Time 277120, Note Name: C#5
Note OFF: Time 277120, Note Name: C#6
Note ON: Time 277120, Note Name: D5, Velocity: 79
Note ON: Time 277120, Note Name: D6, Velocity: 93
Note OFF: Time 277280, Note Name: D6
Note OFF: Time 277280, Note Name: D5
Note ON: Time 277280, Note Name: C#5, Velocity: 75
Note ON: Time 277280, Note Name: C#6, Velocity: 90
Note OFF: Time 277440, Note Name: C#6
Note OFF: Time 277440, Note Name: C#5
Note ON: Time 277440, Note Name: C5, Velocity: 82
Note ON: Time 277440, Note Name: C6, Velocity: 97
Note OFF: Time 277680, Note Name: C6
Note OFF: Time 277680, Note Name: C5
Note ON: Time 277680, Note Name: C#6, Velocity: 93
Note ON: Time 277680, Note Name: C#5, Velocity: 79
Note OFF: Time 277920, Note Name: C#5
Note OFF: Time 277920, Note Name: C#6
Note ON: Time 277920, Note Name: E5, Velocity: 82
Note ON: Time 277920, Note Name: E6, Velocity: 97
Note OFF: Time 278160, Note Name: E6
Note OFF: Time 278160, Note Name: E5
Note ON: Time 278160, Note Name: D5, Velocity: 78
Note ON: Time 278160, Note Name: D6, Velocity: 92
Note OFF: Time 278400, Note Name: D6
Note OFF: Time 278400, Note Name: D5
Note ON: Time 278400, Note Name: F#5, Velocity: 86
Note ON: Time 278400, Note Name: C#5, Velocity: 94
Note ON: Time 278400, Note Name: C#6, Velocity: 110
Note OFF: Time 278880, Note Name: C#6
Note OFF: Time 278880, Note Name: C#5
Note ON: Time 278880, Note Name: B4, Velocity: 82
Note ON: Time 278880, Note Name: B5, Velocity: 97
Note OFF: Time 279600, Note Name: B5
Note OFF: Time 279600, Note Name: B4
Note ON: Time 279600, Note Name: A#4, Velocity: 82
Note ON: Time 279600, Note Name: A#5, Velocity: 97
Note OFF: Time 279840, Note Name: A#5
Note OFF: Time 279840, Note Name: A#4
Note OFF: Time 279840, Note Name: F#5
Note ON: Time 279840, Note Name: B5, Velocity: 97
Note ON: Time 279840, Note Name: B4, Velocity: 82
Note ON: Time 279840, Note Name: F5, Velocity: 86
Note OFF: Time 280200, Note Name: B4
Note OFF: Time 280200, Note Name: B5
Note ON: Time 280200, Note Name: C5, Velocity: 79
Note ON: Time 280200, Note Name: C6, Velocity: 93
Note OFF: Time 280560, Note Name: C6
Note OFF: Time 280560, Note Name: C5
Note ON: Time 280560, Note Name: C#6, Velocity: 97
Note ON: Time 280560, Note Name: C#5, Velocity: 82
Note OFF: Time 280920, Note Name: C#5
Note OFF: Time 280920, Note Name: C#6
Note ON: Time 280920, Note Name: G#4, Velocity: 78
Note ON: Time 280920, Note Name: G#5, Velocity: 92
Note OFF: Time 281280, Note Name: G#5
Note OFF: Time 281280, Note Name: G#4
Note OFF: Time 281280, Note Name: F5
Note ON: Time 281280, Note Name: C#5, Velocity: 77
Note ON: Time 281280, Note Name: F#5, Velocity: 81
Note ON: Time 281280, Note Name: B4, Velocity: 94
Note ON: Time 281280, Note Name: B5, Velocity: 113
Note OFF: Time 281760, Note Name: B5
Note OFF: Time 281760, Note Name: B4
Note ON: Time 281760, Note Name: A5, Velocity: 97
Note ON: Time 281760, Note Name: A4, Velocity: 82
Note OFF: Time 282240, Note Name: F#5
Note OFF: Time 282240, Note Name: C#5
Note OFF: Time 282480, Note Name: A5
Note ON: Time 282480, Note Name: G#5, Velocity: 97
Note OFF: Time 282600, Note Name: G#5
Note ON: Time 282600, Note Name: F#5, Velocity: 80
Note OFF: Time 282660, Note Name: F#5
Note ON: Time 282660, Note Name: G#5, Velocity: 79
Note OFF: Time 282720, Note Name: G#5
Note OFF: Time 282720, Note Name: A4
Note ON: Time 282720, Note Name: A4, Velocity: 82
Note ON: Time 282720, Note Name: F#5, Velocity: 97
Note ON: Time 282720, Note Name: D#5, Velocity: 82
Note ON: Time 282720, Note Name: B4, Velocity: 82
Note OFF: Time 283200, Note Name: B4
Note OFF: Time 283200, Note Name: A4
Note OFF: Time 283200, Note Name: F#5
Note OFF: Time 283200, Note Name: D#5
Note ON: Time 283200, Note Name: A4, Velocity: 71
Note ON: Time 283200, Note Name: F5, Velocity: 84
Note ON: Time 283200, Note Name: D#5, Velocity: 71
Note ON: Time 283200, Note Name: B4, Velocity: 71
Note OFF: Time 283420, Note Name: B4
Note OFF: Time 283420, Note Name: A4
Note OFF: Time 283420, Note Name: F5
Note OFF: Time 283420, Note Name: D#5
Note ON: Time 283440, Note Name: B4, Velocity: 74
Note ON: Time 283440, Note Name: A4, Velocity: 74
Note ON: Time 283440, Note Name: D#5, Velocity: 74
Note ON: Time 283440, Note Name: F#5, Velocity: 88
Note OFF: Time 283660, Note Name: F#5
Note OFF: Time 283660, Note Name: B4
Note OFF: Time 283660, Note Name: A4
Note OFF: Time 283660, Note Name: D#5
Note ON: Time 283680, Note Name: A4, Velocity: 77
Note ON: Time 283680, Note Name: B4, Velocity: 77
Note ON: Time 283680, Note Name: D#5, Velocity: 77
Note ON: Time 283680, Note Name: G#5, Velocity: 91
Note OFF: Time 283900, Note Name: G#5
Note OFF: Time 283900, Note Name: A4
Note OFF: Time 283900, Note Name: B4
Note OFF: Time 283900, Note Name: D#5
Note ON: Time 283920, Note Name: B4, Velocity: 80
Note ON: Time 283920, Note Name: D#5, Velocity: 80
Note ON: Time 283920, Note Name: A4, Velocity: 80
Note ON: Time 283920, Note Name: A5, Velocity: 94
Note OFF: Time 284140, Note Name: A5
Note OFF: Time 284140, Note Name: B4
Note OFF: Time 284140, Note Name: D#5
Note OFF: Time 284140, Note Name: A4
Note ON: Time 284160, Note Name: G#4, Velocity: 82
Note ON: Time 284160, Note Name: E4, Velocity: 82
Note ON: Time 284160, Note Name: D4, Velocity: 82
Note ON: Time 284160, Note Name: B4, Velocity: 99
Note OFF: Time 285600, Note Name: B4
Note OFF: Time 285600, Note Name: G#4
Note OFF: Time 285600, Note Name: E4
Note OFF: Time 285600, Note Name: D4
Note ON: Time 285600, Note Name: C#5, Velocity: 81
Note ON: Time 285600, Note Name: E5, Velocity: 96
Note ON: Time 285600, Note Name: E4, Velocity: 81
Note ON: Time 285600, Note Name: G#4, Velocity: 81
Note OFF: Time 286560, Note Name: G#4
Note OFF: Time 286560, Note Name: C#5
Note OFF: Time 286560, Note Name: E5
Note OFF: Time 286560, Note Name: E4
Note ON: Time 286560, Note Name: D4, Velocity: 77
Note ON: Time 286560, Note Name: E5, Velocity: 91
Note ON: Time 286560, Note Name: E4, Velocity: 77
Note ON: Time 286560, Note Name: G#4, Velocity: 77
Note ON: Time 286560, Note Name: C#5, Velocity: 77
Note OFF: Time 287040, Note Name: C#5
Note OFF: Time 287040, Note Name: E4
Note OFF: Time 287040, Note Name: D4
Note OFF: Time 287040, Note Name: E5
Note OFF: Time 287040, Note Name: G#4
Note ON: Time 287040, Note Name: C#4, Velocity: 81
Note ON: Time 287040, Note Name: A3, Velocity: 81
Note ON: Time 287040, Note Name: A4, Velocity: 96
Note OFF: Time 287520, Note Name: A4
Note OFF: Time 287520, Note Name: A3
Note OFF: Time 287520, Note Name: C#4
Note ON: Time 288000, Note Name: C#5, Velocity: 81
Note ON: Time 288000, Note Name: A4, Velocity: 81
Note ON: Time 288000, Note Name: A5, Velocity: 96
Note OFF: Time 288480, Note Name: A5
Note OFF: Time 288480, Note Name: A4
Note OFF: Time 288480, Note Name: C#5
Note ON: Time 288480, Note Name: A6, Velocity: 105
Note ON: Time 288480, Note Name: A5, Velocity: 89
Note ON: Time 288480, Note Name: C#6, Velocity: 89
Note OFF: Time 289440, Note Name: C#6
Note OFF: Time 289440, Note Name: A5
Note OFF: Time 289440, Note Name: A6
Note ON: Time 289440, Note Name: G#6, Velocity: 101
Note ON: Time 289440, Note Name: C#6, Velocity: 85
Note ON: Time 289440, Note Name: G#5, Velocity: 85
Note OFF: Time 289920, Note Name: G#5
Note OFF: Time 289920, Note Name: C#6
Note OFF: Time 289920, Note Name: G#6
Note ON: Time 289920, Note Name: C#6, Velocity: 89
Note ON: Time 289920, Note Name: F#5, Velocity: 87
Note ON: Time 289920, Note Name: F#6, Velocity: 103
Note OFF: Time 291360, Note Name: F#6
Note OFF: Time 291360, Note Name: F#5
Note OFF: Time 291360, Note Name: C#6
Note ON: Time 291360, Note Name: G#6, Velocity: 102
Note ON: Time 291360, Note Name: D#6, Velocity: 86
Note ON: Time 291360, Note Name: B5, Velocity: 86
Note OFF: Time 292320, Note Name: B5
Note OFF: Time 292320, Note Name: D#6
Note OFF: Time 292320, Note Name: G#6
Note ON: Time 292320, Note Name: G#6, Velocity: 93
Note ON: Time 292320, Note Name: D#6, Velocity: 79
Note ON: Time 292320, Note Name: A5, Velocity: 79
Note OFF: Time 292800, Note Name: A5
Note OFF: Time 292800, Note Name: D#6
Note OFF: Time 292800, Note Name: G#6
Note ON: Time 292800, Note Name: G#5, Velocity: 88
Note ON: Time 292800, Note Name: E5, Velocity: 88
Note ON: Time 292800, Note Name: E6, Velocity: 103
Note OFF: Time 294240, Note Name: E6
Note OFF: Time 294240, Note Name: E5
Note OFF: Time 294240, Note Name: G#5
Note ON: Time 294240, Note Name: E6, Velocity: 89
Note ON: Time 294240, Note Name: E7, Velocity: 104
Note OFF: Time 295560, Note Name: E7
Note OFF: Time 295560, Note Name: E6
Note ON: Time 295560, Note Name: E6, Velocity: 89
Note ON: Time 295560, Note Name: E7, Velocity: 104
Note OFF: Time 295680, Note Name: E7
Note OFF: Time 295680, Note Name: E6
Note ON: Time 295680, Note Name: E6, Velocity: 87
Note ON: Time 295680, Note Name: E7, Velocity: 104
Note OFF: Time 295920, Note Name: E7
Note OFF: Time 295920, Note Name: E6
Note ON: Time 297120, Note Name: F#4, Velocity: 80
Note ON: Time 297120, Note Name: F#5, Velocity: 94
Note OFF: Time 299040, Note Name: F#5
Note OFF: Time 299040, Note Name: F#4
Note ON: Time 299040, Note Name: F#5, Velocity: 79
Note ON: Time 299040, Note Name: F#4, Velocity: 67
Note OFF: Time 299160, Note Name: F#4
Note OFF: Time 299160, Note Name: F#5
Note ON: Time 299160, Note Name: G#4, Velocity: 67
Note ON: Time 299160, Note Name: G#5, Velocity: 79
Note OFF: Time 299280, Note Name: G#5
Note OFF: Time 299280, Note Name: G#4
Note ON: Time 299280, Note Name: F#4, Velocity: 70
Note ON: Time 299280, Note Name: F#5, Velocity: 83
Note OFF: Time 299520, Note Name: F#5
Note OFF: Time 299520, Note Name: F#4
Note ON: Time 299520, Note Name: F4, Velocity: 64
Note ON: Time 299520, Note Name: F5, Velocity: 77
Note OFF: Time 299760, Note Name: F5
Note OFF: Time 299760, Note Name: F4
Note ON: Time 299760, Note Name: F#4, Velocity: 67
Note ON: Time 299760, Note Name: F#5, Velocity: 79
Note OFF: Time 300000, Note Name: F#5
Note OFF: Time 300000, Note Name: F#4
Note ON: Time 300000, Note Name: G#4, Velocity: 68
Note ON: Time 300000, Note Name: G#5, Velocity: 81
Note OFF: Time 300240, Note Name: G#5
Note OFF: Time 300240, Note Name: G#4
Note ON: Time 300240, Note Name: A#4, Velocity: 71
Note ON: Time 300240, Note Name: A#5, Velocity: 84
Note OFF: Time 300480, Note Name: A#5
Note OFF: Time 300480, Note Name: A#4
Note ON: Time 300480, Note Name: B4, Velocity: 73
Note ON: Time 300480, Note Name: B5, Velocity: 86
Note OFF: Time 300720, Note Name: B5
Note OFF: Time 300720, Note Name: B4
Note ON: Time 300720, Note Name: C#5, Velocity: 74
Note ON: Time 300720, Note Name: C#6, Velocity: 89
Note OFF: Time 300960, Note Name: C#6
Note OFF: Time 300960, Note Name: C#5
Note ON: Time 300960, Note Name: D6, Velocity: 91
Note ON: Time 300960, Note Name: D5, Velocity: 77
Note OFF: Time 301200, Note Name: D5
Note OFF: Time 301200, Note Name: D6
Note ON: Time 301200, Note Name: E5, Velocity: 80
Note ON: Time 301200, Note Name: E6, Velocity: 94
Note OFF: Time 301440, Note Name: E6
Note OFF: Time 301440, Note Name: E5
Note ON: Time 301440, Note Name: F#5, Velocity: 94
Note ON: Time 301440, Note Name: F#6, Velocity: 113
Note OFF: Time 301680, Note Name: F#6
Note OFF: Time 301680, Note Name: F#5
Note ON: Time 302880, Note Name: G#4, Velocity: 80
Note ON: Time 302880, Note Name: G#5, Velocity: 94
Note OFF: Time 303840, Note Name: G#5
Note OFF: Time 303840, Note Name: G#4
Note ON: Time 303840, Note Name: G#5, Velocity: 94
Note ON: Time 303840, Note Name: G#4, Velocity: 80
Note OFF: Time 304320, Note Name: G#4
Note OFF: Time 304320, Note Name: G#5
Note ON: Time 304320, Note Name: G#4, Velocity: 79
Note ON: Time 304560, Note Name: G#5, Velocity: 74
Note OFF: Time 304800, Note Name: G#5
Note ON: Time 304800, Note Name: A5, Velocity: 79
Note OFF: Time 305040, Note Name: A5
Note ON: Time 305040, Note Name: G#5, Velocity: 74
Note OFF: Time 305280, Note Name: G#5
Note OFF: Time 305280, Note Name: G#4
Note ON: Time 305280, Note Name: G4, Velocity: 64
Note ON: Time 305280, Note Name: G5, Velocity: 77
Note OFF: Time 305520, Note Name: G5
Note OFF: Time 305520, Note Name: G4
Note ON: Time 305520, Note Name: G#4, Velocity: 67
Note ON: Time 305520, Note Name: G#5, Velocity: 79
Note OFF: Time 305760, Note Name: G#5
Note OFF: Time 305760, Note Name: G#4
Note ON: Time 305760, Note Name: A#4, Velocity: 68
Note ON: Time 305760, Note Name: A#5, Velocity: 81
Note OFF: Time 306000, Note Name: A#5
Note OFF: Time 306000, Note Name: A#4
Note ON: Time 306000, Note Name: C5, Velocity: 71
Note ON: Time 306000, Note Name: C6, Velocity: 84
Note OFF: Time 306240, Note Name: C6
Note OFF: Time 306240, Note Name: C5
Note ON: Time 306240, Note Name: C#5, Velocity: 73
Note ON: Time 306240, Note Name: C#6, Velocity: 86
Note OFF: Time 306480, Note Name: C#6
Note OFF: Time 306480, Note Name: C#5
Note ON: Time 306480, Note Name: D#5, Velocity: 74
Note ON: Time 306480, Note Name: D#6, Velocity: 89
Note OFF: Time 306720, Note Name: D#6
Note OFF: Time 306720, Note Name: D#5
Note ON: Time 306720, Note Name: E5, Velocity: 77
Note ON: Time 306720, Note Name: E6, Velocity: 91
Note OFF: Time 306960, Note Name: E6
Note OFF: Time 306960, Note Name: E5
Note ON: Time 306960, Note Name: F#6, Velocity: 94
Note ON: Time 306960, Note Name: F#5, Velocity: 80
Note OFF: Time 307200, Note Name: F#5
Note OFF: Time 307200, Note Name: F#6
Note ON: Time 307200, Note Name: G#5, Velocity: 94
Note ON: Time 307200, Note Name: G#6, Velocity: 113
Note OFF: Time 307440, Note Name: G#6
Note OFF: Time 307440, Note Name: G#5
Note ON: Time 308640, Note Name: G#4, Velocity: 80
Note ON: Time 308640, Note Name: G#5, Velocity: 94
Note OFF: Time 309600, Note Name: G#5
Note OFF: Time 309600, Note Name: G#4
Note ON: Time 309600, Note Name: G#4, Velocity: 80
Note ON: Time 309600, Note Name: G#5, Velocity: 94
Note OFF: Time 310080, Note Name: G#5
Note OFF: Time 310080, Note Name: G#4
Note ON: Time 310080, Note Name: G#5, Velocity: 80
Note ON: Time 310080, Note Name: G#4, Velocity: 68
Note OFF: Time 310200, Note Name: G#4
Note OFF: Time 310200, Note Name: G#5
Note ON: Time 310200, Note Name: A#4, Velocity: 62
Note ON: Time 310200, Note Name: A#5, Velocity: 74
Note OFF: Time 310320, Note Name: A#5
Note OFF: Time 310320, Note Name: A#4
Note ON: Time 310320, Note Name: G#4, Velocity: 62
Note ON: Time 310320, Note Name: G#5, Velocity: 74
Note OFF: Time 310560, Note Name: G#5
Note OFF: Time 310560, Note Name: G#4
Note ON: Time 310560, Note Name: G4, Velocity: 64
Note ON: Time 310560, Note Name: G5, Velocity: 77
Note OFF: Time 310800, Note Name: G5
Note OFF: Time 310800, Note Name: G4
Note ON: Time 310800, Note Name: G#4, Velocity: 67
Note ON: Time 310800, Note Name: G#5, Velocity: 79
Note OFF: Time 311040, Note Name: G#5
Note OFF: Time 311040, Note Name: G#4
Note ON: Time 311040, Note Name: A#5, Velocity: 82
Note ON: Time 311040, Note Name: A#4, Velocity: 69
Note OFF: Time 311280, Note Name: A#4
Note OFF: Time 311280, Note Name: A#5
Note ON: Time 311280, Note Name: B4, Velocity: 72
Note ON: Time 311280, Note Name: B5, Velocity: 86
Note OFF: Time 311520, Note Name: B5
Note OFF: Time 311520, Note Name: B4
Note ON: Time 311520, Note Name: C#5, Velocity: 75
Note ON: Time 311520, Note Name: C#6, Velocity: 90
Note OFF: Time 311760, Note Name: C#6
Note OFF: Time 311760, Note Name: C#5
Note ON: Time 311760, Note Name: D#5, Velocity: 78
Note ON: Time 311760, Note Name: D#6, Velocity: 93
Note OFF: Time 312000, Note Name: D#6
Note OFF: Time 312000, Note Name: D#5
Note ON: Time 312000, Note Name: F6, Velocity: 95
Note ON: Time 312000, Note Name: F5, Velocity: 81
Note OFF: Time 312240, Note Name: F5
Note OFF: Time 312240, Note Name: F6
Note ON: Time 312240, Note Name: G5, Velocity: 85
Note ON: Time 312240, Note Name: G6, Velocity: 101
Note OFF: Time 312480, Note Name: G6
Note OFF: Time 312480, Note Name: G5
Note ON: Time 312480, Note Name: G#5, Velocity: 85
Note ON: Time 312480, Note Name: G#6, Velocity: 101
Note OFF: Time 312720, Note Name: G#6
Note OFF: Time 312720, Note Name: G#5
Note ON: Time 312720, Note Name: A#5, Velocity: 86
Note ON: Time 312720, Note Name: A#6, Velocity: 102
Note OFF: Time 312960, Note Name: A#6
Note OFF: Time 312960, Note Name: A#5
Note ON: Time 312960, Note Name: B5, Velocity: 94
Note ON: Time 312960, Note Name: B6, Velocity: 112
Note OFF: Time 313080, Note Name: B6
Note OFF: Time 313080, Note Name: B5
Note ON: Time 313200, Note Name: G#6, Velocity: 85
Note ON: Time 313200, Note Name: B6, Velocity: 85
Note OFF: Time 313320, Note Name: B6
Note OFF: Time 313320, Note Name: G#6
Note ON: Time 313320, Note Name: F6, Velocity: 79
Note OFF: Time 313440, Note Name: F6
Note ON: Time 313440, Note Name: D#6, Velocity: 78
Note OFF: Time 313560, Note Name: D#6
Note ON: Time 313560, Note Name: B5, Velocity: 77
Note OFF: Time 313680, Note Name: B5
Note ON: Time 313680, Note Name: G#5, Velocity: 80
Note ON: Time 313680, Note Name: B5, Velocity: 80
Note OFF: Time 313800, Note Name: B5
Note OFF: Time 313800, Note Name: G#5
Note ON: Time 313800, Note Name: F5, Velocity: 78
Note OFF: Time 313920, Note Name: F5
Note ON: Time 313920, Note Name: D#5, Velocity: 73
Note OFF: Time 314040, Note Name: D#5
Note ON: Time 314040, Note Name: B4, Velocity: 73
Note OFF: Time 314160, Note Name: B4
Note ON: Time 314160, Note Name: B4, Velocity: 74
Note ON: Time 314160, Note Name: G#4, Velocity: 74
Note OFF: Time 314280, Note Name: G#4
Note OFF: Time 314280, Note Name: B4
Note ON: Time 314280, Note Name: F4, Velocity: 64
Note OFF: Time 314400, Note Name: F4
Note ON: Time 314400, Note Name: D#4, Velocity: 64
Note OFF: Time 314520, Note Name: D#4
Note ON: Time 314520, Note Name: B3, Velocity: 63
Note OFF: Time 314640, Note Name: B3
Note ON: Time 314640, Note Name: G#3, Velocity: 69
Note ON: Time 314640, Note Name: B3, Velocity: 69
Note OFF: Time 314760, Note Name: B3
Note OFF: Time 314760, Note Name: G#3
Note ON: Time 314760, Note Name: F3, Velocity: 61
Note OFF: Time 314880, Note Name: F3
Note ON: Time 314880, Note Name: D#3, Velocity: 60
Note OFF: Time 315000, Note Name: D#3
Note ON: Time 315000, Note Name: B2, Velocity: 60
Note OFF: Time 315120, Note Name: B2
Note ON: Time 315120, Note Name: B3, Velocity: 60
Note ON: Time 315120, Note Name: G#3, Velocity: 60
Note OFF: Time 315240, Note Name: G#3
Note OFF: Time 315240, Note Name: B3
Note ON: Time 315240, Note Name: F3, Velocity: 62
Note OFF: Time 315360, Note Name: F3
Note ON: Time 315360, Note Name: D#3, Velocity: 52
Note OFF: Time 315480, Note Name: D#3
Note ON: Time 315480, Note Name: B2, Velocity: 52
Note OFF: Time 315600, Note Name: B2
Note ON: Time 315600, Note Name: G#3, Velocity: 52
Note ON: Time 315600, Note Name: B3, Velocity: 52
Note OFF: Time 315720, Note Name: G#3
Note ON: Time 315720, Note Name: F3, Velocity: 51
Note OFF: Time 315840, Note Name: F3
Note OFF: Time 315840, Note Name: B3
Note ON: Time 315840, Note Name: A#3, Velocity: 52
Note ON: Time 315960, Note Name: G#3, Velocity: 48
Note OFF: Time 315970, Note Name: A#3
Note ON: Time 316080, Note Name: B3, Velocity: 52
Note OFF: Time 316090, Note Name: G#3
Note ON: Time 316200, Note Name: F3, Velocity: 47
Note OFF: Time 316210, Note Name: B3
Note ON: Time 316320, Note Name: A#3, Velocity: 47
Note OFF: Time 316330, Note Name: F3
Note ON: Time 316440, Note Name: G#3, Velocity: 47
Note OFF: Time 316450, Note Name: A#3
Note ON: Time 316560, Note Name: B3, Velocity: 52
Note OFF: Time 316570, Note Name: G#3
Note ON: Time 316680, Note Name: F3, Velocity: 47
Note OFF: Time 316690, Note Name: B3
Note ON: Time 316800, Note Name: A#3, Velocity: 52
Note OFF: Time 316810, Note Name: F3
Note ON: Time 316920, Note Name: G#3, Velocity: 47
Note OFF: Time 316930, Note Name: A#3
Note ON: Time 317040, Note Name: B3, Velocity: 47
Note OFF: Time 317050, Note Name: G#3
Note ON: Time 317160, Note Name: F3, Velocity: 47
Note OFF: Time 317170, Note Name: B3
Note ON: Time 317280, Note Name: A#3, Velocity: 52
Note OFF: Time 317290, Note Name: F3
Note ON: Time 317400, Note Name: G#3, Velocity: 48
Note OFF: Time 317410, Note Name: A#3
Note ON: Time 317520, Note Name: B3, Velocity: 52
Note OFF: Time 317530, Note Name: G#3
Note ON: Time 317640, Note Name: F3, Velocity: 47
Note OFF: Time 317650, Note Name: B3
Note ON: Time 317760, Note Name: A#3, Velocity: 47
Note OFF: Time 317770, Note Name: F3
Note ON: Time 317880, Note Name: G#3, Velocity: 47
Note OFF: Time 317890, Note Name: A#3
Note ON: Time 318000, Note Name: B3, Velocity: 52
Note OFF: Time 318010, Note Name: G#3
Note ON: Time 318120, Note Name: F3, Velocity: 47
Note OFF: Time 318130, Note Name: B3
Note ON: Time 318240, Note Name: A#3, Velocity: 52
Note OFF: Time 318250, Note Name: F3
Note ON: Time 318360, Note Name: G#3, Velocity: 47
Note OFF: Time 318370, Note Name: A#3
Note ON: Time 318480, Note Name: B3, Velocity: 47
Note OFF: Time 318490, Note Name: G#3
Note ON: Time 318600, Note Name: F3, Velocity: 47
Note OFF: Time 318610, Note Name: B3
Note ON: Time 318720, Note Name: A#3, Velocity: 52
Note OFF: Time 318730, Note Name: F3
Note ON: Time 318840, Note Name: G#3, Velocity: 48
Note OFF: Time 318850, Note Name: A#3
Note ON: Time 318960, Note Name: B3, Velocity: 53
Note OFF: Time 318970, Note Name: G#3
Note ON: Time 319080, Note Name: F3, Velocity: 48
Note OFF: Time 319090, Note Name: B3
Note ON: Time 319200, Note Name: A#3, Velocity: 48
Note OFF: Time 319210, Note Name: F3
Note ON: Time 319320, Note Name: G#3, Velocity: 49
Note OFF: Time 319330, Note Name: A#3
Note ON: Time 319440, Note Name: B3, Velocity: 55
Note OFF: Time 319450, Note Name: G#3
Note ON: Time 319560, Note Name: F3, Velocity: 50
Note OFF: Time 319570, Note Name: B3
Note ON: Time 319680, Note Name: A#3, Velocity: 56
Note OFF: Time 319690, Note Name: F3
Note ON: Time 319800, Note Name: G#3, Velocity: 51
Note OFF: Time 319810, Note Name: A#3
Note ON: Time 319920, Note Name: B3, Velocity: 51
Note OFF: Time 319930, Note Name: G#3
Note ON: Time 320040, Note Name: F3, Velocity: 52
Note OFF: Time 320050, Note Name: B3
Note ON: Time 320160, Note Name: A#3, Velocity: 58
Note OFF: Time 320170, Note Name: F3
Note ON: Time 320280, Note Name: G#3, Velocity: 54
Note OFF: Time 320290, Note Name: A#3
Note ON: Time 320400, Note Name: B3, Velocity: 59
Note OFF: Time 320410, Note Name: G#3
Note ON: Time 320520, Note Name: F3, Velocity: 54
Note OFF: Time 320530, Note Name: B3
Note ON: Time 320640, Note Name: A#3, Velocity: 54
Note OFF: Time 320650, Note Name: F3
Note ON: Time 320760, Note Name: G#3, Velocity: 54
Note OFF: Time 320770, Note Name: A#3
Note ON: Time 320880, Note Name: B3, Velocity: 61
Note OFF: Time 320890, Note Name: G#3
Note ON: Time 321000, Note Name: F3, Velocity: 55
Note OFF: Time 321010, Note Name: B3
Note ON: Time 321120, Note Name: A#3, Velocity: 62
Note OFF: Time 321130, Note Name: F3
Note ON: Time 321240, Note Name: G#3, Velocity: 56
Note OFF: Time 321250, Note Name: A#3
Note ON: Time 321360, Note Name: B3, Velocity: 57
Note OFF: Time 321370, Note Name: G#3
Note ON: Time 321480, Note Name: F3, Velocity: 57
Note OFF: Time 321490, Note Name: B3
Note ON: Time 321600, Note Name: A#3, Velocity: 65
Note OFF: Time 321610, Note Name: F3
Note OFF: Time 321840, Note Name: A#3
Note ON: Time 321840, Note Name: A#3, Velocity: 65
Note ON: Time 321960, Note Name: D4, Velocity: 56
Note OFF: Time 321970, Note Name: A#3
Note ON: Time 322080, Note Name: B3, Velocity: 65
Note OFF: Time 322090, Note Name: D4
Note ON: Time 322200, Note Name: D4, Velocity: 58
Note OFF: Time 322210, Note Name: B3
Note ON: Time 322320, Note Name: C#4, Velocity: 65
Note OFF: Time 322330, Note Name: D4
Note ON: Time 322440, Note Name: F4, Velocity: 58
Note OFF: Time 322450, Note Name: C#4
Note ON: Time 322560, Note Name: D4, Velocity: 65
Note OFF: Time 322570, Note Name: F4
Note ON: Time 322680, Note Name: G#4, Velocity: 58
Note OFF: Time 322690, Note Name: D4
Note ON: Time 322800, Note Name: E4, Velocity: 65
Note OFF: Time 322810, Note Name: G#4
Note ON: Time 322920, Note Name: G#4, Velocity: 58
Note OFF: Time 322930, Note Name: E4
Note ON: Time 323040, Note Name: F4, Velocity: 65
Note OFF: Time 323050, Note Name: G#4
Note ON: Time 323160, Note Name: B4, Velocity: 58
Note OFF: Time 323170, Note Name: F4
Note ON: Time 323280, Note Name: G4, Velocity: 65
Note OFF: Time 323290, Note Name: B4
Note ON: Time 323400, Note Name: B4, Velocity: 58
Note OFF: Time 323410, Note Name: G4
Note ON: Time 323520, Note Name: G#4, Velocity: 64
Note OFF: Time 323530, Note Name: B4
Note ON: Time 323640, Note Name: D5, Velocity: 57
Note OFF: Time 323650, Note Name: G#4
Note ON: Time 323760, Note Name: A#4, Velocity: 63
Note OFF: Time 323770, Note Name: D5
Note ON: Time 323880, Note Name: D5, Velocity: 56
Note OFF: Time 323890, Note Name: A#4
Note ON: Time 324000, Note Name: B4, Velocity: 63
Note OFF: Time 324010, Note Name: D5
Note ON: Time 324120, Note Name: D5, Velocity: 57
Note OFF: Time 324130, Note Name: B4
Note ON: Time 324240, Note Name: C#5, Velocity: 62
Note OFF: Time 324250, Note Name: D5
Note ON: Time 324360, Note Name: F5, Velocity: 56
Note OFF: Time 324370, Note Name: C#5
Note ON: Time 324480, Note Name: D5, Velocity: 62
Note OFF: Time 324490, Note Name: F5
Note ON: Time 324600, Note Name: G#5, Velocity: 56
Note OFF: Time 324610, Note Name: D5
Note ON: Time 324720, Note Name: E5, Velocity: 62
Note OFF: Time 324730, Note Name: G#5
Note ON: Time 324840, Note Name: G#5, Velocity: 55
Note OFF: Time 324850, Note Name: E5
Note ON: Time 324960, Note Name: F5, Velocity: 61
Note OFF: Time 324970, Note Name: G#5
Note ON: Time 325080, Note Name: B5, Velocity: 55
Note OFF: Time 325090, Note Name: F5
Note ON: Time 325200, Note Name: G5, Velocity: 61
Note OFF: Time 325210, Note Name: B5
Note ON: Time 325320, Note Name: B5, Velocity: 54
Note OFF: Time 325330, Note Name: G5
Note ON: Time 325440, Note Name: G#5, Velocity: 60
Note OFF: Time 325450, Note Name: B5
Note ON: Time 325560, Note Name: D6, Velocity: 54
Note OFF: Time 325570, Note Name: G#5
Note ON: Time 325680, Note Name: A#5, Velocity: 60
Note OFF: Time 325690, Note Name: D6
Note ON: Time 325800, Note Name: D6, Velocity: 54
Note OFF: Time 325810, Note Name: A#5
Note ON: Time 325920, Note Name: B5, Velocity: 59
Note OFF: Time 325930, Note Name: D6
Note ON: Time 326040, Note Name: D6, Velocity: 52
Note OFF: Time 326050, Note Name: B5
Note ON: Time 326160, Note Name: C#6, Velocity: 59
Note OFF: Time 326170, Note Name: D6
Note ON: Time 326280, Note Name: F6, Velocity: 53
Note OFF: Time 326290, Note Name: C#6
Note ON: Time 326400, Note Name: D6, Velocity: 59
Note OFF: Time 326410, Note Name: F6
Note ON: Time 326520, Note Name: G#6, Velocity: 54
Note OFF: Time 326530, Note Name: D6
Note ON: Time 326640, Note Name: E6, Velocity: 58
Note OFF: Time 326650, Note Name: G#6
Note ON: Time 326760, Note Name: G#6, Velocity: 54
Note OFF: Time 326770, Note Name: E6
Note ON: Time 326880, Note Name: F6, Velocity: 58
Note OFF: Time 326890, Note Name: G#6
Note ON: Time 327000, Note Name: B6, Velocity: 53
Note OFF: Time 327010, Note Name: F6
Note ON: Time 327120, Note Name: G6, Velocity: 57
Note OFF: Time 327130, Note Name: B6
Note ON: Time 327240, Note Name: B6, Velocity: 54
Note OFF: Time 327250, Note Name: G6
Note ON: Time 327360, Note Name: A#6, Velocity: 57
Note OFF: Time 327370, Note Name: B6
Note ON: Time 327480, Note Name: G#6, Velocity: 51
Note OFF: Time 327490, Note Name: A#6
Note ON: Time 327600, Note Name: B6, Velocity: 57
Note OFF: Time 327610, Note Name: G#6
Note ON: Time 327720, Note Name: F6, Velocity: 51
Note OFF: Time 327730, Note Name: B6
Note ON: Time 327840, Note Name: A#6, Velocity: 57
Note OFF: Time 327850, Note Name: F6
Note ON: Time 327960, Note Name: G#6, Velocity: 51
Note OFF: Time 327970, Note Name: A#6
Note ON: Time 328080, Note Name: C7, Velocity: 57
Note OFF: Time 328090, Note Name: G#6
Note ON: Time 328200, Note Name: F6, Velocity: 50
Note OFF: Time 328210, Note Name: C7
Note ON: Time 328320, Note Name: A#6, Velocity: 57
Note OFF: Time 328330, Note Name: F6
Note ON: Time 328440, Note Name: G#6, Velocity: 52
Note OFF: Time 328450, Note Name: A#6
Note ON: Time 328560, Note Name: C#7, Velocity: 60
Note OFF: Time 328570, Note Name: G#6
Note ON: Time 328680, Note Name: F6, Velocity: 51
Note OFF: Time 328690, Note Name: C#7
Note ON: Time 328800, Note Name: A#6, Velocity: 61
Note OFF: Time 328810, Note Name: F6
Note ON: Time 328920, Note Name: G#6, Velocity: 51
Note OFF: Time 328930, Note Name: A#6
Note ON: Time 329040, Note Name: D7, Velocity: 63
Note OFF: Time 329050, Note Name: G#6
Note ON: Time 329160, Note Name: F6, Velocity: 51
Note OFF: Time 329170, Note Name: D7
Note ON: Time 329280, Note Name: A#6, Velocity: 57
Note OFF: Time 329290, Note Name: F6
Note ON: Time 329400, Note Name: G#6, Velocity: 52
Note OFF: Time 329410, Note Name: A#6
Note ON: Time 329520, Note Name: D#7, Velocity: 63
Note OFF: Time 329530, Note Name: G#6
Note ON: Time 329640, Note Name: F6, Velocity: 52
Note OFF: Time 329650, Note Name: D#7
Note ON: Time 329760, Note Name: A#6, Velocity: 61
Note OFF: Time 329770, Note Name: F6
Note ON: Time 329880, Note Name: G#6, Velocity: 52
Note OFF: Time 329890, Note Name: A#6
Note ON: Time 330000, Note Name: E7, Velocity: 59
Note OFF: Time 330010, Note Name: G#6
Note ON: Time 330120, Note Name: F6, Velocity: 51
Note OFF: Time 330130, Note Name: E7
Note ON: Time 330240, Note Name: F7, Velocity: 63
Note OFF: Time 330250, Note Name: F6
Note ON: Time 330360, Note Name: D7, Velocity: 51
Note OFF: Time 330370, Note Name: F7
Note ON: Time 330480, Note Name: C#7, Velocity: 52
Note OFF: Time 330490, Note Name: D7
Note ON: Time 330600, Note Name: E7, Velocity: 52
Note OFF: Time 330610, Note Name: C#7
Note ON: Time 330720, Note Name: D#7, Velocity: 57
Note OFF: Time 330730, Note Name: E7
Note ON: Time 330840, Note Name: C7, Velocity: 53
Note OFF: Time 330850, Note Name: D#7
Note ON: Time 330960, Note Name: B6, Velocity: 57
Note OFF: Time 330970, Note Name: C7
Note ON: Time 331080, Note Name: D7, Velocity: 52
Note OFF: Time 331090, Note Name: B6
Note ON: Time 331200, Note Name: C#7, Velocity: 52
Note OFF: Time 331210, Note Name: D7
Note ON: Time 331320, Note Name: A#6, Velocity: 52
Note OFF: Time 331330, Note Name: C#7
Note ON: Time 331440, Note Name: A6, Velocity: 57
Note OFF: Time 331450, Note Name: A#6
Note ON: Time 331560, Note Name: C7, Velocity: 52
Note OFF: Time 331570, Note Name: A6
Note ON: Time 331680, Note Name: B6, Velocity: 57
Note OFF: Time 331690, Note Name: C7
Note ON: Time 331800, Note Name: G#6, Velocity: 52
Note OFF: Time 331810, Note Name: B6
Note ON: Time 331920, Note Name: G6, Velocity: 52
Note OFF: Time 331930, Note Name: G#6
Note ON: Time 332040, Note Name: A#6, Velocity: 53
Note OFF: Time 332050, Note Name: G6
Note ON: Time 332160, Note Name: G#6, Velocity: 57
Note OFF: Time 332170, Note Name: A#6
Note ON: Time 332280, Note Name: F6, Velocity: 55
Note OFF: Time 332290, Note Name: G#6
Note ON: Time 332400, Note Name: D6, Velocity: 57
Note OFF: Time 332410, Note Name: F6
Note ON: Time 332520, Note Name: A#5, Velocity: 52
Note OFF: Time 332530, Note Name: D6
Note ON: Time 332640, Note Name: A5, Velocity: 52
Note OFF: Time 332650, Note Name: A#5
Note ON: Time 332760, Note Name: A#5, Velocity: 52
Note OFF: Time 332770, Note Name: A5
Note ON: Time 332880, Note Name: G#5, Velocity: 57
Note OFF: Time 332890, Note Name: A#5
Note ON: Time 333000, Note Name: A#5, Velocity: 52
Note OFF: Time 333010, Note Name: G#5
Note ON: Time 333120, Note Name: F#5, Velocity: 56
Note OFF: Time 333130, Note Name: A#5
Note ON: Time 333240, Note Name: G5, Velocity: 48
Note OFF: Time 333250, Note Name: F#5
Note ON: Time 333360, Note Name: G6, Velocity: 47
Note OFF: Time 333370, Note Name: G5
Note ON: Time 333480, Note Name: D6, Velocity: 47
Note OFF: Time 333490, Note Name: G6
Note ON: Time 333600, Note Name: D#6, Velocity: 51
Note OFF: Time 333610, Note Name: D6
Note ON: Time 333720, Note Name: B5, Velocity: 44
Note OFF: Time 333730, Note Name: D#6
Note ON: Time 333840, Note Name: C6, Velocity: 49
Note OFF: Time 333850, Note Name: B5
Note ON: Time 333960, Note Name: G5, Velocity: 46
Note OFF: Time 333970, Note Name: C6
Note ON: Time 334080, Note Name: A#5, Velocity: 50
Note OFF: Time 334090, Note Name: G5
Note ON: Time 334200, Note Name: G#5, Velocity: 48
Note OFF: Time 334210, Note Name: A#5
Note ON: Time 334320, Note Name: G5, Velocity: 47
Note OFF: Time 334330, Note Name: G#5
Note ON: Time 334440, Note Name: F5, Velocity: 48
Note OFF: Time 334450, Note Name: G5
Note OFF: Time 334560, Note Name: F5
Note ON: Time 334560, Note Name: F#5, Velocity: 52
Note ON: Time 334680, Note Name: G5, Velocity: 45
Note OFF: Time 334690, Note Name: F#5
Note ON: Time 334800, Note Name: G6, Velocity: 47
Note OFF: Time 334810, Note Name: G5
Note ON: Time 334920, Note Name: D6, Velocity: 45
Note OFF: Time 334930, Note Name: G6
Note ON: Time 335040, Note Name: D#6, Velocity: 50
Note OFF: Time 335050, Note Name: D6
Note ON: Time 335160, Note Name: B5, Velocity: 45
Note OFF: Time 335170, Note Name: D#6
Note ON: Time 335280, Note Name: C6, Velocity: 49
Note OFF: Time 335290, Note Name: B5
Note ON: Time 335400, Note Name: G5, Velocity: 46
Note OFF: Time 335410, Note Name: C6
Note ON: Time 335520, Note Name: A#5, Velocity: 48
Note OFF: Time 335530, Note Name: G5
Note ON: Time 335640, Note Name: G#5, Velocity: 48
Note OFF: Time 335650, Note Name: A#5
Note ON: Time 335760, Note Name: G5, Velocity: 47
Note OFF: Time 335770, Note Name: G#5
Note ON: Time 335880, Note Name: F5, Velocity: 48
Note OFF: Time 335890, Note Name: G5
Note OFF: Time 336000, Note Name: F5
Note ON: Time 336000, Note Name: F#5, Velocity: 52
Note ON: Time 336120, Note Name: G5, Velocity: 45
Note OFF: Time 336130, Note Name: F#5
Note ON: Time 336240, Note Name: G6, Velocity: 47
Note OFF: Time 336250, Note Name: G5
Note ON: Time 336360, Note Name: D6, Velocity: 46
Note OFF: Time 336370, Note Name: G6
Note ON: Time 336480, Note Name: D#6, Velocity: 52
Note OFF: Time 336490, Note Name: D6
Note ON: Time 336600, Note Name: B5, Velocity: 47
Note OFF: Time 336610, Note Name: D#6
Note ON: Time 336720, Note Name: C6, Velocity: 52
Note OFF: Time 336730, Note Name: B5
Note ON: Time 336840, Note Name: G5, Velocity: 49
Note OFF: Time 336850, Note Name: C6
Note ON: Time 336960, Note Name: A#5, Velocity: 52
Note OFF: Time 336970, Note Name: G5
Note ON: Time 337080, Note Name: G#5, Velocity: 53
Note OFF: Time 337090, Note Name: A#5
Note ON: Time 337200, Note Name: G5, Velocity: 52
Note OFF: Time 337210, Note Name: G#5
Note ON: Time 337320, Note Name: F5, Velocity: 54
Note OFF: Time 337330, Note Name: G5
Note OFF: Time 337440, Note Name: F5
Note ON: Time 337440, Note Name: D#5, Velocity: 64
Note ON: Time 337560, Note Name: A5, Velocity: 49
Note OFF: Time 337680, Note Name: A5
Note OFF: Time 337680, Note Name: D#5
Note ON: Time 337680, Note Name: F5, Velocity: 48
Note OFF: Time 337800, Note Name: F5
Note ON: Time 337800, Note Name: D5, Velocity: 58
Note ON: Time 337920, Note Name: A5, Velocity: 48
Note OFF: Time 338040, Note Name: A5
Note OFF: Time 338040, Note Name: D5
Note ON: Time 338040, Note Name: F5, Velocity: 48
Note OFF: Time 338160, Note Name: F5
Note ON: Time 338160, Note Name: C5, Velocity: 56
Note ON: Time 338280, Note Name: A5, Velocity: 48
Note OFF: Time 338400, Note Name: A5
Note OFF: Time 338400, Note Name: C5
Note ON: Time 338400, Note Name: F5, Velocity: 48
Note OFF: Time 338520, Note Name: F5
Note ON: Time 338520, Note Name: A#4, Velocity: 54
Note ON: Time 338640, Note Name: A5, Velocity: 47
Note OFF: Time 338760, Note Name: A5
Note OFF: Time 338760, Note Name: A#4
Note ON: Time 338760, Note Name: F5, Velocity: 47
Note OFF: Time 338880, Note Name: F5
Note ON: Time 338880, Note Name: F#5, Velocity: 56
Note ON: Time 339000, Note Name: G5, Velocity: 48
Note OFF: Time 339010, Note Name: F#5
Note ON: Time 339120, Note Name: G6, Velocity: 47
Note OFF: Time 339130, Note Name: G5
Note ON: Time 339240, Note Name: D6, Velocity: 47
Note OFF: Time 339250, Note Name: G6
Note ON: Time 339360, Note Name: D#6, Velocity: 51
Note OFF: Time 339370, Note Name: D6
Note ON: Time 339480, Note Name: B5, Velocity: 44
Note OFF: Time 339490, Note Name: D#6
Note ON: Time 339600, Note Name: C6, Velocity: 51
Note OFF: Time 339610, Note Name: B5
Note ON: Time 339720, Note Name: G5, Velocity: 46
Note OFF: Time 339730, Note Name: C6
Note ON: Time 339840, Note Name: A#5, Velocity: 50
Note OFF: Time 339850, Note Name: G5
Note ON: Time 339960, Note Name: G#5, Velocity: 48
Note OFF: Time 339970, Note Name: A#5
Note ON: Time 340080, Note Name: G5, Velocity: 47
Note OFF: Time 340090, Note Name: G#5
Note ON: Time 340200, Note Name: F5, Velocity: 48
Note OFF: Time 340210, Note Name: G5
Note OFF: Time 340320, Note Name: F5
Note ON: Time 340320, Note Name: F#5, Velocity: 52
Note ON: Time 340440, Note Name: G5, Velocity: 45
Note OFF: Time 340450, Note Name: F#5
Note ON: Time 340560, Note Name: G6, Velocity: 47
Note OFF: Time 340570, Note Name: G5
Note ON: Time 340680, Note Name: D6, Velocity: 45
Note OFF: Time 340690, Note Name: G6
Note ON: Time 340800, Note Name: D#6, Velocity: 50
Note OFF: Time 340810, Note Name: D6
Note ON: Time 340920, Note Name: B5, Velocity: 45
Note OFF: Time 340930, Note Name: D#6
Note ON: Time 341040, Note Name: C6, Velocity: 49
Note OFF: Time 341050, Note Name: B5
Note ON: Time 341160, Note Name: G5, Velocity: 46
Note OFF: Time 341170, Note Name: C6
Note ON: Time 341280, Note Name: A#5, Velocity: 48
Note OFF: Time 341290, Note Name: G5
Note ON: Time 341400, Note Name: G#5, Velocity: 48
Note OFF: Time 341410, Note Name: A#5
Note ON: Time 341520, Note Name: G5, Velocity: 47
Note OFF: Time 341530, Note Name: G#5
Note ON: Time 341640, Note Name: F5, Velocity: 48
Note OFF: Time 341650, Note Name: G5
Note OFF: Time 341760, Note Name: F5
Note ON: Time 341760, Note Name: F#5, Velocity: 52
Note ON: Time 341880, Note Name: G5, Velocity: 45
Note OFF: Time 341890, Note Name: F#5
Note ON: Time 342000, Note Name: G6, Velocity: 47
Note OFF: Time 342010, Note Name: G5
Note ON: Time 342120, Note Name: D6, Velocity: 46
Note OFF: Time 342130, Note Name: G6
Note ON: Time 342240, Note Name: D#6, Velocity: 52
Note OFF: Time 342250, Note Name: D6
Note ON: Time 342360, Note Name: B5, Velocity: 47
Note OFF: Time 342370, Note Name: D#6
Note ON: Time 342480, Note Name: C6, Velocity: 52
Note OFF: Time 342490, Note Name: B5
Note ON: Time 342600, Note Name: G5, Velocity: 49
Note OFF: Time 342610, Note Name: C6
Note ON: Time 342720, Note Name: A#5, Velocity: 52
Note OFF: Time 342730, Note Name: G5
Note ON: Time 342840, Note Name: G#5, Velocity: 53
Note OFF: Time 342850, Note Name: A#5
Note ON: Time 342960, Note Name: G5, Velocity: 52
Note OFF: Time 342970, Note Name: G#5
Note ON: Time 343080, Note Name: F5, Velocity: 54
Note OFF: Time 343090, Note Name: G5
Note OFF: Time 343200, Note Name: F5
Note ON: Time 343200, Note Name: E5, Velocity: 56
Note OFF: Time 343320, Note Name: E5
Note ON: Time 343320, Note Name: D#5, Velocity: 56
Note OFF: Time 343440, Note Name: D#5
Note ON: Time 343440, Note Name: D5, Velocity: 55
Note OFF: Time 343560, Note Name: D5
Note ON: Time 343560, Note Name: C#5, Velocity: 54
Note OFF: Time 343680, Note Name: C#5
Note ON: Time 343680, Note Name: C5, Velocity: 52
Note OFF: Time 343800, Note Name: C5
Note ON: Time 343800, Note Name: B4, Velocity: 51
Note OFF: Time 343920, Note Name: B4
Note ON: Time 343920, Note Name: A#4, Velocity: 50
Note OFF: Time 344040, Note Name: A#4
Note ON: Time 344040, Note Name: A4, Velocity: 49
Note OFF: Time 344160, Note Name: A4
Note ON: Time 344160, Note Name: C5, Velocity: 50
Note OFF: Time 344280, Note Name: C5
Note ON: Time 344280, Note Name: A#4, Velocity: 50
Note OFF: Time 344400, Note Name: A#4
Note ON: Time 344400, Note Name: A4, Velocity: 48
Note OFF: Time 344520, Note Name: A4
Note ON: Time 344520, Note Name: G#4, Velocity: 48
Note OFF: Time 344640, Note Name: G#4
Note ON: Time 344640, Note Name: G4, Velocity: 49
Note ON: Time 344760, Note Name: G#4, Velocity: 49
Note OFF: Time 344770, Note Name: G4
Note ON: Time 344880, Note Name: A4, Velocity: 50
Note OFF: Time 344890, Note Name: G#4
Note ON: Time 345000, Note Name: A#4, Velocity: 52
Note OFF: Time 345010, Note Name: A4
Note ON: Time 345120, Note Name: C5, Velocity: 52
Note OFF: Time 345130, Note Name: A#4
Note ON: Time 345240, Note Name: A#4, Velocity: 53
Note OFF: Time 345250, Note Name: C5
Note ON: Time 345360, Note Name: G#4, Velocity: 52
Note OFF: Time 345370, Note Name: A#4
Note ON: Time 345480, Note Name: A#4, Velocity: 53
Note OFF: Time 345490, Note Name: G#4
Note ON: Time 345600, Note Name: B4, Velocity: 56
Note OFF: Time 345610, Note Name: A#4
Note ON: Time 345720, Note Name: C5, Velocity: 58
Note OFF: Time 345730, Note Name: B4
Note ON: Time 345840, Note Name: C#5, Velocity: 59
Note OFF: Time 345850, Note Name: C5
Note ON: Time 345960, Note Name: C5, Velocity: 57
Note OFF: Time 345970, Note Name: C#5
Note OFF: Time 346080, Note Name: C5
Note ON: Time 346080, Note Name: A4, Velocity: 49
Note ON: Time 346200, Note Name: A#4, Velocity: 49
Note OFF: Time 346210, Note Name: A4
Note ON: Time 346320, Note Name: B4, Velocity: 50
Note OFF: Time 346330, Note Name: A#4
Note ON: Time 346440, Note Name: C5, Velocity: 52
Note OFF: Time 346450, Note Name: B4
Note ON: Time 346560, Note Name: D5, Velocity: 52
Note OFF: Time 346570, Note Name: C5
Note ON: Time 346680, Note Name: C5, Velocity: 53
Note OFF: Time 346690, Note Name: D5
Note ON: Time 346800, Note Name: A#4, Velocity: 52
Note OFF: Time 346810, Note Name: C5
Note ON: Time 346920, Note Name: C5, Velocity: 53
Note OFF: Time 346930, Note Name: A#4
Note ON: Time 347040, Note Name: C#5, Velocity: 56
Note OFF: Time 347050, Note Name: C5
Note ON: Time 347160, Note Name: D5, Velocity: 58
Note OFF: Time 347170, Note Name: C#5
Note ON: Time 347280, Note Name: D#5, Velocity: 59
Note OFF: Time 347290, Note Name: D5
Note ON: Time 347400, Note Name: D5, Velocity: 57
Note OFF: Time 347410, Note Name: D#5
Note ON: Time 347520, Note Name: B4, Velocity: 49
Note OFF: Time 347530, Note Name: D5
Note ON: Time 347640, Note Name: C5, Velocity: 49
Note OFF: Time 347650, Note Name: B4
Note ON: Time 347760, Note Name: C#5, Velocity: 50
Note OFF: Time 347770, Note Name: C5
Note ON: Time 347880, Note Name: D5, Velocity: 52
Note OFF: Time 347890, Note Name: C#5
Note ON: Time 348000, Note Name: D#5, Velocity: 52
Note OFF: Time 348010, Note Name: D5
Note ON: Time 348120, Note Name: D5, Velocity: 53
Note OFF: Time 348130, Note Name: D#5
Note ON: Time 348240, Note Name: C5, Velocity: 52
Note OFF: Time 348250, Note Name: D5
Note ON: Time 348360, Note Name: C#5, Velocity: 53
Note OFF: Time 348370, Note Name: C5
Note ON: Time 348480, Note Name: D5, Velocity: 56
Note OFF: Time 348490, Note Name: C#5
Note ON: Time 348600, Note Name: D#5, Velocity: 58
Note OFF: Time 348610, Note Name: D5
Note ON: Time 348720, Note Name: E5, Velocity: 59
Note OFF: Time 348730, Note Name: D#5
Note ON: Time 348840, Note Name: F5, Velocity: 57
Note OFF: Time 348850, Note Name: E5
Note ON: Time 348960, Note Name: G5, Velocity: 65
Note OFF: Time 348970, Note Name: F5
Note ON: Time 349080, Note Name: F5, Velocity: 64
Note OFF: Time 349090, Note Name: G5
Note ON: Time 349200, Note Name: E5, Velocity: 62
Note OFF: Time 349210, Note Name: F5
Note ON: Time 349320, Note Name: D#5, Velocity: 61
Note OFF: Time 349330, Note Name: E5
Note ON: Time 349440, Note Name: D5, Velocity: 58
Note OFF: Time 349450, Note Name: D#5
Note ON: Time 349560, Note Name: C#5, Velocity: 56
Note OFF: Time 349570, Note Name: D5
Note ON: Time 349680, Note Name: C5, Velocity: 55
Note OFF: Time 349690, Note Name: C#5
Note ON: Time 349800, Note Name: B4, Velocity: 53
Note OFF: Time 349810, Note Name: C5
Note ON: Time 349920, Note Name: A#4, Velocity: 54
Note OFF: Time 349930, Note Name: B4
Note ON: Time 350040, Note Name: A4, Velocity: 54
Note OFF: Time 350050, Note Name: A#4
Note ON: Time 350160, Note Name: A#4, Velocity: 51
Note OFF: Time 350170, Note Name: A4
Note ON: Time 350280, Note Name: G#4, Velocity: 50
Note OFF: Time 350290, Note Name: A#4
Note ON: Time 350400, Note Name: G4, Velocity: 53
Note OFF: Time 350410, Note Name: G#4
Note OFF: Time 350640, Note Name: G4
Note ON: Time 350640, Note Name: A#3, Velocity: 53
Note OFF: Time 350760, Note Name: A#3
Note ON: Time 350760, Note Name: A#4, Velocity: 49
Note OFF: Time 350880, Note Name: A#4
Note ON: Time 350880, Note Name: D4, Velocity: 54
Note OFF: Time 351000, Note Name: D4
Note ON: Time 351000, Note Name: B4, Velocity: 50
Note OFF: Time 351120, Note Name: B4
Note ON: Time 351120, Note Name: A#3, Velocity: 55
Note OFF: Time 351240, Note Name: A#3
Note ON: Time 351240, Note Name: A#4, Velocity: 51
Note OFF: Time 351360, Note Name: A#4
Note ON: Time 351360, Note Name: D#4, Velocity: 60
Note ON: Time 351480, Note Name: G4, Velocity: 54
Note OFF: Time 351600, Note Name: G4
Note OFF: Time 351600, Note Name: D#4
Note ON: Time 351600, Note Name: E4, Velocity: 63
Note ON: Time 351720, Note Name: C#5, Velocity: 53
Note OFF: Time 351840, Note Name: C#5
Note OFF: Time 351840, Note Name: E4
Note ON: Time 351840, Note Name: C4, Velocity: 59
Note OFF: Time 351960, Note Name: C4
Note ON: Time 351960, Note Name: C5, Velocity: 52
Note OFF: Time 352080, Note Name: C5
Note ON: Time 352080, Note Name: F4, Velocity: 66
Note ON: Time 352200, Note Name: A4, Velocity: 52
Note OFF: Time 352320, Note Name: A4
Note OFF: Time 352320, Note Name: F4
Note ON: Time 352320, Note Name: E4, Velocity: 61
Note OFF: Time 352440, Note Name: E4
Note ON: Time 352440, Note Name: C#5, Velocity: 55
Note OFF: Time 352560, Note Name: C#5
Note ON: Time 352560, Note Name: C4, Velocity: 63
Note OFF: Time 352680, Note Name: C4
Note ON: Time 352680, Note Name: C5, Velocity: 56
Note OFF: Time 352800, Note Name: C5
Note ON: Time 352800, Note Name: F4, Velocity: 70
Note ON: Time 352920, Note Name: A4, Velocity: 61
Note OFF: Time 353040, Note Name: A4
Note OFF: Time 353040, Note Name: F4
Note ON: Time 353040, Note Name: F#4, Velocity: 68
Note ON: Time 353160, Note Name: D#5, Velocity: 61
Note OFF: Time 353280, Note Name: D#5
Note OFF: Time 353280, Note Name: F#4
Note ON: Time 353280, Note Name: D4, Velocity: 70
Note OFF: Time 353400, Note Name: D4
Note ON: Time 353400, Note Name: D5, Velocity: 61
Note OFF: Time 353520, Note Name: D5
Note ON: Time 353520, Note Name: G4, Velocity: 75
Note ON: Time 353640, Note Name: B4, Velocity: 67
Note OFF: Time 353760, Note Name: B4
Note OFF: Time 353760, Note Name: G4
Note ON: Time 353760, Note Name: F#4, Velocity: 76
Note ON: Time 353880, Note Name: D#5, Velocity: 68
Note OFF: Time 354000, Note Name: D#5
Note OFF: Time 354000, Note Name: F#4
Note ON: Time 354000, Note Name: D4, Velocity: 75
Note OFF: Time 354120, Note Name: D4
Note ON: Time 354120, Note Name: D5, Velocity: 68
Note OFF: Time 354240, Note Name: D5
Note ON: Time 354240, Note Name: G4, Velocity: 80
Note ON: Time 354360, Note Name: A#4, Velocity: 69
Note OFF: Time 354480, Note Name: A#4
Note OFF: Time 354480, Note Name: G4
Note ON: Time 354480, Note Name: G#4, Velocity: 80
Note ON: Time 354600, Note Name: F5, Velocity: 71
Note OFF: Time 354720, Note Name: F5
Note OFF: Time 354720, Note Name: G#4
Note ON: Time 354720, Note Name: E4, Velocity: 80
Note OFF: Time 354840, Note Name: E4
Note ON: Time 354840, Note Name: E5, Velocity: 75
Note OFF: Time 354960, Note Name: E5
Note ON: Time 354960, Note Name: A4, Velocity: 86
Note ON: Time 355080, Note Name: C#5, Velocity: 73
Note OFF: Time 355200, Note Name: C#5
Note OFF: Time 355200, Note Name: A4
Note ON: Time 355200, Note Name: A#4, Velocity: 89
Note ON: Time 355320, Note Name: G5, Velocity: 76
Note OFF: Time 355440, Note Name: G5
Note OFF: Time 355440, Note Name: A#4
Note ON: Time 355440, Note Name: F#4, Velocity: 89
Note OFF: Time 355560, Note Name: F#4
Note ON: Time 355560, Note Name: F#5, Velocity: 79
Note OFF: Time 355680, Note Name: F#5
Note ON: Time 355680, Note Name: B4, Velocity: 91
Note ON: Time 355800, Note Name: D#5, Velocity: 82
Note OFF: Time 355920, Note Name: D#5
Note OFF: Time 355920, Note Name: B4
Note ON: Time 355920, Note Name: C5, Velocity: 93
Note ON: Time 356040, Note Name: A5, Velocity: 85
Note OFF: Time 356160, Note Name: C5
Note ON: Time 356160, Note Name: C#5, Velocity: 82
Note ON: Time 356160, Note Name: C#6, Velocity: 98
Note ON: Time 356160, Note Name: F#5, Velocity: 82
Note OFF: Time 356400, Note Name: F#5
Note OFF: Time 356400, Note Name: A5
Note OFF: Time 356400, Note Name: C#5
Note OFF: Time 356400, Note Name: C#6
Note ON: Time 356400, Note Name: C5, Velocity: 64
Note OFF: Time 356520, Note Name: C5
Note ON: Time 356520, Note Name: C#5, Velocity: 64
Note OFF: Time 356640, Note Name: C#5
Note ON: Time 356640, Note Name: D#5, Velocity: 65
Note OFF: Time 356760, Note Name: D#5
Note ON: Time 356760, Note Name: F5, Velocity: 66
Note OFF: Time 356880, Note Name: F5
Note ON: Time 356880, Note Name: F#5, Velocity: 67
Note OFF: Time 357000, Note Name: F#5
Note ON: Time 357000, Note Name: G#5, Velocity: 67
Note OFF: Time 357120, Note Name: G#5
Note ON: Time 357120, Note Name: A5, Velocity: 68
Note OFF: Time 357240, Note Name: A5
Note ON: Time 357240, Note Name: B5, Velocity: 69
Note OFF: Time 357360, Note Name: B5
Note ON: Time 357360, Note Name: C#6, Velocity: 70
Note OFF: Time 357480, Note Name: C#6
Note ON: Time 357480, Note Name: D#6, Velocity: 71
Note OFF: Time 357600, Note Name: D#6
Note ON: Time 357600, Note Name: F6, Velocity: 71
Note OFF: Time 357720, Note Name: F6
Note ON: Time 357720, Note Name: F#6, Velocity: 72
Note OFF: Time 357840, Note Name: F#6
Note ON: Time 357840, Note Name: G#6, Velocity: 73
Note OFF: Time 357960, Note Name: G#6
Note ON: Time 357960, Note Name: A6, Velocity: 74
Note OFF: Time 358080, Note Name: A6
Note ON: Time 358080, Note Name: F#6, Velocity: 75
Note OFF: Time 358200, Note Name: F#6
Note ON: Time 358200, Note Name: C#6, Velocity: 75
Note OFF: Time 358320, Note Name: C#6
Note ON: Time 358320, Note Name: A5, Velocity: 76
Note OFF: Time 358440, Note Name: A5
Note ON: Time 358440, Note Name: F#5, Velocity: 76
Note OFF: Time 358560, Note Name: F#5
Note ON: Time 358560, Note Name: C#5, Velocity: 74
Note OFF: Time 358680, Note Name: C#5
Note ON: Time 358680, Note Name: A4, Velocity: 72
Note OFF: Time 358800, Note Name: A4
Note ON: Time 358800, Note Name: F#4, Velocity: 71
Note OFF: Time 358920, Note Name: F#4
Note ON: Time 358920, Note Name: C#4, Velocity: 69
Note OFF: Time 359040, Note Name: C#4
Note ON: Time 359040, Note Name: A3, Velocity: 66
Note OFF: Time 359160, Note Name: A3
Note ON: Time 359160, Note Name: F#4, Velocity: 67
Note OFF: Time 359280, Note Name: F#4
Note ON: Time 359280, Note Name: D#4, Velocity: 68
Note OFF: Time 359400, Note Name: D#4
Note ON: Time 359400, Note Name: A4, Velocity: 69
Note OFF: Time 359510, Note Name: A4
Note ON: Time 359520, Note Name: A4, Velocity: 70
Note OFF: Time 359640, Note Name: A4
Note ON: Time 359640, Note Name: F#5, Velocity: 72
Note OFF: Time 359760, Note Name: F#5
Note ON: Time 359760, Note Name: D#5, Velocity: 73
Note OFF: Time 359880, Note Name: D#5
Note ON: Time 359880, Note Name: A5, Velocity: 74
Note OFF: Time 359990, Note Name: A5
Note ON: Time 360000, Note Name: A5, Velocity: 75
Note OFF: Time 360120, Note Name: A5
Note ON: Time 360120, Note Name: F#6, Velocity: 76
Note OFF: Time 360240, Note Name: F#6
Note ON: Time 360240, Note Name: D#6, Velocity: 77
Note OFF: Time 360360, Note Name: D#6
Note ON: Time 360360, Note Name: A6, Velocity: 79
Note OFF: Time 360480, Note Name: A6
Note ON: Time 360480, Note Name: F#6, Velocity: 80
Note OFF: Time 360600, Note Name: F#6
Note ON: Time 360600, Note Name: A6, Velocity: 78
Note OFF: Time 360720, Note Name: A6
Note ON: Time 360720, Note Name: D#6, Velocity: 77
Note OFF: Time 360840, Note Name: D#6
Note ON: Time 360840, Note Name: A5, Velocity: 76
Note OFF: Time 360960, Note Name: A5
Note ON: Time 360960, Note Name: F#5, Velocity: 75
Note OFF: Time 361080, Note Name: F#5
Note ON: Time 361080, Note Name: A5, Velocity: 75
Note OFF: Time 361200, Note Name: A5
Note ON: Time 361200, Note Name: D#5, Velocity: 74
Note OFF: Time 361320, Note Name: D#5
Note ON: Time 361320, Note Name: A4, Velocity: 73
Note OFF: Time 361440, Note Name: A4
Note ON: Time 361440, Note Name: F#4, Velocity: 72
Note OFF: Time 361560, Note Name: F#4
Note ON: Time 361560, Note Name: A4, Velocity: 72
Note OFF: Time 361680, Note Name: A4
Note ON: Time 361680, Note Name: D#4, Velocity: 71
Note OFF: Time 361800, Note Name: D#4
Note ON: Time 361800, Note Name: A3, Velocity: 70
Note OFF: Time 361920, Note Name: A3
Note ON: Time 361920, Note Name: A#4, Velocity: 71
Note ON: Time 361920, Note Name: A#3, Velocity: 71
Note ON: Time 361920, Note Name: G4, Velocity: 71
Note ON: Time 361920, Note Name: D#4, Velocity: 71
Note OFF: Time 362160, Note Name: D#4
Note OFF: Time 362160, Note Name: A#4
Note OFF: Time 362160, Note Name: A#3
Note OFF: Time 362160, Note Name: G4
Note ON: Time 362160, Note Name: A3, Velocity: 46
Note ON: Time 362280, Note Name: A#3, Velocity: 46
Note OFF: Time 362290, Note Name: A3
Note ON: Time 362400, Note Name: C4, Velocity: 47
Note OFF: Time 362410, Note Name: A#3
Note ON: Time 362520, Note Name: D4, Velocity: 47
Note OFF: Time 362530, Note Name: C4
Note ON: Time 362640, Note Name: D#4, Velocity: 48
Note OFF: Time 362650, Note Name: D4
Note ON: Time 362760, Note Name: E4, Velocity: 49
Note OFF: Time 362770, Note Name: D#4
Note ON: Time 362880, Note Name: G4, Velocity: 49
Note OFF: Time 362890, Note Name: E4
Note ON: Time 363000, Note Name: F4, Velocity: 50
Note OFF: Time 363010, Note Name: G4
Note ON: Time 363120, Note Name: G4, Velocity: 50
Note OFF: Time 363130, Note Name: F4
Note ON: Time 363240, Note Name: F4, Velocity: 51
Note OFF: Time 363250, Note Name: G4
Note ON: Time 363360, Note Name: C5, Velocity: 52
Note OFF: Time 363370, Note Name: F4
Note ON: Time 363480, Note Name: A#4, Velocity: 52
Note OFF: Time 363490, Note Name: C5
Note ON: Time 363600, Note Name: A4, Velocity: 53
Note OFF: Time 363610, Note Name: A#4
Note ON: Time 363720, Note Name: A#4, Velocity: 53
Note OFF: Time 363730, Note Name: A4
Note ON: Time 363840, Note Name: C5, Velocity: 54
Note OFF: Time 363850, Note Name: A#4
Note ON: Time 363960, Note Name: D5, Velocity: 54
Note OFF: Time 363970, Note Name: C5
Note ON: Time 364080, Note Name: D#5, Velocity: 55
Note OFF: Time 364090, Note Name: D5
Note ON: Time 364200, Note Name: E5, Velocity: 56
Note OFF: Time 364210, Note Name: D#5
Note ON: Time 364320, Note Name: G5, Velocity: 56
Note OFF: Time 364330, Note Name: E5
Note ON: Time 364440, Note Name: F5, Velocity: 57
Note OFF: Time 364450, Note Name: G5
Note ON: Time 364560, Note Name: G5, Velocity: 57
Note OFF: Time 364570, Note Name: F5
Note ON: Time 364680, Note Name: F5, Velocity: 58
Note OFF: Time 364690, Note Name: G5
Note ON: Time 364800, Note Name: C6, Velocity: 59
Note OFF: Time 364810, Note Name: F5
Note ON: Time 364920, Note Name: A#5, Velocity: 59
Note OFF: Time 364930, Note Name: C6
Note ON: Time 365040, Note Name: A5, Velocity: 60
Note OFF: Time 365050, Note Name: A#5
Note ON: Time 365160, Note Name: A#5, Velocity: 60
Note OFF: Time 365170, Note Name: A5
Note ON: Time 365280, Note Name: C6, Velocity: 61
Note OFF: Time 365290, Note Name: A#5
Note ON: Time 365400, Note Name: D6, Velocity: 61
Note OFF: Time 365410, Note Name: C6
Note ON: Time 365520, Note Name: D#6, Velocity: 62
Note OFF: Time 365530, Note Name: D6
Note ON: Time 365640, Note Name: E6, Velocity: 63
Note OFF: Time 365650, Note Name: D#6
Note ON: Time 365760, Note Name: G6, Velocity: 63
Note OFF: Time 365770, Note Name: E6
Note ON: Time 365880, Note Name: F6, Velocity: 64
Note OFF: Time 365890, Note Name: G6
Note ON: Time 366000, Note Name: G6, Velocity: 64
Note OFF: Time 366010, Note Name: F6
Note ON: Time 366120, Note Name: F6, Velocity: 65
Note OFF: Time 366130, Note Name: G6
Note ON: Time 366240, Note Name: A#6, Velocity: 66
Note OFF: Time 366250, Note Name: F6
Note OFF: Time 366480, Note Name: A#6
Note ON: Time 366480, Note Name: A5, Velocity: 64
Note ON: Time 366600, Note Name: A#5, Velocity: 65
Note OFF: Time 366610, Note Name: A5
Note ON: Time 366720, Note Name: C6, Velocity: 65
Note OFF: Time 366730, Note Name: A#5
Note ON: Time 366840, Note Name: D6, Velocity: 66
Note OFF: Time 366850, Note Name: C6
Note ON: Time 366960, Note Name: D#6, Velocity: 67
Note OFF: Time 366970, Note Name: D6
Note ON: Time 367080, Note Name: E6, Velocity: 68
Note OFF: Time 367090, Note Name: D#6
Note ON: Time 367200, Note Name: G6, Velocity: 71
Note OFF: Time 367210, Note Name: E6
Note ON: Time 367320, Note Name: F6, Velocity: 68
Note OFF: Time 367330, Note Name: G6
Note ON: Time 367440, Note Name: G6, Velocity: 71
Note OFF: Time 367450, Note Name: F6
Note ON: Time 367560, Note Name: F6, Velocity: 68
Note OFF: Time 367570, Note Name: G6
Note ON: Time 367680, Note Name: A#6, Velocity: 68
Note OFF: Time 367690, Note Name: F6
Note OFF: Time 367800, Note Name: A#6
Note ON: Time 368340, Note Name: F6, Velocity: 77
Note OFF: Time 368400, Note Name: F6
Note ON: Time 368400, Note Name: F7, Velocity: 89
Note OFF: Time 368520, Note Name: F7
Note ON: Time 368520, Note Name: E7, Velocity: 84
Note OFF: Time 368640, Note Name: E7
Note ON: Time 368640, Note Name: D#7, Velocity: 83
Note OFF: Time 368760, Note Name: D#7
Note ON: Time 368760, Note Name: D7, Velocity: 82
Note OFF: Time 368880, Note Name: D7
Note ON: Time 368880, Note Name: C7, Velocity: 81
Note OFF: Time 369000, Note Name: C7
Note ON: Time 369000, Note Name: A#6, Velocity: 79
Note OFF: Time 369120, Note Name: A#6
Note ON: Time 369120, Note Name: A6, Velocity: 78
Note OFF: Time 369240, Note Name: A6
Note ON: Time 369240, Note Name: G6, Velocity: 77
Note OFF: Time 369360, Note Name: G6
Note ON: Time 369360, Note Name: F6, Velocity: 76
Note OFF: Time 369480, Note Name: F6
Note ON: Time 369480, Note Name: E6, Velocity: 75
Note OFF: Time 369600, Note Name: E6
Note ON: Time 369600, Note Name: D#6, Velocity: 74
Note OFF: Time 369720, Note Name: D#6
Note ON: Time 369720, Note Name: D6, Velocity: 73
Note OFF: Time 369840, Note Name: D6
Note ON: Time 369840, Note Name: C6, Velocity: 72
Note OFF: Time 369960, Note Name: C6
Note ON: Time 369960, Note Name: A#5, Velocity: 71
Note OFF: Time 370080, Note Name: A#5
Note ON: Time 370080, Note Name: A5, Velocity: 70
Note OFF: Time 370200, Note Name: A5
Note ON: Time 370200, Note Name: G5, Velocity: 69
Note OFF: Time 370320, Note Name: G5
Note ON: Time 370320, Note Name: F5, Velocity: 68
Note OFF: Time 370440, Note Name: F5
Note ON: Time 370440, Note Name: E5, Velocity: 67
Note OFF: Time 370560, Note Name: E5
Note ON: Time 370560, Note Name: D#5, Velocity: 66
Note OFF: Time 370680, Note Name: D#5
Note ON: Time 370680, Note Name: C#5, Velocity: 65
Note OFF: Time 370800, Note Name: C#5
Note ON: Time 370800, Note Name: B4, Velocity: 64
Note OFF: Time 370920, Note Name: B4
Note ON: Time 370920, Note Name: A#4, Velocity: 63
Note OFF: Time 371040, Note Name: A#4
Note ON: Time 371040, Note Name: G#4, Velocity: 62
Note OFF: Time 371160, Note Name: G#4
Note ON: Time 371160, Note Name: F#4, Velocity: 61
Note OFF: Time 371280, Note Name: F#4
Note ON: Time 371280, Note Name: F4, Velocity: 60
Note OFF: Time 371400, Note Name: F4
Note ON: Time 371400, Note Name: D#4, Velocity: 59
Note OFF: Time 371520, Note Name: D#4
Note ON: Time 371520, Note Name: C#4, Velocity: 58
Note OFF: Time 371640, Note Name: C#4
Note ON: Time 371640, Note Name: B3, Velocity: 57
Note OFF: Time 371760, Note Name: B3
Note ON: Time 371760, Note Name: A#3, Velocity: 56
Note OFF: Time 371880, Note Name: A#3
Note ON: Time 371880, Note Name: G#3, Velocity: 55
Note OFF: Time 372000, Note Name: G#3
Note ON: Time 372000, Note Name: F#3, Velocity: 57
Note OFF: Time 372120, Note Name: F#3
Note ON: Time 372120, Note Name: F3, Velocity: 59
Note OFF: Time 372240, Note Name: F3
Note ON: Time 372240, Note Name: D#3, Velocity: 62
Note OFF: Time 372360, Note Name: D#3
Note ON: Time 372360, Note Name: C#3, Velocity: 64
Note OFF: Time 372480, Note Name: C#3
Note ON: Time 372480, Note Name: B2, Velocity: 66
Note OFF: Time 372600, Note Name: B2
Note ON: Time 372600, Note Name: A#2, Velocity: 68
Note OFF: Time 372720, Note Name: A#2
Note ON: Time 372720, Note Name: G#2, Velocity: 70
Note OFF: Time 372840, Note Name: G#2
Note ON: Time 372840, Note Name: F#2, Velocity: 72
Note OFF: Time 372960, Note Name: F#2
Note ON: Time 372960, Note Name: F2, Velocity: 75
Note OFF: Time 373080, Note Name: F2
Note ON: Time 373080, Note Name: D#2, Velocity: 77
Note OFF: Time 373200, Note Name: D#2
Note ON: Time 373200, Note Name: C#2, Velocity: 79
Note OFF: Time 373320, Note Name: C#2
Note ON: Time 373320, Note Name: B1, Velocity: 81
Note OFF: Time 373440, Note Name: B1
Note ON: Time 374880, Note Name: G4, Velocity: 78
Note ON: Time 374880, Note Name: D4, Velocity: 66
Note ON: Time 374880, Note Name: A#3, Velocity: 66
Note OFF: Time 375840, Note Name: A#3
Note OFF: Time 375840, Note Name: D4
Note OFF: Time 375840, Note Name: G4
Note ON: Time 375840, Note Name: D4, Velocity: 61
Note ON: Time 375840, Note Name: G#3, Velocity: 61
Note ON: Time 375840, Note Name: G4, Velocity: 73
Note OFF: Time 376320, Note Name: G4
Note OFF: Time 376320, Note Name: G#3
Note OFF: Time 376320, Note Name: D4
Note ON: Time 376320, Note Name: G3, Velocity: 65
Note ON: Time 376320, Note Name: D#4, Velocity: 76
Note OFF: Time 376800, Note Name: D#4
Note OFF: Time 376800, Note Name: G3
Note ON: Time 377280, Note Name: D#4, Velocity: 66
Note ON: Time 377280, Note Name: G4, Velocity: 66
Note ON: Time 377280, Note Name: D#5, Velocity: 78
Note OFF: Time 378720, Note Name: D#5
Note OFF: Time 378720, Note Name: G4
Note OFF: Time 378720, Note Name: D#4
Note ON: Time 378720, Note Name: D5, Velocity: 73
Note ON: Time 378720, Note Name: A#4, Velocity: 61
Note ON: Time 378720, Note Name: D#4, Velocity: 61
Note OFF: Time 379200, Note Name: D#4
Note OFF: Time 379200, Note Name: A#4
Note OFF: Time 379200, Note Name: D5
Note ON: Time 379200, Note Name: D#4, Velocity: 65
Note ON: Time 379200, Note Name: A#4, Velocity: 65
Note ON: Time 379200, Note Name: C5, Velocity: 77
Note OFF: Time 380640, Note Name: C5
Note OFF: Time 380640, Note Name: A#4
Note OFF: Time 380640, Note Name: D#4
Note ON: Time 380640, Note Name: F4, Velocity: 67
Note ON: Time 380640, Note Name: D5, Velocity: 79
Note ON: Time 380640, Note Name: A4, Velocity: 67
Note OFF: Time 381600, Note Name: A4
Note OFF: Time 381600, Note Name: D5
Note OFF: Time 381600, Note Name: F4
Note ON: Time 381600, Note Name: D#4, Velocity: 63
Note ON: Time 381600, Note Name: A4, Velocity: 63
Note ON: Time 381600, Note Name: D5, Velocity: 74
Note OFF: Time 382080, Note Name: D5
Note OFF: Time 382080, Note Name: A4
Note OFF: Time 382080, Note Name: D#4
Note ON: Time 382080, Note Name: D4, Velocity: 59
Note ON: Time 382080, Note Name: A#4, Velocity: 71
Note OFF: Time 382560, Note Name: A#4
Note OFF: Time 382560, Note Name: D4
Note ON: Time 383520, Note Name: A#4, Velocity: 64
Note ON: Time 383520, Note Name: A#5, Velocity: 75
Note OFF: Time 384480, Note Name: A#5
Note OFF: Time 384480, Note Name: A#4
Note ON: Time 384480, Note Name: B4, Velocity: 65
Note ON: Time 384480, Note Name: B5, Velocity: 77
Note OFF: Time 384960, Note Name: B5
Note OFF: Time 384960, Note Name: B4
Note ON: Time 384960, Note Name: C5, Velocity: 65
Note ON: Time 384960, Note Name: C6, Velocity: 77
Note OFF: Time 385140, Note Name: C6
Note OFF: Time 385140, Note Name: C5
Note ON: Time 385248, Note Name: C#6, Velocity: 72
Note ON: Time 385248, Note Name: A#5, Velocity: 60
Note OFF: Time 385428, Note Name: A#5
Note OFF: Time 385428, Note Name: C#6
Note ON: Time 385536, Note Name: E5, Velocity: 61
Note ON: Time 385536, Note Name: C6, Velocity: 73
Note OFF: Time 385716, Note Name: C6
Note OFF: Time 385716, Note Name: E5
Note ON: Time 385824, Note Name: A#5, Velocity: 63
Note ON: Time 385824, Note Name: B5, Velocity: 74
Note OFF: Time 386004, Note Name: B5
Note OFF: Time 386004, Note Name: A#5
Note ON: Time 386112, Note Name: E5, Velocity: 67
Note ON: Time 386112, Note Name: C6, Velocity: 79
Note OFF: Time 386280, Note Name: C6
Note OFF: Time 386280, Note Name: E5
Note ON: Time 386280, Note Name: G#5, Velocity: 57
Note ON: Time 386280, Note Name: C6, Velocity: 69
Note OFF: Time 386400, Note Name: C6
Note OFF: Time 386400, Note Name: G#5
Note ON: Time 386400, Note Name: G#5, Velocity: 73
Note ON: Time 386400, Note Name: G#6, Velocity: 87
Note OFF: Time 386640, Note Name: G#6
Note OFF: Time 386640, Note Name: G#5
Note ON: Time 387600, Note Name: C6, Velocity: 81
Note ON: Time 387600, Note Name: D#5, Velocity: 69
Note OFF: Time 387840, Note Name: D#5
Note OFF: Time 387840, Note Name: C6
Note ON: Time 387840, Note Name: D5, Velocity: 65
Note ON: Time 387840, Note Name: A#5, Velocity: 77
Note OFF: Time 388020, Note Name: A#5
Note OFF: Time 388020, Note Name: D5
Note ON: Time 388128, Note Name: G#5, Velocity: 60
Note ON: Time 388128, Note Name: C6, Velocity: 72
Note OFF: Time 388308, Note Name: C6
Note OFF: Time 388308, Note Name: G#5
Note ON: Time 388416, Note Name: A#5, Velocity: 73
Note ON: Time 388416, Note Name: D5, Velocity: 61
Note OFF: Time 388596, Note Name: D5
Note OFF: Time 388596, Note Name: A#5
Note ON: Time 388704, Note Name: A5, Velocity: 74
Note ON: Time 388704, Note Name: G#5, Velocity: 63
Note OFF: Time 388884, Note Name: G#5
Note OFF: Time 388884, Note Name: A5
Note ON: Time 388992, Note Name: A#5, Velocity: 79
Note ON: Time 388992, Note Name: D5, Velocity: 67
Note OFF: Time 389160, Note Name: D5
Note OFF: Time 389160, Note Name: A#5
Note ON: Time 389160, Note Name: A#5, Velocity: 69
Note ON: Time 389160, Note Name: G5, Velocity: 57
Note OFF: Time 389280, Note Name: G5
Note OFF: Time 389280, Note Name: A#5
Note ON: Time 389280, Note Name: G5, Velocity: 73
Note ON: Time 389280, Note Name: G6, Velocity: 87
Note OFF: Time 389520, Note Name: G6
Note OFF: Time 389520, Note Name: G5
Note ON: Time 390480, Note Name: D5, Velocity: 69
Note ON: Time 390480, Note Name: A#5, Velocity: 81
Note OFF: Time 390720, Note Name: A#5
Note OFF: Time 390720, Note Name: D5
Note ON: Time 390720, Note Name: C5, Velocity: 65
Note ON: Time 390720, Note Name: G#5, Velocity: 77
Note OFF: Time 390900, Note Name: G#5
Note OFF: Time 390900, Note Name: C5
Note ON: Time 391008, Note Name: D#5, Velocity: 60
Note ON: Time 391008, Note Name: A#5, Velocity: 72
Note OFF: Time 391188, Note Name: A#5
Note OFF: Time 391188, Note Name: D#5
Note ON: Time 391296, Note Name: C5, Velocity: 61
Note ON: Time 391296, Note Name: G#5, Velocity: 73
Note OFF: Time 391476, Note Name: G#5
Note OFF: Time 391476, Note Name: C5
Note ON: Time 391584, Note Name: D#5, Velocity: 63
Note ON: Time 391584, Note Name: G5, Velocity: 74
Note OFF: Time 391764, Note Name: G5
Note OFF: Time 391764, Note Name: D#5
Note ON: Time 391872, Note Name: G#5, Velocity: 79
Note ON: Time 391872, Note Name: C5, Velocity: 67
Note OFF: Time 392040, Note Name: C5
Note OFF: Time 392040, Note Name: G#5
Note ON: Time 392040, Note Name: F5, Velocity: 57
Note ON: Time 392040, Note Name: G#5, Velocity: 69
Note OFF: Time 392160, Note Name: G#5
Note OFF: Time 392160, Note Name: F5
Note ON: Time 392160, Note Name: F6, Velocity: 87
Note ON: Time 392160, Note Name: F5, Velocity: 73
Note OFF: Time 392400, Note Name: F5
Note OFF: Time 392400, Note Name: F6
Note ON: Time 393120, Note Name: G#5, Velocity: 78
Note ON: Time 393120, Note Name: F5, Velocity: 78
Note OFF: Time 393600, Note Name: F5
Note OFF: Time 393600, Note Name: G#5
Note ON: Time 393600, Note Name: G5, Velocity: 78
Note ON: Time 393600, Note Name: F5, Velocity: 66
Note OFF: Time 393960, Note Name: F5
Note OFF: Time 393960, Note Name: G5
Note ON: Time 393960, Note Name: A#5, Velocity: 71
Note OFF: Time 394080, Note Name: A#5
Note ON: Time 394080, Note Name: F5, Velocity: 69
Note ON: Time 394080, Note Name: G#5, Velocity: 81
Note OFF: Time 394800, Note Name: G#5
Note OFF: Time 394800, Note Name: F5
Note ON: Time 394800, Note Name: G5, Velocity: 75
Note ON: Time 394800, Note Name: F5, Velocity: 64
Note OFF: Time 395040, Note Name: F5
Note OFF: Time 395040, Note Name: G5
Note ON: Time 395040, Note Name: D#5, Velocity: 63
Note ON: Time 395040, Note Name: G5, Velocity: 74
Note OFF: Time 395500, Note Name: G5
Note OFF: Time 395500, Note Name: D#5
Note ON: Time 395520, Note Name: D#5, Velocity: 67
Note ON: Time 395520, Note Name: G#5, Velocity: 79
Note OFF: Time 395980, Note Name: G#5
Note OFF: Time 395980, Note Name: D#5
Note ON: Time 396000, Note Name: A5, Velocity: 84
Note ON: Time 396000, Note Name: D#5, Velocity: 71
Note OFF: Time 396460, Note Name: D#5
Note OFF: Time 396460, Note Name: A5
Note ON: Time 396480, Note Name: G#4, Velocity: 71
Note ON: Time 396480, Note Name: A#4, Velocity: 71
Note ON: Time 396480, Note Name: F5, Velocity: 71
Note ON: Time 396480, Note Name: A#5, Velocity: 84
Note OFF: Time 397920, Note Name: A#5
Note OFF: Time 397920, Note Name: G#4
Note OFF: Time 397920, Note Name: A#4
Note OFF: Time 397920, Note Name: F5
Note ON: Time 397920, Note Name: G#4, Velocity: 66
Note ON: Time 397920, Note Name: A#4, Velocity: 66
Note ON: Time 397920, Note Name: D5, Velocity: 66
Note ON: Time 397920, Note Name: G5, Velocity: 66
Note ON: Time 397920, Note Name: A#5, Velocity: 78
Note OFF: Time 398880, Note Name: A#5
Note OFF: Time 398880, Note Name: D5
Note OFF: Time 398880, Note Name: G#4
Note OFF: Time 398880, Note Name: A#4
Note OFF: Time 398880, Note Name: G5
Note ON: Time 398880, Note Name: G#4, Velocity: 61
Note ON: Time 398880, Note Name: G5, Velocity: 61
Note ON: Time 398880, Note Name: A#5, Velocity: 73
Note ON: Time 398880, Note Name: A#4, Velocity: 61
Note ON: Time 398880, Note Name: D5, Velocity: 61
Note OFF: Time 399360, Note Name: D5
Note OFF: Time 399360, Note Name: A#5
Note OFF: Time 399360, Note Name: G#4
Note OFF: Time 399360, Note Name: G5
Note OFF: Time 399360, Note Name: A#4
Note ON: Time 399360, Note Name: G4, Velocity: 65
Note ON: Time 399360, Note Name: D#5, Velocity: 76
Note OFF: Time 399840, Note Name: D#5
Note OFF: Time 399840, Note Name: G4
Note ON: Time 400800, Note Name: G5, Velocity: 72
Note ON: Time 400800, Note Name: D#6, Velocity: 86
Note ON: Time 400800, Note Name: D#5, Velocity: 72
Note OFF: Time 401760, Note Name: D#5
Note OFF: Time 401760, Note Name: D#6
Note OFF: Time 401760, Note Name: G5
Note ON: Time 401760, Note Name: D6, Velocity: 80
Note ON: Time 401760, Note Name: A#5, Velocity: 67
Note ON: Time 401760, Note Name: D#5, Velocity: 67
Note OFF: Time 402240, Note Name: D#5
Note OFF: Time 402240, Note Name: A#5
Note OFF: Time 402240, Note Name: D6
Note ON: Time 402240, Note Name: A#5, Velocity: 71
Note ON: Time 402240, Note Name: D#5, Velocity: 71
Note ON: Time 402240, Note Name: C6, Velocity: 85
Note OFF: Time 403680, Note Name: C6
Note OFF: Time 403680, Note Name: D#5
Note OFF: Time 403680, Note Name: A#5
Note ON: Time 403680, Note Name: D6, Velocity: 87
Note ON: Time 403680, Note Name: A5, Velocity: 73
Note ON: Time 403680, Note Name: F5, Velocity: 73
Note OFF: Time 404640, Note Name: F5
Note OFF: Time 404640, Note Name: A5
Note OFF: Time 404640, Note Name: D6
Note ON: Time 404640, Note Name: D6, Velocity: 81
Note ON: Time 404640, Note Name: A5, Velocity: 69
Note ON: Time 404640, Note Name: D#5, Velocity: 69
Note OFF: Time 405120, Note Name: D#5
Note OFF: Time 405120, Note Name: A5
Note OFF: Time 405120, Note Name: D6
Note ON: Time 405120, Note Name: D5, Velocity: 65
Note ON: Time 405120, Note Name: A#5, Velocity: 77
Note OFF: Time 405600, Note Name: A#5
Note OFF: Time 405600, Note Name: D5
Note ON: Time 406560, Note Name: A#5, Velocity: 78
Note ON: Time 406560, Note Name: A#6, Velocity: 94
Note OFF: Time 407520, Note Name: A#6
Note OFF: Time 407520, Note Name: A#5
Note ON: Time 407760, Note Name: A#5, Velocity: 74
Note ON: Time 407760, Note Name: A#6, Velocity: 88
Note OFF: Time 407990, Note Name: A#6
Note OFF: Time 407990, Note Name: A#5
Note ON: Time 408000, Note Name: A#5, Velocity: 78
Note ON: Time 408000, Note Name: A#6, Velocity: 94
Note OFF: Time 408960, Note Name: A#6
Note OFF: Time 408960, Note Name: A#5
Note ON: Time 409440, Note Name: C4, Velocity: 65
Note ON: Time 409440, Note Name: C5, Velocity: 77
Note OFF: Time 409920, Note Name: C4
Note OFF: Time 410400, Note Name: C5
Note ON: Time 410400, Note Name: D4, Velocity: 61
Note ON: Time 410400, Note Name: D5, Velocity: 73
Note OFF: Time 410880, Note Name: D5
Note OFF: Time 410880, Note Name: D4
Note ON: Time 410880, Note Name: D#4, Velocity: 57
Note ON: Time 410880, Note Name: D#5, Velocity: 69
Note OFF: Time 410970, Note Name: D#5
Note ON: Time 410970, Note Name: F5, Velocity: 69
Note OFF: Time 411060, Note Name: F5
Note ON: Time 411060, Note Name: D#5, Velocity: 69
Note OFF: Time 411240, Note Name: D#5
Note OFF: Time 411240, Note Name: D#4
Note ON: Time 411240, Note Name: D4, Velocity: 53
Note ON: Time 411240, Note Name: D5, Velocity: 64
Note OFF: Time 411600, Note Name: D5
Note OFF: Time 411600, Note Name: D4
Note ON: Time 411600, Note Name: D#4, Velocity: 53
Note ON: Time 411600, Note Name: D#5, Velocity: 64
Note OFF: Time 411960, Note Name: D#5
Note OFF: Time 411960, Note Name: D#4
Note ON: Time 411960, Note Name: G5, Velocity: 64
Note ON: Time 411960, Note Name: G4, Velocity: 53
Note ON: Time 411960, Note Name: D5, Velocity: 53
Note OFF: Time 412320, Note Name: D5
Note OFF: Time 412320, Note Name: G4
Note OFF: Time 412320, Note Name: G5
Note ON: Time 412320, Note Name: D5, Velocity: 60
Note ON: Time 412320, Note Name: G#4, Velocity: 66
Note ON: Time 412320, Note Name: G5, Velocity: 72
Note OFF: Time 412800, Note Name: G#4
Note ON: Time 412800, Note Name: A#4, Velocity: 66
Note OFF: Time 413280, Note Name: A#4
Note OFF: Time 413280, Note Name: D5
Note ON: Time 413280, Note Name: G#4, Velocity: 61
Note OFF: Time 413440, Note Name: G5
Note ON: Time 413440, Note Name: F5, Velocity: 61
Note OFF: Time 413600, Note Name: F5
Note ON: Time 413600, Note Name: D#5, Velocity: 61
Note OFF: Time 413740, Note Name: D#5
Note OFF: Time 413760, Note Name: G#4
Note ON: Time 413760, Note Name: G4, Velocity: 68
Note ON: Time 413760, Note Name: D#5, Velocity: 68
Note OFF: Time 415200, Note Name: D#5
Note OFF: Time 415200, Note Name: G4
Note ON: Time 415840, Note Name: G4, Velocity: 61
Note OFF: Time 416000, Note Name: G4
Note ON: Time 416000, Note Name: G#4, Velocity: 57
Note OFF: Time 416160, Note Name: G#4
Note ON: Time 416160, Note Name: A#4, Velocity: 63
Note OFF: Time 416320, Note Name: A#4
Note ON: Time 416320, Note Name: D5, Velocity: 68
Note OFF: Time 416480, Note Name: D5
Note ON: Time 416480, Note Name: C5, Velocity: 63
Note OFF: Time 416640, Note Name: C5
Note ON: Time 416640, Note Name: A#4, Velocity: 70
Note OFF: Time 418080, Note Name: A#4
Note ON: Time 418720, Note Name: G4, Velocity: 57
Note OFF: Time 418880, Note Name: G4
Note ON: Time 418880, Note Name: G#4, Velocity: 60
Note OFF: Time 419040, Note Name: G#4
Note ON: Time 419040, Note Name: A#4, Velocity: 65
Note OFF: Time 419200, Note Name: A#4
Note ON: Time 419200, Note Name: D5, Velocity: 68
Note OFF: Time 419360, Note Name: D5
Note ON: Time 419360, Note Name: C5, Velocity: 61
Note OFF: Time 419520, Note Name: C5
Note ON: Time 419520, Note Name: A#4, Velocity: 70
Note OFF: Time 420960, Note Name: A#4
Note ON: Time 421600, Note Name: F4, Velocity: 54
Note OFF: Time 421760, Note Name: F4
Note ON: Time 421760, Note Name: G#4, Velocity: 59
Note OFF: Time 421920, Note Name: G#4
Note ON: Time 421920, Note Name: A#4, Velocity: 64
Note OFF: Time 422080, Note Name: A#4
Note ON: Time 422080, Note Name: D5, Velocity: 68
Note OFF: Time 422240, Note Name: D5
Note ON: Time 422240, Note Name: C5, Velocity: 63
Note OFF: Time 422400, Note Name: C5
Note ON: Time 422400, Note Name: A#4, Velocity: 70
Note OFF: Time 422880, Note Name: A#4
Note ON: Time 423040, Note Name: C#4, Velocity: 57
Note ON: Time 423200, Note Name: D#4, Velocity: 56
Note OFF: Time 423360, Note Name: D#4
Note ON: Time 423360, Note Name: G4, Velocity: 60
Note OFF: Time 423520, Note Name: G4
Note OFF: Time 423520, Note Name: C#4
Note ON: Time 423520, Note Name: C5, Velocity: 65
Note OFF: Time 423680, Note Name: C5
Note ON: Time 423680, Note Name: A#4, Velocity: 59
Note OFF: Time 423840, Note Name: A#4
Note ON: Time 423840, Note Name: G#4, Velocity: 65
Note OFF: Time 424560, Note Name: G#4
Note ON: Time 424560, Note Name: B3, Velocity: 60
Note ON: Time 424800, Note Name: D#4, Velocity: 62
Note OFF: Time 425040, Note Name: D#4
Note OFF: Time 425040, Note Name: B3
Note ON: Time 425040, Note Name: F4, Velocity: 57
Note OFF: Time 425280, Note Name: F4
Note ON: Time 425280, Note Name: G4, Velocity: 70
Note OFF: Time 425760, Note Name: G4
Note ON: Time 427360, Note Name: G4, Velocity: 61
Note OFF: Time 427520, Note Name: G4
Note ON: Time 427520, Note Name: G#4, Velocity: 58
Note OFF: Time 427680, Note Name: G#4
Note ON: Time 427680, Note Name: A#4, Velocity: 64
Note OFF: Time 427840, Note Name: A#4
Note ON: Time 427840, Note Name: D5, Velocity: 68
Note OFF: Time 428000, Note Name: D5
Note ON: Time 428000, Note Name: C5, Velocity: 58
Note OFF: Time 428160, Note Name: C5
Note ON: Time 428160, Note Name: A#4, Velocity: 72
Note OFF: Time 428280, Note Name: A#4
Note ON: Time 428400, Note Name: A#5, Velocity: 72
Note OFF: Time 428520, Note Name: A#5
Note ON: Time 428640, Note Name: A#6, Velocity: 87
Note OFF: Time 428880, Note Name: A#6
Note ON: Time 430240, Note Name: G4, Velocity: 38
Note OFF: Time 430400, Note Name: G4
Note ON: Time 430400, Note Name: G#4, Velocity: 42
Note OFF: Time 430560, Note Name: G#4
Note ON: Time 430560, Note Name: A#4, Velocity: 46
Note OFF: Time 430720, Note Name: A#4
Note ON: Time 430720, Note Name: D5, Velocity: 50
Note OFF: Time 430880, Note Name: D5
Note ON: Time 430880, Note Name: C5, Velocity: 45
Note OFF: Time 431040, Note Name: C5
Note ON: Time 431040, Note Name: A#4, Velocity: 56
Note OFF: Time 431160, Note Name: A#4
Note ON: Time 431280, Note Name: A#5, Velocity: 56
Note OFF: Time 431400, Note Name: A#5
Note ON: Time 431520, Note Name: A#6, Velocity: 67
Note OFF: Time 431760, Note Name: A#6
Note ON: Time 433120, Note Name: F4, Velocity: 39
Note OFF: Time 433280, Note Name: F4
Note ON: Time 433280, Note Name: G#4, Velocity: 42
Note OFF: Time 433440, Note Name: G#4
Note ON: Time 433440, Note Name: A#4, Velocity: 45
Note OFF: Time 433600, Note Name: A#4
Note ON: Time 433600, Note Name: D5, Velocity: 48
Note OFF: Time 433760, Note Name: D5
Note ON: Time 433760, Note Name: C5, Velocity: 45
Note OFF: Time 433920, Note Name: C5
Note ON: Time 433920, Note Name: A#4, Velocity: 56
Note OFF: Time 434560, Note Name: A#4
Note ON: Time 434560, Note Name: C#4, Velocity: 39
Note ON: Time 434720, Note Name: D#4, Velocity: 43
Note OFF: Time 434880, Note Name: D#4
Note ON: Time 434880, Note Name: G4, Velocity: 46
Note OFF: Time 435040, Note Name: G4
Note OFF: Time 435040, Note Name: C#4
Note ON: Time 435040, Note Name: C5, Velocity: 50
Note OFF: Time 435200, Note Name: C5
Note ON: Time 435200, Note Name: A#4, Velocity: 46
Note OFF: Time 435360, Note Name: A#4
Note ON: Time 435360, Note Name: G#4, Velocity: 51
Note OFF: Time 436080, Note Name: G#4
Note ON: Time 436080, Note Name: B3, Velocity: 49
Note ON: Time 436320, Note Name: D#4, Velocity: 51
Note OFF: Time 436560, Note Name: D#4
Note OFF: Time 436560, Note Name: B3
Note ON: Time 436560, Note Name: F4, Velocity: 46
Note OFF: Time 436800, Note Name: F4
Note ON: Time 436800, Note Name: G4, Velocity: 62
Note OFF: Time 438480, Note Name: G4
Note ON: Time 438480, Note Name: G4, Velocity: 51
Note OFF: Time 438720, Note Name: G4
Note ON: Time 438720, Note Name: A#4, Velocity: 54
Note OFF: Time 438960, Note Name: A#4
Note ON: Time 438960, Note Name: G5, Velocity: 55
Note OFF: Time 439200, Note Name: G5
Note ON: Time 439200, Note Name: F5, Velocity: 60
Note OFF: Time 439440, Note Name: F5
Note ON: Time 439440, Note Name: D#5, Velocity: 55
Note OFF: Time 439680, Note Name: D#5
Note ON: Time 439680, Note Name: A#4, Velocity: 66
Note OFF: Time 441360, Note Name: A#4
Note ON: Time 441360, Note Name: G4, Velocity: 51
Note OFF: Time 441600, Note Name: G4
Note ON: Time 441600, Note Name: A#4, Velocity: 54
Note OFF: Time 441840, Note Name: A#4
Note ON: Time 441840, Note Name: G5, Velocity: 55
Note OFF: Time 442080, Note Name: G5
Note ON: Time 442080, Note Name: F5, Velocity: 60
Note OFF: Time 442320, Note Name: F5
Note ON: Time 442320, Note Name: D#5, Velocity: 55
Note OFF: Time 442560, Note Name: D#5
Note ON: Time 442560, Note Name: D5, Velocity: 66
Note OFF: Time 444240, Note Name: D5
Note ON: Time 444240, Note Name: A#4, Velocity: 51
Note OFF: Time 444480, Note Name: A#4
Note ON: Time 444480, Note Name: D5, Velocity: 54
Note OFF: Time 444720, Note Name: D5
Note ON: Time 444720, Note Name: A#5, Velocity: 55
Note OFF: Time 444960, Note Name: A#5
Note ON: Time 444960, Note Name: A5, Velocity: 60
Note OFF: Time 445200, Note Name: A5
Note ON: Time 445200, Note Name: G5, Velocity: 55
Note OFF: Time 445440, Note Name: G5
Note ON: Time 445440, Note Name: D5, Velocity: 69
Note OFF: Time 447120, Note Name: D5
Note ON: Time 447120, Note Name: A#4, Velocity: 51
Note OFF: Time 447360, Note Name: A#4
Note ON: Time 447360, Note Name: D5, Velocity: 54
Note OFF: Time 447600, Note Name: D5
Note ON: Time 447600, Note Name: A#5, Velocity: 55
Note OFF: Time 447840, Note Name: A#5
Note ON: Time 447840, Note Name: A5, Velocity: 60
Note OFF: Time 448080, Note Name: A5
Note ON: Time 448080, Note Name: G5, Velocity: 55
Note OFF: Time 448320, Note Name: G5
Note ON: Time 448320, Note Name: D5, Velocity: 59
Note OFF: Time 448560, Note Name: D5
Note ON: Time 448560, Note Name: A#4, Velocity: 55
Note OFF: Time 448800, Note Name: A#4
Note ON: Time 448800, Note Name: D5, Velocity: 54
Note OFF: Time 449040, Note Name: D5
Note ON: Time 449040, Note Name: A#5, Velocity: 53
Note OFF: Time 449280, Note Name: A#5
Note ON: Time 449280, Note Name: A5, Velocity: 56
Note OFF: Time 449520, Note Name: A5
Note ON: Time 449520, Note Name: G5, Velocity: 51
Note OFF: Time 449760, Note Name: G5
Note ON: Time 449760, Note Name: D5, Velocity: 56
Note OFF: Time 450000, Note Name: D5
Note ON: Time 450000, Note Name: A#4, Velocity: 51
Note OFF: Time 450240, Note Name: A#4
Note ON: Time 450240, Note Name: D5, Velocity: 51
Note OFF: Time 450480, Note Name: D5
Note ON: Time 450480, Note Name: A#5, Velocity: 54
Note OFF: Time 450720, Note Name: A#5
Note ON: Time 450720, Note Name: A5, Velocity: 50
Note OFF: Time 450960, Note Name: A5
Note ON: Time 450960, Note Name: G5, Velocity: 49
Note OFF: Time 451200, Note Name: G5
Note ON: Time 451200, Note Name: D5, Velocity: 48
Note OFF: Time 451440, Note Name: D5
Note ON: Time 451440, Note Name: A5, Velocity: 45
Note OFF: Time 451680, Note Name: A5
Note ON: Time 451680, Note Name: C6, Velocity: 52
Note OFF: Time 451920, Note Name: C6
Note ON: Time 451920, Note Name: A#5, Velocity: 47
Note OFF: Time 452160, Note Name: A#5
Note ON: Time 452160, Note Name: G5, Velocity: 50
Note OFF: Time 452400, Note Name: G5
Note ON: Time 452400, Note Name: D#5, Velocity: 46
Note OFF: Time 452640, Note Name: D#5
Note ON: Time 452640, Note Name: A#4, Velocity: 45
Note OFF: Time 452880, Note Name: A#4
Note ON: Time 452880, Note Name: G4, Velocity: 45
Note OFF: Time 453120, Note Name: G4
Note ON: Time 453120, Note Name: C4, Velocity: 43
Note OFF: Time 453360, Note Name: C4
Note ON: Time 453360, Note Name: D4, Velocity: 42
Note OFF: Time 453600, Note Name: D4
Note ON: Time 453600, Note Name: F4, Velocity: 41
Note OFF: Time 453840, Note Name: F4
Note ON: Time 453840, Note Name: D#4, Velocity: 39
Note OFF: Time 454080, Note Name: D#4
Note ON: Time 455760, Note Name: C4, Velocity: 38
Note ON: Time 456000, Note Name: D4, Velocity: 37
Note ON: Time 456240, Note Name: F#4, Velocity: 37
Note OFF: Time 456480, Note Name: F#4
Note ON: Time 456480, Note Name: A#4, Velocity: 41
Note OFF: Time 456720, Note Name: A#4
Note ON: Time 456720, Note Name: A4, Velocity: 39
Note OFF: Time 456960, Note Name: A4
Note OFF: Time 456960, Note Name: D4
Note OFF: Time 456960, Note Name: C4
Note ON: Time 456960, Note Name: G4, Velocity: 37
Note ON: Time 457440, Note Name: D4, Velocity: 28
Note ON: Time 457440, Note Name: A#3, Velocity: 23
Note OFF: Time 457915, Note Name: A#3
Note OFF: Time 457915, Note Name: D4
Note ON: Time 457920, Note Name: A#3, Velocity: 23
Note ON: Time 457920, Note Name: D4, Velocity: 28
Note OFF: Time 458395, Note Name: D4
Note OFF: Time 458395, Note Name: A#3
Note OFF: Time 458400, Note Name: G4
Note ON: Time 458400, Note Name: D5, Velocity: 41
Note ON: Time 458880, Note Name: G4, Velocity: 28
Note OFF: Time 459355, Note Name: G4
Note ON: Time 459360, Note Name: G4, Velocity: 28
Note OFF: Time 459835, Note Name: G4
Note OFF: Time 459840, Note Name: D5
Note ON: Time 459840, Note Name: C5, Velocity: 39
Note ON: Time 460320, Note Name: G4, Velocity: 28
Note ON: Time 460320, Note Name: D#4, Velocity: 23
Note OFF: Time 460795, Note Name: D#4
Note OFF: Time 460795, Note Name: G4
Note ON: Time 460800, Note Name: G4, Velocity: 28
Note ON: Time 460800, Note Name: D#4, Velocity: 23
Note OFF: Time 461275, Note Name: D#4
Note OFF: Time 461275, Note Name: G4
Note OFF: Time 461280, Note Name: C5
Note ON: Time 461520, Note Name: C4, Velocity: 40
Note ON: Time 461760, Note Name: D4, Velocity: 37
Note ON: Time 462000, Note Name: F#4, Velocity: 37
Note OFF: Time 462240, Note Name: F#4
Note ON: Time 462240, Note Name: A#4, Velocity: 41
Note OFF: Time 462480, Note Name: A#4
Note ON: Time 462480, Note Name: A4, Velocity: 39
Note OFF: Time 462720, Note Name: A4
Note OFF: Time 462720, Note Name: D4
Note OFF: Time 462720, Note Name: C4
Note ON: Time 462720, Note Name: G4, Velocity: 37
Note ON: Time 463200, Note Name: D4, Velocity: 28
Note ON: Time 463200, Note Name: A#3, Velocity: 23
Note OFF: Time 463675, Note Name: A#3
Note OFF: Time 463675, Note Name: D4
Note ON: Time 463680, Note Name: A#3, Velocity: 23
Note ON: Time 463680, Note Name: D4, Velocity: 28
Note OFF: Time 464155, Note Name: D4
Note OFF: Time 464155, Note Name: A#3
Note OFF: Time 464160, Note Name: G4
Note ON: Time 464160, Note Name: E4, Velocity: 37
Note ON: Time 464640, Note Name: A3, Velocity: 23
Note ON: Time 464640, Note Name: G3, Velocity: 23
Note ON: Time 464640, Note Name: C#4, Velocity: 28
Note OFF: Time 465115, Note Name: C#4
Note OFF: Time 465115, Note Name: G3
Note OFF: Time 465115, Note Name: A3
Note ON: Time 465120, Note Name: A3, Velocity: 23
Note ON: Time 465120, Note Name: C#4, Velocity: 28
Note ON: Time 465120, Note Name: G3, Velocity: 23
Note OFF: Time 465595, Note Name: G3
Note OFF: Time 465595, Note Name: C#4
Note OFF: Time 465595, Note Name: A3
Note OFF: Time 465600, Note Name: E4
Note ON: Time 465600, Note Name: F#4, Velocity: 37
Note ON: Time 466080, Note Name: D4, Velocity: 23
Note ON: Time 466080, Note Name: A3, Velocity: 19
Note ON: Time 466080, Note Name: F#3, Velocity: 19
Note OFF: Time 466555, Note Name: F#3
Note OFF: Time 466555, Note Name: A3
Note OFF: Time 466555, Note Name: D4
Note ON: Time 466560, Note Name: F#3, Velocity: 19
Note ON: Time 466560, Note Name: A3, Velocity: 19
Note ON: Time 466560, Note Name: D4, Velocity: 23
Note OFF: Time 467035, Note Name: D4
Note OFF: Time 467035, Note Name: A3
Note OFF: Time 467035, Note Name: F#3
Note OFF: Time 467040, Note Name: F#4
Note ON: Time 467280, Note Name: C4, Velocity: 40
Note ON: Time 467520, Note Name: D4, Velocity: 37
Note ON: Time 467760, Note Name: F#4, Velocity: 37
Note OFF: Time 468000, Note Name: F#4
Note ON: Time 468000, Note Name: A#4, Velocity: 41
Note OFF: Time 468240, Note Name: A#4
Note ON: Time 468240, Note Name: A4, Velocity: 39
Note OFF: Time 468480, Note Name: A4
Note OFF: Time 468480, Note Name: D4
Note OFF: Time 468480, Note Name: C4
Note ON: Time 468480, Note Name: G4, Velocity: 37
Note ON: Time 468960, Note Name: A#3, Velocity: 23
Note ON: Time 468960, Note Name: D4, Velocity: 28
Note OFF: Time 469435, Note Name: D4
Note OFF: Time 469435, Note Name: A#3
Note ON: Time 469440, Note Name: A#3, Velocity: 23
Note ON: Time 469440, Note Name: D4, Velocity: 28
Note OFF: Time 469915, Note Name: D4
Note OFF: Time 469915, Note Name: A#3
Note OFF: Time 469920, Note Name: G4
Note ON: Time 469920, Note Name: D5, Velocity: 58
Note ON: Time 470400, Note Name: G4, Velocity: 29
Note ON: Time 470400, Note Name: A#4, Velocity: 36
Note OFF: Time 470875, Note Name: A#4
Note OFF: Time 470875, Note Name: G4
Note ON: Time 470880, Note Name: G4, Velocity: 29
Note ON: Time 470880, Note Name: A#4, Velocity: 36
Note OFF: Time 471355, Note Name: A#4
Note OFF: Time 471355, Note Name: G4
Note OFF: Time 471360, Note Name: D5
Note ON: Time 471360, Note Name: E5, Velocity: 59
Note ON: Time 471840, Note Name: G4, Velocity: 29
Note ON: Time 471840, Note Name: A#4, Velocity: 36
Note OFF: Time 472315, Note Name: A#4
Note OFF: Time 472315, Note Name: G4
Note ON: Time 472320, Note Name: G4, Velocity: 29
Note ON: Time 472320, Note Name: A#4, Velocity: 36
Note OFF: Time 472795, Note Name: A#4
Note OFF: Time 472795, Note Name: G4
Note OFF: Time 472800, Note Name: E5
Note ON: Time 473040, Note Name: A#3, Velocity: 40
Note ON: Time 473280, Note Name: C#4, Velocity: 37
Note ON: Time 473520, Note Name: E4, Velocity: 37
Note OFF: Time 473760, Note Name: E4
Note ON: Time 473760, Note Name: A4, Velocity: 41
Note OFF: Time 474000, Note Name: A4
Note ON: Time 474000, Note Name: G4, Velocity: 39
Note OFF: Time 474240, Note Name: G4
Note OFF: Time 474240, Note Name: C#4
Note OFF: Time 474240, Note Name: A#3
Note ON: Time 474240, Note Name: G4, Velocity: 37
Note ON: Time 474720, Note Name: C#4, Velocity: 27
Note ON: Time 474720, Note Name: A#3, Velocity: 27
Note ON: Time 474720, Note Name: E4, Velocity: 33
Note OFF: Time 475195, Note Name: E4
Note OFF: Time 475195, Note Name: A#3
Note OFF: Time 475195, Note Name: C#4
Note ON: Time 475200, Note Name: A#3, Velocity: 27
Note ON: Time 475200, Note Name: E4, Velocity: 33
Note ON: Time 475200, Note Name: C#4, Velocity: 27
Note OFF: Time 475675, Note Name: C#4
Note OFF: Time 475675, Note Name: E4
Note OFF: Time 475675, Note Name: A#3
Note OFF: Time 475680, Note Name: G4
Note ON: Time 475680, Note Name: E5, Velocity: 62
Note ON: Time 476160, Note Name: C#5, Velocity: 39
Note ON: Time 476160, Note Name: A#4, Velocity: 32
Note ON: Time 476160, Note Name: G4, Velocity: 32
Note OFF: Time 476635, Note Name: G4
Note OFF: Time 476635, Note Name: A#4
Note OFF: Time 476635, Note Name: C#5
Note ON: Time 476640, Note Name: C#5, Velocity: 41
Note ON: Time 476640, Note Name: A#4, Velocity: 32
Note ON: Time 476640, Note Name: G4, Velocity: 32
Note OFF: Time 477115, Note Name: G4
Note OFF: Time 477115, Note Name: A#4
Note OFF: Time 477115, Note Name: C#5
Note OFF: Time 477120, Note Name: E5
Note ON: Time 477120, Note Name: F#5, Velocity: 64
Note ON: Time 477600, Note Name: G4, Velocity: 35
Note ON: Time 477600, Note Name: A#4, Velocity: 35
Note ON: Time 477600, Note Name: C#5, Velocity: 41
Note OFF: Time 478075, Note Name: C#5
Note OFF: Time 478075, Note Name: A#4
Note OFF: Time 478075, Note Name: G4
Note ON: Time 478080, Note Name: G4, Velocity: 35
Note ON: Time 478080, Note Name: A#4, Velocity: 35
Note ON: Time 478080, Note Name: C#5, Velocity: 43
Note OFF: Time 478555, Note Name: C#5
Note OFF: Time 478555, Note Name: A#4
Note OFF: Time 478555, Note Name: G4
Note OFF: Time 478560, Note Name: F#5
Note ON: Time 478560, Note Name: E5, Velocity: 63
Note ON: Time 479040, Note Name: C#5, Velocity: 44
Note ON: Time 479040, Note Name: A#4, Velocity: 36
Note ON: Time 479040, Note Name: G4, Velocity: 36
Note OFF: Time 479515, Note Name: G4
Note OFF: Time 479515, Note Name: A#4
Note OFF: Time 479515, Note Name: C#5
Note OFF: Time 479520, Note Name: E5
Note ON: Time 479760, Note Name: F#5, Velocity: 67
Note OFF: Time 479980, Note Name: F#5
Note ON: Time 480000, Note Name: F#5, Velocity: 67
Note ON: Time 480480, Note Name: C#5, Velocity: 47
Note ON: Time 480480, Note Name: G4, Velocity: 37
Note ON: Time 480480, Note Name: A#4, Velocity: 37
Note OFF: Time 480955, Note Name: A#4
Note OFF: Time 480955, Note Name: G4
Note OFF: Time 480955, Note Name: C#5
Note ON: Time 480960, Note Name: A#4, Velocity: 37
Note ON: Time 480960, Note Name: G4, Velocity: 37
Note ON: Time 480960, Note Name: C#5, Velocity: 47
Note OFF: Time 481435, Note Name: C#5
Note OFF: Time 481435, Note Name: G4
Note OFF: Time 481435, Note Name: A#4
Note OFF: Time 481440, Note Name: F#5
Note ON: Time 481440, Note Name: E5, Velocity: 73
Note ON: Time 481920, Note Name: G4, Velocity: 40
Note ON: Time 481920, Note Name: A#4, Velocity: 40
Note ON: Time 481920, Note Name: C#5, Velocity: 50
Note OFF: Time 482400, Note Name: C#5
Note OFF: Time 482400, Note Name: E5
Note OFF: Time 482400, Note Name: G4
Note OFF: Time 482400, Note Name: A#4
Note ON: Time 482640, Note Name: F#5, Velocity: 73
Note OFF: Time 482860, Note Name: F#5
Note ON: Time 482880, Note Name: F#5, Velocity: 73
Note ON: Time 483360, Note Name: C#5, Velocity: 52
Note ON: Time 483360, Note Name: A#4, Velocity: 41
Note ON: Time 483360, Note Name: G4, Velocity: 41
Note OFF: Time 483835, Note Name: G4
Note OFF: Time 483835, Note Name: A#4
Note OFF: Time 483835, Note Name: C#5
Note ON: Time 483840, Note Name: A#4, Velocity: 43
Note ON: Time 483840, Note Name: G4, Velocity: 43
Note ON: Time 483840, Note Name: C#5, Velocity: 52
Note OFF: Time 484315, Note Name: C#5
Note OFF: Time 484315, Note Name: G4
Note OFF: Time 484315, Note Name: A#4
Note OFF: Time 484320, Note Name: F#5
Note ON: Time 484320, Note Name: E5, Velocity: 75
Note ON: Time 484800, Note Name: G4, Velocity: 47
Note ON: Time 484800, Note Name: A#4, Velocity: 47
Note ON: Time 484800, Note Name: C#5, Velocity: 59
Note OFF: Time 485280, Note Name: C#5
Note OFF: Time 485280, Note Name: E5
Note OFF: Time 485280, Note Name: G4
Note OFF: Time 485280, Note Name: A#4
Note ON: Time 485520, Note Name: F#5, Velocity: 77
Note OFF: Time 485760, Note Name: F#5
Note ON: Time 485760, Note Name: A5, Velocity: 80
Note ON: Time 486240, Note Name: C#5, Velocity: 58
Note ON: Time 486240, Note Name: A#4, Velocity: 58
Note ON: Time 486240, Note Name: E5, Velocity: 72
Note OFF: Time 486715, Note Name: E5
Note OFF: Time 486715, Note Name: A#4
Note OFF: Time 486715, Note Name: C#5
Note ON: Time 486720, Note Name: E5, Velocity: 73
Note ON: Time 486720, Note Name: C#5, Velocity: 58
Note ON: Time 486720, Note Name: A#4, Velocity: 58
Note OFF: Time 487195, Note Name: A#4
Note OFF: Time 487195, Note Name: C#5
Note OFF: Time 487195, Note Name: E5
Note OFF: Time 487200, Note Name: A5
Note ON: Time 487200, Note Name: G5, Velocity: 85
Note ON: Time 487680, Note Name: A#4, Velocity: 62
Note ON: Time 487680, Note Name: E5, Velocity: 79
Note ON: Time 487680, Note Name: C#5, Velocity: 62
Note OFF: Time 488160, Note Name: C#5
Note OFF: Time 488160, Note Name: G5
Note OFF: Time 488160, Note Name: A#4
Note OFF: Time 488160, Note Name: E5
Note ON: Time 488160, Note Name: A5, Velocity: 93
Note OFF: Time 488640, Note Name: A5
Note ON: Time 488640, Note Name: D5, Velocity: 86
Note ON: Time 488640, Note Name: A#4, Velocity: 86
Note ON: Time 488640, Note Name: A#5, Velocity: 101
Note OFF: Time 489120, Note Name: A#5
Note OFF: Time 489120, Note Name: A#4
Note OFF: Time 489120, Note Name: D5
Note ON: Time 489360, Note Name: D6, Velocity: 80
Note ON: Time 489360, Note Name: A#6, Velocity: 95
Note OFF: Time 489580, Note Name: A#6
Note OFF: Time 489580, Note Name: D6
Note ON: Time 489600, Note Name: C7, Velocity: 101
Note ON: Time 489600, Note Name: D#6, Velocity: 86
Note OFF: Time 489820, Note Name: D#6
Note OFF: Time 489820, Note Name: C7
Note ON: Time 489840, Note Name: D6, Velocity: 80
Note ON: Time 489840, Note Name: A#6, Velocity: 95
Note OFF: Time 490060, Note Name: A#6
Note OFF: Time 490060, Note Name: D6
Note ON: Time 490080, Note Name: A6, Velocity: 97
Note ON: Time 490080, Note Name: C6, Velocity: 82
Note OFF: Time 490300, Note Name: C6
Note OFF: Time 490300, Note Name: A6
Note ON: Time 490320, Note Name: A#5, Velocity: 80
Note ON: Time 490320, Note Name: G6, Velocity: 95
Note OFF: Time 490540, Note Name: G6
Note OFF: Time 490540, Note Name: A#5
Note ON: Time 490560, Note Name: A5, Velocity: 80
Note ON: Time 490560, Note Name: F#6, Velocity: 94
Note OFF: Time 490780, Note Name: F#6
Note OFF: Time 490780, Note Name: A5
Note ON: Time 490800, Note Name: A#5, Velocity: 79
Note ON: Time 490800, Note Name: G6, Velocity: 93
Note OFF: Time 491020, Note Name: G6
Note OFF: Time 491020, Note Name: A#5
Note ON: Time 491040, Note Name: F6, Velocity: 93
Note ON: Time 491040, Note Name: A5, Velocity: 79
Note OFF: Time 491260, Note Name: A5
Note OFF: Time 491260, Note Name: F6
Note ON: Time 491400, Note Name: D#6, Velocity: 92
Note ON: Time 491400, Note Name: G5, Velocity: 78
Note OFF: Time 491490, Note Name: G5
Note OFF: Time 491490, Note Name: D#6
Note ON: Time 491520, Note Name: D#6, Velocity: 91
Note ON: Time 491520, Note Name: G5, Velocity: 77
Note OFF: Time 491740, Note Name: G5
Note OFF: Time 491740, Note Name: D#6
Note ON: Time 491760, Note Name: D6, Velocity: 90
Note ON: Time 491760, Note Name: F#5, Velocity: 75
Note OFF: Time 491980, Note Name: F#5
Note OFF: Time 491980, Note Name: D6
Note ON: Time 492000, Note Name: C6, Velocity: 89
Note ON: Time 492000, Note Name: D#5, Velocity: 74
Note OFF: Time 492220, Note Name: D#5
Note OFF: Time 492220, Note Name: C6
Note ON: Time 492240, Note Name: D5, Velocity: 73
Note ON: Time 492240, Note Name: A#5, Velocity: 86
Note OFF: Time 492460, Note Name: A#5
Note OFF: Time 492460, Note Name: D5
Note ON: Time 492480, Note Name: A5, Velocity: 85
Note ON: Time 492480, Note Name: C5, Velocity: 72
Note OFF: Time 492700, Note Name: C5
Note OFF: Time 492700, Note Name: A5
Note ON: Time 492720, Note Name: G5, Velocity: 83
Note ON: Time 492720, Note Name: A#4, Velocity: 70
Note OFF: Time 492940, Note Name: A#4
Note OFF: Time 492940, Note Name: G5
Note ON: Time 492960, Note Name: A4, Velocity: 72
Note ON: Time 492960, Note Name: F#5, Velocity: 85
Note OFF: Time 493100, Note Name: F#5
Note OFF: Time 493100, Note Name: A4
Note ON: Time 493120, Note Name: D#5, Velocity: 85
Note ON: Time 493120, Note Name: C5, Velocity: 72
Note OFF: Time 493260, Note Name: C5
Note OFF: Time 493260, Note Name: D#5
Note ON: Time 493280, Note Name: D5, Velocity: 86
Note ON: Time 493280, Note Name: C5, Velocity: 73
Note OFF: Time 493420, Note Name: C5
Note OFF: Time 493420, Note Name: D5
Note ON: Time 493440, Note Name: D5, Velocity: 88
Note ON: Time 493440, Note Name: B4, Velocity: 74
Note OFF: Time 493530, Note Name: B4
Note OFF: Time 493530, Note Name: D5
Note ON: Time 493536, Note Name: D5, Velocity: 88
Note ON: Time 493536, Note Name: A#4, Velocity: 74
Note OFF: Time 493626, Note Name: A#4
Note OFF: Time 493626, Note Name: D5
Note ON: Time 493632, Note Name: D5, Velocity: 88
Note ON: Time 493632, Note Name: A4, Velocity: 74
Note OFF: Time 493722, Note Name: A4
Note OFF: Time 493722, Note Name: D5
Note ON: Time 493728, Note Name: D5, Velocity: 89
Note ON: Time 493728, Note Name: G#4, Velocity: 74
Note OFF: Time 493818, Note Name: G#4
Note OFF: Time 493818, Note Name: D5
Note ON: Time 493824, Note Name: A4, Velocity: 74
Note ON: Time 493824, Note Name: D5, Velocity: 89
Note OFF: Time 493914, Note Name: D5
Note OFF: Time 493914, Note Name: A4
Note ON: Time 493920, Note Name: A#4, Velocity: 75
Note ON: Time 493920, Note Name: D5, Velocity: 90
Note OFF: Time 494020, Note Name: D5
Note OFF: Time 494020, Note Name: A#4
Note ON: Time 494040, Note Name: A4, Velocity: 75
Note ON: Time 494040, Note Name: D5, Velocity: 90
Note OFF: Time 494140, Note Name: D5
Note OFF: Time 494140, Note Name: A4
Note ON: Time 494160, Note Name: C5, Velocity: 77
Note ON: Time 494160, Note Name: D5, Velocity: 91
Note OFF: Time 494260, Note Name: D5
Note OFF: Time 494260, Note Name: C5
Note ON: Time 494280, Note Name: D5, Velocity: 91
Note ON: Time 494280, Note Name: A#4, Velocity: 77
Note OFF: Time 494380, Note Name: A#4
Note OFF: Time 494380, Note Name: D5
Note ON: Time 494400, Note Name: G4, Velocity: 85
Note ON: Time 494400, Note Name: D5, Velocity: 91
Note OFF: Time 494500, Note Name: D5
Note OFF: Time 494500, Note Name: G4
Note ON: Time 494640, Note Name: D6, Velocity: 73
Note ON: Time 494640, Note Name: G6, Velocity: 73
Note ON: Time 494640, Note Name: A#6, Velocity: 87
Note OFF: Time 494740, Note Name: A#6
Note OFF: Time 494740, Note Name: G6
Note OFF: Time 494740, Note Name: D6
Note ON: Time 494760, Note Name: A5, Velocity: 76
Note OFF: Time 494860, Note Name: A5
Note ON: Time 495000, Note Name: D6, Velocity: 67
Note ON: Time 495000, Note Name: G6, Velocity: 79
Note ON: Time 495000, Note Name: A#5, Velocity: 67
Note OFF: Time 495100, Note Name: A#5
Note OFF: Time 495100, Note Name: G6
Note OFF: Time 495100, Note Name: D6
Note ON: Time 495120, Note Name: G6, Velocity: 87
Note ON: Time 495120, Note Name: D6, Velocity: 73
Note ON: Time 495120, Note Name: A#5, Velocity: 73
Note OFF: Time 495220, Note Name: A#5
Note OFF: Time 495220, Note Name: D6
Note OFF: Time 495220, Note Name: G6
Note ON: Time 495240, Note Name: F#5, Velocity: 75
Note OFF: Time 495340, Note Name: F#5
Note ON: Time 495480, Note Name: G5, Velocity: 67
Note ON: Time 495480, Note Name: A#5, Velocity: 67
Note ON: Time 495480, Note Name: D6, Velocity: 79
Note OFF: Time 495580, Note Name: D6
Note OFF: Time 495580, Note Name: A#5
Note OFF: Time 495580, Note Name: G5
Note ON: Time 495600, Note Name: A#5, Velocity: 73
Note ON: Time 495600, Note Name: G5, Velocity: 73
Note ON: Time 495600, Note Name: D6, Velocity: 87
Note OFF: Time 495700, Note Name: D6
Note OFF: Time 495700, Note Name: G5
Note OFF: Time 495700, Note Name: A#5
Note ON: Time 495720, Note Name: C#5, Velocity: 78
Note OFF: Time 495820, Note Name: C#5
Note ON: Time 495960, Note Name: A#5, Velocity: 78
Note ON: Time 495960, Note Name: G5, Velocity: 66
Note ON: Time 495960, Note Name: D5, Velocity: 66
Note OFF: Time 496060, Note Name: D5
Note OFF: Time 496060, Note Name: G5
Note OFF: Time 496060, Note Name: A#5
Note ON: Time 496080, Note Name: D5, Velocity: 73
Note ON: Time 496080, Note Name: G5, Velocity: 73
Note ON: Time 496080, Note Name: A#5, Velocity: 87
Note OFF: Time 496180, Note Name: A#5
Note OFF: Time 496180, Note Name: G5
Note OFF: Time 496180, Note Name: D5
Note ON: Time 496200, Note Name: A#4, Velocity: 75
Note OFF: Time 496300, Note Name: A#4
Note ON: Time 496440, Note Name: C6, Velocity: 78
Note ON: Time 496440, Note Name: G5, Velocity: 66
Note ON: Time 496440, Note Name: D#5, Velocity: 66
Note OFF: Time 496540, Note Name: D#5
Note OFF: Time 496540, Note Name: G5
Note OFF: Time 496540, Note Name: C6
Note ON: Time 496560, Note Name: C6, Velocity: 87
Note ON: Time 496560, Note Name: G5, Velocity: 73
Note ON: Time 496560, Note Name: D#5, Velocity: 73
Note OFF: Time 496660, Note Name: D#5
Note OFF: Time 496660, Note Name: G5
Note OFF: Time 496660, Note Name: C6
Note ON: Time 496680, Note Name: D5, Velocity: 75
Note OFF: Time 496780, Note Name: D5
Note ON: Time 496800, Note Name: C#5, Velocity: 75
Note OFF: Time 496900, Note Name: C#5
Note ON: Time 496920, Note Name: C5, Velocity: 75
Note OFF: Time 497020, Note Name: C5
Note ON: Time 497040, Note Name: G5, Velocity: 73
Note ON: Time 497040, Note Name: C6, Velocity: 87
Note ON: Time 497040, Note Name: D#5, Velocity: 73
Note OFF: Time 497140, Note Name: D#5
Note OFF: Time 497140, Note Name: C6
Note OFF: Time 497140, Note Name: G5
Note ON: Time 497160, Note Name: D5, Velocity: 74
Note OFF: Time 497260, Note Name: D5
Note ON: Time 497280, Note Name: C#5, Velocity: 76
Note OFF: Time 497380, Note Name: C#5
Note ON: Time 497400, Note Name: C5, Velocity: 76
Note OFF: Time 497500, Note Name: C5
Note ON: Time 497520, Note Name: D#5, Velocity: 73
Note ON: Time 497520, Note Name: F#5, Velocity: 73
Note ON: Time 497520, Note Name: C6, Velocity: 87
Note OFF: Time 497620, Note Name: C6
Note OFF: Time 497620, Note Name: F#5
Note OFF: Time 497620, Note Name: D#5
Note ON: Time 497640, Note Name: D5, Velocity: 76
Note OFF: Time 497740, Note Name: D5
Note ON: Time 497760, Note Name: C#5, Velocity: 76
Note OFF: Time 497860, Note Name: C#5
Note ON: Time 497880, Note Name: C5, Velocity: 76
Note OFF: Time 497980, Note Name: C5
Note ON: Time 498000, Note Name: D5, Velocity: 73
Note ON: Time 498000, Note Name: F#5, Velocity: 73
Note ON: Time 498000, Note Name: A5, Velocity: 87
Note OFF: Time 498100, Note Name: A5
Note OFF: Time 498100, Note Name: F#5
Note OFF: Time 498100, Note Name: D5
Note ON: Time 498120, Note Name: C5, Velocity: 76
Note OFF: Time 498220, Note Name: C5
Note ON: Time 498240, Note Name: G5, Velocity: 73
Note ON: Time 498240, Note Name: A#5, Velocity: 87
Note ON: Time 498240, Note Name: A#4, Velocity: 73
Note ON: Time 498240, Note Name: D5, Velocity: 73
Note OFF: Time 498480, Note Name: D5
Note OFF: Time 498480, Note Name: G5
Note OFF: Time 498480, Note Name: A#5
Note OFF: Time 498480, Note Name: A#4
Note ON: Time 498480, Note Name: D6, Velocity: 73
Note ON: Time 498480, Note Name: A#6, Velocity: 87
Note ON: Time 498480, Note Name: G6, Velocity: 73
Note OFF: Time 498580, Note Name: G6
Note OFF: Time 498580, Note Name: A#6
Note OFF: Time 498580, Note Name: D6
Note ON: Time 498600, Note Name: A5, Velocity: 76
Note OFF: Time 498700, Note Name: A5
Note ON: Time 498840, Note Name: A#5, Velocity: 67
Note ON: Time 498840, Note Name: G6, Velocity: 79
Note ON: Time 498840, Note Name: D6, Velocity: 67
Note OFF: Time 498940, Note Name: D6
Note OFF: Time 498940, Note Name: G6
Note OFF: Time 498940, Note Name: A#5
Note ON: Time 498960, Note Name: G6, Velocity: 87
Note ON: Time 498960, Note Name: A#5, Velocity: 73
Note ON: Time 498960, Note Name: D6, Velocity: 73
Note OFF: Time 499060, Note Name: D6
Note OFF: Time 499060, Note Name: A#5
Note OFF: Time 499060, Note Name: G6
Note ON: Time 499080, Note Name: F#5, Velocity: 75
Note OFF: Time 499180, Note Name: F#5
Note ON: Time 499320, Note Name: G5, Velocity: 67
Note ON: Time 499320, Note Name: A#5, Velocity: 67
Note ON: Time 499320, Note Name: D6, Velocity: 79
Note OFF: Time 499420, Note Name: D6
Note OFF: Time 499420, Note Name: A#5
Note OFF: Time 499420, Note Name: G5
Note ON: Time 499440, Note Name: G5, Velocity: 73
Note ON: Time 499440, Note Name: A#5, Velocity: 73
Note ON: Time 499440, Note Name: D6, Velocity: 87
Note OFF: Time 499540, Note Name: D6
Note OFF: Time 499540, Note Name: A#5
Note OFF: Time 499540, Note Name: G5
Note ON: Time 499560, Note Name: C#5, Velocity: 78
Note OFF: Time 499660, Note Name: C#5
Note ON: Time 499800, Note Name: A#5, Velocity: 78
Note ON: Time 499800, Note Name: G5, Velocity: 66
Note ON: Time 499800, Note Name: D5, Velocity: 66
Note OFF: Time 499900, Note Name: D5
Note OFF: Time 499900, Note Name: G5
Note OFF: Time 499900, Note Name: A#5
Note ON: Time 499920, Note Name: D5, Velocity: 73
Note ON: Time 499920, Note Name: G5, Velocity: 73
Note ON: Time 499920, Note Name: A#5, Velocity: 87
Note OFF: Time 500020, Note Name: A#5
Note OFF: Time 500020, Note Name: G5
Note OFF: Time 500020, Note Name: D5
Note ON: Time 500040, Note Name: A#4, Velocity: 75
Note OFF: Time 500140, Note Name: A#4
Note ON: Time 500280, Note Name: G5, Velocity: 66
Note ON: Time 500280, Note Name: D#5, Velocity: 66
Note ON: Time 500280, Note Name: C6, Velocity: 78
Note OFF: Time 500380, Note Name: C6
Note OFF: Time 500380, Note Name: D#5
Note OFF: Time 500380, Note Name: G5
Note ON: Time 500400, Note Name: C6, Velocity: 87
Note ON: Time 500400, Note Name: G5, Velocity: 73
Note ON: Time 500400, Note Name: D#5, Velocity: 73
Note OFF: Time 500500, Note Name: D#5
Note OFF: Time 500500, Note Name: G5
Note OFF: Time 500500, Note Name: C6
Note ON: Time 500520, Note Name: D5, Velocity: 75
Note OFF: Time 500620, Note Name: D5
Note ON: Time 500640, Note Name: C#5, Velocity: 75
Note OFF: Time 500740, Note Name: C#5
Note ON: Time 500760, Note Name: C5, Velocity: 75
Note OFF: Time 500860, Note Name: C5
Note ON: Time 500880, Note Name: D#5, Velocity: 73
Note ON: Time 500880, Note Name: G5, Velocity: 73
Note ON: Time 500880, Note Name: C6, Velocity: 87
Note OFF: Time 500980, Note Name: C6
Note OFF: Time 500980, Note Name: G5
Note OFF: Time 500980, Note Name: D#5
Note ON: Time 501000, Note Name: D5, Velocity: 74
Note OFF: Time 501100, Note Name: D5
Note ON: Time 501120, Note Name: C#5, Velocity: 76
Note OFF: Time 501220, Note Name: C#5
Note ON: Time 501240, Note Name: C5, Velocity: 76
Note OFF: Time 501340, Note Name: C5
Note ON: Time 501360, Note Name: C6, Velocity: 87
Note ON: Time 501360, Note Name: F#5, Velocity: 73
Note ON: Time 501360, Note Name: D#5, Velocity: 73
Note OFF: Time 501460, Note Name: D#5
Note OFF: Time 501460, Note Name: F#5
Note OFF: Time 501460, Note Name: C6
Note ON: Time 501480, Note Name: D5, Velocity: 76
Note OFF: Time 501580, Note Name: D5
Note ON: Time 501600, Note Name: C#5, Velocity: 76
Note OFF: Time 501700, Note Name: C#5
Note ON: Time 501720, Note Name: C5, Velocity: 76
Note OFF: Time 501820, Note Name: C5
Note ON: Time 501840, Note Name: A5, Velocity: 87
Note ON: Time 501840, Note Name: F#5, Velocity: 73
Note ON: Time 501840, Note Name: D5, Velocity: 73
Note OFF: Time 501940, Note Name: D5
Note OFF: Time 501940, Note Name: F#5
Note OFF: Time 501940, Note Name: A5
Note ON: Time 501960, Note Name: C5, Velocity: 76
Note OFF: Time 502060, Note Name: C5
Note ON: Time 502080, Note Name: D5, Velocity: 73
Note ON: Time 502080, Note Name: A#4, Velocity: 73
Note ON: Time 502080, Note Name: G5, Velocity: 73
Note ON: Time 502080, Note Name: A#5, Velocity: 87
Note OFF: Time 502320, Note Name: A#5
Note OFF: Time 502320, Note Name: D5
Note OFF: Time 502320, Note Name: A#4
Note OFF: Time 502320, Note Name: G5
Note ON: Time 502320, Note Name: G#5, Velocity: 70
Note OFF: Time 502440, Note Name: G#5
Note ON: Time 502440, Note Name: G#6, Velocity: 72
Note ON: Time 502440, Note Name: D#6, Velocity: 60
Note OFF: Time 502560, Note Name: D#6
Note OFF: Time 502560, Note Name: G#6
Note ON: Time 502560, Note Name: G#5, Velocity: 72
Note OFF: Time 502680, Note Name: G#5
Note ON: Time 502680, Note Name: D#5, Velocity: 63
Note ON: Time 502680, Note Name: G#5, Velocity: 75
Note OFF: Time 502800, Note Name: G#5
Note OFF: Time 502800, Note Name: D#5
Note ON: Time 502800, Note Name: G4, Velocity: 77
Note ON: Time 502920, Note Name: G5, Velocity: 77
Note ON: Time 502920, Note Name: D#5, Velocity: 65
Note OFF: Time 503040, Note Name: D#5
Note OFF: Time 503040, Note Name: G5
Note OFF: Time 503040, Note Name: G4
Note ON: Time 503040, Note Name: F#4, Velocity: 87
Note ON: Time 503160, Note Name: A4, Velocity: 65
Note ON: Time 503160, Note Name: F#5, Velocity: 77
Note OFF: Time 503280, Note Name: F#5
Note OFF: Time 503280, Note Name: A4
Note OFF: Time 503280, Note Name: F#4
Note ON: Time 503280, Note Name: F#5, Velocity: 77
Note OFF: Time 503400, Note Name: F#5
Note ON: Time 503400, Note Name: F#6, Velocity: 77
Note ON: Time 503400, Note Name: A5, Velocity: 65
Note OFF: Time 503520, Note Name: A5
Note OFF: Time 503520, Note Name: F#6
Note ON: Time 503520, Note Name: G5, Velocity: 87
Note ON: Time 503640, Note Name: G6, Velocity: 75
Note ON: Time 503640, Note Name: A#5, Velocity: 64
Note OFF: Time 503760, Note Name: A#5
Note OFF: Time 503760, Note Name: G6
Note OFF: Time 503760, Note Name: G5
Note ON: Time 503760, Note Name: G5, Velocity: 75
Note OFF: Time 503880, Note Name: G5
Note ON: Time 503880, Note Name: A#4, Velocity: 64
Note ON: Time 503880, Note Name: G5, Velocity: 75
Note OFF: Time 504000, Note Name: G5
Note OFF: Time 504000, Note Name: A#4
Note ON: Time 504000, Note Name: G#4, Velocity: 77
Note ON: Time 504120, Note Name: G#5, Velocity: 72
Note ON: Time 504120, Note Name: D#5, Velocity: 60
Note OFF: Time 504240, Note Name: D#5
Note OFF: Time 504240, Note Name: G#5
Note OFF: Time 504240, Note Name: G#4
Note ON: Time 504240, Note Name: G#5, Velocity: 74
Note ON: Time 504360, Note Name: D#6, Velocity: 65
Note ON: Time 504360, Note Name: G#6, Velocity: 76
Note OFF: Time 504480, Note Name: G#6
Note OFF: Time 504480, Note Name: D#6
Note OFF: Time 504480, Note Name: G#5
Note ON: Time 504480, Note Name: G#5, Velocity: 76
Note OFF: Time 504600, Note Name: G#5
Note ON: Time 504600, Note Name: G#5, Velocity: 78
Note ON: Time 504600, Note Name: D#5, Velocity: 65
Note OFF: Time 504720, Note Name: D#5
Note OFF: Time 504720, Note Name: G#5
Note ON: Time 504720, Note Name: G4, Velocity: 77
Note ON: Time 504840, Note Name: G5, Velocity: 77
Note ON: Time 504840, Note Name: D#5, Velocity: 65
Note OFF: Time 504960, Note Name: D#5
Note OFF: Time 504960, Note Name: G5
Note OFF: Time 504960, Note Name: G4
Note ON: Time 504960, Note Name: F#4, Velocity: 87
Note ON: Time 505080, Note Name: F#5, Velocity: 77
Note ON: Time 505080, Note Name: A4, Velocity: 65
Note OFF: Time 505200, Note Name: A4
Note OFF: Time 505200, Note Name: F#5
Note OFF: Time 505200, Note Name: F#4
Note ON: Time 505200, Note Name: F#5, Velocity: 77
Note OFF: Time 505320, Note Name: F#5
Note ON: Time 505320, Note Name: A5, Velocity: 65
Note ON: Time 505320, Note Name: F#6, Velocity: 77
Note OFF: Time 505440, Note Name: F#6
Note OFF: Time 505440, Note Name: A5
Note ON: Time 505440, Note Name: G5, Velocity: 87
Note ON: Time 505560, Note Name: G6, Velocity: 75
Note ON: Time 505560, Note Name: A#5, Velocity: 64
Note OFF: Time 505680, Note Name: A#5
Note OFF: Time 505680, Note Name: G6
Note OFF: Time 505680, Note Name: G5
Note ON: Time 505680, Note Name: G5, Velocity: 75
Note OFF: Time 505800, Note Name: G5
Note ON: Time 505800, Note Name: A#4, Velocity: 64
Note ON: Time 505800, Note Name: G5, Velocity: 75
Note OFF: Time 505920, Note Name: G5
Note OFF: Time 505920, Note Name: A#4
Note ON: Time 505920, Note Name: F4, Velocity: 77
Note ON: Time 506040, Note Name: F5, Velocity: 71
Note ON: Time 506040, Note Name: G#4, Velocity: 59
Note OFF: Time 506160, Note Name: G#4
Note OFF: Time 506160, Note Name: F5
Note OFF: Time 506160, Note Name: F4
Note ON: Time 506160, Note Name: F5, Velocity: 70
Note OFF: Time 506280, Note Name: F5
Note ON: Time 506280, Note Name: G#5, Velocity: 59
Note ON: Time 506280, Note Name: F6, Velocity: 71
Note OFF: Time 506400, Note Name: F6
Note OFF: Time 506400, Note Name: G#5
Note ON: Time 506400, Note Name: F5, Velocity: 68
Note OFF: Time 506520, Note Name: F5
Note ON: Time 506520, Note Name: G#4, Velocity: 66
Note ON: Time 506520, Note Name: D#5, Velocity: 77
Note OFF: Time 506640, Note Name: D#5
Note OFF: Time 506640, Note Name: G#4
Note ON: Time 506640, Note Name: D#4, Velocity: 69
Note ON: Time 506760, Note Name: G#4, Velocity: 57
Note ON: Time 506760, Note Name: D#5, Velocity: 69
Note OFF: Time 506880, Note Name: D#5
Note OFF: Time 506880, Note Name: G#4
Note OFF: Time 506880, Note Name: D#4
Note ON: Time 506880, Note Name: D4, Velocity: 77
Note ON: Time 507000, Note Name: G#4, Velocity: 57
Note ON: Time 507000, Note Name: D5, Velocity: 69
Note OFF: Time 507120, Note Name: D5
Note OFF: Time 507120, Note Name: G#4
Note OFF: Time 507120, Note Name: D4
Note ON: Time 507120, Note Name: D5, Velocity: 69
Note OFF: Time 507240, Note Name: D5
Note ON: Time 507240, Note Name: D6, Velocity: 69
Note ON: Time 507240, Note Name: G#5, Velocity: 57
Note OFF: Time 507360, Note Name: G#5
Note OFF: Time 507360, Note Name: D6
Note ON: Time 507360, Note Name: D5, Velocity: 77
Note OFF: Time 507480, Note Name: D5
Note ON: Time 507480, Note Name: C5, Velocity: 67
Note ON: Time 507480, Note Name: G#4, Velocity: 56
Note OFF: Time 507600, Note Name: G#4
Note OFF: Time 507600, Note Name: C5
Note ON: Time 507600, Note Name: C4, Velocity: 67
Note OFF: Time 507720, Note Name: C4
Note ON: Time 507720, Note Name: G#4, Velocity: 56
Note ON: Time 507720, Note Name: C5, Velocity: 67
Note OFF: Time 507840, Note Name: C5
Note OFF: Time 507840, Note Name: G#4
Note ON: Time 507840, Note Name: C4, Velocity: 77
Note ON: Time 507960, Note Name: C5, Velocity: 69
Note ON: Time 507960, Note Name: D#4, Velocity: 57
Note OFF: Time 508080, Note Name: D#4
Note OFF: Time 508080, Note Name: C5
Note OFF: Time 508080, Note Name: C4
Note ON: Time 508080, Note Name: C5, Velocity: 69
Note ON: Time 508200, Note Name: C6, Velocity: 69
Note ON: Time 508200, Note Name: D#5, Velocity: 57
Note OFF: Time 508320, Note Name: D#5
Note OFF: Time 508320, Note Name: C6
Note OFF: Time 508320, Note Name: C5
Note ON: Time 508320, Note Name: C5, Velocity: 77
Note ON: Time 508440, Note Name: D#5, Velocity: 56
Note ON: Time 508440, Note Name: C6, Velocity: 67
Note OFF: Time 508560, Note Name: C6
Note OFF: Time 508560, Note Name: D#5
Note OFF: Time 508560, Note Name: C5
Note ON: Time 508560, Note Name: A#4, Velocity: 67
Note ON: Time 508680, Note Name: D5, Velocity: 56
Note ON: Time 508680, Note Name: A#5, Velocity: 67
Note OFF: Time 508800, Note Name: A#5
Note OFF: Time 508800, Note Name: D5
Note OFF: Time 508800, Note Name: A#4
Note ON: Time 508800, Note Name: A#4, Velocity: 77
Note ON: Time 508920, Note Name: A#5, Velocity: 69
Note ON: Time 508920, Note Name: D5, Velocity: 57
Note OFF: Time 509040, Note Name: D5
Note OFF: Time 509040, Note Name: A#5
Note OFF: Time 509040, Note Name: A#4
Note ON: Time 509040, Note Name: A4, Velocity: 69
Note ON: Time 509160, Note Name: C5, Velocity: 57
Note ON: Time 509160, Note Name: A5, Velocity: 69
Note OFF: Time 509280, Note Name: A5
Note OFF: Time 509280, Note Name: C5
Note OFF: Time 509280, Note Name: A4
Note ON: Time 509280, Note Name: G4, Velocity: 77
Note ON: Time 509400, Note Name: G5, Velocity: 67
Note ON: Time 509400, Note Name: A#4, Velocity: 56
Note OFF: Time 509520, Note Name: A#4
Note OFF: Time 509520, Note Name: G5
Note OFF: Time 509520, Note Name: G4
Note ON: Time 509520, Note Name: F#4, Velocity: 67
Note ON: Time 509640, Note Name: A4, Velocity: 56
Note ON: Time 509640, Note Name: F#5, Velocity: 67
Note OFF: Time 509760, Note Name: F#5
Note OFF: Time 509760, Note Name: A4
Note OFF: Time 509760, Note Name: F#4
Note ON: Time 509760, Note Name: G5, Velocity: 87
Note ON: Time 509760, Note Name: G4, Velocity: 73
Note ON: Time 509760, Note Name: A#4, Velocity: 73
Note OFF: Time 509880, Note Name: A#4
Note OFF: Time 509880, Note Name: G4
Note OFF: Time 509880, Note Name: G5
Note ON: Time 510000, Note Name: G#5, Velocity: 70
Note ON: Time 510120, Note Name: G#6, Velocity: 72
Note ON: Time 510120, Note Name: D#6, Velocity: 60
Note OFF: Time 510240, Note Name: D#6
Note OFF: Time 510240, Note Name: G#6
Note OFF: Time 510240, Note Name: G#5
Note ON: Time 510240, Note Name: G#5, Velocity: 72
Note OFF: Time 510360, Note Name: G#5
Note ON: Time 510360, Note Name: D#5, Velocity: 63
Note ON: Time 510360, Note Name: G#5, Velocity: 75
Note OFF: Time 510480, Note Name: G#5
Note OFF: Time 510480, Note Name: D#5
Note ON: Time 510480, Note Name: G4, Velocity: 77
Note ON: Time 510600, Note Name: D#5, Velocity: 65
Note ON: Time 510600, Note Name: G5, Velocity: 77
Note OFF: Time 510720, Note Name: G5
Note OFF: Time 510720, Note Name: D#5
Note OFF: Time 510720, Note Name: G4
Note ON: Time 510720, Note Name: F#4, Velocity: 87
Note ON: Time 510840, Note Name: F#5, Velocity: 77
Note ON: Time 510840, Note Name: A4, Velocity: 65
Note OFF: Time 510960, Note Name: A4
Note OFF: Time 510960, Note Name: F#5
Note OFF: Time 510960, Note Name: F#4
Note ON: Time 510960, Note Name: F#5, Velocity: 77
Note OFF: Time 511080, Note Name: F#5
Note ON: Time 511080, Note Name: F#6, Velocity: 77
Note ON: Time 511080, Note Name: A5, Velocity: 65
Note OFF: Time 511200, Note Name: A5
Note OFF: Time 511200, Note Name: F#6
Note ON: Time 511200, Note Name: G5, Velocity: 87
Note ON: Time 511320, Note Name: A#5, Velocity: 64
Note ON: Time 511320, Note Name: G6, Velocity: 75
Note OFF: Time 511440, Note Name: G6
Note OFF: Time 511440, Note Name: A#5
Note OFF: Time 511440, Note Name: G5
Note ON: Time 511440, Note Name: G5, Velocity: 75
Note OFF: Time 511560, Note Name: G5
Note ON: Time 511560, Note Name: A#4, Velocity: 64
Note ON: Time 511560, Note Name: G5, Velocity: 75
Note OFF: Time 511680, Note Name: G5
Note OFF: Time 511680, Note Name: A#4
Note ON: Time 511680, Note Name: G#4, Velocity: 77
Note ON: Time 511800, Note Name: D#5, Velocity: 60
Note ON: Time 511800, Note Name: G#5, Velocity: 72
Note OFF: Time 511920, Note Name: G#5
Note OFF: Time 511920, Note Name: D#5
Note OFF: Time 511920, Note Name: G#4
Note ON: Time 511920, Note Name: G#5, Velocity: 74
Note ON: Time 512040, Note Name: G#6, Velocity: 76
Note ON: Time 512040, Note Name: D#6, Velocity: 65
Note OFF: Time 512160, Note Name: D#6
Note OFF: Time 512160, Note Name: G#6
Note OFF: Time 512160, Note Name: G#5
Note ON: Time 512160, Note Name: G#5, Velocity: 76
Note OFF: Time 512280, Note Name: G#5
Note ON: Time 512280, Note Name: D#5, Velocity: 65
Note ON: Time 512280, Note Name: G#5, Velocity: 78
Note OFF: Time 512400, Note Name: G#5
Note OFF: Time 512400, Note Name: D#5
Note ON: Time 512400, Note Name: G4, Velocity: 77
Note ON: Time 512520, Note Name: G5, Velocity: 77
Note ON: Time 512520, Note Name: C5, Velocity: 65
Note OFF: Time 512640, Note Name: C5
Note OFF: Time 512640, Note Name: G5
Note OFF: Time 512640, Note Name: G4
Note ON: Time 512640, Note Name: F#4, Velocity: 87
Note ON: Time 512760, Note Name: A4, Velocity: 65
Note ON: Time 512760, Note Name: F#5, Velocity: 77
Note OFF: Time 512880, Note Name: F#5
Note OFF: Time 512880, Note Name: A4
Note OFF: Time 512880, Note Name: F#4
Note ON: Time 512880, Note Name: F#5, Velocity: 77
Note OFF: Time 513000, Note Name: F#5
Note ON: Time 513000, Note Name: A5, Velocity: 65
Note ON: Time 513000, Note Name: F#6, Velocity: 77
Note OFF: Time 513120, Note Name: F#6
Note OFF: Time 513120, Note Name: A5
Note ON: Time 513120, Note Name: G5, Velocity: 87
Note ON: Time 513240, Note Name: G6, Velocity: 75
Note ON: Time 513240, Note Name: A#5, Velocity: 64
Note OFF: Time 513360, Note Name: A#5
Note OFF: Time 513360, Note Name: G6
Note OFF: Time 513360, Note Name: G5
Note ON: Time 513360, Note Name: G5, Velocity: 75
Note OFF: Time 513480, Note Name: G5
Note ON: Time 513480, Note Name: A#4, Velocity: 64
Note ON: Time 513480, Note Name: G5, Velocity: 75
Note OFF: Time 513600, Note Name: G5
Note OFF: Time 513600, Note Name: A#4
Note ON: Time 513600, Note Name: F4, Velocity: 77
Note ON: Time 513720, Note Name: G#4, Velocity: 59
Note ON: Time 513720, Note Name: F5, Velocity: 71
Note OFF: Time 513840, Note Name: F5
Note OFF: Time 513840, Note Name: G#4
Note OFF: Time 513840, Note Name: F4
Note ON: Time 513840, Note Name: F5, Velocity: 70
Note OFF: Time 513960, Note Name: F5
Note ON: Time 513960, Note Name: G#5, Velocity: 59
Note ON: Time 513960, Note Name: F6, Velocity: 71
Note OFF: Time 514080, Note Name: F6
Note OFF: Time 514080, Note Name: G#5
Note ON: Time 514080, Note Name: F5, Velocity: 68
Note OFF: Time 514200, Note Name: F5
Note ON: Time 514200, Note Name: G4, Velocity: 66
Note ON: Time 514200, Note Name: D#5, Velocity: 77
Note OFF: Time 514320, Note Name: D#5
Note OFF: Time 514320, Note Name: G4
Note ON: Time 514320, Note Name: D#4, Velocity: 69
Note ON: Time 514440, Note Name: G4, Velocity: 57
Note ON: Time 514440, Note Name: D#5, Velocity: 69
Note OFF: Time 514560, Note Name: D#5
Note OFF: Time 514560, Note Name: G4
Note OFF: Time 514560, Note Name: D#4
Note ON: Time 514560, Note Name: D4, Velocity: 77
Note ON: Time 514680, Note Name: F#4, Velocity: 59
Note ON: Time 514680, Note Name: D5, Velocity: 71
Note OFF: Time 514800, Note Name: D5
Note OFF: Time 514800, Note Name: F#4
Note OFF: Time 514800, Note Name: D4
Note ON: Time 514800, Note Name: D5, Velocity: 70
Note OFF: Time 514920, Note Name: D5
Note ON: Time 514920, Note Name: F#5, Velocity: 59
Note ON: Time 514920, Note Name: D6, Velocity: 71
Note OFF: Time 515040, Note Name: D6
Note OFF: Time 515040, Note Name: F#5
Note ON: Time 515040, Note Name: D5, Velocity: 68
Note OFF: Time 515160, Note Name: D5
Note ON: Time 515160, Note Name: C#5, Velocity: 77
Note ON: Time 515160, Note Name: E4, Velocity: 66
Note OFF: Time 515280, Note Name: E4
Note OFF: Time 515280, Note Name: C#5
Note ON: Time 515280, Note Name: C#4, Velocity: 69
Note ON: Time 515400, Note Name: C#5, Velocity: 69
Note ON: Time 515400, Note Name: E4, Velocity: 57
Note OFF: Time 515520, Note Name: E4
Note OFF: Time 515520, Note Name: C#5
Note OFF: Time 515520, Note Name: C#4
Note ON: Time 515520, Note Name: C4, Velocity: 77
Note ON: Time 515640, Note Name: D#4, Velocity: 59
Note ON: Time 515640, Note Name: C5, Velocity: 71
Note OFF: Time 515760, Note Name: C5
Note OFF: Time 515760, Note Name: D#4
Note OFF: Time 515760, Note Name: C4
Note ON: Time 515760, Note Name: C5, Velocity: 70
Note ON: Time 515880, Note Name: D#5, Velocity: 59
Note ON: Time 515880, Note Name: C6, Velocity: 71
Note OFF: Time 516000, Note Name: C6
Note OFF: Time 516000, Note Name: D#5
Note OFF: Time 516000, Note Name: C5
Note ON: Time 516000, Note Name: B4, Velocity: 68
Note ON: Time 516120, Note Name: B5, Velocity: 73
Note ON: Time 516120, Note Name: D#5, Velocity: 64
Note OFF: Time 516240, Note Name: D#5
Note OFF: Time 516240, Note Name: B5
Note OFF: Time 516240, Note Name: B4
Note ON: Time 516240, Note Name: C5, Velocity: 70
Note ON: Time 516360, Note Name: C6, Velocity: 70
Note ON: Time 516360, Note Name: D#5, Velocity: 58
Note OFF: Time 516480, Note Name: D#5
Note OFF: Time 516480, Note Name: C6
Note OFF: Time 516480, Note Name: C5
Note ON: Time 516480, Note Name: C5, Velocity: 79
Note ON: Time 516600, Note Name: C6, Velocity: 73
Note ON: Time 516600, Note Name: D#5, Velocity: 61
Note OFF: Time 516720, Note Name: D#5
Note OFF: Time 516720, Note Name: C6
Note OFF: Time 516720, Note Name: C5
Note ON: Time 516720, Note Name: D#5, Velocity: 72
Note ON: Time 516840, Note Name: F#5, Velocity: 61
Note ON: Time 516840, Note Name: D#6, Velocity: 74
Note OFF: Time 516960, Note Name: D#6
Note OFF: Time 516960, Note Name: F#5
Note OFF: Time 516960, Note Name: D#5
Note ON: Time 516960, Note Name: D5, Velocity: 71
Note ON: Time 517080, Note Name: F#5, Velocity: 69
Note ON: Time 517080, Note Name: D6, Velocity: 81
Note OFF: Time 517200, Note Name: D6
Note OFF: Time 517200, Note Name: F#5
Note OFF: Time 517200, Note Name: D5
Note ON: Time 517200, Note Name: D#5, Velocity: 72
Note ON: Time 517320, Note Name: F#5, Velocity: 60
Note ON: Time 517320, Note Name: D#6, Velocity: 73
Note OFF: Time 517440, Note Name: D#6
Note OFF: Time 517440, Note Name: F#5
Note OFF: Time 517440, Note Name: D#5
Note ON: Time 517440, Note Name: D#5, Velocity: 82
Note ON: Time 517560, Note Name: F#5, Velocity: 63
Note ON: Time 517560, Note Name: D#6, Velocity: 75
Note OFF: Time 517680, Note Name: D#6
Note OFF: Time 517680, Note Name: F#5
Note OFF: Time 517680, Note Name: D#5
Note ON: Time 517680, Note Name: F#5, Velocity: 75
Note ON: Time 517800, Note Name: A#5, Velocity: 64
Note ON: Time 517800, Note Name: F#6, Velocity: 76
Note OFF: Time 517920, Note Name: F#6
Note OFF: Time 517920, Note Name: A#5
Note OFF: Time 517920, Note Name: F#5
Note ON: Time 517920, Note Name: F5, Velocity: 73
Note ON: Time 518040, Note Name: F6, Velocity: 84
Note ON: Time 518040, Note Name: G#5, Velocity: 71
Note OFF: Time 518160, Note Name: G#5
Note OFF: Time 518160, Note Name: F6
Note OFF: Time 518160, Note Name: F5
Note ON: Time 518160, Note Name: F#5, Velocity: 75
Note ON: Time 518280, Note Name: F#6, Velocity: 75
Note ON: Time 518280, Note Name: A5, Velocity: 63
Note OFF: Time 518400, Note Name: A5
Note OFF: Time 518400, Note Name: F#6
Note OFF: Time 518400, Note Name: F#5
Note ON: Time 518400, Note Name: F#5, Velocity: 86
Note ON: Time 518520, Note Name: A5, Velocity: 66
Note ON: Time 518520, Note Name: F#6, Velocity: 78
Note OFF: Time 518640, Note Name: F#6
Note OFF: Time 518640, Note Name: A5
Note OFF: Time 518640, Note Name: F#5
Note ON: Time 518640, Note Name: A5, Velocity: 78
Note ON: Time 518760, Note Name: A6, Velocity: 79
Note ON: Time 518760, Note Name: C6, Velocity: 66
Note OFF: Time 518880, Note Name: C6
Note OFF: Time 518880, Note Name: A6
Note OFF: Time 518880, Note Name: A5
Note ON: Time 518880, Note Name: A#5, Velocity: 76
Note ON: Time 519000, Note Name: A#6, Velocity: 87
Note ON: Time 519000, Note Name: D6, Velocity: 74
Note OFF: Time 519120, Note Name: D6
Note OFF: Time 519120, Note Name: A#6
Note OFF: Time 519120, Note Name: A#5
Note ON: Time 519120, Note Name: C6, Velocity: 78
Note ON: Time 519240, Note Name: C7, Velocity: 78
Note ON: Time 519240, Note Name: D#6, Velocity: 65
Note OFF: Time 519360, Note Name: D#6
Note OFF: Time 519360, Note Name: C7
Note OFF: Time 519360, Note Name: C6
Note ON: Time 519360, Note Name: C6, Velocity: 89
Note ON: Time 519480, Note Name: D#6, Velocity: 68
Note ON: Time 519480, Note Name: C7, Velocity: 81
Note OFF: Time 519600, Note Name: C7
Note OFF: Time 519600, Note Name: D#6
Note OFF: Time 519600, Note Name: C6
Note ON: Time 519600, Note Name: A#5, Velocity: 80
Note ON: Time 519720, Note Name: D6, Velocity: 68
Note ON: Time 519720, Note Name: A#6, Velocity: 81
Note OFF: Time 519840, Note Name: A#6
Note OFF: Time 519840, Note Name: D6
Note OFF: Time 519840, Note Name: A#5
Note ON: Time 519840, Note Name: A#5, Velocity: 77
Note ON: Time 519960, Note Name: D6, Velocity: 75
Note ON: Time 519960, Note Name: A#6, Velocity: 89
Note OFF: Time 520080, Note Name: A#6
Note OFF: Time 520080, Note Name: D6
Note OFF: Time 520080, Note Name: A#5
Note ON: Time 520080, Note Name: A5, Velocity: 78
Note ON: Time 520200, Note Name: A6, Velocity: 78
Note ON: Time 520200, Note Name: C6, Velocity: 66
Note OFF: Time 520320, Note Name: C6
Note OFF: Time 520320, Note Name: A6
Note OFF: Time 520320, Note Name: A5
Note ON: Time 520320, Note Name: A5, Velocity: 89
Note ON: Time 520440, Note Name: A6, Velocity: 81
Note ON: Time 520440, Note Name: C6, Velocity: 68
Note OFF: Time 520560, Note Name: C6
Note OFF: Time 520560, Note Name: A6
Note OFF: Time 520560, Note Name: A5
Note ON: Time 520560, Note Name: G5, Velocity: 80
Note ON: Time 520680, Note Name: A#5, Velocity: 68
Note ON: Time 520680, Note Name: G6, Velocity: 81
Note OFF: Time 520800, Note Name: G6
Note OFF: Time 520800, Note Name: A#5
Note OFF: Time 520800, Note Name: G5
Note ON: Time 520800, Note Name: G5, Velocity: 77
Note ON: Time 520920, Note Name: A#5, Velocity: 75
Note ON: Time 520920, Note Name: G6, Velocity: 89
Note OFF: Time 521040, Note Name: G6
Note OFF: Time 521040, Note Name: A#5
Note OFF: Time 521040, Note Name: G5
Note ON: Time 521040, Note Name: D5, Velocity: 78
Note ON: Time 521160, Note Name: F#5, Velocity: 66
Note ON: Time 521160, Note Name: D6, Velocity: 78
Note OFF: Time 521280, Note Name: D6
Note OFF: Time 521280, Note Name: F#5
Note OFF: Time 521280, Note Name: D5
Note ON: Time 521400, Note Name: A#5, Velocity: 77
Note OFF: Time 521520, Note Name: A#5
Note ON: Time 521520, Note Name: D6, Velocity: 71
Note ON: Time 521520, Note Name: A#6, Velocity: 84
Note OFF: Time 521640, Note Name: A#6
Note OFF: Time 521640, Note Name: D6
Note ON: Time 521640, Note Name: A#5, Velocity: 80
Note OFF: Time 521760, Note Name: A#5
Note ON: Time 521760, Note Name: A#6, Velocity: 82
Note ON: Time 521760, Note Name: C#6, Velocity: 70
Note OFF: Time 521880, Note Name: C#6
Note OFF: Time 521880, Note Name: A#6
Note ON: Time 521880, Note Name: A#5, Velocity: 79
Note OFF: Time 522000, Note Name: A#5
Note ON: Time 522000, Note Name: A6, Velocity: 85
Note ON: Time 522000, Note Name: C6, Velocity: 72
Note OFF: Time 522120, Note Name: C6
Note OFF: Time 522120, Note Name: A6
Note ON: Time 522120, Note Name: A5, Velocity: 81
Note OFF: Time 522240, Note Name: A5
Note ON: Time 522240, Note Name: A6, Velocity: 88
Note ON: Time 522240, Note Name: C6, Velocity: 74
Note OFF: Time 522360, Note Name: C6
Note OFF: Time 522360, Note Name: A6
Note ON: Time 522360, Note Name: A5, Velocity: 79
Note OFF: Time 522480, Note Name: A5
Note ON: Time 522480, Note Name: A#5, Velocity: 74
Note ON: Time 522480, Note Name: G6, Velocity: 87
Note OFF: Time 522600, Note Name: G6
Note OFF: Time 522600, Note Name: A#5
Note ON: Time 522600, Note Name: G5, Velocity: 80
Note OFF: Time 522720, Note Name: G5
Note ON: Time 522720, Note Name: A#5, Velocity: 75
Note ON: Time 522720, Note Name: G6, Velocity: 89
Note OFF: Time 522840, Note Name: G6
Note OFF: Time 522840, Note Name: A#5
Note ON: Time 522840, Note Name: G5, Velocity: 79
Note OFF: Time 522960, Note Name: G5
Note ON: Time 522960, Note Name: D6, Velocity: 89
Note ON: Time 522960, Note Name: F#5, Velocity: 75
Note OFF: Time 523080, Note Name: F#5
Note OFF: Time 523080, Note Name: D6
Note ON: Time 523080, Note Name: D5, Velocity: 81
Note OFF: Time 523200, Note Name: D5
Note ON: Time 523320, Note Name: D6, Velocity: 87
Note OFF: Time 523440, Note Name: D6
Note ON: Time 523440, Note Name: G6, Velocity: 80
Note ON: Time 523440, Note Name: A#6, Velocity: 80
Note ON: Time 523440, Note Name: D7, Velocity: 95
Note OFF: Time 523560, Note Name: D7
Note OFF: Time 523560, Note Name: A#6
Note OFF: Time 523560, Note Name: G6
Note ON: Time 523560, Note Name: D6, Velocity: 86
Note OFF: Time 523680, Note Name: D6
Note ON: Time 523920, Note Name: D6, Velocity: 88
Note ON: Time 523920, Note Name: A#5, Velocity: 74
Note ON: Time 523920, Note Name: G5, Velocity: 74
Note OFF: Time 524040, Note Name: G5
Note OFF: Time 524040, Note Name: A#5
Note OFF: Time 524040, Note Name: D6
Note ON: Time 524040, Note Name: D5, Velocity: 78
Note OFF: Time 524160, Note Name: D5
Note ON: Time 524400, Note Name: G4, Velocity: 70
Note ON: Time 524400, Note Name: A#4, Velocity: 70
Note ON: Time 524400, Note Name: D5, Velocity: 82
Note OFF: Time 524520, Note Name: D5
Note OFF: Time 524520, Note Name: A#4
Note OFF: Time 524520, Note Name: G4
Note ON: Time 524520, Note Name: D4, Velocity: 76
Note OFF: Time 524640, Note Name: D4
Note ON: Time 524880, Note Name: A#3, Velocity: 70
Note ON: Time 524880, Note Name: D4, Velocity: 82
Note ON: Time 524880, Note Name: G3, Velocity: 70
Note OFF: Time 525000, Note Name: G3
Note OFF: Time 525000, Note Name: D4
Note OFF: Time 525000, Note Name: A#3
Note ON: Time 525000, Note Name: D3, Velocity: 64
Note OFF: Time 525120, Note Name: D3
Note ON: Time 525360, Note Name: E4, Velocity: 90
Note ON: Time 525360, Note Name: A#3, Velocity: 75
Note ON: Time 525360, Note Name: G3, Velocity: 75
Note OFF: Time 525480, Note Name: G3
Note OFF: Time 525480, Note Name: A#3
Note OFF: Time 525480, Note Name: E4
Note ON: Time 525480, Note Name: D3, Velocity: 77
Note OFF: Time 525600, Note Name: D3
Note ON: Time 525840, Note Name: G3, Velocity: 75
Note ON: Time 525840, Note Name: A#3, Velocity: 75
Note ON: Time 525840, Note Name: E4, Velocity: 90
Note OFF: Time 525960, Note Name: E4
Note OFF: Time 525960, Note Name: A#3
Note OFF: Time 525960, Note Name: G3
Note ON: Time 525960, Note Name: D3, Velocity: 81
Note OFF: Time 526080, Note Name: D3
Note ON: Time 526320, Note Name: A#3, Velocity: 75
Note ON: Time 526320, Note Name: G3, Velocity: 75
Note ON: Time 526320, Note Name: E4, Velocity: 90
Note OFF: Time 526440, Note Name: E4
Note OFF: Time 526440, Note Name: G3
Note OFF: Time 526440, Note Name: A#3
Note ON: Time 526440, Note Name: D3, Velocity: 77
Note OFF: Time 526560, Note Name: D3
Note ON: Time 526800, Note Name: A#3, Velocity: 75
Note ON: Time 526800, Note Name: G3, Velocity: 75
Note ON: Time 526800, Note Name: E4, Velocity: 90
Note OFF: Time 526920, Note Name: E4
Note OFF: Time 526920, Note Name: G3
Note OFF: Time 526920, Note Name: A#3
Note ON: Time 526920, Note Name: D3, Velocity: 81
Note OFF: Time 527040, Note Name: D3
Note ON: Time 527520, Note Name: G3, Velocity: 54
Note OFF: Time 527600, Note Name: G3
Note ON: Time 527600, Note Name: G#3, Velocity: 54
Note OFF: Time 527680, Note Name: G#3
Note ON: Time 527680, Note Name: A3, Velocity: 55
Note OFF: Time 527760, Note Name: A3
Note ON: Time 527760, Note Name: A#3, Velocity: 55
Note OFF: Time 527840, Note Name: A#3
Note ON: Time 527840, Note Name: B3, Velocity: 56
Note OFF: Time 527920, Note Name: B3
Note ON: Time 527920, Note Name: C4, Velocity: 56
Note OFF: Time 528000, Note Name: C4
Note ON: Time 528000, Note Name: C#4, Velocity: 56
Note OFF: Time 528080, Note Name: C#4
Note ON: Time 528080, Note Name: D4, Velocity: 57
Note OFF: Time 528160, Note Name: D4
Note ON: Time 528160, Note Name: D#4, Velocity: 57
Note OFF: Time 528240, Note Name: D#4
Note ON: Time 528240, Note Name: E4, Velocity: 58
Note OFF: Time 528320, Note Name: E4
Note ON: Time 528320, Note Name: F4, Velocity: 58
Note OFF: Time 528400, Note Name: F4
Note ON: Time 528400, Note Name: F#4, Velocity: 58
Note OFF: Time 528480, Note Name: F#4
Note ON: Time 528480, Note Name: G4, Velocity: 59
Note OFF: Time 528560, Note Name: G4
Note ON: Time 528560, Note Name: G#4, Velocity: 59
Note OFF: Time 528640, Note Name: G#4
Note ON: Time 528640, Note Name: A4, Velocity: 60
Note OFF: Time 528720, Note Name: A4
Note ON: Time 528720, Note Name: A#4, Velocity: 60
Note OFF: Time 528800, Note Name: A#4
Note ON: Time 528800, Note Name: B4, Velocity: 60
Note OFF: Time 528880, Note Name: B4
Note ON: Time 528880, Note Name: C5, Velocity: 61
Note OFF: Time 528960, Note Name: C5
Note ON: Time 528960, Note Name: C#5, Velocity: 61
Note OFF: Time 529040, Note Name: C#5
Note ON: Time 529040, Note Name: D5, Velocity: 63
Note OFF: Time 529120, Note Name: D5
Note ON: Time 529120, Note Name: D#5, Velocity: 63
Note OFF: Time 529200, Note Name: D#5
Note ON: Time 529200, Note Name: E5, Velocity: 64
Note OFF: Time 529280, Note Name: E5
Note ON: Time 529280, Note Name: F5, Velocity: 64
Note OFF: Time 529360, Note Name: F5
Note ON: Time 529360, Note Name: F#5, Velocity: 64
Note OFF: Time 529440, Note Name: F#5
Note ON: Time 529440, Note Name: G5, Velocity: 65
Note OFF: Time 529520, Note Name: G5
Note ON: Time 529520, Note Name: G#5, Velocity: 65
Note OFF: Time 529600, Note Name: G#5
Note ON: Time 529600, Note Name: A5, Velocity: 66
Note OFF: Time 529680, Note Name: A5
Note ON: Time 529680, Note Name: A#5, Velocity: 66
Note OFF: Time 529760, Note Name: A#5
Note ON: Time 529760, Note Name: B5, Velocity: 66
Note OFF: Time 529840, Note Name: B5
Note ON: Time 529840, Note Name: C6, Velocity: 67
Note OFF: Time 529920, Note Name: C6
Note ON: Time 529920, Note Name: C#6, Velocity: 67
Note OFF: Time 530000, Note Name: C#6
Note ON: Time 530000, Note Name: D6, Velocity: 68
Note OFF: Time 530080, Note Name: D6
Note ON: Time 530080, Note Name: D#6, Velocity: 68
Note OFF: Time 530160, Note Name: D#6
Note ON: Time 530160, Note Name: E6, Velocity: 68
Note OFF: Time 530240, Note Name: E6
Note ON: Time 530240, Note Name: F6, Velocity: 69
Note OFF: Time 530320, Note Name: F6
Note ON: Time 530320, Note Name: F#6, Velocity: 69
Note OFF: Time 530400, Note Name: F#6
Note ON: Time 530400, Note Name: G6, Velocity: 70
Note OFF: Time 530480, Note Name: G6
Note ON: Time 530480, Note Name: G#6, Velocity: 70
Note OFF: Time 530560, Note Name: G#6
Note ON: Time 530560, Note Name: A6, Velocity: 70
Note OFF: Time 530640, Note Name: A6
Note ON: Time 530640, Note Name: A#6, Velocity: 71
Note OFF: Time 530720, Note Name: A#6
Note ON: Time 530720, Note Name: B6, Velocity: 71
Note OFF: Time 530800, Note Name: B6
Note ON: Time 530800, Note Name: C#7, Velocity: 72
Note OFF: Time 530880, Note Name: C#7
Note ON: Time 530880, Note Name: D#7, Velocity: 88
Note OFF: Time 531000, Note Name: D#7
Note ON: Time 531000, Note Name: D7, Velocity: 80
Note OFF: Time 531120, Note Name: D7
Note ON: Time 531120, Note Name: F7, Velocity: 80
Note OFF: Time 531240, Note Name: F7
Note ON: Time 531240, Note Name: D#7, Velocity: 81
Note OFF: Time 531360, Note Name: D#7
Note ON: Time 531360, Note Name: D7, Velocity: 79
Note OFF: Time 531480, Note Name: D7
Note ON: Time 531480, Note Name: C7, Velocity: 79
Note OFF: Time 531600, Note Name: C7
Note ON: Time 531600, Note Name: B6, Velocity: 79
Note OFF: Time 531720, Note Name: B6
Note ON: Time 531720, Note Name: D7, Velocity: 79
Note OFF: Time 531840, Note Name: D7
Note ON: Time 531840, Note Name: C7, Velocity: 79
Note OFF: Time 531960, Note Name: C7
Note ON: Time 531960, Note Name: A#6, Velocity: 79
Note OFF: Time 532080, Note Name: A#6
Note ON: Time 532080, Note Name: A6, Velocity: 79
Note OFF: Time 532200, Note Name: A6
Note ON: Time 532200, Note Name: G6, Velocity: 79
Note OFF: Time 532320, Note Name: G6
Note ON: Time 532320, Note Name: F#6, Velocity: 79
Note OFF: Time 532440, Note Name: F#6
Note ON: Time 532440, Note Name: A6, Velocity: 79
Note OFF: Time 532560, Note Name: A6
Note ON: Time 532560, Note Name: G6, Velocity: 79
Note OFF: Time 532680, Note Name: G6
Note ON: Time 532680, Note Name: F#6, Velocity: 84
Note OFF: Time 532800, Note Name: F#6
Note ON: Time 532800, Note Name: D#6, Velocity: 80
Note OFF: Time 532920, Note Name: D#6
Note ON: Time 532920, Note Name: D6, Velocity: 80
Note OFF: Time 533040, Note Name: D6
Note ON: Time 533040, Note Name: D#6, Velocity: 80
Note OFF: Time 533160, Note Name: D#6
Note ON: Time 533160, Note Name: D6, Velocity: 79
Note OFF: Time 533280, Note Name: D6
Note ON: Time 533280, Note Name: F6, Velocity: 79
Note OFF: Time 533400, Note Name: F6
Note ON: Time 533400, Note Name: D#6, Velocity: 79
Note OFF: Time 533520, Note Name: D#6
Note ON: Time 533520, Note Name: D6, Velocity: 78
Note OFF: Time 533640, Note Name: D6
Note ON: Time 533640, Note Name: C6, Velocity: 77
Note OFF: Time 533760, Note Name: C6
Note ON: Time 533760, Note Name: B5, Velocity: 77
Note OFF: Time 533880, Note Name: B5
Note ON: Time 533880, Note Name: D6, Velocity: 76
Note OFF: Time 534000, Note Name: D6
Note ON: Time 534000, Note Name: C6, Velocity: 76
Note OFF: Time 534120, Note Name: C6
Note ON: Time 534120, Note Name: A#5, Velocity: 75
Note OFF: Time 534240, Note Name: A#5
Note ON: Time 534240, Note Name: A5, Velocity: 75
Note OFF: Time 534360, Note Name: A5
Note ON: Time 534360, Note Name: G5, Velocity: 75
Note OFF: Time 534480, Note Name: G5
Note ON: Time 534480, Note Name: F#5, Velocity: 75
Note OFF: Time 534600, Note Name: F#5
Note ON: Time 534600, Note Name: A5, Velocity: 75
Note OFF: Time 534720, Note Name: A5
Note ON: Time 534720, Note Name: G5, Velocity: 75
Note OFF: Time 534840, Note Name: G5
Note ON: Time 534840, Note Name: F#5, Velocity: 75
Note OFF: Time 534960, Note Name: F#5
Note ON: Time 534960, Note Name: D#5, Velocity: 75
Note OFF: Time 535080, Note Name: D#5
Note ON: Time 535080, Note Name: D5, Velocity: 75
Note OFF: Time 535200, Note Name: D5
Note ON: Time 535200, Note Name: D#5, Velocity: 74
Note OFF: Time 535320, Note Name: D#5
Note ON: Time 535320, Note Name: D5, Velocity: 74
Note OFF: Time 535440, Note Name: D5
Note ON: Time 535440, Note Name: F5, Velocity: 74
Note OFF: Time 535560, Note Name: F5
Note ON: Time 535560, Note Name: D#5, Velocity: 74
Note OFF: Time 535680, Note Name: D#5
Note ON: Time 535680, Note Name: D5, Velocity: 74
Note OFF: Time 535800, Note Name: D5
Note ON: Time 535800, Note Name: C5, Velocity: 74
Note OFF: Time 535920, Note Name: C5
Note ON: Time 535920, Note Name: B4, Velocity: 74
Note OFF: Time 536040, Note Name: B4
Note ON: Time 536040, Note Name: D5, Velocity: 73
Note OFF: Time 536160, Note Name: D5
Note ON: Time 536160, Note Name: C5, Velocity: 73
Note OFF: Time 536280, Note Name: C5
Note ON: Time 536280, Note Name: A#4, Velocity: 73
Note OFF: Time 536400, Note Name: A#4
Note ON: Time 536400, Note Name: A4, Velocity: 73
Note OFF: Time 536520, Note Name: A4
Note ON: Time 536520, Note Name: G4, Velocity: 73
Note OFF: Time 536640, Note Name: G4
Note ON: Time 536640, Note Name: F#4, Velocity: 74
Note OFF: Time 536760, Note Name: F#4
Note ON: Time 536760, Note Name: D#4, Velocity: 75
Note OFF: Time 536880, Note Name: D#4
Note ON: Time 536880, Note Name: D4, Velocity: 76
Note OFF: Time 537000, Note Name: D4
Note ON: Time 537000, Note Name: C4, Velocity: 76
Note OFF: Time 537120, Note Name: C4
Note ON: Time 537120, Note Name: A#3, Velocity: 76
Note OFF: Time 537240, Note Name: A#3
Note ON: Time 537240, Note Name: A3, Velocity: 79
Note OFF: Time 537360, Note Name: A3
Note ON: Time 537360, Note Name: G3, Velocity: 81
Note OFF: Time 537480, Note Name: G3
Note ON: Time 537480, Note Name: F#3, Velocity: 83
Note OFF: Time 537600, Note Name: F#3
Note ON: Time 537600, Note Name: D#3, Velocity: 84
Note OFF: Time 537720, Note Name: D#3
Note ON: Time 537720, Note Name: D3, Velocity: 84
Note OFF: Time 537840, Note Name: D3
Note ON: Time 537840, Note Name: C3, Velocity: 85
Note OFF: Time 537960, Note Name: C3
Note ON: Time 537960, Note Name: A#2, Velocity: 86
Note OFF: Time 538080, Note Name: A#2
Note ON: Time 538080, Note Name: A2, Velocity: 88
Note OFF: Time 538200, Note Name: A2
Note ON: Time 538200, Note Name: G2, Velocity: 89
Note OFF: Time 538320, Note Name: G2
Note ON: Time 538320, Note Name: F#2, Velocity: 91
Note OFF: Time 538440, Note Name: F#2
Note ON: Time 538440, Note Name: D#2, Velocity: 93
Note OFF: Time 538560, Note Name: D#2
Note ON: Time 538560, Note Name: D2, Velocity: 94
Note OFF: Time 538680, Note Name: D2
Note ON: Time 538680, Note Name: C2, Velocity: 94
Note OFF: Time 538800, Note Name: C2
Note ON: Time 538800, Note Name: A#1, Velocity: 95
Note OFF: Time 538920, Note Name: A#1
Note ON: Time 538920, Note Name: A1, Velocity: 97
Note OFF: Time 539040, Note Name: A1
Note ON: Time 540120, Note Name: A2, Velocity: 75
Note OFF: Time 540240, Note Name: A2
Note ON: Time 540240, Note Name: A#2, Velocity: 75
Note OFF: Time 540360, Note Name: A#2
Note ON: Time 540360, Note Name: C3, Velocity: 76
Note OFF: Time 540480, Note Name: C3
Note ON: Time 540480, Note Name: D3, Velocity: 77
Note OFF: Time 540600, Note Name: D3
Note ON: Time 540600, Note Name: E3, Velocity: 77
Note OFF: Time 540720, Note Name: E3
Note ON: Time 540720, Note Name: F#3, Velocity: 78
Note OFF: Time 540840, Note Name: F#3
Note ON: Time 540840, Note Name: G3, Velocity: 78
Note OFF: Time 540960, Note Name: G3
Note ON: Time 540960, Note Name: A3, Velocity: 79
Note OFF: Time 541080, Note Name: A3
Note ON: Time 541080, Note Name: A#3, Velocity: 80
Note OFF: Time 541200, Note Name: A#3
Note ON: Time 541200, Note Name: C4, Velocity: 80
Note OFF: Time 541320, Note Name: C4
Note ON: Time 541320, Note Name: D4, Velocity: 81
Note OFF: Time 541440, Note Name: D4
Note ON: Time 541440, Note Name: E4, Velocity: 81
Note OFF: Time 541560, Note Name: E4
Note ON: Time 541560, Note Name: F#4, Velocity: 82
Note OFF: Time 541680, Note Name: F#4
Note ON: Time 541680, Note Name: G4, Velocity: 83
Note OFF: Time 541800, Note Name: G4
Note ON: Time 541800, Note Name: A4, Velocity: 83
Note OFF: Time 541920, Note Name: A4
Note ON: Time 541920, Note Name: A#4, Velocity: 84
Note OFF: Time 542040, Note Name: A#4
Note ON: Time 542040, Note Name: C5, Velocity: 84
Note OFF: Time 542160, Note Name: C5
Note ON: Time 542160, Note Name: D5, Velocity: 85
Note OFF: Time 542280, Note Name: D5
Note ON: Time 542280, Note Name: E5, Velocity: 86
Note OFF: Time 542400, Note Name: E5
Note ON: Time 542400, Note Name: F#5, Velocity: 86
Note OFF: Time 542520, Note Name: F#5
Note ON: Time 542520, Note Name: G5, Velocity: 89
Note OFF: Time 542640, Note Name: G5
Note ON: Time 544920, Note Name: A#2, Velocity: 85
Note OFF: Time 545520, Note Name: A#2
Note ON: Time 545520, Note Name: C3, Velocity: 71
Note OFF: Time 545640, Note Name: C3
Note ON: Time 545640, Note Name: D3, Velocity: 71
Note OFF: Time 545760, Note Name: D3
Note ON: Time 545760, Note Name: E3, Velocity: 71
Note OFF: Time 545880, Note Name: E3
Note ON: Time 545880, Note Name: F#3, Velocity: 72
Note OFF: Time 546000, Note Name: F#3
Note ON: Time 546000, Note Name: G3, Velocity: 72
Note OFF: Time 546120, Note Name: G3
Note ON: Time 546120, Note Name: A3, Velocity: 72
Note OFF: Time 546240, Note Name: A3
Note ON: Time 546240, Note Name: A#3, Velocity: 73
Note OFF: Time 546360, Note Name: A#3
Note ON: Time 546360, Note Name: C4, Velocity: 73
Note OFF: Time 546480, Note Name: C4
Note ON: Time 546480, Note Name: D4, Velocity: 73
Note OFF: Time 546600, Note Name: D4
Note ON: Time 546600, Note Name: E4, Velocity: 74
Note OFF: Time 546720, Note Name: E4
Note ON: Time 546720, Note Name: F#4, Velocity: 74
Note OFF: Time 546840, Note Name: F#4
Note ON: Time 546840, Note Name: G4, Velocity: 74
Note OFF: Time 546960, Note Name: G4
Note ON: Time 546960, Note Name: A4, Velocity: 75
Note OFF: Time 547080, Note Name: A4
Note ON: Time 547080, Note Name: A#4, Velocity: 75
Note OFF: Time 547200, Note Name: A#4
Note ON: Time 547200, Note Name: C5, Velocity: 75
Note OFF: Time 547320, Note Name: C5
Note ON: Time 547320, Note Name: D5, Velocity: 76
Note OFF: Time 547440, Note Name: D5
Note ON: Time 547440, Note Name: E5, Velocity: 76
Note OFF: Time 547560, Note Name: E5
Note ON: Time 547560, Note Name: F#5, Velocity: 76
Note OFF: Time 547680, Note Name: F#5
Note ON: Time 547680, Note Name: G5, Velocity: 77
Note OFF: Time 547800, Note Name: G5
Note ON: Time 547800, Note Name: A5, Velocity: 77
Note OFF: Time 547920, Note Name: A5
Note ON: Time 547920, Note Name: A#5, Velocity: 77
Note OFF: Time 548040, Note Name: A#5
Note ON: Time 548040, Note Name: C6, Velocity: 78
Note OFF: Time 548160, Note Name: C6
Note ON: Time 548160, Note Name: D6, Velocity: 78
Note OFF: Time 548280, Note Name: D6
Note ON: Time 548280, Note Name: E6, Velocity: 78
Note OFF: Time 548400, Note Name: E6
Note ON: Time 548400, Note Name: F#6, Velocity: 79
Note OFF: Time 548520, Note Name: F#6
Note ON: Time 548520, Note Name: G6, Velocity: 79
Note OFF: Time 548640, Note Name: G6
Note ON: Time 548640, Note Name: A6, Velocity: 79
Note OFF: Time 548760, Note Name: A6
Note ON: Time 548760, Note Name: A#6, Velocity: 87
Note OFF: Time 548880, Note Name: A#6
Note ON: Time 549240, Note Name: D3, Velocity: 37
Note ON: Time 549240, Note Name: D4, Velocity: 45
Note ON: Time 549240, Note Name: A#3, Velocity: 37
Note ON: Time 549240, Note Name: G3, Velocity: 37
Note OFF: Time 549600, Note Name: G3
Note OFF: Time 549600, Note Name: D3
Note OFF: Time 549600, Note Name: D4
Note OFF: Time 549600, Note Name: A#3
Note ON: Time 549600, Note Name: D3, Velocity: 37
Note ON: Time 549600, Note Name: D4, Velocity: 45
Note ON: Time 549600, Note Name: A#3, Velocity: 37
Note ON: Time 549600, Note Name: G3, Velocity: 37
Note OFF: Time 549720, Note Name: G3
Note OFF: Time 549720, Note Name: D3
Note OFF: Time 549720, Note Name: D4
Note OFF: Time 549720, Note Name: A#3
Note ON: Time 549720, Note Name: G3, Velocity: 37
Note ON: Time 549720, Note Name: D3, Velocity: 37
Note ON: Time 549720, Note Name: A#3, Velocity: 37
Note ON: Time 549720, Note Name: D4, Velocity: 45
Note OFF: Time 550200, Note Name: D4
Note OFF: Time 550200, Note Name: G3
Note OFF: Time 550200, Note Name: D3
Note OFF: Time 550200, Note Name: A#3
Note ON: Time 550280, Note Name: D4, Velocity: 94
Note OFF: Time 550360, Note Name: D4
Note ON: Time 550360, Note Name: G4, Velocity: 94
Note OFF: Time 550440, Note Name: G4
Note ON: Time 550440, Note Name: A#4, Velocity: 99
Note OFF: Time 550520, Note Name: A#4
Note ON: Time 550520, Note Name: D#5, Velocity: 100
Note OFF: Time 550600, Note Name: D#5
Note ON: Time 550600, Note Name: D5, Velocity: 94
Note OFF: Time 550670, Note Name: D5
Note ON: Time 550680, Note Name: D5, Velocity: 94
Note OFF: Time 550800, Note Name: D5
Note ON: Time 551130, Note Name: E7, Velocity: 104
Note ON: Time 551160, Note Name: E6, Velocity: 109
Note OFF: Time 551260, Note Name: E6
Note OFF: Time 551260, Note Name: E7
Note ON: Time 551290, Note Name: D#7, Velocity: 106
Note ON: Time 551320, Note Name: D#6, Velocity: 108
Note OFF: Time 551420, Note Name: D#6
Note OFF: Time 551420, Note Name: D#7
Note ON: Time 551450, Note Name: D7, Velocity: 104
Note ON: Time 551480, Note Name: D6, Velocity: 107
Note OFF: Time 551580, Note Name: D6
Note OFF: Time 551580, Note Name: D7
Note ON: Time 551610, Note Name: C#7, Velocity: 100
Note ON: Time 551640, Note Name: C#6, Velocity: 106
Note OFF: Time 551740, Note Name: C#6
Note OFF: Time 551740, Note Name: C#7
Note ON: Time 551770, Note Name: C7, Velocity: 102
Note ON: Time 551800, Note Name: C6, Velocity: 103
Note OFF: Time 551900, Note Name: C6
Note OFF: Time 551900, Note Name: C7
Note ON: Time 551930, Note Name: B6, Velocity: 103
Note ON: Time 551960, Note Name: B5, Velocity: 102
Note OFF: Time 552060, Note Name: B5
Note OFF: Time 552060, Note Name: B6
Note ON: Time 552090, Note Name: A#6, Velocity: 102
Note ON: Time 552120, Note Name: A#5, Velocity: 101
Note OFF: Time 552220, Note Name: A#5
Note OFF: Time 552220, Note Name: A#6
Note ON: Time 552250, Note Name: A6, Velocity: 101
Note ON: Time 552280, Note Name: A5, Velocity: 100
Note OFF: Time 552380, Note Name: A5
Note OFF: Time 552380, Note Name: A6
Note ON: Time 552410, Note Name: G#6, Velocity: 99
Note ON: Time 552440, Note Name: G#5, Velocity: 99
Note OFF: Time 552540, Note Name: G#5
Note OFF: Time 552540, Note Name: G#6
Note ON: Time 552600, Note Name: G5, Velocity: 88
Note ON: Time 552600, Note Name: G6, Velocity: 98
Note OFF: Time 552720, Note Name: G6
Note OFF: Time 552720, Note Name: G5
Note ON: Time 552760, Note Name: F#6, Velocity: 97
Note ON: Time 552760, Note Name: F#5, Velocity: 87
Note OFF: Time 552880, Note Name: F#5
Note OFF: Time 552880, Note Name: F#6
Note ON: Time 552920, Note Name: F6, Velocity: 97
Note ON: Time 552920, Note Name: F5, Velocity: 87
Note OFF: Time 553040, Note Name: F5
Note OFF: Time 553040, Note Name: F6
Note ON: Time 553080, Note Name: E5, Velocity: 86
Note ON: Time 553080, Note Name: E6, Velocity: 96
Note OFF: Time 553200, Note Name: E6
Note OFF: Time 553200, Note Name: E5
Note ON: Time 553240, Note Name: D#6, Velocity: 95
Note ON: Time 553240, Note Name: D#5, Velocity: 85
Note OFF: Time 553360, Note Name: D#5
Note OFF: Time 553360, Note Name: D#6
Note ON: Time 553400, Note Name: D5, Velocity: 84
Note ON: Time 553400, Note Name: D6, Velocity: 94
Note OFF: Time 553520, Note Name: D6
Note OFF: Time 553520, Note Name: D5
Note ON: Time 553560, Note Name: C#6, Velocity: 93
Note ON: Time 553560, Note Name: C#5, Velocity: 83
Note OFF: Time 553680, Note Name: C#5
Note OFF: Time 553680, Note Name: C#6
Note ON: Time 553720, Note Name: C6, Velocity: 91
Note ON: Time 553720, Note Name: C5, Velocity: 81
Note OFF: Time 553840, Note Name: C5
Note OFF: Time 553840, Note Name: C6
Note ON: Time 553880, Note Name: B5, Velocity: 95
Note ON: Time 553880, Note Name: B4, Velocity: 85
Note OFF: Time 554000, Note Name: B4
Note OFF: Time 554000, Note Name: B5
Note ON: Time 554040, Note Name: A#4, Velocity: 89
Note ON: Time 554040, Note Name: A#5, Velocity: 99
Note OFF: Time 554160, Note Name: A#5
Note OFF: Time 554160, Note Name: A#4
Note ON: Time 554200, Note Name: A5, Velocity: 103
Note ON: Time 554200, Note Name: A4, Velocity: 92
Note OFF: Time 554320, Note Name: A4
Note OFF: Time 554320, Note Name: A5
Note ON: Time 554360, Note Name: G#4, Velocity: 97
Note ON: Time 554360, Note Name: G#5, Velocity: 108
Note OFF: Time 554480, Note Name: G#5
Note OFF: Time 554480, Note Name: G#4
Note ON: Time 554520, Note Name: G4, Velocity: 96
Note ON: Time 554520, Note Name: G5, Velocity: 113
Note OFF: Time 555000, Note Name: G5
Note OFF: Time 555000, Note Name: G4
Note ON: Time 555480, Note Name: D6, Velocity: 92
Note ON: Time 555480, Note Name: A#5, Velocity: 92
Note ON: Time 555480, Note Name: G6, Velocity: 108
Note ON: Time 555480, Note Name: A#6, Velocity: 108
Note OFF: Time 556440, Note Name: A#6
Note OFF: Time 556440, Note Name: D6
Note OFF: Time 556440, Note Name: A#5
Note OFF: Time 556440, Note Name: G6
Note ON: Time 556440, Note Name: G3, Velocity: 117
Note OFF: Time 557400, Note Name: G3
Track 2: Piano left
Note ON: Time 1, Note Name: C2, Velocity: 74
Note OFF: Time 1200, Note Name: C2
Note ON: Time 1200, Note Name: D#2, Velocity: 66
Note OFF: Time 1440, Note Name: D#2
Note ON: Time 1440, Note Name: G#2, Velocity: 70
Note OFF: Time 1680, Note Name: G#2
Note ON: Time 1680, Note Name: A#2, Velocity: 64
Note OFF: Time 1920, Note Name: A#2
Note ON: Time 1920, Note Name: C3, Velocity: 70
Note OFF: Time 2160, Note Name: C3
Note ON: Time 2160, Note Name: G#2, Velocity: 63
Note OFF: Time 2400, Note Name: G#2
Note ON: Time 2400, Note Name: D#3, Velocity: 63
Note OFF: Time 2640, Note Name: D#3
Note ON: Time 2640, Note Name: A#3, Velocity: 55
Note OFF: Time 2880, Note Name: A#3
Note ON: Time 2880, Note Name: C4, Velocity: 58
Note OFF: Time 3120, Note Name: C4
Note ON: Time 3120, Note Name: G#3, Velocity: 54
Note OFF: Time 3360, Note Name: G#3
Note ON: Time 3360, Note Name: D#4, Velocity: 62
Note OFF: Time 3600, Note Name: D#4
Note ON: Time 3600, Note Name: A#4, Velocity: 54
Note OFF: Time 3840, Note Name: A#4
Note ON: Time 3840, Note Name: C5, Velocity: 57
Note OFF: Time 4080, Note Name: C5
Note ON: Time 4080, Note Name: G4, Velocity: 48
Note OFF: Time 4320, Note Name: G4
Note ON: Time 4320, Note Name: A#4, Velocity: 53
Note OFF: Time 4560, Note Name: A#4
Note ON: Time 4560, Note Name: G#4, Velocity: 35
Note OFF: Time 4800, Note Name: G#4
Note ON: Time 4800, Note Name: G4, Velocity: 32
Note OFF: Time 5280, Note Name: G4
Note ON: Time 5280, Note Name: F#4, Velocity: 27
Note OFF: Time 5520, Note Name: F#4
Note ON: Time 6000, Note Name: F#4, Velocity: 34
Note OFF: Time 6240, Note Name: F#4
Note ON: Time 6240, Note Name: G4, Velocity: 37
Note OFF: Time 6480, Note Name: G4
Note ON: Time 6480, Note Name: F#4, Velocity: 34
Note OFF: Time 6720, Note Name: F#4
Note ON: Time 6720, Note Name: F4, Velocity: 37
Note OFF: Time 6960, Note Name: F4
Note ON: Time 6960, Note Name: F#4, Velocity: 34
Note OFF: Time 7200, Note Name: F#4
Note ON: Time 7200, Note Name: A4, Velocity: 38
Note OFF: Time 7360, Note Name: A4
Note ON: Time 7360, Note Name: G4, Velocity: 34
Note OFF: Time 7520, Note Name: G4
Note ON: Time 7520, Note Name: D#4, Velocity: 37
Note OFF: Time 7680, Note Name: D#4
Note ON: Time 7680, Note Name: D#4, Velocity: 36
Note OFF: Time 8040, Note Name: D#4
Note ON: Time 8040, Note Name: D4, Velocity: 33
Note OFF: Time 8160, Note Name: D4
Note ON: Time 8160, Note Name: F4, Velocity: 34
Note OFF: Time 8320, Note Name: F4
Note ON: Time 8320, Note Name: D#4, Velocity: 33
Note OFF: Time 8480, Note Name: D#4
Note ON: Time 8480, Note Name: D4, Velocity: 26
Note OFF: Time 8624, Note Name: D4
Note ON: Time 8640, Note Name: D4, Velocity: 24
Note OFF: Time 9120, Note Name: D4
Note ON: Time 10560, Note Name: G3, Velocity: 42
Note ON: Time 10560, Note Name: D#3, Velocity: 42
Note ON: Time 10560, Note Name: C4, Velocity: 42
Note OFF: Time 11520, Note Name: C4
Note OFF: Time 11520, Note Name: D#3
Note OFF: Time 11520, Note Name: G3
Note ON: Time 11520, Note Name: D3, Velocity: 44
Note ON: Time 11640, Note Name: G3, Velocity: 48
Note ON: Time 11760, Note Name: D#4, Velocity: 56
Note OFF: Time 13440, Note Name: D#4
Note OFF: Time 13440, Note Name: G3
Note OFF: Time 13440, Note Name: D3
Note ON: Time 14880, Note Name: D2, Velocity: 46
Note OFF: Time 15120, Note Name: D2
Note ON: Time 16800, Note Name: G2, Velocity: 27
Note OFF: Time 17275, Note Name: G2
Note ON: Time 17280, Note Name: G2, Velocity: 27
Note OFF: Time 17755, Note Name: G2
Note ON: Time 18240, Note Name: A#3, Velocity: 25
Note OFF: Time 18715, Note Name: A#3
Note ON: Time 18720, Note Name: A#3, Velocity: 25
Note OFF: Time 19195, Note Name: A#3
Note ON: Time 19680, Note Name: A3, Velocity: 22
Note OFF: Time 20155, Note Name: A3
Note ON: Time 20160, Note Name: A3, Velocity: 22
Note OFF: Time 20635, Note Name: A3
Note ON: Time 21120, Note Name: D2, Velocity: 46
Note OFF: Time 21360, Note Name: D2
Note ON: Time 21600, Note Name: D2, Velocity: 46
Note OFF: Time 21840, Note Name: D2
Note ON: Time 22560, Note Name: G2, Velocity: 27
Note OFF: Time 23035, Note Name: G2
Note ON: Time 23040, Note Name: G2, Velocity: 27
Note OFF: Time 23515, Note Name: G2
Note ON: Time 24000, Note Name: A2, Velocity: 25
Note OFF: Time 24475, Note Name: A2
Note ON: Time 24480, Note Name: A2, Velocity: 25
Note OFF: Time 24955, Note Name: A2
Note ON: Time 25440, Note Name: D2, Velocity: 19
Note OFF: Time 25915, Note Name: D2
Note ON: Time 25920, Note Name: D2, Velocity: 19
Note OFF: Time 26395, Note Name: D2
Note ON: Time 26880, Note Name: D3, Velocity: 46
Note OFF: Time 27355, Note Name: D3
Note ON: Time 27360, Note Name: D3, Velocity: 46
Note OFF: Time 27835, Note Name: D3
Note ON: Time 28320, Note Name: G2, Velocity: 27
Note OFF: Time 28795, Note Name: G2
Note ON: Time 28800, Note Name: G2, Velocity: 27
Note OFF: Time 29275, Note Name: G2
Note ON: Time 29760, Note Name: E4, Velocity: 25
Note OFF: Time 30235, Note Name: E4
Note ON: Time 30240, Note Name: E4, Velocity: 25
Note OFF: Time 30715, Note Name: E4
Note ON: Time 31200, Note Name: F4, Velocity: 28
Note OFF: Time 31675, Note Name: F4
Note ON: Time 31680, Note Name: F4, Velocity: 28
Note OFF: Time 32155, Note Name: F4
Note ON: Time 32640, Note Name: F2, Velocity: 46
Note OFF: Time 33115, Note Name: F2
Note ON: Time 33120, Note Name: F2, Velocity: 46
Note OFF: Time 33595, Note Name: F2
Note ON: Time 34080, Note Name: A#2, Velocity: 19
Note OFF: Time 34555, Note Name: A#2
Note ON: Time 34560, Note Name: A#2, Velocity: 19
Note OFF: Time 35035, Note Name: A#2
Note ON: Time 35520, Note Name: A#3, Velocity: 21
Note OFF: Time 35995, Note Name: A#3
Note ON: Time 36000, Note Name: A#3, Velocity: 21
Note OFF: Time 36475, Note Name: A#3
Note ON: Time 36960, Note Name: A3, Velocity: 27
Note OFF: Time 37435, Note Name: A3
Note ON: Time 37440, Note Name: A3, Velocity: 27
Note OFF: Time 37915, Note Name: A3
Note ON: Time 38400, Note Name: D2, Velocity: 46
Note OFF: Time 38875, Note Name: D2
Note ON: Time 38880, Note Name: D2, Velocity: 46
Note OFF: Time 39355, Note Name: D2
Note ON: Time 39840, Note Name: G2, Velocity: 27
Note OFF: Time 40315, Note Name: G2
Note ON: Time 40320, Note Name: G2, Velocity: 27
Note OFF: Time 40795, Note Name: G2
Note ON: Time 41280, Note Name: A#3, Velocity: 25
Note OFF: Time 41755, Note Name: A#3
Note ON: Time 41760, Note Name: A#3, Velocity: 25
Note OFF: Time 42235, Note Name: A#3
Note ON: Time 42720, Note Name: A3, Velocity: 22
Note OFF: Time 43195, Note Name: A3
Note ON: Time 43200, Note Name: A3, Velocity: 22
Note OFF: Time 43675, Note Name: A3
Note ON: Time 44160, Note Name: D2, Velocity: 46
Note OFF: Time 44635, Note Name: D2
Note ON: Time 44640, Note Name: D2, Velocity: 46
Note OFF: Time 45115, Note Name: D2
Note ON: Time 45600, Note Name: G2, Velocity: 27
Note OFF: Time 46075, Note Name: G2
Note ON: Time 46080, Note Name: G2, Velocity: 27
Note OFF: Time 46555, Note Name: G2
Note ON: Time 47040, Note Name: A2, Velocity: 21
Note OFF: Time 47515, Note Name: A2
Note ON: Time 47520, Note Name: A2, Velocity: 21
Note OFF: Time 47995, Note Name: A2
Note ON: Time 48480, Note Name: D2, Velocity: 17
Note OFF: Time 48955, Note Name: D2
Note ON: Time 48960, Note Name: D2, Velocity: 17
Note OFF: Time 49435, Note Name: D2
Note ON: Time 49920, Note Name: D3, Velocity: 46
Note OFF: Time 50395, Note Name: D3
Note ON: Time 50400, Note Name: D3, Velocity: 46
Note OFF: Time 50875, Note Name: D3
Note ON: Time 51360, Note Name: G3, Velocity: 27
Note OFF: Time 51835, Note Name: G3
Note ON: Time 51840, Note Name: G3, Velocity: 27
Note OFF: Time 52315, Note Name: G3
Note ON: Time 52800, Note Name: G2, Velocity: 28
Note OFF: Time 53275, Note Name: G2
Note ON: Time 53280, Note Name: G2, Velocity: 28
Note OFF: Time 53755, Note Name: G2
Note ON: Time 54240, Note Name: C3, Velocity: 32
Note ON: Time 54240, Note Name: C2, Velocity: 35
Note OFF: Time 54715, Note Name: C2
Note ON: Time 54720, Note Name: G3, Velocity: 43
Note OFF: Time 55195, Note Name: G3
Note OFF: Time 55200, Note Name: C3
Note ON: Time 55680, Note Name: D3, Velocity: 31
Note ON: Time 55680, Note Name: D2, Velocity: 34
Note OFF: Time 56155, Note Name: D2
Note ON: Time 56160, Note Name: G3, Velocity: 44
Note OFF: Time 56635, Note Name: G3
Note OFF: Time 56640, Note Name: D3
Note ON: Time 57120, Note Name: D#3, Velocity: 33
Note ON: Time 57120, Note Name: D#2, Velocity: 36
Note OFF: Time 57595, Note Name: D#2
Note ON: Time 57600, Note Name: G3, Velocity: 43
Note OFF: Time 58075, Note Name: G3
Note OFF: Time 58080, Note Name: D#3
Note ON: Time 58560, Note Name: D3, Velocity: 28
Note ON: Time 58560, Note Name: D2, Velocity: 31
Note OFF: Time 59035, Note Name: D2
Note ON: Time 59040, Note Name: G3, Velocity: 36
Note OFF: Time 59515, Note Name: G3
Note OFF: Time 59520, Note Name: D3
Note ON: Time 59520, Note Name: B2, Velocity: 52
Note OFF: Time 59760, Note Name: B2
Note ON: Time 59760, Note Name: C3, Velocity: 42
Note OFF: Time 60000, Note Name: C3
Note ON: Time 60000, Note Name: D3, Velocity: 42
Note OFF: Time 60240, Note Name: D3
Note ON: Time 60240, Note Name: C3, Velocity: 42
Note OFF: Time 60480, Note Name: C3
Note ON: Time 60480, Note Name: G3, Velocity: 51
Note OFF: Time 60960, Note Name: G3
Note ON: Time 60960, Note Name: C#3, Velocity: 53
Note OFF: Time 61200, Note Name: C#3
Note ON: Time 61200, Note Name: D3, Velocity: 43
Note OFF: Time 61440, Note Name: D3
Note ON: Time 61440, Note Name: D#3, Velocity: 47
Note OFF: Time 61680, Note Name: D#3
Note ON: Time 61680, Note Name: D3, Velocity: 42
Note OFF: Time 61920, Note Name: D3
Note ON: Time 61920, Note Name: G3, Velocity: 52
Note OFF: Time 62400, Note Name: G3
Note ON: Time 62400, Note Name: D3, Velocity: 57
Note OFF: Time 62640, Note Name: D3
Note ON: Time 62640, Note Name: D#3, Velocity: 48
Note OFF: Time 62880, Note Name: D#3
Note ON: Time 62880, Note Name: F3, Velocity: 48
Note OFF: Time 63120, Note Name: F3
Note ON: Time 63120, Note Name: D#3, Velocity: 48
Note OFF: Time 63360, Note Name: D#3
Note ON: Time 63360, Note Name: G3, Velocity: 54
Note OFF: Time 63720, Note Name: G3
Note ON: Time 63720, Note Name: D#3, Velocity: 36
Note OFF: Time 63724, Note Name: D#3
Note ON: Time 63760, Note Name: E3, Velocity: 36
Note OFF: Time 63800, Note Name: E3
Note ON: Time 63800, Note Name: F3, Velocity: 35
Note OFF: Time 63840, Note Name: F3
Note ON: Time 63840, Note Name: E3, Velocity: 35
Note OFF: Time 63900, Note Name: E3
Note ON: Time 63900, Note Name: F3, Velocity: 36
Note OFF: Time 63960, Note Name: F3
Note ON: Time 63960, Note Name: E3, Velocity: 36
Note OFF: Time 64020, Note Name: E3
Note ON: Time 64020, Note Name: F3, Velocity: 37
Note OFF: Time 64080, Note Name: F3
Note ON: Time 64080, Note Name: E3, Velocity: 37
Note OFF: Time 64140, Note Name: E3
Note ON: Time 64140, Note Name: F3, Velocity: 38
Note OFF: Time 64200, Note Name: F3
Note ON: Time 64200, Note Name: E3, Velocity: 38
Note OFF: Time 64260, Note Name: E3
Note ON: Time 64260, Note Name: F3, Velocity: 39
Note OFF: Time 64320, Note Name: F3
Note ON: Time 64320, Note Name: E3, Velocity: 39
Note OFF: Time 64380, Note Name: E3
Note ON: Time 64380, Note Name: F3, Velocity: 39
Note OFF: Time 64440, Note Name: F3
Note ON: Time 64440, Note Name: E3, Velocity: 40
Note OFF: Time 64500, Note Name: E3
Note ON: Time 64500, Note Name: F3, Velocity: 40
Note OFF: Time 64560, Note Name: F3
Note ON: Time 64560, Note Name: E3, Velocity: 42
Note OFF: Time 64620, Note Name: E3
Note ON: Time 64620, Note Name: F3, Velocity: 42
Note OFF: Time 64680, Note Name: F3
Note ON: Time 64680, Note Name: E3, Velocity: 43
Note OFF: Time 64740, Note Name: E3
Note ON: Time 64740, Note Name: F3, Velocity: 43
Note OFF: Time 64800, Note Name: F3
Note ON: Time 64800, Note Name: E3, Velocity: 44
Note OFF: Time 64860, Note Name: E3
Note ON: Time 64860, Note Name: F3, Velocity: 44
Note OFF: Time 64920, Note Name: F3
Note ON: Time 64920, Note Name: E3, Velocity: 46
Note OFF: Time 64980, Note Name: E3
Note ON: Time 64980, Note Name: F3, Velocity: 46
Note OFF: Time 65040, Note Name: F3
Note ON: Time 65040, Note Name: E3, Velocity: 47
Note OFF: Time 65100, Note Name: E3
Note ON: Time 65100, Note Name: D#3, Velocity: 47
Note OFF: Time 65190, Note Name: D#3
Note ON: Time 65190, Note Name: E3, Velocity: 48
Note OFF: Time 65280, Note Name: E3
Note ON: Time 65280, Note Name: F3, Velocity: 55
Note OFF: Time 67200, Note Name: F3
Note ON: Time 67200, Note Name: E2, Velocity: 37
Note ON: Time 67200, Note Name: E3, Velocity: 46
Note OFF: Time 67680, Note Name: E3
Note OFF: Time 67680, Note Name: E2
Note ON: Time 67680, Note Name: F2, Velocity: 37
Note ON: Time 67680, Note Name: F3, Velocity: 46
Note OFF: Time 68160, Note Name: F3
Note OFF: Time 68160, Note Name: F2
Note ON: Time 68160, Note Name: F#2, Velocity: 42
Note ON: Time 68160, Note Name: F#3, Velocity: 51
Note OFF: Time 70080, Note Name: F#3
Note OFF: Time 70080, Note Name: F#2
Note ON: Time 70080, Note Name: F2, Velocity: 34
Note ON: Time 70080, Note Name: F3, Velocity: 40
Note OFF: Time 70560, Note Name: F3
Note OFF: Time 70560, Note Name: F2
Note ON: Time 70560, Note Name: F#2, Velocity: 37
Note ON: Time 70560, Note Name: F#3, Velocity: 44
Note OFF: Time 71040, Note Name: F#3
Note OFF: Time 71040, Note Name: F#2
Note ON: Time 71040, Note Name: G2, Velocity: 40
Note ON: Time 71040, Note Name: G3, Velocity: 48
Note OFF: Time 73920, Note Name: G3
Note OFF: Time 73920, Note Name: G2
Note ON: Time 73920, Note Name: D2, Velocity: 32
Note ON: Time 73920, Note Name: D3, Velocity: 38
Note OFF: Time 76800, Note Name: D3
Note OFF: Time 76800, Note Name: D2
Note ON: Time 76800, Note Name: D#2, Velocity: 33
Note ON: Time 76800, Note Name: D#3, Velocity: 39
Note OFF: Time 79680, Note Name: D#3
Note OFF: Time 79680, Note Name: D#2
Note ON: Time 79680, Note Name: C2, Velocity: 39
Note ON: Time 79680, Note Name: C3, Velocity: 39
Note OFF: Time 81120, Note Name: C3
Note OFF: Time 81120, Note Name: C2
Note ON: Time 81120, Note Name: D2, Velocity: 33
Note ON: Time 81120, Note Name: D3, Velocity: 39
Note OFF: Time 82560, Note Name: D3
Note OFF: Time 82560, Note Name: D2
Note ON: Time 82560, Note Name: C#2, Velocity: 33
Note ON: Time 82560, Note Name: C#3, Velocity: 39
Note OFF: Time 83040, Note Name: C#3
Note OFF: Time 83040, Note Name: C#2
Note ON: Time 83040, Note Name: E3, Velocity: 30
Note ON: Time 83040, Note Name: A3, Velocity: 30
Note ON: Time 83040, Note Name: E4, Velocity: 36
Note OFF: Time 83515, Note Name: E4
Note OFF: Time 83515, Note Name: A3
Note OFF: Time 83515, Note Name: E3
Note ON: Time 83520, Note Name: E3, Velocity: 28
Note ON: Time 83520, Note Name: A3, Velocity: 28
Note ON: Time 83520, Note Name: E4, Velocity: 34
Note OFF: Time 83995, Note Name: E4
Note OFF: Time 83995, Note Name: A3
Note OFF: Time 83995, Note Name: E3
Note ON: Time 84000, Note Name: E3, Velocity: 28
Note ON: Time 84000, Note Name: A3, Velocity: 28
Note ON: Time 84000, Note Name: E4, Velocity: 34
Note OFF: Time 84475, Note Name: E4
Note OFF: Time 84475, Note Name: A3
Note OFF: Time 84475, Note Name: E3
Note ON: Time 84480, Note Name: E3, Velocity: 28
Note ON: Time 84480, Note Name: A3, Velocity: 28
Note ON: Time 84480, Note Name: E4, Velocity: 34
Note OFF: Time 84955, Note Name: E4
Note OFF: Time 84955, Note Name: A3
Note OFF: Time 84955, Note Name: E3
Note ON: Time 84960, Note Name: E3, Velocity: 29
Note ON: Time 84960, Note Name: A3, Velocity: 29
Note ON: Time 84960, Note Name: E4, Velocity: 35
Note OFF: Time 85435, Note Name: E4
Note OFF: Time 85435, Note Name: A3
Note OFF: Time 85435, Note Name: E3
Note ON: Time 85440, Note Name: C2, Velocity: 36
Note ON: Time 85440, Note Name: C3, Velocity: 42
Note OFF: Time 85920, Note Name: C3
Note OFF: Time 85920, Note Name: C2
Note ON: Time 85920, Note Name: F3, Velocity: 33
Note ON: Time 85920, Note Name: A3, Velocity: 33
Note ON: Time 85920, Note Name: D#4, Velocity: 33
Note ON: Time 85920, Note Name: F4, Velocity: 39
Note OFF: Time 86395, Note Name: F4
Note OFF: Time 86395, Note Name: F3
Note OFF: Time 86395, Note Name: A3
Note OFF: Time 86395, Note Name: D#4
Note ON: Time 86400, Note Name: F3, Velocity: 33
Note ON: Time 86400, Note Name: A3, Velocity: 33
Note ON: Time 86400, Note Name: D#4, Velocity: 33
Note ON: Time 86400, Note Name: F4, Velocity: 39
Note OFF: Time 86875, Note Name: F4
Note OFF: Time 86875, Note Name: F3
Note OFF: Time 86875, Note Name: A3
Note OFF: Time 86875, Note Name: D#4
Note ON: Time 86880, Note Name: F3, Velocity: 33
Note ON: Time 86880, Note Name: A3, Velocity: 33
Note ON: Time 86880, Note Name: D#4, Velocity: 33
Note ON: Time 86880, Note Name: F4, Velocity: 39
Note OFF: Time 87355, Note Name: F4
Note OFF: Time 87355, Note Name: F3
Note OFF: Time 87355, Note Name: A3
Note OFF: Time 87355, Note Name: D#4
Note ON: Time 87360, Note Name: F3, Velocity: 33
Note ON: Time 87360, Note Name: A3, Velocity: 33
Note ON: Time 87360, Note Name: D#4, Velocity: 33
Note ON: Time 87360, Note Name: F4, Velocity: 39
Note OFF: Time 87835, Note Name: F4
Note OFF: Time 87835, Note Name: F3
Note OFF: Time 87835, Note Name: A3
Note OFF: Time 87835, Note Name: D#4
Note ON: Time 87840, Note Name: F3, Velocity: 33
Note ON: Time 87840, Note Name: A3, Velocity: 33
Note ON: Time 87840, Note Name: D#4, Velocity: 33
Note ON: Time 87840, Note Name: F4, Velocity: 39
Note OFF: Time 88315, Note Name: F4
Note OFF: Time 88315, Note Name: F3
Note OFF: Time 88315, Note Name: A3
Note OFF: Time 88315, Note Name: D#4
Note ON: Time 88320, Note Name: A#1, Velocity: 38
Note ON: Time 88320, Note Name: A#2, Velocity: 45
Note OFF: Time 88800, Note Name: A#2
Note OFF: Time 88800, Note Name: A#1
Note ON: Time 88800, Note Name: D3, Velocity: 31
Note ON: Time 88800, Note Name: F3, Velocity: 31
Note ON: Time 88800, Note Name: A#3, Velocity: 39
Note OFF: Time 89280, Note Name: A#3
Note OFF: Time 89280, Note Name: F3
Note OFF: Time 89280, Note Name: D3
Note ON: Time 89280, Note Name: F3, Velocity: 33
Note ON: Time 89280, Note Name: A#3, Velocity: 33
Note ON: Time 89280, Note Name: D4, Velocity: 39
Note OFF: Time 89760, Note Name: D4
Note OFF: Time 89760, Note Name: A#3
Note OFF: Time 89760, Note Name: F3
Note ON: Time 89760, Note Name: D#2, Velocity: 40
Note OFF: Time 90240, Note Name: D#2
Note ON: Time 90240, Note Name: D#3, Velocity: 31
Note ON: Time 90240, Note Name: G3, Velocity: 31
Note ON: Time 90240, Note Name: C4, Velocity: 37
Note OFF: Time 90720, Note Name: C4
Note OFF: Time 90720, Note Name: G3
Note OFF: Time 90720, Note Name: D#3
Note ON: Time 90720, Note Name: G3, Velocity: 31
Note ON: Time 90720, Note Name: C4, Velocity: 31
Note ON: Time 90720, Note Name: D#4, Velocity: 37
Note OFF: Time 91200, Note Name: D#4
Note OFF: Time 91200, Note Name: C4
Note OFF: Time 91200, Note Name: G3
Note ON: Time 91200, Note Name: D2, Velocity: 42
Note OFF: Time 91680, Note Name: D2
Note ON: Time 91680, Note Name: G3, Velocity: 29
Note ON: Time 91680, Note Name: A#3, Velocity: 29
Note ON: Time 91680, Note Name: D#4, Velocity: 35
Note OFF: Time 92160, Note Name: D#4
Note OFF: Time 92160, Note Name: A#3
Note OFF: Time 92160, Note Name: G3
Note ON: Time 92160, Note Name: D4, Velocity: 35
Note ON: Time 92160, Note Name: A#3, Velocity: 29
Note ON: Time 92160, Note Name: G3, Velocity: 29
Note OFF: Time 92640, Note Name: G3
Note ON: Time 92640, Note Name: D3, Velocity: 39
Note OFF: Time 93120, Note Name: A#3
Note OFF: Time 93120, Note Name: D4
Note ON: Time 93120, Note Name: C#4, Velocity: 35
Note ON: Time 93120, Note Name: A#3, Velocity: 29
Note OFF: Time 93600, Note Name: A#3
Note OFF: Time 93600, Note Name: C#4
Note ON: Time 93600, Note Name: A3, Velocity: 30
Note ON: Time 93600, Note Name: C4, Velocity: 36
Note OFF: Time 94080, Note Name: C4
Note OFF: Time 94080, Note Name: A3
Note OFF: Time 94080, Note Name: D3
Note ON: Time 94080, Note Name: G2, Velocity: 36
Note OFF: Time 94320, Note Name: G2
Note ON: Time 94560, Note Name: F4, Velocity: 28
Note ON: Time 94560, Note Name: A#3, Velocity: 19
Note ON: Time 94560, Note Name: G3, Velocity: 19
Note OFF: Time 95040, Note Name: F4
Note ON: Time 95040, Note Name: D#4, Velocity: 29
Note OFF: Time 95520, Note Name: D#4
Note OFF: Time 95520, Note Name: G3
Note OFF: Time 95520, Note Name: A#3
Note ON: Time 95520, Note Name: F#2, Velocity: 38
Note OFF: Time 95760, Note Name: F#2
Note ON: Time 96000, Note Name: D#4, Velocity: 28
Note ON: Time 96000, Note Name: F#3, Velocity: 19
Note ON: Time 96000, Note Name: A3, Velocity: 19
Note OFF: Time 96480, Note Name: D#4
Note ON: Time 96480, Note Name: D4, Velocity: 29
Note OFF: Time 96960, Note Name: D4
Note OFF: Time 96960, Note Name: A3
Note OFF: Time 96960, Note Name: F#3
Note ON: Time 96960, Note Name: G2, Velocity: 38
Note OFF: Time 97200, Note Name: G2
Note ON: Time 97440, Note Name: F4, Velocity: 30
Note ON: Time 97440, Note Name: A#3, Velocity: 20
Note ON: Time 97440, Note Name: G3, Velocity: 20
Note OFF: Time 97920, Note Name: F4
Note ON: Time 97920, Note Name: D#4, Velocity: 30
Note OFF: Time 98400, Note Name: D#4
Note OFF: Time 98400, Note Name: G3
Note OFF: Time 98400, Note Name: A#3
Note ON: Time 98400, Note Name: F2, Velocity: 40
Note OFF: Time 98640, Note Name: F2
Note ON: Time 98880, Note Name: B3, Velocity: 20
Note ON: Time 98880, Note Name: D#4, Velocity: 30
Note ON: Time 98880, Note Name: F3, Velocity: 20
Note ON: Time 98880, Note Name: G#3, Velocity: 20
Note OFF: Time 99360, Note Name: D#4
Note ON: Time 99360, Note Name: D4, Velocity: 30
Note OFF: Time 99840, Note Name: D4
Note OFF: Time 99840, Note Name: G#3
Note OFF: Time 99840, Note Name: F3
Note OFF: Time 99840, Note Name: B3
Note ON: Time 99840, Note Name: D#2, Velocity: 41
Note OFF: Time 100080, Note Name: D#2
Note ON: Time 100320, Note Name: D4, Velocity: 32
Note ON: Time 100320, Note Name: G3, Velocity: 21
Note ON: Time 100320, Note Name: D#3, Velocity: 21
Note OFF: Time 100800, Note Name: D4
Note ON: Time 100800, Note Name: C4, Velocity: 32
Note OFF: Time 101280, Note Name: C4
Note OFF: Time 101280, Note Name: D#3
Note OFF: Time 101280, Note Name: G3
Note ON: Time 101280, Note Name: C2, Velocity: 42
Note OFF: Time 101520, Note Name: C2
Note ON: Time 101760, Note Name: A#3, Velocity: 31
Note ON: Time 101760, Note Name: D#3, Velocity: 26
Note OFF: Time 102240, Note Name: A#3
Note ON: Time 102240, Note Name: A3, Velocity: 32
Note OFF: Time 102720, Note Name: A3
Note OFF: Time 102720, Note Name: D#3
Note ON: Time 102720, Note Name: D2, Velocity: 43
Note OFF: Time 102960, Note Name: D2
Note ON: Time 103200, Note Name: G3, Velocity: 33
Note ON: Time 103200, Note Name: C4, Velocity: 28
Note ON: Time 103200, Note Name: D3, Velocity: 28
Note OFF: Time 103680, Note Name: G3
Note ON: Time 103680, Note Name: F#3, Velocity: 33
Note OFF: Time 104160, Note Name: F#3
Note OFF: Time 104160, Note Name: D3
Note OFF: Time 104160, Note Name: C4
Note ON: Time 104160, Note Name: D2, Velocity: 44
Note OFF: Time 104400, Note Name: D2
Note ON: Time 104640, Note Name: A3, Velocity: 37
Note OFF: Time 105120, Note Name: A3
Note ON: Time 105120, Note Name: D3, Velocity: 38
Note OFF: Time 105600, Note Name: D3
Note ON: Time 105600, Note Name: G3, Velocity: 59
Note ON: Time 105600, Note Name: G2, Velocity: 59
Note OFF: Time 105840, Note Name: G2
Note OFF: Time 105840, Note Name: G3
Note ON: Time 106080, Note Name: F4, Velocity: 43
Note ON: Time 106080, Note Name: G3, Velocity: 36
Note OFF: Time 106560, Note Name: F4
Note ON: Time 106560, Note Name: A#3, Velocity: 36
Note ON: Time 106560, Note Name: D#4, Velocity: 43
Note OFF: Time 107040, Note Name: D#4
Note OFF: Time 107040, Note Name: A#3
Note OFF: Time 107040, Note Name: G3
Note ON: Time 107040, Note Name: F#3, Velocity: 62
Note ON: Time 107040, Note Name: F#2, Velocity: 62
Note OFF: Time 107280, Note Name: F#2
Note OFF: Time 107280, Note Name: F#3
Note ON: Time 107520, Note Name: D#4, Velocity: 41
Note ON: Time 107520, Note Name: F#3, Velocity: 35
Note OFF: Time 108000, Note Name: D#4
Note ON: Time 108000, Note Name: A3, Velocity: 35
Note ON: Time 108000, Note Name: D4, Velocity: 42
Note OFF: Time 108480, Note Name: D4
Note OFF: Time 108480, Note Name: A3
Note OFF: Time 108480, Note Name: F#3
Note ON: Time 108480, Note Name: G3, Velocity: 61
Note ON: Time 108480, Note Name: G2, Velocity: 61
Note OFF: Time 108720, Note Name: G2
Note OFF: Time 108720, Note Name: G3
Note ON: Time 108960, Note Name: F4, Velocity: 44
Note ON: Time 108960, Note Name: G3, Velocity: 36
Note OFF: Time 109440, Note Name: F4
Note ON: Time 109440, Note Name: A#3, Velocity: 37
Note ON: Time 109440, Note Name: D#4, Velocity: 44
Note OFF: Time 109920, Note Name: D#4
Note OFF: Time 109920, Note Name: A#3
Note OFF: Time 109920, Note Name: G3
Note ON: Time 109920, Note Name: F3, Velocity: 63
Note ON: Time 109920, Note Name: F2, Velocity: 63
Note OFF: Time 110160, Note Name: F2
Note OFF: Time 110160, Note Name: F3
Note ON: Time 110400, Note Name: D#4, Velocity: 43
Note ON: Time 110400, Note Name: F3, Velocity: 36
Note OFF: Time 110880, Note Name: D#4
Note ON: Time 110880, Note Name: G#3, Velocity: 36
Note ON: Time 110880, Note Name: B3, Velocity: 36
Note ON: Time 110880, Note Name: D4, Velocity: 43
Note OFF: Time 111360, Note Name: D4
Note OFF: Time 111360, Note Name: F3
Note OFF: Time 111360, Note Name: G#3
Note OFF: Time 111360, Note Name: B3
Note ON: Time 111360, Note Name: D#3, Velocity: 62
Note ON: Time 111360, Note Name: D#2, Velocity: 62
Note OFF: Time 111600, Note Name: D#2
Note OFF: Time 111600, Note Name: D#3
Note ON: Time 111840, Note Name: D4, Velocity: 45
Note ON: Time 111840, Note Name: D#3, Velocity: 38
Note OFF: Time 112320, Note Name: D4
Note ON: Time 112320, Note Name: G3, Velocity: 38
Note ON: Time 112320, Note Name: C4, Velocity: 45
Note OFF: Time 112800, Note Name: C4
Note OFF: Time 112800, Note Name: G3
Note OFF: Time 112800, Note Name: D#3
Note ON: Time 112800, Note Name: C3, Velocity: 66
Note ON: Time 112800, Note Name: C2, Velocity: 66
Note OFF: Time 113040, Note Name: C2
Note OFF: Time 113040, Note Name: C3
Note ON: Time 113280, Note Name: A#3, Velocity: 44
Note ON: Time 113280, Note Name: C3, Velocity: 37
Note OFF: Time 113760, Note Name: A#3
Note ON: Time 113760, Note Name: D#3, Velocity: 37
Note ON: Time 113760, Note Name: A3, Velocity: 44
Note OFF: Time 114240, Note Name: A3
Note OFF: Time 114240, Note Name: D#3
Note OFF: Time 114240, Note Name: C3
Note ON: Time 114240, Note Name: D2, Velocity: 64
Note OFF: Time 114480, Note Name: D2
Note ON: Time 114720, Note Name: A2, Velocity: 46
Note ON: Time 114720, Note Name: G3, Velocity: 46
Note OFF: Time 115200, Note Name: G3
Note OFF: Time 115200, Note Name: A2
Note ON: Time 115200, Note Name: C3, Velocity: 39
Note ON: Time 115200, Note Name: F#3, Velocity: 47
Note OFF: Time 115680, Note Name: F#3
Note OFF: Time 115680, Note Name: C3
Note ON: Time 115680, Note Name: D2, Velocity: 67
Note OFF: Time 115920, Note Name: D2
Note ON: Time 116160, Note Name: A2, Velocity: 51
Note ON: Time 116160, Note Name: D#3, Velocity: 51
Note OFF: Time 116640, Note Name: D#3
Note OFF: Time 116640, Note Name: A2
Note ON: Time 116640, Note Name: C3, Velocity: 51
Note ON: Time 116640, Note Name: D3, Velocity: 51
Note OFF: Time 117120, Note Name: C3
Note ON: Time 117120, Note Name: G2, Velocity: 51
Note OFF: Time 117360, Note Name: G2
Note OFF: Time 117360, Note Name: D3
Note ON: Time 117360, Note Name: G1, Velocity: 32
Note ON: Time 117360, Note Name: G2, Velocity: 38
Note OFF: Time 117600, Note Name: G2
Note OFF: Time 117600, Note Name: G1
Note ON: Time 117840, Note Name: D3, Velocity: 51
Note ON: Time 117840, Note Name: G2, Velocity: 38
Note OFF: Time 118080, Note Name: G2
Note OFF: Time 118080, Note Name: D3
Note ON: Time 118080, Note Name: G2, Velocity: 32
Note ON: Time 118080, Note Name: D#3, Velocity: 43
Note OFF: Time 118200, Note Name: D#3
Note ON: Time 118200, Note Name: D3, Velocity: 45
Note OFF: Time 118320, Note Name: D3
Note OFF: Time 118560, Note Name: G2
Note ON: Time 118560, Note Name: C3, Velocity: 43
Note ON: Time 118560, Note Name: G2, Velocity: 43
Note ON: Time 118560, Note Name: D#3, Velocity: 51
Note ON: Time 118800, Note Name: A3, Velocity: 49
Note OFF: Time 119520, Note Name: A3
Note OFF: Time 119520, Note Name: C3
Note OFF: Time 119520, Note Name: G2
Note OFF: Time 119520, Note Name: D#3
Note ON: Time 119520, Note Name: G2, Velocity: 43
Note ON: Time 119520, Note Name: G3, Velocity: 51
Note OFF: Time 119760, Note Name: G3
Note OFF: Time 119760, Note Name: G2
Note ON: Time 119760, Note Name: D#4, Velocity: 55
Note ON: Time 119760, Note Name: D#3, Velocity: 46
Note OFF: Time 120000, Note Name: D#3
Note OFF: Time 120000, Note Name: D#4
Note ON: Time 120000, Note Name: D3, Velocity: 46
Note ON: Time 120000, Note Name: D4, Velocity: 51
Note OFF: Time 120120, Note Name: D4
Note OFF: Time 120120, Note Name: D3
Note ON: Time 120240, Note Name: G2, Velocity: 32
Note ON: Time 120240, Note Name: G3, Velocity: 38
Note OFF: Time 120720, Note Name: G3
Note OFF: Time 120720, Note Name: G2
Note ON: Time 120720, Note Name: D4, Velocity: 45
Note ON: Time 120720, Note Name: G3, Velocity: 38
Note OFF: Time 120960, Note Name: G3
Note OFF: Time 120960, Note Name: D4
Note ON: Time 120960, Note Name: G3, Velocity: 32
Note ON: Time 120960, Note Name: D#4, Velocity: 43
Note OFF: Time 121080, Note Name: D#4
Note ON: Time 121080, Note Name: D4, Velocity: 45
Note OFF: Time 121200, Note Name: D4
Note OFF: Time 121440, Note Name: G3
Note ON: Time 121440, Note Name: C4, Velocity: 43
Note ON: Time 121440, Note Name: G3, Velocity: 43
Note ON: Time 121440, Note Name: D#4, Velocity: 51
Note ON: Time 121680, Note Name: A4, Velocity: 49
Note OFF: Time 122400, Note Name: A4
Note OFF: Time 122400, Note Name: C4
Note OFF: Time 122400, Note Name: G3
Note OFF: Time 122400, Note Name: D#4
Note ON: Time 122400, Note Name: G3, Velocity: 43
Note ON: Time 122400, Note Name: G4, Velocity: 51
Note OFF: Time 122640, Note Name: G4
Note OFF: Time 122640, Note Name: G3
Note ON: Time 122640, Note Name: D#5, Velocity: 55
Note ON: Time 122640, Note Name: D#4, Velocity: 46
Note OFF: Time 122880, Note Name: D#4
Note OFF: Time 122880, Note Name: D#5
Note ON: Time 122880, Note Name: G4, Velocity: 55
Note ON: Time 122880, Note Name: D5, Velocity: 55
Note OFF: Time 123000, Note Name: D5
Note OFF: Time 123000, Note Name: G4
Note ON: Time 123600, Note Name: D#5, Velocity: 66
Note ON: Time 123600, Note Name: D#4, Velocity: 38
Note ON: Time 123600, Note Name: F#4, Velocity: 38
Note ON: Time 123600, Note Name: A4, Velocity: 48
Note OFF: Time 123840, Note Name: A4
Note OFF: Time 123840, Note Name: D#5
Note OFF: Time 123840, Note Name: D#4
Note OFF: Time 123840, Note Name: F#4
Note ON: Time 123840, Note Name: D5, Velocity: 52
Note OFF: Time 124080, Note Name: D5
Note ON: Time 124080, Note Name: D4, Velocity: 52
Note OFF: Time 124320, Note Name: D4
Note ON: Time 124320, Note Name: G3, Velocity: 55
Note OFF: Time 124440, Note Name: G3
Note ON: Time 124560, Note Name: D4, Velocity: 51
Note ON: Time 124800, Note Name: D5, Velocity: 51
Note OFF: Time 125040, Note Name: D5
Note OFF: Time 125040, Note Name: D4
Note ON: Time 125040, Note Name: F#4, Velocity: 38
Note ON: Time 125040, Note Name: D#4, Velocity: 38
Note ON: Time 125040, Note Name: D#5, Velocity: 66
Note ON: Time 125040, Note Name: A4, Velocity: 48
Note OFF: Time 125280, Note Name: A4
Note OFF: Time 125280, Note Name: F#4
Note OFF: Time 125280, Note Name: D#4
Note OFF: Time 125280, Note Name: D#5
Note ON: Time 125280, Note Name: D5, Velocity: 50
Note OFF: Time 125520, Note Name: D5
Note ON: Time 125520, Note Name: D4, Velocity: 53
Note OFF: Time 125760, Note Name: D4
Note ON: Time 125760, Note Name: G3, Velocity: 55
Note OFF: Time 126000, Note Name: G3
Note ON: Time 126240, Note Name: D3, Velocity: 51
Note OFF: Time 126480, Note Name: D3
Note ON: Time 126480, Note Name: F#3, Velocity: 38
Note ON: Time 126480, Note Name: D#4, Velocity: 66
Note ON: Time 126480, Note Name: A3, Velocity: 48
Note ON: Time 126480, Note Name: D#3, Velocity: 38
Note OFF: Time 126720, Note Name: D#3
Note OFF: Time 126720, Note Name: F#3
Note OFF: Time 126720, Note Name: D#4
Note OFF: Time 126720, Note Name: A3
Note ON: Time 126720, Note Name: D4, Velocity: 50
Note OFF: Time 126960, Note Name: D4
Note ON: Time 126960, Note Name: D3, Velocity: 53
Note OFF: Time 127200, Note Name: D3
Note ON: Time 127200, Note Name: G2, Velocity: 49
Note OFF: Time 127320, Note Name: G2
Note ON: Time 127440, Note Name: D3, Velocity: 45
Note ON: Time 127680, Note Name: D4, Velocity: 45
Note OFF: Time 127920, Note Name: D4
Note OFF: Time 127920, Note Name: D3
Note ON: Time 127920, Note Name: D#4, Velocity: 57
Note ON: Time 127920, Note Name: D#3, Velocity: 34
Note ON: Time 127920, Note Name: F#3, Velocity: 34
Note ON: Time 127920, Note Name: A3, Velocity: 42
Note OFF: Time 128160, Note Name: A3
Note OFF: Time 128160, Note Name: D#4
Note OFF: Time 128160, Note Name: D#3
Note OFF: Time 128160, Note Name: F#3
Note ON: Time 128160, Note Name: D4, Velocity: 45
Note OFF: Time 128400, Note Name: D4
Note ON: Time 128400, Note Name: D3, Velocity: 47
Note OFF: Time 128640, Note Name: D3
Note ON: Time 128640, Note Name: G2, Velocity: 58
Note OFF: Time 128880, Note Name: G2
Note ON: Time 128880, Note Name: A#3, Velocity: 45
Note ON: Time 128880, Note Name: D3, Velocity: 45
Note OFF: Time 129120, Note Name: D3
Note OFF: Time 129120, Note Name: A#3
Note ON: Time 129360, Note Name: C#2, Velocity: 46
Note ON: Time 129360, Note Name: C#3, Velocity: 58
Note OFF: Time 129600, Note Name: C#3
Note OFF: Time 129600, Note Name: C#2
Note ON: Time 129600, Note Name: D2, Velocity: 39
Note ON: Time 129600, Note Name: D3, Velocity: 45
Note OFF: Time 129840, Note Name: D3
Note OFF: Time 129840, Note Name: D2
Note ON: Time 130080, Note Name: G2, Velocity: 49
Note ON: Time 130080, Note Name: G1, Velocity: 49
Note OFF: Time 130320, Note Name: G1
Note OFF: Time 130320, Note Name: G2
Note ON: Time 130320, Note Name: A#2, Velocity: 38
Note OFF: Time 130560, Note Name: A#2
Note ON: Time 130800, Note Name: C#2, Velocity: 49
Note OFF: Time 131040, Note Name: C#2
Note ON: Time 131040, Note Name: D2, Velocity: 38
Note OFF: Time 131280, Note Name: D2
Note ON: Time 131520, Note Name: G2, Velocity: 49
Note ON: Time 131520, Note Name: G1, Velocity: 49
Note OFF: Time 131760, Note Name: G1
Note OFF: Time 131760, Note Name: G2
Note ON: Time 132000, Note Name: C2, Velocity: 45
Note OFF: Time 132240, Note Name: C2
Note ON: Time 132240, Note Name: G1, Velocity: 49
Note ON: Time 132240, Note Name: G2, Velocity: 49
Note OFF: Time 132480, Note Name: G2
Note OFF: Time 132480, Note Name: G1
Note ON: Time 132720, Note Name: C2, Velocity: 45
Note OFF: Time 132960, Note Name: C2
Note ON: Time 132960, Note Name: G1, Velocity: 49
Note ON: Time 132960, Note Name: G2, Velocity: 49
Note OFF: Time 133200, Note Name: G2
Note OFF: Time 133200, Note Name: G1
Note ON: Time 133440, Note Name: C2, Velocity: 45
Note OFF: Time 133680, Note Name: C2
Note ON: Time 133680, Note Name: G2, Velocity: 49
Note ON: Time 133680, Note Name: G1, Velocity: 49
Note OFF: Time 133920, Note Name: G1
Note OFF: Time 133920, Note Name: G2
Note ON: Time 134160, Note Name: C2, Velocity: 45
Note OFF: Time 134400, Note Name: C2
Note ON: Time 134400, Note Name: G1, Velocity: 41
Note ON: Time 134400, Note Name: G2, Velocity: 49
Note OFF: Time 135120, Note Name: G2
Note OFF: Time 135120, Note Name: G1
Note ON: Time 135360, Note Name: D4, Velocity: 48
Note ON: Time 135360, Note Name: G4, Velocity: 57
Note OFF: Time 135580, Note Name: G4
Note OFF: Time 135580, Note Name: D4
Note ON: Time 135600, Note Name: D4, Velocity: 53
Note ON: Time 135600, Note Name: G3, Velocity: 45
Note OFF: Time 135820, Note Name: G3
Note OFF: Time 135820, Note Name: D4
Note ON: Time 135840, Note Name: D4, Velocity: 48
Note ON: Time 135840, Note Name: G4, Velocity: 57
Note OFF: Time 136320, Note Name: G4
Note OFF: Time 136320, Note Name: D4
Note ON: Time 137040, Note Name: D2, Velocity: 49
Note OFF: Time 137280, Note Name: D2
Note ON: Time 137280, Note Name: G1, Velocity: 44
Note ON: Time 137280, Note Name: G2, Velocity: 52
Note OFF: Time 138480, Note Name: G2
Note OFF: Time 138480, Note Name: G1
Note ON: Time 138480, Note Name: D2, Velocity: 47
Note OFF: Time 138720, Note Name: D2
Note ON: Time 138720, Note Name: F#1, Velocity: 44
Note ON: Time 138720, Note Name: F#2, Velocity: 52
Note OFF: Time 139920, Note Name: F#2
Note OFF: Time 139920, Note Name: F#1
Note ON: Time 139920, Note Name: D2, Velocity: 47
Note OFF: Time 140160, Note Name: D2
Note ON: Time 140160, Note Name: G2, Velocity: 49
Note ON: Time 140160, Note Name: G1, Velocity: 41
Note OFF: Time 140880, Note Name: G1
Note OFF: Time 140880, Note Name: G2
Note ON: Time 141120, Note Name: G3, Velocity: 57
Note ON: Time 141120, Note Name: D3, Velocity: 48
Note OFF: Time 141340, Note Name: D3
Note OFF: Time 141340, Note Name: G3
Note ON: Time 141360, Note Name: G2, Velocity: 45
Note ON: Time 141360, Note Name: D3, Velocity: 53
Note OFF: Time 141580, Note Name: D3
Note OFF: Time 141580, Note Name: G2
Note ON: Time 141600, Note Name: D3, Velocity: 48
Note ON: Time 141600, Note Name: G3, Velocity: 57
Note OFF: Time 142080, Note Name: G3
Note OFF: Time 142080, Note Name: D3
Note ON: Time 142800, Note Name: D2, Velocity: 49
Note OFF: Time 143040, Note Name: D2
Note ON: Time 143040, Note Name: F#2, Velocity: 52
Note ON: Time 143040, Note Name: F#1, Velocity: 44
Note OFF: Time 144240, Note Name: F#1
Note OFF: Time 144240, Note Name: F#2
Note ON: Time 144240, Note Name: D2, Velocity: 47
Note OFF: Time 144480, Note Name: D2
Note ON: Time 144480, Note Name: F2, Velocity: 52
Note ON: Time 144480, Note Name: F1, Velocity: 44
Note OFF: Time 145680, Note Name: F2
Note ON: Time 145680, Note Name: G2, Velocity: 47
Note OFF: Time 145920, Note Name: G2
Note ON: Time 145920, Note Name: A2, Velocity: 49
Note OFF: Time 146400, Note Name: A2
Note OFF: Time 146400, Note Name: F1
Note ON: Time 146880, Note Name: C4, Velocity: 44
Note ON: Time 146880, Note Name: F4, Velocity: 52
Note OFF: Time 147100, Note Name: F4
Note OFF: Time 147100, Note Name: C4
Note ON: Time 147120, Note Name: C4, Velocity: 44
Note ON: Time 147120, Note Name: F3, Velocity: 36
Note OFF: Time 147340, Note Name: F3
Note OFF: Time 147340, Note Name: C4
Note ON: Time 147360, Note Name: F4, Velocity: 52
Note ON: Time 147360, Note Name: C4, Velocity: 44
Note OFF: Time 148560, Note Name: C4
Note OFF: Time 148560, Note Name: F4
Note ON: Time 148560, Note Name: F3, Velocity: 35
Note ON: Time 148560, Note Name: C4, Velocity: 41
Note OFF: Time 148800, Note Name: C4
Note OFF: Time 148800, Note Name: F3
Note ON: Time 148800, Note Name: F4, Velocity: 46
Note ON: Time 148800, Note Name: C4, Velocity: 39
Note OFF: Time 150000, Note Name: C4
Note OFF: Time 150000, Note Name: F4
Note ON: Time 150000, Note Name: F3, Velocity: 31
Note ON: Time 150000, Note Name: C4, Velocity: 36
Note OFF: Time 150240, Note Name: C4
Note OFF: Time 150240, Note Name: F3
Note ON: Time 150240, Note Name: C4, Velocity: 34
Note ON: Time 150240, Note Name: F4, Velocity: 40
Note OFF: Time 150720, Note Name: F4
Note OFF: Time 150720, Note Name: C4
Note ON: Time 150720, Note Name: F3, Velocity: 28
Note ON: Time 150720, Note Name: C4, Velocity: 34
Note OFF: Time 150960, Note Name: C4
Note OFF: Time 150960, Note Name: F3
Note ON: Time 150960, Note Name: F4, Velocity: 37
Note ON: Time 150960, Note Name: C4, Velocity: 31
Note OFF: Time 151200, Note Name: C4
Note OFF: Time 151200, Note Name: F4
Note ON: Time 151200, Note Name: F3, Velocity: 30
Note ON: Time 151200, Note Name: C4, Velocity: 36
Note OFF: Time 151430, Note Name: C4
Note OFF: Time 151430, Note Name: F3
Note ON: Time 151680, Note Name: A#1, Velocity: 36
Note OFF: Time 152160, Note Name: A#1
Note ON: Time 152160, Note Name: A#2, Velocity: 29
Note OFF: Time 152640, Note Name: A#2
Note ON: Time 152640, Note Name: G#3, Velocity: 29
Note OFF: Time 153120, Note Name: G#3
Note ON: Time 153120, Note Name: F3, Velocity: 31
Note OFF: Time 153600, Note Name: F3
Note ON: Time 153600, Note Name: C4, Velocity: 31
Note OFF: Time 154080, Note Name: C4
Note ON: Time 154080, Note Name: A#3, Velocity: 31
Note OFF: Time 154560, Note Name: A#3
Note ON: Time 154560, Note Name: D#2, Velocity: 36
Note OFF: Time 155040, Note Name: D#2
Note ON: Time 155040, Note Name: A#2, Velocity: 27
Note OFF: Time 155520, Note Name: A#2
Note ON: Time 155520, Note Name: D#3, Velocity: 26
Note OFF: Time 156000, Note Name: D#3
Note ON: Time 156000, Note Name: G3, Velocity: 32
Note OFF: Time 156480, Note Name: G3
Note ON: Time 156480, Note Name: A#3, Velocity: 31
Note OFF: Time 156960, Note Name: A#3
Note ON: Time 156960, Note Name: D#4, Velocity: 31
Note OFF: Time 157440, Note Name: D#4
Note ON: Time 157440, Note Name: C4, Velocity: 33
Note OFF: Time 157920, Note Name: C4
Note ON: Time 157920, Note Name: D#4, Velocity: 30
Note OFF: Time 158400, Note Name: D#4
Note ON: Time 158400, Note Name: F3, Velocity: 25
Note OFF: Time 158880, Note Name: F3
Note ON: Time 158880, Note Name: D#4, Velocity: 33
Note OFF: Time 159360, Note Name: D#4
Note ON: Time 159360, Note Name: G4, Velocity: 30
Note OFF: Time 159840, Note Name: G4
Note ON: Time 159840, Note Name: F4, Velocity: 30
Note OFF: Time 160320, Note Name: F4
Note ON: Time 160320, Note Name: A#2, Velocity: 36
Note OFF: Time 160800, Note Name: A#2
Note ON: Time 160800, Note Name: F3, Velocity: 29
Note OFF: Time 161280, Note Name: F3
Note ON: Time 161280, Note Name: A#3, Velocity: 29
Note OFF: Time 161760, Note Name: A#3
Note ON: Time 161760, Note Name: D4, Velocity: 32
Note OFF: Time 162240, Note Name: D4
Note ON: Time 162240, Note Name: F4, Velocity: 32
Note OFF: Time 162720, Note Name: F4
Note ON: Time 162720, Note Name: A#4, Velocity: 32
Note OFF: Time 163200, Note Name: A#4
Note ON: Time 163200, Note Name: C4, Velocity: 36
Note OFF: Time 163680, Note Name: C4
Note ON: Time 163680, Note Name: D#4, Velocity: 30
Note OFF: Time 164160, Note Name: D#4
Note ON: Time 164160, Note Name: F3, Velocity: 30
Note OFF: Time 164640, Note Name: F3
Note ON: Time 164640, Note Name: A#3, Velocity: 33
Note OFF: Time 165120, Note Name: A#3
Note ON: Time 165120, Note Name: D4, Velocity: 26
Note OFF: Time 165600, Note Name: D4
Note ON: Time 165600, Note Name: G#4, Velocity: 28
Note OFF: Time 166080, Note Name: G#4
Note ON: Time 166080, Note Name: A#3, Velocity: 36
Note OFF: Time 166560, Note Name: A#3
Note ON: Time 166560, Note Name: D4, Velocity: 29
Note OFF: Time 167040, Note Name: D4
Note ON: Time 167040, Note Name: D#3, Velocity: 29
Note OFF: Time 167520, Note Name: D#3
Note ON: Time 167520, Note Name: G#3, Velocity: 28
Note OFF: Time 168000, Note Name: G#3
Note ON: Time 168000, Note Name: C4, Velocity: 29
Note OFF: Time 168480, Note Name: C4
Note ON: Time 168480, Note Name: G4, Velocity: 29
Note OFF: Time 168960, Note Name: G4
Note ON: Time 168960, Note Name: G#3, Velocity: 36
Note OFF: Time 169440, Note Name: G#3
Note ON: Time 169440, Note Name: C4, Velocity: 31
Note OFF: Time 169920, Note Name: C4
Note ON: Time 169920, Note Name: D3, Velocity: 32
Note OFF: Time 170400, Note Name: D3
Note ON: Time 170400, Note Name: G3, Velocity: 30
Note OFF: Time 170880, Note Name: G3
Note ON: Time 170880, Note Name: B3, Velocity: 36
Note OFF: Time 171360, Note Name: B3
Note ON: Time 171360, Note Name: F4, Velocity: 30
Note OFF: Time 171840, Note Name: F4
Note ON: Time 171840, Note Name: G3, Velocity: 36
Note OFF: Time 172320, Note Name: G3
Note ON: Time 172320, Note Name: C4, Velocity: 31
Note OFF: Time 172800, Note Name: C4
Note ON: Time 172800, Note Name: C3, Velocity: 31
Note OFF: Time 173280, Note Name: C3
Note ON: Time 173280, Note Name: F3, Velocity: 33
Note OFF: Time 173760, Note Name: F3
Note ON: Time 173760, Note Name: A3, Velocity: 33
Note OFF: Time 174240, Note Name: A3
Note ON: Time 174240, Note Name: D#4, Velocity: 33
Note OFF: Time 174720, Note Name: D#4
Note ON: Time 174720, Note Name: F3, Velocity: 36
Note OFF: Time 175200, Note Name: F3
Note ON: Time 175200, Note Name: G#3, Velocity: 29
Note OFF: Time 175680, Note Name: G#3
Note ON: Time 175680, Note Name: A#2, Velocity: 29
Note OFF: Time 176160, Note Name: A#2
Note ON: Time 176160, Note Name: G#3, Velocity: 31
Note OFF: Time 176640, Note Name: G#3
Note ON: Time 176640, Note Name: C4, Velocity: 31
Note OFF: Time 177120, Note Name: C4
Note ON: Time 177120, Note Name: A#3, Velocity: 31
Note OFF: Time 177600, Note Name: A#3
Note ON: Time 177600, Note Name: D#2, Velocity: 36
Note OFF: Time 178080, Note Name: D#2
Note ON: Time 178080, Note Name: A#2, Velocity: 30
Note OFF: Time 178560, Note Name: A#2
Note ON: Time 178560, Note Name: D#3, Velocity: 27
Note OFF: Time 179040, Note Name: D#3
Note ON: Time 179040, Note Name: G3, Velocity: 31
Note OFF: Time 179520, Note Name: G3
Note ON: Time 179520, Note Name: A#3, Velocity: 31
Note OFF: Time 180000, Note Name: A#3
Note ON: Time 180000, Note Name: D#4, Velocity: 28
Note OFF: Time 180480, Note Name: D#4
Note ON: Time 180480, Note Name: C4, Velocity: 30
Note OFF: Time 180960, Note Name: C4
Note ON: Time 180960, Note Name: D#4, Velocity: 30
Note OFF: Time 181440, Note Name: D#4
Note ON: Time 181440, Note Name: F3, Velocity: 25
Note OFF: Time 181920, Note Name: F3
Note ON: Time 181920, Note Name: D#4, Velocity: 33
Note OFF: Time 182400, Note Name: D#4
Note ON: Time 182400, Note Name: G4, Velocity: 30
Note OFF: Time 182880, Note Name: G4
Note ON: Time 182880, Note Name: F4, Velocity: 30
Note OFF: Time 183360, Note Name: F4
Note ON: Time 183360, Note Name: A#2, Velocity: 36
Note OFF: Time 183840, Note Name: A#2
Note ON: Time 183840, Note Name: F3, Velocity: 32
Note OFF: Time 184320, Note Name: F3
Note ON: Time 184320, Note Name: A#3, Velocity: 32
Note OFF: Time 184800, Note Name: A#3
Note ON: Time 184800, Note Name: D4, Velocity: 34
Note OFF: Time 185280, Note Name: D4
Note ON: Time 185280, Note Name: F4, Velocity: 37
Note OFF: Time 185760, Note Name: F4
Note ON: Time 185760, Note Name: A#4, Velocity: 42
Note OFF: Time 186240, Note Name: A#4
Note ON: Time 186240, Note Name: C2, Velocity: 44
Note OFF: Time 186720, Note Name: C2
Note ON: Time 186720, Note Name: E4, Velocity: 30
Note OFF: Time 187200, Note Name: E4
Note ON: Time 187200, Note Name: A#3, Velocity: 26
Note OFF: Time 187680, Note Name: A#3
Note ON: Time 187680, Note Name: G3, Velocity: 30
Note ON: Time 188160, Note Name: E4, Velocity: 27
Note OFF: Time 188640, Note Name: E4
Note ON: Time 188640, Note Name: A#3, Velocity: 27
Note OFF: Time 189120, Note Name: A#3
Note OFF: Time 189120, Note Name: G3
Note ON: Time 189120, Note Name: F3, Velocity: 36
Note ON: Time 189600, Note Name: D#4, Velocity: 31
Note OFF: Time 190080, Note Name: D#4
Note ON: Time 190080, Note Name: A3, Velocity: 31
Note OFF: Time 190560, Note Name: A3
Note OFF: Time 190560, Note Name: F3
Note ON: Time 190560, Note Name: A#2, Velocity: 36
Note OFF: Time 191040, Note Name: A#2
Note ON: Time 191040, Note Name: D4, Velocity: 31
Note OFF: Time 191520, Note Name: D4
Note ON: Time 191520, Note Name: G#3, Velocity: 31
Note OFF: Time 192000, Note Name: G#3
Note ON: Time 192000, Note Name: D#2, Velocity: 38
Note OFF: Time 192240, Note Name: D#2
Note ON: Time 192240, Note Name: A#2, Velocity: 26
Note OFF: Time 192480, Note Name: A#2
Note ON: Time 192480, Note Name: G3, Velocity: 31
Note OFF: Time 192720, Note Name: G3
Note ON: Time 192720, Note Name: D#3, Velocity: 27
Note OFF: Time 192960, Note Name: D#3
Note ON: Time 192960, Note Name: A#3, Velocity: 31
Note OFF: Time 193200, Note Name: A#3
Note ON: Time 193200, Note Name: G3, Velocity: 27
Note OFF: Time 193440, Note Name: G3
Note ON: Time 193440, Note Name: D#4, Velocity: 32
Note OFF: Time 193920, Note Name: D#4
Note ON: Time 194880, Note Name: D#2, Velocity: 32
Note OFF: Time 195120, Note Name: D#2
Note ON: Time 195120, Note Name: A#2, Velocity: 22
Note OFF: Time 195360, Note Name: A#2
Note ON: Time 195360, Note Name: G3, Velocity: 26
Note OFF: Time 195600, Note Name: G3
Note ON: Time 195600, Note Name: D#3, Velocity: 22
Note OFF: Time 195840, Note Name: D#3
Note ON: Time 195840, Note Name: A#3, Velocity: 26
Note OFF: Time 196080, Note Name: A#3
Note ON: Time 196080, Note Name: G3, Velocity: 22
Note OFF: Time 196320, Note Name: G3
Note ON: Time 196320, Note Name: D#4, Velocity: 27
Note OFF: Time 196800, Note Name: D#4
Note ON: Time 197760, Note Name: D#2, Velocity: 32
Note OFF: Time 198000, Note Name: D#2
Note ON: Time 198000, Note Name: A#2, Velocity: 22
Note OFF: Time 198240, Note Name: A#2
Note ON: Time 198240, Note Name: G#3, Velocity: 26
Note OFF: Time 198480, Note Name: G#3
Note ON: Time 198480, Note Name: F3, Velocity: 22
Note OFF: Time 198720, Note Name: F3
Note ON: Time 198720, Note Name: A#3, Velocity: 26
Note OFF: Time 198960, Note Name: A#3
Note ON: Time 198960, Note Name: G#3, Velocity: 22
Note OFF: Time 199200, Note Name: G#3
Note ON: Time 199200, Note Name: D4, Velocity: 27
Note OFF: Time 199680, Note Name: D4
Note ON: Time 200640, Note Name: D#2, Velocity: 32
Note OFF: Time 200880, Note Name: D#2
Note ON: Time 200880, Note Name: A#2, Velocity: 25
Note OFF: Time 201120, Note Name: A#2
Note ON: Time 201120, Note Name: G3, Velocity: 28
Note OFF: Time 201600, Note Name: G3
Note ON: Time 202080, Note Name: D#2, Velocity: 32
Note OFF: Time 202320, Note Name: D#2
Note ON: Time 202320, Note Name: D#3, Velocity: 25
Note OFF: Time 202560, Note Name: D#3
Note ON: Time 202560, Note Name: G#3, Velocity: 29
Note OFF: Time 203040, Note Name: G#3
Note ON: Time 203520, Note Name: D#2, Velocity: 32
Note OFF: Time 203760, Note Name: D#2
Note ON: Time 203760, Note Name: A#2, Velocity: 22
Note OFF: Time 204000, Note Name: A#2
Note ON: Time 204000, Note Name: G3, Velocity: 26
Note OFF: Time 204240, Note Name: G3
Note ON: Time 204240, Note Name: D#3, Velocity: 22
Note OFF: Time 204480, Note Name: D#3
Note ON: Time 204480, Note Name: A#3, Velocity: 26
Note OFF: Time 204720, Note Name: A#3
Note ON: Time 204720, Note Name: G3, Velocity: 22
Note OFF: Time 204960, Note Name: G3
Note ON: Time 204960, Note Name: D#4, Velocity: 27
Note OFF: Time 205440, Note Name: D#4
Note ON: Time 206400, Note Name: D#2, Velocity: 32
Note OFF: Time 206640, Note Name: D#2
Note ON: Time 206640, Note Name: A#2, Velocity: 22
Note OFF: Time 206880, Note Name: A#2
Note ON: Time 206880, Note Name: G3, Velocity: 26
Note OFF: Time 207120, Note Name: G3
Note ON: Time 207120, Note Name: D#3, Velocity: 22
Note OFF: Time 207360, Note Name: D#3
Note ON: Time 207360, Note Name: A#3, Velocity: 26
Note OFF: Time 207600, Note Name: A#3
Note ON: Time 207600, Note Name: G3, Velocity: 22
Note OFF: Time 207840, Note Name: G3
Note ON: Time 207840, Note Name: D#4, Velocity: 27
Note OFF: Time 208320, Note Name: D#4
Note ON: Time 209280, Note Name: D#2, Velocity: 32
Note OFF: Time 209520, Note Name: D#2
Note ON: Time 209520, Note Name: A#2, Velocity: 22
Note OFF: Time 209760, Note Name: A#2
Note ON: Time 209760, Note Name: G#3, Velocity: 26
Note OFF: Time 210000, Note Name: G#3
Note ON: Time 210000, Note Name: F3, Velocity: 22
Note OFF: Time 210240, Note Name: F3
Note ON: Time 210240, Note Name: A#3, Velocity: 26
Note OFF: Time 210480, Note Name: A#3
Note ON: Time 210480, Note Name: G#3, Velocity: 22
Note OFF: Time 210720, Note Name: G#3
Note ON: Time 210720, Note Name: D4, Velocity: 27
Note OFF: Time 211200, Note Name: D4
Note ON: Time 212160, Note Name: D#2, Velocity: 32
Note OFF: Time 212400, Note Name: D#2
Note ON: Time 212400, Note Name: A#2, Velocity: 25
Note OFF: Time 212640, Note Name: A#2
Note ON: Time 212640, Note Name: G3, Velocity: 28
Note OFF: Time 213120, Note Name: G3
Note ON: Time 213600, Note Name: D#2, Velocity: 32
Note OFF: Time 213840, Note Name: D#2
Note ON: Time 213840, Note Name: D#3, Velocity: 25
Note OFF: Time 214080, Note Name: D#3
Note ON: Time 214080, Note Name: G#3, Velocity: 29
Note OFF: Time 214560, Note Name: G#3
Note ON: Time 215040, Note Name: D#2, Velocity: 32
Note OFF: Time 215280, Note Name: D#2
Note ON: Time 215280, Note Name: A#2, Velocity: 22
Note OFF: Time 215520, Note Name: A#2
Note ON: Time 215520, Note Name: G3, Velocity: 26
Note OFF: Time 215760, Note Name: G3
Note ON: Time 215760, Note Name: D#3, Velocity: 22
Note OFF: Time 216000, Note Name: D#3
Note ON: Time 216000, Note Name: A#3, Velocity: 26
Note OFF: Time 216240, Note Name: A#3
Note ON: Time 216240, Note Name: G3, Velocity: 22
Note OFF: Time 216480, Note Name: G3
Note ON: Time 216480, Note Name: D#4, Velocity: 27
Note OFF: Time 216960, Note Name: D#4
Note ON: Time 217920, Note Name: G2, Velocity: 32
Note OFF: Time 218160, Note Name: G2
Note ON: Time 218160, Note Name: D3, Velocity: 22
Note OFF: Time 218400, Note Name: D3
Note ON: Time 218400, Note Name: A#3, Velocity: 26
Note OFF: Time 218640, Note Name: A#3
Note ON: Time 218640, Note Name: G3, Velocity: 22
Note OFF: Time 218880, Note Name: G3
Note ON: Time 218880, Note Name: D4, Velocity: 26
Note OFF: Time 219120, Note Name: D4
Note ON: Time 219120, Note Name: A#3, Velocity: 22
Note OFF: Time 219360, Note Name: A#3
Note ON: Time 219360, Note Name: G4, Velocity: 27
Note OFF: Time 219840, Note Name: G4
Note ON: Time 220800, Note Name: A#2, Velocity: 32
Note OFF: Time 221040, Note Name: A#2
Note ON: Time 221040, Note Name: F3, Velocity: 22
Note OFF: Time 221280, Note Name: F3
Note ON: Time 221280, Note Name: D4, Velocity: 26
Note OFF: Time 221520, Note Name: D4
Note ON: Time 221520, Note Name: A#3, Velocity: 22
Note OFF: Time 221760, Note Name: A#3
Note ON: Time 221760, Note Name: F4, Velocity: 26
Note OFF: Time 222000, Note Name: F4
Note ON: Time 222000, Note Name: D4, Velocity: 22
Note OFF: Time 222240, Note Name: D4
Note ON: Time 222240, Note Name: A#4, Velocity: 27
Note OFF: Time 222720, Note Name: A#4
Note ON: Time 223680, Note Name: D3, Velocity: 31
Note OFF: Time 223920, Note Name: D3
Note ON: Time 223920, Note Name: A3, Velocity: 26
Note OFF: Time 224160, Note Name: A3
Note ON: Time 224160, Note Name: F4, Velocity: 31
Note OFF: Time 224400, Note Name: F4
Note ON: Time 224400, Note Name: D4, Velocity: 26
Note OFF: Time 224640, Note Name: D4
Note ON: Time 224640, Note Name: A4, Velocity: 31
Note OFF: Time 224880, Note Name: A4
Note ON: Time 224880, Note Name: F4, Velocity: 26
Note OFF: Time 225120, Note Name: F4
Note ON: Time 226560, Note Name: E3, Velocity: 28
Note ON: Time 227040, Note Name: E2, Velocity: 25
Note OFF: Time 227520, Note Name: E2
Note ON: Time 227520, Note Name: E2, Velocity: 25
Note OFF: Time 228000, Note Name: E2
Note OFF: Time 228000, Note Name: E3
Note ON: Time 228480, Note Name: E2, Velocity: 39
Note OFF: Time 228720, Note Name: E2
Note ON: Time 228960, Note Name: E2, Velocity: 39
Note OFF: Time 229200, Note Name: E2
Note ON: Time 229920, Note Name: E2, Velocity: 22
Note OFF: Time 230395, Note Name: E2
Note ON: Time 230400, Note Name: E2, Velocity: 22
Note OFF: Time 230875, Note Name: E2
Note ON: Time 230880, Note Name: E4, Velocity: 34
Note ON: Time 231360, Note Name: E3, Velocity: 21
Note ON: Time 231360, Note Name: A3, Velocity: 21
Note OFF: Time 231835, Note Name: A3
Note OFF: Time 231835, Note Name: E3
Note ON: Time 231840, Note Name: A3, Velocity: 21
Note ON: Time 231840, Note Name: E3, Velocity: 21
Note OFF: Time 232315, Note Name: E3
Note OFF: Time 232315, Note Name: A3
Note OFF: Time 232320, Note Name: E4
Note ON: Time 232320, Note Name: D4, Velocity: 34
Note ON: Time 232800, Note Name: A3, Velocity: 22
Note ON: Time 232800, Note Name: E3, Velocity: 22
Note OFF: Time 233275, Note Name: E3
Note OFF: Time 233275, Note Name: A3
Note ON: Time 233280, Note Name: E3, Velocity: 22
Note ON: Time 233280, Note Name: A3, Velocity: 22
Note OFF: Time 233755, Note Name: A3
Note OFF: Time 233755, Note Name: E3
Note OFF: Time 233760, Note Name: D4
Note ON: Time 234240, Note Name: E2, Velocity: 39
Note OFF: Time 234480, Note Name: E2
Note ON: Time 234720, Note Name: E2, Velocity: 39
Note OFF: Time 234960, Note Name: E2
Note ON: Time 235680, Note Name: E2, Velocity: 22
Note OFF: Time 236155, Note Name: E2
Note ON: Time 236160, Note Name: E2, Velocity: 22
Note OFF: Time 236635, Note Name: E2
Note ON: Time 236640, Note Name: F#3, Velocity: 31
Note ON: Time 237120, Note Name: E2, Velocity: 21
Note OFF: Time 237595, Note Name: E2
Note ON: Time 237600, Note Name: E2, Velocity: 21
Note OFF: Time 238075, Note Name: E2
Note OFF: Time 238080, Note Name: F#3
Note ON: Time 238080, Note Name: G#3, Velocity: 31
Note ON: Time 238560, Note Name: E2, Velocity: 16
Note OFF: Time 239035, Note Name: E2
Note ON: Time 239040, Note Name: E2, Velocity: 16
Note OFF: Time 239515, Note Name: E2
Note OFF: Time 239520, Note Name: G#3
Note ON: Time 240000, Note Name: E2, Velocity: 39
Note OFF: Time 240475, Note Name: E2
Note ON: Time 240480, Note Name: E2, Velocity: 39
Note OFF: Time 240955, Note Name: E2
Note ON: Time 241440, Note Name: E2, Velocity: 22
Note OFF: Time 241915, Note Name: E2
Note ON: Time 241920, Note Name: E2, Velocity: 22
Note OFF: Time 242395, Note Name: E2
Note ON: Time 242400, Note Name: E4, Velocity: 41
Note ON: Time 242880, Note Name: C4, Velocity: 24
Note ON: Time 242880, Note Name: E3, Velocity: 19
Note ON: Time 242880, Note Name: A3, Velocity: 19
Note OFF: Time 243355, Note Name: A3
Note OFF: Time 243355, Note Name: E3
Note OFF: Time 243355, Note Name: C4
Note ON: Time 243360, Note Name: E3, Velocity: 19
Note ON: Time 243360, Note Name: C4, Velocity: 24
Note ON: Time 243360, Note Name: A3, Velocity: 19
Note OFF: Time 243835, Note Name: A3
Note OFF: Time 243835, Note Name: C4
Note OFF: Time 243835, Note Name: E3
Note OFF: Time 243840, Note Name: E4
Note ON: Time 243840, Note Name: F#4, Velocity: 41
Note ON: Time 244320, Note Name: E3, Velocity: 19
Note ON: Time 244320, Note Name: C4, Velocity: 24
Note ON: Time 244320, Note Name: A3, Velocity: 19
Note OFF: Time 244795, Note Name: A3
Note OFF: Time 244795, Note Name: C4
Note OFF: Time 244795, Note Name: E3
Note ON: Time 244800, Note Name: C4, Velocity: 24
Note ON: Time 244800, Note Name: E3, Velocity: 19
Note ON: Time 244800, Note Name: A3, Velocity: 19
Note OFF: Time 245275, Note Name: A3
Note OFF: Time 245275, Note Name: E3
Note OFF: Time 245275, Note Name: C4
Note OFF: Time 245280, Note Name: F#4
Note ON: Time 245760, Note Name: E2, Velocity: 39
Note OFF: Time 246235, Note Name: E2
Note ON: Time 246240, Note Name: E2, Velocity: 39
Note OFF: Time 246715, Note Name: E2
Note ON: Time 247200, Note Name: E2, Velocity: 22
Note OFF: Time 247675, Note Name: E2
Note ON: Time 247680, Note Name: E2, Velocity: 22
Note OFF: Time 248155, Note Name: E2
Note ON: Time 248160, Note Name: F#4, Velocity: 45
Note ON: Time 248640, Note Name: E3, Velocity: 21
Note ON: Time 248640, Note Name: C4, Velocity: 26
Note ON: Time 248640, Note Name: A3, Velocity: 21
Note OFF: Time 249115, Note Name: A3
Note OFF: Time 249115, Note Name: C4
Note OFF: Time 249115, Note Name: E3
Note ON: Time 249120, Note Name: A3, Velocity: 21
Note ON: Time 249120, Note Name: E3, Velocity: 21
Note ON: Time 249120, Note Name: C4, Velocity: 26
Note OFF: Time 249595, Note Name: C4
Note OFF: Time 249595, Note Name: E3
Note OFF: Time 249595, Note Name: A3
Note OFF: Time 249600, Note Name: F#4
Note ON: Time 249600, Note Name: G#4, Velocity: 47
Note ON: Time 250080, Note Name: E3, Velocity: 21
Note ON: Time 250080, Note Name: C4, Velocity: 28
Note ON: Time 250080, Note Name: A3, Velocity: 21
Note OFF: Time 250555, Note Name: A3
Note OFF: Time 250555, Note Name: C4
Note OFF: Time 250555, Note Name: E3
Note ON: Time 250560, Note Name: A3, Velocity: 21
Note ON: Time 250560, Note Name: E3, Velocity: 21
Note ON: Time 250560, Note Name: C4, Velocity: 28
Note OFF: Time 251035, Note Name: C4
Note OFF: Time 251035, Note Name: E3
Note OFF: Time 251035, Note Name: A3
Note OFF: Time 251040, Note Name: G#4
Note ON: Time 251040, Note Name: F#4, Velocity: 50
Note ON: Time 251520, Note Name: A3, Velocity: 23
Note ON: Time 251520, Note Name: E3, Velocity: 23
Note ON: Time 251520, Note Name: C4, Velocity: 28
Note OFF: Time 252000, Note Name: C4
Note OFF: Time 252000, Note Name: F#4
Note OFF: Time 252000, Note Name: A3
Note OFF: Time 252000, Note Name: E3
Note ON: Time 252240, Note Name: G#4, Velocity: 53
Note OFF: Time 252460, Note Name: G#4
Note ON: Time 252480, Note Name: G#4, Velocity: 53
Note ON: Time 252960, Note Name: E3, Velocity: 25
Note ON: Time 252960, Note Name: C4, Velocity: 32
Note ON: Time 252960, Note Name: A3, Velocity: 25
Note OFF: Time 253435, Note Name: A3
Note OFF: Time 253435, Note Name: C4
Note OFF: Time 253435, Note Name: E3
Note ON: Time 253440, Note Name: E3, Velocity: 26
Note ON: Time 253440, Note Name: C4, Velocity: 33
Note ON: Time 253440, Note Name: A3, Velocity: 26
Note OFF: Time 253915, Note Name: A3
Note OFF: Time 253915, Note Name: C4
Note OFF: Time 253915, Note Name: E3
Note OFF: Time 253920, Note Name: G#4
Note ON: Time 253920, Note Name: F#4, Velocity: 57
Note ON: Time 254400, Note Name: C4, Velocity: 34
Note ON: Time 254400, Note Name: E3, Velocity: 27
Note ON: Time 254400, Note Name: A3, Velocity: 27
Note OFF: Time 254880, Note Name: A3
Note OFF: Time 254880, Note Name: F#4
Note OFF: Time 254880, Note Name: C4
Note OFF: Time 254880, Note Name: E3
Note ON: Time 255120, Note Name: G#4, Velocity: 59
Note OFF: Time 255340, Note Name: G#4
Note ON: Time 255360, Note Name: G#4, Velocity: 59
Note ON: Time 255840, Note Name: E3, Velocity: 29
Note ON: Time 255840, Note Name: A3, Velocity: 29
Note ON: Time 255840, Note Name: C4, Velocity: 36
Note OFF: Time 256315, Note Name: C4
Note OFF: Time 256315, Note Name: A3
Note OFF: Time 256315, Note Name: E3
Note ON: Time 256320, Note Name: E3, Velocity: 29
Note ON: Time 256320, Note Name: C4, Velocity: 37
Note ON: Time 256320, Note Name: A3, Velocity: 29
Note OFF: Time 256795, Note Name: A3
Note OFF: Time 256795, Note Name: C4
Note OFF: Time 256795, Note Name: E3
Note OFF: Time 256800, Note Name: G#4
Note ON: Time 256800, Note Name: F#4, Velocity: 65
Note ON: Time 257280, Note Name: A3, Velocity: 31
Note ON: Time 257280, Note Name: E3, Velocity: 31
Note ON: Time 257280, Note Name: C4, Velocity: 39
Note OFF: Time 257760, Note Name: C4
Note OFF: Time 257760, Note Name: F#4
Note OFF: Time 257760, Note Name: A3
Note OFF: Time 257760, Note Name: E3
Note ON: Time 258000, Note Name: G#4, Velocity: 61
Note OFF: Time 258240, Note Name: G#4
Note ON: Time 258240, Note Name: A4, Velocity: 63
Note ON: Time 258720, Note Name: A3, Velocity: 34
Note ON: Time 258720, Note Name: E3, Velocity: 34
Note ON: Time 258720, Note Name: C4, Velocity: 41
Note OFF: Time 259195, Note Name: C4
Note OFF: Time 259195, Note Name: E3
Note OFF: Time 259195, Note Name: A3
Note ON: Time 259200, Note Name: C4, Velocity: 46
Note ON: Time 259200, Note Name: E3, Velocity: 34
Note ON: Time 259200, Note Name: A3, Velocity: 34
Note OFF: Time 259675, Note Name: A3
Note OFF: Time 259675, Note Name: E3
Note OFF: Time 259675, Note Name: C4
Note OFF: Time 259680, Note Name: A4
Note ON: Time 259680, Note Name: G#4, Velocity: 74
Note ON: Time 260160, Note Name: A3, Velocity: 35
Note ON: Time 260160, Note Name: E3, Velocity: 35
Note ON: Time 260160, Note Name: C4, Velocity: 46
Note OFF: Time 260460, Note Name: C4
Note OFF: Time 260460, Note Name: G#4
Note OFF: Time 260460, Note Name: A3
Note OFF: Time 260460, Note Name: E3
Note ON: Time 260460, Note Name: E3, Velocity: 35
Note ON: Time 260520, Note Name: A3, Velocity: 36
Note ON: Time 260580, Note Name: C4, Velocity: 46
Note ON: Time 260640, Note Name: A4, Velocity: 80
Note OFF: Time 261120, Note Name: A4
Note OFF: Time 261120, Note Name: E3
Note OFF: Time 261120, Note Name: A3
Note OFF: Time 261120, Note Name: C4
Note ON: Time 261120, Note Name: E1, Velocity: 70
Note ON: Time 261120, Note Name: E2, Velocity: 84
Note OFF: Time 261600, Note Name: E2
Note OFF: Time 261600, Note Name: E1
Note ON: Time 261600, Note Name: E3, Velocity: 61
Note ON: Time 261600, Note Name: D4, Velocity: 72
Note ON: Time 261600, Note Name: G#3, Velocity: 61
Note OFF: Time 262080, Note Name: G#3
Note OFF: Time 262080, Note Name: D4
Note OFF: Time 262080, Note Name: E3
Note ON: Time 262080, Note Name: D4, Velocity: 61
Note ON: Time 262080, Note Name: E4, Velocity: 73
Note ON: Time 262080, Note Name: G#3, Velocity: 61
Note OFF: Time 262560, Note Name: G#3
Note OFF: Time 262560, Note Name: E4
Note OFF: Time 262560, Note Name: D4
Note ON: Time 262560, Note Name: G#4, Velocity: 84
Note ON: Time 262560, Note Name: B3, Velocity: 70
Note ON: Time 262560, Note Name: D4, Velocity: 70
Note OFF: Time 263040, Note Name: D4
Note OFF: Time 263040, Note Name: B3
Note OFF: Time 263040, Note Name: G#4
Note ON: Time 263040, Note Name: E4, Velocity: 72
Note ON: Time 263040, Note Name: G#3, Velocity: 61
Note ON: Time 263040, Note Name: D4, Velocity: 61
Note OFF: Time 263520, Note Name: D4
Note OFF: Time 263520, Note Name: G#3
Note OFF: Time 263520, Note Name: E4
Note ON: Time 263520, Note Name: D4, Velocity: 73
Note ON: Time 263520, Note Name: E3, Velocity: 61
Note ON: Time 263520, Note Name: G#3, Velocity: 61
Note OFF: Time 264000, Note Name: G#3
Note OFF: Time 264000, Note Name: E3
Note OFF: Time 264000, Note Name: D4
Note ON: Time 264000, Note Name: A2, Velocity: 84
Note ON: Time 264000, Note Name: A1, Velocity: 70
Note OFF: Time 264480, Note Name: A1
Note OFF: Time 264480, Note Name: A2
Note ON: Time 264480, Note Name: E3, Velocity: 61
Note ON: Time 264480, Note Name: C#4, Velocity: 73
Note OFF: Time 264960, Note Name: C#4
Note OFF: Time 264960, Note Name: E3
Note ON: Time 264960, Note Name: A3, Velocity: 62
Note ON: Time 264960, Note Name: E4, Velocity: 74
Note OFF: Time 265440, Note Name: E4
Note OFF: Time 265440, Note Name: A3
Note ON: Time 265440, Note Name: C#4, Velocity: 70
Note ON: Time 265440, Note Name: A4, Velocity: 84
Note OFF: Time 265920, Note Name: A4
Note OFF: Time 265920, Note Name: C#4
Note ON: Time 265920, Note Name: E4, Velocity: 73
Note ON: Time 265920, Note Name: A3, Velocity: 61
Note OFF: Time 266400, Note Name: A3
Note OFF: Time 266400, Note Name: E4
Note ON: Time 266400, Note Name: C#4, Velocity: 73
Note ON: Time 266400, Note Name: E3, Velocity: 61
Note OFF: Time 266880, Note Name: E3
Note OFF: Time 266880, Note Name: C#4
Note ON: Time 266880, Note Name: B2, Velocity: 84
Note ON: Time 266880, Note Name: B1, Velocity: 70
Note OFF: Time 267360, Note Name: B1
Note OFF: Time 267360, Note Name: B2
Note ON: Time 267360, Note Name: B3, Velocity: 73
Note ON: Time 267360, Note Name: F#3, Velocity: 61
Note OFF: Time 267840, Note Name: F#3
Note OFF: Time 267840, Note Name: B3
Note ON: Time 267840, Note Name: D#4, Velocity: 73
Note ON: Time 267840, Note Name: A3, Velocity: 61
Note OFF: Time 268320, Note Name: A3
Note OFF: Time 268320, Note Name: D#4
Note ON: Time 268320, Note Name: F#4, Velocity: 84
Note ON: Time 268320, Note Name: B3, Velocity: 70
Note OFF: Time 268800, Note Name: B3
Note OFF: Time 268800, Note Name: F#4
Note ON: Time 268800, Note Name: A3, Velocity: 61
Note ON: Time 268800, Note Name: D#4, Velocity: 72
Note OFF: Time 269280, Note Name: D#4
Note OFF: Time 269280, Note Name: A3
Note ON: Time 269280, Note Name: B3, Velocity: 72
Note ON: Time 269280, Note Name: F#3, Velocity: 61
Note OFF: Time 269760, Note Name: F#3
Note OFF: Time 269760, Note Name: B3
Note ON: Time 269760, Note Name: E3, Velocity: 84
Note ON: Time 269760, Note Name: E2, Velocity: 70
Note OFF: Time 270240, Note Name: E2
Note OFF: Time 270240, Note Name: E3
Note ON: Time 270240, Note Name: E3, Velocity: 62
Note ON: Time 270240, Note Name: B3, Velocity: 74
Note OFF: Time 270720, Note Name: B3
Note OFF: Time 270720, Note Name: E3
Note ON: Time 270720, Note Name: G#3, Velocity: 62
Note ON: Time 270720, Note Name: E4, Velocity: 74
Note OFF: Time 271200, Note Name: E4
Note OFF: Time 271200, Note Name: G#3
Note ON: Time 271200, Note Name: G#4, Velocity: 84
Note ON: Time 271200, Note Name: B3, Velocity: 70
Note OFF: Time 271680, Note Name: B3
Note OFF: Time 271680, Note Name: G#4
Note ON: Time 271680, Note Name: G#3, Velocity: 62
Note ON: Time 271680, Note Name: E4, Velocity: 74
Note OFF: Time 272160, Note Name: E4
Note OFF: Time 272160, Note Name: G#3
Note ON: Time 272160, Note Name: B3, Velocity: 74
Note ON: Time 272160, Note Name: E3, Velocity: 62
Note OFF: Time 272640, Note Name: E3
Note OFF: Time 272640, Note Name: B3
Note ON: Time 272640, Note Name: F#2, Velocity: 70
Note ON: Time 272640, Note Name: F#3, Velocity: 84
Note OFF: Time 273120, Note Name: F#3
Note OFF: Time 273120, Note Name: F#2
Note ON: Time 273120, Note Name: F#3, Velocity: 62
Note ON: Time 273120, Note Name: D4, Velocity: 74
Note OFF: Time 273600, Note Name: D4
Note OFF: Time 273600, Note Name: F#3
Note ON: Time 273600, Note Name: A4, Velocity: 74
Note ON: Time 273600, Note Name: A3, Velocity: 62
Note OFF: Time 274080, Note Name: A3
Note OFF: Time 274080, Note Name: A4
Note ON: Time 274080, Note Name: B1, Velocity: 70
Note ON: Time 274080, Note Name: B2, Velocity: 84
Note OFF: Time 274560, Note Name: B2
Note OFF: Time 274560, Note Name: B1
Note ON: Time 274560, Note Name: F#3, Velocity: 62
Note ON: Time 274560, Note Name: D4, Velocity: 74
Note OFF: Time 275040, Note Name: F#3
Note ON: Time 275040, Note Name: A4, Velocity: 74
Note ON: Time 275040, Note Name: B3, Velocity: 62
Note OFF: Time 275520, Note Name: B3
Note OFF: Time 275520, Note Name: A4
Note OFF: Time 275520, Note Name: D4
Note ON: Time 275520, Note Name: E3, Velocity: 84
Note ON: Time 275520, Note Name: E2, Velocity: 70
Note OFF: Time 276000, Note Name: E2
Note OFF: Time 276000, Note Name: E3
Note ON: Time 276000, Note Name: E3, Velocity: 62
Note ON: Time 276000, Note Name: C#4, Velocity: 74
Note OFF: Time 276480, Note Name: C#4
Note OFF: Time 276480, Note Name: E3
Note ON: Time 276480, Note Name: G#3, Velocity: 62
Note ON: Time 276480, Note Name: G#4, Velocity: 74
Note OFF: Time 276960, Note Name: G#4
Note OFF: Time 276960, Note Name: G#3
Note ON: Time 276960, Note Name: A2, Velocity: 84
Note ON: Time 276960, Note Name: A1, Velocity: 70
Note OFF: Time 277440, Note Name: A1
Note OFF: Time 277440, Note Name: A2
Note ON: Time 277440, Note Name: C#4, Velocity: 74
Note ON: Time 277440, Note Name: E3, Velocity: 62
Note OFF: Time 277920, Note Name: E3
Note ON: Time 277920, Note Name: G#4, Velocity: 74
Note ON: Time 277920, Note Name: A3, Velocity: 62
Note OFF: Time 278400, Note Name: A3
Note OFF: Time 278400, Note Name: G#4
Note OFF: Time 278400, Note Name: C#4
Note ON: Time 278400, Note Name: D2, Velocity: 70
Note ON: Time 278400, Note Name: D3, Velocity: 84
Note OFF: Time 278880, Note Name: D3
Note OFF: Time 278880, Note Name: D2
Note ON: Time 278880, Note Name: D3, Velocity: 62
Note ON: Time 278880, Note Name: B3, Velocity: 74
Note OFF: Time 279360, Note Name: B3
Note OFF: Time 279360, Note Name: D3
Note ON: Time 279360, Note Name: F#3, Velocity: 62
Note ON: Time 279360, Note Name: F#4, Velocity: 74
Note OFF: Time 279840, Note Name: F#4
Note OFF: Time 279840, Note Name: F#3
Note ON: Time 279840, Note Name: C#2, Velocity: 70
Note ON: Time 279840, Note Name: C#3, Velocity: 84
Note OFF: Time 280320, Note Name: C#3
Note OFF: Time 280320, Note Name: C#2
Note ON: Time 280320, Note Name: C#4, Velocity: 74
Note ON: Time 280320, Note Name: G#3, Velocity: 62
Note OFF: Time 280800, Note Name: G#3
Note OFF: Time 280800, Note Name: C#4
Note ON: Time 280800, Note Name: F4, Velocity: 74
Note ON: Time 280800, Note Name: B3, Velocity: 62
Note OFF: Time 281280, Note Name: B3
Note OFF: Time 281280, Note Name: F4
Note ON: Time 281280, Note Name: F#2, Velocity: 84
Note ON: Time 281280, Note Name: F#1, Velocity: 70
Note OFF: Time 281760, Note Name: F#1
Note OFF: Time 281760, Note Name: F#2
Note ON: Time 281760, Note Name: F#3, Velocity: 62
Note ON: Time 281760, Note Name: C#4, Velocity: 74
Note OFF: Time 282240, Note Name: C#4
Note ON: Time 282240, Note Name: A3, Velocity: 62
Note ON: Time 282240, Note Name: F#4, Velocity: 74
Note OFF: Time 282720, Note Name: F#4
Note OFF: Time 282720, Note Name: A3
Note OFF: Time 282720, Note Name: F#3
Note ON: Time 282720, Note Name: B1, Velocity: 70
Note ON: Time 282720, Note Name: B2, Velocity: 84
Note OFF: Time 283200, Note Name: B2
Note OFF: Time 283200, Note Name: B1
Note ON: Time 283200, Note Name: B3, Velocity: 74
Note ON: Time 283200, Note Name: F3, Velocity: 62
Note OFF: Time 283680, Note Name: B3
Note ON: Time 283680, Note Name: D#4, Velocity: 74
Note ON: Time 283680, Note Name: A3, Velocity: 62
Note OFF: Time 284160, Note Name: A3
Note OFF: Time 284160, Note Name: D#4
Note OFF: Time 284160, Note Name: F3
Note ON: Time 284160, Note Name: E2, Velocity: 84
Note ON: Time 284160, Note Name: E1, Velocity: 70
Note OFF: Time 284640, Note Name: E1
Note OFF: Time 284640, Note Name: E2
Note ON: Time 284640, Note Name: G#3, Velocity: 72
Note ON: Time 284640, Note Name: B2, Velocity: 61
Note OFF: Time 285120, Note Name: B2
Note OFF: Time 285120, Note Name: G#3
Note ON: Time 285120, Note Name: B3, Velocity: 73
Note ON: Time 285120, Note Name: E3, Velocity: 61
Note OFF: Time 285600, Note Name: E3
Note OFF: Time 285600, Note Name: B3
Note ON: Time 285600, Note Name: G#3, Velocity: 70
Note ON: Time 285600, Note Name: D4, Velocity: 84
Note OFF: Time 286080, Note Name: D4
Note OFF: Time 286080, Note Name: G#3
Note ON: Time 286080, Note Name: B3, Velocity: 72
Note ON: Time 286080, Note Name: E3, Velocity: 61
Note OFF: Time 286560, Note Name: E3
Note OFF: Time 286560, Note Name: B3
Note ON: Time 286560, Note Name: B2, Velocity: 61
Note ON: Time 286560, Note Name: G#3, Velocity: 73
Note OFF: Time 287040, Note Name: G#3
Note OFF: Time 287040, Note Name: B2
Note ON: Time 287040, Note Name: A1, Velocity: 70
Note ON: Time 287040, Note Name: A2, Velocity: 84
Note OFF: Time 287520, Note Name: A2
Note OFF: Time 287520, Note Name: A1
Note ON: Time 287520, Note Name: E3, Velocity: 61
Note ON: Time 287520, Note Name: C#4, Velocity: 73
Note OFF: Time 288000, Note Name: C#4
Note OFF: Time 288000, Note Name: E3
Note ON: Time 288000, Note Name: A3, Velocity: 62
Note ON: Time 288000, Note Name: E4, Velocity: 74
Note OFF: Time 288480, Note Name: E4
Note OFF: Time 288480, Note Name: A3
Note ON: Time 288480, Note Name: C#4, Velocity: 70
Note ON: Time 288480, Note Name: A4, Velocity: 84
Note OFF: Time 288960, Note Name: A4
Note OFF: Time 288960, Note Name: C#4
Note ON: Time 288960, Note Name: E4, Velocity: 73
Note ON: Time 288960, Note Name: A3, Velocity: 61
Note OFF: Time 289440, Note Name: A3
Note OFF: Time 289440, Note Name: E4
Note ON: Time 289440, Note Name: C#4, Velocity: 73
Note ON: Time 289440, Note Name: E3, Velocity: 61
Note OFF: Time 289920, Note Name: E3
Note OFF: Time 289920, Note Name: C#4
Note ON: Time 289920, Note Name: B1, Velocity: 70
Note ON: Time 289920, Note Name: B2, Velocity: 84
Note OFF: Time 290400, Note Name: B2
Note OFF: Time 290400, Note Name: B1
Note ON: Time 290400, Note Name: B3, Velocity: 73
Note ON: Time 290400, Note Name: F#3, Velocity: 61
Note OFF: Time 290880, Note Name: F#3
Note OFF: Time 290880, Note Name: B3
Note ON: Time 290880, Note Name: D#4, Velocity: 73
Note ON: Time 290880, Note Name: A3, Velocity: 61
Note OFF: Time 291360, Note Name: A3
Note OFF: Time 291360, Note Name: D#4
Note ON: Time 291360, Note Name: B3, Velocity: 70
Note ON: Time 291360, Note Name: F#4, Velocity: 84
Note OFF: Time 291840, Note Name: F#4
Note OFF: Time 291840, Note Name: B3
Note ON: Time 291840, Note Name: A3, Velocity: 61
Note ON: Time 291840, Note Name: D#4, Velocity: 72
Note OFF: Time 292320, Note Name: D#4
Note OFF: Time 292320, Note Name: A3
Note ON: Time 292320, Note Name: B3, Velocity: 72
Note ON: Time 292320, Note Name: F#3, Velocity: 61
Note OFF: Time 292800, Note Name: F#3
Note OFF: Time 292800, Note Name: B3
Note ON: Time 292800, Note Name: E3, Velocity: 84
Note ON: Time 292800, Note Name: E2, Velocity: 70
Note OFF: Time 293280, Note Name: E2
Note OFF: Time 293280, Note Name: E3
Note ON: Time 293280, Note Name: E3, Velocity: 62
Note ON: Time 293280, Note Name: B3, Velocity: 74
Note OFF: Time 293760, Note Name: B3
Note OFF: Time 293760, Note Name: E3
Note ON: Time 293760, Note Name: G#3, Velocity: 62
Note ON: Time 293760, Note Name: E4, Velocity: 74
Note OFF: Time 294240, Note Name: E4
Note OFF: Time 294240, Note Name: G#3
Note ON: Time 294240, Note Name: B3, Velocity: 70
Note ON: Time 294240, Note Name: G#4, Velocity: 84
Note OFF: Time 294720, Note Name: G#4
Note OFF: Time 294720, Note Name: B3
Note ON: Time 294720, Note Name: G#3, Velocity: 62
Note ON: Time 294720, Note Name: E4, Velocity: 74
Note OFF: Time 295200, Note Name: E4
Note OFF: Time 295200, Note Name: G#3
Note ON: Time 295200, Note Name: B3, Velocity: 74
Note ON: Time 295200, Note Name: E3, Velocity: 62
Note OFF: Time 295680, Note Name: E3
Note OFF: Time 295680, Note Name: B3
Note ON: Time 295680, Note Name: E3, Velocity: 84
Note ON: Time 295680, Note Name: E2, Velocity: 70
Note OFF: Time 296160, Note Name: E2
Note OFF: Time 296160, Note Name: E3
Note ON: Time 296160, Note Name: A#3, Velocity: 74
Note ON: Time 296160, Note Name: E3, Velocity: 62
Note OFF: Time 296640, Note Name: E3
Note OFF: Time 296640, Note Name: A#3
Note ON: Time 296640, Note Name: C#4, Velocity: 74
Note ON: Time 296640, Note Name: F#3, Velocity: 62
Note OFF: Time 297120, Note Name: F#3
Note OFF: Time 297120, Note Name: C#4
Note ON: Time 297120, Note Name: A#3, Velocity: 70
Note ON: Time 297120, Note Name: E4, Velocity: 84
Note OFF: Time 297600, Note Name: E4
Note OFF: Time 297600, Note Name: A#3
Note ON: Time 297600, Note Name: F#3, Velocity: 62
Note ON: Time 297600, Note Name: C#4, Velocity: 74
Note OFF: Time 298080, Note Name: C#4
Note OFF: Time 298080, Note Name: F#3
Note ON: Time 298080, Note Name: E3, Velocity: 62
Note ON: Time 298080, Note Name: A#3, Velocity: 74
Note OFF: Time 298560, Note Name: A#3
Note OFF: Time 298560, Note Name: E3
Note ON: Time 298560, Note Name: E1, Velocity: 70
Note ON: Time 298560, Note Name: E2, Velocity: 84
Note OFF: Time 299040, Note Name: E2
Note OFF: Time 299040, Note Name: E1
Note ON: Time 299040, Note Name: E3, Velocity: 62
Note ON: Time 299040, Note Name: A#3, Velocity: 74
Note OFF: Time 299520, Note Name: A#3
Note OFF: Time 299520, Note Name: E3
Note ON: Time 299520, Note Name: F#3, Velocity: 62
Note ON: Time 299520, Note Name: C#4, Velocity: 74
Note OFF: Time 300000, Note Name: C#4
Note OFF: Time 300000, Note Name: F#3
Note ON: Time 300000, Note Name: E4, Velocity: 84
Note ON: Time 300000, Note Name: A#3, Velocity: 70
Note OFF: Time 300480, Note Name: A#3
Note OFF: Time 300480, Note Name: E4
Note ON: Time 300480, Note Name: C#4, Velocity: 74
Note ON: Time 300480, Note Name: F#3, Velocity: 62
Note OFF: Time 300960, Note Name: F#3
Note OFF: Time 300960, Note Name: C#4
Note ON: Time 300960, Note Name: E3, Velocity: 62
Note ON: Time 300960, Note Name: A#3, Velocity: 74
Note OFF: Time 301440, Note Name: A#3
Note OFF: Time 301440, Note Name: E3
Note ON: Time 301440, Note Name: E2, Velocity: 70
Note ON: Time 301440, Note Name: E3, Velocity: 84
Note OFF: Time 301920, Note Name: E3
Note OFF: Time 301920, Note Name: E2
Note ON: Time 301920, Note Name: E3, Velocity: 62
Note ON: Time 301920, Note Name: C4, Velocity: 74
Note OFF: Time 302400, Note Name: C4
Note OFF: Time 302400, Note Name: E3
Note ON: Time 302400, Note Name: G#3, Velocity: 62
Note ON: Time 302400, Note Name: D#4, Velocity: 74
Note OFF: Time 302880, Note Name: D#4
Note OFF: Time 302880, Note Name: G#3
Note ON: Time 302880, Note Name: F#4, Velocity: 84
Note ON: Time 302880, Note Name: C4, Velocity: 70
Note OFF: Time 303360, Note Name: C4
Note OFF: Time 303360, Note Name: F#4
Note ON: Time 303360, Note Name: G#3, Velocity: 62
Note ON: Time 303360, Note Name: D#4, Velocity: 74
Note OFF: Time 303840, Note Name: D#4
Note OFF: Time 303840, Note Name: G#3
Note ON: Time 303840, Note Name: E3, Velocity: 62
Note ON: Time 303840, Note Name: C4, Velocity: 74
Note OFF: Time 304320, Note Name: C4
Note OFF: Time 304320, Note Name: E3
Note ON: Time 304320, Note Name: E2, Velocity: 84
Note ON: Time 304320, Note Name: E1, Velocity: 70
Note OFF: Time 304800, Note Name: E1
Note OFF: Time 304800, Note Name: E2
Note ON: Time 304800, Note Name: E3, Velocity: 62
Note ON: Time 304800, Note Name: B3, Velocity: 74
Note OFF: Time 305280, Note Name: B3
Note OFF: Time 305280, Note Name: E3
Note ON: Time 305280, Note Name: G#3, Velocity: 62
Note ON: Time 305280, Note Name: D#4, Velocity: 74
Note OFF: Time 305760, Note Name: D#4
Note OFF: Time 305760, Note Name: G#3
Note ON: Time 305760, Note Name: C4, Velocity: 70
Note ON: Time 305760, Note Name: F#4, Velocity: 84
Note OFF: Time 306240, Note Name: F#4
Note OFF: Time 306240, Note Name: C4
Note ON: Time 306240, Note Name: D#4, Velocity: 74
Note ON: Time 306240, Note Name: G#3, Velocity: 62
Note OFF: Time 306720, Note Name: G#3
Note OFF: Time 306720, Note Name: D#4
Note ON: Time 306720, Note Name: C4, Velocity: 74
Note ON: Time 306720, Note Name: E3, Velocity: 62
Note OFF: Time 307200, Note Name: E3
Note OFF: Time 307200, Note Name: C4
Note ON: Time 307200, Note Name: E2, Velocity: 70
Note ON: Time 307200, Note Name: E3, Velocity: 84
Note OFF: Time 307680, Note Name: E3
Note OFF: Time 307680, Note Name: E2
Note ON: Time 307680, Note Name: E3, Velocity: 74
Note ON: Time 307680, Note Name: C#4, Velocity: 62
Note OFF: Time 308160, Note Name: C#4
Note OFF: Time 308160, Note Name: E3
Note ON: Time 308160, Note Name: G#3, Velocity: 62
Note ON: Time 308160, Note Name: E4, Velocity: 74
Note OFF: Time 308640, Note Name: E4
Note OFF: Time 308640, Note Name: G#3
Note ON: Time 308640, Note Name: D#2, Velocity: 70
Note ON: Time 308640, Note Name: D#3, Velocity: 84
Note OFF: Time 309120, Note Name: D#3
Note OFF: Time 309120, Note Name: D#2
Note ON: Time 309120, Note Name: D#3, Velocity: 62
Note ON: Time 309120, Note Name: B3, Velocity: 74
Note OFF: Time 309600, Note Name: B3
Note OFF: Time 309600, Note Name: D#3
Note ON: Time 309600, Note Name: D#4, Velocity: 74
Note ON: Time 309600, Note Name: G#3, Velocity: 62
Note OFF: Time 310080, Note Name: G#3
Note OFF: Time 310080, Note Name: D#4
Note ON: Time 310080, Note Name: C#2, Velocity: 70
Note ON: Time 310080, Note Name: C#3, Velocity: 84
Note OFF: Time 310560, Note Name: C#3
Note OFF: Time 310560, Note Name: C#2
Note ON: Time 310560, Note Name: G#3, Velocity: 74
Note ON: Time 310560, Note Name: C#3, Velocity: 62
Note OFF: Time 311040, Note Name: C#3
Note OFF: Time 311040, Note Name: G#3
Note ON: Time 311040, Note Name: C#4, Velocity: 75
Note ON: Time 311040, Note Name: E3, Velocity: 63
Note OFF: Time 311520, Note Name: E3
Note OFF: Time 311520, Note Name: C#4
Note ON: Time 311520, Note Name: G#1, Velocity: 72
Note ON: Time 311520, Note Name: G#2, Velocity: 88
Note OFF: Time 312000, Note Name: G#2
Note OFF: Time 312000, Note Name: G#1
Note ON: Time 312000, Note Name: B2, Velocity: 66
Note ON: Time 312000, Note Name: G#3, Velocity: 79
Note OFF: Time 312480, Note Name: G#3
Note OFF: Time 312480, Note Name: B2
Note ON: Time 312480, Note Name: D#3, Velocity: 67
Note ON: Time 312480, Note Name: B3, Velocity: 80
Note OFF: Time 312960, Note Name: B3
Note OFF: Time 312960, Note Name: D#3
Note ON: Time 312960, Note Name: F2, Velocity: 88
Note ON: Time 312960, Note Name: F1, Velocity: 72
Note OFF: Time 313200, Note Name: F1
Note OFF: Time 313200, Note Name: F2
Note ON: Time 313590, Note Name: F3, Velocity: 52
Note ON: Time 313620, Note Name: B3, Velocity: 54
Note ON: Time 313650, Note Name: D#4, Velocity: 56
Note ON: Time 313680, Note Name: G#4, Velocity: 59
Note OFF: Time 314160, Note Name: G#4
Note OFF: Time 314160, Note Name: F3
Note OFF: Time 314160, Note Name: B3
Note OFF: Time 314160, Note Name: D#4
Note ON: Time 315840, Note Name: A#1, Velocity: 44
Note OFF: Time 316080, Note Name: A#1
Note ON: Time 316080, Note Name: D3, Velocity: 34
Note OFF: Time 316320, Note Name: D3
Note ON: Time 316560, Note Name: A#1, Velocity: 44
Note OFF: Time 316800, Note Name: A#1
Note ON: Time 316800, Note Name: D3, Velocity: 34
Note OFF: Time 317040, Note Name: D3
Note ON: Time 317280, Note Name: A#1, Velocity: 46
Note OFF: Time 317520, Note Name: A#1
Note ON: Time 317520, Note Name: D3, Velocity: 34
Note OFF: Time 317760, Note Name: D3
Note ON: Time 318000, Note Name: A#1, Velocity: 48
Note OFF: Time 318240, Note Name: A#1
Note ON: Time 318240, Note Name: D3, Velocity: 34
Note OFF: Time 318480, Note Name: D3
Note ON: Time 318720, Note Name: D3, Velocity: 49
Note OFF: Time 318960, Note Name: D3
Note ON: Time 318960, Note Name: F4, Velocity: 34
Note OFF: Time 319200, Note Name: F4
Note ON: Time 319440, Note Name: D3, Velocity: 52
Note OFF: Time 319680, Note Name: D3
Note ON: Time 319680, Note Name: F4, Velocity: 36
Note OFF: Time 319920, Note Name: F4
Note ON: Time 320160, Note Name: D3, Velocity: 53
Note OFF: Time 320400, Note Name: D3
Note ON: Time 320400, Note Name: F4, Velocity: 38
Note OFF: Time 320640, Note Name: F4
Note ON: Time 320880, Note Name: D3, Velocity: 55
Note OFF: Time 321120, Note Name: D3
Note ON: Time 321120, Note Name: F4, Velocity: 40
Note OFF: Time 321360, Note Name: F4
Note ON: Time 321600, Note Name: A#1, Velocity: 50
Note OFF: Time 321840, Note Name: A#1
Note ON: Time 322320, Note Name: G#3, Velocity: 45
Note ON: Time 322320, Note Name: F3, Velocity: 37
Note ON: Time 322320, Note Name: A#2, Velocity: 37
Note OFF: Time 322560, Note Name: A#2
Note OFF: Time 322560, Note Name: F3
Note OFF: Time 322560, Note Name: G#3
Note ON: Time 323040, Note Name: F3, Velocity: 37
Note ON: Time 323040, Note Name: D4, Velocity: 45
Note ON: Time 323040, Note Name: G#3, Velocity: 37
Note OFF: Time 323280, Note Name: G#3
Note OFF: Time 323280, Note Name: D4
Note OFF: Time 323280, Note Name: F3
Note ON: Time 323760, Note Name: D4, Velocity: 36
Note ON: Time 323760, Note Name: G#3, Velocity: 36
Note ON: Time 323760, Note Name: F4, Velocity: 44
Note OFF: Time 324000, Note Name: F4
Note OFF: Time 324000, Note Name: G#3
Note OFF: Time 324000, Note Name: D4
Note ON: Time 324480, Note Name: G#4, Velocity: 43
Note ON: Time 324480, Note Name: A#3, Velocity: 36
Note ON: Time 324480, Note Name: F4, Velocity: 36
Note OFF: Time 324720, Note Name: F4
Note OFF: Time 324720, Note Name: A#3
Note OFF: Time 324720, Note Name: G#4
Note ON: Time 325200, Note Name: F4, Velocity: 35
Note ON: Time 325200, Note Name: G#4, Velocity: 35
Note ON: Time 325200, Note Name: D5, Velocity: 42
Note OFF: Time 325440, Note Name: D5
Note OFF: Time 325440, Note Name: G#4
Note OFF: Time 325440, Note Name: F4
Note ON: Time 325920, Note Name: G#4, Velocity: 39
Note ON: Time 325920, Note Name: D5, Velocity: 39
Note ON: Time 325920, Note Name: F5, Velocity: 46
Note OFF: Time 326160, Note Name: F5
Note OFF: Time 326160, Note Name: D5
Note OFF: Time 326160, Note Name: G#4
Note ON: Time 326640, Note Name: G#5, Velocity: 45
Note ON: Time 326640, Note Name: F5, Velocity: 38
Note ON: Time 326640, Note Name: A#4, Velocity: 38
Note OFF: Time 326880, Note Name: A#4
Note OFF: Time 326880, Note Name: F5
Note OFF: Time 326880, Note Name: G#5
Note ON: Time 327360, Note Name: F5, Velocity: 37
Note ON: Time 327360, Note Name: G#5, Velocity: 37
Note ON: Time 327360, Note Name: D6, Velocity: 44
Note OFF: Time 329520, Note Name: D6
Note OFF: Time 329520, Note Name: G#5
Note OFF: Time 329520, Note Name: F5
Note ON: Time 329520, Note Name: C6, Velocity: 44
Note ON: Time 329520, Note Name: D#5, Velocity: 37
Note ON: Time 329520, Note Name: G#5, Velocity: 37
Note OFF: Time 330240, Note Name: G#5
Note OFF: Time 330240, Note Name: D#5
Note OFF: Time 330240, Note Name: C6
Note ON: Time 330240, Note Name: D#5, Velocity: 37
Note ON: Time 330240, Note Name: C6, Velocity: 44
Note ON: Time 330240, Note Name: G#5, Velocity: 37
Note OFF: Time 330960, Note Name: C6
Note OFF: Time 330960, Note Name: D#5
Note ON: Time 330960, Note Name: D5, Velocity: 37
Note ON: Time 330960, Note Name: A#5, Velocity: 44
Note OFF: Time 331200, Note Name: A#5
Note OFF: Time 331200, Note Name: D5
Note OFF: Time 331200, Note Name: G#5
Note ON: Time 333120, Note Name: D#3, Velocity: 42
Note OFF: Time 333240, Note Name: D#3
Note ON: Time 333360, Note Name: D#4, Velocity: 28
Note ON: Time 333360, Note Name: G4, Velocity: 28
Note ON: Time 333360, Note Name: C5, Velocity: 48
Note OFF: Time 333600, Note Name: C5
Note ON: Time 333600, Note Name: A#4, Velocity: 35
Note OFF: Time 333840, Note Name: A#4
Note OFF: Time 333840, Note Name: G4
Note OFF: Time 333840, Note Name: D#4
Note ON: Time 333840, Note Name: A#2, Velocity: 41
Note OFF: Time 333960, Note Name: A#2
Note ON: Time 334080, Note Name: D4, Velocity: 23
Note ON: Time 334080, Note Name: G#4, Velocity: 27
Note ON: Time 334080, Note Name: A3, Velocity: 33
Note OFF: Time 334320, Note Name: A3
Note ON: Time 334320, Note Name: A#3, Velocity: 33
Note OFF: Time 334560, Note Name: A#3
Note OFF: Time 334560, Note Name: G#4
Note OFF: Time 334560, Note Name: D4
Note ON: Time 334560, Note Name: D#3, Velocity: 42
Note OFF: Time 334680, Note Name: D#3
Note ON: Time 334800, Note Name: G4, Velocity: 28
Note ON: Time 334800, Note Name: D#4, Velocity: 28
Note ON: Time 334800, Note Name: C5, Velocity: 48
Note OFF: Time 335040, Note Name: C5
Note ON: Time 335040, Note Name: A#4, Velocity: 35
Note OFF: Time 335280, Note Name: A#4
Note OFF: Time 335280, Note Name: D#4
Note OFF: Time 335280, Note Name: G4
Note ON: Time 335280, Note Name: A#2, Velocity: 41
Note OFF: Time 335400, Note Name: A#2
Note ON: Time 335520, Note Name: D4, Velocity: 23
Note ON: Time 335520, Note Name: A3, Velocity: 33
Note ON: Time 335520, Note Name: G#4, Velocity: 27
Note OFF: Time 335760, Note Name: A3
Note ON: Time 335760, Note Name: A#3, Velocity: 33
Note OFF: Time 336000, Note Name: A#3
Note OFF: Time 336000, Note Name: G#4
Note OFF: Time 336000, Note Name: D4
Note ON: Time 336000, Note Name: D#3, Velocity: 42
Note OFF: Time 336120, Note Name: D#3
Note ON: Time 336240, Note Name: A#3, Velocity: 28
Note ON: Time 336240, Note Name: D#4, Velocity: 28
Note ON: Time 336240, Note Name: G#4, Velocity: 48
Note OFF: Time 336480, Note Name: G#4
Note ON: Time 336480, Note Name: G4, Velocity: 36
Note OFF: Time 336720, Note Name: G4
Note OFF: Time 336720, Note Name: D#4
Note OFF: Time 336720, Note Name: A#3
Note ON: Time 336720, Note Name: G#2, Velocity: 43
Note OFF: Time 336840, Note Name: G#2
Note ON: Time 336960, Note Name: C4, Velocity: 29
Note ON: Time 336960, Note Name: G4, Velocity: 50
Note ON: Time 336960, Note Name: G#3, Velocity: 29
Note OFF: Time 337200, Note Name: G4
Note ON: Time 337200, Note Name: F4, Velocity: 37
Note OFF: Time 337440, Note Name: F4
Note OFF: Time 337440, Note Name: G#3
Note OFF: Time 337440, Note Name: C4
Note ON: Time 337440, Note Name: A#2, Velocity: 45
Note OFF: Time 337560, Note Name: A#2
Note ON: Time 337680, Note Name: D#4, Velocity: 50
Note ON: Time 337680, Note Name: F3, Velocity: 29
Note ON: Time 337680, Note Name: G#3, Velocity: 29
Note OFF: Time 337920, Note Name: D#4
Note ON: Time 337920, Note Name: D4, Velocity: 36
Note OFF: Time 338160, Note Name: D4
Note OFF: Time 338160, Note Name: G#3
Note OFF: Time 338160, Note Name: F3
Note ON: Time 338160, Note Name: A#2, Velocity: 41
Note OFF: Time 338280, Note Name: A#2
Note ON: Time 338400, Note Name: F3, Velocity: 27
Note ON: Time 338400, Note Name: G#3, Velocity: 27
Note ON: Time 338400, Note Name: C4, Velocity: 46
Note OFF: Time 338640, Note Name: C4
Note ON: Time 338640, Note Name: A#3, Velocity: 34
Note OFF: Time 338880, Note Name: A#3
Note OFF: Time 338880, Note Name: G#3
Note OFF: Time 338880, Note Name: F3
Note ON: Time 338880, Note Name: D#3, Velocity: 42
Note OFF: Time 339000, Note Name: D#3
Note ON: Time 339120, Note Name: D#4, Velocity: 28
Note ON: Time 339120, Note Name: G4, Velocity: 28
Note ON: Time 339120, Note Name: C5, Velocity: 48
Note OFF: Time 339360, Note Name: C5
Note ON: Time 339360, Note Name: A#4, Velocity: 35
Note OFF: Time 339600, Note Name: A#4
Note OFF: Time 339600, Note Name: G4
Note OFF: Time 339600, Note Name: D#4
Note ON: Time 339600, Note Name: A#2, Velocity: 41
Note OFF: Time 339720, Note Name: A#2
Note ON: Time 339840, Note Name: A3, Velocity: 33
Note ON: Time 339840, Note Name: G#4, Velocity: 27
Note ON: Time 339840, Note Name: D4, Velocity: 23
Note OFF: Time 340080, Note Name: A3
Note ON: Time 340080, Note Name: A#3, Velocity: 33
Note OFF: Time 340320, Note Name: A#3
Note OFF: Time 340320, Note Name: D4
Note OFF: Time 340320, Note Name: G#4
Note ON: Time 340320, Note Name: D#3, Velocity: 42
Note OFF: Time 340440, Note Name: D#3
Note ON: Time 340560, Note Name: C5, Velocity: 48
Note ON: Time 340560, Note Name: D#4, Velocity: 28
Note ON: Time 340560, Note Name: G4, Velocity: 28
Note OFF: Time 340800, Note Name: C5
Note ON: Time 340800, Note Name: A#4, Velocity: 35
Note OFF: Time 341040, Note Name: A#4
Note OFF: Time 341040, Note Name: G4
Note OFF: Time 341040, Note Name: D#4
Note ON: Time 341040, Note Name: A#2, Velocity: 41
Note OFF: Time 341160, Note Name: A#2
Note ON: Time 341280, Note Name: D4, Velocity: 23
Note ON: Time 341280, Note Name: G#4, Velocity: 27
Note ON: Time 341280, Note Name: A3, Velocity: 33
Note OFF: Time 341520, Note Name: A3
Note ON: Time 341520, Note Name: A#3, Velocity: 33
Note OFF: Time 341760, Note Name: A#3
Note OFF: Time 341760, Note Name: G#4
Note OFF: Time 341760, Note Name: D4
Note ON: Time 341760, Note Name: D#3, Velocity: 42
Note OFF: Time 341880, Note Name: D#3
Note ON: Time 342000, Note Name: G4, Velocity: 28
Note ON: Time 342000, Note Name: F5, Velocity: 48
Note ON: Time 342000, Note Name: A#4, Velocity: 28
Note OFF: Time 342240, Note Name: F5
Note ON: Time 342240, Note Name: D#5, Velocity: 36
Note OFF: Time 342480, Note Name: D#5
Note OFF: Time 342480, Note Name: A#4
Note OFF: Time 342480, Note Name: G4
Note ON: Time 342480, Note Name: G#2, Velocity: 43
Note OFF: Time 342600, Note Name: G#2
Note ON: Time 342720, Note Name: G4, Velocity: 50
Note ON: Time 342720, Note Name: C4, Velocity: 29
Note ON: Time 342720, Note Name: G#3, Velocity: 29
Note OFF: Time 342960, Note Name: G4
Note ON: Time 342960, Note Name: F4, Velocity: 37
Note OFF: Time 343200, Note Name: F4
Note OFF: Time 343200, Note Name: G#3
Note OFF: Time 343200, Note Name: C4
Note ON: Time 343200, Note Name: A#2, Velocity: 48
Note OFF: Time 343440, Note Name: A#2
Note ON: Time 343680, Note Name: D4, Velocity: 38
Note ON: Time 343680, Note Name: G#3, Velocity: 38
Note ON: Time 343680, Note Name: F3, Velocity: 38
Note OFF: Time 343920, Note Name: F3
Note OFF: Time 343920, Note Name: G#3
Note OFF: Time 343920, Note Name: D4
Note ON: Time 343920, Note Name: G#3, Velocity: 38
Note ON: Time 343920, Note Name: F3, Velocity: 38
Note ON: Time 343920, Note Name: D4, Velocity: 38
Note OFF: Time 344160, Note Name: D4
Note OFF: Time 344160, Note Name: F3
Note OFF: Time 344160, Note Name: G#3
Note ON: Time 344160, Note Name: F3, Velocity: 38
Note ON: Time 344160, Note Name: G#3, Velocity: 38
Note ON: Time 344160, Note Name: D4, Velocity: 38
Note OFF: Time 344400, Note Name: D4
Note OFF: Time 344400, Note Name: G#3
Note OFF: Time 344400, Note Name: F3
Note ON: Time 344400, Note Name: G#3, Velocity: 38
Note ON: Time 344400, Note Name: D4, Velocity: 38
Note ON: Time 344400, Note Name: F3, Velocity: 38
Note OFF: Time 344640, Note Name: F3
Note OFF: Time 344640, Note Name: D4
Note OFF: Time 344640, Note Name: G#3
Note ON: Time 344640, Note Name: A#3, Velocity: 49
Note ON: Time 344640, Note Name: C#4, Velocity: 58
Note ON: Time 344640, Note Name: D#3, Velocity: 49
Note OFF: Time 344880, Note Name: D#3
Note OFF: Time 344880, Note Name: C#4
Note OFF: Time 344880, Note Name: A#3
Note ON: Time 345000, Note Name: D#3, Velocity: 49
Note ON: Time 345000, Note Name: D#2, Velocity: 41
Note OFF: Time 345120, Note Name: D#2
Note OFF: Time 345120, Note Name: D#3
Note ON: Time 345120, Note Name: D#3, Velocity: 50
Note ON: Time 345120, Note Name: D#2, Velocity: 41
Note OFF: Time 345240, Note Name: D#2
Note OFF: Time 345240, Note Name: D#3
Note ON: Time 345360, Note Name: G#3, Velocity: 42
Note ON: Time 345360, Note Name: C4, Velocity: 51
Note OFF: Time 345480, Note Name: C4
Note OFF: Time 345480, Note Name: G#3
Note ON: Time 345600, Note Name: G2, Velocity: 42
Note ON: Time 345600, Note Name: G3, Velocity: 51
Note OFF: Time 345720, Note Name: G3
Note OFF: Time 345720, Note Name: G2
Note ON: Time 345840, Note Name: F#2, Velocity: 44
Note ON: Time 345840, Note Name: F#3, Velocity: 52
Note OFF: Time 345960, Note Name: F#3
Note OFF: Time 345960, Note Name: F#2
Note ON: Time 346080, Note Name: A3, Velocity: 49
Note ON: Time 346080, Note Name: D#4, Velocity: 58
Note OFF: Time 346320, Note Name: D#4
Note OFF: Time 346320, Note Name: A3
Note ON: Time 346440, Note Name: F3, Velocity: 49
Note ON: Time 346440, Note Name: F2, Velocity: 41
Note OFF: Time 346560, Note Name: F2
Note OFF: Time 346560, Note Name: F3
Note ON: Time 346560, Note Name: F2, Velocity: 41
Note ON: Time 346560, Note Name: F3, Velocity: 50
Note OFF: Time 346680, Note Name: F3
Note OFF: Time 346680, Note Name: F2
Note ON: Time 346800, Note Name: D4, Velocity: 51
Note ON: Time 346800, Note Name: A#3, Velocity: 42
Note OFF: Time 346920, Note Name: A#3
Note OFF: Time 346920, Note Name: D4
Note ON: Time 347040, Note Name: A2, Velocity: 42
Note ON: Time 347040, Note Name: A3, Velocity: 51
Note OFF: Time 347160, Note Name: A3
Note OFF: Time 347160, Note Name: A2
Note ON: Time 347280, Note Name: G#2, Velocity: 44
Note ON: Time 347280, Note Name: G#3, Velocity: 52
Note OFF: Time 347400, Note Name: G#3
Note OFF: Time 347400, Note Name: G#2
Note ON: Time 347520, Note Name: B3, Velocity: 49
Note ON: Time 347520, Note Name: F4, Velocity: 58
Note OFF: Time 347760, Note Name: F4
Note OFF: Time 347760, Note Name: B3
Note ON: Time 347880, Note Name: G2, Velocity: 41
Note ON: Time 347880, Note Name: G3, Velocity: 49
Note OFF: Time 348000, Note Name: G3
Note OFF: Time 348000, Note Name: G2
Note ON: Time 348000, Note Name: G2, Velocity: 41
Note ON: Time 348000, Note Name: G3, Velocity: 50
Note OFF: Time 348120, Note Name: G3
Note OFF: Time 348120, Note Name: G2
Note ON: Time 348240, Note Name: D#4, Velocity: 51
Note ON: Time 348240, Note Name: C4, Velocity: 42
Note OFF: Time 348360, Note Name: C4
Note OFF: Time 348360, Note Name: D#4
Note ON: Time 348480, Note Name: C3, Velocity: 51
Note ON: Time 348480, Note Name: C2, Velocity: 42
Note OFF: Time 348720, Note Name: C2
Note OFF: Time 348720, Note Name: C3
Note ON: Time 348960, Note Name: G#3, Velocity: 46
Note ON: Time 348960, Note Name: D#4, Velocity: 53
Note OFF: Time 349200, Note Name: D#4
Note OFF: Time 349200, Note Name: G#3
Note ON: Time 349200, Note Name: B2, Velocity: 62
Note OFF: Time 349440, Note Name: B2
Note ON: Time 349680, Note Name: G#3, Velocity: 42
Note ON: Time 349680, Note Name: D4, Velocity: 51
Note OFF: Time 349920, Note Name: D4
Note OFF: Time 349920, Note Name: G#3
Note ON: Time 349920, Note Name: A#2, Velocity: 60
Note OFF: Time 350160, Note Name: A#2
Note ON: Time 350400, Note Name: D#3, Velocity: 37
Note ON: Time 350400, Note Name: D#2, Velocity: 31
Note OFF: Time 350640, Note Name: D#2
Note OFF: Time 350640, Note Name: D#3
Note ON: Time 350640, Note Name: G2, Velocity: 31
Note ON: Time 350640, Note Name: G3, Velocity: 37
Note OFF: Time 350880, Note Name: G3
Note OFF: Time 350880, Note Name: G2
Note ON: Time 350880, Note Name: G#3, Velocity: 38
Note ON: Time 350880, Note Name: G#2, Velocity: 32
Note OFF: Time 351120, Note Name: G#2
Note OFF: Time 351120, Note Name: G#3
Note ON: Time 351120, Note Name: G3, Velocity: 46
Note ON: Time 351120, Note Name: G2, Velocity: 38
Note OFF: Time 351360, Note Name: G2
Note OFF: Time 351360, Note Name: G3
Note ON: Time 351360, Note Name: D#2, Velocity: 33
Note ON: Time 351360, Note Name: D#3, Velocity: 39
Note OFF: Time 351600, Note Name: D#3
Note OFF: Time 351600, Note Name: D#2
Note ON: Time 351600, Note Name: A#2, Velocity: 34
Note ON: Time 351600, Note Name: A#3, Velocity: 41
Note OFF: Time 351840, Note Name: A#3
Note OFF: Time 351840, Note Name: A#2
Note ON: Time 351840, Note Name: A2, Velocity: 39
Note ON: Time 351840, Note Name: A3, Velocity: 49
Note OFF: Time 352080, Note Name: A3
Note OFF: Time 352080, Note Name: A2
Note ON: Time 352080, Note Name: F2, Velocity: 36
Note ON: Time 352080, Note Name: F3, Velocity: 44
Note OFF: Time 352320, Note Name: F3
Note OFF: Time 352320, Note Name: F2
Note ON: Time 352320, Note Name: A#2, Velocity: 45
Note ON: Time 352320, Note Name: A#3, Velocity: 45
Note OFF: Time 352560, Note Name: A#3
Note OFF: Time 352560, Note Name: A#2
Note ON: Time 352560, Note Name: A2, Velocity: 44
Note ON: Time 352560, Note Name: A3, Velocity: 53
Note OFF: Time 352800, Note Name: A3
Note OFF: Time 352800, Note Name: A2
Note ON: Time 352800, Note Name: F2, Velocity: 38
Note ON: Time 352800, Note Name: F3, Velocity: 47
Note OFF: Time 353040, Note Name: F3
Note OFF: Time 353040, Note Name: F2
Note ON: Time 353040, Note Name: C4, Velocity: 49
Note ON: Time 353040, Note Name: C3, Velocity: 39
Note OFF: Time 353280, Note Name: C3
Note OFF: Time 353280, Note Name: C4
Note ON: Time 353280, Note Name: B3, Velocity: 59
Note ON: Time 353280, Note Name: B2, Velocity: 52
Note OFF: Time 353520, Note Name: B2
Note OFF: Time 353520, Note Name: B3
Note ON: Time 353520, Note Name: G2, Velocity: 43
Note ON: Time 353520, Note Name: G3, Velocity: 52
Note OFF: Time 353760, Note Name: G3
Note OFF: Time 353760, Note Name: G2
Note ON: Time 353760, Note Name: C4, Velocity: 53
Note ON: Time 353760, Note Name: C3, Velocity: 43
Note OFF: Time 354000, Note Name: C3
Note OFF: Time 354000, Note Name: C4
Note ON: Time 354000, Note Name: B3, Velocity: 63
Note ON: Time 354000, Note Name: B2, Velocity: 54
Note OFF: Time 354240, Note Name: B2
Note OFF: Time 354240, Note Name: B3
Note ON: Time 354240, Note Name: G3, Velocity: 55
Note ON: Time 354240, Note Name: G2, Velocity: 46
Note OFF: Time 354480, Note Name: G2
Note OFF: Time 354480, Note Name: G3
Note ON: Time 354480, Note Name: D4, Velocity: 55
Note ON: Time 354480, Note Name: D3, Velocity: 47
Note OFF: Time 354720, Note Name: D3
Note OFF: Time 354720, Note Name: D4
Note ON: Time 354720, Note Name: C#3, Velocity: 56
Note ON: Time 354720, Note Name: C#4, Velocity: 68
Note OFF: Time 354960, Note Name: C#4
Note OFF: Time 354960, Note Name: C#3
Note ON: Time 354960, Note Name: A2, Velocity: 48
Note ON: Time 354960, Note Name: A3, Velocity: 57
Note OFF: Time 355200, Note Name: A3
Note OFF: Time 355200, Note Name: A2
Note ON: Time 355200, Note Name: E3, Velocity: 62
Note ON: Time 355200, Note Name: E4, Velocity: 75
Note OFF: Time 355440, Note Name: E4
Note OFF: Time 355440, Note Name: E3
Note ON: Time 355440, Note Name: D#3, Velocity: 50
Note ON: Time 355440, Note Name: D#4, Velocity: 59
Note OFF: Time 355680, Note Name: D#4
Note OFF: Time 355680, Note Name: D#3
Note ON: Time 355680, Note Name: B2, Velocity: 60
Note ON: Time 355680, Note Name: B3, Velocity: 74
Note OFF: Time 355920, Note Name: B3
Note OFF: Time 355920, Note Name: B2
Note ON: Time 355920, Note Name: D3, Velocity: 53
Note ON: Time 355920, Note Name: D4, Velocity: 62
Note OFF: Time 356160, Note Name: D4
Note OFF: Time 356160, Note Name: D3
Note ON: Time 356160, Note Name: C#2, Velocity: 61
Note ON: Time 356160, Note Name: C#3, Velocity: 73
Note OFF: Time 356400, Note Name: C#3
Note OFF: Time 356400, Note Name: C#2
Note ON: Time 356520, Note Name: C#4, Velocity: 44
Note ON: Time 356520, Note Name: A3, Velocity: 44
Note ON: Time 356520, Note Name: A4, Velocity: 53
Note ON: Time 356520, Note Name: F#4, Velocity: 53
Note OFF: Time 356640, Note Name: F#4
Note OFF: Time 356640, Note Name: C#4
Note OFF: Time 356640, Note Name: A3
Note OFF: Time 356640, Note Name: A4
Note ON: Time 356640, Note Name: A4, Velocity: 55
Note ON: Time 356640, Note Name: F#4, Velocity: 55
Note ON: Time 356640, Note Name: C#4, Velocity: 46
Note ON: Time 356640, Note Name: A3, Velocity: 46
Note OFF: Time 356880, Note Name: A3
Note OFF: Time 356880, Note Name: A4
Note OFF: Time 356880, Note Name: F#4
Note OFF: Time 356880, Note Name: C#4
Note ON: Time 356880, Note Name: F#4, Velocity: 56
Note ON: Time 356880, Note Name: A4, Velocity: 56
Note ON: Time 356880, Note Name: A3, Velocity: 47
Note ON: Time 356880, Note Name: C#4, Velocity: 47
Note OFF: Time 357120, Note Name: C#4
Note OFF: Time 357120, Note Name: F#4
Note OFF: Time 357120, Note Name: A4
Note OFF: Time 357120, Note Name: A3
Note ON: Time 357120, Note Name: A4, Velocity: 58
Note ON: Time 357120, Note Name: C#4, Velocity: 49
Note ON: Time 357120, Note Name: A3, Velocity: 49
Note ON: Time 357120, Note Name: F#4, Velocity: 58
Note OFF: Time 357360, Note Name: F#4
Note OFF: Time 357360, Note Name: A4
Note OFF: Time 357360, Note Name: C#4
Note OFF: Time 357360, Note Name: A3
Note ON: Time 357360, Note Name: A3, Velocity: 50
Note ON: Time 357360, Note Name: F#4, Velocity: 59
Note ON: Time 357360, Note Name: A4, Velocity: 59
Note ON: Time 357360, Note Name: C#4, Velocity: 50
Note OFF: Time 357600, Note Name: C#4
Note OFF: Time 357600, Note Name: A3
Note OFF: Time 357600, Note Name: F#4
Note OFF: Time 357600, Note Name: A4
Note ON: Time 357600, Note Name: A3, Velocity: 60
Note ON: Time 357600, Note Name: A4, Velocity: 72
Note ON: Time 357600, Note Name: C#4, Velocity: 60
Note ON: Time 357600, Note Name: F#4, Velocity: 72
Note OFF: Time 358320, Note Name: F#4
Note OFF: Time 358320, Note Name: A3
Note OFF: Time 358320, Note Name: A4
Note OFF: Time 358320, Note Name: C#4
Note ON: Time 358800, Note Name: C#2, Velocity: 58
Note ON: Time 358800, Note Name: C#3, Velocity: 69
Note OFF: Time 359040, Note Name: C#3
Note OFF: Time 359040, Note Name: C#2
Note ON: Time 359040, Note Name: C3, Velocity: 86
Note ON: Time 359040, Note Name: C2, Velocity: 73
Note OFF: Time 359280, Note Name: C2
Note OFF: Time 359280, Note Name: C3
Note ON: Time 359400, Note Name: F#3, Velocity: 45
Note ON: Time 359400, Note Name: D#4, Velocity: 53
Note ON: Time 359400, Note Name: A3, Velocity: 45
Note OFF: Time 359520, Note Name: A3
Note OFF: Time 359520, Note Name: D#4
Note OFF: Time 359520, Note Name: F#3
Note ON: Time 359520, Note Name: D#4, Velocity: 55
Note ON: Time 359520, Note Name: F#3, Velocity: 47
Note ON: Time 359520, Note Name: A3, Velocity: 47
Note OFF: Time 359760, Note Name: A3
Note OFF: Time 359760, Note Name: F#3
Note OFF: Time 359760, Note Name: D#4
Note ON: Time 359760, Note Name: F#3, Velocity: 54
Note ON: Time 359760, Note Name: A3, Velocity: 54
Note ON: Time 359760, Note Name: D#4, Velocity: 65
Note OFF: Time 360000, Note Name: D#4
Note OFF: Time 360000, Note Name: A3
Note OFF: Time 360000, Note Name: F#3
Note ON: Time 360240, Note Name: C2, Velocity: 60
Note ON: Time 360240, Note Name: C3, Velocity: 72
Note OFF: Time 360480, Note Name: C3
Note OFF: Time 360480, Note Name: C2
Note ON: Time 360480, Note Name: B1, Velocity: 74
Note ON: Time 360480, Note Name: B2, Velocity: 88
Note OFF: Time 360720, Note Name: B2
Note OFF: Time 360720, Note Name: B1
Note ON: Time 360840, Note Name: D#4, Velocity: 59
Note ON: Time 360840, Note Name: F#3, Velocity: 50
Note ON: Time 360840, Note Name: A3, Velocity: 50
Note OFF: Time 360960, Note Name: A3
Note OFF: Time 360960, Note Name: F#3
Note OFF: Time 360960, Note Name: D#4
Note ON: Time 360960, Note Name: D#4, Velocity: 58
Note ON: Time 360960, Note Name: F#3, Velocity: 49
Note ON: Time 360960, Note Name: A3, Velocity: 49
Note OFF: Time 361200, Note Name: A3
Note OFF: Time 361200, Note Name: F#3
Note OFF: Time 361200, Note Name: D#4
Note ON: Time 361200, Note Name: A3, Velocity: 48
Note ON: Time 361200, Note Name: F#3, Velocity: 48
Note ON: Time 361200, Note Name: D#4, Velocity: 57
Note OFF: Time 361440, Note Name: D#4
Note OFF: Time 361440, Note Name: F#3
Note OFF: Time 361440, Note Name: A3
Note ON: Time 361680, Note Name: B2, Velocity: 72
Note ON: Time 361680, Note Name: B1, Velocity: 60
Note OFF: Time 361920, Note Name: B1
Note OFF: Time 361920, Note Name: B2
Note ON: Time 361920, Note Name: A#2, Velocity: 88
Note ON: Time 361920, Note Name: A#1, Velocity: 74
Note OFF: Time 362160, Note Name: A#1
Note OFF: Time 362160, Note Name: A#2
Note ON: Time 362880, Note Name: D#4, Velocity: 44
Note ON: Time 362880, Note Name: A3, Velocity: 44
Note ON: Time 362880, Note Name: C4, Velocity: 44
Note OFF: Time 363120, Note Name: C4
Note OFF: Time 363120, Note Name: A3
Note OFF: Time 363120, Note Name: D#4
Note ON: Time 363120, Note Name: A#3, Velocity: 43
Note ON: Time 363120, Note Name: D4, Velocity: 43
Note ON: Time 363120, Note Name: G#3, Velocity: 43
Note OFF: Time 363360, Note Name: G#3
Note OFF: Time 363360, Note Name: D4
Note OFF: Time 363360, Note Name: A#3
Note ON: Time 363360, Note Name: A#3, Velocity: 47
Note ON: Time 363360, Note Name: G3, Velocity: 47
Note ON: Time 363360, Note Name: D#4, Velocity: 47
Note OFF: Time 363600, Note Name: D#4
Note OFF: Time 363600, Note Name: G3
Note OFF: Time 363600, Note Name: A#3
Note ON: Time 364320, Note Name: A4, Velocity: 46
Note ON: Time 364320, Note Name: C5, Velocity: 46
Note ON: Time 364320, Note Name: D#5, Velocity: 46
Note OFF: Time 364560, Note Name: D#5
Note OFF: Time 364560, Note Name: C5
Note OFF: Time 364560, Note Name: A4
Note ON: Time 364560, Note Name: A#4, Velocity: 46
Note ON: Time 364560, Note Name: D5, Velocity: 46
Note ON: Time 364560, Note Name: G#4, Velocity: 46
Note OFF: Time 364800, Note Name: G#4
Note OFF: Time 364800, Note Name: D5
Note OFF: Time 364800, Note Name: A#4
Note ON: Time 364800, Note Name: G4, Velocity: 46
Note ON: Time 364800, Note Name: D#5, Velocity: 46
Note ON: Time 364800, Note Name: A#4, Velocity: 46
Note OFF: Time 365040, Note Name: A#4
Note OFF: Time 365040, Note Name: D#5
Note OFF: Time 365040, Note Name: G4
Note ON: Time 365760, Note Name: D#6, Velocity: 56
Note ON: Time 365760, Note Name: A5, Velocity: 56
Note ON: Time 365760, Note Name: C6, Velocity: 56
Note OFF: Time 366000, Note Name: C6
Note OFF: Time 366000, Note Name: A5
Note OFF: Time 366000, Note Name: D#6
Note ON: Time 366000, Note Name: A#5, Velocity: 56
Note ON: Time 366000, Note Name: G#5, Velocity: 56
Note ON: Time 366000, Note Name: D6, Velocity: 56
Note OFF: Time 366240, Note Name: D6
Note OFF: Time 366240, Note Name: G#5
Note OFF: Time 366240, Note Name: A#5
Note ON: Time 366240, Note Name: A#5, Velocity: 57
Note ON: Time 366240, Note Name: G5, Velocity: 57
Note ON: Time 366240, Note Name: D#6, Velocity: 57
Note OFF: Time 366480, Note Name: D#6
Note OFF: Time 366480, Note Name: G5
Note OFF: Time 366480, Note Name: A#5
Note ON: Time 367200, Note Name: A5, Velocity: 58
Note ON: Time 367200, Note Name: C6, Velocity: 58
Note ON: Time 367200, Note Name: D#6, Velocity: 58
Note OFF: Time 367440, Note Name: D#6
Note OFF: Time 367440, Note Name: C6
Note OFF: Time 367440, Note Name: A5
Note ON: Time 367440, Note Name: A#5, Velocity: 58
Note ON: Time 367440, Note Name: G#5, Velocity: 58
Note ON: Time 367440, Note Name: D6, Velocity: 58
Note OFF: Time 367680, Note Name: D6
Note OFF: Time 367680, Note Name: G#5
Note OFF: Time 367680, Note Name: A#5
Note ON: Time 367680, Note Name: A#5, Velocity: 59
Note ON: Time 367680, Note Name: D#6, Velocity: 59
Note ON: Time 367680, Note Name: G5, Velocity: 59
Note OFF: Time 367920, Note Name: G5
Note OFF: Time 367920, Note Name: D#6
Note OFF: Time 367920, Note Name: A#5
Note ON: Time 368400, Note Name: A4, Velocity: 72
Note ON: Time 368400, Note Name: C4, Velocity: 72
Note ON: Time 368400, Note Name: D#4, Velocity: 72
Note ON: Time 368400, Note Name: F4, Velocity: 72
Note OFF: Time 368640, Note Name: F4
Note OFF: Time 368640, Note Name: A4
Note OFF: Time 368640, Note Name: C4
Note OFF: Time 368640, Note Name: D#4
Note ON: Time 370470, Note Name: B2, Velocity: 69
Note ON: Time 370500, Note Name: D#3, Velocity: 73
Note ON: Time 370530, Note Name: G#3, Velocity: 77
Note ON: Time 370560, Note Name: D#4, Velocity: 80
Note OFF: Time 370800, Note Name: D#4
Note OFF: Time 370800, Note Name: B2
Note OFF: Time 370800, Note Name: D#3
Note OFF: Time 370800, Note Name: G#3
Note ON: Time 372000, Note Name: B1, Velocity: 91
Note OFF: Time 372240, Note Name: B1
Note ON: Time 373440, Note Name: A#1, Velocity: 80
Note OFF: Time 373680, Note Name: A#1
Note ON: Time 373680, Note Name: F2, Velocity: 55
Note OFF: Time 373920, Note Name: F2
Note ON: Time 373920, Note Name: A#2, Velocity: 55
Note OFF: Time 374160, Note Name: A#2
Note ON: Time 374160, Note Name: D3, Velocity: 55
Note OFF: Time 374400, Note Name: D3
Note ON: Time 374400, Note Name: A#2, Velocity: 55
Note OFF: Time 374640, Note Name: A#2
Note ON: Time 374640, Note Name: F2, Velocity: 55
Note OFF: Time 374880, Note Name: F2
Note ON: Time 374880, Note Name: A#1, Velocity: 66
Note OFF: Time 375120, Note Name: A#1
Note ON: Time 375120, Note Name: F2, Velocity: 55
Note OFF: Time 375360, Note Name: F2
Note ON: Time 375360, Note Name: A#2, Velocity: 55
Note OFF: Time 375600, Note Name: A#2
Note ON: Time 375600, Note Name: F3, Velocity: 55
Note OFF: Time 375840, Note Name: F3
Note ON: Time 375840, Note Name: A#2, Velocity: 55
Note OFF: Time 376080, Note Name: A#2
Note ON: Time 376080, Note Name: F2, Velocity: 55
Note OFF: Time 376320, Note Name: F2
Note ON: Time 376320, Note Name: D#2, Velocity: 60
Note OFF: Time 376560, Note Name: D#2
Note ON: Time 376560, Note Name: A#2, Velocity: 54
Note OFF: Time 376800, Note Name: A#2
Note ON: Time 376800, Note Name: D#3, Velocity: 54
Note OFF: Time 377040, Note Name: D#3
Note ON: Time 377040, Note Name: G3, Velocity: 54
Note OFF: Time 377280, Note Name: G3
Note ON: Time 377280, Note Name: D#3, Velocity: 54
Note OFF: Time 377520, Note Name: D#3
Note ON: Time 377520, Note Name: A#2, Velocity: 53
Note OFF: Time 377760, Note Name: A#2
Note ON: Time 377760, Note Name: D#2, Velocity: 60
Note OFF: Time 378000, Note Name: D#2
Note ON: Time 378000, Note Name: C3, Velocity: 53
Note OFF: Time 378240, Note Name: C3
Note ON: Time 378240, Note Name: D#3, Velocity: 53
Note OFF: Time 378480, Note Name: D#3
Note ON: Time 378480, Note Name: A#3, Velocity: 53
Note OFF: Time 378720, Note Name: A#3
Note ON: Time 378720, Note Name: D#3, Velocity: 53
Note OFF: Time 378960, Note Name: D#3
Note ON: Time 378960, Note Name: C3, Velocity: 53
Note OFF: Time 379200, Note Name: C3
Note ON: Time 379200, Note Name: F2, Velocity: 60
Note OFF: Time 379440, Note Name: F2
Note ON: Time 379440, Note Name: C3, Velocity: 52
Note OFF: Time 379680, Note Name: C3
Note ON: Time 379680, Note Name: D#3, Velocity: 52
Note OFF: Time 379920, Note Name: D#3
Note ON: Time 379920, Note Name: A#3, Velocity: 53
Note OFF: Time 380160, Note Name: A#3
Note ON: Time 380160, Note Name: D#3, Velocity: 53
Note OFF: Time 380400, Note Name: D#3
Note ON: Time 380400, Note Name: C3, Velocity: 53
Note OFF: Time 380640, Note Name: C3
Note ON: Time 380640, Note Name: F2, Velocity: 60
Note OFF: Time 380880, Note Name: F2
Note ON: Time 380880, Note Name: C3, Velocity: 53
Note OFF: Time 381120, Note Name: C3
Note ON: Time 381120, Note Name: D#3, Velocity: 53
Note OFF: Time 381360, Note Name: D#3
Note ON: Time 381360, Note Name: A3, Velocity: 54
Note OFF: Time 381600, Note Name: A3
Note ON: Time 381600, Note Name: D#3, Velocity: 54
Note OFF: Time 381840, Note Name: D#3
Note ON: Time 381840, Note Name: C3, Velocity: 54
Note OFF: Time 382080, Note Name: C3
Note ON: Time 382080, Note Name: A#2, Velocity: 59
Note OFF: Time 382320, Note Name: A#2
Note ON: Time 382320, Note Name: F3, Velocity: 51
Note OFF: Time 382560, Note Name: F3
Note ON: Time 382560, Note Name: A#3, Velocity: 51
Note OFF: Time 382800, Note Name: A#3
Note ON: Time 382800, Note Name: D4, Velocity: 51
Note OFF: Time 383040, Note Name: D4
Note ON: Time 383040, Note Name: A#3, Velocity: 51
Note OFF: Time 383280, Note Name: A#3
Note ON: Time 383280, Note Name: F3, Velocity: 51
Note OFF: Time 383520, Note Name: F3
Note ON: Time 383520, Note Name: A#2, Velocity: 54
Note OFF: Time 383760, Note Name: A#2
Note ON: Time 383760, Note Name: F3, Velocity: 51
Note OFF: Time 384000, Note Name: F3
Note ON: Time 384000, Note Name: A#3, Velocity: 51
Note OFF: Time 384240, Note Name: A#3
Note ON: Time 384240, Note Name: F4, Velocity: 51
Note OFF: Time 384480, Note Name: F4
Note ON: Time 384480, Note Name: A#3, Velocity: 51
Note OFF: Time 384720, Note Name: A#3
Note ON: Time 384720, Note Name: F3, Velocity: 51
Note OFF: Time 384960, Note Name: F3
Note ON: Time 384960, Note Name: A#2, Velocity: 58
Note OFF: Time 385200, Note Name: A#2
Note ON: Time 385200, Note Name: G3, Velocity: 47
Note OFF: Time 385440, Note Name: G3
Note ON: Time 385440, Note Name: C4, Velocity: 48
Note OFF: Time 385680, Note Name: C4
Note ON: Time 385680, Note Name: E4, Velocity: 50
Note OFF: Time 385920, Note Name: E4
Note ON: Time 385920, Note Name: C4, Velocity: 51
Note OFF: Time 386160, Note Name: C4
Note ON: Time 386160, Note Name: G3, Velocity: 53
Note OFF: Time 386400, Note Name: G3
Note ON: Time 386400, Note Name: A#2, Velocity: 54
Note OFF: Time 386640, Note Name: A#2
Note ON: Time 386640, Note Name: G#3, Velocity: 51
Note OFF: Time 386880, Note Name: G#3
Note ON: Time 386880, Note Name: C4, Velocity: 51
Note OFF: Time 387120, Note Name: C4
Note ON: Time 387120, Note Name: F4, Velocity: 51
Note OFF: Time 387360, Note Name: F4
Note ON: Time 387360, Note Name: C4, Velocity: 51
Note OFF: Time 387600, Note Name: C4
Note ON: Time 387600, Note Name: G#3, Velocity: 51
Note OFF: Time 387840, Note Name: G#3
Note ON: Time 387840, Note Name: A#2, Velocity: 58
Note OFF: Time 388080, Note Name: A#2
Note ON: Time 388080, Note Name: F3, Velocity: 47
Note OFF: Time 388320, Note Name: F3
Note ON: Time 388320, Note Name: G#3, Velocity: 48
Note OFF: Time 388560, Note Name: G#3
Note ON: Time 388560, Note Name: D4, Velocity: 50
Note OFF: Time 388800, Note Name: D4
Note ON: Time 388800, Note Name: G#3, Velocity: 51
Note OFF: Time 389040, Note Name: G#3
Note ON: Time 389040, Note Name: F3, Velocity: 53
Note OFF: Time 389280, Note Name: F3
Note ON: Time 389280, Note Name: A#2, Velocity: 54
Note OFF: Time 389520, Note Name: A#2
Note ON: Time 389520, Note Name: D#3, Velocity: 51
Note OFF: Time 389760, Note Name: D#3
Note ON: Time 389760, Note Name: G3, Velocity: 51
Note OFF: Time 390000, Note Name: G3
Note ON: Time 390000, Note Name: D#4, Velocity: 51
Note OFF: Time 390240, Note Name: D#4
Note ON: Time 390240, Note Name: G3, Velocity: 51
Note OFF: Time 390480, Note Name: G3
Note ON: Time 390480, Note Name: D#3, Velocity: 51
Note OFF: Time 390720, Note Name: D#3
Note ON: Time 390720, Note Name: A#2, Velocity: 58
Note OFF: Time 390960, Note Name: A#2
Note ON: Time 390960, Note Name: D#3, Velocity: 47
Note OFF: Time 391200, Note Name: D#3
Note ON: Time 391200, Note Name: G#3, Velocity: 48
Note OFF: Time 391440, Note Name: G#3
Note ON: Time 391440, Note Name: C4, Velocity: 50
Note OFF: Time 391680, Note Name: C4
Note ON: Time 391680, Note Name: G#3, Velocity: 51
Note OFF: Time 391920, Note Name: G#3
Note ON: Time 391920, Note Name: D#3, Velocity: 53
Note OFF: Time 392160, Note Name: D#3
Note ON: Time 392160, Note Name: A#2, Velocity: 54
Note OFF: Time 392400, Note Name: A#2
Note ON: Time 392400, Note Name: F3, Velocity: 51
Note OFF: Time 392640, Note Name: F3
Note ON: Time 392640, Note Name: G#3, Velocity: 51
Note OFF: Time 392880, Note Name: G#3
Note ON: Time 392880, Note Name: D4, Velocity: 51
Note OFF: Time 393120, Note Name: D4
Note ON: Time 393120, Note Name: G#3, Velocity: 51
Note OFF: Time 393360, Note Name: G#3
Note ON: Time 393360, Note Name: F3, Velocity: 51
Note OFF: Time 393600, Note Name: F3
Note ON: Time 393600, Note Name: B2, Velocity: 54
Note OFF: Time 393840, Note Name: B2
Note ON: Time 393840, Note Name: F3, Velocity: 48
Note OFF: Time 394080, Note Name: F3
Note ON: Time 394080, Note Name: G3, Velocity: 48
Note OFF: Time 394320, Note Name: G3
Note ON: Time 394320, Note Name: D4, Velocity: 48
Note OFF: Time 394560, Note Name: D4
Note ON: Time 394560, Note Name: G3, Velocity: 48
Note OFF: Time 394800, Note Name: G3
Note ON: Time 394800, Note Name: F3, Velocity: 48
Note OFF: Time 395040, Note Name: F3
Note ON: Time 395040, Note Name: C3, Velocity: 54
Note OFF: Time 395280, Note Name: C3
Note ON: Time 395280, Note Name: D#3, Velocity: 46
Note OFF: Time 395520, Note Name: D#3
Note ON: Time 395520, Note Name: G3, Velocity: 48
Note OFF: Time 395760, Note Name: G3
Note ON: Time 395760, Note Name: D#4, Velocity: 51
Note OFF: Time 396000, Note Name: D#4
Note ON: Time 396000, Note Name: F#3, Velocity: 53
Note OFF: Time 396240, Note Name: F#3
Note ON: Time 396240, Note Name: D#3, Velocity: 49
Note OFF: Time 396480, Note Name: D#3
Note ON: Time 396480, Note Name: D3, Velocity: 80
Note OFF: Time 396720, Note Name: D3
Note ON: Time 396720, Note Name: G#3, Velocity: 55
Note OFF: Time 396960, Note Name: G#3
Note ON: Time 396960, Note Name: A#3, Velocity: 55
Note OFF: Time 397200, Note Name: A#3
Note ON: Time 397200, Note Name: F4, Velocity: 55
Note OFF: Time 397440, Note Name: F4
Note ON: Time 397440, Note Name: A#3, Velocity: 55
Note OFF: Time 397680, Note Name: A#3
Note ON: Time 397680, Note Name: G#3, Velocity: 55
Note OFF: Time 397920, Note Name: G#3
Note ON: Time 397920, Note Name: A#2, Velocity: 66
Note OFF: Time 398160, Note Name: A#2
Note ON: Time 398160, Note Name: F3, Velocity: 55
Note OFF: Time 398400, Note Name: F3
Note ON: Time 398400, Note Name: A#3, Velocity: 55
Note OFF: Time 398640, Note Name: A#3
Note ON: Time 398640, Note Name: D4, Velocity: 55
Note OFF: Time 398880, Note Name: D4
Note ON: Time 398880, Note Name: A#3, Velocity: 55
Note OFF: Time 399120, Note Name: A#3
Note ON: Time 399120, Note Name: F3, Velocity: 55
Note OFF: Time 399360, Note Name: F3
Note ON: Time 399360, Note Name: D#2, Velocity: 60
Note OFF: Time 399600, Note Name: D#2
Note ON: Time 399600, Note Name: A#2, Velocity: 54
Note OFF: Time 399840, Note Name: A#2
Note ON: Time 399840, Note Name: D#3, Velocity: 54
Note OFF: Time 400080, Note Name: D#3
Note ON: Time 400080, Note Name: G3, Velocity: 54
Note OFF: Time 400320, Note Name: G3
Note ON: Time 400320, Note Name: A#3, Velocity: 54
Note OFF: Time 400560, Note Name: A#3
Note ON: Time 400560, Note Name: D#4, Velocity: 53
Note OFF: Time 400800, Note Name: D#4
Note ON: Time 400800, Note Name: G4, Velocity: 60
Note OFF: Time 401040, Note Name: G4
Note ON: Time 401040, Note Name: D#4, Velocity: 53
Note OFF: Time 401280, Note Name: D#4
Note ON: Time 401280, Note Name: A#3, Velocity: 53
Note OFF: Time 401520, Note Name: A#3
Note ON: Time 401520, Note Name: G3, Velocity: 53
Note OFF: Time 401760, Note Name: G3
Note ON: Time 401760, Note Name: D#3, Velocity: 53
Note OFF: Time 402000, Note Name: D#3
Note ON: Time 402000, Note Name: A#2, Velocity: 53
Note OFF: Time 402240, Note Name: A#2
Note ON: Time 402240, Note Name: F2, Velocity: 60
Note OFF: Time 402480, Note Name: F2
Note ON: Time 402480, Note Name: C3, Velocity: 52
Note OFF: Time 402720, Note Name: C3
Note ON: Time 402720, Note Name: D#3, Velocity: 52
Note OFF: Time 402960, Note Name: D#3
Note ON: Time 402960, Note Name: A#3, Velocity: 53
Note OFF: Time 403200, Note Name: A#3
Note ON: Time 403200, Note Name: D#3, Velocity: 53
Note OFF: Time 403440, Note Name: D#3
Note ON: Time 403440, Note Name: C3, Velocity: 53
Note OFF: Time 403680, Note Name: C3
Note ON: Time 403680, Note Name: F2, Velocity: 60
Note OFF: Time 403920, Note Name: F2
Note ON: Time 403920, Note Name: C3, Velocity: 53
Note OFF: Time 404160, Note Name: C3
Note ON: Time 404160, Note Name: D#3, Velocity: 53
Note OFF: Time 404400, Note Name: D#3
Note ON: Time 404400, Note Name: A3, Velocity: 54
Note OFF: Time 404640, Note Name: A3
Note ON: Time 404640, Note Name: D#3, Velocity: 54
Note OFF: Time 404880, Note Name: D#3
Note ON: Time 404880, Note Name: C3, Velocity: 54
Note OFF: Time 405120, Note Name: C3
Note ON: Time 405120, Note Name: A#1, Velocity: 59
Note OFF: Time 405360, Note Name: A#1
Note ON: Time 405360, Note Name: A#2, Velocity: 53
Note OFF: Time 405600, Note Name: A#2
Note ON: Time 405600, Note Name: F3, Velocity: 55
Note OFF: Time 405840, Note Name: F3
Note ON: Time 405840, Note Name: A#3, Velocity: 57
Note OFF: Time 406080, Note Name: A#3
Note ON: Time 406080, Note Name: D4, Velocity: 58
Note OFF: Time 406320, Note Name: D4
Note ON: Time 406320, Note Name: F4, Velocity: 60
Note OFF: Time 406560, Note Name: F4
Note ON: Time 406560, Note Name: D5, Velocity: 61
Note OFF: Time 406800, Note Name: D5
Note ON: Time 406800, Note Name: A#4, Velocity: 59
Note OFF: Time 407040, Note Name: A#4
Note ON: Time 407040, Note Name: F4, Velocity: 57
Note OFF: Time 407280, Note Name: F4
Note ON: Time 407280, Note Name: D4, Velocity: 55
Note OFF: Time 407520, Note Name: D4
Note ON: Time 407520, Note Name: A#3, Velocity: 53
Note OFF: Time 407760, Note Name: A#3
Note ON: Time 407760, Note Name: F3, Velocity: 51
Note OFF: Time 408000, Note Name: F3
Note ON: Time 408000, Note Name: A#2, Velocity: 57
Note OFF: Time 408240, Note Name: A#2
Note ON: Time 408240, Note Name: E3, Velocity: 49
Note OFF: Time 408480, Note Name: E3
Note ON: Time 408480, Note Name: G3, Velocity: 49
Note OFF: Time 408720, Note Name: G3
Note ON: Time 408720, Note Name: C4, Velocity: 49
Note OFF: Time 408960, Note Name: C4
Note ON: Time 408960, Note Name: G3, Velocity: 49
Note OFF: Time 409200, Note Name: G3
Note ON: Time 409200, Note Name: E3, Velocity: 49
Note OFF: Time 409440, Note Name: E3
Note ON: Time 409440, Note Name: A#2, Velocity: 47
Note OFF: Time 409680, Note Name: A#2
Note ON: Time 409680, Note Name: E3, Velocity: 47
Note OFF: Time 409920, Note Name: E3
Note ON: Time 409920, Note Name: G3, Velocity: 53
Note OFF: Time 410160, Note Name: G3
Note ON: Time 410160, Note Name: C4, Velocity: 47
Note OFF: Time 410400, Note Name: C4
Note ON: Time 410400, Note Name: G3, Velocity: 47
Note OFF: Time 410640, Note Name: G3
Note ON: Time 410640, Note Name: E3, Velocity: 47
Note OFF: Time 410880, Note Name: E3
Note ON: Time 410880, Note Name: A#2, Velocity: 55
Note OFF: Time 411120, Note Name: A#2
Note ON: Time 411120, Note Name: F3, Velocity: 46
Note OFF: Time 411360, Note Name: F3
Note ON: Time 411360, Note Name: A3, Velocity: 46
Note OFF: Time 411600, Note Name: A3
Note ON: Time 411600, Note Name: C4, Velocity: 46
Note OFF: Time 411840, Note Name: C4
Note ON: Time 411840, Note Name: A3, Velocity: 47
Note OFF: Time 412080, Note Name: A3
Note ON: Time 412080, Note Name: F3, Velocity: 47
Note OFF: Time 412320, Note Name: F3
Note ON: Time 412320, Note Name: A#2, Velocity: 52
Note OFF: Time 412560, Note Name: A#2
Note ON: Time 412560, Note Name: F3, Velocity: 47
Note OFF: Time 412800, Note Name: F3
Note ON: Time 412800, Note Name: G#3, Velocity: 47
Note OFF: Time 413040, Note Name: G#3
Note ON: Time 413040, Note Name: D4, Velocity: 47
Note OFF: Time 413280, Note Name: D4
Note ON: Time 413280, Note Name: G#3, Velocity: 47
Note OFF: Time 413520, Note Name: G#3
Note ON: Time 413520, Note Name: F3, Velocity: 47
Note OFF: Time 413760, Note Name: F3
Note ON: Time 413760, Note Name: D#2, Velocity: 57
Note OFF: Time 414000, Note Name: D#2
Note ON: Time 414000, Note Name: A#2, Velocity: 40
Note OFF: Time 414240, Note Name: A#2
Note ON: Time 414240, Note Name: D#3, Velocity: 48
Note OFF: Time 414480, Note Name: D#3
Note ON: Time 414480, Note Name: G3, Velocity: 42
Note OFF: Time 414720, Note Name: G3
Note ON: Time 414720, Note Name: D#3, Velocity: 54
Note OFF: Time 414960, Note Name: D#3
Note ON: Time 414960, Note Name: A#2, Velocity: 50
Note OFF: Time 415200, Note Name: A#2
Note ON: Time 415200, Note Name: D#2, Velocity: 55
Note OFF: Time 415440, Note Name: D#2
Note ON: Time 415440, Note Name: A#2, Velocity: 45
Note OFF: Time 415680, Note Name: A#2
Note ON: Time 415680, Note Name: D#3, Velocity: 45
Note OFF: Time 415920, Note Name: D#3
Note ON: Time 415920, Note Name: A#3, Velocity: 45
Note OFF: Time 416160, Note Name: A#3
Note ON: Time 416160, Note Name: D#3, Velocity: 45
Note OFF: Time 416400, Note Name: D#3
Note ON: Time 416400, Note Name: A#2, Velocity: 45
Note OFF: Time 416640, Note Name: A#2
Note ON: Time 416640, Note Name: D#2, Velocity: 50
Note OFF: Time 416880, Note Name: D#2
Note ON: Time 416880, Note Name: A#2, Velocity: 37
Note OFF: Time 417120, Note Name: A#2
Note ON: Time 417120, Note Name: D#3, Velocity: 51
Note OFF: Time 417360, Note Name: D#3
Note ON: Time 417360, Note Name: G3, Velocity: 46
Note OFF: Time 417600, Note Name: G3
Note ON: Time 417600, Note Name: D#3, Velocity: 55
Note OFF: Time 417840, Note Name: D#3
Note ON: Time 417840, Note Name: A#2, Velocity: 49
Note OFF: Time 418080, Note Name: A#2
Note ON: Time 418080, Note Name: D#2, Velocity: 50
Note OFF: Time 418320, Note Name: D#2
Note ON: Time 418320, Note Name: A#2, Velocity: 40
Note OFF: Time 418560, Note Name: A#2
Note ON: Time 418560, Note Name: D#3, Velocity: 40
Note OFF: Time 418800, Note Name: D#3
Note ON: Time 418800, Note Name: A#3, Velocity: 40
Note OFF: Time 419040, Note Name: A#3
Note ON: Time 419040, Note Name: D#3, Velocity: 40
Note OFF: Time 419280, Note Name: D#3
Note ON: Time 419280, Note Name: A#2, Velocity: 40
Note OFF: Time 419520, Note Name: A#2
Note ON: Time 419520, Note Name: D#2, Velocity: 54
Note OFF: Time 419760, Note Name: D#2
Note ON: Time 419760, Note Name: A#2, Velocity: 37
Note OFF: Time 420000, Note Name: A#2
Note ON: Time 420000, Note Name: D3, Velocity: 47
Note OFF: Time 420240, Note Name: D3
Note ON: Time 420240, Note Name: G#3, Velocity: 37
Note OFF: Time 420480, Note Name: G#3
Note ON: Time 420480, Note Name: D3, Velocity: 50
Note OFF: Time 420720, Note Name: D3
Note ON: Time 420720, Note Name: A#2, Velocity: 46
Note OFF: Time 420960, Note Name: A#2
Note ON: Time 420960, Note Name: D#2, Velocity: 47
Note OFF: Time 421200, Note Name: D#2
Note ON: Time 421200, Note Name: A#2, Velocity: 40
Note OFF: Time 421440, Note Name: A#2
Note ON: Time 421440, Note Name: D3, Velocity: 40
Note OFF: Time 421680, Note Name: D3
Note ON: Time 421680, Note Name: A#3, Velocity: 40
Note OFF: Time 421920, Note Name: A#3
Note ON: Time 421920, Note Name: D3, Velocity: 40
Note OFF: Time 422160, Note Name: D3
Note ON: Time 422160, Note Name: A#2, Velocity: 40
Note OFF: Time 422400, Note Name: A#2
Note ON: Time 422400, Note Name: D#2, Velocity: 54
Note OFF: Time 422640, Note Name: D#2
Note ON: Time 422640, Note Name: A#2, Velocity: 42
Note OFF: Time 422880, Note Name: A#2
Note ON: Time 422880, Note Name: D#3, Velocity: 49
Note OFF: Time 423120, Note Name: D#3
Note ON: Time 423120, Note Name: G3, Velocity: 42
Note OFF: Time 423360, Note Name: G3
Note ON: Time 423360, Note Name: D#3, Velocity: 42
Note OFF: Time 423600, Note Name: D#3
Note ON: Time 423600, Note Name: A#2, Velocity: 42
Note OFF: Time 423840, Note Name: A#2
Note ON: Time 423840, Note Name: D#2, Velocity: 46
Note OFF: Time 424080, Note Name: D#2
Note ON: Time 424080, Note Name: B2, Velocity: 42
Note OFF: Time 424320, Note Name: B2
Note ON: Time 424320, Note Name: D#3, Velocity: 42
Note OFF: Time 424560, Note Name: D#3
Note ON: Time 424560, Note Name: G#3, Velocity: 42
Note OFF: Time 424800, Note Name: G#3
Note ON: Time 424800, Note Name: D#3, Velocity: 42
Note OFF: Time 425040, Note Name: D#3
Note ON: Time 425040, Note Name: B2, Velocity: 42
Note OFF: Time 425280, Note Name: B2
Note ON: Time 425280, Note Name: D#2, Velocity: 54
Note OFF: Time 425520, Note Name: D#2
Note ON: Time 425520, Note Name: A#2, Velocity: 37
Note OFF: Time 425760, Note Name: A#2
Note ON: Time 425760, Note Name: D#3, Velocity: 44
Note OFF: Time 426000, Note Name: D#3
Note ON: Time 426000, Note Name: G3, Velocity: 37
Note OFF: Time 426240, Note Name: G3
Note ON: Time 426240, Note Name: D#3, Velocity: 44
Note OFF: Time 426480, Note Name: D#3
Note ON: Time 426480, Note Name: A#2, Velocity: 37
Note OFF: Time 426720, Note Name: A#2
Note ON: Time 426720, Note Name: D#2, Velocity: 47
Note OFF: Time 426960, Note Name: D#2
Note ON: Time 426960, Note Name: A#2, Velocity: 37
Note OFF: Time 427200, Note Name: A#2
Note ON: Time 427200, Note Name: D#3, Velocity: 37
Note OFF: Time 427440, Note Name: D#3
Note ON: Time 427440, Note Name: A#3, Velocity: 37
Note OFF: Time 427680, Note Name: A#3
Note ON: Time 427680, Note Name: D#3, Velocity: 37
Note OFF: Time 427920, Note Name: D#3
Note ON: Time 427920, Note Name: A#2, Velocity: 37
Note OFF: Time 428160, Note Name: A#2
Note ON: Time 428160, Note Name: D#2, Velocity: 54
Note OFF: Time 428400, Note Name: D#2
Note ON: Time 428400, Note Name: A#2, Velocity: 37
Note OFF: Time 428640, Note Name: A#2
Note ON: Time 428640, Note Name: D#3, Velocity: 44
Note OFF: Time 428880, Note Name: D#3
Note ON: Time 428880, Note Name: G3, Velocity: 37
Note OFF: Time 429120, Note Name: G3
Note ON: Time 429120, Note Name: D#3, Velocity: 44
Note OFF: Time 429360, Note Name: D#3
Note ON: Time 429360, Note Name: A#2, Velocity: 37
Note OFF: Time 429600, Note Name: A#2
Note ON: Time 429600, Note Name: D#2, Velocity: 41
Note OFF: Time 429840, Note Name: D#2
Note ON: Time 429840, Note Name: A#2, Velocity: 29
Note OFF: Time 430080, Note Name: A#2
Note ON: Time 430080, Note Name: D#3, Velocity: 29
Note OFF: Time 430320, Note Name: D#3
Note ON: Time 430320, Note Name: A#3, Velocity: 29
Note OFF: Time 430560, Note Name: A#3
Note ON: Time 430560, Note Name: D#3, Velocity: 29
Note OFF: Time 430800, Note Name: D#3
Note ON: Time 430800, Note Name: A#2, Velocity: 29
Note OFF: Time 431040, Note Name: A#2
Note ON: Time 431040, Note Name: D#2, Velocity: 43
Note OFF: Time 431280, Note Name: D#2
Note ON: Time 431280, Note Name: A#2, Velocity: 29
Note OFF: Time 431520, Note Name: A#2
Note ON: Time 431520, Note Name: D3, Velocity: 35
Note OFF: Time 431760, Note Name: D3
Note ON: Time 431760, Note Name: G#3, Velocity: 29
Note OFF: Time 432000, Note Name: G#3
Note ON: Time 432000, Note Name: D3, Velocity: 35
Note OFF: Time 432240, Note Name: D3
Note ON: Time 432240, Note Name: A#2, Velocity: 29
Note OFF: Time 432480, Note Name: A#2
Note ON: Time 432480, Note Name: D#2, Velocity: 37
Note OFF: Time 432720, Note Name: D#2
Note ON: Time 432720, Note Name: A#2, Velocity: 29
Note OFF: Time 432960, Note Name: A#2
Note ON: Time 432960, Note Name: D3, Velocity: 29
Note OFF: Time 433200, Note Name: D3
Note ON: Time 433200, Note Name: A#3, Velocity: 29
Note OFF: Time 433440, Note Name: A#3
Note ON: Time 433440, Note Name: D3, Velocity: 29
Note OFF: Time 433680, Note Name: D3
Note ON: Time 433680, Note Name: A#2, Velocity: 29
Note OFF: Time 433920, Note Name: A#2
Note ON: Time 433920, Note Name: D#2, Velocity: 43
Note OFF: Time 434160, Note Name: D#2
Note ON: Time 434160, Note Name: A#2, Velocity: 33
Note OFF: Time 434400, Note Name: A#2
Note ON: Time 434400, Note Name: D#3, Velocity: 33
Note OFF: Time 434640, Note Name: D#3
Note ON: Time 434640, Note Name: G3, Velocity: 33
Note OFF: Time 434880, Note Name: G3
Note ON: Time 434880, Note Name: D#3, Velocity: 33
Note OFF: Time 435120, Note Name: D#3
Note ON: Time 435120, Note Name: A#2, Velocity: 33
Note OFF: Time 435360, Note Name: A#2
Note ON: Time 435360, Note Name: D#2, Velocity: 38
Note OFF: Time 435600, Note Name: D#2
Note ON: Time 435600, Note Name: B2, Velocity: 33
Note OFF: Time 435840, Note Name: B2
Note ON: Time 435840, Note Name: D#3, Velocity: 33
Note OFF: Time 436080, Note Name: D#3
Note ON: Time 436080, Note Name: G#3, Velocity: 33
Note OFF: Time 436320, Note Name: G#3
Note ON: Time 436320, Note Name: D#3, Velocity: 33
Note OFF: Time 436560, Note Name: D#3
Note ON: Time 436560, Note Name: B2, Velocity: 33
Note OFF: Time 436800, Note Name: B2
Note ON: Time 436800, Note Name: D#2, Velocity: 43
Note OFF: Time 437040, Note Name: D#2
Note ON: Time 437040, Note Name: A#2, Velocity: 29
Note OFF: Time 437280, Note Name: A#2
Note ON: Time 437280, Note Name: D#3, Velocity: 35
Note OFF: Time 437520, Note Name: D#3
Note ON: Time 437520, Note Name: G3, Velocity: 29
Note OFF: Time 437760, Note Name: G3
Note ON: Time 437760, Note Name: D#3, Velocity: 35
Note OFF: Time 438000, Note Name: D#3
Note ON: Time 438000, Note Name: A#2, Velocity: 29
Note OFF: Time 438240, Note Name: A#2
Note ON: Time 438240, Note Name: D#2, Velocity: 41
Note OFF: Time 438480, Note Name: D#2
Note ON: Time 438480, Note Name: A#2, Velocity: 33
Note OFF: Time 438720, Note Name: A#2
Note ON: Time 438720, Note Name: D#3, Velocity: 33
Note OFF: Time 438960, Note Name: D#3
Note ON: Time 438960, Note Name: A#3, Velocity: 33
Note OFF: Time 439200, Note Name: A#3
Note ON: Time 439200, Note Name: D#3, Velocity: 33
Note OFF: Time 439440, Note Name: D#3
Note ON: Time 439440, Note Name: A#2, Velocity: 33
Note OFF: Time 439680, Note Name: A#2
Note ON: Time 439680, Note Name: D#2, Velocity: 45
Note OFF: Time 439920, Note Name: D#2
Note ON: Time 439920, Note Name: A#2, Velocity: 33
Note OFF: Time 440160, Note Name: A#2
Note ON: Time 440160, Note Name: D#3, Velocity: 35
Note OFF: Time 440400, Note Name: D#3
Note ON: Time 440400, Note Name: G3, Velocity: 35
Note OFF: Time 440640, Note Name: G3
Note ON: Time 440640, Note Name: D#3, Velocity: 35
Note OFF: Time 440880, Note Name: D#3
Note ON: Time 440880, Note Name: A#2, Velocity: 33
Note OFF: Time 441120, Note Name: A#2
Note ON: Time 441120, Note Name: D#2, Velocity: 41
Note OFF: Time 441360, Note Name: D#2
Note ON: Time 441360, Note Name: A#2, Velocity: 33
Note OFF: Time 441600, Note Name: A#2
Note ON: Time 441600, Note Name: D#3, Velocity: 33
Note OFF: Time 441840, Note Name: D#3
Note ON: Time 441840, Note Name: A#3, Velocity: 33
Note OFF: Time 442080, Note Name: A#3
Note ON: Time 442080, Note Name: D#3, Velocity: 26
Note OFF: Time 442320, Note Name: D#3
Note ON: Time 442320, Note Name: A#2, Velocity: 25
Note OFF: Time 442560, Note Name: A#2
Note ON: Time 442560, Note Name: G2, Velocity: 48
Note OFF: Time 442800, Note Name: G2
Note ON: Time 442800, Note Name: D3, Velocity: 33
Note OFF: Time 443040, Note Name: D3
Note ON: Time 443040, Note Name: G3, Velocity: 31
Note OFF: Time 443280, Note Name: G3
Note ON: Time 443280, Note Name: A#3, Velocity: 34
Note OFF: Time 443520, Note Name: A#3
Note ON: Time 443520, Note Name: D4, Velocity: 37
Note OFF: Time 443760, Note Name: D4
Note ON: Time 443760, Note Name: A#3, Velocity: 40
Note OFF: Time 444000, Note Name: A#3
Note ON: Time 444000, Note Name: G4, Velocity: 45
Note OFF: Time 444240, Note Name: G4
Note ON: Time 444240, Note Name: D4, Velocity: 40
Note OFF: Time 444480, Note Name: D4
Note ON: Time 444480, Note Name: A#3, Velocity: 39
Note OFF: Time 444720, Note Name: A#3
Note ON: Time 444720, Note Name: G3, Velocity: 38
Note OFF: Time 444960, Note Name: G3
Note ON: Time 444960, Note Name: D3, Velocity: 37
Note OFF: Time 445200, Note Name: D3
Note ON: Time 445200, Note Name: G2, Velocity: 35
Note OFF: Time 445440, Note Name: G2
Note ON: Time 445440, Note Name: G1, Velocity: 42
Note OFF: Time 445680, Note Name: G1
Note ON: Time 445680, Note Name: G2, Velocity: 32
Note OFF: Time 445920, Note Name: G2
Note ON: Time 445920, Note Name: D3, Velocity: 34
Note OFF: Time 446160, Note Name: D3
Note ON: Time 446160, Note Name: G3, Velocity: 37
Note OFF: Time 446400, Note Name: G3
Note ON: Time 446400, Note Name: A#3, Velocity: 39
Note OFF: Time 446640, Note Name: A#3
Note ON: Time 446640, Note Name: D4, Velocity: 41
Note OFF: Time 446880, Note Name: D4
Note ON: Time 446880, Note Name: A#4, Velocity: 42
Note OFF: Time 447120, Note Name: A#4
Note ON: Time 447120, Note Name: G4, Velocity: 41
Note OFF: Time 447360, Note Name: G4
Note ON: Time 447360, Note Name: D4, Velocity: 39
Note OFF: Time 447600, Note Name: D4
Note ON: Time 447600, Note Name: A#3, Velocity: 38
Note OFF: Time 447840, Note Name: A#3
Note ON: Time 447840, Note Name: G3, Velocity: 36
Note OFF: Time 448080, Note Name: G3
Note ON: Time 448080, Note Name: D3, Velocity: 35
Note OFF: Time 448320, Note Name: D3
Note ON: Time 448320, Note Name: G2, Velocity: 37
Note OFF: Time 448560, Note Name: G2
Note ON: Time 448560, Note Name: D3, Velocity: 33
Note OFF: Time 448800, Note Name: D3
Note ON: Time 448800, Note Name: D4, Velocity: 33
Note OFF: Time 449280, Note Name: D4
Note ON: Time 454080, Note Name: D3, Velocity: 28
Note ON: Time 454560, Note Name: D2, Velocity: 25
Note OFF: Time 455035, Note Name: D2
Note ON: Time 455040, Note Name: D2, Velocity: 25
Note OFF: Time 455515, Note Name: D2
Note OFF: Time 455520, Note Name: D3
Note ON: Time 456000, Note Name: D2, Velocity: 39
Note OFF: Time 456475, Note Name: D2
Note ON: Time 456480, Note Name: D2, Velocity: 39
Note OFF: Time 456955, Note Name: D2
Note ON: Time 457440, Note Name: D2, Velocity: 22
Note OFF: Time 457915, Note Name: D2
Note ON: Time 457920, Note Name: D2, Velocity: 22
Note OFF: Time 458395, Note Name: D2
Note ON: Time 458400, Note Name: D4, Velocity: 34
Note ON: Time 458880, Note Name: D3, Velocity: 21
Note ON: Time 458880, Note Name: G3, Velocity: 21
Note OFF: Time 459355, Note Name: G3
Note OFF: Time 459355, Note Name: D3
Note ON: Time 459360, Note Name: G3, Velocity: 21
Note ON: Time 459360, Note Name: D3, Velocity: 21
Note OFF: Time 459835, Note Name: D3
Note OFF: Time 459835, Note Name: G3
Note OFF: Time 459840, Note Name: D4
Note ON: Time 459840, Note Name: C4, Velocity: 34
Note ON: Time 460320, Note Name: G3, Velocity: 22
Note ON: Time 460320, Note Name: D3, Velocity: 22
Note OFF: Time 460795, Note Name: D3
Note OFF: Time 460795, Note Name: G3
Note ON: Time 460800, Note Name: D3, Velocity: 22
Note ON: Time 460800, Note Name: G3, Velocity: 22
Note OFF: Time 461275, Note Name: G3
Note OFF: Time 461275, Note Name: D3
Note OFF: Time 461280, Note Name: C4
Note ON: Time 461760, Note Name: D2, Velocity: 39
Note OFF: Time 462235, Note Name: D2
Note ON: Time 462240, Note Name: D2, Velocity: 39
Note OFF: Time 462715, Note Name: D2
Note ON: Time 463200, Note Name: D2, Velocity: 22
Note OFF: Time 463675, Note Name: D2
Note ON: Time 463680, Note Name: D2, Velocity: 22
Note OFF: Time 464155, Note Name: D2
Note ON: Time 464640, Note Name: D2, Velocity: 21
Note OFF: Time 465115, Note Name: D2
Note ON: Time 465120, Note Name: D2, Velocity: 21
Note OFF: Time 465595, Note Name: D2
Note ON: Time 466080, Note Name: D2, Velocity: 16
Note OFF: Time 466555, Note Name: D2
Note ON: Time 466560, Note Name: D2, Velocity: 16
Note OFF: Time 467035, Note Name: D2
Note ON: Time 467520, Note Name: D2, Velocity: 39
Note OFF: Time 467995, Note Name: D2
Note ON: Time 468000, Note Name: D2, Velocity: 39
Note OFF: Time 468475, Note Name: D2
Note ON: Time 468960, Note Name: D2, Velocity: 22
Note OFF: Time 469435, Note Name: D2
Note ON: Time 469440, Note Name: D2, Velocity: 22
Note OFF: Time 469915, Note Name: D2
Note ON: Time 469920, Note Name: D4, Velocity: 43
Note ON: Time 470400, Note Name: G3, Velocity: 21
Note ON: Time 470400, Note Name: A#3, Velocity: 27
Note ON: Time 470400, Note Name: D3, Velocity: 21
Note OFF: Time 470875, Note Name: D3
Note OFF: Time 470875, Note Name: A#3
Note OFF: Time 470875, Note Name: G3
Note ON: Time 470880, Note Name: A#3, Velocity: 27
Note ON: Time 470880, Note Name: G3, Velocity: 21
Note ON: Time 470880, Note Name: D3, Velocity: 21
Note OFF: Time 471355, Note Name: D3
Note OFF: Time 471355, Note Name: G3
Note OFF: Time 471355, Note Name: A#3
Note OFF: Time 471360, Note Name: D4
Note ON: Time 471360, Note Name: E4, Velocity: 45
Note ON: Time 471840, Note Name: A#3, Velocity: 27
Note ON: Time 471840, Note Name: D3, Velocity: 21
Note ON: Time 471840, Note Name: G3, Velocity: 21
Note OFF: Time 472315, Note Name: G3
Note OFF: Time 472315, Note Name: D3
Note OFF: Time 472315, Note Name: A#3
Note ON: Time 472320, Note Name: G3, Velocity: 21
Note ON: Time 472320, Note Name: D3, Velocity: 21
Note ON: Time 472320, Note Name: A#3, Velocity: 27
Note OFF: Time 472795, Note Name: A#3
Note OFF: Time 472795, Note Name: D3
Note OFF: Time 472795, Note Name: G3
Note OFF: Time 472800, Note Name: E4
Note ON: Time 473280, Note Name: D2, Velocity: 39
Note OFF: Time 473755, Note Name: D2
Note ON: Time 473760, Note Name: D2, Velocity: 39
Note OFF: Time 474235, Note Name: D2
Note ON: Time 474720, Note Name: D2, Velocity: 26
Note OFF: Time 475195, Note Name: D2
Note ON: Time 475200, Note Name: D2, Velocity: 26
Note OFF: Time 475675, Note Name: D2
Note ON: Time 475680, Note Name: E4, Velocity: 48
Note ON: Time 476160, Note Name: A#3, Velocity: 29
Note ON: Time 476160, Note Name: G3, Velocity: 24
Note ON: Time 476160, Note Name: D3, Velocity: 24
Note OFF: Time 476635, Note Name: D3
Note OFF: Time 476635, Note Name: G3
Note OFF: Time 476635, Note Name: A#3
Note ON: Time 476640, Note Name: G3, Velocity: 24
Note ON: Time 476640, Note Name: D3, Velocity: 24
Note ON: Time 476640, Note Name: A#3, Velocity: 29
Note OFF: Time 477115, Note Name: A#3
Note OFF: Time 477115, Note Name: D3
Note OFF: Time 477115, Note Name: G3
Note OFF: Time 477120, Note Name: E4
Note ON: Time 477120, Note Name: F#4, Velocity: 52
Note ON: Time 477600, Note Name: A#3, Velocity: 32
Note ON: Time 477600, Note Name: D3, Velocity: 24
Note ON: Time 477600, Note Name: G3, Velocity: 24
Note OFF: Time 478075, Note Name: G3
Note OFF: Time 478075, Note Name: D3
Note OFF: Time 478075, Note Name: A#3
Note ON: Time 478080, Note Name: G3, Velocity: 24
Note ON: Time 478080, Note Name: A#3, Velocity: 32
Note ON: Time 478080, Note Name: D3, Velocity: 24
Note OFF: Time 478555, Note Name: D3
Note OFF: Time 478555, Note Name: A#3
Note OFF: Time 478555, Note Name: G3
Note OFF: Time 478560, Note Name: F#4
Note ON: Time 478560, Note Name: E4, Velocity: 51
Note ON: Time 479040, Note Name: G3, Velocity: 26
Note ON: Time 479040, Note Name: A#3, Velocity: 32
Note ON: Time 479040, Note Name: D3, Velocity: 26
Note OFF: Time 479515, Note Name: D3
Note OFF: Time 479515, Note Name: A#3
Note OFF: Time 479515, Note Name: G3
Note OFF: Time 479520, Note Name: E4
Note ON: Time 479760, Note Name: F#4, Velocity: 53
Note OFF: Time 479980, Note Name: F#4
Note ON: Time 480000, Note Name: F#4, Velocity: 53
Note ON: Time 480480, Note Name: D3, Velocity: 26
Note ON: Time 480480, Note Name: G3, Velocity: 26
Note ON: Time 480480, Note Name: A#3, Velocity: 35
Note OFF: Time 480955, Note Name: A#3
Note OFF: Time 480955, Note Name: G3
Note OFF: Time 480955, Note Name: D3
Note ON: Time 480960, Note Name: G3, Velocity: 27
Note ON: Time 480960, Note Name: A#3, Velocity: 36
Note ON: Time 480960, Note Name: D3, Velocity: 27
Note OFF: Time 481435, Note Name: D3
Note OFF: Time 481435, Note Name: A#3
Note OFF: Time 481435, Note Name: G3
Note OFF: Time 481440, Note Name: F#4
Note ON: Time 481440, Note Name: E4, Velocity: 56
Note ON: Time 481920, Note Name: D3, Velocity: 27
Note ON: Time 481920, Note Name: A#3, Velocity: 36
Note ON: Time 481920, Note Name: G3, Velocity: 27
Note OFF: Time 482400, Note Name: G3
Note OFF: Time 482400, Note Name: E4
Note OFF: Time 482400, Note Name: D3
Note OFF: Time 482400, Note Name: A#3
Note ON: Time 482640, Note Name: F#4, Velocity: 56
Note OFF: Time 482860, Note Name: F#4
Note ON: Time 482880, Note Name: F#4, Velocity: 56
Note ON: Time 483360, Note Name: A#3, Velocity: 37
Note ON: Time 483360, Note Name: G3, Velocity: 29
Note ON: Time 483360, Note Name: D3, Velocity: 29
Note OFF: Time 483835, Note Name: D3
Note OFF: Time 483835, Note Name: G3
Note OFF: Time 483835, Note Name: A#3
Note ON: Time 483840, Note Name: D3, Velocity: 29
Note ON: Time 483840, Note Name: G3, Velocity: 29
Note ON: Time 483840, Note Name: A#3, Velocity: 39
Note OFF: Time 484315, Note Name: A#3
Note OFF: Time 484315, Note Name: G3
Note OFF: Time 484315, Note Name: D3
Note OFF: Time 484320, Note Name: F#4
Note ON: Time 484320, Note Name: E4, Velocity: 60
Note ON: Time 484800, Note Name: G3, Velocity: 35
Note ON: Time 484800, Note Name: A#3, Velocity: 44
Note ON: Time 484800, Note Name: D3, Velocity: 35
Note OFF: Time 485280, Note Name: D3
Note OFF: Time 485280, Note Name: E4
Note OFF: Time 485280, Note Name: G3
Note OFF: Time 485280, Note Name: A#3
Note ON: Time 485520, Note Name: F#4, Velocity: 66
Note OFF: Time 485760, Note Name: F#4
Note ON: Time 485760, Note Name: A4, Velocity: 69
Note ON: Time 486240, Note Name: E4, Velocity: 52
Note ON: Time 486240, Note Name: A#3, Velocity: 42
Note ON: Time 486240, Note Name: C#4, Velocity: 42
Note OFF: Time 486715, Note Name: C#4
Note OFF: Time 486715, Note Name: A#3
Note OFF: Time 486715, Note Name: E4
Note ON: Time 486720, Note Name: A#3, Velocity: 42
Note ON: Time 486720, Note Name: E4, Velocity: 55
Note ON: Time 486720, Note Name: C#4, Velocity: 42
Note OFF: Time 487195, Note Name: C#4
Note OFF: Time 487195, Note Name: E4
Note OFF: Time 487195, Note Name: A#3
Note OFF: Time 487200, Note Name: A4
Note ON: Time 487200, Note Name: G4, Velocity: 68
Note ON: Time 487680, Note Name: E4, Velocity: 57
Note ON: Time 487680, Note Name: A#3, Velocity: 45
Note ON: Time 487680, Note Name: C#4, Velocity: 45
Note OFF: Time 488160, Note Name: C#4
Note OFF: Time 488160, Note Name: G4
Note OFF: Time 488160, Note Name: E4
Note OFF: Time 488160, Note Name: A#3
Note ON: Time 488160, Note Name: A4, Velocity: 75
Note OFF: Time 488640, Note Name: A4
Note ON: Time 488640, Note Name: D1, Velocity: 70
Note ON: Time 488640, Note Name: D2, Velocity: 82
Note OFF: Time 489120, Note Name: D2
Note OFF: Time 489120, Note Name: D1
Note ON: Time 489120, Note Name: D3, Velocity: 56
Note ON: Time 489120, Note Name: A#3, Velocity: 66
Note OFF: Time 489600, Note Name: A#3
Note OFF: Time 489600, Note Name: D3
Note ON: Time 489600, Note Name: D4, Velocity: 66
Note ON: Time 489600, Note Name: G3, Velocity: 56
Note OFF: Time 490080, Note Name: G3
Note OFF: Time 490080, Note Name: D4
Note ON: Time 490080, Note Name: A#3, Velocity: 56
Note ON: Time 490080, Note Name: G4, Velocity: 66
Note OFF: Time 490560, Note Name: G4
Note OFF: Time 490560, Note Name: A#3
Note ON: Time 490560, Note Name: G3, Velocity: 56
Note ON: Time 490560, Note Name: D4, Velocity: 66
Note OFF: Time 491040, Note Name: D4
Note OFF: Time 491040, Note Name: G3
Note ON: Time 491040, Note Name: A#3, Velocity: 79
Note ON: Time 491040, Note Name: D3, Velocity: 67
Note OFF: Time 491520, Note Name: D3
Note OFF: Time 491520, Note Name: A#3
Note ON: Time 491520, Note Name: D1, Velocity: 56
Note ON: Time 491520, Note Name: D2, Velocity: 66
Note OFF: Time 492000, Note Name: D2
Note OFF: Time 492000, Note Name: D1
Note ON: Time 492000, Note Name: D3, Velocity: 56
Note ON: Time 492000, Note Name: C4, Velocity: 66
Note ON: Time 492000, Note Name: F#3, Velocity: 56
Note OFF: Time 492480, Note Name: F#3
Note OFF: Time 492480, Note Name: C4
Note OFF: Time 492480, Note Name: D3
Note ON: Time 492480, Note Name: D4, Velocity: 59
Note ON: Time 492480, Note Name: F#3, Velocity: 49
Note ON: Time 492480, Note Name: C4, Velocity: 49
Note OFF: Time 492960, Note Name: C4
Note OFF: Time 492960, Note Name: F#3
Note OFF: Time 492960, Note Name: D4
Note ON: Time 492960, Note Name: C4, Velocity: 55
Note ON: Time 492960, Note Name: F#4, Velocity: 64
Note OFF: Time 493440, Note Name: F#4
Note OFF: Time 493440, Note Name: C4
Note ON: Time 493440, Note Name: C4, Velocity: 58
Note ON: Time 493440, Note Name: F#3, Velocity: 58
Note ON: Time 493440, Note Name: D4, Velocity: 69
Note OFF: Time 493920, Note Name: D4
Note OFF: Time 493920, Note Name: F#3
Note OFF: Time 493920, Note Name: C4
Note ON: Time 493920, Note Name: D3, Velocity: 61
Note ON: Time 493920, Note Name: F#3, Velocity: 61
Note ON: Time 493920, Note Name: C4, Velocity: 73
Note OFF: Time 494400, Note Name: C4
Note OFF: Time 494400, Note Name: F#3
Note OFF: Time 494400, Note Name: D3
Note ON: Time 494400, Note Name: G2, Velocity: 73
Note ON: Time 494400, Note Name: G1, Velocity: 73
Note OFF: Time 494640, Note Name: G1
Note OFF: Time 494640, Note Name: G2
Note ON: Time 494880, Note Name: D4, Velocity: 55
Note ON: Time 494880, Note Name: G4, Velocity: 66
Note ON: Time 494880, Note Name: A#3, Velocity: 55
Note OFF: Time 495120, Note Name: A#3
Note OFF: Time 495120, Note Name: G4
Note OFF: Time 495120, Note Name: D4
Note ON: Time 495120, Note Name: A#2, Velocity: 53
Note OFF: Time 495240, Note Name: A#2
Note ON: Time 495360, Note Name: G4, Velocity: 64
Note ON: Time 495360, Note Name: A#3, Velocity: 53
Note ON: Time 495360, Note Name: D4, Velocity: 53
Note OFF: Time 495600, Note Name: D4
Note OFF: Time 495600, Note Name: A#3
Note OFF: Time 495600, Note Name: G4
Note ON: Time 495600, Note Name: D3, Velocity: 57
Note OFF: Time 495720, Note Name: D3
Note ON: Time 495840, Note Name: G4, Velocity: 64
Note ON: Time 495840, Note Name: D4, Velocity: 53
Note ON: Time 495840, Note Name: A#3, Velocity: 53
Note OFF: Time 496080, Note Name: A#3
Note OFF: Time 496080, Note Name: D4
Note OFF: Time 496080, Note Name: G4
Note ON: Time 496080, Note Name: G3, Velocity: 54
Note OFF: Time 496200, Note Name: G3
Note ON: Time 496320, Note Name: D#4, Velocity: 53
Note ON: Time 496320, Note Name: C4, Velocity: 53
Note ON: Time 496320, Note Name: A3, Velocity: 53
Note ON: Time 496320, Note Name: G4, Velocity: 64
Note OFF: Time 496560, Note Name: G4
Note OFF: Time 496560, Note Name: D#4
Note OFF: Time 496560, Note Name: C4
Note OFF: Time 496560, Note Name: A3
Note ON: Time 496560, Note Name: A2, Velocity: 55
Note OFF: Time 496680, Note Name: A2
Note ON: Time 496800, Note Name: C4, Velocity: 53
Note ON: Time 496800, Note Name: G4, Velocity: 64
Note ON: Time 496800, Note Name: D#4, Velocity: 53
Note OFF: Time 497040, Note Name: D#4
Note OFF: Time 497040, Note Name: G4
Note OFF: Time 497040, Note Name: C4
Note ON: Time 497040, Note Name: A3, Velocity: 55
Note OFF: Time 497160, Note Name: A3
Note ON: Time 497280, Note Name: F#4, Velocity: 64
Note ON: Time 497280, Note Name: D4, Velocity: 53
Note ON: Time 497280, Note Name: C4, Velocity: 53
Note OFF: Time 497520, Note Name: C4
Note OFF: Time 497520, Note Name: D4
Note OFF: Time 497520, Note Name: F#4
Note ON: Time 497520, Note Name: D3, Velocity: 56
Note OFF: Time 497640, Note Name: D3
Note ON: Time 497760, Note Name: C4, Velocity: 53
Note ON: Time 497760, Note Name: F#4, Velocity: 63
Note ON: Time 497760, Note Name: D4, Velocity: 53
Note OFF: Time 498000, Note Name: D4
Note OFF: Time 498000, Note Name: F#4
Note OFF: Time 498000, Note Name: C4
Note ON: Time 498000, Note Name: A3, Velocity: 56
Note OFF: Time 498120, Note Name: A3
Note ON: Time 498240, Note Name: G3, Velocity: 55
Note ON: Time 498240, Note Name: D4, Velocity: 55
Note ON: Time 498240, Note Name: G4, Velocity: 66
Note OFF: Time 498480, Note Name: G4
Note OFF: Time 498480, Note Name: D4
Note OFF: Time 498480, Note Name: G3
Note ON: Time 498480, Note Name: G2, Velocity: 53
Note OFF: Time 498600, Note Name: G2
Note ON: Time 498720, Note Name: D4, Velocity: 55
Note ON: Time 498720, Note Name: G4, Velocity: 66
Note ON: Time 498720, Note Name: A#3, Velocity: 55
Note OFF: Time 498960, Note Name: A#3
Note OFF: Time 498960, Note Name: G4
Note OFF: Time 498960, Note Name: D4
Note ON: Time 498960, Note Name: A#2, Velocity: 53
Note OFF: Time 499080, Note Name: A#2
Note ON: Time 499200, Note Name: A#3, Velocity: 53
Note ON: Time 499200, Note Name: G4, Velocity: 64
Note ON: Time 499200, Note Name: D4, Velocity: 53
Note OFF: Time 499440, Note Name: D4
Note OFF: Time 499440, Note Name: G4
Note OFF: Time 499440, Note Name: A#3
Note ON: Time 499440, Note Name: D3, Velocity: 57
Note OFF: Time 499560, Note Name: D3
Note ON: Time 499680, Note Name: G4, Velocity: 64
Note ON: Time 499680, Note Name: D4, Velocity: 53
Note ON: Time 499680, Note Name: A#3, Velocity: 53
Note OFF: Time 499920, Note Name: A#3
Note OFF: Time 499920, Note Name: D4
Note OFF: Time 499920, Note Name: G4
Note ON: Time 499920, Note Name: G3, Velocity: 54
Note OFF: Time 500040, Note Name: G3
Note ON: Time 500160, Note Name: D#4, Velocity: 53
Note ON: Time 500160, Note Name: C4, Velocity: 53
Note ON: Time 500160, Note Name: A3, Velocity: 53
Note ON: Time 500160, Note Name: G4, Velocity: 64
Note OFF: Time 500400, Note Name: G4
Note OFF: Time 500400, Note Name: D#4
Note OFF: Time 500400, Note Name: C4
Note OFF: Time 500400, Note Name: A3
Note ON: Time 500400, Note Name: A2, Velocity: 55
Note OFF: Time 500520, Note Name: A2
Note ON: Time 500640, Note Name: G4, Velocity: 64
Note ON: Time 500640, Note Name: D#4, Velocity: 53
Note ON: Time 500640, Note Name: C4, Velocity: 53
Note OFF: Time 500880, Note Name: C4
Note OFF: Time 500880, Note Name: D#4
Note OFF: Time 500880, Note Name: G4
Note ON: Time 500880, Note Name: A3, Velocity: 55
Note OFF: Time 501000, Note Name: A3
Note ON: Time 501120, Note Name: D4, Velocity: 53
Note ON: Time 501120, Note Name: F#4, Velocity: 64
Note ON: Time 501120, Note Name: C4, Velocity: 53
Note OFF: Time 501360, Note Name: C4
Note OFF: Time 501360, Note Name: F#4
Note OFF: Time 501360, Note Name: D4
Note ON: Time 501360, Note Name: D3, Velocity: 56
Note OFF: Time 501480, Note Name: D3
Note ON: Time 501600, Note Name: D4, Velocity: 53
Note ON: Time 501600, Note Name: C4, Velocity: 53
Note ON: Time 501600, Note Name: F#4, Velocity: 63
Note OFF: Time 501840, Note Name: F#4
Note OFF: Time 501840, Note Name: C4
Note OFF: Time 501840, Note Name: D4
Note ON: Time 501840, Note Name: A3, Velocity: 56
Note OFF: Time 501960, Note Name: A3
Note ON: Time 502080, Note Name: D4, Velocity: 53
Note ON: Time 502080, Note Name: G3, Velocity: 53
Note ON: Time 502080, Note Name: G4, Velocity: 63
Note OFF: Time 502320, Note Name: G4
Note OFF: Time 502320, Note Name: G3
Note OFF: Time 502320, Note Name: D4
Note ON: Time 502320, Note Name: C3, Velocity: 65
Note ON: Time 502800, Note Name: G#3, Velocity: 47
Note ON: Time 502800, Note Name: D#4, Velocity: 56
Note OFF: Time 503040, Note Name: D#4
Note OFF: Time 503040, Note Name: G#3
Note OFF: Time 503040, Note Name: C3
Note ON: Time 503040, Note Name: D3, Velocity: 63
Note OFF: Time 503160, Note Name: D3
Note ON: Time 503280, Note Name: A3, Velocity: 48
Note ON: Time 503280, Note Name: D4, Velocity: 57
Note ON: Time 503280, Note Name: C4, Velocity: 48
Note OFF: Time 503520, Note Name: C4
Note OFF: Time 503520, Note Name: D4
Note OFF: Time 503520, Note Name: A3
Note ON: Time 503520, Note Name: G2, Velocity: 63
Note OFF: Time 503640, Note Name: G2
Note ON: Time 503760, Note Name: A#3, Velocity: 47
Note ON: Time 503760, Note Name: G3, Velocity: 47
Note ON: Time 503760, Note Name: D4, Velocity: 55
Note OFF: Time 504000, Note Name: D4
Note OFF: Time 504000, Note Name: G3
Note OFF: Time 504000, Note Name: A#3
Note ON: Time 504000, Note Name: C3, Velocity: 65
Note ON: Time 504240, Note Name: D#4, Velocity: 53
Note ON: Time 504240, Note Name: G#3, Velocity: 44
Note OFF: Time 504720, Note Name: G#3
Note OFF: Time 504720, Note Name: D#4
Note ON: Time 504720, Note Name: G#3, Velocity: 47
Note ON: Time 504720, Note Name: D#4, Velocity: 56
Note OFF: Time 504960, Note Name: D#4
Note OFF: Time 504960, Note Name: G#3
Note OFF: Time 504960, Note Name: C3
Note ON: Time 504960, Note Name: D3, Velocity: 63
Note OFF: Time 505080, Note Name: D3
Note ON: Time 505200, Note Name: D4, Velocity: 57
Note ON: Time 505200, Note Name: C4, Velocity: 48
Note ON: Time 505200, Note Name: A3, Velocity: 48
Note OFF: Time 505440, Note Name: A3
Note OFF: Time 505440, Note Name: C4
Note OFF: Time 505440, Note Name: D4
Note ON: Time 505440, Note Name: G2, Velocity: 63
Note OFF: Time 505560, Note Name: G2
Note ON: Time 505680, Note Name: A#3, Velocity: 47
Note ON: Time 505680, Note Name: G3, Velocity: 47
Note ON: Time 505680, Note Name: D4, Velocity: 55
Note OFF: Time 505920, Note Name: D4
Note OFF: Time 505920, Note Name: G3
Note OFF: Time 505920, Note Name: A#3
Note ON: Time 505920, Note Name: B2, Velocity: 65
Note OFF: Time 506040, Note Name: B2
Note ON: Time 506160, Note Name: G#3, Velocity: 43
Note ON: Time 506160, Note Name: F3, Velocity: 43
Note ON: Time 506160, Note Name: D4, Velocity: 51
Note OFF: Time 506400, Note Name: D4
Note OFF: Time 506400, Note Name: F3
Note OFF: Time 506400, Note Name: G#3
Note ON: Time 506400, Note Name: C3, Velocity: 60
Note ON: Time 506640, Note Name: G#3, Velocity: 42
Note ON: Time 506640, Note Name: D#3, Velocity: 42
Note ON: Time 506640, Note Name: C4, Velocity: 50
Note OFF: Time 506880, Note Name: C4
Note OFF: Time 506880, Note Name: C3
Note OFF: Time 506880, Note Name: G#3
Note OFF: Time 506880, Note Name: D#3
Note ON: Time 506880, Note Name: D3, Velocity: 56
Note ON: Time 507120, Note Name: G#3, Velocity: 43
Note ON: Time 507120, Note Name: F3, Velocity: 43
Note ON: Time 507120, Note Name: B3, Velocity: 51
Note OFF: Time 507360, Note Name: B3
Note OFF: Time 507360, Note Name: D3
Note OFF: Time 507360, Note Name: G#3
Note OFF: Time 507360, Note Name: F3
Note ON: Time 507360, Note Name: D#3, Velocity: 56
Note ON: Time 507600, Note Name: G#3, Velocity: 49
Note OFF: Time 507840, Note Name: G#3
Note OFF: Time 507840, Note Name: D#3
Note ON: Time 507840, Note Name: F#2, Velocity: 56
Note OFF: Time 507960, Note Name: F#2
Note ON: Time 508080, Note Name: C4, Velocity: 43
Note ON: Time 508080, Note Name: F#3, Velocity: 43
Note ON: Time 508080, Note Name: D#4, Velocity: 51
Note OFF: Time 508320, Note Name: D#4
Note OFF: Time 508320, Note Name: F#3
Note OFF: Time 508320, Note Name: C4
Note ON: Time 508320, Note Name: G3, Velocity: 43
Note ON: Time 508320, Note Name: D4, Velocity: 53
Note ON: Time 508320, Note Name: A#3, Velocity: 43
Note OFF: Time 508560, Note Name: A#3
Note OFF: Time 508560, Note Name: D4
Note OFF: Time 508560, Note Name: G3
Note ON: Time 508560, Note Name: G2, Velocity: 56
Note OFF: Time 508680, Note Name: G2
Note ON: Time 508800, Note Name: C3, Velocity: 56
Note OFF: Time 508920, Note Name: C3
Note ON: Time 509040, Note Name: G4, Velocity: 51
Note ON: Time 509040, Note Name: A3, Velocity: 43
Note ON: Time 509040, Note Name: D#4, Velocity: 43
Note OFF: Time 509278, Note Name: G4
Note OFF: Time 509280, Note Name: D#4
Note OFF: Time 509280, Note Name: A3
Note ON: Time 509280, Note Name: D3, Velocity: 56
Note ON: Time 509520, Note Name: A3, Velocity: 43
Note ON: Time 509520, Note Name: C4, Velocity: 43
Note ON: Time 509520, Note Name: D4, Velocity: 51
Note OFF: Time 509760, Note Name: D4
Note OFF: Time 509760, Note Name: D3
Note OFF: Time 509760, Note Name: A3
Note OFF: Time 509760, Note Name: C4
Note ON: Time 509760, Note Name: G3, Velocity: 53
Note ON: Time 509760, Note Name: D4, Velocity: 63
Note ON: Time 509766, Note Name: A#3, Velocity: 53
Note OFF: Time 509880, Note Name: D4
Note OFF: Time 509880, Note Name: G3
Note OFF: Time 509886, Note Name: A#3
Note ON: Time 510000, Note Name: C3, Velocity: 65
Note ON: Time 510480, Note Name: G#3, Velocity: 47
Note ON: Time 510480, Note Name: D#4, Velocity: 56
Note OFF: Time 510720, Note Name: D#4
Note OFF: Time 510720, Note Name: G#3
Note OFF: Time 510720, Note Name: C3
Note ON: Time 510720, Note Name: D3, Velocity: 63
Note OFF: Time 510840, Note Name: D3
Note ON: Time 510960, Note Name: D4, Velocity: 57
Note ON: Time 510960, Note Name: A3, Velocity: 48
Note ON: Time 510960, Note Name: C4, Velocity: 48
Note OFF: Time 511200, Note Name: C4
Note OFF: Time 511200, Note Name: A3
Note OFF: Time 511200, Note Name: D4
Note ON: Time 511200, Note Name: G2, Velocity: 63
Note OFF: Time 511320, Note Name: G2
Note ON: Time 511440, Note Name: A#3, Velocity: 47
Note ON: Time 511440, Note Name: G3, Velocity: 47
Note ON: Time 511440, Note Name: D4, Velocity: 55
Note OFF: Time 511680, Note Name: D4
Note OFF: Time 511680, Note Name: G3
Note OFF: Time 511680, Note Name: A#3
Note ON: Time 511680, Note Name: C3, Velocity: 65
Note ON: Time 511920, Note Name: G#3, Velocity: 44
Note ON: Time 511920, Note Name: D#4, Velocity: 53
Note ON: Time 512160, Note Name: D3, Velocity: 72
Note OFF: Time 512400, Note Name: D3
Note ON: Time 512400, Note Name: D#3, Velocity: 72
Note OFF: Time 512640, Note Name: D#3
Note OFF: Time 512640, Note Name: D#4
Note OFF: Time 512640, Note Name: G#3
Note OFF: Time 512640, Note Name: C3
Note ON: Time 512640, Note Name: D3, Velocity: 63
Note OFF: Time 512760, Note Name: D3
Note ON: Time 512880, Note Name: D4, Velocity: 57
Note ON: Time 512880, Note Name: A3, Velocity: 48
Note ON: Time 512880, Note Name: C4, Velocity: 48
Note OFF: Time 513120, Note Name: C4
Note OFF: Time 513120, Note Name: A3
Note OFF: Time 513120, Note Name: D4
Note ON: Time 513120, Note Name: G2, Velocity: 63
Note OFF: Time 513240, Note Name: G2
Note ON: Time 513360, Note Name: D4, Velocity: 55
Note ON: Time 513360, Note Name: G3, Velocity: 47
Note ON: Time 513360, Note Name: A#3, Velocity: 47
Note OFF: Time 513600, Note Name: A#3
Note OFF: Time 513600, Note Name: G3
Note OFF: Time 513600, Note Name: D4
Note ON: Time 513600, Note Name: B2, Velocity: 65
Note ON: Time 513600, Note Name: B1, Velocity: 54
Note OFF: Time 513720, Note Name: B1
Note OFF: Time 513720, Note Name: B2
Note ON: Time 513840, Note Name: F3, Velocity: 43
Note ON: Time 513840, Note Name: D4, Velocity: 51
Note ON: Time 513840, Note Name: G#3, Velocity: 43
Note OFF: Time 514080, Note Name: G#3
Note OFF: Time 514080, Note Name: D4
Note OFF: Time 514080, Note Name: F3
Note ON: Time 514080, Note Name: C3, Velocity: 60
Note ON: Time 514080, Note Name: C2, Velocity: 51
Note OFF: Time 514200, Note Name: C2
Note OFF: Time 514200, Note Name: C3
Note ON: Time 514320, Note Name: C4, Velocity: 50
Note ON: Time 514320, Note Name: D#3, Velocity: 42
Note ON: Time 514320, Note Name: G3, Velocity: 42
Note OFF: Time 514560, Note Name: G3
Note OFF: Time 514560, Note Name: D#3
Note OFF: Time 514560, Note Name: C4
Note ON: Time 514560, Note Name: D2, Velocity: 54
Note ON: Time 514560, Note Name: D3, Velocity: 65
Note OFF: Time 514680, Note Name: D3
Note OFF: Time 514680, Note Name: D2
Note ON: Time 514800, Note Name: F#3, Velocity: 43
Note ON: Time 514800, Note Name: A3, Velocity: 51
Note OFF: Time 515040, Note Name: A3
Note OFF: Time 515040, Note Name: F#3
Note ON: Time 515040, Note Name: E2, Velocity: 51
Note ON: Time 515040, Note Name: E3, Velocity: 60
Note OFF: Time 515160, Note Name: E3
Note OFF: Time 515160, Note Name: E2
Note ON: Time 515280, Note Name: A#3, Velocity: 50
Note ON: Time 515280, Note Name: G3, Velocity: 42
Note OFF: Time 515520, Note Name: G3
Note OFF: Time 515520, Note Name: A#3
Note ON: Time 515520, Note Name: F#3, Velocity: 65
Note ON: Time 515520, Note Name: F#2, Velocity: 54
Note OFF: Time 515640, Note Name: F#2
Note OFF: Time 515640, Note Name: F#3
Note ON: Time 515760, Note Name: C4, Velocity: 43
Note ON: Time 515760, Note Name: D#4, Velocity: 51
Note ON: Time 515760, Note Name: F#3, Velocity: 43
Note OFF: Time 516000, Note Name: F#3
Note OFF: Time 516000, Note Name: D#4
Note OFF: Time 516000, Note Name: C4
Note ON: Time 516000, Note Name: G3, Velocity: 43
Note ON: Time 516000, Note Name: C4, Velocity: 43
Note ON: Time 516000, Note Name: D#4, Velocity: 51
Note OFF: Time 516240, Note Name: D#4
Note OFF: Time 516240, Note Name: C4
Note OFF: Time 516240, Note Name: G3
Note ON: Time 516240, Note Name: G2, Velocity: 48
Note ON: Time 516240, Note Name: G3, Velocity: 58
Note OFF: Time 516360, Note Name: G3
Note OFF: Time 516360, Note Name: G2
Note ON: Time 516480, Note Name: G#2, Velocity: 55
Note ON: Time 516480, Note Name: G#3, Velocity: 66
Note OFF: Time 516600, Note Name: G#3
Note OFF: Time 516600, Note Name: G#2
Note ON: Time 516720, Note Name: D#4, Velocity: 44
Note ON: Time 516720, Note Name: G4, Velocity: 52
Note ON: Time 516720, Note Name: G#3, Velocity: 44
Note OFF: Time 516960, Note Name: G#3
Note OFF: Time 516960, Note Name: G4
Note OFF: Time 516960, Note Name: D#4
Note ON: Time 516960, Note Name: A3, Velocity: 45
Note ON: Time 516960, Note Name: G4, Velocity: 53
Note ON: Time 516960, Note Name: D#4, Velocity: 45
Note OFF: Time 517200, Note Name: D#4
Note OFF: Time 517200, Note Name: G4
Note OFF: Time 517200, Note Name: A3
Note ON: Time 517200, Note Name: A2, Velocity: 50
Note ON: Time 517200, Note Name: A3, Velocity: 60
Note OFF: Time 517320, Note Name: A3
Note OFF: Time 517320, Note Name: A2
Note ON: Time 517440, Note Name: A#3, Velocity: 69
Note ON: Time 517440, Note Name: A#2, Velocity: 57
Note OFF: Time 517560, Note Name: A#2
Note OFF: Time 517560, Note Name: A#3
Note ON: Time 517680, Note Name: D#4, Velocity: 46
Note ON: Time 517680, Note Name: A#3, Velocity: 46
Note ON: Time 517680, Note Name: F#4, Velocity: 54
Note OFF: Time 517920, Note Name: F#4
Note OFF: Time 517920, Note Name: A#3
Note OFF: Time 517920, Note Name: D#4
Note ON: Time 517920, Note Name: A4, Velocity: 55
Note ON: Time 517920, Note Name: B3, Velocity: 46
Note ON: Time 517920, Note Name: D#4, Velocity: 46
Note OFF: Time 518160, Note Name: D#4
Note OFF: Time 518160, Note Name: B3
Note OFF: Time 518160, Note Name: A4
Note ON: Time 518160, Note Name: B2, Velocity: 52
Note ON: Time 518160, Note Name: B3, Velocity: 63
Note OFF: Time 518280, Note Name: B3
Note OFF: Time 518280, Note Name: B2
Note ON: Time 518400, Note Name: C3, Velocity: 59
Note ON: Time 518400, Note Name: C4, Velocity: 71
Note OFF: Time 518520, Note Name: C4
Note OFF: Time 518520, Note Name: C3
Note ON: Time 518640, Note Name: F#4, Velocity: 47
Note ON: Time 518640, Note Name: D4, Velocity: 47
Note ON: Time 518640, Note Name: C4, Velocity: 47
Note ON: Time 518640, Note Name: A4, Velocity: 56
Note OFF: Time 519120, Note Name: A4
Note OFF: Time 519120, Note Name: F#4
Note OFF: Time 519120, Note Name: D4
Note OFF: Time 519120, Note Name: C4
Note ON: Time 519120, Note Name: C4, Velocity: 57
Note ON: Time 519120, Note Name: F#4, Velocity: 48
Note ON: Time 519120, Note Name: D4, Velocity: 57
Note ON: Time 519120, Note Name: A4, Velocity: 57
Note OFF: Time 519360, Note Name: A4
Note OFF: Time 519360, Note Name: C4
Note OFF: Time 519360, Note Name: F#4
Note OFF: Time 519360, Note Name: D4
Note ON: Time 519360, Note Name: A#3, Velocity: 74
Note ON: Time 519360, Note Name: A#2, Velocity: 61
Note OFF: Time 519480, Note Name: A#2
Note OFF: Time 519480, Note Name: A#3
Note ON: Time 519600, Note Name: G3, Velocity: 49
Note ON: Time 519600, Note Name: D4, Velocity: 49
Note ON: Time 519600, Note Name: G4, Velocity: 58
Note OFF: Time 519840, Note Name: G4
Note OFF: Time 519840, Note Name: D4
Note OFF: Time 519840, Note Name: G3
Note ON: Time 519840, Note Name: C3, Velocity: 54
Note ON: Time 519840, Note Name: C4, Velocity: 66
Note OFF: Time 519960, Note Name: C4
Note OFF: Time 519960, Note Name: C3
Note ON: Time 520080, Note Name: A3, Velocity: 54
Note ON: Time 520080, Note Name: G4, Velocity: 66
Note ON: Time 520080, Note Name: D#4, Velocity: 54
Note OFF: Time 520320, Note Name: D#4
Note OFF: Time 520320, Note Name: G4
Note OFF: Time 520320, Note Name: A3
Note ON: Time 520320, Note Name: D4, Velocity: 74
Note ON: Time 520320, Note Name: D3, Velocity: 61
Note OFF: Time 520440, Note Name: D3
Note OFF: Time 520440, Note Name: D4
Note ON: Time 520560, Note Name: A#4, Velocity: 58
Note ON: Time 520560, Note Name: G4, Velocity: 49
Note ON: Time 520560, Note Name: D4, Velocity: 49
Note OFF: Time 520800, Note Name: D4
Note OFF: Time 520800, Note Name: G4
Note OFF: Time 520800, Note Name: A#4
Note ON: Time 520800, Note Name: C3, Velocity: 54
Note ON: Time 520800, Note Name: C4, Velocity: 66
Note OFF: Time 520920, Note Name: C4
Note OFF: Time 520920, Note Name: C3
Note ON: Time 521040, Note Name: F#4, Velocity: 54
Note ON: Time 521040, Note Name: A4, Velocity: 66
Note ON: Time 521040, Note Name: D4, Velocity: 54
Note ON: Time 521040, Note Name: C4, Velocity: 54
Note OFF: Time 521280, Note Name: C4
Note OFF: Time 521280, Note Name: F#4
Note OFF: Time 521280, Note Name: A4
Note OFF: Time 521280, Note Name: D4
Note ON: Time 521280, Note Name: A#2, Velocity: 52
Note ON: Time 521280, Note Name: A#3, Velocity: 61
Note OFF: Time 521400, Note Name: A#3
Note OFF: Time 521400, Note Name: A#2
Note ON: Time 521520, Note Name: D4, Velocity: 46
Note ON: Time 521520, Note Name: G3, Velocity: 46
Note ON: Time 521520, Note Name: G4, Velocity: 54
Note OFF: Time 521760, Note Name: G4
Note OFF: Time 521760, Note Name: G3
Note OFF: Time 521760, Note Name: D4
Note ON: Time 521760, Note Name: C4, Velocity: 58
Note ON: Time 521760, Note Name: C3, Velocity: 48
Note OFF: Time 521880, Note Name: C3
Note OFF: Time 521880, Note Name: C4
Note ON: Time 522000, Note Name: A3, Velocity: 48
Note ON: Time 522000, Note Name: D#4, Velocity: 48
Note ON: Time 522000, Note Name: G4, Velocity: 57
Note OFF: Time 522240, Note Name: G4
Note OFF: Time 522240, Note Name: D#4
Note OFF: Time 522240, Note Name: A3
Note ON: Time 522240, Note Name: D3, Velocity: 56
Note ON: Time 522240, Note Name: D4, Velocity: 68
Note OFF: Time 522360, Note Name: D4
Note OFF: Time 522360, Note Name: D3
Note ON: Time 522480, Note Name: G4, Velocity: 49
Note ON: Time 522480, Note Name: A#4, Velocity: 58
Note ON: Time 522480, Note Name: D4, Velocity: 49
Note OFF: Time 522720, Note Name: D4
Note OFF: Time 522720, Note Name: A#4
Note OFF: Time 522720, Note Name: G4
Note ON: Time 522720, Note Name: C3, Velocity: 51
Note ON: Time 522720, Note Name: C4, Velocity: 60
Note OFF: Time 522840, Note Name: C4
Note OFF: Time 522840, Note Name: C3
Note ON: Time 522960, Note Name: D4, Velocity: 49
Note ON: Time 522960, Note Name: A4, Velocity: 49
Note ON: Time 522960, Note Name: F#4, Velocity: 49
Note ON: Time 522960, Note Name: C4, Velocity: 49
Note OFF: Time 523200, Note Name: C4
Note OFF: Time 523200, Note Name: D4
Note OFF: Time 523200, Note Name: A4
Note OFF: Time 523200, Note Name: F#4
Note ON: Time 523200, Note Name: A#3, Velocity: 87
Note ON: Time 523200, Note Name: A#2, Velocity: 73
Note OFF: Time 523320, Note Name: A#2
Note OFF: Time 523320, Note Name: A#3
Note ON: Time 523680, Note Name: A#5, Velocity: 73
Note ON: Time 523680, Note Name: D6, Velocity: 86
Note ON: Time 523680, Note Name: G5, Velocity: 73
Note OFF: Time 523800, Note Name: G5
Note OFF: Time 523800, Note Name: D6
Note OFF: Time 523800, Note Name: A#5
Note ON: Time 523800, Note Name: D5, Velocity: 78
Note OFF: Time 523920, Note Name: D5
Note ON: Time 524160, Note Name: A#4, Velocity: 69
Note ON: Time 524160, Note Name: D5, Velocity: 81
Note ON: Time 524160, Note Name: G4, Velocity: 69
Note OFF: Time 524280, Note Name: G4
Note OFF: Time 524280, Note Name: D5
Note OFF: Time 524280, Note Name: A#4
Note ON: Time 524280, Note Name: D4, Velocity: 77
Note OFF: Time 524400, Note Name: D4
Note ON: Time 524640, Note Name: D4, Velocity: 82
Note ON: Time 524640, Note Name: A#3, Velocity: 70
Note ON: Time 524640, Note Name: G3, Velocity: 70
Note OFF: Time 524760, Note Name: G3
Note OFF: Time 524760, Note Name: A#3
Note OFF: Time 524760, Note Name: D4
Note ON: Time 524760, Note Name: D3, Velocity: 74
Note OFF: Time 524880, Note Name: D3
Note ON: Time 525120, Note Name: F#2, Velocity: 93
Note ON: Time 525120, Note Name: F#1, Velocity: 78
Note OFF: Time 525240, Note Name: F#1
Note OFF: Time 525240, Note Name: F#2
Note ON: Time 525240, Note Name: G2, Velocity: 81
Note ON: Time 525240, Note Name: G1, Velocity: 69
Note OFF: Time 525360, Note Name: G1
Note OFF: Time 525360, Note Name: G2
Note ON: Time 525600, Note Name: C#2, Velocity: 78
Note ON: Time 525600, Note Name: C#3, Velocity: 93
Note OFF: Time 525720, Note Name: C#3
Note OFF: Time 525720, Note Name: C#2
Note ON: Time 525720, Note Name: D2, Velocity: 72
Note ON: Time 525720, Note Name: D3, Velocity: 85
Note OFF: Time 525840, Note Name: D3
Note OFF: Time 525840, Note Name: D2
Note ON: Time 526080, Note Name: F#2, Velocity: 93
Note ON: Time 526080, Note Name: F#1, Velocity: 78
Note OFF: Time 526200, Note Name: F#1
Note OFF: Time 526200, Note Name: F#2
Note ON: Time 526200, Note Name: G2, Velocity: 81
Note ON: Time 526200, Note Name: G1, Velocity: 69
Note OFF: Time 526320, Note Name: G1
Note OFF: Time 526320, Note Name: G2
Note ON: Time 526560, Note Name: C#3, Velocity: 93
Note ON: Time 526560, Note Name: C#2, Velocity: 78
Note OFF: Time 526680, Note Name: C#2
Note OFF: Time 526680, Note Name: C#3
Note ON: Time 526680, Note Name: D3, Velocity: 85
Note ON: Time 526680, Note Name: D2, Velocity: 72
Note OFF: Time 526800, Note Name: D2
Note OFF: Time 526800, Note Name: D3
Note ON: Time 527040, Note Name: D2, Velocity: 97
Note ON: Time 527040, Note Name: D1, Velocity: 81
Note OFF: Time 527520, Note Name: D1
Note OFF: Time 527520, Note Name: D2
Note ON: Time 528480, Note Name: E4, Velocity: 69
Note ON: Time 528480, Note Name: C#4, Velocity: 69
Note ON: Time 528480, Note Name: A#3, Velocity: 69
Note ON: Time 528480, Note Name: G3, Velocity: 69
Note OFF: Time 528840, Note Name: G3
Note OFF: Time 528840, Note Name: E4
Note OFF: Time 528840, Note Name: C#4
Note OFF: Time 528840, Note Name: A#3
Note ON: Time 528840, Note Name: A#3, Velocity: 62
Note ON: Time 528840, Note Name: G3, Velocity: 62
Note ON: Time 528840, Note Name: E4, Velocity: 62
Note ON: Time 528840, Note Name: C#4, Velocity: 62
Note OFF: Time 528960, Note Name: C#4
Note OFF: Time 528960, Note Name: A#3
Note OFF: Time 528960, Note Name: G3
Note OFF: Time 528960, Note Name: E4
Note ON: Time 528960, Note Name: F#4, Velocity: 69
Note ON: Time 528960, Note Name: A#3, Velocity: 69
Note ON: Time 528960, Note Name: G3, Velocity: 69
Note ON: Time 528960, Note Name: C#4, Velocity: 69
Note OFF: Time 529440, Note Name: C#4
Note OFF: Time 529440, Note Name: F#4
Note OFF: Time 529440, Note Name: A#3
Note OFF: Time 529440, Note Name: G3
Note ON: Time 529440, Note Name: C#4, Velocity: 69
Note ON: Time 529440, Note Name: G3, Velocity: 69
Note ON: Time 529440, Note Name: A#3, Velocity: 69
Note ON: Time 529440, Note Name: E4, Velocity: 69
Note OFF: Time 529800, Note Name: E4
Note OFF: Time 529800, Note Name: C#4
Note OFF: Time 529800, Note Name: G3
Note OFF: Time 529800, Note Name: A#3
Note ON: Time 529800, Note Name: E4, Velocity: 62
Note ON: Time 529800, Note Name: C#4, Velocity: 62
Note ON: Time 529800, Note Name: G3, Velocity: 62
Note ON: Time 529800, Note Name: A#3, Velocity: 62
Note OFF: Time 529920, Note Name: A#3
Note OFF: Time 529920, Note Name: E4
Note OFF: Time 529920, Note Name: C#4
Note OFF: Time 529920, Note Name: G3
Note ON: Time 529920, Note Name: A#3, Velocity: 69
Note ON: Time 529920, Note Name: C#4, Velocity: 69
Note ON: Time 529920, Note Name: G3, Velocity: 69
Note ON: Time 529920, Note Name: F#4, Velocity: 69
Note OFF: Time 530400, Note Name: F#4
Note OFF: Time 530400, Note Name: A#3
Note OFF: Time 530400, Note Name: C#4
Note OFF: Time 530400, Note Name: G3
Note ON: Time 530400, Note Name: C#4, Velocity: 69
Note ON: Time 530400, Note Name: G3, Velocity: 69
Note ON: Time 530400, Note Name: A#3, Velocity: 69
Note ON: Time 530400, Note Name: E4, Velocity: 69
Note OFF: Time 530700, Note Name: E4
Note OFF: Time 530700, Note Name: C#4
Note OFF: Time 530700, Note Name: G3
Note OFF: Time 530700, Note Name: A#3
Note ON: Time 530700, Note Name: D3, Velocity: 67
Note ON: Time 530760, Note Name: A3, Velocity: 68
Note ON: Time 530820, Note Name: C4, Velocity: 70
Note ON: Time 530880, Note Name: G4, Velocity: 78
Note OFF: Time 534360, Note Name: G4
Note ON: Time 534360, Note Name: F#4, Velocity: 80
Note OFF: Time 536638, Note Name: F#4
Note OFF: Time 536640, Note Name: C4
Note OFF: Time 536640, Note Name: A3
Note OFF: Time 536640, Note Name: D3
Note ON: Time 539040, Note Name: G1, Velocity: 115
Note OFF: Time 540120, Note Name: G1
Note ON: Time 540120, Note Name: A1, Velocity: 65
Note OFF: Time 540240, Note Name: A1
Note ON: Time 540240, Note Name: A#1, Velocity: 65
Note OFF: Time 540360, Note Name: A#1
Note ON: Time 540360, Note Name: C2, Velocity: 66
Note OFF: Time 540480, Note Name: C2
Note ON: Time 540480, Note Name: D2, Velocity: 67
Note OFF: Time 540600, Note Name: D2
Note ON: Time 540600, Note Name: E2, Velocity: 67
Note OFF: Time 540720, Note Name: E2
Note ON: Time 540720, Note Name: F#2, Velocity: 68
Note OFF: Time 540840, Note Name: F#2
Note ON: Time 540840, Note Name: G2, Velocity: 68
Note OFF: Time 540960, Note Name: G2
Note ON: Time 540960, Note Name: A2, Velocity: 69
Note OFF: Time 541080, Note Name: A2
Note ON: Time 541080, Note Name: A#2, Velocity: 69
Note OFF: Time 541200, Note Name: A#2
Note ON: Time 541200, Note Name: C3, Velocity: 70
Note OFF: Time 541320, Note Name: C3
Note ON: Time 541320, Note Name: D3, Velocity: 70
Note OFF: Time 541440, Note Name: D3
Note ON: Time 541440, Note Name: E3, Velocity: 71
Note OFF: Time 541560, Note Name: E3
Note ON: Time 541560, Note Name: F#3, Velocity: 72
Note OFF: Time 541680, Note Name: F#3
Note ON: Time 541680, Note Name: G3, Velocity: 72
Note OFF: Time 541800, Note Name: G3
Note ON: Time 541800, Note Name: A3, Velocity: 73
Note OFF: Time 541920, Note Name: A3
Note ON: Time 541920, Note Name: A#3, Velocity: 73
Note OFF: Time 542040, Note Name: A#3
Note ON: Time 542040, Note Name: C4, Velocity: 74
Note OFF: Time 542160, Note Name: C4
Note ON: Time 542160, Note Name: D4, Velocity: 74
Note OFF: Time 542280, Note Name: D4
Note ON: Time 542280, Note Name: E4, Velocity: 75
Note OFF: Time 542400, Note Name: E4
Note ON: Time 542400, Note Name: F#4, Velocity: 76
Note OFF: Time 542520, Note Name: F#4
Note ON: Time 542520, Note Name: G4, Velocity: 83
Note OFF: Time 542640, Note Name: G4
Note ON: Time 543000, Note Name: D3, Velocity: 31
Note ON: Time 543000, Note Name: G2, Velocity: 26
Note ON: Time 543000, Note Name: G1, Velocity: 26
Note ON: Time 543000, Note Name: G3, Velocity: 31
Note ON: Time 543000, Note Name: A#3, Velocity: 38
Note OFF: Time 543360, Note Name: A#3
Note OFF: Time 543360, Note Name: G1
Note OFF: Time 543360, Note Name: D3
Note OFF: Time 543360, Note Name: G2
Note OFF: Time 543360, Note Name: G3
Note ON: Time 543360, Note Name: G1, Velocity: 26
Note ON: Time 543360, Note Name: G3, Velocity: 31
Note ON: Time 543360, Note Name: A#3, Velocity: 38
Note ON: Time 543360, Note Name: G2, Velocity: 26
Note ON: Time 543360, Note Name: D3, Velocity: 31
Note OFF: Time 543480, Note Name: D3
Note OFF: Time 543480, Note Name: A#3
Note OFF: Time 543480, Note Name: G1
Note OFF: Time 543480, Note Name: G3
Note OFF: Time 543480, Note Name: G2
Note ON: Time 543480, Note Name: G1, Velocity: 26
Note ON: Time 543480, Note Name: G2, Velocity: 26
Note ON: Time 543480, Note Name: G3, Velocity: 31
Note ON: Time 543480, Note Name: A#3, Velocity: 38
Note ON: Time 543480, Note Name: D3, Velocity: 31
Note OFF: Time 543960, Note Name: D3
Note OFF: Time 543960, Note Name: G3
Note OFF: Time 543960, Note Name: G1
Note OFF: Time 543960, Note Name: G2
Note OFF: Time 543960, Note Name: A#3
Note ON: Time 544040, Note Name: D3, Velocity: 84
Note ON: Time 544040, Note Name: D2, Velocity: 75
Note OFF: Time 544120, Note Name: D2
Note OFF: Time 544120, Note Name: D3
Note ON: Time 544120, Note Name: G2, Velocity: 71
Note ON: Time 544120, Note Name: G3, Velocity: 80
Note OFF: Time 544200, Note Name: G3
Note OFF: Time 544200, Note Name: G2
Note ON: Time 544200, Note Name: A2, Velocity: 77
Note ON: Time 544200, Note Name: A3, Velocity: 85
Note OFF: Time 544280, Note Name: A3
Note OFF: Time 544280, Note Name: A2
Note ON: Time 544280, Note Name: C3, Velocity: 79
Note ON: Time 544280, Note Name: C4, Velocity: 89
Note OFF: Time 544360, Note Name: C4
Note OFF: Time 544360, Note Name: C3
Note ON: Time 544360, Note Name: A#2, Velocity: 74
Note ON: Time 544360, Note Name: A#3, Velocity: 83
Note OFF: Time 544430, Note Name: A#3
Note OFF: Time 544430, Note Name: A#2
Note ON: Time 544440, Note Name: A#2, Velocity: 82
Note ON: Time 544440, Note Name: A#3, Velocity: 92
Note OFF: Time 544560, Note Name: A#3
Note OFF: Time 544560, Note Name: A#2
Note ON: Time 544920, Note Name: G1, Velocity: 79
Note OFF: Time 545520, Note Name: G1
Note ON: Time 545520, Note Name: A1, Velocity: 52
Note OFF: Time 545640, Note Name: A1
Note ON: Time 545640, Note Name: A#1, Velocity: 52
Note OFF: Time 545760, Note Name: A#1
Note ON: Time 545760, Note Name: C2, Velocity: 53
Note OFF: Time 545880, Note Name: C2
Note ON: Time 545880, Note Name: D2, Velocity: 53
Note OFF: Time 546000, Note Name: D2
Note ON: Time 546000, Note Name: E2, Velocity: 54
Note OFF: Time 546120, Note Name: E2
Note ON: Time 546120, Note Name: F#2, Velocity: 54
Note OFF: Time 546240, Note Name: F#2
Note ON: Time 546240, Note Name: G2, Velocity: 55
Note OFF: Time 546360, Note Name: G2
Note ON: Time 546360, Note Name: A2, Velocity: 55
Note OFF: Time 546480, Note Name: A2
Note ON: Time 546480, Note Name: A#2, Velocity: 56
Note OFF: Time 546600, Note Name: A#2
Note ON: Time 546600, Note Name: C3, Velocity: 56
Note OFF: Time 546720, Note Name: C3
Note ON: Time 546720, Note Name: D3, Velocity: 57
Note OFF: Time 546840, Note Name: D3
Note ON: Time 546840, Note Name: E3, Velocity: 57
Note OFF: Time 546960, Note Name: E3
Note ON: Time 546960, Note Name: F#3, Velocity: 58
Note OFF: Time 547080, Note Name: F#3
Note ON: Time 547080, Note Name: G3, Velocity: 58
Note OFF: Time 547200, Note Name: G3
Note ON: Time 547200, Note Name: A3, Velocity: 59
Note OFF: Time 547320, Note Name: A3
Note ON: Time 547320, Note Name: A#3, Velocity: 60
Note OFF: Time 547440, Note Name: A#3
Note ON: Time 547440, Note Name: C4, Velocity: 60
Note OFF: Time 547560, Note Name: C4
Note ON: Time 547560, Note Name: D4, Velocity: 61
Note OFF: Time 547680, Note Name: D4
Note ON: Time 547680, Note Name: E4, Velocity: 61
Note OFF: Time 547800, Note Name: E4
Note ON: Time 547800, Note Name: F#4, Velocity: 62
Note OFF: Time 547920, Note Name: F#4
Note ON: Time 547920, Note Name: G4, Velocity: 62
Note OFF: Time 548040, Note Name: G4
Note ON: Time 548040, Note Name: A4, Velocity: 63
Note OFF: Time 548160, Note Name: A4
Note ON: Time 548160, Note Name: A#4, Velocity: 63
Note OFF: Time 548280, Note Name: A#4
Note ON: Time 548280, Note Name: C5, Velocity: 64
Note OFF: Time 548400, Note Name: C5
Note ON: Time 548400, Note Name: D5, Velocity: 64
Note OFF: Time 548520, Note Name: D5
Note ON: Time 548520, Note Name: E5, Velocity: 65
Note OFF: Time 548640, Note Name: E5
Note ON: Time 548640, Note Name: F#5, Velocity: 65
Note OFF: Time 548760, Note Name: F#5
Note ON: Time 548760, Note Name: G5, Velocity: 70
Note OFF: Time 548880, Note Name: G5
Note ON: Time 549240, Note Name: G2, Velocity: 26
Note ON: Time 549240, Note Name: G1, Velocity: 26
Note OFF: Time 549600, Note Name: G1
Note OFF: Time 549600, Note Name: G2
Note ON: Time 549600, Note Name: G1, Velocity: 26
Note ON: Time 549600, Note Name: G2, Velocity: 26
Note OFF: Time 549720, Note Name: G2
Note OFF: Time 549720, Note Name: G1
Note ON: Time 549720, Note Name: G1, Velocity: 26
Note ON: Time 549720, Note Name: G2, Velocity: 26
Note OFF: Time 550200, Note Name: G2
Note OFF: Time 550200, Note Name: G1
Note ON: Time 550280, Note Name: D3, Velocity: 86
Note OFF: Time 550360, Note Name: D3
Note ON: Time 550360, Note Name: G3, Velocity: 86
Note OFF: Time 550440, Note Name: G3
Note ON: Time 550440, Note Name: A#3, Velocity: 89
Note OFF: Time 550520, Note Name: A#3
Note ON: Time 550520, Note Name: D#4, Velocity: 90
Note OFF: Time 550600, Note Name: D#4
Note ON: Time 550600, Note Name: D4, Velocity: 86
Note OFF: Time 550670, Note Name: D4
Note ON: Time 550680, Note Name: D4, Velocity: 86
Note OFF: Time 550800, Note Name: D4
Note ON: Time 551130, Note Name: A#1, Velocity: 74
Note ON: Time 551160, Note Name: A#2, Velocity: 77
Note OFF: Time 551260, Note Name: A#2
Note ON: Time 551290, Note Name: B1, Velocity: 76
Note OFF: Time 551291, Note Name: A#1
Note ON: Time 551320, Note Name: B2, Velocity: 76
Note OFF: Time 551420, Note Name: B2
Note OFF: Time 551420, Note Name: B1
Note ON: Time 551450, Note Name: C2, Velocity: 75
Note ON: Time 551480, Note Name: C3, Velocity: 75
Note OFF: Time 551580, Note Name: C3
Note OFF: Time 551580, Note Name: C2
Note ON: Time 551610, Note Name: C#2, Velocity: 74
Note ON: Time 551640, Note Name: C#3, Velocity: 74
Note OFF: Time 551740, Note Name: C#3
Note OFF: Time 551740, Note Name: C#2
Note ON: Time 551770, Note Name: D2, Velocity: 73
Note ON: Time 551800, Note Name: D3, Velocity: 73
Note OFF: Time 551900, Note Name: D3
Note OFF: Time 551900, Note Name: D2
Note ON: Time 551930, Note Name: D#2, Velocity: 75
Note ON: Time 551960, Note Name: D#3, Velocity: 72
Note OFF: Time 552060, Note Name: D#3
Note OFF: Time 552060, Note Name: D#2
Note ON: Time 552090, Note Name: E2, Velocity: 74
Note ON: Time 552120, Note Name: E3, Velocity: 73
Note OFF: Time 552220, Note Name: E3
Note OFF: Time 552220, Note Name: E2
Note ON: Time 552250, Note Name: F2, Velocity: 72
Note ON: Time 552280, Note Name: F3, Velocity: 72
Note OFF: Time 552380, Note Name: F3
Note OFF: Time 552380, Note Name: F2
Note ON: Time 552410, Note Name: F#2, Velocity: 72
Note ON: Time 552440, Note Name: F#3, Velocity: 72
Note OFF: Time 552540, Note Name: F#3
Note OFF: Time 552540, Note Name: F#2
Note ON: Time 552600, Note Name: G3, Velocity: 72
Note ON: Time 552600, Note Name: G2, Velocity: 66
Note OFF: Time 552720, Note Name: G2
Note OFF: Time 552720, Note Name: G3
Note ON: Time 552760, Note Name: F#2, Velocity: 66
Note ON: Time 552760, Note Name: F#3, Velocity: 72
Note OFF: Time 552880, Note Name: F#3
Note OFF: Time 552880, Note Name: F#2
Note ON: Time 552920, Note Name: F2, Velocity: 65
Note ON: Time 552920, Note Name: F3, Velocity: 71
Note OFF: Time 553040, Note Name: F3
Note OFF: Time 553040, Note Name: F2
Note ON: Time 553080, Note Name: E3, Velocity: 70
Note ON: Time 553080, Note Name: E2, Velocity: 64
Note OFF: Time 553200, Note Name: E2
Note OFF: Time 553200, Note Name: E3
Note ON: Time 553240, Note Name: D#3, Velocity: 69
Note ON: Time 553240, Note Name: D#2, Velocity: 63
Note OFF: Time 553360, Note Name: D#2
Note OFF: Time 553360, Note Name: D#3
Note ON: Time 553400, Note Name: D3, Velocity: 67
Note ON: Time 553400, Note Name: D2, Velocity: 61
Note OFF: Time 553520, Note Name: D2
Note OFF: Time 553520, Note Name: D3
Note ON: Time 553560, Note Name: C#3, Velocity: 66
Note ON: Time 553560, Note Name: C#2, Velocity: 60
Note OFF: Time 553680, Note Name: C#2
Note OFF: Time 553680, Note Name: C#3
Note ON: Time 553720, Note Name: C3, Velocity: 66
Note ON: Time 553720, Note Name: C2, Velocity: 60
Note OFF: Time 553840, Note Name: C2
Note OFF: Time 553840, Note Name: C3
Note ON: Time 553880, Note Name: B1, Velocity: 60
Note ON: Time 553880, Note Name: B2, Velocity: 66
Note OFF: Time 554000, Note Name: B2
Note OFF: Time 554000, Note Name: B1
Note ON: Time 554040, Note Name: A#1, Velocity: 67
Note ON: Time 554040, Note Name: A#2, Velocity: 73
Note OFF: Time 554160, Note Name: A#2
Note OFF: Time 554160, Note Name: A#1
Note ON: Time 554200, Note Name: A1, Velocity: 72
Note ON: Time 554200, Note Name: A2, Velocity: 79
Note OFF: Time 554320, Note Name: A2
Note OFF: Time 554320, Note Name: A1
Note ON: Time 554360, Note Name: G#1, Velocity: 77
Note ON: Time 554360, Note Name: G#2, Velocity: 84
Note OFF: Time 554480, Note Name: G#2
Note OFF: Time 554480, Note Name: G#1
Note ON: Time 554520, Note Name: G1, Velocity: 71
Note ON: Time 554520, Note Name: G2, Velocity: 83
Note OFF: Time 555000, Note Name: G2
Note OFF: Time 555000, Note Name: G1
Note ON: Time 555480, Note Name: G4, Velocity: 95
Note ON: Time 555480, Note Name: G3, Velocity: 80
Note ON: Time 555480, Note Name: D4, Velocity: 80
Note OFF: Time 556440, Note Name: D4
Note OFF: Time 556440, Note Name: G3
Note OFF: Time 556440, Note Name: G4
Note ON: Time 556440, Note Name: G2, Velocity: 95
Note ON: Time 556440, Note Name: G1, Velocity: 80
Note OFF: Time 557400, Note Name: G1
Note OFF: Time 557400, Note Name: G2
Track 3: Chopin: Ballade in G minor Op. 32
Track 4: Copyright  2003 by Bernd Krueger
Track 5: http://www.piano-midi.de
Track 6: Edition: 2014-02-15
Track 7: Spur 7
