Processing chpn_op10_e05.mid...

Track 0: Etüde Opus 10 No. 5
Track 1: Piano right
Note ON: Time 1, Note Name: F#6, Velocity: 99
Note ON: Time 80, Note Name: A#6, Velocity: 76
Note OFF: Time 81, Note Name: F#6
Note OFF: Time 160, Note Name: A#6
Note ON: Time 160, Note Name: C#6, Velocity: 69
Note OFF: Time 240, Note Name: C#6
Note ON: Time 240, Note Name: F#6, Velocity: 93
Note OFF: Time 320, Note Name: F#6
Note ON: Time 320, Note Name: D#6, Velocity: 79
Note OFF: Time 400, Note Name: D#6
Note ON: Time 400, Note Name: F#6, Velocity: 73
Note OFF: Time 480, Note Name: F#6
Note ON: Time 480, Note Name: C#6, Velocity: 92
Note OFF: Time 560, Note Name: C#6
Note ON: Time 560, Note Name: F#6, Velocity: 78
Note OFF: Time 640, Note Name: F#6
Note ON: Time 640, Note Name: A#5, Velocity: 71
Note OFF: Time 720, Note Name: A#5
Note ON: Time 720, Note Name: C#6, Velocity: 84
Note OFF: Time 800, Note Name: C#6
Note ON: Time 800, Note Name: F#5, Velocity: 72
Note OFF: Time 880, Note Name: F#5
Note ON: Time 880, Note Name: A#5, Velocity: 68
Note OFF: Time 960, Note Name: A#5
Note ON: Time 960, Note Name: F#5, Velocity: 74
Note OFF: Time 1040, Note Name: F#5
Note ON: Time 1040, Note Name: A#5, Velocity: 64
Note OFF: Time 1120, Note Name: A#5
Note ON: Time 1120, Note Name: C#5, Velocity: 58
Note OFF: Time 1200, Note Name: C#5
Note ON: Time 1200, Note Name: F#5, Velocity: 71
Note OFF: Time 1280, Note Name: F#5
Note ON: Time 1280, Note Name: D#5, Velocity: 63
Note OFF: Time 1360, Note Name: D#5
Note ON: Time 1360, Note Name: F#5, Velocity: 57
Note OFF: Time 1440, Note Name: F#5
Note ON: Time 1440, Note Name: C#5, Velocity: 69
Note OFF: Time 1520, Note Name: C#5
Note ON: Time 1520, Note Name: F#5, Velocity: 56
Note OFF: Time 1600, Note Name: F#5
Note ON: Time 1600, Note Name: A#4, Velocity: 56
Note OFF: Time 1680, Note Name: A#4
Note ON: Time 1680, Note Name: C#5, Velocity: 67
Note OFF: Time 1760, Note Name: C#5
Note ON: Time 1760, Note Name: F#4, Velocity: 55
Note OFF: Time 1840, Note Name: F#4
Note ON: Time 1840, Note Name: A#4, Velocity: 53
Note OFF: Time 1920, Note Name: A#4
Note ON: Time 1920, Note Name: C#4, Velocity: 74
Note OFF: Time 2000, Note Name: C#4
Note ON: Time 2000, Note Name: C#5, Velocity: 69
Note OFF: Time 2080, Note Name: C#5
Note ON: Time 2080, Note Name: G#4, Velocity: 63
Note OFF: Time 2160, Note Name: G#4
Note ON: Time 2160, Note Name: C#5, Velocity: 75
Note OFF: Time 2240, Note Name: C#5
Note ON: Time 2240, Note Name: G#4, Velocity: 67
Note OFF: Time 2320, Note Name: G#4
Note ON: Time 2320, Note Name: G#5, Velocity: 61
Note OFF: Time 2400, Note Name: G#5
Note ON: Time 2400, Note Name: G#4, Velocity: 75
Note OFF: Time 2480, Note Name: G#4
Note ON: Time 2480, Note Name: G#5, Velocity: 68
Note OFF: Time 2560, Note Name: G#5
Note ON: Time 2560, Note Name: D#5, Velocity: 61
Note OFF: Time 2640, Note Name: D#5
Note ON: Time 2640, Note Name: G#5, Velocity: 81
Note OFF: Time 2720, Note Name: G#5
Note ON: Time 2720, Note Name: D#5, Velocity: 74
Note OFF: Time 2800, Note Name: D#5
Note ON: Time 2800, Note Name: D#6, Velocity: 70
Note OFF: Time 2880, Note Name: D#6
Note ON: Time 2880, Note Name: D#5, Velocity: 82
Note OFF: Time 2960, Note Name: D#5
Note ON: Time 2960, Note Name: D#6, Velocity: 73
Note OFF: Time 3040, Note Name: D#6
Note ON: Time 3040, Note Name: G#5, Velocity: 68
Note OFF: Time 3120, Note Name: G#5
Note ON: Time 3120, Note Name: D#6, Velocity: 86
Note OFF: Time 3200, Note Name: D#6
Note ON: Time 3200, Note Name: G#5, Velocity: 69
Note OFF: Time 3280, Note Name: G#5
Note ON: Time 3280, Note Name: G#6, Velocity: 67
Note OFF: Time 3360, Note Name: G#6
Note ON: Time 3360, Note Name: G#5, Velocity: 89
Note OFF: Time 3440, Note Name: G#5
Note ON: Time 3440, Note Name: G#6, Velocity: 77
Note OFF: Time 3520, Note Name: G#6
Note ON: Time 3520, Note Name: C#6, Velocity: 75
Note OFF: Time 3600, Note Name: C#6
Note ON: Time 3600, Note Name: G#6, Velocity: 92
Note OFF: Time 3680, Note Name: G#6
Note ON: Time 3680, Note Name: C#6, Velocity: 83
Note OFF: Time 3760, Note Name: C#6
Note ON: Time 3760, Note Name: C#7, Velocity: 78
Note OFF: Time 3840, Note Name: C#7
Note ON: Time 3840, Note Name: F#6, Velocity: 96
Note OFF: Time 3920, Note Name: F#6
Note ON: Time 3920, Note Name: A#6, Velocity: 78
Note OFF: Time 4000, Note Name: A#6
Note ON: Time 4000, Note Name: C#6, Velocity: 75
Note OFF: Time 4080, Note Name: C#6
Note ON: Time 4080, Note Name: F#6, Velocity: 95
Note OFF: Time 4160, Note Name: F#6
Note ON: Time 4160, Note Name: D#6, Velocity: 77
Note OFF: Time 4240, Note Name: D#6
Note ON: Time 4240, Note Name: F#6, Velocity: 74
Note OFF: Time 4320, Note Name: F#6
Note ON: Time 4320, Note Name: C#6, Velocity: 95
Note OFF: Time 4400, Note Name: C#6
Note ON: Time 4400, Note Name: F#6, Velocity: 76
Note OFF: Time 4480, Note Name: F#6
Note ON: Time 4480, Note Name: A#5, Velocity: 74
Note OFF: Time 4560, Note Name: A#5
Note ON: Time 4560, Note Name: C#6, Velocity: 85
Note OFF: Time 4640, Note Name: C#6
Note ON: Time 4640, Note Name: F#5, Velocity: 75
Note OFF: Time 4720, Note Name: F#5
Note ON: Time 4720, Note Name: A#5, Velocity: 70
Note OFF: Time 4800, Note Name: A#5
Note ON: Time 4800, Note Name: F#5, Velocity: 74
Note OFF: Time 4880, Note Name: F#5
Note ON: Time 4880, Note Name: A#5, Velocity: 69
Note OFF: Time 4960, Note Name: A#5
Note ON: Time 4960, Note Name: C#5, Velocity: 65
Note OFF: Time 5040, Note Name: C#5
Note ON: Time 5040, Note Name: F#5, Velocity: 74
Note OFF: Time 5120, Note Name: F#5
Note ON: Time 5120, Note Name: D#5, Velocity: 69
Note OFF: Time 5200, Note Name: D#5
Note ON: Time 5200, Note Name: F#5, Velocity: 66
Note OFF: Time 5280, Note Name: F#5
Note ON: Time 5280, Note Name: C#5, Velocity: 74
Note OFF: Time 5360, Note Name: C#5
Note ON: Time 5360, Note Name: F#5, Velocity: 67
Note OFF: Time 5440, Note Name: F#5
Note ON: Time 5440, Note Name: A#4, Velocity: 70
Note OFF: Time 5520, Note Name: A#4
Note ON: Time 5520, Note Name: C#5, Velocity: 74
Note OFF: Time 5600, Note Name: C#5
Note ON: Time 5600, Note Name: F#4, Velocity: 65
Note OFF: Time 5680, Note Name: F#4
Note ON: Time 5680, Note Name: A#4, Velocity: 68
Note OFF: Time 5760, Note Name: A#4
Note ON: Time 5760, Note Name: D#4, Velocity: 77
Note OFF: Time 5840, Note Name: D#4
Note ON: Time 5840, Note Name: D#5, Velocity: 69
Note OFF: Time 5920, Note Name: D#5
Note ON: Time 5920, Note Name: G#4, Velocity: 66
Note OFF: Time 6000, Note Name: G#4
Note ON: Time 6000, Note Name: D#5, Velocity: 77
Note OFF: Time 6080, Note Name: D#5
Note ON: Time 6080, Note Name: G#4, Velocity: 67
Note OFF: Time 6160, Note Name: G#4
Note ON: Time 6160, Note Name: G#5, Velocity: 71
Note OFF: Time 6240, Note Name: G#5
Note ON: Time 6240, Note Name: D#5, Velocity: 77
Note OFF: Time 6320, Note Name: D#5
Note ON: Time 6320, Note Name: G#5, Velocity: 74
Note OFF: Time 6400, Note Name: G#5
Note ON: Time 6400, Note Name: D#5, Velocity: 70
Note OFF: Time 6480, Note Name: D#5
Note ON: Time 6480, Note Name: D#5, Velocity: 82
Note OFF: Time 6560, Note Name: D#5
Note ON: Time 6560, Note Name: G#5, Velocity: 73
Note OFF: Time 6640, Note Name: G#5
Note ON: Time 6640, Note Name: G#6, Velocity: 75
Note OFF: Time 6720, Note Name: G#6
Note ON: Time 6720, Note Name: A#5, Velocity: 88
Note OFF: Time 6800, Note Name: A#5
Note ON: Time 6800, Note Name: A#6, Velocity: 78
Note OFF: Time 6880, Note Name: A#6
Note ON: Time 6880, Note Name: A#5, Velocity: 70
Note OFF: Time 6960, Note Name: A#5
Note ON: Time 6960, Note Name: A#6, Velocity: 81
Note OFF: Time 7040, Note Name: A#6
Note ON: Time 7040, Note Name: A#5, Velocity: 75
Note OFF: Time 7120, Note Name: A#5
Note ON: Time 7120, Note Name: A#6, Velocity: 70
Note OFF: Time 7200, Note Name: A#6
Note ON: Time 7200, Note Name: A#5, Velocity: 68
Note OFF: Time 7280, Note Name: A#5
Note ON: Time 7280, Note Name: A#6, Velocity: 62
Note OFF: Time 7360, Note Name: A#6
Note ON: Time 7360, Note Name: A#5, Velocity: 53
Note OFF: Time 7440, Note Name: A#5
Note ON: Time 7440, Note Name: A#6, Velocity: 59
Note OFF: Time 7520, Note Name: A#6
Note ON: Time 7520, Note Name: A#5, Velocity: 53
Note OFF: Time 7600, Note Name: A#5
Note ON: Time 7600, Note Name: A#6, Velocity: 45
Note OFF: Time 7680, Note Name: A#6
Note ON: Time 7681, Note Name: F#6, Velocity: 96
Note ON: Time 7760, Note Name: A#6, Velocity: 73
Note OFF: Time 7761, Note Name: F#6
Note OFF: Time 7840, Note Name: A#6
Note ON: Time 7840, Note Name: C#6, Velocity: 67
Note OFF: Time 7920, Note Name: C#6
Note ON: Time 7920, Note Name: F#6, Velocity: 90
Note OFF: Time 8000, Note Name: F#6
Note ON: Time 8000, Note Name: D#6, Velocity: 67
Note OFF: Time 8080, Note Name: D#6
Note ON: Time 8080, Note Name: F#6, Velocity: 59
Note OFF: Time 8160, Note Name: F#6
Note ON: Time 8160, Note Name: C#6, Velocity: 93
Note OFF: Time 8240, Note Name: C#6
Note ON: Time 8240, Note Name: F#6, Velocity: 68
Note OFF: Time 8320, Note Name: F#6
Note ON: Time 8320, Note Name: A#5, Velocity: 66
Note OFF: Time 8400, Note Name: A#5
Note ON: Time 8400, Note Name: C#6, Velocity: 84
Note OFF: Time 8480, Note Name: C#6
Note ON: Time 8480, Note Name: F#5, Velocity: 66
Note OFF: Time 8560, Note Name: F#5
Note ON: Time 8560, Note Name: A#5, Velocity: 63
Note OFF: Time 8640, Note Name: A#5
Note ON: Time 8640, Note Name: F#5, Velocity: 74
Note OFF: Time 8720, Note Name: F#5
Note ON: Time 8720, Note Name: A#5, Velocity: 66
Note OFF: Time 8800, Note Name: A#5
Note ON: Time 8800, Note Name: C#5, Velocity: 63
Note OFF: Time 8880, Note Name: C#5
Note ON: Time 8880, Note Name: F#5, Velocity: 68
Note OFF: Time 8960, Note Name: F#5
Note ON: Time 8960, Note Name: D#5, Velocity: 65
Note OFF: Time 9040, Note Name: D#5
Note ON: Time 9040, Note Name: F#5, Velocity: 62
Note OFF: Time 9120, Note Name: F#5
Note ON: Time 9120, Note Name: C#5, Velocity: 74
Note OFF: Time 9200, Note Name: C#5
Note ON: Time 9200, Note Name: F#5, Velocity: 65
Note OFF: Time 9280, Note Name: F#5
Note ON: Time 9280, Note Name: A#4, Velocity: 61
Note OFF: Time 9360, Note Name: A#4
Note ON: Time 9360, Note Name: C#5, Velocity: 74
Note OFF: Time 9440, Note Name: C#5
Note ON: Time 9440, Note Name: F#4, Velocity: 67
Note OFF: Time 9520, Note Name: F#4
Note ON: Time 9520, Note Name: A#4, Velocity: 65
Note OFF: Time 9600, Note Name: A#4
Note ON: Time 9600, Note Name: C#4, Velocity: 74
Note OFF: Time 9680, Note Name: C#4
Note ON: Time 9680, Note Name: C#5, Velocity: 71
Note OFF: Time 9760, Note Name: C#5
Note ON: Time 9760, Note Name: G#4, Velocity: 67
Note OFF: Time 9840, Note Name: G#4
Note ON: Time 9840, Note Name: C#5, Velocity: 75
Note OFF: Time 9920, Note Name: C#5
Note ON: Time 9920, Note Name: G#4, Velocity: 70
Note OFF: Time 10000, Note Name: G#4
Note ON: Time 10000, Note Name: G#5, Velocity: 65
Note OFF: Time 10080, Note Name: G#5
Note ON: Time 10080, Note Name: G#4, Velocity: 72
Note OFF: Time 10160, Note Name: G#4
Note ON: Time 10160, Note Name: G#5, Velocity: 70
Note OFF: Time 10240, Note Name: G#5
Note ON: Time 10240, Note Name: D#5, Velocity: 67
Note OFF: Time 10320, Note Name: D#5
Note ON: Time 10320, Note Name: G#5, Velocity: 78
Note OFF: Time 10400, Note Name: G#5
Note ON: Time 10400, Note Name: D#5, Velocity: 74
Note OFF: Time 10480, Note Name: D#5
Note ON: Time 10480, Note Name: D#6, Velocity: 72
Note OFF: Time 10560, Note Name: D#6
Note ON: Time 10560, Note Name: D#5, Velocity: 82
Note OFF: Time 10640, Note Name: D#5
Note ON: Time 10640, Note Name: D#6, Velocity: 78
Note OFF: Time 10720, Note Name: D#6
Note ON: Time 10720, Note Name: G#5, Velocity: 78
Note OFF: Time 10800, Note Name: G#5
Note ON: Time 10800, Note Name: D#6, Velocity: 80
Note OFF: Time 10880, Note Name: D#6
Note ON: Time 10880, Note Name: G#5, Velocity: 77
Note OFF: Time 10960, Note Name: G#5
Note ON: Time 10960, Note Name: G#6, Velocity: 73
Note OFF: Time 11040, Note Name: G#6
Note ON: Time 11040, Note Name: G#5, Velocity: 88
Note OFF: Time 11120, Note Name: G#5
Note ON: Time 11120, Note Name: G#6, Velocity: 81
Note OFF: Time 11200, Note Name: G#6
Note ON: Time 11200, Note Name: C#6, Velocity: 73
Note OFF: Time 11280, Note Name: C#6
Note ON: Time 11280, Note Name: G#6, Velocity: 92
Note OFF: Time 11360, Note Name: G#6
Note ON: Time 11360, Note Name: C#6, Velocity: 83
Note OFF: Time 11440, Note Name: C#6
Note ON: Time 11440, Note Name: C#7, Velocity: 83
Note OFF: Time 11520, Note Name: C#7
Note ON: Time 11520, Note Name: F#6, Velocity: 98
Note OFF: Time 11600, Note Name: F#6
Note ON: Time 11600, Note Name: A#6, Velocity: 74
Note OFF: Time 11680, Note Name: A#6
Note ON: Time 11680, Note Name: C#6, Velocity: 70
Note OFF: Time 11760, Note Name: C#6
Note ON: Time 11760, Note Name: F#6, Velocity: 93
Note OFF: Time 11840, Note Name: F#6
Note ON: Time 11840, Note Name: D#6, Velocity: 72
Note OFF: Time 11920, Note Name: D#6
Note ON: Time 11920, Note Name: F#6, Velocity: 73
Note OFF: Time 12000, Note Name: F#6
Note ON: Time 12000, Note Name: C#6, Velocity: 96
Note OFF: Time 12080, Note Name: C#6
Note ON: Time 12080, Note Name: F#6, Velocity: 75
Note OFF: Time 12160, Note Name: F#6
Note ON: Time 12160, Note Name: A#5, Velocity: 68
Note OFF: Time 12240, Note Name: A#5
Note ON: Time 12240, Note Name: C#6, Velocity: 84
Note OFF: Time 12320, Note Name: C#6
Note ON: Time 12320, Note Name: F#5, Velocity: 69
Note OFF: Time 12400, Note Name: F#5
Note ON: Time 12400, Note Name: A#5, Velocity: 64
Note OFF: Time 12480, Note Name: A#5
Note ON: Time 12480, Note Name: F#5, Velocity: 74
Note OFF: Time 12560, Note Name: F#5
Note ON: Time 12560, Note Name: A#5, Velocity: 68
Note OFF: Time 12640, Note Name: A#5
Note ON: Time 12640, Note Name: C#5, Velocity: 62
Note OFF: Time 12720, Note Name: C#5
Note ON: Time 12720, Note Name: F#5, Velocity: 71
Note OFF: Time 12800, Note Name: F#5
Note ON: Time 12800, Note Name: D#5, Velocity: 65
Note OFF: Time 12880, Note Name: D#5
Note ON: Time 12880, Note Name: F#5, Velocity: 67
Note OFF: Time 12960, Note Name: F#5
Note ON: Time 12960, Note Name: C#5, Velocity: 74
Note OFF: Time 13040, Note Name: C#5
Note ON: Time 13040, Note Name: F#5, Velocity: 65
Note OFF: Time 13120, Note Name: F#5
Note ON: Time 13120, Note Name: A#4, Velocity: 59
Note OFF: Time 13200, Note Name: A#4
Note ON: Time 13200, Note Name: C#5, Velocity: 74
Note OFF: Time 13280, Note Name: C#5
Note ON: Time 13280, Note Name: F#4, Velocity: 65
Note OFF: Time 13360, Note Name: F#4
Note ON: Time 13360, Note Name: A#4, Velocity: 59
Note OFF: Time 13440, Note Name: A#4
Note ON: Time 13440, Note Name: D#4, Velocity: 77
Note OFF: Time 13520, Note Name: D#4
Note ON: Time 13520, Note Name: D#5, Velocity: 74
Note OFF: Time 13600, Note Name: D#5
Note ON: Time 13600, Note Name: G#4, Velocity: 67
Note OFF: Time 13680, Note Name: G#4
Note ON: Time 13680, Note Name: D#5, Velocity: 77
Note OFF: Time 13760, Note Name: D#5
Note ON: Time 13760, Note Name: G#4, Velocity: 67
Note OFF: Time 13840, Note Name: G#4
Note ON: Time 13840, Note Name: G#5, Velocity: 70
Note OFF: Time 13920, Note Name: G#5
Note ON: Time 13920, Note Name: D#5, Velocity: 75
Note OFF: Time 14000, Note Name: D#5
Note ON: Time 14000, Note Name: G#5, Velocity: 71
Note OFF: Time 14080, Note Name: G#5
Note ON: Time 14080, Note Name: D#5, Velocity: 67
Note OFF: Time 14160, Note Name: D#5
Note ON: Time 14160, Note Name: D#6, Velocity: 82
Note OFF: Time 14240, Note Name: D#6
Note ON: Time 14240, Note Name: G#5, Velocity: 79
Note OFF: Time 14320, Note Name: G#5
Note ON: Time 14320, Note Name: G#6, Velocity: 74
Note OFF: Time 14400, Note Name: G#6
Note ON: Time 14400, Note Name: D#5, Velocity: 85
Note OFF: Time 14480, Note Name: D#5
Note ON: Time 14480, Note Name: D#6, Velocity: 74
Note OFF: Time 14560, Note Name: D#6
Note ON: Time 14560, Note Name: G#5, Velocity: 71
Note OFF: Time 14640, Note Name: G#5
Note ON: Time 14640, Note Name: D#6, Velocity: 88
Note OFF: Time 14720, Note Name: D#6
Note ON: Time 14720, Note Name: C#5, Velocity: 76
Note OFF: Time 14800, Note Name: C#5
Note ON: Time 14800, Note Name: C#6, Velocity: 72
Note OFF: Time 14880, Note Name: C#6
Note ON: Time 14880, Note Name: G#5, Velocity: 81
Note OFF: Time 14960, Note Name: G#5
Note ON: Time 14960, Note Name: C#6, Velocity: 73
Note OFF: Time 15040, Note Name: C#6
Note ON: Time 15040, Note Name: G#5, Velocity: 67
Note OFF: Time 15120, Note Name: G#5
Note ON: Time 15120, Note Name: G#6, Velocity: 70
Note OFF: Time 15200, Note Name: G#6
Note ON: Time 15200, Note Name: C#6, Velocity: 66
Note OFF: Time 15280, Note Name: C#6
Note ON: Time 15280, Note Name: C#7, Velocity: 64
Note OFF: Time 15360, Note Name: C#7
Note ON: Time 15360, Note Name: G#6, Velocity: 72
Note OFF: Time 15440, Note Name: G#6
Note ON: Time 15440, Note Name: A#6, Velocity: 67
Note OFF: Time 15520, Note Name: A#6
Note ON: Time 15520, Note Name: G#6, Velocity: 61
Note OFF: Time 15600, Note Name: G#6
Note ON: Time 15600, Note Name: D#6, Velocity: 72
Note OFF: Time 15680, Note Name: D#6
Note ON: Time 15680, Note Name: D#7, Velocity: 67
Note OFF: Time 15760, Note Name: D#7
Note ON: Time 15760, Note Name: D#6, Velocity: 58
Note OFF: Time 15840, Note Name: D#6
Note ON: Time 15840, Note Name: C#6, Velocity: 78
Note OFF: Time 15920, Note Name: C#6
Note ON: Time 15920, Note Name: D#6, Velocity: 74
Note OFF: Time 16000, Note Name: D#6
Note ON: Time 16000, Note Name: C#6, Velocity: 68
Note OFF: Time 16080, Note Name: C#6
Note ON: Time 16080, Note Name: G#5, Velocity: 75
Note OFF: Time 16160, Note Name: G#5
Note ON: Time 16160, Note Name: G#6, Velocity: 71
Note OFF: Time 16240, Note Name: G#6
Note ON: Time 16240, Note Name: G#5, Velocity: 66
Note OFF: Time 16320, Note Name: G#5
Note ON: Time 16320, Note Name: G#5, Velocity: 72
Note OFF: Time 16400, Note Name: G#5
Note ON: Time 16400, Note Name: A#5, Velocity: 67
Note OFF: Time 16480, Note Name: A#5
Note ON: Time 16480, Note Name: G#5, Velocity: 65
Note OFF: Time 16560, Note Name: G#5
Note ON: Time 16560, Note Name: D#5, Velocity: 72
Note OFF: Time 16640, Note Name: D#5
Note ON: Time 16640, Note Name: D#6, Velocity: 67
Note OFF: Time 16720, Note Name: D#6
Note ON: Time 16720, Note Name: D#5, Velocity: 67
Note OFF: Time 16800, Note Name: D#5
Note ON: Time 16800, Note Name: C#5, Velocity: 75
Note OFF: Time 16880, Note Name: C#5
Note ON: Time 16880, Note Name: D#5, Velocity: 68
Note OFF: Time 16960, Note Name: D#5
Note ON: Time 16960, Note Name: C#5, Velocity: 67
Note OFF: Time 17040, Note Name: C#5
Note ON: Time 17040, Note Name: G#4, Velocity: 72
Note OFF: Time 17360, Note Name: G#4
Note ON: Time 17360, Note Name: D#5, Velocity: 70
Note OFF: Time 17440, Note Name: D#5
Note ON: Time 17440, Note Name: G#5, Velocity: 67
Note OFF: Time 17520, Note Name: G#5
Note ON: Time 17520, Note Name: A#5, Velocity: 74
Note OFF: Time 17600, Note Name: A#5
Note ON: Time 17600, Note Name: G#5, Velocity: 70
Note OFF: Time 17680, Note Name: G#5
Note ON: Time 17680, Note Name: D#5, Velocity: 67
Note OFF: Time 17760, Note Name: D#5
Note ON: Time 17760, Note Name: C#5, Velocity: 71
Note OFF: Time 17840, Note Name: C#5
Note ON: Time 17840, Note Name: G#5, Velocity: 73
Note OFF: Time 17920, Note Name: G#5
Note ON: Time 17920, Note Name: C#6, Velocity: 72
Note OFF: Time 18000, Note Name: C#6
Note ON: Time 18000, Note Name: D#6, Velocity: 74
Note OFF: Time 18080, Note Name: D#6
Note ON: Time 18080, Note Name: C#6, Velocity: 69
Note OFF: Time 18160, Note Name: C#6
Note ON: Time 18160, Note Name: A#5, Velocity: 67
Note OFF: Time 18240, Note Name: A#5
Note ON: Time 18240, Note Name: G#5, Velocity: 72
Note OFF: Time 18320, Note Name: G#5
Note ON: Time 18320, Note Name: D#6, Velocity: 69
Note OFF: Time 18400, Note Name: D#6
Note ON: Time 18400, Note Name: G#6, Velocity: 67
Note OFF: Time 18480, Note Name: G#6
Note ON: Time 18480, Note Name: A#6, Velocity: 72
Note OFF: Time 18560, Note Name: A#6
Note ON: Time 18560, Note Name: G#6, Velocity: 64
Note OFF: Time 18640, Note Name: G#6
Note ON: Time 18640, Note Name: D#6, Velocity: 59
Note OFF: Time 18720, Note Name: D#6
Note ON: Time 18720, Note Name: C#6, Velocity: 77
Note OFF: Time 18800, Note Name: C#6
Note ON: Time 18800, Note Name: G#6, Velocity: 73
Note OFF: Time 18880, Note Name: G#6
Note ON: Time 18880, Note Name: C#7, Velocity: 68
Note OFF: Time 18960, Note Name: C#7
Note ON: Time 18960, Note Name: D#7, Velocity: 72
Note OFF: Time 19040, Note Name: D#7
Note ON: Time 19040, Note Name: C#7, Velocity: 68
Note OFF: Time 19120, Note Name: C#7
Note ON: Time 19120, Note Name: A#6, Velocity: 68
Note OFF: Time 19200, Note Name: A#6
Note ON: Time 19200, Note Name: G#6, Velocity: 72
Note OFF: Time 19280, Note Name: G#6
Note ON: Time 19280, Note Name: A#6, Velocity: 69
Note OFF: Time 19360, Note Name: A#6
Note ON: Time 19360, Note Name: G#6, Velocity: 63
Note OFF: Time 19440, Note Name: G#6
Note ON: Time 19440, Note Name: D#6, Velocity: 72
Note OFF: Time 19520, Note Name: D#6
Note ON: Time 19520, Note Name: D#7, Velocity: 67
Note OFF: Time 19600, Note Name: D#7
Note ON: Time 19600, Note Name: D#6, Velocity: 72
Note OFF: Time 19680, Note Name: D#6
Note ON: Time 19680, Note Name: C#6, Velocity: 81
Note OFF: Time 19760, Note Name: C#6
Note ON: Time 19760, Note Name: D#6, Velocity: 73
Note OFF: Time 19840, Note Name: D#6
Note ON: Time 19840, Note Name: C#6, Velocity: 67
Note OFF: Time 19920, Note Name: C#6
Note ON: Time 19920, Note Name: G#5, Velocity: 77
Note OFF: Time 20000, Note Name: G#5
Note ON: Time 20000, Note Name: G#6, Velocity: 75
Note OFF: Time 20080, Note Name: G#6
Note ON: Time 20080, Note Name: G#5, Velocity: 67
Note OFF: Time 20160, Note Name: G#5
Note ON: Time 20160, Note Name: G#5, Velocity: 79
Note OFF: Time 20240, Note Name: G#5
Note ON: Time 20240, Note Name: A#5, Velocity: 70
Note OFF: Time 20320, Note Name: A#5
Note ON: Time 20320, Note Name: G#5, Velocity: 65
Note OFF: Time 20400, Note Name: G#5
Note ON: Time 20400, Note Name: D#5, Velocity: 73
Note OFF: Time 20480, Note Name: D#5
Note ON: Time 20480, Note Name: D#6, Velocity: 68
Note OFF: Time 20560, Note Name: D#6
Note ON: Time 20560, Note Name: D#5, Velocity: 65
Note OFF: Time 20640, Note Name: D#5
Note ON: Time 20640, Note Name: C#5, Velocity: 75
Note OFF: Time 20720, Note Name: C#5
Note ON: Time 20720, Note Name: D#5, Velocity: 69
Note OFF: Time 20800, Note Name: D#5
Note ON: Time 20800, Note Name: C#5, Velocity: 63
Note OFF: Time 20880, Note Name: C#5
Note ON: Time 20880, Note Name: G#4, Velocity: 75
Note OFF: Time 21200, Note Name: G#4
Note ON: Time 21200, Note Name: G#5, Velocity: 67
Note OFF: Time 21280, Note Name: G#5
Note ON: Time 21280, Note Name: F#5, Velocity: 64
Note OFF: Time 21360, Note Name: F#5
Note ON: Time 21360, Note Name: G#5, Velocity: 75
Note OFF: Time 21440, Note Name: G#5
Note ON: Time 21440, Note Name: F#5, Velocity: 68
Note OFF: Time 21520, Note Name: F#5
Note ON: Time 21520, Note Name: G#5, Velocity: 65
Note OFF: Time 21600, Note Name: G#5
Note ON: Time 21600, Note Name: F#6, Velocity: 82
Note OFF: Time 21680, Note Name: F#6
Note ON: Time 21680, Note Name: G#5, Velocity: 71
Note OFF: Time 21760, Note Name: G#5
Note ON: Time 21760, Note Name: F#5, Velocity: 65
Note OFF: Time 21840, Note Name: F#5
Note ON: Time 21840, Note Name: G#5, Velocity: 74
Note OFF: Time 21920, Note Name: G#5
Note ON: Time 21920, Note Name: F#5, Velocity: 67
Note OFF: Time 22000, Note Name: F#5
Note ON: Time 22000, Note Name: G#5, Velocity: 64
Note OFF: Time 22080, Note Name: G#5
Note ON: Time 22080, Note Name: G#4, Velocity: 64
Note OFF: Time 22160, Note Name: G#4
Note ON: Time 22160, Note Name: G#5, Velocity: 68
Note OFF: Time 22240, Note Name: G#5
Note ON: Time 22240, Note Name: F#5, Velocity: 63
Note OFF: Time 22320, Note Name: F#5
Note ON: Time 22320, Note Name: G#5, Velocity: 71
Note OFF: Time 22400, Note Name: G#5
Note ON: Time 22400, Note Name: F#5, Velocity: 65
Note OFF: Time 22480, Note Name: F#5
Note ON: Time 22480, Note Name: G#5, Velocity: 62
Note OFF: Time 22560, Note Name: G#5
Note ON: Time 22560, Note Name: F#6, Velocity: 81
Note OFF: Time 22640, Note Name: F#6
Note ON: Time 22640, Note Name: G#5, Velocity: 67
Note OFF: Time 22720, Note Name: G#5
Note ON: Time 22720, Note Name: F#5, Velocity: 63
Note OFF: Time 22800, Note Name: F#5
Note ON: Time 22800, Note Name: G#5, Velocity: 69
Note OFF: Time 22880, Note Name: G#5
Note ON: Time 22880, Note Name: F#5, Velocity: 67
Note OFF: Time 22960, Note Name: F#5
Note ON: Time 22960, Note Name: G#5, Velocity: 64
Note OFF: Time 23040, Note Name: G#5
Note ON: Time 23040, Note Name: A#4, Velocity: 70
Note OFF: Time 23120, Note Name: A#4
Note ON: Time 23120, Note Name: A#5, Velocity: 74
Note OFF: Time 23200, Note Name: A#5
Note ON: Time 23200, Note Name: F#5, Velocity: 66
Note OFF: Time 23280, Note Name: F#5
Note ON: Time 23280, Note Name: A#5, Velocity: 74
Note OFF: Time 23360, Note Name: A#5
Note ON: Time 23360, Note Name: F#5, Velocity: 70
Note OFF: Time 23440, Note Name: F#5
Note ON: Time 23440, Note Name: A#5, Velocity: 66
Note OFF: Time 23520, Note Name: A#5
Note ON: Time 23520, Note Name: F#6, Velocity: 83
Note OFF: Time 23600, Note Name: F#6
Note ON: Time 23600, Note Name: A#5, Velocity: 71
Note OFF: Time 23680, Note Name: A#5
Note ON: Time 23680, Note Name: F#5, Velocity: 68
Note OFF: Time 23760, Note Name: F#5
Note ON: Time 23760, Note Name: A#5, Velocity: 77
Note OFF: Time 23840, Note Name: A#5
Note ON: Time 23840, Note Name: F#5, Velocity: 72
Note OFF: Time 23920, Note Name: F#5
Note ON: Time 23920, Note Name: A#5, Velocity: 67
Note OFF: Time 24000, Note Name: A#5
Note ON: Time 24000, Note Name: A#4, Velocity: 73
Note OFF: Time 24080, Note Name: A#4
Note ON: Time 24080, Note Name: A#5, Velocity: 75
Note OFF: Time 24160, Note Name: A#5
Note ON: Time 24160, Note Name: F#5, Velocity: 72
Note OFF: Time 24240, Note Name: F#5
Note ON: Time 24240, Note Name: A#5, Velocity: 78
Note OFF: Time 24320, Note Name: A#5
Note ON: Time 24320, Note Name: F#5, Velocity: 72
Note OFF: Time 24400, Note Name: F#5
Note ON: Time 24400, Note Name: A#5, Velocity: 67
Note OFF: Time 24480, Note Name: A#5
Note ON: Time 24480, Note Name: F#6, Velocity: 85
Note OFF: Time 24560, Note Name: F#6
Note ON: Time 24560, Note Name: A#5, Velocity: 74
Note OFF: Time 24640, Note Name: A#5
Note ON: Time 24640, Note Name: F#5, Velocity: 71
Note OFF: Time 24720, Note Name: F#5
Note ON: Time 24720, Note Name: A#5, Velocity: 80
Note OFF: Time 24800, Note Name: A#5
Note ON: Time 24800, Note Name: F#5, Velocity: 77
Note OFF: Time 24880, Note Name: F#5
Note ON: Time 24880, Note Name: A#5, Velocity: 74
Note OFF: Time 24960, Note Name: A#5
Note ON: Time 24960, Note Name: F#5, Velocity: 80
Note OFF: Time 25040, Note Name: F#5
Note ON: Time 25040, Note Name: A#5, Velocity: 77
Note OFF: Time 25120, Note Name: A#5
Note ON: Time 25120, Note Name: F#5, Velocity: 78
Note OFF: Time 25200, Note Name: F#5
Note ON: Time 25200, Note Name: A#6, Velocity: 87
Note OFF: Time 25280, Note Name: A#6
Note ON: Time 25280, Note Name: A#5, Velocity: 76
Note OFF: Time 25360, Note Name: A#5
Note ON: Time 25360, Note Name: F#5, Velocity: 70
Note OFF: Time 25440, Note Name: F#5
Note ON: Time 25440, Note Name: G#6, Velocity: 89
Note OFF: Time 25520, Note Name: G#6
Note ON: Time 25520, Note Name: A#5, Velocity: 70
Note OFF: Time 25600, Note Name: A#5
Note ON: Time 25600, Note Name: F#5, Velocity: 73
Note OFF: Time 25680, Note Name: F#5
Note ON: Time 25680, Note Name: F#6, Velocity: 89
Note OFF: Time 25760, Note Name: F#6
Note ON: Time 25760, Note Name: A#5, Velocity: 78
Note OFF: Time 25840, Note Name: A#5
Note ON: Time 25840, Note Name: F#5, Velocity: 73
Note OFF: Time 25920, Note Name: F#5
Note ON: Time 25920, Note Name: C#6, Velocity: 80
Note OFF: Time 26000, Note Name: C#6
Note ON: Time 26000, Note Name: A#5, Velocity: 73
Note OFF: Time 26080, Note Name: A#5
Note ON: Time 26080, Note Name: F#5, Velocity: 76
Note OFF: Time 26160, Note Name: F#5
Note ON: Time 26160, Note Name: A#6, Velocity: 90
Note OFF: Time 26240, Note Name: A#6
Note ON: Time 26240, Note Name: A#5, Velocity: 76
Note OFF: Time 26320, Note Name: A#5
Note ON: Time 26320, Note Name: F#5, Velocity: 79
Note OFF: Time 26400, Note Name: F#5
Note ON: Time 26400, Note Name: G#6, Velocity: 94
Note OFF: Time 26480, Note Name: G#6
Note ON: Time 26480, Note Name: A#5, Velocity: 77
Note OFF: Time 26560, Note Name: A#5
Note ON: Time 26560, Note Name: F#5, Velocity: 76
Note OFF: Time 26640, Note Name: F#5
Note ON: Time 26640, Note Name: F#6, Velocity: 95
Note OFF: Time 26720, Note Name: F#6
Note ON: Time 26720, Note Name: A#5, Velocity: 76
Note OFF: Time 26800, Note Name: A#5
Note ON: Time 26800, Note Name: F#5, Velocity: 79
Note OFF: Time 26880, Note Name: F#5
Note ON: Time 26880, Note Name: C#5, Velocity: 87
Note OFF: Time 26960, Note Name: C#5
Note ON: Time 26960, Note Name: C#6, Velocity: 78
Note OFF: Time 27040, Note Name: C#6
Note ON: Time 27040, Note Name: A#5, Velocity: 75
Note OFF: Time 27120, Note Name: A#5
Note ON: Time 27120, Note Name: C#6, Velocity: 88
Note OFF: Time 27200, Note Name: C#6
Note ON: Time 27200, Note Name: C#6, Velocity: 75
Note OFF: Time 27280, Note Name: C#6
Note ON: Time 27280, Note Name: C#7, Velocity: 80
Note OFF: Time 27360, Note Name: C#7
Note ON: Time 27360, Note Name: A#6, Velocity: 94
Note OFF: Time 27440, Note Name: A#6
Note ON: Time 27440, Note Name: C#7, Velocity: 77
Note OFF: Time 27520, Note Name: C#7
Note ON: Time 27520, Note Name: C#6, Velocity: 76
Note OFF: Time 27600, Note Name: C#6
Note ON: Time 27600, Note Name: C#6, Velocity: 89
Note OFF: Time 27680, Note Name: C#6
Note ON: Time 27680, Note Name: A#5, Velocity: 77
Note OFF: Time 27760, Note Name: A#5
Note ON: Time 27760, Note Name: C#6, Velocity: 82
Note OFF: Time 27840, Note Name: C#6
Note ON: Time 27840, Note Name: C#5, Velocity: 89
Note OFF: Time 27920, Note Name: C#5
Note ON: Time 27920, Note Name: C#6, Velocity: 85
Note OFF: Time 28000, Note Name: C#6
Note ON: Time 28000, Note Name: A#5, Velocity: 81
Note OFF: Time 28080, Note Name: A#5
Note ON: Time 28080, Note Name: C#6, Velocity: 90
Note OFF: Time 28160, Note Name: C#6
Note ON: Time 28160, Note Name: C#6, Velocity: 85
Note OFF: Time 28240, Note Name: C#6
Note ON: Time 28240, Note Name: C#7, Velocity: 85
Note OFF: Time 28320, Note Name: C#7
Note ON: Time 28320, Note Name: A#6, Velocity: 101
Note OFF: Time 28400, Note Name: A#6
Note ON: Time 28400, Note Name: C#7, Velocity: 86
Note OFF: Time 28480, Note Name: C#7
Note ON: Time 28480, Note Name: C#6, Velocity: 84
Note OFF: Time 28560, Note Name: C#6
Note ON: Time 28560, Note Name: C#6, Velocity: 93
Note OFF: Time 28640, Note Name: C#6
Note ON: Time 28640, Note Name: A#5, Velocity: 85
Note OFF: Time 28720, Note Name: A#5
Note ON: Time 28720, Note Name: C#6, Velocity: 80
Note OFF: Time 28800, Note Name: C#6
Note ON: Time 28800, Note Name: C#5, Velocity: 94
Note OFF: Time 28880, Note Name: C#5
Note ON: Time 28880, Note Name: C#6, Velocity: 85
Note OFF: Time 28960, Note Name: C#6
Note ON: Time 28960, Note Name: A#5, Velocity: 81
Note OFF: Time 29040, Note Name: A#5
Note ON: Time 29040, Note Name: C#6, Velocity: 94
Note OFF: Time 29120, Note Name: C#6
Note ON: Time 29120, Note Name: C#6, Velocity: 84
Note OFF: Time 29200, Note Name: C#6
Note ON: Time 29200, Note Name: C#7, Velocity: 80
Note OFF: Time 29280, Note Name: C#7
Note ON: Time 29280, Note Name: G#6, Velocity: 95
Note OFF: Time 29360, Note Name: G#6
Note ON: Time 29360, Note Name: C#7, Velocity: 85
Note OFF: Time 29440, Note Name: C#7
Note ON: Time 29440, Note Name: C#6, Velocity: 83
Note OFF: Time 29520, Note Name: C#6
Note ON: Time 29520, Note Name: C#6, Velocity: 95
Note OFF: Time 29600, Note Name: C#6
Note ON: Time 29600, Note Name: G#5, Velocity: 90
Note OFF: Time 29680, Note Name: G#5
Note ON: Time 29680, Note Name: C#6, Velocity: 86
Note OFF: Time 29760, Note Name: C#6
Note ON: Time 29760, Note Name: C#5, Velocity: 97
Note OFF: Time 29840, Note Name: C#5
Note ON: Time 29840, Note Name: C#6, Velocity: 90
Note OFF: Time 29920, Note Name: C#6
Note ON: Time 29920, Note Name: F#5, Velocity: 85
Note OFF: Time 30000, Note Name: F#5
Note ON: Time 30000, Note Name: C#6, Velocity: 93
Note OFF: Time 30080, Note Name: C#6
Note ON: Time 30080, Note Name: C#5, Velocity: 87
Note OFF: Time 30160, Note Name: C#5
Note ON: Time 30160, Note Name: C#5, Velocity: 84
Note OFF: Time 30240, Note Name: C#5
Note ON: Time 30240, Note Name: F#4, Velocity: 95
Note OFF: Time 30320, Note Name: F#4
Note ON: Time 30320, Note Name: C#5, Velocity: 90
Note OFF: Time 30400, Note Name: C#5
Note ON: Time 30400, Note Name: C#4, Velocity: 85
Note OFF: Time 30480, Note Name: C#4
Note ON: Time 30480, Note Name: C#4, Velocity: 100
Note OFF: Time 30560, Note Name: C#4
Note ON: Time 30560, Note Name: F#3, Velocity: 89
Note OFF: Time 30640, Note Name: F#3
Note ON: Time 30640, Note Name: C#4, Velocity: 85
Note OFF: Time 30720, Note Name: C#4
Note ON: Time 30720, Note Name: D#3, Velocity: 74
Note OFF: Time 30800, Note Name: D#3
Note ON: Time 30800, Note Name: F#3, Velocity: 71
Note OFF: Time 30880, Note Name: F#3
Note ON: Time 30880, Note Name: C#4, Velocity: 72
Note OFF: Time 30960, Note Name: C#4
Note ON: Time 30960, Note Name: D#4, Velocity: 77
Note OFF: Time 31040, Note Name: D#4
Note ON: Time 31040, Note Name: F#3, Velocity: 70
Note OFF: Time 31120, Note Name: F#3
Note ON: Time 31120, Note Name: C#4, Velocity: 72
Note OFF: Time 31200, Note Name: C#4
Note ON: Time 31200, Note Name: D#4, Velocity: 81
Note OFF: Time 31280, Note Name: D#4
Note ON: Time 31280, Note Name: F#4, Velocity: 78
Note OFF: Time 31360, Note Name: F#4
Note ON: Time 31360, Note Name: C#4, Velocity: 75
Note OFF: Time 31440, Note Name: C#4
Note ON: Time 31440, Note Name: D#4, Velocity: 83
Note OFF: Time 31520, Note Name: D#4
Note ON: Time 31520, Note Name: F#4, Velocity: 77
Note OFF: Time 31600, Note Name: F#4
Note ON: Time 31600, Note Name: C#5, Velocity: 73
Note OFF: Time 31680, Note Name: C#5
Note ON: Time 31680, Note Name: D#4, Velocity: 87
Note OFF: Time 31760, Note Name: D#4
Note ON: Time 31760, Note Name: F#4, Velocity: 80
Note OFF: Time 31840, Note Name: F#4
Note ON: Time 31840, Note Name: C#5, Velocity: 77
Note OFF: Time 31920, Note Name: C#5
Note ON: Time 31920, Note Name: D#5, Velocity: 89
Note OFF: Time 32000, Note Name: D#5
Note ON: Time 32000, Note Name: F#4, Velocity: 78
Note OFF: Time 32080, Note Name: F#4
Note ON: Time 32080, Note Name: C#5, Velocity: 75
Note OFF: Time 32160, Note Name: C#5
Note ON: Time 32160, Note Name: D#5, Velocity: 89
Note OFF: Time 32240, Note Name: D#5
Note ON: Time 32240, Note Name: F#5, Velocity: 78
Note OFF: Time 32320, Note Name: F#5
Note ON: Time 32320, Note Name: C#5, Velocity: 76
Note OFF: Time 32400, Note Name: C#5
Note ON: Time 32400, Note Name: D#5, Velocity: 89
Note OFF: Time 32480, Note Name: D#5
Note ON: Time 32480, Note Name: C#6, Velocity: 78
Note OFF: Time 32560, Note Name: C#6
Note ON: Time 32560, Note Name: F#5, Velocity: 75
Note OFF: Time 32640, Note Name: F#5
Note ON: Time 32640, Note Name: D#5, Velocity: 89
Note OFF: Time 32720, Note Name: D#5
Note ON: Time 32720, Note Name: F#5, Velocity: 81
Note OFF: Time 32800, Note Name: F#5
Note ON: Time 32800, Note Name: D#6, Velocity: 86
Note OFF: Time 32880, Note Name: D#6
Note ON: Time 32880, Note Name: C#6, Velocity: 85
Note OFF: Time 32960, Note Name: C#6
Note ON: Time 32960, Note Name: F#5, Velocity: 78
Note OFF: Time 33040, Note Name: F#5
Note ON: Time 33040, Note Name: D#5, Velocity: 84
Note OFF: Time 33120, Note Name: D#5
Note ON: Time 33120, Note Name: C#6, Velocity: 81
Note OFF: Time 33200, Note Name: C#6
Note ON: Time 33200, Note Name: F#5, Velocity: 76
Note OFF: Time 33280, Note Name: F#5
Note ON: Time 33280, Note Name: D#5, Velocity: 71
Note OFF: Time 33360, Note Name: D#5
Note ON: Time 33360, Note Name: C#5, Velocity: 78
Note OFF: Time 33440, Note Name: C#5
Note ON: Time 33440, Note Name: F#5, Velocity: 71
Note OFF: Time 33520, Note Name: F#5
Note ON: Time 33520, Note Name: D#5, Velocity: 75
Note OFF: Time 33600, Note Name: D#5
Note ON: Time 33600, Note Name: C#5, Velocity: 74
Note OFF: Time 33680, Note Name: C#5
Note ON: Time 33680, Note Name: F#4, Velocity: 69
Note OFF: Time 33760, Note Name: F#4
Note ON: Time 33760, Note Name: D#5, Velocity: 72
Note OFF: Time 33840, Note Name: D#5
Note ON: Time 33840, Note Name: C#5, Velocity: 71
Note OFF: Time 33920, Note Name: C#5
Note ON: Time 33920, Note Name: F#4, Velocity: 66
Note OFF: Time 34000, Note Name: F#4
Note ON: Time 34000, Note Name: D#4, Velocity: 69
Note OFF: Time 34080, Note Name: D#4
Note ON: Time 34080, Note Name: C#5, Velocity: 67
Note OFF: Time 34160, Note Name: C#5
Note ON: Time 34160, Note Name: F#4, Velocity: 61
Note OFF: Time 34240, Note Name: F#4
Note ON: Time 34240, Note Name: D#4, Velocity: 65
Note OFF: Time 34320, Note Name: D#4
Note ON: Time 34320, Note Name: C#4, Velocity: 64
Note OFF: Time 34400, Note Name: C#4
Note ON: Time 34400, Note Name: F#4, Velocity: 59
Note OFF: Time 34480, Note Name: F#4
Note ON: Time 34480, Note Name: D#4, Velocity: 62
Note OFF: Time 34560, Note Name: D#4
Note ON: Time 34560, Note Name: G#3, Velocity: 52
Note OFF: Time 34640, Note Name: G#3
Note ON: Time 34640, Note Name: D#4, Velocity: 54
Note OFF: Time 34720, Note Name: D#4
Note ON: Time 34720, Note Name: F#4, Velocity: 54
Note OFF: Time 34800, Note Name: F#4
Note ON: Time 34800, Note Name: G#4, Velocity: 56
Note OFF: Time 34880, Note Name: G#4
Note ON: Time 34880, Note Name: D#4, Velocity: 56
Note OFF: Time 34960, Note Name: D#4
Note ON: Time 34960, Note Name: F#4, Velocity: 54
Note OFF: Time 35040, Note Name: F#4
Note ON: Time 35040, Note Name: G#4, Velocity: 58
Note OFF: Time 35120, Note Name: G#4
Note ON: Time 35120, Note Name: D#5, Velocity: 58
Note OFF: Time 35200, Note Name: D#5
Note ON: Time 35200, Note Name: F#4, Velocity: 56
Note OFF: Time 35280, Note Name: F#4
Note ON: Time 35280, Note Name: G#4, Velocity: 60
Note OFF: Time 35360, Note Name: G#4
Note ON: Time 35360, Note Name: D#5, Velocity: 60
Note OFF: Time 35440, Note Name: D#5
Note ON: Time 35440, Note Name: F#5, Velocity: 58
Note OFF: Time 35520, Note Name: F#5
Note ON: Time 35520, Note Name: G#4, Velocity: 62
Note OFF: Time 35600, Note Name: G#4
Note ON: Time 35600, Note Name: D#5, Velocity: 58
Note OFF: Time 35680, Note Name: D#5
Note ON: Time 35680, Note Name: F#5, Velocity: 62
Note OFF: Time 35760, Note Name: F#5
Note ON: Time 35760, Note Name: G#5, Velocity: 62
Note OFF: Time 35840, Note Name: G#5
Note ON: Time 35840, Note Name: D#5, Velocity: 54
Note OFF: Time 35920, Note Name: D#5
Note ON: Time 35920, Note Name: F#5, Velocity: 58
Note OFF: Time 36000, Note Name: F#5
Note ON: Time 36000, Note Name: G#5, Velocity: 62
Note OFF: Time 36080, Note Name: G#5
Note ON: Time 36080, Note Name: D#6, Velocity: 65
Note OFF: Time 36160, Note Name: D#6
Note ON: Time 36160, Note Name: F#5, Velocity: 60
Note OFF: Time 36240, Note Name: F#5
Note ON: Time 36240, Note Name: G#5, Velocity: 62
Note OFF: Time 36320, Note Name: G#5
Note ON: Time 36320, Note Name: F#6, Velocity: 58
Note OFF: Time 36400, Note Name: F#6
Note ON: Time 36400, Note Name: D#6, Velocity: 59
Note OFF: Time 36480, Note Name: D#6
Note ON: Time 36480, Note Name: G#5, Velocity: 59
Note OFF: Time 36560, Note Name: G#5
Note ON: Time 36560, Note Name: F#5, Velocity: 59
Note OFF: Time 36640, Note Name: F#5
Note ON: Time 36640, Note Name: D#6, Velocity: 58
Note OFF: Time 36720, Note Name: D#6
Note ON: Time 36720, Note Name: G#5, Velocity: 58
Note OFF: Time 36800, Note Name: G#5
Note ON: Time 36800, Note Name: F#5, Velocity: 57
Note OFF: Time 36880, Note Name: F#5
Note ON: Time 36880, Note Name: D#5, Velocity: 56
Note OFF: Time 36960, Note Name: D#5
Note ON: Time 36960, Note Name: G#5, Velocity: 56
Note OFF: Time 37040, Note Name: G#5
Note ON: Time 37040, Note Name: F#5, Velocity: 56
Note OFF: Time 37120, Note Name: F#5
Note ON: Time 37120, Note Name: D#5, Velocity: 54
Note OFF: Time 37200, Note Name: D#5
Note ON: Time 37200, Note Name: G#4, Velocity: 54
Note OFF: Time 37280, Note Name: G#4
Note ON: Time 37280, Note Name: F#5, Velocity: 52
Note OFF: Time 37360, Note Name: F#5
Note ON: Time 37360, Note Name: D#5, Velocity: 52
Note OFF: Time 37440, Note Name: D#5
Note ON: Time 37440, Note Name: G#4, Velocity: 52
Note OFF: Time 37520, Note Name: G#4
Note ON: Time 37520, Note Name: F#4, Velocity: 51
Note OFF: Time 37600, Note Name: F#4
Note ON: Time 37600, Note Name: D#5, Velocity: 51
Note OFF: Time 37680, Note Name: D#5
Note ON: Time 37680, Note Name: G#4, Velocity: 50
Note OFF: Time 37760, Note Name: G#4
Note ON: Time 37760, Note Name: F#4, Velocity: 49
Note OFF: Time 37840, Note Name: F#4
Note ON: Time 37840, Note Name: D#4, Velocity: 49
Note OFF: Time 37920, Note Name: D#4
Note ON: Time 37920, Note Name: G#4, Velocity: 48
Note OFF: Time 38000, Note Name: G#4
Note ON: Time 38000, Note Name: F#4, Velocity: 48
Note OFF: Time 38080, Note Name: F#4
Note ON: Time 38080, Note Name: D#4, Velocity: 48
Note OFF: Time 38160, Note Name: D#4
Note ON: Time 38160, Note Name: G#3, Velocity: 46
Note OFF: Time 38240, Note Name: G#3
Note ON: Time 38240, Note Name: F#4, Velocity: 46
Note OFF: Time 38320, Note Name: F#4
Note ON: Time 38320, Note Name: D#4, Velocity: 44
Note OFF: Time 38400, Note Name: D#4
Note ON: Time 38400, Note Name: C#4, Velocity: 65
Note OFF: Time 38480, Note Name: C#4
Note ON: Time 38480, Note Name: C#5, Velocity: 59
Note OFF: Time 38560, Note Name: C#5
Note ON: Time 38560, Note Name: G#4, Velocity: 55
Note OFF: Time 38640, Note Name: G#4
Note ON: Time 38640, Note Name: C#5, Velocity: 65
Note OFF: Time 38720, Note Name: C#5
Note ON: Time 38720, Note Name: F4, Velocity: 59
Note OFF: Time 38800, Note Name: F4
Note ON: Time 38800, Note Name: G#5, Velocity: 58
Note OFF: Time 38880, Note Name: G#5
Note ON: Time 38880, Note Name: C#5, Velocity: 70
Note OFF: Time 38960, Note Name: C#5
Note ON: Time 38960, Note Name: G#5, Velocity: 66
Note OFF: Time 39040, Note Name: G#5
Note ON: Time 39040, Note Name: G#4, Velocity: 66
Note OFF: Time 39120, Note Name: G#4
Note ON: Time 39120, Note Name: C#5, Velocity: 70
Note OFF: Time 39200, Note Name: C#5
Note ON: Time 39200, Note Name: G#4, Velocity: 66
Note OFF: Time 39280, Note Name: G#4
Note ON: Time 39280, Note Name: C#5, Velocity: 62
Note OFF: Time 39360, Note Name: C#5
Note ON: Time 39360, Note Name: C#4, Velocity: 65
Note OFF: Time 39440, Note Name: C#4
Note ON: Time 39440, Note Name: C#5, Velocity: 63
Note OFF: Time 39520, Note Name: C#5
Note ON: Time 39520, Note Name: G#4, Velocity: 58
Note OFF: Time 39600, Note Name: G#4
Note ON: Time 39600, Note Name: C#5, Velocity: 65
Note OFF: Time 39680, Note Name: C#5
Note ON: Time 39680, Note Name: G#4, Velocity: 63
Note OFF: Time 39760, Note Name: G#4
Note ON: Time 39760, Note Name: G#5, Velocity: 57
Note OFF: Time 39840, Note Name: G#5
Note ON: Time 39840, Note Name: C#5, Velocity: 65
Note OFF: Time 39920, Note Name: C#5
Note ON: Time 39920, Note Name: G#5, Velocity: 59
Note OFF: Time 40000, Note Name: G#5
Note ON: Time 40000, Note Name: G#4, Velocity: 55
Note OFF: Time 40080, Note Name: G#4
Note ON: Time 40080, Note Name: C#5, Velocity: 65
Note OFF: Time 40160, Note Name: C#5
Note ON: Time 40160, Note Name: G#4, Velocity: 63
Note OFF: Time 40240, Note Name: G#4
Note ON: Time 40240, Note Name: C#5, Velocity: 58
Note OFF: Time 40320, Note Name: C#5
Note ON: Time 40320, Note Name: C#4, Velocity: 65
Note OFF: Time 40400, Note Name: C#4
Note ON: Time 40400, Note Name: C#5, Velocity: 58
Note OFF: Time 40480, Note Name: C#5
Note ON: Time 40480, Note Name: G#4, Velocity: 56
Note OFF: Time 40560, Note Name: G#4
Note ON: Time 40560, Note Name: C#5, Velocity: 65
Note OFF: Time 40640, Note Name: C#5
Note ON: Time 40640, Note Name: C#5, Velocity: 58
Note OFF: Time 40720, Note Name: C#5
Note ON: Time 40720, Note Name: C#6, Velocity: 55
Note OFF: Time 40800, Note Name: C#6
Note ON: Time 40800, Note Name: G#5, Velocity: 71
Note OFF: Time 40880, Note Name: G#5
Note ON: Time 40880, Note Name: C#6, Velocity: 64
Note OFF: Time 40960, Note Name: C#6
Note ON: Time 40960, Note Name: C#5, Velocity: 62
Note OFF: Time 41040, Note Name: C#5
Note ON: Time 41040, Note Name: C#5, Velocity: 71
Note OFF: Time 41120, Note Name: C#5
Note ON: Time 41120, Note Name: G#4, Velocity: 67
Note OFF: Time 41200, Note Name: G#4
Note ON: Time 41200, Note Name: C#5, Velocity: 62
Note OFF: Time 41280, Note Name: C#5
Note ON: Time 41280, Note Name: G#4, Velocity: 65
Note OFF: Time 41360, Note Name: G#4
Note ON: Time 41360, Note Name: G#5, Velocity: 59
Note OFF: Time 41440, Note Name: G#5
Note ON: Time 41440, Note Name: C#5, Velocity: 54
Note OFF: Time 41520, Note Name: C#5
Note ON: Time 41520, Note Name: G#5, Velocity: 65
Note OFF: Time 41600, Note Name: G#5
Note ON: Time 41600, Note Name: G#5, Velocity: 58
Note OFF: Time 41680, Note Name: G#5
Note ON: Time 41680, Note Name: G#6, Velocity: 59
Note OFF: Time 41760, Note Name: G#6
Note ON: Time 41760, Note Name: C#6, Velocity: 65
Note OFF: Time 41840, Note Name: C#6
Note ON: Time 41840, Note Name: G#6, Velocity: 57
Note OFF: Time 41920, Note Name: G#6
Note ON: Time 41920, Note Name: G#5, Velocity: 60
Note OFF: Time 42000, Note Name: G#5
Note ON: Time 42000, Note Name: G#5, Velocity: 65
Note OFF: Time 42080, Note Name: G#5
Note ON: Time 42080, Note Name: C#5, Velocity: 63
Note OFF: Time 42160, Note Name: C#5
Note ON: Time 42160, Note Name: G#5, Velocity: 56
Note OFF: Time 42240, Note Name: G#5
Note ON: Time 42240, Note Name: C#5, Velocity: 65
Note OFF: Time 42320, Note Name: C#5
Note ON: Time 42320, Note Name: D#5, Velocity: 62
Note OFF: Time 42400, Note Name: D#5
Note ON: Time 42400, Note Name: C#5, Velocity: 57
Note OFF: Time 42480, Note Name: C#5
Note ON: Time 42480, Note Name: D#6, Velocity: 64
Note OFF: Time 42560, Note Name: D#6
Note ON: Time 42560, Note Name: C#6, Velocity: 61
Note OFF: Time 42640, Note Name: C#6
Note ON: Time 42640, Note Name: D#7, Velocity: 61
Note OFF: Time 42720, Note Name: D#7
Note ON: Time 42720, Note Name: C#7, Velocity: 73
Note OFF: Time 42800, Note Name: C#7
Note ON: Time 42800, Note Name: D#7, Velocity: 65
Note OFF: Time 42880, Note Name: D#7
Note ON: Time 42880, Note Name: C#7, Velocity: 66
Note OFF: Time 42960, Note Name: C#7
Note ON: Time 42960, Note Name: C#6, Velocity: 80
Note OFF: Time 43040, Note Name: C#6
Note ON: Time 43040, Note Name: D#6, Velocity: 75
Note OFF: Time 43120, Note Name: D#6
Note ON: Time 43120, Note Name: C#6, Velocity: 70
Note OFF: Time 43200, Note Name: C#6
Note ON: Time 43200, Note Name: C#5, Velocity: 81
Note OFF: Time 43280, Note Name: C#5
Note ON: Time 43280, Note Name: D#5, Velocity: 77
Note OFF: Time 43360, Note Name: D#5
Note ON: Time 43360, Note Name: C#5, Velocity: 73
Note OFF: Time 43440, Note Name: C#5
Note ON: Time 43440, Note Name: D#6, Velocity: 78
Note OFF: Time 43520, Note Name: D#6
Note ON: Time 43520, Note Name: C#6, Velocity: 70
Note OFF: Time 43600, Note Name: C#6
Note ON: Time 43600, Note Name: D#7, Velocity: 74
Note OFF: Time 43680, Note Name: D#7
Note ON: Time 43680, Note Name: C#7, Velocity: 73
Note OFF: Time 43760, Note Name: C#7
Note ON: Time 43760, Note Name: D#7, Velocity: 70
Note OFF: Time 43840, Note Name: D#7
Note ON: Time 43840, Note Name: C#7, Velocity: 66
Note OFF: Time 43920, Note Name: C#7
Note ON: Time 43920, Note Name: C#6, Velocity: 70
Note OFF: Time 44000, Note Name: C#6
Note ON: Time 44000, Note Name: D#6, Velocity: 67
Note OFF: Time 44080, Note Name: D#6
Note ON: Time 44080, Note Name: C#6, Velocity: 66
Note OFF: Time 44160, Note Name: C#6
Note ON: Time 44160, Note Name: C#7, Velocity: 65
Note OFF: Time 44240, Note Name: C#7
Note ON: Time 44240, Note Name: D#7, Velocity: 65
Note OFF: Time 44320, Note Name: D#7
Note ON: Time 44320, Note Name: C#7, Velocity: 62
Note OFF: Time 44400, Note Name: C#7
Note ON: Time 44400, Note Name: C#6, Velocity: 66
Note OFF: Time 44480, Note Name: C#6
Note ON: Time 44480, Note Name: D#6, Velocity: 69
Note OFF: Time 44560, Note Name: D#6
Note ON: Time 44560, Note Name: C#6, Velocity: 65
Note OFF: Time 44640, Note Name: C#6
Note ON: Time 44640, Note Name: C#7, Velocity: 71
Note OFF: Time 44720, Note Name: C#7
Note ON: Time 44720, Note Name: D#7, Velocity: 68
Note OFF: Time 44800, Note Name: D#7
Note ON: Time 44800, Note Name: C#7, Velocity: 72
Note OFF: Time 44880, Note Name: C#7
Note ON: Time 44880, Note Name: C#6, Velocity: 75
Note OFF: Time 44960, Note Name: C#6
Note ON: Time 44960, Note Name: D#6, Velocity: 72
Note OFF: Time 45040, Note Name: D#6
Note ON: Time 45040, Note Name: C#6, Velocity: 68
Note OFF: Time 45120, Note Name: C#6
Note ON: Time 45120, Note Name: C#7, Velocity: 79
Note OFF: Time 45200, Note Name: C#7
Note ON: Time 45200, Note Name: D#7, Velocity: 75
Note OFF: Time 45280, Note Name: D#7
Note ON: Time 45280, Note Name: C#7, Velocity: 70
Note OFF: Time 45360, Note Name: C#7
Note ON: Time 45360, Note Name: C#6, Velocity: 74
Note OFF: Time 45440, Note Name: C#6
Note ON: Time 45440, Note Name: D#6, Velocity: 69
Note OFF: Time 45520, Note Name: D#6
Note ON: Time 45520, Note Name: C#6, Velocity: 68
Note OFF: Time 45600, Note Name: C#6
Note ON: Time 45600, Note Name: C#7, Velocity: 71
Note OFF: Time 45680, Note Name: C#7
Note ON: Time 45680, Note Name: D#7, Velocity: 67
Note OFF: Time 45760, Note Name: D#7
Note ON: Time 45760, Note Name: C#7, Velocity: 64
Note OFF: Time 45840, Note Name: C#7
Note ON: Time 45840, Note Name: C#6, Velocity: 67
Note OFF: Time 45920, Note Name: C#6
Note ON: Time 45920, Note Name: D#6, Velocity: 66
Note OFF: Time 46000, Note Name: D#6
Note ON: Time 46000, Note Name: C#6, Velocity: 65
Note OFF: Time 46080, Note Name: C#6
Note ON: Time 46081, Note Name: F#6, Velocity: 96
Note ON: Time 46160, Note Name: A#6, Velocity: 70
Note OFF: Time 46161, Note Name: F#6
Note OFF: Time 46240, Note Name: A#6
Note ON: Time 46240, Note Name: C#6, Velocity: 70
Note OFF: Time 46320, Note Name: C#6
Note ON: Time 46320, Note Name: F#6, Velocity: 92
Note OFF: Time 46400, Note Name: F#6
Note ON: Time 46400, Note Name: D#6, Velocity: 74
Note OFF: Time 46480, Note Name: D#6
Note ON: Time 46480, Note Name: F#6, Velocity: 70
Note OFF: Time 46560, Note Name: F#6
Note ON: Time 46560, Note Name: C#6, Velocity: 97
Note OFF: Time 46640, Note Name: C#6
Note ON: Time 46640, Note Name: F#6, Velocity: 74
Note OFF: Time 46720, Note Name: F#6
Note ON: Time 46720, Note Name: A#5, Velocity: 71
Note OFF: Time 46800, Note Name: A#5
Note ON: Time 46800, Note Name: C#6, Velocity: 84
Note OFF: Time 46880, Note Name: C#6
Note ON: Time 46880, Note Name: F#5, Velocity: 73
Note OFF: Time 46960, Note Name: F#5
Note ON: Time 46960, Note Name: A#5, Velocity: 70
Note OFF: Time 47040, Note Name: A#5
Note ON: Time 47040, Note Name: F#5, Velocity: 74
Note OFF: Time 47120, Note Name: F#5
Note ON: Time 47120, Note Name: A#5, Velocity: 69
Note OFF: Time 47200, Note Name: A#5
Note ON: Time 47200, Note Name: C#5, Velocity: 66
Note OFF: Time 47280, Note Name: C#5
Note ON: Time 47280, Note Name: F#5, Velocity: 69
Note OFF: Time 47360, Note Name: F#5
Note ON: Time 47360, Note Name: D#5, Velocity: 66
Note OFF: Time 47440, Note Name: D#5
Note ON: Time 47440, Note Name: F#5, Velocity: 63
Note OFF: Time 47520, Note Name: F#5
Note ON: Time 47520, Note Name: C#5, Velocity: 74
Note OFF: Time 47600, Note Name: C#5
Note ON: Time 47600, Note Name: F#5, Velocity: 68
Note OFF: Time 47680, Note Name: F#5
Note ON: Time 47680, Note Name: A#4, Velocity: 63
Note OFF: Time 47760, Note Name: A#4
Note ON: Time 47760, Note Name: C#5, Velocity: 74
Note OFF: Time 47840, Note Name: C#5
Note ON: Time 47840, Note Name: F#4, Velocity: 64
Note OFF: Time 47920, Note Name: F#4
Note ON: Time 47920, Note Name: A#4, Velocity: 61
Note OFF: Time 48000, Note Name: A#4
Note ON: Time 48000, Note Name: C#4, Velocity: 74
Note OFF: Time 48080, Note Name: C#4
Note ON: Time 48080, Note Name: C#5, Velocity: 72
Note OFF: Time 48160, Note Name: C#5
Note ON: Time 48160, Note Name: G#4, Velocity: 67
Note OFF: Time 48240, Note Name: G#4
Note ON: Time 48240, Note Name: C#5, Velocity: 75
Note OFF: Time 48320, Note Name: C#5
Note ON: Time 48320, Note Name: G#4, Velocity: 66
Note OFF: Time 48400, Note Name: G#4
Note ON: Time 48400, Note Name: G#5, Velocity: 67
Note OFF: Time 48480, Note Name: G#5
Note ON: Time 48480, Note Name: G#4, Velocity: 72
Note OFF: Time 48560, Note Name: G#4
Note ON: Time 48560, Note Name: G#5, Velocity: 73
Note OFF: Time 48640, Note Name: G#5
Note ON: Time 48640, Note Name: D#5, Velocity: 71
Note OFF: Time 48720, Note Name: D#5
Note ON: Time 48720, Note Name: G#5, Velocity: 78
Note OFF: Time 48800, Note Name: G#5
Note ON: Time 48800, Note Name: D#5, Velocity: 76
Note OFF: Time 48880, Note Name: D#5
Note ON: Time 48880, Note Name: D#6, Velocity: 72
Note OFF: Time 48960, Note Name: D#6
Note ON: Time 48960, Note Name: D#5, Velocity: 82
Note OFF: Time 49040, Note Name: D#5
Note ON: Time 49040, Note Name: D#6, Velocity: 77
Note OFF: Time 49120, Note Name: D#6
Note ON: Time 49120, Note Name: G#5, Velocity: 72
Note OFF: Time 49200, Note Name: G#5
Note ON: Time 49200, Note Name: D#6, Velocity: 86
Note OFF: Time 49280, Note Name: D#6
Note ON: Time 49280, Note Name: G#5, Velocity: 74
Note OFF: Time 49360, Note Name: G#5
Note ON: Time 49360, Note Name: G#6, Velocity: 75
Note OFF: Time 49440, Note Name: G#6
Note ON: Time 49440, Note Name: G#5, Velocity: 88
Note OFF: Time 49520, Note Name: G#5
Note ON: Time 49520, Note Name: G#6, Velocity: 81
Note OFF: Time 49600, Note Name: G#6
Note ON: Time 49600, Note Name: C#6, Velocity: 77
Note OFF: Time 49680, Note Name: C#6
Note ON: Time 49680, Note Name: G#6, Velocity: 89
Note OFF: Time 49760, Note Name: G#6
Note ON: Time 49760, Note Name: C#6, Velocity: 85
Note OFF: Time 49840, Note Name: C#6
Note ON: Time 49840, Note Name: C#7, Velocity: 83
Note OFF: Time 49920, Note Name: C#7
Note ON: Time 49920, Note Name: F#6, Velocity: 97
Note OFF: Time 50000, Note Name: F#6
Note ON: Time 50000, Note Name: A#6, Velocity: 74
Note OFF: Time 50080, Note Name: A#6
Note ON: Time 50080, Note Name: C#6, Velocity: 71
Note OFF: Time 50160, Note Name: C#6
Note ON: Time 50160, Note Name: F#6, Velocity: 94
Note OFF: Time 50240, Note Name: F#6
Note ON: Time 50240, Note Name: D#6, Velocity: 75
Note OFF: Time 50320, Note Name: D#6
Note ON: Time 50320, Note Name: F#6, Velocity: 73
Note OFF: Time 50400, Note Name: F#6
Note ON: Time 50400, Note Name: C#6, Velocity: 95
Note OFF: Time 50480, Note Name: C#6
Note ON: Time 50480, Note Name: F#6, Velocity: 76
Note OFF: Time 50560, Note Name: F#6
Note ON: Time 50560, Note Name: A#5, Velocity: 73
Note OFF: Time 50640, Note Name: A#5
Note ON: Time 50640, Note Name: C#6, Velocity: 86
Note OFF: Time 50720, Note Name: C#6
Note ON: Time 50720, Note Name: F#5, Velocity: 77
Note OFF: Time 50800, Note Name: F#5
Note ON: Time 50800, Note Name: A#5, Velocity: 73
Note OFF: Time 50880, Note Name: A#5
Note ON: Time 50880, Note Name: F#5, Velocity: 74
Note OFF: Time 50960, Note Name: F#5
Note ON: Time 50960, Note Name: A#5, Velocity: 66
Note OFF: Time 51040, Note Name: A#5
Note ON: Time 51040, Note Name: C#5, Velocity: 64
Note OFF: Time 51120, Note Name: C#5
Note ON: Time 51120, Note Name: F#5, Velocity: 70
Note OFF: Time 51200, Note Name: F#5
Note ON: Time 51200, Note Name: D#5, Velocity: 67
Note OFF: Time 51280, Note Name: D#5
Note ON: Time 51280, Note Name: F#5, Velocity: 67
Note OFF: Time 51360, Note Name: F#5
Note ON: Time 51360, Note Name: C#5, Velocity: 74
Note OFF: Time 51440, Note Name: C#5
Note ON: Time 51440, Note Name: F#5, Velocity: 62
Note OFF: Time 51520, Note Name: F#5
Note ON: Time 51520, Note Name: A#4, Velocity: 55
Note OFF: Time 51600, Note Name: A#4
Note ON: Time 51600, Note Name: C#5, Velocity: 74
Note OFF: Time 51680, Note Name: C#5
Note ON: Time 51680, Note Name: F#4, Velocity: 64
Note OFF: Time 51760, Note Name: F#4
Note ON: Time 51760, Note Name: A#4, Velocity: 60
Note OFF: Time 51840, Note Name: A#4
Note ON: Time 51840, Note Name: D#4, Velocity: 74
Note OFF: Time 51920, Note Name: D#4
Note ON: Time 51920, Note Name: D#5, Velocity: 71
Note OFF: Time 52000, Note Name: D#5
Note ON: Time 52000, Note Name: G#4, Velocity: 67
Note OFF: Time 52080, Note Name: G#4
Note ON: Time 52080, Note Name: D#5, Velocity: 74
Note OFF: Time 52160, Note Name: D#5
Note ON: Time 52160, Note Name: G#4, Velocity: 72
Note OFF: Time 52240, Note Name: G#4
Note ON: Time 52240, Note Name: G#5, Velocity: 67
Note OFF: Time 52320, Note Name: G#5
Note ON: Time 52320, Note Name: A#4, Velocity: 74
Note OFF: Time 52400, Note Name: A#4
Note ON: Time 52400, Note Name: A#5, Velocity: 85
Note OFF: Time 52480, Note Name: A#5
Note ON: Time 52480, Note Name: A#4, Velocity: 72
Note OFF: Time 52560, Note Name: A#4
Note ON: Time 52560, Note Name: A#5, Velocity: 74
Note OFF: Time 52640, Note Name: A#5
Note ON: Time 52640, Note Name: A#4, Velocity: 70
Note OFF: Time 52720, Note Name: A#4
Note ON: Time 52720, Note Name: A#5, Velocity: 66
Note OFF: Time 52800, Note Name: A#5
Note ON: Time 52800, Note Name: D#5, Velocity: 74
Note OFF: Time 52880, Note Name: D#5
Note ON: Time 52880, Note Name: D#6, Velocity: 70
Note OFF: Time 52960, Note Name: D#6
Note ON: Time 52960, Note Name: G#5, Velocity: 70
Note OFF: Time 53040, Note Name: G#5
Note ON: Time 53040, Note Name: D#6, Velocity: 71
Note OFF: Time 53120, Note Name: D#6
Note ON: Time 53120, Note Name: G#5, Velocity: 69
Note OFF: Time 53200, Note Name: G#5
Note ON: Time 53200, Note Name: G#6, Velocity: 69
Note OFF: Time 53280, Note Name: G#6
Note ON: Time 53280, Note Name: A#5, Velocity: 72
Note OFF: Time 53360, Note Name: A#5
Note ON: Time 53360, Note Name: A#6, Velocity: 79
Note OFF: Time 53440, Note Name: A#6
Note ON: Time 53440, Note Name: A#5, Velocity: 69
Note OFF: Time 53520, Note Name: A#5
Note ON: Time 53520, Note Name: A#6, Velocity: 72
Note OFF: Time 53600, Note Name: A#6
Note ON: Time 53600, Note Name: A#5, Velocity: 72
Note OFF: Time 53680, Note Name: A#5
Note ON: Time 53680, Note Name: A#6, Velocity: 70
Note OFF: Time 53760, Note Name: A#6
Note ON: Time 53760, Note Name: A#5, Velocity: 74
Note OFF: Time 53840, Note Name: A#5
Note ON: Time 53840, Note Name: A#6, Velocity: 72
Note OFF: Time 53920, Note Name: A#6
Note ON: Time 53920, Note Name: D#6, Velocity: 72
Note OFF: Time 54000, Note Name: D#6
Note ON: Time 54000, Note Name: A#6, Velocity: 74
Note OFF: Time 54080, Note Name: A#6
Note ON: Time 54080, Note Name: G#5, Velocity: 69
Note OFF: Time 54160, Note Name: G#5
Note ON: Time 54160, Note Name: G#6, Velocity: 67
Note OFF: Time 54240, Note Name: G#6
Note ON: Time 54240, Note Name: G#5, Velocity: 75
Note OFF: Time 54320, Note Name: G#5
Note ON: Time 54320, Note Name: G#6, Velocity: 73
Note OFF: Time 54400, Note Name: G#6
Note ON: Time 54400, Note Name: C#6, Velocity: 70
Note OFF: Time 54480, Note Name: C#6
Note ON: Time 54480, Note Name: G#6, Velocity: 77
Note OFF: Time 54560, Note Name: G#6
Note ON: Time 54560, Note Name: F#5, Velocity: 69
Note OFF: Time 54640, Note Name: F#5
Note ON: Time 54640, Note Name: F#6, Velocity: 70
Note OFF: Time 54720, Note Name: F#6
Note ON: Time 54720, Note Name: C#5, Velocity: 77
Note OFF: Time 54800, Note Name: C#5
Note ON: Time 54800, Note Name: C#6, Velocity: 72
Note OFF: Time 54880, Note Name: C#6
Note ON: Time 54880, Note Name: G#5, Velocity: 69
Note OFF: Time 54960, Note Name: G#5
Note ON: Time 54960, Note Name: C#6, Velocity: 78
Note OFF: Time 55040, Note Name: C#6
Note ON: Time 55040, Note Name: G#5, Velocity: 72
Note OFF: Time 55120, Note Name: G#5
Note ON: Time 55120, Note Name: G#6, Velocity: 75
Note OFF: Time 55200, Note Name: G#6
Note ON: Time 55200, Note Name: F#5, Velocity: 78
Note OFF: Time 55280, Note Name: F#5
Note ON: Time 55280, Note Name: F#6, Velocity: 74
Note OFF: Time 55360, Note Name: F#6
Note ON: Time 55360, Note Name: C#6, Velocity: 72
Note OFF: Time 55440, Note Name: C#6
Note ON: Time 55440, Note Name: F#6, Velocity: 80
Note OFF: Time 55520, Note Name: F#6
Note ON: Time 55520, Note Name: C#6, Velocity: 74
Note OFF: Time 55600, Note Name: C#6
Note ON: Time 55600, Note Name: C#7, Velocity: 78
Note OFF: Time 55680, Note Name: C#7
Note ON: Time 55680, Note Name: A#5, Velocity: 80
Note OFF: Time 55760, Note Name: A#5
Note ON: Time 55760, Note Name: A#6, Velocity: 74
Note OFF: Time 55840, Note Name: A#6
Note ON: Time 55840, Note Name: D#6, Velocity: 71
Note OFF: Time 55920, Note Name: D#6
Note ON: Time 55920, Note Name: A#6, Velocity: 81
Note OFF: Time 56000, Note Name: A#6
Note ON: Time 56000, Note Name: G#5, Velocity: 79
Note OFF: Time 56080, Note Name: G#5
Note ON: Time 56080, Note Name: G#6, Velocity: 76
Note OFF: Time 56160, Note Name: G#6
Note ON: Time 56160, Note Name: G#5, Velocity: 82
Note OFF: Time 56240, Note Name: G#5
Note ON: Time 56240, Note Name: G#6, Velocity: 76
Note OFF: Time 56320, Note Name: G#6
Note ON: Time 56320, Note Name: C#6, Velocity: 73
Note OFF: Time 56400, Note Name: C#6
Note ON: Time 56400, Note Name: G#6, Velocity: 82
Note OFF: Time 56480, Note Name: G#6
Note ON: Time 56480, Note Name: F#5, Velocity: 74
Note OFF: Time 56560, Note Name: F#5
Note ON: Time 56560, Note Name: F#6, Velocity: 70
Note OFF: Time 56640, Note Name: F#6
Note ON: Time 56640, Note Name: C#5, Velocity: 83
Note OFF: Time 56720, Note Name: C#5
Note ON: Time 56720, Note Name: C#6, Velocity: 74
Note OFF: Time 56800, Note Name: C#6
Note ON: Time 56800, Note Name: G#5, Velocity: 71
Note OFF: Time 56880, Note Name: G#5
Note ON: Time 56880, Note Name: C#6, Velocity: 83
Note OFF: Time 56960, Note Name: C#6
Note ON: Time 56960, Note Name: G#5, Velocity: 76
Note OFF: Time 57040, Note Name: G#5
Note ON: Time 57040, Note Name: G#6, Velocity: 82
Note OFF: Time 57120, Note Name: G#6
Note ON: Time 57120, Note Name: F#5, Velocity: 86
Note OFF: Time 57200, Note Name: F#5
Note ON: Time 57200, Note Name: F#6, Velocity: 76
Note OFF: Time 57280, Note Name: F#6
Note ON: Time 57280, Note Name: C#6, Velocity: 73
Note OFF: Time 57360, Note Name: C#6
Note ON: Time 57360, Note Name: F#6, Velocity: 87
Note OFF: Time 57440, Note Name: F#6
Note ON: Time 57440, Note Name: C#6, Velocity: 79
Note OFF: Time 57520, Note Name: C#6
Note ON: Time 57520, Note Name: C#7, Velocity: 75
Note OFF: Time 57600, Note Name: C#7
Note ON: Time 57600, Note Name: A#5, Velocity: 83
Note OFF: Time 57680, Note Name: A#5
Note ON: Time 57680, Note Name: A#6, Velocity: 74
Note OFF: Time 57760, Note Name: A#6
Note ON: Time 57760, Note Name: D#6, Velocity: 75
Note OFF: Time 57840, Note Name: D#6
Note ON: Time 57840, Note Name: A#6, Velocity: 86
Note OFF: Time 57920, Note Name: A#6
Note ON: Time 57920, Note Name: G#5, Velocity: 77
Note OFF: Time 58000, Note Name: G#5
Note ON: Time 58000, Note Name: G#6, Velocity: 74
Note OFF: Time 58080, Note Name: G#6
Note ON: Time 58080, Note Name: A#5, Velocity: 87
Note OFF: Time 58160, Note Name: A#5
Note ON: Time 58160, Note Name: A#6, Velocity: 80
Note OFF: Time 58240, Note Name: A#6
Note ON: Time 58240, Note Name: D#6, Velocity: 74
Note OFF: Time 58320, Note Name: D#6
Note ON: Time 58320, Note Name: A#6, Velocity: 84
Note OFF: Time 58400, Note Name: A#6
Note ON: Time 58400, Note Name: G#5, Velocity: 78
Note OFF: Time 58480, Note Name: G#5
Note ON: Time 58480, Note Name: G#6, Velocity: 74
Note OFF: Time 58560, Note Name: G#6
Note ON: Time 58560, Note Name: A#5, Velocity: 92
Note OFF: Time 58640, Note Name: A#5
Note ON: Time 58640, Note Name: A#6, Velocity: 85
Note OFF: Time 58720, Note Name: A#6
Note ON: Time 58720, Note Name: D#6, Velocity: 81
Note OFF: Time 58800, Note Name: D#6
Note ON: Time 58800, Note Name: A#6, Velocity: 93
Note OFF: Time 58880, Note Name: A#6
Note ON: Time 58880, Note Name: G#5, Velocity: 85
Note OFF: Time 58960, Note Name: G#5
Note ON: Time 58960, Note Name: G#6, Velocity: 90
Note OFF: Time 59040, Note Name: G#6
Note ON: Time 59040, Note Name: A#5, Velocity: 94
Note OFF: Time 59120, Note Name: A#5
Note ON: Time 59120, Note Name: A#6, Velocity: 86
Note OFF: Time 59200, Note Name: A#6
Note ON: Time 59200, Note Name: D#6, Velocity: 83
Note OFF: Time 59280, Note Name: D#6
Note ON: Time 59280, Note Name: A#6, Velocity: 97
Note OFF: Time 59360, Note Name: A#6
Note ON: Time 59360, Note Name: G#5, Velocity: 80
Note OFF: Time 59440, Note Name: G#5
Note ON: Time 59440, Note Name: G#6, Velocity: 88
Note OFF: Time 59520, Note Name: G#6
Note ON: Time 59520, Note Name: C#6, Velocity: 98
Note OFF: Time 59600, Note Name: C#6
Note ON: Time 59600, Note Name: A#6, Velocity: 90
Note OFF: Time 59680, Note Name: A#6
Note ON: Time 59680, Note Name: G#5, Velocity: 87
Note OFF: Time 59760, Note Name: G#5
Note ON: Time 59760, Note Name: G#6, Velocity: 100
Note OFF: Time 59840, Note Name: G#6
Note ON: Time 59840, Note Name: C#6, Velocity: 90
Note OFF: Time 59920, Note Name: C#6
Note ON: Time 59920, Note Name: A#6, Velocity: 92
Note OFF: Time 60000, Note Name: A#6
Note ON: Time 60000, Note Name: G#5, Velocity: 103
Note OFF: Time 60080, Note Name: G#5
Note ON: Time 60080, Note Name: G#6, Velocity: 93
Note OFF: Time 60160, Note Name: G#6
Note ON: Time 60160, Note Name: C#6, Velocity: 86
Note OFF: Time 60240, Note Name: C#6
Note ON: Time 60240, Note Name: A#6, Velocity: 94
Note OFF: Time 60320, Note Name: A#6
Note ON: Time 60320, Note Name: G#5, Velocity: 90
Note OFF: Time 60400, Note Name: G#5
Note ON: Time 60400, Note Name: G#6, Velocity: 86
Note OFF: Time 60480, Note Name: G#6
Note ON: Time 60480, Note Name: C#6, Velocity: 96
Note OFF: Time 60560, Note Name: C#6
Note ON: Time 60560, Note Name: A#6, Velocity: 91
Note OFF: Time 60640, Note Name: A#6
Note ON: Time 60640, Note Name: G#5, Velocity: 85
Note OFF: Time 60720, Note Name: G#5
Note ON: Time 60720, Note Name: G#6, Velocity: 89
Note OFF: Time 60800, Note Name: G#6
Note ON: Time 60800, Note Name: C#6, Velocity: 82
Note OFF: Time 60880, Note Name: C#6
Note ON: Time 60880, Note Name: A#6, Velocity: 75
Note OFF: Time 60960, Note Name: A#6
Note ON: Time 60960, Note Name: G#5, Velocity: 85
Note OFF: Time 61040, Note Name: G#5
Note ON: Time 61040, Note Name: G#6, Velocity: 77
Note OFF: Time 61120, Note Name: G#6
Note ON: Time 61120, Note Name: C#6, Velocity: 71
Note OFF: Time 61200, Note Name: C#6
Note ON: Time 61200, Note Name: A#6, Velocity: 75
Note OFF: Time 61280, Note Name: A#6
Note ON: Time 61280, Note Name: G#5, Velocity: 68
Note OFF: Time 61360, Note Name: G#5
Note ON: Time 61360, Note Name: G#6, Velocity: 64
Note OFF: Time 61440, Note Name: G#6
Note ON: Time 61440, Note Name: D#7, Velocity: 57
Note OFF: Time 61520, Note Name: D#7
Note ON: Time 61560, Note Name: C#7, Velocity: 57
Note OFF: Time 61600, Note Name: C#7
Note ON: Time 61600, Note Name: A#6, Velocity: 52
Note OFF: Time 61680, Note Name: A#6
Note ON: Time 61680, Note Name: G#6, Velocity: 57
Note OFF: Time 61760, Note Name: G#6
Note ON: Time 61760, Note Name: F#6, Velocity: 57
Note OFF: Time 61840, Note Name: F#6
Note ON: Time 61840, Note Name: D#6, Velocity: 54
Note OFF: Time 61920, Note Name: D#6
Note ON: Time 61920, Note Name: C#6, Velocity: 57
Note OFF: Time 62000, Note Name: C#6
Note ON: Time 62000, Note Name: A#5, Velocity: 57
Note OFF: Time 62080, Note Name: A#5
Note ON: Time 62080, Note Name: G#5, Velocity: 53
Note OFF: Time 62160, Note Name: G#5
Note ON: Time 62160, Note Name: F#5, Velocity: 57
Note OFF: Time 62240, Note Name: F#5
Note ON: Time 62240, Note Name: D#5, Velocity: 57
Note OFF: Time 62320, Note Name: D#5
Note ON: Time 62320, Note Name: C#5, Velocity: 54
Note OFF: Time 62400, Note Name: C#5
Note ON: Time 62400, Note Name: G#4, Velocity: 65
Note OFF: Time 62880, Note Name: G#4
Note ON: Time 62880, Note Name: A#4, Velocity: 69
Note OFF: Time 63240, Note Name: A#4
Note ON: Time 63240, Note Name: G#4, Velocity: 64
Note OFF: Time 63360, Note Name: G#4
Note ON: Time 63360, Note Name: F#4, Velocity: 71
Note OFF: Time 63840, Note Name: F#4
Note ON: Time 63840, Note Name: G#6, Velocity: 63
Note OFF: Time 63920, Note Name: G#6
Note ON: Time 63920, Note Name: A#6, Velocity: 53
Note OFF: Time 64000, Note Name: A#6
Note ON: Time 64000, Note Name: G#6, Velocity: 57
Note OFF: Time 64080, Note Name: G#6
Note ON: Time 64080, Note Name: C#6, Velocity: 59
Note OFF: Time 64160, Note Name: C#6
Note ON: Time 64160, Note Name: C#7, Velocity: 59
Note OFF: Time 64240, Note Name: C#7
Note ON: Time 64240, Note Name: C#6, Velocity: 54
Note OFF: Time 64320, Note Name: C#6
Note ON: Time 64320, Note Name: C#6, Velocity: 63
Note OFF: Time 64400, Note Name: C#6
Note ON: Time 64400, Note Name: D#6, Velocity: 63
Note OFF: Time 64480, Note Name: D#6
Note ON: Time 64480, Note Name: C#6, Velocity: 63
Note OFF: Time 64560, Note Name: C#6
Note ON: Time 64560, Note Name: F#5, Velocity: 58
Note OFF: Time 64640, Note Name: F#5
Note ON: Time 64640, Note Name: F#6, Velocity: 55
Note OFF: Time 64720, Note Name: F#6
Note ON: Time 64720, Note Name: F#5, Velocity: 58
Note OFF: Time 64800, Note Name: F#5
Note ON: Time 64800, Note Name: G#5, Velocity: 63
Note OFF: Time 64880, Note Name: G#5
Note ON: Time 64880, Note Name: A#5, Velocity: 54
Note OFF: Time 64960, Note Name: A#5
Note ON: Time 64960, Note Name: G#5, Velocity: 56
Note OFF: Time 65040, Note Name: G#5
Note ON: Time 65040, Note Name: C#5, Velocity: 78
Note OFF: Time 65360, Note Name: C#5
Note ON: Time 65360, Note Name: F#5, Velocity: 62
Note OFF: Time 65440, Note Name: F#5
Note ON: Time 65440, Note Name: G#5, Velocity: 57
Note OFF: Time 65520, Note Name: G#5
Note ON: Time 65520, Note Name: A#5, Velocity: 66
Note OFF: Time 65600, Note Name: A#5
Note ON: Time 65600, Note Name: G#5, Velocity: 64
Note OFF: Time 65680, Note Name: G#5
Note ON: Time 65680, Note Name: F#5, Velocity: 57
Note OFF: Time 65760, Note Name: F#5
Note ON: Time 65760, Note Name: C#5, Velocity: 62
Note OFF: Time 65840, Note Name: C#5
Note ON: Time 65840, Note Name: G#5, Velocity: 64
Note OFF: Time 65920, Note Name: G#5
Note ON: Time 65920, Note Name: C#6, Velocity: 61
Note OFF: Time 66000, Note Name: C#6
Note ON: Time 66000, Note Name: D#6, Velocity: 67
Note OFF: Time 66080, Note Name: D#6
Note ON: Time 66080, Note Name: C#6, Velocity: 65
Note OFF: Time 66160, Note Name: C#6
Note ON: Time 66160, Note Name: G#5, Velocity: 59
Note OFF: Time 66240, Note Name: G#5
Note ON: Time 66240, Note Name: F#5, Velocity: 66
Note OFF: Time 66320, Note Name: F#5
Note ON: Time 66320, Note Name: C#6, Velocity: 63
Note OFF: Time 66400, Note Name: C#6
Note ON: Time 66400, Note Name: F#6, Velocity: 59
Note OFF: Time 66480, Note Name: F#6
Note ON: Time 66480, Note Name: G#6, Velocity: 64
Note OFF: Time 66560, Note Name: G#6
Note ON: Time 66560, Note Name: F#6, Velocity: 64
Note OFF: Time 66640, Note Name: F#6
Note ON: Time 66640, Note Name: D#6, Velocity: 57
Note OFF: Time 66720, Note Name: D#6
Note ON: Time 66720, Note Name: C#6, Velocity: 70
Note OFF: Time 66800, Note Name: C#6
Note ON: Time 66800, Note Name: G#6, Velocity: 67
Note OFF: Time 66880, Note Name: G#6
Note ON: Time 66880, Note Name: C#7, Velocity: 65
Note OFF: Time 66960, Note Name: C#7
Note ON: Time 66960, Note Name: D#7, Velocity: 74
Note OFF: Time 67040, Note Name: D#7
Note ON: Time 67040, Note Name: C#7, Velocity: 67
Note OFF: Time 67120, Note Name: C#7
Note ON: Time 67120, Note Name: G#6, Velocity: 62
Note OFF: Time 67200, Note Name: G#6
Note ON: Time 67200, Note Name: F#6, Velocity: 62
Note OFF: Time 67280, Note Name: F#6
Note ON: Time 67280, Note Name: G#6, Velocity: 57
Note OFF: Time 67360, Note Name: G#6
Note ON: Time 67360, Note Name: F#6, Velocity: 56
Note OFF: Time 67440, Note Name: F#6
Note ON: Time 67440, Note Name: C#6, Velocity: 63
Note OFF: Time 67520, Note Name: C#6
Note ON: Time 67520, Note Name: C#7, Velocity: 59
Note OFF: Time 67600, Note Name: C#7
Note ON: Time 67600, Note Name: C#6, Velocity: 59
Note OFF: Time 67680, Note Name: C#6
Note ON: Time 67680, Note Name: C#6, Velocity: 63
Note OFF: Time 67760, Note Name: C#6
Note ON: Time 67760, Note Name: D#6, Velocity: 60
Note OFF: Time 67840, Note Name: D#6
Note ON: Time 67840, Note Name: C#6, Velocity: 57
Note OFF: Time 67920, Note Name: C#6
Note ON: Time 67920, Note Name: G#5, Velocity: 59
Note OFF: Time 68000, Note Name: G#5
Note ON: Time 68000, Note Name: G#6, Velocity: 59
Note OFF: Time 68080, Note Name: G#6
Note ON: Time 68080, Note Name: G#5, Velocity: 59
Note OFF: Time 68160, Note Name: G#5
Note ON: Time 68160, Note Name: G#5, Velocity: 63
Note OFF: Time 68240, Note Name: G#5
Note ON: Time 68240, Note Name: A#5, Velocity: 59
Note OFF: Time 68320, Note Name: A#5
Note ON: Time 68320, Note Name: G#5, Velocity: 55
Note OFF: Time 68400, Note Name: G#5
Note ON: Time 68400, Note Name: F#5, Velocity: 58
Note OFF: Time 68480, Note Name: F#5
Note ON: Time 68480, Note Name: F#6, Velocity: 58
Note OFF: Time 68560, Note Name: F#6
Note ON: Time 68560, Note Name: F#5, Velocity: 55
Note OFF: Time 68640, Note Name: F#5
Note ON: Time 68640, Note Name: C#5, Velocity: 63
Note OFF: Time 69200, Note Name: C#5
Note ON: Time 69200, Note Name: F#5, Velocity: 64
Note OFF: Time 69280, Note Name: F#5
Note ON: Time 69280, Note Name: G#5, Velocity: 62
Note OFF: Time 69360, Note Name: G#5
Note ON: Time 69360, Note Name: A#5, Velocity: 70
Note OFF: Time 69440, Note Name: A#5
Note ON: Time 69440, Note Name: G#5, Velocity: 64
Note OFF: Time 69520, Note Name: G#5
Note ON: Time 69520, Note Name: F#5, Velocity: 61
Note OFF: Time 69600, Note Name: F#5
Note ON: Time 69600, Note Name: C#5, Velocity: 69
Note OFF: Time 69680, Note Name: C#5
Note ON: Time 69680, Note Name: G#5, Velocity: 66
Note OFF: Time 69760, Note Name: G#5
Note ON: Time 69760, Note Name: C#6, Velocity: 64
Note OFF: Time 69840, Note Name: C#6
Note ON: Time 69840, Note Name: D#6, Velocity: 73
Note OFF: Time 69920, Note Name: D#6
Note ON: Time 69920, Note Name: C#6, Velocity: 67
Note OFF: Time 70000, Note Name: C#6
Note ON: Time 70000, Note Name: G#5, Velocity: 65
Note OFF: Time 70080, Note Name: G#5
Note ON: Time 70080, Note Name: F#5, Velocity: 74
Note OFF: Time 70160, Note Name: F#5
Note ON: Time 70160, Note Name: C#6, Velocity: 71
Note OFF: Time 70240, Note Name: C#6
Note ON: Time 70240, Note Name: F#6, Velocity: 70
Note OFF: Time 70320, Note Name: F#6
Note ON: Time 70320, Note Name: G#6, Velocity: 76
Note OFF: Time 70400, Note Name: G#6
Note ON: Time 70400, Note Name: F#6, Velocity: 70
Note OFF: Time 70480, Note Name: F#6
Note ON: Time 70480, Note Name: C#6, Velocity: 70
Note OFF: Time 70560, Note Name: C#6
Note ON: Time 70560, Note Name: G#5, Velocity: 79
Note OFF: Time 70640, Note Name: G#5
Note ON: Time 70640, Note Name: C#6, Velocity: 81
Note OFF: Time 70720, Note Name: C#6
Note ON: Time 70720, Note Name: G#6, Velocity: 78
Note OFF: Time 70800, Note Name: G#6
Note ON: Time 70800, Note Name: A#6, Velocity: 86
Note OFF: Time 70880, Note Name: A#6
Note ON: Time 70880, Note Name: G#6, Velocity: 78
Note OFF: Time 70960, Note Name: G#6
Note ON: Time 70960, Note Name: C#6, Velocity: 74
Note OFF: Time 71040, Note Name: C#6
Note ON: Time 71040, Note Name: A#6, Velocity: 87
Note OFF: Time 71120, Note Name: A#6
Note ON: Time 71120, Note Name: C#6, Velocity: 77
Note OFF: Time 71200, Note Name: C#6
Note ON: Time 71200, Note Name: G#6, Velocity: 71
Note OFF: Time 71280, Note Name: G#6
Note ON: Time 71280, Note Name: A#5, Velocity: 83
Note OFF: Time 71360, Note Name: A#5
Note ON: Time 71360, Note Name: G#6, Velocity: 78
Note OFF: Time 71440, Note Name: G#6
Note ON: Time 71440, Note Name: C#6, Velocity: 70
Note OFF: Time 71520, Note Name: C#6
Note ON: Time 71520, Note Name: F#6, Velocity: 83
Note OFF: Time 71600, Note Name: F#6
Note ON: Time 71600, Note Name: A#5, Velocity: 76
Note OFF: Time 71680, Note Name: A#5
Note ON: Time 71680, Note Name: D#6, Velocity: 72
Note OFF: Time 71760, Note Name: D#6
Note ON: Time 71760, Note Name: G#5, Velocity: 83
Note OFF: Time 71840, Note Name: G#5
Note ON: Time 71840, Note Name: C#6, Velocity: 76
Note OFF: Time 71920, Note Name: C#6
Note ON: Time 71920, Note Name: C#5, Velocity: 72
Note OFF: Time 72000, Note Name: C#5
Note ON: Time 72000, Note Name: A#5, Velocity: 83
Note OFF: Time 72080, Note Name: A#5
Note ON: Time 72080, Note Name: C#5, Velocity: 78
Note OFF: Time 72160, Note Name: C#5
Note ON: Time 72160, Note Name: G#5, Velocity: 74
Note OFF: Time 72240, Note Name: G#5
Note ON: Time 72240, Note Name: A#4, Velocity: 83
Note OFF: Time 72320, Note Name: A#4
Note ON: Time 72320, Note Name: G#5, Velocity: 72
Note OFF: Time 72400, Note Name: G#5
Note ON: Time 72400, Note Name: C#5, Velocity: 72
Note OFF: Time 72480, Note Name: C#5
Note ON: Time 72480, Note Name: F#5, Velocity: 83
Note OFF: Time 72560, Note Name: F#5
Note ON: Time 72560, Note Name: A#4, Velocity: 78
Note OFF: Time 72640, Note Name: A#4
Note ON: Time 72640, Note Name: D#5, Velocity: 74
Note OFF: Time 72720, Note Name: D#5
Note ON: Time 72720, Note Name: G#4, Velocity: 83
Note OFF: Time 72800, Note Name: G#4
Note ON: Time 72800, Note Name: C#5, Velocity: 77
Note OFF: Time 72880, Note Name: C#5
Note ON: Time 72880, Note Name: C#4, Velocity: 76
Note OFF: Time 72960, Note Name: C#4
Note ON: Time 72960, Note Name: A#4, Velocity: 87
Note OFF: Time 73040, Note Name: A#4
Note ON: Time 73040, Note Name: C#4, Velocity: 82
Note OFF: Time 73120, Note Name: C#4
Note ON: Time 73120, Note Name: G#4, Velocity: 77
Note OFF: Time 73200, Note Name: G#4
Note ON: Time 73200, Note Name: A#3, Velocity: 88
Note OFF: Time 73280, Note Name: A#3
Note ON: Time 73280, Note Name: G#4, Velocity: 77
Note OFF: Time 73360, Note Name: G#4
Note ON: Time 73360, Note Name: C#4, Velocity: 81
Note OFF: Time 73440, Note Name: C#4
Note ON: Time 73440, Note Name: F#4, Velocity: 93
Note OFF: Time 73520, Note Name: F#4
Note ON: Time 73520, Note Name: A#3, Velocity: 87
Note OFF: Time 73600, Note Name: A#3
Note ON: Time 73600, Note Name: D#4, Velocity: 86
Note OFF: Time 73680, Note Name: D#4
Note ON: Time 73680, Note Name: G#3, Velocity: 97
Note OFF: Time 73760, Note Name: G#3
Note ON: Time 73760, Note Name: C#4, Velocity: 91
Note OFF: Time 73840, Note Name: C#4
Note ON: Time 73840, Note Name: C#3, Velocity: 88
Note OFF: Time 73920, Note Name: C#3
Note ON: Time 73920, Note Name: A#3, Velocity: 101
Note OFF: Time 74000, Note Name: A#3
Note ON: Time 74000, Note Name: F#3, Velocity: 92
Note OFF: Time 74080, Note Name: F#3
Note ON: Time 74080, Note Name: D#4, Velocity: 87
Note OFF: Time 74160, Note Name: D#4
Note ON: Time 74160, Note Name: C#3, Velocity: 101
Note OFF: Time 74240, Note Name: C#3
Note ON: Time 74240, Note Name: C#4, Velocity: 92
Note OFF: Time 74320, Note Name: C#4
Note ON: Time 74320, Note Name: G#3, Velocity: 86
Note OFF: Time 74400, Note Name: G#3
Note ON: Time 74400, Note Name: A#3, Velocity: 101
Note OFF: Time 74480, Note Name: A#3
Note ON: Time 74480, Note Name: F#3, Velocity: 93
Note OFF: Time 74560, Note Name: F#3
Note ON: Time 74560, Note Name: D#4, Velocity: 89
Note OFF: Time 74640, Note Name: D#4
Note ON: Time 74640, Note Name: C#3, Velocity: 101
Note OFF: Time 74720, Note Name: C#3
Note ON: Time 74720, Note Name: C#4, Velocity: 93
Note OFF: Time 74800, Note Name: C#4
Note ON: Time 74800, Note Name: G#3, Velocity: 89
Note OFF: Time 74880, Note Name: G#3
Note ON: Time 74880, Note Name: A#3, Velocity: 101
Note OFF: Time 75120, Note Name: A#3
Note ON: Time 75120, Note Name: F#3, Velocity: 48
Note ON: Time 75120, Note Name: A#3, Velocity: 60
Note OFF: Time 75200, Note Name: A#3
Note OFF: Time 75200, Note Name: F#3
Note ON: Time 75200, Note Name: G#3, Velocity: 59
Note OFF: Time 75280, Note Name: G#3
Note ON: Time 75280, Note Name: F#3, Velocity: 54
Note OFF: Time 75360, Note Name: F#3
Note ON: Time 75360, Note Name: F#4, Velocity: 63
Note ON: Time 75360, Note Name: D#4, Velocity: 50
Note OFF: Time 75440, Note Name: D#4
Note OFF: Time 75440, Note Name: F#4
Note ON: Time 75440, Note Name: C#4, Velocity: 60
Note OFF: Time 75520, Note Name: C#4
Note ON: Time 75520, Note Name: A#3, Velocity: 56
Note OFF: Time 75600, Note Name: A#3
Note ON: Time 75600, Note Name: A#4, Velocity: 64
Note ON: Time 75600, Note Name: F#4, Velocity: 50
Note OFF: Time 75680, Note Name: F#4
Note OFF: Time 75680, Note Name: A#4
Note ON: Time 75680, Note Name: D#4, Velocity: 62
Note OFF: Time 75760, Note Name: D#4
Note ON: Time 75760, Note Name: C#4, Velocity: 58
Note OFF: Time 75840, Note Name: C#4
Note ON: Time 75840, Note Name: A#4, Velocity: 52
Note ON: Time 75840, Note Name: C#5, Velocity: 66
Note OFF: Time 75920, Note Name: C#5
Note OFF: Time 75920, Note Name: A#4
Note ON: Time 75920, Note Name: G#4, Velocity: 64
Note OFF: Time 76000, Note Name: G#4
Note ON: Time 76000, Note Name: F#4, Velocity: 58
Note OFF: Time 76080, Note Name: F#4
Note ON: Time 76080, Note Name: F#5, Velocity: 69
Note ON: Time 76080, Note Name: D#5, Velocity: 55
Note OFF: Time 76160, Note Name: D#5
Note OFF: Time 76160, Note Name: F#5
Note ON: Time 76160, Note Name: C#5, Velocity: 59
Note OFF: Time 76240, Note Name: C#5
Note ON: Time 76240, Note Name: A#4, Velocity: 59
Note OFF: Time 76320, Note Name: A#4
Note ON: Time 76320, Note Name: A#5, Velocity: 70
Note ON: Time 76320, Note Name: F#5, Velocity: 55
Note OFF: Time 76400, Note Name: F#5
Note OFF: Time 76400, Note Name: A#5
Note ON: Time 76400, Note Name: D#5, Velocity: 65
Note OFF: Time 76480, Note Name: D#5
Note ON: Time 76480, Note Name: C#5, Velocity: 64
Note OFF: Time 76560, Note Name: C#5
Note ON: Time 76560, Note Name: C#6, Velocity: 71
Note ON: Time 76560, Note Name: A#5, Velocity: 56
Note OFF: Time 76640, Note Name: A#5
Note OFF: Time 76640, Note Name: C#6
Note ON: Time 76640, Note Name: G#5, Velocity: 67
Note OFF: Time 76720, Note Name: G#5
Note ON: Time 76720, Note Name: F#5, Velocity: 67
Note OFF: Time 76800, Note Name: F#5
Note ON: Time 76800, Note Name: F#6, Velocity: 73
Note ON: Time 76800, Note Name: D#6, Velocity: 58
Note OFF: Time 76880, Note Name: D#6
Note OFF: Time 76880, Note Name: F#6
Note ON: Time 76880, Note Name: C#6, Velocity: 67
Note OFF: Time 76960, Note Name: C#6
Note ON: Time 76960, Note Name: A#5, Velocity: 65
Note OFF: Time 77040, Note Name: A#5
Note ON: Time 77040, Note Name: A#6, Velocity: 75
Note ON: Time 77040, Note Name: F#6, Velocity: 59
Note OFF: Time 77120, Note Name: F#6
Note OFF: Time 77120, Note Name: A#6
Note ON: Time 77120, Note Name: D#6, Velocity: 69
Note OFF: Time 77200, Note Name: D#6
Note ON: Time 77200, Note Name: C#6, Velocity: 66
Note OFF: Time 77280, Note Name: C#6
Note ON: Time 77280, Note Name: F#6, Velocity: 78
Note ON: Time 77280, Note Name: D#6, Velocity: 62
Note OFF: Time 77360, Note Name: D#6
Note OFF: Time 77360, Note Name: F#6
Note ON: Time 77360, Note Name: C#6, Velocity: 70
Note OFF: Time 77440, Note Name: C#6
Note ON: Time 77440, Note Name: A#5, Velocity: 69
Note OFF: Time 77520, Note Name: A#5
Note ON: Time 77520, Note Name: A#6, Velocity: 78
Note ON: Time 77520, Note Name: F#6, Velocity: 62
Note OFF: Time 77600, Note Name: F#6
Note OFF: Time 77600, Note Name: A#6
Note ON: Time 77600, Note Name: D#6, Velocity: 71
Note OFF: Time 77680, Note Name: D#6
Note ON: Time 77680, Note Name: C#6, Velocity: 70
Note OFF: Time 77760, Note Name: C#6
Note ON: Time 77760, Note Name: F#6, Velocity: 81
Note ON: Time 77760, Note Name: D#6, Velocity: 64
Note OFF: Time 77840, Note Name: D#6
Note OFF: Time 77840, Note Name: F#6
Note ON: Time 77840, Note Name: C#6, Velocity: 74
Note OFF: Time 77920, Note Name: C#6
Note ON: Time 77920, Note Name: A#5, Velocity: 73
Note OFF: Time 78000, Note Name: A#5
Note ON: Time 78000, Note Name: A#6, Velocity: 81
Note ON: Time 78000, Note Name: F#6, Velocity: 64
Note OFF: Time 78080, Note Name: F#6
Note OFF: Time 78080, Note Name: A#6
Note ON: Time 78080, Note Name: D#6, Velocity: 75
Note OFF: Time 78160, Note Name: D#6
Note ON: Time 78160, Note Name: C#6, Velocity: 74
Note OFF: Time 78240, Note Name: C#6
Note ON: Time 78240, Note Name: F#6, Velocity: 82
Note ON: Time 78240, Note Name: D#6, Velocity: 65
Note OFF: Time 78320, Note Name: D#6
Note OFF: Time 78320, Note Name: F#6
Note ON: Time 78320, Note Name: C#6, Velocity: 75
Note OFF: Time 78400, Note Name: C#6
Note ON: Time 78400, Note Name: A#5, Velocity: 75
Note OFF: Time 78480, Note Name: A#5
Note ON: Time 78480, Note Name: A#6, Velocity: 85
Note ON: Time 78480, Note Name: F#6, Velocity: 67
Note OFF: Time 78560, Note Name: F#6
Note OFF: Time 78560, Note Name: A#6
Note ON: Time 78560, Note Name: D#6, Velocity: 77
Note OFF: Time 78640, Note Name: D#6
Note ON: Time 78640, Note Name: C#6, Velocity: 75
Note OFF: Time 78720, Note Name: C#6
Note ON: Time 78720, Note Name: A#5, Velocity: 89
Note ON: Time 78720, Note Name: F#6, Velocity: 89
Note OFF: Time 78800, Note Name: F#6
Note OFF: Time 78800, Note Name: A#5
Note ON: Time 78880, Note Name: F#5, Velocity: 94
Note ON: Time 78880, Note Name: F#6, Velocity: 94
Note OFF: Time 78960, Note Name: F#6
Note OFF: Time 78960, Note Name: F#5
Note ON: Time 78960, Note Name: D#6, Velocity: 94
Note ON: Time 78960, Note Name: D#5, Velocity: 94
Note OFF: Time 79040, Note Name: D#5
Note OFF: Time 79040, Note Name: D#6
Note ON: Time 79040, Note Name: C#6, Velocity: 95
Note ON: Time 79040, Note Name: C#5, Velocity: 95
Note OFF: Time 79120, Note Name: C#5
Note OFF: Time 79120, Note Name: C#6
Note ON: Time 79120, Note Name: A#5, Velocity: 96
Note ON: Time 79120, Note Name: A#4, Velocity: 96
Note OFF: Time 79200, Note Name: A#4
Note OFF: Time 79200, Note Name: A#5
Note ON: Time 79200, Note Name: G#5, Velocity: 97
Note ON: Time 79200, Note Name: G#4, Velocity: 97
Note OFF: Time 79280, Note Name: G#4
Note OFF: Time 79280, Note Name: G#5
Note ON: Time 79280, Note Name: F#5, Velocity: 98
Note ON: Time 79280, Note Name: F#4, Velocity: 98
Note OFF: Time 79360, Note Name: F#4
Note OFF: Time 79360, Note Name: F#5
Note ON: Time 79360, Note Name: D#5, Velocity: 98
Note ON: Time 79360, Note Name: D#4, Velocity: 98
Note OFF: Time 79440, Note Name: D#4
Note OFF: Time 79440, Note Name: D#5
Note ON: Time 79440, Note Name: C#5, Velocity: 100
Note ON: Time 79440, Note Name: C#4, Velocity: 100
Note OFF: Time 79520, Note Name: C#4
Note OFF: Time 79520, Note Name: C#5
Note ON: Time 79520, Note Name: A#4, Velocity: 101
Note ON: Time 79520, Note Name: A#3, Velocity: 101
Note OFF: Time 79600, Note Name: A#3
Note OFF: Time 79600, Note Name: A#4
Note ON: Time 79600, Note Name: G#4, Velocity: 103
Note ON: Time 79600, Note Name: G#3, Velocity: 103
Note OFF: Time 79680, Note Name: G#3
Note OFF: Time 79680, Note Name: G#4
Note ON: Time 79680, Note Name: F#3, Velocity: 111
Note ON: Time 79680, Note Name: F#4, Velocity: 111
Note OFF: Time 79800, Note Name: F#4
Note OFF: Time 79800, Note Name: F#3
Note ON: Time 80160, Note Name: A#6, Velocity: 118
Note ON: Time 80160, Note Name: F#6, Velocity: 108
Note ON: Time 80160, Note Name: C#6, Velocity: 108
Note ON: Time 80160, Note Name: A#5, Velocity: 108
Note OFF: Time 80640, Note Name: A#5
Note OFF: Time 80640, Note Name: A#6
Note OFF: Time 80640, Note Name: F#6
Note OFF: Time 80640, Note Name: C#6
Note ON: Time 80640, Note Name: F#3, Velocity: 112
Note OFF: Time 81600, Note Name: F#3
Track 2: Piano left
Note ON: Time 1, Note Name: F#3, Velocity: 75
Note ON: Time 1, Note Name: C#4, Velocity: 75
Note ON: Time 1, Note Name: A#3, Velocity: 75
Note ON: Time 1, Note Name: F#4, Velocity: 89
Note OFF: Time 91, Note Name: F#4
Note OFF: Time 91, Note Name: F#3
Note OFF: Time 91, Note Name: C#4
Note OFF: Time 91, Note Name: A#3
Note ON: Time 240, Note Name: F#3, Velocity: 71
Note ON: Time 240, Note Name: D#4, Velocity: 71
Note ON: Time 240, Note Name: B3, Velocity: 71
Note ON: Time 240, Note Name: F#4, Velocity: 84
Note OFF: Time 330, Note Name: F#4
Note OFF: Time 330, Note Name: F#3
Note OFF: Time 330, Note Name: D#4
Note OFF: Time 330, Note Name: B3
Note ON: Time 480, Note Name: F#3, Velocity: 75
Note ON: Time 480, Note Name: C#4, Velocity: 75
Note ON: Time 480, Note Name: A#3, Velocity: 75
Note ON: Time 480, Note Name: F#4, Velocity: 89
Note OFF: Time 570, Note Name: F#4
Note OFF: Time 570, Note Name: F#3
Note OFF: Time 570, Note Name: C#4
Note OFF: Time 570, Note Name: A#3
Note ON: Time 960, Note Name: F#2, Velocity: 48
Note ON: Time 960, Note Name: F#3, Velocity: 57
Note OFF: Time 1050, Note Name: F#3
Note OFF: Time 1050, Note Name: F#2
Note ON: Time 1200, Note Name: F#4, Velocity: 55
Note ON: Time 1200, Note Name: D#4, Velocity: 46
Note ON: Time 1200, Note Name: B3, Velocity: 46
Note OFF: Time 1290, Note Name: B3
Note OFF: Time 1290, Note Name: D#4
Note OFF: Time 1290, Note Name: F#4
Note ON: Time 1440, Note Name: F#4, Velocity: 57
Note ON: Time 1440, Note Name: C#4, Velocity: 48
Note ON: Time 1440, Note Name: A#3, Velocity: 48
Note OFF: Time 1530, Note Name: A#3
Note OFF: Time 1530, Note Name: C#4
Note OFF: Time 1530, Note Name: F#4
Note ON: Time 1920, Note Name: C#2, Velocity: 47
Note ON: Time 1920, Note Name: C#3, Velocity: 56
Note OFF: Time 2010, Note Name: C#3
Note OFF: Time 2010, Note Name: C#2
Note ON: Time 2160, Note Name: F4, Velocity: 60
Note ON: Time 2160, Note Name: C#4, Velocity: 50
Note ON: Time 2160, Note Name: G#3, Velocity: 50
Note OFF: Time 2250, Note Name: G#3
Note OFF: Time 2250, Note Name: C#4
Note OFF: Time 2250, Note Name: F4
Note ON: Time 2400, Note Name: D#4, Velocity: 63
Note ON: Time 2400, Note Name: B3, Velocity: 53
Note ON: Time 2400, Note Name: G#3, Velocity: 53
Note OFF: Time 2490, Note Name: G#3
Note OFF: Time 2490, Note Name: B3
Note OFF: Time 2490, Note Name: D#4
Note ON: Time 2640, Note Name: G#2, Velocity: 68
Note OFF: Time 2730, Note Name: G#2
Note ON: Time 2880, Note Name: C#3, Velocity: 70
Note ON: Time 3120, Note Name: D#4, Velocity: 73
Note ON: Time 3120, Note Name: B3, Velocity: 62
Note ON: Time 3120, Note Name: G#3, Velocity: 62
Note OFF: Time 3360, Note Name: G#3
Note OFF: Time 3360, Note Name: B3
Note OFF: Time 3360, Note Name: D#4
Note ON: Time 3360, Note Name: C#4, Velocity: 78
Note ON: Time 3360, Note Name: B3, Velocity: 64
Note ON: Time 3360, Note Name: G#3, Velocity: 64
Note OFF: Time 3600, Note Name: G#3
Note OFF: Time 3600, Note Name: C#3
Note OFF: Time 3600, Note Name: C#4
Note OFF: Time 3600, Note Name: B3
Note ON: Time 3840, Note Name: A#3, Velocity: 73
Note ON: Time 3840, Note Name: F#4, Velocity: 87
Note ON: Time 3840, Note Name: C#4, Velocity: 73
Note ON: Time 3840, Note Name: F#3, Velocity: 73
Note OFF: Time 3930, Note Name: F#3
Note OFF: Time 3930, Note Name: A#3
Note OFF: Time 3930, Note Name: F#4
Note OFF: Time 3930, Note Name: C#4
Note ON: Time 4080, Note Name: F#4, Velocity: 82
Note ON: Time 4080, Note Name: D#4, Velocity: 69
Note ON: Time 4080, Note Name: B3, Velocity: 69
Note ON: Time 4080, Note Name: F#3, Velocity: 69
Note OFF: Time 4170, Note Name: F#3
Note OFF: Time 4170, Note Name: F#4
Note OFF: Time 4170, Note Name: D#4
Note OFF: Time 4170, Note Name: B3
Note ON: Time 4320, Note Name: F#4, Velocity: 87
Note ON: Time 4320, Note Name: C#4, Velocity: 73
Note ON: Time 4320, Note Name: A#3, Velocity: 73
Note ON: Time 4320, Note Name: F#3, Velocity: 73
Note OFF: Time 4410, Note Name: F#3
Note OFF: Time 4410, Note Name: F#4
Note OFF: Time 4410, Note Name: C#4
Note OFF: Time 4410, Note Name: A#3
Note ON: Time 4800, Note Name: F#2, Velocity: 47
Note ON: Time 4800, Note Name: F#3, Velocity: 56
Note OFF: Time 4890, Note Name: F#3
Note OFF: Time 4890, Note Name: F#2
Note ON: Time 5040, Note Name: F#4, Velocity: 48
Note ON: Time 5040, Note Name: D#4, Velocity: 40
Note ON: Time 5040, Note Name: B3, Velocity: 40
Note OFF: Time 5130, Note Name: B3
Note OFF: Time 5130, Note Name: D#4
Note OFF: Time 5130, Note Name: F#4
Note ON: Time 5280, Note Name: F#4, Velocity: 57
Note ON: Time 5280, Note Name: C#4, Velocity: 48
Note ON: Time 5280, Note Name: A#3, Velocity: 48
Note OFF: Time 5370, Note Name: A#3
Note OFF: Time 5370, Note Name: C#4
Note OFF: Time 5370, Note Name: F#4
Note ON: Time 5760, Note Name: B2, Velocity: 66
Note OFF: Time 6000, Note Name: B2
Note ON: Time 6000, Note Name: D#4, Velocity: 71
Note ON: Time 6000, Note Name: G#3, Velocity: 60
Note OFF: Time 6480, Note Name: G#3
Note OFF: Time 6480, Note Name: D#4
Note ON: Time 6480, Note Name: B2, Velocity: 64
Note OFF: Time 6690, Note Name: B2
Note ON: Time 6690, Note Name: A#2, Velocity: 57
Note ON: Time 6705, Note Name: F3, Velocity: 59
Note ON: Time 6720, Note Name: D4, Velocity: 77
Note OFF: Time 6930, Note Name: D4
Note OFF: Time 6930, Note Name: F3
Note OFF: Time 6930, Note Name: A#2
Note ON: Time 6930, Note Name: A#3, Velocity: 56
Note ON: Time 6945, Note Name: F4, Velocity: 56
Note ON: Time 6960, Note Name: D5, Velocity: 71
Note OFF: Time 7200, Note Name: D5
Note OFF: Time 7200, Note Name: F4
Note OFF: Time 7200, Note Name: A#3
Note ON: Time 7681, Note Name: F#4, Velocity: 86
Note ON: Time 7681, Note Name: C#4, Velocity: 72
Note ON: Time 7681, Note Name: A#3, Velocity: 72
Note ON: Time 7681, Note Name: F#3, Velocity: 72
Note OFF: Time 7771, Note Name: F#3
Note OFF: Time 7771, Note Name: F#4
Note OFF: Time 7771, Note Name: C#4
Note OFF: Time 7771, Note Name: A#3
Note ON: Time 7920, Note Name: F#4, Velocity: 77
Note ON: Time 7920, Note Name: D#4, Velocity: 64
Note ON: Time 7920, Note Name: B3, Velocity: 64
Note ON: Time 7920, Note Name: F#3, Velocity: 64
Note OFF: Time 8010, Note Name: F#3
Note OFF: Time 8010, Note Name: F#4
Note OFF: Time 8010, Note Name: D#4
Note OFF: Time 8010, Note Name: B3
Note ON: Time 8160, Note Name: F#4, Velocity: 86
Note ON: Time 8160, Note Name: C#4, Velocity: 72
Note ON: Time 8160, Note Name: A#3, Velocity: 72
Note ON: Time 8160, Note Name: F#3, Velocity: 72
Note OFF: Time 8250, Note Name: F#3
Note OFF: Time 8250, Note Name: F#4
Note OFF: Time 8250, Note Name: C#4
Note OFF: Time 8250, Note Name: A#3
Note ON: Time 8640, Note Name: F#3, Velocity: 56
Note ON: Time 8640, Note Name: F#2, Velocity: 56
Note OFF: Time 8730, Note Name: F#2
Note OFF: Time 8730, Note Name: F#3
Note ON: Time 8880, Note Name: F#4, Velocity: 48
Note ON: Time 8880, Note Name: D#4, Velocity: 40
Note ON: Time 8880, Note Name: B3, Velocity: 40
Note OFF: Time 8970, Note Name: B3
Note OFF: Time 8970, Note Name: D#4
Note OFF: Time 8970, Note Name: F#4
Note ON: Time 9120, Note Name: F#4, Velocity: 56
Note ON: Time 9120, Note Name: C#4, Velocity: 47
Note ON: Time 9120, Note Name: A#3, Velocity: 47
Note OFF: Time 9210, Note Name: A#3
Note OFF: Time 9210, Note Name: C#4
Note OFF: Time 9210, Note Name: F#4
Note ON: Time 9600, Note Name: C#2, Velocity: 51
Note ON: Time 9600, Note Name: C#3, Velocity: 61
Note OFF: Time 9690, Note Name: C#3
Note OFF: Time 9690, Note Name: C#2
Note ON: Time 9840, Note Name: F4, Velocity: 61
Note ON: Time 9840, Note Name: C#4, Velocity: 51
Note ON: Time 9840, Note Name: G#3, Velocity: 51
Note OFF: Time 9930, Note Name: G#3
Note OFF: Time 9930, Note Name: C#4
Note OFF: Time 9930, Note Name: F4
Note ON: Time 10080, Note Name: D#4, Velocity: 62
Note ON: Time 10080, Note Name: B3, Velocity: 52
Note ON: Time 10080, Note Name: G#3, Velocity: 52
Note OFF: Time 10170, Note Name: G#3
Note OFF: Time 10170, Note Name: B3
Note OFF: Time 10170, Note Name: D#4
Note ON: Time 10320, Note Name: G#2, Velocity: 66
Note OFF: Time 10410, Note Name: G#2
Note ON: Time 10560, Note Name: C#3, Velocity: 70
Note ON: Time 10800, Note Name: D#4, Velocity: 73
Note ON: Time 10800, Note Name: B3, Velocity: 62
Note ON: Time 10800, Note Name: G#3, Velocity: 62
Note OFF: Time 11040, Note Name: G#3
Note OFF: Time 11040, Note Name: B3
Note OFF: Time 11040, Note Name: D#4
Note ON: Time 11040, Note Name: C#4, Velocity: 78
Note ON: Time 11040, Note Name: B3, Velocity: 64
Note ON: Time 11040, Note Name: G#3, Velocity: 64
Note OFF: Time 11280, Note Name: G#3
Note OFF: Time 11280, Note Name: C#3
Note OFF: Time 11280, Note Name: C#4
Note OFF: Time 11280, Note Name: B3
Note ON: Time 11520, Note Name: F#4, Velocity: 87
Note ON: Time 11520, Note Name: A#3, Velocity: 73
Note ON: Time 11520, Note Name: C#4, Velocity: 73
Note ON: Time 11520, Note Name: F#3, Velocity: 73
Note OFF: Time 11610, Note Name: F#3
Note OFF: Time 11610, Note Name: F#4
Note OFF: Time 11610, Note Name: A#3
Note OFF: Time 11610, Note Name: C#4
Note ON: Time 11760, Note Name: F#3, Velocity: 69
Note ON: Time 11760, Note Name: D#4, Velocity: 69
Note ON: Time 11760, Note Name: B3, Velocity: 69
Note ON: Time 11760, Note Name: F#4, Velocity: 81
Note OFF: Time 11850, Note Name: F#4
Note OFF: Time 11850, Note Name: F#3
Note OFF: Time 11850, Note Name: D#4
Note OFF: Time 11850, Note Name: B3
Note ON: Time 12000, Note Name: F#3, Velocity: 73
Note ON: Time 12000, Note Name: C#4, Velocity: 73
Note ON: Time 12000, Note Name: A#3, Velocity: 73
Note ON: Time 12000, Note Name: F#4, Velocity: 87
Note OFF: Time 12090, Note Name: F#4
Note OFF: Time 12090, Note Name: F#3
Note OFF: Time 12090, Note Name: C#4
Note OFF: Time 12090, Note Name: A#3
Note ON: Time 12480, Note Name: F#2, Velocity: 47
Note ON: Time 12480, Note Name: F#3, Velocity: 56
Note OFF: Time 12570, Note Name: F#3
Note OFF: Time 12570, Note Name: F#2
Note ON: Time 12720, Note Name: B3, Velocity: 42
Note ON: Time 12720, Note Name: F#4, Velocity: 50
Note ON: Time 12720, Note Name: D#4, Velocity: 42
Note OFF: Time 12810, Note Name: D#4
Note OFF: Time 12810, Note Name: F#4
Note OFF: Time 12810, Note Name: B3
Note ON: Time 12960, Note Name: F#4, Velocity: 56
Note ON: Time 12960, Note Name: C#4, Velocity: 47
Note ON: Time 12960, Note Name: A#3, Velocity: 47
Note OFF: Time 13050, Note Name: A#3
Note OFF: Time 13050, Note Name: C#4
Note OFF: Time 13050, Note Name: F#4
Note ON: Time 13440, Note Name: C3, Velocity: 62
Note OFF: Time 13560, Note Name: C3
Note ON: Time 13680, Note Name: D#4, Velocity: 68
Note ON: Time 13680, Note Name: G#3, Velocity: 56
Note OFF: Time 14160, Note Name: G#3
Note OFF: Time 14160, Note Name: D#4
Note ON: Time 14160, Note Name: G#2, Velocity: 64
Note OFF: Time 14280, Note Name: G#2
Note ON: Time 14400, Note Name: C#3, Velocity: 78
Note OFF: Time 14520, Note Name: C#3
Note ON: Time 14640, Note Name: F4, Velocity: 71
Note ON: Time 14640, Note Name: G#3, Velocity: 60
Note OFF: Time 14760, Note Name: G#3
Note OFF: Time 14760, Note Name: F4
Note ON: Time 15360, Note Name: C4, Velocity: 52
Note ON: Time 15360, Note Name: G#4, Velocity: 62
Note ON: Time 15360, Note Name: F#4, Velocity: 52
Note OFF: Time 15600, Note Name: F#4
Note OFF: Time 15600, Note Name: G#4
Note OFF: Time 15600, Note Name: C4
Note ON: Time 15600, Note Name: G#3, Velocity: 50
Note ON: Time 15600, Note Name: G#4, Velocity: 60
Note ON: Time 15600, Note Name: F#4, Velocity: 50
Note OFF: Time 15840, Note Name: F#4
Note OFF: Time 15840, Note Name: G#4
Note OFF: Time 15840, Note Name: G#3
Note ON: Time 15840, Note Name: C#4, Velocity: 56
Note ON: Time 15840, Note Name: F4, Velocity: 56
Note ON: Time 15840, Note Name: A#4, Velocity: 68
Note OFF: Time 16080, Note Name: A#4
Note OFF: Time 16080, Note Name: F4
Note OFF: Time 16080, Note Name: C#4
Note ON: Time 16080, Note Name: G#3, Velocity: 48
Note ON: Time 16080, Note Name: F4, Velocity: 48
Note ON: Time 16080, Note Name: G#4, Velocity: 59
Note OFF: Time 16320, Note Name: G#4
Note OFF: Time 16320, Note Name: F4
Note OFF: Time 16320, Note Name: G#3
Note ON: Time 16320, Note Name: C4, Velocity: 52
Note ON: Time 16320, Note Name: F#4, Velocity: 52
Note ON: Time 16320, Note Name: A#4, Velocity: 62
Note OFF: Time 16560, Note Name: A#4
Note OFF: Time 16560, Note Name: F#4
Note OFF: Time 16560, Note Name: C4
Note ON: Time 16560, Note Name: G#3, Velocity: 48
Note ON: Time 16560, Note Name: G#4, Velocity: 59
Note ON: Time 16560, Note Name: F#4, Velocity: 59
Note OFF: Time 16800, Note Name: F#4
Note OFF: Time 16800, Note Name: G#4
Note OFF: Time 16800, Note Name: G#3
Note ON: Time 16800, Note Name: C#4, Velocity: 56
Note ON: Time 16800, Note Name: F4, Velocity: 68
Note OFF: Time 17040, Note Name: F4
Note OFF: Time 17040, Note Name: C#4
Note ON: Time 17040, Note Name: G#3, Velocity: 60
Note OFF: Time 17280, Note Name: G#3
Note ON: Time 17280, Note Name: C3, Velocity: 62
Note OFF: Time 17400, Note Name: C3
Note ON: Time 17520, Note Name: F#4, Velocity: 68
Note ON: Time 17520, Note Name: D#4, Velocity: 56
Note ON: Time 17520, Note Name: G#3, Velocity: 56
Note OFF: Time 17640, Note Name: G#3
Note OFF: Time 17640, Note Name: D#4
Note OFF: Time 17640, Note Name: F#4
Note ON: Time 17760, Note Name: F4, Velocity: 63
Note ON: Time 17760, Note Name: C#4, Velocity: 53
Note ON: Time 17760, Note Name: G#3, Velocity: 53
Note OFF: Time 17880, Note Name: G#3
Note OFF: Time 17880, Note Name: C#4
Note OFF: Time 17880, Note Name: F4
Note ON: Time 18000, Note Name: C#3, Velocity: 62
Note OFF: Time 18120, Note Name: C#3
Note ON: Time 18240, Note Name: G#2, Velocity: 62
Note OFF: Time 18360, Note Name: G#2
Note ON: Time 18480, Note Name: F#4, Velocity: 57
Note ON: Time 18480, Note Name: C4, Velocity: 48
Note ON: Time 18480, Note Name: G#3, Velocity: 48
Note OFF: Time 18600, Note Name: G#3
Note OFF: Time 18600, Note Name: C4
Note OFF: Time 18600, Note Name: F#4
Note ON: Time 18720, Note Name: C#2, Velocity: 62
Note OFF: Time 18840, Note Name: C#2
Note ON: Time 18960, Note Name: F4, Velocity: 60
Note ON: Time 18960, Note Name: C#4, Velocity: 50
Note ON: Time 18960, Note Name: G#3, Velocity: 50
Note OFF: Time 19080, Note Name: G#3
Note OFF: Time 19080, Note Name: C#4
Note OFF: Time 19080, Note Name: F4
Note ON: Time 19200, Note Name: G#2, Velocity: 62
Note OFF: Time 19440, Note Name: G#2
Note ON: Time 19440, Note Name: C4, Velocity: 50
Note ON: Time 19440, Note Name: G#4, Velocity: 60
Note ON: Time 19440, Note Name: F#4, Velocity: 50
Note OFF: Time 19680, Note Name: F#4
Note OFF: Time 19680, Note Name: G#4
Note OFF: Time 19680, Note Name: C4
Note ON: Time 19680, Note Name: C#4, Velocity: 56
Note ON: Time 19680, Note Name: F4, Velocity: 56
Note ON: Time 19680, Note Name: A#4, Velocity: 68
Note OFF: Time 19920, Note Name: A#4
Note OFF: Time 19920, Note Name: F4
Note OFF: Time 19920, Note Name: C#4
Note ON: Time 19920, Note Name: G#3, Velocity: 50
Note ON: Time 19920, Note Name: F4, Velocity: 50
Note ON: Time 19920, Note Name: G#4, Velocity: 60
Note OFF: Time 20160, Note Name: G#4
Note OFF: Time 20160, Note Name: F4
Note OFF: Time 20160, Note Name: G#3
Note ON: Time 20160, Note Name: C4, Velocity: 56
Note ON: Time 20160, Note Name: F#4, Velocity: 56
Note ON: Time 20160, Note Name: A#4, Velocity: 68
Note OFF: Time 20400, Note Name: A#4
Note OFF: Time 20400, Note Name: F#4
Note OFF: Time 20400, Note Name: C4
Note ON: Time 20400, Note Name: G#3, Velocity: 52
Note ON: Time 20400, Note Name: G#4, Velocity: 62
Note ON: Time 20400, Note Name: F#4, Velocity: 52
Note OFF: Time 20640, Note Name: F#4
Note OFF: Time 20640, Note Name: G#4
Note OFF: Time 20640, Note Name: G#3
Note ON: Time 20640, Note Name: C#4, Velocity: 55
Note ON: Time 20640, Note Name: F4, Velocity: 64
Note OFF: Time 20880, Note Name: F4
Note OFF: Time 20880, Note Name: C#4
Note ON: Time 20880, Note Name: G#3, Velocity: 62
Note OFF: Time 21120, Note Name: G#3
Note ON: Time 21120, Note Name: C3, Velocity: 68
Note OFF: Time 21240, Note Name: C3
Note ON: Time 21360, Note Name: F#4, Velocity: 62
Note ON: Time 21360, Note Name: D#4, Velocity: 52
Note ON: Time 21366, Note Name: G#3, Velocity: 52
Note OFF: Time 21480, Note Name: D#4
Note OFF: Time 21480, Note Name: F#4
Note OFF: Time 21486, Note Name: G#3
Note ON: Time 21840, Note Name: C2, Velocity: 70
Note OFF: Time 22080, Note Name: C2
Note ON: Time 22080, Note Name: C3, Velocity: 72
Note OFF: Time 22200, Note Name: C3
Note ON: Time 22320, Note Name: D#4, Velocity: 57
Note ON: Time 22320, Note Name: G#3, Velocity: 57
Note ON: Time 22320, Note Name: F#4, Velocity: 69
Note OFF: Time 22440, Note Name: F#4
Note OFF: Time 22440, Note Name: G#3
Note OFF: Time 22440, Note Name: D#4
Note ON: Time 22800, Note Name: C2, Velocity: 59
Note ON: Time 22800, Note Name: C3, Velocity: 70
Note OFF: Time 23040, Note Name: C3
Note OFF: Time 23040, Note Name: C2
Note ON: Time 23040, Note Name: C#2, Velocity: 63
Note ON: Time 23040, Note Name: C#3, Velocity: 77
Note OFF: Time 23160, Note Name: C#3
Note OFF: Time 23160, Note Name: C#2
Note ON: Time 23280, Note Name: F#4, Velocity: 73
Note ON: Time 23280, Note Name: C#4, Velocity: 62
Note ON: Time 23280, Note Name: A#3, Velocity: 62
Note OFF: Time 23520, Note Name: A#3
Note OFF: Time 23520, Note Name: C#4
Note OFF: Time 23520, Note Name: F#4
Note ON: Time 23520, Note Name: C2, Velocity: 62
Note ON: Time 23520, Note Name: C3, Velocity: 73
Note OFF: Time 23760, Note Name: C3
Note OFF: Time 23760, Note Name: C2
Note ON: Time 23760, Note Name: C#2, Velocity: 61
Note ON: Time 23760, Note Name: C#3, Velocity: 72
Note OFF: Time 24000, Note Name: C#3
Note OFF: Time 24000, Note Name: C#2
Note ON: Time 24000, Note Name: D2, Velocity: 69
Note ON: Time 24000, Note Name: D3, Velocity: 81
Note OFF: Time 24240, Note Name: D3
Note OFF: Time 24240, Note Name: D2
Note ON: Time 24240, Note Name: F#4, Velocity: 77
Note ON: Time 24240, Note Name: A#3, Velocity: 63
Note OFF: Time 24480, Note Name: A#3
Note OFF: Time 24480, Note Name: F#4
Note ON: Time 24480, Note Name: C#2, Velocity: 64
Note ON: Time 24480, Note Name: C#3, Velocity: 78
Note OFF: Time 24720, Note Name: C#3
Note OFF: Time 24720, Note Name: C#2
Note ON: Time 24720, Note Name: D2, Velocity: 63
Note ON: Time 24720, Note Name: D3, Velocity: 75
Note OFF: Time 24960, Note Name: D3
Note OFF: Time 24960, Note Name: D2
Note ON: Time 24960, Note Name: D#2, Velocity: 70
Note ON: Time 24960, Note Name: D#3, Velocity: 82
Note OFF: Time 25200, Note Name: D#3
Note OFF: Time 25200, Note Name: D#2
Note ON: Time 25200, Note Name: F#4, Velocity: 80
Note ON: Time 25200, Note Name: A#3, Velocity: 68
Note OFF: Time 25680, Note Name: A#3
Note OFF: Time 25680, Note Name: F#4
Note ON: Time 25680, Note Name: D#2, Velocity: 69
Note ON: Time 25680, Note Name: D#3, Velocity: 81
Note OFF: Time 25920, Note Name: D#3
Note OFF: Time 25920, Note Name: D#2
Note ON: Time 25920, Note Name: E2, Velocity: 73
Note ON: Time 25920, Note Name: E3, Velocity: 88
Note OFF: Time 26160, Note Name: E3
Note OFF: Time 26160, Note Name: E2
Note ON: Time 26160, Note Name: F#4, Velocity: 84
Note ON: Time 26160, Note Name: A#3, Velocity: 70
Note OFF: Time 26640, Note Name: A#3
Note OFF: Time 26640, Note Name: F#4
Note ON: Time 26640, Note Name: E2, Velocity: 71
Note ON: Time 26640, Note Name: E3, Velocity: 85
Note OFF: Time 26880, Note Name: E3
Note OFF: Time 26880, Note Name: E2
Note ON: Time 26880, Note Name: F2, Velocity: 78
Note ON: Time 26880, Note Name: F3, Velocity: 91
Note OFF: Time 27000, Note Name: F3
Note OFF: Time 27000, Note Name: F2
Note ON: Time 27120, Note Name: F4, Velocity: 88
Note ON: Time 27120, Note Name: C#4, Velocity: 73
Note ON: Time 27120, Note Name: A#3, Velocity: 73
Note OFF: Time 27360, Note Name: A#3
Note OFF: Time 27360, Note Name: C#4
Note OFF: Time 27360, Note Name: F4
Note ON: Time 27360, Note Name: E2, Velocity: 77
Note ON: Time 27360, Note Name: E3, Velocity: 90
Note OFF: Time 27600, Note Name: E3
Note OFF: Time 27600, Note Name: E2
Note ON: Time 27600, Note Name: F2, Velocity: 77
Note ON: Time 27600, Note Name: F3, Velocity: 90
Note OFF: Time 27840, Note Name: F3
Note OFF: Time 27840, Note Name: F2
Note ON: Time 27840, Note Name: F#2, Velocity: 82
Note ON: Time 27840, Note Name: F#3, Velocity: 97
Note OFF: Time 27960, Note Name: F#3
Note OFF: Time 27960, Note Name: F#2
Note ON: Time 28080, Note Name: C#4, Velocity: 79
Note ON: Time 28080, Note Name: E4, Velocity: 94
Note ON: Time 28080, Note Name: A#3, Velocity: 79
Note OFF: Time 28200, Note Name: A#3
Note OFF: Time 28200, Note Name: E4
Note OFF: Time 28200, Note Name: C#4
Note ON: Time 28320, Note Name: F2, Velocity: 80
Note ON: Time 28320, Note Name: F3, Velocity: 95
Note OFF: Time 28560, Note Name: F3
Note OFF: Time 28560, Note Name: F2
Note ON: Time 28560, Note Name: F#2, Velocity: 78
Note ON: Time 28560, Note Name: F#3, Velocity: 91
Note OFF: Time 28800, Note Name: F#3
Note OFF: Time 28800, Note Name: F#2
Note ON: Time 28800, Note Name: G2, Velocity: 89
Note ON: Time 28800, Note Name: G3, Velocity: 105
Note OFF: Time 29040, Note Name: G3
Note OFF: Time 29040, Note Name: G2
Note ON: Time 29040, Note Name: E4, Velocity: 96
Note ON: Time 29040, Note Name: C#4, Velocity: 81
Note ON: Time 29040, Note Name: G3, Velocity: 81
Note OFF: Time 29280, Note Name: G3
Note OFF: Time 29280, Note Name: C#4
Note OFF: Time 29280, Note Name: E4
Note ON: Time 29280, Note Name: G#2, Velocity: 81
Note ON: Time 29280, Note Name: G#3, Velocity: 96
Note OFF: Time 29520, Note Name: G#3
Note OFF: Time 29520, Note Name: G#2
Note ON: Time 29520, Note Name: F4, Velocity: 96
Note ON: Time 29520, Note Name: C#4, Velocity: 81
Note ON: Time 29520, Note Name: G#3, Velocity: 81
Note OFF: Time 29760, Note Name: G#3
Note OFF: Time 29760, Note Name: C#4
Note OFF: Time 29760, Note Name: F4
Note ON: Time 29760, Note Name: A2, Velocity: 86
Note ON: Time 29760, Note Name: A3, Velocity: 103
Note OFF: Time 30000, Note Name: A3
Note OFF: Time 30000, Note Name: A2
Note ON: Time 30000, Note Name: F#4, Velocity: 94
Note ON: Time 30000, Note Name: D#4, Velocity: 79
Note ON: Time 30000, Note Name: A3, Velocity: 79
Note OFF: Time 30240, Note Name: A3
Note OFF: Time 30240, Note Name: D#4
Note OFF: Time 30240, Note Name: F#4
Note ON: Time 30480, Note Name: A1, Velocity: 89
Note ON: Time 30480, Note Name: A2, Velocity: 106
Note OFF: Time 30720, Note Name: A2
Note OFF: Time 30720, Note Name: A1
Note ON: Time 30720, Note Name: G#1, Velocity: 89
Note ON: Time 30720, Note Name: G#2, Velocity: 106
Note OFF: Time 31680, Note Name: G#2
Note OFF: Time 31680, Note Name: G#1
Note ON: Time 32160, Note Name: F#4, Velocity: 100
Note ON: Time 32160, Note Name: C#4, Velocity: 83
Note ON: Time 32160, Note Name: G#3, Velocity: 83
Note OFF: Time 32520, Note Name: G#3
Note OFF: Time 32520, Note Name: C#4
Note OFF: Time 32520, Note Name: F#4
Note ON: Time 32520, Note Name: F#4, Velocity: 92
Note ON: Time 32520, Note Name: C#4, Velocity: 77
Note ON: Time 32520, Note Name: G#3, Velocity: 77
Note OFF: Time 32640, Note Name: G#3
Note OFF: Time 32640, Note Name: C#4
Note OFF: Time 32640, Note Name: F#4
Note ON: Time 32640, Note Name: G#3, Velocity: 83
Note ON: Time 32640, Note Name: F#4, Velocity: 100
Note ON: Time 32640, Note Name: C#4, Velocity: 83
Note OFF: Time 33600, Note Name: C#4
Note OFF: Time 33600, Note Name: F#4
Note OFF: Time 33600, Note Name: G#3
Note ON: Time 34560, Note Name: G#1, Velocity: 52
Note ON: Time 34560, Note Name: G#2, Velocity: 62
Note OFF: Time 35520, Note Name: G#2
Note OFF: Time 35520, Note Name: G#1
Note ON: Time 36000, Note Name: G#3, Velocity: 52
Note ON: Time 36000, Note Name: F#4, Velocity: 52
Note ON: Time 36000, Note Name: C4, Velocity: 52
Note ON: Time 36000, Note Name: G#4, Velocity: 62
Note OFF: Time 36360, Note Name: G#4
Note OFF: Time 36360, Note Name: G#3
Note OFF: Time 36360, Note Name: F#4
Note OFF: Time 36360, Note Name: C4
Note ON: Time 36360, Note Name: G#4, Velocity: 57
Note ON: Time 36360, Note Name: F#4, Velocity: 48
Note ON: Time 36360, Note Name: C4, Velocity: 48
Note ON: Time 36360, Note Name: G#3, Velocity: 48
Note OFF: Time 36480, Note Name: G#3
Note OFF: Time 36480, Note Name: G#4
Note OFF: Time 36480, Note Name: F#4
Note OFF: Time 36480, Note Name: C4
Note ON: Time 36480, Note Name: G#4, Velocity: 62
Note ON: Time 36480, Note Name: F#4, Velocity: 52
Note ON: Time 36480, Note Name: C4, Velocity: 52
Note ON: Time 36480, Note Name: G#3, Velocity: 52
Note OFF: Time 37440, Note Name: G#3
Note OFF: Time 37440, Note Name: G#4
Note OFF: Time 37440, Note Name: F#4
Note OFF: Time 37440, Note Name: C4
Note ON: Time 38400, Note Name: C#2, Velocity: 63
Note OFF: Time 38520, Note Name: C#2
Note ON: Time 38880, Note Name: F4, Velocity: 70
Note ON: Time 38880, Note Name: G#3, Velocity: 59
Note OFF: Time 39840, Note Name: G#3
Note OFF: Time 39840, Note Name: F4
Note ON: Time 39840, Note Name: E4, Velocity: 63
Note ON: Time 39840, Note Name: G3, Velocity: 53
Note OFF: Time 40200, Note Name: G3
Note OFF: Time 40200, Note Name: E4
Note ON: Time 40200, Note Name: F4, Velocity: 63
Note ON: Time 40200, Note Name: G#3, Velocity: 53
Note OFF: Time 40320, Note Name: G#3
Note OFF: Time 40320, Note Name: F4
Note ON: Time 40320, Note Name: C#3, Velocity: 63
Note OFF: Time 40440, Note Name: C#3
Note ON: Time 40800, Note Name: F4, Velocity: 72
Note ON: Time 40800, Note Name: G#3, Velocity: 61
Note OFF: Time 41760, Note Name: G#3
Note OFF: Time 41760, Note Name: F4
Note ON: Time 41760, Note Name: E4, Velocity: 75
Note ON: Time 41760, Note Name: G3, Velocity: 63
Note OFF: Time 42120, Note Name: G3
Note OFF: Time 42120, Note Name: E4
Note ON: Time 42120, Note Name: G#3, Velocity: 57
Note ON: Time 42120, Note Name: F4, Velocity: 69
Note OFF: Time 42240, Note Name: F4
Note OFF: Time 42240, Note Name: G#3
Note ON: Time 42240, Note Name: F3, Velocity: 77
Note OFF: Time 42360, Note Name: F3
Note ON: Time 42480, Note Name: F4, Velocity: 63
Note ON: Time 42480, Note Name: G#3, Velocity: 53
Note ON: Time 42480, Note Name: C#4, Velocity: 53
Note OFF: Time 42720, Note Name: C#4
Note OFF: Time 42720, Note Name: G#3
Note OFF: Time 42720, Note Name: F4
Note ON: Time 42720, Note Name: A3, Velocity: 59
Note ON: Time 42720, Note Name: C#4, Velocity: 59
Note ON: Time 42720, Note Name: F#4, Velocity: 70
Note OFF: Time 42960, Note Name: F#4
Note OFF: Time 42960, Note Name: C#4
Note OFF: Time 42960, Note Name: A3
Note ON: Time 42960, Note Name: A#3, Velocity: 62
Note ON: Time 42960, Note Name: C#4, Velocity: 62
Note ON: Time 42960, Note Name: G4, Velocity: 75
Note OFF: Time 43200, Note Name: G4
Note OFF: Time 43200, Note Name: C#4
Note OFF: Time 43200, Note Name: A#3
Note ON: Time 43200, Note Name: B3, Velocity: 70
Note ON: Time 43200, Note Name: C#4, Velocity: 70
Note ON: Time 43200, Note Name: G#4, Velocity: 84
Note OFF: Time 43680, Note Name: G#4
Note OFF: Time 43680, Note Name: C#4
Note OFF: Time 43680, Note Name: B3
Note ON: Time 43680, Note Name: A#3, Velocity: 64
Note ON: Time 43680, Note Name: C#4, Velocity: 64
Note ON: Time 43680, Note Name: G4, Velocity: 77
Note OFF: Time 43920, Note Name: G4
Note OFF: Time 43920, Note Name: C#4
Note OFF: Time 43920, Note Name: A#3
Note ON: Time 43920, Note Name: A3, Velocity: 61
Note ON: Time 43920, Note Name: C#4, Velocity: 61
Note ON: Time 43920, Note Name: F#4, Velocity: 72
Note OFF: Time 44160, Note Name: F#4
Note OFF: Time 44160, Note Name: C#4
Note OFF: Time 44160, Note Name: A3
Note ON: Time 44160, Note Name: G#3, Velocity: 57
Note ON: Time 44160, Note Name: C#4, Velocity: 57
Note ON: Time 44160, Note Name: F4, Velocity: 69
Note OFF: Time 44280, Note Name: F4
Note OFF: Time 44280, Note Name: C#4
Note OFF: Time 44280, Note Name: G#3
Note ON: Time 44400, Note Name: C#3, Velocity: 63
Note OFF: Time 44520, Note Name: C#3
Note ON: Time 44640, Note Name: B3, Velocity: 56
Note ON: Time 44640, Note Name: C#4, Velocity: 56
Note ON: Time 44640, Note Name: F4, Velocity: 56
Note ON: Time 44640, Note Name: G#4, Velocity: 66
Note OFF: Time 44880, Note Name: G#4
Note ON: Time 44880, Note Name: A#4, Velocity: 71
Note OFF: Time 45120, Note Name: A#4
Note OFF: Time 45120, Note Name: F4
Note OFF: Time 45120, Note Name: C#4
Note OFF: Time 45120, Note Name: B3
Note ON: Time 45120, Note Name: B3, Velocity: 64
Note ON: Time 45120, Note Name: C#4, Velocity: 64
Note ON: Time 45120, Note Name: F4, Velocity: 64
Note ON: Time 45120, Note Name: B4, Velocity: 77
Note OFF: Time 45600, Note Name: B4
Note ON: Time 45600, Note Name: A#4, Velocity: 72
Note OFF: Time 45840, Note Name: A#4
Note ON: Time 45840, Note Name: G#4, Velocity: 71
Note OFF: Time 46080, Note Name: G#4
Note OFF: Time 46080, Note Name: B3
Note OFF: Time 46080, Note Name: C#4
Note OFF: Time 46080, Note Name: F4
Note ON: Time 46081, Note Name: F#3, Velocity: 73
Note ON: Time 46081, Note Name: F#4, Velocity: 87
Note ON: Time 46081, Note Name: C#4, Velocity: 73
Note ON: Time 46081, Note Name: A#3, Velocity: 73
Note OFF: Time 46171, Note Name: A#3
Note OFF: Time 46171, Note Name: F#3
Note OFF: Time 46171, Note Name: F#4
Note OFF: Time 46171, Note Name: C#4
Note ON: Time 46320, Note Name: D#4, Velocity: 70
Note ON: Time 46320, Note Name: B3, Velocity: 70
Note ON: Time 46320, Note Name: F#3, Velocity: 70
Note ON: Time 46320, Note Name: F#4, Velocity: 83
Note OFF: Time 46410, Note Name: F#4
Note OFF: Time 46410, Note Name: D#4
Note OFF: Time 46410, Note Name: B3
Note OFF: Time 46410, Note Name: F#3
Note ON: Time 46560, Note Name: C#4, Velocity: 73
Note ON: Time 46560, Note Name: F#4, Velocity: 87
Note ON: Time 46560, Note Name: A#3, Velocity: 73
Note ON: Time 46560, Note Name: F#3, Velocity: 73
Note OFF: Time 46650, Note Name: F#3
Note OFF: Time 46650, Note Name: C#4
Note OFF: Time 46650, Note Name: F#4
Note OFF: Time 46650, Note Name: A#3
Note ON: Time 47040, Note Name: F#2, Velocity: 47
Note ON: Time 47040, Note Name: F#3, Velocity: 56
Note OFF: Time 47130, Note Name: F#3
Note OFF: Time 47130, Note Name: F#2
Note ON: Time 47280, Note Name: F#4, Velocity: 51
Note ON: Time 47280, Note Name: D#4, Velocity: 42
Note ON: Time 47280, Note Name: B3, Velocity: 42
Note OFF: Time 47370, Note Name: B3
Note OFF: Time 47370, Note Name: D#4
Note OFF: Time 47370, Note Name: F#4
Note ON: Time 47520, Note Name: F#4, Velocity: 56
Note ON: Time 47520, Note Name: C#4, Velocity: 47
Note ON: Time 47520, Note Name: A#3, Velocity: 47
Note OFF: Time 47610, Note Name: A#3
Note OFF: Time 47610, Note Name: C#4
Note OFF: Time 47610, Note Name: F#4
Note ON: Time 48000, Note Name: C#2, Velocity: 48
Note ON: Time 48000, Note Name: C#3, Velocity: 59
Note OFF: Time 48090, Note Name: C#3
Note OFF: Time 48090, Note Name: C#2
Note ON: Time 48240, Note Name: C#4, Velocity: 48
Note ON: Time 48240, Note Name: F4, Velocity: 59
Note ON: Time 48240, Note Name: G#3, Velocity: 48
Note OFF: Time 48330, Note Name: G#3
Note OFF: Time 48330, Note Name: F4
Note OFF: Time 48330, Note Name: C#4
Note ON: Time 48480, Note Name: B3, Velocity: 50
Note ON: Time 48480, Note Name: D#4, Velocity: 60
Note ON: Time 48480, Note Name: G#3, Velocity: 50
Note OFF: Time 48570, Note Name: G#3
Note OFF: Time 48570, Note Name: D#4
Note OFF: Time 48570, Note Name: B3
Note ON: Time 48720, Note Name: G#2, Velocity: 62
Note OFF: Time 48810, Note Name: G#2
Note ON: Time 48960, Note Name: C#3, Velocity: 66
Note ON: Time 49200, Note Name: D#4, Velocity: 70
Note ON: Time 49200, Note Name: B3, Velocity: 59
Note ON: Time 49200, Note Name: G#3, Velocity: 59
Note OFF: Time 49440, Note Name: G#3
Note OFF: Time 49440, Note Name: B3
Note OFF: Time 49440, Note Name: D#4
Note ON: Time 49440, Note Name: C#4, Velocity: 73
Note ON: Time 49440, Note Name: B3, Velocity: 62
Note ON: Time 49440, Note Name: G#3, Velocity: 62
Note OFF: Time 49680, Note Name: G#3
Note OFF: Time 49680, Note Name: C#3
Note OFF: Time 49680, Note Name: C#4
Note OFF: Time 49680, Note Name: B3
Note ON: Time 49920, Note Name: F#3, Velocity: 73
Note ON: Time 49920, Note Name: A#3, Velocity: 73
Note ON: Time 49920, Note Name: C#4, Velocity: 73
Note ON: Time 49920, Note Name: F#4, Velocity: 87
Note OFF: Time 50010, Note Name: F#4
Note OFF: Time 50010, Note Name: F#3
Note OFF: Time 50010, Note Name: A#3
Note OFF: Time 50010, Note Name: C#4
Note ON: Time 50160, Note Name: F#4, Velocity: 82
Note ON: Time 50160, Note Name: D#4, Velocity: 69
Note ON: Time 50160, Note Name: B3, Velocity: 69
Note ON: Time 50160, Note Name: F#3, Velocity: 69
Note OFF: Time 50250, Note Name: F#3
Note OFF: Time 50250, Note Name: F#4
Note OFF: Time 50250, Note Name: D#4
Note OFF: Time 50250, Note Name: B3
Note ON: Time 50400, Note Name: C#4, Velocity: 73
Note ON: Time 50400, Note Name: F#4, Velocity: 87
Note ON: Time 50400, Note Name: A#3, Velocity: 73
Note ON: Time 50400, Note Name: F#3, Velocity: 73
Note OFF: Time 50490, Note Name: F#3
Note OFF: Time 50490, Note Name: C#4
Note OFF: Time 50490, Note Name: F#4
Note OFF: Time 50490, Note Name: A#3
Note ON: Time 50880, Note Name: F#2, Velocity: 48
Note ON: Time 50880, Note Name: F#3, Velocity: 59
Note OFF: Time 50970, Note Name: F#3
Note OFF: Time 50970, Note Name: F#2
Note ON: Time 51120, Note Name: F#4, Velocity: 55
Note ON: Time 51120, Note Name: D#4, Velocity: 46
Note ON: Time 51120, Note Name: B3, Velocity: 46
Note OFF: Time 51210, Note Name: B3
Note OFF: Time 51210, Note Name: D#4
Note OFF: Time 51210, Note Name: F#4
Note ON: Time 51360, Note Name: F#4, Velocity: 59
Note ON: Time 51360, Note Name: C#4, Velocity: 48
Note ON: Time 51360, Note Name: A#3, Velocity: 48
Note OFF: Time 51450, Note Name: A#3
Note OFF: Time 51450, Note Name: C#4
Note OFF: Time 51450, Note Name: F#4
Note ON: Time 51840, Note Name: B2, Velocity: 66
Note OFF: Time 51960, Note Name: B2
Note ON: Time 52080, Note Name: D#4, Velocity: 66
Note ON: Time 52080, Note Name: G#3, Velocity: 56
Note OFF: Time 52320, Note Name: G#3
Note OFF: Time 52320, Note Name: D#4
Note ON: Time 52320, Note Name: F3, Velocity: 59
Note ON: Time 52320, Note Name: A#3, Velocity: 59
Note ON: Time 52320, Note Name: D4, Velocity: 70
Note OFF: Time 52560, Note Name: D4
Note OFF: Time 52560, Note Name: A#3
Note OFF: Time 52560, Note Name: F3
Note ON: Time 52560, Note Name: A#2, Velocity: 66
Note OFF: Time 52800, Note Name: A#2
Note ON: Time 52800, Note Name: B2, Velocity: 66
Note OFF: Time 52920, Note Name: B2
Note ON: Time 53040, Note Name: D#4, Velocity: 66
Note ON: Time 53040, Note Name: G#3, Velocity: 56
Note OFF: Time 53280, Note Name: G#3
Note OFF: Time 53280, Note Name: D#4
Note ON: Time 53280, Note Name: F3, Velocity: 62
Note ON: Time 53280, Note Name: A#3, Velocity: 62
Note ON: Time 53280, Note Name: D4, Velocity: 73
Note OFF: Time 53520, Note Name: D4
Note OFF: Time 53520, Note Name: A#3
Note OFF: Time 53520, Note Name: F3
Note ON: Time 53520, Note Name: A#2, Velocity: 69
Note OFF: Time 53640, Note Name: A#2
Note ON: Time 53760, Note Name: B2, Velocity: 80
Note OFF: Time 53880, Note Name: B2
Note ON: Time 54000, Note Name: G#4, Velocity: 69
Note ON: Time 54000, Note Name: B3, Velocity: 57
Note ON: Time 54000, Note Name: D#4, Velocity: 57
Note OFF: Time 54120, Note Name: D#4
Note OFF: Time 54120, Note Name: B3
Note OFF: Time 54120, Note Name: G#4
Note ON: Time 54240, Note Name: C#3, Velocity: 82
Note OFF: Time 54360, Note Name: C#3
Note ON: Time 54480, Note Name: F#4, Velocity: 66
Note ON: Time 54480, Note Name: C#4, Velocity: 56
Note ON: Time 54480, Note Name: A#3, Velocity: 56
Note OFF: Time 54600, Note Name: A#3
Note OFF: Time 54600, Note Name: C#4
Note OFF: Time 54600, Note Name: F#4
Note ON: Time 54720, Note Name: B2, Velocity: 84
Note OFF: Time 54840, Note Name: B2
Note ON: Time 54960, Note Name: B3, Velocity: 60
Note ON: Time 54960, Note Name: F4, Velocity: 60
Note ON: Time 54960, Note Name: C#4, Velocity: 60
Note ON: Time 54960, Note Name: G#4, Velocity: 71
Note OFF: Time 55080, Note Name: G#4
Note OFF: Time 55080, Note Name: B3
Note OFF: Time 55080, Note Name: F4
Note OFF: Time 55080, Note Name: C#4
Note ON: Time 55200, Note Name: A#2, Velocity: 86
Note OFF: Time 55320, Note Name: A#2
Note ON: Time 55440, Note Name: C#4, Velocity: 60
Note ON: Time 55440, Note Name: A#4, Velocity: 71
Note ON: Time 55440, Note Name: A#3, Velocity: 60
Note ON: Time 55440, Note Name: F#4, Velocity: 60
Note OFF: Time 55560, Note Name: F#4
Note OFF: Time 55560, Note Name: C#4
Note OFF: Time 55560, Note Name: A#4
Note OFF: Time 55560, Note Name: A#3
Note ON: Time 55680, Note Name: B2, Velocity: 88
Note OFF: Time 55800, Note Name: B2
Note ON: Time 55920, Note Name: G#4, Velocity: 73
Note ON: Time 55920, Note Name: D#4, Velocity: 62
Note ON: Time 55920, Note Name: B3, Velocity: 62
Note OFF: Time 56040, Note Name: B3
Note OFF: Time 56040, Note Name: D#4
Note OFF: Time 56040, Note Name: G#4
Note ON: Time 56160, Note Name: C#3, Velocity: 89
Note OFF: Time 56280, Note Name: C#3
Note ON: Time 56400, Note Name: F#4, Velocity: 73
Note ON: Time 56400, Note Name: C#4, Velocity: 62
Note ON: Time 56400, Note Name: A#3, Velocity: 62
Note OFF: Time 56520, Note Name: A#3
Note OFF: Time 56520, Note Name: C#4
Note OFF: Time 56520, Note Name: F#4
Note ON: Time 56640, Note Name: B2, Velocity: 91
Note OFF: Time 56760, Note Name: B2
Note ON: Time 56880, Note Name: B3, Velocity: 63
Note ON: Time 56880, Note Name: F4, Velocity: 63
Note ON: Time 56880, Note Name: C#4, Velocity: 63
Note ON: Time 56880, Note Name: G#4, Velocity: 75
Note OFF: Time 57000, Note Name: G#4
Note OFF: Time 57000, Note Name: B3
Note OFF: Time 57000, Note Name: F4
Note OFF: Time 57000, Note Name: C#4
Note ON: Time 57120, Note Name: A#2, Velocity: 94
Note OFF: Time 57240, Note Name: A#2
Note ON: Time 57360, Note Name: A#3, Velocity: 63
Note ON: Time 57360, Note Name: F#4, Velocity: 63
Note ON: Time 57360, Note Name: C#4, Velocity: 63
Note ON: Time 57360, Note Name: A#4, Velocity: 75
Note OFF: Time 57480, Note Name: A#4
Note OFF: Time 57480, Note Name: A#3
Note OFF: Time 57480, Note Name: F#4
Note OFF: Time 57480, Note Name: C#4
Note ON: Time 57600, Note Name: B2, Velocity: 94
Note OFF: Time 57840, Note Name: B2
Note ON: Time 57840, Note Name: D#4, Velocity: 70
Note ON: Time 57840, Note Name: G#3, Velocity: 70
Note ON: Time 57840, Note Name: G#4, Velocity: 82
Note OFF: Time 58320, Note Name: G#4
Note OFF: Time 58320, Note Name: G#3
Note OFF: Time 58320, Note Name: D#4
Note ON: Time 58320, Note Name: B2, Velocity: 94
Note OFF: Time 58560, Note Name: B2
Note ON: Time 58560, Note Name: C3, Velocity: 104
Note OFF: Time 58800, Note Name: C3
Note ON: Time 58800, Note Name: G#4, Velocity: 85
Note ON: Time 58800, Note Name: D#4, Velocity: 71
Note ON: Time 58800, Note Name: F#4, Velocity: 71
Note ON: Time 58800, Note Name: G#3, Velocity: 71
Note OFF: Time 59280, Note Name: G#3
Note OFF: Time 59280, Note Name: G#4
Note OFF: Time 59280, Note Name: D#4
Note OFF: Time 59280, Note Name: F#4
Note ON: Time 59280, Note Name: C3, Velocity: 100
Note OFF: Time 59520, Note Name: C3
Note ON: Time 59520, Note Name: C#3, Velocity: 106
Note OFF: Time 59760, Note Name: C#3
Note ON: Time 60000, Note Name: C#4, Velocity: 77
Note ON: Time 60000, Note Name: F#4, Velocity: 77
Note ON: Time 60000, Note Name: G#3, Velocity: 77
Note ON: Time 60000, Note Name: G#4, Velocity: 92
Note OFF: Time 60480, Note Name: G#4
Note OFF: Time 60480, Note Name: C#4
Note OFF: Time 60480, Note Name: F#4
Note OFF: Time 60480, Note Name: G#3
Note ON: Time 60480, Note Name: C#5, Velocity: 94
Note ON: Time 60480, Note Name: F#4, Velocity: 79
Note ON: Time 60480, Note Name: G#4, Velocity: 79
Note OFF: Time 60960, Note Name: G#4
Note OFF: Time 60960, Note Name: F#4
Note OFF: Time 60960, Note Name: C#5
Note ON: Time 61400, Note Name: C#2, Velocity: 47
Note OFF: Time 61410, Note Name: C#2
Note ON: Time 61410, Note Name: C#3, Velocity: 47
Note ON: Time 61420, Note Name: G#3, Velocity: 47
Note ON: Time 61430, Note Name: C#4, Velocity: 47
Note ON: Time 61440, Note Name: F#4, Velocity: 56
Note OFF: Time 62400, Note Name: F#4
Note OFF: Time 62400, Note Name: C#3
Note OFF: Time 62400, Note Name: G#3
Note OFF: Time 62400, Note Name: C#4
Note ON: Time 62400, Note Name: C#3, Velocity: 30
Note ON: Time 62400, Note Name: B3, Velocity: 30
Note ON: Time 62400, Note Name: F#4, Velocity: 56
Note ON: Time 62400, Note Name: C#3, Velocity: 56
Note ON: Time 62400, Note Name: D#4, Velocity: 47
Note ON: Time 62400, Note Name: G#3, Velocity: 30
Note OFF: Time 62880, Note Name: D#4
Note OFF: Time 62880, Note Name: F#4
Note ON: Time 62880, Note Name: F4, Velocity: 56
Note ON: Time 62880, Note Name: C#4, Velocity: 47
Note OFF: Time 63360, Note Name: C#4
Note OFF: Time 63360, Note Name: G#3
Note OFF: Time 63360, Note Name: B3
Note OFF: Time 63360, Note Name: C#3
Note OFF: Time 63360, Note Name: F4
Note OFF: Time 63360, Note Name: C#3
Note ON: Time 63360, Note Name: F#3, Velocity: 48
Note ON: Time 63360, Note Name: A#3, Velocity: 48
Note ON: Time 63360, Note Name: F#4, Velocity: 59
Note OFF: Time 63600, Note Name: F#4
Note OFF: Time 63600, Note Name: A#3
Note ON: Time 63600, Note Name: C#4, Velocity: 44
Note OFF: Time 63840, Note Name: C#4
Note ON: Time 63840, Note Name: B3, Velocity: 50
Note ON: Time 63840, Note Name: G#4, Velocity: 60
Note OFF: Time 64080, Note Name: G#4
Note OFF: Time 64080, Note Name: B3
Note ON: Time 64080, Note Name: G#3, Velocity: 44
Note ON: Time 64080, Note Name: F4, Velocity: 52
Note OFF: Time 64320, Note Name: F4
Note OFF: Time 64320, Note Name: G#3
Note OFF: Time 64320, Note Name: F#3
Note ON: Time 64320, Note Name: F#4, Velocity: 60
Note ON: Time 64320, Note Name: A#3, Velocity: 50
Note ON: Time 64320, Note Name: F#3, Velocity: 50
Note OFF: Time 64560, Note Name: A#3
Note OFF: Time 64560, Note Name: F#4
Note ON: Time 64560, Note Name: C#4, Velocity: 42
Note OFF: Time 64800, Note Name: C#4
Note ON: Time 64800, Note Name: B3, Velocity: 50
Note ON: Time 64800, Note Name: G#4, Velocity: 60
Note OFF: Time 65040, Note Name: G#4
Note OFF: Time 65040, Note Name: B3
Note ON: Time 65040, Note Name: F4, Velocity: 51
Note ON: Time 65040, Note Name: G#3, Velocity: 42
Note OFF: Time 65280, Note Name: G#3
Note OFF: Time 65280, Note Name: F4
Note OFF: Time 65280, Note Name: F#3
Note ON: Time 65280, Note Name: F#3, Velocity: 53
Note ON: Time 65280, Note Name: F#4, Velocity: 63
Note ON: Time 65280, Note Name: A#3, Velocity: 53
Note OFF: Time 65520, Note Name: A#3
Note OFF: Time 65520, Note Name: F#4
Note OFF: Time 65520, Note Name: F#3
Note ON: Time 65760, Note Name: D#4, Velocity: 63
Note ON: Time 65760, Note Name: F3, Velocity: 53
Note ON: Time 65760, Note Name: B3, Velocity: 53
Note OFF: Time 66000, Note Name: B3
Note OFF: Time 66000, Note Name: F3
Note OFF: Time 66000, Note Name: D#4
Note ON: Time 66000, Note Name: C#3, Velocity: 48
Note ON: Time 66000, Note Name: C#4, Velocity: 57
Note OFF: Time 66240, Note Name: C#4
Note OFF: Time 66240, Note Name: C#3
Note ON: Time 66240, Note Name: D#4, Velocity: 66
Note ON: Time 66240, Note Name: A#3, Velocity: 56
Note ON: Time 66240, Note Name: F#3, Velocity: 56
Note OFF: Time 66480, Note Name: F#3
Note OFF: Time 66480, Note Name: A#3
Note OFF: Time 66480, Note Name: D#4
Note ON: Time 66480, Note Name: C#3, Velocity: 48
Note ON: Time 66480, Note Name: C#4, Velocity: 59
Note OFF: Time 66720, Note Name: C#4
Note OFF: Time 66720, Note Name: C#3
Note ON: Time 66720, Note Name: B3, Velocity: 56
Note ON: Time 66720, Note Name: F3, Velocity: 56
Note ON: Time 66720, Note Name: D#4, Velocity: 68
Note OFF: Time 66960, Note Name: D#4
Note OFF: Time 66960, Note Name: F3
Note OFF: Time 66960, Note Name: B3
Note ON: Time 66960, Note Name: C#4, Velocity: 62
Note ON: Time 66960, Note Name: C#3, Velocity: 52
Note OFF: Time 67200, Note Name: C#3
Note OFF: Time 67200, Note Name: C#4
Note ON: Time 67200, Note Name: F#4, Velocity: 59
Note ON: Time 67200, Note Name: F#3, Velocity: 48
Note ON: Time 67200, Note Name: A#3, Velocity: 48
Note OFF: Time 67440, Note Name: A#3
Note OFF: Time 67440, Note Name: F#4
Note ON: Time 67440, Note Name: C#4, Velocity: 45
Note OFF: Time 67680, Note Name: C#4
Note ON: Time 67680, Note Name: G#4, Velocity: 60
Note ON: Time 67680, Note Name: B3, Velocity: 50
Note OFF: Time 67920, Note Name: B3
Note OFF: Time 67920, Note Name: G#4
Note ON: Time 67920, Note Name: G#3, Velocity: 46
Note ON: Time 67920, Note Name: F4, Velocity: 55
Note OFF: Time 68160, Note Name: F4
Note OFF: Time 68160, Note Name: G#3
Note OFF: Time 68160, Note Name: F#3
Note ON: Time 68160, Note Name: A#3, Velocity: 51
Note ON: Time 68160, Note Name: F#4, Velocity: 61
Note ON: Time 68160, Note Name: F#3, Velocity: 51
Note OFF: Time 68400, Note Name: F#4
Note OFF: Time 68400, Note Name: A#3
Note ON: Time 68400, Note Name: C#4, Velocity: 46
Note OFF: Time 68640, Note Name: C#4
Note ON: Time 68640, Note Name: B3, Velocity: 51
Note ON: Time 68640, Note Name: G#4, Velocity: 61
Note OFF: Time 68880, Note Name: G#4
Note OFF: Time 68880, Note Name: B3
Note ON: Time 68880, Note Name: G#3, Velocity: 47
Note ON: Time 68880, Note Name: F4, Velocity: 56
Note OFF: Time 69120, Note Name: F4
Note OFF: Time 69120, Note Name: G#3
Note OFF: Time 69120, Note Name: F#3
Note ON: Time 69120, Note Name: A#3, Velocity: 55
Note ON: Time 69120, Note Name: F#4, Velocity: 64
Note ON: Time 69120, Note Name: F#3, Velocity: 55
Note OFF: Time 69360, Note Name: F#3
Note OFF: Time 69360, Note Name: F#4
Note OFF: Time 69360, Note Name: A#3
Note ON: Time 69360, Note Name: C#4, Velocity: 59
Note OFF: Time 69600, Note Name: C#4
Note ON: Time 69600, Note Name: D#4, Velocity: 70
Note ON: Time 69600, Note Name: B3, Velocity: 59
Note ON: Time 69600, Note Name: F3, Velocity: 59
Note OFF: Time 69840, Note Name: F3
Note OFF: Time 69840, Note Name: B3
Note OFF: Time 69840, Note Name: D#4
Note ON: Time 69840, Note Name: C#3, Velocity: 53
Note ON: Time 69840, Note Name: C#4, Velocity: 63
Note OFF: Time 70080, Note Name: C#4
Note OFF: Time 70080, Note Name: C#3
Note ON: Time 70080, Note Name: F#3, Velocity: 66
Note ON: Time 70080, Note Name: D#4, Velocity: 79
Note ON: Time 70080, Note Name: A#3, Velocity: 66
Note OFF: Time 70320, Note Name: A#3
Note OFF: Time 70320, Note Name: D#4
Note OFF: Time 70320, Note Name: F#3
Note ON: Time 70320, Note Name: C#4, Velocity: 72
Note ON: Time 70320, Note Name: C#3, Velocity: 61
Note OFF: Time 70560, Note Name: C#3
Note OFF: Time 70560, Note Name: C#4
Note ON: Time 70560, Note Name: F3, Velocity: 70
Note ON: Time 70560, Note Name: B3, Velocity: 70
Note ON: Time 70560, Note Name: D#4, Velocity: 84
Note OFF: Time 70800, Note Name: D#4
Note OFF: Time 70800, Note Name: B3
Note OFF: Time 70800, Note Name: F3
Note ON: Time 70800, Note Name: C#4, Velocity: 81
Note ON: Time 70800, Note Name: C#3, Velocity: 69
Note OFF: Time 71010, Note Name: C#3
Note OFF: Time 71010, Note Name: C#4
Note ON: Time 71010, Note Name: F#3, Velocity: 68
Note ON: Time 71025, Note Name: C#4, Velocity: 70
Note ON: Time 71040, Note Name: A#4, Velocity: 90
Note OFF: Time 71520, Note Name: A#4
Note OFF: Time 71520, Note Name: C#4
Note OFF: Time 71520, Note Name: F#3
Note ON: Time 71760, Note Name: C#3, Velocity: 79
Note ON: Time 71760, Note Name: B3, Velocity: 79
Note ON: Time 71760, Note Name: G#3, Velocity: 79
Note ON: Time 71760, Note Name: F4, Velocity: 94
Note OFF: Time 72000, Note Name: F4
Note OFF: Time 72000, Note Name: C#3
Note OFF: Time 72000, Note Name: B3
Note OFF: Time 72000, Note Name: G#3
Note ON: Time 72000, Note Name: F#3, Velocity: 77
Note ON: Time 72000, Note Name: A#3, Velocity: 77
Note ON: Time 72000, Note Name: F#4, Velocity: 90
Note OFF: Time 72480, Note Name: F#4
Note OFF: Time 72480, Note Name: A#3
Note OFF: Time 72480, Note Name: F#3
Note ON: Time 72720, Note Name: C#2, Velocity: 78
Note ON: Time 72720, Note Name: B2, Velocity: 78
Note ON: Time 72720, Note Name: F3, Velocity: 93
Note OFF: Time 72960, Note Name: F3
Note OFF: Time 72960, Note Name: B2
Note OFF: Time 72960, Note Name: C#2
Note ON: Time 72960, Note Name: F#2, Velocity: 75
Note ON: Time 72960, Note Name: A#2, Velocity: 75
Note ON: Time 72960, Note Name: F#3, Velocity: 89
Note OFF: Time 73440, Note Name: F#3
Note OFF: Time 73440, Note Name: A#2
Note OFF: Time 73440, Note Name: F#2
Note ON: Time 73680, Note Name: C#2, Velocity: 80
Note OFF: Time 73920, Note Name: C#2
Note ON: Time 73920, Note Name: F#1, Velocity: 71
Note ON: Time 73920, Note Name: F#2, Velocity: 85
Note OFF: Time 74160, Note Name: F#2
Note OFF: Time 74160, Note Name: F#1
Note ON: Time 74160, Note Name: C#1, Velocity: 68
Note ON: Time 74160, Note Name: C#2, Velocity: 80
Note OFF: Time 74400, Note Name: C#2
Note OFF: Time 74400, Note Name: C#1
Note ON: Time 74400, Note Name: F#1, Velocity: 71
Note ON: Time 74400, Note Name: F#2, Velocity: 85
Note OFF: Time 74640, Note Name: F#2
Note OFF: Time 74640, Note Name: F#1
Note ON: Time 74640, Note Name: C#1, Velocity: 68
Note ON: Time 74640, Note Name: C#2, Velocity: 80
Note OFF: Time 74880, Note Name: C#2
Note OFF: Time 74880, Note Name: C#1
Note ON: Time 74880, Note Name: F#1, Velocity: 71
Note ON: Time 74880, Note Name: F#2, Velocity: 85
Note OFF: Time 75120, Note Name: F#2
Note OFF: Time 75120, Note Name: F#1
Note ON: Time 75600, Note Name: F#2, Velocity: 53
Note OFF: Time 75680, Note Name: F#2
Note ON: Time 75680, Note Name: C#3, Velocity: 48
Note OFF: Time 75760, Note Name: C#3
Note ON: Time 75760, Note Name: A#3, Velocity: 46
Note OFF: Time 75840, Note Name: A#3
Note ON: Time 75840, Note Name: F#2, Velocity: 56
Note OFF: Time 75920, Note Name: F#2
Note ON: Time 75920, Note Name: C#3, Velocity: 51
Note OFF: Time 76000, Note Name: C#3
Note ON: Time 76000, Note Name: A#3, Velocity: 49
Note OFF: Time 76080, Note Name: A#3
Note ON: Time 76080, Note Name: A#2, Velocity: 57
Note OFF: Time 76160, Note Name: A#2
Note ON: Time 76160, Note Name: F#3, Velocity: 52
Note OFF: Time 76240, Note Name: F#3
Note ON: Time 76240, Note Name: C#4, Velocity: 49
Note OFF: Time 76320, Note Name: C#4
Note ON: Time 76320, Note Name: C#3, Velocity: 59
Note OFF: Time 76400, Note Name: C#3
Note ON: Time 76400, Note Name: A#3, Velocity: 52
Note OFF: Time 76480, Note Name: A#3
Note ON: Time 76480, Note Name: F#4, Velocity: 51
Note OFF: Time 76560, Note Name: F#4
Note ON: Time 76560, Note Name: F#3, Velocity: 61
Note OFF: Time 76640, Note Name: F#3
Note ON: Time 76640, Note Name: C#4, Velocity: 54
Note OFF: Time 76720, Note Name: C#4
Note ON: Time 76720, Note Name: A#4, Velocity: 51
Note OFF: Time 76800, Note Name: A#4
Note ON: Time 76800, Note Name: A#3, Velocity: 61
Note OFF: Time 76880, Note Name: A#3
Note ON: Time 76880, Note Name: F#4, Velocity: 56
Note OFF: Time 76960, Note Name: F#4
Note ON: Time 76960, Note Name: C#5, Velocity: 54
Note OFF: Time 77040, Note Name: C#5
Note ON: Time 77040, Note Name: C#4, Velocity: 65
Note OFF: Time 77120, Note Name: C#4
Note ON: Time 77120, Note Name: A#4, Velocity: 58
Note OFF: Time 77200, Note Name: A#4
Note ON: Time 77200, Note Name: F#5, Velocity: 56
Note OFF: Time 77280, Note Name: F#5
Note ON: Time 77280, Note Name: F#4, Velocity: 67
Note OFF: Time 77360, Note Name: F#4
Note ON: Time 77360, Note Name: A#4, Velocity: 59
Note OFF: Time 77440, Note Name: A#4
Note ON: Time 77440, Note Name: F#5, Velocity: 58
Note OFF: Time 77520, Note Name: F#5
Note ON: Time 77520, Note Name: C#4, Velocity: 68
Note OFF: Time 77600, Note Name: C#4
Note ON: Time 77600, Note Name: C#5, Velocity: 60
Note OFF: Time 77680, Note Name: C#5
Note ON: Time 77680, Note Name: F#5, Velocity: 59
Note OFF: Time 77760, Note Name: F#5
Note ON: Time 77760, Note Name: F#4, Velocity: 72
Note OFF: Time 77840, Note Name: F#4
Note ON: Time 77840, Note Name: A#4, Velocity: 61
Note OFF: Time 77920, Note Name: A#4
Note ON: Time 77920, Note Name: F#5, Velocity: 59
Note OFF: Time 78000, Note Name: F#5
Note ON: Time 78000, Note Name: C#4, Velocity: 72
Note OFF: Time 78080, Note Name: C#4
Note ON: Time 78080, Note Name: A#4, Velocity: 65
Note OFF: Time 78160, Note Name: A#4
Note ON: Time 78160, Note Name: F#5, Velocity: 63
Note OFF: Time 78240, Note Name: F#5
Note ON: Time 78240, Note Name: F#4, Velocity: 73
Note OFF: Time 78320, Note Name: F#4
Note ON: Time 78320, Note Name: A#4, Velocity: 67
Note OFF: Time 78400, Note Name: A#4
Note ON: Time 78400, Note Name: F#5, Velocity: 66
Note OFF: Time 78480, Note Name: F#5
Note ON: Time 78480, Note Name: C#4, Velocity: 75
Note OFF: Time 78560, Note Name: C#4
Note ON: Time 78560, Note Name: A#4, Velocity: 69
Note OFF: Time 78640, Note Name: A#4
Note ON: Time 78640, Note Name: F#5, Velocity: 69
Note OFF: Time 78720, Note Name: F#5
Note ON: Time 78720, Note Name: F#4, Velocity: 81
Note OFF: Time 78800, Note Name: F#4
Note ON: Time 78880, Note Name: F#3, Velocity: 87
Note ON: Time 78880, Note Name: F#4, Velocity: 87
Note OFF: Time 78960, Note Name: F#4
Note OFF: Time 78960, Note Name: F#3
Note ON: Time 78960, Note Name: D#4, Velocity: 83
Note ON: Time 78960, Note Name: D#3, Velocity: 83
Note OFF: Time 79040, Note Name: D#3
Note OFF: Time 79040, Note Name: D#4
Note ON: Time 79040, Note Name: C#4, Velocity: 85
Note ON: Time 79040, Note Name: C#3, Velocity: 85
Note OFF: Time 79120, Note Name: C#3
Note OFF: Time 79120, Note Name: C#4
Note ON: Time 79120, Note Name: A#3, Velocity: 86
Note ON: Time 79120, Note Name: A#2, Velocity: 86
Note OFF: Time 79200, Note Name: A#2
Note OFF: Time 79200, Note Name: A#3
Note ON: Time 79200, Note Name: G#3, Velocity: 86
Note ON: Time 79200, Note Name: G#2, Velocity: 86
Note OFF: Time 79280, Note Name: G#2
Note OFF: Time 79280, Note Name: G#3
Note ON: Time 79280, Note Name: F#3, Velocity: 87
Note ON: Time 79280, Note Name: F#2, Velocity: 87
Note OFF: Time 79360, Note Name: F#2
Note OFF: Time 79360, Note Name: F#3
Note ON: Time 79360, Note Name: D#3, Velocity: 88
Note ON: Time 79360, Note Name: D#2, Velocity: 88
Note OFF: Time 79440, Note Name: D#2
Note OFF: Time 79440, Note Name: D#3
Note ON: Time 79440, Note Name: C#2, Velocity: 89
Note ON: Time 79440, Note Name: C#3, Velocity: 89
Note OFF: Time 79520, Note Name: C#3
Note OFF: Time 79520, Note Name: C#2
Note ON: Time 79520, Note Name: A#1, Velocity: 89
Note ON: Time 79520, Note Name: A#2, Velocity: 89
Note OFF: Time 79600, Note Name: A#2
Note OFF: Time 79600, Note Name: A#1
Note ON: Time 79600, Note Name: G#1, Velocity: 92
Note ON: Time 79600, Note Name: G#2, Velocity: 92
Note OFF: Time 79680, Note Name: G#2
Note OFF: Time 79680, Note Name: G#1
Note ON: Time 79680, Note Name: F#1, Velocity: 99
Note ON: Time 79680, Note Name: F#2, Velocity: 99
Note OFF: Time 79800, Note Name: F#2
Note OFF: Time 79800, Note Name: F#1
Note ON: Time 80130, Note Name: F#3, Velocity: 93
Note ON: Time 80145, Note Name: C#4, Velocity: 98
Note ON: Time 80160, Note Name: A#4, Velocity: 108
Note OFF: Time 80640, Note Name: A#4
Note OFF: Time 80640, Note Name: C#4
Note OFF: Time 80640, Note Name: F#3
Note ON: Time 80640, Note Name: F#1, Velocity: 102
Note ON: Time 80640, Note Name: F#2, Velocity: 102
Note OFF: Time 81600, Note Name: F#2
Note OFF: Time 81600, Note Name: F#1
Track 3: Chopin: Etude Op, 10, No. 5
Track 4: Copyright © 1999 by Bernd Krüger
Track 5: email: BKrueger@csi.com
Track 6: http://www.piano-midi.de
Track 7: Edition: 21.4.99
