Processing chpn_op35_2.mid...

Track 0: Sonate opus 35, 2. Satz
Track 1: Piano right 1
Note ON: Time 122400, Note Name: A#4, Velocity: 57
Note OFF: Time 122880, Note Name: A#4
Note ON: Time 122880, Note Name: F4, Velocity: 49
Note OFF: Time 123360, Note Name: F4
Note ON: Time 123360, Note Name: F#4, Velocity: 52
Note OFF: Time 123840, Note Name: F#4
Note ON: Time 123840, Note Name: D#5, Velocity: 57
Note OFF: Time 124800, Note Name: D#5
Note ON: Time 124800, Note Name: C#5, Velocity: 52
Note OFF: Time 125280, Note Name: C#5
Note ON: Time 125280, Note Name: C#5, Velocity: 52
Note OFF: Time 125760, Note Name: C#5
Note ON: Time 125760, Note Name: F#4, Velocity: 44
Note OFF: Time 126240, Note Name: F#4
Note ON: Time 126240, Note Name: G#4, Velocity: 45
Note OFF: Time 126720, Note Name: G#4
Note ON: Time 126720, Note Name: A#4, Velocity: 52
Note OFF: Time 130080, Note Name: A#4
Note ON: Time 133920, Note Name: C#5, Velocity: 53
Note OFF: Time 134400, Note Name: C#5
Note ON: Time 134400, Note Name: A4, Velocity: 49
Note OFF: Time 134880, Note Name: A4
Note ON: Time 134880, Note Name: A#4, Velocity: 54
Note OFF: Time 135360, Note Name: A#4
Note ON: Time 135360, Note Name: F#5, Velocity: 58
Note OFF: Time 136320, Note Name: F#5
Note ON: Time 136320, Note Name: F5, Velocity: 52
Note OFF: Time 136800, Note Name: F5
Note ON: Time 136800, Note Name: F5, Velocity: 52
Note OFF: Time 137280, Note Name: F5
Note ON: Time 137280, Note Name: A#4, Velocity: 52
Note OFF: Time 137760, Note Name: A#4
Note ON: Time 137760, Note Name: C5, Velocity: 53
Note OFF: Time 138240, Note Name: C5
Note ON: Time 138240, Note Name: D#5, Velocity: 57
Note OFF: Time 138720, Note Name: D#5
Note ON: Time 138720, Note Name: C#5, Velocity: 57
Note OFF: Time 141600, Note Name: C#5
Note ON: Time 145440, Note Name: A#4, Velocity: 60
Note OFF: Time 145920, Note Name: A#4
Note ON: Time 145920, Note Name: F4, Velocity: 53
Note OFF: Time 146400, Note Name: F4
Note ON: Time 146400, Note Name: F#4, Velocity: 57
Note OFF: Time 146880, Note Name: F#4
Note ON: Time 146880, Note Name: D#5, Velocity: 59
Note OFF: Time 147840, Note Name: D#5
Note ON: Time 147840, Note Name: C#5, Velocity: 57
Note OFF: Time 148320, Note Name: C#5
Note ON: Time 148320, Note Name: C#5, Velocity: 57
Note OFF: Time 148800, Note Name: C#5
Note ON: Time 148800, Note Name: F#4, Velocity: 53
Note OFF: Time 149280, Note Name: F#4
Note ON: Time 149280, Note Name: G#4, Velocity: 52
Note OFF: Time 149760, Note Name: G#4
Note ON: Time 149760, Note Name: A#4, Velocity: 57
Note OFF: Time 153120, Note Name: A#4
Note ON: Time 156960, Note Name: A#4, Velocity: 62
Note OFF: Time 157440, Note Name: A#4
Note ON: Time 157440, Note Name: A4, Velocity: 54
Note OFF: Time 157920, Note Name: A4
Note ON: Time 157920, Note Name: A#4, Velocity: 59
Note OFF: Time 158400, Note Name: A#4
Note ON: Time 158400, Note Name: B4, Velocity: 62
Note OFF: Time 159360, Note Name: B4
Note ON: Time 159360, Note Name: C5, Velocity: 60
Note OFF: Time 159840, Note Name: C5
Note ON: Time 159840, Note Name: D5, Velocity: 63
Note OFF: Time 160320, Note Name: D5
Note ON: Time 160320, Note Name: A#4, Velocity: 60
Note OFF: Time 160800, Note Name: A#4
Note ON: Time 160800, Note Name: G5, Velocity: 60
Note OFF: Time 161280, Note Name: G5
Note ON: Time 161280, Note Name: F5, Velocity: 61
Note OFF: Time 162600, Note Name: F5
Note ON: Time 162600, Note Name: A#4, Velocity: 52
Note OFF: Time 162660, Note Name: A#4
Note ON: Time 162660, Note Name: C5, Velocity: 46
Note OFF: Time 162720, Note Name: C5
Note ON: Time 162720, Note Name: A#4, Velocity: 63
Note OFF: Time 163200, Note Name: A#4
Note ON: Time 163200, Note Name: A4, Velocity: 57
Note OFF: Time 163680, Note Name: A4
Note ON: Time 163680, Note Name: A#4, Velocity: 61
Note OFF: Time 164160, Note Name: A#4
Note ON: Time 164160, Note Name: B4, Velocity: 62
Note OFF: Time 165120, Note Name: B4
Note ON: Time 165120, Note Name: C5, Velocity: 63
Note OFF: Time 165600, Note Name: C5
Note ON: Time 165600, Note Name: C#5, Velocity: 66
Note OFF: Time 166080, Note Name: C#5
Note ON: Time 166080, Note Name: A#4, Velocity: 63
Note OFF: Time 166560, Note Name: A#4
Note ON: Time 166560, Note Name: F#5, Velocity: 63
Note OFF: Time 167040, Note Name: F#5
Note ON: Time 167040, Note Name: F5, Velocity: 65
Note OFF: Time 167520, Note Name: F5
Note ON: Time 167520, Note Name: D#5, Velocity: 63
Note OFF: Time 168000, Note Name: D#5
Note ON: Time 168000, Note Name: C#5, Velocity: 63
Note OFF: Time 168480, Note Name: C#5
Note ON: Time 168480, Note Name: B4, Velocity: 62
Note OFF: Time 174240, Note Name: B4
Note ON: Time 174240, Note Name: A#4, Velocity: 54
Note OFF: Time 174720, Note Name: A#4
Note ON: Time 174720, Note Name: F4, Velocity: 49
Note OFF: Time 175200, Note Name: F4
Note ON: Time 175200, Note Name: F#4, Velocity: 52
Note OFF: Time 175680, Note Name: F#4
Note ON: Time 175680, Note Name: D#5, Velocity: 57
Note OFF: Time 176640, Note Name: D#5
Note ON: Time 176640, Note Name: C#5, Velocity: 52
Note OFF: Time 177120, Note Name: C#5
Note ON: Time 177120, Note Name: C#5, Velocity: 52
Note OFF: Time 177600, Note Name: C#5
Note ON: Time 177600, Note Name: F#4, Velocity: 45
Note OFF: Time 178080, Note Name: F#4
Note ON: Time 178080, Note Name: G#4, Velocity: 46
Note OFF: Time 178560, Note Name: G#4
Note ON: Time 178560, Note Name: A#4, Velocity: 52
Note OFF: Time 181920, Note Name: A#4
Note ON: Time 185760, Note Name: B4, Velocity: 53
Note OFF: Time 186240, Note Name: B4
Note ON: Time 186240, Note Name: G4, Velocity: 49
Note OFF: Time 186720, Note Name: G4
Note ON: Time 186720, Note Name: G#4, Velocity: 54
Note OFF: Time 187200, Note Name: G#4
Note ON: Time 187200, Note Name: E5, Velocity: 58
Note OFF: Time 188160, Note Name: E5
Note ON: Time 188160, Note Name: D#5, Velocity: 54
Note OFF: Time 188640, Note Name: D#5
Note ON: Time 188640, Note Name: D#5, Velocity: 54
Note OFF: Time 189120, Note Name: D#5
Note ON: Time 189120, Note Name: G#4, Velocity: 49
Note OFF: Time 189600, Note Name: G#4
Note ON: Time 189600, Note Name: A#4, Velocity: 51
Note OFF: Time 190080, Note Name: A#4
Note ON: Time 190080, Note Name: C#5, Velocity: 53
Note OFF: Time 190560, Note Name: C#5
Note ON: Time 190560, Note Name: B4, Velocity: 51
Note OFF: Time 193440, Note Name: B4
Note ON: Time 197760, Note Name: G#4, Velocity: 39
Note OFF: Time 198240, Note Name: G#4
Note ON: Time 198240, Note Name: A#4, Velocity: 39
Note OFF: Time 198720, Note Name: A#4
Note ON: Time 198720, Note Name: F#4, Velocity: 46
Note OFF: Time 199680, Note Name: F#4
Note ON: Time 199680, Note Name: D#4, Velocity: 39
Note OFF: Time 200160, Note Name: D#4
Note ON: Time 200640, Note Name: G#4, Velocity: 39
Note OFF: Time 201120, Note Name: G#4
Note ON: Time 201120, Note Name: A#4, Velocity: 39
Note OFF: Time 201600, Note Name: A#4
Note ON: Time 201600, Note Name: F#4, Velocity: 46
Note OFF: Time 202560, Note Name: F#4
Note ON: Time 202560, Note Name: D#4, Velocity: 43
Note OFF: Time 203040, Note Name: D#4
Note ON: Time 203520, Note Name: G#4, Velocity: 44
Note OFF: Time 204000, Note Name: G#4
Note ON: Time 204000, Note Name: A#4, Velocity: 45
Note OFF: Time 204480, Note Name: A#4
Note ON: Time 204480, Note Name: B4, Velocity: 47
Note OFF: Time 204960, Note Name: B4
Note ON: Time 204960, Note Name: C5, Velocity: 48
Note OFF: Time 205440, Note Name: C5
Note ON: Time 205440, Note Name: C#5, Velocity: 52
Note OFF: Time 205920, Note Name: C#5
Note ON: Time 205920, Note Name: D5, Velocity: 56
Note OFF: Time 206400, Note Name: D5
Note ON: Time 206400, Note Name: D#5, Velocity: 52
Note OFF: Time 206880, Note Name: D#5
Note ON: Time 206880, Note Name: F4, Velocity: 35
Note OFF: Time 207360, Note Name: F4
Note ON: Time 207360, Note Name: F#4, Velocity: 36
Note OFF: Time 207840, Note Name: F#4
Note ON: Time 231840, Note Name: A#4, Velocity: 57
Note OFF: Time 232320, Note Name: A#4
Note ON: Time 232320, Note Name: F4, Velocity: 49
Note OFF: Time 232800, Note Name: F4
Note ON: Time 232800, Note Name: F#4, Velocity: 52
Note OFF: Time 233280, Note Name: F#4
Note ON: Time 233280, Note Name: D#5, Velocity: 56
Note OFF: Time 234240, Note Name: D#5
Note ON: Time 234240, Note Name: C#5, Velocity: 52
Note OFF: Time 234720, Note Name: C#5
Note ON: Time 234720, Note Name: C#5, Velocity: 52
Note OFF: Time 235200, Note Name: C#5
Note ON: Time 235200, Note Name: F#4, Velocity: 44
Note OFF: Time 235680, Note Name: F#4
Note ON: Time 235680, Note Name: G#4, Velocity: 45
Note OFF: Time 236160, Note Name: G#4
Note ON: Time 236160, Note Name: A#4, Velocity: 52
Note OFF: Time 239520, Note Name: A#4
Note ON: Time 243360, Note Name: B4, Velocity: 53
Note OFF: Time 243840, Note Name: B4
Note ON: Time 243840, Note Name: G4, Velocity: 50
Note OFF: Time 244320, Note Name: G4
Note ON: Time 244320, Note Name: G#4, Velocity: 57
Note OFF: Time 244800, Note Name: G#4
Note ON: Time 244800, Note Name: E5, Velocity: 58
Note OFF: Time 245760, Note Name: E5
Note ON: Time 245760, Note Name: D#5, Velocity: 54
Note OFF: Time 246240, Note Name: D#5
Note ON: Time 246240, Note Name: D#5, Velocity: 54
Note OFF: Time 246720, Note Name: D#5
Note ON: Time 246720, Note Name: G#4, Velocity: 49
Note OFF: Time 247200, Note Name: G#4
Note ON: Time 247200, Note Name: A#4, Velocity: 52
Note OFF: Time 247680, Note Name: A#4
Note ON: Time 247680, Note Name: C#5, Velocity: 58
Note OFF: Time 248160, Note Name: C#5
Note ON: Time 248160, Note Name: B4, Velocity: 54
Note OFF: Time 251040, Note Name: B4
Note ON: Time 255360, Note Name: G#4, Velocity: 39
Note OFF: Time 255840, Note Name: G#4
Note ON: Time 255840, Note Name: A#4, Velocity: 39
Note OFF: Time 256320, Note Name: A#4
Note ON: Time 256320, Note Name: F#4, Velocity: 46
Note OFF: Time 257280, Note Name: F#4
Note ON: Time 257280, Note Name: D#4, Velocity: 39
Note OFF: Time 257760, Note Name: D#4
Note ON: Time 258240, Note Name: G#4, Velocity: 39
Note OFF: Time 258720, Note Name: G#4
Note ON: Time 258720, Note Name: A#4, Velocity: 39
Note OFF: Time 259200, Note Name: A#4
Note ON: Time 259200, Note Name: F#4, Velocity: 46
Note OFF: Time 260160, Note Name: F#4
Note ON: Time 260160, Note Name: D#4, Velocity: 43
Note OFF: Time 260640, Note Name: D#4
Note ON: Time 261120, Note Name: G#4, Velocity: 44
Note OFF: Time 261600, Note Name: G#4
Note ON: Time 261600, Note Name: A#4, Velocity: 45
Note OFF: Time 262080, Note Name: A#4
Note ON: Time 262080, Note Name: B4, Velocity: 47
Note OFF: Time 262560, Note Name: B4
Note ON: Time 262560, Note Name: C5, Velocity: 48
Note OFF: Time 263040, Note Name: C5
Note ON: Time 263040, Note Name: C#5, Velocity: 52
Note OFF: Time 263520, Note Name: C#5
Note ON: Time 263520, Note Name: D5, Velocity: 52
Note OFF: Time 264000, Note Name: D5
Note ON: Time 264000, Note Name: D#5, Velocity: 51
Note OFF: Time 264480, Note Name: D#5
Note ON: Time 264480, Note Name: F4, Velocity: 35
Note OFF: Time 264960, Note Name: F4
Note ON: Time 264960, Note Name: F#4, Velocity: 36
Note OFF: Time 265440, Note Name: F#4
Note ON: Time 289440, Note Name: A#4, Velocity: 54
Note OFF: Time 289920, Note Name: A#4
Note ON: Time 289920, Note Name: F4, Velocity: 49
Note OFF: Time 290400, Note Name: F4
Note ON: Time 290400, Note Name: F#4, Velocity: 52
Note OFF: Time 290880, Note Name: F#4
Note ON: Time 290880, Note Name: D#5, Velocity: 57
Note OFF: Time 291840, Note Name: D#5
Note ON: Time 291840, Note Name: C#5, Velocity: 52
Note OFF: Time 292320, Note Name: C#5
Note ON: Time 292320, Note Name: C#5, Velocity: 52
Note OFF: Time 292800, Note Name: C#5
Note ON: Time 292800, Note Name: F#4, Velocity: 45
Note OFF: Time 293280, Note Name: F#4
Note ON: Time 293280, Note Name: G#4, Velocity: 45
Note OFF: Time 293760, Note Name: G#4
Note ON: Time 293760, Note Name: A#4, Velocity: 52
Note OFF: Time 297120, Note Name: A#4
Note ON: Time 300960, Note Name: B4, Velocity: 54
Note OFF: Time 301440, Note Name: B4
Note ON: Time 301440, Note Name: G4, Velocity: 52
Note OFF: Time 301920, Note Name: G4
Note ON: Time 301920, Note Name: G#4, Velocity: 54
Note OFF: Time 302400, Note Name: G#4
Note ON: Time 302400, Note Name: E5, Velocity: 59
Note OFF: Time 303360, Note Name: E5
Note ON: Time 303360, Note Name: D#5, Velocity: 56
Note OFF: Time 303840, Note Name: D#5
Note ON: Time 303840, Note Name: D#5, Velocity: 58
Note OFF: Time 304320, Note Name: D#5
Note ON: Time 304320, Note Name: G#4, Velocity: 49
Note OFF: Time 304800, Note Name: G#4
Note ON: Time 304800, Note Name: A#4, Velocity: 51
Note OFF: Time 305280, Note Name: A#4
Note ON: Time 305280, Note Name: C#5, Velocity: 57
Note OFF: Time 305760, Note Name: C#5
Note ON: Time 305760, Note Name: B4, Velocity: 52
Note OFF: Time 308640, Note Name: B4
Note ON: Time 312960, Note Name: G#4, Velocity: 39
Note OFF: Time 313440, Note Name: G#4
Note ON: Time 313440, Note Name: A#4, Velocity: 39
Note OFF: Time 313920, Note Name: A#4
Note ON: Time 313920, Note Name: F#4, Velocity: 46
Note OFF: Time 314880, Note Name: F#4
Note ON: Time 314880, Note Name: D#4, Velocity: 39
Note OFF: Time 315360, Note Name: D#4
Note ON: Time 315840, Note Name: G#4, Velocity: 39
Note OFF: Time 316320, Note Name: G#4
Note ON: Time 316320, Note Name: A#4, Velocity: 39
Note OFF: Time 316800, Note Name: A#4
Note ON: Time 316800, Note Name: F#4, Velocity: 46
Note OFF: Time 317760, Note Name: F#4
Note ON: Time 317760, Note Name: D#4, Velocity: 43
Note OFF: Time 318240, Note Name: D#4
Note ON: Time 318720, Note Name: G#4, Velocity: 44
Note OFF: Time 319200, Note Name: G#4
Note ON: Time 319200, Note Name: A#4, Velocity: 45
Note OFF: Time 319680, Note Name: A#4
Note ON: Time 319680, Note Name: B4, Velocity: 47
Note OFF: Time 320160, Note Name: B4
Note ON: Time 320160, Note Name: C5, Velocity: 51
Note OFF: Time 320640, Note Name: C5
Note ON: Time 320640, Note Name: C#5, Velocity: 57
Note OFF: Time 321120, Note Name: C#5
Note ON: Time 450720, Note Name: A#4, Velocity: 51
Note OFF: Time 451200, Note Name: A#4
Note ON: Time 451200, Note Name: F4, Velocity: 42
Note OFF: Time 451680, Note Name: F4
Note ON: Time 451680, Note Name: F#4, Velocity: 46
Note OFF: Time 452160, Note Name: F#4
Note ON: Time 452160, Note Name: D#5, Velocity: 51
Note OFF: Time 453120, Note Name: D#5
Note ON: Time 453120, Note Name: C#5, Velocity: 47
Note OFF: Time 453600, Note Name: C#5
Note ON: Time 453600, Note Name: C#5, Velocity: 47
Note OFF: Time 454080, Note Name: C#5
Note ON: Time 454080, Note Name: F#4, Velocity: 38
Note OFF: Time 454560, Note Name: F#4
Note ON: Time 454560, Note Name: G#4, Velocity: 38
Note OFF: Time 455040, Note Name: G#4
Note ON: Time 455040, Note Name: A#4, Velocity: 49
Note OFF: Time 458400, Note Name: A#4
Track 2: Piano right 2
Note ON: Time 960, Note Name: A#3, Velocity: 72
Note OFF: Time 1440, Note Name: A#3
Note ON: Time 1440, Note Name: D#3, Velocity: 47
Note ON: Time 1440, Note Name: D#4, Velocity: 56
Note OFF: Time 1530, Note Name: D#4
Note OFF: Time 1530, Note Name: D#3
Note ON: Time 1680, Note Name: D#3, Velocity: 49
Note ON: Time 1680, Note Name: D#4, Velocity: 58
Note OFF: Time 1770, Note Name: D#4
Note OFF: Time 1770, Note Name: D#3
Note ON: Time 1920, Note Name: D#3, Velocity: 54
Note ON: Time 1920, Note Name: D#4, Velocity: 64
Note OFF: Time 2010, Note Name: D#4
Note OFF: Time 2010, Note Name: D#3
Note ON: Time 2160, Note Name: D#3, Velocity: 56
Note ON: Time 2160, Note Name: D#4, Velocity: 65
Note OFF: Time 2250, Note Name: D#4
Note OFF: Time 2250, Note Name: D#3
Note ON: Time 2400, Note Name: D#3, Velocity: 61
Note ON: Time 2400, Note Name: D#4, Velocity: 72
Note OFF: Time 2880, Note Name: D#4
Note OFF: Time 2880, Note Name: D#3
Note ON: Time 2880, Note Name: F4, Velocity: 80
Note ON: Time 2880, Note Name: B3, Velocity: 67
Note ON: Time 2880, Note Name: D#4, Velocity: 67
Note ON: Time 2880, Note Name: F3, Velocity: 67
Note OFF: Time 3360, Note Name: F3
Note OFF: Time 3360, Note Name: F4
Note OFF: Time 3360, Note Name: B3
Note OFF: Time 3360, Note Name: D#4
Note ON: Time 3360, Note Name: F4, Velocity: 56
Note ON: Time 3360, Note Name: B4, Velocity: 56
Note ON: Time 3360, Note Name: D#5, Velocity: 56
Note ON: Time 3360, Note Name: F5, Velocity: 68
Note OFF: Time 3600, Note Name: F5
Note OFF: Time 3600, Note Name: F4
Note OFF: Time 3600, Note Name: B4
Note OFF: Time 3600, Note Name: D#5
Note ON: Time 3600, Note Name: D#4, Velocity: 55
Note ON: Time 3600, Note Name: D#5, Velocity: 66
Note OFF: Time 3840, Note Name: D#5
Note OFF: Time 3840, Note Name: D#4
Note ON: Time 3840, Note Name: F4, Velocity: 56
Note ON: Time 3840, Note Name: A#4, Velocity: 56
Note ON: Time 3840, Note Name: D5, Velocity: 56
Note ON: Time 3840, Note Name: F5, Velocity: 68
Note OFF: Time 4080, Note Name: F5
Note OFF: Time 4080, Note Name: F4
Note OFF: Time 4080, Note Name: A#4
Note OFF: Time 4080, Note Name: D5
Note ON: Time 4080, Note Name: F#4, Velocity: 53
Note ON: Time 4080, Note Name: F#5, Velocity: 65
Note OFF: Time 4320, Note Name: F#5
Note OFF: Time 4320, Note Name: F#4
Note ON: Time 4320, Note Name: F#3, Velocity: 49
Note ON: Time 4320, Note Name: F#4, Velocity: 59
Note OFF: Time 4410, Note Name: F#4
Note OFF: Time 4410, Note Name: F#3
Note ON: Time 4560, Note Name: F#3, Velocity: 52
Note ON: Time 4560, Note Name: F#4, Velocity: 61
Note OFF: Time 4650, Note Name: F#4
Note OFF: Time 4650, Note Name: F#3
Note ON: Time 4800, Note Name: F#3, Velocity: 57
Note ON: Time 4800, Note Name: F#4, Velocity: 67
Note OFF: Time 4890, Note Name: F#4
Note OFF: Time 4890, Note Name: F#3
Note ON: Time 5040, Note Name: F#3, Velocity: 57
Note ON: Time 5040, Note Name: F#4, Velocity: 66
Note OFF: Time 5130, Note Name: F#4
Note OFF: Time 5130, Note Name: F#3
Note ON: Time 5280, Note Name: F#3, Velocity: 64
Note ON: Time 5280, Note Name: F#4, Velocity: 75
Note OFF: Time 5760, Note Name: F#4
Note OFF: Time 5760, Note Name: F#3
Note ON: Time 5760, Note Name: G#3, Velocity: 67
Note ON: Time 5760, Note Name: D4, Velocity: 69
Note ON: Time 5760, Note Name: F#4, Velocity: 69
Note ON: Time 5760, Note Name: G#4, Velocity: 82
Note OFF: Time 6240, Note Name: G#4
Note OFF: Time 6240, Note Name: G#3
Note OFF: Time 6240, Note Name: D4
Note OFF: Time 6240, Note Name: F#4
Note ON: Time 6240, Note Name: G#5, Velocity: 72
Note ON: Time 6240, Note Name: D5, Velocity: 59
Note ON: Time 6240, Note Name: F#5, Velocity: 59
Note ON: Time 6240, Note Name: G#4, Velocity: 59
Note OFF: Time 6480, Note Name: G#4
Note OFF: Time 6480, Note Name: G#5
Note OFF: Time 6480, Note Name: D5
Note OFF: Time 6480, Note Name: F#5
Note ON: Time 6480, Note Name: F#4, Velocity: 58
Note ON: Time 6480, Note Name: F#5, Velocity: 70
Note OFF: Time 6720, Note Name: F#5
Note OFF: Time 6720, Note Name: F#4
Note ON: Time 6720, Note Name: G#5, Velocity: 72
Note ON: Time 6720, Note Name: C#5, Velocity: 59
Note ON: Time 6720, Note Name: F5, Velocity: 59
Note ON: Time 6720, Note Name: G#4, Velocity: 59
Note OFF: Time 6960, Note Name: G#4
Note OFF: Time 6960, Note Name: G#5
Note OFF: Time 6960, Note Name: C#5
Note OFF: Time 6960, Note Name: F5
Note ON: Time 6960, Note Name: A4, Velocity: 54
Note ON: Time 6960, Note Name: A5, Velocity: 65
Note OFF: Time 7200, Note Name: A5
Note OFF: Time 7200, Note Name: A4
Note ON: Time 7200, Note Name: A3, Velocity: 47
Note ON: Time 7200, Note Name: A4, Velocity: 56
Note OFF: Time 7290, Note Name: A4
Note OFF: Time 7290, Note Name: A3
Note ON: Time 7440, Note Name: A3, Velocity: 51
Note ON: Time 7440, Note Name: A4, Velocity: 60
Note OFF: Time 7530, Note Name: A4
Note OFF: Time 7530, Note Name: A3
Note ON: Time 7680, Note Name: A3, Velocity: 54
Note ON: Time 7680, Note Name: A4, Velocity: 64
Note OFF: Time 7770, Note Name: A4
Note OFF: Time 7770, Note Name: A3
Note ON: Time 7920, Note Name: A3, Velocity: 59
Note ON: Time 7920, Note Name: A4, Velocity: 69
Note OFF: Time 8010, Note Name: A4
Note OFF: Time 8010, Note Name: A3
Note ON: Time 8160, Note Name: A3, Velocity: 68
Note ON: Time 8160, Note Name: A4, Velocity: 79
Note OFF: Time 8640, Note Name: A4
Note OFF: Time 8640, Note Name: A3
Note ON: Time 8640, Note Name: A#3, Velocity: 52
Note ON: Time 8640, Note Name: A#4, Velocity: 63
Note ON: Time 8640, Note Name: G#4, Velocity: 52
Note ON: Time 8640, Note Name: G#3, Velocity: 52
Note ON: Time 8640, Note Name: F4, Velocity: 52
Note OFF: Time 8730, Note Name: F4
Note OFF: Time 8730, Note Name: G#4
Note OFF: Time 8730, Note Name: A#3
Note OFF: Time 8730, Note Name: A#4
Note OFF: Time 8730, Note Name: G#3
Note ON: Time 8880, Note Name: A#3, Velocity: 55
Note ON: Time 8880, Note Name: F4, Velocity: 55
Note ON: Time 8880, Note Name: G#4, Velocity: 55
Note ON: Time 8880, Note Name: G#3, Velocity: 55
Note ON: Time 8880, Note Name: A#4, Velocity: 66
Note OFF: Time 8970, Note Name: A#4
Note OFF: Time 8970, Note Name: G#4
Note OFF: Time 8970, Note Name: A#3
Note OFF: Time 8970, Note Name: F4
Note OFF: Time 8970, Note Name: G#3
Note ON: Time 9120, Note Name: A#3, Velocity: 57
Note ON: Time 9120, Note Name: F4, Velocity: 57
Note ON: Time 9120, Note Name: G#4, Velocity: 57
Note ON: Time 9120, Note Name: G#3, Velocity: 57
Note ON: Time 9120, Note Name: A#4, Velocity: 67
Note OFF: Time 9210, Note Name: A#4
Note OFF: Time 9210, Note Name: G#4
Note OFF: Time 9210, Note Name: A#3
Note OFF: Time 9210, Note Name: F4
Note OFF: Time 9210, Note Name: G#3
Note ON: Time 9360, Note Name: G#3, Velocity: 57
Note ON: Time 9360, Note Name: F4, Velocity: 57
Note ON: Time 9360, Note Name: G#4, Velocity: 68
Note ON: Time 9360, Note Name: A#3, Velocity: 57
Note ON: Time 9360, Note Name: A#4, Velocity: 68
Note OFF: Time 9450, Note Name: A#4
Note OFF: Time 9450, Note Name: G#4
Note OFF: Time 9450, Note Name: G#3
Note OFF: Time 9450, Note Name: F4
Note OFF: Time 9450, Note Name: A#3
Note ON: Time 9600, Note Name: G#3, Velocity: 68
Note ON: Time 9600, Note Name: A#4, Velocity: 81
Note ON: Time 9600, Note Name: G#4, Velocity: 68
Note ON: Time 9600, Note Name: A#3, Velocity: 68
Note ON: Time 9600, Note Name: D4, Velocity: 68
Note OFF: Time 10080, Note Name: D4
Note OFF: Time 10080, Note Name: G#4
Note OFF: Time 10080, Note Name: G#3
Note OFF: Time 10080, Note Name: A#4
Note OFF: Time 10080, Note Name: A#3
Note ON: Time 10080, Note Name: A#4, Velocity: 63
Note ON: Time 10080, Note Name: D#4, Velocity: 52
Note ON: Time 10080, Note Name: F#4, Velocity: 52
Note ON: Time 10080, Note Name: A#3, Velocity: 52
Note OFF: Time 10170, Note Name: A#3
Note OFF: Time 10170, Note Name: A#4
Note OFF: Time 10170, Note Name: D#4
Note OFF: Time 10170, Note Name: F#4
Note ON: Time 10320, Note Name: A#3, Velocity: 55
Note ON: Time 10320, Note Name: D#4, Velocity: 55
Note ON: Time 10320, Note Name: F#4, Velocity: 55
Note ON: Time 10320, Note Name: A#4, Velocity: 66
Note OFF: Time 10410, Note Name: A#4
Note OFF: Time 10410, Note Name: A#3
Note OFF: Time 10410, Note Name: D#4
Note OFF: Time 10410, Note Name: F#4
Note ON: Time 10560, Note Name: D#4, Velocity: 57
Note ON: Time 10560, Note Name: F#4, Velocity: 57
Note ON: Time 10560, Note Name: A#4, Velocity: 67
Note OFF: Time 10650, Note Name: A#4
Note OFF: Time 10650, Note Name: F#4
Note OFF: Time 10650, Note Name: D#4
Note ON: Time 10800, Note Name: D#4, Velocity: 56
Note ON: Time 10800, Note Name: F#4, Velocity: 56
Note ON: Time 10800, Note Name: A#4, Velocity: 67
Note OFF: Time 10890, Note Name: A#4
Note OFF: Time 10890, Note Name: F#4
Note OFF: Time 10890, Note Name: D#4
Note ON: Time 11040, Note Name: D#4, Velocity: 70
Note ON: Time 11040, Note Name: F#4, Velocity: 72
Note ON: Time 11040, Note Name: A#4, Velocity: 85
Note OFF: Time 11520, Note Name: A#4
Note OFF: Time 11520, Note Name: F#4
Note OFF: Time 11520, Note Name: D#4
Note ON: Time 11520, Note Name: A#3, Velocity: 66
Note ON: Time 11520, Note Name: D#4, Velocity: 66
Note ON: Time 11520, Note Name: A#4, Velocity: 78
Note OFF: Time 12000, Note Name: A#4
Note OFF: Time 12000, Note Name: D#4
Note OFF: Time 12000, Note Name: A#3
Note ON: Time 12000, Note Name: G#3, Velocity: 66
Note ON: Time 12000, Note Name: D#4, Velocity: 66
Note ON: Time 12000, Note Name: G#4, Velocity: 78
Note OFF: Time 12480, Note Name: G#4
Note OFF: Time 12480, Note Name: D#4
Note OFF: Time 12480, Note Name: G#3
Note ON: Time 12480, Note Name: F#3, Velocity: 63
Note ON: Time 12480, Note Name: A3, Velocity: 63
Note ON: Time 12480, Note Name: D#4, Velocity: 63
Note ON: Time 12480, Note Name: F#4, Velocity: 74
Note OFF: Time 12960, Note Name: F#4
Note OFF: Time 12960, Note Name: F#3
Note OFF: Time 12960, Note Name: A3
Note OFF: Time 12960, Note Name: D#4
Note ON: Time 12960, Note Name: A#3, Velocity: 52
Note ON: Time 12960, Note Name: C#4, Velocity: 52
Note ON: Time 12960, Note Name: F4, Velocity: 61
Note OFF: Time 13200, Note Name: F4
Note OFF: Time 13200, Note Name: C#4
Note OFF: Time 13200, Note Name: A#3
Note ON: Time 13200, Note Name: C#4, Velocity: 59
Note OFF: Time 13440, Note Name: C#4
Note ON: Time 13440, Note Name: F#4, Velocity: 66
Note ON: Time 13440, Note Name: C#5, Velocity: 78
Note OFF: Time 13680, Note Name: C#5
Note OFF: Time 13680, Note Name: F#4
Note ON: Time 13680, Note Name: F#4, Velocity: 73
Note OFF: Time 13920, Note Name: F#4
Note ON: Time 13920, Note Name: A#4, Velocity: 69
Note ON: Time 13920, Note Name: F#5, Velocity: 82
Note OFF: Time 14160, Note Name: F#5
Note OFF: Time 14160, Note Name: A#4
Note ON: Time 14160, Note Name: A#4, Velocity: 71
Note OFF: Time 14400, Note Name: A#4
Note ON: Time 14400, Note Name: C#5, Velocity: 65
Note ON: Time 14400, Note Name: A#5, Velocity: 76
Note OFF: Time 14640, Note Name: A#5
Note OFF: Time 14640, Note Name: C#5
Note ON: Time 14640, Note Name: C#5, Velocity: 69
Note OFF: Time 14880, Note Name: C#5
Note ON: Time 14880, Note Name: F#5, Velocity: 66
Note ON: Time 14880, Note Name: C#6, Velocity: 78
Note OFF: Time 15120, Note Name: C#6
Note OFF: Time 15120, Note Name: F#5
Note ON: Time 15120, Note Name: F#5, Velocity: 73
Note OFF: Time 15360, Note Name: F#5
Note ON: Time 15360, Note Name: A#5, Velocity: 69
Note ON: Time 15360, Note Name: F#6, Velocity: 82
Note OFF: Time 15600, Note Name: F#6
Note OFF: Time 15600, Note Name: A#5
Note ON: Time 15600, Note Name: A#5, Velocity: 75
Note OFF: Time 15840, Note Name: A#5
Note ON: Time 15840, Note Name: C#6, Velocity: 69
Note ON: Time 15840, Note Name: A#5, Velocity: 69
Note ON: Time 15840, Note Name: A#6, Velocity: 82
Note OFF: Time 16320, Note Name: A#6
Note OFF: Time 16320, Note Name: A#5
Note OFF: Time 16320, Note Name: C#6
Note ON: Time 16320, Note Name: C#6, Velocity: 66
Note ON: Time 16320, Note Name: G#5, Velocity: 64
Note ON: Time 16320, Note Name: G#6, Velocity: 76
Note OFF: Time 16800, Note Name: G#6
Note OFF: Time 16800, Note Name: G#5
Note OFF: Time 16800, Note Name: C#6
Note ON: Time 16800, Note Name: C#6, Velocity: 73
Note ON: Time 16800, Note Name: G#5, Velocity: 61
Note ON: Time 16800, Note Name: C#5, Velocity: 61
Note OFF: Time 17280, Note Name: C#5
Note OFF: Time 17280, Note Name: G#5
Note OFF: Time 17280, Note Name: C#6
Note ON: Time 17280, Note Name: C#5, Velocity: 57
Note ON: Time 17280, Note Name: G#5, Velocity: 61
Note ON: Time 17280, Note Name: C#6, Velocity: 75
Note OFF: Time 17760, Note Name: G#5
Note OFF: Time 17760, Note Name: C#5
Note ON: Time 17760, Note Name: F#6, Velocity: 68
Note ON: Time 17760, Note Name: F#5, Velocity: 58
Note OFF: Time 18240, Note Name: F#5
Note OFF: Time 18240, Note Name: F#6
Note OFF: Time 18240, Note Name: C#6
Note ON: Time 18240, Note Name: C#5, Velocity: 56
Note ON: Time 18240, Note Name: G#4, Velocity: 49
Note ON: Time 18240, Note Name: C#4, Velocity: 40
Note OFF: Time 18720, Note Name: C#4
Note OFF: Time 18720, Note Name: G#4
Note OFF: Time 18720, Note Name: C#5
Note ON: Time 18720, Note Name: C#4, Velocity: 40
Note ON: Time 18720, Note Name: G#4, Velocity: 48
Note ON: Time 18720, Note Name: C#5, Velocity: 56
Note OFF: Time 19200, Note Name: G#4
Note OFF: Time 19200, Note Name: C#4
Note ON: Time 19200, Note Name: F#5, Velocity: 56
Note ON: Time 19200, Note Name: F#4, Velocity: 49
Note OFF: Time 19680, Note Name: F#4
Note OFF: Time 19680, Note Name: F#5
Note OFF: Time 19680, Note Name: C#5
Note ON: Time 19680, Note Name: C#5, Velocity: 55
Note ON: Time 19680, Note Name: G#4, Velocity: 46
Note ON: Time 19680, Note Name: C#4, Velocity: 38
Note OFF: Time 20160, Note Name: C#4
Note OFF: Time 20160, Note Name: G#4
Note OFF: Time 20160, Note Name: C#5
Note ON: Time 20160, Note Name: C#4, Velocity: 40
Note ON: Time 20160, Note Name: G#4, Velocity: 48
Note ON: Time 20160, Note Name: C#5, Velocity: 55
Note OFF: Time 20640, Note Name: G#4
Note OFF: Time 20640, Note Name: C#4
Note ON: Time 20640, Note Name: F#5, Velocity: 56
Note ON: Time 20640, Note Name: F#4, Velocity: 48
Note OFF: Time 21120, Note Name: F#4
Note OFF: Time 21120, Note Name: F#5
Note OFF: Time 21120, Note Name: C#5
Note ON: Time 21120, Note Name: C#4, Velocity: 52
Note ON: Time 21120, Note Name: C#5, Velocity: 52
Note OFF: Time 21600, Note Name: C#5
Note OFF: Time 21600, Note Name: C#4
Note ON: Time 21600, Note Name: C#4, Velocity: 51
Note ON: Time 21600, Note Name: C#5, Velocity: 56
Note OFF: Time 23040, Note Name: C#5
Note OFF: Time 23040, Note Name: C#4
Note ON: Time 23040, Note Name: A#3, Velocity: 46
Note ON: Time 23040, Note Name: A#4, Velocity: 53
Note OFF: Time 28800, Note Name: A#4
Note OFF: Time 28800, Note Name: A#3
Note ON: Time 30240, Note Name: D#3, Velocity: 52
Note ON: Time 30240, Note Name: D#4, Velocity: 63
Note OFF: Time 30330, Note Name: D#4
Note OFF: Time 30330, Note Name: D#3
Note ON: Time 30480, Note Name: D#3, Velocity: 55
Note ON: Time 30480, Note Name: D#4, Velocity: 66
Note OFF: Time 30570, Note Name: D#4
Note OFF: Time 30570, Note Name: D#3
Note ON: Time 30720, Note Name: D#3, Velocity: 57
Note ON: Time 30720, Note Name: D#4, Velocity: 67
Note OFF: Time 30810, Note Name: D#4
Note OFF: Time 30810, Note Name: D#3
Note ON: Time 30960, Note Name: D#3, Velocity: 59
Note ON: Time 30960, Note Name: D#4, Velocity: 68
Note OFF: Time 31050, Note Name: D#4
Note OFF: Time 31050, Note Name: D#3
Note ON: Time 31200, Note Name: D#3, Velocity: 69
Note ON: Time 31200, Note Name: D#4, Velocity: 80
Note OFF: Time 31680, Note Name: D#4
Note OFF: Time 31680, Note Name: D#3
Note ON: Time 31680, Note Name: F4, Velocity: 90
Note ON: Time 31680, Note Name: B3, Velocity: 75
Note ON: Time 31680, Note Name: D#4, Velocity: 75
Note ON: Time 31680, Note Name: F3, Velocity: 75
Note OFF: Time 32160, Note Name: F3
Note OFF: Time 32160, Note Name: F4
Note OFF: Time 32160, Note Name: B3
Note OFF: Time 32160, Note Name: D#4
Note ON: Time 32160, Note Name: F5, Velocity: 76
Note ON: Time 32160, Note Name: B4, Velocity: 63
Note ON: Time 32160, Note Name: D#5, Velocity: 63
Note ON: Time 32160, Note Name: F4, Velocity: 63
Note OFF: Time 32400, Note Name: F4
Note OFF: Time 32400, Note Name: F5
Note OFF: Time 32400, Note Name: B4
Note OFF: Time 32400, Note Name: D#5
Note ON: Time 32400, Note Name: D#4, Velocity: 61
Note ON: Time 32400, Note Name: D#5, Velocity: 74
Note OFF: Time 32640, Note Name: D#5
Note OFF: Time 32640, Note Name: D#4
Note ON: Time 32640, Note Name: F5, Velocity: 76
Note ON: Time 32640, Note Name: A#4, Velocity: 63
Note ON: Time 32640, Note Name: D5, Velocity: 63
Note ON: Time 32640, Note Name: F4, Velocity: 63
Note OFF: Time 32880, Note Name: F4
Note OFF: Time 32880, Note Name: F5
Note OFF: Time 32880, Note Name: A#4
Note OFF: Time 32880, Note Name: D5
Note ON: Time 32880, Note Name: F#4, Velocity: 59
Note ON: Time 32880, Note Name: F#5, Velocity: 72
Note OFF: Time 33120, Note Name: F#5
Note OFF: Time 33120, Note Name: F#4
Note ON: Time 33120, Note Name: F#3, Velocity: 52
Note ON: Time 33120, Note Name: F#4, Velocity: 63
Note OFF: Time 33210, Note Name: F#4
Note OFF: Time 33210, Note Name: F#3
Note ON: Time 33360, Note Name: F#3, Velocity: 55
Note ON: Time 33360, Note Name: F#4, Velocity: 66
Note OFF: Time 33450, Note Name: F#4
Note OFF: Time 33450, Note Name: F#3
Note ON: Time 33600, Note Name: F#3, Velocity: 57
Note ON: Time 33600, Note Name: F#4, Velocity: 67
Note OFF: Time 33690, Note Name: F#4
Note OFF: Time 33690, Note Name: F#3
Note ON: Time 33840, Note Name: F#3, Velocity: 57
Note ON: Time 33840, Note Name: F#4, Velocity: 66
Note OFF: Time 33930, Note Name: F#4
Note OFF: Time 33930, Note Name: F#3
Note ON: Time 34080, Note Name: F#3, Velocity: 68
Note ON: Time 34080, Note Name: F#4, Velocity: 79
Note OFF: Time 34560, Note Name: F#4
Note OFF: Time 34560, Note Name: F#3
Note ON: Time 34560, Note Name: G#3, Velocity: 72
Note ON: Time 34560, Note Name: D4, Velocity: 73
Note ON: Time 34560, Note Name: F#4, Velocity: 75
Note ON: Time 34560, Note Name: G#4, Velocity: 87
Note OFF: Time 35040, Note Name: G#4
Note OFF: Time 35040, Note Name: G#3
Note OFF: Time 35040, Note Name: D4
Note OFF: Time 35040, Note Name: F#4
Note ON: Time 35040, Note Name: G#5, Velocity: 76
Note ON: Time 35040, Note Name: D5, Velocity: 63
Note ON: Time 35040, Note Name: F#5, Velocity: 63
Note ON: Time 35040, Note Name: G#4, Velocity: 63
Note OFF: Time 35280, Note Name: G#4
Note OFF: Time 35280, Note Name: G#5
Note OFF: Time 35280, Note Name: D5
Note OFF: Time 35280, Note Name: F#5
Note ON: Time 35280, Note Name: F#4, Velocity: 61
Note ON: Time 35280, Note Name: F#5, Velocity: 74
Note OFF: Time 35520, Note Name: F#5
Note OFF: Time 35520, Note Name: F#4
Note ON: Time 35520, Note Name: G#5, Velocity: 76
Note ON: Time 35520, Note Name: C#5, Velocity: 63
Note ON: Time 35520, Note Name: F5, Velocity: 63
Note ON: Time 35520, Note Name: G#4, Velocity: 63
Note OFF: Time 35760, Note Name: G#4
Note OFF: Time 35760, Note Name: G#5
Note OFF: Time 35760, Note Name: C#5
Note OFF: Time 35760, Note Name: F5
Note ON: Time 35760, Note Name: A4, Velocity: 58
Note ON: Time 35760, Note Name: A5, Velocity: 71
Note OFF: Time 36000, Note Name: A5
Note OFF: Time 36000, Note Name: A4
Note ON: Time 36000, Note Name: A3, Velocity: 47
Note ON: Time 36000, Note Name: A4, Velocity: 56
Note OFF: Time 36090, Note Name: A4
Note OFF: Time 36090, Note Name: A3
Note ON: Time 36240, Note Name: A3, Velocity: 51
Note ON: Time 36240, Note Name: A4, Velocity: 60
Note OFF: Time 36330, Note Name: A4
Note OFF: Time 36330, Note Name: A3
Note ON: Time 36480, Note Name: A3, Velocity: 54
Note ON: Time 36480, Note Name: A4, Velocity: 64
Note OFF: Time 36570, Note Name: A4
Note OFF: Time 36570, Note Name: A3
Note ON: Time 36720, Note Name: A3, Velocity: 57
Note ON: Time 36720, Note Name: A4, Velocity: 68
Note OFF: Time 36810, Note Name: A4
Note OFF: Time 36810, Note Name: A3
Note ON: Time 36960, Note Name: A3, Velocity: 68
Note ON: Time 36960, Note Name: A4, Velocity: 80
Note OFF: Time 37440, Note Name: A4
Note OFF: Time 37440, Note Name: A3
Note ON: Time 37440, Note Name: B4, Velocity: 64
Note ON: Time 37440, Note Name: F4, Velocity: 53
Note ON: Time 37440, Note Name: A4, Velocity: 53
Note ON: Time 37440, Note Name: B3, Velocity: 53
Note OFF: Time 37530, Note Name: B3
Note OFF: Time 37530, Note Name: B4
Note OFF: Time 37530, Note Name: F4
Note OFF: Time 37530, Note Name: A4
Note ON: Time 37680, Note Name: B3, Velocity: 56
Note ON: Time 37680, Note Name: F4, Velocity: 56
Note ON: Time 37680, Note Name: A4, Velocity: 56
Note ON: Time 37680, Note Name: B4, Velocity: 67
Note OFF: Time 37770, Note Name: B4
Note OFF: Time 37770, Note Name: B3
Note OFF: Time 37770, Note Name: F4
Note OFF: Time 37770, Note Name: A4
Note ON: Time 37920, Note Name: B4, Velocity: 71
Note ON: Time 37920, Note Name: F4, Velocity: 60
Note ON: Time 37920, Note Name: A4, Velocity: 60
Note ON: Time 37920, Note Name: B3, Velocity: 60
Note OFF: Time 38010, Note Name: B3
Note OFF: Time 38010, Note Name: B4
Note OFF: Time 38010, Note Name: F4
Note OFF: Time 38010, Note Name: A4
Note ON: Time 38160, Note Name: B4, Velocity: 72
Note ON: Time 38160, Note Name: F4, Velocity: 60
Note ON: Time 38160, Note Name: A4, Velocity: 72
Note ON: Time 38160, Note Name: B3, Velocity: 60
Note OFF: Time 38250, Note Name: B3
Note OFF: Time 38250, Note Name: B4
Note OFF: Time 38250, Note Name: F4
Note OFF: Time 38250, Note Name: A4
Note ON: Time 38400, Note Name: B3, Velocity: 68
Note ON: Time 38400, Note Name: F4, Velocity: 68
Note ON: Time 38400, Note Name: A4, Velocity: 68
Note ON: Time 38400, Note Name: B4, Velocity: 81
Note OFF: Time 38880, Note Name: B4
Note OFF: Time 38880, Note Name: B3
Note OFF: Time 38880, Note Name: F4
Note OFF: Time 38880, Note Name: A4
Note ON: Time 38880, Note Name: C5, Velocity: 66
Note ON: Time 38880, Note Name: D#4, Velocity: 54
Note ON: Time 38880, Note Name: A4, Velocity: 54
Note ON: Time 38880, Note Name: C4, Velocity: 54
Note OFF: Time 38970, Note Name: C4
Note OFF: Time 38970, Note Name: C5
Note OFF: Time 38970, Note Name: D#4
Note OFF: Time 38970, Note Name: A4
Note ON: Time 39120, Note Name: C5, Velocity: 69
Note ON: Time 39120, Note Name: D#4, Velocity: 57
Note ON: Time 39120, Note Name: A4, Velocity: 57
Note ON: Time 39120, Note Name: C4, Velocity: 57
Note OFF: Time 39210, Note Name: C4
Note OFF: Time 39210, Note Name: C5
Note OFF: Time 39210, Note Name: D#4
Note OFF: Time 39210, Note Name: A4
Note ON: Time 39360, Note Name: C4, Velocity: 63
Note ON: Time 39360, Note Name: D#4, Velocity: 63
Note ON: Time 39360, Note Name: C5, Velocity: 74
Note OFF: Time 39450, Note Name: C5
Note OFF: Time 39450, Note Name: D#4
Note OFF: Time 39450, Note Name: C4
Note ON: Time 39600, Note Name: C4, Velocity: 55
Note ON: Time 39600, Note Name: D#4, Velocity: 55
Note ON: Time 39600, Note Name: C5, Velocity: 76
Note OFF: Time 39690, Note Name: C5
Note OFF: Time 39690, Note Name: D#4
Note OFF: Time 39690, Note Name: C4
Note ON: Time 39840, Note Name: F#4, Velocity: 73
Note ON: Time 39840, Note Name: C4, Velocity: 73
Note ON: Time 39840, Note Name: D#4, Velocity: 73
Note ON: Time 39840, Note Name: C5, Velocity: 86
Note OFF: Time 40320, Note Name: C5
Note OFF: Time 40320, Note Name: F#4
Note OFF: Time 40320, Note Name: C4
Note OFF: Time 40320, Note Name: D#4
Note ON: Time 40320, Note Name: E5, Velocity: 81
Note ON: Time 40320, Note Name: F#4, Velocity: 69
Note ON: Time 40320, Note Name: A4, Velocity: 69
Note ON: Time 40320, Note Name: E4, Velocity: 69
Note OFF: Time 40800, Note Name: E4
Note OFF: Time 40800, Note Name: E5
Note OFF: Time 40800, Note Name: F#4
Note OFF: Time 40800, Note Name: A4
Note ON: Time 40800, Note Name: D4, Velocity: 69
Note ON: Time 40800, Note Name: G4, Velocity: 69
Note ON: Time 40800, Note Name: D5, Velocity: 81
Note OFF: Time 41280, Note Name: D5
Note OFF: Time 41280, Note Name: G4
Note OFF: Time 41280, Note Name: D4
Note ON: Time 41280, Note Name: D3, Velocity: 72
Note ON: Time 41280, Note Name: D4, Velocity: 85
Note OFF: Time 41760, Note Name: D4
Note OFF: Time 41760, Note Name: D3
Note ON: Time 41760, Note Name: C#4, Velocity: 61
Note OFF: Time 42000, Note Name: C#4
Note ON: Time 42000, Note Name: C#4, Velocity: 59
Note OFF: Time 42240, Note Name: C#4
Note ON: Time 42240, Note Name: F#4, Velocity: 66
Note ON: Time 42240, Note Name: C#5, Velocity: 78
Note OFF: Time 42480, Note Name: C#5
Note OFF: Time 42480, Note Name: F#4
Note ON: Time 42480, Note Name: F#4, Velocity: 75
Note OFF: Time 42720, Note Name: F#4
Note ON: Time 42720, Note Name: A4, Velocity: 69
Note ON: Time 42720, Note Name: F#5, Velocity: 82
Note OFF: Time 42960, Note Name: F#5
Note OFF: Time 42960, Note Name: A4
Note ON: Time 42960, Note Name: A4, Velocity: 75
Note OFF: Time 43200, Note Name: A4
Note ON: Time 43200, Note Name: C#5, Velocity: 65
Note ON: Time 43200, Note Name: A5, Velocity: 76
Note OFF: Time 43440, Note Name: A5
Note OFF: Time 43440, Note Name: C#5
Note ON: Time 43440, Note Name: C#5, Velocity: 71
Note OFF: Time 43680, Note Name: C#5
Note ON: Time 43680, Note Name: F#5, Velocity: 66
Note ON: Time 43680, Note Name: C#6, Velocity: 78
Note OFF: Time 43920, Note Name: C#6
Note OFF: Time 43920, Note Name: F#5
Note ON: Time 43920, Note Name: F#5, Velocity: 75
Note OFF: Time 44160, Note Name: F#5
Note ON: Time 44160, Note Name: A5, Velocity: 69
Note ON: Time 44160, Note Name: F#6, Velocity: 82
Note OFF: Time 44400, Note Name: F#6
Note OFF: Time 44400, Note Name: A5
Note ON: Time 44400, Note Name: A5, Velocity: 75
Note OFF: Time 44640, Note Name: A5
Note ON: Time 44640, Note Name: C#6, Velocity: 69
Note ON: Time 44640, Note Name: A5, Velocity: 69
Note ON: Time 44640, Note Name: A6, Velocity: 82
Note OFF: Time 45120, Note Name: A6
Note OFF: Time 45120, Note Name: A5
Note OFF: Time 45120, Note Name: C#6
Note ON: Time 45120, Note Name: C#6, Velocity: 66
Note ON: Time 45120, Note Name: G#5, Velocity: 66
Note ON: Time 45120, Note Name: G#6, Velocity: 78
Note OFF: Time 45600, Note Name: G#6
Note OFF: Time 45600, Note Name: G#5
Note OFF: Time 45600, Note Name: C#6
Note ON: Time 45600, Note Name: C#6, Velocity: 73
Note ON: Time 45600, Note Name: G#5, Velocity: 61
Note ON: Time 45600, Note Name: C#5, Velocity: 61
Note OFF: Time 46080, Note Name: C#5
Note OFF: Time 46080, Note Name: G#5
Note OFF: Time 46080, Note Name: C#6
Note ON: Time 46080, Note Name: C#5, Velocity: 61
Note ON: Time 46080, Note Name: G#5, Velocity: 61
Note ON: Time 46080, Note Name: C#6, Velocity: 75
Note OFF: Time 46560, Note Name: G#5
Note OFF: Time 46560, Note Name: C#5
Note ON: Time 46560, Note Name: F#6, Velocity: 68
Note ON: Time 46560, Note Name: F#5, Velocity: 58
Note OFF: Time 47040, Note Name: F#5
Note OFF: Time 47040, Note Name: F#6
Note OFF: Time 47040, Note Name: C#6
Note ON: Time 47040, Note Name: C#5, Velocity: 58
Note ON: Time 47040, Note Name: G#4, Velocity: 48
Note ON: Time 47040, Note Name: C#4, Velocity: 40
Note OFF: Time 47520, Note Name: C#4
Note OFF: Time 47520, Note Name: G#4
Note OFF: Time 47520, Note Name: C#5
Note ON: Time 47520, Note Name: C#4, Velocity: 42
Note ON: Time 47520, Note Name: G#4, Velocity: 50
Note ON: Time 47520, Note Name: C#5, Velocity: 58
Note OFF: Time 48000, Note Name: G#4
Note OFF: Time 48000, Note Name: C#4
Note ON: Time 48000, Note Name: F#5, Velocity: 56
Note ON: Time 48000, Note Name: F#4, Velocity: 49
Note OFF: Time 48480, Note Name: F#4
Note OFF: Time 48480, Note Name: F#5
Note OFF: Time 48480, Note Name: C#5
Note ON: Time 48480, Note Name: C#5, Velocity: 56
Note ON: Time 48480, Note Name: G#4, Velocity: 46
Note ON: Time 48480, Note Name: C#4, Velocity: 38
Note OFF: Time 48960, Note Name: C#4
Note OFF: Time 48960, Note Name: G#4
Note OFF: Time 48960, Note Name: C#5
Note ON: Time 48960, Note Name: C#4, Velocity: 40
Note ON: Time 48960, Note Name: G#4, Velocity: 48
Note ON: Time 48960, Note Name: C#5, Velocity: 56
Note OFF: Time 49440, Note Name: G#4
Note OFF: Time 49440, Note Name: C#4
Note ON: Time 49440, Note Name: F#5, Velocity: 55
Note ON: Time 49440, Note Name: F#4, Velocity: 46
Note OFF: Time 49920, Note Name: F#4
Note OFF: Time 49920, Note Name: F#5
Note OFF: Time 49920, Note Name: C#5
Note ON: Time 49920, Note Name: C#4, Velocity: 69
Note ON: Time 49920, Note Name: C#5, Velocity: 81
Note OFF: Time 50880, Note Name: C#5
Note OFF: Time 50880, Note Name: C#4
Note ON: Time 50880, Note Name: D4, Velocity: 64
Note ON: Time 50880, Note Name: D5, Velocity: 75
Note OFF: Time 51120, Note Name: D5
Note OFF: Time 51120, Note Name: D4
Note ON: Time 51120, Note Name: C#4, Velocity: 59
Note ON: Time 51120, Note Name: C#5, Velocity: 71
Note OFF: Time 51360, Note Name: C#5
Note OFF: Time 51360, Note Name: C#4
Note ON: Time 51360, Note Name: G#3, Velocity: 63
Note ON: Time 51360, Note Name: G#4, Velocity: 73
Note OFF: Time 51600, Note Name: G#4
Note OFF: Time 51600, Note Name: G#3
Note ON: Time 51600, Note Name: A3, Velocity: 54
Note ON: Time 51600, Note Name: A4, Velocity: 65
Note OFF: Time 51840, Note Name: A4
Note OFF: Time 51840, Note Name: A3
Note ON: Time 51840, Note Name: F#3, Velocity: 58
Note ON: Time 51840, Note Name: F#4, Velocity: 70
Note OFF: Time 53280, Note Name: F#4
Note OFF: Time 53280, Note Name: F#3
Note ON: Time 53280, Note Name: D4, Velocity: 84
Note ON: Time 53280, Note Name: D5, Velocity: 84
Note OFF: Time 53760, Note Name: D5
Note OFF: Time 53760, Note Name: D4
Note ON: Time 53760, Note Name: A3, Velocity: 48
Note ON: Time 53760, Note Name: D4, Velocity: 48
Note OFF: Time 54000, Note Name: D4
Note OFF: Time 54000, Note Name: A3
Note ON: Time 54000, Note Name: A3, Velocity: 49
Note ON: Time 54000, Note Name: D4, Velocity: 49
Note OFF: Time 54240, Note Name: D4
Note OFF: Time 54240, Note Name: A3
Note ON: Time 54240, Note Name: G#3, Velocity: 50
Note ON: Time 54240, Note Name: C#4, Velocity: 50
Note OFF: Time 54480, Note Name: C#4
Note OFF: Time 54480, Note Name: G#3
Note ON: Time 54480, Note Name: A3, Velocity: 51
Note ON: Time 54480, Note Name: D4, Velocity: 51
Note OFF: Time 54720, Note Name: D4
Note OFF: Time 54720, Note Name: A3
Note ON: Time 54720, Note Name: A#3, Velocity: 52
Note ON: Time 54720, Note Name: D#4, Velocity: 52
Note OFF: Time 54960, Note Name: D#4
Note OFF: Time 54960, Note Name: A#3
Note ON: Time 54960, Note Name: B3, Velocity: 53
Note ON: Time 54960, Note Name: E4, Velocity: 53
Note OFF: Time 55200, Note Name: E4
Note OFF: Time 55200, Note Name: B3
Note ON: Time 55200, Note Name: C4, Velocity: 54
Note ON: Time 55200, Note Name: F4, Velocity: 54
Note OFF: Time 55440, Note Name: F4
Note OFF: Time 55440, Note Name: C4
Note ON: Time 55440, Note Name: C#4, Velocity: 55
Note ON: Time 55440, Note Name: F#4, Velocity: 55
Note OFF: Time 55680, Note Name: F#4
Note OFF: Time 55680, Note Name: C#4
Note ON: Time 55680, Note Name: D4, Velocity: 57
Note ON: Time 55680, Note Name: G4, Velocity: 57
Note OFF: Time 55920, Note Name: G4
Note OFF: Time 55920, Note Name: D4
Note ON: Time 55920, Note Name: D#4, Velocity: 59
Note ON: Time 55920, Note Name: G#4, Velocity: 59
Note OFF: Time 56160, Note Name: G#4
Note OFF: Time 56160, Note Name: D#4
Note ON: Time 56160, Note Name: E4, Velocity: 59
Note ON: Time 56160, Note Name: A4, Velocity: 59
Note OFF: Time 56400, Note Name: A4
Note OFF: Time 56400, Note Name: E4
Note ON: Time 56400, Note Name: F4, Velocity: 60
Note ON: Time 56400, Note Name: A#4, Velocity: 60
Note OFF: Time 56640, Note Name: A#4
Note OFF: Time 56640, Note Name: F4
Note ON: Time 56640, Note Name: F#4, Velocity: 64
Note ON: Time 56640, Note Name: B4, Velocity: 64
Note OFF: Time 56880, Note Name: B4
Note OFF: Time 56880, Note Name: F#4
Note ON: Time 56880, Note Name: G4, Velocity: 65
Note ON: Time 56880, Note Name: C5, Velocity: 65
Note OFF: Time 57120, Note Name: C5
Note OFF: Time 57120, Note Name: G4
Note ON: Time 57120, Note Name: G#4, Velocity: 66
Note ON: Time 57120, Note Name: C#5, Velocity: 66
Note OFF: Time 57360, Note Name: C#5
Note OFF: Time 57360, Note Name: G#4
Note ON: Time 57360, Note Name: A4, Velocity: 67
Note ON: Time 57360, Note Name: D5, Velocity: 67
Note OFF: Time 57600, Note Name: D5
Note OFF: Time 57600, Note Name: A4
Note ON: Time 57600, Note Name: A4, Velocity: 68
Note ON: Time 57600, Note Name: D5, Velocity: 68
Note OFF: Time 58080, Note Name: D5
Note OFF: Time 58080, Note Name: A4
Note ON: Time 58080, Note Name: A#4, Velocity: 73
Note ON: Time 58080, Note Name: D#5, Velocity: 73
Note OFF: Time 58560, Note Name: D#5
Note OFF: Time 58560, Note Name: A#4
Note ON: Time 58560, Note Name: D#6, Velocity: 80
Note ON: Time 58560, Note Name: A#5, Velocity: 80
Note ON: Time 58560, Note Name: D#5, Velocity: 80
Note OFF: Time 58800, Note Name: D#5
Note OFF: Time 58800, Note Name: A#5
Note OFF: Time 58800, Note Name: D#6
Note ON: Time 59040, Note Name: D#6, Velocity: 91
Note ON: Time 59040, Note Name: D#7, Velocity: 79
Note OFF: Time 59520, Note Name: D#7
Note OFF: Time 59520, Note Name: D#6
Note ON: Time 59520, Note Name: A#3, Velocity: 48
Note ON: Time 59520, Note Name: D#4, Velocity: 48
Note OFF: Time 59760, Note Name: D#4
Note OFF: Time 59760, Note Name: A#3
Note ON: Time 59760, Note Name: D#4, Velocity: 49
Note ON: Time 59760, Note Name: A#3, Velocity: 49
Note OFF: Time 60000, Note Name: A#3
Note OFF: Time 60000, Note Name: D#4
Note ON: Time 60000, Note Name: A3, Velocity: 50
Note ON: Time 60000, Note Name: D4, Velocity: 50
Note OFF: Time 60240, Note Name: D4
Note OFF: Time 60240, Note Name: A3
Note ON: Time 60240, Note Name: A#3, Velocity: 51
Note ON: Time 60240, Note Name: D#4, Velocity: 51
Note OFF: Time 60480, Note Name: D#4
Note OFF: Time 60480, Note Name: A#3
Note ON: Time 60480, Note Name: B3, Velocity: 52
Note ON: Time 60480, Note Name: E4, Velocity: 52
Note OFF: Time 60720, Note Name: E4
Note OFF: Time 60720, Note Name: B3
Note ON: Time 60720, Note Name: C4, Velocity: 53
Note ON: Time 60720, Note Name: F4, Velocity: 53
Note OFF: Time 60960, Note Name: F4
Note OFF: Time 60960, Note Name: C4
Note ON: Time 60960, Note Name: C#4, Velocity: 54
Note ON: Time 60960, Note Name: F#4, Velocity: 54
Note OFF: Time 61200, Note Name: F#4
Note OFF: Time 61200, Note Name: C#4
Note ON: Time 61200, Note Name: D4, Velocity: 55
Note ON: Time 61200, Note Name: G4, Velocity: 55
Note OFF: Time 61440, Note Name: G4
Note OFF: Time 61440, Note Name: D4
Note ON: Time 61440, Note Name: D#4, Velocity: 57
Note ON: Time 61440, Note Name: G#4, Velocity: 57
Note OFF: Time 61680, Note Name: G#4
Note OFF: Time 61680, Note Name: D#4
Note ON: Time 61680, Note Name: E4, Velocity: 59
Note ON: Time 61680, Note Name: A4, Velocity: 59
Note OFF: Time 61920, Note Name: A4
Note OFF: Time 61920, Note Name: E4
Note ON: Time 61920, Note Name: F4, Velocity: 59
Note ON: Time 61920, Note Name: A#4, Velocity: 59
Note OFF: Time 62160, Note Name: A#4
Note OFF: Time 62160, Note Name: F4
Note ON: Time 62160, Note Name: F#4, Velocity: 60
Note ON: Time 62160, Note Name: B4, Velocity: 60
Note OFF: Time 62400, Note Name: B4
Note OFF: Time 62400, Note Name: F#4
Note ON: Time 62400, Note Name: G4, Velocity: 64
Note ON: Time 62400, Note Name: C5, Velocity: 64
Note OFF: Time 62640, Note Name: C5
Note OFF: Time 62640, Note Name: G4
Note ON: Time 62640, Note Name: G#4, Velocity: 65
Note ON: Time 62640, Note Name: C#5, Velocity: 65
Note OFF: Time 62880, Note Name: C#5
Note OFF: Time 62880, Note Name: G#4
Note ON: Time 62880, Note Name: A4, Velocity: 66
Note ON: Time 62880, Note Name: D5, Velocity: 66
Note OFF: Time 63120, Note Name: D5
Note OFF: Time 63120, Note Name: A4
Note ON: Time 63120, Note Name: A#4, Velocity: 67
Note ON: Time 63120, Note Name: D#5, Velocity: 67
Note OFF: Time 63360, Note Name: D#5
Note OFF: Time 63360, Note Name: A#4
Note ON: Time 63360, Note Name: A#4, Velocity: 68
Note ON: Time 63360, Note Name: D#5, Velocity: 68
Note OFF: Time 63840, Note Name: D#5
Note OFF: Time 63840, Note Name: A#4
Note ON: Time 63840, Note Name: B4, Velocity: 73
Note ON: Time 63840, Note Name: E5, Velocity: 73
Note OFF: Time 64320, Note Name: E5
Note OFF: Time 64320, Note Name: B4
Note ON: Time 64320, Note Name: E6, Velocity: 80
Note ON: Time 64320, Note Name: B5, Velocity: 80
Note ON: Time 64320, Note Name: E5, Velocity: 80
Note OFF: Time 64560, Note Name: E5
Note OFF: Time 64560, Note Name: B5
Note OFF: Time 64560, Note Name: E6
Note ON: Time 64800, Note Name: E6, Velocity: 91
Note ON: Time 64800, Note Name: E7, Velocity: 85
Note OFF: Time 65280, Note Name: E7
Note OFF: Time 65280, Note Name: E6
Note ON: Time 65280, Note Name: E4, Velocity: 58
Note ON: Time 65280, Note Name: E5, Velocity: 70
Note OFF: Time 65520, Note Name: E5
Note OFF: Time 65520, Note Name: E4
Note ON: Time 65520, Note Name: E4, Velocity: 58
Note ON: Time 65520, Note Name: E5, Velocity: 70
Note OFF: Time 65760, Note Name: E5
Note OFF: Time 65760, Note Name: E4
Note ON: Time 65760, Note Name: D#4, Velocity: 53
Note ON: Time 65760, Note Name: D#5, Velocity: 64
Note OFF: Time 66000, Note Name: D#5
Note OFF: Time 66000, Note Name: D#4
Note ON: Time 66000, Note Name: E4, Velocity: 53
Note ON: Time 66000, Note Name: E5, Velocity: 64
Note OFF: Time 66240, Note Name: E5
Note OFF: Time 66240, Note Name: E4
Note ON: Time 66240, Note Name: F4, Velocity: 58
Note ON: Time 66240, Note Name: F5, Velocity: 70
Note OFF: Time 66480, Note Name: F5
Note OFF: Time 66480, Note Name: F4
Note ON: Time 66480, Note Name: F#4, Velocity: 53
Note ON: Time 66480, Note Name: F#5, Velocity: 64
Note OFF: Time 66720, Note Name: F#5
Note OFF: Time 66720, Note Name: F#4
Note ON: Time 66720, Note Name: G4, Velocity: 58
Note ON: Time 66720, Note Name: G5, Velocity: 70
Note OFF: Time 66840, Note Name: G5
Note OFF: Time 66840, Note Name: G4
Note ON: Time 66960, Note Name: G4, Velocity: 54
Note ON: Time 66960, Note Name: G5, Velocity: 65
Note OFF: Time 67080, Note Name: G5
Note OFF: Time 67080, Note Name: G4
Note ON: Time 67200, Note Name: G4, Velocity: 54
Note ON: Time 67200, Note Name: G5, Velocity: 65
Note OFF: Time 67320, Note Name: G5
Note OFF: Time 67320, Note Name: G4
Note ON: Time 67440, Note Name: G4, Velocity: 54
Note ON: Time 67440, Note Name: G5, Velocity: 65
Note OFF: Time 67560, Note Name: G5
Note OFF: Time 67560, Note Name: G4
Note ON: Time 67680, Note Name: G4, Velocity: 58
Note ON: Time 67680, Note Name: G5, Velocity: 70
Note OFF: Time 67920, Note Name: G5
Note OFF: Time 67920, Note Name: G4
Note ON: Time 67920, Note Name: F#4, Velocity: 54
Note ON: Time 67920, Note Name: F#5, Velocity: 65
Note OFF: Time 68160, Note Name: F#5
Note OFF: Time 68160, Note Name: F#4
Note ON: Time 68160, Note Name: F#4, Velocity: 58
Note ON: Time 68160, Note Name: F#5, Velocity: 70
Note OFF: Time 68280, Note Name: F#5
Note OFF: Time 68280, Note Name: F#4
Note ON: Time 68400, Note Name: F#4, Velocity: 54
Note ON: Time 68400, Note Name: F#5, Velocity: 65
Note OFF: Time 68520, Note Name: F#5
Note OFF: Time 68520, Note Name: F#4
Note ON: Time 68640, Note Name: F4, Velocity: 54
Note ON: Time 68640, Note Name: F5, Velocity: 65
Note OFF: Time 68760, Note Name: F5
Note OFF: Time 68760, Note Name: F4
Note ON: Time 68880, Note Name: F#4, Velocity: 54
Note ON: Time 68880, Note Name: F#5, Velocity: 65
Note OFF: Time 69000, Note Name: F#5
Note OFF: Time 69000, Note Name: F#4
Note ON: Time 69120, Note Name: G4, Velocity: 58
Note ON: Time 69120, Note Name: G5, Velocity: 70
Note OFF: Time 69360, Note Name: G5
Note OFF: Time 69360, Note Name: G4
Note ON: Time 69360, Note Name: G#4, Velocity: 53
Note ON: Time 69360, Note Name: G#5, Velocity: 63
Note OFF: Time 69600, Note Name: G#5
Note OFF: Time 69600, Note Name: G#4
Note ON: Time 69600, Note Name: A4, Velocity: 54
Note ON: Time 69600, Note Name: A5, Velocity: 65
Note OFF: Time 69720, Note Name: A5
Note OFF: Time 69720, Note Name: A4
Note ON: Time 69840, Note Name: A4, Velocity: 56
Note ON: Time 69840, Note Name: A5, Velocity: 67
Note OFF: Time 69960, Note Name: A5
Note OFF: Time 69960, Note Name: A4
Note ON: Time 70080, Note Name: A4, Velocity: 58
Note ON: Time 70080, Note Name: A5, Velocity: 70
Note OFF: Time 70200, Note Name: A5
Note OFF: Time 70200, Note Name: A4
Note ON: Time 70320, Note Name: A4, Velocity: 60
Note ON: Time 70320, Note Name: A5, Velocity: 72
Note OFF: Time 70440, Note Name: A5
Note OFF: Time 70440, Note Name: A4
Note ON: Time 70560, Note Name: A4, Velocity: 66
Note ON: Time 70560, Note Name: A5, Velocity: 78
Note OFF: Time 70800, Note Name: A5
Note OFF: Time 70800, Note Name: A4
Note ON: Time 70800, Note Name: G#4, Velocity: 60
Note ON: Time 70800, Note Name: G#5, Velocity: 72
Note OFF: Time 71040, Note Name: G#5
Note OFF: Time 71040, Note Name: G#4
Note ON: Time 71040, Note Name: G#4, Velocity: 63
Note ON: Time 71040, Note Name: G#5, Velocity: 74
Note OFF: Time 71160, Note Name: G#5
Note OFF: Time 71160, Note Name: G#4
Note ON: Time 71280, Note Name: G#4, Velocity: 65
Note ON: Time 71280, Note Name: G#5, Velocity: 76
Note OFF: Time 71400, Note Name: G#5
Note OFF: Time 71400, Note Name: G#4
Note ON: Time 71520, Note Name: G4, Velocity: 65
Note ON: Time 71520, Note Name: G5, Velocity: 77
Note OFF: Time 71640, Note Name: G5
Note OFF: Time 71640, Note Name: G4
Note ON: Time 71760, Note Name: G#4, Velocity: 68
Note ON: Time 71760, Note Name: G#5, Velocity: 80
Note OFF: Time 71880, Note Name: G#5
Note OFF: Time 71880, Note Name: G#4
Note ON: Time 72000, Note Name: G#4, Velocity: 77
Note ON: Time 72000, Note Name: C#5, Velocity: 77
Note ON: Time 72000, Note Name: G#5, Velocity: 91
Note OFF: Time 72420, Note Name: G#5
Note OFF: Time 72420, Note Name: C#5
Note OFF: Time 72420, Note Name: G#4
Note ON: Time 72420, Note Name: A#4, Velocity: 55
Note ON: Time 72420, Note Name: A#5, Velocity: 63
Note OFF: Time 72480, Note Name: A#5
Note OFF: Time 72480, Note Name: A#4
Note ON: Time 72480, Note Name: G#4, Velocity: 73
Note ON: Time 72480, Note Name: C#5, Velocity: 73
Note ON: Time 72480, Note Name: G#5, Velocity: 86
Note OFF: Time 72720, Note Name: G#5
Note OFF: Time 72720, Note Name: C#5
Note OFF: Time 72720, Note Name: G#4
Note ON: Time 72720, Note Name: G4, Velocity: 66
Note ON: Time 72720, Note Name: G5, Velocity: 79
Note OFF: Time 72960, Note Name: G5
Note OFF: Time 72960, Note Name: G4
Note ON: Time 72960, Note Name: G#4, Velocity: 73
Note ON: Time 72960, Note Name: C#5, Velocity: 73
Note ON: Time 72960, Note Name: G#5, Velocity: 88
Note OFF: Time 73200, Note Name: G#5
Note OFF: Time 73200, Note Name: C#5
Note OFF: Time 73200, Note Name: G#4
Note ON: Time 73200, Note Name: A#4, Velocity: 69
Note ON: Time 73200, Note Name: A#5, Velocity: 82
Note OFF: Time 73440, Note Name: A#5
Note OFF: Time 73440, Note Name: A#4
Note ON: Time 73440, Note Name: C#5, Velocity: 76
Note ON: Time 73440, Note Name: G#4, Velocity: 76
Note ON: Time 73440, Note Name: G#5, Velocity: 90
Note OFF: Time 73920, Note Name: G#5
Note OFF: Time 73920, Note Name: G#4
Note OFF: Time 73920, Note Name: C#5
Note ON: Time 73920, Note Name: G#6, Velocity: 95
Note ON: Time 73920, Note Name: G#5, Velocity: 79
Note OFF: Time 74160, Note Name: G#5
Note OFF: Time 74160, Note Name: G#6
Note ON: Time 74400, Note Name: F#4, Velocity: 73
Note ON: Time 74400, Note Name: C#5, Velocity: 73
Note ON: Time 74400, Note Name: F#5, Velocity: 88
Note OFF: Time 74880, Note Name: F#5
Note OFF: Time 74880, Note Name: C#5
Note OFF: Time 74880, Note Name: F#4
Note ON: Time 74880, Note Name: F#4, Velocity: 65
Note ON: Time 74880, Note Name: B4, Velocity: 65
Note ON: Time 74880, Note Name: F#5, Velocity: 77
Note OFF: Time 75300, Note Name: F#5
Note OFF: Time 75300, Note Name: B4
Note OFF: Time 75300, Note Name: F#4
Note ON: Time 75300, Note Name: G#4, Velocity: 61
Note ON: Time 75300, Note Name: G#5, Velocity: 61
Note OFF: Time 75360, Note Name: G#5
Note OFF: Time 75360, Note Name: G#4
Note ON: Time 75360, Note Name: F#4, Velocity: 70
Note ON: Time 75360, Note Name: B4, Velocity: 70
Note ON: Time 75360, Note Name: F#5, Velocity: 82
Note OFF: Time 75600, Note Name: F#5
Note OFF: Time 75600, Note Name: B4
Note OFF: Time 75600, Note Name: F#4
Note ON: Time 75600, Note Name: F4, Velocity: 67
Note ON: Time 75600, Note Name: F5, Velocity: 79
Note OFF: Time 75840, Note Name: F5
Note OFF: Time 75840, Note Name: F4
Note ON: Time 75840, Note Name: F#4, Velocity: 70
Note ON: Time 75840, Note Name: B4, Velocity: 70
Note ON: Time 75840, Note Name: F#5, Velocity: 84
Note OFF: Time 76080, Note Name: F#5
Note OFF: Time 76080, Note Name: B4
Note OFF: Time 76080, Note Name: F#4
Note ON: Time 76080, Note Name: G#4, Velocity: 67
Note ON: Time 76080, Note Name: G#5, Velocity: 79
Note OFF: Time 76320, Note Name: G#5
Note OFF: Time 76320, Note Name: G#4
Note ON: Time 76320, Note Name: B4, Velocity: 76
Note ON: Time 76320, Note Name: F#4, Velocity: 76
Note ON: Time 76320, Note Name: F#5, Velocity: 90
Note OFF: Time 76800, Note Name: F#5
Note OFF: Time 76800, Note Name: F#4
Note OFF: Time 76800, Note Name: B4
Note ON: Time 76800, Note Name: F#6, Velocity: 92
Note ON: Time 76800, Note Name: F#5, Velocity: 79
Note OFF: Time 77040, Note Name: F#5
Note OFF: Time 77040, Note Name: F#6
Note ON: Time 77280, Note Name: E4, Velocity: 73
Note ON: Time 77280, Note Name: B4, Velocity: 73
Note ON: Time 77280, Note Name: E5, Velocity: 88
Note OFF: Time 77760, Note Name: E5
Note OFF: Time 77760, Note Name: B4
Note OFF: Time 77760, Note Name: E4
Note ON: Time 77760, Note Name: E4, Velocity: 77
Note ON: Time 77760, Note Name: A4, Velocity: 77
Note ON: Time 77760, Note Name: E5, Velocity: 91
Note OFF: Time 78180, Note Name: E5
Note OFF: Time 78180, Note Name: A4
Note OFF: Time 78180, Note Name: E4
Note ON: Time 78180, Note Name: F#4, Velocity: 55
Note ON: Time 78180, Note Name: F#5, Velocity: 63
Note OFF: Time 78240, Note Name: F#5
Note OFF: Time 78240, Note Name: F#4
Note ON: Time 78240, Note Name: E4, Velocity: 77
Note ON: Time 78240, Note Name: A4, Velocity: 77
Note ON: Time 78240, Note Name: E5, Velocity: 91
Note OFF: Time 78480, Note Name: E5
Note OFF: Time 78480, Note Name: A4
Note OFF: Time 78480, Note Name: E4
Note ON: Time 78480, Note Name: D#4, Velocity: 69
Note ON: Time 78480, Note Name: D#5, Velocity: 82
Note OFF: Time 78720, Note Name: D#5
Note OFF: Time 78720, Note Name: D#4
Note ON: Time 78720, Note Name: E4, Velocity: 73
Note ON: Time 78720, Note Name: A4, Velocity: 73
Note ON: Time 78720, Note Name: E5, Velocity: 88
Note OFF: Time 78960, Note Name: E5
Note OFF: Time 78960, Note Name: A4
Note OFF: Time 78960, Note Name: E4
Note ON: Time 78960, Note Name: F#4, Velocity: 69
Note ON: Time 78960, Note Name: F#5, Velocity: 82
Note OFF: Time 79200, Note Name: F#5
Note OFF: Time 79200, Note Name: F#4
Note ON: Time 79200, Note Name: D#4, Velocity: 76
Note ON: Time 79200, Note Name: A4, Velocity: 76
Note ON: Time 79200, Note Name: D#5, Velocity: 90
Note OFF: Time 79440, Note Name: D#5
Note OFF: Time 79440, Note Name: A4
Note OFF: Time 79440, Note Name: D#4
Note ON: Time 79440, Note Name: D#4, Velocity: 74
Note OFF: Time 79680, Note Name: D#4
Note ON: Time 79680, Note Name: F#4, Velocity: 71
Note ON: Time 79680, Note Name: D#5, Velocity: 84
Note OFF: Time 79920, Note Name: D#5
Note OFF: Time 79920, Note Name: F#4
Note ON: Time 79920, Note Name: D#5, Velocity: 81
Note OFF: Time 80160, Note Name: D#5
Note ON: Time 80160, Note Name: D#6, Velocity: 89
Note ON: Time 80160, Note Name: F#5, Velocity: 74
Note OFF: Time 80400, Note Name: F#5
Note OFF: Time 80400, Note Name: D#6
Note ON: Time 80400, Note Name: D#6, Velocity: 88
Note OFF: Time 80640, Note Name: D#6
Note ON: Time 80640, Note Name: D#7, Velocity: 93
Note ON: Time 80640, Note Name: F#6, Velocity: 77
Note OFF: Time 81120, Note Name: F#6
Note OFF: Time 81120, Note Name: D#7
Note ON: Time 81120, Note Name: D#4, Velocity: 70
Note ON: Time 81120, Note Name: A4, Velocity: 82
Note ON: Time 81120, Note Name: F#4, Velocity: 70
Note OFF: Time 81360, Note Name: F#4
Note OFF: Time 81360, Note Name: A4
Note OFF: Time 81360, Note Name: D#4
Note ON: Time 81600, Note Name: F#4, Velocity: 67
Note ON: Time 81600, Note Name: A4, Velocity: 67
Note ON: Time 81600, Note Name: F#5, Velocity: 79
Note OFF: Time 81840, Note Name: F#5
Note OFF: Time 81840, Note Name: A4
Note OFF: Time 81840, Note Name: F#4
Note ON: Time 82080, Note Name: F4, Velocity: 70
Note ON: Time 82080, Note Name: A#4, Velocity: 70
Note ON: Time 82080, Note Name: F5, Velocity: 82
Note OFF: Time 82320, Note Name: F5
Note OFF: Time 82320, Note Name: A#4
Note OFF: Time 82320, Note Name: F4
Note ON: Time 82560, Note Name: A#3, Velocity: 52
Note ON: Time 82560, Note Name: F4, Velocity: 52
Note ON: Time 82560, Note Name: A#4, Velocity: 61
Note OFF: Time 82800, Note Name: A#4
Note OFF: Time 82800, Note Name: F4
Note OFF: Time 82800, Note Name: A#3
Note ON: Time 83040, Note Name: D#5, Velocity: 66
Note ON: Time 83040, Note Name: F#4, Velocity: 56
Note ON: Time 83040, Note Name: C5, Velocity: 66
Note ON: Time 83040, Note Name: D#4, Velocity: 56
Note OFF: Time 83280, Note Name: D#4
Note OFF: Time 83280, Note Name: D#5
Note OFF: Time 83280, Note Name: F#4
Note OFF: Time 83280, Note Name: C5
Note ON: Time 83520, Note Name: C#4, Velocity: 57
Note ON: Time 83520, Note Name: F4, Velocity: 57
Note ON: Time 83520, Note Name: A#4, Velocity: 68
Note ON: Time 83520, Note Name: C#5, Velocity: 68
Note OFF: Time 83760, Note Name: C#5
Note OFF: Time 83760, Note Name: C#4
Note OFF: Time 83760, Note Name: F4
Note OFF: Time 83760, Note Name: A#4
Note ON: Time 84000, Note Name: C#4, Velocity: 50
Note ON: Time 84000, Note Name: F4, Velocity: 60
Note OFF: Time 84240, Note Name: F4
Note OFF: Time 84240, Note Name: C#4
Note ON: Time 84480, Note Name: D#4, Velocity: 49
Note ON: Time 84480, Note Name: F4, Velocity: 49
Note ON: Time 84480, Note Name: A4, Velocity: 58
Note ON: Time 84480, Note Name: C5, Velocity: 58
Note OFF: Time 84720, Note Name: C5
Note OFF: Time 84720, Note Name: D#4
Note OFF: Time 84720, Note Name: F4
Note OFF: Time 84720, Note Name: A4
Note ON: Time 84960, Note Name: C#4, Velocity: 46
Note ON: Time 84960, Note Name: F4, Velocity: 46
Note ON: Time 84960, Note Name: A#4, Velocity: 55
Note OFF: Time 85200, Note Name: A#4
Note OFF: Time 85200, Note Name: F4
Note OFF: Time 85200, Note Name: C#4
Note ON: Time 85440, Note Name: F3, Velocity: 38
Note ON: Time 85440, Note Name: A#3, Velocity: 48
Note OFF: Time 85680, Note Name: A#3
Note OFF: Time 85680, Note Name: F3
Note ON: Time 85920, Note Name: D#4, Velocity: 50
Note ON: Time 85920, Note Name: A#3, Velocity: 40
Note ON: Time 85920, Note Name: F#3, Velocity: 40
Note OFF: Time 86160, Note Name: F#3
Note OFF: Time 86160, Note Name: A#3
Note OFF: Time 86160, Note Name: D#4
Note ON: Time 86400, Note Name: F3, Velocity: 43
Note ON: Time 86400, Note Name: A#3, Velocity: 43
Note ON: Time 86400, Note Name: C#4, Velocity: 51
Note OFF: Time 86640, Note Name: C#4
Note OFF: Time 86640, Note Name: A#3
Note OFF: Time 86640, Note Name: F3
Note ON: Time 86880, Note Name: F3, Velocity: 45
Note OFF: Time 87120, Note Name: F3
Note ON: Time 87360, Note Name: C4, Velocity: 45
Note ON: Time 87360, Note Name: A3, Velocity: 37
Note ON: Time 87360, Note Name: D#3, Velocity: 37
Note OFF: Time 87600, Note Name: D#3
Note OFF: Time 87600, Note Name: A3
Note OFF: Time 87600, Note Name: C4
Note ON: Time 87840, Note Name: A#3, Velocity: 46
Note ON: Time 87840, Note Name: A#4, Velocity: 46
Note OFF: Time 89760, Note Name: A#4
Note OFF: Time 89760, Note Name: A#3
Note ON: Time 89760, Note Name: A#4, Velocity: 46
Note ON: Time 89760, Note Name: A#5, Velocity: 46
Note OFF: Time 90240, Note Name: A#5
Note OFF: Time 90240, Note Name: A#4
Note ON: Time 90240, Note Name: A#6, Velocity: 46
Note ON: Time 90240, Note Name: A#5, Velocity: 46
Note OFF: Time 90720, Note Name: A#5
Note OFF: Time 90720, Note Name: A#6
Note ON: Time 90720, Note Name: A#4, Velocity: 46
Note ON: Time 90720, Note Name: A#3, Velocity: 46
Note OFF: Time 92640, Note Name: A#3
Note OFF: Time 92640, Note Name: A#4
Note ON: Time 92640, Note Name: A#4, Velocity: 53
Note ON: Time 92640, Note Name: A#5, Velocity: 53
Note OFF: Time 93120, Note Name: A#5
Note OFF: Time 93120, Note Name: A#4
Note ON: Time 93120, Note Name: A#6, Velocity: 59
Note ON: Time 93120, Note Name: A#5, Velocity: 59
Note OFF: Time 93600, Note Name: A#5
Note OFF: Time 93600, Note Name: A#6
Note ON: Time 93600, Note Name: D#3, Velocity: 52
Note ON: Time 93600, Note Name: D#4, Velocity: 63
Note OFF: Time 93690, Note Name: D#4
Note OFF: Time 93690, Note Name: D#3
Note ON: Time 93840, Note Name: D#3, Velocity: 55
Note ON: Time 93840, Note Name: D#4, Velocity: 66
Note OFF: Time 93930, Note Name: D#4
Note OFF: Time 93930, Note Name: D#3
Note ON: Time 94080, Note Name: D#4, Velocity: 67
Note ON: Time 94080, Note Name: D#3, Velocity: 57
Note OFF: Time 94170, Note Name: D#3
Note OFF: Time 94170, Note Name: D#4
Note ON: Time 94320, Note Name: D#4, Velocity: 68
Note ON: Time 94320, Note Name: D#3, Velocity: 59
Note OFF: Time 94410, Note Name: D#3
Note OFF: Time 94410, Note Name: D#4
Note ON: Time 94560, Note Name: D#4, Velocity: 79
Note ON: Time 94560, Note Name: D#3, Velocity: 66
Note OFF: Time 95040, Note Name: D#3
Note OFF: Time 95040, Note Name: D#4
Note ON: Time 95040, Note Name: F3, Velocity: 73
Note ON: Time 95040, Note Name: D#4, Velocity: 75
Note ON: Time 95040, Note Name: B3, Velocity: 71
Note ON: Time 95040, Note Name: F4, Velocity: 88
Note OFF: Time 95520, Note Name: F4
Note OFF: Time 95520, Note Name: F3
Note OFF: Time 95520, Note Name: D#4
Note OFF: Time 95520, Note Name: B3
Note ON: Time 95520, Note Name: B4, Velocity: 63
Note ON: Time 95520, Note Name: F5, Velocity: 76
Note ON: Time 95520, Note Name: D#5, Velocity: 63
Note ON: Time 95520, Note Name: F4, Velocity: 63
Note OFF: Time 95760, Note Name: F4
Note OFF: Time 95760, Note Name: B4
Note OFF: Time 95760, Note Name: F5
Note OFF: Time 95760, Note Name: D#5
Note ON: Time 95760, Note Name: D#4, Velocity: 61
Note ON: Time 95760, Note Name: D#5, Velocity: 74
Note OFF: Time 96000, Note Name: D#5
Note OFF: Time 96000, Note Name: D#4
Note ON: Time 96000, Note Name: F4, Velocity: 63
Note ON: Time 96000, Note Name: D5, Velocity: 63
Note ON: Time 96000, Note Name: F5, Velocity: 76
Note ON: Time 96000, Note Name: A#4, Velocity: 63
Note OFF: Time 96240, Note Name: A#4
Note OFF: Time 96240, Note Name: F4
Note OFF: Time 96240, Note Name: D5
Note OFF: Time 96240, Note Name: F5
Note ON: Time 96240, Note Name: F#5, Velocity: 72
Note ON: Time 96240, Note Name: F#4, Velocity: 59
Note OFF: Time 96480, Note Name: F#4
Note OFF: Time 96480, Note Name: F#5
Note ON: Time 96480, Note Name: F#4, Velocity: 63
Note ON: Time 96480, Note Name: F#3, Velocity: 52
Note OFF: Time 96570, Note Name: F#3
Note OFF: Time 96570, Note Name: F#4
Note ON: Time 96720, Note Name: F#3, Velocity: 55
Note ON: Time 96720, Note Name: F#4, Velocity: 66
Note OFF: Time 96810, Note Name: F#4
Note OFF: Time 96810, Note Name: F#3
Note ON: Time 96960, Note Name: F#3, Velocity: 57
Note ON: Time 96960, Note Name: F#4, Velocity: 67
Note OFF: Time 97050, Note Name: F#4
Note OFF: Time 97050, Note Name: F#3
Note ON: Time 97200, Note Name: F#4, Velocity: 66
Note ON: Time 97200, Note Name: F#3, Velocity: 57
Note OFF: Time 97290, Note Name: F#3
Note OFF: Time 97290, Note Name: F#4
Note ON: Time 97440, Note Name: F#4, Velocity: 79
Note ON: Time 97440, Note Name: F#3, Velocity: 68
Note OFF: Time 97920, Note Name: F#3
Note OFF: Time 97920, Note Name: F#4
Note ON: Time 97920, Note Name: G#3, Velocity: 72
Note ON: Time 97920, Note Name: D4, Velocity: 73
Note ON: Time 97920, Note Name: F#4, Velocity: 75
Note ON: Time 97920, Note Name: G#4, Velocity: 87
Note OFF: Time 98400, Note Name: G#4
Note OFF: Time 98400, Note Name: G#3
Note OFF: Time 98400, Note Name: D4
Note OFF: Time 98400, Note Name: F#4
Note ON: Time 98400, Note Name: G#4, Velocity: 63
Note ON: Time 98400, Note Name: F#5, Velocity: 63
Note ON: Time 98400, Note Name: G#5, Velocity: 76
Note ON: Time 98400, Note Name: D5, Velocity: 63
Note OFF: Time 98640, Note Name: D5
Note OFF: Time 98640, Note Name: G#4
Note OFF: Time 98640, Note Name: F#5
Note OFF: Time 98640, Note Name: G#5
Note ON: Time 98640, Note Name: F#4, Velocity: 61
Note ON: Time 98640, Note Name: F#5, Velocity: 74
Note OFF: Time 98880, Note Name: F#5
Note OFF: Time 98880, Note Name: F#4
Note ON: Time 98880, Note Name: G#4, Velocity: 63
Note ON: Time 98880, Note Name: F5, Velocity: 63
Note ON: Time 98880, Note Name: G#5, Velocity: 76
Note ON: Time 98880, Note Name: C#5, Velocity: 63
Note OFF: Time 99120, Note Name: C#5
Note OFF: Time 99120, Note Name: G#4
Note OFF: Time 99120, Note Name: F5
Note OFF: Time 99120, Note Name: G#5
Note ON: Time 99120, Note Name: A5, Velocity: 72
Note ON: Time 99120, Note Name: A4, Velocity: 59
Note OFF: Time 99360, Note Name: A4
Note OFF: Time 99360, Note Name: A5
Note ON: Time 99360, Note Name: A4, Velocity: 56
Note ON: Time 99360, Note Name: A3, Velocity: 47
Note OFF: Time 99450, Note Name: A3
Note OFF: Time 99450, Note Name: A4
Note ON: Time 99600, Note Name: A3, Velocity: 51
Note ON: Time 99600, Note Name: A4, Velocity: 60
Note OFF: Time 99690, Note Name: A4
Note OFF: Time 99690, Note Name: A3
Note ON: Time 99840, Note Name: A3, Velocity: 54
Note ON: Time 99840, Note Name: A4, Velocity: 64
Note OFF: Time 99930, Note Name: A4
Note OFF: Time 99930, Note Name: A3
Note ON: Time 100080, Note Name: A3, Velocity: 57
Note ON: Time 100080, Note Name: A4, Velocity: 68
Note OFF: Time 100170, Note Name: A4
Note OFF: Time 100170, Note Name: A3
Note ON: Time 100320, Note Name: A4, Velocity: 82
Note ON: Time 100320, Note Name: A3, Velocity: 70
Note OFF: Time 100800, Note Name: A3
Note OFF: Time 100800, Note Name: A4
Note ON: Time 100800, Note Name: A#4, Velocity: 63
Note ON: Time 100800, Note Name: A#3, Velocity: 52
Note ON: Time 100800, Note Name: G#4, Velocity: 52
Note ON: Time 100800, Note Name: G#3, Velocity: 52
Note ON: Time 100800, Note Name: F4, Velocity: 52
Note OFF: Time 100890, Note Name: F4
Note OFF: Time 100890, Note Name: G#4
Note OFF: Time 100890, Note Name: A#4
Note OFF: Time 100890, Note Name: A#3
Note OFF: Time 100890, Note Name: G#3
Note ON: Time 101040, Note Name: F4, Velocity: 55
Note ON: Time 101040, Note Name: A#4, Velocity: 66
Note ON: Time 101040, Note Name: G#4, Velocity: 55
Note ON: Time 101040, Note Name: G#3, Velocity: 55
Note ON: Time 101040, Note Name: A#3, Velocity: 55
Note OFF: Time 101130, Note Name: A#3
Note OFF: Time 101130, Note Name: G#4
Note OFF: Time 101130, Note Name: F4
Note OFF: Time 101130, Note Name: A#4
Note OFF: Time 101130, Note Name: G#3
Note ON: Time 101280, Note Name: G#3, Velocity: 60
Note ON: Time 101280, Note Name: G#4, Velocity: 60
Note ON: Time 101280, Note Name: A#3, Velocity: 60
Note ON: Time 101280, Note Name: A#4, Velocity: 71
Note ON: Time 101280, Note Name: F4, Velocity: 60
Note OFF: Time 101370, Note Name: F4
Note OFF: Time 101370, Note Name: A#3
Note OFF: Time 101370, Note Name: G#3
Note OFF: Time 101370, Note Name: G#4
Note OFF: Time 101370, Note Name: A#4
Note ON: Time 101520, Note Name: G#3, Velocity: 61
Note ON: Time 101520, Note Name: F4, Velocity: 61
Note ON: Time 101520, Note Name: G#4, Velocity: 73
Note ON: Time 101520, Note Name: A#4, Velocity: 73
Note ON: Time 101520, Note Name: A#3, Velocity: 61
Note OFF: Time 101610, Note Name: A#3
Note OFF: Time 101610, Note Name: G#4
Note OFF: Time 101610, Note Name: G#3
Note OFF: Time 101610, Note Name: F4
Note OFF: Time 101610, Note Name: A#4
Note ON: Time 101760, Note Name: G#3, Velocity: 68
Note ON: Time 101760, Note Name: A#3, Velocity: 68
Note ON: Time 101760, Note Name: D4, Velocity: 68
Note ON: Time 101760, Note Name: G#4, Velocity: 68
Note ON: Time 101760, Note Name: A#4, Velocity: 81
Note OFF: Time 102240, Note Name: A#4
Note OFF: Time 102240, Note Name: D4
Note OFF: Time 102240, Note Name: G#3
Note OFF: Time 102240, Note Name: A#3
Note OFF: Time 102240, Note Name: G#4
Note ON: Time 102240, Note Name: F#4, Velocity: 53
Note ON: Time 102240, Note Name: D#4, Velocity: 53
Note ON: Time 102240, Note Name: A#4, Velocity: 64
Note ON: Time 102240, Note Name: A#3, Velocity: 53
Note OFF: Time 102330, Note Name: A#3
Note OFF: Time 102330, Note Name: F#4
Note OFF: Time 102330, Note Name: D#4
Note OFF: Time 102330, Note Name: A#4
Note ON: Time 102480, Note Name: F#4, Velocity: 56
Note ON: Time 102480, Note Name: A#3, Velocity: 56
Note ON: Time 102480, Note Name: A#4, Velocity: 68
Note ON: Time 102480, Note Name: D#4, Velocity: 56
Note OFF: Time 102570, Note Name: D#4
Note OFF: Time 102570, Note Name: F#4
Note OFF: Time 102570, Note Name: A#3
Note OFF: Time 102570, Note Name: A#4
Note ON: Time 102720, Note Name: F#4, Velocity: 61
Note ON: Time 102720, Note Name: A#4, Velocity: 73
Note ON: Time 102720, Note Name: D#4, Velocity: 61
Note OFF: Time 102810, Note Name: D#4
Note OFF: Time 102810, Note Name: A#4
Note OFF: Time 102810, Note Name: F#4
Note ON: Time 102960, Note Name: F#4, Velocity: 64
Note ON: Time 102960, Note Name: D#4, Velocity: 64
Note ON: Time 102960, Note Name: A#4, Velocity: 75
Note OFF: Time 103050, Note Name: A#4
Note OFF: Time 103050, Note Name: D#4
Note OFF: Time 103050, Note Name: F#4
Note ON: Time 103200, Note Name: F#4, Velocity: 72
Note ON: Time 103200, Note Name: A#4, Velocity: 84
Note ON: Time 103200, Note Name: D#4, Velocity: 72
Note OFF: Time 103680, Note Name: D#4
Note OFF: Time 103680, Note Name: A#4
Note OFF: Time 103680, Note Name: F#4
Note ON: Time 103680, Note Name: G#3, Velocity: 75
Note ON: Time 103680, Note Name: D#4, Velocity: 75
Note ON: Time 103680, Note Name: G#4, Velocity: 90
Note OFF: Time 104160, Note Name: G#4
Note OFF: Time 104160, Note Name: D#4
Note OFF: Time 104160, Note Name: G#3
Note ON: Time 104160, Note Name: D#4, Velocity: 75
Note ON: Time 104160, Note Name: G#4, Velocity: 75
Note ON: Time 104160, Note Name: D#5, Velocity: 90
Note OFF: Time 104640, Note Name: D#5
Note OFF: Time 104640, Note Name: G#4
Note OFF: Time 104640, Note Name: D#4
Note ON: Time 104640, Note Name: F5, Velocity: 85
Note ON: Time 104640, Note Name: B4, Velocity: 72
Note ON: Time 104640, Note Name: F4, Velocity: 72
Note ON: Time 104640, Note Name: D#5, Velocity: 72
Note OFF: Time 105120, Note Name: D#5
Note OFF: Time 105120, Note Name: F5
Note OFF: Time 105120, Note Name: B4
Note OFF: Time 105120, Note Name: F4
Note ON: Time 105120, Note Name: A#4, Velocity: 72
Note ON: Time 105120, Note Name: F#4, Velocity: 72
Note ON: Time 105120, Note Name: D#5, Velocity: 72
Note ON: Time 105120, Note Name: F#5, Velocity: 85
Note OFF: Time 105600, Note Name: F#5
Note OFF: Time 105600, Note Name: A#4
Note OFF: Time 105600, Note Name: F#4
Note OFF: Time 105600, Note Name: D#5
Note ON: Time 105600, Note Name: D#6, Velocity: 87
Note ON: Time 105600, Note Name: D#7, Velocity: 101
Note OFF: Time 105840, Note Name: D#7
Note OFF: Time 105840, Note Name: D#6
Note ON: Time 106080, Note Name: B5, Velocity: 86
Note ON: Time 106080, Note Name: B4, Velocity: 72
Note ON: Time 106080, Note Name: D#5, Velocity: 72
Note OFF: Time 106560, Note Name: D#5
Note OFF: Time 106560, Note Name: B4
Note OFF: Time 106560, Note Name: B5
Note ON: Time 106560, Note Name: B5, Velocity: 84
Note ON: Time 106560, Note Name: B6, Velocity: 99
Note OFF: Time 106800, Note Name: B6
Note OFF: Time 106800, Note Name: B5
Note ON: Time 107040, Note Name: G#4, Velocity: 71
Note ON: Time 107040, Note Name: B4, Velocity: 71
Note ON: Time 107040, Note Name: D#5, Velocity: 71
Note ON: Time 107040, Note Name: G#5, Velocity: 85
Note OFF: Time 107520, Note Name: G#5
Note OFF: Time 107520, Note Name: G#4
Note OFF: Time 107520, Note Name: B4
Note OFF: Time 107520, Note Name: D#5
Note ON: Time 107520, Note Name: G#5, Velocity: 84
Note ON: Time 107520, Note Name: G#6, Velocity: 99
Note OFF: Time 107760, Note Name: G#6
Note OFF: Time 107760, Note Name: G#5
Note ON: Time 108000, Note Name: A#4, Velocity: 75
Note ON: Time 108000, Note Name: F#4, Velocity: 75
Note ON: Time 108000, Note Name: D#5, Velocity: 75
Note ON: Time 108000, Note Name: F#5, Velocity: 89
Note OFF: Time 108480, Note Name: F#5
Note OFF: Time 108480, Note Name: A#4
Note OFF: Time 108480, Note Name: F#4
Note OFF: Time 108480, Note Name: D#5
Note ON: Time 108480, Note Name: F#6, Velocity: 99
Note ON: Time 108480, Note Name: F#5, Velocity: 84
Note OFF: Time 108720, Note Name: F#5
Note OFF: Time 108720, Note Name: F#6
Note ON: Time 108960, Note Name: F4, Velocity: 72
Note ON: Time 108960, Note Name: A#4, Velocity: 72
Note ON: Time 108960, Note Name: F5, Velocity: 86
Note ON: Time 108960, Note Name: D#5, Velocity: 72
Note OFF: Time 109440, Note Name: D#5
Note OFF: Time 109440, Note Name: F4
Note OFF: Time 109440, Note Name: A#4
Note OFF: Time 109440, Note Name: F5
Note ON: Time 109440, Note Name: F6, Velocity: 99
Note ON: Time 109440, Note Name: F5, Velocity: 84
Note OFF: Time 109680, Note Name: F5
Note OFF: Time 109680, Note Name: F6
Note ON: Time 109920, Note Name: F4, Velocity: 75
Note ON: Time 109920, Note Name: A#4, Velocity: 75
Note ON: Time 109920, Note Name: D5, Velocity: 75
Note ON: Time 109920, Note Name: F5, Velocity: 89
Note OFF: Time 110400, Note Name: F5
Note OFF: Time 110400, Note Name: F4
Note OFF: Time 110400, Note Name: A#4
Note OFF: Time 110400, Note Name: D5
Note ON: Time 110400, Note Name: D#6, Velocity: 102
Note ON: Time 110400, Note Name: D#5, Velocity: 85
Note OFF: Time 110850, Note Name: D#5
Note OFF: Time 110850, Note Name: D#6
Note ON: Time 110880, Note Name: D#4, Velocity: 78
Note ON: Time 110880, Note Name: D#5, Velocity: 94
Note OFF: Time 112320, Note Name: D#5
Note OFF: Time 112320, Note Name: D#4
Note ON: Time 112320, Note Name: A#3, Velocity: 69
Note ON: Time 112320, Note Name: A#4, Velocity: 81
Note OFF: Time 112800, Note Name: A#4
Note OFF: Time 112800, Note Name: A#3
Note ON: Time 112800, Note Name: B3, Velocity: 64
Note ON: Time 112800, Note Name: B4, Velocity: 75
Note OFF: Time 113040, Note Name: B4
Note OFF: Time 113040, Note Name: B3
Note ON: Time 113040, Note Name: A#3, Velocity: 59
Note ON: Time 113040, Note Name: A#4, Velocity: 71
Note OFF: Time 113280, Note Name: A#4
Note OFF: Time 113280, Note Name: A#3
Note ON: Time 113280, Note Name: F3, Velocity: 63
Note ON: Time 113280, Note Name: F4, Velocity: 73
Note OFF: Time 113520, Note Name: F4
Note OFF: Time 113520, Note Name: F3
Note ON: Time 113520, Note Name: F#3, Velocity: 54
Note ON: Time 113520, Note Name: F#4, Velocity: 65
Note OFF: Time 113760, Note Name: F#4
Note OFF: Time 113760, Note Name: F#3
Note ON: Time 113760, Note Name: D#3, Velocity: 58
Note ON: Time 113760, Note Name: D#4, Velocity: 70
Note OFF: Time 115680, Note Name: D#4
Note OFF: Time 115680, Note Name: D#3
Note ON: Time 117120, Note Name: A#3, Velocity: 30
Note OFF: Time 117600, Note Name: A#3
Note ON: Time 117600, Note Name: A#3, Velocity: 32
Note OFF: Time 118560, Note Name: A#3
Note ON: Time 118560, Note Name: A#3, Velocity: 28
Note OFF: Time 119040, Note Name: A#3
Note ON: Time 119040, Note Name: A#3, Velocity: 32
Note OFF: Time 120000, Note Name: A#3
Note ON: Time 120000, Note Name: A#3, Velocity: 27
Note OFF: Time 120480, Note Name: A#3
Note ON: Time 120480, Note Name: A#3, Velocity: 32
Note OFF: Time 121440, Note Name: A#3
Note ON: Time 121440, Note Name: A#3, Velocity: 27
Note OFF: Time 121920, Note Name: A#3
Note ON: Time 121920, Note Name: A#3, Velocity: 33
Note OFF: Time 122400, Note Name: A#3
Note ON: Time 122880, Note Name: A#3, Velocity: 25
Note OFF: Time 123360, Note Name: A#3
Note ON: Time 123360, Note Name: A#3, Velocity: 25
Note OFF: Time 123840, Note Name: A#3
Note ON: Time 124320, Note Name: A#3, Velocity: 19
Note ON: Time 124320, Note Name: F#4, Velocity: 24
Note OFF: Time 124800, Note Name: F#4
Note OFF: Time 124800, Note Name: A#3
Note ON: Time 124800, Note Name: A#3, Velocity: 19
Note ON: Time 124800, Note Name: F#4, Velocity: 24
Note OFF: Time 125280, Note Name: F#4
Note OFF: Time 125280, Note Name: A#3
Note ON: Time 125760, Note Name: B3, Velocity: 22
Note OFF: Time 126240, Note Name: B3
Note ON: Time 126240, Note Name: F4, Velocity: 25
Note ON: Time 126240, Note Name: B3, Velocity: 21
Note OFF: Time 126720, Note Name: B3
Note OFF: Time 126720, Note Name: F4
Note ON: Time 127200, Note Name: A#3, Velocity: 22
Note ON: Time 127200, Note Name: F#4, Velocity: 26
Note OFF: Time 127680, Note Name: F#4
Note OFF: Time 127680, Note Name: A#3
Note ON: Time 127680, Note Name: A#3, Velocity: 22
Note ON: Time 127680, Note Name: F#4, Velocity: 26
Note OFF: Time 128160, Note Name: F#4
Note OFF: Time 128160, Note Name: A#3
Note ON: Time 128160, Note Name: A#3, Velocity: 21
Note ON: Time 128160, Note Name: F#4, Velocity: 25
Note OFF: Time 128640, Note Name: F#4
Note OFF: Time 128640, Note Name: A#3
Note ON: Time 128640, Note Name: C#4, Velocity: 20
Note ON: Time 128640, Note Name: F#4, Velocity: 24
Note OFF: Time 129120, Note Name: F#4
Note OFF: Time 129120, Note Name: C#4
Note ON: Time 129120, Note Name: C#4, Velocity: 20
Note ON: Time 129120, Note Name: F#4, Velocity: 24
Note OFF: Time 129600, Note Name: F#4
Note OFF: Time 129600, Note Name: C#4
Note ON: Time 129600, Note Name: C#4, Velocity: 21
Note ON: Time 129600, Note Name: F#4, Velocity: 25
Note OFF: Time 130080, Note Name: F#4
Note OFF: Time 130080, Note Name: C#4
Note ON: Time 130080, Note Name: G#3, Velocity: 20
Note ON: Time 130080, Note Name: C#4, Velocity: 24
Note OFF: Time 130560, Note Name: C#4
Note OFF: Time 130560, Note Name: G#3
Note ON: Time 130560, Note Name: F#3, Velocity: 20
Note ON: Time 130560, Note Name: C#4, Velocity: 24
Note OFF: Time 131040, Note Name: C#4
Note OFF: Time 131040, Note Name: F#3
Note ON: Time 131040, Note Name: F#3, Velocity: 21
Note ON: Time 131040, Note Name: C#4, Velocity: 25
Note OFF: Time 131520, Note Name: C#4
Note OFF: Time 131520, Note Name: F#3
Note ON: Time 131520, Note Name: G#3, Velocity: 20
Note ON: Time 131520, Note Name: C#4, Velocity: 24
Note OFF: Time 132000, Note Name: C#4
Note OFF: Time 132000, Note Name: G#3
Note ON: Time 132000, Note Name: F#3, Velocity: 20
Note ON: Time 132000, Note Name: C#4, Velocity: 24
Note OFF: Time 132480, Note Name: C#4
Note OFF: Time 132480, Note Name: F#3
Note ON: Time 132480, Note Name: F#3, Velocity: 21
Note ON: Time 132480, Note Name: C#4, Velocity: 25
Note OFF: Time 132960, Note Name: C#4
Note OFF: Time 132960, Note Name: F#3
Note ON: Time 132960, Note Name: G#3, Velocity: 20
Note ON: Time 132960, Note Name: C#4, Velocity: 24
Note OFF: Time 133440, Note Name: C#4
Note OFF: Time 133440, Note Name: G#3
Note ON: Time 133440, Note Name: F#3, Velocity: 21
Note ON: Time 133440, Note Name: C#4, Velocity: 25
Note OFF: Time 133920, Note Name: C#4
Note OFF: Time 133920, Note Name: F#3
Note ON: Time 134400, Note Name: C#4, Velocity: 27
Note OFF: Time 134880, Note Name: C#4
Note ON: Time 134880, Note Name: C#4, Velocity: 27
Note OFF: Time 135360, Note Name: C#4
Note ON: Time 135840, Note Name: C#4, Velocity: 22
Note ON: Time 135840, Note Name: A#4, Velocity: 26
Note OFF: Time 136320, Note Name: A#4
Note OFF: Time 136320, Note Name: C#4
Note ON: Time 136320, Note Name: C#4, Velocity: 20
Note ON: Time 136320, Note Name: A#4, Velocity: 24
Note OFF: Time 136800, Note Name: A#4
Note OFF: Time 136800, Note Name: C#4
Note ON: Time 137280, Note Name: D#4, Velocity: 22
Note OFF: Time 137760, Note Name: D#4
Note ON: Time 137760, Note Name: A4, Velocity: 26
Note ON: Time 137760, Note Name: D#4, Velocity: 22
Note OFF: Time 138240, Note Name: D#4
Note OFF: Time 138240, Note Name: A4
Note ON: Time 138720, Note Name: C#4, Velocity: 21
Note ON: Time 138720, Note Name: A#4, Velocity: 25
Note OFF: Time 139200, Note Name: A#4
Note OFF: Time 139200, Note Name: C#4
Note ON: Time 139200, Note Name: C#4, Velocity: 21
Note ON: Time 139200, Note Name: A#4, Velocity: 25
Note OFF: Time 139680, Note Name: A#4
Note OFF: Time 139680, Note Name: C#4
Note ON: Time 139680, Note Name: C#4, Velocity: 23
Note ON: Time 139680, Note Name: A#4, Velocity: 27
Note OFF: Time 140160, Note Name: A#4
Note OFF: Time 140160, Note Name: C#4
Note ON: Time 140160, Note Name: F4, Velocity: 24
Note ON: Time 140160, Note Name: A#4, Velocity: 28
Note OFF: Time 140640, Note Name: A#4
Note OFF: Time 140640, Note Name: F4
Note ON: Time 140640, Note Name: F4, Velocity: 23
Note ON: Time 140640, Note Name: A#4, Velocity: 27
Note OFF: Time 141120, Note Name: A#4
Note OFF: Time 141120, Note Name: F4
Note ON: Time 141120, Note Name: F4, Velocity: 22
Note ON: Time 141120, Note Name: A#4, Velocity: 27
Note OFF: Time 141600, Note Name: A#4
Note OFF: Time 141600, Note Name: F4
Note ON: Time 141600, Note Name: C4, Velocity: 22
Note ON: Time 141600, Note Name: F4, Velocity: 26
Note OFF: Time 142080, Note Name: F4
Note OFF: Time 142080, Note Name: C4
Note ON: Time 142080, Note Name: A#3, Velocity: 22
Note ON: Time 142080, Note Name: F4, Velocity: 26
Note OFF: Time 142560, Note Name: F4
Note OFF: Time 142560, Note Name: A#3
Note ON: Time 142560, Note Name: A#3, Velocity: 22
Note ON: Time 142560, Note Name: F4, Velocity: 26
Note OFF: Time 143040, Note Name: F4
Note OFF: Time 143040, Note Name: A#3
Note ON: Time 143040, Note Name: C4, Velocity: 22
Note ON: Time 143040, Note Name: F4, Velocity: 26
Note OFF: Time 143520, Note Name: F4
Note OFF: Time 143520, Note Name: C4
Note ON: Time 143520, Note Name: A#3, Velocity: 22
Note ON: Time 143520, Note Name: F4, Velocity: 26
Note OFF: Time 144000, Note Name: F4
Note OFF: Time 144000, Note Name: A#3
Note ON: Time 144000, Note Name: A#3, Velocity: 22
Note ON: Time 144000, Note Name: F4, Velocity: 26
Note OFF: Time 144480, Note Name: F4
Note OFF: Time 144480, Note Name: A#3
Note ON: Time 144480, Note Name: C4, Velocity: 22
Note ON: Time 144480, Note Name: F4, Velocity: 26
Note OFF: Time 144960, Note Name: F4
Note OFF: Time 144960, Note Name: C4
Note ON: Time 144960, Note Name: A#3, Velocity: 22
Note ON: Time 144960, Note Name: F4, Velocity: 26
Note OFF: Time 145440, Note Name: F4
Note OFF: Time 145440, Note Name: A#3
Note ON: Time 145920, Note Name: A#3, Velocity: 27
Note OFF: Time 146400, Note Name: A#3
Note ON: Time 146400, Note Name: A#3, Velocity: 26
Note OFF: Time 146880, Note Name: A#3
Note ON: Time 147360, Note Name: A#3, Velocity: 22
Note ON: Time 147360, Note Name: F#4, Velocity: 27
Note OFF: Time 147840, Note Name: F#4
Note OFF: Time 147840, Note Name: A#3
Note ON: Time 147840, Note Name: A#3, Velocity: 22
Note ON: Time 147840, Note Name: F#4, Velocity: 26
Note OFF: Time 148320, Note Name: F#4
Note OFF: Time 148320, Note Name: A#3
Note ON: Time 148800, Note Name: B3, Velocity: 22
Note OFF: Time 149280, Note Name: B3
Note ON: Time 149280, Note Name: F4, Velocity: 27
Note ON: Time 149280, Note Name: B3, Velocity: 22
Note OFF: Time 149760, Note Name: B3
Note OFF: Time 149760, Note Name: F4
Note ON: Time 150240, Note Name: A#3, Velocity: 24
Note ON: Time 150240, Note Name: F#4, Velocity: 28
Note OFF: Time 150720, Note Name: F#4
Note OFF: Time 150720, Note Name: A#3
Note ON: Time 150720, Note Name: A#3, Velocity: 24
Note ON: Time 150720, Note Name: F#4, Velocity: 27
Note OFF: Time 151200, Note Name: F#4
Note OFF: Time 151200, Note Name: A#3
Note ON: Time 151200, Note Name: A#3, Velocity: 23
Note ON: Time 151200, Note Name: F#4, Velocity: 27
Note OFF: Time 151680, Note Name: F#4
Note OFF: Time 151680, Note Name: A#3
Note ON: Time 151680, Note Name: C#4, Velocity: 22
Note ON: Time 151680, Note Name: F#4, Velocity: 27
Note OFF: Time 152160, Note Name: F#4
Note OFF: Time 152160, Note Name: C#4
Note ON: Time 152160, Note Name: C#4, Velocity: 22
Note ON: Time 152160, Note Name: F#4, Velocity: 27
Note OFF: Time 152640, Note Name: F#4
Note OFF: Time 152640, Note Name: C#4
Note ON: Time 152640, Note Name: C#4, Velocity: 22
Note ON: Time 152640, Note Name: F#4, Velocity: 26
Note OFF: Time 153120, Note Name: F#4
Note OFF: Time 153120, Note Name: C#4
Note ON: Time 153120, Note Name: G#3, Velocity: 22
Note ON: Time 153120, Note Name: C#4, Velocity: 26
Note OFF: Time 153600, Note Name: C#4
Note OFF: Time 153600, Note Name: G#3
Note ON: Time 153600, Note Name: F#3, Velocity: 21
Note ON: Time 153600, Note Name: C#4, Velocity: 25
Note OFF: Time 154080, Note Name: C#4
Note OFF: Time 154080, Note Name: F#3
Note ON: Time 154080, Note Name: F#3, Velocity: 22
Note ON: Time 154080, Note Name: C#4, Velocity: 27
Note OFF: Time 154560, Note Name: C#4
Note OFF: Time 154560, Note Name: F#3
Note ON: Time 154560, Note Name: G#3, Velocity: 22
Note ON: Time 154560, Note Name: C#4, Velocity: 26
Note OFF: Time 155040, Note Name: C#4
Note OFF: Time 155040, Note Name: G#3
Note ON: Time 155040, Note Name: F#3, Velocity: 22
Note ON: Time 155040, Note Name: C#4, Velocity: 26
Note OFF: Time 155520, Note Name: C#4
Note OFF: Time 155520, Note Name: F#3
Note ON: Time 155520, Note Name: F#3, Velocity: 22
Note ON: Time 155520, Note Name: C#4, Velocity: 27
Note OFF: Time 156000, Note Name: C#4
Note OFF: Time 156000, Note Name: F#3
Note ON: Time 156000, Note Name: G#3, Velocity: 22
Note ON: Time 156000, Note Name: C#4, Velocity: 26
Note OFF: Time 156480, Note Name: C#4
Note OFF: Time 156480, Note Name: G#3
Note ON: Time 156480, Note Name: A#3, Velocity: 22
Note ON: Time 156480, Note Name: C#4, Velocity: 26
Note OFF: Time 156960, Note Name: C#4
Note OFF: Time 156960, Note Name: A#3
Note ON: Time 157440, Note Name: A#3, Velocity: 24
Note ON: Time 157440, Note Name: F4, Velocity: 28
Note OFF: Time 157920, Note Name: F4
Note OFF: Time 157920, Note Name: A#3
Note ON: Time 157920, Note Name: A#3, Velocity: 24
Note ON: Time 157920, Note Name: F4, Velocity: 28
Note OFF: Time 158400, Note Name: F4
Note OFF: Time 158400, Note Name: A#3
Note ON: Time 158880, Note Name: B3, Velocity: 24
Note ON: Time 158880, Note Name: F4, Velocity: 28
Note OFF: Time 159360, Note Name: F4
Note OFF: Time 159360, Note Name: B3
Note ON: Time 159360, Note Name: C4, Velocity: 31
Note ON: Time 159360, Note Name: F4, Velocity: 37
Note OFF: Time 159840, Note Name: F4
Note OFF: Time 159840, Note Name: C4
Note ON: Time 160320, Note Name: D4, Velocity: 28
Note OFF: Time 160800, Note Name: D4
Note ON: Time 160800, Note Name: A#4, Velocity: 28
Note ON: Time 160800, Note Name: G4, Velocity: 24
Note OFF: Time 161280, Note Name: G4
Note OFF: Time 161280, Note Name: A#4
Note ON: Time 161760, Note Name: F4, Velocity: 27
Note ON: Time 161760, Note Name: A4, Velocity: 32
Note OFF: Time 162240, Note Name: A4
Note OFF: Time 162240, Note Name: F4
Note ON: Time 162240, Note Name: F4, Velocity: 31
Note ON: Time 162240, Note Name: A4, Velocity: 31
Note OFF: Time 162600, Note Name: A4
Note OFF: Time 162600, Note Name: F4
Note ON: Time 163200, Note Name: A#3, Velocity: 24
Note ON: Time 163200, Note Name: F4, Velocity: 27
Note OFF: Time 163680, Note Name: F4
Note OFF: Time 163680, Note Name: A#3
Note ON: Time 163680, Note Name: A#3, Velocity: 23
Note ON: Time 163680, Note Name: F4, Velocity: 27
Note OFF: Time 164160, Note Name: F4
Note OFF: Time 164160, Note Name: A#3
Note ON: Time 164640, Note Name: B3, Velocity: 24
Note ON: Time 164640, Note Name: F4, Velocity: 28
Note OFF: Time 165120, Note Name: F4
Note OFF: Time 165120, Note Name: B3
Note ON: Time 165120, Note Name: C4, Velocity: 22
Note ON: Time 165120, Note Name: F4, Velocity: 26
Note OFF: Time 165600, Note Name: F4
Note OFF: Time 165600, Note Name: C4
Note ON: Time 166080, Note Name: C#4, Velocity: 34
Note OFF: Time 166560, Note Name: C#4
Note ON: Time 166560, Note Name: A#4, Velocity: 28
Note ON: Time 166560, Note Name: F#4, Velocity: 24
Note OFF: Time 167040, Note Name: F#4
Note OFF: Time 167040, Note Name: A#4
Note ON: Time 167520, Note Name: F4, Velocity: 24
Note ON: Time 167520, Note Name: B4, Velocity: 28
Note OFF: Time 168000, Note Name: B4
Note OFF: Time 168000, Note Name: F4
Note ON: Time 168000, Note Name: F4, Velocity: 24
Note ON: Time 168000, Note Name: B4, Velocity: 28
Note OFF: Time 168478, Note Name: B4
Note OFF: Time 168480, Note Name: F4
Note ON: Time 168480, Note Name: F4, Velocity: 35
Note OFF: Time 168960, Note Name: F4
Note ON: Time 168960, Note Name: F4, Velocity: 39
Note OFF: Time 169440, Note Name: F4
Note ON: Time 169440, Note Name: F4, Velocity: 39
Note OFF: Time 169920, Note Name: F4
Note ON: Time 169920, Note Name: F4, Velocity: 37
Note OFF: Time 170400, Note Name: F4
Note ON: Time 170400, Note Name: D#4, Velocity: 36
Note OFF: Time 170880, Note Name: D#4
Note ON: Time 170880, Note Name: F4, Velocity: 36
Note OFF: Time 171360, Note Name: F4
Note ON: Time 171360, Note Name: F4, Velocity: 35
Note OFF: Time 171840, Note Name: F4
Note ON: Time 171840, Note Name: D#4, Velocity: 35
Note OFF: Time 172320, Note Name: D#4
Note ON: Time 172320, Note Name: F4, Velocity: 32
Note OFF: Time 172800, Note Name: F4
Note ON: Time 172800, Note Name: F4, Velocity: 32
Note OFF: Time 173280, Note Name: F4
Note ON: Time 173280, Note Name: D#4, Velocity: 31
Note OFF: Time 173760, Note Name: D#4
Note ON: Time 173760, Note Name: F4, Velocity: 31
Note OFF: Time 174240, Note Name: F4
Note ON: Time 174720, Note Name: A#3, Velocity: 25
Note OFF: Time 175200, Note Name: A#3
Note ON: Time 175200, Note Name: A#3, Velocity: 22
Note OFF: Time 175680, Note Name: A#3
Note ON: Time 176160, Note Name: A#3, Velocity: 20
Note ON: Time 176160, Note Name: F#4, Velocity: 25
Note OFF: Time 176640, Note Name: F#4
Note OFF: Time 176640, Note Name: A#3
Note ON: Time 176640, Note Name: A#3, Velocity: 20
Note ON: Time 176640, Note Name: F#4, Velocity: 25
Note OFF: Time 177120, Note Name: F#4
Note OFF: Time 177120, Note Name: A#3
Note ON: Time 177600, Note Name: B3, Velocity: 23
Note OFF: Time 178080, Note Name: B3
Note ON: Time 178080, Note Name: F4, Velocity: 27
Note ON: Time 178080, Note Name: B3, Velocity: 22
Note OFF: Time 178560, Note Name: B3
Note OFF: Time 178560, Note Name: F4
Note ON: Time 179040, Note Name: A#3, Velocity: 24
Note ON: Time 179040, Note Name: F#4, Velocity: 28
Note OFF: Time 179520, Note Name: F#4
Note OFF: Time 179520, Note Name: A#3
Note ON: Time 179520, Note Name: A#3, Velocity: 23
Note ON: Time 179520, Note Name: F#4, Velocity: 27
Note OFF: Time 180000, Note Name: F#4
Note OFF: Time 180000, Note Name: A#3
Note ON: Time 180000, Note Name: A#3, Velocity: 23
Note ON: Time 180000, Note Name: F#4, Velocity: 28
Note OFF: Time 180480, Note Name: F#4
Note OFF: Time 180480, Note Name: A#3
Note ON: Time 180480, Note Name: C#4, Velocity: 20
Note ON: Time 180480, Note Name: F#4, Velocity: 24
Note OFF: Time 180960, Note Name: F#4
Note OFF: Time 180960, Note Name: C#4
Note ON: Time 180960, Note Name: C#4, Velocity: 20
Note ON: Time 180960, Note Name: F#4, Velocity: 24
Note OFF: Time 181440, Note Name: F#4
Note OFF: Time 181440, Note Name: C#4
Note ON: Time 181440, Note Name: C#4, Velocity: 20
Note ON: Time 181440, Note Name: F#4, Velocity: 24
Note OFF: Time 181920, Note Name: F#4
Note OFF: Time 181920, Note Name: C#4
Note ON: Time 181920, Note Name: G#3, Velocity: 20
Note ON: Time 181920, Note Name: C#4, Velocity: 24
Note OFF: Time 182400, Note Name: C#4
Note OFF: Time 182400, Note Name: G#3
Note ON: Time 182400, Note Name: F#3, Velocity: 18
Note ON: Time 182400, Note Name: C#4, Velocity: 24
Note OFF: Time 182880, Note Name: C#4
Note OFF: Time 182880, Note Name: F#3
Note ON: Time 182880, Note Name: F#3, Velocity: 18
Note ON: Time 182880, Note Name: C#4, Velocity: 24
Note OFF: Time 183360, Note Name: C#4
Note OFF: Time 183360, Note Name: F#3
Note ON: Time 183360, Note Name: G#3, Velocity: 17
Note ON: Time 183360, Note Name: C#4, Velocity: 22
Note OFF: Time 183840, Note Name: C#4
Note OFF: Time 183840, Note Name: G#3
Note ON: Time 183840, Note Name: F#3, Velocity: 17
Note ON: Time 183840, Note Name: C#4, Velocity: 22
Note OFF: Time 184320, Note Name: C#4
Note OFF: Time 184320, Note Name: F#3
Note ON: Time 184320, Note Name: F#3, Velocity: 14
Note ON: Time 184320, Note Name: C#4, Velocity: 22
Note OFF: Time 184800, Note Name: C#4
Note OFF: Time 184800, Note Name: F#3
Note ON: Time 184800, Note Name: G#3, Velocity: 13
Note ON: Time 184800, Note Name: C#4, Velocity: 22
Note OFF: Time 185280, Note Name: C#4
Note OFF: Time 185280, Note Name: G#3
Note ON: Time 185280, Note Name: A#3, Velocity: 13
Note ON: Time 185280, Note Name: C#4, Velocity: 20
Note OFF: Time 185760, Note Name: C#4
Note OFF: Time 185760, Note Name: A#3
Note ON: Time 186240, Note Name: B3, Velocity: 26
Note OFF: Time 186720, Note Name: B3
Note ON: Time 186720, Note Name: B3, Velocity: 26
Note OFF: Time 187200, Note Name: B3
Note ON: Time 187680, Note Name: B3, Velocity: 22
Note ON: Time 187680, Note Name: G#4, Velocity: 27
Note OFF: Time 188160, Note Name: G#4
Note OFF: Time 188160, Note Name: B3
Note ON: Time 188160, Note Name: B3, Velocity: 21
Note ON: Time 188160, Note Name: G#4, Velocity: 25
Note OFF: Time 188640, Note Name: G#4
Note OFF: Time 188640, Note Name: B3
Note ON: Time 189120, Note Name: C#4, Velocity: 28
Note OFF: Time 189600, Note Name: C#4
Note ON: Time 189600, Note Name: G4, Velocity: 27
Note ON: Time 189600, Note Name: C#4, Velocity: 22
Note OFF: Time 190080, Note Name: C#4
Note OFF: Time 190080, Note Name: G4
Note ON: Time 190560, Note Name: B3, Velocity: 22
Note ON: Time 190560, Note Name: G#4, Velocity: 26
Note OFF: Time 191040, Note Name: G#4
Note OFF: Time 191040, Note Name: B3
Note ON: Time 191040, Note Name: B3, Velocity: 22
Note ON: Time 191040, Note Name: G#4, Velocity: 26
Note OFF: Time 191520, Note Name: G#4
Note OFF: Time 191520, Note Name: B3
Note ON: Time 191520, Note Name: B3, Velocity: 20
Note ON: Time 191520, Note Name: G#4, Velocity: 28
Note OFF: Time 192000, Note Name: G#4
Note OFF: Time 192000, Note Name: B3
Note ON: Time 192000, Note Name: D#4, Velocity: 24
Note ON: Time 192000, Note Name: G#4, Velocity: 29
Note OFF: Time 192480, Note Name: G#4
Note OFF: Time 192480, Note Name: D#4
Note ON: Time 192480, Note Name: D#4, Velocity: 24
Note ON: Time 192480, Note Name: G#4, Velocity: 27
Note OFF: Time 192960, Note Name: G#4
Note OFF: Time 192960, Note Name: D#4
Note ON: Time 192960, Note Name: D#4, Velocity: 22
Note ON: Time 192960, Note Name: G#4, Velocity: 27
Note OFF: Time 193440, Note Name: G#4
Note OFF: Time 193440, Note Name: D#4
Note ON: Time 193440, Note Name: A#3, Velocity: 21
Note ON: Time 193440, Note Name: D#4, Velocity: 26
Note OFF: Time 193920, Note Name: D#4
Note OFF: Time 193920, Note Name: A#3
Note ON: Time 193920, Note Name: G#3, Velocity: 20
Note ON: Time 193920, Note Name: D#4, Velocity: 25
Note OFF: Time 194400, Note Name: D#4
Note OFF: Time 194400, Note Name: G#3
Note ON: Time 194400, Note Name: G#3, Velocity: 20
Note ON: Time 194400, Note Name: D#4, Velocity: 25
Note OFF: Time 194880, Note Name: D#4
Note OFF: Time 194880, Note Name: G#3
Note ON: Time 194880, Note Name: A#3, Velocity: 18
Note ON: Time 194880, Note Name: D#4, Velocity: 24
Note OFF: Time 195360, Note Name: D#4
Note OFF: Time 195360, Note Name: A#3
Note ON: Time 195360, Note Name: G#3, Velocity: 18
Note ON: Time 195360, Note Name: D#4, Velocity: 24
Note OFF: Time 195840, Note Name: D#4
Note OFF: Time 195840, Note Name: G#3
Note ON: Time 195840, Note Name: G#3, Velocity: 18
Note ON: Time 195840, Note Name: D#4, Velocity: 24
Note OFF: Time 196320, Note Name: D#4
Note OFF: Time 196320, Note Name: G#3
Note ON: Time 196320, Note Name: A#3, Velocity: 18
Note ON: Time 196320, Note Name: D#4, Velocity: 23
Note OFF: Time 196800, Note Name: D#4
Note OFF: Time 196800, Note Name: A#3
Note ON: Time 196800, Note Name: B3, Velocity: 18
Note ON: Time 196800, Note Name: F#3, Velocity: 18
Note ON: Time 196800, Note Name: D#4, Velocity: 23
Note OFF: Time 197280, Note Name: D#4
Note OFF: Time 197280, Note Name: F#3
Note OFF: Time 197280, Note Name: B3
Note ON: Time 197280, Note Name: F3, Velocity: 24
Note ON: Time 197280, Note Name: B3, Velocity: 24
Note ON: Time 197280, Note Name: C#4, Velocity: 28
Note OFF: Time 197760, Note Name: C#4
Note OFF: Time 197760, Note Name: B3
Note OFF: Time 197760, Note Name: F3
Note ON: Time 197760, Note Name: B3, Velocity: 22
Note ON: Time 197760, Note Name: F4, Velocity: 27
Note OFF: Time 198240, Note Name: F4
Note OFF: Time 198240, Note Name: B3
Note ON: Time 198240, Note Name: B3, Velocity: 22
Note ON: Time 198240, Note Name: F4, Velocity: 27
Note OFF: Time 198720, Note Name: F4
Note OFF: Time 198720, Note Name: B3
Note ON: Time 198720, Note Name: F#3, Velocity: 25
Note ON: Time 198720, Note Name: B3, Velocity: 30
Note OFF: Time 199200, Note Name: B3
Note OFF: Time 199200, Note Name: F#3
Note ON: Time 199200, Note Name: F#3, Velocity: 21
Note ON: Time 199200, Note Name: B3, Velocity: 25
Note OFF: Time 199680, Note Name: B3
Note OFF: Time 199680, Note Name: F#3
Note ON: Time 199680, Note Name: F#3, Velocity: 22
Note ON: Time 199680, Note Name: B3, Velocity: 26
Note OFF: Time 200160, Note Name: B3
Note OFF: Time 200160, Note Name: F#3
Note ON: Time 200160, Note Name: G#3, Velocity: 27
Note ON: Time 200160, Note Name: B3, Velocity: 27
Note ON: Time 200160, Note Name: C#4, Velocity: 36
Note OFF: Time 200640, Note Name: C#4
Note OFF: Time 200640, Note Name: B3
Note OFF: Time 200640, Note Name: G#3
Note ON: Time 200640, Note Name: B3, Velocity: 23
Note ON: Time 200640, Note Name: F4, Velocity: 27
Note OFF: Time 201120, Note Name: F4
Note OFF: Time 201120, Note Name: B3
Note ON: Time 201120, Note Name: B3, Velocity: 23
Note ON: Time 201120, Note Name: F4, Velocity: 27
Note OFF: Time 201600, Note Name: F4
Note OFF: Time 201600, Note Name: B3
Note ON: Time 201600, Note Name: F#3, Velocity: 25
Note ON: Time 201600, Note Name: B3, Velocity: 30
Note OFF: Time 202080, Note Name: B3
Note OFF: Time 202080, Note Name: F#3
Note ON: Time 202080, Note Name: F#3, Velocity: 23
Note ON: Time 202080, Note Name: B3, Velocity: 27
Note OFF: Time 202560, Note Name: B3
Note OFF: Time 202560, Note Name: F#3
Note ON: Time 202560, Note Name: F#3, Velocity: 23
Note ON: Time 202560, Note Name: B3, Velocity: 27
Note OFF: Time 203040, Note Name: B3
Note OFF: Time 203040, Note Name: F#3
Note ON: Time 203040, Note Name: G#3, Velocity: 27
Note ON: Time 203040, Note Name: B3, Velocity: 27
Note ON: Time 203040, Note Name: C#4, Velocity: 31
Note OFF: Time 203520, Note Name: C#4
Note OFF: Time 203520, Note Name: B3
Note OFF: Time 203520, Note Name: G#3
Note ON: Time 203520, Note Name: B3, Velocity: 28
Note ON: Time 203520, Note Name: F4, Velocity: 34
Note OFF: Time 204000, Note Name: F4
Note OFF: Time 204000, Note Name: B3
Note ON: Time 204000, Note Name: B3, Velocity: 30
Note ON: Time 204000, Note Name: F4, Velocity: 36
Note OFF: Time 204480, Note Name: F4
Note OFF: Time 204480, Note Name: B3
Note ON: Time 204480, Note Name: B3, Velocity: 31
Note ON: Time 204480, Note Name: F4, Velocity: 37
Note OFF: Time 204960, Note Name: F4
Note OFF: Time 204960, Note Name: B3
Note ON: Time 204960, Note Name: C4, Velocity: 32
Note ON: Time 204960, Note Name: F4, Velocity: 39
Note OFF: Time 205440, Note Name: F4
Note OFF: Time 205440, Note Name: C4
Note ON: Time 205440, Note Name: C#4, Velocity: 36
Note ON: Time 205440, Note Name: F4, Velocity: 43
Note OFF: Time 205920, Note Name: F4
Note OFF: Time 205920, Note Name: C#4
Note ON: Time 205920, Note Name: D4, Velocity: 36
Note ON: Time 205920, Note Name: F4, Velocity: 45
Note OFF: Time 206400, Note Name: F4
Note OFF: Time 206400, Note Name: D4
Note ON: Time 206400, Note Name: D#4, Velocity: 34
Note ON: Time 206400, Note Name: F4, Velocity: 42
Note OFF: Time 206878, Note Name: F4
Note OFF: Time 206880, Note Name: D#4
Note ON: Time 206880, Note Name: B3, Velocity: 24
Note ON: Time 206880, Note Name: C#4, Velocity: 28
Note OFF: Time 207360, Note Name: C#4
Note OFF: Time 207360, Note Name: B3
Note ON: Time 207360, Note Name: A#3, Velocity: 26
Note ON: Time 207360, Note Name: C#4, Velocity: 30
Note OFF: Time 207840, Note Name: C#4
Note OFF: Time 207840, Note Name: A#3
Note ON: Time 208800, Note Name: G#3, Velocity: 30
Note ON: Time 208800, Note Name: C4, Velocity: 30
Note ON: Time 208800, Note Name: F#4, Velocity: 36
Note ON: Time 208800, Note Name: G#4, Velocity: 36
Note OFF: Time 210240, Note Name: G#4
Note OFF: Time 210240, Note Name: G#3
Note OFF: Time 210240, Note Name: C4
Note OFF: Time 210240, Note Name: F#4
Note ON: Time 210240, Note Name: G#3, Velocity: 30
Note ON: Time 210240, Note Name: C#4, Velocity: 30
Note ON: Time 210240, Note Name: F4, Velocity: 30
Note ON: Time 210240, Note Name: G#4, Velocity: 36
Note OFF: Time 210720, Note Name: G#3
Note OFF: Time 211680, Note Name: C#4
Note OFF: Time 211680, Note Name: F4
Note OFF: Time 211680, Note Name: G#4
Note ON: Time 211680, Note Name: C4, Velocity: 31
Note ON: Time 211680, Note Name: F#4, Velocity: 37
Note ON: Time 211680, Note Name: G#4, Velocity: 37
Note OFF: Time 212640, Note Name: C4
Note ON: Time 212640, Note Name: C#4, Velocity: 42
Note OFF: Time 212880, Note Name: C#4
Note ON: Time 212880, Note Name: D#4, Velocity: 37
Note OFF: Time 213120, Note Name: D#4
Note OFF: Time 213120, Note Name: G#4
Note OFF: Time 213120, Note Name: F#4
Note ON: Time 213120, Note Name: E4, Velocity: 45
Note ON: Time 213120, Note Name: G#4, Velocity: 45
Note OFF: Time 213600, Note Name: E4
Note ON: Time 213600, Note Name: F4, Velocity: 39
Note OFF: Time 214320, Note Name: G#4
Note ON: Time 214320, Note Name: F5, Velocity: 52
Note OFF: Time 214560, Note Name: F5
Note OFF: Time 214560, Note Name: F4
Note ON: Time 214560, Note Name: D#4, Velocity: 39
Note ON: Time 214560, Note Name: A4, Velocity: 39
Note ON: Time 214560, Note Name: F5, Velocity: 49
Note OFF: Time 215520, Note Name: F5
Note OFF: Time 215520, Note Name: A4
Note ON: Time 215520, Note Name: A4, Velocity: 39
Note OFF: Time 216000, Note Name: A4
Note OFF: Time 216000, Note Name: D#4
Note ON: Time 216000, Note Name: A#4, Velocity: 46
Note ON: Time 216000, Note Name: C#4, Velocity: 39
Note OFF: Time 216960, Note Name: A#4
Note ON: Time 216960, Note Name: F4, Velocity: 37
Note ON: Time 216960, Note Name: C#5, Velocity: 45
Note OFF: Time 217440, Note Name: C#5
Note OFF: Time 217440, Note Name: F4
Note OFF: Time 217440, Note Name: C#4
Note ON: Time 217440, Note Name: C#4, Velocity: 34
Note ON: Time 217440, Note Name: D#4, Velocity: 39
Note ON: Time 217440, Note Name: G4, Velocity: 47
Note OFF: Time 218880, Note Name: G4
Note OFF: Time 218880, Note Name: D#4
Note OFF: Time 218880, Note Name: C#4
Note ON: Time 218880, Note Name: C4, Velocity: 39
Note ON: Time 218880, Note Name: D#4, Velocity: 39
Note ON: Time 218880, Note Name: G#4, Velocity: 47
Note OFF: Time 219840, Note Name: G#4
Note OFF: Time 219840, Note Name: D#4
Note OFF: Time 219840, Note Name: C4
Note ON: Time 219840, Note Name: C#4, Velocity: 37
Note ON: Time 219840, Note Name: F4, Velocity: 37
Note ON: Time 219840, Note Name: G#4, Velocity: 45
Note OFF: Time 220320, Note Name: G#4
Note OFF: Time 220320, Note Name: F4
Note OFF: Time 220320, Note Name: C#4
Note ON: Time 220320, Note Name: C4, Velocity: 30
Note ON: Time 220320, Note Name: F#4, Velocity: 36
Note ON: Time 220320, Note Name: G#4, Velocity: 36
Note OFF: Time 221760, Note Name: G#4
Note OFF: Time 221760, Note Name: F#4
Note OFF: Time 221760, Note Name: C4
Note ON: Time 221760, Note Name: C#4, Velocity: 39
Note ON: Time 221760, Note Name: F4, Velocity: 42
Note ON: Time 221760, Note Name: G#4, Velocity: 46
Note OFF: Time 222720, Note Name: C#4
Note ON: Time 222720, Note Name: G#3, Velocity: 35
Note OFF: Time 223200, Note Name: G#3
Note OFF: Time 223200, Note Name: G#4
Note OFF: Time 223200, Note Name: F4
Note ON: Time 223200, Note Name: C4, Velocity: 45
Note ON: Time 223200, Note Name: F#4, Velocity: 45
Note ON: Time 223200, Note Name: G#4, Velocity: 45
Note OFF: Time 223680, Note Name: C4
Note ON: Time 223680, Note Name: A#3, Velocity: 38
Note OFF: Time 223920, Note Name: A#3
Note ON: Time 223920, Note Name: G#3, Velocity: 34
Note OFF: Time 224160, Note Name: G#3
Note ON: Time 224160, Note Name: C#4, Velocity: 42
Note OFF: Time 224400, Note Name: C#4
Note ON: Time 224400, Note Name: D#4, Velocity: 37
Note OFF: Time 224640, Note Name: D#4
Note OFF: Time 224640, Note Name: G#4
Note OFF: Time 224640, Note Name: F#4
Note ON: Time 224640, Note Name: F4, Velocity: 39
Note ON: Time 224640, Note Name: G#4, Velocity: 47
Note OFF: Time 225600, Note Name: F4
Note ON: Time 225600, Note Name: E4, Velocity: 42
Note OFF: Time 226080, Note Name: E4
Note OFF: Time 226080, Note Name: G#4
Note ON: Time 226080, Note Name: G#4, Velocity: 45
Note ON: Time 226080, Note Name: D#4, Velocity: 38
Note OFF: Time 227040, Note Name: G#4
Note ON: Time 227040, Note Name: F#4, Velocity: 38
Note OFF: Time 227520, Note Name: F#4
Note OFF: Time 227520, Note Name: D#4
Note ON: Time 227520, Note Name: D4, Velocity: 37
Note ON: Time 227520, Note Name: F#4, Velocity: 45
Note OFF: Time 228000, Note Name: D4
Note ON: Time 228000, Note Name: C#4, Velocity: 39
Note OFF: Time 228480, Note Name: F#4
Note ON: Time 228480, Note Name: D#4, Velocity: 39
Note ON: Time 228480, Note Name: C#5, Velocity: 47
Note OFF: Time 228960, Note Name: C#5
Note OFF: Time 228960, Note Name: D#4
Note OFF: Time 228960, Note Name: C#4
Note ON: Time 228960, Note Name: C#4, Velocity: 41
Note ON: Time 228960, Note Name: F4, Velocity: 41
Note ON: Time 228960, Note Name: C#5, Velocity: 48
Note OFF: Time 230397, Note Name: C#4
Note OFF: Time 230400, Note Name: C#5
Note OFF: Time 230400, Note Name: F4
Note ON: Time 230400, Note Name: F4, Velocity: 31
Note ON: Time 230400, Note Name: G#4, Velocity: 37
Note OFF: Time 231360, Note Name: G#4
Note ON: Time 231360, Note Name: A4, Velocity: 45
Note OFF: Time 231840, Note Name: A4
Note OFF: Time 231840, Note Name: F4
Note ON: Time 232320, Note Name: A#3, Velocity: 25
Note OFF: Time 232800, Note Name: A#3
Note ON: Time 232800, Note Name: A#3, Velocity: 22
Note OFF: Time 233280, Note Name: A#3
Note ON: Time 233760, Note Name: A#3, Velocity: 20
Note ON: Time 233760, Note Name: F#4, Velocity: 25
Note OFF: Time 234240, Note Name: F#4
Note OFF: Time 234240, Note Name: A#3
Note ON: Time 234240, Note Name: A#3, Velocity: 20
Note ON: Time 234240, Note Name: F#4, Velocity: 25
Note OFF: Time 234720, Note Name: F#4
Note OFF: Time 234720, Note Name: A#3
Note ON: Time 235200, Note Name: B3, Velocity: 23
Note OFF: Time 235680, Note Name: B3
Note ON: Time 235680, Note Name: F4, Velocity: 27
Note ON: Time 235680, Note Name: B3, Velocity: 22
Note OFF: Time 236160, Note Name: B3
Note OFF: Time 236160, Note Name: F4
Note ON: Time 236640, Note Name: A#3, Velocity: 24
Note ON: Time 236640, Note Name: F#4, Velocity: 28
Note OFF: Time 237120, Note Name: F#4
Note OFF: Time 237120, Note Name: A#3
Note ON: Time 237120, Note Name: A#3, Velocity: 23
Note ON: Time 237120, Note Name: F#4, Velocity: 27
Note OFF: Time 237600, Note Name: F#4
Note OFF: Time 237600, Note Name: A#3
Note ON: Time 237600, Note Name: A#3, Velocity: 23
Note ON: Time 237600, Note Name: F#4, Velocity: 27
Note OFF: Time 238080, Note Name: F#4
Note OFF: Time 238080, Note Name: A#3
Note ON: Time 238080, Note Name: C#4, Velocity: 20
Note ON: Time 238080, Note Name: F#4, Velocity: 24
Note OFF: Time 238560, Note Name: F#4
Note OFF: Time 238560, Note Name: C#4
Note ON: Time 238560, Note Name: C#4, Velocity: 20
Note ON: Time 238560, Note Name: F#4, Velocity: 24
Note OFF: Time 239040, Note Name: F#4
Note OFF: Time 239040, Note Name: C#4
Note ON: Time 239040, Note Name: C#4, Velocity: 20
Note ON: Time 239040, Note Name: F#4, Velocity: 24
Note OFF: Time 239520, Note Name: F#4
Note OFF: Time 239520, Note Name: C#4
Note ON: Time 239520, Note Name: G#3, Velocity: 20
Note ON: Time 239520, Note Name: C#4, Velocity: 24
Note OFF: Time 240000, Note Name: C#4
Note OFF: Time 240000, Note Name: G#3
Note ON: Time 240000, Note Name: F#3, Velocity: 20
Note ON: Time 240000, Note Name: C#4, Velocity: 24
Note OFF: Time 240480, Note Name: C#4
Note OFF: Time 240480, Note Name: F#3
Note ON: Time 240480, Note Name: F#3, Velocity: 20
Note ON: Time 240480, Note Name: C#4, Velocity: 24
Note OFF: Time 240960, Note Name: C#4
Note OFF: Time 240960, Note Name: F#3
Note ON: Time 240960, Note Name: G#3, Velocity: 18
Note ON: Time 240960, Note Name: C#4, Velocity: 23
Note OFF: Time 241440, Note Name: C#4
Note OFF: Time 241440, Note Name: G#3
Note ON: Time 241440, Note Name: F#3, Velocity: 18
Note ON: Time 241440, Note Name: C#4, Velocity: 23
Note OFF: Time 241920, Note Name: C#4
Note OFF: Time 241920, Note Name: F#3
Note ON: Time 241920, Note Name: F#3, Velocity: 15
Note ON: Time 241920, Note Name: C#4, Velocity: 23
Note OFF: Time 242400, Note Name: C#4
Note OFF: Time 242400, Note Name: F#3
Note ON: Time 242400, Note Name: G#3, Velocity: 15
Note ON: Time 242400, Note Name: C#4, Velocity: 24
Note OFF: Time 242880, Note Name: C#4
Note OFF: Time 242880, Note Name: G#3
Note ON: Time 242880, Note Name: F#3, Velocity: 15
Note ON: Time 242880, Note Name: C#4, Velocity: 23
Note OFF: Time 243360, Note Name: C#4
Note OFF: Time 243360, Note Name: F#3
Note ON: Time 243840, Note Name: B3, Velocity: 26
Note OFF: Time 244320, Note Name: B3
Note ON: Time 244320, Note Name: B3, Velocity: 26
Note OFF: Time 244800, Note Name: B3
Note ON: Time 245280, Note Name: B3, Velocity: 25
Note ON: Time 245280, Note Name: G#4, Velocity: 30
Note OFF: Time 245760, Note Name: G#4
Note OFF: Time 245760, Note Name: B3
Note ON: Time 245760, Note Name: B3, Velocity: 21
Note ON: Time 245760, Note Name: G#4, Velocity: 25
Note OFF: Time 246240, Note Name: G#4
Note OFF: Time 246240, Note Name: B3
Note ON: Time 246720, Note Name: C#4, Velocity: 28
Note OFF: Time 247200, Note Name: C#4
Note ON: Time 247200, Note Name: G4, Velocity: 27
Note ON: Time 247200, Note Name: C#4, Velocity: 22
Note OFF: Time 247680, Note Name: C#4
Note OFF: Time 247680, Note Name: G4
Note ON: Time 248160, Note Name: B3, Velocity: 22
Note ON: Time 248160, Note Name: G#4, Velocity: 26
Note OFF: Time 248640, Note Name: G#4
Note OFF: Time 248640, Note Name: B3
Note ON: Time 248640, Note Name: B3, Velocity: 22
Note ON: Time 248640, Note Name: G#4, Velocity: 26
Note OFF: Time 249120, Note Name: G#4
Note OFF: Time 249120, Note Name: B3
Note ON: Time 249120, Note Name: B3, Velocity: 20
Note ON: Time 249120, Note Name: G#4, Velocity: 28
Note OFF: Time 249600, Note Name: G#4
Note OFF: Time 249600, Note Name: B3
Note ON: Time 249600, Note Name: D#4, Velocity: 24
Note ON: Time 249600, Note Name: G#4, Velocity: 29
Note OFF: Time 250080, Note Name: G#4
Note OFF: Time 250080, Note Name: D#4
Note ON: Time 250080, Note Name: D#4, Velocity: 24
Note ON: Time 250080, Note Name: G#4, Velocity: 27
Note OFF: Time 250560, Note Name: G#4
Note OFF: Time 250560, Note Name: D#4
Note ON: Time 250560, Note Name: D#4, Velocity: 22
Note ON: Time 250560, Note Name: G#4, Velocity: 27
Note OFF: Time 251040, Note Name: G#4
Note OFF: Time 251040, Note Name: D#4
Note ON: Time 251040, Note Name: A#3, Velocity: 23
Note ON: Time 251040, Note Name: D#4, Velocity: 27
Note OFF: Time 251520, Note Name: D#4
Note OFF: Time 251520, Note Name: A#3
Note ON: Time 251520, Note Name: G#3, Velocity: 22
Note ON: Time 251520, Note Name: D#4, Velocity: 27
Note OFF: Time 252000, Note Name: D#4
Note OFF: Time 252000, Note Name: G#3
Note ON: Time 252000, Note Name: G#3, Velocity: 22
Note ON: Time 252000, Note Name: D#4, Velocity: 27
Note OFF: Time 252480, Note Name: D#4
Note OFF: Time 252480, Note Name: G#3
Note ON: Time 252480, Note Name: A#3, Velocity: 22
Note ON: Time 252480, Note Name: D#4, Velocity: 27
Note OFF: Time 252960, Note Name: D#4
Note OFF: Time 252960, Note Name: A#3
Note ON: Time 252960, Note Name: G#3, Velocity: 22
Note ON: Time 252960, Note Name: D#4, Velocity: 27
Note OFF: Time 253440, Note Name: D#4
Note OFF: Time 253440, Note Name: G#3
Note ON: Time 253440, Note Name: G#3, Velocity: 22
Note ON: Time 253440, Note Name: D#4, Velocity: 27
Note OFF: Time 253920, Note Name: D#4
Note OFF: Time 253920, Note Name: G#3
Note ON: Time 253920, Note Name: A#3, Velocity: 22
Note ON: Time 253920, Note Name: D#4, Velocity: 27
Note OFF: Time 254400, Note Name: D#4
Note OFF: Time 254400, Note Name: A#3
Note ON: Time 254400, Note Name: B3, Velocity: 22
Note ON: Time 254400, Note Name: F#3, Velocity: 22
Note ON: Time 254400, Note Name: D#4, Velocity: 27
Note OFF: Time 254880, Note Name: D#4
Note OFF: Time 254880, Note Name: F#3
Note OFF: Time 254880, Note Name: B3
Note ON: Time 254880, Note Name: F3, Velocity: 24
Note ON: Time 254880, Note Name: B3, Velocity: 28
Note ON: Time 254880, Note Name: C#4, Velocity: 28
Note OFF: Time 255360, Note Name: C#4
Note OFF: Time 255360, Note Name: B3
Note OFF: Time 255360, Note Name: F3
Note ON: Time 255360, Note Name: B3, Velocity: 22
Note ON: Time 255360, Note Name: F4, Velocity: 27
Note OFF: Time 255840, Note Name: F4
Note OFF: Time 255840, Note Name: B3
Note ON: Time 255840, Note Name: B3, Velocity: 22
Note ON: Time 255840, Note Name: F4, Velocity: 27
Note OFF: Time 256320, Note Name: F4
Note OFF: Time 256320, Note Name: B3
Note ON: Time 256320, Note Name: F#3, Velocity: 25
Note ON: Time 256320, Note Name: B3, Velocity: 30
Note OFF: Time 256800, Note Name: B3
Note OFF: Time 256800, Note Name: F#3
Note ON: Time 256800, Note Name: F#3, Velocity: 21
Note ON: Time 256800, Note Name: B3, Velocity: 25
Note OFF: Time 257280, Note Name: B3
Note OFF: Time 257280, Note Name: F#3
Note ON: Time 257280, Note Name: F#3, Velocity: 22
Note ON: Time 257280, Note Name: B3, Velocity: 26
Note OFF: Time 257760, Note Name: B3
Note OFF: Time 257760, Note Name: F#3
Note ON: Time 257760, Note Name: G#3, Velocity: 27
Note ON: Time 257760, Note Name: B3, Velocity: 27
Note ON: Time 257760, Note Name: C#4, Velocity: 36
Note OFF: Time 258240, Note Name: C#4
Note OFF: Time 258240, Note Name: B3
Note OFF: Time 258240, Note Name: G#3
Note ON: Time 258240, Note Name: B3, Velocity: 23
Note ON: Time 258240, Note Name: F4, Velocity: 27
Note OFF: Time 258720, Note Name: F4
Note OFF: Time 258720, Note Name: B3
Note ON: Time 258720, Note Name: B3, Velocity: 23
Note ON: Time 258720, Note Name: F4, Velocity: 27
Note OFF: Time 259200, Note Name: F4
Note OFF: Time 259200, Note Name: B3
Note ON: Time 259200, Note Name: F#3, Velocity: 25
Note ON: Time 259200, Note Name: B3, Velocity: 30
Note OFF: Time 259680, Note Name: B3
Note OFF: Time 259680, Note Name: F#3
Note ON: Time 259680, Note Name: F#3, Velocity: 23
Note ON: Time 259680, Note Name: B3, Velocity: 27
Note OFF: Time 260160, Note Name: B3
Note OFF: Time 260160, Note Name: F#3
Note ON: Time 260160, Note Name: F#3, Velocity: 23
Note ON: Time 260160, Note Name: B3, Velocity: 27
Note OFF: Time 260640, Note Name: B3
Note OFF: Time 260640, Note Name: F#3
Note ON: Time 260640, Note Name: G#3, Velocity: 27
Note ON: Time 260640, Note Name: B3, Velocity: 27
Note ON: Time 260640, Note Name: C#4, Velocity: 31
Note OFF: Time 261120, Note Name: C#4
Note OFF: Time 261120, Note Name: B3
Note OFF: Time 261120, Note Name: G#3
Note ON: Time 261120, Note Name: B3, Velocity: 28
Note ON: Time 261120, Note Name: F4, Velocity: 34
Note OFF: Time 261600, Note Name: F4
Note OFF: Time 261600, Note Name: B3
Note ON: Time 261600, Note Name: B3, Velocity: 30
Note ON: Time 261600, Note Name: F4, Velocity: 36
Note OFF: Time 262080, Note Name: F4
Note OFF: Time 262080, Note Name: B3
Note ON: Time 262080, Note Name: B3, Velocity: 31
Note ON: Time 262080, Note Name: F4, Velocity: 37
Note OFF: Time 262560, Note Name: F4
Note OFF: Time 262560, Note Name: B3
Note ON: Time 262560, Note Name: C4, Velocity: 32
Note ON: Time 262560, Note Name: F4, Velocity: 39
Note OFF: Time 263040, Note Name: F4
Note OFF: Time 263040, Note Name: C4
Note ON: Time 263040, Note Name: C#4, Velocity: 35
Note ON: Time 263040, Note Name: F4, Velocity: 42
Note OFF: Time 263520, Note Name: F4
Note OFF: Time 263520, Note Name: C#4
Note ON: Time 263520, Note Name: D4, Velocity: 37
Note ON: Time 263520, Note Name: F4, Velocity: 45
Note OFF: Time 264000, Note Name: F4
Note OFF: Time 264000, Note Name: D4
Note ON: Time 264000, Note Name: D#4, Velocity: 34
Note ON: Time 264000, Note Name: F4, Velocity: 41
Note OFF: Time 264478, Note Name: F4
Note OFF: Time 264480, Note Name: D#4
Note ON: Time 264480, Note Name: B3, Velocity: 24
Note ON: Time 264480, Note Name: C#4, Velocity: 28
Note OFF: Time 264960, Note Name: C#4
Note OFF: Time 264960, Note Name: B3
Note ON: Time 264960, Note Name: A#3, Velocity: 26
Note ON: Time 264960, Note Name: C#4, Velocity: 30
Note OFF: Time 265440, Note Name: C#4
Note OFF: Time 265440, Note Name: A#3
Note ON: Time 266400, Note Name: G#3, Velocity: 30
Note ON: Time 266400, Note Name: C4, Velocity: 30
Note ON: Time 266400, Note Name: F#4, Velocity: 36
Note ON: Time 266400, Note Name: G#4, Velocity: 36
Note OFF: Time 267840, Note Name: G#4
Note OFF: Time 267840, Note Name: G#3
Note OFF: Time 267840, Note Name: C4
Note OFF: Time 267840, Note Name: F#4
Note ON: Time 267840, Note Name: G#3, Velocity: 30
Note ON: Time 267840, Note Name: C#4, Velocity: 30
Note ON: Time 267840, Note Name: F4, Velocity: 30
Note ON: Time 267840, Note Name: G#4, Velocity: 36
Note OFF: Time 268320, Note Name: G#3
Note OFF: Time 269280, Note Name: C#4
Note OFF: Time 269280, Note Name: F4
Note OFF: Time 269280, Note Name: G#4
Note ON: Time 269280, Note Name: C4, Velocity: 31
Note ON: Time 269280, Note Name: F#4, Velocity: 37
Note ON: Time 269280, Note Name: G#4, Velocity: 37
Note OFF: Time 270240, Note Name: C4
Note ON: Time 270240, Note Name: C#4, Velocity: 42
Note OFF: Time 270480, Note Name: C#4
Note ON: Time 270480, Note Name: D#4, Velocity: 37
Note OFF: Time 270720, Note Name: D#4
Note OFF: Time 270720, Note Name: G#4
Note OFF: Time 270720, Note Name: F#4
Note ON: Time 270720, Note Name: E4, Velocity: 45
Note ON: Time 270720, Note Name: G#4, Velocity: 45
Note OFF: Time 271200, Note Name: E4
Note ON: Time 271200, Note Name: F4, Velocity: 39
Note OFF: Time 271920, Note Name: G#4
Note ON: Time 271920, Note Name: F5, Velocity: 52
Note OFF: Time 272160, Note Name: F5
Note OFF: Time 272160, Note Name: F4
Note ON: Time 272160, Note Name: D#4, Velocity: 39
Note ON: Time 272160, Note Name: A4, Velocity: 39
Note ON: Time 272160, Note Name: F5, Velocity: 49
Note OFF: Time 273120, Note Name: F5
Note OFF: Time 273120, Note Name: A4
Note ON: Time 273120, Note Name: A4, Velocity: 39
Note OFF: Time 273600, Note Name: A4
Note OFF: Time 273600, Note Name: D#4
Note ON: Time 273600, Note Name: A#4, Velocity: 46
Note ON: Time 273600, Note Name: C#4, Velocity: 39
Note OFF: Time 274560, Note Name: A#4
Note ON: Time 274560, Note Name: F4, Velocity: 37
Note ON: Time 274560, Note Name: C#5, Velocity: 45
Note OFF: Time 275040, Note Name: C#5
Note OFF: Time 275040, Note Name: F4
Note OFF: Time 275040, Note Name: C#4
Note ON: Time 275040, Note Name: C#4, Velocity: 34
Note ON: Time 275040, Note Name: D#4, Velocity: 39
Note ON: Time 275040, Note Name: G4, Velocity: 47
Note OFF: Time 276480, Note Name: G4
Note OFF: Time 276480, Note Name: D#4
Note OFF: Time 276480, Note Name: C#4
Note ON: Time 276480, Note Name: C4, Velocity: 39
Note ON: Time 276480, Note Name: D#4, Velocity: 39
Note ON: Time 276480, Note Name: G#4, Velocity: 47
Note OFF: Time 277440, Note Name: G#4
Note OFF: Time 277440, Note Name: D#4
Note OFF: Time 277440, Note Name: C4
Note ON: Time 277440, Note Name: C#4, Velocity: 37
Note ON: Time 277440, Note Name: F4, Velocity: 37
Note ON: Time 277440, Note Name: G#4, Velocity: 45
Note OFF: Time 277920, Note Name: G#4
Note OFF: Time 277920, Note Name: F4
Note OFF: Time 277920, Note Name: C#4
Note ON: Time 277920, Note Name: C4, Velocity: 30
Note ON: Time 277920, Note Name: F#4, Velocity: 36
Note ON: Time 277920, Note Name: G#4, Velocity: 36
Note OFF: Time 279360, Note Name: G#4
Note OFF: Time 279360, Note Name: F#4
Note OFF: Time 279360, Note Name: C4
Note ON: Time 279360, Note Name: C#4, Velocity: 39
Note ON: Time 279360, Note Name: F4, Velocity: 43
Note ON: Time 279360, Note Name: G#4, Velocity: 46
Note OFF: Time 280320, Note Name: C#4
Note ON: Time 280320, Note Name: G#3, Velocity: 35
Note OFF: Time 280800, Note Name: G#3
Note OFF: Time 280800, Note Name: G#4
Note OFF: Time 280800, Note Name: F4
Note ON: Time 280800, Note Name: C4, Velocity: 45
Note ON: Time 280800, Note Name: F#4, Velocity: 40
Note ON: Time 280800, Note Name: G#4, Velocity: 45
Note OFF: Time 281280, Note Name: C4
Note ON: Time 281280, Note Name: A#3, Velocity: 38
Note OFF: Time 281520, Note Name: A#3
Note ON: Time 281520, Note Name: G#3, Velocity: 34
Note OFF: Time 281760, Note Name: G#3
Note ON: Time 281760, Note Name: C#4, Velocity: 42
Note OFF: Time 282000, Note Name: C#4
Note ON: Time 282000, Note Name: D#4, Velocity: 37
Note OFF: Time 282240, Note Name: D#4
Note OFF: Time 282240, Note Name: G#4
Note OFF: Time 282240, Note Name: F#4
Note ON: Time 282240, Note Name: F4, Velocity: 39
Note ON: Time 282240, Note Name: G#4, Velocity: 47
Note OFF: Time 283200, Note Name: F4
Note ON: Time 283200, Note Name: E4, Velocity: 42
Note OFF: Time 283680, Note Name: E4
Note OFF: Time 283680, Note Name: G#4
Note ON: Time 283680, Note Name: G#4, Velocity: 45
Note ON: Time 283680, Note Name: D#4, Velocity: 38
Note OFF: Time 284640, Note Name: G#4
Note ON: Time 284640, Note Name: F#4, Velocity: 38
Note OFF: Time 285118, Note Name: F#4
Note OFF: Time 285120, Note Name: D#4
Note ON: Time 285120, Note Name: D4, Velocity: 37
Note ON: Time 285120, Note Name: F#4, Velocity: 45
Note OFF: Time 285600, Note Name: D4
Note ON: Time 285600, Note Name: C#4, Velocity: 39
Note OFF: Time 286080, Note Name: F#4
Note ON: Time 286080, Note Name: D#4, Velocity: 39
Note ON: Time 286080, Note Name: C#5, Velocity: 47
Note OFF: Time 286560, Note Name: C#5
Note OFF: Time 286560, Note Name: D#4
Note OFF: Time 286560, Note Name: C#4
Note ON: Time 286560, Note Name: C#4, Velocity: 41
Note ON: Time 286560, Note Name: F4, Velocity: 41
Note ON: Time 286560, Note Name: C#5, Velocity: 48
Note OFF: Time 287998, Note Name: C#4
Note OFF: Time 288000, Note Name: C#5
Note OFF: Time 288000, Note Name: F4
Note ON: Time 288000, Note Name: F4, Velocity: 31
Note ON: Time 288000, Note Name: G#4, Velocity: 37
Note OFF: Time 288960, Note Name: G#4
Note ON: Time 288960, Note Name: A4, Velocity: 45
Note OFF: Time 289440, Note Name: A4
Note OFF: Time 289440, Note Name: F4
Note ON: Time 289920, Note Name: A#3, Velocity: 25
Note OFF: Time 290400, Note Name: A#3
Note ON: Time 290400, Note Name: A#3, Velocity: 22
Note OFF: Time 290880, Note Name: A#3
Note ON: Time 291360, Note Name: A#3, Velocity: 20
Note ON: Time 291360, Note Name: F#4, Velocity: 25
Note OFF: Time 291840, Note Name: F#4
Note OFF: Time 291840, Note Name: A#3
Note ON: Time 291840, Note Name: A#3, Velocity: 20
Note ON: Time 291840, Note Name: F#4, Velocity: 25
Note OFF: Time 292320, Note Name: F#4
Note OFF: Time 292320, Note Name: A#3
Note ON: Time 292800, Note Name: B3, Velocity: 23
Note OFF: Time 293280, Note Name: B3
Note ON: Time 293280, Note Name: F4, Velocity: 27
Note ON: Time 293280, Note Name: B3, Velocity: 22
Note OFF: Time 293760, Note Name: B3
Note OFF: Time 293760, Note Name: F4
Note ON: Time 294240, Note Name: A#3, Velocity: 24
Note ON: Time 294240, Note Name: F#4, Velocity: 28
Note OFF: Time 294720, Note Name: F#4
Note OFF: Time 294720, Note Name: A#3
Note ON: Time 294720, Note Name: A#3, Velocity: 23
Note ON: Time 294720, Note Name: F#4, Velocity: 27
Note OFF: Time 295200, Note Name: F#4
Note OFF: Time 295200, Note Name: A#3
Note ON: Time 295200, Note Name: A#3, Velocity: 23
Note ON: Time 295200, Note Name: F#4, Velocity: 27
Note OFF: Time 295680, Note Name: F#4
Note OFF: Time 295680, Note Name: A#3
Note ON: Time 295680, Note Name: C#4, Velocity: 20
Note ON: Time 295680, Note Name: F#4, Velocity: 24
Note OFF: Time 296160, Note Name: F#4
Note OFF: Time 296160, Note Name: C#4
Note ON: Time 296160, Note Name: C#4, Velocity: 20
Note ON: Time 296160, Note Name: F#4, Velocity: 24
Note OFF: Time 296640, Note Name: F#4
Note OFF: Time 296640, Note Name: C#4
Note ON: Time 296640, Note Name: C#4, Velocity: 20
Note ON: Time 296640, Note Name: F#4, Velocity: 24
Note OFF: Time 297120, Note Name: F#4
Note OFF: Time 297120, Note Name: C#4
Note ON: Time 297120, Note Name: G#3, Velocity: 20
Note ON: Time 297120, Note Name: C#4, Velocity: 24
Note OFF: Time 297600, Note Name: C#4
Note OFF: Time 297600, Note Name: G#3
Note ON: Time 297600, Note Name: F#3, Velocity: 20
Note ON: Time 297600, Note Name: C#4, Velocity: 24
Note OFF: Time 298080, Note Name: C#4
Note OFF: Time 298080, Note Name: F#3
Note ON: Time 298080, Note Name: F#3, Velocity: 20
Note ON: Time 298080, Note Name: C#4, Velocity: 24
Note OFF: Time 298560, Note Name: C#4
Note OFF: Time 298560, Note Name: F#3
Note ON: Time 298560, Note Name: G#3, Velocity: 18
Note ON: Time 298560, Note Name: C#4, Velocity: 23
Note OFF: Time 299040, Note Name: C#4
Note OFF: Time 299040, Note Name: G#3
Note ON: Time 299040, Note Name: F#3, Velocity: 18
Note ON: Time 299040, Note Name: C#4, Velocity: 23
Note OFF: Time 299520, Note Name: C#4
Note OFF: Time 299520, Note Name: F#3
Note ON: Time 299520, Note Name: F#3, Velocity: 15
Note ON: Time 299520, Note Name: C#4, Velocity: 23
Note OFF: Time 300000, Note Name: C#4
Note OFF: Time 300000, Note Name: F#3
Note ON: Time 300000, Note Name: G#3, Velocity: 15
Note ON: Time 300000, Note Name: C#4, Velocity: 24
Note OFF: Time 300480, Note Name: C#4
Note OFF: Time 300480, Note Name: G#3
Note ON: Time 300480, Note Name: F#3, Velocity: 15
Note ON: Time 300480, Note Name: C#4, Velocity: 23
Note OFF: Time 300960, Note Name: C#4
Note OFF: Time 300960, Note Name: F#3
Note ON: Time 301440, Note Name: B3, Velocity: 26
Note OFF: Time 301920, Note Name: B3
Note ON: Time 301920, Note Name: B3, Velocity: 26
Note OFF: Time 302400, Note Name: B3
Note ON: Time 302880, Note Name: B3, Velocity: 25
Note ON: Time 302880, Note Name: G#4, Velocity: 30
Note OFF: Time 303360, Note Name: G#4
Note OFF: Time 303360, Note Name: B3
Note ON: Time 303360, Note Name: B3, Velocity: 21
Note ON: Time 303360, Note Name: G#4, Velocity: 25
Note OFF: Time 303840, Note Name: G#4
Note OFF: Time 303840, Note Name: B3
Note ON: Time 304320, Note Name: C#4, Velocity: 28
Note OFF: Time 304800, Note Name: C#4
Note ON: Time 304800, Note Name: G4, Velocity: 27
Note ON: Time 304800, Note Name: C#4, Velocity: 22
Note OFF: Time 305280, Note Name: C#4
Note OFF: Time 305280, Note Name: G4
Note ON: Time 305760, Note Name: B3, Velocity: 22
Note ON: Time 305760, Note Name: G#4, Velocity: 26
Note OFF: Time 306240, Note Name: G#4
Note OFF: Time 306240, Note Name: B3
Note ON: Time 306240, Note Name: B3, Velocity: 22
Note ON: Time 306240, Note Name: G#4, Velocity: 26
Note OFF: Time 306720, Note Name: G#4
Note OFF: Time 306720, Note Name: B3
Note ON: Time 306720, Note Name: B3, Velocity: 20
Note ON: Time 306720, Note Name: G#4, Velocity: 28
Note OFF: Time 307200, Note Name: G#4
Note OFF: Time 307200, Note Name: B3
Note ON: Time 307200, Note Name: D#4, Velocity: 24
Note ON: Time 307200, Note Name: G#4, Velocity: 29
Note OFF: Time 307680, Note Name: G#4
Note OFF: Time 307680, Note Name: D#4
Note ON: Time 307680, Note Name: D#4, Velocity: 24
Note ON: Time 307680, Note Name: G#4, Velocity: 27
Note OFF: Time 308160, Note Name: G#4
Note OFF: Time 308160, Note Name: D#4
Note ON: Time 308160, Note Name: D#4, Velocity: 22
Note ON: Time 308160, Note Name: G#4, Velocity: 27
Note OFF: Time 308640, Note Name: G#4
Note OFF: Time 308640, Note Name: D#4
Note ON: Time 308640, Note Name: A#3, Velocity: 23
Note ON: Time 308640, Note Name: D#4, Velocity: 27
Note OFF: Time 309120, Note Name: D#4
Note OFF: Time 309120, Note Name: A#3
Note ON: Time 309120, Note Name: G#3, Velocity: 22
Note ON: Time 309120, Note Name: D#4, Velocity: 27
Note OFF: Time 309600, Note Name: D#4
Note OFF: Time 309600, Note Name: G#3
Note ON: Time 309600, Note Name: G#3, Velocity: 22
Note ON: Time 309600, Note Name: D#4, Velocity: 27
Note OFF: Time 310080, Note Name: D#4
Note OFF: Time 310080, Note Name: G#3
Note ON: Time 310080, Note Name: A#3, Velocity: 22
Note ON: Time 310080, Note Name: D#4, Velocity: 27
Note OFF: Time 310560, Note Name: D#4
Note OFF: Time 310560, Note Name: A#3
Note ON: Time 310560, Note Name: G#3, Velocity: 22
Note ON: Time 310560, Note Name: D#4, Velocity: 27
Note OFF: Time 311040, Note Name: D#4
Note OFF: Time 311040, Note Name: G#3
Note ON: Time 311040, Note Name: G#3, Velocity: 22
Note ON: Time 311040, Note Name: D#4, Velocity: 27
Note OFF: Time 311520, Note Name: D#4
Note OFF: Time 311520, Note Name: G#3
Note ON: Time 311520, Note Name: A#3, Velocity: 22
Note ON: Time 311520, Note Name: D#4, Velocity: 27
Note OFF: Time 312000, Note Name: D#4
Note OFF: Time 312000, Note Name: A#3
Note ON: Time 312000, Note Name: B3, Velocity: 22
Note ON: Time 312000, Note Name: F#3, Velocity: 22
Note ON: Time 312000, Note Name: D#4, Velocity: 27
Note OFF: Time 312480, Note Name: D#4
Note OFF: Time 312480, Note Name: F#3
Note OFF: Time 312480, Note Name: B3
Note ON: Time 312480, Note Name: F3, Velocity: 24
Note ON: Time 312480, Note Name: B3, Velocity: 28
Note ON: Time 312480, Note Name: C#4, Velocity: 28
Note OFF: Time 312960, Note Name: C#4
Note OFF: Time 312960, Note Name: B3
Note OFF: Time 312960, Note Name: F3
Note ON: Time 312960, Note Name: B3, Velocity: 22
Note ON: Time 312960, Note Name: F4, Velocity: 27
Note OFF: Time 313440, Note Name: F4
Note OFF: Time 313440, Note Name: B3
Note ON: Time 313440, Note Name: B3, Velocity: 22
Note ON: Time 313440, Note Name: F4, Velocity: 27
Note OFF: Time 313920, Note Name: F4
Note OFF: Time 313920, Note Name: B3
Note ON: Time 313920, Note Name: F#3, Velocity: 25
Note ON: Time 313920, Note Name: B3, Velocity: 30
Note OFF: Time 314400, Note Name: B3
Note OFF: Time 314400, Note Name: F#3
Note ON: Time 314400, Note Name: F#3, Velocity: 21
Note ON: Time 314400, Note Name: B3, Velocity: 25
Note OFF: Time 314880, Note Name: B3
Note OFF: Time 314880, Note Name: F#3
Note ON: Time 314880, Note Name: F#3, Velocity: 22
Note ON: Time 314880, Note Name: B3, Velocity: 26
Note OFF: Time 315360, Note Name: B3
Note OFF: Time 315360, Note Name: F#3
Note ON: Time 315360, Note Name: G#3, Velocity: 27
Note ON: Time 315360, Note Name: B3, Velocity: 27
Note ON: Time 315360, Note Name: C#4, Velocity: 36
Note OFF: Time 315840, Note Name: C#4
Note OFF: Time 315840, Note Name: B3
Note OFF: Time 315840, Note Name: G#3
Note ON: Time 315840, Note Name: B3, Velocity: 23
Note ON: Time 315840, Note Name: F4, Velocity: 27
Note OFF: Time 316320, Note Name: F4
Note OFF: Time 316320, Note Name: B3
Note ON: Time 316320, Note Name: B3, Velocity: 23
Note ON: Time 316320, Note Name: F4, Velocity: 27
Note OFF: Time 316800, Note Name: F4
Note OFF: Time 316800, Note Name: B3
Note ON: Time 316800, Note Name: F#3, Velocity: 25
Note ON: Time 316800, Note Name: B3, Velocity: 30
Note OFF: Time 317280, Note Name: B3
Note OFF: Time 317280, Note Name: F#3
Note ON: Time 317280, Note Name: F#3, Velocity: 23
Note ON: Time 317280, Note Name: B3, Velocity: 27
Note OFF: Time 317760, Note Name: B3
Note OFF: Time 317760, Note Name: F#3
Note ON: Time 317760, Note Name: F#3, Velocity: 23
Note ON: Time 317760, Note Name: B3, Velocity: 27
Note OFF: Time 318240, Note Name: B3
Note OFF: Time 318240, Note Name: F#3
Note ON: Time 318240, Note Name: G#3, Velocity: 27
Note ON: Time 318240, Note Name: B3, Velocity: 27
Note ON: Time 318240, Note Name: C#4, Velocity: 31
Note OFF: Time 318720, Note Name: C#4
Note OFF: Time 318720, Note Name: B3
Note OFF: Time 318720, Note Name: G#3
Note ON: Time 318720, Note Name: B3, Velocity: 29
Note ON: Time 318720, Note Name: F4, Velocity: 35
Note OFF: Time 319200, Note Name: F4
Note OFF: Time 319200, Note Name: B3
Note ON: Time 319200, Note Name: B3, Velocity: 31
Note ON: Time 319200, Note Name: F4, Velocity: 37
Note OFF: Time 319680, Note Name: F4
Note OFF: Time 319680, Note Name: B3
Note ON: Time 319680, Note Name: B3, Velocity: 33
Note ON: Time 319680, Note Name: F4, Velocity: 40
Note OFF: Time 320160, Note Name: F4
Note OFF: Time 320160, Note Name: B3
Note ON: Time 320160, Note Name: C4, Velocity: 36
Note ON: Time 320160, Note Name: F4, Velocity: 45
Note OFF: Time 320640, Note Name: F4
Note OFF: Time 320640, Note Name: C4
Note ON: Time 320640, Note Name: C#4, Velocity: 42
Note ON: Time 320640, Note Name: F4, Velocity: 47
Note OFF: Time 321120, Note Name: F4
Note OFF: Time 321120, Note Name: C#4
Note ON: Time 321120, Note Name: D5, Velocity: 49
Note ON: Time 321120, Note Name: D4, Velocity: 43
Note ON: Time 321120, Note Name: F4, Velocity: 43
Note OFF: Time 321600, Note Name: F4
Note OFF: Time 321600, Note Name: D4
Note OFF: Time 321600, Note Name: D5
Note ON: Time 321600, Note Name: D#5, Velocity: 51
Note ON: Time 321600, Note Name: D#4, Velocity: 44
Note ON: Time 321600, Note Name: F4, Velocity: 45
Note OFF: Time 322320, Note Name: F4
Note OFF: Time 322320, Note Name: D#4
Note OFF: Time 322320, Note Name: D#5
Note ON: Time 322320, Note Name: D5, Velocity: 49
Note ON: Time 322320, Note Name: D4, Velocity: 33
Note ON: Time 322320, Note Name: F4, Velocity: 33
Note OFF: Time 322560, Note Name: F4
Note OFF: Time 322560, Note Name: D4
Note OFF: Time 322560, Note Name: D5
Note ON: Time 322560, Note Name: D5, Velocity: 50
Note ON: Time 322560, Note Name: D4, Velocity: 34
Note ON: Time 322560, Note Name: F4, Velocity: 35
Note OFF: Time 323040, Note Name: F4
Note OFF: Time 323040, Note Name: D4
Note OFF: Time 323040, Note Name: D5
Note ON: Time 323040, Note Name: D#5, Velocity: 51
Note ON: Time 323040, Note Name: D#4, Velocity: 44
Note ON: Time 323040, Note Name: F4, Velocity: 44
Note OFF: Time 323760, Note Name: F4
Note OFF: Time 323760, Note Name: D#4
Note OFF: Time 323760, Note Name: D#5
Note ON: Time 323760, Note Name: D5, Velocity: 54
Note ON: Time 323760, Note Name: D4, Velocity: 37
Note OFF: Time 324000, Note Name: D4
Note OFF: Time 324000, Note Name: D5
Note ON: Time 324000, Note Name: D5, Velocity: 58
Note ON: Time 324000, Note Name: D4, Velocity: 49
Note OFF: Time 324480, Note Name: D4
Note OFF: Time 324480, Note Name: D5
Note ON: Time 324480, Note Name: C#5, Velocity: 63
Note ON: Time 324480, Note Name: C#4, Velocity: 52
Note OFF: Time 325200, Note Name: C#4
Note OFF: Time 325200, Note Name: C#5
Note ON: Time 325200, Note Name: C5, Velocity: 55
Note ON: Time 325200, Note Name: C4, Velocity: 46
Note OFF: Time 325440, Note Name: C4
Note OFF: Time 325440, Note Name: C5
Note ON: Time 325440, Note Name: C5, Velocity: 61
Note ON: Time 325440, Note Name: C4, Velocity: 51
Note OFF: Time 325920, Note Name: C4
Note OFF: Time 325920, Note Name: C5
Note ON: Time 325920, Note Name: B4, Velocity: 61
Note ON: Time 325920, Note Name: B3, Velocity: 52
Note OFF: Time 326640, Note Name: B3
Note OFF: Time 326640, Note Name: B4
Note ON: Time 326640, Note Name: A#4, Velocity: 61
Note ON: Time 326640, Note Name: A#3, Velocity: 49
Note OFF: Time 326880, Note Name: A#3
Note OFF: Time 326880, Note Name: A#4
Note ON: Time 326880, Note Name: A#4, Velocity: 66
Note ON: Time 326880, Note Name: A#3, Velocity: 55
Note OFF: Time 327360, Note Name: A#3
Note OFF: Time 327360, Note Name: A#4
Note ON: Time 327360, Note Name: A4, Velocity: 68
Note ON: Time 327360, Note Name: A3, Velocity: 56
Note OFF: Time 328080, Note Name: A3
Note OFF: Time 328080, Note Name: A4
Note ON: Time 328080, Note Name: G#4, Velocity: 67
Note ON: Time 328080, Note Name: G#3, Velocity: 55
Note OFF: Time 328320, Note Name: G#3
Note OFF: Time 328320, Note Name: G#4
Note ON: Time 328320, Note Name: G#4, Velocity: 73
Note ON: Time 328320, Note Name: G#3, Velocity: 59
Note OFF: Time 328800, Note Name: G#3
Note OFF: Time 328800, Note Name: G#4
Note ON: Time 328800, Note Name: F#4, Velocity: 73
Note ON: Time 328800, Note Name: F#3, Velocity: 61
Note OFF: Time 329280, Note Name: F#3
Note OFF: Time 329280, Note Name: F#4
Note ON: Time 329280, Note Name: A#3, Velocity: 73
Note OFF: Time 329760, Note Name: A#3
Note ON: Time 329760, Note Name: D#3, Velocity: 47
Note ON: Time 329760, Note Name: D#4, Velocity: 56
Note OFF: Time 329850, Note Name: D#4
Note OFF: Time 329850, Note Name: D#3
Note ON: Time 330000, Note Name: D#3, Velocity: 49
Note ON: Time 330000, Note Name: D#4, Velocity: 58
Note OFF: Time 330090, Note Name: D#4
Note OFF: Time 330090, Note Name: D#3
Note ON: Time 330240, Note Name: D#3, Velocity: 54
Note ON: Time 330240, Note Name: D#4, Velocity: 64
Note OFF: Time 330330, Note Name: D#4
Note OFF: Time 330330, Note Name: D#3
Note ON: Time 330480, Note Name: D#3, Velocity: 56
Note ON: Time 330480, Note Name: D#4, Velocity: 65
Note OFF: Time 330570, Note Name: D#4
Note OFF: Time 330570, Note Name: D#3
Note ON: Time 330720, Note Name: D#3, Velocity: 61
Note ON: Time 330720, Note Name: D#4, Velocity: 72
Note OFF: Time 331200, Note Name: D#4
Note OFF: Time 331200, Note Name: D#3
Note ON: Time 331200, Note Name: F3, Velocity: 67
Note ON: Time 331200, Note Name: B3, Velocity: 67
Note ON: Time 331200, Note Name: D#4, Velocity: 67
Note ON: Time 331200, Note Name: F4, Velocity: 80
Note OFF: Time 331680, Note Name: F4
Note OFF: Time 331680, Note Name: F3
Note OFF: Time 331680, Note Name: B3
Note OFF: Time 331680, Note Name: D#4
Note ON: Time 331680, Note Name: F4, Velocity: 56
Note ON: Time 331680, Note Name: B4, Velocity: 56
Note ON: Time 331680, Note Name: D#5, Velocity: 56
Note ON: Time 331680, Note Name: F5, Velocity: 68
Note OFF: Time 331920, Note Name: F5
Note OFF: Time 331920, Note Name: F4
Note OFF: Time 331920, Note Name: B4
Note OFF: Time 331920, Note Name: D#5
Note ON: Time 331920, Note Name: D#4, Velocity: 55
Note ON: Time 331920, Note Name: D#5, Velocity: 66
Note OFF: Time 332160, Note Name: D#5
Note OFF: Time 332160, Note Name: D#4
Note ON: Time 332160, Note Name: F4, Velocity: 56
Note ON: Time 332160, Note Name: A#4, Velocity: 56
Note ON: Time 332160, Note Name: D5, Velocity: 56
Note ON: Time 332160, Note Name: F5, Velocity: 68
Note OFF: Time 332400, Note Name: F5
Note OFF: Time 332400, Note Name: F4
Note OFF: Time 332400, Note Name: A#4
Note OFF: Time 332400, Note Name: D5
Note ON: Time 332400, Note Name: F#4, Velocity: 53
Note ON: Time 332400, Note Name: F#5, Velocity: 65
Note OFF: Time 332640, Note Name: F#5
Note OFF: Time 332640, Note Name: F#4
Note ON: Time 332640, Note Name: F#3, Velocity: 49
Note ON: Time 332640, Note Name: F#4, Velocity: 59
Note OFF: Time 332730, Note Name: F#4
Note OFF: Time 332730, Note Name: F#3
Note ON: Time 332880, Note Name: F#3, Velocity: 52
Note ON: Time 332880, Note Name: F#4, Velocity: 61
Note OFF: Time 332970, Note Name: F#4
Note OFF: Time 332970, Note Name: F#3
Note ON: Time 333120, Note Name: F#3, Velocity: 57
Note ON: Time 333120, Note Name: F#4, Velocity: 67
Note OFF: Time 333210, Note Name: F#4
Note OFF: Time 333210, Note Name: F#3
Note ON: Time 333360, Note Name: F#3, Velocity: 57
Note ON: Time 333360, Note Name: F#4, Velocity: 66
Note OFF: Time 333450, Note Name: F#4
Note OFF: Time 333450, Note Name: F#3
Note ON: Time 333600, Note Name: F#3, Velocity: 64
Note ON: Time 333600, Note Name: F#4, Velocity: 75
Note OFF: Time 334080, Note Name: F#4
Note OFF: Time 334080, Note Name: F#3
Note ON: Time 334080, Note Name: G#3, Velocity: 67
Note ON: Time 334080, Note Name: D4, Velocity: 69
Note ON: Time 334080, Note Name: F#4, Velocity: 69
Note ON: Time 334080, Note Name: G#4, Velocity: 82
Note OFF: Time 334560, Note Name: G#4
Note OFF: Time 334560, Note Name: G#3
Note OFF: Time 334560, Note Name: D4
Note OFF: Time 334560, Note Name: F#4
Note ON: Time 334560, Note Name: G#4, Velocity: 59
Note ON: Time 334560, Note Name: D5, Velocity: 59
Note ON: Time 334560, Note Name: F#5, Velocity: 59
Note ON: Time 334560, Note Name: G#5, Velocity: 72
Note OFF: Time 334800, Note Name: G#5
Note OFF: Time 334800, Note Name: G#4
Note OFF: Time 334800, Note Name: D5
Note OFF: Time 334800, Note Name: F#5
Note ON: Time 334800, Note Name: F#4, Velocity: 58
Note ON: Time 334800, Note Name: F#5, Velocity: 70
Note OFF: Time 335040, Note Name: F#5
Note OFF: Time 335040, Note Name: F#4
Note ON: Time 335040, Note Name: G#4, Velocity: 59
Note ON: Time 335040, Note Name: C#5, Velocity: 59
Note ON: Time 335040, Note Name: F5, Velocity: 59
Note ON: Time 335040, Note Name: G#5, Velocity: 72
Note OFF: Time 335280, Note Name: G#5
Note OFF: Time 335280, Note Name: G#4
Note OFF: Time 335280, Note Name: C#5
Note OFF: Time 335280, Note Name: F5
Note ON: Time 335280, Note Name: A4, Velocity: 54
Note ON: Time 335280, Note Name: A5, Velocity: 65
Note OFF: Time 335520, Note Name: A5
Note OFF: Time 335520, Note Name: A4
Note ON: Time 335520, Note Name: A3, Velocity: 47
Note ON: Time 335520, Note Name: A4, Velocity: 56
Note OFF: Time 335610, Note Name: A4
Note OFF: Time 335610, Note Name: A3
Note ON: Time 335760, Note Name: A3, Velocity: 51
Note ON: Time 335760, Note Name: A4, Velocity: 60
Note OFF: Time 335850, Note Name: A4
Note OFF: Time 335850, Note Name: A3
Note ON: Time 336000, Note Name: A3, Velocity: 54
Note ON: Time 336000, Note Name: A4, Velocity: 64
Note OFF: Time 336090, Note Name: A4
Note OFF: Time 336090, Note Name: A3
Note ON: Time 336240, Note Name: A3, Velocity: 59
Note ON: Time 336240, Note Name: A4, Velocity: 69
Note OFF: Time 336330, Note Name: A4
Note OFF: Time 336330, Note Name: A3
Note ON: Time 336480, Note Name: A3, Velocity: 68
Note ON: Time 336480, Note Name: A4, Velocity: 79
Note OFF: Time 336960, Note Name: A4
Note OFF: Time 336960, Note Name: A3
Note ON: Time 336960, Note Name: A#3, Velocity: 52
Note ON: Time 336960, Note Name: F4, Velocity: 52
Note ON: Time 336960, Note Name: G#4, Velocity: 52
Note ON: Time 336960, Note Name: G#3, Velocity: 52
Note ON: Time 336960, Note Name: A#4, Velocity: 63
Note OFF: Time 337050, Note Name: A#4
Note OFF: Time 337050, Note Name: G#4
Note OFF: Time 337050, Note Name: A#3
Note OFF: Time 337050, Note Name: F4
Note OFF: Time 337050, Note Name: G#3
Note ON: Time 337200, Note Name: A#3, Velocity: 55
Note ON: Time 337200, Note Name: F4, Velocity: 55
Note ON: Time 337200, Note Name: G#4, Velocity: 55
Note ON: Time 337200, Note Name: G#3, Velocity: 55
Note ON: Time 337200, Note Name: A#4, Velocity: 66
Note OFF: Time 337290, Note Name: A#4
Note OFF: Time 337290, Note Name: G#4
Note OFF: Time 337290, Note Name: A#3
Note OFF: Time 337290, Note Name: F4
Note OFF: Time 337290, Note Name: G#3
Note ON: Time 337440, Note Name: A#3, Velocity: 57
Note ON: Time 337440, Note Name: F4, Velocity: 57
Note ON: Time 337440, Note Name: G#4, Velocity: 57
Note ON: Time 337440, Note Name: G#3, Velocity: 57
Note ON: Time 337440, Note Name: A#4, Velocity: 67
Note OFF: Time 337530, Note Name: A#4
Note OFF: Time 337530, Note Name: G#4
Note OFF: Time 337530, Note Name: A#3
Note OFF: Time 337530, Note Name: F4
Note OFF: Time 337530, Note Name: G#3
Note ON: Time 337680, Note Name: A#3, Velocity: 57
Note ON: Time 337680, Note Name: F4, Velocity: 57
Note ON: Time 337680, Note Name: G#4, Velocity: 68
Note ON: Time 337680, Note Name: G#3, Velocity: 57
Note ON: Time 337680, Note Name: A#4, Velocity: 68
Note OFF: Time 337770, Note Name: A#4
Note OFF: Time 337770, Note Name: G#4
Note OFF: Time 337770, Note Name: A#3
Note OFF: Time 337770, Note Name: F4
Note OFF: Time 337770, Note Name: G#3
Note ON: Time 337920, Note Name: A#3, Velocity: 68
Note ON: Time 337920, Note Name: D4, Velocity: 68
Note ON: Time 337920, Note Name: G#4, Velocity: 68
Note ON: Time 337920, Note Name: G#3, Velocity: 68
Note ON: Time 337920, Note Name: A#4, Velocity: 81
Note OFF: Time 338400, Note Name: A#4
Note OFF: Time 338400, Note Name: G#4
Note OFF: Time 338400, Note Name: A#3
Note OFF: Time 338400, Note Name: D4
Note OFF: Time 338400, Note Name: G#3
Note ON: Time 338400, Note Name: A#3, Velocity: 52
Note ON: Time 338400, Note Name: D#4, Velocity: 52
Note ON: Time 338400, Note Name: F#4, Velocity: 52
Note ON: Time 338400, Note Name: A#4, Velocity: 63
Note OFF: Time 338490, Note Name: A#4
Note OFF: Time 338490, Note Name: A#3
Note OFF: Time 338490, Note Name: D#4
Note OFF: Time 338490, Note Name: F#4
Note ON: Time 338640, Note Name: A#3, Velocity: 55
Note ON: Time 338640, Note Name: D#4, Velocity: 55
Note ON: Time 338640, Note Name: F#4, Velocity: 55
Note ON: Time 338640, Note Name: A#4, Velocity: 66
Note OFF: Time 338730, Note Name: A#4
Note OFF: Time 338730, Note Name: A#3
Note OFF: Time 338730, Note Name: D#4
Note OFF: Time 338730, Note Name: F#4
Note ON: Time 338880, Note Name: D#4, Velocity: 57
Note ON: Time 338880, Note Name: F#4, Velocity: 57
Note ON: Time 338880, Note Name: A#4, Velocity: 67
Note OFF: Time 338970, Note Name: A#4
Note OFF: Time 338970, Note Name: F#4
Note OFF: Time 338970, Note Name: D#4
Note ON: Time 339120, Note Name: D#4, Velocity: 56
Note ON: Time 339120, Note Name: F#4, Velocity: 56
Note ON: Time 339120, Note Name: A#4, Velocity: 67
Note OFF: Time 339210, Note Name: A#4
Note OFF: Time 339210, Note Name: F#4
Note OFF: Time 339210, Note Name: D#4
Note ON: Time 339360, Note Name: D#4, Velocity: 70
Note ON: Time 339360, Note Name: F#4, Velocity: 72
Note ON: Time 339360, Note Name: A#4, Velocity: 85
Note OFF: Time 339840, Note Name: A#4
Note OFF: Time 339840, Note Name: F#4
Note OFF: Time 339840, Note Name: D#4
Note ON: Time 339840, Note Name: A#3, Velocity: 66
Note ON: Time 339840, Note Name: D#4, Velocity: 66
Note ON: Time 339840, Note Name: A#4, Velocity: 78
Note OFF: Time 340320, Note Name: A#4
Note OFF: Time 340320, Note Name: D#4
Note OFF: Time 340320, Note Name: A#3
Note ON: Time 340320, Note Name: G#3, Velocity: 66
Note ON: Time 340320, Note Name: D#4, Velocity: 66
Note ON: Time 340320, Note Name: G#4, Velocity: 78
Note OFF: Time 340800, Note Name: G#4
Note OFF: Time 340800, Note Name: D#4
Note OFF: Time 340800, Note Name: G#3
Note ON: Time 340800, Note Name: F#3, Velocity: 63
Note ON: Time 340800, Note Name: A3, Velocity: 63
Note ON: Time 340800, Note Name: D#4, Velocity: 63
Note ON: Time 340800, Note Name: F#4, Velocity: 74
Note OFF: Time 341280, Note Name: F#4
Note OFF: Time 341280, Note Name: F#3
Note OFF: Time 341280, Note Name: A3
Note OFF: Time 341280, Note Name: D#4
Note ON: Time 341280, Note Name: A#3, Velocity: 52
Note ON: Time 341280, Note Name: C#4, Velocity: 52
Note ON: Time 341280, Note Name: F4, Velocity: 61
Note OFF: Time 341520, Note Name: F4
Note OFF: Time 341520, Note Name: C#4
Note OFF: Time 341520, Note Name: A#3
Note ON: Time 341520, Note Name: C#4, Velocity: 59
Note OFF: Time 341760, Note Name: C#4
Note ON: Time 341760, Note Name: F#4, Velocity: 66
Note ON: Time 341760, Note Name: C#5, Velocity: 78
Note OFF: Time 342000, Note Name: C#5
Note OFF: Time 342000, Note Name: F#4
Note ON: Time 342000, Note Name: F#4, Velocity: 75
Note OFF: Time 342240, Note Name: F#4
Note ON: Time 342240, Note Name: A#4, Velocity: 69
Note ON: Time 342240, Note Name: F#5, Velocity: 82
Note OFF: Time 342480, Note Name: F#5
Note OFF: Time 342480, Note Name: A#4
Note ON: Time 342480, Note Name: A#4, Velocity: 75
Note OFF: Time 342720, Note Name: A#4
Note ON: Time 342720, Note Name: C#5, Velocity: 65
Note ON: Time 342720, Note Name: A#5, Velocity: 76
Note OFF: Time 342960, Note Name: A#5
Note OFF: Time 342960, Note Name: C#5
Note ON: Time 342960, Note Name: C#5, Velocity: 71
Note OFF: Time 343200, Note Name: C#5
Note ON: Time 343200, Note Name: F#5, Velocity: 66
Note ON: Time 343200, Note Name: C#6, Velocity: 78
Note OFF: Time 343440, Note Name: C#6
Note OFF: Time 343440, Note Name: F#5
Note ON: Time 343440, Note Name: F#5, Velocity: 75
Note OFF: Time 343680, Note Name: F#5
Note ON: Time 343680, Note Name: A#5, Velocity: 69
Note ON: Time 343680, Note Name: F#6, Velocity: 82
Note OFF: Time 343920, Note Name: F#6
Note OFF: Time 343920, Note Name: A#5
Note ON: Time 343920, Note Name: A#5, Velocity: 75
Note OFF: Time 344160, Note Name: A#5
Note ON: Time 344160, Note Name: C#6, Velocity: 69
Note ON: Time 344160, Note Name: A#5, Velocity: 69
Note ON: Time 344160, Note Name: A#6, Velocity: 82
Note OFF: Time 344640, Note Name: A#6
Note OFF: Time 344640, Note Name: A#5
Note OFF: Time 344640, Note Name: C#6
Note ON: Time 344640, Note Name: C#6, Velocity: 66
Note ON: Time 344640, Note Name: G#5, Velocity: 64
Note ON: Time 344640, Note Name: G#6, Velocity: 76
Note OFF: Time 345120, Note Name: G#6
Note OFF: Time 345120, Note Name: G#5
Note OFF: Time 345120, Note Name: C#6
Note ON: Time 345120, Note Name: C#6, Velocity: 73
Note ON: Time 345120, Note Name: G#5, Velocity: 61
Note ON: Time 345120, Note Name: C#5, Velocity: 61
Note OFF: Time 345600, Note Name: C#5
Note OFF: Time 345600, Note Name: G#5
Note OFF: Time 345600, Note Name: C#6
Note ON: Time 345600, Note Name: C#5, Velocity: 57
Note ON: Time 345600, Note Name: G#5, Velocity: 61
Note ON: Time 345600, Note Name: C#6, Velocity: 75
Note OFF: Time 346080, Note Name: G#5
Note OFF: Time 346080, Note Name: C#5
Note ON: Time 346080, Note Name: F#6, Velocity: 68
Note ON: Time 346080, Note Name: F#5, Velocity: 58
Note OFF: Time 346560, Note Name: F#5
Note OFF: Time 346560, Note Name: F#6
Note OFF: Time 346560, Note Name: C#6
Note ON: Time 346560, Note Name: C#5, Velocity: 56
Note ON: Time 346560, Note Name: G#4, Velocity: 49
Note ON: Time 346560, Note Name: C#4, Velocity: 40
Note OFF: Time 347040, Note Name: C#4
Note OFF: Time 347040, Note Name: G#4
Note OFF: Time 347040, Note Name: C#5
Note ON: Time 347040, Note Name: C#4, Velocity: 40
Note ON: Time 347040, Note Name: G#4, Velocity: 48
Note ON: Time 347040, Note Name: C#5, Velocity: 56
Note OFF: Time 347520, Note Name: G#4
Note OFF: Time 347520, Note Name: C#4
Note ON: Time 347520, Note Name: F#5, Velocity: 56
Note ON: Time 347520, Note Name: F#4, Velocity: 49
Note OFF: Time 348000, Note Name: F#4
Note OFF: Time 348000, Note Name: F#5
Note OFF: Time 348000, Note Name: C#5
Note ON: Time 348000, Note Name: C#5, Velocity: 55
Note ON: Time 348000, Note Name: G#4, Velocity: 46
Note ON: Time 348000, Note Name: C#4, Velocity: 38
Note OFF: Time 348480, Note Name: C#4
Note OFF: Time 348480, Note Name: G#4
Note OFF: Time 348480, Note Name: C#5
Note ON: Time 348480, Note Name: C#4, Velocity: 40
Note ON: Time 348480, Note Name: G#4, Velocity: 48
Note ON: Time 348480, Note Name: C#5, Velocity: 55
Note OFF: Time 348960, Note Name: G#4
Note OFF: Time 348960, Note Name: C#4
Note ON: Time 348960, Note Name: F#5, Velocity: 56
Note ON: Time 348960, Note Name: F#4, Velocity: 48
Note OFF: Time 349440, Note Name: F#4
Note OFF: Time 349440, Note Name: F#5
Note OFF: Time 349440, Note Name: C#5
Note ON: Time 349440, Note Name: C#4, Velocity: 52
Note ON: Time 349440, Note Name: C#5, Velocity: 52
Note OFF: Time 349920, Note Name: C#5
Note OFF: Time 349920, Note Name: C#4
Note ON: Time 349920, Note Name: C#4, Velocity: 51
Note ON: Time 349920, Note Name: C#5, Velocity: 56
Note OFF: Time 351360, Note Name: C#5
Note OFF: Time 351360, Note Name: C#4
Note ON: Time 351360, Note Name: A#3, Velocity: 46
Note ON: Time 351360, Note Name: A#4, Velocity: 53
Note OFF: Time 357120, Note Name: A#4
Note OFF: Time 357120, Note Name: A#3
Note ON: Time 358560, Note Name: D#3, Velocity: 52
Note ON: Time 358560, Note Name: D#4, Velocity: 63
Note OFF: Time 358650, Note Name: D#4
Note OFF: Time 358650, Note Name: D#3
Note ON: Time 358800, Note Name: D#3, Velocity: 55
Note ON: Time 358800, Note Name: D#4, Velocity: 66
Note OFF: Time 358890, Note Name: D#4
Note OFF: Time 358890, Note Name: D#3
Note ON: Time 359040, Note Name: D#3, Velocity: 57
Note ON: Time 359040, Note Name: D#4, Velocity: 67
Note OFF: Time 359130, Note Name: D#4
Note OFF: Time 359130, Note Name: D#3
Note ON: Time 359280, Note Name: D#3, Velocity: 59
Note ON: Time 359280, Note Name: D#4, Velocity: 68
Note OFF: Time 359370, Note Name: D#4
Note OFF: Time 359370, Note Name: D#3
Note ON: Time 359520, Note Name: D#3, Velocity: 69
Note ON: Time 359520, Note Name: D#4, Velocity: 80
Note OFF: Time 360000, Note Name: D#4
Note OFF: Time 360000, Note Name: D#3
Note ON: Time 360000, Note Name: F3, Velocity: 75
Note ON: Time 360000, Note Name: B3, Velocity: 75
Note ON: Time 360000, Note Name: D#4, Velocity: 75
Note ON: Time 360000, Note Name: F4, Velocity: 90
Note OFF: Time 360480, Note Name: F4
Note OFF: Time 360480, Note Name: F3
Note OFF: Time 360480, Note Name: B3
Note OFF: Time 360480, Note Name: D#4
Note ON: Time 360480, Note Name: F4, Velocity: 63
Note ON: Time 360480, Note Name: B4, Velocity: 63
Note ON: Time 360480, Note Name: D#5, Velocity: 63
Note ON: Time 360480, Note Name: F5, Velocity: 76
Note OFF: Time 360720, Note Name: F5
Note OFF: Time 360720, Note Name: F4
Note OFF: Time 360720, Note Name: B4
Note OFF: Time 360720, Note Name: D#5
Note ON: Time 360720, Note Name: D#4, Velocity: 61
Note ON: Time 360720, Note Name: D#5, Velocity: 74
Note OFF: Time 360960, Note Name: D#5
Note OFF: Time 360960, Note Name: D#4
Note ON: Time 360960, Note Name: F4, Velocity: 63
Note ON: Time 360960, Note Name: A#4, Velocity: 63
Note ON: Time 360960, Note Name: D5, Velocity: 63
Note ON: Time 360960, Note Name: F5, Velocity: 76
Note OFF: Time 361200, Note Name: F5
Note OFF: Time 361200, Note Name: F4
Note OFF: Time 361200, Note Name: A#4
Note OFF: Time 361200, Note Name: D5
Note ON: Time 361200, Note Name: F#4, Velocity: 59
Note ON: Time 361200, Note Name: F#5, Velocity: 72
Note OFF: Time 361440, Note Name: F#5
Note OFF: Time 361440, Note Name: F#4
Note ON: Time 361440, Note Name: F#3, Velocity: 52
Note ON: Time 361440, Note Name: F#4, Velocity: 63
Note OFF: Time 361530, Note Name: F#4
Note OFF: Time 361530, Note Name: F#3
Note ON: Time 361680, Note Name: F#3, Velocity: 55
Note ON: Time 361680, Note Name: F#4, Velocity: 66
Note OFF: Time 361770, Note Name: F#4
Note OFF: Time 361770, Note Name: F#3
Note ON: Time 361920, Note Name: F#3, Velocity: 57
Note ON: Time 361920, Note Name: F#4, Velocity: 67
Note OFF: Time 362010, Note Name: F#4
Note OFF: Time 362010, Note Name: F#3
Note ON: Time 362160, Note Name: F#3, Velocity: 57
Note ON: Time 362160, Note Name: F#4, Velocity: 66
Note OFF: Time 362250, Note Name: F#4
Note OFF: Time 362250, Note Name: F#3
Note ON: Time 362400, Note Name: F#3, Velocity: 68
Note ON: Time 362400, Note Name: F#4, Velocity: 79
Note OFF: Time 362880, Note Name: F#4
Note OFF: Time 362880, Note Name: F#3
Note ON: Time 362880, Note Name: G#3, Velocity: 72
Note ON: Time 362880, Note Name: D4, Velocity: 73
Note ON: Time 362880, Note Name: F#4, Velocity: 75
Note ON: Time 362880, Note Name: G#4, Velocity: 87
Note OFF: Time 363360, Note Name: G#4
Note OFF: Time 363360, Note Name: G#3
Note OFF: Time 363360, Note Name: D4
Note OFF: Time 363360, Note Name: F#4
Note ON: Time 363360, Note Name: G#4, Velocity: 63
Note ON: Time 363360, Note Name: D5, Velocity: 63
Note ON: Time 363360, Note Name: F#5, Velocity: 63
Note ON: Time 363360, Note Name: G#5, Velocity: 76
Note OFF: Time 363600, Note Name: G#5
Note OFF: Time 363600, Note Name: G#4
Note OFF: Time 363600, Note Name: D5
Note OFF: Time 363600, Note Name: F#5
Note ON: Time 363600, Note Name: F#4, Velocity: 61
Note ON: Time 363600, Note Name: F#5, Velocity: 74
Note OFF: Time 363840, Note Name: F#5
Note OFF: Time 363840, Note Name: F#4
Note ON: Time 363840, Note Name: G#4, Velocity: 63
Note ON: Time 363840, Note Name: C#5, Velocity: 63
Note ON: Time 363840, Note Name: F5, Velocity: 63
Note ON: Time 363840, Note Name: G#5, Velocity: 76
Note OFF: Time 364080, Note Name: G#5
Note OFF: Time 364080, Note Name: G#4
Note OFF: Time 364080, Note Name: C#5
Note OFF: Time 364080, Note Name: F5
Note ON: Time 364080, Note Name: A4, Velocity: 58
Note ON: Time 364080, Note Name: A5, Velocity: 71
Note OFF: Time 364320, Note Name: A5
Note OFF: Time 364320, Note Name: A4
Note ON: Time 364320, Note Name: A3, Velocity: 47
Note ON: Time 364320, Note Name: A4, Velocity: 56
Note OFF: Time 364410, Note Name: A4
Note OFF: Time 364410, Note Name: A3
Note ON: Time 364560, Note Name: A3, Velocity: 51
Note ON: Time 364560, Note Name: A4, Velocity: 60
Note OFF: Time 364650, Note Name: A4
Note OFF: Time 364650, Note Name: A3
Note ON: Time 364800, Note Name: A3, Velocity: 54
Note ON: Time 364800, Note Name: A4, Velocity: 64
Note OFF: Time 364890, Note Name: A4
Note OFF: Time 364890, Note Name: A3
Note ON: Time 365040, Note Name: A3, Velocity: 57
Note ON: Time 365040, Note Name: A4, Velocity: 68
Note OFF: Time 365130, Note Name: A4
Note OFF: Time 365130, Note Name: A3
Note ON: Time 365280, Note Name: A3, Velocity: 68
Note ON: Time 365280, Note Name: A4, Velocity: 80
Note OFF: Time 365760, Note Name: A4
Note OFF: Time 365760, Note Name: A3
Note ON: Time 365760, Note Name: B3, Velocity: 53
Note ON: Time 365760, Note Name: F4, Velocity: 53
Note ON: Time 365760, Note Name: A4, Velocity: 53
Note ON: Time 365760, Note Name: B4, Velocity: 64
Note OFF: Time 365850, Note Name: B4
Note OFF: Time 365850, Note Name: B3
Note OFF: Time 365850, Note Name: F4
Note OFF: Time 365850, Note Name: A4
Note ON: Time 366000, Note Name: B3, Velocity: 56
Note ON: Time 366000, Note Name: F4, Velocity: 56
Note ON: Time 366000, Note Name: A4, Velocity: 56
Note ON: Time 366000, Note Name: B4, Velocity: 67
Note OFF: Time 366090, Note Name: B4
Note OFF: Time 366090, Note Name: B3
Note OFF: Time 366090, Note Name: F4
Note OFF: Time 366090, Note Name: A4
Note ON: Time 366240, Note Name: B3, Velocity: 60
Note ON: Time 366240, Note Name: F4, Velocity: 60
Note ON: Time 366240, Note Name: A4, Velocity: 60
Note ON: Time 366240, Note Name: B4, Velocity: 71
Note OFF: Time 366330, Note Name: B4
Note OFF: Time 366330, Note Name: B3
Note OFF: Time 366330, Note Name: F4
Note OFF: Time 366330, Note Name: A4
Note ON: Time 366480, Note Name: B3, Velocity: 60
Note ON: Time 366480, Note Name: F4, Velocity: 60
Note ON: Time 366480, Note Name: A4, Velocity: 72
Note ON: Time 366480, Note Name: B4, Velocity: 72
Note OFF: Time 366570, Note Name: B4
Note OFF: Time 366570, Note Name: B3
Note OFF: Time 366570, Note Name: F4
Note OFF: Time 366570, Note Name: A4
Note ON: Time 366720, Note Name: B3, Velocity: 68
Note ON: Time 366720, Note Name: F4, Velocity: 68
Note ON: Time 366720, Note Name: A4, Velocity: 68
Note ON: Time 366720, Note Name: B4, Velocity: 81
Note OFF: Time 367200, Note Name: B4
Note OFF: Time 367200, Note Name: B3
Note OFF: Time 367200, Note Name: F4
Note OFF: Time 367200, Note Name: A4
Note ON: Time 367200, Note Name: C4, Velocity: 54
Note ON: Time 367200, Note Name: D#4, Velocity: 54
Note ON: Time 367200, Note Name: A4, Velocity: 54
Note ON: Time 367200, Note Name: C5, Velocity: 66
Note OFF: Time 367290, Note Name: C5
Note OFF: Time 367290, Note Name: C4
Note OFF: Time 367290, Note Name: D#4
Note OFF: Time 367290, Note Name: A4
Note ON: Time 367440, Note Name: C4, Velocity: 57
Note ON: Time 367440, Note Name: D#4, Velocity: 57
Note ON: Time 367440, Note Name: A4, Velocity: 57
Note ON: Time 367440, Note Name: C5, Velocity: 69
Note OFF: Time 367530, Note Name: C5
Note OFF: Time 367530, Note Name: C4
Note OFF: Time 367530, Note Name: D#4
Note OFF: Time 367530, Note Name: A4
Note ON: Time 367680, Note Name: C4, Velocity: 63
Note ON: Time 367680, Note Name: D#4, Velocity: 63
Note ON: Time 367680, Note Name: C5, Velocity: 74
Note OFF: Time 367770, Note Name: C5
Note OFF: Time 367770, Note Name: D#4
Note OFF: Time 367770, Note Name: C4
Note ON: Time 367920, Note Name: C4, Velocity: 55
Note ON: Time 367920, Note Name: D#4, Velocity: 55
Note ON: Time 367920, Note Name: C5, Velocity: 76
Note OFF: Time 368010, Note Name: C5
Note OFF: Time 368010, Note Name: D#4
Note OFF: Time 368010, Note Name: C4
Note ON: Time 368160, Note Name: F#4, Velocity: 73
Note ON: Time 368160, Note Name: C4, Velocity: 73
Note ON: Time 368160, Note Name: D#4, Velocity: 73
Note ON: Time 368160, Note Name: C5, Velocity: 86
Note OFF: Time 368640, Note Name: C5
Note OFF: Time 368640, Note Name: F#4
Note OFF: Time 368640, Note Name: C4
Note OFF: Time 368640, Note Name: D#4
Note ON: Time 368640, Note Name: E4, Velocity: 69
Note ON: Time 368640, Note Name: F#4, Velocity: 69
Note ON: Time 368640, Note Name: A4, Velocity: 69
Note ON: Time 368640, Note Name: E5, Velocity: 81
Note OFF: Time 369120, Note Name: E5
Note OFF: Time 369120, Note Name: E4
Note OFF: Time 369120, Note Name: F#4
Note OFF: Time 369120, Note Name: A4
Note ON: Time 369120, Note Name: D4, Velocity: 69
Note ON: Time 369120, Note Name: G4, Velocity: 69
Note ON: Time 369120, Note Name: D5, Velocity: 81
Note OFF: Time 369600, Note Name: D5
Note OFF: Time 369600, Note Name: G4
Note OFF: Time 369600, Note Name: D4
Note ON: Time 369600, Note Name: D3, Velocity: 72
Note ON: Time 369600, Note Name: D4, Velocity: 85
Note OFF: Time 370080, Note Name: D4
Note OFF: Time 370080, Note Name: D3
Note ON: Time 370080, Note Name: C#4, Velocity: 61
Note OFF: Time 370320, Note Name: C#4
Note ON: Time 370320, Note Name: C#4, Velocity: 59
Note OFF: Time 370560, Note Name: C#4
Note ON: Time 370560, Note Name: F#4, Velocity: 66
Note ON: Time 370560, Note Name: C#5, Velocity: 78
Note OFF: Time 370800, Note Name: C#5
Note OFF: Time 370800, Note Name: F#4
Note ON: Time 370800, Note Name: F#4, Velocity: 75
Note OFF: Time 371040, Note Name: F#4
Note ON: Time 371040, Note Name: A4, Velocity: 69
Note ON: Time 371040, Note Name: F#5, Velocity: 82
Note OFF: Time 371280, Note Name: F#5
Note OFF: Time 371280, Note Name: A4
Note ON: Time 371280, Note Name: A4, Velocity: 73
Note OFF: Time 371520, Note Name: A4
Note ON: Time 371520, Note Name: C#5, Velocity: 65
Note ON: Time 371520, Note Name: A5, Velocity: 76
Note OFF: Time 371760, Note Name: A5
Note OFF: Time 371760, Note Name: C#5
Note ON: Time 371760, Note Name: C#5, Velocity: 71
Note OFF: Time 372000, Note Name: C#5
Note ON: Time 372000, Note Name: F#5, Velocity: 66
Note ON: Time 372000, Note Name: C#6, Velocity: 78
Note OFF: Time 372240, Note Name: C#6
Note OFF: Time 372240, Note Name: F#5
Note ON: Time 372240, Note Name: F#5, Velocity: 75
Note OFF: Time 372480, Note Name: F#5
Note ON: Time 372480, Note Name: A5, Velocity: 69
Note ON: Time 372480, Note Name: F#6, Velocity: 82
Note OFF: Time 372720, Note Name: F#6
Note OFF: Time 372720, Note Name: A5
Note ON: Time 372720, Note Name: A5, Velocity: 75
Note OFF: Time 372960, Note Name: A5
Note ON: Time 372960, Note Name: C#6, Velocity: 69
Note ON: Time 372960, Note Name: A5, Velocity: 69
Note ON: Time 372960, Note Name: A6, Velocity: 82
Note OFF: Time 373440, Note Name: A6
Note OFF: Time 373440, Note Name: A5
Note OFF: Time 373440, Note Name: C#6
Note ON: Time 373440, Note Name: C#6, Velocity: 66
Note ON: Time 373440, Note Name: G#5, Velocity: 66
Note ON: Time 373440, Note Name: G#6, Velocity: 78
Note OFF: Time 373920, Note Name: G#6
Note OFF: Time 373920, Note Name: G#5
Note OFF: Time 373920, Note Name: C#6
Note ON: Time 373920, Note Name: C#6, Velocity: 73
Note ON: Time 373920, Note Name: G#5, Velocity: 61
Note ON: Time 373920, Note Name: C#5, Velocity: 61
Note OFF: Time 374400, Note Name: C#5
Note OFF: Time 374400, Note Name: G#5
Note OFF: Time 374400, Note Name: C#6
Note ON: Time 374400, Note Name: C#5, Velocity: 61
Note ON: Time 374400, Note Name: G#5, Velocity: 61
Note ON: Time 374400, Note Name: C#6, Velocity: 75
Note OFF: Time 374880, Note Name: G#5
Note OFF: Time 374880, Note Name: C#5
Note ON: Time 374880, Note Name: F#6, Velocity: 68
Note ON: Time 374880, Note Name: F#5, Velocity: 58
Note OFF: Time 375360, Note Name: F#5
Note OFF: Time 375360, Note Name: F#6
Note OFF: Time 375360, Note Name: C#6
Note ON: Time 375360, Note Name: C#5, Velocity: 58
Note ON: Time 375360, Note Name: G#4, Velocity: 48
Note ON: Time 375360, Note Name: C#4, Velocity: 40
Note OFF: Time 375840, Note Name: C#4
Note OFF: Time 375840, Note Name: G#4
Note OFF: Time 375840, Note Name: C#5
Note ON: Time 375840, Note Name: C#4, Velocity: 42
Note ON: Time 375840, Note Name: G#4, Velocity: 50
Note ON: Time 375840, Note Name: C#5, Velocity: 58
Note OFF: Time 376320, Note Name: G#4
Note OFF: Time 376320, Note Name: C#4
Note ON: Time 376320, Note Name: F#5, Velocity: 56
Note ON: Time 376320, Note Name: F#4, Velocity: 49
Note OFF: Time 376800, Note Name: F#4
Note OFF: Time 376800, Note Name: F#5
Note OFF: Time 376800, Note Name: C#5
Note ON: Time 376800, Note Name: C#5, Velocity: 56
Note ON: Time 376800, Note Name: G#4, Velocity: 46
Note ON: Time 376800, Note Name: C#4, Velocity: 38
Note OFF: Time 377280, Note Name: C#4
Note OFF: Time 377280, Note Name: G#4
Note OFF: Time 377280, Note Name: C#5
Note ON: Time 377280, Note Name: C#4, Velocity: 40
Note ON: Time 377280, Note Name: G#4, Velocity: 48
Note ON: Time 377280, Note Name: C#5, Velocity: 56
Note OFF: Time 377760, Note Name: G#4
Note OFF: Time 377760, Note Name: C#4
Note ON: Time 377760, Note Name: F#5, Velocity: 55
Note ON: Time 377760, Note Name: F#4, Velocity: 46
Note OFF: Time 378240, Note Name: F#4
Note OFF: Time 378240, Note Name: F#5
Note OFF: Time 378240, Note Name: C#5
Note ON: Time 378240, Note Name: C#4, Velocity: 69
Note ON: Time 378240, Note Name: C#5, Velocity: 81
Note OFF: Time 379200, Note Name: C#5
Note OFF: Time 379200, Note Name: C#4
Note ON: Time 379200, Note Name: D4, Velocity: 64
Note ON: Time 379200, Note Name: D5, Velocity: 75
Note OFF: Time 379440, Note Name: D5
Note OFF: Time 379440, Note Name: D4
Note ON: Time 379440, Note Name: C#4, Velocity: 59
Note ON: Time 379440, Note Name: C#5, Velocity: 71
Note OFF: Time 379680, Note Name: C#5
Note OFF: Time 379680, Note Name: C#4
Note ON: Time 379680, Note Name: G#3, Velocity: 63
Note ON: Time 379680, Note Name: G#4, Velocity: 73
Note OFF: Time 379920, Note Name: G#4
Note OFF: Time 379920, Note Name: G#3
Note ON: Time 379920, Note Name: A3, Velocity: 54
Note ON: Time 379920, Note Name: A4, Velocity: 65
Note OFF: Time 380160, Note Name: A4
Note OFF: Time 380160, Note Name: A3
Note ON: Time 380160, Note Name: F#3, Velocity: 58
Note ON: Time 380160, Note Name: F#4, Velocity: 70
Note OFF: Time 381600, Note Name: F#4
Note OFF: Time 381600, Note Name: F#3
Note ON: Time 381600, Note Name: D4, Velocity: 84
Note ON: Time 381600, Note Name: D5, Velocity: 84
Note OFF: Time 382080, Note Name: D5
Note OFF: Time 382080, Note Name: D4
Note ON: Time 382080, Note Name: A3, Velocity: 48
Note ON: Time 382080, Note Name: D4, Velocity: 48
Note OFF: Time 382320, Note Name: D4
Note OFF: Time 382320, Note Name: A3
Note ON: Time 382320, Note Name: A3, Velocity: 49
Note ON: Time 382320, Note Name: D4, Velocity: 49
Note OFF: Time 382560, Note Name: D4
Note OFF: Time 382560, Note Name: A3
Note ON: Time 382560, Note Name: G#3, Velocity: 50
Note ON: Time 382560, Note Name: C#4, Velocity: 50
Note OFF: Time 382800, Note Name: C#4
Note OFF: Time 382800, Note Name: G#3
Note ON: Time 382800, Note Name: A3, Velocity: 51
Note ON: Time 382800, Note Name: D4, Velocity: 51
Note OFF: Time 383040, Note Name: D4
Note OFF: Time 383040, Note Name: A3
Note ON: Time 383040, Note Name: A#3, Velocity: 52
Note ON: Time 383040, Note Name: D#4, Velocity: 52
Note OFF: Time 383280, Note Name: D#4
Note OFF: Time 383280, Note Name: A#3
Note ON: Time 383280, Note Name: B3, Velocity: 53
Note ON: Time 383280, Note Name: E4, Velocity: 53
Note OFF: Time 383520, Note Name: E4
Note OFF: Time 383520, Note Name: B3
Note ON: Time 383520, Note Name: C4, Velocity: 54
Note ON: Time 383520, Note Name: F4, Velocity: 54
Note OFF: Time 383760, Note Name: F4
Note OFF: Time 383760, Note Name: C4
Note ON: Time 383760, Note Name: C#4, Velocity: 55
Note ON: Time 383760, Note Name: F#4, Velocity: 55
Note OFF: Time 384000, Note Name: F#4
Note OFF: Time 384000, Note Name: C#4
Note ON: Time 384000, Note Name: D4, Velocity: 57
Note ON: Time 384000, Note Name: G4, Velocity: 57
Note OFF: Time 384240, Note Name: G4
Note OFF: Time 384240, Note Name: D4
Note ON: Time 384240, Note Name: D#4, Velocity: 59
Note ON: Time 384240, Note Name: G#4, Velocity: 59
Note OFF: Time 384480, Note Name: G#4
Note OFF: Time 384480, Note Name: D#4
Note ON: Time 384480, Note Name: E4, Velocity: 59
Note ON: Time 384480, Note Name: A4, Velocity: 59
Note OFF: Time 384720, Note Name: A4
Note OFF: Time 384720, Note Name: E4
Note ON: Time 384720, Note Name: F4, Velocity: 60
Note ON: Time 384720, Note Name: A#4, Velocity: 60
Note OFF: Time 384960, Note Name: A#4
Note OFF: Time 384960, Note Name: F4
Note ON: Time 384960, Note Name: F#4, Velocity: 64
Note ON: Time 384960, Note Name: B4, Velocity: 64
Note OFF: Time 385200, Note Name: B4
Note OFF: Time 385200, Note Name: F#4
Note ON: Time 385200, Note Name: G4, Velocity: 65
Note ON: Time 385200, Note Name: C5, Velocity: 65
Note OFF: Time 385440, Note Name: C5
Note OFF: Time 385440, Note Name: G4
Note ON: Time 385440, Note Name: G#4, Velocity: 66
Note ON: Time 385440, Note Name: C#5, Velocity: 66
Note OFF: Time 385680, Note Name: C#5
Note OFF: Time 385680, Note Name: G#4
Note ON: Time 385680, Note Name: A4, Velocity: 67
Note ON: Time 385680, Note Name: D5, Velocity: 67
Note OFF: Time 385920, Note Name: D5
Note OFF: Time 385920, Note Name: A4
Note ON: Time 385920, Note Name: A4, Velocity: 68
Note ON: Time 385920, Note Name: D5, Velocity: 68
Note OFF: Time 386400, Note Name: D5
Note OFF: Time 386400, Note Name: A4
Note ON: Time 386400, Note Name: A#4, Velocity: 73
Note ON: Time 386400, Note Name: D#5, Velocity: 73
Note OFF: Time 386880, Note Name: D#5
Note OFF: Time 386880, Note Name: A#4
Note ON: Time 386880, Note Name: D#6, Velocity: 80
Note ON: Time 386880, Note Name: A#5, Velocity: 80
Note ON: Time 386880, Note Name: D#5, Velocity: 80
Note OFF: Time 387120, Note Name: D#5
Note OFF: Time 387120, Note Name: A#5
Note OFF: Time 387120, Note Name: D#6
Note ON: Time 387360, Note Name: D#6, Velocity: 91
Note ON: Time 387360, Note Name: D#7, Velocity: 79
Note OFF: Time 387840, Note Name: D#7
Note OFF: Time 387840, Note Name: D#6
Note ON: Time 387840, Note Name: A#3, Velocity: 48
Note ON: Time 387840, Note Name: D#4, Velocity: 48
Note OFF: Time 388080, Note Name: D#4
Note OFF: Time 388080, Note Name: A#3
Note ON: Time 388080, Note Name: A#3, Velocity: 49
Note ON: Time 388080, Note Name: D#4, Velocity: 49
Note OFF: Time 388320, Note Name: D#4
Note OFF: Time 388320, Note Name: A#3
Note ON: Time 388320, Note Name: A3, Velocity: 50
Note ON: Time 388320, Note Name: D4, Velocity: 50
Note OFF: Time 388560, Note Name: D4
Note OFF: Time 388560, Note Name: A3
Note ON: Time 388560, Note Name: A#3, Velocity: 51
Note ON: Time 388560, Note Name: D#4, Velocity: 51
Note OFF: Time 388800, Note Name: D#4
Note OFF: Time 388800, Note Name: A#3
Note ON: Time 388800, Note Name: B3, Velocity: 52
Note ON: Time 388800, Note Name: E4, Velocity: 52
Note OFF: Time 389040, Note Name: E4
Note OFF: Time 389040, Note Name: B3
Note ON: Time 389040, Note Name: C4, Velocity: 53
Note ON: Time 389040, Note Name: F4, Velocity: 53
Note OFF: Time 389280, Note Name: F4
Note OFF: Time 389280, Note Name: C4
Note ON: Time 389280, Note Name: C#4, Velocity: 54
Note ON: Time 389280, Note Name: F#4, Velocity: 54
Note OFF: Time 389520, Note Name: F#4
Note OFF: Time 389520, Note Name: C#4
Note ON: Time 389520, Note Name: D4, Velocity: 55
Note ON: Time 389520, Note Name: G4, Velocity: 55
Note OFF: Time 389760, Note Name: G4
Note OFF: Time 389760, Note Name: D4
Note ON: Time 389760, Note Name: D#4, Velocity: 57
Note ON: Time 389760, Note Name: G#4, Velocity: 57
Note OFF: Time 390000, Note Name: G#4
Note OFF: Time 390000, Note Name: D#4
Note ON: Time 390000, Note Name: E4, Velocity: 59
Note ON: Time 390000, Note Name: A4, Velocity: 59
Note OFF: Time 390240, Note Name: A4
Note OFF: Time 390240, Note Name: E4
Note ON: Time 390240, Note Name: F4, Velocity: 59
Note ON: Time 390240, Note Name: A#4, Velocity: 59
Note OFF: Time 390480, Note Name: A#4
Note OFF: Time 390480, Note Name: F4
Note ON: Time 390480, Note Name: F#4, Velocity: 60
Note ON: Time 390480, Note Name: B4, Velocity: 60
Note OFF: Time 390720, Note Name: B4
Note OFF: Time 390720, Note Name: F#4
Note ON: Time 390720, Note Name: G4, Velocity: 64
Note ON: Time 390720, Note Name: C5, Velocity: 64
Note OFF: Time 390960, Note Name: C5
Note OFF: Time 390960, Note Name: G4
Note ON: Time 390960, Note Name: G#4, Velocity: 65
Note ON: Time 390960, Note Name: C#5, Velocity: 65
Note OFF: Time 391200, Note Name: C#5
Note OFF: Time 391200, Note Name: G#4
Note ON: Time 391200, Note Name: A4, Velocity: 66
Note ON: Time 391200, Note Name: D5, Velocity: 66
Note OFF: Time 391440, Note Name: D5
Note OFF: Time 391440, Note Name: A4
Note ON: Time 391440, Note Name: A#4, Velocity: 67
Note ON: Time 391440, Note Name: D#5, Velocity: 67
Note OFF: Time 391680, Note Name: D#5
Note OFF: Time 391680, Note Name: A#4
Note ON: Time 391680, Note Name: A#4, Velocity: 68
Note ON: Time 391680, Note Name: D#5, Velocity: 68
Note OFF: Time 392160, Note Name: D#5
Note OFF: Time 392160, Note Name: A#4
Note ON: Time 392160, Note Name: B4, Velocity: 73
Note ON: Time 392160, Note Name: E5, Velocity: 73
Note OFF: Time 392640, Note Name: E5
Note OFF: Time 392640, Note Name: B4
Note ON: Time 392640, Note Name: E6, Velocity: 80
Note ON: Time 392640, Note Name: B5, Velocity: 80
Note ON: Time 392640, Note Name: E5, Velocity: 80
Note OFF: Time 392880, Note Name: E5
Note OFF: Time 392880, Note Name: B5
Note OFF: Time 392880, Note Name: E6
Note ON: Time 393120, Note Name: E6, Velocity: 91
Note ON: Time 393120, Note Name: E7, Velocity: 85
Note OFF: Time 393600, Note Name: E7
Note OFF: Time 393600, Note Name: E6
Note ON: Time 393600, Note Name: E4, Velocity: 58
Note ON: Time 393600, Note Name: E5, Velocity: 70
Note OFF: Time 393840, Note Name: E5
Note OFF: Time 393840, Note Name: E4
Note ON: Time 393840, Note Name: E4, Velocity: 58
Note ON: Time 393840, Note Name: E5, Velocity: 70
Note OFF: Time 394080, Note Name: E5
Note OFF: Time 394080, Note Name: E4
Note ON: Time 394080, Note Name: D#4, Velocity: 53
Note ON: Time 394080, Note Name: D#5, Velocity: 64
Note OFF: Time 394320, Note Name: D#5
Note OFF: Time 394320, Note Name: D#4
Note ON: Time 394320, Note Name: E4, Velocity: 53
Note ON: Time 394320, Note Name: E5, Velocity: 64
Note OFF: Time 394560, Note Name: E5
Note OFF: Time 394560, Note Name: E4
Note ON: Time 394560, Note Name: F4, Velocity: 58
Note ON: Time 394560, Note Name: F5, Velocity: 70
Note OFF: Time 394800, Note Name: F5
Note OFF: Time 394800, Note Name: F4
Note ON: Time 394800, Note Name: F#4, Velocity: 53
Note ON: Time 394800, Note Name: F#5, Velocity: 64
Note OFF: Time 395040, Note Name: F#5
Note OFF: Time 395040, Note Name: F#4
Note ON: Time 395040, Note Name: G4, Velocity: 58
Note ON: Time 395040, Note Name: G5, Velocity: 70
Note OFF: Time 395160, Note Name: G5
Note OFF: Time 395160, Note Name: G4
Note ON: Time 395280, Note Name: G4, Velocity: 54
Note ON: Time 395280, Note Name: G5, Velocity: 65
Note OFF: Time 395400, Note Name: G5
Note OFF: Time 395400, Note Name: G4
Note ON: Time 395520, Note Name: G4, Velocity: 54
Note ON: Time 395520, Note Name: G5, Velocity: 65
Note OFF: Time 395640, Note Name: G5
Note OFF: Time 395640, Note Name: G4
Note ON: Time 395760, Note Name: G4, Velocity: 54
Note ON: Time 395760, Note Name: G5, Velocity: 65
Note OFF: Time 395880, Note Name: G5
Note OFF: Time 395880, Note Name: G4
Note ON: Time 396000, Note Name: G4, Velocity: 58
Note ON: Time 396000, Note Name: G5, Velocity: 70
Note OFF: Time 396240, Note Name: G5
Note OFF: Time 396240, Note Name: G4
Note ON: Time 396240, Note Name: F#4, Velocity: 54
Note ON: Time 396240, Note Name: F#5, Velocity: 65
Note OFF: Time 396480, Note Name: F#5
Note OFF: Time 396480, Note Name: F#4
Note ON: Time 396480, Note Name: F#4, Velocity: 58
Note ON: Time 396480, Note Name: F#5, Velocity: 70
Note OFF: Time 396600, Note Name: F#5
Note OFF: Time 396600, Note Name: F#4
Note ON: Time 396720, Note Name: F#4, Velocity: 54
Note ON: Time 396720, Note Name: F#5, Velocity: 65
Note OFF: Time 396840, Note Name: F#5
Note OFF: Time 396840, Note Name: F#4
Note ON: Time 396960, Note Name: F4, Velocity: 54
Note ON: Time 396960, Note Name: F5, Velocity: 65
Note OFF: Time 397080, Note Name: F5
Note OFF: Time 397080, Note Name: F4
Note ON: Time 397200, Note Name: F#4, Velocity: 54
Note ON: Time 397200, Note Name: F#5, Velocity: 65
Note OFF: Time 397320, Note Name: F#5
Note OFF: Time 397320, Note Name: F#4
Note ON: Time 397440, Note Name: G4, Velocity: 58
Note ON: Time 397440, Note Name: G5, Velocity: 70
Note OFF: Time 397680, Note Name: G5
Note OFF: Time 397680, Note Name: G4
Note ON: Time 397680, Note Name: G#4, Velocity: 53
Note ON: Time 397680, Note Name: G#5, Velocity: 63
Note OFF: Time 397920, Note Name: G#5
Note OFF: Time 397920, Note Name: G#4
Note ON: Time 397920, Note Name: A4, Velocity: 54
Note ON: Time 397920, Note Name: A5, Velocity: 65
Note OFF: Time 398040, Note Name: A5
Note OFF: Time 398040, Note Name: A4
Note ON: Time 398160, Note Name: A4, Velocity: 56
Note ON: Time 398160, Note Name: A5, Velocity: 67
Note OFF: Time 398280, Note Name: A5
Note OFF: Time 398280, Note Name: A4
Note ON: Time 398400, Note Name: A4, Velocity: 58
Note ON: Time 398400, Note Name: A5, Velocity: 70
Note OFF: Time 398520, Note Name: A5
Note OFF: Time 398520, Note Name: A4
Note ON: Time 398640, Note Name: A4, Velocity: 60
Note ON: Time 398640, Note Name: A5, Velocity: 72
Note OFF: Time 398760, Note Name: A5
Note OFF: Time 398760, Note Name: A4
Note ON: Time 398880, Note Name: A4, Velocity: 66
Note ON: Time 398880, Note Name: A5, Velocity: 78
Note OFF: Time 399120, Note Name: A5
Note OFF: Time 399120, Note Name: A4
Note ON: Time 399120, Note Name: G#4, Velocity: 60
Note ON: Time 399120, Note Name: G#5, Velocity: 72
Note OFF: Time 399360, Note Name: G#5
Note OFF: Time 399360, Note Name: G#4
Note ON: Time 399360, Note Name: G#4, Velocity: 63
Note ON: Time 399360, Note Name: G#5, Velocity: 74
Note OFF: Time 399480, Note Name: G#5
Note OFF: Time 399480, Note Name: G#4
Note ON: Time 399600, Note Name: G#4, Velocity: 65
Note ON: Time 399600, Note Name: G#5, Velocity: 76
Note OFF: Time 399720, Note Name: G#5
Note OFF: Time 399720, Note Name: G#4
Note ON: Time 399840, Note Name: G4, Velocity: 65
Note ON: Time 399840, Note Name: G5, Velocity: 77
Note OFF: Time 399960, Note Name: G5
Note OFF: Time 399960, Note Name: G4
Note ON: Time 400080, Note Name: G#4, Velocity: 68
Note ON: Time 400080, Note Name: G#5, Velocity: 80
Note OFF: Time 400200, Note Name: G#5
Note OFF: Time 400200, Note Name: G#4
Note ON: Time 400320, Note Name: G#4, Velocity: 77
Note ON: Time 400320, Note Name: C#5, Velocity: 77
Note ON: Time 400320, Note Name: G#5, Velocity: 91
Note OFF: Time 400740, Note Name: G#5
Note OFF: Time 400740, Note Name: C#5
Note OFF: Time 400740, Note Name: G#4
Note ON: Time 400740, Note Name: A#4, Velocity: 55
Note ON: Time 400740, Note Name: A#5, Velocity: 63
Note OFF: Time 400800, Note Name: A#5
Note OFF: Time 400800, Note Name: A#4
Note ON: Time 400800, Note Name: G#4, Velocity: 73
Note ON: Time 400800, Note Name: C#5, Velocity: 73
Note ON: Time 400800, Note Name: G#5, Velocity: 86
Note OFF: Time 401040, Note Name: G#5
Note OFF: Time 401040, Note Name: C#5
Note OFF: Time 401040, Note Name: G#4
Note ON: Time 401040, Note Name: G4, Velocity: 66
Note ON: Time 401040, Note Name: G5, Velocity: 79
Note OFF: Time 401280, Note Name: G5
Note OFF: Time 401280, Note Name: G4
Note ON: Time 401280, Note Name: G#4, Velocity: 73
Note ON: Time 401280, Note Name: C#5, Velocity: 73
Note ON: Time 401280, Note Name: G#5, Velocity: 88
Note OFF: Time 401520, Note Name: G#5
Note OFF: Time 401520, Note Name: C#5
Note OFF: Time 401520, Note Name: G#4
Note ON: Time 401520, Note Name: A#4, Velocity: 69
Note ON: Time 401520, Note Name: A#5, Velocity: 82
Note OFF: Time 401760, Note Name: A#5
Note OFF: Time 401760, Note Name: A#4
Note ON: Time 401760, Note Name: C#5, Velocity: 76
Note ON: Time 401760, Note Name: G#4, Velocity: 76
Note ON: Time 401760, Note Name: G#5, Velocity: 90
Note OFF: Time 402240, Note Name: G#5
Note OFF: Time 402240, Note Name: G#4
Note OFF: Time 402240, Note Name: C#5
Note ON: Time 402240, Note Name: G#6, Velocity: 95
Note ON: Time 402240, Note Name: G#5, Velocity: 79
Note OFF: Time 402480, Note Name: G#5
Note OFF: Time 402480, Note Name: G#6
Note ON: Time 402720, Note Name: F#4, Velocity: 73
Note ON: Time 402720, Note Name: C#5, Velocity: 73
Note ON: Time 402720, Note Name: F#5, Velocity: 88
Note OFF: Time 403200, Note Name: F#5
Note OFF: Time 403200, Note Name: C#5
Note OFF: Time 403200, Note Name: F#4
Note ON: Time 403200, Note Name: F#4, Velocity: 65
Note ON: Time 403200, Note Name: B4, Velocity: 65
Note ON: Time 403200, Note Name: F#5, Velocity: 77
Note OFF: Time 403620, Note Name: F#5
Note OFF: Time 403620, Note Name: B4
Note OFF: Time 403620, Note Name: F#4
Note ON: Time 403620, Note Name: G#4, Velocity: 61
Note ON: Time 403620, Note Name: G#5, Velocity: 61
Note OFF: Time 403680, Note Name: G#5
Note OFF: Time 403680, Note Name: G#4
Note ON: Time 403680, Note Name: F#4, Velocity: 70
Note ON: Time 403680, Note Name: B4, Velocity: 70
Note ON: Time 403680, Note Name: F#5, Velocity: 82
Note OFF: Time 403920, Note Name: F#5
Note OFF: Time 403920, Note Name: B4
Note OFF: Time 403920, Note Name: F#4
Note ON: Time 403920, Note Name: F4, Velocity: 67
Note ON: Time 403920, Note Name: F5, Velocity: 79
Note OFF: Time 404160, Note Name: F5
Note OFF: Time 404160, Note Name: F4
Note ON: Time 404160, Note Name: F#4, Velocity: 70
Note ON: Time 404160, Note Name: B4, Velocity: 70
Note ON: Time 404160, Note Name: F#5, Velocity: 84
Note OFF: Time 404400, Note Name: F#5
Note OFF: Time 404400, Note Name: B4
Note OFF: Time 404400, Note Name: F#4
Note ON: Time 404400, Note Name: G#4, Velocity: 67
Note ON: Time 404400, Note Name: G#5, Velocity: 79
Note OFF: Time 404640, Note Name: G#5
Note OFF: Time 404640, Note Name: G#4
Note ON: Time 404640, Note Name: B4, Velocity: 76
Note ON: Time 404640, Note Name: F#4, Velocity: 76
Note ON: Time 404640, Note Name: F#5, Velocity: 90
Note OFF: Time 405120, Note Name: F#5
Note OFF: Time 405120, Note Name: F#4
Note OFF: Time 405120, Note Name: B4
Note ON: Time 405120, Note Name: F#6, Velocity: 92
Note ON: Time 405120, Note Name: F#5, Velocity: 79
Note OFF: Time 405360, Note Name: F#5
Note OFF: Time 405360, Note Name: F#6
Note ON: Time 405600, Note Name: E4, Velocity: 73
Note ON: Time 405600, Note Name: B4, Velocity: 73
Note ON: Time 405600, Note Name: E5, Velocity: 88
Note OFF: Time 406080, Note Name: E5
Note OFF: Time 406080, Note Name: B4
Note OFF: Time 406080, Note Name: E4
Note ON: Time 406080, Note Name: E4, Velocity: 77
Note ON: Time 406080, Note Name: A4, Velocity: 77
Note ON: Time 406080, Note Name: E5, Velocity: 91
Note OFF: Time 406500, Note Name: E5
Note OFF: Time 406500, Note Name: A4
Note OFF: Time 406500, Note Name: E4
Note ON: Time 406500, Note Name: F#4, Velocity: 55
Note ON: Time 406500, Note Name: F#5, Velocity: 63
Note OFF: Time 406560, Note Name: F#5
Note OFF: Time 406560, Note Name: F#4
Note ON: Time 406560, Note Name: E4, Velocity: 77
Note ON: Time 406560, Note Name: A4, Velocity: 77
Note ON: Time 406560, Note Name: E5, Velocity: 91
Note OFF: Time 406800, Note Name: E5
Note OFF: Time 406800, Note Name: A4
Note OFF: Time 406800, Note Name: E4
Note ON: Time 406800, Note Name: D#4, Velocity: 69
Note ON: Time 406800, Note Name: D#5, Velocity: 82
Note OFF: Time 407040, Note Name: D#5
Note OFF: Time 407040, Note Name: D#4
Note ON: Time 407040, Note Name: E4, Velocity: 73
Note ON: Time 407040, Note Name: A4, Velocity: 73
Note ON: Time 407040, Note Name: E5, Velocity: 88
Note OFF: Time 407280, Note Name: E5
Note OFF: Time 407280, Note Name: A4
Note OFF: Time 407280, Note Name: E4
Note ON: Time 407280, Note Name: F#4, Velocity: 69
Note ON: Time 407280, Note Name: F#5, Velocity: 82
Note OFF: Time 407520, Note Name: F#5
Note OFF: Time 407520, Note Name: F#4
Note ON: Time 407520, Note Name: D#4, Velocity: 76
Note ON: Time 407520, Note Name: A4, Velocity: 76
Note ON: Time 407520, Note Name: D#5, Velocity: 90
Note OFF: Time 407760, Note Name: D#5
Note OFF: Time 407760, Note Name: A4
Note OFF: Time 407760, Note Name: D#4
Note ON: Time 407760, Note Name: D#4, Velocity: 74
Note OFF: Time 408000, Note Name: D#4
Note ON: Time 408000, Note Name: F#4, Velocity: 71
Note ON: Time 408000, Note Name: D#5, Velocity: 84
Note OFF: Time 408240, Note Name: D#5
Note OFF: Time 408240, Note Name: F#4
Note ON: Time 408240, Note Name: D#5, Velocity: 91
Note OFF: Time 408480, Note Name: D#5
Note ON: Time 408480, Note Name: D#6, Velocity: 89
Note ON: Time 408480, Note Name: F#5, Velocity: 74
Note OFF: Time 408720, Note Name: F#5
Note OFF: Time 408720, Note Name: D#6
Note ON: Time 408720, Note Name: D#6, Velocity: 93
Note OFF: Time 408960, Note Name: D#6
Note ON: Time 408960, Note Name: D#7, Velocity: 93
Note ON: Time 408960, Note Name: F#6, Velocity: 77
Note OFF: Time 409440, Note Name: F#6
Note OFF: Time 409440, Note Name: D#7
Note ON: Time 409440, Note Name: D#4, Velocity: 70
Note ON: Time 409440, Note Name: A4, Velocity: 82
Note ON: Time 409440, Note Name: F#4, Velocity: 70
Note OFF: Time 409680, Note Name: F#4
Note OFF: Time 409680, Note Name: A4
Note OFF: Time 409680, Note Name: D#4
Note ON: Time 409920, Note Name: F#4, Velocity: 67
Note ON: Time 409920, Note Name: A4, Velocity: 67
Note ON: Time 409920, Note Name: F#5, Velocity: 79
Note OFF: Time 410160, Note Name: F#5
Note OFF: Time 410160, Note Name: A4
Note OFF: Time 410160, Note Name: F#4
Note ON: Time 410400, Note Name: F4, Velocity: 70
Note ON: Time 410400, Note Name: A#4, Velocity: 70
Note ON: Time 410400, Note Name: F5, Velocity: 82
Note OFF: Time 410640, Note Name: F5
Note OFF: Time 410640, Note Name: A#4
Note OFF: Time 410640, Note Name: F4
Note ON: Time 410880, Note Name: A#3, Velocity: 52
Note ON: Time 410880, Note Name: F4, Velocity: 52
Note ON: Time 410880, Note Name: A#4, Velocity: 61
Note OFF: Time 411120, Note Name: A#4
Note OFF: Time 411120, Note Name: F4
Note OFF: Time 411120, Note Name: A#3
Note ON: Time 411360, Note Name: D#4, Velocity: 56
Note ON: Time 411360, Note Name: F#4, Velocity: 56
Note ON: Time 411360, Note Name: C5, Velocity: 66
Note ON: Time 411360, Note Name: D#5, Velocity: 66
Note OFF: Time 411600, Note Name: D#5
Note OFF: Time 411600, Note Name: D#4
Note OFF: Time 411600, Note Name: F#4
Note OFF: Time 411600, Note Name: C5
Note ON: Time 411840, Note Name: C#4, Velocity: 57
Note ON: Time 411840, Note Name: F4, Velocity: 57
Note ON: Time 411840, Note Name: A#4, Velocity: 68
Note ON: Time 411840, Note Name: C#5, Velocity: 68
Note OFF: Time 412080, Note Name: C#5
Note OFF: Time 412080, Note Name: C#4
Note OFF: Time 412080, Note Name: F4
Note OFF: Time 412080, Note Name: A#4
Note ON: Time 412320, Note Name: C#4, Velocity: 50
Note ON: Time 412320, Note Name: F4, Velocity: 60
Note OFF: Time 412560, Note Name: F4
Note OFF: Time 412560, Note Name: C#4
Note ON: Time 412800, Note Name: D#4, Velocity: 49
Note ON: Time 412800, Note Name: F4, Velocity: 49
Note ON: Time 412800, Note Name: A4, Velocity: 58
Note ON: Time 412800, Note Name: C5, Velocity: 58
Note OFF: Time 413040, Note Name: C5
Note OFF: Time 413040, Note Name: D#4
Note OFF: Time 413040, Note Name: F4
Note OFF: Time 413040, Note Name: A4
Note ON: Time 413280, Note Name: C#4, Velocity: 46
Note ON: Time 413280, Note Name: F4, Velocity: 46
Note ON: Time 413280, Note Name: A#4, Velocity: 55
Note OFF: Time 413520, Note Name: A#4
Note OFF: Time 413520, Note Name: F4
Note OFF: Time 413520, Note Name: C#4
Note ON: Time 413760, Note Name: F3, Velocity: 38
Note ON: Time 413760, Note Name: A#3, Velocity: 48
Note OFF: Time 414000, Note Name: A#3
Note OFF: Time 414000, Note Name: F3
Note ON: Time 414240, Note Name: D#4, Velocity: 50
Note ON: Time 414240, Note Name: A#3, Velocity: 40
Note ON: Time 414240, Note Name: F#3, Velocity: 40
Note OFF: Time 414480, Note Name: F#3
Note OFF: Time 414480, Note Name: A#3
Note OFF: Time 414480, Note Name: D#4
Note ON: Time 414720, Note Name: F3, Velocity: 43
Note ON: Time 414720, Note Name: A#3, Velocity: 43
Note ON: Time 414720, Note Name: C#4, Velocity: 51
Note OFF: Time 414960, Note Name: C#4
Note OFF: Time 414960, Note Name: A#3
Note OFF: Time 414960, Note Name: F3
Note ON: Time 415200, Note Name: F3, Velocity: 45
Note OFF: Time 415440, Note Name: F3
Note ON: Time 415680, Note Name: C4, Velocity: 45
Note ON: Time 415680, Note Name: A3, Velocity: 37
Note ON: Time 415680, Note Name: D#3, Velocity: 37
Note OFF: Time 415920, Note Name: D#3
Note OFF: Time 415920, Note Name: A3
Note OFF: Time 415920, Note Name: C4
Note ON: Time 416160, Note Name: A#3, Velocity: 46
Note ON: Time 416160, Note Name: A#4, Velocity: 46
Note OFF: Time 418080, Note Name: A#4
Note OFF: Time 418080, Note Name: A#3
Note ON: Time 418080, Note Name: A#4, Velocity: 46
Note ON: Time 418080, Note Name: A#5, Velocity: 46
Note OFF: Time 418560, Note Name: A#5
Note OFF: Time 418560, Note Name: A#4
Note ON: Time 418560, Note Name: A#6, Velocity: 46
Note ON: Time 418560, Note Name: A#5, Velocity: 46
Note OFF: Time 419040, Note Name: A#5
Note OFF: Time 419040, Note Name: A#6
Note ON: Time 419040, Note Name: A#4, Velocity: 46
Note ON: Time 419040, Note Name: A#3, Velocity: 46
Note OFF: Time 420960, Note Name: A#3
Note OFF: Time 420960, Note Name: A#4
Note ON: Time 420960, Note Name: A#4, Velocity: 53
Note ON: Time 420960, Note Name: A#5, Velocity: 53
Note OFF: Time 421440, Note Name: A#5
Note OFF: Time 421440, Note Name: A#4
Note ON: Time 421440, Note Name: A#6, Velocity: 59
Note ON: Time 421440, Note Name: A#5, Velocity: 59
Note OFF: Time 421920, Note Name: A#5
Note OFF: Time 421920, Note Name: A#6
Note ON: Time 421920, Note Name: D#3, Velocity: 52
Note ON: Time 421920, Note Name: D#4, Velocity: 63
Note OFF: Time 422010, Note Name: D#4
Note OFF: Time 422010, Note Name: D#3
Note ON: Time 422160, Note Name: D#3, Velocity: 55
Note ON: Time 422160, Note Name: D#4, Velocity: 66
Note OFF: Time 422250, Note Name: D#4
Note OFF: Time 422250, Note Name: D#3
Note ON: Time 422400, Note Name: D#4, Velocity: 67
Note ON: Time 422400, Note Name: D#3, Velocity: 57
Note OFF: Time 422490, Note Name: D#3
Note OFF: Time 422490, Note Name: D#4
Note ON: Time 422640, Note Name: D#4, Velocity: 68
Note ON: Time 422640, Note Name: D#3, Velocity: 59
Note OFF: Time 422730, Note Name: D#3
Note OFF: Time 422730, Note Name: D#4
Note ON: Time 422880, Note Name: D#4, Velocity: 79
Note ON: Time 422880, Note Name: D#3, Velocity: 66
Note OFF: Time 423360, Note Name: D#3
Note OFF: Time 423360, Note Name: D#4
Note ON: Time 423360, Note Name: F3, Velocity: 73
Note ON: Time 423360, Note Name: D#4, Velocity: 75
Note ON: Time 423360, Note Name: B3, Velocity: 71
Note ON: Time 423360, Note Name: F4, Velocity: 88
Note OFF: Time 423840, Note Name: F4
Note OFF: Time 423840, Note Name: F3
Note OFF: Time 423840, Note Name: D#4
Note OFF: Time 423840, Note Name: B3
Note ON: Time 423840, Note Name: F4, Velocity: 63
Note ON: Time 423840, Note Name: F5, Velocity: 76
Note ON: Time 423840, Note Name: D#5, Velocity: 63
Note ON: Time 423840, Note Name: B4, Velocity: 63
Note OFF: Time 424080, Note Name: B4
Note OFF: Time 424080, Note Name: F4
Note OFF: Time 424080, Note Name: F5
Note OFF: Time 424080, Note Name: D#5
Note ON: Time 424080, Note Name: D#4, Velocity: 61
Note ON: Time 424080, Note Name: D#5, Velocity: 74
Note OFF: Time 424320, Note Name: D#5
Note OFF: Time 424320, Note Name: D#4
Note ON: Time 424320, Note Name: A#4, Velocity: 63
Note ON: Time 424320, Note Name: D5, Velocity: 63
Note ON: Time 424320, Note Name: F5, Velocity: 76
Note ON: Time 424320, Note Name: F4, Velocity: 63
Note OFF: Time 424560, Note Name: F4
Note OFF: Time 424560, Note Name: A#4
Note OFF: Time 424560, Note Name: D5
Note OFF: Time 424560, Note Name: F5
Note ON: Time 424560, Note Name: F#5, Velocity: 72
Note ON: Time 424560, Note Name: F#4, Velocity: 59
Note OFF: Time 424800, Note Name: F#4
Note OFF: Time 424800, Note Name: F#5
Note ON: Time 424800, Note Name: F#4, Velocity: 63
Note ON: Time 424800, Note Name: F#3, Velocity: 52
Note OFF: Time 424890, Note Name: F#3
Note OFF: Time 424890, Note Name: F#4
Note ON: Time 425040, Note Name: F#3, Velocity: 55
Note ON: Time 425040, Note Name: F#4, Velocity: 66
Note OFF: Time 425130, Note Name: F#4
Note OFF: Time 425130, Note Name: F#3
Note ON: Time 425280, Note Name: F#3, Velocity: 57
Note ON: Time 425280, Note Name: F#4, Velocity: 67
Note OFF: Time 425370, Note Name: F#4
Note OFF: Time 425370, Note Name: F#3
Note ON: Time 425520, Note Name: F#4, Velocity: 66
Note ON: Time 425520, Note Name: F#3, Velocity: 57
Note OFF: Time 425610, Note Name: F#3
Note OFF: Time 425610, Note Name: F#4
Note ON: Time 425760, Note Name: F#4, Velocity: 79
Note ON: Time 425760, Note Name: F#3, Velocity: 68
Note OFF: Time 426240, Note Name: F#3
Note OFF: Time 426240, Note Name: F#4
Note ON: Time 426240, Note Name: G#3, Velocity: 72
Note ON: Time 426240, Note Name: D4, Velocity: 73
Note ON: Time 426240, Note Name: F#4, Velocity: 75
Note ON: Time 426240, Note Name: G#4, Velocity: 87
Note OFF: Time 426720, Note Name: G#4
Note OFF: Time 426720, Note Name: G#3
Note OFF: Time 426720, Note Name: D4
Note OFF: Time 426720, Note Name: F#4
Note ON: Time 426720, Note Name: G#4, Velocity: 63
Note ON: Time 426720, Note Name: F#5, Velocity: 63
Note ON: Time 426720, Note Name: G#5, Velocity: 76
Note ON: Time 426720, Note Name: D5, Velocity: 63
Note OFF: Time 426960, Note Name: D5
Note OFF: Time 426960, Note Name: G#4
Note OFF: Time 426960, Note Name: F#5
Note OFF: Time 426960, Note Name: G#5
Note ON: Time 426960, Note Name: F#4, Velocity: 61
Note ON: Time 426960, Note Name: F#5, Velocity: 74
Note OFF: Time 427200, Note Name: F#5
Note OFF: Time 427200, Note Name: F#4
Note ON: Time 427200, Note Name: G#4, Velocity: 63
Note ON: Time 427200, Note Name: F5, Velocity: 63
Note ON: Time 427200, Note Name: G#5, Velocity: 76
Note ON: Time 427200, Note Name: C#5, Velocity: 63
Note OFF: Time 427440, Note Name: C#5
Note OFF: Time 427440, Note Name: G#4
Note OFF: Time 427440, Note Name: F5
Note OFF: Time 427440, Note Name: G#5
Note ON: Time 427440, Note Name: A5, Velocity: 72
Note ON: Time 427440, Note Name: A4, Velocity: 59
Note OFF: Time 427680, Note Name: A4
Note OFF: Time 427680, Note Name: A5
Note ON: Time 427680, Note Name: A4, Velocity: 56
Note ON: Time 427680, Note Name: A3, Velocity: 47
Note OFF: Time 427770, Note Name: A3
Note OFF: Time 427770, Note Name: A4
Note ON: Time 427920, Note Name: A3, Velocity: 51
Note ON: Time 427920, Note Name: A4, Velocity: 60
Note OFF: Time 428010, Note Name: A4
Note OFF: Time 428010, Note Name: A3
Note ON: Time 428160, Note Name: A3, Velocity: 54
Note ON: Time 428160, Note Name: A4, Velocity: 64
Note OFF: Time 428250, Note Name: A4
Note OFF: Time 428250, Note Name: A3
Note ON: Time 428400, Note Name: A3, Velocity: 57
Note ON: Time 428400, Note Name: A4, Velocity: 68
Note OFF: Time 428490, Note Name: A4
Note OFF: Time 428490, Note Name: A3
Note ON: Time 428640, Note Name: A4, Velocity: 82
Note ON: Time 428640, Note Name: A3, Velocity: 70
Note OFF: Time 429120, Note Name: A3
Note OFF: Time 429120, Note Name: A4
Note ON: Time 429120, Note Name: F4, Velocity: 52
Note ON: Time 429120, Note Name: A4, Velocity: 52
Note ON: Time 429120, Note Name: B4, Velocity: 63
Note ON: Time 429120, Note Name: B3, Velocity: 52
Note OFF: Time 429210, Note Name: B3
Note OFF: Time 429210, Note Name: F4
Note OFF: Time 429210, Note Name: A4
Note OFF: Time 429210, Note Name: B4
Note ON: Time 429360, Note Name: B3, Velocity: 55
Note ON: Time 429360, Note Name: A4, Velocity: 55
Note ON: Time 429360, Note Name: F4, Velocity: 55
Note ON: Time 429360, Note Name: B4, Velocity: 66
Note OFF: Time 429450, Note Name: B4
Note OFF: Time 429450, Note Name: B3
Note OFF: Time 429450, Note Name: A4
Note OFF: Time 429450, Note Name: F4
Note ON: Time 429600, Note Name: F4, Velocity: 60
Note ON: Time 429600, Note Name: B3, Velocity: 60
Note ON: Time 429600, Note Name: B4, Velocity: 71
Note ON: Time 429600, Note Name: A4, Velocity: 60
Note OFF: Time 429690, Note Name: A4
Note OFF: Time 429690, Note Name: F4
Note OFF: Time 429690, Note Name: B3
Note OFF: Time 429690, Note Name: B4
Note ON: Time 429840, Note Name: F4, Velocity: 61
Note ON: Time 429840, Note Name: A4, Velocity: 73
Note ON: Time 429840, Note Name: B4, Velocity: 73
Note ON: Time 429840, Note Name: B3, Velocity: 61
Note OFF: Time 429930, Note Name: B3
Note OFF: Time 429930, Note Name: F4
Note OFF: Time 429930, Note Name: A4
Note OFF: Time 429930, Note Name: B4
Note ON: Time 430080, Note Name: B3, Velocity: 68
Note ON: Time 430080, Note Name: F4, Velocity: 68
Note ON: Time 430080, Note Name: A4, Velocity: 68
Note ON: Time 430080, Note Name: B4, Velocity: 81
Note OFF: Time 430560, Note Name: B4
Note OFF: Time 430560, Note Name: B3
Note OFF: Time 430560, Note Name: F4
Note OFF: Time 430560, Note Name: A4
Note ON: Time 430560, Note Name: C4, Velocity: 53
Note ON: Time 430560, Note Name: D#4, Velocity: 53
Note ON: Time 430560, Note Name: C5, Velocity: 64
Note ON: Time 430560, Note Name: A4, Velocity: 53
Note OFF: Time 430650, Note Name: A4
Note OFF: Time 430650, Note Name: C4
Note OFF: Time 430650, Note Name: D#4
Note OFF: Time 430650, Note Name: C5
Note ON: Time 430800, Note Name: D#4, Velocity: 56
Note ON: Time 430800, Note Name: C4, Velocity: 56
Note ON: Time 430800, Note Name: C5, Velocity: 68
Note ON: Time 430800, Note Name: A4, Velocity: 56
Note OFF: Time 430890, Note Name: A4
Note OFF: Time 430890, Note Name: D#4
Note OFF: Time 430890, Note Name: C4
Note OFF: Time 430890, Note Name: C5
Note ON: Time 431040, Note Name: D#4, Velocity: 61
Note ON: Time 431040, Note Name: C5, Velocity: 73
Note ON: Time 431040, Note Name: C4, Velocity: 61
Note OFF: Time 431130, Note Name: C4
Note OFF: Time 431130, Note Name: C5
Note OFF: Time 431130, Note Name: D#4
Note ON: Time 431280, Note Name: D#4, Velocity: 64
Note ON: Time 431280, Note Name: C4, Velocity: 64
Note ON: Time 431280, Note Name: C5, Velocity: 75
Note OFF: Time 431370, Note Name: C5
Note OFF: Time 431370, Note Name: C4
Note OFF: Time 431370, Note Name: D#4
Note ON: Time 431520, Note Name: F#4, Velocity: 72
Note ON: Time 431520, Note Name: D#4, Velocity: 72
Note ON: Time 431520, Note Name: C5, Velocity: 84
Note ON: Time 431520, Note Name: C4, Velocity: 72
Note OFF: Time 432000, Note Name: C4
Note OFF: Time 432000, Note Name: F#4
Note OFF: Time 432000, Note Name: D#4
Note OFF: Time 432000, Note Name: C5
Note ON: Time 432000, Note Name: F#4, Velocity: 78
Note ON: Time 432000, Note Name: D#4, Velocity: 78
Note ON: Time 432000, Note Name: A4, Velocity: 78
Note ON: Time 432000, Note Name: D#5, Velocity: 93
Note OFF: Time 432480, Note Name: D#5
Note OFF: Time 432480, Note Name: F#4
Note OFF: Time 432480, Note Name: D#4
Note OFF: Time 432480, Note Name: A4
Note ON: Time 432480, Note Name: D#5, Velocity: 80
Note ON: Time 432480, Note Name: F#5, Velocity: 80
Note ON: Time 432480, Note Name: A5, Velocity: 80
Note ON: Time 432480, Note Name: F#6, Velocity: 94
Note OFF: Time 432720, Note Name: F#6
Note OFF: Time 432720, Note Name: D#5
Note OFF: Time 432720, Note Name: F#5
Note OFF: Time 432720, Note Name: A5
Note ON: Time 432960, Note Name: D5, Velocity: 94
Note ON: Time 432960, Note Name: D4, Velocity: 78
Note ON: Time 432960, Note Name: F#4, Velocity: 78
Note OFF: Time 433440, Note Name: F#4
Note OFF: Time 433440, Note Name: D4
Note OFF: Time 433440, Note Name: D5
Note ON: Time 433440, Note Name: C#4, Velocity: 74
Note ON: Time 433440, Note Name: F#4, Velocity: 74
Note ON: Time 433440, Note Name: C#5, Velocity: 88
Note OFF: Time 433920, Note Name: C#5
Note OFF: Time 433920, Note Name: F#4
Note OFF: Time 433920, Note Name: C#4
Note ON: Time 433920, Note Name: F#5, Velocity: 81
Note ON: Time 433920, Note Name: F#6, Velocity: 98
Note OFF: Time 434160, Note Name: F#6
Note OFF: Time 434160, Note Name: F#5
Note ON: Time 434400, Note Name: F#4, Velocity: 71
Note ON: Time 434400, Note Name: D4, Velocity: 71
Note ON: Time 434400, Note Name: D5, Velocity: 84
Note OFF: Time 434880, Note Name: D5
Note OFF: Time 434880, Note Name: D4
Note OFF: Time 434880, Note Name: F#4
Note ON: Time 434880, Note Name: D5, Velocity: 81
Note ON: Time 434880, Note Name: D6, Velocity: 98
Note OFF: Time 435120, Note Name: D6
Note OFF: Time 435120, Note Name: D5
Note ON: Time 435360, Note Name: G#4, Velocity: 71
Note ON: Time 435360, Note Name: F#4, Velocity: 66
Note ON: Time 435360, Note Name: D4, Velocity: 64
Note ON: Time 435360, Note Name: B4, Velocity: 84
Note OFF: Time 435840, Note Name: B4
Note OFF: Time 435840, Note Name: G#4
Note OFF: Time 435840, Note Name: F#4
Note OFF: Time 435840, Note Name: D4
Note ON: Time 435840, Note Name: B4, Velocity: 81
Note ON: Time 435840, Note Name: B5, Velocity: 98
Note OFF: Time 436080, Note Name: B5
Note OFF: Time 436080, Note Name: B4
Note ON: Time 436320, Note Name: F#4, Velocity: 71
Note ON: Time 436320, Note Name: C#4, Velocity: 71
Note ON: Time 436320, Note Name: A4, Velocity: 84
Note OFF: Time 436800, Note Name: A4
Note OFF: Time 436800, Note Name: C#4
Note OFF: Time 436800, Note Name: F#4
Note ON: Time 436800, Note Name: A4, Velocity: 80
Note ON: Time 436800, Note Name: A5, Velocity: 96
Note OFF: Time 437040, Note Name: A5
Note OFF: Time 437040, Note Name: A4
Note ON: Time 437280, Note Name: F#4, Velocity: 71
Note ON: Time 437280, Note Name: C#4, Velocity: 71
Note ON: Time 437280, Note Name: G#4, Velocity: 84
Note OFF: Time 437760, Note Name: G#4
Note OFF: Time 437760, Note Name: C#4
Note OFF: Time 437760, Note Name: F#4
Note ON: Time 437760, Note Name: G#4, Velocity: 78
Note ON: Time 437760, Note Name: G#5, Velocity: 94
Note OFF: Time 438000, Note Name: G#5
Note OFF: Time 438000, Note Name: G#4
Note ON: Time 438240, Note Name: F4, Velocity: 67
Note ON: Time 438240, Note Name: C#4, Velocity: 67
Note ON: Time 438240, Note Name: G#4, Velocity: 79
Note OFF: Time 438720, Note Name: G#4
Note OFF: Time 438720, Note Name: C#4
Note OFF: Time 438720, Note Name: F4
Note ON: Time 438720, Note Name: C#6, Velocity: 80
Note ON: Time 438720, Note Name: G#5, Velocity: 67
Note ON: Time 438720, Note Name: C#5, Velocity: 63
Note OFF: Time 438960, Note Name: C#5
Note OFF: Time 438960, Note Name: G#5
Note OFF: Time 438960, Note Name: C#6
Note ON: Time 439200, Note Name: C#5, Velocity: 63
Note ON: Time 439200, Note Name: G#5, Velocity: 67
Note ON: Time 439200, Note Name: C#6, Velocity: 82
Note OFF: Time 439680, Note Name: C#6
Note OFF: Time 439680, Note Name: G#5
Note OFF: Time 439680, Note Name: C#5
Note ON: Time 439680, Note Name: F#6, Velocity: 74
Note ON: Time 439680, Note Name: F#5, Velocity: 64
Note OFF: Time 440160, Note Name: F#5
Note OFF: Time 440160, Note Name: F#6
Note ON: Time 440160, Note Name: C#5, Velocity: 46
Note ON: Time 440160, Note Name: G#4, Velocity: 38
Note ON: Time 440160, Note Name: C#4, Velocity: 29
Note OFF: Time 440400, Note Name: C#4
Note OFF: Time 440400, Note Name: G#4
Note OFF: Time 440400, Note Name: C#5
Note ON: Time 440640, Note Name: C#4, Velocity: 30
Note ON: Time 440640, Note Name: G#4, Velocity: 40
Note ON: Time 440640, Note Name: C#5, Velocity: 46
Note OFF: Time 441120, Note Name: C#5
Note OFF: Time 441120, Note Name: G#4
Note OFF: Time 441120, Note Name: C#4
Note ON: Time 441120, Note Name: F#5, Velocity: 43
Note ON: Time 441120, Note Name: F#4, Velocity: 37
Note OFF: Time 441600, Note Name: F#4
Note OFF: Time 441600, Note Name: F#5
Note ON: Time 441600, Note Name: C#5, Velocity: 42
Note ON: Time 441600, Note Name: G#4, Velocity: 31
Note ON: Time 441600, Note Name: C#4, Velocity: 27
Note OFF: Time 442080, Note Name: C#4
Note OFF: Time 442080, Note Name: G#4
Note OFF: Time 442080, Note Name: C#5
Note ON: Time 442080, Note Name: C#4, Velocity: 35
Note ON: Time 442080, Note Name: C#5, Velocity: 46
Note OFF: Time 442560, Note Name: C#5
Note OFF: Time 442560, Note Name: C#4
Note ON: Time 442560, Note Name: F#5, Velocity: 43
Note ON: Time 442560, Note Name: F#4, Velocity: 34
Note OFF: Time 443040, Note Name: F#4
Note OFF: Time 443040, Note Name: F#5
Note ON: Time 443040, Note Name: C#5, Velocity: 39
Note ON: Time 443040, Note Name: G#4, Velocity: 29
Note ON: Time 443040, Note Name: C#4, Velocity: 25
Note OFF: Time 443520, Note Name: C#4
Note OFF: Time 443520, Note Name: G#4
Note OFF: Time 443520, Note Name: C#5
Note ON: Time 443520, Note Name: C#4, Velocity: 32
Note ON: Time 443520, Note Name: C#5, Velocity: 43
Note OFF: Time 444000, Note Name: C#5
Note OFF: Time 444000, Note Name: C#4
Note ON: Time 444000, Note Name: F#5, Velocity: 40
Note ON: Time 444000, Note Name: F#4, Velocity: 31
Note OFF: Time 444480, Note Name: F#4
Note OFF: Time 444480, Note Name: F#5
Note ON: Time 444480, Note Name: C#5, Velocity: 36
Note ON: Time 444480, Note Name: G#4, Velocity: 27
Note ON: Time 444480, Note Name: C#4, Velocity: 23
Note OFF: Time 444960, Note Name: C#4
Note OFF: Time 444960, Note Name: G#4
Note OFF: Time 444960, Note Name: C#5
Note ON: Time 444960, Note Name: C#4, Velocity: 29
Note ON: Time 444960, Note Name: C#5, Velocity: 39
Note OFF: Time 445440, Note Name: C#5
Note OFF: Time 445440, Note Name: C#4
Note ON: Time 445440, Note Name: F#5, Velocity: 37
Note ON: Time 445440, Note Name: F#4, Velocity: 29
Note OFF: Time 445920, Note Name: F#4
Note OFF: Time 445920, Note Name: F#5
Note ON: Time 445920, Note Name: C#5, Velocity: 33
Note ON: Time 445920, Note Name: G#4, Velocity: 26
Note ON: Time 445920, Note Name: C#4, Velocity: 21
Note OFF: Time 446400, Note Name: C#4
Note OFF: Time 446400, Note Name: G#4
Note OFF: Time 446400, Note Name: C#5
Note ON: Time 446400, Note Name: C#4, Velocity: 27
Note ON: Time 446400, Note Name: C#5, Velocity: 37
Note OFF: Time 446880, Note Name: C#5
Note OFF: Time 446880, Note Name: C#4
Note ON: Time 446880, Note Name: F#5, Velocity: 35
Note ON: Time 446880, Note Name: F#4, Velocity: 27
Note OFF: Time 447360, Note Name: F#4
Note OFF: Time 447360, Note Name: F#5
Note ON: Time 447360, Note Name: C#5, Velocity: 32
Note ON: Time 447360, Note Name: G#4, Velocity: 24
Note ON: Time 447360, Note Name: C#4, Velocity: 20
Note OFF: Time 447840, Note Name: C#4
Note OFF: Time 447840, Note Name: G#4
Note OFF: Time 447840, Note Name: C#5
Note ON: Time 447840, Note Name: C#4, Velocity: 27
Note ON: Time 447840, Note Name: C#5, Velocity: 35
Note OFF: Time 448320, Note Name: C#5
Note OFF: Time 448320, Note Name: C#4
Note ON: Time 448320, Note Name: F#5, Velocity: 33
Note ON: Time 448320, Note Name: F#4, Velocity: 27
Note OFF: Time 448800, Note Name: F#4
Note OFF: Time 448800, Note Name: F#5
Note ON: Time 448800, Note Name: C#5, Velocity: 30
Note ON: Time 448800, Note Name: G#4, Velocity: 23
Note ON: Time 448800, Note Name: C#4, Velocity: 19
Note OFF: Time 449280, Note Name: C#4
Note OFF: Time 449280, Note Name: G#4
Note OFF: Time 449280, Note Name: C#5
Note ON: Time 449280, Note Name: C#4, Velocity: 25
Note ON: Time 449280, Note Name: C#5, Velocity: 33
Note OFF: Time 449760, Note Name: C#5
Note OFF: Time 449760, Note Name: C#4
Note ON: Time 449760, Note Name: F#5, Velocity: 31
Note ON: Time 449760, Note Name: F#4, Velocity: 25
Note OFF: Time 450240, Note Name: F#4
Note OFF: Time 450240, Note Name: F#5
Note ON: Time 450240, Note Name: C#4, Velocity: 19
Note ON: Time 450240, Note Name: G#4, Velocity: 23
Note ON: Time 450240, Note Name: C#5, Velocity: 30
Note OFF: Time 450720, Note Name: C#5
Note OFF: Time 450720, Note Name: G#4
Note OFF: Time 450720, Note Name: C#4
Note ON: Time 451200, Note Name: A#3, Velocity: 23
Note OFF: Time 451680, Note Name: A#3
Note ON: Time 451680, Note Name: A#3, Velocity: 23
Note OFF: Time 452160, Note Name: A#3
Note ON: Time 452640, Note Name: A#3, Velocity: 17
Note ON: Time 452640, Note Name: F#4, Velocity: 22
Note OFF: Time 453120, Note Name: F#4
Note OFF: Time 453120, Note Name: A#3
Note ON: Time 453120, Note Name: A#3, Velocity: 17
Note ON: Time 453120, Note Name: F#4, Velocity: 22
Note OFF: Time 453600, Note Name: F#4
Note OFF: Time 453600, Note Name: A#3
Note ON: Time 454080, Note Name: B3, Velocity: 20
Note OFF: Time 454560, Note Name: B3
Note ON: Time 454560, Note Name: F4, Velocity: 23
Note ON: Time 454560, Note Name: B3, Velocity: 19
Note OFF: Time 455040, Note Name: B3
Note OFF: Time 455040, Note Name: F4
Note ON: Time 455520, Note Name: A#3, Velocity: 20
Note ON: Time 455520, Note Name: F#4, Velocity: 24
Note OFF: Time 456000, Note Name: F#4
Note OFF: Time 456000, Note Name: A#3
Note ON: Time 456000, Note Name: A#3, Velocity: 20
Note ON: Time 456000, Note Name: F#4, Velocity: 24
Note OFF: Time 456480, Note Name: F#4
Note OFF: Time 456480, Note Name: A#3
Note ON: Time 456480, Note Name: A#3, Velocity: 19
Note ON: Time 456480, Note Name: F#4, Velocity: 23
Note OFF: Time 456960, Note Name: F#4
Note OFF: Time 456960, Note Name: A#3
Note ON: Time 456960, Note Name: C#4, Velocity: 18
Note ON: Time 456960, Note Name: F#4, Velocity: 22
Note OFF: Time 457440, Note Name: F#4
Note OFF: Time 457440, Note Name: C#4
Note ON: Time 457440, Note Name: C#4, Velocity: 18
Note ON: Time 457440, Note Name: F#4, Velocity: 22
Note OFF: Time 457920, Note Name: F#4
Note OFF: Time 457920, Note Name: C#4
Note ON: Time 457920, Note Name: C#4, Velocity: 19
Note ON: Time 457920, Note Name: F#4, Velocity: 23
Note OFF: Time 458400, Note Name: F#4
Note OFF: Time 458400, Note Name: C#4
Note ON: Time 458400, Note Name: G#3, Velocity: 18
Note ON: Time 458400, Note Name: C#4, Velocity: 22
Note OFF: Time 458880, Note Name: C#4
Note OFF: Time 458880, Note Name: G#3
Note ON: Time 458880, Note Name: F#3, Velocity: 18
Note ON: Time 458880, Note Name: C#4, Velocity: 22
Note OFF: Time 459360, Note Name: C#4
Note OFF: Time 459360, Note Name: F#3
Note ON: Time 459360, Note Name: F#3, Velocity: 19
Note ON: Time 459360, Note Name: C#4, Velocity: 23
Note OFF: Time 459840, Note Name: C#4
Note OFF: Time 459840, Note Name: F#3
Note ON: Time 459840, Note Name: G#3, Velocity: 18
Note ON: Time 459840, Note Name: C#4, Velocity: 22
Note OFF: Time 460320, Note Name: C#4
Note OFF: Time 460320, Note Name: G#3
Note ON: Time 460320, Note Name: F#3, Velocity: 18
Note ON: Time 460320, Note Name: C#4, Velocity: 22
Note OFF: Time 460800, Note Name: C#4
Note OFF: Time 460800, Note Name: F#3
Note ON: Time 460800, Note Name: F#3, Velocity: 19
Note ON: Time 460800, Note Name: C#4, Velocity: 23
Note OFF: Time 461280, Note Name: C#4
Note OFF: Time 461280, Note Name: F#3
Note ON: Time 461280, Note Name: G#3, Velocity: 18
Note ON: Time 461280, Note Name: C#4, Velocity: 22
Note OFF: Time 461760, Note Name: C#4
Note OFF: Time 461760, Note Name: G#3
Note ON: Time 461760, Note Name: F#3, Velocity: 19
Note ON: Time 461760, Note Name: C#4, Velocity: 23
Note OFF: Time 462240, Note Name: C#4
Note OFF: Time 462240, Note Name: F#3
Note ON: Time 462240, Note Name: F#3, Velocity: 19
Note ON: Time 462240, Note Name: C#4, Velocity: 23
Note OFF: Time 462720, Note Name: C#4
Note OFF: Time 462720, Note Name: F#3
Note ON: Time 465120, Note Name: F#3, Velocity: 23
Note ON: Time 465120, Note Name: C#4, Velocity: 23
Note ON: Time 465120, Note Name: F#4, Velocity: 23
Note ON: Time 465120, Note Name: A#4, Velocity: 23
Note OFF: Time 471360, Note Name: A#4
Note OFF: Time 471360, Note Name: F#3
Note OFF: Time 471360, Note Name: C#4
Note OFF: Time 471360, Note Name: F#4
Track 3: Piano left
Note ON: Time 960, Note Name: A#1, Velocity: 40
Note ON: Time 960, Note Name: A#2, Velocity: 47
Note OFF: Time 1440, Note Name: A#2
Note OFF: Time 1440, Note Name: A#1
Note ON: Time 1440, Note Name: D#1, Velocity: 36
Note ON: Time 1440, Note Name: D#2, Velocity: 42
Note OFF: Time 1920, Note Name: D#2
Note OFF: Time 1920, Note Name: D#1
Note ON: Time 1920, Note Name: E1, Velocity: 36
Note ON: Time 1920, Note Name: E2, Velocity: 42
Note OFF: Time 2010, Note Name: E2
Note OFF: Time 2010, Note Name: E1
Note ON: Time 2160, Note Name: F1, Velocity: 36
Note ON: Time 2160, Note Name: F2, Velocity: 45
Note OFF: Time 2250, Note Name: F2
Note OFF: Time 2250, Note Name: F1
Note ON: Time 2400, Note Name: F#1, Velocity: 42
Note ON: Time 2400, Note Name: F#2, Velocity: 50
Note OFF: Time 2880, Note Name: F#2
Note OFF: Time 2880, Note Name: F#1
Note ON: Time 2880, Note Name: G#1, Velocity: 50
Note ON: Time 2880, Note Name: G#2, Velocity: 59
Note OFF: Time 3270, Note Name: G#2
Note OFF: Time 3270, Note Name: G#1
Note ON: Time 3270, Note Name: G#2, Velocity: 37
Note ON: Time 3300, Note Name: D#3, Velocity: 37
Note ON: Time 3330, Note Name: F3, Velocity: 37
Note ON: Time 3360, Note Name: B3, Velocity: 46
Note OFF: Time 3750, Note Name: B3
Note OFF: Time 3750, Note Name: G#2
Note OFF: Time 3750, Note Name: D#3
Note OFF: Time 3750, Note Name: F3
Note ON: Time 3750, Note Name: A#2, Velocity: 37
Note ON: Time 3780, Note Name: F3, Velocity: 37
Note ON: Time 3810, Note Name: G#3, Velocity: 37
Note ON: Time 3840, Note Name: D4, Velocity: 46
Note OFF: Time 4293, Note Name: G#3
Note OFF: Time 4320, Note Name: A#2
Note OFF: Time 4320, Note Name: F3
Note OFF: Time 4320, Note Name: D4
Note ON: Time 4320, Note Name: F#1, Velocity: 38
Note ON: Time 4320, Note Name: F#2, Velocity: 44
Note OFF: Time 4800, Note Name: F#2
Note OFF: Time 4800, Note Name: F#1
Note ON: Time 4800, Note Name: G1, Velocity: 38
Note ON: Time 4800, Note Name: G2, Velocity: 44
Note OFF: Time 4890, Note Name: G2
Note OFF: Time 4890, Note Name: G1
Note ON: Time 5040, Note Name: G#1, Velocity: 35
Note ON: Time 5040, Note Name: G#2, Velocity: 43
Note OFF: Time 5130, Note Name: G#2
Note OFF: Time 5130, Note Name: G#1
Note ON: Time 5280, Note Name: A1, Velocity: 43
Note ON: Time 5280, Note Name: A2, Velocity: 51
Note OFF: Time 5760, Note Name: A2
Note OFF: Time 5760, Note Name: A1
Note ON: Time 5760, Note Name: B1, Velocity: 53
Note ON: Time 5760, Note Name: B2, Velocity: 63
Note OFF: Time 6150, Note Name: B2
Note OFF: Time 6150, Note Name: B1
Note ON: Time 6150, Note Name: C3, Velocity: 39
Note ON: Time 6180, Note Name: F#3, Velocity: 39
Note ON: Time 6210, Note Name: G#3, Velocity: 39
Note ON: Time 6240, Note Name: D4, Velocity: 48
Note OFF: Time 6630, Note Name: D4
Note OFF: Time 6630, Note Name: C3
Note OFF: Time 6630, Note Name: F#3
Note OFF: Time 6630, Note Name: G#3
Note ON: Time 6630, Note Name: C#3, Velocity: 39
Note ON: Time 6660, Note Name: G#3, Velocity: 39
Note ON: Time 6690, Note Name: B3, Velocity: 39
Note ON: Time 6720, Note Name: F4, Velocity: 48
Note OFF: Time 7200, Note Name: F4
Note OFF: Time 7200, Note Name: C#3
Note OFF: Time 7200, Note Name: G#3
Note OFF: Time 7200, Note Name: B3
Note ON: Time 7200, Note Name: A1, Velocity: 36
Note ON: Time 7200, Note Name: A2, Velocity: 42
Note OFF: Time 7680, Note Name: A2
Note OFF: Time 7680, Note Name: A1
Note ON: Time 7680, Note Name: B1, Velocity: 36
Note ON: Time 7680, Note Name: B2, Velocity: 42
Note OFF: Time 7770, Note Name: B2
Note OFF: Time 7770, Note Name: B1
Note ON: Time 7920, Note Name: C2, Velocity: 37
Note ON: Time 7920, Note Name: C3, Velocity: 45
Note OFF: Time 8010, Note Name: C3
Note OFF: Time 8010, Note Name: C2
Note ON: Time 8160, Note Name: C#2, Velocity: 46
Note ON: Time 8160, Note Name: C#3, Velocity: 54
Note OFF: Time 8640, Note Name: C#3
Note OFF: Time 8640, Note Name: C#2
Note ON: Time 8640, Note Name: D2, Velocity: 40
Note ON: Time 8640, Note Name: D3, Velocity: 47
Note OFF: Time 9120, Note Name: D3
Note OFF: Time 9120, Note Name: D2
Note ON: Time 9120, Note Name: D#2, Velocity: 38
Note ON: Time 9120, Note Name: D#3, Velocity: 44
Note OFF: Time 9210, Note Name: D#3
Note OFF: Time 9210, Note Name: D#2
Note ON: Time 9360, Note Name: E2, Velocity: 37
Note ON: Time 9360, Note Name: E3, Velocity: 45
Note OFF: Time 9450, Note Name: E3
Note OFF: Time 9450, Note Name: E2
Note ON: Time 9600, Note Name: F2, Velocity: 45
Note ON: Time 9600, Note Name: F3, Velocity: 53
Note OFF: Time 10080, Note Name: F3
Note OFF: Time 10080, Note Name: F2
Note ON: Time 10080, Note Name: F#2, Velocity: 40
Note ON: Time 10080, Note Name: F#3, Velocity: 47
Note OFF: Time 10560, Note Name: F#3
Note OFF: Time 10560, Note Name: F#2
Note ON: Time 10560, Note Name: G#2, Velocity: 38
Note ON: Time 10560, Note Name: G#3, Velocity: 44
Note OFF: Time 10650, Note Name: G#3
Note OFF: Time 10650, Note Name: G#2
Note ON: Time 10800, Note Name: A2, Velocity: 37
Note ON: Time 10800, Note Name: A3, Velocity: 45
Note OFF: Time 10890, Note Name: A3
Note OFF: Time 10890, Note Name: A2
Note ON: Time 11040, Note Name: A#2, Velocity: 47
Note ON: Time 11040, Note Name: A#3, Velocity: 56
Note OFF: Time 11520, Note Name: A#3
Note OFF: Time 11520, Note Name: A#2
Note ON: Time 11520, Note Name: B2, Velocity: 48
Note ON: Time 11520, Note Name: B3, Velocity: 57
Note OFF: Time 12000, Note Name: B3
Note OFF: Time 12000, Note Name: B2
Note ON: Time 12000, Note Name: B1, Velocity: 43
Note ON: Time 12000, Note Name: B2, Velocity: 52
Note OFF: Time 12480, Note Name: B2
Note OFF: Time 12480, Note Name: B1
Note ON: Time 12480, Note Name: C2, Velocity: 43
Note ON: Time 12480, Note Name: C3, Velocity: 52
Note OFF: Time 12960, Note Name: C3
Note OFF: Time 12960, Note Name: C2
Note ON: Time 12960, Note Name: C#2, Velocity: 50
Note ON: Time 12960, Note Name: C#3, Velocity: 60
Note OFF: Time 13440, Note Name: C#3
Note OFF: Time 13440, Note Name: C#2
Note ON: Time 13440, Note Name: C#3, Velocity: 48
Note ON: Time 13440, Note Name: A#3, Velocity: 57
Note OFF: Time 13920, Note Name: A#3
Note OFF: Time 13920, Note Name: C#3
Note ON: Time 13920, Note Name: C#4, Velocity: 57
Note ON: Time 13920, Note Name: F#3, Velocity: 48
Note OFF: Time 14400, Note Name: F#3
Note OFF: Time 14400, Note Name: C#4
Note ON: Time 14400, Note Name: A#3, Velocity: 42
Note ON: Time 14400, Note Name: F#4, Velocity: 60
Note OFF: Time 14880, Note Name: F#4
Note OFF: Time 14880, Note Name: A#3
Note ON: Time 14880, Note Name: C#4, Velocity: 40
Note ON: Time 14880, Note Name: A#4, Velocity: 57
Note OFF: Time 15360, Note Name: A#4
Note OFF: Time 15360, Note Name: C#4
Note ON: Time 15360, Note Name: C#5, Velocity: 57
Note ON: Time 15360, Note Name: F#4, Velocity: 40
Note OFF: Time 15840, Note Name: F#4
Note OFF: Time 15840, Note Name: C#5
Note ON: Time 15840, Note Name: A#4, Velocity: 48
Note ON: Time 15840, Note Name: F#5, Velocity: 57
Note OFF: Time 16320, Note Name: F#5
Note OFF: Time 16320, Note Name: A#4
Note ON: Time 16320, Note Name: B4, Velocity: 46
Note ON: Time 16320, Note Name: F5, Velocity: 51
Note OFF: Time 16800, Note Name: F5
Note OFF: Time 16800, Note Name: B4
Note ON: Time 16800, Note Name: C#4, Velocity: 42
Note ON: Time 16800, Note Name: F4, Velocity: 42
Note ON: Time 16800, Note Name: B4, Velocity: 51
Note OFF: Time 17280, Note Name: B4
Note OFF: Time 17280, Note Name: F4
Note OFF: Time 17280, Note Name: C#4
Note ON: Time 17280, Note Name: C#4, Velocity: 46
Note ON: Time 17280, Note Name: F4, Velocity: 46
Note ON: Time 17280, Note Name: B4, Velocity: 52
Note OFF: Time 17760, Note Name: B4
Note OFF: Time 17760, Note Name: F4
Note ON: Time 17760, Note Name: F#3, Velocity: 38
Note ON: Time 17760, Note Name: A#4, Velocity: 47
Note OFF: Time 18240, Note Name: A#4
Note OFF: Time 18240, Note Name: F#3
Note OFF: Time 18240, Note Name: C#4
Note ON: Time 18240, Note Name: C#3, Velocity: 28
Note ON: Time 18240, Note Name: F3, Velocity: 33
Note ON: Time 18240, Note Name: B3, Velocity: 38
Note OFF: Time 18720, Note Name: B3
Note OFF: Time 18720, Note Name: F3
Note OFF: Time 18720, Note Name: C#3
Note ON: Time 18720, Note Name: C#3, Velocity: 31
Note ON: Time 18720, Note Name: F3, Velocity: 34
Note ON: Time 18720, Note Name: B3, Velocity: 42
Note OFF: Time 19200, Note Name: B3
Note OFF: Time 19200, Note Name: F3
Note ON: Time 19200, Note Name: F#2, Velocity: 32
Note ON: Time 19200, Note Name: A#3, Velocity: 38
Note OFF: Time 19680, Note Name: A#3
Note OFF: Time 19680, Note Name: F#2
Note OFF: Time 19680, Note Name: C#3
Note ON: Time 19680, Note Name: C#3, Velocity: 29
Note ON: Time 19680, Note Name: F3, Velocity: 31
Note ON: Time 19680, Note Name: B3, Velocity: 36
Note OFF: Time 20160, Note Name: B3
Note OFF: Time 20160, Note Name: F3
Note OFF: Time 20160, Note Name: C#3
Note ON: Time 20160, Note Name: C#3, Velocity: 30
Note ON: Time 20160, Note Name: F3, Velocity: 34
Note ON: Time 20160, Note Name: B3, Velocity: 38
Note OFF: Time 20640, Note Name: B3
Note OFF: Time 20640, Note Name: F3
Note ON: Time 20640, Note Name: F#2, Velocity: 32
Note ON: Time 20640, Note Name: A#3, Velocity: 38
Note OFF: Time 21120, Note Name: A#3
Note OFF: Time 21120, Note Name: F#2
Note OFF: Time 21120, Note Name: C#3
Note ON: Time 24480, Note Name: G#2, Velocity: 36
Note ON: Time 24480, Note Name: G#3, Velocity: 43
Note OFF: Time 24960, Note Name: G#3
Note OFF: Time 24960, Note Name: G#2
Note ON: Time 24960, Note Name: F#2, Velocity: 30
Note ON: Time 24960, Note Name: F#3, Velocity: 37
Note OFF: Time 25440, Note Name: F#3
Note OFF: Time 25440, Note Name: F#2
Note ON: Time 25440, Note Name: D#2, Velocity: 30
Note ON: Time 25440, Note Name: D#3, Velocity: 37
Note OFF: Time 25920, Note Name: D#3
Note OFF: Time 25920, Note Name: D#2
Note ON: Time 25920, Note Name: F#2, Velocity: 36
Note ON: Time 25920, Note Name: F#3, Velocity: 43
Note OFF: Time 26400, Note Name: F#3
Note OFF: Time 26400, Note Name: F#2
Note ON: Time 26400, Note Name: F2, Velocity: 30
Note ON: Time 26400, Note Name: F3, Velocity: 37
Note OFF: Time 26880, Note Name: F3
Note OFF: Time 26880, Note Name: F2
Note ON: Time 26880, Note Name: C#2, Velocity: 30
Note ON: Time 26880, Note Name: C#3, Velocity: 37
Note OFF: Time 27360, Note Name: C#3
Note OFF: Time 27360, Note Name: C#2
Note ON: Time 27360, Note Name: D#2, Velocity: 36
Note ON: Time 27360, Note Name: D#3, Velocity: 43
Note OFF: Time 27840, Note Name: D#3
Note OFF: Time 27840, Note Name: D#2
Note ON: Time 27840, Note Name: C#2, Velocity: 30
Note ON: Time 27840, Note Name: C#3, Velocity: 37
Note OFF: Time 28320, Note Name: C#3
Note OFF: Time 28320, Note Name: C#2
Note ON: Time 28320, Note Name: A#1, Velocity: 30
Note ON: Time 28320, Note Name: A#2, Velocity: 37
Note OFF: Time 28800, Note Name: A#2
Note OFF: Time 28800, Note Name: A#1
Note ON: Time 28800, Note Name: B1, Velocity: 32
Note ON: Time 28800, Note Name: B2, Velocity: 39
Note OFF: Time 29280, Note Name: B2
Note OFF: Time 29280, Note Name: B1
Note ON: Time 29280, Note Name: A#1, Velocity: 29
Note ON: Time 29280, Note Name: A#2, Velocity: 35
Note OFF: Time 29760, Note Name: A#2
Note OFF: Time 29760, Note Name: A#1
Note ON: Time 29760, Note Name: F#1, Velocity: 29
Note ON: Time 29760, Note Name: F#2, Velocity: 35
Note OFF: Time 30240, Note Name: F#2
Note OFF: Time 30240, Note Name: F#1
Note ON: Time 30240, Note Name: D#1, Velocity: 40
Note ON: Time 30240, Note Name: D#2, Velocity: 47
Note OFF: Time 30720, Note Name: D#2
Note OFF: Time 30720, Note Name: D#1
Note ON: Time 30720, Note Name: E1, Velocity: 38
Note ON: Time 30720, Note Name: E2, Velocity: 44
Note OFF: Time 30810, Note Name: E2
Note OFF: Time 30810, Note Name: E1
Note ON: Time 30960, Note Name: F1, Velocity: 38
Note ON: Time 30960, Note Name: F2, Velocity: 47
Note OFF: Time 31050, Note Name: F2
Note OFF: Time 31050, Note Name: F1
Note ON: Time 31200, Note Name: F#1, Velocity: 47
Note ON: Time 31200, Note Name: F#2, Velocity: 56
Note OFF: Time 31680, Note Name: F#2
Note OFF: Time 31680, Note Name: F#1
Note ON: Time 31680, Note Name: G#1, Velocity: 56
Note ON: Time 31680, Note Name: G#2, Velocity: 67
Note OFF: Time 32160, Note Name: G#2
Note OFF: Time 32160, Note Name: G#1
Note ON: Time 32160, Note Name: G#2, Velocity: 43
Note ON: Time 32160, Note Name: D#3, Velocity: 43
Note ON: Time 32160, Note Name: F3, Velocity: 43
Note ON: Time 32160, Note Name: B3, Velocity: 51
Note OFF: Time 32640, Note Name: B3
Note OFF: Time 32640, Note Name: G#2
Note OFF: Time 32640, Note Name: D#3
Note OFF: Time 32640, Note Name: F3
Note ON: Time 32640, Note Name: A#2, Velocity: 43
Note ON: Time 32640, Note Name: F3, Velocity: 43
Note ON: Time 32640, Note Name: G#3, Velocity: 43
Note ON: Time 32640, Note Name: D4, Velocity: 51
Note OFF: Time 33120, Note Name: D4
Note OFF: Time 33120, Note Name: A#2
Note OFF: Time 33120, Note Name: F3
Note OFF: Time 33120, Note Name: G#3
Note ON: Time 33120, Note Name: F#1, Velocity: 40
Note ON: Time 33120, Note Name: F#2, Velocity: 47
Note OFF: Time 33600, Note Name: F#2
Note OFF: Time 33600, Note Name: F#1
Note ON: Time 33600, Note Name: G1, Velocity: 38
Note ON: Time 33600, Note Name: G2, Velocity: 44
Note OFF: Time 33690, Note Name: G2
Note OFF: Time 33690, Note Name: G1
Note ON: Time 33840, Note Name: G#1, Velocity: 35
Note ON: Time 33840, Note Name: G#2, Velocity: 43
Note OFF: Time 33930, Note Name: G#2
Note OFF: Time 33930, Note Name: G#1
Note ON: Time 34080, Note Name: A1, Velocity: 46
Note ON: Time 34080, Note Name: A2, Velocity: 54
Note OFF: Time 34560, Note Name: A2
Note OFF: Time 34560, Note Name: A1
Note ON: Time 34560, Note Name: B1, Velocity: 56
Note ON: Time 34560, Note Name: B2, Velocity: 67
Note OFF: Time 35040, Note Name: B2
Note OFF: Time 35040, Note Name: B1
Note ON: Time 35040, Note Name: C3, Velocity: 43
Note ON: Time 35040, Note Name: F#3, Velocity: 43
Note ON: Time 35040, Note Name: G#3, Velocity: 43
Note ON: Time 35040, Note Name: D4, Velocity: 51
Note OFF: Time 35520, Note Name: D4
Note OFF: Time 35520, Note Name: C3
Note OFF: Time 35520, Note Name: F#3
Note OFF: Time 35520, Note Name: G#3
Note ON: Time 35520, Note Name: C#3, Velocity: 43
Note ON: Time 35520, Note Name: G#3, Velocity: 43
Note ON: Time 35520, Note Name: B3, Velocity: 43
Note ON: Time 35520, Note Name: F4, Velocity: 51
Note OFF: Time 36000, Note Name: F4
Note OFF: Time 36000, Note Name: C#3
Note OFF: Time 36000, Note Name: G#3
Note OFF: Time 36000, Note Name: B3
Note ON: Time 36000, Note Name: A1, Velocity: 36
Note ON: Time 36000, Note Name: A2, Velocity: 42
Note OFF: Time 36480, Note Name: A2
Note OFF: Time 36480, Note Name: A1
Note ON: Time 36480, Note Name: B1, Velocity: 36
Note ON: Time 36480, Note Name: B2, Velocity: 42
Note OFF: Time 36570, Note Name: B2
Note OFF: Time 36570, Note Name: B1
Note ON: Time 36720, Note Name: C2, Velocity: 37
Note ON: Time 36720, Note Name: C3, Velocity: 45
Note OFF: Time 36810, Note Name: C3
Note OFF: Time 36810, Note Name: C2
Note ON: Time 36960, Note Name: C#2, Velocity: 46
Note ON: Time 36960, Note Name: C#3, Velocity: 54
Note OFF: Time 37440, Note Name: C#3
Note OFF: Time 37440, Note Name: C#2
Note ON: Time 37440, Note Name: D2, Velocity: 40
Note ON: Time 37440, Note Name: D3, Velocity: 47
Note OFF: Time 37920, Note Name: D3
Note OFF: Time 37920, Note Name: D2
Note ON: Time 37920, Note Name: D#2, Velocity: 40
Note ON: Time 37920, Note Name: D#3, Velocity: 47
Note OFF: Time 38010, Note Name: D#3
Note OFF: Time 38010, Note Name: D#2
Note ON: Time 38160, Note Name: E2, Velocity: 39
Note ON: Time 38160, Note Name: E3, Velocity: 48
Note OFF: Time 38250, Note Name: E3
Note OFF: Time 38250, Note Name: E2
Note ON: Time 38400, Note Name: F2, Velocity: 45
Note ON: Time 38400, Note Name: F3, Velocity: 53
Note OFF: Time 38880, Note Name: F3
Note OFF: Time 38880, Note Name: F2
Note ON: Time 38880, Note Name: F#2, Velocity: 42
Note ON: Time 38880, Note Name: F#3, Velocity: 49
Note OFF: Time 39360, Note Name: F#3
Note OFF: Time 39360, Note Name: F#2
Note ON: Time 39360, Note Name: G2, Velocity: 42
Note ON: Time 39360, Note Name: G3, Velocity: 49
Note OFF: Time 39450, Note Name: G3
Note OFF: Time 39450, Note Name: G2
Note ON: Time 39600, Note Name: G#2, Velocity: 40
Note ON: Time 39600, Note Name: G#3, Velocity: 50
Note OFF: Time 39690, Note Name: G#3
Note OFF: Time 39690, Note Name: G#2
Note ON: Time 39840, Note Name: A2, Velocity: 49
Note ON: Time 39840, Note Name: A3, Velocity: 58
Note OFF: Time 40320, Note Name: A3
Note OFF: Time 40320, Note Name: A2
Note ON: Time 40320, Note Name: F#3, Velocity: 50
Note ON: Time 40320, Note Name: C3, Velocity: 50
Note ON: Time 40320, Note Name: C4, Velocity: 59
Note OFF: Time 40800, Note Name: C4
Note OFF: Time 40800, Note Name: C3
Note OFF: Time 40800, Note Name: F#3
Note ON: Time 40800, Note Name: G3, Velocity: 45
Note ON: Time 40800, Note Name: B2, Velocity: 45
Note ON: Time 40800, Note Name: B3, Velocity: 54
Note OFF: Time 41280, Note Name: B3
Note OFF: Time 41280, Note Name: B2
Note OFF: Time 41280, Note Name: G3
Note ON: Time 41280, Note Name: D1, Velocity: 49
Note ON: Time 41280, Note Name: D2, Velocity: 59
Note OFF: Time 41760, Note Name: D2
Note OFF: Time 41760, Note Name: D1
Note ON: Time 41760, Note Name: C#3, Velocity: 61
Note ON: Time 41760, Note Name: C#1, Velocity: 50
Note ON: Time 41760, Note Name: C#2, Velocity: 60
Note OFF: Time 42000, Note Name: C#3
Note OFF: Time 42240, Note Name: C#2
Note OFF: Time 42240, Note Name: C#1
Note ON: Time 42240, Note Name: C#3, Velocity: 48
Note ON: Time 42240, Note Name: A3, Velocity: 57
Note OFF: Time 42720, Note Name: A3
Note OFF: Time 42720, Note Name: C#3
Note ON: Time 42720, Note Name: C#4, Velocity: 57
Note ON: Time 42720, Note Name: F#3, Velocity: 48
Note OFF: Time 43200, Note Name: F#3
Note OFF: Time 43200, Note Name: C#4
Note ON: Time 43200, Note Name: A3, Velocity: 42
Note ON: Time 43200, Note Name: F#4, Velocity: 60
Note OFF: Time 43680, Note Name: F#4
Note OFF: Time 43680, Note Name: A3
Note ON: Time 43680, Note Name: C#4, Velocity: 40
Note ON: Time 43680, Note Name: A4, Velocity: 57
Note OFF: Time 44160, Note Name: A4
Note OFF: Time 44160, Note Name: C#4
Note ON: Time 44160, Note Name: C#5, Velocity: 57
Note ON: Time 44160, Note Name: F#4, Velocity: 40
Note OFF: Time 44640, Note Name: F#4
Note OFF: Time 44640, Note Name: C#5
Note ON: Time 44640, Note Name: A4, Velocity: 48
Note ON: Time 44640, Note Name: F#5, Velocity: 57
Note OFF: Time 45120, Note Name: F#5
Note OFF: Time 45120, Note Name: A4
Note ON: Time 45120, Note Name: B4, Velocity: 46
Note ON: Time 45120, Note Name: F5, Velocity: 54
Note OFF: Time 45600, Note Name: F5
Note OFF: Time 45600, Note Name: B4
Note ON: Time 45600, Note Name: C#4, Velocity: 42
Note ON: Time 45600, Note Name: F4, Velocity: 42
Note ON: Time 45600, Note Name: B4, Velocity: 51
Note OFF: Time 46080, Note Name: B4
Note OFF: Time 46080, Note Name: F4
Note OFF: Time 46080, Note Name: C#4
Note ON: Time 46080, Note Name: C#4, Velocity: 46
Note ON: Time 46080, Note Name: F4, Velocity: 46
Note ON: Time 46080, Note Name: B4, Velocity: 54
Note OFF: Time 46560, Note Name: B4
Note OFF: Time 46560, Note Name: F4
Note ON: Time 46560, Note Name: F#3, Velocity: 38
Note ON: Time 46560, Note Name: A4, Velocity: 47
Note OFF: Time 47040, Note Name: A4
Note OFF: Time 47040, Note Name: F#3
Note OFF: Time 47040, Note Name: C#4
Note ON: Time 47040, Note Name: C#3, Velocity: 28
Note ON: Time 47040, Note Name: F3, Velocity: 33
Note ON: Time 47040, Note Name: B3, Velocity: 38
Note OFF: Time 47520, Note Name: B3
Note OFF: Time 47520, Note Name: F3
Note OFF: Time 47520, Note Name: C#3
Note ON: Time 47520, Note Name: C#3, Velocity: 30
Note ON: Time 47520, Note Name: F3, Velocity: 36
Note ON: Time 47520, Note Name: B3, Velocity: 42
Note OFF: Time 48000, Note Name: B3
Note OFF: Time 48000, Note Name: F3
Note ON: Time 48000, Note Name: F#2, Velocity: 32
Note ON: Time 48000, Note Name: A3, Velocity: 38
Note OFF: Time 48480, Note Name: A3
Note OFF: Time 48480, Note Name: F#2
Note OFF: Time 48480, Note Name: C#3
Note ON: Time 48480, Note Name: C#3, Velocity: 26
Note ON: Time 48480, Note Name: F3, Velocity: 31
Note ON: Time 48480, Note Name: B3, Velocity: 36
Note OFF: Time 48960, Note Name: B3
Note OFF: Time 48960, Note Name: F3
Note OFF: Time 48960, Note Name: C#3
Note ON: Time 48960, Note Name: C#3, Velocity: 29
Note ON: Time 48960, Note Name: F3, Velocity: 34
Note ON: Time 48960, Note Name: B3, Velocity: 38
Note OFF: Time 49440, Note Name: B3
Note OFF: Time 49440, Note Name: F3
Note ON: Time 49440, Note Name: F#2, Velocity: 30
Note ON: Time 49440, Note Name: A3, Velocity: 37
Note OFF: Time 49920, Note Name: A3
Note OFF: Time 49920, Note Name: F#2
Note OFF: Time 49920, Note Name: C#3
Note ON: Time 49920, Note Name: C#2, Velocity: 57
Note ON: Time 49920, Note Name: C#3, Velocity: 69
Note OFF: Time 50880, Note Name: C#3
Note OFF: Time 50880, Note Name: C#2
Note ON: Time 50880, Note Name: D2, Velocity: 52
Note ON: Time 50880, Note Name: D3, Velocity: 63
Note OFF: Time 51120, Note Name: D3
Note OFF: Time 51120, Note Name: D2
Note ON: Time 51120, Note Name: C#2, Velocity: 48
Note ON: Time 51120, Note Name: C#3, Velocity: 57
Note OFF: Time 51360, Note Name: C#3
Note OFF: Time 51360, Note Name: C#2
Note ON: Time 51360, Note Name: G#1, Velocity: 53
Note ON: Time 51360, Note Name: G#2, Velocity: 64
Note OFF: Time 51600, Note Name: G#2
Note OFF: Time 51600, Note Name: G#1
Note ON: Time 51600, Note Name: A1, Velocity: 47
Note ON: Time 51600, Note Name: A2, Velocity: 55
Note OFF: Time 51840, Note Name: A2
Note OFF: Time 51840, Note Name: A1
Note ON: Time 51840, Note Name: F#1, Velocity: 52
Note ON: Time 51840, Note Name: F#2, Velocity: 63
Note OFF: Time 53280, Note Name: F#2
Note OFF: Time 53280, Note Name: F#1
Note ON: Time 53280, Note Name: D1, Velocity: 72
Note ON: Time 53280, Note Name: D2, Velocity: 72
Note OFF: Time 53760, Note Name: D2
Note OFF: Time 53760, Note Name: D1
Note ON: Time 53760, Note Name: F#3, Velocity: 38
Note OFF: Time 54000, Note Name: F#3
Note ON: Time 54000, Note Name: F#3, Velocity: 39
Note OFF: Time 54240, Note Name: F#3
Note ON: Time 54240, Note Name: F3, Velocity: 40
Note OFF: Time 54480, Note Name: F3
Note ON: Time 54480, Note Name: F#3, Velocity: 42
Note OFF: Time 54720, Note Name: F#3
Note ON: Time 54720, Note Name: G3, Velocity: 43
Note OFF: Time 54960, Note Name: G3
Note ON: Time 54960, Note Name: G#3, Velocity: 45
Note OFF: Time 55200, Note Name: G#3
Note ON: Time 55200, Note Name: A3, Velocity: 46
Note OFF: Time 55440, Note Name: A3
Note ON: Time 55440, Note Name: A#3, Velocity: 47
Note OFF: Time 55680, Note Name: A#3
Note ON: Time 55680, Note Name: B3, Velocity: 49
Note OFF: Time 55920, Note Name: B3
Note ON: Time 55920, Note Name: C4, Velocity: 50
Note OFF: Time 56160, Note Name: C4
Note ON: Time 56160, Note Name: C#4, Velocity: 51
Note OFF: Time 56400, Note Name: C#4
Note ON: Time 56400, Note Name: D4, Velocity: 53
Note OFF: Time 56640, Note Name: D4
Note ON: Time 56640, Note Name: D#4, Velocity: 55
Note OFF: Time 56880, Note Name: D#4
Note ON: Time 56880, Note Name: E4, Velocity: 55
Note OFF: Time 57120, Note Name: E4
Note ON: Time 57120, Note Name: F4, Velocity: 55
Note OFF: Time 57360, Note Name: F4
Note ON: Time 57360, Note Name: F#4, Velocity: 57
Note OFF: Time 57600, Note Name: F#4
Note ON: Time 57600, Note Name: F#4, Velocity: 58
Note OFF: Time 58080, Note Name: F#4
Note ON: Time 58080, Note Name: G4, Velocity: 64
Note OFF: Time 58560, Note Name: G4
Note ON: Time 58560, Note Name: G4, Velocity: 74
Note ON: Time 58560, Note Name: D#4, Velocity: 74
Note ON: Time 58560, Note Name: A#3, Velocity: 74
Note ON: Time 58560, Note Name: G3, Velocity: 74
Note OFF: Time 58800, Note Name: G3
Note OFF: Time 58800, Note Name: G4
Note OFF: Time 58800, Note Name: D#4
Note OFF: Time 58800, Note Name: A#3
Note ON: Time 59040, Note Name: D#2, Velocity: 79
Note ON: Time 59040, Note Name: D#3, Velocity: 79
Note OFF: Time 59520, Note Name: D#3
Note OFF: Time 59520, Note Name: D#2
Note ON: Time 59520, Note Name: G3, Velocity: 38
Note OFF: Time 59760, Note Name: G3
Note ON: Time 59760, Note Name: G3, Velocity: 39
Note OFF: Time 60000, Note Name: G3
Note ON: Time 60000, Note Name: F#3, Velocity: 40
Note OFF: Time 60240, Note Name: F#3
Note ON: Time 60240, Note Name: G3, Velocity: 42
Note OFF: Time 60480, Note Name: G3
Note ON: Time 60480, Note Name: G#3, Velocity: 43
Note OFF: Time 60720, Note Name: G#3
Note ON: Time 60720, Note Name: A3, Velocity: 45
Note OFF: Time 60960, Note Name: A3
Note ON: Time 60960, Note Name: A#3, Velocity: 46
Note OFF: Time 61200, Note Name: A#3
Note ON: Time 61200, Note Name: B3, Velocity: 47
Note OFF: Time 61440, Note Name: B3
Note ON: Time 61440, Note Name: C4, Velocity: 49
Note OFF: Time 61680, Note Name: C4
Note ON: Time 61680, Note Name: C#4, Velocity: 50
Note OFF: Time 61920, Note Name: C#4
Note ON: Time 61920, Note Name: D4, Velocity: 51
Note OFF: Time 62160, Note Name: D4
Note ON: Time 62160, Note Name: D#4, Velocity: 53
Note OFF: Time 62400, Note Name: D#4
Note ON: Time 62400, Note Name: E4, Velocity: 55
Note OFF: Time 62640, Note Name: E4
Note ON: Time 62640, Note Name: F4, Velocity: 55
Note OFF: Time 62880, Note Name: F4
Note ON: Time 62880, Note Name: F#4, Velocity: 55
Note OFF: Time 63120, Note Name: F#4
Note ON: Time 63120, Note Name: G4, Velocity: 57
Note OFF: Time 63360, Note Name: G4
Note ON: Time 63360, Note Name: G4, Velocity: 58
Note OFF: Time 63840, Note Name: G4
Note ON: Time 63840, Note Name: G#4, Velocity: 64
Note OFF: Time 64320, Note Name: G#4
Note ON: Time 64320, Note Name: G#4, Velocity: 74
Note ON: Time 64320, Note Name: E4, Velocity: 74
Note ON: Time 64320, Note Name: B3, Velocity: 74
Note ON: Time 64320, Note Name: G#3, Velocity: 74
Note OFF: Time 64560, Note Name: G#3
Note OFF: Time 64560, Note Name: G#4
Note OFF: Time 64560, Note Name: E4
Note OFF: Time 64560, Note Name: B3
Note ON: Time 64800, Note Name: E2, Velocity: 79
Note ON: Time 64800, Note Name: E3, Velocity: 79
Note OFF: Time 65280, Note Name: E3
Note OFF: Time 65280, Note Name: E2
Note ON: Time 65280, Note Name: G#3, Velocity: 50
Note ON: Time 65280, Note Name: B3, Velocity: 59
Note OFF: Time 65520, Note Name: B3
Note OFF: Time 65520, Note Name: G#3
Note ON: Time 65520, Note Name: G#3, Velocity: 49
Note ON: Time 65520, Note Name: B3, Velocity: 58
Note OFF: Time 65760, Note Name: B3
Note OFF: Time 65760, Note Name: G#3
Note ON: Time 65760, Note Name: G3, Velocity: 46
Note ON: Time 65760, Note Name: A#3, Velocity: 54
Note OFF: Time 66000, Note Name: A#3
Note OFF: Time 66000, Note Name: G3
Note ON: Time 66000, Note Name: G#3, Velocity: 46
Note ON: Time 66000, Note Name: B3, Velocity: 54
Note OFF: Time 66240, Note Name: B3
Note OFF: Time 66240, Note Name: G#3
Note ON: Time 66240, Note Name: A3, Velocity: 49
Note ON: Time 66240, Note Name: C4, Velocity: 58
Note OFF: Time 66480, Note Name: C4
Note OFF: Time 66480, Note Name: A3
Note ON: Time 66480, Note Name: A#3, Velocity: 49
Note ON: Time 66480, Note Name: C#4, Velocity: 58
Note OFF: Time 66720, Note Name: C#4
Note OFF: Time 66720, Note Name: A#3
Note ON: Time 66720, Note Name: B3, Velocity: 49
Note ON: Time 66720, Note Name: D4, Velocity: 58
Note OFF: Time 66840, Note Name: D4
Note OFF: Time 66840, Note Name: B3
Note ON: Time 66960, Note Name: B3, Velocity: 45
Note ON: Time 66960, Note Name: D4, Velocity: 53
Note OFF: Time 67080, Note Name: D4
Note OFF: Time 67080, Note Name: B3
Note ON: Time 67200, Note Name: B3, Velocity: 45
Note ON: Time 67200, Note Name: D4, Velocity: 53
Note OFF: Time 67320, Note Name: D4
Note OFF: Time 67320, Note Name: B3
Note ON: Time 67440, Note Name: B3, Velocity: 46
Note ON: Time 67440, Note Name: D4, Velocity: 54
Note OFF: Time 67560, Note Name: D4
Note OFF: Time 67560, Note Name: B3
Note ON: Time 67680, Note Name: B3, Velocity: 49
Note ON: Time 67680, Note Name: D4, Velocity: 58
Note OFF: Time 67920, Note Name: D4
Note OFF: Time 67920, Note Name: B3
Note ON: Time 67920, Note Name: A#3, Velocity: 46
Note ON: Time 67920, Note Name: C#4, Velocity: 54
Note OFF: Time 68160, Note Name: C#4
Note OFF: Time 68160, Note Name: A#3
Note ON: Time 68160, Note Name: A#3, Velocity: 49
Note ON: Time 68160, Note Name: C#4, Velocity: 58
Note OFF: Time 68280, Note Name: C#4
Note OFF: Time 68280, Note Name: A#3
Note ON: Time 68400, Note Name: A#3, Velocity: 46
Note ON: Time 68400, Note Name: C#4, Velocity: 54
Note OFF: Time 68520, Note Name: C#4
Note OFF: Time 68520, Note Name: A#3
Note ON: Time 68640, Note Name: A3, Velocity: 46
Note ON: Time 68640, Note Name: C4, Velocity: 54
Note OFF: Time 68760, Note Name: C4
Note OFF: Time 68760, Note Name: A3
Note ON: Time 68880, Note Name: A#3, Velocity: 46
Note ON: Time 68880, Note Name: C#4, Velocity: 54
Note OFF: Time 69000, Note Name: C#4
Note OFF: Time 69000, Note Name: A#3
Note ON: Time 69120, Note Name: B3, Velocity: 49
Note ON: Time 69120, Note Name: D4, Velocity: 58
Note OFF: Time 69360, Note Name: D4
Note OFF: Time 69360, Note Name: B3
Note ON: Time 69360, Note Name: C4, Velocity: 46
Note ON: Time 69360, Note Name: D#4, Velocity: 54
Note OFF: Time 69600, Note Name: D#4
Note OFF: Time 69600, Note Name: C4
Note ON: Time 69600, Note Name: C#4, Velocity: 49
Note ON: Time 69600, Note Name: E4, Velocity: 58
Note OFF: Time 69720, Note Name: E4
Note OFF: Time 69720, Note Name: C#4
Note ON: Time 69840, Note Name: C#4, Velocity: 51
Note ON: Time 69840, Note Name: E4, Velocity: 60
Note OFF: Time 69960, Note Name: E4
Note OFF: Time 69960, Note Name: C#4
Note ON: Time 70080, Note Name: C#4, Velocity: 53
Note ON: Time 70080, Note Name: E4, Velocity: 63
Note OFF: Time 70200, Note Name: E4
Note OFF: Time 70200, Note Name: C#4
Note ON: Time 70320, Note Name: C#4, Velocity: 53
Note ON: Time 70320, Note Name: E4, Velocity: 64
Note OFF: Time 70440, Note Name: E4
Note OFF: Time 70440, Note Name: C#4
Note ON: Time 70560, Note Name: C#4, Velocity: 56
Note ON: Time 70560, Note Name: E4, Velocity: 67
Note OFF: Time 70800, Note Name: E4
Note OFF: Time 70800, Note Name: C#4
Note ON: Time 70800, Note Name: C4, Velocity: 50
Note ON: Time 70800, Note Name: D#4, Velocity: 59
Note OFF: Time 71040, Note Name: D#4
Note OFF: Time 71040, Note Name: C4
Note ON: Time 71040, Note Name: C4, Velocity: 50
Note ON: Time 71040, Note Name: D#4, Velocity: 59
Note OFF: Time 71160, Note Name: D#4
Note OFF: Time 71160, Note Name: C4
Note ON: Time 71280, Note Name: C4, Velocity: 52
Note ON: Time 71280, Note Name: D#4, Velocity: 61
Note OFF: Time 71400, Note Name: D#4
Note OFF: Time 71400, Note Name: C4
Note ON: Time 71520, Note Name: B3, Velocity: 53
Note ON: Time 71520, Note Name: D4, Velocity: 64
Note OFF: Time 71640, Note Name: D4
Note OFF: Time 71640, Note Name: B3
Note ON: Time 71760, Note Name: C4, Velocity: 54
Note ON: Time 71760, Note Name: D#4, Velocity: 65
Note OFF: Time 71880, Note Name: D#4
Note OFF: Time 71880, Note Name: C4
Note ON: Time 72000, Note Name: B3, Velocity: 56
Note ON: Time 72000, Note Name: F4, Velocity: 67
Note ON: Time 72000, Note Name: C#4, Velocity: 56
Note OFF: Time 72480, Note Name: C#4
Note OFF: Time 72480, Note Name: F4
Note OFF: Time 72480, Note Name: B3
Note ON: Time 72480, Note Name: C#2, Velocity: 49
Note ON: Time 72480, Note Name: C#3, Velocity: 59
Note OFF: Time 72960, Note Name: C#3
Note OFF: Time 72960, Note Name: C#2
Note ON: Time 72960, Note Name: F4, Velocity: 65
Note ON: Time 72960, Note Name: C#4, Velocity: 54
Note ON: Time 72960, Note Name: B3, Velocity: 54
Note OFF: Time 73440, Note Name: B3
Note OFF: Time 73440, Note Name: C#4
Note OFF: Time 73440, Note Name: F4
Note ON: Time 73440, Note Name: E4, Velocity: 67
Note ON: Time 73440, Note Name: C#4, Velocity: 56
Note ON: Time 73440, Note Name: B3, Velocity: 56
Note ON: Time 73440, Note Name: F#3, Velocity: 56
Note OFF: Time 73920, Note Name: F#3
Note OFF: Time 73920, Note Name: E4
Note OFF: Time 73920, Note Name: C#4
Note OFF: Time 73920, Note Name: B3
Note ON: Time 73920, Note Name: F#1, Velocity: 51
Note ON: Time 73920, Note Name: F#2, Velocity: 60
Note OFF: Time 74160, Note Name: F#2
Note OFF: Time 74160, Note Name: F#1
Note ON: Time 74400, Note Name: E4, Velocity: 61
Note ON: Time 74400, Note Name: C#4, Velocity: 52
Note ON: Time 74400, Note Name: A#3, Velocity: 52
Note ON: Time 74400, Note Name: F#3, Velocity: 52
Note OFF: Time 74880, Note Name: F#3
Note OFF: Time 74880, Note Name: E4
Note OFF: Time 74880, Note Name: C#4
Note OFF: Time 74880, Note Name: A#3
Note ON: Time 74880, Note Name: A3, Velocity: 54
Note ON: Time 74880, Note Name: D#4, Velocity: 63
Note ON: Time 74880, Note Name: B3, Velocity: 54
Note OFF: Time 75360, Note Name: B3
Note OFF: Time 75360, Note Name: D#4
Note OFF: Time 75360, Note Name: A3
Note ON: Time 75360, Note Name: B1, Velocity: 47
Note ON: Time 75360, Note Name: B2, Velocity: 57
Note OFF: Time 75840, Note Name: B2
Note OFF: Time 75840, Note Name: B1
Note ON: Time 75840, Note Name: D#4, Velocity: 61
Note ON: Time 75840, Note Name: B3, Velocity: 51
Note ON: Time 75840, Note Name: A3, Velocity: 51
Note OFF: Time 76320, Note Name: A3
Note OFF: Time 76320, Note Name: B3
Note OFF: Time 76320, Note Name: D#4
Note ON: Time 76320, Note Name: D4, Velocity: 67
Note ON: Time 76320, Note Name: B3, Velocity: 56
Note ON: Time 76320, Note Name: A3, Velocity: 56
Note ON: Time 76320, Note Name: E3, Velocity: 56
Note OFF: Time 76800, Note Name: E3
Note OFF: Time 76800, Note Name: D4
Note OFF: Time 76800, Note Name: B3
Note OFF: Time 76800, Note Name: A3
Note ON: Time 76800, Note Name: E1, Velocity: 51
Note ON: Time 76800, Note Name: E2, Velocity: 60
Note OFF: Time 77040, Note Name: E2
Note OFF: Time 77040, Note Name: E1
Note ON: Time 77280, Note Name: D4, Velocity: 61
Note ON: Time 77280, Note Name: G#3, Velocity: 52
Note ON: Time 77280, Note Name: E3, Velocity: 52
Note OFF: Time 77760, Note Name: E3
Note OFF: Time 77760, Note Name: G#3
Note OFF: Time 77760, Note Name: D4
Note ON: Time 77760, Note Name: G3, Velocity: 56
Note ON: Time 77760, Note Name: C#4, Velocity: 67
Note ON: Time 77760, Note Name: A3, Velocity: 56
Note OFF: Time 78240, Note Name: A3
Note OFF: Time 78240, Note Name: C#4
Note OFF: Time 78240, Note Name: G3
Note ON: Time 78240, Note Name: A1, Velocity: 50
Note ON: Time 78240, Note Name: A2, Velocity: 59
Note OFF: Time 78720, Note Name: A2
Note OFF: Time 78720, Note Name: A1
Note ON: Time 78720, Note Name: C#4, Velocity: 60
Note ON: Time 78720, Note Name: A3, Velocity: 51
Note ON: Time 78720, Note Name: G3, Velocity: 51
Note OFF: Time 79200, Note Name: G3
Note OFF: Time 79200, Note Name: A3
Note OFF: Time 79200, Note Name: C#4
Note ON: Time 79200, Note Name: F#3, Velocity: 56
Note ON: Time 79200, Note Name: C4, Velocity: 67
Note OFF: Time 79680, Note Name: C4
Note OFF: Time 79680, Note Name: F#3
Note ON: Time 79680, Note Name: A3, Velocity: 48
Note ON: Time 79680, Note Name: C4, Velocity: 58
Note OFF: Time 80160, Note Name: C4
Note OFF: Time 80160, Note Name: A3
Note ON: Time 80160, Note Name: A4, Velocity: 55
Note ON: Time 80160, Note Name: C5, Velocity: 65
Note OFF: Time 80640, Note Name: C5
Note OFF: Time 80640, Note Name: A4
Note ON: Time 80640, Note Name: C6, Velocity: 68
Note ON: Time 80640, Note Name: A5, Velocity: 56
Note OFF: Time 81120, Note Name: A5
Note OFF: Time 81120, Note Name: C6
Note ON: Time 81120, Note Name: C3, Velocity: 48
Note ON: Time 81120, Note Name: C4, Velocity: 58
Note OFF: Time 81360, Note Name: C4
Note OFF: Time 81360, Note Name: C3
Note ON: Time 81600, Note Name: C1, Velocity: 48
Note ON: Time 81600, Note Name: C2, Velocity: 57
Note OFF: Time 81840, Note Name: C2
Note OFF: Time 81840, Note Name: C1
Note ON: Time 82080, Note Name: C#1, Velocity: 50
Note ON: Time 82080, Note Name: C#2, Velocity: 59
Note OFF: Time 82320, Note Name: C#2
Note OFF: Time 82320, Note Name: C#1
Note ON: Time 82560, Note Name: C#2, Velocity: 34
Note ON: Time 82560, Note Name: C#3, Velocity: 40
Note OFF: Time 82800, Note Name: C#3
Note OFF: Time 82800, Note Name: C#2
Note ON: Time 83040, Note Name: D#1, Velocity: 37
Note ON: Time 83040, Note Name: D#2, Velocity: 46
Note OFF: Time 83280, Note Name: D#2
Note OFF: Time 83280, Note Name: D#1
Note ON: Time 83520, Note Name: F1, Velocity: 40
Note ON: Time 83520, Note Name: F2, Velocity: 49
Note OFF: Time 83760, Note Name: F2
Note OFF: Time 83760, Note Name: F1
Note ON: Time 84000, Note Name: F2, Velocity: 35
Note ON: Time 84000, Note Name: F3, Velocity: 44
Note OFF: Time 84240, Note Name: F3
Note OFF: Time 84240, Note Name: F2
Note ON: Time 84480, Note Name: F1, Velocity: 35
Note ON: Time 84480, Note Name: F2, Velocity: 43
Note OFF: Time 84720, Note Name: F2
Note OFF: Time 84720, Note Name: F1
Note ON: Time 84960, Note Name: A#1, Velocity: 30
Note ON: Time 84960, Note Name: A#2, Velocity: 37
Note OFF: Time 85200, Note Name: A#2
Note OFF: Time 85200, Note Name: A#1
Note ON: Time 85440, Note Name: C#2, Velocity: 25
Note ON: Time 85440, Note Name: C#3, Velocity: 31
Note OFF: Time 85680, Note Name: C#3
Note OFF: Time 85680, Note Name: C#2
Note ON: Time 85920, Note Name: D#2, Velocity: 33
Note OFF: Time 86160, Note Name: D#2
Note ON: Time 86400, Note Name: F2, Velocity: 38
Note OFF: Time 86640, Note Name: F2
Note ON: Time 87360, Note Name: F1, Velocity: 28
Note ON: Time 87360, Note Name: F2, Velocity: 34
Note OFF: Time 87600, Note Name: F2
Note OFF: Time 87600, Note Name: F1
Note ON: Time 87840, Note Name: A#1, Velocity: 30
Note ON: Time 87840, Note Name: A#2, Velocity: 36
Note OFF: Time 88320, Note Name: A#2
Note OFF: Time 88320, Note Name: A#1
Note ON: Time 88320, Note Name: G#2, Velocity: 26
Note ON: Time 88320, Note Name: G#3, Velocity: 31
Note OFF: Time 88800, Note Name: G#3
Note OFF: Time 88800, Note Name: G#2
Note ON: Time 88800, Note Name: F2, Velocity: 26
Note ON: Time 88800, Note Name: F3, Velocity: 31
Note OFF: Time 89280, Note Name: F3
Note OFF: Time 89280, Note Name: F2
Note ON: Time 89280, Note Name: F#2, Velocity: 30
Note ON: Time 89280, Note Name: F#3, Velocity: 36
Note OFF: Time 89760, Note Name: F#3
Note OFF: Time 89760, Note Name: F#2
Note ON: Time 89760, Note Name: F2, Velocity: 26
Note ON: Time 89760, Note Name: F3, Velocity: 31
Note OFF: Time 90240, Note Name: F3
Note OFF: Time 90240, Note Name: F2
Note ON: Time 90240, Note Name: C#2, Velocity: 26
Note ON: Time 90240, Note Name: C#3, Velocity: 31
Note OFF: Time 90720, Note Name: C#3
Note OFF: Time 90720, Note Name: C#2
Note ON: Time 90720, Note Name: D#2, Velocity: 30
Note ON: Time 90720, Note Name: D#3, Velocity: 36
Note OFF: Time 91200, Note Name: D#3
Note OFF: Time 91200, Note Name: D#2
Note ON: Time 91200, Note Name: C#2, Velocity: 26
Note ON: Time 91200, Note Name: C#3, Velocity: 31
Note OFF: Time 91680, Note Name: C#3
Note OFF: Time 91680, Note Name: C#2
Note ON: Time 91680, Note Name: A#1, Velocity: 31
Note ON: Time 91680, Note Name: A#2, Velocity: 31
Note OFF: Time 92160, Note Name: A#2
Note OFF: Time 92160, Note Name: A#1
Note ON: Time 92160, Note Name: B1, Velocity: 38
Note ON: Time 92160, Note Name: B2, Velocity: 38
Note OFF: Time 92640, Note Name: B2
Note OFF: Time 92640, Note Name: B1
Note ON: Time 92640, Note Name: A#1, Velocity: 38
Note ON: Time 92640, Note Name: A#2, Velocity: 38
Note OFF: Time 93120, Note Name: A#2
Note OFF: Time 93120, Note Name: A#1
Note ON: Time 93120, Note Name: F#1, Velocity: 40
Note ON: Time 93120, Note Name: F#2, Velocity: 40
Note OFF: Time 93600, Note Name: F#2
Note OFF: Time 93600, Note Name: F#1
Note ON: Time 93600, Note Name: D#1, Velocity: 40
Note ON: Time 93600, Note Name: D#2, Velocity: 47
Note OFF: Time 94080, Note Name: D#2
Note OFF: Time 94080, Note Name: D#1
Note ON: Time 94080, Note Name: E1, Velocity: 38
Note ON: Time 94080, Note Name: E2, Velocity: 44
Note OFF: Time 94170, Note Name: E2
Note OFF: Time 94170, Note Name: E1
Note ON: Time 94320, Note Name: F1, Velocity: 38
Note ON: Time 94320, Note Name: F2, Velocity: 47
Note OFF: Time 94410, Note Name: F2
Note OFF: Time 94410, Note Name: F1
Note ON: Time 94560, Note Name: F#1, Velocity: 46
Note ON: Time 94560, Note Name: F#2, Velocity: 54
Note OFF: Time 95040, Note Name: F#2
Note OFF: Time 95040, Note Name: F#1
Note ON: Time 95040, Note Name: G#1, Velocity: 56
Note ON: Time 95040, Note Name: G#2, Velocity: 67
Note OFF: Time 95520, Note Name: G#2
Note OFF: Time 95520, Note Name: G#1
Note ON: Time 95520, Note Name: G#2, Velocity: 43
Note ON: Time 95520, Note Name: D#3, Velocity: 43
Note ON: Time 95520, Note Name: F3, Velocity: 43
Note ON: Time 95520, Note Name: B3, Velocity: 51
Note OFF: Time 96000, Note Name: B3
Note OFF: Time 96000, Note Name: G#2
Note OFF: Time 96000, Note Name: D#3
Note OFF: Time 96000, Note Name: F3
Note ON: Time 96000, Note Name: A#2, Velocity: 43
Note ON: Time 96000, Note Name: F3, Velocity: 43
Note ON: Time 96000, Note Name: G#3, Velocity: 43
Note ON: Time 96000, Note Name: D4, Velocity: 51
Note OFF: Time 96480, Note Name: D4
Note OFF: Time 96480, Note Name: A#2
Note OFF: Time 96480, Note Name: F3
Note OFF: Time 96480, Note Name: G#3
Note ON: Time 96480, Note Name: F#1, Velocity: 40
Note ON: Time 96480, Note Name: F#2, Velocity: 47
Note OFF: Time 96960, Note Name: F#2
Note OFF: Time 96960, Note Name: F#1
Note ON: Time 96960, Note Name: G1, Velocity: 38
Note ON: Time 96960, Note Name: G2, Velocity: 44
Note OFF: Time 97050, Note Name: G2
Note OFF: Time 97050, Note Name: G1
Note ON: Time 97200, Note Name: G#1, Velocity: 35
Note ON: Time 97200, Note Name: G#2, Velocity: 43
Note OFF: Time 97290, Note Name: G#2
Note OFF: Time 97290, Note Name: G#1
Note ON: Time 97440, Note Name: A1, Velocity: 46
Note ON: Time 97440, Note Name: A2, Velocity: 54
Note OFF: Time 97920, Note Name: A2
Note OFF: Time 97920, Note Name: A1
Note ON: Time 97920, Note Name: B1, Velocity: 56
Note ON: Time 97920, Note Name: B2, Velocity: 67
Note OFF: Time 98400, Note Name: B2
Note OFF: Time 98400, Note Name: B1
Note ON: Time 98400, Note Name: C3, Velocity: 43
Note ON: Time 98400, Note Name: F#3, Velocity: 43
Note ON: Time 98400, Note Name: G#3, Velocity: 43
Note ON: Time 98400, Note Name: D4, Velocity: 51
Note OFF: Time 98880, Note Name: D4
Note OFF: Time 98880, Note Name: C3
Note OFF: Time 98880, Note Name: F#3
Note OFF: Time 98880, Note Name: G#3
Note ON: Time 98880, Note Name: C#3, Velocity: 43
Note ON: Time 98880, Note Name: G#3, Velocity: 43
Note ON: Time 98880, Note Name: B3, Velocity: 43
Note ON: Time 98880, Note Name: F4, Velocity: 51
Note OFF: Time 99360, Note Name: F4
Note OFF: Time 99360, Note Name: C#3
Note OFF: Time 99360, Note Name: G#3
Note OFF: Time 99360, Note Name: B3
Note ON: Time 99360, Note Name: A1, Velocity: 36
Note ON: Time 99360, Note Name: A2, Velocity: 42
Note OFF: Time 99840, Note Name: A2
Note OFF: Time 99840, Note Name: A1
Note ON: Time 99840, Note Name: B1, Velocity: 36
Note ON: Time 99840, Note Name: B2, Velocity: 42
Note OFF: Time 99930, Note Name: B2
Note OFF: Time 99930, Note Name: B1
Note ON: Time 100080, Note Name: C2, Velocity: 37
Note ON: Time 100080, Note Name: C3, Velocity: 45
Note OFF: Time 100170, Note Name: C3
Note OFF: Time 100170, Note Name: C2
Note ON: Time 100320, Note Name: C#2, Velocity: 47
Note ON: Time 100320, Note Name: C#3, Velocity: 56
Note OFF: Time 100800, Note Name: C#3
Note OFF: Time 100800, Note Name: C#2
Note ON: Time 100800, Note Name: D2, Velocity: 40
Note ON: Time 100800, Note Name: D3, Velocity: 47
Note OFF: Time 101280, Note Name: D3
Note OFF: Time 101280, Note Name: D2
Note ON: Time 101280, Note Name: D#2, Velocity: 40
Note ON: Time 101280, Note Name: D#3, Velocity: 47
Note OFF: Time 101370, Note Name: D#3
Note OFF: Time 101370, Note Name: D#2
Note ON: Time 101520, Note Name: E2, Velocity: 39
Note ON: Time 101520, Note Name: E3, Velocity: 48
Note OFF: Time 101610, Note Name: E3
Note OFF: Time 101610, Note Name: E2
Note ON: Time 101760, Note Name: F2, Velocity: 45
Note ON: Time 101760, Note Name: F3, Velocity: 53
Note OFF: Time 102240, Note Name: F3
Note OFF: Time 102240, Note Name: F2
Note ON: Time 102240, Note Name: F#2, Velocity: 42
Note ON: Time 102240, Note Name: F#3, Velocity: 50
Note OFF: Time 102720, Note Name: F#3
Note OFF: Time 102720, Note Name: F#2
Note ON: Time 102720, Note Name: G#2, Velocity: 42
Note ON: Time 102720, Note Name: G#3, Velocity: 48
Note OFF: Time 102810, Note Name: G#3
Note OFF: Time 102810, Note Name: G#2
Note ON: Time 102960, Note Name: A2, Velocity: 39
Note ON: Time 102960, Note Name: A3, Velocity: 50
Note OFF: Time 103050, Note Name: A3
Note OFF: Time 103050, Note Name: A2
Note ON: Time 103200, Note Name: A#2, Velocity: 48
Note ON: Time 103200, Note Name: A#3, Velocity: 57
Note OFF: Time 103680, Note Name: A#3
Note OFF: Time 103680, Note Name: A#2
Note ON: Time 103680, Note Name: B2, Velocity: 54
Note ON: Time 103680, Note Name: B3, Velocity: 66
Note OFF: Time 104160, Note Name: B3
Note OFF: Time 104160, Note Name: B2
Note ON: Time 104160, Note Name: B1, Velocity: 49
Note ON: Time 104160, Note Name: B2, Velocity: 59
Note OFF: Time 104640, Note Name: B2
Note OFF: Time 104640, Note Name: B1
Note ON: Time 104640, Note Name: G#1, Velocity: 49
Note ON: Time 104640, Note Name: G#2, Velocity: 59
Note OFF: Time 105120, Note Name: G#2
Note OFF: Time 105120, Note Name: G#1
Note ON: Time 105120, Note Name: D#3, Velocity: 49
Note ON: Time 105120, Note Name: F#3, Velocity: 49
Note ON: Time 105120, Note Name: A#3, Velocity: 49
Note ON: Time 105120, Note Name: D#4, Velocity: 59
Note OFF: Time 105600, Note Name: D#4
Note OFF: Time 105600, Note Name: D#3
Note OFF: Time 105600, Note Name: F#3
Note OFF: Time 105600, Note Name: A#3
Note ON: Time 105600, Note Name: F#1, Velocity: 55
Note ON: Time 105600, Note Name: F#2, Velocity: 67
Note OFF: Time 105840, Note Name: F#2
Note OFF: Time 105840, Note Name: F#1
Note ON: Time 106080, Note Name: D#4, Velocity: 63
Note ON: Time 106080, Note Name: B3, Velocity: 52
Note ON: Time 106080, Note Name: G#3, Velocity: 52
Note ON: Time 106080, Note Name: D#3, Velocity: 52
Note OFF: Time 106560, Note Name: D#3
Note OFF: Time 106560, Note Name: D#4
Note OFF: Time 106560, Note Name: B3
Note OFF: Time 106560, Note Name: G#3
Note ON: Time 106560, Note Name: G#1, Velocity: 55
Note ON: Time 106560, Note Name: G#2, Velocity: 67
Note OFF: Time 106800, Note Name: G#2
Note OFF: Time 106800, Note Name: G#1
Note ON: Time 107040, Note Name: D#4, Velocity: 57
Note ON: Time 107040, Note Name: B3, Velocity: 48
Note ON: Time 107040, Note Name: G#3, Velocity: 48
Note ON: Time 107040, Note Name: F3, Velocity: 48
Note OFF: Time 107520, Note Name: F3
Note OFF: Time 107520, Note Name: D#4
Note OFF: Time 107520, Note Name: B3
Note OFF: Time 107520, Note Name: G#3
Note ON: Time 107520, Note Name: B1, Velocity: 55
Note ON: Time 107520, Note Name: B2, Velocity: 66
Note OFF: Time 107760, Note Name: B2
Note OFF: Time 107760, Note Name: B1
Note ON: Time 108000, Note Name: D#4, Velocity: 60
Note ON: Time 108000, Note Name: A#3, Velocity: 51
Note ON: Time 108000, Note Name: F#3, Velocity: 51
Note OFF: Time 108480, Note Name: F#3
Note OFF: Time 108480, Note Name: A#3
Note OFF: Time 108480, Note Name: D#4
Note ON: Time 108480, Note Name: A#1, Velocity: 55
Note ON: Time 108480, Note Name: A#2, Velocity: 66
Note OFF: Time 108720, Note Name: A#2
Note OFF: Time 108720, Note Name: A#1
Note ON: Time 108960, Note Name: D#4, Velocity: 60
Note ON: Time 108960, Note Name: A#3, Velocity: 51
Note ON: Time 108960, Note Name: F3, Velocity: 51
Note OFF: Time 109440, Note Name: F3
Note OFF: Time 109440, Note Name: A#3
Note OFF: Time 109440, Note Name: D#4
Note ON: Time 109440, Note Name: A#1, Velocity: 57
Note ON: Time 109440, Note Name: A#2, Velocity: 69
Note OFF: Time 109680, Note Name: A#2
Note OFF: Time 109680, Note Name: A#1
Note ON: Time 109920, Note Name: D4, Velocity: 60
Note ON: Time 109920, Note Name: A#3, Velocity: 51
Note ON: Time 109920, Note Name: G#3, Velocity: 51
Note ON: Time 109920, Note Name: F3, Velocity: 51
Note OFF: Time 110400, Note Name: F3
Note OFF: Time 110400, Note Name: D4
Note OFF: Time 110400, Note Name: A#3
Note OFF: Time 110400, Note Name: G#3
Note ON: Time 110400, Note Name: D#1, Velocity: 62
Note ON: Time 110400, Note Name: D#2, Velocity: 74
Note OFF: Time 110850, Note Name: D#2
Note OFF: Time 110850, Note Name: D#1
Note ON: Time 110880, Note Name: D#2, Velocity: 52
Note ON: Time 110880, Note Name: D#3, Velocity: 63
Note OFF: Time 112320, Note Name: D#3
Note OFF: Time 112320, Note Name: D#2
Note ON: Time 112320, Note Name: A#1, Velocity: 57
Note ON: Time 112320, Note Name: A#2, Velocity: 69
Note OFF: Time 112800, Note Name: A#2
Note OFF: Time 112800, Note Name: A#1
Note ON: Time 112800, Note Name: B1, Velocity: 52
Note ON: Time 112800, Note Name: B2, Velocity: 63
Note OFF: Time 113040, Note Name: B2
Note OFF: Time 113040, Note Name: B1
Note ON: Time 113040, Note Name: A#1, Velocity: 48
Note ON: Time 113040, Note Name: A#2, Velocity: 57
Note OFF: Time 113280, Note Name: A#2
Note OFF: Time 113280, Note Name: A#1
Note ON: Time 113280, Note Name: F1, Velocity: 53
Note ON: Time 113280, Note Name: F2, Velocity: 64
Note OFF: Time 113520, Note Name: F2
Note OFF: Time 113520, Note Name: F1
Note ON: Time 113520, Note Name: F#1, Velocity: 47
Note ON: Time 113520, Note Name: F#2, Velocity: 55
Note OFF: Time 113760, Note Name: F#2
Note OFF: Time 113760, Note Name: F#1
Note ON: Time 113760, Note Name: D#1, Velocity: 52
Note ON: Time 113760, Note Name: D#2, Velocity: 63
Note OFF: Time 115680, Note Name: D#2
Note OFF: Time 115680, Note Name: D#1
Note ON: Time 116640, Note Name: F#1, Velocity: 27
Note OFF: Time 117120, Note Name: F#1
Note ON: Time 117120, Note Name: D#4, Velocity: 22
Note ON: Time 117120, Note Name: C#3, Velocity: 17
Note ON: Time 117120, Note Name: F#3, Velocity: 17
Note OFF: Time 117600, Note Name: F#3
Note OFF: Time 117600, Note Name: C#3
Note OFF: Time 117600, Note Name: D#4
Note ON: Time 117600, Note Name: C#3, Velocity: 16
Note ON: Time 117600, Note Name: F#3, Velocity: 16
Note ON: Time 117600, Note Name: C#4, Velocity: 20
Note OFF: Time 118080, Note Name: C#4
Note OFF: Time 118080, Note Name: F#3
Note OFF: Time 118080, Note Name: C#3
Note ON: Time 118080, Note Name: F#2, Velocity: 25
Note OFF: Time 118560, Note Name: F#2
Note ON: Time 118560, Note Name: D#4, Velocity: 24
Note ON: Time 118560, Note Name: F#3, Velocity: 20
Note ON: Time 118560, Note Name: C#3, Velocity: 20
Note OFF: Time 119040, Note Name: C#3
Note OFF: Time 119040, Note Name: F#3
Note OFF: Time 119040, Note Name: D#4
Note ON: Time 119040, Note Name: C#3, Velocity: 15
Note ON: Time 119040, Note Name: F#3, Velocity: 15
Note ON: Time 119040, Note Name: C#4, Velocity: 18
Note OFF: Time 119520, Note Name: C#4
Note OFF: Time 119520, Note Name: F#3
Note OFF: Time 119520, Note Name: C#3
Note ON: Time 119520, Note Name: F#2, Velocity: 27
Note OFF: Time 120000, Note Name: F#2
Note ON: Time 120000, Note Name: D#4, Velocity: 24
Note ON: Time 120000, Note Name: F#3, Velocity: 20
Note ON: Time 120000, Note Name: C#3, Velocity: 20
Note OFF: Time 120480, Note Name: C#3
Note OFF: Time 120480, Note Name: F#3
Note OFF: Time 120480, Note Name: D#4
Note ON: Time 120480, Note Name: C#3, Velocity: 15
Note ON: Time 120480, Note Name: F#3, Velocity: 15
Note ON: Time 120480, Note Name: C#4, Velocity: 18
Note OFF: Time 120960, Note Name: C#4
Note OFF: Time 120960, Note Name: F#3
Note OFF: Time 120960, Note Name: C#3
Note ON: Time 120960, Note Name: F#2, Velocity: 27
Note OFF: Time 121440, Note Name: F#2
Note ON: Time 121440, Note Name: D#4, Velocity: 27
Note ON: Time 121440, Note Name: C#3, Velocity: 22
Note ON: Time 121440, Note Name: F#3, Velocity: 22
Note OFF: Time 121920, Note Name: F#3
Note OFF: Time 121920, Note Name: C#3
Note OFF: Time 121920, Note Name: D#4
Note ON: Time 121920, Note Name: C#3, Velocity: 17
Note ON: Time 121920, Note Name: F#3, Velocity: 17
Note ON: Time 121920, Note Name: C#4, Velocity: 21
Note OFF: Time 122400, Note Name: C#4
Note OFF: Time 122400, Note Name: F#3
Note OFF: Time 122400, Note Name: C#3
Note ON: Time 122400, Note Name: F#2, Velocity: 34
Note OFF: Time 122880, Note Name: F#2
Note ON: Time 122880, Note Name: D#4, Velocity: 24
Note ON: Time 122880, Note Name: F#3, Velocity: 20
Note ON: Time 122880, Note Name: C#3, Velocity: 20
Note OFF: Time 123360, Note Name: C#3
Note OFF: Time 123360, Note Name: F#3
Note OFF: Time 123360, Note Name: D#4
Note ON: Time 123360, Note Name: C#3, Velocity: 16
Note ON: Time 123360, Note Name: F#3, Velocity: 16
Note ON: Time 123360, Note Name: C#4, Velocity: 21
Note OFF: Time 123840, Note Name: C#4
Note OFF: Time 123840, Note Name: F#3
Note OFF: Time 123840, Note Name: C#3
Note ON: Time 123840, Note Name: F#2, Velocity: 34
Note OFF: Time 124320, Note Name: F#2
Note ON: Time 124320, Note Name: D#4, Velocity: 21
Note ON: Time 124320, Note Name: C#3, Velocity: 17
Note ON: Time 124320, Note Name: F#3, Velocity: 17
Note OFF: Time 124800, Note Name: F#3
Note OFF: Time 124800, Note Name: C#3
Note OFF: Time 124800, Note Name: D#4
Note ON: Time 124800, Note Name: C#3, Velocity: 15
Note ON: Time 124800, Note Name: F#3, Velocity: 15
Note ON: Time 124800, Note Name: C#4, Velocity: 18
Note OFF: Time 125280, Note Name: C#4
Note OFF: Time 125280, Note Name: F#3
Note OFF: Time 125280, Note Name: C#3
Note ON: Time 125280, Note Name: C#2, Velocity: 33
Note OFF: Time 125760, Note Name: C#2
Note ON: Time 125760, Note Name: D#4, Velocity: 24
Note ON: Time 125760, Note Name: F#3, Velocity: 20
Note ON: Time 125760, Note Name: C#3, Velocity: 20
Note OFF: Time 126240, Note Name: C#3
Note OFF: Time 126240, Note Name: F#3
Note OFF: Time 126240, Note Name: D#4
Note ON: Time 126240, Note Name: C#3, Velocity: 16
Note ON: Time 126240, Note Name: F#3, Velocity: 16
Note ON: Time 126240, Note Name: C#4, Velocity: 21
Note OFF: Time 126720, Note Name: C#4
Note OFF: Time 126720, Note Name: F#3
Note OFF: Time 126720, Note Name: C#3
Note ON: Time 126720, Note Name: F#2, Velocity: 34
Note OFF: Time 127200, Note Name: F#2
Note ON: Time 127200, Note Name: D#4, Velocity: 24
Note ON: Time 127200, Note Name: C#3, Velocity: 20
Note ON: Time 127200, Note Name: F#3, Velocity: 20
Note OFF: Time 127680, Note Name: F#3
Note OFF: Time 127680, Note Name: C#3
Note OFF: Time 127680, Note Name: D#4
Note ON: Time 127680, Note Name: C#3, Velocity: 16
Note ON: Time 127680, Note Name: F#3, Velocity: 16
Note ON: Time 127680, Note Name: C#4, Velocity: 21
Note OFF: Time 128160, Note Name: C#4
Note OFF: Time 128160, Note Name: F#3
Note OFF: Time 128160, Note Name: C#3
Note ON: Time 128160, Note Name: C#3, Velocity: 20
Note ON: Time 128160, Note Name: F#3, Velocity: 18
Note ON: Time 128160, Note Name: C#4, Velocity: 22
Note OFF: Time 128640, Note Name: C#4
Note OFF: Time 128640, Note Name: F#3
Note OFF: Time 128640, Note Name: C#3
Note ON: Time 128640, Note Name: C#3, Velocity: 17
Note ON: Time 128640, Note Name: F#3, Velocity: 17
Note ON: Time 128640, Note Name: B3, Velocity: 22
Note OFF: Time 129120, Note Name: B3
Note OFF: Time 129120, Note Name: F#3
Note OFF: Time 129120, Note Name: C#3
Note ON: Time 129120, Note Name: C#3, Velocity: 18
Note ON: Time 129120, Note Name: F#3, Velocity: 18
Note ON: Time 129120, Note Name: A#3, Velocity: 23
Note OFF: Time 129600, Note Name: A#3
Note OFF: Time 129600, Note Name: F#3
Note OFF: Time 129600, Note Name: C#3
Note ON: Time 129600, Note Name: C#3, Velocity: 18
Note ON: Time 129600, Note Name: F#3, Velocity: 18
Note ON: Time 129600, Note Name: A#3, Velocity: 23
Note OFF: Time 130080, Note Name: A#3
Note OFF: Time 130080, Note Name: F#3
Note OFF: Time 130080, Note Name: C#3
Note ON: Time 130080, Note Name: B2, Velocity: 18
Note ON: Time 130080, Note Name: C#3, Velocity: 23
Note OFF: Time 130560, Note Name: C#3
Note OFF: Time 130560, Note Name: B2
Note ON: Time 130560, Note Name: A#2, Velocity: 18
Note ON: Time 130560, Note Name: C#3, Velocity: 23
Note OFF: Time 131040, Note Name: C#3
Note OFF: Time 131040, Note Name: A#2
Note ON: Time 131040, Note Name: A#2, Velocity: 18
Note ON: Time 131040, Note Name: C#3, Velocity: 23
Note OFF: Time 131520, Note Name: C#3
Note OFF: Time 131520, Note Name: A#2
Note ON: Time 131520, Note Name: B2, Velocity: 18
Note ON: Time 131520, Note Name: C#3, Velocity: 23
Note OFF: Time 132000, Note Name: C#3
Note OFF: Time 132000, Note Name: B2
Note ON: Time 132000, Note Name: A#2, Velocity: 18
Note ON: Time 132000, Note Name: C#3, Velocity: 23
Note OFF: Time 132480, Note Name: C#3
Note OFF: Time 132480, Note Name: A#2
Note ON: Time 132480, Note Name: A#2, Velocity: 17
Note ON: Time 132480, Note Name: C#3, Velocity: 22
Note OFF: Time 132960, Note Name: C#3
Note OFF: Time 132960, Note Name: A#2
Note ON: Time 132960, Note Name: B2, Velocity: 17
Note ON: Time 132960, Note Name: C#3, Velocity: 22
Note OFF: Time 133440, Note Name: C#3
Note OFF: Time 133440, Note Name: B2
Note ON: Time 133440, Note Name: A#2, Velocity: 16
Note ON: Time 133440, Note Name: C#3, Velocity: 20
Note OFF: Time 133920, Note Name: C#3
Note OFF: Time 133920, Note Name: A#2
Note ON: Time 133920, Note Name: A#2, Velocity: 34
Note OFF: Time 134400, Note Name: A#2
Note ON: Time 134400, Note Name: F#4, Velocity: 24
Note ON: Time 134400, Note Name: A#3, Velocity: 20
Note ON: Time 134400, Note Name: F3, Velocity: 20
Note OFF: Time 134880, Note Name: F3
Note OFF: Time 134880, Note Name: A#3
Note OFF: Time 134880, Note Name: F#4
Note ON: Time 134880, Note Name: F3, Velocity: 16
Note ON: Time 134880, Note Name: A#3, Velocity: 16
Note ON: Time 134880, Note Name: F4, Velocity: 21
Note OFF: Time 135360, Note Name: F4
Note OFF: Time 135360, Note Name: A#3
Note OFF: Time 135360, Note Name: F3
Note ON: Time 135360, Note Name: A#2, Velocity: 34
Note OFF: Time 135840, Note Name: A#2
Note ON: Time 135840, Note Name: F#4, Velocity: 22
Note ON: Time 135840, Note Name: F3, Velocity: 17
Note ON: Time 135840, Note Name: A#3, Velocity: 17
Note OFF: Time 136320, Note Name: A#3
Note OFF: Time 136320, Note Name: F3
Note OFF: Time 136320, Note Name: F#4
Note ON: Time 136320, Note Name: F3, Velocity: 14
Note ON: Time 136320, Note Name: A#3, Velocity: 14
Note ON: Time 136320, Note Name: F4, Velocity: 17
Note OFF: Time 136800, Note Name: F4
Note OFF: Time 136800, Note Name: A#3
Note OFF: Time 136800, Note Name: F3
Note ON: Time 136800, Note Name: F2, Velocity: 33
Note OFF: Time 137280, Note Name: F2
Note ON: Time 137280, Note Name: F#4, Velocity: 24
Note ON: Time 137280, Note Name: C4, Velocity: 13
Note ON: Time 137280, Note Name: F3, Velocity: 13
Note OFF: Time 137760, Note Name: F3
Note OFF: Time 137760, Note Name: C4
Note OFF: Time 137760, Note Name: F#4
Note ON: Time 137760, Note Name: F3, Velocity: 16
Note ON: Time 137760, Note Name: C4, Velocity: 16
Note ON: Time 137760, Note Name: F4, Velocity: 20
Note OFF: Time 138240, Note Name: F4
Note OFF: Time 138240, Note Name: C4
Note OFF: Time 138240, Note Name: F3
Note ON: Time 138240, Note Name: A#2, Velocity: 34
Note OFF: Time 138720, Note Name: A#2
Note ON: Time 138720, Note Name: F#4, Velocity: 24
Note ON: Time 138720, Note Name: F3, Velocity: 20
Note ON: Time 138720, Note Name: A#3, Velocity: 20
Note OFF: Time 139200, Note Name: A#3
Note OFF: Time 139200, Note Name: F3
Note OFF: Time 139200, Note Name: F#4
Note ON: Time 139200, Note Name: F3, Velocity: 17
Note ON: Time 139200, Note Name: A#3, Velocity: 17
Note ON: Time 139200, Note Name: F4, Velocity: 22
Note OFF: Time 139680, Note Name: F4
Note OFF: Time 139680, Note Name: A#3
Note OFF: Time 139680, Note Name: F3
Note ON: Time 139680, Note Name: F3, Velocity: 14
Note ON: Time 139680, Note Name: A#3, Velocity: 17
Note ON: Time 139680, Note Name: F4, Velocity: 23
Note OFF: Time 140160, Note Name: F4
Note OFF: Time 140160, Note Name: A#3
Note OFF: Time 140160, Note Name: F3
Note ON: Time 140160, Note Name: F3, Velocity: 20
Note ON: Time 140160, Note Name: A#3, Velocity: 20
Note ON: Time 140160, Note Name: D#4, Velocity: 24
Note OFF: Time 140640, Note Name: D#4
Note OFF: Time 140640, Note Name: A#3
Note OFF: Time 140640, Note Name: F3
Note ON: Time 140640, Note Name: F3, Velocity: 20
Note ON: Time 140640, Note Name: A#3, Velocity: 20
Note ON: Time 140640, Note Name: C#4, Velocity: 24
Note OFF: Time 141120, Note Name: C#4
Note OFF: Time 141120, Note Name: A#3
Note OFF: Time 141120, Note Name: F3
Note ON: Time 141120, Note Name: F3, Velocity: 16
Note ON: Time 141120, Note Name: A#3, Velocity: 16
Note ON: Time 141120, Note Name: C#4, Velocity: 25
Note OFF: Time 141600, Note Name: C#4
Note OFF: Time 141600, Note Name: A#3
Note OFF: Time 141600, Note Name: F3
Note ON: Time 141600, Note Name: D#3, Velocity: 20
Note ON: Time 141600, Note Name: F3, Velocity: 24
Note OFF: Time 142080, Note Name: F3
Note OFF: Time 142080, Note Name: D#3
Note ON: Time 142080, Note Name: C#3, Velocity: 20
Note ON: Time 142080, Note Name: F3, Velocity: 24
Note OFF: Time 142560, Note Name: F3
Note OFF: Time 142560, Note Name: C#3
Note ON: Time 142560, Note Name: C#3, Velocity: 20
Note ON: Time 142560, Note Name: F3, Velocity: 24
Note OFF: Time 143040, Note Name: F3
Note OFF: Time 143040, Note Name: C#3
Note ON: Time 143040, Note Name: D#3, Velocity: 20
Note ON: Time 143040, Note Name: F3, Velocity: 24
Note OFF: Time 143520, Note Name: F3
Note OFF: Time 143520, Note Name: D#3
Note ON: Time 143520, Note Name: C#3, Velocity: 20
Note ON: Time 143520, Note Name: F3, Velocity: 24
Note OFF: Time 144000, Note Name: F3
Note OFF: Time 144000, Note Name: C#3
Note ON: Time 144000, Note Name: C#3, Velocity: 20
Note ON: Time 144000, Note Name: F3, Velocity: 24
Note OFF: Time 144480, Note Name: F3
Note OFF: Time 144480, Note Name: C#3
Note ON: Time 144480, Note Name: D#3, Velocity: 24
Note ON: Time 144480, Note Name: F3, Velocity: 24
Note OFF: Time 144960, Note Name: F3
Note OFF: Time 144960, Note Name: D#3
Note ON: Time 144960, Note Name: C#3, Velocity: 20
Note ON: Time 144960, Note Name: F3, Velocity: 24
Note OFF: Time 145440, Note Name: F3
Note OFF: Time 145440, Note Name: C#3
Note ON: Time 145440, Note Name: F#2, Velocity: 36
Note OFF: Time 145920, Note Name: F#2
Note ON: Time 145920, Note Name: D#4, Velocity: 25
Note ON: Time 145920, Note Name: F#3, Velocity: 21
Note ON: Time 145920, Note Name: C#3, Velocity: 21
Note OFF: Time 146400, Note Name: C#3
Note OFF: Time 146400, Note Name: F#3
Note OFF: Time 146400, Note Name: D#4
Note ON: Time 146400, Note Name: C#3, Velocity: 16
Note ON: Time 146400, Note Name: F#3, Velocity: 16
Note ON: Time 146400, Note Name: C#4, Velocity: 21
Note OFF: Time 146880, Note Name: C#4
Note OFF: Time 146880, Note Name: F#3
Note OFF: Time 146880, Note Name: C#3
Note ON: Time 146880, Note Name: F#2, Velocity: 34
Note OFF: Time 147360, Note Name: F#2
Note ON: Time 147360, Note Name: D#4, Velocity: 21
Note ON: Time 147360, Note Name: C#3, Velocity: 17
Note ON: Time 147360, Note Name: F#3, Velocity: 17
Note OFF: Time 147840, Note Name: F#3
Note OFF: Time 147840, Note Name: C#3
Note OFF: Time 147840, Note Name: D#4
Note ON: Time 147840, Note Name: C#3, Velocity: 15
Note ON: Time 147840, Note Name: F#3, Velocity: 15
Note ON: Time 147840, Note Name: C#4, Velocity: 18
Note OFF: Time 148320, Note Name: C#4
Note OFF: Time 148320, Note Name: F#3
Note OFF: Time 148320, Note Name: C#3
Note ON: Time 148320, Note Name: C#2, Velocity: 34
Note OFF: Time 148800, Note Name: C#2
Note ON: Time 148800, Note Name: D#4, Velocity: 26
Note ON: Time 148800, Note Name: F#3, Velocity: 22
Note ON: Time 148800, Note Name: C#3, Velocity: 22
Note OFF: Time 149280, Note Name: C#3
Note OFF: Time 149280, Note Name: F#3
Note OFF: Time 149280, Note Name: D#4
Note ON: Time 149280, Note Name: C#3, Velocity: 18
Note ON: Time 149280, Note Name: F#3, Velocity: 18
Note ON: Time 149280, Note Name: C#4, Velocity: 23
Note OFF: Time 149760, Note Name: C#4
Note OFF: Time 149760, Note Name: F#3
Note OFF: Time 149760, Note Name: C#3
Note ON: Time 149760, Note Name: F#2, Velocity: 34
Note OFF: Time 150240, Note Name: F#2
Note ON: Time 150240, Note Name: D#4, Velocity: 25
Note ON: Time 150240, Note Name: C#3, Velocity: 21
Note ON: Time 150240, Note Name: F#3, Velocity: 21
Note OFF: Time 150720, Note Name: F#3
Note OFF: Time 150720, Note Name: C#3
Note OFF: Time 150720, Note Name: D#4
Note ON: Time 150720, Note Name: C#3, Velocity: 20
Note ON: Time 150720, Note Name: F#3, Velocity: 20
Note ON: Time 150720, Note Name: C#4, Velocity: 24
Note OFF: Time 151200, Note Name: C#4
Note OFF: Time 151200, Note Name: F#3
Note OFF: Time 151200, Note Name: C#3
Note ON: Time 151200, Note Name: C#3, Velocity: 21
Note ON: Time 151200, Note Name: F#3, Velocity: 21
Note ON: Time 151200, Note Name: C#4, Velocity: 25
Note OFF: Time 151680, Note Name: C#4
Note OFF: Time 151680, Note Name: F#3
Note OFF: Time 151680, Note Name: C#3
Note ON: Time 151680, Note Name: C#3, Velocity: 20
Note ON: Time 151680, Note Name: F#3, Velocity: 20
Note ON: Time 151680, Note Name: B3, Velocity: 24
Note OFF: Time 152160, Note Name: B3
Note OFF: Time 152160, Note Name: F#3
Note OFF: Time 152160, Note Name: C#3
Note ON: Time 152160, Note Name: C#3, Velocity: 21
Note ON: Time 152160, Note Name: F#3, Velocity: 21
Note ON: Time 152160, Note Name: A#3, Velocity: 25
Note OFF: Time 152640, Note Name: A#3
Note OFF: Time 152640, Note Name: F#3
Note OFF: Time 152640, Note Name: C#3
Note ON: Time 152640, Note Name: C#3, Velocity: 21
Note ON: Time 152640, Note Name: F#3, Velocity: 21
Note ON: Time 152640, Note Name: A#3, Velocity: 25
Note OFF: Time 153120, Note Name: A#3
Note OFF: Time 153120, Note Name: F#3
Note OFF: Time 153120, Note Name: C#3
Note ON: Time 153120, Note Name: B2, Velocity: 21
Note ON: Time 153120, Note Name: C#3, Velocity: 25
Note OFF: Time 153600, Note Name: C#3
Note OFF: Time 153600, Note Name: B2
Note ON: Time 153600, Note Name: A#2, Velocity: 21
Note ON: Time 153600, Note Name: C#3, Velocity: 25
Note OFF: Time 154080, Note Name: C#3
Note OFF: Time 154080, Note Name: A#2
Note ON: Time 154080, Note Name: A#2, Velocity: 21
Note ON: Time 154080, Note Name: C#3, Velocity: 25
Note OFF: Time 154560, Note Name: C#3
Note OFF: Time 154560, Note Name: A#2
Note ON: Time 154560, Note Name: B2, Velocity: 21
Note ON: Time 154560, Note Name: C#3, Velocity: 25
Note OFF: Time 155040, Note Name: C#3
Note OFF: Time 155040, Note Name: B2
Note ON: Time 155040, Note Name: A#2, Velocity: 21
Note ON: Time 155040, Note Name: C#3, Velocity: 25
Note OFF: Time 155520, Note Name: C#3
Note OFF: Time 155520, Note Name: A#2
Note ON: Time 155520, Note Name: A#2, Velocity: 18
Note ON: Time 155520, Note Name: C#3, Velocity: 23
Note OFF: Time 156000, Note Name: C#3
Note OFF: Time 156000, Note Name: A#2
Note ON: Time 156000, Note Name: G#2, Velocity: 16
Note ON: Time 156000, Note Name: C#3, Velocity: 22
Note OFF: Time 156480, Note Name: C#3
Note OFF: Time 156480, Note Name: G#2
Note ON: Time 156480, Note Name: F#2, Velocity: 16
Note ON: Time 156480, Note Name: C#3, Velocity: 22
Note OFF: Time 156960, Note Name: C#3
Note OFF: Time 156960, Note Name: F#2
Note ON: Time 156960, Note Name: F2, Velocity: 44
Note OFF: Time 157440, Note Name: F2
Note ON: Time 157440, Note Name: D4, Velocity: 27
Note ON: Time 157440, Note Name: F3, Velocity: 23
Note OFF: Time 157920, Note Name: F3
Note OFF: Time 157920, Note Name: D4
Note ON: Time 157920, Note Name: F3, Velocity: 20
Note ON: Time 157920, Note Name: D4, Velocity: 24
Note OFF: Time 158400, Note Name: D4
Note OFF: Time 158400, Note Name: F3
Note ON: Time 158400, Note Name: F2, Velocity: 41
Note OFF: Time 158880, Note Name: F2
Note ON: Time 158880, Note Name: D#4, Velocity: 27
Note ON: Time 158880, Note Name: F3, Velocity: 22
Note ON: Time 158880, Note Name: A3, Velocity: 22
Note OFF: Time 159360, Note Name: A3
Note OFF: Time 159360, Note Name: F3
Note OFF: Time 159360, Note Name: D#4
Note ON: Time 159360, Note Name: F3, Velocity: 24
Note ON: Time 159360, Note Name: A3, Velocity: 24
Note ON: Time 159360, Note Name: D#4, Velocity: 28
Note OFF: Time 159840, Note Name: D#4
Note OFF: Time 159840, Note Name: A3
Note OFF: Time 159840, Note Name: F3
Note ON: Time 159840, Note Name: F2, Velocity: 39
Note OFF: Time 160320, Note Name: F2
Note ON: Time 160320, Note Name: F4, Velocity: 28
Note ON: Time 160320, Note Name: A#3, Velocity: 24
Note ON: Time 160320, Note Name: F3, Velocity: 24
Note OFF: Time 160800, Note Name: F3
Note OFF: Time 160800, Note Name: A#3
Note OFF: Time 160800, Note Name: F4
Note ON: Time 160800, Note Name: F3, Velocity: 20
Note ON: Time 160800, Note Name: C#4, Velocity: 20
Note ON: Time 160800, Note Name: E4, Velocity: 24
Note OFF: Time 161280, Note Name: E4
Note OFF: Time 161280, Note Name: C#4
Note OFF: Time 161280, Note Name: F3
Note ON: Time 161280, Note Name: F2, Velocity: 41
Note OFF: Time 161760, Note Name: F2
Note ON: Time 161760, Note Name: D#4, Velocity: 27
Note ON: Time 161760, Note Name: F3, Velocity: 23
Note ON: Time 161760, Note Name: C4, Velocity: 23
Note OFF: Time 162240, Note Name: C4
Note OFF: Time 162240, Note Name: F3
Note OFF: Time 162240, Note Name: D#4
Note ON: Time 162240, Note Name: F3, Velocity: 20
Note ON: Time 162240, Note Name: C4, Velocity: 20
Note ON: Time 162240, Note Name: D#4, Velocity: 24
Note OFF: Time 162720, Note Name: D#4
Note OFF: Time 162720, Note Name: C4
Note OFF: Time 162720, Note Name: F3
Note ON: Time 162720, Note Name: F2, Velocity: 45
Note OFF: Time 163200, Note Name: F2
Note ON: Time 163200, Note Name: D4, Velocity: 28
Note ON: Time 163200, Note Name: F3, Velocity: 24
Note OFF: Time 163680, Note Name: F3
Note OFF: Time 163680, Note Name: D4
Note ON: Time 163680, Note Name: F3, Velocity: 22
Note ON: Time 163680, Note Name: D4, Velocity: 27
Note OFF: Time 164160, Note Name: D4
Note OFF: Time 164160, Note Name: F3
Note ON: Time 164160, Note Name: F2, Velocity: 43
Note OFF: Time 164640, Note Name: F2
Note ON: Time 164640, Note Name: D#4, Velocity: 27
Note ON: Time 164640, Note Name: F3, Velocity: 24
Note ON: Time 164640, Note Name: A3, Velocity: 24
Note OFF: Time 165120, Note Name: A3
Note OFF: Time 165120, Note Name: F3
Note OFF: Time 165120, Note Name: D#4
Note ON: Time 165120, Note Name: F3, Velocity: 20
Note ON: Time 165120, Note Name: A3, Velocity: 20
Note ON: Time 165120, Note Name: D#4, Velocity: 24
Note OFF: Time 165600, Note Name: D#4
Note OFF: Time 165600, Note Name: A3
Note OFF: Time 165600, Note Name: F3
Note ON: Time 165600, Note Name: A#2, Velocity: 45
Note OFF: Time 166080, Note Name: A#2
Note ON: Time 166080, Note Name: F4, Velocity: 33
Note ON: Time 166080, Note Name: A#3, Velocity: 22
Note ON: Time 166080, Note Name: F3, Velocity: 22
Note OFF: Time 166560, Note Name: F3
Note OFF: Time 166560, Note Name: A#3
Note OFF: Time 166560, Note Name: F4
Note ON: Time 166560, Note Name: F3, Velocity: 13
Note ON: Time 166560, Note Name: A#3, Velocity: 13
Note ON: Time 166560, Note Name: C#4, Velocity: 24
Note OFF: Time 167040, Note Name: C#4
Note OFF: Time 167040, Note Name: A#3
Note OFF: Time 167040, Note Name: F3
Note ON: Time 167040, Note Name: C#2, Velocity: 45
Note OFF: Time 167520, Note Name: C#2
Note ON: Time 167520, Note Name: C#4, Velocity: 24
Note ON: Time 167520, Note Name: G#4, Velocity: 27
Note ON: Time 167520, Note Name: G#3, Velocity: 24
Note ON: Time 167520, Note Name: B3, Velocity: 24
Note OFF: Time 168000, Note Name: B3
Note OFF: Time 168000, Note Name: C#4
Note OFF: Time 168000, Note Name: G#4
Note OFF: Time 168000, Note Name: G#3
Note ON: Time 168000, Note Name: C#4, Velocity: 22
Note ON: Time 168000, Note Name: G#3, Velocity: 22
Note ON: Time 168000, Note Name: B3, Velocity: 22
Note ON: Time 168000, Note Name: G#4, Velocity: 26
Note OFF: Time 168480, Note Name: G#4
Note OFF: Time 168480, Note Name: C#4
Note OFF: Time 168480, Note Name: G#3
Note OFF: Time 168480, Note Name: B3
Note ON: Time 168480, Note Name: G#3, Velocity: 22
Note ON: Time 168480, Note Name: B3, Velocity: 22
Note ON: Time 168480, Note Name: C#4, Velocity: 22
Note ON: Time 168480, Note Name: G#4, Velocity: 26
Note OFF: Time 168960, Note Name: G#4
Note OFF: Time 168960, Note Name: G#3
Note OFF: Time 168960, Note Name: B3
Note OFF: Time 168960, Note Name: C#4
Note ON: Time 168960, Note Name: G#3, Velocity: 23
Note ON: Time 168960, Note Name: B3, Velocity: 23
Note ON: Time 168960, Note Name: C#4, Velocity: 27
Note OFF: Time 169440, Note Name: C#4
Note OFF: Time 169440, Note Name: B3
Note OFF: Time 169440, Note Name: G#3
Note ON: Time 169440, Note Name: G#3, Velocity: 23
Note ON: Time 169440, Note Name: B3, Velocity: 27
Note ON: Time 169440, Note Name: C#4, Velocity: 27
Note OFF: Time 169920, Note Name: C#4
Note OFF: Time 169920, Note Name: B3
Note OFF: Time 169920, Note Name: G#3
Note ON: Time 169920, Note Name: G#3, Velocity: 23
Note ON: Time 169920, Note Name: B3, Velocity: 23
Note ON: Time 169920, Note Name: C#4, Velocity: 27
Note OFF: Time 170400, Note Name: C#4
Note OFF: Time 170400, Note Name: B3
Note OFF: Time 170400, Note Name: G#3
Note ON: Time 170400, Note Name: F#3, Velocity: 23
Note ON: Time 170400, Note Name: B3, Velocity: 23
Note ON: Time 170400, Note Name: C#4, Velocity: 27
Note OFF: Time 170880, Note Name: C#4
Note OFF: Time 170880, Note Name: B3
Note OFF: Time 170880, Note Name: F#3
Note ON: Time 170880, Note Name: G#3, Velocity: 23
Note ON: Time 170880, Note Name: B3, Velocity: 23
Note ON: Time 170880, Note Name: C#4, Velocity: 27
Note OFF: Time 171360, Note Name: C#4
Note OFF: Time 171360, Note Name: B3
Note OFF: Time 171360, Note Name: G#3
Note ON: Time 171360, Note Name: G#3, Velocity: 23
Note ON: Time 171360, Note Name: B3, Velocity: 23
Note ON: Time 171360, Note Name: C#4, Velocity: 27
Note OFF: Time 171840, Note Name: C#4
Note OFF: Time 171840, Note Name: B3
Note OFF: Time 171840, Note Name: G#3
Note ON: Time 171840, Note Name: F#3, Velocity: 22
Note ON: Time 171840, Note Name: B3, Velocity: 22
Note ON: Time 171840, Note Name: C#4, Velocity: 26
Note OFF: Time 172320, Note Name: C#4
Note OFF: Time 172320, Note Name: B3
Note OFF: Time 172320, Note Name: F#3
Note ON: Time 172320, Note Name: G#3, Velocity: 22
Note ON: Time 172320, Note Name: B3, Velocity: 22
Note ON: Time 172320, Note Name: C#4, Velocity: 26
Note OFF: Time 172800, Note Name: C#4
Note OFF: Time 172800, Note Name: B3
Note OFF: Time 172800, Note Name: G#3
Note ON: Time 172800, Note Name: G#3, Velocity: 20
Note ON: Time 172800, Note Name: B3, Velocity: 20
Note ON: Time 172800, Note Name: C#4, Velocity: 24
Note OFF: Time 173280, Note Name: C#4
Note OFF: Time 173280, Note Name: B3
Note OFF: Time 173280, Note Name: G#3
Note ON: Time 173280, Note Name: F#3, Velocity: 18
Note ON: Time 173280, Note Name: B3, Velocity: 18
Note ON: Time 173280, Note Name: C#4, Velocity: 23
Note OFF: Time 173760, Note Name: C#4
Note OFF: Time 173760, Note Name: B3
Note OFF: Time 173760, Note Name: F#3
Note ON: Time 173760, Note Name: G#3, Velocity: 18
Note ON: Time 173760, Note Name: B3, Velocity: 18
Note ON: Time 173760, Note Name: C#4, Velocity: 23
Note OFF: Time 174240, Note Name: C#4
Note OFF: Time 174240, Note Name: B3
Note OFF: Time 174240, Note Name: G#3
Note ON: Time 174240, Note Name: F#2, Velocity: 37
Note OFF: Time 174720, Note Name: F#2
Note ON: Time 174720, Note Name: D#4, Velocity: 25
Note ON: Time 174720, Note Name: F#3, Velocity: 21
Note ON: Time 174720, Note Name: C#3, Velocity: 21
Note OFF: Time 175200, Note Name: C#3
Note OFF: Time 175200, Note Name: F#3
Note OFF: Time 175200, Note Name: D#4
Note ON: Time 175200, Note Name: C#3, Velocity: 18
Note ON: Time 175200, Note Name: F#3, Velocity: 18
Note ON: Time 175200, Note Name: C#4, Velocity: 23
Note OFF: Time 175680, Note Name: C#4
Note OFF: Time 175680, Note Name: F#3
Note OFF: Time 175680, Note Name: C#3
Note ON: Time 175680, Note Name: F#2, Velocity: 34
Note OFF: Time 176160, Note Name: F#2
Note ON: Time 176160, Note Name: D#4, Velocity: 23
Note ON: Time 176160, Note Name: C#3, Velocity: 18
Note ON: Time 176160, Note Name: F#3, Velocity: 18
Note OFF: Time 176640, Note Name: F#3
Note OFF: Time 176640, Note Name: C#3
Note OFF: Time 176640, Note Name: D#4
Note ON: Time 176640, Note Name: C#3, Velocity: 15
Note ON: Time 176640, Note Name: F#3, Velocity: 15
Note ON: Time 176640, Note Name: C#4, Velocity: 18
Note OFF: Time 177120, Note Name: C#4
Note OFF: Time 177120, Note Name: F#3
Note OFF: Time 177120, Note Name: C#3
Note ON: Time 177120, Note Name: C#2, Velocity: 33
Note OFF: Time 177600, Note Name: C#2
Note ON: Time 177600, Note Name: D#4, Velocity: 27
Note ON: Time 177600, Note Name: F#3, Velocity: 23
Note ON: Time 177600, Note Name: C#3, Velocity: 23
Note OFF: Time 178080, Note Name: C#3
Note OFF: Time 178080, Note Name: F#3
Note OFF: Time 178080, Note Name: D#4
Note ON: Time 178080, Note Name: C#3, Velocity: 18
Note ON: Time 178080, Note Name: F#3, Velocity: 18
Note ON: Time 178080, Note Name: C#4, Velocity: 23
Note OFF: Time 178560, Note Name: C#4
Note OFF: Time 178560, Note Name: F#3
Note OFF: Time 178560, Note Name: C#3
Note ON: Time 178560, Note Name: F#2, Velocity: 34
Note OFF: Time 179040, Note Name: F#2
Note ON: Time 179040, Note Name: D#4, Velocity: 24
Note ON: Time 179040, Note Name: C#3, Velocity: 20
Note ON: Time 179040, Note Name: F#3, Velocity: 20
Note OFF: Time 179520, Note Name: F#3
Note OFF: Time 179520, Note Name: C#3
Note OFF: Time 179520, Note Name: D#4
Note ON: Time 179520, Note Name: C#3, Velocity: 17
Note ON: Time 179520, Note Name: F#3, Velocity: 17
Note ON: Time 179520, Note Name: C#4, Velocity: 22
Note OFF: Time 180000, Note Name: C#4
Note OFF: Time 180000, Note Name: F#3
Note OFF: Time 180000, Note Name: C#3
Note ON: Time 180000, Note Name: C#3, Velocity: 12
Note ON: Time 180000, Note Name: F#3, Velocity: 12
Note ON: Time 180000, Note Name: C#4, Velocity: 21
Note OFF: Time 180480, Note Name: C#4
Note OFF: Time 180480, Note Name: F#3
Note OFF: Time 180480, Note Name: C#3
Note ON: Time 180480, Note Name: C#3, Velocity: 18
Note ON: Time 180480, Note Name: F#3, Velocity: 18
Note ON: Time 180480, Note Name: B3, Velocity: 23
Note OFF: Time 180960, Note Name: B3
Note OFF: Time 180960, Note Name: F#3
Note OFF: Time 180960, Note Name: C#3
Note ON: Time 180960, Note Name: C#3, Velocity: 13
Note ON: Time 180960, Note Name: F#3, Velocity: 15
Note ON: Time 180960, Note Name: A#3, Velocity: 22
Note OFF: Time 181440, Note Name: A#3
Note OFF: Time 181440, Note Name: F#3
Note OFF: Time 181440, Note Name: C#3
Note ON: Time 181440, Note Name: C#3, Velocity: 20
Note ON: Time 181440, Note Name: F#3, Velocity: 20
Note ON: Time 181440, Note Name: A#3, Velocity: 24
Note OFF: Time 181920, Note Name: A#3
Note OFF: Time 181920, Note Name: F#3
Note OFF: Time 181920, Note Name: C#3
Note ON: Time 181920, Note Name: B2, Velocity: 20
Note ON: Time 181920, Note Name: C#3, Velocity: 24
Note OFF: Time 182400, Note Name: C#3
Note OFF: Time 182400, Note Name: B2
Note ON: Time 182400, Note Name: A#2, Velocity: 18
Note ON: Time 182400, Note Name: C#3, Velocity: 24
Note OFF: Time 182880, Note Name: C#3
Note OFF: Time 182880, Note Name: A#2
Note ON: Time 182880, Note Name: A#2, Velocity: 18
Note ON: Time 182880, Note Name: C#3, Velocity: 24
Note OFF: Time 183360, Note Name: C#3
Note OFF: Time 183360, Note Name: A#2
Note ON: Time 183360, Note Name: B2, Velocity: 18
Note ON: Time 183360, Note Name: C#3, Velocity: 23
Note OFF: Time 183840, Note Name: C#3
Note OFF: Time 183840, Note Name: B2
Note ON: Time 183840, Note Name: A#2, Velocity: 18
Note ON: Time 183840, Note Name: C#3, Velocity: 23
Note OFF: Time 184320, Note Name: C#3
Note OFF: Time 184320, Note Name: A#2
Note ON: Time 184320, Note Name: A#2, Velocity: 17
Note ON: Time 184320, Note Name: C#3, Velocity: 23
Note OFF: Time 184800, Note Name: C#3
Note OFF: Time 184800, Note Name: A#2
Note ON: Time 184800, Note Name: G#2, Velocity: 17
Note ON: Time 184800, Note Name: C#3, Velocity: 22
Note OFF: Time 185280, Note Name: C#3
Note OFF: Time 185280, Note Name: G#2
Note ON: Time 185280, Note Name: F#2, Velocity: 17
Note ON: Time 185280, Note Name: C#3, Velocity: 22
Note OFF: Time 185760, Note Name: C#3
Note OFF: Time 185760, Note Name: F#2
Note ON: Time 185760, Note Name: G#2, Velocity: 31
Note OFF: Time 186240, Note Name: G#2
Note ON: Time 186240, Note Name: E4, Velocity: 26
Note ON: Time 186240, Note Name: G#3, Velocity: 22
Note ON: Time 186240, Note Name: D#3, Velocity: 22
Note OFF: Time 186720, Note Name: D#3
Note OFF: Time 186720, Note Name: G#3
Note OFF: Time 186720, Note Name: E4
Note ON: Time 186720, Note Name: D#3, Velocity: 17
Note ON: Time 186720, Note Name: G#3, Velocity: 17
Note ON: Time 186720, Note Name: D#4, Velocity: 22
Note OFF: Time 187200, Note Name: D#4
Note OFF: Time 187200, Note Name: G#3
Note OFF: Time 187200, Note Name: D#3
Note ON: Time 187200, Note Name: G#2, Velocity: 38
Note OFF: Time 187680, Note Name: G#2
Note ON: Time 187680, Note Name: E4, Velocity: 24
Note ON: Time 187680, Note Name: D#3, Velocity: 18
Note ON: Time 187680, Note Name: G#3, Velocity: 18
Note OFF: Time 188160, Note Name: G#3
Note OFF: Time 188160, Note Name: D#3
Note OFF: Time 188160, Note Name: E4
Note ON: Time 188160, Note Name: D#3, Velocity: 17
Note ON: Time 188160, Note Name: G#3, Velocity: 17
Note ON: Time 188160, Note Name: D#4, Velocity: 21
Note OFF: Time 188640, Note Name: D#4
Note OFF: Time 188640, Note Name: G#3
Note OFF: Time 188640, Note Name: D#3
Note ON: Time 188640, Note Name: D#2, Velocity: 33
Note OFF: Time 189120, Note Name: D#2
Note ON: Time 189120, Note Name: E4, Velocity: 22
Note ON: Time 189120, Note Name: A#3, Velocity: 17
Note ON: Time 189120, Note Name: D#3, Velocity: 17
Note OFF: Time 189600, Note Name: D#3
Note OFF: Time 189600, Note Name: A#3
Note OFF: Time 189600, Note Name: E4
Note ON: Time 189600, Note Name: D#3, Velocity: 14
Note ON: Time 189600, Note Name: A#3, Velocity: 14
Note ON: Time 189600, Note Name: D#4, Velocity: 17
Note OFF: Time 190080, Note Name: D#4
Note OFF: Time 190080, Note Name: A#3
Note OFF: Time 190080, Note Name: D#3
Note ON: Time 190080, Note Name: G#2, Velocity: 34
Note OFF: Time 190560, Note Name: G#2
Note ON: Time 190560, Note Name: E4, Velocity: 25
Note ON: Time 190560, Note Name: D#3, Velocity: 21
Note ON: Time 190560, Note Name: G#3, Velocity: 21
Note OFF: Time 191040, Note Name: G#3
Note OFF: Time 191040, Note Name: D#3
Note OFF: Time 191040, Note Name: E4
Note ON: Time 191040, Note Name: D#3, Velocity: 18
Note ON: Time 191040, Note Name: G#3, Velocity: 18
Note ON: Time 191040, Note Name: D#4, Velocity: 23
Note OFF: Time 191520, Note Name: D#4
Note OFF: Time 191520, Note Name: G#3
Note OFF: Time 191520, Note Name: D#3
Note ON: Time 191520, Note Name: D#3, Velocity: 16
Note ON: Time 191520, Note Name: G#3, Velocity: 16
Note ON: Time 191520, Note Name: D#4, Velocity: 25
Note OFF: Time 191994, Note Name: D#4
Note OFF: Time 192000, Note Name: G#3
Note OFF: Time 192000, Note Name: D#3
Note ON: Time 192000, Note Name: D#3, Velocity: 20
Note ON: Time 192000, Note Name: G#3, Velocity: 20
Note ON: Time 192000, Note Name: C#4, Velocity: 24
Note OFF: Time 192480, Note Name: C#4
Note OFF: Time 192480, Note Name: G#3
Note OFF: Time 192480, Note Name: D#3
Note ON: Time 192480, Note Name: D#3, Velocity: 20
Note ON: Time 192480, Note Name: G#3, Velocity: 20
Note ON: Time 192480, Note Name: B3, Velocity: 24
Note OFF: Time 192960, Note Name: B3
Note OFF: Time 192960, Note Name: G#3
Note OFF: Time 192960, Note Name: D#3
Note ON: Time 192960, Note Name: D#3, Velocity: 21
Note ON: Time 192960, Note Name: G#3, Velocity: 21
Note ON: Time 192960, Note Name: B3, Velocity: 25
Note OFF: Time 193440, Note Name: B3
Note OFF: Time 193440, Note Name: G#3
Note OFF: Time 193440, Note Name: D#3
Note ON: Time 193440, Note Name: C#3, Velocity: 20
Note ON: Time 193440, Note Name: D#3, Velocity: 24
Note OFF: Time 193920, Note Name: D#3
Note OFF: Time 193920, Note Name: C#3
Note ON: Time 193920, Note Name: B2, Velocity: 20
Note ON: Time 193920, Note Name: D#3, Velocity: 24
Note OFF: Time 194400, Note Name: D#3
Note OFF: Time 194400, Note Name: B2
Note ON: Time 194400, Note Name: B2, Velocity: 20
Note ON: Time 194400, Note Name: D#3, Velocity: 24
Note OFF: Time 194880, Note Name: D#3
Note OFF: Time 194880, Note Name: B2
Note ON: Time 194880, Note Name: C#3, Velocity: 20
Note ON: Time 194880, Note Name: D#3, Velocity: 21
Note OFF: Time 195360, Note Name: D#3
Note OFF: Time 195360, Note Name: C#3
Note ON: Time 195360, Note Name: B2, Velocity: 18
Note ON: Time 195360, Note Name: D#3, Velocity: 23
Note OFF: Time 195840, Note Name: D#3
Note OFF: Time 195840, Note Name: B2
Note ON: Time 195840, Note Name: B2, Velocity: 18
Note ON: Time 195840, Note Name: D#3, Velocity: 23
Note OFF: Time 196320, Note Name: D#3
Note OFF: Time 196320, Note Name: B2
Note ON: Time 196320, Note Name: A#2, Velocity: 17
Note ON: Time 196320, Note Name: D#3, Velocity: 22
Note OFF: Time 196800, Note Name: D#3
Note OFF: Time 196800, Note Name: A#2
Note ON: Time 196800, Note Name: G#2, Velocity: 16
Note ON: Time 196800, Note Name: D#3, Velocity: 20
Note OFF: Time 197280, Note Name: D#3
Note OFF: Time 197280, Note Name: G#2
Note ON: Time 197280, Note Name: C#2, Velocity: 20
Note OFF: Time 197760, Note Name: C#2
Note ON: Time 198240, Note Name: C#3, Velocity: 27
Note OFF: Time 198600, Note Name: C#3
Note ON: Time 198600, Note Name: D3, Velocity: 26
Note OFF: Time 198660, Note Name: D3
Note ON: Time 198660, Note Name: D#3, Velocity: 26
Note OFF: Time 198720, Note Name: D#3
Note ON: Time 198720, Note Name: F3, Velocity: 25
Note OFF: Time 198800, Note Name: F3
Note ON: Time 198800, Note Name: D#3, Velocity: 21
Note OFF: Time 198880, Note Name: D#3
Note ON: Time 198880, Note Name: F3, Velocity: 24
Note OFF: Time 198960, Note Name: F3
Note ON: Time 198960, Note Name: D#3, Velocity: 22
Note OFF: Time 199040, Note Name: D#3
Note ON: Time 199040, Note Name: F3, Velocity: 24
Note OFF: Time 199120, Note Name: F3
Note ON: Time 199120, Note Name: D#3, Velocity: 21
Note OFF: Time 199200, Note Name: D#3
Note ON: Time 199200, Note Name: F3, Velocity: 24
Note OFF: Time 199280, Note Name: F3
Note ON: Time 199280, Note Name: D#3, Velocity: 21
Note OFF: Time 199360, Note Name: D#3
Note ON: Time 199360, Note Name: F3, Velocity: 24
Note OFF: Time 199440, Note Name: F3
Note ON: Time 199440, Note Name: D#3, Velocity: 21
Note OFF: Time 199520, Note Name: D#3
Note ON: Time 199520, Note Name: F3, Velocity: 24
Note OFF: Time 199600, Note Name: F3
Note ON: Time 199600, Note Name: D#3, Velocity: 21
Note OFF: Time 199680, Note Name: D#3
Note ON: Time 199680, Note Name: F3, Velocity: 24
Note OFF: Time 199800, Note Name: F3
Note ON: Time 199800, Note Name: D#3, Velocity: 21
Note OFF: Time 199920, Note Name: D#3
Note ON: Time 199920, Note Name: F3, Velocity: 24
Note OFF: Time 199980, Note Name: F3
Note ON: Time 199980, Note Name: D#3, Velocity: 20
Note OFF: Time 200040, Note Name: D#3
Note ON: Time 200040, Note Name: C#3, Velocity: 24
Note OFF: Time 200100, Note Name: C#3
Note ON: Time 200100, Note Name: D#3, Velocity: 18
Note OFF: Time 200160, Note Name: D#3
Note ON: Time 200160, Note Name: F3, Velocity: 32
Note OFF: Time 200640, Note Name: F3
Note ON: Time 200640, Note Name: C#2, Velocity: 25
Note OFF: Time 201120, Note Name: C#2
Note ON: Time 201120, Note Name: C#3, Velocity: 27
Note OFF: Time 201480, Note Name: C#3
Note ON: Time 201480, Note Name: D3, Velocity: 26
Note OFF: Time 201540, Note Name: D3
Note ON: Time 201540, Note Name: D#3, Velocity: 26
Note OFF: Time 201600, Note Name: D#3
Note ON: Time 201600, Note Name: F3, Velocity: 25
Note OFF: Time 201680, Note Name: F3
Note ON: Time 201680, Note Name: D#3, Velocity: 21
Note OFF: Time 201760, Note Name: D#3
Note ON: Time 201760, Note Name: F3, Velocity: 24
Note OFF: Time 201840, Note Name: F3
Note ON: Time 201840, Note Name: D#3, Velocity: 22
Note OFF: Time 201920, Note Name: D#3
Note ON: Time 201920, Note Name: F3, Velocity: 24
Note OFF: Time 202000, Note Name: F3
Note ON: Time 202000, Note Name: D#3, Velocity: 21
Note OFF: Time 202080, Note Name: D#3
Note ON: Time 202080, Note Name: F3, Velocity: 24
Note OFF: Time 202160, Note Name: F3
Note ON: Time 202160, Note Name: D#3, Velocity: 21
Note OFF: Time 202240, Note Name: D#3
Note ON: Time 202240, Note Name: F3, Velocity: 24
Note OFF: Time 202320, Note Name: F3
Note ON: Time 202320, Note Name: D#3, Velocity: 21
Note OFF: Time 202400, Note Name: D#3
Note ON: Time 202400, Note Name: F3, Velocity: 24
Note OFF: Time 202480, Note Name: F3
Note ON: Time 202480, Note Name: D#3, Velocity: 21
Note OFF: Time 202560, Note Name: D#3
Note ON: Time 202560, Note Name: F3, Velocity: 24
Note OFF: Time 202680, Note Name: F3
Note ON: Time 202680, Note Name: D#3, Velocity: 21
Note OFF: Time 202800, Note Name: D#3
Note ON: Time 202800, Note Name: F3, Velocity: 24
Note OFF: Time 202860, Note Name: F3
Note ON: Time 202860, Note Name: D#3, Velocity: 20
Note OFF: Time 202920, Note Name: D#3
Note ON: Time 202920, Note Name: C#3, Velocity: 24
Note OFF: Time 202980, Note Name: C#3
Note ON: Time 202980, Note Name: D#3, Velocity: 18
Note OFF: Time 203040, Note Name: D#3
Note ON: Time 203040, Note Name: F3, Velocity: 34
Note OFF: Time 203520, Note Name: F3
Note ON: Time 203520, Note Name: C#2, Velocity: 36
Note OFF: Time 204000, Note Name: C#2
Note ON: Time 204000, Note Name: C#3, Velocity: 17
Note ON: Time 204000, Note Name: G#3, Velocity: 17
Note ON: Time 204000, Note Name: C#4, Velocity: 26
Note OFF: Time 204480, Note Name: C#4
Note OFF: Time 204480, Note Name: G#3
Note OFF: Time 204480, Note Name: C#3
Note ON: Time 204480, Note Name: C#3, Velocity: 20
Note ON: Time 204480, Note Name: G#3, Velocity: 20
Note ON: Time 204480, Note Name: C#4, Velocity: 28
Note OFF: Time 204960, Note Name: C#4
Note OFF: Time 204960, Note Name: G#3
Note OFF: Time 204960, Note Name: C#3
Note ON: Time 204960, Note Name: C#3, Velocity: 21
Note ON: Time 204960, Note Name: G#3, Velocity: 21
Note ON: Time 204960, Note Name: B3, Velocity: 32
Note OFF: Time 205440, Note Name: B3
Note OFF: Time 205440, Note Name: G#3
Note OFF: Time 205440, Note Name: C#3
Note ON: Time 205440, Note Name: C#3, Velocity: 21
Note ON: Time 205440, Note Name: G#3, Velocity: 21
Note ON: Time 205440, Note Name: B3, Velocity: 35
Note OFF: Time 205920, Note Name: B3
Note OFF: Time 205920, Note Name: G#3
Note OFF: Time 205920, Note Name: C#3
Note ON: Time 205920, Note Name: C#3, Velocity: 26
Note ON: Time 205920, Note Name: G#3, Velocity: 26
Note ON: Time 205920, Note Name: B3, Velocity: 37
Note OFF: Time 206400, Note Name: B3
Note OFF: Time 206400, Note Name: G#3
Note OFF: Time 206400, Note Name: C#3
Note ON: Time 206400, Note Name: C#3, Velocity: 21
Note ON: Time 206400, Note Name: G#3, Velocity: 21
Note ON: Time 206400, Note Name: B3, Velocity: 31
Note OFF: Time 206875, Note Name: B3
Note OFF: Time 206880, Note Name: G#3
Note OFF: Time 206880, Note Name: C#3
Note ON: Time 206880, Note Name: C#3, Velocity: 17
Note ON: Time 206880, Note Name: G#3, Velocity: 26
Note OFF: Time 207360, Note Name: G#3
Note OFF: Time 207360, Note Name: C#3
Note ON: Time 207360, Note Name: F#2, Velocity: 18
Note ON: Time 207360, Note Name: C#3, Velocity: 25
Note OFF: Time 207840, Note Name: C#3
Note OFF: Time 207840, Note Name: F#2
Note ON: Time 207840, Note Name: A#3, Velocity: 39
Note OFF: Time 208080, Note Name: A#3
Note ON: Time 208080, Note Name: G#3, Velocity: 37
Note OFF: Time 208320, Note Name: G#3
Note ON: Time 208320, Note Name: F#3, Velocity: 36
Note OFF: Time 208560, Note Name: F#3
Note ON: Time 208560, Note Name: F3, Velocity: 35
Note OFF: Time 208800, Note Name: F3
Note ON: Time 208800, Note Name: F3, Velocity: 39
Note OFF: Time 209040, Note Name: F3
Note ON: Time 209040, Note Name: D#3, Velocity: 39
Note OFF: Time 209280, Note Name: D#3
Note ON: Time 209280, Note Name: C#3, Velocity: 37
Note OFF: Time 209520, Note Name: C#3
Note ON: Time 209520, Note Name: C3, Velocity: 36
Note OFF: Time 209760, Note Name: C3
Note ON: Time 209760, Note Name: A#2, Velocity: 35
Note OFF: Time 210000, Note Name: A#2
Note ON: Time 210000, Note Name: G#2, Velocity: 35
Note OFF: Time 210240, Note Name: G#2
Note ON: Time 210240, Note Name: C#2, Velocity: 35
Note OFF: Time 210480, Note Name: C#2
Note ON: Time 210720, Note Name: A#3, Velocity: 42
Note OFF: Time 210960, Note Name: A#3
Note ON: Time 210960, Note Name: G#3, Velocity: 37
Note OFF: Time 211200, Note Name: G#3
Note ON: Time 211200, Note Name: F#3, Velocity: 36
Note OFF: Time 211440, Note Name: F#3
Note ON: Time 211440, Note Name: F3, Velocity: 36
Note OFF: Time 211680, Note Name: F3
Note ON: Time 211680, Note Name: F3, Velocity: 39
Note OFF: Time 211920, Note Name: F3
Note ON: Time 211920, Note Name: D#3, Velocity: 39
Note OFF: Time 212160, Note Name: D#3
Note ON: Time 212160, Note Name: C#3, Velocity: 37
Note OFF: Time 212400, Note Name: C#3
Note ON: Time 212400, Note Name: C3, Velocity: 36
Note OFF: Time 212640, Note Name: C3
Note ON: Time 212640, Note Name: A#2, Velocity: 36
Note OFF: Time 212880, Note Name: A#2
Note ON: Time 212880, Note Name: G#2, Velocity: 35
Note OFF: Time 213120, Note Name: G#2
Note ON: Time 213120, Note Name: C#2, Velocity: 35
Note OFF: Time 213360, Note Name: C#2
Note ON: Time 213600, Note Name: G#3, Velocity: 35
Note OFF: Time 213840, Note Name: G#3
Note ON: Time 213840, Note Name: A#3, Velocity: 36
Note OFF: Time 214080, Note Name: A#3
Note ON: Time 214080, Note Name: C4, Velocity: 37
Note OFF: Time 214320, Note Name: C4
Note ON: Time 214320, Note Name: C#4, Velocity: 41
Note OFF: Time 214560, Note Name: C#4
Note ON: Time 214560, Note Name: C#4, Velocity: 45
Note OFF: Time 214800, Note Name: C#4
Note ON: Time 214800, Note Name: C4, Velocity: 37
Note OFF: Time 215040, Note Name: C4
Note ON: Time 215040, Note Name: E3, Velocity: 41
Note OFF: Time 215280, Note Name: E3
Note ON: Time 215280, Note Name: F3, Velocity: 36
Note OFF: Time 215520, Note Name: F3
Note ON: Time 215520, Note Name: C#4, Velocity: 39
Note OFF: Time 215760, Note Name: C#4
Note ON: Time 215760, Note Name: C4, Velocity: 35
Note OFF: Time 216000, Note Name: C4
Note ON: Time 216000, Note Name: A#3, Velocity: 39
Note OFF: Time 216480, Note Name: A#3
Note ON: Time 216480, Note Name: A#2, Velocity: 41
Note OFF: Time 216720, Note Name: A#2
Note ON: Time 216720, Note Name: F3, Velocity: 35
Note OFF: Time 216960, Note Name: F3
Note ON: Time 216960, Note Name: G#3, Velocity: 37
Note OFF: Time 217200, Note Name: G#3
Note ON: Time 217200, Note Name: C4, Velocity: 35
Note OFF: Time 217440, Note Name: C4
Note ON: Time 217440, Note Name: C4, Velocity: 39
Note OFF: Time 217680, Note Name: C4
Note ON: Time 217680, Note Name: A#3, Velocity: 35
Note OFF: Time 217920, Note Name: A#3
Note ON: Time 217920, Note Name: D3, Velocity: 36
Note OFF: Time 218160, Note Name: D3
Note ON: Time 218160, Note Name: D#3, Velocity: 35
Note OFF: Time 218400, Note Name: D#3
Note ON: Time 218400, Note Name: C4, Velocity: 37
Note OFF: Time 218640, Note Name: C4
Note ON: Time 218640, Note Name: A#3, Velocity: 35
Note OFF: Time 218880, Note Name: A#3
Note ON: Time 218880, Note Name: G#3, Velocity: 37
Note OFF: Time 219360, Note Name: G#3
Note ON: Time 219360, Note Name: A#3, Velocity: 39
Note OFF: Time 219600, Note Name: A#3
Note ON: Time 219600, Note Name: G#3, Velocity: 37
Note OFF: Time 219840, Note Name: G#3
Note ON: Time 219840, Note Name: F#3, Velocity: 36
Note OFF: Time 220080, Note Name: F#3
Note ON: Time 220080, Note Name: F3, Velocity: 35
Note OFF: Time 220320, Note Name: F3
Note ON: Time 220320, Note Name: F3, Velocity: 39
Note OFF: Time 220560, Note Name: F3
Note ON: Time 220560, Note Name: D#3, Velocity: 39
Note OFF: Time 220800, Note Name: D#3
Note ON: Time 220800, Note Name: C#3, Velocity: 37
Note OFF: Time 221040, Note Name: C#3
Note ON: Time 221040, Note Name: C3, Velocity: 36
Note OFF: Time 221280, Note Name: C3
Note ON: Time 221280, Note Name: A#2, Velocity: 35
Note OFF: Time 221520, Note Name: A#2
Note ON: Time 221520, Note Name: G#2, Velocity: 35
Note OFF: Time 221760, Note Name: G#2
Note ON: Time 221760, Note Name: C#2, Velocity: 35
Note OFF: Time 222000, Note Name: C#2
Note ON: Time 222240, Note Name: A#3, Velocity: 42
Note OFF: Time 222480, Note Name: A#3
Note ON: Time 222480, Note Name: G#3, Velocity: 37
Note OFF: Time 222720, Note Name: G#3
Note ON: Time 222720, Note Name: F#3, Velocity: 36
Note OFF: Time 222960, Note Name: F#3
Note ON: Time 222960, Note Name: F3, Velocity: 36
Note OFF: Time 223200, Note Name: F3
Note ON: Time 223200, Note Name: F3, Velocity: 39
Note OFF: Time 223440, Note Name: F3
Note ON: Time 223440, Note Name: D#3, Velocity: 39
Note OFF: Time 223680, Note Name: D#3
Note ON: Time 223680, Note Name: C#3, Velocity: 37
Note OFF: Time 223920, Note Name: C#3
Note ON: Time 223920, Note Name: C3, Velocity: 36
Note OFF: Time 224160, Note Name: C3
Note ON: Time 224160, Note Name: A#2, Velocity: 36
Note OFF: Time 224400, Note Name: A#2
Note ON: Time 224400, Note Name: G#2, Velocity: 35
Note OFF: Time 224640, Note Name: G#2
Note ON: Time 224640, Note Name: C#2, Velocity: 35
Note OFF: Time 224880, Note Name: C#2
Note ON: Time 225120, Note Name: G#3, Velocity: 39
Note OFF: Time 225360, Note Name: G#3
Note ON: Time 225360, Note Name: G3, Velocity: 36
Note OFF: Time 225600, Note Name: G3
Note ON: Time 225600, Note Name: A#3, Velocity: 39
Note OFF: Time 225840, Note Name: A#3
Note ON: Time 225840, Note Name: G#3, Velocity: 34
Note OFF: Time 226080, Note Name: G#3
Note ON: Time 226080, Note Name: B3, Velocity: 39
Note OFF: Time 226560, Note Name: B3
Note ON: Time 226560, Note Name: B2, Velocity: 43
Note OFF: Time 226800, Note Name: B2
Note ON: Time 226800, Note Name: F3, Velocity: 39
Note OFF: Time 227040, Note Name: F3
Note ON: Time 227040, Note Name: G#3, Velocity: 43
Note OFF: Time 227280, Note Name: G#3
Note ON: Time 227280, Note Name: F#3, Velocity: 39
Note OFF: Time 227520, Note Name: F#3
Note ON: Time 227520, Note Name: A#3, Velocity: 45
Note OFF: Time 228000, Note Name: A#3
Note ON: Time 228000, Note Name: F#2, Velocity: 41
Note OFF: Time 228240, Note Name: F#2
Note ON: Time 228240, Note Name: C#3, Velocity: 36
Note OFF: Time 228480, Note Name: C#3
Note ON: Time 228480, Note Name: F#3, Velocity: 41
Note OFF: Time 228720, Note Name: F#3
Note ON: Time 228720, Note Name: A#3, Velocity: 36
Note OFF: Time 228960, Note Name: A#3
Note ON: Time 228960, Note Name: G#3, Velocity: 43
Note OFF: Time 229440, Note Name: G#3
Note ON: Time 229440, Note Name: C#2, Velocity: 39
Note OFF: Time 229680, Note Name: C#2
Note ON: Time 229680, Note Name: G#2, Velocity: 35
Note OFF: Time 229920, Note Name: G#2
Note ON: Time 229920, Note Name: C#3, Velocity: 39
Note OFF: Time 230160, Note Name: C#3
Note ON: Time 230160, Note Name: G#3, Velocity: 36
Note OFF: Time 230400, Note Name: G#3
Note ON: Time 230400, Note Name: C#4, Velocity: 39
Note OFF: Time 230640, Note Name: C#4
Note ON: Time 230640, Note Name: C4, Velocity: 34
Note OFF: Time 230880, Note Name: C4
Note ON: Time 230880, Note Name: B3, Velocity: 35
Note OFF: Time 231120, Note Name: B3
Note ON: Time 231120, Note Name: A#3, Velocity: 34
Note OFF: Time 231360, Note Name: A#3
Note ON: Time 231360, Note Name: B3, Velocity: 41
Note OFF: Time 231600, Note Name: B3
Note ON: Time 231600, Note Name: C#3, Velocity: 35
Note OFF: Time 231840, Note Name: C#3
Note ON: Time 231840, Note Name: F#2, Velocity: 37
Note OFF: Time 232320, Note Name: F#2
Note ON: Time 232320, Note Name: D#4, Velocity: 25
Note ON: Time 232320, Note Name: F#3, Velocity: 21
Note ON: Time 232320, Note Name: C#3, Velocity: 21
Note OFF: Time 232800, Note Name: C#3
Note OFF: Time 232800, Note Name: F#3
Note OFF: Time 232800, Note Name: D#4
Note ON: Time 232800, Note Name: C#3, Velocity: 18
Note ON: Time 232800, Note Name: F#3, Velocity: 18
Note ON: Time 232800, Note Name: C#4, Velocity: 23
Note OFF: Time 233280, Note Name: C#4
Note OFF: Time 233280, Note Name: F#3
Note OFF: Time 233280, Note Name: C#3
Note ON: Time 233280, Note Name: F#2, Velocity: 34
Note OFF: Time 233760, Note Name: F#2
Note ON: Time 233760, Note Name: D#4, Velocity: 23
Note ON: Time 233760, Note Name: C#3, Velocity: 18
Note ON: Time 233760, Note Name: F#3, Velocity: 18
Note OFF: Time 234240, Note Name: F#3
Note OFF: Time 234240, Note Name: C#3
Note OFF: Time 234240, Note Name: D#4
Note ON: Time 234240, Note Name: C#3, Velocity: 15
Note ON: Time 234240, Note Name: F#3, Velocity: 15
Note ON: Time 234240, Note Name: C#4, Velocity: 18
Note OFF: Time 234720, Note Name: C#4
Note OFF: Time 234720, Note Name: F#3
Note OFF: Time 234720, Note Name: C#3
Note ON: Time 234720, Note Name: C#2, Velocity: 33
Note OFF: Time 235200, Note Name: C#2
Note ON: Time 235200, Note Name: D#4, Velocity: 27
Note ON: Time 235200, Note Name: F#3, Velocity: 23
Note ON: Time 235200, Note Name: C#3, Velocity: 23
Note OFF: Time 235680, Note Name: C#3
Note OFF: Time 235680, Note Name: F#3
Note OFF: Time 235680, Note Name: D#4
Note ON: Time 235680, Note Name: C#3, Velocity: 18
Note ON: Time 235680, Note Name: F#3, Velocity: 18
Note ON: Time 235680, Note Name: C#4, Velocity: 23
Note OFF: Time 236160, Note Name: C#4
Note OFF: Time 236160, Note Name: F#3
Note OFF: Time 236160, Note Name: C#3
Note ON: Time 236160, Note Name: F#2, Velocity: 34
Note OFF: Time 236640, Note Name: F#2
Note ON: Time 236640, Note Name: D#4, Velocity: 24
Note ON: Time 236640, Note Name: C#3, Velocity: 20
Note ON: Time 236640, Note Name: F#3, Velocity: 20
Note OFF: Time 237120, Note Name: F#3
Note OFF: Time 237120, Note Name: C#3
Note OFF: Time 237120, Note Name: D#4
Note ON: Time 237120, Note Name: C#3, Velocity: 17
Note ON: Time 237120, Note Name: F#3, Velocity: 17
Note ON: Time 237120, Note Name: C#4, Velocity: 22
Note OFF: Time 237600, Note Name: C#4
Note OFF: Time 237600, Note Name: F#3
Note OFF: Time 237600, Note Name: C#3
Note ON: Time 237600, Note Name: C#3, Velocity: 12
Note ON: Time 237600, Note Name: F#3, Velocity: 15
Note ON: Time 237600, Note Name: C#4, Velocity: 22
Note OFF: Time 238080, Note Name: C#4
Note OFF: Time 238080, Note Name: F#3
Note OFF: Time 238080, Note Name: C#3
Note ON: Time 238080, Note Name: C#3, Velocity: 18
Note ON: Time 238080, Note Name: F#3, Velocity: 18
Note ON: Time 238080, Note Name: B3, Velocity: 23
Note OFF: Time 238560, Note Name: B3
Note OFF: Time 238560, Note Name: F#3
Note OFF: Time 238560, Note Name: C#3
Note ON: Time 238560, Note Name: C#3, Velocity: 12
Note ON: Time 238560, Note Name: F#3, Velocity: 15
Note ON: Time 238560, Note Name: A#3, Velocity: 21
Note OFF: Time 239040, Note Name: A#3
Note OFF: Time 239040, Note Name: F#3
Note OFF: Time 239040, Note Name: C#3
Note ON: Time 239040, Note Name: C#3, Velocity: 13
Note ON: Time 239040, Note Name: F#3, Velocity: 16
Note ON: Time 239040, Note Name: A#3, Velocity: 21
Note OFF: Time 239520, Note Name: A#3
Note OFF: Time 239520, Note Name: F#3
Note OFF: Time 239520, Note Name: C#3
Note ON: Time 239520, Note Name: B2, Velocity: 20
Note ON: Time 239520, Note Name: C#3, Velocity: 24
Note OFF: Time 240000, Note Name: C#3
Note OFF: Time 240000, Note Name: B2
Note ON: Time 240000, Note Name: A#2, Velocity: 20
Note ON: Time 240000, Note Name: C#3, Velocity: 24
Note OFF: Time 240480, Note Name: C#3
Note OFF: Time 240480, Note Name: A#2
Note ON: Time 240480, Note Name: A#2, Velocity: 20
Note ON: Time 240480, Note Name: C#3, Velocity: 24
Note OFF: Time 240960, Note Name: C#3
Note OFF: Time 240960, Note Name: A#2
Note ON: Time 240960, Note Name: B2, Velocity: 20
Note ON: Time 240960, Note Name: C#3, Velocity: 24
Note OFF: Time 241440, Note Name: C#3
Note OFF: Time 241440, Note Name: B2
Note ON: Time 241440, Note Name: A#2, Velocity: 20
Note ON: Time 241440, Note Name: C#3, Velocity: 24
Note OFF: Time 241920, Note Name: C#3
Note OFF: Time 241920, Note Name: A#2
Note ON: Time 241920, Note Name: A#2, Velocity: 20
Note ON: Time 241920, Note Name: C#3, Velocity: 24
Note OFF: Time 242400, Note Name: C#3
Note OFF: Time 242400, Note Name: A#2
Note ON: Time 242400, Note Name: B2, Velocity: 20
Note ON: Time 242400, Note Name: C#3, Velocity: 24
Note OFF: Time 242880, Note Name: C#3
Note OFF: Time 242880, Note Name: B2
Note ON: Time 242880, Note Name: A#2, Velocity: 20
Note ON: Time 242880, Note Name: C#3, Velocity: 24
Note OFF: Time 243360, Note Name: C#3
Note OFF: Time 243360, Note Name: A#2
Note ON: Time 243360, Note Name: G#2, Velocity: 31
Note OFF: Time 243840, Note Name: G#2
Note ON: Time 243840, Note Name: E4, Velocity: 26
Note ON: Time 243840, Note Name: G#3, Velocity: 22
Note ON: Time 243840, Note Name: D#3, Velocity: 22
Note OFF: Time 244320, Note Name: D#3
Note OFF: Time 244320, Note Name: G#3
Note OFF: Time 244320, Note Name: E4
Note ON: Time 244320, Note Name: D#3, Velocity: 17
Note ON: Time 244320, Note Name: G#3, Velocity: 17
Note ON: Time 244320, Note Name: D#4, Velocity: 22
Note OFF: Time 244800, Note Name: D#4
Note OFF: Time 244800, Note Name: G#3
Note OFF: Time 244800, Note Name: D#3
Note ON: Time 244800, Note Name: G#2, Velocity: 38
Note OFF: Time 245280, Note Name: G#2
Note ON: Time 245280, Note Name: E4, Velocity: 24
Note ON: Time 245280, Note Name: D#3, Velocity: 18
Note ON: Time 245280, Note Name: G#3, Velocity: 18
Note OFF: Time 245760, Note Name: G#3
Note OFF: Time 245760, Note Name: D#3
Note OFF: Time 245760, Note Name: E4
Note ON: Time 245760, Note Name: D#3, Velocity: 17
Note ON: Time 245760, Note Name: G#3, Velocity: 17
Note ON: Time 245760, Note Name: D#4, Velocity: 21
Note OFF: Time 246240, Note Name: D#4
Note OFF: Time 246240, Note Name: G#3
Note OFF: Time 246240, Note Name: D#3
Note ON: Time 246240, Note Name: D#2, Velocity: 33
Note OFF: Time 246720, Note Name: D#2
Note ON: Time 246720, Note Name: E4, Velocity: 25
Note ON: Time 246720, Note Name: A#3, Velocity: 21
Note ON: Time 246720, Note Name: D#3, Velocity: 21
Note OFF: Time 247200, Note Name: D#3
Note OFF: Time 247200, Note Name: A#3
Note OFF: Time 247200, Note Name: E4
Note ON: Time 247200, Note Name: D#3, Velocity: 16
Note ON: Time 247200, Note Name: A#3, Velocity: 16
Note ON: Time 247200, Note Name: D#4, Velocity: 21
Note OFF: Time 247680, Note Name: D#4
Note OFF: Time 247680, Note Name: A#3
Note OFF: Time 247680, Note Name: D#3
Note ON: Time 247680, Note Name: G#2, Velocity: 34
Note OFF: Time 248160, Note Name: G#2
Note ON: Time 248160, Note Name: E4, Velocity: 25
Note ON: Time 248160, Note Name: D#3, Velocity: 21
Note ON: Time 248160, Note Name: G#3, Velocity: 21
Note OFF: Time 248640, Note Name: G#3
Note OFF: Time 248640, Note Name: D#3
Note OFF: Time 248640, Note Name: E4
Note ON: Time 248640, Note Name: D#3, Velocity: 18
Note ON: Time 248640, Note Name: G#3, Velocity: 18
Note ON: Time 248640, Note Name: D#4, Velocity: 23
Note OFF: Time 249120, Note Name: D#4
Note OFF: Time 249120, Note Name: G#3
Note OFF: Time 249120, Note Name: D#3
Note ON: Time 249120, Note Name: D#3, Velocity: 16
Note ON: Time 249120, Note Name: G#3, Velocity: 16
Note ON: Time 249120, Note Name: D#4, Velocity: 25
Note OFF: Time 249600, Note Name: D#4
Note OFF: Time 249600, Note Name: G#3
Note OFF: Time 249600, Note Name: D#3
Note ON: Time 249600, Note Name: D#3, Velocity: 20
Note ON: Time 249600, Note Name: G#3, Velocity: 20
Note ON: Time 249600, Note Name: C#4, Velocity: 24
Note OFF: Time 250080, Note Name: C#4
Note OFF: Time 250080, Note Name: G#3
Note OFF: Time 250080, Note Name: D#3
Note ON: Time 250080, Note Name: D#3, Velocity: 20
Note ON: Time 250080, Note Name: G#3, Velocity: 20
Note ON: Time 250080, Note Name: B3, Velocity: 24
Note OFF: Time 250560, Note Name: B3
Note OFF: Time 250560, Note Name: G#3
Note OFF: Time 250560, Note Name: D#3
Note ON: Time 250560, Note Name: D#3, Velocity: 21
Note ON: Time 250560, Note Name: G#3, Velocity: 21
Note ON: Time 250560, Note Name: B3, Velocity: 25
Note OFF: Time 251040, Note Name: B3
Note OFF: Time 251040, Note Name: G#3
Note OFF: Time 251040, Note Name: D#3
Note ON: Time 251040, Note Name: C#3, Velocity: 22
Note ON: Time 251040, Note Name: D#3, Velocity: 26
Note OFF: Time 251520, Note Name: D#3
Note OFF: Time 251520, Note Name: C#3
Note ON: Time 251520, Note Name: B2, Velocity: 22
Note ON: Time 251520, Note Name: D#3, Velocity: 26
Note OFF: Time 252000, Note Name: D#3
Note OFF: Time 252000, Note Name: B2
Note ON: Time 252000, Note Name: B2, Velocity: 22
Note ON: Time 252000, Note Name: D#3, Velocity: 26
Note OFF: Time 252480, Note Name: D#3
Note OFF: Time 252480, Note Name: B2
Note ON: Time 252480, Note Name: C#3, Velocity: 22
Note ON: Time 252480, Note Name: D#3, Velocity: 24
Note OFF: Time 252960, Note Name: D#3
Note OFF: Time 252960, Note Name: C#3
Note ON: Time 252960, Note Name: B2, Velocity: 22
Note ON: Time 252960, Note Name: D#3, Velocity: 26
Note OFF: Time 253440, Note Name: D#3
Note OFF: Time 253440, Note Name: B2
Note ON: Time 253440, Note Name: B2, Velocity: 22
Note ON: Time 253440, Note Name: D#3, Velocity: 26
Note OFF: Time 253920, Note Name: D#3
Note OFF: Time 253920, Note Name: B2
Note ON: Time 253920, Note Name: A#2, Velocity: 21
Note ON: Time 253920, Note Name: D#3, Velocity: 25
Note OFF: Time 254400, Note Name: D#3
Note OFF: Time 254400, Note Name: A#2
Note ON: Time 254400, Note Name: G#2, Velocity: 20
Note ON: Time 254400, Note Name: D#3, Velocity: 24
Note OFF: Time 254880, Note Name: D#3
Note OFF: Time 254880, Note Name: G#2
Note ON: Time 254880, Note Name: C#2, Velocity: 20
Note OFF: Time 255360, Note Name: C#2
Note ON: Time 255840, Note Name: C#3, Velocity: 27
Note OFF: Time 256200, Note Name: C#3
Note ON: Time 256200, Note Name: D3, Velocity: 26
Note OFF: Time 256260, Note Name: D3
Note ON: Time 256260, Note Name: D#3, Velocity: 26
Note OFF: Time 256320, Note Name: D#3
Note ON: Time 256320, Note Name: F3, Velocity: 25
Note OFF: Time 256400, Note Name: F3
Note ON: Time 256400, Note Name: D#3, Velocity: 21
Note OFF: Time 256480, Note Name: D#3
Note ON: Time 256480, Note Name: F3, Velocity: 24
Note OFF: Time 256560, Note Name: F3
Note ON: Time 256560, Note Name: D#3, Velocity: 22
Note OFF: Time 256640, Note Name: D#3
Note ON: Time 256640, Note Name: F3, Velocity: 24
Note OFF: Time 256720, Note Name: F3
Note ON: Time 256720, Note Name: D#3, Velocity: 21
Note OFF: Time 256800, Note Name: D#3
Note ON: Time 256800, Note Name: F3, Velocity: 24
Note OFF: Time 256880, Note Name: F3
Note ON: Time 256880, Note Name: D#3, Velocity: 21
Note OFF: Time 256960, Note Name: D#3
Note ON: Time 256960, Note Name: F3, Velocity: 24
Note OFF: Time 257040, Note Name: F3
Note ON: Time 257040, Note Name: D#3, Velocity: 21
Note OFF: Time 257120, Note Name: D#3
Note ON: Time 257120, Note Name: F3, Velocity: 24
Note OFF: Time 257200, Note Name: F3
Note ON: Time 257200, Note Name: D#3, Velocity: 21
Note OFF: Time 257280, Note Name: D#3
Note ON: Time 257280, Note Name: F3, Velocity: 24
Note OFF: Time 257400, Note Name: F3
Note ON: Time 257400, Note Name: D#3, Velocity: 21
Note OFF: Time 257520, Note Name: D#3
Note ON: Time 257520, Note Name: F3, Velocity: 24
Note OFF: Time 257580, Note Name: F3
Note ON: Time 257580, Note Name: D#3, Velocity: 20
Note OFF: Time 257640, Note Name: D#3
Note ON: Time 257640, Note Name: C#3, Velocity: 24
Note OFF: Time 257700, Note Name: C#3
Note ON: Time 257700, Note Name: D#3, Velocity: 18
Note OFF: Time 257760, Note Name: D#3
Note ON: Time 257760, Note Name: F3, Velocity: 32
Note OFF: Time 258240, Note Name: F3
Note ON: Time 258240, Note Name: C#2, Velocity: 25
Note OFF: Time 258720, Note Name: C#2
Note ON: Time 258720, Note Name: C#3, Velocity: 27
Note OFF: Time 259080, Note Name: C#3
Note ON: Time 259080, Note Name: D3, Velocity: 26
Note OFF: Time 259140, Note Name: D3
Note ON: Time 259140, Note Name: D#3, Velocity: 26
Note OFF: Time 259200, Note Name: D#3
Note ON: Time 259200, Note Name: F3, Velocity: 25
Note OFF: Time 259280, Note Name: F3
Note ON: Time 259280, Note Name: D#3, Velocity: 21
Note OFF: Time 259360, Note Name: D#3
Note ON: Time 259360, Note Name: F3, Velocity: 24
Note OFF: Time 259440, Note Name: F3
Note ON: Time 259440, Note Name: D#3, Velocity: 22
Note OFF: Time 259520, Note Name: D#3
Note ON: Time 259520, Note Name: F3, Velocity: 24
Note OFF: Time 259600, Note Name: F3
Note ON: Time 259600, Note Name: D#3, Velocity: 21
Note OFF: Time 259680, Note Name: D#3
Note ON: Time 259680, Note Name: F3, Velocity: 24
Note OFF: Time 259760, Note Name: F3
Note ON: Time 259760, Note Name: D#3, Velocity: 21
Note OFF: Time 259840, Note Name: D#3
Note ON: Time 259840, Note Name: F3, Velocity: 24
Note OFF: Time 259920, Note Name: F3
Note ON: Time 259920, Note Name: D#3, Velocity: 21
Note OFF: Time 260000, Note Name: D#3
Note ON: Time 260000, Note Name: F3, Velocity: 24
Note OFF: Time 260080, Note Name: F3
Note ON: Time 260080, Note Name: D#3, Velocity: 21
Note OFF: Time 260160, Note Name: D#3
Note ON: Time 260160, Note Name: F3, Velocity: 24
Note OFF: Time 260280, Note Name: F3
Note ON: Time 260280, Note Name: D#3, Velocity: 21
Note OFF: Time 260400, Note Name: D#3
Note ON: Time 260400, Note Name: F3, Velocity: 24
Note OFF: Time 260460, Note Name: F3
Note ON: Time 260460, Note Name: D#3, Velocity: 20
Note OFF: Time 260520, Note Name: D#3
Note ON: Time 260520, Note Name: C#3, Velocity: 24
Note OFF: Time 260580, Note Name: C#3
Note ON: Time 260580, Note Name: D#3, Velocity: 18
Note OFF: Time 260640, Note Name: D#3
Note ON: Time 260640, Note Name: F3, Velocity: 34
Note OFF: Time 261120, Note Name: F3
Note ON: Time 261120, Note Name: C#2, Velocity: 36
Note OFF: Time 261600, Note Name: C#2
Note ON: Time 261600, Note Name: C#3, Velocity: 17
Note ON: Time 261600, Note Name: G#3, Velocity: 17
Note ON: Time 261600, Note Name: C#4, Velocity: 26
Note OFF: Time 262080, Note Name: C#4
Note OFF: Time 262080, Note Name: G#3
Note OFF: Time 262080, Note Name: C#3
Note ON: Time 262080, Note Name: C#3, Velocity: 20
Note ON: Time 262080, Note Name: G#3, Velocity: 20
Note ON: Time 262080, Note Name: C#4, Velocity: 28
Note OFF: Time 262560, Note Name: C#4
Note OFF: Time 262560, Note Name: G#3
Note OFF: Time 262560, Note Name: C#3
Note ON: Time 262560, Note Name: C#3, Velocity: 21
Note ON: Time 262560, Note Name: G#3, Velocity: 21
Note ON: Time 262560, Note Name: B3, Velocity: 32
Note OFF: Time 263040, Note Name: B3
Note OFF: Time 263040, Note Name: G#3
Note OFF: Time 263040, Note Name: C#3
Note ON: Time 263040, Note Name: C#3, Velocity: 21
Note ON: Time 263040, Note Name: G#3, Velocity: 21
Note ON: Time 263040, Note Name: B3, Velocity: 34
Note OFF: Time 263520, Note Name: B3
Note OFF: Time 263520, Note Name: G#3
Note OFF: Time 263520, Note Name: C#3
Note ON: Time 263520, Note Name: C#3, Velocity: 27
Note ON: Time 263520, Note Name: G#3, Velocity: 27
Note ON: Time 263520, Note Name: B3, Velocity: 37
Note OFF: Time 264000, Note Name: B3
Note OFF: Time 264000, Note Name: G#3
Note OFF: Time 264000, Note Name: C#3
Note ON: Time 264000, Note Name: C#3, Velocity: 20
Note ON: Time 264000, Note Name: G#3, Velocity: 20
Note ON: Time 264000, Note Name: B3, Velocity: 31
Note OFF: Time 264475, Note Name: B3
Note OFF: Time 264480, Note Name: G#3
Note OFF: Time 264480, Note Name: C#3
Note ON: Time 264480, Note Name: C#3, Velocity: 17
Note ON: Time 264480, Note Name: G#3, Velocity: 26
Note OFF: Time 264960, Note Name: G#3
Note OFF: Time 264960, Note Name: C#3
Note ON: Time 264960, Note Name: F#2, Velocity: 18
Note ON: Time 264960, Note Name: C#3, Velocity: 26
Note OFF: Time 265440, Note Name: C#3
Note OFF: Time 265440, Note Name: F#2
Note ON: Time 265440, Note Name: A#3, Velocity: 39
Note OFF: Time 265680, Note Name: A#3
Note ON: Time 265680, Note Name: G#3, Velocity: 37
Note OFF: Time 265920, Note Name: G#3
Note ON: Time 265920, Note Name: F#3, Velocity: 36
Note OFF: Time 266160, Note Name: F#3
Note ON: Time 266160, Note Name: F3, Velocity: 35
Note OFF: Time 266400, Note Name: F3
Note ON: Time 266400, Note Name: F3, Velocity: 39
Note OFF: Time 266640, Note Name: F3
Note ON: Time 266640, Note Name: D#3, Velocity: 39
Note OFF: Time 266880, Note Name: D#3
Note ON: Time 266880, Note Name: C#3, Velocity: 37
Note OFF: Time 267120, Note Name: C#3
Note ON: Time 267120, Note Name: C3, Velocity: 36
Note OFF: Time 267360, Note Name: C3
Note ON: Time 267360, Note Name: A#2, Velocity: 35
Note OFF: Time 267600, Note Name: A#2
Note ON: Time 267600, Note Name: G#2, Velocity: 35
Note OFF: Time 267840, Note Name: G#2
Note ON: Time 267840, Note Name: C#2, Velocity: 35
Note OFF: Time 268080, Note Name: C#2
Note ON: Time 268320, Note Name: A#3, Velocity: 42
Note OFF: Time 268560, Note Name: A#3
Note ON: Time 268560, Note Name: G#3, Velocity: 37
Note OFF: Time 268800, Note Name: G#3
Note ON: Time 268800, Note Name: F#3, Velocity: 36
Note OFF: Time 269040, Note Name: F#3
Note ON: Time 269040, Note Name: F3, Velocity: 36
Note OFF: Time 269280, Note Name: F3
Note ON: Time 269280, Note Name: F3, Velocity: 39
Note OFF: Time 269520, Note Name: F3
Note ON: Time 269520, Note Name: D#3, Velocity: 39
Note OFF: Time 269760, Note Name: D#3
Note ON: Time 269760, Note Name: C#3, Velocity: 37
Note OFF: Time 270000, Note Name: C#3
Note ON: Time 270000, Note Name: C3, Velocity: 36
Note OFF: Time 270240, Note Name: C3
Note ON: Time 270240, Note Name: A#2, Velocity: 36
Note OFF: Time 270480, Note Name: A#2
Note ON: Time 270480, Note Name: G#2, Velocity: 35
Note OFF: Time 270720, Note Name: G#2
Note ON: Time 270720, Note Name: C#2, Velocity: 35
Note OFF: Time 270960, Note Name: C#2
Note ON: Time 271200, Note Name: G#3, Velocity: 35
Note OFF: Time 271440, Note Name: G#3
Note ON: Time 271440, Note Name: A#3, Velocity: 36
Note OFF: Time 271680, Note Name: A#3
Note ON: Time 271680, Note Name: C4, Velocity: 37
Note OFF: Time 271920, Note Name: C4
Note ON: Time 271920, Note Name: C#4, Velocity: 41
Note OFF: Time 272160, Note Name: C#4
Note ON: Time 272160, Note Name: C#4, Velocity: 45
Note OFF: Time 272400, Note Name: C#4
Note ON: Time 272400, Note Name: C4, Velocity: 37
Note OFF: Time 272640, Note Name: C4
Note ON: Time 272640, Note Name: E3, Velocity: 41
Note OFF: Time 272880, Note Name: E3
Note ON: Time 272880, Note Name: F3, Velocity: 36
Note OFF: Time 273120, Note Name: F3
Note ON: Time 273120, Note Name: C#4, Velocity: 39
Note OFF: Time 273360, Note Name: C#4
Note ON: Time 273360, Note Name: C4, Velocity: 35
Note OFF: Time 273600, Note Name: C4
Note ON: Time 273600, Note Name: A#3, Velocity: 39
Note OFF: Time 274080, Note Name: A#3
Note ON: Time 274080, Note Name: A#2, Velocity: 41
Note OFF: Time 274320, Note Name: A#2
Note ON: Time 274320, Note Name: F3, Velocity: 35
Note OFF: Time 274560, Note Name: F3
Note ON: Time 274560, Note Name: G#3, Velocity: 37
Note OFF: Time 274800, Note Name: G#3
Note ON: Time 274800, Note Name: C4, Velocity: 35
Note OFF: Time 275040, Note Name: C4
Note ON: Time 275040, Note Name: C4, Velocity: 39
Note OFF: Time 275280, Note Name: C4
Note ON: Time 275280, Note Name: A#3, Velocity: 35
Note OFF: Time 275520, Note Name: A#3
Note ON: Time 275520, Note Name: D3, Velocity: 36
Note OFF: Time 275760, Note Name: D3
Note ON: Time 275760, Note Name: D#3, Velocity: 35
Note OFF: Time 276000, Note Name: D#3
Note ON: Time 276000, Note Name: C4, Velocity: 37
Note OFF: Time 276240, Note Name: C4
Note ON: Time 276240, Note Name: A#3, Velocity: 35
Note OFF: Time 276480, Note Name: A#3
Note ON: Time 276480, Note Name: G#3, Velocity: 37
Note OFF: Time 276960, Note Name: G#3
Note ON: Time 276960, Note Name: A#3, Velocity: 39
Note OFF: Time 277200, Note Name: A#3
Note ON: Time 277200, Note Name: G#3, Velocity: 37
Note OFF: Time 277440, Note Name: G#3
Note ON: Time 277440, Note Name: F#3, Velocity: 36
Note OFF: Time 277680, Note Name: F#3
Note ON: Time 277680, Note Name: F3, Velocity: 35
Note OFF: Time 277920, Note Name: F3
Note ON: Time 277920, Note Name: F3, Velocity: 39
Note OFF: Time 278160, Note Name: F3
Note ON: Time 278160, Note Name: D#3, Velocity: 39
Note OFF: Time 278400, Note Name: D#3
Note ON: Time 278400, Note Name: C#3, Velocity: 37
Note OFF: Time 278640, Note Name: C#3
Note ON: Time 278640, Note Name: C3, Velocity: 36
Note OFF: Time 278880, Note Name: C3
Note ON: Time 278880, Note Name: A#2, Velocity: 35
Note OFF: Time 279120, Note Name: A#2
Note ON: Time 279120, Note Name: G#2, Velocity: 35
Note OFF: Time 279360, Note Name: G#2
Note ON: Time 279360, Note Name: C#2, Velocity: 35
Note OFF: Time 279600, Note Name: C#2
Note ON: Time 279840, Note Name: A#3, Velocity: 42
Note OFF: Time 280080, Note Name: A#3
Note ON: Time 280080, Note Name: G#3, Velocity: 37
Note OFF: Time 280320, Note Name: G#3
Note ON: Time 280320, Note Name: F#3, Velocity: 36
Note OFF: Time 280560, Note Name: F#3
Note ON: Time 280560, Note Name: F3, Velocity: 36
Note OFF: Time 280800, Note Name: F3
Note ON: Time 280800, Note Name: F3, Velocity: 39
Note OFF: Time 281040, Note Name: F3
Note ON: Time 281040, Note Name: D#3, Velocity: 39
Note OFF: Time 281280, Note Name: D#3
Note ON: Time 281280, Note Name: C#3, Velocity: 37
Note OFF: Time 281520, Note Name: C#3
Note ON: Time 281520, Note Name: C3, Velocity: 36
Note OFF: Time 281760, Note Name: C3
Note ON: Time 281760, Note Name: A#2, Velocity: 36
Note OFF: Time 282000, Note Name: A#2
Note ON: Time 282000, Note Name: G#2, Velocity: 35
Note OFF: Time 282240, Note Name: G#2
Note ON: Time 282240, Note Name: C#2, Velocity: 35
Note OFF: Time 282480, Note Name: C#2
Note ON: Time 282720, Note Name: G#3, Velocity: 39
Note OFF: Time 282960, Note Name: G#3
Note ON: Time 282960, Note Name: G3, Velocity: 36
Note OFF: Time 283200, Note Name: G3
Note ON: Time 283200, Note Name: A#3, Velocity: 39
Note OFF: Time 283440, Note Name: A#3
Note ON: Time 283440, Note Name: G#3, Velocity: 34
Note OFF: Time 283680, Note Name: G#3
Note ON: Time 283680, Note Name: B3, Velocity: 39
Note OFF: Time 284160, Note Name: B3
Note ON: Time 284160, Note Name: B2, Velocity: 43
Note OFF: Time 284400, Note Name: B2
Note ON: Time 284400, Note Name: F3, Velocity: 39
Note OFF: Time 284640, Note Name: F3
Note ON: Time 284640, Note Name: G#3, Velocity: 43
Note OFF: Time 284880, Note Name: G#3
Note ON: Time 284880, Note Name: F#3, Velocity: 39
Note OFF: Time 285120, Note Name: F#3
Note ON: Time 285120, Note Name: A#3, Velocity: 45
Note OFF: Time 285600, Note Name: A#3
Note ON: Time 285600, Note Name: F#2, Velocity: 41
Note OFF: Time 285840, Note Name: F#2
Note ON: Time 285840, Note Name: C#3, Velocity: 36
Note OFF: Time 286080, Note Name: C#3
Note ON: Time 286080, Note Name: F#3, Velocity: 41
Note OFF: Time 286320, Note Name: F#3
Note ON: Time 286320, Note Name: A#3, Velocity: 36
Note OFF: Time 286560, Note Name: A#3
Note ON: Time 286560, Note Name: G#3, Velocity: 43
Note OFF: Time 287040, Note Name: G#3
Note ON: Time 287040, Note Name: C#2, Velocity: 39
Note OFF: Time 287280, Note Name: C#2
Note ON: Time 287280, Note Name: G#2, Velocity: 35
Note OFF: Time 287520, Note Name: G#2
Note ON: Time 287520, Note Name: C#3, Velocity: 39
Note OFF: Time 287760, Note Name: C#3
Note ON: Time 287760, Note Name: G#3, Velocity: 36
Note OFF: Time 288000, Note Name: G#3
Note ON: Time 288000, Note Name: C#4, Velocity: 39
Note OFF: Time 288240, Note Name: C#4
Note ON: Time 288240, Note Name: C4, Velocity: 34
Note OFF: Time 288480, Note Name: C4
Note ON: Time 288480, Note Name: B3, Velocity: 34
Note OFF: Time 288720, Note Name: B3
Note ON: Time 288720, Note Name: A#3, Velocity: 34
Note OFF: Time 288960, Note Name: A#3
Note ON: Time 288960, Note Name: B3, Velocity: 41
Note OFF: Time 289200, Note Name: B3
Note ON: Time 289200, Note Name: C#3, Velocity: 34
Note OFF: Time 289440, Note Name: C#3
Note ON: Time 289440, Note Name: F#2, Velocity: 37
Note OFF: Time 289920, Note Name: F#2
Note ON: Time 289920, Note Name: D#4, Velocity: 25
Note ON: Time 289920, Note Name: F#3, Velocity: 21
Note ON: Time 289920, Note Name: C#3, Velocity: 21
Note OFF: Time 290400, Note Name: C#3
Note OFF: Time 290400, Note Name: F#3
Note OFF: Time 290400, Note Name: D#4
Note ON: Time 290400, Note Name: C#3, Velocity: 18
Note ON: Time 290400, Note Name: F#3, Velocity: 18
Note ON: Time 290400, Note Name: C#4, Velocity: 23
Note OFF: Time 290880, Note Name: C#4
Note OFF: Time 290880, Note Name: F#3
Note OFF: Time 290880, Note Name: C#3
Note ON: Time 290880, Note Name: F#2, Velocity: 34
Note OFF: Time 291360, Note Name: F#2
Note ON: Time 291360, Note Name: D#4, Velocity: 23
Note ON: Time 291360, Note Name: C#3, Velocity: 18
Note ON: Time 291360, Note Name: F#3, Velocity: 18
Note OFF: Time 291840, Note Name: F#3
Note OFF: Time 291840, Note Name: C#3
Note OFF: Time 291840, Note Name: D#4
Note ON: Time 291840, Note Name: C#3, Velocity: 15
Note ON: Time 291840, Note Name: F#3, Velocity: 15
Note ON: Time 291840, Note Name: C#4, Velocity: 18
Note OFF: Time 292320, Note Name: C#4
Note OFF: Time 292320, Note Name: F#3
Note OFF: Time 292320, Note Name: C#3
Note ON: Time 292320, Note Name: C#2, Velocity: 33
Note OFF: Time 292800, Note Name: C#2
Note ON: Time 292800, Note Name: D#4, Velocity: 27
Note ON: Time 292800, Note Name: F#3, Velocity: 23
Note ON: Time 292800, Note Name: C#3, Velocity: 23
Note OFF: Time 293280, Note Name: C#3
Note OFF: Time 293280, Note Name: F#3
Note OFF: Time 293280, Note Name: D#4
Note ON: Time 293280, Note Name: C#3, Velocity: 18
Note ON: Time 293280, Note Name: F#3, Velocity: 18
Note ON: Time 293280, Note Name: C#4, Velocity: 23
Note OFF: Time 293760, Note Name: C#4
Note OFF: Time 293760, Note Name: F#3
Note OFF: Time 293760, Note Name: C#3
Note ON: Time 293760, Note Name: F#2, Velocity: 34
Note OFF: Time 294240, Note Name: F#2
Note ON: Time 294240, Note Name: D#4, Velocity: 24
Note ON: Time 294240, Note Name: C#3, Velocity: 20
Note ON: Time 294240, Note Name: F#3, Velocity: 20
Note OFF: Time 294720, Note Name: F#3
Note OFF: Time 294720, Note Name: C#3
Note OFF: Time 294720, Note Name: D#4
Note ON: Time 294720, Note Name: C#3, Velocity: 17
Note ON: Time 294720, Note Name: F#3, Velocity: 17
Note ON: Time 294720, Note Name: C#4, Velocity: 22
Note OFF: Time 295200, Note Name: C#4
Note OFF: Time 295200, Note Name: F#3
Note OFF: Time 295200, Note Name: C#3
Note ON: Time 295200, Note Name: C#3, Velocity: 12
Note ON: Time 295200, Note Name: F#3, Velocity: 15
Note ON: Time 295200, Note Name: C#4, Velocity: 22
Note OFF: Time 295680, Note Name: C#4
Note OFF: Time 295680, Note Name: F#3
Note OFF: Time 295680, Note Name: C#3
Note ON: Time 295680, Note Name: C#3, Velocity: 18
Note ON: Time 295680, Note Name: F#3, Velocity: 18
Note ON: Time 295680, Note Name: B3, Velocity: 23
Note OFF: Time 296160, Note Name: B3
Note OFF: Time 296160, Note Name: F#3
Note OFF: Time 296160, Note Name: C#3
Note ON: Time 296160, Note Name: C#3, Velocity: 12
Note ON: Time 296160, Note Name: F#3, Velocity: 15
Note ON: Time 296160, Note Name: A#3, Velocity: 21
Note OFF: Time 296640, Note Name: A#3
Note OFF: Time 296640, Note Name: F#3
Note OFF: Time 296640, Note Name: C#3
Note ON: Time 296640, Note Name: C#3, Velocity: 20
Note ON: Time 296640, Note Name: F#3, Velocity: 20
Note ON: Time 296640, Note Name: A#3, Velocity: 23
Note OFF: Time 297120, Note Name: A#3
Note OFF: Time 297120, Note Name: F#3
Note OFF: Time 297120, Note Name: C#3
Note ON: Time 297120, Note Name: B2, Velocity: 20
Note ON: Time 297120, Note Name: C#3, Velocity: 24
Note OFF: Time 297600, Note Name: C#3
Note OFF: Time 297600, Note Name: B2
Note ON: Time 297600, Note Name: A#2, Velocity: 20
Note ON: Time 297600, Note Name: C#3, Velocity: 24
Note OFF: Time 298080, Note Name: C#3
Note OFF: Time 298080, Note Name: A#2
Note ON: Time 298080, Note Name: A#2, Velocity: 20
Note ON: Time 298080, Note Name: C#3, Velocity: 24
Note OFF: Time 298560, Note Name: C#3
Note OFF: Time 298560, Note Name: A#2
Note ON: Time 298560, Note Name: B2, Velocity: 20
Note ON: Time 298560, Note Name: C#3, Velocity: 24
Note OFF: Time 299040, Note Name: C#3
Note OFF: Time 299040, Note Name: B2
Note ON: Time 299040, Note Name: A#2, Velocity: 20
Note ON: Time 299040, Note Name: C#3, Velocity: 24
Note OFF: Time 299520, Note Name: C#3
Note OFF: Time 299520, Note Name: A#2
Note ON: Time 299520, Note Name: A#2, Velocity: 20
Note ON: Time 299520, Note Name: C#3, Velocity: 24
Note OFF: Time 300000, Note Name: C#3
Note OFF: Time 300000, Note Name: A#2
Note ON: Time 300000, Note Name: B2, Velocity: 20
Note ON: Time 300000, Note Name: C#3, Velocity: 24
Note OFF: Time 300480, Note Name: C#3
Note OFF: Time 300480, Note Name: B2
Note ON: Time 300480, Note Name: A#2, Velocity: 20
Note ON: Time 300480, Note Name: C#3, Velocity: 24
Note OFF: Time 300960, Note Name: C#3
Note OFF: Time 300960, Note Name: A#2
Note ON: Time 300960, Note Name: G#2, Velocity: 31
Note OFF: Time 301440, Note Name: G#2
Note ON: Time 301440, Note Name: E4, Velocity: 26
Note ON: Time 301440, Note Name: G#3, Velocity: 22
Note ON: Time 301440, Note Name: D#3, Velocity: 22
Note OFF: Time 301920, Note Name: D#3
Note OFF: Time 301920, Note Name: G#3
Note OFF: Time 301920, Note Name: E4
Note ON: Time 301920, Note Name: D#3, Velocity: 17
Note ON: Time 301920, Note Name: G#3, Velocity: 17
Note ON: Time 301920, Note Name: D#4, Velocity: 22
Note OFF: Time 302400, Note Name: D#4
Note OFF: Time 302400, Note Name: G#3
Note OFF: Time 302400, Note Name: D#3
Note ON: Time 302400, Note Name: G#2, Velocity: 38
Note OFF: Time 302880, Note Name: G#2
Note ON: Time 302880, Note Name: E4, Velocity: 24
Note ON: Time 302880, Note Name: D#3, Velocity: 18
Note ON: Time 302880, Note Name: G#3, Velocity: 18
Note OFF: Time 303360, Note Name: G#3
Note OFF: Time 303360, Note Name: D#3
Note OFF: Time 303360, Note Name: E4
Note ON: Time 303360, Note Name: D#3, Velocity: 17
Note ON: Time 303360, Note Name: G#3, Velocity: 17
Note ON: Time 303360, Note Name: D#4, Velocity: 21
Note OFF: Time 303840, Note Name: D#4
Note OFF: Time 303840, Note Name: G#3
Note OFF: Time 303840, Note Name: D#3
Note ON: Time 303840, Note Name: D#2, Velocity: 33
Note OFF: Time 304320, Note Name: D#2
Note ON: Time 304320, Note Name: E4, Velocity: 25
Note ON: Time 304320, Note Name: A#3, Velocity: 21
Note ON: Time 304320, Note Name: D#3, Velocity: 21
Note OFF: Time 304800, Note Name: D#3
Note OFF: Time 304800, Note Name: A#3
Note OFF: Time 304800, Note Name: E4
Note ON: Time 304800, Note Name: D#3, Velocity: 16
Note ON: Time 304800, Note Name: A#3, Velocity: 16
Note ON: Time 304800, Note Name: D#4, Velocity: 21
Note OFF: Time 305280, Note Name: D#4
Note OFF: Time 305280, Note Name: A#3
Note OFF: Time 305280, Note Name: D#3
Note ON: Time 305280, Note Name: G#2, Velocity: 34
Note OFF: Time 305760, Note Name: G#2
Note ON: Time 305760, Note Name: E4, Velocity: 25
Note ON: Time 305760, Note Name: D#3, Velocity: 21
Note ON: Time 305760, Note Name: G#3, Velocity: 21
Note OFF: Time 306240, Note Name: G#3
Note OFF: Time 306240, Note Name: D#3
Note OFF: Time 306240, Note Name: E4
Note ON: Time 306240, Note Name: D#3, Velocity: 18
Note ON: Time 306240, Note Name: G#3, Velocity: 18
Note ON: Time 306240, Note Name: D#4, Velocity: 23
Note OFF: Time 306720, Note Name: D#4
Note OFF: Time 306720, Note Name: G#3
Note OFF: Time 306720, Note Name: D#3
Note ON: Time 306720, Note Name: D#3, Velocity: 16
Note ON: Time 306720, Note Name: G#3, Velocity: 16
Note ON: Time 306720, Note Name: D#4, Velocity: 25
Note OFF: Time 307200, Note Name: D#4
Note OFF: Time 307200, Note Name: G#3
Note OFF: Time 307200, Note Name: D#3
Note ON: Time 307200, Note Name: D#3, Velocity: 20
Note ON: Time 307200, Note Name: G#3, Velocity: 20
Note ON: Time 307200, Note Name: C#4, Velocity: 24
Note OFF: Time 307680, Note Name: C#4
Note OFF: Time 307680, Note Name: G#3
Note OFF: Time 307680, Note Name: D#3
Note ON: Time 307680, Note Name: D#3, Velocity: 20
Note ON: Time 307680, Note Name: G#3, Velocity: 20
Note ON: Time 307680, Note Name: B3, Velocity: 24
Note OFF: Time 308160, Note Name: B3
Note OFF: Time 308160, Note Name: G#3
Note OFF: Time 308160, Note Name: D#3
Note ON: Time 308160, Note Name: D#3, Velocity: 21
Note ON: Time 308160, Note Name: G#3, Velocity: 21
Note ON: Time 308160, Note Name: B3, Velocity: 25
Note OFF: Time 308640, Note Name: B3
Note OFF: Time 308640, Note Name: G#3
Note OFF: Time 308640, Note Name: D#3
Note ON: Time 308640, Note Name: C#3, Velocity: 22
Note ON: Time 308640, Note Name: D#3, Velocity: 26
Note OFF: Time 309120, Note Name: D#3
Note OFF: Time 309120, Note Name: C#3
Note ON: Time 309120, Note Name: B2, Velocity: 22
Note ON: Time 309120, Note Name: D#3, Velocity: 26
Note OFF: Time 309600, Note Name: D#3
Note OFF: Time 309600, Note Name: B2
Note ON: Time 309600, Note Name: B2, Velocity: 22
Note ON: Time 309600, Note Name: D#3, Velocity: 26
Note OFF: Time 310080, Note Name: D#3
Note OFF: Time 310080, Note Name: B2
Note ON: Time 310080, Note Name: C#3, Velocity: 22
Note ON: Time 310080, Note Name: D#3, Velocity: 24
Note OFF: Time 310560, Note Name: D#3
Note OFF: Time 310560, Note Name: C#3
Note ON: Time 310560, Note Name: B2, Velocity: 22
Note ON: Time 310560, Note Name: D#3, Velocity: 26
Note OFF: Time 311040, Note Name: D#3
Note OFF: Time 311040, Note Name: B2
Note ON: Time 311040, Note Name: B2, Velocity: 22
Note ON: Time 311040, Note Name: D#3, Velocity: 26
Note OFF: Time 311520, Note Name: D#3
Note OFF: Time 311520, Note Name: B2
Note ON: Time 311520, Note Name: A#2, Velocity: 21
Note ON: Time 311520, Note Name: D#3, Velocity: 25
Note OFF: Time 312000, Note Name: D#3
Note OFF: Time 312000, Note Name: A#2
Note ON: Time 312000, Note Name: G#2, Velocity: 20
Note ON: Time 312000, Note Name: D#3, Velocity: 24
Note OFF: Time 312480, Note Name: D#3
Note OFF: Time 312480, Note Name: G#2
Note ON: Time 312480, Note Name: C#2, Velocity: 20
Note OFF: Time 312960, Note Name: C#2
Note ON: Time 313440, Note Name: C#3, Velocity: 27
Note OFF: Time 313800, Note Name: C#3
Note ON: Time 313800, Note Name: D3, Velocity: 26
Note OFF: Time 313860, Note Name: D3
Note ON: Time 313860, Note Name: D#3, Velocity: 26
Note OFF: Time 313920, Note Name: D#3
Note ON: Time 313920, Note Name: F3, Velocity: 25
Note OFF: Time 314000, Note Name: F3
Note ON: Time 314000, Note Name: D#3, Velocity: 21
Note OFF: Time 314080, Note Name: D#3
Note ON: Time 314080, Note Name: F3, Velocity: 24
Note OFF: Time 314160, Note Name: F3
Note ON: Time 314160, Note Name: D#3, Velocity: 22
Note OFF: Time 314240, Note Name: D#3
Note ON: Time 314240, Note Name: F3, Velocity: 24
Note OFF: Time 314320, Note Name: F3
Note ON: Time 314320, Note Name: D#3, Velocity: 21
Note OFF: Time 314400, Note Name: D#3
Note ON: Time 314400, Note Name: F3, Velocity: 24
Note OFF: Time 314480, Note Name: F3
Note ON: Time 314480, Note Name: D#3, Velocity: 21
Note OFF: Time 314560, Note Name: D#3
Note ON: Time 314560, Note Name: F3, Velocity: 24
Note OFF: Time 314640, Note Name: F3
Note ON: Time 314640, Note Name: D#3, Velocity: 21
Note OFF: Time 314720, Note Name: D#3
Note ON: Time 314720, Note Name: F3, Velocity: 24
Note OFF: Time 314800, Note Name: F3
Note ON: Time 314800, Note Name: D#3, Velocity: 21
Note OFF: Time 314880, Note Name: D#3
Note ON: Time 314880, Note Name: F3, Velocity: 24
Note OFF: Time 315000, Note Name: F3
Note ON: Time 315000, Note Name: D#3, Velocity: 21
Note OFF: Time 315120, Note Name: D#3
Note ON: Time 315120, Note Name: F3, Velocity: 24
Note OFF: Time 315180, Note Name: F3
Note ON: Time 315180, Note Name: D#3, Velocity: 20
Note OFF: Time 315240, Note Name: D#3
Note ON: Time 315240, Note Name: C#3, Velocity: 24
Note OFF: Time 315300, Note Name: C#3
Note ON: Time 315300, Note Name: D#3, Velocity: 18
Note OFF: Time 315360, Note Name: D#3
Note ON: Time 315360, Note Name: F3, Velocity: 32
Note OFF: Time 315840, Note Name: F3
Note ON: Time 315840, Note Name: C#2, Velocity: 25
Note OFF: Time 316320, Note Name: C#2
Note ON: Time 316320, Note Name: C#3, Velocity: 27
Note OFF: Time 316680, Note Name: C#3
Note ON: Time 316680, Note Name: D3, Velocity: 26
Note OFF: Time 316740, Note Name: D3
Note ON: Time 316740, Note Name: D#3, Velocity: 26
Note OFF: Time 316800, Note Name: D#3
Note ON: Time 316800, Note Name: F3, Velocity: 25
Note OFF: Time 316880, Note Name: F3
Note ON: Time 316880, Note Name: D#3, Velocity: 21
Note OFF: Time 316960, Note Name: D#3
Note ON: Time 316960, Note Name: F3, Velocity: 24
Note OFF: Time 317040, Note Name: F3
Note ON: Time 317040, Note Name: D#3, Velocity: 22
Note OFF: Time 317120, Note Name: D#3
Note ON: Time 317120, Note Name: F3, Velocity: 24
Note OFF: Time 317200, Note Name: F3
Note ON: Time 317200, Note Name: D#3, Velocity: 21
Note OFF: Time 317280, Note Name: D#3
Note ON: Time 317280, Note Name: F3, Velocity: 24
Note OFF: Time 317360, Note Name: F3
Note ON: Time 317360, Note Name: D#3, Velocity: 21
Note OFF: Time 317440, Note Name: D#3
Note ON: Time 317440, Note Name: F3, Velocity: 24
Note OFF: Time 317520, Note Name: F3
Note ON: Time 317520, Note Name: D#3, Velocity: 21
Note OFF: Time 317600, Note Name: D#3
Note ON: Time 317600, Note Name: F3, Velocity: 24
Note OFF: Time 317680, Note Name: F3
Note ON: Time 317680, Note Name: D#3, Velocity: 21
Note OFF: Time 317760, Note Name: D#3
Note ON: Time 317760, Note Name: F3, Velocity: 24
Note OFF: Time 317880, Note Name: F3
Note ON: Time 317880, Note Name: D#3, Velocity: 21
Note OFF: Time 318000, Note Name: D#3
Note ON: Time 318000, Note Name: F3, Velocity: 24
Note OFF: Time 318060, Note Name: F3
Note ON: Time 318060, Note Name: D#3, Velocity: 20
Note OFF: Time 318120, Note Name: D#3
Note ON: Time 318120, Note Name: C#3, Velocity: 24
Note OFF: Time 318180, Note Name: C#3
Note ON: Time 318180, Note Name: D#3, Velocity: 18
Note OFF: Time 318240, Note Name: D#3
Note ON: Time 318240, Note Name: F3, Velocity: 34
Note OFF: Time 318720, Note Name: F3
Note ON: Time 318720, Note Name: C#2, Velocity: 37
Note OFF: Time 319200, Note Name: C#2
Note ON: Time 319200, Note Name: C#3, Velocity: 20
Note ON: Time 319200, Note Name: G#3, Velocity: 20
Note ON: Time 319200, Note Name: C#4, Velocity: 30
Note OFF: Time 319680, Note Name: C#4
Note OFF: Time 319680, Note Name: G#3
Note OFF: Time 319680, Note Name: C#3
Note ON: Time 319680, Note Name: C#3, Velocity: 23
Note ON: Time 319680, Note Name: G#3, Velocity: 23
Note ON: Time 319680, Note Name: C#4, Velocity: 34
Note OFF: Time 320160, Note Name: C#4
Note OFF: Time 320160, Note Name: G#3
Note OFF: Time 320160, Note Name: C#3
Note ON: Time 320160, Note Name: C#3, Velocity: 24
Note ON: Time 320160, Note Name: G#3, Velocity: 24
Note ON: Time 320160, Note Name: B3, Velocity: 36
Note OFF: Time 320640, Note Name: B3
Note OFF: Time 320640, Note Name: G#3
Note OFF: Time 320640, Note Name: C#3
Note ON: Time 320640, Note Name: C#3, Velocity: 23
Note ON: Time 320640, Note Name: G#3, Velocity: 22
Note ON: Time 320640, Note Name: B3, Velocity: 39
Note OFF: Time 321120, Note Name: B3
Note OFF: Time 321120, Note Name: G#3
Note OFF: Time 321120, Note Name: C#3
Note ON: Time 321120, Note Name: C#3, Velocity: 28
Note ON: Time 321120, Note Name: G#3, Velocity: 34
Note ON: Time 321120, Note Name: B3, Velocity: 34
Note OFF: Time 321600, Note Name: B3
Note OFF: Time 321600, Note Name: G#3
Note OFF: Time 321600, Note Name: C#3
Note ON: Time 321600, Note Name: C#3, Velocity: 29
Note ON: Time 321600, Note Name: G#3, Velocity: 34
Note ON: Time 321600, Note Name: B3, Velocity: 35
Note OFF: Time 322080, Note Name: B3
Note OFF: Time 322080, Note Name: G#3
Note OFF: Time 322080, Note Name: C#3
Note ON: Time 322080, Note Name: B3, Velocity: 27
Note ON: Time 322080, Note Name: C#3, Velocity: 23
Note ON: Time 322080, Note Name: G#3, Velocity: 24
Note OFF: Time 322560, Note Name: G#3
Note OFF: Time 322560, Note Name: C#3
Note OFF: Time 322560, Note Name: B3
Note ON: Time 322560, Note Name: C#3, Velocity: 27
Note ON: Time 322560, Note Name: G#3, Velocity: 34
Note ON: Time 322560, Note Name: B3, Velocity: 34
Note OFF: Time 323040, Note Name: B3
Note OFF: Time 323040, Note Name: G#3
Note OFF: Time 323040, Note Name: C#3
Note ON: Time 323040, Note Name: C#3, Velocity: 14
Note ON: Time 323040, Note Name: G#3, Velocity: 20
Note ON: Time 323040, Note Name: B3, Velocity: 36
Note OFF: Time 323760, Note Name: B3
Note OFF: Time 323760, Note Name: G#3
Note OFF: Time 323760, Note Name: C#3
Note ON: Time 323760, Note Name: D2, Velocity: 31
Note ON: Time 323760, Note Name: D3, Velocity: 39
Note OFF: Time 324000, Note Name: D3
Note OFF: Time 324000, Note Name: D2
Note ON: Time 324000, Note Name: D2, Velocity: 35
Note ON: Time 324000, Note Name: D3, Velocity: 43
Note OFF: Time 324480, Note Name: D3
Note OFF: Time 324480, Note Name: D2
Note ON: Time 324480, Note Name: C#2, Velocity: 39
Note ON: Time 324480, Note Name: C#3, Velocity: 47
Note OFF: Time 325200, Note Name: C#3
Note OFF: Time 325200, Note Name: C#2
Note ON: Time 325200, Note Name: C2, Velocity: 31
Note ON: Time 325200, Note Name: C3, Velocity: 38
Note OFF: Time 325440, Note Name: C3
Note OFF: Time 325440, Note Name: C2
Note ON: Time 325440, Note Name: C2, Velocity: 34
Note ON: Time 325440, Note Name: C3, Velocity: 42
Note OFF: Time 325920, Note Name: C3
Note OFF: Time 325920, Note Name: C2
Note ON: Time 325920, Note Name: B1, Velocity: 42
Note ON: Time 325920, Note Name: B2, Velocity: 50
Note OFF: Time 326640, Note Name: B2
Note OFF: Time 326640, Note Name: B1
Note ON: Time 326640, Note Name: A#1, Velocity: 32
Note ON: Time 326640, Note Name: A#2, Velocity: 40
Note OFF: Time 326880, Note Name: A#2
Note OFF: Time 326880, Note Name: A#1
Note ON: Time 326880, Note Name: A#1, Velocity: 34
Note ON: Time 326880, Note Name: A#2, Velocity: 44
Note OFF: Time 327360, Note Name: A#2
Note OFF: Time 327360, Note Name: A#1
Note ON: Time 327360, Note Name: A1, Velocity: 45
Note ON: Time 327360, Note Name: A2, Velocity: 55
Note OFF: Time 328080, Note Name: A2
Note OFF: Time 328080, Note Name: A1
Note ON: Time 328080, Note Name: G#1, Velocity: 35
Note ON: Time 328080, Note Name: G#2, Velocity: 44
Note OFF: Time 328320, Note Name: G#2
Note OFF: Time 328320, Note Name: G#1
Note ON: Time 328320, Note Name: G#1, Velocity: 37
Note ON: Time 328320, Note Name: G#2, Velocity: 48
Note OFF: Time 328800, Note Name: G#2
Note OFF: Time 328800, Note Name: G#1
Note ON: Time 328800, Note Name: F#1, Velocity: 29
Note ON: Time 328800, Note Name: F#2, Velocity: 56
Note OFF: Time 329280, Note Name: F#2
Note OFF: Time 329280, Note Name: F#1
Note ON: Time 329280, Note Name: A#1, Velocity: 42
Note ON: Time 329280, Note Name: A#2, Velocity: 49
Note OFF: Time 329760, Note Name: A#2
Note OFF: Time 329760, Note Name: A#1
Note ON: Time 329760, Note Name: D#1, Velocity: 36
Note ON: Time 329760, Note Name: D#2, Velocity: 42
Note OFF: Time 330240, Note Name: D#2
Note OFF: Time 330240, Note Name: D#1
Note ON: Time 330240, Note Name: E1, Velocity: 36
Note ON: Time 330240, Note Name: E2, Velocity: 42
Note OFF: Time 330330, Note Name: E2
Note OFF: Time 330330, Note Name: E1
Note ON: Time 330480, Note Name: F1, Velocity: 36
Note ON: Time 330480, Note Name: F2, Velocity: 45
Note OFF: Time 330570, Note Name: F2
Note OFF: Time 330570, Note Name: F1
Note ON: Time 330720, Note Name: F#1, Velocity: 42
Note ON: Time 330720, Note Name: F#2, Velocity: 50
Note OFF: Time 331200, Note Name: F#2
Note OFF: Time 331200, Note Name: F#1
Note ON: Time 331200, Note Name: G#1, Velocity: 50
Note ON: Time 331200, Note Name: G#2, Velocity: 59
Note OFF: Time 331590, Note Name: G#2
Note OFF: Time 331590, Note Name: G#1
Note ON: Time 331590, Note Name: G#2, Velocity: 37
Note ON: Time 331620, Note Name: D#3, Velocity: 37
Note ON: Time 331650, Note Name: F3, Velocity: 37
Note ON: Time 331680, Note Name: B3, Velocity: 46
Note OFF: Time 332070, Note Name: B3
Note OFF: Time 332070, Note Name: G#2
Note OFF: Time 332070, Note Name: D#3
Note OFF: Time 332070, Note Name: F3
Note ON: Time 332070, Note Name: A#2, Velocity: 37
Note ON: Time 332100, Note Name: F3, Velocity: 37
Note ON: Time 332130, Note Name: G#3, Velocity: 37
Note ON: Time 332160, Note Name: D4, Velocity: 46
Note OFF: Time 332640, Note Name: D4
Note OFF: Time 332640, Note Name: A#2
Note OFF: Time 332640, Note Name: F3
Note OFF: Time 332640, Note Name: G#3
Note ON: Time 332640, Note Name: F#1, Velocity: 38
Note ON: Time 332640, Note Name: F#2, Velocity: 44
Note OFF: Time 333120, Note Name: F#2
Note OFF: Time 333120, Note Name: F#1
Note ON: Time 333120, Note Name: G1, Velocity: 38
Note ON: Time 333120, Note Name: G2, Velocity: 44
Note OFF: Time 333210, Note Name: G2
Note OFF: Time 333210, Note Name: G1
Note ON: Time 333360, Note Name: G#1, Velocity: 35
Note ON: Time 333360, Note Name: G#2, Velocity: 43
Note OFF: Time 333450, Note Name: G#2
Note OFF: Time 333450, Note Name: G#1
Note ON: Time 333600, Note Name: A1, Velocity: 43
Note ON: Time 333600, Note Name: A2, Velocity: 51
Note OFF: Time 334080, Note Name: A2
Note OFF: Time 334080, Note Name: A1
Note ON: Time 334080, Note Name: B1, Velocity: 53
Note ON: Time 334080, Note Name: B2, Velocity: 63
Note OFF: Time 334470, Note Name: B2
Note OFF: Time 334470, Note Name: B1
Note ON: Time 334470, Note Name: C3, Velocity: 39
Note ON: Time 334500, Note Name: F#3, Velocity: 39
Note ON: Time 334530, Note Name: G#3, Velocity: 39
Note ON: Time 334560, Note Name: D4, Velocity: 48
Note OFF: Time 334950, Note Name: D4
Note OFF: Time 334950, Note Name: C3
Note OFF: Time 334950, Note Name: F#3
Note OFF: Time 334950, Note Name: G#3
Note ON: Time 334950, Note Name: C#3, Velocity: 39
Note ON: Time 334980, Note Name: G#3, Velocity: 39
Note ON: Time 335010, Note Name: B3, Velocity: 39
Note ON: Time 335040, Note Name: F4, Velocity: 48
Note OFF: Time 335520, Note Name: F4
Note OFF: Time 335520, Note Name: C#3
Note OFF: Time 335520, Note Name: G#3
Note OFF: Time 335520, Note Name: B3
Note ON: Time 335520, Note Name: A1, Velocity: 36
Note ON: Time 335520, Note Name: A2, Velocity: 42
Note OFF: Time 336000, Note Name: A2
Note OFF: Time 336000, Note Name: A1
Note ON: Time 336000, Note Name: B1, Velocity: 36
Note ON: Time 336000, Note Name: B2, Velocity: 42
Note OFF: Time 336090, Note Name: B2
Note OFF: Time 336090, Note Name: B1
Note ON: Time 336240, Note Name: C2, Velocity: 37
Note ON: Time 336240, Note Name: C3, Velocity: 45
Note OFF: Time 336330, Note Name: C3
Note OFF: Time 336330, Note Name: C2
Note ON: Time 336480, Note Name: C#2, Velocity: 46
Note ON: Time 336480, Note Name: C#3, Velocity: 54
Note OFF: Time 336960, Note Name: C#3
Note OFF: Time 336960, Note Name: C#2
Note ON: Time 336960, Note Name: D2, Velocity: 40
Note ON: Time 336960, Note Name: D3, Velocity: 47
Note OFF: Time 337440, Note Name: D3
Note OFF: Time 337440, Note Name: D2
Note ON: Time 337440, Note Name: D#2, Velocity: 38
Note ON: Time 337440, Note Name: D#3, Velocity: 44
Note OFF: Time 337530, Note Name: D#3
Note OFF: Time 337530, Note Name: D#2
Note ON: Time 337680, Note Name: E2, Velocity: 37
Note ON: Time 337680, Note Name: E3, Velocity: 45
Note OFF: Time 337770, Note Name: E3
Note OFF: Time 337770, Note Name: E2
Note ON: Time 337920, Note Name: F2, Velocity: 45
Note ON: Time 337920, Note Name: F3, Velocity: 53
Note OFF: Time 338400, Note Name: F3
Note OFF: Time 338400, Note Name: F2
Note ON: Time 338400, Note Name: F#2, Velocity: 40
Note ON: Time 338400, Note Name: F#3, Velocity: 47
Note OFF: Time 338880, Note Name: F#3
Note OFF: Time 338880, Note Name: F#2
Note ON: Time 338880, Note Name: G#2, Velocity: 38
Note ON: Time 338880, Note Name: G#3, Velocity: 44
Note OFF: Time 338970, Note Name: G#3
Note OFF: Time 338970, Note Name: G#2
Note ON: Time 339120, Note Name: A2, Velocity: 37
Note ON: Time 339120, Note Name: A3, Velocity: 45
Note OFF: Time 339210, Note Name: A3
Note OFF: Time 339210, Note Name: A2
Note ON: Time 339360, Note Name: A#2, Velocity: 47
Note ON: Time 339360, Note Name: A#3, Velocity: 56
Note OFF: Time 339840, Note Name: A#3
Note OFF: Time 339840, Note Name: A#2
Note ON: Time 339840, Note Name: B2, Velocity: 48
Note ON: Time 339840, Note Name: B3, Velocity: 57
Note OFF: Time 340320, Note Name: B3
Note OFF: Time 340320, Note Name: B2
Note ON: Time 340320, Note Name: B1, Velocity: 43
Note ON: Time 340320, Note Name: B2, Velocity: 52
Note OFF: Time 340800, Note Name: B2
Note OFF: Time 340800, Note Name: B1
Note ON: Time 340800, Note Name: C2, Velocity: 43
Note ON: Time 340800, Note Name: C3, Velocity: 52
Note OFF: Time 341280, Note Name: C3
Note OFF: Time 341280, Note Name: C2
Note ON: Time 341280, Note Name: C#2, Velocity: 50
Note ON: Time 341280, Note Name: C#3, Velocity: 60
Note OFF: Time 341760, Note Name: C#3
Note OFF: Time 341760, Note Name: C#2
Note ON: Time 341760, Note Name: C#3, Velocity: 48
Note ON: Time 341760, Note Name: A#3, Velocity: 57
Note OFF: Time 342240, Note Name: A#3
Note OFF: Time 342240, Note Name: C#3
Note ON: Time 342240, Note Name: C#4, Velocity: 57
Note ON: Time 342240, Note Name: F#3, Velocity: 48
Note OFF: Time 342720, Note Name: F#3
Note OFF: Time 342720, Note Name: C#4
Note ON: Time 342720, Note Name: A#3, Velocity: 42
Note ON: Time 342720, Note Name: F#4, Velocity: 60
Note OFF: Time 343200, Note Name: F#4
Note OFF: Time 343200, Note Name: A#3
Note ON: Time 343200, Note Name: C#4, Velocity: 40
Note ON: Time 343200, Note Name: A#4, Velocity: 57
Note OFF: Time 343680, Note Name: A#4
Note OFF: Time 343680, Note Name: C#4
Note ON: Time 343680, Note Name: C#5, Velocity: 57
Note ON: Time 343680, Note Name: F#4, Velocity: 40
Note OFF: Time 344160, Note Name: F#4
Note OFF: Time 344160, Note Name: C#5
Note ON: Time 344160, Note Name: A#4, Velocity: 48
Note ON: Time 344160, Note Name: F#5, Velocity: 57
Note OFF: Time 344640, Note Name: F#5
Note OFF: Time 344640, Note Name: A#4
Note ON: Time 344640, Note Name: B4, Velocity: 46
Note ON: Time 344640, Note Name: F5, Velocity: 51
Note OFF: Time 345120, Note Name: F5
Note OFF: Time 345120, Note Name: B4
Note ON: Time 345120, Note Name: C#4, Velocity: 42
Note ON: Time 345120, Note Name: F4, Velocity: 42
Note ON: Time 345120, Note Name: B4, Velocity: 51
Note OFF: Time 345600, Note Name: B4
Note OFF: Time 345600, Note Name: F4
Note OFF: Time 345600, Note Name: C#4
Note ON: Time 345600, Note Name: C#4, Velocity: 46
Note ON: Time 345600, Note Name: F4, Velocity: 46
Note ON: Time 345600, Note Name: B4, Velocity: 52
Note OFF: Time 346080, Note Name: B4
Note OFF: Time 346080, Note Name: F4
Note ON: Time 346080, Note Name: F#3, Velocity: 38
Note ON: Time 346080, Note Name: A#4, Velocity: 47
Note OFF: Time 346560, Note Name: A#4
Note OFF: Time 346560, Note Name: F#3
Note OFF: Time 346560, Note Name: C#4
Note ON: Time 346560, Note Name: C#3, Velocity: 28
Note ON: Time 346560, Note Name: F3, Velocity: 33
Note ON: Time 346560, Note Name: B3, Velocity: 38
Note OFF: Time 347040, Note Name: B3
Note OFF: Time 347040, Note Name: F3
Note OFF: Time 347040, Note Name: C#3
Note ON: Time 347040, Note Name: C#3, Velocity: 31
Note ON: Time 347040, Note Name: F3, Velocity: 34
Note ON: Time 347040, Note Name: B3, Velocity: 42
Note OFF: Time 347520, Note Name: B3
Note OFF: Time 347520, Note Name: F3
Note ON: Time 347520, Note Name: F#2, Velocity: 32
Note ON: Time 347520, Note Name: A#3, Velocity: 38
Note OFF: Time 348000, Note Name: A#3
Note OFF: Time 348000, Note Name: F#2
Note OFF: Time 348000, Note Name: C#3
Note ON: Time 348000, Note Name: C#3, Velocity: 29
Note ON: Time 348000, Note Name: F3, Velocity: 31
Note ON: Time 348000, Note Name: B3, Velocity: 36
Note OFF: Time 348480, Note Name: B3
Note OFF: Time 348480, Note Name: F3
Note OFF: Time 348480, Note Name: C#3
Note ON: Time 348480, Note Name: C#3, Velocity: 30
Note ON: Time 348480, Note Name: F3, Velocity: 34
Note ON: Time 348480, Note Name: B3, Velocity: 38
Note OFF: Time 348960, Note Name: B3
Note OFF: Time 348960, Note Name: F3
Note ON: Time 348960, Note Name: F#2, Velocity: 32
Note ON: Time 348960, Note Name: A#3, Velocity: 38
Note OFF: Time 349440, Note Name: A#3
Note OFF: Time 349440, Note Name: F#2
Note OFF: Time 349440, Note Name: C#3
Note ON: Time 352800, Note Name: G#2, Velocity: 36
Note ON: Time 352800, Note Name: G#3, Velocity: 43
Note OFF: Time 353280, Note Name: G#3
Note OFF: Time 353280, Note Name: G#2
Note ON: Time 353280, Note Name: F#2, Velocity: 30
Note ON: Time 353280, Note Name: F#3, Velocity: 37
Note OFF: Time 353760, Note Name: F#3
Note OFF: Time 353760, Note Name: F#2
Note ON: Time 353760, Note Name: D#2, Velocity: 30
Note ON: Time 353760, Note Name: D#3, Velocity: 37
Note OFF: Time 354240, Note Name: D#3
Note OFF: Time 354240, Note Name: D#2
Note ON: Time 354240, Note Name: F#2, Velocity: 36
Note ON: Time 354240, Note Name: F#3, Velocity: 43
Note OFF: Time 354720, Note Name: F#3
Note OFF: Time 354720, Note Name: F#2
Note ON: Time 354720, Note Name: F2, Velocity: 30
Note ON: Time 354720, Note Name: F3, Velocity: 37
Note OFF: Time 355200, Note Name: F3
Note OFF: Time 355200, Note Name: F2
Note ON: Time 355200, Note Name: C#2, Velocity: 30
Note ON: Time 355200, Note Name: C#3, Velocity: 37
Note OFF: Time 355680, Note Name: C#3
Note OFF: Time 355680, Note Name: C#2
Note ON: Time 355680, Note Name: D#2, Velocity: 36
Note ON: Time 355680, Note Name: D#3, Velocity: 43
Note OFF: Time 356160, Note Name: D#3
Note OFF: Time 356160, Note Name: D#2
Note ON: Time 356160, Note Name: C#2, Velocity: 30
Note ON: Time 356160, Note Name: C#3, Velocity: 37
Note OFF: Time 356640, Note Name: C#3
Note OFF: Time 356640, Note Name: C#2
Note ON: Time 356640, Note Name: A#1, Velocity: 30
Note ON: Time 356640, Note Name: A#2, Velocity: 37
Note OFF: Time 357120, Note Name: A#2
Note OFF: Time 357120, Note Name: A#1
Note ON: Time 357120, Note Name: B1, Velocity: 32
Note ON: Time 357120, Note Name: B2, Velocity: 39
Note OFF: Time 357600, Note Name: B2
Note OFF: Time 357600, Note Name: B1
Note ON: Time 357600, Note Name: A#1, Velocity: 29
Note ON: Time 357600, Note Name: A#2, Velocity: 35
Note OFF: Time 358080, Note Name: A#2
Note OFF: Time 358080, Note Name: A#1
Note ON: Time 358080, Note Name: F#1, Velocity: 29
Note ON: Time 358080, Note Name: F#2, Velocity: 35
Note OFF: Time 358560, Note Name: F#2
Note OFF: Time 358560, Note Name: F#1
Note ON: Time 358560, Note Name: D#1, Velocity: 40
Note ON: Time 358560, Note Name: D#2, Velocity: 47
Note OFF: Time 359040, Note Name: D#2
Note OFF: Time 359040, Note Name: D#1
Note ON: Time 359040, Note Name: E1, Velocity: 38
Note ON: Time 359040, Note Name: E2, Velocity: 44
Note OFF: Time 359130, Note Name: E2
Note OFF: Time 359130, Note Name: E1
Note ON: Time 359280, Note Name: F1, Velocity: 38
Note ON: Time 359280, Note Name: F2, Velocity: 47
Note OFF: Time 359370, Note Name: F2
Note OFF: Time 359370, Note Name: F1
Note ON: Time 359520, Note Name: F#1, Velocity: 47
Note ON: Time 359520, Note Name: F#2, Velocity: 56
Note OFF: Time 360000, Note Name: F#2
Note OFF: Time 360000, Note Name: F#1
Note ON: Time 360000, Note Name: G#1, Velocity: 56
Note ON: Time 360000, Note Name: G#2, Velocity: 67
Note OFF: Time 360480, Note Name: G#2
Note OFF: Time 360480, Note Name: G#1
Note ON: Time 360480, Note Name: G#2, Velocity: 43
Note ON: Time 360480, Note Name: D#3, Velocity: 43
Note ON: Time 360480, Note Name: F3, Velocity: 43
Note ON: Time 360480, Note Name: B3, Velocity: 51
Note OFF: Time 360960, Note Name: B3
Note OFF: Time 360960, Note Name: G#2
Note OFF: Time 360960, Note Name: D#3
Note OFF: Time 360960, Note Name: F3
Note ON: Time 360960, Note Name: A#2, Velocity: 43
Note ON: Time 360960, Note Name: F3, Velocity: 43
Note ON: Time 360960, Note Name: G#3, Velocity: 43
Note ON: Time 360960, Note Name: D4, Velocity: 51
Note OFF: Time 361440, Note Name: D4
Note OFF: Time 361440, Note Name: A#2
Note OFF: Time 361440, Note Name: F3
Note OFF: Time 361440, Note Name: G#3
Note ON: Time 361440, Note Name: F#1, Velocity: 40
Note ON: Time 361440, Note Name: F#2, Velocity: 47
Note OFF: Time 361920, Note Name: F#2
Note OFF: Time 361920, Note Name: F#1
Note ON: Time 361920, Note Name: G1, Velocity: 38
Note ON: Time 361920, Note Name: G2, Velocity: 44
Note OFF: Time 362010, Note Name: G2
Note OFF: Time 362010, Note Name: G1
Note ON: Time 362160, Note Name: G#1, Velocity: 35
Note ON: Time 362160, Note Name: G#2, Velocity: 43
Note OFF: Time 362250, Note Name: G#2
Note OFF: Time 362250, Note Name: G#1
Note ON: Time 362400, Note Name: A1, Velocity: 46
Note ON: Time 362400, Note Name: A2, Velocity: 54
Note OFF: Time 362880, Note Name: A2
Note OFF: Time 362880, Note Name: A1
Note ON: Time 362880, Note Name: B1, Velocity: 56
Note ON: Time 362880, Note Name: B2, Velocity: 67
Note OFF: Time 363360, Note Name: B2
Note OFF: Time 363360, Note Name: B1
Note ON: Time 363360, Note Name: C3, Velocity: 43
Note ON: Time 363360, Note Name: F#3, Velocity: 43
Note ON: Time 363360, Note Name: G#3, Velocity: 43
Note ON: Time 363360, Note Name: D4, Velocity: 51
Note OFF: Time 363840, Note Name: D4
Note OFF: Time 363840, Note Name: C3
Note OFF: Time 363840, Note Name: F#3
Note OFF: Time 363840, Note Name: G#3
Note ON: Time 363840, Note Name: C#3, Velocity: 43
Note ON: Time 363840, Note Name: G#3, Velocity: 43
Note ON: Time 363840, Note Name: B3, Velocity: 43
Note ON: Time 363840, Note Name: F4, Velocity: 51
Note OFF: Time 364320, Note Name: F4
Note OFF: Time 364320, Note Name: C#3
Note OFF: Time 364320, Note Name: G#3
Note OFF: Time 364320, Note Name: B3
Note ON: Time 364320, Note Name: A1, Velocity: 36
Note ON: Time 364320, Note Name: A2, Velocity: 42
Note OFF: Time 364800, Note Name: A2
Note OFF: Time 364800, Note Name: A1
Note ON: Time 364800, Note Name: B1, Velocity: 36
Note ON: Time 364800, Note Name: B2, Velocity: 42
Note OFF: Time 364890, Note Name: B2
Note OFF: Time 364890, Note Name: B1
Note ON: Time 365040, Note Name: C2, Velocity: 37
Note ON: Time 365040, Note Name: C3, Velocity: 45
Note OFF: Time 365130, Note Name: C3
Note OFF: Time 365130, Note Name: C2
Note ON: Time 365280, Note Name: C#2, Velocity: 46
Note ON: Time 365280, Note Name: C#3, Velocity: 54
Note OFF: Time 365760, Note Name: C#3
Note OFF: Time 365760, Note Name: C#2
Note ON: Time 365760, Note Name: D2, Velocity: 40
Note ON: Time 365760, Note Name: D3, Velocity: 47
Note OFF: Time 366240, Note Name: D3
Note OFF: Time 366240, Note Name: D2
Note ON: Time 366240, Note Name: D#2, Velocity: 40
Note ON: Time 366240, Note Name: D#3, Velocity: 47
Note OFF: Time 366330, Note Name: D#3
Note OFF: Time 366330, Note Name: D#2
Note ON: Time 366480, Note Name: E2, Velocity: 39
Note ON: Time 366480, Note Name: E3, Velocity: 48
Note OFF: Time 366570, Note Name: E3
Note OFF: Time 366570, Note Name: E2
Note ON: Time 366720, Note Name: F2, Velocity: 45
Note ON: Time 366720, Note Name: F3, Velocity: 53
Note OFF: Time 367200, Note Name: F3
Note OFF: Time 367200, Note Name: F2
Note ON: Time 367200, Note Name: F#2, Velocity: 42
Note ON: Time 367200, Note Name: F#3, Velocity: 49
Note OFF: Time 367680, Note Name: F#3
Note OFF: Time 367680, Note Name: F#2
Note ON: Time 367680, Note Name: G2, Velocity: 42
Note ON: Time 367680, Note Name: G3, Velocity: 49
Note OFF: Time 367770, Note Name: G3
Note OFF: Time 367770, Note Name: G2
Note ON: Time 367920, Note Name: G#2, Velocity: 40
Note ON: Time 367920, Note Name: G#3, Velocity: 50
Note OFF: Time 368010, Note Name: G#3
Note OFF: Time 368010, Note Name: G#2
Note ON: Time 368160, Note Name: A2, Velocity: 49
Note ON: Time 368160, Note Name: A3, Velocity: 58
Note OFF: Time 368640, Note Name: A3
Note OFF: Time 368640, Note Name: A2
Note ON: Time 368640, Note Name: F#3, Velocity: 50
Note ON: Time 368640, Note Name: C3, Velocity: 50
Note ON: Time 368640, Note Name: C4, Velocity: 59
Note OFF: Time 369120, Note Name: C4
Note OFF: Time 369120, Note Name: C3
Note OFF: Time 369120, Note Name: F#3
Note ON: Time 369120, Note Name: G3, Velocity: 45
Note ON: Time 369120, Note Name: B2, Velocity: 45
Note ON: Time 369120, Note Name: B3, Velocity: 54
Note OFF: Time 369600, Note Name: B3
Note OFF: Time 369600, Note Name: B2
Note OFF: Time 369600, Note Name: G3
Note ON: Time 369600, Note Name: D1, Velocity: 49
Note ON: Time 369600, Note Name: D2, Velocity: 59
Note OFF: Time 370080, Note Name: D2
Note OFF: Time 370080, Note Name: D1
Note ON: Time 370080, Note Name: C#3, Velocity: 61
Note ON: Time 370080, Note Name: C#1, Velocity: 50
Note ON: Time 370080, Note Name: C#2, Velocity: 60
Note OFF: Time 370320, Note Name: C#3
Note OFF: Time 370560, Note Name: C#2
Note OFF: Time 370560, Note Name: C#1
Note ON: Time 370560, Note Name: C#3, Velocity: 48
Note ON: Time 370560, Note Name: A3, Velocity: 57
Note OFF: Time 371040, Note Name: A3
Note OFF: Time 371040, Note Name: C#3
Note ON: Time 371040, Note Name: C#4, Velocity: 57
Note ON: Time 371040, Note Name: F#3, Velocity: 48
Note OFF: Time 371520, Note Name: F#3
Note OFF: Time 371520, Note Name: C#4
Note ON: Time 371520, Note Name: A3, Velocity: 42
Note ON: Time 371520, Note Name: F#4, Velocity: 60
Note OFF: Time 372000, Note Name: F#4
Note OFF: Time 372000, Note Name: A3
Note ON: Time 372000, Note Name: C#4, Velocity: 40
Note ON: Time 372000, Note Name: A4, Velocity: 57
Note OFF: Time 372480, Note Name: A4
Note OFF: Time 372480, Note Name: C#4
Note ON: Time 372480, Note Name: C#5, Velocity: 57
Note ON: Time 372480, Note Name: F#4, Velocity: 40
Note OFF: Time 372960, Note Name: F#4
Note OFF: Time 372960, Note Name: C#5
Note ON: Time 372960, Note Name: A4, Velocity: 48
Note ON: Time 372960, Note Name: F#5, Velocity: 57
Note OFF: Time 373440, Note Name: F#5
Note OFF: Time 373440, Note Name: A4
Note ON: Time 373440, Note Name: B4, Velocity: 46
Note ON: Time 373440, Note Name: F5, Velocity: 54
Note OFF: Time 373920, Note Name: F5
Note OFF: Time 373920, Note Name: B4
Note ON: Time 373920, Note Name: C#4, Velocity: 42
Note ON: Time 373920, Note Name: F4, Velocity: 42
Note ON: Time 373920, Note Name: B4, Velocity: 51
Note OFF: Time 374400, Note Name: B4
Note OFF: Time 374400, Note Name: F4
Note OFF: Time 374400, Note Name: C#4
Note ON: Time 374400, Note Name: C#4, Velocity: 46
Note ON: Time 374400, Note Name: F4, Velocity: 46
Note ON: Time 374400, Note Name: B4, Velocity: 54
Note OFF: Time 374880, Note Name: B4
Note OFF: Time 374880, Note Name: F4
Note ON: Time 374880, Note Name: F#3, Velocity: 38
Note ON: Time 374880, Note Name: A4, Velocity: 47
Note OFF: Time 375360, Note Name: A4
Note OFF: Time 375360, Note Name: F#3
Note OFF: Time 375360, Note Name: C#4
Note ON: Time 375360, Note Name: C#3, Velocity: 28
Note ON: Time 375360, Note Name: F3, Velocity: 33
Note ON: Time 375360, Note Name: B3, Velocity: 38
Note OFF: Time 375840, Note Name: B3
Note OFF: Time 375840, Note Name: F3
Note OFF: Time 375840, Note Name: C#3
Note ON: Time 375840, Note Name: C#3, Velocity: 30
Note ON: Time 375840, Note Name: F3, Velocity: 36
Note ON: Time 375840, Note Name: B3, Velocity: 42
Note OFF: Time 376320, Note Name: B3
Note OFF: Time 376320, Note Name: F3
Note ON: Time 376320, Note Name: F#2, Velocity: 32
Note ON: Time 376320, Note Name: A3, Velocity: 38
Note OFF: Time 376800, Note Name: A3
Note OFF: Time 376800, Note Name: F#2
Note OFF: Time 376800, Note Name: C#3
Note ON: Time 376800, Note Name: C#3, Velocity: 26
Note ON: Time 376800, Note Name: F3, Velocity: 31
Note ON: Time 376800, Note Name: B3, Velocity: 36
Note OFF: Time 377280, Note Name: B3
Note OFF: Time 377280, Note Name: F3
Note OFF: Time 377280, Note Name: C#3
Note ON: Time 377280, Note Name: C#3, Velocity: 29
Note ON: Time 377280, Note Name: F3, Velocity: 34
Note ON: Time 377280, Note Name: B3, Velocity: 38
Note OFF: Time 377760, Note Name: B3
Note OFF: Time 377760, Note Name: F3
Note ON: Time 377760, Note Name: F#2, Velocity: 30
Note ON: Time 377760, Note Name: A3, Velocity: 37
Note OFF: Time 378240, Note Name: A3
Note OFF: Time 378240, Note Name: F#2
Note OFF: Time 378240, Note Name: C#3
Note ON: Time 378240, Note Name: C#2, Velocity: 57
Note ON: Time 378240, Note Name: C#3, Velocity: 69
Note OFF: Time 379200, Note Name: C#3
Note OFF: Time 379200, Note Name: C#2
Note ON: Time 379200, Note Name: D2, Velocity: 52
Note ON: Time 379200, Note Name: D3, Velocity: 63
Note OFF: Time 379440, Note Name: D3
Note OFF: Time 379440, Note Name: D2
Note ON: Time 379440, Note Name: C#2, Velocity: 48
Note ON: Time 379440, Note Name: C#3, Velocity: 57
Note OFF: Time 379680, Note Name: C#3
Note OFF: Time 379680, Note Name: C#2
Note ON: Time 379680, Note Name: G#1, Velocity: 53
Note ON: Time 379680, Note Name: G#2, Velocity: 64
Note OFF: Time 379920, Note Name: G#2
Note OFF: Time 379920, Note Name: G#1
Note ON: Time 379920, Note Name: A1, Velocity: 47
Note ON: Time 379920, Note Name: A2, Velocity: 55
Note OFF: Time 380160, Note Name: A2
Note OFF: Time 380160, Note Name: A1
Note ON: Time 380160, Note Name: F#1, Velocity: 52
Note ON: Time 380160, Note Name: F#2, Velocity: 63
Note OFF: Time 381600, Note Name: F#2
Note OFF: Time 381600, Note Name: F#1
Note ON: Time 381600, Note Name: D1, Velocity: 72
Note ON: Time 381600, Note Name: D2, Velocity: 72
Note OFF: Time 382080, Note Name: D2
Note OFF: Time 382080, Note Name: D1
Note ON: Time 382080, Note Name: F#3, Velocity: 38
Note OFF: Time 382320, Note Name: F#3
Note ON: Time 382320, Note Name: F#3, Velocity: 39
Note OFF: Time 382560, Note Name: F#3
Note ON: Time 382560, Note Name: F3, Velocity: 40
Note OFF: Time 382800, Note Name: F3
Note ON: Time 382800, Note Name: F#3, Velocity: 42
Note OFF: Time 383040, Note Name: F#3
Note ON: Time 383040, Note Name: G3, Velocity: 43
Note OFF: Time 383280, Note Name: G3
Note ON: Time 383280, Note Name: G#3, Velocity: 45
Note OFF: Time 383520, Note Name: G#3
Note ON: Time 383520, Note Name: A3, Velocity: 46
Note OFF: Time 383760, Note Name: A3
Note ON: Time 383760, Note Name: A#3, Velocity: 47
Note OFF: Time 384000, Note Name: A#3
Note ON: Time 384000, Note Name: B3, Velocity: 49
Note OFF: Time 384240, Note Name: B3
Note ON: Time 384240, Note Name: C4, Velocity: 50
Note OFF: Time 384480, Note Name: C4
Note ON: Time 384480, Note Name: C#4, Velocity: 51
Note OFF: Time 384720, Note Name: C#4
Note ON: Time 384720, Note Name: D4, Velocity: 53
Note OFF: Time 384960, Note Name: D4
Note ON: Time 384960, Note Name: D#4, Velocity: 55
Note OFF: Time 385200, Note Name: D#4
Note ON: Time 385200, Note Name: E4, Velocity: 55
Note OFF: Time 385440, Note Name: E4
Note ON: Time 385440, Note Name: F4, Velocity: 55
Note OFF: Time 385680, Note Name: F4
Note ON: Time 385680, Note Name: F#4, Velocity: 57
Note OFF: Time 385920, Note Name: F#4
Note ON: Time 385920, Note Name: F#4, Velocity: 58
Note OFF: Time 386400, Note Name: F#4
Note ON: Time 386400, Note Name: G4, Velocity: 64
Note OFF: Time 386880, Note Name: G4
Note ON: Time 386880, Note Name: G4, Velocity: 74
Note ON: Time 386880, Note Name: D#4, Velocity: 74
Note ON: Time 386880, Note Name: A#3, Velocity: 74
Note ON: Time 386880, Note Name: G3, Velocity: 74
Note OFF: Time 387120, Note Name: G3
Note OFF: Time 387120, Note Name: G4
Note OFF: Time 387120, Note Name: D#4
Note OFF: Time 387120, Note Name: A#3
Note ON: Time 387360, Note Name: D#2, Velocity: 79
Note ON: Time 387360, Note Name: D#3, Velocity: 79
Note OFF: Time 387840, Note Name: D#3
Note OFF: Time 387840, Note Name: D#2
Note ON: Time 387840, Note Name: G3, Velocity: 38
Note OFF: Time 388080, Note Name: G3
Note ON: Time 388080, Note Name: G3, Velocity: 39
Note OFF: Time 388320, Note Name: G3
Note ON: Time 388320, Note Name: F#3, Velocity: 40
Note OFF: Time 388560, Note Name: F#3
Note ON: Time 388560, Note Name: G3, Velocity: 42
Note OFF: Time 388800, Note Name: G3
Note ON: Time 388800, Note Name: G#3, Velocity: 43
Note OFF: Time 389040, Note Name: G#3
Note ON: Time 389040, Note Name: A3, Velocity: 45
Note OFF: Time 389280, Note Name: A3
Note ON: Time 389280, Note Name: A#3, Velocity: 46
Note OFF: Time 389520, Note Name: A#3
Note ON: Time 389520, Note Name: B3, Velocity: 47
Note OFF: Time 389760, Note Name: B3
Note ON: Time 389760, Note Name: C4, Velocity: 49
Note OFF: Time 390000, Note Name: C4
Note ON: Time 390000, Note Name: C#4, Velocity: 50
Note OFF: Time 390240, Note Name: C#4
Note ON: Time 390240, Note Name: D4, Velocity: 51
Note OFF: Time 390480, Note Name: D4
Note ON: Time 390480, Note Name: D#4, Velocity: 53
Note OFF: Time 390720, Note Name: D#4
Note ON: Time 390720, Note Name: E4, Velocity: 55
Note OFF: Time 390960, Note Name: E4
Note ON: Time 390960, Note Name: F4, Velocity: 55
Note OFF: Time 391200, Note Name: F4
Note ON: Time 391200, Note Name: F#4, Velocity: 55
Note OFF: Time 391440, Note Name: F#4
Note ON: Time 391440, Note Name: G4, Velocity: 57
Note OFF: Time 391680, Note Name: G4
Note ON: Time 391680, Note Name: G4, Velocity: 58
Note OFF: Time 392160, Note Name: G4
Note ON: Time 392160, Note Name: G#4, Velocity: 64
Note OFF: Time 392640, Note Name: G#4
Note ON: Time 392640, Note Name: G#4, Velocity: 74
Note ON: Time 392640, Note Name: E4, Velocity: 74
Note ON: Time 392640, Note Name: B3, Velocity: 74
Note ON: Time 392640, Note Name: G#3, Velocity: 74
Note OFF: Time 392880, Note Name: G#3
Note OFF: Time 392880, Note Name: G#4
Note OFF: Time 392880, Note Name: E4
Note OFF: Time 392880, Note Name: B3
Note ON: Time 393120, Note Name: E2, Velocity: 79
Note ON: Time 393120, Note Name: E3, Velocity: 79
Note OFF: Time 393600, Note Name: E3
Note OFF: Time 393600, Note Name: E2
Note ON: Time 393600, Note Name: G#3, Velocity: 50
Note ON: Time 393600, Note Name: B3, Velocity: 59
Note OFF: Time 393840, Note Name: B3
Note OFF: Time 393840, Note Name: G#3
Note ON: Time 393840, Note Name: G#3, Velocity: 49
Note ON: Time 393840, Note Name: B3, Velocity: 58
Note OFF: Time 394080, Note Name: B3
Note OFF: Time 394080, Note Name: G#3
Note ON: Time 394080, Note Name: G3, Velocity: 46
Note ON: Time 394080, Note Name: A#3, Velocity: 54
Note OFF: Time 394320, Note Name: A#3
Note OFF: Time 394320, Note Name: G3
Note ON: Time 394320, Note Name: G#3, Velocity: 46
Note ON: Time 394320, Note Name: B3, Velocity: 54
Note OFF: Time 394560, Note Name: B3
Note OFF: Time 394560, Note Name: G#3
Note ON: Time 394560, Note Name: A3, Velocity: 49
Note ON: Time 394560, Note Name: C4, Velocity: 58
Note OFF: Time 394800, Note Name: C4
Note OFF: Time 394800, Note Name: A3
Note ON: Time 394800, Note Name: A#3, Velocity: 49
Note ON: Time 394800, Note Name: C#4, Velocity: 58
Note OFF: Time 395040, Note Name: C#4
Note OFF: Time 395040, Note Name: A#3
Note ON: Time 395040, Note Name: B3, Velocity: 49
Note ON: Time 395040, Note Name: D4, Velocity: 58
Note OFF: Time 395160, Note Name: D4
Note OFF: Time 395160, Note Name: B3
Note ON: Time 395280, Note Name: B3, Velocity: 45
Note ON: Time 395280, Note Name: D4, Velocity: 53
Note OFF: Time 395400, Note Name: D4
Note OFF: Time 395400, Note Name: B3
Note ON: Time 395520, Note Name: B3, Velocity: 45
Note ON: Time 395520, Note Name: D4, Velocity: 53
Note OFF: Time 395640, Note Name: D4
Note OFF: Time 395640, Note Name: B3
Note ON: Time 395760, Note Name: B3, Velocity: 46
Note ON: Time 395760, Note Name: D4, Velocity: 54
Note OFF: Time 395880, Note Name: D4
Note OFF: Time 395880, Note Name: B3
Note ON: Time 396000, Note Name: B3, Velocity: 49
Note ON: Time 396000, Note Name: D4, Velocity: 58
Note OFF: Time 396240, Note Name: D4
Note OFF: Time 396240, Note Name: B3
Note ON: Time 396240, Note Name: A#3, Velocity: 46
Note ON: Time 396240, Note Name: C#4, Velocity: 54
Note OFF: Time 396480, Note Name: C#4
Note OFF: Time 396480, Note Name: A#3
Note ON: Time 396480, Note Name: A#3, Velocity: 49
Note ON: Time 396480, Note Name: C#4, Velocity: 58
Note OFF: Time 396600, Note Name: C#4
Note OFF: Time 396600, Note Name: A#3
Note ON: Time 396720, Note Name: A#3, Velocity: 46
Note ON: Time 396720, Note Name: C#4, Velocity: 54
Note OFF: Time 396840, Note Name: C#4
Note OFF: Time 396840, Note Name: A#3
Note ON: Time 396960, Note Name: A3, Velocity: 46
Note ON: Time 396960, Note Name: C4, Velocity: 54
Note OFF: Time 397080, Note Name: C4
Note OFF: Time 397080, Note Name: A3
Note ON: Time 397200, Note Name: A#3, Velocity: 46
Note ON: Time 397200, Note Name: C#4, Velocity: 54
Note OFF: Time 397320, Note Name: C#4
Note OFF: Time 397320, Note Name: A#3
Note ON: Time 397440, Note Name: B3, Velocity: 49
Note ON: Time 397440, Note Name: D4, Velocity: 58
Note OFF: Time 397680, Note Name: D4
Note OFF: Time 397680, Note Name: B3
Note ON: Time 397680, Note Name: C4, Velocity: 46
Note ON: Time 397680, Note Name: D#4, Velocity: 54
Note OFF: Time 397920, Note Name: D#4
Note OFF: Time 397920, Note Name: C4
Note ON: Time 397920, Note Name: C#4, Velocity: 49
Note ON: Time 397920, Note Name: E4, Velocity: 58
Note OFF: Time 398040, Note Name: E4
Note OFF: Time 398040, Note Name: C#4
Note ON: Time 398160, Note Name: C#4, Velocity: 51
Note ON: Time 398160, Note Name: E4, Velocity: 60
Note OFF: Time 398280, Note Name: E4
Note OFF: Time 398280, Note Name: C#4
Note ON: Time 398400, Note Name: C#4, Velocity: 53
Note ON: Time 398400, Note Name: E4, Velocity: 63
Note OFF: Time 398520, Note Name: E4
Note OFF: Time 398520, Note Name: C#4
Note ON: Time 398640, Note Name: C#4, Velocity: 53
Note ON: Time 398640, Note Name: E4, Velocity: 64
Note OFF: Time 398760, Note Name: E4
Note OFF: Time 398760, Note Name: C#4
Note ON: Time 398880, Note Name: C#4, Velocity: 56
Note ON: Time 398880, Note Name: E4, Velocity: 67
Note OFF: Time 399120, Note Name: E4
Note OFF: Time 399120, Note Name: C#4
Note ON: Time 399120, Note Name: C4, Velocity: 50
Note ON: Time 399120, Note Name: D#4, Velocity: 59
Note OFF: Time 399360, Note Name: D#4
Note OFF: Time 399360, Note Name: C4
Note ON: Time 399360, Note Name: C4, Velocity: 50
Note ON: Time 399360, Note Name: D#4, Velocity: 59
Note OFF: Time 399480, Note Name: D#4
Note OFF: Time 399480, Note Name: C4
Note ON: Time 399600, Note Name: C4, Velocity: 52
Note ON: Time 399600, Note Name: D#4, Velocity: 61
Note OFF: Time 399720, Note Name: D#4
Note OFF: Time 399720, Note Name: C4
Note ON: Time 399840, Note Name: B3, Velocity: 53
Note ON: Time 399840, Note Name: D4, Velocity: 64
Note OFF: Time 399960, Note Name: D4
Note OFF: Time 399960, Note Name: B3
Note ON: Time 400080, Note Name: C4, Velocity: 54
Note ON: Time 400080, Note Name: D#4, Velocity: 65
Note OFF: Time 400200, Note Name: D#4
Note OFF: Time 400200, Note Name: C4
Note ON: Time 400320, Note Name: B3, Velocity: 56
Note ON: Time 400320, Note Name: F4, Velocity: 67
Note ON: Time 400320, Note Name: C#4, Velocity: 56
Note OFF: Time 400800, Note Name: C#4
Note OFF: Time 400800, Note Name: F4
Note OFF: Time 400800, Note Name: B3
Note ON: Time 400800, Note Name: C#2, Velocity: 49
Note ON: Time 400800, Note Name: C#3, Velocity: 59
Note OFF: Time 401280, Note Name: C#3
Note OFF: Time 401280, Note Name: C#2
Note ON: Time 401280, Note Name: F4, Velocity: 65
Note ON: Time 401280, Note Name: C#4, Velocity: 54
Note ON: Time 401280, Note Name: B3, Velocity: 54
Note OFF: Time 401760, Note Name: B3
Note OFF: Time 401760, Note Name: C#4
Note OFF: Time 401760, Note Name: F4
Note ON: Time 401760, Note Name: E4, Velocity: 67
Note ON: Time 401760, Note Name: C#4, Velocity: 56
Note ON: Time 401760, Note Name: B3, Velocity: 56
Note ON: Time 401760, Note Name: F#3, Velocity: 56
Note OFF: Time 402240, Note Name: F#3
Note OFF: Time 402240, Note Name: E4
Note OFF: Time 402240, Note Name: C#4
Note OFF: Time 402240, Note Name: B3
Note ON: Time 402240, Note Name: F#1, Velocity: 51
Note ON: Time 402240, Note Name: F#2, Velocity: 60
Note OFF: Time 402720, Note Name: F#2
Note OFF: Time 402720, Note Name: F#1
Note ON: Time 402720, Note Name: E4, Velocity: 61
Note ON: Time 402720, Note Name: C#4, Velocity: 52
Note ON: Time 402720, Note Name: A#3, Velocity: 52
Note ON: Time 402720, Note Name: F#3, Velocity: 52
Note OFF: Time 403200, Note Name: F#3
Note OFF: Time 403200, Note Name: E4
Note OFF: Time 403200, Note Name: C#4
Note OFF: Time 403200, Note Name: A#3
Note ON: Time 403200, Note Name: A3, Velocity: 54
Note ON: Time 403200, Note Name: D#4, Velocity: 63
Note ON: Time 403200, Note Name: B3, Velocity: 54
Note OFF: Time 403680, Note Name: B3
Note OFF: Time 403680, Note Name: D#4
Note OFF: Time 403680, Note Name: A3
Note ON: Time 403680, Note Name: B1, Velocity: 47
Note ON: Time 403680, Note Name: B2, Velocity: 57
Note OFF: Time 404160, Note Name: B2
Note OFF: Time 404160, Note Name: B1
Note ON: Time 404160, Note Name: D#4, Velocity: 61
Note ON: Time 404160, Note Name: B3, Velocity: 51
Note ON: Time 404160, Note Name: A3, Velocity: 51
Note OFF: Time 404640, Note Name: A3
Note OFF: Time 404640, Note Name: B3
Note OFF: Time 404640, Note Name: D#4
Note ON: Time 404640, Note Name: D4, Velocity: 67
Note ON: Time 404640, Note Name: B3, Velocity: 56
Note ON: Time 404640, Note Name: A3, Velocity: 56
Note ON: Time 404640, Note Name: E3, Velocity: 56
Note OFF: Time 405120, Note Name: E3
Note OFF: Time 405120, Note Name: D4
Note OFF: Time 405120, Note Name: B3
Note OFF: Time 405120, Note Name: A3
Note ON: Time 405120, Note Name: E1, Velocity: 51
Note ON: Time 405120, Note Name: E2, Velocity: 60
Note OFF: Time 405600, Note Name: E2
Note OFF: Time 405600, Note Name: E1
Note ON: Time 405600, Note Name: D4, Velocity: 61
Note ON: Time 405600, Note Name: G#3, Velocity: 52
Note ON: Time 405600, Note Name: E3, Velocity: 52
Note OFF: Time 406080, Note Name: E3
Note OFF: Time 406080, Note Name: G#3
Note OFF: Time 406080, Note Name: D4
Note ON: Time 406080, Note Name: G3, Velocity: 56
Note ON: Time 406080, Note Name: C#4, Velocity: 67
Note ON: Time 406080, Note Name: A3, Velocity: 56
Note OFF: Time 406560, Note Name: A3
Note OFF: Time 406560, Note Name: C#4
Note OFF: Time 406560, Note Name: G3
Note ON: Time 406560, Note Name: A1, Velocity: 50
Note ON: Time 406560, Note Name: A2, Velocity: 59
Note OFF: Time 407040, Note Name: A2
Note OFF: Time 407040, Note Name: A1
Note ON: Time 407040, Note Name: C#4, Velocity: 60
Note ON: Time 407040, Note Name: A3, Velocity: 51
Note ON: Time 407040, Note Name: G3, Velocity: 51
Note OFF: Time 407520, Note Name: G3
Note OFF: Time 407520, Note Name: A3
Note OFF: Time 407520, Note Name: C#4
Note ON: Time 407520, Note Name: F#3, Velocity: 56
Note ON: Time 407520, Note Name: C4, Velocity: 67
Note OFF: Time 408000, Note Name: C4
Note OFF: Time 408000, Note Name: F#3
Note ON: Time 408000, Note Name: A3, Velocity: 48
Note ON: Time 408000, Note Name: C4, Velocity: 58
Note OFF: Time 408480, Note Name: C4
Note OFF: Time 408480, Note Name: A3
Note ON: Time 408480, Note Name: A4, Velocity: 55
Note ON: Time 408480, Note Name: C5, Velocity: 65
Note OFF: Time 408960, Note Name: C5
Note OFF: Time 408960, Note Name: A4
Note ON: Time 408960, Note Name: C6, Velocity: 68
Note ON: Time 408960, Note Name: A5, Velocity: 56
Note OFF: Time 409440, Note Name: A5
Note OFF: Time 409440, Note Name: C6
Note ON: Time 409440, Note Name: C3, Velocity: 48
Note ON: Time 409440, Note Name: C4, Velocity: 58
Note OFF: Time 409680, Note Name: C4
Note OFF: Time 409680, Note Name: C3
Note ON: Time 409920, Note Name: C1, Velocity: 48
Note ON: Time 409920, Note Name: C2, Velocity: 57
Note OFF: Time 410160, Note Name: C2
Note OFF: Time 410160, Note Name: C1
Note ON: Time 410400, Note Name: C#1, Velocity: 50
Note ON: Time 410400, Note Name: C#2, Velocity: 59
Note OFF: Time 410640, Note Name: C#2
Note OFF: Time 410640, Note Name: C#1
Note ON: Time 410880, Note Name: C#2, Velocity: 34
Note ON: Time 410880, Note Name: C#3, Velocity: 40
Note OFF: Time 411120, Note Name: C#3
Note OFF: Time 411120, Note Name: C#2
Note ON: Time 411360, Note Name: D#1, Velocity: 37
Note ON: Time 411360, Note Name: D#2, Velocity: 46
Note OFF: Time 411600, Note Name: D#2
Note OFF: Time 411600, Note Name: D#1
Note ON: Time 411840, Note Name: F1, Velocity: 40
Note ON: Time 411840, Note Name: F2, Velocity: 49
Note OFF: Time 412080, Note Name: F2
Note OFF: Time 412080, Note Name: F1
Note ON: Time 412320, Note Name: F2, Velocity: 35
Note ON: Time 412320, Note Name: F3, Velocity: 44
Note OFF: Time 412560, Note Name: F3
Note OFF: Time 412560, Note Name: F2
Note ON: Time 412800, Note Name: F1, Velocity: 35
Note ON: Time 412800, Note Name: F2, Velocity: 43
Note OFF: Time 413040, Note Name: F2
Note OFF: Time 413040, Note Name: F1
Note ON: Time 413280, Note Name: A#1, Velocity: 30
Note ON: Time 413280, Note Name: A#2, Velocity: 37
Note OFF: Time 413520, Note Name: A#2
Note OFF: Time 413520, Note Name: A#1
Note ON: Time 413760, Note Name: C#2, Velocity: 25
Note ON: Time 413760, Note Name: C#3, Velocity: 31
Note OFF: Time 414000, Note Name: C#3
Note OFF: Time 414000, Note Name: C#2
Note ON: Time 414240, Note Name: D#2, Velocity: 33
Note OFF: Time 414480, Note Name: D#2
Note ON: Time 414720, Note Name: F2, Velocity: 38
Note OFF: Time 414960, Note Name: F2
Note ON: Time 415680, Note Name: F1, Velocity: 28
Note ON: Time 415680, Note Name: F2, Velocity: 34
Note OFF: Time 415920, Note Name: F2
Note OFF: Time 415920, Note Name: F1
Note ON: Time 416160, Note Name: A#1, Velocity: 30
Note ON: Time 416160, Note Name: A#2, Velocity: 36
Note OFF: Time 416640, Note Name: A#2
Note OFF: Time 416640, Note Name: A#1
Note ON: Time 416640, Note Name: G#2, Velocity: 26
Note ON: Time 416640, Note Name: G#3, Velocity: 31
Note OFF: Time 417120, Note Name: G#3
Note OFF: Time 417120, Note Name: G#2
Note ON: Time 417120, Note Name: F2, Velocity: 26
Note ON: Time 417120, Note Name: F3, Velocity: 31
Note OFF: Time 417600, Note Name: F3
Note OFF: Time 417600, Note Name: F2
Note ON: Time 417600, Note Name: F#2, Velocity: 30
Note ON: Time 417600, Note Name: F#3, Velocity: 36
Note OFF: Time 418080, Note Name: F#3
Note OFF: Time 418080, Note Name: F#2
Note ON: Time 418080, Note Name: F2, Velocity: 26
Note ON: Time 418080, Note Name: F3, Velocity: 31
Note OFF: Time 418560, Note Name: F3
Note OFF: Time 418560, Note Name: F2
Note ON: Time 418560, Note Name: C#2, Velocity: 26
Note ON: Time 418560, Note Name: C#3, Velocity: 31
Note OFF: Time 419040, Note Name: C#3
Note OFF: Time 419040, Note Name: C#2
Note ON: Time 419040, Note Name: D#2, Velocity: 30
Note ON: Time 419040, Note Name: D#3, Velocity: 36
Note OFF: Time 419520, Note Name: D#3
Note OFF: Time 419520, Note Name: D#2
Note ON: Time 419520, Note Name: C#2, Velocity: 26
Note ON: Time 419520, Note Name: C#3, Velocity: 31
Note OFF: Time 420000, Note Name: C#3
Note OFF: Time 420000, Note Name: C#2
Note ON: Time 420000, Note Name: A#1, Velocity: 31
Note ON: Time 420000, Note Name: A#2, Velocity: 31
Note OFF: Time 420480, Note Name: A#2
Note OFF: Time 420480, Note Name: A#1
Note ON: Time 420480, Note Name: B1, Velocity: 38
Note ON: Time 420480, Note Name: B2, Velocity: 38
Note OFF: Time 420960, Note Name: B2
Note OFF: Time 420960, Note Name: B1
Note ON: Time 420960, Note Name: A#1, Velocity: 38
Note ON: Time 420960, Note Name: A#2, Velocity: 38
Note OFF: Time 421440, Note Name: A#2
Note OFF: Time 421440, Note Name: A#1
Note ON: Time 421440, Note Name: F#1, Velocity: 40
Note ON: Time 421440, Note Name: F#2, Velocity: 40
Note OFF: Time 421920, Note Name: F#2
Note OFF: Time 421920, Note Name: F#1
Note ON: Time 421920, Note Name: D#1, Velocity: 40
Note ON: Time 421920, Note Name: D#2, Velocity: 47
Note OFF: Time 422400, Note Name: D#2
Note OFF: Time 422400, Note Name: D#1
Note ON: Time 422400, Note Name: E1, Velocity: 38
Note ON: Time 422400, Note Name: E2, Velocity: 44
Note OFF: Time 422490, Note Name: E2
Note OFF: Time 422490, Note Name: E1
Note ON: Time 422640, Note Name: F1, Velocity: 38
Note ON: Time 422640, Note Name: F2, Velocity: 47
Note OFF: Time 422730, Note Name: F2
Note OFF: Time 422730, Note Name: F1
Note ON: Time 422880, Note Name: F#1, Velocity: 46
Note ON: Time 422880, Note Name: F#2, Velocity: 54
Note OFF: Time 423360, Note Name: F#2
Note OFF: Time 423360, Note Name: F#1
Note ON: Time 423360, Note Name: G#1, Velocity: 56
Note ON: Time 423360, Note Name: G#2, Velocity: 67
Note OFF: Time 423840, Note Name: G#2
Note OFF: Time 423840, Note Name: G#1
Note ON: Time 423840, Note Name: G#2, Velocity: 43
Note ON: Time 423840, Note Name: D#3, Velocity: 43
Note ON: Time 423840, Note Name: F3, Velocity: 43
Note ON: Time 423840, Note Name: B3, Velocity: 51
Note OFF: Time 424320, Note Name: B3
Note OFF: Time 424320, Note Name: G#2
Note OFF: Time 424320, Note Name: D#3
Note OFF: Time 424320, Note Name: F3
Note ON: Time 424320, Note Name: A#2, Velocity: 43
Note ON: Time 424320, Note Name: F3, Velocity: 43
Note ON: Time 424320, Note Name: G#3, Velocity: 43
Note ON: Time 424320, Note Name: D4, Velocity: 51
Note OFF: Time 424800, Note Name: D4
Note OFF: Time 424800, Note Name: A#2
Note OFF: Time 424800, Note Name: F3
Note OFF: Time 424800, Note Name: G#3
Note ON: Time 424800, Note Name: F#1, Velocity: 40
Note ON: Time 424800, Note Name: F#2, Velocity: 47
Note OFF: Time 425280, Note Name: F#2
Note OFF: Time 425280, Note Name: F#1
Note ON: Time 425280, Note Name: G1, Velocity: 38
Note ON: Time 425280, Note Name: G2, Velocity: 44
Note OFF: Time 425370, Note Name: G2
Note OFF: Time 425370, Note Name: G1
Note ON: Time 425520, Note Name: G#1, Velocity: 35
Note ON: Time 425520, Note Name: G#2, Velocity: 43
Note OFF: Time 425610, Note Name: G#2
Note OFF: Time 425610, Note Name: G#1
Note ON: Time 425760, Note Name: A1, Velocity: 46
Note ON: Time 425760, Note Name: A2, Velocity: 54
Note OFF: Time 426240, Note Name: A2
Note OFF: Time 426240, Note Name: A1
Note ON: Time 426240, Note Name: B1, Velocity: 56
Note ON: Time 426240, Note Name: B2, Velocity: 67
Note OFF: Time 426720, Note Name: B2
Note OFF: Time 426720, Note Name: B1
Note ON: Time 426720, Note Name: C3, Velocity: 43
Note ON: Time 426720, Note Name: F#3, Velocity: 43
Note ON: Time 426720, Note Name: G#3, Velocity: 43
Note ON: Time 426720, Note Name: D4, Velocity: 51
Note OFF: Time 427200, Note Name: D4
Note OFF: Time 427200, Note Name: C3
Note OFF: Time 427200, Note Name: F#3
Note OFF: Time 427200, Note Name: G#3
Note ON: Time 427200, Note Name: C#3, Velocity: 43
Note ON: Time 427200, Note Name: G#3, Velocity: 43
Note ON: Time 427200, Note Name: B3, Velocity: 43
Note ON: Time 427200, Note Name: F4, Velocity: 51
Note OFF: Time 427680, Note Name: F4
Note OFF: Time 427680, Note Name: C#3
Note OFF: Time 427680, Note Name: G#3
Note OFF: Time 427680, Note Name: B3
Note ON: Time 427680, Note Name: A1, Velocity: 36
Note ON: Time 427680, Note Name: A2, Velocity: 42
Note OFF: Time 428160, Note Name: A2
Note OFF: Time 428160, Note Name: A1
Note ON: Time 428160, Note Name: B1, Velocity: 36
Note ON: Time 428160, Note Name: B2, Velocity: 42
Note OFF: Time 428250, Note Name: B2
Note OFF: Time 428250, Note Name: B1
Note ON: Time 428400, Note Name: C2, Velocity: 37
Note ON: Time 428400, Note Name: C3, Velocity: 45
Note OFF: Time 428490, Note Name: C3
Note OFF: Time 428490, Note Name: C2
Note ON: Time 428640, Note Name: C#2, Velocity: 47
Note ON: Time 428640, Note Name: C#3, Velocity: 56
Note OFF: Time 429120, Note Name: C#3
Note OFF: Time 429120, Note Name: C#2
Note ON: Time 429120, Note Name: D2, Velocity: 40
Note ON: Time 429120, Note Name: D3, Velocity: 47
Note OFF: Time 429600, Note Name: D3
Note OFF: Time 429600, Note Name: D2
Note ON: Time 429600, Note Name: D#2, Velocity: 40
Note ON: Time 429600, Note Name: D#3, Velocity: 47
Note OFF: Time 429690, Note Name: D#3
Note OFF: Time 429690, Note Name: D#2
Note ON: Time 429840, Note Name: E2, Velocity: 39
Note ON: Time 429840, Note Name: E3, Velocity: 48
Note OFF: Time 429930, Note Name: E3
Note OFF: Time 429930, Note Name: E2
Note ON: Time 430080, Note Name: F2, Velocity: 45
Note ON: Time 430080, Note Name: F3, Velocity: 53
Note OFF: Time 430560, Note Name: F3
Note OFF: Time 430560, Note Name: F2
Note ON: Time 430560, Note Name: F#2, Velocity: 42
Note ON: Time 430560, Note Name: F#3, Velocity: 50
Note OFF: Time 431040, Note Name: F#3
Note OFF: Time 431040, Note Name: F#2
Note ON: Time 431040, Note Name: G2, Velocity: 42
Note ON: Time 431040, Note Name: G3, Velocity: 48
Note OFF: Time 431130, Note Name: G3
Note OFF: Time 431130, Note Name: G2
Note ON: Time 431280, Note Name: G#2, Velocity: 39
Note ON: Time 431280, Note Name: G#3, Velocity: 50
Note OFF: Time 431370, Note Name: G#3
Note OFF: Time 431370, Note Name: G#2
Note ON: Time 431520, Note Name: A2, Velocity: 48
Note ON: Time 431520, Note Name: A3, Velocity: 57
Note OFF: Time 432000, Note Name: A3
Note OFF: Time 432000, Note Name: A2
Note ON: Time 432000, Note Name: C2, Velocity: 53
Note ON: Time 432000, Note Name: C3, Velocity: 65
Note OFF: Time 432480, Note Name: C3
Note OFF: Time 432480, Note Name: C2
Note ON: Time 432480, Note Name: C4, Velocity: 51
Note ON: Time 432480, Note Name: F#4, Velocity: 51
Note ON: Time 432480, Note Name: A4, Velocity: 51
Note ON: Time 432480, Note Name: C5, Velocity: 61
Note OFF: Time 432720, Note Name: C5
Note OFF: Time 432720, Note Name: C4
Note OFF: Time 432720, Note Name: F#4
Note OFF: Time 432720, Note Name: A4
Note ON: Time 432960, Note Name: B2, Velocity: 69
Note ON: Time 432960, Note Name: B1, Velocity: 57
Note OFF: Time 433440, Note Name: B1
Note OFF: Time 433440, Note Name: B2
Note ON: Time 433440, Note Name: A2, Velocity: 49
Note ON: Time 433440, Note Name: C#3, Velocity: 58
Note ON: Time 433440, Note Name: F#3, Velocity: 58
Note ON: Time 433440, Note Name: A3, Velocity: 58
Note OFF: Time 433920, Note Name: A3
Note OFF: Time 433920, Note Name: A2
Note OFF: Time 433920, Note Name: C#3
Note OFF: Time 433920, Note Name: F#3
Note ON: Time 433920, Note Name: A1, Velocity: 54
Note ON: Time 433920, Note Name: A2, Velocity: 65
Note OFF: Time 434160, Note Name: A2
Note OFF: Time 434160, Note Name: A1
Note ON: Time 434400, Note Name: B2, Velocity: 50
Note ON: Time 434400, Note Name: F#3, Velocity: 50
Note ON: Time 434400, Note Name: B3, Velocity: 59
Note OFF: Time 434880, Note Name: B3
Note OFF: Time 434880, Note Name: F#3
Note OFF: Time 434880, Note Name: B2
Note ON: Time 434880, Note Name: B1, Velocity: 54
Note ON: Time 434880, Note Name: B2, Velocity: 65
Note OFF: Time 435120, Note Name: B2
Note OFF: Time 435120, Note Name: B1
Note ON: Time 435360, Note Name: G#3, Velocity: 50
Note ON: Time 435360, Note Name: D3, Velocity: 45
Note ON: Time 435360, Note Name: F#3, Velocity: 47
Note ON: Time 435360, Note Name: B3, Velocity: 59
Note OFF: Time 435840, Note Name: B3
Note OFF: Time 435840, Note Name: G#3
Note OFF: Time 435840, Note Name: D3
Note OFF: Time 435840, Note Name: F#3
Note ON: Time 435840, Note Name: D2, Velocity: 54
Note ON: Time 435840, Note Name: D3, Velocity: 65
Note OFF: Time 436080, Note Name: D3
Note OFF: Time 436080, Note Name: D2
Note ON: Time 436320, Note Name: F#3, Velocity: 50
Note ON: Time 436320, Note Name: C#3, Velocity: 50
Note ON: Time 436320, Note Name: A3, Velocity: 59
Note OFF: Time 436800, Note Name: A3
Note OFF: Time 436800, Note Name: C#3
Note OFF: Time 436800, Note Name: F#3
Note ON: Time 436800, Note Name: C#2, Velocity: 54
Note ON: Time 436800, Note Name: C#3, Velocity: 65
Note OFF: Time 437040, Note Name: C#3
Note OFF: Time 437040, Note Name: C#2
Note ON: Time 437280, Note Name: F#3, Velocity: 50
Note ON: Time 437280, Note Name: C#3, Velocity: 50
Note ON: Time 437280, Note Name: G#3, Velocity: 59
Note OFF: Time 437760, Note Name: G#3
Note OFF: Time 437760, Note Name: C#3
Note OFF: Time 437760, Note Name: F#3
Note ON: Time 437760, Note Name: C#2, Velocity: 54
Note ON: Time 437760, Note Name: C#3, Velocity: 65
Note OFF: Time 438000, Note Name: C#3
Note OFF: Time 438000, Note Name: C#2
Note ON: Time 438240, Note Name: G#3, Velocity: 47
Note ON: Time 438240, Note Name: C#3, Velocity: 47
Note ON: Time 438240, Note Name: B3, Velocity: 56
Note OFF: Time 438720, Note Name: B3
Note OFF: Time 438720, Note Name: C#3
Note OFF: Time 438720, Note Name: G#3
Note ON: Time 438720, Note Name: C#4, Velocity: 40
Note ON: Time 438720, Note Name: F4, Velocity: 46
Note ON: Time 438720, Note Name: B4, Velocity: 55
Note OFF: Time 438960, Note Name: B4
Note OFF: Time 438960, Note Name: F4
Note OFF: Time 438960, Note Name: C#4
Note ON: Time 439200, Note Name: C#4, Velocity: 46
Note ON: Time 439200, Note Name: F4, Velocity: 50
Note ON: Time 439200, Note Name: B4, Velocity: 59
Note OFF: Time 439620, Note Name: B4
Note OFF: Time 439620, Note Name: F4
Note OFF: Time 439620, Note Name: C#4
Note ON: Time 439620, Note Name: F#3, Velocity: 42
Note ON: Time 439650, Note Name: C#4, Velocity: 44
Note ON: Time 439680, Note Name: A4, Velocity: 51
Note OFF: Time 440160, Note Name: A4
Note OFF: Time 440160, Note Name: C#4
Note OFF: Time 440160, Note Name: F#3
Note ON: Time 440160, Note Name: C#3, Velocity: 19
Note ON: Time 440160, Note Name: F3, Velocity: 26
Note ON: Time 440160, Note Name: B3, Velocity: 30
Note OFF: Time 440400, Note Name: B3
Note OFF: Time 440400, Note Name: F3
Note OFF: Time 440400, Note Name: C#3
Note ON: Time 440640, Note Name: C#3, Velocity: 21
Note ON: Time 440640, Note Name: F3, Velocity: 28
Note ON: Time 440640, Note Name: B3, Velocity: 33
Note OFF: Time 441060, Note Name: B3
Note OFF: Time 441060, Note Name: F3
Note OFF: Time 441060, Note Name: C#3
Note ON: Time 441060, Note Name: F#2, Velocity: 25
Note ON: Time 441090, Note Name: C#3, Velocity: 25
Note ON: Time 441120, Note Name: A3, Velocity: 30
Note OFF: Time 441600, Note Name: A3
Note OFF: Time 441600, Note Name: C#3
Note OFF: Time 441600, Note Name: F#2
Note ON: Time 441600, Note Name: C#3, Velocity: 17
Note ON: Time 441600, Note Name: F3, Velocity: 21
Note ON: Time 441600, Note Name: B3, Velocity: 25
Note OFF: Time 442080, Note Name: B3
Note OFF: Time 442080, Note Name: F3
Note OFF: Time 442080, Note Name: C#3
Note ON: Time 442080, Note Name: C#3, Velocity: 24
Note ON: Time 442080, Note Name: F#3, Velocity: 28
Note ON: Time 442080, Note Name: A3, Velocity: 33
Note OFF: Time 442560, Note Name: A3
Note OFF: Time 442560, Note Name: F#3
Note OFF: Time 442560, Note Name: C#3
Note ON: Time 442560, Note Name: F#2, Velocity: 25
Note OFF: Time 443040, Note Name: F#2
Note ON: Time 443040, Note Name: C#3, Velocity: 17
Note ON: Time 443040, Note Name: F3, Velocity: 20
Note ON: Time 443040, Note Name: B3, Velocity: 23
Note OFF: Time 443520, Note Name: B3
Note OFF: Time 443520, Note Name: F3
Note OFF: Time 443520, Note Name: C#3
Note ON: Time 443520, Note Name: C#3, Velocity: 21
Note ON: Time 443520, Note Name: F#3, Velocity: 26
Note ON: Time 443520, Note Name: A3, Velocity: 30
Note OFF: Time 444000, Note Name: A3
Note OFF: Time 444000, Note Name: F#3
Note OFF: Time 444000, Note Name: C#3
Note ON: Time 444000, Note Name: F#2, Velocity: 22
Note OFF: Time 444480, Note Name: F#2
Note ON: Time 444480, Note Name: C#3, Velocity: 15
Note ON: Time 444480, Note Name: F3, Velocity: 18
Note ON: Time 444480, Note Name: B3, Velocity: 21
Note OFF: Time 444960, Note Name: B3
Note OFF: Time 444960, Note Name: F3
Note OFF: Time 444960, Note Name: C#3
Note ON: Time 444960, Note Name: C#3, Velocity: 19
Note ON: Time 444960, Note Name: F#3, Velocity: 24
Note ON: Time 444960, Note Name: A#3, Velocity: 27
Note OFF: Time 445440, Note Name: A#3
Note OFF: Time 445440, Note Name: F#3
Note OFF: Time 445440, Note Name: C#3
Note ON: Time 445440, Note Name: F#2, Velocity: 21
Note OFF: Time 445920, Note Name: F#2
Note ON: Time 445920, Note Name: C#3, Velocity: 14
Note ON: Time 445920, Note Name: F3, Velocity: 17
Note ON: Time 445920, Note Name: B3, Velocity: 20
Note OFF: Time 446400, Note Name: B3
Note OFF: Time 446400, Note Name: F3
Note OFF: Time 446400, Note Name: C#3
Note ON: Time 446400, Note Name: C#3, Velocity: 18
Note ON: Time 446400, Note Name: F#3, Velocity: 23
Note ON: Time 446400, Note Name: A#3, Velocity: 26
Note OFF: Time 446880, Note Name: A#3
Note OFF: Time 446880, Note Name: F#3
Note OFF: Time 446880, Note Name: C#3
Note ON: Time 446880, Note Name: F#2, Velocity: 19
Note OFF: Time 447360, Note Name: F#2
Note ON: Time 447360, Note Name: C#3, Velocity: 13
Note ON: Time 447360, Note Name: F3, Velocity: 16
Note ON: Time 447360, Note Name: B3, Velocity: 19
Note OFF: Time 447840, Note Name: B3
Note OFF: Time 447840, Note Name: F3
Note OFF: Time 447840, Note Name: C#3
Note ON: Time 447840, Note Name: C#3, Velocity: 17
Note ON: Time 447840, Note Name: F#3, Velocity: 21
Note ON: Time 447840, Note Name: A#3, Velocity: 25
Note OFF: Time 448320, Note Name: A#3
Note OFF: Time 448320, Note Name: F#3
Note OFF: Time 448320, Note Name: C#3
Note ON: Time 448320, Note Name: F#2, Velocity: 18
Note OFF: Time 448800, Note Name: F#2
Note ON: Time 448800, Note Name: C#3, Velocity: 13
Note ON: Time 448800, Note Name: F3, Velocity: 15
Note ON: Time 448800, Note Name: B3, Velocity: 17
Note OFF: Time 449280, Note Name: B3
Note OFF: Time 449280, Note Name: F3
Note OFF: Time 449280, Note Name: C#3
Note ON: Time 449280, Note Name: C#3, Velocity: 16
Note ON: Time 449280, Note Name: F#3, Velocity: 20
Note ON: Time 449280, Note Name: A#3, Velocity: 24
Note OFF: Time 449760, Note Name: A#3
Note OFF: Time 449760, Note Name: F#3
Note OFF: Time 449760, Note Name: C#3
Note ON: Time 449760, Note Name: F#2, Velocity: 17
Note OFF: Time 450240, Note Name: F#2
Note ON: Time 450240, Note Name: C#3, Velocity: 13
Note ON: Time 450240, Note Name: F3, Velocity: 15
Note ON: Time 450240, Note Name: B3, Velocity: 17
Note OFF: Time 450720, Note Name: B3
Note OFF: Time 450720, Note Name: F3
Note OFF: Time 450720, Note Name: C#3
Note ON: Time 450720, Note Name: F#2, Velocity: 32
Note OFF: Time 451200, Note Name: F#2
Note ON: Time 451200, Note Name: D#4, Velocity: 20
Note ON: Time 451200, Note Name: F#3, Velocity: 17
Note ON: Time 451200, Note Name: C#3, Velocity: 17
Note OFF: Time 451680, Note Name: C#3
Note OFF: Time 451680, Note Name: F#3
Note OFF: Time 451680, Note Name: D#4
Note ON: Time 451680, Note Name: C#3, Velocity: 14
Note ON: Time 451680, Note Name: F#3, Velocity: 14
Note ON: Time 451680, Note Name: C#4, Velocity: 17
Note OFF: Time 452160, Note Name: C#4
Note OFF: Time 452160, Note Name: F#3
Note OFF: Time 452160, Note Name: C#3
Note ON: Time 452160, Note Name: C#3, Velocity: 16
Note ON: Time 452160, Note Name: F#3, Velocity: 16
Note ON: Time 452160, Note Name: C#4, Velocity: 20
Note OFF: Time 452640, Note Name: C#4
Note OFF: Time 452640, Note Name: F#3
Note OFF: Time 452640, Note Name: C#3
Note ON: Time 452640, Note Name: D#4, Velocity: 16
Note ON: Time 452640, Note Name: C#3, Velocity: 10
Note ON: Time 452640, Note Name: F#3, Velocity: 14
Note OFF: Time 453120, Note Name: F#3
Note OFF: Time 453120, Note Name: C#3
Note OFF: Time 453120, Note Name: D#4
Note ON: Time 453120, Note Name: C#3, Velocity: 12
Note ON: Time 453120, Note Name: F#3, Velocity: 12
Note ON: Time 453120, Note Name: C#4, Velocity: 15
Note OFF: Time 453600, Note Name: C#4
Note OFF: Time 453600, Note Name: F#3
Note OFF: Time 453600, Note Name: C#3
Note ON: Time 453600, Note Name: C#3, Velocity: 16
Note ON: Time 453600, Note Name: F#3, Velocity: 16
Note ON: Time 453600, Note Name: C#4, Velocity: 20
Note OFF: Time 454080, Note Name: C#4
Note OFF: Time 454080, Note Name: F#3
Note OFF: Time 454080, Note Name: C#3
Note ON: Time 454080, Note Name: D#4, Velocity: 19
Note ON: Time 454080, Note Name: F#3, Velocity: 16
Note ON: Time 454080, Note Name: C#3, Velocity: 16
Note OFF: Time 454560, Note Name: C#3
Note OFF: Time 454560, Note Name: F#3
Note OFF: Time 454560, Note Name: D#4
Note ON: Time 454560, Note Name: C#3, Velocity: 13
Note ON: Time 454560, Note Name: F#3, Velocity: 13
Note ON: Time 454560, Note Name: C#4, Velocity: 16
Note OFF: Time 455040, Note Name: C#4
Note OFF: Time 455040, Note Name: F#3
Note OFF: Time 455040, Note Name: C#3
Note ON: Time 455040, Note Name: C#3, Velocity: 16
Note ON: Time 455040, Note Name: F#3, Velocity: 16
Note ON: Time 455040, Note Name: C#4, Velocity: 20
Note OFF: Time 455520, Note Name: C#4
Note OFF: Time 455520, Note Name: F#3
Note OFF: Time 455520, Note Name: C#3
Note ON: Time 455520, Note Name: D#4, Velocity: 19
Note ON: Time 455520, Note Name: C#3, Velocity: 16
Note ON: Time 455520, Note Name: F#3, Velocity: 16
Note OFF: Time 456000, Note Name: F#3
Note OFF: Time 456000, Note Name: C#3
Note OFF: Time 456000, Note Name: D#4
Note ON: Time 456000, Note Name: C#3, Velocity: 13
Note ON: Time 456000, Note Name: F#3, Velocity: 13
Note ON: Time 456000, Note Name: C#4, Velocity: 16
Note OFF: Time 456480, Note Name: C#4
Note OFF: Time 456480, Note Name: F#3
Note OFF: Time 456480, Note Name: C#3
Note ON: Time 456480, Note Name: C#3, Velocity: 16
Note ON: Time 456480, Note Name: F#3, Velocity: 16
Note ON: Time 456480, Note Name: C#4, Velocity: 19
Note OFF: Time 456960, Note Name: C#4
Note OFF: Time 456960, Note Name: F#3
Note OFF: Time 456960, Note Name: C#3
Note ON: Time 456960, Note Name: C#3, Velocity: 14
Note ON: Time 456960, Note Name: F#3, Velocity: 14
Note ON: Time 456960, Note Name: B3, Velocity: 17
Note OFF: Time 457440, Note Name: B3
Note OFF: Time 457440, Note Name: F#3
Note OFF: Time 457440, Note Name: C#3
Note ON: Time 457440, Note Name: C#3, Velocity: 15
Note ON: Time 457440, Note Name: F#3, Velocity: 15
Note ON: Time 457440, Note Name: A#3, Velocity: 18
Note OFF: Time 457920, Note Name: A#3
Note OFF: Time 457920, Note Name: F#3
Note OFF: Time 457920, Note Name: C#3
Note ON: Time 457920, Note Name: C#3, Velocity: 15
Note ON: Time 457920, Note Name: F#3, Velocity: 15
Note ON: Time 457920, Note Name: A#3, Velocity: 18
Note OFF: Time 458400, Note Name: A#3
Note OFF: Time 458400, Note Name: F#3
Note OFF: Time 458400, Note Name: C#3
Note ON: Time 458400, Note Name: B2, Velocity: 17
Note ON: Time 458400, Note Name: C#3, Velocity: 21
Note OFF: Time 458880, Note Name: C#3
Note OFF: Time 458880, Note Name: B2
Note ON: Time 458880, Note Name: A#2, Velocity: 17
Note ON: Time 458880, Note Name: C#3, Velocity: 21
Note OFF: Time 459360, Note Name: C#3
Note OFF: Time 459360, Note Name: A#2
Note ON: Time 459360, Note Name: A#2, Velocity: 17
Note ON: Time 459360, Note Name: C#3, Velocity: 21
Note OFF: Time 459840, Note Name: C#3
Note OFF: Time 459840, Note Name: A#2
Note ON: Time 459840, Note Name: B2, Velocity: 17
Note ON: Time 459840, Note Name: C#3, Velocity: 21
Note OFF: Time 460320, Note Name: C#3
Note OFF: Time 460320, Note Name: B2
Note ON: Time 460320, Note Name: A#2, Velocity: 17
Note ON: Time 460320, Note Name: C#3, Velocity: 21
Note OFF: Time 460800, Note Name: C#3
Note OFF: Time 460800, Note Name: A#2
Note ON: Time 460800, Note Name: A#2, Velocity: 16
Note ON: Time 460800, Note Name: C#3, Velocity: 20
Note OFF: Time 461280, Note Name: C#3
Note OFF: Time 461280, Note Name: A#2
Note ON: Time 461280, Note Name: B2, Velocity: 16
Note ON: Time 461280, Note Name: C#3, Velocity: 20
Note OFF: Time 461760, Note Name: C#3
Note OFF: Time 461760, Note Name: B2
Note ON: Time 461760, Note Name: A#2, Velocity: 15
Note ON: Time 461760, Note Name: C#3, Velocity: 18
Note OFF: Time 462720, Note Name: C#3
Note OFF: Time 462720, Note Name: A#2
Note ON: Time 462720, Note Name: G#1, Velocity: 17
Note ON: Time 462720, Note Name: G#2, Velocity: 20
Note OFF: Time 463200, Note Name: G#2
Note OFF: Time 463200, Note Name: G#1
Note ON: Time 463200, Note Name: F#1, Velocity: 17
Note ON: Time 463200, Note Name: F#2, Velocity: 20
Note OFF: Time 463680, Note Name: F#2
Note OFF: Time 463680, Note Name: F#1
Note ON: Time 463680, Note Name: F#1, Velocity: 17
Note ON: Time 463680, Note Name: F#2, Velocity: 20
Note OFF: Time 464160, Note Name: F#2
Note OFF: Time 464160, Note Name: F#1
Note ON: Time 464160, Note Name: G#1, Velocity: 17
Note ON: Time 464160, Note Name: G#2, Velocity: 20
Note OFF: Time 464640, Note Name: G#2
Note OFF: Time 464640, Note Name: G#1
Note ON: Time 464640, Note Name: F#1, Velocity: 17
Note ON: Time 464640, Note Name: F#2, Velocity: 20
Note OFF: Time 465120, Note Name: F#2
Note OFF: Time 465120, Note Name: F#1
Note ON: Time 466560, Note Name: C#1, Velocity: 16
Note ON: Time 466560, Note Name: C#2, Velocity: 20
Note OFF: Time 466680, Note Name: C#2
Note OFF: Time 466680, Note Name: C#1
Note ON: Time 468000, Note Name: F#1, Velocity: 16
Note ON: Time 468000, Note Name: F#2, Velocity: 20
Note OFF: Time 468120, Note Name: F#2
Note OFF: Time 468120, Note Name: F#1
Track 4: Chopin Sonate Op. 35  2. Satz
Track 5: Copyright  2002 by Bernd Krger
Track 6: http://www.piano-midi.de
Track 7: Edition: 2014-02-26
Track 8: Spur 8
Track 9: Spur 9
