Processing chpn-p12.mid...

Track 0: Chopin Prelude  No. 12, Opus 28
Track 1: Piano right
Note ON: Time 1, Note Name: D#4, Velocity: 56
Note ON: Time 1, Note Name: B3, Velocity: 48
Note ON: Time 120, Note Name: E4, Velocity: 42
Note OFF: Time 121, Note Name: D#4
Note OFF: Time 180, Note Name: E4
Note OFF: Time 180, Note Name: B3
Note ON: Time 240, Note Name: B3, Velocity: 43
Note ON: Time 240, Note Name: E4, Velocity: 51
Note OFF: Time 360, Note Name: E4
Note ON: Time 360, Note Name: F4, Velocity: 43
Note OFF: Time 420, Note Name: F4
Note OFF: Time 420, Note Name: B3
Note ON: Time 480, Note Name: B3, Velocity: 44
Note ON: Time 480, Note Name: D#4, Velocity: 44
Note ON: Time 480, Note Name: F4, Velocity: 52
Note OFF: Time 600, Note Name: F4
Note ON: Time 600, Note Name: F#4, Velocity: 44
Note OFF: Time 660, Note Name: F#4
Note OFF: Time 660, Note Name: D#4
Note OFF: Time 660, Note Name: B3
Note ON: Time 720, Note Name: B3, Velocity: 44
Note ON: Time 720, Note Name: D#4, Velocity: 44
Note ON: Time 720, Note Name: F#4, Velocity: 53
Note OFF: Time 840, Note Name: F#4
Note ON: Time 840, Note Name: G4, Velocity: 46
Note OFF: Time 900, Note Name: G4
Note OFF: Time 900, Note Name: D#4
Note OFF: Time 900, Note Name: B3
Note ON: Time 960, Note Name: B3, Velocity: 47
Note ON: Time 960, Note Name: D#4, Velocity: 47
Note ON: Time 960, Note Name: G4, Velocity: 56
Note OFF: Time 1080, Note Name: G4
Note ON: Time 1080, Note Name: G#4, Velocity: 47
Note OFF: Time 1140, Note Name: G#4
Note OFF: Time 1140, Note Name: D#4
Note OFF: Time 1140, Note Name: B3
Note ON: Time 1200, Note Name: B3, Velocity: 48
Note ON: Time 1200, Note Name: D#4, Velocity: 48
Note ON: Time 1200, Note Name: G#4, Velocity: 57
Note OFF: Time 1320, Note Name: G#4
Note ON: Time 1320, Note Name: A4, Velocity: 48
Note OFF: Time 1380, Note Name: A4
Note OFF: Time 1380, Note Name: D#4
Note OFF: Time 1380, Note Name: B3
Note ON: Time 1440, Note Name: D#4, Velocity: 50
Note ON: Time 1440, Note Name: A4, Velocity: 59
Note OFF: Time 1560, Note Name: A4
Note ON: Time 1560, Note Name: A#4, Velocity: 52
Note OFF: Time 1620, Note Name: A#4
Note OFF: Time 1620, Note Name: D#4
Note ON: Time 1680, Note Name: D#4, Velocity: 52
Note ON: Time 1680, Note Name: A#4, Velocity: 61
Note OFF: Time 1800, Note Name: A#4
Note ON: Time 1800, Note Name: B4, Velocity: 54
Note OFF: Time 1860, Note Name: B4
Note OFF: Time 1860, Note Name: D#4
Note ON: Time 1920, Note Name: D#4, Velocity: 55
Note ON: Time 1920, Note Name: G#4, Velocity: 66
Note ON: Time 1920, Note Name: B4, Velocity: 66
Note OFF: Time 2040, Note Name: B4
Note ON: Time 2040, Note Name: C5, Velocity: 56
Note OFF: Time 2100, Note Name: C5
Note OFF: Time 2100, Note Name: G#4
Note OFF: Time 2100, Note Name: D#4
Note ON: Time 2160, Note Name: G#4, Velocity: 58
Note ON: Time 2160, Note Name: D#4, Velocity: 58
Note ON: Time 2160, Note Name: C5, Velocity: 69
Note OFF: Time 2280, Note Name: C5
Note ON: Time 2280, Note Name: C#5, Velocity: 59
Note OFF: Time 2340, Note Name: C#5
Note OFF: Time 2340, Note Name: D#4
Note OFF: Time 2340, Note Name: G#4
Note ON: Time 2400, Note Name: D#4, Velocity: 61
Note ON: Time 2400, Note Name: G#4, Velocity: 61
Note ON: Time 2400, Note Name: C#5, Velocity: 71
Note OFF: Time 2520, Note Name: C#5
Note ON: Time 2520, Note Name: D5, Velocity: 62
Note OFF: Time 2580, Note Name: D5
Note OFF: Time 2580, Note Name: G#4
Note OFF: Time 2580, Note Name: D#4
Note ON: Time 2640, Note Name: D#4, Velocity: 62
Note ON: Time 2640, Note Name: G#4, Velocity: 62
Note ON: Time 2640, Note Name: D5, Velocity: 75
Note OFF: Time 2760, Note Name: D5
Note ON: Time 2760, Note Name: D#5, Velocity: 66
Note OFF: Time 2820, Note Name: D#5
Note OFF: Time 2820, Note Name: G#4
Note OFF: Time 2820, Note Name: D#4
Note ON: Time 2880, Note Name: D#4, Velocity: 68
Note ON: Time 2880, Note Name: A#4, Velocity: 68
Note ON: Time 2880, Note Name: D#5, Velocity: 81
Note OFF: Time 3000, Note Name: D#5
Note ON: Time 3000, Note Name: E5, Velocity: 77
Note OFF: Time 3060, Note Name: E5
Note OFF: Time 3060, Note Name: A#4
Note OFF: Time 3060, Note Name: D#4
Note ON: Time 3120, Note Name: A#4, Velocity: 69
Note ON: Time 3120, Note Name: E5, Velocity: 82
Note OFF: Time 3240, Note Name: E5
Note ON: Time 3240, Note Name: D#5, Velocity: 78
Note OFF: Time 3300, Note Name: D#5
Note OFF: Time 3300, Note Name: A#4
Note ON: Time 3360, Note Name: D#4, Velocity: 70
Note ON: Time 3360, Note Name: A#4, Velocity: 70
Note ON: Time 3360, Note Name: D#5, Velocity: 84
Note OFF: Time 3480, Note Name: D#5
Note ON: Time 3480, Note Name: C#5, Velocity: 84
Note OFF: Time 3540, Note Name: C#5
Note OFF: Time 3540, Note Name: A#4
Note OFF: Time 3540, Note Name: D#4
Note ON: Time 3600, Note Name: D#4, Velocity: 69
Note ON: Time 3600, Note Name: G#4, Velocity: 69
Note ON: Time 3600, Note Name: C#5, Velocity: 82
Note OFF: Time 3720, Note Name: C#5
Note ON: Time 3720, Note Name: B4, Velocity: 79
Note OFF: Time 3780, Note Name: B4
Note OFF: Time 3780, Note Name: G#4
Note OFF: Time 3780, Note Name: D#4
Note ON: Time 3840, Note Name: D#4, Velocity: 70
Note ON: Time 3840, Note Name: G#4, Velocity: 70
Note ON: Time 3840, Note Name: B4, Velocity: 83
Note OFF: Time 3960, Note Name: B4
Note ON: Time 3960, Note Name: C#5, Velocity: 79
Note OFF: Time 4020, Note Name: C#5
Note OFF: Time 4020, Note Name: G#4
Note OFF: Time 4020, Note Name: D#4
Note ON: Time 4080, Note Name: D#4, Velocity: 72
Note ON: Time 4080, Note Name: G#4, Velocity: 72
Note ON: Time 4080, Note Name: C#5, Velocity: 85
Note OFF: Time 4200, Note Name: C#5
Note ON: Time 4200, Note Name: D#5, Velocity: 86
Note OFF: Time 4260, Note Name: D#5
Note OFF: Time 4260, Note Name: G#4
Note OFF: Time 4260, Note Name: D#4
Note ON: Time 4320, Note Name: E4, Velocity: 73
Note ON: Time 4320, Note Name: G#4, Velocity: 73
Note ON: Time 4320, Note Name: D#5, Velocity: 87
Note OFF: Time 4440, Note Name: D#5
Note ON: Time 4440, Note Name: C#5, Velocity: 86
Note OFF: Time 4500, Note Name: C#5
Note OFF: Time 4500, Note Name: G#4
Note OFF: Time 4500, Note Name: E4
Note ON: Time 4560, Note Name: E4, Velocity: 71
Note ON: Time 4560, Note Name: G#4, Velocity: 71
Note ON: Time 4560, Note Name: C#5, Velocity: 84
Note OFF: Time 4680, Note Name: C#5
Note ON: Time 4680, Note Name: B4, Velocity: 83
Note OFF: Time 4740, Note Name: B4
Note OFF: Time 4740, Note Name: G#4
Note OFF: Time 4740, Note Name: E4
Note ON: Time 4800, Note Name: C#4, Velocity: 68
Note ON: Time 4800, Note Name: E4, Velocity: 68
Note ON: Time 4800, Note Name: B4, Velocity: 81
Note OFF: Time 4920, Note Name: B4
Note ON: Time 4920, Note Name: A#4, Velocity: 80
Note OFF: Time 4980, Note Name: A#4
Note OFF: Time 4980, Note Name: E4
Note OFF: Time 4980, Note Name: C#4
Note ON: Time 5040, Note Name: C#4, Velocity: 79
Note ON: Time 5160, Note Name: B4, Velocity: 69
Note OFF: Time 5280, Note Name: B4
Note OFF: Time 5280, Note Name: C#4
Note ON: Time 5280, Note Name: B4, Velocity: 66
Note ON: Time 5280, Note Name: C#4, Velocity: 55
Note OFF: Time 5400, Note Name: B4
Note ON: Time 5400, Note Name: A#4, Velocity: 62
Note OFF: Time 5520, Note Name: A#4
Note OFF: Time 5520, Note Name: C#4
Note ON: Time 5520, Note Name: A#4, Velocity: 57
Note ON: Time 5520, Note Name: C#4, Velocity: 48
Note OFF: Time 5640, Note Name: A#4
Note ON: Time 5640, Note Name: D#4, Velocity: 54
Note OFF: Time 5760, Note Name: D#4
Note OFF: Time 5760, Note Name: C#4
Note ON: Time 5760, Note Name: B3, Velocity: 45
Note ON: Time 5760, Note Name: D#4, Velocity: 53
Note OFF: Time 5880, Note Name: D#4
Note ON: Time 5880, Note Name: E4, Velocity: 45
Note OFF: Time 5940, Note Name: E4
Note OFF: Time 5940, Note Name: B3
Note ON: Time 6000, Note Name: B3, Velocity: 45
Note ON: Time 6000, Note Name: E4, Velocity: 54
Note OFF: Time 6120, Note Name: E4
Note ON: Time 6120, Note Name: F4, Velocity: 45
Note OFF: Time 6180, Note Name: F4
Note OFF: Time 6180, Note Name: B3
Note ON: Time 6240, Note Name: B3, Velocity: 46
Note ON: Time 6240, Note Name: D#4, Velocity: 46
Note ON: Time 6240, Note Name: F4, Velocity: 55
Note OFF: Time 6360, Note Name: F4
Note ON: Time 6360, Note Name: F#4, Velocity: 47
Note OFF: Time 6420, Note Name: F#4
Note OFF: Time 6420, Note Name: D#4
Note OFF: Time 6420, Note Name: B3
Note ON: Time 6480, Note Name: B3, Velocity: 47
Note ON: Time 6480, Note Name: D#4, Velocity: 47
Note ON: Time 6480, Note Name: F#4, Velocity: 57
Note OFF: Time 6600, Note Name: F#4
Note ON: Time 6600, Note Name: G4, Velocity: 48
Note OFF: Time 6660, Note Name: G4
Note OFF: Time 6660, Note Name: D#4
Note OFF: Time 6660, Note Name: B3
Note ON: Time 6720, Note Name: B3, Velocity: 49
Note ON: Time 6720, Note Name: D#4, Velocity: 49
Note ON: Time 6720, Note Name: G4, Velocity: 58
Note OFF: Time 6840, Note Name: G4
Note ON: Time 6840, Note Name: G#4, Velocity: 50
Note OFF: Time 6900, Note Name: G#4
Note OFF: Time 6900, Note Name: D#4
Note OFF: Time 6900, Note Name: B3
Note ON: Time 6960, Note Name: B3, Velocity: 50
Note ON: Time 6960, Note Name: D#4, Velocity: 50
Note ON: Time 6960, Note Name: G#4, Velocity: 60
Note OFF: Time 7080, Note Name: G#4
Note ON: Time 7080, Note Name: A4, Velocity: 50
Note OFF: Time 7140, Note Name: A4
Note OFF: Time 7140, Note Name: D#4
Note OFF: Time 7140, Note Name: B3
Note ON: Time 7200, Note Name: B3, Velocity: 52
Note ON: Time 7200, Note Name: E4, Velocity: 52
Note ON: Time 7200, Note Name: A4, Velocity: 62
Note OFF: Time 7320, Note Name: A4
Note ON: Time 7320, Note Name: A#4, Velocity: 54
Note OFF: Time 7380, Note Name: A#4
Note OFF: Time 7380, Note Name: E4
Note OFF: Time 7380, Note Name: B3
Note ON: Time 7440, Note Name: B3, Velocity: 54
Note ON: Time 7440, Note Name: E4, Velocity: 54
Note ON: Time 7440, Note Name: A#4, Velocity: 64
Note OFF: Time 7560, Note Name: A#4
Note ON: Time 7560, Note Name: B4, Velocity: 56
Note OFF: Time 7620, Note Name: B4
Note OFF: Time 7620, Note Name: E4
Note OFF: Time 7620, Note Name: B3
Note ON: Time 7680, Note Name: B3, Velocity: 57
Note ON: Time 7680, Note Name: E4, Velocity: 68
Note ON: Time 7680, Note Name: B4, Velocity: 68
Note OFF: Time 7800, Note Name: B4
Note ON: Time 7800, Note Name: C5, Velocity: 59
Note OFF: Time 7860, Note Name: C5
Note OFF: Time 7860, Note Name: E4
Note OFF: Time 7860, Note Name: B3
Note ON: Time 7920, Note Name: F4, Velocity: 62
Note ON: Time 7920, Note Name: C5, Velocity: 73
Note OFF: Time 8040, Note Name: C5
Note ON: Time 8040, Note Name: C#5, Velocity: 69
Note OFF: Time 8100, Note Name: C#5
Note OFF: Time 8100, Note Name: F4
Note ON: Time 8160, Note Name: F4, Velocity: 64
Note ON: Time 8160, Note Name: C#5, Velocity: 76
Note OFF: Time 8280, Note Name: C#5
Note ON: Time 8280, Note Name: D5, Velocity: 71
Note OFF: Time 8340, Note Name: D5
Note OFF: Time 8340, Note Name: F4
Note ON: Time 8400, Note Name: F4, Velocity: 66
Note ON: Time 8400, Note Name: B4, Velocity: 80
Note ON: Time 8520, Note Name: D5, Velocity: 75
Note OFF: Time 8580, Note Name: D5
Note OFF: Time 8580, Note Name: B4
Note OFF: Time 8580, Note Name: F4
Note ON: Time 8640, Note Name: F#4, Velocity: 76
Note ON: Time 8640, Note Name: B4, Velocity: 76
Note ON: Time 8640, Note Name: D#5, Velocity: 90
Note OFF: Time 8760, Note Name: D#5
Note ON: Time 8760, Note Name: E5, Velocity: 85
Note OFF: Time 8820, Note Name: E5
Note OFF: Time 8820, Note Name: B4
Note OFF: Time 8820, Note Name: F#4
Note ON: Time 8880, Note Name: F#4, Velocity: 75
Note ON: Time 8880, Note Name: B4, Velocity: 75
Note ON: Time 8880, Note Name: E5, Velocity: 89
Note OFF: Time 9000, Note Name: E5
Note ON: Time 9000, Note Name: D#5, Velocity: 87
Note OFF: Time 9060, Note Name: D#5
Note OFF: Time 9060, Note Name: B4
Note OFF: Time 9060, Note Name: F#4
Note ON: Time 9120, Note Name: F#4, Velocity: 76
Note ON: Time 9120, Note Name: B4, Velocity: 76
Note ON: Time 9120, Note Name: D#5, Velocity: 90
Note OFF: Time 9240, Note Name: D#5
Note ON: Time 9240, Note Name: F#5, Velocity: 88
Note OFF: Time 9300, Note Name: F#5
Note OFF: Time 9300, Note Name: B4
Note OFF: Time 9300, Note Name: F#4
Note ON: Time 9360, Note Name: F#4, Velocity: 76
Note ON: Time 9360, Note Name: A#4, Velocity: 76
Note ON: Time 9360, Note Name: F#5, Velocity: 90
Note OFF: Time 9480, Note Name: F#5
Note ON: Time 9480, Note Name: C#5, Velocity: 85
Note OFF: Time 9540, Note Name: C#5
Note OFF: Time 9540, Note Name: A#4
Note OFF: Time 9540, Note Name: F#4
Note ON: Time 9600, Note Name: F#4, Velocity: 75
Note ON: Time 9600, Note Name: A#4, Velocity: 75
Note ON: Time 9600, Note Name: C#5, Velocity: 89
Note OFF: Time 9720, Note Name: C#5
Note ON: Time 9720, Note Name: D#5, Velocity: 87
Note OFF: Time 9780, Note Name: D#5
Note OFF: Time 9780, Note Name: A#4
Note OFF: Time 9780, Note Name: F#4
Note ON: Time 9840, Note Name: F#4, Velocity: 76
Note ON: Time 9840, Note Name: A#4, Velocity: 76
Note ON: Time 9840, Note Name: D#5, Velocity: 90
Note OFF: Time 9960, Note Name: D#5
Note ON: Time 9960, Note Name: E5, Velocity: 88
Note OFF: Time 10020, Note Name: E5
Note OFF: Time 10020, Note Name: A#4
Note OFF: Time 10020, Note Name: F#4
Note ON: Time 10080, Note Name: F#4, Velocity: 68
Note ON: Time 10080, Note Name: B4, Velocity: 68
Note ON: Time 10080, Note Name: E5, Velocity: 81
Note OFF: Time 10200, Note Name: E5
Note ON: Time 10200, Note Name: D#5, Velocity: 75
Note OFF: Time 10260, Note Name: D#5
Note OFF: Time 10260, Note Name: B4
Note OFF: Time 10260, Note Name: F#4
Note ON: Time 10320, Note Name: F#4, Velocity: 66
Note ON: Time 10320, Note Name: B4, Velocity: 66
Note ON: Time 10320, Note Name: D#5, Velocity: 78
Note OFF: Time 10440, Note Name: D#5
Note ON: Time 10440, Note Name: G#5, Velocity: 75
Note OFF: Time 10500, Note Name: G#5
Note OFF: Time 10500, Note Name: B4
Note OFF: Time 10500, Note Name: F#4
Note ON: Time 10560, Note Name: F#4, Velocity: 64
Note ON: Time 10560, Note Name: G#5, Velocity: 76
Note OFF: Time 10680, Note Name: G#5
Note ON: Time 10680, Note Name: F#5, Velocity: 73
Note OFF: Time 10740, Note Name: F#5
Note OFF: Time 10740, Note Name: F#4
Note ON: Time 10800, Note Name: F#4, Velocity: 63
Note ON: Time 10800, Note Name: A#4, Velocity: 63
Note ON: Time 10800, Note Name: F#5, Velocity: 74
Note OFF: Time 10920, Note Name: F#5
Note ON: Time 10920, Note Name: C#5, Velocity: 69
Note OFF: Time 10980, Note Name: C#5
Note OFF: Time 10980, Note Name: A#4
Note OFF: Time 10980, Note Name: F#4
Note ON: Time 11040, Note Name: E4, Velocity: 60
Note ON: Time 11040, Note Name: A#4, Velocity: 60
Note ON: Time 11040, Note Name: C#5, Velocity: 71
Note OFF: Time 11160, Note Name: C#5
Note ON: Time 11160, Note Name: D#5, Velocity: 68
Note OFF: Time 11220, Note Name: D#5
Note OFF: Time 11220, Note Name: A#4
Note OFF: Time 11220, Note Name: E4
Note ON: Time 11280, Note Name: E4, Velocity: 59
Note ON: Time 11280, Note Name: A#4, Velocity: 59
Note ON: Time 11280, Note Name: D#5, Velocity: 70
Note OFF: Time 11400, Note Name: D#5
Note ON: Time 11400, Note Name: E5, Velocity: 67
Note OFF: Time 11460, Note Name: E5
Note OFF: Time 11460, Note Name: A#4
Note OFF: Time 11460, Note Name: E4
Note ON: Time 11520, Note Name: D#4, Velocity: 60
Note ON: Time 11520, Note Name: B4, Velocity: 60
Note ON: Time 11520, Note Name: E5, Velocity: 72
Note OFF: Time 11640, Note Name: E5
Note ON: Time 11640, Note Name: D#5, Velocity: 68
Note OFF: Time 11700, Note Name: D#5
Note OFF: Time 11700, Note Name: B4
Note OFF: Time 11700, Note Name: D#4
Note ON: Time 11760, Note Name: D#4, Velocity: 61
Note ON: Time 11760, Note Name: D#5, Velocity: 72
Note OFF: Time 11880, Note Name: D#5
Note ON: Time 11880, Note Name: B4, Velocity: 72
Note OFF: Time 11940, Note Name: B4
Note OFF: Time 11940, Note Name: D#4
Note ON: Time 12000, Note Name: E4, Velocity: 64
Note ON: Time 12000, Note Name: B4, Velocity: 76
Note OFF: Time 12120, Note Name: B4
Note ON: Time 12120, Note Name: G4, Velocity: 75
Note OFF: Time 12180, Note Name: G4
Note OFF: Time 12180, Note Name: E4
Note ON: Time 12240, Note Name: D#4, Velocity: 66
Note ON: Time 12240, Note Name: G4, Velocity: 78
Note OFF: Time 12360, Note Name: G4
Note ON: Time 12360, Note Name: F#4, Velocity: 74
Note OFF: Time 12420, Note Name: F#4
Note OFF: Time 12420, Note Name: D#4
Note ON: Time 12480, Note Name: D#4, Velocity: 67
Note ON: Time 12480, Note Name: F#4, Velocity: 80
Note OFF: Time 12600, Note Name: F#4
Note ON: Time 12600, Note Name: B4, Velocity: 75
Note OFF: Time 12660, Note Name: B4
Note OFF: Time 12660, Note Name: D#4
Note ON: Time 12720, Note Name: E4, Velocity: 69
Note ON: Time 12720, Note Name: B4, Velocity: 82
Note OFF: Time 12840, Note Name: B4
Note ON: Time 12840, Note Name: G4, Velocity: 78
Note OFF: Time 12900, Note Name: G4
Note OFF: Time 12900, Note Name: E4
Note ON: Time 12960, Note Name: D#4, Velocity: 72
Note ON: Time 12960, Note Name: F#4, Velocity: 85
Note OFF: Time 13080, Note Name: F#4
Note ON: Time 13080, Note Name: B4, Velocity: 81
Note OFF: Time 13140, Note Name: B4
Note OFF: Time 13140, Note Name: D#4
Note ON: Time 13200, Note Name: E4, Velocity: 72
Note ON: Time 13200, Note Name: B4, Velocity: 86
Note OFF: Time 13320, Note Name: B4
Note ON: Time 13320, Note Name: G4, Velocity: 85
Note OFF: Time 13380, Note Name: G4
Note OFF: Time 13380, Note Name: E4
Note ON: Time 13440, Note Name: D#4, Velocity: 76
Note ON: Time 13440, Note Name: F#4, Velocity: 90
Note OFF: Time 13560, Note Name: F#4
Note ON: Time 13560, Note Name: B4, Velocity: 88
Note OFF: Time 13620, Note Name: B4
Note OFF: Time 13620, Note Name: D#4
Note ON: Time 13680, Note Name: E4, Velocity: 77
Note ON: Time 13680, Note Name: B4, Velocity: 91
Note OFF: Time 13800, Note Name: B4
Note ON: Time 13800, Note Name: G4, Velocity: 87
Note OFF: Time 13860, Note Name: G4
Note OFF: Time 13860, Note Name: E4
Note ON: Time 13920, Note Name: D4, Velocity: 78
Note ON: Time 13920, Note Name: F#4, Velocity: 93
Note OFF: Time 14040, Note Name: F#4
Note ON: Time 14040, Note Name: B4, Velocity: 92
Note OFF: Time 14100, Note Name: B4
Note OFF: Time 14100, Note Name: D4
Note ON: Time 14160, Note Name: E4, Velocity: 81
Note ON: Time 14160, Note Name: B4, Velocity: 96
Note OFF: Time 14280, Note Name: B4
Note ON: Time 14280, Note Name: G4, Velocity: 95
Note OFF: Time 14340, Note Name: G4
Note OFF: Time 14340, Note Name: E4
Note ON: Time 14400, Note Name: B4, Velocity: 92
Note ON: Time 14400, Note Name: E4, Velocity: 77
Note ON: Time 14400, Note Name: G4, Velocity: 92
Note OFF: Time 14520, Note Name: G4
Note OFF: Time 14520, Note Name: E4
Note ON: Time 14520, Note Name: D4, Velocity: 74
Note ON: Time 14520, Note Name: F#4, Velocity: 87
Note ON: Time 14610, Note Name: G4, Velocity: 72
Note OFF: Time 14640, Note Name: G4
Note OFF: Time 14640, Note Name: F#4
Note OFF: Time 14640, Note Name: D4
Note ON: Time 14640, Note Name: D4, Velocity: 77
Note ON: Time 14640, Note Name: F#4, Velocity: 92
Note OFF: Time 14760, Note Name: F#4
Note OFF: Time 14760, Note Name: D4
Note ON: Time 14760, Note Name: C#4, Velocity: 72
Note ON: Time 14760, Note Name: E4, Velocity: 85
Note OFF: Time 14880, Note Name: E4
Note OFF: Time 14880, Note Name: C#4
Note ON: Time 14880, Note Name: D4, Velocity: 77
Note ON: Time 14880, Note Name: F#4, Velocity: 92
Note OFF: Time 15120, Note Name: F#4
Note OFF: Time 15120, Note Name: D4
Note ON: Time 15120, Note Name: E4, Velocity: 73
Note ON: Time 15120, Note Name: G4, Velocity: 87
Note OFF: Time 15240, Note Name: G4
Note OFF: Time 15240, Note Name: E4
Note ON: Time 15240, Note Name: D4, Velocity: 70
Note ON: Time 15240, Note Name: F#4, Velocity: 82
Note ON: Time 15330, Note Name: G4, Velocity: 71
Note OFF: Time 15360, Note Name: G4
Note OFF: Time 15360, Note Name: F#4
Note OFF: Time 15360, Note Name: D4
Note ON: Time 15360, Note Name: D4, Velocity: 73
Note ON: Time 15360, Note Name: F#4, Velocity: 87
Note OFF: Time 15480, Note Name: F#4
Note OFF: Time 15480, Note Name: D4
Note ON: Time 15480, Note Name: C#4, Velocity: 68
Note ON: Time 15480, Note Name: E4, Velocity: 80
Note OFF: Time 15600, Note Name: E4
Note OFF: Time 15600, Note Name: C#4
Note ON: Time 15600, Note Name: D4, Velocity: 73
Note ON: Time 15600, Note Name: F#4, Velocity: 87
Note OFF: Time 15840, Note Name: F#4
Note OFF: Time 15840, Note Name: D4
Note OFF: Time 15840, Note Name: B4
Note ON: Time 15840, Note Name: D4, Velocity: 61
Note ON: Time 15840, Note Name: G#4, Velocity: 61
Note ON: Time 15840, Note Name: B4, Velocity: 72
Note OFF: Time 15960, Note Name: B4
Note OFF: Time 15960, Note Name: D4
Note ON: Time 15960, Note Name: E4, Velocity: 61
Note ON: Time 15960, Note Name: C5, Velocity: 72
Note OFF: Time 16020, Note Name: C5
Note OFF: Time 16020, Note Name: E4
Note OFF: Time 16020, Note Name: G#4
Note ON: Time 16080, Note Name: G#4, Velocity: 61
Note ON: Time 16080, Note Name: E4, Velocity: 61
Note ON: Time 16080, Note Name: C5, Velocity: 72
Note OFF: Time 16200, Note Name: C5
Note OFF: Time 16200, Note Name: E4
Note ON: Time 16200, Note Name: D4, Velocity: 61
Note ON: Time 16200, Note Name: B4, Velocity: 72
Note OFF: Time 16260, Note Name: B4
Note OFF: Time 16260, Note Name: D4
Note OFF: Time 16260, Note Name: G#4
Note ON: Time 16320, Note Name: G#4, Velocity: 61
Note ON: Time 16320, Note Name: D4, Velocity: 61
Note ON: Time 16320, Note Name: B4, Velocity: 72
Note OFF: Time 16440, Note Name: B4
Note OFF: Time 16440, Note Name: D4
Note ON: Time 16440, Note Name: E4, Velocity: 61
Note ON: Time 16440, Note Name: C5, Velocity: 72
Note OFF: Time 16500, Note Name: C5
Note OFF: Time 16500, Note Name: E4
Note OFF: Time 16500, Note Name: G#4
Note ON: Time 16560, Note Name: A4, Velocity: 87
Note ON: Time 16560, Note Name: D4, Velocity: 73
Note ON: Time 16560, Note Name: F4, Velocity: 87
Note OFF: Time 16680, Note Name: F4
Note OFF: Time 16680, Note Name: D4
Note ON: Time 16680, Note Name: C4, Velocity: 70
Note ON: Time 16680, Note Name: E4, Velocity: 82
Note ON: Time 16770, Note Name: F4, Velocity: 63
Note OFF: Time 16800, Note Name: F4
Note OFF: Time 16800, Note Name: E4
Note OFF: Time 16800, Note Name: C4
Note ON: Time 16800, Note Name: C4, Velocity: 73
Note ON: Time 16800, Note Name: E4, Velocity: 87
Note OFF: Time 16920, Note Name: E4
Note OFF: Time 16920, Note Name: C4
Note ON: Time 16920, Note Name: B3, Velocity: 68
Note ON: Time 16920, Note Name: D4, Velocity: 80
Note OFF: Time 17040, Note Name: D4
Note OFF: Time 17040, Note Name: B3
Note ON: Time 17040, Note Name: C4, Velocity: 73
Note ON: Time 17040, Note Name: E4, Velocity: 87
Note OFF: Time 17280, Note Name: E4
Note OFF: Time 17280, Note Name: C4
Note OFF: Time 17280, Note Name: A4
Note ON: Time 17280, Note Name: A4, Velocity: 84
Note ON: Time 17280, Note Name: D4, Velocity: 69
Note ON: Time 17280, Note Name: F4, Velocity: 82
Note OFF: Time 17400, Note Name: F4
Note OFF: Time 17400, Note Name: D4
Note ON: Time 17400, Note Name: C4, Velocity: 66
Note ON: Time 17400, Note Name: E4, Velocity: 77
Note ON: Time 17490, Note Name: F4, Velocity: 59
Note OFF: Time 17520, Note Name: F4
Note OFF: Time 17520, Note Name: E4
Note OFF: Time 17520, Note Name: C4
Note ON: Time 17520, Note Name: C4, Velocity: 69
Note ON: Time 17520, Note Name: E4, Velocity: 82
Note OFF: Time 17640, Note Name: E4
Note OFF: Time 17640, Note Name: C4
Note ON: Time 17640, Note Name: B3, Velocity: 64
Note ON: Time 17640, Note Name: D4, Velocity: 76
Note OFF: Time 17760, Note Name: D4
Note OFF: Time 17760, Note Name: B3
Note ON: Time 17760, Note Name: C4, Velocity: 69
Note ON: Time 17760, Note Name: E4, Velocity: 82
Note OFF: Time 18000, Note Name: E4
Note OFF: Time 18000, Note Name: C4
Note ON: Time 18000, Note Name: D4, Velocity: 69
Note ON: Time 18000, Note Name: F4, Velocity: 82
Note OFF: Time 18120, Note Name: F4
Note OFF: Time 18120, Note Name: D4
Note ON: Time 18120, Note Name: C4, Velocity: 66
Note ON: Time 18120, Note Name: E4, Velocity: 77
Note ON: Time 18210, Note Name: F4, Velocity: 59
Note OFF: Time 18240, Note Name: F4
Note OFF: Time 18240, Note Name: E4
Note OFF: Time 18240, Note Name: C4
Note ON: Time 18240, Note Name: C4, Velocity: 69
Note ON: Time 18240, Note Name: E4, Velocity: 82
Note OFF: Time 18360, Note Name: E4
Note OFF: Time 18360, Note Name: C4
Note ON: Time 18360, Note Name: B3, Velocity: 64
Note ON: Time 18360, Note Name: D4, Velocity: 76
Note OFF: Time 18480, Note Name: D4
Note OFF: Time 18480, Note Name: B3
Note ON: Time 18480, Note Name: C4, Velocity: 69
Note ON: Time 18480, Note Name: E4, Velocity: 82
Note OFF: Time 18720, Note Name: E4
Note OFF: Time 18720, Note Name: C4
Note OFF: Time 18720, Note Name: A4
Note ON: Time 18720, Note Name: C4, Velocity: 61
Note ON: Time 18720, Note Name: F#4, Velocity: 61
Note ON: Time 18720, Note Name: A4, Velocity: 72
Note OFF: Time 18840, Note Name: A4
Note OFF: Time 18840, Note Name: C4
Note ON: Time 18840, Note Name: D4, Velocity: 61
Note ON: Time 18840, Note Name: B4, Velocity: 72
Note OFF: Time 18900, Note Name: B4
Note OFF: Time 18900, Note Name: D4
Note OFF: Time 18900, Note Name: F#4
Note ON: Time 18960, Note Name: F#4, Velocity: 61
Note ON: Time 18960, Note Name: D4, Velocity: 61
Note ON: Time 18960, Note Name: B4, Velocity: 72
Note OFF: Time 19080, Note Name: B4
Note OFF: Time 19080, Note Name: D4
Note ON: Time 19080, Note Name: C4, Velocity: 61
Note ON: Time 19080, Note Name: A4, Velocity: 72
Note OFF: Time 19140, Note Name: A4
Note OFF: Time 19140, Note Name: C4
Note OFF: Time 19140, Note Name: F#4
Note ON: Time 19200, Note Name: F#4, Velocity: 61
Note ON: Time 19200, Note Name: C4, Velocity: 61
Note ON: Time 19200, Note Name: A4, Velocity: 72
Note OFF: Time 19320, Note Name: A4
Note OFF: Time 19320, Note Name: C4
Note ON: Time 19320, Note Name: D4, Velocity: 61
Note ON: Time 19320, Note Name: B4, Velocity: 72
Note OFF: Time 19380, Note Name: B4
Note OFF: Time 19380, Note Name: D4
Note OFF: Time 19380, Note Name: F#4
Note ON: Time 19440, Note Name: G4, Velocity: 78
Note ON: Time 19440, Note Name: C4, Velocity: 65
Note ON: Time 19440, Note Name: E4, Velocity: 78
Note OFF: Time 19560, Note Name: E4
Note OFF: Time 19560, Note Name: C4
Note ON: Time 19560, Note Name: B3, Velocity: 63
Note ON: Time 19560, Note Name: D4, Velocity: 73
Note ON: Time 19650, Note Name: E4, Velocity: 56
Note OFF: Time 19680, Note Name: E4
Note OFF: Time 19680, Note Name: D4
Note OFF: Time 19680, Note Name: B3
Note ON: Time 19680, Note Name: B3, Velocity: 65
Note ON: Time 19680, Note Name: D4, Velocity: 78
Note OFF: Time 19800, Note Name: D4
Note OFF: Time 19800, Note Name: B3
Note ON: Time 19800, Note Name: A3, Velocity: 61
Note ON: Time 19800, Note Name: C4, Velocity: 72
Note OFF: Time 19920, Note Name: C4
Note OFF: Time 19920, Note Name: A3
Note ON: Time 19920, Note Name: B3, Velocity: 65
Note ON: Time 19920, Note Name: D4, Velocity: 78
Note OFF: Time 20160, Note Name: D4
Note OFF: Time 20160, Note Name: B3
Note OFF: Time 20160, Note Name: G4
Note ON: Time 20160, Note Name: E4, Velocity: 37
Note ON: Time 20160, Note Name: G4, Velocity: 44
Note OFF: Time 20280, Note Name: G4
Note ON: Time 20280, Note Name: A4, Velocity: 45
Note OFF: Time 20340, Note Name: A4
Note OFF: Time 20340, Note Name: E4
Note ON: Time 20400, Note Name: E4, Velocity: 40
Note ON: Time 20400, Note Name: A4, Velocity: 49
Note OFF: Time 20520, Note Name: A4
Note ON: Time 20520, Note Name: B4, Velocity: 51
Note OFF: Time 20580, Note Name: B4
Note OFF: Time 20580, Note Name: E4
Note ON: Time 20640, Note Name: E4, Velocity: 45
Note ON: Time 20640, Note Name: B4, Velocity: 54
Note OFF: Time 20760, Note Name: B4
Note ON: Time 20760, Note Name: C5, Velocity: 57
Note OFF: Time 20820, Note Name: C5
Note OFF: Time 20820, Note Name: E4
Note ON: Time 20880, Note Name: E4, Velocity: 51
Note ON: Time 20880, Note Name: C5, Velocity: 61
Note OFF: Time 21000, Note Name: C5
Note ON: Time 21000, Note Name: D5, Velocity: 63
Note OFF: Time 21060, Note Name: D5
Note OFF: Time 21060, Note Name: E4
Note ON: Time 21120, Note Name: E4, Velocity: 55
Note ON: Time 21120, Note Name: A4, Velocity: 55
Note ON: Time 21120, Note Name: D5, Velocity: 66
Note OFF: Time 21240, Note Name: D5
Note ON: Time 21240, Note Name: E5, Velocity: 69
Note OFF: Time 21300, Note Name: E5
Note OFF: Time 21300, Note Name: A4
Note OFF: Time 21300, Note Name: E4
Note ON: Time 21360, Note Name: E4, Velocity: 60
Note ON: Time 21360, Note Name: A4, Velocity: 60
Note ON: Time 21360, Note Name: E5, Velocity: 72
Note OFF: Time 21480, Note Name: E5
Note ON: Time 21480, Note Name: D4, Velocity: 57
Note ON: Time 21480, Note Name: D5, Velocity: 68
Note OFF: Time 21540, Note Name: D5
Note OFF: Time 21540, Note Name: E4
Note OFF: Time 21540, Note Name: A4
Note OFF: Time 21540, Note Name: D4
Note ON: Time 21600, Note Name: E4, Velocity: 39
Note ON: Time 21600, Note Name: G4, Velocity: 47
Note OFF: Time 21720, Note Name: G4
Note ON: Time 21720, Note Name: A4, Velocity: 48
Note OFF: Time 21780, Note Name: A4
Note OFF: Time 21780, Note Name: E4
Note ON: Time 21840, Note Name: E4, Velocity: 41
Note ON: Time 21840, Note Name: A4, Velocity: 50
Note OFF: Time 21960, Note Name: A4
Note ON: Time 21960, Note Name: B4, Velocity: 51
Note OFF: Time 22020, Note Name: B4
Note OFF: Time 22020, Note Name: E4
Note ON: Time 22080, Note Name: E4, Velocity: 45
Note ON: Time 22080, Note Name: B4, Velocity: 54
Note OFF: Time 22200, Note Name: B4
Note ON: Time 22200, Note Name: C5, Velocity: 55
Note OFF: Time 22260, Note Name: C5
Note OFF: Time 22260, Note Name: E4
Note ON: Time 22320, Note Name: E4, Velocity: 48
Note ON: Time 22320, Note Name: C5, Velocity: 57
Note OFF: Time 22440, Note Name: C5
Note ON: Time 22440, Note Name: D5, Velocity: 58
Note OFF: Time 22500, Note Name: D5
Note OFF: Time 22500, Note Name: E4
Note ON: Time 22560, Note Name: E4, Velocity: 51
Note ON: Time 22560, Note Name: A4, Velocity: 51
Note ON: Time 22560, Note Name: D5, Velocity: 61
Note OFF: Time 22680, Note Name: D5
Note ON: Time 22680, Note Name: E5, Velocity: 63
Note OFF: Time 22740, Note Name: E5
Note OFF: Time 22740, Note Name: A4
Note OFF: Time 22740, Note Name: E4
Note ON: Time 22800, Note Name: A4, Velocity: 54
Note ON: Time 22800, Note Name: E5, Velocity: 64
Note OFF: Time 22920, Note Name: E5
Note ON: Time 22920, Note Name: F#5, Velocity: 66
Note ON: Time 22920, Note Name: D#5, Velocity: 66
Note OFF: Time 22980, Note Name: D#5
Note OFF: Time 22980, Note Name: F#5
Note OFF: Time 22980, Note Name: A4
Note ON: Time 23040, Note Name: G4, Velocity: 56
Note ON: Time 23040, Note Name: E5, Velocity: 56
Note ON: Time 23040, Note Name: G5, Velocity: 67
Note OFF: Time 23160, Note Name: G5
Note OFF: Time 23160, Note Name: E5
Note OFF: Time 23160, Note Name: G4
Note ON: Time 23280, Note Name: A4, Velocity: 56
Note ON: Time 23280, Note Name: E5, Velocity: 56
Note ON: Time 23280, Note Name: G5, Velocity: 67
Note OFF: Time 23400, Note Name: G5
Note OFF: Time 23400, Note Name: E5
Note ON: Time 23400, Note Name: D#5, Velocity: 54
Note ON: Time 23400, Note Name: F#5, Velocity: 64
Note OFF: Time 23460, Note Name: F#5
Note OFF: Time 23460, Note Name: D#5
Note OFF: Time 23460, Note Name: A4
Note ON: Time 23520, Note Name: G4, Velocity: 56
Note ON: Time 23520, Note Name: D#5, Velocity: 56
Note ON: Time 23520, Note Name: F#5, Velocity: 67
Note OFF: Time 23640, Note Name: F#5
Note OFF: Time 23640, Note Name: D#5
Note ON: Time 23640, Note Name: E5, Velocity: 55
Note ON: Time 23640, Note Name: G5, Velocity: 65
Note OFF: Time 23700, Note Name: G5
Note OFF: Time 23700, Note Name: E5
Note OFF: Time 23700, Note Name: G4
Note ON: Time 23760, Note Name: A4, Velocity: 58
Note ON: Time 23760, Note Name: E5, Velocity: 58
Note ON: Time 23760, Note Name: G5, Velocity: 70
Note OFF: Time 23880, Note Name: G5
Note OFF: Time 23880, Note Name: E5
Note ON: Time 23880, Note Name: D#5, Velocity: 58
Note ON: Time 23880, Note Name: F#5, Velocity: 69
Note OFF: Time 23940, Note Name: F#5
Note OFF: Time 23940, Note Name: D#5
Note OFF: Time 23940, Note Name: A4
Note ON: Time 24000, Note Name: G4, Velocity: 62
Note ON: Time 24000, Note Name: D#5, Velocity: 62
Note ON: Time 24000, Note Name: F#5, Velocity: 74
Note OFF: Time 24120, Note Name: F#5
Note OFF: Time 24120, Note Name: D#5
Note ON: Time 24120, Note Name: E5, Velocity: 61
Note ON: Time 24120, Note Name: G5, Velocity: 72
Note OFF: Time 24180, Note Name: G5
Note OFF: Time 24180, Note Name: E5
Note OFF: Time 24180, Note Name: G4
Note ON: Time 24240, Note Name: G4, Velocity: 64
Note ON: Time 24240, Note Name: G5, Velocity: 77
Note ON: Time 24240, Note Name: E5, Velocity: 64
Note OFF: Time 24360, Note Name: E5
Note OFF: Time 24360, Note Name: G5
Note OFF: Time 24360, Note Name: G4
Note ON: Time 24360, Note Name: F5, Velocity: 62
Note ON: Time 24360, Note Name: G#5, Velocity: 73
Note ON: Time 24360, Note Name: G#4, Velocity: 62
Note OFF: Time 24420, Note Name: G#4
Note OFF: Time 24420, Note Name: G#5
Note OFF: Time 24420, Note Name: F5
Note ON: Time 24480, Note Name: G#4, Velocity: 64
Note ON: Time 24480, Note Name: G#5, Velocity: 77
Note ON: Time 24480, Note Name: F5, Velocity: 64
Note OFF: Time 24600, Note Name: F5
Note OFF: Time 24600, Note Name: G#5
Note OFF: Time 24600, Note Name: G#4
Note ON: Time 24600, Note Name: F#5, Velocity: 62
Note ON: Time 24600, Note Name: A5, Velocity: 73
Note ON: Time 24600, Note Name: A4, Velocity: 62
Note OFF: Time 24660, Note Name: A4
Note OFF: Time 24660, Note Name: A5
Note OFF: Time 24660, Note Name: F#5
Note ON: Time 24720, Note Name: A4, Velocity: 65
Note ON: Time 24720, Note Name: A5, Velocity: 78
Note ON: Time 24720, Note Name: F#5, Velocity: 65
Note OFF: Time 24840, Note Name: F#5
Note OFF: Time 24840, Note Name: A5
Note OFF: Time 24840, Note Name: A4
Note ON: Time 24840, Note Name: F5, Velocity: 63
Note ON: Time 24840, Note Name: G#5, Velocity: 75
Note ON: Time 24840, Note Name: G#4, Velocity: 63
Note OFF: Time 24900, Note Name: G#4
Note OFF: Time 24900, Note Name: G#5
Note OFF: Time 24900, Note Name: F5
Note ON: Time 24960, Note Name: G#4, Velocity: 67
Note ON: Time 24960, Note Name: G#5, Velocity: 80
Note ON: Time 24960, Note Name: F5, Velocity: 67
Note OFF: Time 25080, Note Name: F5
Note OFF: Time 25080, Note Name: G#5
Note OFF: Time 25080, Note Name: G#4
Note ON: Time 25080, Note Name: F#5, Velocity: 65
Note ON: Time 25080, Note Name: A5, Velocity: 77
Note ON: Time 25080, Note Name: A4, Velocity: 65
Note OFF: Time 25140, Note Name: A4
Note OFF: Time 25140, Note Name: A5
Note OFF: Time 25140, Note Name: F#5
Note ON: Time 25200, Note Name: A4, Velocity: 68
Note ON: Time 25200, Note Name: A5, Velocity: 82
Note ON: Time 25200, Note Name: F#5, Velocity: 68
Note OFF: Time 25320, Note Name: F#5
Note OFF: Time 25320, Note Name: A5
Note OFF: Time 25320, Note Name: A4
Note ON: Time 25320, Note Name: F5, Velocity: 66
Note ON: Time 25320, Note Name: G#5, Velocity: 78
Note ON: Time 25320, Note Name: G#4, Velocity: 66
Note OFF: Time 25380, Note Name: G#4
Note OFF: Time 25380, Note Name: G#5
Note OFF: Time 25380, Note Name: F5
Note ON: Time 25440, Note Name: G#4, Velocity: 70
Note ON: Time 25440, Note Name: G#5, Velocity: 84
Note ON: Time 25440, Note Name: F5, Velocity: 70
Note OFF: Time 25560, Note Name: F5
Note OFF: Time 25560, Note Name: G#5
Note OFF: Time 25560, Note Name: G#4
Note ON: Time 25560, Note Name: F#5, Velocity: 68
Note ON: Time 25560, Note Name: A5, Velocity: 81
Note ON: Time 25560, Note Name: A4, Velocity: 68
Note OFF: Time 25620, Note Name: A4
Note OFF: Time 25620, Note Name: A5
Note OFF: Time 25620, Note Name: F#5
Note ON: Time 25680, Note Name: A4, Velocity: 71
Note ON: Time 25680, Note Name: A5, Velocity: 86
Note ON: Time 25680, Note Name: F#5, Velocity: 71
Note OFF: Time 25800, Note Name: A5
Note OFF: Time 25800, Note Name: A4
Note ON: Time 25800, Note Name: A#5, Velocity: 82
Note ON: Time 25800, Note Name: A#4, Velocity: 70
Note OFF: Time 25860, Note Name: A#4
Note OFF: Time 25860, Note Name: A#5
Note OFF: Time 25860, Note Name: F#5
Note ON: Time 25920, Note Name: A#4, Velocity: 73
Note ON: Time 25920, Note Name: F#5, Velocity: 73
Note ON: Time 25920, Note Name: A#5, Velocity: 88
Note OFF: Time 26160, Note Name: A#5
Note OFF: Time 26160, Note Name: F#5
Note OFF: Time 26160, Note Name: A#4
Note ON: Time 26160, Note Name: A#4, Velocity: 70
Note ON: Time 26160, Note Name: A#5, Velocity: 83
Note ON: Time 26160, Note Name: F#5, Velocity: 70
Note OFF: Time 26280, Note Name: F#5
Note ON: Time 26280, Note Name: F5, Velocity: 65
Note ON: Time 26280, Note Name: G#5, Velocity: 77
Note OFF: Time 26340, Note Name: G#5
Note OFF: Time 26340, Note Name: A#4
Note OFF: Time 26340, Note Name: A#5
Note OFF: Time 26340, Note Name: F5
Note ON: Time 26400, Note Name: A#4, Velocity: 63
Note ON: Time 26400, Note Name: A#5, Velocity: 75
Note ON: Time 26400, Note Name: F5, Velocity: 63
Note ON: Time 26400, Note Name: G#5, Velocity: 75
Note OFF: Time 26520, Note Name: G#5
Note OFF: Time 26520, Note Name: F5
Note ON: Time 26520, Note Name: D#5, Velocity: 58
Note ON: Time 26520, Note Name: F#5, Velocity: 69
Note OFF: Time 26580, Note Name: F#5
Note OFF: Time 26580, Note Name: A#4
Note OFF: Time 26580, Note Name: A#5
Note OFF: Time 26580, Note Name: D#5
Note ON: Time 26640, Note Name: F5, Velocity: 73
Note ON: Time 26640, Note Name: A#4, Velocity: 73
Note ON: Time 26640, Note Name: G#5, Velocity: 73
Note ON: Time 26640, Note Name: A#5, Velocity: 88
Note OFF: Time 26880, Note Name: A#5
Note OFF: Time 26880, Note Name: F5
Note OFF: Time 26880, Note Name: A#4
Note OFF: Time 26880, Note Name: G#5
Note ON: Time 26880, Note Name: F5, Velocity: 70
Note ON: Time 26880, Note Name: A#4, Velocity: 70
Note ON: Time 26880, Note Name: A#5, Velocity: 83
Note ON: Time 26880, Note Name: G#5, Velocity: 70
Note OFF: Time 27000, Note Name: G#5
Note OFF: Time 27000, Note Name: F5
Note ON: Time 27000, Note Name: F#5, Velocity: 77
Note ON: Time 27000, Note Name: D#5, Velocity: 65
Note OFF: Time 27060, Note Name: D#5
Note OFF: Time 27060, Note Name: A#4
Note OFF: Time 27060, Note Name: A#5
Note OFF: Time 27060, Note Name: F#5
Note ON: Time 27120, Note Name: A#4, Velocity: 63
Note ON: Time 27120, Note Name: A#5, Velocity: 75
Note ON: Time 27120, Note Name: D#5, Velocity: 63
Note ON: Time 27120, Note Name: F#5, Velocity: 75
Note OFF: Time 27240, Note Name: F#5
Note OFF: Time 27240, Note Name: D#5
Note ON: Time 27240, Note Name: D5, Velocity: 58
Note ON: Time 27240, Note Name: F5, Velocity: 69
Note OFF: Time 27300, Note Name: F5
Note OFF: Time 27300, Note Name: A#4
Note OFF: Time 27300, Note Name: A#5
Note OFF: Time 27300, Note Name: D5
Note ON: Time 27360, Note Name: D#5, Velocity: 65
Note ON: Time 27360, Note Name: A#4, Velocity: 65
Note ON: Time 27360, Note Name: F#5, Velocity: 65
Note ON: Time 27360, Note Name: A#5, Velocity: 79
Note OFF: Time 27480, Note Name: A#5
Note OFF: Time 27480, Note Name: D#5
Note OFF: Time 27480, Note Name: A#4
Note OFF: Time 27480, Note Name: F#5
Note ON: Time 27600, Note Name: A#4, Velocity: 63
Note ON: Time 27600, Note Name: F#5, Velocity: 63
Note OFF: Time 27720, Note Name: F#5
Note OFF: Time 27720, Note Name: A#4
Note ON: Time 27720, Note Name: F5, Velocity: 68
Note ON: Time 27720, Note Name: G#4, Velocity: 57
Note OFF: Time 27780, Note Name: G#4
Note OFF: Time 27780, Note Name: F5
Note ON: Time 27840, Note Name: G#4, Velocity: 54
Note ON: Time 27840, Note Name: F5, Velocity: 64
Note OFF: Time 27960, Note Name: F5
Note OFF: Time 27960, Note Name: G#4
Note ON: Time 27960, Note Name: G4, Velocity: 49
Note ON: Time 27960, Note Name: D#5, Velocity: 59
Note OFF: Time 28020, Note Name: D#5
Note OFF: Time 28020, Note Name: G4
Note ON: Time 28080, Note Name: G4, Velocity: 61
Note ON: Time 28080, Note Name: D#5, Velocity: 74
Note OFF: Time 28200, Note Name: D#5
Note OFF: Time 28200, Note Name: G4
Note ON: Time 28320, Note Name: G4, Velocity: 52
Note ON: Time 28320, Note Name: A#4, Velocity: 52
Note OFF: Time 28440, Note Name: G4
Note ON: Time 28440, Note Name: E4, Velocity: 45
Note OFF: Time 28500, Note Name: E4
Note OFF: Time 28500, Note Name: A#4
Note ON: Time 28560, Note Name: B4, Velocity: 48
Note ON: Time 28560, Note Name: E4, Velocity: 41
Note ON: Time 28560, Note Name: G4, Velocity: 48
Note OFF: Time 28680, Note Name: E4
Note ON: Time 28680, Note Name: D#4, Velocity: 35
Note OFF: Time 28740, Note Name: D#4
Note OFF: Time 28740, Note Name: G4
Note OFF: Time 28740, Note Name: B4
Note ON: Time 28800, Note Name: B3, Velocity: 46
Note ON: Time 28800, Note Name: D#4, Velocity: 54
Note OFF: Time 28920, Note Name: D#4
Note ON: Time 28920, Note Name: E4, Velocity: 42
Note OFF: Time 28980, Note Name: E4
Note OFF: Time 28980, Note Name: B3
Note ON: Time 29040, Note Name: B3, Velocity: 43
Note ON: Time 29040, Note Name: E4, Velocity: 51
Note OFF: Time 29160, Note Name: E4
Note ON: Time 29160, Note Name: F4, Velocity: 43
Note OFF: Time 29220, Note Name: F4
Note OFF: Time 29220, Note Name: B3
Note ON: Time 29280, Note Name: B3, Velocity: 44
Note ON: Time 29280, Note Name: D#4, Velocity: 44
Note ON: Time 29280, Note Name: F4, Velocity: 52
Note OFF: Time 29400, Note Name: F4
Note ON: Time 29400, Note Name: F#4, Velocity: 44
Note OFF: Time 29460, Note Name: F#4
Note OFF: Time 29460, Note Name: D#4
Note OFF: Time 29460, Note Name: B3
Note ON: Time 29520, Note Name: B3, Velocity: 44
Note ON: Time 29520, Note Name: D#4, Velocity: 44
Note ON: Time 29520, Note Name: F#4, Velocity: 53
Note OFF: Time 29640, Note Name: F#4
Note ON: Time 29640, Note Name: G4, Velocity: 46
Note OFF: Time 29700, Note Name: G4
Note OFF: Time 29700, Note Name: D#4
Note OFF: Time 29700, Note Name: B3
Note ON: Time 29760, Note Name: B3, Velocity: 47
Note ON: Time 29760, Note Name: D#4, Velocity: 47
Note ON: Time 29760, Note Name: G4, Velocity: 56
Note OFF: Time 29880, Note Name: G4
Note ON: Time 29880, Note Name: G#4, Velocity: 47
Note OFF: Time 29940, Note Name: G#4
Note OFF: Time 29940, Note Name: D#4
Note OFF: Time 29940, Note Name: B3
Note ON: Time 30000, Note Name: B3, Velocity: 48
Note ON: Time 30000, Note Name: D#4, Velocity: 48
Note ON: Time 30000, Note Name: G#4, Velocity: 57
Note OFF: Time 30120, Note Name: G#4
Note ON: Time 30120, Note Name: A4, Velocity: 49
Note OFF: Time 30180, Note Name: A4
Note OFF: Time 30180, Note Name: D#4
Note OFF: Time 30180, Note Name: B3
Note ON: Time 30240, Note Name: D#4, Velocity: 50
Note ON: Time 30240, Note Name: A4, Velocity: 59
Note OFF: Time 30360, Note Name: A4
Note ON: Time 30360, Note Name: A#4, Velocity: 52
Note OFF: Time 30420, Note Name: A#4
Note OFF: Time 30420, Note Name: D#4
Note ON: Time 30480, Note Name: D#4, Velocity: 52
Note ON: Time 30480, Note Name: A#4, Velocity: 61
Note OFF: Time 30600, Note Name: A#4
Note ON: Time 30600, Note Name: B4, Velocity: 54
Note OFF: Time 30660, Note Name: B4
Note OFF: Time 30660, Note Name: D#4
Note ON: Time 30720, Note Name: D#4, Velocity: 55
Note ON: Time 30720, Note Name: G#4, Velocity: 66
Note ON: Time 30720, Note Name: B4, Velocity: 66
Note OFF: Time 30840, Note Name: B4
Note ON: Time 30840, Note Name: C5, Velocity: 56
Note OFF: Time 30900, Note Name: C5
Note OFF: Time 30900, Note Name: G#4
Note OFF: Time 30900, Note Name: D#4
Note ON: Time 30960, Note Name: G#4, Velocity: 58
Note ON: Time 30960, Note Name: D#4, Velocity: 58
Note ON: Time 30960, Note Name: C5, Velocity: 69
Note OFF: Time 31080, Note Name: C5
Note ON: Time 31080, Note Name: C#5, Velocity: 60
Note OFF: Time 31140, Note Name: C#5
Note OFF: Time 31140, Note Name: D#4
Note OFF: Time 31140, Note Name: G#4
Note ON: Time 31200, Note Name: D#4, Velocity: 61
Note ON: Time 31200, Note Name: G#4, Velocity: 61
Note ON: Time 31200, Note Name: C#5, Velocity: 71
Note OFF: Time 31320, Note Name: C#5
Note ON: Time 31320, Note Name: D5, Velocity: 62
Note OFF: Time 31380, Note Name: D5
Note OFF: Time 31380, Note Name: G#4
Note OFF: Time 31380, Note Name: D#4
Note ON: Time 31440, Note Name: D#4, Velocity: 63
Note ON: Time 31440, Note Name: G#4, Velocity: 63
Note ON: Time 31440, Note Name: D5, Velocity: 76
Note OFF: Time 31560, Note Name: D5
Note ON: Time 31560, Note Name: D#5, Velocity: 66
Note OFF: Time 31620, Note Name: D#5
Note OFF: Time 31620, Note Name: G#4
Note OFF: Time 31620, Note Name: D#4
Note ON: Time 31680, Note Name: D#4, Velocity: 68
Note ON: Time 31680, Note Name: A#4, Velocity: 68
Note ON: Time 31680, Note Name: D#5, Velocity: 81
Note OFF: Time 31800, Note Name: D#5
Note ON: Time 31800, Note Name: E5, Velocity: 77
Note OFF: Time 31860, Note Name: E5
Note OFF: Time 31860, Note Name: A#4
Note OFF: Time 31860, Note Name: D#4
Note ON: Time 31920, Note Name: A#4, Velocity: 69
Note ON: Time 31920, Note Name: E5, Velocity: 82
Note OFF: Time 32040, Note Name: E5
Note ON: Time 32040, Note Name: D#5, Velocity: 78
Note OFF: Time 32100, Note Name: D#5
Note OFF: Time 32100, Note Name: A#4
Note ON: Time 32160, Note Name: D#4, Velocity: 70
Note ON: Time 32160, Note Name: A#4, Velocity: 70
Note ON: Time 32160, Note Name: D#5, Velocity: 84
Note OFF: Time 32280, Note Name: D#5
Note ON: Time 32280, Note Name: C#5, Velocity: 84
Note OFF: Time 32340, Note Name: C#5
Note OFF: Time 32340, Note Name: A#4
Note OFF: Time 32340, Note Name: D#4
Note ON: Time 32400, Note Name: D#4, Velocity: 69
Note ON: Time 32400, Note Name: G#4, Velocity: 69
Note ON: Time 32400, Note Name: C#5, Velocity: 82
Note OFF: Time 32520, Note Name: C#5
Note ON: Time 32520, Note Name: B4, Velocity: 79
Note OFF: Time 32580, Note Name: B4
Note OFF: Time 32580, Note Name: G#4
Note OFF: Time 32580, Note Name: D#4
Note ON: Time 32640, Note Name: D#4, Velocity: 70
Note ON: Time 32640, Note Name: G#4, Velocity: 70
Note ON: Time 32640, Note Name: B4, Velocity: 83
Note OFF: Time 32760, Note Name: B4
Note ON: Time 32760, Note Name: C#5, Velocity: 79
Note OFF: Time 32820, Note Name: C#5
Note OFF: Time 32820, Note Name: G#4
Note OFF: Time 32820, Note Name: D#4
Note ON: Time 32880, Note Name: D#4, Velocity: 72
Note ON: Time 32880, Note Name: G#4, Velocity: 72
Note ON: Time 32880, Note Name: C#5, Velocity: 85
Note OFF: Time 33000, Note Name: C#5
Note ON: Time 33000, Note Name: D#5, Velocity: 86
Note OFF: Time 33060, Note Name: D#5
Note OFF: Time 33060, Note Name: G#4
Note OFF: Time 33060, Note Name: D#4
Note ON: Time 33120, Note Name: E4, Velocity: 73
Note ON: Time 33120, Note Name: G#4, Velocity: 73
Note ON: Time 33120, Note Name: D#5, Velocity: 87
Note OFF: Time 33240, Note Name: D#5
Note ON: Time 33240, Note Name: C#5, Velocity: 86
Note OFF: Time 33300, Note Name: C#5
Note OFF: Time 33300, Note Name: G#4
Note OFF: Time 33300, Note Name: E4
Note ON: Time 33360, Note Name: E4, Velocity: 71
Note ON: Time 33360, Note Name: G#4, Velocity: 71
Note ON: Time 33360, Note Name: C#5, Velocity: 84
Note OFF: Time 33480, Note Name: C#5
Note ON: Time 33480, Note Name: B4, Velocity: 83
Note OFF: Time 33540, Note Name: B4
Note OFF: Time 33540, Note Name: G#4
Note OFF: Time 33540, Note Name: E4
Note ON: Time 33600, Note Name: C#4, Velocity: 68
Note ON: Time 33600, Note Name: E4, Velocity: 68
Note ON: Time 33600, Note Name: B4, Velocity: 81
Note OFF: Time 33720, Note Name: B4
Note ON: Time 33720, Note Name: A#4, Velocity: 80
Note OFF: Time 33780, Note Name: A#4
Note OFF: Time 33780, Note Name: E4
Note OFF: Time 33780, Note Name: C#4
Note ON: Time 33840, Note Name: C#4, Velocity: 79
Note ON: Time 33960, Note Name: B4, Velocity: 71
Note OFF: Time 34080, Note Name: B4
Note OFF: Time 34080, Note Name: C#4
Note ON: Time 34080, Note Name: B4, Velocity: 70
Note ON: Time 34080, Note Name: C#4, Velocity: 58
Note OFF: Time 34200, Note Name: B4
Note ON: Time 34200, Note Name: A#4, Velocity: 67
Note OFF: Time 34320, Note Name: A#4
Note OFF: Time 34320, Note Name: C#4
Note ON: Time 34320, Note Name: A#4, Velocity: 64
Note ON: Time 34320, Note Name: C#4, Velocity: 54
Note OFF: Time 34440, Note Name: A#4
Note ON: Time 34440, Note Name: D#4, Velocity: 62
Note OFF: Time 34560, Note Name: D#4
Note OFF: Time 34560, Note Name: C#4
Note ON: Time 34560, Note Name: B3, Velocity: 45
Note ON: Time 34560, Note Name: D#4, Velocity: 53
Note OFF: Time 34680, Note Name: D#4
Note ON: Time 34680, Note Name: E4, Velocity: 45
Note OFF: Time 34740, Note Name: E4
Note OFF: Time 34740, Note Name: B3
Note ON: Time 34800, Note Name: B3, Velocity: 46
Note ON: Time 34800, Note Name: E4, Velocity: 54
Note OFF: Time 34920, Note Name: E4
Note ON: Time 34920, Note Name: F4, Velocity: 46
Note OFF: Time 34980, Note Name: F4
Note OFF: Time 34980, Note Name: B3
Note ON: Time 35040, Note Name: B3, Velocity: 49
Note ON: Time 35040, Note Name: D#4, Velocity: 49
Note ON: Time 35040, Note Name: F4, Velocity: 58
Note OFF: Time 35160, Note Name: F4
Note ON: Time 35160, Note Name: F#4, Velocity: 49
Note OFF: Time 35220, Note Name: F#4
Note OFF: Time 35220, Note Name: D#4
Note OFF: Time 35220, Note Name: B3
Note ON: Time 35280, Note Name: B3, Velocity: 51
Note ON: Time 35280, Note Name: D#4, Velocity: 51
Note ON: Time 35280, Note Name: F#4, Velocity: 60
Note OFF: Time 35400, Note Name: F#4
Note ON: Time 35400, Note Name: G4, Velocity: 51
Note OFF: Time 35460, Note Name: G4
Note OFF: Time 35460, Note Name: D#4
Note OFF: Time 35460, Note Name: B3
Note ON: Time 35520, Note Name: B3, Velocity: 53
Note ON: Time 35520, Note Name: D#4, Velocity: 53
Note ON: Time 35520, Note Name: G4, Velocity: 63
Note OFF: Time 35640, Note Name: G4
Note ON: Time 35640, Note Name: G#4, Velocity: 54
Note OFF: Time 35700, Note Name: G#4
Note OFF: Time 35700, Note Name: D#4
Note OFF: Time 35700, Note Name: B3
Note ON: Time 35760, Note Name: B3, Velocity: 55
Note ON: Time 35760, Note Name: D#4, Velocity: 55
Note ON: Time 35760, Note Name: G#4, Velocity: 65
Note OFF: Time 35880, Note Name: G#4
Note ON: Time 35880, Note Name: A4, Velocity: 56
Note OFF: Time 35940, Note Name: A4
Note OFF: Time 35940, Note Name: D#4
Note OFF: Time 35940, Note Name: B3
Note ON: Time 36000, Note Name: B3, Velocity: 60
Note ON: Time 36000, Note Name: E4, Velocity: 60
Note ON: Time 36000, Note Name: A4, Velocity: 71
Note OFF: Time 36120, Note Name: A4
Note ON: Time 36120, Note Name: A#4, Velocity: 61
Note OFF: Time 36180, Note Name: A#4
Note OFF: Time 36180, Note Name: E4
Note OFF: Time 36180, Note Name: B3
Note ON: Time 36240, Note Name: B3, Velocity: 61
Note ON: Time 36240, Note Name: E4, Velocity: 61
Note ON: Time 36240, Note Name: A#4, Velocity: 72
Note OFF: Time 36360, Note Name: A#4
Note ON: Time 36360, Note Name: B4, Velocity: 62
Note OFF: Time 36420, Note Name: B4
Note OFF: Time 36420, Note Name: E4
Note OFF: Time 36420, Note Name: B3
Note ON: Time 36480, Note Name: B3, Velocity: 62
Note ON: Time 36480, Note Name: E4, Velocity: 74
Note ON: Time 36480, Note Name: B4, Velocity: 74
Note OFF: Time 36600, Note Name: B4
Note ON: Time 36600, Note Name: C5, Velocity: 64
Note OFF: Time 36660, Note Name: C5
Note OFF: Time 36660, Note Name: E4
Note OFF: Time 36660, Note Name: B3
Note ON: Time 36720, Note Name: D#4, Velocity: 65
Note ON: Time 36720, Note Name: C5, Velocity: 77
Note OFF: Time 36840, Note Name: C5
Note ON: Time 36840, Note Name: C#5, Velocity: 72
Note OFF: Time 36900, Note Name: C#5
Note OFF: Time 36900, Note Name: D#4
Note ON: Time 36960, Note Name: D#4, Velocity: 66
Note ON: Time 36960, Note Name: G#4, Velocity: 66
Note ON: Time 36960, Note Name: C#5, Velocity: 79
Note OFF: Time 37080, Note Name: C#5
Note ON: Time 37080, Note Name: D5, Velocity: 73
Note OFF: Time 37140, Note Name: D5
Note OFF: Time 37140, Note Name: G#4
Note OFF: Time 37140, Note Name: D#4
Note ON: Time 37200, Note Name: D#4, Velocity: 68
Note ON: Time 37200, Note Name: G#4, Velocity: 68
Note ON: Time 37200, Note Name: D5, Velocity: 82
Note ON: Time 37320, Note Name: D#5, Velocity: 76
Note OFF: Time 37380, Note Name: D#5
Note OFF: Time 37380, Note Name: D#4
Note OFF: Time 37380, Note Name: G#4
Note OFF: Time 37380, Note Name: D5
Note ON: Time 37440, Note Name: E4, Velocity: 76
Note ON: Time 37440, Note Name: G#4, Velocity: 76
Note ON: Time 37440, Note Name: D#5, Velocity: 90
Note OFF: Time 37560, Note Name: D#5
Note ON: Time 37560, Note Name: C#5, Velocity: 77
Note OFF: Time 37620, Note Name: C#5
Note OFF: Time 37620, Note Name: G#4
Note OFF: Time 37620, Note Name: E4
Note ON: Time 37680, Note Name: C#5, Velocity: 81
Note OFF: Time 37800, Note Name: C#5
Note ON: Time 37800, Note Name: B4, Velocity: 73
Note OFF: Time 37860, Note Name: B4
Note ON: Time 37920, Note Name: B4, Velocity: 78
Note OFF: Time 38040, Note Name: B4
Note ON: Time 38040, Note Name: A#4, Velocity: 71
Note OFF: Time 38100, Note Name: A#4
Note ON: Time 38160, Note Name: D#4, Velocity: 76
Note ON: Time 38160, Note Name: G#4, Velocity: 76
Note ON: Time 38160, Note Name: C#5, Velocity: 90
Note OFF: Time 38280, Note Name: C#5
Note ON: Time 38280, Note Name: B4, Velocity: 77
Note OFF: Time 38340, Note Name: B4
Note OFF: Time 38340, Note Name: G#4
Note OFF: Time 38340, Note Name: D#4
Note ON: Time 38400, Note Name: B4, Velocity: 81
Note OFF: Time 38520, Note Name: B4
Note ON: Time 38520, Note Name: A#4, Velocity: 73
Note OFF: Time 38580, Note Name: A#4
Note ON: Time 38640, Note Name: A#4, Velocity: 78
Note OFF: Time 38760, Note Name: A#4
Note ON: Time 38760, Note Name: G#4, Velocity: 71
Note OFF: Time 38820, Note Name: G#4
Note ON: Time 38880, Note Name: E4, Velocity: 76
Note ON: Time 38880, Note Name: G#4, Velocity: 76
Note ON: Time 38880, Note Name: D#5, Velocity: 90
Note OFF: Time 39000, Note Name: D#5
Note ON: Time 39000, Note Name: C#5, Velocity: 77
Note OFF: Time 39060, Note Name: C#5
Note OFF: Time 39060, Note Name: G#4
Note OFF: Time 39060, Note Name: E4
Note ON: Time 39120, Note Name: C#5, Velocity: 81
Note OFF: Time 39240, Note Name: C#5
Note ON: Time 39240, Note Name: B4, Velocity: 73
Note OFF: Time 39300, Note Name: B4
Note ON: Time 39360, Note Name: B4, Velocity: 78
Note OFF: Time 39480, Note Name: B4
Note ON: Time 39480, Note Name: A#4, Velocity: 71
Note OFF: Time 39540, Note Name: A#4
Note ON: Time 39600, Note Name: D#4, Velocity: 76
Note ON: Time 39600, Note Name: G#4, Velocity: 76
Note ON: Time 39600, Note Name: C#5, Velocity: 90
Note OFF: Time 39720, Note Name: C#5
Note ON: Time 39720, Note Name: B4, Velocity: 77
Note OFF: Time 39780, Note Name: B4
Note OFF: Time 39780, Note Name: G#4
Note OFF: Time 39780, Note Name: D#4
Note ON: Time 39840, Note Name: B4, Velocity: 81
Note OFF: Time 39960, Note Name: B4
Note ON: Time 39960, Note Name: A#4, Velocity: 73
Note OFF: Time 40020, Note Name: A#4
Note ON: Time 40080, Note Name: A#4, Velocity: 78
Note OFF: Time 40200, Note Name: A#4
Note ON: Time 40200, Note Name: G#4, Velocity: 71
Note OFF: Time 40260, Note Name: G#4
Note ON: Time 40320, Note Name: C#4, Velocity: 76
Note ON: Time 40320, Note Name: G#4, Velocity: 76
Note ON: Time 40320, Note Name: B4, Velocity: 90
Note OFF: Time 40440, Note Name: B4
Note ON: Time 40440, Note Name: A#4, Velocity: 77
Note OFF: Time 40500, Note Name: A#4
Note OFF: Time 40500, Note Name: G#4
Note OFF: Time 40500, Note Name: C#4
Note ON: Time 40560, Note Name: A#4, Velocity: 81
Note OFF: Time 40680, Note Name: A#4
Note ON: Time 40680, Note Name: B4, Velocity: 73
Note OFF: Time 40740, Note Name: B4
Note ON: Time 40800, Note Name: B4, Velocity: 79
Note OFF: Time 40920, Note Name: B4
Note ON: Time 40920, Note Name: A#4, Velocity: 73
Note OFF: Time 40980, Note Name: A#4
Note ON: Time 41040, Note Name: A#4, Velocity: 93
Note OFF: Time 41160, Note Name: A#4
Note ON: Time 41160, Note Name: B4, Velocity: 80
Note OFF: Time 41220, Note Name: B4
Note ON: Time 41280, Note Name: B4, Velocity: 85
Note OFF: Time 41400, Note Name: B4
Note ON: Time 41400, Note Name: A#4, Velocity: 78
Note OFF: Time 41460, Note Name: A#4
Note ON: Time 41520, Note Name: A#4, Velocity: 84
Note OFF: Time 41640, Note Name: A#4
Note ON: Time 41640, Note Name: B4, Velocity: 77
Note OFF: Time 41700, Note Name: B4
Note ON: Time 41760, Note Name: B4, Velocity: 90
Note OFF: Time 41880, Note Name: B4
Note ON: Time 41880, Note Name: A#4, Velocity: 83
Note OFF: Time 41940, Note Name: A#4
Note ON: Time 42000, Note Name: A#4, Velocity: 85
Note OFF: Time 42120, Note Name: A#4
Note ON: Time 42120, Note Name: B4, Velocity: 75
Note OFF: Time 42180, Note Name: B4
Note ON: Time 42240, Note Name: B4, Velocity: 79
Note OFF: Time 42360, Note Name: B4
Note ON: Time 42360, Note Name: A#4, Velocity: 71
Note OFF: Time 42420, Note Name: A#4
Note ON: Time 42480, Note Name: A#4, Velocity: 88
Note OFF: Time 42600, Note Name: A#4
Note ON: Time 42600, Note Name: B4, Velocity: 73
Note OFF: Time 42660, Note Name: B4
Note ON: Time 42720, Note Name: B4, Velocity: 76
Note OFF: Time 42840, Note Name: B4
Note ON: Time 42840, Note Name: A#4, Velocity: 67
Note OFF: Time 42900, Note Name: A#4
Note ON: Time 42960, Note Name: A#4, Velocity: 70
Note OFF: Time 43080, Note Name: A#4
Note ON: Time 43080, Note Name: B4, Velocity: 62
Note OFF: Time 43140, Note Name: B4
Note ON: Time 43200, Note Name: G#4, Velocity: 66
Note ON: Time 43200, Note Name: A#4, Velocity: 66
Note OFF: Time 45360, Note Name: G#4
Note ON: Time 45360, Note Name: G4, Velocity: 48
Note ON: Time 45360, Note Name: C#4, Velocity: 48
Note OFF: Time 45840, Note Name: A#4
Note ON: Time 45840, Note Name: B4, Velocity: 48
Note OFF: Time 46080, Note Name: B4
Note OFF: Time 46080, Note Name: C#4
Note OFF: Time 46080, Note Name: G4
Note ON: Time 46080, Note Name: B3, Velocity: 48
Note ON: Time 46080, Note Name: G#4, Velocity: 48
Note OFF: Time 46200, Note Name: G#4
Note OFF: Time 46200, Note Name: B3
Note ON: Time 46320, Note Name: E4, Velocity: 45
Note ON: Time 46320, Note Name: C#4, Velocity: 45
Note ON: Time 46320, Note Name: G#4, Velocity: 53
Note OFF: Time 46440, Note Name: G#4
Note ON: Time 46440, Note Name: B4, Velocity: 45
Note OFF: Time 46500, Note Name: B4
Note OFF: Time 46500, Note Name: C#4
Note OFF: Time 46500, Note Name: E4
Note ON: Time 46560, Note Name: G4, Velocity: 45
Note ON: Time 46560, Note Name: C#4, Velocity: 45
Note ON: Time 46560, Note Name: B4, Velocity: 53
Note OFF: Time 46680, Note Name: B4
Note ON: Time 46680, Note Name: A#4, Velocity: 45
Note OFF: Time 46740, Note Name: A#4
Note OFF: Time 46740, Note Name: C#4
Note OFF: Time 46740, Note Name: G4
Note ON: Time 46800, Note Name: B3, Velocity: 45
Note ON: Time 46800, Note Name: A#4, Velocity: 53
Note OFF: Time 46920, Note Name: A#4
Note ON: Time 46920, Note Name: G#4, Velocity: 45
Note OFF: Time 46980, Note Name: G#4
Note OFF: Time 46980, Note Name: B3
Note ON: Time 47040, Note Name: E4, Velocity: 45
Note ON: Time 47040, Note Name: C#4, Velocity: 45
Note ON: Time 47040, Note Name: G#4, Velocity: 53
Note OFF: Time 47160, Note Name: G#4
Note ON: Time 47160, Note Name: B4, Velocity: 45
Note OFF: Time 47220, Note Name: B4
Note OFF: Time 47220, Note Name: C#4
Note OFF: Time 47220, Note Name: E4
Note ON: Time 47280, Note Name: G4, Velocity: 45
Note ON: Time 47280, Note Name: C#4, Velocity: 45
Note ON: Time 47280, Note Name: B4, Velocity: 53
Note OFF: Time 47400, Note Name: B4
Note ON: Time 47400, Note Name: A#4, Velocity: 45
Note OFF: Time 47460, Note Name: A#4
Note OFF: Time 47460, Note Name: C#4
Note OFF: Time 47460, Note Name: G4
Note ON: Time 47520, Note Name: B3, Velocity: 45
Note ON: Time 47520, Note Name: A#4, Velocity: 53
Note OFF: Time 47640, Note Name: A#4
Note ON: Time 47640, Note Name: G#4, Velocity: 45
Note OFF: Time 47700, Note Name: G#4
Note OFF: Time 47700, Note Name: B3
Note ON: Time 47760, Note Name: D#4, Velocity: 45
Note ON: Time 47760, Note Name: F#4, Velocity: 53
Note OFF: Time 47880, Note Name: F#4
Note ON: Time 47880, Note Name: D#5, Velocity: 45
Note OFF: Time 47940, Note Name: D#5
Note OFF: Time 47940, Note Name: D#4
Note ON: Time 48000, Note Name: A#4, Velocity: 45
Note ON: Time 48000, Note Name: E4, Velocity: 45
Note ON: Time 48000, Note Name: D#5, Velocity: 53
Note OFF: Time 48120, Note Name: D#5
Note ON: Time 48120, Note Name: C#5, Velocity: 45
Note OFF: Time 48180, Note Name: C#5
Note OFF: Time 48180, Note Name: E4
Note OFF: Time 48180, Note Name: A#4
Note ON: Time 48240, Note Name: G#4, Velocity: 45
Note ON: Time 48240, Note Name: D#4, Velocity: 45
Note ON: Time 48240, Note Name: C#5, Velocity: 53
Note OFF: Time 48360, Note Name: C#5
Note ON: Time 48360, Note Name: B4, Velocity: 45
Note OFF: Time 48420, Note Name: B4
Note OFF: Time 48420, Note Name: D#4
Note OFF: Time 48420, Note Name: G#4
Note ON: Time 48480, Note Name: D#4, Velocity: 53
Note ON: Time 48600, Note Name: B4, Velocity: 45
Note OFF: Time 48660, Note Name: B4
Note OFF: Time 48660, Note Name: D#4
Note ON: Time 48720, Note Name: G4, Velocity: 45
Note ON: Time 48720, Note Name: C#4, Velocity: 45
Note ON: Time 48720, Note Name: B4, Velocity: 53
Note OFF: Time 48840, Note Name: B4
Note ON: Time 48840, Note Name: A#4, Velocity: 45
Note OFF: Time 48900, Note Name: A#4
Note OFF: Time 48900, Note Name: C#4
Note OFF: Time 48900, Note Name: G4
Note ON: Time 48960, Note Name: B3, Velocity: 45
Note ON: Time 48960, Note Name: G#4, Velocity: 53
Note OFF: Time 49080, Note Name: G#4
Note OFF: Time 49080, Note Name: B3
Note ON: Time 49200, Note Name: E4, Velocity: 45
Note ON: Time 49200, Note Name: C#4, Velocity: 45
Note ON: Time 49200, Note Name: G#4, Velocity: 53
Note OFF: Time 49320, Note Name: G#4
Note ON: Time 49320, Note Name: B4, Velocity: 45
Note OFF: Time 49380, Note Name: B4
Note OFF: Time 49380, Note Name: C#4
Note OFF: Time 49380, Note Name: E4
Note ON: Time 49440, Note Name: G4, Velocity: 45
Note ON: Time 49440, Note Name: C#4, Velocity: 45
Note ON: Time 49440, Note Name: B4, Velocity: 53
Note OFF: Time 49560, Note Name: B4
Note ON: Time 49560, Note Name: A#4, Velocity: 45
Note OFF: Time 49620, Note Name: A#4
Note OFF: Time 49620, Note Name: C#4
Note OFF: Time 49620, Note Name: G4
Note ON: Time 49680, Note Name: B3, Velocity: 45
Note ON: Time 49680, Note Name: A#4, Velocity: 53
Note OFF: Time 49800, Note Name: A#4
Note ON: Time 49800, Note Name: G#4, Velocity: 45
Note OFF: Time 49860, Note Name: G#4
Note OFF: Time 49860, Note Name: B3
Note ON: Time 49920, Note Name: E4, Velocity: 45
Note ON: Time 49920, Note Name: C#4, Velocity: 45
Note ON: Time 49920, Note Name: G#4, Velocity: 53
Note OFF: Time 50040, Note Name: G#4
Note ON: Time 50040, Note Name: B4, Velocity: 45
Note OFF: Time 50100, Note Name: B4
Note OFF: Time 50100, Note Name: C#4
Note OFF: Time 50100, Note Name: E4
Note ON: Time 50160, Note Name: G4, Velocity: 45
Note ON: Time 50160, Note Name: C#4, Velocity: 45
Note ON: Time 50160, Note Name: B4, Velocity: 53
Note OFF: Time 50280, Note Name: B4
Note ON: Time 50280, Note Name: A#4, Velocity: 45
Note OFF: Time 50340, Note Name: A#4
Note OFF: Time 50340, Note Name: C#4
Note OFF: Time 50340, Note Name: G4
Note ON: Time 50400, Note Name: B3, Velocity: 45
Note ON: Time 50400, Note Name: A#4, Velocity: 53
Note OFF: Time 50520, Note Name: A#4
Note ON: Time 50520, Note Name: G#4, Velocity: 45
Note OFF: Time 50580, Note Name: G#4
Note OFF: Time 50580, Note Name: B3
Note ON: Time 50640, Note Name: C#4, Velocity: 45
Note ON: Time 50640, Note Name: E4, Velocity: 53
Note OFF: Time 50760, Note Name: E4
Note ON: Time 50760, Note Name: C#5, Velocity: 45
Note OFF: Time 50820, Note Name: C#5
Note OFF: Time 50820, Note Name: C#4
Note ON: Time 50880, Note Name: G#4, Velocity: 45
Note ON: Time 50880, Note Name: D4, Velocity: 45
Note ON: Time 50880, Note Name: C#5, Velocity: 53
Note OFF: Time 51000, Note Name: C#5
Note ON: Time 51000, Note Name: B4, Velocity: 45
Note OFF: Time 51060, Note Name: B4
Note OFF: Time 51060, Note Name: D4
Note OFF: Time 51060, Note Name: G#4
Note ON: Time 51120, Note Name: E4, Velocity: 45
Note ON: Time 51120, Note Name: C#4, Velocity: 45
Note ON: Time 51120, Note Name: B4, Velocity: 53
Note OFF: Time 51240, Note Name: B4
Note ON: Time 51240, Note Name: A4, Velocity: 45
Note OFF: Time 51300, Note Name: A4
Note OFF: Time 51300, Note Name: C#4
Note OFF: Time 51300, Note Name: E4
Note ON: Time 51360, Note Name: B3, Velocity: 45
Note ON: Time 51360, Note Name: D#4, Velocity: 53
Note ON: Time 51480, Note Name: B4, Velocity: 45
Note OFF: Time 51540, Note Name: B4
Note OFF: Time 51540, Note Name: D#4
Note OFF: Time 51540, Note Name: B3
Note ON: Time 51600, Note Name: D#4, Velocity: 45
Note ON: Time 51600, Note Name: A#3, Velocity: 45
Note ON: Time 51600, Note Name: G#4, Velocity: 53
Note OFF: Time 51720, Note Name: G#4
Note ON: Time 51720, Note Name: G4, Velocity: 45
Note OFF: Time 51780, Note Name: G4
Note OFF: Time 51780, Note Name: A#3
Note ON: Time 51840, Note Name: B3, Velocity: 45
Note ON: Time 51840, Note Name: G#4, Velocity: 53
Note OFF: Time 51960, Note Name: G#4
Note OFF: Time 51960, Note Name: B3
Note OFF: Time 51960, Note Name: D#4
Note ON: Time 52560, Note Name: D#4, Velocity: 69
Note OFF: Time 53760, Note Name: D#4
Note ON: Time 53760, Note Name: E4, Velocity: 63
Note OFF: Time 54000, Note Name: E4
Note ON: Time 54000, Note Name: D#4, Velocity: 69
Note OFF: Time 54960, Note Name: D#4
Note ON: Time 54960, Note Name: F#4, Velocity: 63
Note OFF: Time 55200, Note Name: F#4
Note ON: Time 55200, Note Name: E4, Velocity: 61
Note OFF: Time 55440, Note Name: E4
Note ON: Time 55440, Note Name: D#4, Velocity: 70
Note OFF: Time 56400, Note Name: D#4
Note ON: Time 56400, Note Name: G#4, Velocity: 54
Note OFF: Time 56640, Note Name: G#4
Note ON: Time 56640, Note Name: F#4, Velocity: 49
Note OFF: Time 56880, Note Name: F#4
Note ON: Time 56880, Note Name: E4, Velocity: 48
Note OFF: Time 57120, Note Name: E4
Note ON: Time 57120, Note Name: D#4, Velocity: 43
Note OFF: Time 57600, Note Name: D#4
Track 2: Piano left
Note ON: Time 1, Note Name: G#3, Velocity: 54
Note ON: Time 1, Note Name: D#3, Velocity: 45
Note ON: Time 1, Note Name: G#2, Velocity: 45
Note OFF: Time 180, Note Name: G#2
Note OFF: Time 180, Note Name: D#3
Note OFF: Time 180, Note Name: G#3
Note ON: Time 240, Note Name: G#2, Velocity: 36
Note ON: Time 240, Note Name: G#1, Velocity: 30
Note OFF: Time 300, Note Name: G#1
Note OFF: Time 300, Note Name: G#2
Note ON: Time 480, Note Name: D#2, Velocity: 30
Note ON: Time 480, Note Name: D#3, Velocity: 36
Note OFF: Time 540, Note Name: D#3
Note OFF: Time 540, Note Name: D#2
Note ON: Time 720, Note Name: D#3, Velocity: 37
Note ON: Time 720, Note Name: G#2, Velocity: 37
Note ON: Time 720, Note Name: G#3, Velocity: 44
Note OFF: Time 900, Note Name: G#3
Note OFF: Time 900, Note Name: G#2
Note OFF: Time 900, Note Name: D#3
Note ON: Time 960, Note Name: G#1, Velocity: 32
Note ON: Time 960, Note Name: G#2, Velocity: 39
Note OFF: Time 1020, Note Name: G#2
Note OFF: Time 1020, Note Name: G#1
Note ON: Time 1200, Note Name: D#2, Velocity: 33
Note ON: Time 1200, Note Name: D#3, Velocity: 40
Note OFF: Time 1260, Note Name: D#3
Note OFF: Time 1260, Note Name: D#2
Note ON: Time 1440, Note Name: B3, Velocity: 49
Note ON: Time 1440, Note Name: D#3, Velocity: 41
Note ON: Time 1440, Note Name: G#3, Velocity: 41
Note OFF: Time 1620, Note Name: G#3
Note OFF: Time 1620, Note Name: D#3
Note OFF: Time 1620, Note Name: B3
Note ON: Time 1680, Note Name: G#1, Velocity: 36
Note ON: Time 1680, Note Name: G#2, Velocity: 43
Note OFF: Time 1740, Note Name: G#2
Note OFF: Time 1740, Note Name: G#1
Note ON: Time 1920, Note Name: D#2, Velocity: 38
Note ON: Time 1920, Note Name: D#3, Velocity: 46
Note OFF: Time 1980, Note Name: D#3
Note OFF: Time 1980, Note Name: D#2
Note ON: Time 2160, Note Name: B3, Velocity: 57
Note ON: Time 2160, Note Name: D#3, Velocity: 48
Note ON: Time 2160, Note Name: G#3, Velocity: 48
Note OFF: Time 2340, Note Name: G#3
Note OFF: Time 2340, Note Name: D#3
Note OFF: Time 2340, Note Name: B3
Note ON: Time 2400, Note Name: G#1, Velocity: 41
Note ON: Time 2400, Note Name: G#2, Velocity: 50
Note OFF: Time 2460, Note Name: G#2
Note OFF: Time 2460, Note Name: G#1
Note ON: Time 2640, Note Name: D#3, Velocity: 51
Note ON: Time 2640, Note Name: D#2, Velocity: 44
Note OFF: Time 2700, Note Name: D#2
Note OFF: Time 2700, Note Name: D#3
Note ON: Time 2880, Note Name: D#3, Velocity: 47
Note ON: Time 2880, Note Name: A#3, Velocity: 56
Note OFF: Time 2940, Note Name: A#3
Note OFF: Time 2940, Note Name: D#3
Note ON: Time 3120, Note Name: G2, Velocity: 48
Note ON: Time 3120, Note Name: D#3, Velocity: 57
Note OFF: Time 3180, Note Name: D#3
Note OFF: Time 3180, Note Name: G2
Note ON: Time 3360, Note Name: D#3, Velocity: 50
Note ON: Time 3360, Note Name: A#3, Velocity: 59
Note OFF: Time 3420, Note Name: A#3
Note OFF: Time 3420, Note Name: D#3
Note ON: Time 3600, Note Name: G#2, Velocity: 47
Note ON: Time 3600, Note Name: D#3, Velocity: 56
Note OFF: Time 3660, Note Name: D#3
Note OFF: Time 3660, Note Name: G#2
Note ON: Time 3840, Note Name: B3, Velocity: 57
Note ON: Time 3840, Note Name: D#3, Velocity: 48
Note OFF: Time 3900, Note Name: D#3
Note OFF: Time 3900, Note Name: B3
Note ON: Time 4080, Note Name: G#2, Velocity: 50
Note ON: Time 4080, Note Name: D#3, Velocity: 59
Note OFF: Time 4140, Note Name: D#3
Note OFF: Time 4140, Note Name: G#2
Note ON: Time 4320, Note Name: G#3, Velocity: 60
Note ON: Time 4320, Note Name: C#3, Velocity: 50
Note OFF: Time 4380, Note Name: C#3
Note OFF: Time 4380, Note Name: G#3
Note ON: Time 4560, Note Name: C#2, Velocity: 49
Note ON: Time 4560, Note Name: C#3, Velocity: 58
Note OFF: Time 4620, Note Name: C#3
Note OFF: Time 4620, Note Name: C#2
Note ON: Time 4800, Note Name: C#3, Velocity: 47
Note ON: Time 4800, Note Name: G#3, Velocity: 56
Note OFF: Time 4860, Note Name: G#3
Note OFF: Time 4860, Note Name: C#3
Note ON: Time 5040, Note Name: D#3, Velocity: 42
Note ON: Time 5040, Note Name: G3, Velocity: 51
Note OFF: Time 5100, Note Name: G3
Note OFF: Time 5100, Note Name: D#3
Note ON: Time 5280, Note Name: D#2, Velocity: 38
Note ON: Time 5280, Note Name: D#3, Velocity: 46
Note OFF: Time 5340, Note Name: D#3
Note OFF: Time 5340, Note Name: D#2
Note ON: Time 5520, Note Name: D#3, Velocity: 34
Note ON: Time 5520, Note Name: G3, Velocity: 40
Note OFF: Time 5580, Note Name: G3
Note OFF: Time 5580, Note Name: D#3
Note ON: Time 5760, Note Name: G#2, Velocity: 37
Note ON: Time 5760, Note Name: D#3, Velocity: 37
Note ON: Time 5760, Note Name: G#3, Velocity: 45
Note OFF: Time 5940, Note Name: G#3
Note OFF: Time 5940, Note Name: D#3
Note OFF: Time 5940, Note Name: G#2
Note ON: Time 6000, Note Name: G#1, Velocity: 31
Note ON: Time 6000, Note Name: G#2, Velocity: 37
Note OFF: Time 6060, Note Name: G#2
Note OFF: Time 6060, Note Name: G#1
Note ON: Time 6240, Note Name: D#2, Velocity: 32
Note ON: Time 6240, Note Name: D#3, Velocity: 39
Note OFF: Time 6300, Note Name: D#3
Note OFF: Time 6300, Note Name: D#2
Note ON: Time 6480, Note Name: G#2, Velocity: 39
Note ON: Time 6480, Note Name: D#3, Velocity: 39
Note ON: Time 6480, Note Name: G#3, Velocity: 47
Note OFF: Time 6660, Note Name: G#3
Note OFF: Time 6660, Note Name: D#3
Note OFF: Time 6660, Note Name: G#2
Note ON: Time 6720, Note Name: G#2, Velocity: 41
Note ON: Time 6720, Note Name: G#1, Velocity: 34
Note OFF: Time 6780, Note Name: G#1
Note OFF: Time 6780, Note Name: G#2
Note ON: Time 6960, Note Name: D#2, Velocity: 34
Note ON: Time 6960, Note Name: D#3, Velocity: 41
Note OFF: Time 7020, Note Name: D#3
Note OFF: Time 7020, Note Name: D#2
Note ON: Time 7200, Note Name: G2, Velocity: 43
Note ON: Time 7200, Note Name: E3, Velocity: 43
Note ON: Time 7200, Note Name: G3, Velocity: 51
Note OFF: Time 7380, Note Name: G3
Note OFF: Time 7380, Note Name: E3
Note OFF: Time 7380, Note Name: G2
Note ON: Time 7440, Note Name: G2, Velocity: 45
Note ON: Time 7440, Note Name: G1, Velocity: 38
Note OFF: Time 7500, Note Name: G1
Note OFF: Time 7500, Note Name: G2
Note ON: Time 7680, Note Name: E2, Velocity: 40
Note ON: Time 7680, Note Name: E3, Velocity: 47
Note OFF: Time 7740, Note Name: E3
Note OFF: Time 7740, Note Name: E2
Note ON: Time 7920, Note Name: G3, Velocity: 52
Note ON: Time 7920, Note Name: D3, Velocity: 52
Note ON: Time 7920, Note Name: B3, Velocity: 61
Note OFF: Time 8100, Note Name: B3
Note OFF: Time 8100, Note Name: D3
Note OFF: Time 8100, Note Name: G3
Note ON: Time 8160, Note Name: G1, Velocity: 44
Note ON: Time 8160, Note Name: G2, Velocity: 53
Note OFF: Time 8220, Note Name: G2
Note OFF: Time 8220, Note Name: G1
Note ON: Time 8400, Note Name: G2, Velocity: 47
Note ON: Time 8400, Note Name: G3, Velocity: 55
Note OFF: Time 8460, Note Name: G3
Note OFF: Time 8460, Note Name: G2
Note ON: Time 8640, Note Name: F#3, Velocity: 61
Note ON: Time 8640, Note Name: F#2, Velocity: 51
Note OFF: Time 8700, Note Name: F#2
Note OFF: Time 8700, Note Name: F#3
Note ON: Time 8880, Note Name: F#3, Velocity: 50
Note ON: Time 8880, Note Name: D#4, Velocity: 60
Note OFF: Time 8940, Note Name: D#4
Note OFF: Time 8940, Note Name: F#3
Note ON: Time 9120, Note Name: F#3, Velocity: 61
Note ON: Time 9120, Note Name: F#2, Velocity: 51
Note OFF: Time 9180, Note Name: F#2
Note OFF: Time 9180, Note Name: F#3
Note ON: Time 9360, Note Name: F#3, Velocity: 51
Note ON: Time 9360, Note Name: E4, Velocity: 61
Note OFF: Time 9420, Note Name: E4
Note OFF: Time 9420, Note Name: F#3
Note ON: Time 9600, Note Name: F#2, Velocity: 50
Note ON: Time 9600, Note Name: F#3, Velocity: 60
Note OFF: Time 9660, Note Name: F#3
Note OFF: Time 9660, Note Name: F#2
Note ON: Time 9840, Note Name: F#3, Velocity: 51
Note ON: Time 9840, Note Name: E4, Velocity: 61
Note OFF: Time 9900, Note Name: E4
Note OFF: Time 9900, Note Name: F#3
Note ON: Time 10080, Note Name: F#2, Velocity: 45
Note ON: Time 10080, Note Name: F#3, Velocity: 54
Note OFF: Time 10140, Note Name: F#3
Note OFF: Time 10140, Note Name: F#2
Note ON: Time 10320, Note Name: F#3, Velocity: 44
Note ON: Time 10320, Note Name: D#4, Velocity: 52
Note OFF: Time 10380, Note Name: D#4
Note OFF: Time 10380, Note Name: F#3
Note ON: Time 10560, Note Name: F#2, Velocity: 43
Note ON: Time 10560, Note Name: F#3, Velocity: 51
Note OFF: Time 10620, Note Name: F#3
Note OFF: Time 10620, Note Name: F#2
Note ON: Time 10800, Note Name: E4, Velocity: 50
Note ON: Time 10800, Note Name: F#3, Velocity: 42
Note OFF: Time 10860, Note Name: F#3
Note OFF: Time 10860, Note Name: E4
Note ON: Time 11040, Note Name: F#2, Velocity: 40
Note ON: Time 11040, Note Name: F#3, Velocity: 47
Note OFF: Time 11100, Note Name: F#3
Note OFF: Time 11100, Note Name: F#2
Note ON: Time 11280, Note Name: C#4, Velocity: 47
Note ON: Time 11280, Note Name: F#3, Velocity: 40
Note OFF: Time 11340, Note Name: F#3
Note OFF: Time 11340, Note Name: C#4
Note ON: Time 11520, Note Name: B2, Velocity: 40
Note ON: Time 11520, Note Name: F#3, Velocity: 48
Note OFF: Time 11580, Note Name: F#3
Note OFF: Time 11580, Note Name: B2
Note ON: Time 11760, Note Name: B2, Velocity: 40
Note ON: Time 11760, Note Name: F#3, Velocity: 40
Note ON: Time 11760, Note Name: B3, Velocity: 48
Note OFF: Time 11820, Note Name: B3
Note OFF: Time 11820, Note Name: F#3
Note OFF: Time 11820, Note Name: B2
Note ON: Time 12000, Note Name: B3, Velocity: 51
Note ON: Time 12000, Note Name: B2, Velocity: 43
Note ON: Time 12000, Note Name: G3, Velocity: 43
Note OFF: Time 12060, Note Name: G3
Note OFF: Time 12060, Note Name: B2
Note OFF: Time 12060, Note Name: B3
Note ON: Time 12240, Note Name: B3, Velocity: 53
Note ON: Time 12240, Note Name: B2, Velocity: 45
Note ON: Time 12240, Note Name: F#3, Velocity: 45
Note OFF: Time 12300, Note Name: F#3
Note OFF: Time 12300, Note Name: B2
Note OFF: Time 12300, Note Name: B3
Note ON: Time 12480, Note Name: B2, Velocity: 45
Note ON: Time 12480, Note Name: F#3, Velocity: 45
Note ON: Time 12480, Note Name: B3, Velocity: 54
Note OFF: Time 12540, Note Name: B3
Note OFF: Time 12540, Note Name: F#3
Note OFF: Time 12540, Note Name: B2
Note ON: Time 12720, Note Name: G3, Velocity: 46
Note ON: Time 12720, Note Name: B2, Velocity: 46
Note ON: Time 12720, Note Name: B3, Velocity: 55
Note OFF: Time 12780, Note Name: B3
Note OFF: Time 12780, Note Name: B2
Note OFF: Time 12780, Note Name: G3
Note ON: Time 12960, Note Name: B3, Velocity: 57
Note ON: Time 12960, Note Name: B2, Velocity: 48
Note ON: Time 12960, Note Name: F#3, Velocity: 48
Note OFF: Time 13020, Note Name: F#3
Note OFF: Time 13020, Note Name: B2
Note OFF: Time 13020, Note Name: B3
Note ON: Time 13200, Note Name: E3, Velocity: 48
Note ON: Time 13200, Note Name: G3, Velocity: 48
Note ON: Time 13200, Note Name: B3, Velocity: 57
Note OFF: Time 13260, Note Name: B3
Note OFF: Time 13260, Note Name: G3
Note OFF: Time 13260, Note Name: E3
Note ON: Time 13440, Note Name: B2, Velocity: 51
Note ON: Time 13440, Note Name: F#3, Velocity: 51
Note ON: Time 13440, Note Name: B3, Velocity: 61
Note OFF: Time 13500, Note Name: B3
Note OFF: Time 13500, Note Name: F#3
Note OFF: Time 13500, Note Name: B2
Note ON: Time 13680, Note Name: G3, Velocity: 52
Note ON: Time 13680, Note Name: E3, Velocity: 52
Note ON: Time 13680, Note Name: B3, Velocity: 62
Note OFF: Time 13740, Note Name: B3
Note OFF: Time 13740, Note Name: E3
Note OFF: Time 13740, Note Name: G3
Note ON: Time 13920, Note Name: B3, Velocity: 63
Note ON: Time 13920, Note Name: B2, Velocity: 53
Note ON: Time 13920, Note Name: F#3, Velocity: 53
Note OFF: Time 13980, Note Name: F#3
Note OFF: Time 13980, Note Name: B2
Note OFF: Time 13980, Note Name: B3
Note ON: Time 14160, Note Name: E3, Velocity: 54
Note ON: Time 14160, Note Name: G3, Velocity: 54
Note ON: Time 14160, Note Name: B3, Velocity: 64
Note OFF: Time 14220, Note Name: B3
Note OFF: Time 14220, Note Name: G3
Note OFF: Time 14220, Note Name: E3
Note ON: Time 14400, Note Name: B2, Velocity: 60
Note ON: Time 14400, Note Name: F#3, Velocity: 60
Note ON: Time 14400, Note Name: B3, Velocity: 72
Note OFF: Time 14640, Note Name: B3
Note OFF: Time 14640, Note Name: F#3
Note OFF: Time 14640, Note Name: B2
Note ON: Time 14640, Note Name: B1, Velocity: 56
Note ON: Time 14640, Note Name: B2, Velocity: 66
Note OFF: Time 14700, Note Name: B2
Note OFF: Time 14700, Note Name: B1
Note ON: Time 14880, Note Name: B2, Velocity: 56
Note ON: Time 14880, Note Name: F#3, Velocity: 66
Note OFF: Time 15120, Note Name: F#3
Note ON: Time 15120, Note Name: B3, Velocity: 68
Note ON: Time 15120, Note Name: F#3, Velocity: 57
Note OFF: Time 15360, Note Name: F#3
Note OFF: Time 15360, Note Name: B3
Note OFF: Time 15360, Note Name: B2
Note ON: Time 15360, Note Name: B1, Velocity: 53
Note ON: Time 15360, Note Name: B2, Velocity: 62
Note OFF: Time 15420, Note Name: B2
Note OFF: Time 15420, Note Name: B1
Note ON: Time 15600, Note Name: F#3, Velocity: 62
Note ON: Time 15600, Note Name: B2, Velocity: 53
Note OFF: Time 15840, Note Name: B2
Note OFF: Time 15840, Note Name: F#3
Note ON: Time 15840, Note Name: E3, Velocity: 54
Note ON: Time 15840, Note Name: B3, Velocity: 64
Note OFF: Time 15960, Note Name: B3
Note OFF: Time 15960, Note Name: E3
Note ON: Time 16080, Note Name: E2, Velocity: 54
Note ON: Time 16080, Note Name: E3, Velocity: 64
Note OFF: Time 16200, Note Name: E3
Note OFF: Time 16200, Note Name: E2
Note ON: Time 16320, Note Name: B3, Velocity: 64
Note ON: Time 16320, Note Name: E3, Velocity: 54
Note OFF: Time 16440, Note Name: E3
Note OFF: Time 16440, Note Name: B3
Note ON: Time 16560, Note Name: A2, Velocity: 57
Note ON: Time 16560, Note Name: E3, Velocity: 57
Note ON: Time 16560, Note Name: A3, Velocity: 68
Note OFF: Time 16800, Note Name: A3
Note OFF: Time 16800, Note Name: E3
Note OFF: Time 16800, Note Name: A2
Note ON: Time 16800, Note Name: A1, Velocity: 53
Note ON: Time 16800, Note Name: A2, Velocity: 62
Note OFF: Time 16860, Note Name: A2
Note OFF: Time 16860, Note Name: A1
Note ON: Time 17040, Note Name: A2, Velocity: 53
Note ON: Time 17040, Note Name: E3, Velocity: 62
Note OFF: Time 17280, Note Name: E3
Note ON: Time 17280, Note Name: E3, Velocity: 54
Note ON: Time 17280, Note Name: A3, Velocity: 64
Note OFF: Time 17520, Note Name: A3
Note OFF: Time 17520, Note Name: E3
Note OFF: Time 17520, Note Name: A2
Note ON: Time 17520, Note Name: A2, Velocity: 58
Note ON: Time 17520, Note Name: A1, Velocity: 50
Note OFF: Time 17580, Note Name: A1
Note OFF: Time 17580, Note Name: A2
Note ON: Time 17760, Note Name: A2, Velocity: 50
Note ON: Time 17760, Note Name: E3, Velocity: 58
Note OFF: Time 18000, Note Name: E3
Note ON: Time 18000, Note Name: A3, Velocity: 64
Note ON: Time 18000, Note Name: E3, Velocity: 54
Note OFF: Time 18240, Note Name: E3
Note OFF: Time 18240, Note Name: A3
Note OFF: Time 18240, Note Name: A2
Note ON: Time 18240, Note Name: A1, Velocity: 50
Note ON: Time 18240, Note Name: A2, Velocity: 58
Note OFF: Time 18300, Note Name: A2
Note OFF: Time 18300, Note Name: A1
Note ON: Time 18480, Note Name: E3, Velocity: 58
Note ON: Time 18480, Note Name: A2, Velocity: 50
Note OFF: Time 18600, Note Name: A2
Note OFF: Time 18600, Note Name: E3
Note ON: Time 18720, Note Name: A3, Velocity: 64
Note ON: Time 18720, Note Name: D3, Velocity: 54
Note OFF: Time 18840, Note Name: D3
Note OFF: Time 18840, Note Name: A3
Note ON: Time 18960, Note Name: D2, Velocity: 54
Note ON: Time 18960, Note Name: D3, Velocity: 64
Note OFF: Time 19080, Note Name: D3
Note OFF: Time 19080, Note Name: D2
Note ON: Time 19200, Note Name: A3, Velocity: 64
Note ON: Time 19200, Note Name: D3, Velocity: 54
Note OFF: Time 19320, Note Name: D3
Note OFF: Time 19320, Note Name: A3
Note ON: Time 19440, Note Name: G2, Velocity: 51
Note ON: Time 19440, Note Name: D3, Velocity: 51
Note ON: Time 19440, Note Name: G3, Velocity: 61
Note OFF: Time 19680, Note Name: G3
Note OFF: Time 19680, Note Name: D3
Note OFF: Time 19680, Note Name: G2
Note ON: Time 19680, Note Name: G1, Velocity: 47
Note ON: Time 19680, Note Name: G2, Velocity: 55
Note OFF: Time 19740, Note Name: G2
Note OFF: Time 19740, Note Name: G1
Note ON: Time 19920, Note Name: G2, Velocity: 47
Note ON: Time 19920, Note Name: G3, Velocity: 55
Note OFF: Time 20040, Note Name: G3
Note OFF: Time 20040, Note Name: G2
Note ON: Time 20160, Note Name: C3, Velocity: 32
Note ON: Time 20160, Note Name: G3, Velocity: 38
Note OFF: Time 20220, Note Name: G3
Note OFF: Time 20220, Note Name: C3
Note ON: Time 20400, Note Name: C4, Velocity: 38
Note ON: Time 20400, Note Name: C3, Velocity: 32
Note ON: Time 20400, Note Name: G3, Velocity: 32
Note OFF: Time 20460, Note Name: G3
Note OFF: Time 20460, Note Name: C3
Note OFF: Time 20460, Note Name: C4
Note ON: Time 20640, Note Name: C3, Velocity: 35
Note ON: Time 20640, Note Name: G3, Velocity: 35
Note ON: Time 20640, Note Name: C4, Velocity: 42
Note OFF: Time 20700, Note Name: C4
Note OFF: Time 20700, Note Name: G3
Note OFF: Time 20700, Note Name: C3
Note ON: Time 20880, Note Name: C3, Velocity: 43
Note ON: Time 20880, Note Name: G3, Velocity: 43
Note ON: Time 20880, Note Name: C4, Velocity: 52
Note OFF: Time 20940, Note Name: C4
Note OFF: Time 20940, Note Name: G3
Note OFF: Time 20940, Note Name: C3
Note ON: Time 21120, Note Name: C4, Velocity: 52
Note ON: Time 21120, Note Name: C3, Velocity: 43
Note ON: Time 21120, Note Name: F#3, Velocity: 43
Note OFF: Time 21180, Note Name: F#3
Note OFF: Time 21180, Note Name: C3
Note OFF: Time 21180, Note Name: C4
Note ON: Time 21360, Note Name: B3, Velocity: 56
Note ON: Time 21360, Note Name: B2, Velocity: 47
Note ON: Time 21360, Note Name: F#3, Velocity: 47
Note OFF: Time 21420, Note Name: F#3
Note OFF: Time 21420, Note Name: B2
Note OFF: Time 21420, Note Name: B3
Note ON: Time 21600, Note Name: E3, Velocity: 34
Note ON: Time 21600, Note Name: B3, Velocity: 40
Note OFF: Time 21660, Note Name: B3
Note OFF: Time 21660, Note Name: E3
Note ON: Time 21840, Note Name: G3, Velocity: 33
Note ON: Time 21840, Note Name: C3, Velocity: 33
Note ON: Time 21840, Note Name: C4, Velocity: 39
Note OFF: Time 21900, Note Name: C4
Note OFF: Time 21900, Note Name: C3
Note OFF: Time 21900, Note Name: G3
Note ON: Time 22080, Note Name: C4, Velocity: 42
Note ON: Time 22080, Note Name: C3, Velocity: 35
Note ON: Time 22080, Note Name: G3, Velocity: 35
Note OFF: Time 22140, Note Name: G3
Note OFF: Time 22140, Note Name: C3
Note OFF: Time 22140, Note Name: C4
Note ON: Time 22320, Note Name: C3, Velocity: 41
Note ON: Time 22320, Note Name: G3, Velocity: 41
Note ON: Time 22320, Note Name: C4, Velocity: 49
Note OFF: Time 22380, Note Name: C4
Note OFF: Time 22380, Note Name: G3
Note OFF: Time 22380, Note Name: C3
Note ON: Time 22560, Note Name: F#3, Velocity: 39
Note ON: Time 22560, Note Name: C3, Velocity: 39
Note ON: Time 22560, Note Name: C4, Velocity: 48
Note OFF: Time 22620, Note Name: C4
Note OFF: Time 22620, Note Name: C3
Note ON: Time 22800, Note Name: B3, Velocity: 50
Note ON: Time 22800, Note Name: B2, Velocity: 42
Note OFF: Time 22860, Note Name: B2
Note OFF: Time 22860, Note Name: B3
Note OFF: Time 23040, Note Name: F#3
Note ON: Time 23040, Note Name: E3, Velocity: 43
Note ON: Time 23040, Note Name: B3, Velocity: 51
Note OFF: Time 23160, Note Name: B3
Note OFF: Time 23160, Note Name: E3
Note ON: Time 23280, Note Name: B3, Velocity: 49
Note ON: Time 23280, Note Name: B2, Velocity: 41
Note OFF: Time 23460, Note Name: B2
Note OFF: Time 23460, Note Name: B3
Note ON: Time 23520, Note Name: E3, Velocity: 41
Note ON: Time 23520, Note Name: B3, Velocity: 49
Note OFF: Time 23700, Note Name: B3
Note OFF: Time 23700, Note Name: E3
Note ON: Time 23760, Note Name: B2, Velocity: 43
Note ON: Time 23760, Note Name: B3, Velocity: 51
Note OFF: Time 23940, Note Name: B3
Note OFF: Time 23940, Note Name: B2
Note ON: Time 24000, Note Name: E3, Velocity: 45
Note ON: Time 24000, Note Name: B3, Velocity: 54
Note OFF: Time 24180, Note Name: B3
Note OFF: Time 24180, Note Name: E3
Note ON: Time 24240, Note Name: B3, Velocity: 56
Note ON: Time 24240, Note Name: B2, Velocity: 47
Note OFF: Time 24420, Note Name: B2
Note OFF: Time 24420, Note Name: B3
Note ON: Time 24480, Note Name: B2, Velocity: 56
Note ON: Time 24480, Note Name: B1, Velocity: 47
Note OFF: Time 24660, Note Name: B1
Note OFF: Time 24660, Note Name: B2
Note ON: Time 24720, Note Name: B3, Velocity: 47
Note ON: Time 24720, Note Name: D4, Velocity: 57
Note ON: Time 24720, Note Name: F3, Velocity: 47
Note OFF: Time 24900, Note Name: F3
Note OFF: Time 24900, Note Name: D4
Note OFF: Time 24900, Note Name: B3
Note ON: Time 24960, Note Name: D#4, Velocity: 58
Note ON: Time 24960, Note Name: B3, Velocity: 49
Note ON: Time 24960, Note Name: F#3, Velocity: 49
Note OFF: Time 25140, Note Name: F#3
Note OFF: Time 25140, Note Name: B3
Note OFF: Time 25140, Note Name: D#4
Note ON: Time 25200, Note Name: F3, Velocity: 50
Note ON: Time 25200, Note Name: B3, Velocity: 50
Note ON: Time 25200, Note Name: D4, Velocity: 59
Note OFF: Time 25380, Note Name: D4
Note OFF: Time 25380, Note Name: B3
Note OFF: Time 25380, Note Name: F3
Note ON: Time 25440, Note Name: B3, Velocity: 51
Note ON: Time 25440, Note Name: D#4, Velocity: 61
Note ON: Time 25440, Note Name: F#3, Velocity: 51
Note OFF: Time 25620, Note Name: F#3
Note OFF: Time 25620, Note Name: D#4
Note OFF: Time 25620, Note Name: B3
Note ON: Time 25680, Note Name: B2, Velocity: 62
Note ON: Time 25680, Note Name: B1, Velocity: 52
Note OFF: Time 25860, Note Name: B1
Note OFF: Time 25860, Note Name: B2
Note ON: Time 25920, Note Name: A#1, Velocity: 56
Note ON: Time 25920, Note Name: A#2, Velocity: 66
Note OFF: Time 26160, Note Name: A#2
Note OFF: Time 26160, Note Name: A#1
Note ON: Time 26160, Note Name: F#3, Velocity: 49
Note ON: Time 26160, Note Name: A#3, Velocity: 49
Note ON: Time 26160, Note Name: D#4, Velocity: 58
Note OFF: Time 26340, Note Name: D#4
Note OFF: Time 26340, Note Name: A#3
Note OFF: Time 26340, Note Name: F#3
Note ON: Time 26400, Note Name: D#4, Velocity: 44
Note ON: Time 26400, Note Name: F#4, Velocity: 52
Note ON: Time 26400, Note Name: A#3, Velocity: 44
Note OFF: Time 26580, Note Name: A#3
Note OFF: Time 26580, Note Name: F#4
Note OFF: Time 26580, Note Name: D#4
Note ON: Time 26640, Note Name: A#2, Velocity: 56
Note ON: Time 26640, Note Name: A#3, Velocity: 66
Note OFF: Time 26880, Note Name: A#3
Note OFF: Time 26880, Note Name: A#2
Note ON: Time 26880, Note Name: F3, Velocity: 49
Note ON: Time 26880, Note Name: D4, Velocity: 58
Note OFF: Time 27060, Note Name: D4
Note OFF: Time 27060, Note Name: F3
Note ON: Time 27120, Note Name: A#3, Velocity: 44
Note ON: Time 27120, Note Name: G#4, Velocity: 52
Note ON: Time 27120, Note Name: F4, Velocity: 44
Note OFF: Time 27300, Note Name: F4
Note OFF: Time 27300, Note Name: G#4
Note OFF: Time 27300, Note Name: A#3
Note ON: Time 27360, Note Name: D#2, Velocity: 50
Note ON: Time 27360, Note Name: D#3, Velocity: 59
Note OFF: Time 27480, Note Name: D#3
Note OFF: Time 27480, Note Name: D#2
Note ON: Time 27600, Note Name: D#3, Velocity: 44
Note ON: Time 27600, Note Name: A#3, Velocity: 52
Note OFF: Time 27840, Note Name: A#3
Note ON: Time 27840, Note Name: D4, Velocity: 44
Note OFF: Time 28080, Note Name: D4
Note ON: Time 28080, Note Name: D#4, Velocity: 55
Note OFF: Time 28200, Note Name: D#4
Note OFF: Time 28200, Note Name: D#3
Note ON: Time 28320, Note Name: D#2, Velocity: 36
Note ON: Time 28320, Note Name: D#3, Velocity: 42
Note OFF: Time 28500, Note Name: D#3
Note OFF: Time 28500, Note Name: D#2
Note ON: Time 28560, Note Name: D#3, Velocity: 31
Note ON: Time 28560, Note Name: C#4, Velocity: 33
Note OFF: Time 28740, Note Name: C#4
Note OFF: Time 28800, Note Name: D#3
Note ON: Time 28800, Note Name: G#3, Velocity: 41
Note ON: Time 28800, Note Name: G#2, Velocity: 34
Note ON: Time 28800, Note Name: D#3, Velocity: 34
Note OFF: Time 28980, Note Name: D#3
Note OFF: Time 28980, Note Name: G#2
Note OFF: Time 28980, Note Name: G#3
Note ON: Time 29040, Note Name: G#1, Velocity: 30
Note ON: Time 29040, Note Name: G#2, Velocity: 36
Note OFF: Time 29100, Note Name: G#2
Note OFF: Time 29100, Note Name: G#1
Note ON: Time 29280, Note Name: D#2, Velocity: 30
Note ON: Time 29280, Note Name: D#3, Velocity: 36
Note OFF: Time 29340, Note Name: D#3
Note OFF: Time 29340, Note Name: D#2
Note ON: Time 29520, Note Name: G#3, Velocity: 44
Note ON: Time 29520, Note Name: G#2, Velocity: 37
Note ON: Time 29520, Note Name: D#3, Velocity: 37
Note OFF: Time 29700, Note Name: D#3
Note OFF: Time 29700, Note Name: G#2
Note OFF: Time 29700, Note Name: G#3
Note ON: Time 29760, Note Name: G#1, Velocity: 32
Note ON: Time 29760, Note Name: G#2, Velocity: 39
Note OFF: Time 29820, Note Name: G#2
Note OFF: Time 29820, Note Name: G#1
Note ON: Time 30000, Note Name: D#3, Velocity: 40
Note ON: Time 30000, Note Name: D#2, Velocity: 33
Note OFF: Time 30060, Note Name: D#2
Note OFF: Time 30060, Note Name: D#3
Note ON: Time 30240, Note Name: D#3, Velocity: 41
Note ON: Time 30240, Note Name: G#3, Velocity: 41
Note ON: Time 30240, Note Name: B3, Velocity: 49
Note OFF: Time 30420, Note Name: B3
Note OFF: Time 30420, Note Name: G#3
Note OFF: Time 30420, Note Name: D#3
Note ON: Time 30480, Note Name: G#1, Velocity: 36
Note ON: Time 30480, Note Name: G#2, Velocity: 43
Note OFF: Time 30540, Note Name: G#2
Note OFF: Time 30540, Note Name: G#1
Note ON: Time 30720, Note Name: D#3, Velocity: 46
Note ON: Time 30720, Note Name: D#2, Velocity: 38
Note OFF: Time 30780, Note Name: D#2
Note OFF: Time 30780, Note Name: D#3
Note ON: Time 30960, Note Name: D#3, Velocity: 48
Note ON: Time 30960, Note Name: G#3, Velocity: 48
Note ON: Time 30960, Note Name: B3, Velocity: 57
Note OFF: Time 31140, Note Name: B3
Note OFF: Time 31140, Note Name: G#3
Note OFF: Time 31140, Note Name: D#3
Note ON: Time 31200, Note Name: G#1, Velocity: 41
Note ON: Time 31200, Note Name: G#2, Velocity: 50
Note OFF: Time 31260, Note Name: G#2
Note OFF: Time 31260, Note Name: G#1
Note ON: Time 31440, Note Name: D#2, Velocity: 44
Note ON: Time 31440, Note Name: D#3, Velocity: 52
Note OFF: Time 31500, Note Name: D#3
Note OFF: Time 31500, Note Name: D#2
Note ON: Time 31680, Note Name: D#3, Velocity: 47
Note ON: Time 31680, Note Name: A#3, Velocity: 56
Note OFF: Time 31740, Note Name: A#3
Note OFF: Time 31740, Note Name: D#3
Note ON: Time 31920, Note Name: D#3, Velocity: 57
Note ON: Time 31920, Note Name: G2, Velocity: 48
Note OFF: Time 31980, Note Name: G2
Note OFF: Time 31980, Note Name: D#3
Note ON: Time 32160, Note Name: D#3, Velocity: 50
Note ON: Time 32160, Note Name: A#3, Velocity: 59
Note OFF: Time 32220, Note Name: A#3
Note OFF: Time 32220, Note Name: D#3
Note ON: Time 32400, Note Name: D#3, Velocity: 56
Note ON: Time 32400, Note Name: G#2, Velocity: 47
Note OFF: Time 32460, Note Name: G#2
Note OFF: Time 32460, Note Name: D#3
Note ON: Time 32640, Note Name: D#3, Velocity: 48
Note ON: Time 32640, Note Name: B3, Velocity: 57
Note OFF: Time 32700, Note Name: B3
Note OFF: Time 32700, Note Name: D#3
Note ON: Time 32880, Note Name: G#2, Velocity: 50
Note ON: Time 32880, Note Name: D#3, Velocity: 59
Note OFF: Time 32940, Note Name: D#3
Note OFF: Time 32940, Note Name: G#2
Note ON: Time 33120, Note Name: C#3, Velocity: 50
Note ON: Time 33120, Note Name: G#3, Velocity: 60
Note OFF: Time 33180, Note Name: G#3
Note OFF: Time 33180, Note Name: C#3
Note ON: Time 33360, Note Name: C#2, Velocity: 49
Note ON: Time 33360, Note Name: C#3, Velocity: 58
Note OFF: Time 33420, Note Name: C#3
Note OFF: Time 33420, Note Name: C#2
Note ON: Time 33600, Note Name: G#3, Velocity: 56
Note ON: Time 33600, Note Name: C#3, Velocity: 47
Note OFF: Time 33660, Note Name: C#3
Note OFF: Time 33660, Note Name: G#3
Note ON: Time 33840, Note Name: D#3, Velocity: 42
Note ON: Time 33840, Note Name: G3, Velocity: 51
Note OFF: Time 33900, Note Name: G3
Note OFF: Time 33900, Note Name: D#3
Note ON: Time 34080, Note Name: D#3, Velocity: 49
Note ON: Time 34080, Note Name: D#2, Velocity: 41
Note OFF: Time 34140, Note Name: D#2
Note OFF: Time 34140, Note Name: D#3
Note ON: Time 34320, Note Name: D#3, Velocity: 38
Note ON: Time 34320, Note Name: G3, Velocity: 45
Note OFF: Time 34380, Note Name: G3
Note OFF: Time 34380, Note Name: D#3
Note ON: Time 34560, Note Name: G#2, Velocity: 54
Note ON: Time 34560, Note Name: D#3, Velocity: 54
Note ON: Time 34560, Note Name: G#3, Velocity: 63
Note OFF: Time 34740, Note Name: G#3
Note OFF: Time 34740, Note Name: D#3
Note OFF: Time 34740, Note Name: G#2
Note ON: Time 34800, Note Name: G#2, Velocity: 81
Note ON: Time 34800, Note Name: G#1, Velocity: 68
Note OFF: Time 34920, Note Name: G#1
Note OFF: Time 34920, Note Name: G#2
Note ON: Time 35040, Note Name: D#2, Velocity: 40
Note ON: Time 35040, Note Name: D#3, Velocity: 49
Note OFF: Time 35100, Note Name: D#3
Note OFF: Time 35100, Note Name: D#2
Note ON: Time 35280, Note Name: D#3, Velocity: 60
Note ON: Time 35280, Note Name: G#2, Velocity: 60
Note ON: Time 35280, Note Name: G#3, Velocity: 73
Note OFF: Time 35460, Note Name: G#3
Note OFF: Time 35460, Note Name: G#2
Note OFF: Time 35460, Note Name: D#3
Note ON: Time 35520, Note Name: F#1, Velocity: 78
Note ON: Time 35520, Note Name: F#2, Velocity: 95
Note OFF: Time 35640, Note Name: F#2
Note OFF: Time 35640, Note Name: F#1
Note ON: Time 35760, Note Name: F#2, Velocity: 46
Note ON: Time 35760, Note Name: D#3, Velocity: 55
Note OFF: Time 35820, Note Name: D#3
Note OFF: Time 35820, Note Name: F#2
Note ON: Time 36000, Note Name: G#3, Velocity: 85
Note ON: Time 36000, Note Name: E3, Velocity: 71
Note OFF: Time 36180, Note Name: E3
Note OFF: Time 36180, Note Name: G#3
Note ON: Time 36240, Note Name: E1, Velocity: 84
Note ON: Time 36240, Note Name: E2, Velocity: 101
Note OFF: Time 36360, Note Name: E2
Note OFF: Time 36360, Note Name: E1
Note ON: Time 36480, Note Name: G#3, Velocity: 62
Note ON: Time 36480, Note Name: E3, Velocity: 52
Note OFF: Time 36540, Note Name: E3
Note OFF: Time 36540, Note Name: G#3
Note ON: Time 36720, Note Name: D#3, Velocity: 71
Note ON: Time 36720, Note Name: G#3, Velocity: 71
Note ON: Time 36720, Note Name: B3, Velocity: 84
Note OFF: Time 36900, Note Name: B3
Note OFF: Time 36900, Note Name: G#3
Note OFF: Time 36900, Note Name: D#3
Note ON: Time 36960, Note Name: D#1, Velocity: 85
Note ON: Time 36960, Note Name: D#2, Velocity: 103
Note OFF: Time 37080, Note Name: D#2
Note OFF: Time 37080, Note Name: D#1
Note ON: Time 37200, Note Name: B3, Velocity: 68
Note ON: Time 37200, Note Name: G#3, Velocity: 57
Note ON: Time 37200, Note Name: D#3, Velocity: 57
Note OFF: Time 37260, Note Name: D#3
Note OFF: Time 37260, Note Name: G#3
Note OFF: Time 37260, Note Name: B3
Note ON: Time 37440, Note Name: G#3, Velocity: 66
Note ON: Time 37440, Note Name: C#3, Velocity: 66
Note ON: Time 37440, Note Name: B3, Velocity: 80
Note OFF: Time 37560, Note Name: B3
Note OFF: Time 37560, Note Name: C#3
Note OFF: Time 37560, Note Name: G#3
Note ON: Time 38160, Note Name: B3, Velocity: 80
Note ON: Time 38160, Note Name: G#3, Velocity: 66
Note ON: Time 38160, Note Name: D#3, Velocity: 66
Note OFF: Time 38280, Note Name: D#3
Note OFF: Time 38280, Note Name: G#3
Note OFF: Time 38280, Note Name: B3
Note ON: Time 38880, Note Name: C#3, Velocity: 66
Note ON: Time 38880, Note Name: G#3, Velocity: 66
Note ON: Time 38880, Note Name: B3, Velocity: 80
Note OFF: Time 39000, Note Name: B3
Note OFF: Time 39000, Note Name: G#3
Note OFF: Time 39000, Note Name: C#3
Note ON: Time 39600, Note Name: G#3, Velocity: 66
Note ON: Time 39600, Note Name: D#3, Velocity: 66
Note ON: Time 39600, Note Name: B3, Velocity: 80
Note OFF: Time 39720, Note Name: B3
Note OFF: Time 39720, Note Name: D#3
Note OFF: Time 39720, Note Name: G#3
Note ON: Time 40320, Note Name: E3, Velocity: 61
Note ON: Time 40320, Note Name: G#3, Velocity: 72
Note OFF: Time 40440, Note Name: G#3
Note OFF: Time 40440, Note Name: E3
Note ON: Time 43200, Note Name: E4, Velocity: 72
Note OFF: Time 43320, Note Name: E4
Note ON: Time 43320, Note Name: D#4, Velocity: 60
Note OFF: Time 43380, Note Name: D#4
Note ON: Time 43440, Note Name: D#4, Velocity: 62
Note OFF: Time 43560, Note Name: D#4
Note ON: Time 43560, Note Name: C#4, Velocity: 55
Note OFF: Time 43620, Note Name: C#4
Note ON: Time 43680, Note Name: C#4, Velocity: 58
Note OFF: Time 43800, Note Name: C#4
Note ON: Time 43800, Note Name: B3, Velocity: 53
Note OFF: Time 43860, Note Name: B3
Note ON: Time 43920, Note Name: B3, Velocity: 60
Note OFF: Time 44040, Note Name: B3
Note ON: Time 44040, Note Name: A#3, Velocity: 52
Note OFF: Time 44100, Note Name: A#3
Note ON: Time 44160, Note Name: A#3, Velocity: 54
Note OFF: Time 44280, Note Name: A#3
Note ON: Time 44280, Note Name: G#3, Velocity: 47
Note OFF: Time 44340, Note Name: G#3
Note ON: Time 44400, Note Name: G#3, Velocity: 53
Note OFF: Time 44520, Note Name: G#3
Note ON: Time 44520, Note Name: F#3, Velocity: 45
Note OFF: Time 44580, Note Name: F#3
Note ON: Time 44640, Note Name: F#3, Velocity: 52
Note OFF: Time 44760, Note Name: F#3
Note ON: Time 44760, Note Name: E3, Velocity: 44
Note OFF: Time 44820, Note Name: E3
Note ON: Time 44880, Note Name: E3, Velocity: 46
Note OFF: Time 45000, Note Name: E3
Note ON: Time 45000, Note Name: D#3, Velocity: 40
Note OFF: Time 45060, Note Name: D#3
Note ON: Time 45120, Note Name: D#3, Velocity: 44
Note OFF: Time 45240, Note Name: D#3
Note ON: Time 45240, Note Name: C#3, Velocity: 40
Note OFF: Time 45300, Note Name: C#3
Note ON: Time 45360, Note Name: D#3, Velocity: 41
Note ON: Time 45840, Note Name: D#2, Velocity: 41
Note OFF: Time 46080, Note Name: D#2
Note ON: Time 46080, Note Name: G#2, Velocity: 41
Note OFF: Time 46200, Note Name: G#2
Note OFF: Time 46320, Note Name: D#3
Note ON: Time 46320, Note Name: C#2, Velocity: 34
Note ON: Time 46320, Note Name: C#3, Velocity: 40
Note OFF: Time 46380, Note Name: C#3
Note OFF: Time 46380, Note Name: C#2
Note ON: Time 46560, Note Name: D#2, Velocity: 30
Note ON: Time 46560, Note Name: D#3, Velocity: 37
Note OFF: Time 46620, Note Name: D#3
Note OFF: Time 46620, Note Name: D#2
Note ON: Time 46800, Note Name: G#3, Velocity: 37
Note ON: Time 46800, Note Name: G#2, Velocity: 30
Note OFF: Time 46860, Note Name: G#2
Note OFF: Time 46860, Note Name: G#3
Note ON: Time 47040, Note Name: C#2, Velocity: 34
Note ON: Time 47040, Note Name: C#3, Velocity: 40
Note OFF: Time 47100, Note Name: C#3
Note OFF: Time 47100, Note Name: C#2
Note ON: Time 47280, Note Name: D#3, Velocity: 37
Note ON: Time 47280, Note Name: D#2, Velocity: 30
Note OFF: Time 47340, Note Name: D#2
Note OFF: Time 47340, Note Name: D#3
Note ON: Time 47520, Note Name: E2, Velocity: 30
Note ON: Time 47520, Note Name: E3, Velocity: 37
Note OFF: Time 47580, Note Name: E3
Note OFF: Time 47580, Note Name: E2
Note ON: Time 47760, Note Name: B1, Velocity: 34
Note ON: Time 47760, Note Name: B2, Velocity: 40
Note OFF: Time 47820, Note Name: B2
Note OFF: Time 47820, Note Name: B1
Note ON: Time 48000, Note Name: C#2, Velocity: 30
Note ON: Time 48000, Note Name: C#3, Velocity: 37
Note OFF: Time 48060, Note Name: C#3
Note OFF: Time 48060, Note Name: C#2
Note ON: Time 48240, Note Name: D#2, Velocity: 30
Note ON: Time 48240, Note Name: D#3, Velocity: 37
Note OFF: Time 48300, Note Name: D#3
Note OFF: Time 48300, Note Name: D#2
Note ON: Time 48480, Note Name: D#3, Velocity: 40
Note OFF: Time 48540, Note Name: D#3
Note ON: Time 48720, Note Name: D#2, Velocity: 30
Note ON: Time 48720, Note Name: D#3, Velocity: 37
Note OFF: Time 48780, Note Name: D#3
Note OFF: Time 48780, Note Name: D#2
Note ON: Time 48960, Note Name: D#3, Velocity: 37
Note ON: Time 48960, Note Name: G#2, Velocity: 30
Note OFF: Time 49020, Note Name: G#2
Note OFF: Time 49020, Note Name: D#3
Note ON: Time 49200, Note Name: C#2, Velocity: 34
Note ON: Time 49200, Note Name: C#3, Velocity: 40
Note OFF: Time 49260, Note Name: C#3
Note OFF: Time 49260, Note Name: C#2
Note ON: Time 49440, Note Name: D#3, Velocity: 37
Note ON: Time 49440, Note Name: D#2, Velocity: 30
Note OFF: Time 49500, Note Name: D#2
Note OFF: Time 49500, Note Name: D#3
Note ON: Time 49680, Note Name: G#2, Velocity: 30
Note ON: Time 49680, Note Name: G#3, Velocity: 37
Note OFF: Time 49740, Note Name: G#3
Note OFF: Time 49740, Note Name: G#2
Note ON: Time 49920, Note Name: C#2, Velocity: 34
Note ON: Time 49920, Note Name: C#3, Velocity: 40
Note OFF: Time 49980, Note Name: C#3
Note OFF: Time 49980, Note Name: C#2
Note ON: Time 50160, Note Name: D#2, Velocity: 30
Note ON: Time 50160, Note Name: D#3, Velocity: 37
Note OFF: Time 50220, Note Name: D#3
Note OFF: Time 50220, Note Name: D#2
Note ON: Time 50400, Note Name: E2, Velocity: 30
Note ON: Time 50400, Note Name: E3, Velocity: 37
Note OFF: Time 50460, Note Name: E3
Note OFF: Time 50460, Note Name: E2
Note ON: Time 50640, Note Name: A2, Velocity: 40
Note ON: Time 50640, Note Name: A1, Velocity: 34
Note OFF: Time 50700, Note Name: A1
Note OFF: Time 50700, Note Name: A2
Note ON: Time 50880, Note Name: B1, Velocity: 30
Note ON: Time 50880, Note Name: B2, Velocity: 37
Note OFF: Time 50940, Note Name: B2
Note OFF: Time 50940, Note Name: B1
Note ON: Time 51120, Note Name: C#3, Velocity: 37
Note ON: Time 51120, Note Name: C#2, Velocity: 30
Note OFF: Time 51180, Note Name: C#2
Note OFF: Time 51180, Note Name: C#3
Note ON: Time 51360, Note Name: D#2, Velocity: 38
Note ON: Time 51360, Note Name: D#3, Velocity: 40
Note OFF: Time 51420, Note Name: D#3
Note OFF: Time 51420, Note Name: D#2
Note ON: Time 51600, Note Name: D#1, Velocity: 30
Note ON: Time 51600, Note Name: D#2, Velocity: 37
Note OFF: Time 51660, Note Name: D#2
Note OFF: Time 51660, Note Name: D#1
Note ON: Time 51840, Note Name: G#1, Velocity: 30
Note ON: Time 51840, Note Name: G#2, Velocity: 37
Note OFF: Time 51900, Note Name: G#2
Note OFF: Time 51900, Note Name: G#1
Note ON: Time 52560, Note Name: D#2, Velocity: 63
Note ON: Time 52560, Note Name: D#3, Velocity: 63
Note ON: Time 52800, Note Name: B3, Velocity: 59
Note ON: Time 52800, Note Name: G#3, Velocity: 59
Note OFF: Time 52920, Note Name: G#3
Note OFF: Time 52920, Note Name: B3
Note ON: Time 52920, Note Name: G3, Velocity: 55
Note ON: Time 52920, Note Name: A#3, Velocity: 55
Note OFF: Time 53010, Note Name: A#3
Note OFF: Time 53010, Note Name: G3
Note ON: Time 53040, Note Name: G3, Velocity: 55
Note ON: Time 53040, Note Name: A#3, Velocity: 55
Note OFF: Time 53160, Note Name: A#3
Note OFF: Time 53160, Note Name: G3
Note ON: Time 53160, Note Name: A#3, Velocity: 55
Note ON: Time 53160, Note Name: C#4, Velocity: 55
Note OFF: Time 53280, Note Name: C#4
Note OFF: Time 53280, Note Name: A#3
Note OFF: Time 53280, Note Name: D#2
Note ON: Time 53280, Note Name: G#2, Velocity: 63
Note ON: Time 53280, Note Name: B3, Velocity: 63
Note ON: Time 53280, Note Name: G#3, Velocity: 63
Note OFF: Time 53520, Note Name: G#3
Note OFF: Time 53520, Note Name: D#3
Note OFF: Time 53520, Note Name: G#2
Note OFF: Time 53520, Note Name: B3
Note ON: Time 54000, Note Name: D#2, Velocity: 63
Note ON: Time 54000, Note Name: D#3, Velocity: 63
Note ON: Time 54240, Note Name: G#3, Velocity: 59
Note ON: Time 54240, Note Name: B3, Velocity: 59
Note OFF: Time 54360, Note Name: B3
Note OFF: Time 54360, Note Name: G#3
Note ON: Time 54360, Note Name: G3, Velocity: 55
Note ON: Time 54360, Note Name: A#3, Velocity: 55
Note OFF: Time 54450, Note Name: A#3
Note OFF: Time 54450, Note Name: G3
Note ON: Time 54480, Note Name: G3, Velocity: 55
Note ON: Time 54480, Note Name: A#3, Velocity: 55
Note OFF: Time 54600, Note Name: A#3
Note OFF: Time 54600, Note Name: G3
Note ON: Time 54600, Note Name: C#4, Velocity: 55
Note ON: Time 54600, Note Name: A#3, Velocity: 55
Note OFF: Time 54720, Note Name: A#3
Note OFF: Time 54720, Note Name: C#4
Note OFF: Time 54720, Note Name: D#2
Note ON: Time 54720, Note Name: G#2, Velocity: 63
Note ON: Time 54720, Note Name: B3, Velocity: 63
Note ON: Time 54720, Note Name: G#3, Velocity: 63
Note OFF: Time 54960, Note Name: G#3
Note OFF: Time 54960, Note Name: D#3
Note OFF: Time 54960, Note Name: G#2
Note OFF: Time 54960, Note Name: B3
Note ON: Time 55440, Note Name: D#2, Velocity: 56
Note ON: Time 55440, Note Name: D#3, Velocity: 56
Note ON: Time 55680, Note Name: B3, Velocity: 53
Note ON: Time 55680, Note Name: G#3, Velocity: 53
Note OFF: Time 55800, Note Name: G#3
Note OFF: Time 55800, Note Name: B3
Note ON: Time 55800, Note Name: G3, Velocity: 49
Note ON: Time 55800, Note Name: A#3, Velocity: 49
Note OFF: Time 55890, Note Name: A#3
Note OFF: Time 55890, Note Name: G3
Note ON: Time 55920, Note Name: G3, Velocity: 49
Note ON: Time 55920, Note Name: A#3, Velocity: 49
Note OFF: Time 56040, Note Name: A#3
Note OFF: Time 56040, Note Name: G3
Note ON: Time 56040, Note Name: A#3, Velocity: 49
Note ON: Time 56040, Note Name: C#4, Velocity: 49
Note OFF: Time 56160, Note Name: C#4
Note OFF: Time 56160, Note Name: A#3
Note OFF: Time 56160, Note Name: D#2
Note ON: Time 56160, Note Name: G#2, Velocity: 56
Note ON: Time 56160, Note Name: B3, Velocity: 56
Note ON: Time 56160, Note Name: G#3, Velocity: 56
Note OFF: Time 56400, Note Name: G#3
Note OFF: Time 56400, Note Name: D#3
Note OFF: Time 56400, Note Name: G#2
Note OFF: Time 56400, Note Name: B3
Note ON: Time 57360, Note Name: D#1, Velocity: 81
Note ON: Time 57360, Note Name: D#2, Velocity: 90
Note ON: Time 57360, Note Name: D#3, Velocity: 99
Note OFF: Time 57480, Note Name: D#3
Note OFF: Time 57480, Note Name: D#2
Note OFF: Time 57480, Note Name: D#1
Note ON: Time 57600, Note Name: G#2, Velocity: 101
Note ON: Time 57600, Note Name: G#1, Velocity: 90
Note ON: Time 57600, Note Name: G#3, Velocity: 110
Note OFF: Time 57720, Note Name: G#3
Note OFF: Time 57720, Note Name: G#1
Note OFF: Time 57720, Note Name: G#2
Track 3: Chopin: Prelude No.12 in G# Minor, Op. 28
Track 4: Copyright  2002 by Bernd Krueger
Track 5: http://www.piano-midi.de
Track 6: Edition: 2014-02-20
Track 7: Spur 7
Track 8: Spur 8
