Processing chpn_op7_1.mid...

Track 0: Chopin Mazurka Opus 7 No. 1
Track 1: Piano right
Note ON: Time 0, Note Name: F4, Velocity: 70
Note OFF: Time 240, Note Name: F4
Note ON: Time 360, Note Name: F4, Velocity: 66
Note OFF: Time 480, Note Name: F4
Note ON: Time 480, Note Name: G4, Velocity: 70
Note OFF: Time 960, Note Name: G4
Note ON: Time 960, Note Name: A4, Velocity: 70
Note OFF: Time 1440, Note Name: A4
Note ON: Time 1440, Note Name: A#4, Velocity: 71
Note OFF: Time 1680, Note Name: A#4
Note ON: Time 1800, Note Name: C5, Velocity: 66
Note OFF: Time 1920, Note Name: C5
Note ON: Time 1920, Note Name: D5, Velocity: 70
Note OFF: Time 2400, Note Name: D5
Note ON: Time 2400, Note Name: D#5, Velocity: 75
Note OFF: Time 2640, Note Name: D#5
Note ON: Time 2640, Note Name: F5, Velocity: 79
Note OFF: Time 2880, Note Name: F5
Note ON: Time 2880, Note Name: G5, Velocity: 83
Note OFF: Time 3000, Note Name: G5
Note ON: Time 3240, Note Name: A5, Velocity: 75
Note OFF: Time 3360, Note Name: A5
Note ON: Time 3360, Note Name: A#5, Velocity: 76
Note OFF: Time 3420, Note Name: A#5
Note ON: Time 3420, Note Name: C6, Velocity: 67
Note OFF: Time 3480, Note Name: C6
Note ON: Time 3480, Note Name: A#5, Velocity: 73
Note OFF: Time 3540, Note Name: A#5
Note ON: Time 3540, Note Name: C6, Velocity: 66
Note OFF: Time 3600, Note Name: C6
Note ON: Time 3600, Note Name: A#5, Velocity: 70
Note OFF: Time 3660, Note Name: A#5
Note ON: Time 3660, Note Name: C6, Velocity: 64
Note OFF: Time 3720, Note Name: C6
Note ON: Time 3720, Note Name: A#5, Velocity: 70
Note OFF: Time 3780, Note Name: A#5
Note ON: Time 3780, Note Name: C6, Velocity: 64
Note OFF: Time 3840, Note Name: C6
Note ON: Time 3840, Note Name: A5, Velocity: 70
Note OFF: Time 4080, Note Name: A5
Note ON: Time 4080, Note Name: G5, Velocity: 56
Note OFF: Time 4260, Note Name: G5
Note ON: Time 4260, Note Name: F5, Velocity: 46
Note OFF: Time 4320, Note Name: F5
Note ON: Time 4320, Note Name: A#5, Velocity: 53
Note OFF: Time 4440, Note Name: A#5
Note ON: Time 4680, Note Name: A#5, Velocity: 49
Note OFF: Time 4800, Note Name: A#5
Note ON: Time 4800, Note Name: D5, Velocity: 44
Note OFF: Time 5700, Note Name: D5
Note ON: Time 5700, Note Name: D#5, Velocity: 45
Note OFF: Time 5760, Note Name: D#5
Note ON: Time 5760, Note Name: G5, Velocity: 51
Note OFF: Time 5880, Note Name: G5
Note ON: Time 6120, Note Name: G5, Velocity: 46
Note OFF: Time 6240, Note Name: G5
Note ON: Time 6240, Note Name: A4, Velocity: 44
Note OFF: Time 7140, Note Name: A4
Note ON: Time 7140, Note Name: A#4, Velocity: 45
Note OFF: Time 7200, Note Name: A#4
Note ON: Time 7200, Note Name: D5, Velocity: 49
Note OFF: Time 7320, Note Name: D5
Note ON: Time 7560, Note Name: D5, Velocity: 47
Note OFF: Time 7680, Note Name: D5
Note ON: Time 7680, Note Name: E4, Velocity: 44
Note OFF: Time 8640, Note Name: E4
Note ON: Time 8640, Note Name: F4, Velocity: 55
Note OFF: Time 8760, Note Name: F4
Note ON: Time 9000, Note Name: A4, Velocity: 58
Note OFF: Time 9120, Note Name: A4
Note ON: Time 9120, Note Name: C5, Velocity: 59
Note OFF: Time 9360, Note Name: C5
Note ON: Time 9360, Note Name: D#5, Velocity: 60
Note OFF: Time 9600, Note Name: D#5
Note ON: Time 9600, Note Name: G5, Velocity: 67
Note OFF: Time 9960, Note Name: G5
Note ON: Time 9960, Note Name: F5, Velocity: 63
Note OFF: Time 10018, Note Name: F5
Note ON: Time 10020, Note Name: F5, Velocity: 55
Note OFF: Time 10080, Note Name: F5
Note ON: Time 10080, Note Name: D6, Velocity: 75
Note OFF: Time 10200, Note Name: D6
Note ON: Time 10440, Note Name: C6, Velocity: 64
Note OFF: Time 10560, Note Name: C6
Note ON: Time 10560, Note Name: A#5, Velocity: 55
Note OFF: Time 10620, Note Name: A#5
Note ON: Time 10620, Note Name: C6, Velocity: 54
Note OFF: Time 10680, Note Name: C6
Note ON: Time 10680, Note Name: A#5, Velocity: 60
Note OFF: Time 10800, Note Name: A#5
Note ON: Time 10800, Note Name: G5, Velocity: 58
Note OFF: Time 11040, Note Name: G5
Note ON: Time 11040, Note Name: F5, Velocity: 55
Note ON: Time 11460, Note Name: G5, Velocity: 45
Note OFF: Time 11520, Note Name: G5
Note OFF: Time 11520, Note Name: F5
Note ON: Time 11520, Note Name: A#5, Velocity: 51
Note OFF: Time 11640, Note Name: A#5
Note ON: Time 11880, Note Name: A#5, Velocity: 46
Note OFF: Time 12000, Note Name: A#5
Note ON: Time 12000, Note Name: A4, Velocity: 44
Note OFF: Time 12840, Note Name: A4
Note ON: Time 12840, Note Name: A#4, Velocity: 42
Note OFF: Time 12900, Note Name: A#4
Note ON: Time 12900, Note Name: D5, Velocity: 41
Note OFF: Time 12960, Note Name: D5
Note ON: Time 12960, Note Name: F5, Velocity: 49
Note OFF: Time 13080, Note Name: F5
Note ON: Time 13320, Note Name: F5, Velocity: 47
Note OFF: Time 13440, Note Name: F5
Note ON: Time 13440, Note Name: E4, Velocity: 44
Note OFF: Time 14400, Note Name: E4
Note ON: Time 14400, Note Name: F4, Velocity: 55
Note OFF: Time 14520, Note Name: F4
Note ON: Time 14760, Note Name: A4, Velocity: 58
Note OFF: Time 14880, Note Name: A4
Note ON: Time 14880, Note Name: C5, Velocity: 59
Note OFF: Time 15120, Note Name: C5
Note ON: Time 15120, Note Name: D#5, Velocity: 60
Note OFF: Time 15360, Note Name: D#5
Note ON: Time 15360, Note Name: D5, Velocity: 56
Note OFF: Time 15420, Note Name: D5
Note ON: Time 15420, Note Name: D#5, Velocity: 56
Note OFF: Time 15480, Note Name: D#5
Note ON: Time 15480, Note Name: D5, Velocity: 61
Note OFF: Time 15600, Note Name: D5
Note ON: Time 15600, Note Name: C5, Velocity: 56
Note OFF: Time 15840, Note Name: C5
Note ON: Time 15840, Note Name: D5, Velocity: 64
Note OFF: Time 15960, Note Name: D5
Note ON: Time 16200, Note Name: F4, Velocity: 57
Note OFF: Time 16320, Note Name: F4
Note ON: Time 16320, Note Name: A#4, Velocity: 59
Note OFF: Time 16800, Note Name: A#4
Note ON: Time 16800, Note Name: A4, Velocity: 64
Note OFF: Time 17040, Note Name: A4
Note ON: Time 17040, Note Name: G4, Velocity: 61
Note OFF: Time 17280, Note Name: G4
Note ON: Time 17280, Note Name: F4, Velocity: 70
Note OFF: Time 17520, Note Name: F4
Note ON: Time 17640, Note Name: F4, Velocity: 66
Note OFF: Time 17760, Note Name: F4
Note ON: Time 17760, Note Name: G4, Velocity: 70
Note OFF: Time 18240, Note Name: G4
Note ON: Time 18240, Note Name: A4, Velocity: 70
Note OFF: Time 18720, Note Name: A4
Note ON: Time 18720, Note Name: A#4, Velocity: 71
Note OFF: Time 18960, Note Name: A#4
Note ON: Time 19080, Note Name: C5, Velocity: 66
Note OFF: Time 19200, Note Name: C5
Note ON: Time 19200, Note Name: D5, Velocity: 70
Note OFF: Time 19680, Note Name: D5
Note ON: Time 19680, Note Name: D#5, Velocity: 75
Note OFF: Time 19920, Note Name: D#5
Note ON: Time 19920, Note Name: F5, Velocity: 79
Note OFF: Time 20160, Note Name: F5
Note ON: Time 20160, Note Name: G5, Velocity: 83
Note OFF: Time 20280, Note Name: G5
Note ON: Time 20520, Note Name: A5, Velocity: 75
Note OFF: Time 20640, Note Name: A5
Note ON: Time 20640, Note Name: A#5, Velocity: 76
Note OFF: Time 20700, Note Name: A#5
Note ON: Time 20700, Note Name: C6, Velocity: 67
Note OFF: Time 20760, Note Name: C6
Note ON: Time 20760, Note Name: A#5, Velocity: 73
Note OFF: Time 20820, Note Name: A#5
Note ON: Time 20820, Note Name: C6, Velocity: 66
Note OFF: Time 20880, Note Name: C6
Note ON: Time 20880, Note Name: A#5, Velocity: 70
Note OFF: Time 20940, Note Name: A#5
Note ON: Time 20940, Note Name: C6, Velocity: 64
Note OFF: Time 21000, Note Name: C6
Note ON: Time 21000, Note Name: A#5, Velocity: 70
Note OFF: Time 21060, Note Name: A#5
Note ON: Time 21060, Note Name: C6, Velocity: 64
Note OFF: Time 21120, Note Name: C6
Note ON: Time 21120, Note Name: A5, Velocity: 70
Note OFF: Time 21360, Note Name: A5
Note ON: Time 21360, Note Name: G5, Velocity: 56
Note OFF: Time 21540, Note Name: G5
Note ON: Time 21540, Note Name: F5, Velocity: 46
Note OFF: Time 21600, Note Name: F5
Note ON: Time 21600, Note Name: A#5, Velocity: 53
Note OFF: Time 21720, Note Name: A#5
Note ON: Time 21960, Note Name: A#5, Velocity: 49
Note OFF: Time 22080, Note Name: A#5
Note ON: Time 22080, Note Name: D5, Velocity: 44
Note OFF: Time 22980, Note Name: D5
Note ON: Time 22980, Note Name: D#5, Velocity: 45
Note OFF: Time 23040, Note Name: D#5
Note ON: Time 23040, Note Name: G5, Velocity: 51
Note OFF: Time 23160, Note Name: G5
Note ON: Time 23400, Note Name: G5, Velocity: 46
Note OFF: Time 23520, Note Name: G5
Note ON: Time 23520, Note Name: A4, Velocity: 44
Note OFF: Time 24420, Note Name: A4
Note ON: Time 24420, Note Name: A#4, Velocity: 45
Note OFF: Time 24480, Note Name: A#4
Note ON: Time 24480, Note Name: D5, Velocity: 49
Note OFF: Time 24600, Note Name: D5
Note ON: Time 24840, Note Name: D5, Velocity: 47
Note OFF: Time 24960, Note Name: D5
Note ON: Time 24960, Note Name: E4, Velocity: 44
Note OFF: Time 25920, Note Name: E4
Note ON: Time 25920, Note Name: F4, Velocity: 55
Note OFF: Time 26040, Note Name: F4
Note ON: Time 26280, Note Name: A4, Velocity: 58
Note OFF: Time 26400, Note Name: A4
Note ON: Time 26400, Note Name: C5, Velocity: 59
Note OFF: Time 26640, Note Name: C5
Note ON: Time 26640, Note Name: D#5, Velocity: 60
Note OFF: Time 26880, Note Name: D#5
Note ON: Time 26880, Note Name: G5, Velocity: 67
Note OFF: Time 27240, Note Name: G5
Note ON: Time 27240, Note Name: F5, Velocity: 63
Note OFF: Time 27297, Note Name: F5
Note ON: Time 27300, Note Name: F5, Velocity: 49
Note OFF: Time 27360, Note Name: F5
Note ON: Time 27360, Note Name: D6, Velocity: 67
Note OFF: Time 27480, Note Name: D6
Note ON: Time 27720, Note Name: C6, Velocity: 61
Note OFF: Time 27840, Note Name: C6
Note ON: Time 27840, Note Name: A#5, Velocity: 50
Note OFF: Time 27900, Note Name: A#5
Note ON: Time 27900, Note Name: C6, Velocity: 49
Note OFF: Time 27960, Note Name: C6
Note ON: Time 27960, Note Name: A#5, Velocity: 57
Note OFF: Time 28080, Note Name: A#5
Note ON: Time 28080, Note Name: G5, Velocity: 52
Note OFF: Time 28320, Note Name: G5
Note ON: Time 28320, Note Name: F5, Velocity: 49
Note ON: Time 28740, Note Name: G5, Velocity: 45
Note OFF: Time 28800, Note Name: G5
Note OFF: Time 28800, Note Name: F5
Note ON: Time 28800, Note Name: A#5, Velocity: 51
Note OFF: Time 28920, Note Name: A#5
Note ON: Time 29160, Note Name: A#5, Velocity: 46
Note OFF: Time 29280, Note Name: A#5
Note ON: Time 29280, Note Name: A4, Velocity: 44
Note OFF: Time 30120, Note Name: A4
Note ON: Time 30120, Note Name: A#4, Velocity: 42
Note OFF: Time 30180, Note Name: A#4
Note ON: Time 30180, Note Name: D5, Velocity: 41
Note OFF: Time 30240, Note Name: D5
Note ON: Time 30240, Note Name: F5, Velocity: 49
Note OFF: Time 30360, Note Name: F5
Note ON: Time 30600, Note Name: F5, Velocity: 47
Note OFF: Time 30720, Note Name: F5
Note ON: Time 30720, Note Name: E4, Velocity: 44
Note OFF: Time 31680, Note Name: E4
Note ON: Time 31680, Note Name: F4, Velocity: 55
Note OFF: Time 31800, Note Name: F4
Note ON: Time 32040, Note Name: A4, Velocity: 58
Note OFF: Time 32160, Note Name: A4
Note ON: Time 32160, Note Name: C5, Velocity: 59
Note OFF: Time 32400, Note Name: C5
Note ON: Time 32400, Note Name: D#5, Velocity: 60
Note OFF: Time 32640, Note Name: D#5
Note ON: Time 32640, Note Name: D5, Velocity: 56
Note OFF: Time 32700, Note Name: D5
Note ON: Time 32700, Note Name: D#5, Velocity: 56
Note OFF: Time 32760, Note Name: D#5
Note ON: Time 32760, Note Name: D5, Velocity: 61
Note OFF: Time 32880, Note Name: D5
Note ON: Time 32880, Note Name: C5, Velocity: 56
Note OFF: Time 33120, Note Name: C5
Note ON: Time 33120, Note Name: D5, Velocity: 64
Note OFF: Time 33240, Note Name: D5
Note ON: Time 33480, Note Name: F4, Velocity: 57
Note OFF: Time 33600, Note Name: F4
Note ON: Time 33600, Note Name: A#4, Velocity: 59
Note OFF: Time 34080, Note Name: A#4
Note ON: Time 34080, Note Name: A4, Velocity: 44
Note OFF: Time 34320, Note Name: A4
Note ON: Time 34320, Note Name: A#4, Velocity: 44
Note OFF: Time 34560, Note Name: A#4
Note ON: Time 34560, Note Name: C5, Velocity: 46
Note OFF: Time 34920, Note Name: C5
Note ON: Time 34920, Note Name: D5, Velocity: 42
Note OFF: Time 35040, Note Name: D5
Note ON: Time 35040, Note Name: C5, Velocity: 46
Note OFF: Time 35520, Note Name: C5
Note ON: Time 35520, Note Name: E5, Velocity: 49
Note OFF: Time 35760, Note Name: E5
Note ON: Time 35760, Note Name: F5, Velocity: 51
Note OFF: Time 36000, Note Name: F5
Note ON: Time 36000, Note Name: G5, Velocity: 55
Note OFF: Time 36360, Note Name: G5
Note ON: Time 36360, Note Name: A5, Velocity: 52
Note OFF: Time 36480, Note Name: A5
Note ON: Time 36480, Note Name: G5, Velocity: 56
Note OFF: Time 36960, Note Name: G5
Note ON: Time 36960, Note Name: F5, Velocity: 52
Note OFF: Time 37200, Note Name: F5
Note ON: Time 37200, Note Name: D5, Velocity: 49
Note OFF: Time 37440, Note Name: D5
Note ON: Time 37440, Note Name: C5, Velocity: 56
Note OFF: Time 37680, Note Name: C5
Note ON: Time 37680, Note Name: D5, Velocity: 51
Note OFF: Time 37920, Note Name: D5
Note ON: Time 37920, Note Name: C5, Velocity: 56
Note OFF: Time 38400, Note Name: C5
Note ON: Time 38400, Note Name: E5, Velocity: 50
Note OFF: Time 38640, Note Name: E5
Note ON: Time 38760, Note Name: F5, Velocity: 55
Note OFF: Time 38880, Note Name: F5
Note ON: Time 38880, Note Name: G5, Velocity: 59
Note OFF: Time 39040, Note Name: G5
Note ON: Time 39040, Note Name: A5, Velocity: 56
Note OFF: Time 39200, Note Name: A5
Note ON: Time 39200, Note Name: G5, Velocity: 56
Note OFF: Time 39360, Note Name: G5
Note ON: Time 39360, Note Name: F5, Velocity: 53
Note OFF: Time 40080, Note Name: F5
Note ON: Time 40080, Note Name: D5, Velocity: 50
Note OFF: Time 40320, Note Name: D5
Note ON: Time 40320, Note Name: C5, Velocity: 51
Note OFF: Time 40560, Note Name: C5
Note ON: Time 40560, Note Name: D5, Velocity: 49
Note OFF: Time 40800, Note Name: D5
Note ON: Time 40800, Note Name: C5, Velocity: 51
Note OFF: Time 41280, Note Name: C5
Note ON: Time 41280, Note Name: E5, Velocity: 49
Note OFF: Time 41520, Note Name: E5
Note ON: Time 41520, Note Name: F5, Velocity: 51
Note OFF: Time 41760, Note Name: F5
Note ON: Time 41760, Note Name: G5, Velocity: 55
Note OFF: Time 42000, Note Name: G5
Note ON: Time 42000, Note Name: A5, Velocity: 52
Note OFF: Time 42240, Note Name: A5
Note ON: Time 42240, Note Name: G5, Velocity: 50
Note OFF: Time 42300, Note Name: G5
Note ON: Time 42300, Note Name: A5, Velocity: 47
Note OFF: Time 42360, Note Name: A5
Note ON: Time 42360, Note Name: G5, Velocity: 52
Note OFF: Time 42420, Note Name: G5
Note ON: Time 42420, Note Name: A5, Velocity: 49
Note OFF: Time 42480, Note Name: A5
Note ON: Time 42480, Note Name: G5, Velocity: 56
Note OFF: Time 42540, Note Name: G5
Note ON: Time 42540, Note Name: A5, Velocity: 49
Note OFF: Time 42600, Note Name: A5
Note ON: Time 42600, Note Name: G5, Velocity: 51
Note OFF: Time 42660, Note Name: G5
Note ON: Time 42660, Note Name: A5, Velocity: 49
Note OFF: Time 42720, Note Name: A5
Note ON: Time 42720, Note Name: F5, Velocity: 52
Note OFF: Time 42960, Note Name: F5
Note ON: Time 42960, Note Name: D5, Velocity: 49
Note OFF: Time 43200, Note Name: D5
Note ON: Time 43200, Note Name: C5, Velocity: 56
Note OFF: Time 43440, Note Name: C5
Note ON: Time 43440, Note Name: D5, Velocity: 51
Note OFF: Time 43680, Note Name: D5
Note ON: Time 43680, Note Name: C5, Velocity: 56
Note OFF: Time 44160, Note Name: C5
Note ON: Time 44160, Note Name: E5, Velocity: 55
Note OFF: Time 44400, Note Name: E5
Note ON: Time 44400, Note Name: F5, Velocity: 59
Note OFF: Time 44640, Note Name: F5
Note ON: Time 44640, Note Name: G5, Velocity: 64
Note OFF: Time 44800, Note Name: G5
Note ON: Time 44800, Note Name: A5, Velocity: 61
Note OFF: Time 44960, Note Name: A5
Note ON: Time 44960, Note Name: G5, Velocity: 61
Note OFF: Time 45120, Note Name: G5
Note ON: Time 45120, Note Name: F5, Velocity: 66
Note OFF: Time 45480, Note Name: F5
Note ON: Time 45480, Note Name: G4, Velocity: 62
Note OFF: Time 45600, Note Name: G4
Note ON: Time 45600, Note Name: F5, Velocity: 68
Note OFF: Time 45760, Note Name: F5
Note ON: Time 45760, Note Name: F#4, Velocity: 62
Note OFF: Time 45920, Note Name: F#4
Note ON: Time 45920, Note Name: F5, Velocity: 69
Note OFF: Time 46017, Note Name: F5
Note ON: Time 46020, Note Name: F5, Velocity: 66
Note OFF: Time 46080, Note Name: F5
Note ON: Time 46080, Note Name: F4, Velocity: 70
Note OFF: Time 46320, Note Name: F4
Note ON: Time 46440, Note Name: F4, Velocity: 66
Note OFF: Time 46560, Note Name: F4
Note ON: Time 46560, Note Name: G4, Velocity: 70
Note OFF: Time 47040, Note Name: G4
Note ON: Time 47040, Note Name: A4, Velocity: 70
Note OFF: Time 47520, Note Name: A4
Note ON: Time 47520, Note Name: A#4, Velocity: 71
Note OFF: Time 47760, Note Name: A#4
Note ON: Time 47880, Note Name: C5, Velocity: 66
Note OFF: Time 48000, Note Name: C5
Note ON: Time 48000, Note Name: D5, Velocity: 70
Note OFF: Time 48480, Note Name: D5
Note ON: Time 48480, Note Name: D#5, Velocity: 75
Note OFF: Time 48720, Note Name: D#5
Note ON: Time 48720, Note Name: F5, Velocity: 79
Note OFF: Time 48960, Note Name: F5
Note ON: Time 48960, Note Name: G5, Velocity: 83
Note OFF: Time 49080, Note Name: G5
Note ON: Time 49320, Note Name: A5, Velocity: 75
Note OFF: Time 49440, Note Name: A5
Note ON: Time 49440, Note Name: A#5, Velocity: 76
Note OFF: Time 49500, Note Name: A#5
Note ON: Time 49500, Note Name: C6, Velocity: 67
Note OFF: Time 49560, Note Name: C6
Note ON: Time 49560, Note Name: A#5, Velocity: 73
Note OFF: Time 49620, Note Name: A#5
Note ON: Time 49620, Note Name: C6, Velocity: 66
Note OFF: Time 49680, Note Name: C6
Note ON: Time 49680, Note Name: A#5, Velocity: 70
Note OFF: Time 49740, Note Name: A#5
Note ON: Time 49740, Note Name: C6, Velocity: 64
Note OFF: Time 49800, Note Name: C6
Note ON: Time 49800, Note Name: A#5, Velocity: 70
Note OFF: Time 49860, Note Name: A#5
Note ON: Time 49860, Note Name: C6, Velocity: 64
Note OFF: Time 49920, Note Name: C6
Note ON: Time 49920, Note Name: A5, Velocity: 70
Note OFF: Time 50160, Note Name: A5
Note ON: Time 50160, Note Name: G5, Velocity: 56
Note OFF: Time 50340, Note Name: G5
Note ON: Time 50340, Note Name: F5, Velocity: 51
Note OFF: Time 50400, Note Name: F5
Note ON: Time 50400, Note Name: A#5, Velocity: 60
Note OFF: Time 50520, Note Name: A#5
Note ON: Time 50760, Note Name: A#5, Velocity: 55
Note OFF: Time 50880, Note Name: A#5
Note ON: Time 50880, Note Name: D5, Velocity: 49
Note OFF: Time 51780, Note Name: D5
Note ON: Time 51780, Note Name: D#5, Velocity: 50
Note OFF: Time 51840, Note Name: D#5
Note ON: Time 51840, Note Name: G5, Velocity: 58
Note OFF: Time 51960, Note Name: G5
Note ON: Time 52200, Note Name: G5, Velocity: 51
Note OFF: Time 52320, Note Name: G5
Note ON: Time 52320, Note Name: A4, Velocity: 49
Note OFF: Time 53220, Note Name: A4
Note ON: Time 53220, Note Name: A#4, Velocity: 50
Note OFF: Time 53280, Note Name: A#4
Note ON: Time 53280, Note Name: D5, Velocity: 56
Note OFF: Time 53400, Note Name: D5
Note ON: Time 53640, Note Name: D5, Velocity: 52
Note OFF: Time 53760, Note Name: D5
Note ON: Time 53760, Note Name: E4, Velocity: 49
Note OFF: Time 54720, Note Name: E4
Note ON: Time 54720, Note Name: F4, Velocity: 55
Note OFF: Time 54840, Note Name: F4
Note ON: Time 55080, Note Name: A4, Velocity: 58
Note OFF: Time 55200, Note Name: A4
Note ON: Time 55200, Note Name: C5, Velocity: 59
Note OFF: Time 55440, Note Name: C5
Note ON: Time 55440, Note Name: D#5, Velocity: 60
Note OFF: Time 55680, Note Name: D#5
Note ON: Time 55680, Note Name: G5, Velocity: 67
Note OFF: Time 56040, Note Name: G5
Note ON: Time 56040, Note Name: F5, Velocity: 63
Note OFF: Time 56097, Note Name: F5
Note ON: Time 56100, Note Name: F5, Velocity: 55
Note OFF: Time 56160, Note Name: F5
Note ON: Time 56160, Note Name: D6, Velocity: 75
Note OFF: Time 56280, Note Name: D6
Note ON: Time 56520, Note Name: C6, Velocity: 68
Note OFF: Time 56640, Note Name: C6
Note ON: Time 56640, Note Name: A#5, Velocity: 56
Note OFF: Time 56700, Note Name: A#5
Note ON: Time 56700, Note Name: C6, Velocity: 55
Note OFF: Time 56760, Note Name: C6
Note ON: Time 56760, Note Name: A#5, Velocity: 64
Note OFF: Time 56880, Note Name: A#5
Note ON: Time 56880, Note Name: G5, Velocity: 58
Note OFF: Time 57120, Note Name: G5
Note ON: Time 57120, Note Name: F5, Velocity: 55
Note ON: Time 57540, Note Name: G5, Velocity: 45
Note OFF: Time 57600, Note Name: G5
Note OFF: Time 57600, Note Name: F5
Note ON: Time 57600, Note Name: A#5, Velocity: 51
Note OFF: Time 57720, Note Name: A#5
Note ON: Time 57960, Note Name: A#5, Velocity: 46
Note OFF: Time 58080, Note Name: A#5
Note ON: Time 58080, Note Name: A4, Velocity: 44
Note OFF: Time 58920, Note Name: A4
Note ON: Time 58920, Note Name: A#4, Velocity: 42
Note OFF: Time 58980, Note Name: A#4
Note ON: Time 58980, Note Name: D5, Velocity: 41
Note OFF: Time 59040, Note Name: D5
Note ON: Time 59040, Note Name: F5, Velocity: 49
Note OFF: Time 59160, Note Name: F5
Note ON: Time 59400, Note Name: F5, Velocity: 47
Note OFF: Time 59520, Note Name: F5
Note ON: Time 59520, Note Name: E4, Velocity: 44
Note OFF: Time 60480, Note Name: E4
Note ON: Time 60480, Note Name: F4, Velocity: 55
Note OFF: Time 60600, Note Name: F4
Note ON: Time 60840, Note Name: A4, Velocity: 58
Note OFF: Time 60960, Note Name: A4
Note ON: Time 60960, Note Name: C5, Velocity: 59
Note OFF: Time 61200, Note Name: C5
Note ON: Time 61200, Note Name: D#5, Velocity: 60
Note OFF: Time 61440, Note Name: D#5
Note ON: Time 61440, Note Name: D5, Velocity: 56
Note OFF: Time 61500, Note Name: D5
Note ON: Time 61500, Note Name: D#5, Velocity: 56
Note OFF: Time 61560, Note Name: D#5
Note ON: Time 61560, Note Name: D5, Velocity: 61
Note OFF: Time 61680, Note Name: D5
Note ON: Time 61680, Note Name: C5, Velocity: 56
Note OFF: Time 61920, Note Name: C5
Note ON: Time 61920, Note Name: D5, Velocity: 64
Note OFF: Time 62040, Note Name: D5
Note ON: Time 62280, Note Name: F4, Velocity: 57
Note OFF: Time 62400, Note Name: F4
Note ON: Time 62400, Note Name: A#4, Velocity: 59
Note OFF: Time 62880, Note Name: A#4
Note ON: Time 62880, Note Name: A4, Velocity: 44
Note OFF: Time 63120, Note Name: A4
Note ON: Time 63120, Note Name: A#4, Velocity: 44
Note OFF: Time 63360, Note Name: A#4
Note ON: Time 63360, Note Name: C5, Velocity: 46
Note OFF: Time 63720, Note Name: C5
Note ON: Time 63720, Note Name: D5, Velocity: 42
Note OFF: Time 63840, Note Name: D5
Note ON: Time 63840, Note Name: C5, Velocity: 46
Note OFF: Time 64320, Note Name: C5
Note ON: Time 64320, Note Name: E5, Velocity: 49
Note OFF: Time 64560, Note Name: E5
Note ON: Time 64560, Note Name: F5, Velocity: 51
Note OFF: Time 64800, Note Name: F5
Note ON: Time 64800, Note Name: G5, Velocity: 55
Note OFF: Time 65160, Note Name: G5
Note ON: Time 65160, Note Name: A5, Velocity: 52
Note OFF: Time 65280, Note Name: A5
Note ON: Time 65280, Note Name: G5, Velocity: 56
Note OFF: Time 65760, Note Name: G5
Note ON: Time 65760, Note Name: F5, Velocity: 52
Note OFF: Time 66000, Note Name: F5
Note ON: Time 66000, Note Name: D5, Velocity: 49
Note OFF: Time 66240, Note Name: D5
Note ON: Time 66240, Note Name: C5, Velocity: 56
Note OFF: Time 66480, Note Name: C5
Note ON: Time 66480, Note Name: D5, Velocity: 51
Note OFF: Time 66720, Note Name: D5
Note ON: Time 66720, Note Name: C5, Velocity: 56
Note OFF: Time 67200, Note Name: C5
Note ON: Time 67200, Note Name: E5, Velocity: 50
Note OFF: Time 67440, Note Name: E5
Note ON: Time 67560, Note Name: F5, Velocity: 55
Note OFF: Time 67680, Note Name: F5
Note ON: Time 67680, Note Name: G5, Velocity: 59
Note OFF: Time 67840, Note Name: G5
Note ON: Time 67840, Note Name: A5, Velocity: 56
Note OFF: Time 68000, Note Name: A5
Note ON: Time 68000, Note Name: G5, Velocity: 56
Note OFF: Time 68160, Note Name: G5
Note ON: Time 68160, Note Name: F5, Velocity: 53
Note OFF: Time 68880, Note Name: F5
Note ON: Time 68880, Note Name: D5, Velocity: 50
Note OFF: Time 69120, Note Name: D5
Note ON: Time 69120, Note Name: C5, Velocity: 51
Note OFF: Time 69360, Note Name: C5
Note ON: Time 69360, Note Name: D5, Velocity: 49
Note OFF: Time 69600, Note Name: D5
Note ON: Time 69600, Note Name: C5, Velocity: 51
Note OFF: Time 70080, Note Name: C5
Note ON: Time 70080, Note Name: E5, Velocity: 49
Note OFF: Time 70320, Note Name: E5
Note ON: Time 70320, Note Name: F5, Velocity: 51
Note OFF: Time 70560, Note Name: F5
Note ON: Time 70560, Note Name: G5, Velocity: 55
Note OFF: Time 70800, Note Name: G5
Note ON: Time 70800, Note Name: A5, Velocity: 52
Note OFF: Time 71040, Note Name: A5
Note ON: Time 71040, Note Name: G5, Velocity: 50
Note OFF: Time 71100, Note Name: G5
Note ON: Time 71100, Note Name: A5, Velocity: 47
Note OFF: Time 71160, Note Name: A5
Note ON: Time 71160, Note Name: G5, Velocity: 52
Note OFF: Time 71220, Note Name: G5
Note ON: Time 71220, Note Name: A5, Velocity: 49
Note OFF: Time 71280, Note Name: A5
Note ON: Time 71280, Note Name: G5, Velocity: 56
Note OFF: Time 71340, Note Name: G5
Note ON: Time 71340, Note Name: A5, Velocity: 49
Note OFF: Time 71400, Note Name: A5
Note ON: Time 71400, Note Name: G5, Velocity: 51
Note OFF: Time 71460, Note Name: G5
Note ON: Time 71460, Note Name: A5, Velocity: 49
Note OFF: Time 71520, Note Name: A5
Note ON: Time 71520, Note Name: F5, Velocity: 52
Note OFF: Time 71760, Note Name: F5
Note ON: Time 71760, Note Name: D5, Velocity: 49
Note OFF: Time 72000, Note Name: D5
Note ON: Time 72000, Note Name: C5, Velocity: 56
Note OFF: Time 72240, Note Name: C5
Note ON: Time 72240, Note Name: D5, Velocity: 51
Note OFF: Time 72480, Note Name: D5
Note ON: Time 72480, Note Name: C5, Velocity: 56
Note OFF: Time 72960, Note Name: C5
Note ON: Time 72960, Note Name: E5, Velocity: 55
Note OFF: Time 73200, Note Name: E5
Note ON: Time 73200, Note Name: F5, Velocity: 59
Note OFF: Time 73440, Note Name: F5
Note ON: Time 73440, Note Name: G5, Velocity: 64
Note OFF: Time 73600, Note Name: G5
Note ON: Time 73600, Note Name: A5, Velocity: 61
Note OFF: Time 73760, Note Name: A5
Note ON: Time 73760, Note Name: G5, Velocity: 61
Note OFF: Time 73920, Note Name: G5
Note ON: Time 73920, Note Name: F5, Velocity: 66
Note OFF: Time 74280, Note Name: F5
Note ON: Time 74280, Note Name: G4, Velocity: 62
Note OFF: Time 74400, Note Name: G4
Note ON: Time 74400, Note Name: F5, Velocity: 68
Note OFF: Time 74560, Note Name: F5
Note ON: Time 74560, Note Name: F#4, Velocity: 62
Note OFF: Time 74720, Note Name: F#4
Note ON: Time 74720, Note Name: F5, Velocity: 69
Note OFF: Time 74816, Note Name: F5
Note ON: Time 74820, Note Name: F5, Velocity: 66
Note OFF: Time 74880, Note Name: F5
Note ON: Time 74880, Note Name: F4, Velocity: 70
Note OFF: Time 75120, Note Name: F4
Note ON: Time 75240, Note Name: F4, Velocity: 66
Note OFF: Time 75360, Note Name: F4
Note ON: Time 75360, Note Name: G4, Velocity: 70
Note OFF: Time 75840, Note Name: G4
Note ON: Time 75840, Note Name: A4, Velocity: 70
Note OFF: Time 76320, Note Name: A4
Note ON: Time 76320, Note Name: A#4, Velocity: 71
Note OFF: Time 76560, Note Name: A#4
Note ON: Time 76680, Note Name: C5, Velocity: 66
Note OFF: Time 76800, Note Name: C5
Note ON: Time 76800, Note Name: D5, Velocity: 70
Note OFF: Time 77280, Note Name: D5
Note ON: Time 77280, Note Name: D#5, Velocity: 75
Note OFF: Time 77520, Note Name: D#5
Note ON: Time 77520, Note Name: F5, Velocity: 79
Note OFF: Time 77760, Note Name: F5
Note ON: Time 77760, Note Name: G5, Velocity: 83
Note OFF: Time 77880, Note Name: G5
Note ON: Time 78120, Note Name: A5, Velocity: 75
Note OFF: Time 78240, Note Name: A5
Note ON: Time 78240, Note Name: A#5, Velocity: 76
Note OFF: Time 78300, Note Name: A#5
Note ON: Time 78300, Note Name: C6, Velocity: 67
Note OFF: Time 78360, Note Name: C6
Note ON: Time 78360, Note Name: A#5, Velocity: 73
Note OFF: Time 78420, Note Name: A#5
Note ON: Time 78420, Note Name: C6, Velocity: 66
Note OFF: Time 78480, Note Name: C6
Note ON: Time 78480, Note Name: A#5, Velocity: 70
Note OFF: Time 78540, Note Name: A#5
Note ON: Time 78540, Note Name: C6, Velocity: 64
Note OFF: Time 78600, Note Name: C6
Note ON: Time 78600, Note Name: A#5, Velocity: 70
Note OFF: Time 78660, Note Name: A#5
Note ON: Time 78660, Note Name: C6, Velocity: 64
Note OFF: Time 78720, Note Name: C6
Note ON: Time 78720, Note Name: A5, Velocity: 70
Note OFF: Time 78960, Note Name: A5
Note ON: Time 78960, Note Name: G5, Velocity: 56
Note OFF: Time 79140, Note Name: G5
Note ON: Time 79140, Note Name: F5, Velocity: 51
Note OFF: Time 79200, Note Name: F5
Note ON: Time 79200, Note Name: A#5, Velocity: 60
Note OFF: Time 79320, Note Name: A#5
Note ON: Time 79560, Note Name: A#5, Velocity: 55
Note OFF: Time 79680, Note Name: A#5
Note ON: Time 79680, Note Name: D5, Velocity: 49
Note OFF: Time 80580, Note Name: D5
Note ON: Time 80580, Note Name: D#5, Velocity: 50
Note OFF: Time 80640, Note Name: D#5
Note ON: Time 80640, Note Name: G5, Velocity: 58
Note OFF: Time 80760, Note Name: G5
Note ON: Time 81000, Note Name: G5, Velocity: 51
Note OFF: Time 81120, Note Name: G5
Note ON: Time 81120, Note Name: A4, Velocity: 49
Note OFF: Time 82020, Note Name: A4
Note ON: Time 82020, Note Name: A#4, Velocity: 50
Note OFF: Time 82080, Note Name: A#4
Note ON: Time 82080, Note Name: D5, Velocity: 56
Note OFF: Time 82200, Note Name: D5
Note ON: Time 82440, Note Name: D5, Velocity: 52
Note OFF: Time 82560, Note Name: D5
Note ON: Time 82560, Note Name: E4, Velocity: 49
Note OFF: Time 83520, Note Name: E4
Note ON: Time 83520, Note Name: F4, Velocity: 55
Note OFF: Time 83640, Note Name: F4
Note ON: Time 83880, Note Name: A4, Velocity: 58
Note OFF: Time 84000, Note Name: A4
Note ON: Time 84000, Note Name: C5, Velocity: 59
Note OFF: Time 84240, Note Name: C5
Note ON: Time 84240, Note Name: D#5, Velocity: 60
Note OFF: Time 84480, Note Name: D#5
Note ON: Time 84480, Note Name: G5, Velocity: 67
Note OFF: Time 84840, Note Name: G5
Note ON: Time 84840, Note Name: F5, Velocity: 63
Note OFF: Time 84897, Note Name: F5
Note ON: Time 84900, Note Name: F5, Velocity: 49
Note OFF: Time 84960, Note Name: F5
Note ON: Time 84960, Note Name: D6, Velocity: 67
Note OFF: Time 85080, Note Name: D6
Note ON: Time 85320, Note Name: C6, Velocity: 61
Note OFF: Time 85440, Note Name: C6
Note ON: Time 85440, Note Name: A#5, Velocity: 50
Note OFF: Time 85500, Note Name: A#5
Note ON: Time 85500, Note Name: C6, Velocity: 49
Note OFF: Time 85560, Note Name: C6
Note ON: Time 85560, Note Name: A#5, Velocity: 57
Note OFF: Time 85680, Note Name: A#5
Note ON: Time 85680, Note Name: G5, Velocity: 52
Note OFF: Time 85920, Note Name: G5
Note ON: Time 85920, Note Name: F5, Velocity: 49
Note ON: Time 86340, Note Name: G5, Velocity: 45
Note OFF: Time 86400, Note Name: G5
Note OFF: Time 86400, Note Name: F5
Note ON: Time 86400, Note Name: A#5, Velocity: 51
Note OFF: Time 86520, Note Name: A#5
Note ON: Time 86760, Note Name: A#5, Velocity: 46
Note OFF: Time 86880, Note Name: A#5
Note ON: Time 86880, Note Name: A4, Velocity: 44
Note OFF: Time 87720, Note Name: A4
Note ON: Time 87720, Note Name: A#4, Velocity: 42
Note OFF: Time 87780, Note Name: A#4
Note ON: Time 87780, Note Name: D5, Velocity: 41
Note OFF: Time 87840, Note Name: D5
Note ON: Time 87840, Note Name: F5, Velocity: 49
Note OFF: Time 87960, Note Name: F5
Note ON: Time 88200, Note Name: F5, Velocity: 47
Note OFF: Time 88320, Note Name: F5
Note ON: Time 88320, Note Name: E4, Velocity: 44
Note OFF: Time 89280, Note Name: E4
Note ON: Time 89280, Note Name: F4, Velocity: 55
Note OFF: Time 89400, Note Name: F4
Note ON: Time 89640, Note Name: A4, Velocity: 58
Note OFF: Time 89760, Note Name: A4
Note ON: Time 89760, Note Name: C5, Velocity: 59
Note OFF: Time 90000, Note Name: C5
Note ON: Time 90000, Note Name: D#5, Velocity: 60
Note OFF: Time 90240, Note Name: D#5
Note ON: Time 90240, Note Name: D5, Velocity: 56
Note OFF: Time 90300, Note Name: D5
Note ON: Time 90300, Note Name: D#5, Velocity: 56
Note OFF: Time 90360, Note Name: D#5
Note ON: Time 90360, Note Name: D5, Velocity: 61
Note OFF: Time 90480, Note Name: D5
Note ON: Time 90480, Note Name: C5, Velocity: 56
Note OFF: Time 90720, Note Name: C5
Note ON: Time 90720, Note Name: D5, Velocity: 64
Note OFF: Time 90840, Note Name: D5
Note ON: Time 91080, Note Name: F4, Velocity: 57
Note OFF: Time 91200, Note Name: F4
Note ON: Time 91200, Note Name: A#4, Velocity: 59
Note OFF: Time 91680, Note Name: A#4
Note ON: Time 92160, Note Name: F5, Velocity: 46
Note OFF: Time 92280, Note Name: F5
Note ON: Time 92520, Note Name: F5, Velocity: 37
Note OFF: Time 92640, Note Name: F5
Note ON: Time 92640, Note Name: E5, Velocity: 41
Note OFF: Time 93120, Note Name: E5
Note ON: Time 93120, Note Name: C#5, Velocity: 37
Note OFF: Time 93360, Note Name: C#5
Note ON: Time 93360, Note Name: C5, Velocity: 37
Note OFF: Time 93600, Note Name: C5
Note ON: Time 93600, Note Name: A#4, Velocity: 42
Note OFF: Time 93840, Note Name: A#4
Note ON: Time 93960, Note Name: C#5, Velocity: 37
Note OFF: Time 94080, Note Name: C#5
Note ON: Time 94080, Note Name: C5, Velocity: 37
Note OFF: Time 94140, Note Name: C5
Note ON: Time 94140, Note Name: C#5, Velocity: 37
Note OFF: Time 94200, Note Name: C#5
Note ON: Time 94200, Note Name: C5, Velocity: 40
Note OFF: Time 94560, Note Name: C5
Note ON: Time 94560, Note Name: A#4, Velocity: 37
Note OFF: Time 94800, Note Name: A#4
Note ON: Time 94920, Note Name: E4, Velocity: 41
Note OFF: Time 95040, Note Name: E4
Note ON: Time 95040, Note Name: F5, Velocity: 46
Note OFF: Time 95160, Note Name: F5
Note ON: Time 95400, Note Name: F5, Velocity: 37
Note OFF: Time 95520, Note Name: F5
Note ON: Time 95520, Note Name: E5, Velocity: 41
Note OFF: Time 96000, Note Name: E5
Note ON: Time 96000, Note Name: C#5, Velocity: 37
Note OFF: Time 96240, Note Name: C#5
Note ON: Time 96240, Note Name: C5, Velocity: 37
Note OFF: Time 96480, Note Name: C5
Note ON: Time 96480, Note Name: A#4, Velocity: 45
Note OFF: Time 96640, Note Name: A#4
Note ON: Time 96640, Note Name: C5, Velocity: 40
Note OFF: Time 96800, Note Name: C5
Note ON: Time 96800, Note Name: A#4, Velocity: 39
Note OFF: Time 96960, Note Name: A#4
Note ON: Time 96960, Note Name: E4, Velocity: 42
Note OFF: Time 97920, Note Name: E4
Note ON: Time 97920, Note Name: F5, Velocity: 46
Note OFF: Time 98040, Note Name: F5
Note ON: Time 98280, Note Name: F5, Velocity: 37
Note OFF: Time 98400, Note Name: F5
Note ON: Time 98400, Note Name: E5, Velocity: 41
Note OFF: Time 98880, Note Name: E5
Note ON: Time 98880, Note Name: C#5, Velocity: 37
Note OFF: Time 99120, Note Name: C#5
Note ON: Time 99120, Note Name: C5, Velocity: 37
Note OFF: Time 99360, Note Name: C5
Note ON: Time 99360, Note Name: A#4, Velocity: 42
Note OFF: Time 99600, Note Name: A#4
Note ON: Time 99720, Note Name: C#5, Velocity: 37
Note OFF: Time 99840, Note Name: C#5
Note ON: Time 99840, Note Name: C5, Velocity: 37
Note OFF: Time 99900, Note Name: C5
Note ON: Time 99900, Note Name: C#5, Velocity: 33
Note OFF: Time 99960, Note Name: C#5
Note ON: Time 99960, Note Name: C5, Velocity: 37
Note OFF: Time 100020, Note Name: C5
Note ON: Time 100020, Note Name: C#5, Velocity: 35
Note OFF: Time 100080, Note Name: C#5
Note ON: Time 100080, Note Name: C5, Velocity: 37
Note OFF: Time 100140, Note Name: C5
Note ON: Time 100140, Note Name: C#5, Velocity: 34
Note OFF: Time 100200, Note Name: C#5
Note ON: Time 100200, Note Name: C5, Velocity: 37
Note OFF: Time 100260, Note Name: C5
Note ON: Time 100260, Note Name: C#5, Velocity: 37
Note OFF: Time 100320, Note Name: C#5
Note ON: Time 100320, Note Name: A#4, Velocity: 37
Note OFF: Time 100560, Note Name: A#4
Note ON: Time 100680, Note Name: E4, Velocity: 41
Note OFF: Time 100800, Note Name: E4
Note ON: Time 100800, Note Name: F5, Velocity: 46
Note OFF: Time 100920, Note Name: F5
Note ON: Time 101160, Note Name: F5, Velocity: 37
Note OFF: Time 101280, Note Name: F5
Note ON: Time 101280, Note Name: E5, Velocity: 41
Note OFF: Time 101760, Note Name: E5
Note ON: Time 101760, Note Name: C#5, Velocity: 37
Note OFF: Time 102120, Note Name: C#5
Note ON: Time 102120, Note Name: C5, Velocity: 37
Note OFF: Time 102240, Note Name: C5
Note ON: Time 102240, Note Name: A#4, Velocity: 45
Note OFF: Time 102400, Note Name: A#4
Note ON: Time 102400, Note Name: C5, Velocity: 40
Note OFF: Time 102560, Note Name: C5
Note ON: Time 102560, Note Name: A#4, Velocity: 39
Note OFF: Time 102720, Note Name: A#4
Note ON: Time 102720, Note Name: A4, Velocity: 42
Note OFF: Time 103440, Note Name: A4
Note ON: Time 103440, Note Name: G4, Velocity: 53
Note OFF: Time 103680, Note Name: G4
Note ON: Time 103680, Note Name: F4, Velocity: 70
Note OFF: Time 103920, Note Name: F4
Note ON: Time 104040, Note Name: F4, Velocity: 66
Note OFF: Time 104160, Note Name: F4
Note ON: Time 104160, Note Name: G4, Velocity: 70
Note OFF: Time 104640, Note Name: G4
Note ON: Time 104640, Note Name: A4, Velocity: 70
Note OFF: Time 105120, Note Name: A4
Note ON: Time 105120, Note Name: A#4, Velocity: 71
Note OFF: Time 105360, Note Name: A#4
Note ON: Time 105480, Note Name: C5, Velocity: 66
Note OFF: Time 105600, Note Name: C5
Note ON: Time 105600, Note Name: D5, Velocity: 70
Note OFF: Time 106080, Note Name: D5
Note ON: Time 106080, Note Name: D#5, Velocity: 75
Note OFF: Time 106320, Note Name: D#5
Note ON: Time 106320, Note Name: F5, Velocity: 79
Note OFF: Time 106560, Note Name: F5
Note ON: Time 106560, Note Name: G5, Velocity: 83
Note OFF: Time 106680, Note Name: G5
Note ON: Time 106920, Note Name: A5, Velocity: 75
Note OFF: Time 107040, Note Name: A5
Note ON: Time 107040, Note Name: A#5, Velocity: 76
Note OFF: Time 107100, Note Name: A#5
Note ON: Time 107100, Note Name: C6, Velocity: 67
Note OFF: Time 107160, Note Name: C6
Note ON: Time 107160, Note Name: A#5, Velocity: 73
Note OFF: Time 107220, Note Name: A#5
Note ON: Time 107220, Note Name: C6, Velocity: 66
Note OFF: Time 107280, Note Name: C6
Note ON: Time 107280, Note Name: A#5, Velocity: 70
Note OFF: Time 107340, Note Name: A#5
Note ON: Time 107340, Note Name: C6, Velocity: 64
Note OFF: Time 107400, Note Name: C6
Note ON: Time 107400, Note Name: A#5, Velocity: 70
Note OFF: Time 107460, Note Name: A#5
Note ON: Time 107460, Note Name: C6, Velocity: 64
Note OFF: Time 107520, Note Name: C6
Note ON: Time 107520, Note Name: A5, Velocity: 70
Note OFF: Time 107760, Note Name: A5
Note ON: Time 107760, Note Name: G5, Velocity: 56
Note OFF: Time 107940, Note Name: G5
Note ON: Time 107940, Note Name: F5, Velocity: 51
Note OFF: Time 108000, Note Name: F5
Note ON: Time 108000, Note Name: A#5, Velocity: 60
Note OFF: Time 108120, Note Name: A#5
Note ON: Time 108360, Note Name: A#5, Velocity: 55
Note OFF: Time 108480, Note Name: A#5
Note ON: Time 108480, Note Name: D5, Velocity: 49
Note OFF: Time 109380, Note Name: D5
Note ON: Time 109380, Note Name: D#5, Velocity: 50
Note OFF: Time 109440, Note Name: D#5
Note ON: Time 109440, Note Name: G5, Velocity: 58
Note OFF: Time 109560, Note Name: G5
Note ON: Time 109800, Note Name: G5, Velocity: 51
Note OFF: Time 109920, Note Name: G5
Note ON: Time 109920, Note Name: A4, Velocity: 49
Note OFF: Time 110820, Note Name: A4
Note ON: Time 110820, Note Name: A#4, Velocity: 50
Note OFF: Time 110880, Note Name: A#4
Note ON: Time 110880, Note Name: D5, Velocity: 56
Note OFF: Time 111000, Note Name: D5
Note ON: Time 111240, Note Name: D5, Velocity: 52
Note OFF: Time 111360, Note Name: D5
Note ON: Time 111360, Note Name: E4, Velocity: 49
Note OFF: Time 112320, Note Name: E4
Note ON: Time 112320, Note Name: F4, Velocity: 55
Note OFF: Time 112440, Note Name: F4
Note ON: Time 112680, Note Name: A4, Velocity: 58
Note OFF: Time 112800, Note Name: A4
Note ON: Time 112800, Note Name: C5, Velocity: 59
Note OFF: Time 113040, Note Name: C5
Note ON: Time 113040, Note Name: D#5, Velocity: 60
Note OFF: Time 113280, Note Name: D#5
Note ON: Time 113280, Note Name: G5, Velocity: 67
Note OFF: Time 113640, Note Name: G5
Note ON: Time 113640, Note Name: F5, Velocity: 63
Note OFF: Time 113698, Note Name: F5
Note ON: Time 113700, Note Name: F5, Velocity: 55
Note OFF: Time 113760, Note Name: F5
Note ON: Time 113760, Note Name: D6, Velocity: 75
Note OFF: Time 113880, Note Name: D6
Note ON: Time 114120, Note Name: C6, Velocity: 68
Note OFF: Time 114240, Note Name: C6
Note ON: Time 114240, Note Name: A#5, Velocity: 56
Note OFF: Time 114300, Note Name: A#5
Note ON: Time 114300, Note Name: C6, Velocity: 55
Note OFF: Time 114360, Note Name: C6
Note ON: Time 114360, Note Name: A#5, Velocity: 64
Note OFF: Time 114480, Note Name: A#5
Note ON: Time 114480, Note Name: G5, Velocity: 58
Note OFF: Time 114720, Note Name: G5
Note ON: Time 114720, Note Name: F5, Velocity: 55
Note ON: Time 115140, Note Name: G5, Velocity: 45
Note OFF: Time 115200, Note Name: G5
Note OFF: Time 115200, Note Name: F5
Note ON: Time 115200, Note Name: A#5, Velocity: 51
Note OFF: Time 115320, Note Name: A#5
Note ON: Time 115560, Note Name: A#5, Velocity: 46
Note OFF: Time 115680, Note Name: A#5
Note ON: Time 115680, Note Name: A4, Velocity: 44
Note OFF: Time 116520, Note Name: A4
Note ON: Time 116520, Note Name: A#4, Velocity: 42
Note OFF: Time 116580, Note Name: A#4
Note ON: Time 116580, Note Name: D5, Velocity: 41
Note OFF: Time 116640, Note Name: D5
Note ON: Time 116640, Note Name: F5, Velocity: 49
Note OFF: Time 116760, Note Name: F5
Note ON: Time 117000, Note Name: F5, Velocity: 47
Note OFF: Time 117120, Note Name: F5
Note ON: Time 117120, Note Name: E4, Velocity: 44
Note OFF: Time 118080, Note Name: E4
Note ON: Time 118080, Note Name: F4, Velocity: 55
Note OFF: Time 118200, Note Name: F4
Note ON: Time 118440, Note Name: A4, Velocity: 58
Note OFF: Time 118560, Note Name: A4
Note ON: Time 118560, Note Name: C5, Velocity: 59
Note OFF: Time 118800, Note Name: C5
Note ON: Time 118800, Note Name: D#5, Velocity: 60
Note OFF: Time 119040, Note Name: D#5
Note ON: Time 119040, Note Name: D5, Velocity: 56
Note OFF: Time 119100, Note Name: D5
Note ON: Time 119100, Note Name: D#5, Velocity: 56
Note OFF: Time 119160, Note Name: D#5
Note ON: Time 119160, Note Name: D5, Velocity: 61
Note OFF: Time 119400, Note Name: D5
Note ON: Time 119400, Note Name: C5, Velocity: 56
Note OFF: Time 119520, Note Name: C5
Note ON: Time 119520, Note Name: D5, Velocity: 64
Note OFF: Time 119640, Note Name: D5
Note ON: Time 119880, Note Name: F4, Velocity: 57
Note OFF: Time 120000, Note Name: F4
Note ON: Time 120000, Note Name: A#4, Velocity: 59
Note OFF: Time 120480, Note Name: A#4
Note ON: Time 120960, Note Name: F5, Velocity: 46
Note OFF: Time 121080, Note Name: F5
Note ON: Time 121320, Note Name: F5, Velocity: 37
Note OFF: Time 121440, Note Name: F5
Note ON: Time 121440, Note Name: E5, Velocity: 41
Note OFF: Time 121920, Note Name: E5
Note ON: Time 121920, Note Name: C#5, Velocity: 37
Note OFF: Time 122160, Note Name: C#5
Note ON: Time 122160, Note Name: C5, Velocity: 37
Note OFF: Time 122400, Note Name: C5
Note ON: Time 122400, Note Name: A#4, Velocity: 42
Note OFF: Time 122640, Note Name: A#4
Note ON: Time 122760, Note Name: C#5, Velocity: 37
Note OFF: Time 122880, Note Name: C#5
Note ON: Time 122880, Note Name: C5, Velocity: 37
Note OFF: Time 122940, Note Name: C5
Note ON: Time 122940, Note Name: C#5, Velocity: 37
Note OFF: Time 123000, Note Name: C#5
Note ON: Time 123000, Note Name: C5, Velocity: 40
Note OFF: Time 123360, Note Name: C5
Note ON: Time 123360, Note Name: A#4, Velocity: 37
Note OFF: Time 123600, Note Name: A#4
Note ON: Time 123720, Note Name: E4, Velocity: 41
Note OFF: Time 123840, Note Name: E4
Note ON: Time 123840, Note Name: F5, Velocity: 46
Note OFF: Time 123960, Note Name: F5
Note ON: Time 124200, Note Name: F5, Velocity: 37
Note OFF: Time 124320, Note Name: F5
Note ON: Time 124320, Note Name: E5, Velocity: 41
Note OFF: Time 124800, Note Name: E5
Note ON: Time 124800, Note Name: C#5, Velocity: 37
Note OFF: Time 125040, Note Name: C#5
Note ON: Time 125040, Note Name: C5, Velocity: 37
Note OFF: Time 125280, Note Name: C5
Note ON: Time 125280, Note Name: A#4, Velocity: 45
Note OFF: Time 125440, Note Name: A#4
Note ON: Time 125440, Note Name: C5, Velocity: 40
Note OFF: Time 125600, Note Name: C5
Note ON: Time 125600, Note Name: A#4, Velocity: 39
Note OFF: Time 125760, Note Name: A#4
Note ON: Time 125760, Note Name: E4, Velocity: 42
Note OFF: Time 126720, Note Name: E4
Note ON: Time 126720, Note Name: F5, Velocity: 46
Note OFF: Time 126840, Note Name: F5
Note ON: Time 127080, Note Name: F5, Velocity: 37
Note OFF: Time 127200, Note Name: F5
Note ON: Time 127200, Note Name: E5, Velocity: 41
Note OFF: Time 127680, Note Name: E5
Note ON: Time 127680, Note Name: C#5, Velocity: 37
Note OFF: Time 127920, Note Name: C#5
Note ON: Time 127920, Note Name: C5, Velocity: 37
Note OFF: Time 128160, Note Name: C5
Note ON: Time 128160, Note Name: A#4, Velocity: 42
Note OFF: Time 128400, Note Name: A#4
Note ON: Time 128520, Note Name: C#5, Velocity: 37
Note OFF: Time 128640, Note Name: C#5
Note ON: Time 128640, Note Name: C5, Velocity: 37
Note OFF: Time 128700, Note Name: C5
Note ON: Time 128700, Note Name: C#5, Velocity: 33
Note OFF: Time 128760, Note Name: C#5
Note ON: Time 128760, Note Name: C5, Velocity: 37
Note OFF: Time 128820, Note Name: C5
Note ON: Time 128820, Note Name: C#5, Velocity: 35
Note OFF: Time 128880, Note Name: C#5
Note ON: Time 128880, Note Name: C5, Velocity: 37
Note OFF: Time 128940, Note Name: C5
Note ON: Time 128940, Note Name: C#5, Velocity: 34
Note OFF: Time 129000, Note Name: C#5
Note ON: Time 129000, Note Name: C5, Velocity: 37
Note OFF: Time 129060, Note Name: C5
Note ON: Time 129060, Note Name: C#5, Velocity: 37
Note OFF: Time 129120, Note Name: C#5
Note ON: Time 129120, Note Name: A#4, Velocity: 37
Note OFF: Time 129360, Note Name: A#4
Note ON: Time 129480, Note Name: E4, Velocity: 41
Note OFF: Time 129600, Note Name: E4
Note ON: Time 129600, Note Name: F5, Velocity: 46
Note OFF: Time 129720, Note Name: F5
Note ON: Time 129960, Note Name: F5, Velocity: 37
Note OFF: Time 130080, Note Name: F5
Note ON: Time 130080, Note Name: E5, Velocity: 41
Note OFF: Time 130560, Note Name: E5
Note ON: Time 130560, Note Name: C#5, Velocity: 37
Note OFF: Time 130920, Note Name: C#5
Note ON: Time 130920, Note Name: C5, Velocity: 37
Note OFF: Time 131040, Note Name: C5
Note ON: Time 131040, Note Name: A#4, Velocity: 45
Note OFF: Time 131200, Note Name: A#4
Note ON: Time 131200, Note Name: C5, Velocity: 40
Note OFF: Time 131360, Note Name: C5
Note ON: Time 131360, Note Name: A#4, Velocity: 39
Note OFF: Time 131520, Note Name: A#4
Note ON: Time 131520, Note Name: A4, Velocity: 42
Note OFF: Time 132240, Note Name: A4
Note ON: Time 132240, Note Name: G4, Velocity: 53
Note OFF: Time 132480, Note Name: G4
Note ON: Time 132480, Note Name: F4, Velocity: 70
Note OFF: Time 132720, Note Name: F4
Note ON: Time 132840, Note Name: F4, Velocity: 66
Note OFF: Time 132960, Note Name: F4
Note ON: Time 132960, Note Name: G4, Velocity: 70
Note OFF: Time 133440, Note Name: G4
Note ON: Time 133440, Note Name: A4, Velocity: 70
Note OFF: Time 133920, Note Name: A4
Note ON: Time 133920, Note Name: A#4, Velocity: 71
Note OFF: Time 134160, Note Name: A#4
Note ON: Time 134280, Note Name: C5, Velocity: 66
Note OFF: Time 134400, Note Name: C5
Note ON: Time 134400, Note Name: D5, Velocity: 70
Note OFF: Time 134880, Note Name: D5
Note ON: Time 134880, Note Name: D#5, Velocity: 75
Note OFF: Time 135120, Note Name: D#5
Note ON: Time 135120, Note Name: F5, Velocity: 79
Note OFF: Time 135360, Note Name: F5
Note ON: Time 135360, Note Name: G5, Velocity: 83
Note OFF: Time 135480, Note Name: G5
Note ON: Time 135720, Note Name: A5, Velocity: 75
Note OFF: Time 135840, Note Name: A5
Note ON: Time 135840, Note Name: A#5, Velocity: 76
Note OFF: Time 135900, Note Name: A#5
Note ON: Time 135900, Note Name: C6, Velocity: 67
Note OFF: Time 135960, Note Name: C6
Note ON: Time 135960, Note Name: A#5, Velocity: 73
Note OFF: Time 136020, Note Name: A#5
Note ON: Time 136020, Note Name: C6, Velocity: 66
Note OFF: Time 136080, Note Name: C6
Note ON: Time 136080, Note Name: A#5, Velocity: 70
Note OFF: Time 136140, Note Name: A#5
Note ON: Time 136140, Note Name: C6, Velocity: 64
Note OFF: Time 136200, Note Name: C6
Note ON: Time 136200, Note Name: A#5, Velocity: 70
Note OFF: Time 136260, Note Name: A#5
Note ON: Time 136260, Note Name: C6, Velocity: 64
Note OFF: Time 136320, Note Name: C6
Note ON: Time 136320, Note Name: A5, Velocity: 70
Note OFF: Time 136560, Note Name: A5
Note ON: Time 136560, Note Name: G5, Velocity: 56
Note OFF: Time 136740, Note Name: G5
Note ON: Time 136740, Note Name: F5, Velocity: 51
Note OFF: Time 136800, Note Name: F5
Note ON: Time 136800, Note Name: A#5, Velocity: 60
Note OFF: Time 136920, Note Name: A#5
Note ON: Time 137160, Note Name: A#5, Velocity: 55
Note OFF: Time 137280, Note Name: A#5
Note ON: Time 137280, Note Name: D5, Velocity: 49
Note OFF: Time 138180, Note Name: D5
Note ON: Time 138180, Note Name: D#5, Velocity: 50
Note OFF: Time 138240, Note Name: D#5
Note ON: Time 138240, Note Name: G5, Velocity: 58
Note OFF: Time 138360, Note Name: G5
Note ON: Time 138600, Note Name: G5, Velocity: 51
Note OFF: Time 138720, Note Name: G5
Note ON: Time 138720, Note Name: A4, Velocity: 49
Note OFF: Time 139620, Note Name: A4
Note ON: Time 139620, Note Name: A#4, Velocity: 50
Note OFF: Time 139680, Note Name: A#4
Note ON: Time 139680, Note Name: D5, Velocity: 56
Note OFF: Time 139800, Note Name: D5
Note ON: Time 140040, Note Name: D5, Velocity: 52
Note OFF: Time 140160, Note Name: D5
Note ON: Time 140160, Note Name: E4, Velocity: 49
Note OFF: Time 141120, Note Name: E4
Note ON: Time 141120, Note Name: F4, Velocity: 55
Note OFF: Time 141240, Note Name: F4
Note ON: Time 141480, Note Name: A4, Velocity: 58
Note OFF: Time 141600, Note Name: A4
Note ON: Time 141600, Note Name: C5, Velocity: 59
Note OFF: Time 141840, Note Name: C5
Note ON: Time 141840, Note Name: D#5, Velocity: 60
Note OFF: Time 142080, Note Name: D#5
Note ON: Time 142080, Note Name: G5, Velocity: 67
Note OFF: Time 142440, Note Name: G5
Note ON: Time 142440, Note Name: F5, Velocity: 63
Note OFF: Time 142500, Note Name: F5
Note ON: Time 142500, Note Name: F5, Velocity: 49
Note OFF: Time 142560, Note Name: F5
Note ON: Time 142560, Note Name: D6, Velocity: 67
Note OFF: Time 142680, Note Name: D6
Note ON: Time 142920, Note Name: C6, Velocity: 61
Note OFF: Time 143040, Note Name: C6
Note ON: Time 143040, Note Name: A#5, Velocity: 50
Note OFF: Time 143100, Note Name: A#5
Note ON: Time 143100, Note Name: C6, Velocity: 49
Note OFF: Time 143160, Note Name: C6
Note ON: Time 143160, Note Name: A#5, Velocity: 57
Note OFF: Time 143280, Note Name: A#5
Note ON: Time 143280, Note Name: G5, Velocity: 52
Note OFF: Time 143520, Note Name: G5
Note ON: Time 143520, Note Name: F5, Velocity: 49
Note ON: Time 143940, Note Name: G5, Velocity: 45
Note OFF: Time 144000, Note Name: G5
Note OFF: Time 144000, Note Name: F5
Note ON: Time 144000, Note Name: A#5, Velocity: 51
Note OFF: Time 144120, Note Name: A#5
Note ON: Time 144360, Note Name: A#5, Velocity: 46
Note OFF: Time 144480, Note Name: A#5
Note ON: Time 144480, Note Name: A4, Velocity: 44
Note OFF: Time 145320, Note Name: A4
Note ON: Time 145320, Note Name: A#4, Velocity: 42
Note OFF: Time 145380, Note Name: A#4
Note ON: Time 145380, Note Name: D5, Velocity: 41
Note OFF: Time 145440, Note Name: D5
Note ON: Time 145440, Note Name: F5, Velocity: 49
Note OFF: Time 145560, Note Name: F5
Note ON: Time 145800, Note Name: F5, Velocity: 47
Note OFF: Time 145920, Note Name: F5
Note ON: Time 145920, Note Name: E4, Velocity: 44
Note OFF: Time 146880, Note Name: E4
Note ON: Time 146880, Note Name: F4, Velocity: 55
Note OFF: Time 147000, Note Name: F4
Note ON: Time 147240, Note Name: A4, Velocity: 60
Note OFF: Time 147360, Note Name: A4
Note ON: Time 147360, Note Name: C5, Velocity: 62
Note OFF: Time 147600, Note Name: C5
Note ON: Time 147600, Note Name: D#5, Velocity: 66
Note OFF: Time 147840, Note Name: D#5
Note ON: Time 147840, Note Name: D5, Velocity: 63
Note OFF: Time 147900, Note Name: D5
Note ON: Time 147900, Note Name: D#5, Velocity: 63
Note OFF: Time 147960, Note Name: D#5
Note ON: Time 147960, Note Name: D5, Velocity: 70
Note OFF: Time 148200, Note Name: D5
Note ON: Time 148200, Note Name: C5, Velocity: 64
Note OFF: Time 148320, Note Name: C5
Note ON: Time 148320, Note Name: D5, Velocity: 76
Note OFF: Time 148560, Note Name: D5
Note ON: Time 148560, Note Name: F4, Velocity: 68
Note OFF: Time 148800, Note Name: F4
Note ON: Time 148800, Note Name: A#4, Velocity: 68
Note ON: Time 148800, Note Name: A#5, Velocity: 70
Note OFF: Time 149760, Note Name: A#5
Note OFF: Time 149760, Note Name: A#4
Track 2: Piano left
Note ON: Time 0, Note Name: F2, Velocity: 70
Note OFF: Time 240, Note Name: F2
Note ON: Time 480, Note Name: D#4, Velocity: 59
Note ON: Time 480, Note Name: C4, Velocity: 50
Note ON: Time 480, Note Name: F3, Velocity: 50
Note OFF: Time 960, Note Name: F3
Note OFF: Time 960, Note Name: C4
Note OFF: Time 960, Note Name: D#4
Note ON: Time 960, Note Name: D#4, Velocity: 60
Note ON: Time 960, Note Name: C4, Velocity: 51
Note ON: Time 960, Note Name: F3, Velocity: 51
Note OFF: Time 1440, Note Name: F3
Note OFF: Time 1440, Note Name: C4
Note OFF: Time 1440, Note Name: D#4
Note ON: Time 1440, Note Name: A#2, Velocity: 70
Note OFF: Time 1680, Note Name: A#2
Note ON: Time 1920, Note Name: D4, Velocity: 52
Note ON: Time 1920, Note Name: A#3, Velocity: 52
Note ON: Time 1920, Note Name: F3, Velocity: 52
Note OFF: Time 2400, Note Name: F3
Note OFF: Time 2400, Note Name: A#3
Note OFF: Time 2400, Note Name: D4
Note ON: Time 2400, Note Name: A#2, Velocity: 62
Note OFF: Time 2640, Note Name: A#2
Note ON: Time 2880, Note Name: D#2, Velocity: 68
Note ON: Time 2880, Note Name: D#3, Velocity: 80
Note OFF: Time 3270, Note Name: D#3
Note OFF: Time 3270, Note Name: D#2
Note ON: Time 3270, Note Name: G3, Velocity: 59
Note ON: Time 3300, Note Name: A#3, Velocity: 59
Note ON: Time 3330, Note Name: D#4, Velocity: 59
Note ON: Time 3360, Note Name: G4, Velocity: 70
Note OFF: Time 3840, Note Name: G4
Note OFF: Time 3840, Note Name: G3
Note OFF: Time 3840, Note Name: A#3
Note OFF: Time 3840, Note Name: D#4
Note ON: Time 4320, Note Name: A#2, Velocity: 43
Note OFF: Time 4560, Note Name: A#2
Note ON: Time 4800, Note Name: D4, Velocity: 28
Note ON: Time 4800, Note Name: A#3, Velocity: 23
Note ON: Time 4800, Note Name: F3, Velocity: 23
Note OFF: Time 5280, Note Name: F3
Note OFF: Time 5280, Note Name: A#3
Note OFF: Time 5280, Note Name: D4
Note ON: Time 5280, Note Name: D4, Velocity: 26
Note ON: Time 5280, Note Name: A#3, Velocity: 22
Note ON: Time 5280, Note Name: F3, Velocity: 22
Note OFF: Time 5760, Note Name: F3
Note OFF: Time 5760, Note Name: A#3
Note OFF: Time 5760, Note Name: D4
Note ON: Time 5760, Note Name: F2, Velocity: 40
Note OFF: Time 6000, Note Name: F2
Note ON: Time 6240, Note Name: D#4, Velocity: 27
Note ON: Time 6240, Note Name: C4, Velocity: 22
Note ON: Time 6240, Note Name: F3, Velocity: 22
Note OFF: Time 6720, Note Name: F3
Note OFF: Time 6720, Note Name: C4
Note OFF: Time 6720, Note Name: D#4
Note ON: Time 6720, Note Name: D#4, Velocity: 25
Note ON: Time 6720, Note Name: C4, Velocity: 21
Note ON: Time 6720, Note Name: F3, Velocity: 21
Note OFF: Time 7200, Note Name: F3
Note OFF: Time 7200, Note Name: C4
Note OFF: Time 7200, Note Name: D#4
Note ON: Time 7200, Note Name: A#2, Velocity: 43
Note OFF: Time 7440, Note Name: A#2
Note ON: Time 7680, Note Name: D4, Velocity: 28
Note ON: Time 7680, Note Name: A#3, Velocity: 23
Note ON: Time 7680, Note Name: F3, Velocity: 23
Note OFF: Time 8160, Note Name: F3
Note OFF: Time 8160, Note Name: A#3
Note OFF: Time 8160, Note Name: D4
Note ON: Time 8160, Note Name: D4, Velocity: 26
Note ON: Time 8160, Note Name: A#3, Velocity: 22
Note ON: Time 8160, Note Name: F3, Velocity: 22
Note OFF: Time 8640, Note Name: F3
Note OFF: Time 8640, Note Name: A#3
Note OFF: Time 8640, Note Name: D4
Note ON: Time 8640, Note Name: F2, Velocity: 57
Note OFF: Time 8880, Note Name: F2
Note ON: Time 9120, Note Name: F3, Velocity: 39
Note ON: Time 9120, Note Name: D#4, Velocity: 47
Note OFF: Time 9600, Note Name: D#4
Note OFF: Time 9600, Note Name: F3
Note ON: Time 9600, Note Name: F3, Velocity: 39
Note ON: Time 9600, Note Name: A3, Velocity: 39
Note ON: Time 9600, Note Name: D#4, Velocity: 46
Note OFF: Time 10080, Note Name: D#4
Note OFF: Time 10080, Note Name: A3
Note OFF: Time 10080, Note Name: F3
Note ON: Time 10080, Note Name: A#2, Velocity: 57
Note OFF: Time 10320, Note Name: A#2
Note ON: Time 10560, Note Name: F3, Velocity: 39
Note ON: Time 10560, Note Name: A#3, Velocity: 39
Note ON: Time 10560, Note Name: D4, Velocity: 47
Note OFF: Time 11040, Note Name: D4
Note OFF: Time 11040, Note Name: A#3
Note OFF: Time 11040, Note Name: F3
Note ON: Time 11040, Note Name: F3, Velocity: 39
Note ON: Time 11040, Note Name: A#3, Velocity: 39
Note ON: Time 11040, Note Name: D4, Velocity: 46
Note OFF: Time 11520, Note Name: D4
Note OFF: Time 11520, Note Name: A#3
Note OFF: Time 11520, Note Name: F3
Note ON: Time 11520, Note Name: A#2, Velocity: 36
Note OFF: Time 11760, Note Name: A#2
Note ON: Time 12000, Note Name: D#4, Velocity: 27
Note ON: Time 12000, Note Name: C4, Velocity: 22
Note ON: Time 12000, Note Name: F3, Velocity: 22
Note OFF: Time 12480, Note Name: F3
Note OFF: Time 12480, Note Name: C4
Note OFF: Time 12480, Note Name: D#4
Note ON: Time 12480, Note Name: D#4, Velocity: 25
Note ON: Time 12480, Note Name: C4, Velocity: 21
Note ON: Time 12480, Note Name: F3, Velocity: 21
Note OFF: Time 12960, Note Name: F3
Note OFF: Time 12960, Note Name: C4
Note OFF: Time 12960, Note Name: D#4
Note ON: Time 12960, Note Name: A#2, Velocity: 38
Note OFF: Time 13200, Note Name: A#2
Note ON: Time 13440, Note Name: D4, Velocity: 28
Note ON: Time 13440, Note Name: A#3, Velocity: 23
Note ON: Time 13440, Note Name: F3, Velocity: 23
Note OFF: Time 13920, Note Name: F3
Note OFF: Time 13920, Note Name: A#3
Note OFF: Time 13920, Note Name: D4
Note ON: Time 13920, Note Name: D4, Velocity: 26
Note ON: Time 13920, Note Name: A#3, Velocity: 22
Note ON: Time 13920, Note Name: F3, Velocity: 22
Note OFF: Time 14400, Note Name: F3
Note OFF: Time 14400, Note Name: A#3
Note OFF: Time 14400, Note Name: D4
Note ON: Time 14400, Note Name: F2, Velocity: 57
Note OFF: Time 14640, Note Name: F2
Note ON: Time 14880, Note Name: F3, Velocity: 39
Note ON: Time 14880, Note Name: D#4, Velocity: 47
Note OFF: Time 15360, Note Name: D#4
Note OFF: Time 15360, Note Name: F3
Note ON: Time 15360, Note Name: F3, Velocity: 39
Note ON: Time 15360, Note Name: A3, Velocity: 39
Note ON: Time 15360, Note Name: D#4, Velocity: 46
Note OFF: Time 15840, Note Name: D#4
Note OFF: Time 15840, Note Name: A3
Note OFF: Time 15840, Note Name: F3
Note ON: Time 15840, Note Name: A#2, Velocity: 57
Note OFF: Time 16080, Note Name: A#2
Note ON: Time 16320, Note Name: F3, Velocity: 39
Note ON: Time 16320, Note Name: A#3, Velocity: 39
Note ON: Time 16320, Note Name: D4, Velocity: 47
Note OFF: Time 16800, Note Name: D4
Note OFF: Time 16800, Note Name: A#3
Note OFF: Time 16800, Note Name: F3
Note ON: Time 17280, Note Name: F2, Velocity: 70
Note OFF: Time 17520, Note Name: F2
Note ON: Time 17760, Note Name: D#4, Velocity: 59
Note ON: Time 17760, Note Name: C4, Velocity: 50
Note ON: Time 17760, Note Name: F3, Velocity: 50
Note OFF: Time 18240, Note Name: F3
Note OFF: Time 18240, Note Name: C4
Note OFF: Time 18240, Note Name: D#4
Note ON: Time 18240, Note Name: D#4, Velocity: 60
Note ON: Time 18240, Note Name: C4, Velocity: 51
Note ON: Time 18240, Note Name: F3, Velocity: 51
Note OFF: Time 18720, Note Name: F3
Note OFF: Time 18720, Note Name: C4
Note OFF: Time 18720, Note Name: D#4
Note ON: Time 18720, Note Name: A#2, Velocity: 70
Note OFF: Time 18960, Note Name: A#2
Note ON: Time 19200, Note Name: D4, Velocity: 52
Note ON: Time 19200, Note Name: A#3, Velocity: 52
Note ON: Time 19200, Note Name: F3, Velocity: 52
Note OFF: Time 19680, Note Name: F3
Note OFF: Time 19680, Note Name: A#3
Note OFF: Time 19680, Note Name: D4
Note ON: Time 19680, Note Name: A#2, Velocity: 62
Note OFF: Time 19920, Note Name: A#2
Note ON: Time 20160, Note Name: D#2, Velocity: 68
Note ON: Time 20160, Note Name: D#3, Velocity: 80
Note OFF: Time 20550, Note Name: D#3
Note OFF: Time 20550, Note Name: D#2
Note ON: Time 20550, Note Name: G3, Velocity: 59
Note ON: Time 20580, Note Name: A#3, Velocity: 59
Note ON: Time 20610, Note Name: D#4, Velocity: 59
Note ON: Time 20640, Note Name: G4, Velocity: 70
Note OFF: Time 21120, Note Name: G4
Note OFF: Time 21120, Note Name: G3
Note OFF: Time 21120, Note Name: A#3
Note OFF: Time 21120, Note Name: D#4
Note ON: Time 21600, Note Name: A#2, Velocity: 43
Note OFF: Time 21840, Note Name: A#2
Note ON: Time 22080, Note Name: D4, Velocity: 28
Note ON: Time 22080, Note Name: A#3, Velocity: 23
Note ON: Time 22080, Note Name: F3, Velocity: 23
Note OFF: Time 22560, Note Name: F3
Note OFF: Time 22560, Note Name: A#3
Note OFF: Time 22560, Note Name: D4
Note ON: Time 22560, Note Name: D4, Velocity: 26
Note ON: Time 22560, Note Name: A#3, Velocity: 22
Note ON: Time 22560, Note Name: F3, Velocity: 22
Note OFF: Time 23040, Note Name: F3
Note OFF: Time 23040, Note Name: A#3
Note OFF: Time 23040, Note Name: D4
Note ON: Time 23040, Note Name: F2, Velocity: 40
Note OFF: Time 23280, Note Name: F2
Note ON: Time 23520, Note Name: D#4, Velocity: 27
Note ON: Time 23520, Note Name: C4, Velocity: 22
Note ON: Time 23520, Note Name: F3, Velocity: 22
Note OFF: Time 24000, Note Name: F3
Note OFF: Time 24000, Note Name: C4
Note OFF: Time 24000, Note Name: D#4
Note ON: Time 24000, Note Name: D#4, Velocity: 25
Note ON: Time 24000, Note Name: C4, Velocity: 21
Note ON: Time 24000, Note Name: F3, Velocity: 21
Note OFF: Time 24480, Note Name: F3
Note OFF: Time 24480, Note Name: C4
Note OFF: Time 24480, Note Name: D#4
Note ON: Time 24480, Note Name: A#2, Velocity: 43
Note OFF: Time 24720, Note Name: A#2
Note ON: Time 24960, Note Name: D4, Velocity: 28
Note ON: Time 24960, Note Name: A#3, Velocity: 23
Note ON: Time 24960, Note Name: F3, Velocity: 23
Note OFF: Time 25440, Note Name: F3
Note OFF: Time 25440, Note Name: A#3
Note OFF: Time 25440, Note Name: D4
Note ON: Time 25440, Note Name: D4, Velocity: 26
Note ON: Time 25440, Note Name: A#3, Velocity: 22
Note ON: Time 25440, Note Name: F3, Velocity: 22
Note OFF: Time 25920, Note Name: F3
Note OFF: Time 25920, Note Name: A#3
Note OFF: Time 25920, Note Name: D4
Note ON: Time 25920, Note Name: F2, Velocity: 57
Note OFF: Time 26160, Note Name: F2
Note ON: Time 26400, Note Name: F3, Velocity: 39
Note ON: Time 26400, Note Name: D#4, Velocity: 47
Note OFF: Time 26880, Note Name: D#4
Note OFF: Time 26880, Note Name: F3
Note ON: Time 26880, Note Name: F3, Velocity: 39
Note ON: Time 26880, Note Name: A3, Velocity: 39
Note ON: Time 26880, Note Name: D#4, Velocity: 46
Note OFF: Time 27360, Note Name: D#4
Note OFF: Time 27360, Note Name: A3
Note OFF: Time 27360, Note Name: F3
Note ON: Time 27360, Note Name: A#2, Velocity: 51
Note OFF: Time 27600, Note Name: A#2
Note ON: Time 27840, Note Name: F3, Velocity: 31
Note ON: Time 27840, Note Name: A#3, Velocity: 31
Note ON: Time 27840, Note Name: D4, Velocity: 37
Note OFF: Time 28320, Note Name: D4
Note OFF: Time 28320, Note Name: A#3
Note OFF: Time 28320, Note Name: F3
Note ON: Time 28320, Note Name: F3, Velocity: 31
Note ON: Time 28320, Note Name: A#3, Velocity: 31
Note ON: Time 28320, Note Name: D4, Velocity: 36
Note OFF: Time 28800, Note Name: D4
Note OFF: Time 28800, Note Name: A#3
Note OFF: Time 28800, Note Name: F3
Note ON: Time 28800, Note Name: A#2, Velocity: 40
Note OFF: Time 29040, Note Name: A#2
Note ON: Time 29280, Note Name: D#4, Velocity: 27
Note ON: Time 29280, Note Name: C4, Velocity: 22
Note ON: Time 29280, Note Name: F3, Velocity: 22
Note OFF: Time 29760, Note Name: F3
Note OFF: Time 29760, Note Name: C4
Note OFF: Time 29760, Note Name: D#4
Note ON: Time 29760, Note Name: D#4, Velocity: 25
Note ON: Time 29760, Note Name: C4, Velocity: 21
Note ON: Time 29760, Note Name: F3, Velocity: 21
Note OFF: Time 30240, Note Name: F3
Note OFF: Time 30240, Note Name: C4
Note OFF: Time 30240, Note Name: D#4
Note ON: Time 30240, Note Name: A#2, Velocity: 43
Note OFF: Time 30480, Note Name: A#2
Note ON: Time 30720, Note Name: D4, Velocity: 28
Note ON: Time 30720, Note Name: A#3, Velocity: 23
Note ON: Time 30720, Note Name: F3, Velocity: 23
Note OFF: Time 31200, Note Name: F3
Note OFF: Time 31200, Note Name: A#3
Note OFF: Time 31200, Note Name: D4
Note ON: Time 31200, Note Name: D4, Velocity: 26
Note ON: Time 31200, Note Name: A#3, Velocity: 22
Note ON: Time 31200, Note Name: F3, Velocity: 22
Note OFF: Time 31680, Note Name: F3
Note OFF: Time 31680, Note Name: A#3
Note OFF: Time 31680, Note Name: D4
Note ON: Time 31680, Note Name: F2, Velocity: 57
Note OFF: Time 31920, Note Name: F2
Note ON: Time 32160, Note Name: F3, Velocity: 39
Note ON: Time 32160, Note Name: D#4, Velocity: 47
Note OFF: Time 32640, Note Name: D#4
Note OFF: Time 32640, Note Name: F3
Note ON: Time 32640, Note Name: F3, Velocity: 39
Note ON: Time 32640, Note Name: A3, Velocity: 39
Note ON: Time 32640, Note Name: D#4, Velocity: 46
Note OFF: Time 33120, Note Name: D#4
Note OFF: Time 33120, Note Name: A3
Note OFF: Time 33120, Note Name: F3
Note ON: Time 33120, Note Name: A#2, Velocity: 57
Note OFF: Time 33360, Note Name: A#2
Note ON: Time 33600, Note Name: F3, Velocity: 39
Note ON: Time 33600, Note Name: A#3, Velocity: 39
Note ON: Time 33600, Note Name: D4, Velocity: 47
Note OFF: Time 34080, Note Name: D4
Note OFF: Time 34080, Note Name: A#3
Note OFF: Time 34080, Note Name: F3
Note ON: Time 34560, Note Name: F2, Velocity: 37
Note OFF: Time 35040, Note Name: F2
Note ON: Time 35040, Note Name: C3, Velocity: 25
Note ON: Time 35040, Note Name: A3, Velocity: 30
Note OFF: Time 35520, Note Name: A3
Note OFF: Time 35520, Note Name: C3
Note ON: Time 35520, Note Name: C3, Velocity: 28
Note ON: Time 35520, Note Name: A3, Velocity: 34
Note OFF: Time 36000, Note Name: A3
Note OFF: Time 36000, Note Name: C3
Note ON: Time 36000, Note Name: F2, Velocity: 42
Note OFF: Time 36480, Note Name: F2
Note ON: Time 36480, Note Name: D3, Velocity: 32
Note ON: Time 36480, Note Name: A#3, Velocity: 38
Note OFF: Time 36960, Note Name: A#3
Note OFF: Time 36960, Note Name: D3
Note ON: Time 36960, Note Name: D3, Velocity: 33
Note ON: Time 36960, Note Name: A#3, Velocity: 39
Note OFF: Time 37440, Note Name: A#3
Note OFF: Time 37440, Note Name: D3
Note ON: Time 37440, Note Name: F2, Velocity: 42
Note OFF: Time 37920, Note Name: F2
Note ON: Time 37920, Note Name: C3, Velocity: 32
Note ON: Time 37920, Note Name: A3, Velocity: 38
Note OFF: Time 38400, Note Name: A3
Note OFF: Time 38400, Note Name: C3
Note ON: Time 38400, Note Name: C3, Velocity: 32
Note ON: Time 38400, Note Name: A3, Velocity: 38
Note OFF: Time 38880, Note Name: A3
Note OFF: Time 38880, Note Name: C3
Note ON: Time 38880, Note Name: F2, Velocity: 39
Note OFF: Time 39120, Note Name: F2
Note ON: Time 39360, Note Name: D3, Velocity: 28
Note ON: Time 39360, Note Name: A#3, Velocity: 34
Note OFF: Time 39600, Note Name: A#3
Note OFF: Time 39600, Note Name: D3
Note ON: Time 39840, Note Name: F2, Velocity: 34
Note OFF: Time 40080, Note Name: F2
Note ON: Time 40320, Note Name: C3, Velocity: 31
Note ON: Time 40320, Note Name: A3, Velocity: 37
Note OFF: Time 40560, Note Name: A3
Note OFF: Time 40560, Note Name: C3
Note ON: Time 40800, Note Name: F2, Velocity: 34
Note OFF: Time 41040, Note Name: F2
Note ON: Time 41280, Note Name: C3, Velocity: 28
Note ON: Time 41280, Note Name: A3, Velocity: 34
Note OFF: Time 41520, Note Name: A3
Note OFF: Time 41520, Note Name: C3
Note ON: Time 41760, Note Name: F2, Velocity: 42
Note OFF: Time 42000, Note Name: F2
Note ON: Time 42240, Note Name: D3, Velocity: 32
Note ON: Time 42240, Note Name: A#3, Velocity: 38
Note OFF: Time 42480, Note Name: A#3
Note OFF: Time 42480, Note Name: D3
Note ON: Time 42720, Note Name: F2, Velocity: 34
Note OFF: Time 42960, Note Name: F2
Note ON: Time 43200, Note Name: C3, Velocity: 32
Note ON: Time 43200, Note Name: A3, Velocity: 38
Note OFF: Time 43440, Note Name: A3
Note OFF: Time 43440, Note Name: C3
Note ON: Time 43680, Note Name: F2, Velocity: 34
Note OFF: Time 43920, Note Name: F2
Note ON: Time 44160, Note Name: C3, Velocity: 38
Note ON: Time 44160, Note Name: A3, Velocity: 45
Note OFF: Time 44640, Note Name: A3
Note ON: Time 44640, Note Name: E3, Velocity: 38
Note ON: Time 44640, Note Name: A#3, Velocity: 45
Note OFF: Time 45120, Note Name: A#3
Note OFF: Time 45120, Note Name: E3
Note OFF: Time 45120, Note Name: C3
Note ON: Time 45120, Note Name: F3, Velocity: 38
Note ON: Time 45120, Note Name: A3, Velocity: 45
Note OFF: Time 45600, Note Name: A3
Note OFF: Time 45600, Note Name: F3
Note ON: Time 46080, Note Name: F2, Velocity: 70
Note OFF: Time 46320, Note Name: F2
Note ON: Time 46560, Note Name: D#4, Velocity: 59
Note ON: Time 46560, Note Name: C4, Velocity: 50
Note ON: Time 46560, Note Name: F3, Velocity: 50
Note OFF: Time 47040, Note Name: F3
Note OFF: Time 47040, Note Name: C4
Note OFF: Time 47040, Note Name: D#4
Note ON: Time 47040, Note Name: D#4, Velocity: 60
Note ON: Time 47040, Note Name: C4, Velocity: 51
Note ON: Time 47040, Note Name: F3, Velocity: 51
Note OFF: Time 47520, Note Name: F3
Note OFF: Time 47520, Note Name: C4
Note OFF: Time 47520, Note Name: D#4
Note ON: Time 47520, Note Name: A#2, Velocity: 70
Note OFF: Time 47760, Note Name: A#2
Note ON: Time 48000, Note Name: D4, Velocity: 52
Note ON: Time 48000, Note Name: A#3, Velocity: 52
Note ON: Time 48000, Note Name: F3, Velocity: 52
Note OFF: Time 48480, Note Name: F3
Note OFF: Time 48480, Note Name: A#3
Note OFF: Time 48480, Note Name: D4
Note ON: Time 48480, Note Name: A#2, Velocity: 62
Note OFF: Time 48720, Note Name: A#2
Note ON: Time 48960, Note Name: D#2, Velocity: 68
Note ON: Time 48960, Note Name: D#3, Velocity: 80
Note OFF: Time 49350, Note Name: D#3
Note OFF: Time 49350, Note Name: D#2
Note ON: Time 49350, Note Name: G3, Velocity: 59
Note ON: Time 49380, Note Name: A#3, Velocity: 59
Note ON: Time 49410, Note Name: D#4, Velocity: 59
Note ON: Time 49440, Note Name: G4, Velocity: 70
Note OFF: Time 49920, Note Name: G4
Note OFF: Time 49920, Note Name: G3
Note OFF: Time 49920, Note Name: A#3
Note OFF: Time 49920, Note Name: D#4
Note ON: Time 50400, Note Name: A#2, Velocity: 48
Note OFF: Time 50640, Note Name: A#2
Note ON: Time 50880, Note Name: D4, Velocity: 31
Note ON: Time 50880, Note Name: A#3, Velocity: 27
Note ON: Time 50880, Note Name: F3, Velocity: 27
Note OFF: Time 51360, Note Name: F3
Note OFF: Time 51360, Note Name: A#3
Note OFF: Time 51360, Note Name: D4
Note ON: Time 51360, Note Name: D4, Velocity: 29
Note ON: Time 51360, Note Name: A#3, Velocity: 24
Note ON: Time 51360, Note Name: F3, Velocity: 24
Note OFF: Time 51840, Note Name: F3
Note OFF: Time 51840, Note Name: A#3
Note OFF: Time 51840, Note Name: D4
Note ON: Time 51840, Note Name: F2, Velocity: 45
Note OFF: Time 52080, Note Name: F2
Note ON: Time 52320, Note Name: D#4, Velocity: 30
Note ON: Time 52320, Note Name: C4, Velocity: 26
Note ON: Time 52320, Note Name: F3, Velocity: 26
Note OFF: Time 52800, Note Name: F3
Note OFF: Time 52800, Note Name: C4
Note OFF: Time 52800, Note Name: D#4
Note ON: Time 52800, Note Name: D#4, Velocity: 28
Note ON: Time 52800, Note Name: C4, Velocity: 23
Note ON: Time 52800, Note Name: F3, Velocity: 23
Note OFF: Time 53280, Note Name: F3
Note OFF: Time 53280, Note Name: C4
Note OFF: Time 53280, Note Name: D#4
Note ON: Time 53280, Note Name: A#2, Velocity: 48
Note OFF: Time 53520, Note Name: A#2
Note ON: Time 53760, Note Name: D4, Velocity: 31
Note ON: Time 53760, Note Name: A#3, Velocity: 27
Note ON: Time 53760, Note Name: F3, Velocity: 27
Note OFF: Time 54240, Note Name: F3
Note OFF: Time 54240, Note Name: A#3
Note OFF: Time 54240, Note Name: D4
Note ON: Time 54240, Note Name: D4, Velocity: 29
Note ON: Time 54240, Note Name: A#3, Velocity: 24
Note ON: Time 54240, Note Name: F3, Velocity: 24
Note OFF: Time 54720, Note Name: F3
Note OFF: Time 54720, Note Name: A#3
Note OFF: Time 54720, Note Name: D4
Note ON: Time 54720, Note Name: F2, Velocity: 57
Note OFF: Time 54960, Note Name: F2
Note ON: Time 55200, Note Name: F3, Velocity: 39
Note ON: Time 55200, Note Name: D#4, Velocity: 47
Note OFF: Time 55680, Note Name: D#4
Note OFF: Time 55680, Note Name: F3
Note ON: Time 55680, Note Name: F3, Velocity: 39
Note ON: Time 55680, Note Name: A3, Velocity: 39
Note ON: Time 55680, Note Name: D#4, Velocity: 46
Note OFF: Time 56160, Note Name: D#4
Note OFF: Time 56160, Note Name: A3
Note OFF: Time 56160, Note Name: F3
Note ON: Time 56160, Note Name: A#2, Velocity: 57
Note OFF: Time 56400, Note Name: A#2
Note ON: Time 56640, Note Name: F3, Velocity: 39
Note ON: Time 56640, Note Name: A#3, Velocity: 39
Note ON: Time 56640, Note Name: D4, Velocity: 47
Note OFF: Time 57120, Note Name: D4
Note OFF: Time 57120, Note Name: A#3
Note OFF: Time 57120, Note Name: F3
Note ON: Time 57120, Note Name: F3, Velocity: 39
Note ON: Time 57120, Note Name: A#3, Velocity: 39
Note ON: Time 57120, Note Name: D4, Velocity: 46
Note OFF: Time 57600, Note Name: D4
Note OFF: Time 57600, Note Name: A#3
Note OFF: Time 57600, Note Name: F3
Note ON: Time 57600, Note Name: A#2, Velocity: 40
Note OFF: Time 57840, Note Name: A#2
Note ON: Time 58080, Note Name: D#4, Velocity: 27
Note ON: Time 58080, Note Name: C4, Velocity: 22
Note ON: Time 58080, Note Name: F3, Velocity: 22
Note OFF: Time 58560, Note Name: F3
Note OFF: Time 58560, Note Name: C4
Note OFF: Time 58560, Note Name: D#4
Note ON: Time 58560, Note Name: D#4, Velocity: 25
Note ON: Time 58560, Note Name: C4, Velocity: 21
Note ON: Time 58560, Note Name: F3, Velocity: 21
Note OFF: Time 59040, Note Name: F3
Note OFF: Time 59040, Note Name: C4
Note OFF: Time 59040, Note Name: D#4
Note ON: Time 59040, Note Name: A#2, Velocity: 43
Note OFF: Time 59280, Note Name: A#2
Note ON: Time 59520, Note Name: D4, Velocity: 28
Note ON: Time 59520, Note Name: A#3, Velocity: 23
Note ON: Time 59520, Note Name: F3, Velocity: 23
Note OFF: Time 60000, Note Name: F3
Note OFF: Time 60000, Note Name: A#3
Note OFF: Time 60000, Note Name: D4
Note ON: Time 60000, Note Name: D4, Velocity: 26
Note ON: Time 60000, Note Name: A#3, Velocity: 22
Note ON: Time 60000, Note Name: F3, Velocity: 22
Note OFF: Time 60480, Note Name: F3
Note OFF: Time 60480, Note Name: A#3
Note OFF: Time 60480, Note Name: D4
Note ON: Time 60480, Note Name: F2, Velocity: 57
Note OFF: Time 60720, Note Name: F2
Note ON: Time 60960, Note Name: F3, Velocity: 39
Note ON: Time 60960, Note Name: D#4, Velocity: 47
Note OFF: Time 61440, Note Name: D#4
Note OFF: Time 61440, Note Name: F3
Note ON: Time 61440, Note Name: F3, Velocity: 39
Note ON: Time 61440, Note Name: A3, Velocity: 39
Note ON: Time 61440, Note Name: D#4, Velocity: 46
Note OFF: Time 61920, Note Name: D#4
Note OFF: Time 61920, Note Name: A3
Note OFF: Time 61920, Note Name: F3
Note ON: Time 61920, Note Name: A#2, Velocity: 57
Note OFF: Time 62160, Note Name: A#2
Note ON: Time 62400, Note Name: F3, Velocity: 39
Note ON: Time 62400, Note Name: A#3, Velocity: 39
Note ON: Time 62400, Note Name: D4, Velocity: 47
Note OFF: Time 62880, Note Name: D4
Note OFF: Time 62880, Note Name: A#3
Note OFF: Time 62880, Note Name: F3
Note ON: Time 63360, Note Name: F2, Velocity: 37
Note OFF: Time 63840, Note Name: F2
Note ON: Time 63840, Note Name: C3, Velocity: 25
Note ON: Time 63840, Note Name: A3, Velocity: 30
Note OFF: Time 64320, Note Name: A3
Note OFF: Time 64320, Note Name: C3
Note ON: Time 64320, Note Name: C3, Velocity: 28
Note ON: Time 64320, Note Name: A3, Velocity: 34
Note OFF: Time 64800, Note Name: A3
Note OFF: Time 64800, Note Name: C3
Note ON: Time 64800, Note Name: F2, Velocity: 42
Note OFF: Time 65280, Note Name: F2
Note ON: Time 65280, Note Name: D3, Velocity: 32
Note ON: Time 65280, Note Name: A#3, Velocity: 38
Note OFF: Time 65760, Note Name: A#3
Note OFF: Time 65760, Note Name: D3
Note ON: Time 65760, Note Name: D3, Velocity: 33
Note ON: Time 65760, Note Name: A#3, Velocity: 39
Note OFF: Time 66240, Note Name: A#3
Note OFF: Time 66240, Note Name: D3
Note ON: Time 66240, Note Name: F2, Velocity: 42
Note OFF: Time 66720, Note Name: F2
Note ON: Time 66720, Note Name: C3, Velocity: 32
Note ON: Time 66720, Note Name: A3, Velocity: 38
Note OFF: Time 67200, Note Name: A3
Note OFF: Time 67200, Note Name: C3
Note ON: Time 67200, Note Name: C3, Velocity: 32
Note ON: Time 67200, Note Name: A3, Velocity: 38
Note OFF: Time 67680, Note Name: A3
Note OFF: Time 67680, Note Name: C3
Note ON: Time 67680, Note Name: F2, Velocity: 39
Note OFF: Time 67920, Note Name: F2
Note ON: Time 68160, Note Name: D3, Velocity: 28
Note ON: Time 68160, Note Name: A#3, Velocity: 34
Note OFF: Time 68400, Note Name: A#3
Note OFF: Time 68400, Note Name: D3
Note ON: Time 68640, Note Name: F2, Velocity: 34
Note OFF: Time 68880, Note Name: F2
Note ON: Time 69120, Note Name: C3, Velocity: 31
Note ON: Time 69120, Note Name: A3, Velocity: 37
Note OFF: Time 69360, Note Name: A3
Note OFF: Time 69360, Note Name: C3
Note ON: Time 69600, Note Name: F2, Velocity: 34
Note OFF: Time 69840, Note Name: F2
Note ON: Time 70080, Note Name: C3, Velocity: 28
Note ON: Time 70080, Note Name: A3, Velocity: 34
Note OFF: Time 70320, Note Name: A3
Note OFF: Time 70320, Note Name: C3
Note ON: Time 70560, Note Name: F2, Velocity: 42
Note OFF: Time 70800, Note Name: F2
Note ON: Time 71040, Note Name: D3, Velocity: 32
Note ON: Time 71040, Note Name: A#3, Velocity: 38
Note OFF: Time 71280, Note Name: A#3
Note OFF: Time 71280, Note Name: D3
Note ON: Time 71520, Note Name: F2, Velocity: 34
Note OFF: Time 71760, Note Name: F2
Note ON: Time 72000, Note Name: C3, Velocity: 32
Note ON: Time 72000, Note Name: A3, Velocity: 38
Note OFF: Time 72240, Note Name: A3
Note OFF: Time 72240, Note Name: C3
Note ON: Time 72480, Note Name: F2, Velocity: 34
Note OFF: Time 72720, Note Name: F2
Note ON: Time 72960, Note Name: C3, Velocity: 38
Note ON: Time 72960, Note Name: A3, Velocity: 45
Note OFF: Time 73440, Note Name: A3
Note ON: Time 73440, Note Name: E3, Velocity: 38
Note ON: Time 73440, Note Name: A#3, Velocity: 45
Note OFF: Time 73920, Note Name: A#3
Note OFF: Time 73920, Note Name: E3
Note OFF: Time 73920, Note Name: C3
Note ON: Time 73920, Note Name: F3, Velocity: 38
Note ON: Time 73920, Note Name: A3, Velocity: 45
Note OFF: Time 74400, Note Name: A3
Note OFF: Time 74400, Note Name: F3
Note ON: Time 74880, Note Name: F2, Velocity: 70
Note OFF: Time 75120, Note Name: F2
Note ON: Time 75360, Note Name: D#4, Velocity: 59
Note ON: Time 75360, Note Name: C4, Velocity: 50
Note ON: Time 75360, Note Name: F3, Velocity: 50
Note OFF: Time 75840, Note Name: F3
Note OFF: Time 75840, Note Name: C4
Note OFF: Time 75840, Note Name: D#4
Note ON: Time 75840, Note Name: D#4, Velocity: 60
Note ON: Time 75840, Note Name: C4, Velocity: 51
Note ON: Time 75840, Note Name: F3, Velocity: 51
Note OFF: Time 76320, Note Name: F3
Note OFF: Time 76320, Note Name: C4
Note OFF: Time 76320, Note Name: D#4
Note ON: Time 76320, Note Name: A#2, Velocity: 70
Note OFF: Time 76560, Note Name: A#2
Note ON: Time 76800, Note Name: D4, Velocity: 52
Note ON: Time 76800, Note Name: A#3, Velocity: 52
Note ON: Time 76800, Note Name: F3, Velocity: 52
Note OFF: Time 77280, Note Name: F3
Note OFF: Time 77280, Note Name: A#3
Note OFF: Time 77280, Note Name: D4
Note ON: Time 77280, Note Name: A#2, Velocity: 62
Note OFF: Time 77520, Note Name: A#2
Note ON: Time 77760, Note Name: D#2, Velocity: 68
Note ON: Time 77760, Note Name: D#3, Velocity: 80
Note OFF: Time 78150, Note Name: D#3
Note OFF: Time 78150, Note Name: D#2
Note ON: Time 78150, Note Name: G3, Velocity: 59
Note ON: Time 78180, Note Name: A#3, Velocity: 59
Note ON: Time 78210, Note Name: D#4, Velocity: 59
Note ON: Time 78240, Note Name: G4, Velocity: 70
Note OFF: Time 78720, Note Name: G4
Note OFF: Time 78720, Note Name: G3
Note OFF: Time 78720, Note Name: A#3
Note OFF: Time 78720, Note Name: D#4
Note ON: Time 79200, Note Name: A#2, Velocity: 48
Note OFF: Time 79440, Note Name: A#2
Note ON: Time 79680, Note Name: D4, Velocity: 31
Note ON: Time 79680, Note Name: A#3, Velocity: 27
Note ON: Time 79680, Note Name: F3, Velocity: 27
Note OFF: Time 80160, Note Name: F3
Note OFF: Time 80160, Note Name: A#3
Note OFF: Time 80160, Note Name: D4
Note ON: Time 80160, Note Name: D4, Velocity: 29
Note ON: Time 80160, Note Name: A#3, Velocity: 24
Note ON: Time 80160, Note Name: F3, Velocity: 24
Note OFF: Time 80640, Note Name: F3
Note OFF: Time 80640, Note Name: A#3
Note OFF: Time 80640, Note Name: D4
Note ON: Time 80640, Note Name: F2, Velocity: 45
Note OFF: Time 80880, Note Name: F2
Note ON: Time 81120, Note Name: D#4, Velocity: 30
Note ON: Time 81120, Note Name: C4, Velocity: 26
Note ON: Time 81120, Note Name: F3, Velocity: 26
Note OFF: Time 81600, Note Name: F3
Note OFF: Time 81600, Note Name: C4
Note OFF: Time 81600, Note Name: D#4
Note ON: Time 81600, Note Name: D#4, Velocity: 28
Note ON: Time 81600, Note Name: C4, Velocity: 23
Note ON: Time 81600, Note Name: F3, Velocity: 23
Note OFF: Time 82080, Note Name: F3
Note OFF: Time 82080, Note Name: C4
Note OFF: Time 82080, Note Name: D#4
Note ON: Time 82080, Note Name: A#2, Velocity: 48
Note OFF: Time 82320, Note Name: A#2
Note ON: Time 82560, Note Name: D4, Velocity: 31
Note ON: Time 82560, Note Name: A#3, Velocity: 27
Note ON: Time 82560, Note Name: F3, Velocity: 27
Note OFF: Time 83040, Note Name: F3
Note OFF: Time 83040, Note Name: A#3
Note OFF: Time 83040, Note Name: D4
Note ON: Time 83040, Note Name: D4, Velocity: 29
Note ON: Time 83040, Note Name: A#3, Velocity: 24
Note ON: Time 83040, Note Name: F3, Velocity: 24
Note OFF: Time 83520, Note Name: F3
Note OFF: Time 83520, Note Name: A#3
Note OFF: Time 83520, Note Name: D4
Note ON: Time 83520, Note Name: F2, Velocity: 57
Note OFF: Time 83760, Note Name: F2
Note ON: Time 84000, Note Name: F3, Velocity: 39
Note ON: Time 84000, Note Name: D#4, Velocity: 47
Note OFF: Time 84480, Note Name: D#4
Note OFF: Time 84480, Note Name: F3
Note ON: Time 84480, Note Name: F3, Velocity: 39
Note ON: Time 84480, Note Name: A3, Velocity: 39
Note ON: Time 84480, Note Name: D#4, Velocity: 46
Note OFF: Time 84960, Note Name: D#4
Note OFF: Time 84960, Note Name: A3
Note OFF: Time 84960, Note Name: F3
Note ON: Time 84960, Note Name: A#2, Velocity: 51
Note OFF: Time 85200, Note Name: A#2
Note ON: Time 85440, Note Name: F3, Velocity: 31
Note ON: Time 85440, Note Name: A#3, Velocity: 31
Note ON: Time 85440, Note Name: D4, Velocity: 37
Note OFF: Time 85920, Note Name: D4
Note OFF: Time 85920, Note Name: A#3
Note OFF: Time 85920, Note Name: F3
Note ON: Time 85920, Note Name: F3, Velocity: 31
Note ON: Time 85920, Note Name: A#3, Velocity: 31
Note ON: Time 85920, Note Name: D4, Velocity: 36
Note OFF: Time 86400, Note Name: D4
Note OFF: Time 86400, Note Name: A#3
Note OFF: Time 86400, Note Name: F3
Note ON: Time 86400, Note Name: A#2, Velocity: 40
Note OFF: Time 86640, Note Name: A#2
Note ON: Time 86880, Note Name: D#4, Velocity: 27
Note ON: Time 86880, Note Name: C4, Velocity: 22
Note ON: Time 86880, Note Name: F3, Velocity: 22
Note OFF: Time 87360, Note Name: F3
Note OFF: Time 87360, Note Name: C4
Note OFF: Time 87360, Note Name: D#4
Note ON: Time 87360, Note Name: D#4, Velocity: 25
Note ON: Time 87360, Note Name: C4, Velocity: 21
Note ON: Time 87360, Note Name: F3, Velocity: 21
Note OFF: Time 87840, Note Name: F3
Note OFF: Time 87840, Note Name: C4
Note OFF: Time 87840, Note Name: D#4
Note ON: Time 87840, Note Name: A#2, Velocity: 43
Note OFF: Time 88080, Note Name: A#2
Note ON: Time 88320, Note Name: D4, Velocity: 28
Note ON: Time 88320, Note Name: A#3, Velocity: 23
Note ON: Time 88320, Note Name: F3, Velocity: 23
Note OFF: Time 88800, Note Name: F3
Note OFF: Time 88800, Note Name: A#3
Note OFF: Time 88800, Note Name: D4
Note ON: Time 88800, Note Name: D4, Velocity: 26
Note ON: Time 88800, Note Name: A#3, Velocity: 22
Note ON: Time 88800, Note Name: F3, Velocity: 22
Note OFF: Time 89280, Note Name: F3
Note OFF: Time 89280, Note Name: A#3
Note OFF: Time 89280, Note Name: D4
Note ON: Time 89280, Note Name: F2, Velocity: 57
Note OFF: Time 89520, Note Name: F2
Note ON: Time 89760, Note Name: F3, Velocity: 39
Note ON: Time 89760, Note Name: D#4, Velocity: 47
Note OFF: Time 90240, Note Name: D#4
Note OFF: Time 90240, Note Name: F3
Note ON: Time 90240, Note Name: F3, Velocity: 39
Note ON: Time 90240, Note Name: A3, Velocity: 39
Note ON: Time 90240, Note Name: D#4, Velocity: 46
Note OFF: Time 90720, Note Name: D#4
Note OFF: Time 90720, Note Name: A3
Note OFF: Time 90720, Note Name: F3
Note ON: Time 90720, Note Name: A#2, Velocity: 57
Note OFF: Time 90960, Note Name: A#2
Note ON: Time 91200, Note Name: F3, Velocity: 39
Note ON: Time 91200, Note Name: A#3, Velocity: 39
Note ON: Time 91200, Note Name: D4, Velocity: 47
Note OFF: Time 91680, Note Name: D4
Note OFF: Time 91680, Note Name: A#3
Note OFF: Time 91680, Note Name: F3
Note ON: Time 91680, Note Name: A#2, Velocity: 49
Note OFF: Time 92160, Note Name: A#2
Note ON: Time 92160, Note Name: F#2, Velocity: 22
Note ON: Time 92160, Note Name: C#3, Velocity: 26
Note OFF: Time 92640, Note Name: C#3
Note OFF: Time 92640, Note Name: F#2
Note ON: Time 92640, Note Name: F#2, Velocity: 20
Note ON: Time 92640, Note Name: C#3, Velocity: 23
Note OFF: Time 93120, Note Name: C#3
Note OFF: Time 93120, Note Name: F#2
Note ON: Time 93120, Note Name: F#2, Velocity: 20
Note ON: Time 93120, Note Name: C#3, Velocity: 23
Note OFF: Time 93600, Note Name: C#3
Note OFF: Time 93600, Note Name: F#2
Note ON: Time 93600, Note Name: F#2, Velocity: 22
Note ON: Time 93600, Note Name: C#3, Velocity: 26
Note OFF: Time 94080, Note Name: C#3
Note OFF: Time 94080, Note Name: F#2
Note ON: Time 94080, Note Name: F#2, Velocity: 20
Note ON: Time 94080, Note Name: C#3, Velocity: 23
Note OFF: Time 94560, Note Name: C#3
Note OFF: Time 94560, Note Name: F#2
Note ON: Time 94560, Note Name: F#2, Velocity: 20
Note ON: Time 94560, Note Name: C#3, Velocity: 23
Note OFF: Time 95040, Note Name: C#3
Note OFF: Time 95040, Note Name: F#2
Note ON: Time 95040, Note Name: F#2, Velocity: 22
Note ON: Time 95040, Note Name: C#3, Velocity: 26
Note OFF: Time 95520, Note Name: C#3
Note OFF: Time 95520, Note Name: F#2
Note ON: Time 95520, Note Name: F#2, Velocity: 20
Note ON: Time 95520, Note Name: C#3, Velocity: 23
Note OFF: Time 96000, Note Name: C#3
Note OFF: Time 96000, Note Name: F#2
Note ON: Time 96000, Note Name: F#2, Velocity: 20
Note ON: Time 96000, Note Name: C#3, Velocity: 23
Note OFF: Time 96480, Note Name: C#3
Note OFF: Time 96480, Note Name: F#2
Note ON: Time 96480, Note Name: F#2, Velocity: 22
Note ON: Time 96480, Note Name: C#3, Velocity: 26
Note OFF: Time 96960, Note Name: C#3
Note OFF: Time 96960, Note Name: F#2
Note ON: Time 96960, Note Name: F#2, Velocity: 20
Note ON: Time 96960, Note Name: C#3, Velocity: 23
Note OFF: Time 97440, Note Name: C#3
Note OFF: Time 97440, Note Name: F#2
Note ON: Time 97440, Note Name: F#2, Velocity: 20
Note ON: Time 97440, Note Name: C#3, Velocity: 23
Note OFF: Time 97920, Note Name: C#3
Note OFF: Time 97920, Note Name: F#2
Note ON: Time 97920, Note Name: F#2, Velocity: 22
Note ON: Time 97920, Note Name: C#3, Velocity: 26
Note OFF: Time 98400, Note Name: C#3
Note OFF: Time 98400, Note Name: F#2
Note ON: Time 98400, Note Name: F#2, Velocity: 20
Note ON: Time 98400, Note Name: C#3, Velocity: 23
Note OFF: Time 98880, Note Name: C#3
Note OFF: Time 98880, Note Name: F#2
Note ON: Time 98880, Note Name: F#2, Velocity: 20
Note ON: Time 98880, Note Name: C#3, Velocity: 23
Note OFF: Time 99360, Note Name: C#3
Note OFF: Time 99360, Note Name: F#2
Note ON: Time 99360, Note Name: F#2, Velocity: 22
Note ON: Time 99360, Note Name: C#3, Velocity: 26
Note OFF: Time 99840, Note Name: C#3
Note OFF: Time 99840, Note Name: F#2
Note ON: Time 99840, Note Name: F#2, Velocity: 20
Note ON: Time 99840, Note Name: C#3, Velocity: 23
Note OFF: Time 100320, Note Name: C#3
Note OFF: Time 100320, Note Name: F#2
Note ON: Time 100320, Note Name: F#2, Velocity: 20
Note ON: Time 100320, Note Name: C#3, Velocity: 23
Note OFF: Time 100800, Note Name: C#3
Note OFF: Time 100800, Note Name: F#2
Note ON: Time 100800, Note Name: F#2, Velocity: 22
Note ON: Time 100800, Note Name: C#3, Velocity: 26
Note OFF: Time 101280, Note Name: C#3
Note OFF: Time 101280, Note Name: F#2
Note ON: Time 101280, Note Name: F#2, Velocity: 20
Note ON: Time 101280, Note Name: C#3, Velocity: 23
Note OFF: Time 101760, Note Name: C#3
Note OFF: Time 101760, Note Name: F#2
Note ON: Time 101760, Note Name: F#2, Velocity: 20
Note ON: Time 101760, Note Name: C#3, Velocity: 23
Note OFF: Time 102240, Note Name: C#3
Note OFF: Time 102240, Note Name: F#2
Note ON: Time 102240, Note Name: F2, Velocity: 22
Note ON: Time 102240, Note Name: C#3, Velocity: 26
Note OFF: Time 102720, Note Name: C#3
Note ON: Time 102720, Note Name: C3, Velocity: 23
Note OFF: Time 103680, Note Name: C3
Note OFF: Time 103680, Note Name: F2
Note ON: Time 103680, Note Name: F2, Velocity: 70
Note OFF: Time 103920, Note Name: F2
Note ON: Time 104160, Note Name: D#4, Velocity: 59
Note ON: Time 104160, Note Name: C4, Velocity: 50
Note ON: Time 104160, Note Name: F3, Velocity: 50
Note OFF: Time 104640, Note Name: F3
Note OFF: Time 104640, Note Name: C4
Note OFF: Time 104640, Note Name: D#4
Note ON: Time 104640, Note Name: D#4, Velocity: 60
Note ON: Time 104640, Note Name: C4, Velocity: 51
Note ON: Time 104640, Note Name: F3, Velocity: 51
Note OFF: Time 105120, Note Name: F3
Note OFF: Time 105120, Note Name: C4
Note OFF: Time 105120, Note Name: D#4
Note ON: Time 105120, Note Name: A#2, Velocity: 70
Note OFF: Time 105360, Note Name: A#2
Note ON: Time 105600, Note Name: D4, Velocity: 52
Note ON: Time 105600, Note Name: A#3, Velocity: 52
Note ON: Time 105600, Note Name: F3, Velocity: 52
Note OFF: Time 106080, Note Name: F3
Note OFF: Time 106080, Note Name: A#3
Note OFF: Time 106080, Note Name: D4
Note ON: Time 106080, Note Name: A#2, Velocity: 62
Note OFF: Time 106320, Note Name: A#2
Note ON: Time 106560, Note Name: D#2, Velocity: 68
Note ON: Time 106560, Note Name: D#3, Velocity: 80
Note OFF: Time 106950, Note Name: D#3
Note OFF: Time 106950, Note Name: D#2
Note ON: Time 106950, Note Name: G3, Velocity: 59
Note ON: Time 106980, Note Name: A#3, Velocity: 59
Note ON: Time 107010, Note Name: D#4, Velocity: 59
Note ON: Time 107040, Note Name: G4, Velocity: 70
Note OFF: Time 107520, Note Name: G4
Note OFF: Time 107520, Note Name: G3
Note OFF: Time 107520, Note Name: A#3
Note OFF: Time 107520, Note Name: D#4
Note ON: Time 108000, Note Name: A#2, Velocity: 48
Note OFF: Time 108240, Note Name: A#2
Note ON: Time 108480, Note Name: D4, Velocity: 31
Note ON: Time 108480, Note Name: A#3, Velocity: 27
Note ON: Time 108480, Note Name: F3, Velocity: 27
Note OFF: Time 108960, Note Name: F3
Note OFF: Time 108960, Note Name: A#3
Note OFF: Time 108960, Note Name: D4
Note ON: Time 108960, Note Name: D4, Velocity: 29
Note ON: Time 108960, Note Name: A#3, Velocity: 24
Note ON: Time 108960, Note Name: F3, Velocity: 24
Note OFF: Time 109440, Note Name: F3
Note OFF: Time 109440, Note Name: A#3
Note OFF: Time 109440, Note Name: D4
Note ON: Time 109440, Note Name: F2, Velocity: 45
Note OFF: Time 109680, Note Name: F2
Note ON: Time 109920, Note Name: D#4, Velocity: 30
Note ON: Time 109920, Note Name: C4, Velocity: 26
Note ON: Time 109920, Note Name: F3, Velocity: 26
Note OFF: Time 110400, Note Name: F3
Note OFF: Time 110400, Note Name: C4
Note OFF: Time 110400, Note Name: D#4
Note ON: Time 110400, Note Name: D#4, Velocity: 28
Note ON: Time 110400, Note Name: C4, Velocity: 23
Note ON: Time 110400, Note Name: F3, Velocity: 23
Note OFF: Time 110880, Note Name: F3
Note OFF: Time 110880, Note Name: C4
Note OFF: Time 110880, Note Name: D#4
Note ON: Time 110880, Note Name: A#2, Velocity: 48
Note OFF: Time 111120, Note Name: A#2
Note ON: Time 111360, Note Name: D4, Velocity: 31
Note ON: Time 111360, Note Name: A#3, Velocity: 27
Note ON: Time 111360, Note Name: F3, Velocity: 27
Note OFF: Time 111840, Note Name: F3
Note OFF: Time 111840, Note Name: A#3
Note OFF: Time 111840, Note Name: D4
Note ON: Time 111840, Note Name: D4, Velocity: 29
Note ON: Time 111840, Note Name: A#3, Velocity: 24
Note ON: Time 111840, Note Name: F3, Velocity: 24
Note OFF: Time 112320, Note Name: F3
Note OFF: Time 112320, Note Name: A#3
Note OFF: Time 112320, Note Name: D4
Note ON: Time 112320, Note Name: F2, Velocity: 57
Note OFF: Time 112560, Note Name: F2
Note ON: Time 112800, Note Name: F3, Velocity: 39
Note ON: Time 112800, Note Name: D#4, Velocity: 47
Note OFF: Time 113280, Note Name: D#4
Note OFF: Time 113280, Note Name: F3
Note ON: Time 113280, Note Name: F3, Velocity: 39
Note ON: Time 113280, Note Name: A3, Velocity: 39
Note ON: Time 113280, Note Name: D#4, Velocity: 46
Note OFF: Time 113760, Note Name: D#4
Note OFF: Time 113760, Note Name: A3
Note OFF: Time 113760, Note Name: F3
Note ON: Time 113760, Note Name: A#2, Velocity: 57
Note OFF: Time 114000, Note Name: A#2
Note ON: Time 114240, Note Name: F3, Velocity: 39
Note ON: Time 114240, Note Name: A#3, Velocity: 39
Note ON: Time 114240, Note Name: D4, Velocity: 47
Note OFF: Time 114720, Note Name: D4
Note OFF: Time 114720, Note Name: A#3
Note OFF: Time 114720, Note Name: F3
Note ON: Time 114720, Note Name: F3, Velocity: 39
Note ON: Time 114720, Note Name: A#3, Velocity: 39
Note ON: Time 114720, Note Name: D4, Velocity: 46
Note OFF: Time 115200, Note Name: D4
Note OFF: Time 115200, Note Name: A#3
Note OFF: Time 115200, Note Name: F3
Note ON: Time 115200, Note Name: A#2, Velocity: 40
Note OFF: Time 115440, Note Name: A#2
Note ON: Time 115680, Note Name: D#4, Velocity: 27
Note ON: Time 115680, Note Name: C4, Velocity: 22
Note ON: Time 115680, Note Name: F3, Velocity: 22
Note OFF: Time 116160, Note Name: F3
Note OFF: Time 116160, Note Name: C4
Note OFF: Time 116160, Note Name: D#4
Note ON: Time 116160, Note Name: D#4, Velocity: 25
Note ON: Time 116160, Note Name: C4, Velocity: 21
Note ON: Time 116160, Note Name: F3, Velocity: 21
Note OFF: Time 116640, Note Name: F3
Note OFF: Time 116640, Note Name: C4
Note OFF: Time 116640, Note Name: D#4
Note ON: Time 116640, Note Name: A#2, Velocity: 43
Note OFF: Time 116880, Note Name: A#2
Note ON: Time 117120, Note Name: D4, Velocity: 28
Note ON: Time 117120, Note Name: A#3, Velocity: 23
Note ON: Time 117120, Note Name: F3, Velocity: 23
Note OFF: Time 117600, Note Name: F3
Note OFF: Time 117600, Note Name: A#3
Note OFF: Time 117600, Note Name: D4
Note ON: Time 117600, Note Name: D4, Velocity: 26
Note ON: Time 117600, Note Name: A#3, Velocity: 22
Note ON: Time 117600, Note Name: F3, Velocity: 22
Note OFF: Time 118080, Note Name: F3
Note OFF: Time 118080, Note Name: A#3
Note OFF: Time 118080, Note Name: D4
Note ON: Time 118080, Note Name: F2, Velocity: 57
Note OFF: Time 118320, Note Name: F2
Note ON: Time 118560, Note Name: F3, Velocity: 39
Note ON: Time 118560, Note Name: D#4, Velocity: 47
Note OFF: Time 119040, Note Name: D#4
Note OFF: Time 119040, Note Name: F3
Note ON: Time 119040, Note Name: F3, Velocity: 39
Note ON: Time 119040, Note Name: A3, Velocity: 39
Note ON: Time 119040, Note Name: D#4, Velocity: 46
Note OFF: Time 119520, Note Name: D#4
Note OFF: Time 119520, Note Name: A3
Note OFF: Time 119520, Note Name: F3
Note ON: Time 119520, Note Name: A#2, Velocity: 57
Note OFF: Time 119760, Note Name: A#2
Note ON: Time 120000, Note Name: F3, Velocity: 39
Note ON: Time 120000, Note Name: A#3, Velocity: 39
Note ON: Time 120000, Note Name: D4, Velocity: 47
Note OFF: Time 120480, Note Name: D4
Note OFF: Time 120480, Note Name: A#3
Note OFF: Time 120480, Note Name: F3
Note ON: Time 120480, Note Name: A#2, Velocity: 48
Note OFF: Time 120960, Note Name: A#2
Note ON: Time 120960, Note Name: F#2, Velocity: 22
Note ON: Time 120960, Note Name: C#3, Velocity: 26
Note OFF: Time 121440, Note Name: C#3
Note OFF: Time 121440, Note Name: F#2
Note ON: Time 121440, Note Name: F#2, Velocity: 20
Note ON: Time 121440, Note Name: C#3, Velocity: 23
Note OFF: Time 121920, Note Name: C#3
Note OFF: Time 121920, Note Name: F#2
Note ON: Time 121920, Note Name: F#2, Velocity: 20
Note ON: Time 121920, Note Name: C#3, Velocity: 23
Note OFF: Time 122400, Note Name: C#3
Note OFF: Time 122400, Note Name: F#2
Note ON: Time 122400, Note Name: F#2, Velocity: 22
Note ON: Time 122400, Note Name: C#3, Velocity: 26
Note OFF: Time 122880, Note Name: C#3
Note OFF: Time 122880, Note Name: F#2
Note ON: Time 122880, Note Name: F#2, Velocity: 20
Note ON: Time 122880, Note Name: C#3, Velocity: 23
Note OFF: Time 123360, Note Name: C#3
Note OFF: Time 123360, Note Name: F#2
Note ON: Time 123360, Note Name: F#2, Velocity: 20
Note ON: Time 123360, Note Name: C#3, Velocity: 23
Note OFF: Time 123840, Note Name: C#3
Note OFF: Time 123840, Note Name: F#2
Note ON: Time 123840, Note Name: F#2, Velocity: 22
Note ON: Time 123840, Note Name: C#3, Velocity: 26
Note OFF: Time 124320, Note Name: C#3
Note OFF: Time 124320, Note Name: F#2
Note ON: Time 124320, Note Name: F#2, Velocity: 20
Note ON: Time 124320, Note Name: C#3, Velocity: 23
Note OFF: Time 124800, Note Name: C#3
Note OFF: Time 124800, Note Name: F#2
Note ON: Time 124800, Note Name: F#2, Velocity: 20
Note ON: Time 124800, Note Name: C#3, Velocity: 23
Note OFF: Time 125280, Note Name: C#3
Note OFF: Time 125280, Note Name: F#2
Note ON: Time 125280, Note Name: F#2, Velocity: 22
Note ON: Time 125280, Note Name: C#3, Velocity: 26
Note OFF: Time 125760, Note Name: C#3
Note OFF: Time 125760, Note Name: F#2
Note ON: Time 125760, Note Name: F#2, Velocity: 20
Note ON: Time 125760, Note Name: C#3, Velocity: 23
Note OFF: Time 126240, Note Name: C#3
Note OFF: Time 126240, Note Name: F#2
Note ON: Time 126240, Note Name: F#2, Velocity: 20
Note ON: Time 126240, Note Name: C#3, Velocity: 23
Note OFF: Time 126720, Note Name: C#3
Note OFF: Time 126720, Note Name: F#2
Note ON: Time 126720, Note Name: F#2, Velocity: 22
Note ON: Time 126720, Note Name: C#3, Velocity: 26
Note OFF: Time 127200, Note Name: C#3
Note OFF: Time 127200, Note Name: F#2
Note ON: Time 127200, Note Name: F#2, Velocity: 20
Note ON: Time 127200, Note Name: C#3, Velocity: 23
Note OFF: Time 127680, Note Name: C#3
Note OFF: Time 127680, Note Name: F#2
Note ON: Time 127680, Note Name: F#2, Velocity: 20
Note ON: Time 127680, Note Name: C#3, Velocity: 23
Note OFF: Time 128160, Note Name: C#3
Note OFF: Time 128160, Note Name: F#2
Note ON: Time 128160, Note Name: F#2, Velocity: 22
Note ON: Time 128160, Note Name: C#3, Velocity: 26
Note OFF: Time 128640, Note Name: C#3
Note OFF: Time 128640, Note Name: F#2
Note ON: Time 128640, Note Name: F#2, Velocity: 20
Note ON: Time 128640, Note Name: C#3, Velocity: 23
Note OFF: Time 129120, Note Name: C#3
Note OFF: Time 129120, Note Name: F#2
Note ON: Time 129120, Note Name: F#2, Velocity: 20
Note ON: Time 129120, Note Name: C#3, Velocity: 23
Note OFF: Time 129600, Note Name: C#3
Note OFF: Time 129600, Note Name: F#2
Note ON: Time 129600, Note Name: F#2, Velocity: 22
Note ON: Time 129600, Note Name: C#3, Velocity: 26
Note OFF: Time 130080, Note Name: C#3
Note OFF: Time 130080, Note Name: F#2
Note ON: Time 130080, Note Name: F#2, Velocity: 20
Note ON: Time 130080, Note Name: C#3, Velocity: 23
Note OFF: Time 130560, Note Name: C#3
Note OFF: Time 130560, Note Name: F#2
Note ON: Time 130560, Note Name: F#2, Velocity: 20
Note ON: Time 130560, Note Name: C#3, Velocity: 23
Note OFF: Time 131040, Note Name: C#3
Note OFF: Time 131040, Note Name: F#2
Note ON: Time 131040, Note Name: F2, Velocity: 22
Note ON: Time 131040, Note Name: C#3, Velocity: 26
Note OFF: Time 131520, Note Name: C#3
Note ON: Time 131520, Note Name: C3, Velocity: 23
Note OFF: Time 132480, Note Name: C3
Note OFF: Time 132480, Note Name: F2
Note ON: Time 132480, Note Name: F2, Velocity: 70
Note OFF: Time 132720, Note Name: F2
Note ON: Time 132960, Note Name: D#4, Velocity: 59
Note ON: Time 132960, Note Name: C4, Velocity: 50
Note ON: Time 132960, Note Name: F3, Velocity: 50
Note OFF: Time 133440, Note Name: F3
Note OFF: Time 133440, Note Name: C4
Note OFF: Time 133440, Note Name: D#4
Note ON: Time 133440, Note Name: D#4, Velocity: 60
Note ON: Time 133440, Note Name: C4, Velocity: 51
Note ON: Time 133440, Note Name: F3, Velocity: 51
Note OFF: Time 133920, Note Name: F3
Note OFF: Time 133920, Note Name: C4
Note OFF: Time 133920, Note Name: D#4
Note ON: Time 133920, Note Name: A#2, Velocity: 70
Note OFF: Time 134160, Note Name: A#2
Note ON: Time 134400, Note Name: D4, Velocity: 52
Note ON: Time 134400, Note Name: A#3, Velocity: 52
Note ON: Time 134400, Note Name: F3, Velocity: 52
Note OFF: Time 134880, Note Name: F3
Note OFF: Time 134880, Note Name: A#3
Note OFF: Time 134880, Note Name: D4
Note ON: Time 134880, Note Name: A#2, Velocity: 62
Note OFF: Time 135120, Note Name: A#2
Note ON: Time 135360, Note Name: D#2, Velocity: 68
Note ON: Time 135360, Note Name: D#3, Velocity: 80
Note OFF: Time 135750, Note Name: D#3
Note OFF: Time 135750, Note Name: D#2
Note ON: Time 135750, Note Name: G3, Velocity: 59
Note ON: Time 135780, Note Name: A#3, Velocity: 59
Note ON: Time 135810, Note Name: D#4, Velocity: 59
Note ON: Time 135840, Note Name: G4, Velocity: 70
Note OFF: Time 136320, Note Name: G4
Note OFF: Time 136320, Note Name: G3
Note OFF: Time 136320, Note Name: A#3
Note OFF: Time 136320, Note Name: D#4
Note ON: Time 136800, Note Name: A#2, Velocity: 48
Note OFF: Time 137040, Note Name: A#2
Note ON: Time 137280, Note Name: D4, Velocity: 31
Note ON: Time 137280, Note Name: A#3, Velocity: 27
Note ON: Time 137280, Note Name: F3, Velocity: 27
Note OFF: Time 137760, Note Name: F3
Note OFF: Time 137760, Note Name: A#3
Note OFF: Time 137760, Note Name: D4
Note ON: Time 137760, Note Name: D4, Velocity: 29
Note ON: Time 137760, Note Name: A#3, Velocity: 24
Note ON: Time 137760, Note Name: F3, Velocity: 24
Note OFF: Time 138240, Note Name: F3
Note OFF: Time 138240, Note Name: A#3
Note OFF: Time 138240, Note Name: D4
Note ON: Time 138240, Note Name: F2, Velocity: 45
Note OFF: Time 138480, Note Name: F2
Note ON: Time 138720, Note Name: D#4, Velocity: 30
Note ON: Time 138720, Note Name: C4, Velocity: 26
Note ON: Time 138720, Note Name: F3, Velocity: 26
Note OFF: Time 139200, Note Name: F3
Note OFF: Time 139200, Note Name: C4
Note OFF: Time 139200, Note Name: D#4
Note ON: Time 139200, Note Name: D#4, Velocity: 28
Note ON: Time 139200, Note Name: C4, Velocity: 23
Note ON: Time 139200, Note Name: F3, Velocity: 23
Note OFF: Time 139680, Note Name: F3
Note OFF: Time 139680, Note Name: C4
Note OFF: Time 139680, Note Name: D#4
Note ON: Time 139680, Note Name: A#2, Velocity: 48
Note OFF: Time 139920, Note Name: A#2
Note ON: Time 140160, Note Name: D4, Velocity: 31
Note ON: Time 140160, Note Name: A#3, Velocity: 27
Note ON: Time 140160, Note Name: F3, Velocity: 27
Note OFF: Time 140640, Note Name: F3
Note OFF: Time 140640, Note Name: A#3
Note OFF: Time 140640, Note Name: D4
Note ON: Time 140640, Note Name: D4, Velocity: 29
Note ON: Time 140640, Note Name: A#3, Velocity: 24
Note ON: Time 140640, Note Name: F3, Velocity: 24
Note OFF: Time 141120, Note Name: F3
Note OFF: Time 141120, Note Name: A#3
Note OFF: Time 141120, Note Name: D4
Note ON: Time 141120, Note Name: F2, Velocity: 57
Note OFF: Time 141360, Note Name: F2
Note ON: Time 141600, Note Name: F3, Velocity: 39
Note ON: Time 141600, Note Name: D#4, Velocity: 47
Note OFF: Time 142080, Note Name: D#4
Note OFF: Time 142080, Note Name: F3
Note ON: Time 142080, Note Name: F3, Velocity: 39
Note ON: Time 142080, Note Name: A3, Velocity: 39
Note ON: Time 142080, Note Name: D#4, Velocity: 46
Note OFF: Time 142560, Note Name: D#4
Note OFF: Time 142560, Note Name: A3
Note OFF: Time 142560, Note Name: F3
Note ON: Time 142560, Note Name: A#2, Velocity: 51
Note OFF: Time 142800, Note Name: A#2
Note ON: Time 143040, Note Name: F3, Velocity: 31
Note ON: Time 143040, Note Name: A#3, Velocity: 31
Note ON: Time 143040, Note Name: D4, Velocity: 37
Note OFF: Time 143520, Note Name: D4
Note OFF: Time 143520, Note Name: A#3
Note OFF: Time 143520, Note Name: F3
Note ON: Time 143520, Note Name: F3, Velocity: 31
Note ON: Time 143520, Note Name: A#3, Velocity: 31
Note ON: Time 143520, Note Name: D4, Velocity: 36
Note OFF: Time 144000, Note Name: D4
Note OFF: Time 144000, Note Name: A#3
Note OFF: Time 144000, Note Name: F3
Note ON: Time 144000, Note Name: A#2, Velocity: 40
Note OFF: Time 144240, Note Name: A#2
Note ON: Time 144480, Note Name: D#4, Velocity: 27
Note ON: Time 144480, Note Name: C4, Velocity: 22
Note ON: Time 144480, Note Name: F3, Velocity: 22
Note OFF: Time 144960, Note Name: F3
Note OFF: Time 144960, Note Name: C4
Note OFF: Time 144960, Note Name: D#4
Note ON: Time 144960, Note Name: D#4, Velocity: 25
Note ON: Time 144960, Note Name: C4, Velocity: 21
Note ON: Time 144960, Note Name: F3, Velocity: 21
Note OFF: Time 145440, Note Name: F3
Note OFF: Time 145440, Note Name: C4
Note OFF: Time 145440, Note Name: D#4
Note ON: Time 145440, Note Name: A#2, Velocity: 43
Note OFF: Time 145680, Note Name: A#2
Note ON: Time 145920, Note Name: D4, Velocity: 28
Note ON: Time 145920, Note Name: A#3, Velocity: 23
Note ON: Time 145920, Note Name: F3, Velocity: 23
Note OFF: Time 146400, Note Name: F3
Note OFF: Time 146400, Note Name: A#3
Note OFF: Time 146400, Note Name: D4
Note ON: Time 146400, Note Name: D4, Velocity: 26
Note ON: Time 146400, Note Name: A#3, Velocity: 22
Note ON: Time 146400, Note Name: F3, Velocity: 22
Note OFF: Time 146880, Note Name: F3
Note OFF: Time 146880, Note Name: A#3
Note OFF: Time 146880, Note Name: D4
Note ON: Time 146880, Note Name: F2, Velocity: 57
Note OFF: Time 147120, Note Name: F2
Note ON: Time 147360, Note Name: F3, Velocity: 41
Note ON: Time 147360, Note Name: D#4, Velocity: 49
Note OFF: Time 147840, Note Name: D#4
Note OFF: Time 147840, Note Name: F3
Note ON: Time 147840, Note Name: F3, Velocity: 44
Note ON: Time 147840, Note Name: A3, Velocity: 44
Note ON: Time 147840, Note Name: D#4, Velocity: 51
Note OFF: Time 148320, Note Name: D#4
Note OFF: Time 148320, Note Name: A3
Note OFF: Time 148320, Note Name: F3
Note ON: Time 148320, Note Name: A#2, Velocity: 68
Note OFF: Time 148800, Note Name: A#2
Note ON: Time 148800, Note Name: A#2, Velocity: 46
Note ON: Time 148800, Note Name: F3, Velocity: 46
Note ON: Time 148800, Note Name: D4, Velocity: 56
Note OFF: Time 149760, Note Name: D4
Note OFF: Time 149760, Note Name: F3
Note OFF: Time 149760, Note Name: A#2
Track 3: Chopin: Mazurka Opus 7 No 1
Track 4: Copyright  2003 by Bernd Krueger
Track 5: http://www.piano-midi.de
Track 6: Edition: 2014-02-11
Track 7: Spur 7
