Processing chpn_op66.mid...

Track 0: Chopin Fantasie-Impromptu in C# minor Opus 66
Track 1: Piano right
Note ON: Time 7800, Note Name: G#4, Velocity: 37
Note OFF: Time 7920, Note Name: G#4
Note ON: Time 7920, Note Name: A4, Velocity: 41
Note OFF: Time 8040, Note Name: A4
Note ON: Time 8040, Note Name: G#4, Velocity: 38
Note OFF: Time 8160, Note Name: G#4
Note ON: Time 8160, Note Name: G4, Velocity: 39
Note OFF: Time 8280, Note Name: G4
Note ON: Time 8280, Note Name: G#4, Velocity: 40
Note OFF: Time 8400, Note Name: G#4
Note ON: Time 8400, Note Name: C#5, Velocity: 42
Note OFF: Time 8520, Note Name: C#5
Note ON: Time 8520, Note Name: E5, Velocity: 43
Note OFF: Time 8640, Note Name: E5
Note ON: Time 8640, Note Name: D#5, Velocity: 45
Note OFF: Time 8760, Note Name: D#5
Note ON: Time 8760, Note Name: C#5, Velocity: 43
Note OFF: Time 8880, Note Name: C#5
Note ON: Time 8880, Note Name: D#5, Velocity: 45
Note OFF: Time 9000, Note Name: D#5
Note ON: Time 9000, Note Name: C#5, Velocity: 43
Note OFF: Time 9120, Note Name: C#5
Note ON: Time 9120, Note Name: C5, Velocity: 44
Note OFF: Time 9240, Note Name: C5
Note ON: Time 9240, Note Name: C#5, Velocity: 46
Note OFF: Time 9360, Note Name: C#5
Note ON: Time 9360, Note Name: E5, Velocity: 49
Note OFF: Time 9480, Note Name: E5
Note ON: Time 9480, Note Name: G#5, Velocity: 47
Note OFF: Time 9600, Note Name: G#5
Note ON: Time 9720, Note Name: G#4, Velocity: 45
Note OFF: Time 9840, Note Name: G#4
Note ON: Time 9840, Note Name: A4, Velocity: 49
Note OFF: Time 9960, Note Name: A4
Note ON: Time 9960, Note Name: G#4, Velocity: 45
Note OFF: Time 10080, Note Name: G#4
Note ON: Time 10080, Note Name: G4, Velocity: 46
Note OFF: Time 10200, Note Name: G4
Note ON: Time 10200, Note Name: G#4, Velocity: 48
Note OFF: Time 10320, Note Name: G#4
Note ON: Time 10320, Note Name: C#5, Velocity: 50
Note OFF: Time 10440, Note Name: C#5
Note ON: Time 10440, Note Name: E5, Velocity: 51
Note OFF: Time 10560, Note Name: E5
Note ON: Time 10560, Note Name: D#5, Velocity: 54
Note OFF: Time 10680, Note Name: D#5
Note ON: Time 10680, Note Name: C#5, Velocity: 51
Note OFF: Time 10800, Note Name: C#5
Note ON: Time 10800, Note Name: D#5, Velocity: 53
Note OFF: Time 10920, Note Name: D#5
Note ON: Time 10920, Note Name: C#5, Velocity: 51
Note OFF: Time 11040, Note Name: C#5
Note ON: Time 11040, Note Name: C5, Velocity: 52
Note OFF: Time 11160, Note Name: C5
Note ON: Time 11160, Note Name: C#5, Velocity: 54
Note OFF: Time 11280, Note Name: C#5
Note ON: Time 11280, Note Name: E5, Velocity: 57
Note OFF: Time 11400, Note Name: E5
Note ON: Time 11400, Note Name: G#5, Velocity: 55
Note OFF: Time 11520, Note Name: G#5
Note ON: Time 11640, Note Name: A4, Velocity: 55
Note OFF: Time 11760, Note Name: A4
Note ON: Time 11760, Note Name: C#5, Velocity: 55
Note OFF: Time 11880, Note Name: C#5
Note ON: Time 11880, Note Name: D#5, Velocity: 58
Note OFF: Time 12000, Note Name: D#5
Note ON: Time 12000, Note Name: F#5, Velocity: 61
Note OFF: Time 12120, Note Name: F#5
Note ON: Time 12120, Note Name: A5, Velocity: 64
Note OFF: Time 12240, Note Name: A5
Note ON: Time 12240, Note Name: C#6, Velocity: 67
Note OFF: Time 12360, Note Name: C#6
Note ON: Time 12360, Note Name: D#6, Velocity: 70
Note OFF: Time 12480, Note Name: D#6
Note ON: Time 12480, Note Name: B6, Velocity: 74
Note OFF: Time 12600, Note Name: B6
Note ON: Time 12600, Note Name: A6, Velocity: 72
Note OFF: Time 12720, Note Name: A6
Note ON: Time 12720, Note Name: G#6, Velocity: 71
Note OFF: Time 12840, Note Name: G#6
Note ON: Time 12840, Note Name: F#6, Velocity: 70
Note OFF: Time 12960, Note Name: F#6
Note ON: Time 12960, Note Name: E6, Velocity: 69
Note OFF: Time 13080, Note Name: E6
Note ON: Time 13080, Note Name: D#6, Velocity: 68
Note OFF: Time 13200, Note Name: D#6
Note ON: Time 13200, Note Name: F#6, Velocity: 67
Note OFF: Time 13320, Note Name: F#6
Note ON: Time 13320, Note Name: C#6, Velocity: 66
Note OFF: Time 13440, Note Name: C#6
Note ON: Time 13440, Note Name: C6, Velocity: 68
Note OFF: Time 13560, Note Name: C6
Note ON: Time 13560, Note Name: D#6, Velocity: 63
Note OFF: Time 13680, Note Name: D#6
Note ON: Time 13680, Note Name: A5, Velocity: 63
Note OFF: Time 13800, Note Name: A5
Note ON: Time 13800, Note Name: G#5, Velocity: 63
Note OFF: Time 13920, Note Name: G#5
Note ON: Time 13920, Note Name: F#5, Velocity: 60
Note OFF: Time 14040, Note Name: F#5
Note ON: Time 14040, Note Name: A5, Velocity: 58
Note OFF: Time 14160, Note Name: A5
Note ON: Time 14160, Note Name: E5, Velocity: 54
Note OFF: Time 14280, Note Name: E5
Note ON: Time 14280, Note Name: D#5, Velocity: 54
Note OFF: Time 14400, Note Name: D#5
Note ON: Time 14400, Note Name: F#5, Velocity: 53
Note OFF: Time 14520, Note Name: F#5
Note ON: Time 14520, Note Name: C#5, Velocity: 48
Note OFF: Time 14640, Note Name: C#5
Note ON: Time 14640, Note Name: C5, Velocity: 48
Note OFF: Time 14760, Note Name: C5
Note ON: Time 14760, Note Name: D#5, Velocity: 47
Note OFF: Time 14880, Note Name: D#5
Note ON: Time 14880, Note Name: A4, Velocity: 45
Note OFF: Time 15000, Note Name: A4
Note ON: Time 15000, Note Name: G#4, Velocity: 42
Note OFF: Time 15120, Note Name: G#4
Note ON: Time 15120, Note Name: B4, Velocity: 42
Note OFF: Time 15240, Note Name: B4
Note ON: Time 15240, Note Name: A4, Velocity: 41
Note OFF: Time 15480, Note Name: A4
Note ON: Time 15480, Note Name: G#4, Velocity: 37
Note OFF: Time 15600, Note Name: G#4
Note ON: Time 15600, Note Name: A4, Velocity: 41
Note OFF: Time 15720, Note Name: A4
Note ON: Time 15720, Note Name: G#4, Velocity: 38
Note OFF: Time 15840, Note Name: G#4
Note ON: Time 15840, Note Name: G4, Velocity: 39
Note OFF: Time 15960, Note Name: G4
Note ON: Time 15960, Note Name: G#4, Velocity: 40
Note OFF: Time 16080, Note Name: G#4
Note ON: Time 16080, Note Name: C#5, Velocity: 42
Note OFF: Time 16200, Note Name: C#5
Note ON: Time 16200, Note Name: E5, Velocity: 43
Note OFF: Time 16320, Note Name: E5
Note ON: Time 16320, Note Name: D#5, Velocity: 45
Note OFF: Time 16440, Note Name: D#5
Note ON: Time 16440, Note Name: C#5, Velocity: 43
Note OFF: Time 16560, Note Name: C#5
Note ON: Time 16560, Note Name: D#5, Velocity: 45
Note OFF: Time 16680, Note Name: D#5
Note ON: Time 16680, Note Name: C#5, Velocity: 43
Note OFF: Time 16800, Note Name: C#5
Note ON: Time 16800, Note Name: C5, Velocity: 44
Note OFF: Time 16920, Note Name: C5
Note ON: Time 16920, Note Name: C#5, Velocity: 46
Note OFF: Time 17040, Note Name: C#5
Note ON: Time 17040, Note Name: E5, Velocity: 49
Note OFF: Time 17160, Note Name: E5
Note ON: Time 17160, Note Name: G#5, Velocity: 47
Note OFF: Time 17280, Note Name: G#5
Note ON: Time 17400, Note Name: G#4, Velocity: 45
Note OFF: Time 17520, Note Name: G#4
Note ON: Time 17520, Note Name: A#4, Velocity: 49
Note OFF: Time 17640, Note Name: A#4
Note ON: Time 17640, Note Name: G#4, Velocity: 45
Note OFF: Time 17760, Note Name: G#4
Note ON: Time 17760, Note Name: G4, Velocity: 46
Note OFF: Time 17880, Note Name: G4
Note ON: Time 17880, Note Name: G#4, Velocity: 48
Note OFF: Time 18000, Note Name: G#4
Note ON: Time 18000, Note Name: C#5, Velocity: 50
Note OFF: Time 18120, Note Name: C#5
Note ON: Time 18120, Note Name: E5, Velocity: 51
Note OFF: Time 18240, Note Name: E5
Note ON: Time 18240, Note Name: D#5, Velocity: 54
Note OFF: Time 18360, Note Name: D#5
Note ON: Time 18360, Note Name: C#5, Velocity: 51
Note OFF: Time 18480, Note Name: C#5
Note ON: Time 18480, Note Name: D#5, Velocity: 53
Note OFF: Time 18600, Note Name: D#5
Note ON: Time 18600, Note Name: C#5, Velocity: 51
Note OFF: Time 18720, Note Name: C#5
Note ON: Time 18720, Note Name: C5, Velocity: 52
Note OFF: Time 18840, Note Name: C5
Note ON: Time 18840, Note Name: C#5, Velocity: 54
Note OFF: Time 18960, Note Name: C#5
Note ON: Time 18960, Note Name: E5, Velocity: 57
Note OFF: Time 19080, Note Name: E5
Note ON: Time 19080, Note Name: G#5, Velocity: 55
Note OFF: Time 19200, Note Name: G#5
Note ON: Time 19200, Note Name: D#5, Velocity: 64
Note OFF: Time 19320, Note Name: D#5
Note ON: Time 19320, Note Name: E5, Velocity: 58
Note OFF: Time 19440, Note Name: E5
Note ON: Time 19440, Note Name: D#5, Velocity: 61
Note OFF: Time 19560, Note Name: D#5
Note ON: Time 19560, Note Name: D5, Velocity: 50
Note OFF: Time 19680, Note Name: D5
Note ON: Time 19680, Note Name: D#5, Velocity: 56
Note OFF: Time 19800, Note Name: D#5
Note ON: Time 19800, Note Name: B5, Velocity: 68
Note OFF: Time 19920, Note Name: B5
Note ON: Time 19920, Note Name: A#5, Velocity: 62
Note OFF: Time 20040, Note Name: A#5
Note ON: Time 20040, Note Name: G#5, Velocity: 65
Note OFF: Time 20160, Note Name: G#5
Note ON: Time 20160, Note Name: G5, Velocity: 69
Note OFF: Time 20280, Note Name: G5
Note ON: Time 20280, Note Name: E6, Velocity: 73
Note OFF: Time 20400, Note Name: E6
Note ON: Time 20400, Note Name: D#6, Velocity: 72
Note OFF: Time 20520, Note Name: D#6
Note ON: Time 20520, Note Name: C#6, Velocity: 72
Note OFF: Time 20640, Note Name: C#6
Note ON: Time 20640, Note Name: B5, Velocity: 75
Note OFF: Time 20760, Note Name: B5
Note ON: Time 20760, Note Name: A#5, Velocity: 69
Note OFF: Time 20880, Note Name: A#5
Note ON: Time 20880, Note Name: G#5, Velocity: 68
Note OFF: Time 21000, Note Name: G#5
Note ON: Time 21000, Note Name: G5, Velocity: 68
Note OFF: Time 21120, Note Name: G5
Note ON: Time 21120, Note Name: A#5, Velocity: 72
Note OFF: Time 21240, Note Name: A#5
Note ON: Time 21240, Note Name: G#5, Velocity: 70
Note OFF: Time 21360, Note Name: G#5
Note ON: Time 21360, Note Name: B5, Velocity: 64
Note OFF: Time 21480, Note Name: B5
Note ON: Time 21480, Note Name: D5, Velocity: 57
Note OFF: Time 21600, Note Name: D5
Note ON: Time 21600, Note Name: E5, Velocity: 65
Note OFF: Time 21720, Note Name: E5
Note ON: Time 21720, Note Name: D#5, Velocity: 57
Note OFF: Time 21840, Note Name: D#5
Note ON: Time 21840, Note Name: G#5, Velocity: 63
Note OFF: Time 21960, Note Name: G#5
Note ON: Time 21960, Note Name: A#4, Velocity: 57
Note OFF: Time 22080, Note Name: A#4
Note ON: Time 22080, Note Name: C#5, Velocity: 61
Note OFF: Time 22200, Note Name: C#5
Note ON: Time 22200, Note Name: B4, Velocity: 59
Note OFF: Time 22320, Note Name: B4
Note ON: Time 22320, Note Name: D#5, Velocity: 58
Note OFF: Time 22440, Note Name: D#5
Note ON: Time 22440, Note Name: G4, Velocity: 56
Note OFF: Time 22560, Note Name: G4
Note ON: Time 22560, Note Name: A#4, Velocity: 60
Note OFF: Time 22680, Note Name: A#4
Note ON: Time 22680, Note Name: G#4, Velocity: 51
Note OFF: Time 22800, Note Name: G#4
Note ON: Time 22800, Note Name: G4, Velocity: 55
Note OFF: Time 22920, Note Name: G4
Note ON: Time 22920, Note Name: G#4, Velocity: 50
Note OFF: Time 23040, Note Name: G#4
Note ON: Time 23040, Note Name: G#4, Velocity: 72
Note OFF: Time 23160, Note Name: G#4
Note ON: Time 23160, Note Name: G#5, Velocity: 58
Note OFF: Time 23280, Note Name: G#5
Note ON: Time 23280, Note Name: C5, Velocity: 59
Note OFF: Time 23400, Note Name: C5
Note ON: Time 23400, Note Name: C#5, Velocity: 59
Note OFF: Time 23520, Note Name: C#5
Note ON: Time 23520, Note Name: F#4, Velocity: 71
Note OFF: Time 23640, Note Name: F#4
Note ON: Time 23640, Note Name: F#5, Velocity: 60
Note OFF: Time 23760, Note Name: F#5
Note ON: Time 23760, Note Name: C5, Velocity: 60
Note OFF: Time 23880, Note Name: C5
Note ON: Time 23880, Note Name: C#5, Velocity: 61
Note OFF: Time 24000, Note Name: C#5
Note ON: Time 24000, Note Name: F4, Velocity: 75
Note OFF: Time 24120, Note Name: F4
Note ON: Time 24120, Note Name: F5, Velocity: 62
Note OFF: Time 24240, Note Name: F5
Note ON: Time 24240, Note Name: C5, Velocity: 63
Note OFF: Time 24360, Note Name: C5
Note ON: Time 24360, Note Name: C#5, Velocity: 63
Note OFF: Time 24480, Note Name: C#5
Note ON: Time 24480, Note Name: F#4, Velocity: 74
Note OFF: Time 24600, Note Name: F#4
Note ON: Time 24600, Note Name: F#5, Velocity: 65
Note OFF: Time 24720, Note Name: F#5
Note ON: Time 24720, Note Name: C5, Velocity: 64
Note OFF: Time 24840, Note Name: C5
Note ON: Time 24840, Note Name: C#5, Velocity: 64
Note OFF: Time 24960, Note Name: C#5
Note ON: Time 24960, Note Name: C#4, Velocity: 77
Note OFF: Time 25080, Note Name: C#4
Note ON: Time 25080, Note Name: C#5, Velocity: 65
Note OFF: Time 25200, Note Name: C#5
Note ON: Time 25200, Note Name: F#4, Velocity: 65
Note OFF: Time 25320, Note Name: F#4
Note ON: Time 25320, Note Name: A4, Velocity: 65
Note OFF: Time 25440, Note Name: A4
Note ON: Time 25440, Note Name: D#4, Velocity: 75
Note OFF: Time 25560, Note Name: D#4
Note ON: Time 25560, Note Name: D#5, Velocity: 65
Note OFF: Time 25680, Note Name: D#5
Note ON: Time 25680, Note Name: F#4, Velocity: 65
Note OFF: Time 25800, Note Name: F#4
Note ON: Time 25800, Note Name: A4, Velocity: 65
Note OFF: Time 25920, Note Name: A4
Note ON: Time 25920, Note Name: E4, Velocity: 79
Note OFF: Time 26040, Note Name: E4
Note ON: Time 26040, Note Name: E5, Velocity: 66
Note OFF: Time 26160, Note Name: E5
Note ON: Time 26160, Note Name: G#4, Velocity: 66
Note OFF: Time 26280, Note Name: G#4
Note ON: Time 26280, Note Name: B4, Velocity: 66
Note OFF: Time 26400, Note Name: B4
Note ON: Time 26400, Note Name: G#4, Velocity: 77
Note OFF: Time 26520, Note Name: G#4
Note ON: Time 26520, Note Name: G#5, Velocity: 67
Note OFF: Time 26640, Note Name: G#5
Note ON: Time 26640, Note Name: B4, Velocity: 66
Note OFF: Time 26760, Note Name: B4
Note ON: Time 26760, Note Name: E5, Velocity: 65
Note OFF: Time 26880, Note Name: E5
Note ON: Time 26880, Note Name: G#4, Velocity: 81
Note OFF: Time 27000, Note Name: G#4
Note ON: Time 27000, Note Name: G#5, Velocity: 65
Note OFF: Time 27120, Note Name: G#5
Note ON: Time 27120, Note Name: C5, Velocity: 65
Note OFF: Time 27240, Note Name: C5
Note ON: Time 27240, Note Name: C#5, Velocity: 65
Note OFF: Time 27360, Note Name: C#5
Note ON: Time 27360, Note Name: F#4, Velocity: 78
Note OFF: Time 27480, Note Name: F#4
Note ON: Time 27480, Note Name: F#5, Velocity: 65
Note OFF: Time 27600, Note Name: F#5
Note ON: Time 27600, Note Name: C5, Velocity: 65
Note OFF: Time 27720, Note Name: C5
Note ON: Time 27720, Note Name: C#5, Velocity: 65
Note OFF: Time 27840, Note Name: C#5
Note ON: Time 27840, Note Name: F4, Velocity: 79
Note OFF: Time 27960, Note Name: F4
Note ON: Time 27960, Note Name: F5, Velocity: 66
Note OFF: Time 28080, Note Name: F5
Note ON: Time 28080, Note Name: C5, Velocity: 66
Note OFF: Time 28200, Note Name: C5
Note ON: Time 28200, Note Name: C#5, Velocity: 66
Note OFF: Time 28320, Note Name: C#5
Note ON: Time 28320, Note Name: F#4, Velocity: 77
Note OFF: Time 28440, Note Name: F#4
Note ON: Time 28440, Note Name: F#5, Velocity: 67
Note OFF: Time 28560, Note Name: F#5
Note ON: Time 28560, Note Name: C5, Velocity: 66
Note OFF: Time 28680, Note Name: C5
Note ON: Time 28680, Note Name: C#5, Velocity: 65
Note OFF: Time 28800, Note Name: C#5
Note ON: Time 28800, Note Name: F4, Velocity: 81
Note OFF: Time 28920, Note Name: F4
Note ON: Time 28920, Note Name: F5, Velocity: 65
Note OFF: Time 29040, Note Name: F5
Note ON: Time 29040, Note Name: B4, Velocity: 65
Note OFF: Time 29160, Note Name: B4
Note ON: Time 29160, Note Name: D#5, Velocity: 65
Note OFF: Time 29280, Note Name: D#5
Note ON: Time 29280, Note Name: F#4, Velocity: 78
Note OFF: Time 29400, Note Name: F#4
Note ON: Time 29400, Note Name: F#5, Velocity: 65
Note OFF: Time 29520, Note Name: F#5
Note ON: Time 29520, Note Name: B4, Velocity: 65
Note OFF: Time 29640, Note Name: B4
Note ON: Time 29640, Note Name: D#5, Velocity: 65
Note OFF: Time 29760, Note Name: D#5
Note ON: Time 29760, Note Name: A4, Velocity: 79
Note OFF: Time 29880, Note Name: A4
Note ON: Time 29880, Note Name: A5, Velocity: 66
Note OFF: Time 30000, Note Name: A5
Note ON: Time 30000, Note Name: B4, Velocity: 66
Note OFF: Time 30120, Note Name: B4
Note ON: Time 30120, Note Name: E5, Velocity: 66
Note OFF: Time 30240, Note Name: E5
Note ON: Time 30240, Note Name: G#4, Velocity: 77
Note OFF: Time 30360, Note Name: G#4
Note ON: Time 30360, Note Name: G#5, Velocity: 67
Note OFF: Time 30480, Note Name: G#5
Note ON: Time 30480, Note Name: B4, Velocity: 66
Note OFF: Time 30600, Note Name: B4
Note ON: Time 30600, Note Name: E5, Velocity: 65
Note OFF: Time 30720, Note Name: E5
Note ON: Time 30720, Note Name: G#4, Velocity: 52
Note OFF: Time 30840, Note Name: G#4
Note ON: Time 30840, Note Name: G#5, Velocity: 57
Note OFF: Time 30960, Note Name: G#5
Note ON: Time 30960, Note Name: C5, Velocity: 47
Note OFF: Time 31080, Note Name: C5
Note ON: Time 31080, Note Name: C#5, Velocity: 47
Note OFF: Time 31200, Note Name: C#5
Note ON: Time 31200, Note Name: F#4, Velocity: 49
Note OFF: Time 31320, Note Name: F#4
Note ON: Time 31320, Note Name: F#5, Velocity: 54
Note OFF: Time 31440, Note Name: F#5
Note ON: Time 31440, Note Name: C5, Velocity: 48
Note OFF: Time 31560, Note Name: C5
Note ON: Time 31560, Note Name: C#5, Velocity: 48
Note OFF: Time 31680, Note Name: C#5
Note ON: Time 31680, Note Name: F4, Velocity: 51
Note OFF: Time 31800, Note Name: F4
Note ON: Time 31800, Note Name: F5, Velocity: 56
Note OFF: Time 31920, Note Name: F5
Note ON: Time 31920, Note Name: C5, Velocity: 50
Note OFF: Time 32040, Note Name: C5
Note ON: Time 32040, Note Name: C#5, Velocity: 50
Note OFF: Time 32160, Note Name: C#5
Note ON: Time 32160, Note Name: F#4, Velocity: 53
Note OFF: Time 32280, Note Name: F#4
Note ON: Time 32280, Note Name: F#5, Velocity: 58
Note OFF: Time 32400, Note Name: F#5
Note ON: Time 32400, Note Name: C5, Velocity: 51
Note OFF: Time 32520, Note Name: C5
Note ON: Time 32520, Note Name: C#5, Velocity: 51
Note OFF: Time 32640, Note Name: C#5
Note ON: Time 32640, Note Name: C#4, Velocity: 55
Note OFF: Time 32760, Note Name: C#4
Note ON: Time 32760, Note Name: C#5, Velocity: 60
Note OFF: Time 32880, Note Name: C#5
Note ON: Time 32880, Note Name: F#4, Velocity: 52
Note OFF: Time 33000, Note Name: F#4
Note ON: Time 33000, Note Name: A4, Velocity: 53
Note OFF: Time 33120, Note Name: A4
Note ON: Time 33120, Note Name: D#4, Velocity: 55
Note OFF: Time 33240, Note Name: D#4
Note ON: Time 33240, Note Name: D#5, Velocity: 62
Note OFF: Time 33360, Note Name: D#5
Note ON: Time 33360, Note Name: F#4, Velocity: 54
Note OFF: Time 33480, Note Name: F#4
Note ON: Time 33480, Note Name: A4, Velocity: 54
Note OFF: Time 33600, Note Name: A4
Note ON: Time 33600, Note Name: E4, Velocity: 57
Note OFF: Time 33720, Note Name: E4
Note ON: Time 33720, Note Name: E5, Velocity: 65
Note OFF: Time 33840, Note Name: E5
Note ON: Time 33840, Note Name: G#4, Velocity: 56
Note OFF: Time 33960, Note Name: G#4
Note ON: Time 33960, Note Name: B4, Velocity: 56
Note OFF: Time 34080, Note Name: B4
Note ON: Time 34080, Note Name: G#4, Velocity: 60
Note OFF: Time 34200, Note Name: G#4
Note ON: Time 34200, Note Name: G#5, Velocity: 68
Note OFF: Time 34320, Note Name: G#5
Note ON: Time 34320, Note Name: B4, Velocity: 57
Note OFF: Time 34440, Note Name: B4
Note ON: Time 34440, Note Name: E5, Velocity: 58
Note OFF: Time 34560, Note Name: E5
Note ON: Time 34560, Note Name: G#4, Velocity: 62
Note OFF: Time 34680, Note Name: G#4
Note ON: Time 34680, Note Name: G#5, Velocity: 68
Note OFF: Time 34800, Note Name: G#5
Note ON: Time 34800, Note Name: C5, Velocity: 59
Note OFF: Time 34920, Note Name: C5
Note ON: Time 34920, Note Name: C#5, Velocity: 59
Note OFF: Time 35040, Note Name: C#5
Note ON: Time 35040, Note Name: F#4, Velocity: 62
Note OFF: Time 35160, Note Name: F#4
Note ON: Time 35160, Note Name: F#5, Velocity: 70
Note OFF: Time 35280, Note Name: F#5
Note ON: Time 35280, Note Name: C5, Velocity: 61
Note OFF: Time 35400, Note Name: C5
Note ON: Time 35400, Note Name: C#5, Velocity: 61
Note OFF: Time 35520, Note Name: C#5
Note ON: Time 35520, Note Name: D#5, Velocity: 64
Note OFF: Time 35640, Note Name: D#5
Note ON: Time 35640, Note Name: D#6, Velocity: 73
Note OFF: Time 35760, Note Name: D#6
Note ON: Time 35760, Note Name: F#5, Velocity: 62
Note OFF: Time 35880, Note Name: F#5
Note ON: Time 35880, Note Name: A5, Velocity: 62
Note OFF: Time 36000, Note Name: A5
Note ON: Time 36000, Note Name: C#5, Velocity: 66
Note OFF: Time 36120, Note Name: C#5
Note ON: Time 36120, Note Name: C#6, Velocity: 74
Note OFF: Time 36240, Note Name: C#6
Note ON: Time 36240, Note Name: F#5, Velocity: 62
Note OFF: Time 36360, Note Name: F#5
Note ON: Time 36360, Note Name: A5, Velocity: 62
Note OFF: Time 36480, Note Name: A5
Note ON: Time 36480, Note Name: C#5, Velocity: 64
Note OFF: Time 36600, Note Name: C#5
Note ON: Time 36600, Note Name: C#6, Velocity: 73
Note OFF: Time 36720, Note Name: C#6
Note ON: Time 36720, Note Name: D#5, Velocity: 61
Note OFF: Time 36840, Note Name: D#5
Note ON: Time 36840, Note Name: F#5, Velocity: 61
Note OFF: Time 36960, Note Name: F#5
Note ON: Time 36960, Note Name: C5, Velocity: 64
Note OFF: Time 37080, Note Name: C5
Note ON: Time 37080, Note Name: C6, Velocity: 71
Note OFF: Time 37200, Note Name: C6
Note ON: Time 37200, Note Name: D#5, Velocity: 60
Note OFF: Time 37320, Note Name: D#5
Note ON: Time 37320, Note Name: F#5, Velocity: 59
Note OFF: Time 37440, Note Name: F#5
Note ON: Time 37440, Note Name: C5, Velocity: 60
Note OFF: Time 37560, Note Name: C5
Note ON: Time 37560, Note Name: C6, Velocity: 69
Note OFF: Time 37680, Note Name: C6
Note ON: Time 37680, Note Name: D#5, Velocity: 58
Note OFF: Time 37800, Note Name: D#5
Note ON: Time 37800, Note Name: F#5, Velocity: 58
Note OFF: Time 37920, Note Name: F#5
Note ON: Time 37920, Note Name: C5, Velocity: 61
Note OFF: Time 38040, Note Name: C5
Note ON: Time 38040, Note Name: C6, Velocity: 68
Note OFF: Time 38160, Note Name: C6
Note ON: Time 38160, Note Name: D#5, Velocity: 57
Note OFF: Time 38280, Note Name: D#5
Note ON: Time 38280, Note Name: F#5, Velocity: 56
Note OFF: Time 38400, Note Name: F#5
Note ON: Time 38400, Note Name: C5, Velocity: 57
Note OFF: Time 38520, Note Name: C5
Note ON: Time 38520, Note Name: C6, Velocity: 65
Note OFF: Time 38640, Note Name: C6
Note ON: Time 38640, Note Name: D#5, Velocity: 55
Note OFF: Time 38760, Note Name: D#5
Note ON: Time 38760, Note Name: F#5, Velocity: 55
Note OFF: Time 38880, Note Name: F#5
Note ON: Time 38880, Note Name: B4, Velocity: 58
Note OFF: Time 39000, Note Name: B4
Note ON: Time 39000, Note Name: B5, Velocity: 64
Note OFF: Time 39120, Note Name: B5
Note ON: Time 39120, Note Name: D#5, Velocity: 53
Note OFF: Time 39240, Note Name: D#5
Note ON: Time 39240, Note Name: F#5, Velocity: 53
Note OFF: Time 39360, Note Name: F#5
Note ON: Time 39360, Note Name: B4, Velocity: 54
Note OFF: Time 39480, Note Name: B4
Note ON: Time 39480, Note Name: B5, Velocity: 62
Note OFF: Time 39600, Note Name: B5
Note ON: Time 39600, Note Name: D#5, Velocity: 52
Note OFF: Time 39720, Note Name: D#5
Note ON: Time 39720, Note Name: F#5, Velocity: 52
Note OFF: Time 39840, Note Name: F#5
Note ON: Time 39840, Note Name: A#4, Velocity: 54
Note OFF: Time 39960, Note Name: A#4
Note ON: Time 39960, Note Name: A#5, Velocity: 60
Note OFF: Time 40080, Note Name: A#5
Note ON: Time 40080, Note Name: D#5, Velocity: 50
Note OFF: Time 40200, Note Name: D#5
Note ON: Time 40200, Note Name: F#5, Velocity: 50
Note OFF: Time 40320, Note Name: F#5
Note ON: Time 40320, Note Name: A#4, Velocity: 55
Note OFF: Time 40440, Note Name: A#4
Note ON: Time 40446, Note Name: A#5, Velocity: 49
Note ON: Time 40560, Note Name: D#5, Velocity: 48
Note OFF: Time 40566, Note Name: A#5
Note OFF: Time 40680, Note Name: D#5
Note ON: Time 40680, Note Name: F#5, Velocity: 48
Note OFF: Time 40800, Note Name: F#5
Note ON: Time 40800, Note Name: A4, Velocity: 53
Note OFF: Time 40920, Note Name: A4
Note ON: Time 40926, Note Name: A5, Velocity: 48
Note ON: Time 41040, Note Name: D#5, Velocity: 47
Note OFF: Time 41046, Note Name: A5
Note OFF: Time 41160, Note Name: D#5
Note ON: Time 41160, Note Name: F#5, Velocity: 47
Note OFF: Time 41280, Note Name: F#5
Note ON: Time 41280, Note Name: A4, Velocity: 52
Note OFF: Time 41400, Note Name: A4
Note ON: Time 41400, Note Name: A5, Velocity: 49
Note OFF: Time 41520, Note Name: A5
Note ON: Time 41520, Note Name: D#5, Velocity: 45
Note OFF: Time 41640, Note Name: D#5
Note ON: Time 41640, Note Name: F#5, Velocity: 45
Note OFF: Time 41760, Note Name: F#5
Note ON: Time 41760, Note Name: A4, Velocity: 51
Note OFF: Time 41880, Note Name: A4
Note ON: Time 41880, Note Name: A5, Velocity: 47
Note OFF: Time 42000, Note Name: A5
Note ON: Time 42000, Note Name: D#5, Velocity: 44
Note OFF: Time 42120, Note Name: D#5
Note ON: Time 42120, Note Name: F#5, Velocity: 44
Note OFF: Time 42240, Note Name: F#5
Note ON: Time 42240, Note Name: C5, Velocity: 52
Note OFF: Time 42360, Note Name: C5
Note ON: Time 42366, Note Name: C6, Velocity: 47
Note ON: Time 42480, Note Name: D#5, Velocity: 46
Note OFF: Time 42486, Note Name: C6
Note OFF: Time 42600, Note Name: D#5
Note ON: Time 42600, Note Name: F#5, Velocity: 46
Note OFF: Time 42720, Note Name: F#5
Note ON: Time 42720, Note Name: B4, Velocity: 49
Note OFF: Time 42840, Note Name: B4
Note ON: Time 42840, Note Name: B5, Velocity: 44
Note OFF: Time 42960, Note Name: B5
Note ON: Time 42960, Note Name: D#5, Velocity: 44
Note OFF: Time 43080, Note Name: D#5
Note ON: Time 43080, Note Name: F#5, Velocity: 44
Note OFF: Time 43200, Note Name: F#5
Note ON: Time 43200, Note Name: B4, Velocity: 48
Note OFF: Time 43320, Note Name: B4
Note ON: Time 43320, Note Name: B5, Velocity: 45
Note OFF: Time 43440, Note Name: B5
Note ON: Time 43440, Note Name: D#5, Velocity: 42
Note OFF: Time 43560, Note Name: D#5
Note ON: Time 43560, Note Name: F#5, Velocity: 42
Note OFF: Time 43680, Note Name: F#5
Note ON: Time 43680, Note Name: A#4, Velocity: 47
Note OFF: Time 43800, Note Name: A#4
Note ON: Time 43800, Note Name: A#5, Velocity: 43
Note OFF: Time 43920, Note Name: A#5
Note ON: Time 43920, Note Name: D#5, Velocity: 40
Note OFF: Time 44040, Note Name: D#5
Note ON: Time 44040, Note Name: F#5, Velocity: 40
Note OFF: Time 44160, Note Name: F#5
Note ON: Time 44160, Note Name: A#4, Velocity: 46
Note OFF: Time 44280, Note Name: A#4
Note ON: Time 44280, Note Name: A#5, Velocity: 42
Note OFF: Time 44400, Note Name: A#5
Note ON: Time 44400, Note Name: D#5, Velocity: 41
Note OFF: Time 44520, Note Name: D#5
Note ON: Time 44520, Note Name: F#5, Velocity: 41
Note OFF: Time 44640, Note Name: F#5
Note ON: Time 44640, Note Name: A4, Velocity: 44
Note OFF: Time 44760, Note Name: A4
Note ON: Time 44760, Note Name: A5, Velocity: 40
Note OFF: Time 44880, Note Name: A5
Note ON: Time 44880, Note Name: D#5, Velocity: 40
Note OFF: Time 45000, Note Name: D#5
Note ON: Time 45000, Note Name: F#5, Velocity: 39
Note OFF: Time 45120, Note Name: F#5
Note ON: Time 45120, Note Name: A4, Velocity: 43
Note OFF: Time 45240, Note Name: A4
Note ON: Time 45240, Note Name: A5, Velocity: 40
Note OFF: Time 45360, Note Name: A5
Note ON: Time 45360, Note Name: D#5, Velocity: 37
Note OFF: Time 45480, Note Name: D#5
Note ON: Time 45480, Note Name: F#5, Velocity: 37
Note OFF: Time 45600, Note Name: F#5
Note ON: Time 45600, Note Name: G#4, Velocity: 42
Note OFF: Time 45720, Note Name: G#4
Note ON: Time 45720, Note Name: G#5, Velocity: 38
Note OFF: Time 45840, Note Name: G#5
Note ON: Time 45840, Note Name: D#5, Velocity: 36
Note OFF: Time 45960, Note Name: D#5
Note ON: Time 45960, Note Name: F#5, Velocity: 35
Note OFF: Time 46080, Note Name: F#5
Note ON: Time 46200, Note Name: G#4, Velocity: 37
Note OFF: Time 46320, Note Name: G#4
Note ON: Time 46320, Note Name: A4, Velocity: 41
Note OFF: Time 46440, Note Name: A4
Note ON: Time 46440, Note Name: G#4, Velocity: 38
Note OFF: Time 46560, Note Name: G#4
Note ON: Time 46560, Note Name: G4, Velocity: 39
Note OFF: Time 46680, Note Name: G4
Note ON: Time 46680, Note Name: G#4, Velocity: 40
Note OFF: Time 46800, Note Name: G#4
Note ON: Time 46800, Note Name: C#5, Velocity: 42
Note OFF: Time 46920, Note Name: C#5
Note ON: Time 46920, Note Name: E5, Velocity: 43
Note OFF: Time 47040, Note Name: E5
Note ON: Time 47040, Note Name: D#5, Velocity: 45
Note OFF: Time 47160, Note Name: D#5
Note ON: Time 47160, Note Name: C#5, Velocity: 43
Note OFF: Time 47280, Note Name: C#5
Note ON: Time 47280, Note Name: D#5, Velocity: 45
Note OFF: Time 47400, Note Name: D#5
Note ON: Time 47400, Note Name: C#5, Velocity: 43
Note OFF: Time 47520, Note Name: C#5
Note ON: Time 47520, Note Name: C5, Velocity: 44
Note OFF: Time 47640, Note Name: C5
Note ON: Time 47640, Note Name: C#5, Velocity: 46
Note OFF: Time 47760, Note Name: C#5
Note ON: Time 47760, Note Name: E5, Velocity: 49
Note OFF: Time 47880, Note Name: E5
Note ON: Time 47880, Note Name: G#5, Velocity: 47
Note OFF: Time 48000, Note Name: G#5
Note ON: Time 48120, Note Name: G#4, Velocity: 45
Note OFF: Time 48240, Note Name: G#4
Note ON: Time 48240, Note Name: A4, Velocity: 49
Note OFF: Time 48360, Note Name: A4
Note ON: Time 48360, Note Name: G#4, Velocity: 45
Note OFF: Time 48480, Note Name: G#4
Note ON: Time 48480, Note Name: G4, Velocity: 46
Note OFF: Time 48600, Note Name: G4
Note ON: Time 48600, Note Name: G#4, Velocity: 48
Note OFF: Time 48720, Note Name: G#4
Note ON: Time 48720, Note Name: C#5, Velocity: 50
Note OFF: Time 48840, Note Name: C#5
Note ON: Time 48840, Note Name: E5, Velocity: 51
Note OFF: Time 48960, Note Name: E5
Note ON: Time 48960, Note Name: D#5, Velocity: 54
Note OFF: Time 49080, Note Name: D#5
Note ON: Time 49080, Note Name: C#5, Velocity: 51
Note OFF: Time 49200, Note Name: C#5
Note ON: Time 49200, Note Name: D#5, Velocity: 53
Note OFF: Time 49320, Note Name: D#5
Note ON: Time 49320, Note Name: C#5, Velocity: 51
Note OFF: Time 49440, Note Name: C#5
Note ON: Time 49440, Note Name: C5, Velocity: 52
Note OFF: Time 49560, Note Name: C5
Note ON: Time 49560, Note Name: C#5, Velocity: 54
Note OFF: Time 49680, Note Name: C#5
Note ON: Time 49680, Note Name: E5, Velocity: 57
Note OFF: Time 49800, Note Name: E5
Note ON: Time 49800, Note Name: G#5, Velocity: 55
Note OFF: Time 49920, Note Name: G#5
Note ON: Time 50040, Note Name: A4, Velocity: 56
Note OFF: Time 50160, Note Name: A4
Note ON: Time 50160, Note Name: C#5, Velocity: 57
Note OFF: Time 50280, Note Name: C#5
Note ON: Time 50280, Note Name: D#5, Velocity: 59
Note OFF: Time 50400, Note Name: D#5
Note ON: Time 50400, Note Name: F#5, Velocity: 61
Note OFF: Time 50520, Note Name: F#5
Note ON: Time 50520, Note Name: A5, Velocity: 66
Note OFF: Time 50640, Note Name: A5
Note ON: Time 50640, Note Name: C#6, Velocity: 69
Note OFF: Time 50760, Note Name: C#6
Note ON: Time 50760, Note Name: D#6, Velocity: 71
Note OFF: Time 50880, Note Name: D#6
Note ON: Time 50880, Note Name: B6, Velocity: 73
Note OFF: Time 51000, Note Name: B6
Note ON: Time 51000, Note Name: A6, Velocity: 71
Note OFF: Time 51120, Note Name: A6
Note ON: Time 51120, Note Name: G#6, Velocity: 71
Note OFF: Time 51240, Note Name: G#6
Note ON: Time 51240, Note Name: F#6, Velocity: 70
Note OFF: Time 51360, Note Name: F#6
Note ON: Time 51360, Note Name: E6, Velocity: 69
Note OFF: Time 51480, Note Name: E6
Note ON: Time 51480, Note Name: D#6, Velocity: 68
Note OFF: Time 51600, Note Name: D#6
Note ON: Time 51600, Note Name: F#6, Velocity: 67
Note OFF: Time 51720, Note Name: F#6
Note ON: Time 51720, Note Name: C#6, Velocity: 67
Note OFF: Time 51840, Note Name: C#6
Note ON: Time 51840, Note Name: C6, Velocity: 68
Note OFF: Time 51960, Note Name: C6
Note ON: Time 51960, Note Name: D#6, Velocity: 64
Note OFF: Time 52080, Note Name: D#6
Note ON: Time 52080, Note Name: A5, Velocity: 65
Note OFF: Time 52200, Note Name: A5
Note ON: Time 52200, Note Name: G#5, Velocity: 65
Note OFF: Time 52320, Note Name: G#5
Note ON: Time 52320, Note Name: F#5, Velocity: 64
Note OFF: Time 52440, Note Name: F#5
Note ON: Time 52440, Note Name: A5, Velocity: 62
Note OFF: Time 52560, Note Name: A5
Note ON: Time 52560, Note Name: E5, Velocity: 59
Note OFF: Time 52680, Note Name: E5
Note ON: Time 52680, Note Name: D#5, Velocity: 59
Note OFF: Time 52800, Note Name: D#5
Note ON: Time 52800, Note Name: F#5, Velocity: 59
Note OFF: Time 52920, Note Name: F#5
Note ON: Time 52920, Note Name: C#5, Velocity: 55
Note OFF: Time 53040, Note Name: C#5
Note ON: Time 53040, Note Name: C5, Velocity: 55
Note OFF: Time 53160, Note Name: C5
Note ON: Time 53160, Note Name: D#5, Velocity: 55
Note OFF: Time 53280, Note Name: D#5
Note ON: Time 53280, Note Name: A4, Velocity: 54
Note OFF: Time 53400, Note Name: A4
Note ON: Time 53400, Note Name: G#4, Velocity: 51
Note OFF: Time 53520, Note Name: G#4
Note ON: Time 53520, Note Name: B4, Velocity: 51
Note OFF: Time 53640, Note Name: B4
Note ON: Time 53640, Note Name: A4, Velocity: 50
Note OFF: Time 53880, Note Name: A4
Note ON: Time 53880, Note Name: G#4, Velocity: 47
Note OFF: Time 54000, Note Name: G#4
Note ON: Time 54000, Note Name: A4, Velocity: 51
Note OFF: Time 54120, Note Name: A4
Note ON: Time 54120, Note Name: G#4, Velocity: 47
Note OFF: Time 54240, Note Name: G#4
Note ON: Time 54240, Note Name: G4, Velocity: 48
Note OFF: Time 54360, Note Name: G4
Note ON: Time 54360, Note Name: G#4, Velocity: 49
Note OFF: Time 54480, Note Name: G#4
Note ON: Time 54480, Note Name: C#5, Velocity: 51
Note OFF: Time 54600, Note Name: C#5
Note ON: Time 54600, Note Name: E5, Velocity: 52
Note OFF: Time 54720, Note Name: E5
Note ON: Time 54720, Note Name: D#5, Velocity: 54
Note OFF: Time 54840, Note Name: D#5
Note ON: Time 54840, Note Name: C#5, Velocity: 51
Note OFF: Time 54960, Note Name: C#5
Note ON: Time 54960, Note Name: D#5, Velocity: 53
Note OFF: Time 55080, Note Name: D#5
Note ON: Time 55080, Note Name: C#5, Velocity: 51
Note OFF: Time 55200, Note Name: C#5
Note ON: Time 55200, Note Name: C5, Velocity: 51
Note OFF: Time 55320, Note Name: C5
Note ON: Time 55320, Note Name: C#5, Velocity: 53
Note OFF: Time 55440, Note Name: C#5
Note ON: Time 55440, Note Name: E5, Velocity: 57
Note OFF: Time 55560, Note Name: E5
Note ON: Time 55560, Note Name: G#5, Velocity: 54
Note OFF: Time 55680, Note Name: G#5
Note ON: Time 55680, Note Name: E5, Velocity: 52
Note OFF: Time 55800, Note Name: E5
Note ON: Time 55800, Note Name: D#5, Velocity: 48
Note OFF: Time 55920, Note Name: D#5
Note ON: Time 55920, Note Name: E5, Velocity: 52
Note OFF: Time 56040, Note Name: E5
Note ON: Time 56040, Note Name: D#5, Velocity: 48
Note OFF: Time 56160, Note Name: D#5
Note ON: Time 56160, Note Name: D5, Velocity: 49
Note OFF: Time 56280, Note Name: D5
Note ON: Time 56280, Note Name: D#5, Velocity: 50
Note OFF: Time 56400, Note Name: D#5
Note ON: Time 56400, Note Name: F#5, Velocity: 53
Note OFF: Time 56520, Note Name: F#5
Note ON: Time 56520, Note Name: A5, Velocity: 54
Note OFF: Time 56640, Note Name: A5
Note ON: Time 56640, Note Name: F#5, Velocity: 56
Note OFF: Time 56760, Note Name: F#5
Note ON: Time 56760, Note Name: F5, Velocity: 54
Note OFF: Time 56880, Note Name: F5
Note ON: Time 56880, Note Name: F#5, Velocity: 56
Note OFF: Time 57000, Note Name: F#5
Note ON: Time 57000, Note Name: F5, Velocity: 54
Note OFF: Time 57120, Note Name: F5
Note ON: Time 57120, Note Name: E5, Velocity: 54
Note OFF: Time 57240, Note Name: E5
Note ON: Time 57240, Note Name: F5, Velocity: 56
Note OFF: Time 57360, Note Name: F5
Note ON: Time 57360, Note Name: G#5, Velocity: 59
Note OFF: Time 57480, Note Name: G#5
Note ON: Time 57480, Note Name: C#6, Velocity: 57
Note OFF: Time 57600, Note Name: C#6
Note ON: Time 57720, Note Name: C#5, Velocity: 50
Note OFF: Time 57840, Note Name: C#5
Note ON: Time 57840, Note Name: D5, Velocity: 55
Note OFF: Time 57960, Note Name: D5
Note ON: Time 57960, Note Name: C#5, Velocity: 51
Note OFF: Time 58080, Note Name: C#5
Note ON: Time 58080, Note Name: C5, Velocity: 52
Note OFF: Time 58200, Note Name: C5
Note ON: Time 58200, Note Name: C#5, Velocity: 53
Note OFF: Time 58320, Note Name: C#5
Note ON: Time 58320, Note Name: F#5, Velocity: 56
Note OFF: Time 58440, Note Name: F#5
Note ON: Time 58440, Note Name: A5, Velocity: 57
Note OFF: Time 58560, Note Name: A5
Note ON: Time 58560, Note Name: F#5, Velocity: 59
Note OFF: Time 58680, Note Name: F#5
Note ON: Time 58680, Note Name: F5, Velocity: 56
Note OFF: Time 58800, Note Name: F5
Note ON: Time 58800, Note Name: F#5, Velocity: 59
Note OFF: Time 58920, Note Name: F#5
Note ON: Time 58920, Note Name: F5, Velocity: 57
Note OFF: Time 59040, Note Name: F5
Note ON: Time 59040, Note Name: E5, Velocity: 57
Note OFF: Time 59160, Note Name: E5
Note ON: Time 59160, Note Name: F5, Velocity: 59
Note OFF: Time 59280, Note Name: F5
Note ON: Time 59280, Note Name: G#5, Velocity: 63
Note OFF: Time 59400, Note Name: G#5
Note ON: Time 59400, Note Name: C#6, Velocity: 59
Note OFF: Time 59520, Note Name: C#6
Note ON: Time 59520, Note Name: G#5, Velocity: 58
Note OFF: Time 59640, Note Name: G#5
Note ON: Time 59640, Note Name: F#5, Velocity: 53
Note OFF: Time 59760, Note Name: F#5
Note ON: Time 59760, Note Name: G#5, Velocity: 58
Note OFF: Time 59880, Note Name: G#5
Note ON: Time 59880, Note Name: F#5, Velocity: 54
Note OFF: Time 60000, Note Name: F#5
Note ON: Time 60000, Note Name: F5, Velocity: 55
Note OFF: Time 60120, Note Name: F5
Note ON: Time 60120, Note Name: F#5, Velocity: 56
Note OFF: Time 60240, Note Name: F#5
Note ON: Time 60240, Note Name: A5, Velocity: 59
Note OFF: Time 60360, Note Name: A5
Note ON: Time 60360, Note Name: C#6, Velocity: 60
Note OFF: Time 60480, Note Name: C#6
Note ON: Time 60480, Note Name: A5, Velocity: 63
Note OFF: Time 60600, Note Name: A5
Note ON: Time 60600, Note Name: G#5, Velocity: 59
Note OFF: Time 60720, Note Name: G#5
Note ON: Time 60720, Note Name: A5, Velocity: 62
Note OFF: Time 60840, Note Name: A5
Note ON: Time 60840, Note Name: G#5, Velocity: 60
Note OFF: Time 60960, Note Name: G#5
Note ON: Time 60960, Note Name: G5, Velocity: 60
Note OFF: Time 61080, Note Name: G5
Note ON: Time 61080, Note Name: G#5, Velocity: 62
Note OFF: Time 61200, Note Name: G#5
Note ON: Time 61200, Note Name: C6, Velocity: 66
Note OFF: Time 61320, Note Name: C6
Note ON: Time 61320, Note Name: D#6, Velocity: 63
Note OFF: Time 61440, Note Name: D#6
Note ON: Time 61440, Note Name: G#5, Velocity: 69
Note OFF: Time 61560, Note Name: G#5
Note ON: Time 61560, Note Name: A5, Velocity: 64
Note OFF: Time 61680, Note Name: A5
Note ON: Time 61680, Note Name: G#5, Velocity: 67
Note OFF: Time 61800, Note Name: G#5
Note ON: Time 61800, Note Name: G5, Velocity: 58
Note OFF: Time 61920, Note Name: G5
Note ON: Time 61920, Note Name: G#5, Velocity: 62
Note OFF: Time 62040, Note Name: G#5
Note ON: Time 62040, Note Name: E6, Velocity: 71
Note OFF: Time 62160, Note Name: E6
Note ON: Time 62160, Note Name: D#6, Velocity: 71
Note OFF: Time 62280, Note Name: D#6
Note ON: Time 62280, Note Name: D6, Velocity: 70
Note OFF: Time 62400, Note Name: D6
Note ON: Time 62400, Note Name: C#6, Velocity: 69
Note OFF: Time 62520, Note Name: C#6
Note ON: Time 62520, Note Name: C6, Velocity: 69
Note OFF: Time 62640, Note Name: C6
Note ON: Time 62640, Note Name: B5, Velocity: 68
Note OFF: Time 62760, Note Name: B5
Note ON: Time 62760, Note Name: A#5, Velocity: 67
Note OFF: Time 62880, Note Name: A#5
Note ON: Time 62880, Note Name: A5, Velocity: 67
Note OFF: Time 63000, Note Name: A5
Note ON: Time 63000, Note Name: G#5, Velocity: 66
Note OFF: Time 63120, Note Name: G#5
Note ON: Time 63120, Note Name: G5, Velocity: 65
Note OFF: Time 63240, Note Name: G5
Note ON: Time 63240, Note Name: F#5, Velocity: 64
Note OFF: Time 63360, Note Name: F#5
Note ON: Time 63360, Note Name: E5, Velocity: 69
Note OFF: Time 63480, Note Name: E5
Note ON: Time 63480, Note Name: F#5, Velocity: 64
Note OFF: Time 63600, Note Name: F#5
Note ON: Time 63600, Note Name: E5, Velocity: 67
Note OFF: Time 63720, Note Name: E5
Note ON: Time 63720, Note Name: D#5, Velocity: 58
Note OFF: Time 63840, Note Name: D#5
Note ON: Time 63840, Note Name: E5, Velocity: 62
Note OFF: Time 63960, Note Name: E5
Note ON: Time 63960, Note Name: E6, Velocity: 71
Note OFF: Time 64080, Note Name: E6
Note ON: Time 64080, Note Name: D#6, Velocity: 71
Note OFF: Time 64200, Note Name: D#6
Note ON: Time 64200, Note Name: D6, Velocity: 70
Note OFF: Time 64320, Note Name: D6
Note ON: Time 64320, Note Name: C#6, Velocity: 70
Note OFF: Time 64440, Note Name: C#6
Note ON: Time 64440, Note Name: C6, Velocity: 71
Note OFF: Time 64560, Note Name: C6
Note ON: Time 64560, Note Name: B5, Velocity: 71
Note OFF: Time 64680, Note Name: B5
Note ON: Time 64680, Note Name: A#5, Velocity: 72
Note OFF: Time 64800, Note Name: A#5
Note ON: Time 64800, Note Name: A5, Velocity: 73
Note OFF: Time 64920, Note Name: A5
Note ON: Time 64920, Note Name: G#5, Velocity: 74
Note OFF: Time 65040, Note Name: G#5
Note ON: Time 65040, Note Name: G5, Velocity: 75
Note OFF: Time 65160, Note Name: G5
Note ON: Time 65160, Note Name: F#5, Velocity: 76
Note OFF: Time 65280, Note Name: F#5
Note ON: Time 65280, Note Name: G#5, Velocity: 76
Note OFF: Time 65340, Note Name: G#5
Note ON: Time 65520, Note Name: G#6, Velocity: 85
Note OFF: Time 65640, Note Name: G#6
Note ON: Time 65640, Note Name: G6, Velocity: 85
Note OFF: Time 65760, Note Name: G6
Note ON: Time 65760, Note Name: F#6, Velocity: 84
Note OFF: Time 65880, Note Name: F#6
Note ON: Time 65880, Note Name: F6, Velocity: 84
Note OFF: Time 66000, Note Name: F6
Note ON: Time 66000, Note Name: E6, Velocity: 83
Note OFF: Time 66120, Note Name: E6
Note ON: Time 66120, Note Name: D#6, Velocity: 83
Note OFF: Time 66240, Note Name: D#6
Note ON: Time 66240, Note Name: D6, Velocity: 82
Note OFF: Time 66360, Note Name: D6
Note ON: Time 66360, Note Name: C#6, Velocity: 81
Note OFF: Time 66480, Note Name: C#6
Note ON: Time 66480, Note Name: C6, Velocity: 81
Note OFF: Time 66600, Note Name: C6
Note ON: Time 66600, Note Name: B5, Velocity: 80
Note OFF: Time 66720, Note Name: B5
Note ON: Time 66720, Note Name: A#5, Velocity: 80
Note OFF: Time 66840, Note Name: A#5
Note ON: Time 66840, Note Name: A5, Velocity: 79
Note OFF: Time 66960, Note Name: A5
Note ON: Time 66960, Note Name: G#5, Velocity: 79
Note OFF: Time 67080, Note Name: G#5
Note ON: Time 67080, Note Name: G5, Velocity: 78
Note OFF: Time 67200, Note Name: G5
Note ON: Time 67200, Note Name: F#5, Velocity: 77
Note OFF: Time 67320, Note Name: F#5
Note ON: Time 67320, Note Name: F5, Velocity: 77
Note OFF: Time 67440, Note Name: F5
Note ON: Time 67440, Note Name: E5, Velocity: 77
Note OFF: Time 67560, Note Name: E5
Note ON: Time 67560, Note Name: D#5, Velocity: 77
Note OFF: Time 67680, Note Name: D#5
Note ON: Time 67680, Note Name: D5, Velocity: 77
Note OFF: Time 67800, Note Name: D5
Note ON: Time 67800, Note Name: C#5, Velocity: 77
Note OFF: Time 67920, Note Name: C#5
Note ON: Time 67920, Note Name: C5, Velocity: 77
Note OFF: Time 68040, Note Name: C5
Note ON: Time 68040, Note Name: B4, Velocity: 77
Note OFF: Time 68160, Note Name: B4
Note ON: Time 68160, Note Name: A#4, Velocity: 77
Note OFF: Time 68280, Note Name: A#4
Note ON: Time 68280, Note Name: A4, Velocity: 78
Note OFF: Time 68400, Note Name: A4
Note ON: Time 68400, Note Name: G#4, Velocity: 80
Note OFF: Time 68520, Note Name: G#4
Note ON: Time 68520, Note Name: G4, Velocity: 82
Note OFF: Time 68640, Note Name: G4
Note ON: Time 68640, Note Name: F#4, Velocity: 85
Note OFF: Time 68760, Note Name: F#4
Note ON: Time 68760, Note Name: E4, Velocity: 87
Note OFF: Time 68880, Note Name: E4
Note ON: Time 68880, Note Name: D#4, Velocity: 90
Note OFF: Time 69000, Note Name: D#4
Note ON: Time 69000, Note Name: C#4, Velocity: 92
Note OFF: Time 69120, Note Name: C#4
Note ON: Time 69120, Note Name: G#3, Velocity: 94
Note OFF: Time 69240, Note Name: G#3
Note ON: Time 69600, Note Name: A6, Velocity: 90
Note OFF: Time 69720, Note Name: A6
Note ON: Time 69720, Note Name: G#6, Velocity: 81
Note OFF: Time 69840, Note Name: G#6
Note ON: Time 69840, Note Name: E7, Velocity: 77
Note OFF: Time 69960, Note Name: E7
Note ON: Time 69960, Note Name: E6, Velocity: 77
Note OFF: Time 70080, Note Name: E6
Note ON: Time 70080, Note Name: F#6, Velocity: 90
Note OFF: Time 70200, Note Name: F#6
Note ON: Time 70200, Note Name: E6, Velocity: 77
Note OFF: Time 70320, Note Name: E6
Note ON: Time 70320, Note Name: C#7, Velocity: 77
Note OFF: Time 70440, Note Name: C#7
Note ON: Time 70440, Note Name: C#6, Velocity: 77
Note OFF: Time 70560, Note Name: C#6
Note ON: Time 70560, Note Name: D#6, Velocity: 89
Note OFF: Time 70680, Note Name: D#6
Note ON: Time 70680, Note Name: C#6, Velocity: 77
Note OFF: Time 70800, Note Name: C#6
Note ON: Time 70800, Note Name: G#6, Velocity: 77
Note OFF: Time 70920, Note Name: G#6
Note ON: Time 70920, Note Name: G#5, Velocity: 77
Note OFF: Time 71040, Note Name: G#5
Note ON: Time 71040, Note Name: A5, Velocity: 89
Note OFF: Time 71160, Note Name: A5
Note ON: Time 71160, Note Name: G#5, Velocity: 77
Note OFF: Time 71280, Note Name: G#5
Note ON: Time 71280, Note Name: E6, Velocity: 77
Note OFF: Time 71400, Note Name: E6
Note ON: Time 71400, Note Name: E5, Velocity: 77
Note OFF: Time 71520, Note Name: E5
Note ON: Time 71520, Note Name: F#5, Velocity: 88
Note OFF: Time 71640, Note Name: F#5
Note ON: Time 71640, Note Name: E5, Velocity: 77
Note OFF: Time 71760, Note Name: E5
Note ON: Time 71760, Note Name: C#6, Velocity: 77
Note OFF: Time 71880, Note Name: C#6
Note ON: Time 71880, Note Name: C#5, Velocity: 77
Note OFF: Time 72000, Note Name: C#5
Note ON: Time 72000, Note Name: D#5, Velocity: 89
Note OFF: Time 72120, Note Name: D#5
Note ON: Time 72120, Note Name: C#5, Velocity: 77
Note OFF: Time 72240, Note Name: C#5
Note ON: Time 72240, Note Name: G#5, Velocity: 77
Note OFF: Time 72360, Note Name: G#5
Note ON: Time 72360, Note Name: G#4, Velocity: 77
Note OFF: Time 72480, Note Name: G#4
Note ON: Time 72480, Note Name: A4, Velocity: 90
Note OFF: Time 72600, Note Name: A4
Note ON: Time 72600, Note Name: G#4, Velocity: 77
Note OFF: Time 72720, Note Name: G#4
Note ON: Time 72720, Note Name: E5, Velocity: 77
Note OFF: Time 72840, Note Name: E5
Note ON: Time 72840, Note Name: E4, Velocity: 77
Note OFF: Time 72960, Note Name: E4
Note ON: Time 72960, Note Name: F#4, Velocity: 88
Note OFF: Time 73080, Note Name: F#4
Note ON: Time 73080, Note Name: E4, Velocity: 77
Note OFF: Time 73200, Note Name: E4
Note ON: Time 73200, Note Name: C#5, Velocity: 77
Note OFF: Time 73320, Note Name: C#5
Note ON: Time 73320, Note Name: C#4, Velocity: 77
Note OFF: Time 73440, Note Name: C#4
Note ON: Time 73440, Note Name: D#4, Velocity: 89
Note OFF: Time 73560, Note Name: D#4
Note ON: Time 73560, Note Name: C#4, Velocity: 77
Note OFF: Time 73680, Note Name: C#4
Note ON: Time 73680, Note Name: G#4, Velocity: 77
Note OFF: Time 73800, Note Name: G#4
Note ON: Time 73800, Note Name: G#3, Velocity: 77
Note OFF: Time 73920, Note Name: G#3
Note ON: Time 73920, Note Name: D#4, Velocity: 89
Note OFF: Time 74040, Note Name: D#4
Note ON: Time 74040, Note Name: C#4, Velocity: 77
Note OFF: Time 74160, Note Name: C#4
Note ON: Time 74160, Note Name: G#4, Velocity: 77
Note OFF: Time 74280, Note Name: G#4
Note ON: Time 74280, Note Name: G#3, Velocity: 77
Note OFF: Time 74400, Note Name: G#3
Note ON: Time 74400, Note Name: D#4, Velocity: 89
Note OFF: Time 74520, Note Name: D#4
Note ON: Time 74520, Note Name: C#4, Velocity: 77
Note OFF: Time 74640, Note Name: C#4
Note ON: Time 74640, Note Name: A4, Velocity: 77
Note OFF: Time 74760, Note Name: A4
Note ON: Time 74760, Note Name: A3, Velocity: 77
Note OFF: Time 74880, Note Name: A3
Note ON: Time 74880, Note Name: D#4, Velocity: 89
Note OFF: Time 75000, Note Name: D#4
Note ON: Time 75000, Note Name: C#4, Velocity: 75
Note OFF: Time 75120, Note Name: C#4
Note ON: Time 75120, Note Name: G#4, Velocity: 74
Note OFF: Time 75240, Note Name: G#4
Note ON: Time 75240, Note Name: G#3, Velocity: 73
Note OFF: Time 75360, Note Name: G#3
Note ON: Time 75360, Note Name: D#4, Velocity: 83
Note OFF: Time 75480, Note Name: D#4
Note ON: Time 75480, Note Name: C#4, Velocity: 71
Note OFF: Time 75600, Note Name: C#4
Note ON: Time 75600, Note Name: G4, Velocity: 71
Note OFF: Time 75720, Note Name: G4
Note ON: Time 75720, Note Name: G3, Velocity: 70
Note OFF: Time 75840, Note Name: G3
Note ON: Time 75840, Note Name: D#4, Velocity: 79
Note OFF: Time 75960, Note Name: D#4
Note ON: Time 75960, Note Name: C#4, Velocity: 68
Note OFF: Time 76080, Note Name: C#4
Note ON: Time 76080, Note Name: G#4, Velocity: 67
Note OFF: Time 76200, Note Name: G#4
Note ON: Time 76200, Note Name: G#3, Velocity: 66
Note OFF: Time 76320, Note Name: G#3
Note ON: Time 76320, Note Name: D#4, Velocity: 75
Note OFF: Time 76440, Note Name: D#4
Note ON: Time 76440, Note Name: C4, Velocity: 63
Note OFF: Time 76560, Note Name: C4
Note ON: Time 76560, Note Name: G#4, Velocity: 63
Note OFF: Time 76680, Note Name: G#4
Note ON: Time 76680, Note Name: G#3, Velocity: 62
Note OFF: Time 76800, Note Name: G#3
Note ON: Time 80640, Note Name: G#4, Velocity: 45
Note OFF: Time 81600, Note Name: G#4
Note ON: Time 81600, Note Name: A#4, Velocity: 42
Note OFF: Time 81660, Note Name: A#4
Note ON: Time 81660, Note Name: C5, Velocity: 42
Note OFF: Time 81720, Note Name: C5
Note ON: Time 81720, Note Name: A#4, Velocity: 46
Note OFF: Time 81840, Note Name: A#4
Note ON: Time 81840, Note Name: G#4, Velocity: 45
Note OFF: Time 82080, Note Name: G#4
Note ON: Time 82080, Note Name: C#5, Velocity: 45
Note OFF: Time 82320, Note Name: C#5
Note ON: Time 82320, Note Name: D#5, Velocity: 48
Note OFF: Time 82560, Note Name: D#5
Note ON: Time 82560, Note Name: F5, Velocity: 51
Note OFF: Time 83520, Note Name: F5
Note ON: Time 83520, Note Name: G#5, Velocity: 56
Note ON: Time 84000, Note Name: G#4, Velocity: 49
Note OFF: Time 84480, Note Name: G#4
Note OFF: Time 84480, Note Name: G#5
Note ON: Time 84480, Note Name: F#5, Velocity: 53
Note OFF: Time 84960, Note Name: F#5
Note ON: Time 84960, Note Name: F5, Velocity: 51
Note OFF: Time 85440, Note Name: F5
Note ON: Time 85440, Note Name: D#5, Velocity: 49
Note OFF: Time 85920, Note Name: D#5
Note ON: Time 85920, Note Name: F5, Velocity: 51
Note OFF: Time 86280, Note Name: F5
Note ON: Time 86280, Note Name: C#5, Velocity: 47
Note OFF: Time 86400, Note Name: C#5
Note ON: Time 86400, Note Name: G#4, Velocity: 48
Note OFF: Time 87360, Note Name: G#4
Note ON: Time 87360, Note Name: A#4, Velocity: 48
Note OFF: Time 89280, Note Name: A#4
Note ON: Time 89280, Note Name: B4, Velocity: 42
Note OFF: Time 89340, Note Name: B4
Note ON: Time 89340, Note Name: C#5, Velocity: 42
Note OFF: Time 89400, Note Name: C#5
Note ON: Time 89400, Note Name: B4, Velocity: 46
Note OFF: Time 89520, Note Name: B4
Note ON: Time 89520, Note Name: A#4, Velocity: 45
Note OFF: Time 89760, Note Name: A#4
Note ON: Time 89760, Note Name: D#5, Velocity: 45
Note OFF: Time 90000, Note Name: D#5
Note ON: Time 90000, Note Name: F5, Velocity: 48
Note OFF: Time 90240, Note Name: F5
Note ON: Time 90240, Note Name: F#5, Velocity: 51
Note OFF: Time 90720, Note Name: F#5
Note ON: Time 90720, Note Name: F5, Velocity: 50
Note OFF: Time 91200, Note Name: F5
Note ON: Time 91200, Note Name: D#5, Velocity: 51
Note OFF: Time 91680, Note Name: D#5
Note ON: Time 91680, Note Name: F5, Velocity: 49
Note OFF: Time 92160, Note Name: F5
Note ON: Time 92160, Note Name: C#5, Velocity: 48
Note OFF: Time 92880, Note Name: C#5
Note ON: Time 92880, Note Name: C5, Velocity: 49
Note OFF: Time 92940, Note Name: C5
Note ON: Time 92940, Note Name: C#5, Velocity: 45
Note OFF: Time 93000, Note Name: C#5
Note ON: Time 93000, Note Name: D#5, Velocity: 45
Note OFF: Time 93060, Note Name: D#5
Note ON: Time 93060, Note Name: C#5, Velocity: 45
Note OFF: Time 93120, Note Name: C#5
Note ON: Time 93120, Note Name: F5, Velocity: 50
Note OFF: Time 93840, Note Name: F5
Note ON: Time 93840, Note Name: D#5, Velocity: 49
Note OFF: Time 94080, Note Name: D#5
Note ON: Time 94080, Note Name: D#5, Velocity: 47
Note OFF: Time 96000, Note Name: D#5
Note ON: Time 96000, Note Name: G#4, Velocity: 45
Note OFF: Time 96960, Note Name: G#4
Note ON: Time 96960, Note Name: A#4, Velocity: 42
Note OFF: Time 97020, Note Name: A#4
Note ON: Time 97020, Note Name: C5, Velocity: 42
Note OFF: Time 97080, Note Name: C5
Note ON: Time 97080, Note Name: A#4, Velocity: 46
Note OFF: Time 97200, Note Name: A#4
Note ON: Time 97200, Note Name: G#4, Velocity: 45
Note OFF: Time 97440, Note Name: G#4
Note ON: Time 97440, Note Name: C#5, Velocity: 45
Note OFF: Time 97680, Note Name: C#5
Note ON: Time 97680, Note Name: D#5, Velocity: 48
Note OFF: Time 97920, Note Name: D#5
Note ON: Time 97920, Note Name: F5, Velocity: 51
Note OFF: Time 98880, Note Name: F5
Note ON: Time 98880, Note Name: G#5, Velocity: 56
Note ON: Time 99360, Note Name: G#4, Velocity: 49
Note OFF: Time 99840, Note Name: G#4
Note OFF: Time 99840, Note Name: G#5
Note ON: Time 99840, Note Name: F#5, Velocity: 53
Note OFF: Time 100320, Note Name: F#5
Note ON: Time 100320, Note Name: F5, Velocity: 51
Note OFF: Time 100800, Note Name: F5
Note ON: Time 100800, Note Name: D#5, Velocity: 49
Note OFF: Time 101040, Note Name: D#5
Note ON: Time 101040, Note Name: F5, Velocity: 47
Note OFF: Time 101100, Note Name: F5
Note ON: Time 101100, Note Name: D#5, Velocity: 47
Note OFF: Time 101160, Note Name: D#5
Note ON: Time 101160, Note Name: C#5, Velocity: 47
Note OFF: Time 101220, Note Name: C#5
Note ON: Time 101220, Note Name: D#5, Velocity: 47
Note OFF: Time 101280, Note Name: D#5
Note ON: Time 101280, Note Name: F5, Velocity: 51
Note OFF: Time 101640, Note Name: F5
Note ON: Time 101640, Note Name: C#5, Velocity: 47
Note OFF: Time 101760, Note Name: C#5
Note ON: Time 101760, Note Name: G#4, Velocity: 48
Note OFF: Time 102720, Note Name: G#4
Note ON: Time 102720, Note Name: A#4, Velocity: 48
Note OFF: Time 104640, Note Name: A#4
Note ON: Time 104640, Note Name: B4, Velocity: 42
Note OFF: Time 104700, Note Name: B4
Note ON: Time 104700, Note Name: C#5, Velocity: 42
Note OFF: Time 104760, Note Name: C#5
Note ON: Time 104760, Note Name: B4, Velocity: 46
Note OFF: Time 104880, Note Name: B4
Note ON: Time 104880, Note Name: A#4, Velocity: 45
Note OFF: Time 105120, Note Name: A#4
Note ON: Time 105120, Note Name: D#5, Velocity: 45
Note OFF: Time 105360, Note Name: D#5
Note ON: Time 105360, Note Name: F5, Velocity: 48
Note OFF: Time 105600, Note Name: F5
Note ON: Time 105600, Note Name: F#5, Velocity: 51
Note OFF: Time 106080, Note Name: F#5
Note ON: Time 106080, Note Name: F5, Velocity: 50
Note OFF: Time 106560, Note Name: F5
Note ON: Time 106560, Note Name: D#5, Velocity: 51
Note OFF: Time 107040, Note Name: D#5
Note ON: Time 107040, Note Name: F5, Velocity: 49
Note OFF: Time 107520, Note Name: F5
Note ON: Time 107520, Note Name: C#5, Velocity: 48
Note OFF: Time 108240, Note Name: C#5
Note ON: Time 108240, Note Name: G4, Velocity: 49
Note OFF: Time 108300, Note Name: G4
Note ON: Time 108300, Note Name: G#4, Velocity: 45
Note OFF: Time 108360, Note Name: G#4
Note ON: Time 108360, Note Name: A#4, Velocity: 45
Note OFF: Time 108420, Note Name: A#4
Note ON: Time 108420, Note Name: G#4, Velocity: 45
Note OFF: Time 108480, Note Name: G#4
Note ON: Time 108480, Note Name: F5, Velocity: 50
Note OFF: Time 109200, Note Name: F5
Note ON: Time 109200, Note Name: D#5, Velocity: 49
Note OFF: Time 109440, Note Name: D#5
Note ON: Time 109440, Note Name: D#5, Velocity: 52
Note OFF: Time 110400, Note Name: D#5
Note ON: Time 110400, Note Name: C#5, Velocity: 52
Note OFF: Time 110880, Note Name: C#5
Note ON: Time 111120, Note Name: G#5, Velocity: 60
Note OFF: Time 111360, Note Name: G#5
Note ON: Time 111360, Note Name: G#4, Velocity: 65
Note OFF: Time 112320, Note Name: G#4
Note ON: Time 112320, Note Name: A#4, Velocity: 65
Note OFF: Time 112380, Note Name: A#4
Note ON: Time 112380, Note Name: C5, Velocity: 59
Note OFF: Time 112440, Note Name: C5
Note ON: Time 112440, Note Name: A#4, Velocity: 60
Note OFF: Time 112500, Note Name: A#4
Note ON: Time 112500, Note Name: C5, Velocity: 59
Note OFF: Time 112560, Note Name: C5
Note ON: Time 112560, Note Name: A#4, Velocity: 56
Note OFF: Time 112600, Note Name: A#4
Note ON: Time 112600, Note Name: C5, Velocity: 56
Note OFF: Time 112640, Note Name: C5
Note ON: Time 112640, Note Name: A#4, Velocity: 56
Note OFF: Time 112680, Note Name: A#4
Note ON: Time 112680, Note Name: A4, Velocity: 62
Note OFF: Time 112800, Note Name: A4
Note ON: Time 112800, Note Name: A#4, Velocity: 64
Note OFF: Time 113160, Note Name: A#4
Note ON: Time 113160, Note Name: C5, Velocity: 62
Note OFF: Time 113280, Note Name: C5
Note ON: Time 113280, Note Name: G#4, Velocity: 66
Note OFF: Time 113520, Note Name: G#4
Note ON: Time 113760, Note Name: C6, Velocity: 66
Note OFF: Time 114377, Note Name: C6
Note ON: Time 114377, Note Name: A#5, Velocity: 63
Note OFF: Time 114514, Note Name: A#5
Note ON: Time 114514, Note Name: G#5, Velocity: 62
Note OFF: Time 114651, Note Name: G#5
Note ON: Time 114651, Note Name: E5, Velocity: 61
Note OFF: Time 114788, Note Name: E5
Note ON: Time 114788, Note Name: C#5, Velocity: 59
Note OFF: Time 114925, Note Name: C#5
Note ON: Time 114925, Note Name: A#4, Velocity: 58
Note OFF: Time 115131, Note Name: A#4
Note ON: Time 115131, Note Name: G#5, Velocity: 55
Note OFF: Time 115200, Note Name: G#5
Note ON: Time 115200, Note Name: D#4, Velocity: 66
Note OFF: Time 116100, Note Name: D#4
Note ON: Time 116100, Note Name: C5, Velocity: 59
Note OFF: Time 116160, Note Name: C5
Note ON: Time 116160, Note Name: A#4, Velocity: 64
Note OFF: Time 116520, Note Name: A#4
Note ON: Time 116520, Note Name: A4, Velocity: 57
Note OFF: Time 116640, Note Name: A4
Note ON: Time 116640, Note Name: A#4, Velocity: 64
Note OFF: Time 117000, Note Name: A#4
Note ON: Time 117000, Note Name: D#5, Velocity: 62
Note OFF: Time 117120, Note Name: D#5
Note ON: Time 117120, Note Name: G#4, Velocity: 65
Note OFF: Time 117600, Note Name: G#4
Note ON: Time 118080, Note Name: A#4, Velocity: 39
Note OFF: Time 118560, Note Name: A#4
Note ON: Time 118560, Note Name: C#5, Velocity: 44
Note OFF: Time 118720, Note Name: C#5
Note ON: Time 118720, Note Name: C5, Velocity: 39
Note OFF: Time 118880, Note Name: C5
Note ON: Time 118880, Note Name: A#4, Velocity: 39
Note OFF: Time 119040, Note Name: A#4
Note ON: Time 119040, Note Name: G#4, Velocity: 43
Note OFF: Time 120000, Note Name: G#4
Note ON: Time 120000, Note Name: A#4, Velocity: 46
Note OFF: Time 120048, Note Name: A#4
Note ON: Time 120048, Note Name: C5, Velocity: 42
Note OFF: Time 120096, Note Name: C5
Note ON: Time 120096, Note Name: A#4, Velocity: 42
Note OFF: Time 120144, Note Name: A#4
Note ON: Time 120144, Note Name: C5, Velocity: 44
Note OFF: Time 120192, Note Name: C5
Note ON: Time 120192, Note Name: A#4, Velocity: 42
Note OFF: Time 120240, Note Name: A#4
Note ON: Time 120240, Note Name: G#4, Velocity: 41
Note OFF: Time 120480, Note Name: G#4
Note ON: Time 120480, Note Name: C#5, Velocity: 45
Note OFF: Time 120720, Note Name: C#5
Note ON: Time 120720, Note Name: D#5, Velocity: 48
Note OFF: Time 120960, Note Name: D#5
Note ON: Time 120960, Note Name: F5, Velocity: 51
Note OFF: Time 121920, Note Name: F5
Note ON: Time 121920, Note Name: G#5, Velocity: 56
Note ON: Time 122400, Note Name: G#4, Velocity: 49
Note OFF: Time 122880, Note Name: G#4
Note OFF: Time 122880, Note Name: G#5
Note ON: Time 122880, Note Name: F#5, Velocity: 53
Note OFF: Time 123360, Note Name: F#5
Note ON: Time 123360, Note Name: F5, Velocity: 51
Note OFF: Time 123840, Note Name: F5
Note ON: Time 123840, Note Name: D#5, Velocity: 49
Note OFF: Time 124080, Note Name: D#5
Note ON: Time 124080, Note Name: F5, Velocity: 47
Note OFF: Time 124140, Note Name: F5
Note ON: Time 124140, Note Name: D#5, Velocity: 47
Note OFF: Time 124200, Note Name: D#5
Note ON: Time 124200, Note Name: C#5, Velocity: 47
Note OFF: Time 124260, Note Name: C#5
Note ON: Time 124260, Note Name: D#5, Velocity: 47
Note OFF: Time 124320, Note Name: D#5
Note ON: Time 124320, Note Name: F5, Velocity: 51
Note OFF: Time 124560, Note Name: F5
Note ON: Time 124560, Note Name: C#5, Velocity: 47
Note OFF: Time 124800, Note Name: C#5
Note ON: Time 124800, Note Name: G#4, Velocity: 48
Note OFF: Time 125760, Note Name: G#4
Note ON: Time 125760, Note Name: A#4, Velocity: 48
Note OFF: Time 127680, Note Name: A#4
Note ON: Time 127680, Note Name: B4, Velocity: 45
Note OFF: Time 127728, Note Name: B4
Note ON: Time 127728, Note Name: C#5, Velocity: 42
Note OFF: Time 127776, Note Name: C#5
Note ON: Time 127776, Note Name: B4, Velocity: 41
Note OFF: Time 127824, Note Name: B4
Note ON: Time 127824, Note Name: C#5, Velocity: 42
Note OFF: Time 127872, Note Name: C#5
Note ON: Time 127876, Note Name: B4, Velocity: 42
Note ON: Time 127920, Note Name: A#4, Velocity: 45
Note OFF: Time 127924, Note Name: B4
Note OFF: Time 128160, Note Name: A#4
Note ON: Time 128160, Note Name: D#5, Velocity: 45
Note OFF: Time 128400, Note Name: D#5
Note ON: Time 128400, Note Name: F5, Velocity: 48
Note OFF: Time 128640, Note Name: F5
Note ON: Time 128640, Note Name: F#5, Velocity: 51
Note OFF: Time 129120, Note Name: F#5
Note ON: Time 129120, Note Name: F5, Velocity: 50
Note OFF: Time 129600, Note Name: F5
Note ON: Time 129600, Note Name: D#5, Velocity: 51
Note OFF: Time 130080, Note Name: D#5
Note ON: Time 130080, Note Name: F5, Velocity: 49
Note OFF: Time 130560, Note Name: F5
Note ON: Time 130560, Note Name: C#5, Velocity: 48
Note OFF: Time 131280, Note Name: C#5
Note ON: Time 131280, Note Name: G4, Velocity: 49
Note OFF: Time 131340, Note Name: G4
Note ON: Time 131340, Note Name: G#4, Velocity: 45
Note OFF: Time 131400, Note Name: G#4
Note ON: Time 131400, Note Name: A#4, Velocity: 45
Note OFF: Time 131460, Note Name: A#4
Note ON: Time 131460, Note Name: G#4, Velocity: 45
Note OFF: Time 131520, Note Name: G#4
Note ON: Time 131520, Note Name: F5, Velocity: 50
Note OFF: Time 132240, Note Name: F5
Note ON: Time 132240, Note Name: D#5, Velocity: 49
Note OFF: Time 132480, Note Name: D#5
Note ON: Time 132480, Note Name: D#5, Velocity: 52
Note OFF: Time 133440, Note Name: D#5
Note ON: Time 133440, Note Name: C#5, Velocity: 52
Note OFF: Time 133920, Note Name: C#5
Note ON: Time 134160, Note Name: G#5, Velocity: 60
Note OFF: Time 134400, Note Name: G#5
Note ON: Time 134400, Note Name: G#4, Velocity: 65
Note OFF: Time 135360, Note Name: G#4
Note ON: Time 135360, Note Name: A#4, Velocity: 65
Note OFF: Time 135420, Note Name: A#4
Note ON: Time 135420, Note Name: C5, Velocity: 59
Note OFF: Time 135480, Note Name: C5
Note ON: Time 135480, Note Name: A#4, Velocity: 60
Note OFF: Time 135540, Note Name: A#4
Note ON: Time 135540, Note Name: C5, Velocity: 59
Note OFF: Time 135600, Note Name: C5
Note ON: Time 135600, Note Name: A#4, Velocity: 56
Note OFF: Time 135640, Note Name: A#4
Note ON: Time 135640, Note Name: C5, Velocity: 56
Note OFF: Time 135680, Note Name: C5
Note ON: Time 135680, Note Name: A#4, Velocity: 56
Note OFF: Time 135720, Note Name: A#4
Note ON: Time 135720, Note Name: A4, Velocity: 62
Note OFF: Time 135840, Note Name: A4
Note ON: Time 135840, Note Name: A#4, Velocity: 64
Note OFF: Time 136200, Note Name: A#4
Note ON: Time 136200, Note Name: C5, Velocity: 62
Note OFF: Time 136320, Note Name: C5
Note ON: Time 136320, Note Name: G#4, Velocity: 66
Note OFF: Time 136560, Note Name: G#4
Note ON: Time 136800, Note Name: C6, Velocity: 66
Note OFF: Time 137417, Note Name: C6
Note ON: Time 137417, Note Name: A#5, Velocity: 63
Note OFF: Time 137554, Note Name: A#5
Note ON: Time 137554, Note Name: G#5, Velocity: 62
Note OFF: Time 137691, Note Name: G#5
Note ON: Time 137691, Note Name: E5, Velocity: 61
Note OFF: Time 137828, Note Name: E5
Note ON: Time 137828, Note Name: C#5, Velocity: 59
Note OFF: Time 137965, Note Name: C#5
Note ON: Time 137965, Note Name: A#4, Velocity: 58
Note OFF: Time 138171, Note Name: A#4
Note ON: Time 138171, Note Name: G#5, Velocity: 55
Note OFF: Time 138240, Note Name: G#5
Note ON: Time 138240, Note Name: D#4, Velocity: 66
Note OFF: Time 139140, Note Name: D#4
Note ON: Time 139140, Note Name: C5, Velocity: 59
Note OFF: Time 139200, Note Name: C5
Note ON: Time 139200, Note Name: A#4, Velocity: 64
Note OFF: Time 139560, Note Name: A#4
Note ON: Time 139560, Note Name: A4, Velocity: 57
Note OFF: Time 139680, Note Name: A4
Note ON: Time 139680, Note Name: A#4, Velocity: 64
Note OFF: Time 140040, Note Name: A#4
Note ON: Time 140040, Note Name: D#5, Velocity: 62
Note OFF: Time 140160, Note Name: D#5
Note ON: Time 140160, Note Name: G#4, Velocity: 65
Note OFF: Time 140640, Note Name: G#4
Note ON: Time 141120, Note Name: A#4, Velocity: 39
Note OFF: Time 141600, Note Name: A#4
Note ON: Time 141600, Note Name: C#5, Velocity: 44
Note OFF: Time 141760, Note Name: C#5
Note ON: Time 141760, Note Name: C5, Velocity: 39
Note OFF: Time 141920, Note Name: C5
Note ON: Time 141920, Note Name: A#4, Velocity: 39
Note OFF: Time 142080, Note Name: A#4
Note ON: Time 142080, Note Name: G#4, Velocity: 43
Note OFF: Time 143040, Note Name: G#4
Note ON: Time 143040, Note Name: A#4, Velocity: 47
Note OFF: Time 143088, Note Name: A#4
Note ON: Time 143088, Note Name: C5, Velocity: 43
Note OFF: Time 143136, Note Name: C5
Note ON: Time 143136, Note Name: A#4, Velocity: 43
Note OFF: Time 143184, Note Name: A#4
Note ON: Time 143184, Note Name: C5, Velocity: 43
Note OFF: Time 143232, Note Name: C5
Note ON: Time 143232, Note Name: A#4, Velocity: 43
Note OFF: Time 143280, Note Name: A#4
Note ON: Time 143280, Note Name: G#4, Velocity: 45
Note OFF: Time 143520, Note Name: G#4
Note ON: Time 143520, Note Name: C#5, Velocity: 45
Note OFF: Time 143760, Note Name: C#5
Note ON: Time 143760, Note Name: D#5, Velocity: 48
Note OFF: Time 144000, Note Name: D#5
Note ON: Time 144000, Note Name: F5, Velocity: 51
Note OFF: Time 144960, Note Name: F5
Note ON: Time 144960, Note Name: G#5, Velocity: 56
Note ON: Time 145440, Note Name: G#4, Velocity: 49
Note OFF: Time 145920, Note Name: G#4
Note OFF: Time 145920, Note Name: G#5
Note ON: Time 145920, Note Name: F#5, Velocity: 53
Note OFF: Time 146400, Note Name: F#5
Note ON: Time 146400, Note Name: F5, Velocity: 51
Note OFF: Time 146880, Note Name: F5
Note ON: Time 146880, Note Name: D#5, Velocity: 49
Note OFF: Time 147120, Note Name: D#5
Note ON: Time 147120, Note Name: F5, Velocity: 47
Note OFF: Time 147180, Note Name: F5
Note ON: Time 147180, Note Name: D#5, Velocity: 47
Note OFF: Time 147240, Note Name: D#5
Note ON: Time 147240, Note Name: C#5, Velocity: 47
Note OFF: Time 147300, Note Name: C#5
Note ON: Time 147300, Note Name: D#5, Velocity: 47
Note OFF: Time 147360, Note Name: D#5
Note ON: Time 147360, Note Name: F5, Velocity: 51
Note OFF: Time 147600, Note Name: F5
Note ON: Time 147600, Note Name: C#5, Velocity: 47
Note OFF: Time 147840, Note Name: C#5
Note ON: Time 147840, Note Name: G#4, Velocity: 48
Note OFF: Time 148800, Note Name: G#4
Note ON: Time 148800, Note Name: A#4, Velocity: 48
Note OFF: Time 150720, Note Name: A#4
Note ON: Time 150720, Note Name: B4, Velocity: 48
Note OFF: Time 150768, Note Name: B4
Note ON: Time 150768, Note Name: C#5, Velocity: 42
Note OFF: Time 150816, Note Name: C#5
Note ON: Time 150816, Note Name: B4, Velocity: 43
Note OFF: Time 150864, Note Name: B4
Note ON: Time 150864, Note Name: C#5, Velocity: 42
Note OFF: Time 150912, Note Name: C#5
Note ON: Time 150912, Note Name: B4, Velocity: 42
Note OFF: Time 150960, Note Name: B4
Note ON: Time 150960, Note Name: A#4, Velocity: 45
Note OFF: Time 151200, Note Name: A#4
Note ON: Time 151200, Note Name: D#5, Velocity: 45
Note OFF: Time 151440, Note Name: D#5
Note ON: Time 151440, Note Name: F5, Velocity: 48
Note OFF: Time 151680, Note Name: F5
Note ON: Time 151680, Note Name: F#5, Velocity: 51
Note OFF: Time 152160, Note Name: F#5
Note ON: Time 152160, Note Name: F5, Velocity: 47
Note OFF: Time 152640, Note Name: F5
Note ON: Time 152640, Note Name: D#5, Velocity: 49
Note OFF: Time 153120, Note Name: D#5
Note ON: Time 153120, Note Name: F5, Velocity: 45
Note OFF: Time 153600, Note Name: F5
Note ON: Time 153600, Note Name: C#5, Velocity: 43
Note OFF: Time 154320, Note Name: C#5
Note ON: Time 154320, Note Name: G4, Velocity: 44
Note OFF: Time 154380, Note Name: G4
Note ON: Time 154380, Note Name: G#4, Velocity: 40
Note OFF: Time 154440, Note Name: G#4
Note ON: Time 154440, Note Name: A#4, Velocity: 40
Note OFF: Time 154500, Note Name: A#4
Note ON: Time 154500, Note Name: G#4, Velocity: 40
Note OFF: Time 154560, Note Name: G#4
Note ON: Time 154560, Note Name: F5, Velocity: 45
Note OFF: Time 155280, Note Name: F5
Note ON: Time 155280, Note Name: D#5, Velocity: 44
Note OFF: Time 155520, Note Name: D#5
Note ON: Time 155520, Note Name: D#5, Velocity: 44
Note OFF: Time 157440, Note Name: D#5
Note ON: Time 157560, Note Name: G#4, Velocity: 37
Note OFF: Time 157680, Note Name: G#4
Note ON: Time 157680, Note Name: A4, Velocity: 41
Note OFF: Time 157800, Note Name: A4
Note ON: Time 157800, Note Name: G#4, Velocity: 38
Note OFF: Time 157920, Note Name: G#4
Note ON: Time 157920, Note Name: G4, Velocity: 39
Note OFF: Time 158040, Note Name: G4
Note ON: Time 158040, Note Name: G#4, Velocity: 40
Note OFF: Time 158160, Note Name: G#4
Note ON: Time 158160, Note Name: C#5, Velocity: 42
Note OFF: Time 158280, Note Name: C#5
Note ON: Time 158280, Note Name: E5, Velocity: 43
Note OFF: Time 158400, Note Name: E5
Note ON: Time 158400, Note Name: D#5, Velocity: 45
Note OFF: Time 158520, Note Name: D#5
Note ON: Time 158520, Note Name: C#5, Velocity: 43
Note OFF: Time 158640, Note Name: C#5
Note ON: Time 158640, Note Name: D#5, Velocity: 45
Note OFF: Time 158760, Note Name: D#5
Note ON: Time 158760, Note Name: C#5, Velocity: 43
Note OFF: Time 158880, Note Name: C#5
Note ON: Time 158880, Note Name: C5, Velocity: 44
Note OFF: Time 159000, Note Name: C5
Note ON: Time 159000, Note Name: C#5, Velocity: 46
Note OFF: Time 159120, Note Name: C#5
Note ON: Time 159120, Note Name: E5, Velocity: 49
Note OFF: Time 159240, Note Name: E5
Note ON: Time 159240, Note Name: G#5, Velocity: 47
Note OFF: Time 159360, Note Name: G#5
Note ON: Time 159480, Note Name: G#4, Velocity: 45
Note OFF: Time 159600, Note Name: G#4
Note ON: Time 159600, Note Name: A4, Velocity: 49
Note OFF: Time 159720, Note Name: A4
Note ON: Time 159720, Note Name: G#4, Velocity: 45
Note OFF: Time 159840, Note Name: G#4
Note ON: Time 159840, Note Name: G4, Velocity: 46
Note OFF: Time 159960, Note Name: G4
Note ON: Time 159960, Note Name: G#4, Velocity: 48
Note OFF: Time 160080, Note Name: G#4
Note ON: Time 160080, Note Name: C#5, Velocity: 50
Note OFF: Time 160200, Note Name: C#5
Note ON: Time 160200, Note Name: E5, Velocity: 51
Note OFF: Time 160320, Note Name: E5
Note ON: Time 160320, Note Name: D#5, Velocity: 54
Note OFF: Time 160440, Note Name: D#5
Note ON: Time 160440, Note Name: C#5, Velocity: 51
Note OFF: Time 160560, Note Name: C#5
Note ON: Time 160560, Note Name: D#5, Velocity: 53
Note OFF: Time 160680, Note Name: D#5
Note ON: Time 160680, Note Name: C#5, Velocity: 51
Note OFF: Time 160800, Note Name: C#5
Note ON: Time 160800, Note Name: C5, Velocity: 52
Note OFF: Time 160920, Note Name: C5
Note ON: Time 160920, Note Name: C#5, Velocity: 54
Note OFF: Time 161040, Note Name: C#5
Note ON: Time 161040, Note Name: E5, Velocity: 57
Note OFF: Time 161160, Note Name: E5
Note ON: Time 161160, Note Name: G#5, Velocity: 55
Note OFF: Time 161280, Note Name: G#5
Note ON: Time 161400, Note Name: A4, Velocity: 56
Note OFF: Time 161520, Note Name: A4
Note ON: Time 161520, Note Name: C#5, Velocity: 58
Note OFF: Time 161640, Note Name: C#5
Note ON: Time 161640, Note Name: D#5, Velocity: 60
Note OFF: Time 161760, Note Name: D#5
Note ON: Time 161760, Note Name: F#5, Velocity: 63
Note OFF: Time 161880, Note Name: F#5
Note ON: Time 161880, Note Name: A5, Velocity: 63
Note OFF: Time 162000, Note Name: A5
Note ON: Time 162000, Note Name: C#6, Velocity: 66
Note OFF: Time 162120, Note Name: C#6
Note ON: Time 162120, Note Name: D#6, Velocity: 72
Note OFF: Time 162240, Note Name: D#6
Note ON: Time 162240, Note Name: B6, Velocity: 76
Note OFF: Time 162360, Note Name: B6
Note ON: Time 162360, Note Name: A6, Velocity: 75
Note OFF: Time 162480, Note Name: A6
Note ON: Time 162480, Note Name: G#6, Velocity: 70
Note OFF: Time 162600, Note Name: G#6
Note ON: Time 162600, Note Name: F#6, Velocity: 69
Note OFF: Time 162720, Note Name: F#6
Note ON: Time 162720, Note Name: E6, Velocity: 68
Note OFF: Time 162840, Note Name: E6
Note ON: Time 162840, Note Name: D#6, Velocity: 67
Note OFF: Time 162960, Note Name: D#6
Note ON: Time 162960, Note Name: F#6, Velocity: 66
Note OFF: Time 163080, Note Name: F#6
Note ON: Time 163080, Note Name: C#6, Velocity: 67
Note OFF: Time 163200, Note Name: C#6
Note ON: Time 163200, Note Name: C6, Velocity: 68
Note OFF: Time 163320, Note Name: C6
Note ON: Time 163320, Note Name: D#6, Velocity: 63
Note OFF: Time 163440, Note Name: D#6
Note ON: Time 163440, Note Name: A5, Velocity: 63
Note OFF: Time 163560, Note Name: A5
Note ON: Time 163560, Note Name: G#5, Velocity: 63
Note OFF: Time 163680, Note Name: G#5
Note ON: Time 163680, Note Name: F#5, Velocity: 60
Note OFF: Time 163800, Note Name: F#5
Note ON: Time 163800, Note Name: A5, Velocity: 58
Note OFF: Time 163920, Note Name: A5
Note ON: Time 163920, Note Name: E5, Velocity: 54
Note OFF: Time 164040, Note Name: E5
Note ON: Time 164040, Note Name: D#5, Velocity: 54
Note OFF: Time 164160, Note Name: D#5
Note ON: Time 164160, Note Name: F#5, Velocity: 53
Note OFF: Time 164280, Note Name: F#5
Note ON: Time 164280, Note Name: C#5, Velocity: 48
Note OFF: Time 164400, Note Name: C#5
Note ON: Time 164400, Note Name: C5, Velocity: 48
Note OFF: Time 164520, Note Name: C5
Note ON: Time 164520, Note Name: D#5, Velocity: 47
Note OFF: Time 164640, Note Name: D#5
Note ON: Time 164640, Note Name: A4, Velocity: 45
Note OFF: Time 164760, Note Name: A4
Note ON: Time 164760, Note Name: G#4, Velocity: 42
Note OFF: Time 164880, Note Name: G#4
Note ON: Time 164880, Note Name: B4, Velocity: 42
Note OFF: Time 165000, Note Name: B4
Note ON: Time 165000, Note Name: A4, Velocity: 41
Note OFF: Time 165240, Note Name: A4
Note ON: Time 165240, Note Name: G#4, Velocity: 37
Note OFF: Time 165360, Note Name: G#4
Note ON: Time 165360, Note Name: A4, Velocity: 41
Note OFF: Time 165480, Note Name: A4
Note ON: Time 165480, Note Name: G#4, Velocity: 38
Note OFF: Time 165600, Note Name: G#4
Note ON: Time 165600, Note Name: G4, Velocity: 39
Note OFF: Time 165720, Note Name: G4
Note ON: Time 165720, Note Name: G#4, Velocity: 40
Note OFF: Time 165840, Note Name: G#4
Note ON: Time 165840, Note Name: C#5, Velocity: 42
Note OFF: Time 165960, Note Name: C#5
Note ON: Time 165960, Note Name: E5, Velocity: 43
Note OFF: Time 166080, Note Name: E5
Note ON: Time 166080, Note Name: D#5, Velocity: 45
Note OFF: Time 166200, Note Name: D#5
Note ON: Time 166200, Note Name: C#5, Velocity: 43
Note OFF: Time 166320, Note Name: C#5
Note ON: Time 166320, Note Name: D#5, Velocity: 45
Note OFF: Time 166440, Note Name: D#5
Note ON: Time 166440, Note Name: C#5, Velocity: 43
Note OFF: Time 166560, Note Name: C#5
Note ON: Time 166560, Note Name: C5, Velocity: 44
Note OFF: Time 166680, Note Name: C5
Note ON: Time 166680, Note Name: C#5, Velocity: 46
Note OFF: Time 166800, Note Name: C#5
Note ON: Time 166800, Note Name: E5, Velocity: 49
Note OFF: Time 166920, Note Name: E5
Note ON: Time 166920, Note Name: G#5, Velocity: 47
Note OFF: Time 167040, Note Name: G#5
Note ON: Time 167160, Note Name: G#4, Velocity: 45
Note OFF: Time 167280, Note Name: G#4
Note ON: Time 167280, Note Name: A#4, Velocity: 49
Note OFF: Time 167400, Note Name: A#4
Note ON: Time 167400, Note Name: G#4, Velocity: 45
Note OFF: Time 167520, Note Name: G#4
Note ON: Time 167520, Note Name: G4, Velocity: 46
Note OFF: Time 167640, Note Name: G4
Note ON: Time 167640, Note Name: G#4, Velocity: 48
Note OFF: Time 167760, Note Name: G#4
Note ON: Time 167760, Note Name: C#5, Velocity: 50
Note OFF: Time 167880, Note Name: C#5
Note ON: Time 167880, Note Name: E5, Velocity: 51
Note OFF: Time 168000, Note Name: E5
Note ON: Time 168000, Note Name: D#5, Velocity: 54
Note OFF: Time 168120, Note Name: D#5
Note ON: Time 168120, Note Name: C#5, Velocity: 51
Note OFF: Time 168240, Note Name: C#5
Note ON: Time 168240, Note Name: D#5, Velocity: 53
Note OFF: Time 168360, Note Name: D#5
Note ON: Time 168360, Note Name: C#5, Velocity: 51
Note OFF: Time 168480, Note Name: C#5
Note ON: Time 168480, Note Name: C5, Velocity: 52
Note OFF: Time 168600, Note Name: C5
Note ON: Time 168600, Note Name: C#5, Velocity: 54
Note OFF: Time 168720, Note Name: C#5
Note ON: Time 168720, Note Name: E5, Velocity: 57
Note OFF: Time 168840, Note Name: E5
Note ON: Time 168840, Note Name: G#5, Velocity: 55
Note OFF: Time 168960, Note Name: G#5
Note ON: Time 168960, Note Name: D#5, Velocity: 64
Note OFF: Time 169080, Note Name: D#5
Note ON: Time 169080, Note Name: E5, Velocity: 58
Note OFF: Time 169200, Note Name: E5
Note ON: Time 169200, Note Name: D#5, Velocity: 61
Note OFF: Time 169320, Note Name: D#5
Note ON: Time 169320, Note Name: D5, Velocity: 50
Note OFF: Time 169440, Note Name: D5
Note ON: Time 169440, Note Name: D#5, Velocity: 56
Note OFF: Time 169560, Note Name: D#5
Note ON: Time 169560, Note Name: B5, Velocity: 68
Note OFF: Time 169680, Note Name: B5
Note ON: Time 169680, Note Name: A#5, Velocity: 62
Note OFF: Time 169800, Note Name: A#5
Note ON: Time 169800, Note Name: G#5, Velocity: 65
Note OFF: Time 169920, Note Name: G#5
Note ON: Time 169920, Note Name: G5, Velocity: 68
Note OFF: Time 170040, Note Name: G5
Note ON: Time 170040, Note Name: E6, Velocity: 72
Note OFF: Time 170160, Note Name: E6
Note ON: Time 170160, Note Name: D#6, Velocity: 69
Note OFF: Time 170280, Note Name: D#6
Note ON: Time 170280, Note Name: C#6, Velocity: 69
Note OFF: Time 170400, Note Name: C#6
Note ON: Time 170400, Note Name: B5, Velocity: 74
Note OFF: Time 170520, Note Name: B5
Note ON: Time 170520, Note Name: A#5, Velocity: 69
Note OFF: Time 170640, Note Name: A#5
Note ON: Time 170640, Note Name: G#5, Velocity: 69
Note OFF: Time 170760, Note Name: G#5
Note ON: Time 170760, Note Name: G5, Velocity: 69
Note OFF: Time 170880, Note Name: G5
Note ON: Time 170880, Note Name: A#5, Velocity: 72
Note OFF: Time 171000, Note Name: A#5
Note ON: Time 171000, Note Name: G#5, Velocity: 70
Note OFF: Time 171120, Note Name: G#5
Note ON: Time 171120, Note Name: B5, Velocity: 64
Note OFF: Time 171240, Note Name: B5
Note ON: Time 171240, Note Name: D5, Velocity: 57
Note OFF: Time 171360, Note Name: D5
Note ON: Time 171360, Note Name: E5, Velocity: 65
Note OFF: Time 171480, Note Name: E5
Note ON: Time 171480, Note Name: D#5, Velocity: 57
Note OFF: Time 171600, Note Name: D#5
Note ON: Time 171600, Note Name: G#5, Velocity: 63
Note OFF: Time 171720, Note Name: G#5
Note ON: Time 171720, Note Name: A#4, Velocity: 57
Note OFF: Time 171840, Note Name: A#4
Note ON: Time 171840, Note Name: C#5, Velocity: 61
Note OFF: Time 171960, Note Name: C#5
Note ON: Time 171960, Note Name: B4, Velocity: 59
Note OFF: Time 172080, Note Name: B4
Note ON: Time 172080, Note Name: D#5, Velocity: 58
Note OFF: Time 172200, Note Name: D#5
Note ON: Time 172200, Note Name: G4, Velocity: 56
Note OFF: Time 172320, Note Name: G4
Note ON: Time 172320, Note Name: A#4, Velocity: 60
Note OFF: Time 172440, Note Name: A#4
Note ON: Time 172440, Note Name: G#4, Velocity: 51
Note OFF: Time 172560, Note Name: G#4
Note ON: Time 172560, Note Name: G4, Velocity: 55
Note OFF: Time 172680, Note Name: G4
Note ON: Time 172680, Note Name: G#4, Velocity: 50
Note OFF: Time 172800, Note Name: G#4
Note ON: Time 172800, Note Name: G#4, Velocity: 72
Note OFF: Time 172920, Note Name: G#4
Note ON: Time 172920, Note Name: G#5, Velocity: 58
Note OFF: Time 173040, Note Name: G#5
Note ON: Time 173040, Note Name: C5, Velocity: 59
Note OFF: Time 173160, Note Name: C5
Note ON: Time 173160, Note Name: C#5, Velocity: 59
Note OFF: Time 173280, Note Name: C#5
Note ON: Time 173280, Note Name: F#4, Velocity: 71
Note OFF: Time 173400, Note Name: F#4
Note ON: Time 173400, Note Name: F#5, Velocity: 60
Note OFF: Time 173520, Note Name: F#5
Note ON: Time 173520, Note Name: C5, Velocity: 60
Note OFF: Time 173640, Note Name: C5
Note ON: Time 173640, Note Name: C#5, Velocity: 61
Note OFF: Time 173760, Note Name: C#5
Note ON: Time 173760, Note Name: F4, Velocity: 75
Note OFF: Time 173880, Note Name: F4
Note ON: Time 173880, Note Name: F5, Velocity: 62
Note OFF: Time 174000, Note Name: F5
Note ON: Time 174000, Note Name: C5, Velocity: 63
Note OFF: Time 174120, Note Name: C5
Note ON: Time 174120, Note Name: C#5, Velocity: 63
Note OFF: Time 174240, Note Name: C#5
Note ON: Time 174240, Note Name: F#4, Velocity: 74
Note OFF: Time 174360, Note Name: F#4
Note ON: Time 174360, Note Name: F#5, Velocity: 65
Note OFF: Time 174480, Note Name: F#5
Note ON: Time 174480, Note Name: C5, Velocity: 64
Note OFF: Time 174600, Note Name: C5
Note ON: Time 174600, Note Name: C#5, Velocity: 64
Note OFF: Time 174720, Note Name: C#5
Note ON: Time 174720, Note Name: C#4, Velocity: 77
Note OFF: Time 174840, Note Name: C#4
Note ON: Time 174840, Note Name: C#5, Velocity: 65
Note OFF: Time 174960, Note Name: C#5
Note ON: Time 174960, Note Name: F#4, Velocity: 65
Note OFF: Time 175080, Note Name: F#4
Note ON: Time 175080, Note Name: A4, Velocity: 65
Note OFF: Time 175200, Note Name: A4
Note ON: Time 175200, Note Name: D#4, Velocity: 75
Note OFF: Time 175320, Note Name: D#4
Note ON: Time 175320, Note Name: D#5, Velocity: 65
Note OFF: Time 175440, Note Name: D#5
Note ON: Time 175440, Note Name: F#4, Velocity: 65
Note OFF: Time 175560, Note Name: F#4
Note ON: Time 175560, Note Name: A4, Velocity: 65
Note OFF: Time 175680, Note Name: A4
Note ON: Time 175680, Note Name: E4, Velocity: 79
Note OFF: Time 175800, Note Name: E4
Note ON: Time 175800, Note Name: E5, Velocity: 66
Note OFF: Time 175920, Note Name: E5
Note ON: Time 175920, Note Name: G#4, Velocity: 66
Note OFF: Time 176040, Note Name: G#4
Note ON: Time 176040, Note Name: B4, Velocity: 66
Note OFF: Time 176160, Note Name: B4
Note ON: Time 176160, Note Name: G#4, Velocity: 77
Note OFF: Time 176280, Note Name: G#4
Note ON: Time 176280, Note Name: G#5, Velocity: 67
Note OFF: Time 176400, Note Name: G#5
Note ON: Time 176400, Note Name: B4, Velocity: 66
Note OFF: Time 176520, Note Name: B4
Note ON: Time 176520, Note Name: E5, Velocity: 65
Note OFF: Time 176640, Note Name: E5
Note ON: Time 176640, Note Name: G#4, Velocity: 81
Note OFF: Time 176760, Note Name: G#4
Note ON: Time 176760, Note Name: G#5, Velocity: 65
Note OFF: Time 176880, Note Name: G#5
Note ON: Time 176880, Note Name: C5, Velocity: 65
Note OFF: Time 177000, Note Name: C5
Note ON: Time 177000, Note Name: C#5, Velocity: 65
Note OFF: Time 177120, Note Name: C#5
Note ON: Time 177120, Note Name: F#4, Velocity: 78
Note OFF: Time 177240, Note Name: F#4
Note ON: Time 177240, Note Name: F#5, Velocity: 65
Note OFF: Time 177360, Note Name: F#5
Note ON: Time 177360, Note Name: C5, Velocity: 65
Note OFF: Time 177480, Note Name: C5
Note ON: Time 177480, Note Name: C#5, Velocity: 65
Note OFF: Time 177600, Note Name: C#5
Note ON: Time 177600, Note Name: F4, Velocity: 79
Note OFF: Time 177720, Note Name: F4
Note ON: Time 177720, Note Name: F5, Velocity: 66
Note OFF: Time 177840, Note Name: F5
Note ON: Time 177840, Note Name: C5, Velocity: 66
Note OFF: Time 177960, Note Name: C5
Note ON: Time 177960, Note Name: C#5, Velocity: 66
Note OFF: Time 178080, Note Name: C#5
Note ON: Time 178080, Note Name: F#4, Velocity: 77
Note OFF: Time 178200, Note Name: F#4
Note ON: Time 178200, Note Name: F#5, Velocity: 67
Note OFF: Time 178320, Note Name: F#5
Note ON: Time 178320, Note Name: C5, Velocity: 66
Note OFF: Time 178440, Note Name: C5
Note ON: Time 178440, Note Name: C#5, Velocity: 65
Note OFF: Time 178560, Note Name: C#5
Note ON: Time 178560, Note Name: F4, Velocity: 81
Note OFF: Time 178680, Note Name: F4
Note ON: Time 178680, Note Name: F5, Velocity: 65
Note OFF: Time 178800, Note Name: F5
Note ON: Time 178800, Note Name: B4, Velocity: 65
Note OFF: Time 178920, Note Name: B4
Note ON: Time 178920, Note Name: D#5, Velocity: 65
Note OFF: Time 179040, Note Name: D#5
Note ON: Time 179040, Note Name: F#4, Velocity: 78
Note OFF: Time 179160, Note Name: F#4
Note ON: Time 179160, Note Name: F#5, Velocity: 65
Note OFF: Time 179280, Note Name: F#5
Note ON: Time 179280, Note Name: B4, Velocity: 65
Note OFF: Time 179400, Note Name: B4
Note ON: Time 179400, Note Name: D#5, Velocity: 65
Note OFF: Time 179520, Note Name: D#5
Note ON: Time 179520, Note Name: A4, Velocity: 79
Note OFF: Time 179640, Note Name: A4
Note ON: Time 179640, Note Name: A5, Velocity: 66
Note OFF: Time 179760, Note Name: A5
Note ON: Time 179760, Note Name: B4, Velocity: 66
Note OFF: Time 179880, Note Name: B4
Note ON: Time 179880, Note Name: E5, Velocity: 66
Note OFF: Time 180000, Note Name: E5
Note ON: Time 180000, Note Name: G#4, Velocity: 77
Note OFF: Time 180120, Note Name: G#4
Note ON: Time 180120, Note Name: G#5, Velocity: 67
Note OFF: Time 180240, Note Name: G#5
Note ON: Time 180240, Note Name: B4, Velocity: 66
Note OFF: Time 180360, Note Name: B4
Note ON: Time 180360, Note Name: E5, Velocity: 65
Note OFF: Time 180480, Note Name: E5
Note ON: Time 180480, Note Name: G#4, Velocity: 52
Note OFF: Time 180600, Note Name: G#4
Note ON: Time 180600, Note Name: G#5, Velocity: 57
Note OFF: Time 180720, Note Name: G#5
Note ON: Time 180720, Note Name: C5, Velocity: 47
Note OFF: Time 180840, Note Name: C5
Note ON: Time 180840, Note Name: C#5, Velocity: 47
Note OFF: Time 180960, Note Name: C#5
Note ON: Time 180960, Note Name: F#4, Velocity: 49
Note OFF: Time 181080, Note Name: F#4
Note ON: Time 181080, Note Name: F#5, Velocity: 54
Note OFF: Time 181200, Note Name: F#5
Note ON: Time 181200, Note Name: C5, Velocity: 48
Note OFF: Time 181320, Note Name: C5
Note ON: Time 181320, Note Name: C#5, Velocity: 48
Note OFF: Time 181440, Note Name: C#5
Note ON: Time 181440, Note Name: F4, Velocity: 51
Note OFF: Time 181560, Note Name: F4
Note ON: Time 181560, Note Name: F5, Velocity: 56
Note OFF: Time 181680, Note Name: F5
Note ON: Time 181680, Note Name: C5, Velocity: 50
Note OFF: Time 181800, Note Name: C5
Note ON: Time 181800, Note Name: C#5, Velocity: 50
Note OFF: Time 181920, Note Name: C#5
Note ON: Time 181920, Note Name: F#4, Velocity: 53
Note OFF: Time 182040, Note Name: F#4
Note ON: Time 182040, Note Name: F#5, Velocity: 58
Note OFF: Time 182160, Note Name: F#5
Note ON: Time 182160, Note Name: C5, Velocity: 51
Note OFF: Time 182280, Note Name: C5
Note ON: Time 182280, Note Name: C#5, Velocity: 51
Note OFF: Time 182400, Note Name: C#5
Note ON: Time 182400, Note Name: C#4, Velocity: 55
Note OFF: Time 182520, Note Name: C#4
Note ON: Time 182520, Note Name: C#5, Velocity: 60
Note OFF: Time 182640, Note Name: C#5
Note ON: Time 182640, Note Name: F#4, Velocity: 52
Note OFF: Time 182760, Note Name: F#4
Note ON: Time 182760, Note Name: A4, Velocity: 53
Note OFF: Time 182880, Note Name: A4
Note ON: Time 182880, Note Name: D#4, Velocity: 55
Note OFF: Time 183000, Note Name: D#4
Note ON: Time 183000, Note Name: D#5, Velocity: 62
Note OFF: Time 183120, Note Name: D#5
Note ON: Time 183120, Note Name: F#4, Velocity: 54
Note OFF: Time 183240, Note Name: F#4
Note ON: Time 183240, Note Name: A4, Velocity: 54
Note OFF: Time 183360, Note Name: A4
Note ON: Time 183360, Note Name: E4, Velocity: 57
Note OFF: Time 183480, Note Name: E4
Note ON: Time 183480, Note Name: E5, Velocity: 65
Note OFF: Time 183600, Note Name: E5
Note ON: Time 183600, Note Name: G#4, Velocity: 56
Note OFF: Time 183720, Note Name: G#4
Note ON: Time 183720, Note Name: B4, Velocity: 56
Note OFF: Time 183840, Note Name: B4
Note ON: Time 183840, Note Name: G#4, Velocity: 60
Note OFF: Time 183960, Note Name: G#4
Note ON: Time 183960, Note Name: G#5, Velocity: 68
Note OFF: Time 184080, Note Name: G#5
Note ON: Time 184080, Note Name: B4, Velocity: 57
Note OFF: Time 184200, Note Name: B4
Note ON: Time 184200, Note Name: E5, Velocity: 58
Note OFF: Time 184320, Note Name: E5
Note ON: Time 184320, Note Name: G#4, Velocity: 62
Note OFF: Time 184440, Note Name: G#4
Note ON: Time 184440, Note Name: G#5, Velocity: 68
Note OFF: Time 184560, Note Name: G#5
Note ON: Time 184560, Note Name: C5, Velocity: 59
Note OFF: Time 184680, Note Name: C5
Note ON: Time 184680, Note Name: C#5, Velocity: 59
Note OFF: Time 184800, Note Name: C#5
Note ON: Time 184800, Note Name: F#4, Velocity: 62
Note OFF: Time 184920, Note Name: F#4
Note ON: Time 184920, Note Name: F#5, Velocity: 70
Note OFF: Time 185040, Note Name: F#5
Note ON: Time 185040, Note Name: C5, Velocity: 61
Note OFF: Time 185160, Note Name: C5
Note ON: Time 185160, Note Name: C#5, Velocity: 61
Note OFF: Time 185280, Note Name: C#5
Note ON: Time 185280, Note Name: D#5, Velocity: 64
Note OFF: Time 185400, Note Name: D#5
Note ON: Time 185400, Note Name: D#6, Velocity: 73
Note OFF: Time 185520, Note Name: D#6
Note ON: Time 185520, Note Name: F#5, Velocity: 62
Note OFF: Time 185640, Note Name: F#5
Note ON: Time 185640, Note Name: A5, Velocity: 62
Note OFF: Time 185760, Note Name: A5
Note ON: Time 185760, Note Name: C#5, Velocity: 66
Note OFF: Time 185880, Note Name: C#5
Note ON: Time 185880, Note Name: C#6, Velocity: 74
Note OFF: Time 186000, Note Name: C#6
Note ON: Time 186000, Note Name: F#5, Velocity: 62
Note OFF: Time 186120, Note Name: F#5
Note ON: Time 186120, Note Name: A5, Velocity: 62
Note OFF: Time 186240, Note Name: A5
Note ON: Time 186240, Note Name: C#5, Velocity: 64
Note OFF: Time 186360, Note Name: C#5
Note ON: Time 186360, Note Name: C#6, Velocity: 73
Note OFF: Time 186480, Note Name: C#6
Note ON: Time 186480, Note Name: D#5, Velocity: 61
Note OFF: Time 186600, Note Name: D#5
Note ON: Time 186600, Note Name: F#5, Velocity: 61
Note OFF: Time 186720, Note Name: F#5
Note ON: Time 186720, Note Name: C5, Velocity: 64
Note OFF: Time 186840, Note Name: C5
Note ON: Time 186840, Note Name: C6, Velocity: 71
Note OFF: Time 186960, Note Name: C6
Note ON: Time 186960, Note Name: D#5, Velocity: 60
Note OFF: Time 187080, Note Name: D#5
Note ON: Time 187080, Note Name: F#5, Velocity: 59
Note OFF: Time 187200, Note Name: F#5
Note ON: Time 187200, Note Name: C5, Velocity: 60
Note OFF: Time 187320, Note Name: C5
Note ON: Time 187320, Note Name: C6, Velocity: 69
Note OFF: Time 187440, Note Name: C6
Note ON: Time 187440, Note Name: D#5, Velocity: 58
Note OFF: Time 187560, Note Name: D#5
Note ON: Time 187560, Note Name: F#5, Velocity: 58
Note OFF: Time 187680, Note Name: F#5
Note ON: Time 187680, Note Name: C5, Velocity: 61
Note OFF: Time 187800, Note Name: C5
Note ON: Time 187800, Note Name: C6, Velocity: 68
Note OFF: Time 187920, Note Name: C6
Note ON: Time 187920, Note Name: D#5, Velocity: 57
Note OFF: Time 188040, Note Name: D#5
Note ON: Time 188040, Note Name: F#5, Velocity: 56
Note OFF: Time 188160, Note Name: F#5
Note ON: Time 188160, Note Name: C5, Velocity: 57
Note OFF: Time 188280, Note Name: C5
Note ON: Time 188280, Note Name: C6, Velocity: 65
Note OFF: Time 188400, Note Name: C6
Note ON: Time 188400, Note Name: D#5, Velocity: 55
Note OFF: Time 188520, Note Name: D#5
Note ON: Time 188520, Note Name: F#5, Velocity: 55
Note OFF: Time 188640, Note Name: F#5
Note ON: Time 188640, Note Name: B4, Velocity: 58
Note OFF: Time 188760, Note Name: B4
Note ON: Time 188760, Note Name: B5, Velocity: 64
Note OFF: Time 188880, Note Name: B5
Note ON: Time 188880, Note Name: D#5, Velocity: 53
Note OFF: Time 189000, Note Name: D#5
Note ON: Time 189000, Note Name: F#5, Velocity: 53
Note OFF: Time 189120, Note Name: F#5
Note ON: Time 189120, Note Name: B4, Velocity: 54
Note OFF: Time 189240, Note Name: B4
Note ON: Time 189240, Note Name: B5, Velocity: 62
Note OFF: Time 189360, Note Name: B5
Note ON: Time 189360, Note Name: D#5, Velocity: 52
Note OFF: Time 189480, Note Name: D#5
Note ON: Time 189480, Note Name: F#5, Velocity: 52
Note OFF: Time 189600, Note Name: F#5
Note ON: Time 189600, Note Name: A#4, Velocity: 54
Note OFF: Time 189720, Note Name: A#4
Note ON: Time 189720, Note Name: A#5, Velocity: 60
Note OFF: Time 189840, Note Name: A#5
Note ON: Time 189840, Note Name: D#5, Velocity: 50
Note OFF: Time 189960, Note Name: D#5
Note ON: Time 189960, Note Name: F#5, Velocity: 50
Note OFF: Time 190080, Note Name: F#5
Note ON: Time 190080, Note Name: A#4, Velocity: 55
Note OFF: Time 190200, Note Name: A#4
Note ON: Time 190206, Note Name: A#5, Velocity: 49
Note ON: Time 190320, Note Name: D#5, Velocity: 48
Note OFF: Time 190326, Note Name: A#5
Note OFF: Time 190440, Note Name: D#5
Note ON: Time 190440, Note Name: F#5, Velocity: 48
Note OFF: Time 190560, Note Name: F#5
Note ON: Time 190560, Note Name: A4, Velocity: 53
Note OFF: Time 190680, Note Name: A4
Note ON: Time 190686, Note Name: A5, Velocity: 48
Note ON: Time 190800, Note Name: D#5, Velocity: 47
Note OFF: Time 190806, Note Name: A5
Note OFF: Time 190920, Note Name: D#5
Note ON: Time 190920, Note Name: F#5, Velocity: 47
Note OFF: Time 191040, Note Name: F#5
Note ON: Time 191040, Note Name: A4, Velocity: 52
Note OFF: Time 191160, Note Name: A4
Note ON: Time 191160, Note Name: A5, Velocity: 49
Note OFF: Time 191280, Note Name: A5
Note ON: Time 191280, Note Name: D#5, Velocity: 45
Note OFF: Time 191400, Note Name: D#5
Note ON: Time 191400, Note Name: F#5, Velocity: 45
Note OFF: Time 191520, Note Name: F#5
Note ON: Time 191520, Note Name: A4, Velocity: 51
Note OFF: Time 191640, Note Name: A4
Note ON: Time 191640, Note Name: A5, Velocity: 47
Note OFF: Time 191760, Note Name: A5
Note ON: Time 191760, Note Name: D#5, Velocity: 44
Note OFF: Time 191880, Note Name: D#5
Note ON: Time 191880, Note Name: F#5, Velocity: 44
Note OFF: Time 192000, Note Name: F#5
Note ON: Time 192000, Note Name: C5, Velocity: 52
Note OFF: Time 192120, Note Name: C5
Note ON: Time 192126, Note Name: C6, Velocity: 47
Note ON: Time 192240, Note Name: D#5, Velocity: 47
Note OFF: Time 192246, Note Name: C6
Note OFF: Time 192360, Note Name: D#5
Note ON: Time 192360, Note Name: F#5, Velocity: 47
Note OFF: Time 192480, Note Name: F#5
Note ON: Time 192480, Note Name: B4, Velocity: 51
Note OFF: Time 192600, Note Name: B4
Note ON: Time 192600, Note Name: B5, Velocity: 46
Note OFF: Time 192720, Note Name: B5
Note ON: Time 192720, Note Name: D#5, Velocity: 46
Note OFF: Time 192840, Note Name: D#5
Note ON: Time 192840, Note Name: F#5, Velocity: 46
Note OFF: Time 192960, Note Name: F#5
Note ON: Time 192960, Note Name: B4, Velocity: 51
Note OFF: Time 193080, Note Name: B4
Note ON: Time 193080, Note Name: B5, Velocity: 48
Note OFF: Time 193200, Note Name: B5
Note ON: Time 193200, Note Name: D#5, Velocity: 45
Note OFF: Time 193320, Note Name: D#5
Note ON: Time 193320, Note Name: F#5, Velocity: 45
Note OFF: Time 193440, Note Name: F#5
Note ON: Time 193440, Note Name: A#4, Velocity: 51
Note OFF: Time 193560, Note Name: A#4
Note ON: Time 193560, Note Name: A#5, Velocity: 47
Note OFF: Time 193680, Note Name: A#5
Note ON: Time 193680, Note Name: D#5, Velocity: 44
Note OFF: Time 193800, Note Name: D#5
Note ON: Time 193800, Note Name: F#5, Velocity: 44
Note OFF: Time 193920, Note Name: F#5
Note ON: Time 193920, Note Name: A#4, Velocity: 52
Note OFF: Time 194040, Note Name: A#4
Note ON: Time 194040, Note Name: A#5, Velocity: 46
Note OFF: Time 194160, Note Name: A#5
Note ON: Time 194160, Note Name: D#5, Velocity: 46
Note OFF: Time 194280, Note Name: D#5
Note ON: Time 194280, Note Name: F#5, Velocity: 45
Note OFF: Time 194400, Note Name: F#5
Note ON: Time 194400, Note Name: A4, Velocity: 48
Note OFF: Time 194520, Note Name: A4
Note ON: Time 194520, Note Name: A5, Velocity: 43
Note OFF: Time 194640, Note Name: A5
Note ON: Time 194640, Note Name: D#5, Velocity: 42
Note OFF: Time 194760, Note Name: D#5
Note ON: Time 194760, Note Name: F#5, Velocity: 42
Note OFF: Time 194880, Note Name: F#5
Note ON: Time 194880, Note Name: A4, Velocity: 45
Note OFF: Time 195000, Note Name: A4
Note ON: Time 195000, Note Name: A5, Velocity: 42
Note OFF: Time 195120, Note Name: A5
Note ON: Time 195120, Note Name: D#5, Velocity: 39
Note OFF: Time 195240, Note Name: D#5
Note ON: Time 195240, Note Name: F#5, Velocity: 39
Note OFF: Time 195360, Note Name: F#5
Note ON: Time 195360, Note Name: G#4, Velocity: 43
Note OFF: Time 195480, Note Name: G#4
Note ON: Time 195480, Note Name: G#5, Velocity: 39
Note OFF: Time 195600, Note Name: G#5
Note ON: Time 195600, Note Name: D#5, Velocity: 36
Note OFF: Time 195720, Note Name: D#5
Note ON: Time 195720, Note Name: F#5, Velocity: 36
Note OFF: Time 195840, Note Name: F#5
Note ON: Time 195960, Note Name: G#4, Velocity: 37
Note OFF: Time 196080, Note Name: G#4
Note ON: Time 196080, Note Name: A4, Velocity: 41
Note OFF: Time 196200, Note Name: A4
Note ON: Time 196200, Note Name: G#4, Velocity: 38
Note OFF: Time 196320, Note Name: G#4
Note ON: Time 196320, Note Name: G4, Velocity: 39
Note OFF: Time 196440, Note Name: G4
Note ON: Time 196440, Note Name: G#4, Velocity: 40
Note OFF: Time 196560, Note Name: G#4
Note ON: Time 196560, Note Name: C#5, Velocity: 42
Note OFF: Time 196680, Note Name: C#5
Note ON: Time 196680, Note Name: E5, Velocity: 43
Note OFF: Time 196800, Note Name: E5
Note ON: Time 196800, Note Name: D#5, Velocity: 45
Note OFF: Time 196920, Note Name: D#5
Note ON: Time 196920, Note Name: C#5, Velocity: 43
Note OFF: Time 197040, Note Name: C#5
Note ON: Time 197040, Note Name: D#5, Velocity: 45
Note OFF: Time 197160, Note Name: D#5
Note ON: Time 197160, Note Name: C#5, Velocity: 43
Note OFF: Time 197280, Note Name: C#5
Note ON: Time 197280, Note Name: C5, Velocity: 44
Note OFF: Time 197400, Note Name: C5
Note ON: Time 197400, Note Name: C#5, Velocity: 46
Note OFF: Time 197520, Note Name: C#5
Note ON: Time 197520, Note Name: E5, Velocity: 49
Note OFF: Time 197640, Note Name: E5
Note ON: Time 197640, Note Name: G#5, Velocity: 47
Note OFF: Time 197760, Note Name: G#5
Note ON: Time 197880, Note Name: G#4, Velocity: 45
Note OFF: Time 198000, Note Name: G#4
Note ON: Time 198000, Note Name: A4, Velocity: 49
Note OFF: Time 198120, Note Name: A4
Note ON: Time 198120, Note Name: G#4, Velocity: 45
Note OFF: Time 198240, Note Name: G#4
Note ON: Time 198240, Note Name: G4, Velocity: 46
Note OFF: Time 198360, Note Name: G4
Note ON: Time 198360, Note Name: G#4, Velocity: 48
Note OFF: Time 198480, Note Name: G#4
Note ON: Time 198480, Note Name: C#5, Velocity: 50
Note OFF: Time 198600, Note Name: C#5
Note ON: Time 198600, Note Name: E5, Velocity: 51
Note OFF: Time 198720, Note Name: E5
Note ON: Time 198720, Note Name: D#5, Velocity: 54
Note OFF: Time 198840, Note Name: D#5
Note ON: Time 198840, Note Name: C#5, Velocity: 51
Note OFF: Time 198960, Note Name: C#5
Note ON: Time 198960, Note Name: D#5, Velocity: 53
Note OFF: Time 199080, Note Name: D#5
Note ON: Time 199080, Note Name: C#5, Velocity: 51
Note OFF: Time 199200, Note Name: C#5
Note ON: Time 199200, Note Name: C5, Velocity: 52
Note OFF: Time 199320, Note Name: C5
Note ON: Time 199320, Note Name: C#5, Velocity: 54
Note OFF: Time 199440, Note Name: C#5
Note ON: Time 199440, Note Name: E5, Velocity: 57
Note OFF: Time 199560, Note Name: E5
Note ON: Time 199560, Note Name: G#5, Velocity: 55
Note OFF: Time 199680, Note Name: G#5
Note ON: Time 199800, Note Name: A4, Velocity: 56
Note OFF: Time 199920, Note Name: A4
Note ON: Time 199920, Note Name: C#5, Velocity: 59
Note OFF: Time 200040, Note Name: C#5
Note ON: Time 200040, Note Name: D#5, Velocity: 62
Note OFF: Time 200160, Note Name: D#5
Note ON: Time 200160, Note Name: F#5, Velocity: 63
Note OFF: Time 200280, Note Name: F#5
Note ON: Time 200280, Note Name: A5, Velocity: 66
Note OFF: Time 200400, Note Name: A5
Note ON: Time 200400, Note Name: C#6, Velocity: 69
Note OFF: Time 200520, Note Name: C#6
Note ON: Time 200520, Note Name: D#6, Velocity: 72
Note OFF: Time 200640, Note Name: D#6
Note ON: Time 200640, Note Name: B6, Velocity: 75
Note OFF: Time 200760, Note Name: B6
Note ON: Time 200760, Note Name: A6, Velocity: 73
Note OFF: Time 200880, Note Name: A6
Note ON: Time 200880, Note Name: G#6, Velocity: 72
Note OFF: Time 201000, Note Name: G#6
Note ON: Time 201000, Note Name: F#6, Velocity: 71
Note OFF: Time 201120, Note Name: F#6
Note ON: Time 201120, Note Name: E6, Velocity: 71
Note OFF: Time 201240, Note Name: E6
Note ON: Time 201240, Note Name: D#6, Velocity: 70
Note OFF: Time 201360, Note Name: D#6
Note ON: Time 201360, Note Name: F#6, Velocity: 68
Note OFF: Time 201480, Note Name: F#6
Note ON: Time 201480, Note Name: C#6, Velocity: 67
Note OFF: Time 201600, Note Name: C#6
Note ON: Time 201600, Note Name: C6, Velocity: 68
Note OFF: Time 201720, Note Name: C6
Note ON: Time 201720, Note Name: D#6, Velocity: 63
Note OFF: Time 201840, Note Name: D#6
Note ON: Time 201840, Note Name: A5, Velocity: 63
Note OFF: Time 201960, Note Name: A5
Note ON: Time 201960, Note Name: G#5, Velocity: 63
Note OFF: Time 202080, Note Name: G#5
Note ON: Time 202080, Note Name: F#5, Velocity: 60
Note OFF: Time 202200, Note Name: F#5
Note ON: Time 202200, Note Name: A5, Velocity: 58
Note OFF: Time 202320, Note Name: A5
Note ON: Time 202320, Note Name: E5, Velocity: 54
Note OFF: Time 202440, Note Name: E5
Note ON: Time 202440, Note Name: D#5, Velocity: 54
Note OFF: Time 202560, Note Name: D#5
Note ON: Time 202560, Note Name: F#5, Velocity: 53
Note OFF: Time 202680, Note Name: F#5
Note ON: Time 202680, Note Name: C#5, Velocity: 48
Note OFF: Time 202800, Note Name: C#5
Note ON: Time 202800, Note Name: C5, Velocity: 48
Note OFF: Time 202920, Note Name: C5
Note ON: Time 202920, Note Name: D#5, Velocity: 47
Note OFF: Time 203040, Note Name: D#5
Note ON: Time 203040, Note Name: A4, Velocity: 45
Note OFF: Time 203160, Note Name: A4
Note ON: Time 203160, Note Name: G#4, Velocity: 42
Note OFF: Time 203280, Note Name: G#4
Note ON: Time 203280, Note Name: B4, Velocity: 42
Note OFF: Time 203400, Note Name: B4
Note ON: Time 203400, Note Name: A4, Velocity: 41
Note OFF: Time 203640, Note Name: A4
Note ON: Time 203640, Note Name: G#4, Velocity: 37
Note OFF: Time 203760, Note Name: G#4
Note ON: Time 203760, Note Name: A4, Velocity: 41
Note OFF: Time 203880, Note Name: A4
Note ON: Time 203880, Note Name: G#4, Velocity: 38
Note OFF: Time 204000, Note Name: G#4
Note ON: Time 204000, Note Name: G4, Velocity: 39
Note OFF: Time 204120, Note Name: G4
Note ON: Time 204120, Note Name: G#4, Velocity: 40
Note OFF: Time 204240, Note Name: G#4
Note ON: Time 204240, Note Name: C#5, Velocity: 42
Note OFF: Time 204360, Note Name: C#5
Note ON: Time 204360, Note Name: E5, Velocity: 43
Note OFF: Time 204480, Note Name: E5
Note ON: Time 204480, Note Name: D#5, Velocity: 45
Note OFF: Time 204600, Note Name: D#5
Note ON: Time 204600, Note Name: C#5, Velocity: 43
Note OFF: Time 204720, Note Name: C#5
Note ON: Time 204720, Note Name: D#5, Velocity: 45
Note OFF: Time 204840, Note Name: D#5
Note ON: Time 204840, Note Name: C#5, Velocity: 43
Note OFF: Time 204960, Note Name: C#5
Note ON: Time 204960, Note Name: C5, Velocity: 44
Note OFF: Time 205080, Note Name: C5
Note ON: Time 205080, Note Name: C#5, Velocity: 46
Note OFF: Time 205200, Note Name: C#5
Note ON: Time 205200, Note Name: E5, Velocity: 50
Note OFF: Time 205320, Note Name: E5
Note ON: Time 205320, Note Name: G#5, Velocity: 48
Note OFF: Time 205440, Note Name: G#5
Note ON: Time 205440, Note Name: E5, Velocity: 46
Note OFF: Time 205560, Note Name: E5
Note ON: Time 205560, Note Name: D#5, Velocity: 43
Note OFF: Time 205680, Note Name: D#5
Note ON: Time 205680, Note Name: E5, Velocity: 47
Note OFF: Time 205800, Note Name: E5
Note ON: Time 205800, Note Name: D#5, Velocity: 43
Note OFF: Time 205920, Note Name: D#5
Note ON: Time 205920, Note Name: D5, Velocity: 45
Note OFF: Time 206040, Note Name: D5
Note ON: Time 206040, Note Name: D#5, Velocity: 46
Note OFF: Time 206160, Note Name: D#5
Note ON: Time 206160, Note Name: F#5, Velocity: 49
Note OFF: Time 206280, Note Name: F#5
Note ON: Time 206280, Note Name: A5, Velocity: 50
Note OFF: Time 206400, Note Name: A5
Note ON: Time 206400, Note Name: F#5, Velocity: 53
Note OFF: Time 206520, Note Name: F#5
Note ON: Time 206520, Note Name: F5, Velocity: 51
Note OFF: Time 206640, Note Name: F5
Note ON: Time 206640, Note Name: F#5, Velocity: 53
Note OFF: Time 206760, Note Name: F#5
Note ON: Time 206760, Note Name: F5, Velocity: 51
Note OFF: Time 206880, Note Name: F5
Note ON: Time 206880, Note Name: E5, Velocity: 52
Note OFF: Time 207000, Note Name: E5
Note ON: Time 207000, Note Name: F5, Velocity: 54
Note OFF: Time 207120, Note Name: F5
Note ON: Time 207120, Note Name: G#5, Velocity: 57
Note OFF: Time 207240, Note Name: G#5
Note ON: Time 207240, Note Name: C#6, Velocity: 56
Note OFF: Time 207360, Note Name: C#6
Note ON: Time 207480, Note Name: C#5, Velocity: 50
Note OFF: Time 207600, Note Name: C#5
Note ON: Time 207600, Note Name: D5, Velocity: 55
Note OFF: Time 207720, Note Name: D5
Note ON: Time 207720, Note Name: C#5, Velocity: 51
Note OFF: Time 207840, Note Name: C#5
Note ON: Time 207840, Note Name: C5, Velocity: 52
Note OFF: Time 207960, Note Name: C5
Note ON: Time 207960, Note Name: C#5, Velocity: 53
Note OFF: Time 208080, Note Name: C#5
Note ON: Time 208080, Note Name: F#5, Velocity: 56
Note OFF: Time 208200, Note Name: F#5
Note ON: Time 208200, Note Name: A5, Velocity: 57
Note OFF: Time 208320, Note Name: A5
Note ON: Time 208320, Note Name: F#5, Velocity: 59
Note OFF: Time 208440, Note Name: F#5
Note ON: Time 208440, Note Name: F5, Velocity: 56
Note OFF: Time 208560, Note Name: F5
Note ON: Time 208560, Note Name: F#5, Velocity: 59
Note OFF: Time 208680, Note Name: F#5
Note ON: Time 208680, Note Name: F5, Velocity: 57
Note OFF: Time 208800, Note Name: F5
Note ON: Time 208800, Note Name: E5, Velocity: 57
Note OFF: Time 208920, Note Name: E5
Note ON: Time 208920, Note Name: F5, Velocity: 59
Note OFF: Time 209040, Note Name: F5
Note ON: Time 209040, Note Name: G#5, Velocity: 63
Note OFF: Time 209160, Note Name: G#5
Note ON: Time 209160, Note Name: C#6, Velocity: 59
Note OFF: Time 209280, Note Name: C#6
Note ON: Time 209280, Note Name: G#5, Velocity: 58
Note OFF: Time 209400, Note Name: G#5
Note ON: Time 209400, Note Name: F#5, Velocity: 53
Note OFF: Time 209520, Note Name: F#5
Note ON: Time 209520, Note Name: G#5, Velocity: 58
Note OFF: Time 209640, Note Name: G#5
Note ON: Time 209640, Note Name: F#5, Velocity: 54
Note OFF: Time 209760, Note Name: F#5
Note ON: Time 209760, Note Name: F5, Velocity: 55
Note OFF: Time 209880, Note Name: F5
Note ON: Time 209880, Note Name: F#5, Velocity: 56
Note OFF: Time 210000, Note Name: F#5
Note ON: Time 210000, Note Name: A5, Velocity: 59
Note OFF: Time 210120, Note Name: A5
Note ON: Time 210120, Note Name: C#6, Velocity: 60
Note OFF: Time 210240, Note Name: C#6
Note ON: Time 210240, Note Name: A5, Velocity: 63
Note OFF: Time 210360, Note Name: A5
Note ON: Time 210360, Note Name: G#5, Velocity: 59
Note OFF: Time 210480, Note Name: G#5
Note ON: Time 210480, Note Name: A5, Velocity: 62
Note OFF: Time 210600, Note Name: A5
Note ON: Time 210600, Note Name: G#5, Velocity: 60
Note OFF: Time 210720, Note Name: G#5
Note ON: Time 210720, Note Name: G5, Velocity: 60
Note OFF: Time 210840, Note Name: G5
Note ON: Time 210840, Note Name: G#5, Velocity: 62
Note OFF: Time 210960, Note Name: G#5
Note ON: Time 210960, Note Name: C6, Velocity: 66
Note OFF: Time 211080, Note Name: C6
Note ON: Time 211080, Note Name: D#6, Velocity: 63
Note OFF: Time 211200, Note Name: D#6
Note ON: Time 211200, Note Name: G#5, Velocity: 69
Note OFF: Time 211320, Note Name: G#5
Note ON: Time 211320, Note Name: A5, Velocity: 64
Note OFF: Time 211440, Note Name: A5
Note ON: Time 211440, Note Name: G#5, Velocity: 67
Note OFF: Time 211560, Note Name: G#5
Note ON: Time 211560, Note Name: G5, Velocity: 58
Note OFF: Time 211680, Note Name: G5
Note ON: Time 211680, Note Name: G#5, Velocity: 62
Note OFF: Time 211800, Note Name: G#5
Note ON: Time 211800, Note Name: E6, Velocity: 71
Note OFF: Time 211920, Note Name: E6
Note ON: Time 211920, Note Name: D#6, Velocity: 71
Note OFF: Time 212040, Note Name: D#6
Note ON: Time 212040, Note Name: D6, Velocity: 70
Note OFF: Time 212160, Note Name: D6
Note ON: Time 212160, Note Name: C#6, Velocity: 69
Note OFF: Time 212280, Note Name: C#6
Note ON: Time 212280, Note Name: C6, Velocity: 69
Note OFF: Time 212400, Note Name: C6
Note ON: Time 212400, Note Name: B5, Velocity: 68
Note OFF: Time 212520, Note Name: B5
Note ON: Time 212520, Note Name: A#5, Velocity: 67
Note OFF: Time 212640, Note Name: A#5
Note ON: Time 212640, Note Name: A5, Velocity: 67
Note OFF: Time 212760, Note Name: A5
Note ON: Time 212760, Note Name: G#5, Velocity: 66
Note OFF: Time 212880, Note Name: G#5
Note ON: Time 212880, Note Name: G5, Velocity: 65
Note OFF: Time 213000, Note Name: G5
Note ON: Time 213000, Note Name: F#5, Velocity: 64
Note OFF: Time 213120, Note Name: F#5
Note ON: Time 213120, Note Name: E5, Velocity: 69
Note OFF: Time 213240, Note Name: E5
Note ON: Time 213240, Note Name: F#5, Velocity: 64
Note OFF: Time 213360, Note Name: F#5
Note ON: Time 213360, Note Name: E5, Velocity: 67
Note OFF: Time 213480, Note Name: E5
Note ON: Time 213480, Note Name: D#5, Velocity: 58
Note OFF: Time 213600, Note Name: D#5
Note ON: Time 213600, Note Name: E5, Velocity: 62
Note OFF: Time 213720, Note Name: E5
Note ON: Time 213720, Note Name: E6, Velocity: 71
Note OFF: Time 213840, Note Name: E6
Note ON: Time 213840, Note Name: D#6, Velocity: 71
Note OFF: Time 213960, Note Name: D#6
Note ON: Time 213960, Note Name: D6, Velocity: 70
Note OFF: Time 214080, Note Name: D6
Note ON: Time 214080, Note Name: C#6, Velocity: 70
Note OFF: Time 214200, Note Name: C#6
Note ON: Time 214200, Note Name: C6, Velocity: 71
Note OFF: Time 214320, Note Name: C6
Note ON: Time 214320, Note Name: B5, Velocity: 71
Note OFF: Time 214440, Note Name: B5
Note ON: Time 214440, Note Name: A#5, Velocity: 72
Note OFF: Time 214560, Note Name: A#5
Note ON: Time 214560, Note Name: A5, Velocity: 73
Note OFF: Time 214680, Note Name: A5
Note ON: Time 214680, Note Name: G#5, Velocity: 74
Note OFF: Time 214800, Note Name: G#5
Note ON: Time 214800, Note Name: G5, Velocity: 75
Note OFF: Time 214920, Note Name: G5
Note ON: Time 214920, Note Name: F#5, Velocity: 76
Note OFF: Time 215040, Note Name: F#5
Note ON: Time 215040, Note Name: G#5, Velocity: 76
Note OFF: Time 215100, Note Name: G#5
Note ON: Time 215280, Note Name: G#6, Velocity: 85
Note OFF: Time 215400, Note Name: G#6
Note ON: Time 215400, Note Name: G6, Velocity: 85
Note OFF: Time 215520, Note Name: G6
Note ON: Time 215520, Note Name: F#6, Velocity: 84
Note OFF: Time 215640, Note Name: F#6
Note ON: Time 215640, Note Name: F6, Velocity: 84
Note OFF: Time 215760, Note Name: F6
Note ON: Time 215760, Note Name: E6, Velocity: 83
Note OFF: Time 215880, Note Name: E6
Note ON: Time 215880, Note Name: D#6, Velocity: 83
Note OFF: Time 216000, Note Name: D#6
Note ON: Time 216000, Note Name: D6, Velocity: 82
Note OFF: Time 216120, Note Name: D6
Note ON: Time 216120, Note Name: C#6, Velocity: 81
Note OFF: Time 216240, Note Name: C#6
Note ON: Time 216240, Note Name: C6, Velocity: 81
Note OFF: Time 216360, Note Name: C6
Note ON: Time 216360, Note Name: B5, Velocity: 80
Note OFF: Time 216480, Note Name: B5
Note ON: Time 216480, Note Name: A#5, Velocity: 80
Note OFF: Time 216600, Note Name: A#5
Note ON: Time 216600, Note Name: A5, Velocity: 79
Note OFF: Time 216720, Note Name: A5
Note ON: Time 216720, Note Name: G#5, Velocity: 79
Note OFF: Time 216840, Note Name: G#5
Note ON: Time 216840, Note Name: G5, Velocity: 78
Note OFF: Time 216960, Note Name: G5
Note ON: Time 216960, Note Name: F#5, Velocity: 77
Note OFF: Time 217080, Note Name: F#5
Note ON: Time 217080, Note Name: F5, Velocity: 77
Note OFF: Time 217200, Note Name: F5
Note ON: Time 217200, Note Name: E5, Velocity: 77
Note OFF: Time 217320, Note Name: E5
Note ON: Time 217320, Note Name: D#5, Velocity: 77
Note OFF: Time 217440, Note Name: D#5
Note ON: Time 217440, Note Name: D5, Velocity: 77
Note OFF: Time 217560, Note Name: D5
Note ON: Time 217560, Note Name: C#5, Velocity: 77
Note OFF: Time 217680, Note Name: C#5
Note ON: Time 217680, Note Name: C5, Velocity: 77
Note OFF: Time 217800, Note Name: C5
Note ON: Time 217800, Note Name: B4, Velocity: 77
Note OFF: Time 217920, Note Name: B4
Note ON: Time 217920, Note Name: A#4, Velocity: 77
Note OFF: Time 218040, Note Name: A#4
Note ON: Time 218040, Note Name: A4, Velocity: 80
Note OFF: Time 218160, Note Name: A4
Note ON: Time 218160, Note Name: G#4, Velocity: 83
Note OFF: Time 218280, Note Name: G#4
Note ON: Time 218280, Note Name: G4, Velocity: 85
Note OFF: Time 218400, Note Name: G4
Note ON: Time 218400, Note Name: F#4, Velocity: 87
Note OFF: Time 218520, Note Name: F#4
Note ON: Time 218520, Note Name: E4, Velocity: 89
Note OFF: Time 218640, Note Name: E4
Note ON: Time 218640, Note Name: D#4, Velocity: 92
Note OFF: Time 218760, Note Name: D#4
Note ON: Time 218760, Note Name: C#4, Velocity: 94
Note OFF: Time 218880, Note Name: C#4
Note ON: Time 218880, Note Name: G#3, Velocity: 96
Note OFF: Time 219000, Note Name: G#3
Note ON: Time 219360, Note Name: A6, Velocity: 90
Note OFF: Time 219480, Note Name: A6
Note ON: Time 219480, Note Name: G#6, Velocity: 81
Note OFF: Time 219600, Note Name: G#6
Note ON: Time 219600, Note Name: E7, Velocity: 77
Note OFF: Time 219720, Note Name: E7
Note ON: Time 219720, Note Name: E6, Velocity: 77
Note OFF: Time 219840, Note Name: E6
Note ON: Time 219840, Note Name: F#6, Velocity: 90
Note OFF: Time 219960, Note Name: F#6
Note ON: Time 219960, Note Name: E6, Velocity: 77
Note OFF: Time 220080, Note Name: E6
Note ON: Time 220080, Note Name: C#7, Velocity: 77
Note OFF: Time 220200, Note Name: C#7
Note ON: Time 220200, Note Name: C#6, Velocity: 77
Note OFF: Time 220320, Note Name: C#6
Note ON: Time 220320, Note Name: D#6, Velocity: 89
Note OFF: Time 220440, Note Name: D#6
Note ON: Time 220440, Note Name: C#6, Velocity: 77
Note OFF: Time 220560, Note Name: C#6
Note ON: Time 220560, Note Name: G#6, Velocity: 77
Note OFF: Time 220680, Note Name: G#6
Note ON: Time 220680, Note Name: G#5, Velocity: 77
Note OFF: Time 220800, Note Name: G#5
Note ON: Time 220800, Note Name: A5, Velocity: 89
Note OFF: Time 220920, Note Name: A5
Note ON: Time 220920, Note Name: G#5, Velocity: 77
Note OFF: Time 221040, Note Name: G#5
Note ON: Time 221040, Note Name: E6, Velocity: 77
Note OFF: Time 221160, Note Name: E6
Note ON: Time 221160, Note Name: E5, Velocity: 77
Note OFF: Time 221280, Note Name: E5
Note ON: Time 221280, Note Name: F#5, Velocity: 88
Note OFF: Time 221400, Note Name: F#5
Note ON: Time 221400, Note Name: E5, Velocity: 77
Note OFF: Time 221520, Note Name: E5
Note ON: Time 221520, Note Name: C#6, Velocity: 77
Note OFF: Time 221640, Note Name: C#6
Note ON: Time 221640, Note Name: C#5, Velocity: 77
Note OFF: Time 221760, Note Name: C#5
Note ON: Time 221760, Note Name: D#5, Velocity: 89
Note OFF: Time 221880, Note Name: D#5
Note ON: Time 221880, Note Name: C#5, Velocity: 77
Note OFF: Time 222000, Note Name: C#5
Note ON: Time 222000, Note Name: G#5, Velocity: 77
Note OFF: Time 222120, Note Name: G#5
Note ON: Time 222120, Note Name: G#4, Velocity: 77
Note OFF: Time 222240, Note Name: G#4
Note ON: Time 222240, Note Name: A4, Velocity: 90
Note OFF: Time 222360, Note Name: A4
Note ON: Time 222360, Note Name: G#4, Velocity: 77
Note OFF: Time 222480, Note Name: G#4
Note ON: Time 222480, Note Name: E5, Velocity: 77
Note OFF: Time 222600, Note Name: E5
Note ON: Time 222600, Note Name: E4, Velocity: 77
Note OFF: Time 222720, Note Name: E4
Note ON: Time 222720, Note Name: F#4, Velocity: 88
Note OFF: Time 222840, Note Name: F#4
Note ON: Time 222840, Note Name: E4, Velocity: 77
Note OFF: Time 222960, Note Name: E4
Note ON: Time 222960, Note Name: C#5, Velocity: 77
Note OFF: Time 223080, Note Name: C#5
Note ON: Time 223080, Note Name: C#4, Velocity: 77
Note OFF: Time 223200, Note Name: C#4
Note ON: Time 223200, Note Name: D#4, Velocity: 89
Note OFF: Time 223320, Note Name: D#4
Note ON: Time 223320, Note Name: C#4, Velocity: 77
Note OFF: Time 223440, Note Name: C#4
Note ON: Time 223440, Note Name: G#4, Velocity: 77
Note OFF: Time 223560, Note Name: G#4
Note ON: Time 223560, Note Name: G#3, Velocity: 77
Note OFF: Time 223680, Note Name: G#3
Note ON: Time 223680, Note Name: D#4, Velocity: 89
Note OFF: Time 223800, Note Name: D#4
Note ON: Time 223800, Note Name: C#4, Velocity: 77
Note OFF: Time 223920, Note Name: C#4
Note ON: Time 223920, Note Name: G#4, Velocity: 77
Note OFF: Time 224040, Note Name: G#4
Note ON: Time 224040, Note Name: G#3, Velocity: 77
Note OFF: Time 224160, Note Name: G#3
Note ON: Time 224160, Note Name: D#4, Velocity: 89
Note OFF: Time 224280, Note Name: D#4
Note ON: Time 224280, Note Name: C#4, Velocity: 77
Note OFF: Time 224400, Note Name: C#4
Note ON: Time 224400, Note Name: A4, Velocity: 77
Note OFF: Time 224520, Note Name: A4
Note ON: Time 224520, Note Name: A3, Velocity: 77
Note OFF: Time 224640, Note Name: A3
Note ON: Time 224640, Note Name: D#4, Velocity: 89
Note OFF: Time 224760, Note Name: D#4
Note ON: Time 224760, Note Name: C#4, Velocity: 75
Note OFF: Time 224880, Note Name: C#4
Note ON: Time 224880, Note Name: G#4, Velocity: 74
Note OFF: Time 225000, Note Name: G#4
Note ON: Time 225000, Note Name: G#3, Velocity: 73
Note OFF: Time 225120, Note Name: G#3
Note ON: Time 225120, Note Name: D#4, Velocity: 83
Note OFF: Time 225240, Note Name: D#4
Note ON: Time 225240, Note Name: C#4, Velocity: 71
Note OFF: Time 225360, Note Name: C#4
Note ON: Time 225360, Note Name: G4, Velocity: 71
Note OFF: Time 225480, Note Name: G4
Note ON: Time 225480, Note Name: G3, Velocity: 70
Note OFF: Time 225600, Note Name: G3
Note ON: Time 225600, Note Name: D#4, Velocity: 79
Note OFF: Time 225720, Note Name: D#4
Note ON: Time 225720, Note Name: C#4, Velocity: 68
Note OFF: Time 225840, Note Name: C#4
Note ON: Time 225840, Note Name: G#4, Velocity: 67
Note OFF: Time 225960, Note Name: G#4
Note ON: Time 225960, Note Name: G#3, Velocity: 66
Note OFF: Time 226080, Note Name: G#3
Note ON: Time 226080, Note Name: D#4, Velocity: 75
Note OFF: Time 226200, Note Name: D#4
Note ON: Time 226200, Note Name: C4, Velocity: 63
Note OFF: Time 226320, Note Name: C4
Note ON: Time 226320, Note Name: G#4, Velocity: 63
Note OFF: Time 226440, Note Name: G#4
Note ON: Time 226440, Note Name: G#3, Velocity: 62
Note OFF: Time 226560, Note Name: G#3
Note ON: Time 226560, Note Name: D#4, Velocity: 73
Note OFF: Time 226680, Note Name: D#4
Note ON: Time 226680, Note Name: C#4, Velocity: 65
Note OFF: Time 226800, Note Name: C#4
Note ON: Time 226800, Note Name: G#4, Velocity: 65
Note OFF: Time 226920, Note Name: G#4
Note ON: Time 226920, Note Name: G#3, Velocity: 65
Note OFF: Time 227040, Note Name: G#3
Note ON: Time 227040, Note Name: A4, Velocity: 69
Note OFF: Time 227160, Note Name: A4
Note ON: Time 227160, Note Name: G#4, Velocity: 65
Note OFF: Time 227280, Note Name: G#4
Note ON: Time 227280, Note Name: E5, Velocity: 83
Note OFF: Time 227400, Note Name: E5
Note ON: Time 227400, Note Name: E4, Velocity: 64
Note OFF: Time 227520, Note Name: E4
Note ON: Time 227520, Note Name: A4, Velocity: 70
Note OFF: Time 227640, Note Name: A4
Note ON: Time 227640, Note Name: G#4, Velocity: 66
Note OFF: Time 227760, Note Name: G#4
Note ON: Time 227760, Note Name: E5, Velocity: 83
Note OFF: Time 227880, Note Name: E5
Note ON: Time 227880, Note Name: E4, Velocity: 60
Note OFF: Time 228000, Note Name: E4
Note ON: Time 228000, Note Name: A4, Velocity: 68
Note OFF: Time 228120, Note Name: A4
Note ON: Time 228120, Note Name: G#4, Velocity: 62
Note OFF: Time 228240, Note Name: G#4
Note ON: Time 228240, Note Name: D#5, Velocity: 79
Note OFF: Time 228360, Note Name: D#5
Note ON: Time 228360, Note Name: D#4, Velocity: 71
Note OFF: Time 228480, Note Name: D#4
Note ON: Time 228480, Note Name: A4, Velocity: 68
Note OFF: Time 228600, Note Name: A4
Note ON: Time 228600, Note Name: G#4, Velocity: 66
Note OFF: Time 228720, Note Name: G#4
Note ON: Time 228720, Note Name: D#5, Velocity: 83
Note OFF: Time 228840, Note Name: D#5
Note ON: Time 228840, Note Name: E4, Velocity: 60
Note OFF: Time 228960, Note Name: E4
Note ON: Time 228960, Note Name: A4, Velocity: 68
Note OFF: Time 229080, Note Name: A4
Note ON: Time 229080, Note Name: G#4, Velocity: 62
Note OFF: Time 229200, Note Name: G#4
Note ON: Time 229200, Note Name: C#5, Velocity: 79
Note OFF: Time 229320, Note Name: C#5
Note ON: Time 229320, Note Name: C#4, Velocity: 71
Note OFF: Time 229440, Note Name: C#4
Note ON: Time 229440, Note Name: E4, Velocity: 54
Note OFF: Time 229560, Note Name: E4
Note ON: Time 229560, Note Name: D#4, Velocity: 49
Note OFF: Time 229680, Note Name: D#4
Note ON: Time 229680, Note Name: G#4, Velocity: 62
Note OFF: Time 229800, Note Name: G#4
Note ON: Time 229800, Note Name: G#3, Velocity: 45
Note OFF: Time 229920, Note Name: G#3
Note ON: Time 229920, Note Name: E4, Velocity: 51
Note OFF: Time 230040, Note Name: E4
Note ON: Time 230040, Note Name: D#4, Velocity: 46
Note OFF: Time 230160, Note Name: D#4
Note ON: Time 230160, Note Name: G#4, Velocity: 59
Note OFF: Time 230280, Note Name: G#4
Note ON: Time 230280, Note Name: G#3, Velocity: 53
Note OFF: Time 230400, Note Name: G#3
Note ON: Time 230400, Note Name: D#4, Velocity: 54
Note OFF: Time 230520, Note Name: D#4
Note ON: Time 230520, Note Name: C#4, Velocity: 49
Note OFF: Time 230640, Note Name: C#4
Note ON: Time 230640, Note Name: G#4, Velocity: 62
Note OFF: Time 230760, Note Name: G#4
Note ON: Time 230760, Note Name: G#3, Velocity: 45
Note OFF: Time 230880, Note Name: G#3
Note ON: Time 230880, Note Name: A4, Velocity: 67
Note OFF: Time 231000, Note Name: A4
Note ON: Time 231000, Note Name: G#4, Velocity: 65
Note OFF: Time 231120, Note Name: G#4
Note ON: Time 231120, Note Name: E5, Velocity: 83
Note OFF: Time 231240, Note Name: E5
Note ON: Time 231240, Note Name: E4, Velocity: 64
Note OFF: Time 231360, Note Name: E4
Note ON: Time 231360, Note Name: A4, Velocity: 68
Note OFF: Time 231480, Note Name: A4
Note ON: Time 231480, Note Name: G#4, Velocity: 66
Note OFF: Time 231600, Note Name: G#4
Note ON: Time 231600, Note Name: E5, Velocity: 83
Note OFF: Time 231720, Note Name: E5
Note ON: Time 231720, Note Name: E4, Velocity: 60
Note OFF: Time 231840, Note Name: E4
Note ON: Time 231840, Note Name: A4, Velocity: 65
Note OFF: Time 231960, Note Name: A4
Note ON: Time 231960, Note Name: G#4, Velocity: 62
Note OFF: Time 232080, Note Name: G#4
Note ON: Time 232080, Note Name: D#5, Velocity: 79
Note OFF: Time 232200, Note Name: D#5
Note ON: Time 232200, Note Name: D#4, Velocity: 66
Note OFF: Time 232320, Note Name: D#4
Note ON: Time 232320, Note Name: A4, Velocity: 66
Note OFF: Time 232440, Note Name: A4
Note ON: Time 232440, Note Name: G#4, Velocity: 66
Note OFF: Time 232560, Note Name: G#4
Note ON: Time 232560, Note Name: D#5, Velocity: 83
Note OFF: Time 232680, Note Name: D#5
Note ON: Time 232680, Note Name: E4, Velocity: 60
Note OFF: Time 232800, Note Name: E4
Note ON: Time 232800, Note Name: A4, Velocity: 67
Note OFF: Time 232920, Note Name: A4
Note ON: Time 232920, Note Name: G#4, Velocity: 62
Note OFF: Time 233040, Note Name: G#4
Note ON: Time 233040, Note Name: C#5, Velocity: 79
Note OFF: Time 233160, Note Name: C#5
Note ON: Time 233160, Note Name: C#4, Velocity: 71
Note OFF: Time 233280, Note Name: C#4
Note ON: Time 233280, Note Name: E4, Velocity: 54
Note OFF: Time 233400, Note Name: E4
Note ON: Time 233400, Note Name: D#4, Velocity: 49
Note OFF: Time 233520, Note Name: D#4
Note ON: Time 233520, Note Name: G#4, Velocity: 62
Note OFF: Time 233640, Note Name: G#4
Note ON: Time 233640, Note Name: G#3, Velocity: 45
Note OFF: Time 233760, Note Name: G#3
Note ON: Time 233760, Note Name: E4, Velocity: 51
Note OFF: Time 233880, Note Name: E4
Note ON: Time 233880, Note Name: D#4, Velocity: 46
Note OFF: Time 234000, Note Name: D#4
Note ON: Time 234000, Note Name: G#4, Velocity: 59
Note OFF: Time 234120, Note Name: G#4
Note ON: Time 234120, Note Name: G#3, Velocity: 53
Note OFF: Time 234240, Note Name: G#3
Note ON: Time 234240, Note Name: D#4, Velocity: 54
Note OFF: Time 234360, Note Name: D#4
Note ON: Time 234360, Note Name: C#4, Velocity: 49
Note OFF: Time 234480, Note Name: C#4
Note ON: Time 234480, Note Name: G#4, Velocity: 62
Note OFF: Time 234600, Note Name: G#4
Note ON: Time 234600, Note Name: G#3, Velocity: 45
Note OFF: Time 234720, Note Name: G#3
Note ON: Time 234720, Note Name: A4, Velocity: 55
Note OFF: Time 234840, Note Name: A4
Note ON: Time 234840, Note Name: G#4, Velocity: 48
Note OFF: Time 234960, Note Name: G#4
Note ON: Time 234960, Note Name: E5, Velocity: 62
Note OFF: Time 235080, Note Name: E5
Note ON: Time 235080, Note Name: E4, Velocity: 48
Note OFF: Time 235200, Note Name: E4
Note ON: Time 235200, Note Name: F#4, Velocity: 54
Note OFF: Time 235320, Note Name: F#4
Note ON: Time 235320, Note Name: E4, Velocity: 49
Note OFF: Time 235440, Note Name: E4
Note ON: Time 235440, Note Name: C#5, Velocity: 62
Note OFF: Time 235560, Note Name: C#5
Note ON: Time 235560, Note Name: C#4, Velocity: 45
Note OFF: Time 235680, Note Name: C#4
Note ON: Time 235680, Note Name: A4, Velocity: 51
Note OFF: Time 235800, Note Name: A4
Note ON: Time 235800, Note Name: G#4, Velocity: 46
Note OFF: Time 235920, Note Name: G#4
Note ON: Time 235920, Note Name: E5, Velocity: 59
Note OFF: Time 236040, Note Name: E5
Note ON: Time 236040, Note Name: E4, Velocity: 53
Note OFF: Time 236160, Note Name: E4
Note ON: Time 236160, Note Name: D#4, Velocity: 54
Note OFF: Time 236280, Note Name: D#4
Note ON: Time 236280, Note Name: C#4, Velocity: 49
Note OFF: Time 236400, Note Name: C#4
Note ON: Time 236400, Note Name: G#4, Velocity: 62
Note OFF: Time 236520, Note Name: G#4
Note ON: Time 236520, Note Name: G#3, Velocity: 45
Note OFF: Time 236640, Note Name: G#3
Note ON: Time 236640, Note Name: A4, Velocity: 55
Note OFF: Time 236760, Note Name: A4
Note ON: Time 236760, Note Name: G#4, Velocity: 48
Note OFF: Time 236880, Note Name: G#4
Note ON: Time 236880, Note Name: E5, Velocity: 62
Note OFF: Time 237000, Note Name: E5
Note ON: Time 237000, Note Name: E4, Velocity: 48
Note OFF: Time 237120, Note Name: E4
Note ON: Time 237120, Note Name: F#4, Velocity: 54
Note OFF: Time 237240, Note Name: F#4
Note ON: Time 237240, Note Name: E4, Velocity: 49
Note OFF: Time 237360, Note Name: E4
Note ON: Time 237360, Note Name: C#5, Velocity: 62
Note OFF: Time 237480, Note Name: C#5
Note ON: Time 237480, Note Name: C#4, Velocity: 45
Note OFF: Time 237600, Note Name: C#4
Note ON: Time 237600, Note Name: A4, Velocity: 51
Note OFF: Time 237720, Note Name: A4
Note ON: Time 237720, Note Name: G#4, Velocity: 46
Note OFF: Time 237840, Note Name: G#4
Note ON: Time 237840, Note Name: E5, Velocity: 59
Note OFF: Time 237960, Note Name: E5
Note ON: Time 237960, Note Name: E4, Velocity: 53
Note OFF: Time 238080, Note Name: E4
Note ON: Time 238080, Note Name: F#4, Velocity: 54
Note OFF: Time 238200, Note Name: F#4
Note ON: Time 238200, Note Name: E4, Velocity: 49
Note OFF: Time 238320, Note Name: E4
Note ON: Time 238320, Note Name: C#5, Velocity: 61
Note OFF: Time 238440, Note Name: C#5
Note ON: Time 238440, Note Name: C#4, Velocity: 44
Note OFF: Time 238560, Note Name: C#4
Note ON: Time 238560, Note Name: A4, Velocity: 53
Note OFF: Time 238680, Note Name: A4
Note ON: Time 238680, Note Name: G#4, Velocity: 46
Note OFF: Time 238800, Note Name: G#4
Note ON: Time 238800, Note Name: C#5, Velocity: 60
Note OFF: Time 238920, Note Name: C#5
Note ON: Time 238920, Note Name: C#4, Velocity: 46
Note OFF: Time 239040, Note Name: C#4
Note ON: Time 239040, Note Name: F#4, Velocity: 51
Note OFF: Time 239160, Note Name: F#4
Note ON: Time 239160, Note Name: E4, Velocity: 46
Note OFF: Time 239280, Note Name: E4
Note ON: Time 239280, Note Name: C#5, Velocity: 58
Note OFF: Time 239400, Note Name: C#5
Note ON: Time 239400, Note Name: C#4, Velocity: 42
Note OFF: Time 239520, Note Name: C#4
Note ON: Time 239520, Note Name: A4, Velocity: 47
Note OFF: Time 239640, Note Name: A4
Note ON: Time 239640, Note Name: G#4, Velocity: 42
Note OFF: Time 239760, Note Name: G#4
Note ON: Time 239760, Note Name: C#5, Velocity: 54
Note OFF: Time 239880, Note Name: C#5
Note ON: Time 239880, Note Name: C#4, Velocity: 48
Note OFF: Time 240000, Note Name: C#4
Note ON: Time 240000, Note Name: F#4, Velocity: 48
Note OFF: Time 240120, Note Name: F#4
Note ON: Time 240120, Note Name: E4, Velocity: 44
Note OFF: Time 240240, Note Name: E4
Note ON: Time 240240, Note Name: C#5, Velocity: 55
Note OFF: Time 240360, Note Name: C#5
Note ON: Time 240360, Note Name: C#4, Velocity: 40
Note OFF: Time 240480, Note Name: C#4
Note ON: Time 240480, Note Name: A4, Velocity: 48
Note OFF: Time 240600, Note Name: A4
Note ON: Time 240600, Note Name: G#4, Velocity: 41
Note OFF: Time 240720, Note Name: G#4
Note ON: Time 240720, Note Name: C#5, Velocity: 53
Note OFF: Time 240840, Note Name: C#5
Note ON: Time 240840, Note Name: C#4, Velocity: 41
Note OFF: Time 240960, Note Name: C#4
Note ON: Time 240960, Note Name: F#4, Velocity: 45
Note OFF: Time 241080, Note Name: F#4
Note ON: Time 241080, Note Name: E4, Velocity: 41
Note OFF: Time 241200, Note Name: E4
Note ON: Time 241200, Note Name: C#5, Velocity: 52
Note OFF: Time 241320, Note Name: C#5
Note ON: Time 241320, Note Name: C#4, Velocity: 37
Note OFF: Time 241440, Note Name: C#4
Note ON: Time 241440, Note Name: A4, Velocity: 42
Note OFF: Time 241560, Note Name: A4
Note ON: Time 241560, Note Name: G#4, Velocity: 37
Note OFF: Time 241680, Note Name: G#4
Note ON: Time 241680, Note Name: C#5, Velocity: 48
Note OFF: Time 241800, Note Name: C#5
Note ON: Time 241800, Note Name: C#4, Velocity: 42
Note OFF: Time 241920, Note Name: C#4
Note ON: Time 241920, Note Name: D#4, Velocity: 43
Note OFF: Time 242040, Note Name: D#4
Note ON: Time 242040, Note Name: C#4, Velocity: 39
Note OFF: Time 242160, Note Name: C#4
Note ON: Time 242160, Note Name: G#4, Velocity: 49
Note OFF: Time 242280, Note Name: G#4
Note ON: Time 242280, Note Name: G#3, Velocity: 36
Note OFF: Time 242400, Note Name: G#3
Note ON: Time 242400, Note Name: D#4, Velocity: 44
Note OFF: Time 242520, Note Name: D#4
Note ON: Time 242520, Note Name: C#4, Velocity: 38
Note OFF: Time 242640, Note Name: C#4
Note ON: Time 242640, Note Name: G#4, Velocity: 49
Note OFF: Time 242760, Note Name: G#4
Note ON: Time 242760, Note Name: G#3, Velocity: 38
Note OFF: Time 242880, Note Name: G#3
Note ON: Time 242880, Note Name: D#4, Velocity: 43
Note OFF: Time 243000, Note Name: D#4
Note ON: Time 243000, Note Name: C#4, Velocity: 39
Note OFF: Time 243120, Note Name: C#4
Note ON: Time 243120, Note Name: G#4, Velocity: 49
Note OFF: Time 243240, Note Name: G#4
Note ON: Time 243240, Note Name: G#3, Velocity: 36
Note OFF: Time 243360, Note Name: G#3
Note ON: Time 243360, Note Name: D#4, Velocity: 40
Note OFF: Time 243480, Note Name: D#4
Note ON: Time 243480, Note Name: C#4, Velocity: 36
Note OFF: Time 243600, Note Name: C#4
Note ON: Time 243600, Note Name: G#4, Velocity: 47
Note OFF: Time 243720, Note Name: G#4
Note ON: Time 243720, Note Name: G#3, Velocity: 42
Note OFF: Time 243840, Note Name: G#3
Note ON: Time 243840, Note Name: D#4, Velocity: 43
Note OFF: Time 243960, Note Name: D#4
Note ON: Time 243960, Note Name: C#4, Velocity: 39
Note OFF: Time 244080, Note Name: C#4
Note ON: Time 244080, Note Name: G#4, Velocity: 48
Note OFF: Time 244200, Note Name: G#4
Note ON: Time 244200, Note Name: G#3, Velocity: 35
Note OFF: Time 244320, Note Name: G#3
Note ON: Time 244320, Note Name: D#4, Velocity: 42
Note OFF: Time 244440, Note Name: D#4
Note ON: Time 244440, Note Name: C#4, Velocity: 36
Note OFF: Time 244560, Note Name: C#4
Note ON: Time 244560, Note Name: G#4, Velocity: 46
Note OFF: Time 244680, Note Name: G#4
Note ON: Time 244680, Note Name: G#3, Velocity: 35
Note OFF: Time 244800, Note Name: G#3
Note ON: Time 244800, Note Name: D#4, Velocity: 39
Note OFF: Time 244920, Note Name: D#4
Note ON: Time 244920, Note Name: C#4, Velocity: 35
Note OFF: Time 245040, Note Name: C#4
Note ON: Time 245040, Note Name: G#4, Velocity: 44
Note OFF: Time 245160, Note Name: G#4
Note ON: Time 245160, Note Name: G#3, Velocity: 32
Note OFF: Time 245280, Note Name: G#3
Note ON: Time 245280, Note Name: D#4, Velocity: 35
Note OFF: Time 245400, Note Name: D#4
Note ON: Time 245400, Note Name: C#4, Velocity: 31
Note OFF: Time 245520, Note Name: C#4
Note ON: Time 245520, Note Name: G#4, Velocity: 40
Note OFF: Time 245640, Note Name: G#4
Note ON: Time 245640, Note Name: G#3, Velocity: 36
Note OFF: Time 245760, Note Name: G#3
Note ON: Time 245760, Note Name: D#4, Velocity: 36
Note OFF: Time 245880, Note Name: D#4
Note ON: Time 245880, Note Name: C#4, Velocity: 33
Note OFF: Time 246000, Note Name: C#4
Note ON: Time 246000, Note Name: G#4, Velocity: 41
Note OFF: Time 246120, Note Name: G#4
Note ON: Time 246120, Note Name: G#3, Velocity: 30
Note OFF: Time 246240, Note Name: G#3
Note ON: Time 246240, Note Name: D#4, Velocity: 37
Note OFF: Time 246360, Note Name: D#4
Note ON: Time 246360, Note Name: C#4, Velocity: 32
Note OFF: Time 246480, Note Name: C#4
Note ON: Time 246480, Note Name: G#4, Velocity: 41
Note OFF: Time 246600, Note Name: G#4
Note ON: Time 246600, Note Name: G#3, Velocity: 32
Note OFF: Time 246720, Note Name: G#3
Note ON: Time 246720, Note Name: D#4, Velocity: 36
Note OFF: Time 246840, Note Name: D#4
Note ON: Time 246840, Note Name: C#4, Velocity: 33
Note OFF: Time 246960, Note Name: C#4
Note ON: Time 246960, Note Name: G#4, Velocity: 41
Note OFF: Time 247080, Note Name: G#4
Note ON: Time 247080, Note Name: G#3, Velocity: 30
Note OFF: Time 247200, Note Name: G#3
Note ON: Time 247200, Note Name: D#4, Velocity: 34
Note OFF: Time 247320, Note Name: D#4
Note ON: Time 247320, Note Name: C#4, Velocity: 30
Note OFF: Time 247440, Note Name: C#4
Note ON: Time 247440, Note Name: G#4, Velocity: 39
Note OFF: Time 247560, Note Name: G#4
Note ON: Time 247560, Note Name: G#3, Velocity: 35
Note OFF: Time 247680, Note Name: G#3
Note ON: Time 247680, Note Name: D#4, Velocity: 36
Note OFF: Time 247800, Note Name: D#4
Note ON: Time 247800, Note Name: C#4, Velocity: 33
Note OFF: Time 247920, Note Name: C#4
Note ON: Time 247920, Note Name: G#4, Velocity: 41
Note OFF: Time 248040, Note Name: G#4
Note ON: Time 248040, Note Name: G#3, Velocity: 30
Note OFF: Time 248160, Note Name: G#3
Note ON: Time 248160, Note Name: D#4, Velocity: 37
Note OFF: Time 248280, Note Name: D#4
Note ON: Time 248280, Note Name: C#4, Velocity: 32
Note OFF: Time 248400, Note Name: C#4
Note ON: Time 248400, Note Name: G#4, Velocity: 41
Note OFF: Time 248520, Note Name: G#4
Note ON: Time 248520, Note Name: G#3, Velocity: 32
Note OFF: Time 248640, Note Name: G#3
Note ON: Time 248640, Note Name: D#4, Velocity: 36
Note OFF: Time 248760, Note Name: D#4
Note ON: Time 248760, Note Name: C#4, Velocity: 33
Note OFF: Time 248880, Note Name: C#4
Note ON: Time 248880, Note Name: G#4, Velocity: 41
Note OFF: Time 249000, Note Name: G#4
Note ON: Time 249000, Note Name: G#3, Velocity: 30
Note OFF: Time 249120, Note Name: G#3
Note ON: Time 249120, Note Name: D#4, Velocity: 34
Note OFF: Time 249240, Note Name: D#4
Note ON: Time 249240, Note Name: C#4, Velocity: 30
Note OFF: Time 249360, Note Name: C#4
Note ON: Time 249360, Note Name: G#4, Velocity: 39
Note OFF: Time 249480, Note Name: G#4
Note ON: Time 249480, Note Name: G#3, Velocity: 35
Note OFF: Time 249600, Note Name: G#3
Note ON: Time 249600, Note Name: D#4, Velocity: 36
Note OFF: Time 249720, Note Name: D#4
Note ON: Time 249720, Note Name: C#4, Velocity: 33
Note OFF: Time 249840, Note Name: C#4
Note ON: Time 249840, Note Name: G#4, Velocity: 41
Note OFF: Time 249960, Note Name: G#4
Note ON: Time 249960, Note Name: G#3, Velocity: 30
Note OFF: Time 250080, Note Name: G#3
Note ON: Time 250080, Note Name: D#4, Velocity: 37
Note OFF: Time 250200, Note Name: D#4
Note ON: Time 250200, Note Name: C#4, Velocity: 32
Note OFF: Time 250320, Note Name: C#4
Note ON: Time 250320, Note Name: G#4, Velocity: 41
Note OFF: Time 250440, Note Name: G#4
Note ON: Time 250440, Note Name: G#3, Velocity: 32
Note OFF: Time 250560, Note Name: G#3
Note ON: Time 250560, Note Name: D#4, Velocity: 36
Note OFF: Time 250680, Note Name: D#4
Note ON: Time 250680, Note Name: C#4, Velocity: 33
Note OFF: Time 250800, Note Name: C#4
Note ON: Time 250800, Note Name: G#4, Velocity: 41
Note OFF: Time 250920, Note Name: G#4
Note ON: Time 250920, Note Name: G#3, Velocity: 30
Note OFF: Time 251040, Note Name: G#3
Note ON: Time 251040, Note Name: D#4, Velocity: 34
Note OFF: Time 251160, Note Name: D#4
Note ON: Time 251160, Note Name: C#4, Velocity: 30
Note OFF: Time 251280, Note Name: C#4
Note ON: Time 251280, Note Name: G#4, Velocity: 39
Note OFF: Time 251400, Note Name: G#4
Note ON: Time 251400, Note Name: G#3, Velocity: 35
Note OFF: Time 251520, Note Name: G#3
Note ON: Time 251520, Note Name: D#4, Velocity: 36
Note OFF: Time 251640, Note Name: D#4
Note ON: Time 251640, Note Name: C#4, Velocity: 33
Note OFF: Time 251760, Note Name: C#4
Note ON: Time 251760, Note Name: G#4, Velocity: 41
Note OFF: Time 251880, Note Name: G#4
Note ON: Time 251880, Note Name: G#3, Velocity: 30
Note OFF: Time 252000, Note Name: G#3
Note ON: Time 252000, Note Name: D#4, Velocity: 37
Note OFF: Time 252120, Note Name: D#4
Note ON: Time 252120, Note Name: C#4, Velocity: 32
Note OFF: Time 252240, Note Name: C#4
Note ON: Time 252240, Note Name: G#4, Velocity: 41
Note OFF: Time 252360, Note Name: G#4
Note ON: Time 252360, Note Name: G#3, Velocity: 32
Note OFF: Time 252480, Note Name: G#3
Note ON: Time 252480, Note Name: D#4, Velocity: 36
Note OFF: Time 252600, Note Name: D#4
Note ON: Time 252600, Note Name: C#4, Velocity: 33
Note OFF: Time 252720, Note Name: C#4
Note ON: Time 252720, Note Name: G#4, Velocity: 41
Note OFF: Time 252840, Note Name: G#4
Note ON: Time 252840, Note Name: G#3, Velocity: 30
Note OFF: Time 252960, Note Name: G#3
Note ON: Time 252960, Note Name: D#4, Velocity: 34
Note OFF: Time 253080, Note Name: D#4
Note ON: Time 253080, Note Name: C#4, Velocity: 30
Note OFF: Time 253200, Note Name: C#4
Note ON: Time 253200, Note Name: G#4, Velocity: 39
Note OFF: Time 253320, Note Name: G#4
Note ON: Time 253320, Note Name: G#3, Velocity: 35
Note OFF: Time 253440, Note Name: G#3
Note ON: Time 253440, Note Name: D#4, Velocity: 36
Note OFF: Time 253560, Note Name: D#4
Note ON: Time 253560, Note Name: C#4, Velocity: 33
Note OFF: Time 253680, Note Name: C#4
Note ON: Time 253680, Note Name: G#4, Velocity: 41
Note OFF: Time 253800, Note Name: G#4
Note ON: Time 253800, Note Name: G#3, Velocity: 30
Note OFF: Time 253920, Note Name: G#3
Note ON: Time 253920, Note Name: D#4, Velocity: 37
Note OFF: Time 254040, Note Name: D#4
Note ON: Time 254040, Note Name: C#4, Velocity: 32
Note OFF: Time 254160, Note Name: C#4
Note ON: Time 254160, Note Name: G#4, Velocity: 41
Note OFF: Time 254280, Note Name: G#4
Note ON: Time 254280, Note Name: G#3, Velocity: 32
Note OFF: Time 254400, Note Name: G#3
Note ON: Time 254400, Note Name: D#4, Velocity: 36
Note OFF: Time 254520, Note Name: D#4
Note ON: Time 254520, Note Name: C#4, Velocity: 33
Note OFF: Time 254640, Note Name: C#4
Note ON: Time 254640, Note Name: G#4, Velocity: 41
Note OFF: Time 254760, Note Name: G#4
Note ON: Time 254760, Note Name: G#3, Velocity: 30
Note OFF: Time 254880, Note Name: G#3
Note ON: Time 254880, Note Name: D#4, Velocity: 34
Note OFF: Time 255000, Note Name: D#4
Note ON: Time 255000, Note Name: C#4, Velocity: 30
Note OFF: Time 255120, Note Name: C#4
Note ON: Time 255120, Note Name: G#4, Velocity: 39
Note OFF: Time 255240, Note Name: G#4
Note ON: Time 255240, Note Name: G#3, Velocity: 35
Note OFF: Time 255360, Note Name: G#3
Note ON: Time 255360, Note Name: D#4, Velocity: 36
Note OFF: Time 255480, Note Name: D#4
Note ON: Time 255480, Note Name: C#4, Velocity: 33
Note OFF: Time 255600, Note Name: C#4
Note ON: Time 255600, Note Name: G#4, Velocity: 41
Note OFF: Time 255720, Note Name: G#4
Note ON: Time 255720, Note Name: G#3, Velocity: 30
Note OFF: Time 255840, Note Name: G#3
Note ON: Time 255840, Note Name: D#4, Velocity: 37
Note OFF: Time 255960, Note Name: D#4
Note ON: Time 255960, Note Name: C#4, Velocity: 32
Note OFF: Time 256080, Note Name: C#4
Note ON: Time 256080, Note Name: G#4, Velocity: 41
Note OFF: Time 256200, Note Name: G#4
Note ON: Time 256200, Note Name: G#3, Velocity: 32
Note OFF: Time 256320, Note Name: G#3
Note ON: Time 256320, Note Name: D#4, Velocity: 36
Note OFF: Time 256440, Note Name: D#4
Note ON: Time 256440, Note Name: C#4, Velocity: 33
Note OFF: Time 256560, Note Name: C#4
Note ON: Time 256560, Note Name: G#4, Velocity: 41
Note OFF: Time 256680, Note Name: G#4
Note ON: Time 256680, Note Name: G#3, Velocity: 30
Note OFF: Time 256800, Note Name: G#3
Note ON: Time 256800, Note Name: D#4, Velocity: 34
Note OFF: Time 256920, Note Name: D#4
Note ON: Time 256920, Note Name: C#4, Velocity: 30
Note OFF: Time 257040, Note Name: C#4
Note ON: Time 257040, Note Name: G#4, Velocity: 39
Note OFF: Time 257160, Note Name: G#4
Note ON: Time 257160, Note Name: G#3, Velocity: 35
Note OFF: Time 257280, Note Name: G#3
Note ON: Time 257280, Note Name: D#4, Velocity: 36
Note OFF: Time 257400, Note Name: D#4
Note ON: Time 257400, Note Name: C#4, Velocity: 29
Note OFF: Time 257520, Note Name: C#4
Note ON: Time 257520, Note Name: G#4, Velocity: 35
Note OFF: Time 257640, Note Name: G#4
Note ON: Time 257640, Note Name: F3, Velocity: 37
Note OFF: Time 257760, Note Name: F3
Note ON: Time 257760, Note Name: D#4, Velocity: 44
Note OFF: Time 257880, Note Name: D#4
Note ON: Time 257880, Note Name: C#4, Velocity: 28
Note OFF: Time 258000, Note Name: C#4
Note ON: Time 258000, Note Name: G#4, Velocity: 36
Note OFF: Time 258120, Note Name: G#4
Note ON: Time 258120, Note Name: F3, Velocity: 37
Note OFF: Time 258240, Note Name: F3
Note ON: Time 258240, Note Name: D#4, Velocity: 43
Note OFF: Time 258360, Note Name: D#4
Note ON: Time 258360, Note Name: C#4, Velocity: 29
Note OFF: Time 258480, Note Name: C#4
Note ON: Time 258480, Note Name: G#4, Velocity: 37
Note OFF: Time 258600, Note Name: G#4
Note ON: Time 258600, Note Name: F3, Velocity: 37
Note OFF: Time 258720, Note Name: F3
Note ON: Time 258720, Note Name: D#4, Velocity: 45
Note OFF: Time 258840, Note Name: D#4
Note ON: Time 258840, Note Name: C#4, Velocity: 27
Note OFF: Time 258960, Note Name: C#4
Note ON: Time 258960, Note Name: G#4, Velocity: 36
Note OFF: Time 259080, Note Name: G#4
Note ON: Time 259080, Note Name: F3, Velocity: 31
Note OFF: Time 259200, Note Name: F3
Note ON: Time 259200, Note Name: F4, Velocity: 32
Note OFF: Time 259320, Note Name: F4
Note ON: Time 259326, Note Name: D#4, Velocity: 29
Note ON: Time 259440, Note Name: G#4, Velocity: 35
Note OFF: Time 259446, Note Name: D#4
Note OFF: Time 259560, Note Name: G#4
Note ON: Time 259560, Note Name: F#3, Velocity: 38
Note OFF: Time 259680, Note Name: F#3
Note ON: Time 259680, Note Name: F4, Velocity: 44
Note OFF: Time 259800, Note Name: F4
Note ON: Time 259800, Note Name: D#4, Velocity: 28
Note OFF: Time 259920, Note Name: D#4
Note ON: Time 259920, Note Name: G#4, Velocity: 35
Note OFF: Time 260040, Note Name: G#4
Note ON: Time 260040, Note Name: F#3, Velocity: 38
Note OFF: Time 260160, Note Name: F#3
Note ON: Time 260166, Note Name: F4, Velocity: 42
Note OFF: Time 260286, Note Name: F4
Note ON: Time 260286, Note Name: D#4, Velocity: 29
Note ON: Time 260400, Note Name: G#4, Velocity: 37
Note OFF: Time 260406, Note Name: D#4
Note OFF: Time 260520, Note Name: G#4
Note ON: Time 260520, Note Name: F#3, Velocity: 37
Note OFF: Time 260640, Note Name: F#3
Note ON: Time 260640, Note Name: F4, Velocity: 40
Note OFF: Time 260760, Note Name: F4
Note ON: Time 260760, Note Name: D#4, Velocity: 27
Note OFF: Time 260880, Note Name: D#4
Note ON: Time 260880, Note Name: G#4, Velocity: 35
Note OFF: Time 261000, Note Name: G#4
Note ON: Time 261000, Note Name: F#3, Velocity: 38
Note OFF: Time 261120, Note Name: F#3
Note ON: Time 261240, Note Name: F#3, Velocity: 38
Note ON: Time 261300, Note Name: G#3, Velocity: 40
Note ON: Time 261360, Note Name: C4, Velocity: 43
Note ON: Time 261480, Note Name: D#4, Velocity: 48
Note OFF: Time 263040, Note Name: D#4
Note OFF: Time 263040, Note Name: C4
Note OFF: Time 263040, Note Name: F#3
Note ON: Time 263160, Note Name: F3, Velocity: 35
Note ON: Time 263220, Note Name: C#4, Velocity: 42
Note OFF: Time 264960, Note Name: C#4
Note OFF: Time 264960, Note Name: F3
Note OFF: Time 264960, Note Name: G#3
Track 2: Piano left
Note ON: Time 0, Note Name: G#2, Velocity: 79
Note ON: Time 0, Note Name: G#3, Velocity: 79
Note OFF: Time 3840, Note Name: G#3
Note OFF: Time 3840, Note Name: G#2
Note ON: Time 3840, Note Name: C#2, Velocity: 75
Note ON: Time 3840, Note Name: C#3, Velocity: 75
Note OFF: Time 4000, Note Name: C#3
Note OFF: Time 4000, Note Name: C#2
Note ON: Time 4000, Note Name: G#3, Velocity: 60
Note OFF: Time 4160, Note Name: G#3
Note ON: Time 4160, Note Name: C#4, Velocity: 64
Note OFF: Time 4320, Note Name: C#4
Note ON: Time 4320, Note Name: E4, Velocity: 65
Note OFF: Time 4480, Note Name: E4
Note ON: Time 4480, Note Name: C#4, Velocity: 62
Note OFF: Time 4640, Note Name: C#4
Note ON: Time 4640, Note Name: G#3, Velocity: 61
Note OFF: Time 4800, Note Name: G#3
Note ON: Time 4800, Note Name: C#3, Velocity: 57
Note OFF: Time 4960, Note Name: C#3
Note ON: Time 4960, Note Name: G#3, Velocity: 58
Note OFF: Time 5120, Note Name: G#3
Note ON: Time 5120, Note Name: C#4, Velocity: 60
Note OFF: Time 5280, Note Name: C#4
Note ON: Time 5280, Note Name: E4, Velocity: 60
Note OFF: Time 5440, Note Name: E4
Note ON: Time 5440, Note Name: C#4, Velocity: 58
Note OFF: Time 5600, Note Name: C#4
Note ON: Time 5600, Note Name: G#3, Velocity: 57
Note OFF: Time 5760, Note Name: G#3
Note ON: Time 5760, Note Name: C#3, Velocity: 53
Note OFF: Time 5920, Note Name: C#3
Note ON: Time 5920, Note Name: G#3, Velocity: 54
Note OFF: Time 6080, Note Name: G#3
Note ON: Time 6080, Note Name: C#4, Velocity: 55
Note OFF: Time 6240, Note Name: C#4
Note ON: Time 6240, Note Name: E4, Velocity: 54
Note OFF: Time 6400, Note Name: E4
Note ON: Time 6400, Note Name: C#4, Velocity: 52
Note OFF: Time 6560, Note Name: C#4
Note ON: Time 6560, Note Name: G#3, Velocity: 50
Note OFF: Time 6720, Note Name: G#3
Note ON: Time 6720, Note Name: C#3, Velocity: 45
Note OFF: Time 6880, Note Name: C#3
Note ON: Time 6880, Note Name: G#3, Velocity: 47
Note OFF: Time 7040, Note Name: G#3
Note ON: Time 7040, Note Name: C#4, Velocity: 49
Note OFF: Time 7200, Note Name: C#4
Note ON: Time 7200, Note Name: E4, Velocity: 46
Note OFF: Time 7360, Note Name: E4
Note ON: Time 7360, Note Name: C#4, Velocity: 43
Note OFF: Time 7520, Note Name: C#4
Note ON: Time 7520, Note Name: G#3, Velocity: 38
Note OFF: Time 7680, Note Name: G#3
Note ON: Time 7680, Note Name: C#3, Velocity: 22
Note OFF: Time 7840, Note Name: C#3
Note ON: Time 7840, Note Name: G#3, Velocity: 25
Note OFF: Time 8000, Note Name: G#3
Note ON: Time 8000, Note Name: C#4, Velocity: 28
Note OFF: Time 8160, Note Name: C#4
Note ON: Time 8160, Note Name: E4, Velocity: 30
Note OFF: Time 8320, Note Name: E4
Note ON: Time 8320, Note Name: C#4, Velocity: 28
Note OFF: Time 8480, Note Name: C#4
Note ON: Time 8480, Note Name: G#3, Velocity: 27
Note OFF: Time 8640, Note Name: G#3
Note ON: Time 8640, Note Name: E3, Velocity: 26
Note OFF: Time 8800, Note Name: E3
Note ON: Time 8800, Note Name: G#3, Velocity: 28
Note OFF: Time 8960, Note Name: G#3
Note ON: Time 8960, Note Name: C#4, Velocity: 30
Note OFF: Time 9120, Note Name: C#4
Note ON: Time 9120, Note Name: E4, Velocity: 31
Note OFF: Time 9280, Note Name: E4
Note ON: Time 9280, Note Name: C#4, Velocity: 28
Note OFF: Time 9440, Note Name: C#4
Note ON: Time 9440, Note Name: G#3, Velocity: 27
Note OFF: Time 9600, Note Name: G#3
Note ON: Time 9600, Note Name: C#3, Velocity: 27
Note OFF: Time 9760, Note Name: C#3
Note ON: Time 9760, Note Name: G#3, Velocity: 30
Note OFF: Time 9920, Note Name: G#3
Note ON: Time 9920, Note Name: C#4, Velocity: 34
Note OFF: Time 10080, Note Name: C#4
Note ON: Time 10080, Note Name: E4, Velocity: 36
Note OFF: Time 10240, Note Name: E4
Note ON: Time 10240, Note Name: C#4, Velocity: 34
Note OFF: Time 10400, Note Name: C#4
Note ON: Time 10400, Note Name: G#3, Velocity: 33
Note OFF: Time 10560, Note Name: G#3
Note ON: Time 10560, Note Name: E3, Velocity: 31
Note OFF: Time 10720, Note Name: E3
Note ON: Time 10720, Note Name: G#3, Velocity: 33
Note OFF: Time 10880, Note Name: G#3
Note ON: Time 10880, Note Name: C#4, Velocity: 36
Note OFF: Time 11040, Note Name: C#4
Note ON: Time 11040, Note Name: E4, Velocity: 37
Note OFF: Time 11200, Note Name: E4
Note ON: Time 11200, Note Name: C#4, Velocity: 34
Note OFF: Time 11360, Note Name: C#4
Note ON: Time 11360, Note Name: G#3, Velocity: 32
Note OFF: Time 11520, Note Name: G#3
Note ON: Time 11520, Note Name: D#3, Velocity: 31
Note OFF: Time 11680, Note Name: D#3
Note ON: Time 11680, Note Name: A3, Velocity: 35
Note OFF: Time 11840, Note Name: A3
Note ON: Time 11840, Note Name: C#4, Velocity: 39
Note OFF: Time 12000, Note Name: C#4
Note ON: Time 12000, Note Name: F#4, Velocity: 45
Note OFF: Time 12160, Note Name: F#4
Note ON: Time 12160, Note Name: C#4, Velocity: 39
Note OFF: Time 12320, Note Name: C#4
Note ON: Time 12320, Note Name: A3, Velocity: 37
Note OFF: Time 12480, Note Name: A3
Note ON: Time 12480, Note Name: F#3, Velocity: 37
Note OFF: Time 12640, Note Name: F#3
Note ON: Time 12640, Note Name: C#4, Velocity: 40
Note OFF: Time 12800, Note Name: C#4
Note ON: Time 12800, Note Name: D#4, Velocity: 44
Note OFF: Time 12960, Note Name: D#4
Note ON: Time 12960, Note Name: A4, Velocity: 46
Note OFF: Time 13120, Note Name: A4
Note ON: Time 13120, Note Name: D#4, Velocity: 44
Note OFF: Time 13280, Note Name: D#4
Note ON: Time 13280, Note Name: C#4, Velocity: 41
Note OFF: Time 13440, Note Name: C#4
Note ON: Time 13440, Note Name: G#2, Velocity: 33
Note OFF: Time 13600, Note Name: G#2
Note ON: Time 13600, Note Name: D#3, Velocity: 35
Note OFF: Time 13760, Note Name: D#3
Note ON: Time 13760, Note Name: F#3, Velocity: 38
Note OFF: Time 13920, Note Name: F#3
Note ON: Time 13920, Note Name: C4, Velocity: 39
Note OFF: Time 14080, Note Name: C4
Note ON: Time 14080, Note Name: F#3, Velocity: 36
Note OFF: Time 14240, Note Name: F#3
Note ON: Time 14240, Note Name: D#3, Velocity: 34
Note OFF: Time 14400, Note Name: D#3
Note ON: Time 14400, Note Name: G#2, Velocity: 29
Note OFF: Time 14560, Note Name: G#2
Note ON: Time 14560, Note Name: D#3, Velocity: 31
Note OFF: Time 14720, Note Name: D#3
Note ON: Time 14720, Note Name: F#3, Velocity: 33
Note OFF: Time 14880, Note Name: F#3
Note ON: Time 14880, Note Name: C4, Velocity: 33
Note OFF: Time 15040, Note Name: C4
Note ON: Time 15040, Note Name: F#3, Velocity: 29
Note OFF: Time 15200, Note Name: F#3
Note ON: Time 15200, Note Name: D#3, Velocity: 26
Note OFF: Time 15360, Note Name: D#3
Note ON: Time 15360, Note Name: C#3, Velocity: 22
Note OFF: Time 15520, Note Name: C#3
Note ON: Time 15520, Note Name: G#3, Velocity: 25
Note OFF: Time 15680, Note Name: G#3
Note ON: Time 15680, Note Name: C#4, Velocity: 28
Note OFF: Time 15840, Note Name: C#4
Note ON: Time 15840, Note Name: E4, Velocity: 30
Note OFF: Time 16000, Note Name: E4
Note ON: Time 16000, Note Name: C#4, Velocity: 28
Note OFF: Time 16160, Note Name: C#4
Note ON: Time 16160, Note Name: G#3, Velocity: 27
Note OFF: Time 16320, Note Name: G#3
Note ON: Time 16320, Note Name: E3, Velocity: 26
Note OFF: Time 16480, Note Name: E3
Note ON: Time 16480, Note Name: G#3, Velocity: 28
Note OFF: Time 16640, Note Name: G#3
Note ON: Time 16640, Note Name: C#4, Velocity: 30
Note OFF: Time 16800, Note Name: C#4
Note ON: Time 16800, Note Name: E4, Velocity: 31
Note OFF: Time 16960, Note Name: E4
Note ON: Time 16960, Note Name: C#4, Velocity: 28
Note OFF: Time 17120, Note Name: C#4
Note ON: Time 17120, Note Name: G#3, Velocity: 27
Note OFF: Time 17280, Note Name: G#3
Note ON: Time 17280, Note Name: C#3, Velocity: 27
Note OFF: Time 17440, Note Name: C#3
Note ON: Time 17440, Note Name: G#3, Velocity: 30
Note OFF: Time 17600, Note Name: G#3
Note ON: Time 17600, Note Name: A#3, Velocity: 34
Note OFF: Time 17760, Note Name: A#3
Note ON: Time 17760, Note Name: E4, Velocity: 36
Note OFF: Time 17920, Note Name: E4
Note ON: Time 17920, Note Name: A#3, Velocity: 34
Note OFF: Time 18080, Note Name: A#3
Note ON: Time 18080, Note Name: G#3, Velocity: 33
Note OFF: Time 18240, Note Name: G#3
Note ON: Time 18240, Note Name: E3, Velocity: 31
Note OFF: Time 18400, Note Name: E3
Note ON: Time 18400, Note Name: G#3, Velocity: 33
Note OFF: Time 18560, Note Name: G#3
Note ON: Time 18560, Note Name: A#3, Velocity: 36
Note OFF: Time 18720, Note Name: A#3
Note ON: Time 18720, Note Name: C#4, Velocity: 37
Note OFF: Time 18880, Note Name: C#4
Note ON: Time 18880, Note Name: A#3, Velocity: 34
Note OFF: Time 19040, Note Name: A#3
Note ON: Time 19040, Note Name: G#3, Velocity: 32
Note OFF: Time 19200, Note Name: G#3
Note ON: Time 19200, Note Name: D#3, Velocity: 30
Note OFF: Time 19360, Note Name: D#3
Note ON: Time 19360, Note Name: G#3, Velocity: 34
Note OFF: Time 19520, Note Name: G#3
Note ON: Time 19520, Note Name: B3, Velocity: 37
Note OFF: Time 19680, Note Name: B3
Note ON: Time 19680, Note Name: D#4, Velocity: 39
Note OFF: Time 19840, Note Name: D#4
Note ON: Time 19840, Note Name: B3, Velocity: 38
Note OFF: Time 20000, Note Name: B3
Note ON: Time 20000, Note Name: G#3, Velocity: 35
Note OFF: Time 20160, Note Name: G#3
Note ON: Time 20160, Note Name: D#3, Velocity: 38
Note OFF: Time 20320, Note Name: D#3
Note ON: Time 20320, Note Name: A#3, Velocity: 41
Note OFF: Time 20480, Note Name: A#3
Note ON: Time 20480, Note Name: C#4, Velocity: 45
Note OFF: Time 20640, Note Name: C#4
Note ON: Time 20640, Note Name: G4, Velocity: 46
Note OFF: Time 20800, Note Name: G4
Note ON: Time 20800, Note Name: C#4, Velocity: 44
Note OFF: Time 20960, Note Name: C#4
Note ON: Time 20960, Note Name: A#3, Velocity: 41
Note OFF: Time 21120, Note Name: A#3
Note ON: Time 21120, Note Name: G#2, Velocity: 33
Note OFF: Time 21280, Note Name: G#2
Note ON: Time 21280, Note Name: D#3, Velocity: 35
Note OFF: Time 21440, Note Name: D#3
Note ON: Time 21440, Note Name: G#3, Velocity: 37
Note OFF: Time 21600, Note Name: G#3
Note ON: Time 21600, Note Name: B3, Velocity: 39
Note OFF: Time 21760, Note Name: B3
Note ON: Time 21760, Note Name: G#3, Velocity: 39
Note OFF: Time 21920, Note Name: G#3
Note ON: Time 21920, Note Name: D#3, Velocity: 37
Note OFF: Time 22080, Note Name: D#3
Note ON: Time 22080, Note Name: G#2, Velocity: 33
Note OFF: Time 22240, Note Name: G#2
Note ON: Time 22240, Note Name: D#3, Velocity: 35
Note OFF: Time 22400, Note Name: D#3
Note ON: Time 22400, Note Name: G#3, Velocity: 38
Note OFF: Time 22560, Note Name: G#3
Note ON: Time 22560, Note Name: B3, Velocity: 39
Note OFF: Time 22720, Note Name: B3
Note ON: Time 22720, Note Name: G#3, Velocity: 35
Note OFF: Time 22880, Note Name: G#3
Note ON: Time 22880, Note Name: D#3, Velocity: 33
Note OFF: Time 23040, Note Name: D#3
Note ON: Time 23040, Note Name: A2, Velocity: 39
Note OFF: Time 23200, Note Name: A2
Note ON: Time 23200, Note Name: C#3, Velocity: 41
Note OFF: Time 23360, Note Name: C#3
Note ON: Time 23360, Note Name: F#3, Velocity: 43
Note OFF: Time 23520, Note Name: F#3
Note ON: Time 23520, Note Name: A3, Velocity: 45
Note OFF: Time 23680, Note Name: A3
Note ON: Time 23680, Note Name: F#3, Velocity: 44
Note OFF: Time 23840, Note Name: F#3
Note ON: Time 23840, Note Name: C#3, Velocity: 42
Note OFF: Time 24000, Note Name: C#3
Note ON: Time 24000, Note Name: A2, Velocity: 42
Note OFF: Time 24160, Note Name: A2
Note ON: Time 24160, Note Name: C#3, Velocity: 44
Note OFF: Time 24320, Note Name: C#3
Note ON: Time 24320, Note Name: F#3, Velocity: 45
Note OFF: Time 24480, Note Name: F#3
Note ON: Time 24480, Note Name: A3, Velocity: 45
Note OFF: Time 24640, Note Name: A3
Note ON: Time 24640, Note Name: F#3, Velocity: 45
Note OFF: Time 24800, Note Name: F#3
Note ON: Time 24800, Note Name: C#3, Velocity: 44
Note OFF: Time 24960, Note Name: C#3
Note ON: Time 24960, Note Name: B2, Velocity: 44
Note OFF: Time 25120, Note Name: B2
Note ON: Time 25120, Note Name: F#3, Velocity: 46
Note OFF: Time 25280, Note Name: F#3
Note ON: Time 25280, Note Name: A3, Velocity: 48
Note OFF: Time 25440, Note Name: A3
Note ON: Time 25440, Note Name: B3, Velocity: 49
Note OFF: Time 25600, Note Name: B3
Note ON: Time 25600, Note Name: A3, Velocity: 47
Note OFF: Time 25760, Note Name: A3
Note ON: Time 25760, Note Name: F#3, Velocity: 45
Note OFF: Time 25920, Note Name: F#3
Note ON: Time 25920, Note Name: E2, Velocity: 45
Note OFF: Time 26080, Note Name: E2
Note ON: Time 26080, Note Name: B2, Velocity: 46
Note OFF: Time 26240, Note Name: B2
Note ON: Time 26240, Note Name: E3, Velocity: 48
Note OFF: Time 26400, Note Name: E3
Note ON: Time 26400, Note Name: G#3, Velocity: 47
Note OFF: Time 26560, Note Name: G#3
Note ON: Time 26560, Note Name: E3, Velocity: 46
Note OFF: Time 26720, Note Name: E3
Note ON: Time 26720, Note Name: B2, Velocity: 45
Note OFF: Time 26880, Note Name: B2
Note ON: Time 26880, Note Name: A2, Velocity: 44
Note OFF: Time 27040, Note Name: A2
Note ON: Time 27040, Note Name: C#3, Velocity: 46
Note OFF: Time 27200, Note Name: C#3
Note ON: Time 27200, Note Name: F#3, Velocity: 48
Note OFF: Time 27360, Note Name: F#3
Note ON: Time 27360, Note Name: A3, Velocity: 49
Note OFF: Time 27520, Note Name: A3
Note ON: Time 27520, Note Name: F#3, Velocity: 47
Note OFF: Time 27680, Note Name: F#3
Note ON: Time 27680, Note Name: C#3, Velocity: 45
Note OFF: Time 27840, Note Name: C#3
Note ON: Time 27840, Note Name: A2, Velocity: 45
Note OFF: Time 28000, Note Name: A2
Note ON: Time 28000, Note Name: C#3, Velocity: 46
Note OFF: Time 28160, Note Name: C#3
Note ON: Time 28160, Note Name: F#3, Velocity: 48
Note OFF: Time 28320, Note Name: F#3
Note ON: Time 28320, Note Name: A3, Velocity: 47
Note OFF: Time 28480, Note Name: A3
Note ON: Time 28480, Note Name: F#3, Velocity: 46
Note OFF: Time 28640, Note Name: F#3
Note ON: Time 28640, Note Name: C#3, Velocity: 45
Note OFF: Time 28800, Note Name: C#3
Note ON: Time 28800, Note Name: B2, Velocity: 44
Note OFF: Time 28960, Note Name: B2
Note ON: Time 28960, Note Name: D#3, Velocity: 46
Note OFF: Time 29120, Note Name: D#3
Note ON: Time 29120, Note Name: A3, Velocity: 48
Note OFF: Time 29280, Note Name: A3
Note ON: Time 29280, Note Name: B3, Velocity: 49
Note OFF: Time 29440, Note Name: B3
Note ON: Time 29440, Note Name: A3, Velocity: 47
Note OFF: Time 29600, Note Name: A3
Note ON: Time 29600, Note Name: D#3, Velocity: 45
Note OFF: Time 29760, Note Name: D#3
Note ON: Time 29760, Note Name: E2, Velocity: 45
Note OFF: Time 29920, Note Name: E2
Note ON: Time 29920, Note Name: B2, Velocity: 46
Note OFF: Time 30080, Note Name: B2
Note ON: Time 30080, Note Name: E3, Velocity: 48
Note OFF: Time 30240, Note Name: E3
Note ON: Time 30240, Note Name: G#3, Velocity: 47
Note OFF: Time 30400, Note Name: G#3
Note ON: Time 30400, Note Name: E3, Velocity: 46
Note OFF: Time 30560, Note Name: E3
Note ON: Time 30560, Note Name: B2, Velocity: 45
Note OFF: Time 30720, Note Name: B2
Note ON: Time 30720, Note Name: A2, Velocity: 30
Note OFF: Time 30880, Note Name: A2
Note ON: Time 30880, Note Name: C#3, Velocity: 33
Note OFF: Time 31040, Note Name: C#3
Note ON: Time 31040, Note Name: F#3, Velocity: 34
Note OFF: Time 31200, Note Name: F#3
Note ON: Time 31200, Note Name: A3, Velocity: 35
Note OFF: Time 31360, Note Name: A3
Note ON: Time 31360, Note Name: F#3, Velocity: 34
Note OFF: Time 31520, Note Name: F#3
Note ON: Time 31520, Note Name: C#3, Velocity: 34
Note OFF: Time 31680, Note Name: C#3
Note ON: Time 31680, Note Name: A2, Velocity: 34
Note OFF: Time 31840, Note Name: A2
Note ON: Time 31840, Note Name: C#3, Velocity: 34
Note OFF: Time 32000, Note Name: C#3
Note ON: Time 32000, Note Name: F#3, Velocity: 36
Note OFF: Time 32160, Note Name: F#3
Note ON: Time 32160, Note Name: A3, Velocity: 36
Note OFF: Time 32320, Note Name: A3
Note ON: Time 32320, Note Name: F#3, Velocity: 35
Note OFF: Time 32480, Note Name: F#3
Note ON: Time 32480, Note Name: C#3, Velocity: 34
Note OFF: Time 32640, Note Name: C#3
Note ON: Time 32640, Note Name: B2, Velocity: 34
Note OFF: Time 32800, Note Name: B2
Note ON: Time 32800, Note Name: F#3, Velocity: 37
Note OFF: Time 32960, Note Name: F#3
Note ON: Time 32960, Note Name: A3, Velocity: 38
Note OFF: Time 33120, Note Name: A3
Note ON: Time 33120, Note Name: B3, Velocity: 39
Note OFF: Time 33280, Note Name: B3
Note ON: Time 33280, Note Name: A3, Velocity: 38
Note OFF: Time 33440, Note Name: A3
Note ON: Time 33440, Note Name: F#3, Velocity: 38
Note OFF: Time 33600, Note Name: F#3
Note ON: Time 33600, Note Name: E2, Velocity: 37
Note OFF: Time 33760, Note Name: E2
Note ON: Time 33760, Note Name: B2, Velocity: 39
Note OFF: Time 33920, Note Name: B2
Note ON: Time 33920, Note Name: E3, Velocity: 40
Note OFF: Time 34080, Note Name: E3
Note ON: Time 34080, Note Name: G#3, Velocity: 40
Note OFF: Time 34240, Note Name: G#3
Note ON: Time 34240, Note Name: E3, Velocity: 40
Note OFF: Time 34400, Note Name: E3
Note ON: Time 34400, Note Name: B2, Velocity: 39
Note OFF: Time 34560, Note Name: B2
Note ON: Time 34560, Note Name: A2, Velocity: 39
Note OFF: Time 34720, Note Name: A2
Note ON: Time 34720, Note Name: C#3, Velocity: 42
Note OFF: Time 34880, Note Name: C#3
Note ON: Time 34880, Note Name: F#3, Velocity: 43
Note OFF: Time 35040, Note Name: F#3
Note ON: Time 35040, Note Name: A3, Velocity: 45
Note OFF: Time 35200, Note Name: A3
Note ON: Time 35200, Note Name: F#3, Velocity: 43
Note OFF: Time 35360, Note Name: F#3
Note ON: Time 35360, Note Name: C#3, Velocity: 42
Note OFF: Time 35520, Note Name: C#3
Note ON: Time 35520, Note Name: A2, Velocity: 42
Note OFF: Time 35680, Note Name: A2
Note ON: Time 35680, Note Name: D#3, Velocity: 44
Note OFF: Time 35840, Note Name: D#3
Note ON: Time 35840, Note Name: F#3, Velocity: 45
Note OFF: Time 36000, Note Name: F#3
Note ON: Time 36000, Note Name: A3, Velocity: 44
Note OFF: Time 36160, Note Name: A3
Note ON: Time 36160, Note Name: F#3, Velocity: 44
Note OFF: Time 36320, Note Name: F#3
Note ON: Time 36320, Note Name: D#3, Velocity: 42
Note OFF: Time 36480, Note Name: D#3
Note ON: Time 36480, Note Name: G#2, Velocity: 42
Note OFF: Time 36640, Note Name: G#2
Note ON: Time 36640, Note Name: D#3, Velocity: 44
Note OFF: Time 36800, Note Name: D#3
Note ON: Time 36800, Note Name: F#3, Velocity: 45
Note OFF: Time 36960, Note Name: F#3
Note ON: Time 36960, Note Name: C4, Velocity: 42
Note OFF: Time 37120, Note Name: C4
Note ON: Time 37120, Note Name: F#3, Velocity: 42
Note OFF: Time 37280, Note Name: F#3
Note ON: Time 37280, Note Name: D#3, Velocity: 40
Note OFF: Time 37440, Note Name: D#3
Note ON: Time 37440, Note Name: G#2, Velocity: 39
Note OFF: Time 37600, Note Name: G#2
Note ON: Time 37600, Note Name: D#3, Velocity: 41
Note OFF: Time 37760, Note Name: D#3
Note ON: Time 37760, Note Name: F#3, Velocity: 42
Note OFF: Time 37920, Note Name: F#3
Note ON: Time 37920, Note Name: C4, Velocity: 40
Note OFF: Time 38080, Note Name: C4
Note ON: Time 38080, Note Name: F#3, Velocity: 39
Note OFF: Time 38240, Note Name: F#3
Note ON: Time 38240, Note Name: D#3, Velocity: 38
Note OFF: Time 38400, Note Name: D#3
Note ON: Time 38400, Note Name: A2, Velocity: 38
Note OFF: Time 38560, Note Name: A2
Note ON: Time 38560, Note Name: D#3, Velocity: 39
Note OFF: Time 38720, Note Name: D#3
Note ON: Time 38720, Note Name: F#3, Velocity: 40
Note OFF: Time 38880, Note Name: F#3
Note ON: Time 38880, Note Name: B3, Velocity: 38
Note OFF: Time 39040, Note Name: B3
Note ON: Time 39040, Note Name: F#3, Velocity: 38
Note OFF: Time 39200, Note Name: F#3
Note ON: Time 39200, Note Name: D#3, Velocity: 36
Note OFF: Time 39360, Note Name: D#3
Note ON: Time 39360, Note Name: A#2, Velocity: 35
Note OFF: Time 39520, Note Name: A#2
Note ON: Time 39520, Note Name: D#3, Velocity: 37
Note OFF: Time 39680, Note Name: D#3
Note ON: Time 39680, Note Name: F#3, Velocity: 38
Note OFF: Time 39840, Note Name: F#3
Note ON: Time 39840, Note Name: A#3, Velocity: 36
Note OFF: Time 40000, Note Name: A#3
Note ON: Time 40000, Note Name: F#3, Velocity: 35
Note OFF: Time 40160, Note Name: F#3
Note ON: Time 40160, Note Name: D#3, Velocity: 34
Note OFF: Time 40320, Note Name: D#3
Note ON: Time 40320, Note Name: C3, Velocity: 34
Note OFF: Time 40480, Note Name: C3
Note ON: Time 40480, Note Name: D#3, Velocity: 34
Note OFF: Time 40640, Note Name: D#3
Note ON: Time 40640, Note Name: F#3, Velocity: 35
Note OFF: Time 40800, Note Name: F#3
Note ON: Time 40800, Note Name: A3, Velocity: 34
Note OFF: Time 40960, Note Name: A3
Note ON: Time 40960, Note Name: F#3, Velocity: 34
Note OFF: Time 41120, Note Name: F#3
Note ON: Time 41120, Note Name: D#3, Velocity: 32
Note OFF: Time 41280, Note Name: D#3
Note ON: Time 41280, Note Name: C3, Velocity: 31
Note OFF: Time 41440, Note Name: C3
Note ON: Time 41440, Note Name: D#3, Velocity: 33
Note OFF: Time 41600, Note Name: D#3
Note ON: Time 41600, Note Name: F#3, Velocity: 33
Note OFF: Time 41760, Note Name: F#3
Note ON: Time 41760, Note Name: A3, Velocity: 31
Note OFF: Time 41920, Note Name: A3
Note ON: Time 41920, Note Name: F#3, Velocity: 31
Note OFF: Time 42080, Note Name: F#3
Note ON: Time 42080, Note Name: D#3, Velocity: 29
Note OFF: Time 42240, Note Name: D#3
Note ON: Time 42240, Note Name: A2, Velocity: 28
Note OFF: Time 42400, Note Name: A2
Note ON: Time 42400, Note Name: D#3, Velocity: 29
Note OFF: Time 42560, Note Name: D#3
Note ON: Time 42560, Note Name: F#3, Velocity: 29
Note OFF: Time 42720, Note Name: F#3
Note ON: Time 42720, Note Name: B3, Velocity: 31
Note OFF: Time 42880, Note Name: B3
Note ON: Time 42880, Note Name: F#3, Velocity: 29
Note OFF: Time 43040, Note Name: F#3
Note ON: Time 43040, Note Name: D#3, Velocity: 28
Note OFF: Time 43200, Note Name: D#3
Note ON: Time 43200, Note Name: A#2, Velocity: 25
Note OFF: Time 43360, Note Name: A#2
Note ON: Time 43360, Note Name: D#3, Velocity: 26
Note OFF: Time 43520, Note Name: D#3
Note ON: Time 43520, Note Name: F#3, Velocity: 27
Note OFF: Time 43680, Note Name: F#3
Note ON: Time 43680, Note Name: A#3, Velocity: 28
Note OFF: Time 43840, Note Name: A#3
Note ON: Time 43840, Note Name: F#3, Velocity: 27
Note OFF: Time 44000, Note Name: F#3
Note ON: Time 44000, Note Name: D#3, Velocity: 25
Note OFF: Time 44160, Note Name: D#3
Note ON: Time 44160, Note Name: B2, Velocity: 24
Note OFF: Time 44320, Note Name: B2
Note ON: Time 44320, Note Name: D#3, Velocity: 26
Note OFF: Time 44480, Note Name: D#3
Note ON: Time 44480, Note Name: F#3, Velocity: 27
Note OFF: Time 44640, Note Name: F#3
Note ON: Time 44640, Note Name: A3, Velocity: 28
Note OFF: Time 44800, Note Name: A3
Note ON: Time 44800, Note Name: F#3, Velocity: 27
Note OFF: Time 44960, Note Name: F#3
Note ON: Time 44960, Note Name: D#3, Velocity: 25
Note OFF: Time 45120, Note Name: D#3
Note ON: Time 45120, Note Name: C3, Velocity: 22
Note OFF: Time 45280, Note Name: C3
Note ON: Time 45280, Note Name: D#3, Velocity: 23
Note OFF: Time 45440, Note Name: D#3
Note ON: Time 45440, Note Name: F#3, Velocity: 24
Note OFF: Time 45600, Note Name: F#3
Note ON: Time 45600, Note Name: G#3, Velocity: 24
Note OFF: Time 45760, Note Name: G#3
Note ON: Time 45760, Note Name: F#3, Velocity: 23
Note OFF: Time 45920, Note Name: F#3
Note ON: Time 45920, Note Name: D#3, Velocity: 22
Note OFF: Time 46080, Note Name: D#3
Note ON: Time 46080, Note Name: C#3, Velocity: 22
Note OFF: Time 46240, Note Name: C#3
Note ON: Time 46240, Note Name: G#3, Velocity: 25
Note OFF: Time 46400, Note Name: G#3
Note ON: Time 46400, Note Name: C#4, Velocity: 28
Note OFF: Time 46560, Note Name: C#4
Note ON: Time 46560, Note Name: E4, Velocity: 30
Note OFF: Time 46720, Note Name: E4
Note ON: Time 46720, Note Name: C#4, Velocity: 28
Note OFF: Time 46880, Note Name: C#4
Note ON: Time 46880, Note Name: G#3, Velocity: 27
Note OFF: Time 47040, Note Name: G#3
Note ON: Time 47040, Note Name: E3, Velocity: 26
Note OFF: Time 47200, Note Name: E3
Note ON: Time 47200, Note Name: G#3, Velocity: 28
Note OFF: Time 47360, Note Name: G#3
Note ON: Time 47360, Note Name: C#4, Velocity: 30
Note OFF: Time 47520, Note Name: C#4
Note ON: Time 47520, Note Name: E4, Velocity: 31
Note OFF: Time 47680, Note Name: E4
Note ON: Time 47680, Note Name: C#4, Velocity: 28
Note OFF: Time 47840, Note Name: C#4
Note ON: Time 47840, Note Name: G#3, Velocity: 27
Note OFF: Time 48000, Note Name: G#3
Note ON: Time 48000, Note Name: C#3, Velocity: 27
Note OFF: Time 48160, Note Name: C#3
Note ON: Time 48160, Note Name: G#3, Velocity: 30
Note OFF: Time 48320, Note Name: G#3
Note ON: Time 48320, Note Name: C#4, Velocity: 34
Note OFF: Time 48480, Note Name: C#4
Note ON: Time 48480, Note Name: E4, Velocity: 36
Note OFF: Time 48640, Note Name: E4
Note ON: Time 48640, Note Name: C#4, Velocity: 34
Note OFF: Time 48800, Note Name: C#4
Note ON: Time 48800, Note Name: G#3, Velocity: 33
Note OFF: Time 48960, Note Name: G#3
Note ON: Time 48960, Note Name: E3, Velocity: 31
Note OFF: Time 49120, Note Name: E3
Note ON: Time 49120, Note Name: G#3, Velocity: 33
Note OFF: Time 49280, Note Name: G#3
Note ON: Time 49280, Note Name: C#4, Velocity: 36
Note OFF: Time 49440, Note Name: C#4
Note ON: Time 49440, Note Name: E4, Velocity: 37
Note OFF: Time 49600, Note Name: E4
Note ON: Time 49600, Note Name: C#4, Velocity: 34
Note OFF: Time 49760, Note Name: C#4
Note ON: Time 49760, Note Name: G#3, Velocity: 32
Note OFF: Time 49920, Note Name: G#3
Note ON: Time 49920, Note Name: D#3, Velocity: 31
Note OFF: Time 50080, Note Name: D#3
Note ON: Time 50080, Note Name: A3, Velocity: 35
Note OFF: Time 50240, Note Name: A3
Note ON: Time 50240, Note Name: C#4, Velocity: 39
Note OFF: Time 50400, Note Name: C#4
Note ON: Time 50400, Note Name: F#4, Velocity: 45
Note OFF: Time 50560, Note Name: F#4
Note ON: Time 50560, Note Name: C#4, Velocity: 39
Note OFF: Time 50720, Note Name: C#4
Note ON: Time 50720, Note Name: A3, Velocity: 37
Note OFF: Time 50880, Note Name: A3
Note ON: Time 50880, Note Name: F#3, Velocity: 37
Note OFF: Time 51040, Note Name: F#3
Note ON: Time 51040, Note Name: C#4, Velocity: 40
Note OFF: Time 51200, Note Name: C#4
Note ON: Time 51200, Note Name: D#4, Velocity: 44
Note OFF: Time 51360, Note Name: D#4
Note ON: Time 51360, Note Name: A4, Velocity: 46
Note OFF: Time 51520, Note Name: A4
Note ON: Time 51520, Note Name: D#4, Velocity: 44
Note OFF: Time 51680, Note Name: D#4
Note ON: Time 51680, Note Name: C#4, Velocity: 41
Note OFF: Time 51840, Note Name: C#4
Note ON: Time 51840, Note Name: G#2, Velocity: 33
Note OFF: Time 52000, Note Name: G#2
Note ON: Time 52000, Note Name: D#3, Velocity: 36
Note OFF: Time 52160, Note Name: D#3
Note ON: Time 52160, Note Name: F#3, Velocity: 39
Note OFF: Time 52320, Note Name: F#3
Note ON: Time 52320, Note Name: C4, Velocity: 41
Note OFF: Time 52480, Note Name: C4
Note ON: Time 52480, Note Name: F#3, Velocity: 39
Note OFF: Time 52640, Note Name: F#3
Note ON: Time 52640, Note Name: D#3, Velocity: 37
Note OFF: Time 52800, Note Name: D#3
Note ON: Time 52800, Note Name: G#2, Velocity: 33
Note OFF: Time 52960, Note Name: G#2
Note ON: Time 52960, Note Name: D#3, Velocity: 35
Note OFF: Time 53120, Note Name: D#3
Note ON: Time 53120, Note Name: F#3, Velocity: 38
Note OFF: Time 53280, Note Name: F#3
Note ON: Time 53280, Note Name: C4, Velocity: 39
Note OFF: Time 53440, Note Name: C4
Note ON: Time 53440, Note Name: F#3, Velocity: 35
Note OFF: Time 53600, Note Name: F#3
Note ON: Time 53600, Note Name: D#3, Velocity: 33
Note OFF: Time 53760, Note Name: D#3
Note ON: Time 53760, Note Name: C#3, Velocity: 28
Note OFF: Time 53920, Note Name: C#3
Note ON: Time 53920, Note Name: G#3, Velocity: 32
Note OFF: Time 54080, Note Name: G#3
Note ON: Time 54080, Note Name: C#4, Velocity: 34
Note OFF: Time 54240, Note Name: C#4
Note ON: Time 54240, Note Name: E4, Velocity: 37
Note OFF: Time 54400, Note Name: E4
Note ON: Time 54400, Note Name: C#4, Velocity: 35
Note OFF: Time 54560, Note Name: C#4
Note ON: Time 54560, Note Name: G#3, Velocity: 33
Note OFF: Time 54720, Note Name: G#3
Note ON: Time 54720, Note Name: E3, Velocity: 31
Note OFF: Time 54880, Note Name: E3
Note ON: Time 54880, Note Name: G#3, Velocity: 33
Note OFF: Time 55040, Note Name: G#3
Note ON: Time 55040, Note Name: C#4, Velocity: 35
Note OFF: Time 55200, Note Name: C#4
Note ON: Time 55200, Note Name: E4, Velocity: 36
Note OFF: Time 55360, Note Name: E4
Note ON: Time 55360, Note Name: C#4, Velocity: 33
Note OFF: Time 55520, Note Name: C#4
Note ON: Time 55520, Note Name: G#3, Velocity: 31
Note OFF: Time 55680, Note Name: G#3
Note ON: Time 55680, Note Name: F#3, Velocity: 28
Note OFF: Time 55840, Note Name: F#3
Note ON: Time 55840, Note Name: C#4, Velocity: 33
Note OFF: Time 56000, Note Name: C#4
Note ON: Time 56000, Note Name: D#4, Velocity: 35
Note OFF: Time 56160, Note Name: D#4
Note ON: Time 56160, Note Name: A4, Velocity: 38
Note OFF: Time 56320, Note Name: A4
Note ON: Time 56320, Note Name: D#4, Velocity: 36
Note OFF: Time 56480, Note Name: D#4
Note ON: Time 56480, Note Name: C#4, Velocity: 34
Note OFF: Time 56640, Note Name: C#4
Note ON: Time 56640, Note Name: G#3, Velocity: 32
Note OFF: Time 56800, Note Name: G#3
Note ON: Time 56800, Note Name: C#4, Velocity: 34
Note OFF: Time 56960, Note Name: C#4
Note ON: Time 56960, Note Name: F4, Velocity: 37
Note OFF: Time 57120, Note Name: F4
Note ON: Time 57120, Note Name: B4, Velocity: 39
Note OFF: Time 57280, Note Name: B4
Note ON: Time 57280, Note Name: F4, Velocity: 34
Note OFF: Time 57440, Note Name: F4
Note ON: Time 57440, Note Name: C#4, Velocity: 33
Note OFF: Time 57600, Note Name: C#4
Note ON: Time 57600, Note Name: A3, Velocity: 30
Note OFF: Time 57760, Note Name: A3
Note ON: Time 57760, Note Name: C#4, Velocity: 34
Note OFF: Time 57920, Note Name: C#4
Note ON: Time 57920, Note Name: F#4, Velocity: 37
Note OFF: Time 58080, Note Name: F#4
Note ON: Time 58080, Note Name: A4, Velocity: 40
Note OFF: Time 58240, Note Name: A4
Note ON: Time 58240, Note Name: F#4, Velocity: 39
Note OFF: Time 58400, Note Name: F#4
Note ON: Time 58400, Note Name: C#4, Velocity: 35
Note OFF: Time 58560, Note Name: C#4
Note ON: Time 58560, Note Name: G#3, Velocity: 34
Note OFF: Time 58720, Note Name: G#3
Note ON: Time 58720, Note Name: C#4, Velocity: 36
Note OFF: Time 58880, Note Name: C#4
Note ON: Time 58880, Note Name: F4, Velocity: 39
Note OFF: Time 59040, Note Name: F4
Note ON: Time 59040, Note Name: B4, Velocity: 40
Note OFF: Time 59200, Note Name: B4
Note ON: Time 59200, Note Name: F4, Velocity: 37
Note OFF: Time 59360, Note Name: F4
Note ON: Time 59360, Note Name: C#4, Velocity: 34
Note OFF: Time 59520, Note Name: C#4
Note ON: Time 59520, Note Name: A3, Velocity: 32
Note OFF: Time 59680, Note Name: A3
Note ON: Time 59680, Note Name: C#4, Velocity: 36
Note OFF: Time 59840, Note Name: C#4
Note ON: Time 59840, Note Name: F#4, Velocity: 39
Note OFF: Time 60000, Note Name: F#4
Note ON: Time 60000, Note Name: A4, Velocity: 42
Note OFF: Time 60160, Note Name: A4
Note ON: Time 60160, Note Name: F#4, Velocity: 40
Note OFF: Time 60320, Note Name: F#4
Note ON: Time 60320, Note Name: C#4, Velocity: 38
Note OFF: Time 60480, Note Name: C#4
Note ON: Time 60480, Note Name: C3, Velocity: 36
Note OFF: Time 60640, Note Name: C3
Note ON: Time 60640, Note Name: F#3, Velocity: 38
Note OFF: Time 60800, Note Name: F#3
Note ON: Time 60800, Note Name: G#3, Velocity: 41
Note OFF: Time 60960, Note Name: G#3
Note ON: Time 60960, Note Name: D#4, Velocity: 42
Note OFF: Time 61120, Note Name: D#4
Note ON: Time 61120, Note Name: G#3, Velocity: 39
Note OFF: Time 61280, Note Name: G#3
Note ON: Time 61280, Note Name: F#3, Velocity: 37
Note OFF: Time 61440, Note Name: F#3
Note ON: Time 61440, Note Name: C#3, Velocity: 35
Note OFF: Time 61600, Note Name: C#3
Note ON: Time 61600, Note Name: G#3, Velocity: 39
Note OFF: Time 61760, Note Name: G#3
Note ON: Time 61760, Note Name: C#4, Velocity: 43
Note OFF: Time 61920, Note Name: C#4
Note ON: Time 61920, Note Name: E4, Velocity: 45
Note OFF: Time 62080, Note Name: E4
Note ON: Time 62080, Note Name: C#4, Velocity: 44
Note OFF: Time 62240, Note Name: C#4
Note ON: Time 62240, Note Name: G#3, Velocity: 42
Note OFF: Time 62400, Note Name: G#3
Note ON: Time 62400, Note Name: D#3, Velocity: 44
Note OFF: Time 62560, Note Name: D#3
Note ON: Time 62560, Note Name: G#3, Velocity: 41
Note OFF: Time 62720, Note Name: G#3
Note ON: Time 62720, Note Name: C4, Velocity: 45
Note OFF: Time 62880, Note Name: C4
Note ON: Time 62880, Note Name: F#4, Velocity: 46
Note OFF: Time 63040, Note Name: F#4
Note ON: Time 63040, Note Name: C4, Velocity: 44
Note OFF: Time 63200, Note Name: C4
Note ON: Time 63200, Note Name: G#3, Velocity: 41
Note OFF: Time 63360, Note Name: G#3
Note ON: Time 63360, Note Name: E3, Velocity: 35
Note OFF: Time 63520, Note Name: E3
Note ON: Time 63520, Note Name: G#3, Velocity: 39
Note OFF: Time 63680, Note Name: G#3
Note ON: Time 63680, Note Name: C#4, Velocity: 43
Note OFF: Time 63840, Note Name: C#4
Note ON: Time 63840, Note Name: E4, Velocity: 45
Note OFF: Time 64000, Note Name: E4
Note ON: Time 64000, Note Name: C#4, Velocity: 44
Note OFF: Time 64160, Note Name: C#4
Note ON: Time 64160, Note Name: G#3, Velocity: 42
Note OFF: Time 64320, Note Name: G#3
Note ON: Time 64320, Note Name: F#3, Velocity: 44
Note OFF: Time 64480, Note Name: F#3
Note ON: Time 64480, Note Name: C#4, Velocity: 41
Note OFF: Time 64640, Note Name: C#4
Note ON: Time 64640, Note Name: D#4, Velocity: 45
Note OFF: Time 64800, Note Name: D#4
Note ON: Time 64800, Note Name: A4, Velocity: 46
Note OFF: Time 64960, Note Name: A4
Note ON: Time 64960, Note Name: D#4, Velocity: 48
Note OFF: Time 65120, Note Name: D#4
Note ON: Time 65120, Note Name: C#4, Velocity: 51
Note OFF: Time 65280, Note Name: C#4
Note ON: Time 65280, Note Name: G#4, Velocity: 71
Note ON: Time 65280, Note Name: E4, Velocity: 71
Note ON: Time 65280, Note Name: C#4, Velocity: 71
Note ON: Time 65280, Note Name: G#3, Velocity: 71
Note OFF: Time 65520, Note Name: G#3
Note OFF: Time 65520, Note Name: G#4
Note OFF: Time 65520, Note Name: E4
Note OFF: Time 65520, Note Name: C#4
Note ON: Time 66240, Note Name: A4, Velocity: 71
Note ON: Time 66240, Note Name: E4, Velocity: 71
Note ON: Time 66240, Note Name: C#4, Velocity: 71
Note ON: Time 66240, Note Name: G3, Velocity: 71
Note OFF: Time 66720, Note Name: G3
Note OFF: Time 66720, Note Name: A4
Note OFF: Time 66720, Note Name: E4
Note OFF: Time 66720, Note Name: C#4
Note ON: Time 69120, Note Name: G#1, Velocity: 78
Note ON: Time 69120, Note Name: G#2, Velocity: 78
Note OFF: Time 69240, Note Name: G#2
Note OFF: Time 69240, Note Name: G#1
Note ON: Time 69600, Note Name: E5, Velocity: 75
Note ON: Time 69600, Note Name: E4, Velocity: 75
Note OFF: Time 70080, Note Name: E4
Note OFF: Time 70080, Note Name: E5
Note ON: Time 70080, Note Name: C#4, Velocity: 78
Note ON: Time 70080, Note Name: C#5, Velocity: 78
Note OFF: Time 70560, Note Name: C#5
Note OFF: Time 70560, Note Name: C#4
Note ON: Time 70560, Note Name: G#3, Velocity: 78
Note ON: Time 70560, Note Name: G#4, Velocity: 78
Note OFF: Time 71040, Note Name: G#4
Note OFF: Time 71040, Note Name: G#3
Note ON: Time 71040, Note Name: E3, Velocity: 78
Note ON: Time 71040, Note Name: E4, Velocity: 78
Note OFF: Time 71520, Note Name: E4
Note OFF: Time 71520, Note Name: E3
Note ON: Time 71520, Note Name: C#3, Velocity: 74
Note ON: Time 71520, Note Name: C#4, Velocity: 74
Note OFF: Time 72000, Note Name: C#4
Note OFF: Time 72000, Note Name: C#3
Note ON: Time 72000, Note Name: G#2, Velocity: 78
Note ON: Time 72000, Note Name: G#3, Velocity: 78
Note OFF: Time 72480, Note Name: G#3
Note OFF: Time 72480, Note Name: G#2
Note ON: Time 72480, Note Name: E2, Velocity: 74
Note ON: Time 72480, Note Name: E3, Velocity: 74
Note OFF: Time 72960, Note Name: E3
Note OFF: Time 72960, Note Name: E2
Note ON: Time 72960, Note Name: C#2, Velocity: 78
Note ON: Time 72960, Note Name: C#3, Velocity: 78
Note OFF: Time 73440, Note Name: C#3
Note OFF: Time 73440, Note Name: C#2
Note ON: Time 73440, Note Name: G#1, Velocity: 73
Note ON: Time 73440, Note Name: G#2, Velocity: 73
Note OFF: Time 73920, Note Name: G#2
Note OFF: Time 73920, Note Name: G#1
Note ON: Time 73920, Note Name: G#1, Velocity: 78
Note ON: Time 73920, Note Name: G#2, Velocity: 78
Note OFF: Time 74400, Note Name: G#2
Note OFF: Time 74400, Note Name: G#1
Note ON: Time 74400, Note Name: A1, Velocity: 74
Note ON: Time 74400, Note Name: A2, Velocity: 74
Note OFF: Time 74880, Note Name: A2
Note OFF: Time 74880, Note Name: A1
Note ON: Time 74880, Note Name: G#1, Velocity: 78
Note ON: Time 74880, Note Name: G#2, Velocity: 78
Note OFF: Time 75360, Note Name: G#2
Note OFF: Time 75360, Note Name: G#1
Note ON: Time 75360, Note Name: G1, Velocity: 72
Note ON: Time 75360, Note Name: G2, Velocity: 72
Note OFF: Time 75840, Note Name: G2
Note OFF: Time 75840, Note Name: G1
Note ON: Time 75840, Note Name: G#1, Velocity: 69
Note ON: Time 75840, Note Name: G#2, Velocity: 69
Note OFF: Time 76800, Note Name: G#2
Note OFF: Time 76800, Note Name: G#1
Note ON: Time 76800, Note Name: C#2, Velocity: 95
Note OFF: Time 76960, Note Name: C#2
Note ON: Time 76960, Note Name: G#2, Velocity: 55
Note OFF: Time 77120, Note Name: G#2
Note ON: Time 77120, Note Name: C#3, Velocity: 56
Note OFF: Time 77280, Note Name: C#3
Note ON: Time 77280, Note Name: F3, Velocity: 56
Note OFF: Time 77440, Note Name: F3
Note ON: Time 77440, Note Name: G#3, Velocity: 58
Note OFF: Time 77600, Note Name: G#3
Note ON: Time 77600, Note Name: C#4, Velocity: 59
Note OFF: Time 77760, Note Name: C#4
Note ON: Time 77760, Note Name: F4, Velocity: 59
Note OFF: Time 77920, Note Name: F4
Note ON: Time 77920, Note Name: C#4, Velocity: 57
Note OFF: Time 78080, Note Name: C#4
Note ON: Time 78080, Note Name: G#3, Velocity: 52
Note OFF: Time 78240, Note Name: G#3
Note ON: Time 78240, Note Name: F3, Velocity: 49
Note OFF: Time 78400, Note Name: F3
Note ON: Time 78400, Note Name: C#3, Velocity: 46
Note OFF: Time 78560, Note Name: C#3
Note ON: Time 78560, Note Name: G#2, Velocity: 41
Note OFF: Time 78720, Note Name: G#2
Note ON: Time 78720, Note Name: C#2, Velocity: 40
Note OFF: Time 78880, Note Name: C#2
Note ON: Time 78880, Note Name: G#2, Velocity: 41
Note OFF: Time 79040, Note Name: G#2
Note ON: Time 79040, Note Name: C#3, Velocity: 42
Note OFF: Time 79200, Note Name: C#3
Note ON: Time 79200, Note Name: F3, Velocity: 43
Note OFF: Time 79360, Note Name: F3
Note ON: Time 79360, Note Name: G#3, Velocity: 44
Note OFF: Time 79520, Note Name: G#3
Note ON: Time 79520, Note Name: C#4, Velocity: 45
Note OFF: Time 79680, Note Name: C#4
Note ON: Time 79680, Note Name: F4, Velocity: 45
Note OFF: Time 79840, Note Name: F4
Note ON: Time 79840, Note Name: C#4, Velocity: 45
Note OFF: Time 80000, Note Name: C#4
Note ON: Time 80000, Note Name: G#3, Velocity: 44
Note OFF: Time 80160, Note Name: G#3
Note ON: Time 80160, Note Name: F3, Velocity: 43
Note OFF: Time 80320, Note Name: F3
Note ON: Time 80320, Note Name: C#3, Velocity: 42
Note OFF: Time 80480, Note Name: C#3
Note ON: Time 80480, Note Name: G#2, Velocity: 41
Note ON: Time 80640, Note Name: C#2, Velocity: 25
Note OFF: Time 80800, Note Name: C#2
Note OFF: Time 80800, Note Name: G#2
Note ON: Time 80800, Note Name: G#3, Velocity: 26
Note OFF: Time 80960, Note Name: G#3
Note ON: Time 80960, Note Name: C4, Velocity: 27
Note OFF: Time 81120, Note Name: C4
Note ON: Time 81120, Note Name: D#4, Velocity: 28
Note OFF: Time 81280, Note Name: D#4
Note ON: Time 81280, Note Name: C4, Velocity: 28
Note OFF: Time 81440, Note Name: C4
Note ON: Time 81440, Note Name: G#3, Velocity: 27
Note OFF: Time 81600, Note Name: G#3
Note ON: Time 81600, Note Name: C#3, Velocity: 27
Note OFF: Time 81760, Note Name: C#3
Note ON: Time 81760, Note Name: G#3, Velocity: 27
Note OFF: Time 81920, Note Name: G#3
Note ON: Time 81920, Note Name: C4, Velocity: 28
Note OFF: Time 82080, Note Name: C4
Note ON: Time 82080, Note Name: F#4, Velocity: 28
Note OFF: Time 82240, Note Name: F#4
Note ON: Time 82240, Note Name: C4, Velocity: 27
Note OFF: Time 82400, Note Name: C4
Note ON: Time 82400, Note Name: G#3, Velocity: 26
Note OFF: Time 82560, Note Name: G#3
Note ON: Time 82560, Note Name: C#3, Velocity: 27
Note OFF: Time 82720, Note Name: C#3
Note ON: Time 82720, Note Name: G#3, Velocity: 28
Note OFF: Time 82880, Note Name: G#3
Note ON: Time 82880, Note Name: C#4, Velocity: 28
Note OFF: Time 83040, Note Name: C#4
Note ON: Time 83040, Note Name: F4, Velocity: 29
Note OFF: Time 83200, Note Name: F4
Note ON: Time 83200, Note Name: C#4, Velocity: 30
Note OFF: Time 83360, Note Name: C#4
Note ON: Time 83360, Note Name: G#3, Velocity: 28
Note OFF: Time 83520, Note Name: G#3
Note ON: Time 83520, Note Name: C#3, Velocity: 27
Note OFF: Time 83680, Note Name: C#3
Note ON: Time 83680, Note Name: G#3, Velocity: 28
Note OFF: Time 83840, Note Name: G#3
Note ON: Time 83840, Note Name: F4, Velocity: 29
Note OFF: Time 84000, Note Name: F4
Note ON: Time 84160, Note Name: F4, Velocity: 30
Note OFF: Time 84320, Note Name: F4
Note ON: Time 84320, Note Name: G#3, Velocity: 29
Note OFF: Time 84480, Note Name: G#3
Note ON: Time 84480, Note Name: F#4, Velocity: 30
Note OFF: Time 84640, Note Name: F#4
Note ON: Time 84640, Note Name: D#4, Velocity: 26
Note OFF: Time 84800, Note Name: D#4
Note ON: Time 84800, Note Name: G#3, Velocity: 26
Note OFF: Time 84960, Note Name: G#3
Note ON: Time 84960, Note Name: F4, Velocity: 30
Note OFF: Time 85120, Note Name: F4
Note ON: Time 85120, Note Name: C#4, Velocity: 26
Note OFF: Time 85280, Note Name: C#4
Note ON: Time 85280, Note Name: G#3, Velocity: 26
Note OFF: Time 85440, Note Name: G#3
Note ON: Time 85440, Note Name: D#4, Velocity: 30
Note OFF: Time 85600, Note Name: D#4
Note ON: Time 85600, Note Name: C4, Velocity: 23
Note OFF: Time 85760, Note Name: C4
Note ON: Time 85760, Note Name: G#3, Velocity: 23
Note OFF: Time 85920, Note Name: G#3
Note ON: Time 85920, Note Name: C#4, Velocity: 29
Note OFF: Time 86080, Note Name: C#4
Note ON: Time 86080, Note Name: G#3, Velocity: 24
Note OFF: Time 86240, Note Name: G#3
Note ON: Time 86240, Note Name: F3, Velocity: 24
Note OFF: Time 86400, Note Name: F3
Note ON: Time 86400, Note Name: G#2, Velocity: 26
Note OFF: Time 86560, Note Name: G#2
Note ON: Time 86560, Note Name: D#3, Velocity: 27
Note OFF: Time 86720, Note Name: D#3
Note ON: Time 86720, Note Name: G#3, Velocity: 27
Note OFF: Time 86880, Note Name: G#3
Note ON: Time 86880, Note Name: C4, Velocity: 28
Note OFF: Time 87040, Note Name: C4
Note ON: Time 87040, Note Name: G#3, Velocity: 27
Note OFF: Time 87200, Note Name: G#3
Note ON: Time 87200, Note Name: D#3, Velocity: 27
Note OFF: Time 87360, Note Name: D#3
Note ON: Time 87360, Note Name: F#2, Velocity: 27
Note OFF: Time 87520, Note Name: F#2
Note ON: Time 87520, Note Name: F#3, Velocity: 27
Note OFF: Time 87680, Note Name: F#3
Note ON: Time 87680, Note Name: A#3, Velocity: 28
Note OFF: Time 87840, Note Name: A#3
Note ON: Time 87840, Note Name: C#4, Velocity: 29
Note OFF: Time 88000, Note Name: C#4
Note ON: Time 88000, Note Name: A#3, Velocity: 28
Note OFF: Time 88160, Note Name: A#3
Note ON: Time 88160, Note Name: F#3, Velocity: 28
Note OFF: Time 88320, Note Name: F#3
Note ON: Time 88320, Note Name: A#2, Velocity: 27
Note OFF: Time 88480, Note Name: A#2
Note ON: Time 88480, Note Name: F3, Velocity: 27
Note OFF: Time 88640, Note Name: F3
Note ON: Time 88640, Note Name: A#3, Velocity: 28
Note OFF: Time 88800, Note Name: A#3
Note ON: Time 88800, Note Name: D4, Velocity: 28
Note OFF: Time 88960, Note Name: D4
Note ON: Time 88960, Note Name: A#3, Velocity: 28
Note OFF: Time 89120, Note Name: A#3
Note ON: Time 89120, Note Name: F3, Velocity: 27
Note OFF: Time 89280, Note Name: F3
Note ON: Time 89280, Note Name: A#2, Velocity: 28
Note OFF: Time 89440, Note Name: A#2
Note ON: Time 89440, Note Name: A#3, Velocity: 29
Note OFF: Time 89600, Note Name: A#3
Note ON: Time 89600, Note Name: D4, Velocity: 30
Note OFF: Time 89760, Note Name: D4
Note ON: Time 89760, Note Name: G#4, Velocity: 33
Note OFF: Time 89920, Note Name: G#4
Note ON: Time 89920, Note Name: D4, Velocity: 31
Note OFF: Time 90080, Note Name: D4
Note ON: Time 90080, Note Name: A#3, Velocity: 29
Note OFF: Time 90240, Note Name: A#3
Note ON: Time 90240, Note Name: D#3, Velocity: 34
Note OFF: Time 90400, Note Name: D#3
Note ON: Time 90400, Note Name: F#4, Velocity: 31
Note OFF: Time 90560, Note Name: F#4
Note ON: Time 90560, Note Name: A#3, Velocity: 28
Note OFF: Time 90720, Note Name: A#3
Note ON: Time 90720, Note Name: F3, Velocity: 32
Note OFF: Time 90880, Note Name: F3
Note ON: Time 90880, Note Name: F4, Velocity: 30
Note OFF: Time 91040, Note Name: F4
Note ON: Time 91040, Note Name: A3, Velocity: 28
Note OFF: Time 91200, Note Name: A3
Note ON: Time 91200, Note Name: F#3, Velocity: 31
Note OFF: Time 91360, Note Name: F#3
Note ON: Time 91360, Note Name: D#4, Velocity: 28
Note OFF: Time 91520, Note Name: D#4
Note ON: Time 91520, Note Name: A#3, Velocity: 29
Note OFF: Time 91680, Note Name: A#3
Note ON: Time 91680, Note Name: G#3, Velocity: 30
Note OFF: Time 91840, Note Name: G#3
Note ON: Time 91840, Note Name: F#4, Velocity: 27
Note OFF: Time 92000, Note Name: F#4
Note ON: Time 92000, Note Name: C4, Velocity: 27
Note OFF: Time 92160, Note Name: C4
Note ON: Time 92160, Note Name: C#3, Velocity: 25
Note OFF: Time 92320, Note Name: C#3
Note ON: Time 92320, Note Name: G#3, Velocity: 27
Note OFF: Time 92480, Note Name: G#3
Note ON: Time 92480, Note Name: C#4, Velocity: 29
Note OFF: Time 92640, Note Name: C#4
Note ON: Time 92640, Note Name: F4, Velocity: 30
Note OFF: Time 92800, Note Name: F4
Note ON: Time 92800, Note Name: C#4, Velocity: 29
Note OFF: Time 92960, Note Name: C#4
Note ON: Time 92960, Note Name: G#3, Velocity: 27
Note OFF: Time 93120, Note Name: G#3
Note ON: Time 93120, Note Name: D#3, Velocity: 27
Note OFF: Time 93280, Note Name: D#3
Note ON: Time 93280, Note Name: G3, Velocity: 28
Note OFF: Time 93440, Note Name: G3
Note ON: Time 93440, Note Name: C#4, Velocity: 29
Note OFF: Time 93600, Note Name: C#4
Note ON: Time 93600, Note Name: D#4, Velocity: 30
Note OFF: Time 93760, Note Name: D#4
Note ON: Time 93760, Note Name: C#4, Velocity: 29
Note OFF: Time 93920, Note Name: C#4
Note ON: Time 93920, Note Name: G3, Velocity: 27
Note OFF: Time 94080, Note Name: G3
Note ON: Time 94080, Note Name: G#2, Velocity: 23
Note OFF: Time 94240, Note Name: G#2
Note ON: Time 94240, Note Name: D#3, Velocity: 25
Note OFF: Time 94400, Note Name: D#3
Note ON: Time 94400, Note Name: G#3, Velocity: 27
Note OFF: Time 94560, Note Name: G#3
Note ON: Time 94560, Note Name: C4, Velocity: 28
Note OFF: Time 94720, Note Name: C4
Note ON: Time 94720, Note Name: G#3, Velocity: 27
Note OFF: Time 94880, Note Name: G#3
Note ON: Time 94880, Note Name: D#3, Velocity: 27
Note OFF: Time 95040, Note Name: D#3
Note ON: Time 95040, Note Name: G#2, Velocity: 25
Note OFF: Time 95200, Note Name: G#2
Note ON: Time 95200, Note Name: D#3, Velocity: 25
Note OFF: Time 95360, Note Name: D#3
Note ON: Time 95360, Note Name: F#3, Velocity: 27
Note OFF: Time 95520, Note Name: F#3
Note ON: Time 95520, Note Name: A#3, Velocity: 28
Note OFF: Time 95680, Note Name: A#3
Note ON: Time 95680, Note Name: F#3, Velocity: 26
Note OFF: Time 95840, Note Name: F#3
Note ON: Time 95840, Note Name: D#3, Velocity: 25
Note OFF: Time 96000, Note Name: D#3
Note ON: Time 96000, Note Name: G#2, Velocity: 24
Note OFF: Time 96160, Note Name: G#2
Note ON: Time 96160, Note Name: D#3, Velocity: 26
Note OFF: Time 96320, Note Name: D#3
Note ON: Time 96320, Note Name: G#3, Velocity: 27
Note OFF: Time 96480, Note Name: G#3
Note ON: Time 96480, Note Name: C4, Velocity: 28
Note OFF: Time 96640, Note Name: C4
Note ON: Time 96640, Note Name: G#3, Velocity: 28
Note OFF: Time 96800, Note Name: G#3
Note ON: Time 96800, Note Name: D#3, Velocity: 27
Note OFF: Time 96960, Note Name: D#3
Note ON: Time 96960, Note Name: G#2, Velocity: 27
Note OFF: Time 97120, Note Name: G#2
Note ON: Time 97120, Note Name: G#3, Velocity: 27
Note OFF: Time 97280, Note Name: G#3
Note ON: Time 97280, Note Name: C4, Velocity: 28
Note OFF: Time 97440, Note Name: C4
Note ON: Time 97440, Note Name: F#4, Velocity: 28
Note OFF: Time 97600, Note Name: F#4
Note ON: Time 97600, Note Name: C4, Velocity: 27
Note OFF: Time 97760, Note Name: C4
Note ON: Time 97760, Note Name: A#3, Velocity: 26
Note OFF: Time 97920, Note Name: A#3
Note ON: Time 97920, Note Name: C#3, Velocity: 27
Note OFF: Time 98080, Note Name: C#3
Note ON: Time 98080, Note Name: G#3, Velocity: 28
Note OFF: Time 98240, Note Name: G#3
Note ON: Time 98240, Note Name: C#4, Velocity: 28
Note OFF: Time 98400, Note Name: C#4
Note ON: Time 98400, Note Name: F4, Velocity: 29
Note OFF: Time 98560, Note Name: F4
Note ON: Time 98560, Note Name: C#4, Velocity: 30
Note OFF: Time 98720, Note Name: C#4
Note ON: Time 98720, Note Name: G#3, Velocity: 28
Note OFF: Time 98880, Note Name: G#3
Note ON: Time 98880, Note Name: C#3, Velocity: 27
Note OFF: Time 99040, Note Name: C#3
Note ON: Time 99040, Note Name: G#3, Velocity: 28
Note OFF: Time 99200, Note Name: G#3
Note ON: Time 99200, Note Name: F4, Velocity: 29
Note OFF: Time 99360, Note Name: F4
Note ON: Time 99520, Note Name: F4, Velocity: 30
Note OFF: Time 99680, Note Name: F4
Note ON: Time 99680, Note Name: G#3, Velocity: 29
Note OFF: Time 99840, Note Name: G#3
Note ON: Time 99840, Note Name: F#4, Velocity: 30
Note OFF: Time 100000, Note Name: F#4
Note ON: Time 100000, Note Name: D#4, Velocity: 26
Note OFF: Time 100160, Note Name: D#4
Note ON: Time 100160, Note Name: G#3, Velocity: 26
Note OFF: Time 100320, Note Name: G#3
Note ON: Time 100320, Note Name: F4, Velocity: 30
Note OFF: Time 100480, Note Name: F4
Note ON: Time 100480, Note Name: C#4, Velocity: 26
Note OFF: Time 100640, Note Name: C#4
Note ON: Time 100640, Note Name: G#3, Velocity: 26
Note OFF: Time 100800, Note Name: G#3
Note ON: Time 100800, Note Name: D#4, Velocity: 30
Note OFF: Time 100960, Note Name: D#4
Note ON: Time 100960, Note Name: C4, Velocity: 23
Note OFF: Time 101120, Note Name: C4
Note ON: Time 101120, Note Name: G#3, Velocity: 23
Note OFF: Time 101280, Note Name: G#3
Note ON: Time 101280, Note Name: C#4, Velocity: 29
Note OFF: Time 101440, Note Name: C#4
Note ON: Time 101440, Note Name: G#3, Velocity: 24
Note OFF: Time 101600, Note Name: G#3
Note ON: Time 101600, Note Name: F3, Velocity: 24
Note OFF: Time 101760, Note Name: F3
Note ON: Time 101760, Note Name: G#2, Velocity: 26
Note OFF: Time 101920, Note Name: G#2
Note ON: Time 101920, Note Name: D#3, Velocity: 27
Note OFF: Time 102080, Note Name: D#3
Note ON: Time 102080, Note Name: G#3, Velocity: 27
Note OFF: Time 102240, Note Name: G#3
Note ON: Time 102240, Note Name: C4, Velocity: 28
Note OFF: Time 102400, Note Name: C4
Note ON: Time 102400, Note Name: G#3, Velocity: 27
Note OFF: Time 102560, Note Name: G#3
Note ON: Time 102560, Note Name: D#3, Velocity: 27
Note OFF: Time 102720, Note Name: D#3
Note ON: Time 102720, Note Name: F#2, Velocity: 27
Note OFF: Time 102880, Note Name: F#2
Note ON: Time 102880, Note Name: F#3, Velocity: 27
Note OFF: Time 103040, Note Name: F#3
Note ON: Time 103040, Note Name: A#3, Velocity: 28
Note OFF: Time 103200, Note Name: A#3
Note ON: Time 103200, Note Name: C#4, Velocity: 29
Note OFF: Time 103360, Note Name: C#4
Note ON: Time 103360, Note Name: A#3, Velocity: 28
Note OFF: Time 103520, Note Name: A#3
Note ON: Time 103520, Note Name: F#3, Velocity: 28
Note OFF: Time 103680, Note Name: F#3
Note ON: Time 103680, Note Name: A#2, Velocity: 27
Note OFF: Time 103840, Note Name: A#2
Note ON: Time 103840, Note Name: F3, Velocity: 27
Note OFF: Time 104000, Note Name: F3
Note ON: Time 104000, Note Name: A#3, Velocity: 28
Note OFF: Time 104160, Note Name: A#3
Note ON: Time 104160, Note Name: D4, Velocity: 28
Note OFF: Time 104320, Note Name: D4
Note ON: Time 104320, Note Name: A#3, Velocity: 28
Note OFF: Time 104480, Note Name: A#3
Note ON: Time 104480, Note Name: F3, Velocity: 27
Note OFF: Time 104640, Note Name: F3
Note ON: Time 104640, Note Name: A#2, Velocity: 28
Note OFF: Time 104800, Note Name: A#2
Note ON: Time 104800, Note Name: A#3, Velocity: 29
Note OFF: Time 104960, Note Name: A#3
Note ON: Time 104960, Note Name: D4, Velocity: 30
Note OFF: Time 105120, Note Name: D4
Note ON: Time 105120, Note Name: G#4, Velocity: 33
Note OFF: Time 105280, Note Name: G#4
Note ON: Time 105280, Note Name: D4, Velocity: 31
Note OFF: Time 105440, Note Name: D4
Note ON: Time 105440, Note Name: A#3, Velocity: 29
Note OFF: Time 105600, Note Name: A#3
Note ON: Time 105600, Note Name: D#3, Velocity: 34
Note OFF: Time 105760, Note Name: D#3
Note ON: Time 105760, Note Name: F#4, Velocity: 31
Note OFF: Time 105920, Note Name: F#4
Note ON: Time 105920, Note Name: A#3, Velocity: 28
Note OFF: Time 106080, Note Name: A#3
Note ON: Time 106080, Note Name: F3, Velocity: 32
Note OFF: Time 106240, Note Name: F3
Note ON: Time 106240, Note Name: F4, Velocity: 30
Note OFF: Time 106400, Note Name: F4
Note ON: Time 106400, Note Name: A3, Velocity: 28
Note OFF: Time 106560, Note Name: A3
Note ON: Time 106560, Note Name: F#3, Velocity: 31
Note OFF: Time 106720, Note Name: F#3
Note ON: Time 106720, Note Name: D#4, Velocity: 28
Note OFF: Time 106880, Note Name: D#4
Note ON: Time 106880, Note Name: A#3, Velocity: 29
Note OFF: Time 107040, Note Name: A#3
Note ON: Time 107040, Note Name: G#3, Velocity: 30
Note OFF: Time 107200, Note Name: G#3
Note ON: Time 107200, Note Name: F#4, Velocity: 27
Note OFF: Time 107360, Note Name: F#4
Note ON: Time 107360, Note Name: C4, Velocity: 27
Note OFF: Time 107520, Note Name: C4
Note ON: Time 107520, Note Name: C#3, Velocity: 25
Note OFF: Time 107680, Note Name: C#3
Note ON: Time 107680, Note Name: G#3, Velocity: 27
Note OFF: Time 107840, Note Name: G#3
Note ON: Time 107840, Note Name: C#4, Velocity: 29
Note OFF: Time 108000, Note Name: C#4
Note ON: Time 108000, Note Name: F4, Velocity: 30
Note OFF: Time 108160, Note Name: F4
Note ON: Time 108160, Note Name: C#4, Velocity: 29
Note OFF: Time 108320, Note Name: C#4
Note ON: Time 108320, Note Name: G#3, Velocity: 27
Note OFF: Time 108480, Note Name: G#3
Note ON: Time 108480, Note Name: C#3, Velocity: 27
Note OFF: Time 108640, Note Name: C#3
Note ON: Time 108640, Note Name: G#3, Velocity: 28
Note OFF: Time 108800, Note Name: G#3
Note ON: Time 108800, Note Name: C4, Velocity: 29
Note OFF: Time 108960, Note Name: C4
Note ON: Time 108960, Note Name: F#4, Velocity: 30
Note OFF: Time 109120, Note Name: F#4
Note ON: Time 109120, Note Name: C4, Velocity: 29
Note OFF: Time 109280, Note Name: C4
Note ON: Time 109280, Note Name: G#3, Velocity: 27
Note OFF: Time 109440, Note Name: G#3
Note ON: Time 109440, Note Name: C#3, Velocity: 27
Note OFF: Time 109600, Note Name: C#3
Note ON: Time 109600, Note Name: G#3, Velocity: 28
Note OFF: Time 109760, Note Name: G#3
Note ON: Time 109760, Note Name: C4, Velocity: 30
Note OFF: Time 109920, Note Name: C4
Note ON: Time 109920, Note Name: F#4, Velocity: 31
Note OFF: Time 110080, Note Name: F#4
Note ON: Time 110080, Note Name: C4, Velocity: 30
Note OFF: Time 110240, Note Name: C4
Note ON: Time 110240, Note Name: G#3, Velocity: 28
Note OFF: Time 110400, Note Name: G#3
Note ON: Time 110400, Note Name: C#3, Velocity: 27
Note OFF: Time 110560, Note Name: C#3
Note ON: Time 110560, Note Name: G#3, Velocity: 27
Note OFF: Time 110720, Note Name: G#3
Note ON: Time 110720, Note Name: C#4, Velocity: 28
Note OFF: Time 110880, Note Name: C#4
Note ON: Time 110880, Note Name: F4, Velocity: 30
Note OFF: Time 111040, Note Name: F4
Note ON: Time 111040, Note Name: C#4, Velocity: 28
Note OFF: Time 111200, Note Name: C#4
Note ON: Time 111200, Note Name: G#3, Velocity: 27
Note OFF: Time 111360, Note Name: G#3
Note ON: Time 111360, Note Name: G#2, Velocity: 34
Note OFF: Time 111520, Note Name: G#2
Note ON: Time 111520, Note Name: D#3, Velocity: 33
Note OFF: Time 111680, Note Name: D#3
Note ON: Time 111680, Note Name: G#3, Velocity: 34
Note OFF: Time 111840, Note Name: G#3
Note ON: Time 111840, Note Name: C4, Velocity: 34
Note OFF: Time 112000, Note Name: C4
Note ON: Time 112000, Note Name: G#3, Velocity: 33
Note OFF: Time 112160, Note Name: G#3
Note ON: Time 112160, Note Name: D#3, Velocity: 32
Note OFF: Time 112320, Note Name: D#3
Note ON: Time 112320, Note Name: G#2, Velocity: 31
Note OFF: Time 112480, Note Name: G#2
Note ON: Time 112480, Note Name: D#3, Velocity: 33
Note OFF: Time 112640, Note Name: D#3
Note ON: Time 112640, Note Name: G3, Velocity: 34
Note OFF: Time 112800, Note Name: G3
Note ON: Time 112800, Note Name: C#4, Velocity: 34
Note OFF: Time 112960, Note Name: C#4
Note ON: Time 112960, Note Name: G3, Velocity: 33
Note OFF: Time 113120, Note Name: G3
Note ON: Time 113120, Note Name: D#3, Velocity: 30
Note OFF: Time 113280, Note Name: D#3
Note ON: Time 113280, Note Name: G#2, Velocity: 36
Note OFF: Time 113440, Note Name: G#2
Note ON: Time 113440, Note Name: D#3, Velocity: 30
Note OFF: Time 113600, Note Name: D#3
Note ON: Time 113600, Note Name: G#3, Velocity: 32
Note OFF: Time 113760, Note Name: G#3
Note ON: Time 113760, Note Name: C4, Velocity: 33
Note OFF: Time 113920, Note Name: C4
Note ON: Time 113920, Note Name: G#3, Velocity: 32
Note OFF: Time 114080, Note Name: G#3
Note ON: Time 114080, Note Name: D#3, Velocity: 30
Note OFF: Time 114240, Note Name: D#3
Note ON: Time 114240, Note Name: C#3, Velocity: 27
Note OFF: Time 114400, Note Name: C#3
Note ON: Time 114400, Note Name: G#3, Velocity: 29
Note OFF: Time 114560, Note Name: G#3
Note ON: Time 114560, Note Name: C#4, Velocity: 30
Note OFF: Time 114720, Note Name: C#4
Note ON: Time 114720, Note Name: E4, Velocity: 31
Note OFF: Time 114880, Note Name: E4
Note ON: Time 114880, Note Name: C#4, Velocity: 30
Note OFF: Time 115040, Note Name: C#4
Note ON: Time 115040, Note Name: G#3, Velocity: 29
Note OFF: Time 115200, Note Name: G#3
Note ON: Time 115200, Note Name: D#2, Velocity: 34
Note OFF: Time 115360, Note Name: D#2
Note ON: Time 115360, Note Name: D#3, Velocity: 33
Note OFF: Time 115520, Note Name: D#3
Note ON: Time 115520, Note Name: G#3, Velocity: 34
Note OFF: Time 115680, Note Name: G#3
Note ON: Time 115680, Note Name: C4, Velocity: 34
Note OFF: Time 115840, Note Name: C4
Note ON: Time 115840, Note Name: G#3, Velocity: 33
Note OFF: Time 116000, Note Name: G#3
Note ON: Time 116000, Note Name: D#3, Velocity: 32
Note OFF: Time 116160, Note Name: D#3
Note ON: Time 116160, Note Name: D#2, Velocity: 31
Note OFF: Time 116320, Note Name: D#2
Note ON: Time 116320, Note Name: D#3, Velocity: 33
Note OFF: Time 116480, Note Name: D#3
Note ON: Time 116480, Note Name: G3, Velocity: 34
Note OFF: Time 116640, Note Name: G3
Note ON: Time 116640, Note Name: C#4, Velocity: 34
Note OFF: Time 116800, Note Name: C#4
Note ON: Time 116800, Note Name: G3, Velocity: 33
Note OFF: Time 116960, Note Name: G3
Note ON: Time 116960, Note Name: D#3, Velocity: 30
Note OFF: Time 117120, Note Name: D#3
Note ON: Time 117120, Note Name: G#2, Velocity: 34
Note OFF: Time 117280, Note Name: G#2
Note ON: Time 117280, Note Name: D#3, Velocity: 30
Note OFF: Time 117440, Note Name: D#3
Note ON: Time 117440, Note Name: G#3, Velocity: 32
Note OFF: Time 117600, Note Name: G#3
Note ON: Time 117600, Note Name: C4, Velocity: 33
Note OFF: Time 117760, Note Name: C4
Note ON: Time 117760, Note Name: G#3, Velocity: 32
Note OFF: Time 117920, Note Name: G#3
Note ON: Time 117920, Note Name: D#3, Velocity: 30
Note OFF: Time 118080, Note Name: D#3
Note ON: Time 118080, Note Name: F#2, Velocity: 19
Note OFF: Time 118240, Note Name: F#2
Note ON: Time 118240, Note Name: F#3, Velocity: 20
Note OFF: Time 118400, Note Name: F#3
Note ON: Time 118400, Note Name: A#3, Velocity: 22
Note OFF: Time 118560, Note Name: A#3
Note ON: Time 118560, Note Name: C#4, Velocity: 22
Note OFF: Time 118720, Note Name: C#4
Note ON: Time 118720, Note Name: A#3, Velocity: 20
Note OFF: Time 118880, Note Name: A#3
Note ON: Time 118880, Note Name: F#3, Velocity: 20
Note OFF: Time 119040, Note Name: F#3
Note ON: Time 119040, Note Name: G#2, Velocity: 21
Note OFF: Time 119200, Note Name: G#2
Note ON: Time 119200, Note Name: G#3, Velocity: 22
Note OFF: Time 119360, Note Name: G#3
Note ON: Time 119360, Note Name: C4, Velocity: 22
Note OFF: Time 119520, Note Name: C4
Note ON: Time 119520, Note Name: D#4, Velocity: 23
Note OFF: Time 119680, Note Name: D#4
Note ON: Time 119680, Note Name: C4, Velocity: 23
Note OFF: Time 119840, Note Name: C4
Note ON: Time 119840, Note Name: G#3, Velocity: 22
Note OFF: Time 120000, Note Name: G#3
Note ON: Time 120000, Note Name: C#3, Velocity: 22
Note OFF: Time 120160, Note Name: C#3
Note ON: Time 120160, Note Name: G#3, Velocity: 23
Note OFF: Time 120320, Note Name: G#3
Note ON: Time 120320, Note Name: C4, Velocity: 25
Note OFF: Time 120480, Note Name: C4
Note ON: Time 120480, Note Name: F#4, Velocity: 27
Note OFF: Time 120640, Note Name: F#4
Note ON: Time 120640, Note Name: C4, Velocity: 26
Note OFF: Time 120800, Note Name: C4
Note ON: Time 120800, Note Name: G#3, Velocity: 25
Note OFF: Time 120960, Note Name: G#3
Note ON: Time 120960, Note Name: C#3, Velocity: 27
Note OFF: Time 121120, Note Name: C#3
Note ON: Time 121120, Note Name: G#3, Velocity: 28
Note OFF: Time 121280, Note Name: G#3
Note ON: Time 121280, Note Name: C#4, Velocity: 28
Note OFF: Time 121440, Note Name: C#4
Note ON: Time 121440, Note Name: F4, Velocity: 29
Note OFF: Time 121600, Note Name: F4
Note ON: Time 121600, Note Name: C#4, Velocity: 30
Note OFF: Time 121760, Note Name: C#4
Note ON: Time 121760, Note Name: G#3, Velocity: 28
Note OFF: Time 121920, Note Name: G#3
Note ON: Time 121920, Note Name: C#3, Velocity: 27
Note OFF: Time 122080, Note Name: C#3
Note ON: Time 122080, Note Name: G#3, Velocity: 28
Note OFF: Time 122240, Note Name: G#3
Note ON: Time 122240, Note Name: F4, Velocity: 29
Note OFF: Time 122400, Note Name: F4
Note ON: Time 122560, Note Name: F4, Velocity: 30
Note OFF: Time 122720, Note Name: F4
Note ON: Time 122720, Note Name: G#3, Velocity: 29
Note OFF: Time 122880, Note Name: G#3
Note ON: Time 122880, Note Name: F#4, Velocity: 30
Note OFF: Time 123040, Note Name: F#4
Note ON: Time 123040, Note Name: D#4, Velocity: 26
Note OFF: Time 123200, Note Name: D#4
Note ON: Time 123200, Note Name: G#3, Velocity: 26
Note OFF: Time 123360, Note Name: G#3
Note ON: Time 123360, Note Name: F4, Velocity: 30
Note OFF: Time 123520, Note Name: F4
Note ON: Time 123520, Note Name: C#4, Velocity: 26
Note OFF: Time 123680, Note Name: C#4
Note ON: Time 123680, Note Name: G#3, Velocity: 26
Note OFF: Time 123840, Note Name: G#3
Note ON: Time 123840, Note Name: D#4, Velocity: 30
Note OFF: Time 124000, Note Name: D#4
Note ON: Time 124000, Note Name: C4, Velocity: 23
Note OFF: Time 124160, Note Name: C4
Note ON: Time 124160, Note Name: G#3, Velocity: 23
Note OFF: Time 124320, Note Name: G#3
Note ON: Time 124320, Note Name: C#4, Velocity: 29
Note OFF: Time 124480, Note Name: C#4
Note ON: Time 124480, Note Name: G#3, Velocity: 24
Note OFF: Time 124640, Note Name: G#3
Note ON: Time 124640, Note Name: F3, Velocity: 24
Note OFF: Time 124800, Note Name: F3
Note ON: Time 124800, Note Name: G#2, Velocity: 26
Note OFF: Time 124960, Note Name: G#2
Note ON: Time 124960, Note Name: D#3, Velocity: 27
Note OFF: Time 125120, Note Name: D#3
Note ON: Time 125120, Note Name: G#3, Velocity: 27
Note OFF: Time 125280, Note Name: G#3
Note ON: Time 125280, Note Name: C4, Velocity: 28
Note OFF: Time 125440, Note Name: C4
Note ON: Time 125440, Note Name: G#3, Velocity: 27
Note OFF: Time 125600, Note Name: G#3
Note ON: Time 125600, Note Name: D#3, Velocity: 27
Note OFF: Time 125760, Note Name: D#3
Note ON: Time 125760, Note Name: F#2, Velocity: 27
Note OFF: Time 125920, Note Name: F#2
Note ON: Time 125920, Note Name: F#3, Velocity: 27
Note OFF: Time 126080, Note Name: F#3
Note ON: Time 126080, Note Name: A#3, Velocity: 28
Note OFF: Time 126240, Note Name: A#3
Note ON: Time 126240, Note Name: C#4, Velocity: 29
Note OFF: Time 126400, Note Name: C#4
Note ON: Time 126400, Note Name: A#3, Velocity: 28
Note OFF: Time 126560, Note Name: A#3
Note ON: Time 126560, Note Name: F#3, Velocity: 28
Note OFF: Time 126720, Note Name: F#3
Note ON: Time 126720, Note Name: A#2, Velocity: 27
Note OFF: Time 126880, Note Name: A#2
Note ON: Time 126880, Note Name: F3, Velocity: 27
Note OFF: Time 127040, Note Name: F3
Note ON: Time 127040, Note Name: A#3, Velocity: 28
Note OFF: Time 127200, Note Name: A#3
Note ON: Time 127200, Note Name: D4, Velocity: 28
Note OFF: Time 127360, Note Name: D4
Note ON: Time 127360, Note Name: A#3, Velocity: 28
Note OFF: Time 127520, Note Name: A#3
Note ON: Time 127520, Note Name: F3, Velocity: 27
Note OFF: Time 127680, Note Name: F3
Note ON: Time 127680, Note Name: A#2, Velocity: 28
Note OFF: Time 127840, Note Name: A#2
Note ON: Time 127840, Note Name: A#3, Velocity: 29
Note OFF: Time 128000, Note Name: A#3
Note ON: Time 128000, Note Name: D4, Velocity: 30
Note OFF: Time 128160, Note Name: D4
Note ON: Time 128160, Note Name: G#4, Velocity: 33
Note OFF: Time 128320, Note Name: G#4
Note ON: Time 128320, Note Name: D4, Velocity: 31
Note OFF: Time 128480, Note Name: D4
Note ON: Time 128480, Note Name: A#3, Velocity: 29
Note OFF: Time 128640, Note Name: A#3
Note ON: Time 128640, Note Name: D#3, Velocity: 34
Note OFF: Time 128800, Note Name: D#3
Note ON: Time 128800, Note Name: F#4, Velocity: 31
Note OFF: Time 128960, Note Name: F#4
Note ON: Time 128960, Note Name: A#3, Velocity: 28
Note OFF: Time 129120, Note Name: A#3
Note ON: Time 129120, Note Name: F3, Velocity: 32
Note OFF: Time 129280, Note Name: F3
Note ON: Time 129280, Note Name: F4, Velocity: 30
Note OFF: Time 129440, Note Name: F4
Note ON: Time 129440, Note Name: A3, Velocity: 28
Note OFF: Time 129600, Note Name: A3
Note ON: Time 129600, Note Name: F#3, Velocity: 31
Note OFF: Time 129760, Note Name: F#3
Note ON: Time 129760, Note Name: D#4, Velocity: 28
Note OFF: Time 129920, Note Name: D#4
Note ON: Time 129920, Note Name: A#3, Velocity: 29
Note OFF: Time 130080, Note Name: A#3
Note ON: Time 130080, Note Name: G#3, Velocity: 30
Note OFF: Time 130240, Note Name: G#3
Note ON: Time 130240, Note Name: F#4, Velocity: 27
Note OFF: Time 130400, Note Name: F#4
Note ON: Time 130400, Note Name: C4, Velocity: 27
Note OFF: Time 130560, Note Name: C4
Note ON: Time 130560, Note Name: C#3, Velocity: 25
Note OFF: Time 130720, Note Name: C#3
Note ON: Time 130720, Note Name: G#3, Velocity: 27
Note OFF: Time 130880, Note Name: G#3
Note ON: Time 130880, Note Name: C#4, Velocity: 29
Note OFF: Time 131040, Note Name: C#4
Note ON: Time 131040, Note Name: F4, Velocity: 30
Note OFF: Time 131200, Note Name: F4
Note ON: Time 131200, Note Name: C#4, Velocity: 29
Note OFF: Time 131360, Note Name: C#4
Note ON: Time 131360, Note Name: G#3, Velocity: 27
Note OFF: Time 131520, Note Name: G#3
Note ON: Time 131520, Note Name: C#3, Velocity: 27
Note OFF: Time 131680, Note Name: C#3
Note ON: Time 131680, Note Name: G#3, Velocity: 28
Note OFF: Time 131840, Note Name: G#3
Note ON: Time 131840, Note Name: C4, Velocity: 29
Note OFF: Time 132000, Note Name: C4
Note ON: Time 132000, Note Name: F#4, Velocity: 30
Note OFF: Time 132160, Note Name: F#4
Note ON: Time 132160, Note Name: C4, Velocity: 29
Note OFF: Time 132320, Note Name: C4
Note ON: Time 132320, Note Name: G#3, Velocity: 27
Note OFF: Time 132480, Note Name: G#3
Note ON: Time 132480, Note Name: C#3, Velocity: 27
Note OFF: Time 132640, Note Name: C#3
Note ON: Time 132640, Note Name: G#3, Velocity: 28
Note OFF: Time 132800, Note Name: G#3
Note ON: Time 132800, Note Name: C4, Velocity: 30
Note OFF: Time 132960, Note Name: C4
Note ON: Time 132960, Note Name: F#4, Velocity: 31
Note OFF: Time 133120, Note Name: F#4
Note ON: Time 133120, Note Name: C4, Velocity: 30
Note OFF: Time 133280, Note Name: C4
Note ON: Time 133280, Note Name: G#3, Velocity: 28
Note OFF: Time 133440, Note Name: G#3
Note ON: Time 133440, Note Name: C#3, Velocity: 27
Note OFF: Time 133600, Note Name: C#3
Note ON: Time 133600, Note Name: G#3, Velocity: 27
Note OFF: Time 133760, Note Name: G#3
Note ON: Time 133760, Note Name: C#4, Velocity: 28
Note OFF: Time 133920, Note Name: C#4
Note ON: Time 133920, Note Name: F4, Velocity: 30
Note OFF: Time 134080, Note Name: F4
Note ON: Time 134080, Note Name: C#4, Velocity: 28
Note OFF: Time 134240, Note Name: C#4
Note ON: Time 134240, Note Name: G#3, Velocity: 27
Note OFF: Time 134400, Note Name: G#3
Note ON: Time 134400, Note Name: G#2, Velocity: 34
Note OFF: Time 134560, Note Name: G#2
Note ON: Time 134560, Note Name: D#3, Velocity: 33
Note OFF: Time 134720, Note Name: D#3
Note ON: Time 134720, Note Name: G#3, Velocity: 34
Note OFF: Time 134880, Note Name: G#3
Note ON: Time 134880, Note Name: C4, Velocity: 34
Note OFF: Time 135040, Note Name: C4
Note ON: Time 135040, Note Name: G#3, Velocity: 33
Note OFF: Time 135200, Note Name: G#3
Note ON: Time 135200, Note Name: D#3, Velocity: 32
Note OFF: Time 135360, Note Name: D#3
Note ON: Time 135360, Note Name: G#2, Velocity: 31
Note OFF: Time 135520, Note Name: G#2
Note ON: Time 135520, Note Name: D#3, Velocity: 33
Note OFF: Time 135680, Note Name: D#3
Note ON: Time 135680, Note Name: G3, Velocity: 34
Note OFF: Time 135840, Note Name: G3
Note ON: Time 135840, Note Name: C#4, Velocity: 34
Note OFF: Time 136000, Note Name: C#4
Note ON: Time 136000, Note Name: G3, Velocity: 33
Note OFF: Time 136160, Note Name: G3
Note ON: Time 136160, Note Name: D#3, Velocity: 30
Note OFF: Time 136320, Note Name: D#3
Note ON: Time 136320, Note Name: G#2, Velocity: 36
Note OFF: Time 136480, Note Name: G#2
Note ON: Time 136480, Note Name: D#3, Velocity: 30
Note OFF: Time 136640, Note Name: D#3
Note ON: Time 136640, Note Name: G#3, Velocity: 32
Note OFF: Time 136800, Note Name: G#3
Note ON: Time 136800, Note Name: C4, Velocity: 33
Note OFF: Time 136960, Note Name: C4
Note ON: Time 136960, Note Name: G#3, Velocity: 32
Note OFF: Time 137120, Note Name: G#3
Note ON: Time 137120, Note Name: D#3, Velocity: 30
Note OFF: Time 137280, Note Name: D#3
Note ON: Time 137280, Note Name: C#3, Velocity: 27
Note OFF: Time 137440, Note Name: C#3
Note ON: Time 137440, Note Name: G#3, Velocity: 29
Note OFF: Time 137600, Note Name: G#3
Note ON: Time 137600, Note Name: C#4, Velocity: 30
Note OFF: Time 137760, Note Name: C#4
Note ON: Time 137760, Note Name: E4, Velocity: 31
Note OFF: Time 137920, Note Name: E4
Note ON: Time 137920, Note Name: C#4, Velocity: 30
Note OFF: Time 138080, Note Name: C#4
Note ON: Time 138080, Note Name: G#3, Velocity: 29
Note OFF: Time 138240, Note Name: G#3
Note ON: Time 138240, Note Name: D#2, Velocity: 34
Note OFF: Time 138400, Note Name: D#2
Note ON: Time 138400, Note Name: D#3, Velocity: 33
Note OFF: Time 138560, Note Name: D#3
Note ON: Time 138560, Note Name: G#3, Velocity: 34
Note OFF: Time 138720, Note Name: G#3
Note ON: Time 138720, Note Name: C4, Velocity: 34
Note OFF: Time 138880, Note Name: C4
Note ON: Time 138880, Note Name: G#3, Velocity: 33
Note OFF: Time 139040, Note Name: G#3
Note ON: Time 139040, Note Name: D#3, Velocity: 32
Note OFF: Time 139200, Note Name: D#3
Note ON: Time 139200, Note Name: D#2, Velocity: 31
Note OFF: Time 139360, Note Name: D#2
Note ON: Time 139360, Note Name: D#3, Velocity: 33
Note OFF: Time 139520, Note Name: D#3
Note ON: Time 139520, Note Name: G3, Velocity: 34
Note OFF: Time 139680, Note Name: G3
Note ON: Time 139680, Note Name: C#4, Velocity: 34
Note OFF: Time 139840, Note Name: C#4
Note ON: Time 139840, Note Name: G3, Velocity: 33
Note OFF: Time 140000, Note Name: G3
Note ON: Time 140000, Note Name: D#3, Velocity: 30
Note OFF: Time 140160, Note Name: D#3
Note ON: Time 140160, Note Name: G#2, Velocity: 34
Note OFF: Time 140320, Note Name: G#2
Note ON: Time 140320, Note Name: D#3, Velocity: 30
Note OFF: Time 140480, Note Name: D#3
Note ON: Time 140480, Note Name: G#3, Velocity: 32
Note OFF: Time 140640, Note Name: G#3
Note ON: Time 140640, Note Name: C4, Velocity: 33
Note OFF: Time 140800, Note Name: C4
Note ON: Time 140800, Note Name: G#3, Velocity: 32
Note OFF: Time 140960, Note Name: G#3
Note ON: Time 140960, Note Name: D#3, Velocity: 30
Note OFF: Time 141120, Note Name: D#3
Note ON: Time 141120, Note Name: F#2, Velocity: 19
Note OFF: Time 141280, Note Name: F#2
Note ON: Time 141280, Note Name: F#3, Velocity: 20
Note OFF: Time 141440, Note Name: F#3
Note ON: Time 141440, Note Name: A#3, Velocity: 22
Note OFF: Time 141600, Note Name: A#3
Note ON: Time 141600, Note Name: C#4, Velocity: 22
Note OFF: Time 141760, Note Name: C#4
Note ON: Time 141760, Note Name: A#3, Velocity: 20
Note OFF: Time 141920, Note Name: A#3
Note ON: Time 141920, Note Name: F#3, Velocity: 20
Note OFF: Time 142080, Note Name: F#3
Note ON: Time 142080, Note Name: G#2, Velocity: 21
Note OFF: Time 142240, Note Name: G#2
Note ON: Time 142240, Note Name: D#3, Velocity: 22
Note OFF: Time 142400, Note Name: D#3
Note ON: Time 142400, Note Name: G#3, Velocity: 22
Note OFF: Time 142560, Note Name: G#3
Note ON: Time 142560, Note Name: C4, Velocity: 23
Note OFF: Time 142720, Note Name: C4
Note ON: Time 142720, Note Name: G#3, Velocity: 23
Note OFF: Time 142880, Note Name: G#3
Note ON: Time 142880, Note Name: D#3, Velocity: 22
Note OFF: Time 143040, Note Name: D#3
Note ON: Time 143040, Note Name: G#2, Velocity: 22
Note OFF: Time 143200, Note Name: G#2
Note ON: Time 143200, Note Name: G#3, Velocity: 23
Note OFF: Time 143360, Note Name: G#3
Note ON: Time 143360, Note Name: C4, Velocity: 25
Note OFF: Time 143520, Note Name: C4
Note ON: Time 143520, Note Name: F#4, Velocity: 27
Note OFF: Time 143680, Note Name: F#4
Note ON: Time 143680, Note Name: C4, Velocity: 26
Note OFF: Time 143840, Note Name: C4
Note ON: Time 143840, Note Name: A#3, Velocity: 25
Note OFF: Time 144000, Note Name: A#3
Note ON: Time 144000, Note Name: C#3, Velocity: 27
Note OFF: Time 144160, Note Name: C#3
Note ON: Time 144160, Note Name: G#3, Velocity: 28
Note OFF: Time 144320, Note Name: G#3
Note ON: Time 144320, Note Name: C#4, Velocity: 28
Note OFF: Time 144480, Note Name: C#4
Note ON: Time 144480, Note Name: F4, Velocity: 29
Note OFF: Time 144640, Note Name: F4
Note ON: Time 144640, Note Name: C#4, Velocity: 30
Note OFF: Time 144800, Note Name: C#4
Note ON: Time 144800, Note Name: G#3, Velocity: 28
Note OFF: Time 144960, Note Name: G#3
Note ON: Time 144960, Note Name: C#3, Velocity: 27
Note OFF: Time 145120, Note Name: C#3
Note ON: Time 145120, Note Name: G#3, Velocity: 28
Note OFF: Time 145280, Note Name: G#3
Note ON: Time 145280, Note Name: F4, Velocity: 29
Note OFF: Time 145440, Note Name: F4
Note ON: Time 145600, Note Name: F4, Velocity: 30
Note OFF: Time 145760, Note Name: F4
Note ON: Time 145760, Note Name: G#3, Velocity: 29
Note OFF: Time 145920, Note Name: G#3
Note ON: Time 145920, Note Name: F#4, Velocity: 30
Note OFF: Time 146080, Note Name: F#4
Note ON: Time 146080, Note Name: D#4, Velocity: 26
Note OFF: Time 146240, Note Name: D#4
Note ON: Time 146240, Note Name: G#3, Velocity: 26
Note OFF: Time 146400, Note Name: G#3
Note ON: Time 146400, Note Name: F4, Velocity: 30
Note OFF: Time 146560, Note Name: F4
Note ON: Time 146560, Note Name: C#4, Velocity: 26
Note OFF: Time 146720, Note Name: C#4
Note ON: Time 146720, Note Name: G#3, Velocity: 26
Note OFF: Time 146880, Note Name: G#3
Note ON: Time 146880, Note Name: D#4, Velocity: 30
Note OFF: Time 147040, Note Name: D#4
Note ON: Time 147040, Note Name: C4, Velocity: 23
Note OFF: Time 147200, Note Name: C4
Note ON: Time 147200, Note Name: G#3, Velocity: 23
Note OFF: Time 147360, Note Name: G#3
Note ON: Time 147360, Note Name: C#4, Velocity: 29
Note OFF: Time 147520, Note Name: C#4
Note ON: Time 147520, Note Name: G#3, Velocity: 24
Note OFF: Time 147680, Note Name: G#3
Note ON: Time 147680, Note Name: F3, Velocity: 24
Note OFF: Time 147840, Note Name: F3
Note ON: Time 147840, Note Name: G#2, Velocity: 26
Note OFF: Time 148000, Note Name: G#2
Note ON: Time 148000, Note Name: D#3, Velocity: 27
Note OFF: Time 148160, Note Name: D#3
Note ON: Time 148160, Note Name: G#3, Velocity: 27
Note OFF: Time 148320, Note Name: G#3
Note ON: Time 148320, Note Name: C4, Velocity: 28
Note OFF: Time 148480, Note Name: C4
Note ON: Time 148480, Note Name: G#3, Velocity: 27
Note OFF: Time 148640, Note Name: G#3
Note ON: Time 148640, Note Name: D#3, Velocity: 27
Note OFF: Time 148800, Note Name: D#3
Note ON: Time 148800, Note Name: F#2, Velocity: 27
Note OFF: Time 148960, Note Name: F#2
Note ON: Time 148960, Note Name: F#3, Velocity: 27
Note OFF: Time 149120, Note Name: F#3
Note ON: Time 149120, Note Name: A#3, Velocity: 28
Note OFF: Time 149280, Note Name: A#3
Note ON: Time 149280, Note Name: C#4, Velocity: 29
Note OFF: Time 149440, Note Name: C#4
Note ON: Time 149440, Note Name: A#3, Velocity: 28
Note OFF: Time 149600, Note Name: A#3
Note ON: Time 149600, Note Name: F#3, Velocity: 28
Note OFF: Time 149760, Note Name: F#3
Note ON: Time 149760, Note Name: A#2, Velocity: 27
Note OFF: Time 149920, Note Name: A#2
Note ON: Time 149920, Note Name: F3, Velocity: 27
Note OFF: Time 150080, Note Name: F3
Note ON: Time 150080, Note Name: A#3, Velocity: 28
Note OFF: Time 150240, Note Name: A#3
Note ON: Time 150240, Note Name: D4, Velocity: 28
Note OFF: Time 150400, Note Name: D4
Note ON: Time 150400, Note Name: A#3, Velocity: 28
Note OFF: Time 150560, Note Name: A#3
Note ON: Time 150560, Note Name: F3, Velocity: 27
Note OFF: Time 150720, Note Name: F3
Note ON: Time 150720, Note Name: A#2, Velocity: 28
Note OFF: Time 150880, Note Name: A#2
Note ON: Time 150880, Note Name: A#3, Velocity: 29
Note OFF: Time 151040, Note Name: A#3
Note ON: Time 151040, Note Name: D4, Velocity: 30
Note OFF: Time 151200, Note Name: D4
Note ON: Time 151200, Note Name: G#4, Velocity: 33
Note OFF: Time 151360, Note Name: G#4
Note ON: Time 151360, Note Name: D4, Velocity: 31
Note OFF: Time 151520, Note Name: D4
Note ON: Time 151520, Note Name: A#3, Velocity: 29
Note OFF: Time 151680, Note Name: A#3
Note ON: Time 151680, Note Name: D#3, Velocity: 34
Note OFF: Time 151840, Note Name: D#3
Note ON: Time 151840, Note Name: F#4, Velocity: 31
Note OFF: Time 152000, Note Name: F#4
Note ON: Time 152000, Note Name: A#3, Velocity: 28
Note OFF: Time 152160, Note Name: A#3
Note ON: Time 152160, Note Name: F3, Velocity: 31
Note OFF: Time 152320, Note Name: F3
Note ON: Time 152320, Note Name: F4, Velocity: 28
Note OFF: Time 152480, Note Name: F4
Note ON: Time 152480, Note Name: A3, Velocity: 28
Note OFF: Time 152640, Note Name: A3
Note ON: Time 152640, Note Name: F#3, Velocity: 30
Note OFF: Time 152800, Note Name: F#3
Note ON: Time 152800, Note Name: D#4, Velocity: 25
Note OFF: Time 152960, Note Name: D#4
Note ON: Time 152960, Note Name: A#3, Velocity: 25
Note OFF: Time 153120, Note Name: A#3
Note ON: Time 153120, Note Name: G#3, Velocity: 30
Note OFF: Time 153280, Note Name: G#3
Note ON: Time 153280, Note Name: F#4, Velocity: 27
Note OFF: Time 153440, Note Name: F#4
Note ON: Time 153440, Note Name: C4, Velocity: 27
Note OFF: Time 153600, Note Name: C4
Note ON: Time 153600, Note Name: C#3, Velocity: 22
Note OFF: Time 153760, Note Name: C#3
Note ON: Time 153760, Note Name: G#3, Velocity: 23
Note OFF: Time 153920, Note Name: G#3
Note ON: Time 153920, Note Name: C#4, Velocity: 26
Note OFF: Time 154080, Note Name: C#4
Note ON: Time 154080, Note Name: F4, Velocity: 27
Note OFF: Time 154240, Note Name: F4
Note ON: Time 154240, Note Name: C#4, Velocity: 26
Note OFF: Time 154400, Note Name: C#4
Note ON: Time 154400, Note Name: G#3, Velocity: 23
Note OFF: Time 154560, Note Name: G#3
Note ON: Time 154560, Note Name: C#3, Velocity: 23
Note OFF: Time 154720, Note Name: C#3
Note ON: Time 154720, Note Name: G#3, Velocity: 24
Note OFF: Time 154880, Note Name: G#3
Note ON: Time 154880, Note Name: C4, Velocity: 26
Note OFF: Time 155040, Note Name: C4
Note ON: Time 155040, Note Name: F#4, Velocity: 27
Note OFF: Time 155200, Note Name: F#4
Note ON: Time 155200, Note Name: C4, Velocity: 26
Note OFF: Time 155360, Note Name: C4
Note ON: Time 155360, Note Name: G#3, Velocity: 23
Note OFF: Time 155520, Note Name: G#3
Note ON: Time 155520, Note Name: C#3, Velocity: 20
Note OFF: Time 155680, Note Name: C#3
Note ON: Time 155680, Note Name: G#3, Velocity: 21
Note OFF: Time 155840, Note Name: G#3
Note ON: Time 155840, Note Name: C4, Velocity: 22
Note OFF: Time 156000, Note Name: C4
Note ON: Time 156000, Note Name: F#4, Velocity: 24
Note OFF: Time 156160, Note Name: F#4
Note ON: Time 156160, Note Name: C4, Velocity: 22
Note OFF: Time 156320, Note Name: C4
Note ON: Time 156320, Note Name: G#3, Velocity: 22
Note OFF: Time 156480, Note Name: G#3
Note ON: Time 156480, Note Name: C#3, Velocity: 20
Note OFF: Time 156640, Note Name: C#3
Note ON: Time 156640, Note Name: G#3, Velocity: 21
Note OFF: Time 156800, Note Name: G#3
Note ON: Time 156800, Note Name: C4, Velocity: 22
Note OFF: Time 156960, Note Name: C4
Note ON: Time 156960, Note Name: F#4, Velocity: 22
Note OFF: Time 157120, Note Name: F#4
Note ON: Time 157120, Note Name: C4, Velocity: 22
Note OFF: Time 157280, Note Name: C4
Note ON: Time 157280, Note Name: G#3, Velocity: 21
Note OFF: Time 157440, Note Name: G#3
Note ON: Time 157440, Note Name: C#3, Velocity: 22
Note OFF: Time 157600, Note Name: C#3
Note ON: Time 157600, Note Name: G#3, Velocity: 25
Note OFF: Time 157760, Note Name: G#3
Note ON: Time 157760, Note Name: C#4, Velocity: 28
Note OFF: Time 157920, Note Name: C#4
Note ON: Time 157920, Note Name: E4, Velocity: 30
Note OFF: Time 158080, Note Name: E4
Note ON: Time 158080, Note Name: C#4, Velocity: 28
Note OFF: Time 158240, Note Name: C#4
Note ON: Time 158240, Note Name: G#3, Velocity: 27
Note OFF: Time 158400, Note Name: G#3
Note ON: Time 158400, Note Name: E3, Velocity: 26
Note OFF: Time 158560, Note Name: E3
Note ON: Time 158560, Note Name: G#3, Velocity: 28
Note OFF: Time 158720, Note Name: G#3
Note ON: Time 158720, Note Name: C#4, Velocity: 30
Note OFF: Time 158880, Note Name: C#4
Note ON: Time 158880, Note Name: E4, Velocity: 31
Note OFF: Time 159040, Note Name: E4
Note ON: Time 159040, Note Name: C#4, Velocity: 28
Note OFF: Time 159200, Note Name: C#4
Note ON: Time 159200, Note Name: G#3, Velocity: 27
Note OFF: Time 159360, Note Name: G#3
Note ON: Time 159360, Note Name: C#3, Velocity: 27
Note OFF: Time 159520, Note Name: C#3
Note ON: Time 159520, Note Name: G#3, Velocity: 30
Note OFF: Time 159680, Note Name: G#3
Note ON: Time 159680, Note Name: C#4, Velocity: 34
Note OFF: Time 159840, Note Name: C#4
Note ON: Time 159840, Note Name: E4, Velocity: 36
Note OFF: Time 160000, Note Name: E4
Note ON: Time 160000, Note Name: C#4, Velocity: 34
Note OFF: Time 160160, Note Name: C#4
Note ON: Time 160160, Note Name: G#3, Velocity: 33
Note OFF: Time 160320, Note Name: G#3
Note ON: Time 160320, Note Name: E3, Velocity: 31
Note OFF: Time 160480, Note Name: E3
Note ON: Time 160480, Note Name: G#3, Velocity: 33
Note OFF: Time 160640, Note Name: G#3
Note ON: Time 160640, Note Name: C#4, Velocity: 36
Note OFF: Time 160800, Note Name: C#4
Note ON: Time 160800, Note Name: E4, Velocity: 37
Note OFF: Time 160960, Note Name: E4
Note ON: Time 160960, Note Name: C#4, Velocity: 34
Note OFF: Time 161120, Note Name: C#4
Note ON: Time 161120, Note Name: G#3, Velocity: 32
Note OFF: Time 161280, Note Name: G#3
Note ON: Time 161280, Note Name: D#3, Velocity: 31
Note OFF: Time 161440, Note Name: D#3
Note ON: Time 161440, Note Name: A3, Velocity: 35
Note OFF: Time 161600, Note Name: A3
Note ON: Time 161600, Note Name: C#4, Velocity: 39
Note OFF: Time 161760, Note Name: C#4
Note ON: Time 161760, Note Name: F#4, Velocity: 45
Note OFF: Time 161920, Note Name: F#4
Note ON: Time 161920, Note Name: C#4, Velocity: 39
Note OFF: Time 162080, Note Name: C#4
Note ON: Time 162080, Note Name: A3, Velocity: 37
Note OFF: Time 162240, Note Name: A3
Note ON: Time 162240, Note Name: F#3, Velocity: 37
Note OFF: Time 162400, Note Name: F#3
Note ON: Time 162400, Note Name: C#4, Velocity: 40
Note OFF: Time 162560, Note Name: C#4
Note ON: Time 162560, Note Name: D#4, Velocity: 44
Note OFF: Time 162720, Note Name: D#4
Note ON: Time 162720, Note Name: A4, Velocity: 46
Note OFF: Time 162880, Note Name: A4
Note ON: Time 162880, Note Name: D#4, Velocity: 44
Note OFF: Time 163040, Note Name: D#4
Note ON: Time 163040, Note Name: C#4, Velocity: 41
Note OFF: Time 163200, Note Name: C#4
Note ON: Time 163200, Note Name: G#2, Velocity: 33
Note OFF: Time 163360, Note Name: G#2
Note ON: Time 163360, Note Name: D#3, Velocity: 35
Note OFF: Time 163520, Note Name: D#3
Note ON: Time 163520, Note Name: F#3, Velocity: 38
Note OFF: Time 163680, Note Name: F#3
Note ON: Time 163680, Note Name: C4, Velocity: 39
Note OFF: Time 163840, Note Name: C4
Note ON: Time 163840, Note Name: F#3, Velocity: 36
Note OFF: Time 164000, Note Name: F#3
Note ON: Time 164000, Note Name: D#3, Velocity: 34
Note OFF: Time 164160, Note Name: D#3
Note ON: Time 164160, Note Name: G#2, Velocity: 29
Note OFF: Time 164320, Note Name: G#2
Note ON: Time 164320, Note Name: D#3, Velocity: 31
Note OFF: Time 164480, Note Name: D#3
Note ON: Time 164480, Note Name: F#3, Velocity: 33
Note OFF: Time 164640, Note Name: F#3
Note ON: Time 164640, Note Name: C4, Velocity: 33
Note OFF: Time 164800, Note Name: C4
Note ON: Time 164800, Note Name: F#3, Velocity: 29
Note OFF: Time 164960, Note Name: F#3
Note ON: Time 164960, Note Name: D#3, Velocity: 26
Note OFF: Time 165120, Note Name: D#3
Note ON: Time 165120, Note Name: C#3, Velocity: 22
Note OFF: Time 165280, Note Name: C#3
Note ON: Time 165280, Note Name: G#3, Velocity: 25
Note OFF: Time 165440, Note Name: G#3
Note ON: Time 165440, Note Name: C#4, Velocity: 28
Note OFF: Time 165600, Note Name: C#4
Note ON: Time 165600, Note Name: E4, Velocity: 30
Note OFF: Time 165760, Note Name: E4
Note ON: Time 165760, Note Name: C#4, Velocity: 28
Note OFF: Time 165920, Note Name: C#4
Note ON: Time 165920, Note Name: G#3, Velocity: 27
Note OFF: Time 166080, Note Name: G#3
Note ON: Time 166080, Note Name: E3, Velocity: 26
Note OFF: Time 166240, Note Name: E3
Note ON: Time 166240, Note Name: G#3, Velocity: 28
Note OFF: Time 166400, Note Name: G#3
Note ON: Time 166400, Note Name: C#4, Velocity: 30
Note OFF: Time 166560, Note Name: C#4
Note ON: Time 166560, Note Name: E4, Velocity: 31
Note OFF: Time 166720, Note Name: E4
Note ON: Time 166720, Note Name: C#4, Velocity: 28
Note OFF: Time 166880, Note Name: C#4
Note ON: Time 166880, Note Name: G#3, Velocity: 27
Note OFF: Time 167040, Note Name: G#3
Note ON: Time 167040, Note Name: C#3, Velocity: 27
Note OFF: Time 167200, Note Name: C#3
Note ON: Time 167200, Note Name: G#3, Velocity: 30
Note OFF: Time 167360, Note Name: G#3
Note ON: Time 167360, Note Name: A#3, Velocity: 34
Note OFF: Time 167520, Note Name: A#3
Note ON: Time 167520, Note Name: E4, Velocity: 36
Note OFF: Time 167680, Note Name: E4
Note ON: Time 167680, Note Name: A#3, Velocity: 34
Note OFF: Time 167840, Note Name: A#3
Note ON: Time 167840, Note Name: G#3, Velocity: 33
Note OFF: Time 168000, Note Name: G#3
Note ON: Time 168000, Note Name: E3, Velocity: 31
Note OFF: Time 168160, Note Name: E3
Note ON: Time 168160, Note Name: G#3, Velocity: 33
Note OFF: Time 168320, Note Name: G#3
Note ON: Time 168320, Note Name: A#3, Velocity: 36
Note OFF: Time 168480, Note Name: A#3
Note ON: Time 168480, Note Name: C#4, Velocity: 37
Note OFF: Time 168640, Note Name: C#4
Note ON: Time 168640, Note Name: A#3, Velocity: 34
Note OFF: Time 168800, Note Name: A#3
Note ON: Time 168800, Note Name: G#3, Velocity: 32
Note OFF: Time 168960, Note Name: G#3
Note ON: Time 168960, Note Name: D#3, Velocity: 30
Note OFF: Time 169120, Note Name: D#3
Note ON: Time 169120, Note Name: G#3, Velocity: 34
Note OFF: Time 169280, Note Name: G#3
Note ON: Time 169280, Note Name: B3, Velocity: 37
Note OFF: Time 169440, Note Name: B3
Note ON: Time 169440, Note Name: D#4, Velocity: 39
Note OFF: Time 169600, Note Name: D#4
Note ON: Time 169600, Note Name: B3, Velocity: 38
Note OFF: Time 169760, Note Name: B3
Note ON: Time 169760, Note Name: G#3, Velocity: 35
Note OFF: Time 169920, Note Name: G#3
Note ON: Time 169920, Note Name: D#3, Velocity: 38
Note OFF: Time 170080, Note Name: D#3
Note ON: Time 170080, Note Name: A#3, Velocity: 41
Note OFF: Time 170240, Note Name: A#3
Note ON: Time 170240, Note Name: C#4, Velocity: 45
Note OFF: Time 170400, Note Name: C#4
Note ON: Time 170400, Note Name: G4, Velocity: 46
Note OFF: Time 170560, Note Name: G4
Note ON: Time 170560, Note Name: C#4, Velocity: 44
Note OFF: Time 170720, Note Name: C#4
Note ON: Time 170720, Note Name: A#3, Velocity: 41
Note OFF: Time 170880, Note Name: A#3
Note ON: Time 170880, Note Name: G#2, Velocity: 33
Note OFF: Time 171040, Note Name: G#2
Note ON: Time 171040, Note Name: D#3, Velocity: 35
Note OFF: Time 171200, Note Name: D#3
Note ON: Time 171200, Note Name: G#3, Velocity: 37
Note OFF: Time 171360, Note Name: G#3
Note ON: Time 171360, Note Name: B3, Velocity: 39
Note OFF: Time 171520, Note Name: B3
Note ON: Time 171520, Note Name: G#3, Velocity: 39
Note OFF: Time 171680, Note Name: G#3
Note ON: Time 171680, Note Name: D#3, Velocity: 37
Note OFF: Time 171840, Note Name: D#3
Note ON: Time 171840, Note Name: G#2, Velocity: 33
Note OFF: Time 172000, Note Name: G#2
Note ON: Time 172000, Note Name: D#3, Velocity: 35
Note OFF: Time 172160, Note Name: D#3
Note ON: Time 172160, Note Name: G#3, Velocity: 38
Note OFF: Time 172320, Note Name: G#3
Note ON: Time 172320, Note Name: B3, Velocity: 39
Note OFF: Time 172480, Note Name: B3
Note ON: Time 172480, Note Name: G#3, Velocity: 35
Note OFF: Time 172640, Note Name: G#3
Note ON: Time 172640, Note Name: D#3, Velocity: 33
Note OFF: Time 172800, Note Name: D#3
Note ON: Time 172800, Note Name: A2, Velocity: 39
Note OFF: Time 172960, Note Name: A2
Note ON: Time 172960, Note Name: C#3, Velocity: 41
Note OFF: Time 173120, Note Name: C#3
Note ON: Time 173120, Note Name: F#3, Velocity: 43
Note OFF: Time 173280, Note Name: F#3
Note ON: Time 173280, Note Name: A3, Velocity: 45
Note OFF: Time 173440, Note Name: A3
Note ON: Time 173440, Note Name: F#3, Velocity: 44
Note OFF: Time 173600, Note Name: F#3
Note ON: Time 173600, Note Name: C#3, Velocity: 42
Note OFF: Time 173760, Note Name: C#3
Note ON: Time 173760, Note Name: A2, Velocity: 42
Note OFF: Time 173920, Note Name: A2
Note ON: Time 173920, Note Name: C#3, Velocity: 44
Note OFF: Time 174080, Note Name: C#3
Note ON: Time 174080, Note Name: F#3, Velocity: 45
Note OFF: Time 174240, Note Name: F#3
Note ON: Time 174240, Note Name: A3, Velocity: 45
Note OFF: Time 174400, Note Name: A3
Note ON: Time 174400, Note Name: F#3, Velocity: 45
Note OFF: Time 174560, Note Name: F#3
Note ON: Time 174560, Note Name: C#3, Velocity: 44
Note OFF: Time 174720, Note Name: C#3
Note ON: Time 174720, Note Name: D#3, Velocity: 44
Note OFF: Time 174880, Note Name: D#3
Note ON: Time 174880, Note Name: F#3, Velocity: 46
Note OFF: Time 175040, Note Name: F#3
Note ON: Time 175040, Note Name: A3, Velocity: 48
Note OFF: Time 175200, Note Name: A3
Note ON: Time 175200, Note Name: B3, Velocity: 49
Note OFF: Time 175360, Note Name: B3
Note ON: Time 175360, Note Name: A3, Velocity: 47
Note OFF: Time 175520, Note Name: A3
Note ON: Time 175520, Note Name: F#3, Velocity: 45
Note OFF: Time 175680, Note Name: F#3
Note ON: Time 175680, Note Name: E2, Velocity: 45
Note OFF: Time 175840, Note Name: E2
Note ON: Time 175840, Note Name: B2, Velocity: 46
Note OFF: Time 176000, Note Name: B2
Note ON: Time 176000, Note Name: E3, Velocity: 48
Note OFF: Time 176160, Note Name: E3
Note ON: Time 176160, Note Name: G#3, Velocity: 47
Note OFF: Time 176320, Note Name: G#3
Note ON: Time 176320, Note Name: E3, Velocity: 46
Note OFF: Time 176480, Note Name: E3
Note ON: Time 176480, Note Name: B2, Velocity: 45
Note OFF: Time 176640, Note Name: B2
Note ON: Time 176640, Note Name: A2, Velocity: 44
Note OFF: Time 176800, Note Name: A2
Note ON: Time 176800, Note Name: C#3, Velocity: 46
Note OFF: Time 176960, Note Name: C#3
Note ON: Time 176960, Note Name: F#3, Velocity: 48
Note OFF: Time 177120, Note Name: F#3
Note ON: Time 177120, Note Name: A3, Velocity: 49
Note OFF: Time 177280, Note Name: A3
Note ON: Time 177280, Note Name: F#3, Velocity: 47
Note OFF: Time 177440, Note Name: F#3
Note ON: Time 177440, Note Name: C#3, Velocity: 45
Note OFF: Time 177600, Note Name: C#3
Note ON: Time 177600, Note Name: A2, Velocity: 45
Note OFF: Time 177760, Note Name: A2
Note ON: Time 177760, Note Name: C#3, Velocity: 46
Note OFF: Time 177920, Note Name: C#3
Note ON: Time 177920, Note Name: F#3, Velocity: 48
Note OFF: Time 178080, Note Name: F#3
Note ON: Time 178080, Note Name: A3, Velocity: 47
Note OFF: Time 178240, Note Name: A3
Note ON: Time 178240, Note Name: F#3, Velocity: 46
Note OFF: Time 178400, Note Name: F#3
Note ON: Time 178400, Note Name: C#3, Velocity: 45
Note OFF: Time 178560, Note Name: C#3
Note ON: Time 178560, Note Name: B2, Velocity: 44
Note OFF: Time 178720, Note Name: B2
Note ON: Time 178720, Note Name: D#3, Velocity: 46
Note OFF: Time 178880, Note Name: D#3
Note ON: Time 178880, Note Name: A3, Velocity: 48
Note OFF: Time 179040, Note Name: A3
Note ON: Time 179040, Note Name: B3, Velocity: 49
Note OFF: Time 179200, Note Name: B3
Note ON: Time 179200, Note Name: A3, Velocity: 47
Note OFF: Time 179360, Note Name: A3
Note ON: Time 179360, Note Name: D#3, Velocity: 45
Note OFF: Time 179520, Note Name: D#3
Note ON: Time 179520, Note Name: E2, Velocity: 45
Note OFF: Time 179680, Note Name: E2
Note ON: Time 179680, Note Name: B2, Velocity: 46
Note OFF: Time 179840, Note Name: B2
Note ON: Time 179840, Note Name: E3, Velocity: 48
Note OFF: Time 180000, Note Name: E3
Note ON: Time 180000, Note Name: G#3, Velocity: 47
Note OFF: Time 180160, Note Name: G#3
Note ON: Time 180160, Note Name: E3, Velocity: 46
Note OFF: Time 180320, Note Name: E3
Note ON: Time 180320, Note Name: B2, Velocity: 45
Note OFF: Time 180480, Note Name: B2
Note ON: Time 180480, Note Name: A2, Velocity: 30
Note OFF: Time 180640, Note Name: A2
Note ON: Time 180640, Note Name: C#3, Velocity: 33
Note OFF: Time 180800, Note Name: C#3
Note ON: Time 180800, Note Name: F#3, Velocity: 34
Note OFF: Time 180960, Note Name: F#3
Note ON: Time 180960, Note Name: A3, Velocity: 35
Note OFF: Time 181120, Note Name: A3
Note ON: Time 181120, Note Name: F#3, Velocity: 34
Note OFF: Time 181280, Note Name: F#3
Note ON: Time 181280, Note Name: C#3, Velocity: 34
Note OFF: Time 181440, Note Name: C#3
Note ON: Time 181440, Note Name: A2, Velocity: 34
Note OFF: Time 181600, Note Name: A2
Note ON: Time 181600, Note Name: C#3, Velocity: 34
Note OFF: Time 181760, Note Name: C#3
Note ON: Time 181760, Note Name: F#3, Velocity: 36
Note OFF: Time 181920, Note Name: F#3
Note ON: Time 181920, Note Name: A3, Velocity: 36
Note OFF: Time 182080, Note Name: A3
Note ON: Time 182080, Note Name: F#3, Velocity: 35
Note OFF: Time 182240, Note Name: F#3
Note ON: Time 182240, Note Name: C#3, Velocity: 34
Note OFF: Time 182400, Note Name: C#3
Note ON: Time 182400, Note Name: B2, Velocity: 34
Note OFF: Time 182560, Note Name: B2
Note ON: Time 182560, Note Name: F#3, Velocity: 37
Note OFF: Time 182720, Note Name: F#3
Note ON: Time 182720, Note Name: A3, Velocity: 38
Note OFF: Time 182880, Note Name: A3
Note ON: Time 182880, Note Name: B3, Velocity: 39
Note OFF: Time 183040, Note Name: B3
Note ON: Time 183040, Note Name: A3, Velocity: 38
Note OFF: Time 183200, Note Name: A3
Note ON: Time 183200, Note Name: F#3, Velocity: 38
Note OFF: Time 183360, Note Name: F#3
Note ON: Time 183360, Note Name: E2, Velocity: 37
Note OFF: Time 183520, Note Name: E2
Note ON: Time 183520, Note Name: B2, Velocity: 39
Note OFF: Time 183680, Note Name: B2
Note ON: Time 183680, Note Name: E3, Velocity: 40
Note OFF: Time 183840, Note Name: E3
Note ON: Time 183840, Note Name: G#3, Velocity: 40
Note OFF: Time 184000, Note Name: G#3
Note ON: Time 184000, Note Name: E3, Velocity: 40
Note OFF: Time 184160, Note Name: E3
Note ON: Time 184160, Note Name: B2, Velocity: 39
Note OFF: Time 184320, Note Name: B2
Note ON: Time 184320, Note Name: A2, Velocity: 39
Note OFF: Time 184480, Note Name: A2
Note ON: Time 184480, Note Name: C#3, Velocity: 42
Note OFF: Time 184640, Note Name: C#3
Note ON: Time 184640, Note Name: F#3, Velocity: 43
Note OFF: Time 184800, Note Name: F#3
Note ON: Time 184800, Note Name: A3, Velocity: 45
Note OFF: Time 184960, Note Name: A3
Note ON: Time 184960, Note Name: F#3, Velocity: 43
Note OFF: Time 185120, Note Name: F#3
Note ON: Time 185120, Note Name: C#3, Velocity: 42
Note OFF: Time 185280, Note Name: C#3
Note ON: Time 185280, Note Name: A2, Velocity: 42
Note OFF: Time 185440, Note Name: A2
Note ON: Time 185440, Note Name: D#3, Velocity: 44
Note OFF: Time 185600, Note Name: D#3
Note ON: Time 185600, Note Name: F#3, Velocity: 45
Note OFF: Time 185760, Note Name: F#3
Note ON: Time 185760, Note Name: A3, Velocity: 44
Note OFF: Time 185920, Note Name: A3
Note ON: Time 185920, Note Name: F#3, Velocity: 44
Note OFF: Time 186080, Note Name: F#3
Note ON: Time 186080, Note Name: D#3, Velocity: 42
Note OFF: Time 186240, Note Name: D#3
Note ON: Time 186240, Note Name: G#2, Velocity: 42
Note OFF: Time 186400, Note Name: G#2
Note ON: Time 186400, Note Name: D#3, Velocity: 44
Note OFF: Time 186560, Note Name: D#3
Note ON: Time 186560, Note Name: F#3, Velocity: 45
Note OFF: Time 186720, Note Name: F#3
Note ON: Time 186720, Note Name: C4, Velocity: 42
Note OFF: Time 186880, Note Name: C4
Note ON: Time 186880, Note Name: F#3, Velocity: 42
Note OFF: Time 187040, Note Name: F#3
Note ON: Time 187040, Note Name: D#3, Velocity: 40
Note OFF: Time 187200, Note Name: D#3
Note ON: Time 187200, Note Name: G#2, Velocity: 39
Note OFF: Time 187360, Note Name: G#2
Note ON: Time 187360, Note Name: D#3, Velocity: 41
Note OFF: Time 187520, Note Name: D#3
Note ON: Time 187520, Note Name: F#3, Velocity: 42
Note OFF: Time 187680, Note Name: F#3
Note ON: Time 187680, Note Name: C4, Velocity: 40
Note OFF: Time 187840, Note Name: C4
Note ON: Time 187840, Note Name: F#3, Velocity: 39
Note OFF: Time 188000, Note Name: F#3
Note ON: Time 188000, Note Name: D#3, Velocity: 38
Note OFF: Time 188160, Note Name: D#3
Note ON: Time 188160, Note Name: A2, Velocity: 38
Note OFF: Time 188320, Note Name: A2
Note ON: Time 188320, Note Name: D#3, Velocity: 39
Note OFF: Time 188480, Note Name: D#3
Note ON: Time 188480, Note Name: F#3, Velocity: 40
Note OFF: Time 188640, Note Name: F#3
Note ON: Time 188640, Note Name: B3, Velocity: 38
Note OFF: Time 188800, Note Name: B3
Note ON: Time 188800, Note Name: F#3, Velocity: 38
Note OFF: Time 188960, Note Name: F#3
Note ON: Time 188960, Note Name: D#3, Velocity: 36
Note OFF: Time 189120, Note Name: D#3
Note ON: Time 189120, Note Name: A#2, Velocity: 35
Note OFF: Time 189280, Note Name: A#2
Note ON: Time 189280, Note Name: D#3, Velocity: 37
Note OFF: Time 189440, Note Name: D#3
Note ON: Time 189440, Note Name: F#3, Velocity: 38
Note OFF: Time 189600, Note Name: F#3
Note ON: Time 189600, Note Name: A#3, Velocity: 36
Note OFF: Time 189760, Note Name: A#3
Note ON: Time 189760, Note Name: F#3, Velocity: 35
Note OFF: Time 189920, Note Name: F#3
Note ON: Time 189920, Note Name: D#3, Velocity: 34
Note OFF: Time 190080, Note Name: D#3
Note ON: Time 190080, Note Name: C3, Velocity: 34
Note OFF: Time 190240, Note Name: C3
Note ON: Time 190240, Note Name: D#3, Velocity: 34
Note OFF: Time 190400, Note Name: D#3
Note ON: Time 190400, Note Name: F#3, Velocity: 35
Note OFF: Time 190560, Note Name: F#3
Note ON: Time 190560, Note Name: A3, Velocity: 34
Note OFF: Time 190720, Note Name: A3
Note ON: Time 190720, Note Name: F#3, Velocity: 34
Note OFF: Time 190880, Note Name: F#3
Note ON: Time 190880, Note Name: D#3, Velocity: 32
Note OFF: Time 191040, Note Name: D#3
Note ON: Time 191040, Note Name: C3, Velocity: 31
Note OFF: Time 191200, Note Name: C3
Note ON: Time 191200, Note Name: D#3, Velocity: 33
Note OFF: Time 191360, Note Name: D#3
Note ON: Time 191360, Note Name: F#3, Velocity: 33
Note OFF: Time 191520, Note Name: F#3
Note ON: Time 191520, Note Name: A3, Velocity: 31
Note OFF: Time 191680, Note Name: A3
Note ON: Time 191680, Note Name: F#3, Velocity: 31
Note OFF: Time 191840, Note Name: F#3
Note ON: Time 191840, Note Name: D#3, Velocity: 29
Note OFF: Time 192000, Note Name: D#3
Note ON: Time 192000, Note Name: A2, Velocity: 28
Note OFF: Time 192160, Note Name: A2
Note ON: Time 192160, Note Name: D#3, Velocity: 29
Note OFF: Time 192320, Note Name: D#3
Note ON: Time 192320, Note Name: F#3, Velocity: 30
Note OFF: Time 192480, Note Name: F#3
Note ON: Time 192480, Note Name: B3, Velocity: 32
Note OFF: Time 192640, Note Name: B3
Note ON: Time 192640, Note Name: F#3, Velocity: 31
Note OFF: Time 192800, Note Name: F#3
Note ON: Time 192800, Note Name: D#3, Velocity: 29
Note OFF: Time 192960, Note Name: D#3
Note ON: Time 192960, Note Name: A#2, Velocity: 27
Note OFF: Time 193120, Note Name: A#2
Note ON: Time 193120, Note Name: D#3, Velocity: 28
Note OFF: Time 193280, Note Name: D#3
Note ON: Time 193280, Note Name: F#3, Velocity: 29
Note OFF: Time 193440, Note Name: F#3
Note ON: Time 193440, Note Name: A#3, Velocity: 30
Note OFF: Time 193600, Note Name: A#3
Note ON: Time 193600, Note Name: F#3, Velocity: 29
Note OFF: Time 193760, Note Name: F#3
Note ON: Time 193760, Note Name: D#3, Velocity: 28
Note OFF: Time 193920, Note Name: D#3
Note ON: Time 193920, Note Name: B2, Velocity: 28
Note OFF: Time 194080, Note Name: B2
Note ON: Time 194080, Note Name: D#3, Velocity: 28
Note OFF: Time 194240, Note Name: D#3
Note ON: Time 194240, Note Name: F#3, Velocity: 28
Note OFF: Time 194400, Note Name: F#3
Note ON: Time 194400, Note Name: A3, Velocity: 30
Note OFF: Time 194560, Note Name: A3
Note ON: Time 194560, Note Name: F#3, Velocity: 28
Note OFF: Time 194720, Note Name: F#3
Note ON: Time 194720, Note Name: D#3, Velocity: 27
Note OFF: Time 194880, Note Name: D#3
Note ON: Time 194880, Note Name: C3, Velocity: 23
Note OFF: Time 195040, Note Name: C3
Note ON: Time 195040, Note Name: D#3, Velocity: 24
Note OFF: Time 195200, Note Name: D#3
Note ON: Time 195200, Note Name: F#3, Velocity: 25
Note OFF: Time 195360, Note Name: F#3
Note ON: Time 195360, Note Name: G#3, Velocity: 25
Note OFF: Time 195520, Note Name: G#3
Note ON: Time 195520, Note Name: F#3, Velocity: 24
Note OFF: Time 195680, Note Name: F#3
Note ON: Time 195680, Note Name: D#3, Velocity: 22
Note OFF: Time 195840, Note Name: D#3
Note ON: Time 195840, Note Name: C#3, Velocity: 22
Note OFF: Time 196000, Note Name: C#3
Note ON: Time 196000, Note Name: G#3, Velocity: 25
Note OFF: Time 196160, Note Name: G#3
Note ON: Time 196160, Note Name: C#4, Velocity: 28
Note OFF: Time 196320, Note Name: C#4
Note ON: Time 196320, Note Name: E4, Velocity: 30
Note OFF: Time 196480, Note Name: E4
Note ON: Time 196480, Note Name: C#4, Velocity: 28
Note OFF: Time 196640, Note Name: C#4
Note ON: Time 196640, Note Name: G#3, Velocity: 27
Note OFF: Time 196800, Note Name: G#3
Note ON: Time 196800, Note Name: E3, Velocity: 26
Note OFF: Time 196960, Note Name: E3
Note ON: Time 196960, Note Name: G#3, Velocity: 28
Note OFF: Time 197120, Note Name: G#3
Note ON: Time 197120, Note Name: C#4, Velocity: 30
Note OFF: Time 197280, Note Name: C#4
Note ON: Time 197280, Note Name: E4, Velocity: 31
Note OFF: Time 197440, Note Name: E4
Note ON: Time 197440, Note Name: C#4, Velocity: 28
Note OFF: Time 197600, Note Name: C#4
Note ON: Time 197600, Note Name: G#3, Velocity: 27
Note OFF: Time 197760, Note Name: G#3
Note ON: Time 197760, Note Name: C#3, Velocity: 27
Note OFF: Time 197920, Note Name: C#3
Note ON: Time 197920, Note Name: G#3, Velocity: 30
Note OFF: Time 198080, Note Name: G#3
Note ON: Time 198080, Note Name: C#4, Velocity: 34
Note OFF: Time 198240, Note Name: C#4
Note ON: Time 198240, Note Name: E4, Velocity: 36
Note OFF: Time 198400, Note Name: E4
Note ON: Time 198400, Note Name: C#4, Velocity: 34
Note OFF: Time 198560, Note Name: C#4
Note ON: Time 198560, Note Name: G#3, Velocity: 33
Note OFF: Time 198720, Note Name: G#3
Note ON: Time 198720, Note Name: E3, Velocity: 31
Note OFF: Time 198880, Note Name: E3
Note ON: Time 198880, Note Name: G#3, Velocity: 33
Note OFF: Time 199040, Note Name: G#3
Note ON: Time 199040, Note Name: C#4, Velocity: 36
Note OFF: Time 199200, Note Name: C#4
Note ON: Time 199200, Note Name: E4, Velocity: 37
Note OFF: Time 199360, Note Name: E4
Note ON: Time 199360, Note Name: C#4, Velocity: 34
Note OFF: Time 199520, Note Name: C#4
Note ON: Time 199520, Note Name: G#3, Velocity: 32
Note OFF: Time 199680, Note Name: G#3
Note ON: Time 199680, Note Name: D#3, Velocity: 31
Note OFF: Time 199840, Note Name: D#3
Note ON: Time 199840, Note Name: A3, Velocity: 35
Note OFF: Time 200000, Note Name: A3
Note ON: Time 200000, Note Name: C#4, Velocity: 39
Note OFF: Time 200160, Note Name: C#4
Note ON: Time 200160, Note Name: F#4, Velocity: 45
Note OFF: Time 200320, Note Name: F#4
Note ON: Time 200320, Note Name: C#4, Velocity: 39
Note OFF: Time 200480, Note Name: C#4
Note ON: Time 200480, Note Name: A3, Velocity: 37
Note OFF: Time 200640, Note Name: A3
Note ON: Time 200640, Note Name: F#3, Velocity: 37
Note OFF: Time 200800, Note Name: F#3
Note ON: Time 200800, Note Name: C#4, Velocity: 40
Note OFF: Time 200960, Note Name: C#4
Note ON: Time 200960, Note Name: D#4, Velocity: 44
Note OFF: Time 201120, Note Name: D#4
Note ON: Time 201120, Note Name: A4, Velocity: 46
Note OFF: Time 201280, Note Name: A4
Note ON: Time 201280, Note Name: D#4, Velocity: 44
Note OFF: Time 201440, Note Name: D#4
Note ON: Time 201440, Note Name: C#4, Velocity: 41
Note OFF: Time 201600, Note Name: C#4
Note ON: Time 201600, Note Name: G#2, Velocity: 33
Note OFF: Time 201760, Note Name: G#2
Note ON: Time 201760, Note Name: D#3, Velocity: 35
Note OFF: Time 201920, Note Name: D#3
Note ON: Time 201920, Note Name: F#3, Velocity: 38
Note OFF: Time 202080, Note Name: F#3
Note ON: Time 202080, Note Name: C4, Velocity: 39
Note OFF: Time 202240, Note Name: C4
Note ON: Time 202240, Note Name: F#3, Velocity: 36
Note OFF: Time 202400, Note Name: F#3
Note ON: Time 202400, Note Name: D#3, Velocity: 34
Note OFF: Time 202560, Note Name: D#3
Note ON: Time 202560, Note Name: G#2, Velocity: 29
Note OFF: Time 202720, Note Name: G#2
Note ON: Time 202720, Note Name: D#3, Velocity: 31
Note OFF: Time 202880, Note Name: D#3
Note ON: Time 202880, Note Name: F#3, Velocity: 33
Note OFF: Time 203040, Note Name: F#3
Note ON: Time 203040, Note Name: C4, Velocity: 33
Note OFF: Time 203200, Note Name: C4
Note ON: Time 203200, Note Name: F#3, Velocity: 29
Note OFF: Time 203360, Note Name: F#3
Note ON: Time 203360, Note Name: D#3, Velocity: 26
Note OFF: Time 203520, Note Name: D#3
Note ON: Time 203520, Note Name: C#3, Velocity: 22
Note OFF: Time 203680, Note Name: C#3
Note ON: Time 203680, Note Name: G#3, Velocity: 25
Note OFF: Time 203840, Note Name: G#3
Note ON: Time 203840, Note Name: C#4, Velocity: 28
Note OFF: Time 204000, Note Name: C#4
Note ON: Time 204000, Note Name: E4, Velocity: 30
Note OFF: Time 204160, Note Name: E4
Note ON: Time 204160, Note Name: C#4, Velocity: 28
Note OFF: Time 204320, Note Name: C#4
Note ON: Time 204320, Note Name: G#3, Velocity: 27
Note OFF: Time 204480, Note Name: G#3
Note ON: Time 204480, Note Name: E3, Velocity: 26
Note OFF: Time 204640, Note Name: E3
Note ON: Time 204640, Note Name: G#3, Velocity: 28
Note OFF: Time 204800, Note Name: G#3
Note ON: Time 204800, Note Name: C#4, Velocity: 30
Note OFF: Time 204960, Note Name: C#4
Note ON: Time 204960, Note Name: E4, Velocity: 31
Note OFF: Time 205120, Note Name: E4
Note ON: Time 205120, Note Name: C#4, Velocity: 28
Note OFF: Time 205280, Note Name: C#4
Note ON: Time 205280, Note Name: G#3, Velocity: 27
Note OFF: Time 205440, Note Name: G#3
Note ON: Time 205440, Note Name: F#3, Velocity: 25
Note OFF: Time 205600, Note Name: F#3
Note ON: Time 205600, Note Name: C#4, Velocity: 29
Note OFF: Time 205760, Note Name: C#4
Note ON: Time 205760, Note Name: D#4, Velocity: 32
Note OFF: Time 205920, Note Name: D#4
Note ON: Time 205920, Note Name: A4, Velocity: 34
Note OFF: Time 206080, Note Name: A4
Note ON: Time 206080, Note Name: D#4, Velocity: 33
Note OFF: Time 206240, Note Name: D#4
Note ON: Time 206240, Note Name: C#4, Velocity: 31
Note OFF: Time 206400, Note Name: C#4
Note ON: Time 206400, Note Name: G#3, Velocity: 30
Note OFF: Time 206560, Note Name: G#3
Note ON: Time 206560, Note Name: C#4, Velocity: 32
Note OFF: Time 206720, Note Name: C#4
Note ON: Time 206720, Note Name: F4, Velocity: 35
Note OFF: Time 206880, Note Name: F4
Note ON: Time 206880, Note Name: B4, Velocity: 37
Note OFF: Time 207040, Note Name: B4
Note ON: Time 207040, Note Name: F4, Velocity: 34
Note OFF: Time 207200, Note Name: F4
Note ON: Time 207200, Note Name: C#4, Velocity: 32
Note OFF: Time 207360, Note Name: C#4
Note ON: Time 207360, Note Name: A3, Velocity: 30
Note OFF: Time 207520, Note Name: A3
Note ON: Time 207520, Note Name: C#4, Velocity: 34
Note OFF: Time 207680, Note Name: C#4
Note ON: Time 207680, Note Name: F#4, Velocity: 37
Note OFF: Time 207840, Note Name: F#4
Note ON: Time 207840, Note Name: A4, Velocity: 40
Note OFF: Time 208000, Note Name: A4
Note ON: Time 208000, Note Name: F#4, Velocity: 39
Note OFF: Time 208160, Note Name: F#4
Note ON: Time 208160, Note Name: C#4, Velocity: 35
Note OFF: Time 208320, Note Name: C#4
Note ON: Time 208320, Note Name: G#3, Velocity: 34
Note OFF: Time 208480, Note Name: G#3
Note ON: Time 208480, Note Name: C#4, Velocity: 36
Note OFF: Time 208640, Note Name: C#4
Note ON: Time 208640, Note Name: F4, Velocity: 39
Note OFF: Time 208800, Note Name: F4
Note ON: Time 208800, Note Name: B4, Velocity: 40
Note OFF: Time 208960, Note Name: B4
Note ON: Time 208960, Note Name: F4, Velocity: 37
Note OFF: Time 209120, Note Name: F4
Note ON: Time 209120, Note Name: C#4, Velocity: 34
Note OFF: Time 209280, Note Name: C#4
Note ON: Time 209280, Note Name: A3, Velocity: 32
Note OFF: Time 209440, Note Name: A3
Note ON: Time 209440, Note Name: C#4, Velocity: 36
Note OFF: Time 209600, Note Name: C#4
Note ON: Time 209600, Note Name: F#4, Velocity: 39
Note OFF: Time 209760, Note Name: F#4
Note ON: Time 209760, Note Name: A4, Velocity: 42
Note OFF: Time 209920, Note Name: A4
Note ON: Time 209920, Note Name: F#4, Velocity: 40
Note OFF: Time 210080, Note Name: F#4
Note ON: Time 210080, Note Name: C#4, Velocity: 38
Note OFF: Time 210240, Note Name: C#4
Note ON: Time 210240, Note Name: C3, Velocity: 36
Note OFF: Time 210400, Note Name: C3
Note ON: Time 210400, Note Name: F#3, Velocity: 38
Note OFF: Time 210560, Note Name: F#3
Note ON: Time 210560, Note Name: G#3, Velocity: 41
Note OFF: Time 210720, Note Name: G#3
Note ON: Time 210720, Note Name: D#4, Velocity: 42
Note OFF: Time 210880, Note Name: D#4
Note ON: Time 210880, Note Name: G#3, Velocity: 39
Note OFF: Time 211040, Note Name: G#3
Note ON: Time 211040, Note Name: F#3, Velocity: 37
Note OFF: Time 211200, Note Name: F#3
Note ON: Time 211200, Note Name: C#3, Velocity: 35
Note OFF: Time 211360, Note Name: C#3
Note ON: Time 211360, Note Name: G#3, Velocity: 39
Note OFF: Time 211520, Note Name: G#3
Note ON: Time 211520, Note Name: C#4, Velocity: 43
Note OFF: Time 211680, Note Name: C#4
Note ON: Time 211680, Note Name: E4, Velocity: 45
Note OFF: Time 211840, Note Name: E4
Note ON: Time 211840, Note Name: C#4, Velocity: 44
Note OFF: Time 212000, Note Name: C#4
Note ON: Time 212000, Note Name: G#3, Velocity: 42
Note OFF: Time 212160, Note Name: G#3
Note ON: Time 212160, Note Name: D#3, Velocity: 44
Note OFF: Time 212320, Note Name: D#3
Note ON: Time 212320, Note Name: G#3, Velocity: 41
Note OFF: Time 212480, Note Name: G#3
Note ON: Time 212480, Note Name: C4, Velocity: 45
Note OFF: Time 212640, Note Name: C4
Note ON: Time 212640, Note Name: F#4, Velocity: 46
Note OFF: Time 212800, Note Name: F#4
Note ON: Time 212800, Note Name: C4, Velocity: 44
Note OFF: Time 212960, Note Name: C4
Note ON: Time 212960, Note Name: G#3, Velocity: 41
Note OFF: Time 213120, Note Name: G#3
Note ON: Time 213120, Note Name: E3, Velocity: 35
Note OFF: Time 213280, Note Name: E3
Note ON: Time 213280, Note Name: G#3, Velocity: 39
Note OFF: Time 213440, Note Name: G#3
Note ON: Time 213440, Note Name: C#4, Velocity: 43
Note OFF: Time 213600, Note Name: C#4
Note ON: Time 213600, Note Name: E4, Velocity: 45
Note OFF: Time 213760, Note Name: E4
Note ON: Time 213760, Note Name: C#4, Velocity: 44
Note OFF: Time 213920, Note Name: C#4
Note ON: Time 213920, Note Name: G#3, Velocity: 42
Note OFF: Time 214080, Note Name: G#3
Note ON: Time 214080, Note Name: F#3, Velocity: 44
Note OFF: Time 214240, Note Name: F#3
Note ON: Time 214240, Note Name: C#4, Velocity: 41
Note OFF: Time 214400, Note Name: C#4
Note ON: Time 214400, Note Name: D#4, Velocity: 45
Note OFF: Time 214560, Note Name: D#4
Note ON: Time 214560, Note Name: A4, Velocity: 46
Note OFF: Time 214720, Note Name: A4
Note ON: Time 214720, Note Name: D#4, Velocity: 48
Note OFF: Time 214880, Note Name: D#4
Note ON: Time 214880, Note Name: C#4, Velocity: 51
Note OFF: Time 215040, Note Name: C#4
Note ON: Time 215040, Note Name: G#4, Velocity: 71
Note ON: Time 215040, Note Name: E4, Velocity: 71
Note ON: Time 215040, Note Name: C#4, Velocity: 71
Note ON: Time 215040, Note Name: G#3, Velocity: 71
Note OFF: Time 215280, Note Name: G#3
Note OFF: Time 215280, Note Name: G#4
Note OFF: Time 215280, Note Name: E4
Note OFF: Time 215280, Note Name: C#4
Note ON: Time 216000, Note Name: A4, Velocity: 71
Note ON: Time 216000, Note Name: E4, Velocity: 71
Note ON: Time 216000, Note Name: C#4, Velocity: 71
Note ON: Time 216000, Note Name: G3, Velocity: 71
Note OFF: Time 216480, Note Name: G3
Note OFF: Time 216480, Note Name: A4
Note OFF: Time 216480, Note Name: E4
Note OFF: Time 216480, Note Name: C#4
Note ON: Time 218880, Note Name: G#1, Velocity: 78
Note ON: Time 218880, Note Name: G#2, Velocity: 78
Note OFF: Time 219000, Note Name: G#2
Note OFF: Time 219000, Note Name: G#1
Note ON: Time 219360, Note Name: E5, Velocity: 75
Note ON: Time 219360, Note Name: E4, Velocity: 75
Note OFF: Time 219840, Note Name: E4
Note OFF: Time 219840, Note Name: E5
Note ON: Time 219840, Note Name: C#4, Velocity: 78
Note ON: Time 219840, Note Name: C#5, Velocity: 78
Note OFF: Time 220320, Note Name: C#5
Note OFF: Time 220320, Note Name: C#4
Note ON: Time 220320, Note Name: G#3, Velocity: 78
Note ON: Time 220320, Note Name: G#4, Velocity: 78
Note OFF: Time 220800, Note Name: G#4
Note OFF: Time 220800, Note Name: G#3
Note ON: Time 220800, Note Name: E3, Velocity: 78
Note ON: Time 220800, Note Name: E4, Velocity: 78
Note OFF: Time 221280, Note Name: E4
Note OFF: Time 221280, Note Name: E3
Note ON: Time 221280, Note Name: C#3, Velocity: 74
Note ON: Time 221280, Note Name: C#4, Velocity: 74
Note OFF: Time 221760, Note Name: C#4
Note OFF: Time 221760, Note Name: C#3
Note ON: Time 221760, Note Name: G#2, Velocity: 78
Note ON: Time 221760, Note Name: G#3, Velocity: 78
Note OFF: Time 222240, Note Name: G#3
Note OFF: Time 222240, Note Name: G#2
Note ON: Time 222240, Note Name: E2, Velocity: 74
Note ON: Time 222240, Note Name: E3, Velocity: 74
Note OFF: Time 222720, Note Name: E3
Note OFF: Time 222720, Note Name: E2
Note ON: Time 222720, Note Name: C#2, Velocity: 78
Note ON: Time 222720, Note Name: C#3, Velocity: 78
Note OFF: Time 223200, Note Name: C#3
Note OFF: Time 223200, Note Name: C#2
Note ON: Time 223200, Note Name: G#1, Velocity: 73
Note ON: Time 223200, Note Name: G#2, Velocity: 73
Note OFF: Time 223680, Note Name: G#2
Note OFF: Time 223680, Note Name: G#1
Note ON: Time 223680, Note Name: G#1, Velocity: 78
Note ON: Time 223680, Note Name: G#2, Velocity: 78
Note OFF: Time 224160, Note Name: G#2
Note OFF: Time 224160, Note Name: G#1
Note ON: Time 224160, Note Name: A1, Velocity: 74
Note ON: Time 224160, Note Name: A2, Velocity: 74
Note OFF: Time 224640, Note Name: A2
Note OFF: Time 224640, Note Name: A1
Note ON: Time 224640, Note Name: G#1, Velocity: 78
Note ON: Time 224640, Note Name: G#2, Velocity: 78
Note OFF: Time 225120, Note Name: G#2
Note OFF: Time 225120, Note Name: G#1
Note ON: Time 225120, Note Name: G1, Velocity: 72
Note ON: Time 225120, Note Name: G2, Velocity: 72
Note OFF: Time 225600, Note Name: G2
Note OFF: Time 225600, Note Name: G1
Note ON: Time 225600, Note Name: G#1, Velocity: 69
Note ON: Time 225600, Note Name: G#2, Velocity: 69
Note OFF: Time 226560, Note Name: G#2
Note OFF: Time 226560, Note Name: G#1
Note ON: Time 226560, Note Name: C#2, Velocity: 93
Note OFF: Time 226800, Note Name: C#2
Note ON: Time 226800, Note Name: E3, Velocity: 56
Note OFF: Time 227040, Note Name: E3
Note ON: Time 227040, Note Name: C#3, Velocity: 58
Note OFF: Time 227280, Note Name: C#3
Note ON: Time 227280, Note Name: G#2, Velocity: 58
Note OFF: Time 227520, Note Name: G#2
Note ON: Time 227520, Note Name: C#2, Velocity: 63
Note OFF: Time 227760, Note Name: C#2
Note ON: Time 227760, Note Name: F#3, Velocity: 58
Note OFF: Time 228000, Note Name: F#3
Note ON: Time 228000, Note Name: C3, Velocity: 58
Note OFF: Time 228240, Note Name: C3
Note ON: Time 228240, Note Name: G#2, Velocity: 58
Note OFF: Time 228480, Note Name: G#2
Note ON: Time 228480, Note Name: C#2, Velocity: 63
Note OFF: Time 228720, Note Name: C#2
Note ON: Time 228720, Note Name: E3, Velocity: 58
Note OFF: Time 228960, Note Name: E3
Note ON: Time 228960, Note Name: C#3, Velocity: 58
Note OFF: Time 229200, Note Name: C#3
Note ON: Time 229200, Note Name: G#2, Velocity: 58
Note OFF: Time 229440, Note Name: G#2
Note ON: Time 229440, Note Name: C#2, Velocity: 47
Note OFF: Time 229680, Note Name: C#2
Note ON: Time 229680, Note Name: F#3, Velocity: 43
Note OFF: Time 229920, Note Name: F#3
Note ON: Time 229920, Note Name: C3, Velocity: 43
Note OFF: Time 230160, Note Name: C3
Note ON: Time 230160, Note Name: G#2, Velocity: 43
Note OFF: Time 230400, Note Name: G#2
Note ON: Time 230400, Note Name: C#2, Velocity: 47
Note OFF: Time 230640, Note Name: C#2
Note ON: Time 230640, Note Name: E3, Velocity: 43
Note OFF: Time 230880, Note Name: E3
Note ON: Time 230880, Note Name: C#3, Velocity: 58
Note OFF: Time 231120, Note Name: C#3
Note ON: Time 231120, Note Name: G#2, Velocity: 58
Note OFF: Time 231360, Note Name: G#2
Note ON: Time 231360, Note Name: C#2, Velocity: 63
Note OFF: Time 231600, Note Name: C#2
Note ON: Time 231600, Note Name: F#3, Velocity: 58
Note OFF: Time 231840, Note Name: F#3
Note ON: Time 231840, Note Name: C3, Velocity: 58
Note OFF: Time 232080, Note Name: C3
Note ON: Time 232080, Note Name: G#2, Velocity: 58
Note OFF: Time 232320, Note Name: G#2
Note ON: Time 232320, Note Name: C#2, Velocity: 63
Note OFF: Time 232560, Note Name: C#2
Note ON: Time 232560, Note Name: E3, Velocity: 58
Note OFF: Time 232800, Note Name: E3
Note ON: Time 232800, Note Name: C#3, Velocity: 58
Note OFF: Time 233040, Note Name: C#3
Note ON: Time 233040, Note Name: G#2, Velocity: 58
Note OFF: Time 233280, Note Name: G#2
Note ON: Time 233280, Note Name: C#2, Velocity: 47
Note OFF: Time 233520, Note Name: C#2
Note ON: Time 233520, Note Name: F#3, Velocity: 36
Note OFF: Time 233760, Note Name: F#3
Note ON: Time 233760, Note Name: C3, Velocity: 36
Note OFF: Time 234000, Note Name: C3
Note ON: Time 234000, Note Name: G#2, Velocity: 36
Note OFF: Time 234240, Note Name: G#2
Note ON: Time 234240, Note Name: C#2, Velocity: 39
Note OFF: Time 234480, Note Name: C#2
Note ON: Time 234480, Note Name: E3, Velocity: 36
Note OFF: Time 234720, Note Name: E3
Note ON: Time 234720, Note Name: C#3, Velocity: 36
Note OFF: Time 234960, Note Name: C#3
Note ON: Time 234960, Note Name: G#2, Velocity: 36
Note OFF: Time 235200, Note Name: G#2
Note ON: Time 235200, Note Name: C#2, Velocity: 39
Note OFF: Time 235440, Note Name: C#2
Note ON: Time 235440, Note Name: G#3, Velocity: 36
Note OFF: Time 235680, Note Name: G#3
Note ON: Time 235680, Note Name: C#3, Velocity: 36
Note OFF: Time 235920, Note Name: C#3
Note ON: Time 235920, Note Name: G#2, Velocity: 36
Note OFF: Time 236160, Note Name: G#2
Note ON: Time 236160, Note Name: C#2, Velocity: 39
Note OFF: Time 236400, Note Name: C#2
Note ON: Time 236400, Note Name: E3, Velocity: 36
Note OFF: Time 236640, Note Name: E3
Note ON: Time 236640, Note Name: C#3, Velocity: 36
Note OFF: Time 236880, Note Name: C#3
Note ON: Time 236880, Note Name: G#2, Velocity: 36
Note OFF: Time 237120, Note Name: G#2
Note ON: Time 237120, Note Name: C#2, Velocity: 39
Note OFF: Time 237360, Note Name: C#2
Note ON: Time 237360, Note Name: G#3, Velocity: 36
Note OFF: Time 237600, Note Name: G#3
Note ON: Time 237600, Note Name: C#3, Velocity: 36
Note OFF: Time 237840, Note Name: C#3
Note ON: Time 237840, Note Name: G#2, Velocity: 36
Note OFF: Time 238080, Note Name: G#2
Note ON: Time 238080, Note Name: C#2, Velocity: 39
Note OFF: Time 238320, Note Name: C#2
Note ON: Time 238320, Note Name: E3, Velocity: 35
Note OFF: Time 238560, Note Name: E3
Note ON: Time 238560, Note Name: C#3, Velocity: 35
Note OFF: Time 238800, Note Name: C#3
Note ON: Time 238800, Note Name: G#2, Velocity: 34
Note OFF: Time 239040, Note Name: G#2
Note ON: Time 239040, Note Name: C#2, Velocity: 38
Note OFF: Time 239280, Note Name: C#2
Note ON: Time 239280, Note Name: E3, Velocity: 34
Note OFF: Time 239520, Note Name: E3
Note ON: Time 239520, Note Name: C#3, Velocity: 33
Note OFF: Time 239760, Note Name: C#3
Note ON: Time 239760, Note Name: G#2, Velocity: 33
Note OFF: Time 240000, Note Name: G#2
Note ON: Time 240000, Note Name: C#2, Velocity: 35
Note OFF: Time 240240, Note Name: C#2
Note ON: Time 240240, Note Name: E3, Velocity: 31
Note OFF: Time 240480, Note Name: E3
Note ON: Time 240480, Note Name: C#3, Velocity: 31
Note OFF: Time 240720, Note Name: C#3
Note ON: Time 240720, Note Name: G#2, Velocity: 30
Note OFF: Time 240960, Note Name: G#2
Note ON: Time 240960, Note Name: C#2, Velocity: 34
Note OFF: Time 241200, Note Name: C#2
Note ON: Time 241200, Note Name: E3, Velocity: 30
Note OFF: Time 241440, Note Name: E3
Note ON: Time 241440, Note Name: C#3, Velocity: 29
Note OFF: Time 241680, Note Name: C#3
Note ON: Time 241680, Note Name: G#2, Velocity: 29
Note OFF: Time 241920, Note Name: G#2
Note ON: Time 241920, Note Name: C#2, Velocity: 31
Note OFF: Time 242400, Note Name: C#2
Note ON: Time 245760, Note Name: C#2, Velocity: 39
Note ON: Time 245760, Note Name: G#2, Velocity: 48
Note OFF: Time 247680, Note Name: G#2
Note OFF: Time 247680, Note Name: C#2
Note ON: Time 247680, Note Name: A#2, Velocity: 47
Note OFF: Time 248160, Note Name: A#2
Note ON: Time 248160, Note Name: G#2, Velocity: 50
Note OFF: Time 248640, Note Name: G#2
Note ON: Time 248640, Note Name: C#3, Velocity: 52
Note OFF: Time 249120, Note Name: C#3
Note ON: Time 249120, Note Name: D#3, Velocity: 56
Note OFF: Time 249600, Note Name: D#3
Note ON: Time 249600, Note Name: F3, Velocity: 58
Note OFF: Time 251520, Note Name: F3
Note ON: Time 251520, Note Name: G#3, Velocity: 60
Note OFF: Time 253440, Note Name: G#3
Note ON: Time 253440, Note Name: F#3, Velocity: 56
Note OFF: Time 254400, Note Name: F#3
Note ON: Time 254400, Note Name: F3, Velocity: 56
Note OFF: Time 255360, Note Name: F3
Note ON: Time 255360, Note Name: D#3, Velocity: 57
Note OFF: Time 256320, Note Name: D#3
Note ON: Time 256320, Note Name: F3, Velocity: 56
Note OFF: Time 256800, Note Name: F3
Note ON: Time 256800, Note Name: C#3, Velocity: 48
Note OFF: Time 257280, Note Name: C#3
Note ON: Time 257280, Note Name: G#2, Velocity: 53
Note OFF: Time 259200, Note Name: G#2
Note ON: Time 259200, Note Name: G#1, Velocity: 50
Note ON: Time 259200, Note Name: G#2, Velocity: 50
Note OFF: Time 261120, Note Name: G#2
Note OFF: Time 261120, Note Name: G#1
Note ON: Time 261120, Note Name: C#2, Velocity: 33
Note ON: Time 261180, Note Name: G#2, Velocity: 36
Note OFF: Time 263040, Note Name: G#2
Note OFF: Time 263040, Note Name: C#2
Note ON: Time 263040, Note Name: C#2, Velocity: 31
Note ON: Time 263100, Note Name: G#2, Velocity: 37
Note OFF: Time 264960, Note Name: G#2
Note OFF: Time 264960, Note Name: C#2
Track 3: Chopin: Fantasie-Impormptu  C# minor Op. 66
Track 4: Copyright  2003 by Bernd Krueger
Track 5: http://www.piano-midi.de
Track 6: Edition: 2014-02-28
Track 7: Spur 7
