Processing chpn-p10.mid...

Track 0: Prelude No. 10
Track 1: Piano right
Note ON: Time 960, Note Name: G#6, Velocity: 50
Note OFF: Time 1040, Note Name: G#6
Note ON: Time 1040, Note Name: A6, Velocity: 43
Note OFF: Time 1120, Note Name: A6
Note ON: Time 1120, Note Name: G#6, Velocity: 46
Note OFF: Time 1200, Note Name: G#6
Note ON: Time 1200, Note Name: A6, Velocity: 41
Note OFF: Time 1280, Note Name: A6
Note ON: Time 1280, Note Name: G#6, Velocity: 44
Note OFF: Time 1360, Note Name: G#6
Note ON: Time 1360, Note Name: G6, Velocity: 40
Note OFF: Time 1440, Note Name: G6
Note ON: Time 1440, Note Name: G#6, Velocity: 35
Note ON: Time 1440, Note Name: C#7, Velocity: 50
Note OFF: Time 1520, Note Name: C#7
Note OFF: Time 1520, Note Name: G#6
Note ON: Time 1520, Note Name: A6, Velocity: 45
Note OFF: Time 1600, Note Name: A6
Note ON: Time 1600, Note Name: G#6, Velocity: 37
Note OFF: Time 1680, Note Name: G#6
Note ON: Time 1680, Note Name: E6, Velocity: 44
Note OFF: Time 1800, Note Name: E6
Note ON: Time 1800, Note Name: D#6, Velocity: 39
Note OFF: Time 1920, Note Name: D#6
Note ON: Time 1920, Note Name: G#6, Velocity: 50
Note ON: Time 1920, Note Name: C#6, Velocity: 35
Note OFF: Time 2000, Note Name: C#6
Note OFF: Time 2000, Note Name: G#6
Note ON: Time 2000, Note Name: D#6, Velocity: 45
Note OFF: Time 2080, Note Name: D#6
Note ON: Time 2080, Note Name: C#6, Velocity: 40
Note OFF: Time 2160, Note Name: C#6
Note ON: Time 2160, Note Name: A5, Velocity: 45
Note OFF: Time 2280, Note Name: A5
Note ON: Time 2280, Note Name: G#5, Velocity: 40
Note OFF: Time 2400, Note Name: G#5
Note ON: Time 2400, Note Name: C#6, Velocity: 50
Note ON: Time 2400, Note Name: F#5, Velocity: 35
Note OFF: Time 2480, Note Name: F#5
Note OFF: Time 2480, Note Name: C#6
Note ON: Time 2480, Note Name: G#5, Velocity: 45
Note OFF: Time 2560, Note Name: G#5
Note ON: Time 2560, Note Name: F#5, Velocity: 37
Note OFF: Time 2640, Note Name: F#5
Note ON: Time 2640, Note Name: E5, Velocity: 41
Note OFF: Time 2760, Note Name: E5
Note ON: Time 2760, Note Name: D#5, Velocity: 37
Note OFF: Time 2880, Note Name: D#5
Note ON: Time 2880, Note Name: G#5, Velocity: 50
Note ON: Time 2880, Note Name: C#5, Velocity: 35
Note OFF: Time 2960, Note Name: C#5
Note OFF: Time 2960, Note Name: G#5
Note ON: Time 2960, Note Name: D#5, Velocity: 44
Note OFF: Time 3040, Note Name: D#5
Note ON: Time 3040, Note Name: C#5, Velocity: 37
Note OFF: Time 3120, Note Name: C#5
Note ON: Time 3120, Note Name: A4, Velocity: 40
Note OFF: Time 3240, Note Name: A4
Note ON: Time 3240, Note Name: G#4, Velocity: 38
Note OFF: Time 3360, Note Name: G#4
Note ON: Time 3360, Note Name: F#4, Velocity: 35
Note ON: Time 3360, Note Name: C#5, Velocity: 50
Note OFF: Time 3440, Note Name: C#5
Note OFF: Time 3440, Note Name: F#4
Note ON: Time 3440, Note Name: G#4, Velocity: 44
Note OFF: Time 3520, Note Name: G#4
Note ON: Time 3520, Note Name: F#4, Velocity: 36
Note OFF: Time 3600, Note Name: F#4
Note ON: Time 3600, Note Name: E4, Velocity: 40
Note OFF: Time 3720, Note Name: E4
Note ON: Time 3720, Note Name: D#4, Velocity: 36
Note OFF: Time 3840, Note Name: D#4
Note ON: Time 3840, Note Name: C#4, Velocity: 35
Note ON: Time 3840, Note Name: G#4, Velocity: 50
Note OFF: Time 3920, Note Name: G#4
Note OFF: Time 3920, Note Name: C#4
Note ON: Time 3920, Note Name: D#4, Velocity: 44
Note OFF: Time 4000, Note Name: D#4
Note ON: Time 4000, Note Name: C#4, Velocity: 36
Note OFF: Time 4080, Note Name: C#4
Note ON: Time 4080, Note Name: B3, Velocity: 40
Note OFF: Time 4200, Note Name: B3
Note ON: Time 4200, Note Name: A3, Velocity: 35
Note OFF: Time 4320, Note Name: A3
Note ON: Time 6720, Note Name: E4, Velocity: 45
Note OFF: Time 7200, Note Name: E4
Note ON: Time 7200, Note Name: C#7, Velocity: 50
Note ON: Time 7200, Note Name: G#6, Velocity: 35
Note OFF: Time 7280, Note Name: G#6
Note OFF: Time 7280, Note Name: C#7
Note ON: Time 7280, Note Name: A6, Velocity: 45
Note OFF: Time 7360, Note Name: A6
Note ON: Time 7360, Note Name: G#6, Velocity: 38
Note OFF: Time 7440, Note Name: G#6
Note ON: Time 7440, Note Name: E6, Velocity: 43
Note OFF: Time 7560, Note Name: E6
Note ON: Time 7560, Note Name: D#6, Velocity: 39
Note OFF: Time 7680, Note Name: D#6
Note ON: Time 7680, Note Name: G#6, Velocity: 50
Note ON: Time 7680, Note Name: C#6, Velocity: 35
Note OFF: Time 7760, Note Name: C#6
Note OFF: Time 7760, Note Name: G#6
Note ON: Time 7760, Note Name: D#6, Velocity: 45
Note OFF: Time 7840, Note Name: D#6
Note ON: Time 7840, Note Name: C#6, Velocity: 40
Note OFF: Time 7920, Note Name: C#6
Note ON: Time 7920, Note Name: A5, Velocity: 43
Note OFF: Time 8040, Note Name: A5
Note ON: Time 8040, Note Name: G#5, Velocity: 39
Note OFF: Time 8160, Note Name: G#5
Note ON: Time 8160, Note Name: C#6, Velocity: 50
Note ON: Time 8160, Note Name: F#5, Velocity: 35
Note OFF: Time 8240, Note Name: F#5
Note OFF: Time 8240, Note Name: C#6
Note ON: Time 8240, Note Name: G#5, Velocity: 45
Note OFF: Time 8320, Note Name: G#5
Note ON: Time 8320, Note Name: F#5, Velocity: 38
Note OFF: Time 8400, Note Name: F#5
Note ON: Time 8400, Note Name: E5, Velocity: 42
Note OFF: Time 8520, Note Name: E5
Note ON: Time 8520, Note Name: D#5, Velocity: 38
Note OFF: Time 8640, Note Name: D#5
Note ON: Time 8640, Note Name: C#5, Velocity: 35
Note ON: Time 8640, Note Name: G#5, Velocity: 50
Note OFF: Time 8720, Note Name: G#5
Note OFF: Time 8720, Note Name: C#5
Note ON: Time 8720, Note Name: D#5, Velocity: 45
Note OFF: Time 8800, Note Name: D#5
Note ON: Time 8800, Note Name: C#5, Velocity: 38
Note OFF: Time 8880, Note Name: C#5
Note ON: Time 8880, Note Name: A4, Velocity: 40
Note OFF: Time 9000, Note Name: A4
Note ON: Time 9000, Note Name: G#4, Velocity: 38
Note OFF: Time 9120, Note Name: G#4
Note ON: Time 9120, Note Name: F#4, Velocity: 35
Note ON: Time 9120, Note Name: C#5, Velocity: 50
Note OFF: Time 9200, Note Name: C#5
Note OFF: Time 9200, Note Name: F#4
Note ON: Time 9200, Note Name: G#4, Velocity: 45
Note OFF: Time 9280, Note Name: G#4
Note ON: Time 9280, Note Name: F#4, Velocity: 36
Note OFF: Time 9360, Note Name: F#4
Note ON: Time 9360, Note Name: E4, Velocity: 40
Note OFF: Time 9480, Note Name: E4
Note ON: Time 9480, Note Name: D#4, Velocity: 37
Note OFF: Time 9600, Note Name: D#4
Note ON: Time 9600, Note Name: G#4, Velocity: 50
Note ON: Time 9600, Note Name: C#4, Velocity: 35
Note OFF: Time 9680, Note Name: C#4
Note OFF: Time 9680, Note Name: G#4
Note ON: Time 9680, Note Name: D#4, Velocity: 45
Note OFF: Time 9760, Note Name: D#4
Note ON: Time 9760, Note Name: C#4, Velocity: 36
Note OFF: Time 9840, Note Name: C#4
Note ON: Time 9840, Note Name: B3, Velocity: 40
Note OFF: Time 9960, Note Name: B3
Note ON: Time 9960, Note Name: A#3, Velocity: 38
Note OFF: Time 10080, Note Name: A#3
Note ON: Time 10560, Note Name: D#4, Velocity: 55
Note OFF: Time 11520, Note Name: D#4
Note ON: Time 12480, Note Name: G#4, Velocity: 46
Note OFF: Time 12960, Note Name: G#4
Note ON: Time 12960, Note Name: F#6, Velocity: 31
Note ON: Time 12960, Note Name: C#7, Velocity: 45
Note OFF: Time 13040, Note Name: C#7
Note OFF: Time 13040, Note Name: F#6
Note ON: Time 13040, Note Name: G#6, Velocity: 40
Note OFF: Time 13120, Note Name: G#6
Note ON: Time 13120, Note Name: F#6, Velocity: 36
Note OFF: Time 13200, Note Name: F#6
Note ON: Time 13200, Note Name: D6, Velocity: 38
Note OFF: Time 13320, Note Name: D6
Note ON: Time 13320, Note Name: C#6, Velocity: 36
Note OFF: Time 13440, Note Name: C#6
Note ON: Time 13440, Note Name: B5, Velocity: 31
Note ON: Time 13440, Note Name: F#6, Velocity: 45
Note OFF: Time 13520, Note Name: F#6
Note OFF: Time 13520, Note Name: B5
Note ON: Time 13520, Note Name: C#6, Velocity: 40
Note OFF: Time 13600, Note Name: C#6
Note ON: Time 13600, Note Name: B5, Velocity: 36
Note OFF: Time 13680, Note Name: B5
Note ON: Time 13680, Note Name: A5, Velocity: 39
Note OFF: Time 13800, Note Name: A5
Note ON: Time 13800, Note Name: G#5, Velocity: 36
Note OFF: Time 13920, Note Name: G#5
Note ON: Time 13920, Note Name: F#5, Velocity: 30
Note ON: Time 13920, Note Name: C#6, Velocity: 45
Note OFF: Time 14000, Note Name: C#6
Note OFF: Time 14000, Note Name: F#5
Note ON: Time 14000, Note Name: G#5, Velocity: 40
Note OFF: Time 14080, Note Name: G#5
Note ON: Time 14080, Note Name: F#5, Velocity: 36
Note OFF: Time 14160, Note Name: F#5
Note ON: Time 14160, Note Name: D5, Velocity: 39
Note OFF: Time 14280, Note Name: D5
Note ON: Time 14280, Note Name: C#5, Velocity: 35
Note OFF: Time 14400, Note Name: C#5
Note ON: Time 14400, Note Name: F#5, Velocity: 45
Note ON: Time 14400, Note Name: B4, Velocity: 31
Note OFF: Time 14480, Note Name: B4
Note OFF: Time 14480, Note Name: F#5
Note ON: Time 14480, Note Name: C#5, Velocity: 40
Note OFF: Time 14560, Note Name: C#5
Note ON: Time 14560, Note Name: B4, Velocity: 35
Note OFF: Time 14640, Note Name: B4
Note ON: Time 14640, Note Name: A4, Velocity: 37
Note OFF: Time 14760, Note Name: A4
Note ON: Time 14760, Note Name: G#4, Velocity: 36
Note OFF: Time 14880, Note Name: G#4
Note ON: Time 14880, Note Name: C#5, Velocity: 45
Note ON: Time 14880, Note Name: F#4, Velocity: 31
Note OFF: Time 14960, Note Name: F#4
Note OFF: Time 14960, Note Name: C#5
Note ON: Time 14960, Note Name: G#4, Velocity: 40
Note OFF: Time 15040, Note Name: G#4
Note ON: Time 15040, Note Name: F#4, Velocity: 34
Note OFF: Time 15120, Note Name: F#4
Note ON: Time 15120, Note Name: D4, Velocity: 35
Note OFF: Time 15240, Note Name: D4
Note ON: Time 15240, Note Name: C#4, Velocity: 30
Note OFF: Time 15360, Note Name: C#4
Note ON: Time 15360, Note Name: F#4, Velocity: 45
Note ON: Time 15360, Note Name: B3, Velocity: 31
Note OFF: Time 15440, Note Name: B3
Note OFF: Time 15440, Note Name: F#4
Note ON: Time 15440, Note Name: C#4, Velocity: 40
Note OFF: Time 15520, Note Name: C#4
Note ON: Time 15520, Note Name: B3, Velocity: 35
Note OFF: Time 15600, Note Name: B3
Note ON: Time 15600, Note Name: A3, Velocity: 37
Note OFF: Time 15720, Note Name: A3
Note ON: Time 15720, Note Name: G#3, Velocity: 32
Note OFF: Time 15840, Note Name: G#3
Note ON: Time 16320, Note Name: C#4, Velocity: 45
Note OFF: Time 16800, Note Name: C#4
Note ON: Time 16800, Note Name: D#4, Velocity: 56
Note OFF: Time 17280, Note Name: D#4
Note ON: Time 17760, Note Name: D#4, Velocity: 37
Note OFF: Time 18240, Note Name: D#4
Note ON: Time 18240, Note Name: E4, Velocity: 35
Note OFF: Time 18720, Note Name: E4
Note ON: Time 18720, Note Name: G#6, Velocity: 35
Note ON: Time 18720, Note Name: C#7, Velocity: 50
Note OFF: Time 18800, Note Name: C#7
Note OFF: Time 18800, Note Name: G#6
Note ON: Time 18800, Note Name: A6, Velocity: 49
Note OFF: Time 18880, Note Name: A6
Note ON: Time 18880, Note Name: G#6, Velocity: 40
Note OFF: Time 18960, Note Name: G#6
Note ON: Time 18960, Note Name: E6, Velocity: 45
Note OFF: Time 19080, Note Name: E6
Note ON: Time 19080, Note Name: D#6, Velocity: 39
Note OFF: Time 19200, Note Name: D#6
Note ON: Time 19200, Note Name: G#6, Velocity: 50
Note ON: Time 19200, Note Name: C#6, Velocity: 35
Note OFF: Time 19280, Note Name: C#6
Note OFF: Time 19280, Note Name: G#6
Note ON: Time 19280, Note Name: D#6, Velocity: 45
Note OFF: Time 19360, Note Name: D#6
Note ON: Time 19360, Note Name: C#6, Velocity: 40
Note OFF: Time 19440, Note Name: C#6
Note ON: Time 19440, Note Name: A5, Velocity: 44
Note OFF: Time 19560, Note Name: A5
Note ON: Time 19560, Note Name: G#5, Velocity: 39
Note OFF: Time 19680, Note Name: G#5
Note ON: Time 19680, Note Name: F#5, Velocity: 35
Note ON: Time 19680, Note Name: C#6, Velocity: 50
Note OFF: Time 19760, Note Name: C#6
Note OFF: Time 19760, Note Name: F#5
Note ON: Time 19760, Note Name: G#5, Velocity: 44
Note OFF: Time 19840, Note Name: G#5
Note ON: Time 19840, Note Name: F#5, Velocity: 36
Note OFF: Time 19920, Note Name: F#5
Note ON: Time 19920, Note Name: E5, Velocity: 42
Note OFF: Time 20040, Note Name: E5
Note ON: Time 20040, Note Name: D#5, Velocity: 37
Note OFF: Time 20160, Note Name: D#5
Note ON: Time 20160, Note Name: C#5, Velocity: 35
Note ON: Time 20160, Note Name: G#5, Velocity: 50
Note OFF: Time 20240, Note Name: G#5
Note OFF: Time 20240, Note Name: C#5
Note ON: Time 20240, Note Name: D#5, Velocity: 45
Note OFF: Time 20320, Note Name: D#5
Note ON: Time 20320, Note Name: C#5, Velocity: 37
Note OFF: Time 20400, Note Name: C#5
Note ON: Time 20400, Note Name: A4, Velocity: 40
Note OFF: Time 20520, Note Name: A4
Note ON: Time 20520, Note Name: G#4, Velocity: 35
Note OFF: Time 20640, Note Name: G#4
Note ON: Time 20640, Note Name: C#5, Velocity: 50
Note ON: Time 20640, Note Name: F#4, Velocity: 35
Note OFF: Time 20720, Note Name: F#4
Note OFF: Time 20720, Note Name: C#5
Note ON: Time 20720, Note Name: G#4, Velocity: 45
Note OFF: Time 20800, Note Name: G#4
Note ON: Time 20800, Note Name: F#4, Velocity: 37
Note OFF: Time 20880, Note Name: F#4
Note ON: Time 20880, Note Name: E4, Velocity: 40
Note OFF: Time 21000, Note Name: E4
Note ON: Time 21000, Note Name: D#4, Velocity: 35
Note OFF: Time 21120, Note Name: D#4
Note ON: Time 21120, Note Name: G#4, Velocity: 50
Note ON: Time 21120, Note Name: C#4, Velocity: 35
Note OFF: Time 21200, Note Name: C#4
Note OFF: Time 21200, Note Name: G#4
Note ON: Time 21200, Note Name: D#4, Velocity: 45
Note OFF: Time 21280, Note Name: D#4
Note ON: Time 21280, Note Name: C#4, Velocity: 33
Note OFF: Time 21360, Note Name: C#4
Note ON: Time 21360, Note Name: B3, Velocity: 38
Note OFF: Time 21480, Note Name: B3
Note ON: Time 21480, Note Name: A3, Velocity: 33
Note OFF: Time 21600, Note Name: A3
Note ON: Time 23400, Note Name: E4, Velocity: 57
Note OFF: Time 23520, Note Name: E4
Note ON: Time 24000, Note Name: A4, Velocity: 49
Note OFF: Time 24960, Note Name: A4
Note ON: Time 26280, Note Name: E4, Velocity: 35
Note OFF: Time 26400, Note Name: E4
Note ON: Time 26400, Note Name: C#4, Velocity: 38
Note OFF: Time 26880, Note Name: C#4
Track 2: Piano left
Note ON: Time 1320, Note Name: C#3, Velocity: 34
Note ON: Time 1380, Note Name: G#3, Velocity: 36
Note ON: Time 1440, Note Name: E4, Velocity: 38
Note OFF: Time 1920, Note Name: E4
Note OFF: Time 1920, Note Name: G#3
Note OFF: Time 1920, Note Name: C#3
Note ON: Time 2280, Note Name: F#2, Velocity: 31
Note ON: Time 2340, Note Name: C#3, Velocity: 35
Note ON: Time 2400, Note Name: A3, Velocity: 40
Note OFF: Time 2640, Note Name: A3
Note OFF: Time 2640, Note Name: C#3
Note OFF: Time 2640, Note Name: F#2
Note ON: Time 2760, Note Name: C#3, Velocity: 33
Note ON: Time 2820, Note Name: G#3, Velocity: 36
Note ON: Time 2880, Note Name: E4, Velocity: 40
Note OFF: Time 3120, Note Name: E4
Note OFF: Time 3120, Note Name: G#3
Note OFF: Time 3120, Note Name: C#3
Note ON: Time 3240, Note Name: F#2, Velocity: 32
Note ON: Time 3300, Note Name: C#3, Velocity: 36
Note ON: Time 3360, Note Name: A3, Velocity: 38
Note OFF: Time 3600, Note Name: A3
Note OFF: Time 3600, Note Name: C#3
Note OFF: Time 3600, Note Name: F#2
Note ON: Time 3720, Note Name: C#2, Velocity: 32
Note ON: Time 3780, Note Name: G#2, Velocity: 36
Note ON: Time 3840, Note Name: E3, Velocity: 39
Note OFF: Time 4080, Note Name: E3
Note OFF: Time 4080, Note Name: G#2
Note OFF: Time 4080, Note Name: C#2
Note ON: Time 4320, Note Name: G#3, Velocity: 45
Note ON: Time 4800, Note Name: C4, Velocity: 49
Note ON: Time 4800, Note Name: D#3, Velocity: 41
Note ON: Time 4800, Note Name: G#2, Velocity: 49
Note OFF: Time 5280, Note Name: D#3
Note OFF: Time 5280, Note Name: C4
Note ON: Time 5280, Note Name: G#1, Velocity: 46
Note ON: Time 5280, Note Name: A#3, Velocity: 46
Note ON: Time 5280, Note Name: C#3, Velocity: 39
Note OFF: Time 5760, Note Name: C#3
Note OFF: Time 5760, Note Name: G#1
Note OFF: Time 5760, Note Name: A#3
Note OFF: Time 5760, Note Name: G#2
Note ON: Time 5760, Note Name: G#2, Velocity: 43
Note ON: Time 5760, Note Name: D#3, Velocity: 36
Note ON: Time 5760, Note Name: C4, Velocity: 43
Note OFF: Time 6000, Note Name: G#2
Note OFF: Time 6100, Note Name: C4
Note OFF: Time 6100, Note Name: D#3
Note ON: Time 6120, Note Name: G#2, Velocity: 37
Note ON: Time 6120, Note Name: E3, Velocity: 37
Note ON: Time 6120, Note Name: C#4, Velocity: 45
Note OFF: Time 6240, Note Name: C#4
Note OFF: Time 6240, Note Name: E3
Note OFF: Time 6240, Note Name: G#2
Note ON: Time 6240, Note Name: F#3, Velocity: 35
Note ON: Time 6240, Note Name: C4, Velocity: 35
Note ON: Time 6240, Note Name: D#4, Velocity: 42
Note ON: Time 6240, Note Name: G#2, Velocity: 42
Note OFF: Time 6720, Note Name: D#4
Note OFF: Time 6720, Note Name: C4
Note OFF: Time 6720, Note Name: G#3
Note OFF: Time 6720, Note Name: F#3
Note ON: Time 6720, Note Name: G#3, Velocity: 46
Note ON: Time 6720, Note Name: G#1, Velocity: 39
Note ON: Time 7080, Note Name: C#3, Velocity: 30
Note OFF: Time 7140, Note Name: G#1
Note OFF: Time 7140, Note Name: G#3
Note ON: Time 7140, Note Name: G#3, Velocity: 35
Note OFF: Time 7200, Note Name: G#2
Note ON: Time 7200, Note Name: E4, Velocity: 38
Note OFF: Time 7680, Note Name: E4
Note OFF: Time 7680, Note Name: G#3
Note OFF: Time 7680, Note Name: C#3
Note ON: Time 8040, Note Name: F#2, Velocity: 33
Note ON: Time 8100, Note Name: C#3, Velocity: 37
Note ON: Time 8160, Note Name: A3, Velocity: 40
Note OFF: Time 8400, Note Name: A3
Note OFF: Time 8400, Note Name: C#3
Note OFF: Time 8400, Note Name: F#2
Note ON: Time 8520, Note Name: C#3, Velocity: 34
Note ON: Time 8580, Note Name: G#3, Velocity: 37
Note ON: Time 8640, Note Name: E4, Velocity: 40
Note OFF: Time 8880, Note Name: E4
Note OFF: Time 8880, Note Name: G#3
Note OFF: Time 8880, Note Name: C#3
Note ON: Time 9000, Note Name: F#2, Velocity: 30
Note ON: Time 9060, Note Name: C#3, Velocity: 35
Note ON: Time 9120, Note Name: A3, Velocity: 38
Note OFF: Time 9360, Note Name: A3
Note OFF: Time 9360, Note Name: C#3
Note OFF: Time 9360, Note Name: F#2
Note ON: Time 9480, Note Name: C#2, Velocity: 33
Note ON: Time 9540, Note Name: G#2, Velocity: 35
Note ON: Time 9600, Note Name: E3, Velocity: 39
Note OFF: Time 9840, Note Name: E3
Note OFF: Time 9840, Note Name: G#2
Note OFF: Time 9840, Note Name: C#2
Note ON: Time 10080, Note Name: G#3, Velocity: 47
Note ON: Time 10560, Note Name: C4, Velocity: 53
Note ON: Time 10560, Note Name: D#3, Velocity: 45
Note ON: Time 10560, Note Name: D#2, Velocity: 45
Note ON: Time 10920, Note Name: D2, Velocity: 45
Note OFF: Time 10980, Note Name: D2
Note ON: Time 10980, Note Name: D#2, Velocity: 45
Note OFF: Time 11020, Note Name: D#2
Note OFF: Time 11040, Note Name: D#2
Note OFF: Time 11040, Note Name: G#3
Note OFF: Time 11040, Note Name: C4
Note ON: Time 11040, Note Name: D#2, Velocity: 48
Note ON: Time 11040, Note Name: A#3, Velocity: 48
Note ON: Time 11040, Note Name: G3, Velocity: 40
Note OFF: Time 11100, Note Name: D#2
Note ON: Time 11100, Note Name: E2, Velocity: 45
Note OFF: Time 11160, Note Name: E2
Note ON: Time 11160, Note Name: D#2, Velocity: 49
Note OFF: Time 11220, Note Name: D#2
Note ON: Time 11220, Note Name: E2, Velocity: 51
Note OFF: Time 11280, Note Name: E2
Note ON: Time 11280, Note Name: D#2, Velocity: 54
Note OFF: Time 11340, Note Name: D#2
Note ON: Time 11340, Note Name: E2, Velocity: 56
Note OFF: Time 11400, Note Name: E2
Note ON: Time 11400, Note Name: D#2, Velocity: 61
Note OFF: Time 11440, Note Name: D#2
Note ON: Time 11440, Note Name: D2, Velocity: 61
Note OFF: Time 11480, Note Name: D2
Note ON: Time 11480, Note Name: D#2, Velocity: 63
Note OFF: Time 11520, Note Name: D#2
Note OFF: Time 11520, Note Name: D#3
Note OFF: Time 11520, Note Name: A#3
Note OFF: Time 11520, Note Name: G3
Note ON: Time 11520, Note Name: G#3, Velocity: 55
Note ON: Time 11520, Note Name: G#2, Velocity: 55
Note ON: Time 11520, Note Name: D#3, Velocity: 55
Note ON: Time 11520, Note Name: B3, Velocity: 66
Note OFF: Time 11760, Note Name: G#2
Note OFF: Time 11860, Note Name: G#3
Note OFF: Time 11860, Note Name: D#3
Note OFF: Time 11860, Note Name: B3
Note ON: Time 11880, Note Name: A#3, Velocity: 48
Note ON: Time 11880, Note Name: G#2, Velocity: 48
Note ON: Time 11880, Note Name: D#3, Velocity: 48
Note ON: Time 11880, Note Name: C#4, Velocity: 57
Note OFF: Time 12000, Note Name: C#4
Note OFF: Time 12000, Note Name: A#3
Note OFF: Time 12000, Note Name: G#2
Note OFF: Time 12000, Note Name: D#3
Note ON: Time 12000, Note Name: D#3, Velocity: 53
Note ON: Time 12000, Note Name: B3, Velocity: 53
Note ON: Time 12000, Note Name: D#4, Velocity: 63
Note ON: Time 12000, Note Name: G#2, Velocity: 53
Note OFF: Time 12480, Note Name: G#2
Note OFF: Time 12480, Note Name: D#3
Note OFF: Time 12480, Note Name: B3
Note OFF: Time 12480, Note Name: D#4
Note ON: Time 12480, Note Name: G#3, Velocity: 45
Note ON: Time 12480, Note Name: G#1, Velocity: 38
Note OFF: Time 12840, Note Name: G#1
Note OFF: Time 12840, Note Name: G#3
Note ON: Time 12840, Note Name: F#2, Velocity: 25
Note ON: Time 12900, Note Name: C#3, Velocity: 29
Note ON: Time 12960, Note Name: A3, Velocity: 34
Note OFF: Time 13200, Note Name: A3
Note OFF: Time 13200, Note Name: C#3
Note ON: Time 13320, Note Name: B2, Velocity: 27
Note ON: Time 13380, Note Name: F#3, Velocity: 31
Note OFF: Time 13440, Note Name: F#2
Note ON: Time 13440, Note Name: D4, Velocity: 35
Note OFF: Time 13680, Note Name: D4
Note OFF: Time 13680, Note Name: F#3
Note OFF: Time 13680, Note Name: B2
Note ON: Time 13800, Note Name: F#2, Velocity: 24
Note ON: Time 13860, Note Name: C#3, Velocity: 30
Note ON: Time 13920, Note Name: A3, Velocity: 35
Note OFF: Time 14160, Note Name: A3
Note OFF: Time 14160, Note Name: C#3
Note OFF: Time 14160, Note Name: F#2
Note ON: Time 14280, Note Name: B2, Velocity: 27
Note ON: Time 14340, Note Name: F#3, Velocity: 31
Note ON: Time 14400, Note Name: D4, Velocity: 35
Note OFF: Time 14640, Note Name: D4
Note OFF: Time 14640, Note Name: F#3
Note OFF: Time 14640, Note Name: B2
Note ON: Time 14760, Note Name: F#2, Velocity: 26
Note ON: Time 14820, Note Name: C#3, Velocity: 30
Note ON: Time 14880, Note Name: A3, Velocity: 34
Note OFF: Time 15120, Note Name: A3
Note OFF: Time 15120, Note Name: C#3
Note OFF: Time 15120, Note Name: F#2
Note ON: Time 15840, Note Name: F#3, Velocity: 44
Note ON: Time 16320, Note Name: A3, Velocity: 45
Note ON: Time 16320, Note Name: F#2, Velocity: 45
Note ON: Time 16320, Note Name: C#3, Velocity: 38
Note OFF: Time 16800, Note Name: F#2
Note ON: Time 16800, Note Name: D#2, Velocity: 55
Note OFF: Time 17280, Note Name: D#2
Note OFF: Time 17280, Note Name: C#3
Note OFF: Time 17280, Note Name: A3
Note OFF: Time 17280, Note Name: F#3
Note ON: Time 17280, Note Name: G#3, Velocity: 32
Note ON: Time 17280, Note Name: G#2, Velocity: 38
Note ON: Time 17280, Note Name: D#3, Velocity: 32
Note ON: Time 17280, Note Name: C4, Velocity: 38
Note OFF: Time 17520, Note Name: G#2
Note OFF: Time 17620, Note Name: G#3
Note OFF: Time 17620, Note Name: D#3
Note OFF: Time 17620, Note Name: C4
Note ON: Time 17640, Note Name: G#3, Velocity: 32
Note ON: Time 17640, Note Name: G#2, Velocity: 38
Note ON: Time 17640, Note Name: E3, Velocity: 32
Note ON: Time 17640, Note Name: C#4, Velocity: 38
Note OFF: Time 17760, Note Name: C#4
Note OFF: Time 17760, Note Name: G#3
Note OFF: Time 17760, Note Name: G#2
Note OFF: Time 17760, Note Name: E3
Note ON: Time 17760, Note Name: F#3, Velocity: 30
Note ON: Time 17760, Note Name: C4, Velocity: 36
Note ON: Time 17760, Note Name: G#2, Velocity: 30
Note OFF: Time 18240, Note Name: F#3
Note ON: Time 18240, Note Name: G#3, Velocity: 31
Note ON: Time 18240, Note Name: G#1, Velocity: 31
Note OFF: Time 18600, Note Name: G#1
Note OFF: Time 18600, Note Name: G#3
Note OFF: Time 18600, Note Name: C4
Note ON: Time 18600, Note Name: C#3, Velocity: 30
Note ON: Time 18660, Note Name: G#3, Velocity: 36
Note OFF: Time 18720, Note Name: G#2
Note ON: Time 18720, Note Name: E4, Velocity: 38
Note OFF: Time 19200, Note Name: E4
Note OFF: Time 19200, Note Name: G#3
Note OFF: Time 19200, Note Name: C#3
Note ON: Time 19560, Note Name: F#2, Velocity: 32
Note ON: Time 19620, Note Name: C#3, Velocity: 37
Note ON: Time 19680, Note Name: A3, Velocity: 40
Note OFF: Time 19920, Note Name: A3
Note OFF: Time 19920, Note Name: C#3
Note OFF: Time 19920, Note Name: F#2
Note ON: Time 20040, Note Name: C#3, Velocity: 31
Note ON: Time 20100, Note Name: G#3, Velocity: 36
Note ON: Time 20160, Note Name: E4, Velocity: 40
Note OFF: Time 20400, Note Name: E4
Note OFF: Time 20400, Note Name: G#3
Note OFF: Time 20400, Note Name: C#3
Note ON: Time 20520, Note Name: F#2, Velocity: 32
Note ON: Time 20580, Note Name: C#3, Velocity: 36
Note ON: Time 20640, Note Name: A3, Velocity: 38
Note OFF: Time 20880, Note Name: A3
Note OFF: Time 20880, Note Name: C#3
Note OFF: Time 20880, Note Name: F#2
Note ON: Time 21000, Note Name: C#2, Velocity: 30
Note ON: Time 21060, Note Name: G#2, Velocity: 36
Note ON: Time 21120, Note Name: E3, Velocity: 39
Note OFF: Time 21360, Note Name: E3
Note OFF: Time 21360, Note Name: G#2
Note OFF: Time 21360, Note Name: C#2
Note ON: Time 21600, Note Name: G#3, Velocity: 49
Note ON: Time 22080, Note Name: C4, Velocity: 52
Note ON: Time 22080, Note Name: D#3, Velocity: 44
Note ON: Time 22080, Note Name: G#2, Velocity: 44
Note OFF: Time 22560, Note Name: D#3
Note OFF: Time 22560, Note Name: C4
Note ON: Time 22560, Note Name: G#1, Velocity: 46
Note ON: Time 22560, Note Name: C#4, Velocity: 55
Note ON: Time 22560, Note Name: E3, Velocity: 46
Note OFF: Time 23040, Note Name: E3
Note OFF: Time 23040, Note Name: G#1
Note OFF: Time 23040, Note Name: G#2
Note OFF: Time 23040, Note Name: G#3
Note OFF: Time 23040, Note Name: C#4
Note ON: Time 23040, Note Name: D#4, Velocity: 53
Note ON: Time 23040, Note Name: G#2, Velocity: 45
Note ON: Time 23040, Note Name: D#3, Velocity: 45
Note ON: Time 23040, Note Name: C4, Velocity: 45
Note OFF: Time 23280, Note Name: G#2
Note OFF: Time 23380, Note Name: D#4
Note OFF: Time 23380, Note Name: D#3
Note OFF: Time 23380, Note Name: C4
Note ON: Time 23400, Note Name: G#2, Velocity: 43
Note ON: Time 23400, Note Name: G#3, Velocity: 51
Note OFF: Time 23520, Note Name: G#3
Note OFF: Time 23520, Note Name: G#2
Note ON: Time 23520, Note Name: E3, Velocity: 42
Note ON: Time 23520, Note Name: C#4, Velocity: 50
Note ON: Time 23520, Note Name: C#2, Velocity: 42
Note OFF: Time 24000, Note Name: C#2
Note OFF: Time 24000, Note Name: C#4
Note OFF: Time 24000, Note Name: E3
Note ON: Time 24000, Note Name: A3, Velocity: 50
Note ON: Time 24960, Note Name: G#2, Velocity: 30
Note ON: Time 24960, Note Name: D#3, Velocity: 30
Note ON: Time 24960, Note Name: C4, Velocity: 36
Note OFF: Time 25440, Note Name: C4
Note OFF: Time 25440, Note Name: D#3
Note ON: Time 25440, Note Name: G#1, Velocity: 30
Note ON: Time 25440, Note Name: E3, Velocity: 30
Note ON: Time 25440, Note Name: C#4, Velocity: 36
Note OFF: Time 25920, Note Name: C#4
Note OFF: Time 25920, Note Name: G#1
Note OFF: Time 25920, Note Name: A3
Note OFF: Time 25920, Note Name: G#2
Note OFF: Time 25920, Note Name: E3
Note ON: Time 25920, Note Name: G#2, Velocity: 31
Note ON: Time 25920, Note Name: G#3, Velocity: 31
Note ON: Time 25920, Note Name: F#3, Velocity: 31
Note ON: Time 25920, Note Name: D#4, Velocity: 37
Note ON: Time 25920, Note Name: C4, Velocity: 31
Note OFF: Time 26160, Note Name: C4
Note OFF: Time 26160, Note Name: F#3
Note OFF: Time 26160, Note Name: G#2
Note OFF: Time 26160, Note Name: G#3
Note OFF: Time 26160, Note Name: D#4
Note ON: Time 26280, Note Name: G#2, Velocity: 24
Note ON: Time 26280, Note Name: F#3, Velocity: 24
Note ON: Time 26280, Note Name: C4, Velocity: 28
Note OFF: Time 26400, Note Name: C4
Note OFF: Time 26400, Note Name: F#3
Note OFF: Time 26400, Note Name: G#2
Note ON: Time 26400, Note Name: C#2, Velocity: 31
Note ON: Time 26400, Note Name: E3, Velocity: 31
Note OFF: Time 26880, Note Name: E3
Note OFF: Time 26880, Note Name: C#2
Track 3: Chopin: Prelude No.10 in C#-, Op. 28
Track 4: Copyright © 1997 by Bernd Krueger
Track 5: http://www.piano-midi.de
Track 6: Edition: 2014-02-20
