Processing chpn_op27_2.mid...

Track 0: Chopin Nocturne Opus 27 Nr. 2
Track 1: Piano right
Note ON: Time 1440, Note Name: F5, Velocity: 55
Note OFF: Time 2160, Note Name: F5
Note ON: Time 2160, Note Name: D#5, Velocity: 55
Note OFF: Time 2400, Note Name: D#5
Note ON: Time 2400, Note Name: C#5, Velocity: 55
Note OFF: Time 2760, Note Name: C#5
Note ON: Time 2760, Note Name: F4, Velocity: 50
Note OFF: Time 2880, Note Name: F4
Note ON: Time 2880, Note Name: G#4, Velocity: 55
Note OFF: Time 3840, Note Name: G#4
Note ON: Time 3840, Note Name: C#5, Velocity: 58
Note OFF: Time 4080, Note Name: C#5
Note ON: Time 4080, Note Name: F5, Velocity: 61
Note OFF: Time 4320, Note Name: F5
Note ON: Time 4320, Note Name: A#5, Velocity: 68
Note OFF: Time 5160, Note Name: A#5
Note ON: Time 5160, Note Name: G#5, Velocity: 50
Note OFF: Time 5280, Note Name: G#5
Note ON: Time 5280, Note Name: E5, Velocity: 56
Note OFF: Time 5400, Note Name: E5
Note ON: Time 5400, Note Name: F5, Velocity: 50
Note OFF: Time 5520, Note Name: F5
Note ON: Time 5520, Note Name: C5, Velocity: 55
Note OFF: Time 5640, Note Name: C5
Note ON: Time 5640, Note Name: C#5, Velocity: 50
Note OFF: Time 5760, Note Name: C#5
Note ON: Time 5760, Note Name: A4, Velocity: 63
Note OFF: Time 7200, Note Name: A4
Note ON: Time 7200, Note Name: A#4, Velocity: 58
Note OFF: Time 7920, Note Name: A#4
Note ON: Time 8040, Note Name: C6, Velocity: 56
Note OFF: Time 8160, Note Name: C6
Note ON: Time 8160, Note Name: A#5, Velocity: 58
Note OFF: Time 8280, Note Name: A#5
Note ON: Time 8280, Note Name: F5, Velocity: 52
Note OFF: Time 8400, Note Name: F5
Note ON: Time 8400, Note Name: G#5, Velocity: 56
Note OFF: Time 8520, Note Name: G#5
Note ON: Time 8520, Note Name: F#5, Velocity: 51
Note OFF: Time 8640, Note Name: F#5
Note ON: Time 8640, Note Name: F5, Velocity: 57
Note OFF: Time 9120, Note Name: F5
Note ON: Time 9120, Note Name: D#5, Velocity: 58
Note OFF: Time 9480, Note Name: D#5
Note ON: Time 9480, Note Name: F5, Velocity: 52
Note OFF: Time 9510, Note Name: F5
Note ON: Time 9510, Note Name: D#5, Velocity: 52
Note OFF: Time 9540, Note Name: D#5
Note ON: Time 9540, Note Name: D5, Velocity: 52
Note OFF: Time 9570, Note Name: D5
Note ON: Time 9570, Note Name: D#5, Velocity: 52
Note OFF: Time 9600, Note Name: D#5
Note ON: Time 9600, Note Name: F5, Velocity: 61
Note OFF: Time 9840, Note Name: F5
Note ON: Time 9840, Note Name: F#5, Velocity: 69
Note OFF: Time 10020, Note Name: F#5
Note ON: Time 10020, Note Name: F#5, Velocity: 57
Note OFF: Time 10080, Note Name: F#5
Note ON: Time 10080, Note Name: F#6, Velocity: 79
Note ON: Time 10500, Note Name: D#6, Velocity: 56
Note OFF: Time 10560, Note Name: D#6
Note OFF: Time 10560, Note Name: F#6
Note ON: Time 10560, Note Name: C#6, Velocity: 55
Note OFF: Time 10620, Note Name: C#6
Note ON: Time 10620, Note Name: A5, Velocity: 54
Note OFF: Time 10680, Note Name: A5
Note ON: Time 10680, Note Name: F#5, Velocity: 52
Note OFF: Time 10740, Note Name: F#5
Note ON: Time 10740, Note Name: D#5, Velocity: 49
Note OFF: Time 10800, Note Name: D#5
Note ON: Time 10800, Note Name: C5, Velocity: 53
Note OFF: Time 10860, Note Name: C5
Note ON: Time 10920, Note Name: C#5, Velocity: 54
Note OFF: Time 10980, Note Name: C#5
Note ON: Time 11040, Note Name: D5, Velocity: 55
Note OFF: Time 11100, Note Name: D5
Note ON: Time 11160, Note Name: D#5, Velocity: 56
Note OFF: Time 11220, Note Name: D#5
Note ON: Time 11280, Note Name: F5, Velocity: 57
Note OFF: Time 11340, Note Name: F5
Note ON: Time 11400, Note Name: F#5, Velocity: 58
Note OFF: Time 11460, Note Name: F#5
Note ON: Time 11520, Note Name: G5, Velocity: 69
Note OFF: Time 12060, Note Name: G5
Note ON: Time 12060, Note Name: G#5, Velocity: 54
Note OFF: Time 12120, Note Name: G#5
Note ON: Time 12120, Note Name: A#5, Velocity: 59
Note OFF: Time 12180, Note Name: A#5
Note ON: Time 12180, Note Name: G#5, Velocity: 50
Note OFF: Time 12240, Note Name: G#5
Note ON: Time 12240, Note Name: F5, Velocity: 56
Note ON: Time 12960, Note Name: C#5, Velocity: 53
Note OFF: Time 13200, Note Name: C#5
Note OFF: Time 13200, Note Name: F5
Note ON: Time 13200, Note Name: D#5, Velocity: 55
Note ON: Time 13200, Note Name: F#5, Velocity: 65
Note OFF: Time 13560, Note Name: F#5
Note OFF: Time 13560, Note Name: D#5
Note ON: Time 13560, Note Name: A#4, Velocity: 51
Note ON: Time 13560, Note Name: C#5, Velocity: 60
Note OFF: Time 13680, Note Name: C#5
Note OFF: Time 13680, Note Name: A#4
Note ON: Time 13680, Note Name: C5, Velocity: 55
Note ON: Time 13680, Note Name: D#5, Velocity: 65
Note OFF: Time 13920, Note Name: D#5
Note OFF: Time 13920, Note Name: C5
Note ON: Time 13920, Note Name: C#5, Velocity: 53
Note ON: Time 13920, Note Name: F5, Velocity: 62
Note OFF: Time 14160, Note Name: F5
Note OFF: Time 14160, Note Name: C#5
Note ON: Time 14160, Note Name: A4, Velocity: 52
Note ON: Time 14160, Note Name: C5, Velocity: 61
Note OFF: Time 14400, Note Name: C5
Note OFF: Time 14400, Note Name: A4
Note ON: Time 14400, Note Name: C5, Velocity: 55
Note ON: Time 14400, Note Name: D#5, Velocity: 65
Note OFF: Time 14640, Note Name: D#5
Note OFF: Time 14640, Note Name: C5
Note ON: Time 14640, Note Name: A#4, Velocity: 50
Note ON: Time 14640, Note Name: C#5, Velocity: 59
Note OFF: Time 14760, Note Name: C#5
Note OFF: Time 14760, Note Name: A#4
Note ON: Time 14820, Note Name: A#5, Velocity: 64
Note ON: Time 14820, Note Name: C#5, Velocity: 54
Note OFF: Time 14880, Note Name: C#5
Note OFF: Time 14880, Note Name: A#5
Note ON: Time 14880, Note Name: C#5, Velocity: 56
Note ON: Time 14880, Note Name: A#5, Velocity: 66
Note OFF: Time 14960, Note Name: A#5
Note OFF: Time 14960, Note Name: C#5
Note ON: Time 14960, Note Name: C5, Velocity: 55
Note ON: Time 14960, Note Name: G#5, Velocity: 65
Note OFF: Time 15040, Note Name: G#5
Note OFF: Time 15040, Note Name: C5
Note ON: Time 15040, Note Name: A#4, Velocity: 54
Note ON: Time 15040, Note Name: F#5, Velocity: 64
Note OFF: Time 15120, Note Name: F#5
Note OFF: Time 15120, Note Name: A#4
Note ON: Time 15120, Note Name: A#4, Velocity: 53
Note ON: Time 15120, Note Name: F5, Velocity: 63
Note OFF: Time 15360, Note Name: A#4
Note ON: Time 15360, Note Name: A4, Velocity: 52
Note OFF: Time 15440, Note Name: A4
Note ON: Time 15440, Note Name: A#4, Velocity: 54
Note OFF: Time 15520, Note Name: A#4
Note ON: Time 15520, Note Name: B4, Velocity: 56
Note OFF: Time 15600, Note Name: B4
Note OFF: Time 15600, Note Name: F5
Note ON: Time 15600, Note Name: F5, Velocity: 58
Note ON: Time 15600, Note Name: C5, Velocity: 49
Note OFF: Time 15640, Note Name: C5
Note OFF: Time 15640, Note Name: F5
Note ON: Time 15680, Note Name: F5, Velocity: 60
Note ON: Time 15680, Note Name: C#5, Velocity: 51
Note OFF: Time 15720, Note Name: C#5
Note OFF: Time 15720, Note Name: F5
Note ON: Time 15760, Note Name: F5, Velocity: 62
Note ON: Time 15760, Note Name: D#5, Velocity: 52
Note OFF: Time 15800, Note Name: D#5
Note OFF: Time 15800, Note Name: F5
Note ON: Time 15840, Note Name: C#5, Velocity: 53
Note ON: Time 15840, Note Name: F5, Velocity: 63
Note OFF: Time 16080, Note Name: F5
Note OFF: Time 16080, Note Name: C#5
Note ON: Time 16080, Note Name: D#5, Velocity: 55
Note ON: Time 16080, Note Name: F#5, Velocity: 65
Note OFF: Time 16440, Note Name: F#5
Note OFF: Time 16440, Note Name: D#5
Note ON: Time 16440, Note Name: A#4, Velocity: 51
Note ON: Time 16440, Note Name: C#5, Velocity: 60
Note OFF: Time 16560, Note Name: C#5
Note OFF: Time 16560, Note Name: A#4
Note ON: Time 16560, Note Name: A#4, Velocity: 49
Note ON: Time 16560, Note Name: C#5, Velocity: 58
Note OFF: Time 16605, Note Name: C#5
Note OFF: Time 16605, Note Name: A#4
Note ON: Time 16605, Note Name: C#5, Velocity: 55
Note ON: Time 16605, Note Name: F5, Velocity: 65
Note OFF: Time 16740, Note Name: F5
Note OFF: Time 16740, Note Name: C#5
Note ON: Time 16740, Note Name: C5, Velocity: 58
Note ON: Time 16740, Note Name: D#5, Velocity: 58
Note OFF: Time 16770, Note Name: D#5
Note ON: Time 16770, Note Name: F5, Velocity: 53
Note OFF: Time 16800, Note Name: F5
Note ON: Time 16800, Note Name: D#5, Velocity: 62
Note OFF: Time 16880, Note Name: D#5
Note OFF: Time 16880, Note Name: C5
Note ON: Time 16880, Note Name: A#4, Velocity: 47
Note ON: Time 16880, Note Name: C#5, Velocity: 55
Note OFF: Time 16960, Note Name: C#5
Note OFF: Time 16960, Note Name: A#4
Note ON: Time 16960, Note Name: C5, Velocity: 47
Note ON: Time 16960, Note Name: D#5, Velocity: 55
Note OFF: Time 17040, Note Name: D#5
Note OFF: Time 17040, Note Name: C5
Note ON: Time 17040, Note Name: C#5, Velocity: 52
Note ON: Time 17040, Note Name: F5, Velocity: 61
Note OFF: Time 17100, Note Name: F5
Note OFF: Time 17100, Note Name: C#5
Note ON: Time 17220, Note Name: A4, Velocity: 52
Note ON: Time 17220, Note Name: C5, Velocity: 61
Note OFF: Time 17280, Note Name: C5
Note OFF: Time 17280, Note Name: A4
Note ON: Time 17280, Note Name: C5, Velocity: 55
Note ON: Time 17280, Note Name: D#5, Velocity: 65
Note OFF: Time 17520, Note Name: D#5
Note OFF: Time 17520, Note Name: C5
Note ON: Time 17520, Note Name: A#4, Velocity: 50
Note ON: Time 17520, Note Name: C#5, Velocity: 59
Note OFF: Time 17640, Note Name: C#5
Note OFF: Time 17640, Note Name: A#4
Note ON: Time 17760, Note Name: C#5, Velocity: 47
Note ON: Time 17760, Note Name: A#5, Velocity: 66
Note OFF: Time 18000, Note Name: C#5
Note ON: Time 18000, Note Name: D5, Velocity: 66
Note OFF: Time 18120, Note Name: D5
Note OFF: Time 18120, Note Name: A#5
Note ON: Time 18120, Note Name: G#5, Velocity: 53
Note ON: Time 18120, Note Name: B5, Velocity: 62
Note OFF: Time 18240, Note Name: B5
Note OFF: Time 18240, Note Name: G#5
Note ON: Time 18240, Note Name: C#5, Velocity: 53
Note ON: Time 18240, Note Name: A#5, Velocity: 62
Note OFF: Time 18320, Note Name: A#5
Note OFF: Time 18320, Note Name: C#5
Note ON: Time 18320, Note Name: G#5, Velocity: 54
Note ON: Time 18320, Note Name: A5, Velocity: 58
Note OFF: Time 18400, Note Name: A5
Note OFF: Time 18400, Note Name: G#5
Note ON: Time 18400, Note Name: C#5, Velocity: 57
Note ON: Time 18400, Note Name: A#5, Velocity: 67
Note OFF: Time 18480, Note Name: A#5
Note OFF: Time 18480, Note Name: C#5
Note ON: Time 18480, Note Name: F6, Velocity: 70
Note ON: Time 18480, Note Name: G#5, Velocity: 58
Note OFF: Time 18540, Note Name: G#5
Note OFF: Time 18540, Note Name: F6
Note ON: Time 18660, Note Name: G#5, Velocity: 57
Note ON: Time 18660, Note Name: A#5, Velocity: 67
Note OFF: Time 18720, Note Name: A#5
Note ON: Time 18720, Note Name: A#5, Velocity: 68
Note ON: Time 18720, Note Name: F#5, Velocity: 57
Note OFF: Time 18740, Note Name: G#5
Note OFF: Time 18960, Note Name: F#5
Note OFF: Time 18960, Note Name: A#5
Note ON: Time 18960, Note Name: G#5, Velocity: 56
Note ON: Time 18960, Note Name: B5, Velocity: 66
Note OFF: Time 19200, Note Name: B5
Note OFF: Time 19200, Note Name: G#5
Note ON: Time 19200, Note Name: D#5, Velocity: 54
Note ON: Time 19200, Note Name: F#5, Velocity: 64
Note OFF: Time 19440, Note Name: F#5
Note OFF: Time 19440, Note Name: D#5
Note ON: Time 19440, Note Name: F#5, Velocity: 54
Note ON: Time 19440, Note Name: A#5, Velocity: 64
Note OFF: Time 19520, Note Name: A#5
Note OFF: Time 19520, Note Name: F#5
Note ON: Time 19520, Note Name: F5, Velocity: 52
Note ON: Time 19520, Note Name: G#5, Velocity: 61
Note OFF: Time 19600, Note Name: G#5
Note OFF: Time 19600, Note Name: F5
Note ON: Time 19600, Note Name: F#5, Velocity: 52
Note ON: Time 19600, Note Name: A#5, Velocity: 61
Note OFF: Time 19680, Note Name: A#5
Note OFF: Time 19680, Note Name: F#5
Note ON: Time 19680, Note Name: F5, Velocity: 55
Note ON: Time 19680, Note Name: G#5, Velocity: 65
Note OFF: Time 19760, Note Name: G#5
Note OFF: Time 19760, Note Name: F5
Note ON: Time 19760, Note Name: D#5, Velocity: 52
Note ON: Time 19760, Note Name: F#5, Velocity: 61
Note OFF: Time 19840, Note Name: F#5
Note OFF: Time 19840, Note Name: D#5
Note ON: Time 19840, Note Name: F5, Velocity: 52
Note ON: Time 19840, Note Name: G#5, Velocity: 61
Note OFF: Time 19920, Note Name: G#5
Note OFF: Time 19920, Note Name: F5
Note ON: Time 19920, Note Name: F#5, Velocity: 55
Note ON: Time 19920, Note Name: A#5, Velocity: 65
Note OFF: Time 19980, Note Name: A#5
Note OFF: Time 19980, Note Name: F#5
Note ON: Time 20100, Note Name: F5, Velocity: 60
Note ON: Time 20100, Note Name: D5, Velocity: 51
Note OFF: Time 20160, Note Name: D5
Note OFF: Time 20160, Note Name: F5
Note ON: Time 20160, Note Name: F5, Velocity: 56
Note ON: Time 20160, Note Name: G#5, Velocity: 66
Note OFF: Time 20400, Note Name: G#5
Note OFF: Time 20400, Note Name: F5
Note ON: Time 20400, Note Name: D#5, Velocity: 51
Note ON: Time 20400, Note Name: F#5, Velocity: 60
Note OFF: Time 20520, Note Name: F#5
Note OFF: Time 20520, Note Name: D#5
Note ON: Time 20580, Note Name: D#6, Velocity: 63
Note ON: Time 20580, Note Name: F#5, Velocity: 53
Note OFF: Time 20640, Note Name: F#5
Note OFF: Time 20640, Note Name: D#6
Note ON: Time 20640, Note Name: F#5, Velocity: 57
Note ON: Time 20640, Note Name: D#6, Velocity: 68
Note OFF: Time 20720, Note Name: D#6
Note OFF: Time 20720, Note Name: F#5
Note ON: Time 20720, Note Name: F5, Velocity: 57
Note ON: Time 20720, Note Name: C#6, Velocity: 67
Note OFF: Time 20800, Note Name: C#6
Note OFF: Time 20800, Note Name: F5
Note ON: Time 20800, Note Name: D#5, Velocity: 55
Note ON: Time 20800, Note Name: B5, Velocity: 65
Note OFF: Time 20880, Note Name: B5
Note OFF: Time 20880, Note Name: D#5
Note ON: Time 20880, Note Name: D5, Velocity: 50
Note ON: Time 20880, Note Name: A#5, Velocity: 59
Note OFF: Time 20960, Note Name: A#5
Note OFF: Time 20960, Note Name: D5
Note ON: Time 20960, Note Name: A#4, Velocity: 50
Note ON: Time 20960, Note Name: A#5, Velocity: 59
Note OFF: Time 21000, Note Name: A#5
Note OFF: Time 21000, Note Name: A#4
Note ON: Time 21040, Note Name: B4, Velocity: 50
Note ON: Time 21040, Note Name: A#5, Velocity: 59
Note OFF: Time 21080, Note Name: A#5
Note OFF: Time 21080, Note Name: B4
Note ON: Time 21120, Note Name: C5, Velocity: 51
Note ON: Time 21120, Note Name: A#5, Velocity: 60
Note OFF: Time 21160, Note Name: A#5
Note OFF: Time 21160, Note Name: C5
Note ON: Time 21200, Note Name: C#5, Velocity: 52
Note ON: Time 21200, Note Name: A#5, Velocity: 61
Note OFF: Time 21240, Note Name: A#5
Note OFF: Time 21240, Note Name: C#5
Note ON: Time 21280, Note Name: D5, Velocity: 53
Note ON: Time 21280, Note Name: A#5, Velocity: 62
Note OFF: Time 21320, Note Name: A#5
Note OFF: Time 21320, Note Name: D5
Note ON: Time 21360, Note Name: A#5, Velocity: 64
Note ON: Time 21360, Note Name: D#5, Velocity: 54
Note OFF: Time 21400, Note Name: D#5
Note OFF: Time 21400, Note Name: A#5
Note ON: Time 21440, Note Name: A#5, Velocity: 65
Note ON: Time 21440, Note Name: E5, Velocity: 55
Note OFF: Time 21480, Note Name: E5
Note OFF: Time 21480, Note Name: A#5
Note ON: Time 21520, Note Name: A#5, Velocity: 66
Note ON: Time 21520, Note Name: F5, Velocity: 56
Note OFF: Time 21560, Note Name: F5
Note OFF: Time 21560, Note Name: A#5
Note ON: Time 21600, Note Name: F#5, Velocity: 45
Note ON: Time 21600, Note Name: A#5, Velocity: 54
Note OFF: Time 21696, Note Name: A#5
Note OFF: Time 21696, Note Name: F#5
Note ON: Time 21696, Note Name: G#5, Velocity: 47
Note ON: Time 21696, Note Name: B5, Velocity: 57
Note OFF: Time 21792, Note Name: B5
Note OFF: Time 21792, Note Name: G#5
Note ON: Time 21792, Note Name: A#5, Velocity: 60
Note ON: Time 21792, Note Name: F#5, Velocity: 50
Note OFF: Time 21888, Note Name: F#5
Note OFF: Time 21888, Note Name: A#5
Note ON: Time 21888, Note Name: F5, Velocity: 53
Note ON: Time 21888, Note Name: G#5, Velocity: 63
Note OFF: Time 21984, Note Name: G#5
Note OFF: Time 21984, Note Name: F5
Note ON: Time 21984, Note Name: F#5, Velocity: 54
Note ON: Time 21984, Note Name: A#5, Velocity: 65
Note OFF: Time 22080, Note Name: A#5
Note OFF: Time 22080, Note Name: F#5
Note ON: Time 22080, Note Name: G#5, Velocity: 58
Note ON: Time 22080, Note Name: B5, Velocity: 69
Note OFF: Time 22140, Note Name: B5
Note OFF: Time 22140, Note Name: G#5
Note ON: Time 22260, Note Name: F#5, Velocity: 66
Note ON: Time 22260, Note Name: D#5, Velocity: 56
Note OFF: Time 22310, Note Name: D#5
Note OFF: Time 22310, Note Name: F#5
Note ON: Time 22320, Note Name: D#5, Velocity: 53
Note ON: Time 22320, Note Name: F#5, Velocity: 63
Note OFF: Time 22380, Note Name: F#5
Note OFF: Time 22380, Note Name: D#5
Note ON: Time 22380, Note Name: F#5, Velocity: 59
Note ON: Time 22380, Note Name: A#5, Velocity: 70
Note OFF: Time 22440, Note Name: A#5
Note OFF: Time 22440, Note Name: F#5
Note ON: Time 22500, Note Name: G#5, Velocity: 64
Note ON: Time 22500, Note Name: F5, Velocity: 54
Note OFF: Time 22560, Note Name: F5
Note OFF: Time 22560, Note Name: G#5
Note ON: Time 22560, Note Name: F5, Velocity: 62
Note ON: Time 22560, Note Name: G#5, Velocity: 62
Note OFF: Time 22580, Note Name: G#5
Note OFF: Time 22580, Note Name: F5
Note ON: Time 22580, Note Name: A#5, Velocity: 55
Note ON: Time 22580, Note Name: F#5, Velocity: 55
Note OFF: Time 22600, Note Name: F#5
Note OFF: Time 22600, Note Name: A#5
Note ON: Time 22600, Note Name: G#5, Velocity: 61
Note ON: Time 22600, Note Name: F5, Velocity: 61
Note OFF: Time 22640, Note Name: F5
Note OFF: Time 22640, Note Name: G#5
Note ON: Time 22640, Note Name: D#5, Velocity: 53
Note ON: Time 22640, Note Name: F#5, Velocity: 63
Note OFF: Time 22720, Note Name: F#5
Note OFF: Time 22720, Note Name: D#5
Note ON: Time 22760, Note Name: F5, Velocity: 54
Note ON: Time 22760, Note Name: G#5, Velocity: 64
Note OFF: Time 22790, Note Name: G#5
Note OFF: Time 22790, Note Name: F5
Note ON: Time 22800, Note Name: F5, Velocity: 55
Note ON: Time 22800, Note Name: G#5, Velocity: 65
Note OFF: Time 22880, Note Name: G#5
Note OFF: Time 22880, Note Name: F5
Note ON: Time 22880, Note Name: F#5, Velocity: 57
Note ON: Time 22880, Note Name: A#5, Velocity: 67
Note OFF: Time 22920, Note Name: A#5
Note OFF: Time 22920, Note Name: F#5
Note ON: Time 23000, Note Name: D5, Velocity: 55
Note ON: Time 23000, Note Name: F5, Velocity: 65
Note OFF: Time 23030, Note Name: F5
Note OFF: Time 23030, Note Name: D5
Note ON: Time 23040, Note Name: D5, Velocity: 59
Note ON: Time 23040, Note Name: F5, Velocity: 59
Note OFF: Time 23100, Note Name: F5
Note OFF: Time 23100, Note Name: D5
Note ON: Time 23100, Note Name: F5, Velocity: 53
Note ON: Time 23100, Note Name: G#5, Velocity: 62
Note OFF: Time 23220, Note Name: G#5
Note OFF: Time 23220, Note Name: F5
Note ON: Time 23520, Note Name: D#5, Velocity: 61
Note ON: Time 23520, Note Name: F#5, Velocity: 73
Note OFF: Time 24000, Note Name: F#5
Note OFF: Time 24000, Note Name: D#5
Note ON: Time 24000, Note Name: D5, Velocity: 61
Note ON: Time 24000, Note Name: F#5, Velocity: 73
Note OFF: Time 24120, Note Name: F#5
Note OFF: Time 24120, Note Name: D5
Note ON: Time 24240, Note Name: F#5, Velocity: 76
Note ON: Time 24240, Note Name: C#5, Velocity: 64
Note OFF: Time 24360, Note Name: C#5
Note OFF: Time 24360, Note Name: F#5
Note ON: Time 24480, Note Name: C5, Velocity: 64
Note ON: Time 24480, Note Name: F#5, Velocity: 78
Note OFF: Time 24840, Note Name: F#5
Note OFF: Time 24840, Note Name: C5
Note ON: Time 24840, Note Name: A4, Velocity: 62
Note ON: Time 24840, Note Name: A5, Velocity: 74
Note OFF: Time 24960, Note Name: A5
Note OFF: Time 24960, Note Name: A4
Note ON: Time 24960, Note Name: G#4, Velocity: 64
Note ON: Time 24960, Note Name: G#5, Velocity: 76
Note OFF: Time 25440, Note Name: G#5
Note OFF: Time 25440, Note Name: G#4
Note ON: Time 25440, Note Name: F#4, Velocity: 60
Note ON: Time 25440, Note Name: F#5, Velocity: 72
Note OFF: Time 25680, Note Name: F#5
Note OFF: Time 25680, Note Name: F#4
Note ON: Time 25680, Note Name: C#4, Velocity: 58
Note ON: Time 25680, Note Name: C#5, Velocity: 70
Note OFF: Time 25920, Note Name: C#5
Note OFF: Time 25920, Note Name: C#4
Note ON: Time 25920, Note Name: C4, Velocity: 56
Note ON: Time 25920, Note Name: C5, Velocity: 66
Note OFF: Time 26400, Note Name: C5
Note OFF: Time 26400, Note Name: C4
Note ON: Time 26400, Note Name: G#4, Velocity: 52
Note OFF: Time 26640, Note Name: G#4
Note ON: Time 26640, Note Name: A4, Velocity: 57
Note OFF: Time 26720, Note Name: A4
Note ON: Time 26720, Note Name: B4, Velocity: 50
Note OFF: Time 26800, Note Name: B4
Note ON: Time 26800, Note Name: A4, Velocity: 52
Note OFF: Time 26880, Note Name: A4
Note ON: Time 26880, Note Name: G#4, Velocity: 51
Note OFF: Time 27000, Note Name: G#4
Note ON: Time 27000, Note Name: A4, Velocity: 51
Note OFF: Time 27120, Note Name: A4
Note ON: Time 27120, Note Name: E5, Velocity: 57
Note OFF: Time 27300, Note Name: E5
Note ON: Time 27300, Note Name: D#5, Velocity: 53
Note OFF: Time 27360, Note Name: D#5
Note ON: Time 27360, Note Name: D#5, Velocity: 57
Note OFF: Time 27600, Note Name: D#5
Note ON: Time 27720, Note Name: A4, Velocity: 61
Note ON: Time 27720, Note Name: A5, Velocity: 73
Note OFF: Time 27840, Note Name: A5
Note OFF: Time 27840, Note Name: A4
Note ON: Time 27840, Note Name: G#4, Velocity: 58
Note ON: Time 27840, Note Name: G#5, Velocity: 70
Note OFF: Time 28320, Note Name: G#5
Note OFF: Time 28320, Note Name: G#4
Note ON: Time 28320, Note Name: G#4, Velocity: 55
Note ON: Time 28320, Note Name: G#5, Velocity: 65
Note OFF: Time 28380, Note Name: G#5
Note OFF: Time 28380, Note Name: G#4
Note ON: Time 28380, Note Name: F#4, Velocity: 54
Note ON: Time 28380, Note Name: F#5, Velocity: 64
Note OFF: Time 28440, Note Name: F#5
Note OFF: Time 28440, Note Name: F#4
Note ON: Time 28440, Note Name: G#4, Velocity: 53
Note ON: Time 28440, Note Name: G#5, Velocity: 63
Note OFF: Time 28500, Note Name: G#5
Note OFF: Time 28500, Note Name: G#4
Note ON: Time 28500, Note Name: F#4, Velocity: 53
Note ON: Time 28500, Note Name: F#5, Velocity: 62
Note OFF: Time 28560, Note Name: F#5
Note OFF: Time 28560, Note Name: F#4
Note ON: Time 28560, Note Name: E4, Velocity: 53
Note ON: Time 28560, Note Name: E5, Velocity: 62
Note OFF: Time 28620, Note Name: E5
Note OFF: Time 28620, Note Name: E4
Note ON: Time 28620, Note Name: D#4, Velocity: 52
Note ON: Time 28620, Note Name: D#5, Velocity: 61
Note OFF: Time 28680, Note Name: D#5
Note OFF: Time 28680, Note Name: D#4
Note ON: Time 28680, Note Name: E4, Velocity: 51
Note ON: Time 28680, Note Name: E5, Velocity: 60
Note OFF: Time 28740, Note Name: E5
Note OFF: Time 28740, Note Name: E4
Note ON: Time 28740, Note Name: D#4, Velocity: 50
Note ON: Time 28740, Note Name: D#5, Velocity: 59
Note OFF: Time 28800, Note Name: D#5
Note OFF: Time 28800, Note Name: D#4
Note ON: Time 28800, Note Name: C4, Velocity: 56
Note ON: Time 28800, Note Name: C5, Velocity: 66
Note OFF: Time 28920, Note Name: C5
Note OFF: Time 28920, Note Name: C4
Note ON: Time 29400, Note Name: G#4, Velocity: 46
Note OFF: Time 29520, Note Name: G#4
Note ON: Time 29520, Note Name: A4, Velocity: 51
Note OFF: Time 29600, Note Name: A4
Note ON: Time 29600, Note Name: B4, Velocity: 45
Note OFF: Time 29680, Note Name: B4
Note ON: Time 29680, Note Name: A4, Velocity: 46
Note OFF: Time 29760, Note Name: A4
Note ON: Time 29760, Note Name: G#4, Velocity: 45
Note OFF: Time 29880, Note Name: G#4
Note ON: Time 29880, Note Name: A4, Velocity: 45
Note OFF: Time 29940, Note Name: A4
Note ON: Time 29940, Note Name: A4, Velocity: 46
Note OFF: Time 30000, Note Name: A4
Note ON: Time 30000, Note Name: E5, Velocity: 52
Note OFF: Time 30120, Note Name: E5
Note ON: Time 30180, Note Name: D#5, Velocity: 49
Note OFF: Time 30240, Note Name: D#5
Note ON: Time 30240, Note Name: D#5, Velocity: 54
Note OFF: Time 30480, Note Name: D#5
Note ON: Time 30960, Note Name: D#5, Velocity: 51
Note OFF: Time 32400, Note Name: D#5
Note ON: Time 32400, Note Name: D5, Velocity: 51
Note OFF: Time 33120, Note Name: D5
Note ON: Time 33120, Note Name: C#5, Velocity: 54
Note OFF: Time 33600, Note Name: C#5
Note ON: Time 33840, Note Name: C#5, Velocity: 51
Note OFF: Time 34800, Note Name: C#5
Note ON: Time 34800, Note Name: C5, Velocity: 49
Note OFF: Time 35040, Note Name: C5
Note ON: Time 35040, Note Name: A#4, Velocity: 48
Note OFF: Time 35400, Note Name: A#4
Note ON: Time 35400, Note Name: G#4, Velocity: 42
Note OFF: Time 35520, Note Name: G#4
Note ON: Time 35520, Note Name: A#4, Velocity: 44
Note OFF: Time 35640, Note Name: A#4
Note ON: Time 35640, Note Name: C5, Velocity: 45
Note OFF: Time 35760, Note Name: C5
Note ON: Time 35760, Note Name: C#5, Velocity: 47
Note OFF: Time 35880, Note Name: C#5
Note ON: Time 35880, Note Name: D#5, Velocity: 48
Note OFF: Time 36000, Note Name: D#5
Note ON: Time 36000, Note Name: F5, Velocity: 49
Note OFF: Time 36720, Note Name: F5
Note ON: Time 36720, Note Name: D#5, Velocity: 49
Note OFF: Time 36960, Note Name: D#5
Note ON: Time 36960, Note Name: C#5, Velocity: 49
Note OFF: Time 37320, Note Name: C#5
Note ON: Time 37320, Note Name: F4, Velocity: 45
Note OFF: Time 37440, Note Name: F4
Note ON: Time 37440, Note Name: G#4, Velocity: 49
Note OFF: Time 38400, Note Name: G#4
Note ON: Time 38400, Note Name: C#5, Velocity: 52
Note OFF: Time 38640, Note Name: C#5
Note ON: Time 38640, Note Name: F5, Velocity: 54
Note OFF: Time 38880, Note Name: F5
Note ON: Time 38880, Note Name: A#5, Velocity: 61
Note OFF: Time 39720, Note Name: A#5
Note ON: Time 39720, Note Name: G#5, Velocity: 45
Note OFF: Time 39840, Note Name: G#5
Note ON: Time 39840, Note Name: E5, Velocity: 50
Note OFF: Time 39960, Note Name: E5
Note ON: Time 39960, Note Name: F5, Velocity: 45
Note OFF: Time 40080, Note Name: F5
Note ON: Time 40080, Note Name: C5, Velocity: 49
Note OFF: Time 40200, Note Name: C5
Note ON: Time 40200, Note Name: C#5, Velocity: 45
Note OFF: Time 40320, Note Name: C#5
Note ON: Time 40320, Note Name: A4, Velocity: 56
Note OFF: Time 41760, Note Name: A4
Note ON: Time 41760, Note Name: A#4, Velocity: 52
Note OFF: Time 42480, Note Name: A#4
Note ON: Time 42600, Note Name: C6, Velocity: 50
Note OFF: Time 42720, Note Name: C6
Note ON: Time 42720, Note Name: A#5, Velocity: 52
Note OFF: Time 42840, Note Name: A#5
Note ON: Time 42840, Note Name: F5, Velocity: 46
Note OFF: Time 42960, Note Name: F5
Note ON: Time 42960, Note Name: G#5, Velocity: 50
Note OFF: Time 43080, Note Name: G#5
Note ON: Time 43080, Note Name: F#5, Velocity: 45
Note OFF: Time 43200, Note Name: F#5
Note ON: Time 43200, Note Name: F5, Velocity: 51
Note OFF: Time 43680, Note Name: F5
Note ON: Time 43680, Note Name: D#5, Velocity: 52
Note ON: Time 44040, Note Name: D5, Velocity: 57
Note OFF: Time 44100, Note Name: D#5
Note OFF: Time 44160, Note Name: D5
Note ON: Time 44160, Note Name: D#5, Velocity: 57
Note OFF: Time 44280, Note Name: D#5
Note ON: Time 44280, Note Name: E5, Velocity: 57
Note OFF: Time 44400, Note Name: E5
Note ON: Time 44400, Note Name: F5, Velocity: 62
Note OFF: Time 44580, Note Name: F5
Note ON: Time 44580, Note Name: F#5, Velocity: 51
Note OFF: Time 44610, Note Name: F#5
Note ON: Time 44610, Note Name: F#5, Velocity: 51
Note OFF: Time 44640, Note Name: F#5
Note ON: Time 44640, Note Name: F#6, Velocity: 71
Note OFF: Time 44960, Note Name: F#6
Note ON: Time 44960, Note Name: D#6, Velocity: 65
Note OFF: Time 45040, Note Name: D#6
Note ON: Time 45040, Note Name: C#6, Velocity: 62
Note OFF: Time 45120, Note Name: C#6
Note ON: Time 45120, Note Name: A5, Velocity: 60
Note OFF: Time 45200, Note Name: A5
Note ON: Time 45200, Note Name: F#5, Velocity: 58
Note OFF: Time 45280, Note Name: F#5
Note ON: Time 45280, Note Name: D#5, Velocity: 55
Note OFF: Time 45360, Note Name: D#5
Note ON: Time 45360, Note Name: C5, Velocity: 47
Note OFF: Time 45480, Note Name: C5
Note ON: Time 45540, Note Name: G#4, Velocity: 49
Note OFF: Time 45600, Note Name: G#4
Note ON: Time 45600, Note Name: D#5, Velocity: 50
Note OFF: Time 45640, Note Name: D#5
Note ON: Time 45640, Note Name: C6, Velocity: 50
Note OFF: Time 45680, Note Name: C6
Note ON: Time 45680, Note Name: A4, Velocity: 48
Note OFF: Time 45720, Note Name: A4
Note ON: Time 45720, Note Name: E5, Velocity: 52
Note OFF: Time 45760, Note Name: E5
Note ON: Time 45760, Note Name: C#6, Velocity: 53
Note OFF: Time 45800, Note Name: C#6
Note ON: Time 45800, Note Name: A#4, Velocity: 50
Note OFF: Time 45840, Note Name: A#4
Note ON: Time 45840, Note Name: F5, Velocity: 54
Note OFF: Time 45880, Note Name: F5
Note ON: Time 45880, Note Name: D6, Velocity: 55
Note OFF: Time 45920, Note Name: D6
Note ON: Time 45920, Note Name: B4, Velocity: 53
Note OFF: Time 45960, Note Name: B4
Note ON: Time 45960, Note Name: F#5, Velocity: 56
Note OFF: Time 46000, Note Name: F#5
Note ON: Time 46000, Note Name: D#6, Velocity: 57
Note OFF: Time 46040, Note Name: D#6
Note ON: Time 46040, Note Name: C5, Velocity: 54
Note OFF: Time 46080, Note Name: C5
Note ON: Time 46080, Note Name: E6, Velocity: 64
Note ON: Time 46080, Note Name: G5, Velocity: 54
Note OFF: Time 46440, Note Name: G5
Note OFF: Time 46440, Note Name: E6
Note ON: Time 46440, Note Name: F6, Velocity: 58
Note ON: Time 46440, Note Name: G#5, Velocity: 49
Note OFF: Time 46560, Note Name: G#5
Note OFF: Time 46560, Note Name: F6
Note ON: Time 46560, Note Name: F6, Velocity: 57
Note ON: Time 46560, Note Name: G#5, Velocity: 48
Note OFF: Time 46640, Note Name: G#5
Note OFF: Time 46640, Note Name: F6
Note ON: Time 46640, Note Name: F#6, Velocity: 61
Note ON: Time 46640, Note Name: A#5, Velocity: 51
Note OFF: Time 46680, Note Name: A#5
Note OFF: Time 46680, Note Name: F#6
Note ON: Time 46760, Note Name: G#5, Velocity: 45
Note ON: Time 46760, Note Name: F6, Velocity: 54
Note OFF: Time 46800, Note Name: F6
Note OFF: Time 46800, Note Name: G#5
Note ON: Time 46800, Note Name: F6, Velocity: 58
Note ON: Time 46800, Note Name: G#5, Velocity: 49
Note OFF: Time 46860, Note Name: G#5
Note OFF: Time 46860, Note Name: F6
Note ON: Time 46860, Note Name: C#6, Velocity: 54
Note ON: Time 46860, Note Name: F5, Velocity: 45
Note OFF: Time 47520, Note Name: F5
Note OFF: Time 47520, Note Name: C#6
Note ON: Time 47520, Note Name: C#6, Velocity: 60
Note ON: Time 47520, Note Name: E5, Velocity: 51
Note OFF: Time 47760, Note Name: E5
Note OFF: Time 47760, Note Name: C#6
Note ON: Time 47760, Note Name: D6, Velocity: 57
Note ON: Time 47760, Note Name: F#5, Velocity: 48
Note OFF: Time 48000, Note Name: F#5
Note OFF: Time 48000, Note Name: D6
Note ON: Time 48000, Note Name: A5, Velocity: 54
Note ON: Time 48000, Note Name: C#5, Velocity: 45
Note OFF: Time 48240, Note Name: C#5
Note OFF: Time 48240, Note Name: A5
Note ON: Time 48240, Note Name: C#6, Velocity: 61
Note ON: Time 48240, Note Name: E5, Velocity: 61
Note OFF: Time 48360, Note Name: E5
Note OFF: Time 48360, Note Name: C#6
Note ON: Time 48360, Note Name: D5, Velocity: 43
Note ON: Time 48360, Note Name: B5, Velocity: 51
Note OFF: Time 48390, Note Name: B5
Note OFF: Time 48390, Note Name: D5
Note ON: Time 48390, Note Name: E5, Velocity: 51
Note ON: Time 48390, Note Name: C#6, Velocity: 51
Note OFF: Time 48420, Note Name: C#6
Note OFF: Time 48420, Note Name: E5
Note ON: Time 48420, Note Name: D5, Velocity: 45
Note ON: Time 48420, Note Name: B5, Velocity: 54
Note OFF: Time 48480, Note Name: B5
Note OFF: Time 48480, Note Name: D5
Note ON: Time 48480, Note Name: A#5, Velocity: 54
Note ON: Time 48480, Note Name: C#5, Velocity: 45
Note OFF: Time 48600, Note Name: C#5
Note OFF: Time 48600, Note Name: A#5
Note ON: Time 48600, Note Name: D5, Velocity: 48
Note ON: Time 48600, Note Name: B5, Velocity: 57
Note OFF: Time 48720, Note Name: B5
Note OFF: Time 48720, Note Name: D5
Note ON: Time 48720, Note Name: C#6, Velocity: 60
Note ON: Time 48720, Note Name: E5, Velocity: 51
Note OFF: Time 48780, Note Name: E5
Note OFF: Time 48780, Note Name: C#6
Note ON: Time 48900, Note Name: B4, Velocity: 45
Note ON: Time 48900, Note Name: G#5, Velocity: 54
Note OFF: Time 48960, Note Name: G#5
Note OFF: Time 48960, Note Name: B4
Note ON: Time 48960, Note Name: D5, Velocity: 54
Note ON: Time 48960, Note Name: B5, Velocity: 64
Note OFF: Time 49080, Note Name: B5
Note OFF: Time 49080, Note Name: D5
Note ON: Time 49320, Note Name: A5, Velocity: 61
Note ON: Time 49320, Note Name: C#5, Velocity: 51
Note OFF: Time 49440, Note Name: C#5
Note OFF: Time 49440, Note Name: A5
Note ON: Time 49440, Note Name: C#5, Velocity: 51
Note ON: Time 49440, Note Name: A5, Velocity: 61
Note OFF: Time 49480, Note Name: A5
Note OFF: Time 49480, Note Name: C#5
Note ON: Time 49520, Note Name: C#5, Velocity: 50
Note ON: Time 49520, Note Name: G#5, Velocity: 59
Note OFF: Time 49560, Note Name: G#5
Note OFF: Time 49560, Note Name: C#5
Note ON: Time 49600, Note Name: C#5, Velocity: 50
Note ON: Time 49600, Note Name: F#5, Velocity: 59
Note OFF: Time 49640, Note Name: F#5
Note OFF: Time 49640, Note Name: C#5
Note ON: Time 49680, Note Name: D5, Velocity: 51
Note ON: Time 49680, Note Name: E5, Velocity: 61
Note OFF: Time 50040, Note Name: E5
Note OFF: Time 50040, Note Name: D5
Note ON: Time 50040, Note Name: A#4, Velocity: 49
Note ON: Time 50040, Note Name: E5, Velocity: 58
Note OFF: Time 50100, Note Name: E5
Note OFF: Time 50100, Note Name: A#4
Note ON: Time 50160, Note Name: B4, Velocity: 52
Note ON: Time 50160, Note Name: E5, Velocity: 61
Note OFF: Time 50220, Note Name: E5
Note OFF: Time 50220, Note Name: B4
Note ON: Time 50280, Note Name: C5, Velocity: 55
Note ON: Time 50280, Note Name: E5, Velocity: 66
Note OFF: Time 50340, Note Name: E5
Note OFF: Time 50340, Note Name: C5
Note ON: Time 50400, Note Name: C#5, Velocity: 59
Note ON: Time 50400, Note Name: E5, Velocity: 67
Note OFF: Time 50880, Note Name: E5
Note OFF: Time 50880, Note Name: C#5
Note ON: Time 50880, Note Name: D5, Velocity: 55
Note ON: Time 50880, Note Name: F#5, Velocity: 61
Note OFF: Time 51000, Note Name: F#5
Note OFF: Time 51000, Note Name: D5
Note ON: Time 51000, Note Name: A4, Velocity: 55
Note ON: Time 51000, Note Name: C#5, Velocity: 65
Note OFF: Time 51120, Note Name: C#5
Note OFF: Time 51120, Note Name: A4
Note ON: Time 51120, Note Name: G#4, Velocity: 50
Note ON: Time 51120, Note Name: C#5, Velocity: 59
Note OFF: Time 51180, Note Name: C#5
Note OFF: Time 51180, Note Name: G#4
Note ON: Time 51180, Note Name: C#5, Velocity: 56
Note ON: Time 51180, Note Name: E5, Velocity: 66
Note OFF: Time 51300, Note Name: E5
Note OFF: Time 51300, Note Name: C#5
Note ON: Time 51300, Note Name: D5, Velocity: 60
Note ON: Time 51300, Note Name: B4, Velocity: 51
Note OFF: Time 51360, Note Name: B4
Note OFF: Time 51360, Note Name: D5
Note ON: Time 51360, Note Name: D5, Velocity: 58
Note ON: Time 51360, Note Name: B4, Velocity: 58
Note OFF: Time 51380, Note Name: B4
Note OFF: Time 51380, Note Name: D5
Note ON: Time 51380, Note Name: E5, Velocity: 52
Note ON: Time 51380, Note Name: C#5, Velocity: 52
Note OFF: Time 51400, Note Name: C#5
Note OFF: Time 51400, Note Name: E5
Note ON: Time 51400, Note Name: D5, Velocity: 57
Note ON: Time 51400, Note Name: B4, Velocity: 57
Note OFF: Time 51440, Note Name: B4
Note OFF: Time 51440, Note Name: D5
Note ON: Time 51440, Note Name: A#4, Velocity: 50
Note ON: Time 51440, Note Name: C#5, Velocity: 59
Note OFF: Time 51520, Note Name: C#5
Note OFF: Time 51520, Note Name: A#4
Note ON: Time 51520, Note Name: B4, Velocity: 51
Note ON: Time 51520, Note Name: D5, Velocity: 60
Note OFF: Time 51600, Note Name: D5
Note OFF: Time 51600, Note Name: B4
Note ON: Time 51600, Note Name: B4, Velocity: 52
Note ON: Time 51600, Note Name: D5, Velocity: 61
Note OFF: Time 51680, Note Name: D5
Note OFF: Time 51680, Note Name: B4
Note ON: Time 51680, Note Name: C#5, Velocity: 54
Note ON: Time 51680, Note Name: E5, Velocity: 63
Note OFF: Time 51720, Note Name: C#5
Note OFF: Time 51760, Note Name: E5
Note ON: Time 51800, Note Name: G#4, Velocity: 55
Note ON: Time 51800, Note Name: B4, Velocity: 65
Note OFF: Time 51840, Note Name: B4
Note OFF: Time 51840, Note Name: G#4
Note ON: Time 51840, Note Name: D5, Velocity: 62
Note ON: Time 51840, Note Name: B4, Velocity: 53
Note OFF: Time 52080, Note Name: B4
Note OFF: Time 52080, Note Name: D5
Note ON: Time 52080, Note Name: C#5, Velocity: 62
Note ON: Time 52080, Note Name: A4, Velocity: 53
Note OFF: Time 52320, Note Name: A4
Note OFF: Time 52320, Note Name: C#5
Note ON: Time 52320, Note Name: C#5, Velocity: 59
Note ON: Time 52320, Note Name: A5, Velocity: 70
Note OFF: Time 52800, Note Name: A5
Note OFF: Time 52800, Note Name: C#5
Note ON: Time 52800, Note Name: C#5, Velocity: 59
Note ON: Time 52800, Note Name: A5, Velocity: 70
Note OFF: Time 53040, Note Name: A5
Note OFF: Time 53040, Note Name: C#5
Note ON: Time 53040, Note Name: A5, Velocity: 76
Note ON: Time 53040, Note Name: C#5, Velocity: 64
Note OFF: Time 53280, Note Name: C#5
Note OFF: Time 53280, Note Name: A5
Note ON: Time 53280, Note Name: C#5, Velocity: 63
Note ON: Time 53280, Note Name: G#5, Velocity: 75
Note OFF: Time 53520, Note Name: G#5
Note ON: Time 53520, Note Name: A5, Velocity: 74
Note OFF: Time 53880, Note Name: A5
Note ON: Time 53880, Note Name: G#5, Velocity: 75
Note OFF: Time 54000, Note Name: G#5
Note ON: Time 54000, Note Name: F#5, Velocity: 73
Note OFF: Time 54080, Note Name: C#5
Note ON: Time 54080, Note Name: D#5, Velocity: 72
Note OFF: Time 54160, Note Name: D#5
Note ON: Time 54160, Note Name: C#5, Velocity: 70
Note OFF: Time 54240, Note Name: C#5
Note ON: Time 54240, Note Name: C5, Velocity: 70
Note OFF: Time 54320, Note Name: F#5
Note ON: Time 54320, Note Name: E5, Velocity: 70
Note OFF: Time 54400, Note Name: E5
Note ON: Time 54400, Note Name: F#5, Velocity: 75
Note OFF: Time 54480, Note Name: F#5
Note ON: Time 54480, Note Name: G#5, Velocity: 75
Note OFF: Time 54540, Note Name: G#5
Note OFF: Time 54600, Note Name: C5
Note ON: Time 54660, Note Name: C5, Velocity: 61
Note ON: Time 54660, Note Name: D#5, Velocity: 72
Note OFF: Time 54720, Note Name: D#5
Note OFF: Time 54720, Note Name: C5
Note ON: Time 54720, Note Name: D#5, Velocity: 64
Note ON: Time 54720, Note Name: F#5, Velocity: 76
Note OFF: Time 55040, Note Name: F#5
Note OFF: Time 55040, Note Name: D#5
Note ON: Time 55040, Note Name: C#5, Velocity: 62
Note ON: Time 55040, Note Name: E5, Velocity: 73
Note OFF: Time 55080, Note Name: E5
Note OFF: Time 55080, Note Name: C#5
Note ON: Time 55160, Note Name: E5, Velocity: 62
Note ON: Time 55160, Note Name: C#6, Velocity: 73
Note OFF: Time 55200, Note Name: C#6
Note OFF: Time 55200, Note Name: E5
Note ON: Time 55200, Note Name: E5, Velocity: 63
Note ON: Time 55200, Note Name: C#6, Velocity: 75
Note OFF: Time 55280, Note Name: C#6
Note OFF: Time 55280, Note Name: E5
Note ON: Time 55280, Note Name: G#5, Velocity: 62
Note ON: Time 55280, Note Name: B5, Velocity: 73
Note OFF: Time 55360, Note Name: B5
Note OFF: Time 55360, Note Name: G#5
Note ON: Time 55400, Note Name: F#5, Velocity: 59
Note ON: Time 55400, Note Name: A5, Velocity: 70
Note OFF: Time 55440, Note Name: A5
Note OFF: Time 55440, Note Name: F#5
Note ON: Time 55440, Note Name: E5, Velocity: 64
Note ON: Time 55440, Note Name: G#5, Velocity: 76
Note OFF: Time 55480, Note Name: G#5
Note OFF: Time 55480, Note Name: E5
Note ON: Time 55520, Note Name: G#4, Velocity: 57
Note ON: Time 55520, Note Name: G#5, Velocity: 68
Note OFF: Time 55560, Note Name: G#5
Note OFF: Time 55560, Note Name: G#4
Note ON: Time 55600, Note Name: A4, Velocity: 58
Note ON: Time 55600, Note Name: G#5, Velocity: 69
Note OFF: Time 55640, Note Name: G#5
Note OFF: Time 55640, Note Name: A4
Note ON: Time 55680, Note Name: A#4, Velocity: 58
Note ON: Time 55680, Note Name: G#5, Velocity: 70
Note OFF: Time 55720, Note Name: G#5
Note OFF: Time 55720, Note Name: A#4
Note ON: Time 55760, Note Name: B4, Velocity: 59
Note ON: Time 55760, Note Name: G#5, Velocity: 71
Note OFF: Time 55800, Note Name: G#5
Note OFF: Time 55800, Note Name: B4
Note ON: Time 55840, Note Name: C5, Velocity: 60
Note ON: Time 55840, Note Name: G#5, Velocity: 72
Note OFF: Time 55880, Note Name: G#5
Note OFF: Time 55880, Note Name: C5
Note ON: Time 55920, Note Name: C#5, Velocity: 61
Note ON: Time 55920, Note Name: G#5, Velocity: 73
Note OFF: Time 55960, Note Name: G#5
Note OFF: Time 55960, Note Name: C#5
Note ON: Time 55968, Note Name: D5, Velocity: 61
Note ON: Time 55968, Note Name: G#5, Velocity: 73
Note OFF: Time 56008, Note Name: G#5
Note OFF: Time 56008, Note Name: D5
Note ON: Time 56016, Note Name: D#5, Velocity: 63
Note ON: Time 56016, Note Name: G#5, Velocity: 74
Note OFF: Time 56056, Note Name: G#5
Note OFF: Time 56056, Note Name: D#5
Note ON: Time 56064, Note Name: E5, Velocity: 63
Note ON: Time 56064, Note Name: G#5, Velocity: 74
Note OFF: Time 56104, Note Name: G#5
Note OFF: Time 56104, Note Name: E5
Note ON: Time 56112, Note Name: F5, Velocity: 64
Note ON: Time 56112, Note Name: G#5, Velocity: 75
Note OFF: Time 56152, Note Name: G#5
Note OFF: Time 56152, Note Name: F5
Note ON: Time 56160, Note Name: G#5, Velocity: 79
Note ON: Time 56160, Note Name: F#5, Velocity: 67
Note OFF: Time 56340, Note Name: F#5
Note OFF: Time 56340, Note Name: G#5
Note ON: Time 56340, Note Name: B5, Velocity: 63
Note OFF: Time 56400, Note Name: B5
Note ON: Time 56400, Note Name: A5, Velocity: 78
Note ON: Time 56400, Note Name: F#5, Velocity: 66
Note OFF: Time 56640, Note Name: F#5
Note OFF: Time 56640, Note Name: A5
Note ON: Time 56640, Note Name: G#5, Velocity: 79
Note ON: Time 56640, Note Name: F#5, Velocity: 67
Note OFF: Time 56880, Note Name: F#5
Note OFF: Time 56880, Note Name: G#5
Note ON: Time 56880, Note Name: D#6, Velocity: 88
Note ON: Time 56880, Note Name: F#5, Velocity: 74
Note OFF: Time 56940, Note Name: F#5
Note OFF: Time 56940, Note Name: D#6
Note ON: Time 57120, Note Name: E5, Velocity: 69
Note ON: Time 57120, Note Name: G#5, Velocity: 81
Note OFF: Time 57360, Note Name: G#5
Note OFF: Time 57360, Note Name: E5
Note ON: Time 57360, Note Name: D#5, Velocity: 72
Note ON: Time 57360, Note Name: G#5, Velocity: 85
Note OFF: Time 57600, Note Name: G#5
Note OFF: Time 57600, Note Name: D#5
Note ON: Time 57600, Note Name: D#5, Velocity: 75
Note ON: Time 57600, Note Name: G#5, Velocity: 89
Note OFF: Time 58080, Note Name: G#5
Note ON: Time 58080, Note Name: F#5, Velocity: 80
Note OFF: Time 58320, Note Name: F#5
Note OFF: Time 58320, Note Name: D#5
Note ON: Time 58560, Note Name: C5, Velocity: 64
Note ON: Time 58560, Note Name: D#5, Velocity: 64
Note ON: Time 58560, Note Name: F#5, Velocity: 76
Note OFF: Time 58800, Note Name: F#5
Note OFF: Time 58800, Note Name: D#5
Note OFF: Time 58800, Note Name: C5
Note ON: Time 58800, Note Name: B4, Velocity: 68
Note ON: Time 58800, Note Name: D#5, Velocity: 68
Note ON: Time 58800, Note Name: F#5, Velocity: 80
Note OFF: Time 59040, Note Name: F#5
Note OFF: Time 59040, Note Name: D#5
Note OFF: Time 59040, Note Name: B4
Note ON: Time 59040, Note Name: A#4, Velocity: 71
Note ON: Time 59040, Note Name: D#5, Velocity: 71
Note ON: Time 59040, Note Name: F#5, Velocity: 84
Note OFF: Time 59160, Note Name: F#5
Note OFF: Time 59160, Note Name: D#5
Note OFF: Time 59160, Note Name: A#4
Note ON: Time 59220, Note Name: F#5, Velocity: 78
Note OFF: Time 59280, Note Name: F#5
Note ON: Time 59280, Note Name: F#6, Velocity: 97
Note OFF: Time 59880, Note Name: F#6
Note ON: Time 59880, Note Name: D6, Velocity: 86
Note OFF: Time 60000, Note Name: D6
Note ON: Time 60000, Note Name: D#6, Velocity: 79
Note OFF: Time 60080, Note Name: D#6
Note ON: Time 60080, Note Name: A5, Velocity: 77
Note OFF: Time 60160, Note Name: A5
Note ON: Time 60160, Note Name: A#5, Velocity: 77
Note OFF: Time 60240, Note Name: A#5
Note ON: Time 60240, Note Name: F5, Velocity: 76
Note OFF: Time 60320, Note Name: F5
Note ON: Time 60320, Note Name: F#5, Velocity: 75
Note OFF: Time 60400, Note Name: F#5
Note ON: Time 60400, Note Name: D5, Velocity: 75
Note OFF: Time 60480, Note Name: D5
Note ON: Time 60480, Note Name: A4, Velocity: 71
Note ON: Time 60480, Note Name: D#5, Velocity: 71
Note ON: Time 60480, Note Name: F#5, Velocity: 84
Note OFF: Time 60600, Note Name: F#5
Note OFF: Time 60600, Note Name: D#5
Note OFF: Time 60600, Note Name: A4
Note ON: Time 60660, Note Name: F#5, Velocity: 78
Note OFF: Time 60720, Note Name: F#5
Note ON: Time 60720, Note Name: F#6, Velocity: 97
Note OFF: Time 61320, Note Name: F#6
Note ON: Time 61320, Note Name: D6, Velocity: 86
Note OFF: Time 61440, Note Name: D6
Note ON: Time 61440, Note Name: D#6, Velocity: 79
Note OFF: Time 61520, Note Name: D#6
Note ON: Time 61520, Note Name: G#5, Velocity: 77
Note OFF: Time 61600, Note Name: G#5
Note ON: Time 61600, Note Name: A5, Velocity: 77
Note OFF: Time 61680, Note Name: A5
Note ON: Time 61680, Note Name: F5, Velocity: 76
Note OFF: Time 61760, Note Name: F5
Note ON: Time 61760, Note Name: F#5, Velocity: 75
Note OFF: Time 61840, Note Name: F#5
Note ON: Time 61840, Note Name: D5, Velocity: 75
Note OFF: Time 61920, Note Name: D5
Note ON: Time 61920, Note Name: A4, Velocity: 71
Note ON: Time 61920, Note Name: D#5, Velocity: 71
Note ON: Time 61920, Note Name: F#5, Velocity: 84
Note OFF: Time 62040, Note Name: F#5
Note OFF: Time 62040, Note Name: D#5
Note OFF: Time 62040, Note Name: A4
Note ON: Time 62100, Note Name: F#5, Velocity: 78
Note OFF: Time 62160, Note Name: F#5
Note ON: Time 62160, Note Name: F#6, Velocity: 97
Note OFF: Time 62640, Note Name: F#6
Note ON: Time 62640, Note Name: A4, Velocity: 71
Note ON: Time 62640, Note Name: C#5, Velocity: 71
Note ON: Time 62640, Note Name: F#5, Velocity: 84
Note OFF: Time 62760, Note Name: F#5
Note OFF: Time 62760, Note Name: C#5
Note OFF: Time 62760, Note Name: A4
Note ON: Time 62820, Note Name: F#5, Velocity: 78
Note OFF: Time 62880, Note Name: F#5
Note ON: Time 62880, Note Name: F#6, Velocity: 97
Note OFF: Time 63120, Note Name: F#6
Note ON: Time 63120, Note Name: A4, Velocity: 71
Note ON: Time 63120, Note Name: C5, Velocity: 71
Note ON: Time 63120, Note Name: F#5, Velocity: 84
Note OFF: Time 63240, Note Name: F#5
Note OFF: Time 63240, Note Name: C5
Note OFF: Time 63240, Note Name: A4
Note ON: Time 63300, Note Name: F#5, Velocity: 78
Note OFF: Time 63360, Note Name: F#5
Note ON: Time 63360, Note Name: F#6, Velocity: 97
Note OFF: Time 63680, Note Name: F#6
Note ON: Time 63680, Note Name: F6, Velocity: 86
Note OFF: Time 63760, Note Name: F6
Note ON: Time 63760, Note Name: E6, Velocity: 84
Note OFF: Time 63840, Note Name: E6
Note ON: Time 63840, Note Name: F#5, Velocity: 89
Note OFF: Time 63920, Note Name: F#5
Note ON: Time 63920, Note Name: D#6, Velocity: 82
Note OFF: Time 64000, Note Name: D#6
Note ON: Time 64000, Note Name: D6, Velocity: 82
Note OFF: Time 64080, Note Name: D6
Note ON: Time 64080, Note Name: C#6, Velocity: 87
Note OFF: Time 64160, Note Name: C#6
Note ON: Time 64160, Note Name: D#5, Velocity: 79
Note OFF: Time 64240, Note Name: D#5
Note ON: Time 64240, Note Name: C6, Velocity: 79
Note OFF: Time 64320, Note Name: C6
Note ON: Time 64320, Note Name: A#5, Velocity: 83
Note OFF: Time 64400, Note Name: A#5
Note ON: Time 64400, Note Name: A5, Velocity: 77
Note OFF: Time 64480, Note Name: A5
Note ON: Time 64480, Note Name: C5, Velocity: 74
Note OFF: Time 64560, Note Name: C5
Note ON: Time 64560, Note Name: G#5, Velocity: 81
Note OFF: Time 64640, Note Name: G#5
Note ON: Time 64640, Note Name: G5, Velocity: 75
Note OFF: Time 64720, Note Name: G5
Note ON: Time 64720, Note Name: F#5, Velocity: 73
Note OFF: Time 64800, Note Name: F#5
Note ON: Time 64800, Note Name: F5, Velocity: 79
Note OFF: Time 65520, Note Name: F5
Note ON: Time 65520, Note Name: D#5, Velocity: 82
Note OFF: Time 65760, Note Name: D#5
Note ON: Time 65760, Note Name: C#5, Velocity: 77
Note OFF: Time 66120, Note Name: C#5
Note ON: Time 66120, Note Name: F4, Velocity: 74
Note OFF: Time 66240, Note Name: F4
Note ON: Time 66240, Note Name: G#4, Velocity: 81
Note OFF: Time 67200, Note Name: G#4
Note ON: Time 67200, Note Name: C#5, Velocity: 81
Note OFF: Time 67440, Note Name: C#5
Note ON: Time 67440, Note Name: F5, Velocity: 85
Note OFF: Time 67680, Note Name: F5
Note ON: Time 67680, Note Name: A#5, Velocity: 95
Note OFF: Time 68520, Note Name: A#5
Note ON: Time 68520, Note Name: G#5, Velocity: 69
Note OFF: Time 68640, Note Name: G#5
Note ON: Time 68640, Note Name: E5, Velocity: 76
Note OFF: Time 68760, Note Name: E5
Note ON: Time 68760, Note Name: F5, Velocity: 70
Note OFF: Time 68880, Note Name: F5
Note ON: Time 68880, Note Name: C5, Velocity: 75
Note OFF: Time 69000, Note Name: C5
Note ON: Time 69000, Note Name: C#5, Velocity: 69
Note OFF: Time 69120, Note Name: C#5
Note ON: Time 69120, Note Name: B4, Velocity: 79
Note OFF: Time 70560, Note Name: B4
Note ON: Time 70560, Note Name: B5, Velocity: 61
Note OFF: Time 71360, Note Name: B5
Note ON: Time 71360, Note Name: G5, Velocity: 50
Note OFF: Time 71440, Note Name: G5
Note ON: Time 71440, Note Name: G#5, Velocity: 50
Note OFF: Time 71520, Note Name: G#5
Note ON: Time 71520, Note Name: G5, Velocity: 53
Note OFF: Time 71600, Note Name: G5
Note ON: Time 71600, Note Name: F#5, Velocity: 50
Note OFF: Time 71680, Note Name: F#5
Note ON: Time 71680, Note Name: G5, Velocity: 50
Note OFF: Time 71760, Note Name: G5
Note ON: Time 71760, Note Name: A#5, Velocity: 56
Note OFF: Time 71840, Note Name: A#5
Note ON: Time 71840, Note Name: G#5, Velocity: 52
Note OFF: Time 71920, Note Name: G#5
Note ON: Time 71920, Note Name: F5, Velocity: 50
Note OFF: Time 72000, Note Name: F5
Note ON: Time 72000, Note Name: D#5, Velocity: 51
Note OFF: Time 72720, Note Name: D#5
Note ON: Time 72720, Note Name: C#5, Velocity: 47
Note ON: Time 72745, Note Name: D#5, Velocity: 43
Note OFF: Time 72750, Note Name: C#5
Note ON: Time 72770, Note Name: C#5, Velocity: 47
Note OFF: Time 72775, Note Name: D#5
Note ON: Time 72795, Note Name: D#5, Velocity: 43
Note OFF: Time 72800, Note Name: C#5
Note ON: Time 72820, Note Name: C#5, Velocity: 47
Note OFF: Time 72825, Note Name: D#5
Note ON: Time 72840, Note Name: D#5, Velocity: 43
Note OFF: Time 72850, Note Name: C#5
Note ON: Time 72860, Note Name: C#5, Velocity: 47
Note OFF: Time 72870, Note Name: D#5
Note ON: Time 72880, Note Name: D#5, Velocity: 43
Note OFF: Time 72890, Note Name: C#5
Note ON: Time 72900, Note Name: C#5, Velocity: 47
Note OFF: Time 72910, Note Name: D#5
Note ON: Time 72920, Note Name: D#5, Velocity: 43
Note OFF: Time 72930, Note Name: C#5
Note ON: Time 72940, Note Name: C#5, Velocity: 47
Note OFF: Time 72950, Note Name: D#5
Note ON: Time 72960, Note Name: C5, Velocity: 47
Note OFF: Time 72970, Note Name: C#5
Note OFF: Time 73000, Note Name: C5
Note ON: Time 73000, Note Name: C#5, Velocity: 46
Note OFF: Time 73040, Note Name: C#5
Note ON: Time 73040, Note Name: D#5, Velocity: 47
Note OFF: Time 73080, Note Name: D#5
Note ON: Time 73080, Note Name: F5, Velocity: 48
Note OFF: Time 73120, Note Name: F5
Note ON: Time 73120, Note Name: F#5, Velocity: 49
Note OFF: Time 73160, Note Name: F#5
Note ON: Time 73160, Note Name: G#5, Velocity: 50
Note OFF: Time 73200, Note Name: G#5
Note ON: Time 73200, Note Name: A#5, Velocity: 51
Note OFF: Time 73240, Note Name: A#5
Note ON: Time 73240, Note Name: B5, Velocity: 52
Note OFF: Time 73280, Note Name: B5
Note ON: Time 73280, Note Name: C#6, Velocity: 53
Note OFF: Time 73320, Note Name: C#6
Note ON: Time 73320, Note Name: D#6, Velocity: 54
Note OFF: Time 73360, Note Name: D#6
Note ON: Time 73360, Note Name: F6, Velocity: 55
Note OFF: Time 73400, Note Name: F6
Note ON: Time 73400, Note Name: F#6, Velocity: 55
Note OFF: Time 73440, Note Name: F#6
Note ON: Time 73440, Note Name: A#6, Velocity: 57
Note OFF: Time 73500, Note Name: A#6
Note ON: Time 73500, Note Name: G#6, Velocity: 55
Note OFF: Time 73560, Note Name: G#6
Note ON: Time 73560, Note Name: B6, Velocity: 52
Note OFF: Time 73620, Note Name: B6
Note ON: Time 73620, Note Name: G6, Velocity: 52
Note OFF: Time 73680, Note Name: G6
Note ON: Time 73680, Note Name: G#6, Velocity: 52
Note OFF: Time 73740, Note Name: G#6
Note ON: Time 73740, Note Name: G6, Velocity: 52
Note OFF: Time 73800, Note Name: G6
Note ON: Time 73800, Note Name: B6, Velocity: 52
Note OFF: Time 73860, Note Name: B6
Note ON: Time 73860, Note Name: F#6, Velocity: 52
Note OFF: Time 73920, Note Name: F#6
Note ON: Time 73920, Note Name: G6, Velocity: 49
Note OFF: Time 73980, Note Name: G6
Note ON: Time 73980, Note Name: F#6, Velocity: 49
Note OFF: Time 74040, Note Name: F#6
Note ON: Time 74040, Note Name: B6, Velocity: 50
Note OFF: Time 74100, Note Name: B6
Note ON: Time 74100, Note Name: F6, Velocity: 50
Note OFF: Time 74160, Note Name: F6
Note ON: Time 74160, Note Name: F#6, Velocity: 51
Note OFF: Time 74220, Note Name: F#6
Note ON: Time 74220, Note Name: F6, Velocity: 52
Note OFF: Time 74280, Note Name: F6
Note ON: Time 74280, Note Name: B6, Velocity: 52
Note OFF: Time 74340, Note Name: B6
Note ON: Time 74340, Note Name: E6, Velocity: 53
Note OFF: Time 74400, Note Name: E6
Note ON: Time 74400, Note Name: F6, Velocity: 53
Note OFF: Time 74460, Note Name: F6
Note ON: Time 74460, Note Name: E6, Velocity: 54
Note OFF: Time 74520, Note Name: E6
Note ON: Time 74520, Note Name: B6, Velocity: 55
Note OFF: Time 74580, Note Name: B6
Note ON: Time 74580, Note Name: D#6, Velocity: 55
Note OFF: Time 74640, Note Name: D#6
Note ON: Time 74640, Note Name: E6, Velocity: 56
Note OFF: Time 74700, Note Name: E6
Note ON: Time 74700, Note Name: D#6, Velocity: 57
Note OFF: Time 74760, Note Name: D#6
Note ON: Time 74760, Note Name: B6, Velocity: 57
Note OFF: Time 74820, Note Name: B6
Note ON: Time 74820, Note Name: D6, Velocity: 57
Note OFF: Time 74880, Note Name: D6
Note ON: Time 74880, Note Name: C#6, Velocity: 57
Note OFF: Time 74940, Note Name: C#6
Note ON: Time 74940, Note Name: D#6, Velocity: 58
Note OFF: Time 75000, Note Name: D#6
Note ON: Time 75000, Note Name: C#6, Velocity: 59
Note OFF: Time 75060, Note Name: C#6
Note ON: Time 75060, Note Name: C6, Velocity: 59
Note OFF: Time 75120, Note Name: C6
Note ON: Time 75120, Note Name: C#6, Velocity: 60
Note OFF: Time 75180, Note Name: C#6
Note ON: Time 75180, Note Name: D#6, Velocity: 61
Note OFF: Time 75240, Note Name: D#6
Note ON: Time 75240, Note Name: F6, Velocity: 61
Note OFF: Time 75300, Note Name: F6
Note ON: Time 75300, Note Name: F#6, Velocity: 62
Note OFF: Time 75360, Note Name: F#6
Note ON: Time 75360, Note Name: G#6, Velocity: 62
Note OFF: Time 75420, Note Name: G#6
Note ON: Time 75420, Note Name: A#6, Velocity: 62
Note OFF: Time 75480, Note Name: A#6
Note ON: Time 75480, Note Name: B6, Velocity: 64
Note OFF: Time 75540, Note Name: B6
Note ON: Time 75540, Note Name: C#7, Velocity: 66
Note OFF: Time 75600, Note Name: C#7
Note ON: Time 75600, Note Name: F7, Velocity: 65
Note OFF: Time 75660, Note Name: F7
Note ON: Time 75660, Note Name: D#7, Velocity: 64
Note OFF: Time 75720, Note Name: D#7
Note ON: Time 75720, Note Name: C#7, Velocity: 62
Note OFF: Time 75780, Note Name: C#7
Note ON: Time 75780, Note Name: B6, Velocity: 61
Note OFF: Time 75840, Note Name: B6
Note ON: Time 75840, Note Name: G#6, Velocity: 59
Note OFF: Time 75900, Note Name: G#6
Note ON: Time 75900, Note Name: F6, Velocity: 58
Note OFF: Time 75960, Note Name: F6
Note ON: Time 75960, Note Name: C#6, Velocity: 57
Note OFF: Time 76020, Note Name: C#6
Note ON: Time 76020, Note Name: B5, Velocity: 56
Note OFF: Time 76080, Note Name: B5
Note ON: Time 76080, Note Name: G#5, Velocity: 54
Note OFF: Time 76140, Note Name: G#5
Note ON: Time 76140, Note Name: F5, Velocity: 53
Note OFF: Time 76200, Note Name: F5
Note ON: Time 76200, Note Name: C#5, Velocity: 51
Note OFF: Time 76260, Note Name: C#5
Note ON: Time 76260, Note Name: B4, Velocity: 50
Note OFF: Time 76320, Note Name: B4
Note ON: Time 76320, Note Name: A#4, Velocity: 53
Note OFF: Time 76680, Note Name: A#4
Note ON: Time 76680, Note Name: A4, Velocity: 48
Note OFF: Time 76740, Note Name: A4
Note ON: Time 76740, Note Name: A#4, Velocity: 50
Note OFF: Time 76800, Note Name: A#4
Note ON: Time 76800, Note Name: B4, Velocity: 53
Note OFF: Time 76860, Note Name: B4
Note ON: Time 76860, Note Name: A#4, Velocity: 50
Note OFF: Time 76920, Note Name: A#4
Note ON: Time 76920, Note Name: C#5, Velocity: 52
Note OFF: Time 76960, Note Name: C#5
Note ON: Time 76960, Note Name: B4, Velocity: 50
Note OFF: Time 77000, Note Name: B4
Note ON: Time 77000, Note Name: A#4, Velocity: 48
Note OFF: Time 77040, Note Name: A#4
Note ON: Time 77040, Note Name: A#4, Velocity: 50
Note OFF: Time 77520, Note Name: A#4
Note ON: Time 77520, Note Name: A#5, Velocity: 54
Note ON: Time 77760, Note Name: F#5, Velocity: 59
Note OFF: Time 78000, Note Name: F#5
Note OFF: Time 78000, Note Name: A#5
Note ON: Time 78000, Note Name: B5, Velocity: 61
Note ON: Time 78000, Note Name: G#5, Velocity: 55
Note OFF: Time 78240, Note Name: G#5
Note OFF: Time 78240, Note Name: B5
Note ON: Time 78240, Note Name: D#5, Velocity: 51
Note ON: Time 78240, Note Name: F#5, Velocity: 61
Note OFF: Time 78420, Note Name: F#5
Note OFF: Time 78420, Note Name: D#5
Note ON: Time 78420, Note Name: D#5, Velocity: 50
Note ON: Time 78420, Note Name: F#5, Velocity: 59
Note OFF: Time 78480, Note Name: F#5
Note OFF: Time 78480, Note Name: D#5
Note ON: Time 78480, Note Name: F#5, Velocity: 56
Note ON: Time 78480, Note Name: A#5, Velocity: 66
Note OFF: Time 78600, Note Name: A#5
Note OFF: Time 78600, Note Name: F#5
Note ON: Time 78660, Note Name: G#5, Velocity: 60
Note ON: Time 78660, Note Name: F5, Velocity: 51
Note OFF: Time 78720, Note Name: F5
Note OFF: Time 78720, Note Name: G#5
Note ON: Time 78720, Note Name: G#5, Velocity: 58
Note ON: Time 78720, Note Name: F5, Velocity: 58
Note OFF: Time 78740, Note Name: F5
Note OFF: Time 78740, Note Name: G#5
Note ON: Time 78740, Note Name: A#5, Velocity: 52
Note ON: Time 78740, Note Name: F#5, Velocity: 52
Note OFF: Time 78760, Note Name: F#5
Note OFF: Time 78760, Note Name: A#5
Note ON: Time 78760, Note Name: G#5, Velocity: 57
Note ON: Time 78760, Note Name: F5, Velocity: 57
Note OFF: Time 78800, Note Name: F5
Note OFF: Time 78800, Note Name: G#5
Note ON: Time 78800, Note Name: D#5, Velocity: 50
Note ON: Time 78800, Note Name: F#5, Velocity: 59
Note OFF: Time 78880, Note Name: F#5
Note OFF: Time 78880, Note Name: D#5
Note ON: Time 78880, Note Name: F5, Velocity: 51
Note ON: Time 78880, Note Name: G#5, Velocity: 60
Note OFF: Time 78960, Note Name: G#5
Note OFF: Time 78960, Note Name: F5
Note ON: Time 78960, Note Name: A#5, Velocity: 63
Note ON: Time 78960, Note Name: F#5, Velocity: 54
Note OFF: Time 79000, Note Name: F#5
Note OFF: Time 79040, Note Name: A#5
Note ON: Time 79160, Note Name: D5, Velocity: 55
Note ON: Time 79160, Note Name: F5, Velocity: 65
Note OFF: Time 79200, Note Name: F5
Note OFF: Time 79200, Note Name: D5
Note ON: Time 79200, Note Name: G#5, Velocity: 62
Note ON: Time 79200, Note Name: F5, Velocity: 53
Note OFF: Time 79440, Note Name: F5
Note OFF: Time 79440, Note Name: G#5
Note ON: Time 79440, Note Name: F#5, Velocity: 57
Note ON: Time 79440, Note Name: D#5, Velocity: 57
Note OFF: Time 79560, Note Name: D#5
Note OFF: Time 79560, Note Name: F#5
Note ON: Time 79620, Note Name: F#5, Velocity: 56
Note ON: Time 79620, Note Name: D#6, Velocity: 66
Note OFF: Time 79680, Note Name: D#6
Note OFF: Time 79680, Note Name: F#5
Note ON: Time 79680, Note Name: F#5, Velocity: 55
Note ON: Time 79680, Note Name: D#6, Velocity: 65
Note OFF: Time 79760, Note Name: D#6
Note OFF: Time 79760, Note Name: F#5
Note ON: Time 79760, Note Name: F5, Velocity: 52
Note ON: Time 79760, Note Name: C#6, Velocity: 61
Note OFF: Time 79840, Note Name: C#6
Note OFF: Time 79840, Note Name: F5
Note ON: Time 79840, Note Name: D#5, Velocity: 52
Note ON: Time 79840, Note Name: B5, Velocity: 61
Note OFF: Time 79920, Note Name: B5
Note OFF: Time 79920, Note Name: D#5
Note ON: Time 79920, Note Name: D5, Velocity: 57
Note ON: Time 79920, Note Name: A#5, Velocity: 68
Note OFF: Time 80000, Note Name: A#5
Note OFF: Time 80000, Note Name: D5
Note ON: Time 80000, Note Name: A#4, Velocity: 49
Note ON: Time 80000, Note Name: A#5, Velocity: 58
Note OFF: Time 80040, Note Name: A#5
Note OFF: Time 80040, Note Name: A#4
Note ON: Time 80080, Note Name: B4, Velocity: 50
Note ON: Time 80080, Note Name: A#5, Velocity: 60
Note OFF: Time 80120, Note Name: A#5
Note OFF: Time 80120, Note Name: B4
Note ON: Time 80160, Note Name: C5, Velocity: 52
Note ON: Time 80160, Note Name: A#5, Velocity: 62
Note OFF: Time 80200, Note Name: A#5
Note OFF: Time 80200, Note Name: C5
Note ON: Time 80240, Note Name: C#5, Velocity: 53
Note ON: Time 80240, Note Name: A#5, Velocity: 63
Note OFF: Time 80280, Note Name: A#5
Note OFF: Time 80280, Note Name: C#5
Note ON: Time 80320, Note Name: D5, Velocity: 56
Note ON: Time 80320, Note Name: A#5, Velocity: 66
Note OFF: Time 80360, Note Name: A#5
Note OFF: Time 80360, Note Name: D5
Note ON: Time 80400, Note Name: D#5, Velocity: 57
Note ON: Time 80400, Note Name: A#5, Velocity: 68
Note OFF: Time 80440, Note Name: A#5
Note OFF: Time 80440, Note Name: D#5
Note ON: Time 80480, Note Name: E5, Velocity: 59
Note ON: Time 80480, Note Name: A#5, Velocity: 70
Note OFF: Time 80520, Note Name: A#5
Note OFF: Time 80520, Note Name: E5
Note ON: Time 80560, Note Name: F5, Velocity: 60
Note ON: Time 80560, Note Name: A#5, Velocity: 71
Note OFF: Time 80600, Note Name: A#5
Note OFF: Time 80600, Note Name: F5
Note ON: Time 80640, Note Name: F#5, Velocity: 59
Note ON: Time 80640, Note Name: A#5, Velocity: 67
Note OFF: Time 80880, Note Name: A#5
Note OFF: Time 80880, Note Name: F#5
Note ON: Time 80880, Note Name: B5, Velocity: 61
Note ON: Time 80880, Note Name: G#5, Velocity: 55
Note OFF: Time 81240, Note Name: G#5
Note OFF: Time 81240, Note Name: B5
Note ON: Time 81240, Note Name: D#5, Velocity: 55
Note ON: Time 81240, Note Name: F#5, Velocity: 65
Note OFF: Time 81300, Note Name: F#5
Note OFF: Time 81300, Note Name: D#5
Note ON: Time 81300, Note Name: D#5, Velocity: 50
Note ON: Time 81300, Note Name: F#5, Velocity: 59
Note OFF: Time 81360, Note Name: F#5
Note OFF: Time 81360, Note Name: D#5
Note ON: Time 81360, Note Name: F#5, Velocity: 56
Note ON: Time 81360, Note Name: A#5, Velocity: 66
Note OFF: Time 81480, Note Name: A#5
Note OFF: Time 81480, Note Name: F#5
Note ON: Time 81540, Note Name: G#5, Velocity: 60
Note ON: Time 81540, Note Name: F5, Velocity: 51
Note OFF: Time 81600, Note Name: F5
Note OFF: Time 81600, Note Name: G#5
Note ON: Time 81600, Note Name: G#5, Velocity: 58
Note ON: Time 81600, Note Name: F5, Velocity: 58
Note OFF: Time 81620, Note Name: F5
Note OFF: Time 81620, Note Name: G#5
Note ON: Time 81620, Note Name: A#5, Velocity: 52
Note ON: Time 81620, Note Name: F#5, Velocity: 52
Note OFF: Time 81640, Note Name: F#5
Note OFF: Time 81640, Note Name: A#5
Note ON: Time 81640, Note Name: G#5, Velocity: 57
Note ON: Time 81640, Note Name: F5, Velocity: 57
Note OFF: Time 81680, Note Name: F5
Note OFF: Time 81680, Note Name: G#5
Note ON: Time 81680, Note Name: D#5, Velocity: 50
Note ON: Time 81680, Note Name: F#5, Velocity: 59
Note OFF: Time 81760, Note Name: F#5
Note OFF: Time 81760, Note Name: D#5
Note ON: Time 81760, Note Name: F5, Velocity: 51
Note ON: Time 81760, Note Name: G#5, Velocity: 60
Note OFF: Time 81840, Note Name: G#5
Note OFF: Time 81840, Note Name: F5
Note ON: Time 81840, Note Name: F5, Velocity: 52
Note ON: Time 81840, Note Name: G#5, Velocity: 61
Note OFF: Time 81920, Note Name: G#5
Note OFF: Time 81920, Note Name: F5
Note ON: Time 81920, Note Name: F#5, Velocity: 54
Note ON: Time 81920, Note Name: A#5, Velocity: 63
Note OFF: Time 81960, Note Name: F#5
Note OFF: Time 82000, Note Name: A#5
Note ON: Time 82040, Note Name: D5, Velocity: 55
Note ON: Time 82040, Note Name: F5, Velocity: 65
Note OFF: Time 82080, Note Name: F5
Note OFF: Time 82080, Note Name: D5
Note ON: Time 82080, Note Name: G#5, Velocity: 62
Note ON: Time 82080, Note Name: F5, Velocity: 53
Note OFF: Time 82320, Note Name: F5
Note OFF: Time 82320, Note Name: G#5
Note ON: Time 82320, Note Name: F#5, Velocity: 57
Note ON: Time 82320, Note Name: D#5, Velocity: 57
Note OFF: Time 82440, Note Name: D#5
Note OFF: Time 82440, Note Name: F#5
Note ON: Time 82560, Note Name: F#6, Velocity: 71
Note ON: Time 82560, Note Name: A#5, Velocity: 60
Note OFF: Time 82920, Note Name: A#5
Note OFF: Time 82920, Note Name: F#6
Note ON: Time 82920, Note Name: F6, Velocity: 73
Note ON: Time 82920, Note Name: G#5, Velocity: 62
Note OFF: Time 82980, Note Name: G#5
Note OFF: Time 82980, Note Name: F6
Note ON: Time 83040, Note Name: F#5, Velocity: 56
Note ON: Time 83040, Note Name: D#6, Velocity: 67
Note OFF: Time 83080, Note Name: D#6
Note OFF: Time 83080, Note Name: F#5
Note ON: Time 83120, Note Name: F5, Velocity: 57
Note ON: Time 83120, Note Name: C#6, Velocity: 68
Note OFF: Time 83160, Note Name: C#6
Note OFF: Time 83160, Note Name: F5
Note ON: Time 83200, Note Name: D#5, Velocity: 59
Note ON: Time 83200, Note Name: C6, Velocity: 70
Note OFF: Time 83240, Note Name: C6
Note OFF: Time 83240, Note Name: D#5
Note ON: Time 83280, Note Name: C#5, Velocity: 60
Note ON: Time 83280, Note Name: A#5, Velocity: 71
Note OFF: Time 83320, Note Name: A#5
Note OFF: Time 83320, Note Name: C#5
Note ON: Time 83360, Note Name: C5, Velocity: 61
Note ON: Time 83360, Note Name: G#5, Velocity: 72
Note OFF: Time 83400, Note Name: G#5
Note OFF: Time 83400, Note Name: C5
Note ON: Time 83440, Note Name: A#4, Velocity: 62
Note ON: Time 83440, Note Name: F#5, Velocity: 73
Note OFF: Time 83480, Note Name: F#5
Note OFF: Time 83480, Note Name: A#4
Note ON: Time 83520, Note Name: G#4, Velocity: 61
Note ON: Time 83520, Note Name: F5, Velocity: 72
Note OFF: Time 83760, Note Name: F5
Note OFF: Time 83760, Note Name: G#4
Note ON: Time 83760, Note Name: A#4, Velocity: 64
Note ON: Time 83760, Note Name: F#5, Velocity: 76
Note OFF: Time 84000, Note Name: F#5
Note OFF: Time 84000, Note Name: A#4
Note ON: Time 84000, Note Name: G#4, Velocity: 62
Note ON: Time 84000, Note Name: F5, Velocity: 74
Note OFF: Time 84240, Note Name: F5
Note OFF: Time 84240, Note Name: G#4
Note ON: Time 84240, Note Name: F#4, Velocity: 62
Note ON: Time 84240, Note Name: D#5, Velocity: 73
Note OFF: Time 84480, Note Name: D#5
Note OFF: Time 84480, Note Name: F#4
Note ON: Time 84480, Note Name: F4, Velocity: 60
Note ON: Time 84480, Note Name: C#5, Velocity: 71
Note OFF: Time 84720, Note Name: C#5
Note OFF: Time 84720, Note Name: F4
Note ON: Time 84720, Note Name: C#4, Velocity: 60
Note ON: Time 84720, Note Name: F4, Velocity: 71
Note OFF: Time 84960, Note Name: F4
Note OFF: Time 84960, Note Name: C#4
Note ON: Time 84960, Note Name: C#4, Velocity: 65
Note ON: Time 84960, Note Name: G#4, Velocity: 77
Note OFF: Time 85680, Note Name: G#4
Note OFF: Time 85680, Note Name: C#4
Note ON: Time 85680, Note Name: D#4, Velocity: 66
Note ON: Time 85680, Note Name: C#4, Velocity: 66
Note ON: Time 85680, Note Name: A#4, Velocity: 78
Note OFF: Time 86400, Note Name: A#4
Note OFF: Time 86400, Note Name: C#4
Note OFF: Time 86400, Note Name: D#4
Note ON: Time 86400, Note Name: G#3, Velocity: 66
Note ON: Time 86400, Note Name: C#4, Velocity: 66
Note ON: Time 86400, Note Name: D#4, Velocity: 78
Note OFF: Time 86800, Note Name: D#4
Note ON: Time 86800, Note Name: G#4, Velocity: 61
Note OFF: Time 86840, Note Name: G#4
Note ON: Time 86840, Note Name: C#5, Velocity: 63
Note OFF: Time 86880, Note Name: C#5
Note ON: Time 86880, Note Name: D#5, Velocity: 65
Note OFF: Time 86920, Note Name: D#5
Note ON: Time 86920, Note Name: G#5, Velocity: 67
Note OFF: Time 86960, Note Name: G#5
Note ON: Time 86960, Note Name: C#6, Velocity: 68
Note OFF: Time 87000, Note Name: C#6
Note ON: Time 87000, Note Name: D#6, Velocity: 70
Note OFF: Time 87040, Note Name: D#6
Note ON: Time 87040, Note Name: G#6, Velocity: 72
Note OFF: Time 87080, Note Name: G#6
Note ON: Time 87080, Note Name: C#7, Velocity: 73
Note OFF: Time 87120, Note Name: C#7
Note OFF: Time 87120, Note Name: C#4
Note OFF: Time 87120, Note Name: G#3
Note ON: Time 87120, Note Name: D#7, Velocity: 92
Note OFF: Time 87520, Note Name: D#7
Note ON: Time 87520, Note Name: C#7, Velocity: 78
Note OFF: Time 87560, Note Name: C#7
Note ON: Time 87560, Note Name: G#6, Velocity: 76
Note OFF: Time 87600, Note Name: G#6
Note ON: Time 87600, Note Name: D#6, Velocity: 74
Note OFF: Time 87640, Note Name: D#6
Note ON: Time 87640, Note Name: C#6, Velocity: 72
Note OFF: Time 87680, Note Name: C#6
Note ON: Time 87680, Note Name: G#5, Velocity: 69
Note OFF: Time 87720, Note Name: G#5
Note ON: Time 87720, Note Name: D#5, Velocity: 67
Note OFF: Time 87760, Note Name: D#5
Note ON: Time 87760, Note Name: C#5, Velocity: 65
Note OFF: Time 87800, Note Name: C#5
Note ON: Time 87800, Note Name: G#4, Velocity: 63
Note OFF: Time 87840, Note Name: G#4
Note ON: Time 87840, Note Name: D#4, Velocity: 78
Note OFF: Time 88560, Note Name: D#4
Note ON: Time 88560, Note Name: F4, Velocity: 66
Note ON: Time 88560, Note Name: G#3, Velocity: 66
Note ON: Time 88560, Note Name: G#4, Velocity: 78
Note OFF: Time 88920, Note Name: F4
Note ON: Time 88920, Note Name: D#4, Velocity: 72
Note OFF: Time 89040, Note Name: D#4
Note ON: Time 89040, Note Name: F4, Velocity: 78
Note OFF: Time 89120, Note Name: F4
Note ON: Time 89120, Note Name: D#4, Velocity: 75
Note OFF: Time 89200, Note Name: D#4
Note ON: Time 89200, Note Name: C#4, Velocity: 75
Note OFF: Time 89280, Note Name: C#4
Note OFF: Time 89280, Note Name: G#4
Note OFF: Time 89280, Note Name: G#3
Note ON: Time 89280, Note Name: C#4, Velocity: 78
Note OFF: Time 89760, Note Name: C#4
Note ON: Time 90000, Note Name: C#6, Velocity: 62
Note OFF: Time 90240, Note Name: C#6
Note ON: Time 90240, Note Name: G5, Velocity: 55
Note OFF: Time 90720, Note Name: G5
Note ON: Time 90720, Note Name: C6, Velocity: 62
Note OFF: Time 90960, Note Name: C6
Note ON: Time 90960, Note Name: F#5, Velocity: 55
Note OFF: Time 91440, Note Name: F#5
Note ON: Time 91440, Note Name: B5, Velocity: 62
Note OFF: Time 91680, Note Name: B5
Note ON: Time 91680, Note Name: F5, Velocity: 54
Note OFF: Time 92160, Note Name: F5
Note ON: Time 92160, Note Name: A#5, Velocity: 60
Note OFF: Time 92400, Note Name: A#5
Note ON: Time 92400, Note Name: E5, Velocity: 52
Note OFF: Time 92880, Note Name: E5
Note ON: Time 92880, Note Name: A5, Velocity: 58
Note OFF: Time 93120, Note Name: A5
Note ON: Time 93120, Note Name: D#5, Velocity: 51
Note OFF: Time 93600, Note Name: D#5
Note ON: Time 93600, Note Name: G#5, Velocity: 60
Note ON: Time 94080, Note Name: G#4, Velocity: 43
Note OFF: Time 94170, Note Name: G#4
Note ON: Time 94200, Note Name: A#4, Velocity: 44
Note OFF: Time 94290, Note Name: A#4
Note ON: Time 94320, Note Name: C5, Velocity: 45
Note OFF: Time 94410, Note Name: C5
Note ON: Time 94440, Note Name: C#5, Velocity: 46
Note OFF: Time 94530, Note Name: C#5
Note ON: Time 94560, Note Name: D5, Velocity: 47
Note OFF: Time 94650, Note Name: D5
Note ON: Time 94680, Note Name: D#5, Velocity: 48
Note OFF: Time 94770, Note Name: D#5
Note ON: Time 94800, Note Name: F5, Velocity: 50
Note OFF: Time 94890, Note Name: F5
Note ON: Time 94920, Note Name: F#5, Velocity: 51
Note OFF: Time 95010, Note Name: F#5
Note ON: Time 95040, Note Name: F5, Velocity: 54
Note OFF: Time 95520, Note Name: F5
Note OFF: Time 95520, Note Name: G#5
Note ON: Time 95760, Note Name: C#6, Velocity: 55
Note ON: Time 95940, Note Name: A#6, Velocity: 41
Note OFF: Time 96000, Note Name: A#6
Note OFF: Time 96000, Note Name: C#6
Note ON: Time 96000, Note Name: G5, Velocity: 49
Note OFF: Time 96480, Note Name: G5
Note ON: Time 96480, Note Name: C6, Velocity: 55
Note ON: Time 96660, Note Name: A6, Velocity: 41
Note OFF: Time 96720, Note Name: A6
Note OFF: Time 96720, Note Name: C6
Note ON: Time 96720, Note Name: F#5, Velocity: 49
Note OFF: Time 97200, Note Name: F#5
Note ON: Time 97200, Note Name: B5, Velocity: 55
Note ON: Time 97380, Note Name: G#6, Velocity: 41
Note OFF: Time 97440, Note Name: G#6
Note OFF: Time 97440, Note Name: B5
Note ON: Time 97440, Note Name: F5, Velocity: 49
Note OFF: Time 97920, Note Name: F5
Note ON: Time 97920, Note Name: A#5, Velocity: 55
Note ON: Time 98100, Note Name: G6, Velocity: 41
Note OFF: Time 98160, Note Name: G6
Note OFF: Time 98160, Note Name: A#5
Note ON: Time 98160, Note Name: E5, Velocity: 49
Note OFF: Time 98640, Note Name: E5
Note ON: Time 98640, Note Name: A5, Velocity: 55
Note ON: Time 98820, Note Name: F#6, Velocity: 41
Note OFF: Time 98880, Note Name: F#6
Note OFF: Time 98880, Note Name: A5
Note ON: Time 98880, Note Name: D#5, Velocity: 49
Note OFF: Time 99360, Note Name: D#5
Note ON: Time 99360, Note Name: G#5, Velocity: 55
Note ON: Time 100200, Note Name: G5, Velocity: 47
Note OFF: Time 100290, Note Name: G5
Note ON: Time 100320, Note Name: F#5, Velocity: 46
Note OFF: Time 100410, Note Name: F#5
Note ON: Time 100440, Note Name: F5, Velocity: 45
Note OFF: Time 100530, Note Name: F5
Note ON: Time 100560, Note Name: D#5, Velocity: 45
Note OFF: Time 100650, Note Name: D#5
Note ON: Time 100680, Note Name: F5, Velocity: 43
Note OFF: Time 100770, Note Name: F5
Note ON: Time 100800, Note Name: C#5, Velocity: 52
Note OFF: Time 101520, Note Name: G#5
Note ON: Time 101520, Note Name: F5, Velocity: 46
Note OFF: Time 101640, Note Name: F5
Note ON: Time 101640, Note Name: F#5, Velocity: 45
Note OFF: Time 101760, Note Name: F#5
Note ON: Time 101760, Note Name: G5, Velocity: 46
Note OFF: Time 101880, Note Name: G5
Note ON: Time 101880, Note Name: G#5, Velocity: 48
Note OFF: Time 102000, Note Name: G#5
Note ON: Time 102000, Note Name: C6, Velocity: 48
Note OFF: Time 102120, Note Name: C6
Note ON: Time 102120, Note Name: A#5, Velocity: 47
Note OFF: Time 102240, Note Name: A#5
Note OFF: Time 102240, Note Name: C#5
Note ON: Time 102240, Note Name: C5, Velocity: 45
Note ON: Time 102240, Note Name: G#5, Velocity: 53
Note OFF: Time 102360, Note Name: C5
Note ON: Time 102360, Note Name: C#5, Velocity: 45
Note OFF: Time 102480, Note Name: C#5
Note ON: Time 102480, Note Name: D5, Velocity: 45
Note OFF: Time 102600, Note Name: D5
Note ON: Time 102600, Note Name: D#5, Velocity: 45
Note OFF: Time 102720, Note Name: D#5
Note ON: Time 102720, Note Name: F#5, Velocity: 44
Note OFF: Time 102840, Note Name: F#5
Note ON: Time 102840, Note Name: F5, Velocity: 44
Note OFF: Time 102960, Note Name: F5
Note ON: Time 102960, Note Name: D#5, Velocity: 44
Note OFF: Time 103080, Note Name: G#5
Note ON: Time 103080, Note Name: G5, Velocity: 44
Note OFF: Time 103200, Note Name: G5
Note ON: Time 103200, Note Name: F#5, Velocity: 43
Note OFF: Time 103320, Note Name: F#5
Note ON: Time 103320, Note Name: F5, Velocity: 42
Note OFF: Time 103440, Note Name: F5
Note OFF: Time 103440, Note Name: D#5
Note ON: Time 103440, Note Name: G#4, Velocity: 40
Note ON: Time 103440, Note Name: D#5, Velocity: 42
Note OFF: Time 103560, Note Name: D#5
Note ON: Time 103560, Note Name: F5, Velocity: 39
Note OFF: Time 103680, Note Name: F5
Note OFF: Time 103680, Note Name: G#4
Note ON: Time 103680, Note Name: A4, Velocity: 43
Note ON: Time 103680, Note Name: C#5, Velocity: 48
Note OFF: Time 103800, Note Name: A4
Note ON: Time 103800, Note Name: G#4, Velocity: 43
Note OFF: Time 103920, Note Name: G#4
Note ON: Time 103920, Note Name: G4, Velocity: 43
Note OFF: Time 104040, Note Name: G4
Note ON: Time 104040, Note Name: G#4, Velocity: 43
Note ON: Time 104100, Note Name: C5, Velocity: 37
Note OFF: Time 104160, Note Name: C5
Note OFF: Time 104160, Note Name: G#4
Note ON: Time 104160, Note Name: A#4, Velocity: 43
Note OFF: Time 104280, Note Name: A#4
Note ON: Time 104280, Note Name: G#4, Velocity: 42
Note OFF: Time 104400, Note Name: G#4
Note OFF: Time 104400, Note Name: C#5
Note ON: Time 104400, Note Name: G#4, Velocity: 42
Note ON: Time 104400, Note Name: F5, Velocity: 42
Note OFF: Time 104520, Note Name: F5
Note ON: Time 104520, Note Name: F#5, Velocity: 41
Note OFF: Time 104640, Note Name: F#5
Note ON: Time 104640, Note Name: G5, Velocity: 42
Note OFF: Time 104760, Note Name: G5
Note ON: Time 104760, Note Name: G#5, Velocity: 44
Note OFF: Time 104880, Note Name: G#5
Note OFF: Time 104880, Note Name: G#4
Note ON: Time 104880, Note Name: C6, Velocity: 45
Note OFF: Time 105000, Note Name: C6
Note ON: Time 105000, Note Name: A#5, Velocity: 44
Note OFF: Time 105120, Note Name: A#5
Note ON: Time 105120, Note Name: C5, Velocity: 41
Note ON: Time 105120, Note Name: G#5, Velocity: 48
Note OFF: Time 105240, Note Name: C5
Note ON: Time 105240, Note Name: C#5, Velocity: 41
Note OFF: Time 105360, Note Name: C#5
Note ON: Time 105360, Note Name: D5, Velocity: 41
Note OFF: Time 105480, Note Name: D5
Note ON: Time 105480, Note Name: D#5, Velocity: 41
Note OFF: Time 105600, Note Name: D#5
Note ON: Time 105600, Note Name: F#5, Velocity: 41
Note OFF: Time 105720, Note Name: F#5
Note ON: Time 105720, Note Name: F5, Velocity: 41
Note OFF: Time 105840, Note Name: F5
Note ON: Time 105840, Note Name: D#5, Velocity: 40
Note OFF: Time 105960, Note Name: G#5
Note ON: Time 105960, Note Name: G5, Velocity: 40
Note OFF: Time 106080, Note Name: G5
Note ON: Time 106080, Note Name: F#5, Velocity: 40
Note OFF: Time 106200, Note Name: F#5
Note ON: Time 106200, Note Name: F5, Velocity: 38
Note OFF: Time 106320, Note Name: F5
Note OFF: Time 106320, Note Name: D#5
Note ON: Time 106320, Note Name: G#4, Velocity: 36
Note ON: Time 106320, Note Name: D#5, Velocity: 38
Note OFF: Time 106440, Note Name: D#5
Note ON: Time 106440, Note Name: F5, Velocity: 36
Note OFF: Time 106560, Note Name: F5
Note OFF: Time 106560, Note Name: G#4
Note ON: Time 106560, Note Name: F4, Velocity: 34
Note ON: Time 106560, Note Name: C#5, Velocity: 39
Note OFF: Time 108000, Note Name: C#5
Note OFF: Time 108000, Note Name: F4
Note ON: Time 108000, Note Name: G#4, Velocity: 31
Note ON: Time 108000, Note Name: F5, Velocity: 37
Note OFF: Time 108090, Note Name: F5
Note OFF: Time 108090, Note Name: G#4
Note ON: Time 108102, Note Name: A#4, Velocity: 31
Note ON: Time 108102, Note Name: F#5, Velocity: 37
Note OFF: Time 108192, Note Name: F#5
Note OFF: Time 108192, Note Name: A#4
Note ON: Time 108204, Note Name: C5, Velocity: 31
Note ON: Time 108204, Note Name: G#5, Velocity: 37
Note OFF: Time 108294, Note Name: G#5
Note OFF: Time 108294, Note Name: C5
Note ON: Time 108306, Note Name: C#5, Velocity: 30
Note ON: Time 108306, Note Name: A#5, Velocity: 36
Note OFF: Time 108396, Note Name: A#5
Note OFF: Time 108396, Note Name: C#5
Note ON: Time 108408, Note Name: D#5, Velocity: 30
Note ON: Time 108408, Note Name: C6, Velocity: 36
Note OFF: Time 108498, Note Name: C6
Note OFF: Time 108498, Note Name: D#5
Note ON: Time 108510, Note Name: F5, Velocity: 29
Note ON: Time 108510, Note Name: C#6, Velocity: 35
Note OFF: Time 108600, Note Name: C#6
Note OFF: Time 108600, Note Name: F5
Note ON: Time 108612, Note Name: F#5, Velocity: 29
Note ON: Time 108612, Note Name: D#6, Velocity: 35
Note OFF: Time 108702, Note Name: D#6
Note OFF: Time 108702, Note Name: F#5
Note ON: Time 108720, Note Name: G#5, Velocity: 28
Note ON: Time 108720, Note Name: F6, Velocity: 34
Note OFF: Time 108810, Note Name: F6
Note OFF: Time 108810, Note Name: G#5
Note ON: Time 108822, Note Name: A#5, Velocity: 28
Note ON: Time 108822, Note Name: F#6, Velocity: 34
Note OFF: Time 108912, Note Name: F#6
Note OFF: Time 108912, Note Name: A#5
Note ON: Time 108924, Note Name: C6, Velocity: 28
Note ON: Time 108924, Note Name: G#6, Velocity: 33
Note OFF: Time 109014, Note Name: G#6
Note OFF: Time 109014, Note Name: C6
Note ON: Time 109026, Note Name: C#6, Velocity: 28
Note ON: Time 109026, Note Name: A#6, Velocity: 33
Note OFF: Time 109116, Note Name: A#6
Note OFF: Time 109116, Note Name: C#6
Note ON: Time 109128, Note Name: D#6, Velocity: 27
Note ON: Time 109128, Note Name: C7, Velocity: 32
Note OFF: Time 109218, Note Name: C7
Note OFF: Time 109218, Note Name: D#6
Note ON: Time 109230, Note Name: F6, Velocity: 27
Note ON: Time 109230, Note Name: C#7, Velocity: 32
Note OFF: Time 109320, Note Name: C#7
Note OFF: Time 109320, Note Name: F6
Note ON: Time 109332, Note Name: F#6, Velocity: 27
Note ON: Time 109332, Note Name: D#7, Velocity: 32
Note OFF: Time 109422, Note Name: D#7
Note OFF: Time 109422, Note Name: F#6
Note ON: Time 109440, Note Name: F7, Velocity: 36
Note ON: Time 109440, Note Name: G#6, Velocity: 30
Note OFF: Time 109920, Note Name: G#6
Note OFF: Time 109920, Note Name: F7
Note ON: Time 110160, Note Name: G#4, Velocity: 30
Note ON: Time 110160, Note Name: F5, Velocity: 36
Note OFF: Time 110880, Note Name: F5
Note OFF: Time 110880, Note Name: G#4
Note ON: Time 110880, Note Name: F4, Velocity: 28
Note ON: Time 110880, Note Name: C#5, Velocity: 33
Note OFF: Time 112320, Note Name: C#5
Note OFF: Time 112320, Note Name: F4
Track 2: Piano left
Note ON: Time 0, Note Name: C#2, Velocity: 30
Note OFF: Time 120, Note Name: C#2
Note ON: Time 120, Note Name: F4, Velocity: 26
Note OFF: Time 240, Note Name: F4
Note ON: Time 240, Note Name: G#3, Velocity: 26
Note OFF: Time 360, Note Name: G#3
Note ON: Time 360, Note Name: F4, Velocity: 26
Note OFF: Time 480, Note Name: F4
Note ON: Time 480, Note Name: C#4, Velocity: 26
Note OFF: Time 600, Note Name: C#4
Note ON: Time 600, Note Name: F3, Velocity: 26
Note OFF: Time 720, Note Name: F3
Note ON: Time 720, Note Name: C#3, Velocity: 30
Note OFF: Time 840, Note Name: C#3
Note ON: Time 840, Note Name: F4, Velocity: 26
Note OFF: Time 960, Note Name: F4
Note ON: Time 960, Note Name: G#3, Velocity: 26
Note OFF: Time 1080, Note Name: G#3
Note ON: Time 1080, Note Name: F4, Velocity: 25
Note OFF: Time 1200, Note Name: F4
Note ON: Time 1200, Note Name: C#4, Velocity: 28
Note OFF: Time 1320, Note Name: C#4
Note ON: Time 1320, Note Name: F3, Velocity: 25
Note OFF: Time 1440, Note Name: F3
Note ON: Time 1440, Note Name: C#3, Velocity: 30
Note OFF: Time 1560, Note Name: C#3
Note ON: Time 1560, Note Name: F4, Velocity: 26
Note OFF: Time 1680, Note Name: F4
Note ON: Time 1680, Note Name: G#3, Velocity: 26
Note OFF: Time 1800, Note Name: G#3
Note ON: Time 1800, Note Name: F4, Velocity: 26
Note OFF: Time 1920, Note Name: F4
Note ON: Time 1920, Note Name: C#4, Velocity: 26
Note OFF: Time 2040, Note Name: C#4
Note ON: Time 2040, Note Name: F3, Velocity: 26
Note OFF: Time 2160, Note Name: F3
Note ON: Time 2160, Note Name: C#3, Velocity: 30
Note OFF: Time 2280, Note Name: C#3
Note ON: Time 2280, Note Name: F4, Velocity: 26
Note OFF: Time 2400, Note Name: F4
Note ON: Time 2400, Note Name: G#3, Velocity: 26
Note OFF: Time 2520, Note Name: G#3
Note ON: Time 2520, Note Name: F4, Velocity: 26
Note OFF: Time 2640, Note Name: F4
Note ON: Time 2640, Note Name: C#4, Velocity: 26
Note OFF: Time 2760, Note Name: C#4
Note ON: Time 2760, Note Name: F3, Velocity: 26
Note OFF: Time 2880, Note Name: F3
Note ON: Time 2880, Note Name: C#3, Velocity: 30
Note OFF: Time 3000, Note Name: C#3
Note ON: Time 3000, Note Name: F4, Velocity: 28
Note OFF: Time 3120, Note Name: F4
Note ON: Time 3120, Note Name: G#3, Velocity: 28
Note OFF: Time 3240, Note Name: G#3
Note ON: Time 3240, Note Name: F4, Velocity: 27
Note OFF: Time 3360, Note Name: F4
Note ON: Time 3360, Note Name: C#4, Velocity: 27
Note OFF: Time 3480, Note Name: C#4
Note ON: Time 3480, Note Name: F3, Velocity: 27
Note OFF: Time 3600, Note Name: F3
Note ON: Time 3600, Note Name: C#3, Velocity: 31
Note OFF: Time 3720, Note Name: C#3
Note ON: Time 3720, Note Name: F4, Velocity: 27
Note OFF: Time 3840, Note Name: F4
Note ON: Time 3840, Note Name: G#3, Velocity: 27
Note OFF: Time 3960, Note Name: G#3
Note ON: Time 3960, Note Name: F4, Velocity: 28
Note OFF: Time 4080, Note Name: F4
Note ON: Time 4080, Note Name: C#4, Velocity: 28
Note OFF: Time 4200, Note Name: C#4
Note ON: Time 4200, Note Name: F3, Velocity: 30
Note OFF: Time 4320, Note Name: F3
Note ON: Time 4320, Note Name: C#3, Velocity: 34
Note OFF: Time 4440, Note Name: C#3
Note ON: Time 4440, Note Name: F4, Velocity: 29
Note OFF: Time 4560, Note Name: F4
Note ON: Time 4560, Note Name: G#3, Velocity: 28
Note OFF: Time 4680, Note Name: G#3
Note ON: Time 4680, Note Name: F4, Velocity: 28
Note OFF: Time 4800, Note Name: F4
Note ON: Time 4800, Note Name: C#4, Velocity: 28
Note OFF: Time 4920, Note Name: C#4
Note ON: Time 4920, Note Name: F3, Velocity: 27
Note OFF: Time 5040, Note Name: F3
Note ON: Time 5040, Note Name: C#3, Velocity: 30
Note OFF: Time 5160, Note Name: C#3
Note ON: Time 5160, Note Name: F4, Velocity: 26
Note OFF: Time 5280, Note Name: F4
Note ON: Time 5280, Note Name: G#3, Velocity: 26
Note OFF: Time 5400, Note Name: G#3
Note ON: Time 5400, Note Name: F4, Velocity: 25
Note OFF: Time 5520, Note Name: F4
Note ON: Time 5520, Note Name: C#4, Velocity: 25
Note OFF: Time 5640, Note Name: C#4
Note ON: Time 5640, Note Name: F3, Velocity: 24
Note OFF: Time 5760, Note Name: F3
Note ON: Time 5760, Note Name: C#2, Velocity: 30
Note OFF: Time 5880, Note Name: C#2
Note ON: Time 5880, Note Name: F#4, Velocity: 26
Note OFF: Time 6000, Note Name: F#4
Note ON: Time 6000, Note Name: A3, Velocity: 26
Note OFF: Time 6120, Note Name: A3
Note ON: Time 6120, Note Name: F#4, Velocity: 26
Note OFF: Time 6240, Note Name: F#4
Note ON: Time 6240, Note Name: D#4, Velocity: 26
Note OFF: Time 6360, Note Name: D#4
Note ON: Time 6360, Note Name: F#3, Velocity: 26
Note OFF: Time 6480, Note Name: F#3
Note ON: Time 6480, Note Name: C#3, Velocity: 30
Note OFF: Time 6600, Note Name: C#3
Note ON: Time 6600, Note Name: F#4, Velocity: 26
Note OFF: Time 6720, Note Name: F#4
Note ON: Time 6720, Note Name: A3, Velocity: 26
Note OFF: Time 6840, Note Name: A3
Note ON: Time 6840, Note Name: F#4, Velocity: 25
Note OFF: Time 6960, Note Name: F#4
Note ON: Time 6960, Note Name: D#4, Velocity: 28
Note OFF: Time 7080, Note Name: D#4
Note ON: Time 7080, Note Name: A3, Velocity: 25
Note OFF: Time 7200, Note Name: A3
Note ON: Time 7200, Note Name: C#3, Velocity: 30
Note OFF: Time 7320, Note Name: C#3
Note ON: Time 7320, Note Name: F#4, Velocity: 26
Note OFF: Time 7440, Note Name: F#4
Note ON: Time 7440, Note Name: A#3, Velocity: 26
Note OFF: Time 7560, Note Name: A#3
Note ON: Time 7560, Note Name: F#4, Velocity: 26
Note OFF: Time 7680, Note Name: F#4
Note ON: Time 7680, Note Name: D#4, Velocity: 26
Note OFF: Time 7800, Note Name: D#4
Note ON: Time 7800, Note Name: F#3, Velocity: 26
Note OFF: Time 7920, Note Name: F#3
Note ON: Time 7920, Note Name: C#3, Velocity: 30
Note OFF: Time 8040, Note Name: C#3
Note ON: Time 8040, Note Name: F#4, Velocity: 26
Note OFF: Time 8160, Note Name: F#4
Note ON: Time 8160, Note Name: A#3, Velocity: 26
Note OFF: Time 8280, Note Name: A#3
Note ON: Time 8280, Note Name: F#4, Velocity: 25
Note OFF: Time 8400, Note Name: F#4
Note ON: Time 8400, Note Name: D#4, Velocity: 28
Note OFF: Time 8520, Note Name: D#4
Note ON: Time 8520, Note Name: F#3, Velocity: 25
Note OFF: Time 8640, Note Name: F#3
Note ON: Time 8640, Note Name: C3, Velocity: 30
Note OFF: Time 8760, Note Name: C3
Note ON: Time 8760, Note Name: F#4, Velocity: 26
Note OFF: Time 8880, Note Name: F#4
Note ON: Time 8880, Note Name: A3, Velocity: 25
Note OFF: Time 9000, Note Name: A3
Note ON: Time 9000, Note Name: F#4, Velocity: 24
Note OFF: Time 9120, Note Name: F#4
Note ON: Time 9120, Note Name: D#4, Velocity: 23
Note OFF: Time 9240, Note Name: D#4
Note ON: Time 9240, Note Name: F#3, Velocity: 23
Note OFF: Time 9360, Note Name: F#3
Note ON: Time 9360, Note Name: A#2, Velocity: 31
Note OFF: Time 9480, Note Name: A#2
Note ON: Time 9480, Note Name: F#4, Velocity: 27
Note OFF: Time 9600, Note Name: F#4
Note ON: Time 9600, Note Name: A#3, Velocity: 28
Note OFF: Time 9720, Note Name: A#3
Note ON: Time 9720, Note Name: F#4, Velocity: 30
Note OFF: Time 9840, Note Name: F#4
Note ON: Time 9840, Note Name: D#4, Velocity: 31
Note OFF: Time 9960, Note Name: D#4
Note ON: Time 9960, Note Name: F#3, Velocity: 34
Note OFF: Time 10080, Note Name: F#3
Note ON: Time 10080, Note Name: A2, Velocity: 38
Note OFF: Time 10200, Note Name: A2
Note ON: Time 10200, Note Name: F#4, Velocity: 28
Note OFF: Time 10320, Note Name: F#4
Note ON: Time 10320, Note Name: A3, Velocity: 27
Note OFF: Time 10440, Note Name: A3
Note ON: Time 10440, Note Name: F#4, Velocity: 25
Note OFF: Time 10560, Note Name: F#4
Note ON: Time 10560, Note Name: C#4, Velocity: 24
Note OFF: Time 10680, Note Name: C#4
Note ON: Time 10680, Note Name: D#3, Velocity: 23
Note OFF: Time 10800, Note Name: D#3
Note ON: Time 10800, Note Name: G#2, Velocity: 30
Note OFF: Time 10920, Note Name: G#2
Note ON: Time 10920, Note Name: F#4, Velocity: 24
Note OFF: Time 11040, Note Name: F#4
Note ON: Time 11040, Note Name: G#3, Velocity: 26
Note OFF: Time 11160, Note Name: G#3
Note ON: Time 11160, Note Name: F#4, Velocity: 28
Note OFF: Time 11280, Note Name: F#4
Note ON: Time 11280, Note Name: C4, Velocity: 29
Note OFF: Time 11400, Note Name: C4
Note ON: Time 11400, Note Name: D#3, Velocity: 30
Note OFF: Time 11520, Note Name: D#3
Note ON: Time 11520, Note Name: C#2, Velocity: 38
Note OFF: Time 11640, Note Name: C#2
Note ON: Time 11640, Note Name: E4, Velocity: 29
Note OFF: Time 11700, Note Name: E4
Note ON: Time 11760, Note Name: G3, Velocity: 28
Note OFF: Time 11880, Note Name: G3
Note ON: Time 11880, Note Name: E4, Velocity: 28
Note OFF: Time 11940, Note Name: E4
Note ON: Time 12000, Note Name: A#3, Velocity: 28
Note OFF: Time 12120, Note Name: A#3
Note ON: Time 12120, Note Name: F3, Velocity: 27
Note OFF: Time 12240, Note Name: F3
Note ON: Time 12240, Note Name: C#2, Velocity: 28
Note OFF: Time 12360, Note Name: C#2
Note ON: Time 12360, Note Name: F4, Velocity: 23
Note OFF: Time 12480, Note Name: F4
Note ON: Time 12480, Note Name: G#3, Velocity: 23
Note OFF: Time 12600, Note Name: G#3
Note ON: Time 12600, Note Name: F4, Velocity: 23
Note OFF: Time 12720, Note Name: F4
Note ON: Time 12720, Note Name: C#4, Velocity: 24
Note OFF: Time 12840, Note Name: C#4
Note ON: Time 12840, Note Name: F3, Velocity: 25
Note OFF: Time 12960, Note Name: F3
Note ON: Time 12960, Note Name: A#2, Velocity: 38
Note OFF: Time 13080, Note Name: A#2
Note ON: Time 13080, Note Name: F4, Velocity: 28
Note OFF: Time 13200, Note Name: F4
Note ON: Time 13200, Note Name: A#3, Velocity: 28
Note OFF: Time 13320, Note Name: A#3
Note ON: Time 13320, Note Name: F4, Velocity: 27
Note OFF: Time 13440, Note Name: F4
Note ON: Time 13440, Note Name: C#4, Velocity: 26
Note OFF: Time 13560, Note Name: C#4
Note ON: Time 13560, Note Name: F3, Velocity: 26
Note OFF: Time 13680, Note Name: F3
Note ON: Time 13680, Note Name: A#2, Velocity: 33
Note OFF: Time 13800, Note Name: A#2
Note ON: Time 13800, Note Name: F4, Velocity: 28
Note OFF: Time 13920, Note Name: F4
Note ON: Time 13920, Note Name: A3, Velocity: 28
Note OFF: Time 14040, Note Name: A3
Note ON: Time 14040, Note Name: F4, Velocity: 28
Note OFF: Time 14160, Note Name: F4
Note ON: Time 14160, Note Name: D#4, Velocity: 28
Note OFF: Time 14280, Note Name: D#4
Note ON: Time 14280, Note Name: F3, Velocity: 27
Note OFF: Time 14400, Note Name: F3
Note ON: Time 14400, Note Name: A#2, Velocity: 38
Note OFF: Time 14520, Note Name: A#2
Note ON: Time 14520, Note Name: F4, Velocity: 28
Note OFF: Time 14640, Note Name: F4
Note ON: Time 14640, Note Name: A#3, Velocity: 28
Note OFF: Time 14760, Note Name: A#3
Note ON: Time 14760, Note Name: F4, Velocity: 27
Note OFF: Time 14880, Note Name: F4
Note ON: Time 14880, Note Name: C#4, Velocity: 26
Note OFF: Time 15000, Note Name: C#4
Note ON: Time 15000, Note Name: F3, Velocity: 26
Note OFF: Time 15120, Note Name: F3
Note ON: Time 15120, Note Name: F2, Velocity: 33
Note OFF: Time 15240, Note Name: F2
Note ON: Time 15240, Note Name: F4, Velocity: 28
Note OFF: Time 15360, Note Name: F4
Note ON: Time 15360, Note Name: C4, Velocity: 28
Note OFF: Time 15480, Note Name: C4
Note ON: Time 15480, Note Name: F4, Velocity: 26
Note OFF: Time 15600, Note Name: F4
Note ON: Time 15600, Note Name: D#4, Velocity: 28
Note OFF: Time 15720, Note Name: D#4
Note ON: Time 15720, Note Name: A3, Velocity: 30
Note OFF: Time 15840, Note Name: A3
Note ON: Time 15840, Note Name: A#2, Velocity: 38
Note OFF: Time 15960, Note Name: A#2
Note ON: Time 15960, Note Name: F4, Velocity: 28
Note OFF: Time 16080, Note Name: F4
Note ON: Time 16080, Note Name: A#3, Velocity: 28
Note OFF: Time 16200, Note Name: A#3
Note ON: Time 16200, Note Name: F4, Velocity: 27
Note OFF: Time 16320, Note Name: F4
Note ON: Time 16320, Note Name: C#4, Velocity: 26
Note OFF: Time 16440, Note Name: C#4
Note ON: Time 16440, Note Name: F3, Velocity: 26
Note OFF: Time 16560, Note Name: F3
Note ON: Time 16560, Note Name: A#2, Velocity: 33
Note OFF: Time 16680, Note Name: A#2
Note ON: Time 16680, Note Name: F4, Velocity: 28
Note OFF: Time 16800, Note Name: F4
Note ON: Time 16800, Note Name: A3, Velocity: 28
Note OFF: Time 16920, Note Name: A3
Note ON: Time 16920, Note Name: F4, Velocity: 28
Note OFF: Time 17040, Note Name: F4
Note ON: Time 17040, Note Name: D#4, Velocity: 28
Note OFF: Time 17160, Note Name: D#4
Note ON: Time 17160, Note Name: F3, Velocity: 27
Note OFF: Time 17280, Note Name: F3
Note ON: Time 17280, Note Name: A#2, Velocity: 38
Note OFF: Time 17400, Note Name: A#2
Note ON: Time 17400, Note Name: F4, Velocity: 28
Note OFF: Time 17520, Note Name: F4
Note ON: Time 17520, Note Name: A#3, Velocity: 28
Note OFF: Time 17640, Note Name: A#3
Note ON: Time 17640, Note Name: F4, Velocity: 27
Note OFF: Time 17760, Note Name: F4
Note ON: Time 17760, Note Name: C#4, Velocity: 26
Note OFF: Time 17880, Note Name: C#4
Note ON: Time 17880, Note Name: F3, Velocity: 26
Note OFF: Time 18000, Note Name: F3
Note ON: Time 18000, Note Name: A#2, Velocity: 34
Note OFF: Time 18120, Note Name: A#2
Note ON: Time 18120, Note Name: G#4, Velocity: 28
Note OFF: Time 18240, Note Name: G#4
Note ON: Time 18240, Note Name: A#3, Velocity: 26
Note OFF: Time 18360, Note Name: A#3
Note ON: Time 18360, Note Name: G#4, Velocity: 28
Note OFF: Time 18480, Note Name: G#4
Note ON: Time 18480, Note Name: D4, Velocity: 30
Note OFF: Time 18600, Note Name: D4
Note ON: Time 18600, Note Name: F3, Velocity: 32
Note OFF: Time 18720, Note Name: F3
Note ON: Time 18720, Note Name: D#2, Velocity: 38
Note OFF: Time 18840, Note Name: D#2
Note ON: Time 18840, Note Name: F#4, Velocity: 31
Note OFF: Time 18960, Note Name: F#4
Note ON: Time 18960, Note Name: A#3, Velocity: 29
Note OFF: Time 19080, Note Name: A#3
Note ON: Time 19080, Note Name: F#4, Velocity: 29
Note OFF: Time 19200, Note Name: F#4
Note ON: Time 19200, Note Name: D#4, Velocity: 29
Note OFF: Time 19320, Note Name: D#4
Note ON: Time 19320, Note Name: F#3, Velocity: 29
Note OFF: Time 19440, Note Name: F#3
Note ON: Time 19440, Note Name: D#3, Velocity: 39
Note OFF: Time 19560, Note Name: D#3
Note ON: Time 19560, Note Name: G#4, Velocity: 30
Note OFF: Time 19680, Note Name: G#4
Note ON: Time 19680, Note Name: A#3, Velocity: 30
Note OFF: Time 19800, Note Name: A#3
Note ON: Time 19800, Note Name: G#4, Velocity: 30
Note OFF: Time 19920, Note Name: G#4
Note ON: Time 19920, Note Name: D4, Velocity: 30
Note OFF: Time 20040, Note Name: D4
Note ON: Time 20040, Note Name: F3, Velocity: 30
Note OFF: Time 20160, Note Name: F3
Note ON: Time 20160, Note Name: D#3, Velocity: 39
Note OFF: Time 20280, Note Name: D#3
Note ON: Time 20280, Note Name: F#4, Velocity: 31
Note OFF: Time 20400, Note Name: F#4
Note ON: Time 20400, Note Name: A#3, Velocity: 31
Note OFF: Time 20520, Note Name: A#3
Note ON: Time 20520, Note Name: F#4, Velocity: 31
Note OFF: Time 20640, Note Name: F#4
Note ON: Time 20640, Note Name: D#4, Velocity: 29
Note OFF: Time 20760, Note Name: D#4
Note ON: Time 20760, Note Name: F#3, Velocity: 29
Note OFF: Time 20880, Note Name: F#3
Note ON: Time 20880, Note Name: A#2, Velocity: 40
Note OFF: Time 21000, Note Name: A#2
Note ON: Time 21000, Note Name: G#4, Velocity: 30
Note OFF: Time 21120, Note Name: G#4
Note ON: Time 21120, Note Name: A#3, Velocity: 32
Note OFF: Time 21240, Note Name: A#3
Note ON: Time 21240, Note Name: G#4, Velocity: 34
Note OFF: Time 21360, Note Name: G#4
Note ON: Time 21360, Note Name: D4, Velocity: 35
Note OFF: Time 21480, Note Name: D4
Note ON: Time 21480, Note Name: F3, Velocity: 37
Note OFF: Time 21600, Note Name: F3
Note ON: Time 21600, Note Name: D#2, Velocity: 38
Note OFF: Time 21720, Note Name: D#2
Note ON: Time 21720, Note Name: F#4, Velocity: 28
Note OFF: Time 21840, Note Name: F#4
Note ON: Time 21840, Note Name: A#3, Velocity: 28
Note OFF: Time 21960, Note Name: A#3
Note ON: Time 21960, Note Name: F#4, Velocity: 27
Note OFF: Time 22080, Note Name: F#4
Note ON: Time 22080, Note Name: D#4, Velocity: 26
Note OFF: Time 22200, Note Name: D#4
Note ON: Time 22200, Note Name: F#3, Velocity: 26
Note OFF: Time 22320, Note Name: F#3
Note ON: Time 22320, Note Name: D#3, Velocity: 33
Note OFF: Time 22440, Note Name: D#3
Note ON: Time 22440, Note Name: G#4, Velocity: 28
Note OFF: Time 22560, Note Name: G#4
Note ON: Time 22560, Note Name: A#3, Velocity: 28
Note OFF: Time 22680, Note Name: A#3
Note ON: Time 22680, Note Name: G#4, Velocity: 28
Note OFF: Time 22800, Note Name: G#4
Note ON: Time 22800, Note Name: D4, Velocity: 28
Note OFF: Time 22920, Note Name: D4
Note ON: Time 22920, Note Name: F3, Velocity: 27
Note OFF: Time 23040, Note Name: F3
Note ON: Time 23040, Note Name: D#3, Velocity: 44
Note OFF: Time 23160, Note Name: D#3
Note ON: Time 23160, Note Name: F#4, Velocity: 34
Note OFF: Time 23280, Note Name: F#4
Note ON: Time 23280, Note Name: A#3, Velocity: 34
Note OFF: Time 23400, Note Name: A#3
Note ON: Time 23400, Note Name: F#4, Velocity: 34
Note OFF: Time 23520, Note Name: F#4
Note ON: Time 23520, Note Name: D#4, Velocity: 34
Note OFF: Time 23640, Note Name: D#4
Note ON: Time 23640, Note Name: F#3, Velocity: 34
Note OFF: Time 23760, Note Name: F#3
Note ON: Time 23760, Note Name: A2, Velocity: 64
Note ON: Time 23880, Note Name: C#4, Velocity: 40
Note OFF: Time 24000, Note Name: C#4
Note ON: Time 24000, Note Name: D#3, Velocity: 42
Note OFF: Time 24120, Note Name: D#3
Note ON: Time 24120, Note Name: C#4, Velocity: 44
Note OFF: Time 24240, Note Name: C#4
Note ON: Time 24240, Note Name: F#3, Velocity: 46
Note OFF: Time 24360, Note Name: F#3
Note ON: Time 24360, Note Name: A2, Velocity: 48
Note OFF: Time 24480, Note Name: A2
Note OFF: Time 24480, Note Name: A2
Note ON: Time 24480, Note Name: G#2, Velocity: 54
Note OFF: Time 24600, Note Name: G#2
Note ON: Time 24600, Note Name: C4, Velocity: 47
Note OFF: Time 24720, Note Name: C4
Note ON: Time 24720, Note Name: D#3, Velocity: 47
Note OFF: Time 24840, Note Name: D#3
Note ON: Time 24840, Note Name: C4, Velocity: 47
Note OFF: Time 24960, Note Name: C4
Note ON: Time 24960, Note Name: F#3, Velocity: 46
Note OFF: Time 25080, Note Name: F#3
Note ON: Time 25080, Note Name: D#3, Velocity: 46
Note OFF: Time 25200, Note Name: D#3
Note ON: Time 25200, Note Name: A2, Velocity: 67
Note ON: Time 25320, Note Name: A3, Velocity: 51
Note OFF: Time 25440, Note Name: A3
Note ON: Time 25440, Note Name: D#3, Velocity: 51
Note OFF: Time 25560, Note Name: D#3
Note ON: Time 25560, Note Name: A3, Velocity: 51
Note OFF: Time 25680, Note Name: A3
Note ON: Time 25680, Note Name: F#3, Velocity: 51
Note OFF: Time 25800, Note Name: F#3
Note ON: Time 25800, Note Name: D#3, Velocity: 51
Note OFF: Time 25920, Note Name: D#3
Note OFF: Time 25920, Note Name: A2
Note ON: Time 25920, Note Name: G#2, Velocity: 44
Note OFF: Time 26040, Note Name: G#2
Note ON: Time 26040, Note Name: G#3, Velocity: 32
Note OFF: Time 26160, Note Name: G#3
Note ON: Time 26160, Note Name: D#3, Velocity: 30
Note OFF: Time 26280, Note Name: D#3
Note ON: Time 26280, Note Name: G#3, Velocity: 28
Note OFF: Time 26400, Note Name: G#3
Note ON: Time 26400, Note Name: F#3, Velocity: 27
Note OFF: Time 26520, Note Name: F#3
Note ON: Time 26520, Note Name: D#3, Velocity: 25
Note OFF: Time 26640, Note Name: D#3
Note ON: Time 26640, Note Name: C#3, Velocity: 31
Note OFF: Time 26760, Note Name: C#3
Note ON: Time 26760, Note Name: E4, Velocity: 27
Note OFF: Time 26880, Note Name: E4
Note ON: Time 26880, Note Name: F#3, Velocity: 27
Note OFF: Time 27000, Note Name: F#3
Note ON: Time 27000, Note Name: E4, Velocity: 27
Note OFF: Time 27120, Note Name: E4
Note ON: Time 27120, Note Name: A3, Velocity: 27
Note OFF: Time 27240, Note Name: A3
Note ON: Time 27240, Note Name: C#3, Velocity: 28
Note OFF: Time 27360, Note Name: C#3
Note ON: Time 27360, Note Name: C3, Velocity: 44
Note OFF: Time 27480, Note Name: C3
Note ON: Time 27480, Note Name: D#4, Velocity: 30
Note OFF: Time 27600, Note Name: D#4
Note ON: Time 27600, Note Name: F#3, Velocity: 32
Note OFF: Time 27720, Note Name: F#3
Note ON: Time 27720, Note Name: D#4, Velocity: 39
Note OFF: Time 27840, Note Name: D#4
Note ON: Time 27840, Note Name: G#3, Velocity: 42
Note OFF: Time 27960, Note Name: G#3
Note ON: Time 27960, Note Name: F#3, Velocity: 43
Note OFF: Time 28080, Note Name: F#3
Note ON: Time 28080, Note Name: A2, Velocity: 49
Note OFF: Time 28200, Note Name: A2
Note ON: Time 28200, Note Name: C#4, Velocity: 40
Note OFF: Time 28320, Note Name: C#4
Note ON: Time 28320, Note Name: D#3, Velocity: 38
Note OFF: Time 28440, Note Name: D#3
Note ON: Time 28440, Note Name: C#4, Velocity: 35
Note OFF: Time 28560, Note Name: C#4
Note ON: Time 28560, Note Name: F#3, Velocity: 35
Note OFF: Time 28680, Note Name: F#3
Note ON: Time 28680, Note Name: D#3, Velocity: 33
Note OFF: Time 28800, Note Name: D#3
Note ON: Time 28800, Note Name: G#2, Velocity: 44
Note OFF: Time 28920, Note Name: G#2
Note ON: Time 28920, Note Name: G#3, Velocity: 32
Note OFF: Time 29040, Note Name: G#3
Note ON: Time 29040, Note Name: D#3, Velocity: 30
Note OFF: Time 29160, Note Name: D#3
Note ON: Time 29160, Note Name: G#3, Velocity: 28
Note OFF: Time 29280, Note Name: G#3
Note ON: Time 29280, Note Name: F#3, Velocity: 23
Note OFF: Time 29400, Note Name: F#3
Note ON: Time 29400, Note Name: G#2, Velocity: 22
Note OFF: Time 29520, Note Name: G#2
Note ON: Time 29520, Note Name: C#3, Velocity: 28
Note OFF: Time 29640, Note Name: C#3
Note ON: Time 29640, Note Name: E4, Velocity: 23
Note OFF: Time 29760, Note Name: E4
Note ON: Time 29760, Note Name: F#3, Velocity: 23
Note OFF: Time 29880, Note Name: F#3
Note ON: Time 29880, Note Name: E4, Velocity: 23
Note OFF: Time 30000, Note Name: E4
Note ON: Time 30000, Note Name: A3, Velocity: 23
Note OFF: Time 30120, Note Name: A3
Note ON: Time 30120, Note Name: C#3, Velocity: 24
Note OFF: Time 30240, Note Name: C#3
Note ON: Time 30240, Note Name: C3, Velocity: 31
Note OFF: Time 30360, Note Name: C3
Note ON: Time 30360, Note Name: D#4, Velocity: 24
Note OFF: Time 30480, Note Name: D#4
Note ON: Time 30480, Note Name: F#3, Velocity: 24
Note OFF: Time 30600, Note Name: F#3
Note ON: Time 30600, Note Name: D#4, Velocity: 24
Note OFF: Time 30720, Note Name: D#4
Note ON: Time 30720, Note Name: A3, Velocity: 24
Note OFF: Time 30840, Note Name: A3
Note ON: Time 30840, Note Name: F#3, Velocity: 24
Note OFF: Time 30960, Note Name: F#3
Note ON: Time 30960, Note Name: B2, Velocity: 28
Note OFF: Time 31080, Note Name: B2
Note ON: Time 31080, Note Name: D#4, Velocity: 24
Note OFF: Time 31200, Note Name: D#4
Note ON: Time 31200, Note Name: F#3, Velocity: 24
Note OFF: Time 31320, Note Name: F#3
Note ON: Time 31320, Note Name: D#4, Velocity: 24
Note OFF: Time 31440, Note Name: D#4
Note ON: Time 31440, Note Name: A3, Velocity: 24
Note OFF: Time 31560, Note Name: A3
Note ON: Time 31560, Note Name: F#3, Velocity: 24
Note OFF: Time 31680, Note Name: F#3
Note ON: Time 31680, Note Name: B2, Velocity: 31
Note OFF: Time 31800, Note Name: B2
Note ON: Time 31800, Note Name: D#4, Velocity: 24
Note OFF: Time 31920, Note Name: D#4
Note ON: Time 31920, Note Name: F3, Velocity: 24
Note OFF: Time 32040, Note Name: F3
Note ON: Time 32040, Note Name: D#4, Velocity: 24
Note OFF: Time 32160, Note Name: D#4
Note ON: Time 32160, Note Name: G#3, Velocity: 24
Note OFF: Time 32280, Note Name: G#3
Note ON: Time 32280, Note Name: F3, Velocity: 24
Note ON: Time 32400, Note Name: B2, Velocity: 28
Note OFF: Time 32520, Note Name: B2
Note OFF: Time 32520, Note Name: F3
Note ON: Time 32520, Note Name: D4, Velocity: 24
Note OFF: Time 32640, Note Name: D4
Note ON: Time 32640, Note Name: E3, Velocity: 24
Note ON: Time 32760, Note Name: D4, Velocity: 24
Note OFF: Time 32880, Note Name: D4
Note OFF: Time 32880, Note Name: E3
Note ON: Time 32880, Note Name: G#3, Velocity: 24
Note OFF: Time 33000, Note Name: G#3
Note ON: Time 33000, Note Name: E3, Velocity: 24
Note OFF: Time 33120, Note Name: E3
Note ON: Time 33120, Note Name: A2, Velocity: 31
Note OFF: Time 33240, Note Name: A2
Note ON: Time 33240, Note Name: C#4, Velocity: 24
Note OFF: Time 33360, Note Name: C#4
Note ON: Time 33360, Note Name: E3, Velocity: 24
Note OFF: Time 33480, Note Name: E3
Note ON: Time 33480, Note Name: C#4, Velocity: 24
Note OFF: Time 33600, Note Name: C#4
Note ON: Time 33600, Note Name: A3, Velocity: 24
Note OFF: Time 33720, Note Name: A3
Note ON: Time 33720, Note Name: E3, Velocity: 24
Note OFF: Time 33840, Note Name: E3
Note ON: Time 33840, Note Name: A2, Velocity: 28
Note OFF: Time 33960, Note Name: A2
Note ON: Time 33960, Note Name: C#4, Velocity: 24
Note OFF: Time 34080, Note Name: C#4
Note ON: Time 34080, Note Name: D#3, Velocity: 24
Note OFF: Time 34200, Note Name: D#3
Note ON: Time 34200, Note Name: C#4, Velocity: 24
Note OFF: Time 34320, Note Name: C#4
Note ON: Time 34320, Note Name: F#3, Velocity: 24
Note OFF: Time 34440, Note Name: F#3
Note ON: Time 34440, Note Name: D#3, Velocity: 24
Note OFF: Time 34560, Note Name: D#3
Note ON: Time 34560, Note Name: G#2, Velocity: 31
Note OFF: Time 34680, Note Name: G#2
Note ON: Time 34680, Note Name: C4, Velocity: 24
Note OFF: Time 34800, Note Name: C4
Note ON: Time 34800, Note Name: D#3, Velocity: 24
Note OFF: Time 34920, Note Name: D#3
Note ON: Time 34920, Note Name: C4, Velocity: 24
Note OFF: Time 35040, Note Name: C4
Note ON: Time 35040, Note Name: F#3, Velocity: 24
Note OFF: Time 35160, Note Name: F#3
Note ON: Time 35160, Note Name: C#3, Velocity: 24
Note OFF: Time 35280, Note Name: C#3
Note ON: Time 35280, Note Name: G#2, Velocity: 28
Note OFF: Time 35400, Note Name: G#2
Note ON: Time 35400, Note Name: G#3, Velocity: 24
Note OFF: Time 35520, Note Name: G#3
Note ON: Time 35520, Note Name: C3, Velocity: 24
Note OFF: Time 35640, Note Name: C3
Note ON: Time 35640, Note Name: G#3, Velocity: 24
Note OFF: Time 35760, Note Name: G#3
Note ON: Time 35760, Note Name: F#3, Velocity: 24
Note OFF: Time 35880, Note Name: F#3
Note ON: Time 35880, Note Name: D#3, Velocity: 24
Note OFF: Time 36000, Note Name: D#3
Note ON: Time 36000, Note Name: C#2, Velocity: 27
Note OFF: Time 36120, Note Name: C#2
Note ON: Time 36120, Note Name: F4, Velocity: 22
Note OFF: Time 36240, Note Name: F4
Note ON: Time 36240, Note Name: G#3, Velocity: 22
Note OFF: Time 36360, Note Name: G#3
Note ON: Time 36360, Note Name: F4, Velocity: 22
Note OFF: Time 36480, Note Name: F4
Note ON: Time 36480, Note Name: C#4, Velocity: 22
Note OFF: Time 36600, Note Name: C#4
Note ON: Time 36600, Note Name: F3, Velocity: 22
Note OFF: Time 36720, Note Name: F3
Note ON: Time 36720, Note Name: C#3, Velocity: 27
Note OFF: Time 36840, Note Name: C#3
Note ON: Time 36840, Note Name: F4, Velocity: 22
Note OFF: Time 36960, Note Name: F4
Note ON: Time 36960, Note Name: G#3, Velocity: 22
Note OFF: Time 37080, Note Name: G#3
Note ON: Time 37080, Note Name: F4, Velocity: 22
Note OFF: Time 37200, Note Name: F4
Note ON: Time 37200, Note Name: C#4, Velocity: 22
Note OFF: Time 37320, Note Name: C#4
Note ON: Time 37320, Note Name: F3, Velocity: 22
Note OFF: Time 37440, Note Name: F3
Note ON: Time 37440, Note Name: C#3, Velocity: 27
Note OFF: Time 37560, Note Name: C#3
Note ON: Time 37560, Note Name: F4, Velocity: 24
Note OFF: Time 37680, Note Name: F4
Note ON: Time 37680, Note Name: G#3, Velocity: 24
Note OFF: Time 37800, Note Name: G#3
Note ON: Time 37800, Note Name: F4, Velocity: 23
Note OFF: Time 37920, Note Name: F4
Note ON: Time 37920, Note Name: C#4, Velocity: 23
Note OFF: Time 38040, Note Name: C#4
Note ON: Time 38040, Note Name: F3, Velocity: 23
Note OFF: Time 38160, Note Name: F3
Note ON: Time 38160, Note Name: C#3, Velocity: 28
Note OFF: Time 38280, Note Name: C#3
Note ON: Time 38280, Note Name: F4, Velocity: 23
Note OFF: Time 38400, Note Name: F4
Note ON: Time 38400, Note Name: G#3, Velocity: 23
Note OFF: Time 38520, Note Name: G#3
Note ON: Time 38520, Note Name: F4, Velocity: 24
Note OFF: Time 38640, Note Name: F4
Note ON: Time 38640, Note Name: C#4, Velocity: 25
Note OFF: Time 38760, Note Name: C#4
Note ON: Time 38760, Note Name: F3, Velocity: 27
Note OFF: Time 38880, Note Name: F3
Note ON: Time 38880, Note Name: C#3, Velocity: 30
Note OFF: Time 39000, Note Name: C#3
Note ON: Time 39000, Note Name: F4, Velocity: 26
Note OFF: Time 39120, Note Name: F4
Note ON: Time 39120, Note Name: G#3, Velocity: 25
Note OFF: Time 39240, Note Name: G#3
Note ON: Time 39240, Note Name: F4, Velocity: 24
Note OFF: Time 39360, Note Name: F4
Note ON: Time 39360, Note Name: C#4, Velocity: 24
Note OFF: Time 39480, Note Name: C#4
Note ON: Time 39480, Note Name: F3, Velocity: 23
Note OFF: Time 39600, Note Name: F3
Note ON: Time 39600, Note Name: C#3, Velocity: 27
Note OFF: Time 39720, Note Name: C#3
Note ON: Time 39720, Note Name: F4, Velocity: 22
Note OFF: Time 39840, Note Name: F4
Note ON: Time 39840, Note Name: G#3, Velocity: 22
Note OFF: Time 39960, Note Name: G#3
Note ON: Time 39960, Note Name: F4, Velocity: 22
Note OFF: Time 40080, Note Name: F4
Note ON: Time 40080, Note Name: C#4, Velocity: 22
Note OFF: Time 40200, Note Name: C#4
Note ON: Time 40200, Note Name: F3, Velocity: 22
Note OFF: Time 40320, Note Name: F3
Note ON: Time 40320, Note Name: C#2, Velocity: 28
Note ON: Time 40440, Note Name: F#4, Velocity: 22
Note OFF: Time 40560, Note Name: F#4
Note OFF: Time 40560, Note Name: C#2
Note ON: Time 40560, Note Name: A3, Velocity: 22
Note OFF: Time 40680, Note Name: A3
Note ON: Time 40680, Note Name: F#4, Velocity: 22
Note OFF: Time 40800, Note Name: F#4
Note ON: Time 40800, Note Name: C#4, Velocity: 22
Note OFF: Time 40920, Note Name: C#4
Note ON: Time 40920, Note Name: F#3, Velocity: 22
Note OFF: Time 41040, Note Name: F#3
Note ON: Time 41040, Note Name: C#3, Velocity: 27
Note OFF: Time 41160, Note Name: C#3
Note ON: Time 41160, Note Name: F#4, Velocity: 22
Note OFF: Time 41280, Note Name: F#4
Note ON: Time 41280, Note Name: A3, Velocity: 22
Note OFF: Time 41400, Note Name: A3
Note ON: Time 41400, Note Name: F#4, Velocity: 22
Note OFF: Time 41520, Note Name: F#4
Note ON: Time 41520, Note Name: D4, Velocity: 26
Note OFF: Time 41640, Note Name: D4
Note ON: Time 41640, Note Name: F#3, Velocity: 22
Note OFF: Time 41760, Note Name: F#3
Note ON: Time 41760, Note Name: C#3, Velocity: 28
Note ON: Time 41880, Note Name: F#4, Velocity: 22
Note OFF: Time 42000, Note Name: F#4
Note OFF: Time 42000, Note Name: C#3
Note ON: Time 42000, Note Name: A#3, Velocity: 22
Note OFF: Time 42120, Note Name: A#3
Note ON: Time 42120, Note Name: F#4, Velocity: 22
Note OFF: Time 42240, Note Name: F#4
Note ON: Time 42240, Note Name: D#4, Velocity: 22
Note OFF: Time 42360, Note Name: D#4
Note ON: Time 42360, Note Name: F#3, Velocity: 22
Note OFF: Time 42480, Note Name: F#3
Note ON: Time 42480, Note Name: C#3, Velocity: 27
Note OFF: Time 42600, Note Name: C#3
Note ON: Time 42600, Note Name: F#4, Velocity: 22
Note OFF: Time 42720, Note Name: F#4
Note ON: Time 42720, Note Name: A#3, Velocity: 22
Note OFF: Time 42840, Note Name: A#3
Note ON: Time 42840, Note Name: F#4, Velocity: 22
Note OFF: Time 42960, Note Name: F#4
Note ON: Time 42960, Note Name: D#4, Velocity: 24
Note OFF: Time 43080, Note Name: D#4
Note ON: Time 43080, Note Name: F#3, Velocity: 22
Note OFF: Time 43200, Note Name: F#3
Note ON: Time 43200, Note Name: C3, Velocity: 27
Note OFF: Time 43320, Note Name: C3
Note ON: Time 43320, Note Name: F#4, Velocity: 22
Note OFF: Time 43440, Note Name: F#4
Note ON: Time 43440, Note Name: A3, Velocity: 22
Note OFF: Time 43560, Note Name: A3
Note ON: Time 43560, Note Name: F#4, Velocity: 22
Note OFF: Time 43680, Note Name: F#4
Note ON: Time 43680, Note Name: D#4, Velocity: 21
Note OFF: Time 43800, Note Name: D#4
Note ON: Time 43800, Note Name: F#3, Velocity: 21
Note OFF: Time 43920, Note Name: F#3
Note ON: Time 43920, Note Name: A#2, Velocity: 28
Note OFF: Time 44040, Note Name: A#2
Note ON: Time 44040, Note Name: F#4, Velocity: 23
Note OFF: Time 44160, Note Name: F#4
Note ON: Time 44160, Note Name: A#3, Velocity: 25
Note OFF: Time 44280, Note Name: A#3
Note ON: Time 44280, Note Name: F#4, Velocity: 27
Note OFF: Time 44400, Note Name: F#4
Note ON: Time 44400, Note Name: D#4, Velocity: 28
Note OFF: Time 44520, Note Name: D#4
Note ON: Time 44520, Note Name: F#3, Velocity: 30
Note OFF: Time 44640, Note Name: F#3
Note ON: Time 44640, Note Name: A2, Velocity: 34
Note OFF: Time 44760, Note Name: A2
Note ON: Time 44760, Note Name: F#4, Velocity: 24
Note OFF: Time 44880, Note Name: F#4
Note ON: Time 44880, Note Name: A3, Velocity: 23
Note OFF: Time 45000, Note Name: A3
Note ON: Time 45000, Note Name: F#4, Velocity: 22
Note OFF: Time 45120, Note Name: F#4
Note ON: Time 45120, Note Name: C#4, Velocity: 22
Note OFF: Time 45240, Note Name: C#4
Note ON: Time 45240, Note Name: D#3, Velocity: 21
Note OFF: Time 45360, Note Name: D#3
Note ON: Time 45360, Note Name: G#2, Velocity: 27
Note OFF: Time 45480, Note Name: G#2
Note ON: Time 45480, Note Name: F#4, Velocity: 22
Note OFF: Time 45600, Note Name: F#4
Note ON: Time 45600, Note Name: G#3, Velocity: 22
Note OFF: Time 45720, Note Name: G#3
Note ON: Time 45720, Note Name: F#4, Velocity: 24
Note OFF: Time 45840, Note Name: F#4
Note ON: Time 45840, Note Name: C4, Velocity: 26
Note OFF: Time 45960, Note Name: C4
Note ON: Time 45960, Note Name: D#3, Velocity: 27
Note OFF: Time 46080, Note Name: D#3
Note ON: Time 46080, Note Name: C#2, Velocity: 28
Note OFF: Time 46200, Note Name: C#2
Note ON: Time 46200, Note Name: G#4, Velocity: 24
Note OFF: Time 46320, Note Name: G#4
Note ON: Time 46320, Note Name: G#3, Velocity: 24
Note OFF: Time 46440, Note Name: G#3
Note ON: Time 46440, Note Name: G#4, Velocity: 24
Note OFF: Time 46560, Note Name: G#4
Note ON: Time 46560, Note Name: C#4, Velocity: 24
Note OFF: Time 46680, Note Name: C#4
Note ON: Time 46680, Note Name: F3, Velocity: 24
Note OFF: Time 46800, Note Name: F3
Note ON: Time 46800, Note Name: C#3, Velocity: 28
Note OFF: Time 46920, Note Name: C#3
Note ON: Time 46920, Note Name: F4, Velocity: 24
Note OFF: Time 47040, Note Name: F4
Note ON: Time 47040, Note Name: G#3, Velocity: 24
Note OFF: Time 47160, Note Name: G#3
Note ON: Time 47160, Note Name: F4, Velocity: 25
Note OFF: Time 47280, Note Name: F4
Note ON: Time 47280, Note Name: C#4, Velocity: 25
Note OFF: Time 47400, Note Name: C#4
Note ON: Time 47400, Note Name: G#3, Velocity: 25
Note OFF: Time 47520, Note Name: G#3
Note ON: Time 47520, Note Name: C#3, Velocity: 29
Note OFF: Time 47640, Note Name: C#3
Note ON: Time 47640, Note Name: E4, Velocity: 27
Note OFF: Time 47760, Note Name: E4
Note ON: Time 47760, Note Name: E3, Velocity: 26
Note OFF: Time 47880, Note Name: E3
Note ON: Time 47880, Note Name: E4, Velocity: 26
Note OFF: Time 48000, Note Name: E4
Note ON: Time 48000, Note Name: A3, Velocity: 26
Note OFF: Time 48120, Note Name: A3
Note ON: Time 48120, Note Name: E3, Velocity: 26
Note OFF: Time 48240, Note Name: E3
Note ON: Time 48240, Note Name: D3, Velocity: 23
Note OFF: Time 48360, Note Name: D3
Note ON: Time 48360, Note Name: E4, Velocity: 24
Note OFF: Time 48480, Note Name: E4
Note ON: Time 48480, Note Name: E3, Velocity: 25
Note OFF: Time 48600, Note Name: E3
Note ON: Time 48600, Note Name: E4, Velocity: 26
Note OFF: Time 48720, Note Name: E4
Note ON: Time 48720, Note Name: G#3, Velocity: 27
Note OFF: Time 48840, Note Name: G#3
Note ON: Time 48840, Note Name: E3, Velocity: 28
Note OFF: Time 48960, Note Name: E3
Note ON: Time 48960, Note Name: C#3, Velocity: 31
Note OFF: Time 49080, Note Name: C#3
Note ON: Time 49080, Note Name: E4, Velocity: 29
Note OFF: Time 49200, Note Name: E4
Note ON: Time 49200, Note Name: E3, Velocity: 29
Note OFF: Time 49320, Note Name: E3
Note ON: Time 49320, Note Name: E4, Velocity: 29
Note OFF: Time 49440, Note Name: E4
Note ON: Time 49440, Note Name: A3, Velocity: 29
Note OFF: Time 49560, Note Name: A3
Note ON: Time 49560, Note Name: E3, Velocity: 29
Note OFF: Time 49680, Note Name: E3
Note ON: Time 49680, Note Name: G#2, Velocity: 34
Note OFF: Time 49800, Note Name: G#2
Note ON: Time 49800, Note Name: E4, Velocity: 26
Note OFF: Time 49920, Note Name: E4
Note ON: Time 49920, Note Name: E3, Velocity: 28
Note OFF: Time 50040, Note Name: E3
Note ON: Time 50040, Note Name: E4, Velocity: 30
Note OFF: Time 50160, Note Name: E4
Note ON: Time 50160, Note Name: D4, Velocity: 32
Note OFF: Time 50280, Note Name: D4
Note ON: Time 50280, Note Name: E3, Velocity: 34
Note OFF: Time 50400, Note Name: E3
Note ON: Time 50400, Note Name: A2, Velocity: 40
Note OFF: Time 50520, Note Name: A2
Note ON: Time 50520, Note Name: E4, Velocity: 32
Note OFF: Time 50640, Note Name: E4
Note ON: Time 50640, Note Name: E3, Velocity: 32
Note OFF: Time 50760, Note Name: E3
Note ON: Time 50760, Note Name: E4, Velocity: 32
Note OFF: Time 50880, Note Name: E4
Note ON: Time 50880, Note Name: C#4, Velocity: 32
Note OFF: Time 51000, Note Name: C#4
Note ON: Time 51000, Note Name: E3, Velocity: 32
Note OFF: Time 51120, Note Name: E3
Note ON: Time 51120, Note Name: E2, Velocity: 40
Note OFF: Time 51240, Note Name: E2
Note ON: Time 51240, Note Name: E4, Velocity: 34
Note OFF: Time 51360, Note Name: E4
Note ON: Time 51360, Note Name: G#3, Velocity: 35
Note OFF: Time 51480, Note Name: G#3
Note ON: Time 51480, Note Name: E4, Velocity: 35
Note OFF: Time 51600, Note Name: E4
Note ON: Time 51600, Note Name: D4, Velocity: 35
Note OFF: Time 51720, Note Name: D4
Note ON: Time 51720, Note Name: E3, Velocity: 35
Note OFF: Time 51840, Note Name: E3
Note ON: Time 51840, Note Name: A2, Velocity: 50
Note OFF: Time 51960, Note Name: A2
Note ON: Time 51960, Note Name: E4, Velocity: 39
Note OFF: Time 52080, Note Name: E4
Note ON: Time 52080, Note Name: A3, Velocity: 39
Note OFF: Time 52200, Note Name: A3
Note ON: Time 52200, Note Name: E4, Velocity: 39
Note OFF: Time 52320, Note Name: E4
Note ON: Time 52320, Note Name: C#4, Velocity: 39
Note OFF: Time 52440, Note Name: C#4
Note ON: Time 52440, Note Name: E3, Velocity: 39
Note OFF: Time 52560, Note Name: E3
Note ON: Time 52560, Note Name: D#2, Velocity: 65
Note OFF: Time 52680, Note Name: D#2
Note ON: Time 52680, Note Name: F#4, Velocity: 40
Note OFF: Time 52800, Note Name: F#4
Note ON: Time 52800, Note Name: A3, Velocity: 42
Note OFF: Time 52920, Note Name: A3
Note ON: Time 52920, Note Name: F#4, Velocity: 44
Note OFF: Time 53040, Note Name: F#4
Note ON: Time 53040, Note Name: C#4, Velocity: 46
Note OFF: Time 53160, Note Name: C#4
Note ON: Time 53160, Note Name: D#3, Velocity: 48
Note OFF: Time 53280, Note Name: D#3
Note ON: Time 53280, Note Name: G#2, Velocity: 50
Note OFF: Time 53400, Note Name: G#2
Note ON: Time 53400, Note Name: F#4, Velocity: 39
Note OFF: Time 53520, Note Name: F#4
Note ON: Time 53520, Note Name: G#3, Velocity: 39
Note OFF: Time 53640, Note Name: G#3
Note ON: Time 53640, Note Name: F#4, Velocity: 39
Note OFF: Time 53760, Note Name: F#4
Note ON: Time 53760, Note Name: C#4, Velocity: 39
Note OFF: Time 53880, Note Name: C#4
Note ON: Time 53880, Note Name: D#3, Velocity: 39
Note OFF: Time 54000, Note Name: D#3
Note ON: Time 54000, Note Name: G#2, Velocity: 63
Note OFF: Time 54120, Note Name: G#2
Note ON: Time 54120, Note Name: F#4, Velocity: 40
Note OFF: Time 54240, Note Name: F#4
Note ON: Time 54240, Note Name: G#3, Velocity: 42
Note OFF: Time 54360, Note Name: G#3
Note ON: Time 54360, Note Name: F#4, Velocity: 44
Note OFF: Time 54480, Note Name: F#4
Note ON: Time 54480, Note Name: C4, Velocity: 46
Note OFF: Time 54600, Note Name: C4
Note ON: Time 54600, Note Name: D#3, Velocity: 48
Note OFF: Time 54720, Note Name: D#3
Note ON: Time 54720, Note Name: G#2, Velocity: 50
Note OFF: Time 54840, Note Name: G#2
Note ON: Time 54840, Note Name: E4, Velocity: 39
Note OFF: Time 54960, Note Name: E4
Note ON: Time 54960, Note Name: G#3, Velocity: 39
Note OFF: Time 55080, Note Name: G#3
Note ON: Time 55080, Note Name: E4, Velocity: 39
Note OFF: Time 55200, Note Name: E4
Note ON: Time 55200, Note Name: C#4, Velocity: 39
Note OFF: Time 55320, Note Name: C#4
Note ON: Time 55320, Note Name: E3, Velocity: 39
Note OFF: Time 55440, Note Name: E3
Note ON: Time 55440, Note Name: G#1, Velocity: 58
Note OFF: Time 55560, Note Name: G#1
Note ON: Time 55560, Note Name: E4, Velocity: 40
Note OFF: Time 55680, Note Name: E4
Note ON: Time 55680, Note Name: G#3, Velocity: 42
Note OFF: Time 55800, Note Name: G#3
Note ON: Time 55800, Note Name: E4, Velocity: 44
Note OFF: Time 55920, Note Name: E4
Note ON: Time 55920, Note Name: C#4, Velocity: 46
Note OFF: Time 56040, Note Name: C#4
Note ON: Time 56040, Note Name: E3, Velocity: 48
Note OFF: Time 56160, Note Name: E3
Note ON: Time 56160, Note Name: G#2, Velocity: 65
Note OFF: Time 56280, Note Name: G#2
Note ON: Time 56280, Note Name: D#4, Velocity: 51
Note OFF: Time 56400, Note Name: D#4
Note ON: Time 56400, Note Name: F#3, Velocity: 51
Note OFF: Time 56520, Note Name: F#3
Note ON: Time 56520, Note Name: D#4, Velocity: 51
Note OFF: Time 56640, Note Name: D#4
Note ON: Time 56640, Note Name: C4, Velocity: 51
Note OFF: Time 56760, Note Name: C4
Note ON: Time 56760, Note Name: D#3, Velocity: 51
Note OFF: Time 56880, Note Name: D#3
Note ON: Time 56880, Note Name: G#1, Velocity: 64
Note OFF: Time 57000, Note Name: G#1
Note ON: Time 57000, Note Name: D#4, Velocity: 48
Note OFF: Time 57120, Note Name: D#4
Note ON: Time 57120, Note Name: F#3, Velocity: 51
Note OFF: Time 57240, Note Name: F#3
Note ON: Time 57240, Note Name: D#4, Velocity: 54
Note OFF: Time 57360, Note Name: D#4
Note ON: Time 57360, Note Name: C4, Velocity: 57
Note OFF: Time 57480, Note Name: C4
Note ON: Time 57480, Note Name: D#3, Velocity: 59
Note OFF: Time 57600, Note Name: D#3
Note ON: Time 57600, Note Name: A2, Velocity: 76
Note OFF: Time 57720, Note Name: A2
Note ON: Time 57720, Note Name: D#4, Velocity: 55
Note OFF: Time 57840, Note Name: D#4
Note ON: Time 57840, Note Name: F#3, Velocity: 56
Note OFF: Time 57960, Note Name: F#3
Note ON: Time 57960, Note Name: D#4, Velocity: 57
Note OFF: Time 58080, Note Name: D#4
Note ON: Time 58080, Note Name: C4, Velocity: 57
Note OFF: Time 58200, Note Name: C4
Note ON: Time 58200, Note Name: D#3, Velocity: 57
Note OFF: Time 58320, Note Name: D#3
Note ON: Time 58320, Note Name: A1, Velocity: 82
Note OFF: Time 58440, Note Name: A1
Note ON: Time 58440, Note Name: D#4, Velocity: 57
Note OFF: Time 58560, Note Name: D#4
Note ON: Time 58560, Note Name: F#3, Velocity: 58
Note OFF: Time 58680, Note Name: F#3
Note ON: Time 58680, Note Name: D#4, Velocity: 59
Note OFF: Time 58800, Note Name: D#4
Note ON: Time 58800, Note Name: B3, Velocity: 62
Note OFF: Time 58920, Note Name: B3
Note ON: Time 58920, Note Name: D#3, Velocity: 63
Note OFF: Time 59040, Note Name: D#3
Note ON: Time 59040, Note Name: A#2, Velocity: 84
Note OFF: Time 59160, Note Name: A#2
Note ON: Time 59160, Note Name: D#4, Velocity: 52
Note OFF: Time 59280, Note Name: D#4
Note ON: Time 59280, Note Name: F#3, Velocity: 52
Note OFF: Time 59400, Note Name: F#3
Note ON: Time 59400, Note Name: D#4, Velocity: 54
Note OFF: Time 59520, Note Name: D#4
Note ON: Time 59520, Note Name: A#3, Velocity: 54
Note OFF: Time 59640, Note Name: A#3
Note ON: Time 59640, Note Name: D#3, Velocity: 52
Note OFF: Time 59760, Note Name: D#3
Note ON: Time 59760, Note Name: A#1, Velocity: 80
Note OFF: Time 59880, Note Name: A#1
Note ON: Time 59880, Note Name: D#4, Velocity: 56
Note OFF: Time 60000, Note Name: D#4
Note ON: Time 60000, Note Name: F#3, Velocity: 56
Note OFF: Time 60120, Note Name: F#3
Note ON: Time 60120, Note Name: D#4, Velocity: 56
Note OFF: Time 60240, Note Name: D#4
Note ON: Time 60240, Note Name: A#3, Velocity: 56
Note OFF: Time 60360, Note Name: A#3
Note ON: Time 60360, Note Name: D#3, Velocity: 56
Note OFF: Time 60480, Note Name: D#3
Note ON: Time 60480, Note Name: B2, Velocity: 71
Note OFF: Time 60600, Note Name: B2
Note ON: Time 60600, Note Name: D#4, Velocity: 52
Note OFF: Time 60720, Note Name: D#4
Note ON: Time 60720, Note Name: F#3, Velocity: 52
Note OFF: Time 60840, Note Name: F#3
Note ON: Time 60840, Note Name: D#4, Velocity: 54
Note OFF: Time 60960, Note Name: D#4
Note ON: Time 60960, Note Name: A3, Velocity: 54
Note OFF: Time 61080, Note Name: A3
Note ON: Time 61080, Note Name: D#3, Velocity: 52
Note OFF: Time 61200, Note Name: D#3
Note ON: Time 61200, Note Name: B1, Velocity: 79
Note OFF: Time 61320, Note Name: B1
Note ON: Time 61320, Note Name: D#4, Velocity: 56
Note OFF: Time 61440, Note Name: D#4
Note ON: Time 61440, Note Name: F#3, Velocity: 56
Note OFF: Time 61560, Note Name: F#3
Note ON: Time 61560, Note Name: D#4, Velocity: 56
Note OFF: Time 61680, Note Name: D#4
Note ON: Time 61680, Note Name: A3, Velocity: 56
Note OFF: Time 61800, Note Name: A3
Note ON: Time 61800, Note Name: D#3, Velocity: 56
Note OFF: Time 61920, Note Name: D#3
Note ON: Time 61920, Note Name: C3, Velocity: 70
Note ON: Time 62040, Note Name: D#4, Velocity: 52
Note OFF: Time 62160, Note Name: D#4
Note ON: Time 62160, Note Name: F#3, Velocity: 52
Note OFF: Time 62280, Note Name: F#3
Note ON: Time 62280, Note Name: D#4, Velocity: 54
Note OFF: Time 62400, Note Name: D#4
Note OFF: Time 62400, Note Name: C3
Note ON: Time 62400, Note Name: A3, Velocity: 54
Note OFF: Time 62520, Note Name: A3
Note ON: Time 62520, Note Name: D#3, Velocity: 52
Note OFF: Time 62640, Note Name: D#3
Note ON: Time 62640, Note Name: C#3, Velocity: 66
Note ON: Time 62760, Note Name: C#4, Velocity: 52
Note OFF: Time 62880, Note Name: C#4
Note ON: Time 62880, Note Name: F#3, Velocity: 52
Note OFF: Time 63000, Note Name: F#3
Note ON: Time 63000, Note Name: A3, Velocity: 54
Note OFF: Time 63120, Note Name: A3
Note OFF: Time 63120, Note Name: C#3
Note ON: Time 63120, Note Name: D3, Velocity: 66
Note ON: Time 63240, Note Name: C4, Velocity: 52
Note OFF: Time 63360, Note Name: C4
Note ON: Time 63360, Note Name: F#3, Velocity: 52
Note OFF: Time 63480, Note Name: F#3
Note ON: Time 63480, Note Name: A3, Velocity: 54
Note OFF: Time 63600, Note Name: A3
Note OFF: Time 63600, Note Name: D3
Note ON: Time 63600, Note Name: D#3, Velocity: 66
Note ON: Time 63720, Note Name: D#4, Velocity: 52
Note OFF: Time 63840, Note Name: D#4
Note ON: Time 63840, Note Name: F#3, Velocity: 52
Note OFF: Time 63960, Note Name: F#3
Note ON: Time 63960, Note Name: G#3, Velocity: 55
Note OFF: Time 64080, Note Name: G#3
Note OFF: Time 64080, Note Name: D#3
Note ON: Time 64080, Note Name: G#2, Velocity: 66
Note OFF: Time 64200, Note Name: G#2
Note ON: Time 64200, Note Name: F#4, Velocity: 52
Note OFF: Time 64320, Note Name: F#4
Note ON: Time 64320, Note Name: G#3, Velocity: 51
Note OFF: Time 64440, Note Name: G#3
Note ON: Time 64440, Note Name: F#4, Velocity: 50
Note OFF: Time 64560, Note Name: F#4
Note ON: Time 64560, Note Name: C4, Velocity: 49
Note OFF: Time 64680, Note Name: C4
Note ON: Time 64680, Note Name: F#3, Velocity: 47
Note OFF: Time 64800, Note Name: F#3
Note ON: Time 64800, Note Name: C#2, Velocity: 76
Note OFF: Time 64920, Note Name: C#2
Note ON: Time 64920, Note Name: F4, Velocity: 44
Note OFF: Time 65040, Note Name: F4
Note ON: Time 65040, Note Name: G#3, Velocity: 48
Note OFF: Time 65160, Note Name: G#3
Note ON: Time 65160, Note Name: F4, Velocity: 48
Note OFF: Time 65280, Note Name: F4
Note ON: Time 65280, Note Name: C#4, Velocity: 48
Note OFF: Time 65400, Note Name: C#4
Note ON: Time 65400, Note Name: F3, Velocity: 47
Note OFF: Time 65520, Note Name: F3
Note ON: Time 65520, Note Name: C#3, Velocity: 56
Note OFF: Time 65640, Note Name: C#3
Note ON: Time 65640, Note Name: F4, Velocity: 44
Note OFF: Time 65760, Note Name: F4
Note ON: Time 65760, Note Name: G#3, Velocity: 44
Note OFF: Time 65880, Note Name: G#3
Note ON: Time 65880, Note Name: F4, Velocity: 44
Note OFF: Time 66000, Note Name: F4
Note ON: Time 66000, Note Name: C#4, Velocity: 44
Note OFF: Time 66120, Note Name: C#4
Note ON: Time 66120, Note Name: F3, Velocity: 44
Note OFF: Time 66240, Note Name: F3
Note ON: Time 66240, Note Name: C#3, Velocity: 52
Note OFF: Time 66360, Note Name: C#3
Note ON: Time 66360, Note Name: F4, Velocity: 48
Note OFF: Time 66480, Note Name: F4
Note ON: Time 66480, Note Name: G#3, Velocity: 48
Note OFF: Time 66600, Note Name: G#3
Note ON: Time 66600, Note Name: F4, Velocity: 46
Note OFF: Time 66720, Note Name: F4
Note ON: Time 66720, Note Name: C#4, Velocity: 46
Note OFF: Time 66840, Note Name: C#4
Note ON: Time 66840, Note Name: F3, Velocity: 46
Note OFF: Time 66960, Note Name: F3
Note ON: Time 66960, Note Name: C#3, Velocity: 54
Note OFF: Time 67080, Note Name: C#3
Note ON: Time 67080, Note Name: F4, Velocity: 46
Note OFF: Time 67200, Note Name: F4
Note ON: Time 67200, Note Name: G#3, Velocity: 46
Note OFF: Time 67320, Note Name: G#3
Note ON: Time 67320, Note Name: F4, Velocity: 48
Note OFF: Time 67440, Note Name: F4
Note ON: Time 67440, Note Name: C#4, Velocity: 49
Note OFF: Time 67560, Note Name: C#4
Note ON: Time 67560, Note Name: F3, Velocity: 52
Note OFF: Time 67680, Note Name: F3
Note ON: Time 67680, Note Name: C#3, Velocity: 59
Note OFF: Time 67800, Note Name: C#3
Note ON: Time 67800, Note Name: F4, Velocity: 51
Note OFF: Time 67920, Note Name: F4
Note ON: Time 67920, Note Name: G#3, Velocity: 49
Note OFF: Time 68040, Note Name: G#3
Note ON: Time 68040, Note Name: F4, Velocity: 48
Note OFF: Time 68160, Note Name: F4
Note ON: Time 68160, Note Name: C#4, Velocity: 48
Note OFF: Time 68280, Note Name: C#4
Note ON: Time 68280, Note Name: F3, Velocity: 46
Note OFF: Time 68400, Note Name: F3
Note ON: Time 68400, Note Name: C#3, Velocity: 52
Note OFF: Time 68520, Note Name: C#3
Note ON: Time 68520, Note Name: F4, Velocity: 44
Note OFF: Time 68640, Note Name: F4
Note ON: Time 68640, Note Name: G#3, Velocity: 44
Note OFF: Time 68760, Note Name: G#3
Note ON: Time 68760, Note Name: F4, Velocity: 44
Note OFF: Time 68880, Note Name: F4
Note ON: Time 68880, Note Name: C#4, Velocity: 44
Note OFF: Time 69000, Note Name: C#4
Note ON: Time 69000, Note Name: F3, Velocity: 42
Note OFF: Time 69120, Note Name: F3
Note ON: Time 69120, Note Name: C#2, Velocity: 52
Note OFF: Time 69240, Note Name: C#2
Note ON: Time 69240, Note Name: F4, Velocity: 44
Note OFF: Time 69360, Note Name: F4
Note ON: Time 69360, Note Name: G#3, Velocity: 44
Note OFF: Time 69480, Note Name: G#3
Note ON: Time 69480, Note Name: F4, Velocity: 44
Note OFF: Time 69600, Note Name: F4
Note ON: Time 69600, Note Name: C#4, Velocity: 44
Note OFF: Time 69720, Note Name: C#4
Note ON: Time 69720, Note Name: F3, Velocity: 44
Note OFF: Time 69840, Note Name: F3
Note ON: Time 69840, Note Name: C#3, Velocity: 52
Note OFF: Time 69960, Note Name: C#3
Note ON: Time 69960, Note Name: F4, Velocity: 44
Note OFF: Time 70080, Note Name: F4
Note ON: Time 70080, Note Name: G#3, Velocity: 44
Note OFF: Time 70200, Note Name: G#3
Note ON: Time 70200, Note Name: F4, Velocity: 37
Note OFF: Time 70320, Note Name: F4
Note ON: Time 70320, Note Name: C#4, Velocity: 42
Note OFF: Time 70440, Note Name: C#4
Note ON: Time 70440, Note Name: F3, Velocity: 32
Note OFF: Time 70560, Note Name: F3
Note ON: Time 70560, Note Name: C#3, Velocity: 28
Note OFF: Time 70680, Note Name: C#3
Note ON: Time 70680, Note Name: F4, Velocity: 22
Note OFF: Time 70800, Note Name: F4
Note ON: Time 70800, Note Name: G#3, Velocity: 22
Note OFF: Time 70920, Note Name: G#3
Note ON: Time 70920, Note Name: F4, Velocity: 22
Note OFF: Time 71040, Note Name: F4
Note ON: Time 71040, Note Name: C#4, Velocity: 22
Note OFF: Time 71160, Note Name: C#4
Note ON: Time 71160, Note Name: F3, Velocity: 22
Note OFF: Time 71280, Note Name: F3
Note ON: Time 71280, Note Name: C#3, Velocity: 27
Note OFF: Time 71400, Note Name: C#3
Note ON: Time 71400, Note Name: F4, Velocity: 22
Note OFF: Time 71520, Note Name: F4
Note ON: Time 71520, Note Name: G#3, Velocity: 22
Note OFF: Time 71640, Note Name: G#3
Note ON: Time 71640, Note Name: F4, Velocity: 22
Note OFF: Time 71760, Note Name: F4
Note ON: Time 71760, Note Name: C#4, Velocity: 24
Note OFF: Time 71880, Note Name: C#4
Note ON: Time 71880, Note Name: F3, Velocity: 22
Note OFF: Time 72000, Note Name: F3
Note ON: Time 72000, Note Name: C#2, Velocity: 27
Note OFF: Time 72120, Note Name: C#2
Note ON: Time 72120, Note Name: F4, Velocity: 22
Note OFF: Time 72240, Note Name: F4
Note ON: Time 72240, Note Name: G#3, Velocity: 22
Note OFF: Time 72360, Note Name: G#3
Note ON: Time 72360, Note Name: F4, Velocity: 22
Note OFF: Time 72480, Note Name: F4
Note ON: Time 72480, Note Name: B3, Velocity: 21
Note OFF: Time 72600, Note Name: B3
Note ON: Time 72600, Note Name: F3, Velocity: 21
Note OFF: Time 72720, Note Name: F3
Note ON: Time 72720, Note Name: C#3, Velocity: 28
Note OFF: Time 72840, Note Name: C#3
Note ON: Time 72840, Note Name: F4, Velocity: 23
Note OFF: Time 72960, Note Name: F4
Note ON: Time 72960, Note Name: G#3, Velocity: 25
Note OFF: Time 73080, Note Name: G#3
Note ON: Time 73080, Note Name: F4, Velocity: 27
Note OFF: Time 73200, Note Name: F4
Note ON: Time 73200, Note Name: B3, Velocity: 28
Note OFF: Time 73320, Note Name: B3
Note ON: Time 73320, Note Name: F3, Velocity: 30
Note OFF: Time 73440, Note Name: F3
Note ON: Time 73440, Note Name: C#3, Velocity: 33
Note OFF: Time 73680, Note Name: C#3
Note ON: Time 73680, Note Name: F4, Velocity: 28
Note OFF: Time 73920, Note Name: F4
Note ON: Time 73920, Note Name: G#3, Velocity: 28
Note OFF: Time 74160, Note Name: G#3
Note ON: Time 74160, Note Name: F4, Velocity: 28
Note OFF: Time 74400, Note Name: F4
Note ON: Time 74400, Note Name: B3, Velocity: 28
Note OFF: Time 74640, Note Name: B3
Note ON: Time 74640, Note Name: F3, Velocity: 28
Note OFF: Time 74880, Note Name: F3
Note ON: Time 74880, Note Name: C#3, Velocity: 28
Note OFF: Time 75120, Note Name: C#3
Note ON: Time 75120, Note Name: F4, Velocity: 29
Note OFF: Time 75360, Note Name: F4
Note ON: Time 75360, Note Name: G#3, Velocity: 30
Note OFF: Time 75600, Note Name: G#3
Note ON: Time 75600, Note Name: F4, Velocity: 30
Note OFF: Time 75840, Note Name: F4
Note ON: Time 75840, Note Name: B3, Velocity: 29
Note OFF: Time 76080, Note Name: B3
Note ON: Time 76080, Note Name: F3, Velocity: 28
Note OFF: Time 76320, Note Name: F3
Note ON: Time 76320, Note Name: D3, Velocity: 29
Note OFF: Time 76440, Note Name: D3
Note ON: Time 76440, Note Name: F4, Velocity: 22
Note OFF: Time 76560, Note Name: F4
Note ON: Time 76560, Note Name: G#3, Velocity: 22
Note OFF: Time 76680, Note Name: G#3
Note ON: Time 76680, Note Name: F4, Velocity: 22
Note OFF: Time 76800, Note Name: F4
Note ON: Time 76800, Note Name: A#3, Velocity: 21
Note OFF: Time 76920, Note Name: A#3
Note ON: Time 76920, Note Name: F3, Velocity: 21
Note OFF: Time 77040, Note Name: F3
Note ON: Time 77040, Note Name: D3, Velocity: 28
Note OFF: Time 77160, Note Name: D3
Note ON: Time 77160, Note Name: F4, Velocity: 23
Note OFF: Time 77280, Note Name: F4
Note ON: Time 77280, Note Name: G#3, Velocity: 25
Note OFF: Time 77400, Note Name: G#3
Note ON: Time 77400, Note Name: F4, Velocity: 27
Note OFF: Time 77520, Note Name: F4
Note ON: Time 77520, Note Name: A#3, Velocity: 28
Note OFF: Time 77640, Note Name: A#3
Note ON: Time 77640, Note Name: F3, Velocity: 30
Note OFF: Time 77760, Note Name: F3
Note ON: Time 77760, Note Name: D#3, Velocity: 35
Note OFF: Time 77880, Note Name: D#3
Note ON: Time 77880, Note Name: F#4, Velocity: 28
Note OFF: Time 78000, Note Name: F#4
Note ON: Time 78000, Note Name: A#3, Velocity: 28
Note OFF: Time 78120, Note Name: A#3
Note ON: Time 78120, Note Name: F#4, Velocity: 28
Note OFF: Time 78240, Note Name: F#4
Note ON: Time 78240, Note Name: D#4, Velocity: 28
Note OFF: Time 78360, Note Name: D#4
Note ON: Time 78360, Note Name: F#3, Velocity: 28
Note OFF: Time 78480, Note Name: F#3
Note ON: Time 78480, Note Name: D#3, Velocity: 35
Note OFF: Time 78600, Note Name: D#3
Note ON: Time 78600, Note Name: G#4, Velocity: 30
Note OFF: Time 78720, Note Name: G#4
Note ON: Time 78720, Note Name: A#3, Velocity: 31
Note OFF: Time 78840, Note Name: A#3
Note ON: Time 78840, Note Name: G#4, Velocity: 31
Note OFF: Time 78960, Note Name: G#4
Note ON: Time 78960, Note Name: D4, Velocity: 31
Note OFF: Time 79080, Note Name: D4
Note ON: Time 79080, Note Name: F3, Velocity: 31
Note OFF: Time 79200, Note Name: F3
Note ON: Time 79200, Note Name: D#3, Velocity: 44
Note OFF: Time 79320, Note Name: D#3
Note ON: Time 79320, Note Name: F#4, Velocity: 34
Note OFF: Time 79440, Note Name: F#4
Note ON: Time 79440, Note Name: A#3, Velocity: 34
Note OFF: Time 79560, Note Name: A#3
Note ON: Time 79560, Note Name: F#4, Velocity: 34
Note OFF: Time 79680, Note Name: F#4
Note ON: Time 79680, Note Name: D#4, Velocity: 34
Note OFF: Time 79800, Note Name: D#4
Note ON: Time 79800, Note Name: F#3, Velocity: 34
Note OFF: Time 79920, Note Name: F#3
Note ON: Time 79920, Note Name: A#2, Velocity: 45
Note OFF: Time 80040, Note Name: A#2
Note ON: Time 80040, Note Name: F4, Velocity: 35
Note OFF: Time 80160, Note Name: F4
Note ON: Time 80160, Note Name: A#3, Velocity: 37
Note OFF: Time 80280, Note Name: A#3
Note ON: Time 80280, Note Name: F4, Velocity: 39
Note OFF: Time 80400, Note Name: F4
Note ON: Time 80400, Note Name: D4, Velocity: 40
Note OFF: Time 80520, Note Name: D4
Note ON: Time 80520, Note Name: F3, Velocity: 42
Note OFF: Time 80640, Note Name: F3
Note ON: Time 80640, Note Name: D#2, Velocity: 35
Note OFF: Time 80760, Note Name: D#2
Note ON: Time 80760, Note Name: F#4, Velocity: 28
Note OFF: Time 80880, Note Name: F#4
Note ON: Time 80880, Note Name: A#3, Velocity: 28
Note OFF: Time 81000, Note Name: A#3
Note ON: Time 81000, Note Name: F#4, Velocity: 28
Note OFF: Time 81120, Note Name: F#4
Note ON: Time 81120, Note Name: D#4, Velocity: 28
Note OFF: Time 81240, Note Name: D#4
Note ON: Time 81240, Note Name: F#3, Velocity: 28
Note OFF: Time 81360, Note Name: F#3
Note ON: Time 81360, Note Name: D#3, Velocity: 35
Note OFF: Time 81480, Note Name: D#3
Note ON: Time 81480, Note Name: G#4, Velocity: 30
Note OFF: Time 81600, Note Name: G#4
Note ON: Time 81600, Note Name: A#3, Velocity: 31
Note OFF: Time 81720, Note Name: A#3
Note ON: Time 81720, Note Name: G#4, Velocity: 31
Note OFF: Time 81840, Note Name: G#4
Note ON: Time 81840, Note Name: D4, Velocity: 31
Note OFF: Time 81960, Note Name: D4
Note ON: Time 81960, Note Name: F3, Velocity: 31
Note OFF: Time 82080, Note Name: F3
Note ON: Time 82080, Note Name: D#3, Velocity: 44
Note OFF: Time 82200, Note Name: D#3
Note ON: Time 82200, Note Name: F#4, Velocity: 34
Note OFF: Time 82320, Note Name: F#4
Note ON: Time 82320, Note Name: A#3, Velocity: 34
Note OFF: Time 82440, Note Name: A#3
Note ON: Time 82440, Note Name: F#4, Velocity: 34
Note OFF: Time 82560, Note Name: F#4
Note ON: Time 82560, Note Name: D#4, Velocity: 34
Note OFF: Time 82680, Note Name: D#4
Note ON: Time 82680, Note Name: F#3, Velocity: 34
Note OFF: Time 82800, Note Name: F#3
Note ON: Time 82800, Note Name: F#2, Velocity: 65
Note OFF: Time 82920, Note Name: F#2
Note ON: Time 82920, Note Name: D#4, Velocity: 40
Note OFF: Time 83040, Note Name: D#4
Note ON: Time 83040, Note Name: F#3, Velocity: 42
Note OFF: Time 83160, Note Name: F#3
Note ON: Time 83160, Note Name: D#4, Velocity: 44
Note OFF: Time 83280, Note Name: D#4
Note ON: Time 83280, Note Name: A#3, Velocity: 46
Note OFF: Time 83400, Note Name: A#3
Note ON: Time 83400, Note Name: D#3, Velocity: 48
Note OFF: Time 83520, Note Name: D#3
Note ON: Time 83520, Note Name: G#2, Velocity: 52
Note OFF: Time 83640, Note Name: G#2
Note ON: Time 83640, Note Name: C#4, Velocity: 44
Note OFF: Time 83760, Note Name: C#4
Note ON: Time 83760, Note Name: F3, Velocity: 44
Note OFF: Time 83880, Note Name: F3
Note ON: Time 83880, Note Name: C#4, Velocity: 44
Note OFF: Time 84000, Note Name: C#4
Note ON: Time 84000, Note Name: G#3, Velocity: 44
Note OFF: Time 84120, Note Name: G#3
Note ON: Time 84120, Note Name: G#2, Velocity: 44
Note OFF: Time 84240, Note Name: G#2
Note ON: Time 84240, Note Name: A#2, Velocity: 57
Note OFF: Time 84360, Note Name: A#2
Note ON: Time 84360, Note Name: C#4, Velocity: 48
Note OFF: Time 84480, Note Name: C#4
Note ON: Time 84480, Note Name: F3, Velocity: 48
Note OFF: Time 84600, Note Name: F3
Note ON: Time 84600, Note Name: C#4, Velocity: 48
Note OFF: Time 84720, Note Name: C#4
Note ON: Time 84720, Note Name: A#3, Velocity: 48
Note OFF: Time 84840, Note Name: A#3
Note ON: Time 84840, Note Name: A#2, Velocity: 49
Note OFF: Time 84960, Note Name: A#2
Note ON: Time 84960, Note Name: F2, Velocity: 58
Note OFF: Time 85080, Note Name: F2
Note ON: Time 85080, Note Name: G#3, Velocity: 51
Note OFF: Time 85200, Note Name: G#3
Note ON: Time 85200, Note Name: C#3, Velocity: 51
Note OFF: Time 85320, Note Name: C#3
Note ON: Time 85320, Note Name: G#3, Velocity: 51
Note OFF: Time 85440, Note Name: G#3
Note ON: Time 85440, Note Name: C#3, Velocity: 51
Note OFF: Time 85560, Note Name: C#3
Note ON: Time 85560, Note Name: F2, Velocity: 52
Note OFF: Time 85680, Note Name: F2
Note ON: Time 85680, Note Name: F#2, Velocity: 64
Note OFF: Time 85800, Note Name: F#2
Note ON: Time 85800, Note Name: A#3, Velocity: 51
Note OFF: Time 85920, Note Name: A#3
Note ON: Time 85920, Note Name: C#3, Velocity: 52
Note OFF: Time 86040, Note Name: C#3
Note ON: Time 86040, Note Name: A#3, Velocity: 54
Note OFF: Time 86160, Note Name: A#3
Note ON: Time 86160, Note Name: D#3, Velocity: 55
Note OFF: Time 86280, Note Name: D#3
Note ON: Time 86280, Note Name: F#2, Velocity: 56
Note OFF: Time 86400, Note Name: F#2
Note ON: Time 86400, Note Name: G#1, Velocity: 58
Note OFF: Time 86520, Note Name: G#1
Note ON: Time 86520, Note Name: C#4, Velocity: 51
Note OFF: Time 86640, Note Name: C#4
Note ON: Time 86640, Note Name: D#3, Velocity: 51
Note OFF: Time 86760, Note Name: D#3
Note ON: Time 86760, Note Name: C#4, Velocity: 51
Note OFF: Time 86880, Note Name: C#4
Note ON: Time 86880, Note Name: G#3, Velocity: 51
Note OFF: Time 87000, Note Name: G#3
Note ON: Time 87000, Note Name: D#3, Velocity: 52
Note OFF: Time 87120, Note Name: D#3
Note ON: Time 87120, Note Name: G#2, Velocity: 64
Note OFF: Time 87240, Note Name: G#2
Note ON: Time 87240, Note Name: C#4, Velocity: 51
Note OFF: Time 87360, Note Name: C#4
Note ON: Time 87360, Note Name: D#3, Velocity: 52
Note OFF: Time 87480, Note Name: D#3
Note ON: Time 87480, Note Name: C#4, Velocity: 54
Note OFF: Time 87600, Note Name: C#4
Note ON: Time 87600, Note Name: G#3, Velocity: 55
Note OFF: Time 87720, Note Name: G#3
Note ON: Time 87720, Note Name: D#3, Velocity: 56
Note OFF: Time 87840, Note Name: D#3
Note ON: Time 87840, Note Name: G#1, Velocity: 58
Note OFF: Time 87960, Note Name: G#1
Note ON: Time 87960, Note Name: C#4, Velocity: 51
Note OFF: Time 88080, Note Name: C#4
Note ON: Time 88080, Note Name: D#3, Velocity: 51
Note OFF: Time 88200, Note Name: D#3
Note ON: Time 88200, Note Name: C#4, Velocity: 51
Note OFF: Time 88320, Note Name: C#4
Note ON: Time 88320, Note Name: F#3, Velocity: 51
Note OFF: Time 88440, Note Name: F#3
Note ON: Time 88440, Note Name: D#3, Velocity: 52
Note OFF: Time 88560, Note Name: D#3
Note ON: Time 88560, Note Name: G#2, Velocity: 64
Note OFF: Time 88680, Note Name: G#2
Note ON: Time 88680, Note Name: C4, Velocity: 51
Note OFF: Time 88800, Note Name: C4
Note ON: Time 88800, Note Name: D#3, Velocity: 52
Note OFF: Time 88920, Note Name: D#3
Note ON: Time 88920, Note Name: C4, Velocity: 54
Note OFF: Time 89040, Note Name: C4
Note ON: Time 89040, Note Name: F#3, Velocity: 55
Note OFF: Time 89160, Note Name: F#3
Note ON: Time 89160, Note Name: G#2, Velocity: 56
Note OFF: Time 89280, Note Name: G#2
Note ON: Time 89280, Note Name: C#2, Velocity: 64
Note OFF: Time 89400, Note Name: C#2
Note ON: Time 89400, Note Name: F4, Velocity: 26
Note OFF: Time 89520, Note Name: F4
Note ON: Time 89520, Note Name: G#3, Velocity: 26
Note OFF: Time 89640, Note Name: G#3
Note ON: Time 89640, Note Name: F4, Velocity: 26
Note OFF: Time 89760, Note Name: F4
Note ON: Time 89760, Note Name: C#4, Velocity: 26
Note OFF: Time 89880, Note Name: C#4
Note ON: Time 89880, Note Name: F3, Velocity: 26
Note OFF: Time 90000, Note Name: F3
Note ON: Time 90000, Note Name: C#3, Velocity: 30
Note OFF: Time 90120, Note Name: C#3
Note ON: Time 90120, Note Name: E4, Velocity: 26
Note OFF: Time 90240, Note Name: E4
Note ON: Time 90240, Note Name: A#3, Velocity: 26
Note OFF: Time 90360, Note Name: A#3
Note ON: Time 90360, Note Name: E4, Velocity: 26
Note OFF: Time 90480, Note Name: E4
Note ON: Time 90480, Note Name: C#4, Velocity: 26
Note OFF: Time 90600, Note Name: C#4
Note ON: Time 90600, Note Name: G3, Velocity: 26
Note OFF: Time 90720, Note Name: G3
Note ON: Time 90720, Note Name: C#3, Velocity: 30
Note OFF: Time 90840, Note Name: C#3
Note ON: Time 90840, Note Name: D#4, Velocity: 26
Note OFF: Time 90960, Note Name: D#4
Note ON: Time 90960, Note Name: A3, Velocity: 26
Note OFF: Time 91080, Note Name: A3
Note ON: Time 91080, Note Name: D#4, Velocity: 26
Note OFF: Time 91200, Note Name: D#4
Note ON: Time 91200, Note Name: C4, Velocity: 26
Note OFF: Time 91320, Note Name: C4
Note ON: Time 91320, Note Name: F#3, Velocity: 26
Note OFF: Time 91440, Note Name: F#3
Note ON: Time 91440, Note Name: C#3, Velocity: 30
Note ON: Time 91560, Note Name: D4, Velocity: 26
Note OFF: Time 91680, Note Name: D4
Note ON: Time 91680, Note Name: G#3, Velocity: 25
Note OFF: Time 91800, Note Name: G#3
Note ON: Time 91800, Note Name: D4, Velocity: 25
Note OFF: Time 91920, Note Name: D4
Note ON: Time 91920, Note Name: B3, Velocity: 25
Note OFF: Time 92040, Note Name: B3
Note ON: Time 92040, Note Name: F3, Velocity: 25
Note OFF: Time 92160, Note Name: F3
Note OFF: Time 92160, Note Name: C#3
Note ON: Time 92160, Note Name: C#3, Velocity: 28
Note ON: Time 92280, Note Name: C#4, Velocity: 25
Note OFF: Time 92400, Note Name: C#4
Note ON: Time 92400, Note Name: G3, Velocity: 24
Note OFF: Time 92520, Note Name: G3
Note ON: Time 92520, Note Name: C#4, Velocity: 24
Note OFF: Time 92640, Note Name: C#4
Note ON: Time 92640, Note Name: A#3, Velocity: 24
Note OFF: Time 92760, Note Name: A#3
Note ON: Time 92760, Note Name: E3, Velocity: 24
Note OFF: Time 92880, Note Name: E3
Note OFF: Time 92880, Note Name: C#3
Note ON: Time 92880, Note Name: C#3, Velocity: 28
Note ON: Time 93000, Note Name: C#4, Velocity: 23
Note OFF: Time 93120, Note Name: C#4
Note ON: Time 93120, Note Name: F#3, Velocity: 23
Note OFF: Time 93240, Note Name: F#3
Note ON: Time 93240, Note Name: C#4, Velocity: 23
Note OFF: Time 93360, Note Name: C#4
Note ON: Time 93360, Note Name: A3, Velocity: 23
Note OFF: Time 93480, Note Name: A3
Note ON: Time 93480, Note Name: D#3, Velocity: 23
Note OFF: Time 93600, Note Name: D#3
Note OFF: Time 93600, Note Name: C#3
Note ON: Time 93600, Note Name: C#3, Velocity: 27
Note OFF: Time 93720, Note Name: C#3
Note ON: Time 93720, Note Name: C4, Velocity: 22
Note OFF: Time 93840, Note Name: C4
Note ON: Time 93840, Note Name: F#3, Velocity: 22
Note OFF: Time 93960, Note Name: F#3
Note ON: Time 93960, Note Name: C4, Velocity: 22
Note OFF: Time 94080, Note Name: C4
Note ON: Time 94080, Note Name: G#3, Velocity: 22
Note OFF: Time 94200, Note Name: G#3
Note ON: Time 94200, Note Name: D#3, Velocity: 22
Note OFF: Time 94320, Note Name: D#3
Note ON: Time 94320, Note Name: C#3, Velocity: 27
Note OFF: Time 94440, Note Name: C#3
Note ON: Time 94440, Note Name: C4, Velocity: 22
Note OFF: Time 94560, Note Name: C4
Note ON: Time 94560, Note Name: F#3, Velocity: 22
Note OFF: Time 94680, Note Name: F#3
Note ON: Time 94680, Note Name: C4, Velocity: 22
Note OFF: Time 94800, Note Name: C4
Note ON: Time 94800, Note Name: G#3, Velocity: 22
Note OFF: Time 94920, Note Name: G#3
Note ON: Time 94920, Note Name: D#3, Velocity: 22
Note OFF: Time 95040, Note Name: D#3
Note ON: Time 95040, Note Name: C#2, Velocity: 27
Note OFF: Time 95160, Note Name: C#2
Note ON: Time 95160, Note Name: F4, Velocity: 22
Note OFF: Time 95280, Note Name: F4
Note ON: Time 95280, Note Name: G#3, Velocity: 22
Note OFF: Time 95400, Note Name: G#3
Note ON: Time 95400, Note Name: F4, Velocity: 22
Note OFF: Time 95520, Note Name: F4
Note ON: Time 95520, Note Name: C#4, Velocity: 22
Note OFF: Time 95640, Note Name: C#4
Note ON: Time 95640, Note Name: F3, Velocity: 22
Note OFF: Time 95760, Note Name: F3
Note ON: Time 95760, Note Name: C#3, Velocity: 27
Note OFF: Time 95880, Note Name: C#3
Note ON: Time 95880, Note Name: E4, Velocity: 22
Note OFF: Time 95940, Note Name: E4
Note ON: Time 96000, Note Name: A#3, Velocity: 22
Note OFF: Time 96120, Note Name: A#3
Note ON: Time 96120, Note Name: E4, Velocity: 22
Note OFF: Time 96180, Note Name: E4
Note ON: Time 96240, Note Name: C#4, Velocity: 22
Note OFF: Time 96360, Note Name: C#4
Note ON: Time 96360, Note Name: G3, Velocity: 22
Note OFF: Time 96480, Note Name: G3
Note ON: Time 96480, Note Name: C#3, Velocity: 27
Note OFF: Time 96600, Note Name: C#3
Note ON: Time 96600, Note Name: D#4, Velocity: 22
Note OFF: Time 96720, Note Name: D#4
Note ON: Time 96720, Note Name: A3, Velocity: 22
Note OFF: Time 96840, Note Name: A3
Note ON: Time 96840, Note Name: D#4, Velocity: 22
Note OFF: Time 96960, Note Name: D#4
Note ON: Time 96960, Note Name: C4, Velocity: 22
Note OFF: Time 97080, Note Name: C4
Note ON: Time 97080, Note Name: F#3, Velocity: 22
Note OFF: Time 97200, Note Name: F#3
Note ON: Time 97200, Note Name: C#3, Velocity: 27
Note OFF: Time 97320, Note Name: C#3
Note ON: Time 97320, Note Name: D4, Velocity: 22
Note OFF: Time 97440, Note Name: D4
Note ON: Time 97440, Note Name: G#3, Velocity: 22
Note OFF: Time 97560, Note Name: G#3
Note ON: Time 97560, Note Name: D4, Velocity: 22
Note OFF: Time 97680, Note Name: D4
Note ON: Time 97680, Note Name: B3, Velocity: 22
Note OFF: Time 97800, Note Name: B3
Note ON: Time 97800, Note Name: F3, Velocity: 22
Note OFF: Time 97920, Note Name: F3
Note ON: Time 97920, Note Name: C#3, Velocity: 27
Note ON: Time 98040, Note Name: C#4, Velocity: 22
Note OFF: Time 98160, Note Name: C#4
Note ON: Time 98160, Note Name: G3, Velocity: 22
Note OFF: Time 98280, Note Name: G3
Note ON: Time 98280, Note Name: C#4, Velocity: 22
Note OFF: Time 98400, Note Name: C#4
Note ON: Time 98400, Note Name: A#3, Velocity: 22
Note OFF: Time 98520, Note Name: A#3
Note ON: Time 98520, Note Name: E3, Velocity: 22
Note OFF: Time 98640, Note Name: E3
Note OFF: Time 98640, Note Name: C#3
Note ON: Time 98640, Note Name: C#3, Velocity: 27
Note ON: Time 98760, Note Name: C#4, Velocity: 22
Note OFF: Time 98880, Note Name: C#4
Note ON: Time 98880, Note Name: F#3, Velocity: 22
Note OFF: Time 99000, Note Name: F#3
Note ON: Time 99000, Note Name: C#4, Velocity: 22
Note OFF: Time 99120, Note Name: C#4
Note ON: Time 99120, Note Name: A3, Velocity: 22
Note OFF: Time 99240, Note Name: A3
Note ON: Time 99240, Note Name: D#3, Velocity: 22
Note OFF: Time 99360, Note Name: D#3
Note OFF: Time 99360, Note Name: C#3
Note ON: Time 99360, Note Name: C#3, Velocity: 27
Note OFF: Time 99480, Note Name: C#3
Note ON: Time 99480, Note Name: C4, Velocity: 22
Note OFF: Time 99600, Note Name: C4
Note ON: Time 99600, Note Name: F#3, Velocity: 22
Note OFF: Time 99720, Note Name: F#3
Note ON: Time 99720, Note Name: C4, Velocity: 22
Note OFF: Time 99840, Note Name: C4
Note ON: Time 99840, Note Name: G#3, Velocity: 22
Note OFF: Time 99960, Note Name: G#3
Note ON: Time 99960, Note Name: D#3, Velocity: 22
Note OFF: Time 100080, Note Name: D#3
Note ON: Time 100080, Note Name: C#3, Velocity: 27
Note OFF: Time 100200, Note Name: C#3
Note ON: Time 100200, Note Name: C4, Velocity: 22
Note OFF: Time 100320, Note Name: C4
Note ON: Time 100320, Note Name: F#3, Velocity: 22
Note OFF: Time 100440, Note Name: F#3
Note ON: Time 100440, Note Name: C4, Velocity: 22
Note OFF: Time 100560, Note Name: C4
Note ON: Time 100560, Note Name: G#3, Velocity: 22
Note OFF: Time 100680, Note Name: G#3
Note ON: Time 100680, Note Name: D#3, Velocity: 22
Note OFF: Time 100800, Note Name: D#3
Note ON: Time 100800, Note Name: C#2, Velocity: 27
Note OFF: Time 100920, Note Name: C#2
Note ON: Time 100920, Note Name: C#4, Velocity: 22
Note OFF: Time 101040, Note Name: C#4
Note ON: Time 101040, Note Name: C#3, Velocity: 22
Note OFF: Time 101160, Note Name: C#3
Note ON: Time 101160, Note Name: C#4, Velocity: 22
Note OFF: Time 101280, Note Name: C#4
Note ON: Time 101280, Note Name: F3, Velocity: 22
Note OFF: Time 101400, Note Name: F3
Note ON: Time 101400, Note Name: G#2, Velocity: 22
Note OFF: Time 101520, Note Name: G#2
Note ON: Time 101520, Note Name: C#2, Velocity: 26
Note OFF: Time 101640, Note Name: C#2
Note ON: Time 101640, Note Name: C#4, Velocity: 22
Note OFF: Time 101760, Note Name: C#4
Note ON: Time 101760, Note Name: C#3, Velocity: 22
Note OFF: Time 101880, Note Name: C#3
Note ON: Time 101880, Note Name: C#4, Velocity: 22
Note OFF: Time 102000, Note Name: C#4
Note ON: Time 102000, Note Name: F3, Velocity: 22
Note OFF: Time 102120, Note Name: F3
Note ON: Time 102120, Note Name: G#2, Velocity: 22
Note OFF: Time 102240, Note Name: G#2
Note ON: Time 102240, Note Name: C#2, Velocity: 26
Note OFF: Time 102360, Note Name: C#2
Note ON: Time 102360, Note Name: C4, Velocity: 21
Note OFF: Time 102480, Note Name: C4
Note ON: Time 102480, Note Name: D#3, Velocity: 21
Note OFF: Time 102600, Note Name: D#3
Note ON: Time 102600, Note Name: C4, Velocity: 21
Note OFF: Time 102720, Note Name: C4
Note ON: Time 102720, Note Name: F#3, Velocity: 21
Note OFF: Time 102840, Note Name: F#3
Note ON: Time 102840, Note Name: G#2, Velocity: 21
Note OFF: Time 102960, Note Name: G#2
Note ON: Time 102960, Note Name: C#2, Velocity: 25
Note OFF: Time 103080, Note Name: C#2
Note ON: Time 103080, Note Name: C4, Velocity: 21
Note OFF: Time 103200, Note Name: C4
Note ON: Time 103200, Note Name: D#3, Velocity: 21
Note OFF: Time 103320, Note Name: D#3
Note ON: Time 103320, Note Name: C4, Velocity: 21
Note OFF: Time 103440, Note Name: C4
Note ON: Time 103440, Note Name: F#3, Velocity: 21
Note OFF: Time 103560, Note Name: F#3
Note ON: Time 103560, Note Name: G#2, Velocity: 21
Note OFF: Time 103680, Note Name: G#2
Note ON: Time 103680, Note Name: C#2, Velocity: 24
Note OFF: Time 103800, Note Name: C#2
Note ON: Time 103800, Note Name: C#4, Velocity: 21
Note OFF: Time 103920, Note Name: C#4
Note ON: Time 103920, Note Name: C#3, Velocity: 20
Note OFF: Time 104040, Note Name: C#3
Note ON: Time 104040, Note Name: C#4, Velocity: 20
Note OFF: Time 104160, Note Name: C#4
Note ON: Time 104160, Note Name: F3, Velocity: 20
Note OFF: Time 104280, Note Name: F3
Note ON: Time 104280, Note Name: G#2, Velocity: 20
Note OFF: Time 104400, Note Name: G#2
Note ON: Time 104400, Note Name: C#2, Velocity: 24
Note OFF: Time 104520, Note Name: C#2
Note ON: Time 104520, Note Name: C#4, Velocity: 20
Note OFF: Time 104640, Note Name: C#4
Note ON: Time 104640, Note Name: C#3, Velocity: 20
Note OFF: Time 104760, Note Name: C#3
Note ON: Time 104760, Note Name: C#4, Velocity: 20
Note OFF: Time 104880, Note Name: C#4
Note ON: Time 104880, Note Name: F3, Velocity: 20
Note OFF: Time 105000, Note Name: F3
Note ON: Time 105000, Note Name: G#2, Velocity: 20
Note OFF: Time 105120, Note Name: G#2
Note ON: Time 105120, Note Name: C#2, Velocity: 23
Note OFF: Time 105240, Note Name: C#2
Note ON: Time 105240, Note Name: C4, Velocity: 20
Note OFF: Time 105360, Note Name: C4
Note ON: Time 105360, Note Name: D#3, Velocity: 20
Note OFF: Time 105480, Note Name: D#3
Note ON: Time 105480, Note Name: C4, Velocity: 19
Note OFF: Time 105600, Note Name: C4
Note ON: Time 105600, Note Name: F#3, Velocity: 19
Note OFF: Time 105720, Note Name: F#3
Note ON: Time 105720, Note Name: G#2, Velocity: 19
Note OFF: Time 105840, Note Name: G#2
Note ON: Time 105840, Note Name: C#2, Velocity: 22
Note OFF: Time 105960, Note Name: C#2
Note ON: Time 105960, Note Name: C4, Velocity: 19
Note OFF: Time 106080, Note Name: C4
Note ON: Time 106080, Note Name: D#3, Velocity: 19
Note OFF: Time 106200, Note Name: D#3
Note ON: Time 106200, Note Name: C4, Velocity: 19
Note OFF: Time 106320, Note Name: C4
Note ON: Time 106320, Note Name: F#3, Velocity: 19
Note OFF: Time 106440, Note Name: F#3
Note ON: Time 106440, Note Name: G#2, Velocity: 19
Note OFF: Time 106560, Note Name: G#2
Note ON: Time 106560, Note Name: C#2, Velocity: 22
Note OFF: Time 106680, Note Name: C#2
Note ON: Time 106680, Note Name: C#4, Velocity: 18
Note OFF: Time 106800, Note Name: C#4
Note ON: Time 106800, Note Name: C#3, Velocity: 18
Note OFF: Time 106920, Note Name: C#3
Note ON: Time 106920, Note Name: C#4, Velocity: 18
Note OFF: Time 107040, Note Name: C#4
Note ON: Time 107040, Note Name: F3, Velocity: 18
Note OFF: Time 107160, Note Name: F3
Note ON: Time 107160, Note Name: G#2, Velocity: 18
Note OFF: Time 107280, Note Name: G#2
Note ON: Time 107280, Note Name: C#2, Velocity: 22
Note OFF: Time 107400, Note Name: C#2
Note ON: Time 107400, Note Name: C#4, Velocity: 18
Note OFF: Time 107520, Note Name: C#4
Note ON: Time 107520, Note Name: C#3, Velocity: 18
Note OFF: Time 107640, Note Name: C#3
Note ON: Time 107640, Note Name: C#4, Velocity: 18
Note OFF: Time 107760, Note Name: C#4
Note ON: Time 107760, Note Name: F3, Velocity: 18
Note OFF: Time 107880, Note Name: F3
Note ON: Time 107880, Note Name: G#2, Velocity: 18
Note OFF: Time 108000, Note Name: G#2
Note ON: Time 108000, Note Name: C#2, Velocity: 22
Note OFF: Time 108120, Note Name: C#2
Note ON: Time 108120, Note Name: C#4, Velocity: 18
Note OFF: Time 108240, Note Name: C#4
Note ON: Time 108240, Note Name: C#3, Velocity: 18
Note OFF: Time 108360, Note Name: C#3
Note ON: Time 108360, Note Name: C#4, Velocity: 18
Note OFF: Time 108480, Note Name: C#4
Note ON: Time 108480, Note Name: F3, Velocity: 18
Note OFF: Time 108600, Note Name: F3
Note ON: Time 108600, Note Name: G#2, Velocity: 18
Note OFF: Time 108720, Note Name: G#2
Note ON: Time 108720, Note Name: C#2, Velocity: 22
Note OFF: Time 108840, Note Name: C#2
Note ON: Time 108840, Note Name: C#4, Velocity: 18
Note OFF: Time 108960, Note Name: C#4
Note ON: Time 108960, Note Name: C#3, Velocity: 18
Note OFF: Time 109080, Note Name: C#3
Note ON: Time 109080, Note Name: C#4, Velocity: 18
Note OFF: Time 109200, Note Name: C#4
Note ON: Time 109200, Note Name: F3, Velocity: 18
Note OFF: Time 109320, Note Name: F3
Note ON: Time 109320, Note Name: G#2, Velocity: 18
Note OFF: Time 109440, Note Name: G#2
Note ON: Time 109440, Note Name: C#2, Velocity: 17
Note OFF: Time 109920, Note Name: C#2
Note ON: Time 110160, Note Name: G#2, Velocity: 16
Note ON: Time 110160, Note Name: G#3, Velocity: 20
Note OFF: Time 110880, Note Name: G#3
Note OFF: Time 110880, Note Name: G#2
Note ON: Time 110880, Note Name: C#3, Velocity: 16
Note ON: Time 110880, Note Name: G#3, Velocity: 20
Note OFF: Time 112320, Note Name: G#3
Note OFF: Time 112320, Note Name: C#3
Track 3: Chopin:  Nocturne Op. 27 Nr. 2
Track 4: Copyright  2003 by Bernd Krueger
Track 5: http://www.piano-midi.de
Track 6: Edition: 2014-02-19
Track 7: Spur 7
