Processing chpn-p11.mid...

Track 0: Prelude No. 11
Track 1: Piano right
Note ON: Time 4, Note Name: F#5, Velocity: 55
Note ON: Time 1440, Note Name: F5, Velocity: 48
Note OFF: Time 1444, Note Name: F#5
Note OFF: Time 1680, Note Name: F5
Note ON: Time 1680, Note Name: F#5, Velocity: 53
Note OFF: Time 1920, Note Name: F#5
Note ON: Time 1920, Note Name: G#5, Velocity: 57
Note OFF: Time 2160, Note Name: G#5
Note ON: Time 2160, Note Name: F#5, Velocity: 55
Note OFF: Time 2400, Note Name: F#5
Note ON: Time 2400, Note Name: E5, Velocity: 52
Note OFF: Time 2640, Note Name: E5
Note ON: Time 2640, Note Name: D#5, Velocity: 49
Note OFF: Time 2880, Note Name: D#5
Note ON: Time 2880, Note Name: E4, Velocity: 39
Note ON: Time 2880, Note Name: C#5, Velocity: 47
Note OFF: Time 3120, Note Name: C#5
Note OFF: Time 3120, Note Name: E4
Note ON: Time 3120, Note Name: F#4, Velocity: 40
Note OFF: Time 3240, Note Name: F#4
Note ON: Time 3240, Note Name: A#4, Velocity: 36
Note OFF: Time 3360, Note Name: A#4
Note ON: Time 3360, Note Name: G#4, Velocity: 46
Note OFF: Time 3600, Note Name: G#4
Note ON: Time 3600, Note Name: F#4, Velocity: 42
Note OFF: Time 3816, Note Name: F#4
Note ON: Time 3840, Note Name: F#4, Velocity: 41
Note OFF: Time 4080, Note Name: F#4
Note ON: Time 4080, Note Name: D#5, Velocity: 41
Note OFF: Time 4320, Note Name: D#5
Note ON: Time 4320, Note Name: E4, Velocity: 39
Note ON: Time 4320, Note Name: C#5, Velocity: 47
Note OFF: Time 4560, Note Name: C#5
Note OFF: Time 4560, Note Name: E4
Note ON: Time 4560, Note Name: F#4, Velocity: 44
Note OFF: Time 4680, Note Name: F#4
Note ON: Time 4680, Note Name: A#4, Velocity: 33
Note OFF: Time 4800, Note Name: A#4
Note ON: Time 4800, Note Name: G#4, Velocity: 45
Note OFF: Time 5040, Note Name: G#4
Note ON: Time 5040, Note Name: F#4, Velocity: 43
Note OFF: Time 5256, Note Name: F#4
Note ON: Time 5280, Note Name: F#4, Velocity: 43
Note OFF: Time 5520, Note Name: F#4
Note ON: Time 5520, Note Name: D#5, Velocity: 43
Note OFF: Time 5760, Note Name: D#5
Note ON: Time 5760, Note Name: E4, Velocity: 40
Note ON: Time 5760, Note Name: C#5, Velocity: 48
Note OFF: Time 6000, Note Name: C#5
Note OFF: Time 6000, Note Name: E4
Note ON: Time 6000, Note Name: F#4, Velocity: 52
Note OFF: Time 6240, Note Name: F#4
Note ON: Time 6240, Note Name: D#4, Velocity: 59
Note ON: Time 6240, Note Name: B4, Velocity: 59
Note OFF: Time 6480, Note Name: B4
Note OFF: Time 6480, Note Name: D#4
Note ON: Time 6480, Note Name: F#4, Velocity: 56
Note OFF: Time 6720, Note Name: F#4
Note ON: Time 6720, Note Name: B4, Velocity: 51
Note ON: Time 6720, Note Name: D#5, Velocity: 60
Note OFF: Time 6960, Note Name: D#5
Note OFF: Time 6960, Note Name: B4
Note ON: Time 6960, Note Name: F#4, Velocity: 56
Note OFF: Time 7200, Note Name: F#4
Note ON: Time 7200, Note Name: B4, Velocity: 45
Note ON: Time 7200, Note Name: F5, Velocity: 53
Note OFF: Time 7440, Note Name: F5
Note OFF: Time 7440, Note Name: B4
Note ON: Time 7440, Note Name: F#4, Velocity: 47
Note ON: Time 7440, Note Name: F#5, Velocity: 56
Note OFF: Time 7680, Note Name: F#5
Note OFF: Time 7680, Note Name: F#4
Note ON: Time 7680, Note Name: G#5, Velocity: 62
Note ON: Time 7680, Note Name: B4, Velocity: 52
Note OFF: Time 7920, Note Name: B4
Note OFF: Time 7920, Note Name: G#5
Note ON: Time 7920, Note Name: F#4, Velocity: 48
Note ON: Time 7920, Note Name: F#5, Velocity: 57
Note OFF: Time 8160, Note Name: F#5
Note OFF: Time 8160, Note Name: F#4
Note ON: Time 8160, Note Name: B4, Velocity: 46
Note ON: Time 8160, Note Name: E5, Velocity: 55
Note OFF: Time 8400, Note Name: E5
Note OFF: Time 8400, Note Name: B4
Note ON: Time 8400, Note Name: F#4, Velocity: 45
Note ON: Time 8400, Note Name: D#5, Velocity: 53
Note OFF: Time 8640, Note Name: D#5
Note OFF: Time 8640, Note Name: F#4
Note ON: Time 8640, Note Name: E4, Velocity: 48
Note ON: Time 8640, Note Name: C#5, Velocity: 57
Note OFF: Time 8880, Note Name: C#5
Note OFF: Time 8880, Note Name: E4
Note ON: Time 8880, Note Name: F#4, Velocity: 56
Note OFF: Time 9000, Note Name: F#4
Note ON: Time 9000, Note Name: A#4, Velocity: 43
Note OFF: Time 9120, Note Name: A#4
Note ON: Time 9120, Note Name: G#4, Velocity: 55
Note OFF: Time 9360, Note Name: G#4
Note ON: Time 9360, Note Name: F#4, Velocity: 52
Note OFF: Time 9576, Note Name: F#4
Note ON: Time 9600, Note Name: F#4, Velocity: 52
Note OFF: Time 9840, Note Name: F#4
Note ON: Time 9840, Note Name: D#5, Velocity: 52
Note OFF: Time 10080, Note Name: D#5
Note ON: Time 10080, Note Name: E4, Velocity: 49
Note ON: Time 10080, Note Name: C#5, Velocity: 58
Note OFF: Time 10320, Note Name: C#5
Note OFF: Time 10320, Note Name: E4
Note ON: Time 10320, Note Name: F#4, Velocity: 55
Note OFF: Time 10440, Note Name: F#4
Note ON: Time 10440, Note Name: A#4, Velocity: 41
Note OFF: Time 10560, Note Name: A#4
Note ON: Time 10560, Note Name: G#4, Velocity: 52
Note OFF: Time 10800, Note Name: G#4
Note ON: Time 10800, Note Name: F#4, Velocity: 51
Note OFF: Time 11016, Note Name: F#4
Note ON: Time 11040, Note Name: F#4, Velocity: 51
Note OFF: Time 11280, Note Name: F#4
Note ON: Time 11280, Note Name: D#5, Velocity: 51
Note OFF: Time 11520, Note Name: D#5
Note ON: Time 11520, Note Name: E4, Velocity: 51
Note ON: Time 11520, Note Name: C#5, Velocity: 61
Note OFF: Time 11760, Note Name: C#5
Note OFF: Time 11760, Note Name: E4
Note ON: Time 11760, Note Name: F#4, Velocity: 56
Note OFF: Time 12000, Note Name: F#4
Note ON: Time 12000, Note Name: D#4, Velocity: 54
Note ON: Time 12000, Note Name: B4, Velocity: 64
Note OFF: Time 12240, Note Name: B4
Note OFF: Time 12240, Note Name: D#4
Note ON: Time 12240, Note Name: F#4, Velocity: 59
Note OFF: Time 12480, Note Name: F#4
Note ON: Time 12480, Note Name: B4, Velocity: 56
Note ON: Time 12480, Note Name: D#5, Velocity: 67
Note OFF: Time 12720, Note Name: D#5
Note OFF: Time 12720, Note Name: B4
Note ON: Time 12720, Note Name: F#4, Velocity: 62
Note OFF: Time 12960, Note Name: F#4
Note ON: Time 12960, Note Name: B4, Velocity: 59
Note ON: Time 12960, Note Name: F#5, Velocity: 70
Note OFF: Time 13200, Note Name: F#5
Note OFF: Time 13200, Note Name: B4
Note ON: Time 13200, Note Name: F#4, Velocity: 66
Note OFF: Time 13440, Note Name: F#4
Note ON: Time 13440, Note Name: G5, Velocity: 74
Note ON: Time 13440, Note Name: B4, Velocity: 62
Note OFF: Time 13680, Note Name: B4
Note OFF: Time 13680, Note Name: G5
Note ON: Time 13680, Note Name: G4, Velocity: 69
Note OFF: Time 13920, Note Name: G4
Note ON: Time 13920, Note Name: G#5, Velocity: 76
Note ON: Time 13920, Note Name: B4, Velocity: 64
Note OFF: Time 14160, Note Name: B4
Note OFF: Time 14160, Note Name: G#5
Note ON: Time 14160, Note Name: G#4, Velocity: 70
Note OFF: Time 14400, Note Name: G#4
Note ON: Time 14400, Note Name: D#5, Velocity: 64
Note ON: Time 14400, Note Name: B5, Velocity: 76
Note OFF: Time 14640, Note Name: B5
Note OFF: Time 14640, Note Name: D#5
Note ON: Time 14640, Note Name: D#5, Velocity: 66
Note OFF: Time 14760, Note Name: D#5
Note ON: Time 14760, Note Name: F#5, Velocity: 46
Note OFF: Time 14880, Note Name: F#5
Note ON: Time 14880, Note Name: E5, Velocity: 70
Note OFF: Time 15120, Note Name: E5
Note ON: Time 15120, Note Name: D#5, Velocity: 66
Note OFF: Time 15360, Note Name: D#5
Note ON: Time 15360, Note Name: B4, Velocity: 69
Note OFF: Time 15600, Note Name: B4
Note ON: Time 15600, Note Name: B5, Velocity: 57
Note ON: Time 15600, Note Name: G#5, Velocity: 48
Note OFF: Time 15840, Note Name: G#5
Note OFF: Time 15840, Note Name: B5
Note ON: Time 15840, Note Name: F#5, Velocity: 54
Note ON: Time 15840, Note Name: A#5, Velocity: 64
Note OFF: Time 16080, Note Name: A#5
Note OFF: Time 16080, Note Name: F#5
Note ON: Time 16080, Note Name: D#5, Velocity: 65
Note OFF: Time 16320, Note Name: D#5
Note ON: Time 16320, Note Name: A#4, Velocity: 65
Note OFF: Time 16440, Note Name: A#4
Note ON: Time 16440, Note Name: C#5, Velocity: 47
Note OFF: Time 16560, Note Name: C#5
Note ON: Time 16560, Note Name: B4, Velocity: 65
Note OFF: Time 16800, Note Name: B4
Note ON: Time 16800, Note Name: A#4, Velocity: 63
Note OFF: Time 17040, Note Name: A#4
Note ON: Time 17040, Note Name: F#5, Velocity: 57
Note ON: Time 17040, Note Name: D#5, Velocity: 48
Note OFF: Time 17280, Note Name: D#5
Note OFF: Time 17280, Note Name: F#5
Note ON: Time 17280, Note Name: B4, Velocity: 60
Note ON: Time 17280, Note Name: G#4, Velocity: 60
Note OFF: Time 17520, Note Name: G#4
Note ON: Time 17520, Note Name: E4, Velocity: 58
Note OFF: Time 17640, Note Name: E4
Note ON: Time 17640, Note Name: G#4, Velocity: 48
Note OFF: Time 17760, Note Name: G#4
Note ON: Time 17760, Note Name: F#4, Velocity: 63
Note OFF: Time 18000, Note Name: F#4
Note ON: Time 18000, Note Name: E4, Velocity: 54
Note OFF: Time 18240, Note Name: E4
Note ON: Time 18240, Note Name: G#4, Velocity: 57
Note OFF: Time 18480, Note Name: B4
Note ON: Time 18480, Note Name: C#5, Velocity: 59
Note OFF: Time 18720, Note Name: C#5
Note OFF: Time 18720, Note Name: G#4
Note ON: Time 18720, Note Name: B4, Velocity: 61
Note ON: Time 18720, Note Name: D#5, Velocity: 61
Note OFF: Time 18960, Note Name: B4
Note ON: Time 18960, Note Name: D#4, Velocity: 51
Note OFF: Time 19200, Note Name: D#4
Note ON: Time 19200, Note Name: F#4, Velocity: 51
Note OFF: Time 19440, Note Name: F#4
Note ON: Time 19440, Note Name: D#4, Velocity: 55
Note OFF: Time 19680, Note Name: D#4
Note ON: Time 19680, Note Name: F#4, Velocity: 51
Note OFF: Time 19920, Note Name: F#4
Note ON: Time 19920, Note Name: G#4, Velocity: 49
Note OFF: Time 20160, Note Name: G#4
Note OFF: Time 20160, Note Name: D#5
Note ON: Time 20160, Note Name: E4, Velocity: 48
Note ON: Time 20160, Note Name: C#5, Velocity: 57
Note OFF: Time 20400, Note Name: C#5
Note OFF: Time 20400, Note Name: E4
Note ON: Time 20400, Note Name: F#4, Velocity: 52
Note OFF: Time 20520, Note Name: F#4
Note ON: Time 20520, Note Name: G#4, Velocity: 40
Note OFF: Time 20580, Note Name: G#4
Note ON: Time 20580, Note Name: A#4, Velocity: 40
Note OFF: Time 20640, Note Name: A#4
Note ON: Time 20640, Note Name: G#4, Velocity: 50
Note OFF: Time 20880, Note Name: G#4
Note ON: Time 20880, Note Name: F#4, Velocity: 49
Note OFF: Time 21096, Note Name: F#4
Note ON: Time 21120, Note Name: F#4, Velocity: 49
Note OFF: Time 21360, Note Name: F#4
Note ON: Time 21360, Note Name: D#5, Velocity: 49
Note OFF: Time 21600, Note Name: D#5
Note ON: Time 21600, Note Name: E4, Velocity: 45
Note ON: Time 21600, Note Name: C#5, Velocity: 54
Note OFF: Time 21840, Note Name: C#5
Note OFF: Time 21840, Note Name: E4
Note ON: Time 21840, Note Name: F#4, Velocity: 51
Note OFF: Time 21960, Note Name: F#4
Note ON: Time 21960, Note Name: G#4, Velocity: 40
Note OFF: Time 22020, Note Name: G#4
Note ON: Time 22020, Note Name: A#4, Velocity: 40
Note OFF: Time 22080, Note Name: A#4
Note ON: Time 22080, Note Name: G#4, Velocity: 48
Note OFF: Time 22320, Note Name: G#4
Note ON: Time 22320, Note Name: F#4, Velocity: 47
Note OFF: Time 22536, Note Name: F#4
Note ON: Time 22560, Note Name: F#4, Velocity: 47
Note OFF: Time 22800, Note Name: F#4
Note ON: Time 22800, Note Name: D#5, Velocity: 47
Note OFF: Time 23040, Note Name: D#5
Note ON: Time 23040, Note Name: E4, Velocity: 43
Note ON: Time 23040, Note Name: C#5, Velocity: 51
Note OFF: Time 23280, Note Name: C#5
Note OFF: Time 23280, Note Name: E4
Note ON: Time 23280, Note Name: F#4, Velocity: 45
Note OFF: Time 23520, Note Name: F#4
Note ON: Time 23520, Note Name: D#4, Velocity: 44
Note ON: Time 23520, Note Name: B4, Velocity: 52
Note OFF: Time 23760, Note Name: B4
Note OFF: Time 23760, Note Name: D#4
Note ON: Time 23760, Note Name: F#4, Velocity: 47
Note OFF: Time 24000, Note Name: F#4
Note ON: Time 24000, Note Name: B4, Velocity: 44
Note ON: Time 24000, Note Name: D#5, Velocity: 52
Note OFF: Time 24240, Note Name: D#5
Note OFF: Time 24240, Note Name: B4
Note ON: Time 24240, Note Name: F#4, Velocity: 48
Note OFF: Time 24480, Note Name: F#4
Note ON: Time 24480, Note Name: B4, Velocity: 44
Note ON: Time 24480, Note Name: F5, Velocity: 44
Note OFF: Time 24720, Note Name: F5
Note OFF: Time 24720, Note Name: B4
Note ON: Time 24720, Note Name: F#4, Velocity: 34
Note ON: Time 24720, Note Name: F#5, Velocity: 40
Note OFF: Time 24960, Note Name: F#5
Note OFF: Time 24960, Note Name: F#4
Note ON: Time 24960, Note Name: B4, Velocity: 37
Note ON: Time 24960, Note Name: G#5, Velocity: 44
Note OFF: Time 25200, Note Name: G#5
Note OFF: Time 25200, Note Name: B4
Note ON: Time 25200, Note Name: F#4, Velocity: 34
Note ON: Time 25200, Note Name: F#5, Velocity: 40
Note OFF: Time 25440, Note Name: F#5
Note OFF: Time 25440, Note Name: F#4
Note ON: Time 25440, Note Name: B4, Velocity: 32
Note ON: Time 25440, Note Name: E5, Velocity: 38
Note OFF: Time 25680, Note Name: E5
Note OFF: Time 25680, Note Name: B4
Note ON: Time 25680, Note Name: F#4, Velocity: 32
Note ON: Time 25680, Note Name: D#5, Velocity: 38
Note OFF: Time 25920, Note Name: D#5
Note OFF: Time 25920, Note Name: F#4
Note ON: Time 25920, Note Name: E4, Velocity: 39
Note ON: Time 25920, Note Name: C#5, Velocity: 46
Note OFF: Time 26160, Note Name: C#5
Note OFF: Time 26160, Note Name: E4
Note ON: Time 26160, Note Name: F#4, Velocity: 47
Note OFF: Time 26280, Note Name: F#4
Note ON: Time 26280, Note Name: G#4, Velocity: 32
Note OFF: Time 26340, Note Name: G#4
Note ON: Time 26340, Note Name: A#4, Velocity: 32
Note OFF: Time 26400, Note Name: A#4
Note ON: Time 26400, Note Name: G#4, Velocity: 44
Note OFF: Time 26640, Note Name: G#4
Note ON: Time 26640, Note Name: F#4, Velocity: 44
Note OFF: Time 26856, Note Name: F#4
Note ON: Time 26880, Note Name: F#4, Velocity: 44
Note OFF: Time 27120, Note Name: F#4
Note ON: Time 27120, Note Name: D#5, Velocity: 44
Note OFF: Time 27360, Note Name: D#5
Note ON: Time 27360, Note Name: E4, Velocity: 42
Note ON: Time 27360, Note Name: C#5, Velocity: 50
Note OFF: Time 27600, Note Name: C#5
Note OFF: Time 27600, Note Name: E4
Note ON: Time 27600, Note Name: F#4, Velocity: 47
Note OFF: Time 27720, Note Name: F#4
Note ON: Time 27720, Note Name: G#4, Velocity: 31
Note OFF: Time 27780, Note Name: G#4
Note ON: Time 27780, Note Name: A#4, Velocity: 31
Note OFF: Time 27840, Note Name: A#4
Note ON: Time 27840, Note Name: G#4, Velocity: 43
Note OFF: Time 28080, Note Name: G#4
Note ON: Time 28080, Note Name: F#4, Velocity: 43
Note OFF: Time 28296, Note Name: F#4
Note ON: Time 28320, Note Name: F#4, Velocity: 43
Note OFF: Time 28560, Note Name: F#4
Note ON: Time 28560, Note Name: F#5, Velocity: 43
Note ON: Time 28740, Note Name: D#4, Velocity: 50
Note OFF: Time 28800, Note Name: F#5
Note ON: Time 28800, Note Name: F#5, Velocity: 53
Note OFF: Time 30240, Note Name: F#5
Note OFF: Time 30240, Note Name: D#4
Note ON: Time 30240, Note Name: F5, Velocity: 58
Note OFF: Time 30480, Note Name: F5
Note ON: Time 30480, Note Name: F#5, Velocity: 60
Note OFF: Time 30720, Note Name: F#5
Note ON: Time 30720, Note Name: G#5, Velocity: 63
Note OFF: Time 30960, Note Name: G#5
Note ON: Time 30960, Note Name: F#5, Velocity: 60
Note OFF: Time 31200, Note Name: F#5
Note ON: Time 31200, Note Name: E5, Velocity: 58
Note OFF: Time 31440, Note Name: E5
Note ON: Time 31440, Note Name: D#5, Velocity: 54
Note OFF: Time 31680, Note Name: D#5
Note ON: Time 31680, Note Name: D#5, Velocity: 51
Note OFF: Time 32400, Note Name: D#5
Note ON: Time 32400, Note Name: G4, Velocity: 38
Note ON: Time 32400, Note Name: D5, Velocity: 45
Note OFF: Time 32640, Note Name: D5
Note OFF: Time 32640, Note Name: G4
Note ON: Time 32640, Note Name: D#5, Velocity: 50
Note OFF: Time 32880, Note Name: D#5
Note ON: Time 32880, Note Name: E5, Velocity: 50
Note OFF: Time 33120, Note Name: E5
Note ON: Time 33120, Note Name: G#4, Velocity: 37
Note ON: Time 33120, Note Name: D#5, Velocity: 44
Note OFF: Time 33360, Note Name: D#5
Note ON: Time 33360, Note Name: C#5, Velocity: 51
Note OFF: Time 33600, Note Name: C#5
Note ON: Time 33600, Note Name: B4, Velocity: 49
Note OFF: Time 33840, Note Name: B4
Note OFF: Time 33840, Note Name: G#4
Note ON: Time 33840, Note Name: D#5, Velocity: 46
Note ON: Time 33840, Note Name: E4, Velocity: 39
Note OFF: Time 34080, Note Name: D#5
Note ON: Time 34080, Note Name: C#5, Velocity: 52
Note OFF: Time 34320, Note Name: C#5
Note ON: Time 34320, Note Name: B4, Velocity: 49
Note OFF: Time 34560, Note Name: B4
Note OFF: Time 34560, Note Name: E4
Note ON: Time 34560, Note Name: D#4, Velocity: 39
Note ON: Time 34560, Note Name: B4, Velocity: 46
Note OFF: Time 36000, Note Name: B4
Note OFF: Time 36000, Note Name: D#4
Note ON: Time 36000, Note Name: D#4, Velocity: 32
Note ON: Time 36000, Note Name: F#4, Velocity: 38
Note OFF: Time 37440, Note Name: F#4
Note OFF: Time 37440, Note Name: D#4
Note ON: Time 37440, Note Name: D#4, Velocity: 38
Note OFF: Time 38880, Note Name: D#4
Track 2: Piano left
Note ON: Time 2880, Note Name: A#3, Velocity: 33
Note OFF: Time 3120, Note Name: A#3
Note ON: Time 3120, Note Name: F#3, Velocity: 31
Note OFF: Time 3360, Note Name: F#3
Note ON: Time 3360, Note Name: C#3, Velocity: 34
Note OFF: Time 3600, Note Name: C#3
Note ON: Time 3600, Note Name: F#2, Velocity: 31
Note OFF: Time 3840, Note Name: F#2
Note ON: Time 3840, Note Name: C#3, Velocity: 33
Note OFF: Time 4080, Note Name: C#3
Note ON: Time 4080, Note Name: F#3, Velocity: 33
Note OFF: Time 4320, Note Name: F#3
Note ON: Time 4320, Note Name: A#3, Velocity: 36
Note OFF: Time 4560, Note Name: A#3
Note ON: Time 4560, Note Name: F#3, Velocity: 33
Note OFF: Time 4800, Note Name: F#3
Note ON: Time 4800, Note Name: C#3, Velocity: 33
Note OFF: Time 5040, Note Name: C#3
Note ON: Time 5040, Note Name: F#2, Velocity: 33
Note OFF: Time 5280, Note Name: F#2
Note ON: Time 5280, Note Name: C#3, Velocity: 33
Note OFF: Time 5520, Note Name: C#3
Note ON: Time 5520, Note Name: F#3, Velocity: 33
Note OFF: Time 5760, Note Name: F#3
Note ON: Time 5760, Note Name: B2, Velocity: 39
Note OFF: Time 6000, Note Name: B2
Note ON: Time 6000, Note Name: F#3, Velocity: 35
Note OFF: Time 6240, Note Name: F#3
Note ON: Time 6240, Note Name: B2, Velocity: 43
Note OFF: Time 6480, Note Name: B2
Note ON: Time 6480, Note Name: F#3, Velocity: 38
Note OFF: Time 6720, Note Name: F#3
Note ON: Time 6720, Note Name: D#3, Velocity: 44
Note OFF: Time 6960, Note Name: D#3
Note ON: Time 6960, Note Name: B3, Velocity: 40
Note OFF: Time 7200, Note Name: B3
Note ON: Time 7200, Note Name: D#4, Velocity: 32
Note OFF: Time 7440, Note Name: D#4
Note ON: Time 7440, Note Name: F#3, Velocity: 33
Note OFF: Time 7680, Note Name: F#3
Note ON: Time 7680, Note Name: B3, Velocity: 39
Note OFF: Time 7920, Note Name: B3
Note ON: Time 7920, Note Name: D#3, Velocity: 33
Note OFF: Time 8160, Note Name: D#3
Note ON: Time 8160, Note Name: F#3, Velocity: 36
Note OFF: Time 8400, Note Name: F#3
Note ON: Time 8400, Note Name: B2, Velocity: 33
Note OFF: Time 8640, Note Name: B2
Note ON: Time 8640, Note Name: A#3, Velocity: 40
Note OFF: Time 8880, Note Name: A#3
Note ON: Time 8880, Note Name: F#3, Velocity: 37
Note OFF: Time 9120, Note Name: F#3
Note ON: Time 9120, Note Name: C#3, Velocity: 40
Note OFF: Time 9360, Note Name: C#3
Note ON: Time 9360, Note Name: F#2, Velocity: 36
Note OFF: Time 9600, Note Name: F#2
Note ON: Time 9600, Note Name: C#3, Velocity: 36
Note OFF: Time 9840, Note Name: C#3
Note ON: Time 9840, Note Name: F#3, Velocity: 36
Note OFF: Time 10080, Note Name: F#3
Note ON: Time 10080, Note Name: A#3, Velocity: 40
Note OFF: Time 10320, Note Name: A#3
Note ON: Time 10320, Note Name: F#3, Velocity: 34
Note OFF: Time 10560, Note Name: F#3
Note ON: Time 10560, Note Name: C#3, Velocity: 38
Note OFF: Time 10800, Note Name: C#3
Note ON: Time 10800, Note Name: F#2, Velocity: 35
Note OFF: Time 11040, Note Name: F#2
Note ON: Time 11040, Note Name: C#3, Velocity: 38
Note OFF: Time 11280, Note Name: C#3
Note ON: Time 11280, Note Name: F#3, Velocity: 32
Note OFF: Time 11520, Note Name: F#3
Note ON: Time 11520, Note Name: B2, Velocity: 41
Note OFF: Time 11760, Note Name: B2
Note ON: Time 11760, Note Name: F#3, Velocity: 37
Note OFF: Time 12000, Note Name: F#3
Note ON: Time 12000, Note Name: B2, Velocity: 45
Note OFF: Time 12240, Note Name: B2
Note ON: Time 12240, Note Name: F#3, Velocity: 36
Note OFF: Time 12480, Note Name: F#3
Note ON: Time 12480, Note Name: D#3, Velocity: 48
Note OFF: Time 12720, Note Name: D#3
Note ON: Time 12720, Note Name: B3, Velocity: 39
Note OFF: Time 12960, Note Name: B3
Note ON: Time 12960, Note Name: D#4, Velocity: 48
Note OFF: Time 13200, Note Name: D#4
Note ON: Time 13200, Note Name: F#3, Velocity: 39
Note OFF: Time 13440, Note Name: F#3
Note ON: Time 13440, Note Name: C#4, Velocity: 52
Note OFF: Time 13680, Note Name: C#4
Note ON: Time 13680, Note Name: E3, Velocity: 48
Note OFF: Time 13920, Note Name: E3
Note ON: Time 13920, Note Name: B3, Velocity: 53
Note OFF: Time 14160, Note Name: B3
Note ON: Time 14160, Note Name: D#3, Velocity: 49
Note OFF: Time 14400, Note Name: D#3
Note ON: Time 14400, Note Name: G#2, Velocity: 54
Note OFF: Time 14640, Note Name: G#2
Note ON: Time 14640, Note Name: D#3, Velocity: 47
Note OFF: Time 14880, Note Name: D#3
Note ON: Time 14880, Note Name: D#4, Velocity: 54
Note OFF: Time 15120, Note Name: D#4
Note ON: Time 15120, Note Name: G#3, Velocity: 47
Note OFF: Time 15360, Note Name: G#3
Note ON: Time 15360, Note Name: D#4, Velocity: 52
Note OFF: Time 15600, Note Name: D#4
Note ON: Time 15600, Note Name: B3, Velocity: 35
Note OFF: Time 15840, Note Name: B3
Note ON: Time 15840, Note Name: D#3, Velocity: 39
Note OFF: Time 16080, Note Name: D#3
Note ON: Time 16080, Note Name: F#4, Velocity: 44
Note OFF: Time 16320, Note Name: F#4
Note ON: Time 16320, Note Name: A#3, Velocity: 49
Note OFF: Time 16560, Note Name: A#3
Note ON: Time 16560, Note Name: F#3, Velocity: 40
Note OFF: Time 16800, Note Name: F#3
Note ON: Time 16800, Note Name: D#4, Velocity: 47
Note OFF: Time 17040, Note Name: D#4
Note ON: Time 17040, Note Name: A#3, Velocity: 49
Note OFF: Time 17280, Note Name: A#3
Note ON: Time 17280, Note Name: E2, Velocity: 53
Note OFF: Time 17520, Note Name: E2
Note ON: Time 17520, Note Name: B3, Velocity: 38
Note OFF: Time 17760, Note Name: B3
Note ON: Time 17760, Note Name: B2, Velocity: 36
Note OFF: Time 18000, Note Name: B2
Note ON: Time 18000, Note Name: G#3, Velocity: 35
Note OFF: Time 18240, Note Name: G#3
Note ON: Time 18240, Note Name: B3, Velocity: 37
Note OFF: Time 18480, Note Name: B3
Note ON: Time 18480, Note Name: E3, Velocity: 42
Note OFF: Time 18720, Note Name: E3
Note ON: Time 18720, Note Name: B2, Velocity: 40
Note OFF: Time 18960, Note Name: B2
Note ON: Time 18960, Note Name: F3, Velocity: 40
Note OFF: Time 19200, Note Name: F3
Note ON: Time 19200, Note Name: F#3, Velocity: 47
Note OFF: Time 19440, Note Name: F#3
Note ON: Time 19440, Note Name: C#4, Velocity: 48
Note OFF: Time 19680, Note Name: C#4
Note ON: Time 19680, Note Name: B3, Velocity: 43
Note OFF: Time 19920, Note Name: B3
Note ON: Time 19920, Note Name: G#3, Velocity: 35
Note OFF: Time 20160, Note Name: G#3
Note ON: Time 20160, Note Name: A#3, Velocity: 38
Note OFF: Time 20400, Note Name: A#3
Note ON: Time 20400, Note Name: F#3, Velocity: 31
Note OFF: Time 20640, Note Name: F#3
Note ON: Time 20640, Note Name: C#3, Velocity: 36
Note OFF: Time 20880, Note Name: C#3
Note ON: Time 20880, Note Name: F#2, Velocity: 30
Note OFF: Time 21120, Note Name: F#2
Note ON: Time 21120, Note Name: C#3, Velocity: 34
Note OFF: Time 21360, Note Name: C#3
Note ON: Time 21360, Note Name: F#3, Velocity: 34
Note OFF: Time 21600, Note Name: F#3
Note ON: Time 21600, Note Name: A#3, Velocity: 36
Note OFF: Time 21840, Note Name: A#3
Note ON: Time 21840, Note Name: F#3, Velocity: 33
Note OFF: Time 22080, Note Name: F#3
Note ON: Time 22080, Note Name: C#3, Velocity: 35
Note OFF: Time 22320, Note Name: C#3
Note ON: Time 22320, Note Name: F#2, Velocity: 31
Note OFF: Time 22560, Note Name: F#2
Note ON: Time 22560, Note Name: C#3, Velocity: 32
Note OFF: Time 22800, Note Name: C#3
Note ON: Time 22800, Note Name: F#3, Velocity: 30
Note OFF: Time 23040, Note Name: F#3
Note ON: Time 23040, Note Name: B1, Velocity: 35
Note OFF: Time 23280, Note Name: B1
Note ON: Time 23280, Note Name: F#2, Velocity: 32
Note OFF: Time 23520, Note Name: F#2
Note ON: Time 23520, Note Name: B2, Velocity: 36
Note OFF: Time 23760, Note Name: B2
Note ON: Time 23760, Note Name: F#3, Velocity: 31
Note OFF: Time 24000, Note Name: F#3
Note ON: Time 24000, Note Name: D#3, Velocity: 37
Note OFF: Time 24240, Note Name: D#3
Note ON: Time 24240, Note Name: B3, Velocity: 33
Note OFF: Time 24480, Note Name: B3
Note ON: Time 24480, Note Name: D4, Velocity: 27
Note OFF: Time 24720, Note Name: D4
Note ON: Time 24720, Note Name: D#4, Velocity: 27
Note OFF: Time 24960, Note Name: D#4
Note ON: Time 24960, Note Name: E4, Velocity: 29
Note OFF: Time 25200, Note Name: E4
Note ON: Time 25200, Note Name: D#4, Velocity: 27
Note OFF: Time 25440, Note Name: D#4
Note ON: Time 25440, Note Name: C#4, Velocity: 30
Note OFF: Time 25680, Note Name: C#4
Note ON: Time 25680, Note Name: B3, Velocity: 29
Note OFF: Time 25920, Note Name: B3
Note ON: Time 25920, Note Name: A#3, Velocity: 36
Note OFF: Time 26160, Note Name: A#3
Note ON: Time 26400, Note Name: C#3, Velocity: 30
Note OFF: Time 26640, Note Name: C#3
Note ON: Time 26640, Note Name: F#2, Velocity: 30
Note OFF: Time 26880, Note Name: F#2
Note ON: Time 26880, Note Name: C#3, Velocity: 30
Note OFF: Time 27120, Note Name: C#3
Note ON: Time 27120, Note Name: F#3, Velocity: 30
Note OFF: Time 27360, Note Name: F#3
Note ON: Time 27360, Note Name: A#3, Velocity: 35
Note OFF: Time 27600, Note Name: A#3
Note ON: Time 27600, Note Name: F#3, Velocity: 29
Note OFF: Time 27840, Note Name: F#3
Note ON: Time 27840, Note Name: C#3, Velocity: 34
Note OFF: Time 28080, Note Name: C#3
Note ON: Time 28080, Note Name: F#2, Velocity: 31
Note OFF: Time 28320, Note Name: F#2
Note ON: Time 28320, Note Name: C#3, Velocity: 31
Note OFF: Time 28560, Note Name: C#3
Note ON: Time 28560, Note Name: A#3, Velocity: 34
Note OFF: Time 28800, Note Name: A#3
Note ON: Time 28800, Note Name: B2, Velocity: 33
Note ON: Time 28800, Note Name: F#3, Velocity: 33
Note OFF: Time 30240, Note Name: F#3
Note OFF: Time 30240, Note Name: B2
Note ON: Time 32400, Note Name: A#3, Velocity: 32
Note ON: Time 32400, Note Name: D#3, Velocity: 27
Note OFF: Time 33120, Note Name: D#3
Note OFF: Time 33120, Note Name: A#3
Note ON: Time 33120, Note Name: G#3, Velocity: 29
Note ON: Time 33120, Note Name: B3, Velocity: 35
Note OFF: Time 33840, Note Name: B3
Note OFF: Time 33840, Note Name: G#3
Note ON: Time 33840, Note Name: F#3, Velocity: 29
Note ON: Time 33840, Note Name: A#3, Velocity: 35
Note OFF: Time 34560, Note Name: A#3
Note OFF: Time 34560, Note Name: F#3
Note ON: Time 34560, Note Name: F#3, Velocity: 32
Note ON: Time 34560, Note Name: B2, Velocity: 27
Note OFF: Time 36000, Note Name: B2
Note OFF: Time 36000, Note Name: F#3
Note ON: Time 36000, Note Name: B1, Velocity: 22
Note ON: Time 36000, Note Name: B2, Velocity: 26
Note ON: Time 36000, Note Name: F#3, Velocity: 26
Note OFF: Time 36720, Note Name: B2
Note OFF: Time 36720, Note Name: B1
Note ON: Time 36720, Note Name: F#2, Velocity: 26
Note ON: Time 36720, Note Name: F#1, Velocity: 22
Note OFF: Time 37440, Note Name: F#1
Note OFF: Time 37440, Note Name: F#2
Note OFF: Time 37440, Note Name: F#3
Note ON: Time 37440, Note Name: B3, Velocity: 26
Note ON: Time 37440, Note Name: B2, Velocity: 22
Note ON: Time 37440, Note Name: B1, Velocity: 22
Note ON: Time 37440, Note Name: F#3, Velocity: 26
Note OFF: Time 38880, Note Name: F#3
Note OFF: Time 38880, Note Name: B3
Note OFF: Time 38880, Note Name: B2
Note OFF: Time 38880, Note Name: B1
Track 3: Chopin: Prelude No.11 in B, Op. 28
Track 4: Copyright © 1997 by Bernd Krueger
Track 5: http://www.piano-midi.de
Track 6: Edition: 2014-02-20
