Processing chpn_op10_e12.mid...

Track 0: Opus 10 Nr. 12 Es-dur
Track 1: Piano right
Note ON: Time 4, Note Name: B5, Velocity: 103
Note ON: Time 4, Note Name: G5, Velocity: 94
Note ON: Time 4, Note Name: F5, Velocity: 94
Note ON: Time 4, Note Name: D5, Velocity: 94
Note ON: Time 4, Note Name: B4, Velocity: 94
Note OFF: Time 964, Note Name: B4
Note OFF: Time 964, Note Name: F5
Note OFF: Time 964, Note Name: B5
Note OFF: Time 964, Note Name: G5
Note OFF: Time 964, Note Name: D5
Note ON: Time 3360, Note Name: G#5, Velocity: 102
Note ON: Time 3360, Note Name: D#5, Velocity: 93
Note ON: Time 3360, Note Name: F5, Velocity: 93
Note ON: Time 3360, Note Name: G#4, Velocity: 93
Note OFF: Time 3720, Note Name: G#4
Note OFF: Time 3720, Note Name: G#5
Note OFF: Time 3720, Note Name: D#5
Note OFF: Time 3720, Note Name: F5
Note ON: Time 3720, Note Name: G4, Velocity: 87
Note ON: Time 3720, Note Name: G5, Velocity: 95
Note OFF: Time 3840, Note Name: G5
Note OFF: Time 3840, Note Name: G4
Note ON: Time 3840, Note Name: D6, Velocity: 106
Note ON: Time 3840, Note Name: F5, Velocity: 96
Note ON: Time 3840, Note Name: G5, Velocity: 96
Note ON: Time 3840, Note Name: D5, Velocity: 96
Note OFF: Time 4800, Note Name: D5
Note OFF: Time 4800, Note Name: D6
Note OFF: Time 4800, Note Name: F5
Note OFF: Time 4800, Note Name: G5
Note ON: Time 7200, Note Name: G#5, Velocity: 101
Note ON: Time 7200, Note Name: D#5, Velocity: 92
Note ON: Time 7200, Note Name: F5, Velocity: 92
Note ON: Time 7200, Note Name: G#4, Velocity: 92
Note OFF: Time 7560, Note Name: G#4
Note OFF: Time 7560, Note Name: G#5
Note OFF: Time 7560, Note Name: D#5
Note OFF: Time 7560, Note Name: F5
Note ON: Time 7560, Note Name: G4, Velocity: 88
Note ON: Time 7560, Note Name: G5, Velocity: 95
Note OFF: Time 7680, Note Name: G5
Note OFF: Time 7680, Note Name: G4
Note ON: Time 7680, Note Name: F5, Velocity: 96
Note ON: Time 7680, Note Name: F6, Velocity: 106
Note ON: Time 7680, Note Name: G5, Velocity: 96
Note ON: Time 7680, Note Name: D6, Velocity: 96
Note OFF: Time 7920, Note Name: D6
Note OFF: Time 7920, Note Name: F5
Note OFF: Time 7920, Note Name: F6
Note OFF: Time 7920, Note Name: G5
Note ON: Time 7922, Note Name: G#6, Velocity: 87
Note ON: Time 8035, Note Name: G6, Velocity: 80
Note OFF: Time 8054, Note Name: G#6
Note ON: Time 8155, Note Name: F6, Velocity: 87
Note OFF: Time 8167, Note Name: G6
Note ON: Time 8285, Note Name: D6, Velocity: 77
Note OFF: Time 8287, Note Name: F6
Note ON: Time 8398, Note Name: D#6, Velocity: 77
Note OFF: Time 8417, Note Name: D6
Note ON: Time 8518, Note Name: D6, Velocity: 76
Note OFF: Time 8530, Note Name: D#6
Note ON: Time 8641, Note Name: B5, Velocity: 87
Note OFF: Time 8650, Note Name: D6
Note ON: Time 8762, Note Name: G5, Velocity: 77
Note OFF: Time 8773, Note Name: B5
Note ON: Time 8884, Note Name: G#5, Velocity: 77
Note OFF: Time 8894, Note Name: G5
Note ON: Time 9002, Note Name: G5, Velocity: 76
Note OFF: Time 9016, Note Name: G#5
Note ON: Time 9120, Note Name: F5, Velocity: 87
Note OFF: Time 9134, Note Name: G5
Note ON: Time 9237, Note Name: D5, Velocity: 77
Note OFF: Time 9252, Note Name: F5
Note ON: Time 9363, Note Name: D#5, Velocity: 77
Note OFF: Time 9369, Note Name: D5
Note ON: Time 9480, Note Name: D5, Velocity: 76
Note OFF: Time 9495, Note Name: D#5
Note ON: Time 9600, Note Name: B4, Velocity: 87
Note OFF: Time 9612, Note Name: D5
Note ON: Time 9725, Note Name: G4, Velocity: 77
Note OFF: Time 9732, Note Name: B4
Note ON: Time 9843, Note Name: G#4, Velocity: 77
Note OFF: Time 9857, Note Name: G4
Note ON: Time 9956, Note Name: G4, Velocity: 76
Note OFF: Time 9975, Note Name: G#4
Note ON: Time 10081, Note Name: F4, Velocity: 87
Note OFF: Time 10088, Note Name: G4
Note ON: Time 10199, Note Name: D4, Velocity: 77
Note OFF: Time 10213, Note Name: F4
Note ON: Time 10323, Note Name: D#4, Velocity: 77
Note OFF: Time 10331, Note Name: D4
Note ON: Time 10441, Note Name: D4, Velocity: 76
Note OFF: Time 10455, Note Name: D#4
Note ON: Time 10561, Note Name: B3, Velocity: 87
Note OFF: Time 10573, Note Name: D4
Note ON: Time 10678, Note Name: G3, Velocity: 77
Note OFF: Time 10693, Note Name: B3
Note ON: Time 10796, Note Name: G#3, Velocity: 77
Note OFF: Time 10810, Note Name: G3
Note ON: Time 10917, Note Name: G3, Velocity: 76
Note OFF: Time 10928, Note Name: G#3
Note ON: Time 11039, Note Name: F3, Velocity: 87
Note OFF: Time 11049, Note Name: G3
Note ON: Time 11163, Note Name: D3, Velocity: 77
Note OFF: Time 11171, Note Name: F3
Note ON: Time 11280, Note Name: D#3, Velocity: 77
Note OFF: Time 11295, Note Name: D3
Note ON: Time 11405, Note Name: D3, Velocity: 76
Note OFF: Time 11412, Note Name: D#3
Note ON: Time 11523, Note Name: C3, Velocity: 69
Note OFF: Time 11537, Note Name: D3
Note ON: Time 11638, Note Name: B2, Velocity: 69
Note OFF: Time 11643, Note Name: C3
Note ON: Time 11756, Note Name: G3, Velocity: 73
Note OFF: Time 11758, Note Name: B2
Note OFF: Time 11876, Note Name: G3
Note ON: Time 11882, Note Name: F3, Velocity: 72
Note ON: Time 12000, Note Name: D#3, Velocity: 71
Note OFF: Time 12014, Note Name: F3
Note ON: Time 12115, Note Name: D3, Velocity: 70
Note OFF: Time 12132, Note Name: D#3
Note ON: Time 12242, Note Name: D#3, Velocity: 69
Note OFF: Time 12247, Note Name: D3
Note ON: Time 12360, Note Name: D3, Velocity: 69
Note OFF: Time 12374, Note Name: D#3
Note ON: Time 12476, Note Name: C3, Velocity: 69
Note OFF: Time 12492, Note Name: D3
Note ON: Time 12605, Note Name: B2, Velocity: 68
Note OFF: Time 12608, Note Name: C3
Note ON: Time 12716, Note Name: A#3, Velocity: 76
Note OFF: Time 12725, Note Name: B2
Note ON: Time 12844, Note Name: G#3, Velocity: 74
Note OFF: Time 12848, Note Name: A#3
Note ON: Time 12962, Note Name: G3, Velocity: 76
Note OFF: Time 12976, Note Name: G#3
Note ON: Time 13078, Note Name: F3, Velocity: 74
Note OFF: Time 13094, Note Name: G3
Note ON: Time 13199, Note Name: G3, Velocity: 74
Note OFF: Time 13210, Note Name: F3
Note ON: Time 13315, Note Name: F3, Velocity: 73
Note OFF: Time 13331, Note Name: G3
Note ON: Time 13445, Note Name: D#3, Velocity: 73
Note OFF: Time 13447, Note Name: F3
Note ON: Time 13562, Note Name: D3, Velocity: 73
Note OFF: Time 13577, Note Name: D#3
Note ON: Time 13676, Note Name: D#4, Velocity: 82
Note OFF: Time 13682, Note Name: D3
Note ON: Time 13804, Note Name: D4, Velocity: 83
Note OFF: Time 13808, Note Name: D#4
Note ON: Time 13924, Note Name: C4, Velocity: 84
Note OFF: Time 13936, Note Name: D4
Note ON: Time 14041, Note Name: B3, Velocity: 85
Note OFF: Time 14056, Note Name: C4
Note ON: Time 14157, Note Name: C4, Velocity: 85
Note OFF: Time 14173, Note Name: B3
Note ON: Time 14276, Note Name: B3, Velocity: 87
Note OFF: Time 14289, Note Name: C4
Note ON: Time 14403, Note Name: G#3, Velocity: 88
Note OFF: Time 14408, Note Name: B3
Note ON: Time 14520, Note Name: G3, Velocity: 89
Note OFF: Time 14535, Note Name: G#3
Note ON: Time 14636, Note Name: G#3, Velocity: 90
Note OFF: Time 14652, Note Name: G3
Note ON: Time 14760, Note Name: G3, Velocity: 89
Note OFF: Time 14768, Note Name: G#3
Note ON: Time 14883, Note Name: F3, Velocity: 92
Note OFF: Time 14892, Note Name: G3
Note ON: Time 14999, Note Name: D#3, Velocity: 94
Note OFF: Time 15015, Note Name: F3
Note ON: Time 15118, Note Name: F3, Velocity: 97
Note OFF: Time 15131, Note Name: D#3
Note ON: Time 15241, Note Name: D#3, Velocity: 102
Note OFF: Time 15250, Note Name: F3
Note ON: Time 15357, Note Name: C3, Velocity: 104
Note OFF: Time 15373, Note Name: D#3
Note OFF: Time 15597, Note Name: C3
Note ON: Time 18600, Note Name: C6, Velocity: 95
Note ON: Time 18600, Note Name: C5, Velocity: 87
Note ON: Time 18720, Note Name: D5, Velocity: 93
Note ON: Time 18720, Note Name: D6, Velocity: 102
Note OFF: Time 18730, Note Name: C5
Note OFF: Time 18730, Note Name: C6
Note ON: Time 19080, Note Name: D#5, Velocity: 97
Note ON: Time 19080, Note Name: D#6, Velocity: 107
Note OFF: Time 19090, Note Name: D5
Note OFF: Time 19090, Note Name: D6
Note OFF: Time 19200, Note Name: D#5
Note OFF: Time 19200, Note Name: D#6
Note ON: Time 19200, Note Name: D#5, Velocity: 104
Note ON: Time 19200, Note Name: D#6, Velocity: 114
Note OFF: Time 20160, Note Name: D#6
Note OFF: Time 20160, Note Name: D#5
Note ON: Time 20520, Note Name: C5, Velocity: 47
Note ON: Time 20520, Note Name: G4, Velocity: 47
Note ON: Time 20520, Note Name: D#5, Velocity: 47
Note ON: Time 20520, Note Name: G5, Velocity: 47
Note OFF: Time 20640, Note Name: G5
Note OFF: Time 20640, Note Name: C5
Note OFF: Time 20640, Note Name: G4
Note OFF: Time 20640, Note Name: D#5
Note ON: Time 20640, Note Name: G4, Velocity: 47
Note ON: Time 20640, Note Name: C5, Velocity: 47
Note ON: Time 20640, Note Name: D#5, Velocity: 47
Note ON: Time 20640, Note Name: G5, Velocity: 47
Note OFF: Time 21000, Note Name: G5
Note OFF: Time 21000, Note Name: G4
Note OFF: Time 21000, Note Name: C5
Note OFF: Time 21000, Note Name: D#5
Note ON: Time 21000, Note Name: G4, Velocity: 54
Note ON: Time 21000, Note Name: C5, Velocity: 54
Note ON: Time 21000, Note Name: D#5, Velocity: 54
Note ON: Time 21000, Note Name: G5, Velocity: 54
Note OFF: Time 21120, Note Name: G5
Note OFF: Time 21120, Note Name: G4
Note OFF: Time 21120, Note Name: C5
Note OFF: Time 21120, Note Name: D#5
Note ON: Time 21120, Note Name: G#5, Velocity: 55
Note ON: Time 21120, Note Name: C5, Velocity: 55
Note ON: Time 21120, Note Name: D#5, Velocity: 55
Note ON: Time 21120, Note Name: G#4, Velocity: 55
Note OFF: Time 22080, Note Name: G#4
Note OFF: Time 22080, Note Name: G#5
Note OFF: Time 22080, Note Name: C5
Note OFF: Time 22080, Note Name: D#5
Note ON: Time 22080, Note Name: G4, Velocity: 47
Note ON: Time 22080, Note Name: C5, Velocity: 47
Note ON: Time 22080, Note Name: D#5, Velocity: 47
Note ON: Time 22080, Note Name: G5, Velocity: 47
Note OFF: Time 22320, Note Name: G5
Note OFF: Time 22320, Note Name: G4
Note OFF: Time 22320, Note Name: C5
Note OFF: Time 22320, Note Name: D#5
Note ON: Time 22440, Note Name: C6, Velocity: 95
Note ON: Time 22440, Note Name: C5, Velocity: 87
Note ON: Time 22560, Note Name: D5, Velocity: 92
Note ON: Time 22560, Note Name: D6, Velocity: 101
Note OFF: Time 22570, Note Name: C5
Note OFF: Time 22570, Note Name: C6
Note ON: Time 22920, Note Name: D#5, Velocity: 97
Note ON: Time 22920, Note Name: D#6, Velocity: 107
Note OFF: Time 22930, Note Name: D5
Note OFF: Time 22930, Note Name: D6
Note OFF: Time 23040, Note Name: D#5
Note OFF: Time 23040, Note Name: D#6
Note ON: Time 23040, Note Name: D#5, Velocity: 103
Note ON: Time 23040, Note Name: D#6, Velocity: 113
Note OFF: Time 24000, Note Name: D#6
Note OFF: Time 24000, Note Name: D#5
Note ON: Time 24360, Note Name: G4, Velocity: 69
Note ON: Time 24360, Note Name: C5, Velocity: 69
Note ON: Time 24360, Note Name: D#5, Velocity: 69
Note ON: Time 24360, Note Name: G5, Velocity: 76
Note OFF: Time 24480, Note Name: G5
Note OFF: Time 24480, Note Name: G4
Note OFF: Time 24480, Note Name: C5
Note OFF: Time 24480, Note Name: D#5
Note ON: Time 24480, Note Name: G4, Velocity: 69
Note ON: Time 24480, Note Name: C5, Velocity: 69
Note ON: Time 24480, Note Name: D#5, Velocity: 69
Note ON: Time 24480, Note Name: G5, Velocity: 76
Note OFF: Time 24840, Note Name: G5
Note OFF: Time 24840, Note Name: G4
Note OFF: Time 24840, Note Name: C5
Note OFF: Time 24840, Note Name: D#5
Note ON: Time 24840, Note Name: G5, Velocity: 82
Note ON: Time 24840, Note Name: C5, Velocity: 75
Note ON: Time 24840, Note Name: D#5, Velocity: 75
Note ON: Time 24840, Note Name: G4, Velocity: 75
Note OFF: Time 24960, Note Name: G4
Note OFF: Time 24960, Note Name: G5
Note OFF: Time 24960, Note Name: C5
Note OFF: Time 24960, Note Name: D#5
Note ON: Time 24960, Note Name: A4, Velocity: 84
Note ON: Time 24960, Note Name: C5, Velocity: 84
Note ON: Time 24960, Note Name: D#5, Velocity: 84
Note ON: Time 24960, Note Name: A5, Velocity: 92
Note OFF: Time 26880, Note Name: A5
Note OFF: Time 26880, Note Name: A4
Note OFF: Time 26880, Note Name: C5
Note OFF: Time 26880, Note Name: D#5
Note ON: Time 26880, Note Name: D5, Velocity: 95
Note ON: Time 26880, Note Name: A5, Velocity: 95
Note ON: Time 26880, Note Name: D6, Velocity: 105
Note OFF: Time 27120, Note Name: A5
Note OFF: Time 27180, Note Name: D6
Note OFF: Time 27180, Note Name: D5
Note ON: Time 27360, Note Name: G5, Velocity: 91
Note ON: Time 27360, Note Name: G4, Velocity: 83
Note ON: Time 27360, Note Name: D5, Velocity: 83
Note OFF: Time 27840, Note Name: D5
Note OFF: Time 27840, Note Name: G4
Note OFF: Time 27840, Note Name: G5
Note ON: Time 28200, Note Name: G4, Velocity: 66
Note ON: Time 28200, Note Name: C#5, Velocity: 66
Note ON: Time 28200, Note Name: G5, Velocity: 72
Note OFF: Time 28320, Note Name: G5
Note OFF: Time 28320, Note Name: C#5
Note OFF: Time 28320, Note Name: G4
Note ON: Time 28320, Note Name: C#5, Velocity: 81
Note ON: Time 28320, Note Name: G#4, Velocity: 81
Note ON: Time 28320, Note Name: G#5, Velocity: 89
Note OFF: Time 28680, Note Name: G#5
Note OFF: Time 28680, Note Name: G#4
Note OFF: Time 28680, Note Name: C#5
Note ON: Time 28680, Note Name: C#5, Velocity: 65
Note ON: Time 28680, Note Name: G4, Velocity: 65
Note ON: Time 28680, Note Name: G5, Velocity: 71
Note OFF: Time 28800, Note Name: G5
Note OFF: Time 28800, Note Name: G4
Note OFF: Time 28800, Note Name: C#5
Note ON: Time 28800, Note Name: G4, Velocity: 74
Note ON: Time 28800, Note Name: C5, Velocity: 74
Note ON: Time 28800, Note Name: G5, Velocity: 81
Note OFF: Time 29040, Note Name: C5
Note ON: Time 29040, Note Name: C5, Velocity: 70
Note ON: Time 29040, Note Name: C6, Velocity: 76
Note OFF: Time 29050, Note Name: G5
Note OFF: Time 29050, Note Name: G4
Note OFF: Time 29160, Note Name: C5
Note OFF: Time 29160, Note Name: C6
Note ON: Time 29280, Note Name: F4, Velocity: 77
Note ON: Time 29280, Note Name: C5, Velocity: 77
Note ON: Time 29280, Note Name: F5, Velocity: 86
Note OFF: Time 29760, Note Name: F5
Note OFF: Time 29760, Note Name: C5
Note OFF: Time 29760, Note Name: F4
Note ON: Time 30120, Note Name: F4, Velocity: 63
Note ON: Time 30120, Note Name: C5, Velocity: 63
Note ON: Time 30120, Note Name: F5, Velocity: 69
Note OFF: Time 30240, Note Name: F5
Note OFF: Time 30240, Note Name: C5
Note OFF: Time 30240, Note Name: F4
Note ON: Time 30240, Note Name: G4, Velocity: 79
Note ON: Time 30240, Note Name: C5, Velocity: 79
Note ON: Time 30240, Note Name: G5, Velocity: 87
Note OFF: Time 30600, Note Name: G5
Note OFF: Time 30600, Note Name: C5
Note OFF: Time 30600, Note Name: G4
Note ON: Time 30600, Note Name: F4, Velocity: 63
Note ON: Time 30600, Note Name: C5, Velocity: 63
Note ON: Time 30600, Note Name: F5, Velocity: 69
Note OFF: Time 30720, Note Name: F5
Note OFF: Time 30720, Note Name: C5
Note OFF: Time 30720, Note Name: F4
Note ON: Time 30720, Note Name: E4, Velocity: 76
Note ON: Time 30720, Note Name: C5, Velocity: 76
Note ON: Time 30720, Note Name: E5, Velocity: 84
Note OFF: Time 32520, Note Name: E5
Note OFF: Time 32520, Note Name: C5
Note OFF: Time 32520, Note Name: E4
Note ON: Time 32520, Note Name: D#4, Velocity: 70
Note ON: Time 32520, Note Name: D#5, Velocity: 70
Note OFF: Time 32640, Note Name: D#5
Note OFF: Time 32640, Note Name: D#4
Note ON: Time 32640, Note Name: B4, Velocity: 75
Note ON: Time 32640, Note Name: D#4, Velocity: 75
Note ON: Time 32640, Note Name: D#5, Velocity: 75
Note OFF: Time 33120, Note Name: D#5
Note OFF: Time 33120, Note Name: D#4
Note ON: Time 33120, Note Name: D4, Velocity: 63
Note ON: Time 33120, Note Name: D5, Velocity: 63
Note OFF: Time 33600, Note Name: D5
Note OFF: Time 33600, Note Name: D4
Note OFF: Time 33600, Note Name: B4
Note ON: Time 37800, Note Name: C5, Velocity: 61
Note ON: Time 37800, Note Name: C6, Velocity: 67
Note ON: Time 37920, Note Name: D6, Velocity: 67
Note ON: Time 37920, Note Name: D5, Velocity: 61
Note OFF: Time 37930, Note Name: C6
Note OFF: Time 37930, Note Name: C5
Note ON: Time 38280, Note Name: D#5, Velocity: 62
Note ON: Time 38280, Note Name: D#6, Velocity: 68
Note OFF: Time 38290, Note Name: D6
Note OFF: Time 38290, Note Name: D5
Note OFF: Time 38400, Note Name: D#5
Note OFF: Time 38400, Note Name: D#6
Note ON: Time 38400, Note Name: D#5, Velocity: 72
Note ON: Time 38400, Note Name: D#6, Velocity: 79
Note OFF: Time 39360, Note Name: D#6
Note OFF: Time 39360, Note Name: D#5
Note ON: Time 39720, Note Name: G4, Velocity: 51
Note ON: Time 39720, Note Name: C5, Velocity: 51
Note ON: Time 39720, Note Name: D#5, Velocity: 51
Note ON: Time 39720, Note Name: G5, Velocity: 56
Note OFF: Time 39840, Note Name: G5
Note OFF: Time 39840, Note Name: G4
Note OFF: Time 39840, Note Name: C5
Note OFF: Time 39840, Note Name: D#5
Note ON: Time 39840, Note Name: G4, Velocity: 51
Note ON: Time 39840, Note Name: C5, Velocity: 51
Note ON: Time 39840, Note Name: D#5, Velocity: 51
Note ON: Time 39840, Note Name: G5, Velocity: 56
Note OFF: Time 40200, Note Name: G5
Note OFF: Time 40200, Note Name: G4
Note OFF: Time 40200, Note Name: C5
Note OFF: Time 40200, Note Name: D#5
Note ON: Time 40200, Note Name: G4, Velocity: 51
Note ON: Time 40200, Note Name: C5, Velocity: 51
Note ON: Time 40200, Note Name: D#5, Velocity: 51
Note ON: Time 40200, Note Name: G5, Velocity: 56
Note OFF: Time 40320, Note Name: G5
Note OFF: Time 40320, Note Name: G4
Note OFF: Time 40320, Note Name: C5
Note OFF: Time 40320, Note Name: D#5
Note ON: Time 40320, Note Name: G#4, Velocity: 60
Note ON: Time 40320, Note Name: C5, Velocity: 60
Note ON: Time 40320, Note Name: D#5, Velocity: 60
Note ON: Time 40320, Note Name: G#5, Velocity: 66
Note OFF: Time 41280, Note Name: G#5
Note OFF: Time 41280, Note Name: G#4
Note OFF: Time 41280, Note Name: C5
Note OFF: Time 41280, Note Name: D#5
Note ON: Time 41280, Note Name: G5, Velocity: 56
Note ON: Time 41280, Note Name: C5, Velocity: 51
Note ON: Time 41280, Note Name: D#5, Velocity: 51
Note ON: Time 41280, Note Name: G4, Velocity: 51
Note OFF: Time 41520, Note Name: G4
Note OFF: Time 41520, Note Name: G5
Note OFF: Time 41520, Note Name: C5
Note OFF: Time 41520, Note Name: D#5
Note ON: Time 41640, Note Name: C5, Velocity: 72
Note ON: Time 41640, Note Name: C6, Velocity: 79
Note ON: Time 41760, Note Name: D5, Velocity: 84
Note ON: Time 41760, Note Name: D6, Velocity: 92
Note OFF: Time 41770, Note Name: C6
Note OFF: Time 41770, Note Name: C5
Note ON: Time 42120, Note Name: D#5, Velocity: 92
Note ON: Time 42120, Note Name: D#6, Velocity: 101
Note OFF: Time 42130, Note Name: D5
Note OFF: Time 42130, Note Name: D6
Note OFF: Time 42240, Note Name: D#5
Note OFF: Time 42240, Note Name: D#6
Note ON: Time 42240, Note Name: D#5, Velocity: 97
Note ON: Time 42240, Note Name: D#6, Velocity: 107
Note OFF: Time 43200, Note Name: D#6
Note OFF: Time 43200, Note Name: D#5
Note ON: Time 43560, Note Name: G5, Velocity: 81
Note ON: Time 43560, Note Name: C5, Velocity: 74
Note ON: Time 43560, Note Name: D#5, Velocity: 74
Note ON: Time 43560, Note Name: G4, Velocity: 74
Note OFF: Time 43680, Note Name: G4
Note OFF: Time 43680, Note Name: G5
Note OFF: Time 43680, Note Name: C5
Note OFF: Time 43680, Note Name: D#5
Note ON: Time 43680, Note Name: G4, Velocity: 74
Note ON: Time 43680, Note Name: C5, Velocity: 74
Note ON: Time 43680, Note Name: D#5, Velocity: 74
Note ON: Time 43680, Note Name: G5, Velocity: 81
Note OFF: Time 44040, Note Name: G5
Note OFF: Time 44040, Note Name: G4
Note OFF: Time 44040, Note Name: C5
Note OFF: Time 44040, Note Name: D#5
Note ON: Time 44040, Note Name: G4, Velocity: 76
Note ON: Time 44040, Note Name: C5, Velocity: 76
Note ON: Time 44040, Note Name: D#5, Velocity: 76
Note ON: Time 44040, Note Name: G5, Velocity: 83
Note OFF: Time 44160, Note Name: G5
Note OFF: Time 44160, Note Name: G4
Note OFF: Time 44160, Note Name: C5
Note OFF: Time 44160, Note Name: D#5
Note ON: Time 44160, Note Name: A5, Velocity: 95
Note ON: Time 44160, Note Name: D#5, Velocity: 87
Note ON: Time 44160, Note Name: F5, Velocity: 87
Note ON: Time 44160, Note Name: A4, Velocity: 87
Note OFF: Time 46080, Note Name: A4
Note OFF: Time 46080, Note Name: A5
Note OFF: Time 46080, Note Name: D#5
Note OFF: Time 46080, Note Name: F5
Note ON: Time 46080, Note Name: A#4, Velocity: 71
Note ON: Time 46080, Note Name: F5, Velocity: 71
Note ON: Time 46080, Note Name: A#5, Velocity: 77
Note OFF: Time 46800, Note Name: A#5
Note OFF: Time 46800, Note Name: F5
Note OFF: Time 46800, Note Name: A#4
Note ON: Time 46800, Note Name: A#4, Velocity: 73
Note ON: Time 46800, Note Name: F5, Velocity: 73
Note ON: Time 46800, Note Name: A#5, Velocity: 80
Note OFF: Time 47280, Note Name: A#5
Note OFF: Time 47280, Note Name: F5
Note OFF: Time 47280, Note Name: A#4
Note ON: Time 47280, Note Name: A#4, Velocity: 76
Note ON: Time 47280, Note Name: G5, Velocity: 76
Note ON: Time 47280, Note Name: A#5, Velocity: 84
Note OFF: Time 47760, Note Name: A#5
Note OFF: Time 47760, Note Name: G5
Note OFF: Time 47760, Note Name: A#4
Note ON: Time 47760, Note Name: G5, Velocity: 79
Note ON: Time 47760, Note Name: B4, Velocity: 79
Note ON: Time 47760, Note Name: B5, Velocity: 87
Note OFF: Time 48240, Note Name: B5
Note OFF: Time 48240, Note Name: B4
Note OFF: Time 48240, Note Name: G5
Note ON: Time 48240, Note Name: G5, Velocity: 82
Note ON: Time 48240, Note Name: C5, Velocity: 82
Note ON: Time 48240, Note Name: A#5, Velocity: 82
Note ON: Time 48240, Note Name: C6, Velocity: 90
Note OFF: Time 48720, Note Name: C6
Note OFF: Time 48720, Note Name: G5
Note OFF: Time 48720, Note Name: C5
Note OFF: Time 48720, Note Name: A#5
Note ON: Time 48720, Note Name: C#5, Velocity: 85
Note ON: Time 48720, Note Name: C#6, Velocity: 93
Note ON: Time 48720, Note Name: A#5, Velocity: 85
Note OFF: Time 49200, Note Name: A#5
Note OFF: Time 49200, Note Name: C#6
Note OFF: Time 49200, Note Name: C#5
Note ON: Time 49200, Note Name: D5, Velocity: 89
Note ON: Time 49200, Note Name: A#5, Velocity: 89
Note ON: Time 49200, Note Name: D6, Velocity: 97
Note OFF: Time 49440, Note Name: A#5
Note ON: Time 49440, Note Name: D#5, Velocity: 90
Note ON: Time 49440, Note Name: A#5, Velocity: 90
Note ON: Time 49440, Note Name: D#6, Velocity: 99
Note OFF: Time 49450, Note Name: D6
Note OFF: Time 49450, Note Name: D5
Note OFF: Time 49680, Note Name: A#5
Note ON: Time 49680, Note Name: E5, Velocity: 92
Note ON: Time 49680, Note Name: A#5, Velocity: 92
Note ON: Time 49680, Note Name: E6, Velocity: 101
Note OFF: Time 49690, Note Name: D#5
Note OFF: Time 49690, Note Name: D#6
Note OFF: Time 49920, Note Name: A#5
Note ON: Time 49920, Note Name: A#5, Velocity: 97
Note ON: Time 49920, Note Name: F6, Velocity: 107
Note ON: Time 49920, Note Name: D6, Velocity: 97
Note ON: Time 49920, Note Name: F5, Velocity: 97
Note OFF: Time 49930, Note Name: E5
Note OFF: Time 49930, Note Name: E6
Note OFF: Time 50880, Note Name: D6
Note OFF: Time 50880, Note Name: F6
Note OFF: Time 50880, Note Name: F5
Note OFF: Time 50880, Note Name: A#5
Note ON: Time 50880, Note Name: A#5, Velocity: 90
Note ON: Time 50880, Note Name: D5, Velocity: 90
Note ON: Time 50880, Note Name: F5, Velocity: 90
Note ON: Time 50880, Note Name: D6, Velocity: 99
Note OFF: Time 51360, Note Name: F5
Note OFF: Time 51360, Note Name: A#5
Note OFF: Time 51360, Note Name: D5
Note ON: Time 51360, Note Name: D#5, Velocity: 84
Note ON: Time 51360, Note Name: F5, Velocity: 84
Note ON: Time 51360, Note Name: A5, Velocity: 84
Note OFF: Time 51720, Note Name: D6
Note ON: Time 51720, Note Name: C6, Velocity: 85
Note OFF: Time 51840, Note Name: C6
Note OFF: Time 51840, Note Name: A5
Note OFF: Time 51840, Note Name: F5
Note OFF: Time 51840, Note Name: D#5
Note ON: Time 51840, Note Name: D5, Velocity: 76
Note ON: Time 51840, Note Name: A#5, Velocity: 83
Note OFF: Time 52080, Note Name: A#5
Note OFF: Time 52080, Note Name: D5
Note ON: Time 53760, Note Name: B4, Velocity: 83
Note ON: Time 53760, Note Name: D#5, Velocity: 83
Note ON: Time 53760, Note Name: G#5, Velocity: 83
Note ON: Time 53760, Note Name: B5, Velocity: 91
Note OFF: Time 55200, Note Name: B5
Note OFF: Time 55200, Note Name: B4
Note OFF: Time 55200, Note Name: D#5
Note OFF: Time 55200, Note Name: G#5
Note ON: Time 55200, Note Name: D#5, Velocity: 72
Note ON: Time 55200, Note Name: G#4, Velocity: 66
Note ON: Time 55200, Note Name: B4, Velocity: 66
Note ON: Time 55200, Note Name: D#4, Velocity: 66
Note OFF: Time 55560, Note Name: D#4
Note OFF: Time 55560, Note Name: D#5
Note OFF: Time 55560, Note Name: G#4
Note OFF: Time 55560, Note Name: B4
Note ON: Time 55560, Note Name: F4, Velocity: 74
Note ON: Time 55560, Note Name: F5, Velocity: 81
Note OFF: Time 55680, Note Name: F5
Note OFF: Time 55680, Note Name: F4
Note ON: Time 55680, Note Name: F#5, Velocity: 91
Note ON: Time 55680, Note Name: A#4, Velocity: 83
Note ON: Time 55680, Note Name: D#5, Velocity: 83
Note ON: Time 55680, Note Name: F#4, Velocity: 83
Note OFF: Time 57120, Note Name: F#4
Note OFF: Time 57120, Note Name: F#5
Note OFF: Time 57120, Note Name: A#4
Note OFF: Time 57120, Note Name: D#5
Note ON: Time 57120, Note Name: F#4, Velocity: 73
Note ON: Time 57120, Note Name: F#5, Velocity: 80
Note OFF: Time 57480, Note Name: F#5
Note OFF: Time 57480, Note Name: F#4
Note ON: Time 57480, Note Name: G#5, Velocity: 85
Note ON: Time 57480, Note Name: G#4, Velocity: 76
Note OFF: Time 57600, Note Name: G#4
Note OFF: Time 57600, Note Name: G#5
Note ON: Time 57600, Note Name: A5, Velocity: 91
Note ON: Time 57600, Note Name: A4, Velocity: 83
Note ON: Time 57600, Note Name: C#5, Velocity: 83
Note ON: Time 57600, Note Name: F#5, Velocity: 83
Note OFF: Time 59040, Note Name: F#5
Note OFF: Time 59040, Note Name: A5
Note OFF: Time 59040, Note Name: A4
Note OFF: Time 59040, Note Name: C#5
Note ON: Time 59040, Note Name: C#5, Velocity: 76
Note ON: Time 59040, Note Name: F#4, Velocity: 70
Note ON: Time 59040, Note Name: A4, Velocity: 70
Note ON: Time 59040, Note Name: C#4, Velocity: 70
Note OFF: Time 59400, Note Name: C#4
Note OFF: Time 59400, Note Name: C#5
Note OFF: Time 59400, Note Name: F#4
Note OFF: Time 59400, Note Name: A4
Note ON: Time 59400, Note Name: D#4, Velocity: 77
Note ON: Time 59400, Note Name: D#5, Velocity: 86
Note OFF: Time 59520, Note Name: D#5
Note OFF: Time 59520, Note Name: D#4
Note ON: Time 59520, Note Name: E5, Velocity: 91
Note ON: Time 59520, Note Name: G#4, Velocity: 83
Note ON: Time 59520, Note Name: C#5, Velocity: 83
Note ON: Time 59520, Note Name: E4, Velocity: 83
Note OFF: Time 60960, Note Name: E4
Note OFF: Time 60960, Note Name: E5
Note OFF: Time 60960, Note Name: G#4
Note OFF: Time 60960, Note Name: C#5
Note ON: Time 60960, Note Name: E4, Velocity: 73
Note ON: Time 60960, Note Name: E5, Velocity: 80
Note OFF: Time 61320, Note Name: E5
Note OFF: Time 61320, Note Name: E4
Note ON: Time 61320, Note Name: F#4, Velocity: 77
Note ON: Time 61320, Note Name: F#5, Velocity: 86
Note OFF: Time 61440, Note Name: F#5
Note OFF: Time 61440, Note Name: F#4
Note ON: Time 61440, Note Name: G#4, Velocity: 83
Note ON: Time 61440, Note Name: D#5, Velocity: 83
Note ON: Time 61440, Note Name: F#5, Velocity: 83
Note ON: Time 61440, Note Name: G#5, Velocity: 91
Note OFF: Time 62880, Note Name: G#5
Note OFF: Time 62880, Note Name: G#4
Note OFF: Time 62880, Note Name: D#5
Note OFF: Time 62880, Note Name: F#5
Note ON: Time 62880, Note Name: G#5, Velocity: 88
Note ON: Time 62880, Note Name: D#5, Velocity: 80
Note ON: Time 62880, Note Name: F#5, Velocity: 80
Note ON: Time 62880, Note Name: G#4, Velocity: 80
Note OFF: Time 63240, Note Name: G#4
Note OFF: Time 63240, Note Name: G#5
Note OFF: Time 63240, Note Name: D#5
Note OFF: Time 63240, Note Name: F#5
Note ON: Time 63240, Note Name: A#4, Velocity: 84
Note ON: Time 63240, Note Name: A#5, Velocity: 92
Note OFF: Time 63360, Note Name: A#5
Note OFF: Time 63360, Note Name: A#4
Note ON: Time 63360, Note Name: B5, Velocity: 99
Note ON: Time 63360, Note Name: F5, Velocity: 91
Note ON: Time 63360, Note Name: G#5, Velocity: 91
Note ON: Time 63360, Note Name: B4, Velocity: 91
Note OFF: Time 63840, Note Name: B4
Note OFF: Time 63840, Note Name: B5
Note OFF: Time 63840, Note Name: F5
Note OFF: Time 63840, Note Name: G#5
Note ON: Time 63840, Note Name: A#4, Velocity: 91
Note ON: Time 63840, Note Name: F5, Velocity: 91
Note ON: Time 63840, Note Name: G#5, Velocity: 91
Note ON: Time 63840, Note Name: A#5, Velocity: 99
Note OFF: Time 64800, Note Name: A#5
Note OFF: Time 64800, Note Name: A#4
Note OFF: Time 64800, Note Name: F5
Note OFF: Time 64800, Note Name: G#5
Note ON: Time 64800, Note Name: A#4, Velocity: 93
Note ON: Time 64800, Note Name: F5, Velocity: 93
Note ON: Time 64800, Note Name: G#5, Velocity: 93
Note ON: Time 64800, Note Name: A#5, Velocity: 102
Note OFF: Time 65160, Note Name: A#5
Note OFF: Time 65160, Note Name: A#4
Note OFF: Time 65160, Note Name: F5
Note OFF: Time 65160, Note Name: G#5
Note ON: Time 65160, Note Name: C5, Velocity: 93
Note ON: Time 65160, Note Name: C6, Velocity: 102
Note OFF: Time 65280, Note Name: C6
Note OFF: Time 65280, Note Name: C5
Note ON: Time 65280, Note Name: C#5, Velocity: 95
Note ON: Time 65280, Note Name: G5, Velocity: 95
Note ON: Time 65280, Note Name: A#5, Velocity: 95
Note ON: Time 65280, Note Name: C#6, Velocity: 106
Note OFF: Time 65760, Note Name: C#6
Note OFF: Time 65760, Note Name: C#5
Note OFF: Time 65760, Note Name: G5
Note OFF: Time 65760, Note Name: A#5
Note ON: Time 65760, Note Name: A#5, Velocity: 90
Note ON: Time 65760, Note Name: C5, Velocity: 90
Note ON: Time 65760, Note Name: G5, Velocity: 90
Note ON: Time 65760, Note Name: C6, Velocity: 97
Note OFF: Time 66240, Note Name: C6
Note OFF: Time 66240, Note Name: A#5
Note OFF: Time 66240, Note Name: C5
Note OFF: Time 66240, Note Name: G5
Note ON: Time 69120, Note Name: G#6, Velocity: 104
Note ON: Time 69120, Note Name: F6, Velocity: 95
Note ON: Time 69120, Note Name: C6, Velocity: 95
Note ON: Time 69120, Note Name: G#5, Velocity: 95
Note OFF: Time 70080, Note Name: G#5
Note OFF: Time 70080, Note Name: G#6
Note OFF: Time 70080, Note Name: F6
Note OFF: Time 70080, Note Name: C6
Note ON: Time 70080, Note Name: F6, Velocity: 95
Note ON: Time 70080, Note Name: C6, Velocity: 88
Note ON: Time 70080, Note Name: F5, Velocity: 88
Note OFF: Time 70560, Note Name: F5
Note OFF: Time 70560, Note Name: C6
Note OFF: Time 70560, Note Name: F6
Note ON: Time 70560, Note Name: C5, Velocity: 84
Note ON: Time 70560, Note Name: F5, Velocity: 84
Note ON: Time 70560, Note Name: C6, Velocity: 92
Note OFF: Time 71040, Note Name: C6
Note OFF: Time 71040, Note Name: F5
Note OFF: Time 71040, Note Name: C5
Note ON: Time 71040, Note Name: F5, Velocity: 87
Note ON: Time 71040, Note Name: A#4, Velocity: 87
Note ON: Time 71040, Note Name: A#5, Velocity: 95
Note OFF: Time 72000, Note Name: A#5
Note OFF: Time 72000, Note Name: A#4
Note ON: Time 72000, Note Name: G#4, Velocity: 71
Note ON: Time 72000, Note Name: G#5, Velocity: 77
Note OFF: Time 72480, Note Name: G#5
Note OFF: Time 72480, Note Name: G#4
Note OFF: Time 72480, Note Name: F5
Note ON: Time 72960, Note Name: G#5, Velocity: 84
Note ON: Time 72960, Note Name: F6, Velocity: 84
Note ON: Time 72960, Note Name: C6, Velocity: 84
Note ON: Time 72960, Note Name: G#6, Velocity: 92
Note OFF: Time 73920, Note Name: G#6
Note OFF: Time 73920, Note Name: G#5
Note OFF: Time 73920, Note Name: F6
Note OFF: Time 73920, Note Name: C6
Note ON: Time 73920, Note Name: F6, Velocity: 87
Note ON: Time 73920, Note Name: C6, Velocity: 79
Note ON: Time 73920, Note Name: F5, Velocity: 79
Note OFF: Time 74400, Note Name: F5
Note OFF: Time 74400, Note Name: C6
Note OFF: Time 74400, Note Name: F6
Note ON: Time 74400, Note Name: C5, Velocity: 79
Note ON: Time 74400, Note Name: F5, Velocity: 79
Note ON: Time 74400, Note Name: C6, Velocity: 87
Note OFF: Time 74880, Note Name: C6
Note OFF: Time 74880, Note Name: F5
Note OFF: Time 74880, Note Name: C5
Note ON: Time 74880, Note Name: C5, Velocity: 86
Note ON: Time 74880, Note Name: F5, Velocity: 86
Note ON: Time 74880, Note Name: C6, Velocity: 94
Note OFF: Time 76320, Note Name: C6
Note OFF: Time 76320, Note Name: F5
Note OFF: Time 76320, Note Name: C5
Note ON: Time 76320, Note Name: B4, Velocity: 75
Note ON: Time 76320, Note Name: F5, Velocity: 75
Note ON: Time 76320, Note Name: B5, Velocity: 82
Note OFF: Time 76680, Note Name: B5
Note OFF: Time 76680, Note Name: F5
Note OFF: Time 76680, Note Name: B4
Note ON: Time 76680, Note Name: C5, Velocity: 85
Note ON: Time 76680, Note Name: C6, Velocity: 93
Note OFF: Time 76800, Note Name: C6
Note OFF: Time 76800, Note Name: C5
Note ON: Time 76800, Note Name: D5, Velocity: 93
Note ON: Time 76800, Note Name: B5, Velocity: 93
Note ON: Time 76800, Note Name: F5, Velocity: 93
Note ON: Time 76800, Note Name: D6, Velocity: 102
Note OFF: Time 77760, Note Name: D6
Note OFF: Time 77760, Note Name: D5
Note OFF: Time 77760, Note Name: B5
Note OFF: Time 77760, Note Name: F5
Note ON: Time 80160, Note Name: G#4, Velocity: 94
Note ON: Time 80160, Note Name: D#5, Velocity: 94
Note ON: Time 80160, Note Name: F5, Velocity: 94
Note ON: Time 80160, Note Name: G#5, Velocity: 103
Note OFF: Time 80520, Note Name: G#5
Note OFF: Time 80520, Note Name: G#4
Note OFF: Time 80520, Note Name: D#5
Note OFF: Time 80520, Note Name: F5
Note ON: Time 80520, Note Name: G4, Velocity: 89
Note ON: Time 80520, Note Name: G5, Velocity: 97
Note OFF: Time 80640, Note Name: G5
Note OFF: Time 80640, Note Name: G4
Note ON: Time 80640, Note Name: F6, Velocity: 107
Note ON: Time 80640, Note Name: D6, Velocity: 97
Note ON: Time 80640, Note Name: F5, Velocity: 97
Note ON: Time 80640, Note Name: G5, Velocity: 97
Note OFF: Time 81600, Note Name: G5
Note OFF: Time 81600, Note Name: F6
Note OFF: Time 81600, Note Name: D6
Note OFF: Time 81600, Note Name: F5
Note ON: Time 84000, Note Name: G#5, Velocity: 95
Note ON: Time 84000, Note Name: D#5, Velocity: 88
Note ON: Time 84000, Note Name: F5, Velocity: 88
Note ON: Time 84000, Note Name: G#4, Velocity: 88
Note OFF: Time 84360, Note Name: G#4
Note OFF: Time 84360, Note Name: G#5
Note OFF: Time 84360, Note Name: D#5
Note OFF: Time 84360, Note Name: F5
Note ON: Time 84360, Note Name: G4, Velocity: 84
Note ON: Time 84360, Note Name: G5, Velocity: 92
Note OFF: Time 84480, Note Name: G5
Note OFF: Time 84480, Note Name: G4
Note ON: Time 84480, Note Name: F5, Velocity: 98
Note ON: Time 84480, Note Name: D6, Velocity: 98
Note ON: Time 84480, Note Name: G5, Velocity: 98
Note ON: Time 84480, Note Name: G6, Velocity: 108
Note OFF: Time 84720, Note Name: G6
Note OFF: Time 84720, Note Name: F5
Note OFF: Time 84720, Note Name: D6
Note OFF: Time 84720, Note Name: G5
Note ON: Time 84722, Note Name: G#6, Velocity: 87
Note ON: Time 84843, Note Name: G6, Velocity: 80
Note OFF: Time 84854, Note Name: G#6
Note ON: Time 84964, Note Name: F6, Velocity: 87
Note OFF: Time 84975, Note Name: G6
Note ON: Time 85083, Note Name: D6, Velocity: 77
Note OFF: Time 85096, Note Name: F6
Note ON: Time 85204, Note Name: D#6, Velocity: 77
Note OFF: Time 85215, Note Name: D6
Note ON: Time 85324, Note Name: D6, Velocity: 76
Note OFF: Time 85336, Note Name: D#6
Note ON: Time 85445, Note Name: B5, Velocity: 87
Note OFF: Time 85456, Note Name: D6
Note ON: Time 85560, Note Name: G5, Velocity: 77
Note OFF: Time 85577, Note Name: B5
Note ON: Time 85679, Note Name: G#5, Velocity: 77
Note OFF: Time 85692, Note Name: G5
Note ON: Time 85796, Note Name: G5, Velocity: 76
Note OFF: Time 85811, Note Name: G#5
Note ON: Time 85918, Note Name: F5, Velocity: 87
Note OFF: Time 85928, Note Name: G5
Note ON: Time 86044, Note Name: D5, Velocity: 77
Note OFF: Time 86050, Note Name: F5
Note ON: Time 86159, Note Name: D#5, Velocity: 77
Note OFF: Time 86176, Note Name: D5
Note ON: Time 86276, Note Name: D5, Velocity: 76
Note OFF: Time 86291, Note Name: D#5
Note ON: Time 86395, Note Name: B4, Velocity: 87
Note OFF: Time 86408, Note Name: D5
Note ON: Time 86522, Note Name: G4, Velocity: 77
Note OFF: Time 86527, Note Name: B4
Note ON: Time 86643, Note Name: G#4, Velocity: 77
Note OFF: Time 86654, Note Name: G4
Note ON: Time 86755, Note Name: G4, Velocity: 76
Note OFF: Time 86775, Note Name: G#4
Note ON: Time 86875, Note Name: F4, Velocity: 87
Note OFF: Time 86887, Note Name: G4
Note ON: Time 86999, Note Name: D4, Velocity: 77
Note OFF: Time 87007, Note Name: F4
Note ON: Time 87122, Note Name: D#4, Velocity: 77
Note OFF: Time 87131, Note Name: D4
Note ON: Time 87243, Note Name: D4, Velocity: 76
Note OFF: Time 87254, Note Name: D#4
Note ON: Time 87356, Note Name: B3, Velocity: 87
Note OFF: Time 87375, Note Name: D4
Note ON: Time 87476, Note Name: G3, Velocity: 77
Note OFF: Time 87488, Note Name: B3
Note ON: Time 87595, Note Name: G#3, Velocity: 77
Note OFF: Time 87608, Note Name: G3
Note ON: Time 87718, Note Name: G3, Velocity: 76
Note OFF: Time 87727, Note Name: G#3
Note ON: Time 87835, Note Name: F3, Velocity: 87
Note OFF: Time 87850, Note Name: G3
Note ON: Time 87965, Note Name: D3, Velocity: 77
Note OFF: Time 87967, Note Name: F3
Note ON: Time 88082, Note Name: D#3, Velocity: 76
Note OFF: Time 88097, Note Name: D3
Note ON: Time 88195, Note Name: D3, Velocity: 76
Note OFF: Time 88214, Note Name: D#3
Note ON: Time 88325, Note Name: C3, Velocity: 76
Note OFF: Time 88327, Note Name: D3
Note ON: Time 88442, Note Name: B2, Velocity: 76
Note OFF: Time 88457, Note Name: C3
Note ON: Time 88559, Note Name: G3, Velocity: 77
Note OFF: Time 88562, Note Name: B2
Note ON: Time 88675, Note Name: F3, Velocity: 76
Note OFF: Time 88691, Note Name: G3
Note ON: Time 88797, Note Name: D#3, Velocity: 74
Note OFF: Time 88807, Note Name: F3
Note ON: Time 88919, Note Name: D3, Velocity: 73
Note OFF: Time 88929, Note Name: D#3
Note ON: Time 89042, Note Name: D#3, Velocity: 72
Note OFF: Time 89051, Note Name: D3
Note ON: Time 89163, Note Name: D3, Velocity: 71
Note OFF: Time 89174, Note Name: D#3
Note ON: Time 89275, Note Name: C3, Velocity: 69
Note OFF: Time 89295, Note Name: D3
Note ON: Time 89404, Note Name: B2, Velocity: 69
Note OFF: Time 89407, Note Name: C3
Note ON: Time 89516, Note Name: A#3, Velocity: 74
Note OFF: Time 89524, Note Name: B2
Note ON: Time 89641, Note Name: G#3, Velocity: 73
Note OFF: Time 89648, Note Name: A#3
Note ON: Time 89761, Note Name: G3, Velocity: 73
Note OFF: Time 89773, Note Name: G#3
Note ON: Time 89885, Note Name: F3, Velocity: 72
Note OFF: Time 89893, Note Name: G3
Note ON: Time 90000, Note Name: G3, Velocity: 72
Note OFF: Time 90017, Note Name: F3
Note ON: Time 90117, Note Name: F3, Velocity: 71
Note OFF: Time 90132, Note Name: G3
Note ON: Time 90238, Note Name: D#3, Velocity: 70
Note OFF: Time 90249, Note Name: F3
Note ON: Time 90363, Note Name: D3, Velocity: 69
Note OFF: Time 90370, Note Name: D#3
Note ON: Time 90478, Note Name: D#4, Velocity: 76
Note OFF: Time 90483, Note Name: D3
Note ON: Time 90600, Note Name: D4, Velocity: 77
Note OFF: Time 90610, Note Name: D#4
Note ON: Time 90721, Note Name: C4, Velocity: 80
Note OFF: Time 90732, Note Name: D4
Note ON: Time 90836, Note Name: B3, Velocity: 81
Note OFF: Time 90866, Note Name: C4
Note ON: Time 90965, Note Name: C4, Velocity: 82
Note OFF: Time 90981, Note Name: B3
Note ON: Time 91083, Note Name: B3, Velocity: 84
Note OFF: Time 91110, Note Name: C4
Note ON: Time 91196, Note Name: G#3, Velocity: 87
Note OFF: Time 91228, Note Name: B3
Note ON: Time 91320, Note Name: G3, Velocity: 88
Note OFF: Time 91341, Note Name: G#3
Note ON: Time 91442, Note Name: G#3, Velocity: 90
Note OFF: Time 91465, Note Name: G3
Note ON: Time 91565, Note Name: G3, Velocity: 92
Note OFF: Time 91587, Note Name: G#3
Note ON: Time 91683, Note Name: F3, Velocity: 94
Note OFF: Time 91710, Note Name: G3
Note ON: Time 91802, Note Name: D#3, Velocity: 95
Note OFF: Time 91828, Note Name: F3
Note ON: Time 91921, Note Name: F3, Velocity: 99
Note OFF: Time 91947, Note Name: D#3
Note ON: Time 92045, Note Name: D#3, Velocity: 101
Note OFF: Time 92066, Note Name: F3
Note ON: Time 92164, Note Name: C3, Velocity: 103
Note OFF: Time 92177, Note Name: D#3
Note OFF: Time 92284, Note Name: C3
Note ON: Time 95400, Note Name: C6, Velocity: 97
Note ON: Time 95400, Note Name: C5, Velocity: 89
Note ON: Time 95520, Note Name: C#5, Velocity: 91
Note ON: Time 95520, Note Name: C#6, Velocity: 100
Note OFF: Time 95530, Note Name: C5
Note OFF: Time 95530, Note Name: C6
Note ON: Time 95680, Note Name: D5, Velocity: 96
Note ON: Time 95680, Note Name: D6, Velocity: 106
Note OFF: Time 95690, Note Name: C#5
Note OFF: Time 95690, Note Name: C#6
Note ON: Time 95920, Note Name: D#5, Velocity: 91
Note ON: Time 95920, Note Name: D#6, Velocity: 100
Note OFF: Time 95925, Note Name: D5
Note OFF: Time 95925, Note Name: D6
Note OFF: Time 95990, Note Name: D#5
Note OFF: Time 95990, Note Name: D#6
Note ON: Time 96000, Note Name: D#5, Velocity: 104
Note ON: Time 96000, Note Name: D#6, Velocity: 114
Note OFF: Time 96960, Note Name: D#6
Note OFF: Time 96960, Note Name: D#5
Note ON: Time 97320, Note Name: G5, Velocity: 49
Note ON: Time 97320, Note Name: C5, Velocity: 49
Note ON: Time 97320, Note Name: D#5, Velocity: 49
Note ON: Time 97320, Note Name: G4, Velocity: 49
Note OFF: Time 97440, Note Name: G4
Note OFF: Time 97440, Note Name: G5
Note OFF: Time 97440, Note Name: C5
Note OFF: Time 97440, Note Name: D#5
Note ON: Time 97440, Note Name: G4, Velocity: 49
Note ON: Time 97440, Note Name: C5, Velocity: 49
Note ON: Time 97440, Note Name: D#5, Velocity: 49
Note ON: Time 97440, Note Name: G5, Velocity: 49
Note OFF: Time 97800, Note Name: G5
Note OFF: Time 97800, Note Name: G4
Note OFF: Time 97800, Note Name: C5
Note OFF: Time 97800, Note Name: D#5
Note ON: Time 97800, Note Name: G5, Velocity: 56
Note ON: Time 97800, Note Name: C5, Velocity: 56
Note ON: Time 97800, Note Name: D#5, Velocity: 56
Note ON: Time 97800, Note Name: G4, Velocity: 56
Note OFF: Time 97920, Note Name: G4
Note OFF: Time 97920, Note Name: G5
Note OFF: Time 97920, Note Name: C5
Note OFF: Time 97920, Note Name: D#5
Note ON: Time 97920, Note Name: G#5, Velocity: 57
Note ON: Time 97920, Note Name: G#4, Velocity: 57
Note ON: Time 97920, Note Name: C5, Velocity: 57
Note ON: Time 97920, Note Name: D#5, Velocity: 57
Note OFF: Time 98880, Note Name: D#5
Note OFF: Time 98880, Note Name: G#5
Note OFF: Time 98880, Note Name: G#4
Note OFF: Time 98880, Note Name: C5
Note ON: Time 98880, Note Name: G4, Velocity: 63
Note ON: Time 98880, Note Name: C5, Velocity: 63
Note ON: Time 98880, Note Name: D#5, Velocity: 63
Note ON: Time 98880, Note Name: G5, Velocity: 69
Note OFF: Time 99040, Note Name: D#5
Note OFF: Time 99040, Note Name: G4
Note OFF: Time 99040, Note Name: C5
Note ON: Time 99040, Note Name: B4, Velocity: 75
Note ON: Time 99040, Note Name: B5, Velocity: 82
Note OFF: Time 99050, Note Name: G5
Note OFF: Time 99200, Note Name: B5
Note ON: Time 99200, Note Name: C5, Velocity: 79
Note ON: Time 99200, Note Name: C6, Velocity: 87
Note OFF: Time 99210, Note Name: B4
Note ON: Time 99360, Note Name: C#5, Velocity: 88
Note ON: Time 99360, Note Name: C#6, Velocity: 95
Note OFF: Time 99370, Note Name: C6
Note OFF: Time 99370, Note Name: C5
Note ON: Time 99520, Note Name: D5, Velocity: 99
Note ON: Time 99520, Note Name: D6, Velocity: 109
Note OFF: Time 99530, Note Name: C#5
Note OFF: Time 99530, Note Name: C#6
Note OFF: Time 99680, Note Name: D5
Note OFF: Time 99680, Note Name: D6
Note ON: Time 99760, Note Name: D#5, Velocity: 95
Note ON: Time 99760, Note Name: D#6, Velocity: 104
Note OFF: Time 99840, Note Name: D#6
Note OFF: Time 99840, Note Name: D#5
Note ON: Time 99840, Note Name: D#5, Velocity: 106
Note ON: Time 99840, Note Name: D#6, Velocity: 115
Note OFF: Time 100800, Note Name: D#6
Note OFF: Time 100800, Note Name: D#5
Note ON: Time 101160, Note Name: G5, Velocity: 54
Note ON: Time 101160, Note Name: C5, Velocity: 49
Note ON: Time 101160, Note Name: D#5, Velocity: 49
Note ON: Time 101160, Note Name: G4, Velocity: 49
Note OFF: Time 101280, Note Name: G4
Note OFF: Time 101280, Note Name: G5
Note OFF: Time 101280, Note Name: C5
Note OFF: Time 101280, Note Name: D#5
Note ON: Time 101280, Note Name: G4, Velocity: 55
Note ON: Time 101280, Note Name: C5, Velocity: 55
Note ON: Time 101280, Note Name: D#5, Velocity: 55
Note ON: Time 101280, Note Name: G5, Velocity: 60
Note OFF: Time 101640, Note Name: G5
Note OFF: Time 101640, Note Name: G4
Note OFF: Time 101640, Note Name: C5
Note OFF: Time 101640, Note Name: D#5
Note ON: Time 101640, Note Name: G4, Velocity: 67
Note ON: Time 101640, Note Name: C5, Velocity: 67
Note ON: Time 101640, Note Name: D#5, Velocity: 67
Note ON: Time 101640, Note Name: G5, Velocity: 73
Note OFF: Time 101760, Note Name: G5
Note OFF: Time 101760, Note Name: G4
Note OFF: Time 101760, Note Name: C5
Note OFF: Time 101760, Note Name: D#5
Note ON: Time 101760, Note Name: A5, Velocity: 82
Note ON: Time 101760, Note Name: C5, Velocity: 75
Note ON: Time 101760, Note Name: D#5, Velocity: 75
Note ON: Time 101760, Note Name: A4, Velocity: 75
Note OFF: Time 103320, Note Name: A4
Note OFF: Time 103320, Note Name: A5
Note OFF: Time 103320, Note Name: C5
Note OFF: Time 103320, Note Name: D#5
Note ON: Time 103500, Note Name: A4, Velocity: 85
Note ON: Time 103560, Note Name: D5, Velocity: 85
Note ON: Time 103620, Note Name: A5, Velocity: 87
Note ON: Time 103680, Note Name: D6, Velocity: 95
Note OFF: Time 103860, Note Name: D6
Note OFF: Time 103860, Note Name: A4
Note OFF: Time 103860, Note Name: D5
Note OFF: Time 103860, Note Name: A5
Note ON: Time 104160, Note Name: G4, Velocity: 95
Note ON: Time 104160, Note Name: D5, Velocity: 95
Note ON: Time 104160, Note Name: G5, Velocity: 104
Note OFF: Time 104640, Note Name: G5
Note OFF: Time 104640, Note Name: D5
Note OFF: Time 104640, Note Name: G4
Note ON: Time 104800, Note Name: C#5, Velocity: 69
Note ON: Time 104800, Note Name: G4, Velocity: 69
Note ON: Time 104800, Note Name: G5, Velocity: 76
Note OFF: Time 104960, Note Name: G5
Note OFF: Time 104960, Note Name: G4
Note OFF: Time 104960, Note Name: C#5
Note ON: Time 104960, Note Name: C#5, Velocity: 67
Note ON: Time 104960, Note Name: G4, Velocity: 67
Note ON: Time 104960, Note Name: G5, Velocity: 73
Note OFF: Time 105120, Note Name: G5
Note OFF: Time 105120, Note Name: G4
Note OFF: Time 105120, Note Name: C#5
Note ON: Time 105120, Note Name: G5, Velocity: 76
Note ON: Time 105120, Note Name: C#5, Velocity: 69
Note ON: Time 105120, Note Name: G4, Velocity: 69
Note OFF: Time 105280, Note Name: G4
Note OFF: Time 105280, Note Name: C#5
Note OFF: Time 105280, Note Name: G5
Note ON: Time 105280, Note Name: G#5, Velocity: 73
Note ON: Time 105280, Note Name: C#5, Velocity: 67
Note ON: Time 105280, Note Name: G#4, Velocity: 67
Note OFF: Time 105440, Note Name: G#4
Note OFF: Time 105440, Note Name: C#5
Note OFF: Time 105440, Note Name: G#5
Note ON: Time 105520, Note Name: G4, Velocity: 69
Note ON: Time 105520, Note Name: C#5, Velocity: 69
Note ON: Time 105520, Note Name: G5, Velocity: 76
Note OFF: Time 105600, Note Name: G5
Note OFF: Time 105600, Note Name: C#5
Note OFF: Time 105600, Note Name: G4
Note ON: Time 105600, Note Name: G4, Velocity: 72
Note ON: Time 105600, Note Name: C5, Velocity: 72
Note ON: Time 105600, Note Name: G5, Velocity: 82
Note OFF: Time 105720, Note Name: C5
Note ON: Time 105720, Note Name: C5, Velocity: 69
Note ON: Time 105720, Note Name: C6, Velocity: 76
Note OFF: Time 105730, Note Name: G5
Note OFF: Time 105730, Note Name: G4
Note OFF: Time 105840, Note Name: C5
Note OFF: Time 105840, Note Name: C6
Note ON: Time 106080, Note Name: F4, Velocity: 83
Note ON: Time 106080, Note Name: C5, Velocity: 83
Note ON: Time 106080, Note Name: F5, Velocity: 91
Note OFF: Time 106560, Note Name: F5
Note OFF: Time 106560, Note Name: C5
Note OFF: Time 106560, Note Name: F4
Note ON: Time 106720, Note Name: F4, Velocity: 68
Note ON: Time 106720, Note Name: C5, Velocity: 68
Note ON: Time 106720, Note Name: F5, Velocity: 74
Note OFF: Time 106880, Note Name: F5
Note OFF: Time 106880, Note Name: C5
Note OFF: Time 106880, Note Name: F4
Note ON: Time 106880, Note Name: F4, Velocity: 66
Note ON: Time 106880, Note Name: C5, Velocity: 66
Note ON: Time 106880, Note Name: F5, Velocity: 72
Note OFF: Time 107040, Note Name: F5
Note OFF: Time 107040, Note Name: C5
Note OFF: Time 107040, Note Name: F4
Note ON: Time 107040, Note Name: E4, Velocity: 68
Note ON: Time 107040, Note Name: C5, Velocity: 68
Note ON: Time 107040, Note Name: E5, Velocity: 74
Note OFF: Time 107160, Note Name: C5
Note ON: Time 107160, Note Name: F4, Velocity: 71
Note ON: Time 107160, Note Name: C5, Velocity: 71
Note ON: Time 107160, Note Name: F5, Velocity: 77
Note OFF: Time 107170, Note Name: E5
Note OFF: Time 107170, Note Name: E4
Note OFF: Time 107280, Note Name: C5
Note ON: Time 107280, Note Name: G4, Velocity: 74
Note ON: Time 107280, Note Name: C5, Velocity: 74
Note ON: Time 107280, Note Name: G5, Velocity: 81
Note OFF: Time 107290, Note Name: F4
Note OFF: Time 107290, Note Name: F5
Note OFF: Time 107370, Note Name: C5
Note OFF: Time 107370, Note Name: G4
Note OFF: Time 107370, Note Name: G5
Note ON: Time 107460, Note Name: F4, Velocity: 72
Note ON: Time 107460, Note Name: C5, Velocity: 72
Note ON: Time 107460, Note Name: F5, Velocity: 79
Note OFF: Time 107510, Note Name: F5
Note OFF: Time 107510, Note Name: C5
Note OFF: Time 107510, Note Name: F4
Note ON: Time 107520, Note Name: E4, Velocity: 79
Note ON: Time 107520, Note Name: C5, Velocity: 79
Note ON: Time 107520, Note Name: E5, Velocity: 87
Note OFF: Time 107760, Note Name: E5
Note OFF: Time 107760, Note Name: C5
Note OFF: Time 107760, Note Name: E4
Note ON: Time 108000, Note Name: C5, Velocity: 69
Note ON: Time 108000, Note Name: D#4, Velocity: 69
Note ON: Time 108000, Note Name: D#5, Velocity: 76
Note OFF: Time 109320, Note Name: D#5
Note OFF: Time 109320, Note Name: D#4
Note ON: Time 109320, Note Name: D#4, Velocity: 67
Note ON: Time 109320, Note Name: D#5, Velocity: 73
Note OFF: Time 109440, Note Name: D#5
Note OFF: Time 109440, Note Name: D#4
Note OFF: Time 109440, Note Name: C5
Note ON: Time 109440, Note Name: B4, Velocity: 71
Note ON: Time 109440, Note Name: D#4, Velocity: 71
Note ON: Time 109440, Note Name: D#5, Velocity: 77
Note OFF: Time 109920, Note Name: D#5
Note OFF: Time 109920, Note Name: D#4
Note ON: Time 109920, Note Name: D4, Velocity: 69
Note ON: Time 109920, Note Name: D5, Velocity: 76
Note OFF: Time 110400, Note Name: D5
Note OFF: Time 110400, Note Name: D4
Note OFF: Time 110400, Note Name: B4
Note ON: Time 114400, Note Name: B4, Velocity: 81
Note ON: Time 114400, Note Name: B5, Velocity: 89
Note ON: Time 114560, Note Name: C6, Velocity: 92
Note ON: Time 114560, Note Name: C5, Velocity: 84
Note OFF: Time 114570, Note Name: B5
Note OFF: Time 114570, Note Name: B4
Note ON: Time 114720, Note Name: C#5, Velocity: 87
Note ON: Time 114720, Note Name: C#6, Velocity: 95
Note OFF: Time 114730, Note Name: C6
Note OFF: Time 114730, Note Name: C5
Note ON: Time 114880, Note Name: D5, Velocity: 95
Note ON: Time 114880, Note Name: D6, Velocity: 105
Note OFF: Time 114890, Note Name: C#5
Note OFF: Time 114890, Note Name: C#6
Note OFF: Time 115040, Note Name: D5
Note OFF: Time 115040, Note Name: D6
Note ON: Time 115120, Note Name: D#5, Velocity: 94
Note ON: Time 115120, Note Name: D#6, Velocity: 103
Note OFF: Time 115200, Note Name: D#6
Note OFF: Time 115200, Note Name: D#5
Note ON: Time 115200, Note Name: D#5, Velocity: 107
Note ON: Time 115200, Note Name: D#6, Velocity: 116
Note OFF: Time 116160, Note Name: D#6
Note OFF: Time 116160, Note Name: D#5
Note ON: Time 116520, Note Name: G4, Velocity: 49
Note ON: Time 116520, Note Name: C5, Velocity: 49
Note ON: Time 116520, Note Name: D#5, Velocity: 49
Note ON: Time 116520, Note Name: G5, Velocity: 54
Note OFF: Time 116640, Note Name: G5
Note OFF: Time 116640, Note Name: G4
Note OFF: Time 116640, Note Name: C5
Note OFF: Time 116640, Note Name: D#5
Note ON: Time 116640, Note Name: G5, Velocity: 54
Note ON: Time 116640, Note Name: G4, Velocity: 49
Note ON: Time 116640, Note Name: D#5, Velocity: 49
Note ON: Time 116640, Note Name: C5, Velocity: 49
Note OFF: Time 117000, Note Name: C5
Note OFF: Time 117000, Note Name: G5
Note OFF: Time 117000, Note Name: G4
Note OFF: Time 117000, Note Name: D#5
Note ON: Time 117000, Note Name: G5, Velocity: 54
Note ON: Time 117000, Note Name: C5, Velocity: 49
Note ON: Time 117000, Note Name: D#5, Velocity: 49
Note ON: Time 117000, Note Name: G4, Velocity: 49
Note OFF: Time 117120, Note Name: G4
Note OFF: Time 117120, Note Name: G5
Note OFF: Time 117120, Note Name: C5
Note OFF: Time 117120, Note Name: D#5
Note ON: Time 117120, Note Name: G#4, Velocity: 57
Note ON: Time 117120, Note Name: C5, Velocity: 57
Note ON: Time 117120, Note Name: D#5, Velocity: 57
Note ON: Time 117120, Note Name: G#5, Velocity: 62
Note OFF: Time 118080, Note Name: G#5
Note OFF: Time 118080, Note Name: G#4
Note OFF: Time 118080, Note Name: C5
Note OFF: Time 118080, Note Name: D#5
Note ON: Time 118080, Note Name: G5, Velocity: 77
Note ON: Time 118080, Note Name: C5, Velocity: 71
Note ON: Time 118080, Note Name: D#5, Velocity: 71
Note ON: Time 118080, Note Name: G4, Velocity: 71
Note OFF: Time 118240, Note Name: G4
Note OFF: Time 118240, Note Name: G5
Note OFF: Time 118240, Note Name: C5
Note OFF: Time 118240, Note Name: D#5
Note ON: Time 118240, Note Name: B4, Velocity: 71
Note ON: Time 118240, Note Name: B5, Velocity: 77
Note ON: Time 118400, Note Name: C6, Velocity: 79
Note ON: Time 118400, Note Name: C5, Velocity: 72
Note OFF: Time 118410, Note Name: B5
Note OFF: Time 118410, Note Name: B4
Note ON: Time 118560, Note Name: C#5, Velocity: 81
Note ON: Time 118560, Note Name: C#6, Velocity: 89
Note OFF: Time 118570, Note Name: C6
Note OFF: Time 118570, Note Name: C5
Note ON: Time 118680, Note Name: D5, Velocity: 84
Note ON: Time 118680, Note Name: D6, Velocity: 92
Note OFF: Time 118690, Note Name: C#5
Note OFF: Time 118690, Note Name: C#6
Note OFF: Time 118800, Note Name: D5
Note ON: Time 118800, Note Name: F5, Velocity: 94
Note ON: Time 118800, Note Name: F6, Velocity: 103
Note OFF: Time 118810, Note Name: D6
Note OFF: Time 118890, Note Name: F6
Note OFF: Time 118890, Note Name: F5
Note ON: Time 118980, Note Name: D#6, Velocity: 88
Note ON: Time 118980, Note Name: D#5, Velocity: 80
Note OFF: Time 119030, Note Name: D#5
Note OFF: Time 119030, Note Name: D#6
Note ON: Time 119040, Note Name: D#5, Velocity: 100
Note ON: Time 119040, Note Name: D#6, Velocity: 110
Note OFF: Time 120000, Note Name: D#6
Note OFF: Time 120000, Note Name: D#5
Note ON: Time 120360, Note Name: G5, Velocity: 59
Note ON: Time 120360, Note Name: C5, Velocity: 54
Note ON: Time 120360, Note Name: D#5, Velocity: 54
Note ON: Time 120360, Note Name: G4, Velocity: 54
Note OFF: Time 120480, Note Name: G4
Note OFF: Time 120480, Note Name: G5
Note OFF: Time 120480, Note Name: C5
Note OFF: Time 120480, Note Name: D#5
Note ON: Time 120480, Note Name: G5, Velocity: 61
Note ON: Time 120480, Note Name: G4, Velocity: 56
Note ON: Time 120480, Note Name: C5, Velocity: 56
Note ON: Time 120480, Note Name: D#5, Velocity: 56
Note OFF: Time 120840, Note Name: D#5
Note OFF: Time 120840, Note Name: G5
Note OFF: Time 120840, Note Name: G4
Note OFF: Time 120840, Note Name: C5
Note ON: Time 120840, Note Name: G4, Velocity: 64
Note ON: Time 120840, Note Name: C5, Velocity: 64
Note ON: Time 120840, Note Name: D#5, Velocity: 64
Note ON: Time 120840, Note Name: G5, Velocity: 70
Note OFF: Time 120960, Note Name: G5
Note OFF: Time 120960, Note Name: G4
Note OFF: Time 120960, Note Name: C5
Note OFF: Time 120960, Note Name: D#5
Note ON: Time 120960, Note Name: A4, Velocity: 75
Note ON: Time 120960, Note Name: D#5, Velocity: 75
Note ON: Time 120960, Note Name: A5, Velocity: 82
Note OFF: Time 122880, Note Name: A5
Note OFF: Time 122880, Note Name: D#5
Note OFF: Time 122880, Note Name: A4
Note ON: Time 122880, Note Name: A#4, Velocity: 95
Note ON: Time 122880, Note Name: C#5, Velocity: 95
Note ON: Time 122880, Note Name: A#5, Velocity: 106
Note OFF: Time 123840, Note Name: A#5
Note OFF: Time 123840, Note Name: C#5
Note OFF: Time 123840, Note Name: A#4
Note ON: Time 123840, Note Name: G#5, Velocity: 91
Note ON: Time 123840, Note Name: A#4, Velocity: 83
Note ON: Time 123840, Note Name: C#5, Velocity: 83
Note ON: Time 123840, Note Name: G#4, Velocity: 83
Note OFF: Time 124320, Note Name: G#4
Note OFF: Time 124320, Note Name: G#5
Note OFF: Time 124320, Note Name: A#4
Note OFF: Time 124320, Note Name: C#5
Note ON: Time 124320, Note Name: F#4, Velocity: 83
Note ON: Time 124320, Note Name: A#4, Velocity: 83
Note ON: Time 124320, Note Name: C#5, Velocity: 83
Note ON: Time 124320, Note Name: F#5, Velocity: 91
Note OFF: Time 124680, Note Name: F#5
Note OFF: Time 124680, Note Name: F#4
Note OFF: Time 124680, Note Name: A#4
Note OFF: Time 124680, Note Name: C#5
Note ON: Time 124680, Note Name: F4, Velocity: 83
Note ON: Time 124680, Note Name: A#4, Velocity: 83
Note ON: Time 124680, Note Name: C#5, Velocity: 83
Note ON: Time 124680, Note Name: F5, Velocity: 91
Note OFF: Time 124800, Note Name: F5
Note OFF: Time 124800, Note Name: F4
Note OFF: Time 124800, Note Name: A#4
Note OFF: Time 124800, Note Name: C#5
Note ON: Time 124800, Note Name: F5, Velocity: 98
Note ON: Time 124800, Note Name: F4, Velocity: 89
Note ON: Time 124800, Note Name: C#5, Velocity: 89
Note ON: Time 124800, Note Name: A#4, Velocity: 89
Note OFF: Time 125760, Note Name: C#5
Note OFF: Time 125760, Note Name: F5
Note OFF: Time 125760, Note Name: F4
Note ON: Time 125760, Note Name: E4, Velocity: 83
Note ON: Time 125760, Note Name: E5, Velocity: 91
Note OFF: Time 126240, Note Name: E5
Note OFF: Time 126240, Note Name: E4
Note OFF: Time 126240, Note Name: A#4
Note ON: Time 126720, Note Name: G#5, Velocity: 100
Note ON: Time 126720, Note Name: B4, Velocity: 91
Note ON: Time 126720, Note Name: E5, Velocity: 91
Note ON: Time 126720, Note Name: G#4, Velocity: 91
Note OFF: Time 127680, Note Name: G#4
Note OFF: Time 127680, Note Name: G#5
Note OFF: Time 127680, Note Name: B4
Note OFF: Time 127680, Note Name: E5
Note ON: Time 127680, Note Name: F#4, Velocity: 79
Note ON: Time 127680, Note Name: G#4, Velocity: 79
Note ON: Time 127680, Note Name: B4, Velocity: 79
Note ON: Time 127680, Note Name: F#5, Velocity: 87
Note OFF: Time 128160, Note Name: F#5
Note OFF: Time 128160, Note Name: F#4
Note OFF: Time 128160, Note Name: G#4
Note OFF: Time 128160, Note Name: B4
Note ON: Time 128160, Note Name: E4, Velocity: 79
Note ON: Time 128160, Note Name: G#4, Velocity: 79
Note ON: Time 128160, Note Name: B4, Velocity: 79
Note ON: Time 128160, Note Name: E5, Velocity: 87
Note OFF: Time 128520, Note Name: E5
Note OFF: Time 128520, Note Name: E4
Note OFF: Time 128520, Note Name: G#4
Note OFF: Time 128520, Note Name: B4
Note ON: Time 128520, Note Name: D#5, Velocity: 84
Note ON: Time 128520, Note Name: G#4, Velocity: 76
Note ON: Time 128520, Note Name: B4, Velocity: 76
Note ON: Time 128520, Note Name: D#4, Velocity: 76
Note OFF: Time 128640, Note Name: D#4
Note OFF: Time 128640, Note Name: D#5
Note OFF: Time 128640, Note Name: G#4
Note OFF: Time 128640, Note Name: B4
Note ON: Time 128640, Note Name: G#4, Velocity: 87
Note ON: Time 128640, Note Name: D#5, Velocity: 95
Note ON: Time 128640, Note Name: D#4, Velocity: 87
Note ON: Time 128640, Note Name: B4, Velocity: 87
Note OFF: Time 129600, Note Name: B4
Note OFF: Time 129600, Note Name: D#4
Note OFF: Time 129600, Note Name: D#5
Note ON: Time 129600, Note Name: D4, Velocity: 79
Note ON: Time 129600, Note Name: D5, Velocity: 87
Note OFF: Time 130080, Note Name: D5
Note OFF: Time 130080, Note Name: D4
Note OFF: Time 130080, Note Name: G#4
Note ON: Time 130560, Note Name: G4, Velocity: 77
Note ON: Time 130560, Note Name: D#5, Velocity: 77
Note ON: Time 130560, Note Name: G5, Velocity: 87
Note OFF: Time 132480, Note Name: G5
Note OFF: Time 132480, Note Name: D#5
Note OFF: Time 132480, Note Name: G4
Note ON: Time 132480, Note Name: G5, Velocity: 65
Note ON: Time 132480, Note Name: G4, Velocity: 53
Note ON: Time 132480, Note Name: D5, Velocity: 53
Note OFF: Time 133440, Note Name: G4
Note ON: Time 133440, Note Name: G4, Velocity: 60
Note OFF: Time 134160, Note Name: G5
Note ON: Time 134160, Note Name: F5, Velocity: 67
Note OFF: Time 134400, Note Name: F5
Note OFF: Time 134400, Note Name: G4
Note OFF: Time 134400, Note Name: D5
Note ON: Time 134400, Note Name: F5, Velocity: 74
Note ON: Time 134400, Note Name: G4, Velocity: 61
Note ON: Time 134400, Note Name: C5, Velocity: 61
Note OFF: Time 135360, Note Name: F5
Note ON: Time 135360, Note Name: D#5, Velocity: 70
Note OFF: Time 136320, Note Name: D#5
Note OFF: Time 136320, Note Name: C5
Note OFF: Time 136320, Note Name: G4
Note ON: Time 136320, Note Name: F4, Velocity: 48
Note ON: Time 136380, Note Name: G#4, Velocity: 48
Note ON: Time 136440, Note Name: D#5, Velocity: 57
Note OFF: Time 136560, Note Name: D#5
Note ON: Time 136560, Note Name: F5, Velocity: 59
Note OFF: Time 136680, Note Name: F5
Note ON: Time 136680, Note Name: D#5, Velocity: 62
Note OFF: Time 136800, Note Name: D#5
Note ON: Time 136800, Note Name: C#5, Velocity: 66
Note OFF: Time 137160, Note Name: C#5
Note ON: Time 137160, Note Name: D#5, Velocity: 70
Note OFF: Time 137280, Note Name: D#5
Note ON: Time 137280, Note Name: F5, Velocity: 75
Note OFF: Time 137760, Note Name: F5
Note ON: Time 137760, Note Name: G#4, Velocity: 66
Note OFF: Time 138240, Note Name: G#4
Note OFF: Time 138240, Note Name: G#4
Note OFF: Time 138240, Note Name: F4
Note ON: Time 138240, Note Name: D#4, Velocity: 63
Note ON: Time 138240, Note Name: C5, Velocity: 68
Note OFF: Time 142080, Note Name: C5
Note OFF: Time 142080, Note Name: D#4
Note ON: Time 142080, Note Name: C5, Velocity: 67
Note ON: Time 142080, Note Name: D4, Velocity: 60
Note ON: Time 142080, Note Name: F4, Velocity: 60
Note OFF: Time 142800, Note Name: C5
Note ON: Time 142800, Note Name: B4, Velocity: 60
Note OFF: Time 143040, Note Name: B4
Note ON: Time 143040, Note Name: D5, Velocity: 67
Note OFF: Time 143520, Note Name: D5
Note OFF: Time 143520, Note Name: F4
Note OFF: Time 143520, Note Name: D4
Note ON: Time 145920, Note Name: C4, Velocity: 71
Note ON: Time 145920, Note Name: C5, Velocity: 71
Note OFF: Time 146040, Note Name: C4
Note ON: Time 147840, Note Name: F4, Velocity: 49
Note ON: Time 147840, Note Name: G#4, Velocity: 49
Note OFF: Time 148800, Note Name: C5
Note ON: Time 148800, Note Name: D5, Velocity: 55
Note OFF: Time 149760, Note Name: D5
Note OFF: Time 149760, Note Name: G#4
Note OFF: Time 149760, Note Name: F4
Note ON: Time 149760, Note Name: E4, Velocity: 53
Note ON: Time 149760, Note Name: G4, Velocity: 53
Note ON: Time 149760, Note Name: E5, Velocity: 56
Note OFF: Time 151680, Note Name: E5
Note OFF: Time 151680, Note Name: G4
Note OFF: Time 151680, Note Name: E4
Note ON: Time 151680, Note Name: C4, Velocity: 41
Note ON: Time 151680, Note Name: G4, Velocity: 41
Note ON: Time 151680, Note Name: C5, Velocity: 50
Note ON: Time 151680, Note Name: G#4, Velocity: 41
Note OFF: Time 152640, Note Name: G4
Note ON: Time 152640, Note Name: F4, Velocity: 46
Note OFF: Time 153120, Note Name: C5
Note ON: Time 153120, Note Name: B4, Velocity: 51
Note ON: Time 153120, Note Name: D5, Velocity: 55
Note OFF: Time 153600, Note Name: D5
Note OFF: Time 153600, Note Name: G#4
Note OFF: Time 153600, Note Name: F4
Note OFF: Time 153600, Note Name: C4
Note OFF: Time 153600, Note Name: B4
Note ON: Time 153600, Note Name: E4, Velocity: 54
Note ON: Time 153600, Note Name: E5, Velocity: 64
Note ON: Time 153600, Note Name: G4, Velocity: 54
Note ON: Time 153600, Note Name: C5, Velocity: 54
Note ON: Time 153839, Note Name: G#6, Velocity: 89
Note OFF: Time 153840, Note Name: C5
Note OFF: Time 153840, Note Name: G4
Note OFF: Time 153840, Note Name: E4
Note OFF: Time 153840, Note Name: E5
Note OFF: Time 153959, Note Name: G#6
Note ON: Time 153963, Note Name: G6, Velocity: 88
Note ON: Time 154077, Note Name: E6, Velocity: 85
Note OFF: Time 154095, Note Name: G6
Note ON: Time 154204, Note Name: C6, Velocity: 84
Note OFF: Time 154209, Note Name: E6
Note ON: Time 154319, Note Name: C#6, Velocity: 91
Note OFF: Time 154336, Note Name: C6
Note ON: Time 154443, Note Name: C6, Velocity: 87
Note OFF: Time 154451, Note Name: C#6
Note ON: Time 154557, Note Name: A#5, Velocity: 89
Note OFF: Time 154575, Note Name: C6
Note ON: Time 154675, Note Name: G5, Velocity: 87
Note OFF: Time 154689, Note Name: A#5
Note ON: Time 154801, Note Name: G#5, Velocity: 89
Note OFF: Time 154807, Note Name: G5
Note ON: Time 154918, Note Name: G5, Velocity: 88
Note OFF: Time 154933, Note Name: G#5
Note ON: Time 155038, Note Name: E5, Velocity: 88
Note OFF: Time 155050, Note Name: G5
Note ON: Time 155162, Note Name: C5, Velocity: 87
Note OFF: Time 155170, Note Name: E5
Note ON: Time 155285, Note Name: C#5, Velocity: 91
Note OFF: Time 155294, Note Name: C5
Note ON: Time 155397, Note Name: C5, Velocity: 88
Note OFF: Time 155417, Note Name: C#5
Note ON: Time 155524, Note Name: A#4, Velocity: 89
Note OFF: Time 155529, Note Name: C5
Note ON: Time 155638, Note Name: G4, Velocity: 88
Note OFF: Time 155656, Note Name: A#4
Note ON: Time 155765, Note Name: G#4, Velocity: 95
Note OFF: Time 155770, Note Name: G4
Note ON: Time 155882, Note Name: G4, Velocity: 92
Note OFF: Time 155897, Note Name: G#4
Note ON: Time 155997, Note Name: E4, Velocity: 90
Note OFF: Time 156014, Note Name: G4
Note ON: Time 156118, Note Name: C4, Velocity: 89
Note OFF: Time 156129, Note Name: E4
Note ON: Time 156238, Note Name: C#4, Velocity: 93
Note OFF: Time 156250, Note Name: C4
Note ON: Time 156360, Note Name: C4, Velocity: 92
Note OFF: Time 156370, Note Name: C#4
Note ON: Time 156478, Note Name: A#3, Velocity: 91
Note OFF: Time 156492, Note Name: C4
Note ON: Time 156597, Note Name: G3, Velocity: 90
Note OFF: Time 156610, Note Name: A#3
Note ON: Time 156716, Note Name: G#3, Velocity: 94
Note OFF: Time 156729, Note Name: G3
Note ON: Time 156836, Note Name: G3, Velocity: 92
Note OFF: Time 156848, Note Name: G#3
Note ON: Time 156962, Note Name: E3, Velocity: 91
Note OFF: Time 156968, Note Name: G3
Note ON: Time 157084, Note Name: C3, Velocity: 90
Note OFF: Time 157094, Note Name: E3
Note ON: Time 157202, Note Name: C#3, Velocity: 94
Note OFF: Time 157216, Note Name: C3
Note ON: Time 157324, Note Name: C3, Velocity: 103
Note OFF: Time 157334, Note Name: C#3
Note ON: Time 157440, Note Name: C4, Velocity: 110
Note ON: Time 157440, Note Name: F3, Velocity: 100
Note ON: Time 157440, Note Name: A3, Velocity: 110
Note ON: Time 157440, Note Name: C3, Velocity: 100
Note OFF: Time 157444, Note Name: C3
Note OFF: Time 158380, Note Name: A3
Note OFF: Time 158380, Note Name: C4
Note OFF: Time 158380, Note Name: F3
Note OFF: Time 158380, Note Name: C3
Note ON: Time 158400, Note Name: C4, Velocity: 108
Note ON: Time 158400, Note Name: F3, Velocity: 97
Note ON: Time 158400, Note Name: G#3, Velocity: 108
Note ON: Time 158400, Note Name: C3, Velocity: 97
Note OFF: Time 159300, Note Name: C3
Note OFF: Time 159300, Note Name: C4
Note OFF: Time 159300, Note Name: F3
Note OFF: Time 159300, Note Name: G#3
Note ON: Time 159360, Note Name: C4, Velocity: 109
Note ON: Time 159360, Note Name: C3, Velocity: 99
Note ON: Time 159360, Note Name: F3, Velocity: 99
Note ON: Time 159360, Note Name: G3, Velocity: 109
Note OFF: Time 159600, Note Name: G3
Note OFF: Time 159600, Note Name: C4
Note OFF: Time 159600, Note Name: C3
Note OFF: Time 159600, Note Name: F3
Note ON: Time 159840, Note Name: C4, Velocity: 102
Note ON: Time 159840, Note Name: E3, Velocity: 93
Note ON: Time 159840, Note Name: G3, Velocity: 102
Note ON: Time 159840, Note Name: C3, Velocity: 93
Note OFF: Time 160080, Note Name: C3
Note OFF: Time 160080, Note Name: C4
Note OFF: Time 160080, Note Name: E3
Note OFF: Time 160080, Note Name: G3
Track 2: Piano left
Note ON: Time 235, Note Name: G#4, Velocity: 73
Note ON: Time 361, Note Name: G4, Velocity: 73
Note OFF: Time 367, Note Name: G#4
Note ON: Time 477, Note Name: F4, Velocity: 79
Note OFF: Time 493, Note Name: G4
Note ON: Time 603, Note Name: D4, Velocity: 72
Note OFF: Time 609, Note Name: F4
Note ON: Time 721, Note Name: D#4, Velocity: 72
Note OFF: Time 735, Note Name: D4
Note ON: Time 840, Note Name: D4, Velocity: 71
Note OFF: Time 853, Note Name: D#4
Note ON: Time 958, Note Name: B3, Velocity: 79
Note OFF: Time 972, Note Name: D4
Note ON: Time 1084, Note Name: G3, Velocity: 72
Note OFF: Time 1090, Note Name: B3
Note ON: Time 1204, Note Name: G#3, Velocity: 72
Note OFF: Time 1216, Note Name: G3
Note ON: Time 1323, Note Name: G3, Velocity: 70
Note OFF: Time 1336, Note Name: G#3
Note ON: Time 1436, Note Name: F3, Velocity: 79
Note OFF: Time 1455, Note Name: G3
Note ON: Time 1564, Note Name: D3, Velocity: 71
Note OFF: Time 1568, Note Name: F3
Note ON: Time 1682, Note Name: D#3, Velocity: 71
Note OFF: Time 1696, Note Name: D3
Note ON: Time 1800, Note Name: D3, Velocity: 68
Note OFF: Time 1814, Note Name: D#3
Note ON: Time 1918, Note Name: B2, Velocity: 79
Note OFF: Time 1932, Note Name: D3
Note ON: Time 2035, Note Name: G2, Velocity: 71
Note OFF: Time 2050, Note Name: B2
Note ON: Time 2156, Note Name: G#2, Velocity: 71
Note OFF: Time 2167, Note Name: G2
Note ON: Time 2279, Note Name: G2, Velocity: 69
Note OFF: Time 2288, Note Name: G#2
Note ON: Time 2396, Note Name: F2, Velocity: 79
Note OFF: Time 2411, Note Name: G2
Note ON: Time 2516, Note Name: D2, Velocity: 71
Note OFF: Time 2528, Note Name: F2
Note ON: Time 2645, Note Name: D#2, Velocity: 71
Note OFF: Time 2648, Note Name: D2
Note ON: Time 2759, Note Name: D2, Velocity: 68
Note OFF: Time 2777, Note Name: D#2
Note ON: Time 2876, Note Name: C2, Velocity: 76
Note OFF: Time 2891, Note Name: D2
Note ON: Time 2995, Note Name: G1, Velocity: 69
Note OFF: Time 3034, Note Name: C2
Note ON: Time 3115, Note Name: C2, Velocity: 70
Note OFF: Time 3153, Note Name: G1
Note ON: Time 3239, Note Name: G1, Velocity: 68
Note OFF: Time 3273, Note Name: C2
Note ON: Time 3360, Note Name: C2, Velocity: 74
Note OFF: Time 3397, Note Name: G1
Note ON: Time 3481, Note Name: G1, Velocity: 71
Note OFF: Time 3518, Note Name: C2
Note ON: Time 3601, Note Name: C2, Velocity: 75
Note OFF: Time 3639, Note Name: G1
Note ON: Time 3721, Note Name: G1, Velocity: 74
Note OFF: Time 3759, Note Name: C2
Note ON: Time 3836, Note Name: B1, Velocity: 79
Note OFF: Time 3853, Note Name: G1
Note OFF: Time 3956, Note Name: B1
Note ON: Time 4082, Note Name: G#4, Velocity: 71
Note ON: Time 4199, Note Name: G4, Velocity: 70
Note OFF: Time 4214, Note Name: G#4
Note ON: Time 4318, Note Name: F4, Velocity: 79
Note OFF: Time 4331, Note Name: G4
Note ON: Time 4435, Note Name: D4, Velocity: 72
Note OFF: Time 4450, Note Name: F4
Note ON: Time 4561, Note Name: D#4, Velocity: 72
Note OFF: Time 4567, Note Name: D4
Note ON: Time 4683, Note Name: D4, Velocity: 70
Note OFF: Time 4693, Note Name: D#4
Note ON: Time 4803, Note Name: B3, Velocity: 79
Note OFF: Time 4815, Note Name: D4
Note ON: Time 4920, Note Name: G3, Velocity: 71
Note OFF: Time 4935, Note Name: B3
Note ON: Time 5038, Note Name: G#3, Velocity: 71
Note OFF: Time 5052, Note Name: G3
Note ON: Time 5164, Note Name: G3, Velocity: 68
Note OFF: Time 5170, Note Name: G#3
Note ON: Time 5282, Note Name: F3, Velocity: 79
Note OFF: Time 5296, Note Name: G3
Note ON: Time 5405, Note Name: D3, Velocity: 72
Note OFF: Time 5414, Note Name: F3
Note ON: Time 5525, Note Name: D#3, Velocity: 72
Note OFF: Time 5537, Note Name: D3
Note ON: Time 5640, Note Name: D3, Velocity: 70
Note OFF: Time 5657, Note Name: D#3
Note ON: Time 5756, Note Name: B2, Velocity: 79
Note OFF: Time 5772, Note Name: D3
Note ON: Time 5880, Note Name: G2, Velocity: 71
Note OFF: Time 5888, Note Name: B2
Note ON: Time 5997, Note Name: G#2, Velocity: 71
Note OFF: Time 6012, Note Name: G2
Note ON: Time 6124, Note Name: G2, Velocity: 70
Note OFF: Time 6129, Note Name: G#2
Note ON: Time 6237, Note Name: F2, Velocity: 79
Note OFF: Time 6256, Note Name: G2
Note ON: Time 6363, Note Name: D2, Velocity: 71
Note OFF: Time 6369, Note Name: F2
Note ON: Time 6484, Note Name: D#2, Velocity: 71
Note OFF: Time 6495, Note Name: D2
Note ON: Time 6605, Note Name: D2, Velocity: 69
Note OFF: Time 6616, Note Name: D#2
Note ON: Time 6725, Note Name: C2, Velocity: 79
Note OFF: Time 6737, Note Name: D2
Note ON: Time 6841, Note Name: G1, Velocity: 72
Note OFF: Time 6883, Note Name: C2
Note ON: Time 6959, Note Name: C2, Velocity: 73
Note OFF: Time 6999, Note Name: G1
Note ON: Time 7077, Note Name: G1, Velocity: 73
Note OFF: Time 7117, Note Name: C2
Note ON: Time 7198, Note Name: C2, Velocity: 76
Note OFF: Time 7235, Note Name: G1
Note ON: Time 7324, Note Name: G1, Velocity: 76
Note OFF: Time 7356, Note Name: C2
Note ON: Time 7435, Note Name: C2, Velocity: 79
Note OFF: Time 7482, Note Name: G1
Note ON: Time 7559, Note Name: G1, Velocity: 76
Note OFF: Time 7593, Note Name: C2
Note ON: Time 7676, Note Name: B1, Velocity: 79
Note OFF: Time 7691, Note Name: G1
Note OFF: Time 7796, Note Name: B1
Note ON: Time 7922, Note Name: G#5, Velocity: 79
Note ON: Time 8043, Note Name: G5, Velocity: 71
Note OFF: Time 8054, Note Name: G#5
Note ON: Time 8162, Note Name: F5, Velocity: 79
Note OFF: Time 8175, Note Name: G5
Note ON: Time 8280, Note Name: D5, Velocity: 71
Note OFF: Time 8294, Note Name: F5
Note ON: Time 8396, Note Name: D#5, Velocity: 71
Note OFF: Time 8412, Note Name: D5
Note ON: Time 8519, Note Name: D5, Velocity: 70
Note OFF: Time 8528, Note Name: D#5
Note ON: Time 8644, Note Name: B4, Velocity: 79
Note OFF: Time 8651, Note Name: D5
Note ON: Time 8755, Note Name: G4, Velocity: 70
Note OFF: Time 8776, Note Name: B4
Note ON: Time 8880, Note Name: G#4, Velocity: 70
Note OFF: Time 8887, Note Name: G4
Note ON: Time 9002, Note Name: G4, Velocity: 69
Note OFF: Time 9012, Note Name: G#4
Note ON: Time 9119, Note Name: F4, Velocity: 79
Note OFF: Time 9134, Note Name: G4
Note ON: Time 9236, Note Name: D4, Velocity: 71
Note OFF: Time 9251, Note Name: F4
Note ON: Time 9365, Note Name: D#4, Velocity: 71
Note OFF: Time 9368, Note Name: D4
Note ON: Time 9485, Note Name: D4, Velocity: 69
Note OFF: Time 9497, Note Name: D#4
Note ON: Time 9601, Note Name: B3, Velocity: 79
Note OFF: Time 9617, Note Name: D4
Note ON: Time 9718, Note Name: G3, Velocity: 71
Note OFF: Time 9733, Note Name: B3
Note ON: Time 9840, Note Name: G#3, Velocity: 71
Note OFF: Time 9850, Note Name: G3
Note ON: Time 9959, Note Name: G3, Velocity: 69
Note OFF: Time 9972, Note Name: G#3
Note ON: Time 10084, Note Name: F3, Velocity: 79
Note OFF: Time 10091, Note Name: G3
Note ON: Time 10198, Note Name: D3, Velocity: 71
Note OFF: Time 10216, Note Name: F3
Note ON: Time 10320, Note Name: D#3, Velocity: 71
Note OFF: Time 10330, Note Name: D3
Note ON: Time 10437, Note Name: D3, Velocity: 69
Note OFF: Time 10452, Note Name: D#3
Note ON: Time 10565, Note Name: B2, Velocity: 79
Note OFF: Time 10569, Note Name: D3
Note ON: Time 10678, Note Name: G2, Velocity: 71
Note OFF: Time 10697, Note Name: B2
Note ON: Time 10803, Note Name: G#2, Velocity: 71
Note OFF: Time 10810, Note Name: G2
Note ON: Time 10921, Note Name: G2, Velocity: 69
Note OFF: Time 10935, Note Name: G#2
Note ON: Time 11037, Note Name: F2, Velocity: 79
Note OFF: Time 11053, Note Name: G2
Note ON: Time 11163, Note Name: D2, Velocity: 71
Note OFF: Time 11169, Note Name: F2
Note ON: Time 11284, Note Name: D#2, Velocity: 71
Note OFF: Time 11295, Note Name: D2
Note ON: Time 11399, Note Name: D2, Velocity: 70
Note OFF: Time 11416, Note Name: D#2
Note ON: Time 11520, Note Name: C2, Velocity: 62
Note OFF: Time 11531, Note Name: D2
Note OFF: Time 11640, Note Name: C2
Note ON: Time 11644, Note Name: B1, Velocity: 62
Note ON: Time 11755, Note Name: G2, Velocity: 67
Note OFF: Time 11764, Note Name: B1
Note OFF: Time 11875, Note Name: G2
Note ON: Time 11885, Note Name: F2, Velocity: 66
Note ON: Time 12001, Note Name: D#2, Velocity: 65
Note OFF: Time 12017, Note Name: F2
Note ON: Time 12115, Note Name: D2, Velocity: 65
Note OFF: Time 12133, Note Name: D#2
Note ON: Time 12240, Note Name: D#2, Velocity: 64
Note OFF: Time 12247, Note Name: D2
Note ON: Time 12357, Note Name: D2, Velocity: 63
Note OFF: Time 12372, Note Name: D#2
Note ON: Time 12484, Note Name: C2, Velocity: 63
Note OFF: Time 12489, Note Name: D2
Note ON: Time 12601, Note Name: B1, Velocity: 62
Note OFF: Time 12616, Note Name: C2
Note OFF: Time 12721, Note Name: B1
Note ON: Time 12722, Note Name: A#2, Velocity: 70
Note ON: Time 12837, Note Name: G#2, Velocity: 68
Note OFF: Time 12854, Note Name: A#2
Note ON: Time 12964, Note Name: G2, Velocity: 69
Note OFF: Time 12969, Note Name: G#2
Note ON: Time 13076, Note Name: F2, Velocity: 69
Note OFF: Time 13096, Note Name: G2
Note ON: Time 13196, Note Name: G2, Velocity: 68
Note OFF: Time 13208, Note Name: F2
Note ON: Time 13323, Note Name: F2, Velocity: 68
Note OFF: Time 13328, Note Name: G2
Note ON: Time 13438, Note Name: D#2, Velocity: 67
Note OFF: Time 13455, Note Name: F2
Note ON: Time 13565, Note Name: D2, Velocity: 67
Note OFF: Time 13570, Note Name: D#2
Note ON: Time 13678, Note Name: D#3, Velocity: 76
Note OFF: Time 13685, Note Name: D2
Note ON: Time 13798, Note Name: D3, Velocity: 73
Note OFF: Time 13810, Note Name: D#3
Note ON: Time 13916, Note Name: C3, Velocity: 74
Note OFF: Time 13930, Note Name: D3
Note ON: Time 14043, Note Name: B2, Velocity: 75
Note OFF: Time 14048, Note Name: C3
Note ON: Time 14164, Note Name: C3, Velocity: 76
Note OFF: Time 14175, Note Name: B2
Note ON: Time 14282, Note Name: B2, Velocity: 77
Note OFF: Time 14296, Note Name: C3
Note ON: Time 14401, Note Name: G#2, Velocity: 79
Note OFF: Time 14414, Note Name: B2
Note ON: Time 14523, Note Name: G2, Velocity: 80
Note OFF: Time 14533, Note Name: G#2
Note ON: Time 14637, Note Name: G#2, Velocity: 81
Note OFF: Time 14655, Note Name: G2
Note ON: Time 14756, Note Name: G2, Velocity: 83
Note OFF: Time 14769, Note Name: G#2
Note ON: Time 14875, Note Name: F2, Velocity: 83
Note OFF: Time 14888, Note Name: G2
Note ON: Time 14995, Note Name: D#2, Velocity: 85
Note OFF: Time 15007, Note Name: F2
Note ON: Time 15123, Note Name: F2, Velocity: 88
Note OFF: Time 15127, Note Name: D#2
Note ON: Time 15244, Note Name: D#2, Velocity: 90
Note OFF: Time 15255, Note Name: F2
Note ON: Time 15356, Note Name: C2, Velocity: 92
Note OFF: Time 15376, Note Name: D#2
Note OFF: Time 15476, Note Name: C2
Note ON: Time 15481, Note Name: G2, Velocity: 49
Note ON: Time 15595, Note Name: C3, Velocity: 50
Note OFF: Time 15613, Note Name: G2
Note ON: Time 15716, Note Name: D3, Velocity: 52
Note OFF: Time 15727, Note Name: C3
Note ON: Time 15839, Note Name: D#3, Velocity: 54
Note OFF: Time 15848, Note Name: D3
Note ON: Time 15963, Note Name: G3, Velocity: 55
Note OFF: Time 15971, Note Name: D#3
Note ON: Time 16082, Note Name: C4, Velocity: 57
Note OFF: Time 16095, Note Name: G3
Note ON: Time 16200, Note Name: D4, Velocity: 59
Note OFF: Time 16214, Note Name: C4
Note ON: Time 16315, Note Name: D#4, Velocity: 60
Note OFF: Time 16332, Note Name: D4
Note ON: Time 16439, Note Name: D4, Velocity: 59
Note OFF: Time 16447, Note Name: D#4
Note ON: Time 16557, Note Name: C4, Velocity: 57
Note OFF: Time 16571, Note Name: D4
Note ON: Time 16682, Note Name: G3, Velocity: 57
Note OFF: Time 16689, Note Name: C4
Note ON: Time 16798, Note Name: D#3, Velocity: 57
Note OFF: Time 16814, Note Name: G3
Note ON: Time 16919, Note Name: D3, Velocity: 56
Note OFF: Time 16930, Note Name: D#3
Note ON: Time 17037, Note Name: C3, Velocity: 55
Note OFF: Time 17051, Note Name: D3
Note ON: Time 17161, Note Name: G2, Velocity: 54
Note OFF: Time 17169, Note Name: C3
Note ON: Time 17280, Note Name: C2, Velocity: 56
Note OFF: Time 17293, Note Name: G2
Note ON: Time 17401, Note Name: G2, Velocity: 59
Note OFF: Time 17412, Note Name: C2
Note ON: Time 17516, Note Name: C3, Velocity: 62
Note OFF: Time 17533, Note Name: G2
Note ON: Time 17640, Note Name: D3, Velocity: 63
Note OFF: Time 17648, Note Name: C3
Note ON: Time 17765, Note Name: D#3, Velocity: 68
Note OFF: Time 17772, Note Name: D3
Note ON: Time 17882, Note Name: D3, Velocity: 66
Note OFF: Time 17897, Note Name: D#3
Note ON: Time 18005, Note Name: C3, Velocity: 63
Note OFF: Time 18014, Note Name: D3
Note ON: Time 18117, Note Name: G2, Velocity: 59
Note OFF: Time 18137, Note Name: C3
Note OFF: Time 18237, Note Name: G2
Note ON: Time 18238, Note Name: C2, Velocity: 56
Note ON: Time 18356, Note Name: G2, Velocity: 59
Note OFF: Time 18370, Note Name: C2
Note ON: Time 18485, Note Name: C3, Velocity: 63
Note OFF: Time 18488, Note Name: G2
Note ON: Time 18600, Note Name: D3, Velocity: 65
Note OFF: Time 18617, Note Name: C3
Note ON: Time 18725, Note Name: D#3, Velocity: 67
Note OFF: Time 18732, Note Name: D3
Note ON: Time 18836, Note Name: D3, Velocity: 65
Note OFF: Time 18857, Note Name: D#3
Note ON: Time 18961, Note Name: C3, Velocity: 63
Note OFF: Time 18968, Note Name: D3
Note ON: Time 19076, Note Name: G2, Velocity: 61
Note OFF: Time 19093, Note Name: C3
Note OFF: Time 19196, Note Name: G2
Note ON: Time 19199, Note Name: C2, Velocity: 59
Note ON: Time 19325, Note Name: G2, Velocity: 46
Note OFF: Time 19331, Note Name: C2
Note ON: Time 19435, Note Name: C3, Velocity: 47
Note OFF: Time 19457, Note Name: G2
Note ON: Time 19564, Note Name: D3, Velocity: 49
Note OFF: Time 19567, Note Name: C3
Note ON: Time 19678, Note Name: D#3, Velocity: 51
Note OFF: Time 19696, Note Name: D3
Note ON: Time 19797, Note Name: G3, Velocity: 52
Note OFF: Time 19810, Note Name: D#3
Note ON: Time 19923, Note Name: C4, Velocity: 54
Note OFF: Time 19929, Note Name: G3
Note ON: Time 20039, Note Name: D4, Velocity: 55
Note OFF: Time 20055, Note Name: C4
Note ON: Time 20157, Note Name: D#4, Velocity: 57
Note OFF: Time 20171, Note Name: D4
Note ON: Time 20281, Note Name: D4, Velocity: 55
Note OFF: Time 20289, Note Name: D#4
Note ON: Time 20401, Note Name: C4, Velocity: 54
Note OFF: Time 20413, Note Name: D4
Note ON: Time 20519, Note Name: G3, Velocity: 52
Note OFF: Time 20533, Note Name: C4
Note ON: Time 20640, Note Name: D#3, Velocity: 50
Note OFF: Time 20651, Note Name: G3
Note ON: Time 20761, Note Name: D3, Velocity: 49
Note OFF: Time 20772, Note Name: D#3
Note ON: Time 20881, Note Name: C3, Velocity: 47
Note OFF: Time 20893, Note Name: D3
Note ON: Time 21004, Note Name: G2, Velocity: 43
Note OFF: Time 21013, Note Name: C3
Note OFF: Time 21124, Note Name: G2
Note ON: Time 21124, Note Name: C2, Velocity: 33
Note ON: Time 21241, Note Name: G2, Velocity: 36
Note OFF: Time 21256, Note Name: C2
Note ON: Time 21362, Note Name: C3, Velocity: 39
Note OFF: Time 21373, Note Name: G2
Note ON: Time 21481, Note Name: D3, Velocity: 40
Note OFF: Time 21494, Note Name: C3
Note ON: Time 21599, Note Name: D#3, Velocity: 45
Note OFF: Time 21613, Note Name: D3
Note ON: Time 21717, Note Name: D3, Velocity: 46
Note OFF: Time 21731, Note Name: D#3
Note ON: Time 21843, Note Name: C3, Velocity: 45
Note OFF: Time 21849, Note Name: D3
Note ON: Time 21961, Note Name: G2, Velocity: 43
Note OFF: Time 21975, Note Name: C3
Note OFF: Time 22081, Note Name: G2
Note ON: Time 22084, Note Name: C2, Velocity: 40
Note ON: Time 22197, Note Name: G2, Velocity: 45
Note OFF: Time 22216, Note Name: C2
Note ON: Time 22317, Note Name: C3, Velocity: 50
Note OFF: Time 22329, Note Name: G2
Note ON: Time 22441, Note Name: D3, Velocity: 54
Note OFF: Time 22449, Note Name: C3
Note ON: Time 22562, Note Name: D#3, Velocity: 59
Note OFF: Time 22573, Note Name: D3
Note ON: Time 22681, Note Name: D3, Velocity: 57
Note OFF: Time 22694, Note Name: D#3
Note ON: Time 22798, Note Name: C3, Velocity: 57
Note OFF: Time 22813, Note Name: D3
Note ON: Time 22920, Note Name: G2, Velocity: 55
Note OFF: Time 22930, Note Name: C3
Note ON: Time 23035, Note Name: C2, Velocity: 53
Note OFF: Time 23040, Note Name: G2
Note ON: Time 23163, Note Name: G2, Velocity: 51
Note OFF: Time 23167, Note Name: C2
Note ON: Time 23281, Note Name: C3, Velocity: 53
Note OFF: Time 23295, Note Name: G2
Note ON: Time 23401, Note Name: D3, Velocity: 54
Note OFF: Time 23413, Note Name: C3
Note ON: Time 23522, Note Name: D#3, Velocity: 56
Note OFF: Time 23533, Note Name: D3
Note ON: Time 23643, Note Name: G3, Velocity: 57
Note OFF: Time 23654, Note Name: D#3
Note ON: Time 23756, Note Name: C4, Velocity: 60
Note OFF: Time 23775, Note Name: G3
Note ON: Time 23881, Note Name: D4, Velocity: 62
Note OFF: Time 23888, Note Name: C4
Note ON: Time 24004, Note Name: D#4, Velocity: 64
Note OFF: Time 24013, Note Name: D4
Note ON: Time 24125, Note Name: D4, Velocity: 61
Note OFF: Time 24136, Note Name: D#4
Note ON: Time 24241, Note Name: C4, Velocity: 59
Note OFF: Time 24257, Note Name: D4
Note ON: Time 24363, Note Name: G3, Velocity: 57
Note OFF: Time 24373, Note Name: C4
Note ON: Time 24475, Note Name: D#3, Velocity: 55
Note OFF: Time 24495, Note Name: G3
Note ON: Time 24602, Note Name: D3, Velocity: 52
Note OFF: Time 24607, Note Name: D#3
Note ON: Time 24725, Note Name: C3, Velocity: 50
Note OFF: Time 24734, Note Name: D3
Note ON: Time 24838, Note Name: G2, Velocity: 48
Note OFF: Time 24857, Note Name: C3
Note OFF: Time 24958, Note Name: G2
Note ON: Time 24961, Note Name: C2, Velocity: 77
Note ON: Time 25078, Note Name: F#2, Velocity: 53
Note OFF: Time 25093, Note Name: C2
Note ON: Time 25196, Note Name: C3, Velocity: 56
Note OFF: Time 25210, Note Name: F#2
Note ON: Time 25316, Note Name: D3, Velocity: 54
Note OFF: Time 25328, Note Name: C3
Note ON: Time 25444, Note Name: D#3, Velocity: 56
Note OFF: Time 25448, Note Name: D3
Note ON: Time 25564, Note Name: D3, Velocity: 57
Note OFF: Time 25576, Note Name: D#3
Note ON: Time 25683, Note Name: C3, Velocity: 57
Note OFF: Time 25696, Note Name: D3
Note ON: Time 25796, Note Name: F#2, Velocity: 59
Note OFF: Time 25815, Note Name: C3
Note OFF: Time 25916, Note Name: F#2
Note ON: Time 25918, Note Name: C2, Velocity: 77
Note ON: Time 26035, Note Name: F#2, Velocity: 56
Note OFF: Time 26050, Note Name: C2
Note ON: Time 26155, Note Name: C3, Velocity: 59
Note OFF: Time 26167, Note Name: F#2
Note ON: Time 26282, Note Name: D3, Velocity: 57
Note OFF: Time 26287, Note Name: C3
Note ON: Time 26404, Note Name: D#3, Velocity: 57
Note OFF: Time 26414, Note Name: D3
Note ON: Time 26520, Note Name: D3, Velocity: 60
Note OFF: Time 26536, Note Name: D#3
Note ON: Time 26639, Note Name: C3, Velocity: 62
Note OFF: Time 26652, Note Name: D3
Note ON: Time 26759, Note Name: F#2, Velocity: 60
Note OFF: Time 26771, Note Name: C3
Note ON: Time 26878, Note Name: B1, Velocity: 70
Note OFF: Time 26879, Note Name: F#2
Note ON: Time 27000, Note Name: B2, Velocity: 54
Note OFF: Time 27010, Note Name: B1
Note ON: Time 27120, Note Name: D3, Velocity: 57
Note OFF: Time 27132, Note Name: B2
Note ON: Time 27236, Note Name: G3, Velocity: 61
Note OFF: Time 27252, Note Name: D3
Note ON: Time 27358, Note Name: D4, Velocity: 61
Note OFF: Time 27368, Note Name: G3
Note ON: Time 27483, Note Name: G3, Velocity: 60
Note OFF: Time 27490, Note Name: D4
Note ON: Time 27598, Note Name: D3, Velocity: 59
Note OFF: Time 27615, Note Name: G3
Note ON: Time 27724, Note Name: B2, Velocity: 61
Note OFF: Time 27730, Note Name: D3
Note OFF: Time 27844, Note Name: B2
Note ON: Time 27845, Note Name: A#1, Velocity: 57
Note ON: Time 27964, Note Name: A#2, Velocity: 59
Note OFF: Time 27977, Note Name: A#1
Note ON: Time 28082, Note Name: C#3, Velocity: 62
Note OFF: Time 28096, Note Name: A#2
Note ON: Time 28198, Note Name: G3, Velocity: 64
Note OFF: Time 28214, Note Name: C#3
Note ON: Time 28325, Note Name: C#4, Velocity: 67
Note OFF: Time 28330, Note Name: G3
Note ON: Time 28436, Note Name: G3, Velocity: 65
Note OFF: Time 28457, Note Name: C#4
Note ON: Time 28555, Note Name: C#3, Velocity: 66
Note OFF: Time 28568, Note Name: G3
Note ON: Time 28683, Note Name: A#2, Velocity: 65
Note OFF: Time 28687, Note Name: C#3
Note ON: Time 28800, Note Name: A1, Velocity: 60
Note OFF: Time 28803, Note Name: A#2
Note ON: Time 28921, Note Name: A2, Velocity: 62
Note OFF: Time 28932, Note Name: A1
Note ON: Time 29045, Note Name: C3, Velocity: 63
Note OFF: Time 29053, Note Name: A2
Note ON: Time 29155, Note Name: F3, Velocity: 65
Note OFF: Time 29177, Note Name: C3
Note ON: Time 29284, Note Name: C4, Velocity: 67
Note OFF: Time 29287, Note Name: F3
Note ON: Time 29402, Note Name: F3, Velocity: 60
Note OFF: Time 29416, Note Name: C4
Note ON: Time 29518, Note Name: C3, Velocity: 62
Note OFF: Time 29534, Note Name: F3
Note ON: Time 29636, Note Name: A2, Velocity: 60
Note OFF: Time 29650, Note Name: C3
Note OFF: Time 29756, Note Name: A2
Note ON: Time 29760, Note Name: G#1, Velocity: 57
Note ON: Time 29877, Note Name: G#2, Velocity: 59
Note OFF: Time 29892, Note Name: G#1
Note ON: Time 29998, Note Name: C3, Velocity: 59
Note OFF: Time 30009, Note Name: G#2
Note ON: Time 30125, Note Name: F3, Velocity: 56
Note OFF: Time 30130, Note Name: C3
Note ON: Time 30241, Note Name: C4, Velocity: 61
Note OFF: Time 30257, Note Name: F3
Note ON: Time 30362, Note Name: F3, Velocity: 57
Note OFF: Time 30373, Note Name: C4
Note ON: Time 30476, Note Name: C3, Velocity: 55
Note OFF: Time 30494, Note Name: F3
Note ON: Time 30600, Note Name: G#2, Velocity: 51
Note OFF: Time 30608, Note Name: C3
Note ON: Time 30719, Note Name: G1, Velocity: 47
Note OFF: Time 30720, Note Name: G#2
Note ON: Time 30840, Note Name: G2, Velocity: 47
Note OFF: Time 30851, Note Name: G1
Note ON: Time 30963, Note Name: C3, Velocity: 48
Note OFF: Time 30972, Note Name: G2
Note ON: Time 31080, Note Name: B2, Velocity: 47
Note OFF: Time 31095, Note Name: C3
Note ON: Time 31199, Note Name: C#3, Velocity: 51
Note OFF: Time 31212, Note Name: B2
Note ON: Time 31322, Note Name: C3, Velocity: 53
Note OFF: Time 31331, Note Name: C#3
Note ON: Time 31440, Note Name: D3, Velocity: 55
Note OFF: Time 31454, Note Name: C3
Note ON: Time 31561, Note Name: C#3, Velocity: 54
Note OFF: Time 31572, Note Name: D3
Note ON: Time 31679, Note Name: D#3, Velocity: 56
Note OFF: Time 31693, Note Name: C#3
Note ON: Time 31795, Note Name: D3, Velocity: 55
Note OFF: Time 31811, Note Name: D#3
Note ON: Time 31922, Note Name: E3, Velocity: 57
Note OFF: Time 31927, Note Name: D3
Note ON: Time 32036, Note Name: D#3, Velocity: 57
Note OFF: Time 32054, Note Name: E3
Note ON: Time 32161, Note Name: F3, Velocity: 59
Note OFF: Time 32168, Note Name: D#3
Note ON: Time 32284, Note Name: E3, Velocity: 60
Note OFF: Time 32293, Note Name: F3
Note ON: Time 32400, Note Name: F#3, Velocity: 57
Note OFF: Time 32416, Note Name: E3
Note ON: Time 32523, Note Name: F3, Velocity: 57
Note OFF: Time 32532, Note Name: F#3
Note ON: Time 32640, Note Name: G3, Velocity: 54
Note OFF: Time 32655, Note Name: F3
Note ON: Time 32759, Note Name: F#3, Velocity: 54
Note OFF: Time 32772, Note Name: G3
Note ON: Time 32883, Note Name: G#3, Velocity: 54
Note OFF: Time 32891, Note Name: F#3
Note ON: Time 33001, Note Name: G3, Velocity: 54
Note OFF: Time 33015, Note Name: G#3
Note ON: Time 33118, Note Name: A#3, Velocity: 54
Note OFF: Time 33133, Note Name: G3
Note ON: Time 33245, Note Name: G#3, Velocity: 54
Note OFF: Time 33250, Note Name: A#3
Note ON: Time 33361, Note Name: G3, Velocity: 54
Note OFF: Time 33377, Note Name: G#3
Note ON: Time 33476, Note Name: F3, Velocity: 54
Note OFF: Time 33493, Note Name: G3
Note ON: Time 33599, Note Name: D#3, Velocity: 54
Note OFF: Time 33608, Note Name: F3
Note ON: Time 33716, Note Name: D3, Velocity: 54
Note OFF: Time 33731, Note Name: D#3
Note ON: Time 33843, Note Name: C3, Velocity: 52
Note OFF: Time 33848, Note Name: D3
Note ON: Time 33965, Note Name: B2, Velocity: 51
Note OFF: Time 33975, Note Name: C3
Note ON: Time 34081, Note Name: G#2, Velocity: 47
Note OFF: Time 34097, Note Name: B2
Note ON: Time 34195, Note Name: G2, Velocity: 44
Note OFF: Time 34213, Note Name: G#2
Note ON: Time 34318, Note Name: F2, Velocity: 40
Note OFF: Time 34327, Note Name: G2
Note ON: Time 34435, Note Name: D2, Velocity: 37
Note OFF: Time 34450, Note Name: F2
Note OFF: Time 34555, Note Name: D2
Note ON: Time 34562, Note Name: C2, Velocity: 31
Note ON: Time 34676, Note Name: G2, Velocity: 32
Note OFF: Time 34694, Note Name: C2
Note ON: Time 34804, Note Name: C3, Velocity: 35
Note OFF: Time 34808, Note Name: G2
Note ON: Time 34924, Note Name: D3, Velocity: 36
Note OFF: Time 34936, Note Name: C3
Note ON: Time 35041, Note Name: D#3, Velocity: 39
Note OFF: Time 35056, Note Name: D3
Note ON: Time 35162, Note Name: G3, Velocity: 40
Note OFF: Time 35173, Note Name: D#3
Note ON: Time 35284, Note Name: C4, Velocity: 43
Note OFF: Time 35294, Note Name: G3
Note ON: Time 35395, Note Name: D4, Velocity: 44
Note OFF: Time 35416, Note Name: C4
Note ON: Time 35516, Note Name: D#4, Velocity: 47
Note OFF: Time 35527, Note Name: D4
Note ON: Time 35642, Note Name: D4, Velocity: 44
Note OFF: Time 35648, Note Name: D#4
Note ON: Time 35761, Note Name: C4, Velocity: 43
Note OFF: Time 35774, Note Name: D4
Note ON: Time 35877, Note Name: G3, Velocity: 41
Note OFF: Time 35893, Note Name: C4
Note ON: Time 35995, Note Name: D#3, Velocity: 39
Note OFF: Time 36009, Note Name: G3
Note ON: Time 36116, Note Name: D3, Velocity: 37
Note OFF: Time 36127, Note Name: D#3
Note ON: Time 36241, Note Name: C3, Velocity: 35
Note OFF: Time 36248, Note Name: D3
Note ON: Time 36358, Note Name: G2, Velocity: 33
Note OFF: Time 36373, Note Name: C3
Note OFF: Time 36478, Note Name: G2
Note ON: Time 36478, Note Name: C2, Velocity: 31
Note ON: Time 36599, Note Name: G2, Velocity: 35
Note OFF: Time 36610, Note Name: C2
Note ON: Time 36722, Note Name: C3, Velocity: 39
Note OFF: Time 36731, Note Name: G2
Note ON: Time 36843, Note Name: D3, Velocity: 43
Note OFF: Time 36854, Note Name: C3
Note ON: Time 36963, Note Name: D#3, Velocity: 45
Note OFF: Time 36975, Note Name: D3
Note ON: Time 37080, Note Name: D3, Velocity: 42
Note OFF: Time 37095, Note Name: D#3
Note ON: Time 37201, Note Name: C3, Velocity: 39
Note OFF: Time 37212, Note Name: D3
Note ON: Time 37323, Note Name: G2, Velocity: 35
Note OFF: Time 37333, Note Name: C3
Note OFF: Time 37443, Note Name: G2
Note ON: Time 37444, Note Name: C2, Velocity: 32
Note ON: Time 37556, Note Name: G2, Velocity: 34
Note OFF: Time 37576, Note Name: C2
Note ON: Time 37681, Note Name: C3, Velocity: 37
Note OFF: Time 37688, Note Name: G2
Note ON: Time 37799, Note Name: D3, Velocity: 40
Note OFF: Time 37813, Note Name: C3
Note ON: Time 37917, Note Name: D#3, Velocity: 44
Note OFF: Time 37931, Note Name: D3
Note ON: Time 38036, Note Name: D3, Velocity: 44
Note OFF: Time 38049, Note Name: D#3
Note ON: Time 38164, Note Name: C3, Velocity: 42
Note OFF: Time 38168, Note Name: D3
Note ON: Time 38275, Note Name: G2, Velocity: 38
Note OFF: Time 38296, Note Name: C3
Note OFF: Time 38395, Note Name: G2
Note ON: Time 38399, Note Name: C2, Velocity: 31
Note ON: Time 38521, Note Name: G2, Velocity: 33
Note OFF: Time 38531, Note Name: C2
Note ON: Time 38638, Note Name: C3, Velocity: 35
Note OFF: Time 38653, Note Name: G2
Note ON: Time 38761, Note Name: D3, Velocity: 36
Note OFF: Time 38770, Note Name: C3
Note ON: Time 38877, Note Name: D#3, Velocity: 39
Note OFF: Time 38893, Note Name: D3
Note ON: Time 38998, Note Name: G3, Velocity: 40
Note OFF: Time 39009, Note Name: D#3
Note ON: Time 39116, Note Name: C4, Velocity: 42
Note OFF: Time 39130, Note Name: G3
Note ON: Time 39243, Note Name: D4, Velocity: 43
Note OFF: Time 39248, Note Name: C4
Note ON: Time 39356, Note Name: D#4, Velocity: 47
Note OFF: Time 39375, Note Name: D4
Note ON: Time 39478, Note Name: D4, Velocity: 46
Note OFF: Time 39488, Note Name: D#4
Note ON: Time 39603, Note Name: C4, Velocity: 44
Note OFF: Time 39610, Note Name: D4
Note ON: Time 39724, Note Name: G3, Velocity: 43
Note OFF: Time 39735, Note Name: C4
Note ON: Time 39843, Note Name: D#3, Velocity: 41
Note OFF: Time 39856, Note Name: G3
Note ON: Time 39963, Note Name: D3, Velocity: 39
Note OFF: Time 39975, Note Name: D#3
Note ON: Time 40081, Note Name: C3, Velocity: 38
Note OFF: Time 40095, Note Name: D3
Note ON: Time 40198, Note Name: G2, Velocity: 36
Note OFF: Time 40213, Note Name: C3
Note OFF: Time 40318, Note Name: G2
Note ON: Time 40324, Note Name: C2, Velocity: 38
Note ON: Time 40437, Note Name: G2, Velocity: 41
Note OFF: Time 40456, Note Name: C2
Note ON: Time 40564, Note Name: C3, Velocity: 43
Note OFF: Time 40569, Note Name: G2
Note ON: Time 40677, Note Name: D3, Velocity: 47
Note OFF: Time 40696, Note Name: C3
Note ON: Time 40797, Note Name: D#3, Velocity: 50
Note OFF: Time 40809, Note Name: D3
Note ON: Time 40920, Note Name: D3, Velocity: 47
Note OFF: Time 40929, Note Name: D#3
Note ON: Time 41045, Note Name: C3, Velocity: 45
Note OFF: Time 41052, Note Name: D3
Note ON: Time 41155, Note Name: G2, Velocity: 43
Note OFF: Time 41177, Note Name: C3
Note OFF: Time 41275, Note Name: G2
Note ON: Time 41275, Note Name: C2, Velocity: 41
Note ON: Time 41400, Note Name: G2, Velocity: 43
Note OFF: Time 41407, Note Name: C2
Note ON: Time 41519, Note Name: C3, Velocity: 44
Note OFF: Time 41532, Note Name: G2
Note ON: Time 41636, Note Name: D3, Velocity: 49
Note OFF: Time 41651, Note Name: C3
Note ON: Time 41757, Note Name: D#3, Velocity: 51
Note OFF: Time 41768, Note Name: D3
Note ON: Time 41884, Note Name: D3, Velocity: 51
Note OFF: Time 41889, Note Name: D#3
Note ON: Time 41997, Note Name: C3, Velocity: 49
Note OFF: Time 42016, Note Name: D3
Note ON: Time 42116, Note Name: G2, Velocity: 47
Note OFF: Time 42129, Note Name: C3
Note OFF: Time 42236, Note Name: G2
Note ON: Time 42236, Note Name: C2, Velocity: 47
Note ON: Time 42365, Note Name: G2, Velocity: 47
Note OFF: Time 42368, Note Name: C2
Note ON: Time 42475, Note Name: C3, Velocity: 48
Note OFF: Time 42497, Note Name: G2
Note ON: Time 42595, Note Name: D3, Velocity: 50
Note OFF: Time 42607, Note Name: C3
Note ON: Time 42715, Note Name: D#3, Velocity: 51
Note OFF: Time 42727, Note Name: D3
Note ON: Time 42838, Note Name: G3, Velocity: 51
Note OFF: Time 42847, Note Name: D#3
Note ON: Time 42965, Note Name: C4, Velocity: 54
Note OFF: Time 42970, Note Name: G3
Note ON: Time 43079, Note Name: D4, Velocity: 55
Note OFF: Time 43097, Note Name: C4
Note ON: Time 43199, Note Name: D#4, Velocity: 57
Note OFF: Time 43211, Note Name: D4
Note ON: Time 43325, Note Name: D4, Velocity: 55
Note OFF: Time 43331, Note Name: D#4
Note ON: Time 43444, Note Name: C4, Velocity: 55
Note OFF: Time 43457, Note Name: D4
Note ON: Time 43560, Note Name: G3, Velocity: 53
Note OFF: Time 43576, Note Name: C4
Note ON: Time 43684, Note Name: D#3, Velocity: 51
Note OFF: Time 43692, Note Name: G3
Note ON: Time 43802, Note Name: D3, Velocity: 50
Note OFF: Time 43816, Note Name: D#3
Note ON: Time 43919, Note Name: C3, Velocity: 48
Note OFF: Time 43934, Note Name: D3
Note ON: Time 44037, Note Name: G2, Velocity: 47
Note OFF: Time 44051, Note Name: C3
Note ON: Time 44155, Note Name: C2, Velocity: 57
Note OFF: Time 44157, Note Name: G2
Note ON: Time 44280, Note Name: G2, Velocity: 48
Note OFF: Time 44287, Note Name: C2
Note ON: Time 44405, Note Name: C3, Velocity: 50
Note OFF: Time 44412, Note Name: G2
Note ON: Time 44519, Note Name: D3, Velocity: 51
Note OFF: Time 44537, Note Name: C3
Note ON: Time 44637, Note Name: D#3, Velocity: 54
Note OFF: Time 44651, Note Name: D3
Note ON: Time 44761, Note Name: D3, Velocity: 52
Note OFF: Time 44769, Note Name: D#3
Note ON: Time 44877, Note Name: C3, Velocity: 51
Note OFF: Time 44893, Note Name: D3
Note ON: Time 45000, Note Name: F2, Velocity: 49
Note OFF: Time 45009, Note Name: C3
Note OFF: Time 45120, Note Name: F2
Note ON: Time 45125, Note Name: C2, Velocity: 57
Note ON: Time 45239, Note Name: G2, Velocity: 49
Note OFF: Time 45257, Note Name: C2
Note ON: Time 45364, Note Name: C3, Velocity: 51
Note OFF: Time 45371, Note Name: G2
Note ON: Time 45475, Note Name: D3, Velocity: 53
Note OFF: Time 45496, Note Name: C3
Note ON: Time 45605, Note Name: D#3, Velocity: 55
Note OFF: Time 45607, Note Name: D3
Note ON: Time 45721, Note Name: D3, Velocity: 54
Note OFF: Time 45737, Note Name: D#3
Note ON: Time 45843, Note Name: C3, Velocity: 53
Note OFF: Time 45853, Note Name: D3
Note ON: Time 45960, Note Name: F2, Velocity: 51
Note OFF: Time 45975, Note Name: C3
Note ON: Time 46076, Note Name: D2, Velocity: 73
Note OFF: Time 46080, Note Name: F2
Note ON: Time 46197, Note Name: A#2, Velocity: 42
Note OFF: Time 46208, Note Name: D2
Note ON: Time 46319, Note Name: B2, Velocity: 42
Note OFF: Time 46329, Note Name: A#2
Note ON: Time 46435, Note Name: A#2, Velocity: 41
Note OFF: Time 46451, Note Name: B2
Note OFF: Time 46555, Note Name: A#2
Note ON: Time 46559, Note Name: A#3, Velocity: 57
Note ON: Time 46675, Note Name: A#2, Velocity: 44
Note OFF: Time 46691, Note Name: A#3
Note ON: Time 46802, Note Name: B2, Velocity: 44
Note OFF: Time 46807, Note Name: A#2
Note ON: Time 46924, Note Name: A#2, Velocity: 43
Note OFF: Time 46934, Note Name: B2
Note ON: Time 47035, Note Name: D#2, Velocity: 72
Note OFF: Time 47044, Note Name: A#2
Note ON: Time 47163, Note Name: A#2, Velocity: 46
Note OFF: Time 47167, Note Name: D#2
Note ON: Time 47282, Note Name: B2, Velocity: 47
Note OFF: Time 47295, Note Name: A#2
Note ON: Time 47402, Note Name: A#2, Velocity: 47
Note OFF: Time 47414, Note Name: B2
Note OFF: Time 47522, Note Name: A#2
Note ON: Time 47523, Note Name: A#3, Velocity: 63
Note ON: Time 47640, Note Name: A#2, Velocity: 49
Note OFF: Time 47655, Note Name: A#3
Note ON: Time 47762, Note Name: B2, Velocity: 49
Note OFF: Time 47772, Note Name: A#2
Note ON: Time 47876, Note Name: A#2, Velocity: 49
Note OFF: Time 47894, Note Name: B2
Note OFF: Time 47996, Note Name: A#2
Note ON: Time 48002, Note Name: E2, Velocity: 77
Note ON: Time 48123, Note Name: A#2, Velocity: 52
Note OFF: Time 48134, Note Name: E2
Note ON: Time 48243, Note Name: C3, Velocity: 52
Note OFF: Time 48255, Note Name: A#2
Note ON: Time 48355, Note Name: A#2, Velocity: 51
Note OFF: Time 48375, Note Name: C3
Note OFF: Time 48475, Note Name: A#2
Note ON: Time 48484, Note Name: A#3, Velocity: 63
Note ON: Time 48602, Note Name: A#2, Velocity: 54
Note OFF: Time 48616, Note Name: A#3
Note ON: Time 48722, Note Name: C3, Velocity: 54
Note OFF: Time 48734, Note Name: A#2
Note ON: Time 48835, Note Name: A#2, Velocity: 56
Note OFF: Time 48854, Note Name: C3
Note OFF: Time 48955, Note Name: A#2
Note ON: Time 48961, Note Name: F2, Velocity: 84
Note ON: Time 49085, Note Name: A#2, Velocity: 57
Note OFF: Time 49093, Note Name: F2
Note ON: Time 49195, Note Name: A#3, Velocity: 57
Note OFF: Time 49217, Note Name: A#2
Note ON: Time 49318, Note Name: A#2, Velocity: 57
Note OFF: Time 49327, Note Name: A#3
Note ON: Time 49436, Note Name: F#2, Velocity: 73
Note OFF: Time 49438, Note Name: A#2
Note ON: Time 49565, Note Name: A#2, Velocity: 60
Note OFF: Time 49568, Note Name: F#2
Note ON: Time 49681, Note Name: A#3, Velocity: 60
Note OFF: Time 49697, Note Name: A#2
Note ON: Time 49798, Note Name: A#2, Velocity: 59
Note OFF: Time 49813, Note Name: A#3
Note OFF: Time 49918, Note Name: A#2
Note ON: Time 49925, Note Name: F2, Velocity: 79
Note ON: Time 50039, Note Name: A#2, Velocity: 63
Note OFF: Time 50057, Note Name: F2
Note ON: Time 50162, Note Name: D3, Velocity: 65
Note OFF: Time 50171, Note Name: A#2
Note ON: Time 50277, Note Name: F3, Velocity: 68
Note OFF: Time 50294, Note Name: D3
Note ON: Time 50396, Note Name: A#3, Velocity: 71
Note OFF: Time 50409, Note Name: F3
Note ON: Time 50517, Note Name: D4, Velocity: 73
Note OFF: Time 50528, Note Name: A#3
Note OFF: Time 50637, Note Name: D4
Note ON: Time 50640, Note Name: G4, Velocity: 74
Note OFF: Time 50820, Note Name: G4
Note ON: Time 50820, Note Name: F4, Velocity: 76
Note OFF: Time 50880, Note Name: F4
Note ON: Time 50880, Note Name: F4, Velocity: 79
Note ON: Time 51004, Note Name: D4, Velocity: 76
Note OFF: Time 51012, Note Name: F4
Note ON: Time 51119, Note Name: A#3, Velocity: 76
Note OFF: Time 51136, Note Name: D4
Note ON: Time 51235, Note Name: G3, Velocity: 73
Note OFF: Time 51251, Note Name: A#3
Note ON: Time 51363, Note Name: F3, Velocity: 71
Note OFF: Time 51367, Note Name: G3
Note ON: Time 51476, Note Name: D#3, Velocity: 67
Note OFF: Time 51495, Note Name: F3
Note ON: Time 51605, Note Name: C3, Velocity: 65
Note OFF: Time 51608, Note Name: D#3
Note ON: Time 51723, Note Name: F2, Velocity: 61
Note OFF: Time 51737, Note Name: C3
Note ON: Time 51844, Note Name: A#1, Velocity: 61
Note OFF: Time 51855, Note Name: F2
Note ON: Time 51957, Note Name: C#3, Velocity: 63
Note OFF: Time 51964, Note Name: A#1
Note ON: Time 52080, Note Name: C3, Velocity: 62
Note OFF: Time 52089, Note Name: C#3
Note ON: Time 52195, Note Name: B2, Velocity: 59
Note OFF: Time 52212, Note Name: C3
Note ON: Time 52323, Note Name: A#2, Velocity: 57
Note OFF: Time 52327, Note Name: B2
Note ON: Time 52436, Note Name: C3, Velocity: 63
Note OFF: Time 52455, Note Name: A#2
Note ON: Time 52559, Note Name: B2, Velocity: 61
Note OFF: Time 52568, Note Name: C3
Note ON: Time 52678, Note Name: A#2, Velocity: 59
Note OFF: Time 52691, Note Name: B2
Note ON: Time 52805, Note Name: A2, Velocity: 56
Note OFF: Time 52810, Note Name: A#2
Note ON: Time 52915, Note Name: B2, Velocity: 64
Note OFF: Time 52937, Note Name: A2
Note ON: Time 53037, Note Name: A#2, Velocity: 61
Note OFF: Time 53047, Note Name: B2
Note ON: Time 53157, Note Name: A2, Velocity: 59
Note OFF: Time 53169, Note Name: A#2
Note ON: Time 53277, Note Name: G#2, Velocity: 64
Note OFF: Time 53289, Note Name: A2
Note ON: Time 53396, Note Name: A#2, Velocity: 55
Note OFF: Time 53409, Note Name: G#2
Note ON: Time 53521, Note Name: A2, Velocity: 61
Note OFF: Time 53528, Note Name: A#2
Note ON: Time 53644, Note Name: G#2, Velocity: 66
Note OFF: Time 53653, Note Name: A2
Note OFF: Time 53764, Note Name: G#2
Note ON: Time 53765, Note Name: G#1, Velocity: 71
Note OFF: Time 53885, Note Name: G#1
Note ON: Time 53997, Note Name: G2, Velocity: 50
Note ON: Time 54123, Note Name: G#2, Velocity: 52
Note OFF: Time 54129, Note Name: G2
Note ON: Time 54242, Note Name: B2, Velocity: 53
Note OFF: Time 54255, Note Name: G#2
Note ON: Time 54362, Note Name: D#3, Velocity: 56
Note OFF: Time 54374, Note Name: B2
Note ON: Time 54485, Note Name: A#2, Velocity: 52
Note OFF: Time 54494, Note Name: D#3
Note ON: Time 54600, Note Name: B2, Velocity: 53
Note OFF: Time 54617, Note Name: A#2
Note ON: Time 54725, Note Name: D#3, Velocity: 56
Note OFF: Time 54732, Note Name: B2
Note ON: Time 54842, Note Name: G#3, Velocity: 57
Note OFF: Time 54857, Note Name: D#3
Note ON: Time 54956, Note Name: D3, Velocity: 54
Note OFF: Time 54974, Note Name: G#3
Note ON: Time 55081, Note Name: D#3, Velocity: 56
Note OFF: Time 55088, Note Name: D3
Note ON: Time 55201, Note Name: G#3, Velocity: 59
Note OFF: Time 55213, Note Name: D#3
Note ON: Time 55319, Note Name: B3, Velocity: 62
Note OFF: Time 55333, Note Name: G#3
Note ON: Time 55445, Note Name: G3, Velocity: 61
Note OFF: Time 55451, Note Name: B3
Note ON: Time 55560, Note Name: G#3, Velocity: 65
Note OFF: Time 55577, Note Name: G3
Note OFF: Time 55680, Note Name: G#3
Note ON: Time 55681, Note Name: D#2, Velocity: 71
Note OFF: Time 55741, Note Name: D#2
Note ON: Time 55800, Note Name: D#4, Velocity: 55
Note ON: Time 55917, Note Name: F3, Velocity: 56
Note OFF: Time 55932, Note Name: D#4
Note ON: Time 56039, Note Name: F#3, Velocity: 55
Note OFF: Time 56049, Note Name: F3
Note ON: Time 56158, Note Name: A#3, Velocity: 59
Note OFF: Time 56171, Note Name: F#3
Note ON: Time 56275, Note Name: D#4, Velocity: 61
Note OFF: Time 56290, Note Name: A#3
Note ON: Time 56403, Note Name: D3, Velocity: 51
Note OFF: Time 56407, Note Name: D#4
Note ON: Time 56517, Note Name: D#3, Velocity: 54
Note OFF: Time 56535, Note Name: D3
Note ON: Time 56635, Note Name: F#3, Velocity: 59
Note OFF: Time 56649, Note Name: D#3
Note ON: Time 56759, Note Name: A#3, Velocity: 61
Note OFF: Time 56767, Note Name: F#3
Note ON: Time 56881, Note Name: A2, Velocity: 54
Note OFF: Time 56891, Note Name: A#3
Note ON: Time 56995, Note Name: A#2, Velocity: 56
Note OFF: Time 57013, Note Name: A2
Note ON: Time 57117, Note Name: D#3, Velocity: 57
Note OFF: Time 57127, Note Name: A#2
Note ON: Time 57236, Note Name: F#3, Velocity: 61
Note OFF: Time 57249, Note Name: D#3
Note ON: Time 57362, Note Name: F2, Velocity: 63
Note OFF: Time 57368, Note Name: F#3
Note ON: Time 57479, Note Name: F#2, Velocity: 69
Note OFF: Time 57494, Note Name: F2
Note OFF: Time 57599, Note Name: F#2
Note ON: Time 57601, Note Name: F#1, Velocity: 74
Note OFF: Time 57721, Note Name: F#1
Note ON: Time 57842, Note Name: F2, Velocity: 49
Note ON: Time 57959, Note Name: F#2, Velocity: 50
Note OFF: Time 57974, Note Name: F2
Note ON: Time 58082, Note Name: A2, Velocity: 52
Note OFF: Time 58091, Note Name: F#2
Note ON: Time 58199, Note Name: C#3, Velocity: 55
Note OFF: Time 58214, Note Name: A2
Note ON: Time 58324, Note Name: G#2, Velocity: 51
Note OFF: Time 58331, Note Name: C#3
Note ON: Time 58441, Note Name: A2, Velocity: 52
Note OFF: Time 58456, Note Name: G#2
Note ON: Time 58557, Note Name: C#3, Velocity: 54
Note OFF: Time 58573, Note Name: A2
Note ON: Time 58685, Note Name: F#3, Velocity: 56
Note OFF: Time 58689, Note Name: C#3
Note ON: Time 58804, Note Name: C3, Velocity: 54
Note OFF: Time 58817, Note Name: F#3
Note ON: Time 58919, Note Name: C#3, Velocity: 56
Note OFF: Time 58936, Note Name: C3
Note ON: Time 59045, Note Name: F#3, Velocity: 57
Note OFF: Time 59051, Note Name: C#3
Note ON: Time 59157, Note Name: A3, Velocity: 61
Note OFF: Time 59177, Note Name: F#3
Note ON: Time 59284, Note Name: F3, Velocity: 65
Note OFF: Time 59289, Note Name: A3
Note ON: Time 59401, Note Name: F#3, Velocity: 67
Note OFF: Time 59416, Note Name: F3
Note ON: Time 59519, Note Name: C#2, Velocity: 70
Note OFF: Time 59521, Note Name: F#3
Note OFF: Time 59579, Note Name: C#2
Note ON: Time 59641, Note Name: C#4, Velocity: 60
Note ON: Time 59762, Note Name: D#3, Velocity: 53
Note OFF: Time 59773, Note Name: C#4
Note ON: Time 59875, Note Name: E3, Velocity: 56
Note OFF: Time 59894, Note Name: D#3
Note ON: Time 59998, Note Name: G#3, Velocity: 59
Note OFF: Time 60007, Note Name: E3
Note ON: Time 60117, Note Name: C#4, Velocity: 61
Note OFF: Time 60130, Note Name: G#3
Note ON: Time 60239, Note Name: C3, Velocity: 54
Note OFF: Time 60249, Note Name: C#4
Note ON: Time 60364, Note Name: C#3, Velocity: 55
Note OFF: Time 60371, Note Name: C3
Note ON: Time 60482, Note Name: E3, Velocity: 59
Note OFF: Time 60496, Note Name: C#3
Note ON: Time 60603, Note Name: G#3, Velocity: 62
Note OFF: Time 60614, Note Name: E3
Note ON: Time 60724, Note Name: G2, Velocity: 53
Note OFF: Time 60735, Note Name: G#3
Note ON: Time 60839, Note Name: G#2, Velocity: 56
Note OFF: Time 60856, Note Name: G2
Note ON: Time 60959, Note Name: C#3, Velocity: 57
Note OFF: Time 60971, Note Name: G#2
Note ON: Time 61084, Note Name: E3, Velocity: 61
Note OFF: Time 61091, Note Name: C#3
Note ON: Time 61198, Note Name: D#2, Velocity: 62
Note OFF: Time 61216, Note Name: E3
Note ON: Time 61319, Note Name: E2, Velocity: 65
Note OFF: Time 61330, Note Name: D#2
Note OFF: Time 61439, Note Name: E2
Note ON: Time 61441, Note Name: C2, Velocity: 70
Note OFF: Time 61501, Note Name: C2
Note ON: Time 61558, Note Name: D#4, Velocity: 60
Note ON: Time 61683, Note Name: G3, Velocity: 57
Note OFF: Time 61690, Note Name: D#4
Note ON: Time 61803, Note Name: G#3, Velocity: 59
Note OFF: Time 61815, Note Name: G3
Note ON: Time 61923, Note Name: A3, Velocity: 60
Note OFF: Time 61935, Note Name: G#3
Note ON: Time 62043, Note Name: G#3, Velocity: 61
Note OFF: Time 62055, Note Name: A3
Note ON: Time 62156, Note Name: F#3, Velocity: 63
Note OFF: Time 62175, Note Name: G#3
Note ON: Time 62277, Note Name: E3, Velocity: 64
Note OFF: Time 62288, Note Name: F#3
Note ON: Time 62397, Note Name: D#3, Velocity: 66
Note OFF: Time 62409, Note Name: E3
Note ON: Time 62522, Note Name: C#3, Velocity: 65
Note OFF: Time 62529, Note Name: D#3
Note ON: Time 62645, Note Name: C3, Velocity: 68
Note OFF: Time 62654, Note Name: C#3
Note ON: Time 62759, Note Name: A2, Velocity: 70
Note OFF: Time 62777, Note Name: C3
Note ON: Time 62880, Note Name: G2, Velocity: 71
Note OFF: Time 62891, Note Name: A2
Note ON: Time 62996, Note Name: G#2, Velocity: 71
Note OFF: Time 63012, Note Name: G2
Note ON: Time 63124, Note Name: D#2, Velocity: 74
Note OFF: Time 63128, Note Name: G#2
Note ON: Time 63237, Note Name: G#2, Velocity: 75
Note OFF: Time 63256, Note Name: D#2
Note OFF: Time 63357, Note Name: G#2
Note ON: Time 63360, Note Name: D2, Velocity: 77
Note OFF: Time 63420, Note Name: D2
Note ON: Time 63482, Note Name: F4, Velocity: 73
Note ON: Time 63599, Note Name: A3, Velocity: 73
Note OFF: Time 63614, Note Name: F4
Note ON: Time 63722, Note Name: A#3, Velocity: 71
Note OFF: Time 63731, Note Name: A3
Note ON: Time 63835, Note Name: B3, Velocity: 72
Note OFF: Time 63854, Note Name: A#3
Note ON: Time 63955, Note Name: A#3, Velocity: 69
Note OFF: Time 63967, Note Name: B3
Note ON: Time 64075, Note Name: G#3, Velocity: 71
Note OFF: Time 64087, Note Name: A#3
Note ON: Time 64195, Note Name: F#3, Velocity: 69
Note OFF: Time 64207, Note Name: G#3
Note ON: Time 64318, Note Name: F3, Velocity: 68
Note OFF: Time 64327, Note Name: F#3
Note ON: Time 64438, Note Name: D#3, Velocity: 67
Note OFF: Time 64450, Note Name: F3
Note ON: Time 64562, Note Name: D3, Velocity: 67
Note OFF: Time 64570, Note Name: D#3
Note ON: Time 64676, Note Name: B2, Velocity: 66
Note OFF: Time 64694, Note Name: D3
Note ON: Time 64799, Note Name: A2, Velocity: 64
Note OFF: Time 64808, Note Name: B2
Note ON: Time 64915, Note Name: A#2, Velocity: 63
Note OFF: Time 64931, Note Name: A2
Note ON: Time 65042, Note Name: F2, Velocity: 63
Note OFF: Time 65047, Note Name: A#2
Note ON: Time 65162, Note Name: A#2, Velocity: 62
Note OFF: Time 65174, Note Name: F2
Note ON: Time 65277, Note Name: E2, Velocity: 60
Note OFF: Time 65282, Note Name: A#2
Note OFF: Time 65337, Note Name: E2
Note ON: Time 65402, Note Name: G4, Velocity: 57
Note ON: Time 65521, Note Name: B3, Velocity: 57
Note OFF: Time 65534, Note Name: G4
Note ON: Time 65642, Note Name: C4, Velocity: 56
Note OFF: Time 65653, Note Name: B3
Note ON: Time 65760, Note Name: C#4, Velocity: 59
Note OFF: Time 65774, Note Name: C4
Note ON: Time 65876, Note Name: C4, Velocity: 59
Note OFF: Time 65892, Note Name: C#4
Note ON: Time 66000, Note Name: A#3, Velocity: 59
Note OFF: Time 66008, Note Name: C4
Note ON: Time 66115, Note Name: G#3, Velocity: 57
Note OFF: Time 66132, Note Name: A#3
Note ON: Time 66245, Note Name: G3, Velocity: 57
Note OFF: Time 66247, Note Name: G#3
Note ON: Time 66360, Note Name: F3, Velocity: 57
Note OFF: Time 66377, Note Name: G3
Note ON: Time 66485, Note Name: E3, Velocity: 57
Note OFF: Time 66492, Note Name: F3
Note ON: Time 66603, Note Name: G3, Velocity: 55
Note OFF: Time 66617, Note Name: E3
Note ON: Time 66720, Note Name: F3, Velocity: 56
Note OFF: Time 66735, Note Name: G3
Note ON: Time 66842, Note Name: E3, Velocity: 56
Note OFF: Time 66852, Note Name: F3
Note ON: Time 66962, Note Name: C#3, Velocity: 55
Note OFF: Time 66974, Note Name: E3
Note ON: Time 67079, Note Name: C3, Velocity: 52
Note OFF: Time 67094, Note Name: C#3
Note ON: Time 67199, Note Name: B2, Velocity: 55
Note OFF: Time 67211, Note Name: C3
Note ON: Time 67315, Note Name: C3, Velocity: 55
Note OFF: Time 67331, Note Name: B2
Note ON: Time 67443, Note Name: C#3, Velocity: 57
Note OFF: Time 67447, Note Name: C3
Note ON: Time 67556, Note Name: C3, Velocity: 55
Note OFF: Time 67575, Note Name: C#3
Note ON: Time 67675, Note Name: A#2, Velocity: 57
Note OFF: Time 67688, Note Name: C3
Note ON: Time 67798, Note Name: G#2, Velocity: 59
Note OFF: Time 67807, Note Name: A#2
Note ON: Time 67923, Note Name: G2, Velocity: 60
Note OFF: Time 67930, Note Name: G#2
Note ON: Time 68037, Note Name: F2, Velocity: 62
Note OFF: Time 68055, Note Name: G2
Note ON: Time 68158, Note Name: E2, Velocity: 63
Note OFF: Time 68169, Note Name: F2
Note ON: Time 68280, Note Name: C#2, Velocity: 63
Note OFF: Time 68303, Note Name: E2
Note ON: Time 68395, Note Name: C2, Velocity: 67
Note OFF: Time 68425, Note Name: C#2
Note ON: Time 68519, Note Name: B1, Velocity: 67
Note OFF: Time 68540, Note Name: C2
Note ON: Time 68640, Note Name: C2, Velocity: 71
Note OFF: Time 68664, Note Name: B1
Note ON: Time 68761, Note Name: A#1, Velocity: 70
Note OFF: Time 68785, Note Name: C2
Note ON: Time 68883, Note Name: G#1, Velocity: 74
Note OFF: Time 68906, Note Name: A#1
Note ON: Time 68999, Note Name: G1, Velocity: 73
Note OFF: Time 69028, Note Name: G#1
Note ON: Time 69118, Note Name: F1, Velocity: 76
Note OFF: Time 69119, Note Name: G1
Note ON: Time 69244, Note Name: C2, Velocity: 63
Note OFF: Time 69250, Note Name: F1
Note ON: Time 69365, Note Name: F2, Velocity: 63
Note OFF: Time 69376, Note Name: C2
Note ON: Time 69481, Note Name: G2, Velocity: 63
Note OFF: Time 69497, Note Name: F2
Note ON: Time 69605, Note Name: G#2, Velocity: 63
Note OFF: Time 69613, Note Name: G2
Note ON: Time 69715, Note Name: C3, Velocity: 64
Note OFF: Time 69737, Note Name: G#2
Note ON: Time 69841, Note Name: F3, Velocity: 68
Note OFF: Time 69847, Note Name: C3
Note ON: Time 69964, Note Name: G3, Velocity: 68
Note OFF: Time 69973, Note Name: F3
Note ON: Time 70079, Note Name: G#3, Velocity: 72
Note OFF: Time 70096, Note Name: G3
Note ON: Time 70198, Note Name: C4, Velocity: 75
Note OFF: Time 70211, Note Name: G#3
Note ON: Time 70318, Note Name: F4, Velocity: 76
Note OFF: Time 70330, Note Name: C4
Note ON: Time 70435, Note Name: G4, Velocity: 77
Note OFF: Time 70450, Note Name: F4
Note ON: Time 70561, Note Name: G#4, Velocity: 79
Note OFF: Time 70567, Note Name: G4
Note ON: Time 70679, Note Name: G4, Velocity: 77
Note OFF: Time 70693, Note Name: G#4
Note ON: Time 70795, Note Name: F4, Velocity: 71
Note OFF: Time 70811, Note Name: G4
Note ON: Time 70915, Note Name: C4, Velocity: 67
Note OFF: Time 70927, Note Name: F4
Note OFF: Time 71035, Note Name: C4
Note ON: Time 71040, Note Name: C#4, Velocity: 64
Note ON: Time 71164, Note Name: F4, Velocity: 63
Note OFF: Time 71172, Note Name: C#4
Note ON: Time 71285, Note Name: C#4, Velocity: 62
Note OFF: Time 71296, Note Name: F4
Note ON: Time 71399, Note Name: G#3, Velocity: 61
Note OFF: Time 71417, Note Name: C#4
Note ON: Time 71523, Note Name: F3, Velocity: 59
Note OFF: Time 71531, Note Name: G#3
Note ON: Time 71641, Note Name: C#3, Velocity: 57
Note OFF: Time 71655, Note Name: F3
Note ON: Time 71763, Note Name: G#2, Velocity: 57
Note OFF: Time 71773, Note Name: C#3
Note ON: Time 71884, Note Name: F2, Velocity: 56
Note OFF: Time 71895, Note Name: G#2
Note ON: Time 72001, Note Name: C#2, Velocity: 55
Note OFF: Time 72004, Note Name: F2
Note ON: Time 72121, Note Name: G#1, Velocity: 54
Note OFF: Time 72159, Note Name: C#2
Note ON: Time 72235, Note Name: C#2, Velocity: 55
Note OFF: Time 72279, Note Name: G#1
Note ON: Time 72363, Note Name: F2, Velocity: 52
Note OFF: Time 72393, Note Name: C#2
Note ON: Time 72480, Note Name: C#2, Velocity: 55
Note OFF: Time 72507, Note Name: F2
Note ON: Time 72601, Note Name: G#1, Velocity: 54
Note OFF: Time 72638, Note Name: C#2
Note ON: Time 72721, Note Name: C#2, Velocity: 55
Note OFF: Time 72759, Note Name: G#1
Note ON: Time 72841, Note Name: F2, Velocity: 53
Note OFF: Time 72879, Note Name: C#2
Note OFF: Time 72961, Note Name: F2
Note ON: Time 72963, Note Name: F1, Velocity: 55
Note ON: Time 73082, Note Name: C2, Velocity: 53
Note OFF: Time 73095, Note Name: F1
Note ON: Time 73198, Note Name: F2, Velocity: 55
Note OFF: Time 73214, Note Name: C2
Note ON: Time 73315, Note Name: G2, Velocity: 53
Note OFF: Time 73330, Note Name: F2
Note ON: Time 73437, Note Name: G#2, Velocity: 56
Note OFF: Time 73447, Note Name: G2
Note ON: Time 73558, Note Name: C3, Velocity: 57
Note OFF: Time 73569, Note Name: G#2
Note ON: Time 73677, Note Name: F3, Velocity: 57
Note OFF: Time 73690, Note Name: C3
Note ON: Time 73803, Note Name: G3, Velocity: 57
Note OFF: Time 73809, Note Name: F3
Note ON: Time 73919, Note Name: G#3, Velocity: 59
Note OFF: Time 73935, Note Name: G3
Note ON: Time 74044, Note Name: C4, Velocity: 57
Note OFF: Time 74051, Note Name: G#3
Note ON: Time 74156, Note Name: F4, Velocity: 59
Note OFF: Time 74176, Note Name: C4
Note ON: Time 74282, Note Name: G4, Velocity: 57
Note OFF: Time 74288, Note Name: F4
Note ON: Time 74401, Note Name: G#4, Velocity: 60
Note OFF: Time 74414, Note Name: G4
Note ON: Time 74524, Note Name: G4, Velocity: 63
Note OFF: Time 74533, Note Name: G#4
Note ON: Time 74637, Note Name: F4, Velocity: 60
Note OFF: Time 74656, Note Name: G4
Note ON: Time 74760, Note Name: C4, Velocity: 57
Note OFF: Time 74769, Note Name: F4
Note OFF: Time 74880, Note Name: C4
Note ON: Time 74884, Note Name: D4, Velocity: 59
Note ON: Time 75003, Note Name: F4, Velocity: 57
Note OFF: Time 75016, Note Name: D4
Note ON: Time 75125, Note Name: D4, Velocity: 59
Note OFF: Time 75135, Note Name: F4
Note ON: Time 75237, Note Name: C4, Velocity: 57
Note OFF: Time 75257, Note Name: D4
Note ON: Time 75364, Note Name: G#3, Velocity: 59
Note OFF: Time 75369, Note Name: C4
Note ON: Time 75483, Note Name: F3, Velocity: 59
Note OFF: Time 75496, Note Name: G#3
Note ON: Time 75605, Note Name: D3, Velocity: 59
Note OFF: Time 75615, Note Name: F3
Note ON: Time 75724, Note Name: C3, Velocity: 57
Note OFF: Time 75737, Note Name: D3
Note ON: Time 75844, Note Name: G#2, Velocity: 57
Note OFF: Time 75856, Note Name: C3
Note ON: Time 75961, Note Name: F2, Velocity: 57
Note OFF: Time 75976, Note Name: G#2
Note ON: Time 76077, Note Name: D2, Velocity: 57
Note OFF: Time 76093, Note Name: F2
Note ON: Time 76201, Note Name: C2, Velocity: 55
Note OFF: Time 76209, Note Name: D2
Note ON: Time 76317, Note Name: G#1, Velocity: 57
Note OFF: Time 76333, Note Name: C2
Note ON: Time 76437, Note Name: C2, Velocity: 61
Note OFF: Time 76449, Note Name: G#1
Note ON: Time 76563, Note Name: D2, Velocity: 65
Note OFF: Time 76569, Note Name: C2
Note ON: Time 76683, Note Name: G#2, Velocity: 68
Note OFF: Time 76695, Note Name: D2
Note ON: Time 76796, Note Name: G1, Velocity: 79
Note ON: Time 76802, Note Name: G2, Velocity: 79
Note OFF: Time 76803, Note Name: G#2
Note OFF: Time 77036, Note Name: G1
Note ON: Time 77040, Note Name: G#4, Velocity: 73
Note OFF: Time 77042, Note Name: G2
Note ON: Time 77155, Note Name: G4, Velocity: 72
Note OFF: Time 77172, Note Name: G#4
Note ON: Time 77283, Note Name: F4, Velocity: 79
Note OFF: Time 77287, Note Name: G4
Note ON: Time 77404, Note Name: D4, Velocity: 72
Note OFF: Time 77415, Note Name: F4
Note ON: Time 77516, Note Name: D#4, Velocity: 72
Note OFF: Time 77536, Note Name: D4
Note ON: Time 77638, Note Name: D4, Velocity: 69
Note OFF: Time 77648, Note Name: D#4
Note ON: Time 77761, Note Name: B3, Velocity: 79
Note OFF: Time 77770, Note Name: D4
Note ON: Time 77880, Note Name: G3, Velocity: 72
Note OFF: Time 77893, Note Name: B3
Note ON: Time 78003, Note Name: G#3, Velocity: 72
Note OFF: Time 78012, Note Name: G3
Note ON: Time 78117, Note Name: G3, Velocity: 70
Note OFF: Time 78135, Note Name: G#3
Note ON: Time 78243, Note Name: F3, Velocity: 79
Note OFF: Time 78249, Note Name: G3
Note ON: Time 78365, Note Name: D3, Velocity: 71
Note OFF: Time 78375, Note Name: F3
Note ON: Time 78475, Note Name: D#3, Velocity: 71
Note OFF: Time 78497, Note Name: D3
Note ON: Time 78602, Note Name: D3, Velocity: 70
Note OFF: Time 78607, Note Name: D#3
Note ON: Time 78722, Note Name: B2, Velocity: 79
Note OFF: Time 78734, Note Name: D3
Note ON: Time 78836, Note Name: G2, Velocity: 70
Note OFF: Time 78854, Note Name: B2
Note ON: Time 78955, Note Name: G#2, Velocity: 71
Note OFF: Time 78968, Note Name: G2
Note ON: Time 79078, Note Name: G2, Velocity: 69
Note OFF: Time 79087, Note Name: G#2
Note ON: Time 79202, Note Name: F2, Velocity: 79
Note OFF: Time 79210, Note Name: G2
Note ON: Time 79324, Note Name: D2, Velocity: 70
Note OFF: Time 79334, Note Name: F2
Note ON: Time 79441, Note Name: D#2, Velocity: 71
Note OFF: Time 79456, Note Name: D2
Note ON: Time 79559, Note Name: D2, Velocity: 68
Note OFF: Time 79573, Note Name: D#2
Note OFF: Time 79679, Note Name: D2
Note ON: Time 79683, Note Name: C2, Velocity: 79
Note ON: Time 79797, Note Name: G1, Velocity: 69
Note OFF: Time 79841, Note Name: C2
Note ON: Time 79922, Note Name: C2, Velocity: 72
Note OFF: Time 79955, Note Name: G1
Note ON: Time 80037, Note Name: G1, Velocity: 71
Note OFF: Time 80080, Note Name: C2
Note ON: Time 80157, Note Name: C2, Velocity: 75
Note OFF: Time 80195, Note Name: G1
Note ON: Time 80285, Note Name: G1, Velocity: 76
Note OFF: Time 80315, Note Name: C2
Note ON: Time 80398, Note Name: C2, Velocity: 77
Note OFF: Time 80443, Note Name: G1
Note ON: Time 80515, Note Name: G1, Velocity: 76
Note OFF: Time 80556, Note Name: C2
Note OFF: Time 80635, Note Name: G1
Note ON: Time 80643, Note Name: B1, Velocity: 79
Note OFF: Time 80763, Note Name: B1
Note ON: Time 80876, Note Name: G#4, Velocity: 71
Note ON: Time 80995, Note Name: G4, Velocity: 71
Note OFF: Time 81008, Note Name: G#4
Note ON: Time 81115, Note Name: F4, Velocity: 79
Note OFF: Time 81127, Note Name: G4
Note ON: Time 81238, Note Name: D4, Velocity: 72
Note OFF: Time 81247, Note Name: F4
Note ON: Time 81362, Note Name: D#4, Velocity: 72
Note OFF: Time 81370, Note Name: D4
Note ON: Time 81478, Note Name: D4, Velocity: 71
Note OFF: Time 81494, Note Name: D#4
Note ON: Time 81599, Note Name: B3, Velocity: 79
Note OFF: Time 81610, Note Name: D4
Note ON: Time 81719, Note Name: G3, Velocity: 71
Note OFF: Time 81731, Note Name: B3
Note ON: Time 81835, Note Name: G#3, Velocity: 71
Note OFF: Time 81851, Note Name: G3
Note ON: Time 81960, Note Name: G3, Velocity: 69
Note OFF: Time 81967, Note Name: G#3
Note ON: Time 82082, Note Name: F3, Velocity: 79
Note OFF: Time 82092, Note Name: G3
Note ON: Time 82198, Note Name: D3, Velocity: 72
Note OFF: Time 82214, Note Name: F3
Note ON: Time 82322, Note Name: D#3, Velocity: 72
Note OFF: Time 82330, Note Name: D3
Note ON: Time 82444, Note Name: D3, Velocity: 71
Note OFF: Time 82454, Note Name: D#3
Note ON: Time 82560, Note Name: B2, Velocity: 79
Note OFF: Time 82576, Note Name: D3
Note ON: Time 82681, Note Name: G2, Velocity: 71
Note OFF: Time 82692, Note Name: B2
Note ON: Time 82795, Note Name: G#2, Velocity: 71
Note OFF: Time 82813, Note Name: G2
Note ON: Time 82920, Note Name: G2, Velocity: 70
Note OFF: Time 82927, Note Name: G#2
Note ON: Time 83037, Note Name: F2, Velocity: 79
Note OFF: Time 83052, Note Name: G2
Note ON: Time 83159, Note Name: D2, Velocity: 71
Note OFF: Time 83169, Note Name: F2
Note ON: Time 83284, Note Name: D#2, Velocity: 71
Note OFF: Time 83291, Note Name: D2
Note ON: Time 83400, Note Name: D2, Velocity: 70
Note OFF: Time 83416, Note Name: D#2
Note ON: Time 83515, Note Name: C2, Velocity: 79
Note OFF: Time 83532, Note Name: D2
Note ON: Time 83641, Note Name: G1, Velocity: 71
Note OFF: Time 83647, Note Name: C2
Note ON: Time 83762, Note Name: C2, Velocity: 73
Note OFF: Time 83773, Note Name: G1
Note ON: Time 83883, Note Name: G1, Velocity: 74
Note OFF: Time 83894, Note Name: C2
Note ON: Time 84004, Note Name: C2, Velocity: 76
Note OFF: Time 84015, Note Name: G1
Note ON: Time 84124, Note Name: G1, Velocity: 76
Note OFF: Time 84136, Note Name: C2
Note ON: Time 84238, Note Name: C2, Velocity: 79
Note OFF: Time 84256, Note Name: G1
Note ON: Time 84364, Note Name: G1, Velocity: 79
Note OFF: Time 84370, Note Name: C2
Note ON: Time 84480, Note Name: B1, Velocity: 79
Note OFF: Time 84484, Note Name: G1
Note OFF: Time 84600, Note Name: B1
Note ON: Time 84722, Note Name: G#5, Velocity: 79
Note ON: Time 84838, Note Name: G5, Velocity: 71
Note OFF: Time 84854, Note Name: G#5
Note ON: Time 84961, Note Name: F5, Velocity: 79
Note OFF: Time 84970, Note Name: G5
Note ON: Time 85078, Note Name: D5, Velocity: 71
Note OFF: Time 85093, Note Name: F5
Note ON: Time 85201, Note Name: D#5, Velocity: 71
Note OFF: Time 85210, Note Name: D5
Note ON: Time 85322, Note Name: D5, Velocity: 70
Note OFF: Time 85333, Note Name: D#5
Note ON: Time 85437, Note Name: B4, Velocity: 79
Note OFF: Time 85454, Note Name: D5
Note ON: Time 85561, Note Name: G4, Velocity: 70
Note OFF: Time 85569, Note Name: B4
Note ON: Time 85680, Note Name: G#4, Velocity: 70
Note OFF: Time 85693, Note Name: G4
Note ON: Time 85805, Note Name: G4, Velocity: 69
Note OFF: Time 85812, Note Name: G#4
Note ON: Time 85922, Note Name: F4, Velocity: 79
Note OFF: Time 85937, Note Name: G4
Note ON: Time 86043, Note Name: D4, Velocity: 71
Note OFF: Time 86054, Note Name: F4
Note ON: Time 86161, Note Name: D#4, Velocity: 71
Note OFF: Time 86175, Note Name: D4
Note ON: Time 86279, Note Name: D4, Velocity: 69
Note OFF: Time 86293, Note Name: D#4
Note ON: Time 86403, Note Name: B3, Velocity: 79
Note OFF: Time 86411, Note Name: D4
Note ON: Time 86523, Note Name: G3, Velocity: 71
Note OFF: Time 86535, Note Name: B3
Note ON: Time 86645, Note Name: G#3, Velocity: 71
Note OFF: Time 86655, Note Name: G3
Note ON: Time 86757, Note Name: G3, Velocity: 69
Note OFF: Time 86777, Note Name: G#3
Note ON: Time 86881, Note Name: F3, Velocity: 79
Note OFF: Time 86889, Note Name: G3
Note ON: Time 87005, Note Name: D3, Velocity: 71
Note OFF: Time 87013, Note Name: F3
Note ON: Time 87121, Note Name: D#3, Velocity: 71
Note OFF: Time 87137, Note Name: D3
Note ON: Time 87245, Note Name: D3, Velocity: 69
Note OFF: Time 87253, Note Name: D#3
Note ON: Time 87360, Note Name: B2, Velocity: 79
Note OFF: Time 87377, Note Name: D3
Note ON: Time 87480, Note Name: G2, Velocity: 71
Note OFF: Time 87492, Note Name: B2
Note ON: Time 87599, Note Name: G#2, Velocity: 71
Note OFF: Time 87612, Note Name: G2
Note ON: Time 87724, Note Name: G2, Velocity: 69
Note OFF: Time 87731, Note Name: G#2
Note ON: Time 87845, Note Name: F2, Velocity: 79
Note OFF: Time 87856, Note Name: G2
Note ON: Time 87957, Note Name: D2, Velocity: 71
Note OFF: Time 87977, Note Name: F2
Note ON: Time 88077, Note Name: D#2, Velocity: 71
Note OFF: Time 88089, Note Name: D2
Note ON: Time 88197, Note Name: D2, Velocity: 69
Note OFF: Time 88209, Note Name: D#2
Note ON: Time 88323, Note Name: C2, Velocity: 69
Note OFF: Time 88329, Note Name: D2
Note ON: Time 88445, Note Name: B1, Velocity: 65
Note OFF: Time 88455, Note Name: C2
Note ON: Time 88561, Note Name: G2, Velocity: 69
Note OFF: Time 88565, Note Name: B1
Note ON: Time 88675, Note Name: F2, Velocity: 68
Note OFF: Time 88693, Note Name: G2
Note ON: Time 88802, Note Name: D#2, Velocity: 67
Note OFF: Time 88807, Note Name: F2
Note ON: Time 88915, Note Name: D2, Velocity: 66
Note OFF: Time 88934, Note Name: D#2
Note ON: Time 89041, Note Name: D#2, Velocity: 65
Note OFF: Time 89047, Note Name: D2
Note ON: Time 89160, Note Name: D2, Velocity: 64
Note OFF: Time 89173, Note Name: D#2
Note ON: Time 89279, Note Name: C2, Velocity: 63
Note OFF: Time 89292, Note Name: D2
Note ON: Time 89395, Note Name: B1, Velocity: 62
Note OFF: Time 89411, Note Name: C2
Note ON: Time 89525, Note Name: A#2, Velocity: 68
Note OFF: Time 89527, Note Name: B1
Note ON: Time 89636, Note Name: G#2, Velocity: 67
Note OFF: Time 89657, Note Name: A#2
Note ON: Time 89761, Note Name: G2, Velocity: 67
Note OFF: Time 89768, Note Name: G#2
Note ON: Time 89875, Note Name: F2, Velocity: 65
Note OFF: Time 89893, Note Name: G2
Note ON: Time 89996, Note Name: G2, Velocity: 64
Note OFF: Time 90007, Note Name: F2
Note ON: Time 90122, Note Name: F2, Velocity: 63
Note OFF: Time 90128, Note Name: G2
Note ON: Time 90238, Note Name: D#2, Velocity: 62
Note OFF: Time 90254, Note Name: F2
Note ON: Time 90358, Note Name: D2, Velocity: 61
Note OFF: Time 90370, Note Name: D#2
Note ON: Time 90482, Note Name: D#3, Velocity: 70
Note OFF: Time 90490, Note Name: D2
Note ON: Time 90599, Note Name: D3, Velocity: 71
Note OFF: Time 90614, Note Name: D#3
Note ON: Time 90719, Note Name: C3, Velocity: 72
Note OFF: Time 90731, Note Name: D3
Note ON: Time 90837, Note Name: B2, Velocity: 73
Note OFF: Time 90864, Note Name: C3
Note ON: Time 90962, Note Name: C3, Velocity: 75
Note OFF: Time 90982, Note Name: B2
Note ON: Time 91076, Note Name: B2, Velocity: 76
Note OFF: Time 91107, Note Name: C3
Note ON: Time 91200, Note Name: G#2, Velocity: 76
Note OFF: Time 91221, Note Name: B2
Note ON: Time 91320, Note Name: G2, Velocity: 77
Note OFF: Time 91345, Note Name: G#2
Note ON: Time 91443, Note Name: G#2, Velocity: 80
Note OFF: Time 91465, Note Name: G2
Note ON: Time 91559, Note Name: G2, Velocity: 82
Note OFF: Time 91588, Note Name: G#2
Note ON: Time 91675, Note Name: F2, Velocity: 84
Note OFF: Time 91704, Note Name: G2
Note ON: Time 91798, Note Name: D#2, Velocity: 86
Note OFF: Time 91820, Note Name: F2
Note ON: Time 91919, Note Name: F2, Velocity: 88
Note OFF: Time 91943, Note Name: D#2
Note ON: Time 92036, Note Name: D#2, Velocity: 90
Note OFF: Time 92064, Note Name: F2
Note ON: Time 92163, Note Name: C2, Velocity: 93
Note OFF: Time 92168, Note Name: D#2
Note ON: Time 92284, Note Name: G2, Velocity: 51
Note OFF: Time 92295, Note Name: C2
Note ON: Time 92402, Note Name: C3, Velocity: 52
Note OFF: Time 92416, Note Name: G2
Note ON: Time 92522, Note Name: D3, Velocity: 53
Note OFF: Time 92534, Note Name: C3
Note ON: Time 92640, Note Name: D#3, Velocity: 54
Note OFF: Time 92654, Note Name: D3
Note ON: Time 92763, Note Name: G3, Velocity: 56
Note OFF: Time 92772, Note Name: D#3
Note ON: Time 92883, Note Name: C4, Velocity: 57
Note OFF: Time 92895, Note Name: G3
Note ON: Time 93005, Note Name: D4, Velocity: 57
Note OFF: Time 93015, Note Name: C4
Note ON: Time 93120, Note Name: D#4, Velocity: 60
Note OFF: Time 93137, Note Name: D4
Note ON: Time 93238, Note Name: D4, Velocity: 60
Note OFF: Time 93252, Note Name: D#4
Note ON: Time 93356, Note Name: C4, Velocity: 59
Note OFF: Time 93370, Note Name: D4
Note ON: Time 93484, Note Name: G3, Velocity: 57
Note OFF: Time 93488, Note Name: C4
Note ON: Time 93604, Note Name: D#3, Velocity: 57
Note OFF: Time 93616, Note Name: G3
Note ON: Time 93720, Note Name: D3, Velocity: 57
Note OFF: Time 93736, Note Name: D#3
Note ON: Time 93836, Note Name: C3, Velocity: 56
Note OFF: Time 93852, Note Name: D3
Note ON: Time 93964, Note Name: G2, Velocity: 55
Note OFF: Time 93968, Note Name: C3
Note ON: Time 94083, Note Name: C2, Velocity: 53
Note OFF: Time 94084, Note Name: G2
Note ON: Time 94195, Note Name: G2, Velocity: 55
Note OFF: Time 94215, Note Name: C2
Note ON: Time 94319, Note Name: C3, Velocity: 57
Note OFF: Time 94327, Note Name: G2
Note ON: Time 94445, Note Name: D3, Velocity: 59
Note OFF: Time 94451, Note Name: C3
Note ON: Time 94555, Note Name: D#3, Velocity: 61
Note OFF: Time 94577, Note Name: D3
Note ON: Time 94676, Note Name: D3, Velocity: 61
Note OFF: Time 94687, Note Name: D#3
Note ON: Time 94797, Note Name: C3, Velocity: 60
Note OFF: Time 94808, Note Name: D3
Note ON: Time 94916, Note Name: G2, Velocity: 59
Note OFF: Time 94929, Note Name: C3
Note OFF: Time 95036, Note Name: G2
Note ON: Time 95041, Note Name: C2, Velocity: 63
Note ON: Time 95156, Note Name: G2, Velocity: 59
Note OFF: Time 95173, Note Name: C2
Note ON: Time 95281, Note Name: C3, Velocity: 63
Note OFF: Time 95288, Note Name: G2
Note ON: Time 95401, Note Name: D3, Velocity: 66
Note OFF: Time 95413, Note Name: C3
Note ON: Time 95522, Note Name: D#3, Velocity: 68
Note OFF: Time 95533, Note Name: D3
Note ON: Time 95643, Note Name: D3, Velocity: 64
Note OFF: Time 95654, Note Name: D#3
Note ON: Time 95765, Note Name: C3, Velocity: 60
Note OFF: Time 95775, Note Name: D3
Note ON: Time 95882, Note Name: G2, Velocity: 56
Note OFF: Time 95897, Note Name: C3
Note ON: Time 95998, Note Name: C2, Velocity: 52
Note OFF: Time 96002, Note Name: G2
Note ON: Time 96123, Note Name: G2, Velocity: 46
Note OFF: Time 96130, Note Name: C2
Note ON: Time 96239, Note Name: C3, Velocity: 47
Note OFF: Time 96255, Note Name: G2
Note ON: Time 96365, Note Name: D3, Velocity: 48
Note OFF: Time 96371, Note Name: C3
Note ON: Time 96483, Note Name: D#3, Velocity: 49
Note OFF: Time 96497, Note Name: D3
Note ON: Time 96597, Note Name: G3, Velocity: 50
Note OFF: Time 96615, Note Name: D#3
Note ON: Time 96716, Note Name: C4, Velocity: 51
Note OFF: Time 96729, Note Name: G3
Note ON: Time 96839, Note Name: D4, Velocity: 52
Note OFF: Time 96848, Note Name: C4
Note ON: Time 96956, Note Name: D#4, Velocity: 53
Note OFF: Time 96971, Note Name: D4
Note ON: Time 97081, Note Name: D4, Velocity: 52
Note OFF: Time 97088, Note Name: D#4
Note ON: Time 97197, Note Name: C4, Velocity: 51
Note OFF: Time 97213, Note Name: D4
Note ON: Time 97325, Note Name: G3, Velocity: 49
Note OFF: Time 97329, Note Name: C4
Note ON: Time 97437, Note Name: D#3, Velocity: 48
Note OFF: Time 97457, Note Name: G3
Note ON: Time 97559, Note Name: D3, Velocity: 47
Note OFF: Time 97569, Note Name: D#3
Note ON: Time 97678, Note Name: C3, Velocity: 45
Note OFF: Time 97691, Note Name: D3
Note ON: Time 97796, Note Name: G2, Velocity: 44
Note OFF: Time 97810, Note Name: C3
Note OFF: Time 97916, Note Name: G2
Note ON: Time 97917, Note Name: C2, Velocity: 43
Note ON: Time 98035, Note Name: G2, Velocity: 45
Note OFF: Time 98049, Note Name: C2
Note ON: Time 98163, Note Name: C3, Velocity: 47
Note OFF: Time 98167, Note Name: G2
Note ON: Time 98283, Note Name: D3, Velocity: 50
Note OFF: Time 98295, Note Name: C3
Note ON: Time 98404, Note Name: D#3, Velocity: 50
Note OFF: Time 98415, Note Name: D3
Note ON: Time 98515, Note Name: D3, Velocity: 50
Note OFF: Time 98536, Note Name: D#3
Note ON: Time 98639, Note Name: C3, Velocity: 50
Note OFF: Time 98647, Note Name: D3
Note ON: Time 98759, Note Name: G2, Velocity: 49
Note OFF: Time 98771, Note Name: C3
Note OFF: Time 98879, Note Name: G2
Note ON: Time 98883, Note Name: C2, Velocity: 47
Note ON: Time 99000, Note Name: G2, Velocity: 49
Note OFF: Time 99015, Note Name: C2
Note ON: Time 99120, Note Name: C3, Velocity: 51
Note OFF: Time 99132, Note Name: G2
Note ON: Time 99243, Note Name: D3, Velocity: 53
Note OFF: Time 99252, Note Name: C3
Note ON: Time 99357, Note Name: D#3, Velocity: 55
Note OFF: Time 99375, Note Name: D3
Note ON: Time 99481, Note Name: D3, Velocity: 55
Note OFF: Time 99489, Note Name: D#3
Note ON: Time 99596, Note Name: C3, Velocity: 55
Note OFF: Time 99613, Note Name: D3
Note ON: Time 99725, Note Name: G2, Velocity: 53
Note OFF: Time 99728, Note Name: C3
Note ON: Time 99844, Note Name: C2, Velocity: 54
Note OFF: Time 99845, Note Name: G2
Note ON: Time 99964, Note Name: G2, Velocity: 54
Note OFF: Time 99976, Note Name: C2
Note ON: Time 100075, Note Name: C3, Velocity: 55
Note OFF: Time 100096, Note Name: G2
Note ON: Time 100200, Note Name: D3, Velocity: 57
Note OFF: Time 100207, Note Name: C3
Note ON: Time 100321, Note Name: D#3, Velocity: 59
Note OFF: Time 100332, Note Name: D3
Note ON: Time 100443, Note Name: G3, Velocity: 61
Note OFF: Time 100453, Note Name: D#3
Note ON: Time 100563, Note Name: C4, Velocity: 63
Note OFF: Time 100575, Note Name: G3
Note ON: Time 100677, Note Name: D4, Velocity: 65
Note OFF: Time 100695, Note Name: C4
Note ON: Time 100805, Note Name: D#4, Velocity: 67
Note OFF: Time 100809, Note Name: D4
Note ON: Time 100923, Note Name: D4, Velocity: 63
Note OFF: Time 100937, Note Name: D#4
Note ON: Time 101037, Note Name: C4, Velocity: 61
Note OFF: Time 101055, Note Name: D4
Note ON: Time 101161, Note Name: G3, Velocity: 59
Note OFF: Time 101169, Note Name: C4
Note ON: Time 101275, Note Name: D#3, Velocity: 56
Note OFF: Time 101293, Note Name: G3
Note ON: Time 101400, Note Name: D3, Velocity: 53
Note OFF: Time 101407, Note Name: D#3
Note ON: Time 101523, Note Name: C3, Velocity: 51
Note OFF: Time 101532, Note Name: D3
Note ON: Time 101642, Note Name: G2, Velocity: 49
Note OFF: Time 101655, Note Name: C3
Note ON: Time 101755, Note Name: C2, Velocity: 51
Note OFF: Time 101762, Note Name: G2
Note ON: Time 101883, Note Name: F#2, Velocity: 52
Note OFF: Time 101887, Note Name: C2
Note ON: Time 102001, Note Name: C3, Velocity: 55
Note OFF: Time 102015, Note Name: F#2
Note ON: Time 102125, Note Name: D3, Velocity: 56
Note OFF: Time 102133, Note Name: C3
Note ON: Time 102244, Note Name: D#3, Velocity: 57
Note OFF: Time 102257, Note Name: D3
Note ON: Time 102363, Note Name: D3, Velocity: 54
Note OFF: Time 102376, Note Name: D#3
Note ON: Time 102478, Note Name: C3, Velocity: 55
Note OFF: Time 102495, Note Name: D3
Note ON: Time 102599, Note Name: F#2, Velocity: 54
Note OFF: Time 102610, Note Name: C3
Note OFF: Time 102719, Note Name: F#2
Note ON: Time 102720, Note Name: C2, Velocity: 53
Note ON: Time 102835, Note Name: F#2, Velocity: 54
Note OFF: Time 102852, Note Name: C2
Note ON: Time 102962, Note Name: C3, Velocity: 55
Note OFF: Time 102967, Note Name: F#2
Note ON: Time 103075, Note Name: D3, Velocity: 57
Note OFF: Time 103094, Note Name: C3
Note ON: Time 103203, Note Name: D#3, Velocity: 59
Note OFF: Time 103207, Note Name: D3
Note ON: Time 103323, Note Name: D3, Velocity: 57
Note OFF: Time 103335, Note Name: D#3
Note ON: Time 103437, Note Name: C3, Velocity: 57
Note OFF: Time 103455, Note Name: D3
Note ON: Time 103556, Note Name: F#2, Velocity: 56
Note OFF: Time 103569, Note Name: C3
Note ON: Time 103675, Note Name: B1, Velocity: 55
Note OFF: Time 103676, Note Name: F#2
Note ON: Time 103802, Note Name: B2, Velocity: 55
Note OFF: Time 103807, Note Name: B1
Note ON: Time 103915, Note Name: D3, Velocity: 56
Note OFF: Time 103934, Note Name: B2
Note ON: Time 104038, Note Name: G3, Velocity: 55
Note OFF: Time 104047, Note Name: D3
Note ON: Time 104162, Note Name: D4, Velocity: 57
Note OFF: Time 104170, Note Name: G3
Note ON: Time 104283, Note Name: G3, Velocity: 55
Note OFF: Time 104294, Note Name: D4
Note ON: Time 104399, Note Name: D3, Velocity: 55
Note OFF: Time 104415, Note Name: G3
Note ON: Time 104525, Note Name: B2, Velocity: 54
Note OFF: Time 104531, Note Name: D3
Note ON: Time 104641, Note Name: A#1, Velocity: 55
Note OFF: Time 104645, Note Name: B2
Note ON: Time 104758, Note Name: A#2, Velocity: 54
Note OFF: Time 104773, Note Name: A#1
Note ON: Time 104880, Note Name: C#3, Velocity: 55
Note OFF: Time 104890, Note Name: A#2
Note ON: Time 105004, Note Name: G3, Velocity: 55
Note OFF: Time 105012, Note Name: C#3
Note ON: Time 105115, Note Name: C#4, Velocity: 56
Note OFF: Time 105136, Note Name: G3
Note ON: Time 105236, Note Name: G3, Velocity: 53
Note OFF: Time 105247, Note Name: C#4
Note ON: Time 105356, Note Name: C#3, Velocity: 55
Note OFF: Time 105368, Note Name: G3
Note ON: Time 105476, Note Name: A#2, Velocity: 50
Note OFF: Time 105488, Note Name: C#3
Note OFF: Time 105596, Note Name: A#2
Note ON: Time 105605, Note Name: A1, Velocity: 55
Note ON: Time 105718, Note Name: A2, Velocity: 55
Note OFF: Time 105737, Note Name: A1
Note ON: Time 105839, Note Name: C3, Velocity: 56
Note OFF: Time 105850, Note Name: A2
Note ON: Time 105963, Note Name: F3, Velocity: 55
Note OFF: Time 105971, Note Name: C3
Note ON: Time 106075, Note Name: C4, Velocity: 57
Note OFF: Time 106095, Note Name: F3
Note ON: Time 106203, Note Name: F3, Velocity: 54
Note OFF: Time 106207, Note Name: C4
Note ON: Time 106317, Note Name: C3, Velocity: 56
Note OFF: Time 106335, Note Name: F3
Note ON: Time 106444, Note Name: A2, Velocity: 55
Note OFF: Time 106449, Note Name: C3
Note ON: Time 106557, Note Name: G#1, Velocity: 55
Note OFF: Time 106564, Note Name: A2
Note ON: Time 106677, Note Name: G#2, Velocity: 55
Note OFF: Time 106689, Note Name: G#1
Note ON: Time 106797, Note Name: C3, Velocity: 56
Note OFF: Time 106809, Note Name: G#2
Note ON: Time 106917, Note Name: F3, Velocity: 57
Note OFF: Time 106929, Note Name: C3
Note ON: Time 107044, Note Name: C4, Velocity: 54
Note OFF: Time 107049, Note Name: F3
Note ON: Time 107164, Note Name: F3, Velocity: 51
Note OFF: Time 107176, Note Name: C4
Note ON: Time 107284, Note Name: C3, Velocity: 50
Note OFF: Time 107296, Note Name: F3
Note ON: Time 107404, Note Name: G#2, Velocity: 48
Note OFF: Time 107416, Note Name: C3
Note ON: Time 107521, Note Name: G1, Velocity: 46
Note OFF: Time 107524, Note Name: G#2
Note ON: Time 107635, Note Name: G2, Velocity: 47
Note OFF: Time 107653, Note Name: G1
Note ON: Time 107756, Note Name: C3, Velocity: 48
Note OFF: Time 107767, Note Name: G2
Note ON: Time 107877, Note Name: B2, Velocity: 49
Note OFF: Time 107888, Note Name: C3
Note ON: Time 107998, Note Name: C#3, Velocity: 51
Note OFF: Time 108009, Note Name: B2
Note ON: Time 108119, Note Name: C3, Velocity: 53
Note OFF: Time 108130, Note Name: C#3
Note ON: Time 108237, Note Name: D3, Velocity: 55
Note OFF: Time 108251, Note Name: C3
Note ON: Time 108364, Note Name: C#3, Velocity: 55
Note OFF: Time 108369, Note Name: D3
Note ON: Time 108481, Note Name: D#3, Velocity: 56
Note OFF: Time 108496, Note Name: C#3
Note ON: Time 108601, Note Name: D3, Velocity: 55
Note OFF: Time 108613, Note Name: D#3
Note ON: Time 108725, Note Name: E3, Velocity: 57
Note OFF: Time 108733, Note Name: D3
Note ON: Time 108840, Note Name: D#3, Velocity: 55
Note OFF: Time 108857, Note Name: E3
Note ON: Time 108963, Note Name: F3, Velocity: 59
Note OFF: Time 108972, Note Name: D#3
Note ON: Time 109085, Note Name: E3, Velocity: 57
Note OFF: Time 109095, Note Name: F3
Note ON: Time 109205, Note Name: F#3, Velocity: 61
Note OFF: Time 109217, Note Name: E3
Note ON: Time 109324, Note Name: F3, Velocity: 57
Note OFF: Time 109337, Note Name: F#3
Note ON: Time 109444, Note Name: G3, Velocity: 64
Note OFF: Time 109456, Note Name: F3
Note ON: Time 109556, Note Name: F#3, Velocity: 60
Note OFF: Time 109576, Note Name: G3
Note ON: Time 109679, Note Name: G#3, Velocity: 62
Note OFF: Time 109688, Note Name: F#3
Note ON: Time 109798, Note Name: G3, Velocity: 60
Note OFF: Time 109811, Note Name: G#3
Note ON: Time 109916, Note Name: A#3, Velocity: 63
Note OFF: Time 109930, Note Name: G3
Note ON: Time 110045, Note Name: G#3, Velocity: 61
Note OFF: Time 110048, Note Name: A#3
Note ON: Time 110163, Note Name: G3, Velocity: 63
Note OFF: Time 110177, Note Name: G#3
Note ON: Time 110282, Note Name: F3, Velocity: 60
Note OFF: Time 110295, Note Name: G3
Note ON: Time 110395, Note Name: D#3, Velocity: 63
Note OFF: Time 110414, Note Name: F3
Note ON: Time 110522, Note Name: D3, Velocity: 59
Note OFF: Time 110527, Note Name: D#3
Note ON: Time 110643, Note Name: C3, Velocity: 60
Note OFF: Time 110654, Note Name: D3
Note ON: Time 110763, Note Name: B2, Velocity: 59
Note OFF: Time 110775, Note Name: C3
Note ON: Time 110884, Note Name: G#2, Velocity: 57
Note OFF: Time 110895, Note Name: B2
Note ON: Time 110996, Note Name: G2, Velocity: 53
Note OFF: Time 111016, Note Name: G#2
Note ON: Time 111122, Note Name: F2, Velocity: 51
Note OFF: Time 111128, Note Name: G2
Note ON: Time 111239, Note Name: D2, Velocity: 47
Note OFF: Time 111254, Note Name: F2
Note OFF: Time 111359, Note Name: D2
Note ON: Time 111362, Note Name: C2, Velocity: 41
Note ON: Time 111485, Note Name: G2, Velocity: 42
Note OFF: Time 111494, Note Name: C2
Note ON: Time 111604, Note Name: C3, Velocity: 43
Note OFF: Time 111617, Note Name: G2
Note ON: Time 111715, Note Name: D3, Velocity: 44
Note OFF: Time 111736, Note Name: C3
Note ON: Time 111843, Note Name: D#3, Velocity: 45
Note OFF: Time 111847, Note Name: D3
Note ON: Time 111959, Note Name: G3, Velocity: 46
Note OFF: Time 111975, Note Name: D#3
Note ON: Time 112075, Note Name: C4, Velocity: 47
Note OFF: Time 112091, Note Name: G3
Note ON: Time 112197, Note Name: D4, Velocity: 48
Note OFF: Time 112207, Note Name: C4
Note ON: Time 112319, Note Name: D#4, Velocity: 50
Note OFF: Time 112329, Note Name: D4
Note ON: Time 112436, Note Name: D4, Velocity: 49
Note OFF: Time 112451, Note Name: D#4
Note ON: Time 112565, Note Name: C4, Velocity: 48
Note OFF: Time 112568, Note Name: D4
Note ON: Time 112680, Note Name: G3, Velocity: 47
Note OFF: Time 112697, Note Name: C4
Note ON: Time 112797, Note Name: D#3, Velocity: 47
Note OFF: Time 112812, Note Name: G3
Note ON: Time 112923, Note Name: D3, Velocity: 46
Note OFF: Time 112929, Note Name: D#3
Note ON: Time 113044, Note Name: C3, Velocity: 45
Note OFF: Time 113055, Note Name: D3
Note ON: Time 113157, Note Name: G2, Velocity: 44
Note OFF: Time 113176, Note Name: C3
Note ON: Time 113275, Note Name: C2, Velocity: 45
Note OFF: Time 113277, Note Name: G2
Note ON: Time 113403, Note Name: G2, Velocity: 48
Note OFF: Time 113407, Note Name: C2
Note ON: Time 113517, Note Name: C3, Velocity: 51
Note OFF: Time 113535, Note Name: G2
Note ON: Time 113641, Note Name: D3, Velocity: 53
Note OFF: Time 113649, Note Name: C3
Note ON: Time 113763, Note Name: D#3, Velocity: 56
Note OFF: Time 113773, Note Name: D3
Note ON: Time 113884, Note Name: D3, Velocity: 53
Note OFF: Time 113895, Note Name: D#3
Note ON: Time 113998, Note Name: C3, Velocity: 51
Note OFF: Time 114016, Note Name: D3
Note ON: Time 114120, Note Name: G2, Velocity: 49
Note OFF: Time 114130, Note Name: C3
Note OFF: Time 114240, Note Name: G2
Note ON: Time 114245, Note Name: C2, Velocity: 47
Note ON: Time 114364, Note Name: G2, Velocity: 47
Note OFF: Time 114377, Note Name: C2
Note ON: Time 114482, Note Name: C3, Velocity: 51
Note OFF: Time 114496, Note Name: G2
Note ON: Time 114597, Note Name: D3, Velocity: 53
Note OFF: Time 114614, Note Name: C3
Note ON: Time 114723, Note Name: D#3, Velocity: 56
Note OFF: Time 114729, Note Name: D3
Note ON: Time 114839, Note Name: D3, Velocity: 54
Note OFF: Time 114855, Note Name: D#3
Note ON: Time 114959, Note Name: C3, Velocity: 51
Note OFF: Time 114971, Note Name: D3
Note ON: Time 115075, Note Name: G2, Velocity: 48
Note OFF: Time 115091, Note Name: C3
Note OFF: Time 115195, Note Name: G2
Note ON: Time 115201, Note Name: C2, Velocity: 47
Note ON: Time 115319, Note Name: G2, Velocity: 43
Note OFF: Time 115333, Note Name: C2
Note ON: Time 115436, Note Name: C3, Velocity: 44
Note OFF: Time 115451, Note Name: G2
Note ON: Time 115558, Note Name: D3, Velocity: 46
Note OFF: Time 115568, Note Name: C3
Note ON: Time 115684, Note Name: D#3, Velocity: 47
Note OFF: Time 115690, Note Name: D3
Note ON: Time 115797, Note Name: G3, Velocity: 48
Note OFF: Time 115816, Note Name: D#3
Note ON: Time 115925, Note Name: C4, Velocity: 49
Note OFF: Time 115929, Note Name: G3
Note ON: Time 116036, Note Name: D4, Velocity: 50
Note OFF: Time 116057, Note Name: C4
Note ON: Time 116164, Note Name: D#4, Velocity: 52
Note OFF: Time 116168, Note Name: D4
Note ON: Time 116284, Note Name: D4, Velocity: 51
Note OFF: Time 116296, Note Name: D#4
Note ON: Time 116399, Note Name: C4, Velocity: 51
Note OFF: Time 116416, Note Name: D4
Note ON: Time 116517, Note Name: G3, Velocity: 50
Note OFF: Time 116531, Note Name: C4
Note ON: Time 116641, Note Name: D#3, Velocity: 49
Note OFF: Time 116649, Note Name: G3
Note ON: Time 116761, Note Name: D3, Velocity: 48
Note OFF: Time 116773, Note Name: D#3
Note ON: Time 116881, Note Name: C3, Velocity: 47
Note OFF: Time 116893, Note Name: D3
Note ON: Time 116999, Note Name: G2, Velocity: 46
Note OFF: Time 117013, Note Name: C3
Note ON: Time 117115, Note Name: C2, Velocity: 44
Note OFF: Time 117119, Note Name: G2
Note ON: Time 117244, Note Name: G2, Velocity: 46
Note OFF: Time 117247, Note Name: C2
Note ON: Time 117356, Note Name: C3, Velocity: 47
Note OFF: Time 117376, Note Name: G2
Note ON: Time 117477, Note Name: D3, Velocity: 49
Note OFF: Time 117488, Note Name: C3
Note ON: Time 117598, Note Name: D#3, Velocity: 51
Note OFF: Time 117609, Note Name: D3
Note ON: Time 117722, Note Name: D3, Velocity: 50
Note OFF: Time 117730, Note Name: D#3
Note ON: Time 117841, Note Name: C3, Velocity: 49
Note OFF: Time 117854, Note Name: D3
Note ON: Time 117965, Note Name: G2, Velocity: 48
Note OFF: Time 117973, Note Name: C3
Note ON: Time 118081, Note Name: C2, Velocity: 47
Note OFF: Time 118085, Note Name: G2
Note ON: Time 118203, Note Name: G2, Velocity: 49
Note OFF: Time 118213, Note Name: C2
Note ON: Time 118319, Note Name: C3, Velocity: 51
Note OFF: Time 118335, Note Name: G2
Note ON: Time 118444, Note Name: D3, Velocity: 54
Note OFF: Time 118451, Note Name: C3
Note ON: Time 118563, Note Name: D#3, Velocity: 57
Note OFF: Time 118576, Note Name: D3
Note ON: Time 118676, Note Name: D3, Velocity: 54
Note OFF: Time 118695, Note Name: D#3
Note ON: Time 118800, Note Name: C3, Velocity: 53
Note OFF: Time 118808, Note Name: D3
Note ON: Time 118915, Note Name: G2, Velocity: 51
Note OFF: Time 118932, Note Name: C3
Note OFF: Time 119035, Note Name: G2
Note ON: Time 119035, Note Name: C2, Velocity: 45
Note ON: Time 119163, Note Name: G2, Velocity: 47
Note OFF: Time 119167, Note Name: C2
Note ON: Time 119278, Note Name: C3, Velocity: 48
Note OFF: Time 119295, Note Name: G2
Note ON: Time 119404, Note Name: D3, Velocity: 49
Note OFF: Time 119410, Note Name: C3
Note ON: Time 119520, Note Name: D#3, Velocity: 52
Note OFF: Time 119536, Note Name: D3
Note ON: Time 119643, Note Name: G3, Velocity: 54
Note OFF: Time 119652, Note Name: D#3
Note ON: Time 119755, Note Name: C4, Velocity: 55
Note OFF: Time 119775, Note Name: G3
Note ON: Time 119881, Note Name: D4, Velocity: 57
Note OFF: Time 119887, Note Name: C4
Note ON: Time 119995, Note Name: D#4, Velocity: 60
Note OFF: Time 120013, Note Name: D4
Note ON: Time 120122, Note Name: D4, Velocity: 56
Note OFF: Time 120127, Note Name: D#4
Note ON: Time 120245, Note Name: C4, Velocity: 57
Note OFF: Time 120254, Note Name: D4
Note ON: Time 120360, Note Name: G3, Velocity: 55
Note OFF: Time 120377, Note Name: C4
Note ON: Time 120482, Note Name: D#3, Velocity: 54
Note OFF: Time 120492, Note Name: G3
Note ON: Time 120597, Note Name: D3, Velocity: 51
Note OFF: Time 120614, Note Name: D#3
Note ON: Time 120724, Note Name: C3, Velocity: 51
Note OFF: Time 120729, Note Name: D3
Note ON: Time 120842, Note Name: G2, Velocity: 49
Note OFF: Time 120856, Note Name: C3
Note ON: Time 120961, Note Name: C2, Velocity: 60
Note OFF: Time 120962, Note Name: G2
Note ON: Time 121077, Note Name: F#2, Velocity: 47
Note OFF: Time 121093, Note Name: C2
Note ON: Time 121204, Note Name: C3, Velocity: 50
Note OFF: Time 121209, Note Name: F#2
Note ON: Time 121320, Note Name: D3, Velocity: 52
Note OFF: Time 121336, Note Name: C3
Note ON: Time 121443, Note Name: D#3, Velocity: 53
Note OFF: Time 121452, Note Name: D3
Note ON: Time 121558, Note Name: D3, Velocity: 52
Note OFF: Time 121575, Note Name: D#3
Note ON: Time 121675, Note Name: C3, Velocity: 51
Note OFF: Time 121690, Note Name: D3
Note ON: Time 121800, Note Name: F#2, Velocity: 49
Note OFF: Time 121807, Note Name: C3
Note OFF: Time 121920, Note Name: F#2
Note ON: Time 121921, Note Name: C2, Velocity: 64
Note ON: Time 122039, Note Name: F#2, Velocity: 55
Note OFF: Time 122053, Note Name: C2
Note ON: Time 122159, Note Name: C3, Velocity: 57
Note OFF: Time 122171, Note Name: F#2
Note ON: Time 122275, Note Name: D3, Velocity: 63
Note OFF: Time 122291, Note Name: C3
Note ON: Time 122398, Note Name: D#3, Velocity: 64
Note OFF: Time 122407, Note Name: D3
Note ON: Time 122521, Note Name: D3, Velocity: 62
Note OFF: Time 122530, Note Name: D#3
Note ON: Time 122644, Note Name: C3, Velocity: 61
Note OFF: Time 122653, Note Name: D3
Note ON: Time 122759, Note Name: F#2, Velocity: 59
Note OFF: Time 122776, Note Name: C3
Note OFF: Time 122879, Note Name: F#2
Note ON: Time 122885, Note Name: C#2, Velocity: 63
Note ON: Time 122999, Note Name: C#3, Velocity: 64
Note OFF: Time 123017, Note Name: C#2
Note ON: Time 123120, Note Name: F#3, Velocity: 69
Note OFF: Time 123131, Note Name: C#3
Note ON: Time 123235, Note Name: G#3, Velocity: 71
Note OFF: Time 123252, Note Name: F#3
Note ON: Time 123365, Note Name: A#3, Velocity: 77
Note OFF: Time 123367, Note Name: G#3
Note ON: Time 123484, Note Name: G#3, Velocity: 74
Note OFF: Time 123497, Note Name: A#3
Note ON: Time 123599, Note Name: F#3, Velocity: 73
Note OFF: Time 123616, Note Name: G#3
Note ON: Time 123722, Note Name: C#3, Velocity: 67
Note OFF: Time 123731, Note Name: F#3
Note ON: Time 123838, Note Name: C#2, Velocity: 62
Note OFF: Time 123842, Note Name: C#3
Note ON: Time 123961, Note Name: C#3, Velocity: 65
Note OFF: Time 123970, Note Name: C#2
Note ON: Time 124080, Note Name: F#3, Velocity: 69
Note OFF: Time 124093, Note Name: C#3
Note ON: Time 124201, Note Name: G#3, Velocity: 74
Note OFF: Time 124212, Note Name: F#3
Note ON: Time 124315, Note Name: A#3, Velocity: 76
Note OFF: Time 124333, Note Name: G#3
Note ON: Time 124439, Note Name: G#3, Velocity: 72
Note OFF: Time 124447, Note Name: A#3
Note ON: Time 124557, Note Name: F#3, Velocity: 71
Note OFF: Time 124571, Note Name: G#3
Note ON: Time 124685, Note Name: C#3, Velocity: 65
Note OFF: Time 124689, Note Name: F#3
Note ON: Time 124804, Note Name: C#2, Velocity: 60
Note OFF: Time 124805, Note Name: C#3
Note ON: Time 124925, Note Name: C#3, Velocity: 63
Note OFF: Time 124936, Note Name: C#2
Note ON: Time 125041, Note Name: G3, Velocity: 66
Note OFF: Time 125057, Note Name: C#3
Note ON: Time 125161, Note Name: A#3, Velocity: 68
Note OFF: Time 125173, Note Name: G3
Note ON: Time 125275, Note Name: C#4, Velocity: 70
Note OFF: Time 125293, Note Name: A#3
Note ON: Time 125399, Note Name: C4, Velocity: 70
Note OFF: Time 125407, Note Name: C#4
Note ON: Time 125518, Note Name: A#3, Velocity: 69
Note OFF: Time 125531, Note Name: C4
Note ON: Time 125640, Note Name: G#3, Velocity: 68
Note OFF: Time 125650, Note Name: A#3
Note ON: Time 125755, Note Name: G3, Velocity: 68
Note OFF: Time 125760, Note Name: G#3
Note ON: Time 125884, Note Name: F3, Velocity: 68
Note OFF: Time 125887, Note Name: G3
Note ON: Time 125998, Note Name: E3, Velocity: 69
Note OFF: Time 126016, Note Name: F3
Note ON: Time 126123, Note Name: C#3, Velocity: 67
Note OFF: Time 126130, Note Name: E3
Note ON: Time 126245, Note Name: C3, Velocity: 66
Note OFF: Time 126255, Note Name: C#3
Note ON: Time 126361, Note Name: A#2, Velocity: 64
Note OFF: Time 126377, Note Name: C3
Note ON: Time 126477, Note Name: G#2, Velocity: 63
Note OFF: Time 126493, Note Name: A#2
Note ON: Time 126598, Note Name: G2, Velocity: 62
Note OFF: Time 126609, Note Name: G#2
Note OFF: Time 126718, Note Name: G2
Note ON: Time 126721, Note Name: B1, Velocity: 62
Note ON: Time 126844, Note Name: B2, Velocity: 65
Note OFF: Time 126853, Note Name: B1
Note ON: Time 126957, Note Name: E3, Velocity: 67
Note OFF: Time 126976, Note Name: B2
Note ON: Time 127078, Note Name: F#3, Velocity: 69
Note OFF: Time 127089, Note Name: E3
Note ON: Time 127202, Note Name: G#3, Velocity: 72
Note OFF: Time 127210, Note Name: F#3
Note ON: Time 127324, Note Name: F#3, Velocity: 73
Note OFF: Time 127334, Note Name: G#3
Note ON: Time 127437, Note Name: E3, Velocity: 71
Note OFF: Time 127456, Note Name: F#3
Note ON: Time 127557, Note Name: B2, Velocity: 67
Note OFF: Time 127569, Note Name: E3
Note OFF: Time 127677, Note Name: B2
Note ON: Time 127679, Note Name: B1, Velocity: 62
Note ON: Time 127804, Note Name: B2, Velocity: 67
Note OFF: Time 127811, Note Name: B1
Note ON: Time 127921, Note Name: E3, Velocity: 72
Note OFF: Time 127936, Note Name: B2
Note ON: Time 128035, Note Name: F#3, Velocity: 71
Note OFF: Time 128053, Note Name: E3
Note ON: Time 128165, Note Name: G#3, Velocity: 76
Note OFF: Time 128167, Note Name: F#3
Note ON: Time 128275, Note Name: F#3, Velocity: 73
Note OFF: Time 128297, Note Name: G#3
Note ON: Time 128401, Note Name: E3, Velocity: 74
Note OFF: Time 128407, Note Name: F#3
Note ON: Time 128517, Note Name: B2, Velocity: 70
Note OFF: Time 128533, Note Name: E3
Note ON: Time 128636, Note Name: B1, Velocity: 64
Note OFF: Time 128637, Note Name: B2
Note ON: Time 128756, Note Name: B2, Velocity: 65
Note OFF: Time 128768, Note Name: B1
Note ON: Time 128877, Note Name: F3, Velocity: 67
Note OFF: Time 128888, Note Name: B2
Note ON: Time 129000, Note Name: G#3, Velocity: 71
Note OFF: Time 129009, Note Name: F3
Note ON: Time 129125, Note Name: B3, Velocity: 73
Note OFF: Time 129132, Note Name: G#3
Note ON: Time 129235, Note Name: A#3, Velocity: 73
Note OFF: Time 129257, Note Name: B3
Note ON: Time 129355, Note Name: G#3, Velocity: 72
Note OFF: Time 129367, Note Name: A#3
Note ON: Time 129478, Note Name: F#3, Velocity: 71
Note OFF: Time 129487, Note Name: G#3
Note ON: Time 129598, Note Name: F3, Velocity: 71
Note OFF: Time 129610, Note Name: F#3
Note ON: Time 129720, Note Name: D#3, Velocity: 71
Note OFF: Time 129730, Note Name: F3
Note ON: Time 129840, Note Name: D3, Velocity: 72
Note OFF: Time 129852, Note Name: D#3
Note ON: Time 129959, Note Name: B2, Velocity: 71
Note OFF: Time 129972, Note Name: D3
Note ON: Time 130085, Note Name: A#2, Velocity: 70
Note OFF: Time 130091, Note Name: B2
Note ON: Time 130201, Note Name: G#2, Velocity: 67
Note OFF: Time 130217, Note Name: A#2
Note ON: Time 130318, Note Name: F#2, Velocity: 64
Note OFF: Time 130333, Note Name: G#2
Note ON: Time 130440, Note Name: F2, Velocity: 62
Note OFF: Time 130450, Note Name: F#2
Note ON: Time 130559, Note Name: A#1, Velocity: 59
Note OFF: Time 130560, Note Name: F2
Note ON: Time 130685, Note Name: A#2, Velocity: 54
Note OFF: Time 130691, Note Name: A#1
Note ON: Time 130801, Note Name: D#3, Velocity: 45
Note OFF: Time 130817, Note Name: A#2
Note ON: Time 130924, Note Name: F3, Velocity: 48
Note OFF: Time 130933, Note Name: D#3
Note ON: Time 131043, Note Name: G3, Velocity: 50
Note OFF: Time 131056, Note Name: F3
Note ON: Time 131163, Note Name: F3, Velocity: 47
Note OFF: Time 131175, Note Name: G3
Note ON: Time 131281, Note Name: D#3, Velocity: 45
Note OFF: Time 131295, Note Name: F3
Note ON: Time 131404, Note Name: A#2, Velocity: 43
Note OFF: Time 131413, Note Name: D#3
Note ON: Time 131518, Note Name: A#1, Velocity: 38
Note OFF: Time 131524, Note Name: A#2
Note ON: Time 131645, Note Name: A#2, Velocity: 41
Note OFF: Time 131650, Note Name: A#1
Note ON: Time 131757, Note Name: D#3, Velocity: 44
Note OFF: Time 131777, Note Name: A#2
Note ON: Time 131885, Note Name: F3, Velocity: 46
Note OFF: Time 131889, Note Name: D#3
Note ON: Time 132002, Note Name: G3, Velocity: 49
Note OFF: Time 132017, Note Name: F3
Note ON: Time 132116, Note Name: F3, Velocity: 48
Note OFF: Time 132134, Note Name: G3
Note ON: Time 132243, Note Name: D#3, Velocity: 45
Note OFF: Time 132248, Note Name: F3
Note ON: Time 132360, Note Name: A#2, Velocity: 44
Note OFF: Time 132375, Note Name: D#3
Note ON: Time 132476, Note Name: B1, Velocity: 31
Note OFF: Time 132480, Note Name: A#2
Note ON: Time 132595, Note Name: B2, Velocity: 33
Note OFF: Time 132608, Note Name: B1
Note ON: Time 132715, Note Name: D3, Velocity: 34
Note OFF: Time 132727, Note Name: B2
Note ON: Time 132840, Note Name: G3, Velocity: 35
Note OFF: Time 132847, Note Name: D3
Note ON: Time 132964, Note Name: D4, Velocity: 36
Note OFF: Time 132972, Note Name: G3
Note ON: Time 133076, Note Name: G3, Velocity: 35
Note OFF: Time 133096, Note Name: D4
Note ON: Time 133195, Note Name: D3, Velocity: 34
Note OFF: Time 133208, Note Name: G3
Note ON: Time 133317, Note Name: B2, Velocity: 32
Note OFF: Time 133327, Note Name: D3
Note OFF: Time 133437, Note Name: B2
Note ON: Time 133444, Note Name: B1, Velocity: 31
Note ON: Time 133563, Note Name: B2, Velocity: 31
Note OFF: Time 133576, Note Name: B1
Note ON: Time 133683, Note Name: D3, Velocity: 33
Note OFF: Time 133695, Note Name: B2
Note ON: Time 133802, Note Name: G3, Velocity: 34
Note OFF: Time 133815, Note Name: D3
Note ON: Time 133918, Note Name: D4, Velocity: 35
Note OFF: Time 133934, Note Name: G3
Note ON: Time 134043, Note Name: G3, Velocity: 34
Note OFF: Time 134050, Note Name: D4
Note ON: Time 134165, Note Name: D3, Velocity: 34
Note OFF: Time 134175, Note Name: G3
Note ON: Time 134284, Note Name: B2, Velocity: 33
Note OFF: Time 134297, Note Name: D3
Note ON: Time 134397, Note Name: C2, Velocity: 32
Note OFF: Time 134404, Note Name: B2
Note ON: Time 134520, Note Name: G2, Velocity: 29
Note OFF: Time 134529, Note Name: C2
Note ON: Time 134635, Note Name: C3, Velocity: 30
Note OFF: Time 134652, Note Name: G2
Note ON: Time 134755, Note Name: D3, Velocity: 31
Note OFF: Time 134767, Note Name: C3
Note ON: Time 134875, Note Name: D#3, Velocity: 32
Note OFF: Time 134887, Note Name: D3
Note ON: Time 134998, Note Name: G3, Velocity: 33
Note OFF: Time 135007, Note Name: D#3
Note ON: Time 135122, Note Name: C4, Velocity: 34
Note OFF: Time 135130, Note Name: G3
Note ON: Time 135239, Note Name: D4, Velocity: 35
Note OFF: Time 135254, Note Name: C4
Note ON: Time 135356, Note Name: D#4, Velocity: 35
Note OFF: Time 135371, Note Name: D4
Note ON: Time 135478, Note Name: D4, Velocity: 35
Note OFF: Time 135488, Note Name: D#4
Note ON: Time 135597, Note Name: C4, Velocity: 35
Note OFF: Time 135610, Note Name: D4
Note ON: Time 135723, Note Name: G3, Velocity: 34
Note OFF: Time 135729, Note Name: C4
Note ON: Time 135836, Note Name: D#3, Velocity: 34
Note OFF: Time 135855, Note Name: G3
Note ON: Time 135955, Note Name: D3, Velocity: 33
Note OFF: Time 135968, Note Name: D#3
Note ON: Time 136080, Note Name: C3, Velocity: 32
Note OFF: Time 136087, Note Name: D3
Note ON: Time 136198, Note Name: G2, Velocity: 32
Note OFF: Time 136212, Note Name: C3
Note OFF: Time 136318, Note Name: G2
Note ON: Time 136323, Note Name: F1, Velocity: 35
Note ON: Time 136436, Note Name: C#2, Velocity: 35
Note OFF: Time 136455, Note Name: F1
Note ON: Time 136564, Note Name: F2, Velocity: 36
Note OFF: Time 136568, Note Name: C#2
Note ON: Time 136676, Note Name: G2, Velocity: 38
Note OFF: Time 136696, Note Name: F2
Note ON: Time 136795, Note Name: G#2, Velocity: 39
Note OFF: Time 136808, Note Name: G2
Note ON: Time 136916, Note Name: C#3, Velocity: 40
Note OFF: Time 136927, Note Name: G#2
Note ON: Time 137043, Note Name: F3, Velocity: 42
Note OFF: Time 137048, Note Name: C#3
Note ON: Time 137157, Note Name: G3, Velocity: 43
Note OFF: Time 137175, Note Name: F3
Note ON: Time 137281, Note Name: G#3, Velocity: 44
Note OFF: Time 137289, Note Name: G3
Note ON: Time 137398, Note Name: G3, Velocity: 44
Note OFF: Time 137413, Note Name: G#3
Note ON: Time 137520, Note Name: F3, Velocity: 43
Note OFF: Time 137530, Note Name: G3
Note ON: Time 137642, Note Name: C#3, Velocity: 42
Note OFF: Time 137652, Note Name: F3
Note ON: Time 137764, Note Name: G#2, Velocity: 41
Note OFF: Time 137774, Note Name: C#3
Note ON: Time 137885, Note Name: F2, Velocity: 40
Note OFF: Time 137896, Note Name: G#2
Note ON: Time 138005, Note Name: C#2, Velocity: 40
Note OFF: Time 138017, Note Name: F2
Note ON: Time 138116, Note Name: G#1, Velocity: 39
Note OFF: Time 138137, Note Name: C#2
Note OFF: Time 138236, Note Name: G#1
Note ON: Time 138236, Note Name: G1, Velocity: 38
Note OFF: Time 138356, Note Name: G1
Note ON: Time 138481, Note Name: E2, Velocity: 42
Note ON: Time 138603, Note Name: D#2, Velocity: 43
Note OFF: Time 138613, Note Name: E2
Note ON: Time 138724, Note Name: F2, Velocity: 43
Note OFF: Time 138735, Note Name: D#2
Note ON: Time 138835, Note Name: E2, Velocity: 44
Note OFF: Time 138856, Note Name: F2
Note ON: Time 138964, Note Name: F#2, Velocity: 44
Note OFF: Time 138967, Note Name: E2
Note ON: Time 139084, Note Name: F2, Velocity: 45
Note OFF: Time 139096, Note Name: F#2
Note ON: Time 139199, Note Name: G2, Velocity: 45
Note OFF: Time 139216, Note Name: F2
Note ON: Time 139321, Note Name: F#2, Velocity: 45
Note OFF: Time 139331, Note Name: G2
Note ON: Time 139442, Note Name: G#2, Velocity: 46
Note OFF: Time 139453, Note Name: F#2
Note ON: Time 139559, Note Name: G2, Velocity: 45
Note OFF: Time 139574, Note Name: G#2
Note ON: Time 139678, Note Name: A2, Velocity: 47
Note OFF: Time 139691, Note Name: G2
Note ON: Time 139805, Note Name: G#2, Velocity: 48
Note OFF: Time 139810, Note Name: A2
Note ON: Time 139925, Note Name: A#2, Velocity: 49
Note OFF: Time 139937, Note Name: G#2
Note ON: Time 140043, Note Name: A2, Velocity: 48
Note OFF: Time 140057, Note Name: A#2
Note ON: Time 140161, Note Name: B2, Velocity: 49
Note OFF: Time 140175, Note Name: A2
Note ON: Time 140277, Note Name: A#2, Velocity: 50
Note OFF: Time 140293, Note Name: B2
Note ON: Time 140396, Note Name: C3, Velocity: 50
Note OFF: Time 140409, Note Name: A#2
Note ON: Time 140517, Note Name: B2, Velocity: 49
Note OFF: Time 140528, Note Name: C3
Note ON: Time 140641, Note Name: C#3, Velocity: 52
Note OFF: Time 140649, Note Name: B2
Note ON: Time 140760, Note Name: C3, Velocity: 53
Note OFF: Time 140773, Note Name: C#3
Note ON: Time 140878, Note Name: D3, Velocity: 53
Note OFF: Time 140892, Note Name: C3
Note ON: Time 140997, Note Name: C#3, Velocity: 52
Note OFF: Time 141010, Note Name: D3
Note ON: Time 141120, Note Name: D#3, Velocity: 53
Note OFF: Time 141129, Note Name: C#3
Note ON: Time 141242, Note Name: D3, Velocity: 51
Note OFF: Time 141252, Note Name: D#3
Note ON: Time 141365, Note Name: E3, Velocity: 54
Note OFF: Time 141374, Note Name: D3
Note ON: Time 141482, Note Name: D#3, Velocity: 55
Note OFF: Time 141497, Note Name: E3
Note ON: Time 141605, Note Name: F3, Velocity: 56
Note OFF: Time 141614, Note Name: D#3
Note ON: Time 141717, Note Name: E3, Velocity: 54
Note OFF: Time 141737, Note Name: F3
Note ON: Time 141840, Note Name: F#3, Velocity: 56
Note OFF: Time 141849, Note Name: E3
Note ON: Time 141957, Note Name: F3, Velocity: 55
Note OFF: Time 141972, Note Name: F#3
Note ON: Time 142084, Note Name: G3, Velocity: 57
Note OFF: Time 142089, Note Name: F3
Note ON: Time 142200, Note Name: F#3, Velocity: 55
Note OFF: Time 142216, Note Name: G3
Note ON: Time 142318, Note Name: G#3, Velocity: 57
Note OFF: Time 142332, Note Name: F#3
Note ON: Time 142440, Note Name: G3, Velocity: 56
Note OFF: Time 142450, Note Name: G#3
Note ON: Time 142561, Note Name: A#3, Velocity: 57
Note OFF: Time 142572, Note Name: G3
Note ON: Time 142678, Note Name: G#3, Velocity: 54
Note OFF: Time 142693, Note Name: A#3
Note ON: Time 142798, Note Name: G3, Velocity: 53
Note OFF: Time 142810, Note Name: G#3
Note ON: Time 142916, Note Name: F3, Velocity: 50
Note OFF: Time 142930, Note Name: G3
Note ON: Time 143038, Note Name: D#3, Velocity: 53
Note OFF: Time 143048, Note Name: F3
Note ON: Time 143157, Note Name: D3, Velocity: 48
Note OFF: Time 143170, Note Name: D#3
Note ON: Time 143285, Note Name: F3, Velocity: 51
Note OFF: Time 143289, Note Name: D3
Note ON: Time 143403, Note Name: D#3, Velocity: 47
Note OFF: Time 143417, Note Name: F3
Note ON: Time 143523, Note Name: G3, Velocity: 52
Note OFF: Time 143535, Note Name: D#3
Note ON: Time 143642, Note Name: F3, Velocity: 49
Note OFF: Time 143655, Note Name: G3
Note ON: Time 143762, Note Name: D#3, Velocity: 51
Note OFF: Time 143774, Note Name: F3
Note ON: Time 143877, Note Name: D3, Velocity: 47
Note OFF: Time 143894, Note Name: D#3
Note ON: Time 144003, Note Name: C3, Velocity: 51
Note OFF: Time 144009, Note Name: D3
Note ON: Time 144115, Note Name: B2, Velocity: 48
Note OFF: Time 144135, Note Name: C3
Note ON: Time 144242, Note Name: D3, Velocity: 53
Note OFF: Time 144247, Note Name: B2
Note ON: Time 144364, Note Name: C3, Velocity: 49
Note OFF: Time 144374, Note Name: D3
Note ON: Time 144478, Note Name: A#2, Velocity: 51
Note OFF: Time 144496, Note Name: C3
Note ON: Time 144595, Note Name: G#2, Velocity: 50
Note OFF: Time 144610, Note Name: A#2
Note ON: Time 144720, Note Name: G2, Velocity: 50
Note OFF: Time 144727, Note Name: G#2
Note ON: Time 144835, Note Name: F#2, Velocity: 49
Note OFF: Time 144852, Note Name: G2
Note ON: Time 144964, Note Name: G2, Velocity: 49
Note OFF: Time 144967, Note Name: F#2
Note ON: Time 145081, Note Name: G#2, Velocity: 47
Note OFF: Time 145096, Note Name: G2
Note ON: Time 145200, Note Name: F2, Velocity: 48
Note OFF: Time 145213, Note Name: G#2
Note ON: Time 145321, Note Name: G2, Velocity: 46
Note OFF: Time 145332, Note Name: F2
Note ON: Time 145441, Note Name: D#2, Velocity: 46
Note OFF: Time 145453, Note Name: G2
Note ON: Time 145563, Note Name: F2, Velocity: 44
Note OFF: Time 145573, Note Name: D#2
Note ON: Time 145682, Note Name: D2, Velocity: 44
Note OFF: Time 145695, Note Name: F2
Note ON: Time 145802, Note Name: D#2, Velocity: 43
Note OFF: Time 145814, Note Name: D2
Note ON: Time 145920, Note Name: C2, Velocity: 43
Note OFF: Time 145922, Note Name: D#2
Note OFF: Time 146040, Note Name: C2
Note ON: Time 146163, Note Name: C#4, Velocity: 49
Note ON: Time 146284, Note Name: C4, Velocity: 48
Note OFF: Time 146295, Note Name: C#4
Note ON: Time 146396, Note Name: A#3, Velocity: 47
Note OFF: Time 146416, Note Name: C4
Note ON: Time 146519, Note Name: G3, Velocity: 46
Note OFF: Time 146528, Note Name: A#3
Note ON: Time 146643, Note Name: G#3, Velocity: 45
Note OFF: Time 146651, Note Name: G3
Note ON: Time 146755, Note Name: G3, Velocity: 44
Note OFF: Time 146775, Note Name: G#3
Note ON: Time 146879, Note Name: E3, Velocity: 44
Note OFF: Time 146887, Note Name: G3
Note ON: Time 146995, Note Name: C3, Velocity: 43
Note OFF: Time 147011, Note Name: E3
Note ON: Time 147120, Note Name: C#3, Velocity: 42
Note OFF: Time 147127, Note Name: C3
Note ON: Time 147237, Note Name: C3, Velocity: 41
Note OFF: Time 147252, Note Name: C#3
Note ON: Time 147355, Note Name: A#2, Velocity: 40
Note OFF: Time 147369, Note Name: C3
Note ON: Time 147477, Note Name: G2, Velocity: 39
Note OFF: Time 147487, Note Name: A#2
Note ON: Time 147605, Note Name: G#2, Velocity: 38
Note OFF: Time 147609, Note Name: G2
Note ON: Time 147720, Note Name: G2, Velocity: 37
Note OFF: Time 147737, Note Name: G#2
Note ON: Time 147841, Note Name: F2, Velocity: 35
Note OFF: Time 147852, Note Name: G2
Note ON: Time 147955, Note Name: C2, Velocity: 32
Note OFF: Time 147973, Note Name: F2
Note ON: Time 148079, Note Name: F2, Velocity: 35
Note OFF: Time 148087, Note Name: C2
Note ON: Time 148205, Note Name: C2, Velocity: 28
Note OFF: Time 148211, Note Name: F2
Note ON: Time 148324, Note Name: F2, Velocity: 35
Note OFF: Time 148337, Note Name: C2
Note ON: Time 148438, Note Name: C2, Velocity: 31
Note OFF: Time 148456, Note Name: F2
Note ON: Time 148557, Note Name: F2, Velocity: 35
Note OFF: Time 148570, Note Name: C2
Note ON: Time 148678, Note Name: C2, Velocity: 28
Note OFF: Time 148689, Note Name: F2
Note ON: Time 148795, Note Name: F2, Velocity: 35
Note OFF: Time 148810, Note Name: C2
Note ON: Time 148925, Note Name: C2, Velocity: 32
Note OFF: Time 148927, Note Name: F2
Note ON: Time 149036, Note Name: F2, Velocity: 35
Note OFF: Time 149057, Note Name: C2
Note ON: Time 149155, Note Name: C2, Velocity: 30
Note OFF: Time 149168, Note Name: F2
Note ON: Time 149277, Note Name: F2, Velocity: 35
Note OFF: Time 149287, Note Name: C2
Note ON: Time 149398, Note Name: C2, Velocity: 32
Note OFF: Time 149409, Note Name: F2
Note ON: Time 149523, Note Name: F2, Velocity: 35
Note OFF: Time 149530, Note Name: C2
Note ON: Time 149642, Note Name: C2, Velocity: 28
Note OFF: Time 149655, Note Name: F2
Note ON: Time 149760, Note Name: C3, Velocity: 35
Note OFF: Time 149774, Note Name: C2
Note OFF: Time 149880, Note Name: C3
Note ON: Time 149995, Note Name: C#4, Velocity: 47
Note ON: Time 150117, Note Name: C4, Velocity: 46
Note OFF: Time 150127, Note Name: C#4
Note ON: Time 150236, Note Name: A#3, Velocity: 45
Note OFF: Time 150249, Note Name: C4
Note ON: Time 150357, Note Name: G3, Velocity: 44
Note OFF: Time 150368, Note Name: A#3
Note ON: Time 150481, Note Name: G#3, Velocity: 44
Note OFF: Time 150489, Note Name: G3
Note ON: Time 150596, Note Name: G3, Velocity: 44
Note OFF: Time 150613, Note Name: G#3
Note ON: Time 150721, Note Name: E3, Velocity: 43
Note OFF: Time 150728, Note Name: G3
Note ON: Time 150836, Note Name: C3, Velocity: 42
Note OFF: Time 150853, Note Name: E3
Note ON: Time 150959, Note Name: C#3, Velocity: 41
Note OFF: Time 150968, Note Name: C3
Note ON: Time 151083, Note Name: C3, Velocity: 40
Note OFF: Time 151091, Note Name: C#3
Note ON: Time 151198, Note Name: A#2, Velocity: 39
Note OFF: Time 151215, Note Name: C3
Note ON: Time 151315, Note Name: G2, Velocity: 38
Note OFF: Time 151330, Note Name: A#2
Note ON: Time 151438, Note Name: G#2, Velocity: 37
Note OFF: Time 151447, Note Name: G2
Note ON: Time 151562, Note Name: G2, Velocity: 36
Note OFF: Time 151570, Note Name: G#2
Note ON: Time 151684, Note Name: F2, Velocity: 35
Note OFF: Time 151694, Note Name: G2
Note ON: Time 151801, Note Name: C2, Velocity: 33
Note OFF: Time 151816, Note Name: F2
Note ON: Time 151924, Note Name: F2, Velocity: 35
Note OFF: Time 151933, Note Name: C2
Note ON: Time 152035, Note Name: C2, Velocity: 30
Note OFF: Time 152056, Note Name: F2
Note ON: Time 152163, Note Name: F2, Velocity: 35
Note OFF: Time 152167, Note Name: C2
Note ON: Time 152285, Note Name: C2, Velocity: 34
Note OFF: Time 152295, Note Name: F2
Note ON: Time 152401, Note Name: F2, Velocity: 35
Note OFF: Time 152417, Note Name: C2
Note ON: Time 152521, Note Name: C2, Velocity: 29
Note OFF: Time 152533, Note Name: F2
Note ON: Time 152641, Note Name: F2, Velocity: 35
Note OFF: Time 152653, Note Name: C2
Note ON: Time 152761, Note Name: C2, Velocity: 33
Note OFF: Time 152773, Note Name: F2
Note ON: Time 152877, Note Name: F2, Velocity: 35
Note OFF: Time 152893, Note Name: C2
Note ON: Time 153005, Note Name: C2, Velocity: 31
Note OFF: Time 153009, Note Name: F2
Note ON: Time 153117, Note Name: F2, Velocity: 35
Note OFF: Time 153137, Note Name: C2
Note ON: Time 153235, Note Name: C2, Velocity: 33
Note OFF: Time 153249, Note Name: F2
Note ON: Time 153357, Note Name: F2, Velocity: 35
Note OFF: Time 153367, Note Name: C2
Note ON: Time 153477, Note Name: C2, Velocity: 32
Note OFF: Time 153489, Note Name: F2
Note OFF: Time 153597, Note Name: C2
Note ON: Time 153600, Note Name: C3, Velocity: 35
Note OFF: Time 153720, Note Name: C3
Note ON: Time 153835, Note Name: G#5, Velocity: 81
Note OFF: Time 153955, Note Name: G#5
Note ON: Time 153960, Note Name: G5, Velocity: 80
Note ON: Time 154081, Note Name: E5, Velocity: 77
Note OFF: Time 154092, Note Name: G5
Note ON: Time 154205, Note Name: C5, Velocity: 76
Note OFF: Time 154213, Note Name: E5
Note ON: Time 154318, Note Name: C#5, Velocity: 81
Note OFF: Time 154337, Note Name: C5
Note ON: Time 154441, Note Name: C5, Velocity: 77
Note OFF: Time 154450, Note Name: C#5
Note ON: Time 154563, Note Name: A#4, Velocity: 79
Note OFF: Time 154573, Note Name: C5
Note ON: Time 154684, Note Name: G4, Velocity: 77
Note OFF: Time 154695, Note Name: A#4
Note ON: Time 154805, Note Name: G#4, Velocity: 84
Note OFF: Time 154816, Note Name: G4
Note ON: Time 154924, Note Name: G4, Velocity: 81
Note OFF: Time 154937, Note Name: G#4
Note ON: Time 155041, Note Name: E4, Velocity: 81
Note OFF: Time 155056, Note Name: G4
Note ON: Time 155158, Note Name: C4, Velocity: 79
Note OFF: Time 155173, Note Name: E4
Note ON: Time 155283, Note Name: C#4, Velocity: 84
Note OFF: Time 155290, Note Name: C4
Note ON: Time 155396, Note Name: C4, Velocity: 80
Note OFF: Time 155415, Note Name: C#4
Note ON: Time 155520, Note Name: A#3, Velocity: 80
Note OFF: Time 155528, Note Name: C4
Note ON: Time 155642, Note Name: G3, Velocity: 80
Note OFF: Time 155652, Note Name: A#3
Note ON: Time 155759, Note Name: G#3, Velocity: 85
Note OFF: Time 155774, Note Name: G3
Note ON: Time 155885, Note Name: G3, Velocity: 82
Note OFF: Time 155891, Note Name: G#3
Note ON: Time 155996, Note Name: E3, Velocity: 83
Note OFF: Time 156017, Note Name: G3
Note ON: Time 156119, Note Name: C3, Velocity: 81
Note OFF: Time 156128, Note Name: E3
Note ON: Time 156235, Note Name: C#3, Velocity: 84
Note OFF: Time 156251, Note Name: C3
Note ON: Time 156362, Note Name: C3, Velocity: 84
Note OFF: Time 156367, Note Name: C#3
Note ON: Time 156477, Note Name: A#2, Velocity: 83
Note OFF: Time 156494, Note Name: C3
Note ON: Time 156596, Note Name: G2, Velocity: 83
Note OFF: Time 156609, Note Name: A#2
Note ON: Time 156717, Note Name: G#2, Velocity: 88
Note OFF: Time 156728, Note Name: G2
Note ON: Time 156837, Note Name: G2, Velocity: 84
Note OFF: Time 156849, Note Name: G#2
Note ON: Time 156964, Note Name: E2, Velocity: 83
Note OFF: Time 156969, Note Name: G2
Note ON: Time 157083, Note Name: C2, Velocity: 83
Note OFF: Time 157096, Note Name: E2
Note ON: Time 157195, Note Name: C#2, Velocity: 84
Note OFF: Time 157215, Note Name: C2
Note ON: Time 157320, Note Name: C2, Velocity: 93
Note OFF: Time 157327, Note Name: C#2
Note OFF: Time 157440, Note Name: C2
Note ON: Time 157440, Note Name: F1, Velocity: 102
Note ON: Time 157440, Note Name: F2, Velocity: 102
Note OFF: Time 158380, Note Name: F2
Note OFF: Time 158380, Note Name: F1
Note ON: Time 158400, Note Name: F1, Velocity: 97
Note ON: Time 158400, Note Name: F2, Velocity: 97
Note OFF: Time 159300, Note Name: F2
Note OFF: Time 159300, Note Name: F1
Note ON: Time 159360, Note Name: C1, Velocity: 99
Note ON: Time 159360, Note Name: C2, Velocity: 99
Note OFF: Time 159600, Note Name: C2
Note OFF: Time 159600, Note Name: C1
Note ON: Time 159840, Note Name: C1, Velocity: 95
Note ON: Time 159840, Note Name: C2, Velocity: 95
Note OFF: Time 160080, Note Name: C2
Note OFF: Time 160080, Note Name: C1
Track 3: Chopin: Etude Op, 10, No. 12
Track 4: Copyright  1999 by Bernd Krger
Track 5: email: bernd.krueger@piano-midi.de
Track 6: http://www.piano-midi.de
Track 7: Edition: 1.4.99
