Processing deb_menu.mid...

Track 0: Suite bergamasque
Track 1: Piano right
Note ON: Time 120, Note Name: B3, Velocity: 45
Note ON: Time 120, Note Name: F4, Velocity: 45
Note OFF: Time 150, Note Name: F4
Note OFF: Time 150, Note Name: B3
Note ON: Time 360, Note Name: A4, Velocity: 45
Note ON: Time 360, Note Name: D4, Velocity: 45
Note OFF: Time 390, Note Name: D4
Note OFF: Time 390, Note Name: A4
Note ON: Time 480, Note Name: B3, Velocity: 48
Note OFF: Time 580, Note Name: B3
Note ON: Time 600, Note Name: B3, Velocity: 44
Note OFF: Time 660, Note Name: B3
Note ON: Time 660, Note Name: C4, Velocity: 44
Note OFF: Time 720, Note Name: C4
Note ON: Time 720, Note Name: A4, Velocity: 45
Note ON: Time 720, Note Name: F4, Velocity: 45
Note ON: Time 720, Note Name: B3, Velocity: 45
Note OFF: Time 840, Note Name: B3
Note OFF: Time 840, Note Name: F4
Note OFF: Time 840, Note Name: A4
Note ON: Time 840, Note Name: A3, Velocity: 45
Note OFF: Time 930, Note Name: A3
Note ON: Time 960, Note Name: B3, Velocity: 48
Note OFF: Time 1005, Note Name: B3
Note ON: Time 1200, Note Name: F4, Velocity: 43
Note ON: Time 1200, Note Name: A4, Velocity: 43
Note ON: Time 1200, Note Name: C4, Velocity: 43
Note OFF: Time 1290, Note Name: C4
Note OFF: Time 1290, Note Name: A4
Note OFF: Time 1290, Note Name: F4
Note ON: Time 1440, Note Name: B3, Velocity: 48
Note OFF: Time 1560, Note Name: B3
Note ON: Time 1560, Note Name: C4, Velocity: 45
Note OFF: Time 1680, Note Name: C4
Note ON: Time 1680, Note Name: C5, Velocity: 48
Note ON: Time 1680, Note Name: A4, Velocity: 48
Note ON: Time 1680, Note Name: D4, Velocity: 48
Note OFF: Time 1740, Note Name: D4
Note ON: Time 1800, Note Name: E4, Velocity: 45
Note OFF: Time 1860, Note Name: E4
Note OFF: Time 1920, Note Name: A4
Note OFF: Time 1920, Note Name: C5
Note ON: Time 1920, Note Name: F#4, Velocity: 48
Note OFF: Time 1980, Note Name: F#4
Note ON: Time 2040, Note Name: F#4, Velocity: 45
Note OFF: Time 2080, Note Name: F#4
Note ON: Time 2080, Note Name: G4, Velocity: 44
Note OFF: Time 2120, Note Name: G4
Note ON: Time 2120, Note Name: F#4, Velocity: 44
Note OFF: Time 2160, Note Name: F#4
Note ON: Time 2160, Note Name: E4, Velocity: 48
Note ON: Time 2160, Note Name: C5, Velocity: 42
Note ON: Time 2160, Note Name: A4, Velocity: 42
Note OFF: Time 2280, Note Name: E4
Note ON: Time 2280, Note Name: D4, Velocity: 45
Note OFF: Time 2400, Note Name: D4
Note OFF: Time 2400, Note Name: A4
Note OFF: Time 2400, Note Name: C5
Note ON: Time 2400, Note Name: C4, Velocity: 48
Note OFF: Time 2500, Note Name: C4
Note ON: Time 2520, Note Name: D4, Velocity: 44
Note OFF: Time 2620, Note Name: D4
Note ON: Time 2640, Note Name: C5, Velocity: 44
Note ON: Time 2640, Note Name: A4, Velocity: 44
Note ON: Time 2640, Note Name: E4, Velocity: 44
Note OFF: Time 2860, Note Name: E4
Note OFF: Time 2860, Note Name: A4
Note OFF: Time 2860, Note Name: C5
Note ON: Time 2880, Note Name: E4, Velocity: 48
Note OFF: Time 3000, Note Name: E4
Note ON: Time 3000, Note Name: F#4, Velocity: 45
Note OFF: Time 3120, Note Name: F#4
Note ON: Time 3120, Note Name: G#4, Velocity: 45
Note ON: Time 3120, Note Name: B3, Velocity: 48
Note OFF: Time 3180, Note Name: G#4
Note ON: Time 3240, Note Name: A4, Velocity: 45
Note OFF: Time 3300, Note Name: A4
Note OFF: Time 3360, Note Name: B3
Note ON: Time 3360, Note Name: F#4, Velocity: 48
Note OFF: Time 3460, Note Name: F#4
Note ON: Time 3480, Note Name: F#4, Velocity: 49
Note OFF: Time 3540, Note Name: F#4
Note ON: Time 3540, Note Name: G#4, Velocity: 51
Note OFF: Time 3600, Note Name: G#4
Note ON: Time 3600, Note Name: F#4, Velocity: 55
Note ON: Time 3600, Note Name: D4, Velocity: 48
Note OFF: Time 3720, Note Name: D4
Note OFF: Time 3720, Note Name: F#4
Note ON: Time 3720, Note Name: C4, Velocity: 43
Note ON: Time 3720, Note Name: E4, Velocity: 50
Note OFF: Time 3810, Note Name: E4
Note OFF: Time 3810, Note Name: C4
Note ON: Time 3840, Note Name: F#4, Velocity: 55
Note ON: Time 3840, Note Name: D4, Velocity: 48
Note OFF: Time 3960, Note Name: D4
Note OFF: Time 3960, Note Name: F#4
Note ON: Time 4080, Note Name: D4, Velocity: 57
Note ON: Time 4080, Note Name: F#4, Velocity: 57
Note ON: Time 4080, Note Name: A4, Velocity: 57
Note OFF: Time 4200, Note Name: A4
Note OFF: Time 4200, Note Name: F#4
Note OFF: Time 4200, Note Name: D4
Note ON: Time 4320, Note Name: G#4, Velocity: 49
Note ON: Time 4320, Note Name: E4, Velocity: 49
Note OFF: Time 4440, Note Name: E4
Note OFF: Time 4440, Note Name: G#4
Note ON: Time 4440, Note Name: F#4, Velocity: 46
Note ON: Time 4440, Note Name: A4, Velocity: 46
Note OFF: Time 4560, Note Name: A4
Note OFF: Time 4560, Note Name: F#4
Note ON: Time 4560, Note Name: E4, Velocity: 49
Note ON: Time 4560, Note Name: G#4, Velocity: 49
Note OFF: Time 4900, Note Name: G#4
Note OFF: Time 4900, Note Name: E4
Note ON: Time 4920, Note Name: F#4, Velocity: 48
Note ON: Time 4920, Note Name: A4, Velocity: 48
Note OFF: Time 5040, Note Name: A4
Note OFF: Time 5040, Note Name: F#4
Note ON: Time 5040, Note Name: G#4, Velocity: 51
Note ON: Time 5040, Note Name: B4, Velocity: 51
Note OFF: Time 5380, Note Name: B4
Note OFF: Time 5380, Note Name: G#4
Note ON: Time 5400, Note Name: A4, Velocity: 50
Note ON: Time 5400, Note Name: C5, Velocity: 50
Note OFF: Time 5520, Note Name: C5
Note OFF: Time 5520, Note Name: A4
Note ON: Time 5520, Note Name: E4, Velocity: 45
Note ON: Time 5520, Note Name: G#4, Velocity: 45
Note OFF: Time 5760, Note Name: G#4
Note OFF: Time 5760, Note Name: E4
Note ON: Time 5760, Note Name: E5, Velocity: 45
Note ON: Time 5760, Note Name: G5, Velocity: 45
Note OFF: Time 5880, Note Name: G5
Note OFF: Time 5880, Note Name: E5
Note ON: Time 5880, Note Name: D5, Velocity: 43
Note ON: Time 5880, Note Name: F5, Velocity: 43
Note OFF: Time 5940, Note Name: F5
Note OFF: Time 5940, Note Name: D5
Note ON: Time 5940, Note Name: E5, Velocity: 43
Note ON: Time 5940, Note Name: G5, Velocity: 43
Note OFF: Time 6000, Note Name: G5
Note OFF: Time 6000, Note Name: E5
Note ON: Time 6000, Note Name: D5, Velocity: 45
Note ON: Time 6000, Note Name: F5, Velocity: 45
Note OFF: Time 6120, Note Name: F5
Note OFF: Time 6120, Note Name: D5
Note ON: Time 6120, Note Name: C5, Velocity: 42
Note ON: Time 6120, Note Name: E5, Velocity: 42
Note OFF: Time 6240, Note Name: E5
Note OFF: Time 6240, Note Name: C5
Note ON: Time 6240, Note Name: D5, Velocity: 45
Note ON: Time 6240, Note Name: A#4, Velocity: 45
Note OFF: Time 6360, Note Name: A#4
Note OFF: Time 6360, Note Name: D5
Note ON: Time 6360, Note Name: A4, Velocity: 43
Note ON: Time 6360, Note Name: C5, Velocity: 43
Note OFF: Time 6480, Note Name: C5
Note OFF: Time 6480, Note Name: A4
Note ON: Time 6480, Note Name: A#4, Velocity: 44
Note ON: Time 6480, Note Name: D5, Velocity: 44
Note OFF: Time 6840, Note Name: D5
Note OFF: Time 6840, Note Name: A#4
Note ON: Time 6840, Note Name: A4, Velocity: 42
Note ON: Time 6840, Note Name: C5, Velocity: 42
Note OFF: Time 6900, Note Name: C5
Note OFF: Time 6900, Note Name: A4
Note ON: Time 6900, Note Name: A#4, Velocity: 42
Note ON: Time 6900, Note Name: D5, Velocity: 42
Note OFF: Time 6960, Note Name: D5
Note OFF: Time 6960, Note Name: A#4
Note ON: Time 6960, Note Name: C5, Velocity: 44
Note ON: Time 6960, Note Name: A4, Velocity: 44
Note OFF: Time 7080, Note Name: A4
Note OFF: Time 7080, Note Name: C5
Note ON: Time 7080, Note Name: A#4, Velocity: 42
Note ON: Time 7080, Note Name: G4, Velocity: 42
Note OFF: Time 7200, Note Name: G4
Note OFF: Time 7200, Note Name: A#4
Note ON: Time 7200, Note Name: F4, Velocity: 44
Note ON: Time 7200, Note Name: A4, Velocity: 44
Note OFF: Time 7320, Note Name: A4
Note OFF: Time 7320, Note Name: F4
Note ON: Time 7320, Note Name: E4, Velocity: 43
Note ON: Time 7320, Note Name: G4, Velocity: 43
Note OFF: Time 7440, Note Name: G4
Note OFF: Time 7440, Note Name: E4
Note ON: Time 7440, Note Name: F4, Velocity: 43
Note ON: Time 7440, Note Name: A4, Velocity: 43
Note OFF: Time 7660, Note Name: A4
Note OFF: Time 7660, Note Name: F4
Note ON: Time 7680, Note Name: A4, Velocity: 48
Note ON: Time 7680, Note Name: E5, Velocity: 51
Note ON: Time 7680, Note Name: G5, Velocity: 51
Note OFF: Time 7800, Note Name: G5
Note OFF: Time 7800, Note Name: E5
Note ON: Time 7800, Note Name: D5, Velocity: 49
Note ON: Time 7800, Note Name: F5, Velocity: 49
Note OFF: Time 7860, Note Name: F5
Note OFF: Time 7860, Note Name: D5
Note ON: Time 7860, Note Name: E5, Velocity: 49
Note ON: Time 7860, Note Name: G5, Velocity: 49
Note OFF: Time 7920, Note Name: G5
Note OFF: Time 7920, Note Name: E5
Note ON: Time 7920, Note Name: D5, Velocity: 51
Note ON: Time 7920, Note Name: F5, Velocity: 51
Note OFF: Time 8040, Note Name: F5
Note OFF: Time 8040, Note Name: D5
Note ON: Time 8040, Note Name: C5, Velocity: 48
Note ON: Time 8040, Note Name: E5, Velocity: 48
Note OFF: Time 8160, Note Name: E5
Note OFF: Time 8160, Note Name: C5
Note OFF: Time 8160, Note Name: A4
Note ON: Time 8160, Note Name: F4, Velocity: 39
Note ON: Time 8160, Note Name: A#4, Velocity: 51
Note ON: Time 8160, Note Name: D5, Velocity: 51
Note OFF: Time 8280, Note Name: D5
Note OFF: Time 8280, Note Name: A#4
Note ON: Time 8280, Note Name: A4, Velocity: 49
Note ON: Time 8280, Note Name: C5, Velocity: 49
Note OFF: Time 8400, Note Name: C5
Note OFF: Time 8400, Note Name: A4
Note ON: Time 8400, Note Name: A#4, Velocity: 50
Note ON: Time 8400, Note Name: D5, Velocity: 50
Note OFF: Time 8640, Note Name: F4
Note ON: Time 8640, Note Name: E4, Velocity: 43
Note OFF: Time 8760, Note Name: D5
Note OFF: Time 8760, Note Name: A#4
Note ON: Time 8760, Note Name: A4, Velocity: 46
Note ON: Time 8760, Note Name: C5, Velocity: 46
Note OFF: Time 8820, Note Name: C5
Note OFF: Time 8820, Note Name: A4
Note ON: Time 8820, Note Name: A#4, Velocity: 46
Note ON: Time 8820, Note Name: D5, Velocity: 46
Note OFF: Time 8880, Note Name: D5
Note OFF: Time 8880, Note Name: A#4
Note ON: Time 8880, Note Name: C5, Velocity: 49
Note ON: Time 8880, Note Name: A4, Velocity: 49
Note OFF: Time 9000, Note Name: A4
Note OFF: Time 9000, Note Name: C5
Note ON: Time 9000, Note Name: A#4, Velocity: 45
Note ON: Time 9000, Note Name: G4, Velocity: 45
Note OFF: Time 9120, Note Name: G4
Note OFF: Time 9120, Note Name: A#4
Note OFF: Time 9120, Note Name: E4
Note ON: Time 9120, Note Name: F4, Velocity: 46
Note ON: Time 9120, Note Name: A4, Velocity: 46
Note OFF: Time 9240, Note Name: A4
Note OFF: Time 9240, Note Name: F4
Note ON: Time 9240, Note Name: E4, Velocity: 45
Note ON: Time 9240, Note Name: G4, Velocity: 45
Note OFF: Time 9360, Note Name: G4
Note OFF: Time 9360, Note Name: E4
Note ON: Time 9360, Note Name: F4, Velocity: 49
Note ON: Time 9360, Note Name: A4, Velocity: 49
Note OFF: Time 9720, Note Name: A4
Note ON: Time 9720, Note Name: G4, Velocity: 48
Note OFF: Time 9840, Note Name: G4
Note ON: Time 9840, Note Name: A4, Velocity: 49
Note OFF: Time 9960, Note Name: F4
Note ON: Time 9960, Note Name: E4, Velocity: 46
Note OFF: Time 10080, Note Name: E4
Note ON: Time 10080, Note Name: D4, Velocity: 46
Note OFF: Time 10200, Note Name: A4
Note ON: Time 10200, Note Name: G4, Velocity: 46
Note OFF: Time 10320, Note Name: G4
Note ON: Time 10320, Note Name: A4, Velocity: 49
Note OFF: Time 10680, Note Name: A4
Note ON: Time 10680, Note Name: B4, Velocity: 52
Note OFF: Time 10800, Note Name: B4
Note ON: Time 10800, Note Name: D5, Velocity: 56
Note OFF: Time 10920, Note Name: D5
Note ON: Time 10920, Note Name: B4, Velocity: 52
Note OFF: Time 11040, Note Name: B4
Note ON: Time 11040, Note Name: A4, Velocity: 50
Note OFF: Time 11160, Note Name: A4
Note ON: Time 11160, Note Name: B4, Velocity: 49
Note OFF: Time 11280, Note Name: B4
Note ON: Time 11280, Note Name: E4, Velocity: 50
Note OFF: Time 11400, Note Name: E4
Note ON: Time 11400, Note Name: G4, Velocity: 49
Note OFF: Time 11520, Note Name: G4
Note OFF: Time 11520, Note Name: D4
Note ON: Time 11520, Note Name: D4, Velocity: 52
Note ON: Time 11520, Note Name: A4, Velocity: 52
Note OFF: Time 11640, Note Name: A4
Note ON: Time 11640, Note Name: G4, Velocity: 49
Note OFF: Time 11760, Note Name: G4
Note ON: Time 11760, Note Name: A4, Velocity: 52
Note OFF: Time 12120, Note Name: A4
Note ON: Time 12120, Note Name: B4, Velocity: 54
Note OFF: Time 12240, Note Name: B4
Note ON: Time 12240, Note Name: D5, Velocity: 56
Note OFF: Time 12360, Note Name: D5
Note ON: Time 12360, Note Name: B4, Velocity: 52
Note OFF: Time 12480, Note Name: B4
Note ON: Time 12480, Note Name: A4, Velocity: 55
Note OFF: Time 12600, Note Name: A4
Note ON: Time 12600, Note Name: B4, Velocity: 50
Note OFF: Time 12720, Note Name: B4
Note ON: Time 12720, Note Name: A4, Velocity: 49
Note OFF: Time 12840, Note Name: A4
Note ON: Time 12840, Note Name: F4, Velocity: 48
Note OFF: Time 12960, Note Name: F4
Note OFF: Time 12960, Note Name: D4
Note ON: Time 12960, Note Name: E4, Velocity: 39
Note ON: Time 12960, Note Name: C4, Velocity: 39
Note ON: Time 13560, Note Name: A3, Velocity: 44
Note OFF: Time 13605, Note Name: A3
Note ON: Time 13680, Note Name: B3, Velocity: 44
Note OFF: Time 13725, Note Name: B3
Note ON: Time 13800, Note Name: C4, Velocity: 44
Note OFF: Time 13845, Note Name: C4
Note ON: Time 13920, Note Name: D4, Velocity: 46
Note OFF: Time 13965, Note Name: D4
Note ON: Time 14040, Note Name: E4, Velocity: 42
Note OFF: Time 14085, Note Name: E4
Note ON: Time 14160, Note Name: F#4, Velocity: 42
Note OFF: Time 14205, Note Name: F#4
Note ON: Time 14280, Note Name: G#4, Velocity: 42
Note OFF: Time 14325, Note Name: G#4
Note OFF: Time 14400, Note Name: C4
Note OFF: Time 14400, Note Name: E4
Note ON: Time 14400, Note Name: D4, Velocity: 40
Note ON: Time 14400, Note Name: E4, Velocity: 40
Note ON: Time 15000, Note Name: A3, Velocity: 40
Note OFF: Time 15045, Note Name: A3
Note ON: Time 15120, Note Name: B3, Velocity: 40
Note OFF: Time 15165, Note Name: B3
Note ON: Time 15240, Note Name: C4, Velocity: 40
Note OFF: Time 15285, Note Name: C4
Note ON: Time 15360, Note Name: D4, Velocity: 44
Note OFF: Time 15405, Note Name: D4
Note ON: Time 15480, Note Name: E4, Velocity: 38
Note OFF: Time 15525, Note Name: E4
Note ON: Time 15600, Note Name: F#4, Velocity: 37
Note OFF: Time 15645, Note Name: F#4
Note ON: Time 15720, Note Name: G#4, Velocity: 34
Note OFF: Time 15765, Note Name: G#4
Note OFF: Time 15840, Note Name: E4
Note OFF: Time 15840, Note Name: D4
Note ON: Time 15840, Note Name: A3, Velocity: 44
Note OFF: Time 15870, Note Name: A3
Note ON: Time 15960, Note Name: B3, Velocity: 42
Note OFF: Time 15990, Note Name: B3
Note ON: Time 16080, Note Name: F4, Velocity: 39
Note ON: Time 16080, Note Name: A4, Velocity: 39
Note ON: Time 16080, Note Name: C4, Velocity: 44
Note OFF: Time 16110, Note Name: C4
Note OFF: Time 16110, Note Name: A4
Note OFF: Time 16110, Note Name: F4
Note ON: Time 16200, Note Name: D4, Velocity: 42
Note OFF: Time 16230, Note Name: D4
Note ON: Time 16320, Note Name: B3, Velocity: 44
Note OFF: Time 16420, Note Name: B3
Note ON: Time 16440, Note Name: B3, Velocity: 40
Note OFF: Time 16500, Note Name: B3
Note ON: Time 16500, Note Name: C4, Velocity: 40
Note OFF: Time 16560, Note Name: C4
Note ON: Time 16560, Note Name: A4, Velocity: 39
Note ON: Time 16560, Note Name: F4, Velocity: 39
Note ON: Time 16560, Note Name: B3, Velocity: 42
Note OFF: Time 16680, Note Name: B3
Note OFF: Time 16680, Note Name: F4
Note OFF: Time 16680, Note Name: A4
Note ON: Time 16680, Note Name: A3, Velocity: 42
Note OFF: Time 16770, Note Name: A3
Note ON: Time 16800, Note Name: B3, Velocity: 44
Note OFF: Time 16845, Note Name: B3
Note ON: Time 17040, Note Name: F4, Velocity: 39
Note ON: Time 17040, Note Name: A4, Velocity: 39
Note ON: Time 17040, Note Name: C4, Velocity: 39
Note OFF: Time 17070, Note Name: C4
Note OFF: Time 17070, Note Name: A4
Note OFF: Time 17070, Note Name: F4
Note ON: Time 17280, Note Name: B3, Velocity: 44
Note OFF: Time 17400, Note Name: B3
Note ON: Time 17400, Note Name: C4, Velocity: 42
Note OFF: Time 17520, Note Name: C4
Note ON: Time 17520, Note Name: C5, Velocity: 39
Note ON: Time 17520, Note Name: A4, Velocity: 39
Note ON: Time 17520, Note Name: D4, Velocity: 44
Note OFF: Time 17580, Note Name: D4
Note ON: Time 17640, Note Name: E4, Velocity: 42
Note OFF: Time 17700, Note Name: E4
Note OFF: Time 17760, Note Name: A4
Note OFF: Time 17760, Note Name: C5
Note ON: Time 17760, Note Name: F#4, Velocity: 44
Note OFF: Time 17820, Note Name: F#4
Note ON: Time 17880, Note Name: F#4, Velocity: 42
Note OFF: Time 17920, Note Name: F#4
Note ON: Time 17920, Note Name: G4, Velocity: 40
Note OFF: Time 17960, Note Name: G4
Note ON: Time 17960, Note Name: F#4, Velocity: 40
Note OFF: Time 18000, Note Name: F#4
Note ON: Time 18000, Note Name: C5, Velocity: 38
Note ON: Time 18000, Note Name: A4, Velocity: 38
Note ON: Time 18000, Note Name: E4, Velocity: 44
Note OFF: Time 18120, Note Name: E4
Note ON: Time 18120, Note Name: D4, Velocity: 42
Note OFF: Time 18240, Note Name: D4
Note OFF: Time 18240, Note Name: A4
Note OFF: Time 18240, Note Name: C5
Note ON: Time 18240, Note Name: C4, Velocity: 44
Note OFF: Time 18340, Note Name: C4
Note ON: Time 18360, Note Name: D4, Velocity: 40
Note OFF: Time 18460, Note Name: D4
Note ON: Time 18480, Note Name: E4, Velocity: 40
Note ON: Time 18480, Note Name: C5, Velocity: 40
Note ON: Time 18480, Note Name: A4, Velocity: 40
Note OFF: Time 18720, Note Name: A4
Note OFF: Time 18720, Note Name: C5
Note OFF: Time 18720, Note Name: E4
Note ON: Time 18720, Note Name: A4, Velocity: 44
Note OFF: Time 18750, Note Name: A4
Note ON: Time 18840, Note Name: B4, Velocity: 42
Note OFF: Time 18870, Note Name: B4
Note ON: Time 18960, Note Name: F4, Velocity: 39
Note ON: Time 18960, Note Name: D4, Velocity: 39
Note ON: Time 18960, Note Name: C5, Velocity: 44
Note OFF: Time 18990, Note Name: C5
Note OFF: Time 18990, Note Name: D4
Note OFF: Time 18990, Note Name: F4
Note ON: Time 19080, Note Name: D5, Velocity: 43
Note OFF: Time 19110, Note Name: D5
Note ON: Time 19200, Note Name: B4, Velocity: 45
Note OFF: Time 19300, Note Name: B4
Note ON: Time 19320, Note Name: B4, Velocity: 43
Note OFF: Time 19380, Note Name: B4
Note ON: Time 19380, Note Name: C5, Velocity: 43
Note OFF: Time 19440, Note Name: C5
Note ON: Time 19440, Note Name: D4, Velocity: 42
Note ON: Time 19440, Note Name: F4, Velocity: 42
Note ON: Time 19440, Note Name: B4, Velocity: 44
Note OFF: Time 19560, Note Name: B4
Note OFF: Time 19560, Note Name: F4
Note OFF: Time 19560, Note Name: D4
Note ON: Time 19560, Note Name: A4, Velocity: 44
Note OFF: Time 19650, Note Name: A4
Note ON: Time 19680, Note Name: B4, Velocity: 48
Note OFF: Time 19725, Note Name: B4
Note ON: Time 19920, Note Name: F4, Velocity: 43
Note ON: Time 19920, Note Name: D4, Velocity: 43
Note ON: Time 19920, Note Name: C5, Velocity: 43
Note OFF: Time 19950, Note Name: C5
Note OFF: Time 19950, Note Name: D4
Note OFF: Time 19950, Note Name: F4
Note ON: Time 20160, Note Name: B4, Velocity: 50
Note OFF: Time 20280, Note Name: B4
Note ON: Time 20280, Note Name: C5, Velocity: 48
Note OFF: Time 20400, Note Name: C5
Note ON: Time 20400, Note Name: C5, Velocity: 44
Note ON: Time 20400, Note Name: A4, Velocity: 44
Note ON: Time 20400, Note Name: D5, Velocity: 52
Note OFF: Time 20460, Note Name: D5
Note ON: Time 20520, Note Name: E5, Velocity: 50
Note OFF: Time 20580, Note Name: E5
Note OFF: Time 20640, Note Name: A4
Note OFF: Time 20640, Note Name: C5
Note ON: Time 20640, Note Name: F#5, Velocity: 52
Note OFF: Time 20700, Note Name: F#5
Note ON: Time 20760, Note Name: F#5, Velocity: 48
Note OFF: Time 20800, Note Name: F#5
Note ON: Time 20800, Note Name: G5, Velocity: 48
Note OFF: Time 20840, Note Name: G5
Note ON: Time 20840, Note Name: F#5, Velocity: 48
Note OFF: Time 20880, Note Name: F#5
Note ON: Time 20880, Note Name: E5, Velocity: 52
Note OFF: Time 21000, Note Name: E5
Note ON: Time 21000, Note Name: D5, Velocity: 50
Note OFF: Time 21120, Note Name: D5
Note ON: Time 21120, Note Name: C5, Velocity: 52
Note OFF: Time 21240, Note Name: C5
Note ON: Time 21240, Note Name: D5, Velocity: 48
Note OFF: Time 21360, Note Name: D5
Note ON: Time 21360, Note Name: E5, Velocity: 48
Note ON: Time 21600, Note Name: A4, Velocity: 45
Note ON: Time 21600, Note Name: C5, Velocity: 50
Note OFF: Time 21720, Note Name: C5
Note OFF: Time 21720, Note Name: A4
Note ON: Time 21720, Note Name: D5, Velocity: 48
Note OFF: Time 21840, Note Name: D5
Note OFF: Time 21840, Note Name: E5
Note ON: Time 21840, Note Name: G4, Velocity: 40
Note ON: Time 21840, Note Name: B4, Velocity: 40
Note ON: Time 21840, Note Name: E5, Velocity: 48
Note OFF: Time 22060, Note Name: E5
Note OFF: Time 22060, Note Name: B4
Note OFF: Time 22060, Note Name: G4
Note ON: Time 22080, Note Name: F#4, Velocity: 40
Note ON: Time 22080, Note Name: A4, Velocity: 46
Note OFF: Time 22200, Note Name: A4
Note ON: Time 22200, Note Name: B4, Velocity: 45
Note OFF: Time 22320, Note Name: B4
Note OFF: Time 22320, Note Name: F#4
Note ON: Time 22320, Note Name: F4, Velocity: 39
Note ON: Time 22320, Note Name: G#4, Velocity: 39
Note ON: Time 22320, Note Name: C5, Velocity: 46
Note OFF: Time 22560, Note Name: G#4
Note OFF: Time 22560, Note Name: F4
Note ON: Time 22560, Note Name: E4, Velocity: 38
Note ON: Time 22560, Note Name: G4, Velocity: 38
Note OFF: Time 22780, Note Name: C5
Note OFF: Time 22800, Note Name: G4
Note OFF: Time 22800, Note Name: E4
Note ON: Time 22800, Note Name: G#4, Velocity: 37
Note ON: Time 22800, Note Name: D#4, Velocity: 34
Note ON: Time 22800, Note Name: F#4, Velocity: 34
Note OFF: Time 23040, Note Name: F#4
Note OFF: Time 23040, Note Name: D#4
Note ON: Time 23040, Note Name: F4, Velocity: 31
Note ON: Time 23040, Note Name: D4, Velocity: 31
Note OFF: Time 23280, Note Name: D4
Note OFF: Time 23280, Note Name: F4
Note OFF: Time 23280, Note Name: G#4
Note ON: Time 23280, Note Name: E4, Velocity: 32
Note ON: Time 23280, Note Name: C#4, Velocity: 32
Note OFF: Time 23520, Note Name: C#4
Note ON: Time 23520, Note Name: C4, Velocity: 32
Note OFF: Time 23610, Note Name: C4
Note ON: Time 23760, Note Name: B3, Velocity: 31
Note OFF: Time 23850, Note Name: B3
Note ON: Time 24000, Note Name: D4, Velocity: 31
Note ON: Time 24000, Note Name: A#3, Velocity: 31
Note OFF: Time 24090, Note Name: A#3
Note OFF: Time 24090, Note Name: D4
Note OFF: Time 24480, Note Name: E4
Note ON: Time 24720, Note Name: C4, Velocity: 38
Note ON: Time 24720, Note Name: E4, Velocity: 38
Note ON: Time 24720, Note Name: A4, Velocity: 45
Note OFF: Time 24765, Note Name: A4
Note OFF: Time 24765, Note Name: E4
Note OFF: Time 24765, Note Name: C4
Note ON: Time 24840, Note Name: B3, Velocity: 33
Note ON: Time 24840, Note Name: D4, Velocity: 33
Note ON: Time 24840, Note Name: E4, Velocity: 39
Note OFF: Time 24885, Note Name: E4
Note OFF: Time 24885, Note Name: D4
Note OFF: Time 24885, Note Name: B3
Note ON: Time 24960, Note Name: B3, Velocity: 33
Note ON: Time 24960, Note Name: D4, Velocity: 33
Note ON: Time 24960, Note Name: E4, Velocity: 39
Note OFF: Time 24994, Note Name: E4
Note OFF: Time 24994, Note Name: D4
Note OFF: Time 24994, Note Name: B3
Note ON: Time 25080, Note Name: C4, Velocity: 33
Note ON: Time 25080, Note Name: E4, Velocity: 33
Note ON: Time 25080, Note Name: A4, Velocity: 39
Note OFF: Time 25125, Note Name: A4
Note OFF: Time 25125, Note Name: E4
Note OFF: Time 25125, Note Name: C4
Note ON: Time 25200, Note Name: C4, Velocity: 37
Note ON: Time 25200, Note Name: E4, Velocity: 37
Note ON: Time 25200, Note Name: A4, Velocity: 44
Note OFF: Time 25245, Note Name: A4
Note OFF: Time 25245, Note Name: E4
Note OFF: Time 25245, Note Name: C4
Note ON: Time 25320, Note Name: E4, Velocity: 44
Note ON: Time 25320, Note Name: B3, Velocity: 37
Note ON: Time 25320, Note Name: D4, Velocity: 37
Note OFF: Time 25365, Note Name: D4
Note OFF: Time 25365, Note Name: B3
Note OFF: Time 25365, Note Name: E4
Note ON: Time 25440, Note Name: B3, Velocity: 34
Note ON: Time 25440, Note Name: E4, Velocity: 40
Note ON: Time 25440, Note Name: D4, Velocity: 34
Note OFF: Time 25474, Note Name: D4
Note OFF: Time 25474, Note Name: E4
Note OFF: Time 25474, Note Name: B3
Note ON: Time 25560, Note Name: C4, Velocity: 36
Note ON: Time 25560, Note Name: E4, Velocity: 36
Note ON: Time 25560, Note Name: A4, Velocity: 43
Note OFF: Time 25605, Note Name: A4
Note OFF: Time 25605, Note Name: E4
Note OFF: Time 25605, Note Name: C4
Note ON: Time 25680, Note Name: D4, Velocity: 41
Note ON: Time 25680, Note Name: G4, Velocity: 41
Note ON: Time 25680, Note Name: B4, Velocity: 49
Note OFF: Time 25714, Note Name: B4
Note OFF: Time 25714, Note Name: G4
Note OFF: Time 25714, Note Name: D4
Note ON: Time 25920, Note Name: A5, Velocity: 78
Note ON: Time 25920, Note Name: A4, Velocity: 68
Note OFF: Time 26150, Note Name: A4
Note OFF: Time 26150, Note Name: A5
Note ON: Time 26160, Note Name: C4, Velocity: 38
Note ON: Time 26160, Note Name: E4, Velocity: 38
Note ON: Time 26160, Note Name: A4, Velocity: 45
Note OFF: Time 26205, Note Name: A4
Note OFF: Time 26205, Note Name: E4
Note OFF: Time 26205, Note Name: C4
Note ON: Time 26280, Note Name: B3, Velocity: 33
Note ON: Time 26280, Note Name: D4, Velocity: 33
Note ON: Time 26280, Note Name: E4, Velocity: 39
Note OFF: Time 26325, Note Name: E4
Note OFF: Time 26325, Note Name: D4
Note OFF: Time 26325, Note Name: B3
Note ON: Time 26400, Note Name: B3, Velocity: 33
Note ON: Time 26400, Note Name: D4, Velocity: 33
Note ON: Time 26400, Note Name: E4, Velocity: 39
Note OFF: Time 26434, Note Name: E4
Note OFF: Time 26434, Note Name: D4
Note OFF: Time 26434, Note Name: B3
Note ON: Time 26520, Note Name: C4, Velocity: 33
Note ON: Time 26520, Note Name: E4, Velocity: 33
Note ON: Time 26520, Note Name: A4, Velocity: 39
Note OFF: Time 26565, Note Name: A4
Note OFF: Time 26565, Note Name: E4
Note OFF: Time 26565, Note Name: C4
Note ON: Time 26640, Note Name: E4, Velocity: 37
Note ON: Time 26640, Note Name: A4, Velocity: 44
Note ON: Time 26640, Note Name: C4, Velocity: 37
Note OFF: Time 26685, Note Name: C4
Note OFF: Time 26685, Note Name: A4
Note OFF: Time 26685, Note Name: E4
Note ON: Time 26760, Note Name: D4, Velocity: 37
Note ON: Time 26760, Note Name: B3, Velocity: 37
Note ON: Time 26760, Note Name: E4, Velocity: 44
Note OFF: Time 26805, Note Name: E4
Note OFF: Time 26805, Note Name: B3
Note OFF: Time 26805, Note Name: D4
Note ON: Time 26880, Note Name: B3, Velocity: 34
Note ON: Time 26880, Note Name: E4, Velocity: 40
Note ON: Time 26880, Note Name: D4, Velocity: 34
Note OFF: Time 26914, Note Name: D4
Note OFF: Time 26914, Note Name: E4
Note OFF: Time 26914, Note Name: B3
Note ON: Time 27000, Note Name: C4, Velocity: 39
Note ON: Time 27000, Note Name: E4, Velocity: 39
Note ON: Time 27000, Note Name: A4, Velocity: 46
Note OFF: Time 27045, Note Name: A4
Note OFF: Time 27045, Note Name: E4
Note OFF: Time 27045, Note Name: C4
Note ON: Time 27120, Note Name: D4, Velocity: 43
Note ON: Time 27120, Note Name: G4, Velocity: 43
Note ON: Time 27120, Note Name: B4, Velocity: 51
Note OFF: Time 27154, Note Name: B4
Note OFF: Time 27154, Note Name: G4
Note OFF: Time 27154, Note Name: D4
Note ON: Time 27360, Note Name: C6, Velocity: 79
Note ON: Time 27360, Note Name: C5, Velocity: 69
Note OFF: Time 27590, Note Name: C5
Note OFF: Time 27590, Note Name: C6
Note ON: Time 27600, Note Name: E4, Velocity: 42
Note ON: Time 27600, Note Name: G4, Velocity: 42
Note ON: Time 27600, Note Name: C5, Velocity: 50
Note OFF: Time 27645, Note Name: C5
Note OFF: Time 27645, Note Name: G4
Note OFF: Time 27645, Note Name: E4
Note ON: Time 27720, Note Name: D4, Velocity: 36
Note ON: Time 27720, Note Name: F4, Velocity: 36
Note ON: Time 27720, Note Name: G4, Velocity: 43
Note OFF: Time 27765, Note Name: G4
Note OFF: Time 27765, Note Name: F4
Note OFF: Time 27765, Note Name: D4
Note ON: Time 27840, Note Name: D4, Velocity: 36
Note ON: Time 27840, Note Name: F4, Velocity: 36
Note ON: Time 27840, Note Name: G4, Velocity: 43
Note OFF: Time 27874, Note Name: G4
Note OFF: Time 27874, Note Name: F4
Note OFF: Time 27874, Note Name: D4
Note ON: Time 27960, Note Name: C5, Velocity: 43
Note ON: Time 27960, Note Name: E4, Velocity: 36
Note ON: Time 27960, Note Name: G4, Velocity: 36
Note OFF: Time 28005, Note Name: G4
Note OFF: Time 28005, Note Name: E4
Note OFF: Time 28005, Note Name: C5
Note ON: Time 28080, Note Name: E4, Velocity: 41
Note ON: Time 28080, Note Name: G4, Velocity: 41
Note ON: Time 28080, Note Name: C5, Velocity: 49
Note OFF: Time 28125, Note Name: C5
Note OFF: Time 28125, Note Name: G4
Note OFF: Time 28125, Note Name: E4
Note ON: Time 28200, Note Name: D4, Velocity: 41
Note ON: Time 28200, Note Name: F4, Velocity: 41
Note ON: Time 28200, Note Name: G4, Velocity: 49
Note OFF: Time 28245, Note Name: G4
Note OFF: Time 28245, Note Name: F4
Note OFF: Time 28245, Note Name: D4
Note ON: Time 28320, Note Name: D4, Velocity: 37
Note ON: Time 28320, Note Name: G4, Velocity: 44
Note ON: Time 28320, Note Name: F4, Velocity: 37
Note OFF: Time 28354, Note Name: F4
Note OFF: Time 28354, Note Name: G4
Note OFF: Time 28354, Note Name: D4
Note ON: Time 28440, Note Name: E4, Velocity: 43
Note ON: Time 28440, Note Name: G4, Velocity: 43
Note ON: Time 28440, Note Name: C5, Velocity: 51
Note OFF: Time 28485, Note Name: C5
Note OFF: Time 28485, Note Name: G4
Note OFF: Time 28485, Note Name: E4
Note ON: Time 28560, Note Name: F4, Velocity: 47
Note ON: Time 28560, Note Name: A#4, Velocity: 47
Note ON: Time 28560, Note Name: D5, Velocity: 56
Note OFF: Time 28594, Note Name: D5
Note OFF: Time 28594, Note Name: A#4
Note OFF: Time 28594, Note Name: F4
Note ON: Time 28800, Note Name: C6, Velocity: 88
Note ON: Time 28800, Note Name: C5, Velocity: 75
Note OFF: Time 29030, Note Name: C5
Note OFF: Time 29030, Note Name: C6
Note ON: Time 29040, Note Name: E4, Velocity: 48
Note ON: Time 29040, Note Name: G4, Velocity: 48
Note ON: Time 29040, Note Name: C5, Velocity: 57
Note OFF: Time 29085, Note Name: C5
Note OFF: Time 29085, Note Name: G4
Note OFF: Time 29085, Note Name: E4
Note ON: Time 29160, Note Name: D4, Velocity: 41
Note ON: Time 29160, Note Name: F4, Velocity: 41
Note ON: Time 29160, Note Name: G4, Velocity: 49
Note OFF: Time 29205, Note Name: G4
Note OFF: Time 29205, Note Name: F4
Note OFF: Time 29205, Note Name: D4
Note ON: Time 29280, Note Name: G4, Velocity: 49
Note ON: Time 29280, Note Name: F4, Velocity: 41
Note ON: Time 29280, Note Name: D4, Velocity: 41
Note OFF: Time 29314, Note Name: D4
Note OFF: Time 29314, Note Name: F4
Note OFF: Time 29314, Note Name: G4
Note ON: Time 29400, Note Name: E4, Velocity: 41
Note ON: Time 29400, Note Name: G4, Velocity: 41
Note ON: Time 29400, Note Name: C5, Velocity: 49
Note OFF: Time 29445, Note Name: C5
Note OFF: Time 29445, Note Name: G4
Note OFF: Time 29445, Note Name: E4
Note ON: Time 29520, Note Name: E4, Velocity: 47
Note ON: Time 29520, Note Name: G4, Velocity: 47
Note ON: Time 29520, Note Name: C5, Velocity: 56
Note OFF: Time 29565, Note Name: C5
Note OFF: Time 29565, Note Name: G4
Note OFF: Time 29565, Note Name: E4
Note ON: Time 29640, Note Name: D4, Velocity: 47
Note ON: Time 29640, Note Name: F4, Velocity: 47
Note ON: Time 29640, Note Name: G4, Velocity: 56
Note OFF: Time 29685, Note Name: G4
Note OFF: Time 29685, Note Name: F4
Note OFF: Time 29685, Note Name: D4
Note ON: Time 29760, Note Name: D4, Velocity: 42
Note ON: Time 29760, Note Name: G4, Velocity: 50
Note ON: Time 29760, Note Name: F4, Velocity: 42
Note OFF: Time 29794, Note Name: F4
Note OFF: Time 29794, Note Name: G4
Note OFF: Time 29794, Note Name: D4
Note ON: Time 29880, Note Name: E4, Velocity: 49
Note ON: Time 29880, Note Name: G4, Velocity: 49
Note ON: Time 29880, Note Name: C5, Velocity: 58
Note OFF: Time 29925, Note Name: C5
Note OFF: Time 29925, Note Name: G4
Note OFF: Time 29925, Note Name: E4
Note ON: Time 30000, Note Name: F4, Velocity: 55
Note ON: Time 30000, Note Name: A#4, Velocity: 55
Note ON: Time 30000, Note Name: D5, Velocity: 65
Note OFF: Time 30240, Note Name: D5
Note OFF: Time 30240, Note Name: A#4
Note OFF: Time 30240, Note Name: F4
Note ON: Time 30240, Note Name: D#5, Velocity: 62
Note ON: Time 30240, Note Name: A#4, Velocity: 57
Note OFF: Time 30360, Note Name: D#5
Note ON: Time 30360, Note Name: D5, Velocity: 60
Note OFF: Time 30480, Note Name: D5
Note ON: Time 30480, Note Name: D#5, Velocity: 63
Note OFF: Time 30840, Note Name: D#5
Note ON: Time 30840, Note Name: D5, Velocity: 60
Note OFF: Time 30960, Note Name: D5
Note ON: Time 30960, Note Name: D#5, Velocity: 63
Note OFF: Time 31320, Note Name: D#5
Note ON: Time 31320, Note Name: D5, Velocity: 61
Note OFF: Time 31440, Note Name: D5
Note ON: Time 31440, Note Name: D#5, Velocity: 64
Note OFF: Time 31680, Note Name: A#4
Note OFF: Time 31800, Note Name: D#5
Note ON: Time 31800, Note Name: D5, Velocity: 60
Note OFF: Time 31920, Note Name: D5
Note ON: Time 31920, Note Name: D#5, Velocity: 60
Note OFF: Time 32040, Note Name: D#5
Note ON: Time 32040, Note Name: G5, Velocity: 62
Note OFF: Time 32160, Note Name: G5
Note ON: Time 32160, Note Name: G4, Velocity: 48
Note ON: Time 32160, Note Name: D5, Velocity: 62
Note OFF: Time 32280, Note Name: G4
Note ON: Time 32280, Note Name: A4, Velocity: 52
Note OFF: Time 32400, Note Name: A4
Note ON: Time 32400, Note Name: G4, Velocity: 51
Note OFF: Time 32520, Note Name: G4
Note ON: Time 32520, Note Name: E4, Velocity: 46
Note OFF: Time 32640, Note Name: E4
Note ON: Time 32640, Note Name: G4, Velocity: 48
Note OFF: Time 32760, Note Name: G4
Note ON: Time 32760, Note Name: A4, Velocity: 45
Note OFF: Time 32880, Note Name: A4
Note ON: Time 32880, Note Name: G4, Velocity: 44
Note OFF: Time 33000, Note Name: G4
Note ON: Time 33000, Note Name: E4, Velocity: 38
Note OFF: Time 33100, Note Name: E4
Note OFF: Time 33100, Note Name: D5
Note ON: Time 33120, Note Name: D5, Velocity: 55
Note ON: Time 33120, Note Name: A4, Velocity: 50
Note OFF: Time 33240, Note Name: D5
Note ON: Time 33240, Note Name: C5, Velocity: 54
Note OFF: Time 33360, Note Name: C5
Note ON: Time 33360, Note Name: D5, Velocity: 56
Note OFF: Time 33720, Note Name: D5
Note ON: Time 33720, Note Name: C5, Velocity: 54
Note OFF: Time 33840, Note Name: C5
Note ON: Time 33840, Note Name: D5, Velocity: 56
Note OFF: Time 34200, Note Name: D5
Note ON: Time 34200, Note Name: C5, Velocity: 54
Note OFF: Time 34320, Note Name: C5
Note ON: Time 34320, Note Name: D5, Velocity: 57
Note OFF: Time 34560, Note Name: A4
Note ON: Time 34560, Note Name: A#4, Velocity: 51
Note OFF: Time 34680, Note Name: D5
Note ON: Time 34680, Note Name: C5, Velocity: 55
Note OFF: Time 34800, Note Name: C5
Note ON: Time 34800, Note Name: D5, Velocity: 55
Note OFF: Time 34920, Note Name: D5
Note ON: Time 34920, Note Name: F5, Velocity: 57
Note OFF: Time 35040, Note Name: F5
Note OFF: Time 35040, Note Name: A#4
Note ON: Time 35040, Note Name: F4, Velocity: 43
Note ON: Time 35040, Note Name: A#4, Velocity: 55
Note OFF: Time 35160, Note Name: F4
Note ON: Time 35160, Note Name: D#4, Velocity: 46
Note OFF: Time 35280, Note Name: D#4
Note ON: Time 35280, Note Name: D4, Velocity: 45
Note OFF: Time 35400, Note Name: D4
Note ON: Time 35400, Note Name: D#4, Velocity: 44
Note OFF: Time 35520, Note Name: D#4
Note ON: Time 35520, Note Name: F4, Velocity: 43
Note OFF: Time 35640, Note Name: F4
Note ON: Time 35640, Note Name: D#4, Velocity: 40
Note OFF: Time 35760, Note Name: D#4
Note ON: Time 35760, Note Name: D4, Velocity: 39
Note OFF: Time 35880, Note Name: D4
Note ON: Time 35880, Note Name: D#4, Velocity: 38
Note OFF: Time 36120, Note Name: D#4
Note ON: Time 36120, Note Name: D4, Velocity: 46
Note OFF: Time 36240, Note Name: D4
Note ON: Time 36240, Note Name: C4, Velocity: 46
Note OFF: Time 36360, Note Name: C4
Note ON: Time 36360, Note Name: D#4, Velocity: 46
Note OFF: Time 36480, Note Name: A#4
Note ON: Time 36480, Note Name: A4, Velocity: 55
Note OFF: Time 36600, Note Name: D#4
Note ON: Time 36600, Note Name: D4, Velocity: 34
Note OFF: Time 36720, Note Name: D4
Note ON: Time 36720, Note Name: C4, Velocity: 34
Note OFF: Time 36840, Note Name: C4
Note ON: Time 36840, Note Name: D#4, Velocity: 34
Note OFF: Time 36960, Note Name: D#4
Note ON: Time 36960, Note Name: C4, Velocity: 38
Note ON: Time 36960, Note Name: G4, Velocity: 54
Note OFF: Time 36980, Note Name: A4
Note OFF: Time 37080, Note Name: C4
Note ON: Time 37080, Note Name: A#3, Velocity: 36
Note OFF: Time 37200, Note Name: A#3
Note ON: Time 37200, Note Name: A3, Velocity: 36
Note OFF: Time 37320, Note Name: A3
Note ON: Time 37320, Note Name: C4, Velocity: 36
Note ON: Time 37440, Note Name: F4, Velocity: 54
Note OFF: Time 37460, Note Name: G4
Note OFF: Time 37560, Note Name: C4
Note ON: Time 37560, Note Name: A#3, Velocity: 34
Note OFF: Time 37680, Note Name: A#3
Note ON: Time 37680, Note Name: A3, Velocity: 34
Note OFF: Time 37800, Note Name: A3
Note ON: Time 37800, Note Name: C4, Velocity: 34
Note OFF: Time 37920, Note Name: C4
Note ON: Time 37920, Note Name: A#3, Velocity: 34
Note OFF: Time 38040, Note Name: A#3
Note ON: Time 38040, Note Name: D4, Velocity: 34
Note OFF: Time 38160, Note Name: D4
Note OFF: Time 38160, Note Name: F4
Note ON: Time 38160, Note Name: F4, Velocity: 38
Note ON: Time 38160, Note Name: G4, Velocity: 52
Note OFF: Time 38280, Note Name: F4
Note ON: Time 38280, Note Name: D4, Velocity: 36
Note OFF: Time 38400, Note Name: D4
Note ON: Time 38400, Note Name: G4, Velocity: 39
Note ON: Time 38400, Note Name: A#4, Velocity: 57
Note OFF: Time 38420, Note Name: G4
Note OFF: Time 38520, Note Name: G4
Note ON: Time 38520, Note Name: F4, Velocity: 36
Note OFF: Time 38640, Note Name: F4
Note ON: Time 38640, Note Name: A#4, Velocity: 40
Note ON: Time 38640, Note Name: D5, Velocity: 55
Note OFF: Time 38660, Note Name: A#4
Note OFF: Time 38760, Note Name: A#4
Note ON: Time 38760, Note Name: G4, Velocity: 37
Note OFF: Time 38880, Note Name: G4
Note OFF: Time 38880, Note Name: D5
Note ON: Time 38880, Note Name: D#4, Velocity: 30
Note ON: Time 38880, Note Name: A#4, Velocity: 55
Note OFF: Time 39000, Note Name: D#4
Note ON: Time 39000, Note Name: D4, Velocity: 37
Note OFF: Time 39120, Note Name: D4
Note ON: Time 39120, Note Name: C4, Velocity: 37
Note OFF: Time 39240, Note Name: C4
Note ON: Time 39240, Note Name: D#4, Velocity: 37
Note ON: Time 39360, Note Name: A4, Velocity: 55
Note OFF: Time 39380, Note Name: A#4
Note OFF: Time 39480, Note Name: D#4
Note ON: Time 39480, Note Name: D4, Velocity: 34
Note OFF: Time 39600, Note Name: D4
Note ON: Time 39600, Note Name: C4, Velocity: 34
Note OFF: Time 39720, Note Name: C4
Note ON: Time 39720, Note Name: D#4, Velocity: 34
Note OFF: Time 39840, Note Name: D#4
Note ON: Time 39840, Note Name: C4, Velocity: 38
Note ON: Time 39840, Note Name: G4, Velocity: 54
Note OFF: Time 39860, Note Name: A4
Note OFF: Time 39960, Note Name: C4
Note ON: Time 39960, Note Name: A#3, Velocity: 36
Note OFF: Time 40080, Note Name: A#3
Note ON: Time 40080, Note Name: A3, Velocity: 36
Note OFF: Time 40200, Note Name: A3
Note ON: Time 40200, Note Name: C4, Velocity: 36
Note ON: Time 40320, Note Name: F4, Velocity: 54
Note OFF: Time 40340, Note Name: G4
Note OFF: Time 40440, Note Name: C4
Note ON: Time 40440, Note Name: A#3, Velocity: 34
Note OFF: Time 40560, Note Name: A#3
Note ON: Time 40560, Note Name: A3, Velocity: 34
Note OFF: Time 40680, Note Name: A3
Note ON: Time 40680, Note Name: C4, Velocity: 34
Note OFF: Time 40800, Note Name: C4
Note ON: Time 40800, Note Name: A#3, Velocity: 34
Note OFF: Time 40920, Note Name: A#3
Note ON: Time 40920, Note Name: D4, Velocity: 34
Note OFF: Time 41040, Note Name: D4
Note OFF: Time 41040, Note Name: F4
Note ON: Time 41040, Note Name: F4, Velocity: 38
Note ON: Time 41040, Note Name: G4, Velocity: 54
Note OFF: Time 41160, Note Name: F4
Note ON: Time 41160, Note Name: D4, Velocity: 36
Note OFF: Time 41280, Note Name: D4
Note ON: Time 41280, Note Name: G4, Velocity: 39
Note ON: Time 41280, Note Name: A#4, Velocity: 57
Note OFF: Time 41300, Note Name: G4
Note OFF: Time 41400, Note Name: G4
Note ON: Time 41400, Note Name: F4, Velocity: 36
Note OFF: Time 41520, Note Name: F4
Note ON: Time 41520, Note Name: D5, Velocity: 55
Note ON: Time 41520, Note Name: A#4, Velocity: 40
Note OFF: Time 41540, Note Name: A#4
Note OFF: Time 41640, Note Name: A#4
Note ON: Time 41640, Note Name: G4, Velocity: 37
Note OFF: Time 41760, Note Name: G4
Note ON: Time 41760, Note Name: A#4, Velocity: 42
Note ON: Time 41760, Note Name: E5, Velocity: 58
Note OFF: Time 41780, Note Name: D5
Note OFF: Time 41880, Note Name: A#4
Note ON: Time 41880, Note Name: G4, Velocity: 37
Note OFF: Time 42000, Note Name: G4
Note ON: Time 42000, Note Name: C5, Velocity: 39
Note ON: Time 42000, Note Name: F5, Velocity: 54
Note OFF: Time 42020, Note Name: E5
Note OFF: Time 42120, Note Name: C5
Note ON: Time 42120, Note Name: A4, Velocity: 37
Note OFF: Time 42240, Note Name: A4
Note OFF: Time 42240, Note Name: F5
Note ON: Time 42240, Note Name: A#4, Velocity: 39
Note ON: Time 42240, Note Name: D5, Velocity: 55
Note OFF: Time 42360, Note Name: A#4
Note ON: Time 42360, Note Name: G4, Velocity: 37
Note OFF: Time 42480, Note Name: G4
Note ON: Time 42480, Note Name: A#4, Velocity: 39
Note OFF: Time 42600, Note Name: A#4
Note ON: Time 42600, Note Name: G4, Velocity: 37
Note OFF: Time 42720, Note Name: G4
Note OFF: Time 42720, Note Name: D5
Note ON: Time 42720, Note Name: A#4, Velocity: 42
Note ON: Time 42720, Note Name: C5, Velocity: 55
Note OFF: Time 42840, Note Name: A#4
Note ON: Time 42840, Note Name: G4, Velocity: 37
Note OFF: Time 42960, Note Name: G4
Note ON: Time 42960, Note Name: A#4, Velocity: 42
Note ON: Time 42960, Note Name: D5, Velocity: 55
Note OFF: Time 42980, Note Name: C5
Note OFF: Time 43080, Note Name: A#4
Note ON: Time 43080, Note Name: G4, Velocity: 37
Note OFF: Time 43200, Note Name: G4
Note ON: Time 43200, Note Name: G5, Velocity: 63
Note ON: Time 43200, Note Name: D5, Velocity: 45
Note OFF: Time 43220, Note Name: D5
Note OFF: Time 43320, Note Name: D5
Note ON: Time 43320, Note Name: A#4, Velocity: 40
Note OFF: Time 43440, Note Name: A#4
Note OFF: Time 43440, Note Name: G5
Note ON: Time 43440, Note Name: E5, Velocity: 44
Note ON: Time 43440, Note Name: A5, Velocity: 57
Note OFF: Time 43560, Note Name: E5
Note ON: Time 43560, Note Name: C5, Velocity: 40
Note OFF: Time 43680, Note Name: C5
Note OFF: Time 43680, Note Name: A5
Note ON: Time 43680, Note Name: E5, Velocity: 46
Note ON: Time 43680, Note Name: A5, Velocity: 63
Note OFF: Time 43800, Note Name: E5
Note ON: Time 43800, Note Name: C5, Velocity: 40
Note OFF: Time 43920, Note Name: C5
Note OFF: Time 43920, Note Name: A5
Note ON: Time 43920, Note Name: C5, Velocity: 44
Note ON: Time 43920, Note Name: E5, Velocity: 57
Note OFF: Time 44040, Note Name: C5
Note ON: Time 44040, Note Name: A4, Velocity: 38
Note OFF: Time 44160, Note Name: A4
Note OFF: Time 44160, Note Name: E5
Note ON: Time 44160, Note Name: C5, Velocity: 44
Note ON: Time 44160, Note Name: E5, Velocity: 57
Note OFF: Time 44280, Note Name: C5
Note ON: Time 44280, Note Name: A4, Velocity: 36
Note OFF: Time 44400, Note Name: A4
Note ON: Time 44400, Note Name: C5, Velocity: 44
Note OFF: Time 44520, Note Name: C5
Note ON: Time 44520, Note Name: A4, Velocity: 36
Note OFF: Time 44640, Note Name: A4
Note OFF: Time 44640, Note Name: E5
Note ON: Time 44640, Note Name: A#4, Velocity: 44
Note ON: Time 44640, Note Name: E5, Velocity: 61
Note OFF: Time 44760, Note Name: A#4
Note ON: Time 44760, Note Name: G4, Velocity: 38
Note OFF: Time 44880, Note Name: G4
Note ON: Time 44880, Note Name: C5, Velocity: 40
Note ON: Time 44880, Note Name: F5, Velocity: 56
Note OFF: Time 44900, Note Name: E5
Note OFF: Time 45000, Note Name: C5
Note ON: Time 45000, Note Name: A4, Velocity: 38
Note OFF: Time 45120, Note Name: A4
Note OFF: Time 45120, Note Name: F5
Note ON: Time 45120, Note Name: A#4, Velocity: 40
Note ON: Time 45120, Note Name: D5, Velocity: 57
Note OFF: Time 45240, Note Name: A#4
Note ON: Time 45240, Note Name: G4, Velocity: 38
Note OFF: Time 45360, Note Name: G4
Note ON: Time 45360, Note Name: A#4, Velocity: 40
Note OFF: Time 45480, Note Name: A#4
Note ON: Time 45480, Note Name: G4, Velocity: 38
Note OFF: Time 45600, Note Name: G4
Note OFF: Time 45600, Note Name: D5
Note ON: Time 45600, Note Name: A#4, Velocity: 44
Note ON: Time 45600, Note Name: C5, Velocity: 57
Note OFF: Time 45720, Note Name: A#4
Note ON: Time 45720, Note Name: G4, Velocity: 38
Note OFF: Time 45840, Note Name: G4
Note ON: Time 45840, Note Name: A#4, Velocity: 44
Note ON: Time 45840, Note Name: D5, Velocity: 57
Note OFF: Time 45860, Note Name: C5
Note OFF: Time 45960, Note Name: A#4
Note ON: Time 45960, Note Name: G4, Velocity: 38
Note OFF: Time 46080, Note Name: G4
Note ON: Time 46080, Note Name: D5, Velocity: 48
Note ON: Time 46080, Note Name: G5, Velocity: 67
Note OFF: Time 46100, Note Name: D5
Note OFF: Time 46200, Note Name: D5
Note ON: Time 46200, Note Name: A#4, Velocity: 43
Note OFF: Time 46320, Note Name: A#4
Note OFF: Time 46320, Note Name: G5
Note ON: Time 46320, Note Name: E5, Velocity: 46
Note ON: Time 46320, Note Name: A5, Velocity: 60
Note OFF: Time 46440, Note Name: E5
Note ON: Time 46440, Note Name: C5, Velocity: 43
Note OFF: Time 46560, Note Name: C5
Note OFF: Time 46560, Note Name: A5
Note ON: Time 46560, Note Name: E5, Velocity: 49
Note ON: Time 46560, Note Name: A5, Velocity: 67
Note OFF: Time 46680, Note Name: E5
Note ON: Time 46680, Note Name: C5, Velocity: 43
Note OFF: Time 46800, Note Name: C5
Note OFF: Time 46800, Note Name: A5
Note ON: Time 46800, Note Name: C5, Velocity: 46
Note ON: Time 46800, Note Name: E5, Velocity: 60
Note OFF: Time 46920, Note Name: C5
Note ON: Time 46920, Note Name: A4, Velocity: 39
Note OFF: Time 47040, Note Name: A4
Note OFF: Time 47040, Note Name: E5
Note ON: Time 47040, Note Name: C5, Velocity: 46
Note ON: Time 47040, Note Name: E5, Velocity: 60
Note OFF: Time 47160, Note Name: C5
Note ON: Time 47160, Note Name: A4, Velocity: 37
Note OFF: Time 47280, Note Name: A4
Note OFF: Time 47280, Note Name: E5
Note ON: Time 47280, Note Name: A#5, Velocity: 70
Note ON: Time 47280, Note Name: F5, Velocity: 52
Note OFF: Time 47400, Note Name: F5
Note ON: Time 47400, Note Name: D5, Velocity: 44
Note OFF: Time 47520, Note Name: D5
Note OFF: Time 47520, Note Name: A#5
Note ON: Time 47520, Note Name: F5, Velocity: 58
Note ON: Time 47520, Note Name: A#5, Velocity: 76
Note OFF: Time 47640, Note Name: F5
Note ON: Time 47640, Note Name: D5, Velocity: 40
Note OFF: Time 47760, Note Name: D5
Note OFF: Time 47760, Note Name: A#5
Note ON: Time 47760, Note Name: G5, Velocity: 58
Note ON: Time 47760, Note Name: C6, Velocity: 70
Note OFF: Time 47880, Note Name: G5
Note ON: Time 47880, Note Name: E5, Velocity: 40
Note OFF: Time 48000, Note Name: E5
Note OFF: Time 48000, Note Name: C6
Note ON: Time 48000, Note Name: G5, Velocity: 58
Note ON: Time 48000, Note Name: C6, Velocity: 78
Note OFF: Time 48120, Note Name: G5
Note ON: Time 48120, Note Name: E5, Velocity: 40
Note OFF: Time 48240, Note Name: E5
Note OFF: Time 48240, Note Name: C6
Note ON: Time 48240, Note Name: E5, Velocity: 58
Note ON: Time 48240, Note Name: A5, Velocity: 70
Note OFF: Time 48360, Note Name: E5
Note ON: Time 48360, Note Name: C5, Velocity: 40
Note OFF: Time 48480, Note Name: C5
Note OFF: Time 48480, Note Name: A5
Note ON: Time 48480, Note Name: E5, Velocity: 58
Note ON: Time 48480, Note Name: A5, Velocity: 76
Note OFF: Time 48600, Note Name: E5
Note ON: Time 48600, Note Name: C5, Velocity: 40
Note OFF: Time 48720, Note Name: C5
Note OFF: Time 48720, Note Name: A5
Note ON: Time 48720, Note Name: A5, Velocity: 58
Note ON: Time 48720, Note Name: C6, Velocity: 79
Note OFF: Time 48840, Note Name: A5
Note ON: Time 48840, Note Name: E5, Velocity: 40
Note OFF: Time 48960, Note Name: E5
Note OFF: Time 48960, Note Name: C6
Note ON: Time 48960, Note Name: A#5, Velocity: 78
Note ON: Time 48960, Note Name: D6, Velocity: 78
Note OFF: Time 49080, Note Name: A#5
Note ON: Time 49080, Note Name: E5, Velocity: 44
Note OFF: Time 49200, Note Name: E5
Note OFF: Time 49200, Note Name: D6
Note ON: Time 49200, Note Name: A#5, Velocity: 76
Note ON: Time 49200, Note Name: D6, Velocity: 76
Note OFF: Time 49320, Note Name: A#5
Note ON: Time 49320, Note Name: F5, Velocity: 44
Note OFF: Time 49440, Note Name: F5
Note OFF: Time 49440, Note Name: D6
Note ON: Time 49440, Note Name: A#5, Velocity: 66
Note ON: Time 49440, Note Name: D6, Velocity: 66
Note OFF: Time 49560, Note Name: D6
Note OFF: Time 49560, Note Name: A#5
Note ON: Time 49560, Note Name: D5, Velocity: 51
Note OFF: Time 49680, Note Name: D5
Note ON: Time 49680, Note Name: A#5, Velocity: 65
Note ON: Time 49680, Note Name: D6, Velocity: 65
Note OFF: Time 49800, Note Name: D6
Note OFF: Time 49800, Note Name: A#5
Note ON: Time 49800, Note Name: D5, Velocity: 51
Note OFF: Time 49920, Note Name: D5
Note ON: Time 49920, Note Name: A#5, Velocity: 63
Note ON: Time 49920, Note Name: D6, Velocity: 63
Note OFF: Time 50040, Note Name: D6
Note OFF: Time 50040, Note Name: A#5
Note ON: Time 50040, Note Name: C5, Velocity: 50
Note OFF: Time 50160, Note Name: C5
Note ON: Time 50160, Note Name: A#5, Velocity: 60
Note ON: Time 50160, Note Name: D6, Velocity: 60
Note OFF: Time 50280, Note Name: D6
Note OFF: Time 50280, Note Name: A#5
Note ON: Time 50280, Note Name: D5, Velocity: 52
Note OFF: Time 50400, Note Name: D5
Note ON: Time 50400, Note Name: A#5, Velocity: 60
Note ON: Time 50400, Note Name: D6, Velocity: 60
Note OFF: Time 50520, Note Name: D6
Note OFF: Time 50520, Note Name: A#5
Note ON: Time 50520, Note Name: G5, Velocity: 53
Note OFF: Time 50640, Note Name: G5
Note ON: Time 50640, Note Name: A#5, Velocity: 60
Note ON: Time 50640, Note Name: D6, Velocity: 60
Note OFF: Time 50760, Note Name: D6
Note OFF: Time 50760, Note Name: A#5
Note ON: Time 50760, Note Name: A5, Velocity: 52
Note OFF: Time 50880, Note Name: A5
Note ON: Time 50880, Note Name: A#5, Velocity: 59
Note ON: Time 50880, Note Name: D6, Velocity: 59
Note OFF: Time 51000, Note Name: D6
Note OFF: Time 51000, Note Name: A#5
Note ON: Time 51000, Note Name: A5, Velocity: 45
Note OFF: Time 51120, Note Name: A5
Note ON: Time 51120, Note Name: A#5, Velocity: 57
Note ON: Time 51120, Note Name: D6, Velocity: 57
Note OFF: Time 51240, Note Name: D6
Note OFF: Time 51240, Note Name: A#5
Note ON: Time 51240, Note Name: E5, Velocity: 43
Note OFF: Time 51360, Note Name: E5
Note ON: Time 51360, Note Name: A#5, Velocity: 49
Note ON: Time 51360, Note Name: D6, Velocity: 49
Note OFF: Time 51480, Note Name: D6
Note OFF: Time 51480, Note Name: A#5
Note ON: Time 51480, Note Name: E5, Velocity: 39
Note OFF: Time 51600, Note Name: E5
Note ON: Time 51600, Note Name: A#5, Velocity: 47
Note ON: Time 51600, Note Name: D6, Velocity: 47
Note OFF: Time 51720, Note Name: D6
Note OFF: Time 51720, Note Name: A#5
Note ON: Time 51720, Note Name: E5, Velocity: 38
Note OFF: Time 51840, Note Name: E5
Note ON: Time 51840, Note Name: A#5, Velocity: 50
Note ON: Time 51840, Note Name: D6, Velocity: 69
Note OFF: Time 51960, Note Name: A#5
Note ON: Time 51960, Note Name: E5, Velocity: 34
Note OFF: Time 52080, Note Name: E5
Note OFF: Time 52080, Note Name: D6
Note ON: Time 52080, Note Name: A#5, Velocity: 49
Note ON: Time 52080, Note Name: D6, Velocity: 67
Note OFF: Time 52200, Note Name: A#5
Note ON: Time 52200, Note Name: F5, Velocity: 34
Note OFF: Time 52320, Note Name: F5
Note OFF: Time 52320, Note Name: D6
Note ON: Time 52320, Note Name: A#5, Velocity: 58
Note ON: Time 52320, Note Name: D6, Velocity: 58
Note OFF: Time 52440, Note Name: D6
Note OFF: Time 52440, Note Name: A#5
Note ON: Time 52440, Note Name: D5, Velocity: 37
Note OFF: Time 52560, Note Name: D5
Note ON: Time 52560, Note Name: A#5, Velocity: 57
Note ON: Time 52560, Note Name: D6, Velocity: 57
Note OFF: Time 52680, Note Name: D6
Note OFF: Time 52680, Note Name: A#5
Note ON: Time 52680, Note Name: D5, Velocity: 37
Note OFF: Time 52800, Note Name: D5
Note ON: Time 52800, Note Name: A#5, Velocity: 51
Note ON: Time 52800, Note Name: D6, Velocity: 51
Note OFF: Time 52920, Note Name: D6
Note OFF: Time 52920, Note Name: A#5
Note ON: Time 52920, Note Name: C5, Velocity: 35
Note OFF: Time 53040, Note Name: C5
Note ON: Time 53040, Note Name: A#5, Velocity: 48
Note ON: Time 53040, Note Name: D6, Velocity: 48
Note OFF: Time 53160, Note Name: D6
Note OFF: Time 53160, Note Name: A#5
Note ON: Time 53160, Note Name: D5, Velocity: 33
Note OFF: Time 53260, Note Name: D5
Note ON: Time 53280, Note Name: B5, Velocity: 44
Note ON: Time 53280, Note Name: E6, Velocity: 44
Note OFF: Time 53400, Note Name: E6
Note OFF: Time 53400, Note Name: B5
Note ON: Time 53400, Note Name: E5, Velocity: 38
Note OFF: Time 53520, Note Name: E5
Note ON: Time 53520, Note Name: B4, Velocity: 38
Note ON: Time 53520, Note Name: E5, Velocity: 38
Note OFF: Time 53640, Note Name: E5
Note OFF: Time 53640, Note Name: B4
Note ON: Time 53640, Note Name: E4, Velocity: 38
Note OFF: Time 53760, Note Name: E4
Note ON: Time 53760, Note Name: E5, Velocity: 45
Note ON: Time 53760, Note Name: A4, Velocity: 45
Note OFF: Time 53880, Note Name: A4
Note OFF: Time 53880, Note Name: E5
Note ON: Time 53880, Note Name: E4, Velocity: 42
Note OFF: Time 54000, Note Name: E4
Note ON: Time 54000, Note Name: A3, Velocity: 45
Note ON: Time 54000, Note Name: E4, Velocity: 45
Note OFF: Time 54120, Note Name: E4
Note OFF: Time 54120, Note Name: A3
Note ON: Time 54120, Note Name: E3, Velocity: 42
Note OFF: Time 54240, Note Name: E3
Note ON: Time 54240, Note Name: B3, Velocity: 47
Note ON: Time 54240, Note Name: E4, Velocity: 47
Note OFF: Time 54360, Note Name: E4
Note OFF: Time 54360, Note Name: B3
Note ON: Time 54360, Note Name: E3, Velocity: 45
Note OFF: Time 54480, Note Name: E3
Note ON: Time 54480, Note Name: B3, Velocity: 48
Note ON: Time 54480, Note Name: E4, Velocity: 48
Note OFF: Time 54600, Note Name: E4
Note OFF: Time 54600, Note Name: B3
Note ON: Time 54600, Note Name: E3, Velocity: 46
Note OFF: Time 54720, Note Name: E3
Note ON: Time 54720, Note Name: C4, Velocity: 50
Note ON: Time 54720, Note Name: E4, Velocity: 50
Note OFF: Time 54840, Note Name: E4
Note OFF: Time 54840, Note Name: C4
Note ON: Time 54840, Note Name: E3, Velocity: 47
Note OFF: Time 54960, Note Name: E3
Note ON: Time 54960, Note Name: C4, Velocity: 50
Note ON: Time 54960, Note Name: E4, Velocity: 50
Note OFF: Time 55080, Note Name: E4
Note OFF: Time 55080, Note Name: C4
Note ON: Time 55080, Note Name: E3, Velocity: 48
Note OFF: Time 55200, Note Name: E3
Note ON: Time 55200, Note Name: E4, Velocity: 49
Note ON: Time 55200, Note Name: D4, Velocity: 49
Note OFF: Time 55320, Note Name: D4
Note OFF: Time 55320, Note Name: E4
Note ON: Time 55320, Note Name: E3, Velocity: 47
Note OFF: Time 55440, Note Name: E3
Note ON: Time 55440, Note Name: C4, Velocity: 49
Note ON: Time 55440, Note Name: E4, Velocity: 49
Note OFF: Time 55560, Note Name: E4
Note OFF: Time 55560, Note Name: C4
Note ON: Time 55560, Note Name: E3, Velocity: 47
Note OFF: Time 55680, Note Name: E3
Note ON: Time 55680, Note Name: B3, Velocity: 41
Note ON: Time 55680, Note Name: D4, Velocity: 41
Note ON: Time 55680, Note Name: F4, Velocity: 41
Note OFF: Time 55920, Note Name: F4
Note ON: Time 55920, Note Name: A4, Velocity: 39
Note OFF: Time 56160, Note Name: A4
Note OFF: Time 56160, Note Name: D4
Note OFF: Time 56160, Note Name: B3
Note ON: Time 56160, Note Name: B5, Velocity: 44
Note ON: Time 56160, Note Name: E6, Velocity: 44
Note OFF: Time 56280, Note Name: E6
Note OFF: Time 56280, Note Name: B5
Note ON: Time 56280, Note Name: E5, Velocity: 38
Note OFF: Time 56400, Note Name: E5
Note ON: Time 56400, Note Name: B4, Velocity: 38
Note ON: Time 56400, Note Name: E5, Velocity: 38
Note OFF: Time 56520, Note Name: E5
Note OFF: Time 56520, Note Name: B4
Note ON: Time 56520, Note Name: E4, Velocity: 38
Note OFF: Time 56640, Note Name: E4
Note ON: Time 56640, Note Name: A4, Velocity: 45
Note ON: Time 56640, Note Name: E5, Velocity: 45
Note OFF: Time 56760, Note Name: E5
Note OFF: Time 56760, Note Name: A4
Note ON: Time 56760, Note Name: E4, Velocity: 42
Note OFF: Time 56880, Note Name: E4
Note ON: Time 56880, Note Name: E4, Velocity: 45
Note ON: Time 56880, Note Name: A3, Velocity: 45
Note OFF: Time 57000, Note Name: A3
Note OFF: Time 57000, Note Name: E4
Note ON: Time 57000, Note Name: E3, Velocity: 42
Note OFF: Time 57120, Note Name: E3
Note ON: Time 57120, Note Name: B3, Velocity: 46
Note ON: Time 57120, Note Name: E4, Velocity: 46
Note OFF: Time 57240, Note Name: E4
Note OFF: Time 57240, Note Name: B3
Note ON: Time 57240, Note Name: E3, Velocity: 43
Note OFF: Time 57360, Note Name: E3
Note ON: Time 57360, Note Name: B3, Velocity: 46
Note ON: Time 57360, Note Name: E4, Velocity: 46
Note OFF: Time 57480, Note Name: E4
Note OFF: Time 57480, Note Name: B3
Note ON: Time 57480, Note Name: E3, Velocity: 43
Note OFF: Time 57600, Note Name: E3
Note ON: Time 57600, Note Name: C4, Velocity: 45
Note ON: Time 57600, Note Name: E4, Velocity: 45
Note OFF: Time 57720, Note Name: E4
Note OFF: Time 57720, Note Name: C4
Note ON: Time 57720, Note Name: E3, Velocity: 41
Note OFF: Time 57840, Note Name: E3
Note ON: Time 57840, Note Name: C4, Velocity: 44
Note ON: Time 57840, Note Name: E4, Velocity: 44
Note OFF: Time 57960, Note Name: E4
Note OFF: Time 57960, Note Name: C4
Note ON: Time 57960, Note Name: E3, Velocity: 41
Note OFF: Time 58080, Note Name: E3
Note ON: Time 58080, Note Name: D4, Velocity: 41
Note ON: Time 58080, Note Name: E4, Velocity: 41
Note OFF: Time 58200, Note Name: E4
Note OFF: Time 58200, Note Name: D4
Note ON: Time 58200, Note Name: E3, Velocity: 39
Note OFF: Time 58320, Note Name: E3
Note ON: Time 58320, Note Name: E4, Velocity: 40
Note ON: Time 58320, Note Name: D4, Velocity: 40
Note OFF: Time 58440, Note Name: D4
Note OFF: Time 58440, Note Name: E4
Note ON: Time 58440, Note Name: E3, Velocity: 38
Note OFF: Time 58560, Note Name: E3
Note ON: Time 58560, Note Name: E4, Velocity: 39
Note OFF: Time 58680, Note Name: E4
Note ON: Time 58680, Note Name: E3, Velocity: 34
Note OFF: Time 58800, Note Name: E3
Note ON: Time 58800, Note Name: E4, Velocity: 36
Note OFF: Time 58920, Note Name: E4
Note ON: Time 58920, Note Name: E3, Velocity: 32
Note OFF: Time 59040, Note Name: E3
Note ON: Time 59040, Note Name: A4, Velocity: 44
Note ON: Time 59044, Note Name: C4, Velocity: 37
Note ON: Time 59044, Note Name: E4, Velocity: 37
Note OFF: Time 59070, Note Name: A4
Note OFF: Time 59074, Note Name: E4
Note OFF: Time 59074, Note Name: C4
Note ON: Time 59160, Note Name: B4, Velocity: 42
Note OFF: Time 59190, Note Name: B4
Note ON: Time 59280, Note Name: C5, Velocity: 44
Note OFF: Time 59310, Note Name: C5
Note ON: Time 59400, Note Name: D5, Velocity: 43
Note OFF: Time 59430, Note Name: D5
Note ON: Time 59520, Note Name: B4, Velocity: 44
Note OFF: Time 59620, Note Name: B4
Note ON: Time 59640, Note Name: B4, Velocity: 39
Note OFF: Time 59700, Note Name: B4
Note ON: Time 59700, Note Name: C5, Velocity: 39
Note OFF: Time 59760, Note Name: C5
Note ON: Time 59760, Note Name: B4, Velocity: 44
Note OFF: Time 59880, Note Name: B4
Note ON: Time 59880, Note Name: A4, Velocity: 44
Note OFF: Time 59970, Note Name: A4
Note ON: Time 60000, Note Name: C4, Velocity: 34
Note ON: Time 60000, Note Name: E4, Velocity: 34
Note ON: Time 60000, Note Name: B4, Velocity: 48
Note OFF: Time 60045, Note Name: B4
Note OFF: Time 60090, Note Name: E4
Note OFF: Time 60090, Note Name: C4
Note ON: Time 60240, Note Name: C5, Velocity: 43
Note OFF: Time 60330, Note Name: C5
Note ON: Time 60480, Note Name: B4, Velocity: 45
Note ON: Time 60480, Note Name: E4, Velocity: 37
Note ON: Time 60480, Note Name: C4, Velocity: 37
Note OFF: Time 60600, Note Name: B4
Note ON: Time 60600, Note Name: C5, Velocity: 43
Note OFF: Time 60720, Note Name: C5
Note OFF: Time 60720, Note Name: C4
Note OFF: Time 60720, Note Name: E4
Note ON: Time 60720, Note Name: D5, Velocity: 45
Note OFF: Time 60780, Note Name: D5
Note ON: Time 60840, Note Name: E5, Velocity: 43
Note OFF: Time 60900, Note Name: E5
Note ON: Time 60960, Note Name: F#5, Velocity: 45
Note OFF: Time 61020, Note Name: F#5
Note ON: Time 61080, Note Name: F#5, Velocity: 43
Note OFF: Time 61120, Note Name: F#5
Note ON: Time 61120, Note Name: G5, Velocity: 41
Note OFF: Time 61160, Note Name: G5
Note ON: Time 61160, Note Name: F#5, Velocity: 41
Note OFF: Time 61200, Note Name: F#5
Note ON: Time 61200, Note Name: E5, Velocity: 45
Note OFF: Time 61320, Note Name: E5
Note ON: Time 61320, Note Name: D5, Velocity: 43
Note OFF: Time 61440, Note Name: D5
Note ON: Time 61440, Note Name: C5, Velocity: 45
Note OFF: Time 61560, Note Name: C5
Note ON: Time 61560, Note Name: D5, Velocity: 41
Note OFF: Time 61680, Note Name: D5
Note ON: Time 61680, Note Name: E5, Velocity: 41
Note OFF: Time 61920, Note Name: E5
Note ON: Time 61920, Note Name: D5, Velocity: 37
Note ON: Time 61920, Note Name: A5, Velocity: 44
Note OFF: Time 61950, Note Name: A5
Note ON: Time 62040, Note Name: B5, Velocity: 42
Note OFF: Time 62070, Note Name: B5
Note ON: Time 62160, Note Name: C6, Velocity: 44
Note OFF: Time 62190, Note Name: C6
Note ON: Time 62280, Note Name: D6, Velocity: 43
Note OFF: Time 62310, Note Name: D6
Note ON: Time 62400, Note Name: B5, Velocity: 44
Note OFF: Time 62500, Note Name: B5
Note ON: Time 62520, Note Name: B5, Velocity: 39
Note OFF: Time 62580, Note Name: B5
Note ON: Time 62580, Note Name: C6, Velocity: 39
Note OFF: Time 62640, Note Name: C6
Note ON: Time 62640, Note Name: B5, Velocity: 44
Note OFF: Time 62760, Note Name: B5
Note ON: Time 62760, Note Name: A5, Velocity: 44
Note OFF: Time 62850, Note Name: A5
Note ON: Time 62880, Note Name: B5, Velocity: 48
Note OFF: Time 62925, Note Name: B5
Note ON: Time 63120, Note Name: C6, Velocity: 43
Note OFF: Time 63210, Note Name: C6
Note OFF: Time 63360, Note Name: D5
Note ON: Time 63360, Note Name: D5, Velocity: 37
Note ON: Time 63360, Note Name: B5, Velocity: 45
Note OFF: Time 63480, Note Name: B5
Note ON: Time 63480, Note Name: C6, Velocity: 43
Note OFF: Time 63600, Note Name: C6
Note ON: Time 63600, Note Name: D6, Velocity: 45
Note OFF: Time 63660, Note Name: D6
Note ON: Time 63720, Note Name: E6, Velocity: 43
Note OFF: Time 63780, Note Name: E6
Note ON: Time 63840, Note Name: F#6, Velocity: 45
Note OFF: Time 63900, Note Name: F#6
Note ON: Time 63960, Note Name: F#6, Velocity: 43
Note OFF: Time 64000, Note Name: F#6
Note ON: Time 64000, Note Name: G6, Velocity: 41
Note OFF: Time 64040, Note Name: G6
Note ON: Time 64040, Note Name: F#6, Velocity: 41
Note OFF: Time 64080, Note Name: F#6
Note ON: Time 64080, Note Name: E6, Velocity: 45
Note OFF: Time 64200, Note Name: E6
Note ON: Time 64200, Note Name: D6, Velocity: 43
Note OFF: Time 64320, Note Name: D6
Note ON: Time 64320, Note Name: C6, Velocity: 45
Note OFF: Time 64440, Note Name: C6
Note ON: Time 64440, Note Name: D6, Velocity: 41
Note OFF: Time 64560, Note Name: D6
Note ON: Time 64560, Note Name: E6, Velocity: 41
Note OFF: Time 64800, Note Name: D5
Note ON: Time 64800, Note Name: D5, Velocity: 30
Note ON: Time 64800, Note Name: G5, Velocity: 30
Note ON: Time 64800, Note Name: B5, Velocity: 30
Note OFF: Time 64920, Note Name: E6
Note ON: Time 64920, Note Name: D6, Velocity: 42
Note OFF: Time 64980, Note Name: D6
Note ON: Time 65040, Note Name: B5, Velocity: 41
Note OFF: Time 65100, Note Name: B5
Note ON: Time 65160, Note Name: A5, Velocity: 41
Note OFF: Time 65220, Note Name: A5
Note OFF: Time 65280, Note Name: B5
Note OFF: Time 65280, Note Name: G5
Note OFF: Time 65280, Note Name: D5
Note ON: Time 65280, Note Name: B5, Velocity: 44
Note OFF: Time 65340, Note Name: B5
Note ON: Time 65400, Note Name: G5, Velocity: 41
Note OFF: Time 65460, Note Name: G5
Note ON: Time 65520, Note Name: E5, Velocity: 41
Note OFF: Time 65580, Note Name: E5
Note ON: Time 65640, Note Name: D5, Velocity: 41
Note OFF: Time 65700, Note Name: D5
Note ON: Time 65760, Note Name: C5, Velocity: 46
Note ON: Time 65760, Note Name: G4, Velocity: 31
Note ON: Time 65760, Note Name: E5, Velocity: 31
Note OFF: Time 66000, Note Name: C5
Note ON: Time 66000, Note Name: A4, Velocity: 38
Note OFF: Time 66240, Note Name: A4
Note OFF: Time 66240, Note Name: G4
Note ON: Time 66240, Note Name: B4, Velocity: 30
Note ON: Time 66240, Note Name: G4, Velocity: 30
Note ON: Time 66240, Note Name: D4, Velocity: 30
Note OFF: Time 66360, Note Name: E5
Note ON: Time 66360, Note Name: D5, Velocity: 42
Note OFF: Time 66420, Note Name: D5
Note ON: Time 66480, Note Name: B4, Velocity: 41
Note OFF: Time 66540, Note Name: B4
Note ON: Time 66600, Note Name: A4, Velocity: 41
Note OFF: Time 66660, Note Name: A4
Note OFF: Time 66720, Note Name: D4
Note OFF: Time 66720, Note Name: G4
Note OFF: Time 66720, Note Name: B4
Note ON: Time 66720, Note Name: B4, Velocity: 44
Note OFF: Time 66780, Note Name: B4
Note ON: Time 66840, Note Name: G4, Velocity: 41
Note OFF: Time 66900, Note Name: G4
Note ON: Time 66960, Note Name: E4, Velocity: 41
Note OFF: Time 67020, Note Name: E4
Note ON: Time 67080, Note Name: D4, Velocity: 41
Note OFF: Time 67140, Note Name: D4
Note ON: Time 67200, Note Name: E4, Velocity: 30
Note ON: Time 67200, Note Name: C4, Velocity: 44
Note OFF: Time 67440, Note Name: C4
Note ON: Time 67440, Note Name: A3, Velocity: 38
Note OFF: Time 67680, Note Name: A3
Note ON: Time 67680, Note Name: G3, Velocity: 35
Note OFF: Time 67800, Note Name: E4
Note ON: Time 67800, Note Name: F#4, Velocity: 40
Note OFF: Time 67920, Note Name: F#4
Note ON: Time 67920, Note Name: G4, Velocity: 40
Note OFF: Time 67980, Note Name: G4
Note ON: Time 68040, Note Name: A4, Velocity: 40
Note OFF: Time 68100, Note Name: A4
Note ON: Time 68160, Note Name: E4, Velocity: 43
Note OFF: Time 68260, Note Name: E4
Note ON: Time 68280, Note Name: E4, Velocity: 39
Note OFF: Time 68340, Note Name: E4
Note ON: Time 68340, Note Name: F#4, Velocity: 39
Note OFF: Time 68400, Note Name: F#4
Note ON: Time 68400, Note Name: E4, Velocity: 43
Note OFF: Time 68520, Note Name: E4
Note ON: Time 68520, Note Name: D4, Velocity: 39
Note OFF: Time 68610, Note Name: D4
Note ON: Time 68640, Note Name: E4, Velocity: 44
Note OFF: Time 68715, Note Name: E4
Note ON: Time 68880, Note Name: G4, Velocity: 44
Note OFF: Time 68955, Note Name: G4
Note OFF: Time 69120, Note Name: G3
Note ON: Time 69120, Note Name: B4, Velocity: 44
Note ON: Time 69120, Note Name: D4, Velocity: 44
Note ON: Time 69120, Note Name: G4, Velocity: 44
Note OFF: Time 69195, Note Name: G4
Note OFF: Time 69195, Note Name: D4
Note OFF: Time 69195, Note Name: B4
Note ON: Time 69360, Note Name: C4, Velocity: 41
Note ON: Time 69360, Note Name: E4, Velocity: 41
Note ON: Time 69360, Note Name: A4, Velocity: 41
Note OFF: Time 69435, Note Name: A4
Note OFF: Time 69435, Note Name: E4
Note OFF: Time 69435, Note Name: C4
Note ON: Time 70560, Note Name: A4, Velocity: 77
Note ON: Time 70560, Note Name: A5, Velocity: 77
Note OFF: Time 70680, Note Name: A5
Note ON: Time 70680, Note Name: G5, Velocity: 70
Note OFF: Time 70740, Note Name: G5
Note ON: Time 70740, Note Name: F5, Velocity: 70
Note OFF: Time 70800, Note Name: F5
Note ON: Time 70800, Note Name: E5, Velocity: 70
Note OFF: Time 70860, Note Name: E5
Note ON: Time 70860, Note Name: D5, Velocity: 70
Note OFF: Time 70920, Note Name: D5
Note ON: Time 70920, Note Name: C5, Velocity: 70
Note OFF: Time 70980, Note Name: C5
Note ON: Time 70980, Note Name: B4, Velocity: 70
Note OFF: Time 71040, Note Name: B4
Note OFF: Time 71040, Note Name: A4
Note ON: Time 71040, Note Name: A4, Velocity: 77
Note ON: Time 71640, Note Name: C5, Velocity: 65
Note OFF: Time 71650, Note Name: A4
Note OFF: Time 71740, Note Name: C5
Note ON: Time 71760, Note Name: B4, Velocity: 68
Note ON: Time 71880, Note Name: D5, Velocity: 65
Note OFF: Time 71890, Note Name: B4
Note OFF: Time 71980, Note Name: D5
Note ON: Time 72000, Note Name: F4, Velocity: 58
Note ON: Time 72000, Note Name: C5, Velocity: 68
Note ON: Time 72120, Note Name: E5, Velocity: 65
Note OFF: Time 72130, Note Name: C5
Note OFF: Time 72220, Note Name: E5
Note ON: Time 72240, Note Name: D5, Velocity: 67
Note ON: Time 72360, Note Name: F5, Velocity: 68
Note OFF: Time 72370, Note Name: D5
Note OFF: Time 72460, Note Name: F5
Note ON: Time 72480, Note Name: E5, Velocity: 71
Note ON: Time 72600, Note Name: C5, Velocity: 61
Note OFF: Time 72610, Note Name: E5
Note ON: Time 72720, Note Name: B4, Velocity: 59
Note OFF: Time 72730, Note Name: C5
Note ON: Time 72840, Note Name: G4, Velocity: 55
Note OFF: Time 72850, Note Name: B4
Note OFF: Time 72960, Note Name: G4
Note OFF: Time 72960, Note Name: F4
Note ON: Time 72960, Note Name: F4, Velocity: 55
Note ON: Time 72960, Note Name: D4, Velocity: 55
Note OFF: Time 73200, Note Name: D4
Note OFF: Time 73200, Note Name: F4
Note ON: Time 73200, Note Name: E4, Velocity: 55
Note ON: Time 73200, Note Name: G4, Velocity: 55
Note OFF: Time 73410, Note Name: G4
Note OFF: Time 73410, Note Name: E4
Note ON: Time 73440, Note Name: A4, Velocity: 77
Note ON: Time 73440, Note Name: A5, Velocity: 77
Note OFF: Time 73560, Note Name: A5
Note ON: Time 73560, Note Name: G5, Velocity: 70
Note OFF: Time 73620, Note Name: G5
Note ON: Time 73620, Note Name: F5, Velocity: 70
Note OFF: Time 73680, Note Name: F5
Note ON: Time 73680, Note Name: E5, Velocity: 70
Note OFF: Time 73740, Note Name: E5
Note ON: Time 73740, Note Name: D5, Velocity: 70
Note OFF: Time 73800, Note Name: D5
Note ON: Time 73800, Note Name: C5, Velocity: 70
Note OFF: Time 73860, Note Name: C5
Note ON: Time 73860, Note Name: B4, Velocity: 70
Note OFF: Time 73920, Note Name: B4
Note OFF: Time 73920, Note Name: A4
Note ON: Time 73920, Note Name: A4, Velocity: 77
Note ON: Time 74520, Note Name: C5, Velocity: 65
Note OFF: Time 74530, Note Name: A4
Note OFF: Time 74620, Note Name: C5
Note ON: Time 74640, Note Name: B4, Velocity: 68
Note ON: Time 74760, Note Name: D5, Velocity: 65
Note OFF: Time 74770, Note Name: B4
Note OFF: Time 74860, Note Name: D5
Note ON: Time 74880, Note Name: F4, Velocity: 58
Note ON: Time 74880, Note Name: C5, Velocity: 68
Note ON: Time 75000, Note Name: E5, Velocity: 65
Note OFF: Time 75010, Note Name: C5
Note OFF: Time 75100, Note Name: E5
Note ON: Time 75120, Note Name: D5, Velocity: 67
Note ON: Time 75240, Note Name: F5, Velocity: 68
Note OFF: Time 75250, Note Name: D5
Note OFF: Time 75340, Note Name: F5
Note ON: Time 75360, Note Name: E5, Velocity: 71
Note ON: Time 75480, Note Name: C5, Velocity: 59
Note OFF: Time 75490, Note Name: E5
Note ON: Time 75600, Note Name: B4, Velocity: 59
Note OFF: Time 75610, Note Name: C5
Note ON: Time 75720, Note Name: G4, Velocity: 57
Note OFF: Time 75730, Note Name: B4
Note OFF: Time 75840, Note Name: G4
Note OFF: Time 75840, Note Name: F4
Note ON: Time 75840, Note Name: F4, Velocity: 55
Note ON: Time 75840, Note Name: D4, Velocity: 55
Note OFF: Time 76080, Note Name: D4
Note OFF: Time 76080, Note Name: F4
Note ON: Time 76080, Note Name: A4, Velocity: 55
Note ON: Time 76080, Note Name: F4, Velocity: 55
Note OFF: Time 76290, Note Name: F4
Note OFF: Time 76290, Note Name: A4
Note ON: Time 76320, Note Name: G4, Velocity: 77
Note ON: Time 76320, Note Name: G5, Velocity: 79
Note OFF: Time 76440, Note Name: G5
Note ON: Time 76440, Note Name: F5, Velocity: 70
Note OFF: Time 76500, Note Name: F5
Note ON: Time 76500, Note Name: D#5, Velocity: 70
Note OFF: Time 76560, Note Name: D#5
Note ON: Time 76560, Note Name: D5, Velocity: 70
Note OFF: Time 76620, Note Name: D5
Note ON: Time 76620, Note Name: C5, Velocity: 70
Note OFF: Time 76680, Note Name: C5
Note ON: Time 76680, Note Name: A#4, Velocity: 70
Note OFF: Time 76740, Note Name: A#4
Note ON: Time 76740, Note Name: A4, Velocity: 70
Note OFF: Time 76800, Note Name: A4
Note OFF: Time 76800, Note Name: G4
Note ON: Time 76800, Note Name: G4, Velocity: 77
Note ON: Time 77400, Note Name: A#4, Velocity: 65
Note OFF: Time 77410, Note Name: G4
Note OFF: Time 77500, Note Name: A#4
Note ON: Time 77520, Note Name: A4, Velocity: 68
Note ON: Time 77640, Note Name: C5, Velocity: 65
Note OFF: Time 77650, Note Name: A4
Note OFF: Time 77740, Note Name: C5
Note ON: Time 77760, Note Name: D#4, Velocity: 58
Note ON: Time 77760, Note Name: A#4, Velocity: 68
Note ON: Time 77880, Note Name: D5, Velocity: 65
Note OFF: Time 77890, Note Name: A#4
Note OFF: Time 77980, Note Name: D5
Note ON: Time 78000, Note Name: C5, Velocity: 67
Note ON: Time 78120, Note Name: D#5, Velocity: 68
Note OFF: Time 78130, Note Name: C5
Note OFF: Time 78220, Note Name: D#5
Note ON: Time 78240, Note Name: D5, Velocity: 71
Note ON: Time 78360, Note Name: A#4, Velocity: 58
Note OFF: Time 78370, Note Name: D5
Note ON: Time 78480, Note Name: A4, Velocity: 59
Note OFF: Time 78490, Note Name: A#4
Note ON: Time 78600, Note Name: F4, Velocity: 55
Note OFF: Time 78610, Note Name: A4
Note OFF: Time 78720, Note Name: F4
Note OFF: Time 78720, Note Name: D#4
Note ON: Time 78720, Note Name: C4, Velocity: 55
Note ON: Time 78720, Note Name: D#4, Velocity: 55
Note OFF: Time 78960, Note Name: D#4
Note OFF: Time 78960, Note Name: C4
Note ON: Time 78960, Note Name: F4, Velocity: 55
Note ON: Time 78960, Note Name: D4, Velocity: 55
Note OFF: Time 79170, Note Name: D4
Note OFF: Time 79170, Note Name: F4
Note ON: Time 79200, Note Name: G4, Velocity: 77
Note ON: Time 79200, Note Name: G5, Velocity: 79
Note OFF: Time 79320, Note Name: G5
Note ON: Time 79320, Note Name: F5, Velocity: 70
Note OFF: Time 79380, Note Name: F5
Note ON: Time 79380, Note Name: D#5, Velocity: 70
Note OFF: Time 79440, Note Name: D#5
Note ON: Time 79440, Note Name: D5, Velocity: 70
Note OFF: Time 79500, Note Name: D5
Note ON: Time 79500, Note Name: C5, Velocity: 70
Note OFF: Time 79560, Note Name: C5
Note ON: Time 79560, Note Name: A#4, Velocity: 70
Note OFF: Time 79620, Note Name: A#4
Note ON: Time 79620, Note Name: A4, Velocity: 70
Note OFF: Time 79680, Note Name: A4
Note OFF: Time 79680, Note Name: G4
Note ON: Time 79680, Note Name: G4, Velocity: 77
Note ON: Time 80280, Note Name: A#4, Velocity: 65
Note OFF: Time 80290, Note Name: G4
Note OFF: Time 80380, Note Name: A#4
Note ON: Time 80400, Note Name: A4, Velocity: 68
Note ON: Time 80520, Note Name: C5, Velocity: 65
Note OFF: Time 80530, Note Name: A4
Note OFF: Time 80620, Note Name: C5
Note ON: Time 80640, Note Name: D#4, Velocity: 58
Note ON: Time 80640, Note Name: A#4, Velocity: 68
Note ON: Time 80760, Note Name: D5, Velocity: 65
Note OFF: Time 80770, Note Name: A#4
Note OFF: Time 80860, Note Name: D5
Note ON: Time 80880, Note Name: C5, Velocity: 67
Note ON: Time 81000, Note Name: D#5, Velocity: 68
Note OFF: Time 81010, Note Name: C5
Note OFF: Time 81100, Note Name: D#5
Note ON: Time 81120, Note Name: D5, Velocity: 71
Note ON: Time 81240, Note Name: A#4, Velocity: 58
Note OFF: Time 81250, Note Name: D5
Note ON: Time 81360, Note Name: A4, Velocity: 63
Note OFF: Time 81370, Note Name: A#4
Note ON: Time 81480, Note Name: F4, Velocity: 54
Note OFF: Time 81490, Note Name: A4
Note OFF: Time 81600, Note Name: F4
Note OFF: Time 81600, Note Name: D#4
Note ON: Time 81600, Note Name: C4, Velocity: 55
Note ON: Time 81600, Note Name: D#4, Velocity: 55
Note OFF: Time 81840, Note Name: D#4
Note OFF: Time 81840, Note Name: C4
Note ON: Time 81840, Note Name: G4, Velocity: 55
Note ON: Time 81840, Note Name: D#4, Velocity: 40
Note OFF: Time 82020, Note Name: D#4
Note OFF: Time 82020, Note Name: G4
Note ON: Time 82080, Note Name: F#4, Velocity: 48
Note ON: Time 82080, Note Name: D4, Velocity: 48
Note OFF: Time 82440, Note Name: D4
Note OFF: Time 82440, Note Name: F#4
Note ON: Time 82440, Note Name: C4, Velocity: 34
Note ON: Time 82440, Note Name: D#4, Velocity: 34
Note ON: Time 82440, Note Name: G4, Velocity: 42
Note OFF: Time 82530, Note Name: G4
Note OFF: Time 82530, Note Name: D#4
Note OFF: Time 82530, Note Name: C4
Note ON: Time 82560, Note Name: F#4, Velocity: 48
Note ON: Time 82560, Note Name: D4, Velocity: 48
Note OFF: Time 82920, Note Name: D4
Note OFF: Time 82920, Note Name: F#4
Note ON: Time 82920, Note Name: C4, Velocity: 34
Note ON: Time 82920, Note Name: D#4, Velocity: 34
Note ON: Time 82920, Note Name: G4, Velocity: 42
Note OFF: Time 83010, Note Name: G4
Note OFF: Time 83010, Note Name: D#4
Note OFF: Time 83010, Note Name: C4
Note ON: Time 83040, Note Name: D4, Velocity: 47
Note ON: Time 83040, Note Name: F#4, Velocity: 47
Note OFF: Time 83280, Note Name: F#4
Note OFF: Time 83280, Note Name: D4
Note ON: Time 83280, Note Name: C4, Velocity: 38
Note ON: Time 83280, Note Name: D#4, Velocity: 38
Note ON: Time 83280, Note Name: A4, Velocity: 50
Note OFF: Time 83520, Note Name: A4
Note OFF: Time 83520, Note Name: D#4
Note OFF: Time 83520, Note Name: C4
Note ON: Time 83520, Note Name: A#3, Velocity: 45
Note ON: Time 83520, Note Name: D4, Velocity: 45
Note ON: Time 83520, Note Name: G4, Velocity: 55
Note OFF: Time 83760, Note Name: G4
Note OFF: Time 83760, Note Name: D4
Note OFF: Time 83760, Note Name: A#3
Note ON: Time 83760, Note Name: A3, Velocity: 43
Note ON: Time 83760, Note Name: D4, Velocity: 43
Note ON: Time 83760, Note Name: F#4, Velocity: 43
Note OFF: Time 83880, Note Name: F#4
Note OFF: Time 83880, Note Name: D4
Note OFF: Time 83880, Note Name: A3
Note ON: Time 83880, Note Name: G4, Velocity: 46
Note OFF: Time 84000, Note Name: G4
Note ON: Time 84000, Note Name: E4, Velocity: 45
Note ON: Time 84000, Note Name: G3, Velocity: 45
Note ON: Time 84000, Note Name: D4, Velocity: 45
Note OFF: Time 84480, Note Name: E4
Note OFF: Time 84600, Note Name: D4
Note ON: Time 84600, Note Name: C#4, Velocity: 44
Note OFF: Time 84720, Note Name: C#4
Note ON: Time 84720, Note Name: B3, Velocity: 44
Note OFF: Time 84840, Note Name: B3
Note ON: Time 84840, Note Name: C#4, Velocity: 44
Note OFF: Time 84960, Note Name: C#4
Note OFF: Time 84960, Note Name: G3
Note ON: Time 84960, Note Name: F#4, Velocity: 44
Note ON: Time 84960, Note Name: A3, Velocity: 44
Note ON: Time 84960, Note Name: D4, Velocity: 44
Note OFF: Time 85200, Note Name: D4
Note OFF: Time 85200, Note Name: A3
Note OFF: Time 85200, Note Name: F#4
Note ON: Time 85200, Note Name: C4, Velocity: 51
Note ON: Time 85200, Note Name: A4, Velocity: 51
Note OFF: Time 85440, Note Name: A4
Note OFF: Time 85440, Note Name: C4
Note ON: Time 85440, Note Name: E4, Velocity: 48
Note ON: Time 85440, Note Name: F#4, Velocity: 48
Note ON: Time 85440, Note Name: C5, Velocity: 48
Note OFF: Time 85920, Note Name: C5
Note OFF: Time 85920, Note Name: F#4
Note OFF: Time 85920, Note Name: E4
Note ON: Time 85920, Note Name: D4, Velocity: 46
Note ON: Time 85920, Note Name: G4, Velocity: 46
Note ON: Time 85920, Note Name: B4, Velocity: 46
Note OFF: Time 86160, Note Name: B4
Note OFF: Time 86160, Note Name: G4
Note OFF: Time 86160, Note Name: D4
Note ON: Time 86160, Note Name: F#4, Velocity: 49
Note ON: Time 86160, Note Name: B4, Velocity: 49
Note ON: Time 86160, Note Name: D5, Velocity: 49
Note OFF: Time 86400, Note Name: D5
Note OFF: Time 86400, Note Name: B4
Note OFF: Time 86400, Note Name: F#4
Note ON: Time 86400, Note Name: B4, Velocity: 52
Note ON: Time 86400, Note Name: A4, Velocity: 52
Note ON: Time 86400, Note Name: F#5, Velocity: 52
Note OFF: Time 86880, Note Name: F#5
Note OFF: Time 86880, Note Name: A4
Note OFF: Time 86880, Note Name: B4
Note ON: Time 86880, Note Name: G4, Velocity: 49
Note ON: Time 86880, Note Name: E5, Velocity: 49
Note ON: Time 86880, Note Name: B4, Velocity: 42
Note OFF: Time 87120, Note Name: E5
Note OFF: Time 87120, Note Name: G4
Note ON: Time 87120, Note Name: D5, Velocity: 49
Note ON: Time 87120, Note Name: F#4, Velocity: 49
Note OFF: Time 87360, Note Name: F#4
Note OFF: Time 87360, Note Name: D5
Note OFF: Time 87360, Note Name: B4
Note ON: Time 87360, Note Name: E4, Velocity: 46
Note ON: Time 87360, Note Name: G4, Velocity: 46
Note ON: Time 87360, Note Name: B4, Velocity: 46
Note OFF: Time 87480, Note Name: E4
Note ON: Time 87480, Note Name: D4, Velocity: 45
Note OFF: Time 87600, Note Name: D4
Note OFF: Time 87600, Note Name: B4
Note OFF: Time 87600, Note Name: G4
Note ON: Time 87600, Note Name: C#4, Velocity: 43
Note ON: Time 87600, Note Name: E4, Velocity: 43
Note ON: Time 87600, Note Name: G4, Velocity: 43
Note OFF: Time 87720, Note Name: C#4
Note ON: Time 87720, Note Name: B3, Velocity: 42
Note OFF: Time 87840, Note Name: B3
Note OFF: Time 87840, Note Name: G4
Note OFF: Time 87840, Note Name: E4
Note ON: Time 87840, Note Name: F#4, Velocity: 48
Note ON: Time 87840, Note Name: D4, Velocity: 48
Note OFF: Time 88200, Note Name: D4
Note OFF: Time 88200, Note Name: F#4
Note ON: Time 88200, Note Name: C4, Velocity: 34
Note ON: Time 88200, Note Name: D#4, Velocity: 34
Note ON: Time 88200, Note Name: G4, Velocity: 42
Note OFF: Time 88290, Note Name: G4
Note OFF: Time 88290, Note Name: D#4
Note OFF: Time 88290, Note Name: C4
Note ON: Time 88320, Note Name: F#4, Velocity: 48
Note ON: Time 88320, Note Name: D4, Velocity: 48
Note OFF: Time 88680, Note Name: D4
Note OFF: Time 88680, Note Name: F#4
Note ON: Time 88680, Note Name: C4, Velocity: 34
Note ON: Time 88680, Note Name: D#4, Velocity: 34
Note ON: Time 88680, Note Name: G4, Velocity: 42
Note OFF: Time 88770, Note Name: G4
Note OFF: Time 88770, Note Name: D#4
Note OFF: Time 88770, Note Name: C4
Note ON: Time 88800, Note Name: D4, Velocity: 47
Note ON: Time 88800, Note Name: F#4, Velocity: 47
Note OFF: Time 89040, Note Name: F#4
Note OFF: Time 89040, Note Name: D4
Note ON: Time 89040, Note Name: C4, Velocity: 38
Note ON: Time 89040, Note Name: D#4, Velocity: 38
Note ON: Time 89040, Note Name: A4, Velocity: 50
Note OFF: Time 89280, Note Name: A4
Note OFF: Time 89280, Note Name: D#4
Note OFF: Time 89280, Note Name: C4
Note ON: Time 89280, Note Name: D4, Velocity: 45
Note ON: Time 89280, Note Name: G4, Velocity: 55
Note ON: Time 89280, Note Name: B3, Velocity: 45
Note OFF: Time 89520, Note Name: B3
Note OFF: Time 89520, Note Name: G4
Note OFF: Time 89520, Note Name: D4
Note ON: Time 89520, Note Name: D4, Velocity: 43
Note ON: Time 89520, Note Name: A3, Velocity: 43
Note ON: Time 89520, Note Name: F#4, Velocity: 43
Note OFF: Time 89640, Note Name: F#4
Note OFF: Time 89640, Note Name: A3
Note OFF: Time 89640, Note Name: D4
Note ON: Time 89640, Note Name: G4, Velocity: 46
Note OFF: Time 89760, Note Name: G4
Note ON: Time 89760, Note Name: D4, Velocity: 45
Note ON: Time 89760, Note Name: G3, Velocity: 45
Note ON: Time 89760, Note Name: E4, Velocity: 45
Note OFF: Time 89970, Note Name: E4
Note OFF: Time 89970, Note Name: G3
Note OFF: Time 89970, Note Name: D4
Note ON: Time 90000, Note Name: E4, Velocity: 46
Note ON: Time 90000, Note Name: G4, Velocity: 46
Note ON: Time 90000, Note Name: B4, Velocity: 46
Note OFF: Time 90240, Note Name: B4
Note OFF: Time 90240, Note Name: G4
Note OFF: Time 90240, Note Name: E4
Note ON: Time 90240, Note Name: C#4, Velocity: 50
Note ON: Time 90240, Note Name: F#4, Velocity: 50
Note ON: Time 90240, Note Name: A4, Velocity: 50
Note OFF: Time 90480, Note Name: A4
Note OFF: Time 90480, Note Name: F#4
Note OFF: Time 90480, Note Name: C#4
Note ON: Time 90480, Note Name: B3, Velocity: 52
Note ON: Time 90480, Note Name: E4, Velocity: 52
Note ON: Time 90480, Note Name: G4, Velocity: 52
Note OFF: Time 90720, Note Name: G4
Note OFF: Time 90720, Note Name: E4
Note OFF: Time 90720, Note Name: B3
Note ON: Time 90720, Note Name: C#4, Velocity: 52
Note ON: Time 90720, Note Name: A#3, Velocity: 52
Note ON: Time 90720, Note Name: F#4, Velocity: 52
Note OFF: Time 90930, Note Name: F#4
Note OFF: Time 90930, Note Name: A#3
Note OFF: Time 90930, Note Name: C#4
Note ON: Time 90960, Note Name: F#4, Velocity: 52
Note ON: Time 90960, Note Name: B4, Velocity: 52
Note ON: Time 90960, Note Name: D5, Velocity: 52
Note OFF: Time 91200, Note Name: D5
Note OFF: Time 91200, Note Name: B4
Note OFF: Time 91200, Note Name: F#4
Note ON: Time 91200, Note Name: E4, Velocity: 54
Note ON: Time 91200, Note Name: G4, Velocity: 54
Note ON: Time 91200, Note Name: C#5, Velocity: 54
Note OFF: Time 91440, Note Name: C#5
Note OFF: Time 91440, Note Name: G4
Note OFF: Time 91440, Note Name: E4
Note ON: Time 91440, Note Name: F#4, Velocity: 56
Note ON: Time 91440, Note Name: D4, Velocity: 56
Note ON: Time 91440, Note Name: B4, Velocity: 56
Note OFF: Time 91680, Note Name: B4
Note OFF: Time 91680, Note Name: D4
Note OFF: Time 91680, Note Name: F#4
Note ON: Time 91680, Note Name: E4, Velocity: 60
Note ON: Time 91680, Note Name: G4, Velocity: 60
Note ON: Time 91680, Note Name: A4, Velocity: 60
Note OFF: Time 91920, Note Name: A4
Note ON: Time 91920, Note Name: A5, Velocity: 66
Note OFF: Time 92100, Note Name: A5
Note OFF: Time 92160, Note Name: G4
Note OFF: Time 92160, Note Name: E4
Note ON: Time 92160, Note Name: D5, Velocity: 48
Note ON: Time 92160, Note Name: F#5, Velocity: 48
Note ON: Time 92160, Note Name: A5, Velocity: 48
Note OFF: Time 92520, Note Name: F#5
Note OFF: Time 92520, Note Name: D5
Note ON: Time 92520, Note Name: D#5, Velocity: 34
Note ON: Time 92520, Note Name: G5, Velocity: 42
Note OFF: Time 92580, Note Name: G5
Note OFF: Time 92580, Note Name: D#5
Note ON: Time 92640, Note Name: F#5, Velocity: 48
Note ON: Time 92640, Note Name: D5, Velocity: 48
Note OFF: Time 93000, Note Name: D5
Note OFF: Time 93000, Note Name: F#5
Note ON: Time 93000, Note Name: D#5, Velocity: 34
Note ON: Time 93000, Note Name: G5, Velocity: 42
Note OFF: Time 93060, Note Name: G5
Note OFF: Time 93060, Note Name: D#5
Note ON: Time 93120, Note Name: D5, Velocity: 47
Note ON: Time 93120, Note Name: F#5, Velocity: 47
Note OFF: Time 93330, Note Name: F#5
Note OFF: Time 93330, Note Name: D5
Note OFF: Time 93330, Note Name: A5
Note ON: Time 93360, Note Name: C5, Velocity: 49
Note ON: Time 93360, Note Name: D#5, Velocity: 49
Note ON: Time 93360, Note Name: A5, Velocity: 49
Note OFF: Time 93600, Note Name: A5
Note OFF: Time 93600, Note Name: D#5
Note OFF: Time 93600, Note Name: C5
Note ON: Time 93600, Note Name: A#4, Velocity: 49
Note ON: Time 93600, Note Name: D5, Velocity: 49
Note ON: Time 93600, Note Name: G5, Velocity: 49
Note OFF: Time 93840, Note Name: G5
Note OFF: Time 93840, Note Name: D5
Note OFF: Time 93840, Note Name: A#4
Note ON: Time 93840, Note Name: F#5, Velocity: 40
Note ON: Time 93840, Note Name: D5, Velocity: 40
Note ON: Time 93840, Note Name: A4, Velocity: 40
Note OFF: Time 93960, Note Name: A4
Note OFF: Time 93960, Note Name: D5
Note OFF: Time 93960, Note Name: F#5
Note ON: Time 93960, Note Name: G5, Velocity: 43
Note OFF: Time 94080, Note Name: G5
Note ON: Time 94080, Note Name: D5, Velocity: 38
Note ON: Time 94080, Note Name: G4, Velocity: 38
Note ON: Time 94080, Note Name: E5, Velocity: 38
Note OFF: Time 94560, Note Name: E5
Note OFF: Time 94560, Note Name: G4
Note OFF: Time 94560, Note Name: D5
Note ON: Time 94560, Note Name: G5, Velocity: 42
Note ON: Time 94560, Note Name: E5, Velocity: 42
Note ON: Time 94560, Note Name: A#4, Velocity: 42
Note OFF: Time 95040, Note Name: A#4
Note OFF: Time 95040, Note Name: E5
Note OFF: Time 95040, Note Name: G5
Note ON: Time 95040, Note Name: F#5, Velocity: 44
Note ON: Time 95040, Note Name: A4, Velocity: 44
Note ON: Time 95040, Note Name: D5, Velocity: 44
Note OFF: Time 95280, Note Name: D5
Note OFF: Time 95280, Note Name: F#5
Note ON: Time 95280, Note Name: A5, Velocity: 54
Note OFF: Time 95520, Note Name: A5
Note OFF: Time 95520, Note Name: A4
Note ON: Time 95520, Note Name: C5, Velocity: 47
Note ON: Time 95520, Note Name: F#5, Velocity: 47
Note ON: Time 95520, Note Name: C6, Velocity: 47
Note OFF: Time 96000, Note Name: C6
Note OFF: Time 96000, Note Name: F#5
Note OFF: Time 96000, Note Name: C5
Note ON: Time 96000, Note Name: G4, Velocity: 52
Note ON: Time 96000, Note Name: B4, Velocity: 52
Note OFF: Time 96240, Note Name: B4
Note ON: Time 96240, Note Name: D5, Velocity: 50
Note OFF: Time 96480, Note Name: D5
Note ON: Time 96480, Note Name: F#5, Velocity: 55
Note OFF: Time 96960, Note Name: F#5
Note ON: Time 96960, Note Name: E5, Velocity: 49
Note OFF: Time 97200, Note Name: E5
Note ON: Time 97200, Note Name: D5, Velocity: 46
Note OFF: Time 97440, Note Name: D5
Note OFF: Time 97440, Note Name: G4
Note ON: Time 97440, Note Name: G4, Velocity: 43
Note ON: Time 97440, Note Name: B4, Velocity: 43
Note OFF: Time 97680, Note Name: B4
Note OFF: Time 97680, Note Name: G4
Note ON: Time 97680, Note Name: E4, Velocity: 38
Note ON: Time 97680, Note Name: G4, Velocity: 38
Note OFF: Time 97920, Note Name: G4
Note OFF: Time 97920, Note Name: E4
Note ON: Time 97920, Note Name: D4, Velocity: 36
Note ON: Time 97920, Note Name: B3, Velocity: 36
Note ON: Time 97920, Note Name: F#4, Velocity: 36
Note OFF: Time 98400, Note Name: F#4
Note OFF: Time 98400, Note Name: B3
Note OFF: Time 98400, Note Name: D4
Note ON: Time 98400, Note Name: G#3, Velocity: 38
Note ON: Time 98400, Note Name: C#4, Velocity: 38
Note ON: Time 98400, Note Name: E4, Velocity: 38
Note OFF: Time 98640, Note Name: E4
Note OFF: Time 98640, Note Name: C#4
Note OFF: Time 98640, Note Name: G#3
Note ON: Time 98640, Note Name: F#3, Velocity: 36
Note ON: Time 98640, Note Name: B3, Velocity: 36
Note ON: Time 98640, Note Name: D4, Velocity: 36
Note OFF: Time 98880, Note Name: D4
Note OFF: Time 98880, Note Name: B3
Note OFF: Time 98880, Note Name: F#3
Note ON: Time 98880, Note Name: F3, Velocity: 38
Note ON: Time 98880, Note Name: B3, Velocity: 38
Note ON: Time 98880, Note Name: C#4, Velocity: 38
Note OFF: Time 99120, Note Name: C#4
Note OFF: Time 99120, Note Name: B3
Note OFF: Time 99120, Note Name: F3
Note ON: Time 99120, Note Name: B3, Velocity: 36
Note ON: Time 99120, Note Name: C#4, Velocity: 36
Note ON: Time 99120, Note Name: G#4, Velocity: 36
Note OFF: Time 99360, Note Name: C#4
Note ON: Time 99360, Note Name: D4, Velocity: 36
Note OFF: Time 99600, Note Name: G#4
Note ON: Time 99600, Note Name: F#4, Velocity: 33
Note OFF: Time 99680, Note Name: F#4
Note ON: Time 99680, Note Name: G#4, Velocity: 37
Note OFF: Time 99760, Note Name: G#4
Note ON: Time 99760, Note Name: A4, Velocity: 41
Note OFF: Time 99840, Note Name: A4
Note ON: Time 99840, Note Name: F#4, Velocity: 43
Note OFF: Time 100080, Note Name: F#4
Note ON: Time 100080, Note Name: E4, Velocity: 40
Note OFF: Time 100560, Note Name: E4
Note ON: Time 100560, Note Name: F#4, Velocity: 45
Note OFF: Time 100780, Note Name: F#4
Note OFF: Time 100800, Note Name: D4
Note OFF: Time 100800, Note Name: B3
Note ON: Time 100800, Note Name: G#4, Velocity: 39
Note ON: Time 100800, Note Name: F#5, Velocity: 39
Note ON: Time 100800, Note Name: D5, Velocity: 39
Note OFF: Time 101280, Note Name: D5
Note OFF: Time 101280, Note Name: F#5
Note ON: Time 101280, Note Name: C#5, Velocity: 38
Note ON: Time 101280, Note Name: E5, Velocity: 38
Note OFF: Time 101520, Note Name: E5
Note OFF: Time 101520, Note Name: C#5
Note ON: Time 101520, Note Name: D5, Velocity: 36
Note ON: Time 101520, Note Name: B4, Velocity: 36
Note OFF: Time 101760, Note Name: B4
Note OFF: Time 101760, Note Name: D5
Note OFF: Time 101760, Note Name: G#4
Note ON: Time 101760, Note Name: G#4, Velocity: 38
Note ON: Time 101760, Note Name: B4, Velocity: 38
Note ON: Time 101760, Note Name: C#5, Velocity: 38
Note OFF: Time 102000, Note Name: C#5
Note OFF: Time 102000, Note Name: B4
Note OFF: Time 102000, Note Name: G#4
Note ON: Time 102000, Note Name: B4, Velocity: 44
Note ON: Time 102000, Note Name: C#5, Velocity: 44
Note ON: Time 102000, Note Name: G#5, Velocity: 44
Note OFF: Time 102240, Note Name: C#5
Note ON: Time 102240, Note Name: D5, Velocity: 43
Note OFF: Time 102480, Note Name: G#5
Note ON: Time 102480, Note Name: F#5, Velocity: 38
Note OFF: Time 102720, Note Name: F#5
Note ON: Time 102720, Note Name: G#5, Velocity: 39
Note OFF: Time 102960, Note Name: G#5
Note ON: Time 102960, Note Name: A5, Velocity: 36
Note OFF: Time 103200, Note Name: A5
Note ON: Time 103200, Note Name: F#5, Velocity: 38
Note OFF: Time 103440, Note Name: F#5
Note ON: Time 103440, Note Name: G#5, Velocity: 35
Note OFF: Time 103680, Note Name: G#5
Note OFF: Time 103680, Note Name: D5
Note OFF: Time 103680, Note Name: B4
Note ON: Time 103680, Note Name: D#3, Velocity: 35
Note ON: Time 103680, Note Name: A#3, Velocity: 35
Note ON: Time 103680, Note Name: G3, Velocity: 35
Note OFF: Time 104068, Note Name: G3
Note OFF: Time 104068, Note Name: A#3
Note OFF: Time 104068, Note Name: D#3
Note ON: Time 104070, Note Name: A#4, Velocity: 32
Note ON: Time 104100, Note Name: D#5, Velocity: 34
Note ON: Time 104130, Note Name: G5, Velocity: 35
Note ON: Time 104160, Note Name: A#5, Velocity: 41
Note OFF: Time 104640, Note Name: A#5
Note OFF: Time 104640, Note Name: A#4
Note OFF: Time 104640, Note Name: D#5
Note OFF: Time 104640, Note Name: G5
Note ON: Time 104640, Note Name: D#3, Velocity: 38
Note ON: Time 104640, Note Name: G3, Velocity: 38
Note ON: Time 104640, Note Name: A#3, Velocity: 38
Note OFF: Time 105508, Note Name: A#3
Note OFF: Time 105508, Note Name: G3
Note OFF: Time 105508, Note Name: D#3
Note ON: Time 105510, Note Name: A#4, Velocity: 32
Note ON: Time 105540, Note Name: D#5, Velocity: 33
Note ON: Time 105570, Note Name: G5, Velocity: 35
Note ON: Time 105600, Note Name: A#5, Velocity: 40
Note OFF: Time 106080, Note Name: A#5
Note OFF: Time 106080, Note Name: A#4
Note OFF: Time 106080, Note Name: D#5
Note OFF: Time 106080, Note Name: G5
Note ON: Time 106080, Note Name: D#3, Velocity: 40
Note ON: Time 106080, Note Name: G3, Velocity: 40
Note ON: Time 106080, Note Name: A#3, Velocity: 40
Note OFF: Time 106680, Note Name: A#3
Note ON: Time 106680, Note Name: C4, Velocity: 42
Note OFF: Time 106800, Note Name: C4
Note OFF: Time 106800, Note Name: G3
Note OFF: Time 106800, Note Name: D#3
Note ON: Time 106800, Note Name: D4, Velocity: 44
Note OFF: Time 106920, Note Name: D4
Note ON: Time 106920, Note Name: D#4, Velocity: 43
Note OFF: Time 107040, Note Name: D#4
Note ON: Time 107040, Note Name: C4, Velocity: 44
Note OFF: Time 107140, Note Name: C4
Note ON: Time 107160, Note Name: C4, Velocity: 39
Note OFF: Time 107220, Note Name: C4
Note ON: Time 107220, Note Name: D4, Velocity: 39
Note OFF: Time 107280, Note Name: D4
Note ON: Time 107280, Note Name: C4, Velocity: 44
Note OFF: Time 107370, Note Name: C4
Note ON: Time 107400, Note Name: A#3, Velocity: 44
Note OFF: Time 107490, Note Name: A#3
Note ON: Time 107520, Note Name: C4, Velocity: 43
Note OFF: Time 107550, Note Name: C4
Note ON: Time 107760, Note Name: D#4, Velocity: 39
Note OFF: Time 107790, Note Name: D#4
Note ON: Time 108000, Note Name: D4, Velocity: 42
Note OFF: Time 108120, Note Name: D4
Note ON: Time 108120, Note Name: D#4, Velocity: 42
Note OFF: Time 108240, Note Name: D#4
Note ON: Time 108240, Note Name: F4, Velocity: 44
Note OFF: Time 108360, Note Name: F4
Note ON: Time 108360, Note Name: G4, Velocity: 43
Note OFF: Time 108480, Note Name: G4
Note ON: Time 108480, Note Name: D4, Velocity: 44
Note OFF: Time 108580, Note Name: D4
Note ON: Time 108600, Note Name: D4, Velocity: 39
Note OFF: Time 108660, Note Name: D4
Note ON: Time 108660, Note Name: D#4, Velocity: 39
Note OFF: Time 108720, Note Name: D#4
Note ON: Time 108720, Note Name: D4, Velocity: 44
Note OFF: Time 108810, Note Name: D4
Note ON: Time 108840, Note Name: C4, Velocity: 42
Note OFF: Time 108930, Note Name: C4
Note ON: Time 108960, Note Name: A#3, Velocity: 39
Note OFF: Time 109080, Note Name: A#3
Note ON: Time 109080, Note Name: C4, Velocity: 39
Note OFF: Time 109200, Note Name: C4
Note ON: Time 109200, Note Name: D4, Velocity: 39
Note OFF: Time 109440, Note Name: D4
Note ON: Time 109440, Note Name: C#4, Velocity: 36
Note ON: Time 109440, Note Name: D#4, Velocity: 42
Note OFF: Time 109560, Note Name: D#4
Note ON: Time 109560, Note Name: F4, Velocity: 42
Note OFF: Time 109680, Note Name: F4
Note ON: Time 109680, Note Name: G4, Velocity: 44
Note OFF: Time 109800, Note Name: G4
Note ON: Time 109800, Note Name: G#4, Velocity: 43
Note OFF: Time 109920, Note Name: G#4
Note OFF: Time 109920, Note Name: C#4
Note ON: Time 109920, Note Name: F4, Velocity: 44
Note OFF: Time 110020, Note Name: F4
Note ON: Time 110040, Note Name: F4, Velocity: 39
Note OFF: Time 110100, Note Name: F4
Note ON: Time 110100, Note Name: G4, Velocity: 39
Note OFF: Time 110160, Note Name: G4
Note ON: Time 110160, Note Name: F4, Velocity: 44
Note OFF: Time 110250, Note Name: F4
Note ON: Time 110280, Note Name: D#4, Velocity: 44
Note OFF: Time 110370, Note Name: D#4
Note ON: Time 110400, Note Name: F4, Velocity: 46
Note OFF: Time 110430, Note Name: F4
Note ON: Time 110640, Note Name: G#4, Velocity: 44
Note OFF: Time 110670, Note Name: G#4
Note ON: Time 110880, Note Name: C#4, Velocity: 39
Note ON: Time 110880, Note Name: G4, Velocity: 46
Note OFF: Time 111000, Note Name: G4
Note ON: Time 111000, Note Name: G#4, Velocity: 46
Note OFF: Time 111120, Note Name: G#4
Note ON: Time 111120, Note Name: A#4, Velocity: 48
Note OFF: Time 111240, Note Name: A#4
Note ON: Time 111240, Note Name: C5, Velocity: 47
Note OFF: Time 111360, Note Name: C5
Note ON: Time 111360, Note Name: G4, Velocity: 48
Note OFF: Time 111460, Note Name: G4
Note ON: Time 111480, Note Name: F4, Velocity: 42
Note ON: Time 111520, Note Name: G4, Velocity: 42
Note OFF: Time 111540, Note Name: F4
Note OFF: Time 111560, Note Name: G4
Note ON: Time 111560, Note Name: F4, Velocity: 42
Note OFF: Time 111600, Note Name: F4
Note OFF: Time 111600, Note Name: C#4
Note ON: Time 111600, Note Name: D#4, Velocity: 48
Note OFF: Time 111690, Note Name: D#4
Note ON: Time 111720, Note Name: C#4, Velocity: 46
Note OFF: Time 111810, Note Name: C#4
Note ON: Time 111840, Note Name: D#4, Velocity: 42
Note OFF: Time 111960, Note Name: D#4
Note ON: Time 111960, Note Name: F4, Velocity: 42
Note OFF: Time 112080, Note Name: F4
Note ON: Time 112080, Note Name: G4, Velocity: 42
Note OFF: Time 112320, Note Name: G4
Note ON: Time 112320, Note Name: C#4, Velocity: 42
Note ON: Time 112320, Note Name: G4, Velocity: 50
Note OFF: Time 112440, Note Name: G4
Note ON: Time 112440, Note Name: G#4, Velocity: 50
Note OFF: Time 112560, Note Name: G#4
Note ON: Time 112560, Note Name: A#4, Velocity: 52
Note OFF: Time 112680, Note Name: A#4
Note ON: Time 112680, Note Name: C5, Velocity: 51
Note OFF: Time 112800, Note Name: C5
Note ON: Time 112800, Note Name: G4, Velocity: 52
Note OFF: Time 112900, Note Name: G4
Note ON: Time 112920, Note Name: F4, Velocity: 46
Note ON: Time 112960, Note Name: G4, Velocity: 46
Note OFF: Time 112980, Note Name: F4
Note OFF: Time 113000, Note Name: G4
Note ON: Time 113000, Note Name: F4, Velocity: 46
Note OFF: Time 113040, Note Name: F4
Note OFF: Time 113040, Note Name: C#4
Note ON: Time 113040, Note Name: D#4, Velocity: 53
Note OFF: Time 113130, Note Name: D#4
Note ON: Time 113160, Note Name: C#4, Velocity: 50
Note OFF: Time 113250, Note Name: C#4
Note ON: Time 113280, Note Name: D#4, Velocity: 54
Note OFF: Time 113400, Note Name: D#4
Note ON: Time 113400, Note Name: F4, Velocity: 51
Note OFF: Time 113520, Note Name: F4
Note ON: Time 113520, Note Name: G4, Velocity: 51
Note OFF: Time 113760, Note Name: G4
Note ON: Time 113760, Note Name: C#4, Velocity: 55
Note ON: Time 113760, Note Name: G#4, Velocity: 55
Note OFF: Time 113880, Note Name: G#4
Note ON: Time 113880, Note Name: A4, Velocity: 56
Note OFF: Time 114000, Note Name: A4
Note ON: Time 114000, Note Name: B4, Velocity: 58
Note OFF: Time 114120, Note Name: B4
Note ON: Time 114120, Note Name: C#5, Velocity: 57
Note OFF: Time 114240, Note Name: C#5
Note ON: Time 114240, Note Name: G#4, Velocity: 58
Note OFF: Time 114340, Note Name: G#4
Note ON: Time 114360, Note Name: F#4, Velocity: 51
Note ON: Time 114400, Note Name: G#4, Velocity: 51
Note OFF: Time 114420, Note Name: F#4
Note OFF: Time 114440, Note Name: G#4
Note ON: Time 114440, Note Name: F#4, Velocity: 51
Note OFF: Time 114480, Note Name: F#4
Note OFF: Time 114480, Note Name: C#4
Note ON: Time 114480, Note Name: E4, Velocity: 59
Note OFF: Time 114570, Note Name: E4
Note ON: Time 114600, Note Name: D#4, Velocity: 56
Note OFF: Time 114690, Note Name: D#4
Note ON: Time 114720, Note Name: E4, Velocity: 60
Note OFF: Time 114840, Note Name: E4
Note ON: Time 114840, Note Name: F#4, Velocity: 57
Note OFF: Time 114960, Note Name: F#4
Note ON: Time 114960, Note Name: G#4, Velocity: 57
Note ON: Time 115200, Note Name: D4, Velocity: 60
Note OFF: Time 115320, Note Name: G#4
Note ON: Time 115320, Note Name: A4, Velocity: 55
Note OFF: Time 115440, Note Name: A4
Note ON: Time 115440, Note Name: B4, Velocity: 57
Note OFF: Time 115560, Note Name: B4
Note ON: Time 115560, Note Name: C#5, Velocity: 60
Note OFF: Time 115680, Note Name: C#5
Note ON: Time 115680, Note Name: G#4, Velocity: 65
Note OFF: Time 115800, Note Name: G#4
Note ON: Time 115800, Note Name: A4, Velocity: 59
Note OFF: Time 115920, Note Name: A4
Note OFF: Time 115920, Note Name: D4
Note ON: Time 115920, Note Name: B4, Velocity: 63
Note OFF: Time 116040, Note Name: B4
Note ON: Time 116040, Note Name: C#5, Velocity: 66
Note OFF: Time 116160, Note Name: C#5
Note ON: Time 116160, Note Name: D5, Velocity: 70
Note OFF: Time 116280, Note Name: D5
Note ON: Time 116280, Note Name: E5, Velocity: 64
Note OFF: Time 116400, Note Name: E5
Note ON: Time 116400, Note Name: F#5, Velocity: 67
Note OFF: Time 116520, Note Name: F#5
Note ON: Time 116520, Note Name: G#5, Velocity: 69
Note OFF: Time 116640, Note Name: G#5
Note ON: Time 116640, Note Name: A5, Velocity: 76
Note ON: Time 116760, Note Name: C#5, Velocity: 58
Note OFF: Time 116880, Note Name: C#5
Note ON: Time 116880, Note Name: D5, Velocity: 58
Note OFF: Time 117000, Note Name: D5
Note OFF: Time 117000, Note Name: A5
Note ON: Time 117000, Note Name: A5, Velocity: 58
Note OFF: Time 117120, Note Name: A5
Note ON: Time 117120, Note Name: G#5, Velocity: 75
Note ON: Time 117240, Note Name: B4, Velocity: 56
Note OFF: Time 117360, Note Name: B4
Note ON: Time 117360, Note Name: D5, Velocity: 56
Note OFF: Time 117480, Note Name: D5
Note OFF: Time 117480, Note Name: G#5
Note ON: Time 117480, Note Name: G#5, Velocity: 56
Note OFF: Time 117600, Note Name: G#5
Note ON: Time 117600, Note Name: F#5, Velocity: 72
Note ON: Time 117720, Note Name: B4, Velocity: 55
Note OFF: Time 117840, Note Name: B4
Note ON: Time 117840, Note Name: D5, Velocity: 55
Note OFF: Time 117960, Note Name: D5
Note OFF: Time 117960, Note Name: F#5
Note ON: Time 117960, Note Name: F#5, Velocity: 55
Note OFF: Time 118080, Note Name: F#5
Note ON: Time 118080, Note Name: E5, Velocity: 71
Note ON: Time 118200, Note Name: A4, Velocity: 52
Note OFF: Time 118320, Note Name: A4
Note ON: Time 118320, Note Name: C#5, Velocity: 52
Note OFF: Time 118440, Note Name: C#5
Note OFF: Time 118440, Note Name: E5
Note ON: Time 118440, Note Name: E5, Velocity: 52
Note ON: Time 118560, Note Name: C#5, Velocity: 52
Note OFF: Time 118680, Note Name: C#5
Note ON: Time 118680, Note Name: A4, Velocity: 52
Note OFF: Time 118800, Note Name: A4
Note OFF: Time 118800, Note Name: E5
Note ON: Time 118800, Note Name: F#5, Velocity: 67
Note ON: Time 118800, Note Name: C#5, Velocity: 55
Note OFF: Time 118920, Note Name: C#5
Note ON: Time 118920, Note Name: A4, Velocity: 55
Note OFF: Time 119040, Note Name: A4
Note OFF: Time 119040, Note Name: F#5
Note ON: Time 119040, Note Name: F#5, Velocity: 55
Note ON: Time 119040, Note Name: A5, Velocity: 66
Note OFF: Time 119160, Note Name: F#5
Note ON: Time 119160, Note Name: C#5, Velocity: 55
Note OFF: Time 119280, Note Name: C#5
Note OFF: Time 119280, Note Name: A5
Note ON: Time 119280, Note Name: A5, Velocity: 55
Note ON: Time 119280, Note Name: C#6, Velocity: 67
Note OFF: Time 119400, Note Name: A5
Note ON: Time 119400, Note Name: F#5, Velocity: 55
Note OFF: Time 119520, Note Name: F#5
Note OFF: Time 119520, Note Name: C#6
Note ON: Time 119520, Note Name: A5, Velocity: 76
Note ON: Time 119640, Note Name: C#5, Velocity: 58
Note OFF: Time 119760, Note Name: C#5
Note ON: Time 119760, Note Name: D5, Velocity: 58
Note OFF: Time 119880, Note Name: D5
Note OFF: Time 119880, Note Name: A5
Note ON: Time 119880, Note Name: A5, Velocity: 58
Note OFF: Time 120000, Note Name: A5
Note ON: Time 120000, Note Name: G#5, Velocity: 75
Note ON: Time 120120, Note Name: B4, Velocity: 56
Note OFF: Time 120240, Note Name: B4
Note ON: Time 120240, Note Name: D5, Velocity: 56
Note OFF: Time 120360, Note Name: D5
Note OFF: Time 120360, Note Name: G#5
Note ON: Time 120360, Note Name: G#5, Velocity: 56
Note OFF: Time 120480, Note Name: G#5
Note ON: Time 120480, Note Name: F#5, Velocity: 72
Note ON: Time 120600, Note Name: B4, Velocity: 55
Note OFF: Time 120720, Note Name: B4
Note ON: Time 120720, Note Name: D5, Velocity: 55
Note OFF: Time 120840, Note Name: D5
Note OFF: Time 120840, Note Name: F#5
Note ON: Time 120840, Note Name: F#5, Velocity: 55
Note OFF: Time 120960, Note Name: F#5
Note ON: Time 120960, Note Name: E5, Velocity: 71
Note ON: Time 121080, Note Name: A4, Velocity: 52
Note OFF: Time 121200, Note Name: A4
Note ON: Time 121200, Note Name: C#5, Velocity: 52
Note OFF: Time 121320, Note Name: C#5
Note OFF: Time 121320, Note Name: E5
Note ON: Time 121320, Note Name: E5, Velocity: 52
Note ON: Time 121440, Note Name: C#5, Velocity: 52
Note OFF: Time 121560, Note Name: C#5
Note ON: Time 121560, Note Name: A4, Velocity: 52
Note OFF: Time 121680, Note Name: A4
Note OFF: Time 121680, Note Name: E5
Note ON: Time 121680, Note Name: C#5, Velocity: 61
Note ON: Time 121680, Note Name: F#5, Velocity: 61
Note OFF: Time 121800, Note Name: C#5
Note ON: Time 121800, Note Name: A4, Velocity: 53
Note OFF: Time 121920, Note Name: A4
Note OFF: Time 121920, Note Name: F#5
Note ON: Time 121920, Note Name: F#5, Velocity: 62
Note ON: Time 121920, Note Name: A5, Velocity: 62
Note OFF: Time 122040, Note Name: F#5
Note ON: Time 122040, Note Name: C#5, Velocity: 54
Note OFF: Time 122160, Note Name: C#5
Note OFF: Time 122160, Note Name: A5
Note ON: Time 122160, Note Name: A5, Velocity: 64
Note ON: Time 122160, Note Name: C#6, Velocity: 64
Note OFF: Time 122280, Note Name: A5
Note ON: Time 122280, Note Name: F#5, Velocity: 54
Note OFF: Time 122380, Note Name: F#5
Note OFF: Time 122380, Note Name: C#6
Note ON: Time 122400, Note Name: E4, Velocity: 44
Note ON: Time 122400, Note Name: C#5, Velocity: 53
Note ON: Time 122400, Note Name: E5, Velocity: 53
Note OFF: Time 122520, Note Name: E4
Note ON: Time 122520, Note Name: F#4, Velocity: 44
Note OFF: Time 122640, Note Name: F#4
Note OFF: Time 122640, Note Name: E5
Note OFF: Time 122640, Note Name: C#5
Note ON: Time 122640, Note Name: A4, Velocity: 44
Note ON: Time 122640, Note Name: C#5, Velocity: 52
Note OFF: Time 122760, Note Name: A4
Note ON: Time 122760, Note Name: F#4, Velocity: 44
Note OFF: Time 122860, Note Name: C#5
Note OFF: Time 122870, Note Name: F#4
Note ON: Time 122880, Note Name: A4, Velocity: 44
Note ON: Time 122880, Note Name: C#5, Velocity: 52
Note OFF: Time 123000, Note Name: A4
Note ON: Time 123000, Note Name: F#4, Velocity: 44
Note OFF: Time 123120, Note Name: F#4
Note ON: Time 123120, Note Name: A4, Velocity: 46
Note OFF: Time 123240, Note Name: A4
Note ON: Time 123240, Note Name: F#4, Velocity: 44
Note OFF: Time 123340, Note Name: C#5
Note OFF: Time 123350, Note Name: F#4
Note ON: Time 123360, Note Name: F#4, Velocity: 44
Note ON: Time 123360, Note Name: A4, Velocity: 53
Note OFF: Time 123480, Note Name: F#4
Note ON: Time 123480, Note Name: D4, Velocity: 44
Note OFF: Time 123600, Note Name: D4
Note OFF: Time 123600, Note Name: A4
Note ON: Time 123600, Note Name: A4, Velocity: 44
Note ON: Time 123600, Note Name: C#5, Velocity: 53
Note OFF: Time 123720, Note Name: A4
Note ON: Time 123720, Note Name: D4, Velocity: 44
Note OFF: Time 123840, Note Name: D4
Note OFF: Time 123840, Note Name: C#5
Note ON: Time 123840, Note Name: G#4, Velocity: 44
Note ON: Time 123840, Note Name: B4, Velocity: 56
Note OFF: Time 123960, Note Name: G#4
Note ON: Time 123960, Note Name: D4, Velocity: 44
Note OFF: Time 124080, Note Name: D4
Note OFF: Time 124080, Note Name: B4
Note ON: Time 124080, Note Name: G#4, Velocity: 44
Note ON: Time 124080, Note Name: B4, Velocity: 51
Note OFF: Time 124200, Note Name: B4
Note OFF: Time 124200, Note Name: G#4
Note ON: Time 124200, Note Name: F4, Velocity: 39
Note ON: Time 124200, Note Name: A4, Velocity: 48
Note OFF: Time 124320, Note Name: A4
Note OFF: Time 124320, Note Name: F4
Note ON: Time 124320, Note Name: G#4, Velocity: 44
Note ON: Time 124320, Note Name: B4, Velocity: 51
Note OFF: Time 124440, Note Name: G#4
Note ON: Time 124440, Note Name: D4, Velocity: 44
Note OFF: Time 124560, Note Name: D4
Note ON: Time 124560, Note Name: G#4, Velocity: 44
Note OFF: Time 124680, Note Name: G#4
Note ON: Time 124680, Note Name: D4, Velocity: 44
Note OFF: Time 124800, Note Name: D4
Note OFF: Time 124800, Note Name: B4
Note ON: Time 124800, Note Name: G#4, Velocity: 52
Note ON: Time 124920, Note Name: D4, Velocity: 44
Note OFF: Time 125040, Note Name: D4
Note OFF: Time 125040, Note Name: G#4
Note ON: Time 125040, Note Name: B4, Velocity: 52
Note ON: Time 125040, Note Name: G#4, Velocity: 48
Note OFF: Time 125160, Note Name: G#4
Note ON: Time 125160, Note Name: D4, Velocity: 44
Note OFF: Time 125280, Note Name: D4
Note OFF: Time 125280, Note Name: B4
Note ON: Time 125280, Note Name: E4, Velocity: 45
Note ON: Time 125280, Note Name: C#5, Velocity: 54
Note ON: Time 125280, Note Name: E5, Velocity: 54
Note OFF: Time 125400, Note Name: E4
Note ON: Time 125400, Note Name: F#4, Velocity: 45
Note OFF: Time 125520, Note Name: F#4
Note OFF: Time 125520, Note Name: E5
Note OFF: Time 125520, Note Name: C#5
Note ON: Time 125520, Note Name: A4, Velocity: 44
Note ON: Time 125520, Note Name: C#5, Velocity: 52
Note OFF: Time 125640, Note Name: A4
Note ON: Time 125640, Note Name: F#4, Velocity: 44
Note OFF: Time 125740, Note Name: C#5
Note OFF: Time 125750, Note Name: F#4
Note ON: Time 125760, Note Name: A4, Velocity: 44
Note ON: Time 125760, Note Name: C#5, Velocity: 52
Note OFF: Time 125880, Note Name: A4
Note ON: Time 125880, Note Name: F#4, Velocity: 44
Note OFF: Time 126000, Note Name: F#4
Note ON: Time 126000, Note Name: A4, Velocity: 46
Note OFF: Time 126120, Note Name: A4
Note ON: Time 126120, Note Name: F#4, Velocity: 44
Note OFF: Time 126220, Note Name: C#5
Note OFF: Time 126230, Note Name: F#4
Note ON: Time 126240, Note Name: A4, Velocity: 53
Note ON: Time 126240, Note Name: F#4, Velocity: 44
Note OFF: Time 126360, Note Name: F#4
Note ON: Time 126360, Note Name: D4, Velocity: 44
Note OFF: Time 126480, Note Name: D4
Note OFF: Time 126480, Note Name: A4
Note ON: Time 126480, Note Name: A4, Velocity: 44
Note ON: Time 126480, Note Name: C#5, Velocity: 53
Note OFF: Time 126600, Note Name: A4
Note ON: Time 126600, Note Name: D4, Velocity: 44
Note OFF: Time 126720, Note Name: D4
Note OFF: Time 126720, Note Name: C#5
Note ON: Time 126720, Note Name: B4, Velocity: 44
Note ON: Time 126720, Note Name: D5, Velocity: 56
Note OFF: Time 126840, Note Name: B4
Note ON: Time 126840, Note Name: F#4, Velocity: 44
Note OFF: Time 126960, Note Name: F#4
Note ON: Time 126960, Note Name: B4, Velocity: 47
Note OFF: Time 127080, Note Name: B4
Note ON: Time 127080, Note Name: F#4, Velocity: 43
Note OFF: Time 127200, Note Name: F#4
Note ON: Time 127200, Note Name: B4, Velocity: 46
Note OFF: Time 127320, Note Name: B4
Note ON: Time 127320, Note Name: F#4, Velocity: 43
Note OFF: Time 127440, Note Name: F#4
Note ON: Time 127440, Note Name: B4, Velocity: 46
Note OFF: Time 127560, Note Name: B4
Note ON: Time 127560, Note Name: F#4, Velocity: 43
Note OFF: Time 127680, Note Name: F#4
Note OFF: Time 127680, Note Name: D5
Note ON: Time 127680, Note Name: F#4, Velocity: 56
Note ON: Time 127680, Note Name: B4, Velocity: 56
Note OFF: Time 127800, Note Name: F#4
Note ON: Time 127800, Note Name: D4, Velocity: 47
Note OFF: Time 127920, Note Name: D4
Note OFF: Time 127920, Note Name: B4
Note ON: Time 127920, Note Name: B4, Velocity: 59
Note ON: Time 127920, Note Name: D5, Velocity: 59
Note OFF: Time 128040, Note Name: B4
Note ON: Time 128040, Note Name: F#4, Velocity: 51
Note OFF: Time 128140, Note Name: F#4
Note OFF: Time 128140, Note Name: D5
Note ON: Time 128160, Note Name: D5, Velocity: 48
Note ON: Time 128160, Note Name: F#5, Velocity: 60
Note OFF: Time 128280, Note Name: D5
Note ON: Time 128280, Note Name: B4, Velocity: 47
Note OFF: Time 128400, Note Name: B4
Note OFF: Time 128400, Note Name: F#5
Note ON: Time 128400, Note Name: F#4, Velocity: 45
Note ON: Time 128400, Note Name: D5, Velocity: 56
Note OFF: Time 128520, Note Name: F#4
Note ON: Time 128520, Note Name: B4, Velocity: 47
Note OFF: Time 128620, Note Name: D5
Note OFF: Time 128630, Note Name: B4
Note ON: Time 128640, Note Name: D5, Velocity: 56
Note ON: Time 128760, Note Name: B4, Velocity: 47
Note OFF: Time 128880, Note Name: B4
Note ON: Time 128880, Note Name: F#4, Velocity: 50
Note OFF: Time 129000, Note Name: F#4
Note ON: Time 129000, Note Name: B4, Velocity: 47
Note OFF: Time 129100, Note Name: D5
Note OFF: Time 129110, Note Name: B4
Note ON: Time 129120, Note Name: C#5, Velocity: 56
Note ON: Time 129120, Note Name: E5, Velocity: 56
Note OFF: Time 129240, Note Name: C#5
Note ON: Time 129240, Note Name: B4, Velocity: 47
Note OFF: Time 129360, Note Name: B4
Note OFF: Time 129360, Note Name: E5
Note ON: Time 129360, Note Name: D5, Velocity: 57
Note ON: Time 129360, Note Name: F#5, Velocity: 57
Note OFF: Time 129480, Note Name: D5
Note ON: Time 129480, Note Name: B4, Velocity: 47
Note OFF: Time 129600, Note Name: B4
Note OFF: Time 129600, Note Name: F#5
Note ON: Time 129600, Note Name: F5, Velocity: 61
Note ON: Time 129600, Note Name: G#5, Velocity: 61
Note OFF: Time 129720, Note Name: F5
Note ON: Time 129720, Note Name: B4, Velocity: 57
Note OFF: Time 129840, Note Name: G#5
Note ON: Time 129840, Note Name: F5, Velocity: 57
Note ON: Time 129840, Note Name: G#5, Velocity: 57
Note OFF: Time 129960, Note Name: G#5
Note OFF: Time 129960, Note Name: F5
Note ON: Time 129960, Note Name: D#5, Velocity: 57
Note ON: Time 129960, Note Name: F#5, Velocity: 57
Note OFF: Time 130080, Note Name: F#5
Note OFF: Time 130080, Note Name: D#5
Note OFF: Time 130080, Note Name: B4
Note ON: Time 130080, Note Name: F5, Velocity: 55
Note ON: Time 130080, Note Name: G#5, Velocity: 60
Note OFF: Time 130200, Note Name: F5
Note ON: Time 130200, Note Name: B4, Velocity: 50
Note OFF: Time 130300, Note Name: B4
Note OFF: Time 130300, Note Name: G#5
Note ON: Time 130320, Note Name: C#5, Velocity: 55
Note ON: Time 130320, Note Name: F5, Velocity: 61
Note OFF: Time 130440, Note Name: C#5
Note ON: Time 130440, Note Name: B4, Velocity: 50
Note OFF: Time 130560, Note Name: B4
Note OFF: Time 130560, Note Name: F5
Note ON: Time 130560, Note Name: D#5, Velocity: 58
Note ON: Time 130560, Note Name: F#5, Velocity: 65
Note OFF: Time 130680, Note Name: D#5
Note ON: Time 130680, Note Name: B4, Velocity: 50
Note OFF: Time 130800, Note Name: B4
Note OFF: Time 130800, Note Name: F#5
Note ON: Time 130800, Note Name: F5, Velocity: 58
Note ON: Time 130800, Note Name: G#5, Velocity: 69
Note OFF: Time 130920, Note Name: F5
Note ON: Time 130920, Note Name: B4, Velocity: 50
Note OFF: Time 131040, Note Name: B4
Note OFF: Time 131040, Note Name: G#5
Note ON: Time 131040, Note Name: F#5, Velocity: 59
Note ON: Time 131040, Note Name: A5, Velocity: 74
Note OFF: Time 131160, Note Name: F#5
Note ON: Time 131160, Note Name: C#5, Velocity: 51
Note OFF: Time 131280, Note Name: C#5
Note OFF: Time 131280, Note Name: A5
Note ON: Time 131280, Note Name: C#5, Velocity: 50
Note ON: Time 131280, Note Name: F#5, Velocity: 73
Note OFF: Time 131400, Note Name: C#5
Note ON: Time 131400, Note Name: A4, Velocity: 51
Note OFF: Time 131500, Note Name: F#5
Note OFF: Time 131510, Note Name: A4
Note ON: Time 131520, Note Name: C#5, Velocity: 56
Note ON: Time 131520, Note Name: F#5, Velocity: 73
Note OFF: Time 131640, Note Name: C#5
Note ON: Time 131640, Note Name: A4, Velocity: 51
Note OFF: Time 131760, Note Name: A4
Note ON: Time 131760, Note Name: C#5, Velocity: 56
Note OFF: Time 131880, Note Name: C#5
Note ON: Time 131880, Note Name: A4, Velocity: 51
Note OFF: Time 131980, Note Name: F#5
Note OFF: Time 131990, Note Name: A4
Note ON: Time 132000, Note Name: F#5, Velocity: 78
Note ON: Time 132000, Note Name: A5, Velocity: 78
Note OFF: Time 132120, Note Name: F#5
Note ON: Time 132120, Note Name: C#5, Velocity: 65
Note OFF: Time 132240, Note Name: C#5
Note OFF: Time 132240, Note Name: A5
Note ON: Time 132240, Note Name: A5, Velocity: 79
Note ON: Time 132240, Note Name: C#6, Velocity: 79
Note OFF: Time 132360, Note Name: A5
Note ON: Time 132360, Note Name: F#5, Velocity: 65
Note OFF: Time 132480, Note Name: F#5
Note OFF: Time 132480, Note Name: C#6
Note ON: Time 132480, Note Name: D6, Velocity: 89
Note ON: Time 132480, Note Name: F#5, Velocity: 63
Note ON: Time 132480, Note Name: A5, Velocity: 63
Note OFF: Time 132600, Note Name: A5
Note OFF: Time 132600, Note Name: F#5
Note ON: Time 132600, Note Name: D5, Velocity: 45
Note OFF: Time 132720, Note Name: D5
Note ON: Time 132720, Note Name: F#5, Velocity: 45
Note ON: Time 132720, Note Name: A5, Velocity: 45
Note OFF: Time 132840, Note Name: A5
Note OFF: Time 132840, Note Name: F#5
Note ON: Time 132840, Note Name: D5, Velocity: 46
Note OFF: Time 132960, Note Name: D5
Note ON: Time 132960, Note Name: F#5, Velocity: 47
Note ON: Time 132960, Note Name: A5, Velocity: 47
Note OFF: Time 133080, Note Name: A5
Note OFF: Time 133080, Note Name: F#5
Note ON: Time 133080, Note Name: D5, Velocity: 48
Note OFF: Time 133200, Note Name: D5
Note ON: Time 133200, Note Name: A5, Velocity: 48
Note ON: Time 133200, Note Name: F#5, Velocity: 48
Note OFF: Time 133320, Note Name: F#5
Note OFF: Time 133320, Note Name: A5
Note ON: Time 133320, Note Name: D5, Velocity: 48
Note OFF: Time 133440, Note Name: D5
Note ON: Time 133440, Note Name: A5, Velocity: 49
Note ON: Time 133440, Note Name: F#5, Velocity: 49
Note OFF: Time 133560, Note Name: F#5
Note OFF: Time 133560, Note Name: A5
Note ON: Time 133560, Note Name: D5, Velocity: 50
Note OFF: Time 133680, Note Name: D5
Note ON: Time 133680, Note Name: F#5, Velocity: 50
Note ON: Time 133680, Note Name: A5, Velocity: 50
Note OFF: Time 133800, Note Name: A5
Note OFF: Time 133800, Note Name: F#5
Note ON: Time 133800, Note Name: D5, Velocity: 51
Note OFF: Time 133920, Note Name: D5
Note ON: Time 133920, Note Name: F#5, Velocity: 46
Note ON: Time 133920, Note Name: A5, Velocity: 46
Note OFF: Time 134040, Note Name: A5
Note OFF: Time 134040, Note Name: F#5
Note ON: Time 134040, Note Name: D5, Velocity: 43
Note OFF: Time 134160, Note Name: D5
Note ON: Time 134160, Note Name: F#5, Velocity: 48
Note ON: Time 134160, Note Name: A5, Velocity: 48
Note OFF: Time 134280, Note Name: A5
Note OFF: Time 134280, Note Name: F#5
Note ON: Time 134280, Note Name: D5, Velocity: 43
Note OFF: Time 134400, Note Name: D5
Note OFF: Time 134400, Note Name: D6
Note ON: Time 134400, Note Name: A5, Velocity: 41
Note ON: Time 134400, Note Name: D6, Velocity: 41
Note ON: Time 134400, Note Name: E6, Velocity: 59
Note OFF: Time 134520, Note Name: D6
Note OFF: Time 134520, Note Name: A5
Note ON: Time 134520, Note Name: E5, Velocity: 37
Note OFF: Time 134640, Note Name: E5
Note ON: Time 134640, Note Name: A5, Velocity: 43
Note ON: Time 134640, Note Name: D6, Velocity: 43
Note OFF: Time 134760, Note Name: D6
Note OFF: Time 134760, Note Name: A5
Note ON: Time 134760, Note Name: E5, Velocity: 40
Note OFF: Time 134880, Note Name: E5
Note OFF: Time 134880, Note Name: E6
Note ON: Time 134880, Note Name: A5, Velocity: 45
Note ON: Time 134880, Note Name: D6, Velocity: 45
Note ON: Time 134880, Note Name: F#6, Velocity: 67
Note OFF: Time 135000, Note Name: D6
Note OFF: Time 135000, Note Name: A5
Note ON: Time 135000, Note Name: F#5, Velocity: 42
Note OFF: Time 135120, Note Name: F#5
Note ON: Time 135120, Note Name: D6, Velocity: 48
Note ON: Time 135120, Note Name: A5, Velocity: 48
Note OFF: Time 135240, Note Name: A5
Note OFF: Time 135240, Note Name: D6
Note ON: Time 135240, Note Name: F#5, Velocity: 44
Note OFF: Time 135360, Note Name: F#5
Note OFF: Time 135360, Note Name: F#6
Note ON: Time 135360, Note Name: A5, Velocity: 42
Note ON: Time 135360, Note Name: D6, Velocity: 42
Note ON: Time 135360, Note Name: F#6, Velocity: 69
Note OFF: Time 135480, Note Name: D6
Note OFF: Time 135480, Note Name: A5
Note ON: Time 135480, Note Name: F#5, Velocity: 38
Note OFF: Time 135600, Note Name: F#5
Note ON: Time 135600, Note Name: A5, Velocity: 42
Note ON: Time 135600, Note Name: D6, Velocity: 42
Note OFF: Time 135720, Note Name: D6
Note OFF: Time 135720, Note Name: A5
Note ON: Time 135720, Note Name: F#5, Velocity: 37
Note OFF: Time 135840, Note Name: F#5
Note ON: Time 135840, Note Name: A5, Velocity: 39
Note ON: Time 135840, Note Name: D6, Velocity: 39
Note OFF: Time 135960, Note Name: D6
Note OFF: Time 135960, Note Name: A5
Note ON: Time 135960, Note Name: F#5, Velocity: 36
Note OFF: Time 136080, Note Name: F#5
Note ON: Time 136080, Note Name: A5, Velocity: 38
Note ON: Time 136080, Note Name: D6, Velocity: 38
Note OFF: Time 136200, Note Name: D6
Note OFF: Time 136200, Note Name: A5
Note ON: Time 136200, Note Name: F#5, Velocity: 34
Note OFF: Time 136320, Note Name: F#5
Note ON: Time 136320, Note Name: A5, Velocity: 36
Note ON: Time 136320, Note Name: D6, Velocity: 36
Note OFF: Time 136440, Note Name: D6
Note OFF: Time 136440, Note Name: A5
Note ON: Time 136440, Note Name: F#5, Velocity: 32
Note OFF: Time 136560, Note Name: F#5
Note ON: Time 136560, Note Name: A5, Velocity: 34
Note ON: Time 136560, Note Name: D6, Velocity: 34
Note OFF: Time 136680, Note Name: D6
Note OFF: Time 136680, Note Name: A5
Note ON: Time 136680, Note Name: F#5, Velocity: 31
Note OFF: Time 136800, Note Name: F#5
Note ON: Time 136800, Note Name: D6, Velocity: 35
Note ON: Time 136800, Note Name: A5, Velocity: 35
Note OFF: Time 136920, Note Name: A5
Note OFF: Time 136920, Note Name: D6
Note ON: Time 136920, Note Name: F#5, Velocity: 34
Note OFF: Time 137040, Note Name: F#5
Note ON: Time 137040, Note Name: D6, Velocity: 33
Note ON: Time 137040, Note Name: A5, Velocity: 33
Note OFF: Time 137160, Note Name: A5
Note OFF: Time 137160, Note Name: D6
Note ON: Time 137160, Note Name: F#5, Velocity: 34
Note OFF: Time 137280, Note Name: F#5
Note OFF: Time 137280, Note Name: F#6
Note ON: Time 137280, Note Name: D6, Velocity: 49
Note ON: Time 137280, Note Name: F#5, Velocity: 33
Note ON: Time 137280, Note Name: A5, Velocity: 33
Note OFF: Time 137400, Note Name: A5
Note OFF: Time 137400, Note Name: F#5
Note ON: Time 137400, Note Name: D5, Velocity: 30
Note OFF: Time 137520, Note Name: D5
Note ON: Time 137520, Note Name: F#5, Velocity: 28
Note ON: Time 137520, Note Name: A5, Velocity: 28
Note OFF: Time 137640, Note Name: A5
Note OFF: Time 137640, Note Name: F#5
Note ON: Time 137640, Note Name: D5, Velocity: 30
Note OFF: Time 137760, Note Name: D5
Note OFF: Time 137760, Note Name: D6
Note ON: Time 137760, Note Name: F#6, Velocity: 52
Note ON: Time 137760, Note Name: B5, Velocity: 33
Note ON: Time 137760, Note Name: D6, Velocity: 33
Note OFF: Time 137880, Note Name: D6
Note OFF: Time 137880, Note Name: B5
Note ON: Time 137880, Note Name: F#5, Velocity: 30
Note OFF: Time 138000, Note Name: F#5
Note ON: Time 138000, Note Name: B5, Velocity: 28
Note ON: Time 138000, Note Name: D6, Velocity: 28
Note OFF: Time 138120, Note Name: D6
Note OFF: Time 138120, Note Name: B5
Note ON: Time 138120, Note Name: F#5, Velocity: 30
Note OFF: Time 138240, Note Name: F#5
Note OFF: Time 138240, Note Name: F#6
Note ON: Time 138240, Note Name: A6, Velocity: 41
Note ON: Time 138240, Note Name: E6, Velocity: 41
Note ON: Time 138240, Note Name: A5, Velocity: 41
Note OFF: Time 138330, Note Name: A5
Note OFF: Time 138330, Note Name: E6
Note OFF: Time 138330, Note Name: A6
Note ON: Time 138480, Note Name: E4, Velocity: 33
Note ON: Time 138480, Note Name: A4, Velocity: 33
Note OFF: Time 138600, Note Name: A4
Note OFF: Time 138600, Note Name: E4
Note ON: Time 138600, Note Name: D4, Velocity: 33
Note OFF: Time 138720, Note Name: D4
Note ON: Time 138720, Note Name: A4, Velocity: 37
Note ON: Time 138720, Note Name: E4, Velocity: 37
Note OFF: Time 138750, Note Name: E4
Note OFF: Time 138750, Note Name: A4
Note ON: Time 138960, Note Name: E4, Velocity: 33
Note ON: Time 138960, Note Name: A4, Velocity: 33
Note OFF: Time 139020, Note Name: A4
Note OFF: Time 139020, Note Name: E4
Note ON: Time 139440, Note Name: B5, Velocity: 34
Note ON: Time 139440, Note Name: G5, Velocity: 34
Note ON: Time 139440, Note Name: B4, Velocity: 34
Note OFF: Time 139500, Note Name: B4
Note OFF: Time 139500, Note Name: G5
Note OFF: Time 139500, Note Name: B5
Note ON: Time 139680, Note Name: C6, Velocity: 41
Note ON: Time 139680, Note Name: G5, Velocity: 41
Note ON: Time 139680, Note Name: C5, Velocity: 41
Note OFF: Time 139740, Note Name: C5
Note OFF: Time 139740, Note Name: G5
Note OFF: Time 139740, Note Name: C6
Note ON: Time 139920, Note Name: G4, Velocity: 33
Note ON: Time 139920, Note Name: C5, Velocity: 33
Note OFF: Time 140040, Note Name: C5
Note OFF: Time 140040, Note Name: G4
Note ON: Time 140040, Note Name: F4, Velocity: 33
Note OFF: Time 140160, Note Name: F4
Note ON: Time 140160, Note Name: G4, Velocity: 36
Note ON: Time 140160, Note Name: C5, Velocity: 36
Note OFF: Time 140190, Note Name: C5
Note OFF: Time 140190, Note Name: G4
Note ON: Time 140400, Note Name: G4, Velocity: 33
Note ON: Time 140400, Note Name: C5, Velocity: 33
Note OFF: Time 140460, Note Name: C5
Note OFF: Time 140460, Note Name: G4
Note ON: Time 140880, Note Name: B5, Velocity: 34
Note ON: Time 140880, Note Name: G5, Velocity: 34
Note ON: Time 140880, Note Name: B4, Velocity: 34
Note OFF: Time 140940, Note Name: B4
Note OFF: Time 140940, Note Name: G5
Note OFF: Time 140940, Note Name: B5
Note ON: Time 141120, Note Name: A5, Velocity: 40
Note ON: Time 141120, Note Name: E5, Velocity: 40
Note ON: Time 141120, Note Name: A4, Velocity: 40
Note OFF: Time 141180, Note Name: A4
Note OFF: Time 141180, Note Name: E5
Note OFF: Time 141180, Note Name: A5
Note ON: Time 141360, Note Name: E4, Velocity: 33
Note ON: Time 141360, Note Name: A4, Velocity: 33
Note OFF: Time 141480, Note Name: A4
Note OFF: Time 141480, Note Name: E4
Note ON: Time 141480, Note Name: E4, Velocity: 33
Note OFF: Time 141600, Note Name: E4
Note ON: Time 141600, Note Name: E4, Velocity: 36
Note ON: Time 141600, Note Name: A4, Velocity: 36
Note OFF: Time 141630, Note Name: A4
Note OFF: Time 141630, Note Name: E4
Note ON: Time 141840, Note Name: E4, Velocity: 32
Note ON: Time 141840, Note Name: A4, Velocity: 32
Note OFF: Time 141900, Note Name: A4
Note OFF: Time 141900, Note Name: E4
Note ON: Time 142320, Note Name: B5, Velocity: 37
Note ON: Time 142320, Note Name: G5, Velocity: 37
Note ON: Time 142320, Note Name: B4, Velocity: 37
Note OFF: Time 142380, Note Name: B4
Note OFF: Time 142380, Note Name: G5
Note OFF: Time 142380, Note Name: B5
Note ON: Time 142560, Note Name: C6, Velocity: 41
Note ON: Time 142560, Note Name: G5, Velocity: 41
Note ON: Time 142560, Note Name: C5, Velocity: 41
Note OFF: Time 142620, Note Name: C5
Note OFF: Time 142620, Note Name: G5
Note OFF: Time 142620, Note Name: C6
Note ON: Time 142800, Note Name: G4, Velocity: 32
Note ON: Time 142800, Note Name: C5, Velocity: 32
Note OFF: Time 142920, Note Name: C5
Note OFF: Time 142920, Note Name: G4
Note ON: Time 142920, Note Name: F4, Velocity: 32
Note OFF: Time 143040, Note Name: F4
Note ON: Time 143040, Note Name: G4, Velocity: 35
Note ON: Time 143040, Note Name: C5, Velocity: 35
Note OFF: Time 143070, Note Name: C5
Note OFF: Time 143070, Note Name: G4
Note ON: Time 143280, Note Name: G4, Velocity: 32
Note ON: Time 143280, Note Name: C5, Velocity: 32
Note OFF: Time 143340, Note Name: C5
Note OFF: Time 143340, Note Name: G4
Note ON: Time 143760, Note Name: B5, Velocity: 33
Note ON: Time 143760, Note Name: G5, Velocity: 33
Note ON: Time 143760, Note Name: B4, Velocity: 33
Note OFF: Time 143820, Note Name: B4
Note OFF: Time 143820, Note Name: G5
Note OFF: Time 143820, Note Name: B5
Note ON: Time 144000, Note Name: B4, Velocity: 35
Note ON: Time 144000, Note Name: G5, Velocity: 35
Note ON: Time 144000, Note Name: B5, Velocity: 35
Note OFF: Time 144060, Note Name: B5
Note OFF: Time 144060, Note Name: G5
Note OFF: Time 144060, Note Name: B4
Note ON: Time 145440, Note Name: E4, Velocity: 51
Note OFF: Time 145960, Note Name: E4
Note ON: Time 145960, Note Name: F4, Velocity: 33
Note OFF: Time 146000, Note Name: F4
Note ON: Time 146000, Note Name: G4, Velocity: 33
Note OFF: Time 146040, Note Name: G4
Note ON: Time 146040, Note Name: A4, Velocity: 33
Note OFF: Time 146080, Note Name: A4
Note ON: Time 146080, Note Name: B4, Velocity: 33
Note OFF: Time 146120, Note Name: B4
Note ON: Time 146120, Note Name: C5, Velocity: 33
Note OFF: Time 146160, Note Name: C5
Note ON: Time 146160, Note Name: D5, Velocity: 33
Note OFF: Time 146200, Note Name: D5
Note ON: Time 146200, Note Name: E5, Velocity: 33
Note OFF: Time 146240, Note Name: E5
Note ON: Time 146240, Note Name: F5, Velocity: 33
Note OFF: Time 146280, Note Name: F5
Note ON: Time 146280, Note Name: G5, Velocity: 33
Note OFF: Time 146320, Note Name: G5
Note ON: Time 146320, Note Name: A5, Velocity: 33
Note OFF: Time 146360, Note Name: A5
Note ON: Time 146360, Note Name: B5, Velocity: 33
Note OFF: Time 146400, Note Name: B5
Note ON: Time 146400, Note Name: C6, Velocity: 33
Note OFF: Time 146440, Note Name: C6
Note ON: Time 146440, Note Name: D6, Velocity: 33
Note OFF: Time 146480, Note Name: D6
Note ON: Time 146480, Note Name: E6, Velocity: 33
Note OFF: Time 146520, Note Name: E6
Note ON: Time 146520, Note Name: F6, Velocity: 33
Note OFF: Time 146560, Note Name: F6
Note ON: Time 146560, Note Name: G6, Velocity: 33
Note OFF: Time 146600, Note Name: G6
Note ON: Time 146600, Note Name: A6, Velocity: 33
Note OFF: Time 146640, Note Name: A6
Note ON: Time 146640, Note Name: B6, Velocity: 33
Note OFF: Time 146680, Note Name: B6
Note ON: Time 146680, Note Name: C7, Velocity: 33
Note OFF: Time 146720, Note Name: C7
Note ON: Time 146720, Note Name: D7, Velocity: 33
Note OFF: Time 146760, Note Name: D7
Note ON: Time 146760, Note Name: E7, Velocity: 33
Note OFF: Time 146800, Note Name: E7
Note ON: Time 146800, Note Name: F7, Velocity: 33
Note OFF: Time 146840, Note Name: F7
Note ON: Time 146840, Note Name: G7, Velocity: 33
Note OFF: Time 146880, Note Name: G7
Note ON: Time 146880, Note Name: A7, Velocity: 38
Note OFF: Time 147120, Note Name: A7
Note ON: Time 148320, Note Name: A3, Velocity: 27
Note OFF: Time 148440, Note Name: A3
Track 2: Piano left
Note ON: Time 0, Note Name: D3, Velocity: 48
Note ON: Time 0, Note Name: A3, Velocity: 48
Note OFF: Time 30, Note Name: A3
Note OFF: Time 30, Note Name: D3
Note ON: Time 240, Note Name: C4, Velocity: 48
Note ON: Time 240, Note Name: F3, Velocity: 48
Note OFF: Time 270, Note Name: F3
Note OFF: Time 270, Note Name: C4
Note ON: Time 480, Note Name: D3, Velocity: 48
Note OFF: Time 600, Note Name: D3
Note ON: Time 960, Note Name: D3, Velocity: 48
Note OFF: Time 1005, Note Name: D3
Note ON: Time 1440, Note Name: A2, Velocity: 48
Note OFF: Time 1680, Note Name: A2
Note ON: Time 1920, Note Name: D2, Velocity: 45
Note OFF: Time 2160, Note Name: D2
Note ON: Time 2400, Note Name: A2, Velocity: 48
Note OFF: Time 2640, Note Name: A2
Note ON: Time 2880, Note Name: E2, Velocity: 48
Note OFF: Time 3120, Note Name: E2
Note ON: Time 3360, Note Name: E3, Velocity: 48
Note OFF: Time 3600, Note Name: E3
Note ON: Time 3600, Note Name: A3, Velocity: 51
Note OFF: Time 3840, Note Name: A3
Note ON: Time 3840, Note Name: E2, Velocity: 48
Note OFF: Time 3960, Note Name: E2
Note ON: Time 4320, Note Name: B3, Velocity: 54
Note ON: Time 4320, Note Name: E3, Velocity: 54
Note OFF: Time 4680, Note Name: B3
Note ON: Time 4680, Note Name: C4, Velocity: 54
Note OFF: Time 4800, Note Name: C4
Note ON: Time 4800, Note Name: B3, Velocity: 51
Note OFF: Time 5160, Note Name: B3
Note ON: Time 5160, Note Name: C4, Velocity: 48
Note OFF: Time 5280, Note Name: C4
Note ON: Time 5280, Note Name: D4, Velocity: 51
Note OFF: Time 5640, Note Name: D4
Note ON: Time 5640, Note Name: E4, Velocity: 48
Note OFF: Time 5760, Note Name: E4
Note OFF: Time 5760, Note Name: E3
Note ON: Time 5760, Note Name: A4, Velocity: 42
Note ON: Time 5760, Note Name: C4, Velocity: 42
Note ON: Time 5760, Note Name: F3, Velocity: 42
Note OFF: Time 6240, Note Name: F3
Note OFF: Time 6240, Note Name: C4
Note OFF: Time 6240, Note Name: A4
Note ON: Time 6240, Note Name: F4, Velocity: 34
Note ON: Time 6240, Note Name: D4, Velocity: 34
Note ON: Time 6240, Note Name: G3, Velocity: 34
Note OFF: Time 6720, Note Name: G3
Note OFF: Time 6720, Note Name: D4
Note OFF: Time 6720, Note Name: F4
Note ON: Time 6720, Note Name: C3, Velocity: 38
Note ON: Time 6720, Note Name: G3, Velocity: 38
Note ON: Time 6720, Note Name: E4, Velocity: 38
Note OFF: Time 7200, Note Name: E4
Note OFF: Time 7200, Note Name: G3
Note OFF: Time 7200, Note Name: C3
Note ON: Time 7200, Note Name: F3, Velocity: 36
Note ON: Time 7200, Note Name: A3, Velocity: 36
Note ON: Time 7200, Note Name: C4, Velocity: 36
Note OFF: Time 7440, Note Name: C4
Note OFF: Time 7440, Note Name: A3
Note OFF: Time 7440, Note Name: F3
Note ON: Time 7440, Note Name: D3, Velocity: 34
Note ON: Time 7440, Note Name: A3, Velocity: 34
Note ON: Time 7440, Note Name: D4, Velocity: 34
Note OFF: Time 7660, Note Name: D4
Note OFF: Time 7660, Note Name: A3
Note OFF: Time 7660, Note Name: D3
Note ON: Time 7680, Note Name: F2, Velocity: 48
Note ON: Time 7680, Note Name: A3, Velocity: 48
Note ON: Time 7680, Note Name: C3, Velocity: 48
Note OFF: Time 8160, Note Name: C3
Note OFF: Time 8160, Note Name: A3
Note OFF: Time 8160, Note Name: F2
Note ON: Time 8160, Note Name: G2, Velocity: 39
Note ON: Time 8160, Note Name: A#3, Velocity: 39
Note ON: Time 8160, Note Name: D3, Velocity: 39
Note OFF: Time 8640, Note Name: D3
Note OFF: Time 8640, Note Name: A#3
Note OFF: Time 8640, Note Name: G2
Note ON: Time 8640, Note Name: C3, Velocity: 43
Note ON: Time 8640, Note Name: G3, Velocity: 43
Note ON: Time 8640, Note Name: C4, Velocity: 43
Note OFF: Time 9120, Note Name: C4
Note OFF: Time 9120, Note Name: G3
Note OFF: Time 9120, Note Name: C3
Note ON: Time 9120, Note Name: F3, Velocity: 38
Note ON: Time 9120, Note Name: C4, Velocity: 38
Note OFF: Time 9480, Note Name: C4
Note OFF: Time 9480, Note Name: F3
Note ON: Time 9480, Note Name: E3, Velocity: 43
Note OFF: Time 9600, Note Name: E3
Note ON: Time 9600, Note Name: D3, Velocity: 45
Note ON: Time 9600, Note Name: F3, Velocity: 45
Note OFF: Time 9960, Note Name: D3
Note ON: Time 9960, Note Name: C3, Velocity: 45
Note OFF: Time 10080, Note Name: C3
Note OFF: Time 10080, Note Name: F3
Note ON: Time 10080, Note Name: F3, Velocity: 48
Note ON: Time 10080, Note Name: B2, Velocity: 48
Note OFF: Time 10440, Note Name: B2
Note ON: Time 10440, Note Name: A2, Velocity: 50
Note OFF: Time 10560, Note Name: A2
Note ON: Time 10560, Note Name: G2, Velocity: 54
Note OFF: Time 10920, Note Name: G2
Note ON: Time 10920, Note Name: A2, Velocity: 57
Note OFF: Time 11040, Note Name: A2
Note ON: Time 11040, Note Name: B2, Velocity: 62
Note OFF: Time 11280, Note Name: F3
Note ON: Time 11280, Note Name: G3, Velocity: 48
Note OFF: Time 11400, Note Name: G3
Note ON: Time 11400, Note Name: E3, Velocity: 48
Note OFF: Time 11520, Note Name: E3
Note OFF: Time 11520, Note Name: B2
Note ON: Time 11520, Note Name: B2, Velocity: 52
Note ON: Time 11520, Note Name: F3, Velocity: 52
Note OFF: Time 11880, Note Name: B2
Note ON: Time 11880, Note Name: A2, Velocity: 49
Note OFF: Time 12000, Note Name: A2
Note ON: Time 12000, Note Name: G2, Velocity: 54
Note OFF: Time 12360, Note Name: G2
Note ON: Time 12360, Note Name: A2, Velocity: 55
Note OFF: Time 12480, Note Name: A2
Note ON: Time 12480, Note Name: B2, Velocity: 61
Note OFF: Time 12840, Note Name: F3
Note ON: Time 12840, Note Name: G3, Velocity: 52
Note OFF: Time 12960, Note Name: G3
Note OFF: Time 12960, Note Name: B2
Note ON: Time 12960, Note Name: G#3, Velocity: 45
Note ON: Time 12960, Note Name: C3, Velocity: 45
Note OFF: Time 13080, Note Name: G#3
Note ON: Time 13080, Note Name: F#3, Velocity: 43
Note OFF: Time 13200, Note Name: F#3
Note ON: Time 13200, Note Name: E3, Velocity: 43
Note OFF: Time 13320, Note Name: E3
Note ON: Time 13320, Note Name: F#3, Velocity: 43
Note OFF: Time 13440, Note Name: F#3
Note ON: Time 13440, Note Name: G#3, Velocity: 46
Note OFF: Time 13560, Note Name: G#3
Note OFF: Time 14400, Note Name: C3
Note ON: Time 14400, Note Name: B2, Velocity: 44
Note ON: Time 14400, Note Name: G#3, Velocity: 44
Note OFF: Time 14520, Note Name: G#3
Note ON: Time 14520, Note Name: F#3, Velocity: 40
Note OFF: Time 14640, Note Name: F#3
Note ON: Time 14640, Note Name: E3, Velocity: 40
Note OFF: Time 14760, Note Name: E3
Note ON: Time 14760, Note Name: F#3, Velocity: 40
Note OFF: Time 14880, Note Name: F#3
Note ON: Time 14880, Note Name: G#3, Velocity: 44
Note OFF: Time 15000, Note Name: G#3
Note OFF: Time 15840, Note Name: B2
Note ON: Time 15840, Note Name: D2, Velocity: 44
Note OFF: Time 15870, Note Name: D2
Note ON: Time 16080, Note Name: A2, Velocity: 39
Note ON: Time 16080, Note Name: F3, Velocity: 39
Note OFF: Time 16110, Note Name: F3
Note OFF: Time 16110, Note Name: A2
Note ON: Time 16320, Note Name: D2, Velocity: 44
Note OFF: Time 16440, Note Name: D2
Note ON: Time 16560, Note Name: F3, Velocity: 39
Note ON: Time 16560, Note Name: A2, Velocity: 39
Note OFF: Time 16590, Note Name: A2
Note OFF: Time 16590, Note Name: F3
Note ON: Time 16800, Note Name: D2, Velocity: 44
Note OFF: Time 16845, Note Name: D2
Note ON: Time 17040, Note Name: F3, Velocity: 44
Note ON: Time 17040, Note Name: A2, Velocity: 44
Note OFF: Time 17070, Note Name: A2
Note OFF: Time 17070, Note Name: F3
Note ON: Time 17280, Note Name: D2, Velocity: 44
Note OFF: Time 17310, Note Name: D2
Note ON: Time 17520, Note Name: F#3, Velocity: 39
Note ON: Time 17520, Note Name: A2, Velocity: 39
Note OFF: Time 17550, Note Name: A2
Note OFF: Time 17550, Note Name: F#3
Note ON: Time 17760, Note Name: D2, Velocity: 44
Note OFF: Time 17880, Note Name: D2
Note ON: Time 18000, Note Name: F#3, Velocity: 39
Note ON: Time 18000, Note Name: A2, Velocity: 39
Note OFF: Time 18030, Note Name: A2
Note OFF: Time 18030, Note Name: F#3
Note ON: Time 18240, Note Name: D2, Velocity: 44
Note OFF: Time 18360, Note Name: D2
Note ON: Time 18480, Note Name: F#3, Velocity: 39
Note ON: Time 18480, Note Name: A2, Velocity: 39
Note OFF: Time 18510, Note Name: A2
Note OFF: Time 18510, Note Name: F#3
Note ON: Time 18720, Note Name: D2, Velocity: 44
Note OFF: Time 18750, Note Name: D2
Note ON: Time 18960, Note Name: A2, Velocity: 39
Note ON: Time 18960, Note Name: F3, Velocity: 39
Note OFF: Time 18990, Note Name: F3
Note OFF: Time 18990, Note Name: A2
Note ON: Time 19200, Note Name: D2, Velocity: 45
Note OFF: Time 19320, Note Name: D2
Note ON: Time 19440, Note Name: F3, Velocity: 42
Note ON: Time 19440, Note Name: A2, Velocity: 42
Note OFF: Time 19470, Note Name: A2
Note OFF: Time 19470, Note Name: F3
Note ON: Time 19680, Note Name: D2, Velocity: 48
Note OFF: Time 19725, Note Name: D2
Note ON: Time 19920, Note Name: F3, Velocity: 49
Note ON: Time 19920, Note Name: A2, Velocity: 49
Note OFF: Time 19950, Note Name: A2
Note OFF: Time 19950, Note Name: F3
Note ON: Time 20160, Note Name: D2, Velocity: 50
Note OFF: Time 20190, Note Name: D2
Note ON: Time 20400, Note Name: D4, Velocity: 50
Note OFF: Time 20460, Note Name: D4
Note ON: Time 20520, Note Name: E4, Velocity: 48
Note OFF: Time 20580, Note Name: E4
Note ON: Time 20640, Note Name: F#4, Velocity: 50
Note OFF: Time 20700, Note Name: F#4
Note ON: Time 20760, Note Name: F#4, Velocity: 48
Note OFF: Time 20800, Note Name: F#4
Note ON: Time 20800, Note Name: G4, Velocity: 46
Note OFF: Time 20840, Note Name: G4
Note ON: Time 20840, Note Name: F#4, Velocity: 46
Note OFF: Time 20880, Note Name: F#4
Note ON: Time 20880, Note Name: E4, Velocity: 50
Note OFF: Time 21000, Note Name: E4
Note ON: Time 21000, Note Name: D4, Velocity: 48
Note OFF: Time 21120, Note Name: D4
Note ON: Time 21120, Note Name: C4, Velocity: 50
Note OFF: Time 21240, Note Name: C4
Note ON: Time 21240, Note Name: D4, Velocity: 46
Note OFF: Time 21360, Note Name: D4
Note ON: Time 21360, Note Name: E4, Velocity: 46
Note ON: Time 21600, Note Name: A3, Velocity: 45
Note ON: Time 21600, Note Name: C4, Velocity: 50
Note OFF: Time 21720, Note Name: C4
Note OFF: Time 21720, Note Name: A3
Note ON: Time 21720, Note Name: D4, Velocity: 46
Note OFF: Time 21840, Note Name: D4
Note OFF: Time 21840, Note Name: E4
Note ON: Time 21840, Note Name: G3, Velocity: 40
Note ON: Time 21840, Note Name: B3, Velocity: 40
Note ON: Time 21840, Note Name: E4, Velocity: 46
Note OFF: Time 22060, Note Name: E4
Note OFF: Time 22060, Note Name: B3
Note OFF: Time 22060, Note Name: G3
Note ON: Time 22080, Note Name: F#3, Velocity: 40
Note ON: Time 22080, Note Name: A3, Velocity: 44
Note OFF: Time 22200, Note Name: A3
Note ON: Time 22200, Note Name: B3, Velocity: 43
Note OFF: Time 22320, Note Name: B3
Note OFF: Time 22320, Note Name: F#3
Note ON: Time 22320, Note Name: F3, Velocity: 39
Note ON: Time 22320, Note Name: G#3, Velocity: 39
Note ON: Time 22320, Note Name: C4, Velocity: 44
Note OFF: Time 22560, Note Name: G#3
Note OFF: Time 22560, Note Name: F3
Note ON: Time 22560, Note Name: E3, Velocity: 39
Note ON: Time 22560, Note Name: G3, Velocity: 39
Note OFF: Time 22780, Note Name: C4
Note OFF: Time 22800, Note Name: G3
Note OFF: Time 22800, Note Name: E3
Note ON: Time 22800, Note Name: D#3, Velocity: 34
Note ON: Time 22800, Note Name: F#3, Velocity: 34
Note ON: Time 22800, Note Name: G#3, Velocity: 38
Note OFF: Time 23040, Note Name: F#3
Note OFF: Time 23040, Note Name: D#3
Note ON: Time 23040, Note Name: D3, Velocity: 33
Note ON: Time 23040, Note Name: F3, Velocity: 33
Note OFF: Time 23280, Note Name: F3
Note OFF: Time 23280, Note Name: D3
Note OFF: Time 23280, Note Name: G#3
Note ON: Time 23280, Note Name: E3, Velocity: 33
Note ON: Time 23280, Note Name: C#3, Velocity: 33
Note OFF: Time 23520, Note Name: C#3
Note ON: Time 23520, Note Name: C3, Velocity: 33
Note OFF: Time 23610, Note Name: C3
Note ON: Time 23760, Note Name: B2, Velocity: 32
Note OFF: Time 23850, Note Name: B2
Note ON: Time 24000, Note Name: A#2, Velocity: 31
Note ON: Time 24000, Note Name: D3, Velocity: 31
Note OFF: Time 24090, Note Name: D3
Note OFF: Time 24090, Note Name: A#2
Note ON: Time 24240, Note Name: E2, Velocity: 37
Note OFF: Time 24330, Note Name: E2
Note OFF: Time 24480, Note Name: E3
Note ON: Time 24480, Note Name: A1, Velocity: 34
Note OFF: Time 24700, Note Name: A1
Note ON: Time 24720, Note Name: A3, Velocity: 44
Note OFF: Time 24765, Note Name: A3
Note ON: Time 24840, Note Name: E3, Velocity: 38
Note OFF: Time 24885, Note Name: E3
Note ON: Time 24960, Note Name: E3, Velocity: 38
Note OFF: Time 24994, Note Name: E3
Note ON: Time 25080, Note Name: A3, Velocity: 38
Note OFF: Time 25125, Note Name: A3
Note ON: Time 25200, Note Name: A3, Velocity: 44
Note OFF: Time 25245, Note Name: A3
Note ON: Time 25320, Note Name: E3, Velocity: 44
Note OFF: Time 25365, Note Name: E3
Note ON: Time 25440, Note Name: E3, Velocity: 39
Note OFF: Time 25474, Note Name: E3
Note ON: Time 25560, Note Name: A2, Velocity: 42
Note OFF: Time 25605, Note Name: A2
Note ON: Time 25680, Note Name: E2, Velocity: 49
Note OFF: Time 25714, Note Name: E2
Note ON: Time 25920, Note Name: A1, Velocity: 68
Note OFF: Time 26150, Note Name: A1
Note ON: Time 26160, Note Name: A3, Velocity: 44
Note OFF: Time 26205, Note Name: A3
Note ON: Time 26280, Note Name: E3, Velocity: 38
Note OFF: Time 26325, Note Name: E3
Note ON: Time 26400, Note Name: E3, Velocity: 38
Note OFF: Time 26434, Note Name: E3
Note ON: Time 26520, Note Name: A3, Velocity: 38
Note OFF: Time 26565, Note Name: A3
Note ON: Time 26640, Note Name: A3, Velocity: 44
Note OFF: Time 26685, Note Name: A3
Note ON: Time 26760, Note Name: E3, Velocity: 44
Note OFF: Time 26805, Note Name: E3
Note ON: Time 26880, Note Name: E3, Velocity: 39
Note OFF: Time 26914, Note Name: E3
Note ON: Time 27000, Note Name: A2, Velocity: 46
Note OFF: Time 27045, Note Name: A2
Note ON: Time 27120, Note Name: G2, Velocity: 51
Note OFF: Time 27154, Note Name: G2
Note ON: Time 27360, Note Name: C2, Velocity: 69
Note OFF: Time 27590, Note Name: C2
Note ON: Time 27600, Note Name: C4, Velocity: 49
Note OFF: Time 27645, Note Name: C4
Note ON: Time 27720, Note Name: G3, Velocity: 42
Note OFF: Time 27765, Note Name: G3
Note ON: Time 27840, Note Name: G3, Velocity: 42
Note OFF: Time 27874, Note Name: G3
Note ON: Time 27960, Note Name: C4, Velocity: 42
Note OFF: Time 28005, Note Name: C4
Note ON: Time 28080, Note Name: C4, Velocity: 49
Note OFF: Time 28125, Note Name: C4
Note ON: Time 28200, Note Name: G3, Velocity: 49
Note OFF: Time 28245, Note Name: G3
Note ON: Time 28320, Note Name: G3, Velocity: 43
Note OFF: Time 28354, Note Name: G3
Note ON: Time 28440, Note Name: C3, Velocity: 51
Note OFF: Time 28485, Note Name: C3
Note ON: Time 28560, Note Name: G2, Velocity: 56
Note OFF: Time 28594, Note Name: G2
Note ON: Time 28800, Note Name: C2, Velocity: 75
Note OFF: Time 29030, Note Name: C2
Note ON: Time 29040, Note Name: C4, Velocity: 56
Note OFF: Time 29085, Note Name: C4
Note ON: Time 29160, Note Name: G3, Velocity: 48
Note OFF: Time 29205, Note Name: G3
Note ON: Time 29280, Note Name: G3, Velocity: 48
Note OFF: Time 29314, Note Name: G3
Note ON: Time 29400, Note Name: C4, Velocity: 48
Note OFF: Time 29445, Note Name: C4
Note ON: Time 29520, Note Name: C4, Velocity: 56
Note OFF: Time 29565, Note Name: C4
Note ON: Time 29640, Note Name: G3, Velocity: 56
Note OFF: Time 29685, Note Name: G3
Note ON: Time 29760, Note Name: G3, Velocity: 49
Note OFF: Time 29794, Note Name: G3
Note ON: Time 29880, Note Name: C4, Velocity: 58
Note OFF: Time 29925, Note Name: C4
Note ON: Time 30000, Note Name: A#3, Velocity: 65
Note OFF: Time 30240, Note Name: A#3
Note ON: Time 30240, Note Name: G4, Velocity: 57
Note ON: Time 30240, Note Name: D#4, Velocity: 57
Note OFF: Time 30600, Note Name: D#4
Note OFF: Time 30600, Note Name: G4
Note ON: Time 30600, Note Name: A#3, Velocity: 52
Note ON: Time 30600, Note Name: F4, Velocity: 52
Note OFF: Time 30720, Note Name: F4
Note OFF: Time 30720, Note Name: A#3
Note ON: Time 30720, Note Name: D#4, Velocity: 57
Note ON: Time 30720, Note Name: G4, Velocity: 57
Note OFF: Time 31080, Note Name: G4
Note OFF: Time 31080, Note Name: D#4
Note ON: Time 31080, Note Name: F4, Velocity: 52
Note ON: Time 31080, Note Name: A4, Velocity: 52
Note OFF: Time 31200, Note Name: A4
Note OFF: Time 31200, Note Name: F4
Note ON: Time 31200, Note Name: D#4, Velocity: 58
Note ON: Time 31200, Note Name: G4, Velocity: 58
Note OFF: Time 31560, Note Name: G4
Note OFF: Time 31560, Note Name: D#4
Note ON: Time 31560, Note Name: F4, Velocity: 54
Note ON: Time 31560, Note Name: A#3, Velocity: 54
Note OFF: Time 31680, Note Name: A#3
Note OFF: Time 31680, Note Name: F4
Note ON: Time 31680, Note Name: A3, Velocity: 57
Note ON: Time 31680, Note Name: G4, Velocity: 57
Note OFF: Time 32160, Note Name: G4
Note OFF: Time 32160, Note Name: A3
Note ON: Time 32160, Note Name: D3, Velocity: 52
Note ON: Time 32160, Note Name: A3, Velocity: 52
Note OFF: Time 33100, Note Name: A3
Note OFF: Time 33100, Note Name: D3
Note ON: Time 33120, Note Name: F4, Velocity: 51
Note ON: Time 33120, Note Name: D4, Velocity: 51
Note OFF: Time 33480, Note Name: D4
Note OFF: Time 33480, Note Name: F4
Note ON: Time 33480, Note Name: A3, Velocity: 46
Note ON: Time 33480, Note Name: E4, Velocity: 46
Note OFF: Time 33600, Note Name: E4
Note OFF: Time 33600, Note Name: A3
Note ON: Time 33600, Note Name: D4, Velocity: 51
Note ON: Time 33600, Note Name: F4, Velocity: 51
Note OFF: Time 33960, Note Name: F4
Note OFF: Time 33960, Note Name: D4
Note ON: Time 33960, Note Name: E4, Velocity: 46
Note ON: Time 33960, Note Name: G4, Velocity: 46
Note OFF: Time 34080, Note Name: G4
Note OFF: Time 34080, Note Name: E4
Note ON: Time 34080, Note Name: D4, Velocity: 52
Note ON: Time 34080, Note Name: F4, Velocity: 52
Note OFF: Time 34440, Note Name: F4
Note OFF: Time 34440, Note Name: D4
Note ON: Time 34440, Note Name: E4, Velocity: 48
Note ON: Time 34440, Note Name: A3, Velocity: 48
Note OFF: Time 34560, Note Name: A3
Note OFF: Time 34560, Note Name: E4
Note ON: Time 34560, Note Name: G3, Velocity: 51
Note ON: Time 34560, Note Name: F4, Velocity: 51
Note OFF: Time 35040, Note Name: F4
Note OFF: Time 35040, Note Name: G3
Note ON: Time 35040, Note Name: C3, Velocity: 46
Note ON: Time 35040, Note Name: G3, Velocity: 46
Note OFF: Time 36000, Note Name: C3
Note ON: Time 36000, Note Name: F2, Velocity: 46
Note OFF: Time 36480, Note Name: G3
Note ON: Time 36480, Note Name: F3, Velocity: 38
Note ON: Time 36960, Note Name: D#3, Velocity: 38
Note OFF: Time 36980, Note Name: F3
Note ON: Time 37440, Note Name: D3, Velocity: 38
Note OFF: Time 37460, Note Name: D#3
Note OFF: Time 38160, Note Name: D3
Note ON: Time 38160, Note Name: F3, Velocity: 39
Note ON: Time 38400, Note Name: G3, Velocity: 40
Note OFF: Time 38420, Note Name: F3
Note ON: Time 38640, Note Name: A#3, Velocity: 38
Note OFF: Time 38660, Note Name: G3
Note OFF: Time 38880, Note Name: A#3
Note OFF: Time 38880, Note Name: F2
Note ON: Time 38880, Note Name: F2, Velocity: 46
Note ON: Time 39360, Note Name: F3, Velocity: 38
Note ON: Time 39840, Note Name: D#3, Velocity: 38
Note OFF: Time 39860, Note Name: F3
Note ON: Time 40320, Note Name: D3, Velocity: 38
Note OFF: Time 40340, Note Name: D#3
Note OFF: Time 41040, Note Name: D3
Note ON: Time 41040, Note Name: F3, Velocity: 39
Note ON: Time 41280, Note Name: G3, Velocity: 40
Note OFF: Time 41300, Note Name: F3
Note ON: Time 41520, Note Name: A#3, Velocity: 39
Note OFF: Time 41540, Note Name: G3
Note OFF: Time 41760, Note Name: A#3
Note OFF: Time 41760, Note Name: F2
Note ON: Time 41760, Note Name: G2, Velocity: 50
Note ON: Time 42000, Note Name: A3, Velocity: 39
Note ON: Time 42000, Note Name: C4, Velocity: 39
Note ON: Time 42000, Note Name: F4, Velocity: 39
Note OFF: Time 42240, Note Name: F4
Note OFF: Time 42240, Note Name: C4
Note OFF: Time 42240, Note Name: A3
Note ON: Time 42240, Note Name: A#3, Velocity: 39
Note ON: Time 42240, Note Name: D4, Velocity: 39
Note ON: Time 42240, Note Name: G3, Velocity: 39
Note OFF: Time 42480, Note Name: G2
Note ON: Time 42480, Note Name: F2, Velocity: 48
Note OFF: Time 42720, Note Name: F2
Note OFF: Time 42720, Note Name: G3
Note OFF: Time 42720, Note Name: D4
Note OFF: Time 42720, Note Name: A#3
Note ON: Time 42720, Note Name: E2, Velocity: 50
Note OFF: Time 42960, Note Name: E2
Note ON: Time 42960, Note Name: D2, Velocity: 52
Note OFF: Time 43200, Note Name: D2
Note ON: Time 43200, Note Name: C2, Velocity: 57
Note ON: Time 43440, Note Name: A4, Velocity: 40
Note ON: Time 43440, Note Name: E4, Velocity: 40
Note ON: Time 43440, Note Name: C4, Velocity: 40
Note OFF: Time 43680, Note Name: C4
Note OFF: Time 43680, Note Name: E4
Note OFF: Time 43680, Note Name: A4
Note ON: Time 43680, Note Name: C4, Velocity: 44
Note ON: Time 43680, Note Name: E4, Velocity: 44
Note ON: Time 43680, Note Name: A4, Velocity: 44
Note OFF: Time 43920, Note Name: A4
Note OFF: Time 43920, Note Name: E4
Note OFF: Time 43920, Note Name: C4
Note ON: Time 43920, Note Name: E4, Velocity: 40
Note ON: Time 43920, Note Name: A3, Velocity: 40
Note ON: Time 43920, Note Name: C4, Velocity: 40
Note OFF: Time 44160, Note Name: C4
Note OFF: Time 44160, Note Name: A3
Note OFF: Time 44160, Note Name: E4
Note ON: Time 44160, Note Name: A3, Velocity: 40
Note ON: Time 44160, Note Name: C4, Velocity: 40
Note ON: Time 44160, Note Name: E4, Velocity: 40
Note OFF: Time 44640, Note Name: E4
Note OFF: Time 44640, Note Name: C2
Note OFF: Time 44640, Note Name: A3
Note OFF: Time 44640, Note Name: C4
Note ON: Time 44640, Note Name: G2, Velocity: 52
Note ON: Time 44880, Note Name: A3, Velocity: 40
Note ON: Time 44880, Note Name: C4, Velocity: 40
Note ON: Time 44880, Note Name: F4, Velocity: 40
Note OFF: Time 45120, Note Name: F4
Note OFF: Time 45120, Note Name: C4
Note OFF: Time 45120, Note Name: A3
Note ON: Time 45120, Note Name: A#3, Velocity: 40
Note ON: Time 45120, Note Name: D4, Velocity: 40
Note ON: Time 45120, Note Name: G3, Velocity: 40
Note OFF: Time 45360, Note Name: G2
Note ON: Time 45360, Note Name: F2, Velocity: 50
Note OFF: Time 45600, Note Name: F2
Note OFF: Time 45600, Note Name: G3
Note OFF: Time 45600, Note Name: D4
Note OFF: Time 45600, Note Name: A#3
Note ON: Time 45600, Note Name: E2, Velocity: 52
Note OFF: Time 45840, Note Name: E2
Note ON: Time 45840, Note Name: D2, Velocity: 55
Note OFF: Time 46080, Note Name: D2
Note ON: Time 46080, Note Name: C2, Velocity: 60
Note ON: Time 46320, Note Name: A4, Velocity: 43
Note ON: Time 46320, Note Name: E4, Velocity: 43
Note ON: Time 46320, Note Name: C4, Velocity: 43
Note OFF: Time 46560, Note Name: C4
Note OFF: Time 46560, Note Name: E4
Note OFF: Time 46560, Note Name: A4
Note ON: Time 46560, Note Name: C4, Velocity: 46
Note ON: Time 46560, Note Name: E4, Velocity: 46
Note ON: Time 46560, Note Name: A4, Velocity: 46
Note OFF: Time 46800, Note Name: A4
Note OFF: Time 46800, Note Name: E4
Note OFF: Time 46800, Note Name: C4
Note ON: Time 46800, Note Name: E4, Velocity: 43
Note ON: Time 46800, Note Name: A3, Velocity: 43
Note ON: Time 46800, Note Name: C4, Velocity: 43
Note OFF: Time 47040, Note Name: C4
Note OFF: Time 47040, Note Name: A3
Note OFF: Time 47040, Note Name: E4
Note ON: Time 47040, Note Name: A3, Velocity: 45
Note ON: Time 47040, Note Name: C4, Velocity: 45
Note ON: Time 47040, Note Name: E4, Velocity: 45
Note OFF: Time 47280, Note Name: E4
Note OFF: Time 47280, Note Name: C4
Note OFF: Time 47280, Note Name: A3
Note ON: Time 47280, Note Name: A#4, Velocity: 48
Note ON: Time 47280, Note Name: D4, Velocity: 48
Note ON: Time 47280, Note Name: F4, Velocity: 48
Note OFF: Time 47520, Note Name: F4
Note OFF: Time 47520, Note Name: D4
Note OFF: Time 47520, Note Name: A#4
Note ON: Time 47520, Note Name: D4, Velocity: 52
Note ON: Time 47520, Note Name: F4, Velocity: 52
Note ON: Time 47520, Note Name: A#4, Velocity: 52
Note OFF: Time 47760, Note Name: A#4
Note OFF: Time 47760, Note Name: F4
Note OFF: Time 47760, Note Name: D4
Note ON: Time 47760, Note Name: E4, Velocity: 48
Note ON: Time 47760, Note Name: G4, Velocity: 48
Note ON: Time 47760, Note Name: C5, Velocity: 48
Note OFF: Time 48000, Note Name: C5
Note OFF: Time 48000, Note Name: G4
Note OFF: Time 48000, Note Name: E4
Note ON: Time 48000, Note Name: E4, Velocity: 52
Note ON: Time 48000, Note Name: G4, Velocity: 52
Note ON: Time 48000, Note Name: C5, Velocity: 52
Note OFF: Time 48240, Note Name: C5
Note OFF: Time 48240, Note Name: G4
Note OFF: Time 48240, Note Name: E4
Note ON: Time 48240, Note Name: C4, Velocity: 48
Note ON: Time 48240, Note Name: E4, Velocity: 48
Note ON: Time 48240, Note Name: A4, Velocity: 48
Note OFF: Time 48480, Note Name: A4
Note OFF: Time 48480, Note Name: E4
Note OFF: Time 48480, Note Name: C4
Note ON: Time 48480, Note Name: C4, Velocity: 52
Note ON: Time 48480, Note Name: E4, Velocity: 52
Note ON: Time 48480, Note Name: A4, Velocity: 52
Note OFF: Time 48720, Note Name: A4
Note OFF: Time 48720, Note Name: E4
Note OFF: Time 48720, Note Name: C4
Note ON: Time 48720, Note Name: E4, Velocity: 56
Note ON: Time 48720, Note Name: A4, Velocity: 56
Note ON: Time 48720, Note Name: C5, Velocity: 56
Note OFF: Time 48960, Note Name: C5
Note OFF: Time 48960, Note Name: C2
Note OFF: Time 48960, Note Name: E4
Note OFF: Time 48960, Note Name: A4
Note ON: Time 48960, Note Name: A#1, Velocity: 66
Note ON: Time 48960, Note Name: F2, Velocity: 66
Note ON: Time 49200, Note Name: F4, Velocity: 71
Note OFF: Time 49440, Note Name: F4
Note ON: Time 49440, Note Name: G3, Velocity: 44
Note ON: Time 49440, Note Name: A#3, Velocity: 44
Note ON: Time 49440, Note Name: D4, Velocity: 74
Note OFF: Time 49920, Note Name: D4
Note ON: Time 49920, Note Name: C4, Velocity: 68
Note OFF: Time 50160, Note Name: C4
Note ON: Time 50160, Note Name: D4, Velocity: 63
Note OFF: Time 50400, Note Name: D4
Note OFF: Time 50400, Note Name: G3
Note OFF: Time 50400, Note Name: A#1
Note OFF: Time 50400, Note Name: F2
Note OFF: Time 50400, Note Name: A#3
Note ON: Time 50400, Note Name: A#3, Velocity: 44
Note ON: Time 50400, Note Name: D4, Velocity: 44
Note ON: Time 50400, Note Name: G4, Velocity: 67
Note OFF: Time 50640, Note Name: G4
Note ON: Time 50640, Note Name: A4, Velocity: 58
Note OFF: Time 50880, Note Name: A4
Note ON: Time 50880, Note Name: A4, Velocity: 60
Note OFF: Time 51120, Note Name: A4
Note ON: Time 51120, Note Name: E4, Velocity: 58
Note OFF: Time 51360, Note Name: E4
Note ON: Time 51360, Note Name: E4, Velocity: 57
Note OFF: Time 51840, Note Name: E4
Note OFF: Time 51840, Note Name: D4
Note OFF: Time 51840, Note Name: A#3
Note ON: Time 51840, Note Name: A#1, Velocity: 52
Note ON: Time 51840, Note Name: F2, Velocity: 52
Note ON: Time 52080, Note Name: F4, Velocity: 49
Note OFF: Time 52320, Note Name: F4
Note ON: Time 52320, Note Name: F3, Velocity: 29
Note ON: Time 52320, Note Name: A#3, Velocity: 29
Note ON: Time 52320, Note Name: D4, Velocity: 49
Note OFF: Time 52800, Note Name: D4
Note ON: Time 52800, Note Name: C4, Velocity: 47
Note OFF: Time 53040, Note Name: C4
Note ON: Time 53040, Note Name: D4, Velocity: 44
Note OFF: Time 53260, Note Name: D4
Note OFF: Time 53280, Note Name: F3
Note OFF: Time 53280, Note Name: A#1
Note OFF: Time 53280, Note Name: F2
Note OFF: Time 53280, Note Name: A#3
Note ON: Time 53280, Note Name: E1, Velocity: 40
Note ON: Time 53280, Note Name: E2, Velocity: 40
Note OFF: Time 53760, Note Name: E2
Note OFF: Time 53760, Note Name: E1
Note ON: Time 53760, Note Name: F1, Velocity: 42
Note ON: Time 53760, Note Name: F2, Velocity: 42
Note OFF: Time 54240, Note Name: F2
Note OFF: Time 54240, Note Name: F1
Note ON: Time 54240, Note Name: G1, Velocity: 45
Note ON: Time 54240, Note Name: G2, Velocity: 45
Note OFF: Time 54720, Note Name: G2
Note OFF: Time 54720, Note Name: G1
Note ON: Time 54720, Note Name: A1, Velocity: 47
Note ON: Time 54720, Note Name: A2, Velocity: 47
Note OFF: Time 55200, Note Name: A2
Note OFF: Time 55200, Note Name: A1
Note ON: Time 55200, Note Name: B1, Velocity: 42
Note ON: Time 55200, Note Name: B2, Velocity: 42
Note OFF: Time 55440, Note Name: B2
Note OFF: Time 55440, Note Name: B1
Note ON: Time 55440, Note Name: A1, Velocity: 42
Note ON: Time 55440, Note Name: A2, Velocity: 42
Note OFF: Time 55680, Note Name: A2
Note OFF: Time 55680, Note Name: A1
Note ON: Time 55680, Note Name: G1, Velocity: 40
Note ON: Time 55680, Note Name: G2, Velocity: 40
Note OFF: Time 55920, Note Name: G2
Note OFF: Time 55920, Note Name: G1
Note ON: Time 55920, Note Name: F1, Velocity: 39
Note ON: Time 55920, Note Name: F2, Velocity: 39
Note OFF: Time 56160, Note Name: F2
Note OFF: Time 56160, Note Name: F1
Note ON: Time 56160, Note Name: E1, Velocity: 40
Note ON: Time 56160, Note Name: E2, Velocity: 40
Note OFF: Time 56640, Note Name: E2
Note OFF: Time 56640, Note Name: E1
Note ON: Time 56640, Note Name: F1, Velocity: 42
Note ON: Time 56640, Note Name: F2, Velocity: 42
Note OFF: Time 57120, Note Name: F2
Note OFF: Time 57120, Note Name: F1
Note ON: Time 57120, Note Name: G1, Velocity: 42
Note ON: Time 57120, Note Name: G2, Velocity: 42
Note OFF: Time 57600, Note Name: G2
Note OFF: Time 57600, Note Name: G1
Note ON: Time 57600, Note Name: A1, Velocity: 36
Note ON: Time 57600, Note Name: A2, Velocity: 36
Note OFF: Time 58080, Note Name: A2
Note OFF: Time 58080, Note Name: A1
Note ON: Time 58080, Note Name: B2, Velocity: 32
Note ON: Time 58080, Note Name: B1, Velocity: 32
Note OFF: Time 58560, Note Name: B1
Note OFF: Time 58560, Note Name: B2
Note ON: Time 58560, Note Name: C2, Velocity: 29
Note ON: Time 58560, Note Name: C3, Velocity: 29
Note ON: Time 58980, Note Name: D2, Velocity: 29
Note ON: Time 59010, Note Name: A2, Velocity: 33
Note OFF: Time 59040, Note Name: C3
Note OFF: Time 59040, Note Name: C2
Note ON: Time 59040, Note Name: F#3, Velocity: 37
Note OFF: Time 59070, Note Name: F#3
Note OFF: Time 59070, Note Name: D2
Note OFF: Time 59070, Note Name: A2
Note ON: Time 59940, Note Name: D2, Velocity: 27
Note ON: Time 59970, Note Name: A2, Velocity: 32
Note ON: Time 60000, Note Name: F#3, Velocity: 35
Note OFF: Time 60120, Note Name: F#3
Note OFF: Time 60120, Note Name: A2
Note OFF: Time 60120, Note Name: D2
Note ON: Time 60420, Note Name: D2, Velocity: 37
Note ON: Time 60450, Note Name: A2, Velocity: 37
Note ON: Time 60480, Note Name: F#3, Velocity: 37
Note OFF: Time 60510, Note Name: F#3
Note OFF: Time 60510, Note Name: A2
Note OFF: Time 60510, Note Name: D2
Note ON: Time 60960, Note Name: A4, Velocity: 39
Note OFF: Time 60990, Note Name: A4
Note ON: Time 61440, Note Name: D4, Velocity: 39
Note OFF: Time 61470, Note Name: D4
Note ON: Time 61920, Note Name: C4, Velocity: 33
Note ON: Time 61920, Note Name: D4, Velocity: 33
Note ON: Time 61920, Note Name: F4, Velocity: 37
Note OFF: Time 63360, Note Name: F4
Note ON: Time 63360, Note Name: F#4, Velocity: 37
Note OFF: Time 63840, Note Name: F#4
Note ON: Time 63840, Note Name: A4, Velocity: 37
Note OFF: Time 64320, Note Name: A4
Note OFF: Time 64320, Note Name: D4
Note OFF: Time 64320, Note Name: C4
Note ON: Time 64320, Note Name: D3, Velocity: 37
Note OFF: Time 64440, Note Name: D3
Note ON: Time 64740, Note Name: G3, Velocity: 31
Note ON: Time 64770, Note Name: D4, Velocity: 35
Note ON: Time 64800, Note Name: B4, Velocity: 37
Note OFF: Time 65010, Note Name: D4
Note OFF: Time 65040, Note Name: B4
Note OFF: Time 65040, Note Name: G3
Note ON: Time 65760, Note Name: C3, Velocity: 32
Note ON: Time 65760, Note Name: E4, Velocity: 32
Note ON: Time 65760, Note Name: G3, Velocity: 32
Note ON: Time 66180, Note Name: G2, Velocity: 37
Note ON: Time 66210, Note Name: D3, Velocity: 37
Note OFF: Time 66240, Note Name: G3
Note OFF: Time 66240, Note Name: C3
Note OFF: Time 66240, Note Name: E4
Note ON: Time 66240, Note Name: B3, Velocity: 37
Note OFF: Time 66480, Note Name: B3
Note OFF: Time 66480, Note Name: G2
Note OFF: Time 66480, Note Name: D3
Note ON: Time 67200, Note Name: A2, Velocity: 32
Note ON: Time 67200, Note Name: C3, Velocity: 32
Note OFF: Time 67440, Note Name: A2
Note ON: Time 67440, Note Name: F#2, Velocity: 32
Note OFF: Time 67680, Note Name: F#2
Note ON: Time 67680, Note Name: E2, Velocity: 32
Note OFF: Time 68640, Note Name: C3
Note ON: Time 68640, Note Name: B2, Velocity: 32
Note OFF: Time 69120, Note Name: B2
Note OFF: Time 69120, Note Name: E2
Note ON: Time 69120, Note Name: A1, Velocity: 39
Note ON: Time 69120, Note Name: A2, Velocity: 39
Note OFF: Time 69360, Note Name: A2
Note OFF: Time 69360, Note Name: A1
Note ON: Time 69600, Note Name: A3, Velocity: 44
Note OFF: Time 69675, Note Name: A3
Note ON: Time 69840, Note Name: E3, Velocity: 41
Note OFF: Time 69915, Note Name: E3
Note ON: Time 70080, Note Name: A2, Velocity: 51
Note OFF: Time 70170, Note Name: A2
Note ON: Time 70320, Note Name: G2, Velocity: 50
Note OFF: Time 70410, Note Name: G2
Note ON: Time 70560, Note Name: F1, Velocity: 77
Note ON: Time 70560, Note Name: F2, Velocity: 77
Note ON: Time 71160, Note Name: G4, Velocity: 69
Note OFF: Time 71220, Note Name: G4
Note ON: Time 71220, Note Name: F4, Velocity: 69
Note OFF: Time 71280, Note Name: F4
Note ON: Time 71280, Note Name: E4, Velocity: 69
Note OFF: Time 71340, Note Name: E4
Note ON: Time 71340, Note Name: D4, Velocity: 69
Note OFF: Time 71400, Note Name: D4
Note ON: Time 71400, Note Name: C4, Velocity: 69
Note OFF: Time 71460, Note Name: C4
Note ON: Time 71460, Note Name: B3, Velocity: 69
Note OFF: Time 71520, Note Name: B3
Note ON: Time 71520, Note Name: A3, Velocity: 77
Note OFF: Time 71760, Note Name: A3
Note ON: Time 71760, Note Name: G3, Velocity: 68
Note OFF: Time 72000, Note Name: G3
Note OFF: Time 72000, Note Name: F2
Note OFF: Time 72000, Note Name: F1
Note ON: Time 72000, Note Name: A3, Velocity: 71
Note OFF: Time 72240, Note Name: A3
Note ON: Time 72240, Note Name: B3, Velocity: 66
Note OFF: Time 72480, Note Name: B3
Note ON: Time 72480, Note Name: C4, Velocity: 63
Note OFF: Time 72720, Note Name: C4
Note ON: Time 72720, Note Name: D4, Velocity: 62
Note OFF: Time 72960, Note Name: D4
Note ON: Time 72960, Note Name: B3, Velocity: 55
Note OFF: Time 73200, Note Name: B3
Note ON: Time 73200, Note Name: A3, Velocity: 53
Note OFF: Time 73320, Note Name: A3
Note ON: Time 73320, Note Name: G3, Velocity: 50
Note OFF: Time 73440, Note Name: G3
Note ON: Time 73440, Note Name: F1, Velocity: 77
Note ON: Time 73440, Note Name: F2, Velocity: 77
Note ON: Time 74040, Note Name: G4, Velocity: 69
Note OFF: Time 74100, Note Name: G4
Note ON: Time 74100, Note Name: F4, Velocity: 69
Note OFF: Time 74160, Note Name: F4
Note ON: Time 74160, Note Name: E4, Velocity: 69
Note OFF: Time 74220, Note Name: E4
Note ON: Time 74220, Note Name: D4, Velocity: 69
Note OFF: Time 74280, Note Name: D4
Note ON: Time 74280, Note Name: C4, Velocity: 69
Note OFF: Time 74340, Note Name: C4
Note ON: Time 74340, Note Name: B3, Velocity: 69
Note OFF: Time 74400, Note Name: B3
Note ON: Time 74400, Note Name: A3, Velocity: 77
Note OFF: Time 74640, Note Name: A3
Note ON: Time 74640, Note Name: G3, Velocity: 68
Note OFF: Time 74880, Note Name: G3
Note OFF: Time 74880, Note Name: F2
Note OFF: Time 74880, Note Name: F1
Note ON: Time 74880, Note Name: A3, Velocity: 71
Note OFF: Time 75120, Note Name: A3
Note ON: Time 75120, Note Name: B3, Velocity: 66
Note OFF: Time 75360, Note Name: B3
Note ON: Time 75360, Note Name: C4, Velocity: 63
Note OFF: Time 75600, Note Name: C4
Note ON: Time 75600, Note Name: D4, Velocity: 62
Note OFF: Time 75840, Note Name: D4
Note ON: Time 75840, Note Name: A3, Velocity: 55
Note OFF: Time 76080, Note Name: A3
Note ON: Time 76080, Note Name: G3, Velocity: 53
Note OFF: Time 76200, Note Name: G3
Note ON: Time 76200, Note Name: F3, Velocity: 50
Note OFF: Time 76320, Note Name: F3
Note ON: Time 76320, Note Name: D#1, Velocity: 81
Note ON: Time 76320, Note Name: D#2, Velocity: 81
Note ON: Time 76920, Note Name: F4, Velocity: 69
Note OFF: Time 76980, Note Name: F4
Note ON: Time 76980, Note Name: D#4, Velocity: 69
Note OFF: Time 77040, Note Name: D#4
Note ON: Time 77040, Note Name: D4, Velocity: 69
Note OFF: Time 77100, Note Name: D4
Note ON: Time 77100, Note Name: C4, Velocity: 69
Note OFF: Time 77160, Note Name: C4
Note ON: Time 77160, Note Name: A#3, Velocity: 69
Note OFF: Time 77220, Note Name: A#3
Note ON: Time 77220, Note Name: A3, Velocity: 69
Note OFF: Time 77280, Note Name: A3
Note ON: Time 77280, Note Name: G3, Velocity: 77
Note OFF: Time 77520, Note Name: G3
Note ON: Time 77520, Note Name: F3, Velocity: 68
Note OFF: Time 77760, Note Name: F3
Note OFF: Time 77760, Note Name: D#2
Note OFF: Time 77760, Note Name: D#1
Note ON: Time 77760, Note Name: G3, Velocity: 71
Note OFF: Time 78000, Note Name: G3
Note ON: Time 78000, Note Name: A3, Velocity: 66
Note OFF: Time 78240, Note Name: A3
Note ON: Time 78240, Note Name: A#3, Velocity: 63
Note OFF: Time 78480, Note Name: A#3
Note ON: Time 78480, Note Name: C4, Velocity: 62
Note OFF: Time 78720, Note Name: C4
Note ON: Time 78720, Note Name: A3, Velocity: 55
Note OFF: Time 78960, Note Name: A3
Note ON: Time 78960, Note Name: G3, Velocity: 53
Note OFF: Time 79080, Note Name: G3
Note ON: Time 79080, Note Name: F3, Velocity: 50
Note OFF: Time 79200, Note Name: F3
Note ON: Time 79200, Note Name: D#1, Velocity: 81
Note ON: Time 79200, Note Name: D#2, Velocity: 81
Note ON: Time 79800, Note Name: F4, Velocity: 69
Note OFF: Time 79860, Note Name: F4
Note ON: Time 79860, Note Name: D#4, Velocity: 69
Note OFF: Time 79920, Note Name: D#4
Note ON: Time 79920, Note Name: D4, Velocity: 69
Note OFF: Time 79980, Note Name: D4
Note ON: Time 79980, Note Name: C4, Velocity: 69
Note OFF: Time 80040, Note Name: C4
Note ON: Time 80040, Note Name: A#3, Velocity: 69
Note OFF: Time 80100, Note Name: A#3
Note ON: Time 80100, Note Name: A3, Velocity: 69
Note OFF: Time 80160, Note Name: A3
Note ON: Time 80160, Note Name: G3, Velocity: 77
Note OFF: Time 80400, Note Name: G3
Note ON: Time 80400, Note Name: F3, Velocity: 68
Note OFF: Time 80640, Note Name: F3
Note OFF: Time 80640, Note Name: D#2
Note OFF: Time 80640, Note Name: D#1
Note ON: Time 80640, Note Name: G3, Velocity: 71
Note OFF: Time 80880, Note Name: G3
Note ON: Time 80880, Note Name: A3, Velocity: 66
Note OFF: Time 81120, Note Name: A3
Note ON: Time 81120, Note Name: A#3, Velocity: 63
Note OFF: Time 81360, Note Name: A#3
Note ON: Time 81360, Note Name: C4, Velocity: 62
Note OFF: Time 81600, Note Name: C4
Note ON: Time 81600, Note Name: A3, Velocity: 55
Note OFF: Time 81840, Note Name: A3
Note ON: Time 81840, Note Name: A#3, Velocity: 53
Note OFF: Time 81960, Note Name: A#3
Note ON: Time 81960, Note Name: C4, Velocity: 50
Note OFF: Time 82080, Note Name: C4
Note ON: Time 82080, Note Name: D3, Velocity: 46
Note ON: Time 82080, Note Name: A3, Velocity: 46
Note OFF: Time 82440, Note Name: A3
Note OFF: Time 82440, Note Name: D3
Note ON: Time 82440, Note Name: A2, Velocity: 41
Note OFF: Time 82530, Note Name: A2
Note ON: Time 82560, Note Name: D3, Velocity: 46
Note ON: Time 82560, Note Name: A3, Velocity: 46
Note OFF: Time 82920, Note Name: A3
Note OFF: Time 82920, Note Name: D3
Note ON: Time 82920, Note Name: A2, Velocity: 42
Note OFF: Time 83040, Note Name: A2
Note ON: Time 83040, Note Name: D3, Velocity: 45
Note ON: Time 83040, Note Name: A3, Velocity: 45
Note OFF: Time 83280, Note Name: A3
Note OFF: Time 83280, Note Name: D3
Note ON: Time 83280, Note Name: F#2, Velocity: 49
Note OFF: Time 83520, Note Name: F#2
Note ON: Time 83520, Note Name: G2, Velocity: 52
Note OFF: Time 83760, Note Name: G2
Note ON: Time 83760, Note Name: A2, Velocity: 45
Note OFF: Time 84000, Note Name: A2
Note ON: Time 84000, Note Name: A#2, Velocity: 42
Note OFF: Time 84480, Note Name: A#2
Note ON: Time 84480, Note Name: A2, Velocity: 43
Note OFF: Time 84960, Note Name: A2
Note ON: Time 84960, Note Name: D3, Velocity: 45
Note OFF: Time 85860, Note Name: D3
Note ON: Time 85860, Note Name: G2, Velocity: 36
Note ON: Time 85890, Note Name: D3, Velocity: 39
Note ON: Time 85920, Note Name: B3, Velocity: 44
Note OFF: Time 86340, Note Name: B3
Note OFF: Time 86340, Note Name: D3
Note OFF: Time 86340, Note Name: G2
Note ON: Time 86340, Note Name: E2, Velocity: 40
Note ON: Time 86370, Note Name: G3, Velocity: 44
Note ON: Time 86400, Note Name: B2, Velocity: 48
Note OFF: Time 87360, Note Name: B2
Note OFF: Time 87360, Note Name: G3
Note OFF: Time 87360, Note Name: E2
Note ON: Time 87360, Note Name: A2, Velocity: 40
Note OFF: Time 87840, Note Name: A2
Note ON: Time 87840, Note Name: D3, Velocity: 46
Note ON: Time 87840, Note Name: A3, Velocity: 46
Note OFF: Time 88200, Note Name: A3
Note OFF: Time 88200, Note Name: D3
Note ON: Time 88200, Note Name: A2, Velocity: 41
Note OFF: Time 88290, Note Name: A2
Note ON: Time 88320, Note Name: D3, Velocity: 46
Note ON: Time 88320, Note Name: A3, Velocity: 46
Note OFF: Time 88680, Note Name: A3
Note OFF: Time 88680, Note Name: D3
Note ON: Time 88680, Note Name: A2, Velocity: 42
Note OFF: Time 88800, Note Name: A2
Note ON: Time 88800, Note Name: D3, Velocity: 45
Note ON: Time 88800, Note Name: A3, Velocity: 45
Note OFF: Time 89040, Note Name: A3
Note OFF: Time 89040, Note Name: D3
Note ON: Time 89040, Note Name: F#2, Velocity: 49
Note OFF: Time 89280, Note Name: F#2
Note ON: Time 89280, Note Name: G2, Velocity: 52
Note OFF: Time 89520, Note Name: G2
Note ON: Time 89520, Note Name: A2, Velocity: 45
Note OFF: Time 89760, Note Name: A2
Note ON: Time 89760, Note Name: B2, Velocity: 45
Note OFF: Time 89970, Note Name: B2
Note ON: Time 90000, Note Name: C#3, Velocity: 48
Note OFF: Time 90240, Note Name: C#3
Note ON: Time 90240, Note Name: D3, Velocity: 51
Note OFF: Time 90480, Note Name: D3
Note ON: Time 90480, Note Name: E3, Velocity: 51
Note OFF: Time 90720, Note Name: E3
Note ON: Time 90720, Note Name: F#3, Velocity: 51
Note OFF: Time 90930, Note Name: F#3
Note ON: Time 90960, Note Name: G3, Velocity: 50
Note OFF: Time 91200, Note Name: G3
Note ON: Time 91200, Note Name: A3, Velocity: 52
Note OFF: Time 91440, Note Name: A3
Note ON: Time 91440, Note Name: B3, Velocity: 54
Note OFF: Time 91680, Note Name: B3
Note ON: Time 91680, Note Name: C#4, Velocity: 57
Note OFF: Time 92160, Note Name: C#4
Note ON: Time 92160, Note Name: D4, Velocity: 43
Note ON: Time 92160, Note Name: A4, Velocity: 43
Note OFF: Time 92220, Note Name: A4
Note OFF: Time 92220, Note Name: D4
Note ON: Time 92400, Note Name: A3, Velocity: 35
Note OFF: Time 92460, Note Name: A3
Note ON: Time 92640, Note Name: D3, Velocity: 42
Note OFF: Time 92700, Note Name: D3
Note ON: Time 92880, Note Name: A3, Velocity: 37
Note OFF: Time 92940, Note Name: A3
Note ON: Time 93120, Note Name: D4, Velocity: 43
Note OFF: Time 93180, Note Name: D4
Note ON: Time 93360, Note Name: A4, Velocity: 36
Note ON: Time 93360, Note Name: D#4, Velocity: 36
Note ON: Time 93360, Note Name: C4, Velocity: 36
Note ON: Time 93360, Note Name: F#3, Velocity: 36
Note OFF: Time 93600, Note Name: F#3
Note OFF: Time 93600, Note Name: A4
Note OFF: Time 93600, Note Name: D#4
Note OFF: Time 93600, Note Name: C4
Note ON: Time 93600, Note Name: G4, Velocity: 36
Note ON: Time 93600, Note Name: D4, Velocity: 36
Note ON: Time 93600, Note Name: A#3, Velocity: 36
Note ON: Time 93600, Note Name: G3, Velocity: 36
Note OFF: Time 93840, Note Name: G3
Note OFF: Time 93840, Note Name: G4
Note OFF: Time 93840, Note Name: D4
Note OFF: Time 93840, Note Name: A#3
Note ON: Time 93840, Note Name: F#4, Velocity: 35
Note ON: Time 93840, Note Name: D4, Velocity: 35
Note ON: Time 93840, Note Name: A3, Velocity: 35
Note OFF: Time 94080, Note Name: A3
Note OFF: Time 94080, Note Name: D4
Note OFF: Time 94080, Note Name: F#4
Note ON: Time 94080, Note Name: E4, Velocity: 34
Note ON: Time 94080, Note Name: D4, Velocity: 34
Note ON: Time 94080, Note Name: A#3, Velocity: 34
Note OFF: Time 94560, Note Name: A#3
Note OFF: Time 94560, Note Name: D4
Note OFF: Time 94560, Note Name: E4
Note ON: Time 94560, Note Name: G4, Velocity: 36
Note ON: Time 94560, Note Name: E4, Velocity: 36
Note ON: Time 94560, Note Name: C#4, Velocity: 36
Note OFF: Time 95040, Note Name: C#4
Note OFF: Time 95040, Note Name: E4
Note OFF: Time 95040, Note Name: G4
Note ON: Time 95040, Note Name: F#4, Velocity: 42
Note ON: Time 95040, Note Name: D4, Velocity: 42
Note ON: Time 95520, Note Name: A3, Velocity: 38
Note OFF: Time 96000, Note Name: A3
Note OFF: Time 96000, Note Name: D4
Note OFF: Time 96000, Note Name: F#4
Note ON: Time 96000, Note Name: G3, Velocity: 36
Note ON: Time 96000, Note Name: B3, Velocity: 36
Note OFF: Time 96480, Note Name: G3
Note ON: Time 96480, Note Name: E3, Velocity: 37
Note ON: Time 96480, Note Name: A2, Velocity: 37
Note OFF: Time 97440, Note Name: B3
Note ON: Time 97440, Note Name: C#4, Velocity: 38
Note OFF: Time 97920, Note Name: C#4
Note OFF: Time 97920, Note Name: A2
Note OFF: Time 97920, Note Name: E3
Note ON: Time 97920, Note Name: G#2, Velocity: 38
Note OFF: Time 98400, Note Name: G#2
Note ON: Time 98400, Note Name: A2, Velocity: 39
Note OFF: Time 98640, Note Name: A2
Note ON: Time 98640, Note Name: B2, Velocity: 38
Note OFF: Time 98880, Note Name: B2
Note ON: Time 98880, Note Name: C#3, Velocity: 39
Note OFF: Time 99120, Note Name: C#3
Note ON: Time 99120, Note Name: D#3, Velocity: 37
Note OFF: Time 99240, Note Name: D#3
Note ON: Time 99240, Note Name: F3, Velocity: 40
Note OFF: Time 99360, Note Name: F3
Note ON: Time 99360, Note Name: F#3, Velocity: 45
Note OFF: Time 99840, Note Name: F#3
Note ON: Time 99840, Note Name: G#3, Velocity: 36
Note OFF: Time 100320, Note Name: G#3
Note ON: Time 100320, Note Name: A3, Velocity: 38
Note OFF: Time 100780, Note Name: A3
Note ON: Time 100800, Note Name: B3, Velocity: 38
Note OFF: Time 101280, Note Name: B3
Note ON: Time 101280, Note Name: C#4, Velocity: 39
Note OFF: Time 101520, Note Name: C#4
Note ON: Time 101520, Note Name: D4, Velocity: 38
Note OFF: Time 101760, Note Name: D4
Note ON: Time 101760, Note Name: E4, Velocity: 39
Note OFF: Time 102000, Note Name: E4
Note ON: Time 102000, Note Name: F4, Velocity: 39
Note OFF: Time 102240, Note Name: F4
Note ON: Time 102240, Note Name: F#4, Velocity: 39
Note OFF: Time 103680, Note Name: F#4
Note ON: Time 103680, Note Name: A#1, Velocity: 35
Note ON: Time 103680, Note Name: A#2, Velocity: 35
Note OFF: Time 104070, Note Name: A#2
Note OFF: Time 104070, Note Name: A#1
Note ON: Time 104070, Note Name: G3, Velocity: 31
Note ON: Time 104100, Note Name: A#3, Velocity: 33
Note ON: Time 104130, Note Name: D#4, Velocity: 35
Note ON: Time 104160, Note Name: G4, Velocity: 40
Note OFF: Time 104633, Note Name: G4
Note OFF: Time 104636, Note Name: D#4
Note OFF: Time 104638, Note Name: A#3
Note OFF: Time 104638, Note Name: G3
Note ON: Time 104640, Note Name: A#2, Velocity: 38
Note ON: Time 105120, Note Name: A#1, Velocity: 44
Note OFF: Time 105510, Note Name: A#1
Note OFF: Time 105510, Note Name: A#2
Note ON: Time 105510, Note Name: G3, Velocity: 31
Note ON: Time 105540, Note Name: A#3, Velocity: 33
Note ON: Time 105570, Note Name: D#4, Velocity: 35
Note ON: Time 105600, Note Name: G4, Velocity: 41
Note OFF: Time 106077, Note Name: G4
Note OFF: Time 106077, Note Name: D#4
Note OFF: Time 106078, Note Name: A#3
Note OFF: Time 106078, Note Name: G3
Note ON: Time 106080, Note Name: A#2, Velocity: 41
Note ON: Time 106560, Note Name: A#1, Velocity: 41
Note OFF: Time 106800, Note Name: A#1
Note OFF: Time 106800, Note Name: A#2
Note ON: Time 107040, Note Name: D#3, Velocity: 36
Note ON: Time 107040, Note Name: G3, Velocity: 36
Note OFF: Time 107280, Note Name: G3
Note OFF: Time 107280, Note Name: D#3
Note ON: Time 107520, Note Name: G4, Velocity: 33
Note ON: Time 107520, Note Name: C5, Velocity: 33
Note ON: Time 107520, Note Name: D#5, Velocity: 33
Note OFF: Time 107580, Note Name: D#5
Note OFF: Time 107580, Note Name: C5
Note OFF: Time 107580, Note Name: G4
Note ON: Time 108000, Note Name: A#2, Velocity: 41
Note ON: Time 108000, Note Name: A#1, Velocity: 41
Note OFF: Time 108240, Note Name: A#1
Note OFF: Time 108240, Note Name: A#2
Note ON: Time 108480, Note Name: A#3, Velocity: 36
Note ON: Time 108480, Note Name: D3, Velocity: 36
Note ON: Time 108480, Note Name: G3, Velocity: 36
Note OFF: Time 108720, Note Name: G3
Note OFF: Time 108720, Note Name: D3
Note OFF: Time 108720, Note Name: A#3
Note ON: Time 108960, Note Name: G4, Velocity: 33
Note ON: Time 108960, Note Name: A#4, Velocity: 33
Note ON: Time 108960, Note Name: D5, Velocity: 33
Note OFF: Time 109020, Note Name: D5
Note OFF: Time 109020, Note Name: A#4
Note OFF: Time 109020, Note Name: G4
Note ON: Time 109440, Note Name: G3, Velocity: 36
Note ON: Time 109440, Note Name: A#2, Velocity: 41
Note OFF: Time 109920, Note Name: G3
Note ON: Time 109920, Note Name: G#3, Velocity: 38
Note OFF: Time 110400, Note Name: G#3
Note ON: Time 110400, Note Name: G#4, Velocity: 36
Note ON: Time 110400, Note Name: F5, Velocity: 36
Note ON: Time 110400, Note Name: C#5, Velocity: 36
Note OFF: Time 110430, Note Name: C#5
Note OFF: Time 110430, Note Name: F5
Note OFF: Time 110430, Note Name: G#4
Note OFF: Time 110880, Note Name: A#2
Note ON: Time 110880, Note Name: A#2, Velocity: 41
Note ON: Time 110880, Note Name: D#3, Velocity: 41
Note OFF: Time 111360, Note Name: D#3
Note OFF: Time 111360, Note Name: A#2
Note ON: Time 111360, Note Name: D#5, Velocity: 36
Note ON: Time 111360, Note Name: C#5, Velocity: 36
Note OFF: Time 111600, Note Name: C#5
Note OFF: Time 111600, Note Name: D#5
Note ON: Time 111840, Note Name: D#3, Velocity: 41
Note ON: Time 112320, Note Name: A#2, Velocity: 45
Note OFF: Time 112800, Note Name: A#2
Note OFF: Time 112800, Note Name: D#3
Note ON: Time 112800, Note Name: D#5, Velocity: 40
Note ON: Time 112800, Note Name: C#5, Velocity: 40
Note OFF: Time 113040, Note Name: C#5
Note OFF: Time 113040, Note Name: D#5
Note ON: Time 113280, Note Name: D#3, Velocity: 47
Note OFF: Time 113760, Note Name: D#3
Note ON: Time 113760, Note Name: E3, Velocity: 52
Note ON: Time 113760, Note Name: F#2, Velocity: 52
Note OFF: Time 114240, Note Name: F#2
Note OFF: Time 114240, Note Name: E3
Note ON: Time 114240, Note Name: E5, Velocity: 45
Note ON: Time 114240, Note Name: C#5, Velocity: 45
Note OFF: Time 114480, Note Name: C#5
Note OFF: Time 114480, Note Name: E5
Note ON: Time 114720, Note Name: E3, Velocity: 52
Note ON: Time 115200, Note Name: E2, Velocity: 60
Note OFF: Time 115440, Note Name: E2
Note OFF: Time 115440, Note Name: E3
Note ON: Time 115680, Note Name: D5, Velocity: 46
Note ON: Time 115680, Note Name: E5, Velocity: 46
Note OFF: Time 115920, Note Name: E5
Note OFF: Time 115920, Note Name: D5
Note ON: Time 116160, Note Name: E3, Velocity: 54
Note ON: Time 116520, Note Name: E2, Velocity: 65
Note OFF: Time 116640, Note Name: E2
Note OFF: Time 116640, Note Name: E3
Note ON: Time 116640, Note Name: D4, Velocity: 56
Note ON: Time 116640, Note Name: C#4, Velocity: 56
Note ON: Time 116640, Note Name: A4, Velocity: 56
Note OFF: Time 117120, Note Name: A4
Note OFF: Time 117120, Note Name: C#4
Note OFF: Time 117120, Note Name: D4
Note ON: Time 117120, Note Name: G#4, Velocity: 53
Note ON: Time 117120, Note Name: D4, Velocity: 53
Note ON: Time 117120, Note Name: B3, Velocity: 53
Note OFF: Time 117600, Note Name: B3
Note OFF: Time 117600, Note Name: D4
Note OFF: Time 117600, Note Name: G#4
Note ON: Time 117600, Note Name: F#4, Velocity: 48
Note ON: Time 117600, Note Name: D4, Velocity: 48
Note ON: Time 117600, Note Name: G#3, Velocity: 48
Note OFF: Time 118080, Note Name: G#3
Note OFF: Time 118080, Note Name: D4
Note OFF: Time 118080, Note Name: F#4
Note ON: Time 118080, Note Name: E4, Velocity: 47
Note ON: Time 118080, Note Name: C#4, Velocity: 47
Note ON: Time 118080, Note Name: A3, Velocity: 47
Note ON: Time 118560, Note Name: E2, Velocity: 64
Note OFF: Time 118800, Note Name: A3
Note OFF: Time 118800, Note Name: E4
Note OFF: Time 118800, Note Name: C#4
Note ON: Time 118800, Note Name: A3, Velocity: 54
Note ON: Time 118800, Note Name: C#4, Velocity: 54
Note ON: Time 118800, Note Name: F#4, Velocity: 54
Note OFF: Time 119040, Note Name: F#4
Note OFF: Time 119040, Note Name: C#4
Note OFF: Time 119040, Note Name: A3
Note ON: Time 119040, Note Name: C#4, Velocity: 54
Note ON: Time 119040, Note Name: F#4, Velocity: 54
Note ON: Time 119040, Note Name: A4, Velocity: 54
Note OFF: Time 119280, Note Name: A4
Note OFF: Time 119280, Note Name: F#4
Note OFF: Time 119280, Note Name: C#4
Note ON: Time 119280, Note Name: F#4, Velocity: 54
Note ON: Time 119280, Note Name: A4, Velocity: 54
Note ON: Time 119280, Note Name: C#5, Velocity: 54
Note OFF: Time 119520, Note Name: C#5
Note OFF: Time 119520, Note Name: E2
Note OFF: Time 119520, Note Name: F#4
Note OFF: Time 119520, Note Name: A4
Note ON: Time 119520, Note Name: D4, Velocity: 56
Note ON: Time 119520, Note Name: C#4, Velocity: 56
Note ON: Time 119520, Note Name: A4, Velocity: 56
Note OFF: Time 120000, Note Name: A4
Note OFF: Time 120000, Note Name: C#4
Note OFF: Time 120000, Note Name: D4
Note ON: Time 120000, Note Name: G#4, Velocity: 53
Note ON: Time 120000, Note Name: D4, Velocity: 53
Note ON: Time 120000, Note Name: B3, Velocity: 53
Note OFF: Time 120480, Note Name: B3
Note OFF: Time 120480, Note Name: D4
Note OFF: Time 120480, Note Name: G#4
Note ON: Time 120480, Note Name: F#4, Velocity: 48
Note ON: Time 120480, Note Name: D4, Velocity: 48
Note ON: Time 120480, Note Name: G#3, Velocity: 48
Note OFF: Time 120960, Note Name: G#3
Note OFF: Time 120960, Note Name: D4
Note OFF: Time 120960, Note Name: F#4
Note ON: Time 120960, Note Name: E4, Velocity: 47
Note ON: Time 120960, Note Name: C#4, Velocity: 47
Note ON: Time 120960, Note Name: A3, Velocity: 47
Note ON: Time 121440, Note Name: E2, Velocity: 64
Note OFF: Time 121680, Note Name: A3
Note OFF: Time 121680, Note Name: E4
Note OFF: Time 121680, Note Name: C#4
Note ON: Time 121680, Note Name: F#3, Velocity: 49
Note OFF: Time 121920, Note Name: F#3
Note ON: Time 121920, Note Name: A3, Velocity: 52
Note OFF: Time 122160, Note Name: A3
Note ON: Time 122160, Note Name: C#4, Velocity: 54
Note OFF: Time 122380, Note Name: C#4
Note OFF: Time 122380, Note Name: E2
Note ON: Time 122400, Note Name: D2, Velocity: 56
Note ON: Time 122400, Note Name: A2, Velocity: 56
Note ON: Time 122640, Note Name: C#4, Velocity: 56
Note OFF: Time 122880, Note Name: C#4
Note ON: Time 122880, Note Name: F#3, Velocity: 48
Note ON: Time 122880, Note Name: A3, Velocity: 48
Note ON: Time 122880, Note Name: C#4, Velocity: 48
Note OFF: Time 123360, Note Name: C#4
Note OFF: Time 123360, Note Name: F#3
Note OFF: Time 123360, Note Name: A3
Note ON: Time 123360, Note Name: A2, Velocity: 52
Note OFF: Time 123840, Note Name: A2
Note OFF: Time 123840, Note Name: A2
Note OFF: Time 123840, Note Name: D2
Note ON: Time 123840, Note Name: G#1, Velocity: 53
Note ON: Time 123840, Note Name: G#2, Velocity: 53
Note ON: Time 124080, Note Name: G#3, Velocity: 43
Note ON: Time 124080, Note Name: B3, Velocity: 43
Note OFF: Time 124200, Note Name: B3
Note OFF: Time 124200, Note Name: G#3
Note ON: Time 124200, Note Name: F3, Velocity: 36
Note ON: Time 124200, Note Name: A3, Velocity: 40
Note OFF: Time 124320, Note Name: A3
Note OFF: Time 124320, Note Name: G#1
Note OFF: Time 124320, Note Name: G#2
Note OFF: Time 124320, Note Name: F3
Note ON: Time 124320, Note Name: D3, Velocity: 43
Note ON: Time 124320, Note Name: G#3, Velocity: 43
Note ON: Time 124320, Note Name: B3, Velocity: 43
Note OFF: Time 124800, Note Name: B3
Note OFF: Time 124800, Note Name: G#3
Note OFF: Time 124800, Note Name: D3
Note ON: Time 124800, Note Name: G#2, Velocity: 45
Note OFF: Time 125280, Note Name: G#2
Note ON: Time 125280, Note Name: D2, Velocity: 57
Note ON: Time 125280, Note Name: A2, Velocity: 57
Note ON: Time 125520, Note Name: C#4, Velocity: 56
Note OFF: Time 125760, Note Name: C#4
Note OFF: Time 125760, Note Name: A2
Note OFF: Time 125760, Note Name: D2
Note ON: Time 125760, Note Name: F#3, Velocity: 48
Note ON: Time 125760, Note Name: A3, Velocity: 48
Note ON: Time 125760, Note Name: C#4, Velocity: 48
Note OFF: Time 126240, Note Name: C#4
Note OFF: Time 126240, Note Name: A3
Note OFF: Time 126240, Note Name: F#3
Note ON: Time 126240, Note Name: A2, Velocity: 52
Note OFF: Time 126720, Note Name: A2
Note ON: Time 126720, Note Name: B1, Velocity: 53
Note ON: Time 126720, Note Name: B2, Velocity: 53
Note OFF: Time 127200, Note Name: B2
Note OFF: Time 127200, Note Name: B1
Note ON: Time 127200, Note Name: F#3, Velocity: 47
Note ON: Time 127200, Note Name: B3, Velocity: 47
Note ON: Time 127200, Note Name: D4, Velocity: 47
Note OFF: Time 127680, Note Name: D4
Note OFF: Time 127680, Note Name: B3
Note OFF: Time 127680, Note Name: F#3
Note ON: Time 127680, Note Name: A2, Velocity: 45
Note ON: Time 127680, Note Name: A1, Velocity: 45
Note OFF: Time 128160, Note Name: A1
Note OFF: Time 128160, Note Name: A2
Note ON: Time 128160, Note Name: G#1, Velocity: 57
Note ON: Time 128160, Note Name: G#2, Velocity: 57
Note ON: Time 128400, Note Name: D4, Velocity: 56
Note OFF: Time 128640, Note Name: D4
Note OFF: Time 128640, Note Name: G#2
Note OFF: Time 128640, Note Name: G#1
Note ON: Time 128640, Note Name: G#3, Velocity: 48
Note ON: Time 128640, Note Name: B3, Velocity: 48
Note ON: Time 128640, Note Name: D4, Velocity: 48
Note OFF: Time 129120, Note Name: D4
Note ON: Time 129120, Note Name: E4, Velocity: 47
Note ON: Time 129120, Note Name: C#4, Velocity: 47
Note OFF: Time 129360, Note Name: C#4
Note OFF: Time 129360, Note Name: E4
Note ON: Time 129360, Note Name: D4, Velocity: 47
Note ON: Time 129360, Note Name: F#4, Velocity: 47
Note OFF: Time 129600, Note Name: F#4
Note OFF: Time 129600, Note Name: G#3
Note OFF: Time 129600, Note Name: B3
Note OFF: Time 129600, Note Name: D4
Note ON: Time 129600, Note Name: C#2, Velocity: 53
Note ON: Time 129600, Note Name: C#3, Velocity: 53
Note ON: Time 129840, Note Name: F4, Velocity: 51
Note ON: Time 129840, Note Name: G#4, Velocity: 51
Note OFF: Time 129960, Note Name: G#4
Note OFF: Time 129960, Note Name: F4
Note ON: Time 129960, Note Name: D#4, Velocity: 51
Note ON: Time 129960, Note Name: F#4, Velocity: 51
Note OFF: Time 130080, Note Name: F#4
Note OFF: Time 130080, Note Name: C#2
Note OFF: Time 130080, Note Name: C#3
Note OFF: Time 130080, Note Name: D#4
Note ON: Time 130080, Note Name: B3, Velocity: 53
Note ON: Time 130080, Note Name: F4, Velocity: 54
Note ON: Time 130080, Note Name: G#4, Velocity: 54
Note OFF: Time 130300, Note Name: G#4
Note OFF: Time 130300, Note Name: F4
Note ON: Time 130320, Note Name: C#4, Velocity: 54
Note ON: Time 130320, Note Name: F4, Velocity: 54
Note OFF: Time 130560, Note Name: F4
Note OFF: Time 130560, Note Name: C#4
Note ON: Time 130560, Note Name: D#4, Velocity: 58
Note ON: Time 130560, Note Name: F#4, Velocity: 58
Note OFF: Time 130800, Note Name: F#4
Note OFF: Time 130800, Note Name: D#4
Note ON: Time 130800, Note Name: F4, Velocity: 62
Note ON: Time 130800, Note Name: G#4, Velocity: 62
Note OFF: Time 131040, Note Name: G#4
Note OFF: Time 131040, Note Name: F4
Note OFF: Time 131040, Note Name: B3
Note ON: Time 131040, Note Name: F#2, Velocity: 74
Note ON: Time 131040, Note Name: C#3, Velocity: 74
Note ON: Time 131280, Note Name: F#4, Velocity: 73
Note OFF: Time 131520, Note Name: F#4
Note OFF: Time 131520, Note Name: C#3
Note OFF: Time 131520, Note Name: F#2
Note ON: Time 131520, Note Name: A3, Velocity: 71
Note ON: Time 131520, Note Name: C#4, Velocity: 71
Note ON: Time 131520, Note Name: F#4, Velocity: 71
Note OFF: Time 132000, Note Name: F#4
Note OFF: Time 132000, Note Name: C#4
Note OFF: Time 132000, Note Name: A3
Note ON: Time 132000, Note Name: F#3, Velocity: 66
Note ON: Time 132000, Note Name: A3, Velocity: 66
Note ON: Time 132000, Note Name: C#4, Velocity: 66
Note OFF: Time 132480, Note Name: C#4
Note OFF: Time 132480, Note Name: A3
Note OFF: Time 132480, Note Name: F#3
Note ON: Time 132480, Note Name: D2, Velocity: 74
Note ON: Time 132480, Note Name: A2, Velocity: 74
Note ON: Time 132720, Note Name: D3, Velocity: 57
Note ON: Time 132720, Note Name: F#3, Velocity: 57
Note ON: Time 132720, Note Name: A3, Velocity: 57
Note OFF: Time 132960, Note Name: A3
Note OFF: Time 132960, Note Name: D3
Note OFF: Time 132960, Note Name: F#3
Note ON: Time 132960, Note Name: F#3, Velocity: 57
Note ON: Time 132960, Note Name: A3, Velocity: 57
Note ON: Time 132960, Note Name: D4, Velocity: 57
Note OFF: Time 133440, Note Name: D4
Note OFF: Time 133440, Note Name: F#3
Note OFF: Time 133440, Note Name: A3
Note ON: Time 133440, Note Name: F#4, Velocity: 60
Note ON: Time 133440, Note Name: D4, Velocity: 60
Note ON: Time 133440, Note Name: A3, Velocity: 60
Note OFF: Time 133680, Note Name: A3
Note OFF: Time 133680, Note Name: F#4
Note OFF: Time 133680, Note Name: D4
Note ON: Time 133680, Note Name: A4, Velocity: 59
Note ON: Time 133680, Note Name: F#4, Velocity: 59
Note ON: Time 133680, Note Name: D4, Velocity: 59
Note OFF: Time 133920, Note Name: D4
Note OFF: Time 133920, Note Name: A4
Note OFF: Time 133920, Note Name: D2
Note OFF: Time 133920, Note Name: A2
Note OFF: Time 133920, Note Name: F#4
Note ON: Time 133920, Note Name: D4, Velocity: 64
Note ON: Time 133920, Note Name: F#4, Velocity: 64
Note ON: Time 133920, Note Name: A4, Velocity: 64
Note OFF: Time 135360, Note Name: A4
Note OFF: Time 135360, Note Name: F#4
Note OFF: Time 135360, Note Name: D4
Note ON: Time 135360, Note Name: B1, Velocity: 52
Note ON: Time 135360, Note Name: B2, Velocity: 52
Note ON: Time 135600, Note Name: D3, Velocity: 45
Note ON: Time 135600, Note Name: A3, Velocity: 45
Note ON: Time 135600, Note Name: F#3, Velocity: 45
Note OFF: Time 135840, Note Name: F#3
Note OFF: Time 135840, Note Name: D3
Note OFF: Time 135840, Note Name: A3
Note ON: Time 135840, Note Name: F#3, Velocity: 44
Note ON: Time 135840, Note Name: A3, Velocity: 44
Note ON: Time 135840, Note Name: D4, Velocity: 44
Note OFF: Time 136320, Note Name: D4
Note OFF: Time 136320, Note Name: F#3
Note OFF: Time 136320, Note Name: A3
Note ON: Time 136320, Note Name: F#4, Velocity: 44
Note ON: Time 136320, Note Name: D4, Velocity: 44
Note ON: Time 136320, Note Name: A3, Velocity: 44
Note OFF: Time 136560, Note Name: A3
Note OFF: Time 136560, Note Name: F#4
Note OFF: Time 136560, Note Name: D4
Note ON: Time 136560, Note Name: A4, Velocity: 41
Note ON: Time 136560, Note Name: F#4, Velocity: 41
Note ON: Time 136560, Note Name: D4, Velocity: 41
Note OFF: Time 136800, Note Name: D4
Note OFF: Time 136800, Note Name: A4
Note OFF: Time 136800, Note Name: B1
Note OFF: Time 136800, Note Name: B2
Note OFF: Time 136800, Note Name: F#4
Note ON: Time 136800, Note Name: A4, Velocity: 41
Note ON: Time 136800, Note Name: F#4, Velocity: 41
Note ON: Time 136800, Note Name: D4, Velocity: 41
Note OFF: Time 137280, Note Name: D4
Note OFF: Time 137280, Note Name: F#4
Note OFF: Time 137280, Note Name: A4
Note ON: Time 137760, Note Name: B4, Velocity: 35
Note ON: Time 137760, Note Name: F#4, Velocity: 35
Note ON: Time 137760, Note Name: D4, Velocity: 35
Note ON: Time 137760, Note Name: B3, Velocity: 35
Note OFF: Time 137880, Note Name: B3
Note OFF: Time 137880, Note Name: B4
Note OFF: Time 137880, Note Name: F#4
Note OFF: Time 137880, Note Name: D4
Note ON: Time 138240, Note Name: A1, Velocity: 38
Note ON: Time 138240, Note Name: E2, Velocity: 38
Note ON: Time 138240, Note Name: A2, Velocity: 38
Note OFF: Time 138330, Note Name: A2
Note OFF: Time 138330, Note Name: E2
Note OFF: Time 138330, Note Name: A1
Note ON: Time 138480, Note Name: C4, Velocity: 34
Note ON: Time 138480, Note Name: A3, Velocity: 34
Note OFF: Time 138600, Note Name: A3
Note OFF: Time 138600, Note Name: C4
Note ON: Time 138600, Note Name: E3, Velocity: 34
Note ON: Time 138600, Note Name: B3, Velocity: 34
Note OFF: Time 138720, Note Name: B3
Note OFF: Time 138720, Note Name: E3
Note ON: Time 138720, Note Name: C4, Velocity: 37
Note ON: Time 138720, Note Name: A3, Velocity: 37
Note OFF: Time 138750, Note Name: A3
Note OFF: Time 138750, Note Name: C4
Note ON: Time 138960, Note Name: C4, Velocity: 33
Note ON: Time 138960, Note Name: A3, Velocity: 33
Note OFF: Time 139020, Note Name: A3
Note OFF: Time 139020, Note Name: C4
Note ON: Time 139440, Note Name: G2, Velocity: 33
Note ON: Time 139440, Note Name: D3, Velocity: 33
Note ON: Time 139440, Note Name: G3, Velocity: 33
Note OFF: Time 139500, Note Name: G3
Note OFF: Time 139500, Note Name: D3
Note OFF: Time 139500, Note Name: G2
Note ON: Time 139680, Note Name: C2, Velocity: 36
Note ON: Time 139680, Note Name: G2, Velocity: 36
Note ON: Time 139680, Note Name: C3, Velocity: 36
Note OFF: Time 139740, Note Name: C3
Note OFF: Time 139740, Note Name: G2
Note OFF: Time 139740, Note Name: C2
Note ON: Time 139920, Note Name: E4, Velocity: 34
Note ON: Time 139920, Note Name: C4, Velocity: 34
Note OFF: Time 140040, Note Name: C4
Note OFF: Time 140040, Note Name: E4
Note ON: Time 140040, Note Name: G3, Velocity: 34
Note ON: Time 140040, Note Name: D4, Velocity: 34
Note OFF: Time 140160, Note Name: D4
Note OFF: Time 140160, Note Name: G3
Note ON: Time 140160, Note Name: C4, Velocity: 36
Note ON: Time 140160, Note Name: E4, Velocity: 36
Note OFF: Time 140190, Note Name: E4
Note OFF: Time 140190, Note Name: C4
Note ON: Time 140400, Note Name: C4, Velocity: 33
Note ON: Time 140400, Note Name: E4, Velocity: 33
Note OFF: Time 140460, Note Name: E4
Note OFF: Time 140460, Note Name: C4
Note ON: Time 140880, Note Name: G2, Velocity: 33
Note ON: Time 140880, Note Name: D3, Velocity: 33
Note ON: Time 140880, Note Name: G3, Velocity: 33
Note OFF: Time 140940, Note Name: G3
Note OFF: Time 140940, Note Name: D3
Note OFF: Time 140940, Note Name: G2
Note ON: Time 141120, Note Name: A2, Velocity: 35
Note ON: Time 141120, Note Name: E3, Velocity: 35
Note ON: Time 141120, Note Name: A3, Velocity: 35
Note OFF: Time 141180, Note Name: A3
Note OFF: Time 141180, Note Name: E3
Note OFF: Time 141180, Note Name: A2
Note ON: Time 141360, Note Name: A3, Velocity: 34
Note ON: Time 141360, Note Name: C4, Velocity: 34
Note OFF: Time 141480, Note Name: C4
Note OFF: Time 141480, Note Name: A3
Note ON: Time 141480, Note Name: E3, Velocity: 34
Note ON: Time 141480, Note Name: B3, Velocity: 34
Note OFF: Time 141600, Note Name: B3
Note OFF: Time 141600, Note Name: E3
Note ON: Time 141600, Note Name: C4, Velocity: 36
Note ON: Time 141600, Note Name: A3, Velocity: 36
Note OFF: Time 141630, Note Name: A3
Note OFF: Time 141630, Note Name: C4
Note ON: Time 141840, Note Name: C4, Velocity: 32
Note ON: Time 141840, Note Name: A3, Velocity: 32
Note OFF: Time 141900, Note Name: A3
Note OFF: Time 141900, Note Name: C4
Note ON: Time 142320, Note Name: G2, Velocity: 32
Note ON: Time 142320, Note Name: D3, Velocity: 32
Note ON: Time 142320, Note Name: G3, Velocity: 32
Note OFF: Time 142380, Note Name: G3
Note OFF: Time 142380, Note Name: D3
Note OFF: Time 142380, Note Name: G2
Note ON: Time 142560, Note Name: C2, Velocity: 37
Note ON: Time 142560, Note Name: G2, Velocity: 37
Note ON: Time 142560, Note Name: C3, Velocity: 37
Note OFF: Time 142620, Note Name: C3
Note OFF: Time 142620, Note Name: G2
Note OFF: Time 142620, Note Name: C2
Note ON: Time 142800, Note Name: E4, Velocity: 33
Note ON: Time 142800, Note Name: C4, Velocity: 33
Note OFF: Time 142920, Note Name: C4
Note OFF: Time 142920, Note Name: E4
Note ON: Time 142920, Note Name: G3, Velocity: 33
Note ON: Time 142920, Note Name: D4, Velocity: 33
Note OFF: Time 143040, Note Name: D4
Note OFF: Time 143040, Note Name: G3
Note ON: Time 143040, Note Name: C4, Velocity: 35
Note ON: Time 143040, Note Name: E4, Velocity: 35
Note OFF: Time 143070, Note Name: E4
Note OFF: Time 143070, Note Name: C4
Note ON: Time 143280, Note Name: C4, Velocity: 32
Note ON: Time 143280, Note Name: E4, Velocity: 32
Note OFF: Time 143340, Note Name: E4
Note OFF: Time 143340, Note Name: C4
Note ON: Time 143760, Note Name: E4, Velocity: 32
Note ON: Time 143760, Note Name: B3, Velocity: 32
Note ON: Time 143760, Note Name: E3, Velocity: 32
Note OFF: Time 143820, Note Name: E3
Note OFF: Time 143820, Note Name: B3
Note OFF: Time 143820, Note Name: E4
Note ON: Time 144000, Note Name: E3, Velocity: 34
Note ON: Time 144000, Note Name: B3, Velocity: 34
Note ON: Time 144000, Note Name: E4, Velocity: 34
Note OFF: Time 144060, Note Name: E4
Note OFF: Time 144060, Note Name: B3
Note OFF: Time 144060, Note Name: E3
Note ON: Time 144480, Note Name: E2, Velocity: 40
Note OFF: Time 144720, Note Name: E2
Note ON: Time 144960, Note Name: E3, Velocity: 44
Note OFF: Time 145200, Note Name: E3
Note ON: Time 145920, Note Name: C2, Velocity: 38
Note OFF: Time 146160, Note Name: C2
Note ON: Time 146400, Note Name: B1, Velocity: 36
Note OFF: Time 146640, Note Name: B1
Note ON: Time 146880, Note Name: A1, Velocity: 36
Note OFF: Time 147120, Note Name: A1
Note ON: Time 148320, Note Name: A1, Velocity: 24
Note ON: Time 148320, Note Name: A2, Velocity: 24
Note OFF: Time 148440, Note Name: A2
Note OFF: Time 148440, Note Name: A1
Track 3: Pedal
Track 4: Debussy: Menuet from Suite bergamasque
Track 5: Copyright  1998 by Bernd Krger
Track 6: http://www.piano-midi.de
Track 7: Edition: 2011-08-09
