Processing deb_prel.mid...

Track 0: Suite bergamasque
Track 1: Piano right
Note ON: Time 960, Note Name: G4, Velocity: 70
Note ON: Time 960, Note Name: A#4, Velocity: 70
Note ON: Time 960, Note Name: D5, Velocity: 70
Note ON: Time 960, Note Name: G5, Velocity: 83
Note OFF: Time 2040, Note Name: G5
Note ON: Time 2040, Note Name: A5, Velocity: 53
Note OFF: Time 2160, Note Name: A5
Note ON: Time 2160, Note Name: A#5, Velocity: 53
Note OFF: Time 2280, Note Name: A#5
Note ON: Time 2280, Note Name: A5, Velocity: 53
Note OFF: Time 2400, Note Name: A5
Note OFF: Time 2400, Note Name: D5
Note OFF: Time 2400, Note Name: A#4
Note OFF: Time 2400, Note Name: G4
Note ON: Time 2400, Note Name: G5, Velocity: 56
Note OFF: Time 2520, Note Name: G5
Note ON: Time 2520, Note Name: A5, Velocity: 54
Note OFF: Time 2640, Note Name: A5
Note ON: Time 2640, Note Name: G5, Velocity: 54
Note OFF: Time 2760, Note Name: G5
Note ON: Time 2760, Note Name: F5, Velocity: 54
Note OFF: Time 2880, Note Name: F5
Note ON: Time 2880, Note Name: D5, Velocity: 57
Note OFF: Time 3000, Note Name: D5
Note ON: Time 3000, Note Name: F5, Velocity: 54
Note OFF: Time 3120, Note Name: F5
Note ON: Time 3120, Note Name: D5, Velocity: 54
Note OFF: Time 3240, Note Name: D5
Note ON: Time 3240, Note Name: C5, Velocity: 54
Note OFF: Time 3360, Note Name: C5
Note ON: Time 3360, Note Name: A#4, Velocity: 58
Note OFF: Time 3480, Note Name: A#4
Note ON: Time 3480, Note Name: G4, Velocity: 54
Note OFF: Time 3600, Note Name: G4
Note ON: Time 3600, Note Name: D4, Velocity: 53
Note OFF: Time 3720, Note Name: D4
Note ON: Time 3720, Note Name: E4, Velocity: 53
Note OFF: Time 3840, Note Name: E4
Note ON: Time 3840, Note Name: G4, Velocity: 52
Note ON: Time 3840, Note Name: C4, Velocity: 44
Note OFF: Time 3960, Note Name: G4
Note ON: Time 3960, Note Name: F4, Velocity: 48
Note OFF: Time 4080, Note Name: F4
Note ON: Time 4080, Note Name: G4, Velocity: 48
Note OFF: Time 4200, Note Name: G4
Note ON: Time 4200, Note Name: A4, Velocity: 47
Note OFF: Time 4320, Note Name: A4
Note ON: Time 4320, Note Name: G4, Velocity: 47
Note OFF: Time 4800, Note Name: C4
Note ON: Time 4800, Note Name: D4, Velocity: 44
Note OFF: Time 4920, Note Name: G4
Note ON: Time 4920, Note Name: F4, Velocity: 48
Note OFF: Time 5040, Note Name: F4
Note ON: Time 5040, Note Name: G4, Velocity: 49
Note OFF: Time 5160, Note Name: G4
Note ON: Time 5160, Note Name: A4, Velocity: 52
Note OFF: Time 5280, Note Name: A4
Note ON: Time 5280, Note Name: C5, Velocity: 53
Note OFF: Time 5400, Note Name: C5
Note ON: Time 5400, Note Name: A4, Velocity: 53
Note OFF: Time 5520, Note Name: A4
Note ON: Time 5520, Note Name: G4, Velocity: 53
Note OFF: Time 5640, Note Name: G4
Note ON: Time 5640, Note Name: F4, Velocity: 53
Note OFF: Time 5760, Note Name: F4
Note OFF: Time 5760, Note Name: D4
Note ON: Time 5760, Note Name: E4, Velocity: 45
Note ON: Time 5760, Note Name: G4, Velocity: 54
Note OFF: Time 5880, Note Name: G4
Note ON: Time 5880, Note Name: F4, Velocity: 49
Note OFF: Time 6000, Note Name: F4
Note ON: Time 6000, Note Name: G4, Velocity: 51
Note OFF: Time 6120, Note Name: G4
Note ON: Time 6120, Note Name: A4, Velocity: 49
Note OFF: Time 6240, Note Name: A4
Note ON: Time 6240, Note Name: G4, Velocity: 48
Note OFF: Time 6720, Note Name: E4
Note ON: Time 6720, Note Name: D4, Velocity: 45
Note OFF: Time 6840, Note Name: G4
Note ON: Time 6840, Note Name: F4, Velocity: 49
Note OFF: Time 6960, Note Name: F4
Note ON: Time 6960, Note Name: G4, Velocity: 51
Note OFF: Time 7080, Note Name: G4
Note ON: Time 7080, Note Name: A4, Velocity: 52
Note OFF: Time 7200, Note Name: A4
Note ON: Time 7200, Note Name: D5, Velocity: 56
Note OFF: Time 7320, Note Name: D5
Note ON: Time 7320, Note Name: A4, Velocity: 54
Note OFF: Time 7440, Note Name: A4
Note ON: Time 7440, Note Name: G4, Velocity: 54
Note OFF: Time 7560, Note Name: G4
Note ON: Time 7560, Note Name: F4, Velocity: 54
Note OFF: Time 7680, Note Name: D4
Note ON: Time 7680, Note Name: D4, Velocity: 49
Note OFF: Time 7800, Note Name: F4
Note ON: Time 7800, Note Name: A#4, Velocity: 52
Note OFF: Time 7920, Note Name: A#4
Note ON: Time 7920, Note Name: D5, Velocity: 54
Note OFF: Time 8040, Note Name: D5
Note ON: Time 8040, Note Name: F5, Velocity: 57
Note OFF: Time 8160, Note Name: F5
Note OFF: Time 8160, Note Name: D4
Note ON: Time 8160, Note Name: D5, Velocity: 47
Note ON: Time 8160, Note Name: A5, Velocity: 60
Note OFF: Time 8640, Note Name: D5
Note ON: Time 8640, Note Name: C5, Velocity: 52
Note OFF: Time 8880, Note Name: A5
Note ON: Time 8880, Note Name: G5, Velocity: 54
Note OFF: Time 9120, Note Name: G5
Note ON: Time 9120, Note Name: F5, Velocity: 52
Note OFF: Time 9360, Note Name: F5
Note ON: Time 9360, Note Name: G5, Velocity: 54
Note OFF: Time 9720, Note Name: G5
Note ON: Time 9720, Note Name: F5, Velocity: 49
Note OFF: Time 9840, Note Name: F5
Note ON: Time 9840, Note Name: E5, Velocity: 51
Note OFF: Time 9960, Note Name: E5
Note ON: Time 9960, Note Name: G5, Velocity: 51
Note OFF: Time 10080, Note Name: G5
Note ON: Time 10080, Note Name: F5, Velocity: 54
Note OFF: Time 10320, Note Name: C5
Note ON: Time 10320, Note Name: A#4, Velocity: 49
Note OFF: Time 10440, Note Name: A#4
Note ON: Time 10440, Note Name: A4, Velocity: 49
Note OFF: Time 10560, Note Name: A4
Note ON: Time 10560, Note Name: A#4, Velocity: 51
Note OFF: Time 10800, Note Name: F5
Note ON: Time 10800, Note Name: E5, Velocity: 46
Note OFF: Time 11040, Note Name: E5
Note ON: Time 11040, Note Name: D5, Velocity: 45
Note ON: Time 11040, Note Name: F4, Velocity: 37
Note OFF: Time 11280, Note Name: F4
Note OFF: Time 11280, Note Name: D5
Note ON: Time 11280, Note Name: C5, Velocity: 43
Note ON: Time 11280, Note Name: E4, Velocity: 36
Note OFF: Time 11520, Note Name: E4
Note OFF: Time 11520, Note Name: C5
Note OFF: Time 11520, Note Name: A#4
Note ON: Time 12480, Note Name: D5, Velocity: 70
Note ON: Time 12480, Note Name: A#4, Velocity: 70
Note ON: Time 12480, Note Name: G5, Velocity: 83
Note ON: Time 12480, Note Name: G4, Velocity: 70
Note OFF: Time 13560, Note Name: G5
Note ON: Time 13560, Note Name: A5, Velocity: 53
Note OFF: Time 13680, Note Name: A5
Note ON: Time 13680, Note Name: A#5, Velocity: 53
Note OFF: Time 13800, Note Name: A#5
Note ON: Time 13800, Note Name: A5, Velocity: 53
Note OFF: Time 13920, Note Name: A5
Note OFF: Time 13920, Note Name: G4
Note OFF: Time 13920, Note Name: A#4
Note OFF: Time 13920, Note Name: D5
Note ON: Time 13920, Note Name: G5, Velocity: 56
Note OFF: Time 14040, Note Name: G5
Note ON: Time 14040, Note Name: A5, Velocity: 54
Note OFF: Time 14160, Note Name: A5
Note ON: Time 14160, Note Name: G5, Velocity: 54
Note OFF: Time 14280, Note Name: G5
Note ON: Time 14280, Note Name: F5, Velocity: 54
Note OFF: Time 14400, Note Name: F5
Note ON: Time 14400, Note Name: D5, Velocity: 57
Note OFF: Time 14520, Note Name: D5
Note ON: Time 14520, Note Name: F5, Velocity: 54
Note OFF: Time 14640, Note Name: F5
Note ON: Time 14640, Note Name: D5, Velocity: 54
Note OFF: Time 14760, Note Name: D5
Note ON: Time 14760, Note Name: C5, Velocity: 54
Note OFF: Time 14880, Note Name: C5
Note ON: Time 14880, Note Name: A#4, Velocity: 58
Note OFF: Time 15000, Note Name: A#4
Note ON: Time 15000, Note Name: G4, Velocity: 54
Note OFF: Time 15120, Note Name: G4
Note ON: Time 15120, Note Name: D4, Velocity: 53
Note OFF: Time 15240, Note Name: D4
Note ON: Time 15240, Note Name: E4, Velocity: 53
Note OFF: Time 15360, Note Name: E4
Note ON: Time 15360, Note Name: G4, Velocity: 51
Note OFF: Time 15480, Note Name: G4
Note ON: Time 15480, Note Name: F4, Velocity: 47
Note OFF: Time 15600, Note Name: F4
Note ON: Time 15600, Note Name: G4, Velocity: 48
Note OFF: Time 15720, Note Name: G4
Note ON: Time 15720, Note Name: A4, Velocity: 47
Note OFF: Time 15840, Note Name: A4
Note ON: Time 15840, Note Name: G4, Velocity: 46
Note OFF: Time 16440, Note Name: G4
Note ON: Time 16440, Note Name: F4, Velocity: 48
Note OFF: Time 16560, Note Name: F4
Note ON: Time 16560, Note Name: G4, Velocity: 49
Note OFF: Time 16680, Note Name: G4
Note ON: Time 16680, Note Name: A4, Velocity: 52
Note OFF: Time 16800, Note Name: A4
Note ON: Time 16800, Note Name: C5, Velocity: 53
Note OFF: Time 16920, Note Name: C5
Note ON: Time 16920, Note Name: A4, Velocity: 53
Note OFF: Time 17040, Note Name: A4
Note ON: Time 17040, Note Name: G4, Velocity: 53
Note OFF: Time 17160, Note Name: G4
Note ON: Time 17160, Note Name: F4, Velocity: 53
Note OFF: Time 17280, Note Name: F4
Note ON: Time 17280, Note Name: G4, Velocity: 52
Note OFF: Time 17400, Note Name: G4
Note ON: Time 17400, Note Name: F4, Velocity: 49
Note OFF: Time 17520, Note Name: F4
Note ON: Time 17520, Note Name: G4, Velocity: 51
Note OFF: Time 17640, Note Name: G4
Note ON: Time 17640, Note Name: A4, Velocity: 49
Note OFF: Time 17760, Note Name: A4
Note ON: Time 17760, Note Name: G4, Velocity: 48
Note ON: Time 18240, Note Name: D#4, Velocity: 45
Note OFF: Time 18360, Note Name: G4
Note ON: Time 18360, Note Name: F4, Velocity: 49
Note OFF: Time 18480, Note Name: F4
Note ON: Time 18480, Note Name: G4, Velocity: 51
Note OFF: Time 18600, Note Name: G4
Note ON: Time 18600, Note Name: A4, Velocity: 52
Note OFF: Time 18720, Note Name: A4
Note ON: Time 18720, Note Name: D5, Velocity: 56
Note OFF: Time 18840, Note Name: D5
Note ON: Time 18840, Note Name: A4, Velocity: 54
Note OFF: Time 18960, Note Name: A4
Note ON: Time 18960, Note Name: G4, Velocity: 54
Note OFF: Time 19080, Note Name: G4
Note ON: Time 19080, Note Name: F4, Velocity: 54
Note OFF: Time 19200, Note Name: F4
Note OFF: Time 19200, Note Name: D#4
Note ON: Time 19680, Note Name: D5, Velocity: 53
Note ON: Time 19680, Note Name: F5, Velocity: 63
Note OFF: Time 20400, Note Name: F5
Note OFF: Time 20400, Note Name: D5
Note ON: Time 20400, Note Name: C5, Velocity: 51
Note ON: Time 20400, Note Name: E5, Velocity: 60
Note OFF: Time 20520, Note Name: E5
Note OFF: Time 20520, Note Name: C5
Note ON: Time 20520, Note Name: D5, Velocity: 50
Note ON: Time 20520, Note Name: F5, Velocity: 59
Note OFF: Time 20640, Note Name: F5
Note OFF: Time 20640, Note Name: D5
Note ON: Time 20640, Note Name: C5, Velocity: 54
Note ON: Time 20640, Note Name: E5, Velocity: 64
Note OFF: Time 20880, Note Name: E5
Note OFF: Time 20880, Note Name: C5
Note ON: Time 20880, Note Name: D5, Velocity: 55
Note ON: Time 20880, Note Name: A#4, Velocity: 46
Note OFF: Time 21000, Note Name: A#4
Note OFF: Time 21000, Note Name: D5
Note ON: Time 21000, Note Name: E5, Velocity: 54
Note ON: Time 21000, Note Name: C5, Velocity: 46
Note OFF: Time 21120, Note Name: C5
Note OFF: Time 21120, Note Name: E5
Note ON: Time 21120, Note Name: D5, Velocity: 62
Note ON: Time 21120, Note Name: A#4, Velocity: 52
Note OFF: Time 21355, Note Name: A#4
Note OFF: Time 21355, Note Name: D5
Note ON: Time 21360, Note Name: C5, Velocity: 56
Note ON: Time 21360, Note Name: G4, Velocity: 47
Note OFF: Time 21576, Note Name: G4
Note OFF: Time 21576, Note Name: C5
Note ON: Time 21600, Note Name: C5, Velocity: 57
Note ON: Time 21600, Note Name: G4, Velocity: 47
Note OFF: Time 21820, Note Name: G4
Note OFF: Time 21820, Note Name: C5
Note ON: Time 21840, Note Name: D5, Velocity: 58
Note ON: Time 21840, Note Name: A#4, Velocity: 49
Note OFF: Time 22080, Note Name: A#4
Note OFF: Time 22080, Note Name: D5
Note ON: Time 22080, Note Name: C5, Velocity: 48
Note ON: Time 22080, Note Name: A4, Velocity: 48
Note ON: Time 22080, Note Name: E5, Velocity: 58
Note OFF: Time 22310, Note Name: E5
Note OFF: Time 22310, Note Name: A4
Note OFF: Time 22310, Note Name: C5
Note ON: Time 22320, Note Name: D5, Velocity: 52
Note ON: Time 22320, Note Name: G5, Velocity: 62
Note ON: Time 22320, Note Name: A#4, Velocity: 52
Note OFF: Time 22536, Note Name: A#4
Note OFF: Time 22536, Note Name: G5
Note OFF: Time 22536, Note Name: D5
Note ON: Time 22560, Note Name: D5, Velocity: 55
Note ON: Time 22560, Note Name: G5, Velocity: 65
Note ON: Time 22560, Note Name: A#4, Velocity: 55
Note OFF: Time 22800, Note Name: A#4
Note OFF: Time 22800, Note Name: G5
Note OFF: Time 22800, Note Name: D5
Note ON: Time 22800, Note Name: A4, Velocity: 54
Note ON: Time 22800, Note Name: C#5, Velocity: 54
Note ON: Time 22800, Note Name: A5, Velocity: 64
Note OFF: Time 23040, Note Name: A5
Note OFF: Time 23040, Note Name: C#5
Note OFF: Time 23040, Note Name: A4
Note ON: Time 23520, Note Name: D5, Velocity: 53
Note ON: Time 23520, Note Name: F5, Velocity: 63
Note OFF: Time 24240, Note Name: F5
Note OFF: Time 24240, Note Name: D5
Note ON: Time 24240, Note Name: C5, Velocity: 51
Note ON: Time 24240, Note Name: E5, Velocity: 60
Note OFF: Time 24360, Note Name: E5
Note OFF: Time 24360, Note Name: C5
Note ON: Time 24360, Note Name: D5, Velocity: 50
Note ON: Time 24360, Note Name: F5, Velocity: 59
Note OFF: Time 24480, Note Name: F5
Note OFF: Time 24480, Note Name: D5
Note ON: Time 24480, Note Name: C5, Velocity: 54
Note ON: Time 24480, Note Name: E5, Velocity: 64
Note OFF: Time 24720, Note Name: E5
Note OFF: Time 24720, Note Name: C5
Note ON: Time 24720, Note Name: A#4, Velocity: 46
Note ON: Time 24720, Note Name: D5, Velocity: 55
Note OFF: Time 24840, Note Name: D5
Note OFF: Time 24840, Note Name: A#4
Note ON: Time 24840, Note Name: C5, Velocity: 46
Note ON: Time 24840, Note Name: E5, Velocity: 56
Note OFF: Time 24960, Note Name: E5
Note OFF: Time 24960, Note Name: C5
Note ON: Time 24960, Note Name: D5, Velocity: 62
Note ON: Time 24960, Note Name: A#4, Velocity: 52
Note OFF: Time 25195, Note Name: A#4
Note OFF: Time 25195, Note Name: D5
Note ON: Time 25200, Note Name: C5, Velocity: 56
Note ON: Time 25200, Note Name: G4, Velocity: 47
Note OFF: Time 25416, Note Name: G4
Note OFF: Time 25416, Note Name: C5
Note ON: Time 25440, Note Name: C5, Velocity: 57
Note ON: Time 25440, Note Name: G4, Velocity: 47
Note OFF: Time 25660, Note Name: G4
Note OFF: Time 25660, Note Name: C5
Note ON: Time 25680, Note Name: D5, Velocity: 61
Note ON: Time 25680, Note Name: A#4, Velocity: 51
Note OFF: Time 25920, Note Name: A#4
Note OFF: Time 25920, Note Name: D5
Note ON: Time 25920, Note Name: C5, Velocity: 52
Note ON: Time 25920, Note Name: A4, Velocity: 52
Note ON: Time 25920, Note Name: E5, Velocity: 61
Note OFF: Time 26150, Note Name: E5
Note OFF: Time 26150, Note Name: A4
Note OFF: Time 26150, Note Name: C5
Note ON: Time 26160, Note Name: G5, Velocity: 63
Note ON: Time 26160, Note Name: A#4, Velocity: 53
Note ON: Time 26160, Note Name: D5, Velocity: 53
Note OFF: Time 26376, Note Name: D5
Note OFF: Time 26376, Note Name: A#4
Note OFF: Time 26376, Note Name: G5
Note ON: Time 26400, Note Name: G5, Velocity: 66
Note ON: Time 26400, Note Name: D5, Velocity: 55
Note ON: Time 26400, Note Name: A#4, Velocity: 55
Note OFF: Time 26640, Note Name: A#4
Note OFF: Time 26640, Note Name: D5
Note OFF: Time 26640, Note Name: G5
Note ON: Time 26640, Note Name: A4, Velocity: 53
Note ON: Time 26640, Note Name: C#5, Velocity: 53
Note ON: Time 26640, Note Name: A5, Velocity: 63
Note OFF: Time 26880, Note Name: A5
Note OFF: Time 26880, Note Name: C#5
Note OFF: Time 26880, Note Name: A4
Note ON: Time 27120, Note Name: D5, Velocity: 45
Note ON: Time 27120, Note Name: C6, Velocity: 62
Note ON: Time 27120, Note Name: F5, Velocity: 45
Note OFF: Time 27360, Note Name: C6
Note ON: Time 27360, Note Name: A#5, Velocity: 57
Note OFF: Time 27480, Note Name: A#5
Note ON: Time 27480, Note Name: A5, Velocity: 54
Note OFF: Time 27600, Note Name: A5
Note ON: Time 27600, Note Name: G5, Velocity: 57
Note OFF: Time 27840, Note Name: F5
Note OFF: Time 27840, Note Name: D5
Note OFF: Time 27960, Note Name: G5
Note ON: Time 27960, Note Name: F5, Velocity: 54
Note OFF: Time 28080, Note Name: F5
Note ON: Time 28080, Note Name: G5, Velocity: 52
Note OFF: Time 28200, Note Name: G5
Note ON: Time 28200, Note Name: A5, Velocity: 52
Note OFF: Time 28320, Note Name: A5
Note ON: Time 28320, Note Name: E5, Velocity: 57
Note ON: Time 28320, Note Name: A#4, Velocity: 45
Note OFF: Time 28560, Note Name: E5
Note ON: Time 28560, Note Name: D5, Velocity: 54
Note OFF: Time 28800, Note Name: D5
Note OFF: Time 28800, Note Name: A#4
Note ON: Time 28800, Note Name: F4, Velocity: 56
Note ON: Time 29040, Note Name: C5, Velocity: 53
Note OFF: Time 29280, Note Name: C5
Note ON: Time 29280, Note Name: A#4, Velocity: 52
Note OFF: Time 29400, Note Name: A#4
Note ON: Time 29400, Note Name: A4, Velocity: 52
Note OFF: Time 29520, Note Name: A4
Note OFF: Time 29520, Note Name: F4
Note ON: Time 29520, Note Name: G4, Velocity: 54
Note ON: Time 29520, Note Name: D4, Velocity: 54
Note OFF: Time 29640, Note Name: G4
Note ON: Time 29640, Note Name: F4, Velocity: 52
Note OFF: Time 29760, Note Name: F4
Note ON: Time 29760, Note Name: G4, Velocity: 53
Note OFF: Time 29880, Note Name: G4
Note ON: Time 29880, Note Name: A4, Velocity: 53
Note OFF: Time 29980, Note Name: A4
Note OFF: Time 30000, Note Name: D4
Note ON: Time 30000, Note Name: A#3, Velocity: 56
Note ON: Time 30000, Note Name: E4, Velocity: 66
Note OFF: Time 30220, Note Name: E4
Note ON: Time 30240, Note Name: D4, Velocity: 63
Note OFF: Time 30460, Note Name: D4
Note ON: Time 30480, Note Name: F4, Velocity: 68
Note OFF: Time 30680, Note Name: F4
Note OFF: Time 30720, Note Name: A#3
Note ON: Time 30960, Note Name: C4, Velocity: 61
Note ON: Time 30960, Note Name: E3, Velocity: 51
Note ON: Time 30960, Note Name: A3, Velocity: 51
Note OFF: Time 31080, Note Name: A3
Note OFF: Time 31080, Note Name: E3
Note OFF: Time 31080, Note Name: C4
Note ON: Time 31200, Note Name: A3, Velocity: 59
Note ON: Time 31200, Note Name: D3, Velocity: 50
Note ON: Time 31200, Note Name: F3, Velocity: 50
Note OFF: Time 31320, Note Name: F3
Note OFF: Time 31320, Note Name: D3
Note OFF: Time 31320, Note Name: A3
Note ON: Time 31440, Note Name: G3, Velocity: 51
Note ON: Time 31440, Note Name: C4, Velocity: 61
Note ON: Time 31440, Note Name: E3, Velocity: 51
Note OFF: Time 31560, Note Name: E3
Note OFF: Time 31560, Note Name: C4
Note OFF: Time 31560, Note Name: G3
Note ON: Time 31920, Note Name: A3, Velocity: 53
Note ON: Time 31920, Note Name: C4, Velocity: 63
Note OFF: Time 32000, Note Name: C4
Note ON: Time 32000, Note Name: D4, Velocity: 63
Note OFF: Time 32080, Note Name: D4
Note ON: Time 32080, Note Name: C4, Velocity: 63
Note OFF: Time 32160, Note Name: C4
Note OFF: Time 32160, Note Name: A3
Note ON: Time 32160, Note Name: F3, Velocity: 55
Note ON: Time 32160, Note Name: A3, Velocity: 66
Note OFF: Time 32400, Note Name: A3
Note OFF: Time 32400, Note Name: F3
Note ON: Time 32400, Note Name: G3, Velocity: 55
Note ON: Time 32400, Note Name: C4, Velocity: 66
Note OFF: Time 32640, Note Name: C4
Note OFF: Time 32640, Note Name: G3
Note ON: Time 32640, Note Name: D4, Velocity: 59
Note ON: Time 32640, Note Name: A#3, Velocity: 50
Note OFF: Time 32880, Note Name: A#3
Note OFF: Time 32880, Note Name: D4
Note ON: Time 32880, Note Name: F4, Velocity: 57
Note ON: Time 32880, Note Name: C4, Velocity: 48
Note OFF: Time 33120, Note Name: C4
Note OFF: Time 33120, Note Name: F4
Note ON: Time 33120, Note Name: G4, Velocity: 54
Note ON: Time 33120, Note Name: D4, Velocity: 45
Note OFF: Time 33840, Note Name: G4
Note ON: Time 33840, Note Name: G4, Velocity: 49
Note OFF: Time 33920, Note Name: G4
Note ON: Time 33920, Note Name: A4, Velocity: 49
Note OFF: Time 34000, Note Name: A4
Note ON: Time 34000, Note Name: G4, Velocity: 49
Note OFF: Time 34080, Note Name: G4
Note OFF: Time 34080, Note Name: D4
Note ON: Time 34080, Note Name: D4, Velocity: 45
Note ON: Time 34080, Note Name: F4, Velocity: 54
Note OFF: Time 34320, Note Name: F4
Note ON: Time 34320, Note Name: E4, Velocity: 51
Note OFF: Time 34560, Note Name: E4
Note OFF: Time 34560, Note Name: D4
Note ON: Time 34560, Note Name: A#3, Velocity: 43
Note ON: Time 34560, Note Name: F4, Velocity: 51
Note ON: Time 34560, Note Name: D4, Velocity: 43
Note OFF: Time 35040, Note Name: D4
Note OFF: Time 35040, Note Name: A#3
Note ON: Time 35040, Note Name: C4, Velocity: 39
Note ON: Time 35040, Note Name: A3, Velocity: 33
Note OFF: Time 35280, Note Name: A3
Note OFF: Time 35280, Note Name: C4
Note ON: Time 35280, Note Name: A#3, Velocity: 36
Note ON: Time 35280, Note Name: G3, Velocity: 30
Note OFF: Time 35520, Note Name: G3
Note OFF: Time 35520, Note Name: A#3
Note ON: Time 35520, Note Name: C4, Velocity: 33
Note ON: Time 35520, Note Name: A3, Velocity: 27
Note OFF: Time 35758, Note Name: C4
Note OFF: Time 36000, Note Name: F4
Note OFF: Time 36480, Note Name: A3
Note ON: Time 36480, Note Name: E6, Velocity: 48
Note ON: Time 36480, Note Name: E5, Velocity: 33
Note OFF: Time 36720, Note Name: E6
Note ON: Time 36720, Note Name: B5, Velocity: 43
Note OFF: Time 37200, Note Name: B5
Note ON: Time 37200, Note Name: A5, Velocity: 45
Note OFF: Time 37680, Note Name: A5
Note ON: Time 37680, Note Name: E5, Velocity: 42
Note OFF: Time 37920, Note Name: E5
Note OFF: Time 37920, Note Name: E5
Note ON: Time 37920, Note Name: F4, Velocity: 32
Note ON: Time 37920, Note Name: B4, Velocity: 39
Note OFF: Time 37980, Note Name: B4
Note ON: Time 37980, Note Name: A4, Velocity: 39
Note OFF: Time 38040, Note Name: A4
Note ON: Time 38040, Note Name: B4, Velocity: 39
Note OFF: Time 38100, Note Name: B4
Note ON: Time 38100, Note Name: D5, Velocity: 39
Note OFF: Time 38160, Note Name: D5
Note OFF: Time 38160, Note Name: F4
Note ON: Time 38400, Note Name: E6, Velocity: 48
Note ON: Time 38400, Note Name: E5, Velocity: 33
Note OFF: Time 38640, Note Name: E6
Note ON: Time 38640, Note Name: B5, Velocity: 43
Note OFF: Time 39120, Note Name: B5
Note ON: Time 39120, Note Name: A5, Velocity: 45
Note OFF: Time 39600, Note Name: A5
Note ON: Time 39600, Note Name: E5, Velocity: 42
Note OFF: Time 39840, Note Name: E5
Note OFF: Time 39840, Note Name: E5
Note ON: Time 39840, Note Name: F4, Velocity: 39
Note ON: Time 39840, Note Name: B4, Velocity: 39
Note OFF: Time 40080, Note Name: B4
Note ON: Time 40080, Note Name: A4, Velocity: 39
Note OFF: Time 40320, Note Name: F4
Note OFF: Time 40380, Note Name: A4
Note ON: Time 40380, Note Name: B4, Velocity: 35
Note OFF: Time 40440, Note Name: B4
Note ON: Time 40440, Note Name: A4, Velocity: 37
Note OFF: Time 40500, Note Name: A4
Note ON: Time 40500, Note Name: G4, Velocity: 39
Note OFF: Time 40560, Note Name: G4
Note ON: Time 40560, Note Name: C4, Velocity: 30
Note ON: Time 40560, Note Name: E4, Velocity: 36
Note OFF: Time 41040, Note Name: E4
Note OFF: Time 41040, Note Name: C4
Note ON: Time 41040, Note Name: A3, Velocity: 32
Note ON: Time 41040, Note Name: D4, Velocity: 38
Note OFF: Time 41520, Note Name: D4
Note ON: Time 41520, Note Name: E4, Velocity: 41
Note OFF: Time 41760, Note Name: E4
Note ON: Time 41760, Note Name: F4, Velocity: 45
Note OFF: Time 42000, Note Name: F4
Note ON: Time 42000, Note Name: A4, Velocity: 41
Note OFF: Time 42220, Note Name: A4
Note OFF: Time 42240, Note Name: A3
Note ON: Time 42240, Note Name: E4, Velocity: 38
Note ON: Time 42240, Note Name: B3, Velocity: 32
Note OFF: Time 42480, Note Name: E4
Note ON: Time 42480, Note Name: D4, Velocity: 36
Note OFF: Time 42600, Note Name: D4
Note ON: Time 42600, Note Name: E4, Velocity: 34
Note OFF: Time 42720, Note Name: E4
Note ON: Time 42720, Note Name: D4, Velocity: 37
Note OFF: Time 42920, Note Name: D4
Note ON: Time 42960, Note Name: E4, Velocity: 38
Note OFF: Time 43200, Note Name: B3
Note ON: Time 43200, Note Name: A3, Velocity: 28
Note OFF: Time 43440, Note Name: E4
Note ON: Time 43440, Note Name: D4, Velocity: 32
Note OFF: Time 43560, Note Name: D4
Note ON: Time 43560, Note Name: E4, Velocity: 30
Note OFF: Time 43680, Note Name: E4
Note ON: Time 43680, Note Name: D4, Velocity: 31
Note OFF: Time 43880, Note Name: D4
Note OFF: Time 43920, Note Name: A3
Note ON: Time 43920, Note Name: B3, Velocity: 24
Note ON: Time 43920, Note Name: E4, Velocity: 24
Note ON: Time 43920, Note Name: G3, Velocity: 19
Note OFF: Time 44160, Note Name: G3
Note OFF: Time 44160, Note Name: E4
Note OFF: Time 44160, Note Name: B3
Note ON: Time 44160, Note Name: E6, Velocity: 45
Note ON: Time 44160, Note Name: E5, Velocity: 30
Note OFF: Time 44400, Note Name: E6
Note ON: Time 44400, Note Name: B5, Velocity: 43
Note OFF: Time 44880, Note Name: B5
Note ON: Time 44880, Note Name: A5, Velocity: 45
Note OFF: Time 45360, Note Name: A5
Note ON: Time 45360, Note Name: E5, Velocity: 42
Note OFF: Time 45600, Note Name: E5
Note OFF: Time 45600, Note Name: E5
Note ON: Time 45600, Note Name: F4, Velocity: 32
Note ON: Time 45600, Note Name: B4, Velocity: 39
Note OFF: Time 45660, Note Name: B4
Note ON: Time 45660, Note Name: A4, Velocity: 39
Note OFF: Time 45720, Note Name: A4
Note ON: Time 45720, Note Name: B4, Velocity: 39
Note OFF: Time 45780, Note Name: B4
Note ON: Time 45780, Note Name: D5, Velocity: 39
Note OFF: Time 45840, Note Name: D5
Note OFF: Time 45840, Note Name: F4
Note ON: Time 46080, Note Name: E6, Velocity: 48
Note ON: Time 46080, Note Name: E5, Velocity: 33
Note OFF: Time 46320, Note Name: E6
Note ON: Time 46320, Note Name: B5, Velocity: 43
Note OFF: Time 46800, Note Name: B5
Note ON: Time 46800, Note Name: A5, Velocity: 43
Note OFF: Time 47040, Note Name: A5
Note OFF: Time 47040, Note Name: E5
Note ON: Time 47040, Note Name: A6, Velocity: 53
Note ON: Time 47040, Note Name: A5, Velocity: 36
Note OFF: Time 47280, Note Name: A6
Note ON: Time 47280, Note Name: E6, Velocity: 46
Note OFF: Time 47760, Note Name: E6
Note ON: Time 47760, Note Name: D6, Velocity: 46
Note OFF: Time 48000, Note Name: D6
Note OFF: Time 48000, Note Name: A5
Note ON: Time 48000, Note Name: D5, Velocity: 35
Note ON: Time 48000, Note Name: B4, Velocity: 29
Note ON: Time 48060, Note Name: E5, Velocity: 36
Note OFF: Time 48080, Note Name: D5
Note ON: Time 48120, Note Name: G5, Velocity: 38
Note OFF: Time 48140, Note Name: E5
Note ON: Time 48180, Note Name: A5, Velocity: 39
Note OFF: Time 48200, Note Name: G5
Note OFF: Time 48240, Note Name: B4
Note ON: Time 48240, Note Name: D6, Velocity: 46
Note OFF: Time 48260, Note Name: A5
Note OFF: Time 48720, Note Name: D6
Note ON: Time 48720, Note Name: E6, Velocity: 43
Note OFF: Time 48960, Note Name: E6
Note ON: Time 48960, Note Name: G4, Velocity: 21
Note ON: Time 48960, Note Name: A4, Velocity: 36
Note ON: Time 49020, Note Name: C5, Velocity: 36
Note OFF: Time 49040, Note Name: A4
Note ON: Time 49080, Note Name: D5, Velocity: 37
Note OFF: Time 49100, Note Name: C5
Note ON: Time 49140, Note Name: E5, Velocity: 38
Note OFF: Time 49160, Note Name: D5
Note OFF: Time 49200, Note Name: G4
Note ON: Time 49200, Note Name: A5, Velocity: 45
Note OFF: Time 49220, Note Name: E5
Note OFF: Time 49560, Note Name: A5
Note ON: Time 49560, Note Name: G5, Velocity: 39
Note OFF: Time 49680, Note Name: G5
Note ON: Time 49680, Note Name: A5, Velocity: 44
Note OFF: Time 49800, Note Name: A5
Note ON: Time 49800, Note Name: C6, Velocity: 42
Note OFF: Time 49920, Note Name: C6
Note ON: Time 49920, Note Name: B4, Velocity: 29
Note ON: Time 49920, Note Name: D5, Velocity: 35
Note ON: Time 49980, Note Name: E5, Velocity: 36
Note OFF: Time 50000, Note Name: D5
Note ON: Time 50040, Note Name: F5, Velocity: 38
Note OFF: Time 50060, Note Name: E5
Note ON: Time 50100, Note Name: A5, Velocity: 39
Note OFF: Time 50120, Note Name: F5
Note OFF: Time 50160, Note Name: B4
Note ON: Time 50160, Note Name: D6, Velocity: 46
Note OFF: Time 50180, Note Name: A5
Note OFF: Time 50640, Note Name: D6
Note ON: Time 50640, Note Name: E6, Velocity: 43
Note OFF: Time 50880, Note Name: E6
Note ON: Time 50880, Note Name: A4, Velocity: 36
Note ON: Time 50880, Note Name: G4, Velocity: 21
Note ON: Time 50940, Note Name: C5, Velocity: 36
Note OFF: Time 50960, Note Name: A4
Note ON: Time 51000, Note Name: D5, Velocity: 37
Note OFF: Time 51020, Note Name: C5
Note ON: Time 51060, Note Name: E5, Velocity: 38
Note OFF: Time 51080, Note Name: D5
Note OFF: Time 51120, Note Name: G4
Note ON: Time 51120, Note Name: A5, Velocity: 45
Note OFF: Time 51140, Note Name: E5
Note OFF: Time 51480, Note Name: A5
Note ON: Time 51480, Note Name: B5, Velocity: 44
Note OFF: Time 51600, Note Name: B5
Note ON: Time 51600, Note Name: A5, Velocity: 44
Note OFF: Time 51720, Note Name: A5
Note ON: Time 51720, Note Name: G5, Velocity: 43
Note OFF: Time 51840, Note Name: G5
Note ON: Time 51840, Note Name: C#4, Velocity: 28
Note ON: Time 51840, Note Name: B3, Velocity: 24
Note ON: Time 51900, Note Name: D#4, Velocity: 30
Note OFF: Time 51920, Note Name: C#4
Note ON: Time 51960, Note Name: F#4, Velocity: 32
Note OFF: Time 51980, Note Name: D#4
Note ON: Time 52020, Note Name: A4, Velocity: 33
Note OFF: Time 52040, Note Name: F#4
Note OFF: Time 52080, Note Name: B3
Note ON: Time 52080, Note Name: C#5, Velocity: 38
Note OFF: Time 52100, Note Name: A4
Note OFF: Time 52560, Note Name: C#5
Note ON: Time 52560, Note Name: D#5, Velocity: 34
Note OFF: Time 52800, Note Name: D#5
Note ON: Time 52800, Note Name: B3, Velocity: 18
Note ON: Time 52800, Note Name: C#4, Velocity: 30
Note ON: Time 52860, Note Name: D#4, Velocity: 30
Note OFF: Time 52880, Note Name: C#4
Note ON: Time 52920, Note Name: E4, Velocity: 31
Note OFF: Time 52940, Note Name: D#4
Note ON: Time 52980, Note Name: F#4, Velocity: 32
Note OFF: Time 53000, Note Name: E4
Note OFF: Time 53040, Note Name: B3
Note ON: Time 53040, Note Name: G#4, Velocity: 38
Note OFF: Time 53060, Note Name: F#4
Note OFF: Time 53400, Note Name: G#4
Note ON: Time 53400, Note Name: B4, Velocity: 33
Note OFF: Time 53520, Note Name: B4
Note ON: Time 53520, Note Name: G#4, Velocity: 36
Note OFF: Time 53640, Note Name: G#4
Note ON: Time 53640, Note Name: B4, Velocity: 34
Note OFF: Time 53760, Note Name: B4
Note ON: Time 53760, Note Name: C#4, Velocity: 28
Note ON: Time 53760, Note Name: B3, Velocity: 24
Note ON: Time 53820, Note Name: D#4, Velocity: 30
Note OFF: Time 53840, Note Name: C#4
Note ON: Time 53880, Note Name: F#4, Velocity: 32
Note OFF: Time 53900, Note Name: D#4
Note ON: Time 53940, Note Name: A4, Velocity: 33
Note OFF: Time 53960, Note Name: F#4
Note OFF: Time 54000, Note Name: B3
Note ON: Time 54000, Note Name: C#5, Velocity: 38
Note OFF: Time 54020, Note Name: A4
Note OFF: Time 54360, Note Name: C#5
Note ON: Time 54360, Note Name: D#5, Velocity: 35
Note OFF: Time 54480, Note Name: D#5
Note ON: Time 54480, Note Name: C#5, Velocity: 38
Note OFF: Time 54600, Note Name: C#5
Note ON: Time 54600, Note Name: D#5, Velocity: 36
Note OFF: Time 54720, Note Name: D#5
Note ON: Time 54720, Note Name: B4, Velocity: 27
Note ON: Time 54720, Note Name: C#5, Velocity: 37
Note ON: Time 54780, Note Name: D#5, Velocity: 37
Note OFF: Time 54800, Note Name: C#5
Note ON: Time 54840, Note Name: E5, Velocity: 38
Note OFF: Time 54860, Note Name: D#5
Note ON: Time 54900, Note Name: F#5, Velocity: 39
Note OFF: Time 54920, Note Name: E5
Note OFF: Time 54960, Note Name: B4
Note ON: Time 54960, Note Name: G#5, Velocity: 47
Note OFF: Time 54980, Note Name: F#5
Note OFF: Time 55320, Note Name: G#5
Note ON: Time 55320, Note Name: B5, Velocity: 47
Note OFF: Time 55440, Note Name: B5
Note ON: Time 55440, Note Name: G#5, Velocity: 54
Note OFF: Time 55560, Note Name: G#5
Note ON: Time 55560, Note Name: B5, Velocity: 53
Note OFF: Time 55680, Note Name: B5
Note ON: Time 55680, Note Name: D6, Velocity: 53
Note ON: Time 55680, Note Name: F5, Velocity: 45
Note OFF: Time 55920, Note Name: D6
Note ON: Time 55920, Note Name: C6, Velocity: 52
Note OFF: Time 56040, Note Name: C6
Note ON: Time 56040, Note Name: B5, Velocity: 52
Note OFF: Time 56160, Note Name: B5
Note OFF: Time 56160, Note Name: F5
Note ON: Time 56160, Note Name: D5, Velocity: 42
Note ON: Time 56160, Note Name: A5, Velocity: 53
Note OFF: Time 56280, Note Name: A5
Note ON: Time 56280, Note Name: G5, Velocity: 51
Note OFF: Time 56400, Note Name: G5
Note ON: Time 56400, Note Name: A5, Velocity: 51
Note OFF: Time 56520, Note Name: A5
Note ON: Time 56520, Note Name: B5, Velocity: 51
Note OFF: Time 56620, Note Name: B5
Note OFF: Time 56640, Note Name: D5
Note ON: Time 56640, Note Name: E5, Velocity: 53
Note ON: Time 56640, Note Name: B4, Velocity: 42
Note OFF: Time 56760, Note Name: E5
Note ON: Time 56760, Note Name: F5, Velocity: 51
Note OFF: Time 56880, Note Name: F5
Note OFF: Time 56880, Note Name: B4
Note ON: Time 56880, Note Name: A4, Velocity: 39
Note ON: Time 56880, Note Name: G5, Velocity: 51
Note OFF: Time 57000, Note Name: G5
Note ON: Time 57000, Note Name: A5, Velocity: 51
Note OFF: Time 57100, Note Name: A5
Note ON: Time 57120, Note Name: D5, Velocity: 53
Note OFF: Time 57240, Note Name: D5
Note ON: Time 57240, Note Name: E5, Velocity: 49
Note OFF: Time 57360, Note Name: E5
Note OFF: Time 57360, Note Name: A4
Note ON: Time 57360, Note Name: F5, Velocity: 49
Note ON: Time 57360, Note Name: G4, Velocity: 39
Note OFF: Time 57480, Note Name: F5
Note ON: Time 57480, Note Name: G5, Velocity: 49
Note OFF: Time 57580, Note Name: G5
Note ON: Time 57600, Note Name: C5, Velocity: 53
Note OFF: Time 57720, Note Name: C5
Note ON: Time 57720, Note Name: D5, Velocity: 52
Note OFF: Time 57840, Note Name: D5
Note OFF: Time 57840, Note Name: G4
Note ON: Time 57840, Note Name: E5, Velocity: 52
Note ON: Time 57840, Note Name: F4, Velocity: 39
Note OFF: Time 57960, Note Name: E5
Note ON: Time 57960, Note Name: F5, Velocity: 52
Note OFF: Time 58080, Note Name: F5
Note ON: Time 58080, Note Name: B4, Velocity: 56
Note OFF: Time 58320, Note Name: F4
Note ON: Time 58320, Note Name: G4, Velocity: 45
Note OFF: Time 58560, Note Name: G4
Note ON: Time 58560, Note Name: A4, Velocity: 41
Note OFF: Time 58660, Note Name: B4
Note ON: Time 58680, Note Name: C5, Velocity: 51
Note OFF: Time 58800, Note Name: C5
Note OFF: Time 58800, Note Name: A4
Note ON: Time 58800, Note Name: G4, Velocity: 33
Note ON: Time 58800, Note Name: D5, Velocity: 48
Note OFF: Time 58920, Note Name: D5
Note ON: Time 58920, Note Name: E5, Velocity: 46
Note OFF: Time 59040, Note Name: E5
Note OFF: Time 59040, Note Name: G4
Note ON: Time 59040, Note Name: F4, Velocity: 45
Note ON: Time 59040, Note Name: A4, Velocity: 45
Note OFF: Time 59280, Note Name: F4
Note ON: Time 59280, Note Name: E4, Velocity: 38
Note OFF: Time 59520, Note Name: E4
Note ON: Time 59520, Note Name: D#4, Velocity: 35
Note OFF: Time 59760, Note Name: A4
Note ON: Time 59760, Note Name: B4, Velocity: 43
Note OFF: Time 59880, Note Name: B4
Note ON: Time 59880, Note Name: A4, Velocity: 43
Note OFF: Time 60000, Note Name: A4
Note ON: Time 60000, Note Name: G#4, Velocity: 45
Note OFF: Time 60120, Note Name: G#4
Note ON: Time 60120, Note Name: A4, Velocity: 43
Note OFF: Time 60240, Note Name: A4
Note ON: Time 60240, Note Name: F#4, Velocity: 45
Note OFF: Time 60360, Note Name: F#4
Note ON: Time 60360, Note Name: G#4, Velocity: 43
Note OFF: Time 60480, Note Name: G#4
Note ON: Time 60480, Note Name: A4, Velocity: 45
Note OFF: Time 60700, Note Name: A4
Note ON: Time 60720, Note Name: B4, Velocity: 43
Note OFF: Time 60840, Note Name: B4
Note ON: Time 60840, Note Name: A4, Velocity: 43
Note OFF: Time 60960, Note Name: A4
Note ON: Time 60960, Note Name: F#4, Velocity: 45
Note OFF: Time 61200, Note Name: F#4
Note ON: Time 61200, Note Name: G#4, Velocity: 43
Note OFF: Time 61440, Note Name: G#4
Note OFF: Time 61440, Note Name: D#4
Note ON: Time 61440, Note Name: A4, Velocity: 27
Note ON: Time 61440, Note Name: A3, Velocity: 22
Note ON: Time 61440, Note Name: E4, Velocity: 43
Note OFF: Time 61660, Note Name: E4
Note ON: Time 61680, Note Name: F#4, Velocity: 38
Note OFF: Time 61800, Note Name: F#4
Note ON: Time 61800, Note Name: E4, Velocity: 38
Note OFF: Time 61920, Note Name: E4
Note ON: Time 61920, Note Name: C4, Velocity: 38
Note OFF: Time 62040, Note Name: C4
Note ON: Time 62040, Note Name: D4, Velocity: 37
Note OFF: Time 62160, Note Name: D4
Note ON: Time 62160, Note Name: E4, Velocity: 36
Note OFF: Time 62620, Note Name: E4
Note ON: Time 62640, Note Name: F#4, Velocity: 38
Note OFF: Time 62760, Note Name: F#4
Note ON: Time 62760, Note Name: E4, Velocity: 38
Note OFF: Time 62880, Note Name: E4
Note ON: Time 62880, Note Name: C4, Velocity: 38
Note OFF: Time 63000, Note Name: C4
Note ON: Time 63000, Note Name: D4, Velocity: 37
Note OFF: Time 63120, Note Name: D4
Note ON: Time 63120, Note Name: E4, Velocity: 36
Note OFF: Time 63360, Note Name: A3
Note OFF: Time 63360, Note Name: A4
Note ON: Time 63360, Note Name: A#3, Velocity: 25
Note OFF: Time 63590, Note Name: E4
Note ON: Time 63600, Note Name: F#4, Velocity: 37
Note OFF: Time 63720, Note Name: F#4
Note ON: Time 63720, Note Name: E4, Velocity: 37
Note OFF: Time 63840, Note Name: E4
Note ON: Time 63840, Note Name: C4, Velocity: 37
Note OFF: Time 63960, Note Name: C4
Note ON: Time 63960, Note Name: D4, Velocity: 35
Note OFF: Time 64080, Note Name: D4
Note ON: Time 64080, Note Name: E4, Velocity: 34
Note OFF: Time 64540, Note Name: E4
Note ON: Time 64560, Note Name: F#4, Velocity: 35
Note OFF: Time 64680, Note Name: F#4
Note ON: Time 64680, Note Name: E4, Velocity: 35
Note OFF: Time 64800, Note Name: E4
Note ON: Time 64800, Note Name: C4, Velocity: 34
Note OFF: Time 64920, Note Name: C4
Note ON: Time 64920, Note Name: D4, Velocity: 31
Note OFF: Time 65040, Note Name: D4
Note ON: Time 65040, Note Name: E4, Velocity: 28
Note OFF: Time 65280, Note Name: A#3
Note ON: Time 65280, Note Name: D4, Velocity: 38
Note OFF: Time 65460, Note Name: D4
Note OFF: Time 65520, Note Name: E4
Note ON: Time 65520, Note Name: E4, Velocity: 41
Note OFF: Time 65640, Note Name: E4
Note ON: Time 65640, Note Name: F#4, Velocity: 41
Note OFF: Time 65700, Note Name: F#4
Note ON: Time 65760, Note Name: G#4, Velocity: 41
Note OFF: Time 65820, Note Name: G#4
Note ON: Time 65880, Note Name: A4, Velocity: 41
Note OFF: Time 65940, Note Name: A4
Note ON: Time 66000, Note Name: B4, Velocity: 41
Note OFF: Time 66060, Note Name: B4
Note ON: Time 66120, Note Name: C5, Velocity: 41
Note OFF: Time 66180, Note Name: C5
Note ON: Time 66240, Note Name: D5, Velocity: 39
Note OFF: Time 66300, Note Name: D5
Note ON: Time 66360, Note Name: E5, Velocity: 39
Note OFF: Time 66420, Note Name: E5
Note ON: Time 66480, Note Name: F#5, Velocity: 38
Note OFF: Time 66540, Note Name: F#5
Note ON: Time 66600, Note Name: G#5, Velocity: 37
Note OFF: Time 66660, Note Name: G#5
Note ON: Time 66720, Note Name: A5, Velocity: 37
Note OFF: Time 66780, Note Name: A5
Note ON: Time 66840, Note Name: B5, Velocity: 36
Note OFF: Time 66900, Note Name: B5
Note ON: Time 66960, Note Name: C6, Velocity: 35
Note OFF: Time 67020, Note Name: C6
Note ON: Time 67080, Note Name: D6, Velocity: 35
Note OFF: Time 67140, Note Name: D6
Note ON: Time 67200, Note Name: E6, Velocity: 45
Note ON: Time 67200, Note Name: E5, Velocity: 30
Note OFF: Time 67440, Note Name: E6
Note ON: Time 67440, Note Name: B5, Velocity: 41
Note OFF: Time 67920, Note Name: B5
Note ON: Time 67920, Note Name: A5, Velocity: 45
Note OFF: Time 68400, Note Name: A5
Note ON: Time 68400, Note Name: E5, Velocity: 42
Note OFF: Time 68640, Note Name: E5
Note OFF: Time 68640, Note Name: E5
Note ON: Time 68640, Note Name: B4, Velocity: 39
Note ON: Time 68640, Note Name: F4, Velocity: 39
Note OFF: Time 68700, Note Name: B4
Note ON: Time 68700, Note Name: A4, Velocity: 39
Note OFF: Time 68760, Note Name: A4
Note ON: Time 68760, Note Name: B4, Velocity: 39
Note OFF: Time 68820, Note Name: B4
Note ON: Time 68820, Note Name: D5, Velocity: 39
Note OFF: Time 68880, Note Name: D5
Note OFF: Time 68880, Note Name: F4
Note ON: Time 69120, Note Name: E5, Velocity: 33
Note ON: Time 69120, Note Name: E6, Velocity: 48
Note OFF: Time 69360, Note Name: E6
Note ON: Time 69360, Note Name: B5, Velocity: 43
Note OFF: Time 69840, Note Name: B5
Note ON: Time 69840, Note Name: A5, Velocity: 45
Note OFF: Time 70320, Note Name: A5
Note ON: Time 70320, Note Name: E5, Velocity: 42
Note OFF: Time 70560, Note Name: E5
Note OFF: Time 70560, Note Name: E5
Note ON: Time 70560, Note Name: B4, Velocity: 39
Note ON: Time 70560, Note Name: F#4, Velocity: 33
Note OFF: Time 70800, Note Name: F#4
Note OFF: Time 70800, Note Name: B4
Note ON: Time 70800, Note Name: A4, Velocity: 39
Note ON: Time 71040, Note Name: F4, Velocity: 39
Note OFF: Time 71100, Note Name: A4
Note ON: Time 71100, Note Name: B4, Velocity: 35
Note OFF: Time 71160, Note Name: B4
Note ON: Time 71160, Note Name: A4, Velocity: 37
Note OFF: Time 71220, Note Name: A4
Note ON: Time 71220, Note Name: G4, Velocity: 39
Note OFF: Time 71280, Note Name: G4
Note OFF: Time 71280, Note Name: F4
Note ON: Time 71280, Note Name: C4, Velocity: 30
Note ON: Time 71280, Note Name: E4, Velocity: 36
Note OFF: Time 71760, Note Name: E4
Note OFF: Time 71760, Note Name: C4
Note ON: Time 71760, Note Name: A3, Velocity: 32
Note ON: Time 71760, Note Name: D4, Velocity: 38
Note OFF: Time 72240, Note Name: D4
Note ON: Time 72240, Note Name: E4, Velocity: 41
Note OFF: Time 72480, Note Name: E4
Note ON: Time 72480, Note Name: F4, Velocity: 45
Note OFF: Time 72720, Note Name: F4
Note ON: Time 72720, Note Name: A4, Velocity: 41
Note OFF: Time 72940, Note Name: A4
Note OFF: Time 72960, Note Name: A3
Note ON: Time 72960, Note Name: E4, Velocity: 38
Note ON: Time 72960, Note Name: B3, Velocity: 32
Note OFF: Time 73200, Note Name: E4
Note ON: Time 73200, Note Name: D4, Velocity: 36
Note OFF: Time 73320, Note Name: D4
Note ON: Time 73320, Note Name: E4, Velocity: 34
Note OFF: Time 73440, Note Name: E4
Note ON: Time 73440, Note Name: D4, Velocity: 37
Note OFF: Time 73640, Note Name: D4
Note ON: Time 73680, Note Name: E4, Velocity: 38
Note OFF: Time 73920, Note Name: B3
Note OFF: Time 74160, Note Name: E4
Note ON: Time 74160, Note Name: D4, Velocity: 32
Note OFF: Time 74280, Note Name: D4
Note ON: Time 74280, Note Name: E4, Velocity: 30
Note OFF: Time 74400, Note Name: E4
Note ON: Time 74400, Note Name: D4, Velocity: 31
Note ON: Time 74400, Note Name: A3, Velocity: 26
Note OFF: Time 74600, Note Name: A3
Note OFF: Time 74600, Note Name: D4
Note ON: Time 74640, Note Name: B3, Velocity: 19
Note ON: Time 74640, Note Name: G3, Velocity: 19
Note ON: Time 74640, Note Name: E4, Velocity: 24
Note OFF: Time 74880, Note Name: E4
Note OFF: Time 74880, Note Name: G3
Note OFF: Time 74880, Note Name: B3
Note ON: Time 74880, Note Name: E6, Velocity: 45
Note ON: Time 74880, Note Name: E5, Velocity: 30
Note OFF: Time 75120, Note Name: E6
Note ON: Time 75120, Note Name: B5, Velocity: 43
Note OFF: Time 75600, Note Name: B5
Note ON: Time 75600, Note Name: A5, Velocity: 45
Note OFF: Time 76080, Note Name: A5
Note ON: Time 76080, Note Name: E5, Velocity: 42
Note OFF: Time 76320, Note Name: E5
Note OFF: Time 76320, Note Name: E5
Note ON: Time 76320, Note Name: F4, Velocity: 33
Note ON: Time 76320, Note Name: B4, Velocity: 39
Note OFF: Time 76380, Note Name: B4
Note ON: Time 76380, Note Name: A4, Velocity: 39
Note OFF: Time 76440, Note Name: A4
Note ON: Time 76440, Note Name: B4, Velocity: 39
Note OFF: Time 76500, Note Name: B4
Note ON: Time 76500, Note Name: D5, Velocity: 39
Note OFF: Time 76560, Note Name: D5
Note OFF: Time 76560, Note Name: F4
Note ON: Time 76800, Note Name: E6, Velocity: 48
Note ON: Time 76800, Note Name: E5, Velocity: 33
Note OFF: Time 77040, Note Name: E6
Note ON: Time 77040, Note Name: B5, Velocity: 43
Note OFF: Time 77520, Note Name: B5
Note ON: Time 77520, Note Name: A5, Velocity: 43
Note OFF: Time 77760, Note Name: A5
Note OFF: Time 77760, Note Name: E5
Note ON: Time 77760, Note Name: E4, Velocity: 31
Note ON: Time 77760, Note Name: E5, Velocity: 42
Note OFF: Time 78000, Note Name: E5
Note ON: Time 78000, Note Name: B4, Velocity: 37
Note OFF: Time 78480, Note Name: B4
Note ON: Time 78480, Note Name: A4, Velocity: 36
Note OFF: Time 78720, Note Name: E4
Note ON: Time 78720, Note Name: A3, Velocity: 37
Note OFF: Time 78960, Note Name: A3
Note OFF: Time 78960, Note Name: A4
Note ON: Time 78960, Note Name: E4, Velocity: 36
Note ON: Time 78960, Note Name: B3, Velocity: 25
Note OFF: Time 79440, Note Name: E4
Note ON: Time 79440, Note Name: D4, Velocity: 35
Note OFF: Time 79680, Note Name: B3
Note ON: Time 79680, Note Name: A3, Velocity: 32
Note OFF: Time 79740, Note Name: D4
Note ON: Time 79740, Note Name: C4, Velocity: 32
Note OFF: Time 79800, Note Name: C4
Note ON: Time 79800, Note Name: D4, Velocity: 32
Note OFF: Time 79860, Note Name: D4
Note ON: Time 79860, Note Name: E4, Velocity: 32
Note OFF: Time 79920, Note Name: E4
Note OFF: Time 79920, Note Name: A3
Note ON: Time 79920, Note Name: F3, Velocity: 24
Note ON: Time 79920, Note Name: A3, Velocity: 34
Note OFF: Time 80400, Note Name: A3
Note OFF: Time 80400, Note Name: F3
Note ON: Time 80400, Note Name: B3, Velocity: 32
Note ON: Time 80400, Note Name: E3, Velocity: 22
Note OFF: Time 80640, Note Name: E3
Note OFF: Time 80640, Note Name: B3
Note ON: Time 80880, Note Name: E3, Velocity: 22
Note ON: Time 80880, Note Name: A3, Velocity: 27
Note OFF: Time 80970, Note Name: A3
Note OFF: Time 80970, Note Name: E3
Note ON: Time 81360, Note Name: D3, Velocity: 20
Note ON: Time 81360, Note Name: F3, Velocity: 25
Note OFF: Time 81420, Note Name: F3
Note OFF: Time 81420, Note Name: D3
Note ON: Time 81600, Note Name: E3, Velocity: 22
Note ON: Time 81600, Note Name: A3, Velocity: 27
Note OFF: Time 81660, Note Name: A3
Note OFF: Time 81660, Note Name: E3
Note ON: Time 81840, Note Name: E3, Velocity: 22
Note ON: Time 81840, Note Name: A3, Velocity: 27
Note OFF: Time 81900, Note Name: A3
Note OFF: Time 81900, Note Name: E3
Note ON: Time 82800, Note Name: C3, Velocity: 36
Note OFF: Time 82920, Note Name: C3
Note ON: Time 82920, Note Name: D3, Velocity: 36
Note OFF: Time 83040, Note Name: D3
Note ON: Time 83040, Note Name: C3, Velocity: 32
Note ON: Time 83040, Note Name: E3, Velocity: 38
Note OFF: Time 83760, Note Name: E3
Note ON: Time 83760, Note Name: D3, Velocity: 32
Note ON: Time 83760, Note Name: F3, Velocity: 38
Note OFF: Time 84000, Note Name: F3
Note OFF: Time 84000, Note Name: D3
Note ON: Time 84000, Note Name: E3, Velocity: 32
Note ON: Time 84000, Note Name: G3, Velocity: 38
Note OFF: Time 84240, Note Name: G3
Note OFF: Time 84240, Note Name: E3
Note ON: Time 84240, Note Name: A3, Velocity: 32
Note ON: Time 84240, Note Name: F3, Velocity: 38
Note OFF: Time 84480, Note Name: F3
Note OFF: Time 84480, Note Name: A3
Note OFF: Time 84480, Note Name: C3
Note ON: Time 84480, Note Name: G3, Velocity: 36
Note ON: Time 84480, Note Name: C3, Velocity: 36
Note ON: Time 84480, Note Name: A#3, Velocity: 36
Note OFF: Time 84720, Note Name: A#3
Note OFF: Time 84720, Note Name: G3
Note ON: Time 84720, Note Name: A3, Velocity: 37
Note ON: Time 84720, Note Name: C4, Velocity: 37
Note OFF: Time 84960, Note Name: C4
Note OFF: Time 84960, Note Name: A3
Note OFF: Time 84960, Note Name: C3
Note ON: Time 84960, Note Name: D4, Velocity: 38
Note ON: Time 84960, Note Name: F3, Velocity: 32
Note ON: Time 84960, Note Name: A#3, Velocity: 32
Note OFF: Time 85200, Note Name: A#3
Note OFF: Time 85200, Note Name: F3
Note OFF: Time 85200, Note Name: D4
Note ON: Time 85200, Note Name: F4, Velocity: 41
Note ON: Time 85200, Note Name: A3, Velocity: 35
Note ON: Time 85200, Note Name: C4, Velocity: 35
Note OFF: Time 85440, Note Name: C4
Note OFF: Time 85440, Note Name: A3
Note OFF: Time 85440, Note Name: F4
Note ON: Time 85440, Note Name: G4, Velocity: 42
Note ON: Time 85440, Note Name: A#3, Velocity: 35
Note ON: Time 85440, Note Name: D4, Velocity: 35
Note OFF: Time 85670, Note Name: D4
Note OFF: Time 85670, Note Name: A#3
Note OFF: Time 85670, Note Name: G4
Note ON: Time 85680, Note Name: F4, Velocity: 38
Note ON: Time 85680, Note Name: A3, Velocity: 32
Note ON: Time 85680, Note Name: C4, Velocity: 32
Note OFF: Time 86160, Note Name: C4
Note OFF: Time 86160, Note Name: A3
Note OFF: Time 86160, Note Name: F4
Note ON: Time 86160, Note Name: A#3, Velocity: 30
Note ON: Time 86160, Note Name: F3, Velocity: 30
Note ON: Time 86160, Note Name: D4, Velocity: 36
Note OFF: Time 86400, Note Name: D4
Note OFF: Time 86400, Note Name: F3
Note OFF: Time 86400, Note Name: A#3
Note ON: Time 86640, Note Name: C3, Velocity: 36
Note OFF: Time 86760, Note Name: C3
Note ON: Time 86760, Note Name: D3, Velocity: 36
Note OFF: Time 86880, Note Name: D3
Note ON: Time 86880, Note Name: E3, Velocity: 38
Note ON: Time 86880, Note Name: C3, Velocity: 32
Note OFF: Time 87600, Note Name: E3
Note ON: Time 87600, Note Name: F3, Velocity: 38
Note ON: Time 87600, Note Name: D3, Velocity: 38
Note OFF: Time 87840, Note Name: D3
Note OFF: Time 87840, Note Name: F3
Note ON: Time 87840, Note Name: G3, Velocity: 38
Note ON: Time 87840, Note Name: E3, Velocity: 38
Note OFF: Time 88080, Note Name: E3
Note OFF: Time 88080, Note Name: G3
Note ON: Time 88080, Note Name: A3, Velocity: 38
Note ON: Time 88080, Note Name: F3, Velocity: 38
Note OFF: Time 88320, Note Name: F3
Note OFF: Time 88320, Note Name: A3
Note OFF: Time 88320, Note Name: C3
Note ON: Time 88320, Note Name: G3, Velocity: 30
Note ON: Time 88320, Note Name: C3, Velocity: 36
Note ON: Time 88320, Note Name: A#3, Velocity: 36
Note OFF: Time 88560, Note Name: A#3
Note OFF: Time 88560, Note Name: G3
Note ON: Time 88560, Note Name: A3, Velocity: 31
Note ON: Time 88560, Note Name: C4, Velocity: 37
Note OFF: Time 88800, Note Name: C4
Note OFF: Time 88800, Note Name: A3
Note OFF: Time 88800, Note Name: C3
Note ON: Time 88800, Note Name: A#3, Velocity: 34
Note ON: Time 88800, Note Name: F3, Velocity: 34
Note ON: Time 88800, Note Name: D4, Velocity: 40
Note OFF: Time 89040, Note Name: D4
Note OFF: Time 89040, Note Name: F3
Note OFF: Time 89040, Note Name: A#3
Note ON: Time 89040, Note Name: C4, Velocity: 35
Note ON: Time 89040, Note Name: A3, Velocity: 35
Note ON: Time 89040, Note Name: F4, Velocity: 42
Note OFF: Time 89280, Note Name: F4
Note OFF: Time 89280, Note Name: A3
Note OFF: Time 89280, Note Name: C4
Note ON: Time 89280, Note Name: D4, Velocity: 36
Note ON: Time 89280, Note Name: G4, Velocity: 44
Note ON: Time 89280, Note Name: A#3, Velocity: 36
Note OFF: Time 89510, Note Name: A#3
Note OFF: Time 89510, Note Name: G4
Note OFF: Time 89510, Note Name: D4
Note ON: Time 89520, Note Name: F4, Velocity: 39
Note ON: Time 89520, Note Name: A3, Velocity: 33
Note ON: Time 89520, Note Name: C4, Velocity: 33
Note OFF: Time 90000, Note Name: C4
Note OFF: Time 90000, Note Name: A3
Note OFF: Time 90000, Note Name: F4
Note ON: Time 90000, Note Name: D4, Velocity: 33
Note ON: Time 90000, Note Name: G4, Velocity: 39
Note ON: Time 90000, Note Name: A#3, Velocity: 33
Note OFF: Time 90230, Note Name: A#3
Note OFF: Time 90230, Note Name: G4
Note OFF: Time 90230, Note Name: D4
Note ON: Time 90480, Note Name: F4, Velocity: 39
Note OFF: Time 90600, Note Name: F4
Note ON: Time 90600, Note Name: G4, Velocity: 39
Note OFF: Time 90720, Note Name: G4
Note ON: Time 90720, Note Name: A4, Velocity: 42
Note ON: Time 90720, Note Name: F4, Velocity: 35
Note OFF: Time 91440, Note Name: A4
Note ON: Time 91440, Note Name: A#4, Velocity: 42
Note ON: Time 91440, Note Name: G4, Velocity: 35
Note OFF: Time 91680, Note Name: G4
Note OFF: Time 91680, Note Name: A#4
Note ON: Time 91680, Note Name: C5, Velocity: 42
Note ON: Time 91680, Note Name: A4, Velocity: 35
Note OFF: Time 91920, Note Name: A4
Note OFF: Time 91920, Note Name: C5
Note ON: Time 91920, Note Name: D5, Velocity: 42
Note ON: Time 91920, Note Name: A#4, Velocity: 35
Note OFF: Time 92160, Note Name: A#4
Note OFF: Time 92160, Note Name: D5
Note OFF: Time 92160, Note Name: F4
Note ON: Time 92160, Note Name: C5, Velocity: 33
Note ON: Time 92160, Note Name: F4, Velocity: 30
Note ON: Time 92160, Note Name: D#5, Velocity: 39
Note OFF: Time 92400, Note Name: D#5
Note OFF: Time 92400, Note Name: C5
Note ON: Time 92400, Note Name: D5, Velocity: 35
Note ON: Time 92400, Note Name: F5, Velocity: 41
Note OFF: Time 92640, Note Name: F5
Note OFF: Time 92640, Note Name: D5
Note OFF: Time 92640, Note Name: F4
Note ON: Time 92640, Note Name: C5, Velocity: 30
Note ON: Time 92640, Note Name: D#5, Velocity: 35
Note ON: Time 92640, Note Name: G5, Velocity: 42
Note OFF: Time 92880, Note Name: G5
Note OFF: Time 92880, Note Name: D#5
Note ON: Time 92880, Note Name: G5, Velocity: 39
Note ON: Time 92880, Note Name: A#5, Velocity: 46
Note OFF: Time 93120, Note Name: A#5
Note OFF: Time 93120, Note Name: G5
Note OFF: Time 93120, Note Name: C5
Note ON: Time 93120, Note Name: C5, Velocity: 32
Note ON: Time 93120, Note Name: A5, Velocity: 49
Note ON: Time 93120, Note Name: C6, Velocity: 49
Note OFF: Time 93360, Note Name: C6
Note OFF: Time 93360, Note Name: A5
Note ON: Time 93360, Note Name: A5, Velocity: 46
Note ON: Time 93360, Note Name: F5, Velocity: 46
Note OFF: Time 93600, Note Name: F5
Note OFF: Time 93600, Note Name: A5
Note OFF: Time 93600, Note Name: C5
Note ON: Time 93600, Note Name: D#5, Velocity: 43
Note ON: Time 93600, Note Name: C5, Velocity: 27
Note ON: Time 93600, Note Name: G5, Velocity: 43
Note OFF: Time 93840, Note Name: G5
Note OFF: Time 93840, Note Name: D#5
Note ON: Time 93840, Note Name: C5, Velocity: 35
Note ON: Time 93840, Note Name: D#5, Velocity: 41
Note OFF: Time 94080, Note Name: D#5
Note OFF: Time 94080, Note Name: C5
Note OFF: Time 94080, Note Name: C5
Note ON: Time 94320, Note Name: F4, Velocity: 39
Note OFF: Time 94440, Note Name: F4
Note ON: Time 94440, Note Name: G4, Velocity: 39
Note OFF: Time 94560, Note Name: G4
Note ON: Time 94560, Note Name: F4, Velocity: 35
Note ON: Time 94560, Note Name: A4, Velocity: 42
Note OFF: Time 95260, Note Name: A4
Note ON: Time 95280, Note Name: A#4, Velocity: 42
Note ON: Time 95280, Note Name: G4, Velocity: 35
Note OFF: Time 95520, Note Name: G4
Note OFF: Time 95520, Note Name: A#4
Note ON: Time 95520, Note Name: C5, Velocity: 42
Note ON: Time 95520, Note Name: A4, Velocity: 35
Note OFF: Time 95760, Note Name: A4
Note OFF: Time 95760, Note Name: C5
Note ON: Time 95760, Note Name: A#4, Velocity: 35
Note ON: Time 95760, Note Name: D5, Velocity: 42
Note OFF: Time 96000, Note Name: D5
Note OFF: Time 96000, Note Name: A#4
Note OFF: Time 96000, Note Name: F4
Note ON: Time 96000, Note Name: D#5, Velocity: 39
Note ON: Time 96000, Note Name: F4, Velocity: 30
Note ON: Time 96000, Note Name: C5, Velocity: 33
Note OFF: Time 96240, Note Name: C5
Note OFF: Time 96240, Note Name: D#5
Note ON: Time 96240, Note Name: F5, Velocity: 41
Note ON: Time 96240, Note Name: D5, Velocity: 35
Note OFF: Time 96480, Note Name: D5
Note OFF: Time 96480, Note Name: F5
Note OFF: Time 96480, Note Name: F4
Note ON: Time 96480, Note Name: D#5, Velocity: 42
Note ON: Time 96480, Note Name: C5, Velocity: 30
Note ON: Time 96480, Note Name: G5, Velocity: 42
Note OFF: Time 96720, Note Name: G5
Note OFF: Time 96720, Note Name: D#5
Note ON: Time 96720, Note Name: A#5, Velocity: 47
Note ON: Time 96720, Note Name: G5, Velocity: 47
Note OFF: Time 96960, Note Name: G5
Note OFF: Time 96960, Note Name: A#5
Note OFF: Time 96960, Note Name: C5
Note ON: Time 96960, Note Name: E5, Velocity: 35
Note ON: Time 96960, Note Name: C5, Velocity: 35
Note ON: Time 96960, Note Name: C6, Velocity: 52
Note OFF: Time 97180, Note Name: C6
Note ON: Time 97200, Note Name: A5, Velocity: 56
Note OFF: Time 97440, Note Name: A5
Note ON: Time 97440, Note Name: A#5, Velocity: 58
Note OFF: Time 97680, Note Name: A#5
Note ON: Time 97680, Note Name: C6, Velocity: 60
Note OFF: Time 97920, Note Name: C5
Note OFF: Time 97920, Note Name: E5
Note ON: Time 97920, Note Name: F5, Velocity: 63
Note ON: Time 97920, Note Name: D5, Velocity: 54
Note OFF: Time 98140, Note Name: C6
Note ON: Time 98160, Note Name: A5, Velocity: 59
Note OFF: Time 98400, Note Name: A5
Note ON: Time 98400, Note Name: A#5, Velocity: 60
Note OFF: Time 98640, Note Name: A#5
Note ON: Time 98640, Note Name: C6, Velocity: 60
Note OFF: Time 99100, Note Name: C6
Note ON: Time 99120, Note Name: A5, Velocity: 57
Note OFF: Time 99360, Note Name: A5
Note ON: Time 99360, Note Name: A#5, Velocity: 58
Note OFF: Time 99600, Note Name: A#5
Note ON: Time 99600, Note Name: C6, Velocity: 60
Note OFF: Time 99840, Note Name: D5
Note OFF: Time 99840, Note Name: F5
Note ON: Time 99840, Note Name: E5, Velocity: 46
Note ON: Time 99840, Note Name: C#5, Velocity: 39
Note OFF: Time 100080, Note Name: C6
Note ON: Time 100080, Note Name: A#5, Velocity: 53
Note OFF: Time 100200, Note Name: A#5
Note ON: Time 100200, Note Name: A5, Velocity: 53
Note OFF: Time 100320, Note Name: A5
Note ON: Time 100320, Note Name: G5, Velocity: 56
Note OFF: Time 100560, Note Name: G5
Note ON: Time 100560, Note Name: A5, Velocity: 54
Note OFF: Time 100800, Note Name: A5
Note ON: Time 100800, Note Name: A#5, Velocity: 53
Note OFF: Time 101020, Note Name: A#5
Note ON: Time 101040, Note Name: G5, Velocity: 51
Note OFF: Time 101280, Note Name: G5
Note ON: Time 101280, Note Name: A5, Velocity: 51
Note OFF: Time 101520, Note Name: A5
Note ON: Time 101520, Note Name: A#5, Velocity: 51
Note OFF: Time 101760, Note Name: A#5
Note OFF: Time 101760, Note Name: C#5
Note OFF: Time 101760, Note Name: E5
Note ON: Time 101760, Note Name: F5, Velocity: 63
Note ON: Time 101760, Note Name: C6, Velocity: 60
Note ON: Time 101760, Note Name: D5, Velocity: 54
Note OFF: Time 101980, Note Name: C6
Note ON: Time 102000, Note Name: A5, Velocity: 57
Note OFF: Time 102240, Note Name: A5
Note ON: Time 102240, Note Name: A#5, Velocity: 58
Note OFF: Time 102480, Note Name: A#5
Note ON: Time 102480, Note Name: C6, Velocity: 60
Note OFF: Time 102940, Note Name: C6
Note ON: Time 102960, Note Name: A5, Velocity: 54
Note OFF: Time 103200, Note Name: A5
Note ON: Time 103200, Note Name: A#5, Velocity: 54
Note OFF: Time 103440, Note Name: A#5
Note ON: Time 103440, Note Name: C6, Velocity: 54
Note OFF: Time 103680, Note Name: D5
Note OFF: Time 103680, Note Name: F5
Note ON: Time 103680, Note Name: E5, Velocity: 46
Note ON: Time 103680, Note Name: C#5, Velocity: 39
Note OFF: Time 103900, Note Name: C6
Note ON: Time 103920, Note Name: A#5, Velocity: 53
Note OFF: Time 104040, Note Name: A#5
Note ON: Time 104040, Note Name: A5, Velocity: 53
Note OFF: Time 104160, Note Name: A5
Note ON: Time 104160, Note Name: G5, Velocity: 56
Note OFF: Time 104400, Note Name: G5
Note ON: Time 104400, Note Name: A5, Velocity: 54
Note OFF: Time 104640, Note Name: A5
Note ON: Time 104640, Note Name: A#5, Velocity: 54
Note OFF: Time 104820, Note Name: A#5
Note ON: Time 104880, Note Name: G4, Velocity: 42
Note OFF: Time 105120, Note Name: G4
Note ON: Time 105120, Note Name: A4, Velocity: 38
Note OFF: Time 105360, Note Name: A4
Note ON: Time 105360, Note Name: A#4, Velocity: 36
Note OFF: Time 105600, Note Name: A#4
Note OFF: Time 105600, Note Name: C#5
Note OFF: Time 105600, Note Name: E5
Note ON: Time 105600, Note Name: B4, Velocity: 35
Note ON: Time 105600, Note Name: E5, Velocity: 38
Note ON: Time 105600, Note Name: C#5, Velocity: 32
Note OFF: Time 105840, Note Name: B4
Note ON: Time 105840, Note Name: G#4, Velocity: 35
Note OFF: Time 106080, Note Name: G#4
Note ON: Time 106080, Note Name: A4, Velocity: 35
Note OFF: Time 106320, Note Name: A4
Note ON: Time 106320, Note Name: B4, Velocity: 36
Note OFF: Time 106780, Note Name: B4
Note ON: Time 106800, Note Name: G#4, Velocity: 35
Note OFF: Time 107040, Note Name: G#4
Note ON: Time 107040, Note Name: A4, Velocity: 35
Note OFF: Time 107280, Note Name: A4
Note ON: Time 107280, Note Name: B4, Velocity: 36
Note OFF: Time 107520, Note Name: C#5
Note OFF: Time 107520, Note Name: E5
Note ON: Time 107520, Note Name: D#5, Velocity: 30
Note ON: Time 107520, Note Name: C5, Velocity: 25
Note OFF: Time 107760, Note Name: B4
Note ON: Time 107760, Note Name: A4, Velocity: 35
Note OFF: Time 107880, Note Name: A4
Note ON: Time 107880, Note Name: G#4, Velocity: 35
Note OFF: Time 108000, Note Name: G#4
Note ON: Time 108000, Note Name: F#4, Velocity: 35
Note OFF: Time 108240, Note Name: F#4
Note ON: Time 108240, Note Name: G#4, Velocity: 36
Note OFF: Time 108480, Note Name: G#4
Note ON: Time 108480, Note Name: A4, Velocity: 37
Note OFF: Time 108700, Note Name: A4
Note ON: Time 108720, Note Name: F#4, Velocity: 36
Note OFF: Time 108960, Note Name: F#4
Note ON: Time 108960, Note Name: G#4, Velocity: 36
Note OFF: Time 109200, Note Name: G#4
Note ON: Time 109200, Note Name: A4, Velocity: 37
Note OFF: Time 109440, Note Name: A4
Note OFF: Time 109440, Note Name: C5
Note OFF: Time 109440, Note Name: D#5
Note ON: Time 109440, Note Name: B4, Velocity: 35
Note ON: Time 109440, Note Name: E5, Velocity: 38
Note ON: Time 109440, Note Name: C#5, Velocity: 38
Note OFF: Time 109680, Note Name: B4
Note ON: Time 109680, Note Name: G#4, Velocity: 35
Note OFF: Time 109920, Note Name: G#4
Note ON: Time 109920, Note Name: A4, Velocity: 35
Note OFF: Time 110160, Note Name: A4
Note ON: Time 110160, Note Name: B4, Velocity: 36
Note OFF: Time 110620, Note Name: B4
Note ON: Time 110640, Note Name: G#4, Velocity: 35
Note OFF: Time 110880, Note Name: G#4
Note ON: Time 110880, Note Name: A4, Velocity: 35
Note OFF: Time 111120, Note Name: A4
Note ON: Time 111120, Note Name: B4, Velocity: 36
Note OFF: Time 111360, Note Name: C#5
Note OFF: Time 111360, Note Name: E5
Note ON: Time 111360, Note Name: C5, Velocity: 30
Note ON: Time 111360, Note Name: D#5, Velocity: 30
Note OFF: Time 111600, Note Name: B4
Note ON: Time 111600, Note Name: A4, Velocity: 35
Note OFF: Time 111720, Note Name: A4
Note ON: Time 111720, Note Name: G#4, Velocity: 35
Note OFF: Time 111840, Note Name: G#4
Note ON: Time 111840, Note Name: F#4, Velocity: 35
Note OFF: Time 112080, Note Name: F#4
Note ON: Time 112080, Note Name: G#4, Velocity: 36
Note OFF: Time 112320, Note Name: G#4
Note ON: Time 112320, Note Name: A4, Velocity: 37
Note OFF: Time 112540, Note Name: A4
Note ON: Time 112560, Note Name: F#4, Velocity: 36
Note OFF: Time 112800, Note Name: F#4
Note ON: Time 112800, Note Name: G#4, Velocity: 36
Note OFF: Time 113040, Note Name: G#4
Note ON: Time 113040, Note Name: A4, Velocity: 37
Note OFF: Time 113280, Note Name: A4
Note OFF: Time 113280, Note Name: D#5
Note OFF: Time 113280, Note Name: C5
Note ON: Time 113280, Note Name: A#5, Velocity: 41
Note ON: Time 113280, Note Name: D5, Velocity: 30
Note ON: Time 113280, Note Name: E5, Velocity: 30
Note ON: Time 113280, Note Name: A#4, Velocity: 35
Note OFF: Time 113520, Note Name: A#4
Note OFF: Time 113520, Note Name: A#5
Note ON: Time 113520, Note Name: G4, Velocity: 31
Note ON: Time 113520, Note Name: G5, Velocity: 37
Note OFF: Time 113760, Note Name: G5
Note OFF: Time 113760, Note Name: D5
Note OFF: Time 113760, Note Name: E5
Note OFF: Time 113760, Note Name: G4
Note ON: Time 113760, Note Name: C5, Velocity: 25
Note ON: Time 113760, Note Name: A5, Velocity: 37
Note ON: Time 113760, Note Name: A4, Velocity: 31
Note ON: Time 113760, Note Name: E5, Velocity: 30
Note OFF: Time 114000, Note Name: A4
Note OFF: Time 114000, Note Name: A5
Note ON: Time 114000, Note Name: A#5, Velocity: 42
Note ON: Time 114000, Note Name: A#4, Velocity: 35
Note OFF: Time 114240, Note Name: C5
Note OFF: Time 114240, Note Name: E5
Note ON: Time 114240, Note Name: E5, Velocity: 38
Note ON: Time 114240, Note Name: D5, Velocity: 32
Note OFF: Time 114480, Note Name: A#5
Note OFF: Time 114480, Note Name: A#4
Note ON: Time 114480, Note Name: G5, Velocity: 39
Note ON: Time 114480, Note Name: G4, Velocity: 33
Note OFF: Time 114720, Note Name: G4
Note OFF: Time 114720, Note Name: D5
Note OFF: Time 114720, Note Name: E5
Note OFF: Time 114720, Note Name: G5
Note ON: Time 114720, Note Name: A5, Velocity: 39
Note ON: Time 114720, Note Name: C5, Velocity: 27
Note ON: Time 114720, Note Name: E5, Velocity: 32
Note ON: Time 114720, Note Name: A4, Velocity: 33
Note OFF: Time 114960, Note Name: A4
Note OFF: Time 114960, Note Name: A5
Note ON: Time 114960, Note Name: A#5, Velocity: 39
Note ON: Time 114960, Note Name: A#4, Velocity: 33
Note OFF: Time 115200, Note Name: A#4
Note OFF: Time 115200, Note Name: C5
Note OFF: Time 115200, Note Name: E5
Note OFF: Time 115200, Note Name: A#5
Note ON: Time 115200, Note Name: A#4, Velocity: 35
Note ON: Time 115200, Note Name: D5, Velocity: 45
Note ON: Time 115200, Note Name: A#5, Velocity: 42
Note OFF: Time 115420, Note Name: D5
Note ON: Time 115440, Note Name: F5, Velocity: 47
Note OFF: Time 115920, Note Name: F5
Note ON: Time 115920, Note Name: E5, Velocity: 46
Note OFF: Time 116040, Note Name: E5
Note ON: Time 116040, Note Name: F5, Velocity: 46
Note OFF: Time 116160, Note Name: F5
Note ON: Time 116160, Note Name: D5, Velocity: 52
Note OFF: Time 116400, Note Name: D5
Note ON: Time 116400, Note Name: C5, Velocity: 48
Note OFF: Time 116520, Note Name: C5
Note ON: Time 116520, Note Name: D5, Velocity: 48
Note OFF: Time 116640, Note Name: D5
Note ON: Time 116640, Note Name: A#4, Velocity: 54
Note OFF: Time 116880, Note Name: A#4
Note ON: Time 116880, Note Name: D5, Velocity: 52
Note OFF: Time 117120, Note Name: D5
Note OFF: Time 117120, Note Name: A#5
Note OFF: Time 117120, Note Name: A#4
Note ON: Time 117120, Note Name: A#4, Velocity: 40
Note ON: Time 117120, Note Name: D5, Velocity: 36
Note ON: Time 117120, Note Name: E5, Velocity: 36
Note ON: Time 117120, Note Name: A#5, Velocity: 48
Note OFF: Time 117360, Note Name: A#5
Note OFF: Time 117360, Note Name: A#4
Note ON: Time 117360, Note Name: G5, Velocity: 45
Note ON: Time 117360, Note Name: G4, Velocity: 37
Note OFF: Time 117600, Note Name: G4
Note OFF: Time 117600, Note Name: D5
Note OFF: Time 117600, Note Name: E5
Note OFF: Time 117600, Note Name: G5
Note ON: Time 117600, Note Name: E5, Velocity: 36
Note ON: Time 117600, Note Name: C5, Velocity: 30
Note ON: Time 117600, Note Name: A5, Velocity: 45
Note ON: Time 117600, Note Name: A4, Velocity: 37
Note OFF: Time 117840, Note Name: A4
Note OFF: Time 117840, Note Name: A5
Note ON: Time 117840, Note Name: A#5, Velocity: 49
Note ON: Time 117840, Note Name: A#4, Velocity: 41
Note OFF: Time 118080, Note Name: C5
Note OFF: Time 118080, Note Name: E5
Note ON: Time 118080, Note Name: E5, Velocity: 48
Note ON: Time 118080, Note Name: D5, Velocity: 40
Note OFF: Time 118320, Note Name: A#5
Note OFF: Time 118320, Note Name: A#4
Note ON: Time 118320, Note Name: G5, Velocity: 46
Note ON: Time 118320, Note Name: G4, Velocity: 39
Note OFF: Time 118560, Note Name: G4
Note OFF: Time 118560, Note Name: D5
Note OFF: Time 118560, Note Name: E5
Note OFF: Time 118560, Note Name: G5
Note ON: Time 118560, Note Name: E5, Velocity: 38
Note ON: Time 118560, Note Name: C5, Velocity: 32
Note ON: Time 118560, Note Name: A5, Velocity: 46
Note ON: Time 118560, Note Name: A4, Velocity: 39
Note OFF: Time 118800, Note Name: A4
Note OFF: Time 118800, Note Name: A5
Note ON: Time 118800, Note Name: A#5, Velocity: 46
Note ON: Time 118800, Note Name: A#4, Velocity: 39
Note OFF: Time 119040, Note Name: A#4
Note OFF: Time 119040, Note Name: E5
Note OFF: Time 119040, Note Name: C5
Note OFF: Time 119040, Note Name: A#5
Note ON: Time 119040, Note Name: A#4, Velocity: 41
Note ON: Time 119040, Note Name: D5, Velocity: 54
Note ON: Time 119040, Note Name: A#5, Velocity: 49
Note OFF: Time 119260, Note Name: D5
Note ON: Time 119280, Note Name: F5, Velocity: 58
Note OFF: Time 119760, Note Name: F5
Note ON: Time 119760, Note Name: E5, Velocity: 57
Note OFF: Time 119880, Note Name: E5
Note ON: Time 119880, Note Name: F5, Velocity: 57
Note OFF: Time 120000, Note Name: F5
Note ON: Time 120000, Note Name: D5, Velocity: 63
Note OFF: Time 120240, Note Name: D5
Note ON: Time 120240, Note Name: C5, Velocity: 59
Note OFF: Time 120360, Note Name: C5
Note ON: Time 120360, Note Name: D5, Velocity: 59
Note OFF: Time 120480, Note Name: D5
Note ON: Time 120480, Note Name: A#4, Velocity: 64
Note OFF: Time 120720, Note Name: A#4
Note ON: Time 120720, Note Name: D5, Velocity: 63
Note OFF: Time 120940, Note Name: D5
Note OFF: Time 120960, Note Name: A#5
Note OFF: Time 120960, Note Name: A#4
Note ON: Time 120960, Note Name: A#4, Velocity: 45
Note ON: Time 120960, Note Name: F5, Velocity: 58
Note ON: Time 120960, Note Name: D5, Velocity: 53
Note OFF: Time 121180, Note Name: F5
Note ON: Time 121200, Note Name: A5, Velocity: 62
Note OFF: Time 121680, Note Name: A5
Note ON: Time 121680, Note Name: G5, Velocity: 60
Note OFF: Time 121800, Note Name: G5
Note ON: Time 121800, Note Name: A5, Velocity: 60
Note OFF: Time 121920, Note Name: A5
Note ON: Time 121920, Note Name: F5, Velocity: 67
Note OFF: Time 122160, Note Name: F5
Note ON: Time 122160, Note Name: E5, Velocity: 63
Note OFF: Time 122280, Note Name: E5
Note ON: Time 122280, Note Name: F5, Velocity: 63
Note OFF: Time 122400, Note Name: F5
Note ON: Time 122400, Note Name: D5, Velocity: 69
Note OFF: Time 122640, Note Name: D5
Note ON: Time 122640, Note Name: F5, Velocity: 67
Note OFF: Time 122880, Note Name: F5
Note OFF: Time 122880, Note Name: D5
Note OFF: Time 122880, Note Name: A#4
Note ON: Time 122880, Note Name: C6, Velocity: 54
Note ON: Time 122940, Note Name: D6, Velocity: 48
Note OFF: Time 122944, Note Name: C6
Note ON: Time 123000, Note Name: C6, Velocity: 54
Note OFF: Time 123004, Note Name: D6
Note ON: Time 123060, Note Name: D6, Velocity: 49
Note OFF: Time 123064, Note Name: C6
Note ON: Time 123120, Note Name: C6, Velocity: 54
Note OFF: Time 123124, Note Name: D6
Note ON: Time 123180, Note Name: D6, Velocity: 49
Note OFF: Time 123184, Note Name: C6
Note ON: Time 123240, Note Name: C6, Velocity: 54
Note OFF: Time 123244, Note Name: D6
Note ON: Time 123300, Note Name: D6, Velocity: 49
Note OFF: Time 123304, Note Name: C6
Note ON: Time 123360, Note Name: C6, Velocity: 54
Note OFF: Time 123364, Note Name: D6
Note OFF: Time 123420, Note Name: C6
Note ON: Time 123420, Note Name: D6, Velocity: 52
Note ON: Time 123480, Note Name: C6, Velocity: 47
Note OFF: Time 123484, Note Name: D6
Note ON: Time 123540, Note Name: D6, Velocity: 52
Note OFF: Time 123544, Note Name: C6
Note ON: Time 123600, Note Name: C6, Velocity: 48
Note OFF: Time 123604, Note Name: D6
Note ON: Time 123660, Note Name: D6, Velocity: 53
Note OFF: Time 123664, Note Name: C6
Note ON: Time 123720, Note Name: C6, Velocity: 49
Note OFF: Time 123724, Note Name: D6
Note ON: Time 123780, Note Name: D6, Velocity: 51
Note OFF: Time 123784, Note Name: C6
Note ON: Time 123840, Note Name: C6, Velocity: 54
Note OFF: Time 123844, Note Name: D6
Note OFF: Time 123900, Note Name: C6
Note ON: Time 123900, Note Name: D6, Velocity: 51
Note OFF: Time 123960, Note Name: D6
Note ON: Time 123960, Note Name: C6, Velocity: 56
Note OFF: Time 124020, Note Name: C6
Note ON: Time 124020, Note Name: D6, Velocity: 53
Note OFF: Time 124080, Note Name: D6
Note ON: Time 124080, Note Name: C6, Velocity: 58
Note OFF: Time 124140, Note Name: C6
Note ON: Time 124140, Note Name: D6, Velocity: 56
Note OFF: Time 124200, Note Name: D6
Note ON: Time 124200, Note Name: C6, Velocity: 64
Note OFF: Time 124260, Note Name: C6
Note ON: Time 124260, Note Name: D6, Velocity: 60
Note OFF: Time 124320, Note Name: D6
Note ON: Time 124320, Note Name: C6, Velocity: 68
Note OFF: Time 124380, Note Name: C6
Note ON: Time 124380, Note Name: D6, Velocity: 65
Note OFF: Time 124440, Note Name: D6
Note ON: Time 124440, Note Name: C6, Velocity: 77
Note OFF: Time 124500, Note Name: C6
Note ON: Time 124500, Note Name: D6, Velocity: 71
Note OFF: Time 124560, Note Name: D6
Note ON: Time 124560, Note Name: C6, Velocity: 86
Note OFF: Time 124620, Note Name: C6
Note ON: Time 124620, Note Name: D6, Velocity: 90
Note OFF: Time 124680, Note Name: D6
Note ON: Time 124680, Note Name: E6, Velocity: 96
Note OFF: Time 124740, Note Name: E6
Note ON: Time 124740, Note Name: F6, Velocity: 100
Note OFF: Time 124800, Note Name: F6
Note ON: Time 124800, Note Name: G6, Velocity: 108
Note OFF: Time 125280, Note Name: G6
Note ON: Time 125760, Note Name: G4, Velocity: 70
Note ON: Time 125760, Note Name: A#4, Velocity: 70
Note ON: Time 125760, Note Name: D5, Velocity: 70
Note ON: Time 125760, Note Name: G5, Velocity: 83
Note OFF: Time 126840, Note Name: G5
Note ON: Time 126840, Note Name: A5, Velocity: 53
Note OFF: Time 126960, Note Name: A5
Note ON: Time 126960, Note Name: A#5, Velocity: 53
Note OFF: Time 127080, Note Name: A#5
Note ON: Time 127080, Note Name: A5, Velocity: 53
Note OFF: Time 127200, Note Name: A5
Note OFF: Time 127200, Note Name: D5
Note OFF: Time 127200, Note Name: A#4
Note OFF: Time 127200, Note Name: G4
Note ON: Time 127200, Note Name: G5, Velocity: 56
Note OFF: Time 127320, Note Name: G5
Note ON: Time 127320, Note Name: A5, Velocity: 54
Note OFF: Time 127440, Note Name: A5
Note ON: Time 127440, Note Name: G5, Velocity: 54
Note OFF: Time 127560, Note Name: G5
Note ON: Time 127560, Note Name: F5, Velocity: 54
Note OFF: Time 127680, Note Name: F5
Note ON: Time 127680, Note Name: D5, Velocity: 57
Note OFF: Time 127800, Note Name: D5
Note ON: Time 127800, Note Name: F5, Velocity: 54
Note OFF: Time 127920, Note Name: F5
Note ON: Time 127920, Note Name: D5, Velocity: 54
Note OFF: Time 128040, Note Name: D5
Note ON: Time 128040, Note Name: C5, Velocity: 54
Note OFF: Time 128160, Note Name: C5
Note ON: Time 128160, Note Name: A#4, Velocity: 58
Note OFF: Time 128280, Note Name: A#4
Note ON: Time 128280, Note Name: G4, Velocity: 54
Note OFF: Time 128400, Note Name: G4
Note ON: Time 128400, Note Name: D4, Velocity: 53
Note OFF: Time 128520, Note Name: D4
Note ON: Time 128520, Note Name: E4, Velocity: 53
Note OFF: Time 128640, Note Name: E4
Note ON: Time 128640, Note Name: C#4, Velocity: 42
Note ON: Time 128640, Note Name: G4, Velocity: 52
Note OFF: Time 128760, Note Name: G4
Note ON: Time 128760, Note Name: F4, Velocity: 48
Note OFF: Time 128880, Note Name: F4
Note ON: Time 128880, Note Name: G4, Velocity: 48
Note OFF: Time 129000, Note Name: G4
Note ON: Time 129000, Note Name: A4, Velocity: 47
Note OFF: Time 129120, Note Name: A4
Note ON: Time 129120, Note Name: G4, Velocity: 47
Note OFF: Time 129600, Note Name: C#4
Note ON: Time 129600, Note Name: D4, Velocity: 44
Note OFF: Time 129720, Note Name: G4
Note ON: Time 129720, Note Name: F4, Velocity: 48
Note OFF: Time 129840, Note Name: F4
Note ON: Time 129840, Note Name: G4, Velocity: 49
Note OFF: Time 129960, Note Name: G4
Note ON: Time 129960, Note Name: A4, Velocity: 52
Note OFF: Time 130080, Note Name: A4
Note ON: Time 130080, Note Name: C5, Velocity: 53
Note OFF: Time 130200, Note Name: C5
Note ON: Time 130200, Note Name: A4, Velocity: 53
Note OFF: Time 130320, Note Name: A4
Note ON: Time 130320, Note Name: G4, Velocity: 53
Note OFF: Time 130440, Note Name: G4
Note ON: Time 130440, Note Name: F4, Velocity: 53
Note OFF: Time 130560, Note Name: F4
Note OFF: Time 130560, Note Name: D4
Note ON: Time 130560, Note Name: G4, Velocity: 54
Note ON: Time 130560, Note Name: D#4, Velocity: 43
Note OFF: Time 130680, Note Name: G4
Note ON: Time 130680, Note Name: F4, Velocity: 49
Note OFF: Time 130800, Note Name: F4
Note ON: Time 130800, Note Name: G4, Velocity: 51
Note OFF: Time 130920, Note Name: G4
Note ON: Time 130920, Note Name: A4, Velocity: 49
Note OFF: Time 131040, Note Name: A4
Note ON: Time 131040, Note Name: G4, Velocity: 48
Note OFF: Time 131520, Note Name: D#4
Note ON: Time 131520, Note Name: D4, Velocity: 45
Note OFF: Time 131640, Note Name: G4
Note ON: Time 131640, Note Name: F4, Velocity: 49
Note OFF: Time 131760, Note Name: F4
Note ON: Time 131760, Note Name: G4, Velocity: 51
Note OFF: Time 131880, Note Name: G4
Note ON: Time 131880, Note Name: A4, Velocity: 52
Note OFF: Time 132000, Note Name: A4
Note ON: Time 132000, Note Name: D5, Velocity: 56
Note OFF: Time 132120, Note Name: D5
Note ON: Time 132120, Note Name: A4, Velocity: 54
Note OFF: Time 132240, Note Name: A4
Note ON: Time 132240, Note Name: G4, Velocity: 54
Note OFF: Time 132360, Note Name: G4
Note ON: Time 132360, Note Name: F4, Velocity: 54
Note OFF: Time 132480, Note Name: D4
Note ON: Time 132480, Note Name: D4, Velocity: 49
Note OFF: Time 132600, Note Name: F4
Note ON: Time 132600, Note Name: A#4, Velocity: 52
Note OFF: Time 132720, Note Name: A#4
Note ON: Time 132720, Note Name: D5, Velocity: 54
Note OFF: Time 132840, Note Name: D5
Note ON: Time 132840, Note Name: F5, Velocity: 57
Note OFF: Time 132960, Note Name: F5
Note OFF: Time 132960, Note Name: D4
Note ON: Time 132960, Note Name: D5, Velocity: 40
Note ON: Time 132960, Note Name: A5, Velocity: 60
Note OFF: Time 133440, Note Name: D5
Note ON: Time 133440, Note Name: C5, Velocity: 44
Note OFF: Time 133680, Note Name: A5
Note ON: Time 133680, Note Name: G5, Velocity: 54
Note OFF: Time 133920, Note Name: G5
Note ON: Time 133920, Note Name: F5, Velocity: 52
Note OFF: Time 134160, Note Name: F5
Note ON: Time 134160, Note Name: G5, Velocity: 54
Note OFF: Time 134520, Note Name: G5
Note ON: Time 134520, Note Name: F5, Velocity: 49
Note OFF: Time 134640, Note Name: F5
Note ON: Time 134640, Note Name: E5, Velocity: 51
Note OFF: Time 134760, Note Name: E5
Note ON: Time 134760, Note Name: G5, Velocity: 51
Note OFF: Time 134880, Note Name: G5
Note ON: Time 134880, Note Name: F5, Velocity: 54
Note OFF: Time 135120, Note Name: C5
Note ON: Time 135120, Note Name: A#4, Velocity: 49
Note OFF: Time 135240, Note Name: A#4
Note ON: Time 135240, Note Name: A4, Velocity: 49
Note OFF: Time 135360, Note Name: A4
Note ON: Time 135360, Note Name: A#4, Velocity: 51
Note OFF: Time 135600, Note Name: F5
Note ON: Time 135600, Note Name: E5, Velocity: 46
Note OFF: Time 135840, Note Name: E5
Note ON: Time 135840, Note Name: D5, Velocity: 45
Note ON: Time 135840, Note Name: F4, Velocity: 45
Note OFF: Time 136080, Note Name: F4
Note OFF: Time 136080, Note Name: D5
Note ON: Time 136080, Note Name: C5, Velocity: 43
Note ON: Time 136080, Note Name: E4, Velocity: 43
Note OFF: Time 136320, Note Name: E4
Note OFF: Time 136320, Note Name: C5
Note OFF: Time 136320, Note Name: A#4
Note ON: Time 137280, Note Name: G5, Velocity: 83
Note ON: Time 137280, Note Name: G4, Velocity: 70
Note ON: Time 137280, Note Name: D5, Velocity: 70
Note ON: Time 137280, Note Name: A#4, Velocity: 70
Note OFF: Time 138360, Note Name: G5
Note ON: Time 138360, Note Name: A5, Velocity: 53
Note OFF: Time 138480, Note Name: A5
Note ON: Time 138480, Note Name: A#5, Velocity: 53
Note OFF: Time 138600, Note Name: A#5
Note ON: Time 138600, Note Name: A5, Velocity: 53
Note OFF: Time 138720, Note Name: A5
Note OFF: Time 138720, Note Name: A#4
Note OFF: Time 138720, Note Name: D5
Note OFF: Time 138720, Note Name: G4
Note ON: Time 138720, Note Name: G5, Velocity: 56
Note OFF: Time 138840, Note Name: G5
Note ON: Time 138840, Note Name: A5, Velocity: 54
Note OFF: Time 138960, Note Name: A5
Note ON: Time 138960, Note Name: G5, Velocity: 54
Note OFF: Time 139080, Note Name: G5
Note ON: Time 139080, Note Name: F5, Velocity: 54
Note OFF: Time 139200, Note Name: F5
Note ON: Time 139200, Note Name: D5, Velocity: 57
Note OFF: Time 139320, Note Name: D5
Note ON: Time 139320, Note Name: F5, Velocity: 54
Note OFF: Time 139440, Note Name: F5
Note ON: Time 139440, Note Name: D5, Velocity: 54
Note OFF: Time 139560, Note Name: D5
Note ON: Time 139560, Note Name: C5, Velocity: 54
Note OFF: Time 139680, Note Name: C5
Note ON: Time 139680, Note Name: A#4, Velocity: 58
Note OFF: Time 139800, Note Name: A#4
Note ON: Time 139800, Note Name: G4, Velocity: 54
Note OFF: Time 139920, Note Name: G4
Note ON: Time 139920, Note Name: D4, Velocity: 53
Note OFF: Time 140040, Note Name: D4
Note ON: Time 140040, Note Name: E4, Velocity: 53
Note OFF: Time 140160, Note Name: E4
Note ON: Time 140160, Note Name: D4, Velocity: 43
Note ON: Time 140160, Note Name: G4, Velocity: 51
Note OFF: Time 140280, Note Name: G4
Note ON: Time 140280, Note Name: F4, Velocity: 47
Note OFF: Time 140400, Note Name: F4
Note ON: Time 140400, Note Name: G4, Velocity: 48
Note OFF: Time 140520, Note Name: G4
Note ON: Time 140520, Note Name: A4, Velocity: 47
Note OFF: Time 140640, Note Name: A4
Note ON: Time 140640, Note Name: G4, Velocity: 46
Note OFF: Time 141240, Note Name: G4
Note ON: Time 141240, Note Name: F4, Velocity: 45
Note OFF: Time 141360, Note Name: F4
Note ON: Time 141360, Note Name: G4, Velocity: 46
Note OFF: Time 141480, Note Name: G4
Note ON: Time 141480, Note Name: A4, Velocity: 48
Note OFF: Time 141600, Note Name: A4
Note ON: Time 141600, Note Name: C5, Velocity: 49
Note OFF: Time 141720, Note Name: C5
Note ON: Time 141720, Note Name: A4, Velocity: 49
Note OFF: Time 141840, Note Name: A4
Note ON: Time 141840, Note Name: G4, Velocity: 49
Note OFF: Time 141960, Note Name: G4
Note ON: Time 141960, Note Name: F4, Velocity: 49
Note OFF: Time 142080, Note Name: F4
Note OFF: Time 142080, Note Name: D4
Note ON: Time 142080, Note Name: G4, Velocity: 48
Note ON: Time 142080, Note Name: D4, Velocity: 43
Note OFF: Time 142200, Note Name: G4
Note ON: Time 142200, Note Name: F4, Velocity: 46
Note OFF: Time 142320, Note Name: F4
Note ON: Time 142320, Note Name: G4, Velocity: 47
Note OFF: Time 142440, Note Name: G4
Note ON: Time 142440, Note Name: A4, Velocity: 46
Note OFF: Time 142560, Note Name: A4
Note ON: Time 142560, Note Name: G4, Velocity: 45
Note OFF: Time 143160, Note Name: G4
Note ON: Time 143160, Note Name: F4, Velocity: 46
Note OFF: Time 143280, Note Name: F4
Note ON: Time 143280, Note Name: G4, Velocity: 47
Note OFF: Time 143400, Note Name: G4
Note ON: Time 143400, Note Name: A4, Velocity: 48
Note OFF: Time 143520, Note Name: A4
Note ON: Time 143520, Note Name: D5, Velocity: 52
Note OFF: Time 143640, Note Name: D5
Note ON: Time 143640, Note Name: A4, Velocity: 51
Note OFF: Time 143760, Note Name: A4
Note ON: Time 143760, Note Name: G4, Velocity: 51
Note OFF: Time 143880, Note Name: G4
Note ON: Time 143880, Note Name: F4, Velocity: 51
Note OFF: Time 144000, Note Name: F4
Note OFF: Time 144000, Note Name: D4
Note ON: Time 144000, Note Name: E5, Velocity: 51
Note OFF: Time 144120, Note Name: E5
Note ON: Time 144120, Note Name: A#4, Velocity: 49
Note OFF: Time 144240, Note Name: A#4
Note ON: Time 144240, Note Name: A4, Velocity: 49
Note OFF: Time 144360, Note Name: A4
Note ON: Time 144360, Note Name: G4, Velocity: 49
Note OFF: Time 144470, Note Name: G4
Note ON: Time 144480, Note Name: F5, Velocity: 52
Note OFF: Time 144600, Note Name: F5
Note ON: Time 144600, Note Name: C5, Velocity: 51
Note OFF: Time 144720, Note Name: C5
Note ON: Time 144720, Note Name: A#4, Velocity: 51
Note OFF: Time 144840, Note Name: A#4
Note ON: Time 144840, Note Name: A4, Velocity: 51
Note OFF: Time 144950, Note Name: A4
Note ON: Time 144960, Note Name: G5, Velocity: 53
Note OFF: Time 145080, Note Name: G5
Note ON: Time 145080, Note Name: D5, Velocity: 51
Note OFF: Time 145200, Note Name: D5
Note ON: Time 145200, Note Name: C5, Velocity: 51
Note OFF: Time 145320, Note Name: C5
Note ON: Time 145320, Note Name: A#4, Velocity: 51
Note OFF: Time 145430, Note Name: A#4
Note ON: Time 145440, Note Name: A5, Velocity: 54
Note OFF: Time 145560, Note Name: A5
Note ON: Time 145560, Note Name: E5, Velocity: 52
Note OFF: Time 145680, Note Name: E5
Note ON: Time 145680, Note Name: D5, Velocity: 52
Note OFF: Time 145800, Note Name: D5
Note ON: Time 145800, Note Name: C5, Velocity: 52
Note OFF: Time 145910, Note Name: C5
Note ON: Time 145920, Note Name: A#5, Velocity: 56
Note OFF: Time 146040, Note Name: A#5
Note ON: Time 146040, Note Name: F5, Velocity: 54
Note OFF: Time 146160, Note Name: F5
Note ON: Time 146160, Note Name: E5, Velocity: 54
Note OFF: Time 146280, Note Name: E5
Note ON: Time 146280, Note Name: D5, Velocity: 54
Note OFF: Time 146390, Note Name: D5
Note ON: Time 146400, Note Name: C6, Velocity: 58
Note OFF: Time 146520, Note Name: C6
Note ON: Time 146520, Note Name: G5, Velocity: 56
Note OFF: Time 146640, Note Name: G5
Note ON: Time 146640, Note Name: F5, Velocity: 56
Note OFF: Time 146760, Note Name: F5
Note ON: Time 146760, Note Name: E5, Velocity: 57
Note OFF: Time 146870, Note Name: E5
Note ON: Time 146880, Note Name: D6, Velocity: 60
Note OFF: Time 147000, Note Name: D6
Note ON: Time 147000, Note Name: A5, Velocity: 58
Note OFF: Time 147120, Note Name: A5
Note ON: Time 147120, Note Name: G5, Velocity: 59
Note OFF: Time 147240, Note Name: G5
Note ON: Time 147240, Note Name: F5, Velocity: 59
Note OFF: Time 147350, Note Name: F5
Note ON: Time 147360, Note Name: E6, Velocity: 63
Note OFF: Time 147480, Note Name: E6
Note ON: Time 147480, Note Name: A#5, Velocity: 60
Note OFF: Time 147600, Note Name: A#5
Note ON: Time 147600, Note Name: A5, Velocity: 60
Note OFF: Time 147720, Note Name: A5
Note ON: Time 147720, Note Name: G5, Velocity: 60
Note OFF: Time 147830, Note Name: G5
Note ON: Time 147840, Note Name: G6, Velocity: 87
Note OFF: Time 147950, Note Name: G6
Note ON: Time 147960, Note Name: D6, Velocity: 67
Note OFF: Time 148070, Note Name: D6
Note ON: Time 148080, Note Name: C6, Velocity: 67
Note OFF: Time 148190, Note Name: C6
Note ON: Time 148200, Note Name: A#5, Velocity: 67
Note OFF: Time 148310, Note Name: A#5
Note ON: Time 148800, Note Name: F5, Velocity: 63
Note OFF: Time 148910, Note Name: F5
Note ON: Time 148920, Note Name: G5, Velocity: 65
Note OFF: Time 149030, Note Name: G5
Note ON: Time 149040, Note Name: A5, Velocity: 67
Note OFF: Time 149150, Note Name: A5
Note ON: Time 149160, Note Name: A#5, Velocity: 69
Note OFF: Time 149270, Note Name: A#5
Note ON: Time 149280, Note Name: C6, Velocity: 72
Note OFF: Time 149390, Note Name: C6
Note ON: Time 149400, Note Name: D6, Velocity: 72
Note OFF: Time 149510, Note Name: D6
Note ON: Time 149520, Note Name: E6, Velocity: 75
Note OFF: Time 149630, Note Name: E6
Note ON: Time 149640, Note Name: F6, Velocity: 77
Note OFF: Time 149750, Note Name: F6
Note ON: Time 149760, Note Name: G6, Velocity: 87
Note OFF: Time 149870, Note Name: G6
Note ON: Time 149880, Note Name: D6, Velocity: 67
Note OFF: Time 149990, Note Name: D6
Note ON: Time 150000, Note Name: C6, Velocity: 67
Note OFF: Time 150110, Note Name: C6
Note ON: Time 150120, Note Name: A#5, Velocity: 67
Note OFF: Time 150230, Note Name: A#5
Note ON: Time 150720, Note Name: F5, Velocity: 64
Note OFF: Time 150830, Note Name: F5
Note ON: Time 150840, Note Name: G5, Velocity: 66
Note OFF: Time 150950, Note Name: G5
Note ON: Time 150960, Note Name: A5, Velocity: 69
Note OFF: Time 151070, Note Name: A5
Note ON: Time 151080, Note Name: A#5, Velocity: 72
Note OFF: Time 151190, Note Name: A#5
Note ON: Time 151200, Note Name: C6, Velocity: 73
Note OFF: Time 151310, Note Name: C6
Note ON: Time 151320, Note Name: D6, Velocity: 76
Note OFF: Time 151430, Note Name: D6
Note ON: Time 151440, Note Name: E6, Velocity: 78
Note OFF: Time 151550, Note Name: E6
Note ON: Time 151560, Note Name: F6, Velocity: 80
Note OFF: Time 151670, Note Name: F6
Note ON: Time 151680, Note Name: G6, Velocity: 89
Note OFF: Time 151790, Note Name: G6
Note ON: Time 151800, Note Name: D6, Velocity: 72
Note OFF: Time 151910, Note Name: D6
Note ON: Time 151920, Note Name: C6, Velocity: 72
Note OFF: Time 152030, Note Name: C6
Note ON: Time 152040, Note Name: A#5, Velocity: 72
Note OFF: Time 152150, Note Name: A#5
Note ON: Time 152640, Note Name: G5, Velocity: 72
Note OFF: Time 152750, Note Name: G5
Note ON: Time 152760, Note Name: A5, Velocity: 73
Note OFF: Time 152870, Note Name: A5
Note ON: Time 152880, Note Name: A#5, Velocity: 76
Note OFF: Time 152990, Note Name: A#5
Note ON: Time 153000, Note Name: C6, Velocity: 78
Note OFF: Time 153110, Note Name: C6
Note ON: Time 153120, Note Name: D6, Velocity: 80
Note OFF: Time 153230, Note Name: D6
Note ON: Time 153240, Note Name: E6, Velocity: 83
Note OFF: Time 153350, Note Name: E6
Note ON: Time 153360, Note Name: F6, Velocity: 85
Note OFF: Time 153470, Note Name: F6
Note ON: Time 153480, Note Name: G6, Velocity: 87
Note OFF: Time 153590, Note Name: G6
Note ON: Time 153600, Note Name: F6, Velocity: 75
Note ON: Time 153600, Note Name: A5, Velocity: 75
Note ON: Time 153600, Note Name: A6, Velocity: 89
Note OFF: Time 153840, Note Name: A6
Note OFF: Time 153840, Note Name: A5
Note OFF: Time 153840, Note Name: F6
Note ON: Time 154080, Note Name: D#4, Velocity: 58
Note ON: Time 154080, Note Name: G4, Velocity: 69
Note OFF: Time 154800, Note Name: G4
Note OFF: Time 154800, Note Name: D#4
Note ON: Time 154800, Note Name: D4, Velocity: 53
Note ON: Time 154800, Note Name: F4, Velocity: 63
Note OFF: Time 154920, Note Name: F4
Note OFF: Time 154920, Note Name: D4
Note ON: Time 154920, Note Name: D#4, Velocity: 53
Note ON: Time 154920, Note Name: G4, Velocity: 63
Note OFF: Time 155040, Note Name: G4
Note OFF: Time 155040, Note Name: D#4
Note ON: Time 155040, Note Name: D4, Velocity: 57
Note ON: Time 155040, Note Name: F4, Velocity: 68
Note OFF: Time 155280, Note Name: F4
Note OFF: Time 155280, Note Name: D4
Note ON: Time 155280, Note Name: C4, Velocity: 55
Note ON: Time 155280, Note Name: D#4, Velocity: 65
Note OFF: Time 155400, Note Name: D#4
Note OFF: Time 155400, Note Name: C4
Note ON: Time 155400, Note Name: F4, Velocity: 65
Note ON: Time 155400, Note Name: D4, Velocity: 55
Note OFF: Time 155520, Note Name: D4
Note OFF: Time 155520, Note Name: F4
Note ON: Time 155520, Note Name: D#4, Velocity: 70
Note ON: Time 155520, Note Name: C4, Velocity: 59
Note OFF: Time 155740, Note Name: C4
Note OFF: Time 155740, Note Name: D#4
Note ON: Time 155760, Note Name: C4, Velocity: 79
Note ON: Time 156000, Note Name: D4, Velocity: 79
Note OFF: Time 156240, Note Name: D4
Note ON: Time 156240, Note Name: D#4, Velocity: 79
Note OFF: Time 156480, Note Name: D#4
Note OFF: Time 156480, Note Name: C4
Note ON: Time 156480, Note Name: G5, Velocity: 72
Note OFF: Time 156590, Note Name: G5
Note ON: Time 156600, Note Name: A5, Velocity: 73
Note OFF: Time 156710, Note Name: A5
Note ON: Time 156720, Note Name: A#5, Velocity: 76
Note OFF: Time 156830, Note Name: A#5
Note ON: Time 156840, Note Name: C6, Velocity: 78
Note OFF: Time 156950, Note Name: C6
Note ON: Time 156960, Note Name: D6, Velocity: 80
Note OFF: Time 157070, Note Name: D6
Note ON: Time 157080, Note Name: E6, Velocity: 83
Note OFF: Time 157190, Note Name: E6
Note ON: Time 157200, Note Name: F6, Velocity: 85
Note OFF: Time 157310, Note Name: F6
Note ON: Time 157320, Note Name: G6, Velocity: 87
Note OFF: Time 157430, Note Name: G6
Note ON: Time 157440, Note Name: A6, Velocity: 89
Note ON: Time 157440, Note Name: A5, Velocity: 75
Note ON: Time 157440, Note Name: F6, Velocity: 89
Note OFF: Time 157680, Note Name: F6
Note OFF: Time 157680, Note Name: A5
Note OFF: Time 157680, Note Name: A6
Note ON: Time 157920, Note Name: G4, Velocity: 69
Note ON: Time 157920, Note Name: D#4, Velocity: 58
Note OFF: Time 158640, Note Name: D#4
Note OFF: Time 158640, Note Name: G4
Note ON: Time 158640, Note Name: F4, Velocity: 63
Note ON: Time 158640, Note Name: D4, Velocity: 53
Note OFF: Time 158760, Note Name: D4
Note OFF: Time 158760, Note Name: F4
Note ON: Time 158760, Note Name: G4, Velocity: 63
Note ON: Time 158760, Note Name: D#4, Velocity: 53
Note OFF: Time 158880, Note Name: D#4
Note OFF: Time 158880, Note Name: G4
Note ON: Time 158880, Note Name: F4, Velocity: 68
Note ON: Time 158880, Note Name: D4, Velocity: 57
Note OFF: Time 159120, Note Name: D4
Note OFF: Time 159120, Note Name: F4
Note ON: Time 159120, Note Name: D#4, Velocity: 65
Note ON: Time 159120, Note Name: C4, Velocity: 55
Note OFF: Time 159240, Note Name: C4
Note OFF: Time 159240, Note Name: D#4
Note ON: Time 159240, Note Name: F4, Velocity: 65
Note ON: Time 159240, Note Name: D4, Velocity: 55
Note OFF: Time 159360, Note Name: D4
Note OFF: Time 159360, Note Name: F4
Note ON: Time 159360, Note Name: D#4, Velocity: 70
Note ON: Time 159360, Note Name: C4, Velocity: 70
Note OFF: Time 159580, Note Name: C4
Note OFF: Time 159580, Note Name: D#4
Note ON: Time 159600, Note Name: C4, Velocity: 79
Note ON: Time 159840, Note Name: D4, Velocity: 79
Note OFF: Time 160080, Note Name: D4
Note ON: Time 160080, Note Name: D#4, Velocity: 79
Note OFF: Time 160320, Note Name: D#4
Note OFF: Time 160320, Note Name: C4
Note ON: Time 160320, Note Name: G5, Velocity: 75
Note OFF: Time 160430, Note Name: G5
Note ON: Time 160440, Note Name: A5, Velocity: 77
Note OFF: Time 160550, Note Name: A5
Note ON: Time 160560, Note Name: A#5, Velocity: 80
Note OFF: Time 160670, Note Name: A#5
Note ON: Time 160680, Note Name: C6, Velocity: 83
Note OFF: Time 160790, Note Name: C6
Note ON: Time 160800, Note Name: D6, Velocity: 85
Note OFF: Time 160910, Note Name: D6
Note ON: Time 160920, Note Name: E6, Velocity: 88
Note OFF: Time 161030, Note Name: E6
Note ON: Time 161040, Note Name: F6, Velocity: 90
Note OFF: Time 161150, Note Name: F6
Note ON: Time 161160, Note Name: G6, Velocity: 94
Note OFF: Time 161270, Note Name: G6
Note ON: Time 161280, Note Name: D6, Velocity: 96
Note ON: Time 161280, Note Name: A#5, Velocity: 81
Note ON: Time 161280, Note Name: A#6, Velocity: 98
Note OFF: Time 161520, Note Name: A#6
Note OFF: Time 161520, Note Name: A#5
Note OFF: Time 161520, Note Name: D6
Note ON: Time 161760, Note Name: A#4, Velocity: 81
Note ON: Time 161760, Note Name: F4, Velocity: 68
Note OFF: Time 162480, Note Name: A#4
Note ON: Time 162480, Note Name: A4, Velocity: 76
Note OFF: Time 162600, Note Name: A4
Note ON: Time 162600, Note Name: A#4, Velocity: 76
Note OFF: Time 162720, Note Name: A#4
Note ON: Time 162720, Note Name: A4, Velocity: 81
Note OFF: Time 162960, Note Name: A4
Note OFF: Time 162960, Note Name: F4
Note ON: Time 162960, Note Name: D4, Velocity: 65
Note ON: Time 162960, Note Name: G4, Velocity: 77
Note OFF: Time 163080, Note Name: G4
Note ON: Time 163080, Note Name: A4, Velocity: 77
Note OFF: Time 163200, Note Name: A4
Note OFF: Time 163200, Note Name: D4
Note ON: Time 163200, Note Name: G4, Velocity: 81
Note ON: Time 163200, Note Name: D4, Velocity: 64
Note OFF: Time 163440, Note Name: G4
Note ON: Time 163440, Note Name: F4, Velocity: 72
Note OFF: Time 163680, Note Name: F4
Note OFF: Time 163680, Note Name: D4
Note ON: Time 163680, Note Name: G4, Velocity: 76
Note OFF: Time 163920, Note Name: G4
Note ON: Time 163920, Note Name: A4, Velocity: 79
Note OFF: Time 164160, Note Name: A4
Note ON: Time 164160, Note Name: A#4, Velocity: 83
Note OFF: Time 164400, Note Name: A#4
Note ON: Time 164400, Note Name: C5, Velocity: 86
Note OFF: Time 164640, Note Name: C5
Note ON: Time 164640, Note Name: D5, Velocity: 90
Note OFF: Time 164880, Note Name: D5
Note ON: Time 164880, Note Name: F5, Velocity: 94
Note OFF: Time 165120, Note Name: F5
Note ON: Time 165120, Note Name: C6, Velocity: 94
Note ON: Time 165120, Note Name: F5, Velocity: 80
Note ON: Time 165120, Note Name: A#5, Velocity: 80
Note OFF: Time 166080, Note Name: A#5
Note OFF: Time 166080, Note Name: F5
Note ON: Time 166080, Note Name: A5, Velocity: 94
Note ON: Time 166080, Note Name: F5, Velocity: 80
Note OFF: Time 166560, Note Name: F5
Note OFF: Time 166560, Note Name: A5
Note ON: Time 166560, Note Name: G5, Velocity: 80
Note ON: Time 166560, Note Name: D5, Velocity: 80
Note OFF: Time 166640, Note Name: D5
Note OFF: Time 166640, Note Name: G5
Note ON: Time 166640, Note Name: A5, Velocity: 76
Note OFF: Time 166720, Note Name: A5
Note ON: Time 166720, Note Name: G5, Velocity: 76
Note OFF: Time 166800, Note Name: G5
Note ON: Time 166800, Note Name: F5, Velocity: 80
Note OFF: Time 166880, Note Name: F5
Note ON: Time 166880, Note Name: D5, Velocity: 76
Note OFF: Time 166960, Note Name: D5
Note ON: Time 166960, Note Name: F5, Velocity: 76
Note OFF: Time 167040, Note Name: F5
Note OFF: Time 167040, Note Name: C6
Note ON: Time 167040, Note Name: C5, Velocity: 73
Note ON: Time 167040, Note Name: C6, Velocity: 87
Note ON: Time 167040, Note Name: A5, Velocity: 73
Note ON: Time 167040, Note Name: F5, Velocity: 73
Note OFF: Time 167520, Note Name: F5
Note OFF: Time 167520, Note Name: C5
Note OFF: Time 167520, Note Name: C6
Note OFF: Time 167520, Note Name: A5
Note ON: Time 168960, Note Name: F5, Velocity: 83
Note ON: Time 168960, Note Name: F6, Velocity: 99
Note ON: Time 168960, Note Name: C6, Velocity: 83
Note ON: Time 168960, Note Name: A5, Velocity: 83
Note OFF: Time 169440, Note Name: A5
Note OFF: Time 169440, Note Name: F5
Note OFF: Time 169440, Note Name: F6
Note OFF: Time 169440, Note Name: C6
Track 2: Piano left
Note ON: Time 1, Note Name: F1, Velocity: 87
Note ON: Time 240, Note Name: F2, Velocity: 78
Note OFF: Time 241, Note Name: F1
Note OFF: Time 480, Note Name: F2
Note ON: Time 480, Note Name: C3, Velocity: 81
Note OFF: Time 700, Note Name: C3
Note ON: Time 720, Note Name: C3, Velocity: 81
Note ON: Time 960, Note Name: D4, Velocity: 70
Note ON: Time 960, Note Name: A#3, Velocity: 58
Note ON: Time 960, Note Name: G3, Velocity: 58
Note OFF: Time 2400, Note Name: G3
Note OFF: Time 2400, Note Name: C3
Note OFF: Time 2400, Note Name: D4
Note OFF: Time 2400, Note Name: A#3
Note ON: Time 3840, Note Name: F2, Velocity: 36
Note ON: Time 3840, Note Name: C3, Velocity: 36
Note ON: Time 3840, Note Name: A3, Velocity: 44
Note OFF: Time 4800, Note Name: C3
Note OFF: Time 4800, Note Name: F2
Note ON: Time 4800, Note Name: F3, Velocity: 37
Note ON: Time 4800, Note Name: A#2, Velocity: 37
Note OFF: Time 5760, Note Name: A#2
Note OFF: Time 5760, Note Name: F3
Note OFF: Time 5760, Note Name: A3
Note ON: Time 5760, Note Name: A3, Velocity: 37
Note ON: Time 5760, Note Name: C3, Velocity: 37
Note OFF: Time 6720, Note Name: C3
Note ON: Time 6720, Note Name: D3, Velocity: 45
Note OFF: Time 7680, Note Name: D3
Note OFF: Time 7680, Note Name: A3
Note ON: Time 7680, Note Name: A#2, Velocity: 41
Note ON: Time 7680, Note Name: F3, Velocity: 41
Note ON: Time 7680, Note Name: A#3, Velocity: 41
Note OFF: Time 8160, Note Name: A#3
Note OFF: Time 8160, Note Name: F3
Note OFF: Time 8160, Note Name: A#2
Note ON: Time 8160, Note Name: A#3, Velocity: 42
Note ON: Time 8160, Note Name: F4, Velocity: 47
Note OFF: Time 8640, Note Name: F4
Note ON: Time 8640, Note Name: E4, Velocity: 47
Note OFF: Time 9120, Note Name: E4
Note ON: Time 9120, Note Name: D4, Velocity: 51
Note OFF: Time 9360, Note Name: D4
Note ON: Time 9360, Note Name: E4, Velocity: 53
Note OFF: Time 9600, Note Name: A#3
Note ON: Time 9600, Note Name: A3, Velocity: 53
Note OFF: Time 9720, Note Name: E4
Note ON: Time 9720, Note Name: F4, Velocity: 45
Note OFF: Time 9840, Note Name: F4
Note ON: Time 9840, Note Name: G4, Velocity: 45
Note OFF: Time 9960, Note Name: G4
Note ON: Time 9960, Note Name: A4, Velocity: 45
Note OFF: Time 10080, Note Name: A4
Note ON: Time 10080, Note Name: D4, Velocity: 45
Note OFF: Time 10560, Note Name: A3
Note ON: Time 10560, Note Name: G3, Velocity: 46
Note OFF: Time 10800, Note Name: D4
Note ON: Time 10800, Note Name: E4, Velocity: 45
Note OFF: Time 11040, Note Name: E4
Note OFF: Time 11040, Note Name: G3
Note ON: Time 11040, Note Name: C3, Velocity: 41
Note OFF: Time 11520, Note Name: C3
Note ON: Time 11521, Note Name: F1, Velocity: 89
Note ON: Time 11760, Note Name: F2, Velocity: 77
Note OFF: Time 11761, Note Name: F1
Note OFF: Time 12000, Note Name: F2
Note ON: Time 12000, Note Name: C3, Velocity: 81
Note OFF: Time 12220, Note Name: C3
Note ON: Time 12240, Note Name: C3, Velocity: 81
Note ON: Time 12480, Note Name: D4, Velocity: 71
Note ON: Time 12480, Note Name: A#3, Velocity: 60
Note ON: Time 12480, Note Name: G3, Velocity: 60
Note OFF: Time 13920, Note Name: G3
Note OFF: Time 13920, Note Name: C3
Note OFF: Time 13920, Note Name: D4
Note OFF: Time 13920, Note Name: A#3
Note ON: Time 15360, Note Name: D#4, Velocity: 36
Note ON: Time 15360, Note Name: A#3, Velocity: 43
Note ON: Time 15367, Note Name: C4, Velocity: 36
Note OFF: Time 16320, Note Name: A#3
Note ON: Time 16320, Note Name: A3, Velocity: 38
Note OFF: Time 17280, Note Name: A3
Note OFF: Time 17280, Note Name: D#4
Note ON: Time 17280, Note Name: D4, Velocity: 41
Note ON: Time 17280, Note Name: A#3, Velocity: 35
Note ON: Time 17280, Note Name: D#3, Velocity: 35
Note OFF: Time 17287, Note Name: C4
Note OFF: Time 18240, Note Name: D4
Note OFF: Time 18240, Note Name: A#3
Note OFF: Time 18240, Note Name: D#3
Note ON: Time 18240, Note Name: F2, Velocity: 32
Note ON: Time 18240, Note Name: C3, Velocity: 32
Note ON: Time 18240, Note Name: A3, Velocity: 38
Note OFF: Time 19200, Note Name: A3
Note OFF: Time 19200, Note Name: C3
Note OFF: Time 19200, Note Name: F2
Note ON: Time 19200, Note Name: A#1, Velocity: 72
Note ON: Time 19200, Note Name: A#2, Velocity: 72
Note OFF: Time 19440, Note Name: A#2
Note OFF: Time 19440, Note Name: A#1
Note ON: Time 19440, Note Name: F3, Velocity: 72
Note OFF: Time 19680, Note Name: F3
Note ON: Time 19680, Note Name: D4, Velocity: 42
Note ON: Time 19680, Note Name: F4, Velocity: 50
Note OFF: Time 20400, Note Name: F4
Note OFF: Time 20400, Note Name: D4
Note ON: Time 20400, Note Name: E4, Velocity: 37
Note ON: Time 20400, Note Name: G4, Velocity: 44
Note OFF: Time 20520, Note Name: G4
Note OFF: Time 20520, Note Name: E4
Note ON: Time 20520, Note Name: F4, Velocity: 36
Note ON: Time 20520, Note Name: A4, Velocity: 43
Note OFF: Time 20640, Note Name: A4
Note OFF: Time 20640, Note Name: F4
Note ON: Time 20640, Note Name: E4, Velocity: 41
Note ON: Time 20640, Note Name: G4, Velocity: 49
Note OFF: Time 20880, Note Name: G4
Note OFF: Time 20880, Note Name: E4
Note ON: Time 20880, Note Name: D4, Velocity: 35
Note ON: Time 20880, Note Name: F4, Velocity: 42
Note OFF: Time 21000, Note Name: F4
Note OFF: Time 21000, Note Name: D4
Note ON: Time 21000, Note Name: E4, Velocity: 35
Note ON: Time 21000, Note Name: G4, Velocity: 42
Note OFF: Time 21120, Note Name: G4
Note OFF: Time 21120, Note Name: E4
Note ON: Time 21120, Note Name: D4, Velocity: 40
Note ON: Time 21120, Note Name: F4, Velocity: 47
Note OFF: Time 21355, Note Name: F4
Note OFF: Time 21355, Note Name: D4
Note ON: Time 21360, Note Name: C4, Velocity: 37
Note ON: Time 21360, Note Name: E4, Velocity: 44
Note OFF: Time 21576, Note Name: E4
Note OFF: Time 21576, Note Name: C4
Note ON: Time 21600, Note Name: C4, Velocity: 38
Note ON: Time 21600, Note Name: E4, Velocity: 45
Note OFF: Time 21820, Note Name: E4
Note OFF: Time 21820, Note Name: C4
Note ON: Time 21840, Note Name: A#3, Velocity: 38
Note ON: Time 21840, Note Name: F4, Velocity: 45
Note OFF: Time 22080, Note Name: F4
Note OFF: Time 22080, Note Name: A#3
Note ON: Time 22080, Note Name: E4, Velocity: 44
Note ON: Time 22080, Note Name: C4, Velocity: 37
Note ON: Time 22080, Note Name: A3, Velocity: 37
Note OFF: Time 22310, Note Name: A3
Note OFF: Time 22310, Note Name: C4
Note OFF: Time 22310, Note Name: E4
Note ON: Time 22320, Note Name: G3, Velocity: 39
Note ON: Time 22320, Note Name: A#3, Velocity: 39
Note ON: Time 22320, Note Name: D4, Velocity: 46
Note OFF: Time 22536, Note Name: D4
Note OFF: Time 22536, Note Name: A#3
Note OFF: Time 22536, Note Name: G3
Note ON: Time 22560, Note Name: G3, Velocity: 43
Note ON: Time 22560, Note Name: A#3, Velocity: 43
Note ON: Time 22560, Note Name: D4, Velocity: 50
Note OFF: Time 22800, Note Name: D4
Note OFF: Time 22800, Note Name: A#3
Note OFF: Time 22800, Note Name: G3
Note ON: Time 22800, Note Name: F3, Velocity: 40
Note ON: Time 22800, Note Name: A3, Velocity: 40
Note ON: Time 22800, Note Name: C#4, Velocity: 48
Note OFF: Time 23040, Note Name: C#4
Note OFF: Time 23040, Note Name: A3
Note OFF: Time 23040, Note Name: F3
Note ON: Time 23040, Note Name: A#1, Velocity: 61
Note ON: Time 23040, Note Name: A#2, Velocity: 72
Note OFF: Time 23280, Note Name: A#2
Note OFF: Time 23280, Note Name: A#1
Note ON: Time 23280, Note Name: F3, Velocity: 72
Note OFF: Time 23520, Note Name: F3
Note ON: Time 23520, Note Name: D4, Velocity: 45
Note ON: Time 23520, Note Name: F4, Velocity: 53
Note OFF: Time 24240, Note Name: F4
Note OFF: Time 24240, Note Name: D4
Note ON: Time 24240, Note Name: E4, Velocity: 40
Note ON: Time 24240, Note Name: G4, Velocity: 47
Note OFF: Time 24360, Note Name: G4
Note OFF: Time 24360, Note Name: E4
Note ON: Time 24360, Note Name: F4, Velocity: 39
Note ON: Time 24360, Note Name: A4, Velocity: 46
Note OFF: Time 24480, Note Name: A4
Note OFF: Time 24480, Note Name: F4
Note ON: Time 24480, Note Name: E4, Velocity: 43
Note ON: Time 24480, Note Name: G4, Velocity: 51
Note OFF: Time 24720, Note Name: G4
Note OFF: Time 24720, Note Name: E4
Note ON: Time 24720, Note Name: D4, Velocity: 39
Note ON: Time 24720, Note Name: F4, Velocity: 46
Note OFF: Time 24840, Note Name: F4
Note OFF: Time 24840, Note Name: D4
Note ON: Time 24840, Note Name: E4, Velocity: 39
Note ON: Time 24840, Note Name: G4, Velocity: 46
Note OFF: Time 24960, Note Name: G4
Note OFF: Time 24960, Note Name: E4
Note ON: Time 24960, Note Name: D4, Velocity: 42
Note ON: Time 24960, Note Name: F4, Velocity: 51
Note OFF: Time 25195, Note Name: F4
Note OFF: Time 25195, Note Name: D4
Note ON: Time 25200, Note Name: C4, Velocity: 40
Note ON: Time 25200, Note Name: E4, Velocity: 47
Note OFF: Time 25416, Note Name: E4
Note OFF: Time 25416, Note Name: C4
Note ON: Time 25440, Note Name: C4, Velocity: 40
Note ON: Time 25440, Note Name: E4, Velocity: 47
Note OFF: Time 25660, Note Name: E4
Note OFF: Time 25660, Note Name: C4
Note ON: Time 25680, Note Name: A#3, Velocity: 40
Note ON: Time 25680, Note Name: F4, Velocity: 48
Note OFF: Time 25920, Note Name: F4
Note OFF: Time 25920, Note Name: A#3
Note ON: Time 25920, Note Name: E4, Velocity: 48
Note ON: Time 25920, Note Name: C4, Velocity: 41
Note ON: Time 25920, Note Name: A3, Velocity: 41
Note OFF: Time 26150, Note Name: A3
Note OFF: Time 26150, Note Name: C4
Note OFF: Time 26150, Note Name: E4
Note ON: Time 26160, Note Name: G3, Velocity: 41
Note ON: Time 26160, Note Name: A#3, Velocity: 41
Note ON: Time 26160, Note Name: D4, Velocity: 48
Note OFF: Time 26376, Note Name: D4
Note OFF: Time 26376, Note Name: A#3
Note OFF: Time 26376, Note Name: G3
Note ON: Time 26400, Note Name: G3, Velocity: 45
Note ON: Time 26400, Note Name: A#3, Velocity: 45
Note ON: Time 26400, Note Name: D4, Velocity: 55
Note OFF: Time 26640, Note Name: D4
Note OFF: Time 26640, Note Name: A#3
Note OFF: Time 26640, Note Name: G3
Note ON: Time 26640, Note Name: F3, Velocity: 44
Note ON: Time 26640, Note Name: A3, Velocity: 44
Note ON: Time 26640, Note Name: C#4, Velocity: 53
Note OFF: Time 26880, Note Name: C#4
Note OFF: Time 26880, Note Name: A3
Note OFF: Time 26880, Note Name: F3
Note ON: Time 26880, Note Name: G1, Velocity: 53
Note ON: Time 26880, Note Name: G2, Velocity: 58
Note OFF: Time 27080, Note Name: G2
Note OFF: Time 27080, Note Name: G1
Note ON: Time 27120, Note Name: F3, Velocity: 37
Note OFF: Time 27360, Note Name: F3
Note ON: Time 27360, Note Name: G3, Velocity: 37
Note OFF: Time 27600, Note Name: G3
Note ON: Time 27600, Note Name: A#3, Velocity: 37
Note OFF: Time 27840, Note Name: A#3
Note ON: Time 27840, Note Name: D4, Velocity: 39
Note OFF: Time 28080, Note Name: D4
Note ON: Time 28080, Note Name: F4, Velocity: 36
Note OFF: Time 28320, Note Name: F4
Note ON: Time 28320, Note Name: G4, Velocity: 36
Note OFF: Time 28560, Note Name: G4
Note ON: Time 28560, Note Name: F4, Velocity: 36
Note OFF: Time 28798, Note Name: F4
Note ON: Time 29040, Note Name: E4, Velocity: 48
Note OFF: Time 29280, Note Name: E4
Note ON: Time 29280, Note Name: D4, Velocity: 46
Note OFF: Time 29400, Note Name: D4
Note ON: Time 29400, Note Name: C4, Velocity: 46
Note OFF: Time 29520, Note Name: C4
Note ON: Time 29520, Note Name: A#3, Velocity: 48
Note OFF: Time 29760, Note Name: A#3
Note ON: Time 29760, Note Name: A3, Velocity: 49
Note OFF: Time 29980, Note Name: A3
Note ON: Time 30000, Note Name: G3, Velocity: 58
Note OFF: Time 30220, Note Name: G3
Note ON: Time 30240, Note Name: F3, Velocity: 56
Note OFF: Time 30460, Note Name: F3
Note ON: Time 30480, Note Name: D3, Velocity: 58
Note OFF: Time 30680, Note Name: D3
Note ON: Time 30960, Note Name: A1, Velocity: 48
Note ON: Time 30960, Note Name: A2, Velocity: 57
Note OFF: Time 31080, Note Name: A2
Note OFF: Time 31080, Note Name: A1
Note ON: Time 31200, Note Name: A#1, Velocity: 47
Note ON: Time 31200, Note Name: A#2, Velocity: 56
Note OFF: Time 31320, Note Name: A#2
Note OFF: Time 31320, Note Name: A#1
Note ON: Time 31440, Note Name: C2, Velocity: 48
Note ON: Time 31440, Note Name: C3, Velocity: 57
Note OFF: Time 31560, Note Name: C3
Note OFF: Time 31560, Note Name: C2
Note ON: Time 31920, Note Name: E3, Velocity: 63
Note ON: Time 31920, Note Name: A2, Velocity: 53
Note OFF: Time 32160, Note Name: A2
Note OFF: Time 32160, Note Name: E3
Note ON: Time 32160, Note Name: D3, Velocity: 63
Note OFF: Time 32400, Note Name: D3
Note ON: Time 32400, Note Name: C3, Velocity: 53
Note ON: Time 32400, Note Name: E3, Velocity: 63
Note OFF: Time 32640, Note Name: E3
Note OFF: Time 32640, Note Name: C3
Note ON: Time 32640, Note Name: A#2, Velocity: 47
Note ON: Time 32640, Note Name: F3, Velocity: 56
Note OFF: Time 32880, Note Name: F3
Note OFF: Time 32880, Note Name: A#2
Note ON: Time 32880, Note Name: A2, Velocity: 45
Note ON: Time 32880, Note Name: A3, Velocity: 53
Note OFF: Time 33120, Note Name: A3
Note OFF: Time 33120, Note Name: A2
Note ON: Time 33120, Note Name: G2, Velocity: 43
Note ON: Time 33120, Note Name: D3, Velocity: 43
Note ON: Time 33120, Note Name: A#3, Velocity: 51
Note OFF: Time 34080, Note Name: A#3
Note OFF: Time 34080, Note Name: D3
Note OFF: Time 34080, Note Name: G2
Note ON: Time 34080, Note Name: C3, Velocity: 40
Note ON: Time 34080, Note Name: A#3, Velocity: 46
Note OFF: Time 34560, Note Name: A#3
Note OFF: Time 34560, Note Name: C3
Note ON: Time 34560, Note Name: F2, Velocity: 51
Note ON: Time 34560, Note Name: F1, Velocity: 40
Note OFF: Time 34800, Note Name: F2
Note ON: Time 34800, Note Name: C3, Velocity: 46
Note OFF: Time 35280, Note Name: C3
Note ON: Time 35280, Note Name: F3, Velocity: 42
Note OFF: Time 35760, Note Name: F3
Note ON: Time 35760, Note Name: C4, Velocity: 33
Note OFF: Time 36240, Note Name: C4
Note ON: Time 36240, Note Name: F4, Velocity: 30
Note OFF: Time 36400, Note Name: F4
Note ON: Time 36420, Note Name: A3, Velocity: 28
Note ON: Time 36450, Note Name: E4, Velocity: 28
Note OFF: Time 36480, Note Name: F1
Note ON: Time 36480, Note Name: C5, Velocity: 33
Note OFF: Time 37920, Note Name: C5
Note OFF: Time 37920, Note Name: E4
Note OFF: Time 37920, Note Name: A3
Note ON: Time 37920, Note Name: A3, Velocity: 33
Note ON: Time 37920, Note Name: D3, Velocity: 31
Note OFF: Time 38160, Note Name: D3
Note OFF: Time 38160, Note Name: A3
Note ON: Time 38160, Note Name: B5, Velocity: 37
Note ON: Time 38160, Note Name: A5, Velocity: 37
Note ON: Time 38160, Note Name: F5, Velocity: 37
Note OFF: Time 38400, Note Name: F5
Note OFF: Time 38400, Note Name: A5
Note OFF: Time 38400, Note Name: B5
Note ON: Time 38400, Note Name: A3, Velocity: 27
Note ON: Time 38400, Note Name: E4, Velocity: 27
Note ON: Time 38400, Note Name: C5, Velocity: 33
Note OFF: Time 39840, Note Name: C5
Note OFF: Time 39840, Note Name: E4
Note OFF: Time 39840, Note Name: A3
Note ON: Time 39840, Note Name: C4, Velocity: 33
Note ON: Time 39840, Note Name: D3, Velocity: 27
Note OFF: Time 40320, Note Name: D3
Note OFF: Time 40320, Note Name: C4
Note ON: Time 40320, Note Name: G2, Velocity: 29
Note ON: Time 40320, Note Name: D3, Velocity: 29
Note ON: Time 40320, Note Name: B3, Velocity: 35
Note OFF: Time 40560, Note Name: B3
Note OFF: Time 40560, Note Name: D3
Note OFF: Time 40560, Note Name: G2
Note ON: Time 40560, Note Name: C3, Velocity: 35
Note ON: Time 40560, Note Name: G3, Velocity: 41
Note OFF: Time 41040, Note Name: G3
Note OFF: Time 41040, Note Name: C3
Note ON: Time 41040, Note Name: F2, Velocity: 31
Note ON: Time 41040, Note Name: C3, Velocity: 37
Note OFF: Time 41520, Note Name: F2
Note ON: Time 41520, Note Name: E2, Velocity: 35
Note OFF: Time 41760, Note Name: E2
Note ON: Time 41760, Note Name: D2, Velocity: 35
Note OFF: Time 42240, Note Name: D2
Note OFF: Time 42240, Note Name: C3
Note ON: Time 42240, Note Name: G2, Velocity: 31
Note ON: Time 42240, Note Name: F3, Velocity: 37
Note OFF: Time 43920, Note Name: F3
Note OFF: Time 43920, Note Name: G2
Note ON: Time 43920, Note Name: E2, Velocity: 20
Note ON: Time 43920, Note Name: B2, Velocity: 20
Note ON: Time 43920, Note Name: E3, Velocity: 25
Note OFF: Time 44160, Note Name: E3
Note OFF: Time 44160, Note Name: B2
Note OFF: Time 44160, Note Name: E2
Note ON: Time 44160, Note Name: A3, Velocity: 30
Note ON: Time 44160, Note Name: E4, Velocity: 30
Note ON: Time 44160, Note Name: C5, Velocity: 30
Note OFF: Time 45600, Note Name: C5
Note OFF: Time 45600, Note Name: E4
Note OFF: Time 45600, Note Name: A3
Note ON: Time 45600, Note Name: A3, Velocity: 33
Note ON: Time 45600, Note Name: D3, Velocity: 27
Note OFF: Time 45840, Note Name: D3
Note OFF: Time 45840, Note Name: A3
Note ON: Time 45840, Note Name: B5, Velocity: 37
Note ON: Time 45840, Note Name: A5, Velocity: 37
Note ON: Time 45840, Note Name: F5, Velocity: 37
Note OFF: Time 46080, Note Name: F5
Note OFF: Time 46080, Note Name: A5
Note OFF: Time 46080, Note Name: B5
Note ON: Time 46080, Note Name: A3, Velocity: 27
Note ON: Time 46080, Note Name: E4, Velocity: 27
Note ON: Time 46080, Note Name: C5, Velocity: 33
Note OFF: Time 47040, Note Name: C5
Note OFF: Time 47040, Note Name: E4
Note OFF: Time 47040, Note Name: A3
Note ON: Time 47040, Note Name: D4, Velocity: 33
Note ON: Time 47040, Note Name: A4, Velocity: 33
Note ON: Time 47040, Note Name: F5, Velocity: 39
Note OFF: Time 48000, Note Name: F5
Note OFF: Time 48000, Note Name: A4
Note OFF: Time 48000, Note Name: D4
Note ON: Time 48000, Note Name: G3, Velocity: 27
Note ON: Time 48000, Note Name: F4, Velocity: 32
Note OFF: Time 48960, Note Name: F4
Note OFF: Time 48960, Note Name: G3
Note ON: Time 48960, Note Name: C3, Velocity: 21
Note ON: Time 48960, Note Name: E4, Velocity: 26
Note ON: Time 48960, Note Name: G3, Velocity: 21
Note OFF: Time 49920, Note Name: G3
Note OFF: Time 49920, Note Name: E4
Note OFF: Time 49920, Note Name: C3
Note ON: Time 49920, Note Name: F4, Velocity: 32
Note ON: Time 49920, Note Name: G3, Velocity: 27
Note OFF: Time 50880, Note Name: G3
Note OFF: Time 50880, Note Name: F4
Note ON: Time 50880, Note Name: E4, Velocity: 28
Note ON: Time 50880, Note Name: G3, Velocity: 24
Note ON: Time 50880, Note Name: C3, Velocity: 24
Note OFF: Time 51840, Note Name: C3
Note OFF: Time 51840, Note Name: G3
Note OFF: Time 51840, Note Name: E4
Note ON: Time 51840, Note Name: F#2, Velocity: 23
Note ON: Time 51840, Note Name: B2, Velocity: 23
Note ON: Time 51840, Note Name: A3, Velocity: 27
Note OFF: Time 52800, Note Name: A3
Note OFF: Time 52800, Note Name: B2
Note OFF: Time 52800, Note Name: F#2
Note ON: Time 52800, Note Name: E2, Velocity: 23
Note ON: Time 52800, Note Name: B2, Velocity: 23
Note ON: Time 52800, Note Name: G#3, Velocity: 27
Note OFF: Time 53760, Note Name: G#3
Note OFF: Time 53760, Note Name: B2
Note OFF: Time 53760, Note Name: E2
Note ON: Time 53760, Note Name: F#2, Velocity: 28
Note ON: Time 53760, Note Name: B2, Velocity: 28
Note ON: Time 53760, Note Name: A3, Velocity: 34
Note OFF: Time 54720, Note Name: A3
Note OFF: Time 54720, Note Name: B2
Note OFF: Time 54720, Note Name: F#2
Note ON: Time 54720, Note Name: G#4, Velocity: 42
Note ON: Time 54720, Note Name: B3, Velocity: 35
Note ON: Time 54720, Note Name: E3, Velocity: 35
Note OFF: Time 55680, Note Name: E3
Note OFF: Time 55680, Note Name: B3
Note OFF: Time 55680, Note Name: G#4
Note ON: Time 55680, Note Name: D4, Velocity: 38
Note ON: Time 55680, Note Name: A4, Velocity: 45
Note OFF: Time 56160, Note Name: A4
Note OFF: Time 56160, Note Name: D4
Note ON: Time 56160, Note Name: F4, Velocity: 35
Note ON: Time 56160, Note Name: B4, Velocity: 42
Note OFF: Time 56640, Note Name: B4
Note OFF: Time 56640, Note Name: F4
Note ON: Time 56640, Note Name: G4, Velocity: 42
Note ON: Time 56640, Note Name: C4, Velocity: 35
Note OFF: Time 56880, Note Name: G4
Note ON: Time 56880, Note Name: F4, Velocity: 39
Note OFF: Time 57120, Note Name: C4
Note ON: Time 57120, Note Name: B3, Velocity: 42
Note OFF: Time 57360, Note Name: F4
Note ON: Time 57360, Note Name: E4, Velocity: 39
Note OFF: Time 57600, Note Name: B3
Note ON: Time 57600, Note Name: A3, Velocity: 42
Note OFF: Time 57840, Note Name: E4
Note ON: Time 57840, Note Name: D4, Velocity: 39
Note OFF: Time 58080, Note Name: A3
Note ON: Time 58080, Note Name: A3, Velocity: 42
Note OFF: Time 58320, Note Name: A3
Note ON: Time 58320, Note Name: G3, Velocity: 44
Note OFF: Time 58560, Note Name: G3
Note OFF: Time 58560, Note Name: D4
Note ON: Time 58560, Note Name: F3, Velocity: 33
Note ON: Time 58560, Note Name: D4, Velocity: 39
Note OFF: Time 58800, Note Name: D4
Note OFF: Time 58800, Note Name: F3
Note ON: Time 58800, Note Name: E3, Velocity: 27
Note ON: Time 58800, Note Name: B3, Velocity: 33
Note OFF: Time 59040, Note Name: B3
Note OFF: Time 59040, Note Name: E3
Note ON: Time 59040, Note Name: D3, Velocity: 32
Note ON: Time 59040, Note Name: C4, Velocity: 38
Note OFF: Time 59280, Note Name: C4
Note OFF: Time 59280, Note Name: D3
Note ON: Time 59280, Note Name: C3, Velocity: 30
Note ON: Time 59280, Note Name: E3, Velocity: 36
Note OFF: Time 59520, Note Name: E3
Note OFF: Time 59520, Note Name: C3
Note ON: Time 59520, Note Name: B2, Velocity: 30
Note ON: Time 59520, Note Name: F#3, Velocity: 36
Note OFF: Time 61440, Note Name: F#3
Note OFF: Time 61440, Note Name: B2
Note ON: Time 61440, Note Name: C3, Velocity: 22
Note ON: Time 61440, Note Name: F#3, Velocity: 27
Note OFF: Time 65280, Note Name: F#3
Note OFF: Time 65280, Note Name: C3
Note ON: Time 65280, Note Name: B2, Velocity: 29
Note ON: Time 65280, Note Name: G#3, Velocity: 35
Note OFF: Time 65460, Note Name: G#3
Note OFF: Time 65460, Note Name: B2
Note ON: Time 65520, Note Name: E2, Velocity: 38
Note OFF: Time 65700, Note Name: E2
Note ON: Time 67200, Note Name: A3, Velocity: 25
Note ON: Time 67200, Note Name: E4, Velocity: 25
Note ON: Time 67200, Note Name: C5, Velocity: 30
Note OFF: Time 68640, Note Name: C5
Note OFF: Time 68640, Note Name: E4
Note OFF: Time 68640, Note Name: A3
Note ON: Time 68640, Note Name: A3, Velocity: 33
Note ON: Time 68640, Note Name: D3, Velocity: 27
Note OFF: Time 68880, Note Name: D3
Note OFF: Time 68880, Note Name: A3
Note ON: Time 68880, Note Name: B5, Velocity: 37
Note ON: Time 68880, Note Name: A5, Velocity: 37
Note ON: Time 68880, Note Name: F5, Velocity: 37
Note OFF: Time 69120, Note Name: F5
Note OFF: Time 69120, Note Name: A5
Note OFF: Time 69120, Note Name: B5
Note ON: Time 69120, Note Name: A3, Velocity: 27
Note ON: Time 69120, Note Name: E4, Velocity: 27
Note ON: Time 69120, Note Name: C5, Velocity: 33
Note OFF: Time 70560, Note Name: C5
Note OFF: Time 70560, Note Name: E4
Note OFF: Time 70560, Note Name: A3
Note ON: Time 70560, Note Name: C4, Velocity: 33
Note ON: Time 70560, Note Name: D3, Velocity: 27
Note OFF: Time 71040, Note Name: D3
Note OFF: Time 71040, Note Name: C4
Note ON: Time 71040, Note Name: G2, Velocity: 29
Note ON: Time 71040, Note Name: D3, Velocity: 29
Note ON: Time 71040, Note Name: B3, Velocity: 35
Note OFF: Time 71280, Note Name: B3
Note OFF: Time 71280, Note Name: D3
Note OFF: Time 71280, Note Name: G2
Note ON: Time 71280, Note Name: C3, Velocity: 35
Note ON: Time 71280, Note Name: G3, Velocity: 41
Note OFF: Time 71760, Note Name: G3
Note OFF: Time 71760, Note Name: C3
Note ON: Time 71760, Note Name: F2, Velocity: 31
Note ON: Time 71760, Note Name: C3, Velocity: 37
Note OFF: Time 72240, Note Name: F2
Note ON: Time 72240, Note Name: E2, Velocity: 35
Note OFF: Time 72480, Note Name: E2
Note ON: Time 72480, Note Name: D2, Velocity: 35
Note OFF: Time 72960, Note Name: D2
Note OFF: Time 72960, Note Name: C3
Note ON: Time 72960, Note Name: G2, Velocity: 31
Note ON: Time 72960, Note Name: F3, Velocity: 37
Note OFF: Time 74400, Note Name: F3
Note OFF: Time 74400, Note Name: G2
Note ON: Time 74400, Note Name: B2, Velocity: 31
Note ON: Time 74400, Note Name: F2, Velocity: 26
Note OFF: Time 74600, Note Name: F2
Note ON: Time 74640, Note Name: E2, Velocity: 25
Note OFF: Time 74880, Note Name: E2
Note OFF: Time 74880, Note Name: B2
Note ON: Time 74880, Note Name: A3, Velocity: 25
Note ON: Time 74880, Note Name: E4, Velocity: 25
Note ON: Time 74880, Note Name: C5, Velocity: 30
Note OFF: Time 76320, Note Name: C5
Note OFF: Time 76320, Note Name: E4
Note OFF: Time 76320, Note Name: A3
Note ON: Time 76320, Note Name: A3, Velocity: 33
Note ON: Time 76320, Note Name: D3, Velocity: 27
Note OFF: Time 76560, Note Name: D3
Note OFF: Time 76560, Note Name: A3
Note ON: Time 76560, Note Name: B5, Velocity: 37
Note ON: Time 76560, Note Name: A5, Velocity: 37
Note ON: Time 76560, Note Name: F5, Velocity: 37
Note OFF: Time 76800, Note Name: F5
Note OFF: Time 76800, Note Name: A5
Note OFF: Time 76800, Note Name: B5
Note ON: Time 76800, Note Name: A3, Velocity: 27
Note ON: Time 76800, Note Name: E4, Velocity: 27
Note ON: Time 76800, Note Name: C5, Velocity: 33
Note OFF: Time 77760, Note Name: C5
Note OFF: Time 77760, Note Name: E4
Note OFF: Time 77760, Note Name: A3
Note ON: Time 77760, Note Name: A2, Velocity: 27
Note ON: Time 77760, Note Name: E3, Velocity: 27
Note ON: Time 77760, Note Name: C#4, Velocity: 33
Note OFF: Time 78720, Note Name: C#4
Note OFF: Time 78720, Note Name: E3
Note OFF: Time 78720, Note Name: A2
Note ON: Time 78720, Note Name: F2, Velocity: 19
Note ON: Time 78720, Note Name: C3, Velocity: 27
Note OFF: Time 78960, Note Name: C3
Note OFF: Time 78960, Note Name: F2
Note ON: Time 78960, Note Name: G2, Velocity: 22
Note ON: Time 78960, Note Name: F3, Velocity: 32
Note OFF: Time 79680, Note Name: F3
Note OFF: Time 79680, Note Name: G2
Note ON: Time 79680, Note Name: A2, Velocity: 23
Note ON: Time 79680, Note Name: E3, Velocity: 33
Note OFF: Time 79920, Note Name: E3
Note OFF: Time 79920, Note Name: A2
Note ON: Time 79920, Note Name: D3, Velocity: 33
Note OFF: Time 80400, Note Name: D3
Note ON: Time 80400, Note Name: G3, Velocity: 31
Note OFF: Time 80640, Note Name: G3
Note ON: Time 80880, Note Name: A2, Velocity: 19
Note ON: Time 80880, Note Name: C3, Velocity: 24
Note OFF: Time 80970, Note Name: C3
Note OFF: Time 80970, Note Name: A2
Note ON: Time 81360, Note Name: G2, Velocity: 17
Note ON: Time 81360, Note Name: B2, Velocity: 21
Note OFF: Time 81420, Note Name: B2
Note OFF: Time 81420, Note Name: G2
Note ON: Time 81600, Note Name: A2, Velocity: 19
Note ON: Time 81600, Note Name: C3, Velocity: 24
Note OFF: Time 81660, Note Name: C3
Note OFF: Time 81660, Note Name: A2
Note ON: Time 81840, Note Name: A2, Velocity: 19
Note ON: Time 81840, Note Name: C3, Velocity: 24
Note OFF: Time 81900, Note Name: C3
Note OFF: Time 81900, Note Name: A2
Note ON: Time 82560, Note Name: A#1, Velocity: 25
Note ON: Time 82560, Note Name: A#2, Velocity: 30
Note OFF: Time 83040, Note Name: A#2
Note OFF: Time 83040, Note Name: A#1
Note ON: Time 83040, Note Name: A1, Velocity: 28
Note ON: Time 83040, Note Name: A2, Velocity: 34
Note OFF: Time 83520, Note Name: A2
Note OFF: Time 83520, Note Name: A1
Note ON: Time 83520, Note Name: G1, Velocity: 30
Note ON: Time 83520, Note Name: G2, Velocity: 36
Note OFF: Time 84000, Note Name: G2
Note OFF: Time 84000, Note Name: G1
Note ON: Time 84000, Note Name: F1, Velocity: 28
Note ON: Time 84000, Note Name: F2, Velocity: 34
Note OFF: Time 84480, Note Name: F2
Note OFF: Time 84480, Note Name: F1
Note ON: Time 84480, Note Name: E1, Velocity: 26
Note ON: Time 84480, Note Name: E2, Velocity: 31
Note OFF: Time 84960, Note Name: E2
Note OFF: Time 84960, Note Name: E1
Note ON: Time 84960, Note Name: D1, Velocity: 29
Note ON: Time 84960, Note Name: D2, Velocity: 35
Note OFF: Time 85440, Note Name: D2
Note OFF: Time 85440, Note Name: D1
Note ON: Time 85440, Note Name: C1, Velocity: 32
Note ON: Time 85440, Note Name: C2, Velocity: 38
Note OFF: Time 85920, Note Name: C2
Note OFF: Time 85920, Note Name: C1
Note ON: Time 85920, Note Name: D1, Velocity: 28
Note ON: Time 85920, Note Name: D2, Velocity: 34
Note OFF: Time 86400, Note Name: D2
Note OFF: Time 86400, Note Name: D1
Note ON: Time 86400, Note Name: A#1, Velocity: 31
Note ON: Time 86400, Note Name: A#2, Velocity: 37
Note OFF: Time 86880, Note Name: A#2
Note OFF: Time 86880, Note Name: A#1
Note ON: Time 86880, Note Name: A1, Velocity: 28
Note ON: Time 86880, Note Name: A2, Velocity: 34
Note OFF: Time 87360, Note Name: A2
Note OFF: Time 87360, Note Name: A1
Note ON: Time 87360, Note Name: G1, Velocity: 30
Note ON: Time 87360, Note Name: G2, Velocity: 36
Note OFF: Time 87840, Note Name: G2
Note OFF: Time 87840, Note Name: G1
Note ON: Time 87840, Note Name: F1, Velocity: 28
Note ON: Time 87840, Note Name: F2, Velocity: 34
Note OFF: Time 88320, Note Name: F2
Note OFF: Time 88320, Note Name: F1
Note ON: Time 88320, Note Name: E1, Velocity: 26
Note ON: Time 88320, Note Name: E2, Velocity: 31
Note OFF: Time 88800, Note Name: E2
Note OFF: Time 88800, Note Name: E1
Note ON: Time 88800, Note Name: D1, Velocity: 29
Note ON: Time 88800, Note Name: D2, Velocity: 35
Note OFF: Time 89280, Note Name: D2
Note OFF: Time 89280, Note Name: D1
Note ON: Time 89280, Note Name: C1, Velocity: 32
Note ON: Time 89280, Note Name: C2, Velocity: 38
Note OFF: Time 89760, Note Name: C2
Note OFF: Time 89760, Note Name: C1
Note ON: Time 89760, Note Name: C3, Velocity: 41
Note OFF: Time 90240, Note Name: C3
Note ON: Time 90240, Note Name: D#4, Velocity: 46
Note ON: Time 90720, Note Name: D4, Velocity: 45
Note OFF: Time 91200, Note Name: D4
Note ON: Time 91200, Note Name: C4, Velocity: 42
Note OFF: Time 91680, Note Name: C4
Note ON: Time 91680, Note Name: A#3, Velocity: 42
Note OFF: Time 92160, Note Name: A#3
Note OFF: Time 92160, Note Name: D#4
Note ON: Time 92160, Note Name: D#4, Velocity: 36
Note ON: Time 92160, Note Name: C4, Velocity: 30
Note ON: Time 92160, Note Name: A3, Velocity: 30
Note OFF: Time 92640, Note Name: A3
Note OFF: Time 92640, Note Name: C4
Note OFF: Time 92640, Note Name: D#4
Note ON: Time 92640, Note Name: G4, Velocity: 36
Note ON: Time 92640, Note Name: D#4, Velocity: 30
Note ON: Time 92640, Note Name: C4, Velocity: 30
Note ON: Time 92640, Note Name: G3, Velocity: 30
Note OFF: Time 93120, Note Name: G3
Note OFF: Time 93120, Note Name: G4
Note OFF: Time 93120, Note Name: D#4
Note OFF: Time 93120, Note Name: C4
Note ON: Time 93120, Note Name: A4, Velocity: 38
Note ON: Time 93120, Note Name: D#4, Velocity: 32
Note ON: Time 93120, Note Name: C4, Velocity: 32
Note ON: Time 93120, Note Name: F3, Velocity: 32
Note OFF: Time 93600, Note Name: F3
Note OFF: Time 93600, Note Name: A4
Note OFF: Time 93600, Note Name: D#4
Note OFF: Time 93600, Note Name: C4
Note ON: Time 93600, Note Name: G4, Velocity: 33
Note ON: Time 93600, Note Name: D#4, Velocity: 27
Note ON: Time 93600, Note Name: C4, Velocity: 27
Note ON: Time 93600, Note Name: G3, Velocity: 27
Note OFF: Time 94080, Note Name: G3
Note OFF: Time 94080, Note Name: G4
Note OFF: Time 94080, Note Name: D#4
Note OFF: Time 94080, Note Name: C4
Note ON: Time 94080, Note Name: D#4, Velocity: 46
Note ON: Time 94560, Note Name: D4, Velocity: 45
Note OFF: Time 95040, Note Name: D4
Note ON: Time 95040, Note Name: C4, Velocity: 42
Note OFF: Time 95520, Note Name: C4
Note ON: Time 95520, Note Name: A#3, Velocity: 42
Note OFF: Time 96000, Note Name: A#3
Note OFF: Time 96000, Note Name: D#4
Note ON: Time 96000, Note Name: D#4, Velocity: 36
Note ON: Time 96000, Note Name: C4, Velocity: 30
Note ON: Time 96000, Note Name: A3, Velocity: 30
Note OFF: Time 96480, Note Name: A3
Note OFF: Time 96480, Note Name: C4
Note OFF: Time 96480, Note Name: D#4
Note ON: Time 96480, Note Name: G4, Velocity: 36
Note ON: Time 96480, Note Name: D#4, Velocity: 30
Note ON: Time 96480, Note Name: C4, Velocity: 30
Note ON: Time 96480, Note Name: G3, Velocity: 30
Note OFF: Time 96960, Note Name: G3
Note OFF: Time 96960, Note Name: G4
Note OFF: Time 96960, Note Name: D#4
Note OFF: Time 96960, Note Name: C4
Note ON: Time 96960, Note Name: A4, Velocity: 52
Note ON: Time 96960, Note Name: D#4, Velocity: 41
Note ON: Time 96960, Note Name: C4, Velocity: 35
Note ON: Time 96960, Note Name: F3, Velocity: 35
Note OFF: Time 97180, Note Name: A4
Note ON: Time 97200, Note Name: F4, Velocity: 54
Note OFF: Time 97440, Note Name: F4
Note ON: Time 97440, Note Name: G4, Velocity: 56
Note OFF: Time 97680, Note Name: G4
Note ON: Time 97680, Note Name: A4, Velocity: 59
Note OFF: Time 97920, Note Name: A4
Note OFF: Time 97920, Note Name: F3
Note OFF: Time 97920, Note Name: C4
Note OFF: Time 97920, Note Name: D#4
Note ON: Time 97920, Note Name: A#1, Velocity: 54
Note ON: Time 97920, Note Name: F2, Velocity: 64
Note ON: Time 98880, Note Name: F3, Velocity: 54
Note OFF: Time 99060, Note Name: F3
Note ON: Time 99120, Note Name: F4, Velocity: 46
Note OFF: Time 99300, Note Name: F4
Note ON: Time 99840, Note Name: F4, Velocity: 53
Note OFF: Time 100020, Note Name: F4
Note ON: Time 100080, Note Name: F5, Velocity: 51
Note OFF: Time 100260, Note Name: F5
Note ON: Time 100800, Note Name: F3, Velocity: 51
Note OFF: Time 100980, Note Name: F3
Note ON: Time 101040, Note Name: F4, Velocity: 46
Note OFF: Time 101220, Note Name: F4
Note OFF: Time 101760, Note Name: F2
Note OFF: Time 101760, Note Name: A#1
Note ON: Time 101760, Note Name: A#1, Velocity: 54
Note ON: Time 101760, Note Name: F2, Velocity: 64
Note ON: Time 102720, Note Name: F3, Velocity: 54
Note OFF: Time 102900, Note Name: F3
Note ON: Time 102960, Note Name: F4, Velocity: 47
Note OFF: Time 103140, Note Name: F4
Note ON: Time 103680, Note Name: F4, Velocity: 53
Note OFF: Time 103860, Note Name: F4
Note ON: Time 103920, Note Name: F5, Velocity: 47
Note OFF: Time 104100, Note Name: F5
Note OFF: Time 105600, Note Name: F2
Note OFF: Time 105600, Note Name: A#1
Note ON: Time 105600, Note Name: A1, Velocity: 33
Note ON: Time 105600, Note Name: E2, Velocity: 39
Note ON: Time 106560, Note Name: E3, Velocity: 33
Note OFF: Time 106740, Note Name: E3
Note ON: Time 106800, Note Name: E4, Velocity: 27
Note OFF: Time 106980, Note Name: E4
Note OFF: Time 107520, Note Name: E2
Note OFF: Time 107520, Note Name: A1
Note ON: Time 107520, Note Name: F#6, Velocity: 44
Note OFF: Time 107700, Note Name: F#6
Note ON: Time 108000, Note Name: D#6, Velocity: 44
Note OFF: Time 108180, Note Name: D#6
Note ON: Time 108480, Note Name: C6, Velocity: 43
Note OFF: Time 108660, Note Name: C6
Note ON: Time 108960, Note Name: A5, Velocity: 39
Note OFF: Time 109140, Note Name: A5
Note ON: Time 109440, Note Name: A1, Velocity: 39
Note ON: Time 109440, Note Name: E2, Velocity: 39
Note ON: Time 110400, Note Name: E3, Velocity: 33
Note OFF: Time 110580, Note Name: E3
Note ON: Time 110640, Note Name: E4, Velocity: 27
Note OFF: Time 110820, Note Name: E4
Note OFF: Time 111360, Note Name: E2
Note OFF: Time 111360, Note Name: A1
Note ON: Time 111360, Note Name: F#4, Velocity: 37
Note OFF: Time 111600, Note Name: F#4
Note ON: Time 111840, Note Name: D#4, Velocity: 37
Note OFF: Time 112080, Note Name: D#4
Note ON: Time 112320, Note Name: C4, Velocity: 37
Note OFF: Time 112560, Note Name: C4
Note ON: Time 112800, Note Name: A3, Velocity: 35
Note OFF: Time 113040, Note Name: A3
Note ON: Time 113280, Note Name: G1, Velocity: 26
Note ON: Time 113280, Note Name: G2, Velocity: 31
Note OFF: Time 113760, Note Name: G2
Note OFF: Time 113760, Note Name: G1
Note ON: Time 113760, Note Name: C2, Velocity: 26
Note ON: Time 113760, Note Name: C3, Velocity: 31
Note OFF: Time 114240, Note Name: C3
Note OFF: Time 114240, Note Name: C2
Note ON: Time 114240, Note Name: G2, Velocity: 31
Note ON: Time 114240, Note Name: G3, Velocity: 37
Note OFF: Time 114720, Note Name: G3
Note OFF: Time 114720, Note Name: G2
Note ON: Time 114720, Note Name: C3, Velocity: 27
Note ON: Time 114720, Note Name: C4, Velocity: 33
Note OFF: Time 115200, Note Name: C4
Note OFF: Time 115200, Note Name: C3
Note ON: Time 115200, Note Name: D4, Velocity: 45
Note ON: Time 115200, Note Name: A#3, Velocity: 35
Note ON: Time 115200, Note Name: G3, Velocity: 35
Note OFF: Time 115420, Note Name: D4
Note ON: Time 115440, Note Name: F4, Velocity: 47
Note OFF: Time 115920, Note Name: F4
Note ON: Time 115920, Note Name: E4, Velocity: 45
Note OFF: Time 116040, Note Name: E4
Note ON: Time 116040, Note Name: F4, Velocity: 45
Note OFF: Time 116160, Note Name: F4
Note ON: Time 116160, Note Name: D4, Velocity: 49
Note OFF: Time 116400, Note Name: D4
Note ON: Time 116400, Note Name: C4, Velocity: 46
Note OFF: Time 116520, Note Name: C4
Note ON: Time 116520, Note Name: D4, Velocity: 46
Note OFF: Time 116640, Note Name: D4
Note ON: Time 116640, Note Name: A#3, Velocity: 52
Note OFF: Time 116880, Note Name: A#3
Note ON: Time 116880, Note Name: D4, Velocity: 49
Note OFF: Time 117120, Note Name: D4
Note OFF: Time 117120, Note Name: G3
Note OFF: Time 117120, Note Name: A#3
Note ON: Time 117120, Note Name: G1, Velocity: 31
Note ON: Time 117120, Note Name: G2, Velocity: 37
Note OFF: Time 117600, Note Name: G2
Note OFF: Time 117600, Note Name: G1
Note ON: Time 117600, Note Name: C2, Velocity: 31
Note ON: Time 117600, Note Name: C3, Velocity: 37
Note OFF: Time 118080, Note Name: C3
Note OFF: Time 118080, Note Name: C2
Note ON: Time 118080, Note Name: G2, Velocity: 36
Note ON: Time 118080, Note Name: G3, Velocity: 44
Note OFF: Time 118560, Note Name: G3
Note OFF: Time 118560, Note Name: G2
Note ON: Time 118560, Note Name: C3, Velocity: 33
Note ON: Time 118560, Note Name: C4, Velocity: 39
Note OFF: Time 119040, Note Name: C4
Note OFF: Time 119040, Note Name: C3
Note ON: Time 119040, Note Name: D4, Velocity: 54
Note ON: Time 119040, Note Name: A#3, Velocity: 41
Note ON: Time 119040, Note Name: G3, Velocity: 41
Note OFF: Time 119260, Note Name: D4
Note ON: Time 119280, Note Name: F4, Velocity: 58
Note OFF: Time 119760, Note Name: F4
Note ON: Time 119760, Note Name: E4, Velocity: 54
Note OFF: Time 119880, Note Name: E4
Note ON: Time 119880, Note Name: F4, Velocity: 54
Note OFF: Time 120000, Note Name: F4
Note ON: Time 120000, Note Name: D4, Velocity: 60
Note OFF: Time 120240, Note Name: D4
Note ON: Time 120240, Note Name: C4, Velocity: 57
Note OFF: Time 120360, Note Name: C4
Note ON: Time 120360, Note Name: D4, Velocity: 57
Note OFF: Time 120480, Note Name: D4
Note ON: Time 120480, Note Name: A#3, Velocity: 63
Note OFF: Time 120720, Note Name: A#3
Note ON: Time 120720, Note Name: D4, Velocity: 60
Note OFF: Time 120940, Note Name: D4
Note OFF: Time 120960, Note Name: G3
Note OFF: Time 120960, Note Name: A#3
Note ON: Time 120960, Note Name: F4, Velocity: 58
Note ON: Time 120960, Note Name: A#3, Velocity: 45
Note ON: Time 120960, Note Name: D4, Velocity: 53
Note OFF: Time 121180, Note Name: F4
Note ON: Time 121200, Note Name: A4, Velocity: 62
Note OFF: Time 121680, Note Name: A4
Note ON: Time 121680, Note Name: G4, Velocity: 58
Note OFF: Time 121800, Note Name: G4
Note ON: Time 121800, Note Name: A4, Velocity: 58
Note OFF: Time 121920, Note Name: A4
Note ON: Time 121920, Note Name: F4, Velocity: 63
Note OFF: Time 122160, Note Name: F4
Note ON: Time 122160, Note Name: E4, Velocity: 60
Note OFF: Time 122280, Note Name: E4
Note ON: Time 122280, Note Name: F4, Velocity: 60
Note OFF: Time 122400, Note Name: F4
Note ON: Time 122400, Note Name: D4, Velocity: 67
Note OFF: Time 122640, Note Name: D4
Note ON: Time 122640, Note Name: F4, Velocity: 63
Note OFF: Time 122880, Note Name: F4
Note OFF: Time 122880, Note Name: D4
Note OFF: Time 122880, Note Name: A#3
Note ON: Time 122880, Note Name: C4, Velocity: 55
Note ON: Time 122880, Note Name: D4, Velocity: 55
Note ON: Time 122880, Note Name: G4, Velocity: 55
Note ON: Time 122880, Note Name: F4, Velocity: 55
Note ON: Time 122880, Note Name: A#4, Velocity: 66
Note OFF: Time 123360, Note Name: A#4
Note OFF: Time 123360, Note Name: G4
Note OFF: Time 123360, Note Name: C4
Note OFF: Time 123360, Note Name: D4
Note OFF: Time 123360, Note Name: F4
Note ON: Time 123360, Note Name: G3, Velocity: 62
Note OFF: Time 123840, Note Name: G3
Note ON: Time 123840, Note Name: C4, Velocity: 80
Note OFF: Time 124320, Note Name: C4
Note ON: Time 124320, Note Name: C3, Velocity: 77
Note OFF: Time 124800, Note Name: C3
Note ON: Time 124801, Note Name: F1, Velocity: 97
Note ON: Time 125040, Note Name: F2, Velocity: 78
Note OFF: Time 125041, Note Name: F1
Note OFF: Time 125280, Note Name: F2
Note ON: Time 125280, Note Name: C3, Velocity: 81
Note OFF: Time 125500, Note Name: C3
Note ON: Time 125520, Note Name: C3, Velocity: 81
Note ON: Time 125760, Note Name: D4, Velocity: 75
Note ON: Time 125760, Note Name: A#3, Velocity: 62
Note ON: Time 125760, Note Name: G3, Velocity: 62
Note OFF: Time 127200, Note Name: G3
Note OFF: Time 127200, Note Name: C3
Note OFF: Time 127200, Note Name: D4
Note OFF: Time 127200, Note Name: A#3
Note ON: Time 128640, Note Name: F2, Velocity: 37
Note ON: Time 128640, Note Name: C#3, Velocity: 39
Note ON: Time 128640, Note Name: A3, Velocity: 42
Note OFF: Time 129600, Note Name: A3
Note OFF: Time 129600, Note Name: C#3
Note OFF: Time 129600, Note Name: F2
Note ON: Time 129600, Note Name: F3, Velocity: 45
Note ON: Time 129600, Note Name: A#2, Velocity: 40
Note OFF: Time 130560, Note Name: A#2
Note OFF: Time 130560, Note Name: F3
Note ON: Time 130560, Note Name: A3, Velocity: 45
Note ON: Time 130560, Note Name: C3, Velocity: 40
Note OFF: Time 131520, Note Name: C3
Note ON: Time 131520, Note Name: D3, Velocity: 40
Note OFF: Time 132480, Note Name: D3
Note OFF: Time 132480, Note Name: A3
Note ON: Time 132480, Note Name: A#2, Velocity: 41
Note ON: Time 132480, Note Name: F3, Velocity: 41
Note ON: Time 132480, Note Name: A#3, Velocity: 49
Note OFF: Time 132960, Note Name: A#3
Note OFF: Time 132960, Note Name: F3
Note OFF: Time 132960, Note Name: A#2
Note ON: Time 132960, Note Name: A#3, Velocity: 39
Note ON: Time 132960, Note Name: F4, Velocity: 47
Note OFF: Time 133440, Note Name: F4
Note ON: Time 133440, Note Name: E4, Velocity: 47
Note OFF: Time 133920, Note Name: E4
Note ON: Time 133920, Note Name: D4, Velocity: 51
Note OFF: Time 134160, Note Name: D4
Note ON: Time 134160, Note Name: E4, Velocity: 53
Note OFF: Time 134400, Note Name: A#3
Note ON: Time 134400, Note Name: A3, Velocity: 53
Note OFF: Time 134520, Note Name: E4
Note ON: Time 134520, Note Name: F4, Velocity: 53
Note OFF: Time 134640, Note Name: F4
Note ON: Time 134640, Note Name: G4, Velocity: 53
Note OFF: Time 134760, Note Name: G4
Note ON: Time 134760, Note Name: A4, Velocity: 53
Note OFF: Time 134880, Note Name: A4
Note ON: Time 134880, Note Name: D4, Velocity: 54
Note OFF: Time 135360, Note Name: A3
Note ON: Time 135360, Note Name: G3, Velocity: 46
Note OFF: Time 135600, Note Name: D4
Note ON: Time 135600, Note Name: E4, Velocity: 45
Note OFF: Time 135840, Note Name: E4
Note OFF: Time 135840, Note Name: G3
Note ON: Time 135840, Note Name: C3, Velocity: 41
Note OFF: Time 136320, Note Name: C3
Note ON: Time 136321, Note Name: F1, Velocity: 89
Note ON: Time 136560, Note Name: F2, Velocity: 77
Note OFF: Time 136561, Note Name: F1
Note OFF: Time 136800, Note Name: F2
Note ON: Time 136800, Note Name: C3, Velocity: 81
Note OFF: Time 137020, Note Name: C3
Note ON: Time 137040, Note Name: C3, Velocity: 81
Note ON: Time 137280, Note Name: D4, Velocity: 76
Note ON: Time 137280, Note Name: A#3, Velocity: 63
Note ON: Time 137280, Note Name: G3, Velocity: 63
Note OFF: Time 138720, Note Name: G3
Note OFF: Time 138720, Note Name: C3
Note OFF: Time 138720, Note Name: D4
Note OFF: Time 138720, Note Name: A#3
Note ON: Time 140160, Note Name: D3, Velocity: 36
Note ON: Time 140160, Note Name: A3, Velocity: 43
Note OFF: Time 141000, Note Name: A3
Note OFF: Time 141000, Note Name: D3
Note ON: Time 141000, Note Name: G2, Velocity: 28
Note ON: Time 141060, Note Name: D3, Velocity: 33
Note ON: Time 141120, Note Name: A#3, Velocity: 38
Note OFF: Time 142080, Note Name: A#3
Note OFF: Time 142080, Note Name: D3
Note OFF: Time 142080, Note Name: G2
Note ON: Time 142080, Note Name: A3, Velocity: 41
Note ON: Time 142080, Note Name: D3, Velocity: 35
Note OFF: Time 142920, Note Name: D3
Note OFF: Time 142920, Note Name: A3
Note ON: Time 142920, Note Name: G2, Velocity: 32
Note ON: Time 142980, Note Name: D3, Velocity: 35
Note ON: Time 143040, Note Name: B3, Velocity: 38
Note OFF: Time 144000, Note Name: B3
Note OFF: Time 144000, Note Name: D3
Note OFF: Time 144000, Note Name: G2
Note ON: Time 144000, Note Name: C2, Velocity: 43
Note ON: Time 144000, Note Name: C3, Velocity: 51
Note ON: Time 144480, Note Name: A3, Velocity: 39
Note ON: Time 144480, Note Name: C4, Velocity: 46
Note OFF: Time 144720, Note Name: C4
Note OFF: Time 144720, Note Name: A3
Note ON: Time 144720, Note Name: D4, Velocity: 32
Note ON: Time 144720, Note Name: F4, Velocity: 38
Note OFF: Time 144940, Note Name: F4
Note OFF: Time 144940, Note Name: D4
Note ON: Time 144960, Note Name: A#3, Velocity: 40
Note ON: Time 144960, Note Name: D4, Velocity: 47
Note OFF: Time 145200, Note Name: D4
Note OFF: Time 145200, Note Name: A#3
Note ON: Time 145200, Note Name: G4, Velocity: 38
Note ON: Time 145200, Note Name: E4, Velocity: 32
Note OFF: Time 145420, Note Name: E4
Note OFF: Time 145420, Note Name: G4
Note ON: Time 145440, Note Name: C4, Velocity: 41
Note ON: Time 145440, Note Name: E4, Velocity: 49
Note OFF: Time 145680, Note Name: E4
Note OFF: Time 145680, Note Name: C4
Note ON: Time 145680, Note Name: F4, Velocity: 35
Note ON: Time 145680, Note Name: A4, Velocity: 41
Note OFF: Time 145900, Note Name: A4
Note OFF: Time 145900, Note Name: F4
Note OFF: Time 145920, Note Name: C3
Note OFF: Time 145920, Note Name: C2
Note ON: Time 145920, Note Name: D4, Velocity: 43
Note ON: Time 145920, Note Name: F4, Velocity: 51
Note OFF: Time 146160, Note Name: F4
Note OFF: Time 146160, Note Name: D4
Note ON: Time 146160, Note Name: G4, Velocity: 35
Note ON: Time 146160, Note Name: A#4, Velocity: 41
Note OFF: Time 146380, Note Name: A#4
Note OFF: Time 146380, Note Name: G4
Note ON: Time 146400, Note Name: E4, Velocity: 45
Note ON: Time 146400, Note Name: G4, Velocity: 53
Note OFF: Time 146640, Note Name: G4
Note OFF: Time 146640, Note Name: E4
Note ON: Time 146640, Note Name: C5, Velocity: 43
Note ON: Time 146640, Note Name: A4, Velocity: 36
Note OFF: Time 146860, Note Name: A4
Note OFF: Time 146860, Note Name: C5
Note ON: Time 146880, Note Name: A4, Velocity: 54
Note ON: Time 146880, Note Name: F4, Velocity: 45
Note OFF: Time 147120, Note Name: F4
Note OFF: Time 147120, Note Name: A4
Note ON: Time 147120, Note Name: A#4, Velocity: 37
Note ON: Time 147120, Note Name: D5, Velocity: 45
Note OFF: Time 147340, Note Name: D5
Note OFF: Time 147340, Note Name: A#4
Note ON: Time 147360, Note Name: A#4, Velocity: 57
Note ON: Time 147360, Note Name: G4, Velocity: 48
Note OFF: Time 147600, Note Name: G4
Note OFF: Time 147600, Note Name: A#4
Note ON: Time 147600, Note Name: C5, Velocity: 40
Note ON: Time 147600, Note Name: E5, Velocity: 47
Note OFF: Time 147730, Note Name: E5
Note OFF: Time 147730, Note Name: C5
Note ON: Time 147750, Note Name: A#3, Velocity: 40
Note ON: Time 147780, Note Name: F4, Velocity: 52
Note ON: Time 147810, Note Name: G4, Velocity: 54
Note ON: Time 147840, Note Name: D5, Velocity: 58
Note ON: Time 148320, Note Name: G5, Velocity: 60
Note OFF: Time 148430, Note Name: G5
Note ON: Time 148440, Note Name: D5, Velocity: 57
Note OFF: Time 148550, Note Name: D5
Note ON: Time 148560, Note Name: C5, Velocity: 57
Note OFF: Time 148670, Note Name: C5
Note ON: Time 148680, Note Name: A#4, Velocity: 57
Note OFF: Time 148790, Note Name: A#4
Note OFF: Time 149760, Note Name: D5
Note OFF: Time 149760, Note Name: A#3
Note OFF: Time 149760, Note Name: F4
Note OFF: Time 149760, Note Name: G4
Note ON: Time 149760, Note Name: G3, Velocity: 49
Note ON: Time 149760, Note Name: C4, Velocity: 49
Note ON: Time 149760, Note Name: D4, Velocity: 58
Note ON: Time 149760, Note Name: A#4, Velocity: 58
Note ON: Time 150240, Note Name: G5, Velocity: 60
Note OFF: Time 150350, Note Name: G5
Note ON: Time 150360, Note Name: D5, Velocity: 57
Note OFF: Time 150470, Note Name: D5
Note ON: Time 150480, Note Name: C5, Velocity: 57
Note OFF: Time 150590, Note Name: C5
Note ON: Time 150600, Note Name: A#4, Velocity: 57
Note OFF: Time 150710, Note Name: A#4
Note OFF: Time 151680, Note Name: A#4
Note OFF: Time 151680, Note Name: G3
Note OFF: Time 151680, Note Name: C4
Note OFF: Time 151680, Note Name: D4
Note ON: Time 151680, Note Name: C3, Velocity: 55
Note ON: Time 151680, Note Name: G3, Velocity: 55
Note ON: Time 151680, Note Name: A#3, Velocity: 55
Note ON: Time 151680, Note Name: E4, Velocity: 65
Note ON: Time 152160, Note Name: G5, Velocity: 64
Note OFF: Time 152270, Note Name: G5
Note ON: Time 152280, Note Name: D5, Velocity: 59
Note OFF: Time 152390, Note Name: D5
Note ON: Time 152400, Note Name: C5, Velocity: 59
Note OFF: Time 152510, Note Name: C5
Note ON: Time 152520, Note Name: A#4, Velocity: 59
Note OFF: Time 152630, Note Name: A#4
Note OFF: Time 153600, Note Name: E4
Note OFF: Time 153600, Note Name: C3
Note OFF: Time 153600, Note Name: G3
Note OFF: Time 153600, Note Name: A#3
Note ON: Time 153600, Note Name: F1, Velocity: 68
Note ON: Time 153600, Note Name: F2, Velocity: 81
Note OFF: Time 153840, Note Name: F2
Note OFF: Time 153840, Note Name: F1
Note ON: Time 153840, Note Name: C3, Velocity: 81
Note ON: Time 154080, Note Name: C4, Velocity: 69
Note ON: Time 154080, Note Name: A3, Velocity: 58
Note OFF: Time 155280, Note Name: A3
Note OFF: Time 155280, Note Name: C4
Note ON: Time 155280, Note Name: F3, Velocity: 42
Note ON: Time 155280, Note Name: A3, Velocity: 50
Note OFF: Time 156390, Note Name: C3
Note ON: Time 156390, Note Name: C3, Velocity: 50
Note ON: Time 156420, Note Name: G3, Velocity: 63
Note OFF: Time 156430, Note Name: A3
Note OFF: Time 156430, Note Name: F3
Note ON: Time 156450, Note Name: A#3, Velocity: 56
Note ON: Time 156480, Note Name: E4, Velocity: 72
Note OFF: Time 156960, Note Name: E4
Note ON: Time 156960, Note Name: D4, Velocity: 72
Note OFF: Time 157440, Note Name: D4
Note OFF: Time 157440, Note Name: A#3
Note OFF: Time 157440, Note Name: C3
Note OFF: Time 157440, Note Name: G3
Note ON: Time 157440, Note Name: F1, Velocity: 68
Note ON: Time 157440, Note Name: F2, Velocity: 81
Note OFF: Time 157680, Note Name: F2
Note OFF: Time 157680, Note Name: F1
Note ON: Time 157680, Note Name: C3, Velocity: 81
Note ON: Time 157920, Note Name: C4, Velocity: 69
Note ON: Time 157920, Note Name: A3, Velocity: 58
Note OFF: Time 159120, Note Name: A3
Note OFF: Time 159120, Note Name: C4
Note ON: Time 159120, Note Name: F3, Velocity: 43
Note ON: Time 159120, Note Name: A3, Velocity: 51
Note ON: Time 160230, Note Name: C3, Velocity: 59
Note ON: Time 160260, Note Name: G3, Velocity: 54
Note ON: Time 160290, Note Name: A#3, Velocity: 67
Note OFF: Time 160320, Note Name: A3
Note OFF: Time 160320, Note Name: C3
Note OFF: Time 160320, Note Name: F3
Note ON: Time 160320, Note Name: E4, Velocity: 72
Note OFF: Time 160800, Note Name: E4
Note ON: Time 160800, Note Name: D4, Velocity: 72
Note OFF: Time 161280, Note Name: D4
Note OFF: Time 161280, Note Name: C3
Note OFF: Time 161280, Note Name: G3
Note OFF: Time 161280, Note Name: A#3
Note ON: Time 161280, Note Name: A#1, Velocity: 68
Note ON: Time 161280, Note Name: A#2, Velocity: 81
Note OFF: Time 161520, Note Name: A#2
Note OFF: Time 161520, Note Name: A#1
Note ON: Time 161520, Note Name: F3, Velocity: 81
Note OFF: Time 161760, Note Name: F3
Note ON: Time 161760, Note Name: A#3, Velocity: 57
Note ON: Time 161760, Note Name: D4, Velocity: 68
Note OFF: Time 162480, Note Name: A#3
Note ON: Time 162480, Note Name: A3, Velocity: 65
Note OFF: Time 162600, Note Name: A3
Note ON: Time 162600, Note Name: A#3, Velocity: 65
Note OFF: Time 162720, Note Name: A#3
Note ON: Time 162720, Note Name: A3, Velocity: 68
Note OFF: Time 162960, Note Name: A3
Note OFF: Time 162960, Note Name: D4
Note ON: Time 162960, Note Name: G3, Velocity: 64
Note ON: Time 162960, Note Name: A#3, Velocity: 54
Note OFF: Time 163080, Note Name: G3
Note ON: Time 163080, Note Name: A3, Velocity: 64
Note OFF: Time 163200, Note Name: A3
Note OFF: Time 163200, Note Name: A#3
Note ON: Time 163200, Note Name: A#3, Velocity: 54
Note ON: Time 163200, Note Name: G3, Velocity: 68
Note OFF: Time 163440, Note Name: G3
Note ON: Time 163440, Note Name: F3, Velocity: 63
Note OFF: Time 163680, Note Name: F3
Note OFF: Time 163680, Note Name: A#3
Note ON: Time 163680, Note Name: G3, Velocity: 65
Note OFF: Time 163920, Note Name: G3
Note ON: Time 163920, Note Name: A3, Velocity: 68
Note OFF: Time 164160, Note Name: A3
Note ON: Time 164160, Note Name: A#3, Velocity: 71
Note OFF: Time 164400, Note Name: A#3
Note ON: Time 164400, Note Name: C4, Velocity: 73
Note OFF: Time 164640, Note Name: C4
Note ON: Time 164640, Note Name: D4, Velocity: 76
Note OFF: Time 164880, Note Name: D4
Note ON: Time 164880, Note Name: F4, Velocity: 80
Note OFF: Time 165120, Note Name: F4
Note ON: Time 165120, Note Name: D4, Velocity: 60
Note ON: Time 165120, Note Name: F4, Velocity: 60
Note ON: Time 165120, Note Name: C5, Velocity: 72
Note ON: Time 165120, Note Name: A#4, Velocity: 72
Note OFF: Time 166080, Note Name: A#4
Note OFF: Time 166080, Note Name: D4
Note OFF: Time 166080, Note Name: F4
Note OFF: Time 166080, Note Name: C5
Note ON: Time 166080, Note Name: C4, Velocity: 60
Note ON: Time 166080, Note Name: F4, Velocity: 60
Note ON: Time 166080, Note Name: A4, Velocity: 60
Note ON: Time 166080, Note Name: C5, Velocity: 72
Note OFF: Time 166560, Note Name: C5
Note OFF: Time 166560, Note Name: C4
Note OFF: Time 166560, Note Name: F4
Note OFF: Time 166560, Note Name: A4
Note ON: Time 166560, Note Name: A#3, Velocity: 55
Note ON: Time 166560, Note Name: D4, Velocity: 55
Note ON: Time 166560, Note Name: G4, Velocity: 65
Note ON: Time 166560, Note Name: F4, Velocity: 55
Note OFF: Time 167040, Note Name: F4
Note OFF: Time 167040, Note Name: A#3
Note OFF: Time 167040, Note Name: D4
Note OFF: Time 167040, Note Name: G4
Note ON: Time 167040, Note Name: F3, Velocity: 63
Note ON: Time 167040, Note Name: C4, Velocity: 63
Note ON: Time 167040, Note Name: F4, Velocity: 63
Note ON: Time 167040, Note Name: A4, Velocity: 75
Note OFF: Time 167520, Note Name: A4
Note OFF: Time 167520, Note Name: F3
Note OFF: Time 167520, Note Name: C4
Note OFF: Time 167520, Note Name: F4
Note ON: Time 168960, Note Name: F1, Velocity: 57
Note ON: Time 168960, Note Name: C2, Velocity: 57
Note ON: Time 168960, Note Name: F2, Velocity: 68
Note OFF: Time 169440, Note Name: F2
Note OFF: Time 169440, Note Name: C2
Note OFF: Time 169440, Note Name: F1
Track 3: Debussy: Prelude from Suite bergamasque
Track 4: Copyright  1998 by Bernd Krger
Track 5: http://www.piano-midi.de
Track 6: Edition: 2011-08-04
