Processing debussy_cc_2.mid...

Track 0: Debussy: Childrens Corner 2
Track 1: Piano right
Note ON: Time 6240, Note Name: F3, Velocity: 21
Note ON: Time 6240, Note Name: G3, Velocity: 25
Note OFF: Time 6360, Note Name: G3
Note OFF: Time 6360, Note Name: F3
Note ON: Time 6480, Note Name: F3, Velocity: 21
Note ON: Time 6480, Note Name: G3, Velocity: 25
Note OFF: Time 6600, Note Name: G3
Note OFF: Time 6600, Note Name: F3
Note ON: Time 8640, Note Name: F2, Velocity: 19
Note ON: Time 8640, Note Name: G2, Velocity: 23
Note OFF: Time 8760, Note Name: G2
Note OFF: Time 8760, Note Name: F2
Note ON: Time 15360, Note Name: G5, Velocity: 40
Note ON: Time 16320, Note Name: F4, Velocity: 17
Note ON: Time 16320, Note Name: G4, Velocity: 21
Note OFF: Time 16440, Note Name: G4
Note OFF: Time 16440, Note Name: F4
Note ON: Time 16560, Note Name: F4, Velocity: 17
Note ON: Time 16560, Note Name: G4, Velocity: 21
Note OFF: Time 17280, Note Name: G5
Note OFF: Time 17760, Note Name: G4
Note OFF: Time 17760, Note Name: F4
Note ON: Time 17760, Note Name: F4, Velocity: 17
Note ON: Time 17760, Note Name: G4, Velocity: 21
Note ON: Time 19200, Note Name: D#4, Velocity: 33
Note OFF: Time 19680, Note Name: G4
Note OFF: Time 19680, Note Name: F4
Note ON: Time 19680, Note Name: F4, Velocity: 17
Note ON: Time 19680, Note Name: G4, Velocity: 21
Note OFF: Time 21120, Note Name: D#4
Note ON: Time 21120, Note Name: C#4, Velocity: 33
Note OFF: Time 21600, Note Name: G4
Note OFF: Time 21600, Note Name: F4
Note ON: Time 21600, Note Name: F4, Velocity: 17
Note ON: Time 21600, Note Name: G4, Velocity: 21
Note OFF: Time 23040, Note Name: C#4
Note ON: Time 23040, Note Name: D#4, Velocity: 33
Note OFF: Time 23520, Note Name: G4
Note OFF: Time 23520, Note Name: F4
Note ON: Time 23520, Note Name: F4, Velocity: 17
Note ON: Time 23520, Note Name: G4, Velocity: 21
Note OFF: Time 24000, Note Name: D#4
Note ON: Time 24000, Note Name: D#4, Velocity: 33
Note OFF: Time 24960, Note Name: D#4
Note ON: Time 24960, Note Name: C#4, Velocity: 35
Note OFF: Time 25440, Note Name: G4
Note OFF: Time 25440, Note Name: F4
Note ON: Time 25440, Note Name: F4, Velocity: 17
Note ON: Time 25440, Note Name: G4, Velocity: 21
Note OFF: Time 26880, Note Name: G4
Note OFF: Time 26880, Note Name: F4
Note OFF: Time 26880, Note Name: C#4
Note ON: Time 27360, Note Name: F2, Velocity: 22
Note ON: Time 27360, Note Name: G2, Velocity: 26
Note OFF: Time 27480, Note Name: G2
Note OFF: Time 27480, Note Name: F2
Note ON: Time 27600, Note Name: F2, Velocity: 24
Note ON: Time 27600, Note Name: G2, Velocity: 29
Note OFF: Time 27720, Note Name: G2
Note OFF: Time 27720, Note Name: F2
Note ON: Time 29760, Note Name: F2, Velocity: 19
Note ON: Time 29760, Note Name: G2, Velocity: 23
Note OFF: Time 29880, Note Name: G2
Note OFF: Time 29880, Note Name: F2
Note ON: Time 33600, Note Name: F2, Velocity: 19
Note ON: Time 33600, Note Name: G2, Velocity: 23
Note OFF: Time 33720, Note Name: G2
Note OFF: Time 33720, Note Name: F2
Note ON: Time 34560, Note Name: G4, Velocity: 26
Note ON: Time 34560, Note Name: F4, Velocity: 26
Note OFF: Time 35040, Note Name: F4
Note OFF: Time 35040, Note Name: G4
Note ON: Time 35040, Note Name: C4, Velocity: 17
Note ON: Time 35040, Note Name: D4, Velocity: 21
Note OFF: Time 35520, Note Name: D4
Note OFF: Time 35520, Note Name: C4
Note ON: Time 35520, Note Name: F4, Velocity: 24
Note ON: Time 35520, Note Name: G4, Velocity: 24
Note OFF: Time 36000, Note Name: G4
Note OFF: Time 36000, Note Name: F4
Note ON: Time 36000, Note Name: C4, Velocity: 17
Note ON: Time 36000, Note Name: D4, Velocity: 21
Note OFF: Time 36480, Note Name: D4
Note OFF: Time 36480, Note Name: C4
Note ON: Time 36480, Note Name: G4, Velocity: 25
Note ON: Time 36480, Note Name: F4, Velocity: 21
Note OFF: Time 36960, Note Name: F4
Note OFF: Time 36960, Note Name: G4
Note ON: Time 36960, Note Name: C4, Velocity: 17
Note ON: Time 36960, Note Name: D4, Velocity: 21
Note OFF: Time 37440, Note Name: D4
Note OFF: Time 37440, Note Name: C4
Note ON: Time 37440, Note Name: F4, Velocity: 19
Note ON: Time 37440, Note Name: G4, Velocity: 23
Note OFF: Time 37920, Note Name: G4
Note OFF: Time 37920, Note Name: F4
Note ON: Time 37920, Note Name: C4, Velocity: 17
Note ON: Time 37920, Note Name: D4, Velocity: 21
Note OFF: Time 38400, Note Name: D4
Note OFF: Time 38400, Note Name: C4
Note ON: Time 38400, Note Name: F4, Velocity: 30
Note OFF: Time 38880, Note Name: F4
Note ON: Time 38880, Note Name: D4, Velocity: 36
Note OFF: Time 39840, Note Name: D4
Note ON: Time 39840, Note Name: F4, Velocity: 34
Note OFF: Time 40080, Note Name: F4
Note ON: Time 40080, Note Name: G4, Velocity: 34
Note OFF: Time 40320, Note Name: G4
Note ON: Time 40320, Note Name: C4, Velocity: 36
Note OFF: Time 40560, Note Name: C4
Note ON: Time 40560, Note Name: D4, Velocity: 30
Note OFF: Time 40800, Note Name: D4
Note ON: Time 40800, Note Name: F4, Velocity: 36
Note OFF: Time 41760, Note Name: F4
Note ON: Time 41760, Note Name: D4, Velocity: 30
Note OFF: Time 42000, Note Name: D4
Note ON: Time 42000, Note Name: C4, Velocity: 27
Note OFF: Time 42220, Note Name: C4
Note ON: Time 42240, Note Name: C4, Velocity: 34
Note OFF: Time 42480, Note Name: C4
Note ON: Time 42480, Note Name: D4, Velocity: 28
Note OFF: Time 42700, Note Name: D4
Note ON: Time 42720, Note Name: D4, Velocity: 31
Note OFF: Time 43200, Note Name: D4
Note ON: Time 43200, Note Name: C4, Velocity: 31
Note OFF: Time 43680, Note Name: C4
Note ON: Time 43680, Note Name: F4, Velocity: 35
Note OFF: Time 44160, Note Name: F4
Note ON: Time 44160, Note Name: D4, Velocity: 29
Note ON: Time 45600, Note Name: C5, Velocity: 33
Note OFF: Time 45840, Note Name: C5
Note ON: Time 45840, Note Name: A4, Velocity: 29
Note OFF: Time 46080, Note Name: A4
Note OFF: Time 46080, Note Name: D4
Note ON: Time 46080, Note Name: C4, Velocity: 21
Note ON: Time 46080, Note Name: D4, Velocity: 21
Note ON: Time 46080, Note Name: G4, Velocity: 33
Note OFF: Time 46320, Note Name: G4
Note ON: Time 46320, Note Name: F4, Velocity: 32
Note OFF: Time 46560, Note Name: F4
Note ON: Time 46560, Note Name: G4, Velocity: 33
Note OFF: Time 47520, Note Name: G4
Note ON: Time 47520, Note Name: A4, Velocity: 37
Note OFF: Time 47760, Note Name: A4
Note ON: Time 47760, Note Name: C5, Velocity: 33
Note OFF: Time 48000, Note Name: C5
Note OFF: Time 48000, Note Name: D4
Note OFF: Time 48000, Note Name: C4
Note ON: Time 48000, Note Name: C4, Velocity: 21
Note ON: Time 48000, Note Name: D4, Velocity: 21
Note ON: Time 48000, Note Name: G4, Velocity: 42
Note OFF: Time 48480, Note Name: G4
Note ON: Time 48480, Note Name: D5, Velocity: 42
Note OFF: Time 48960, Note Name: D5
Note ON: Time 48960, Note Name: C5, Velocity: 35
Note OFF: Time 49440, Note Name: C5
Note ON: Time 49440, Note Name: A4, Velocity: 33
Note OFF: Time 49920, Note Name: A4
Note OFF: Time 49920, Note Name: D4
Note OFF: Time 49920, Note Name: C4
Note ON: Time 49920, Note Name: C4, Velocity: 21
Note ON: Time 49920, Note Name: D4, Velocity: 21
Note ON: Time 49920, Note Name: G4, Velocity: 32
Note OFF: Time 50160, Note Name: G4
Note ON: Time 50160, Note Name: F4, Velocity: 26
Note OFF: Time 50400, Note Name: F4
Note ON: Time 50400, Note Name: G4, Velocity: 33
Note OFF: Time 50880, Note Name: G4
Note ON: Time 50880, Note Name: A4, Velocity: 35
Note OFF: Time 51360, Note Name: A4
Note ON: Time 51360, Note Name: C5, Velocity: 41
Note OFF: Time 51840, Note Name: C5
Note OFF: Time 51840, Note Name: D4
Note OFF: Time 51840, Note Name: C4
Note ON: Time 51840, Note Name: C4, Velocity: 21
Note ON: Time 51840, Note Name: D4, Velocity: 21
Note ON: Time 51840, Note Name: G4, Velocity: 34
Note OFF: Time 53760, Note Name: G4
Note OFF: Time 53760, Note Name: D4
Note OFF: Time 53760, Note Name: C4
Note ON: Time 54240, Note Name: G#2, Velocity: 21
Note ON: Time 54240, Note Name: A#2, Velocity: 25
Note OFF: Time 54360, Note Name: A#2
Note OFF: Time 54360, Note Name: G#2
Note ON: Time 54480, Note Name: G#2, Velocity: 21
Note ON: Time 54480, Note Name: A#2, Velocity: 25
Note OFF: Time 55200, Note Name: A#2
Note OFF: Time 55200, Note Name: G#2
Note ON: Time 55200, Note Name: G#2, Velocity: 21
Note ON: Time 55200, Note Name: A#2, Velocity: 25
Note OFF: Time 55320, Note Name: A#2
Note OFF: Time 55320, Note Name: G#2
Note ON: Time 56880, Note Name: A#2, Velocity: 31
Note ON: Time 56880, Note Name: G#2, Velocity: 26
Note OFF: Time 57360, Note Name: G#2
Note OFF: Time 57360, Note Name: A#2
Note ON: Time 57360, Note Name: A#3, Velocity: 37
Note ON: Time 57360, Note Name: G#3, Velocity: 31
Note OFF: Time 57600, Note Name: G#3
Note OFF: Time 57600, Note Name: A#3
Note ON: Time 58080, Note Name: G#2, Velocity: 21
Note ON: Time 58080, Note Name: A#2, Velocity: 25
Note OFF: Time 58200, Note Name: A#2
Note OFF: Time 58200, Note Name: G#2
Note ON: Time 58320, Note Name: G#2, Velocity: 21
Note ON: Time 58320, Note Name: A#2, Velocity: 25
Note OFF: Time 59040, Note Name: A#2
Note OFF: Time 59040, Note Name: G#2
Note ON: Time 59040, Note Name: G#2, Velocity: 21
Note ON: Time 59040, Note Name: A#2, Velocity: 25
Note OFF: Time 59160, Note Name: A#2
Note OFF: Time 59160, Note Name: G#2
Note ON: Time 60000, Note Name: C3, Velocity: 31
Note ON: Time 60000, Note Name: A#2, Velocity: 26
Note OFF: Time 60120, Note Name: A#2
Note OFF: Time 60120, Note Name: C3
Note ON: Time 60480, Note Name: A#3, Velocity: 31
Note ON: Time 60480, Note Name: C4, Velocity: 37
Note OFF: Time 60600, Note Name: C4
Note OFF: Time 60600, Note Name: A#3
Note ON: Time 61920, Note Name: A#3, Velocity: 26
Note ON: Time 61920, Note Name: C#4, Velocity: 26
Note ON: Time 61920, Note Name: F#4, Velocity: 31
Note OFF: Time 62040, Note Name: F#4
Note OFF: Time 62040, Note Name: C#4
Note OFF: Time 62040, Note Name: A#3
Note ON: Time 62160, Note Name: A#3, Velocity: 26
Note ON: Time 62160, Note Name: C#4, Velocity: 26
Note ON: Time 62160, Note Name: F#4, Velocity: 31
Note OFF: Time 62280, Note Name: F#4
Note OFF: Time 62280, Note Name: C#4
Note OFF: Time 62280, Note Name: A#3
Note ON: Time 62400, Note Name: F4, Velocity: 29
Note ON: Time 62400, Note Name: C4, Velocity: 24
Note ON: Time 62400, Note Name: G#3, Velocity: 24
Note OFF: Time 62880, Note Name: G#3
Note OFF: Time 62880, Note Name: C4
Note OFF: Time 62880, Note Name: F4
Note ON: Time 62880, Note Name: F4, Velocity: 25
Note ON: Time 62880, Note Name: C4, Velocity: 21
Note ON: Time 62880, Note Name: G#3, Velocity: 21
Note OFF: Time 63360, Note Name: G#3
Note OFF: Time 63360, Note Name: C4
Note OFF: Time 63360, Note Name: F4
Note ON: Time 63840, Note Name: F#3, Velocity: 26
Note ON: Time 63840, Note Name: A#3, Velocity: 26
Note ON: Time 63840, Note Name: D#4, Velocity: 31
Note OFF: Time 63960, Note Name: D#4
Note OFF: Time 63960, Note Name: A#3
Note OFF: Time 63960, Note Name: F#3
Note ON: Time 64080, Note Name: F#3, Velocity: 26
Note ON: Time 64080, Note Name: A#3, Velocity: 26
Note ON: Time 64080, Note Name: D#4, Velocity: 31
Note OFF: Time 64200, Note Name: D#4
Note OFF: Time 64200, Note Name: A#3
Note OFF: Time 64200, Note Name: F#3
Note ON: Time 64320, Note Name: C#4, Velocity: 29
Note ON: Time 64320, Note Name: G#3, Velocity: 24
Note ON: Time 64320, Note Name: F3, Velocity: 24
Note OFF: Time 64800, Note Name: F3
Note OFF: Time 64800, Note Name: G#3
Note OFF: Time 64800, Note Name: C#4
Note ON: Time 64800, Note Name: B3, Velocity: 21
Note ON: Time 64800, Note Name: A#4, Velocity: 35
Note ON: Time 64800, Note Name: F4, Velocity: 27
Note ON: Time 64800, Note Name: D4, Velocity: 21
Note OFF: Time 65280, Note Name: D4
Note OFF: Time 65280, Note Name: B3
Note OFF: Time 65280, Note Name: A#4
Note OFF: Time 65280, Note Name: F4
Note ON: Time 65760, Note Name: A#3, Velocity: 26
Note ON: Time 65760, Note Name: C#4, Velocity: 26
Note ON: Time 65760, Note Name: F#4, Velocity: 31
Note OFF: Time 65880, Note Name: F#4
Note OFF: Time 65880, Note Name: C#4
Note OFF: Time 65880, Note Name: A#3
Note ON: Time 66000, Note Name: A#3, Velocity: 26
Note ON: Time 66000, Note Name: C#4, Velocity: 26
Note ON: Time 66000, Note Name: F#4, Velocity: 31
Note OFF: Time 66120, Note Name: F#4
Note OFF: Time 66120, Note Name: C#4
Note OFF: Time 66120, Note Name: A#3
Note ON: Time 66240, Note Name: F4, Velocity: 29
Note ON: Time 66240, Note Name: C4, Velocity: 24
Note ON: Time 66240, Note Name: G#3, Velocity: 24
Note OFF: Time 66360, Note Name: G#3
Note OFF: Time 66360, Note Name: C4
Note OFF: Time 66360, Note Name: F4
Note ON: Time 66480, Note Name: G#3, Velocity: 22
Note ON: Time 66480, Note Name: C4, Velocity: 22
Note ON: Time 66480, Note Name: F4, Velocity: 27
Note OFF: Time 66600, Note Name: F4
Note OFF: Time 66600, Note Name: C4
Note OFF: Time 66600, Note Name: G#3
Note ON: Time 66720, Note Name: F4, Velocity: 25
Note ON: Time 66720, Note Name: C4, Velocity: 21
Note ON: Time 66720, Note Name: G#3, Velocity: 21
Note OFF: Time 66840, Note Name: G#3
Note OFF: Time 66840, Note Name: C4
Note OFF: Time 66840, Note Name: F4
Note ON: Time 66960, Note Name: G#3, Velocity: 19
Note ON: Time 66960, Note Name: C4, Velocity: 19
Note ON: Time 66960, Note Name: F4, Velocity: 23
Note OFF: Time 67080, Note Name: F4
Note OFF: Time 67080, Note Name: C4
Note OFF: Time 67080, Note Name: G#3
Note ON: Time 67680, Note Name: F#3, Velocity: 26
Note ON: Time 67680, Note Name: A#3, Velocity: 26
Note ON: Time 67680, Note Name: D#4, Velocity: 31
Note OFF: Time 67800, Note Name: D#4
Note OFF: Time 67800, Note Name: A#3
Note OFF: Time 67800, Note Name: F#3
Note ON: Time 67920, Note Name: F#3, Velocity: 26
Note ON: Time 67920, Note Name: A#3, Velocity: 26
Note ON: Time 67920, Note Name: D#4, Velocity: 31
Note OFF: Time 68040, Note Name: D#4
Note OFF: Time 68040, Note Name: A#3
Note OFF: Time 68040, Note Name: F#3
Note ON: Time 68160, Note Name: C#4, Velocity: 29
Note ON: Time 68160, Note Name: A#3, Velocity: 24
Note ON: Time 68160, Note Name: F#3, Velocity: 24
Note OFF: Time 68640, Note Name: F#3
Note OFF: Time 68640, Note Name: A#3
Note OFF: Time 68640, Note Name: C#4
Note ON: Time 68640, Note Name: F3, Velocity: 21
Note ON: Time 68640, Note Name: D#4, Velocity: 27
Note ON: Time 68640, Note Name: G#3, Velocity: 21
Note OFF: Time 69120, Note Name: G#3
Note OFF: Time 69120, Note Name: D#4
Note OFF: Time 69120, Note Name: F3
Note ON: Time 69120, Note Name: E3, Velocity: 19
Note ON: Time 69120, Note Name: G3, Velocity: 19
Note ON: Time 69120, Note Name: A#3, Velocity: 24
Note OFF: Time 71520, Note Name: A#3
Note OFF: Time 71520, Note Name: G3
Note OFF: Time 71520, Note Name: E3
Note ON: Time 72960, Note Name: D#3, Velocity: 20
Note ON: Time 72960, Note Name: G3, Velocity: 24
Note OFF: Time 73920, Note Name: D#3
Note ON: Time 73920, Note Name: C#3, Velocity: 20
Note OFF: Time 74880, Note Name: C#3
Note OFF: Time 74880, Note Name: G3
Note ON: Time 74880, Note Name: D#3, Velocity: 20
Note ON: Time 74880, Note Name: G3, Velocity: 24
Note OFF: Time 75360, Note Name: D#3
Note ON: Time 75360, Note Name: D#3, Velocity: 20
Note OFF: Time 75840, Note Name: D#3
Note ON: Time 75840, Note Name: C#3, Velocity: 20
Note OFF: Time 76800, Note Name: C#3
Note OFF: Time 76800, Note Name: G3
Note ON: Time 76800, Note Name: G4, Velocity: 24
Note ON: Time 76800, Note Name: D#4, Velocity: 24
Note ON: Time 76800, Note Name: G3, Velocity: 24
Note OFF: Time 78720, Note Name: G3
Note OFF: Time 78720, Note Name: D#4
Note OFF: Time 78720, Note Name: G4
Note ON: Time 78720, Note Name: C#5, Velocity: 31
Note ON: Time 78720, Note Name: A4, Velocity: 31
Note ON: Time 78720, Note Name: C#4, Velocity: 31
Note OFF: Time 80640, Note Name: C#4
Note OFF: Time 80640, Note Name: A4
Note OFF: Time 80640, Note Name: C#5
Note ON: Time 80640, Note Name: D#3, Velocity: 20
Note ON: Time 80640, Note Name: G3, Velocity: 24
Note OFF: Time 81600, Note Name: D#3
Note ON: Time 81600, Note Name: C#3, Velocity: 20
Note OFF: Time 82560, Note Name: C#3
Note OFF: Time 82560, Note Name: G3
Note ON: Time 82560, Note Name: D#3, Velocity: 20
Note ON: Time 82560, Note Name: G3, Velocity: 24
Note OFF: Time 83040, Note Name: D#3
Note ON: Time 83040, Note Name: D#3, Velocity: 20
Note OFF: Time 83520, Note Name: D#3
Note ON: Time 83520, Note Name: C#3, Velocity: 20
Note OFF: Time 84480, Note Name: C#3
Note OFF: Time 84480, Note Name: G3
Note ON: Time 84480, Note Name: G5, Velocity: 35
Note ON: Time 84480, Note Name: B5, Velocity: 37
Note ON: Time 84480, Note Name: B4, Velocity: 31
Note OFF: Time 87360, Note Name: B4
Note OFF: Time 87360, Note Name: B5
Note OFF: Time 87360, Note Name: G5
Note ON: Time 88320, Note Name: G3, Velocity: 38
Note ON: Time 88320, Note Name: B3, Velocity: 45
Note OFF: Time 88800, Note Name: B3
Note OFF: Time 88800, Note Name: G3
Note ON: Time 88800, Note Name: B3, Velocity: 41
Note ON: Time 88800, Note Name: G3, Velocity: 34
Note OFF: Time 88920, Note Name: G3
Note OFF: Time 88920, Note Name: B3
Note ON: Time 89040, Note Name: B3, Velocity: 41
Note ON: Time 89040, Note Name: G3, Velocity: 34
Note OFF: Time 89160, Note Name: G3
Note OFF: Time 89160, Note Name: B3
Note ON: Time 89280, Note Name: A#3, Velocity: 43
Note ON: Time 89280, Note Name: F#3, Velocity: 36
Note OFF: Time 89400, Note Name: F#3
Note OFF: Time 89400, Note Name: A#3
Note ON: Time 89520, Note Name: A#3, Velocity: 37
Note ON: Time 89520, Note Name: F#3, Velocity: 31
Note OFF: Time 89640, Note Name: F#3
Note OFF: Time 89640, Note Name: A#3
Note ON: Time 89760, Note Name: A#3, Velocity: 37
Note ON: Time 89760, Note Name: F#3, Velocity: 31
Note OFF: Time 89880, Note Name: F#3
Note OFF: Time 89880, Note Name: A#3
Note ON: Time 90000, Note Name: A#3, Velocity: 37
Note ON: Time 90000, Note Name: F#3, Velocity: 31
Note OFF: Time 90120, Note Name: F#3
Note OFF: Time 90120, Note Name: A#3
Note ON: Time 90240, Note Name: F3, Velocity: 38
Note ON: Time 90240, Note Name: A3, Velocity: 45
Note OFF: Time 90720, Note Name: A3
Note OFF: Time 90720, Note Name: F3
Note ON: Time 90720, Note Name: A3, Velocity: 41
Note ON: Time 90726, Note Name: F3, Velocity: 34
Note OFF: Time 90840, Note Name: A3
Note OFF: Time 90846, Note Name: F3
Note ON: Time 90960, Note Name: A3, Velocity: 41
Note ON: Time 90960, Note Name: F3, Velocity: 34
Note OFF: Time 91080, Note Name: F3
Note OFF: Time 91080, Note Name: A3
Note ON: Time 91200, Note Name: G#3, Velocity: 43
Note ON: Time 91200, Note Name: E3, Velocity: 36
Note OFF: Time 91680, Note Name: E3
Note OFF: Time 91680, Note Name: G#3
Note ON: Time 91680, Note Name: C4, Velocity: 37
Note ON: Time 91680, Note Name: G#3, Velocity: 31
Note OFF: Time 92160, Note Name: G#3
Note OFF: Time 92160, Note Name: C4
Note ON: Time 92160, Note Name: G3, Velocity: 39
Note ON: Time 92160, Note Name: B3, Velocity: 46
Note OFF: Time 92640, Note Name: B3
Note OFF: Time 92640, Note Name: G3
Note ON: Time 92640, Note Name: E4, Velocity: 45
Note ON: Time 92640, Note Name: A3, Velocity: 38
Note OFF: Time 93120, Note Name: A3
Note OFF: Time 93120, Note Name: E4
Note ON: Time 93120, Note Name: B3, Velocity: 44
Note ON: Time 93120, Note Name: G4, Velocity: 52
Note OFF: Time 93600, Note Name: G4
Note OFF: Time 93600, Note Name: B3
Note ON: Time 93600, Note Name: A3, Velocity: 38
Note ON: Time 93600, Note Name: E4, Velocity: 45
Note OFF: Time 94080, Note Name: E4
Note OFF: Time 94080, Note Name: A3
Note ON: Time 94080, Note Name: G3, Velocity: 42
Note ON: Time 94080, Note Name: B3, Velocity: 50
Note OFF: Time 94560, Note Name: B3
Note OFF: Time 94560, Note Name: G3
Note ON: Time 94560, Note Name: A3, Velocity: 43
Note ON: Time 94560, Note Name: E3, Velocity: 36
Note OFF: Time 95040, Note Name: E3
Note OFF: Time 95040, Note Name: A3
Note ON: Time 95040, Note Name: B3, Velocity: 47
Note ON: Time 95040, Note Name: G3, Velocity: 39
Note OFF: Time 96480, Note Name: G3
Note OFF: Time 96480, Note Name: B3
Note ON: Time 96480, Note Name: A3, Velocity: 45
Note ON: Time 96480, Note Name: E3, Velocity: 38
Note OFF: Time 96960, Note Name: E3
Note OFF: Time 96960, Note Name: A3
Note ON: Time 96960, Note Name: B3, Velocity: 52
Note ON: Time 96960, Note Name: G3, Velocity: 37
Note OFF: Time 97440, Note Name: G3
Note OFF: Time 97440, Note Name: B3
Note ON: Time 97440, Note Name: E4, Velocity: 50
Note ON: Time 97440, Note Name: A3, Velocity: 42
Note OFF: Time 97920, Note Name: A3
Note OFF: Time 97920, Note Name: E4
Note ON: Time 97920, Note Name: B3, Velocity: 54
Note ON: Time 97920, Note Name: G3, Velocity: 45
Note OFF: Time 98880, Note Name: G3
Note OFF: Time 98880, Note Name: B3
Note ON: Time 98880, Note Name: E3, Velocity: 30
Note ON: Time 98880, Note Name: A3, Velocity: 43
Note OFF: Time 99360, Note Name: A3
Note OFF: Time 99360, Note Name: E3
Note ON: Time 99360, Note Name: B3, Velocity: 42
Note ON: Time 99360, Note Name: G3, Velocity: 35
Note OFF: Time 99840, Note Name: G3
Note OFF: Time 99840, Note Name: B3
Note ON: Time 99840, Note Name: A#3, Velocity: 48
Note ON: Time 99840, Note Name: C#4, Velocity: 48
Note OFF: Time 100310, Note Name: C#4
Note OFF: Time 101760, Note Name: A#3
Note ON: Time 102000, Note Name: C#3, Velocity: 30
Note OFF: Time 102240, Note Name: C#3
Note ON: Time 102240, Note Name: C#4, Velocity: 38
Note ON: Time 102240, Note Name: A#3, Velocity: 38
Note OFF: Time 102480, Note Name: A#3
Note OFF: Time 102480, Note Name: C#4
Note ON: Time 102480, Note Name: C#3, Velocity: 30
Note OFF: Time 103200, Note Name: C#3
Note ON: Time 103200, Note Name: C#3, Velocity: 33
Note OFF: Time 103440, Note Name: C#3
Note ON: Time 103920, Note Name: C#3, Velocity: 30
Note OFF: Time 104160, Note Name: C#3
Note ON: Time 104160, Note Name: C#4, Velocity: 38
Note ON: Time 104160, Note Name: A#3, Velocity: 38
Note OFF: Time 104400, Note Name: A#3
Note OFF: Time 104400, Note Name: C#4
Note ON: Time 104400, Note Name: C#3, Velocity: 30
Note OFF: Time 104640, Note Name: C#3
Note ON: Time 104880, Note Name: C#3, Velocity: 37
Note OFF: Time 105000, Note Name: C#3
Note ON: Time 105360, Note Name: C#3, Velocity: 41
Note OFF: Time 105480, Note Name: C#3
Note ON: Time 105840, Note Name: C#3, Velocity: 30
Note OFF: Time 106080, Note Name: C#3
Note ON: Time 106080, Note Name: C#4, Velocity: 38
Note ON: Time 106080, Note Name: A#3, Velocity: 38
Note OFF: Time 106320, Note Name: A#3
Note OFF: Time 106320, Note Name: C#4
Note ON: Time 106320, Note Name: C#3, Velocity: 30
Note OFF: Time 107040, Note Name: C#3
Note ON: Time 107040, Note Name: C#3, Velocity: 33
Note OFF: Time 107280, Note Name: C#3
Note ON: Time 107520, Note Name: D#3, Velocity: 30
Note ON: Time 107520, Note Name: A#3, Velocity: 30
Note ON: Time 107520, Note Name: D#4, Velocity: 51
Note OFF: Time 108000, Note Name: D#4
Note ON: Time 108000, Note Name: D#4, Velocity: 47
Note OFF: Time 108120, Note Name: D#4
Note ON: Time 108240, Note Name: D#4, Velocity: 40
Note OFF: Time 108360, Note Name: D#4
Note OFF: Time 108480, Note Name: A#3
Note OFF: Time 108480, Note Name: D#3
Note ON: Time 108480, Note Name: F3, Velocity: 27
Note ON: Time 108480, Note Name: A#3, Velocity: 27
Note ON: Time 108480, Note Name: C#4, Velocity: 46
Note OFF: Time 108600, Note Name: C#4
Note ON: Time 108720, Note Name: C#4, Velocity: 40
Note OFF: Time 108840, Note Name: C#4
Note ON: Time 108960, Note Name: C#4, Velocity: 46
Note OFF: Time 109080, Note Name: C#4
Note ON: Time 109200, Note Name: C#4, Velocity: 41
Note OFF: Time 109320, Note Name: C#4
Note OFF: Time 109440, Note Name: A#3
Note OFF: Time 109440, Note Name: F3
Note ON: Time 109440, Note Name: F#3, Velocity: 30
Note ON: Time 109440, Note Name: A#3, Velocity: 30
Note ON: Time 109440, Note Name: C4, Velocity: 51
Note OFF: Time 109920, Note Name: C4
Note OFF: Time 109920, Note Name: F#3
Note ON: Time 109920, Note Name: G3, Velocity: 25
Note ON: Time 109920, Note Name: C4, Velocity: 44
Note OFF: Time 110040, Note Name: C4
Note ON: Time 110160, Note Name: C4, Velocity: 33
Note OFF: Time 110280, Note Name: C4
Note OFF: Time 110400, Note Name: G3
Note OFF: Time 110400, Note Name: A#3
Note ON: Time 110400, Note Name: G#3, Velocity: 23
Note ON: Time 110400, Note Name: B3, Velocity: 39
Note ON: Time 110880, Note Name: F#4, Velocity: 50
Note OFF: Time 111360, Note Name: F#4
Note OFF: Time 111360, Note Name: B3
Note OFF: Time 111360, Note Name: G#3
Note ON: Time 111360, Note Name: D#4, Velocity: 40
Note ON: Time 111360, Note Name: A#3, Velocity: 37
Note ON: Time 111360, Note Name: D#3, Velocity: 37
Note ON: Time 112320, Note Name: A#4, Velocity: 37
Note OFF: Time 112560, Note Name: A#4
Note ON: Time 112560, Note Name: A#4, Velocity: 45
Note OFF: Time 112800, Note Name: A#4
Note OFF: Time 114235, Note Name: A#3
Note ON: Time 114240, Note Name: A#3, Velocity: 40
Note OFF: Time 114480, Note Name: A#3
Note ON: Time 114480, Note Name: A#3, Velocity: 33
Note OFF: Time 114720, Note Name: A#3
Note OFF: Time 115200, Note Name: D#3
Note OFF: Time 115200, Note Name: D#4
Note ON: Time 115200, Note Name: D#4, Velocity: 33
Note ON: Time 115200, Note Name: A#3, Velocity: 33
Note ON: Time 115200, Note Name: D#3, Velocity: 33
Note ON: Time 116160, Note Name: A#4, Velocity: 31
Note OFF: Time 116400, Note Name: A#4
Note ON: Time 116400, Note Name: A#4, Velocity: 37
Note OFF: Time 116640, Note Name: A#4
Note OFF: Time 118075, Note Name: A#3
Note ON: Time 118080, Note Name: A#3, Velocity: 30
Note OFF: Time 118320, Note Name: A#3
Note ON: Time 118320, Note Name: A#3, Velocity: 24
Note OFF: Time 118560, Note Name: A#3
Note OFF: Time 119040, Note Name: D#3
Note OFF: Time 119040, Note Name: D#4
Note ON: Time 119040, Note Name: A#4, Velocity: 30
Note ON: Time 119040, Note Name: F5, Velocity: 33
Note OFF: Time 119520, Note Name: F5
Note OFF: Time 119520, Note Name: A#4
Note ON: Time 119520, Note Name: A#4, Velocity: 30
Note ON: Time 119520, Note Name: D5, Velocity: 39
Note OFF: Time 119640, Note Name: A#4
Note ON: Time 119760, Note Name: A#4, Velocity: 30
Note OFF: Time 119880, Note Name: A#4
Note ON: Time 120000, Note Name: A4, Velocity: 30
Note OFF: Time 120120, Note Name: A4
Note ON: Time 120240, Note Name: A4, Velocity: 30
Note OFF: Time 120360, Note Name: A4
Note OFF: Time 120480, Note Name: D5
Note ON: Time 120480, Note Name: A4, Velocity: 28
Note ON: Time 120480, Note Name: F5, Velocity: 37
Note OFF: Time 120600, Note Name: A4
Note OFF: Time 120720, Note Name: F5
Note ON: Time 120720, Note Name: A4, Velocity: 28
Note ON: Time 120720, Note Name: G5, Velocity: 37
Note OFF: Time 120840, Note Name: A4
Note OFF: Time 120960, Note Name: G5
Note ON: Time 120960, Note Name: G4, Velocity: 30
Note ON: Time 120960, Note Name: C5, Velocity: 39
Note OFF: Time 121200, Note Name: C5
Note ON: Time 121200, Note Name: D5, Velocity: 33
Note OFF: Time 121440, Note Name: D5
Note OFF: Time 121440, Note Name: G4
Note ON: Time 121440, Note Name: G4, Velocity: 30
Note ON: Time 121440, Note Name: F5, Velocity: 39
Note OFF: Time 121560, Note Name: G4
Note ON: Time 121680, Note Name: G4, Velocity: 30
Note OFF: Time 121800, Note Name: G4
Note ON: Time 121920, Note Name: F4, Velocity: 30
Note OFF: Time 122400, Note Name: F4
Note OFF: Time 122400, Note Name: F5
Note ON: Time 122400, Note Name: D5, Velocity: 33
Note ON: Time 122640, Note Name: C5, Velocity: 27
Note OFF: Time 122860, Note Name: C5
Note OFF: Time 122880, Note Name: D5
Note ON: Time 122880, Note Name: C5, Velocity: 37
Note ON: Time 122880, Note Name: A#4, Velocity: 30
Note OFF: Time 123120, Note Name: C5
Note ON: Time 123120, Note Name: D5, Velocity: 30
Note OFF: Time 123340, Note Name: D5
Note OFF: Time 123360, Note Name: A#4
Note ON: Time 123360, Note Name: D5, Velocity: 34
Note ON: Time 123360, Note Name: A#4, Velocity: 30
Note OFF: Time 123480, Note Name: A#4
Note ON: Time 123600, Note Name: A#4, Velocity: 30
Note OFF: Time 123720, Note Name: A#4
Note OFF: Time 123840, Note Name: D5
Note ON: Time 123840, Note Name: C5, Velocity: 34
Note ON: Time 123840, Note Name: A4, Velocity: 30
Note OFF: Time 123960, Note Name: A4
Note ON: Time 124080, Note Name: A4, Velocity: 30
Note OFF: Time 124200, Note Name: A4
Note OFF: Time 124320, Note Name: C5
Note ON: Time 124320, Note Name: A4, Velocity: 28
Note ON: Time 124320, Note Name: F5, Velocity: 38
Note OFF: Time 124440, Note Name: A4
Note ON: Time 124560, Note Name: A4, Velocity: 28
Note OFF: Time 124680, Note Name: A4
Note OFF: Time 124800, Note Name: F5
Note ON: Time 124800, Note Name: D5, Velocity: 31
Note ON: Time 124800, Note Name: G4, Velocity: 30
Note OFF: Time 125280, Note Name: G4
Note ON: Time 125280, Note Name: G4, Velocity: 30
Note OFF: Time 125400, Note Name: G4
Note ON: Time 125520, Note Name: G4, Velocity: 30
Note OFF: Time 125640, Note Name: G4
Note ON: Time 125760, Note Name: F4, Velocity: 30
Note OFF: Time 126240, Note Name: F4
Note ON: Time 126240, Note Name: D4, Velocity: 30
Note ON: Time 126240, Note Name: C5, Velocity: 31
Note OFF: Time 126480, Note Name: C5
Note ON: Time 126480, Note Name: A4, Velocity: 28
Note OFF: Time 126720, Note Name: A4
Note OFF: Time 126720, Note Name: D4
Note OFF: Time 126720, Note Name: D5
Note ON: Time 126720, Note Name: D4, Velocity: 21
Note ON: Time 126720, Note Name: G4, Velocity: 31
Note ON: Time 126720, Note Name: C4, Velocity: 21
Note OFF: Time 126960, Note Name: G4
Note ON: Time 126960, Note Name: F4, Velocity: 30
Note OFF: Time 127200, Note Name: F4
Note ON: Time 127200, Note Name: G4, Velocity: 31
Note OFF: Time 128160, Note Name: G4
Note ON: Time 128160, Note Name: A4, Velocity: 36
Note OFF: Time 128400, Note Name: A4
Note ON: Time 128400, Note Name: C5, Velocity: 31
Note OFF: Time 128640, Note Name: C5
Note OFF: Time 128640, Note Name: C4
Note OFF: Time 128640, Note Name: D4
Note ON: Time 128640, Note Name: G4, Velocity: 40
Note ON: Time 128640, Note Name: D4, Velocity: 21
Note ON: Time 128640, Note Name: C4, Velocity: 21
Note OFF: Time 129120, Note Name: G4
Note ON: Time 129120, Note Name: D5, Velocity: 40
Note OFF: Time 129600, Note Name: D5
Note ON: Time 129600, Note Name: C5, Velocity: 34
Note OFF: Time 130080, Note Name: C5
Note ON: Time 130080, Note Name: A4, Velocity: 31
Note OFF: Time 130560, Note Name: A4
Note OFF: Time 130560, Note Name: C4
Note OFF: Time 130560, Note Name: D4
Note ON: Time 130560, Note Name: D4, Velocity: 21
Note ON: Time 130560, Note Name: C4, Velocity: 21
Note ON: Time 130560, Note Name: G4, Velocity: 30
Note OFF: Time 130800, Note Name: G4
Note ON: Time 130800, Note Name: F4, Velocity: 25
Note OFF: Time 131040, Note Name: F4
Note ON: Time 131040, Note Name: G4, Velocity: 31
Note OFF: Time 131520, Note Name: G4
Note ON: Time 131520, Note Name: A4, Velocity: 34
Note OFF: Time 132000, Note Name: A4
Note ON: Time 132000, Note Name: C5, Velocity: 39
Note OFF: Time 132480, Note Name: C5
Note OFF: Time 132480, Note Name: C4
Note OFF: Time 132480, Note Name: D4
Note ON: Time 132480, Note Name: C4, Velocity: 21
Note ON: Time 132480, Note Name: G4, Velocity: 33
Note ON: Time 132480, Note Name: D4, Velocity: 21
Note OFF: Time 136080, Note Name: G4
Note ON: Time 136080, Note Name: F4, Velocity: 30
Note OFF: Time 136320, Note Name: F4
Note OFF: Time 136320, Note Name: D4
Note OFF: Time 136320, Note Name: C4
Note ON: Time 136320, Note Name: C4, Velocity: 21
Note ON: Time 136320, Note Name: G4, Velocity: 31
Note ON: Time 136320, Note Name: D4, Velocity: 21
Note OFF: Time 139680, Note Name: D4
Note OFF: Time 139680, Note Name: G4
Note OFF: Time 139680, Note Name: C4
Note ON: Time 140160, Note Name: C3, Velocity: 21
Note ON: Time 140160, Note Name: D3, Velocity: 28
Note OFF: Time 142080, Note Name: D3
Note OFF: Time 142080, Note Name: C3
Note ON: Time 142080, Note Name: C3, Velocity: 21
Note ON: Time 142080, Note Name: D3, Velocity: 28
Note OFF: Time 144000, Note Name: D3
Note OFF: Time 144000, Note Name: C3
Note ON: Time 144000, Note Name: C3, Velocity: 21
Note ON: Time 144000, Note Name: D3, Velocity: 28
Note OFF: Time 147840, Note Name: D3
Note OFF: Time 147840, Note Name: C3
Note ON: Time 147840, Note Name: F3, Velocity: 21
Note ON: Time 147840, Note Name: G3, Velocity: 28
Note ON: Time 148800, Note Name: D#5, Velocity: 37
Note OFF: Time 149760, Note Name: D#5
Note ON: Time 150720, Note Name: C#5, Velocity: 36
Note OFF: Time 151680, Note Name: C#5
Note OFF: Time 153600, Note Name: G3
Note OFF: Time 153600, Note Name: F3
Track 2: Piano left
Note ON: Time 0, Note Name: F2, Velocity: 34
Note OFF: Time 480, Note Name: F2
Note ON: Time 480, Note Name: D2, Velocity: 40
Note OFF: Time 1440, Note Name: D2
Note ON: Time 1440, Note Name: F2, Velocity: 38
Note OFF: Time 1680, Note Name: F2
Note ON: Time 1680, Note Name: G2, Velocity: 38
Note OFF: Time 1920, Note Name: G2
Note ON: Time 1920, Note Name: C2, Velocity: 40
Note OFF: Time 2160, Note Name: C2
Note ON: Time 2160, Note Name: D2, Velocity: 34
Note OFF: Time 2400, Note Name: D2
Note ON: Time 2400, Note Name: F2, Velocity: 40
Note OFF: Time 3360, Note Name: F2
Note ON: Time 3360, Note Name: D2, Velocity: 34
Note OFF: Time 3600, Note Name: D2
Note ON: Time 3600, Note Name: C2, Velocity: 31
Note OFF: Time 3820, Note Name: C2
Note ON: Time 3840, Note Name: C2, Velocity: 38
Note OFF: Time 4080, Note Name: C2
Note ON: Time 4080, Note Name: D2, Velocity: 32
Note OFF: Time 4300, Note Name: D2
Note ON: Time 4320, Note Name: D2, Velocity: 35
Note OFF: Time 4800, Note Name: D2
Note ON: Time 4800, Note Name: C2, Velocity: 35
Note OFF: Time 5280, Note Name: C2
Note ON: Time 5280, Note Name: F2, Velocity: 39
Note OFF: Time 5760, Note Name: F2
Note ON: Time 5760, Note Name: D2, Velocity: 33
Note OFF: Time 9120, Note Name: D2
Note ON: Time 9120, Note Name: C2, Velocity: 31
Note OFF: Time 9360, Note Name: C2
Note ON: Time 9360, Note Name: A1, Velocity: 27
Note OFF: Time 9600, Note Name: A1
Note ON: Time 9600, Note Name: G1, Velocity: 31
Note OFF: Time 9840, Note Name: G1
Note ON: Time 9840, Note Name: F1, Velocity: 29
Note OFF: Time 10080, Note Name: F1
Note ON: Time 10080, Note Name: G1, Velocity: 31
Note OFF: Time 11040, Note Name: G1
Note ON: Time 11040, Note Name: A1, Velocity: 34
Note OFF: Time 11280, Note Name: A1
Note ON: Time 11280, Note Name: C2, Velocity: 31
Note OFF: Time 11520, Note Name: C2
Note ON: Time 11520, Note Name: G1, Velocity: 38
Note OFF: Time 12000, Note Name: G1
Note ON: Time 12000, Note Name: D2, Velocity: 38
Note OFF: Time 12480, Note Name: D2
Note ON: Time 12480, Note Name: C2, Velocity: 33
Note OFF: Time 12960, Note Name: C2
Note ON: Time 12960, Note Name: A1, Velocity: 30
Note OFF: Time 13440, Note Name: A1
Note ON: Time 13440, Note Name: G1, Velocity: 29
Note OFF: Time 13680, Note Name: G1
Note ON: Time 13680, Note Name: F1, Velocity: 24
Note OFF: Time 13920, Note Name: F1
Note ON: Time 13920, Note Name: G1, Velocity: 30
Note OFF: Time 14400, Note Name: G1
Note ON: Time 14400, Note Name: A1, Velocity: 33
Note OFF: Time 14880, Note Name: A1
Note ON: Time 14880, Note Name: C2, Velocity: 37
Note OFF: Time 15360, Note Name: C2
Note ON: Time 15360, Note Name: G1, Velocity: 30
Note ON: Time 16320, Note Name: G3, Velocity: 14
Note ON: Time 16320, Note Name: F3, Velocity: 11
Note OFF: Time 16440, Note Name: F3
Note OFF: Time 16440, Note Name: G3
Note ON: Time 16560, Note Name: G3, Velocity: 14
Note ON: Time 16560, Note Name: F3, Velocity: 11
Note OFF: Time 17760, Note Name: F3
Note OFF: Time 17760, Note Name: G3
Note ON: Time 17760, Note Name: F3, Velocity: 11
Note ON: Time 17760, Note Name: G3, Velocity: 14
Note OFF: Time 19200, Note Name: G1
Note OFF: Time 19680, Note Name: G3
Note OFF: Time 19680, Note Name: F3
Note ON: Time 19680, Note Name: F3, Velocity: 11
Note ON: Time 19680, Note Name: G3, Velocity: 14
Note OFF: Time 21600, Note Name: G3
Note OFF: Time 21600, Note Name: F3
Note ON: Time 21600, Note Name: F3, Velocity: 11
Note ON: Time 21600, Note Name: G3, Velocity: 14
Note OFF: Time 23520, Note Name: G3
Note OFF: Time 23520, Note Name: F3
Note ON: Time 23520, Note Name: F3, Velocity: 11
Note ON: Time 23520, Note Name: G3, Velocity: 14
Note OFF: Time 25440, Note Name: G3
Note OFF: Time 25440, Note Name: F3
Note ON: Time 25440, Note Name: F3, Velocity: 11
Note ON: Time 25440, Note Name: G3, Velocity: 14
Note OFF: Time 26880, Note Name: G3
Note OFF: Time 26880, Note Name: F3
Note ON: Time 26880, Note Name: D#2, Velocity: 26
Note OFF: Time 28800, Note Name: D#2
Note ON: Time 28800, Note Name: C#2, Velocity: 26
Note OFF: Time 31680, Note Name: C#2
Note ON: Time 31680, Note Name: A#1, Velocity: 26
Note OFF: Time 32640, Note Name: A#1
Note ON: Time 32640, Note Name: F#1, Velocity: 19
Note OFF: Time 33600, Note Name: F#1
Note ON: Time 33600, Note Name: F1, Velocity: 13
Note ON: Time 33600, Note Name: G1, Velocity: 15
Note OFF: Time 33720, Note Name: G1
Note OFF: Time 33720, Note Name: F1
Note ON: Time 34560, Note Name: F3, Velocity: 13
Note ON: Time 34560, Note Name: G3, Velocity: 16
Note OFF: Time 35040, Note Name: G3
Note OFF: Time 35040, Note Name: F3
Note ON: Time 35040, Note Name: D3, Velocity: 17
Note ON: Time 35040, Note Name: C3, Velocity: 14
Note OFF: Time 35520, Note Name: C3
Note OFF: Time 35520, Note Name: D3
Note ON: Time 35520, Note Name: F2, Velocity: 16
Note OFF: Time 36000, Note Name: F2
Note ON: Time 36000, Note Name: A#1, Velocity: 16
Note OFF: Time 36480, Note Name: A#1
Note ON: Time 36480, Note Name: F3, Velocity: 13
Note ON: Time 36480, Note Name: G3, Velocity: 16
Note OFF: Time 36960, Note Name: G3
Note OFF: Time 36960, Note Name: F3
Note ON: Time 36960, Note Name: D3, Velocity: 16
Note ON: Time 36960, Note Name: C3, Velocity: 13
Note OFF: Time 37440, Note Name: C3
Note OFF: Time 37440, Note Name: D3
Note ON: Time 37440, Note Name: F2, Velocity: 16
Note OFF: Time 37920, Note Name: F2
Note ON: Time 37920, Note Name: A#1, Velocity: 16
Note OFF: Time 38400, Note Name: A#1
Note ON: Time 38400, Note Name: F3, Velocity: 13
Note ON: Time 38400, Note Name: G3, Velocity: 16
Note OFF: Time 38880, Note Name: G3
Note OFF: Time 38880, Note Name: F3
Note ON: Time 38880, Note Name: D3, Velocity: 16
Note ON: Time 38880, Note Name: C3, Velocity: 13
Note OFF: Time 39360, Note Name: C3
Note OFF: Time 39360, Note Name: D3
Note ON: Time 39360, Note Name: F2, Velocity: 16
Note OFF: Time 39840, Note Name: F2
Note ON: Time 39840, Note Name: A#1, Velocity: 16
Note OFF: Time 40320, Note Name: A#1
Note ON: Time 40320, Note Name: F3, Velocity: 13
Note ON: Time 40320, Note Name: G3, Velocity: 16
Note OFF: Time 40800, Note Name: G3
Note OFF: Time 40800, Note Name: F3
Note ON: Time 40800, Note Name: D3, Velocity: 16
Note ON: Time 40800, Note Name: C3, Velocity: 13
Note OFF: Time 41280, Note Name: C3
Note OFF: Time 41280, Note Name: D3
Note ON: Time 41280, Note Name: F2, Velocity: 16
Note OFF: Time 41760, Note Name: F2
Note ON: Time 41760, Note Name: A#1, Velocity: 16
Note OFF: Time 42240, Note Name: A#1
Note ON: Time 42240, Note Name: F3, Velocity: 13
Note ON: Time 42240, Note Name: G3, Velocity: 16
Note OFF: Time 42720, Note Name: G3
Note OFF: Time 42720, Note Name: F3
Note ON: Time 42720, Note Name: D3, Velocity: 16
Note ON: Time 42720, Note Name: C3, Velocity: 13
Note OFF: Time 43200, Note Name: C3
Note OFF: Time 43200, Note Name: D3
Note ON: Time 43200, Note Name: F2, Velocity: 16
Note OFF: Time 43680, Note Name: F2
Note ON: Time 43680, Note Name: A#1, Velocity: 16
Note OFF: Time 44160, Note Name: A#1
Note ON: Time 44160, Note Name: F3, Velocity: 13
Note ON: Time 44160, Note Name: G3, Velocity: 16
Note OFF: Time 44640, Note Name: G3
Note OFF: Time 44640, Note Name: F3
Note ON: Time 44640, Note Name: D3, Velocity: 16
Note ON: Time 44640, Note Name: C3, Velocity: 13
Note OFF: Time 45120, Note Name: C3
Note OFF: Time 45120, Note Name: D3
Note ON: Time 45120, Note Name: F2, Velocity: 16
Note OFF: Time 45600, Note Name: F2
Note ON: Time 45600, Note Name: A#1, Velocity: 16
Note OFF: Time 46080, Note Name: A#1
Note ON: Time 46080, Note Name: G3, Velocity: 16
Note ON: Time 46080, Note Name: F3, Velocity: 13
Note OFF: Time 46560, Note Name: F3
Note OFF: Time 46560, Note Name: G3
Note ON: Time 46560, Note Name: D3, Velocity: 16
Note ON: Time 46560, Note Name: C3, Velocity: 13
Note OFF: Time 47040, Note Name: C3
Note OFF: Time 47040, Note Name: D3
Note ON: Time 47040, Note Name: F2, Velocity: 16
Note OFF: Time 47520, Note Name: F2
Note ON: Time 47520, Note Name: A#1, Velocity: 16
Note OFF: Time 48000, Note Name: A#1
Note ON: Time 48000, Note Name: G3, Velocity: 16
Note ON: Time 48000, Note Name: F3, Velocity: 13
Note OFF: Time 48480, Note Name: F3
Note OFF: Time 48480, Note Name: G3
Note ON: Time 48480, Note Name: D3, Velocity: 16
Note ON: Time 48480, Note Name: C3, Velocity: 13
Note OFF: Time 48960, Note Name: C3
Note OFF: Time 48960, Note Name: D3
Note ON: Time 48960, Note Name: F2, Velocity: 16
Note OFF: Time 49440, Note Name: F2
Note ON: Time 49440, Note Name: A#1, Velocity: 16
Note OFF: Time 49920, Note Name: A#1
Note ON: Time 49920, Note Name: F3, Velocity: 13
Note ON: Time 49920, Note Name: G3, Velocity: 16
Note OFF: Time 50400, Note Name: G3
Note OFF: Time 50400, Note Name: F3
Note ON: Time 50400, Note Name: C3, Velocity: 13
Note ON: Time 50400, Note Name: D3, Velocity: 16
Note OFF: Time 50880, Note Name: D3
Note OFF: Time 50880, Note Name: C3
Note ON: Time 50880, Note Name: F2, Velocity: 16
Note OFF: Time 51360, Note Name: F2
Note ON: Time 51360, Note Name: A#1, Velocity: 16
Note OFF: Time 51840, Note Name: A#1
Note ON: Time 51840, Note Name: F3, Velocity: 13
Note ON: Time 51840, Note Name: G3, Velocity: 16
Note OFF: Time 52320, Note Name: G3
Note OFF: Time 52320, Note Name: F3
Note ON: Time 52320, Note Name: C3, Velocity: 13
Note ON: Time 52320, Note Name: D3, Velocity: 16
Note OFF: Time 52800, Note Name: D3
Note OFF: Time 52800, Note Name: C3
Note ON: Time 52800, Note Name: F2, Velocity: 16
Note OFF: Time 53280, Note Name: F2
Note ON: Time 53280, Note Name: A#1, Velocity: 16
Note OFF: Time 53760, Note Name: A#1
Note ON: Time 53760, Note Name: G#1, Velocity: 33
Note ON: Time 54720, Note Name: G2, Velocity: 31
Note OFF: Time 55200, Note Name: G2
Note OFF: Time 55680, Note Name: G#1
Note ON: Time 55680, Note Name: G#1, Velocity: 33
Note ON: Time 56160, Note Name: F2, Velocity: 25
Note OFF: Time 56280, Note Name: F2
Note ON: Time 56400, Note Name: F2, Velocity: 25
Note OFF: Time 56520, Note Name: F2
Note ON: Time 56640, Note Name: D#2, Velocity: 31
Note OFF: Time 57120, Note Name: D#2
Note ON: Time 57120, Note Name: C3, Velocity: 36
Note OFF: Time 57360, Note Name: C3
Note OFF: Time 57600, Note Name: G#1
Note ON: Time 57600, Note Name: G#1, Velocity: 33
Note ON: Time 58560, Note Name: G2, Velocity: 31
Note OFF: Time 59040, Note Name: G2
Note ON: Time 59520, Note Name: F2, Velocity: 31
Note OFF: Time 60000, Note Name: F2
Note OFF: Time 60960, Note Name: G#1
Note ON: Time 60960, Note Name: G#1, Velocity: 29
Note OFF: Time 61440, Note Name: G#1
Note ON: Time 61440, Note Name: G#2, Velocity: 37
Note OFF: Time 61920, Note Name: G#2
Note ON: Time 61920, Note Name: A#2, Velocity: 34
Note OFF: Time 62400, Note Name: A#2
Note ON: Time 62400, Note Name: G#2, Velocity: 30
Note OFF: Time 62880, Note Name: G#2
Note ON: Time 62880, Note Name: G#1, Velocity: 31
Note OFF: Time 63360, Note Name: G#1
Note ON: Time 63360, Note Name: G#2, Velocity: 37
Note OFF: Time 63840, Note Name: G#2
Note ON: Time 63840, Note Name: A#2, Velocity: 34
Note OFF: Time 64320, Note Name: A#2
Note ON: Time 64320, Note Name: G#2, Velocity: 30
Note OFF: Time 64800, Note Name: G#2
Note ON: Time 64800, Note Name: G#1, Velocity: 31
Note OFF: Time 65280, Note Name: G#1
Note ON: Time 65280, Note Name: G#2, Velocity: 37
Note OFF: Time 65760, Note Name: G#2
Note ON: Time 65760, Note Name: A#2, Velocity: 34
Note OFF: Time 66240, Note Name: A#2
Note ON: Time 66240, Note Name: G#2, Velocity: 30
Note OFF: Time 66720, Note Name: G#2
Note ON: Time 66720, Note Name: G#1, Velocity: 31
Note OFF: Time 67200, Note Name: G#1
Note ON: Time 67200, Note Name: G#2, Velocity: 37
Note OFF: Time 67680, Note Name: G#2
Note ON: Time 67680, Note Name: A#2, Velocity: 34
Note OFF: Time 68160, Note Name: A#2
Note ON: Time 68160, Note Name: G#2, Velocity: 30
Note OFF: Time 68640, Note Name: G#2
Note ON: Time 68640, Note Name: G#1, Velocity: 31
Note OFF: Time 69120, Note Name: G#1
Note ON: Time 69120, Note Name: G#2, Velocity: 37
Note OFF: Time 69600, Note Name: G#2
Note ON: Time 69600, Note Name: A#2, Velocity: 34
Note OFF: Time 70080, Note Name: A#2
Note ON: Time 70080, Note Name: G#2, Velocity: 30
Note OFF: Time 70560, Note Name: G#2
Note ON: Time 70560, Note Name: G#1, Velocity: 31
Note OFF: Time 71040, Note Name: G#1
Note ON: Time 71040, Note Name: G#2, Velocity: 37
Note OFF: Time 71520, Note Name: G#2
Note ON: Time 71520, Note Name: A#2, Velocity: 34
Note OFF: Time 72000, Note Name: A#2
Note ON: Time 72000, Note Name: G#2, Velocity: 30
Note OFF: Time 72480, Note Name: G#2
Note ON: Time 72480, Note Name: A#1, Velocity: 31
Note OFF: Time 72720, Note Name: A#1
Note ON: Time 72960, Note Name: A1, Velocity: 31
Note OFF: Time 73080, Note Name: A1
Note ON: Time 73200, Note Name: A2, Velocity: 24
Note OFF: Time 73320, Note Name: A2
Note ON: Time 73440, Note Name: B1, Velocity: 32
Note OFF: Time 73560, Note Name: B1
Note ON: Time 73680, Note Name: B2, Velocity: 25
Note OFF: Time 73800, Note Name: B2
Note ON: Time 73920, Note Name: A1, Velocity: 31
Note OFF: Time 74040, Note Name: A1
Note ON: Time 74160, Note Name: A2, Velocity: 25
Note OFF: Time 74280, Note Name: A2
Note ON: Time 74400, Note Name: B1, Velocity: 29
Note OFF: Time 74520, Note Name: B1
Note ON: Time 74640, Note Name: B2, Velocity: 25
Note OFF: Time 74760, Note Name: B2
Note ON: Time 74880, Note Name: A1, Velocity: 31
Note OFF: Time 75000, Note Name: A1
Note ON: Time 75120, Note Name: A2, Velocity: 24
Note OFF: Time 75240, Note Name: A2
Note ON: Time 75360, Note Name: B1, Velocity: 32
Note OFF: Time 75480, Note Name: B1
Note ON: Time 75600, Note Name: B2, Velocity: 25
Note OFF: Time 75720, Note Name: B2
Note ON: Time 75840, Note Name: A1, Velocity: 31
Note OFF: Time 75960, Note Name: A1
Note ON: Time 76080, Note Name: A2, Velocity: 25
Note OFF: Time 76200, Note Name: A2
Note ON: Time 76320, Note Name: B1, Velocity: 29
Note OFF: Time 76440, Note Name: B1
Note ON: Time 76560, Note Name: B2, Velocity: 25
Note OFF: Time 76680, Note Name: B2
Note ON: Time 76800, Note Name: A1, Velocity: 31
Note OFF: Time 76920, Note Name: A1
Note ON: Time 77040, Note Name: A2, Velocity: 24
Note OFF: Time 77160, Note Name: A2
Note ON: Time 77280, Note Name: B1, Velocity: 33
Note OFF: Time 77400, Note Name: B1
Note ON: Time 77520, Note Name: B2, Velocity: 27
Note OFF: Time 77640, Note Name: B2
Note ON: Time 77760, Note Name: C#2, Velocity: 34
Note OFF: Time 77880, Note Name: C#2
Note ON: Time 78000, Note Name: C#3, Velocity: 28
Note OFF: Time 78120, Note Name: C#3
Note ON: Time 78240, Note Name: D#2, Velocity: 34
Note OFF: Time 78360, Note Name: D#2
Note ON: Time 78480, Note Name: D#3, Velocity: 30
Note OFF: Time 78600, Note Name: D#3
Note ON: Time 78720, Note Name: F2, Velocity: 40
Note OFF: Time 78840, Note Name: F2
Note ON: Time 78960, Note Name: F3, Velocity: 30
Note OFF: Time 79080, Note Name: F3
Note ON: Time 79200, Note Name: D#2, Velocity: 39
Note OFF: Time 79320, Note Name: D#2
Note ON: Time 79440, Note Name: D#3, Velocity: 29
Note OFF: Time 79560, Note Name: D#3
Note ON: Time 79680, Note Name: C#2, Velocity: 35
Note OFF: Time 79800, Note Name: C#2
Note ON: Time 79920, Note Name: C#3, Velocity: 28
Note OFF: Time 80040, Note Name: C#3
Note ON: Time 80160, Note Name: B1, Velocity: 31
Note OFF: Time 80280, Note Name: B1
Note ON: Time 80400, Note Name: B2, Velocity: 26
Note OFF: Time 80520, Note Name: B2
Note ON: Time 80640, Note Name: A1, Velocity: 31
Note OFF: Time 80760, Note Name: A1
Note ON: Time 80880, Note Name: A2, Velocity: 24
Note OFF: Time 81000, Note Name: A2
Note ON: Time 81120, Note Name: B1, Velocity: 32
Note OFF: Time 81240, Note Name: B1
Note ON: Time 81360, Note Name: B2, Velocity: 25
Note OFF: Time 81480, Note Name: B2
Note ON: Time 81600, Note Name: A1, Velocity: 31
Note OFF: Time 81720, Note Name: A1
Note ON: Time 81840, Note Name: A2, Velocity: 25
Note OFF: Time 81960, Note Name: A2
Note ON: Time 82080, Note Name: B1, Velocity: 29
Note OFF: Time 82200, Note Name: B1
Note ON: Time 82320, Note Name: B2, Velocity: 25
Note OFF: Time 82440, Note Name: B2
Note ON: Time 82560, Note Name: A1, Velocity: 31
Note OFF: Time 82680, Note Name: A1
Note ON: Time 82800, Note Name: A2, Velocity: 24
Note OFF: Time 82920, Note Name: A2
Note ON: Time 83040, Note Name: B1, Velocity: 32
Note OFF: Time 83160, Note Name: B1
Note ON: Time 83280, Note Name: B2, Velocity: 25
Note OFF: Time 83400, Note Name: B2
Note ON: Time 83520, Note Name: A1, Velocity: 31
Note OFF: Time 83640, Note Name: A1
Note ON: Time 83760, Note Name: A2, Velocity: 25
Note OFF: Time 83880, Note Name: A2
Note ON: Time 84000, Note Name: B1, Velocity: 29
Note OFF: Time 84120, Note Name: B1
Note ON: Time 84240, Note Name: B2, Velocity: 25
Note OFF: Time 84360, Note Name: B2
Note ON: Time 84480, Note Name: A1, Velocity: 31
Note OFF: Time 84600, Note Name: A1
Note ON: Time 84720, Note Name: A2, Velocity: 24
Note OFF: Time 84840, Note Name: A2
Note ON: Time 84960, Note Name: B1, Velocity: 34
Note OFF: Time 85080, Note Name: B1
Note ON: Time 85200, Note Name: B2, Velocity: 27
Note OFF: Time 85320, Note Name: B2
Note ON: Time 85440, Note Name: C#2, Velocity: 34
Note OFF: Time 85560, Note Name: C#2
Note ON: Time 85680, Note Name: C#3, Velocity: 28
Note OFF: Time 85800, Note Name: C#3
Note ON: Time 85920, Note Name: D#2, Velocity: 38
Note OFF: Time 86040, Note Name: D#2
Note ON: Time 86160, Note Name: D#3, Velocity: 35
Note OFF: Time 86280, Note Name: D#3
Note ON: Time 86400, Note Name: F2, Velocity: 40
Note OFF: Time 86520, Note Name: F2
Note ON: Time 86640, Note Name: F3, Velocity: 33
Note OFF: Time 86760, Note Name: F3
Note ON: Time 86880, Note Name: G2, Velocity: 42
Note OFF: Time 87000, Note Name: G2
Note ON: Time 87120, Note Name: G3, Velocity: 34
Note OFF: Time 87240, Note Name: G3
Note ON: Time 87360, Note Name: A2, Velocity: 48
Note OFF: Time 87480, Note Name: A2
Note ON: Time 87600, Note Name: A3, Velocity: 39
Note OFF: Time 87720, Note Name: A3
Note ON: Time 87840, Note Name: B2, Velocity: 50
Note OFF: Time 87960, Note Name: B2
Note ON: Time 88080, Note Name: B3, Velocity: 42
Note OFF: Time 88200, Note Name: B3
Note ON: Time 88320, Note Name: C#3, Velocity: 35
Note OFF: Time 88440, Note Name: C#3
Note ON: Time 88560, Note Name: C#4, Velocity: 39
Note OFF: Time 89040, Note Name: C#4
Note ON: Time 89280, Note Name: C#3, Velocity: 35
Note OFF: Time 89400, Note Name: C#3
Note ON: Time 89520, Note Name: C#4, Velocity: 41
Note OFF: Time 90000, Note Name: C#4
Note ON: Time 90240, Note Name: C#3, Velocity: 35
Note OFF: Time 90360, Note Name: C#3
Note ON: Time 90480, Note Name: C#4, Velocity: 39
Note OFF: Time 90960, Note Name: C#4
Note ON: Time 91200, Note Name: C#3, Velocity: 35
Note OFF: Time 91320, Note Name: C#3
Note ON: Time 91440, Note Name: C#4, Velocity: 41
Note OFF: Time 91920, Note Name: C#4
Note ON: Time 92160, Note Name: C#3, Velocity: 35
Note OFF: Time 92280, Note Name: C#3
Note ON: Time 92400, Note Name: C#4, Velocity: 39
Note OFF: Time 92880, Note Name: C#4
Note ON: Time 93120, Note Name: C#4, Velocity: 35
Note OFF: Time 93240, Note Name: C#4
Note ON: Time 93360, Note Name: C#3, Velocity: 41
Note OFF: Time 93840, Note Name: C#3
Note ON: Time 94080, Note Name: C#3, Velocity: 29
Note OFF: Time 94200, Note Name: C#3
Note ON: Time 94320, Note Name: C#4, Velocity: 42
Note OFF: Time 94800, Note Name: C#4
Note ON: Time 95040, Note Name: C#4, Velocity: 30
Note OFF: Time 95160, Note Name: C#4
Note ON: Time 95280, Note Name: C#3, Velocity: 38
Note OFF: Time 95760, Note Name: C#3
Note ON: Time 96000, Note Name: C#3, Velocity: 35
Note OFF: Time 96120, Note Name: C#3
Note ON: Time 96240, Note Name: C#4, Velocity: 39
Note OFF: Time 96720, Note Name: C#4
Note ON: Time 96960, Note Name: C#3, Velocity: 35
Note OFF: Time 97920, Note Name: C#3
Note ON: Time 97920, Note Name: C#3, Velocity: 29
Note OFF: Time 98040, Note Name: C#3
Note ON: Time 98160, Note Name: C#4, Velocity: 39
Note OFF: Time 98640, Note Name: C#4
Note ON: Time 98880, Note Name: C#3, Velocity: 30
Note OFF: Time 99840, Note Name: C#3
Note ON: Time 99840, Note Name: F#2, Velocity: 30
Note ON: Time 100080, Note Name: C#3, Velocity: 30
Note OFF: Time 100200, Note Name: C#3
Note ON: Time 100320, Note Name: C#4, Velocity: 37
Note OFF: Time 100440, Note Name: C#4
Note ON: Time 100560, Note Name: C#3, Velocity: 30
Note OFF: Time 100680, Note Name: C#3
Note ON: Time 100800, Note Name: C#3, Velocity: 30
Note OFF: Time 100920, Note Name: C#3
Note ON: Time 101040, Note Name: C#3, Velocity: 30
Note OFF: Time 101160, Note Name: C#3
Note ON: Time 101280, Note Name: C#4, Velocity: 34
Note OFF: Time 101400, Note Name: C#4
Note ON: Time 101520, Note Name: C#3, Velocity: 30
Note OFF: Time 101640, Note Name: C#3
Note OFF: Time 101760, Note Name: F#2
Note ON: Time 101760, Note Name: F#2, Velocity: 38
Note OFF: Time 102240, Note Name: F#2
Note ON: Time 102240, Note Name: F#2, Velocity: 35
Note OFF: Time 102360, Note Name: F#2
Note ON: Time 102480, Note Name: F#2, Velocity: 30
Note OFF: Time 102600, Note Name: F#2
Note ON: Time 102720, Note Name: F2, Velocity: 34
Note OFF: Time 102840, Note Name: F2
Note ON: Time 102960, Note Name: F2, Velocity: 30
Note OFF: Time 103080, Note Name: F2
Note ON: Time 103200, Note Name: F2, Velocity: 34
Note OFF: Time 103320, Note Name: F2
Note ON: Time 103440, Note Name: F2, Velocity: 31
Note OFF: Time 103560, Note Name: F2
Note ON: Time 103680, Note Name: E2, Velocity: 38
Note OFF: Time 104160, Note Name: E2
Note ON: Time 104160, Note Name: E2, Velocity: 32
Note OFF: Time 104280, Note Name: E2
Note ON: Time 104400, Note Name: E2, Velocity: 24
Note OFF: Time 104520, Note Name: E2
Note ON: Time 104640, Note Name: D#2, Velocity: 29
Note OFF: Time 105120, Note Name: D#2
Note ON: Time 105120, Note Name: A#2, Velocity: 37
Note OFF: Time 105600, Note Name: A#2
Note ON: Time 105600, Note Name: F#2, Velocity: 38
Note OFF: Time 106080, Note Name: F#2
Note ON: Time 106080, Note Name: F#2, Velocity: 35
Note OFF: Time 106200, Note Name: F#2
Note ON: Time 106320, Note Name: F#2, Velocity: 30
Note OFF: Time 106440, Note Name: F#2
Note ON: Time 106560, Note Name: F2, Velocity: 34
Note OFF: Time 106680, Note Name: F2
Note ON: Time 106800, Note Name: F2, Velocity: 30
Note OFF: Time 106920, Note Name: F2
Note ON: Time 107040, Note Name: F2, Velocity: 34
Note OFF: Time 107160, Note Name: F2
Note ON: Time 107280, Note Name: F2, Velocity: 31
Note OFF: Time 107400, Note Name: F2
Note ON: Time 107520, Note Name: A#2, Velocity: 30
Note OFF: Time 108000, Note Name: A#2
Note ON: Time 108000, Note Name: D#2, Velocity: 28
Note OFF: Time 108480, Note Name: D#2
Note ON: Time 108480, Note Name: A#2, Velocity: 30
Note OFF: Time 108960, Note Name: A#2
Note ON: Time 108960, Note Name: D#2, Velocity: 25
Note OFF: Time 109440, Note Name: D#2
Note ON: Time 109440, Note Name: A#2, Velocity: 30
Note OFF: Time 109920, Note Name: A#2
Note ON: Time 109920, Note Name: D#2, Velocity: 25
Note OFF: Time 110400, Note Name: D#2
Note ON: Time 110400, Note Name: A#2, Velocity: 30
Note OFF: Time 110880, Note Name: A#2
Note ON: Time 110880, Note Name: D#2, Velocity: 26
Note OFF: Time 111360, Note Name: D#2
Note ON: Time 111360, Note Name: A#2, Velocity: 30
Note OFF: Time 111840, Note Name: A#2
Note ON: Time 111840, Note Name: D#2, Velocity: 25
Note OFF: Time 112320, Note Name: D#2
Note ON: Time 112320, Note Name: A#2, Velocity: 30
Note OFF: Time 112800, Note Name: A#2
Note ON: Time 112800, Note Name: D#2, Velocity: 26
Note OFF: Time 113280, Note Name: D#2
Note ON: Time 113280, Note Name: C#2, Velocity: 30
Note OFF: Time 113760, Note Name: C#2
Note ON: Time 113760, Note Name: D#2, Velocity: 25
Note OFF: Time 114240, Note Name: D#2
Note ON: Time 114240, Note Name: A#1, Velocity: 30
Note OFF: Time 114720, Note Name: A#1
Note ON: Time 114720, Note Name: D#2, Velocity: 26
Note OFF: Time 115200, Note Name: D#2
Note ON: Time 115200, Note Name: A#2, Velocity: 27
Note OFF: Time 115680, Note Name: A#2
Note ON: Time 115680, Note Name: D#2, Velocity: 22
Note OFF: Time 116160, Note Name: D#2
Note ON: Time 116160, Note Name: A#2, Velocity: 25
Note OFF: Time 116640, Note Name: A#2
Note ON: Time 116640, Note Name: D#2, Velocity: 21
Note OFF: Time 117120, Note Name: D#2
Note ON: Time 117120, Note Name: C#2, Velocity: 24
Note OFF: Time 117600, Note Name: C#2
Note ON: Time 117600, Note Name: D#2, Velocity: 19
Note OFF: Time 118080, Note Name: D#2
Note ON: Time 118080, Note Name: B1, Velocity: 22
Note OFF: Time 118560, Note Name: B1
Note ON: Time 118560, Note Name: D#2, Velocity: 18
Note OFF: Time 119040, Note Name: D#2
Note ON: Time 119040, Note Name: A#1, Velocity: 17
Note ON: Time 119040, Note Name: F2, Velocity: 21
Note OFF: Time 122400, Note Name: F2
Note OFF: Time 122400, Note Name: A#1
Note ON: Time 122400, Note Name: F2, Velocity: 21
Note ON: Time 122880, Note Name: A#1, Velocity: 17
Note OFF: Time 126240, Note Name: A#1
Note OFF: Time 126240, Note Name: F2
Note ON: Time 126240, Note Name: F2, Velocity: 21
Note OFF: Time 126720, Note Name: F2
Note ON: Time 126720, Note Name: G3, Velocity: 17
Note ON: Time 126720, Note Name: F3, Velocity: 14
Note OFF: Time 127200, Note Name: F3
Note OFF: Time 127200, Note Name: G3
Note ON: Time 127200, Note Name: D3, Velocity: 17
Note ON: Time 127200, Note Name: C3, Velocity: 14
Note OFF: Time 127680, Note Name: C3
Note OFF: Time 127680, Note Name: D3
Note ON: Time 127680, Note Name: F2, Velocity: 17
Note OFF: Time 128160, Note Name: F2
Note ON: Time 128160, Note Name: A#1, Velocity: 17
Note OFF: Time 128640, Note Name: A#1
Note ON: Time 128640, Note Name: G3, Velocity: 17
Note ON: Time 128640, Note Name: F3, Velocity: 14
Note OFF: Time 129120, Note Name: F3
Note OFF: Time 129120, Note Name: G3
Note ON: Time 129120, Note Name: D3, Velocity: 17
Note ON: Time 129120, Note Name: C3, Velocity: 14
Note OFF: Time 129600, Note Name: C3
Note OFF: Time 129600, Note Name: D3
Note ON: Time 129600, Note Name: F2, Velocity: 17
Note OFF: Time 130080, Note Name: F2
Note ON: Time 130080, Note Name: A#1, Velocity: 17
Note OFF: Time 130560, Note Name: A#1
Note ON: Time 130560, Note Name: F3, Velocity: 14
Note ON: Time 130560, Note Name: G3, Velocity: 17
Note OFF: Time 131040, Note Name: G3
Note OFF: Time 131040, Note Name: F3
Note ON: Time 131040, Note Name: C3, Velocity: 14
Note ON: Time 131040, Note Name: D3, Velocity: 17
Note OFF: Time 131520, Note Name: D3
Note OFF: Time 131520, Note Name: C3
Note ON: Time 131520, Note Name: F2, Velocity: 21
Note ON: Time 132000, Note Name: A#1, Velocity: 21
Note OFF: Time 132960, Note Name: A#1
Note ON: Time 132960, Note Name: A#1, Velocity: 27
Note OFF: Time 133080, Note Name: A#1
Note ON: Time 133200, Note Name: A#1, Velocity: 27
Note OFF: Time 133320, Note Name: A#1
Note ON: Time 133440, Note Name: A1, Velocity: 27
Note OFF: Time 133560, Note Name: A1
Note ON: Time 133680, Note Name: A1, Velocity: 27
Note OFF: Time 133800, Note Name: A1
Note ON: Time 133920, Note Name: A1, Velocity: 25
Note OFF: Time 134040, Note Name: A1
Note ON: Time 134160, Note Name: A1, Velocity: 25
Note OFF: Time 134280, Note Name: A1
Note ON: Time 134400, Note Name: G#1, Velocity: 27
Note OFF: Time 134880, Note Name: G#1
Note ON: Time 134880, Note Name: G#1, Velocity: 27
Note OFF: Time 135000, Note Name: G#1
Note ON: Time 135120, Note Name: G#1, Velocity: 27
Note OFF: Time 135240, Note Name: G#1
Note ON: Time 135355, Note Name: G1, Velocity: 27
Note OFF: Time 135835, Note Name: G1
Note ON: Time 135840, Note Name: D2, Velocity: 27
Note OFF: Time 136320, Note Name: D2
Note OFF: Time 136320, Note Name: F2
Note ON: Time 136320, Note Name: F2, Velocity: 21
Note ON: Time 136800, Note Name: A#1, Velocity: 27
Note OFF: Time 136920, Note Name: A#1
Note ON: Time 137040, Note Name: A#1, Velocity: 27
Note OFF: Time 137160, Note Name: A#1
Note ON: Time 137280, Note Name: A1, Velocity: 27
Note OFF: Time 137400, Note Name: A1
Note ON: Time 137520, Note Name: A1, Velocity: 27
Note OFF: Time 137640, Note Name: A1
Note ON: Time 137760, Note Name: A1, Velocity: 25
Note OFF: Time 137880, Note Name: A1
Note ON: Time 138000, Note Name: A1, Velocity: 25
Note OFF: Time 138120, Note Name: A1
Note ON: Time 138240, Note Name: G#1, Velocity: 27
Note OFF: Time 138720, Note Name: G#1
Note ON: Time 138720, Note Name: G#1, Velocity: 27
Note OFF: Time 138840, Note Name: G#1
Note ON: Time 138960, Note Name: G#1, Velocity: 27
Note OFF: Time 139320, Note Name: G#1
Note OFF: Time 139680, Note Name: F2
Note ON: Time 139680, Note Name: G1, Velocity: 27
Note OFF: Time 140160, Note Name: G1
Note ON: Time 140640, Note Name: F#1, Velocity: 27
Note OFF: Time 140880, Note Name: F#1
Note ON: Time 141120, Note Name: F1, Velocity: 20
Note OFF: Time 141600, Note Name: F1
Note ON: Time 141600, Note Name: D2, Velocity: 17
Note OFF: Time 142080, Note Name: D2
Note ON: Time 142560, Note Name: F#1, Velocity: 27
Note OFF: Time 142800, Note Name: F#1
Note ON: Time 143040, Note Name: F1, Velocity: 22
Note OFF: Time 143520, Note Name: F1
Note ON: Time 143520, Note Name: D2, Velocity: 21
Note OFF: Time 144000, Note Name: D2
Note ON: Time 144960, Note Name: F#1, Velocity: 22
Note OFF: Time 145920, Note Name: F#1
Note ON: Time 145920, Note Name: F1, Velocity: 22
Note OFF: Time 146880, Note Name: F1
Note ON: Time 146880, Note Name: D1, Velocity: 22
Note OFF: Time 147840, Note Name: D1
Note ON: Time 147840, Note Name: A#0, Velocity: 22
Note OFF: Time 153600, Note Name: A#0
Note ON: Time 153600, Note Name: A#0, Velocity: 22
Note OFF: Time 153840, Note Name: A#0
Track 3: Pedale
Track 4: Debussy: Childrens Corner 2
Track 5: Copyright  2010 by Bernd Krueger
Track 6: http://www.piano-midi.de/
Track 7: Edition: 2011-05-24
Track 8: Spur 8
Track 9: Spur 9
Track 10: Spur 10
Track 11: Spur 11
Track 12: Spur 12
Track 13: Spur 13
Track 14: Spur 14
Track 15: Spur 15
Track 16: Spur 16
