Processing mond_3.mid...

Track 0: Sonata No.14 in cis-Moll, Op. 27/2 - 3. Satz
Track 1: Piano right
Note ON: Time 120, Note Name: G#2, Velocity: 46
Note OFF: Time 235, Note Name: G#2
Note ON: Time 240, Note Name: C#3, Velocity: 48
Note ON: Time 360, Note Name: E3, Velocity: 50
Note OFF: Time 380, Note Name: C#3
Note ON: Time 480, Note Name: G#3, Velocity: 51
Note OFF: Time 500, Note Name: E3
Note ON: Time 600, Note Name: C#3, Velocity: 46
Note OFF: Time 620, Note Name: G#3
Note ON: Time 720, Note Name: E3, Velocity: 47
Note OFF: Time 740, Note Name: C#3
Note ON: Time 840, Note Name: G#3, Velocity: 49
Note OFF: Time 860, Note Name: E3
Note ON: Time 960, Note Name: C#4, Velocity: 51
Note OFF: Time 980, Note Name: G#3
Note ON: Time 1080, Note Name: E3, Velocity: 46
Note OFF: Time 1100, Note Name: C#4
Note ON: Time 1200, Note Name: G#3, Velocity: 47
Note OFF: Time 1220, Note Name: E3
Note ON: Time 1320, Note Name: C#4, Velocity: 49
Note OFF: Time 1340, Note Name: G#3
Note ON: Time 1440, Note Name: E4, Velocity: 51
Note OFF: Time 1460, Note Name: C#4
Note ON: Time 1560, Note Name: G#3, Velocity: 47
Note OFF: Time 1580, Note Name: E4
Note ON: Time 1680, Note Name: C#4, Velocity: 48
Note OFF: Time 1700, Note Name: G#3
Note ON: Time 1800, Note Name: E4, Velocity: 49
Note OFF: Time 1820, Note Name: C#4
Note ON: Time 1920, Note Name: G#4, Velocity: 50
Note OFF: Time 1940, Note Name: E4
Note ON: Time 2040, Note Name: C#4, Velocity: 47
Note OFF: Time 2060, Note Name: G#4
Note ON: Time 2160, Note Name: E4, Velocity: 47
Note OFF: Time 2180, Note Name: C#4
Note ON: Time 2280, Note Name: G#4, Velocity: 49
Note OFF: Time 2300, Note Name: E4
Note ON: Time 2400, Note Name: C#5, Velocity: 50
Note OFF: Time 2420, Note Name: G#4
Note ON: Time 2520, Note Name: E4, Velocity: 51
Note OFF: Time 2540, Note Name: C#5
Note ON: Time 2640, Note Name: G#4, Velocity: 47
Note OFF: Time 2660, Note Name: E4
Note ON: Time 2760, Note Name: C#5, Velocity: 51
Note OFF: Time 2780, Note Name: G#4
Note ON: Time 2880, Note Name: E5, Velocity: 52
Note OFF: Time 2900, Note Name: C#5
Note ON: Time 3000, Note Name: G#4, Velocity: 50
Note OFF: Time 3020, Note Name: E5
Note ON: Time 3120, Note Name: C#5, Velocity: 51
Note OFF: Time 3140, Note Name: G#4
Note ON: Time 3240, Note Name: E5, Velocity: 54
Note OFF: Time 3260, Note Name: C#5
Note OFF: Time 3360, Note Name: E5
Note ON: Time 3360, Note Name: G#4, Velocity: 79
Note ON: Time 3360, Note Name: E5, Velocity: 94
Note ON: Time 3360, Note Name: G#5, Velocity: 94
Note ON: Time 3360, Note Name: C#5, Velocity: 79
Note OFF: Time 3480, Note Name: C#5
Note OFF: Time 3480, Note Name: G#4
Note OFF: Time 3480, Note Name: E5
Note OFF: Time 3480, Note Name: G#5
Note ON: Time 3600, Note Name: G#4, Velocity: 67
Note ON: Time 3600, Note Name: C#5, Velocity: 67
Note ON: Time 3600, Note Name: G#5, Velocity: 79
Note ON: Time 3600, Note Name: E5, Velocity: 79
Note OFF: Time 3720, Note Name: E5
Note OFF: Time 3720, Note Name: G#4
Note OFF: Time 3720, Note Name: C#5
Note OFF: Time 3720, Note Name: G#5
Note ON: Time 3960, Note Name: G#2, Velocity: 47
Note OFF: Time 4075, Note Name: G#2
Note ON: Time 4080, Note Name: C3, Velocity: 48
Note ON: Time 4200, Note Name: D#3, Velocity: 50
Note OFF: Time 4220, Note Name: C3
Note ON: Time 4320, Note Name: G#3, Velocity: 51
Note OFF: Time 4340, Note Name: D#3
Note ON: Time 4440, Note Name: C3, Velocity: 47
Note OFF: Time 4460, Note Name: G#3
Note ON: Time 4560, Note Name: D#3, Velocity: 48
Note OFF: Time 4580, Note Name: C3
Note ON: Time 4680, Note Name: G#3, Velocity: 51
Note OFF: Time 4700, Note Name: D#3
Note ON: Time 4800, Note Name: C4, Velocity: 52
Note OFF: Time 4820, Note Name: G#3
Note ON: Time 4920, Note Name: D#3, Velocity: 47
Note OFF: Time 4940, Note Name: C4
Note ON: Time 5040, Note Name: G#3, Velocity: 48
Note OFF: Time 5060, Note Name: D#3
Note ON: Time 5160, Note Name: C4, Velocity: 50
Note OFF: Time 5180, Note Name: G#3
Note ON: Time 5280, Note Name: D#4, Velocity: 51
Note OFF: Time 5300, Note Name: C4
Note ON: Time 5400, Note Name: G#3, Velocity: 46
Note OFF: Time 5420, Note Name: D#4
Note ON: Time 5520, Note Name: C4, Velocity: 47
Note OFF: Time 5540, Note Name: G#3
Note ON: Time 5640, Note Name: D#4, Velocity: 49
Note OFF: Time 5660, Note Name: C4
Note ON: Time 5760, Note Name: G#4, Velocity: 51
Note OFF: Time 5780, Note Name: D#4
Note ON: Time 5880, Note Name: C4, Velocity: 47
Note OFF: Time 5900, Note Name: G#4
Note ON: Time 6000, Note Name: D#4, Velocity: 48
Note OFF: Time 6020, Note Name: C4
Note ON: Time 6120, Note Name: G#4, Velocity: 50
Note OFF: Time 6140, Note Name: D#4
Note ON: Time 6240, Note Name: C5, Velocity: 51
Note OFF: Time 6260, Note Name: G#4
Note ON: Time 6360, Note Name: D#4, Velocity: 47
Note OFF: Time 6380, Note Name: C5
Note ON: Time 6480, Note Name: G#4, Velocity: 48
Note OFF: Time 6500, Note Name: D#4
Note ON: Time 6600, Note Name: C5, Velocity: 51
Note OFF: Time 6620, Note Name: G#4
Note ON: Time 6720, Note Name: D#5, Velocity: 52
Note OFF: Time 6740, Note Name: C5
Note ON: Time 6840, Note Name: G#4, Velocity: 51
Note OFF: Time 6860, Note Name: D#5
Note ON: Time 6960, Note Name: C5, Velocity: 51
Note OFF: Time 6980, Note Name: G#4
Note ON: Time 7080, Note Name: D#5, Velocity: 52
Note OFF: Time 7100, Note Name: C5
Note OFF: Time 7200, Note Name: D#5
Note ON: Time 7200, Note Name: G#4, Velocity: 79
Note ON: Time 7200, Note Name: C5, Velocity: 79
Note ON: Time 7200, Note Name: D#5, Velocity: 94
Note ON: Time 7200, Note Name: G#5, Velocity: 94
Note OFF: Time 7320, Note Name: G#5
Note OFF: Time 7320, Note Name: G#4
Note OFF: Time 7320, Note Name: C5
Note OFF: Time 7320, Note Name: D#5
Note ON: Time 7440, Note Name: C5, Velocity: 66
Note ON: Time 7440, Note Name: G#5, Velocity: 78
Note ON: Time 7440, Note Name: G#4, Velocity: 66
Note ON: Time 7440, Note Name: D#5, Velocity: 78
Note OFF: Time 7560, Note Name: D#5
Note OFF: Time 7560, Note Name: C5
Note OFF: Time 7560, Note Name: G#5
Note OFF: Time 7560, Note Name: G#4
Note ON: Time 7800, Note Name: C#3, Velocity: 66
Note ON: Time 7920, Note Name: F3, Velocity: 62
Note OFF: Time 7940, Note Name: C#3
Note ON: Time 8040, Note Name: G#3, Velocity: 66
Note OFF: Time 8060, Note Name: F3
Note ON: Time 8160, Note Name: C#4, Velocity: 68
Note OFF: Time 8180, Note Name: G#3
Note ON: Time 8280, Note Name: F3, Velocity: 62
Note OFF: Time 8300, Note Name: C#4
Note ON: Time 8400, Note Name: G#3, Velocity: 62
Note OFF: Time 8420, Note Name: F3
Note ON: Time 8520, Note Name: C#4, Velocity: 65
Note OFF: Time 8540, Note Name: G#3
Note ON: Time 8640, Note Name: F4, Velocity: 68
Note OFF: Time 8660, Note Name: C#4
Note ON: Time 8760, Note Name: G#3, Velocity: 62
Note OFF: Time 8780, Note Name: F4
Note ON: Time 8880, Note Name: C#4, Velocity: 65
Note OFF: Time 8900, Note Name: G#3
Note ON: Time 9000, Note Name: F4, Velocity: 67
Note OFF: Time 9020, Note Name: C#4
Note ON: Time 9120, Note Name: G#4, Velocity: 68
Note OFF: Time 9140, Note Name: F4
Note ON: Time 9240, Note Name: C#4, Velocity: 62
Note OFF: Time 9260, Note Name: G#4
Note ON: Time 9360, Note Name: F4, Velocity: 63
Note OFF: Time 9380, Note Name: C#4
Note ON: Time 9480, Note Name: G#4, Velocity: 66
Note OFF: Time 9500, Note Name: F4
Note ON: Time 9600, Note Name: C#5, Velocity: 67
Note OFF: Time 9620, Note Name: G#4
Note ON: Time 9720, Note Name: F4, Velocity: 62
Note OFF: Time 9740, Note Name: C#5
Note ON: Time 9840, Note Name: G#4, Velocity: 62
Note OFF: Time 9860, Note Name: F4
Note ON: Time 9960, Note Name: C#5, Velocity: 66
Note OFF: Time 9980, Note Name: G#4
Note ON: Time 10080, Note Name: F5, Velocity: 68
Note OFF: Time 10100, Note Name: C#5
Note ON: Time 10200, Note Name: G#4, Velocity: 62
Note OFF: Time 10220, Note Name: F5
Note ON: Time 10320, Note Name: C#5, Velocity: 66
Note OFF: Time 10340, Note Name: G#4
Note ON: Time 10440, Note Name: F5, Velocity: 68
Note OFF: Time 10460, Note Name: C#5
Note ON: Time 10560, Note Name: G#5, Velocity: 66
Note OFF: Time 10580, Note Name: F5
Note ON: Time 10680, Note Name: C#5, Velocity: 68
Note OFF: Time 10700, Note Name: G#5
Note ON: Time 10800, Note Name: F5, Velocity: 69
Note OFF: Time 10820, Note Name: C#5
Note ON: Time 10920, Note Name: G#5, Velocity: 71
Note OFF: Time 10940, Note Name: F5
Note OFF: Time 11040, Note Name: G#5
Note ON: Time 11040, Note Name: F5, Velocity: 87
Note ON: Time 11040, Note Name: C#6, Velocity: 103
Note ON: Time 11040, Note Name: G#5, Velocity: 103
Note ON: Time 11040, Note Name: C#5, Velocity: 87
Note OFF: Time 11160, Note Name: C#5
Note OFF: Time 11160, Note Name: F5
Note OFF: Time 11160, Note Name: C#6
Note OFF: Time 11160, Note Name: G#5
Note ON: Time 11280, Note Name: G#5, Velocity: 90
Note ON: Time 11280, Note Name: C#6, Velocity: 90
Note ON: Time 11280, Note Name: C#5, Velocity: 77
Note ON: Time 11280, Note Name: F5, Velocity: 77
Note OFF: Time 11400, Note Name: F5
Note OFF: Time 11400, Note Name: G#5
Note OFF: Time 11400, Note Name: C#6
Note OFF: Time 11400, Note Name: C#5
Note ON: Time 11640, Note Name: C#3, Velocity: 61
Note ON: Time 11760, Note Name: F#3, Velocity: 63
Note OFF: Time 11780, Note Name: C#3
Note ON: Time 11880, Note Name: A3, Velocity: 62
Note OFF: Time 11900, Note Name: F#3
Note ON: Time 12000, Note Name: C#4, Velocity: 69
Note OFF: Time 12020, Note Name: A3
Note OFF: Time 12060, Note Name: C#4
Note ON: Time 12120, Note Name: C#4, Velocity: 72
Note ON: Time 12240, Note Name: F#4, Velocity: 76
Note OFF: Time 12260, Note Name: C#4
Note ON: Time 12360, Note Name: A4, Velocity: 73
Note OFF: Time 12380, Note Name: F#4
Note ON: Time 12480, Note Name: C#5, Velocity: 79
Note OFF: Time 12500, Note Name: A4
Note OFF: Time 12540, Note Name: C#5
Note ON: Time 12600, Note Name: C#5, Velocity: 77
Note ON: Time 12720, Note Name: F#5, Velocity: 81
Note OFF: Time 12740, Note Name: C#5
Note ON: Time 12840, Note Name: A5, Velocity: 76
Note OFF: Time 12860, Note Name: F#5
Note OFF: Time 12960, Note Name: A5
Note ON: Time 12960, Note Name: C#5, Velocity: 90
Note ON: Time 12960, Note Name: C#6, Velocity: 108
Note ON: Time 12960, Note Name: F#5, Velocity: 90
Note OFF: Time 13080, Note Name: F#5
Note OFF: Time 13080, Note Name: C#6
Note OFF: Time 13080, Note Name: C#5
Note ON: Time 13200, Note Name: C#5, Velocity: 88
Note ON: Time 13200, Note Name: F#5, Velocity: 88
Note ON: Time 13200, Note Name: C#6, Velocity: 104
Note OFF: Time 13320, Note Name: C#6
Note OFF: Time 13320, Note Name: F#5
Note OFF: Time 13320, Note Name: C#5
Note ON: Time 13560, Note Name: C#3, Velocity: 75
Note ON: Time 13680, Note Name: E3, Velocity: 77
Note OFF: Time 13700, Note Name: C#3
Note ON: Time 13800, Note Name: G3, Velocity: 79
Note OFF: Time 13820, Note Name: E3
Note ON: Time 13920, Note Name: C#4, Velocity: 76
Note OFF: Time 13940, Note Name: G3
Note OFF: Time 13980, Note Name: C#4
Note ON: Time 14040, Note Name: C#4, Velocity: 77
Note ON: Time 14160, Note Name: E4, Velocity: 79
Note OFF: Time 14180, Note Name: C#4
Note ON: Time 14280, Note Name: G4, Velocity: 79
Note OFF: Time 14300, Note Name: E4
Note ON: Time 14400, Note Name: C#5, Velocity: 80
Note OFF: Time 14420, Note Name: G4
Note OFF: Time 14460, Note Name: C#5
Note ON: Time 14520, Note Name: C#5, Velocity: 77
Note ON: Time 14640, Note Name: E5, Velocity: 79
Note OFF: Time 14660, Note Name: C#5
Note ON: Time 14760, Note Name: G5, Velocity: 80
Note OFF: Time 14780, Note Name: E5
Note OFF: Time 14880, Note Name: G5
Note ON: Time 14880, Note Name: C#6, Velocity: 105
Note ON: Time 14880, Note Name: C#5, Velocity: 89
Note ON: Time 14880, Note Name: G5, Velocity: 105
Note OFF: Time 15000, Note Name: G5
Note OFF: Time 15000, Note Name: C#5
Note OFF: Time 15000, Note Name: C#6
Note ON: Time 15120, Note Name: C#5, Velocity: 89
Note ON: Time 15120, Note Name: G5, Velocity: 105
Note ON: Time 15120, Note Name: C#6, Velocity: 105
Note OFF: Time 15240, Note Name: C#6
Note OFF: Time 15240, Note Name: G5
Note OFF: Time 15240, Note Name: C#5
Note ON: Time 15360, Note Name: C5, Velocity: 88
Note ON: Time 15360, Note Name: C6, Velocity: 104
Note ON: Time 15360, Note Name: G#5, Velocity: 104
Note OFF: Time 15600, Note Name: G#5
Note OFF: Time 15600, Note Name: C6
Note OFF: Time 15600, Note Name: C5
Note ON: Time 15600, Note Name: G#4, Velocity: 74
Note OFF: Time 15720, Note Name: G#4
Note ON: Time 15720, Note Name: G#5, Velocity: 58
Note OFF: Time 15840, Note Name: G#5
Note ON: Time 15840, Note Name: G#4, Velocity: 75
Note OFF: Time 15960, Note Name: G#4
Note ON: Time 15960, Note Name: G#5, Velocity: 60
Note OFF: Time 16080, Note Name: G#5
Note ON: Time 16080, Note Name: A#4, Velocity: 76
Note OFF: Time 16200, Note Name: A#4
Note ON: Time 16200, Note Name: G#5, Velocity: 60
Note OFF: Time 16320, Note Name: G#5
Note ON: Time 16320, Note Name: C5, Velocity: 76
Note OFF: Time 16440, Note Name: C5
Note ON: Time 16440, Note Name: G#5, Velocity: 61
Note OFF: Time 16560, Note Name: G#5
Note ON: Time 16560, Note Name: C#5, Velocity: 78
Note OFF: Time 16680, Note Name: C#5
Note ON: Time 16680, Note Name: G#5, Velocity: 62
Note OFF: Time 16800, Note Name: G#5
Note ON: Time 16800, Note Name: D#5, Velocity: 79
Note OFF: Time 16920, Note Name: D#5
Note ON: Time 16920, Note Name: G#5, Velocity: 62
Note OFF: Time 17040, Note Name: G#5
Note ON: Time 17040, Note Name: C5, Velocity: 79
Note OFF: Time 17160, Note Name: C5
Note ON: Time 17160, Note Name: G#5, Velocity: 62
Note OFF: Time 17280, Note Name: G#5
Note ON: Time 17280, Note Name: D#5, Velocity: 80
Note OFF: Time 17400, Note Name: D#5
Note ON: Time 17400, Note Name: G#5, Velocity: 62
Note OFF: Time 17520, Note Name: G#5
Note ON: Time 17520, Note Name: C#5, Velocity: 80
Note OFF: Time 17640, Note Name: C#5
Note ON: Time 17640, Note Name: G#5, Velocity: 62
Note OFF: Time 17760, Note Name: G#5
Note ON: Time 17760, Note Name: F#5, Velocity: 84
Note OFF: Time 17880, Note Name: F#5
Note ON: Time 17880, Note Name: G#5, Velocity: 62
Note OFF: Time 18000, Note Name: G#5
Note ON: Time 18000, Note Name: E5, Velocity: 80
Note OFF: Time 18120, Note Name: E5
Note ON: Time 18120, Note Name: G#5, Velocity: 62
Note OFF: Time 18240, Note Name: G#5
Note ON: Time 18240, Note Name: D#5, Velocity: 80
Note OFF: Time 18360, Note Name: D#5
Note ON: Time 18360, Note Name: G#5, Velocity: 62
Note OFF: Time 18480, Note Name: G#5
Note ON: Time 18480, Note Name: C#5, Velocity: 79
Note OFF: Time 18600, Note Name: C#5
Note ON: Time 18600, Note Name: G#5, Velocity: 62
Note OFF: Time 18720, Note Name: G#5
Note ON: Time 18720, Note Name: C5, Velocity: 79
Note OFF: Time 18840, Note Name: C5
Note ON: Time 18840, Note Name: G#5, Velocity: 62
Note OFF: Time 18960, Note Name: G#5
Note ON: Time 18960, Note Name: A4, Velocity: 77
Note OFF: Time 19080, Note Name: A4
Note ON: Time 19080, Note Name: G5, Velocity: 61
Note OFF: Time 19200, Note Name: G5
Note ON: Time 19200, Note Name: G#4, Velocity: 76
Note OFF: Time 19320, Note Name: G#4
Note ON: Time 19320, Note Name: G#5, Velocity: 60
Note OFF: Time 19440, Note Name: G#5
Note ON: Time 19440, Note Name: G#4, Velocity: 75
Note OFF: Time 19560, Note Name: G#4
Note ON: Time 19560, Note Name: G#5, Velocity: 59
Note OFF: Time 19680, Note Name: G#5
Note ON: Time 19680, Note Name: G#4, Velocity: 74
Note OFF: Time 19800, Note Name: G#4
Note ON: Time 19800, Note Name: G#5, Velocity: 59
Note OFF: Time 19920, Note Name: G#5
Note ON: Time 19920, Note Name: A#4, Velocity: 74
Note OFF: Time 20040, Note Name: A#4
Note ON: Time 20040, Note Name: G#5, Velocity: 61
Note OFF: Time 20160, Note Name: G#5
Note ON: Time 20160, Note Name: C5, Velocity: 76
Note OFF: Time 20280, Note Name: C5
Note ON: Time 20280, Note Name: G#5, Velocity: 59
Note OFF: Time 20400, Note Name: G#5
Note ON: Time 20400, Note Name: C#5, Velocity: 76
Note OFF: Time 20520, Note Name: C#5
Note ON: Time 20520, Note Name: G#5, Velocity: 62
Note OFF: Time 20640, Note Name: G#5
Note ON: Time 20640, Note Name: D#5, Velocity: 77
Note OFF: Time 20760, Note Name: D#5
Note ON: Time 20760, Note Name: G#5, Velocity: 61
Note OFF: Time 20880, Note Name: G#5
Note ON: Time 20880, Note Name: C5, Velocity: 79
Note OFF: Time 21000, Note Name: C5
Note ON: Time 21000, Note Name: G#5, Velocity: 62
Note OFF: Time 21120, Note Name: G#5
Note ON: Time 21120, Note Name: D#5, Velocity: 79
Note OFF: Time 21240, Note Name: D#5
Note ON: Time 21240, Note Name: G#5, Velocity: 62
Note OFF: Time 21360, Note Name: G#5
Note ON: Time 21360, Note Name: C#5, Velocity: 80
Note OFF: Time 21480, Note Name: C#5
Note ON: Time 21480, Note Name: G#5, Velocity: 65
Note OFF: Time 21600, Note Name: G#5
Note ON: Time 21600, Note Name: F#5, Velocity: 84
Note OFF: Time 21720, Note Name: F#5
Note ON: Time 21720, Note Name: G#5, Velocity: 68
Note OFF: Time 21840, Note Name: G#5
Note ON: Time 21840, Note Name: E5, Velocity: 84
Note OFF: Time 21960, Note Name: E5
Note ON: Time 21960, Note Name: G#5, Velocity: 67
Note OFF: Time 22080, Note Name: G#5
Note ON: Time 22080, Note Name: D#5, Velocity: 84
Note OFF: Time 22200, Note Name: D#5
Note ON: Time 22200, Note Name: G#5, Velocity: 67
Note OFF: Time 22320, Note Name: G#5
Note ON: Time 22320, Note Name: C#5, Velocity: 84
Note OFF: Time 22440, Note Name: C#5
Note ON: Time 22440, Note Name: G#5, Velocity: 66
Note OFF: Time 22560, Note Name: G#5
Note ON: Time 22560, Note Name: C5, Velocity: 84
Note OFF: Time 22680, Note Name: C5
Note ON: Time 22680, Note Name: G#5, Velocity: 67
Note OFF: Time 22800, Note Name: G#5
Note ON: Time 22800, Note Name: A4, Velocity: 84
Note OFF: Time 22920, Note Name: A4
Note ON: Time 22920, Note Name: G5, Velocity: 66
Note OFF: Time 23040, Note Name: G5
Note ON: Time 23040, Note Name: G#4, Velocity: 84
Note OFF: Time 23160, Note Name: G#4
Note ON: Time 23160, Note Name: G#5, Velocity: 66
Note OFF: Time 23280, Note Name: G#5
Note ON: Time 23280, Note Name: A4, Velocity: 79
Note OFF: Time 23400, Note Name: A4
Note ON: Time 23400, Note Name: G5, Velocity: 67
Note OFF: Time 23520, Note Name: G5
Note ON: Time 23520, Note Name: G#4, Velocity: 84
Note OFF: Time 23640, Note Name: G#4
Note ON: Time 23640, Note Name: G#5, Velocity: 66
Note OFF: Time 23760, Note Name: G#5
Note ON: Time 23760, Note Name: A4, Velocity: 79
Note OFF: Time 23880, Note Name: A4
Note ON: Time 23880, Note Name: G5, Velocity: 67
Note OFF: Time 24000, Note Name: G5
Note ON: Time 24000, Note Name: G#4, Velocity: 84
Note OFF: Time 24120, Note Name: G#4
Note ON: Time 24120, Note Name: G#5, Velocity: 66
Note OFF: Time 24240, Note Name: G#5
Note ON: Time 24240, Note Name: A4, Velocity: 79
Note OFF: Time 24360, Note Name: A4
Note ON: Time 24360, Note Name: G5, Velocity: 65
Note OFF: Time 24480, Note Name: G5
Note ON: Time 24480, Note Name: G#4, Velocity: 84
Note OFF: Time 24600, Note Name: G#4
Note ON: Time 24600, Note Name: G#5, Velocity: 66
Note OFF: Time 24720, Note Name: G#5
Note ON: Time 24720, Note Name: A4, Velocity: 79
Note OFF: Time 24840, Note Name: A4
Note ON: Time 24840, Note Name: G5, Velocity: 65
Note OFF: Time 24960, Note Name: G5
Note ON: Time 24960, Note Name: G#4, Velocity: 84
Note ON: Time 24960, Note Name: G#5, Velocity: 84
Note OFF: Time 25200, Note Name: G#5
Note OFF: Time 25200, Note Name: G#4
Note ON: Time 25440, Note Name: G#3, Velocity: 113
Note OFF: Time 26880, Note Name: G#3
Note ON: Time 27000, Note Name: G#2, Velocity: 45
Note OFF: Time 27115, Note Name: G#2
Note ON: Time 27120, Note Name: C#3, Velocity: 47
Note ON: Time 27240, Note Name: E3, Velocity: 49
Note OFF: Time 27260, Note Name: C#3
Note ON: Time 27360, Note Name: G#3, Velocity: 51
Note OFF: Time 27380, Note Name: E3
Note ON: Time 27480, Note Name: C#3, Velocity: 47
Note OFF: Time 27500, Note Name: G#3
Note ON: Time 27600, Note Name: E3, Velocity: 49
Note OFF: Time 27620, Note Name: C#3
Note ON: Time 27720, Note Name: G#3, Velocity: 51
Note OFF: Time 27740, Note Name: E3
Note ON: Time 27840, Note Name: C#4, Velocity: 51
Note OFF: Time 27860, Note Name: G#3
Note ON: Time 27960, Note Name: E3, Velocity: 47
Note OFF: Time 27980, Note Name: C#4
Note ON: Time 28080, Note Name: G#3, Velocity: 48
Note OFF: Time 28100, Note Name: E3
Note ON: Time 28200, Note Name: C#4, Velocity: 50
Note OFF: Time 28220, Note Name: G#3
Note ON: Time 28320, Note Name: E4, Velocity: 51
Note OFF: Time 28340, Note Name: C#4
Note ON: Time 28440, Note Name: G#3, Velocity: 47
Note OFF: Time 28460, Note Name: E4
Note ON: Time 28560, Note Name: C#4, Velocity: 48
Note OFF: Time 28580, Note Name: G#3
Note ON: Time 28680, Note Name: E4, Velocity: 50
Note OFF: Time 28700, Note Name: C#4
Note ON: Time 28800, Note Name: G#4, Velocity: 51
Note OFF: Time 28820, Note Name: E4
Note ON: Time 28920, Note Name: C#4, Velocity: 47
Note OFF: Time 28940, Note Name: G#4
Note ON: Time 29040, Note Name: E4, Velocity: 48
Note OFF: Time 29060, Note Name: C#4
Note ON: Time 29160, Note Name: G#4, Velocity: 50
Note OFF: Time 29180, Note Name: E4
Note ON: Time 29280, Note Name: C#5, Velocity: 51
Note OFF: Time 29300, Note Name: G#4
Note ON: Time 29400, Note Name: E4, Velocity: 47
Note OFF: Time 29420, Note Name: C#5
Note ON: Time 29520, Note Name: G#4, Velocity: 49
Note OFF: Time 29540, Note Name: E4
Note ON: Time 29640, Note Name: C#5, Velocity: 51
Note OFF: Time 29660, Note Name: G#4
Note ON: Time 29760, Note Name: E5, Velocity: 51
Note OFF: Time 29780, Note Name: C#5
Note OFF: Time 29870, Note Name: E5
Note ON: Time 29880, Note Name: E5, Velocity: 51
Note ON: Time 30000, Note Name: G#5, Velocity: 51
Note OFF: Time 30020, Note Name: E5
Note ON: Time 30120, Note Name: C#6, Velocity: 53
Note OFF: Time 30140, Note Name: G#5
Note ON: Time 30240, Note Name: E5, Velocity: 96
Note ON: Time 30240, Note Name: E6, Velocity: 113
Note OFF: Time 30260, Note Name: C#6
Note OFF: Time 30360, Note Name: E6
Note OFF: Time 30360, Note Name: E5
Note ON: Time 30480, Note Name: E5, Velocity: 74
Note ON: Time 30480, Note Name: E6, Velocity: 88
Note OFF: Time 30600, Note Name: E6
Note OFF: Time 30600, Note Name: E5
Note ON: Time 30840, Note Name: E3, Velocity: 47
Note ON: Time 30960, Note Name: G3, Velocity: 49
Note OFF: Time 30980, Note Name: E3
Note ON: Time 31080, Note Name: C#4, Velocity: 51
Note OFF: Time 31100, Note Name: G3
Note ON: Time 31200, Note Name: E4, Velocity: 51
Note OFF: Time 31220, Note Name: C#4
Note ON: Time 31320, Note Name: G3, Velocity: 47
Note OFF: Time 31340, Note Name: E4
Note ON: Time 31440, Note Name: C#4, Velocity: 48
Note OFF: Time 31460, Note Name: G3
Note ON: Time 31560, Note Name: E4, Velocity: 50
Note OFF: Time 31580, Note Name: C#4
Note ON: Time 31680, Note Name: G4, Velocity: 51
Note OFF: Time 31700, Note Name: E4
Note ON: Time 31800, Note Name: C#4, Velocity: 47
Note OFF: Time 31820, Note Name: G4
Note ON: Time 31920, Note Name: E4, Velocity: 48
Note OFF: Time 31940, Note Name: C#4
Note ON: Time 32040, Note Name: G4, Velocity: 51
Note OFF: Time 32060, Note Name: E4
Note ON: Time 32160, Note Name: C#5, Velocity: 52
Note OFF: Time 32180, Note Name: G4
Note ON: Time 32280, Note Name: E4, Velocity: 47
Note OFF: Time 32300, Note Name: C#5
Note ON: Time 32400, Note Name: G4, Velocity: 49
Note OFF: Time 32420, Note Name: E4
Note ON: Time 32520, Note Name: C#5, Velocity: 51
Note OFF: Time 32540, Note Name: G4
Note ON: Time 32640, Note Name: E5, Velocity: 53
Note OFF: Time 32660, Note Name: C#5
Note ON: Time 32760, Note Name: G4, Velocity: 47
Note OFF: Time 32780, Note Name: E5
Note ON: Time 32880, Note Name: C#5, Velocity: 50
Note OFF: Time 32900, Note Name: G4
Note ON: Time 33000, Note Name: E5, Velocity: 51
Note OFF: Time 33020, Note Name: C#5
Note ON: Time 33120, Note Name: G5, Velocity: 53
Note OFF: Time 33140, Note Name: E5
Note ON: Time 33240, Note Name: C#5, Velocity: 47
Note OFF: Time 33260, Note Name: G5
Note ON: Time 33360, Note Name: E5, Velocity: 49
Note OFF: Time 33380, Note Name: C#5
Note ON: Time 33480, Note Name: G5, Velocity: 51
Note OFF: Time 33500, Note Name: E5
Note ON: Time 33600, Note Name: C#6, Velocity: 52
Note OFF: Time 33620, Note Name: G5
Note ON: Time 33720, Note Name: E5, Velocity: 49
Note OFF: Time 33740, Note Name: C#6
Note ON: Time 33840, Note Name: G5, Velocity: 51
Note OFF: Time 33860, Note Name: E5
Note ON: Time 33960, Note Name: C#6, Velocity: 54
Note OFF: Time 33980, Note Name: G5
Note ON: Time 34080, Note Name: E5, Velocity: 93
Note ON: Time 34080, Note Name: E6, Velocity: 110
Note OFF: Time 34100, Note Name: C#6
Note OFF: Time 34200, Note Name: E6
Note OFF: Time 34200, Note Name: E5
Note ON: Time 34320, Note Name: E5, Velocity: 73
Note ON: Time 34320, Note Name: E6, Velocity: 87
Note OFF: Time 34440, Note Name: E6
Note OFF: Time 34440, Note Name: E5
Note ON: Time 34680, Note Name: D#3, Velocity: 50
Note OFF: Time 34795, Note Name: D#3
Note ON: Time 34800, Note Name: A#3, Velocity: 51
Note ON: Time 34920, Note Name: C#4, Velocity: 49
Note OFF: Time 34940, Note Name: A#3
Note ON: Time 35040, Note Name: D#4, Velocity: 51
Note OFF: Time 35060, Note Name: C#4
Note ON: Time 35160, Note Name: A#3, Velocity: 52
Note OFF: Time 35180, Note Name: D#4
Note ON: Time 35280, Note Name: C#4, Velocity: 53
Note OFF: Time 35300, Note Name: A#3
Note ON: Time 35400, Note Name: D#4, Velocity: 51
Note OFF: Time 35420, Note Name: C#4
Note ON: Time 35520, Note Name: A#4, Velocity: 56
Note OFF: Time 35540, Note Name: D#4
Note ON: Time 35640, Note Name: C#4, Velocity: 56
Note OFF: Time 35660, Note Name: A#4
Note ON: Time 35760, Note Name: D#4, Velocity: 57
Note OFF: Time 35780, Note Name: C#4
Note ON: Time 35880, Note Name: A#4, Velocity: 52
Note OFF: Time 35900, Note Name: D#4
Note ON: Time 36000, Note Name: C#5, Velocity: 58
Note OFF: Time 36020, Note Name: A#4
Note ON: Time 36120, Note Name: D#4, Velocity: 59
Note OFF: Time 36140, Note Name: C#5
Note ON: Time 36240, Note Name: A#4, Velocity: 60
Note OFF: Time 36260, Note Name: D#4
Note ON: Time 36360, Note Name: C#5, Velocity: 56
Note OFF: Time 36380, Note Name: A#4
Note ON: Time 36480, Note Name: D#5, Velocity: 62
Note OFF: Time 36500, Note Name: C#5
Note ON: Time 36600, Note Name: A#4, Velocity: 62
Note OFF: Time 36620, Note Name: D#5
Note ON: Time 36720, Note Name: C#5, Velocity: 62
Note OFF: Time 36740, Note Name: A#4
Note ON: Time 36840, Note Name: D#5, Velocity: 59
Note OFF: Time 36860, Note Name: C#5
Note ON: Time 36960, Note Name: A#5, Velocity: 63
Note OFF: Time 36980, Note Name: D#5
Note ON: Time 37080, Note Name: C#5, Velocity: 65
Note OFF: Time 37100, Note Name: A#5
Note ON: Time 37200, Note Name: D#5, Velocity: 66
Note OFF: Time 37220, Note Name: C#5
Note ON: Time 37320, Note Name: A#5, Velocity: 62
Note OFF: Time 37340, Note Name: D#5
Note ON: Time 37440, Note Name: C#6, Velocity: 67
Note OFF: Time 37460, Note Name: A#5
Note ON: Time 37560, Note Name: A#5, Velocity: 65
Note OFF: Time 37580, Note Name: C#6
Note ON: Time 37680, Note Name: D#5, Velocity: 62
Note OFF: Time 37700, Note Name: A#5
Note ON: Time 37800, Note Name: C#5, Velocity: 61
Note OFF: Time 37820, Note Name: D#5
Note ON: Time 37920, Note Name: A#5, Velocity: 59
Note OFF: Time 37940, Note Name: C#5
Note ON: Time 38040, Note Name: D#5, Velocity: 57
Note OFF: Time 38060, Note Name: A#5
Note ON: Time 38160, Note Name: C#5, Velocity: 56
Note OFF: Time 38180, Note Name: D#5
Note ON: Time 38280, Note Name: A#4, Velocity: 52
Note OFF: Time 38300, Note Name: C#5
Note ON: Time 38400, Note Name: B4, Velocity: 49
Note OFF: Time 38420, Note Name: A#4
Note OFF: Time 38640, Note Name: B4
Note ON: Time 38880, Note Name: D#5, Velocity: 61
Note ON: Time 39840, Note Name: B4, Velocity: 50
Note OFF: Time 39860, Note Name: D#5
Note ON: Time 40200, Note Name: G#4, Velocity: 50
Note OFF: Time 40220, Note Name: B4
Note OFF: Time 40260, Note Name: G#4
Note ON: Time 40260, Note Name: G4, Velocity: 40
Note OFF: Time 40280, Note Name: G4
Note ON: Time 40280, Note Name: G#4, Velocity: 40
Note OFF: Time 40300, Note Name: G#4
Note ON: Time 40300, Note Name: A#4, Velocity: 40
Note OFF: Time 40320, Note Name: A#4
Note ON: Time 40320, Note Name: G#4, Velocity: 58
Note ON: Time 40800, Note Name: G4, Velocity: 50
Note OFF: Time 40820, Note Name: G#4
Note OFF: Time 41520, Note Name: G4
Note ON: Time 41520, Note Name: G4, Velocity: 50
Note ON: Time 41760, Note Name: D#5, Velocity: 61
Note OFF: Time 41780, Note Name: G4
Note OFF: Time 42120, Note Name: D#5
Note ON: Time 42120, Note Name: G4, Velocity: 52
Note OFF: Time 42240, Note Name: G4
Note ON: Time 42240, Note Name: A#4, Velocity: 47
Note ON: Time 42720, Note Name: G#4, Velocity: 51
Note OFF: Time 42740, Note Name: A#4
Note OFF: Time 43440, Note Name: G#4
Note ON: Time 43440, Note Name: G#4, Velocity: 49
Note ON: Time 43680, Note Name: D#5, Velocity: 61
Note OFF: Time 43700, Note Name: G#4
Note OFF: Time 44040, Note Name: D#5
Note ON: Time 44040, Note Name: G#4, Velocity: 50
Note ON: Time 44160, Note Name: B4, Velocity: 52
Note OFF: Time 44180, Note Name: G#4
Note ON: Time 44640, Note Name: A#4, Velocity: 50
Note OFF: Time 44660, Note Name: B4
Note OFF: Time 45360, Note Name: A#4
Note ON: Time 45360, Note Name: A#4, Velocity: 52
Note ON: Time 45600, Note Name: D#5, Velocity: 49
Note OFF: Time 45620, Note Name: A#4
Note OFF: Time 45960, Note Name: D#5
Note ON: Time 45960, Note Name: A#4, Velocity: 52
Note OFF: Time 46080, Note Name: A#4
Note ON: Time 46080, Note Name: B4, Velocity: 56
Note OFF: Time 46200, Note Name: B4
Note ON: Time 46320, Note Name: D#6, Velocity: 56
Note ON: Time 46320, Note Name: D#5, Velocity: 47
Note OFF: Time 46800, Note Name: D#5
Note OFF: Time 46800, Note Name: D#6
Note ON: Time 46800, Note Name: D#6, Velocity: 58
Note ON: Time 46800, Note Name: D#5, Velocity: 49
Note OFF: Time 47280, Note Name: D#5
Note OFF: Time 47280, Note Name: D#6
Note ON: Time 47280, Note Name: D#5, Velocity: 47
Note ON: Time 47280, Note Name: D#6, Velocity: 56
Note OFF: Time 47400, Note Name: D#6
Note OFF: Time 47400, Note Name: D#5
Note ON: Time 47520, Note Name: B4, Velocity: 49
Note ON: Time 47520, Note Name: B5, Velocity: 58
Note OFF: Time 47640, Note Name: B5
Note OFF: Time 47640, Note Name: B4
Note ON: Time 47760, Note Name: G#5, Velocity: 59
Note ON: Time 47760, Note Name: G#4, Velocity: 49
Note OFF: Time 47880, Note Name: G#4
Note OFF: Time 47880, Note Name: G#5
Note ON: Time 48000, Note Name: G#5, Velocity: 61
Note ON: Time 48000, Note Name: G#4, Velocity: 51
Note OFF: Time 48120, Note Name: G#4
Note OFF: Time 48120, Note Name: G#5
Note ON: Time 48240, Note Name: G5, Velocity: 62
Note ON: Time 48240, Note Name: G4, Velocity: 52
Note OFF: Time 48720, Note Name: G4
Note OFF: Time 48720, Note Name: G5
Note ON: Time 48720, Note Name: G5, Velocity: 68
Note ON: Time 48720, Note Name: G4, Velocity: 57
Note OFF: Time 49200, Note Name: G4
Note OFF: Time 49200, Note Name: G5
Note ON: Time 49200, Note Name: G4, Velocity: 58
Note ON: Time 49200, Note Name: G5, Velocity: 69
Note OFF: Time 49320, Note Name: G5
Note OFF: Time 49320, Note Name: G4
Note ON: Time 49440, Note Name: D#6, Velocity: 71
Note ON: Time 49440, Note Name: D#5, Velocity: 60
Note OFF: Time 49560, Note Name: D#5
Note OFF: Time 49560, Note Name: D#6
Note ON: Time 49680, Note Name: G4, Velocity: 61
Note ON: Time 49680, Note Name: G5, Velocity: 73
Note OFF: Time 49800, Note Name: G5
Note OFF: Time 49800, Note Name: G4
Note ON: Time 49920, Note Name: A#4, Velocity: 62
Note ON: Time 49920, Note Name: A#5, Velocity: 74
Note OFF: Time 50040, Note Name: A#5
Note OFF: Time 50040, Note Name: A#4
Note ON: Time 50160, Note Name: G#4, Velocity: 63
Note ON: Time 50160, Note Name: G#5, Velocity: 75
Note OFF: Time 50640, Note Name: G#5
Note OFF: Time 50640, Note Name: G#4
Note ON: Time 50640, Note Name: G#4, Velocity: 68
Note ON: Time 50640, Note Name: G#5, Velocity: 80
Note OFF: Time 51120, Note Name: G#5
Note OFF: Time 51120, Note Name: G#4
Note ON: Time 51120, Note Name: G#4, Velocity: 69
Note ON: Time 51120, Note Name: G#5, Velocity: 82
Note OFF: Time 51240, Note Name: G#5
Note OFF: Time 51240, Note Name: G#4
Note ON: Time 51360, Note Name: D#5, Velocity: 72
Note ON: Time 51360, Note Name: D#6, Velocity: 85
Note OFF: Time 51480, Note Name: D#6
Note OFF: Time 51480, Note Name: D#5
Note ON: Time 51600, Note Name: G#5, Velocity: 86
Note ON: Time 51600, Note Name: G#4, Velocity: 73
Note OFF: Time 51720, Note Name: G#4
Note OFF: Time 51720, Note Name: G#5
Note ON: Time 51840, Note Name: B4, Velocity: 73
Note ON: Time 51840, Note Name: B5, Velocity: 86
Note OFF: Time 51960, Note Name: B5
Note OFF: Time 51960, Note Name: B4
Note ON: Time 52080, Note Name: A#5, Velocity: 89
Note ON: Time 52080, Note Name: A#4, Velocity: 74
Note OFF: Time 52560, Note Name: A#4
Note OFF: Time 52560, Note Name: A#5
Note ON: Time 52560, Note Name: A#4, Velocity: 79
Note ON: Time 52560, Note Name: A#5, Velocity: 93
Note OFF: Time 53040, Note Name: A#5
Note OFF: Time 53040, Note Name: A#4
Note ON: Time 53040, Note Name: A#5, Velocity: 93
Note ON: Time 53040, Note Name: A#4, Velocity: 79
Note OFF: Time 53160, Note Name: A#4
Note OFF: Time 53160, Note Name: A#5
Note ON: Time 53280, Note Name: D#6, Velocity: 93
Note ON: Time 53280, Note Name: D#5, Velocity: 79
Note OFF: Time 53400, Note Name: D#5
Note OFF: Time 53400, Note Name: D#6
Note ON: Time 53520, Note Name: A#5, Velocity: 93
Note ON: Time 53520, Note Name: A#4, Velocity: 79
Note OFF: Time 53640, Note Name: A#4
Note OFF: Time 53640, Note Name: A#5
Note ON: Time 53760, Note Name: C5, Velocity: 80
Note ON: Time 53760, Note Name: C6, Velocity: 95
Note OFF: Time 54720, Note Name: C6
Note OFF: Time 54720, Note Name: C5
Note ON: Time 54720, Note Name: C#6, Velocity: 95
Note ON: Time 54720, Note Name: C#5, Velocity: 80
Note OFF: Time 55680, Note Name: C#5
Note OFF: Time 55680, Note Name: C#6
Note ON: Time 55680, Note Name: A#5, Velocity: 80
Note ON: Time 55680, Note Name: A#4, Velocity: 68
Note OFF: Time 55745, Note Name: A#5
Note ON: Time 55745, Note Name: B5, Velocity: 75
Note OFF: Time 55809, Note Name: B5
Note ON: Time 55809, Note Name: A#5, Velocity: 80
Note OFF: Time 55874, Note Name: A#5
Note ON: Time 55874, Note Name: B5, Velocity: 80
Note OFF: Time 55938, Note Name: B5
Note ON: Time 55955, Note Name: A#5, Velocity: 80
Note ON: Time 56027, Note Name: G#5, Velocity: 75
Note OFF: Time 56033, Note Name: A#5
Note ON: Time 56093, Note Name: A#5, Velocity: 75
Note OFF: Time 56104, Note Name: G#5
Note OFF: Time 56160, Note Name: A#5
Note OFF: Time 56160, Note Name: A#4
Note ON: Time 56160, Note Name: B5, Velocity: 95
Note ON: Time 56160, Note Name: B4, Velocity: 80
Note OFF: Time 57600, Note Name: B4
Note OFF: Time 57600, Note Name: B5
Note ON: Time 57600, Note Name: G#5, Velocity: 95
Note ON: Time 57600, Note Name: G#4, Velocity: 80
Note OFF: Time 58560, Note Name: G#4
Note OFF: Time 58560, Note Name: G#5
Note ON: Time 58560, Note Name: A4, Velocity: 80
Note ON: Time 58560, Note Name: A5, Velocity: 94
Note OFF: Time 59520, Note Name: A5
Note OFF: Time 59520, Note Name: A4
Note ON: Time 59520, Note Name: G4, Velocity: 68
Note ON: Time 59520, Note Name: G5, Velocity: 80
Note OFF: Time 59585, Note Name: G5
Note ON: Time 59585, Note Name: G#5, Velocity: 75
Note ON: Time 59649, Note Name: G5, Velocity: 80
Note OFF: Time 59650, Note Name: G#5
Note OFF: Time 59714, Note Name: G5
Note ON: Time 59714, Note Name: G#5, Velocity: 80
Note OFF: Time 59779, Note Name: G#5
Note ON: Time 59795, Note Name: G5, Velocity: 80
Note ON: Time 59867, Note Name: F5, Velocity: 75
Note OFF: Time 59873, Note Name: G5
Note ON: Time 59933, Note Name: G5, Velocity: 75
Note OFF: Time 59945, Note Name: F5
Note OFF: Time 60000, Note Name: G5
Note OFF: Time 60000, Note Name: G4
Note ON: Time 60000, Note Name: G#4, Velocity: 80
Note ON: Time 60000, Note Name: G#5, Velocity: 95
Note OFF: Time 61440, Note Name: G#5
Note OFF: Time 61440, Note Name: G#4
Note ON: Time 61440, Note Name: E5, Velocity: 100
Note ON: Time 61440, Note Name: A4, Velocity: 83
Note ON: Time 61440, Note Name: C#5, Velocity: 83
Note ON: Time 61440, Note Name: A5, Velocity: 100
Note OFF: Time 62520, Note Name: A5
Note OFF: Time 62520, Note Name: E5
Note OFF: Time 62520, Note Name: A4
Note OFF: Time 62520, Note Name: C#5
Note ON: Time 62520, Note Name: E5, Velocity: 47
Note OFF: Time 62640, Note Name: E5
Note ON: Time 62640, Note Name: F#5, Velocity: 47
Note OFF: Time 62760, Note Name: F#5
Note ON: Time 62760, Note Name: G#5, Velocity: 48
Note OFF: Time 62880, Note Name: G#5
Note ON: Time 62880, Note Name: A5, Velocity: 49
Note OFF: Time 63000, Note Name: A5
Note ON: Time 63000, Note Name: B5, Velocity: 50
Note OFF: Time 63120, Note Name: B5
Note ON: Time 63120, Note Name: C#6, Velocity: 51
Note OFF: Time 63240, Note Name: C#6
Note ON: Time 63240, Note Name: B5, Velocity: 51
Note OFF: Time 63360, Note Name: B5
Note ON: Time 63360, Note Name: A5, Velocity: 49
Note OFF: Time 63480, Note Name: A5
Note ON: Time 63480, Note Name: E5, Velocity: 47
Note OFF: Time 63600, Note Name: E5
Note ON: Time 63600, Note Name: F#5, Velocity: 47
Note OFF: Time 63720, Note Name: F#5
Note ON: Time 63720, Note Name: G#5, Velocity: 47
Note OFF: Time 63840, Note Name: G#5
Note ON: Time 63840, Note Name: A5, Velocity: 48
Note OFF: Time 63960, Note Name: A5
Note ON: Time 63960, Note Name: B5, Velocity: 49
Note OFF: Time 64080, Note Name: B5
Note ON: Time 64080, Note Name: C#6, Velocity: 50
Note OFF: Time 64200, Note Name: C#6
Note ON: Time 64200, Note Name: B5, Velocity: 48
Note OFF: Time 64320, Note Name: B5
Note ON: Time 64320, Note Name: A5, Velocity: 48
Note OFF: Time 64440, Note Name: A5
Note ON: Time 64440, Note Name: E5, Velocity: 47
Note OFF: Time 64560, Note Name: E5
Note ON: Time 64560, Note Name: F#5, Velocity: 48
Note OFF: Time 64680, Note Name: F#5
Note ON: Time 64680, Note Name: G#5, Velocity: 49
Note OFF: Time 64800, Note Name: G#5
Note ON: Time 64800, Note Name: A5, Velocity: 50
Note OFF: Time 64920, Note Name: A5
Note ON: Time 64920, Note Name: B5, Velocity: 51
Note OFF: Time 65040, Note Name: B5
Note ON: Time 65040, Note Name: C#6, Velocity: 51
Note OFF: Time 65160, Note Name: C#6
Note ON: Time 65160, Note Name: B5, Velocity: 49
Note OFF: Time 65280, Note Name: B5
Note ON: Time 65280, Note Name: A5, Velocity: 47
Note OFF: Time 65400, Note Name: A5
Note ON: Time 65400, Note Name: E5, Velocity: 48
Note OFF: Time 65520, Note Name: E5
Note ON: Time 65520, Note Name: F#5, Velocity: 51
Note OFF: Time 65640, Note Name: F#5
Note ON: Time 65640, Note Name: G#5, Velocity: 51
Note OFF: Time 65760, Note Name: G#5
Note ON: Time 65760, Note Name: A5, Velocity: 54
Note OFF: Time 65880, Note Name: A5
Note ON: Time 65880, Note Name: B5, Velocity: 56
Note OFF: Time 66000, Note Name: B5
Note ON: Time 66000, Note Name: C#6, Velocity: 57
Note OFF: Time 66120, Note Name: C#6
Note ON: Time 66120, Note Name: D6, Velocity: 60
Note OFF: Time 66240, Note Name: D6
Note ON: Time 66240, Note Name: E6, Velocity: 61
Note OFF: Time 66360, Note Name: E6
Note ON: Time 66360, Note Name: D#6, Velocity: 59
Note OFF: Time 66480, Note Name: D#6
Note ON: Time 66480, Note Name: E6, Velocity: 57
Note OFF: Time 66600, Note Name: E6
Note ON: Time 66600, Note Name: D#6, Velocity: 56
Note OFF: Time 66720, Note Name: D#6
Note ON: Time 66720, Note Name: E6, Velocity: 54
Note OFF: Time 66840, Note Name: E6
Note ON: Time 66840, Note Name: C#6, Velocity: 52
Note OFF: Time 66960, Note Name: C#6
Note ON: Time 66960, Note Name: B5, Velocity: 51
Note OFF: Time 67080, Note Name: B5
Note ON: Time 67080, Note Name: A5, Velocity: 50
Note OFF: Time 67200, Note Name: A5
Note ON: Time 67200, Note Name: G#5, Velocity: 48
Note OFF: Time 68160, Note Name: G#5
Note ON: Time 68160, Note Name: A#5, Velocity: 50
Note OFF: Time 68240, Note Name: A#5
Note ON: Time 68240, Note Name: B5, Velocity: 50
Note OFF: Time 68320, Note Name: B5
Note ON: Time 68320, Note Name: A#5, Velocity: 50
Note OFF: Time 68395, Note Name: A#5
Note ON: Time 68395, Note Name: B5, Velocity: 50
Note OFF: Time 68470, Note Name: B5
Note ON: Time 68470, Note Name: A#5, Velocity: 50
Note OFF: Time 68545, Note Name: A#5
Note ON: Time 68545, Note Name: B5, Velocity: 50
Note OFF: Time 68620, Note Name: B5
Note ON: Time 68620, Note Name: A#5, Velocity: 48
Note OFF: Time 68690, Note Name: A#5
Note ON: Time 68690, Note Name: B5, Velocity: 48
Note OFF: Time 68760, Note Name: B5
Note ON: Time 68760, Note Name: A#5, Velocity: 49
Note OFF: Time 68820, Note Name: A#5
Note ON: Time 68820, Note Name: B5, Velocity: 50
Note OFF: Time 68880, Note Name: B5
Note ON: Time 68880, Note Name: A#5, Velocity: 51
Note OFF: Time 68940, Note Name: A#5
Note ON: Time 68940, Note Name: B5, Velocity: 51
Note OFF: Time 69000, Note Name: B5
Note ON: Time 69000, Note Name: A#5, Velocity: 51
Note OFF: Time 69060, Note Name: A#5
Note ON: Time 69060, Note Name: B5, Velocity: 52
Note OFF: Time 69120, Note Name: B5
Note ON: Time 69120, Note Name: G#5, Velocity: 56
Note OFF: Time 69360, Note Name: G#5
Note ON: Time 69600, Note Name: E4, Velocity: 87
Note ON: Time 69600, Note Name: A3, Velocity: 73
Note ON: Time 69600, Note Name: C#4, Velocity: 87
Note ON: Time 69600, Note Name: A4, Velocity: 87
Note OFF: Time 70200, Note Name: A4
Note OFF: Time 70200, Note Name: E4
Note OFF: Time 70200, Note Name: A3
Note OFF: Time 70200, Note Name: C#4
Note ON: Time 70200, Note Name: E4, Velocity: 50
Note OFF: Time 70320, Note Name: E4
Note ON: Time 70320, Note Name: F#4, Velocity: 50
Note OFF: Time 70440, Note Name: F#4
Note ON: Time 70440, Note Name: G#4, Velocity: 50
Note OFF: Time 70560, Note Name: G#4
Note ON: Time 70560, Note Name: A4, Velocity: 48
Note OFF: Time 70680, Note Name: A4
Note ON: Time 70680, Note Name: B4, Velocity: 47
Note OFF: Time 70800, Note Name: B4
Note ON: Time 70800, Note Name: C#5, Velocity: 49
Note OFF: Time 70920, Note Name: C#5
Note ON: Time 70920, Note Name: B4, Velocity: 48
Note OFF: Time 71040, Note Name: B4
Note ON: Time 71040, Note Name: A4, Velocity: 47
Note OFF: Time 71160, Note Name: A4
Note ON: Time 71160, Note Name: E4, Velocity: 47
Note OFF: Time 71280, Note Name: E4
Note ON: Time 71280, Note Name: F#4, Velocity: 48
Note OFF: Time 71400, Note Name: F#4
Note ON: Time 71400, Note Name: G#4, Velocity: 49
Note OFF: Time 71520, Note Name: G#4
Note ON: Time 71520, Note Name: A4, Velocity: 51
Note OFF: Time 71640, Note Name: A4
Note ON: Time 71640, Note Name: B4, Velocity: 51
Note OFF: Time 71760, Note Name: B4
Note ON: Time 71760, Note Name: C#5, Velocity: 49
Note OFF: Time 71880, Note Name: C#5
Note ON: Time 71880, Note Name: B4, Velocity: 48
Note OFF: Time 72000, Note Name: B4
Note ON: Time 72000, Note Name: A4, Velocity: 48
Note OFF: Time 72120, Note Name: A4
Note ON: Time 72120, Note Name: E4, Velocity: 48
Note OFF: Time 72240, Note Name: E4
Note ON: Time 72240, Note Name: F#4, Velocity: 48
Note OFF: Time 72360, Note Name: F#4
Note ON: Time 72360, Note Name: G#4, Velocity: 50
Note OFF: Time 72480, Note Name: G#4
Note ON: Time 72480, Note Name: A4, Velocity: 50
Note OFF: Time 72600, Note Name: A4
Note ON: Time 72600, Note Name: B4, Velocity: 50
Note OFF: Time 72720, Note Name: B4
Note ON: Time 72720, Note Name: C#5, Velocity: 50
Note OFF: Time 72840, Note Name: C#5
Note ON: Time 72840, Note Name: B4, Velocity: 50
Note OFF: Time 72960, Note Name: B4
Note ON: Time 72960, Note Name: A4, Velocity: 49
Note OFF: Time 73080, Note Name: A4
Note ON: Time 73080, Note Name: E4, Velocity: 50
Note OFF: Time 73200, Note Name: E4
Note ON: Time 73200, Note Name: F#4, Velocity: 51
Note OFF: Time 73320, Note Name: F#4
Note ON: Time 73320, Note Name: G#4, Velocity: 51
Note OFF: Time 73440, Note Name: G#4
Note ON: Time 73440, Note Name: A4, Velocity: 52
Note OFF: Time 73560, Note Name: A4
Note ON: Time 73560, Note Name: B4, Velocity: 53
Note OFF: Time 73680, Note Name: B4
Note ON: Time 73680, Note Name: C#5, Velocity: 56
Note OFF: Time 73800, Note Name: C#5
Note ON: Time 73800, Note Name: B4, Velocity: 56
Note OFF: Time 73920, Note Name: B4
Note ON: Time 73920, Note Name: A4, Velocity: 57
Note OFF: Time 74040, Note Name: A4
Note ON: Time 74040, Note Name: E4, Velocity: 58
Note OFF: Time 74160, Note Name: E4
Note ON: Time 74160, Note Name: F#4, Velocity: 59
Note OFF: Time 74280, Note Name: F#4
Note ON: Time 74280, Note Name: G#4, Velocity: 60
Note OFF: Time 74400, Note Name: G#4
Note ON: Time 74400, Note Name: A4, Velocity: 62
Note OFF: Time 74520, Note Name: A4
Note ON: Time 74520, Note Name: B4, Velocity: 62
Note OFF: Time 74640, Note Name: B4
Note ON: Time 74640, Note Name: C#5, Velocity: 62
Note OFF: Time 74760, Note Name: C#5
Note ON: Time 74760, Note Name: B4, Velocity: 63
Note OFF: Time 74880, Note Name: B4
Note ON: Time 74880, Note Name: A4, Velocity: 66
Note OFF: Time 75000, Note Name: A4
Note ON: Time 75000, Note Name: E4, Velocity: 67
Note OFF: Time 75120, Note Name: E4
Note ON: Time 75120, Note Name: F#4, Velocity: 68
Note OFF: Time 75240, Note Name: F#4
Note ON: Time 75240, Note Name: G#4, Velocity: 68
Note OFF: Time 75360, Note Name: G#4
Note ON: Time 75360, Note Name: A4, Velocity: 70
Note OFF: Time 75480, Note Name: A4
Note ON: Time 75480, Note Name: B4, Velocity: 71
Note OFF: Time 75600, Note Name: B4
Note ON: Time 75600, Note Name: C#5, Velocity: 72
Note OFF: Time 75720, Note Name: C#5
Note ON: Time 75720, Note Name: D5, Velocity: 73
Note OFF: Time 75840, Note Name: D5
Note ON: Time 75840, Note Name: E5, Velocity: 74
Note OFF: Time 75960, Note Name: E5
Note ON: Time 75960, Note Name: F#5, Velocity: 75
Note OFF: Time 76080, Note Name: F#5
Note ON: Time 76080, Note Name: G#5, Velocity: 76
Note OFF: Time 76200, Note Name: G#5
Note ON: Time 76200, Note Name: A5, Velocity: 77
Note OFF: Time 76320, Note Name: A5
Note ON: Time 76320, Note Name: B5, Velocity: 79
Note OFF: Time 76440, Note Name: B5
Note ON: Time 76440, Note Name: C#6, Velocity: 79
Note OFF: Time 76560, Note Name: C#6
Note ON: Time 76560, Note Name: D6, Velocity: 79
Note OFF: Time 76680, Note Name: D6
Note ON: Time 76680, Note Name: D#6, Velocity: 80
Note OFF: Time 76800, Note Name: D#6
Note ON: Time 76800, Note Name: E5, Velocity: 84
Note ON: Time 76800, Note Name: E6, Velocity: 84
Note OFF: Time 77760, Note Name: E6
Note OFF: Time 77760, Note Name: E5
Note ON: Time 77760, Note Name: G#4, Velocity: 84
Note ON: Time 77760, Note Name: G#5, Velocity: 84
Note OFF: Time 78720, Note Name: G#5
Note OFF: Time 78720, Note Name: G#4
Note ON: Time 78720, Note Name: B4, Velocity: 84
Note ON: Time 78720, Note Name: B5, Velocity: 84
Note OFF: Time 79680, Note Name: B5
Note OFF: Time 79680, Note Name: B4
Note ON: Time 79680, Note Name: G3, Velocity: 71
Note ON: Time 79680, Note Name: C#4, Velocity: 71
Note ON: Time 79680, Note Name: G4, Velocity: 84
Note OFF: Time 80640, Note Name: G4
Note OFF: Time 80640, Note Name: C#4
Note OFF: Time 80640, Note Name: G3
Note ON: Time 80640, Note Name: D#4, Velocity: 84
Note ON: Time 80640, Note Name: G#4, Velocity: 84
Note ON: Time 80640, Note Name: B3, Velocity: 84
Note OFF: Time 80880, Note Name: B3
Note OFF: Time 80880, Note Name: G#4
Note OFF: Time 80880, Note Name: D#4
Note ON: Time 80880, Note Name: D#4, Velocity: 51
Note ON: Time 80880, Note Name: B4, Velocity: 51
Note OFF: Time 81000, Note Name: B4
Note OFF: Time 81000, Note Name: D#4
Note ON: Time 81120, Note Name: D#4, Velocity: 51
Note ON: Time 81120, Note Name: B4, Velocity: 51
Note OFF: Time 81240, Note Name: B4
Note OFF: Time 81240, Note Name: D#4
Note ON: Time 81360, Note Name: D#4, Velocity: 51
Note ON: Time 81360, Note Name: B4, Velocity: 51
Note OFF: Time 81480, Note Name: B4
Note OFF: Time 81480, Note Name: D#4
Note ON: Time 81600, Note Name: D#4, Velocity: 51
Note ON: Time 81600, Note Name: B4, Velocity: 51
Note OFF: Time 81720, Note Name: B4
Note OFF: Time 81720, Note Name: D#4
Note ON: Time 81840, Note Name: D#4, Velocity: 51
Note ON: Time 81840, Note Name: B4, Velocity: 51
Note OFF: Time 81960, Note Name: B4
Note OFF: Time 81960, Note Name: D#4
Note ON: Time 82080, Note Name: A#4, Velocity: 49
Note ON: Time 82080, Note Name: D#4, Velocity: 49
Note OFF: Time 82200, Note Name: D#4
Note OFF: Time 82200, Note Name: A#4
Note ON: Time 82320, Note Name: D#4, Velocity: 48
Note ON: Time 82320, Note Name: G#4, Velocity: 48
Note OFF: Time 82440, Note Name: G#4
Note OFF: Time 82440, Note Name: D#4
Note ON: Time 82560, Note Name: D#4, Velocity: 59
Note ON: Time 82560, Note Name: G4, Velocity: 59
Note OFF: Time 82800, Note Name: G4
Note OFF: Time 82800, Note Name: D#4
Note ON: Time 82800, Note Name: D#5, Velocity: 49
Note ON: Time 82800, Note Name: G4, Velocity: 49
Note OFF: Time 82920, Note Name: G4
Note OFF: Time 82920, Note Name: D#5
Note ON: Time 83040, Note Name: G4, Velocity: 49
Note ON: Time 83040, Note Name: D#5, Velocity: 49
Note OFF: Time 83160, Note Name: D#5
Note OFF: Time 83160, Note Name: G4
Note ON: Time 83280, Note Name: G4, Velocity: 50
Note ON: Time 83280, Note Name: D#5, Velocity: 50
Note OFF: Time 83400, Note Name: D#5
Note OFF: Time 83400, Note Name: G4
Note ON: Time 83520, Note Name: G4, Velocity: 51
Note ON: Time 83520, Note Name: D#5, Velocity: 51
Note OFF: Time 83640, Note Name: D#5
Note OFF: Time 83640, Note Name: G4
Note ON: Time 83760, Note Name: D#5, Velocity: 51
Note ON: Time 83760, Note Name: G4, Velocity: 51
Note OFF: Time 83880, Note Name: G4
Note OFF: Time 83880, Note Name: D#5
Note ON: Time 84000, Note Name: D#5, Velocity: 51
Note ON: Time 84000, Note Name: G#4, Velocity: 51
Note OFF: Time 84120, Note Name: G#4
Note OFF: Time 84120, Note Name: D#5
Note ON: Time 84240, Note Name: A#4, Velocity: 50
Note ON: Time 84240, Note Name: D#5, Velocity: 50
Note OFF: Time 84360, Note Name: D#5
Note OFF: Time 84360, Note Name: A#4
Note ON: Time 84480, Note Name: B4, Velocity: 58
Note ON: Time 84480, Note Name: D#5, Velocity: 58
Note OFF: Time 84720, Note Name: D#5
Note OFF: Time 84720, Note Name: B4
Note ON: Time 84720, Note Name: B4, Velocity: 50
Note ON: Time 84720, Note Name: D#4, Velocity: 50
Note OFF: Time 84840, Note Name: D#4
Note OFF: Time 84840, Note Name: B4
Note ON: Time 84960, Note Name: B4, Velocity: 50
Note ON: Time 84960, Note Name: D#4, Velocity: 50
Note OFF: Time 85080, Note Name: D#4
Note OFF: Time 85080, Note Name: B4
Note ON: Time 85200, Note Name: D#4, Velocity: 50
Note ON: Time 85200, Note Name: B4, Velocity: 50
Note OFF: Time 85320, Note Name: B4
Note OFF: Time 85320, Note Name: D#4
Note ON: Time 85440, Note Name: B4, Velocity: 50
Note ON: Time 85440, Note Name: D#4, Velocity: 50
Note OFF: Time 85560, Note Name: D#4
Note OFF: Time 85560, Note Name: B4
Note ON: Time 85680, Note Name: B4, Velocity: 50
Note ON: Time 85680, Note Name: D#4, Velocity: 50
Note OFF: Time 85800, Note Name: D#4
Note OFF: Time 85800, Note Name: B4
Note ON: Time 85920, Note Name: A#4, Velocity: 50
Note ON: Time 85920, Note Name: D#4, Velocity: 50
Note OFF: Time 86040, Note Name: D#4
Note OFF: Time 86040, Note Name: A#4
Note ON: Time 86160, Note Name: D#4, Velocity: 48
Note ON: Time 86160, Note Name: G#4, Velocity: 48
Note OFF: Time 86280, Note Name: G#4
Note OFF: Time 86280, Note Name: D#4
Note ON: Time 86400, Note Name: D#4, Velocity: 58
Note ON: Time 86400, Note Name: G4, Velocity: 58
Note OFF: Time 86640, Note Name: G4
Note OFF: Time 86640, Note Name: D#4
Note ON: Time 86640, Note Name: D#5, Velocity: 49
Note ON: Time 86640, Note Name: G4, Velocity: 49
Note OFF: Time 86760, Note Name: G4
Note OFF: Time 86760, Note Name: D#5
Note ON: Time 86880, Note Name: G4, Velocity: 49
Note ON: Time 86880, Note Name: D#5, Velocity: 49
Note OFF: Time 87000, Note Name: D#5
Note OFF: Time 87000, Note Name: G4
Note ON: Time 87120, Note Name: G4, Velocity: 51
Note ON: Time 87120, Note Name: D#5, Velocity: 51
Note OFF: Time 87240, Note Name: D#5
Note OFF: Time 87240, Note Name: G4
Note ON: Time 87360, Note Name: G4, Velocity: 49
Note ON: Time 87360, Note Name: D#5, Velocity: 49
Note OFF: Time 87480, Note Name: D#5
Note OFF: Time 87480, Note Name: G4
Note ON: Time 87600, Note Name: D#5, Velocity: 49
Note ON: Time 87600, Note Name: G4, Velocity: 49
Note OFF: Time 87720, Note Name: G4
Note OFF: Time 87720, Note Name: D#5
Note ON: Time 87840, Note Name: G#4, Velocity: 50
Note ON: Time 87840, Note Name: D#5, Velocity: 50
Note OFF: Time 87960, Note Name: D#5
Note OFF: Time 87960, Note Name: G#4
Note ON: Time 88080, Note Name: A#4, Velocity: 51
Note ON: Time 88080, Note Name: D#5, Velocity: 51
Note OFF: Time 88200, Note Name: D#5
Note OFF: Time 88200, Note Name: A#4
Note ON: Time 88320, Note Name: B4, Velocity: 56
Note ON: Time 88320, Note Name: D#5, Velocity: 56
Note OFF: Time 88440, Note Name: D#5
Note OFF: Time 88440, Note Name: B4
Note ON: Time 88560, Note Name: D#5, Velocity: 50
Note ON: Time 88560, Note Name: B4, Velocity: 50
Note OFF: Time 88680, Note Name: B4
Note OFF: Time 88680, Note Name: D#5
Note ON: Time 88800, Note Name: D#5, Velocity: 50
Note ON: Time 88800, Note Name: B4, Velocity: 50
Note OFF: Time 89040, Note Name: B4
Note OFF: Time 89040, Note Name: D#5
Note ON: Time 89040, Note Name: G#4, Velocity: 47
Note ON: Time 89040, Note Name: B4, Velocity: 47
Note OFF: Time 89280, Note Name: B4
Note OFF: Time 89280, Note Name: G#4
Note ON: Time 89520, Note Name: E5, Velocity: 50
Note ON: Time 89520, Note Name: C#5, Velocity: 50
Note OFF: Time 89640, Note Name: C#5
Note OFF: Time 89640, Note Name: E5
Note ON: Time 89760, Note Name: C#5, Velocity: 50
Note ON: Time 89760, Note Name: E5, Velocity: 50
Note OFF: Time 90000, Note Name: E5
Note OFF: Time 90000, Note Name: C#5
Note ON: Time 90000, Note Name: C#5, Velocity: 48
Note ON: Time 90000, Note Name: G#4, Velocity: 48
Note OFF: Time 90240, Note Name: G#4
Note OFF: Time 90240, Note Name: C#5
Note ON: Time 90480, Note Name: D#5, Velocity: 47
Note ON: Time 90480, Note Name: B4, Velocity: 47
Note OFF: Time 90600, Note Name: B4
Note OFF: Time 90600, Note Name: D#5
Note ON: Time 90720, Note Name: B4, Velocity: 47
Note ON: Time 90720, Note Name: D#5, Velocity: 47
Note OFF: Time 90960, Note Name: D#5
Note OFF: Time 90960, Note Name: B4
Note ON: Time 90960, Note Name: B4, Velocity: 44
Note ON: Time 90960, Note Name: G#4, Velocity: 44
Note OFF: Time 91200, Note Name: G#4
Note OFF: Time 91200, Note Name: B4
Note ON: Time 91440, Note Name: A#4, Velocity: 49
Note ON: Time 91440, Note Name: D#5, Velocity: 49
Note OFF: Time 91560, Note Name: D#5
Note OFF: Time 91560, Note Name: A#4
Note ON: Time 91680, Note Name: A#4, Velocity: 47
Note ON: Time 91680, Note Name: D#5, Velocity: 47
Note OFF: Time 91920, Note Name: D#5
Note OFF: Time 91920, Note Name: A#4
Note ON: Time 91920, Note Name: A#4, Velocity: 45
Note ON: Time 91920, Note Name: G4, Velocity: 45
Note OFF: Time 92160, Note Name: G4
Note OFF: Time 92160, Note Name: A#4
Note ON: Time 92160, Note Name: B4, Velocity: 49
Note ON: Time 92160, Note Name: G#4, Velocity: 49
Note OFF: Time 92400, Note Name: G#4
Note OFF: Time 92400, Note Name: B4
Note ON: Time 92400, Note Name: B4, Velocity: 43
Note ON: Time 92400, Note Name: D#5, Velocity: 51
Note ON: Time 92400, Note Name: B5, Velocity: 51
Note OFF: Time 92520, Note Name: B5
Note OFF: Time 92520, Note Name: D#5
Note OFF: Time 92520, Note Name: B4
Note ON: Time 92640, Note Name: D#5, Velocity: 56
Note ON: Time 92640, Note Name: B4, Velocity: 47
Note ON: Time 92640, Note Name: B5, Velocity: 56
Note OFF: Time 92760, Note Name: B5
Note OFF: Time 92760, Note Name: B4
Note OFF: Time 92760, Note Name: D#5
Note ON: Time 92880, Note Name: B5, Velocity: 58
Note ON: Time 92880, Note Name: D#5, Velocity: 58
Note ON: Time 92880, Note Name: B4, Velocity: 49
Note OFF: Time 93000, Note Name: B4
Note OFF: Time 93000, Note Name: D#5
Note OFF: Time 93000, Note Name: B5
Note ON: Time 93120, Note Name: B4, Velocity: 52
Note ON: Time 93120, Note Name: D#5, Velocity: 62
Note ON: Time 93120, Note Name: B5, Velocity: 62
Note OFF: Time 93240, Note Name: B5
Note OFF: Time 93240, Note Name: D#5
Note OFF: Time 93240, Note Name: B4
Note ON: Time 93360, Note Name: B4, Velocity: 56
Note ON: Time 93360, Note Name: D#5, Velocity: 66
Note ON: Time 93360, Note Name: B5, Velocity: 66
Note OFF: Time 93480, Note Name: B5
Note OFF: Time 93480, Note Name: D#5
Note OFF: Time 93480, Note Name: B4
Note ON: Time 93600, Note Name: A#5, Velocity: 68
Note ON: Time 93600, Note Name: A#4, Velocity: 57
Note ON: Time 93600, Note Name: C#5, Velocity: 68
Note OFF: Time 93720, Note Name: C#5
Note OFF: Time 93720, Note Name: A#4
Note OFF: Time 93720, Note Name: A#5
Note ON: Time 93840, Note Name: G#4, Velocity: 61
Note ON: Time 93840, Note Name: B4, Velocity: 72
Note ON: Time 93840, Note Name: G#5, Velocity: 72
Note OFF: Time 93960, Note Name: G#5
Note OFF: Time 93960, Note Name: B4
Note OFF: Time 93960, Note Name: G#4
Note ON: Time 94080, Note Name: G4, Velocity: 63
Note ON: Time 94080, Note Name: A#4, Velocity: 75
Note ON: Time 94080, Note Name: G5, Velocity: 75
Note OFF: Time 94320, Note Name: G5
Note OFF: Time 94320, Note Name: A#4
Note OFF: Time 94320, Note Name: G4
Note ON: Time 94320, Note Name: G5, Velocity: 76
Note ON: Time 94320, Note Name: E5, Velocity: 64
Note ON: Time 94320, Note Name: E6, Velocity: 76
Note OFF: Time 94440, Note Name: E6
Note OFF: Time 94440, Note Name: E5
Note OFF: Time 94440, Note Name: G5
Note ON: Time 94560, Note Name: G5, Velocity: 82
Note ON: Time 94560, Note Name: E6, Velocity: 82
Note ON: Time 94560, Note Name: E5, Velocity: 69
Note OFF: Time 94680, Note Name: E5
Note OFF: Time 94680, Note Name: E6
Note OFF: Time 94680, Note Name: G5
Note ON: Time 94800, Note Name: E5, Velocity: 67
Note ON: Time 94800, Note Name: E6, Velocity: 79
Note ON: Time 94800, Note Name: G5, Velocity: 79
Note OFF: Time 94920, Note Name: G5
Note OFF: Time 94920, Note Name: E6
Note OFF: Time 94920, Note Name: E5
Note ON: Time 95040, Note Name: E6, Velocity: 82
Note ON: Time 95040, Note Name: G5, Velocity: 82
Note ON: Time 95040, Note Name: E5, Velocity: 69
Note OFF: Time 95160, Note Name: E5
Note OFF: Time 95160, Note Name: G5
Note OFF: Time 95160, Note Name: E6
Note ON: Time 95280, Note Name: E6, Velocity: 78
Note ON: Time 95280, Note Name: G5, Velocity: 78
Note ON: Time 95280, Note Name: E5, Velocity: 66
Note OFF: Time 95400, Note Name: E5
Note OFF: Time 95400, Note Name: G5
Note OFF: Time 95400, Note Name: E6
Note ON: Time 95520, Note Name: G5, Velocity: 80
Note ON: Time 95520, Note Name: D#5, Velocity: 68
Note ON: Time 95520, Note Name: D#6, Velocity: 80
Note OFF: Time 95640, Note Name: D#6
Note OFF: Time 95640, Note Name: D#5
Note OFF: Time 95640, Note Name: G5
Note ON: Time 95760, Note Name: G5, Velocity: 78
Note ON: Time 95760, Note Name: C#5, Velocity: 66
Note ON: Time 95760, Note Name: C#6, Velocity: 78
Note OFF: Time 95880, Note Name: C#6
Note OFF: Time 95880, Note Name: C#5
Note OFF: Time 95880, Note Name: G5
Note ON: Time 96000, Note Name: B4, Velocity: 69
Note ON: Time 96000, Note Name: G#5, Velocity: 82
Note ON: Time 96000, Note Name: B5, Velocity: 82
Note OFF: Time 96240, Note Name: B5
Note OFF: Time 96240, Note Name: G#5
Note OFF: Time 96240, Note Name: B4
Note ON: Time 96240, Note Name: B4, Velocity: 41
Note ON: Time 96240, Note Name: D#5, Velocity: 49
Note ON: Time 96240, Note Name: B5, Velocity: 49
Note OFF: Time 96360, Note Name: B5
Note OFF: Time 96360, Note Name: D#5
Note OFF: Time 96360, Note Name: B4
Note ON: Time 96480, Note Name: D#5, Velocity: 52
Note ON: Time 96480, Note Name: B5, Velocity: 52
Note ON: Time 96480, Note Name: B4, Velocity: 44
Note OFF: Time 96600, Note Name: B4
Note OFF: Time 96600, Note Name: B5
Note OFF: Time 96600, Note Name: D#5
Note ON: Time 96720, Note Name: B4, Velocity: 48
Note ON: Time 96720, Note Name: D#5, Velocity: 57
Note ON: Time 96720, Note Name: B5, Velocity: 57
Note OFF: Time 96840, Note Name: B5
Note OFF: Time 96840, Note Name: D#5
Note OFF: Time 96840, Note Name: B4
Note ON: Time 96960, Note Name: D#5, Velocity: 61
Note ON: Time 96960, Note Name: B5, Velocity: 61
Note ON: Time 96960, Note Name: B4, Velocity: 51
Note OFF: Time 97080, Note Name: B4
Note OFF: Time 97080, Note Name: B5
Note OFF: Time 97080, Note Name: D#5
Note ON: Time 97200, Note Name: B5, Velocity: 66
Note ON: Time 97200, Note Name: B4, Velocity: 56
Note ON: Time 97200, Note Name: D#5, Velocity: 66
Note OFF: Time 97320, Note Name: D#5
Note OFF: Time 97320, Note Name: B4
Note OFF: Time 97320, Note Name: B5
Note ON: Time 97440, Note Name: A#4, Velocity: 58
Note ON: Time 97440, Note Name: A#5, Velocity: 69
Note ON: Time 97440, Note Name: C#5, Velocity: 69
Note OFF: Time 97560, Note Name: C#5
Note OFF: Time 97560, Note Name: A#5
Note OFF: Time 97560, Note Name: A#4
Note ON: Time 97680, Note Name: G#4, Velocity: 62
Note ON: Time 97680, Note Name: B4, Velocity: 73
Note ON: Time 97680, Note Name: G#5, Velocity: 73
Note OFF: Time 97800, Note Name: G#5
Note OFF: Time 97800, Note Name: B4
Note OFF: Time 97800, Note Name: G#4
Note ON: Time 97920, Note Name: G4, Velocity: 66
Note ON: Time 97920, Note Name: A#4, Velocity: 78
Note ON: Time 97920, Note Name: G5, Velocity: 78
Note OFF: Time 98160, Note Name: G5
Note OFF: Time 98160, Note Name: A#4
Note OFF: Time 98160, Note Name: G4
Note ON: Time 98160, Note Name: G5, Velocity: 79
Note ON: Time 98160, Note Name: E6, Velocity: 79
Note ON: Time 98160, Note Name: E5, Velocity: 67
Note OFF: Time 98280, Note Name: E5
Note OFF: Time 98280, Note Name: E6
Note OFF: Time 98280, Note Name: G5
Note ON: Time 98400, Note Name: G5, Velocity: 81
Note ON: Time 98400, Note Name: E5, Velocity: 68
Note ON: Time 98400, Note Name: E6, Velocity: 81
Note OFF: Time 98520, Note Name: E6
Note OFF: Time 98520, Note Name: E5
Note OFF: Time 98520, Note Name: G5
Note ON: Time 98640, Note Name: E5, Velocity: 66
Note ON: Time 98640, Note Name: E6, Velocity: 78
Note ON: Time 98640, Note Name: G5, Velocity: 78
Note OFF: Time 98760, Note Name: G5
Note OFF: Time 98760, Note Name: E6
Note OFF: Time 98760, Note Name: E5
Note ON: Time 98880, Note Name: G5, Velocity: 82
Note ON: Time 98880, Note Name: E5, Velocity: 69
Note ON: Time 98880, Note Name: E6, Velocity: 82
Note OFF: Time 99000, Note Name: E6
Note OFF: Time 99000, Note Name: E5
Note OFF: Time 99000, Note Name: G5
Note ON: Time 99120, Note Name: E5, Velocity: 66
Note ON: Time 99120, Note Name: E6, Velocity: 78
Note ON: Time 99120, Note Name: G5, Velocity: 78
Note OFF: Time 99240, Note Name: G5
Note OFF: Time 99240, Note Name: E6
Note OFF: Time 99240, Note Name: E5
Note ON: Time 99360, Note Name: D#6, Velocity: 79
Note ON: Time 99360, Note Name: G5, Velocity: 79
Note ON: Time 99360, Note Name: D#5, Velocity: 67
Note OFF: Time 99480, Note Name: D#5
Note OFF: Time 99480, Note Name: G5
Note OFF: Time 99480, Note Name: D#6
Note ON: Time 99600, Note Name: C#6, Velocity: 79
Note ON: Time 99600, Note Name: C#5, Velocity: 67
Note ON: Time 99600, Note Name: G5, Velocity: 79
Note OFF: Time 99720, Note Name: G5
Note OFF: Time 99720, Note Name: C#5
Note OFF: Time 99720, Note Name: C#6
Note ON: Time 99840, Note Name: G#5, Velocity: 82
Note ON: Time 99840, Note Name: B5, Velocity: 82
Note ON: Time 99840, Note Name: B4, Velocity: 69
Note OFF: Time 100080, Note Name: B4
Note OFF: Time 100080, Note Name: B5
Note OFF: Time 100080, Note Name: G#5
Note ON: Time 100080, Note Name: B5, Velocity: 50
Note ON: Time 100080, Note Name: G#5, Velocity: 50
Note OFF: Time 100200, Note Name: G#5
Note OFF: Time 100200, Note Name: B5
Note ON: Time 100320, Note Name: B5, Velocity: 50
Note ON: Time 100320, Note Name: G#5, Velocity: 50
Note OFF: Time 100560, Note Name: G#5
Note OFF: Time 100560, Note Name: B5
Note ON: Time 100560, Note Name: D#6, Velocity: 48
Note ON: Time 100560, Note Name: B5, Velocity: 48
Note OFF: Time 100800, Note Name: B5
Note OFF: Time 100800, Note Name: D#6
Note ON: Time 101040, Note Name: C#6, Velocity: 49
Note ON: Time 101040, Note Name: G#5, Velocity: 49
Note OFF: Time 101160, Note Name: G#5
Note OFF: Time 101160, Note Name: C#6
Note ON: Time 101280, Note Name: C#6, Velocity: 49
Note ON: Time 101280, Note Name: G#5, Velocity: 49
Note OFF: Time 101520, Note Name: G#5
Note OFF: Time 101520, Note Name: C#6
Note ON: Time 101520, Note Name: E6, Velocity: 48
Note ON: Time 101520, Note Name: C#6, Velocity: 48
Note OFF: Time 101760, Note Name: C#6
Note OFF: Time 101760, Note Name: E6
Note ON: Time 102000, Note Name: G#5, Velocity: 49
Note ON: Time 102000, Note Name: B5, Velocity: 49
Note OFF: Time 102120, Note Name: B5
Note OFF: Time 102120, Note Name: G#5
Note ON: Time 102240, Note Name: B5, Velocity: 49
Note ON: Time 102240, Note Name: G#5, Velocity: 49
Note OFF: Time 102480, Note Name: G#5
Note OFF: Time 102480, Note Name: B5
Note ON: Time 102480, Note Name: D#6, Velocity: 48
Note ON: Time 102480, Note Name: B5, Velocity: 48
Note OFF: Time 102720, Note Name: B5
Note OFF: Time 102720, Note Name: D#6
Note ON: Time 102960, Note Name: A#5, Velocity: 51
Note ON: Time 102960, Note Name: G5, Velocity: 51
Note OFF: Time 103080, Note Name: G5
Note OFF: Time 103080, Note Name: A#5
Note ON: Time 103200, Note Name: A#5, Velocity: 51
Note ON: Time 103200, Note Name: G5, Velocity: 51
Note OFF: Time 103440, Note Name: G5
Note OFF: Time 103440, Note Name: A#5
Note ON: Time 103440, Note Name: D#6, Velocity: 48
Note ON: Time 103440, Note Name: A#5, Velocity: 48
Note OFF: Time 103680, Note Name: A#5
Note OFF: Time 103680, Note Name: D#6
Note ON: Time 103920, Note Name: D#5, Velocity: 56
Note ON: Time 103920, Note Name: B5, Velocity: 56
Note OFF: Time 104040, Note Name: B5
Note OFF: Time 104040, Note Name: D#5
Note ON: Time 104160, Note Name: B5, Velocity: 51
Note ON: Time 104160, Note Name: D#5, Velocity: 51
Note OFF: Time 104400, Note Name: D#5
Note OFF: Time 104400, Note Name: B5
Note ON: Time 104400, Note Name: G#5, Velocity: 51
Note ON: Time 104400, Note Name: D#6, Velocity: 51
Note OFF: Time 104640, Note Name: D#6
Note OFF: Time 104640, Note Name: G#5
Note ON: Time 104880, Note Name: A5, Velocity: 62
Note ON: Time 104880, Note Name: C#5, Velocity: 62
Note OFF: Time 105000, Note Name: C#5
Note OFF: Time 105000, Note Name: A5
Note ON: Time 105120, Note Name: A5, Velocity: 56
Note ON: Time 105120, Note Name: C#5, Velocity: 56
Note OFF: Time 105360, Note Name: C#5
Note OFF: Time 105360, Note Name: A5
Note ON: Time 105360, Note Name: E5, Velocity: 56
Note ON: Time 105360, Note Name: C#6, Velocity: 56
Note OFF: Time 105600, Note Name: C#6
Note OFF: Time 105600, Note Name: E5
Note ON: Time 105840, Note Name: G#5, Velocity: 57
Note ON: Time 105840, Note Name: B4, Velocity: 57
Note OFF: Time 105960, Note Name: B4
Note OFF: Time 105960, Note Name: G#5
Note ON: Time 106080, Note Name: G#5, Velocity: 57
Note ON: Time 106080, Note Name: B4, Velocity: 57
Note OFF: Time 106320, Note Name: B4
Note OFF: Time 106320, Note Name: G#5
Note ON: Time 106320, Note Name: D#5, Velocity: 51
Note ON: Time 106320, Note Name: B5, Velocity: 51
Note OFF: Time 106560, Note Name: B5
Note OFF: Time 106560, Note Name: D#5
Note ON: Time 106800, Note Name: G5, Velocity: 52
Note ON: Time 106800, Note Name: A#4, Velocity: 52
Note OFF: Time 106920, Note Name: A#4
Note OFF: Time 106920, Note Name: G5
Note ON: Time 107040, Note Name: A#4, Velocity: 51
Note ON: Time 107040, Note Name: G5, Velocity: 51
Note OFF: Time 107280, Note Name: G5
Note OFF: Time 107280, Note Name: A#4
Note ON: Time 107280, Note Name: C#5, Velocity: 42
Note ON: Time 107280, Note Name: A#5, Velocity: 42
Note OFF: Time 107520, Note Name: A#5
Note OFF: Time 107520, Note Name: C#5
Note ON: Time 107520, Note Name: G#5, Velocity: 50
Note ON: Time 107520, Note Name: B4, Velocity: 50
Note OFF: Time 108000, Note Name: B4
Note OFF: Time 108000, Note Name: G#5
Note ON: Time 108960, Note Name: B4, Velocity: 50
Note OFF: Time 109320, Note Name: B4
Note ON: Time 109320, Note Name: G#4, Velocity: 50
Note OFF: Time 109440, Note Name: G#4
Note ON: Time 109440, Note Name: G4, Velocity: 57
Note OFF: Time 109920, Note Name: G4
Note ON: Time 109920, Note Name: D#5, Velocity: 47
Note ON: Time 109920, Note Name: C#4, Velocity: 39
Note ON: Time 109920, Note Name: G4, Velocity: 47
Note OFF: Time 110280, Note Name: G4
Note OFF: Time 110280, Note Name: C#4
Note OFF: Time 110280, Note Name: D#5
Note ON: Time 110400, Note Name: G4, Velocity: 47
Note ON: Time 110400, Note Name: D#5, Velocity: 47
Note ON: Time 110400, Note Name: C#4, Velocity: 39
Note OFF: Time 110760, Note Name: C#4
Note OFF: Time 110760, Note Name: D#5
Note OFF: Time 110760, Note Name: G4
Note ON: Time 110880, Note Name: G4, Velocity: 50
Note ON: Time 110880, Note Name: D#5, Velocity: 50
Note ON: Time 110880, Note Name: C#4, Velocity: 42
Note OFF: Time 111240, Note Name: C#4
Note OFF: Time 111240, Note Name: D#5
Note OFF: Time 111240, Note Name: G4
Note ON: Time 111240, Note Name: B3, Velocity: 50
Note ON: Time 111300, Note Name: G#4, Velocity: 50
Note OFF: Time 111320, Note Name: B3
Note ON: Time 111360, Note Name: D#5, Velocity: 57
Note OFF: Time 111380, Note Name: G#4
Note OFF: Time 112800, Note Name: D#5
Note ON: Time 112800, Note Name: B5, Velocity: 58
Note OFF: Time 113160, Note Name: B5
Note ON: Time 113160, Note Name: G#5, Velocity: 58
Note OFF: Time 113280, Note Name: G#5
Note ON: Time 113280, Note Name: G5, Velocity: 67
Note OFF: Time 113760, Note Name: G5
Note ON: Time 113760, Note Name: D#6, Velocity: 57
Note ON: Time 113760, Note Name: C#5, Velocity: 48
Note ON: Time 113760, Note Name: G5, Velocity: 57
Note OFF: Time 114120, Note Name: G5
Note OFF: Time 114120, Note Name: C#5
Note OFF: Time 114120, Note Name: D#6
Note ON: Time 114240, Note Name: C#5, Velocity: 48
Note ON: Time 114240, Note Name: D#6, Velocity: 57
Note ON: Time 114240, Note Name: G5, Velocity: 57
Note OFF: Time 114600, Note Name: G5
Note OFF: Time 114600, Note Name: D#6
Note OFF: Time 114600, Note Name: C#5
Note ON: Time 114720, Note Name: G5, Velocity: 57
Note ON: Time 114720, Note Name: C#5, Velocity: 48
Note ON: Time 114720, Note Name: D#6, Velocity: 57
Note OFF: Time 115080, Note Name: D#6
Note OFF: Time 115080, Note Name: C#5
Note OFF: Time 115080, Note Name: G5
Note ON: Time 115080, Note Name: B4, Velocity: 47
Note ON: Time 115140, Note Name: G#5, Velocity: 53
Note OFF: Time 115160, Note Name: B4
Note ON: Time 115200, Note Name: D#6, Velocity: 73
Note OFF: Time 115220, Note Name: G#5
Note OFF: Time 116040, Note Name: D#6
Note ON: Time 116040, Note Name: C#5, Velocity: 43
Note ON: Time 116100, Note Name: G5, Velocity: 53
Note OFF: Time 116120, Note Name: C#5
Note ON: Time 116160, Note Name: D#6, Velocity: 72
Note OFF: Time 116180, Note Name: G5
Note OFF: Time 117000, Note Name: D#6
Note ON: Time 117000, Note Name: B4, Velocity: 40
Note ON: Time 117060, Note Name: G#5, Velocity: 53
Note OFF: Time 117080, Note Name: B4
Note ON: Time 117120, Note Name: D#6, Velocity: 72
Note OFF: Time 117140, Note Name: G#5
Note OFF: Time 117960, Note Name: D#6
Note ON: Time 117960, Note Name: C#5, Velocity: 45
Note ON: Time 118020, Note Name: G5, Velocity: 52
Note OFF: Time 118040, Note Name: C#5
Note ON: Time 118080, Note Name: D#6, Velocity: 71
Note OFF: Time 118100, Note Name: G5
Note OFF: Time 119040, Note Name: D#6
Note ON: Time 119040, Note Name: B3, Velocity: 49
Note OFF: Time 119159, Note Name: B3
Note ON: Time 119160, Note Name: G#4, Velocity: 50
Note OFF: Time 119279, Note Name: G#4
Note ON: Time 119280, Note Name: D#4, Velocity: 51
Note OFF: Time 119399, Note Name: D#4
Note ON: Time 119400, Note Name: G#4, Velocity: 48
Note OFF: Time 119519, Note Name: G#4
Note ON: Time 119520, Note Name: B3, Velocity: 52
Note OFF: Time 119639, Note Name: B3
Note ON: Time 119640, Note Name: G#4, Velocity: 53
Note OFF: Time 119759, Note Name: G#4
Note ON: Time 119760, Note Name: D#4, Velocity: 54
Note OFF: Time 119879, Note Name: D#4
Note ON: Time 119880, Note Name: G#4, Velocity: 51
Note OFF: Time 119999, Note Name: G#4
Note ON: Time 120000, Note Name: B3, Velocity: 57
Note OFF: Time 120119, Note Name: B3
Note ON: Time 120120, Note Name: G#4, Velocity: 57
Note OFF: Time 120239, Note Name: G#4
Note ON: Time 120240, Note Name: D#4, Velocity: 58
Note OFF: Time 120359, Note Name: D#4
Note ON: Time 120360, Note Name: G#4, Velocity: 52
Note OFF: Time 120479, Note Name: G#4
Note ON: Time 120480, Note Name: B3, Velocity: 61
Note OFF: Time 120599, Note Name: B3
Note ON: Time 120600, Note Name: G#4, Velocity: 62
Note OFF: Time 120719, Note Name: G#4
Note ON: Time 120720, Note Name: D#4, Velocity: 62
Note OFF: Time 120839, Note Name: D#4
Note ON: Time 120840, Note Name: G#4, Velocity: 57
Note OFF: Time 120959, Note Name: G#4
Note ON: Time 120960, Note Name: C4, Velocity: 66
Note OFF: Time 121079, Note Name: C4
Note ON: Time 121080, Note Name: F#4, Velocity: 67
Note OFF: Time 121199, Note Name: F#4
Note ON: Time 121200, Note Name: D#4, Velocity: 68
Note OFF: Time 121319, Note Name: D#4
Note ON: Time 121320, Note Name: F#4, Velocity: 62
Note OFF: Time 121439, Note Name: F#4
Note ON: Time 121440, Note Name: C4, Velocity: 69
Note OFF: Time 121559, Note Name: C4
Note ON: Time 121560, Note Name: F#4, Velocity: 70
Note OFF: Time 121679, Note Name: F#4
Note ON: Time 121680, Note Name: D#4, Velocity: 71
Note OFF: Time 121799, Note Name: D#4
Note ON: Time 121800, Note Name: F#4, Velocity: 68
Note OFF: Time 121919, Note Name: F#4
Note ON: Time 121920, Note Name: C4, Velocity: 73
Note OFF: Time 122039, Note Name: C4
Note ON: Time 122040, Note Name: F#4, Velocity: 74
Note OFF: Time 122159, Note Name: F#4
Note ON: Time 122160, Note Name: D#4, Velocity: 75
Note OFF: Time 122279, Note Name: D#4
Note ON: Time 122280, Note Name: F#4, Velocity: 76
Note OFF: Time 122399, Note Name: F#4
Note ON: Time 122400, Note Name: C4, Velocity: 78
Note OFF: Time 122519, Note Name: C4
Note ON: Time 122520, Note Name: F#4, Velocity: 79
Note OFF: Time 122639, Note Name: F#4
Note ON: Time 122640, Note Name: D#4, Velocity: 79
Note OFF: Time 122759, Note Name: D#4
Note ON: Time 122760, Note Name: F#4, Velocity: 73
Note OFF: Time 122879, Note Name: F#4
Note ON: Time 122880, Note Name: E3, Velocity: 69
Note ON: Time 122880, Note Name: G#3, Velocity: 69
Note ON: Time 122880, Note Name: C#4, Velocity: 82
Note ON: Time 122880, Note Name: E4, Velocity: 82
Note OFF: Time 123000, Note Name: E4
Note OFF: Time 123000, Note Name: E3
Note OFF: Time 123000, Note Name: G#3
Note OFF: Time 123000, Note Name: C#4
Note ON: Time 123000, Note Name: G#2, Velocity: 54
Note OFF: Time 123115, Note Name: G#2
Note ON: Time 123120, Note Name: C#3, Velocity: 56
Note ON: Time 123240, Note Name: E3, Velocity: 57
Note OFF: Time 123260, Note Name: C#3
Note ON: Time 123360, Note Name: G#3, Velocity: 59
Note OFF: Time 123380, Note Name: E3
Note ON: Time 123480, Note Name: C#3, Velocity: 54
Note OFF: Time 123500, Note Name: G#3
Note ON: Time 123600, Note Name: E3, Velocity: 56
Note OFF: Time 123620, Note Name: C#3
Note ON: Time 123720, Note Name: G#3, Velocity: 56
Note OFF: Time 123740, Note Name: E3
Note ON: Time 123840, Note Name: C#4, Velocity: 57
Note OFF: Time 123860, Note Name: G#3
Note ON: Time 123960, Note Name: E3, Velocity: 51
Note OFF: Time 123980, Note Name: C#4
Note ON: Time 124080, Note Name: G#3, Velocity: 53
Note OFF: Time 124100, Note Name: E3
Note ON: Time 124200, Note Name: C#4, Velocity: 54
Note OFF: Time 124220, Note Name: G#3
Note ON: Time 124320, Note Name: E4, Velocity: 56
Note OFF: Time 124340, Note Name: C#4
Note ON: Time 124440, Note Name: G#3, Velocity: 52
Note OFF: Time 124460, Note Name: E4
Note ON: Time 124560, Note Name: C#4, Velocity: 53
Note OFF: Time 124580, Note Name: G#3
Note ON: Time 124680, Note Name: E4, Velocity: 56
Note OFF: Time 124700, Note Name: C#4
Note ON: Time 124800, Note Name: G#4, Velocity: 57
Note OFF: Time 124820, Note Name: E4
Note ON: Time 124920, Note Name: C#4, Velocity: 52
Note OFF: Time 124940, Note Name: G#4
Note ON: Time 125040, Note Name: E4, Velocity: 53
Note OFF: Time 125060, Note Name: C#4
Note ON: Time 125160, Note Name: G#4, Velocity: 56
Note OFF: Time 125180, Note Name: E4
Note ON: Time 125280, Note Name: C#5, Velocity: 57
Note OFF: Time 125300, Note Name: G#4
Note ON: Time 125400, Note Name: E4, Velocity: 52
Note OFF: Time 125420, Note Name: C#5
Note ON: Time 125520, Note Name: G#4, Velocity: 53
Note OFF: Time 125540, Note Name: E4
Note ON: Time 125640, Note Name: C#5, Velocity: 56
Note OFF: Time 125660, Note Name: G#4
Note ON: Time 125760, Note Name: E5, Velocity: 56
Note OFF: Time 125780, Note Name: C#5
Note ON: Time 125880, Note Name: G#4, Velocity: 52
Note OFF: Time 125900, Note Name: E5
Note ON: Time 126000, Note Name: C#5, Velocity: 56
Note OFF: Time 126020, Note Name: G#4
Note ON: Time 126120, Note Name: E5, Velocity: 57
Note OFF: Time 126140, Note Name: C#5
Note OFF: Time 126240, Note Name: E5
Note ON: Time 126240, Note Name: E5, Velocity: 94
Note ON: Time 126240, Note Name: G#5, Velocity: 94
Note ON: Time 126240, Note Name: C#5, Velocity: 79
Note ON: Time 126240, Note Name: G#4, Velocity: 79
Note OFF: Time 126360, Note Name: G#4
Note OFF: Time 126360, Note Name: E5
Note OFF: Time 126360, Note Name: G#5
Note OFF: Time 126360, Note Name: C#5
Note ON: Time 126480, Note Name: G#4, Velocity: 67
Note ON: Time 126480, Note Name: G#5, Velocity: 79
Note ON: Time 126480, Note Name: C#5, Velocity: 67
Note ON: Time 126480, Note Name: E5, Velocity: 79
Note OFF: Time 126600, Note Name: E5
Note OFF: Time 126600, Note Name: G#4
Note OFF: Time 126600, Note Name: G#5
Note OFF: Time 126600, Note Name: C#5
Note ON: Time 126840, Note Name: G#2, Velocity: 48
Note OFF: Time 126955, Note Name: G#2
Note ON: Time 126960, Note Name: C3, Velocity: 50
Note ON: Time 127080, Note Name: D#3, Velocity: 51
Note OFF: Time 127100, Note Name: C3
Note ON: Time 127200, Note Name: G#3, Velocity: 52
Note OFF: Time 127220, Note Name: D#3
Note ON: Time 127320, Note Name: C3, Velocity: 48
Note OFF: Time 127340, Note Name: G#3
Note ON: Time 127440, Note Name: D#3, Velocity: 49
Note OFF: Time 127460, Note Name: C3
Note ON: Time 127560, Note Name: G#3, Velocity: 51
Note OFF: Time 127580, Note Name: D#3
Note ON: Time 127680, Note Name: C4, Velocity: 53
Note OFF: Time 127700, Note Name: G#3
Note ON: Time 127800, Note Name: D#3, Velocity: 47
Note OFF: Time 127820, Note Name: C4
Note ON: Time 127920, Note Name: G#3, Velocity: 49
Note OFF: Time 127940, Note Name: D#3
Note ON: Time 128040, Note Name: C4, Velocity: 51
Note OFF: Time 128060, Note Name: G#3
Note ON: Time 128160, Note Name: D#4, Velocity: 51
Note OFF: Time 128180, Note Name: C4
Note ON: Time 128280, Note Name: G#3, Velocity: 48
Note OFF: Time 128300, Note Name: D#4
Note ON: Time 128400, Note Name: C4, Velocity: 51
Note OFF: Time 128420, Note Name: G#3
Note ON: Time 128520, Note Name: D#4, Velocity: 52
Note OFF: Time 128540, Note Name: C4
Note ON: Time 128640, Note Name: G#4, Velocity: 53
Note OFF: Time 128660, Note Name: D#4
Note ON: Time 128760, Note Name: C4, Velocity: 48
Note OFF: Time 128780, Note Name: G#4
Note ON: Time 128880, Note Name: D#4, Velocity: 49
Note OFF: Time 128900, Note Name: C4
Note ON: Time 129000, Note Name: G#4, Velocity: 51
Note OFF: Time 129020, Note Name: D#4
Note ON: Time 129120, Note Name: C5, Velocity: 51
Note OFF: Time 129140, Note Name: G#4
Note ON: Time 129240, Note Name: D#4, Velocity: 48
Note OFF: Time 129260, Note Name: C5
Note ON: Time 129360, Note Name: G#4, Velocity: 50
Note OFF: Time 129380, Note Name: D#4
Note ON: Time 129480, Note Name: C5, Velocity: 51
Note OFF: Time 129500, Note Name: G#4
Note ON: Time 129600, Note Name: D#5, Velocity: 52
Note OFF: Time 129620, Note Name: C5
Note ON: Time 129720, Note Name: G#4, Velocity: 51
Note OFF: Time 129740, Note Name: D#5
Note ON: Time 129840, Note Name: C5, Velocity: 52
Note OFF: Time 129860, Note Name: G#4
Note ON: Time 129960, Note Name: D#5, Velocity: 56
Note OFF: Time 129980, Note Name: C5
Note OFF: Time 130080, Note Name: D#5
Note ON: Time 130080, Note Name: G#4, Velocity: 79
Note ON: Time 130080, Note Name: C5, Velocity: 79
Note ON: Time 130080, Note Name: D#5, Velocity: 94
Note ON: Time 130080, Note Name: G#5, Velocity: 94
Note OFF: Time 130200, Note Name: G#5
Note OFF: Time 130200, Note Name: G#4
Note OFF: Time 130200, Note Name: C5
Note OFF: Time 130200, Note Name: D#5
Note ON: Time 130320, Note Name: G#4, Velocity: 66
Note ON: Time 130320, Note Name: C5, Velocity: 66
Note ON: Time 130320, Note Name: D#5, Velocity: 78
Note ON: Time 130320, Note Name: G#5, Velocity: 78
Note OFF: Time 130440, Note Name: G#5
Note OFF: Time 130440, Note Name: G#4
Note OFF: Time 130440, Note Name: C5
Note OFF: Time 130440, Note Name: D#5
Note ON: Time 130680, Note Name: C#3, Velocity: 63
Note ON: Time 130800, Note Name: F3, Velocity: 66
Note OFF: Time 130820, Note Name: C#3
Note ON: Time 130920, Note Name: G#3, Velocity: 63
Note OFF: Time 130940, Note Name: F3
Note ON: Time 131040, Note Name: C#4, Velocity: 68
Note OFF: Time 131060, Note Name: G#3
Note ON: Time 131160, Note Name: F3, Velocity: 62
Note OFF: Time 131180, Note Name: C#4
Note ON: Time 131280, Note Name: G#3, Velocity: 63
Note OFF: Time 131300, Note Name: F3
Note ON: Time 131400, Note Name: C#4, Velocity: 62
Note OFF: Time 131420, Note Name: G#3
Note ON: Time 131520, Note Name: F4, Velocity: 68
Note OFF: Time 131540, Note Name: C#4
Note ON: Time 131640, Note Name: G#3, Velocity: 62
Note OFF: Time 131660, Note Name: F4
Note ON: Time 131760, Note Name: C#4, Velocity: 63
Note OFF: Time 131780, Note Name: G#3
Note ON: Time 131880, Note Name: F4, Velocity: 65
Note OFF: Time 131900, Note Name: C#4
Note ON: Time 132000, Note Name: G#4, Velocity: 68
Note OFF: Time 132020, Note Name: F4
Note ON: Time 132120, Note Name: C#4, Velocity: 62
Note OFF: Time 132140, Note Name: G#4
Note ON: Time 132240, Note Name: F4, Velocity: 65
Note OFF: Time 132260, Note Name: C#4
Note ON: Time 132360, Note Name: G#4, Velocity: 62
Note OFF: Time 132380, Note Name: F4
Note ON: Time 132480, Note Name: C#5, Velocity: 68
Note OFF: Time 132500, Note Name: G#4
Note ON: Time 132600, Note Name: F4, Velocity: 61
Note OFF: Time 132620, Note Name: C#5
Note ON: Time 132720, Note Name: G#4, Velocity: 62
Note OFF: Time 132740, Note Name: F4
Note ON: Time 132840, Note Name: C#5, Velocity: 62
Note OFF: Time 132860, Note Name: G#4
Note ON: Time 132960, Note Name: F5, Velocity: 68
Note OFF: Time 132980, Note Name: C#5
Note ON: Time 133080, Note Name: G#4, Velocity: 63
Note OFF: Time 133100, Note Name: F5
Note ON: Time 133200, Note Name: C#5, Velocity: 66
Note OFF: Time 133220, Note Name: G#4
Note ON: Time 133320, Note Name: F5, Velocity: 65
Note OFF: Time 133340, Note Name: C#5
Note ON: Time 133440, Note Name: G#5, Velocity: 69
Note OFF: Time 133460, Note Name: F5
Note ON: Time 133560, Note Name: C#5, Velocity: 63
Note OFF: Time 133580, Note Name: G#5
Note ON: Time 133680, Note Name: F5, Velocity: 68
Note OFF: Time 133700, Note Name: C#5
Note ON: Time 133800, Note Name: G#5, Velocity: 68
Note OFF: Time 133820, Note Name: F5
Note OFF: Time 133920, Note Name: G#5
Note ON: Time 133920, Note Name: F5, Velocity: 87
Note ON: Time 133920, Note Name: G#5, Velocity: 103
Note ON: Time 133920, Note Name: C#5, Velocity: 87
Note ON: Time 133920, Note Name: C#6, Velocity: 103
Note OFF: Time 134040, Note Name: C#6
Note OFF: Time 134040, Note Name: F5
Note OFF: Time 134040, Note Name: G#5
Note OFF: Time 134040, Note Name: C#5
Note ON: Time 134160, Note Name: F5, Velocity: 77
Note ON: Time 134160, Note Name: C#5, Velocity: 77
Note ON: Time 134160, Note Name: G#5, Velocity: 90
Note ON: Time 134160, Note Name: C#6, Velocity: 90
Note OFF: Time 134280, Note Name: C#6
Note OFF: Time 134280, Note Name: F5
Note OFF: Time 134280, Note Name: C#5
Note OFF: Time 134280, Note Name: G#5
Note ON: Time 134520, Note Name: C#3, Velocity: 61
Note ON: Time 134640, Note Name: F#3, Velocity: 63
Note OFF: Time 134660, Note Name: C#3
Note ON: Time 134760, Note Name: A3, Velocity: 62
Note OFF: Time 134780, Note Name: F#3
Note ON: Time 134880, Note Name: C#4, Velocity: 69
Note OFF: Time 134900, Note Name: A3
Note OFF: Time 134940, Note Name: C#4
Note ON: Time 135000, Note Name: C#4, Velocity: 72
Note ON: Time 135120, Note Name: F#4, Velocity: 76
Note OFF: Time 135140, Note Name: C#4
Note ON: Time 135240, Note Name: A4, Velocity: 76
Note OFF: Time 135260, Note Name: F#4
Note ON: Time 135360, Note Name: C#5, Velocity: 79
Note OFF: Time 135380, Note Name: A4
Note OFF: Time 135420, Note Name: C#5
Note ON: Time 135480, Note Name: C#5, Velocity: 83
Note ON: Time 135600, Note Name: F#5, Velocity: 84
Note OFF: Time 135620, Note Name: C#5
Note ON: Time 135720, Note Name: A5, Velocity: 80
Note OFF: Time 135740, Note Name: F#5
Note ON: Time 135840, Note Name: F#5, Velocity: 102
Note ON: Time 135840, Note Name: C#5, Velocity: 86
Note ON: Time 135840, Note Name: C#6, Velocity: 102
Note OFF: Time 135860, Note Name: A5
Note OFF: Time 135960, Note Name: F#5
Note OFF: Time 135960, Note Name: C#5
Note OFF: Time 135960, Note Name: C#6
Note ON: Time 136080, Note Name: C#5, Velocity: 85
Note ON: Time 136080, Note Name: F#5, Velocity: 101
Note ON: Time 136080, Note Name: C#6, Velocity: 101
Note OFF: Time 136200, Note Name: C#6
Note OFF: Time 136200, Note Name: F#5
Note OFF: Time 136200, Note Name: C#5
Note ON: Time 136440, Note Name: C#3, Velocity: 75
Note ON: Time 136560, Note Name: E3, Velocity: 77
Note OFF: Time 136580, Note Name: C#3
Note ON: Time 136680, Note Name: G3, Velocity: 75
Note OFF: Time 136700, Note Name: E3
Note ON: Time 136800, Note Name: C#4, Velocity: 80
Note OFF: Time 136820, Note Name: G3
Note OFF: Time 136860, Note Name: C#4
Note ON: Time 136920, Note Name: C#4, Velocity: 76
Note ON: Time 137040, Note Name: E4, Velocity: 79
Note OFF: Time 137060, Note Name: C#4
Note ON: Time 137160, Note Name: G4, Velocity: 77
Note OFF: Time 137180, Note Name: E4
Note ON: Time 137280, Note Name: C#5, Velocity: 81
Note OFF: Time 137300, Note Name: G4
Note OFF: Time 137340, Note Name: C#5
Note ON: Time 137400, Note Name: C#5, Velocity: 79
Note ON: Time 137520, Note Name: E5, Velocity: 80
Note OFF: Time 137540, Note Name: C#5
Note ON: Time 137640, Note Name: G5, Velocity: 80
Note OFF: Time 137660, Note Name: E5
Note OFF: Time 137760, Note Name: G5
Note ON: Time 137760, Note Name: G5, Velocity: 108
Note ON: Time 137760, Note Name: C#5, Velocity: 90
Note ON: Time 137760, Note Name: C#6, Velocity: 108
Note OFF: Time 137880, Note Name: C#6
Note OFF: Time 137880, Note Name: C#5
Note OFF: Time 137880, Note Name: G5
Note ON: Time 138000, Note Name: C#6, Velocity: 108
Note ON: Time 138000, Note Name: C#5, Velocity: 90
Note ON: Time 138000, Note Name: G5, Velocity: 108
Note OFF: Time 138120, Note Name: G5
Note OFF: Time 138120, Note Name: C#5
Note OFF: Time 138120, Note Name: C#6
Note ON: Time 138240, Note Name: C6, Velocity: 108
Note ON: Time 138240, Note Name: G#5, Velocity: 108
Note ON: Time 138240, Note Name: C5, Velocity: 90
Note OFF: Time 138480, Note Name: C5
Note OFF: Time 138480, Note Name: G#5
Note OFF: Time 138480, Note Name: C6
Note ON: Time 138480, Note Name: G#4, Velocity: 74
Note OFF: Time 138600, Note Name: G#4
Note ON: Time 138600, Note Name: G#5, Velocity: 58
Note OFF: Time 138720, Note Name: G#5
Note ON: Time 138720, Note Name: G#4, Velocity: 75
Note OFF: Time 138840, Note Name: G#4
Note ON: Time 138840, Note Name: G#5, Velocity: 60
Note OFF: Time 138960, Note Name: G#5
Note ON: Time 138960, Note Name: A#4, Velocity: 76
Note OFF: Time 139080, Note Name: A#4
Note ON: Time 139080, Note Name: G#5, Velocity: 60
Note OFF: Time 139200, Note Name: G#5
Note ON: Time 139200, Note Name: C5, Velocity: 76
Note OFF: Time 139320, Note Name: C5
Note ON: Time 139320, Note Name: G#5, Velocity: 61
Note OFF: Time 139440, Note Name: G#5
Note ON: Time 139440, Note Name: C#5, Velocity: 78
Note OFF: Time 139560, Note Name: C#5
Note ON: Time 139560, Note Name: G#5, Velocity: 62
Note OFF: Time 139680, Note Name: G#5
Note ON: Time 139680, Note Name: D#5, Velocity: 79
Note OFF: Time 139800, Note Name: D#5
Note ON: Time 139800, Note Name: G#5, Velocity: 62
Note OFF: Time 139920, Note Name: G#5
Note ON: Time 139920, Note Name: C5, Velocity: 79
Note OFF: Time 140040, Note Name: C5
Note ON: Time 140040, Note Name: G#5, Velocity: 62
Note OFF: Time 140160, Note Name: G#5
Note ON: Time 140160, Note Name: D#5, Velocity: 80
Note OFF: Time 140280, Note Name: D#5
Note ON: Time 140280, Note Name: G#5, Velocity: 62
Note OFF: Time 140400, Note Name: G#5
Note ON: Time 140400, Note Name: C#5, Velocity: 80
Note OFF: Time 140520, Note Name: C#5
Note ON: Time 140520, Note Name: G#5, Velocity: 62
Note OFF: Time 140640, Note Name: G#5
Note ON: Time 140640, Note Name: F#5, Velocity: 84
Note OFF: Time 140760, Note Name: F#5
Note ON: Time 140760, Note Name: G#5, Velocity: 62
Note OFF: Time 140880, Note Name: G#5
Note ON: Time 140880, Note Name: E5, Velocity: 80
Note OFF: Time 141000, Note Name: E5
Note ON: Time 141000, Note Name: G#5, Velocity: 62
Note OFF: Time 141120, Note Name: G#5
Note ON: Time 141120, Note Name: D#5, Velocity: 80
Note OFF: Time 141240, Note Name: D#5
Note ON: Time 141240, Note Name: G#5, Velocity: 62
Note OFF: Time 141360, Note Name: G#5
Note ON: Time 141360, Note Name: C#5, Velocity: 79
Note OFF: Time 141480, Note Name: C#5
Note ON: Time 141480, Note Name: G#5, Velocity: 62
Note OFF: Time 141600, Note Name: G#5
Note ON: Time 141600, Note Name: C5, Velocity: 79
Note OFF: Time 141720, Note Name: C5
Note ON: Time 141720, Note Name: G#5, Velocity: 62
Note OFF: Time 141840, Note Name: G#5
Note ON: Time 141840, Note Name: A4, Velocity: 77
Note OFF: Time 141960, Note Name: A4
Note ON: Time 141960, Note Name: G5, Velocity: 61
Note OFF: Time 142080, Note Name: G5
Note ON: Time 142080, Note Name: G#4, Velocity: 76
Note OFF: Time 142200, Note Name: G#4
Note ON: Time 142200, Note Name: G#5, Velocity: 60
Note OFF: Time 142320, Note Name: G#5
Note ON: Time 142320, Note Name: G#4, Velocity: 75
Note OFF: Time 142440, Note Name: G#4
Note ON: Time 142440, Note Name: G#5, Velocity: 59
Note OFF: Time 142560, Note Name: G#5
Note ON: Time 142560, Note Name: G#4, Velocity: 74
Note OFF: Time 142680, Note Name: G#4
Note ON: Time 142680, Note Name: G#5, Velocity: 59
Note OFF: Time 142800, Note Name: G#5
Note ON: Time 142800, Note Name: A#4, Velocity: 74
Note OFF: Time 142920, Note Name: A#4
Note ON: Time 142920, Note Name: G#5, Velocity: 61
Note OFF: Time 143040, Note Name: G#5
Note ON: Time 143040, Note Name: C5, Velocity: 76
Note OFF: Time 143160, Note Name: C5
Note ON: Time 143160, Note Name: G#5, Velocity: 59
Note OFF: Time 143280, Note Name: G#5
Note ON: Time 143280, Note Name: C#5, Velocity: 76
Note OFF: Time 143400, Note Name: C#5
Note ON: Time 143400, Note Name: G#5, Velocity: 62
Note OFF: Time 143520, Note Name: G#5
Note ON: Time 143520, Note Name: D#5, Velocity: 77
Note OFF: Time 143640, Note Name: D#5
Note ON: Time 143640, Note Name: G#5, Velocity: 61
Note OFF: Time 143760, Note Name: G#5
Note ON: Time 143760, Note Name: C5, Velocity: 79
Note OFF: Time 143880, Note Name: C5
Note ON: Time 143880, Note Name: G#5, Velocity: 62
Note OFF: Time 144000, Note Name: G#5
Note ON: Time 144000, Note Name: D#5, Velocity: 79
Note OFF: Time 144120, Note Name: D#5
Note ON: Time 144120, Note Name: G#5, Velocity: 62
Note OFF: Time 144240, Note Name: G#5
Note ON: Time 144240, Note Name: C#5, Velocity: 80
Note OFF: Time 144360, Note Name: C#5
Note ON: Time 144360, Note Name: G#5, Velocity: 65
Note OFF: Time 144480, Note Name: G#5
Note ON: Time 144480, Note Name: F#5, Velocity: 84
Note OFF: Time 144600, Note Name: F#5
Note ON: Time 144600, Note Name: G#5, Velocity: 68
Note OFF: Time 144720, Note Name: G#5
Note ON: Time 144720, Note Name: E5, Velocity: 84
Note OFF: Time 144840, Note Name: E5
Note ON: Time 144840, Note Name: G#5, Velocity: 67
Note OFF: Time 144960, Note Name: G#5
Note ON: Time 144960, Note Name: D#5, Velocity: 84
Note OFF: Time 145080, Note Name: D#5
Note ON: Time 145080, Note Name: G#5, Velocity: 67
Note OFF: Time 145200, Note Name: G#5
Note ON: Time 145200, Note Name: C#5, Velocity: 84
Note OFF: Time 145320, Note Name: C#5
Note ON: Time 145320, Note Name: G#5, Velocity: 66
Note OFF: Time 145440, Note Name: G#5
Note ON: Time 145440, Note Name: C5, Velocity: 84
Note OFF: Time 145560, Note Name: C5
Note ON: Time 145560, Note Name: G#5, Velocity: 67
Note OFF: Time 145680, Note Name: G#5
Note ON: Time 145680, Note Name: A4, Velocity: 84
Note OFF: Time 145800, Note Name: A4
Note ON: Time 145800, Note Name: G5, Velocity: 66
Note OFF: Time 145920, Note Name: G5
Note ON: Time 145920, Note Name: G#4, Velocity: 84
Note OFF: Time 146040, Note Name: G#4
Note ON: Time 146040, Note Name: G#5, Velocity: 66
Note OFF: Time 146160, Note Name: G#5
Note ON: Time 146160, Note Name: A4, Velocity: 79
Note OFF: Time 146280, Note Name: A4
Note ON: Time 146280, Note Name: G5, Velocity: 67
Note OFF: Time 146400, Note Name: G5
Note ON: Time 146400, Note Name: G#4, Velocity: 84
Note OFF: Time 146520, Note Name: G#4
Note ON: Time 146520, Note Name: G#5, Velocity: 66
Note OFF: Time 146640, Note Name: G#5
Note ON: Time 146640, Note Name: A4, Velocity: 79
Note OFF: Time 146760, Note Name: A4
Note ON: Time 146760, Note Name: G5, Velocity: 67
Note OFF: Time 146880, Note Name: G5
Note ON: Time 146880, Note Name: G#4, Velocity: 84
Note OFF: Time 147000, Note Name: G#4
Note ON: Time 147000, Note Name: G#5, Velocity: 66
Note OFF: Time 147120, Note Name: G#5
Note ON: Time 147120, Note Name: A4, Velocity: 79
Note OFF: Time 147240, Note Name: A4
Note ON: Time 147240, Note Name: G5, Velocity: 65
Note OFF: Time 147360, Note Name: G5
Note ON: Time 147360, Note Name: G#4, Velocity: 84
Note OFF: Time 147480, Note Name: G#4
Note ON: Time 147480, Note Name: G#5, Velocity: 66
Note OFF: Time 147600, Note Name: G#5
Note ON: Time 147600, Note Name: A4, Velocity: 79
Note OFF: Time 147720, Note Name: A4
Note ON: Time 147720, Note Name: G5, Velocity: 65
Note OFF: Time 147840, Note Name: G5
Note ON: Time 147840, Note Name: G#4, Velocity: 84
Note ON: Time 147840, Note Name: G#5, Velocity: 84
Note OFF: Time 148080, Note Name: G#5
Note OFF: Time 148080, Note Name: G#4
Note ON: Time 148320, Note Name: G#3, Velocity: 113
Note OFF: Time 149760, Note Name: G#3
Note ON: Time 149880, Note Name: G#2, Velocity: 47
Note OFF: Time 149995, Note Name: G#2
Note ON: Time 150000, Note Name: C#3, Velocity: 49
Note ON: Time 150120, Note Name: E3, Velocity: 51
Note OFF: Time 150140, Note Name: C#3
Note ON: Time 150240, Note Name: G#3, Velocity: 52
Note OFF: Time 150260, Note Name: E3
Note ON: Time 150360, Note Name: C#3, Velocity: 47
Note OFF: Time 150380, Note Name: G#3
Note ON: Time 150480, Note Name: E3, Velocity: 49
Note OFF: Time 150500, Note Name: C#3
Note ON: Time 150600, Note Name: G#3, Velocity: 51
Note OFF: Time 150620, Note Name: E3
Note ON: Time 150720, Note Name: C#4, Velocity: 52
Note OFF: Time 150740, Note Name: G#3
Note ON: Time 150840, Note Name: E3, Velocity: 47
Note OFF: Time 150860, Note Name: C#4
Note ON: Time 150960, Note Name: G#3, Velocity: 49
Note OFF: Time 150980, Note Name: E3
Note ON: Time 151080, Note Name: C#4, Velocity: 51
Note OFF: Time 151100, Note Name: G#3
Note ON: Time 151200, Note Name: E4, Velocity: 52
Note OFF: Time 151220, Note Name: C#4
Note ON: Time 151320, Note Name: G#3, Velocity: 48
Note OFF: Time 151340, Note Name: E4
Note ON: Time 151440, Note Name: C#4, Velocity: 50
Note OFF: Time 151460, Note Name: G#3
Note ON: Time 151560, Note Name: E4, Velocity: 51
Note OFF: Time 151580, Note Name: C#4
Note ON: Time 151680, Note Name: G#4, Velocity: 52
Note OFF: Time 151700, Note Name: E4
Note ON: Time 151800, Note Name: C#4, Velocity: 47
Note OFF: Time 151820, Note Name: G#4
Note ON: Time 151920, Note Name: E4, Velocity: 47
Note OFF: Time 151940, Note Name: C#4
Note ON: Time 152040, Note Name: G#4, Velocity: 50
Note OFF: Time 152060, Note Name: E4
Note ON: Time 152160, Note Name: C#5, Velocity: 52
Note OFF: Time 152180, Note Name: G#4
Note ON: Time 152280, Note Name: E4, Velocity: 47
Note OFF: Time 152300, Note Name: C#5
Note ON: Time 152400, Note Name: G#4, Velocity: 50
Note OFF: Time 152420, Note Name: E4
Note ON: Time 152520, Note Name: C#5, Velocity: 51
Note OFF: Time 152540, Note Name: G#4
Note ON: Time 152640, Note Name: E5, Velocity: 54
Note OFF: Time 152660, Note Name: C#5
Note OFF: Time 152755, Note Name: E5
Note ON: Time 152760, Note Name: E5, Velocity: 51
Note ON: Time 152880, Note Name: G#5, Velocity: 51
Note OFF: Time 152900, Note Name: E5
Note ON: Time 153000, Note Name: C#6, Velocity: 53
Note OFF: Time 153020, Note Name: G#5
Note OFF: Time 153120, Note Name: C#6
Note ON: Time 153120, Note Name: E5, Velocity: 95
Note ON: Time 153120, Note Name: E6, Velocity: 112
Note OFF: Time 153240, Note Name: E6
Note OFF: Time 153240, Note Name: E5
Note ON: Time 153360, Note Name: E5, Velocity: 74
Note ON: Time 153360, Note Name: E6, Velocity: 88
Note OFF: Time 153480, Note Name: E6
Note OFF: Time 153480, Note Name: E5
Note ON: Time 153720, Note Name: E3, Velocity: 46
Note ON: Time 153840, Note Name: G3, Velocity: 48
Note OFF: Time 153860, Note Name: E3
Note ON: Time 153960, Note Name: C#4, Velocity: 50
Note OFF: Time 153980, Note Name: G3
Note ON: Time 154080, Note Name: E4, Velocity: 51
Note OFF: Time 154100, Note Name: C#4
Note ON: Time 154200, Note Name: G3, Velocity: 47
Note OFF: Time 154220, Note Name: E4
Note ON: Time 154320, Note Name: C#4, Velocity: 49
Note OFF: Time 154340, Note Name: G3
Note ON: Time 154440, Note Name: E4, Velocity: 51
Note OFF: Time 154460, Note Name: C#4
Note ON: Time 154560, Note Name: G4, Velocity: 51
Note OFF: Time 154580, Note Name: E4
Note ON: Time 154680, Note Name: C#4, Velocity: 50
Note OFF: Time 154700, Note Name: G4
Note ON: Time 154800, Note Name: E4, Velocity: 49
Note OFF: Time 154820, Note Name: C#4
Note ON: Time 154920, Note Name: G4, Velocity: 51
Note OFF: Time 154940, Note Name: E4
Note ON: Time 155040, Note Name: C#5, Velocity: 52
Note OFF: Time 155060, Note Name: G4
Note ON: Time 155160, Note Name: E4, Velocity: 47
Note OFF: Time 155180, Note Name: C#5
Note ON: Time 155280, Note Name: G4, Velocity: 49
Note OFF: Time 155300, Note Name: E4
Note ON: Time 155400, Note Name: C#5, Velocity: 51
Note OFF: Time 155420, Note Name: G4
Note ON: Time 155520, Note Name: E5, Velocity: 52
Note OFF: Time 155540, Note Name: C#5
Note ON: Time 155640, Note Name: G4, Velocity: 48
Note OFF: Time 155660, Note Name: E5
Note ON: Time 155760, Note Name: C#5, Velocity: 48
Note OFF: Time 155780, Note Name: G4
Note ON: Time 155880, Note Name: E5, Velocity: 50
Note OFF: Time 155900, Note Name: C#5
Note ON: Time 156000, Note Name: G5, Velocity: 52
Note OFF: Time 156020, Note Name: E5
Note ON: Time 156120, Note Name: C#5, Velocity: 47
Note OFF: Time 156140, Note Name: G5
Note ON: Time 156240, Note Name: E5, Velocity: 50
Note OFF: Time 156260, Note Name: C#5
Note ON: Time 156360, Note Name: G5, Velocity: 51
Note OFF: Time 156380, Note Name: E5
Note ON: Time 156480, Note Name: C#6, Velocity: 54
Note OFF: Time 156500, Note Name: G5
Note ON: Time 156600, Note Name: E5, Velocity: 51
Note OFF: Time 156620, Note Name: C#6
Note ON: Time 156720, Note Name: G5, Velocity: 54
Note OFF: Time 156740, Note Name: E5
Note ON: Time 156840, Note Name: C#6, Velocity: 57
Note OFF: Time 156860, Note Name: G5
Note OFF: Time 156960, Note Name: C#6
Note ON: Time 156960, Note Name: E6, Velocity: 110
Note ON: Time 156960, Note Name: E5, Velocity: 93
Note OFF: Time 157080, Note Name: E5
Note OFF: Time 157080, Note Name: E6
Note ON: Time 157200, Note Name: E5, Velocity: 73
Note ON: Time 157200, Note Name: E6, Velocity: 87
Note OFF: Time 157320, Note Name: E6
Note OFF: Time 157320, Note Name: E5
Note ON: Time 157560, Note Name: D#3, Velocity: 50
Note OFF: Time 157675, Note Name: D#3
Note ON: Time 157680, Note Name: A#3, Velocity: 51
Note ON: Time 157800, Note Name: C#4, Velocity: 51
Note OFF: Time 157820, Note Name: A#3
Note ON: Time 157920, Note Name: D#4, Velocity: 51
Note OFF: Time 157940, Note Name: C#4
Note ON: Time 158040, Note Name: A#3, Velocity: 52
Note OFF: Time 158060, Note Name: D#4
Note ON: Time 158160, Note Name: C#4, Velocity: 53
Note OFF: Time 158180, Note Name: A#3
Note ON: Time 158280, Note Name: D#4, Velocity: 54
Note OFF: Time 158300, Note Name: C#4
Note ON: Time 158400, Note Name: A#4, Velocity: 56
Note OFF: Time 158420, Note Name: D#4
Note ON: Time 158520, Note Name: C#4, Velocity: 56
Note OFF: Time 158540, Note Name: A#4
Note ON: Time 158640, Note Name: D#4, Velocity: 57
Note OFF: Time 158660, Note Name: C#4
Note ON: Time 158760, Note Name: A#4, Velocity: 57
Note OFF: Time 158780, Note Name: D#4
Note ON: Time 158880, Note Name: C#5, Velocity: 58
Note OFF: Time 158900, Note Name: A#4
Note ON: Time 159000, Note Name: D#4, Velocity: 59
Note OFF: Time 159020, Note Name: C#5
Note ON: Time 159120, Note Name: A#4, Velocity: 60
Note OFF: Time 159140, Note Name: D#4
Note ON: Time 159240, Note Name: C#5, Velocity: 61
Note OFF: Time 159260, Note Name: A#4
Note ON: Time 159360, Note Name: D#5, Velocity: 62
Note OFF: Time 159380, Note Name: C#5
Note ON: Time 159480, Note Name: A#4, Velocity: 62
Note OFF: Time 159500, Note Name: D#5
Note ON: Time 159600, Note Name: C#5, Velocity: 62
Note OFF: Time 159620, Note Name: A#4
Note ON: Time 159720, Note Name: D#5, Velocity: 62
Note OFF: Time 159740, Note Name: C#5
Note ON: Time 159840, Note Name: A#5, Velocity: 63
Note OFF: Time 159860, Note Name: D#5
Note ON: Time 159960, Note Name: C#5, Velocity: 65
Note OFF: Time 159980, Note Name: A#5
Note ON: Time 160080, Note Name: D#5, Velocity: 66
Note OFF: Time 160100, Note Name: C#5
Note ON: Time 160200, Note Name: A#5, Velocity: 67
Note OFF: Time 160220, Note Name: D#5
Note ON: Time 160320, Note Name: C#6, Velocity: 67
Note OFF: Time 160340, Note Name: A#5
Note ON: Time 160440, Note Name: A#5, Velocity: 65
Note OFF: Time 160460, Note Name: C#6
Note ON: Time 160560, Note Name: D#5, Velocity: 62
Note OFF: Time 160580, Note Name: A#5
Note ON: Time 160680, Note Name: C#5, Velocity: 61
Note OFF: Time 160700, Note Name: D#5
Note ON: Time 160800, Note Name: A#5, Velocity: 59
Note OFF: Time 160820, Note Name: C#5
Note ON: Time 160920, Note Name: D#5, Velocity: 57
Note OFF: Time 160940, Note Name: A#5
Note ON: Time 161040, Note Name: C#5, Velocity: 56
Note OFF: Time 161060, Note Name: D#5
Note ON: Time 161160, Note Name: A#4, Velocity: 52
Note OFF: Time 161180, Note Name: C#5
Note ON: Time 161280, Note Name: B4, Velocity: 49
Note OFF: Time 161300, Note Name: A#4
Note OFF: Time 161520, Note Name: B4
Note ON: Time 161760, Note Name: D#5, Velocity: 61
Note ON: Time 162720, Note Name: B4, Velocity: 56
Note OFF: Time 162740, Note Name: D#5
Note OFF: Time 163080, Note Name: B4
Note ON: Time 163080, Note Name: G#4, Velocity: 56
Note OFF: Time 163140, Note Name: G#4
Note ON: Time 163140, Note Name: G4, Velocity: 44
Note OFF: Time 163160, Note Name: G4
Note ON: Time 163160, Note Name: G#4, Velocity: 44
Note OFF: Time 163180, Note Name: G#4
Note ON: Time 163180, Note Name: A#4, Velocity: 44
Note OFF: Time 163200, Note Name: A#4
Note ON: Time 163200, Note Name: G#4, Velocity: 63
Note ON: Time 163680, Note Name: G4, Velocity: 56
Note OFF: Time 163700, Note Name: G#4
Note OFF: Time 164400, Note Name: G4
Note ON: Time 164400, Note Name: G4, Velocity: 56
Note ON: Time 164640, Note Name: D#5, Velocity: 68
Note OFF: Time 164660, Note Name: G4
Note OFF: Time 165000, Note Name: D#5
Note ON: Time 165000, Note Name: G4, Velocity: 57
Note OFF: Time 165120, Note Name: G4
Note ON: Time 165120, Note Name: A#4, Velocity: 51
Note ON: Time 165600, Note Name: G#4, Velocity: 56
Note OFF: Time 165620, Note Name: A#4
Note OFF: Time 166320, Note Name: G#4
Note ON: Time 166320, Note Name: G#4, Velocity: 53
Note ON: Time 166560, Note Name: D#5, Velocity: 68
Note OFF: Time 166580, Note Name: G#4
Note OFF: Time 166920, Note Name: D#5
Note ON: Time 166920, Note Name: G#4, Velocity: 56
Note OFF: Time 167040, Note Name: G#4
Note ON: Time 167040, Note Name: B4, Velocity: 57
Note ON: Time 167520, Note Name: A#4, Velocity: 56
Note OFF: Time 167540, Note Name: B4
Note OFF: Time 168240, Note Name: A#4
Note ON: Time 168240, Note Name: A#4, Velocity: 57
Note ON: Time 168480, Note Name: D#5, Velocity: 53
Note OFF: Time 168500, Note Name: A#4
Note OFF: Time 168840, Note Name: D#5
Note ON: Time 168840, Note Name: A#4, Velocity: 57
Note OFF: Time 168960, Note Name: A#4
Note ON: Time 168960, Note Name: B4, Velocity: 59
Note OFF: Time 169200, Note Name: B4
Note ON: Time 169200, Note Name: D#6, Velocity: 59
Note ON: Time 169200, Note Name: D#5, Velocity: 49
Note OFF: Time 169680, Note Name: D#5
Note OFF: Time 169680, Note Name: D#6
Note ON: Time 169680, Note Name: D#5, Velocity: 49
Note ON: Time 169680, Note Name: D#6, Velocity: 58
Note OFF: Time 170160, Note Name: D#6
Note OFF: Time 170160, Note Name: D#5
Note ON: Time 170160, Note Name: D#5, Velocity: 47
Note ON: Time 170160, Note Name: D#6, Velocity: 56
Note OFF: Time 170280, Note Name: D#6
Note OFF: Time 170280, Note Name: D#5
Note ON: Time 170400, Note Name: B4, Velocity: 49
Note ON: Time 170400, Note Name: B5, Velocity: 58
Note OFF: Time 170520, Note Name: B5
Note OFF: Time 170520, Note Name: B4
Note ON: Time 170640, Note Name: G#5, Velocity: 59
Note ON: Time 170640, Note Name: G#4, Velocity: 49
Note OFF: Time 170760, Note Name: G#4
Note OFF: Time 170760, Note Name: G#5
Note ON: Time 170880, Note Name: G#4, Velocity: 51
Note ON: Time 170880, Note Name: G#5, Velocity: 61
Note OFF: Time 171000, Note Name: G#5
Note OFF: Time 171000, Note Name: G#4
Note ON: Time 171120, Note Name: G4, Velocity: 52
Note ON: Time 171120, Note Name: G5, Velocity: 62
Note OFF: Time 171600, Note Name: G5
Note OFF: Time 171600, Note Name: G4
Note ON: Time 171600, Note Name: G5, Velocity: 68
Note ON: Time 171600, Note Name: G4, Velocity: 57
Note OFF: Time 172080, Note Name: G4
Note OFF: Time 172080, Note Name: G5
Note ON: Time 172080, Note Name: G5, Velocity: 69
Note ON: Time 172080, Note Name: G4, Velocity: 58
Note OFF: Time 172200, Note Name: G4
Note OFF: Time 172200, Note Name: G5
Note ON: Time 172320, Note Name: D#5, Velocity: 60
Note ON: Time 172320, Note Name: D#6, Velocity: 71
Note OFF: Time 172440, Note Name: D#6
Note OFF: Time 172440, Note Name: D#5
Note ON: Time 172560, Note Name: G4, Velocity: 61
Note ON: Time 172560, Note Name: G5, Velocity: 73
Note OFF: Time 172680, Note Name: G5
Note OFF: Time 172680, Note Name: G4
Note ON: Time 172800, Note Name: A#5, Velocity: 74
Note ON: Time 172800, Note Name: A#4, Velocity: 62
Note OFF: Time 172920, Note Name: A#4
Note OFF: Time 172920, Note Name: A#5
Note ON: Time 173040, Note Name: G#4, Velocity: 63
Note ON: Time 173040, Note Name: G#5, Velocity: 75
Note OFF: Time 173520, Note Name: G#5
Note OFF: Time 173520, Note Name: G#4
Note ON: Time 173520, Note Name: G#4, Velocity: 68
Note ON: Time 173520, Note Name: G#5, Velocity: 80
Note OFF: Time 174000, Note Name: G#5
Note OFF: Time 174000, Note Name: G#4
Note ON: Time 174000, Note Name: G#5, Velocity: 82
Note ON: Time 174000, Note Name: G#4, Velocity: 69
Note OFF: Time 174120, Note Name: G#4
Note OFF: Time 174120, Note Name: G#5
Note ON: Time 174240, Note Name: D#6, Velocity: 85
Note ON: Time 174240, Note Name: D#5, Velocity: 72
Note OFF: Time 174360, Note Name: D#5
Note OFF: Time 174360, Note Name: D#6
Note ON: Time 174480, Note Name: G#4, Velocity: 73
Note ON: Time 174480, Note Name: G#5, Velocity: 86
Note OFF: Time 174600, Note Name: G#5
Note OFF: Time 174600, Note Name: G#4
Note ON: Time 174720, Note Name: B4, Velocity: 73
Note ON: Time 174720, Note Name: B5, Velocity: 86
Note OFF: Time 174840, Note Name: B5
Note OFF: Time 174840, Note Name: B4
Note ON: Time 174960, Note Name: A#4, Velocity: 74
Note ON: Time 174960, Note Name: A#5, Velocity: 89
Note OFF: Time 175440, Note Name: A#5
Note OFF: Time 175440, Note Name: A#4
Note ON: Time 175440, Note Name: A#4, Velocity: 79
Note ON: Time 175440, Note Name: A#5, Velocity: 93
Note OFF: Time 175920, Note Name: A#5
Note OFF: Time 175920, Note Name: A#4
Note ON: Time 175920, Note Name: A#4, Velocity: 79
Note ON: Time 175920, Note Name: A#5, Velocity: 93
Note OFF: Time 176040, Note Name: A#5
Note OFF: Time 176040, Note Name: A#4
Note ON: Time 176160, Note Name: D#6, Velocity: 93
Note ON: Time 176160, Note Name: D#5, Velocity: 93
Note OFF: Time 176280, Note Name: D#5
Note OFF: Time 176280, Note Name: D#6
Note ON: Time 176400, Note Name: A#5, Velocity: 93
Note ON: Time 176400, Note Name: A#4, Velocity: 79
Note OFF: Time 176520, Note Name: A#4
Note OFF: Time 176520, Note Name: A#5
Note ON: Time 176640, Note Name: C5, Velocity: 80
Note ON: Time 176640, Note Name: C6, Velocity: 95
Note OFF: Time 177600, Note Name: C6
Note OFF: Time 177600, Note Name: C5
Note ON: Time 177600, Note Name: C#5, Velocity: 80
Note ON: Time 177600, Note Name: C#6, Velocity: 95
Note OFF: Time 178560, Note Name: C#6
Note OFF: Time 178560, Note Name: C#5
Note ON: Time 178560, Note Name: A#4, Velocity: 68
Note ON: Time 178560, Note Name: A#5, Velocity: 80
Note OFF: Time 178625, Note Name: A#5
Note ON: Time 178625, Note Name: B5, Velocity: 75
Note OFF: Time 178689, Note Name: B5
Note ON: Time 178689, Note Name: A#5, Velocity: 80
Note OFF: Time 178754, Note Name: A#5
Note ON: Time 178754, Note Name: B5, Velocity: 80
Note OFF: Time 178818, Note Name: B5
Note ON: Time 178835, Note Name: A#5, Velocity: 80
Note ON: Time 178907, Note Name: G#5, Velocity: 75
Note OFF: Time 178913, Note Name: A#5
Note ON: Time 178973, Note Name: A#5, Velocity: 75
Note OFF: Time 178984, Note Name: G#5
Note OFF: Time 179040, Note Name: A#5
Note OFF: Time 179040, Note Name: A#4
Note ON: Time 179040, Note Name: B4, Velocity: 80
Note ON: Time 179040, Note Name: B5, Velocity: 95
Note OFF: Time 180480, Note Name: B5
Note OFF: Time 180480, Note Name: B4
Note ON: Time 180480, Note Name: G#5, Velocity: 95
Note ON: Time 180480, Note Name: G#4, Velocity: 80
Note OFF: Time 181440, Note Name: G#4
Note OFF: Time 181440, Note Name: G#5
Note ON: Time 181440, Note Name: A4, Velocity: 80
Note ON: Time 181440, Note Name: A5, Velocity: 94
Note OFF: Time 182400, Note Name: A5
Note OFF: Time 182400, Note Name: A4
Note ON: Time 182400, Note Name: G4, Velocity: 68
Note ON: Time 182400, Note Name: G5, Velocity: 80
Note OFF: Time 182465, Note Name: G5
Note ON: Time 182465, Note Name: G#5, Velocity: 75
Note ON: Time 182529, Note Name: G5, Velocity: 80
Note OFF: Time 182530, Note Name: G#5
Note OFF: Time 182594, Note Name: G5
Note ON: Time 182594, Note Name: G#5, Velocity: 80
Note OFF: Time 182659, Note Name: G#5
Note ON: Time 182675, Note Name: G5, Velocity: 80
Note ON: Time 182747, Note Name: F5, Velocity: 75
Note OFF: Time 182753, Note Name: G5
Note ON: Time 182813, Note Name: G5, Velocity: 75
Note OFF: Time 182825, Note Name: F5
Note OFF: Time 182880, Note Name: G5
Note OFF: Time 182880, Note Name: G4
Note ON: Time 182880, Note Name: G#5, Velocity: 95
Note ON: Time 182880, Note Name: G#4, Velocity: 80
Note OFF: Time 184320, Note Name: G#4
Note OFF: Time 184320, Note Name: G#5
Note ON: Time 184320, Note Name: E5, Velocity: 100
Note ON: Time 184320, Note Name: A4, Velocity: 83
Note ON: Time 184320, Note Name: C#5, Velocity: 100
Note ON: Time 184320, Note Name: A5, Velocity: 100
Note OFF: Time 185400, Note Name: A5
Note OFF: Time 185400, Note Name: E5
Note OFF: Time 185400, Note Name: A4
Note OFF: Time 185400, Note Name: C#5
Note ON: Time 185400, Note Name: E5, Velocity: 48
Note OFF: Time 185520, Note Name: E5
Note ON: Time 185520, Note Name: F#5, Velocity: 49
Note OFF: Time 185640, Note Name: F#5
Note ON: Time 185640, Note Name: G#5, Velocity: 51
Note OFF: Time 185760, Note Name: G#5
Note ON: Time 185760, Note Name: A5, Velocity: 51
Note OFF: Time 185880, Note Name: A5
Note ON: Time 185880, Note Name: B5, Velocity: 52
Note OFF: Time 186000, Note Name: B5
Note ON: Time 186000, Note Name: C#6, Velocity: 53
Note OFF: Time 186120, Note Name: C#6
Note ON: Time 186120, Note Name: B5, Velocity: 51
Note OFF: Time 186240, Note Name: B5
Note ON: Time 186240, Note Name: A5, Velocity: 49
Note OFF: Time 186360, Note Name: A5
Note ON: Time 186360, Note Name: E5, Velocity: 47
Note OFF: Time 186480, Note Name: E5
Note ON: Time 186480, Note Name: F#5, Velocity: 48
Note OFF: Time 186600, Note Name: F#5
Note ON: Time 186600, Note Name: G#5, Velocity: 48
Note OFF: Time 186720, Note Name: G#5
Note ON: Time 186720, Note Name: A5, Velocity: 49
Note OFF: Time 186840, Note Name: A5
Note ON: Time 186840, Note Name: B5, Velocity: 50
Note OFF: Time 186960, Note Name: B5
Note ON: Time 186960, Note Name: C#6, Velocity: 51
Note OFF: Time 187080, Note Name: C#6
Note ON: Time 187080, Note Name: B5, Velocity: 50
Note OFF: Time 187200, Note Name: B5
Note ON: Time 187200, Note Name: A5, Velocity: 48
Note OFF: Time 187320, Note Name: A5
Note ON: Time 187320, Note Name: E5, Velocity: 49
Note OFF: Time 187440, Note Name: E5
Note ON: Time 187440, Note Name: F#5, Velocity: 50
Note OFF: Time 187560, Note Name: F#5
Note ON: Time 187560, Note Name: G#5, Velocity: 50
Note OFF: Time 187680, Note Name: G#5
Note ON: Time 187680, Note Name: A5, Velocity: 51
Note OFF: Time 187800, Note Name: A5
Note ON: Time 187800, Note Name: B5, Velocity: 51
Note OFF: Time 187920, Note Name: B5
Note ON: Time 187920, Note Name: C#6, Velocity: 51
Note OFF: Time 188040, Note Name: C#6
Note ON: Time 188040, Note Name: B5, Velocity: 49
Note OFF: Time 188160, Note Name: B5
Note ON: Time 188160, Note Name: A5, Velocity: 47
Note OFF: Time 188280, Note Name: A5
Note ON: Time 188280, Note Name: E5, Velocity: 48
Note OFF: Time 188400, Note Name: E5
Note ON: Time 188400, Note Name: F#5, Velocity: 51
Note OFF: Time 188520, Note Name: F#5
Note ON: Time 188520, Note Name: G#5, Velocity: 51
Note OFF: Time 188640, Note Name: G#5
Note ON: Time 188640, Note Name: A5, Velocity: 54
Note OFF: Time 188760, Note Name: A5
Note ON: Time 188760, Note Name: B5, Velocity: 56
Note OFF: Time 188880, Note Name: B5
Note ON: Time 188880, Note Name: C#6, Velocity: 57
Note OFF: Time 189000, Note Name: C#6
Note ON: Time 189000, Note Name: D6, Velocity: 60
Note OFF: Time 189120, Note Name: D6
Note ON: Time 189120, Note Name: E6, Velocity: 61
Note OFF: Time 189240, Note Name: E6
Note ON: Time 189240, Note Name: D#6, Velocity: 59
Note OFF: Time 189360, Note Name: D#6
Note ON: Time 189360, Note Name: E6, Velocity: 57
Note OFF: Time 189480, Note Name: E6
Note ON: Time 189480, Note Name: D#6, Velocity: 56
Note OFF: Time 189600, Note Name: D#6
Note ON: Time 189600, Note Name: E6, Velocity: 54
Note OFF: Time 189720, Note Name: E6
Note ON: Time 189720, Note Name: C#6, Velocity: 52
Note OFF: Time 189840, Note Name: C#6
Note ON: Time 189840, Note Name: B5, Velocity: 51
Note OFF: Time 189960, Note Name: B5
Note ON: Time 189960, Note Name: A5, Velocity: 50
Note OFF: Time 190080, Note Name: A5
Note ON: Time 190080, Note Name: G#5, Velocity: 48
Note OFF: Time 191040, Note Name: G#5
Note ON: Time 191040, Note Name: A#5, Velocity: 50
Note OFF: Time 191120, Note Name: A#5
Note ON: Time 191120, Note Name: B5, Velocity: 50
Note OFF: Time 191200, Note Name: B5
Note ON: Time 191200, Note Name: A#5, Velocity: 50
Note OFF: Time 191275, Note Name: A#5
Note ON: Time 191275, Note Name: B5, Velocity: 50
Note OFF: Time 191350, Note Name: B5
Note ON: Time 191350, Note Name: A#5, Velocity: 50
Note OFF: Time 191425, Note Name: A#5
Note ON: Time 191425, Note Name: B5, Velocity: 50
Note OFF: Time 191500, Note Name: B5
Note ON: Time 191500, Note Name: A#5, Velocity: 50
Note OFF: Time 191570, Note Name: A#5
Note ON: Time 191570, Note Name: B5, Velocity: 48
Note OFF: Time 191640, Note Name: B5
Note ON: Time 191640, Note Name: A#5, Velocity: 49
Note OFF: Time 191700, Note Name: A#5
Note ON: Time 191700, Note Name: B5, Velocity: 50
Note OFF: Time 191760, Note Name: B5
Note ON: Time 191760, Note Name: A#5, Velocity: 51
Note OFF: Time 191820, Note Name: A#5
Note ON: Time 191820, Note Name: B5, Velocity: 51
Note OFF: Time 191880, Note Name: B5
Note ON: Time 191880, Note Name: A#5, Velocity: 51
Note OFF: Time 191940, Note Name: A#5
Note ON: Time 191940, Note Name: B5, Velocity: 52
Note OFF: Time 192000, Note Name: B5
Note ON: Time 192000, Note Name: G#5, Velocity: 56
Note OFF: Time 192240, Note Name: G#5
Note ON: Time 192480, Note Name: A3, Velocity: 73
Note ON: Time 192480, Note Name: C#4, Velocity: 73
Note ON: Time 192480, Note Name: A4, Velocity: 87
Note ON: Time 192480, Note Name: E4, Velocity: 87
Note OFF: Time 193080, Note Name: E4
Note OFF: Time 193080, Note Name: A3
Note OFF: Time 193080, Note Name: C#4
Note OFF: Time 193080, Note Name: A4
Note ON: Time 193080, Note Name: E4, Velocity: 48
Note OFF: Time 193200, Note Name: E4
Note ON: Time 193200, Note Name: F#4, Velocity: 49
Note OFF: Time 193320, Note Name: F#4
Note ON: Time 193320, Note Name: G#4, Velocity: 50
Note OFF: Time 193440, Note Name: G#4
Note ON: Time 193440, Note Name: A4, Velocity: 51
Note OFF: Time 193560, Note Name: A4
Note ON: Time 193560, Note Name: B4, Velocity: 51
Note OFF: Time 193680, Note Name: B4
Note ON: Time 193680, Note Name: C#5, Velocity: 52
Note OFF: Time 193800, Note Name: C#5
Note ON: Time 193800, Note Name: B4, Velocity: 51
Note OFF: Time 193920, Note Name: B4
Note ON: Time 193920, Note Name: A4, Velocity: 48
Note OFF: Time 194040, Note Name: A4
Note ON: Time 194040, Note Name: E4, Velocity: 48
Note OFF: Time 194160, Note Name: E4
Note ON: Time 194160, Note Name: F#4, Velocity: 48
Note OFF: Time 194280, Note Name: F#4
Note ON: Time 194280, Note Name: G#4, Velocity: 49
Note OFF: Time 194400, Note Name: G#4
Note ON: Time 194400, Note Name: A4, Velocity: 50
Note OFF: Time 194520, Note Name: A4
Note ON: Time 194520, Note Name: B4, Velocity: 50
Note OFF: Time 194640, Note Name: B4
Note ON: Time 194640, Note Name: C#5, Velocity: 51
Note OFF: Time 194760, Note Name: C#5
Note ON: Time 194760, Note Name: B4, Velocity: 51
Note OFF: Time 194880, Note Name: B4
Note ON: Time 194880, Note Name: A4, Velocity: 48
Note OFF: Time 195000, Note Name: A4
Note ON: Time 195000, Note Name: E4, Velocity: 48
Note OFF: Time 195120, Note Name: E4
Note ON: Time 195120, Note Name: F#4, Velocity: 48
Note OFF: Time 195240, Note Name: F#4
Note ON: Time 195240, Note Name: G#4, Velocity: 50
Note OFF: Time 195360, Note Name: G#4
Note ON: Time 195360, Note Name: A4, Velocity: 51
Note OFF: Time 195480, Note Name: A4
Note ON: Time 195480, Note Name: B4, Velocity: 51
Note OFF: Time 195600, Note Name: B4
Note ON: Time 195600, Note Name: C#5, Velocity: 51
Note OFF: Time 195720, Note Name: C#5
Note ON: Time 195720, Note Name: B4, Velocity: 50
Note OFF: Time 195840, Note Name: B4
Note ON: Time 195840, Note Name: A4, Velocity: 49
Note OFF: Time 195960, Note Name: A4
Note ON: Time 195960, Note Name: E4, Velocity: 50
Note OFF: Time 196080, Note Name: E4
Note ON: Time 196080, Note Name: F#4, Velocity: 51
Note OFF: Time 196200, Note Name: F#4
Note ON: Time 196200, Note Name: G#4, Velocity: 51
Note OFF: Time 196320, Note Name: G#4
Note ON: Time 196320, Note Name: A4, Velocity: 52
Note OFF: Time 196440, Note Name: A4
Note ON: Time 196440, Note Name: B4, Velocity: 53
Note OFF: Time 196560, Note Name: B4
Note ON: Time 196560, Note Name: C#5, Velocity: 56
Note OFF: Time 196680, Note Name: C#5
Note ON: Time 196680, Note Name: B4, Velocity: 56
Note OFF: Time 196800, Note Name: B4
Note ON: Time 196800, Note Name: A4, Velocity: 57
Note OFF: Time 196920, Note Name: A4
Note ON: Time 196920, Note Name: E4, Velocity: 58
Note OFF: Time 197040, Note Name: E4
Note ON: Time 197040, Note Name: F#4, Velocity: 59
Note OFF: Time 197160, Note Name: F#4
Note ON: Time 197160, Note Name: G#4, Velocity: 60
Note OFF: Time 197280, Note Name: G#4
Note ON: Time 197280, Note Name: A4, Velocity: 62
Note OFF: Time 197400, Note Name: A4
Note ON: Time 197400, Note Name: B4, Velocity: 62
Note OFF: Time 197520, Note Name: B4
Note ON: Time 197520, Note Name: C#5, Velocity: 62
Note OFF: Time 197640, Note Name: C#5
Note ON: Time 197640, Note Name: B4, Velocity: 63
Note OFF: Time 197760, Note Name: B4
Note ON: Time 197760, Note Name: A4, Velocity: 66
Note OFF: Time 197880, Note Name: A4
Note ON: Time 197880, Note Name: E4, Velocity: 67
Note OFF: Time 198000, Note Name: E4
Note ON: Time 198000, Note Name: F#4, Velocity: 68
Note OFF: Time 198120, Note Name: F#4
Note ON: Time 198120, Note Name: G#4, Velocity: 68
Note OFF: Time 198240, Note Name: G#4
Note ON: Time 198240, Note Name: A4, Velocity: 70
Note OFF: Time 198360, Note Name: A4
Note ON: Time 198360, Note Name: B4, Velocity: 71
Note OFF: Time 198480, Note Name: B4
Note ON: Time 198480, Note Name: C#5, Velocity: 72
Note OFF: Time 198600, Note Name: C#5
Note ON: Time 198600, Note Name: D5, Velocity: 73
Note OFF: Time 198720, Note Name: D5
Note ON: Time 198720, Note Name: E5, Velocity: 74
Note OFF: Time 198840, Note Name: E5
Note ON: Time 198840, Note Name: F#5, Velocity: 75
Note OFF: Time 198960, Note Name: F#5
Note ON: Time 198960, Note Name: G#5, Velocity: 76
Note OFF: Time 199080, Note Name: G#5
Note ON: Time 199080, Note Name: A5, Velocity: 77
Note OFF: Time 199200, Note Name: A5
Note ON: Time 199200, Note Name: B5, Velocity: 79
Note OFF: Time 199320, Note Name: B5
Note ON: Time 199320, Note Name: C#6, Velocity: 79
Note OFF: Time 199440, Note Name: C#6
Note ON: Time 199440, Note Name: D6, Velocity: 79
Note OFF: Time 199560, Note Name: D6
Note ON: Time 199560, Note Name: D#6, Velocity: 80
Note OFF: Time 199680, Note Name: D#6
Note ON: Time 199680, Note Name: E6, Velocity: 84
Note ON: Time 199680, Note Name: E5, Velocity: 71
Note OFF: Time 200640, Note Name: E5
Note OFF: Time 200640, Note Name: E6
Note ON: Time 200640, Note Name: G#4, Velocity: 71
Note ON: Time 200640, Note Name: G#5, Velocity: 84
Note OFF: Time 201600, Note Name: G#5
Note OFF: Time 201600, Note Name: G#4
Note ON: Time 201600, Note Name: B4, Velocity: 71
Note ON: Time 201600, Note Name: B5, Velocity: 84
Note OFF: Time 202560, Note Name: B5
Note OFF: Time 202560, Note Name: B4
Note ON: Time 202560, Note Name: C#4, Velocity: 71
Note ON: Time 202560, Note Name: G3, Velocity: 60
Note ON: Time 202560, Note Name: G4, Velocity: 84
Note OFF: Time 203520, Note Name: G4
Note OFF: Time 203520, Note Name: G3
Note OFF: Time 203520, Note Name: C#4
Note ON: Time 203520, Note Name: D#4, Velocity: 71
Note ON: Time 203520, Note Name: B3, Velocity: 71
Note ON: Time 203520, Note Name: G#4, Velocity: 84
Note OFF: Time 203760, Note Name: G#4
Note OFF: Time 203760, Note Name: B3
Note OFF: Time 203760, Note Name: D#4
Note ON: Time 203760, Note Name: B4, Velocity: 51
Note ON: Time 203760, Note Name: D#4, Velocity: 51
Note OFF: Time 203880, Note Name: D#4
Note OFF: Time 203880, Note Name: B4
Note ON: Time 204000, Note Name: B4, Velocity: 51
Note ON: Time 204000, Note Name: D#4, Velocity: 51
Note OFF: Time 204120, Note Name: D#4
Note OFF: Time 204120, Note Name: B4
Note ON: Time 204240, Note Name: D#4, Velocity: 51
Note ON: Time 204240, Note Name: B4, Velocity: 51
Note OFF: Time 204360, Note Name: B4
Note OFF: Time 204360, Note Name: D#4
Note ON: Time 204480, Note Name: B4, Velocity: 51
Note ON: Time 204480, Note Name: D#4, Velocity: 51
Note OFF: Time 204600, Note Name: D#4
Note OFF: Time 204600, Note Name: B4
Note ON: Time 204720, Note Name: B4, Velocity: 51
Note ON: Time 204720, Note Name: D#4, Velocity: 51
Note OFF: Time 204840, Note Name: D#4
Note OFF: Time 204840, Note Name: B4
Note ON: Time 204960, Note Name: D#4, Velocity: 49
Note ON: Time 204960, Note Name: A#4, Velocity: 49
Note OFF: Time 205080, Note Name: A#4
Note OFF: Time 205080, Note Name: D#4
Note ON: Time 205200, Note Name: G#4, Velocity: 47
Note ON: Time 205200, Note Name: D#4, Velocity: 47
Note OFF: Time 205320, Note Name: D#4
Note OFF: Time 205320, Note Name: G#4
Note ON: Time 205440, Note Name: D#4, Velocity: 59
Note ON: Time 205440, Note Name: G4, Velocity: 59
Note OFF: Time 205680, Note Name: G4
Note OFF: Time 205680, Note Name: D#4
Note ON: Time 205680, Note Name: G4, Velocity: 49
Note ON: Time 205680, Note Name: D#5, Velocity: 49
Note OFF: Time 205800, Note Name: D#5
Note OFF: Time 205800, Note Name: G4
Note ON: Time 205920, Note Name: G4, Velocity: 49
Note ON: Time 205920, Note Name: D#5, Velocity: 49
Note OFF: Time 206040, Note Name: D#5
Note OFF: Time 206040, Note Name: G4
Note ON: Time 206160, Note Name: D#5, Velocity: 50
Note ON: Time 206160, Note Name: G4, Velocity: 50
Note OFF: Time 206280, Note Name: G4
Note OFF: Time 206280, Note Name: D#5
Note ON: Time 206400, Note Name: G4, Velocity: 51
Note ON: Time 206400, Note Name: D#5, Velocity: 51
Note OFF: Time 206520, Note Name: D#5
Note OFF: Time 206520, Note Name: G4
Note ON: Time 206640, Note Name: G4, Velocity: 51
Note ON: Time 206640, Note Name: D#5, Velocity: 51
Note OFF: Time 206760, Note Name: D#5
Note OFF: Time 206760, Note Name: G4
Note ON: Time 206880, Note Name: D#5, Velocity: 51
Note ON: Time 206880, Note Name: G#4, Velocity: 51
Note OFF: Time 207000, Note Name: G#4
Note OFF: Time 207000, Note Name: D#5
Note ON: Time 207120, Note Name: A#4, Velocity: 53
Note ON: Time 207120, Note Name: D#5, Velocity: 53
Note OFF: Time 207240, Note Name: D#5
Note OFF: Time 207240, Note Name: A#4
Note ON: Time 207360, Note Name: B4, Velocity: 58
Note ON: Time 207360, Note Name: D#5, Velocity: 58
Note OFF: Time 207600, Note Name: D#5
Note OFF: Time 207600, Note Name: B4
Note ON: Time 207600, Note Name: B4, Velocity: 50
Note ON: Time 207600, Note Name: D#4, Velocity: 50
Note OFF: Time 207720, Note Name: D#4
Note OFF: Time 207720, Note Name: B4
Note ON: Time 207840, Note Name: D#4, Velocity: 50
Note ON: Time 207840, Note Name: B4, Velocity: 50
Note OFF: Time 207960, Note Name: B4
Note OFF: Time 207960, Note Name: D#4
Note ON: Time 208080, Note Name: B4, Velocity: 50
Note ON: Time 208080, Note Name: D#4, Velocity: 50
Note OFF: Time 208200, Note Name: D#4
Note OFF: Time 208200, Note Name: B4
Note ON: Time 208320, Note Name: B4, Velocity: 50
Note ON: Time 208320, Note Name: D#4, Velocity: 50
Note OFF: Time 208440, Note Name: D#4
Note OFF: Time 208440, Note Name: B4
Note ON: Time 208560, Note Name: D#4, Velocity: 50
Note ON: Time 208560, Note Name: B4, Velocity: 50
Note OFF: Time 208680, Note Name: B4
Note OFF: Time 208680, Note Name: D#4
Note ON: Time 208800, Note Name: D#4, Velocity: 48
Note ON: Time 208800, Note Name: A#4, Velocity: 48
Note OFF: Time 208920, Note Name: A#4
Note OFF: Time 208920, Note Name: D#4
Note ON: Time 209040, Note Name: G#4, Velocity: 47
Note ON: Time 209040, Note Name: D#4, Velocity: 47
Note OFF: Time 209160, Note Name: D#4
Note OFF: Time 209160, Note Name: G#4
Note ON: Time 209280, Note Name: D#4, Velocity: 58
Note ON: Time 209280, Note Name: G4, Velocity: 58
Note OFF: Time 209520, Note Name: G4
Note OFF: Time 209520, Note Name: D#4
Note ON: Time 209520, Note Name: D#5, Velocity: 49
Note ON: Time 209520, Note Name: G4, Velocity: 49
Note OFF: Time 209640, Note Name: G4
Note OFF: Time 209640, Note Name: D#5
Note ON: Time 209760, Note Name: D#5, Velocity: 49
Note ON: Time 209760, Note Name: G4, Velocity: 49
Note OFF: Time 209880, Note Name: G4
Note OFF: Time 209880, Note Name: D#5
Note ON: Time 210000, Note Name: G4, Velocity: 51
Note ON: Time 210000, Note Name: D#5, Velocity: 51
Note OFF: Time 210120, Note Name: D#5
Note OFF: Time 210120, Note Name: G4
Note ON: Time 210240, Note Name: G4, Velocity: 49
Note ON: Time 210240, Note Name: D#5, Velocity: 49
Note OFF: Time 210360, Note Name: D#5
Note OFF: Time 210360, Note Name: G4
Note ON: Time 210480, Note Name: G4, Velocity: 49
Note ON: Time 210480, Note Name: D#5, Velocity: 49
Note OFF: Time 210600, Note Name: D#5
Note OFF: Time 210600, Note Name: G4
Note ON: Time 210720, Note Name: G#4, Velocity: 51
Note ON: Time 210720, Note Name: D#5, Velocity: 51
Note OFF: Time 210840, Note Name: D#5
Note OFF: Time 210840, Note Name: G#4
Note ON: Time 210960, Note Name: D#5, Velocity: 51
Note ON: Time 210960, Note Name: A#4, Velocity: 51
Note OFF: Time 211080, Note Name: A#4
Note OFF: Time 211080, Note Name: D#5
Note ON: Time 211200, Note Name: D#5, Velocity: 56
Note ON: Time 211200, Note Name: B4, Velocity: 56
Note OFF: Time 211320, Note Name: B4
Note OFF: Time 211320, Note Name: D#5
Note ON: Time 211440, Note Name: B4, Velocity: 50
Note ON: Time 211440, Note Name: D#5, Velocity: 50
Note OFF: Time 211560, Note Name: D#5
Note OFF: Time 211560, Note Name: B4
Note ON: Time 211680, Note Name: B4, Velocity: 50
Note ON: Time 211680, Note Name: D#5, Velocity: 50
Note OFF: Time 211920, Note Name: D#5
Note OFF: Time 211920, Note Name: B4
Note ON: Time 211920, Note Name: B4, Velocity: 49
Note ON: Time 211920, Note Name: G#4, Velocity: 49
Note OFF: Time 212160, Note Name: G#4
Note OFF: Time 212160, Note Name: B4
Note ON: Time 212400, Note Name: C#5, Velocity: 50
Note ON: Time 212400, Note Name: E5, Velocity: 50
Note OFF: Time 212520, Note Name: E5
Note OFF: Time 212520, Note Name: C#5
Note ON: Time 212640, Note Name: E5, Velocity: 50
Note ON: Time 212640, Note Name: C#5, Velocity: 50
Note OFF: Time 212880, Note Name: C#5
Note OFF: Time 212880, Note Name: E5
Note ON: Time 212880, Note Name: C#5, Velocity: 49
Note ON: Time 212880, Note Name: G#4, Velocity: 49
Note OFF: Time 213120, Note Name: G#4
Note OFF: Time 213120, Note Name: C#5
Note ON: Time 213360, Note Name: D#5, Velocity: 47
Note ON: Time 213360, Note Name: B4, Velocity: 47
Note OFF: Time 213480, Note Name: B4
Note OFF: Time 213480, Note Name: D#5
Note ON: Time 213600, Note Name: D#5, Velocity: 47
Note ON: Time 213600, Note Name: B4, Velocity: 47
Note OFF: Time 213840, Note Name: B4
Note OFF: Time 213840, Note Name: D#5
Note ON: Time 213840, Note Name: G#4, Velocity: 49
Note ON: Time 213840, Note Name: B4, Velocity: 49
Note OFF: Time 214080, Note Name: B4
Note OFF: Time 214080, Note Name: G#4
Note ON: Time 214320, Note Name: D#5, Velocity: 49
Note ON: Time 214320, Note Name: A#4, Velocity: 49
Note OFF: Time 214440, Note Name: A#4
Note OFF: Time 214440, Note Name: D#5
Note ON: Time 214560, Note Name: D#5, Velocity: 47
Note ON: Time 214560, Note Name: A#4, Velocity: 47
Note OFF: Time 214800, Note Name: A#4
Note OFF: Time 214800, Note Name: D#5
Note ON: Time 214800, Note Name: G4, Velocity: 47
Note ON: Time 214800, Note Name: A#4, Velocity: 47
Note OFF: Time 215040, Note Name: A#4
Note OFF: Time 215040, Note Name: G4
Note ON: Time 215040, Note Name: G#4, Velocity: 49
Note ON: Time 215040, Note Name: B4, Velocity: 49
Note OFF: Time 215280, Note Name: B4
Note OFF: Time 215280, Note Name: G#4
Note ON: Time 215280, Note Name: D#5, Velocity: 51
Note ON: Time 215280, Note Name: B5, Velocity: 51
Note ON: Time 215280, Note Name: B4, Velocity: 43
Note OFF: Time 215400, Note Name: B4
Note OFF: Time 215400, Note Name: B5
Note OFF: Time 215400, Note Name: D#5
Note ON: Time 215520, Note Name: B5, Velocity: 56
Note ON: Time 215520, Note Name: D#5, Velocity: 56
Note ON: Time 215520, Note Name: B4, Velocity: 47
Note OFF: Time 215640, Note Name: B4
Note OFF: Time 215640, Note Name: D#5
Note OFF: Time 215640, Note Name: B5
Note ON: Time 215760, Note Name: B5, Velocity: 58
Note ON: Time 215760, Note Name: B4, Velocity: 49
Note ON: Time 215760, Note Name: D#5, Velocity: 58
Note OFF: Time 215880, Note Name: D#5
Note OFF: Time 215880, Note Name: B4
Note OFF: Time 215880, Note Name: B5
Note ON: Time 216000, Note Name: B4, Velocity: 52
Note ON: Time 216000, Note Name: D#5, Velocity: 62
Note ON: Time 216000, Note Name: B5, Velocity: 62
Note OFF: Time 216120, Note Name: B5
Note OFF: Time 216120, Note Name: D#5
Note OFF: Time 216120, Note Name: B4
Note ON: Time 216240, Note Name: B5, Velocity: 66
Note ON: Time 216240, Note Name: D#5, Velocity: 66
Note ON: Time 216240, Note Name: B4, Velocity: 56
Note OFF: Time 216360, Note Name: B4
Note OFF: Time 216360, Note Name: D#5
Note OFF: Time 216360, Note Name: B5
Note ON: Time 216480, Note Name: C#5, Velocity: 68
Note ON: Time 216480, Note Name: A#4, Velocity: 57
Note ON: Time 216480, Note Name: A#5, Velocity: 68
Note OFF: Time 216600, Note Name: A#5
Note OFF: Time 216600, Note Name: A#4
Note OFF: Time 216600, Note Name: C#5
Note ON: Time 216720, Note Name: G#5, Velocity: 72
Note ON: Time 216720, Note Name: G#4, Velocity: 61
Note ON: Time 216720, Note Name: B4, Velocity: 72
Note OFF: Time 216840, Note Name: B4
Note OFF: Time 216840, Note Name: G#4
Note OFF: Time 216840, Note Name: G#5
Note ON: Time 216960, Note Name: G5, Velocity: 75
Note ON: Time 216960, Note Name: G4, Velocity: 63
Note ON: Time 216960, Note Name: A#4, Velocity: 75
Note OFF: Time 217200, Note Name: A#4
Note OFF: Time 217200, Note Name: G4
Note OFF: Time 217200, Note Name: G5
Note ON: Time 217200, Note Name: E5, Velocity: 64
Note ON: Time 217200, Note Name: E6, Velocity: 76
Note ON: Time 217200, Note Name: G5, Velocity: 76
Note OFF: Time 217320, Note Name: G5
Note OFF: Time 217320, Note Name: E6
Note OFF: Time 217320, Note Name: E5
Note ON: Time 217440, Note Name: G5, Velocity: 82
Note ON: Time 217440, Note Name: E5, Velocity: 69
Note ON: Time 217440, Note Name: E6, Velocity: 82
Note OFF: Time 217560, Note Name: E6
Note OFF: Time 217560, Note Name: E5
Note OFF: Time 217560, Note Name: G5
Note ON: Time 217680, Note Name: G5, Velocity: 79
Note ON: Time 217680, Note Name: E6, Velocity: 79
Note ON: Time 217680, Note Name: E5, Velocity: 67
Note OFF: Time 217800, Note Name: E5
Note OFF: Time 217800, Note Name: E6
Note OFF: Time 217800, Note Name: G5
Note ON: Time 217920, Note Name: E6, Velocity: 82
Note ON: Time 217920, Note Name: E5, Velocity: 69
Note ON: Time 217920, Note Name: G5, Velocity: 82
Note OFF: Time 218040, Note Name: G5
Note OFF: Time 218040, Note Name: E5
Note OFF: Time 218040, Note Name: E6
Note ON: Time 218160, Note Name: G5, Velocity: 79
Note ON: Time 218160, Note Name: E5, Velocity: 67
Note ON: Time 218160, Note Name: E6, Velocity: 79
Note OFF: Time 218280, Note Name: E6
Note OFF: Time 218280, Note Name: E5
Note OFF: Time 218280, Note Name: G5
Note ON: Time 218400, Note Name: G5, Velocity: 81
Note ON: Time 218400, Note Name: D#5, Velocity: 68
Note ON: Time 218400, Note Name: D#6, Velocity: 81
Note OFF: Time 218520, Note Name: D#6
Note OFF: Time 218520, Note Name: D#5
Note OFF: Time 218520, Note Name: G5
Note ON: Time 218640, Note Name: G5, Velocity: 79
Note ON: Time 218640, Note Name: C#6, Velocity: 79
Note ON: Time 218640, Note Name: C#5, Velocity: 67
Note OFF: Time 218760, Note Name: C#5
Note OFF: Time 218760, Note Name: C#6
Note OFF: Time 218760, Note Name: G5
Note ON: Time 218880, Note Name: B5, Velocity: 82
Note ON: Time 218880, Note Name: G#5, Velocity: 82
Note ON: Time 218880, Note Name: B4, Velocity: 69
Note OFF: Time 219120, Note Name: B4
Note OFF: Time 219120, Note Name: G#5
Note ON: Time 219120, Note Name: B4, Velocity: 41
Note ON: Time 219120, Note Name: B5, Velocity: 49
Note ON: Time 219120, Note Name: D#5, Velocity: 49
Note OFF: Time 219129, Note Name: B5
Note OFF: Time 219240, Note Name: B4
Note OFF: Time 219240, Note Name: B5
Note OFF: Time 219240, Note Name: D#5
Note ON: Time 219360, Note Name: B5, Velocity: 52
Note ON: Time 219360, Note Name: B4, Velocity: 44
Note ON: Time 219360, Note Name: D#5, Velocity: 52
Note OFF: Time 219480, Note Name: D#5
Note OFF: Time 219480, Note Name: B4
Note OFF: Time 219480, Note Name: B5
Note ON: Time 219600, Note Name: B4, Velocity: 48
Note ON: Time 219600, Note Name: B5, Velocity: 57
Note ON: Time 219600, Note Name: D#5, Velocity: 57
Note OFF: Time 219720, Note Name: D#5
Note OFF: Time 219720, Note Name: B5
Note OFF: Time 219720, Note Name: B4
Note ON: Time 219840, Note Name: B4, Velocity: 51
Note ON: Time 219840, Note Name: D#5, Velocity: 61
Note ON: Time 219840, Note Name: B5, Velocity: 61
Note OFF: Time 219960, Note Name: B5
Note OFF: Time 219960, Note Name: D#5
Note OFF: Time 219960, Note Name: B4
Note ON: Time 220080, Note Name: D#5, Velocity: 66
Note ON: Time 220080, Note Name: B5, Velocity: 66
Note ON: Time 220080, Note Name: B4, Velocity: 56
Note OFF: Time 220200, Note Name: B4
Note OFF: Time 220200, Note Name: B5
Note OFF: Time 220200, Note Name: D#5
Note ON: Time 220320, Note Name: A#5, Velocity: 69
Note ON: Time 220320, Note Name: A#4, Velocity: 58
Note ON: Time 220320, Note Name: C#5, Velocity: 69
Note OFF: Time 220440, Note Name: C#5
Note OFF: Time 220440, Note Name: A#4
Note OFF: Time 220440, Note Name: A#5
Note ON: Time 220560, Note Name: G#5, Velocity: 73
Note ON: Time 220560, Note Name: G#4, Velocity: 62
Note ON: Time 220560, Note Name: B4, Velocity: 73
Note OFF: Time 220680, Note Name: B4
Note OFF: Time 220680, Note Name: G#4
Note OFF: Time 220680, Note Name: G#5
Note ON: Time 220800, Note Name: A#4, Velocity: 78
Note ON: Time 220800, Note Name: G4, Velocity: 66
Note ON: Time 220800, Note Name: G5, Velocity: 78
Note OFF: Time 221040, Note Name: G5
Note OFF: Time 221040, Note Name: G4
Note OFF: Time 221040, Note Name: A#4
Note ON: Time 221040, Note Name: E6, Velocity: 78
Note ON: Time 221040, Note Name: G5, Velocity: 78
Note ON: Time 221040, Note Name: E5, Velocity: 66
Note OFF: Time 221160, Note Name: E5
Note OFF: Time 221160, Note Name: G5
Note OFF: Time 221160, Note Name: E6
Note ON: Time 221280, Note Name: E6, Velocity: 82
Note ON: Time 221280, Note Name: E5, Velocity: 69
Note ON: Time 221280, Note Name: G5, Velocity: 82
Note OFF: Time 221400, Note Name: G5
Note OFF: Time 221400, Note Name: E5
Note OFF: Time 221400, Note Name: E6
Note ON: Time 221520, Note Name: E5, Velocity: 66
Note ON: Time 221520, Note Name: E6, Velocity: 78
Note ON: Time 221520, Note Name: G5, Velocity: 78
Note OFF: Time 221640, Note Name: G5
Note OFF: Time 221640, Note Name: E6
Note OFF: Time 221640, Note Name: E5
Note ON: Time 221760, Note Name: G5, Velocity: 82
Note ON: Time 221760, Note Name: E5, Velocity: 69
Note ON: Time 221760, Note Name: E6, Velocity: 82
Note OFF: Time 221880, Note Name: E6
Note OFF: Time 221880, Note Name: E5
Note OFF: Time 221880, Note Name: G5
Note ON: Time 222000, Note Name: G5, Velocity: 79
Note ON: Time 222000, Note Name: E5, Velocity: 67
Note ON: Time 222000, Note Name: E6, Velocity: 79
Note OFF: Time 222120, Note Name: E6
Note OFF: Time 222120, Note Name: E5
Note OFF: Time 222120, Note Name: G5
Note ON: Time 222240, Note Name: D#5, Velocity: 68
Note ON: Time 222240, Note Name: G5, Velocity: 80
Note ON: Time 222240, Note Name: D#6, Velocity: 80
Note OFF: Time 222360, Note Name: D#6
Note OFF: Time 222360, Note Name: G5
Note OFF: Time 222360, Note Name: D#5
Note ON: Time 222480, Note Name: G5, Velocity: 79
Note ON: Time 222480, Note Name: C#5, Velocity: 67
Note ON: Time 222480, Note Name: C#6, Velocity: 79
Note OFF: Time 222600, Note Name: C#6
Note OFF: Time 222600, Note Name: C#5
Note OFF: Time 222600, Note Name: G5
Note ON: Time 222720, Note Name: B5, Velocity: 82
Note ON: Time 222720, Note Name: G#5, Velocity: 82
Note ON: Time 222720, Note Name: B4, Velocity: 69
Note OFF: Time 222960, Note Name: B4
Note OFF: Time 222960, Note Name: G#5
Note OFF: Time 222960, Note Name: B5
Note ON: Time 222960, Note Name: B5, Velocity: 50
Note ON: Time 222960, Note Name: G#5, Velocity: 50
Note OFF: Time 223080, Note Name: G#5
Note OFF: Time 223080, Note Name: B5
Note ON: Time 223200, Note Name: B5, Velocity: 50
Note ON: Time 223200, Note Name: G#5, Velocity: 50
Note OFF: Time 223440, Note Name: G#5
Note OFF: Time 223440, Note Name: B5
Note ON: Time 223440, Note Name: B5, Velocity: 48
Note ON: Time 223440, Note Name: D#6, Velocity: 48
Note OFF: Time 223680, Note Name: D#6
Note OFF: Time 223680, Note Name: B5
Note ON: Time 223920, Note Name: C#6, Velocity: 49
Note ON: Time 223920, Note Name: G#5, Velocity: 49
Note OFF: Time 224040, Note Name: G#5
Note OFF: Time 224040, Note Name: C#6
Note ON: Time 224160, Note Name: C#6, Velocity: 49
Note ON: Time 224160, Note Name: G#5, Velocity: 49
Note OFF: Time 224400, Note Name: G#5
Note OFF: Time 224400, Note Name: C#6
Note ON: Time 224400, Note Name: E6, Velocity: 47
Note ON: Time 224400, Note Name: C#6, Velocity: 47
Note OFF: Time 224640, Note Name: C#6
Note OFF: Time 224640, Note Name: E6
Note ON: Time 224880, Note Name: B5, Velocity: 49
Note ON: Time 224880, Note Name: G#5, Velocity: 49
Note OFF: Time 225000, Note Name: G#5
Note OFF: Time 225000, Note Name: B5
Note ON: Time 225120, Note Name: G#5, Velocity: 49
Note ON: Time 225120, Note Name: B5, Velocity: 49
Note OFF: Time 225360, Note Name: B5
Note OFF: Time 225360, Note Name: G#5
Note ON: Time 225360, Note Name: D#6, Velocity: 47
Note ON: Time 225360, Note Name: B5, Velocity: 47
Note OFF: Time 225600, Note Name: B5
Note OFF: Time 225600, Note Name: D#6
Note ON: Time 225840, Note Name: A#5, Velocity: 51
Note ON: Time 225840, Note Name: G5, Velocity: 51
Note OFF: Time 225960, Note Name: G5
Note OFF: Time 225960, Note Name: A#5
Note ON: Time 226080, Note Name: A#5, Velocity: 51
Note ON: Time 226080, Note Name: G5, Velocity: 51
Note OFF: Time 226320, Note Name: G5
Note OFF: Time 226320, Note Name: A#5
Note ON: Time 226320, Note Name: D#6, Velocity: 47
Note ON: Time 226320, Note Name: A#5, Velocity: 47
Note OFF: Time 226560, Note Name: A#5
Note OFF: Time 226560, Note Name: D#6
Note ON: Time 226800, Note Name: B5, Velocity: 56
Note ON: Time 226800, Note Name: D#5, Velocity: 56
Note OFF: Time 226920, Note Name: D#5
Note OFF: Time 226920, Note Name: B5
Note ON: Time 227040, Note Name: D#5, Velocity: 51
Note ON: Time 227040, Note Name: B5, Velocity: 51
Note OFF: Time 227280, Note Name: B5
Note OFF: Time 227280, Note Name: D#5
Note ON: Time 227280, Note Name: D#6, Velocity: 51
Note ON: Time 227280, Note Name: G#5, Velocity: 51
Note OFF: Time 227520, Note Name: G#5
Note OFF: Time 227520, Note Name: D#6
Note ON: Time 227760, Note Name: A5, Velocity: 62
Note ON: Time 227760, Note Name: C#5, Velocity: 62
Note OFF: Time 227880, Note Name: C#5
Note OFF: Time 227880, Note Name: A5
Note ON: Time 228000, Note Name: A5, Velocity: 56
Note ON: Time 228000, Note Name: C#5, Velocity: 56
Note OFF: Time 228240, Note Name: C#5
Note OFF: Time 228240, Note Name: A5
Note ON: Time 228240, Note Name: E5, Velocity: 56
Note ON: Time 228240, Note Name: C#6, Velocity: 56
Note OFF: Time 228480, Note Name: C#6
Note OFF: Time 228480, Note Name: E5
Note ON: Time 228720, Note Name: G#5, Velocity: 57
Note ON: Time 228720, Note Name: B4, Velocity: 57
Note OFF: Time 228840, Note Name: B4
Note OFF: Time 228840, Note Name: G#5
Note ON: Time 228960, Note Name: B4, Velocity: 57
Note ON: Time 228960, Note Name: G#5, Velocity: 57
Note OFF: Time 229200, Note Name: G#5
Note OFF: Time 229200, Note Name: B4
Note ON: Time 229200, Note Name: D#5, Velocity: 51
Note ON: Time 229200, Note Name: B5, Velocity: 51
Note OFF: Time 229440, Note Name: B5
Note OFF: Time 229440, Note Name: D#5
Note ON: Time 229680, Note Name: A#4, Velocity: 52
Note ON: Time 229680, Note Name: G5, Velocity: 52
Note OFF: Time 229800, Note Name: G5
Note OFF: Time 229800, Note Name: A#4
Note ON: Time 229920, Note Name: A#4, Velocity: 51
Note ON: Time 229920, Note Name: G5, Velocity: 51
Note OFF: Time 230160, Note Name: G5
Note OFF: Time 230160, Note Name: A#4
Note ON: Time 230160, Note Name: C#5, Velocity: 42
Note ON: Time 230160, Note Name: A#5, Velocity: 42
Note OFF: Time 230400, Note Name: A#5
Note OFF: Time 230400, Note Name: C#5
Note ON: Time 230400, Note Name: G#5, Velocity: 50
Note ON: Time 230400, Note Name: B4, Velocity: 50
Note OFF: Time 230880, Note Name: B4
Note OFF: Time 230880, Note Name: G#5
Note ON: Time 231840, Note Name: B4, Velocity: 50
Note OFF: Time 232200, Note Name: B4
Note ON: Time 232200, Note Name: G#4, Velocity: 50
Note OFF: Time 232320, Note Name: G#4
Note ON: Time 232320, Note Name: G4, Velocity: 57
Note OFF: Time 232800, Note Name: G4
Note ON: Time 232800, Note Name: C#4, Velocity: 39
Note ON: Time 232800, Note Name: G4, Velocity: 47
Note ON: Time 232800, Note Name: D#5, Velocity: 47
Note OFF: Time 233160, Note Name: D#5
Note OFF: Time 233160, Note Name: G4
Note OFF: Time 233160, Note Name: C#4
Note ON: Time 233280, Note Name: D#5, Velocity: 47
Note ON: Time 233280, Note Name: C#4, Velocity: 39
Note ON: Time 233280, Note Name: G4, Velocity: 47
Note OFF: Time 233640, Note Name: G4
Note OFF: Time 233640, Note Name: C#4
Note OFF: Time 233640, Note Name: D#5
Note ON: Time 233760, Note Name: G4, Velocity: 50
Note ON: Time 233760, Note Name: D#5, Velocity: 50
Note ON: Time 233760, Note Name: C#4, Velocity: 42
Note OFF: Time 234120, Note Name: C#4
Note OFF: Time 234120, Note Name: D#5
Note OFF: Time 234120, Note Name: G4
Note ON: Time 234120, Note Name: B3, Velocity: 50
Note ON: Time 234180, Note Name: G#4, Velocity: 50
Note OFF: Time 234200, Note Name: B3
Note ON: Time 234240, Note Name: D#5, Velocity: 57
Note OFF: Time 234260, Note Name: G#4
Note OFF: Time 235680, Note Name: D#5
Note ON: Time 235680, Note Name: B5, Velocity: 58
Note OFF: Time 236040, Note Name: B5
Note ON: Time 236040, Note Name: G#5, Velocity: 58
Note OFF: Time 236160, Note Name: G#5
Note ON: Time 236160, Note Name: G5, Velocity: 67
Note OFF: Time 236640, Note Name: G5
Note ON: Time 236640, Note Name: G5, Velocity: 57
Note ON: Time 236640, Note Name: D#6, Velocity: 57
Note ON: Time 236640, Note Name: C#5, Velocity: 48
Note OFF: Time 237000, Note Name: C#5
Note OFF: Time 237000, Note Name: D#6
Note OFF: Time 237000, Note Name: G5
Note ON: Time 237120, Note Name: C#5, Velocity: 48
Note ON: Time 237120, Note Name: D#6, Velocity: 57
Note ON: Time 237120, Note Name: G5, Velocity: 57
Note OFF: Time 237480, Note Name: G5
Note OFF: Time 237480, Note Name: D#6
Note OFF: Time 237480, Note Name: C#5
Note ON: Time 237600, Note Name: D#6, Velocity: 57
Note ON: Time 237600, Note Name: G5, Velocity: 57
Note ON: Time 237600, Note Name: C#5, Velocity: 48
Note OFF: Time 237960, Note Name: C#5
Note OFF: Time 237960, Note Name: G5
Note OFF: Time 237960, Note Name: D#6
Note ON: Time 237960, Note Name: B4, Velocity: 47
Note ON: Time 238020, Note Name: G#5, Velocity: 52
Note OFF: Time 238040, Note Name: B4
Note ON: Time 238080, Note Name: D#6, Velocity: 73
Note OFF: Time 238100, Note Name: G#5
Note OFF: Time 238920, Note Name: D#6
Note ON: Time 238920, Note Name: C#5, Velocity: 43
Note ON: Time 238980, Note Name: G5, Velocity: 51
Note OFF: Time 239000, Note Name: C#5
Note ON: Time 239040, Note Name: D#6, Velocity: 72
Note OFF: Time 239060, Note Name: G5
Note OFF: Time 239880, Note Name: D#6
Note ON: Time 239880, Note Name: B4, Velocity: 40
Note ON: Time 239940, Note Name: G#5, Velocity: 50
Note OFF: Time 239960, Note Name: B4
Note ON: Time 240000, Note Name: D#6, Velocity: 72
Note OFF: Time 240020, Note Name: G#5
Note OFF: Time 240840, Note Name: D#6
Note ON: Time 240840, Note Name: C#5, Velocity: 45
Note ON: Time 240900, Note Name: G5, Velocity: 52
Note OFF: Time 240920, Note Name: C#5
Note ON: Time 240960, Note Name: D#6, Velocity: 71
Note OFF: Time 240980, Note Name: G5
Note OFF: Time 241920, Note Name: D#6
Note ON: Time 241920, Note Name: B3, Velocity: 49
Note OFF: Time 242039, Note Name: B3
Note ON: Time 242040, Note Name: G#4, Velocity: 50
Note OFF: Time 242159, Note Name: G#4
Note ON: Time 242160, Note Name: D#4, Velocity: 51
Note OFF: Time 242279, Note Name: D#4
Note ON: Time 242280, Note Name: G#4, Velocity: 47
Note OFF: Time 242399, Note Name: G#4
Note ON: Time 242400, Note Name: B3, Velocity: 52
Note OFF: Time 242519, Note Name: B3
Note ON: Time 242520, Note Name: G#4, Velocity: 53
Note OFF: Time 242639, Note Name: G#4
Note ON: Time 242640, Note Name: D#4, Velocity: 54
Note OFF: Time 242759, Note Name: D#4
Note ON: Time 242760, Note Name: G#4, Velocity: 52
Note OFF: Time 242879, Note Name: G#4
Note ON: Time 242880, Note Name: B3, Velocity: 57
Note OFF: Time 242999, Note Name: B3
Note ON: Time 243000, Note Name: G#4, Velocity: 57
Note OFF: Time 243119, Note Name: G#4
Note ON: Time 243120, Note Name: D#4, Velocity: 58
Note OFF: Time 243239, Note Name: D#4
Note ON: Time 243240, Note Name: G#4, Velocity: 54
Note OFF: Time 243359, Note Name: G#4
Note ON: Time 243360, Note Name: B3, Velocity: 61
Note OFF: Time 243479, Note Name: B3
Note ON: Time 243480, Note Name: G#4, Velocity: 62
Note OFF: Time 243599, Note Name: G#4
Note ON: Time 243600, Note Name: D#4, Velocity: 62
Note OFF: Time 243719, Note Name: D#4
Note ON: Time 243720, Note Name: G#4, Velocity: 57
Note OFF: Time 243839, Note Name: G#4
Note ON: Time 243840, Note Name: C4, Velocity: 66
Note OFF: Time 243959, Note Name: C4
Note ON: Time 243960, Note Name: F#4, Velocity: 67
Note OFF: Time 244079, Note Name: F#4
Note ON: Time 244080, Note Name: D#4, Velocity: 68
Note OFF: Time 244199, Note Name: D#4
Note ON: Time 244200, Note Name: F#4, Velocity: 63
Note OFF: Time 244319, Note Name: F#4
Note ON: Time 244320, Note Name: C4, Velocity: 69
Note OFF: Time 244439, Note Name: C4
Note ON: Time 244440, Note Name: F#4, Velocity: 70
Note OFF: Time 244559, Note Name: F#4
Note ON: Time 244560, Note Name: D#4, Velocity: 71
Note OFF: Time 244679, Note Name: D#4
Note ON: Time 244680, Note Name: F#4, Velocity: 68
Note OFF: Time 244799, Note Name: F#4
Note ON: Time 244800, Note Name: C4, Velocity: 73
Note OFF: Time 244919, Note Name: C4
Note ON: Time 244920, Note Name: F#4, Velocity: 74
Note OFF: Time 245039, Note Name: F#4
Note ON: Time 245040, Note Name: D#4, Velocity: 75
Note OFF: Time 245159, Note Name: D#4
Note ON: Time 245160, Note Name: F#4, Velocity: 70
Note OFF: Time 245279, Note Name: F#4
Note ON: Time 245280, Note Name: C4, Velocity: 78
Note OFF: Time 245399, Note Name: C4
Note ON: Time 245400, Note Name: F#4, Velocity: 79
Note OFF: Time 245519, Note Name: F#4
Note ON: Time 245520, Note Name: D#4, Velocity: 79
Note OFF: Time 245639, Note Name: D#4
Note ON: Time 245640, Note Name: F#4, Velocity: 73
Note OFF: Time 245759, Note Name: F#4
Note ON: Time 245760, Note Name: C#4, Velocity: 80
Note ON: Time 245760, Note Name: F4, Velocity: 80
Note OFF: Time 245880, Note Name: F4
Note OFF: Time 245880, Note Name: C#4
Note ON: Time 245880, Note Name: C#3, Velocity: 51
Note ON: Time 246000, Note Name: F3, Velocity: 51
Note OFF: Time 246020, Note Name: C#3
Note ON: Time 246120, Note Name: G#3, Velocity: 52
Note OFF: Time 246140, Note Name: F3
Note ON: Time 246240, Note Name: C#4, Velocity: 54
Note OFF: Time 246260, Note Name: G#3
Note ON: Time 246360, Note Name: F3, Velocity: 49
Note OFF: Time 246380, Note Name: C#4
Note ON: Time 246480, Note Name: G#3, Velocity: 50
Note OFF: Time 246500, Note Name: F3
Note ON: Time 246600, Note Name: C#4, Velocity: 51
Note OFF: Time 246620, Note Name: G#3
Note ON: Time 246720, Note Name: F4, Velocity: 51
Note OFF: Time 246740, Note Name: C#4
Note ON: Time 246840, Note Name: G#3, Velocity: 48
Note OFF: Time 246860, Note Name: F4
Note ON: Time 246960, Note Name: C#4, Velocity: 50
Note OFF: Time 246980, Note Name: G#3
Note ON: Time 247080, Note Name: F4, Velocity: 51
Note OFF: Time 247100, Note Name: C#4
Note ON: Time 247200, Note Name: G#4, Velocity: 52
Note OFF: Time 247220, Note Name: F4
Note ON: Time 247320, Note Name: C#4, Velocity: 49
Note OFF: Time 247340, Note Name: G#4
Note ON: Time 247440, Note Name: F4, Velocity: 50
Note OFF: Time 247460, Note Name: C#4
Note ON: Time 247560, Note Name: G#4, Velocity: 51
Note OFF: Time 247580, Note Name: F4
Note ON: Time 247680, Note Name: C#5, Velocity: 51
Note OFF: Time 247700, Note Name: G#4
Note ON: Time 247800, Note Name: F4, Velocity: 49
Note OFF: Time 247820, Note Name: C#5
Note ON: Time 247920, Note Name: G#4, Velocity: 51
Note OFF: Time 247940, Note Name: F4
Note ON: Time 248040, Note Name: C#5, Velocity: 51
Note OFF: Time 248060, Note Name: G#4
Note ON: Time 248160, Note Name: F5, Velocity: 54
Note OFF: Time 248180, Note Name: C#5
Note ON: Time 248280, Note Name: G#4, Velocity: 49
Note OFF: Time 248300, Note Name: F5
Note ON: Time 248400, Note Name: C#5, Velocity: 51
Note OFF: Time 248420, Note Name: G#4
Note ON: Time 248520, Note Name: F5, Velocity: 51
Note OFF: Time 248540, Note Name: C#5
Note ON: Time 248640, Note Name: G#5, Velocity: 53
Note OFF: Time 248660, Note Name: F5
Note ON: Time 248760, Note Name: C#5, Velocity: 50
Note OFF: Time 248780, Note Name: G#5
Note ON: Time 248880, Note Name: F5, Velocity: 51
Note OFF: Time 248900, Note Name: C#5
Note ON: Time 249000, Note Name: G#5, Velocity: 52
Note OFF: Time 249020, Note Name: F5
Note OFF: Time 249120, Note Name: G#5
Note ON: Time 249120, Note Name: C#5, Velocity: 78
Note ON: Time 249120, Note Name: F5, Velocity: 78
Note ON: Time 249120, Note Name: G#5, Velocity: 93
Note ON: Time 249120, Note Name: C#6, Velocity: 93
Note OFF: Time 249240, Note Name: C#6
Note OFF: Time 249240, Note Name: C#5
Note OFF: Time 249240, Note Name: F5
Note OFF: Time 249240, Note Name: G#5
Note ON: Time 249360, Note Name: G#5, Velocity: 78
Note ON: Time 249360, Note Name: C#5, Velocity: 65
Note ON: Time 249360, Note Name: C#6, Velocity: 78
Note ON: Time 249360, Note Name: F5, Velocity: 65
Note OFF: Time 249480, Note Name: F5
Note OFF: Time 249480, Note Name: G#5
Note OFF: Time 249480, Note Name: C#5
Note OFF: Time 249480, Note Name: C#6
Note ON: Time 249720, Note Name: C#3, Velocity: 51
Note ON: Time 249840, Note Name: F3, Velocity: 52
Note OFF: Time 249860, Note Name: C#3
Note ON: Time 249960, Note Name: G#3, Velocity: 54
Note OFF: Time 249980, Note Name: F3
Note ON: Time 250080, Note Name: C#4, Velocity: 56
Note OFF: Time 250100, Note Name: G#3
Note ON: Time 250200, Note Name: F3, Velocity: 51
Note OFF: Time 250220, Note Name: C#4
Note ON: Time 250320, Note Name: G#3, Velocity: 53
Note OFF: Time 250340, Note Name: F3
Note ON: Time 250440, Note Name: C#4, Velocity: 54
Note OFF: Time 250460, Note Name: G#3
Note ON: Time 250560, Note Name: F4, Velocity: 56
Note OFF: Time 250580, Note Name: C#4
Note ON: Time 250680, Note Name: G#3, Velocity: 51
Note OFF: Time 250700, Note Name: F4
Note ON: Time 250800, Note Name: C#4, Velocity: 53
Note OFF: Time 250820, Note Name: G#3
Note ON: Time 250920, Note Name: F4, Velocity: 56
Note OFF: Time 250940, Note Name: C#4
Note ON: Time 251040, Note Name: G#4, Velocity: 57
Note OFF: Time 251060, Note Name: F4
Note ON: Time 251160, Note Name: C#4, Velocity: 51
Note OFF: Time 251180, Note Name: G#4
Note ON: Time 251280, Note Name: F4, Velocity: 53
Note OFF: Time 251300, Note Name: C#4
Note ON: Time 251400, Note Name: G#4, Velocity: 56
Note OFF: Time 251420, Note Name: F4
Note ON: Time 251520, Note Name: C#5, Velocity: 57
Note OFF: Time 251540, Note Name: G#4
Note ON: Time 251640, Note Name: F4, Velocity: 53
Note OFF: Time 251660, Note Name: C#5
Note ON: Time 251760, Note Name: G#4, Velocity: 56
Note OFF: Time 251780, Note Name: F4
Note ON: Time 251880, Note Name: C#5, Velocity: 57
Note OFF: Time 251900, Note Name: G#4
Note ON: Time 252000, Note Name: F5, Velocity: 57
Note OFF: Time 252020, Note Name: C#5
Note ON: Time 252120, Note Name: G#4, Velocity: 52
Note OFF: Time 252140, Note Name: F5
Note ON: Time 252240, Note Name: C#5, Velocity: 54
Note OFF: Time 252260, Note Name: G#4
Note ON: Time 252360, Note Name: F5, Velocity: 56
Note OFF: Time 252380, Note Name: C#5
Note ON: Time 252480, Note Name: G#5, Velocity: 58
Note OFF: Time 252500, Note Name: F5
Note ON: Time 252600, Note Name: C#5, Velocity: 52
Note OFF: Time 252620, Note Name: G#5
Note ON: Time 252720, Note Name: F5, Velocity: 56
Note OFF: Time 252740, Note Name: C#5
Note ON: Time 252840, Note Name: G#5, Velocity: 59
Note OFF: Time 252860, Note Name: F5
Note OFF: Time 252960, Note Name: G#5
Note ON: Time 252960, Note Name: C#5, Velocity: 78
Note ON: Time 252960, Note Name: F5, Velocity: 78
Note ON: Time 252960, Note Name: C#6, Velocity: 93
Note ON: Time 252960, Note Name: G#5, Velocity: 93
Note OFF: Time 253080, Note Name: G#5
Note OFF: Time 253080, Note Name: C#5
Note OFF: Time 253080, Note Name: F5
Note OFF: Time 253080, Note Name: C#6
Note ON: Time 253200, Note Name: F5, Velocity: 67
Note ON: Time 253200, Note Name: G#5, Velocity: 81
Note ON: Time 253200, Note Name: C#5, Velocity: 67
Note ON: Time 253200, Note Name: C#6, Velocity: 81
Note OFF: Time 253320, Note Name: C#6
Note OFF: Time 253320, Note Name: F5
Note OFF: Time 253320, Note Name: G#5
Note OFF: Time 253320, Note Name: C#5
Note ON: Time 253560, Note Name: C#3, Velocity: 62
Note ON: Time 253680, Note Name: F#3, Velocity: 62
Note OFF: Time 253700, Note Name: C#3
Note ON: Time 253800, Note Name: A3, Velocity: 65
Note OFF: Time 253820, Note Name: F#3
Note ON: Time 253920, Note Name: C#4, Velocity: 67
Note OFF: Time 253940, Note Name: A3
Note OFF: Time 253980, Note Name: C#4
Note ON: Time 254040, Note Name: C#4, Velocity: 62
Note ON: Time 254160, Note Name: F#4, Velocity: 65
Note OFF: Time 254180, Note Name: C#4
Note ON: Time 254280, Note Name: A4, Velocity: 67
Note OFF: Time 254300, Note Name: F#4
Note ON: Time 254400, Note Name: C#5, Velocity: 68
Note OFF: Time 254420, Note Name: A4
Note OFF: Time 254460, Note Name: C#5
Note ON: Time 254520, Note Name: C#5, Velocity: 62
Note ON: Time 254640, Note Name: F#5, Velocity: 65
Note OFF: Time 254660, Note Name: C#5
Note ON: Time 254760, Note Name: A5, Velocity: 68
Note OFF: Time 254780, Note Name: F#5
Note OFF: Time 254880, Note Name: A5
Note ON: Time 254880, Note Name: F#5, Velocity: 85
Note ON: Time 254880, Note Name: C#5, Velocity: 85
Note ON: Time 254880, Note Name: A5, Velocity: 101
Note ON: Time 254880, Note Name: C#6, Velocity: 101
Note OFF: Time 255000, Note Name: C#6
Note OFF: Time 255000, Note Name: F#5
Note OFF: Time 255000, Note Name: C#5
Note OFF: Time 255000, Note Name: A5
Note ON: Time 255120, Note Name: F#5, Velocity: 72
Note ON: Time 255120, Note Name: C#6, Velocity: 86
Note ON: Time 255120, Note Name: A5, Velocity: 86
Note ON: Time 255120, Note Name: C#5, Velocity: 72
Note OFF: Time 255240, Note Name: C#5
Note OFF: Time 255240, Note Name: F#5
Note OFF: Time 255240, Note Name: C#6
Note OFF: Time 255240, Note Name: A5
Note ON: Time 255480, Note Name: C#3, Velocity: 62
Note ON: Time 255600, Note Name: G#3, Velocity: 62
Note OFF: Time 255620, Note Name: C#3
Note ON: Time 255720, Note Name: B3, Velocity: 66
Note OFF: Time 255740, Note Name: G#3
Note ON: Time 255840, Note Name: C#4, Velocity: 68
Note OFF: Time 255860, Note Name: B3
Note OFF: Time 255900, Note Name: C#4
Note ON: Time 255960, Note Name: C#4, Velocity: 62
Note ON: Time 256080, Note Name: G#4, Velocity: 63
Note OFF: Time 256100, Note Name: C#4
Note ON: Time 256200, Note Name: B4, Velocity: 67
Note OFF: Time 256220, Note Name: G#4
Note ON: Time 256320, Note Name: C#5, Velocity: 68
Note OFF: Time 256340, Note Name: B4
Note OFF: Time 256380, Note Name: C#5
Note ON: Time 256440, Note Name: C#5, Velocity: 62
Note ON: Time 256560, Note Name: G#5, Velocity: 63
Note OFF: Time 256580, Note Name: C#5
Note ON: Time 256680, Note Name: B5, Velocity: 67
Note OFF: Time 256700, Note Name: G#5
Note OFF: Time 256800, Note Name: B5
Note ON: Time 256800, Note Name: C#5, Velocity: 88
Note ON: Time 256800, Note Name: G#5, Velocity: 88
Note ON: Time 256800, Note Name: C#6, Velocity: 104
Note ON: Time 256800, Note Name: B5, Velocity: 104
Note OFF: Time 256920, Note Name: B5
Note OFF: Time 256920, Note Name: C#5
Note OFF: Time 256920, Note Name: G#5
Note OFF: Time 256920, Note Name: C#6
Note ON: Time 257040, Note Name: C#6, Velocity: 90
Note ON: Time 257040, Note Name: B5, Velocity: 90
Note ON: Time 257040, Note Name: G#5, Velocity: 77
Note ON: Time 257040, Note Name: C#5, Velocity: 77
Note OFF: Time 257160, Note Name: C#5
Note OFF: Time 257160, Note Name: C#6
Note OFF: Time 257160, Note Name: B5
Note OFF: Time 257160, Note Name: G#5
Note ON: Time 257280, Note Name: C#5, Velocity: 81
Note ON: Time 257280, Note Name: C#6, Velocity: 96
Note ON: Time 257280, Note Name: A5, Velocity: 96
Note ON: Time 257280, Note Name: F#5, Velocity: 81
Note OFF: Time 257520, Note Name: F#5
Note OFF: Time 257520, Note Name: C#5
Note OFF: Time 257520, Note Name: C#6
Note OFF: Time 257520, Note Name: A5
Note ON: Time 257760, Note Name: C#5, Velocity: 68
Note ON: Time 258720, Note Name: A4, Velocity: 51
Note OFF: Time 258740, Note Name: C#5
Note ON: Time 259080, Note Name: F#4, Velocity: 51
Note OFF: Time 259100, Note Name: A4
Note OFF: Time 259140, Note Name: F#4
Note ON: Time 259140, Note Name: F4, Velocity: 41
Note OFF: Time 259160, Note Name: F4
Note ON: Time 259160, Note Name: F#4, Velocity: 41
Note OFF: Time 259180, Note Name: F#4
Note ON: Time 259180, Note Name: G#4, Velocity: 41
Note OFF: Time 259200, Note Name: G#4
Note ON: Time 259200, Note Name: F#4, Velocity: 62
Note ON: Time 259680, Note Name: F4, Velocity: 51
Note OFF: Time 259700, Note Name: F#4
Note OFF: Time 260400, Note Name: F4
Note ON: Time 260400, Note Name: F4, Velocity: 51
Note ON: Time 260640, Note Name: C#5, Velocity: 56
Note OFF: Time 260660, Note Name: F4
Note OFF: Time 261000, Note Name: C#5
Note ON: Time 261000, Note Name: F4, Velocity: 51
Note OFF: Time 261120, Note Name: F4
Note ON: Time 261120, Note Name: G#4, Velocity: 51
Note ON: Time 261600, Note Name: F#4, Velocity: 51
Note OFF: Time 261620, Note Name: G#4
Note OFF: Time 262320, Note Name: F#4
Note ON: Time 262320, Note Name: F#4, Velocity: 52
Note ON: Time 262560, Note Name: C#5, Velocity: 56
Note OFF: Time 262580, Note Name: F#4
Note ON: Time 262920, Note Name: F#4, Velocity: 51
Note OFF: Time 262940, Note Name: C#5
Note OFF: Time 263040, Note Name: F#4
Note ON: Time 263040, Note Name: A4, Velocity: 49
Note ON: Time 263520, Note Name: G#4, Velocity: 52
Note OFF: Time 263540, Note Name: A4
Note OFF: Time 264240, Note Name: G#4
Note ON: Time 264240, Note Name: G#4, Velocity: 52
Note ON: Time 264480, Note Name: C#5, Velocity: 58
Note OFF: Time 264500, Note Name: G#4
Note OFF: Time 264840, Note Name: C#5
Note ON: Time 264840, Note Name: G#4, Velocity: 51
Note OFF: Time 264960, Note Name: G#4
Note ON: Time 264960, Note Name: A4, Velocity: 39
Note ON: Time 265080, Note Name: C#5, Velocity: 31
Note OFF: Time 265100, Note Name: A4
Note ON: Time 265200, Note Name: A4, Velocity: 34
Note OFF: Time 265220, Note Name: C#5
Note ON: Time 265320, Note Name: C#5, Velocity: 30
Note OFF: Time 265340, Note Name: A4
Note ON: Time 265440, Note Name: F#4, Velocity: 39
Note OFF: Time 265460, Note Name: C#5
Note ON: Time 265560, Note Name: C#5, Velocity: 31
Note OFF: Time 265580, Note Name: F#4
Note ON: Time 265680, Note Name: A4, Velocity: 34
Note OFF: Time 265700, Note Name: C#5
Note ON: Time 265800, Note Name: C#5, Velocity: 31
Note OFF: Time 265820, Note Name: A4
Note ON: Time 265920, Note Name: F#4, Velocity: 39
Note OFF: Time 265940, Note Name: C#5
Note ON: Time 266040, Note Name: C#5, Velocity: 32
Note OFF: Time 266060, Note Name: F#4
Note ON: Time 266160, Note Name: A4, Velocity: 34
Note OFF: Time 266180, Note Name: C#5
Note ON: Time 266280, Note Name: C#5, Velocity: 30
Note OFF: Time 266300, Note Name: A4
Note ON: Time 266400, Note Name: F#4, Velocity: 39
Note OFF: Time 266420, Note Name: C#5
Note ON: Time 266520, Note Name: C#5, Velocity: 32
Note OFF: Time 266540, Note Name: F#4
Note ON: Time 266640, Note Name: A4, Velocity: 34
Note OFF: Time 266660, Note Name: C#5
Note ON: Time 266760, Note Name: C#5, Velocity: 31
Note OFF: Time 266780, Note Name: A4
Note ON: Time 266880, Note Name: G#4, Velocity: 39
Note OFF: Time 266900, Note Name: C#5
Note ON: Time 267000, Note Name: C#5, Velocity: 32
Note OFF: Time 267020, Note Name: G#4
Note ON: Time 267120, Note Name: B4, Velocity: 34
Note OFF: Time 267140, Note Name: C#5
Note ON: Time 267240, Note Name: C#5, Velocity: 32
Note OFF: Time 267260, Note Name: B4
Note ON: Time 267360, Note Name: G#4, Velocity: 47
Note OFF: Time 267380, Note Name: C#5
Note ON: Time 267480, Note Name: C#5, Velocity: 41
Note OFF: Time 267500, Note Name: G#4
Note ON: Time 267600, Note Name: B4, Velocity: 47
Note OFF: Time 267620, Note Name: C#5
Note ON: Time 267720, Note Name: C#5, Velocity: 44
Note OFF: Time 267740, Note Name: B4
Note ON: Time 267840, Note Name: G#4, Velocity: 58
Note OFF: Time 267860, Note Name: C#5
Note ON: Time 267960, Note Name: C#5, Velocity: 47
Note OFF: Time 267980, Note Name: G#4
Note ON: Time 268080, Note Name: B4, Velocity: 54
Note OFF: Time 268100, Note Name: C#5
Note ON: Time 268200, Note Name: C#5, Velocity: 50
Note OFF: Time 268220, Note Name: B4
Note ON: Time 268320, Note Name: G#4, Velocity: 64
Note OFF: Time 268340, Note Name: C#5
Note ON: Time 268440, Note Name: C#5, Velocity: 49
Note OFF: Time 268460, Note Name: G#4
Note ON: Time 268560, Note Name: B4, Velocity: 51
Note OFF: Time 268580, Note Name: C#5
Note ON: Time 268680, Note Name: C#5, Velocity: 44
Note OFF: Time 268700, Note Name: B4
Note ON: Time 268800, Note Name: F#4, Velocity: 39
Note OFF: Time 268820, Note Name: C#5
Note ON: Time 268920, Note Name: C#5, Velocity: 31
Note OFF: Time 268940, Note Name: F#4
Note ON: Time 269040, Note Name: A4, Velocity: 34
Note OFF: Time 269060, Note Name: C#5
Note ON: Time 269160, Note Name: C#5, Velocity: 39
Note OFF: Time 269180, Note Name: A4
Note ON: Time 269280, Note Name: F#4, Velocity: 48
Note OFF: Time 269300, Note Name: C#5
Note ON: Time 269400, Note Name: C#5, Velocity: 42
Note OFF: Time 269420, Note Name: F#4
Note ON: Time 269520, Note Name: A4, Velocity: 48
Note OFF: Time 269540, Note Name: C#5
Note ON: Time 269640, Note Name: C#5, Velocity: 45
Note OFF: Time 269660, Note Name: A4
Note ON: Time 269760, Note Name: F#4, Velocity: 58
Note OFF: Time 269780, Note Name: C#5
Note ON: Time 269880, Note Name: C#5, Velocity: 48
Note OFF: Time 269900, Note Name: F#4
Note ON: Time 270000, Note Name: A4, Velocity: 54
Note OFF: Time 270020, Note Name: C#5
Note ON: Time 270120, Note Name: C#5, Velocity: 50
Note OFF: Time 270140, Note Name: A4
Note ON: Time 270240, Note Name: F#4, Velocity: 64
Note OFF: Time 270260, Note Name: C#5
Note ON: Time 270360, Note Name: C#5, Velocity: 51
Note OFF: Time 270380, Note Name: F#4
Note ON: Time 270480, Note Name: A4, Velocity: 51
Note OFF: Time 270500, Note Name: C#5
Note ON: Time 270600, Note Name: C#5, Velocity: 45
Note OFF: Time 270620, Note Name: A4
Note ON: Time 270720, Note Name: F#4, Velocity: 39
Note OFF: Time 270740, Note Name: C#5
Note ON: Time 270840, Note Name: D5, Velocity: 31
Note OFF: Time 270860, Note Name: F#4
Note ON: Time 270960, Note Name: A4, Velocity: 34
Note OFF: Time 270980, Note Name: D5
Note ON: Time 271080, Note Name: D5, Velocity: 32
Note OFF: Time 271100, Note Name: A4
Note ON: Time 271200, Note Name: F#4, Velocity: 45
Note OFF: Time 271220, Note Name: D5
Note ON: Time 271320, Note Name: D5, Velocity: 31
Note OFF: Time 271340, Note Name: F#4
Note ON: Time 271440, Note Name: A4, Velocity: 34
Note OFF: Time 271460, Note Name: D5
Note ON: Time 271560, Note Name: D5, Velocity: 34
Note OFF: Time 271580, Note Name: A4
Note ON: Time 271680, Note Name: A4, Velocity: 48
Note OFF: Time 271700, Note Name: D5
Note ON: Time 271800, Note Name: D5, Velocity: 34
Note OFF: Time 271820, Note Name: A4
Note ON: Time 271920, Note Name: C5, Velocity: 38
Note OFF: Time 271940, Note Name: D5
Note ON: Time 272040, Note Name: D5, Velocity: 34
Note OFF: Time 272060, Note Name: C5
Note ON: Time 272160, Note Name: A4, Velocity: 53
Note OFF: Time 272180, Note Name: D5
Note ON: Time 272280, Note Name: D5, Velocity: 34
Note OFF: Time 272300, Note Name: A4
Note ON: Time 272400, Note Name: C5, Velocity: 39
Note OFF: Time 272420, Note Name: D5
Note ON: Time 272520, Note Name: D5, Velocity: 34
Note OFF: Time 272540, Note Name: C5
Note ON: Time 272640, Note Name: G4, Velocity: 53
Note OFF: Time 272660, Note Name: D5
Note ON: Time 272760, Note Name: D5, Velocity: 32
Note OFF: Time 272780, Note Name: G4
Note ON: Time 272880, Note Name: B4, Velocity: 34
Note OFF: Time 272900, Note Name: D5
Note ON: Time 273000, Note Name: D5, Velocity: 32
Note OFF: Time 273020, Note Name: B4
Note ON: Time 273120, Note Name: G4, Velocity: 39
Note OFF: Time 273140, Note Name: D5
Note ON: Time 273240, Note Name: D5, Velocity: 33
Note OFF: Time 273260, Note Name: G4
Note ON: Time 273360, Note Name: B4, Velocity: 35
Note OFF: Time 273380, Note Name: D5
Note ON: Time 273480, Note Name: D5, Velocity: 31
Note OFF: Time 273500, Note Name: B4
Note ON: Time 273600, Note Name: G4, Velocity: 39
Note OFF: Time 273620, Note Name: D5
Note ON: Time 273720, Note Name: D5, Velocity: 32
Note OFF: Time 273740, Note Name: G4
Note ON: Time 273840, Note Name: B4, Velocity: 34
Note OFF: Time 273860, Note Name: D5
Note ON: Time 273960, Note Name: D5, Velocity: 31
Note OFF: Time 273980, Note Name: B4
Note ON: Time 274080, Note Name: G4, Velocity: 39
Note OFF: Time 274100, Note Name: D5
Note ON: Time 274200, Note Name: D5, Velocity: 32
Note OFF: Time 274220, Note Name: G4
Note ON: Time 274320, Note Name: B4, Velocity: 34
Note OFF: Time 274340, Note Name: D5
Note ON: Time 274440, Note Name: D5, Velocity: 32
Note OFF: Time 274460, Note Name: B4
Note ON: Time 274560, Note Name: A4, Velocity: 39
Note OFF: Time 274580, Note Name: D5
Note ON: Time 274680, Note Name: D5, Velocity: 32
Note OFF: Time 274700, Note Name: A4
Note ON: Time 274800, Note Name: C5, Velocity: 35
Note OFF: Time 274820, Note Name: D5
Note ON: Time 274920, Note Name: D5, Velocity: 32
Note OFF: Time 274940, Note Name: C5
Note ON: Time 275040, Note Name: A4, Velocity: 50
Note OFF: Time 275060, Note Name: D5
Note ON: Time 275160, Note Name: D5, Velocity: 41
Note OFF: Time 275180, Note Name: A4
Note ON: Time 275280, Note Name: C5, Velocity: 47
Note OFF: Time 275300, Note Name: D5
Note ON: Time 275400, Note Name: D5, Velocity: 44
Note OFF: Time 275420, Note Name: C5
Note ON: Time 275520, Note Name: A4, Velocity: 58
Note OFF: Time 275540, Note Name: D5
Note ON: Time 275640, Note Name: D5, Velocity: 46
Note OFF: Time 275660, Note Name: A4
Note ON: Time 275760, Note Name: C5, Velocity: 54
Note OFF: Time 275780, Note Name: D5
Note ON: Time 275880, Note Name: D5, Velocity: 49
Note OFF: Time 275900, Note Name: C5
Note ON: Time 276000, Note Name: A4, Velocity: 63
Note OFF: Time 276020, Note Name: D5
Note ON: Time 276120, Note Name: D5, Velocity: 49
Note OFF: Time 276140, Note Name: A4
Note ON: Time 276240, Note Name: C5, Velocity: 51
Note OFF: Time 276260, Note Name: D5
Note ON: Time 276360, Note Name: D5, Velocity: 44
Note OFF: Time 276380, Note Name: C5
Note ON: Time 276480, Note Name: G4, Velocity: 39
Note OFF: Time 276500, Note Name: D5
Note ON: Time 276600, Note Name: D5, Velocity: 32
Note OFF: Time 276620, Note Name: G4
Note ON: Time 276720, Note Name: B4, Velocity: 34
Note OFF: Time 276740, Note Name: D5
Note ON: Time 276840, Note Name: D5, Velocity: 31
Note OFF: Time 276860, Note Name: B4
Note ON: Time 276960, Note Name: G4, Velocity: 50
Note OFF: Time 276980, Note Name: D5
Note ON: Time 277080, Note Name: D5, Velocity: 42
Note OFF: Time 277100, Note Name: G4
Note ON: Time 277200, Note Name: B4, Velocity: 48
Note OFF: Time 277220, Note Name: D5
Note ON: Time 277320, Note Name: D5, Velocity: 46
Note OFF: Time 277340, Note Name: B4
Note ON: Time 277440, Note Name: G4, Velocity: 61
Note OFF: Time 277460, Note Name: D5
Note ON: Time 277560, Note Name: D5, Velocity: 49
Note OFF: Time 277580, Note Name: G4
Note ON: Time 277680, Note Name: B4, Velocity: 55
Note OFF: Time 277700, Note Name: D5
Note ON: Time 277800, Note Name: D5, Velocity: 52
Note OFF: Time 277820, Note Name: B4
Note ON: Time 277920, Note Name: G4, Velocity: 69
Note OFF: Time 277940, Note Name: D5
Note ON: Time 278040, Note Name: D5, Velocity: 54
Note OFF: Time 278060, Note Name: G4
Note ON: Time 278160, Note Name: B4, Velocity: 55
Note OFF: Time 278180, Note Name: D5
Note ON: Time 278280, Note Name: D5, Velocity: 45
Note OFF: Time 278300, Note Name: B4
Note ON: Time 278400, Note Name: G#4, Velocity: 43
Note OFF: Time 278420, Note Name: D5
Note ON: Time 278520, Note Name: D5, Velocity: 34
Note OFF: Time 278540, Note Name: G#4
Note ON: Time 278640, Note Name: B4, Velocity: 38
Note OFF: Time 278660, Note Name: D5
Note ON: Time 278760, Note Name: D5, Velocity: 34
Note OFF: Time 278780, Note Name: B4
Note ON: Time 278880, Note Name: G#4, Velocity: 56
Note OFF: Time 278900, Note Name: D5
Note ON: Time 279000, Note Name: C#5, Velocity: 45
Note OFF: Time 279020, Note Name: G#4
Note ON: Time 279120, Note Name: B4, Velocity: 54
Note OFF: Time 279140, Note Name: C#5
Note ON: Time 279240, Note Name: C#5, Velocity: 48
Note OFF: Time 279260, Note Name: B4
Note ON: Time 279360, Note Name: G#4, Velocity: 67
Note OFF: Time 279380, Note Name: C#5
Note ON: Time 279480, Note Name: C#5, Velocity: 52
Note OFF: Time 279500, Note Name: G#4
Note ON: Time 279600, Note Name: B4, Velocity: 65
Note OFF: Time 279620, Note Name: C#5
Note ON: Time 279720, Note Name: C#5, Velocity: 55
Note OFF: Time 279740, Note Name: B4
Note ON: Time 279840, Note Name: G#4, Velocity: 78
Note OFF: Time 279860, Note Name: C#5
Note ON: Time 279960, Note Name: C#5, Velocity: 59
Note OFF: Time 279980, Note Name: G#4
Note ON: Time 280080, Note Name: B4, Velocity: 61
Note OFF: Time 280100, Note Name: C#5
Note ON: Time 280200, Note Name: C#5, Velocity: 49
Note OFF: Time 280220, Note Name: B4
Note ON: Time 280320, Note Name: F#4, Velocity: 57
Note OFF: Time 280340, Note Name: C#5
Note ON: Time 280440, Note Name: C#5, Velocity: 44
Note OFF: Time 280460, Note Name: F#4
Note ON: Time 280560, Note Name: A4, Velocity: 47
Note OFF: Time 280580, Note Name: C#5
Note ON: Time 280680, Note Name: C#5, Velocity: 43
Note OFF: Time 280700, Note Name: A4
Note ON: Time 280800, Note Name: F#4, Velocity: 56
Note OFF: Time 280820, Note Name: C#5
Note ON: Time 280920, Note Name: C#5, Velocity: 44
Note OFF: Time 280940, Note Name: F#4
Note ON: Time 281040, Note Name: A4, Velocity: 47
Note OFF: Time 281060, Note Name: C#5
Note ON: Time 281160, Note Name: C#5, Velocity: 44
Note OFF: Time 281180, Note Name: A4
Note ON: Time 281280, Note Name: F#4, Velocity: 56
Note OFF: Time 281300, Note Name: C#5
Note ON: Time 281400, Note Name: F#5, Velocity: 43
Note OFF: Time 281420, Note Name: F#4
Note ON: Time 281520, Note Name: A4, Velocity: 46
Note OFF: Time 281540, Note Name: F#5
Note ON: Time 281640, Note Name: F#5, Velocity: 42
Note OFF: Time 281660, Note Name: A4
Note ON: Time 281760, Note Name: F#4, Velocity: 54
Note OFF: Time 281780, Note Name: F#5
Note ON: Time 281880, Note Name: F#5, Velocity: 45
Note OFF: Time 281900, Note Name: F#4
Note ON: Time 282000, Note Name: A4, Velocity: 47
Note OFF: Time 282020, Note Name: F#5
Note ON: Time 282120, Note Name: F#5, Velocity: 43
Note OFF: Time 282140, Note Name: A4
Note ON: Time 282240, Note Name: F#4, Velocity: 62
Note OFF: Time 282260, Note Name: F#5
Note ON: Time 282360, Note Name: F#5, Velocity: 41
Note OFF: Time 282380, Note Name: F#4
Note ON: Time 282480, Note Name: D#5, Velocity: 47
Note ON: Time 282480, Note Name: G#4, Velocity: 47
Note OFF: Time 282500, Note Name: F#5
Note ON: Time 282600, Note Name: F#5, Velocity: 42
Note OFF: Time 282620, Note Name: G#4
Note OFF: Time 282620, Note Name: D#5
Note ON: Time 282720, Note Name: F#4, Velocity: 59
Note OFF: Time 282740, Note Name: F#5
Note ON: Time 282840, Note Name: F#5, Velocity: 43
Note OFF: Time 282860, Note Name: F#4
Note ON: Time 282960, Note Name: D#5, Velocity: 47
Note ON: Time 282960, Note Name: G#4, Velocity: 47
Note OFF: Time 282980, Note Name: F#5
Note ON: Time 283080, Note Name: F#5, Velocity: 44
Note OFF: Time 283100, Note Name: G#4
Note OFF: Time 283100, Note Name: D#5
Note ON: Time 283200, Note Name: F#4, Velocity: 58
Note OFF: Time 283220, Note Name: F#5
Note ON: Time 283320, Note Name: F#5, Velocity: 45
Note OFF: Time 283340, Note Name: F#4
Note ON: Time 283440, Note Name: G#4, Velocity: 47
Note ON: Time 283440, Note Name: D#5, Velocity: 47
Note OFF: Time 283460, Note Name: F#5
Note ON: Time 283560, Note Name: F#5, Velocity: 42
Note OFF: Time 283580, Note Name: D#5
Note OFF: Time 283580, Note Name: G#4
Note ON: Time 283680, Note Name: F#4, Velocity: 58
Note OFF: Time 283700, Note Name: F#5
Note ON: Time 283800, Note Name: F#5, Velocity: 43
Note OFF: Time 283820, Note Name: F#4
Note ON: Time 283920, Note Name: D#5, Velocity: 47
Note ON: Time 283920, Note Name: G#4, Velocity: 47
Note OFF: Time 283940, Note Name: F#5
Note ON: Time 284040, Note Name: F#5, Velocity: 42
Note OFF: Time 284060, Note Name: G#4
Note OFF: Time 284060, Note Name: D#5
Note ON: Time 284160, Note Name: E4, Velocity: 65
Note OFF: Time 284180, Note Name: F#5
Note ON: Time 284280, Note Name: E5, Velocity: 52
Note OFF: Time 284300, Note Name: E4
Note ON: Time 284400, Note Name: C#5, Velocity: 56
Note OFF: Time 284420, Note Name: E5
Note ON: Time 284520, Note Name: E5, Velocity: 52
Note OFF: Time 284540, Note Name: C#5
Note ON: Time 284640, Note Name: E4, Velocity: 65
Note OFF: Time 284660, Note Name: E5
Note ON: Time 284760, Note Name: E5, Velocity: 52
Note OFF: Time 284780, Note Name: E4
Note ON: Time 284880, Note Name: C#5, Velocity: 56
Note OFF: Time 284900, Note Name: E5
Note ON: Time 285000, Note Name: E5, Velocity: 51
Note OFF: Time 285020, Note Name: C#5
Note ON: Time 285120, Note Name: E4, Velocity: 65
Note OFF: Time 285140, Note Name: E5
Note ON: Time 285240, Note Name: E5, Velocity: 53
Note OFF: Time 285260, Note Name: E4
Note ON: Time 285360, Note Name: C#5, Velocity: 57
Note OFF: Time 285380, Note Name: E5
Note ON: Time 285480, Note Name: E5, Velocity: 51
Note OFF: Time 285500, Note Name: C#5
Note ON: Time 285600, Note Name: E4, Velocity: 65
Note OFF: Time 285620, Note Name: E5
Note ON: Time 285720, Note Name: E5, Velocity: 53
Note OFF: Time 285740, Note Name: E4
Note ON: Time 285840, Note Name: C#5, Velocity: 57
Note OFF: Time 285860, Note Name: E5
Note ON: Time 285960, Note Name: E5, Velocity: 52
Note OFF: Time 285980, Note Name: C#5
Note ON: Time 286080, Note Name: D#4, Velocity: 65
Note OFF: Time 286100, Note Name: E5
Note ON: Time 286200, Note Name: D#5, Velocity: 53
Note OFF: Time 286220, Note Name: D#4
Note ON: Time 286320, Note Name: C#5, Velocity: 58
Note OFF: Time 286340, Note Name: D#5
Note ON: Time 286440, Note Name: D#5, Velocity: 52
Note OFF: Time 286460, Note Name: C#5
Note ON: Time 286560, Note Name: D#4, Velocity: 65
Note OFF: Time 286580, Note Name: D#5
Note ON: Time 286680, Note Name: D#5, Velocity: 51
Note OFF: Time 286700, Note Name: D#4
Note ON: Time 286800, Note Name: C#5, Velocity: 57
Note OFF: Time 286820, Note Name: D#5
Note ON: Time 286920, Note Name: D#5, Velocity: 52
Note OFF: Time 286940, Note Name: C#5
Note ON: Time 287040, Note Name: D#4, Velocity: 65
Note OFF: Time 287060, Note Name: D#5
Note ON: Time 287160, Note Name: D#5, Velocity: 51
Note OFF: Time 287180, Note Name: D#4
Note ON: Time 287280, Note Name: C#5, Velocity: 56
Note OFF: Time 287300, Note Name: D#5
Note ON: Time 287400, Note Name: D#5, Velocity: 51
Note OFF: Time 287420, Note Name: C#5
Note ON: Time 287520, Note Name: D#4, Velocity: 65
Note OFF: Time 287540, Note Name: D#5
Note ON: Time 287640, Note Name: D#5, Velocity: 51
Note OFF: Time 287660, Note Name: D#4
Note ON: Time 287760, Note Name: C#5, Velocity: 56
Note OFF: Time 287780, Note Name: D#5
Note ON: Time 287880, Note Name: D#5, Velocity: 51
Note OFF: Time 287900, Note Name: C#5
Note OFF: Time 288000, Note Name: D#5
Note ON: Time 288000, Note Name: D#4, Velocity: 68
Note ON: Time 288000, Note Name: C5, Velocity: 78
Note ON: Time 288000, Note Name: D#5, Velocity: 80
Note OFF: Time 288240, Note Name: D#5
Note OFF: Time 288240, Note Name: C5
Note OFF: Time 288240, Note Name: D#4
Note ON: Time 288480, Note Name: G#4, Velocity: 54
Note OFF: Time 289440, Note Name: G#4
Note ON: Time 289440, Note Name: A4, Velocity: 51
Note OFF: Time 289680, Note Name: A4
Note ON: Time 289680, Note Name: G#4, Velocity: 51
Note OFF: Time 289920, Note Name: G#4
Note ON: Time 289920, Note Name: A3, Velocity: 50
Note ON: Time 289920, Note Name: C#4, Velocity: 50
Note ON: Time 289920, Note Name: F#4, Velocity: 59
Note OFF: Time 290400, Note Name: F#4
Note ON: Time 290400, Note Name: G#4, Velocity: 49
Note OFF: Time 290640, Note Name: G#4
Note ON: Time 290640, Note Name: F#4, Velocity: 49
Note OFF: Time 290880, Note Name: F#4
Note OFF: Time 290880, Note Name: C#4
Note OFF: Time 290880, Note Name: A3
Note ON: Time 290880, Note Name: B3, Velocity: 50
Note ON: Time 290880, Note Name: G#3, Velocity: 50
Note ON: Time 290880, Note Name: E4, Velocity: 59
Note OFF: Time 291360, Note Name: E4
Note ON: Time 291360, Note Name: F#4, Velocity: 48
Note OFF: Time 291600, Note Name: F#4
Note ON: Time 291600, Note Name: E4, Velocity: 48
Note OFF: Time 291840, Note Name: E4
Note OFF: Time 291840, Note Name: G#3
Note OFF: Time 291840, Note Name: B3
Note ON: Time 291840, Note Name: F#3, Velocity: 49
Note ON: Time 291840, Note Name: D#4, Velocity: 58
Note ON: Time 291840, Note Name: A3, Velocity: 49
Note OFF: Time 292320, Note Name: D#4
Note ON: Time 292320, Note Name: E4, Velocity: 47
Note OFF: Time 292560, Note Name: E4
Note ON: Time 292560, Note Name: D#4, Velocity: 47
Note OFF: Time 292800, Note Name: D#4
Note OFF: Time 292800, Note Name: A3
Note OFF: Time 292800, Note Name: F#3
Note ON: Time 292800, Note Name: E3, Velocity: 49
Note ON: Time 292800, Note Name: G#3, Velocity: 49
Note ON: Time 292800, Note Name: C#4, Velocity: 58
Note OFF: Time 293280, Note Name: C#4
Note ON: Time 293280, Note Name: D#4, Velocity: 51
Note OFF: Time 293520, Note Name: D#4
Note ON: Time 293520, Note Name: C#4, Velocity: 51
Note OFF: Time 293760, Note Name: C#4
Note OFF: Time 293760, Note Name: G#3
Note OFF: Time 293760, Note Name: E3
Note ON: Time 293760, Note Name: C4, Velocity: 58
Note ON: Time 293760, Note Name: F#3, Velocity: 49
Note ON: Time 293760, Note Name: D#3, Velocity: 49
Note OFF: Time 294720, Note Name: D#3
Note OFF: Time 294720, Note Name: F#3
Note OFF: Time 294720, Note Name: C4
Note ON: Time 294720, Note Name: C#3, Velocity: 48
Note ON: Time 294720, Note Name: C#4, Velocity: 57
Note ON: Time 294720, Note Name: E3, Velocity: 48
Note OFF: Time 295560, Note Name: E3
Note OFF: Time 295560, Note Name: C#4
Note OFF: Time 295560, Note Name: C#3
Note ON: Time 295560, Note Name: C3, Velocity: 48
Note OFF: Time 295620, Note Name: C3
Note ON: Time 295620, Note Name: G#3, Velocity: 48
Note OFF: Time 295680, Note Name: G#3
Note ON: Time 295680, Note Name: D#4, Velocity: 58
Note OFF: Time 296040, Note Name: D#4
Note ON: Time 296160, Note Name: G#5, Velocity: 63
Note OFF: Time 296880, Note Name: G#5
Note ON: Time 296880, Note Name: G#5, Velocity: 67
Note OFF: Time 297000, Note Name: G#5
Note ON: Time 297120, Note Name: A5, Velocity: 68
Note OFF: Time 297240, Note Name: A5
Note ON: Time 297360, Note Name: G#5, Velocity: 66
Note OFF: Time 297480, Note Name: G#5
Note ON: Time 297600, Note Name: F#5, Velocity: 68
Note OFF: Time 297720, Note Name: F#5
Note ON: Time 297840, Note Name: C#5, Velocity: 56
Note ON: Time 297840, Note Name: A4, Velocity: 47
Note ON: Time 297840, Note Name: F#5, Velocity: 56
Note OFF: Time 297960, Note Name: F#5
Note OFF: Time 297960, Note Name: A4
Note OFF: Time 297960, Note Name: C#5
Note ON: Time 298080, Note Name: B4, Velocity: 48
Note ON: Time 298080, Note Name: G#5, Velocity: 57
Note ON: Time 298080, Note Name: D#5, Velocity: 57
Note OFF: Time 298200, Note Name: D#5
Note OFF: Time 298200, Note Name: G#5
Note OFF: Time 298200, Note Name: B4
Note ON: Time 298320, Note Name: A4, Velocity: 48
Note ON: Time 298320, Note Name: C#5, Velocity: 57
Note ON: Time 298320, Note Name: F#5, Velocity: 57
Note OFF: Time 298440, Note Name: F#5
Note OFF: Time 298440, Note Name: C#5
Note OFF: Time 298440, Note Name: A4
Note ON: Time 298560, Note Name: B4, Velocity: 59
Note ON: Time 298560, Note Name: E5, Velocity: 59
Note ON: Time 298560, Note Name: G#4, Velocity: 50
Note OFF: Time 298680, Note Name: G#4
Note OFF: Time 298680, Note Name: E5
Note OFF: Time 298680, Note Name: B4
Note ON: Time 298800, Note Name: G#4, Velocity: 51
Note ON: Time 298800, Note Name: B4, Velocity: 60
Note ON: Time 298800, Note Name: E5, Velocity: 60
Note OFF: Time 298920, Note Name: E5
Note OFF: Time 298920, Note Name: B4
Note OFF: Time 298920, Note Name: G#4
Note ON: Time 299040, Note Name: A4, Velocity: 51
Note ON: Time 299040, Note Name: C#5, Velocity: 61
Note ON: Time 299040, Note Name: F#5, Velocity: 61
Note OFF: Time 299160, Note Name: F#5
Note OFF: Time 299160, Note Name: C#5
Note OFF: Time 299160, Note Name: A4
Note ON: Time 299280, Note Name: E5, Velocity: 62
Note ON: Time 299280, Note Name: G#4, Velocity: 52
Note ON: Time 299280, Note Name: B4, Velocity: 62
Note OFF: Time 299400, Note Name: B4
Note OFF: Time 299400, Note Name: G#4
Note OFF: Time 299400, Note Name: E5
Note ON: Time 299520, Note Name: A4, Velocity: 62
Note ON: Time 299520, Note Name: D#5, Velocity: 62
Note ON: Time 299520, Note Name: F#4, Velocity: 52
Note OFF: Time 299640, Note Name: F#4
Note OFF: Time 299640, Note Name: D#5
Note OFF: Time 299640, Note Name: A4
Note ON: Time 299760, Note Name: A4, Velocity: 63
Note ON: Time 299760, Note Name: D#5, Velocity: 63
Note ON: Time 299760, Note Name: F#4, Velocity: 53
Note OFF: Time 299880, Note Name: F#4
Note OFF: Time 299880, Note Name: D#5
Note OFF: Time 299880, Note Name: A4
Note ON: Time 300000, Note Name: G#4, Velocity: 56
Note ON: Time 300000, Note Name: B4, Velocity: 66
Note ON: Time 300000, Note Name: E5, Velocity: 66
Note OFF: Time 300120, Note Name: E5
Note OFF: Time 300120, Note Name: B4
Note OFF: Time 300120, Note Name: G#4
Note ON: Time 300240, Note Name: F#4, Velocity: 56
Note ON: Time 300240, Note Name: A4, Velocity: 67
Note ON: Time 300240, Note Name: D#5, Velocity: 67
Note OFF: Time 300360, Note Name: D#5
Note OFF: Time 300360, Note Name: A4
Note OFF: Time 300360, Note Name: F#4
Note ON: Time 300480, Note Name: C#5, Velocity: 68
Note ON: Time 300480, Note Name: G#4, Velocity: 68
Note ON: Time 300480, Note Name: E4, Velocity: 57
Note OFF: Time 300600, Note Name: E4
Note OFF: Time 300600, Note Name: G#4
Note OFF: Time 300600, Note Name: C#5
Note ON: Time 300720, Note Name: E4, Velocity: 57
Note ON: Time 300720, Note Name: C#5, Velocity: 68
Note ON: Time 300720, Note Name: G#4, Velocity: 68
Note OFF: Time 300840, Note Name: G#4
Note OFF: Time 300840, Note Name: C#5
Note OFF: Time 300840, Note Name: E4
Note ON: Time 300960, Note Name: F#4, Velocity: 51
Note ON: Time 300960, Note Name: D#5, Velocity: 60
Note ON: Time 300960, Note Name: A4, Velocity: 60
Note OFF: Time 301080, Note Name: A4
Note OFF: Time 301080, Note Name: D#5
Note OFF: Time 301080, Note Name: F#4
Note ON: Time 301200, Note Name: G#4, Velocity: 54
Note ON: Time 301200, Note Name: E4, Velocity: 45
Note ON: Time 301200, Note Name: C#5, Velocity: 54
Note OFF: Time 301320, Note Name: C#5
Note OFF: Time 301320, Note Name: E4
Note OFF: Time 301320, Note Name: G#4
Note ON: Time 301440, Note Name: C5, Velocity: 48
Note ON: Time 301440, Note Name: D#4, Velocity: 40
Note ON: Time 301440, Note Name: F#4, Velocity: 48
Note OFF: Time 302400, Note Name: F#4
Note OFF: Time 302400, Note Name: D#4
Note OFF: Time 302400, Note Name: C5
Note ON: Time 302400, Note Name: E4, Velocity: 56
Note ON: Time 302400, Note Name: C#5, Velocity: 56
Note ON: Time 302400, Note Name: C#4, Velocity: 47
Note OFF: Time 303240, Note Name: C#4
Note OFF: Time 303240, Note Name: C#5
Note OFF: Time 303240, Note Name: E4
Note ON: Time 303240, Note Name: C4, Velocity: 49
Note OFF: Time 303300, Note Name: C4
Note ON: Time 303300, Note Name: F#4, Velocity: 59
Note ON: Time 303360, Note Name: D#5, Velocity: 80
Note OFF: Time 304800, Note Name: D#5
Note OFF: Time 304800, Note Name: F#4
Note ON: Time 304800, Note Name: C#5, Velocity: 58
Note ON: Time 304800, Note Name: E4, Velocity: 58
Note ON: Time 304800, Note Name: C#4, Velocity: 49
Note OFF: Time 305280, Note Name: C#4
Note OFF: Time 305280, Note Name: E4
Note OFF: Time 305280, Note Name: C#5
Note ON: Time 305280, Note Name: D#4, Velocity: 39
Note ON: Time 305280, Note Name: C5, Velocity: 47
Note ON: Time 305280, Note Name: F#4, Velocity: 47
Note OFF: Time 305520, Note Name: F#4
Note OFF: Time 305520, Note Name: C5
Note OFF: Time 305520, Note Name: D#4
Note ON: Time 305760, Note Name: F#4, Velocity: 53
Note ON: Time 305760, Note Name: C5, Velocity: 53
Note ON: Time 305760, Note Name: D#4, Velocity: 45
Note OFF: Time 306000, Note Name: D#4
Note OFF: Time 306000, Note Name: C5
Note OFF: Time 306000, Note Name: F#4
Note ON: Time 306240, Note Name: C#5, Velocity: 62
Note ON: Time 306240, Note Name: E4, Velocity: 62
Note ON: Time 306240, Note Name: C#4, Velocity: 52
Note OFF: Time 306480, Note Name: C#4
Note OFF: Time 306480, Note Name: E4
Note OFF: Time 306480, Note Name: C#5
Note ON: Time 306720, Note Name: E4, Velocity: 68
Note ON: Time 306720, Note Name: C#4, Velocity: 57
Note ON: Time 306720, Note Name: C#5, Velocity: 68
Note OFF: Time 306960, Note Name: C#5
Note OFF: Time 306960, Note Name: C#4
Note OFF: Time 306960, Note Name: E4
Note ON: Time 307080, Note Name: C4, Velocity: 51
Note OFF: Time 307140, Note Name: C4
Note ON: Time 307140, Note Name: F#4, Velocity: 59
Note ON: Time 307200, Note Name: D#5, Velocity: 80
Note OFF: Time 308640, Note Name: D#5
Note OFF: Time 308640, Note Name: F#4
Note ON: Time 308640, Note Name: E4, Velocity: 48
Note ON: Time 308640, Note Name: C#4, Velocity: 40
Note OFF: Time 308880, Note Name: C#4
Note OFF: Time 308880, Note Name: E4
Note ON: Time 308880, Note Name: C#5, Velocity: 43
Note OFF: Time 309120, Note Name: C#5
Note ON: Time 309120, Note Name: F#4, Velocity: 51
Note ON: Time 309120, Note Name: D#4, Velocity: 43
Note OFF: Time 309360, Note Name: D#4
Note OFF: Time 309360, Note Name: F#4
Note ON: Time 309360, Note Name: C5, Velocity: 47
Note OFF: Time 309600, Note Name: C5
Note ON: Time 309600, Note Name: D#4, Velocity: 48
Note ON: Time 309600, Note Name: F#4, Velocity: 57
Note OFF: Time 309840, Note Name: F#4
Note OFF: Time 309840, Note Name: D#4
Note ON: Time 309840, Note Name: C5, Velocity: 53
Note OFF: Time 310080, Note Name: C5
Note ON: Time 310080, Note Name: C#4, Velocity: 57
Note ON: Time 310080, Note Name: E4, Velocity: 68
Note OFF: Time 310320, Note Name: E4
Note OFF: Time 310320, Note Name: C#4
Note ON: Time 310320, Note Name: C#5, Velocity: 57
Note OFF: Time 310560, Note Name: C#5
Note ON: Time 310560, Note Name: C#4, Velocity: 60
Note ON: Time 310560, Note Name: E4, Velocity: 71
Note OFF: Time 310800, Note Name: E4
Note OFF: Time 310800, Note Name: C#4
Note ON: Time 310800, Note Name: C#5, Velocity: 65
Note OFF: Time 311040, Note Name: C#5
Note ON: Time 311040, Note Name: C4, Velocity: 68
Note ON: Time 311040, Note Name: F#4, Velocity: 80
Note OFF: Time 311280, Note Name: F#4
Note OFF: Time 311280, Note Name: C4
Note ON: Time 311280, Note Name: D#5, Velocity: 69
Note OFF: Time 311520, Note Name: D#5
Note ON: Time 311520, Note Name: C4, Velocity: 62
Note ON: Time 311520, Note Name: F#4, Velocity: 73
Note OFF: Time 311760, Note Name: F#4
Note OFF: Time 311760, Note Name: C4
Note ON: Time 311760, Note Name: D#5, Velocity: 58
Note OFF: Time 312000, Note Name: D#5
Note ON: Time 312000, Note Name: E4, Velocity: 63
Note ON: Time 312000, Note Name: C#4, Velocity: 53
Note OFF: Time 312240, Note Name: C#4
Note OFF: Time 312240, Note Name: E4
Note ON: Time 312240, Note Name: C#5, Velocity: 51
Note OFF: Time 312480, Note Name: C#5
Note ON: Time 312480, Note Name: E4, Velocity: 57
Note ON: Time 312480, Note Name: C#4, Velocity: 48
Note OFF: Time 312720, Note Name: C#4
Note OFF: Time 312720, Note Name: E4
Note ON: Time 312720, Note Name: C#5, Velocity: 53
Note OFF: Time 312960, Note Name: C#5
Note ON: Time 312960, Note Name: D#4, Velocity: 47
Note ON: Time 312960, Note Name: A3, Velocity: 39
Note ON: Time 312960, Note Name: C#4, Velocity: 39
Note ON: Time 312960, Note Name: A4, Velocity: 47
Note OFF: Time 314880, Note Name: A4
Note OFF: Time 314880, Note Name: D#4
Note OFF: Time 314880, Note Name: A3
Note OFF: Time 314880, Note Name: C#4
Note ON: Time 314880, Note Name: D#4, Velocity: 31
Note ON: Time 314880, Note Name: G#4, Velocity: 31
Note ON: Time 314880, Note Name: G#3, Velocity: 26
Note ON: Time 314880, Note Name: C4, Velocity: 26
Note OFF: Time 316800, Note Name: C4
Note OFF: Time 316800, Note Name: D#4
Note OFF: Time 316800, Note Name: G#4
Note OFF: Time 316800, Note Name: G#3
Note ON: Time 316920, Note Name: G#2, Velocity: 47
Note OFF: Time 317035, Note Name: G#2
Note ON: Time 317040, Note Name: C#3, Velocity: 48
Note ON: Time 317160, Note Name: E3, Velocity: 50
Note OFF: Time 317180, Note Name: C#3
Note ON: Time 317280, Note Name: G#3, Velocity: 51
Note OFF: Time 317300, Note Name: E3
Note ON: Time 317400, Note Name: C#3, Velocity: 51
Note OFF: Time 317420, Note Name: G#3
Note ON: Time 317520, Note Name: E3, Velocity: 49
Note OFF: Time 317540, Note Name: C#3
Note ON: Time 317640, Note Name: G#3, Velocity: 51
Note OFF: Time 317660, Note Name: E3
Note ON: Time 317760, Note Name: C#4, Velocity: 51
Note OFF: Time 317780, Note Name: G#3
Note ON: Time 317880, Note Name: E3, Velocity: 47
Note OFF: Time 317900, Note Name: C#4
Note ON: Time 318000, Note Name: G#3, Velocity: 48
Note OFF: Time 318020, Note Name: E3
Note ON: Time 318120, Note Name: C#4, Velocity: 50
Note OFF: Time 318140, Note Name: G#3
Note ON: Time 318240, Note Name: E4, Velocity: 51
Note OFF: Time 318260, Note Name: C#4
Note ON: Time 318360, Note Name: G#3, Velocity: 48
Note OFF: Time 318380, Note Name: E4
Note ON: Time 318480, Note Name: C#4, Velocity: 49
Note OFF: Time 318500, Note Name: G#3
Note ON: Time 318600, Note Name: E4, Velocity: 51
Note OFF: Time 318620, Note Name: C#4
Note ON: Time 318720, Note Name: G#4, Velocity: 53
Note OFF: Time 318740, Note Name: E4
Note ON: Time 318840, Note Name: C#4, Velocity: 47
Note OFF: Time 318860, Note Name: G#4
Note ON: Time 318960, Note Name: E4, Velocity: 49
Note OFF: Time 318980, Note Name: C#4
Note ON: Time 319080, Note Name: G#4, Velocity: 51
Note OFF: Time 319100, Note Name: E4
Note ON: Time 319200, Note Name: C#5, Velocity: 52
Note OFF: Time 319220, Note Name: G#4
Note ON: Time 319320, Note Name: E4, Velocity: 51
Note OFF: Time 319340, Note Name: C#5
Note ON: Time 319440, Note Name: G#4, Velocity: 50
Note OFF: Time 319460, Note Name: E4
Note ON: Time 319560, Note Name: C#5, Velocity: 51
Note OFF: Time 319580, Note Name: G#4
Note ON: Time 319680, Note Name: E5, Velocity: 53
Note OFF: Time 319700, Note Name: C#5
Note ON: Time 319800, Note Name: G#4, Velocity: 51
Note OFF: Time 319820, Note Name: E5
Note ON: Time 319920, Note Name: C#5, Velocity: 51
Note OFF: Time 319940, Note Name: G#4
Note ON: Time 320040, Note Name: E5, Velocity: 56
Note OFF: Time 320060, Note Name: C#5
Note OFF: Time 320160, Note Name: E5
Note ON: Time 320160, Note Name: C#5, Velocity: 79
Note ON: Time 320160, Note Name: G#5, Velocity: 94
Note ON: Time 320160, Note Name: G#4, Velocity: 79
Note ON: Time 320160, Note Name: E5, Velocity: 94
Note OFF: Time 320280, Note Name: E5
Note OFF: Time 320280, Note Name: C#5
Note OFF: Time 320280, Note Name: G#5
Note OFF: Time 320280, Note Name: G#4
Note ON: Time 320400, Note Name: G#5, Velocity: 79
Note ON: Time 320400, Note Name: E5, Velocity: 79
Note ON: Time 320400, Note Name: C#5, Velocity: 67
Note ON: Time 320400, Note Name: G#4, Velocity: 67
Note OFF: Time 320520, Note Name: G#4
Note OFF: Time 320520, Note Name: G#5
Note OFF: Time 320520, Note Name: E5
Note OFF: Time 320520, Note Name: C#5
Note ON: Time 320760, Note Name: G#2, Velocity: 47
Note OFF: Time 320875, Note Name: G#2
Note ON: Time 320880, Note Name: C3, Velocity: 49
Note ON: Time 321000, Note Name: D#3, Velocity: 51
Note OFF: Time 321020, Note Name: C3
Note ON: Time 321120, Note Name: G#3, Velocity: 51
Note OFF: Time 321140, Note Name: D#3
Note ON: Time 321240, Note Name: C3, Velocity: 48
Note OFF: Time 321260, Note Name: G#3
Note ON: Time 321360, Note Name: D#3, Velocity: 50
Note OFF: Time 321380, Note Name: C3
Note ON: Time 321480, Note Name: G#3, Velocity: 51
Note OFF: Time 321500, Note Name: D#3
Note ON: Time 321600, Note Name: C4, Velocity: 52
Note OFF: Time 321620, Note Name: G#3
Note ON: Time 321720, Note Name: D#3, Velocity: 51
Note OFF: Time 321740, Note Name: C4
Note ON: Time 321840, Note Name: G#3, Velocity: 51
Note OFF: Time 321860, Note Name: D#3
Note ON: Time 321960, Note Name: C4, Velocity: 51
Note OFF: Time 321980, Note Name: G#3
Note ON: Time 322080, Note Name: D#4, Velocity: 52
Note OFF: Time 322100, Note Name: C4
Note ON: Time 322200, Note Name: G#3, Velocity: 47
Note OFF: Time 322220, Note Name: D#4
Note ON: Time 322320, Note Name: C4, Velocity: 50
Note OFF: Time 322340, Note Name: G#3
Note ON: Time 322440, Note Name: D#4, Velocity: 51
Note OFF: Time 322460, Note Name: C4
Note ON: Time 322560, Note Name: G#4, Velocity: 53
Note OFF: Time 322580, Note Name: D#4
Note ON: Time 322680, Note Name: C4, Velocity: 49
Note OFF: Time 322700, Note Name: G#4
Note ON: Time 322800, Note Name: D#4, Velocity: 50
Note OFF: Time 322820, Note Name: C4
Note ON: Time 322920, Note Name: G#4, Velocity: 51
Note OFF: Time 322940, Note Name: D#4
Note ON: Time 323040, Note Name: C5, Velocity: 52
Note OFF: Time 323060, Note Name: G#4
Note ON: Time 323160, Note Name: D#4, Velocity: 51
Note OFF: Time 323180, Note Name: C5
Note ON: Time 323280, Note Name: G#4, Velocity: 50
Note OFF: Time 323300, Note Name: D#4
Note ON: Time 323400, Note Name: C5, Velocity: 51
Note OFF: Time 323420, Note Name: G#4
Note ON: Time 323520, Note Name: D#5, Velocity: 52
Note OFF: Time 323540, Note Name: C5
Note ON: Time 323640, Note Name: G#4, Velocity: 49
Note OFF: Time 323660, Note Name: D#5
Note ON: Time 323760, Note Name: C5, Velocity: 51
Note OFF: Time 323780, Note Name: G#4
Note ON: Time 323880, Note Name: D#5, Velocity: 53
Note OFF: Time 323900, Note Name: C5
Note OFF: Time 324000, Note Name: D#5
Note ON: Time 324000, Note Name: C5, Velocity: 79
Note ON: Time 324000, Note Name: D#5, Velocity: 94
Note ON: Time 324000, Note Name: G#5, Velocity: 94
Note ON: Time 324000, Note Name: G#4, Velocity: 79
Note OFF: Time 324120, Note Name: G#4
Note OFF: Time 324120, Note Name: C5
Note OFF: Time 324120, Note Name: D#5
Note OFF: Time 324120, Note Name: G#5
Note ON: Time 324240, Note Name: D#5, Velocity: 78
Note ON: Time 324240, Note Name: G#4, Velocity: 66
Note ON: Time 324240, Note Name: G#5, Velocity: 78
Note ON: Time 324240, Note Name: C5, Velocity: 66
Note OFF: Time 324360, Note Name: C5
Note OFF: Time 324360, Note Name: D#5
Note OFF: Time 324360, Note Name: G#4
Note OFF: Time 324360, Note Name: G#5
Note ON: Time 324600, Note Name: C#3, Velocity: 62
Note ON: Time 324720, Note Name: F3, Velocity: 65
Note OFF: Time 324740, Note Name: C#3
Note ON: Time 324840, Note Name: G#3, Velocity: 67
Note OFF: Time 324860, Note Name: F3
Note ON: Time 324960, Note Name: C#4, Velocity: 68
Note OFF: Time 324980, Note Name: G#3
Note ON: Time 325080, Note Name: F3, Velocity: 65
Note OFF: Time 325100, Note Name: C#4
Note ON: Time 325200, Note Name: G#3, Velocity: 67
Note OFF: Time 325220, Note Name: F3
Note ON: Time 325320, Note Name: C#4, Velocity: 68
Note OFF: Time 325340, Note Name: G#3
Note ON: Time 325440, Note Name: F4, Velocity: 69
Note OFF: Time 325460, Note Name: C#4
Note ON: Time 325560, Note Name: G#3, Velocity: 66
Note OFF: Time 325580, Note Name: F4
Note ON: Time 325680, Note Name: C#4, Velocity: 68
Note OFF: Time 325700, Note Name: G#3
Note ON: Time 325800, Note Name: F4, Velocity: 69
Note OFF: Time 325820, Note Name: C#4
Note ON: Time 325920, Note Name: G#4, Velocity: 71
Note OFF: Time 325940, Note Name: F4
Note ON: Time 326040, Note Name: C#4, Velocity: 66
Note OFF: Time 326060, Note Name: G#4
Note ON: Time 326160, Note Name: F4, Velocity: 68
Note OFF: Time 326180, Note Name: C#4
Note ON: Time 326280, Note Name: G#4, Velocity: 68
Note OFF: Time 326300, Note Name: F4
Note ON: Time 326400, Note Name: C#5, Velocity: 69
Note OFF: Time 326420, Note Name: G#4
Note ON: Time 326520, Note Name: F4, Velocity: 66
Note OFF: Time 326540, Note Name: C#5
Note ON: Time 326640, Note Name: G#4, Velocity: 68
Note OFF: Time 326660, Note Name: F4
Note ON: Time 326760, Note Name: C#5, Velocity: 68
Note OFF: Time 326780, Note Name: G#4
Note ON: Time 326880, Note Name: F5, Velocity: 70
Note OFF: Time 326900, Note Name: C#5
Note ON: Time 327000, Note Name: G#4, Velocity: 63
Note OFF: Time 327020, Note Name: F5
Note ON: Time 327120, Note Name: C#5, Velocity: 66
Note OFF: Time 327140, Note Name: G#4
Note ON: Time 327240, Note Name: F5, Velocity: 68
Note OFF: Time 327260, Note Name: C#5
Note ON: Time 327360, Note Name: G#5, Velocity: 68
Note OFF: Time 327380, Note Name: F5
Note ON: Time 327480, Note Name: C#5, Velocity: 66
Note OFF: Time 327500, Note Name: G#5
Note ON: Time 327600, Note Name: F5, Velocity: 68
Note OFF: Time 327620, Note Name: C#5
Note ON: Time 327720, Note Name: G#5, Velocity: 70
Note OFF: Time 327740, Note Name: F5
Note OFF: Time 327840, Note Name: G#5
Note ON: Time 327840, Note Name: C#5, Velocity: 87
Note ON: Time 327840, Note Name: F5, Velocity: 87
Note ON: Time 327840, Note Name: G#5, Velocity: 103
Note ON: Time 327840, Note Name: C#6, Velocity: 103
Note OFF: Time 327960, Note Name: C#6
Note OFF: Time 327960, Note Name: C#5
Note OFF: Time 327960, Note Name: F5
Note OFF: Time 327960, Note Name: G#5
Note ON: Time 328080, Note Name: F5, Velocity: 77
Note ON: Time 328080, Note Name: G#5, Velocity: 90
Note ON: Time 328080, Note Name: C#6, Velocity: 90
Note ON: Time 328080, Note Name: C#5, Velocity: 77
Note OFF: Time 328200, Note Name: C#5
Note OFF: Time 328200, Note Name: F5
Note OFF: Time 328200, Note Name: G#5
Note OFF: Time 328200, Note Name: C#6
Note ON: Time 328440, Note Name: C#3, Velocity: 61
Note ON: Time 328560, Note Name: F#3, Velocity: 63
Note OFF: Time 328580, Note Name: C#3
Note ON: Time 328680, Note Name: A3, Velocity: 62
Note OFF: Time 328700, Note Name: F#3
Note ON: Time 328800, Note Name: C#4, Velocity: 69
Note OFF: Time 328820, Note Name: A3
Note OFF: Time 328860, Note Name: C#4
Note ON: Time 328920, Note Name: C#4, Velocity: 72
Note ON: Time 329040, Note Name: F#4, Velocity: 76
Note OFF: Time 329060, Note Name: C#4
Note ON: Time 329160, Note Name: A4, Velocity: 76
Note OFF: Time 329180, Note Name: F#4
Note ON: Time 329280, Note Name: C#5, Velocity: 82
Note OFF: Time 329300, Note Name: A4
Note OFF: Time 329340, Note Name: C#5
Note ON: Time 329400, Note Name: C#5, Velocity: 85
Note ON: Time 329520, Note Name: F#5, Velocity: 87
Note OFF: Time 329540, Note Name: C#5
Note ON: Time 329640, Note Name: A5, Velocity: 84
Note OFF: Time 329660, Note Name: F#5
Note ON: Time 329760, Note Name: F#5, Velocity: 102
Note ON: Time 329760, Note Name: C#6, Velocity: 102
Note ON: Time 329760, Note Name: C#5, Velocity: 86
Note OFF: Time 329780, Note Name: A5
Note OFF: Time 329880, Note Name: F#5
Note OFF: Time 329880, Note Name: C#6
Note OFF: Time 329880, Note Name: C#5
Note ON: Time 330000, Note Name: C#5, Velocity: 85
Note ON: Time 330000, Note Name: F#5, Velocity: 101
Note ON: Time 330000, Note Name: C#6, Velocity: 101
Note OFF: Time 330120, Note Name: C#6
Note OFF: Time 330120, Note Name: F#5
Note OFF: Time 330120, Note Name: C#5
Note ON: Time 330360, Note Name: C#3, Velocity: 75
Note ON: Time 330480, Note Name: E3, Velocity: 77
Note OFF: Time 330500, Note Name: C#3
Note ON: Time 330600, Note Name: G3, Velocity: 75
Note OFF: Time 330620, Note Name: E3
Note ON: Time 330720, Note Name: C#4, Velocity: 80
Note OFF: Time 330740, Note Name: G3
Note OFF: Time 330780, Note Name: C#4
Note ON: Time 330840, Note Name: C#4, Velocity: 77
Note ON: Time 330960, Note Name: E4, Velocity: 79
Note OFF: Time 330980, Note Name: C#4
Note ON: Time 331080, Note Name: G4, Velocity: 77
Note OFF: Time 331100, Note Name: E4
Note ON: Time 331200, Note Name: C#5, Velocity: 81
Note OFF: Time 331220, Note Name: G4
Note OFF: Time 331260, Note Name: C#5
Note ON: Time 331320, Note Name: C#5, Velocity: 80
Note ON: Time 331440, Note Name: E5, Velocity: 81
Note OFF: Time 331460, Note Name: C#5
Note ON: Time 331560, Note Name: G5, Velocity: 79
Note OFF: Time 331580, Note Name: E5
Note OFF: Time 331680, Note Name: G5
Note ON: Time 331680, Note Name: G5, Velocity: 108
Note ON: Time 331680, Note Name: C#6, Velocity: 108
Note ON: Time 331680, Note Name: C#5, Velocity: 90
Note OFF: Time 331800, Note Name: C#5
Note OFF: Time 331800, Note Name: C#6
Note OFF: Time 331800, Note Name: G5
Note ON: Time 331920, Note Name: C#6, Velocity: 108
Note ON: Time 331920, Note Name: G5, Velocity: 108
Note ON: Time 331920, Note Name: C#5, Velocity: 90
Note OFF: Time 332040, Note Name: C#5
Note OFF: Time 332040, Note Name: G5
Note OFF: Time 332040, Note Name: C#6
Note ON: Time 332160, Note Name: G#5, Velocity: 108
Note ON: Time 332160, Note Name: C5, Velocity: 90
Note ON: Time 332160, Note Name: C6, Velocity: 108
Note OFF: Time 332400, Note Name: C6
Note OFF: Time 332400, Note Name: C5
Note OFF: Time 332400, Note Name: G#5
Note ON: Time 332400, Note Name: G#4, Velocity: 74
Note OFF: Time 332520, Note Name: G#4
Note ON: Time 332520, Note Name: G#5, Velocity: 58
Note OFF: Time 332640, Note Name: G#5
Note ON: Time 332640, Note Name: G#4, Velocity: 75
Note OFF: Time 332760, Note Name: G#4
Note ON: Time 332760, Note Name: G#5, Velocity: 60
Note OFF: Time 332880, Note Name: G#5
Note ON: Time 332880, Note Name: A#4, Velocity: 76
Note OFF: Time 333000, Note Name: A#4
Note ON: Time 333000, Note Name: G#5, Velocity: 60
Note OFF: Time 333120, Note Name: G#5
Note ON: Time 333120, Note Name: C5, Velocity: 76
Note OFF: Time 333240, Note Name: C5
Note ON: Time 333240, Note Name: G#5, Velocity: 61
Note OFF: Time 333360, Note Name: G#5
Note ON: Time 333360, Note Name: C#5, Velocity: 78
Note OFF: Time 333480, Note Name: C#5
Note ON: Time 333480, Note Name: G#5, Velocity: 62
Note OFF: Time 333600, Note Name: G#5
Note ON: Time 333600, Note Name: D#5, Velocity: 79
Note OFF: Time 333720, Note Name: D#5
Note ON: Time 333720, Note Name: G#5, Velocity: 62
Note OFF: Time 333840, Note Name: G#5
Note ON: Time 333840, Note Name: C5, Velocity: 79
Note OFF: Time 333960, Note Name: C5
Note ON: Time 333960, Note Name: G#5, Velocity: 62
Note OFF: Time 334080, Note Name: G#5
Note ON: Time 334080, Note Name: D#5, Velocity: 80
Note OFF: Time 334200, Note Name: D#5
Note ON: Time 334200, Note Name: G#5, Velocity: 62
Note OFF: Time 334320, Note Name: G#5
Note ON: Time 334320, Note Name: C#5, Velocity: 80
Note OFF: Time 334440, Note Name: C#5
Note ON: Time 334440, Note Name: G#5, Velocity: 62
Note OFF: Time 334560, Note Name: G#5
Note ON: Time 334560, Note Name: F#5, Velocity: 84
Note OFF: Time 334680, Note Name: F#5
Note ON: Time 334680, Note Name: G#5, Velocity: 62
Note OFF: Time 334800, Note Name: G#5
Note ON: Time 334800, Note Name: E5, Velocity: 80
Note OFF: Time 334920, Note Name: E5
Note ON: Time 334920, Note Name: G#5, Velocity: 62
Note OFF: Time 335040, Note Name: G#5
Note ON: Time 335040, Note Name: D#5, Velocity: 80
Note OFF: Time 335160, Note Name: D#5
Note ON: Time 335160, Note Name: G#5, Velocity: 62
Note OFF: Time 335280, Note Name: G#5
Note ON: Time 335280, Note Name: C#5, Velocity: 79
Note OFF: Time 335400, Note Name: C#5
Note ON: Time 335400, Note Name: G#5, Velocity: 62
Note OFF: Time 335520, Note Name: G#5
Note ON: Time 335520, Note Name: C5, Velocity: 79
Note OFF: Time 335640, Note Name: C5
Note ON: Time 335640, Note Name: G#5, Velocity: 62
Note OFF: Time 335760, Note Name: G#5
Note ON: Time 335760, Note Name: A4, Velocity: 77
Note OFF: Time 335880, Note Name: A4
Note ON: Time 335880, Note Name: G5, Velocity: 61
Note OFF: Time 336000, Note Name: G5
Note ON: Time 336000, Note Name: G#4, Velocity: 76
Note OFF: Time 336120, Note Name: G#4
Note ON: Time 336120, Note Name: G#5, Velocity: 60
Note OFF: Time 336240, Note Name: G#5
Note ON: Time 336240, Note Name: G#4, Velocity: 75
Note OFF: Time 336360, Note Name: G#4
Note ON: Time 336360, Note Name: G#5, Velocity: 59
Note OFF: Time 336480, Note Name: G#5
Note ON: Time 336480, Note Name: G#4, Velocity: 74
Note OFF: Time 336600, Note Name: G#4
Note ON: Time 336600, Note Name: G#5, Velocity: 59
Note OFF: Time 336720, Note Name: G#5
Note ON: Time 336720, Note Name: A#4, Velocity: 74
Note OFF: Time 336840, Note Name: A#4
Note ON: Time 336840, Note Name: G#5, Velocity: 61
Note OFF: Time 336960, Note Name: G#5
Note ON: Time 336960, Note Name: C5, Velocity: 76
Note OFF: Time 337080, Note Name: C5
Note ON: Time 337080, Note Name: G#5, Velocity: 59
Note OFF: Time 337200, Note Name: G#5
Note ON: Time 337200, Note Name: C#5, Velocity: 76
Note OFF: Time 337320, Note Name: C#5
Note ON: Time 337320, Note Name: G#5, Velocity: 62
Note OFF: Time 337440, Note Name: G#5
Note ON: Time 337440, Note Name: D#5, Velocity: 77
Note OFF: Time 337560, Note Name: D#5
Note ON: Time 337560, Note Name: G#5, Velocity: 61
Note OFF: Time 337680, Note Name: G#5
Note ON: Time 337680, Note Name: C5, Velocity: 79
Note OFF: Time 337800, Note Name: C5
Note ON: Time 337800, Note Name: G#5, Velocity: 62
Note OFF: Time 337920, Note Name: G#5
Note ON: Time 337920, Note Name: D#5, Velocity: 79
Note OFF: Time 338040, Note Name: D#5
Note ON: Time 338040, Note Name: G#5, Velocity: 62
Note OFF: Time 338160, Note Name: G#5
Note ON: Time 338160, Note Name: C#5, Velocity: 80
Note OFF: Time 338280, Note Name: C#5
Note ON: Time 338280, Note Name: G#5, Velocity: 65
Note OFF: Time 338400, Note Name: G#5
Note ON: Time 338400, Note Name: F#5, Velocity: 84
Note OFF: Time 338520, Note Name: F#5
Note ON: Time 338520, Note Name: G#5, Velocity: 68
Note OFF: Time 338640, Note Name: G#5
Note ON: Time 338640, Note Name: E5, Velocity: 84
Note OFF: Time 338760, Note Name: E5
Note ON: Time 338760, Note Name: G#5, Velocity: 67
Note OFF: Time 338880, Note Name: G#5
Note ON: Time 338880, Note Name: D#5, Velocity: 84
Note OFF: Time 339000, Note Name: D#5
Note ON: Time 339000, Note Name: G#5, Velocity: 67
Note OFF: Time 339120, Note Name: G#5
Note ON: Time 339120, Note Name: C#5, Velocity: 84
Note OFF: Time 339240, Note Name: C#5
Note ON: Time 339240, Note Name: G#5, Velocity: 66
Note OFF: Time 339360, Note Name: G#5
Note ON: Time 339360, Note Name: C5, Velocity: 84
Note OFF: Time 339480, Note Name: C5
Note ON: Time 339480, Note Name: G#5, Velocity: 67
Note OFF: Time 339600, Note Name: G#5
Note ON: Time 339600, Note Name: A4, Velocity: 84
Note OFF: Time 339720, Note Name: A4
Note ON: Time 339720, Note Name: G5, Velocity: 66
Note OFF: Time 339840, Note Name: G5
Note ON: Time 339840, Note Name: G#4, Velocity: 84
Note OFF: Time 339960, Note Name: G#4
Note ON: Time 339960, Note Name: G#5, Velocity: 66
Note OFF: Time 340080, Note Name: G#5
Note ON: Time 340080, Note Name: A4, Velocity: 79
Note OFF: Time 340200, Note Name: A4
Note ON: Time 340200, Note Name: G5, Velocity: 67
Note OFF: Time 340320, Note Name: G5
Note ON: Time 340320, Note Name: G#4, Velocity: 84
Note OFF: Time 340440, Note Name: G#4
Note ON: Time 340440, Note Name: G#5, Velocity: 66
Note OFF: Time 340560, Note Name: G#5
Note ON: Time 340560, Note Name: A4, Velocity: 79
Note OFF: Time 340680, Note Name: A4
Note ON: Time 340680, Note Name: G5, Velocity: 67
Note OFF: Time 340800, Note Name: G5
Note ON: Time 340800, Note Name: G#4, Velocity: 84
Note OFF: Time 340920, Note Name: G#4
Note ON: Time 340920, Note Name: G#5, Velocity: 66
Note OFF: Time 341040, Note Name: G#5
Note ON: Time 341040, Note Name: A4, Velocity: 79
Note OFF: Time 341160, Note Name: A4
Note ON: Time 341160, Note Name: G5, Velocity: 65
Note OFF: Time 341280, Note Name: G5
Note ON: Time 341280, Note Name: G#4, Velocity: 84
Note OFF: Time 341400, Note Name: G#4
Note ON: Time 341400, Note Name: G#5, Velocity: 66
Note OFF: Time 341520, Note Name: G#5
Note ON: Time 341520, Note Name: A4, Velocity: 79
Note OFF: Time 341640, Note Name: A4
Note ON: Time 341640, Note Name: G5, Velocity: 65
Note OFF: Time 341760, Note Name: G5
Note ON: Time 341760, Note Name: G#5, Velocity: 84
Note ON: Time 341760, Note Name: G#4, Velocity: 84
Note OFF: Time 342000, Note Name: G#4
Note OFF: Time 342000, Note Name: G#5
Note ON: Time 342240, Note Name: G#3, Velocity: 113
Note OFF: Time 343680, Note Name: G#3
Note ON: Time 344160, Note Name: G#4, Velocity: 56
Note ON: Time 345120, Note Name: E4, Velocity: 47
Note OFF: Time 345140, Note Name: G#4
Note ON: Time 345480, Note Name: C#4, Velocity: 47
Note OFF: Time 345500, Note Name: E4
Note OFF: Time 345540, Note Name: C#4
Note ON: Time 345540, Note Name: C4, Velocity: 37
Note OFF: Time 345560, Note Name: C4
Note ON: Time 345560, Note Name: C#4, Velocity: 37
Note OFF: Time 345580, Note Name: C#4
Note ON: Time 345580, Note Name: D#4, Velocity: 37
Note OFF: Time 345600, Note Name: D#4
Note ON: Time 345600, Note Name: C#4, Velocity: 53
Note ON: Time 346080, Note Name: C4, Velocity: 47
Note OFF: Time 346100, Note Name: C#4
Note OFF: Time 346800, Note Name: C4
Note ON: Time 346800, Note Name: C4, Velocity: 47
Note ON: Time 347040, Note Name: G#4, Velocity: 56
Note OFF: Time 347060, Note Name: C4
Note OFF: Time 347400, Note Name: G#4
Note ON: Time 347400, Note Name: C4, Velocity: 48
Note OFF: Time 347520, Note Name: C4
Note ON: Time 347520, Note Name: D#4, Velocity: 43
Note ON: Time 348000, Note Name: C#4, Velocity: 47
Note OFF: Time 348020, Note Name: D#4
Note OFF: Time 348720, Note Name: C#4
Note ON: Time 348720, Note Name: C#4, Velocity: 45
Note ON: Time 348960, Note Name: G#4, Velocity: 57
Note OFF: Time 348980, Note Name: C#4
Note OFF: Time 349320, Note Name: G#4
Note ON: Time 349320, Note Name: C#4, Velocity: 47
Note OFF: Time 349440, Note Name: C#4
Note ON: Time 349440, Note Name: E4, Velocity: 48
Note ON: Time 349920, Note Name: D#4, Velocity: 47
Note OFF: Time 349940, Note Name: E4
Note OFF: Time 350640, Note Name: D#4
Note ON: Time 350640, Note Name: D#4, Velocity: 48
Note ON: Time 350880, Note Name: G#4, Velocity: 54
Note OFF: Time 350900, Note Name: D#4
Note ON: Time 351240, Note Name: D#4, Velocity: 48
Note OFF: Time 351260, Note Name: G#4
Note OFF: Time 351360, Note Name: D#4
Note ON: Time 351360, Note Name: E4, Velocity: 51
Note OFF: Time 351480, Note Name: E4
Note ON: Time 351600, Note Name: G#5, Velocity: 58
Note ON: Time 351600, Note Name: G#4, Velocity: 48
Note OFF: Time 352080, Note Name: G#4
Note OFF: Time 352080, Note Name: G#5
Note ON: Time 352080, Note Name: G#4, Velocity: 45
Note ON: Time 352080, Note Name: G#5, Velocity: 53
Note OFF: Time 352560, Note Name: G#5
Note OFF: Time 352560, Note Name: G#4
Note ON: Time 352560, Note Name: G#5, Velocity: 56
Note ON: Time 352560, Note Name: G#4, Velocity: 47
Note OFF: Time 352680, Note Name: G#4
Note OFF: Time 352680, Note Name: G#5
Note ON: Time 352800, Note Name: E4, Velocity: 49
Note ON: Time 352800, Note Name: E5, Velocity: 58
Note OFF: Time 352920, Note Name: E5
Note OFF: Time 352920, Note Name: E4
Note ON: Time 353040, Note Name: C#5, Velocity: 56
Note ON: Time 353040, Note Name: C#4, Velocity: 47
Note OFF: Time 353160, Note Name: C#4
Note OFF: Time 353160, Note Name: C#5
Note ON: Time 353280, Note Name: C#4, Velocity: 51
Note ON: Time 353280, Note Name: C#5, Velocity: 61
Note OFF: Time 353400, Note Name: C#5
Note OFF: Time 353400, Note Name: C#4
Note ON: Time 353520, Note Name: C4, Velocity: 52
Note ON: Time 353520, Note Name: C5, Velocity: 62
Note OFF: Time 354000, Note Name: C5
Note OFF: Time 354000, Note Name: C4
Note ON: Time 354000, Note Name: C5, Velocity: 68
Note ON: Time 354000, Note Name: C4, Velocity: 57
Note OFF: Time 354480, Note Name: C4
Note OFF: Time 354480, Note Name: C5
Note ON: Time 354480, Note Name: C4, Velocity: 58
Note ON: Time 354480, Note Name: C5, Velocity: 69
Note OFF: Time 354600, Note Name: C5
Note OFF: Time 354600, Note Name: C4
Note ON: Time 354720, Note Name: G#5, Velocity: 71
Note ON: Time 354720, Note Name: G#4, Velocity: 60
Note OFF: Time 354840, Note Name: G#4
Note OFF: Time 354840, Note Name: G#5
Note ON: Time 354960, Note Name: C5, Velocity: 69
Note ON: Time 354960, Note Name: C4, Velocity: 58
Note OFF: Time 355080, Note Name: C4
Note OFF: Time 355080, Note Name: C5
Note ON: Time 355200, Note Name: D#5, Velocity: 74
Note ON: Time 355200, Note Name: D#4, Velocity: 62
Note OFF: Time 355320, Note Name: D#4
Note OFF: Time 355320, Note Name: D#5
Note ON: Time 355440, Note Name: C#4, Velocity: 63
Note ON: Time 355440, Note Name: C#5, Velocity: 75
Note OFF: Time 355920, Note Name: C#5
Note OFF: Time 355920, Note Name: C#4
Note ON: Time 355920, Note Name: C#4, Velocity: 68
Note ON: Time 355920, Note Name: C#5, Velocity: 80
Note OFF: Time 356400, Note Name: C#5
Note OFF: Time 356400, Note Name: C#4
Note ON: Time 356400, Note Name: C#5, Velocity: 75
Note ON: Time 356400, Note Name: C#4, Velocity: 63
Note OFF: Time 356520, Note Name: C#4
Note OFF: Time 356520, Note Name: C#5
Note ON: Time 356640, Note Name: G#5, Velocity: 85
Note ON: Time 356640, Note Name: G#4, Velocity: 72
Note OFF: Time 356760, Note Name: G#4
Note OFF: Time 356760, Note Name: G#5
Note ON: Time 356880, Note Name: C#5, Velocity: 86
Note ON: Time 356880, Note Name: C#4, Velocity: 73
Note OFF: Time 357000, Note Name: C#4
Note OFF: Time 357000, Note Name: C#5
Note ON: Time 357120, Note Name: E4, Velocity: 73
Note ON: Time 357120, Note Name: E5, Velocity: 86
Note OFF: Time 357240, Note Name: E5
Note OFF: Time 357240, Note Name: E4
Note ON: Time 357360, Note Name: D#4, Velocity: 72
Note ON: Time 357360, Note Name: D#5, Velocity: 85
Note OFF: Time 357840, Note Name: D#5
Note OFF: Time 357840, Note Name: D#4
Note ON: Time 357840, Note Name: D#5, Velocity: 93
Note ON: Time 357840, Note Name: D#4, Velocity: 79
Note OFF: Time 358320, Note Name: D#4
Note OFF: Time 358320, Note Name: D#5
Note ON: Time 358320, Note Name: D#4, Velocity: 75
Note ON: Time 358320, Note Name: D#5, Velocity: 90
Note OFF: Time 358440, Note Name: D#5
Note OFF: Time 358440, Note Name: D#4
Note ON: Time 358560, Note Name: G#4, Velocity: 79
Note ON: Time 358560, Note Name: G#5, Velocity: 93
Note OFF: Time 358680, Note Name: G#5
Note OFF: Time 358680, Note Name: G#4
Note ON: Time 358800, Note Name: D#5, Velocity: 90
Note ON: Time 358800, Note Name: D#4, Velocity: 75
Note OFF: Time 358920, Note Name: D#4
Note OFF: Time 358920, Note Name: D#5
Note ON: Time 359040, Note Name: F4, Velocity: 80
Note ON: Time 359040, Note Name: F5, Velocity: 95
Note OFF: Time 360000, Note Name: F5
Note OFF: Time 360000, Note Name: F4
Note ON: Time 360000, Note Name: F#4, Velocity: 80
Note ON: Time 360000, Note Name: F#5, Velocity: 95
Note OFF: Time 360960, Note Name: F#5
Note OFF: Time 360960, Note Name: F#4
Note ON: Time 360960, Note Name: D#4, Velocity: 67
Note ON: Time 360960, Note Name: D#5, Velocity: 80
Note OFF: Time 361025, Note Name: D#5
Note ON: Time 361025, Note Name: E5, Velocity: 75
Note ON: Time 361089, Note Name: D#5, Velocity: 80
Note OFF: Time 361090, Note Name: E5
Note OFF: Time 361154, Note Name: D#5
Note ON: Time 361154, Note Name: E5, Velocity: 80
Note OFF: Time 361219, Note Name: E5
Note ON: Time 361235, Note Name: D#5, Velocity: 80
Note ON: Time 361307, Note Name: C#5, Velocity: 75
Note OFF: Time 361313, Note Name: D#5
Note ON: Time 361373, Note Name: D#5, Velocity: 75
Note OFF: Time 361385, Note Name: C#5
Note OFF: Time 361440, Note Name: D#5
Note OFF: Time 361440, Note Name: D#4
Note ON: Time 361440, Note Name: E5, Velocity: 95
Note ON: Time 361440, Note Name: E4, Velocity: 80
Note OFF: Time 362880, Note Name: E4
Note OFF: Time 362880, Note Name: E5
Note ON: Time 362880, Note Name: C#5, Velocity: 95
Note ON: Time 362880, Note Name: C#4, Velocity: 80
Note OFF: Time 363840, Note Name: C#4
Note OFF: Time 363840, Note Name: C#5
Note ON: Time 363840, Note Name: D4, Velocity: 80
Note ON: Time 363840, Note Name: D5, Velocity: 94
Note OFF: Time 364800, Note Name: D5
Note OFF: Time 364800, Note Name: D4
Note ON: Time 364800, Note Name: C4, Velocity: 67
Note ON: Time 364800, Note Name: C5, Velocity: 80
Note OFF: Time 364865, Note Name: C5
Note ON: Time 364865, Note Name: C#5, Velocity: 75
Note ON: Time 364929, Note Name: C5, Velocity: 80
Note OFF: Time 364930, Note Name: C#5
Note OFF: Time 364994, Note Name: C5
Note ON: Time 364994, Note Name: C#5, Velocity: 80
Note OFF: Time 365059, Note Name: C#5
Note ON: Time 365075, Note Name: C5, Velocity: 80
Note ON: Time 365147, Note Name: A#4, Velocity: 75
Note OFF: Time 365153, Note Name: C5
Note ON: Time 365213, Note Name: C5, Velocity: 75
Note OFF: Time 365225, Note Name: A#4
Note OFF: Time 365280, Note Name: C5
Note OFF: Time 365280, Note Name: C4
Note ON: Time 365280, Note Name: C#4, Velocity: 80
Note ON: Time 365280, Note Name: C#5, Velocity: 95
Note OFF: Time 366720, Note Name: C#5
Note OFF: Time 366720, Note Name: C#4
Note ON: Time 366720, Note Name: F#4, Velocity: 83
Note ON: Time 366720, Note Name: A4, Velocity: 100
Note ON: Time 366720, Note Name: D5, Velocity: 100
Note ON: Time 366720, Note Name: D4, Velocity: 83
Note OFF: Time 367800, Note Name: D4
Note OFF: Time 367800, Note Name: F#4
Note OFF: Time 367800, Note Name: A4
Note OFF: Time 367800, Note Name: D5
Note ON: Time 367800, Note Name: A4, Velocity: 48
Note OFF: Time 367920, Note Name: A4
Note ON: Time 367920, Note Name: B4, Velocity: 48
Note OFF: Time 368040, Note Name: B4
Note ON: Time 368040, Note Name: C#5, Velocity: 49
Note OFF: Time 368160, Note Name: C#5
Note ON: Time 368160, Note Name: D5, Velocity: 50
Note OFF: Time 368280, Note Name: D5
Note ON: Time 368280, Note Name: E5, Velocity: 51
Note OFF: Time 368400, Note Name: E5
Note ON: Time 368400, Note Name: F#5, Velocity: 51
Note OFF: Time 368520, Note Name: F#5
Note ON: Time 368520, Note Name: E5, Velocity: 49
Note OFF: Time 368640, Note Name: E5
Note ON: Time 368640, Note Name: D5, Velocity: 49
Note OFF: Time 368760, Note Name: D5
Note ON: Time 368760, Note Name: A4, Velocity: 47
Note OFF: Time 368880, Note Name: A4
Note ON: Time 368880, Note Name: B4, Velocity: 48
Note OFF: Time 369000, Note Name: B4
Note ON: Time 369000, Note Name: C#5, Velocity: 49
Note OFF: Time 369120, Note Name: C#5
Note ON: Time 369120, Note Name: D5, Velocity: 50
Note OFF: Time 369240, Note Name: D5
Note ON: Time 369240, Note Name: E5, Velocity: 51
Note OFF: Time 369360, Note Name: E5
Note ON: Time 369360, Note Name: F#5, Velocity: 51
Note OFF: Time 369480, Note Name: F#5
Note ON: Time 369480, Note Name: E5, Velocity: 50
Note OFF: Time 369600, Note Name: E5
Note ON: Time 369600, Note Name: D5, Velocity: 48
Note OFF: Time 369720, Note Name: D5
Note ON: Time 369720, Note Name: A4, Velocity: 48
Note OFF: Time 369840, Note Name: A4
Note ON: Time 369840, Note Name: B4, Velocity: 50
Note OFF: Time 369960, Note Name: B4
Note ON: Time 369960, Note Name: C#5, Velocity: 51
Note OFF: Time 370080, Note Name: C#5
Note ON: Time 370080, Note Name: D5, Velocity: 51
Note OFF: Time 370200, Note Name: D5
Note ON: Time 370200, Note Name: E5, Velocity: 52
Note OFF: Time 370320, Note Name: E5
Note ON: Time 370320, Note Name: F#5, Velocity: 52
Note OFF: Time 370440, Note Name: F#5
Note ON: Time 370440, Note Name: E5, Velocity: 51
Note OFF: Time 370560, Note Name: E5
Note ON: Time 370560, Note Name: D5, Velocity: 47
Note OFF: Time 370680, Note Name: D5
Note ON: Time 370680, Note Name: A4, Velocity: 48
Note OFF: Time 370800, Note Name: A4
Note ON: Time 370800, Note Name: B4, Velocity: 51
Note OFF: Time 370920, Note Name: B4
Note ON: Time 370920, Note Name: C#5, Velocity: 51
Note OFF: Time 371040, Note Name: C#5
Note ON: Time 371040, Note Name: D5, Velocity: 54
Note OFF: Time 371160, Note Name: D5
Note ON: Time 371160, Note Name: E5, Velocity: 56
Note OFF: Time 371280, Note Name: E5
Note ON: Time 371280, Note Name: F#5, Velocity: 57
Note OFF: Time 371400, Note Name: F#5
Note ON: Time 371400, Note Name: G5, Velocity: 60
Note OFF: Time 371520, Note Name: G5
Note ON: Time 371520, Note Name: A5, Velocity: 61
Note OFF: Time 371640, Note Name: A5
Note ON: Time 371640, Note Name: G#5, Velocity: 59
Note OFF: Time 371760, Note Name: G#5
Note ON: Time 371760, Note Name: B5, Velocity: 57
Note OFF: Time 371880, Note Name: B5
Note ON: Time 371880, Note Name: A5, Velocity: 56
Note OFF: Time 372000, Note Name: A5
Note ON: Time 372000, Note Name: G5, Velocity: 54
Note OFF: Time 372120, Note Name: G5
Note ON: Time 372120, Note Name: F#5, Velocity: 52
Note OFF: Time 372240, Note Name: F#5
Note ON: Time 372240, Note Name: E5, Velocity: 51
Note OFF: Time 372360, Note Name: E5
Note ON: Time 372360, Note Name: D5, Velocity: 50
Note OFF: Time 372480, Note Name: D5
Note ON: Time 372480, Note Name: C#5, Velocity: 48
Note OFF: Time 373440, Note Name: C#5
Note ON: Time 373440, Note Name: D#5, Velocity: 50
Note OFF: Time 373520, Note Name: D#5
Note ON: Time 373520, Note Name: E5, Velocity: 50
Note OFF: Time 373600, Note Name: E5
Note ON: Time 373600, Note Name: D#5, Velocity: 50
Note OFF: Time 373675, Note Name: D#5
Note ON: Time 373675, Note Name: E5, Velocity: 50
Note OFF: Time 373750, Note Name: E5
Note ON: Time 373750, Note Name: D#5, Velocity: 50
Note OFF: Time 373825, Note Name: D#5
Note ON: Time 373825, Note Name: E5, Velocity: 50
Note OFF: Time 373900, Note Name: E5
Note ON: Time 373900, Note Name: D#5, Velocity: 49
Note OFF: Time 373970, Note Name: D#5
Note ON: Time 373970, Note Name: E5, Velocity: 49
Note OFF: Time 374040, Note Name: E5
Note ON: Time 374040, Note Name: D#5, Velocity: 50
Note OFF: Time 374100, Note Name: D#5
Note ON: Time 374100, Note Name: E5, Velocity: 51
Note OFF: Time 374160, Note Name: E5
Note ON: Time 374160, Note Name: D#5, Velocity: 51
Note OFF: Time 374240, Note Name: D#5
Note ON: Time 374240, Note Name: C#5, Velocity: 51
Note OFF: Time 374320, Note Name: C#5
Note ON: Time 374320, Note Name: D#5, Velocity: 52
Note OFF: Time 374400, Note Name: D#5
Note ON: Time 374400, Note Name: C#5, Velocity: 56
Note OFF: Time 374640, Note Name: C#5
Note ON: Time 374880, Note Name: D4, Velocity: 87
Note ON: Time 374880, Note Name: F#3, Velocity: 73
Note ON: Time 374880, Note Name: A3, Velocity: 87
Note ON: Time 374880, Note Name: D3, Velocity: 73
Note OFF: Time 375480, Note Name: D3
Note OFF: Time 375480, Note Name: D4
Note OFF: Time 375480, Note Name: F#3
Note OFF: Time 375480, Note Name: A3
Note ON: Time 375480, Note Name: A3, Velocity: 48
Note OFF: Time 375600, Note Name: A3
Note ON: Time 375600, Note Name: B3, Velocity: 48
Note OFF: Time 375720, Note Name: B3
Note ON: Time 375720, Note Name: C#4, Velocity: 49
Note OFF: Time 375840, Note Name: C#4
Note ON: Time 375840, Note Name: D4, Velocity: 50
Note OFF: Time 375960, Note Name: D4
Note ON: Time 375960, Note Name: E4, Velocity: 51
Note OFF: Time 376080, Note Name: E4
Note ON: Time 376080, Note Name: F#4, Velocity: 51
Note OFF: Time 376200, Note Name: F#4
Note ON: Time 376200, Note Name: E4, Velocity: 51
Note OFF: Time 376320, Note Name: E4
Note ON: Time 376320, Note Name: D4, Velocity: 48
Note OFF: Time 376440, Note Name: D4
Note ON: Time 376440, Note Name: A3, Velocity: 47
Note OFF: Time 376560, Note Name: A3
Note ON: Time 376560, Note Name: B3, Velocity: 48
Note OFF: Time 376680, Note Name: B3
Note ON: Time 376680, Note Name: C#4, Velocity: 48
Note OFF: Time 376800, Note Name: C#4
Note ON: Time 376800, Note Name: D4, Velocity: 49
Note OFF: Time 376920, Note Name: D4
Note ON: Time 376920, Note Name: E4, Velocity: 50
Note OFF: Time 377040, Note Name: E4
Note ON: Time 377040, Note Name: F#4, Velocity: 51
Note OFF: Time 377160, Note Name: F#4
Note ON: Time 377160, Note Name: E4, Velocity: 48
Note OFF: Time 377280, Note Name: E4
Note ON: Time 377280, Note Name: D4, Velocity: 48
Note OFF: Time 377400, Note Name: D4
Note ON: Time 377400, Note Name: A3, Velocity: 48
Note OFF: Time 377520, Note Name: A3
Note ON: Time 377520, Note Name: B3, Velocity: 48
Note OFF: Time 377640, Note Name: B3
Note ON: Time 377640, Note Name: C#4, Velocity: 50
Note OFF: Time 377760, Note Name: C#4
Note ON: Time 377760, Note Name: D4, Velocity: 50
Note OFF: Time 377880, Note Name: D4
Note ON: Time 377880, Note Name: E4, Velocity: 50
Note OFF: Time 378000, Note Name: E4
Note ON: Time 378000, Note Name: F#4, Velocity: 50
Note OFF: Time 378120, Note Name: F#4
Note ON: Time 378120, Note Name: E4, Velocity: 50
Note OFF: Time 378240, Note Name: E4
Note ON: Time 378240, Note Name: D4, Velocity: 49
Note OFF: Time 378360, Note Name: D4
Note ON: Time 378360, Note Name: A3, Velocity: 51
Note OFF: Time 378480, Note Name: A3
Note ON: Time 378480, Note Name: B3, Velocity: 51
Note OFF: Time 378600, Note Name: B3
Note ON: Time 378600, Note Name: C#4, Velocity: 53
Note OFF: Time 378720, Note Name: C#4
Note ON: Time 378720, Note Name: D4, Velocity: 56
Note OFF: Time 378840, Note Name: D4
Note ON: Time 378840, Note Name: E4, Velocity: 56
Note OFF: Time 378960, Note Name: E4
Note ON: Time 378960, Note Name: F#4, Velocity: 57
Note OFF: Time 379080, Note Name: F#4
Note ON: Time 379080, Note Name: G4, Velocity: 59
Note OFF: Time 379200, Note Name: G4
Note ON: Time 379200, Note Name: A4, Velocity: 61
Note OFF: Time 379320, Note Name: A4
Note ON: Time 379320, Note Name: B4, Velocity: 62
Note OFF: Time 379440, Note Name: B4
Note ON: Time 379440, Note Name: C#5, Velocity: 63
Note OFF: Time 379560, Note Name: C#5
Note ON: Time 379560, Note Name: D5, Velocity: 66
Note OFF: Time 379680, Note Name: D5
Note ON: Time 379680, Note Name: E5, Velocity: 68
Note OFF: Time 379800, Note Name: E5
Note ON: Time 379800, Note Name: F#5, Velocity: 68
Note OFF: Time 379920, Note Name: F#5
Note ON: Time 379920, Note Name: G5, Velocity: 70
Note OFF: Time 380040, Note Name: G5
Note ON: Time 380040, Note Name: G#5, Velocity: 72
Note OFF: Time 380160, Note Name: G#5
Note ON: Time 380160, Note Name: A5, Velocity: 79
Note ON: Time 380160, Note Name: A4, Velocity: 67
Note OFF: Time 381120, Note Name: A4
Note OFF: Time 381120, Note Name: A5
Note ON: Time 381120, Note Name: C#5, Velocity: 77
Note ON: Time 381120, Note Name: C#4, Velocity: 65
Note OFF: Time 382080, Note Name: C#4
Note OFF: Time 382080, Note Name: C#5
Note ON: Time 382080, Note Name: E4, Velocity: 65
Note ON: Time 382080, Note Name: E5, Velocity: 77
Note OFF: Time 383040, Note Name: E5
Note OFF: Time 383040, Note Name: E4
Note ON: Time 383040, Note Name: C3, Velocity: 65
Note ON: Time 383040, Note Name: F#3, Velocity: 65
Note ON: Time 383040, Note Name: C4, Velocity: 77
Note OFF: Time 384000, Note Name: C4
Note OFF: Time 384000, Note Name: F#3
Note OFF: Time 384000, Note Name: C3
Note ON: Time 384240, Note Name: E4, Velocity: 48
Note ON: Time 384240, Note Name: G#3, Velocity: 48
Note OFF: Time 384360, Note Name: G#3
Note OFF: Time 384360, Note Name: E4
Note ON: Time 384480, Note Name: E4, Velocity: 48
Note ON: Time 384480, Note Name: G#3, Velocity: 48
Note OFF: Time 384600, Note Name: G#3
Note OFF: Time 384600, Note Name: E4
Note ON: Time 384720, Note Name: E4, Velocity: 48
Note ON: Time 384720, Note Name: G#3, Velocity: 48
Note OFF: Time 384840, Note Name: G#3
Note OFF: Time 384840, Note Name: E4
Note ON: Time 384960, Note Name: E4, Velocity: 48
Note ON: Time 384960, Note Name: G#3, Velocity: 48
Note OFF: Time 385080, Note Name: G#3
Note OFF: Time 385080, Note Name: E4
Note ON: Time 385200, Note Name: E4, Velocity: 48
Note ON: Time 385200, Note Name: G#3, Velocity: 48
Note OFF: Time 385320, Note Name: G#3
Note OFF: Time 385320, Note Name: E4
Note ON: Time 385440, Note Name: D#4, Velocity: 46
Note ON: Time 385440, Note Name: G#3, Velocity: 46
Note OFF: Time 385560, Note Name: G#3
Note OFF: Time 385560, Note Name: D#4
Note ON: Time 385680, Note Name: G#3, Velocity: 45
Note ON: Time 385680, Note Name: C#4, Velocity: 45
Note OFF: Time 385800, Note Name: C#4
Note OFF: Time 385800, Note Name: G#3
Note ON: Time 385920, Note Name: C4, Velocity: 53
Note ON: Time 385920, Note Name: G#3, Velocity: 53
Note OFF: Time 386160, Note Name: G#3
Note OFF: Time 386160, Note Name: C4
Note ON: Time 386160, Note Name: C4, Velocity: 48
Note ON: Time 386160, Note Name: G#4, Velocity: 48
Note OFF: Time 386280, Note Name: G#4
Note OFF: Time 386280, Note Name: C4
Note ON: Time 386400, Note Name: G#4, Velocity: 48
Note ON: Time 386400, Note Name: C4, Velocity: 48
Note OFF: Time 386520, Note Name: C4
Note OFF: Time 386520, Note Name: G#4
Note ON: Time 386640, Note Name: C4, Velocity: 48
Note ON: Time 386640, Note Name: G#4, Velocity: 48
Note OFF: Time 386760, Note Name: G#4
Note OFF: Time 386760, Note Name: C4
Note ON: Time 386880, Note Name: C4, Velocity: 48
Note ON: Time 386880, Note Name: G#4, Velocity: 48
Note OFF: Time 387000, Note Name: G#4
Note OFF: Time 387000, Note Name: C4
Note ON: Time 387120, Note Name: G#4, Velocity: 48
Note ON: Time 387120, Note Name: C4, Velocity: 48
Note OFF: Time 387240, Note Name: C4
Note OFF: Time 387240, Note Name: G#4
Note ON: Time 387360, Note Name: G#4, Velocity: 48
Note ON: Time 387360, Note Name: C#4, Velocity: 48
Note OFF: Time 387480, Note Name: C#4
Note OFF: Time 387480, Note Name: G#4
Note ON: Time 387600, Note Name: G#4, Velocity: 51
Note ON: Time 387600, Note Name: D#4, Velocity: 51
Note OFF: Time 387720, Note Name: D#4
Note OFF: Time 387720, Note Name: G#4
Note ON: Time 387840, Note Name: E4, Velocity: 59
Note ON: Time 387840, Note Name: G#4, Velocity: 59
Note OFF: Time 388080, Note Name: G#4
Note OFF: Time 388080, Note Name: E4
Note ON: Time 388080, Note Name: G#3, Velocity: 48
Note ON: Time 388080, Note Name: E4, Velocity: 48
Note OFF: Time 388200, Note Name: E4
Note OFF: Time 388200, Note Name: G#3
Note ON: Time 388320, Note Name: E4, Velocity: 48
Note ON: Time 388320, Note Name: G#3, Velocity: 48
Note OFF: Time 388440, Note Name: G#3
Note OFF: Time 388440, Note Name: E4
Note ON: Time 388560, Note Name: G#3, Velocity: 49
Note ON: Time 388560, Note Name: E4, Velocity: 49
Note OFF: Time 388680, Note Name: E4
Note OFF: Time 388680, Note Name: G#3
Note ON: Time 388800, Note Name: G#3, Velocity: 49
Note ON: Time 388800, Note Name: E4, Velocity: 49
Note OFF: Time 388920, Note Name: E4
Note OFF: Time 388920, Note Name: G#3
Note ON: Time 389040, Note Name: E4, Velocity: 49
Note ON: Time 389040, Note Name: G#3, Velocity: 49
Note OFF: Time 389160, Note Name: G#3
Note OFF: Time 389160, Note Name: E4
Note ON: Time 389280, Note Name: G#3, Velocity: 47
Note ON: Time 389280, Note Name: D#4, Velocity: 47
Note OFF: Time 389400, Note Name: D#4
Note OFF: Time 389400, Note Name: G#3
Note ON: Time 389520, Note Name: C#4, Velocity: 48
Note ON: Time 389520, Note Name: G#3, Velocity: 48
Note OFF: Time 389640, Note Name: G#3
Note OFF: Time 389640, Note Name: C#4
Note ON: Time 389760, Note Name: G#3, Velocity: 59
Note ON: Time 389760, Note Name: C4, Velocity: 59
Note OFF: Time 390000, Note Name: C4
Note OFF: Time 390000, Note Name: G#3
Note ON: Time 390000, Note Name: G#4, Velocity: 47
Note ON: Time 390000, Note Name: C4, Velocity: 47
Note OFF: Time 390120, Note Name: C4
Note OFF: Time 390120, Note Name: G#4
Note ON: Time 390240, Note Name: G#4, Velocity: 47
Note ON: Time 390240, Note Name: C4, Velocity: 47
Note OFF: Time 390360, Note Name: C4
Note OFF: Time 390360, Note Name: G#4
Note ON: Time 390480, Note Name: C4, Velocity: 47
Note ON: Time 390480, Note Name: G#4, Velocity: 47
Note OFF: Time 390600, Note Name: G#4
Note OFF: Time 390600, Note Name: C4
Note ON: Time 390720, Note Name: C4, Velocity: 47
Note ON: Time 390720, Note Name: G#4, Velocity: 47
Note OFF: Time 390840, Note Name: G#4
Note OFF: Time 390840, Note Name: C4
Note ON: Time 390960, Note Name: C4, Velocity: 47
Note ON: Time 390960, Note Name: G#4, Velocity: 47
Note OFF: Time 391080, Note Name: G#4
Note OFF: Time 391080, Note Name: C4
Note ON: Time 391200, Note Name: C#4, Velocity: 47
Note ON: Time 391200, Note Name: G#4, Velocity: 47
Note OFF: Time 391320, Note Name: G#4
Note OFF: Time 391320, Note Name: C#4
Note ON: Time 391440, Note Name: G#4, Velocity: 51
Note ON: Time 391440, Note Name: D#4, Velocity: 51
Note OFF: Time 391560, Note Name: D#4
Note OFF: Time 391560, Note Name: G#4
Note ON: Time 391680, Note Name: G#4, Velocity: 61
Note ON: Time 391680, Note Name: E4, Velocity: 61
Note OFF: Time 391800, Note Name: E4
Note OFF: Time 391800, Note Name: G#4
Note ON: Time 391920, Note Name: G#4, Velocity: 47
Note ON: Time 391920, Note Name: E4, Velocity: 47
Note OFF: Time 392040, Note Name: E4
Note OFF: Time 392040, Note Name: G#4
Note ON: Time 392160, Note Name: E4, Velocity: 48
Note ON: Time 392160, Note Name: G#4, Velocity: 48
Note OFF: Time 392400, Note Name: G#4
Note OFF: Time 392400, Note Name: E4
Note ON: Time 392400, Note Name: C#4, Velocity: 45
Note ON: Time 392400, Note Name: E4, Velocity: 45
Note OFF: Time 392640, Note Name: E4
Note OFF: Time 392640, Note Name: C#4
Note ON: Time 392880, Note Name: F#4, Velocity: 48
Note ON: Time 392880, Note Name: A4, Velocity: 48
Note OFF: Time 393000, Note Name: A4
Note OFF: Time 393000, Note Name: F#4
Note ON: Time 393120, Note Name: A4, Velocity: 48
Note ON: Time 393120, Note Name: F#4, Velocity: 48
Note OFF: Time 393360, Note Name: F#4
Note OFF: Time 393360, Note Name: A4
Note ON: Time 393360, Note Name: C#4, Velocity: 46
Note ON: Time 393360, Note Name: F#4, Velocity: 46
Note OFF: Time 393600, Note Name: F#4
Note OFF: Time 393600, Note Name: C#4
Note ON: Time 393840, Note Name: G#4, Velocity: 47
Note ON: Time 393840, Note Name: E4, Velocity: 47
Note OFF: Time 393960, Note Name: E4
Note OFF: Time 393960, Note Name: G#4
Note ON: Time 394080, Note Name: G#4, Velocity: 47
Note ON: Time 394080, Note Name: E4, Velocity: 47
Note OFF: Time 394320, Note Name: E4
Note OFF: Time 394320, Note Name: G#4
Note ON: Time 394320, Note Name: E4, Velocity: 46
Note ON: Time 394320, Note Name: C#4, Velocity: 46
Note OFF: Time 394560, Note Name: C#4
Note OFF: Time 394560, Note Name: E4
Note ON: Time 394800, Note Name: D#4, Velocity: 47
Note ON: Time 394800, Note Name: G#4, Velocity: 47
Note OFF: Time 394920, Note Name: G#4
Note OFF: Time 394920, Note Name: D#4
Note ON: Time 395040, Note Name: D#4, Velocity: 47
Note ON: Time 395040, Note Name: G#4, Velocity: 47
Note OFF: Time 395280, Note Name: G#4
Note OFF: Time 395280, Note Name: D#4
Note ON: Time 395280, Note Name: C4, Velocity: 45
Note ON: Time 395280, Note Name: D#4, Velocity: 45
Note OFF: Time 395520, Note Name: D#4
Note OFF: Time 395520, Note Name: C4
Note ON: Time 395520, Note Name: C#4, Velocity: 59
Note ON: Time 395520, Note Name: E4, Velocity: 59
Note OFF: Time 395760, Note Name: E4
Note OFF: Time 395760, Note Name: C#4
Note ON: Time 395760, Note Name: E4, Velocity: 39
Note ON: Time 395760, Note Name: E5, Velocity: 47
Note ON: Time 395760, Note Name: G#4, Velocity: 47
Note OFF: Time 395880, Note Name: G#4
Note OFF: Time 395880, Note Name: E5
Note OFF: Time 395880, Note Name: E4
Note ON: Time 396000, Note Name: E5, Velocity: 47
Note ON: Time 396000, Note Name: E4, Velocity: 39
Note ON: Time 396000, Note Name: G#4, Velocity: 47
Note OFF: Time 396120, Note Name: G#4
Note OFF: Time 396120, Note Name: E4
Note OFF: Time 396120, Note Name: E5
Note ON: Time 396240, Note Name: E4, Velocity: 39
Note ON: Time 396240, Note Name: G#4, Velocity: 47
Note ON: Time 396240, Note Name: E5, Velocity: 47
Note OFF: Time 396360, Note Name: E5
Note OFF: Time 396360, Note Name: G#4
Note OFF: Time 396360, Note Name: E4
Note ON: Time 396480, Note Name: G#4, Velocity: 47
Note ON: Time 396480, Note Name: E4, Velocity: 39
Note ON: Time 396480, Note Name: E5, Velocity: 47
Note OFF: Time 396600, Note Name: E5
Note OFF: Time 396600, Note Name: E4
Note OFF: Time 396600, Note Name: G#4
Note ON: Time 396720, Note Name: G#4, Velocity: 47
Note ON: Time 396720, Note Name: E4, Velocity: 39
Note ON: Time 396720, Note Name: E5, Velocity: 47
Note OFF: Time 396840, Note Name: E5
Note OFF: Time 396840, Note Name: E4
Note OFF: Time 396840, Note Name: G#4
Note ON: Time 396960, Note Name: F#4, Velocity: 50
Note ON: Time 396960, Note Name: D#4, Velocity: 42
Note ON: Time 396960, Note Name: D#5, Velocity: 50
Note OFF: Time 397080, Note Name: D#5
Note OFF: Time 397080, Note Name: D#4
Note OFF: Time 397080, Note Name: F#4
Note ON: Time 397200, Note Name: C#4, Velocity: 44
Note ON: Time 397200, Note Name: C#5, Velocity: 52
Note ON: Time 397200, Note Name: E4, Velocity: 52
Note OFF: Time 397320, Note Name: E4
Note OFF: Time 397320, Note Name: C#5
Note OFF: Time 397320, Note Name: C#4
Note ON: Time 397440, Note Name: D#4, Velocity: 58
Note ON: Time 397440, Note Name: C5, Velocity: 58
Note ON: Time 397440, Note Name: C4, Velocity: 49
Note OFF: Time 397680, Note Name: C4
Note OFF: Time 397680, Note Name: C5
Note OFF: Time 397680, Note Name: D#4
Note ON: Time 397680, Note Name: C5, Velocity: 68
Note ON: Time 397680, Note Name: D#5, Velocity: 81
Note ON: Time 397680, Note Name: C6, Velocity: 81
Note OFF: Time 397800, Note Name: C6
Note OFF: Time 397800, Note Name: D#5
Note OFF: Time 397800, Note Name: C5
Note ON: Time 397920, Note Name: D#5, Velocity: 86
Note ON: Time 397920, Note Name: C5, Velocity: 73
Note ON: Time 397920, Note Name: C6, Velocity: 86
Note OFF: Time 398040, Note Name: C6
Note OFF: Time 398040, Note Name: C5
Note OFF: Time 398040, Note Name: D#5
Note ON: Time 398160, Note Name: C5, Velocity: 68
Note ON: Time 398160, Note Name: C6, Velocity: 80
Note ON: Time 398160, Note Name: D#5, Velocity: 80
Note OFF: Time 398280, Note Name: D#5
Note OFF: Time 398280, Note Name: C6
Note OFF: Time 398280, Note Name: C5
Note ON: Time 398400, Note Name: C5, Velocity: 73
Note ON: Time 398400, Note Name: D#5, Velocity: 86
Note ON: Time 398400, Note Name: C6, Velocity: 86
Note OFF: Time 398520, Note Name: C6
Note OFF: Time 398520, Note Name: D#5
Note OFF: Time 398520, Note Name: C5
Note ON: Time 398640, Note Name: C5, Velocity: 68
Note ON: Time 398640, Note Name: C6, Velocity: 81
Note ON: Time 398640, Note Name: D#5, Velocity: 81
Note OFF: Time 398760, Note Name: D#5
Note OFF: Time 398760, Note Name: C6
Note OFF: Time 398760, Note Name: C5
Note ON: Time 398880, Note Name: E5, Velocity: 89
Note ON: Time 398880, Note Name: C#5, Velocity: 74
Note ON: Time 398880, Note Name: C#6, Velocity: 89
Note OFF: Time 399000, Note Name: C#6
Note OFF: Time 399000, Note Name: C#5
Note OFF: Time 399000, Note Name: E5
Note ON: Time 399120, Note Name: D#6, Velocity: 84
Note ON: Time 399120, Note Name: D#5, Velocity: 71
Note ON: Time 399120, Note Name: F#5, Velocity: 84
Note OFF: Time 399240, Note Name: F#5
Note OFF: Time 399240, Note Name: D#5
Note OFF: Time 399240, Note Name: D#6
Note ON: Time 399360, Note Name: E6, Velocity: 96
Note ON: Time 399360, Note Name: G#5, Velocity: 96
Note ON: Time 399360, Note Name: E5, Velocity: 81
Note OFF: Time 399600, Note Name: E5
Note OFF: Time 399600, Note Name: G#5
Note OFF: Time 399600, Note Name: E6
Note ON: Time 399600, Note Name: G#4, Velocity: 47
Note ON: Time 399600, Note Name: E4, Velocity: 39
Note ON: Time 399600, Note Name: E5, Velocity: 47
Note OFF: Time 399720, Note Name: E5
Note OFF: Time 399720, Note Name: E4
Note OFF: Time 399720, Note Name: G#4
Note ON: Time 399840, Note Name: E4, Velocity: 39
Note ON: Time 399840, Note Name: G#4, Velocity: 47
Note ON: Time 399840, Note Name: E5, Velocity: 47
Note OFF: Time 399960, Note Name: E5
Note OFF: Time 399960, Note Name: G#4
Note OFF: Time 399960, Note Name: E4
Note ON: Time 400080, Note Name: G#4, Velocity: 47
Note ON: Time 400080, Note Name: E4, Velocity: 39
Note ON: Time 400080, Note Name: E5, Velocity: 47
Note OFF: Time 400200, Note Name: E5
Note OFF: Time 400200, Note Name: E4
Note OFF: Time 400200, Note Name: G#4
Note ON: Time 400320, Note Name: E5, Velocity: 48
Note ON: Time 400320, Note Name: E4, Velocity: 40
Note ON: Time 400320, Note Name: G#4, Velocity: 48
Note OFF: Time 400440, Note Name: G#4
Note OFF: Time 400440, Note Name: E4
Note OFF: Time 400440, Note Name: E5
Note ON: Time 400560, Note Name: G#4, Velocity: 48
Note ON: Time 400560, Note Name: E4, Velocity: 40
Note ON: Time 400560, Note Name: E5, Velocity: 48
Note OFF: Time 400680, Note Name: E5
Note OFF: Time 400680, Note Name: E4
Note OFF: Time 400680, Note Name: G#4
Note ON: Time 400800, Note Name: D#4, Velocity: 40
Note ON: Time 400800, Note Name: F#4, Velocity: 48
Note ON: Time 400800, Note Name: D#5, Velocity: 48
Note OFF: Time 400920, Note Name: D#5
Note OFF: Time 400920, Note Name: F#4
Note OFF: Time 400920, Note Name: D#4
Note ON: Time 401040, Note Name: E4, Velocity: 50
Note ON: Time 401040, Note Name: C#5, Velocity: 50
Note ON: Time 401040, Note Name: C#4, Velocity: 42
Note OFF: Time 401160, Note Name: C#4
Note OFF: Time 401160, Note Name: C#5
Note OFF: Time 401160, Note Name: E4
Note ON: Time 401280, Note Name: C5, Velocity: 56
Note ON: Time 401280, Note Name: D#4, Velocity: 56
Note ON: Time 401280, Note Name: C4, Velocity: 47
Note OFF: Time 401520, Note Name: C4
Note OFF: Time 401520, Note Name: D#4
Note OFF: Time 401520, Note Name: C5
Note ON: Time 401520, Note Name: D#5, Velocity: 78
Note ON: Time 401520, Note Name: C6, Velocity: 78
Note ON: Time 401520, Note Name: C5, Velocity: 66
Note OFF: Time 401640, Note Name: C5
Note OFF: Time 401640, Note Name: C6
Note OFF: Time 401640, Note Name: D#5
Note ON: Time 401760, Note Name: D#5, Velocity: 86
Note ON: Time 401760, Note Name: C5, Velocity: 73
Note ON: Time 401760, Note Name: C6, Velocity: 86
Note OFF: Time 401880, Note Name: C6
Note OFF: Time 401880, Note Name: C5
Note OFF: Time 401880, Note Name: D#5
Note ON: Time 402000, Note Name: D#5, Velocity: 80
Note ON: Time 402000, Note Name: C5, Velocity: 68
Note ON: Time 402000, Note Name: C6, Velocity: 80
Note OFF: Time 402120, Note Name: C6
Note OFF: Time 402120, Note Name: C5
Note OFF: Time 402120, Note Name: D#5
Note ON: Time 402240, Note Name: C6, Velocity: 86
Note ON: Time 402240, Note Name: C5, Velocity: 73
Note ON: Time 402240, Note Name: D#5, Velocity: 86
Note OFF: Time 402360, Note Name: D#5
Note OFF: Time 402360, Note Name: C5
Note OFF: Time 402360, Note Name: C6
Note ON: Time 402480, Note Name: D#5, Velocity: 86
Note ON: Time 402480, Note Name: C6, Velocity: 86
Note ON: Time 402480, Note Name: C5, Velocity: 73
Note OFF: Time 402600, Note Name: C5
Note OFF: Time 402600, Note Name: C6
Note OFF: Time 402600, Note Name: D#5
Note ON: Time 402720, Note Name: C#5, Velocity: 73
Note ON: Time 402720, Note Name: C#6, Velocity: 86
Note ON: Time 402720, Note Name: E5, Velocity: 86
Note OFF: Time 402840, Note Name: E5
Note OFF: Time 402840, Note Name: C#6
Note OFF: Time 402840, Note Name: C#5
Note ON: Time 402960, Note Name: D#6, Velocity: 80
Note ON: Time 402960, Note Name: D#5, Velocity: 68
Note ON: Time 402960, Note Name: F#5, Velocity: 80
Note OFF: Time 403080, Note Name: F#5
Note OFF: Time 403080, Note Name: D#5
Note OFF: Time 403080, Note Name: D#6
Note ON: Time 403200, Note Name: E5, Velocity: 82
Note ON: Time 403200, Note Name: G#5, Velocity: 97
Note ON: Time 403200, Note Name: E6, Velocity: 97
Note OFF: Time 403440, Note Name: E6
Note OFF: Time 403440, Note Name: G#5
Note OFF: Time 403440, Note Name: E5
Note ON: Time 403440, Note Name: G#5, Velocity: 50
Note ON: Time 403440, Note Name: C#6, Velocity: 50
Note OFF: Time 403560, Note Name: C#6
Note OFF: Time 403560, Note Name: G#5
Note ON: Time 403680, Note Name: C#6, Velocity: 50
Note ON: Time 403680, Note Name: G#5, Velocity: 50
Note OFF: Time 403920, Note Name: G#5
Note OFF: Time 403920, Note Name: C#6
Note ON: Time 403920, Note Name: G#5, Velocity: 48
Note ON: Time 403920, Note Name: E5, Velocity: 48
Note OFF: Time 404160, Note Name: E5
Note OFF: Time 404160, Note Name: G#5
Note ON: Time 404400, Note Name: A5, Velocity: 49
Note ON: Time 404400, Note Name: C#6, Velocity: 49
Note OFF: Time 404520, Note Name: C#6
Note OFF: Time 404520, Note Name: A5
Note ON: Time 404640, Note Name: C#6, Velocity: 49
Note ON: Time 404640, Note Name: A5, Velocity: 49
Note OFF: Time 404880, Note Name: A5
Note OFF: Time 404880, Note Name: C#6
Note ON: Time 404880, Note Name: F#5, Velocity: 48
Note ON: Time 404880, Note Name: A5, Velocity: 48
Note OFF: Time 405120, Note Name: A5
Note OFF: Time 405120, Note Name: F#5
Note ON: Time 405360, Note Name: G#5, Velocity: 49
Note ON: Time 405360, Note Name: E5, Velocity: 49
Note OFF: Time 405480, Note Name: E5
Note OFF: Time 405480, Note Name: G#5
Note ON: Time 405600, Note Name: E5, Velocity: 49
Note ON: Time 405600, Note Name: G#5, Velocity: 49
Note OFF: Time 405840, Note Name: G#5
Note OFF: Time 405840, Note Name: E5
Note ON: Time 405840, Note Name: C#5, Velocity: 47
Note ON: Time 405840, Note Name: E5, Velocity: 47
Note OFF: Time 406080, Note Name: E5
Note OFF: Time 406080, Note Name: C#5
Note ON: Time 406320, Note Name: G#5, Velocity: 51
Note ON: Time 406320, Note Name: D#5, Velocity: 51
Note OFF: Time 406440, Note Name: D#5
Note OFF: Time 406440, Note Name: G#5
Note ON: Time 406560, Note Name: D#5, Velocity: 51
Note ON: Time 406560, Note Name: G#5, Velocity: 51
Note OFF: Time 406800, Note Name: G#5
Note OFF: Time 406800, Note Name: D#5
Note ON: Time 406800, Note Name: C5, Velocity: 49
Note ON: Time 406800, Note Name: D#5, Velocity: 49
Note OFF: Time 407040, Note Name: D#5
Note OFF: Time 407040, Note Name: C5
Note ON: Time 407280, Note Name: E5, Velocity: 56
Note ON: Time 407280, Note Name: G#5, Velocity: 56
Note OFF: Time 407400, Note Name: G#5
Note OFF: Time 407400, Note Name: E5
Note ON: Time 407520, Note Name: E5, Velocity: 56
Note ON: Time 407520, Note Name: G#5, Velocity: 56
Note OFF: Time 407760, Note Name: G#5
Note OFF: Time 407760, Note Name: E5
Note ON: Time 407760, Note Name: G#4, Velocity: 54
Note ON: Time 407760, Note Name: E5, Velocity: 54
Note OFF: Time 408000, Note Name: E5
Note OFF: Time 408000, Note Name: G#4
Note ON: Time 408240, Note Name: F#5, Velocity: 65
Note ON: Time 408240, Note Name: A4, Velocity: 65
Note OFF: Time 408360, Note Name: A4
Note OFF: Time 408360, Note Name: F#5
Note ON: Time 408480, Note Name: F#5, Velocity: 63
Note ON: Time 408480, Note Name: A4, Velocity: 63
Note OFF: Time 408720, Note Name: A4
Note OFF: Time 408720, Note Name: F#5
Note ON: Time 408720, Note Name: F#4, Velocity: 62
Note ON: Time 408720, Note Name: D5, Velocity: 62
Note OFF: Time 408960, Note Name: D5
Note OFF: Time 408960, Note Name: F#4
Note ON: Time 409200, Note Name: E5, Velocity: 57
Note ON: Time 409200, Note Name: G#4, Velocity: 57
Note OFF: Time 409320, Note Name: G#4
Note OFF: Time 409320, Note Name: E5
Note ON: Time 409440, Note Name: G#4, Velocity: 57
Note ON: Time 409440, Note Name: E5, Velocity: 57
Note OFF: Time 409680, Note Name: E5
Note OFF: Time 409680, Note Name: G#4
Note ON: Time 409680, Note Name: E4, Velocity: 57
Note ON: Time 409680, Note Name: C#5, Velocity: 57
Note OFF: Time 409920, Note Name: C#5
Note OFF: Time 409920, Note Name: E4
Note ON: Time 410160, Note Name: D#5, Velocity: 49
Note ON: Time 410160, Note Name: F#4, Velocity: 49
Note OFF: Time 410280, Note Name: F#4
Note OFF: Time 410280, Note Name: D#5
Note ON: Time 410400, Note Name: D#5, Velocity: 49
Note ON: Time 410400, Note Name: F#4, Velocity: 49
Note OFF: Time 410640, Note Name: F#4
Note OFF: Time 410640, Note Name: D#5
Note ON: Time 410640, Note Name: C5, Velocity: 47
Note ON: Time 410640, Note Name: D#4, Velocity: 47
Note OFF: Time 410880, Note Name: D#4
Note OFF: Time 410880, Note Name: C5
Note ON: Time 410880, Note Name: C#5, Velocity: 50
Note ON: Time 410880, Note Name: E4, Velocity: 50
Note OFF: Time 411360, Note Name: E4
Note OFF: Time 411360, Note Name: C#5
Note ON: Time 412320, Note Name: E4, Velocity: 50
Note OFF: Time 412680, Note Name: E4
Note ON: Time 412680, Note Name: C#4, Velocity: 50
Note OFF: Time 412800, Note Name: C#4
Note ON: Time 412800, Note Name: C4, Velocity: 57
Note OFF: Time 413280, Note Name: C4
Note ON: Time 413280, Note Name: C4, Velocity: 47
Note ON: Time 413280, Note Name: F#3, Velocity: 39
Note ON: Time 413280, Note Name: G#4, Velocity: 47
Note OFF: Time 413640, Note Name: G#4
Note OFF: Time 413640, Note Name: F#3
Note OFF: Time 413640, Note Name: C4
Note ON: Time 413760, Note Name: C4, Velocity: 47
Note ON: Time 413760, Note Name: G#4, Velocity: 47
Note ON: Time 413760, Note Name: F#3, Velocity: 39
Note OFF: Time 414120, Note Name: F#3
Note OFF: Time 414120, Note Name: G#4
Note OFF: Time 414120, Note Name: C4
Note ON: Time 414240, Note Name: F#3, Velocity: 42
Note ON: Time 414240, Note Name: C4, Velocity: 50
Note ON: Time 414240, Note Name: G#4, Velocity: 50
Note OFF: Time 414600, Note Name: G#4
Note OFF: Time 414600, Note Name: C4
Note OFF: Time 414600, Note Name: F#3
Note ON: Time 414600, Note Name: E3, Velocity: 50
Note OFF: Time 414660, Note Name: E3
Note ON: Time 414660, Note Name: C#4, Velocity: 50
Note OFF: Time 414720, Note Name: C#4
Note ON: Time 414720, Note Name: G#4, Velocity: 57
Note OFF: Time 416160, Note Name: G#4
Note ON: Time 416160, Note Name: E5, Velocity: 58
Note OFF: Time 416520, Note Name: E5
Note ON: Time 416520, Note Name: C#5, Velocity: 58
Note OFF: Time 416640, Note Name: C#5
Note ON: Time 416640, Note Name: C5, Velocity: 67
Note OFF: Time 417120, Note Name: C5
Note ON: Time 417120, Note Name: G#5, Velocity: 57
Note ON: Time 417120, Note Name: F#4, Velocity: 48
Note ON: Time 417120, Note Name: C5, Velocity: 57
Note OFF: Time 417480, Note Name: C5
Note OFF: Time 417480, Note Name: F#4
Note OFF: Time 417480, Note Name: G#5
Note ON: Time 417600, Note Name: C5, Velocity: 57
Note ON: Time 417600, Note Name: F#4, Velocity: 48
Note ON: Time 417600, Note Name: G#5, Velocity: 57
Note OFF: Time 417960, Note Name: G#5
Note OFF: Time 417960, Note Name: F#4
Note OFF: Time 417960, Note Name: C5
Note ON: Time 418080, Note Name: C5, Velocity: 57
Note ON: Time 418080, Note Name: G#5, Velocity: 57
Note ON: Time 418080, Note Name: F#4, Velocity: 48
Note OFF: Time 418440, Note Name: F#4
Note OFF: Time 418440, Note Name: G#5
Note OFF: Time 418440, Note Name: C5
Note ON: Time 418440, Note Name: E4, Velocity: 47
Note OFF: Time 418500, Note Name: E4
Note ON: Time 418500, Note Name: C#5, Velocity: 53
Note OFF: Time 418560, Note Name: C#5
Note ON: Time 418560, Note Name: G#5, Velocity: 73
Note OFF: Time 419400, Note Name: G#5
Note ON: Time 419400, Note Name: F#4, Velocity: 45
Note OFF: Time 419460, Note Name: F#4
Note ON: Time 419460, Note Name: C5, Velocity: 52
Note OFF: Time 419520, Note Name: C5
Note ON: Time 419520, Note Name: G#5, Velocity: 72
Note OFF: Time 420360, Note Name: G#5
Note ON: Time 420360, Note Name: E4, Velocity: 43
Note OFF: Time 420420, Note Name: E4
Note ON: Time 420420, Note Name: C#5, Velocity: 53
Note OFF: Time 420480, Note Name: C#5
Note ON: Time 420480, Note Name: G#5, Velocity: 72
Note OFF: Time 421320, Note Name: G#5
Note ON: Time 421320, Note Name: F#4, Velocity: 45
Note OFF: Time 421380, Note Name: F#4
Note ON: Time 421380, Note Name: C5, Velocity: 53
Note OFF: Time 421440, Note Name: C5
Note ON: Time 421440, Note Name: G#5, Velocity: 71
Note OFF: Time 422400, Note Name: G#5
Note ON: Time 422400, Note Name: E3, Velocity: 51
Note OFF: Time 422519, Note Name: E3
Note ON: Time 422520, Note Name: C#4, Velocity: 48
Note OFF: Time 422639, Note Name: C#4
Note ON: Time 422640, Note Name: G#3, Velocity: 51
Note OFF: Time 422759, Note Name: G#3
Note ON: Time 422760, Note Name: C#4, Velocity: 49
Note OFF: Time 422879, Note Name: C#4
Note ON: Time 422880, Note Name: E3, Velocity: 53
Note OFF: Time 422999, Note Name: E3
Note ON: Time 423000, Note Name: C#4, Velocity: 51
Note OFF: Time 423119, Note Name: C#4
Note ON: Time 423120, Note Name: G#3, Velocity: 56
Note OFF: Time 423239, Note Name: G#3
Note ON: Time 423240, Note Name: C#4, Velocity: 52
Note OFF: Time 423359, Note Name: C#4
Note ON: Time 423360, Note Name: E3, Velocity: 57
Note OFF: Time 423479, Note Name: E3
Note ON: Time 423480, Note Name: C#4, Velocity: 53
Note OFF: Time 423599, Note Name: C#4
Note ON: Time 423600, Note Name: G#3, Velocity: 59
Note OFF: Time 423719, Note Name: G#3
Note ON: Time 423720, Note Name: C#4, Velocity: 56
Note OFF: Time 423839, Note Name: C#4
Note ON: Time 423840, Note Name: E3, Velocity: 61
Note OFF: Time 423959, Note Name: E3
Note ON: Time 423960, Note Name: C#4, Velocity: 57
Note OFF: Time 424079, Note Name: C#4
Note ON: Time 424080, Note Name: G#3, Velocity: 62
Note OFF: Time 424199, Note Name: G#3
Note ON: Time 424200, Note Name: C#4, Velocity: 57
Note OFF: Time 424319, Note Name: C#4
Note ON: Time 424320, Note Name: F3, Velocity: 65
Note ON: Time 424320, Note Name: C#3, Velocity: 65
Note OFF: Time 424439, Note Name: C#3
Note OFF: Time 424439, Note Name: F3
Note ON: Time 424440, Note Name: C#4, Velocity: 58
Note OFF: Time 424559, Note Name: C#4
Note ON: Time 424560, Note Name: G#3, Velocity: 67
Note OFF: Time 424679, Note Name: G#3
Note ON: Time 424680, Note Name: C#4, Velocity: 60
Note OFF: Time 424799, Note Name: C#4
Note ON: Time 424800, Note Name: F3, Velocity: 68
Note ON: Time 424800, Note Name: C#3, Velocity: 68
Note OFF: Time 424919, Note Name: C#3
Note OFF: Time 424919, Note Name: F3
Note ON: Time 424920, Note Name: C#4, Velocity: 61
Note OFF: Time 425039, Note Name: C#4
Note ON: Time 425040, Note Name: G#3, Velocity: 69
Note OFF: Time 425159, Note Name: G#3
Note ON: Time 425160, Note Name: C#4, Velocity: 65
Note OFF: Time 425279, Note Name: C#4
Note ON: Time 425280, Note Name: F3, Velocity: 72
Note ON: Time 425280, Note Name: C#3, Velocity: 72
Note OFF: Time 425399, Note Name: C#3
Note OFF: Time 425399, Note Name: F3
Note ON: Time 425400, Note Name: C#4, Velocity: 67
Note OFF: Time 425519, Note Name: C#4
Note ON: Time 425520, Note Name: G#3, Velocity: 73
Note OFF: Time 425639, Note Name: G#3
Note ON: Time 425640, Note Name: C#4, Velocity: 68
Note OFF: Time 425759, Note Name: C#4
Note ON: Time 425760, Note Name: C#3, Velocity: 74
Note ON: Time 425760, Note Name: F3, Velocity: 74
Note OFF: Time 425879, Note Name: F3
Note OFF: Time 425879, Note Name: C#3
Note ON: Time 425880, Note Name: C#4, Velocity: 70
Note OFF: Time 425999, Note Name: C#4
Note ON: Time 426000, Note Name: G#3, Velocity: 76
Note OFF: Time 426119, Note Name: G#3
Note ON: Time 426120, Note Name: C#4, Velocity: 71
Note OFF: Time 426222, Note Name: C#4
Note ON: Time 426240, Note Name: F#3, Velocity: 67
Note ON: Time 426240, Note Name: C#4, Velocity: 79
Note ON: Time 426240, Note Name: C#3, Velocity: 67
Note ON: Time 426240, Note Name: A3, Velocity: 67
Note OFF: Time 426360, Note Name: A3
Note OFF: Time 426360, Note Name: F#3
Note OFF: Time 426360, Note Name: C#4
Note OFF: Time 426360, Note Name: C#3
Note ON: Time 426360, Note Name: C#3, Velocity: 53
Note ON: Time 426480, Note Name: F#3, Velocity: 56
Note OFF: Time 426500, Note Name: C#3
Note ON: Time 426600, Note Name: A3, Velocity: 57
Note OFF: Time 426620, Note Name: F#3
Note ON: Time 426720, Note Name: C#4, Velocity: 59
Note OFF: Time 426740, Note Name: A3
Note ON: Time 426840, Note Name: F#3, Velocity: 54
Note OFF: Time 426860, Note Name: C#4
Note ON: Time 426960, Note Name: A3, Velocity: 54
Note OFF: Time 426980, Note Name: F#3
Note ON: Time 427080, Note Name: C#4, Velocity: 56
Note OFF: Time 427100, Note Name: A3
Note ON: Time 427200, Note Name: F#4, Velocity: 57
Note OFF: Time 427220, Note Name: C#4
Note ON: Time 427320, Note Name: A3, Velocity: 53
Note OFF: Time 427340, Note Name: F#4
Note ON: Time 427440, Note Name: C#4, Velocity: 56
Note OFF: Time 427460, Note Name: A3
Note ON: Time 427560, Note Name: F#4, Velocity: 57
Note OFF: Time 427580, Note Name: C#4
Note ON: Time 427680, Note Name: A4, Velocity: 58
Note OFF: Time 427700, Note Name: F#4
Note ON: Time 427800, Note Name: C#4, Velocity: 53
Note OFF: Time 427820, Note Name: A4
Note ON: Time 427920, Note Name: F#4, Velocity: 53
Note OFF: Time 427940, Note Name: C#4
Note ON: Time 428040, Note Name: A4, Velocity: 54
Note OFF: Time 428060, Note Name: F#4
Note ON: Time 428160, Note Name: C#5, Velocity: 57
Note OFF: Time 428180, Note Name: A4
Note ON: Time 428280, Note Name: F#4, Velocity: 58
Note OFF: Time 428300, Note Name: C#5
Note ON: Time 428400, Note Name: A4, Velocity: 51
Note OFF: Time 428420, Note Name: F#4
Note ON: Time 428520, Note Name: C#5, Velocity: 52
Note OFF: Time 428540, Note Name: A4
Note ON: Time 428640, Note Name: F#5, Velocity: 56
Note OFF: Time 428660, Note Name: C#5
Note ON: Time 428760, Note Name: A4, Velocity: 51
Note OFF: Time 428780, Note Name: F#5
Note ON: Time 428880, Note Name: C#5, Velocity: 51
Note OFF: Time 428900, Note Name: A4
Note ON: Time 429000, Note Name: F#5, Velocity: 53
Note OFF: Time 429020, Note Name: C#5
Note ON: Time 429120, Note Name: A5, Velocity: 56
Note OFF: Time 429140, Note Name: F#5
Note ON: Time 429240, Note Name: C#5, Velocity: 51
Note OFF: Time 429260, Note Name: A5
Note ON: Time 429360, Note Name: F#5, Velocity: 54
Note OFF: Time 429380, Note Name: C#5
Note ON: Time 429480, Note Name: A5, Velocity: 57
Note OFF: Time 429500, Note Name: F#5
Note OFF: Time 429600, Note Name: A5
Note ON: Time 429600, Note Name: C#6, Velocity: 98
Note ON: Time 429600, Note Name: C#5, Velocity: 83
Note ON: Time 429600, Note Name: A5, Velocity: 98
Note ON: Time 429600, Note Name: F#5, Velocity: 83
Note OFF: Time 429720, Note Name: F#5
Note OFF: Time 429720, Note Name: C#6
Note OFF: Time 429720, Note Name: C#5
Note OFF: Time 429720, Note Name: A5
Note ON: Time 429840, Note Name: A5, Velocity: 81
Note ON: Time 429840, Note Name: F#5, Velocity: 69
Note ON: Time 429840, Note Name: C#6, Velocity: 81
Note ON: Time 429840, Note Name: C#5, Velocity: 69
Note OFF: Time 429960, Note Name: C#5
Note OFF: Time 429960, Note Name: A5
Note OFF: Time 429960, Note Name: F#5
Note OFF: Time 429960, Note Name: C#6
Note ON: Time 430200, Note Name: C#3, Velocity: 58
Note ON: Time 430320, Note Name: E3, Velocity: 60
Note OFF: Time 430340, Note Name: C#3
Note ON: Time 430440, Note Name: G#3, Velocity: 62
Note OFF: Time 430460, Note Name: E3
Note ON: Time 430560, Note Name: C#4, Velocity: 65
Note OFF: Time 430580, Note Name: G#3
Note ON: Time 430680, Note Name: E3, Velocity: 60
Note OFF: Time 430700, Note Name: C#4
Note ON: Time 430800, Note Name: G#3, Velocity: 62
Note OFF: Time 430820, Note Name: E3
Note ON: Time 430920, Note Name: C#4, Velocity: 63
Note OFF: Time 430940, Note Name: G#3
Note ON: Time 431040, Note Name: E4, Velocity: 66
Note OFF: Time 431060, Note Name: C#4
Note ON: Time 431160, Note Name: G#3, Velocity: 61
Note OFF: Time 431180, Note Name: E4
Note ON: Time 431280, Note Name: C#4, Velocity: 62
Note OFF: Time 431300, Note Name: G#3
Note ON: Time 431400, Note Name: E4, Velocity: 63
Note OFF: Time 431420, Note Name: C#4
Note ON: Time 431520, Note Name: G#4, Velocity: 67
Note OFF: Time 431540, Note Name: E4
Note ON: Time 431640, Note Name: C#4, Velocity: 61
Note OFF: Time 431660, Note Name: G#4
Note ON: Time 431760, Note Name: E4, Velocity: 62
Note OFF: Time 431780, Note Name: C#4
Note ON: Time 431880, Note Name: G#4, Velocity: 63
Note OFF: Time 431900, Note Name: E4
Note ON: Time 432000, Note Name: C#5, Velocity: 66
Note OFF: Time 432020, Note Name: G#4
Note ON: Time 432120, Note Name: E4, Velocity: 63
Note OFF: Time 432140, Note Name: C#5
Note ON: Time 432240, Note Name: G#4, Velocity: 63
Note OFF: Time 432260, Note Name: E4
Note ON: Time 432360, Note Name: C#5, Velocity: 62
Note OFF: Time 432380, Note Name: G#4
Note ON: Time 432480, Note Name: E5, Velocity: 66
Note OFF: Time 432500, Note Name: C#5
Note ON: Time 432600, Note Name: G#4, Velocity: 62
Note OFF: Time 432620, Note Name: E5
Note ON: Time 432720, Note Name: C#5, Velocity: 62
Note OFF: Time 432740, Note Name: G#4
Note ON: Time 432840, Note Name: E5, Velocity: 67
Note OFF: Time 432860, Note Name: C#5
Note ON: Time 432960, Note Name: G#5, Velocity: 68
Note OFF: Time 432980, Note Name: E5
Note ON: Time 433080, Note Name: C#5, Velocity: 62
Note OFF: Time 433100, Note Name: G#5
Note ON: Time 433200, Note Name: E5, Velocity: 66
Note OFF: Time 433220, Note Name: C#5
Note ON: Time 433320, Note Name: G#5, Velocity: 68
Note OFF: Time 433340, Note Name: E5
Note OFF: Time 433440, Note Name: G#5
Note ON: Time 433440, Note Name: C#6, Velocity: 109
Note ON: Time 433440, Note Name: E5, Velocity: 92
Note ON: Time 433440, Note Name: C#5, Velocity: 92
Note ON: Time 433440, Note Name: G#5, Velocity: 109
Note OFF: Time 433560, Note Name: G#5
Note OFF: Time 433560, Note Name: C#6
Note OFF: Time 433560, Note Name: E5
Note OFF: Time 433560, Note Name: C#5
Note ON: Time 433680, Note Name: C#5, Velocity: 81
Note ON: Time 433680, Note Name: E5, Velocity: 81
Note ON: Time 433680, Note Name: G#5, Velocity: 96
Note ON: Time 433680, Note Name: C#6, Velocity: 96
Note OFF: Time 433800, Note Name: C#6
Note OFF: Time 433800, Note Name: C#5
Note OFF: Time 433800, Note Name: E5
Note OFF: Time 433800, Note Name: G#5
Note ON: Time 434160, Note Name: C#3, Velocity: 31
Note ON: Time 434220, Note Name: E3, Velocity: 33
Note ON: Time 434280, Note Name: G3, Velocity: 35
Note ON: Time 434340, Note Name: A#3, Velocity: 39
Note ON: Time 434400, Note Name: C#4, Velocity: 45
Note OFF: Time 435120, Note Name: C#4
Note OFF: Time 435120, Note Name: G3
Note OFF: Time 435120, Note Name: C#3
Note OFF: Time 435120, Note Name: E3
Note OFF: Time 435120, Note Name: A#3
Note ON: Time 435120, Note Name: C#4, Velocity: 53
Note ON: Time 435180, Note Name: E4, Velocity: 56
Note ON: Time 435240, Note Name: G4, Velocity: 58
Note ON: Time 435300, Note Name: A#4, Velocity: 61
Note ON: Time 435360, Note Name: C#5, Velocity: 62
Note OFF: Time 435840, Note Name: C#5
Note OFF: Time 436080, Note Name: G4
Note OFF: Time 436080, Note Name: C#4
Note OFF: Time 436080, Note Name: E4
Note OFF: Time 436080, Note Name: A#4
Note ON: Time 436080, Note Name: C#5, Velocity: 66
Note ON: Time 436140, Note Name: E5, Velocity: 68
Note ON: Time 436200, Note Name: G5, Velocity: 73
Note ON: Time 436260, Note Name: A#5, Velocity: 76
Note ON: Time 436320, Note Name: C#6, Velocity: 79
Note OFF: Time 437760, Note Name: C#6
Note OFF: Time 437760, Note Name: G5
Note OFF: Time 437760, Note Name: C#5
Note OFF: Time 437760, Note Name: E5
Note OFF: Time 437760, Note Name: A#5
Note ON: Time 438000, Note Name: A2, Velocity: 29
Note ON: Time 438060, Note Name: C3, Velocity: 32
Note ON: Time 438120, Note Name: D#3, Velocity: 35
Note ON: Time 438180, Note Name: F#3, Velocity: 38
Note ON: Time 438240, Note Name: A3, Velocity: 41
Note OFF: Time 438960, Note Name: A3
Note OFF: Time 438960, Note Name: D#3
Note OFF: Time 438960, Note Name: A2
Note OFF: Time 438960, Note Name: C3
Note OFF: Time 438960, Note Name: F#3
Note ON: Time 438960, Note Name: A3, Velocity: 56
Note ON: Time 439020, Note Name: C4, Velocity: 57
Note ON: Time 439080, Note Name: D#4, Velocity: 58
Note ON: Time 439140, Note Name: F#4, Velocity: 59
Note ON: Time 439200, Note Name: A4, Velocity: 62
Note OFF: Time 439680, Note Name: A4
Note ON: Time 439800, Note Name: A4, Velocity: 73
Note OFF: Time 439920, Note Name: D#4
Note OFF: Time 439920, Note Name: F#4
Note OFF: Time 439920, Note Name: A3
Note OFF: Time 439920, Note Name: C4
Note ON: Time 439920, Note Name: C5, Velocity: 77
Note ON: Time 440040, Note Name: D#5, Velocity: 79
Note ON: Time 440160, Note Name: A5, Velocity: 91
Note OFF: Time 441600, Note Name: A5
Note OFF: Time 441600, Note Name: A4
Note OFF: Time 441600, Note Name: C5
Note OFF: Time 441600, Note Name: D#5
Note ON: Time 441720, Note Name: G#4, Velocity: 31
Note ON: Time 441840, Note Name: E4, Velocity: 34
Note OFF: Time 441860, Note Name: G#4
Note ON: Time 441960, Note Name: G#4, Velocity: 30
Note OFF: Time 441980, Note Name: E4
Note ON: Time 442080, Note Name: C#4, Velocity: 39
Note OFF: Time 442100, Note Name: G#4
Note OFF: Time 442199, Note Name: C#4
Note ON: Time 442200, Note Name: G#4, Velocity: 30
Note OFF: Time 442319, Note Name: G#4
Note ON: Time 442320, Note Name: E4, Velocity: 34
Note OFF: Time 442439, Note Name: E4
Note ON: Time 442440, Note Name: G#4, Velocity: 30
Note OFF: Time 442559, Note Name: G#4
Note ON: Time 442560, Note Name: C#4, Velocity: 39
Note OFF: Time 442679, Note Name: C#4
Note ON: Time 442680, Note Name: G#4, Velocity: 31
Note OFF: Time 442799, Note Name: G#4
Note ON: Time 442800, Note Name: E4, Velocity: 34
Note OFF: Time 442919, Note Name: E4
Note ON: Time 442920, Note Name: G#4, Velocity: 30
Note OFF: Time 443039, Note Name: G#4
Note ON: Time 443040, Note Name: C#4, Velocity: 39
Note OFF: Time 443159, Note Name: C#4
Note ON: Time 443160, Note Name: G#4, Velocity: 31
Note OFF: Time 443279, Note Name: G#4
Note ON: Time 443280, Note Name: E4, Velocity: 34
Note OFF: Time 443399, Note Name: E4
Note ON: Time 443400, Note Name: G#4, Velocity: 31
Note OFF: Time 443519, Note Name: G#4
Note ON: Time 443520, Note Name: D#4, Velocity: 39
Note ON: Time 443640, Note Name: G#4, Velocity: 31
Note OFF: Time 443660, Note Name: D#4
Note ON: Time 443760, Note Name: F#4, Velocity: 34
Note OFF: Time 443780, Note Name: G#4
Note ON: Time 443880, Note Name: G#4, Velocity: 30
Note OFF: Time 443900, Note Name: F#4
Note ON: Time 444000, Note Name: D#4, Velocity: 50
Note OFF: Time 444020, Note Name: G#4
Note OFF: Time 444119, Note Name: D#4
Note ON: Time 444120, Note Name: G#4, Velocity: 43
Note OFF: Time 444239, Note Name: G#4
Note ON: Time 444240, Note Name: F#4, Velocity: 47
Note OFF: Time 444359, Note Name: F#4
Note ON: Time 444360, Note Name: G#4, Velocity: 44
Note OFF: Time 444479, Note Name: G#4
Note ON: Time 444480, Note Name: D#4, Velocity: 58
Note OFF: Time 444599, Note Name: D#4
Note ON: Time 444600, Note Name: G#4, Velocity: 46
Note OFF: Time 444719, Note Name: G#4
Note ON: Time 444720, Note Name: F#4, Velocity: 54
Note OFF: Time 444839, Note Name: F#4
Note ON: Time 444840, Note Name: G#4, Velocity: 51
Note OFF: Time 444959, Note Name: G#4
Note ON: Time 444960, Note Name: D#4, Velocity: 66
Note OFF: Time 445079, Note Name: D#4
Note ON: Time 445080, Note Name: G#4, Velocity: 49
Note OFF: Time 445199, Note Name: G#4
Note ON: Time 445200, Note Name: F#4, Velocity: 51
Note OFF: Time 445319, Note Name: F#4
Note ON: Time 445320, Note Name: G#4, Velocity: 43
Note OFF: Time 445439, Note Name: G#4
Note ON: Time 445440, Note Name: C#4, Velocity: 39
Note ON: Time 445560, Note Name: G#4, Velocity: 30
Note OFF: Time 445580, Note Name: C#4
Note ON: Time 445680, Note Name: E4, Velocity: 34
Note OFF: Time 445700, Note Name: G#4
Note ON: Time 445800, Note Name: G#4, Velocity: 31
Note OFF: Time 445820, Note Name: E4
Note ON: Time 445920, Note Name: C#4, Velocity: 50
Note OFF: Time 445940, Note Name: G#4
Note OFF: Time 446039, Note Name: C#4
Note ON: Time 446040, Note Name: G#4, Velocity: 40
Note OFF: Time 446159, Note Name: G#4
Note ON: Time 446160, Note Name: E4, Velocity: 47
Note OFF: Time 446279, Note Name: E4
Note ON: Time 446280, Note Name: G#4, Velocity: 43
Note OFF: Time 446399, Note Name: G#4
Note ON: Time 446400, Note Name: C#4, Velocity: 58
Note OFF: Time 446519, Note Name: C#4
Note ON: Time 446520, Note Name: G#4, Velocity: 48
Note OFF: Time 446639, Note Name: G#4
Note ON: Time 446640, Note Name: E4, Velocity: 54
Note OFF: Time 446759, Note Name: E4
Note ON: Time 446760, Note Name: G#4, Velocity: 49
Note OFF: Time 446879, Note Name: G#4
Note ON: Time 446880, Note Name: C#4, Velocity: 66
Note OFF: Time 446999, Note Name: C#4
Note ON: Time 447000, Note Name: G#4, Velocity: 49
Note OFF: Time 447119, Note Name: G#4
Note ON: Time 447120, Note Name: E4, Velocity: 51
Note OFF: Time 447239, Note Name: E4
Note ON: Time 447240, Note Name: G#4, Velocity: 42
Note OFF: Time 447359, Note Name: G#4
Note ON: Time 447360, Note Name: C4, Velocity: 39
Note ON: Time 447480, Note Name: G#4, Velocity: 29
Note OFF: Time 447500, Note Name: C4
Note ON: Time 447600, Note Name: F#4, Velocity: 34
Note OFF: Time 447620, Note Name: G#4
Note ON: Time 447720, Note Name: G#4, Velocity: 30
Note OFF: Time 447740, Note Name: F#4
Note ON: Time 447840, Note Name: C4, Velocity: 50
Note OFF: Time 447860, Note Name: G#4
Note OFF: Time 447959, Note Name: C4
Note ON: Time 447960, Note Name: G#4, Velocity: 40
Note OFF: Time 448079, Note Name: G#4
Note ON: Time 448080, Note Name: F#4, Velocity: 47
Note OFF: Time 448199, Note Name: F#4
Note ON: Time 448200, Note Name: G#4, Velocity: 43
Note OFF: Time 448319, Note Name: G#4
Note ON: Time 448320, Note Name: C4, Velocity: 58
Note OFF: Time 448439, Note Name: C4
Note ON: Time 448440, Note Name: G#4, Velocity: 49
Note OFF: Time 448559, Note Name: G#4
Note ON: Time 448560, Note Name: F#4, Velocity: 54
Note OFF: Time 448679, Note Name: F#4
Note ON: Time 448680, Note Name: G#4, Velocity: 49
Note OFF: Time 448799, Note Name: G#4
Note ON: Time 448800, Note Name: C4, Velocity: 66
Note OFF: Time 448919, Note Name: C4
Note ON: Time 448920, Note Name: G#4, Velocity: 48
Note OFF: Time 449039, Note Name: G#4
Note ON: Time 449040, Note Name: F#4, Velocity: 51
Note OFF: Time 449159, Note Name: F#4
Note ON: Time 449160, Note Name: G#4, Velocity: 43
Note OFF: Time 449262, Note Name: G#4
Note ON: Time 449280, Note Name: E4, Velocity: 41
Note ON: Time 449280, Note Name: G#4, Velocity: 41
Note ON: Time 449280, Note Name: C#4, Velocity: 41
Note OFF: Time 449520, Note Name: C#4
Note OFF: Time 449520, Note Name: G#4
Note OFF: Time 449520, Note Name: E4
Note ON: Time 449760, Note Name: G#5, Velocity: 57
Note ON: Time 449760, Note Name: G#4, Velocity: 57
Note OFF: Time 450720, Note Name: G#4
Note OFF: Time 450720, Note Name: G#5
Note ON: Time 450720, Note Name: E4, Velocity: 47
Note ON: Time 450720, Note Name: E5, Velocity: 47
Note OFF: Time 451080, Note Name: E5
Note OFF: Time 451080, Note Name: E4
Note ON: Time 451080, Note Name: C#4, Velocity: 47
Note ON: Time 451080, Note Name: C#5, Velocity: 47
Note OFF: Time 451195, Note Name: C#5
Note OFF: Time 451195, Note Name: C#4
Note ON: Time 451200, Note Name: C#5, Velocity: 54
Note ON: Time 451200, Note Name: C#4, Velocity: 54
Note OFF: Time 451680, Note Name: C#4
Note OFF: Time 451680, Note Name: C#5
Note ON: Time 451680, Note Name: C5, Velocity: 46
Note ON: Time 451680, Note Name: C4, Velocity: 46
Note OFF: Time 452400, Note Name: C4
Note OFF: Time 452400, Note Name: C5
Note ON: Time 452400, Note Name: C5, Velocity: 47
Note ON: Time 452400, Note Name: C4, Velocity: 47
Note OFF: Time 452640, Note Name: C4
Note OFF: Time 452640, Note Name: C5
Note ON: Time 452640, Note Name: G#5, Velocity: 56
Note ON: Time 452640, Note Name: G#4, Velocity: 56
Note OFF: Time 453000, Note Name: G#4
Note OFF: Time 453000, Note Name: G#5
Note ON: Time 453000, Note Name: C4, Velocity: 47
Note ON: Time 453000, Note Name: C5, Velocity: 47
Note OFF: Time 453120, Note Name: C5
Note OFF: Time 453120, Note Name: C4
Note ON: Time 453120, Note Name: D#4, Velocity: 46
Note ON: Time 453120, Note Name: D#5, Velocity: 46
Note OFF: Time 453600, Note Name: D#5
Note OFF: Time 453600, Note Name: D#4
Note ON: Time 453600, Note Name: C#4, Velocity: 47
Note ON: Time 453600, Note Name: C#5, Velocity: 47
Note OFF: Time 454320, Note Name: C#5
Note OFF: Time 454320, Note Name: C#4
Note ON: Time 454320, Note Name: C#5, Velocity: 46
Note ON: Time 454320, Note Name: C#4, Velocity: 46
Note OFF: Time 454560, Note Name: C#4
Note OFF: Time 454560, Note Name: C#5
Note ON: Time 454560, Note Name: G#5, Velocity: 56
Note ON: Time 454560, Note Name: G#4, Velocity: 56
Note OFF: Time 454920, Note Name: G#4
Note OFF: Time 454920, Note Name: G#5
Note ON: Time 454920, Note Name: C#4, Velocity: 46
Note ON: Time 454920, Note Name: C#5, Velocity: 46
Note OFF: Time 455040, Note Name: C#5
Note OFF: Time 455040, Note Name: C#4
Note ON: Time 455040, Note Name: E5, Velocity: 49
Note ON: Time 455040, Note Name: E4, Velocity: 49
Note OFF: Time 455520, Note Name: E4
Note OFF: Time 455520, Note Name: E5
Note ON: Time 455520, Note Name: D#5, Velocity: 48
Note ON: Time 455520, Note Name: D#4, Velocity: 48
Note OFF: Time 456240, Note Name: D#4
Note OFF: Time 456240, Note Name: D#5
Note ON: Time 456240, Note Name: D#4, Velocity: 47
Note ON: Time 456240, Note Name: D#5, Velocity: 47
Note OFF: Time 456480, Note Name: D#5
Note OFF: Time 456480, Note Name: D#4
Note ON: Time 456480, Note Name: G#5, Velocity: 54
Note ON: Time 456480, Note Name: G#4, Velocity: 54
Note OFF: Time 456840, Note Name: G#4
Note OFF: Time 456840, Note Name: G#5
Note ON: Time 456840, Note Name: D#5, Velocity: 47
Note ON: Time 456840, Note Name: D#4, Velocity: 47
Note OFF: Time 456960, Note Name: D#4
Note OFF: Time 456960, Note Name: D#5
Note ON: Time 456960, Note Name: F#4, Velocity: 50
Note ON: Time 456960, Note Name: F#5, Velocity: 50
Note OFF: Time 457200, Note Name: F#5
Note OFF: Time 457200, Note Name: F#4
Note ON: Time 457200, Note Name: E4, Velocity: 48
Note ON: Time 457200, Note Name: E5, Velocity: 48
Note OFF: Time 457440, Note Name: E5
Note OFF: Time 457440, Note Name: E4
Note ON: Time 457440, Note Name: C#6, Velocity: 54
Note ON: Time 457440, Note Name: C#5, Velocity: 54
Note OFF: Time 457560, Note Name: C#5
Note OFF: Time 457560, Note Name: C#6
Note ON: Time 457680, Note Name: E4, Velocity: 51
Note ON: Time 457680, Note Name: E5, Velocity: 51
Note OFF: Time 457800, Note Name: E5
Note OFF: Time 457800, Note Name: E4
Note ON: Time 457920, Note Name: F#4, Velocity: 57
Note ON: Time 457920, Note Name: F#5, Velocity: 57
Note OFF: Time 458160, Note Name: F#5
Note OFF: Time 458160, Note Name: F#4
Note ON: Time 458160, Note Name: F5, Velocity: 56
Note ON: Time 458160, Note Name: F4, Velocity: 56
Note OFF: Time 458400, Note Name: F4
Note OFF: Time 458400, Note Name: F5
Note ON: Time 458400, Note Name: C#5, Velocity: 60
Note ON: Time 458400, Note Name: C#6, Velocity: 60
Note OFF: Time 458520, Note Name: C#6
Note OFF: Time 458520, Note Name: C#5
Note ON: Time 458640, Note Name: F4, Velocity: 60
Note ON: Time 458640, Note Name: F5, Velocity: 60
Note OFF: Time 458760, Note Name: F5
Note OFF: Time 458760, Note Name: F4
Note ON: Time 458880, Note Name: G#5, Velocity: 66
Note ON: Time 458880, Note Name: G#4, Velocity: 66
Note OFF: Time 459120, Note Name: G#4
Note OFF: Time 459120, Note Name: G#5
Note ON: Time 459120, Note Name: F#4, Velocity: 63
Note ON: Time 459120, Note Name: F#5, Velocity: 63
Note OFF: Time 459360, Note Name: F#5
Note OFF: Time 459360, Note Name: F#4
Note ON: Time 459360, Note Name: C#5, Velocity: 68
Note ON: Time 459360, Note Name: C#6, Velocity: 68
Note OFF: Time 459480, Note Name: C#6
Note OFF: Time 459480, Note Name: C#5
Note ON: Time 459600, Note Name: F#4, Velocity: 68
Note ON: Time 459600, Note Name: F#5, Velocity: 68
Note OFF: Time 459720, Note Name: F#5
Note OFF: Time 459720, Note Name: F#4
Note ON: Time 459840, Note Name: A5, Velocity: 73
Note ON: Time 459840, Note Name: A4, Velocity: 73
Note OFF: Time 460080, Note Name: A4
Note OFF: Time 460080, Note Name: A5
Note ON: Time 460080, Note Name: G#5, Velocity: 72
Note ON: Time 460080, Note Name: G#4, Velocity: 72
Note OFF: Time 460320, Note Name: G#4
Note OFF: Time 460320, Note Name: G#5
Note ON: Time 460320, Note Name: C#5, Velocity: 78
Note ON: Time 460320, Note Name: C#6, Velocity: 78
Note OFF: Time 460440, Note Name: C#6
Note OFF: Time 460440, Note Name: C#5
Note ON: Time 460560, Note Name: G#4, Velocity: 76
Note ON: Time 460560, Note Name: G#5, Velocity: 76
Note OFF: Time 460680, Note Name: G#5
Note OFF: Time 460680, Note Name: G#4
Note ON: Time 460800, Note Name: A5, Velocity: 84
Note OFF: Time 460960, Note Name: A5
Note ON: Time 460960, Note Name: F#5, Velocity: 67
Note OFF: Time 461120, Note Name: F#5
Note ON: Time 461120, Note Name: C#5, Velocity: 66
Note OFF: Time 461280, Note Name: C#5
Note ON: Time 461280, Note Name: A4, Velocity: 73
Note OFF: Time 461440, Note Name: A4
Note ON: Time 461440, Note Name: F#4, Velocity: 62
Note OFF: Time 461600, Note Name: F#4
Note ON: Time 461600, Note Name: C#4, Velocity: 63
Note OFF: Time 461760, Note Name: C#4
Note ON: Time 461760, Note Name: A4, Velocity: 71
Note OFF: Time 461920, Note Name: A4
Note ON: Time 461920, Note Name: F#4, Velocity: 63
Note OFF: Time 462080, Note Name: F#4
Note ON: Time 462080, Note Name: C#4, Velocity: 63
Note OFF: Time 462240, Note Name: C#4
Note ON: Time 462240, Note Name: A3, Velocity: 71
Note OFF: Time 462400, Note Name: A3
Note ON: Time 462400, Note Name: F#3, Velocity: 61
Note OFF: Time 462560, Note Name: F#3
Note ON: Time 462560, Note Name: C#3, Velocity: 62
Note OFF: Time 462720, Note Name: C#3
Note ON: Time 462720, Note Name: A3, Velocity: 78
Note OFF: Time 462840, Note Name: A3
Note ON: Time 462840, Note Name: F#3, Velocity: 61
Note OFF: Time 462960, Note Name: F#3
Note ON: Time 462960, Note Name: C#3, Velocity: 67
Note OFF: Time 463080, Note Name: C#3
Note ON: Time 463080, Note Name: A2, Velocity: 62
Note OFF: Time 463200, Note Name: A2
Note ON: Time 463200, Note Name: C#3, Velocity: 71
Note OFF: Time 463320, Note Name: C#3
Note ON: Time 463320, Note Name: E3, Velocity: 62
Note OFF: Time 463440, Note Name: E3
Note ON: Time 463440, Note Name: G#3, Velocity: 67
Note OFF: Time 463560, Note Name: G#3
Note ON: Time 463560, Note Name: C#4, Velocity: 62
Note OFF: Time 463680, Note Name: C#4
Note ON: Time 463680, Note Name: F#4, Velocity: 71
Note OFF: Time 463800, Note Name: F#4
Note ON: Time 463800, Note Name: A4, Velocity: 61
Note OFF: Time 463920, Note Name: A4
Note ON: Time 463920, Note Name: C#5, Velocity: 67
Note OFF: Time 464040, Note Name: C#5
Note ON: Time 464040, Note Name: F#5, Velocity: 60
Note OFF: Time 464160, Note Name: F#5
Note ON: Time 464160, Note Name: A5, Velocity: 72
Note OFF: Time 464280, Note Name: A5
Note ON: Time 464280, Note Name: F#5, Velocity: 63
Note OFF: Time 464400, Note Name: F#5
Note ON: Time 464400, Note Name: C#5, Velocity: 68
Note OFF: Time 464520, Note Name: C#5
Note ON: Time 464520, Note Name: A4, Velocity: 65
Note OFF: Time 464640, Note Name: A4
Note ON: Time 464640, Note Name: A5, Velocity: 84
Note OFF: Time 464800, Note Name: A5
Note ON: Time 464800, Note Name: F#5, Velocity: 65
Note OFF: Time 464960, Note Name: F#5
Note ON: Time 464960, Note Name: D5, Velocity: 66
Note OFF: Time 465120, Note Name: D5
Note ON: Time 465120, Note Name: A4, Velocity: 71
Note OFF: Time 465280, Note Name: A4
Note ON: Time 465280, Note Name: F#4, Velocity: 62
Note OFF: Time 465440, Note Name: F#4
Note ON: Time 465440, Note Name: D4, Velocity: 65
Note OFF: Time 465600, Note Name: D4
Note ON: Time 465600, Note Name: A4, Velocity: 70
Note OFF: Time 465760, Note Name: A4
Note ON: Time 465760, Note Name: F#4, Velocity: 62
Note OFF: Time 465920, Note Name: F#4
Note ON: Time 465920, Note Name: D4, Velocity: 63
Note OFF: Time 466080, Note Name: D4
Note ON: Time 466080, Note Name: A3, Velocity: 72
Note OFF: Time 466240, Note Name: A3
Note ON: Time 466240, Note Name: F#3, Velocity: 62
Note OFF: Time 466400, Note Name: F#3
Note ON: Time 466400, Note Name: D3, Velocity: 62
Note OFF: Time 466560, Note Name: D3
Note ON: Time 466560, Note Name: A3, Velocity: 77
Note OFF: Time 466680, Note Name: A3
Note ON: Time 466680, Note Name: F#3, Velocity: 65
Note OFF: Time 466800, Note Name: F#3
Note ON: Time 466800, Note Name: D3, Velocity: 70
Note OFF: Time 466920, Note Name: D3
Note ON: Time 466920, Note Name: A2, Velocity: 66
Note OFF: Time 467040, Note Name: A2
Note ON: Time 467040, Note Name: D3, Velocity: 73
Note OFF: Time 467160, Note Name: D3
Note ON: Time 467160, Note Name: F#3, Velocity: 62
Note OFF: Time 467280, Note Name: F#3
Note ON: Time 467280, Note Name: A3, Velocity: 68
Note OFF: Time 467400, Note Name: A3
Note ON: Time 467400, Note Name: D4, Velocity: 63
Note OFF: Time 467520, Note Name: D4
Note ON: Time 467520, Note Name: F#4, Velocity: 72
Note OFF: Time 467640, Note Name: F#4
Note ON: Time 467640, Note Name: A4, Velocity: 62
Note OFF: Time 467760, Note Name: A4
Note ON: Time 467760, Note Name: D5, Velocity: 68
Note OFF: Time 467880, Note Name: D5
Note ON: Time 467880, Note Name: F#5, Velocity: 65
Note OFF: Time 468000, Note Name: F#5
Note ON: Time 468000, Note Name: A5, Velocity: 78
Note OFF: Time 468120, Note Name: A5
Note ON: Time 468120, Note Name: F#5, Velocity: 66
Note OFF: Time 468240, Note Name: F#5
Note ON: Time 468240, Note Name: D5, Velocity: 70
Note OFF: Time 468360, Note Name: D5
Note ON: Time 468360, Note Name: A4, Velocity: 67
Note OFF: Time 468480, Note Name: A4
Note ON: Time 468480, Note Name: C#6, Velocity: 85
Note OFF: Time 468640, Note Name: C#6
Note ON: Time 468640, Note Name: A#5, Velocity: 68
Note OFF: Time 468800, Note Name: A#5
Note ON: Time 468800, Note Name: G5, Velocity: 67
Note OFF: Time 468960, Note Name: G5
Note ON: Time 468960, Note Name: E5, Velocity: 78
Note OFF: Time 469120, Note Name: E5
Note ON: Time 469120, Note Name: C#5, Velocity: 65
Note OFF: Time 469280, Note Name: C#5
Note ON: Time 469280, Note Name: A#4, Velocity: 67
Note OFF: Time 469440, Note Name: A#4
Note ON: Time 469440, Note Name: E5, Velocity: 78
Note OFF: Time 469600, Note Name: E5
Note ON: Time 469600, Note Name: C#5, Velocity: 68
Note OFF: Time 469760, Note Name: C#5
Note ON: Time 469760, Note Name: A#4, Velocity: 68
Note OFF: Time 469920, Note Name: A#4
Note ON: Time 469920, Note Name: G4, Velocity: 74
Note OFF: Time 470040, Note Name: G4
Note ON: Time 470040, Note Name: E4, Velocity: 62
Note OFF: Time 470160, Note Name: E4
Note ON: Time 470160, Note Name: C#4, Velocity: 67
Note OFF: Time 470280, Note Name: C#4
Note ON: Time 470280, Note Name: A#3, Velocity: 62
Note OFF: Time 470400, Note Name: A#3
Note ON: Time 470400, Note Name: E4, Velocity: 72
Note OFF: Time 470520, Note Name: E4
Note ON: Time 470520, Note Name: C#4, Velocity: 63
Note OFF: Time 470640, Note Name: C#4
Note ON: Time 470640, Note Name: A#3, Velocity: 68
Note OFF: Time 470760, Note Name: A#3
Note ON: Time 470760, Note Name: G3, Velocity: 63
Note OFF: Time 470880, Note Name: G3
Note ON: Time 470880, Note Name: E3, Velocity: 73
Note OFF: Time 471000, Note Name: E3
Note ON: Time 471000, Note Name: C#3, Velocity: 65
Note OFF: Time 471120, Note Name: C#3
Note ON: Time 471120, Note Name: E3, Velocity: 68
Note OFF: Time 471240, Note Name: E3
Note ON: Time 471240, Note Name: G3, Velocity: 63
Note OFF: Time 471360, Note Name: G3
Note ON: Time 471360, Note Name: A#3, Velocity: 79
Note OFF: Time 471440, Note Name: A#3
Note ON: Time 471440, Note Name: C#4, Velocity: 64
Note OFF: Time 471520, Note Name: C#4
Note ON: Time 471520, Note Name: E4, Velocity: 69
Note OFF: Time 471600, Note Name: E4
Note ON: Time 471600, Note Name: G4, Velocity: 66
Note OFF: Time 471680, Note Name: G4
Note ON: Time 471680, Note Name: A#4, Velocity: 70
Note OFF: Time 471760, Note Name: A#4
Note ON: Time 471760, Note Name: C#5, Velocity: 65
Note OFF: Time 471840, Note Name: C#5
Note ON: Time 471840, Note Name: E5, Velocity: 71
Note OFF: Time 471920, Note Name: E5
Note ON: Time 471920, Note Name: G5, Velocity: 67
Note OFF: Time 472000, Note Name: G5
Note ON: Time 472000, Note Name: A#5, Velocity: 72
Note OFF: Time 472080, Note Name: A#5
Note ON: Time 472080, Note Name: C#6, Velocity: 67
Note OFF: Time 472160, Note Name: C#6
Note ON: Time 472160, Note Name: A#5, Velocity: 73
Note OFF: Time 472240, Note Name: A#5
Note ON: Time 472240, Note Name: E5, Velocity: 68
Note OFF: Time 472320, Note Name: E5
Note ON: Time 472320, Note Name: E6, Velocity: 87
Note OFF: Time 472480, Note Name: E6
Note ON: Time 472480, Note Name: C#6, Velocity: 67
Note OFF: Time 472640, Note Name: C#6
Note ON: Time 472640, Note Name: G#5, Velocity: 67
Note OFF: Time 472800, Note Name: G#5
Note ON: Time 472800, Note Name: E5, Velocity: 78
Note OFF: Time 472960, Note Name: E5
Note ON: Time 472960, Note Name: C#5, Velocity: 66
Note OFF: Time 473120, Note Name: C#5
Note ON: Time 473120, Note Name: G#4, Velocity: 67
Note OFF: Time 473280, Note Name: G#4
Note ON: Time 473280, Note Name: E5, Velocity: 78
Note OFF: Time 473440, Note Name: E5
Note ON: Time 473440, Note Name: C#5, Velocity: 66
Note OFF: Time 473600, Note Name: C#5
Note ON: Time 473600, Note Name: G#4, Velocity: 66
Note OFF: Time 473760, Note Name: G#4
Note ON: Time 473760, Note Name: E4, Velocity: 78
Note OFF: Time 473880, Note Name: E4
Note ON: Time 473880, Note Name: C#5, Velocity: 67
Note OFF: Time 474000, Note Name: C#5
Note ON: Time 474000, Note Name: G#4, Velocity: 70
Note OFF: Time 474120, Note Name: G#4
Note ON: Time 474120, Note Name: E4, Velocity: 68
Note OFF: Time 474240, Note Name: E4
Note ON: Time 474240, Note Name: C#4, Velocity: 79
Note OFF: Time 474360, Note Name: C#4
Note ON: Time 474360, Note Name: G#4, Velocity: 65
Note OFF: Time 474480, Note Name: G#4
Note ON: Time 474480, Note Name: E4, Velocity: 68
Note OFF: Time 474600, Note Name: E4
Note ON: Time 474600, Note Name: C#4, Velocity: 65
Note OFF: Time 474720, Note Name: C#4
Note ON: Time 474720, Note Name: G#3, Velocity: 78
Note OFF: Time 474840, Note Name: G#3
Note ON: Time 474840, Note Name: E4, Velocity: 63
Note OFF: Time 474960, Note Name: E4
Note ON: Time 474960, Note Name: C#4, Velocity: 67
Note OFF: Time 475080, Note Name: C#4
Note ON: Time 475080, Note Name: G#3, Velocity: 62
Note OFF: Time 475200, Note Name: G#3
Note ON: Time 475200, Note Name: E3, Velocity: 79
Note OFF: Time 475320, Note Name: E3
Note ON: Time 475320, Note Name: C#4, Velocity: 65
Note OFF: Time 475440, Note Name: C#4
Note ON: Time 475440, Note Name: G#3, Velocity: 68
Note OFF: Time 475560, Note Name: G#3
Note ON: Time 475560, Note Name: E3, Velocity: 65
Note OFF: Time 475680, Note Name: E3
Note ON: Time 475680, Note Name: C#3, Velocity: 78
Note OFF: Time 475800, Note Name: C#3
Note ON: Time 475800, Note Name: G#3, Velocity: 63
Note OFF: Time 475920, Note Name: G#3
Note ON: Time 475920, Note Name: E3, Velocity: 68
Note OFF: Time 476040, Note Name: E3
Note ON: Time 476040, Note Name: C#3, Velocity: 62
Note OFF: Time 476160, Note Name: C#3
Note ON: Time 476160, Note Name: G#2, Velocity: 47
Note OFF: Time 476280, Note Name: G#2
Note ON: Time 476280, Note Name: A2, Velocity: 47
Note OFF: Time 476400, Note Name: A2
Note ON: Time 476400, Note Name: A#2, Velocity: 48
Note OFF: Time 476520, Note Name: A#2
Note ON: Time 476520, Note Name: B2, Velocity: 49
Note OFF: Time 476640, Note Name: B2
Note ON: Time 476640, Note Name: C3, Velocity: 51
Note OFF: Time 476760, Note Name: C3
Note ON: Time 476760, Note Name: C#3, Velocity: 51
Note OFF: Time 476880, Note Name: C#3
Note ON: Time 476880, Note Name: D3, Velocity: 51
Note OFF: Time 477000, Note Name: D3
Note ON: Time 477000, Note Name: D#3, Velocity: 52
Note OFF: Time 477120, Note Name: D#3
Note ON: Time 477120, Note Name: E3, Velocity: 54
Note OFF: Time 477240, Note Name: E3
Note ON: Time 477240, Note Name: F3, Velocity: 56
Note OFF: Time 477360, Note Name: F3
Note ON: Time 477360, Note Name: F#3, Velocity: 56
Note OFF: Time 477480, Note Name: F#3
Note ON: Time 477480, Note Name: G3, Velocity: 57
Note OFF: Time 477600, Note Name: G3
Note ON: Time 477600, Note Name: G#3, Velocity: 58
Note OFF: Time 477720, Note Name: G#3
Note ON: Time 477720, Note Name: A3, Velocity: 59
Note OFF: Time 477840, Note Name: A3
Note ON: Time 477840, Note Name: A#3, Velocity: 60
Note OFF: Time 477960, Note Name: A#3
Note ON: Time 477960, Note Name: B3, Velocity: 61
Note OFF: Time 478080, Note Name: B3
Note ON: Time 478080, Note Name: C4, Velocity: 62
Note OFF: Time 478200, Note Name: C4
Note ON: Time 478200, Note Name: C#4, Velocity: 62
Note OFF: Time 478320, Note Name: C#4
Note ON: Time 478320, Note Name: D4, Velocity: 63
Note OFF: Time 478440, Note Name: D4
Note ON: Time 478440, Note Name: D#4, Velocity: 65
Note OFF: Time 478560, Note Name: D#4
Note ON: Time 478560, Note Name: E4, Velocity: 67
Note OFF: Time 478656, Note Name: E4
Note ON: Time 478656, Note Name: F4, Velocity: 68
Note OFF: Time 478752, Note Name: F4
Note ON: Time 478752, Note Name: F#4, Velocity: 68
Note OFF: Time 478848, Note Name: F#4
Note ON: Time 478848, Note Name: G4, Velocity: 68
Note OFF: Time 478944, Note Name: G4
Note ON: Time 478944, Note Name: G#4, Velocity: 69
Note OFF: Time 479040, Note Name: G#4
Note ON: Time 479040, Note Name: A4, Velocity: 70
Note OFF: Time 479136, Note Name: A4
Note ON: Time 479136, Note Name: A#4, Velocity: 71
Note OFF: Time 479232, Note Name: A#4
Note ON: Time 479232, Note Name: B4, Velocity: 72
Note OFF: Time 479328, Note Name: B4
Note ON: Time 479328, Note Name: C5, Velocity: 73
Note OFF: Time 479424, Note Name: C5
Note ON: Time 479424, Note Name: C#5, Velocity: 73
Note OFF: Time 479520, Note Name: C#5
Note ON: Time 479520, Note Name: D5, Velocity: 74
Note OFF: Time 479600, Note Name: D5
Note ON: Time 479600, Note Name: D#5, Velocity: 74
Note OFF: Time 479680, Note Name: D#5
Note ON: Time 479680, Note Name: E5, Velocity: 75
Note OFF: Time 479760, Note Name: E5
Note ON: Time 479760, Note Name: F5, Velocity: 76
Note OFF: Time 479820, Note Name: F5
Note ON: Time 479820, Note Name: F#5, Velocity: 77
Note OFF: Time 479880, Note Name: F#5
Note ON: Time 479880, Note Name: G5, Velocity: 77
Note OFF: Time 479940, Note Name: G5
Note ON: Time 479940, Note Name: G#5, Velocity: 77
Note OFF: Time 480000, Note Name: G#5
Note ON: Time 480000, Note Name: A5, Velocity: 81
Note OFF: Time 480090, Note Name: A5
Note ON: Time 480090, Note Name: B5, Velocity: 72
Note OFF: Time 480180, Note Name: B5
Note ON: Time 480180, Note Name: A5, Velocity: 77
Note OFF: Time 480260, Note Name: A5
Note ON: Time 480260, Note Name: B5, Velocity: 71
Note OFF: Time 480340, Note Name: B5
Note ON: Time 480340, Note Name: A5, Velocity: 79
Note OFF: Time 480420, Note Name: A5
Note ON: Time 480420, Note Name: B5, Velocity: 71
Note OFF: Time 480500, Note Name: B5
Note ON: Time 480500, Note Name: A5, Velocity: 81
Note OFF: Time 480580, Note Name: A5
Note ON: Time 480580, Note Name: B5, Velocity: 74
Note OFF: Time 480660, Note Name: B5
Note ON: Time 480660, Note Name: A5, Velocity: 81
Note OFF: Time 480740, Note Name: A5
Note ON: Time 480740, Note Name: B5, Velocity: 73
Note OFF: Time 480820, Note Name: B5
Note ON: Time 480820, Note Name: A5, Velocity: 81
Note OFF: Time 480900, Note Name: A5
Note ON: Time 480900, Note Name: B5, Velocity: 79
Note OFF: Time 480980, Note Name: B5
Note ON: Time 480980, Note Name: A5, Velocity: 79
Note OFF: Time 481055, Note Name: A5
Note ON: Time 481055, Note Name: B5, Velocity: 76
Note OFF: Time 481130, Note Name: B5
Note ON: Time 481130, Note Name: A5, Velocity: 79
Note OFF: Time 481205, Note Name: A5
Note ON: Time 481205, Note Name: B5, Velocity: 76
Note OFF: Time 481280, Note Name: B5
Note ON: Time 481280, Note Name: A5, Velocity: 78
Note OFF: Time 481350, Note Name: A5
Note ON: Time 481350, Note Name: B5, Velocity: 74
Note OFF: Time 481425, Note Name: B5
Note ON: Time 481425, Note Name: A5, Velocity: 77
Note OFF: Time 481500, Note Name: A5
Note ON: Time 481500, Note Name: B5, Velocity: 70
Note OFF: Time 481580, Note Name: B5
Note ON: Time 481580, Note Name: A5, Velocity: 74
Note OFF: Time 481660, Note Name: A5
Note ON: Time 481660, Note Name: B5, Velocity: 68
Note OFF: Time 481740, Note Name: B5
Note ON: Time 481740, Note Name: A5, Velocity: 74
Note OFF: Time 481830, Note Name: A5
Note ON: Time 481830, Note Name: B5, Velocity: 68
Note OFF: Time 481920, Note Name: B5
Note ON: Time 481920, Note Name: G#5, Velocity: 75
Note OFF: Time 482080, Note Name: G#5
Note ON: Time 482080, Note Name: F#5, Velocity: 62
Note OFF: Time 482240, Note Name: F#5
Note ON: Time 482240, Note Name: E5, Velocity: 62
Note OFF: Time 482400, Note Name: E5
Note ON: Time 482400, Note Name: D#5, Velocity: 62
Note OFF: Time 482560, Note Name: D#5
Note ON: Time 482560, Note Name: F#5, Velocity: 65
Note OFF: Time 482720, Note Name: F#5
Note ON: Time 482720, Note Name: C#5, Velocity: 62
Note OFF: Time 482880, Note Name: C#5
Note ON: Time 482880, Note Name: C5, Velocity: 62
Note OFF: Time 483040, Note Name: C5
Note ON: Time 483040, Note Name: D#5, Velocity: 65
Note OFF: Time 483200, Note Name: D#5
Note ON: Time 483200, Note Name: A4, Velocity: 62
Note OFF: Time 483360, Note Name: A4
Note ON: Time 483360, Note Name: G#4, Velocity: 62
Note OFF: Time 483520, Note Name: G#4
Note ON: Time 483520, Note Name: F#4, Velocity: 62
Note OFF: Time 483680, Note Name: F#4
Note ON: Time 483680, Note Name: A4, Velocity: 65
Note OFF: Time 483840, Note Name: A4
Note ON: Time 483840, Note Name: E4, Velocity: 62
Note OFF: Time 484000, Note Name: E4
Note ON: Time 484000, Note Name: D#4, Velocity: 62
Note OFF: Time 484160, Note Name: D#4
Note ON: Time 484160, Note Name: F#4, Velocity: 66
Note OFF: Time 484320, Note Name: F#4
Note ON: Time 484320, Note Name: C#4, Velocity: 62
Note OFF: Time 484480, Note Name: C#4
Note ON: Time 484480, Note Name: C4, Velocity: 62
Note OFF: Time 484640, Note Name: C4
Note ON: Time 484640, Note Name: D#4, Velocity: 62
Note OFF: Time 484800, Note Name: D#4
Note ON: Time 484800, Note Name: A3, Velocity: 62
Note OFF: Time 484960, Note Name: A3
Note ON: Time 484960, Note Name: G#3, Velocity: 62
Note OFF: Time 485120, Note Name: G#3
Note ON: Time 485120, Note Name: F#3, Velocity: 62
Note OFF: Time 485280, Note Name: F#3
Note ON: Time 485280, Note Name: A3, Velocity: 63
Note OFF: Time 485440, Note Name: A3
Note ON: Time 485440, Note Name: E3, Velocity: 62
Note OFF: Time 485600, Note Name: E3
Note ON: Time 485600, Note Name: D#3, Velocity: 62
Note OFF: Time 485760, Note Name: D#3
Note ON: Time 485760, Note Name: F#3, Velocity: 65
Note OFF: Time 485920, Note Name: F#3
Note ON: Time 485920, Note Name: C#3, Velocity: 62
Note OFF: Time 486080, Note Name: C#3
Note ON: Time 486080, Note Name: C3, Velocity: 62
Note OFF: Time 486240, Note Name: C3
Note ON: Time 486240, Note Name: D#3, Velocity: 61
Note OFF: Time 486360, Note Name: D#3
Note ON: Time 486400, Note Name: A2, Velocity: 58
Note OFF: Time 486520, Note Name: A2
Note ON: Time 486560, Note Name: G#2, Velocity: 52
Note OFF: Time 486680, Note Name: G#2
Note ON: Time 492000, Note Name: E4, Velocity: 41
Note OFF: Time 492360, Note Name: E4
Note ON: Time 492360, Note Name: C#4, Velocity: 41
Note OFF: Time 492480, Note Name: C#4
Note ON: Time 492480, Note Name: C4, Velocity: 49
Note OFF: Time 492960, Note Name: C4
Note ON: Time 492960, Note Name: C4, Velocity: 42
Note ON: Time 492960, Note Name: G#4, Velocity: 42
Note ON: Time 492960, Note Name: F#3, Velocity: 35
Note OFF: Time 493440, Note Name: F#3
Note OFF: Time 493440, Note Name: G#4
Note OFF: Time 493440, Note Name: C4
Note ON: Time 493440, Note Name: C4, Velocity: 41
Note ON: Time 493440, Note Name: F#3, Velocity: 34
Note ON: Time 493440, Note Name: G#4, Velocity: 41
Note OFF: Time 493920, Note Name: G#4
Note OFF: Time 493920, Note Name: F#3
Note OFF: Time 493920, Note Name: C4
Note ON: Time 493920, Note Name: F#3, Velocity: 34
Note ON: Time 493920, Note Name: G#4, Velocity: 41
Note ON: Time 493920, Note Name: C4, Velocity: 41
Note OFF: Time 494280, Note Name: C4
Note OFF: Time 494280, Note Name: G#4
Note OFF: Time 494280, Note Name: F#3
Note ON: Time 494280, Note Name: E3, Velocity: 33
Note OFF: Time 494340, Note Name: E3
Note ON: Time 494340, Note Name: C#4, Velocity: 39
Note OFF: Time 494400, Note Name: C#4
Note ON: Time 494400, Note Name: G#4, Velocity: 49
Note OFF: Time 495840, Note Name: G#4
Note ON: Time 495840, Note Name: E5, Velocity: 47
Note OFF: Time 496200, Note Name: E5
Note ON: Time 496200, Note Name: C#5, Velocity: 47
Note OFF: Time 496320, Note Name: C#5
Note ON: Time 496320, Note Name: C5, Velocity: 56
Note OFF: Time 496800, Note Name: C5
Note ON: Time 496800, Note Name: F#4, Velocity: 39
Note ON: Time 496800, Note Name: C5, Velocity: 47
Note ON: Time 496800, Note Name: G#5, Velocity: 47
Note OFF: Time 497280, Note Name: G#5
Note OFF: Time 497280, Note Name: C5
Note OFF: Time 497280, Note Name: F#4
Note ON: Time 497280, Note Name: G#5, Velocity: 47
Note ON: Time 497280, Note Name: C5, Velocity: 47
Note ON: Time 497280, Note Name: F#4, Velocity: 39
Note OFF: Time 497760, Note Name: F#4
Note OFF: Time 497760, Note Name: C5
Note OFF: Time 497760, Note Name: G#5
Note ON: Time 497760, Note Name: C5, Velocity: 47
Note ON: Time 497760, Note Name: F#4, Velocity: 39
Note ON: Time 497760, Note Name: G#5, Velocity: 47
Note OFF: Time 498120, Note Name: G#5
Note OFF: Time 498120, Note Name: F#4
Note OFF: Time 498120, Note Name: C5
Note ON: Time 498120, Note Name: E4, Velocity: 41
Note OFF: Time 498180, Note Name: E4
Note ON: Time 498180, Note Name: C#5, Velocity: 46
Note OFF: Time 498240, Note Name: C#5
Note ON: Time 498240, Note Name: G#5, Velocity: 58
Note OFF: Time 499080, Note Name: G#5
Note ON: Time 499080, Note Name: F#4, Velocity: 49
Note OFF: Time 499140, Note Name: F#4
Note ON: Time 499140, Note Name: C5, Velocity: 53
Note OFF: Time 499200, Note Name: C5
Note ON: Time 499200, Note Name: G#5, Velocity: 63
Note OFF: Time 500040, Note Name: G#5
Note ON: Time 500040, Note Name: E4, Velocity: 56
Note OFF: Time 500100, Note Name: E4
Note ON: Time 500100, Note Name: C#5, Velocity: 62
Note OFF: Time 500160, Note Name: C#5
Note ON: Time 500160, Note Name: G#5, Velocity: 70
Note OFF: Time 501000, Note Name: G#5
Note ON: Time 501000, Note Name: F#4, Velocity: 60
Note OFF: Time 501060, Note Name: F#4
Note ON: Time 501060, Note Name: C5, Velocity: 68
Note OFF: Time 501120, Note Name: C5
Note ON: Time 501120, Note Name: G#5, Velocity: 80
Note OFF: Time 501960, Note Name: G#5
Note ON: Time 501960, Note Name: E4, Velocity: 68
Note OFF: Time 502020, Note Name: E4
Note ON: Time 502020, Note Name: C#5, Velocity: 68
Note OFF: Time 502080, Note Name: C#5
Note ON: Time 502080, Note Name: G#5, Velocity: 74
Note ON: Time 502200, Note Name: E4, Velocity: 68
Note OFF: Time 502220, Note Name: G#5
Note ON: Time 502320, Note Name: G#4, Velocity: 71
Note OFF: Time 502340, Note Name: E4
Note ON: Time 502440, Note Name: C#5, Velocity: 68
Note OFF: Time 502460, Note Name: G#4
Note ON: Time 502560, Note Name: E5, Velocity: 74
Note OFF: Time 502580, Note Name: C#5
Note ON: Time 502680, Note Name: G#4, Velocity: 69
Note OFF: Time 502700, Note Name: E5
Note ON: Time 502800, Note Name: C#5, Velocity: 72
Note OFF: Time 502820, Note Name: G#4
Note ON: Time 502920, Note Name: E5, Velocity: 68
Note OFF: Time 502940, Note Name: C#5
Note ON: Time 503040, Note Name: G#5, Velocity: 74
Note OFF: Time 503060, Note Name: E5
Note ON: Time 503160, Note Name: C#5, Velocity: 68
Note OFF: Time 503180, Note Name: G#5
Note ON: Time 503280, Note Name: E5, Velocity: 71
Note OFF: Time 503300, Note Name: C#5
Note ON: Time 503400, Note Name: G#5, Velocity: 69
Note OFF: Time 503420, Note Name: E5
Note ON: Time 503520, Note Name: C#6, Velocity: 75
Note OFF: Time 503540, Note Name: G#5
Note ON: Time 503640, Note Name: E5, Velocity: 72
Note OFF: Time 503660, Note Name: C#6
Note ON: Time 503760, Note Name: G#5, Velocity: 74
Note OFF: Time 503780, Note Name: E5
Note ON: Time 503880, Note Name: C#6, Velocity: 72
Note OFF: Time 503900, Note Name: G#5
Note ON: Time 504000, Note Name: E6, Velocity: 80
Note OFF: Time 504020, Note Name: C#6
Note ON: Time 504120, Note Name: C#6, Velocity: 80
Note OFF: Time 504140, Note Name: E6
Note ON: Time 504240, Note Name: G#5, Velocity: 79
Note OFF: Time 504260, Note Name: C#6
Note ON: Time 504360, Note Name: E5, Velocity: 74
Note OFF: Time 504380, Note Name: G#5
Note ON: Time 504480, Note Name: C#6, Velocity: 81
Note OFF: Time 504500, Note Name: E5
Note ON: Time 504600, Note Name: G#5, Velocity: 80
Note OFF: Time 504620, Note Name: C#6
Note ON: Time 504720, Note Name: E5, Velocity: 79
Note OFF: Time 504740, Note Name: G#5
Note ON: Time 504840, Note Name: C#5, Velocity: 73
Note OFF: Time 504860, Note Name: E5
Note ON: Time 504960, Note Name: G#5, Velocity: 80
Note OFF: Time 504980, Note Name: C#5
Note ON: Time 505080, Note Name: E5, Velocity: 79
Note OFF: Time 505100, Note Name: G#5
Note ON: Time 505200, Note Name: C#5, Velocity: 78
Note OFF: Time 505220, Note Name: E5
Note ON: Time 505320, Note Name: G#4, Velocity: 74
Note OFF: Time 505340, Note Name: C#5
Note ON: Time 505440, Note Name: E5, Velocity: 80
Note OFF: Time 505460, Note Name: G#4
Note ON: Time 505560, Note Name: C#5, Velocity: 80
Note OFF: Time 505580, Note Name: E5
Note ON: Time 505680, Note Name: G#4, Velocity: 78
Note OFF: Time 505700, Note Name: C#5
Note ON: Time 505800, Note Name: E4, Velocity: 73
Note OFF: Time 505820, Note Name: G#4
Note ON: Time 505920, Note Name: C#5, Velocity: 78
Note OFF: Time 505940, Note Name: E4
Note ON: Time 506040, Note Name: G#4, Velocity: 75
Note OFF: Time 506060, Note Name: C#5
Note ON: Time 506160, Note Name: E4, Velocity: 74
Note OFF: Time 506180, Note Name: G#4
Note ON: Time 506280, Note Name: C#4, Velocity: 69
Note OFF: Time 506300, Note Name: E4
Note ON: Time 506400, Note Name: G#4, Velocity: 78
Note OFF: Time 506420, Note Name: C#4
Note ON: Time 506520, Note Name: E4, Velocity: 75
Note OFF: Time 506540, Note Name: G#4
Note ON: Time 506640, Note Name: C#4, Velocity: 74
Note OFF: Time 506660, Note Name: E4
Note ON: Time 506760, Note Name: G#3, Velocity: 71
Note OFF: Time 506780, Note Name: C#4
Note ON: Time 506880, Note Name: E4, Velocity: 78
Note OFF: Time 506900, Note Name: G#3
Note ON: Time 507000, Note Name: C#4, Velocity: 75
Note OFF: Time 507020, Note Name: E4
Note ON: Time 507120, Note Name: G#3, Velocity: 74
Note OFF: Time 507140, Note Name: C#4
Note ON: Time 507240, Note Name: E3, Velocity: 71
Note OFF: Time 507260, Note Name: G#3
Note ON: Time 507360, Note Name: C#4, Velocity: 78
Note OFF: Time 507380, Note Name: E3
Note ON: Time 507480, Note Name: G#3, Velocity: 75
Note OFF: Time 507500, Note Name: C#4
Note ON: Time 507600, Note Name: E3, Velocity: 74
Note OFF: Time 507620, Note Name: G#3
Note ON: Time 507720, Note Name: G#3, Velocity: 71
Note OFF: Time 507740, Note Name: E3
Note ON: Time 507840, Note Name: C#3, Velocity: 74
Note OFF: Time 507860, Note Name: G#3
Note OFF: Time 508320, Note Name: C#3
Note ON: Time 508800, Note Name: C#5, Velocity: 83
Note ON: Time 508800, Note Name: G#5, Velocity: 98
Note ON: Time 508800, Note Name: E5, Velocity: 83
Note ON: Time 508800, Note Name: C#6, Velocity: 98
Note OFF: Time 509160, Note Name: C#6
Note OFF: Time 509160, Note Name: C#5
Note OFF: Time 509160, Note Name: G#5
Note OFF: Time 509160, Note Name: E5
Note ON: Time 509760, Note Name: C#4, Velocity: 83
Note ON: Time 509760, Note Name: E4, Velocity: 83
Note ON: Time 509760, Note Name: G#4, Velocity: 97
Note ON: Time 509760, Note Name: C#5, Velocity: 97
Note OFF: Time 510120, Note Name: C#5
Note OFF: Time 510120, Note Name: C#4
Note OFF: Time 510120, Note Name: E4
Note OFF: Time 510120, Note Name: G#4
Track 2: Piano left
Note ON: Time 1, Note Name: C#2, Velocity: 42
Note OFF: Time 121, Note Name: C#2
Note ON: Time 240, Note Name: G#2, Velocity: 39
Note OFF: Time 360, Note Name: G#2
Note ON: Time 480, Note Name: C#2, Velocity: 43
Note OFF: Time 600, Note Name: C#2
Note ON: Time 720, Note Name: G#2, Velocity: 39
Note OFF: Time 840, Note Name: G#2
Note ON: Time 960, Note Name: C#2, Velocity: 41
Note OFF: Time 1080, Note Name: C#2
Note ON: Time 1200, Note Name: G#2, Velocity: 39
Note OFF: Time 1320, Note Name: G#2
Note ON: Time 1440, Note Name: C#2, Velocity: 42
Note OFF: Time 1560, Note Name: C#2
Note ON: Time 1680, Note Name: G#2, Velocity: 39
Note OFF: Time 1800, Note Name: G#2
Note ON: Time 1920, Note Name: C#2, Velocity: 43
Note OFF: Time 2040, Note Name: C#2
Note ON: Time 2160, Note Name: G#2, Velocity: 41
Note OFF: Time 2280, Note Name: G#2
Note ON: Time 2400, Note Name: C#2, Velocity: 43
Note OFF: Time 2520, Note Name: C#2
Note ON: Time 2640, Note Name: G#2, Velocity: 40
Note OFF: Time 2760, Note Name: G#2
Note ON: Time 2880, Note Name: C#2, Velocity: 41
Note OFF: Time 3000, Note Name: C#2
Note ON: Time 3120, Note Name: G#2, Velocity: 39
Note OFF: Time 3240, Note Name: G#2
Note ON: Time 3360, Note Name: C#3, Velocity: 78
Note ON: Time 3360, Note Name: C#2, Velocity: 65
Note OFF: Time 3480, Note Name: C#2
Note OFF: Time 3480, Note Name: C#3
Note ON: Time 3600, Note Name: G#2, Velocity: 67
Note OFF: Time 3720, Note Name: G#2
Note ON: Time 3840, Note Name: C2, Velocity: 41
Note OFF: Time 3960, Note Name: C2
Note ON: Time 4080, Note Name: G#2, Velocity: 37
Note OFF: Time 4200, Note Name: G#2
Note ON: Time 4320, Note Name: C2, Velocity: 41
Note OFF: Time 4440, Note Name: C2
Note ON: Time 4560, Note Name: G#2, Velocity: 37
Note OFF: Time 4680, Note Name: G#2
Note ON: Time 4800, Note Name: C2, Velocity: 40
Note OFF: Time 4920, Note Name: C2
Note ON: Time 5040, Note Name: G#2, Velocity: 37
Note OFF: Time 5160, Note Name: G#2
Note ON: Time 5280, Note Name: C2, Velocity: 40
Note OFF: Time 5400, Note Name: C2
Note ON: Time 5520, Note Name: G#2, Velocity: 38
Note OFF: Time 5640, Note Name: G#2
Note ON: Time 5760, Note Name: C2, Velocity: 40
Note OFF: Time 5880, Note Name: C2
Note ON: Time 6000, Note Name: G#2, Velocity: 36
Note OFF: Time 6120, Note Name: G#2
Note ON: Time 6240, Note Name: C2, Velocity: 40
Note OFF: Time 6360, Note Name: C2
Note ON: Time 6480, Note Name: G#2, Velocity: 37
Note OFF: Time 6600, Note Name: G#2
Note ON: Time 6720, Note Name: C2, Velocity: 40
Note OFF: Time 6840, Note Name: C2
Note ON: Time 6960, Note Name: G#2, Velocity: 37
Note OFF: Time 7080, Note Name: G#2
Note ON: Time 7200, Note Name: C3, Velocity: 78
Note ON: Time 7200, Note Name: C2, Velocity: 65
Note OFF: Time 7320, Note Name: C2
Note OFF: Time 7320, Note Name: C3
Note ON: Time 7440, Note Name: G#2, Velocity: 65
Note OFF: Time 7560, Note Name: G#2
Note ON: Time 7680, Note Name: B1, Velocity: 55
Note OFF: Time 7800, Note Name: B1
Note ON: Time 7920, Note Name: G#2, Velocity: 50
Note OFF: Time 8040, Note Name: G#2
Note ON: Time 8160, Note Name: B1, Velocity: 56
Note OFF: Time 8280, Note Name: B1
Note ON: Time 8400, Note Name: G#2, Velocity: 51
Note OFF: Time 8520, Note Name: G#2
Note ON: Time 8640, Note Name: B1, Velocity: 56
Note OFF: Time 8760, Note Name: B1
Note ON: Time 8880, Note Name: G#2, Velocity: 52
Note OFF: Time 9000, Note Name: G#2
Note ON: Time 9120, Note Name: B1, Velocity: 56
Note OFF: Time 9240, Note Name: B1
Note ON: Time 9360, Note Name: G#2, Velocity: 52
Note OFF: Time 9480, Note Name: G#2
Note ON: Time 9600, Note Name: B1, Velocity: 56
Note OFF: Time 9720, Note Name: B1
Note ON: Time 9840, Note Name: G#2, Velocity: 52
Note OFF: Time 9960, Note Name: G#2
Note ON: Time 10080, Note Name: B1, Velocity: 56
Note OFF: Time 10200, Note Name: B1
Note ON: Time 10320, Note Name: G#2, Velocity: 51
Note OFF: Time 10440, Note Name: G#2
Note ON: Time 10560, Note Name: B1, Velocity: 56
Note OFF: Time 10680, Note Name: B1
Note ON: Time 10800, Note Name: G#2, Velocity: 51
Note OFF: Time 10920, Note Name: G#2
Note ON: Time 11040, Note Name: B1, Velocity: 82
Note ON: Time 11040, Note Name: B2, Velocity: 82
Note OFF: Time 11160, Note Name: B2
Note OFF: Time 11160, Note Name: B1
Note ON: Time 11280, Note Name: G#2, Velocity: 73
Note OFF: Time 11400, Note Name: G#2
Note ON: Time 11520, Note Name: A1, Velocity: 50
Note OFF: Time 11640, Note Name: A1
Note ON: Time 11760, Note Name: A2, Velocity: 51
Note OFF: Time 11880, Note Name: A2
Note ON: Time 12000, Note Name: A1, Velocity: 57
Note OFF: Time 12120, Note Name: A1
Note ON: Time 12240, Note Name: A2, Velocity: 60
Note OFF: Time 12360, Note Name: A2
Note ON: Time 12480, Note Name: A1, Velocity: 57
Note OFF: Time 12600, Note Name: A1
Note ON: Time 12720, Note Name: A2, Velocity: 57
Note OFF: Time 12840, Note Name: A2
Note ON: Time 12960, Note Name: A1, Velocity: 77
Note OFF: Time 13080, Note Name: A1
Note ON: Time 13200, Note Name: A2, Velocity: 77
Note OFF: Time 13320, Note Name: A2
Note ON: Time 13440, Note Name: A1, Velocity: 67
Note OFF: Time 13560, Note Name: A1
Note ON: Time 13680, Note Name: A2, Velocity: 63
Note OFF: Time 13800, Note Name: A2
Note ON: Time 13920, Note Name: A1, Velocity: 67
Note OFF: Time 14040, Note Name: A1
Note ON: Time 14160, Note Name: A2, Velocity: 63
Note OFF: Time 14280, Note Name: A2
Note ON: Time 14400, Note Name: A1, Velocity: 67
Note OFF: Time 14520, Note Name: A1
Note ON: Time 14640, Note Name: A2, Velocity: 63
Note OFF: Time 14760, Note Name: A2
Note ON: Time 14880, Note Name: A1, Velocity: 83
Note OFF: Time 15000, Note Name: A1
Note ON: Time 15120, Note Name: A2, Velocity: 83
Note OFF: Time 15240, Note Name: A2
Note ON: Time 15360, Note Name: G#2, Velocity: 77
Note ON: Time 15360, Note Name: G#1, Velocity: 64
Note OFF: Time 15600, Note Name: G#1
Note OFF: Time 15600, Note Name: G#2
Note ON: Time 15600, Note Name: C4, Velocity: 62
Note ON: Time 15600, Note Name: G#3, Velocity: 62
Note OFF: Time 15840, Note Name: C4
Note ON: Time 15840, Note Name: C4, Velocity: 62
Note OFF: Time 16080, Note Name: C4
Note ON: Time 16080, Note Name: C#4, Velocity: 62
Note OFF: Time 16320, Note Name: C#4
Note ON: Time 16320, Note Name: D#4, Velocity: 64
Note OFF: Time 16560, Note Name: D#4
Note ON: Time 16560, Note Name: E4, Velocity: 66
Note OFF: Time 16800, Note Name: E4
Note ON: Time 16800, Note Name: F#4, Velocity: 67
Note OFF: Time 17040, Note Name: F#4
Note ON: Time 17040, Note Name: D#4, Velocity: 68
Note OFF: Time 17280, Note Name: D#4
Note ON: Time 17280, Note Name: F#4, Velocity: 69
Note OFF: Time 17520, Note Name: F#4
Note ON: Time 17520, Note Name: E4, Velocity: 71
Note OFF: Time 17760, Note Name: E4
Note ON: Time 17760, Note Name: A4, Velocity: 72
Note OFF: Time 18000, Note Name: A4
Note ON: Time 18000, Note Name: G#4, Velocity: 71
Note OFF: Time 18240, Note Name: G#4
Note ON: Time 18240, Note Name: F#4, Velocity: 69
Note OFF: Time 18480, Note Name: F#4
Note ON: Time 18480, Note Name: E4, Velocity: 68
Note OFF: Time 18720, Note Name: E4
Note ON: Time 18720, Note Name: D#4, Velocity: 67
Note OFF: Time 18960, Note Name: D#4
Note ON: Time 18960, Note Name: C#4, Velocity: 66
Note OFF: Time 19200, Note Name: C#4
Note OFF: Time 19200, Note Name: G#3
Note ON: Time 19200, Note Name: C4, Velocity: 64
Note ON: Time 19200, Note Name: G#3, Velocity: 64
Note OFF: Time 19440, Note Name: C4
Note ON: Time 19440, Note Name: C4, Velocity: 63
Note OFF: Time 19680, Note Name: C4
Note ON: Time 19680, Note Name: C4, Velocity: 62
Note OFF: Time 19920, Note Name: C4
Note ON: Time 19920, Note Name: C#4, Velocity: 60
Note OFF: Time 20160, Note Name: C#4
Note ON: Time 20160, Note Name: D#4, Velocity: 62
Note OFF: Time 20400, Note Name: D#4
Note ON: Time 20400, Note Name: E4, Velocity: 62
Note OFF: Time 20640, Note Name: E4
Note ON: Time 20640, Note Name: F#4, Velocity: 65
Note OFF: Time 20880, Note Name: F#4
Note ON: Time 20880, Note Name: D#4, Velocity: 67
Note OFF: Time 21120, Note Name: D#4
Note ON: Time 21120, Note Name: F#4, Velocity: 68
Note OFF: Time 21360, Note Name: F#4
Note ON: Time 21360, Note Name: E4, Velocity: 68
Note OFF: Time 21600, Note Name: E4
Note ON: Time 21600, Note Name: A4, Velocity: 68
Note OFF: Time 21840, Note Name: A4
Note ON: Time 21840, Note Name: G#4, Velocity: 67
Note OFF: Time 22080, Note Name: G#4
Note ON: Time 22080, Note Name: F#4, Velocity: 67
Note OFF: Time 22320, Note Name: F#4
Note ON: Time 22320, Note Name: E4, Velocity: 67
Note OFF: Time 22560, Note Name: E4
Note ON: Time 22560, Note Name: D#4, Velocity: 67
Note OFF: Time 22800, Note Name: D#4
Note ON: Time 22800, Note Name: C#4, Velocity: 67
Note OFF: Time 23040, Note Name: C#4
Note OFF: Time 23040, Note Name: G#3
Note ON: Time 23040, Note Name: G#3, Velocity: 60
Note ON: Time 23040, Note Name: C4, Velocity: 71
Note OFF: Time 23160, Note Name: C4
Note OFF: Time 23160, Note Name: G#3
Note ON: Time 23280, Note Name: C#4, Velocity: 62
Note ON: Time 23280, Note Name: G#3, Velocity: 52
Note OFF: Time 23400, Note Name: G#3
Note OFF: Time 23400, Note Name: C#4
Note ON: Time 23520, Note Name: G#3, Velocity: 56
Note ON: Time 23520, Note Name: C4, Velocity: 67
Note OFF: Time 23640, Note Name: C4
Note OFF: Time 23640, Note Name: G#3
Note ON: Time 23760, Note Name: C#4, Velocity: 62
Note ON: Time 23760, Note Name: G#3, Velocity: 52
Note OFF: Time 23880, Note Name: G#3
Note OFF: Time 23880, Note Name: C#4
Note ON: Time 24000, Note Name: G#3, Velocity: 60
Note ON: Time 24000, Note Name: C4, Velocity: 71
Note OFF: Time 24120, Note Name: C4
Note OFF: Time 24120, Note Name: G#3
Note ON: Time 24240, Note Name: G#3, Velocity: 52
Note ON: Time 24240, Note Name: C#4, Velocity: 62
Note OFF: Time 24360, Note Name: C#4
Note OFF: Time 24360, Note Name: G#3
Note ON: Time 24480, Note Name: G#3, Velocity: 56
Note ON: Time 24480, Note Name: C4, Velocity: 67
Note OFF: Time 24600, Note Name: C4
Note OFF: Time 24600, Note Name: G#3
Note ON: Time 24720, Note Name: C#4, Velocity: 61
Note ON: Time 24720, Note Name: G#3, Velocity: 51
Note OFF: Time 24840, Note Name: G#3
Note OFF: Time 24840, Note Name: C#4
Note ON: Time 24960, Note Name: G#3, Velocity: 60
Note ON: Time 24960, Note Name: C4, Velocity: 71
Note OFF: Time 25200, Note Name: C4
Note OFF: Time 25200, Note Name: G#3
Note ON: Time 25440, Note Name: G#1, Velocity: 77
Note ON: Time 25440, Note Name: G#2, Velocity: 90
Note OFF: Time 26880, Note Name: G#2
Note OFF: Time 26880, Note Name: G#1
Note ON: Time 26880, Note Name: C#2, Velocity: 43
Note OFF: Time 27000, Note Name: C#2
Note ON: Time 27120, Note Name: G#2, Velocity: 39
Note OFF: Time 27240, Note Name: G#2
Note ON: Time 27360, Note Name: C#2, Velocity: 43
Note OFF: Time 27480, Note Name: C#2
Note ON: Time 27600, Note Name: G#2, Velocity: 39
Note OFF: Time 27720, Note Name: G#2
Note ON: Time 27840, Note Name: C#2, Velocity: 43
Note OFF: Time 27960, Note Name: C#2
Note ON: Time 28080, Note Name: G#2, Velocity: 39
Note OFF: Time 28200, Note Name: G#2
Note ON: Time 28320, Note Name: C#2, Velocity: 43
Note OFF: Time 28440, Note Name: C#2
Note ON: Time 28560, Note Name: G#2, Velocity: 39
Note OFF: Time 28680, Note Name: G#2
Note ON: Time 28800, Note Name: C#2, Velocity: 43
Note OFF: Time 28920, Note Name: C#2
Note ON: Time 29040, Note Name: G#2, Velocity: 39
Note OFF: Time 29160, Note Name: G#2
Note ON: Time 29280, Note Name: C#2, Velocity: 43
Note OFF: Time 29400, Note Name: C#2
Note ON: Time 29520, Note Name: G#2, Velocity: 39
Note OFF: Time 29640, Note Name: G#2
Note ON: Time 29760, Note Name: C#2, Velocity: 43
Note OFF: Time 29880, Note Name: C#2
Note ON: Time 30000, Note Name: G#2, Velocity: 39
Note OFF: Time 30120, Note Name: G#2
Note ON: Time 30240, Note Name: C#2, Velocity: 73
Note ON: Time 30240, Note Name: C#3, Velocity: 87
Note OFF: Time 30360, Note Name: C#3
Note OFF: Time 30360, Note Name: C#2
Note ON: Time 30480, Note Name: G#2, Velocity: 74
Note OFF: Time 30600, Note Name: G#2
Note ON: Time 30720, Note Name: A#1, Velocity: 40
Note OFF: Time 30840, Note Name: A#1
Note ON: Time 30960, Note Name: C#3, Velocity: 36
Note OFF: Time 31080, Note Name: C#3
Note ON: Time 31200, Note Name: A#2, Velocity: 40
Note OFF: Time 31320, Note Name: A#2
Note ON: Time 31440, Note Name: C#3, Velocity: 37
Note OFF: Time 31560, Note Name: C#3
Note ON: Time 31680, Note Name: A#2, Velocity: 40
Note OFF: Time 31800, Note Name: A#2
Note ON: Time 31920, Note Name: C#3, Velocity: 37
Note OFF: Time 32040, Note Name: C#3
Note ON: Time 32160, Note Name: A#2, Velocity: 40
Note OFF: Time 32280, Note Name: A#2
Note ON: Time 32400, Note Name: C#3, Velocity: 37
Note OFF: Time 32520, Note Name: C#3
Note ON: Time 32640, Note Name: A#2, Velocity: 40
Note OFF: Time 32760, Note Name: A#2
Note ON: Time 32880, Note Name: C#3, Velocity: 37
Note OFF: Time 33000, Note Name: C#3
Note ON: Time 33120, Note Name: A#2, Velocity: 40
Note OFF: Time 33240, Note Name: A#2
Note ON: Time 33360, Note Name: C#3, Velocity: 36
Note OFF: Time 33480, Note Name: C#3
Note ON: Time 33600, Note Name: A#2, Velocity: 40
Note OFF: Time 33720, Note Name: A#2
Note ON: Time 33840, Note Name: C#3, Velocity: 37
Note OFF: Time 33960, Note Name: C#3
Note ON: Time 34080, Note Name: A#2, Velocity: 87
Note ON: Time 34080, Note Name: A#1, Velocity: 73
Note OFF: Time 34200, Note Name: A#1
Note OFF: Time 34200, Note Name: A#2
Note ON: Time 34320, Note Name: C#3, Velocity: 72
Note OFF: Time 34440, Note Name: C#3
Note ON: Time 34560, Note Name: G1, Velocity: 39
Note OFF: Time 34680, Note Name: G1
Note ON: Time 34800, Note Name: D#3, Velocity: 36
Note OFF: Time 34920, Note Name: D#3
Note ON: Time 35040, Note Name: G2, Velocity: 40
Note OFF: Time 35160, Note Name: G2
Note ON: Time 35280, Note Name: D#3, Velocity: 39
Note OFF: Time 35400, Note Name: D#3
Note ON: Time 35520, Note Name: G2, Velocity: 43
Note OFF: Time 35640, Note Name: G2
Note ON: Time 35760, Note Name: D#3, Velocity: 40
Note OFF: Time 35880, Note Name: D#3
Note ON: Time 36000, Note Name: G2, Velocity: 45
Note OFF: Time 36120, Note Name: G2
Note ON: Time 36240, Note Name: D#3, Velocity: 43
Note OFF: Time 36360, Note Name: D#3
Note ON: Time 36480, Note Name: G2, Velocity: 47
Note OFF: Time 36600, Note Name: G2
Note ON: Time 36720, Note Name: D#3, Velocity: 44
Note OFF: Time 36840, Note Name: D#3
Note ON: Time 36960, Note Name: G2, Velocity: 49
Note OFF: Time 37080, Note Name: G2
Note ON: Time 37200, Note Name: D#3, Velocity: 45
Note OFF: Time 37320, Note Name: D#3
Note ON: Time 37440, Note Name: G2, Velocity: 51
Note OFF: Time 37560, Note Name: G2
Note ON: Time 37680, Note Name: D#3, Velocity: 48
Note OFF: Time 37800, Note Name: D#3
Note ON: Time 37920, Note Name: G2, Velocity: 47
Note OFF: Time 38040, Note Name: G2
Note ON: Time 38160, Note Name: D#3, Velocity: 45
Note OFF: Time 38280, Note Name: D#3
Note ON: Time 38400, Note Name: G#2, Velocity: 33
Note ON: Time 38520, Note Name: D#3, Velocity: 26
Note OFF: Time 38540, Note Name: G#2
Note ON: Time 38640, Note Name: B2, Velocity: 28
Note OFF: Time 38660, Note Name: D#3
Note ON: Time 38760, Note Name: D#3, Velocity: 25
Note OFF: Time 38780, Note Name: B2
Note ON: Time 38880, Note Name: G#2, Velocity: 33
Note OFF: Time 38900, Note Name: D#3
Note OFF: Time 38999, Note Name: G#2
Note ON: Time 39000, Note Name: D#3, Velocity: 25
Note OFF: Time 39119, Note Name: D#3
Note ON: Time 39120, Note Name: B2, Velocity: 28
Note OFF: Time 39239, Note Name: B2
Note ON: Time 39240, Note Name: D#3, Velocity: 24
Note OFF: Time 39359, Note Name: D#3
Note ON: Time 39360, Note Name: G#2, Velocity: 33
Note OFF: Time 39479, Note Name: G#2
Note ON: Time 39480, Note Name: D#3, Velocity: 26
Note OFF: Time 39599, Note Name: D#3
Note ON: Time 39600, Note Name: B2, Velocity: 29
Note OFF: Time 39719, Note Name: B2
Note ON: Time 39720, Note Name: D#3, Velocity: 25
Note OFF: Time 39839, Note Name: D#3
Note ON: Time 39840, Note Name: G#2, Velocity: 33
Note OFF: Time 39959, Note Name: G#2
Note ON: Time 39960, Note Name: D#3, Velocity: 26
Note OFF: Time 40079, Note Name: D#3
Note ON: Time 40080, Note Name: B2, Velocity: 29
Note OFF: Time 40199, Note Name: B2
Note ON: Time 40200, Note Name: D#3, Velocity: 25
Note OFF: Time 40319, Note Name: D#3
Note ON: Time 40320, Note Name: A#2, Velocity: 33
Note ON: Time 40440, Note Name: D#3, Velocity: 26
Note OFF: Time 40460, Note Name: A#2
Note ON: Time 40560, Note Name: C#3, Velocity: 29
Note OFF: Time 40580, Note Name: D#3
Note ON: Time 40680, Note Name: D#3, Velocity: 26
Note OFF: Time 40700, Note Name: C#3
Note ON: Time 40800, Note Name: A#2, Velocity: 41
Note OFF: Time 40820, Note Name: D#3
Note OFF: Time 40919, Note Name: A#2
Note ON: Time 40920, Note Name: D#3, Velocity: 35
Note OFF: Time 41039, Note Name: D#3
Note ON: Time 41040, Note Name: C#3, Velocity: 40
Note OFF: Time 41159, Note Name: C#3
Note ON: Time 41160, Note Name: D#3, Velocity: 37
Note OFF: Time 41279, Note Name: D#3
Note ON: Time 41280, Note Name: A#2, Velocity: 49
Note OFF: Time 41399, Note Name: A#2
Note ON: Time 41400, Note Name: D#3, Velocity: 40
Note OFF: Time 41519, Note Name: D#3
Note ON: Time 41520, Note Name: C#3, Velocity: 46
Note OFF: Time 41639, Note Name: C#3
Note ON: Time 41640, Note Name: D#3, Velocity: 42
Note OFF: Time 41759, Note Name: D#3
Note ON: Time 41760, Note Name: A#2, Velocity: 56
Note OFF: Time 41879, Note Name: A#2
Note ON: Time 41880, Note Name: D#3, Velocity: 41
Note OFF: Time 41999, Note Name: D#3
Note ON: Time 42000, Note Name: C#3, Velocity: 43
Note OFF: Time 42119, Note Name: C#3
Note ON: Time 42120, Note Name: D#3, Velocity: 36
Note OFF: Time 42239, Note Name: D#3
Note ON: Time 42240, Note Name: B2, Velocity: 33
Note OFF: Time 42359, Note Name: B2
Note ON: Time 42360, Note Name: D#3, Velocity: 28
Note OFF: Time 42479, Note Name: D#3
Note ON: Time 42480, Note Name: B2, Velocity: 30
Note OFF: Time 42599, Note Name: B2
Note ON: Time 42600, Note Name: D#3, Velocity: 26
Note OFF: Time 42719, Note Name: D#3
Note ON: Time 42720, Note Name: B2, Velocity: 41
Note OFF: Time 42839, Note Name: B2
Note ON: Time 42840, Note Name: D#3, Velocity: 37
Note OFF: Time 42959, Note Name: D#3
Note ON: Time 42960, Note Name: B2, Velocity: 39
Note OFF: Time 43079, Note Name: B2
Note ON: Time 43080, Note Name: D#3, Velocity: 36
Note OFF: Time 43199, Note Name: D#3
Note ON: Time 43200, Note Name: B2, Velocity: 49
Note OFF: Time 43319, Note Name: B2
Note ON: Time 43320, Note Name: D#3, Velocity: 43
Note OFF: Time 43439, Note Name: D#3
Note ON: Time 43440, Note Name: B2, Velocity: 48
Note OFF: Time 43559, Note Name: B2
Note ON: Time 43560, Note Name: D#3, Velocity: 42
Note OFF: Time 43679, Note Name: D#3
Note ON: Time 43680, Note Name: B2, Velocity: 54
Note OFF: Time 43799, Note Name: B2
Note ON: Time 43800, Note Name: D#3, Velocity: 41
Note OFF: Time 43919, Note Name: D#3
Note ON: Time 43920, Note Name: B2, Velocity: 43
Note OFF: Time 44039, Note Name: B2
Note ON: Time 44040, Note Name: D#3, Velocity: 36
Note OFF: Time 44159, Note Name: D#3
Note ON: Time 44160, Note Name: G2, Velocity: 32
Note OFF: Time 44279, Note Name: G2
Note ON: Time 44280, Note Name: D#3, Velocity: 25
Note OFF: Time 44399, Note Name: D#3
Note ON: Time 44400, Note Name: G2, Velocity: 29
Note OFF: Time 44519, Note Name: G2
Note ON: Time 44520, Note Name: D#3, Velocity: 26
Note OFF: Time 44639, Note Name: D#3
Note ON: Time 44640, Note Name: G2, Velocity: 41
Note OFF: Time 44759, Note Name: G2
Note ON: Time 44760, Note Name: D#3, Velocity: 37
Note OFF: Time 44879, Note Name: D#3
Note ON: Time 44880, Note Name: G2, Velocity: 42
Note OFF: Time 44999, Note Name: G2
Note ON: Time 45000, Note Name: D#3, Velocity: 43
Note OFF: Time 45119, Note Name: D#3
Note ON: Time 45120, Note Name: G2, Velocity: 48
Note OFF: Time 45239, Note Name: G2
Note ON: Time 45240, Note Name: D#3, Velocity: 43
Note OFF: Time 45359, Note Name: D#3
Note ON: Time 45360, Note Name: G2, Velocity: 49
Note OFF: Time 45479, Note Name: G2
Note ON: Time 45480, Note Name: D#3, Velocity: 46
Note OFF: Time 45599, Note Name: D#3
Note ON: Time 45600, Note Name: G2, Velocity: 54
Note OFF: Time 45719, Note Name: G2
Note ON: Time 45720, Note Name: D#3, Velocity: 38
Note OFF: Time 45839, Note Name: D#3
Note ON: Time 45840, Note Name: G2, Velocity: 42
Note OFF: Time 45959, Note Name: G2
Note ON: Time 45960, Note Name: D#3, Velocity: 36
Note OFF: Time 46079, Note Name: D#3
Note ON: Time 46080, Note Name: G#2, Velocity: 39
Note ON: Time 46200, Note Name: D#3, Velocity: 32
Note OFF: Time 46220, Note Name: G#2
Note ON: Time 46320, Note Name: B2, Velocity: 35
Note OFF: Time 46340, Note Name: D#3
Note OFF: Time 46439, Note Name: B2
Note ON: Time 46440, Note Name: D#3, Velocity: 31
Note OFF: Time 46559, Note Name: D#3
Note ON: Time 46560, Note Name: G#2, Velocity: 40
Note OFF: Time 46679, Note Name: G#2
Note ON: Time 46680, Note Name: D#3, Velocity: 31
Note OFF: Time 46799, Note Name: D#3
Note ON: Time 46800, Note Name: B2, Velocity: 34
Note OFF: Time 46919, Note Name: B2
Note ON: Time 46920, Note Name: D#3, Velocity: 31
Note OFF: Time 47039, Note Name: D#3
Note ON: Time 47040, Note Name: G#2, Velocity: 41
Note OFF: Time 47159, Note Name: G#2
Note ON: Time 47160, Note Name: D#3, Velocity: 32
Note OFF: Time 47279, Note Name: D#3
Note ON: Time 47280, Note Name: B2, Velocity: 35
Note OFF: Time 47399, Note Name: B2
Note ON: Time 47400, Note Name: D#3, Velocity: 32
Note OFF: Time 47519, Note Name: D#3
Note ON: Time 47520, Note Name: G#2, Velocity: 43
Note ON: Time 47640, Note Name: D#3, Velocity: 37
Note OFF: Time 47660, Note Name: G#2
Note ON: Time 47760, Note Name: B2, Velocity: 37
Note OFF: Time 47780, Note Name: D#3
Note ON: Time 47880, Note Name: D#3, Velocity: 34
Note OFF: Time 47900, Note Name: B2
Note ON: Time 48000, Note Name: A#2, Velocity: 46
Note OFF: Time 48020, Note Name: D#3
Note ON: Time 48120, Note Name: D#3, Velocity: 34
Note OFF: Time 48140, Note Name: A#2
Note ON: Time 48240, Note Name: C#3, Velocity: 39
Note OFF: Time 48260, Note Name: D#3
Note OFF: Time 48359, Note Name: C#3
Note ON: Time 48360, Note Name: D#3, Velocity: 34
Note OFF: Time 48479, Note Name: D#3
Note ON: Time 48480, Note Name: A#2, Velocity: 47
Note OFF: Time 48599, Note Name: A#2
Note ON: Time 48600, Note Name: D#3, Velocity: 35
Note OFF: Time 48719, Note Name: D#3
Note ON: Time 48720, Note Name: C#3, Velocity: 40
Note OFF: Time 48839, Note Name: C#3
Note ON: Time 48840, Note Name: D#3, Velocity: 35
Note OFF: Time 48959, Note Name: D#3
Note ON: Time 48960, Note Name: A#2, Velocity: 49
Note OFF: Time 49079, Note Name: A#2
Note ON: Time 49080, Note Name: D#3, Velocity: 35
Note OFF: Time 49199, Note Name: D#3
Note ON: Time 49200, Note Name: C#3, Velocity: 41
Note OFF: Time 49319, Note Name: C#3
Note ON: Time 49320, Note Name: D#3, Velocity: 37
Note OFF: Time 49439, Note Name: D#3
Note ON: Time 49440, Note Name: A#2, Velocity: 50
Note ON: Time 49560, Note Name: D#3, Velocity: 40
Note OFF: Time 49580, Note Name: A#2
Note ON: Time 49680, Note Name: C#3, Velocity: 45
Note OFF: Time 49700, Note Name: D#3
Note ON: Time 49800, Note Name: D#3, Velocity: 41
Note OFF: Time 49820, Note Name: C#3
Note ON: Time 49920, Note Name: B2, Velocity: 51
Note OFF: Time 49940, Note Name: D#3
Note ON: Time 50040, Note Name: D#3, Velocity: 44
Note OFF: Time 50060, Note Name: B2
Note ON: Time 50160, Note Name: B2, Velocity: 47
Note OFF: Time 50180, Note Name: D#3
Note OFF: Time 50279, Note Name: B2
Note ON: Time 50280, Note Name: D#3, Velocity: 43
Note OFF: Time 50399, Note Name: D#3
Note ON: Time 50400, Note Name: B2, Velocity: 52
Note OFF: Time 50519, Note Name: B2
Note ON: Time 50520, Note Name: D#3, Velocity: 44
Note OFF: Time 50639, Note Name: D#3
Note ON: Time 50640, Note Name: B2, Velocity: 48
Note OFF: Time 50759, Note Name: B2
Note ON: Time 50760, Note Name: D#3, Velocity: 48
Note OFF: Time 50879, Note Name: D#3
Note ON: Time 50880, Note Name: B2, Velocity: 56
Note OFF: Time 50999, Note Name: B2
Note ON: Time 51000, Note Name: D#3, Velocity: 47
Note OFF: Time 51119, Note Name: D#3
Note ON: Time 51120, Note Name: B2, Velocity: 50
Note OFF: Time 51239, Note Name: B2
Note ON: Time 51240, Note Name: D#3, Velocity: 45
Note ON: Time 51360, Note Name: B2, Velocity: 57
Note OFF: Time 51380, Note Name: D#3
Note ON: Time 51480, Note Name: D#3, Velocity: 49
Note OFF: Time 51500, Note Name: B2
Note ON: Time 51600, Note Name: B2, Velocity: 51
Note OFF: Time 51620, Note Name: D#3
Note ON: Time 51720, Note Name: D#3, Velocity: 47
Note OFF: Time 51740, Note Name: B2
Note ON: Time 51840, Note Name: G2, Velocity: 59
Note OFF: Time 51860, Note Name: D#3
Note ON: Time 51960, Note Name: D#3, Velocity: 53
Note OFF: Time 51980, Note Name: G2
Note ON: Time 52080, Note Name: G2, Velocity: 56
Note OFF: Time 52100, Note Name: D#3
Note OFF: Time 52199, Note Name: G2
Note ON: Time 52200, Note Name: D#3, Velocity: 56
Note OFF: Time 52319, Note Name: D#3
Note ON: Time 52320, Note Name: G2, Velocity: 60
Note OFF: Time 52439, Note Name: G2
Note ON: Time 52440, Note Name: D#3, Velocity: 52
Note OFF: Time 52559, Note Name: D#3
Note ON: Time 52560, Note Name: G2, Velocity: 57
Note OFF: Time 52679, Note Name: G2
Note ON: Time 52680, Note Name: D#3, Velocity: 52
Note OFF: Time 52799, Note Name: D#3
Note ON: Time 52800, Note Name: G2, Velocity: 62
Note OFF: Time 52919, Note Name: G2
Note ON: Time 52920, Note Name: D#3, Velocity: 53
Note OFF: Time 53039, Note Name: D#3
Note ON: Time 53040, Note Name: G2, Velocity: 59
Note ON: Time 53160, Note Name: D#3, Velocity: 53
Note OFF: Time 53180, Note Name: G2
Note ON: Time 53280, Note Name: G2, Velocity: 62
Note OFF: Time 53300, Note Name: D#3
Note ON: Time 53400, Note Name: D#3, Velocity: 54
Note OFF: Time 53420, Note Name: G2
Note ON: Time 53520, Note Name: G2, Velocity: 60
Note OFF: Time 53540, Note Name: D#3
Note ON: Time 53640, Note Name: D#3, Velocity: 54
Note OFF: Time 53660, Note Name: G2
Note ON: Time 53760, Note Name: F#2, Velocity: 66
Note OFF: Time 53780, Note Name: D#3
Note ON: Time 53880, Note Name: D#3, Velocity: 54
Note OFF: Time 53897, Note Name: F#2
Note ON: Time 54000, Note Name: G#2, Velocity: 61
Note OFF: Time 54017, Note Name: D#3
Note ON: Time 54120, Note Name: D#3, Velocity: 54
Note OFF: Time 54137, Note Name: G#2
Note ON: Time 54240, Note Name: F#2, Velocity: 66
Note OFF: Time 54257, Note Name: D#3
Note ON: Time 54360, Note Name: D#3, Velocity: 56
Note OFF: Time 54377, Note Name: F#2
Note ON: Time 54480, Note Name: G#2, Velocity: 61
Note OFF: Time 54497, Note Name: D#3
Note ON: Time 54600, Note Name: D#3, Velocity: 56
Note OFF: Time 54617, Note Name: G#2
Note ON: Time 54720, Note Name: E2, Velocity: 66
Note OFF: Time 54737, Note Name: D#3
Note ON: Time 54840, Note Name: C#3, Velocity: 56
Note OFF: Time 54857, Note Name: E2
Note ON: Time 54960, Note Name: G#2, Velocity: 62
Note OFF: Time 54977, Note Name: C#3
Note ON: Time 55080, Note Name: C#3, Velocity: 56
Note OFF: Time 55097, Note Name: G#2
Note ON: Time 55200, Note Name: E2, Velocity: 66
Note OFF: Time 55217, Note Name: C#3
Note ON: Time 55320, Note Name: C#3, Velocity: 56
Note OFF: Time 55337, Note Name: E2
Note ON: Time 55440, Note Name: G#2, Velocity: 61
Note OFF: Time 55457, Note Name: C#3
Note ON: Time 55560, Note Name: C#3, Velocity: 56
Note OFF: Time 55577, Note Name: G#2
Note ON: Time 55680, Note Name: E2, Velocity: 66
Note OFF: Time 55697, Note Name: C#3
Note OFF: Time 55799, Note Name: E2
Note ON: Time 55800, Note Name: C#3, Velocity: 56
Note OFF: Time 55919, Note Name: C#3
Note ON: Time 55920, Note Name: F#2, Velocity: 61
Note OFF: Time 56039, Note Name: F#2
Note ON: Time 56040, Note Name: C#3, Velocity: 56
Note OFF: Time 56159, Note Name: C#3
Note ON: Time 56160, Note Name: D#2, Velocity: 66
Note ON: Time 56280, Note Name: B2, Velocity: 57
Note OFF: Time 56297, Note Name: D#2
Note ON: Time 56400, Note Name: F#2, Velocity: 62
Note OFF: Time 56417, Note Name: B2
Note ON: Time 56520, Note Name: B2, Velocity: 57
Note OFF: Time 56537, Note Name: F#2
Note ON: Time 56640, Note Name: D#2, Velocity: 66
Note OFF: Time 56657, Note Name: B2
Note ON: Time 56760, Note Name: B2, Velocity: 56
Note OFF: Time 56777, Note Name: D#2
Note ON: Time 56880, Note Name: F#2, Velocity: 61
Note OFF: Time 56897, Note Name: B2
Note ON: Time 57000, Note Name: B2, Velocity: 56
Note OFF: Time 57017, Note Name: F#2
Note ON: Time 57120, Note Name: D#2, Velocity: 66
Note OFF: Time 57137, Note Name: B2
Note ON: Time 57240, Note Name: B2, Velocity: 56
Note OFF: Time 57257, Note Name: D#2
Note ON: Time 57360, Note Name: F#2, Velocity: 60
Note OFF: Time 57377, Note Name: B2
Note ON: Time 57480, Note Name: B2, Velocity: 56
Note OFF: Time 57497, Note Name: F#2
Note ON: Time 57600, Note Name: D2, Velocity: 66
Note OFF: Time 57617, Note Name: B2
Note ON: Time 57720, Note Name: B2, Velocity: 58
Note OFF: Time 57740, Note Name: D2
Note ON: Time 57840, Note Name: E2, Velocity: 62
Note OFF: Time 57860, Note Name: B2
Note ON: Time 57960, Note Name: B2, Velocity: 58
Note OFF: Time 57980, Note Name: E2
Note ON: Time 58080, Note Name: D2, Velocity: 66
Note OFF: Time 58100, Note Name: B2
Note ON: Time 58200, Note Name: B2, Velocity: 58
Note OFF: Time 58220, Note Name: D2
Note ON: Time 58320, Note Name: E2, Velocity: 62
Note OFF: Time 58340, Note Name: B2
Note ON: Time 58440, Note Name: B2, Velocity: 57
Note OFF: Time 58460, Note Name: E2
Note ON: Time 58560, Note Name: C#2, Velocity: 66
Note OFF: Time 58580, Note Name: B2
Note OFF: Time 58679, Note Name: C#2
Note ON: Time 58680, Note Name: A2, Velocity: 57
Note OFF: Time 58799, Note Name: A2
Note ON: Time 58800, Note Name: E2, Velocity: 62
Note OFF: Time 58919, Note Name: E2
Note ON: Time 58920, Note Name: A2, Velocity: 56
Note OFF: Time 59039, Note Name: A2
Note ON: Time 59040, Note Name: C#2, Velocity: 66
Note OFF: Time 59159, Note Name: C#2
Note ON: Time 59160, Note Name: A2, Velocity: 57
Note OFF: Time 59279, Note Name: A2
Note ON: Time 59280, Note Name: E2, Velocity: 62
Note OFF: Time 59399, Note Name: E2
Note ON: Time 59400, Note Name: A2, Velocity: 57
Note OFF: Time 59519, Note Name: A2
Note ON: Time 59520, Note Name: C#2, Velocity: 66
Note OFF: Time 59639, Note Name: C#2
Note ON: Time 59640, Note Name: A#2, Velocity: 56
Note OFF: Time 59759, Note Name: A#2
Note ON: Time 59760, Note Name: D#2, Velocity: 60
Note OFF: Time 59879, Note Name: D#2
Note ON: Time 59880, Note Name: A#2, Velocity: 56
Note OFF: Time 59999, Note Name: A#2
Note ON: Time 60000, Note Name: B1, Velocity: 66
Note ON: Time 60120, Note Name: G#2, Velocity: 57
Note OFF: Time 60137, Note Name: B1
Note ON: Time 60240, Note Name: D#2, Velocity: 61
Note OFF: Time 60257, Note Name: G#2
Note ON: Time 60360, Note Name: G#2, Velocity: 57
Note OFF: Time 60377, Note Name: D#2
Note ON: Time 60480, Note Name: B1, Velocity: 66
Note OFF: Time 60497, Note Name: G#2
Note ON: Time 60600, Note Name: G#2, Velocity: 56
Note OFF: Time 60617, Note Name: B1
Note ON: Time 60720, Note Name: D#2, Velocity: 61
Note OFF: Time 60737, Note Name: G#2
Note ON: Time 60840, Note Name: G#2, Velocity: 57
Note OFF: Time 60857, Note Name: D#2
Note ON: Time 60960, Note Name: B1, Velocity: 66
Note OFF: Time 60977, Note Name: G#2
Note ON: Time 61080, Note Name: G#2, Velocity: 56
Note OFF: Time 61097, Note Name: B1
Note ON: Time 61200, Note Name: D#2, Velocity: 61
Note OFF: Time 61217, Note Name: G#2
Note ON: Time 61320, Note Name: G#2, Velocity: 58
Note OFF: Time 61337, Note Name: D#2
Note ON: Time 61440, Note Name: A2, Velocity: 75
Note ON: Time 61440, Note Name: E2, Velocity: 64
Note ON: Time 61440, Note Name: C#3, Velocity: 75
Note ON: Time 61440, Note Name: C#2, Velocity: 64
Note OFF: Time 61457, Note Name: G#2
Note OFF: Time 62880, Note Name: C#3
Note OFF: Time 62880, Note Name: A2
Note OFF: Time 62880, Note Name: E2
Note OFF: Time 62880, Note Name: C#2
Note ON: Time 63360, Note Name: E4, Velocity: 42
Note ON: Time 63360, Note Name: C#4, Velocity: 42
Note ON: Time 63360, Note Name: A4, Velocity: 50
Note OFF: Time 63836, Note Name: A4
Note OFF: Time 63840, Note Name: C#4
Note OFF: Time 63840, Note Name: E4
Note ON: Time 64320, Note Name: E4, Velocity: 41
Note ON: Time 64320, Note Name: C#4, Velocity: 41
Note ON: Time 64320, Note Name: A4, Velocity: 49
Note OFF: Time 64800, Note Name: A4
Note OFF: Time 64800, Note Name: C#4
Note OFF: Time 64800, Note Name: E4
Note ON: Time 65280, Note Name: E4, Velocity: 41
Note ON: Time 65280, Note Name: C#4, Velocity: 41
Note ON: Time 65280, Note Name: A4, Velocity: 49
Note OFF: Time 65760, Note Name: A4
Note OFF: Time 65760, Note Name: C#4
Note OFF: Time 65760, Note Name: E4
Note ON: Time 65760, Note Name: E4, Velocity: 44
Note ON: Time 65760, Note Name: C#4, Velocity: 44
Note ON: Time 65760, Note Name: A4, Velocity: 52
Note OFF: Time 66240, Note Name: A4
Note OFF: Time 66240, Note Name: C#4
Note OFF: Time 66240, Note Name: E4
Note ON: Time 66240, Note Name: A4, Velocity: 60
Note ON: Time 66240, Note Name: E4, Velocity: 51
Note ON: Time 66240, Note Name: C#4, Velocity: 51
Note OFF: Time 66720, Note Name: C#4
Note OFF: Time 66720, Note Name: E4
Note OFF: Time 66720, Note Name: A4
Note ON: Time 66720, Note Name: A4, Velocity: 56
Note ON: Time 66720, Note Name: E4, Velocity: 47
Note ON: Time 66720, Note Name: C#4, Velocity: 47
Note OFF: Time 67200, Note Name: C#4
Note OFF: Time 67200, Note Name: E4
Note OFF: Time 67200, Note Name: A4
Note ON: Time 67200, Note Name: D#4, Velocity: 49
Note OFF: Time 67319, Note Name: D#4
Note ON: Time 67320, Note Name: B4, Velocity: 44
Note OFF: Time 67439, Note Name: B4
Note ON: Time 67440, Note Name: G#4, Velocity: 47
Note OFF: Time 67559, Note Name: G#4
Note ON: Time 67560, Note Name: B4, Velocity: 44
Note OFF: Time 67679, Note Name: B4
Note ON: Time 67680, Note Name: D#4, Velocity: 51
Note OFF: Time 67799, Note Name: D#4
Note ON: Time 67800, Note Name: B4, Velocity: 43
Note OFF: Time 67919, Note Name: B4
Note ON: Time 67920, Note Name: G#4, Velocity: 47
Note OFF: Time 68039, Note Name: G#4
Note ON: Time 68040, Note Name: B4, Velocity: 43
Note OFF: Time 68159, Note Name: B4
Note ON: Time 68160, Note Name: D#4, Velocity: 51
Note OFF: Time 68279, Note Name: D#4
Note ON: Time 68280, Note Name: C#5, Velocity: 45
Note OFF: Time 68399, Note Name: C#5
Note ON: Time 68400, Note Name: G4, Velocity: 47
Note OFF: Time 68519, Note Name: G4
Note ON: Time 68520, Note Name: C#5, Velocity: 43
Note OFF: Time 68639, Note Name: C#5
Note ON: Time 68640, Note Name: D#4, Velocity: 51
Note OFF: Time 68759, Note Name: D#4
Note ON: Time 68760, Note Name: C#5, Velocity: 43
Note OFF: Time 68879, Note Name: C#5
Note ON: Time 68880, Note Name: G4, Velocity: 47
Note OFF: Time 68999, Note Name: G4
Note ON: Time 69000, Note Name: C#5, Velocity: 43
Note OFF: Time 69119, Note Name: C#5
Note ON: Time 69120, Note Name: G#4, Velocity: 56
Note ON: Time 69120, Note Name: E4, Velocity: 56
Note ON: Time 69120, Note Name: B4, Velocity: 56
Note OFF: Time 69360, Note Name: B4
Note OFF: Time 69360, Note Name: E4
Note OFF: Time 69360, Note Name: G#4
Note ON: Time 69600, Note Name: E2, Velocity: 62
Note ON: Time 69600, Note Name: A2, Velocity: 73
Note ON: Time 69600, Note Name: C#3, Velocity: 73
Note ON: Time 69600, Note Name: C#2, Velocity: 62
Note OFF: Time 70560, Note Name: C#2
Note OFF: Time 70560, Note Name: E2
Note OFF: Time 70560, Note Name: A2
Note OFF: Time 70560, Note Name: C#3
Note ON: Time 71520, Note Name: E3, Velocity: 41
Note ON: Time 71520, Note Name: C#3, Velocity: 41
Note ON: Time 71520, Note Name: A3, Velocity: 49
Note OFF: Time 72000, Note Name: A3
Note OFF: Time 72000, Note Name: C#3
Note OFF: Time 72000, Note Name: E3
Note ON: Time 72480, Note Name: E3, Velocity: 41
Note ON: Time 72480, Note Name: C#3, Velocity: 41
Note ON: Time 72480, Note Name: A3, Velocity: 49
Note OFF: Time 72960, Note Name: A3
Note OFF: Time 72960, Note Name: C#3
Note OFF: Time 72960, Note Name: E3
Note ON: Time 73200, Note Name: A3, Velocity: 51
Note ON: Time 73200, Note Name: C#3, Velocity: 43
Note ON: Time 73200, Note Name: E3, Velocity: 43
Note OFF: Time 73440, Note Name: E3
Note OFF: Time 73440, Note Name: C#3
Note OFF: Time 73440, Note Name: A3
Note ON: Time 73680, Note Name: A3, Velocity: 61
Note ON: Time 73680, Note Name: C#3, Velocity: 51
Note ON: Time 73680, Note Name: E3, Velocity: 51
Note OFF: Time 73920, Note Name: E3
Note OFF: Time 73920, Note Name: C#3
Note OFF: Time 73920, Note Name: A3
Note ON: Time 74160, Note Name: A3, Velocity: 68
Note ON: Time 74160, Note Name: E3, Velocity: 57
Note ON: Time 74160, Note Name: C#3, Velocity: 57
Note OFF: Time 74400, Note Name: C#3
Note OFF: Time 74400, Note Name: E3
Note OFF: Time 74400, Note Name: A3
Note ON: Time 74640, Note Name: A3, Velocity: 68
Note ON: Time 74640, Note Name: E3, Velocity: 57
Note ON: Time 74640, Note Name: C#3, Velocity: 57
Note OFF: Time 74880, Note Name: C#3
Note OFF: Time 74880, Note Name: E3
Note OFF: Time 74880, Note Name: A3
Note ON: Time 74880, Note Name: E3, Velocity: 56
Note ON: Time 74880, Note Name: A3, Velocity: 67
Note ON: Time 74880, Note Name: C#3, Velocity: 56
Note OFF: Time 75360, Note Name: C#3
Note OFF: Time 75360, Note Name: A3
Note OFF: Time 75360, Note Name: E3
Note ON: Time 76800, Note Name: C#3, Velocity: 70
Note OFF: Time 76919, Note Name: C#3
Note ON: Time 76920, Note Name: A3, Velocity: 61
Note OFF: Time 77039, Note Name: A3
Note ON: Time 77040, Note Name: E3, Velocity: 66
Note OFF: Time 77159, Note Name: E3
Note ON: Time 77160, Note Name: A3, Velocity: 62
Note OFF: Time 77279, Note Name: A3
Note ON: Time 77280, Note Name: C#3, Velocity: 70
Note OFF: Time 77399, Note Name: C#3
Note ON: Time 77400, Note Name: A3, Velocity: 61
Note OFF: Time 77519, Note Name: A3
Note ON: Time 77520, Note Name: E3, Velocity: 65
Note OFF: Time 77639, Note Name: E3
Note ON: Time 77640, Note Name: A3, Velocity: 61
Note OFF: Time 77759, Note Name: A3
Note ON: Time 77760, Note Name: D3, Velocity: 70
Note OFF: Time 77879, Note Name: D3
Note ON: Time 77880, Note Name: B3, Velocity: 61
Note OFF: Time 77999, Note Name: B3
Note ON: Time 78000, Note Name: F3, Velocity: 66
Note OFF: Time 78119, Note Name: F3
Note ON: Time 78120, Note Name: B3, Velocity: 62
Note OFF: Time 78239, Note Name: B3
Note ON: Time 78240, Note Name: D3, Velocity: 70
Note OFF: Time 78359, Note Name: D3
Note ON: Time 78360, Note Name: B3, Velocity: 61
Note OFF: Time 78479, Note Name: B3
Note ON: Time 78480, Note Name: F3, Velocity: 63
Note OFF: Time 78599, Note Name: F3
Note ON: Time 78600, Note Name: B3, Velocity: 61
Note OFF: Time 78719, Note Name: B3
Note ON: Time 78720, Note Name: D#3, Velocity: 70
Note OFF: Time 78839, Note Name: D#3
Note ON: Time 78840, Note Name: B3, Velocity: 61
Note OFF: Time 78959, Note Name: B3
Note ON: Time 78960, Note Name: G#3, Velocity: 66
Note OFF: Time 79079, Note Name: G#3
Note ON: Time 79080, Note Name: B3, Velocity: 66
Note OFF: Time 79199, Note Name: B3
Note ON: Time 79200, Note Name: D#3, Velocity: 70
Note OFF: Time 79319, Note Name: D#3
Note ON: Time 79320, Note Name: B3, Velocity: 62
Note OFF: Time 79439, Note Name: B3
Note ON: Time 79440, Note Name: G#3, Velocity: 66
Note OFF: Time 79559, Note Name: G#3
Note ON: Time 79560, Note Name: B3, Velocity: 62
Note OFF: Time 79679, Note Name: B3
Note ON: Time 79680, Note Name: D#2, Velocity: 70
Note OFF: Time 79799, Note Name: D#2
Note ON: Time 79800, Note Name: D#3, Velocity: 62
Note OFF: Time 79919, Note Name: D#3
Note ON: Time 79920, Note Name: D3, Velocity: 67
Note OFF: Time 80039, Note Name: D3
Note ON: Time 80040, Note Name: D#3, Velocity: 62
Note OFF: Time 80159, Note Name: D#3
Note ON: Time 80160, Note Name: D3, Velocity: 70
Note OFF: Time 80279, Note Name: D3
Note ON: Time 80280, Note Name: D#3, Velocity: 62
Note OFF: Time 80399, Note Name: D#3
Note ON: Time 80400, Note Name: D3, Velocity: 67
Note OFF: Time 80519, Note Name: D3
Note ON: Time 80520, Note Name: D#3, Velocity: 61
Note OFF: Time 80622, Note Name: D#3
Note ON: Time 80640, Note Name: G#2, Velocity: 71
Note OFF: Time 80880, Note Name: G#2
Note ON: Time 81120, Note Name: G#3, Velocity: 43
Note OFF: Time 81240, Note Name: G#3
Note ON: Time 81360, Note Name: G#3, Velocity: 43
Note OFF: Time 81480, Note Name: G#3
Note ON: Time 81600, Note Name: G#3, Velocity: 43
Note OFF: Time 81720, Note Name: G#3
Note ON: Time 81840, Note Name: G#3, Velocity: 43
Note OFF: Time 81960, Note Name: G#3
Note ON: Time 82080, Note Name: A#3, Velocity: 42
Note OFF: Time 82200, Note Name: A#3
Note ON: Time 82320, Note Name: B3, Velocity: 42
Note OFF: Time 82440, Note Name: B3
Note ON: Time 82560, Note Name: D#3, Velocity: 47
Note ON: Time 82560, Note Name: C#4, Velocity: 47
Note OFF: Time 82800, Note Name: C#4
Note OFF: Time 82800, Note Name: D#3
Note ON: Time 82800, Note Name: D#4, Velocity: 42
Note ON: Time 82800, Note Name: C#4, Velocity: 42
Note OFF: Time 82920, Note Name: C#4
Note OFF: Time 82920, Note Name: D#4
Note ON: Time 83040, Note Name: C#4, Velocity: 41
Note ON: Time 83040, Note Name: D#4, Velocity: 41
Note OFF: Time 83160, Note Name: D#4
Note OFF: Time 83160, Note Name: C#4
Note ON: Time 83280, Note Name: C#4, Velocity: 41
Note ON: Time 83280, Note Name: D#4, Velocity: 41
Note OFF: Time 83400, Note Name: D#4
Note OFF: Time 83400, Note Name: C#4
Note ON: Time 83520, Note Name: D#4, Velocity: 41
Note ON: Time 83520, Note Name: C#4, Velocity: 41
Note OFF: Time 83640, Note Name: C#4
Note OFF: Time 83640, Note Name: D#4
Note ON: Time 83760, Note Name: C#4, Velocity: 41
Note ON: Time 83760, Note Name: D#4, Velocity: 41
Note OFF: Time 83880, Note Name: D#4
Note OFF: Time 83880, Note Name: C#4
Note ON: Time 84000, Note Name: D#4, Velocity: 41
Note ON: Time 84000, Note Name: B3, Velocity: 41
Note OFF: Time 84120, Note Name: B3
Note OFF: Time 84120, Note Name: D#4
Note ON: Time 84240, Note Name: A#3, Velocity: 40
Note ON: Time 84240, Note Name: D#4, Velocity: 40
Note OFF: Time 84360, Note Name: D#4
Note OFF: Time 84360, Note Name: A#3
Note ON: Time 84480, Note Name: G#3, Velocity: 47
Note ON: Time 84480, Note Name: G#2, Velocity: 47
Note OFF: Time 84720, Note Name: G#2
Note OFF: Time 84720, Note Name: G#3
Note ON: Time 84720, Note Name: G#3, Velocity: 42
Note OFF: Time 84840, Note Name: G#3
Note ON: Time 84960, Note Name: G#3, Velocity: 42
Note OFF: Time 85080, Note Name: G#3
Note ON: Time 85200, Note Name: G#3, Velocity: 42
Note OFF: Time 85320, Note Name: G#3
Note ON: Time 85440, Note Name: G#3, Velocity: 43
Note OFF: Time 85560, Note Name: G#3
Note ON: Time 85680, Note Name: G#3, Velocity: 42
Note OFF: Time 85800, Note Name: G#3
Note ON: Time 85920, Note Name: A#3, Velocity: 43
Note OFF: Time 86040, Note Name: A#3
Note ON: Time 86160, Note Name: B3, Velocity: 43
Note OFF: Time 86280, Note Name: B3
Note ON: Time 86400, Note Name: C#4, Velocity: 47
Note ON: Time 86400, Note Name: D#3, Velocity: 47
Note OFF: Time 86640, Note Name: D#3
Note OFF: Time 86640, Note Name: C#4
Note ON: Time 86640, Note Name: C#4, Velocity: 41
Note ON: Time 86640, Note Name: D#4, Velocity: 41
Note OFF: Time 86760, Note Name: D#4
Note OFF: Time 86760, Note Name: C#4
Note ON: Time 86880, Note Name: C#4, Velocity: 43
Note ON: Time 86880, Note Name: D#4, Velocity: 43
Note OFF: Time 87000, Note Name: D#4
Note OFF: Time 87000, Note Name: C#4
Note ON: Time 87120, Note Name: D#4, Velocity: 42
Note ON: Time 87120, Note Name: C#4, Velocity: 42
Note OFF: Time 87240, Note Name: C#4
Note OFF: Time 87240, Note Name: D#4
Note ON: Time 87360, Note Name: C#4, Velocity: 42
Note ON: Time 87360, Note Name: D#4, Velocity: 42
Note OFF: Time 87480, Note Name: D#4
Note OFF: Time 87480, Note Name: C#4
Note ON: Time 87600, Note Name: D#4, Velocity: 42
Note ON: Time 87600, Note Name: C#4, Velocity: 42
Note OFF: Time 87720, Note Name: C#4
Note OFF: Time 87720, Note Name: D#4
Note ON: Time 87840, Note Name: B3, Velocity: 42
Note ON: Time 87840, Note Name: D#4, Velocity: 42
Note OFF: Time 87960, Note Name: D#4
Note OFF: Time 87960, Note Name: B3
Note ON: Time 88080, Note Name: D#4, Velocity: 42
Note ON: Time 88080, Note Name: A#3, Velocity: 42
Note OFF: Time 88200, Note Name: A#3
Note OFF: Time 88200, Note Name: D#4
Note ON: Time 88320, Note Name: G#2, Velocity: 48
Note OFF: Time 88440, Note Name: G#2
Note ON: Time 88560, Note Name: B3, Velocity: 39
Note ON: Time 88560, Note Name: G#3, Velocity: 39
Note OFF: Time 88680, Note Name: G#3
Note OFF: Time 88680, Note Name: B3
Note ON: Time 88800, Note Name: G#3, Velocity: 39
Note ON: Time 88800, Note Name: B3, Velocity: 39
Note OFF: Time 89040, Note Name: B3
Note OFF: Time 89040, Note Name: G#3
Note ON: Time 89040, Note Name: D#4, Velocity: 39
Note ON: Time 89040, Note Name: B3, Velocity: 39
Note OFF: Time 89280, Note Name: B3
Note OFF: Time 89280, Note Name: D#4
Note ON: Time 89280, Note Name: C#3, Velocity: 47
Note OFF: Time 89400, Note Name: C#3
Note ON: Time 89520, Note Name: C#4, Velocity: 43
Note ON: Time 89520, Note Name: G#3, Velocity: 43
Note OFF: Time 89640, Note Name: G#3
Note OFF: Time 89640, Note Name: C#4
Note ON: Time 89760, Note Name: C#4, Velocity: 43
Note ON: Time 89760, Note Name: G#3, Velocity: 43
Note OFF: Time 90000, Note Name: G#3
Note OFF: Time 90000, Note Name: C#4
Note ON: Time 90000, Note Name: E4, Velocity: 40
Note ON: Time 90000, Note Name: C#4, Velocity: 40
Note OFF: Time 90240, Note Name: C#4
Note OFF: Time 90240, Note Name: E4
Note ON: Time 90240, Note Name: D#3, Velocity: 47
Note OFF: Time 90360, Note Name: D#3
Note ON: Time 90480, Note Name: G#3, Velocity: 41
Note ON: Time 90480, Note Name: B3, Velocity: 41
Note OFF: Time 90600, Note Name: B3
Note OFF: Time 90600, Note Name: G#3
Note ON: Time 90720, Note Name: B3, Velocity: 42
Note ON: Time 90720, Note Name: G#3, Velocity: 42
Note OFF: Time 90960, Note Name: G#3
Note OFF: Time 90960, Note Name: B3
Note ON: Time 90960, Note Name: D#4, Velocity: 39
Note ON: Time 90960, Note Name: B3, Velocity: 39
Note OFF: Time 91200, Note Name: B3
Note OFF: Time 91200, Note Name: D#4
Note ON: Time 91200, Note Name: D#3, Velocity: 47
Note OFF: Time 91320, Note Name: D#3
Note ON: Time 91440, Note Name: A#3, Velocity: 39
Note ON: Time 91440, Note Name: G3, Velocity: 39
Note OFF: Time 91560, Note Name: G3
Note OFF: Time 91560, Note Name: A#3
Note ON: Time 91680, Note Name: A#3, Velocity: 39
Note ON: Time 91680, Note Name: G3, Velocity: 39
Note OFF: Time 91920, Note Name: G3
Note OFF: Time 91920, Note Name: A#3
Note ON: Time 91920, Note Name: A#3, Velocity: 39
Note ON: Time 91920, Note Name: D#4, Velocity: 39
Note OFF: Time 92160, Note Name: D#4
Note OFF: Time 92160, Note Name: A#3
Note ON: Time 92160, Note Name: G#1, Velocity: 42
Note ON: Time 92160, Note Name: G#2, Velocity: 42
Note OFF: Time 92400, Note Name: G#2
Note OFF: Time 92400, Note Name: G#1
Note ON: Time 92400, Note Name: D#3, Velocity: 41
Note ON: Time 92400, Note Name: G#2, Velocity: 41
Note OFF: Time 92520, Note Name: G#2
Note OFF: Time 92520, Note Name: D#3
Note ON: Time 92640, Note Name: G#2, Velocity: 43
Note ON: Time 92640, Note Name: D#3, Velocity: 43
Note OFF: Time 92760, Note Name: D#3
Note OFF: Time 92760, Note Name: G#2
Note ON: Time 92880, Note Name: D#3, Velocity: 47
Note ON: Time 92880, Note Name: G#2, Velocity: 47
Note OFF: Time 93000, Note Name: G#2
Note OFF: Time 93000, Note Name: D#3
Note ON: Time 93120, Note Name: G#2, Velocity: 50
Note ON: Time 93120, Note Name: D#3, Velocity: 50
Note OFF: Time 93240, Note Name: D#3
Note OFF: Time 93240, Note Name: G#2
Note ON: Time 93360, Note Name: D#3, Velocity: 52
Note ON: Time 93360, Note Name: G#2, Velocity: 52
Note OFF: Time 93480, Note Name: G#2
Note OFF: Time 93480, Note Name: D#3
Note ON: Time 93600, Note Name: D#3, Velocity: 57
Note ON: Time 93600, Note Name: A#2, Velocity: 57
Note OFF: Time 93720, Note Name: A#2
Note OFF: Time 93720, Note Name: D#3
Note ON: Time 93840, Note Name: D#3, Velocity: 59
Note ON: Time 93840, Note Name: B2, Velocity: 59
Note OFF: Time 93960, Note Name: B2
Note OFF: Time 93960, Note Name: D#3
Note ON: Time 94080, Note Name: D#3, Velocity: 62
Note ON: Time 94080, Note Name: C#3, Velocity: 62
Note ON: Time 94080, Note Name: D#2, Velocity: 52
Note OFF: Time 94320, Note Name: D#2
Note OFF: Time 94320, Note Name: C#3
Note OFF: Time 94320, Note Name: D#3
Note ON: Time 94320, Note Name: D#3, Velocity: 62
Note ON: Time 94320, Note Name: C#4, Velocity: 62
Note OFF: Time 94440, Note Name: C#4
Note OFF: Time 94440, Note Name: D#3
Note ON: Time 94560, Note Name: D#3, Velocity: 67
Note ON: Time 94560, Note Name: C#4, Velocity: 67
Note OFF: Time 94680, Note Name: C#4
Note OFF: Time 94680, Note Name: D#3
Note ON: Time 94800, Note Name: C#4, Velocity: 63
Note ON: Time 94800, Note Name: D#3, Velocity: 63
Note OFF: Time 94920, Note Name: D#3
Note OFF: Time 94920, Note Name: C#4
Note ON: Time 95040, Note Name: D#3, Velocity: 66
Note ON: Time 95040, Note Name: C#4, Velocity: 66
Note OFF: Time 95160, Note Name: C#4
Note OFF: Time 95160, Note Name: D#3
Note ON: Time 95280, Note Name: C#4, Velocity: 62
Note ON: Time 95280, Note Name: D#3, Velocity: 62
Note OFF: Time 95400, Note Name: D#3
Note OFF: Time 95400, Note Name: C#4
Note ON: Time 95520, Note Name: B3, Velocity: 67
Note ON: Time 95520, Note Name: D#3, Velocity: 67
Note OFF: Time 95640, Note Name: D#3
Note OFF: Time 95640, Note Name: B3
Note ON: Time 95760, Note Name: A#3, Velocity: 63
Note ON: Time 95760, Note Name: D#3, Velocity: 63
Note OFF: Time 95880, Note Name: D#3
Note OFF: Time 95880, Note Name: A#3
Note ON: Time 96000, Note Name: G#1, Velocity: 69
Note ON: Time 96000, Note Name: G#2, Velocity: 69
Note OFF: Time 96240, Note Name: G#2
Note OFF: Time 96240, Note Name: G#1
Note ON: Time 96240, Note Name: D#3, Velocity: 41
Note ON: Time 96240, Note Name: G#2, Velocity: 41
Note OFF: Time 96360, Note Name: G#2
Note OFF: Time 96360, Note Name: D#3
Note ON: Time 96480, Note Name: D#3, Velocity: 44
Note ON: Time 96480, Note Name: G#2, Velocity: 44
Note OFF: Time 96600, Note Name: G#2
Note OFF: Time 96600, Note Name: D#3
Note ON: Time 96720, Note Name: G#2, Velocity: 48
Note ON: Time 96720, Note Name: D#3, Velocity: 48
Note OFF: Time 96840, Note Name: D#3
Note OFF: Time 96840, Note Name: G#2
Note ON: Time 96960, Note Name: D#3, Velocity: 51
Note ON: Time 96960, Note Name: G#2, Velocity: 51
Note OFF: Time 97080, Note Name: G#2
Note OFF: Time 97080, Note Name: D#3
Note ON: Time 97200, Note Name: D#3, Velocity: 56
Note ON: Time 97200, Note Name: G#2, Velocity: 56
Note OFF: Time 97320, Note Name: G#2
Note OFF: Time 97320, Note Name: D#3
Note ON: Time 97440, Note Name: A#2, Velocity: 58
Note ON: Time 97440, Note Name: D#3, Velocity: 58
Note OFF: Time 97560, Note Name: D#3
Note OFF: Time 97560, Note Name: A#2
Note ON: Time 97680, Note Name: D#3, Velocity: 62
Note ON: Time 97680, Note Name: B2, Velocity: 62
Note OFF: Time 97800, Note Name: B2
Note OFF: Time 97800, Note Name: D#3
Note ON: Time 97920, Note Name: D#2, Velocity: 66
Note ON: Time 97920, Note Name: C#3, Velocity: 66
Note ON: Time 97920, Note Name: D#3, Velocity: 66
Note OFF: Time 98160, Note Name: D#3
Note OFF: Time 98160, Note Name: C#3
Note OFF: Time 98160, Note Name: D#2
Note ON: Time 98160, Note Name: D#3, Velocity: 63
Note ON: Time 98160, Note Name: C#4, Velocity: 63
Note OFF: Time 98280, Note Name: C#4
Note OFF: Time 98280, Note Name: D#3
Note ON: Time 98400, Note Name: D#3, Velocity: 67
Note ON: Time 98400, Note Name: C#4, Velocity: 67
Note OFF: Time 98520, Note Name: C#4
Note OFF: Time 98520, Note Name: D#3
Note ON: Time 98640, Note Name: C#4, Velocity: 62
Note ON: Time 98640, Note Name: D#3, Velocity: 62
Note OFF: Time 98760, Note Name: D#3
Note OFF: Time 98760, Note Name: C#4
Note ON: Time 98880, Note Name: D#3, Velocity: 67
Note ON: Time 98880, Note Name: C#4, Velocity: 67
Note OFF: Time 99000, Note Name: C#4
Note OFF: Time 99000, Note Name: D#3
Note ON: Time 99120, Note Name: C#4, Velocity: 63
Note ON: Time 99120, Note Name: D#3, Velocity: 63
Note OFF: Time 99240, Note Name: D#3
Note OFF: Time 99240, Note Name: C#4
Note ON: Time 99360, Note Name: B3, Velocity: 67
Note ON: Time 99360, Note Name: D#3, Velocity: 67
Note OFF: Time 99480, Note Name: D#3
Note OFF: Time 99480, Note Name: B3
Note ON: Time 99600, Note Name: A#3, Velocity: 67
Note ON: Time 99600, Note Name: D#3, Velocity: 67
Note OFF: Time 99720, Note Name: D#3
Note OFF: Time 99720, Note Name: A#3
Note ON: Time 99840, Note Name: G#2, Velocity: 69
Note ON: Time 99840, Note Name: G#3, Velocity: 69
Note OFF: Time 100080, Note Name: G#3
Note OFF: Time 100080, Note Name: G#2
Note ON: Time 100080, Note Name: B3, Velocity: 43
Note ON: Time 100080, Note Name: D#4, Velocity: 43
Note OFF: Time 100200, Note Name: D#4
Note OFF: Time 100200, Note Name: B3
Note ON: Time 100320, Note Name: B3, Velocity: 41
Note ON: Time 100320, Note Name: D#4, Velocity: 41
Note OFF: Time 100560, Note Name: D#4
Note OFF: Time 100560, Note Name: B3
Note ON: Time 100560, Note Name: G#3, Velocity: 39
Note ON: Time 100560, Note Name: B3, Velocity: 39
Note OFF: Time 100800, Note Name: B3
Note OFF: Time 100800, Note Name: G#3
Note ON: Time 100800, Note Name: C#3, Velocity: 48
Note OFF: Time 100920, Note Name: C#3
Note ON: Time 101040, Note Name: E4, Velocity: 42
Note ON: Time 101040, Note Name: C#4, Velocity: 42
Note OFF: Time 101160, Note Name: C#4
Note OFF: Time 101160, Note Name: E4
Note ON: Time 101280, Note Name: E4, Velocity: 42
Note ON: Time 101280, Note Name: C#4, Velocity: 42
Note OFF: Time 101520, Note Name: C#4
Note OFF: Time 101520, Note Name: E4
Note ON: Time 101520, Note Name: C#4, Velocity: 39
Note ON: Time 101520, Note Name: G#3, Velocity: 39
Note OFF: Time 101760, Note Name: G#3
Note OFF: Time 101760, Note Name: C#4
Note ON: Time 101760, Note Name: D#3, Velocity: 48
Note OFF: Time 101880, Note Name: D#3
Note ON: Time 102000, Note Name: B3, Velocity: 42
Note ON: Time 102000, Note Name: D#4, Velocity: 42
Note OFF: Time 102120, Note Name: D#4
Note OFF: Time 102120, Note Name: B3
Note ON: Time 102240, Note Name: B3, Velocity: 42
Note ON: Time 102240, Note Name: D#4, Velocity: 42
Note OFF: Time 102480, Note Name: D#4
Note OFF: Time 102480, Note Name: B3
Note ON: Time 102480, Note Name: G#3, Velocity: 39
Note ON: Time 102480, Note Name: B3, Velocity: 39
Note OFF: Time 102720, Note Name: B3
Note OFF: Time 102720, Note Name: G#3
Note ON: Time 102720, Note Name: C#3, Velocity: 49
Note OFF: Time 102840, Note Name: C#3
Note ON: Time 102960, Note Name: D#4, Velocity: 42
Note ON: Time 102960, Note Name: A#3, Velocity: 42
Note OFF: Time 103080, Note Name: A#3
Note OFF: Time 103080, Note Name: D#4
Note ON: Time 103200, Note Name: D#4, Velocity: 42
Note ON: Time 103200, Note Name: A#3, Velocity: 42
Note OFF: Time 103440, Note Name: A#3
Note OFF: Time 103440, Note Name: D#4
Note ON: Time 103440, Note Name: A#3, Velocity: 40
Note ON: Time 103440, Note Name: G3, Velocity: 40
Note OFF: Time 103680, Note Name: G3
Note OFF: Time 103680, Note Name: A#3
Note ON: Time 103680, Note Name: B2, Velocity: 45
Note OFF: Time 103920, Note Name: B2
Note ON: Time 103920, Note Name: G#4, Velocity: 39
Note ON: Time 103920, Note Name: D#4, Velocity: 39
Note OFF: Time 104040, Note Name: D#4
Note OFF: Time 104040, Note Name: G#4
Note ON: Time 104160, Note Name: D#4, Velocity: 41
Note ON: Time 104160, Note Name: G#4, Velocity: 41
Note OFF: Time 104400, Note Name: G#4
Note OFF: Time 104400, Note Name: D#4
Note ON: Time 104400, Note Name: D#4, Velocity: 41
Note ON: Time 104400, Note Name: B3, Velocity: 41
Note OFF: Time 104640, Note Name: B3
Note OFF: Time 104640, Note Name: D#4
Note ON: Time 104640, Note Name: C#3, Velocity: 50
Note OFF: Time 104880, Note Name: C#3
Note ON: Time 104880, Note Name: E4, Velocity: 47
Note ON: Time 104880, Note Name: A4, Velocity: 47
Note OFF: Time 105000, Note Name: A4
Note OFF: Time 105000, Note Name: E4
Note ON: Time 105120, Note Name: A4, Velocity: 45
Note ON: Time 105120, Note Name: E4, Velocity: 45
Note OFF: Time 105360, Note Name: E4
Note OFF: Time 105360, Note Name: A4
Note ON: Time 105360, Note Name: E4, Velocity: 45
Note ON: Time 105360, Note Name: C#4, Velocity: 45
Note OFF: Time 105600, Note Name: C#4
Note OFF: Time 105600, Note Name: E4
Note ON: Time 105600, Note Name: D#3, Velocity: 52
Note OFF: Time 105840, Note Name: D#3
Note ON: Time 105840, Note Name: G#4, Velocity: 48
Note ON: Time 105840, Note Name: D#4, Velocity: 48
Note OFF: Time 105960, Note Name: D#4
Note OFF: Time 105960, Note Name: G#4
Note ON: Time 106080, Note Name: D#4, Velocity: 48
Note ON: Time 106080, Note Name: G#4, Velocity: 48
Note OFF: Time 106320, Note Name: G#4
Note OFF: Time 106320, Note Name: D#4
Note ON: Time 106320, Note Name: D#4, Velocity: 45
Note ON: Time 106320, Note Name: B3, Velocity: 45
Note OFF: Time 106560, Note Name: B3
Note OFF: Time 106560, Note Name: D#4
Note ON: Time 106560, Note Name: D#3, Velocity: 51
Note OFF: Time 106800, Note Name: D#3
Note ON: Time 106800, Note Name: G4, Velocity: 43
Note ON: Time 106800, Note Name: C#4, Velocity: 43
Note OFF: Time 106920, Note Name: C#4
Note OFF: Time 106920, Note Name: G4
Note ON: Time 107040, Note Name: C#4, Velocity: 43
Note ON: Time 107040, Note Name: G4, Velocity: 43
Note OFF: Time 107280, Note Name: G4
Note OFF: Time 107280, Note Name: C#4
Note ON: Time 107280, Note Name: C#4, Velocity: 35
Note ON: Time 107280, Note Name: A#3, Velocity: 35
Note OFF: Time 107520, Note Name: A#3
Note OFF: Time 107520, Note Name: C#4
Note ON: Time 107520, Note Name: G#2, Velocity: 41
Note OFF: Time 107639, Note Name: G#2
Note ON: Time 107640, Note Name: G#3, Velocity: 33
Note OFF: Time 107759, Note Name: G#3
Note ON: Time 107760, Note Name: D#3, Velocity: 36
Note OFF: Time 107879, Note Name: D#3
Note ON: Time 107880, Note Name: G#3, Velocity: 32
Note OFF: Time 107999, Note Name: G#3
Note ON: Time 108000, Note Name: G#2, Velocity: 41
Note OFF: Time 108119, Note Name: G#2
Note ON: Time 108120, Note Name: G#3, Velocity: 33
Note OFF: Time 108239, Note Name: G#3
Note ON: Time 108240, Note Name: D#3, Velocity: 36
Note OFF: Time 108359, Note Name: D#3
Note ON: Time 108360, Note Name: G#3, Velocity: 33
Note OFF: Time 108479, Note Name: G#3
Note ON: Time 108480, Note Name: G#2, Velocity: 41
Note OFF: Time 108599, Note Name: G#2
Note ON: Time 108600, Note Name: G#3, Velocity: 33
Note OFF: Time 108719, Note Name: G#3
Note ON: Time 108720, Note Name: D#3, Velocity: 37
Note OFF: Time 108839, Note Name: D#3
Note ON: Time 108840, Note Name: G#3, Velocity: 33
Note OFF: Time 108959, Note Name: G#3
Note ON: Time 108960, Note Name: G#2, Velocity: 41
Note OFF: Time 109079, Note Name: G#2
Note ON: Time 109080, Note Name: G#3, Velocity: 33
Note OFF: Time 109199, Note Name: G#3
Note ON: Time 109200, Note Name: D#3, Velocity: 37
Note OFF: Time 109319, Note Name: D#3
Note ON: Time 109320, Note Name: G#3, Velocity: 33
Note OFF: Time 109439, Note Name: G#3
Note ON: Time 109440, Note Name: G#2, Velocity: 41
Note OFF: Time 109559, Note Name: G#2
Note ON: Time 109560, Note Name: A#3, Velocity: 33
Note OFF: Time 109679, Note Name: A#3
Note ON: Time 109680, Note Name: D#3, Velocity: 38
Note OFF: Time 109799, Note Name: D#3
Note ON: Time 109800, Note Name: A#3, Velocity: 33
Note OFF: Time 109919, Note Name: A#3
Note ON: Time 109920, Note Name: G#2, Velocity: 41
Note OFF: Time 110039, Note Name: G#2
Note ON: Time 110040, Note Name: A#3, Velocity: 33
Note OFF: Time 110159, Note Name: A#3
Note ON: Time 110160, Note Name: D#3, Velocity: 37
Note OFF: Time 110279, Note Name: D#3
Note ON: Time 110280, Note Name: A#3, Velocity: 33
Note OFF: Time 110399, Note Name: A#3
Note ON: Time 110400, Note Name: G#2, Velocity: 41
Note OFF: Time 110519, Note Name: G#2
Note ON: Time 110520, Note Name: A#3, Velocity: 34
Note OFF: Time 110639, Note Name: A#3
Note ON: Time 110640, Note Name: D#3, Velocity: 38
Note OFF: Time 110759, Note Name: D#3
Note ON: Time 110760, Note Name: A#3, Velocity: 34
Note OFF: Time 110879, Note Name: A#3
Note ON: Time 110880, Note Name: G#2, Velocity: 41
Note OFF: Time 110999, Note Name: G#2
Note ON: Time 111000, Note Name: A#3, Velocity: 34
Note OFF: Time 111119, Note Name: A#3
Note ON: Time 111120, Note Name: D#3, Velocity: 36
Note OFF: Time 111239, Note Name: D#3
Note ON: Time 111240, Note Name: A#3, Velocity: 33
Note OFF: Time 111359, Note Name: A#3
Note ON: Time 111360, Note Name: G#2, Velocity: 41
Note OFF: Time 111479, Note Name: G#2
Note ON: Time 111480, Note Name: G#3, Velocity: 33
Note OFF: Time 111599, Note Name: G#3
Note ON: Time 111600, Note Name: D#3, Velocity: 37
Note OFF: Time 111719, Note Name: D#3
Note ON: Time 111720, Note Name: G#3, Velocity: 33
Note OFF: Time 111839, Note Name: G#3
Note ON: Time 111840, Note Name: G#2, Velocity: 41
Note OFF: Time 111959, Note Name: G#2
Note ON: Time 111960, Note Name: G#3, Velocity: 34
Note OFF: Time 112079, Note Name: G#3
Note ON: Time 112080, Note Name: D#3, Velocity: 38
Note OFF: Time 112199, Note Name: D#3
Note ON: Time 112200, Note Name: G#3, Velocity: 34
Note OFF: Time 112319, Note Name: G#3
Note ON: Time 112320, Note Name: G#2, Velocity: 41
Note OFF: Time 112439, Note Name: G#2
Note ON: Time 112440, Note Name: G#3, Velocity: 34
Note OFF: Time 112559, Note Name: G#3
Note ON: Time 112560, Note Name: D#3, Velocity: 38
Note OFF: Time 112679, Note Name: D#3
Note ON: Time 112680, Note Name: G#3, Velocity: 34
Note OFF: Time 112799, Note Name: G#3
Note ON: Time 112800, Note Name: G#2, Velocity: 41
Note OFF: Time 112919, Note Name: G#2
Note ON: Time 112920, Note Name: G#3, Velocity: 33
Note OFF: Time 113039, Note Name: G#3
Note ON: Time 113040, Note Name: D#3, Velocity: 36
Note OFF: Time 113159, Note Name: D#3
Note ON: Time 113160, Note Name: G#3, Velocity: 33
Note OFF: Time 113279, Note Name: G#3
Note ON: Time 113280, Note Name: G#2, Velocity: 41
Note OFF: Time 113399, Note Name: G#2
Note ON: Time 113400, Note Name: A#3, Velocity: 36
Note OFF: Time 113519, Note Name: A#3
Note ON: Time 113520, Note Name: D#3, Velocity: 36
Note OFF: Time 113639, Note Name: D#3
Note ON: Time 113640, Note Name: A#3, Velocity: 34
Note OFF: Time 113759, Note Name: A#3
Note ON: Time 113760, Note Name: G#2, Velocity: 41
Note OFF: Time 113879, Note Name: G#2
Note ON: Time 113880, Note Name: A#3, Velocity: 34
Note OFF: Time 113999, Note Name: A#3
Note ON: Time 114000, Note Name: D#3, Velocity: 36
Note OFF: Time 114119, Note Name: D#3
Note ON: Time 114120, Note Name: A#3, Velocity: 33
Note OFF: Time 114239, Note Name: A#3
Note ON: Time 114240, Note Name: G#2, Velocity: 41
Note OFF: Time 114359, Note Name: G#2
Note ON: Time 114360, Note Name: A#3, Velocity: 34
Note OFF: Time 114479, Note Name: A#3
Note ON: Time 114480, Note Name: D#3, Velocity: 36
Note OFF: Time 114599, Note Name: D#3
Note ON: Time 114600, Note Name: A#3, Velocity: 33
Note OFF: Time 114719, Note Name: A#3
Note ON: Time 114720, Note Name: G#2, Velocity: 41
Note OFF: Time 114839, Note Name: G#2
Note ON: Time 114840, Note Name: A#3, Velocity: 34
Note OFF: Time 114959, Note Name: A#3
Note ON: Time 114960, Note Name: D#3, Velocity: 39
Note OFF: Time 115079, Note Name: D#3
Note ON: Time 115080, Note Name: A#3, Velocity: 34
Note OFF: Time 115199, Note Name: A#3
Note ON: Time 115200, Note Name: G#2, Velocity: 41
Note OFF: Time 115319, Note Name: G#2
Note ON: Time 115320, Note Name: G#3, Velocity: 33
Note OFF: Time 115439, Note Name: G#3
Note ON: Time 115440, Note Name: D#3, Velocity: 36
Note OFF: Time 115559, Note Name: D#3
Note ON: Time 115560, Note Name: G#3, Velocity: 33
Note OFF: Time 115679, Note Name: G#3
Note ON: Time 115680, Note Name: G#2, Velocity: 42
Note OFF: Time 115799, Note Name: G#2
Note ON: Time 115800, Note Name: G#3, Velocity: 33
Note OFF: Time 115919, Note Name: G#3
Note ON: Time 115920, Note Name: D#3, Velocity: 35
Note OFF: Time 116039, Note Name: D#3
Note ON: Time 116040, Note Name: G#3, Velocity: 33
Note OFF: Time 116159, Note Name: G#3
Note ON: Time 116160, Note Name: G#2, Velocity: 41
Note OFF: Time 116279, Note Name: G#2
Note ON: Time 116280, Note Name: A#3, Velocity: 34
Note OFF: Time 116399, Note Name: A#3
Note ON: Time 116400, Note Name: D#3, Velocity: 37
Note OFF: Time 116519, Note Name: D#3
Note ON: Time 116520, Note Name: A#3, Velocity: 37
Note OFF: Time 116639, Note Name: A#3
Note ON: Time 116640, Note Name: G#2, Velocity: 41
Note OFF: Time 116759, Note Name: G#2
Note ON: Time 116760, Note Name: A#3, Velocity: 34
Note OFF: Time 116879, Note Name: A#3
Note ON: Time 116880, Note Name: D#3, Velocity: 38
Note OFF: Time 116999, Note Name: D#3
Note ON: Time 117000, Note Name: A#3, Velocity: 34
Note OFF: Time 117119, Note Name: A#3
Note ON: Time 117120, Note Name: G#2, Velocity: 41
Note OFF: Time 117239, Note Name: G#2
Note ON: Time 117240, Note Name: G#3, Velocity: 33
Note OFF: Time 117359, Note Name: G#3
Note ON: Time 117360, Note Name: D#3, Velocity: 36
Note OFF: Time 117479, Note Name: D#3
Note ON: Time 117480, Note Name: G#3, Velocity: 33
Note OFF: Time 117599, Note Name: G#3
Note ON: Time 117600, Note Name: G#2, Velocity: 41
Note OFF: Time 117719, Note Name: G#2
Note ON: Time 117720, Note Name: G#3, Velocity: 33
Note OFF: Time 117839, Note Name: G#3
Note ON: Time 117840, Note Name: D#3, Velocity: 36
Note OFF: Time 117959, Note Name: D#3
Note ON: Time 117960, Note Name: G#3, Velocity: 33
Note OFF: Time 118079, Note Name: G#3
Note ON: Time 118080, Note Name: G#2, Velocity: 41
Note OFF: Time 118199, Note Name: G#2
Note ON: Time 118200, Note Name: A#3, Velocity: 34
Note OFF: Time 118319, Note Name: A#3
Note ON: Time 118320, Note Name: D#3, Velocity: 37
Note OFF: Time 118439, Note Name: D#3
Note ON: Time 118440, Note Name: A#3, Velocity: 33
Note OFF: Time 118559, Note Name: A#3
Note ON: Time 118560, Note Name: G#2, Velocity: 41
Note OFF: Time 118679, Note Name: G#2
Note ON: Time 118680, Note Name: A#3, Velocity: 34
Note OFF: Time 118799, Note Name: A#3
Note ON: Time 118800, Note Name: D#3, Velocity: 37
Note OFF: Time 118919, Note Name: D#3
Note ON: Time 118920, Note Name: A#3, Velocity: 34
Note OFF: Time 119039, Note Name: A#3
Note ON: Time 119040, Note Name: G#2, Velocity: 42
Note OFF: Time 119159, Note Name: G#2
Note ON: Time 119160, Note Name: G#3, Velocity: 41
Note OFF: Time 119279, Note Name: G#3
Note ON: Time 119280, Note Name: D#3, Velocity: 42
Note OFF: Time 119399, Note Name: D#3
Note ON: Time 119400, Note Name: G#3, Velocity: 40
Note OFF: Time 119519, Note Name: G#3
Note ON: Time 119520, Note Name: G#2, Velocity: 43
Note OFF: Time 119639, Note Name: G#2
Note ON: Time 119640, Note Name: G#3, Velocity: 44
Note OFF: Time 119759, Note Name: G#3
Note ON: Time 119760, Note Name: D#3, Velocity: 45
Note OFF: Time 119879, Note Name: D#3
Note ON: Time 119880, Note Name: G#3, Velocity: 43
Note OFF: Time 119999, Note Name: G#3
Note ON: Time 120000, Note Name: G#2, Velocity: 47
Note OFF: Time 120119, Note Name: G#2
Note ON: Time 120120, Note Name: G#3, Velocity: 48
Note OFF: Time 120239, Note Name: G#3
Note ON: Time 120240, Note Name: D#3, Velocity: 48
Note OFF: Time 120359, Note Name: D#3
Note ON: Time 120360, Note Name: G#3, Velocity: 49
Note OFF: Time 120479, Note Name: G#3
Note ON: Time 120480, Note Name: G#2, Velocity: 51
Note OFF: Time 120599, Note Name: G#2
Note ON: Time 120600, Note Name: G#3, Velocity: 51
Note OFF: Time 120719, Note Name: G#3
Note ON: Time 120720, Note Name: D#3, Velocity: 52
Note OFF: Time 120839, Note Name: D#3
Note ON: Time 120840, Note Name: G#3, Velocity: 47
Note OFF: Time 120959, Note Name: G#3
Note ON: Time 120960, Note Name: G#2, Velocity: 53
Note OFF: Time 121079, Note Name: G#2
Note ON: Time 121080, Note Name: F#3, Velocity: 56
Note OFF: Time 121199, Note Name: F#3
Note ON: Time 121200, Note Name: D#3, Velocity: 56
Note OFF: Time 121319, Note Name: D#3
Note ON: Time 121320, Note Name: F#3, Velocity: 51
Note OFF: Time 121439, Note Name: F#3
Note ON: Time 121440, Note Name: G#2, Velocity: 57
Note OFF: Time 121559, Note Name: G#2
Note ON: Time 121560, Note Name: F#3, Velocity: 58
Note OFF: Time 121679, Note Name: F#3
Note ON: Time 121680, Note Name: D#3, Velocity: 60
Note OFF: Time 121799, Note Name: D#3
Note ON: Time 121800, Note Name: F#3, Velocity: 56
Note OFF: Time 121919, Note Name: F#3
Note ON: Time 121920, Note Name: G#2, Velocity: 62
Note OFF: Time 122039, Note Name: G#2
Note ON: Time 122040, Note Name: F#3, Velocity: 62
Note OFF: Time 122159, Note Name: F#3
Note ON: Time 122160, Note Name: D#3, Velocity: 63
Note OFF: Time 122279, Note Name: D#3
Note ON: Time 122280, Note Name: F#3, Velocity: 57
Note OFF: Time 122399, Note Name: F#3
Note ON: Time 122400, Note Name: G#2, Velocity: 65
Note OFF: Time 122519, Note Name: G#2
Note ON: Time 122520, Note Name: F#3, Velocity: 67
Note OFF: Time 122639, Note Name: F#3
Note ON: Time 122640, Note Name: D#3, Velocity: 67
Note OFF: Time 122759, Note Name: D#3
Note ON: Time 122760, Note Name: F#3, Velocity: 62
Note OFF: Time 122879, Note Name: F#3
Note ON: Time 122880, Note Name: C#2, Velocity: 69
Note OFF: Time 123000, Note Name: C#2
Note ON: Time 123120, Note Name: G#2, Velocity: 39
Note OFF: Time 123240, Note Name: G#2
Note ON: Time 123360, Note Name: C#2, Velocity: 43
Note OFF: Time 123480, Note Name: C#2
Note ON: Time 123600, Note Name: G#2, Velocity: 40
Note OFF: Time 123720, Note Name: G#2
Note ON: Time 123840, Note Name: C#2, Velocity: 42
Note OFF: Time 123960, Note Name: C#2
Note ON: Time 124080, Note Name: G#2, Velocity: 39
Note OFF: Time 124200, Note Name: G#2
Note ON: Time 124320, Note Name: C#2, Velocity: 39
Note OFF: Time 124440, Note Name: C#2
Note ON: Time 124560, Note Name: G#2, Velocity: 39
Note OFF: Time 124680, Note Name: G#2
Note ON: Time 124800, Note Name: C#2, Velocity: 43
Note OFF: Time 124920, Note Name: C#2
Note ON: Time 125040, Note Name: G#2, Velocity: 40
Note OFF: Time 125160, Note Name: G#2
Note ON: Time 125280, Note Name: C#2, Velocity: 43
Note OFF: Time 125400, Note Name: C#2
Note ON: Time 125520, Note Name: G#2, Velocity: 40
Note OFF: Time 125640, Note Name: G#2
Note ON: Time 125760, Note Name: C#2, Velocity: 41
Note OFF: Time 125880, Note Name: C#2
Note ON: Time 126000, Note Name: G#2, Velocity: 38
Note OFF: Time 126120, Note Name: G#2
Note ON: Time 126240, Note Name: C#3, Velocity: 77
Note ON: Time 126240, Note Name: C#2, Velocity: 64
Note OFF: Time 126360, Note Name: C#2
Note OFF: Time 126360, Note Name: C#3
Note ON: Time 126480, Note Name: G#2, Velocity: 67
Note OFF: Time 126600, Note Name: G#2
Note ON: Time 126720, Note Name: C2, Velocity: 41
Note OFF: Time 126840, Note Name: C2
Note ON: Time 126960, Note Name: G#2, Velocity: 39
Note OFF: Time 127080, Note Name: G#2
Note ON: Time 127200, Note Name: C2, Velocity: 41
Note OFF: Time 127320, Note Name: C2
Note ON: Time 127440, Note Name: G#2, Velocity: 38
Note OFF: Time 127560, Note Name: G#2
Note ON: Time 127680, Note Name: C2, Velocity: 40
Note OFF: Time 127800, Note Name: C2
Note ON: Time 127920, Note Name: G#2, Velocity: 37
Note OFF: Time 128040, Note Name: G#2
Note ON: Time 128160, Note Name: C2, Velocity: 40
Note OFF: Time 128280, Note Name: C2
Note ON: Time 128400, Note Name: G#2, Velocity: 38
Note OFF: Time 128520, Note Name: G#2
Note ON: Time 128640, Note Name: C2, Velocity: 40
Note OFF: Time 128760, Note Name: C2
Note ON: Time 128880, Note Name: G#2, Velocity: 38
Note OFF: Time 129000, Note Name: G#2
Note ON: Time 129120, Note Name: C2, Velocity: 40
Note OFF: Time 129240, Note Name: C2
Note ON: Time 129360, Note Name: G#2, Velocity: 37
Note OFF: Time 129480, Note Name: G#2
Note ON: Time 129600, Note Name: C2, Velocity: 40
Note OFF: Time 129720, Note Name: C2
Note ON: Time 129840, Note Name: G#2, Velocity: 37
Note OFF: Time 129960, Note Name: G#2
Note ON: Time 130080, Note Name: C3, Velocity: 77
Note ON: Time 130080, Note Name: C2, Velocity: 64
Note OFF: Time 130200, Note Name: C2
Note OFF: Time 130200, Note Name: C3
Note ON: Time 130320, Note Name: G#2, Velocity: 58
Note OFF: Time 130440, Note Name: G#2
Note ON: Time 130560, Note Name: B1, Velocity: 55
Note OFF: Time 130680, Note Name: B1
Note ON: Time 130800, Note Name: G#2, Velocity: 51
Note OFF: Time 130920, Note Name: G#2
Note ON: Time 131040, Note Name: B1, Velocity: 56
Note OFF: Time 131160, Note Name: B1
Note ON: Time 131280, Note Name: G#2, Velocity: 52
Note OFF: Time 131400, Note Name: G#2
Note ON: Time 131520, Note Name: B1, Velocity: 56
Note OFF: Time 131640, Note Name: B1
Note ON: Time 131760, Note Name: G#2, Velocity: 52
Note OFF: Time 131880, Note Name: G#2
Note ON: Time 132000, Note Name: B1, Velocity: 56
Note OFF: Time 132120, Note Name: B1
Note ON: Time 132240, Note Name: G#2, Velocity: 52
Note OFF: Time 132360, Note Name: G#2
Note ON: Time 132480, Note Name: B1, Velocity: 56
Note OFF: Time 132600, Note Name: B1
Note ON: Time 132720, Note Name: G#2, Velocity: 52
Note OFF: Time 132840, Note Name: G#2
Note ON: Time 132960, Note Name: B1, Velocity: 56
Note OFF: Time 133080, Note Name: B1
Note ON: Time 133200, Note Name: G#2, Velocity: 52
Note OFF: Time 133320, Note Name: G#2
Note ON: Time 133440, Note Name: B1, Velocity: 56
Note OFF: Time 133560, Note Name: B1
Note ON: Time 133680, Note Name: G#2, Velocity: 52
Note OFF: Time 133800, Note Name: G#2
Note ON: Time 133920, Note Name: B2, Velocity: 80
Note ON: Time 133920, Note Name: B1, Velocity: 67
Note OFF: Time 134040, Note Name: B1
Note OFF: Time 134040, Note Name: B2
Note ON: Time 134160, Note Name: G#2, Velocity: 73
Note OFF: Time 134280, Note Name: G#2
Note ON: Time 134400, Note Name: A1, Velocity: 50
Note OFF: Time 134520, Note Name: A1
Note ON: Time 134640, Note Name: A2, Velocity: 51
Note OFF: Time 134760, Note Name: A2
Note ON: Time 134880, Note Name: A1, Velocity: 57
Note OFF: Time 135000, Note Name: A1
Note ON: Time 135120, Note Name: A2, Velocity: 62
Note OFF: Time 135240, Note Name: A2
Note ON: Time 135360, Note Name: A1, Velocity: 67
Note OFF: Time 135480, Note Name: A1
Note ON: Time 135600, Note Name: A2, Velocity: 68
Note OFF: Time 135720, Note Name: A2
Note ON: Time 135840, Note Name: A1, Velocity: 86
Note OFF: Time 135960, Note Name: A1
Note ON: Time 136080, Note Name: A2, Velocity: 85
Note OFF: Time 136200, Note Name: A2
Note ON: Time 136320, Note Name: A1, Velocity: 67
Note OFF: Time 136440, Note Name: A1
Note ON: Time 136560, Note Name: A2, Velocity: 63
Note OFF: Time 136680, Note Name: A2
Note ON: Time 136800, Note Name: A1, Velocity: 67
Note OFF: Time 136920, Note Name: A1
Note ON: Time 137040, Note Name: A2, Velocity: 63
Note OFF: Time 137160, Note Name: A2
Note ON: Time 137280, Note Name: A1, Velocity: 67
Note OFF: Time 137400, Note Name: A1
Note ON: Time 137520, Note Name: A2, Velocity: 63
Note OFF: Time 137640, Note Name: A2
Note ON: Time 137760, Note Name: A1, Velocity: 90
Note OFF: Time 137880, Note Name: A1
Note ON: Time 138000, Note Name: A2, Velocity: 90
Note OFF: Time 138120, Note Name: A2
Note ON: Time 138240, Note Name: G#2, Velocity: 77
Note ON: Time 138240, Note Name: G#1, Velocity: 77
Note OFF: Time 138480, Note Name: G#1
Note OFF: Time 138480, Note Name: G#2
Note ON: Time 138480, Note Name: C4, Velocity: 62
Note ON: Time 138480, Note Name: G#3, Velocity: 62
Note OFF: Time 138720, Note Name: C4
Note ON: Time 138720, Note Name: C4, Velocity: 62
Note OFF: Time 138960, Note Name: C4
Note ON: Time 138960, Note Name: C#4, Velocity: 62
Note OFF: Time 139200, Note Name: C#4
Note ON: Time 139200, Note Name: D#4, Velocity: 64
Note OFF: Time 139440, Note Name: D#4
Note ON: Time 139440, Note Name: E4, Velocity: 66
Note OFF: Time 139680, Note Name: E4
Note ON: Time 139680, Note Name: F#4, Velocity: 67
Note OFF: Time 139920, Note Name: F#4
Note ON: Time 139920, Note Name: D#4, Velocity: 68
Note OFF: Time 140160, Note Name: D#4
Note ON: Time 140160, Note Name: F#4, Velocity: 69
Note OFF: Time 140400, Note Name: F#4
Note ON: Time 140400, Note Name: E4, Velocity: 71
Note OFF: Time 140640, Note Name: E4
Note ON: Time 140640, Note Name: A4, Velocity: 72
Note OFF: Time 140880, Note Name: A4
Note ON: Time 140880, Note Name: G#4, Velocity: 71
Note OFF: Time 141120, Note Name: G#4
Note ON: Time 141120, Note Name: F#4, Velocity: 69
Note OFF: Time 141360, Note Name: F#4
Note ON: Time 141360, Note Name: E4, Velocity: 68
Note OFF: Time 141600, Note Name: E4
Note ON: Time 141600, Note Name: D#4, Velocity: 67
Note OFF: Time 141840, Note Name: D#4
Note ON: Time 141840, Note Name: C#4, Velocity: 66
Note OFF: Time 142080, Note Name: C#4
Note OFF: Time 142080, Note Name: G#3
Note ON: Time 142080, Note Name: C4, Velocity: 64
Note ON: Time 142080, Note Name: G#3, Velocity: 64
Note OFF: Time 142320, Note Name: C4
Note ON: Time 142320, Note Name: C4, Velocity: 63
Note OFF: Time 142560, Note Name: C4
Note ON: Time 142560, Note Name: C4, Velocity: 62
Note OFF: Time 142800, Note Name: C4
Note ON: Time 142800, Note Name: C#4, Velocity: 60
Note OFF: Time 143040, Note Name: C#4
Note ON: Time 143040, Note Name: D#4, Velocity: 62
Note OFF: Time 143280, Note Name: D#4
Note ON: Time 143280, Note Name: E4, Velocity: 62
Note OFF: Time 143520, Note Name: E4
Note ON: Time 143520, Note Name: F#4, Velocity: 65
Note OFF: Time 143760, Note Name: F#4
Note ON: Time 143760, Note Name: D#4, Velocity: 67
Note OFF: Time 144000, Note Name: D#4
Note ON: Time 144000, Note Name: F#4, Velocity: 68
Note OFF: Time 144240, Note Name: F#4
Note ON: Time 144240, Note Name: E4, Velocity: 68
Note OFF: Time 144480, Note Name: E4
Note ON: Time 144480, Note Name: A4, Velocity: 68
Note OFF: Time 144720, Note Name: A4
Note ON: Time 144720, Note Name: G#4, Velocity: 67
Note OFF: Time 144960, Note Name: G#4
Note ON: Time 144960, Note Name: F#4, Velocity: 67
Note OFF: Time 145200, Note Name: F#4
Note ON: Time 145200, Note Name: E4, Velocity: 67
Note OFF: Time 145440, Note Name: E4
Note ON: Time 145440, Note Name: D#4, Velocity: 67
Note OFF: Time 145680, Note Name: D#4
Note ON: Time 145680, Note Name: C#4, Velocity: 67
Note OFF: Time 145920, Note Name: C#4
Note OFF: Time 145920, Note Name: G#3
Note ON: Time 145920, Note Name: G#3, Velocity: 71
Note ON: Time 145920, Note Name: C4, Velocity: 71
Note OFF: Time 146040, Note Name: C4
Note OFF: Time 146040, Note Name: G#3
Note ON: Time 146160, Note Name: C#4, Velocity: 62
Note ON: Time 146160, Note Name: G#3, Velocity: 62
Note OFF: Time 146280, Note Name: G#3
Note OFF: Time 146280, Note Name: C#4
Note ON: Time 146400, Note Name: C4, Velocity: 67
Note ON: Time 146400, Note Name: G#3, Velocity: 67
Note OFF: Time 146520, Note Name: G#3
Note OFF: Time 146520, Note Name: C4
Note ON: Time 146640, Note Name: C#4, Velocity: 62
Note ON: Time 146640, Note Name: G#3, Velocity: 62
Note OFF: Time 146760, Note Name: G#3
Note OFF: Time 146760, Note Name: C#4
Note ON: Time 146880, Note Name: C4, Velocity: 71
Note ON: Time 146880, Note Name: G#3, Velocity: 71
Note OFF: Time 147000, Note Name: G#3
Note OFF: Time 147000, Note Name: C4
Note ON: Time 147120, Note Name: C#4, Velocity: 62
Note ON: Time 147120, Note Name: G#3, Velocity: 62
Note OFF: Time 147240, Note Name: G#3
Note OFF: Time 147240, Note Name: C#4
Note ON: Time 147360, Note Name: C4, Velocity: 67
Note ON: Time 147360, Note Name: G#3, Velocity: 67
Note OFF: Time 147480, Note Name: G#3
Note OFF: Time 147480, Note Name: C4
Note ON: Time 147600, Note Name: C#4, Velocity: 61
Note ON: Time 147600, Note Name: G#3, Velocity: 61
Note OFF: Time 147720, Note Name: G#3
Note OFF: Time 147720, Note Name: C#4
Note ON: Time 147840, Note Name: G#3, Velocity: 71
Note ON: Time 147840, Note Name: C4, Velocity: 71
Note OFF: Time 148080, Note Name: C4
Note OFF: Time 148080, Note Name: G#3
Note ON: Time 148320, Note Name: G#1, Velocity: 96
Note ON: Time 148320, Note Name: G#2, Velocity: 96
Note OFF: Time 149760, Note Name: G#2
Note OFF: Time 149760, Note Name: G#1
Note ON: Time 149760, Note Name: C#2, Velocity: 43
Note OFF: Time 149880, Note Name: C#2
Note ON: Time 150000, Note Name: G#2, Velocity: 39
Note OFF: Time 150120, Note Name: G#2
Note ON: Time 150240, Note Name: C#2, Velocity: 43
Note OFF: Time 150360, Note Name: C#2
Note ON: Time 150480, Note Name: G#2, Velocity: 39
Note OFF: Time 150600, Note Name: G#2
Note ON: Time 150720, Note Name: C#2, Velocity: 43
Note OFF: Time 150840, Note Name: C#2
Note ON: Time 150960, Note Name: G#2, Velocity: 39
Note OFF: Time 151080, Note Name: G#2
Note ON: Time 151200, Note Name: C#2, Velocity: 43
Note OFF: Time 151320, Note Name: C#2
Note ON: Time 151440, Note Name: G#2, Velocity: 39
Note OFF: Time 151560, Note Name: G#2
Note ON: Time 151680, Note Name: C#2, Velocity: 43
Note OFF: Time 151800, Note Name: C#2
Note ON: Time 151920, Note Name: G#2, Velocity: 39
Note OFF: Time 152040, Note Name: G#2
Note ON: Time 152160, Note Name: C#2, Velocity: 43
Note OFF: Time 152280, Note Name: C#2
Note ON: Time 152400, Note Name: G#2, Velocity: 39
Note OFF: Time 152520, Note Name: G#2
Note ON: Time 152640, Note Name: C#2, Velocity: 43
Note OFF: Time 152760, Note Name: C#2
Note ON: Time 152880, Note Name: G#2, Velocity: 43
Note OFF: Time 153000, Note Name: G#2
Note ON: Time 153120, Note Name: C#3, Velocity: 89
Note ON: Time 153120, Note Name: C#2, Velocity: 75
Note OFF: Time 153240, Note Name: C#2
Note OFF: Time 153240, Note Name: C#3
Note ON: Time 153360, Note Name: G#2, Velocity: 74
Note OFF: Time 153480, Note Name: G#2
Note ON: Time 153600, Note Name: A#1, Velocity: 40
Note OFF: Time 153720, Note Name: A#1
Note ON: Time 153840, Note Name: C#3, Velocity: 37
Note OFF: Time 153960, Note Name: C#3
Note ON: Time 154080, Note Name: A#2, Velocity: 40
Note OFF: Time 154200, Note Name: A#2
Note ON: Time 154320, Note Name: C#3, Velocity: 40
Note OFF: Time 154440, Note Name: C#3
Note ON: Time 154560, Note Name: A#2, Velocity: 40
Note OFF: Time 154680, Note Name: A#2
Note ON: Time 154800, Note Name: C#3, Velocity: 37
Note OFF: Time 154920, Note Name: C#3
Note ON: Time 155040, Note Name: A#2, Velocity: 40
Note OFF: Time 155160, Note Name: A#2
Note ON: Time 155280, Note Name: C#3, Velocity: 40
Note OFF: Time 155400, Note Name: C#3
Note ON: Time 155520, Note Name: A#2, Velocity: 40
Note OFF: Time 155640, Note Name: A#2
Note ON: Time 155760, Note Name: C#3, Velocity: 37
Note OFF: Time 155880, Note Name: C#3
Note ON: Time 156000, Note Name: A#2, Velocity: 40
Note OFF: Time 156120, Note Name: A#2
Note ON: Time 156240, Note Name: C#3, Velocity: 37
Note OFF: Time 156360, Note Name: C#3
Note ON: Time 156480, Note Name: A#2, Velocity: 40
Note OFF: Time 156600, Note Name: A#2
Note ON: Time 156720, Note Name: C#3, Velocity: 38
Note OFF: Time 156840, Note Name: C#3
Note ON: Time 156960, Note Name: A#2, Velocity: 83
Note ON: Time 156960, Note Name: A#1, Velocity: 71
Note OFF: Time 157080, Note Name: A#1
Note OFF: Time 157080, Note Name: A#2
Note ON: Time 157200, Note Name: C#3, Velocity: 72
Note OFF: Time 157320, Note Name: C#3
Note ON: Time 157440, Note Name: G1, Velocity: 39
Note OFF: Time 157560, Note Name: G1
Note ON: Time 157680, Note Name: D#3, Velocity: 39
Note OFF: Time 157800, Note Name: D#3
Note ON: Time 157920, Note Name: G2, Velocity: 40
Note OFF: Time 158040, Note Name: G2
Note ON: Time 158160, Note Name: D#3, Velocity: 42
Note OFF: Time 158280, Note Name: D#3
Note ON: Time 158400, Note Name: G2, Velocity: 43
Note OFF: Time 158520, Note Name: G2
Note ON: Time 158640, Note Name: D#3, Velocity: 43
Note OFF: Time 158760, Note Name: D#3
Note ON: Time 158880, Note Name: G2, Velocity: 45
Note OFF: Time 159000, Note Name: G2
Note ON: Time 159120, Note Name: D#3, Velocity: 45
Note OFF: Time 159240, Note Name: D#3
Note ON: Time 159360, Note Name: G2, Velocity: 47
Note OFF: Time 159480, Note Name: G2
Note ON: Time 159600, Note Name: D#3, Velocity: 48
Note OFF: Time 159720, Note Name: D#3
Note ON: Time 159840, Note Name: G2, Velocity: 49
Note OFF: Time 159960, Note Name: G2
Note ON: Time 160080, Note Name: D#3, Velocity: 51
Note OFF: Time 160200, Note Name: D#3
Note ON: Time 160320, Note Name: G2, Velocity: 51
Note OFF: Time 160440, Note Name: G2
Note ON: Time 160560, Note Name: D#3, Velocity: 48
Note OFF: Time 160680, Note Name: D#3
Note ON: Time 160800, Note Name: G2, Velocity: 47
Note OFF: Time 160920, Note Name: G2
Note ON: Time 161040, Note Name: D#3, Velocity: 45
Note OFF: Time 161160, Note Name: D#3
Note ON: Time 161280, Note Name: G#2, Velocity: 33
Note ON: Time 161400, Note Name: D#3, Velocity: 25
Note OFF: Time 161420, Note Name: G#2
Note ON: Time 161520, Note Name: B2, Velocity: 28
Note OFF: Time 161540, Note Name: D#3
Note ON: Time 161640, Note Name: D#3, Velocity: 25
Note OFF: Time 161660, Note Name: B2
Note ON: Time 161760, Note Name: G#2, Velocity: 35
Note OFF: Time 161780, Note Name: D#3
Note OFF: Time 161879, Note Name: G#2
Note ON: Time 161880, Note Name: D#3, Velocity: 27
Note OFF: Time 161999, Note Name: D#3
Note ON: Time 162000, Note Name: B2, Velocity: 35
Note OFF: Time 162119, Note Name: B2
Note ON: Time 162120, Note Name: D#3, Velocity: 30
Note OFF: Time 162239, Note Name: D#3
Note ON: Time 162240, Note Name: G#2, Velocity: 37
Note OFF: Time 162359, Note Name: G#2
Note ON: Time 162360, Note Name: D#3, Velocity: 27
Note OFF: Time 162479, Note Name: D#3
Note ON: Time 162480, Note Name: B2, Velocity: 39
Note OFF: Time 162599, Note Name: B2
Note ON: Time 162600, Note Name: D#3, Velocity: 30
Note OFF: Time 162719, Note Name: D#3
Note ON: Time 162720, Note Name: G#2, Velocity: 39
Note OFF: Time 162839, Note Name: G#2
Note ON: Time 162840, Note Name: D#3, Velocity: 31
Note OFF: Time 162959, Note Name: D#3
Note ON: Time 162960, Note Name: B2, Velocity: 40
Note OFF: Time 163079, Note Name: B2
Note ON: Time 163080, Note Name: D#3, Velocity: 33
Note OFF: Time 163199, Note Name: D#3
Note ON: Time 163200, Note Name: A#2, Velocity: 33
Note ON: Time 163320, Note Name: D#3, Velocity: 26
Note OFF: Time 163340, Note Name: A#2
Note ON: Time 163440, Note Name: C#3, Velocity: 29
Note OFF: Time 163460, Note Name: D#3
Note ON: Time 163560, Note Name: D#3, Velocity: 26
Note OFF: Time 163580, Note Name: C#3
Note ON: Time 163680, Note Name: A#2, Velocity: 42
Note OFF: Time 163700, Note Name: D#3
Note OFF: Time 163799, Note Name: A#2
Note ON: Time 163800, Note Name: D#3, Velocity: 32
Note OFF: Time 163919, Note Name: D#3
Note ON: Time 163920, Note Name: C#3, Velocity: 40
Note OFF: Time 164039, Note Name: C#3
Note ON: Time 164040, Note Name: D#3, Velocity: 40
Note OFF: Time 164159, Note Name: D#3
Note ON: Time 164160, Note Name: A#2, Velocity: 49
Note OFF: Time 164279, Note Name: A#2
Note ON: Time 164280, Note Name: D#3, Velocity: 40
Note OFF: Time 164399, Note Name: D#3
Note ON: Time 164400, Note Name: C#3, Velocity: 46
Note OFF: Time 164519, Note Name: C#3
Note ON: Time 164520, Note Name: D#3, Velocity: 41
Note OFF: Time 164639, Note Name: D#3
Note ON: Time 164640, Note Name: A#2, Velocity: 56
Note OFF: Time 164759, Note Name: A#2
Note ON: Time 164760, Note Name: D#3, Velocity: 41
Note OFF: Time 164879, Note Name: D#3
Note ON: Time 164880, Note Name: C#3, Velocity: 43
Note OFF: Time 164999, Note Name: C#3
Note ON: Time 165000, Note Name: D#3, Velocity: 36
Note OFF: Time 165119, Note Name: D#3
Note ON: Time 165120, Note Name: B2, Velocity: 33
Note OFF: Time 165239, Note Name: B2
Note ON: Time 165240, Note Name: D#3, Velocity: 29
Note OFF: Time 165359, Note Name: D#3
Note ON: Time 165360, Note Name: B2, Velocity: 30
Note OFF: Time 165479, Note Name: B2
Note ON: Time 165480, Note Name: D#3, Velocity: 26
Note OFF: Time 165599, Note Name: D#3
Note ON: Time 165600, Note Name: B2, Velocity: 41
Note OFF: Time 165719, Note Name: B2
Note ON: Time 165720, Note Name: D#3, Velocity: 32
Note OFF: Time 165839, Note Name: D#3
Note ON: Time 165840, Note Name: B2, Velocity: 39
Note OFF: Time 165959, Note Name: B2
Note ON: Time 165960, Note Name: D#3, Velocity: 36
Note OFF: Time 166079, Note Name: D#3
Note ON: Time 166080, Note Name: B2, Velocity: 49
Note OFF: Time 166199, Note Name: B2
Note ON: Time 166200, Note Name: D#3, Velocity: 38
Note OFF: Time 166319, Note Name: D#3
Note ON: Time 166320, Note Name: B2, Velocity: 48
Note OFF: Time 166439, Note Name: B2
Note ON: Time 166440, Note Name: D#3, Velocity: 42
Note OFF: Time 166559, Note Name: D#3
Note ON: Time 166560, Note Name: B2, Velocity: 54
Note OFF: Time 166679, Note Name: B2
Note ON: Time 166680, Note Name: D#3, Velocity: 41
Note OFF: Time 166799, Note Name: D#3
Note ON: Time 166800, Note Name: B2, Velocity: 43
Note OFF: Time 166919, Note Name: B2
Note ON: Time 166920, Note Name: D#3, Velocity: 35
Note OFF: Time 167039, Note Name: D#3
Note ON: Time 167040, Note Name: G2, Velocity: 32
Note OFF: Time 167159, Note Name: G2
Note ON: Time 167160, Note Name: D#3, Velocity: 29
Note OFF: Time 167279, Note Name: D#3
Note ON: Time 167280, Note Name: G2, Velocity: 29
Note OFF: Time 167399, Note Name: G2
Note ON: Time 167400, Note Name: D#3, Velocity: 26
Note OFF: Time 167519, Note Name: D#3
Note ON: Time 167520, Note Name: G2, Velocity: 41
Note OFF: Time 167639, Note Name: G2
Note ON: Time 167640, Note Name: D#3, Velocity: 40
Note OFF: Time 167759, Note Name: D#3
Note ON: Time 167760, Note Name: G2, Velocity: 42
Note OFF: Time 167879, Note Name: G2
Note ON: Time 167880, Note Name: D#3, Velocity: 40
Note OFF: Time 167999, Note Name: D#3
Note ON: Time 168000, Note Name: G2, Velocity: 48
Note OFF: Time 168119, Note Name: G2
Note ON: Time 168120, Note Name: D#3, Velocity: 43
Note OFF: Time 168239, Note Name: D#3
Note ON: Time 168240, Note Name: G2, Velocity: 49
Note OFF: Time 168359, Note Name: G2
Note ON: Time 168360, Note Name: D#3, Velocity: 42
Note OFF: Time 168479, Note Name: D#3
Note ON: Time 168480, Note Name: G2, Velocity: 54
Note OFF: Time 168599, Note Name: G2
Note ON: Time 168600, Note Name: D#3, Velocity: 38
Note OFF: Time 168719, Note Name: D#3
Note ON: Time 168720, Note Name: G2, Velocity: 42
Note OFF: Time 168839, Note Name: G2
Note ON: Time 168840, Note Name: D#3, Velocity: 35
Note OFF: Time 168959, Note Name: D#3
Note ON: Time 168960, Note Name: G#2, Velocity: 39
Note ON: Time 169080, Note Name: D#3, Velocity: 33
Note OFF: Time 169100, Note Name: G#2
Note ON: Time 169200, Note Name: B2, Velocity: 35
Note OFF: Time 169220, Note Name: D#3
Note OFF: Time 169319, Note Name: B2
Note ON: Time 169320, Note Name: D#3, Velocity: 31
Note OFF: Time 169439, Note Name: D#3
Note ON: Time 169440, Note Name: G#2, Velocity: 40
Note OFF: Time 169559, Note Name: G#2
Note ON: Time 169560, Note Name: D#3, Velocity: 31
Note OFF: Time 169679, Note Name: D#3
Note ON: Time 169680, Note Name: B2, Velocity: 34
Note OFF: Time 169799, Note Name: B2
Note ON: Time 169800, Note Name: D#3, Velocity: 31
Note OFF: Time 169919, Note Name: D#3
Note ON: Time 169920, Note Name: G#2, Velocity: 41
Note OFF: Time 170039, Note Name: G#2
Note ON: Time 170040, Note Name: D#3, Velocity: 32
Note OFF: Time 170159, Note Name: D#3
Note ON: Time 170160, Note Name: B2, Velocity: 35
Note OFF: Time 170279, Note Name: B2
Note ON: Time 170280, Note Name: D#3, Velocity: 32
Note OFF: Time 170399, Note Name: D#3
Note ON: Time 170400, Note Name: G#2, Velocity: 43
Note ON: Time 170520, Note Name: D#3, Velocity: 33
Note OFF: Time 170540, Note Name: G#2
Note ON: Time 170640, Note Name: B2, Velocity: 37
Note OFF: Time 170660, Note Name: D#3
Note ON: Time 170760, Note Name: D#3, Velocity: 33
Note OFF: Time 170780, Note Name: B2
Note ON: Time 170880, Note Name: A#2, Velocity: 46
Note OFF: Time 170900, Note Name: D#3
Note ON: Time 171000, Note Name: D#3, Velocity: 34
Note OFF: Time 171020, Note Name: A#2
Note ON: Time 171120, Note Name: C#3, Velocity: 39
Note OFF: Time 171140, Note Name: D#3
Note OFF: Time 171239, Note Name: C#3
Note ON: Time 171240, Note Name: D#3, Velocity: 34
Note OFF: Time 171359, Note Name: D#3
Note ON: Time 171360, Note Name: A#2, Velocity: 47
Note OFF: Time 171479, Note Name: A#2
Note ON: Time 171480, Note Name: D#3, Velocity: 35
Note OFF: Time 171599, Note Name: D#3
Note ON: Time 171600, Note Name: C#3, Velocity: 40
Note OFF: Time 171719, Note Name: C#3
Note ON: Time 171720, Note Name: D#3, Velocity: 40
Note OFF: Time 171839, Note Name: D#3
Note ON: Time 171840, Note Name: A#2, Velocity: 49
Note OFF: Time 171959, Note Name: A#2
Note ON: Time 171960, Note Name: D#3, Velocity: 35
Note OFF: Time 172079, Note Name: D#3
Note ON: Time 172080, Note Name: C#3, Velocity: 41
Note OFF: Time 172199, Note Name: C#3
Note ON: Time 172200, Note Name: D#3, Velocity: 35
Note OFF: Time 172319, Note Name: D#3
Note ON: Time 172320, Note Name: A#2, Velocity: 50
Note ON: Time 172440, Note Name: D#3, Velocity: 42
Note OFF: Time 172460, Note Name: A#2
Note ON: Time 172560, Note Name: C#3, Velocity: 45
Note OFF: Time 172580, Note Name: D#3
Note ON: Time 172680, Note Name: D#3, Velocity: 42
Note OFF: Time 172700, Note Name: C#3
Note ON: Time 172800, Note Name: B2, Velocity: 51
Note OFF: Time 172820, Note Name: D#3
Note ON: Time 172920, Note Name: D#3, Velocity: 43
Note OFF: Time 172940, Note Name: B2
Note ON: Time 173040, Note Name: B2, Velocity: 47
Note OFF: Time 173060, Note Name: D#3
Note OFF: Time 173159, Note Name: B2
Note ON: Time 173160, Note Name: D#3, Velocity: 43
Note OFF: Time 173279, Note Name: D#3
Note ON: Time 173280, Note Name: B2, Velocity: 52
Note OFF: Time 173399, Note Name: B2
Note ON: Time 173400, Note Name: D#3, Velocity: 44
Note OFF: Time 173519, Note Name: D#3
Note ON: Time 173520, Note Name: B2, Velocity: 48
Note OFF: Time 173639, Note Name: B2
Note ON: Time 173640, Note Name: D#3, Velocity: 44
Note OFF: Time 173759, Note Name: D#3
Note ON: Time 173760, Note Name: B2, Velocity: 56
Note OFF: Time 173879, Note Name: B2
Note ON: Time 173880, Note Name: D#3, Velocity: 46
Note OFF: Time 173999, Note Name: D#3
Note ON: Time 174000, Note Name: B2, Velocity: 50
Note ON: Time 174120, Note Name: D#3, Velocity: 45
Note OFF: Time 174140, Note Name: B2
Note ON: Time 174240, Note Name: B2, Velocity: 57
Note OFF: Time 174260, Note Name: D#3
Note ON: Time 174360, Note Name: D#3, Velocity: 47
Note OFF: Time 174380, Note Name: B2
Note ON: Time 174480, Note Name: B2, Velocity: 51
Note OFF: Time 174500, Note Name: D#3
Note ON: Time 174600, Note Name: D#3, Velocity: 47
Note OFF: Time 174620, Note Name: B2
Note ON: Time 174720, Note Name: G2, Velocity: 59
Note OFF: Time 174740, Note Name: D#3
Note ON: Time 174840, Note Name: D#3, Velocity: 52
Note OFF: Time 174860, Note Name: G2
Note ON: Time 174960, Note Name: G2, Velocity: 56
Note OFF: Time 174980, Note Name: D#3
Note OFF: Time 175079, Note Name: G2
Note ON: Time 175080, Note Name: D#3, Velocity: 51
Note OFF: Time 175199, Note Name: D#3
Note ON: Time 175200, Note Name: G2, Velocity: 60
Note OFF: Time 175319, Note Name: G2
Note ON: Time 175320, Note Name: D#3, Velocity: 53
Note OFF: Time 175439, Note Name: D#3
Note ON: Time 175440, Note Name: G2, Velocity: 57
Note OFF: Time 175559, Note Name: G2
Note ON: Time 175560, Note Name: D#3, Velocity: 52
Note OFF: Time 175679, Note Name: D#3
Note ON: Time 175680, Note Name: G2, Velocity: 62
Note OFF: Time 175799, Note Name: G2
Note ON: Time 175800, Note Name: D#3, Velocity: 54
Note OFF: Time 175919, Note Name: D#3
Note ON: Time 175920, Note Name: G2, Velocity: 59
Note ON: Time 176040, Note Name: D#3, Velocity: 53
Note OFF: Time 176060, Note Name: G2
Note ON: Time 176160, Note Name: G2, Velocity: 62
Note OFF: Time 176180, Note Name: D#3
Note ON: Time 176280, Note Name: D#3, Velocity: 54
Note OFF: Time 176300, Note Name: G2
Note ON: Time 176400, Note Name: G2, Velocity: 60
Note OFF: Time 176420, Note Name: D#3
Note ON: Time 176520, Note Name: D#3, Velocity: 53
Note OFF: Time 176540, Note Name: G2
Note ON: Time 176640, Note Name: F#2, Velocity: 66
Note OFF: Time 176660, Note Name: D#3
Note ON: Time 176760, Note Name: D#3, Velocity: 57
Note OFF: Time 176780, Note Name: F#2
Note ON: Time 176880, Note Name: G#2, Velocity: 61
Note OFF: Time 176900, Note Name: D#3
Note ON: Time 177000, Note Name: D#3, Velocity: 56
Note OFF: Time 177020, Note Name: G#2
Note ON: Time 177120, Note Name: F#2, Velocity: 66
Note OFF: Time 177140, Note Name: D#3
Note ON: Time 177240, Note Name: D#3, Velocity: 56
Note OFF: Time 177260, Note Name: F#2
Note ON: Time 177360, Note Name: G#2, Velocity: 61
Note OFF: Time 177380, Note Name: D#3
Note ON: Time 177480, Note Name: D#3, Velocity: 56
Note OFF: Time 177500, Note Name: G#2
Note ON: Time 177600, Note Name: E2, Velocity: 66
Note OFF: Time 177620, Note Name: D#3
Note ON: Time 177720, Note Name: C#3, Velocity: 58
Note OFF: Time 177740, Note Name: E2
Note ON: Time 177840, Note Name: G#2, Velocity: 62
Note OFF: Time 177860, Note Name: C#3
Note ON: Time 177960, Note Name: C#3, Velocity: 56
Note OFF: Time 177980, Note Name: G#2
Note ON: Time 178080, Note Name: E2, Velocity: 66
Note OFF: Time 178100, Note Name: C#3
Note ON: Time 178200, Note Name: C#3, Velocity: 56
Note OFF: Time 178220, Note Name: E2
Note ON: Time 178320, Note Name: G#2, Velocity: 61
Note OFF: Time 178340, Note Name: C#3
Note ON: Time 178440, Note Name: C#3, Velocity: 61
Note OFF: Time 178460, Note Name: G#2
Note ON: Time 178560, Note Name: E2, Velocity: 66
Note OFF: Time 178580, Note Name: C#3
Note OFF: Time 178679, Note Name: E2
Note ON: Time 178680, Note Name: C#3, Velocity: 56
Note OFF: Time 178799, Note Name: C#3
Note ON: Time 178800, Note Name: F#2, Velocity: 61
Note OFF: Time 178919, Note Name: F#2
Note ON: Time 178920, Note Name: C#3, Velocity: 54
Note OFF: Time 179039, Note Name: C#3
Note ON: Time 179040, Note Name: D#2, Velocity: 66
Note ON: Time 179160, Note Name: B2, Velocity: 56
Note OFF: Time 179180, Note Name: D#2
Note ON: Time 179280, Note Name: F#2, Velocity: 62
Note OFF: Time 179300, Note Name: B2
Note ON: Time 179400, Note Name: B2, Velocity: 56
Note OFF: Time 179420, Note Name: F#2
Note ON: Time 179520, Note Name: D#2, Velocity: 66
Note OFF: Time 179540, Note Name: B2
Note ON: Time 179640, Note Name: B2, Velocity: 56
Note OFF: Time 179660, Note Name: D#2
Note ON: Time 179760, Note Name: F#2, Velocity: 61
Note OFF: Time 179780, Note Name: B2
Note ON: Time 179880, Note Name: B2, Velocity: 56
Note OFF: Time 179900, Note Name: F#2
Note ON: Time 180000, Note Name: D#2, Velocity: 66
Note OFF: Time 180020, Note Name: B2
Note ON: Time 180120, Note Name: B2, Velocity: 54
Note OFF: Time 180140, Note Name: D#2
Note ON: Time 180240, Note Name: F#2, Velocity: 60
Note OFF: Time 180260, Note Name: B2
Note ON: Time 180360, Note Name: B2, Velocity: 60
Note OFF: Time 180380, Note Name: F#2
Note ON: Time 180480, Note Name: D2, Velocity: 66
Note OFF: Time 180500, Note Name: B2
Note ON: Time 180600, Note Name: B2, Velocity: 56
Note OFF: Time 180620, Note Name: D2
Note ON: Time 180720, Note Name: E2, Velocity: 62
Note OFF: Time 180740, Note Name: B2
Note ON: Time 180840, Note Name: B2, Velocity: 54
Note OFF: Time 180860, Note Name: E2
Note ON: Time 180960, Note Name: D2, Velocity: 66
Note OFF: Time 180980, Note Name: B2
Note ON: Time 181080, Note Name: B2, Velocity: 56
Note OFF: Time 181100, Note Name: D2
Note ON: Time 181200, Note Name: E2, Velocity: 62
Note OFF: Time 181220, Note Name: B2
Note ON: Time 181320, Note Name: B2, Velocity: 56
Note OFF: Time 181340, Note Name: E2
Note ON: Time 181440, Note Name: C#2, Velocity: 66
Note OFF: Time 181460, Note Name: B2
Note ON: Time 181560, Note Name: A2, Velocity: 56
Note OFF: Time 181580, Note Name: C#2
Note ON: Time 181680, Note Name: E2, Velocity: 62
Note OFF: Time 181700, Note Name: A2
Note ON: Time 181800, Note Name: A2, Velocity: 56
Note OFF: Time 181820, Note Name: E2
Note ON: Time 181920, Note Name: C#2, Velocity: 66
Note OFF: Time 181940, Note Name: A2
Note ON: Time 182040, Note Name: A2, Velocity: 56
Note OFF: Time 182060, Note Name: C#2
Note ON: Time 182160, Note Name: E2, Velocity: 62
Note OFF: Time 182180, Note Name: A2
Note ON: Time 182280, Note Name: A2, Velocity: 56
Note OFF: Time 182300, Note Name: E2
Note ON: Time 182400, Note Name: C#2, Velocity: 66
Note OFF: Time 182420, Note Name: A2
Note OFF: Time 182519, Note Name: C#2
Note ON: Time 182520, Note Name: A#2, Velocity: 56
Note OFF: Time 182639, Note Name: A#2
Note ON: Time 182640, Note Name: D#2, Velocity: 60
Note OFF: Time 182759, Note Name: D#2
Note ON: Time 182760, Note Name: A#2, Velocity: 56
Note OFF: Time 182879, Note Name: A#2
Note ON: Time 182880, Note Name: B1, Velocity: 66
Note ON: Time 183000, Note Name: G#2, Velocity: 56
Note OFF: Time 183020, Note Name: B1
Note ON: Time 183120, Note Name: D#2, Velocity: 61
Note OFF: Time 183140, Note Name: G#2
Note ON: Time 183240, Note Name: G#2, Velocity: 56
Note OFF: Time 183260, Note Name: D#2
Note ON: Time 183360, Note Name: B1, Velocity: 66
Note OFF: Time 183380, Note Name: G#2
Note ON: Time 183480, Note Name: G#2, Velocity: 56
Note OFF: Time 183500, Note Name: B1
Note ON: Time 183600, Note Name: D#2, Velocity: 61
Note OFF: Time 183620, Note Name: G#2
Note ON: Time 183720, Note Name: G#2, Velocity: 54
Note OFF: Time 183740, Note Name: D#2
Note ON: Time 183840, Note Name: B1, Velocity: 66
Note OFF: Time 183860, Note Name: G#2
Note ON: Time 183960, Note Name: G#2, Velocity: 56
Note OFF: Time 183980, Note Name: B1
Note ON: Time 184080, Note Name: D#2, Velocity: 61
Note OFF: Time 184100, Note Name: G#2
Note ON: Time 184200, Note Name: G#2, Velocity: 54
Note OFF: Time 184220, Note Name: D#2
Note OFF: Time 184320, Note Name: G#2
Note ON: Time 184320, Note Name: A2, Velocity: 75
Note ON: Time 184320, Note Name: C#3, Velocity: 75
Note ON: Time 184320, Note Name: E2, Velocity: 64
Note ON: Time 184320, Note Name: C#2, Velocity: 64
Note OFF: Time 185760, Note Name: C#2
Note OFF: Time 185760, Note Name: A2
Note OFF: Time 185760, Note Name: C#3
Note OFF: Time 185760, Note Name: E2
Note ON: Time 186240, Note Name: E4, Velocity: 42
Note ON: Time 186240, Note Name: C#4, Velocity: 42
Note ON: Time 186240, Note Name: A4, Velocity: 50
Note OFF: Time 186716, Note Name: A4
Note OFF: Time 186720, Note Name: C#4
Note OFF: Time 186720, Note Name: E4
Note ON: Time 187200, Note Name: A4, Velocity: 49
Note ON: Time 187200, Note Name: E4, Velocity: 41
Note ON: Time 187200, Note Name: C#4, Velocity: 41
Note OFF: Time 187680, Note Name: C#4
Note OFF: Time 187680, Note Name: E4
Note OFF: Time 187680, Note Name: A4
Note ON: Time 188160, Note Name: A4, Velocity: 49
Note ON: Time 188160, Note Name: E4, Velocity: 41
Note ON: Time 188160, Note Name: C#4, Velocity: 41
Note OFF: Time 188640, Note Name: C#4
Note OFF: Time 188640, Note Name: E4
Note OFF: Time 188640, Note Name: A4
Note ON: Time 188640, Note Name: A4, Velocity: 52
Note ON: Time 188640, Note Name: E4, Velocity: 44
Note ON: Time 188640, Note Name: C#4, Velocity: 44
Note OFF: Time 189120, Note Name: C#4
Note OFF: Time 189120, Note Name: E4
Note OFF: Time 189120, Note Name: A4
Note ON: Time 189120, Note Name: A4, Velocity: 60
Note ON: Time 189120, Note Name: E4, Velocity: 51
Note ON: Time 189120, Note Name: C#4, Velocity: 51
Note OFF: Time 189600, Note Name: C#4
Note OFF: Time 189600, Note Name: E4
Note OFF: Time 189600, Note Name: A4
Note ON: Time 189600, Note Name: C#4, Velocity: 47
Note ON: Time 189600, Note Name: A4, Velocity: 56
Note ON: Time 189600, Note Name: E4, Velocity: 47
Note OFF: Time 190080, Note Name: E4
Note OFF: Time 190080, Note Name: A4
Note OFF: Time 190080, Note Name: C#4
Note ON: Time 190080, Note Name: D#4, Velocity: 49
Note OFF: Time 190200, Note Name: D#4
Note ON: Time 190200, Note Name: B4, Velocity: 43
Note OFF: Time 190320, Note Name: B4
Note ON: Time 190320, Note Name: G#4, Velocity: 49
Note OFF: Time 190440, Note Name: G#4
Note ON: Time 190440, Note Name: B4, Velocity: 49
Note OFF: Time 190560, Note Name: B4
Note ON: Time 190560, Note Name: D#4, Velocity: 51
Note OFF: Time 190680, Note Name: D#4
Note ON: Time 190680, Note Name: B4, Velocity: 44
Note OFF: Time 190800, Note Name: B4
Note ON: Time 190800, Note Name: G#4, Velocity: 47
Note OFF: Time 190920, Note Name: G#4
Note ON: Time 190920, Note Name: B4, Velocity: 43
Note OFF: Time 191040, Note Name: B4
Note ON: Time 191040, Note Name: D#4, Velocity: 51
Note OFF: Time 191160, Note Name: D#4
Note ON: Time 191160, Note Name: C#5, Velocity: 44
Note OFF: Time 191280, Note Name: C#5
Note ON: Time 191280, Note Name: G4, Velocity: 48
Note OFF: Time 191400, Note Name: G4
Note ON: Time 191400, Note Name: C#5, Velocity: 44
Note OFF: Time 191520, Note Name: C#5
Note ON: Time 191520, Note Name: D#4, Velocity: 51
Note OFF: Time 191640, Note Name: D#4
Note ON: Time 191640, Note Name: C#5, Velocity: 45
Note OFF: Time 191760, Note Name: C#5
Note ON: Time 191760, Note Name: G4, Velocity: 48
Note OFF: Time 191880, Note Name: G4
Note ON: Time 191880, Note Name: C#5, Velocity: 45
Note OFF: Time 192000, Note Name: C#5
Note ON: Time 192000, Note Name: B4, Velocity: 56
Note ON: Time 192000, Note Name: E4, Velocity: 47
Note ON: Time 192000, Note Name: G#4, Velocity: 56
Note OFF: Time 192240, Note Name: G#4
Note OFF: Time 192240, Note Name: E4
Note OFF: Time 192240, Note Name: B4
Note ON: Time 192480, Note Name: C#3, Velocity: 73
Note ON: Time 192480, Note Name: A2, Velocity: 73
Note ON: Time 192480, Note Name: E2, Velocity: 62
Note ON: Time 192480, Note Name: C#2, Velocity: 62
Note OFF: Time 193440, Note Name: C#2
Note OFF: Time 193440, Note Name: C#3
Note OFF: Time 193440, Note Name: A2
Note OFF: Time 193440, Note Name: E2
Note ON: Time 194400, Note Name: E3, Velocity: 41
Note ON: Time 194400, Note Name: C#3, Velocity: 41
Note ON: Time 194400, Note Name: A3, Velocity: 49
Note OFF: Time 194880, Note Name: A3
Note OFF: Time 194880, Note Name: C#3
Note OFF: Time 194880, Note Name: E3
Note ON: Time 195360, Note Name: E3, Velocity: 41
Note ON: Time 195360, Note Name: A3, Velocity: 49
Note ON: Time 195360, Note Name: C#3, Velocity: 41
Note OFF: Time 195840, Note Name: C#3
Note OFF: Time 195840, Note Name: A3
Note OFF: Time 195840, Note Name: E3
Note ON: Time 196080, Note Name: C#3, Velocity: 43
Note ON: Time 196080, Note Name: A3, Velocity: 51
Note ON: Time 196080, Note Name: E3, Velocity: 43
Note OFF: Time 196320, Note Name: E3
Note OFF: Time 196320, Note Name: A3
Note OFF: Time 196320, Note Name: C#3
Note ON: Time 196560, Note Name: C#3, Velocity: 51
Note ON: Time 196560, Note Name: A3, Velocity: 61
Note ON: Time 196560, Note Name: E3, Velocity: 51
Note OFF: Time 196800, Note Name: E3
Note OFF: Time 196800, Note Name: A3
Note OFF: Time 196800, Note Name: C#3
Note ON: Time 197040, Note Name: C#3, Velocity: 57
Note ON: Time 197040, Note Name: A3, Velocity: 68
Note ON: Time 197040, Note Name: E3, Velocity: 57
Note OFF: Time 197280, Note Name: E3
Note OFF: Time 197280, Note Name: A3
Note OFF: Time 197280, Note Name: C#3
Note ON: Time 197520, Note Name: A3, Velocity: 68
Note ON: Time 197520, Note Name: E3, Velocity: 57
Note ON: Time 197520, Note Name: C#3, Velocity: 57
Note OFF: Time 197760, Note Name: C#3
Note OFF: Time 197760, Note Name: E3
Note OFF: Time 197760, Note Name: A3
Note ON: Time 197760, Note Name: E3, Velocity: 56
Note ON: Time 197760, Note Name: C#3, Velocity: 56
Note ON: Time 197760, Note Name: A3, Velocity: 67
Note OFF: Time 198240, Note Name: A3
Note OFF: Time 198240, Note Name: C#3
Note OFF: Time 198240, Note Name: E3
Note ON: Time 199680, Note Name: C#3, Velocity: 70
Note OFF: Time 199799, Note Name: C#3
Note ON: Time 199800, Note Name: A3, Velocity: 61
Note OFF: Time 199919, Note Name: A3
Note ON: Time 199920, Note Name: E3, Velocity: 66
Note OFF: Time 200039, Note Name: E3
Note ON: Time 200040, Note Name: A3, Velocity: 62
Note OFF: Time 200159, Note Name: A3
Note ON: Time 200160, Note Name: C#3, Velocity: 70
Note OFF: Time 200279, Note Name: C#3
Note ON: Time 200280, Note Name: A3, Velocity: 61
Note OFF: Time 200399, Note Name: A3
Note ON: Time 200400, Note Name: E3, Velocity: 65
Note OFF: Time 200519, Note Name: E3
Note ON: Time 200520, Note Name: A3, Velocity: 62
Note OFF: Time 200639, Note Name: A3
Note ON: Time 200640, Note Name: D3, Velocity: 70
Note OFF: Time 200759, Note Name: D3
Note ON: Time 200760, Note Name: B3, Velocity: 61
Note OFF: Time 200879, Note Name: B3
Note ON: Time 200880, Note Name: F3, Velocity: 66
Note OFF: Time 200999, Note Name: F3
Note ON: Time 201000, Note Name: B3, Velocity: 62
Note OFF: Time 201119, Note Name: B3
Note ON: Time 201120, Note Name: D3, Velocity: 70
Note OFF: Time 201239, Note Name: D3
Note ON: Time 201240, Note Name: B3, Velocity: 59
Note OFF: Time 201359, Note Name: B3
Note ON: Time 201360, Note Name: F3, Velocity: 63
Note OFF: Time 201479, Note Name: F3
Note ON: Time 201480, Note Name: B3, Velocity: 61
Note OFF: Time 201599, Note Name: B3
Note ON: Time 201600, Note Name: D#3, Velocity: 70
Note OFF: Time 201719, Note Name: D#3
Note ON: Time 201720, Note Name: B3, Velocity: 61
Note OFF: Time 201839, Note Name: B3
Note ON: Time 201840, Note Name: G#3, Velocity: 66
Note OFF: Time 201959, Note Name: G#3
Note ON: Time 201960, Note Name: B3, Velocity: 62
Note OFF: Time 202079, Note Name: B3
Note ON: Time 202080, Note Name: D#3, Velocity: 70
Note OFF: Time 202199, Note Name: D#3
Note ON: Time 202200, Note Name: B3, Velocity: 62
Note OFF: Time 202319, Note Name: B3
Note ON: Time 202320, Note Name: G#3, Velocity: 66
Note OFF: Time 202439, Note Name: G#3
Note ON: Time 202440, Note Name: B3, Velocity: 61
Note OFF: Time 202559, Note Name: B3
Note ON: Time 202560, Note Name: D#2, Velocity: 70
Note OFF: Time 202679, Note Name: D#2
Note ON: Time 202680, Note Name: D#3, Velocity: 62
Note OFF: Time 202799, Note Name: D#3
Note ON: Time 202800, Note Name: D3, Velocity: 67
Note OFF: Time 202919, Note Name: D3
Note ON: Time 202920, Note Name: D#3, Velocity: 62
Note OFF: Time 203039, Note Name: D#3
Note ON: Time 203040, Note Name: D3, Velocity: 70
Note OFF: Time 203159, Note Name: D3
Note ON: Time 203160, Note Name: D#3, Velocity: 62
Note OFF: Time 203279, Note Name: D#3
Note ON: Time 203280, Note Name: D3, Velocity: 67
Note OFF: Time 203399, Note Name: D3
Note ON: Time 203400, Note Name: D#3, Velocity: 62
Note OFF: Time 203502, Note Name: D#3
Note ON: Time 203520, Note Name: G#2, Velocity: 71
Note OFF: Time 203760, Note Name: G#2
Note ON: Time 204000, Note Name: G#3, Velocity: 43
Note OFF: Time 204120, Note Name: G#3
Note ON: Time 204240, Note Name: G#3, Velocity: 43
Note OFF: Time 204360, Note Name: G#3
Note ON: Time 204480, Note Name: G#3, Velocity: 43
Note OFF: Time 204600, Note Name: G#3
Note ON: Time 204720, Note Name: G#3, Velocity: 43
Note OFF: Time 204840, Note Name: G#3
Note ON: Time 204960, Note Name: A#3, Velocity: 40
Note OFF: Time 205080, Note Name: A#3
Note ON: Time 205200, Note Name: B3, Velocity: 39
Note OFF: Time 205320, Note Name: B3
Note ON: Time 205440, Note Name: D#3, Velocity: 47
Note ON: Time 205440, Note Name: C#4, Velocity: 47
Note OFF: Time 205680, Note Name: C#4
Note OFF: Time 205680, Note Name: D#3
Note ON: Time 205680, Note Name: C#4, Velocity: 42
Note ON: Time 205680, Note Name: D#4, Velocity: 42
Note OFF: Time 205800, Note Name: D#4
Note OFF: Time 205800, Note Name: C#4
Note ON: Time 205920, Note Name: C#4, Velocity: 41
Note ON: Time 205920, Note Name: D#4, Velocity: 41
Note OFF: Time 206040, Note Name: D#4
Note OFF: Time 206040, Note Name: C#4
Note ON: Time 206160, Note Name: C#4, Velocity: 41
Note ON: Time 206160, Note Name: D#4, Velocity: 41
Note OFF: Time 206280, Note Name: D#4
Note OFF: Time 206280, Note Name: C#4
Note ON: Time 206400, Note Name: D#4, Velocity: 41
Note ON: Time 206400, Note Name: C#4, Velocity: 41
Note OFF: Time 206520, Note Name: C#4
Note OFF: Time 206520, Note Name: D#4
Note ON: Time 206640, Note Name: D#4, Velocity: 41
Note ON: Time 206640, Note Name: C#4, Velocity: 41
Note OFF: Time 206760, Note Name: C#4
Note OFF: Time 206760, Note Name: D#4
Note ON: Time 206880, Note Name: D#4, Velocity: 41
Note ON: Time 206880, Note Name: B3, Velocity: 41
Note OFF: Time 207000, Note Name: B3
Note OFF: Time 207000, Note Name: D#4
Note ON: Time 207120, Note Name: A#3, Velocity: 43
Note ON: Time 207120, Note Name: D#4, Velocity: 43
Note OFF: Time 207240, Note Name: D#4
Note OFF: Time 207240, Note Name: A#3
Note ON: Time 207360, Note Name: G#3, Velocity: 47
Note ON: Time 207360, Note Name: G#2, Velocity: 47
Note OFF: Time 207600, Note Name: G#2
Note OFF: Time 207600, Note Name: G#3
Note ON: Time 207600, Note Name: G#3, Velocity: 42
Note OFF: Time 207720, Note Name: G#3
Note ON: Time 207840, Note Name: G#3, Velocity: 42
Note OFF: Time 207960, Note Name: G#3
Note ON: Time 208080, Note Name: G#3, Velocity: 42
Note OFF: Time 208200, Note Name: G#3
Note ON: Time 208320, Note Name: G#3, Velocity: 43
Note OFF: Time 208440, Note Name: G#3
Note ON: Time 208560, Note Name: G#3, Velocity: 42
Note OFF: Time 208680, Note Name: G#3
Note ON: Time 208800, Note Name: A#3, Velocity: 41
Note OFF: Time 208920, Note Name: A#3
Note ON: Time 209040, Note Name: B3, Velocity: 39
Note OFF: Time 209160, Note Name: B3
Note ON: Time 209280, Note Name: D#3, Velocity: 47
Note ON: Time 209280, Note Name: C#4, Velocity: 47
Note OFF: Time 209520, Note Name: C#4
Note OFF: Time 209520, Note Name: D#3
Note ON: Time 209520, Note Name: C#4, Velocity: 41
Note ON: Time 209520, Note Name: D#4, Velocity: 41
Note OFF: Time 209640, Note Name: D#4
Note OFF: Time 209640, Note Name: C#4
Note ON: Time 209760, Note Name: D#4, Velocity: 43
Note ON: Time 209760, Note Name: C#4, Velocity: 43
Note OFF: Time 209880, Note Name: C#4
Note OFF: Time 209880, Note Name: D#4
Note ON: Time 210000, Note Name: C#4, Velocity: 42
Note ON: Time 210000, Note Name: D#4, Velocity: 42
Note OFF: Time 210120, Note Name: D#4
Note OFF: Time 210120, Note Name: C#4
Note ON: Time 210240, Note Name: C#4, Velocity: 42
Note ON: Time 210240, Note Name: D#4, Velocity: 42
Note OFF: Time 210360, Note Name: D#4
Note OFF: Time 210360, Note Name: C#4
Note ON: Time 210480, Note Name: D#4, Velocity: 42
Note ON: Time 210480, Note Name: C#4, Velocity: 42
Note OFF: Time 210600, Note Name: C#4
Note OFF: Time 210600, Note Name: D#4
Note ON: Time 210720, Note Name: D#4, Velocity: 43
Note ON: Time 210720, Note Name: B3, Velocity: 43
Note OFF: Time 210840, Note Name: B3
Note OFF: Time 210840, Note Name: D#4
Note ON: Time 210960, Note Name: D#4, Velocity: 45
Note ON: Time 210960, Note Name: A#3, Velocity: 45
Note OFF: Time 211080, Note Name: A#3
Note OFF: Time 211080, Note Name: D#4
Note ON: Time 211200, Note Name: G#2, Velocity: 48
Note OFF: Time 211320, Note Name: G#2
Note ON: Time 211440, Note Name: B3, Velocity: 39
Note ON: Time 211440, Note Name: G#3, Velocity: 39
Note OFF: Time 211560, Note Name: G#3
Note OFF: Time 211560, Note Name: B3
Note ON: Time 211680, Note Name: G#3, Velocity: 39
Note ON: Time 211680, Note Name: B3, Velocity: 39
Note OFF: Time 211920, Note Name: B3
Note OFF: Time 211920, Note Name: G#3
Note ON: Time 211920, Note Name: B3, Velocity: 39
Note ON: Time 211920, Note Name: D#4, Velocity: 39
Note OFF: Time 212160, Note Name: D#4
Note OFF: Time 212160, Note Name: B3
Note ON: Time 212160, Note Name: C#3, Velocity: 47
Note OFF: Time 212280, Note Name: C#3
Note ON: Time 212400, Note Name: G#3, Velocity: 43
Note ON: Time 212400, Note Name: C#4, Velocity: 43
Note OFF: Time 212520, Note Name: C#4
Note OFF: Time 212520, Note Name: G#3
Note ON: Time 212640, Note Name: C#4, Velocity: 43
Note ON: Time 212640, Note Name: G#3, Velocity: 43
Note OFF: Time 212880, Note Name: G#3
Note OFF: Time 212880, Note Name: C#4
Note ON: Time 212880, Note Name: C#4, Velocity: 41
Note ON: Time 212880, Note Name: E4, Velocity: 41
Note OFF: Time 213120, Note Name: E4
Note OFF: Time 213120, Note Name: C#4
Note ON: Time 213120, Note Name: D#3, Velocity: 47
Note OFF: Time 213240, Note Name: D#3
Note ON: Time 213360, Note Name: B3, Velocity: 41
Note ON: Time 213360, Note Name: G#3, Velocity: 41
Note OFF: Time 213480, Note Name: G#3
Note OFF: Time 213480, Note Name: B3
Note ON: Time 213600, Note Name: G#3, Velocity: 42
Note ON: Time 213600, Note Name: B3, Velocity: 42
Note OFF: Time 213840, Note Name: B3
Note OFF: Time 213840, Note Name: G#3
Note ON: Time 213840, Note Name: D#4, Velocity: 42
Note ON: Time 213840, Note Name: B3, Velocity: 42
Note OFF: Time 214080, Note Name: B3
Note OFF: Time 214080, Note Name: D#4
Note ON: Time 214080, Note Name: D#3, Velocity: 47
Note OFF: Time 214200, Note Name: D#3
Note ON: Time 214320, Note Name: G3, Velocity: 39
Note ON: Time 214320, Note Name: A#3, Velocity: 39
Note OFF: Time 214440, Note Name: A#3
Note OFF: Time 214440, Note Name: G3
Note ON: Time 214560, Note Name: A#3, Velocity: 39
Note ON: Time 214560, Note Name: G3, Velocity: 39
Note OFF: Time 214800, Note Name: G3
Note OFF: Time 214800, Note Name: A#3
Note ON: Time 214800, Note Name: A#3, Velocity: 39
Note ON: Time 214800, Note Name: D#4, Velocity: 39
Note OFF: Time 215040, Note Name: D#4
Note OFF: Time 215040, Note Name: A#3
Note ON: Time 215040, Note Name: G#1, Velocity: 42
Note ON: Time 215040, Note Name: G#2, Velocity: 42
Note OFF: Time 215280, Note Name: G#2
Note OFF: Time 215280, Note Name: G#1
Note ON: Time 215280, Note Name: G#2, Velocity: 41
Note ON: Time 215280, Note Name: D#3, Velocity: 41
Note OFF: Time 215400, Note Name: D#3
Note OFF: Time 215400, Note Name: G#2
Note ON: Time 215520, Note Name: G#2, Velocity: 43
Note ON: Time 215520, Note Name: D#3, Velocity: 43
Note OFF: Time 215640, Note Name: D#3
Note OFF: Time 215640, Note Name: G#2
Note ON: Time 215760, Note Name: D#3, Velocity: 47
Note ON: Time 215760, Note Name: G#2, Velocity: 47
Note OFF: Time 215880, Note Name: G#2
Note OFF: Time 215880, Note Name: D#3
Note ON: Time 216000, Note Name: D#3, Velocity: 50
Note ON: Time 216000, Note Name: G#2, Velocity: 50
Note OFF: Time 216120, Note Name: G#2
Note OFF: Time 216120, Note Name: D#3
Note ON: Time 216240, Note Name: D#3, Velocity: 52
Note ON: Time 216240, Note Name: G#2, Velocity: 52
Note OFF: Time 216360, Note Name: G#2
Note OFF: Time 216360, Note Name: D#3
Note ON: Time 216480, Note Name: D#3, Velocity: 57
Note ON: Time 216480, Note Name: A#2, Velocity: 57
Note OFF: Time 216600, Note Name: A#2
Note OFF: Time 216600, Note Name: D#3
Note ON: Time 216720, Note Name: D#3, Velocity: 59
Note ON: Time 216720, Note Name: B2, Velocity: 59
Note OFF: Time 216840, Note Name: B2
Note OFF: Time 216840, Note Name: D#3
Note ON: Time 216960, Note Name: D#3, Velocity: 62
Note ON: Time 216960, Note Name: C#3, Velocity: 62
Note ON: Time 216960, Note Name: D#2, Velocity: 62
Note OFF: Time 217200, Note Name: D#2
Note OFF: Time 217200, Note Name: C#3
Note OFF: Time 217200, Note Name: D#3
Note ON: Time 217200, Note Name: C#4, Velocity: 62
Note ON: Time 217200, Note Name: D#3, Velocity: 62
Note OFF: Time 217320, Note Name: D#3
Note OFF: Time 217320, Note Name: C#4
Note ON: Time 217440, Note Name: D#3, Velocity: 66
Note ON: Time 217440, Note Name: C#4, Velocity: 66
Note OFF: Time 217560, Note Name: C#4
Note OFF: Time 217560, Note Name: D#3
Note ON: Time 217680, Note Name: C#4, Velocity: 62
Note ON: Time 217680, Note Name: D#3, Velocity: 62
Note OFF: Time 217800, Note Name: D#3
Note OFF: Time 217800, Note Name: C#4
Note ON: Time 217920, Note Name: C#4, Velocity: 66
Note ON: Time 217920, Note Name: D#3, Velocity: 66
Note OFF: Time 218040, Note Name: D#3
Note OFF: Time 218040, Note Name: C#4
Note ON: Time 218160, Note Name: C#4, Velocity: 62
Note ON: Time 218160, Note Name: D#3, Velocity: 62
Note OFF: Time 218280, Note Name: D#3
Note OFF: Time 218280, Note Name: C#4
Note ON: Time 218400, Note Name: D#3, Velocity: 66
Note ON: Time 218400, Note Name: B3, Velocity: 66
Note OFF: Time 218520, Note Name: B3
Note OFF: Time 218520, Note Name: D#3
Note ON: Time 218640, Note Name: D#3, Velocity: 62
Note ON: Time 218640, Note Name: A#3, Velocity: 62
Note OFF: Time 218760, Note Name: A#3
Note OFF: Time 218760, Note Name: D#3
Note ON: Time 218880, Note Name: G#2, Velocity: 67
Note ON: Time 218880, Note Name: G#1, Velocity: 67
Note OFF: Time 219120, Note Name: G#1
Note OFF: Time 219120, Note Name: G#2
Note ON: Time 219120, Note Name: D#3, Velocity: 41
Note ON: Time 219120, Note Name: G#2, Velocity: 41
Note OFF: Time 219240, Note Name: G#2
Note OFF: Time 219240, Note Name: D#3
Note ON: Time 219360, Note Name: D#3, Velocity: 44
Note ON: Time 219360, Note Name: G#2, Velocity: 44
Note OFF: Time 219480, Note Name: G#2
Note OFF: Time 219480, Note Name: D#3
Note ON: Time 219600, Note Name: G#2, Velocity: 48
Note ON: Time 219600, Note Name: D#3, Velocity: 48
Note OFF: Time 219720, Note Name: D#3
Note OFF: Time 219720, Note Name: G#2
Note ON: Time 219840, Note Name: G#2, Velocity: 51
Note ON: Time 219840, Note Name: D#3, Velocity: 51
Note OFF: Time 219960, Note Name: D#3
Note OFF: Time 219960, Note Name: G#2
Note ON: Time 220080, Note Name: G#2, Velocity: 56
Note ON: Time 220080, Note Name: D#3, Velocity: 56
Note OFF: Time 220200, Note Name: D#3
Note OFF: Time 220200, Note Name: G#2
Note ON: Time 220320, Note Name: D#3, Velocity: 58
Note ON: Time 220320, Note Name: A#2, Velocity: 58
Note OFF: Time 220440, Note Name: A#2
Note OFF: Time 220440, Note Name: D#3
Note ON: Time 220560, Note Name: B2, Velocity: 62
Note ON: Time 220560, Note Name: D#3, Velocity: 62
Note OFF: Time 220680, Note Name: D#3
Note OFF: Time 220680, Note Name: B2
Note ON: Time 220800, Note Name: C#3, Velocity: 66
Note ON: Time 220800, Note Name: D#2, Velocity: 66
Note ON: Time 220800, Note Name: D#3, Velocity: 66
Note OFF: Time 221040, Note Name: D#3
Note OFF: Time 221040, Note Name: D#2
Note OFF: Time 221040, Note Name: C#3
Note ON: Time 221040, Note Name: D#3, Velocity: 62
Note ON: Time 221040, Note Name: C#4, Velocity: 62
Note OFF: Time 221160, Note Name: C#4
Note OFF: Time 221160, Note Name: D#3
Note ON: Time 221280, Note Name: D#3, Velocity: 67
Note ON: Time 221280, Note Name: C#4, Velocity: 67
Note OFF: Time 221400, Note Name: C#4
Note OFF: Time 221400, Note Name: D#3
Note ON: Time 221520, Note Name: D#3, Velocity: 62
Note ON: Time 221520, Note Name: C#4, Velocity: 62
Note OFF: Time 221640, Note Name: C#4
Note OFF: Time 221640, Note Name: D#3
Note ON: Time 221760, Note Name: C#4, Velocity: 67
Note ON: Time 221760, Note Name: D#3, Velocity: 67
Note OFF: Time 221880, Note Name: D#3
Note OFF: Time 221880, Note Name: C#4
Note ON: Time 222000, Note Name: D#3, Velocity: 62
Note ON: Time 222000, Note Name: C#4, Velocity: 62
Note OFF: Time 222120, Note Name: C#4
Note OFF: Time 222120, Note Name: D#3
Note ON: Time 222240, Note Name: B3, Velocity: 67
Note ON: Time 222240, Note Name: D#3, Velocity: 67
Note OFF: Time 222360, Note Name: D#3
Note OFF: Time 222360, Note Name: B3
Note ON: Time 222480, Note Name: D#3, Velocity: 62
Note ON: Time 222480, Note Name: A#3, Velocity: 62
Note OFF: Time 222600, Note Name: A#3
Note OFF: Time 222600, Note Name: D#3
Note ON: Time 222720, Note Name: G#2, Velocity: 68
Note ON: Time 222720, Note Name: G#3, Velocity: 68
Note OFF: Time 222960, Note Name: G#3
Note OFF: Time 222960, Note Name: G#2
Note ON: Time 222960, Note Name: B3, Velocity: 43
Note ON: Time 222960, Note Name: D#4, Velocity: 43
Note OFF: Time 223080, Note Name: D#4
Note OFF: Time 223080, Note Name: B3
Note ON: Time 223200, Note Name: D#4, Velocity: 41
Note ON: Time 223200, Note Name: B3, Velocity: 41
Note OFF: Time 223440, Note Name: B3
Note OFF: Time 223440, Note Name: D#4
Note ON: Time 223440, Note Name: G#3, Velocity: 39
Note ON: Time 223440, Note Name: B3, Velocity: 39
Note OFF: Time 223680, Note Name: B3
Note OFF: Time 223680, Note Name: G#3
Note ON: Time 223680, Note Name: C#3, Velocity: 48
Note OFF: Time 223800, Note Name: C#3
Note ON: Time 223920, Note Name: E4, Velocity: 42
Note ON: Time 223920, Note Name: C#4, Velocity: 42
Note OFF: Time 224040, Note Name: C#4
Note OFF: Time 224040, Note Name: E4
Note ON: Time 224160, Note Name: C#4, Velocity: 42
Note ON: Time 224160, Note Name: E4, Velocity: 42
Note OFF: Time 224400, Note Name: E4
Note OFF: Time 224400, Note Name: C#4
Note ON: Time 224400, Note Name: G#3, Velocity: 39
Note ON: Time 224400, Note Name: C#4, Velocity: 39
Note OFF: Time 224640, Note Name: C#4
Note OFF: Time 224640, Note Name: G#3
Note ON: Time 224640, Note Name: D#3, Velocity: 48
Note OFF: Time 224760, Note Name: D#3
Note ON: Time 224880, Note Name: D#4, Velocity: 42
Note ON: Time 224880, Note Name: B3, Velocity: 42
Note OFF: Time 225000, Note Name: B3
Note OFF: Time 225000, Note Name: D#4
Note ON: Time 225120, Note Name: D#4, Velocity: 42
Note ON: Time 225120, Note Name: B3, Velocity: 42
Note OFF: Time 225360, Note Name: B3
Note OFF: Time 225360, Note Name: D#4
Note ON: Time 225360, Note Name: B3, Velocity: 39
Note ON: Time 225360, Note Name: G#3, Velocity: 39
Note OFF: Time 225600, Note Name: G#3
Note OFF: Time 225600, Note Name: B3
Note ON: Time 225600, Note Name: C#3, Velocity: 49
Note OFF: Time 225720, Note Name: C#3
Note ON: Time 225840, Note Name: D#4, Velocity: 42
Note ON: Time 225840, Note Name: A#3, Velocity: 42
Note OFF: Time 225960, Note Name: A#3
Note OFF: Time 225960, Note Name: D#4
Note ON: Time 226080, Note Name: A#3, Velocity: 42
Note ON: Time 226080, Note Name: D#4, Velocity: 42
Note OFF: Time 226320, Note Name: D#4
Note OFF: Time 226320, Note Name: A#3
Note ON: Time 226320, Note Name: A#3, Velocity: 39
Note ON: Time 226320, Note Name: G3, Velocity: 39
Note OFF: Time 226560, Note Name: G3
Note OFF: Time 226560, Note Name: A#3
Note ON: Time 226560, Note Name: B2, Velocity: 45
Note OFF: Time 226800, Note Name: B2
Note ON: Time 226800, Note Name: D#4, Velocity: 39
Note ON: Time 226800, Note Name: G#4, Velocity: 39
Note OFF: Time 226920, Note Name: G#4
Note OFF: Time 226920, Note Name: D#4
Note ON: Time 227040, Note Name: G#4, Velocity: 41
Note ON: Time 227040, Note Name: D#4, Velocity: 41
Note OFF: Time 227280, Note Name: D#4
Note OFF: Time 227280, Note Name: G#4
Note ON: Time 227280, Note Name: D#4, Velocity: 41
Note ON: Time 227280, Note Name: B3, Velocity: 41
Note OFF: Time 227520, Note Name: B3
Note OFF: Time 227520, Note Name: D#4
Note ON: Time 227520, Note Name: C#3, Velocity: 50
Note OFF: Time 227760, Note Name: C#3
Note ON: Time 227760, Note Name: E4, Velocity: 47
Note ON: Time 227760, Note Name: A4, Velocity: 47
Note OFF: Time 227880, Note Name: A4
Note OFF: Time 227880, Note Name: E4
Note ON: Time 228000, Note Name: A4, Velocity: 45
Note ON: Time 228000, Note Name: E4, Velocity: 45
Note OFF: Time 228240, Note Name: E4
Note OFF: Time 228240, Note Name: A4
Note ON: Time 228240, Note Name: E4, Velocity: 45
Note ON: Time 228240, Note Name: C#4, Velocity: 45
Note OFF: Time 228480, Note Name: C#4
Note OFF: Time 228480, Note Name: E4
Note ON: Time 228480, Note Name: D#3, Velocity: 52
Note OFF: Time 228720, Note Name: D#3
Note ON: Time 228720, Note Name: G#4, Velocity: 48
Note ON: Time 228720, Note Name: D#4, Velocity: 48
Note OFF: Time 228840, Note Name: D#4
Note OFF: Time 228840, Note Name: G#4
Note ON: Time 228960, Note Name: G#4, Velocity: 48
Note ON: Time 228960, Note Name: D#4, Velocity: 48
Note OFF: Time 229200, Note Name: D#4
Note OFF: Time 229200, Note Name: G#4
Note ON: Time 229200, Note Name: D#4, Velocity: 45
Note ON: Time 229200, Note Name: B3, Velocity: 45
Note OFF: Time 229440, Note Name: B3
Note OFF: Time 229440, Note Name: D#4
Note ON: Time 229440, Note Name: D#3, Velocity: 51
Note OFF: Time 229680, Note Name: D#3
Note ON: Time 229680, Note Name: G4, Velocity: 43
Note ON: Time 229680, Note Name: C#4, Velocity: 43
Note OFF: Time 229800, Note Name: C#4
Note OFF: Time 229800, Note Name: G4
Note ON: Time 229920, Note Name: G4, Velocity: 43
Note ON: Time 229920, Note Name: C#4, Velocity: 43
Note OFF: Time 230160, Note Name: C#4
Note OFF: Time 230160, Note Name: G4
Note ON: Time 230160, Note Name: A#3, Velocity: 35
Note ON: Time 230160, Note Name: C#4, Velocity: 35
Note OFF: Time 230400, Note Name: C#4
Note OFF: Time 230400, Note Name: A#3
Note ON: Time 230400, Note Name: G#2, Velocity: 41
Note OFF: Time 230519, Note Name: G#2
Note ON: Time 230520, Note Name: G#3, Velocity: 32
Note OFF: Time 230639, Note Name: G#3
Note ON: Time 230640, Note Name: D#3, Velocity: 36
Note OFF: Time 230759, Note Name: D#3
Note ON: Time 230760, Note Name: G#3, Velocity: 33
Note OFF: Time 230879, Note Name: G#3
Note ON: Time 230880, Note Name: G#2, Velocity: 41
Note OFF: Time 230999, Note Name: G#2
Note ON: Time 231000, Note Name: G#3, Velocity: 33
Note OFF: Time 231119, Note Name: G#3
Note ON: Time 231120, Note Name: D#3, Velocity: 36
Note OFF: Time 231239, Note Name: D#3
Note ON: Time 231240, Note Name: G#3, Velocity: 33
Note OFF: Time 231359, Note Name: G#3
Note ON: Time 231360, Note Name: G#2, Velocity: 41
Note OFF: Time 231479, Note Name: G#2
Note ON: Time 231480, Note Name: G#3, Velocity: 33
Note OFF: Time 231599, Note Name: G#3
Note ON: Time 231600, Note Name: D#3, Velocity: 37
Note OFF: Time 231719, Note Name: D#3
Note ON: Time 231720, Note Name: G#3, Velocity: 33
Note OFF: Time 231839, Note Name: G#3
Note ON: Time 231840, Note Name: G#2, Velocity: 41
Note OFF: Time 231959, Note Name: G#2
Note ON: Time 231960, Note Name: G#3, Velocity: 33
Note OFF: Time 232079, Note Name: G#3
Note ON: Time 232080, Note Name: D#3, Velocity: 37
Note OFF: Time 232199, Note Name: D#3
Note ON: Time 232200, Note Name: G#3, Velocity: 33
Note OFF: Time 232319, Note Name: G#3
Note ON: Time 232320, Note Name: G#2, Velocity: 41
Note OFF: Time 232439, Note Name: G#2
Note ON: Time 232440, Note Name: A#3, Velocity: 33
Note OFF: Time 232559, Note Name: A#3
Note ON: Time 232560, Note Name: D#3, Velocity: 38
Note OFF: Time 232679, Note Name: D#3
Note ON: Time 232680, Note Name: A#3, Velocity: 33
Note OFF: Time 232799, Note Name: A#3
Note ON: Time 232800, Note Name: G#2, Velocity: 41
Note OFF: Time 232919, Note Name: G#2
Note ON: Time 232920, Note Name: A#3, Velocity: 33
Note OFF: Time 233039, Note Name: A#3
Note ON: Time 233040, Note Name: D#3, Velocity: 37
Note OFF: Time 233159, Note Name: D#3
Note ON: Time 233160, Note Name: A#3, Velocity: 34
Note OFF: Time 233279, Note Name: A#3
Note ON: Time 233280, Note Name: G#2, Velocity: 41
Note OFF: Time 233399, Note Name: G#2
Note ON: Time 233400, Note Name: A#3, Velocity: 34
Note OFF: Time 233519, Note Name: A#3
Note ON: Time 233520, Note Name: D#3, Velocity: 38
Note OFF: Time 233639, Note Name: D#3
Note ON: Time 233640, Note Name: A#3, Velocity: 33
Note OFF: Time 233759, Note Name: A#3
Note ON: Time 233760, Note Name: G#2, Velocity: 41
Note OFF: Time 233879, Note Name: G#2
Note ON: Time 233880, Note Name: A#3, Velocity: 33
Note OFF: Time 233999, Note Name: A#3
Note ON: Time 234000, Note Name: D#3, Velocity: 36
Note OFF: Time 234119, Note Name: D#3
Note ON: Time 234120, Note Name: A#3, Velocity: 33
Note OFF: Time 234239, Note Name: A#3
Note ON: Time 234240, Note Name: G#2, Velocity: 41
Note OFF: Time 234359, Note Name: G#2
Note ON: Time 234360, Note Name: G#3, Velocity: 32
Note OFF: Time 234479, Note Name: G#3
Note ON: Time 234480, Note Name: D#3, Velocity: 37
Note OFF: Time 234599, Note Name: D#3
Note ON: Time 234600, Note Name: G#3, Velocity: 32
Note OFF: Time 234719, Note Name: G#3
Note ON: Time 234720, Note Name: G#2, Velocity: 41
Note OFF: Time 234839, Note Name: G#2
Note ON: Time 234840, Note Name: G#3, Velocity: 33
Note OFF: Time 234959, Note Name: G#3
Note ON: Time 234960, Note Name: D#3, Velocity: 38
Note OFF: Time 235079, Note Name: D#3
Note ON: Time 235080, Note Name: G#3, Velocity: 34
Note OFF: Time 235199, Note Name: G#3
Note ON: Time 235200, Note Name: G#2, Velocity: 41
Note OFF: Time 235319, Note Name: G#2
Note ON: Time 235320, Note Name: G#3, Velocity: 34
Note OFF: Time 235439, Note Name: G#3
Note ON: Time 235440, Note Name: D#3, Velocity: 38
Note OFF: Time 235559, Note Name: D#3
Note ON: Time 235560, Note Name: G#3, Velocity: 33
Note OFF: Time 235679, Note Name: G#3
Note ON: Time 235680, Note Name: G#2, Velocity: 41
Note OFF: Time 235799, Note Name: G#2
Note ON: Time 235800, Note Name: G#3, Velocity: 33
Note OFF: Time 235919, Note Name: G#3
Note ON: Time 235920, Note Name: D#3, Velocity: 36
Note OFF: Time 236039, Note Name: D#3
Note ON: Time 236040, Note Name: G#3, Velocity: 34
Note OFF: Time 236159, Note Name: G#3
Note ON: Time 236160, Note Name: G#2, Velocity: 41
Note OFF: Time 236279, Note Name: G#2
Note ON: Time 236280, Note Name: A#3, Velocity: 33
Note OFF: Time 236399, Note Name: A#3
Note ON: Time 236400, Note Name: D#3, Velocity: 36
Note OFF: Time 236519, Note Name: D#3
Note ON: Time 236520, Note Name: A#3, Velocity: 33
Note OFF: Time 236639, Note Name: A#3
Note ON: Time 236640, Note Name: G#2, Velocity: 41
Note OFF: Time 236759, Note Name: G#2
Note ON: Time 236760, Note Name: A#3, Velocity: 33
Note OFF: Time 236879, Note Name: A#3
Note ON: Time 236880, Note Name: D#3, Velocity: 36
Note OFF: Time 236999, Note Name: D#3
Note ON: Time 237000, Note Name: A#3, Velocity: 33
Note OFF: Time 237119, Note Name: A#3
Note ON: Time 237120, Note Name: G#2, Velocity: 41
Note OFF: Time 237239, Note Name: G#2
Note ON: Time 237240, Note Name: A#3, Velocity: 33
Note OFF: Time 237359, Note Name: A#3
Note ON: Time 237360, Note Name: D#3, Velocity: 36
Note OFF: Time 237479, Note Name: D#3
Note ON: Time 237480, Note Name: A#3, Velocity: 33
Note OFF: Time 237599, Note Name: A#3
Note ON: Time 237600, Note Name: G#2, Velocity: 41
Note OFF: Time 237719, Note Name: G#2
Note ON: Time 237720, Note Name: A#3, Velocity: 34
Note OFF: Time 237839, Note Name: A#3
Note ON: Time 237840, Note Name: D#3, Velocity: 39
Note OFF: Time 237959, Note Name: D#3
Note ON: Time 237960, Note Name: A#3, Velocity: 34
Note OFF: Time 238079, Note Name: A#3
Note ON: Time 238080, Note Name: G#2, Velocity: 41
Note OFF: Time 238199, Note Name: G#2
Note ON: Time 238200, Note Name: G#3, Velocity: 33
Note OFF: Time 238319, Note Name: G#3
Note ON: Time 238320, Note Name: D#3, Velocity: 36
Note OFF: Time 238439, Note Name: D#3
Note ON: Time 238440, Note Name: G#3, Velocity: 33
Note OFF: Time 238559, Note Name: G#3
Note ON: Time 238560, Note Name: G#2, Velocity: 42
Note OFF: Time 238679, Note Name: G#2
Note ON: Time 238680, Note Name: G#3, Velocity: 33
Note OFF: Time 238799, Note Name: G#3
Note ON: Time 238800, Note Name: D#3, Velocity: 35
Note OFF: Time 238919, Note Name: D#3
Note ON: Time 238920, Note Name: G#3, Velocity: 33
Note OFF: Time 239039, Note Name: G#3
Note ON: Time 239040, Note Name: G#2, Velocity: 41
Note OFF: Time 239159, Note Name: G#2
Note ON: Time 239160, Note Name: A#3, Velocity: 34
Note OFF: Time 239279, Note Name: A#3
Note ON: Time 239280, Note Name: D#3, Velocity: 37
Note OFF: Time 239399, Note Name: D#3
Note ON: Time 239400, Note Name: A#3, Velocity: 34
Note OFF: Time 239519, Note Name: A#3
Note ON: Time 239520, Note Name: G#2, Velocity: 41
Note OFF: Time 239639, Note Name: G#2
Note ON: Time 239640, Note Name: A#3, Velocity: 33
Note OFF: Time 239759, Note Name: A#3
Note ON: Time 239760, Note Name: D#3, Velocity: 38
Note OFF: Time 239879, Note Name: D#3
Note ON: Time 239880, Note Name: A#3, Velocity: 33
Note OFF: Time 239999, Note Name: A#3
Note ON: Time 240000, Note Name: G#2, Velocity: 41
Note OFF: Time 240119, Note Name: G#2
Note ON: Time 240120, Note Name: G#3, Velocity: 33
Note OFF: Time 240239, Note Name: G#3
Note ON: Time 240240, Note Name: D#3, Velocity: 36
Note OFF: Time 240359, Note Name: D#3
Note ON: Time 240360, Note Name: G#3, Velocity: 33
Note OFF: Time 240479, Note Name: G#3
Note ON: Time 240480, Note Name: G#2, Velocity: 41
Note OFF: Time 240599, Note Name: G#2
Note ON: Time 240600, Note Name: G#3, Velocity: 34
Note OFF: Time 240719, Note Name: G#3
Note ON: Time 240720, Note Name: D#3, Velocity: 36
Note OFF: Time 240839, Note Name: D#3
Note ON: Time 240840, Note Name: G#3, Velocity: 33
Note OFF: Time 240959, Note Name: G#3
Note ON: Time 240960, Note Name: G#2, Velocity: 41
Note OFF: Time 241079, Note Name: G#2
Note ON: Time 241080, Note Name: A#3, Velocity: 34
Note OFF: Time 241199, Note Name: A#3
Note ON: Time 241200, Note Name: D#3, Velocity: 37
Note OFF: Time 241319, Note Name: D#3
Note ON: Time 241320, Note Name: A#3, Velocity: 34
Note OFF: Time 241439, Note Name: A#3
Note ON: Time 241440, Note Name: G#2, Velocity: 41
Note OFF: Time 241559, Note Name: G#2
Note ON: Time 241560, Note Name: A#3, Velocity: 34
Note OFF: Time 241679, Note Name: A#3
Note ON: Time 241680, Note Name: D#3, Velocity: 37
Note OFF: Time 241799, Note Name: D#3
Note ON: Time 241800, Note Name: A#3, Velocity: 34
Note OFF: Time 241919, Note Name: A#3
Note ON: Time 241920, Note Name: G#2, Velocity: 42
Note OFF: Time 242039, Note Name: G#2
Note ON: Time 242040, Note Name: G#3, Velocity: 41
Note OFF: Time 242159, Note Name: G#3
Note ON: Time 242160, Note Name: D#3, Velocity: 42
Note OFF: Time 242279, Note Name: D#3
Note ON: Time 242280, Note Name: G#3, Velocity: 39
Note OFF: Time 242399, Note Name: G#3
Note ON: Time 242400, Note Name: G#2, Velocity: 43
Note OFF: Time 242519, Note Name: G#2
Note ON: Time 242520, Note Name: G#3, Velocity: 44
Note OFF: Time 242639, Note Name: G#3
Note ON: Time 242640, Note Name: D#3, Velocity: 45
Note OFF: Time 242759, Note Name: D#3
Note ON: Time 242760, Note Name: G#3, Velocity: 42
Note OFF: Time 242879, Note Name: G#3
Note ON: Time 242880, Note Name: G#2, Velocity: 47
Note OFF: Time 242999, Note Name: G#2
Note ON: Time 243000, Note Name: G#3, Velocity: 48
Note OFF: Time 243119, Note Name: G#3
Note ON: Time 243120, Note Name: D#3, Velocity: 48
Note OFF: Time 243239, Note Name: D#3
Note ON: Time 243240, Note Name: G#3, Velocity: 44
Note OFF: Time 243359, Note Name: G#3
Note ON: Time 243360, Note Name: G#2, Velocity: 51
Note OFF: Time 243479, Note Name: G#2
Note ON: Time 243480, Note Name: G#3, Velocity: 51
Note OFF: Time 243599, Note Name: G#3
Note ON: Time 243600, Note Name: D#3, Velocity: 52
Note OFF: Time 243719, Note Name: D#3
Note ON: Time 243720, Note Name: G#3, Velocity: 47
Note OFF: Time 243839, Note Name: G#3
Note ON: Time 243840, Note Name: G#2, Velocity: 53
Note OFF: Time 243959, Note Name: G#2
Note ON: Time 243960, Note Name: F#3, Velocity: 56
Note OFF: Time 244079, Note Name: F#3
Note ON: Time 244080, Note Name: D#3, Velocity: 56
Note OFF: Time 244199, Note Name: D#3
Note ON: Time 244200, Note Name: F#3, Velocity: 52
Note OFF: Time 244319, Note Name: F#3
Note ON: Time 244320, Note Name: G#2, Velocity: 57
Note OFF: Time 244439, Note Name: G#2
Note ON: Time 244440, Note Name: F#3, Velocity: 58
Note OFF: Time 244559, Note Name: F#3
Note ON: Time 244560, Note Name: D#3, Velocity: 60
Note OFF: Time 244679, Note Name: D#3
Note ON: Time 244680, Note Name: F#3, Velocity: 57
Note OFF: Time 244799, Note Name: F#3
Note ON: Time 244800, Note Name: G#2, Velocity: 62
Note OFF: Time 244919, Note Name: G#2
Note ON: Time 244920, Note Name: F#3, Velocity: 62
Note OFF: Time 245039, Note Name: F#3
Note ON: Time 245040, Note Name: D#3, Velocity: 63
Note OFF: Time 245159, Note Name: D#3
Note ON: Time 245160, Note Name: F#3, Velocity: 59
Note OFF: Time 245279, Note Name: F#3
Note ON: Time 245280, Note Name: G#2, Velocity: 65
Note OFF: Time 245399, Note Name: G#2
Note ON: Time 245400, Note Name: F#3, Velocity: 67
Note OFF: Time 245519, Note Name: F#3
Note ON: Time 245520, Note Name: D#3, Velocity: 67
Note OFF: Time 245639, Note Name: D#3
Note ON: Time 245640, Note Name: F#3, Velocity: 60
Note OFF: Time 245759, Note Name: F#3
Note ON: Time 245760, Note Name: C#2, Velocity: 48
Note ON: Time 245760, Note Name: F3, Velocity: 57
Note ON: Time 245760, Note Name: G#3, Velocity: 57
Note OFF: Time 245880, Note Name: G#3
Note OFF: Time 245880, Note Name: F3
Note OFF: Time 245880, Note Name: C#2
Note ON: Time 246000, Note Name: G#2, Velocity: 34
Note OFF: Time 246120, Note Name: G#2
Note ON: Time 246240, Note Name: C#2, Velocity: 36
Note OFF: Time 246360, Note Name: C#2
Note ON: Time 246480, Note Name: G#2, Velocity: 34
Note OFF: Time 246600, Note Name: G#2
Note ON: Time 246720, Note Name: C#2, Velocity: 36
Note OFF: Time 246840, Note Name: C#2
Note ON: Time 246960, Note Name: G#2, Velocity: 34
Note OFF: Time 247080, Note Name: G#2
Note ON: Time 247200, Note Name: C#2, Velocity: 35
Note OFF: Time 247320, Note Name: C#2
Note ON: Time 247440, Note Name: G#2, Velocity: 33
Note OFF: Time 247560, Note Name: G#2
Note ON: Time 247680, Note Name: C#2, Velocity: 42
Note OFF: Time 247800, Note Name: C#2
Note ON: Time 247920, Note Name: G#2, Velocity: 39
Note OFF: Time 248040, Note Name: G#2
Note ON: Time 248160, Note Name: C#2, Velocity: 43
Note OFF: Time 248280, Note Name: C#2
Note ON: Time 248400, Note Name: G#2, Velocity: 39
Note OFF: Time 248520, Note Name: G#2
Note ON: Time 248640, Note Name: C#2, Velocity: 43
Note OFF: Time 248760, Note Name: C#2
Note ON: Time 248880, Note Name: G#2, Velocity: 39
Note OFF: Time 249000, Note Name: G#2
Note ON: Time 249120, Note Name: C#3, Velocity: 77
Note ON: Time 249120, Note Name: C#2, Velocity: 64
Note OFF: Time 249240, Note Name: C#2
Note OFF: Time 249240, Note Name: C#3
Note ON: Time 249360, Note Name: G#2, Velocity: 64
Note OFF: Time 249480, Note Name: G#2
Note ON: Time 249600, Note Name: B1, Velocity: 68
Note OFF: Time 249720, Note Name: B1
Note ON: Time 249840, Note Name: G#2, Velocity: 43
Note OFF: Time 249960, Note Name: G#2
Note ON: Time 250080, Note Name: B1, Velocity: 47
Note OFF: Time 250200, Note Name: B1
Note ON: Time 250320, Note Name: G#2, Velocity: 44
Note OFF: Time 250440, Note Name: G#2
Note ON: Time 250560, Note Name: B1, Velocity: 48
Note OFF: Time 250680, Note Name: B1
Note ON: Time 250800, Note Name: G#2, Velocity: 43
Note OFF: Time 250920, Note Name: G#2
Note ON: Time 251040, Note Name: B1, Velocity: 48
Note OFF: Time 251160, Note Name: B1
Note ON: Time 251280, Note Name: G#2, Velocity: 44
Note OFF: Time 251400, Note Name: G#2
Note ON: Time 251520, Note Name: B1, Velocity: 48
Note OFF: Time 251640, Note Name: B1
Note ON: Time 251760, Note Name: G#2, Velocity: 44
Note OFF: Time 251880, Note Name: G#2
Note ON: Time 252000, Note Name: B1, Velocity: 48
Note OFF: Time 252120, Note Name: B1
Note ON: Time 252240, Note Name: G#2, Velocity: 44
Note OFF: Time 252360, Note Name: G#2
Note ON: Time 252480, Note Name: B1, Velocity: 48
Note OFF: Time 252600, Note Name: B1
Note ON: Time 252720, Note Name: G#2, Velocity: 44
Note OFF: Time 252840, Note Name: G#2
Note ON: Time 252960, Note Name: B1, Velocity: 64
Note ON: Time 252960, Note Name: B2, Velocity: 77
Note OFF: Time 253080, Note Name: B2
Note OFF: Time 253080, Note Name: B1
Note ON: Time 253200, Note Name: G#2, Velocity: 64
Note OFF: Time 253320, Note Name: G#2
Note ON: Time 253440, Note Name: A1, Velocity: 68
Note OFF: Time 253560, Note Name: A1
Note ON: Time 253680, Note Name: A2, Velocity: 51
Note OFF: Time 253800, Note Name: A2
Note ON: Time 253920, Note Name: A1, Velocity: 55
Note OFF: Time 254040, Note Name: A1
Note ON: Time 254160, Note Name: A2, Velocity: 51
Note OFF: Time 254280, Note Name: A2
Note ON: Time 254400, Note Name: A1, Velocity: 55
Note OFF: Time 254520, Note Name: A1
Note ON: Time 254640, Note Name: A2, Velocity: 51
Note OFF: Time 254760, Note Name: A2
Note ON: Time 254880, Note Name: A1, Velocity: 83
Note OFF: Time 255000, Note Name: A1
Note ON: Time 255120, Note Name: A2, Velocity: 71
Note OFF: Time 255240, Note Name: A2
Note ON: Time 255360, Note Name: F1, Velocity: 56
Note OFF: Time 255480, Note Name: F1
Note ON: Time 255600, Note Name: F2, Velocity: 52
Note OFF: Time 255720, Note Name: F2
Note ON: Time 255840, Note Name: F1, Velocity: 53
Note OFF: Time 255960, Note Name: F1
Note ON: Time 256080, Note Name: F2, Velocity: 51
Note OFF: Time 256200, Note Name: F2
Note ON: Time 256320, Note Name: F1, Velocity: 53
Note OFF: Time 256440, Note Name: F1
Note ON: Time 256560, Note Name: F2, Velocity: 50
Note OFF: Time 256680, Note Name: F2
Note ON: Time 256800, Note Name: F1, Velocity: 83
Note OFF: Time 256920, Note Name: F1
Note ON: Time 257040, Note Name: F2, Velocity: 77
Note OFF: Time 257160, Note Name: F2
Note ON: Time 257280, Note Name: F#1, Velocity: 78
Note ON: Time 257280, Note Name: F#2, Velocity: 78
Note OFF: Time 257400, Note Name: F#2
Note OFF: Time 257400, Note Name: F#1
Note ON: Time 257400, Note Name: C#4, Velocity: 29
Note ON: Time 257520, Note Name: A3, Velocity: 34
Note OFF: Time 257540, Note Name: C#4
Note ON: Time 257640, Note Name: C#4, Velocity: 29
Note OFF: Time 257660, Note Name: A3
Note ON: Time 257760, Note Name: F#3, Velocity: 41
Note OFF: Time 257780, Note Name: C#4
Note OFF: Time 257879, Note Name: F#3
Note ON: Time 257880, Note Name: C#4, Velocity: 28
Note OFF: Time 257999, Note Name: C#4
Note ON: Time 258000, Note Name: A3, Velocity: 31
Note OFF: Time 258119, Note Name: A3
Note ON: Time 258120, Note Name: C#4, Velocity: 28
Note OFF: Time 258239, Note Name: C#4
Note ON: Time 258240, Note Name: F#3, Velocity: 38
Note OFF: Time 258359, Note Name: F#3
Note ON: Time 258360, Note Name: C#4, Velocity: 28
Note OFF: Time 258479, Note Name: C#4
Note ON: Time 258480, Note Name: A3, Velocity: 32
Note OFF: Time 258599, Note Name: A3
Note ON: Time 258600, Note Name: C#4, Velocity: 29
Note OFF: Time 258719, Note Name: C#4
Note ON: Time 258720, Note Name: F#3, Velocity: 38
Note OFF: Time 258839, Note Name: F#3
Note ON: Time 258840, Note Name: C#4, Velocity: 29
Note OFF: Time 258959, Note Name: C#4
Note ON: Time 258960, Note Name: A3, Velocity: 32
Note OFF: Time 259079, Note Name: A3
Note ON: Time 259080, Note Name: C#4, Velocity: 28
Note OFF: Time 259199, Note Name: C#4
Note ON: Time 259200, Note Name: G#3, Velocity: 37
Note ON: Time 259320, Note Name: C#4, Velocity: 28
Note OFF: Time 259340, Note Name: G#3
Note ON: Time 259440, Note Name: B3, Velocity: 31
Note OFF: Time 259460, Note Name: C#4
Note ON: Time 259560, Note Name: C#4, Velocity: 26
Note OFF: Time 259580, Note Name: B3
Note ON: Time 259680, Note Name: G#3, Velocity: 43
Note OFF: Time 259700, Note Name: C#4
Note OFF: Time 259799, Note Name: G#3
Note ON: Time 259800, Note Name: C#4, Velocity: 39
Note OFF: Time 259919, Note Name: C#4
Note ON: Time 259920, Note Name: B3, Velocity: 47
Note OFF: Time 260039, Note Name: B3
Note ON: Time 260040, Note Name: C#4, Velocity: 43
Note OFF: Time 260159, Note Name: C#4
Note ON: Time 260160, Note Name: G#3, Velocity: 55
Note OFF: Time 260279, Note Name: G#3
Note ON: Time 260280, Note Name: C#4, Velocity: 44
Note OFF: Time 260399, Note Name: C#4
Note ON: Time 260400, Note Name: B3, Velocity: 51
Note OFF: Time 260519, Note Name: B3
Note ON: Time 260520, Note Name: C#4, Velocity: 47
Note OFF: Time 260639, Note Name: C#4
Note ON: Time 260640, Note Name: G#3, Velocity: 62
Note OFF: Time 260759, Note Name: G#3
Note ON: Time 260760, Note Name: C#4, Velocity: 49
Note OFF: Time 260879, Note Name: C#4
Note ON: Time 260880, Note Name: B3, Velocity: 51
Note OFF: Time 260999, Note Name: B3
Note ON: Time 261000, Note Name: C#4, Velocity: 43
Note OFF: Time 261119, Note Name: C#4
Note ON: Time 261120, Note Name: A3, Velocity: 37
Note OFF: Time 261239, Note Name: A3
Note ON: Time 261240, Note Name: C#4, Velocity: 30
Note OFF: Time 261359, Note Name: C#4
Note ON: Time 261360, Note Name: A3, Velocity: 34
Note OFF: Time 261479, Note Name: A3
Note ON: Time 261480, Note Name: C#4, Velocity: 29
Note OFF: Time 261599, Note Name: C#4
Note ON: Time 261600, Note Name: A3, Velocity: 43
Note OFF: Time 261719, Note Name: A3
Note ON: Time 261720, Note Name: C#4, Velocity: 37
Note OFF: Time 261839, Note Name: C#4
Note ON: Time 261840, Note Name: A3, Velocity: 47
Note OFF: Time 261959, Note Name: A3
Note ON: Time 261960, Note Name: C#4, Velocity: 43
Note OFF: Time 262079, Note Name: C#4
Note ON: Time 262080, Note Name: A3, Velocity: 55
Note OFF: Time 262199, Note Name: A3
Note ON: Time 262200, Note Name: C#4, Velocity: 44
Note OFF: Time 262319, Note Name: C#4
Note ON: Time 262320, Note Name: A3, Velocity: 52
Note OFF: Time 262439, Note Name: A3
Note ON: Time 262440, Note Name: C#4, Velocity: 47
Note OFF: Time 262559, Note Name: C#4
Note ON: Time 262560, Note Name: A3, Velocity: 64
Note OFF: Time 262679, Note Name: A3
Note ON: Time 262680, Note Name: C#4, Velocity: 48
Note OFF: Time 262799, Note Name: C#4
Note ON: Time 262800, Note Name: A3, Velocity: 49
Note OFF: Time 262919, Note Name: A3
Note ON: Time 262920, Note Name: C#4, Velocity: 40
Note OFF: Time 263039, Note Name: C#4
Note ON: Time 263040, Note Name: F3, Velocity: 39
Note OFF: Time 263159, Note Name: F3
Note ON: Time 263160, Note Name: C#4, Velocity: 29
Note OFF: Time 263279, Note Name: C#4
Note ON: Time 263280, Note Name: F3, Velocity: 32
Note OFF: Time 263399, Note Name: F3
Note ON: Time 263400, Note Name: C#4, Velocity: 29
Note OFF: Time 263519, Note Name: C#4
Note ON: Time 263520, Note Name: F3, Velocity: 39
Note OFF: Time 263639, Note Name: F3
Note ON: Time 263640, Note Name: C#4, Velocity: 34
Note OFF: Time 263759, Note Name: C#4
Note ON: Time 263760, Note Name: F3, Velocity: 46
Note OFF: Time 263879, Note Name: F3
Note ON: Time 263880, Note Name: C#4, Velocity: 42
Note OFF: Time 263999, Note Name: C#4
Note ON: Time 264000, Note Name: F3, Velocity: 55
Note OFF: Time 264119, Note Name: F3
Note ON: Time 264120, Note Name: C#4, Velocity: 44
Note OFF: Time 264239, Note Name: C#4
Note ON: Time 264240, Note Name: F3, Velocity: 54
Note OFF: Time 264359, Note Name: F3
Note ON: Time 264360, Note Name: C#4, Velocity: 51
Note OFF: Time 264479, Note Name: C#4
Note ON: Time 264480, Note Name: F3, Velocity: 62
Note OFF: Time 264599, Note Name: F3
Note ON: Time 264600, Note Name: C#4, Velocity: 46
Note OFF: Time 264719, Note Name: C#4
Note ON: Time 264720, Note Name: F3, Velocity: 48
Note OFF: Time 264839, Note Name: F3
Note ON: Time 264840, Note Name: C#4, Velocity: 39
Note OFF: Time 264959, Note Name: C#4
Note ON: Time 264960, Note Name: F#3, Velocity: 41
Note OFF: Time 265200, Note Name: F#3
Note ON: Time 265440, Note Name: C#4, Velocity: 56
Note OFF: Time 266400, Note Name: C#4
Note ON: Time 266400, Note Name: A3, Velocity: 48
Note OFF: Time 266760, Note Name: A3
Note ON: Time 266760, Note Name: F#3, Velocity: 48
Note OFF: Time 266875, Note Name: F#3
Note ON: Time 266880, Note Name: F#3, Velocity: 54
Note OFF: Time 267360, Note Name: F#3
Note ON: Time 267360, Note Name: F3, Velocity: 47
Note OFF: Time 268080, Note Name: F3
Note ON: Time 268080, Note Name: F3, Velocity: 47
Note OFF: Time 268320, Note Name: F3
Note ON: Time 268320, Note Name: C#4, Velocity: 56
Note OFF: Time 268680, Note Name: C#4
Note ON: Time 268680, Note Name: F3, Velocity: 47
Note OFF: Time 268795, Note Name: F3
Note ON: Time 268800, Note Name: G#3, Velocity: 43
Note OFF: Time 269280, Note Name: G#3
Note ON: Time 269280, Note Name: F#3, Velocity: 47
Note OFF: Time 270000, Note Name: F#3
Note ON: Time 270000, Note Name: F#3, Velocity: 48
Note OFF: Time 270240, Note Name: F#3
Note ON: Time 270240, Note Name: C#4, Velocity: 53
Note OFF: Time 270600, Note Name: C#4
Note ON: Time 270600, Note Name: F#3, Velocity: 47
Note OFF: Time 270715, Note Name: F#3
Note ON: Time 270720, Note Name: F#3, Velocity: 54
Note OFF: Time 270840, Note Name: F#3
Note ON: Time 270960, Note Name: F#3, Velocity: 49
Note OFF: Time 271200, Note Name: F#3
Note ON: Time 271200, Note Name: D4, Velocity: 53
Note OFF: Time 271560, Note Name: D4
Note ON: Time 271560, Note Name: F#3, Velocity: 58
Note OFF: Time 271680, Note Name: F#3
Note ON: Time 271680, Note Name: F#3, Velocity: 58
Note OFF: Time 271800, Note Name: F#3
Note ON: Time 271920, Note Name: F#3, Velocity: 61
Note OFF: Time 272160, Note Name: F#3
Note ON: Time 272160, Note Name: D4, Velocity: 62
Note OFF: Time 272520, Note Name: D4
Note ON: Time 272520, Note Name: F#3, Velocity: 62
Note OFF: Time 272640, Note Name: F#3
Note ON: Time 272640, Note Name: G3, Velocity: 66
Note OFF: Time 272880, Note Name: G3
Note ON: Time 273120, Note Name: D3, Velocity: 48
Note OFF: Time 274080, Note Name: D3
Note ON: Time 274080, Note Name: B2, Velocity: 48
Note OFF: Time 274440, Note Name: B2
Note ON: Time 274440, Note Name: G2, Velocity: 48
Note OFF: Time 274560, Note Name: G2
Note ON: Time 274560, Note Name: G2, Velocity: 57
Note OFF: Time 275040, Note Name: G2
Note ON: Time 275040, Note Name: F#2, Velocity: 48
Note OFF: Time 275760, Note Name: F#2
Note ON: Time 275760, Note Name: F#2, Velocity: 48
Note OFF: Time 276000, Note Name: F#2
Note ON: Time 276000, Note Name: D3, Velocity: 60
Note OFF: Time 276360, Note Name: D3
Note ON: Time 276360, Note Name: F#2, Velocity: 47
Note OFF: Time 276480, Note Name: F#2
Note ON: Time 276480, Note Name: A2, Velocity: 66
Note OFF: Time 276960, Note Name: A2
Note ON: Time 276960, Note Name: G2, Velocity: 57
Note OFF: Time 277680, Note Name: G2
Note ON: Time 277680, Note Name: G2, Velocity: 59
Note OFF: Time 277920, Note Name: G2
Note ON: Time 277920, Note Name: D3, Velocity: 66
Note OFF: Time 278280, Note Name: D3
Note ON: Time 278280, Note Name: F#2, Velocity: 57
Note OFF: Time 278395, Note Name: F#2
Note ON: Time 278400, Note Name: F#2, Velocity: 73
Note OFF: Time 278880, Note Name: F#2
Note ON: Time 278880, Note Name: F2, Velocity: 62
Note OFF: Time 279600, Note Name: F2
Note ON: Time 279600, Note Name: F2, Velocity: 62
Note OFF: Time 279840, Note Name: F2
Note ON: Time 279840, Note Name: C#3, Velocity: 71
Note OFF: Time 280200, Note Name: C#3
Note ON: Time 280200, Note Name: F2, Velocity: 62
Note OFF: Time 280320, Note Name: F2
Note ON: Time 280320, Note Name: F#2, Velocity: 75
Note OFF: Time 280440, Note Name: F#2
Note ON: Time 280560, Note Name: F#2, Velocity: 67
Note OFF: Time 280800, Note Name: F#2
Note ON: Time 280800, Note Name: A2, Velocity: 67
Note OFF: Time 281040, Note Name: A2
Note ON: Time 281040, Note Name: F#2, Velocity: 61
Note OFF: Time 281280, Note Name: F#2
Note ON: Time 281280, Note Name: D2, Velocity: 75
Note OFF: Time 281400, Note Name: D2
Note ON: Time 281520, Note Name: D2, Velocity: 68
Note OFF: Time 281760, Note Name: D2
Note ON: Time 281760, Note Name: F#2, Velocity: 67
Note OFF: Time 282000, Note Name: F#2
Note ON: Time 282000, Note Name: D2, Velocity: 62
Note OFF: Time 282240, Note Name: D2
Note ON: Time 282240, Note Name: C2, Velocity: 76
Note OFF: Time 283320, Note Name: C2
Note ON: Time 283440, Note Name: C2, Velocity: 68
Note OFF: Time 283680, Note Name: C2
Note ON: Time 283680, Note Name: D#2, Velocity: 68
Note OFF: Time 283920, Note Name: D#2
Note ON: Time 283920, Note Name: C2, Velocity: 65
Note OFF: Time 284160, Note Name: C2
Note ON: Time 284160, Note Name: C#2, Velocity: 73
Note OFF: Time 284280, Note Name: C#2
Note ON: Time 284400, Note Name: C#2, Velocity: 68
Note OFF: Time 284640, Note Name: C#2
Note ON: Time 284640, Note Name: E2, Velocity: 68
Note OFF: Time 284880, Note Name: E2
Note ON: Time 284880, Note Name: C#2, Velocity: 65
Note OFF: Time 285120, Note Name: C#2
Note ON: Time 285120, Note Name: A1, Velocity: 76
Note OFF: Time 285240, Note Name: A1
Note ON: Time 285360, Note Name: A1, Velocity: 68
Note OFF: Time 285600, Note Name: A1
Note ON: Time 285600, Note Name: C#2, Velocity: 68
Note OFF: Time 285840, Note Name: C#2
Note ON: Time 285840, Note Name: A1, Velocity: 67
Note OFF: Time 286080, Note Name: A1
Note ON: Time 286080, Note Name: F#1, Velocity: 75
Note OFF: Time 286200, Note Name: F#1
Note ON: Time 286320, Note Name: F#1, Velocity: 68
Note OFF: Time 286560, Note Name: F#1
Note ON: Time 286560, Note Name: A1, Velocity: 68
Note OFF: Time 286800, Note Name: A1
Note ON: Time 286800, Note Name: F#1, Velocity: 67
Note OFF: Time 287040, Note Name: F#1
Note ON: Time 287040, Note Name: G1, Velocity: 77
Note OFF: Time 287160, Note Name: G1
Note ON: Time 287280, Note Name: G1, Velocity: 67
Note OFF: Time 287520, Note Name: G1
Note ON: Time 287520, Note Name: A#1, Velocity: 67
Note OFF: Time 287760, Note Name: A#1
Note ON: Time 287760, Note Name: G1, Velocity: 67
Note OFF: Time 288000, Note Name: G1
Note ON: Time 288000, Note Name: G#1, Velocity: 39
Note ON: Time 288120, Note Name: G#2, Velocity: 33
Note OFF: Time 288140, Note Name: G#1
Note ON: Time 288240, Note Name: G#1, Velocity: 39
Note OFF: Time 288260, Note Name: G#2
Note ON: Time 288360, Note Name: G#2, Velocity: 31
Note OFF: Time 288380, Note Name: G#1
Note ON: Time 288480, Note Name: G#1, Velocity: 39
Note OFF: Time 288500, Note Name: G#2
Note OFF: Time 288599, Note Name: G#1
Note ON: Time 288600, Note Name: G#2, Velocity: 32
Note OFF: Time 288719, Note Name: G#2
Note ON: Time 288720, Note Name: G#1, Velocity: 39
Note OFF: Time 288839, Note Name: G#1
Note ON: Time 288840, Note Name: G#2, Velocity: 32
Note OFF: Time 288959, Note Name: G#2
Note ON: Time 288960, Note Name: G#1, Velocity: 39
Note OFF: Time 289079, Note Name: G#1
Note ON: Time 289080, Note Name: G#2, Velocity: 34
Note OFF: Time 289199, Note Name: G#2
Note ON: Time 289200, Note Name: G#1, Velocity: 39
Note OFF: Time 289319, Note Name: G#1
Note ON: Time 289320, Note Name: G#2, Velocity: 34
Note OFF: Time 289439, Note Name: G#2
Note ON: Time 289440, Note Name: G#1, Velocity: 39
Note OFF: Time 289559, Note Name: G#1
Note ON: Time 289560, Note Name: G#2, Velocity: 32
Note OFF: Time 289679, Note Name: G#2
Note ON: Time 289680, Note Name: G#1, Velocity: 39
Note OFF: Time 289799, Note Name: G#1
Note ON: Time 289800, Note Name: G#2, Velocity: 34
Note OFF: Time 289919, Note Name: G#2
Note ON: Time 289920, Note Name: G#1, Velocity: 39
Note OFF: Time 290039, Note Name: G#1
Note ON: Time 290040, Note Name: G#2, Velocity: 33
Note OFF: Time 290159, Note Name: G#2
Note ON: Time 290160, Note Name: G#1, Velocity: 39
Note OFF: Time 290279, Note Name: G#1
Note ON: Time 290280, Note Name: G#2, Velocity: 32
Note OFF: Time 290399, Note Name: G#2
Note ON: Time 290400, Note Name: G#1, Velocity: 39
Note OFF: Time 290519, Note Name: G#1
Note ON: Time 290520, Note Name: G#2, Velocity: 33
Note OFF: Time 290639, Note Name: G#2
Note ON: Time 290640, Note Name: G#1, Velocity: 39
Note OFF: Time 290759, Note Name: G#1
Note ON: Time 290760, Note Name: G#2, Velocity: 33
Note OFF: Time 290879, Note Name: G#2
Note ON: Time 290880, Note Name: G#1, Velocity: 39
Note OFF: Time 290999, Note Name: G#1
Note ON: Time 291000, Note Name: G#2, Velocity: 33
Note OFF: Time 291119, Note Name: G#2
Note ON: Time 291120, Note Name: G#1, Velocity: 39
Note OFF: Time 291239, Note Name: G#1
Note ON: Time 291240, Note Name: G#2, Velocity: 34
Note OFF: Time 291359, Note Name: G#2
Note ON: Time 291360, Note Name: G#1, Velocity: 39
Note OFF: Time 291479, Note Name: G#1
Note ON: Time 291480, Note Name: G#2, Velocity: 33
Note OFF: Time 291599, Note Name: G#2
Note ON: Time 291600, Note Name: G#1, Velocity: 39
Note OFF: Time 291719, Note Name: G#1
Note ON: Time 291720, Note Name: G#2, Velocity: 32
Note OFF: Time 291839, Note Name: G#2
Note ON: Time 291840, Note Name: G#1, Velocity: 39
Note OFF: Time 291959, Note Name: G#1
Note ON: Time 291960, Note Name: G#2, Velocity: 33
Note OFF: Time 292079, Note Name: G#2
Note ON: Time 292080, Note Name: G#1, Velocity: 39
Note OFF: Time 292199, Note Name: G#1
Note ON: Time 292200, Note Name: G#2, Velocity: 33
Note OFF: Time 292319, Note Name: G#2
Note ON: Time 292320, Note Name: G#1, Velocity: 39
Note OFF: Time 292439, Note Name: G#1
Note ON: Time 292440, Note Name: G#2, Velocity: 33
Note OFF: Time 292559, Note Name: G#2
Note ON: Time 292560, Note Name: G#1, Velocity: 39
Note OFF: Time 292679, Note Name: G#1
Note ON: Time 292680, Note Name: G#2, Velocity: 33
Note OFF: Time 292799, Note Name: G#2
Note ON: Time 292800, Note Name: G#1, Velocity: 39
Note OFF: Time 292919, Note Name: G#1
Note ON: Time 292920, Note Name: G#2, Velocity: 33
Note OFF: Time 293039, Note Name: G#2
Note ON: Time 293040, Note Name: G#1, Velocity: 39
Note OFF: Time 293159, Note Name: G#1
Note ON: Time 293160, Note Name: G#2, Velocity: 33
Note OFF: Time 293279, Note Name: G#2
Note ON: Time 293280, Note Name: G#1, Velocity: 39
Note OFF: Time 293399, Note Name: G#1
Note ON: Time 293400, Note Name: G#2, Velocity: 33
Note OFF: Time 293519, Note Name: G#2
Note ON: Time 293520, Note Name: G#1, Velocity: 39
Note OFF: Time 293639, Note Name: G#1
Note ON: Time 293640, Note Name: G#2, Velocity: 34
Note OFF: Time 293759, Note Name: G#2
Note ON: Time 293760, Note Name: G#1, Velocity: 39
Note OFF: Time 293879, Note Name: G#1
Note ON: Time 293880, Note Name: G#2, Velocity: 34
Note OFF: Time 293999, Note Name: G#2
Note ON: Time 294000, Note Name: G#1, Velocity: 39
Note OFF: Time 294119, Note Name: G#1
Note ON: Time 294120, Note Name: G#2, Velocity: 33
Note OFF: Time 294239, Note Name: G#2
Note ON: Time 294240, Note Name: G#1, Velocity: 39
Note OFF: Time 294359, Note Name: G#1
Note ON: Time 294360, Note Name: G#2, Velocity: 34
Note OFF: Time 294479, Note Name: G#2
Note ON: Time 294480, Note Name: G#1, Velocity: 39
Note OFF: Time 294599, Note Name: G#1
Note ON: Time 294600, Note Name: G#2, Velocity: 34
Note OFF: Time 294719, Note Name: G#2
Note ON: Time 294720, Note Name: G#1, Velocity: 39
Note ON: Time 294840, Note Name: G#2, Velocity: 34
Note OFF: Time 294860, Note Name: G#1
Note ON: Time 294960, Note Name: G#1, Velocity: 39
Note OFF: Time 294980, Note Name: G#2
Note ON: Time 295080, Note Name: G#2, Velocity: 32
Note OFF: Time 295100, Note Name: G#1
Note ON: Time 295200, Note Name: G#1, Velocity: 37
Note OFF: Time 295220, Note Name: G#2
Note ON: Time 295320, Note Name: G#2, Velocity: 33
Note OFF: Time 295340, Note Name: G#1
Note ON: Time 295440, Note Name: G#1, Velocity: 37
Note OFF: Time 295460, Note Name: G#2
Note ON: Time 295560, Note Name: G#2, Velocity: 31
Note OFF: Time 295580, Note Name: G#1
Note ON: Time 295680, Note Name: G#1, Velocity: 37
Note OFF: Time 295700, Note Name: G#2
Note OFF: Time 295799, Note Name: G#1
Note ON: Time 295800, Note Name: G#2, Velocity: 33
Note OFF: Time 295919, Note Name: G#2
Note ON: Time 295920, Note Name: G#1, Velocity: 37
Note OFF: Time 296039, Note Name: G#1
Note ON: Time 296040, Note Name: G#2, Velocity: 32
Note OFF: Time 296159, Note Name: G#2
Note ON: Time 296160, Note Name: G#1, Velocity: 37
Note OFF: Time 296279, Note Name: G#1
Note ON: Time 296280, Note Name: G#2, Velocity: 32
Note OFF: Time 296399, Note Name: G#2
Note ON: Time 296400, Note Name: G#1, Velocity: 37
Note OFF: Time 296519, Note Name: G#1
Note ON: Time 296520, Note Name: G#2, Velocity: 33
Note OFF: Time 296639, Note Name: G#2
Note ON: Time 296640, Note Name: G#1, Velocity: 39
Note OFF: Time 296759, Note Name: G#1
Note ON: Time 296760, Note Name: G#2, Velocity: 34
Note OFF: Time 296879, Note Name: G#2
Note ON: Time 296880, Note Name: G#1, Velocity: 40
Note OFF: Time 296999, Note Name: G#1
Note ON: Time 297000, Note Name: G#2, Velocity: 34
Note OFF: Time 297119, Note Name: G#2
Note ON: Time 297120, Note Name: G#1, Velocity: 41
Note ON: Time 297240, Note Name: G#2, Velocity: 37
Note OFF: Time 297260, Note Name: G#1
Note ON: Time 297360, Note Name: G#1, Velocity: 41
Note OFF: Time 297380, Note Name: G#2
Note ON: Time 297480, Note Name: G#2, Velocity: 38
Note OFF: Time 297500, Note Name: G#1
Note ON: Time 297600, Note Name: G#1, Velocity: 43
Note OFF: Time 297620, Note Name: G#2
Note ON: Time 297720, Note Name: G#2, Velocity: 38
Note OFF: Time 297740, Note Name: G#1
Note ON: Time 297840, Note Name: G#1, Velocity: 44
Note OFF: Time 297860, Note Name: G#2
Note ON: Time 297960, Note Name: G#2, Velocity: 39
Note OFF: Time 297980, Note Name: G#1
Note ON: Time 298080, Note Name: G#1, Velocity: 45
Note OFF: Time 298100, Note Name: G#2
Note ON: Time 298200, Note Name: G#2, Velocity: 40
Note OFF: Time 298220, Note Name: G#1
Note ON: Time 298320, Note Name: G#1, Velocity: 46
Note OFF: Time 298340, Note Name: G#2
Note ON: Time 298440, Note Name: G#2, Velocity: 41
Note OFF: Time 298460, Note Name: G#1
Note ON: Time 298560, Note Name: G#1, Velocity: 47
Note OFF: Time 298580, Note Name: G#2
Note ON: Time 298680, Note Name: G#2, Velocity: 41
Note OFF: Time 298700, Note Name: G#1
Note ON: Time 298800, Note Name: G#1, Velocity: 48
Note OFF: Time 298820, Note Name: G#2
Note ON: Time 298920, Note Name: G#2, Velocity: 43
Note OFF: Time 298940, Note Name: G#1
Note ON: Time 299040, Note Name: G#1, Velocity: 49
Note OFF: Time 299060, Note Name: G#2
Note ON: Time 299160, Note Name: G#2, Velocity: 44
Note OFF: Time 299180, Note Name: G#1
Note ON: Time 299280, Note Name: G#1, Velocity: 50
Note OFF: Time 299300, Note Name: G#2
Note ON: Time 299400, Note Name: G#2, Velocity: 45
Note OFF: Time 299420, Note Name: G#1
Note ON: Time 299520, Note Name: G#1, Velocity: 51
Note OFF: Time 299540, Note Name: G#2
Note ON: Time 299640, Note Name: G#2, Velocity: 46
Note OFF: Time 299660, Note Name: G#1
Note ON: Time 299760, Note Name: G#1, Velocity: 51
Note OFF: Time 299780, Note Name: G#2
Note ON: Time 299880, Note Name: G#2, Velocity: 47
Note OFF: Time 299900, Note Name: G#1
Note ON: Time 300000, Note Name: G#1, Velocity: 53
Note OFF: Time 300020, Note Name: G#2
Note ON: Time 300120, Note Name: G#2, Velocity: 50
Note OFF: Time 300140, Note Name: G#1
Note ON: Time 300240, Note Name: G#1, Velocity: 54
Note OFF: Time 300260, Note Name: G#2
Note ON: Time 300360, Note Name: G#2, Velocity: 51
Note OFF: Time 300380, Note Name: G#1
Note ON: Time 300480, Note Name: G#1, Velocity: 54
Note OFF: Time 300500, Note Name: G#2
Note ON: Time 300600, Note Name: G#2, Velocity: 51
Note OFF: Time 300620, Note Name: G#1
Note ON: Time 300720, Note Name: G#1, Velocity: 49
Note OFF: Time 300740, Note Name: G#2
Note ON: Time 300840, Note Name: G#2, Velocity: 47
Note OFF: Time 300860, Note Name: G#1
Note ON: Time 300960, Note Name: G#1, Velocity: 44
Note OFF: Time 300980, Note Name: G#2
Note ON: Time 301080, Note Name: G#2, Velocity: 35
Note OFF: Time 301100, Note Name: G#1
Note ON: Time 301200, Note Name: G#1, Velocity: 39
Note OFF: Time 301220, Note Name: G#2
Note ON: Time 301320, Note Name: G#2, Velocity: 34
Note OFF: Time 301340, Note Name: G#1
Note ON: Time 301440, Note Name: G#1, Velocity: 39
Note OFF: Time 301460, Note Name: G#2
Note OFF: Time 301559, Note Name: G#1
Note ON: Time 301560, Note Name: G#2, Velocity: 33
Note OFF: Time 301679, Note Name: G#2
Note ON: Time 301680, Note Name: G#1, Velocity: 37
Note OFF: Time 301799, Note Name: G#1
Note ON: Time 301800, Note Name: G#2, Velocity: 35
Note OFF: Time 301919, Note Name: G#2
Note ON: Time 301920, Note Name: G#1, Velocity: 37
Note OFF: Time 302039, Note Name: G#1
Note ON: Time 302040, Note Name: G#2, Velocity: 32
Note OFF: Time 302159, Note Name: G#2
Note ON: Time 302160, Note Name: G#1, Velocity: 37
Note OFF: Time 302279, Note Name: G#1
Note ON: Time 302280, Note Name: G#2, Velocity: 33
Note OFF: Time 302399, Note Name: G#2
Note ON: Time 302400, Note Name: G#1, Velocity: 39
Note OFF: Time 302519, Note Name: G#1
Note ON: Time 302520, Note Name: G#2, Velocity: 34
Note OFF: Time 302639, Note Name: G#2
Note ON: Time 302640, Note Name: G#1, Velocity: 39
Note OFF: Time 302759, Note Name: G#1
Note ON: Time 302760, Note Name: G#2, Velocity: 35
Note OFF: Time 302879, Note Name: G#2
Note ON: Time 302880, Note Name: G#1, Velocity: 41
Note OFF: Time 302999, Note Name: G#1
Note ON: Time 303000, Note Name: G#2, Velocity: 39
Note OFF: Time 303119, Note Name: G#2
Note ON: Time 303120, Note Name: G#1, Velocity: 45
Note OFF: Time 303239, Note Name: G#1
Note ON: Time 303240, Note Name: G#2, Velocity: 41
Note OFF: Time 303359, Note Name: G#2
Note ON: Time 303360, Note Name: G#1, Velocity: 46
Note OFF: Time 303479, Note Name: G#1
Note ON: Time 303480, Note Name: G#2, Velocity: 42
Note OFF: Time 303599, Note Name: G#2
Note ON: Time 303600, Note Name: G#1, Velocity: 49
Note OFF: Time 303719, Note Name: G#1
Note ON: Time 303720, Note Name: G#2, Velocity: 44
Note OFF: Time 303839, Note Name: G#2
Note ON: Time 303840, Note Name: G#1, Velocity: 51
Note OFF: Time 303959, Note Name: G#1
Note ON: Time 303960, Note Name: G#2, Velocity: 45
Note OFF: Time 304079, Note Name: G#2
Note ON: Time 304080, Note Name: G#1, Velocity: 51
Note OFF: Time 304199, Note Name: G#1
Note ON: Time 304200, Note Name: G#2, Velocity: 44
Note OFF: Time 304319, Note Name: G#2
Note ON: Time 304320, Note Name: G#1, Velocity: 45
Note OFF: Time 304439, Note Name: G#1
Note ON: Time 304440, Note Name: G#2, Velocity: 41
Note OFF: Time 304559, Note Name: G#2
Note ON: Time 304560, Note Name: G#1, Velocity: 41
Note OFF: Time 304679, Note Name: G#1
Note ON: Time 304680, Note Name: G#2, Velocity: 37
Note OFF: Time 304799, Note Name: G#2
Note ON: Time 304800, Note Name: G#1, Velocity: 41
Note ON: Time 304920, Note Name: G#2, Velocity: 35
Note OFF: Time 304940, Note Name: G#1
Note ON: Time 305040, Note Name: G#1, Velocity: 39
Note OFF: Time 305060, Note Name: G#2
Note ON: Time 305160, Note Name: G#2, Velocity: 33
Note OFF: Time 305180, Note Name: G#1
Note ON: Time 305280, Note Name: G#1, Velocity: 37
Note OFF: Time 305300, Note Name: G#2
Note ON: Time 305400, Note Name: G#2, Velocity: 34
Note OFF: Time 305420, Note Name: G#1
Note ON: Time 305520, Note Name: G#1, Velocity: 37
Note OFF: Time 305540, Note Name: G#2
Note ON: Time 305640, Note Name: G#2, Velocity: 32
Note OFF: Time 305660, Note Name: G#1
Note ON: Time 305760, Note Name: G#1, Velocity: 37
Note OFF: Time 305780, Note Name: G#2
Note ON: Time 305880, Note Name: G#2, Velocity: 33
Note OFF: Time 305900, Note Name: G#1
Note ON: Time 306000, Note Name: G#1, Velocity: 37
Note OFF: Time 306020, Note Name: G#2
Note ON: Time 306120, Note Name: G#2, Velocity: 35
Note OFF: Time 306140, Note Name: G#1
Note ON: Time 306240, Note Name: G#1, Velocity: 35
Note OFF: Time 306260, Note Name: G#2
Note ON: Time 306360, Note Name: G#2, Velocity: 34
Note OFF: Time 306380, Note Name: G#1
Note ON: Time 306480, Note Name: G#1, Velocity: 41
Note OFF: Time 306500, Note Name: G#2
Note ON: Time 306600, Note Name: G#2, Velocity: 37
Note OFF: Time 306620, Note Name: G#1
Note ON: Time 306720, Note Name: G#1, Velocity: 43
Note OFF: Time 306740, Note Name: G#2
Note ON: Time 306840, Note Name: G#2, Velocity: 39
Note OFF: Time 306860, Note Name: G#1
Note ON: Time 306960, Note Name: G#1, Velocity: 47
Note OFF: Time 306980, Note Name: G#2
Note ON: Time 307080, Note Name: G#2, Velocity: 42
Note OFF: Time 307100, Note Name: G#1
Note ON: Time 307200, Note Name: G#1, Velocity: 47
Note OFF: Time 307220, Note Name: G#2
Note OFF: Time 307319, Note Name: G#1
Note ON: Time 307320, Note Name: G#2, Velocity: 43
Note OFF: Time 307439, Note Name: G#2
Note ON: Time 307440, Note Name: G#1, Velocity: 51
Note OFF: Time 307559, Note Name: G#1
Note ON: Time 307560, Note Name: G#2, Velocity: 47
Note OFF: Time 307679, Note Name: G#2
Note ON: Time 307680, Note Name: G#1, Velocity: 56
Note OFF: Time 307799, Note Name: G#1
Note ON: Time 307800, Note Name: G#2, Velocity: 48
Note OFF: Time 307919, Note Name: G#2
Note ON: Time 307920, Note Name: G#1, Velocity: 54
Note OFF: Time 308039, Note Name: G#1
Note ON: Time 308040, Note Name: G#2, Velocity: 47
Note OFF: Time 308159, Note Name: G#2
Note ON: Time 308160, Note Name: G#1, Velocity: 49
Note OFF: Time 308279, Note Name: G#1
Note ON: Time 308280, Note Name: G#2, Velocity: 45
Note OFF: Time 308399, Note Name: G#2
Note ON: Time 308400, Note Name: G#1, Velocity: 49
Note OFF: Time 308519, Note Name: G#1
Note ON: Time 308520, Note Name: G#2, Velocity: 41
Note OFF: Time 308639, Note Name: G#2
Note ON: Time 308640, Note Name: G#1, Velocity: 45
Note OFF: Time 308759, Note Name: G#1
Note ON: Time 308760, Note Name: G#2, Velocity: 39
Note OFF: Time 308879, Note Name: G#2
Note ON: Time 308880, Note Name: G#1, Velocity: 41
Note OFF: Time 308999, Note Name: G#1
Note ON: Time 309000, Note Name: G#2, Velocity: 35
Note OFF: Time 309119, Note Name: G#2
Note ON: Time 309120, Note Name: G#1, Velocity: 40
Note OFF: Time 309239, Note Name: G#1
Note ON: Time 309240, Note Name: G#2, Velocity: 34
Note OFF: Time 309359, Note Name: G#2
Note ON: Time 309360, Note Name: G#1, Velocity: 39
Note OFF: Time 309479, Note Name: G#1
Note ON: Time 309480, Note Name: G#2, Velocity: 34
Note OFF: Time 309599, Note Name: G#2
Note ON: Time 309600, Note Name: G#1, Velocity: 39
Note OFF: Time 309719, Note Name: G#1
Note ON: Time 309720, Note Name: G#2, Velocity: 34
Note OFF: Time 309839, Note Name: G#2
Note ON: Time 309840, Note Name: G#1, Velocity: 41
Note OFF: Time 309959, Note Name: G#1
Note ON: Time 309960, Note Name: G#2, Velocity: 39
Note OFF: Time 310079, Note Name: G#2
Note ON: Time 310080, Note Name: G#1, Velocity: 45
Note OFF: Time 310199, Note Name: G#1
Note ON: Time 310200, Note Name: G#2, Velocity: 39
Note OFF: Time 310319, Note Name: G#2
Note ON: Time 310320, Note Name: G#1, Velocity: 45
Note OFF: Time 310439, Note Name: G#1
Note ON: Time 310440, Note Name: G#2, Velocity: 40
Note OFF: Time 310559, Note Name: G#2
Note ON: Time 310560, Note Name: G#1, Velocity: 47
Note OFF: Time 310679, Note Name: G#1
Note ON: Time 310680, Note Name: G#2, Velocity: 43
Note OFF: Time 310799, Note Name: G#2
Note ON: Time 310800, Note Name: G#1, Velocity: 51
Note OFF: Time 310919, Note Name: G#1
Note ON: Time 310920, Note Name: G#2, Velocity: 45
Note OFF: Time 311039, Note Name: G#2
Note ON: Time 311040, Note Name: G#1, Velocity: 56
Note OFF: Time 311159, Note Name: G#1
Note ON: Time 311160, Note Name: G#2, Velocity: 51
Note OFF: Time 311279, Note Name: G#2
Note ON: Time 311280, Note Name: G#1, Velocity: 56
Note OFF: Time 311399, Note Name: G#1
Note ON: Time 311400, Note Name: G#2, Velocity: 49
Note OFF: Time 311519, Note Name: G#2
Note ON: Time 311520, Note Name: G#1, Velocity: 51
Note OFF: Time 311639, Note Name: G#1
Note ON: Time 311640, Note Name: G#2, Velocity: 43
Note OFF: Time 311759, Note Name: G#2
Note ON: Time 311760, Note Name: G#1, Velocity: 47
Note OFF: Time 311879, Note Name: G#1
Note ON: Time 311880, Note Name: G#2, Velocity: 40
Note OFF: Time 311999, Note Name: G#2
Note ON: Time 312000, Note Name: A1, Velocity: 44
Note OFF: Time 312119, Note Name: A1
Note ON: Time 312120, Note Name: A2, Velocity: 38
Note OFF: Time 312239, Note Name: A2
Note ON: Time 312240, Note Name: A1, Velocity: 41
Note OFF: Time 312359, Note Name: A1
Note ON: Time 312360, Note Name: A2, Velocity: 35
Note OFF: Time 312479, Note Name: A2
Note ON: Time 312480, Note Name: A1, Velocity: 39
Note OFF: Time 312599, Note Name: A1
Note ON: Time 312600, Note Name: A2, Velocity: 34
Note OFF: Time 312719, Note Name: A2
Note ON: Time 312720, Note Name: A1, Velocity: 39
Note OFF: Time 312839, Note Name: A1
Note ON: Time 312840, Note Name: A2, Velocity: 34
Note OFF: Time 312959, Note Name: A2
Note ON: Time 312960, Note Name: F#1, Velocity: 33
Note ON: Time 312960, Note Name: F#2, Velocity: 39
Note OFF: Time 314880, Note Name: F#2
Note OFF: Time 314880, Note Name: F#1
Note ON: Time 314880, Note Name: G#1, Velocity: 27
Note ON: Time 314880, Note Name: G#2, Velocity: 32
Note OFF: Time 316800, Note Name: G#2
Note OFF: Time 316800, Note Name: G#1
Note ON: Time 316800, Note Name: C#2, Velocity: 62
Note OFF: Time 316920, Note Name: C#2
Note ON: Time 317040, Note Name: G#2, Velocity: 40
Note OFF: Time 317160, Note Name: G#2
Note ON: Time 317280, Note Name: C#2, Velocity: 43
Note OFF: Time 317400, Note Name: C#2
Note ON: Time 317520, Note Name: G#2, Velocity: 39
Note OFF: Time 317640, Note Name: G#2
Note ON: Time 317760, Note Name: C#2, Velocity: 41
Note OFF: Time 317880, Note Name: C#2
Note ON: Time 318000, Note Name: G#2, Velocity: 39
Note OFF: Time 318120, Note Name: G#2
Note ON: Time 318240, Note Name: C#2, Velocity: 42
Note OFF: Time 318360, Note Name: C#2
Note ON: Time 318480, Note Name: G#2, Velocity: 39
Note OFF: Time 318600, Note Name: G#2
Note ON: Time 318720, Note Name: C#2, Velocity: 43
Note OFF: Time 318840, Note Name: C#2
Note ON: Time 318960, Note Name: G#2, Velocity: 40
Note OFF: Time 319080, Note Name: G#2
Note ON: Time 319200, Note Name: C#2, Velocity: 43
Note OFF: Time 319320, Note Name: C#2
Note ON: Time 319440, Note Name: G#2, Velocity: 40
Note OFF: Time 319560, Note Name: G#2
Note ON: Time 319680, Note Name: C#2, Velocity: 41
Note OFF: Time 319800, Note Name: C#2
Note ON: Time 319920, Note Name: G#2, Velocity: 38
Note OFF: Time 320040, Note Name: G#2
Note ON: Time 320160, Note Name: C#2, Velocity: 66
Note ON: Time 320160, Note Name: C#3, Velocity: 79
Note OFF: Time 320280, Note Name: C#3
Note OFF: Time 320280, Note Name: C#2
Note ON: Time 320400, Note Name: G#2, Velocity: 67
Note OFF: Time 320520, Note Name: G#2
Note ON: Time 320640, Note Name: C2, Velocity: 41
Note OFF: Time 320760, Note Name: C2
Note ON: Time 320880, Note Name: G#2, Velocity: 38
Note OFF: Time 321000, Note Name: G#2
Note ON: Time 321120, Note Name: C2, Velocity: 41
Note OFF: Time 321240, Note Name: C2
Note ON: Time 321360, Note Name: G#2, Velocity: 38
Note OFF: Time 321480, Note Name: G#2
Note ON: Time 321600, Note Name: C2, Velocity: 40
Note OFF: Time 321720, Note Name: C2
Note ON: Time 321840, Note Name: G#2, Velocity: 37
Note OFF: Time 321960, Note Name: G#2
Note ON: Time 322080, Note Name: C2, Velocity: 40
Note OFF: Time 322200, Note Name: C2
Note ON: Time 322320, Note Name: G#2, Velocity: 36
Note OFF: Time 322440, Note Name: G#2
Note ON: Time 322560, Note Name: C2, Velocity: 40
Note OFF: Time 322680, Note Name: C2
Note ON: Time 322800, Note Name: G#2, Velocity: 36
Note OFF: Time 322920, Note Name: G#2
Note ON: Time 323040, Note Name: C2, Velocity: 40
Note OFF: Time 323160, Note Name: C2
Note ON: Time 323280, Note Name: G#2, Velocity: 36
Note OFF: Time 323400, Note Name: G#2
Note ON: Time 323520, Note Name: C2, Velocity: 40
Note OFF: Time 323640, Note Name: C2
Note ON: Time 323760, Note Name: G#2, Velocity: 36
Note OFF: Time 323880, Note Name: G#2
Note ON: Time 324000, Note Name: C3, Velocity: 79
Note ON: Time 324000, Note Name: C2, Velocity: 66
Note OFF: Time 324120, Note Name: C2
Note OFF: Time 324120, Note Name: C3
Note ON: Time 324240, Note Name: G#2, Velocity: 65
Note OFF: Time 324360, Note Name: G#2
Note ON: Time 324480, Note Name: B1, Velocity: 55
Note OFF: Time 324600, Note Name: B1
Note ON: Time 324720, Note Name: G#2, Velocity: 51
Note OFF: Time 324840, Note Name: G#2
Note ON: Time 324960, Note Name: B1, Velocity: 56
Note OFF: Time 325080, Note Name: B1
Note ON: Time 325200, Note Name: G#2, Velocity: 52
Note OFF: Time 325320, Note Name: G#2
Note ON: Time 325440, Note Name: B1, Velocity: 56
Note OFF: Time 325560, Note Name: B1
Note ON: Time 325680, Note Name: G#2, Velocity: 52
Note OFF: Time 325800, Note Name: G#2
Note ON: Time 325920, Note Name: B1, Velocity: 56
Note OFF: Time 326040, Note Name: B1
Note ON: Time 326160, Note Name: G#2, Velocity: 51
Note OFF: Time 326280, Note Name: G#2
Note ON: Time 326400, Note Name: B1, Velocity: 56
Note OFF: Time 326520, Note Name: B1
Note ON: Time 326640, Note Name: G#2, Velocity: 51
Note OFF: Time 326760, Note Name: G#2
Note ON: Time 326880, Note Name: B1, Velocity: 56
Note OFF: Time 327000, Note Name: B1
Note ON: Time 327120, Note Name: G#2, Velocity: 52
Note OFF: Time 327240, Note Name: G#2
Note ON: Time 327360, Note Name: B1, Velocity: 56
Note OFF: Time 327480, Note Name: B1
Note ON: Time 327600, Note Name: G#2, Velocity: 52
Note OFF: Time 327720, Note Name: G#2
Note ON: Time 327840, Note Name: B2, Velocity: 85
Note ON: Time 327840, Note Name: B1, Velocity: 71
Note OFF: Time 327960, Note Name: B1
Note OFF: Time 327960, Note Name: B2
Note ON: Time 328080, Note Name: G#2, Velocity: 73
Note OFF: Time 328200, Note Name: G#2
Note ON: Time 328320, Note Name: A1, Velocity: 50
Note OFF: Time 328440, Note Name: A1
Note ON: Time 328560, Note Name: A2, Velocity: 51
Note OFF: Time 328680, Note Name: A2
Note ON: Time 328800, Note Name: A1, Velocity: 57
Note OFF: Time 328920, Note Name: A1
Note ON: Time 329040, Note Name: A2, Velocity: 62
Note OFF: Time 329160, Note Name: A2
Note ON: Time 329280, Note Name: A1, Velocity: 67
Note OFF: Time 329400, Note Name: A1
Note ON: Time 329520, Note Name: A2, Velocity: 67
Note OFF: Time 329640, Note Name: A2
Note ON: Time 329760, Note Name: A1, Velocity: 86
Note OFF: Time 329880, Note Name: A1
Note ON: Time 330000, Note Name: A2, Velocity: 85
Note OFF: Time 330120, Note Name: A2
Note ON: Time 330240, Note Name: A1, Velocity: 67
Note OFF: Time 330360, Note Name: A1
Note ON: Time 330480, Note Name: A2, Velocity: 62
Note OFF: Time 330600, Note Name: A2
Note ON: Time 330720, Note Name: A1, Velocity: 67
Note OFF: Time 330840, Note Name: A1
Note ON: Time 330960, Note Name: A2, Velocity: 63
Note OFF: Time 331080, Note Name: A2
Note ON: Time 331200, Note Name: A1, Velocity: 67
Note OFF: Time 331320, Note Name: A1
Note ON: Time 331440, Note Name: A2, Velocity: 64
Note OFF: Time 331560, Note Name: A2
Note ON: Time 331680, Note Name: A1, Velocity: 90
Note OFF: Time 331800, Note Name: A1
Note ON: Time 331920, Note Name: A2, Velocity: 90
Note OFF: Time 332040, Note Name: A2
Note ON: Time 332160, Note Name: G#2, Velocity: 77
Note ON: Time 332160, Note Name: G#1, Velocity: 77
Note OFF: Time 332400, Note Name: G#1
Note OFF: Time 332400, Note Name: G#2
Note ON: Time 332400, Note Name: C4, Velocity: 62
Note ON: Time 332400, Note Name: G#3, Velocity: 62
Note OFF: Time 332640, Note Name: C4
Note ON: Time 332640, Note Name: C4, Velocity: 62
Note OFF: Time 332880, Note Name: C4
Note ON: Time 332880, Note Name: C#4, Velocity: 62
Note OFF: Time 333120, Note Name: C#4
Note ON: Time 333120, Note Name: D#4, Velocity: 64
Note OFF: Time 333360, Note Name: D#4
Note ON: Time 333360, Note Name: E4, Velocity: 66
Note OFF: Time 333600, Note Name: E4
Note ON: Time 333600, Note Name: F#4, Velocity: 67
Note OFF: Time 333840, Note Name: F#4
Note ON: Time 333840, Note Name: D#4, Velocity: 68
Note OFF: Time 334080, Note Name: D#4
Note ON: Time 334080, Note Name: F#4, Velocity: 69
Note OFF: Time 334320, Note Name: F#4
Note ON: Time 334320, Note Name: E4, Velocity: 71
Note OFF: Time 334560, Note Name: E4
Note ON: Time 334560, Note Name: A4, Velocity: 72
Note OFF: Time 334800, Note Name: A4
Note ON: Time 334800, Note Name: G#4, Velocity: 71
Note OFF: Time 335040, Note Name: G#4
Note ON: Time 335040, Note Name: F#4, Velocity: 69
Note OFF: Time 335280, Note Name: F#4
Note ON: Time 335280, Note Name: E4, Velocity: 68
Note OFF: Time 335520, Note Name: E4
Note ON: Time 335520, Note Name: D#4, Velocity: 67
Note OFF: Time 335760, Note Name: D#4
Note ON: Time 335760, Note Name: C#4, Velocity: 66
Note OFF: Time 336000, Note Name: C#4
Note OFF: Time 336000, Note Name: G#3
Note ON: Time 336000, Note Name: G#3, Velocity: 64
Note ON: Time 336000, Note Name: C4, Velocity: 64
Note OFF: Time 336240, Note Name: C4
Note ON: Time 336240, Note Name: C4, Velocity: 63
Note OFF: Time 336480, Note Name: C4
Note ON: Time 336480, Note Name: C4, Velocity: 62
Note OFF: Time 336720, Note Name: C4
Note ON: Time 336720, Note Name: C#4, Velocity: 60
Note OFF: Time 336960, Note Name: C#4
Note ON: Time 336960, Note Name: D#4, Velocity: 62
Note OFF: Time 337200, Note Name: D#4
Note ON: Time 337200, Note Name: E4, Velocity: 62
Note OFF: Time 337440, Note Name: E4
Note ON: Time 337440, Note Name: F#4, Velocity: 65
Note OFF: Time 337680, Note Name: F#4
Note ON: Time 337680, Note Name: D#4, Velocity: 67
Note OFF: Time 337920, Note Name: D#4
Note ON: Time 337920, Note Name: F#4, Velocity: 68
Note OFF: Time 338160, Note Name: F#4
Note ON: Time 338160, Note Name: E4, Velocity: 68
Note OFF: Time 338400, Note Name: E4
Note ON: Time 338400, Note Name: A4, Velocity: 68
Note OFF: Time 338640, Note Name: A4
Note ON: Time 338640, Note Name: G#4, Velocity: 67
Note OFF: Time 338880, Note Name: G#4
Note ON: Time 338880, Note Name: F#4, Velocity: 67
Note OFF: Time 339120, Note Name: F#4
Note ON: Time 339120, Note Name: E4, Velocity: 67
Note OFF: Time 339360, Note Name: E4
Note ON: Time 339360, Note Name: D#4, Velocity: 67
Note OFF: Time 339600, Note Name: D#4
Note ON: Time 339600, Note Name: C#4, Velocity: 67
Note OFF: Time 339840, Note Name: C#4
Note OFF: Time 339840, Note Name: G#3
Note ON: Time 339840, Note Name: C4, Velocity: 71
Note ON: Time 339840, Note Name: G#3, Velocity: 71
Note OFF: Time 339960, Note Name: G#3
Note OFF: Time 339960, Note Name: C4
Note ON: Time 340080, Note Name: C#4, Velocity: 62
Note ON: Time 340080, Note Name: G#3, Velocity: 62
Note OFF: Time 340200, Note Name: G#3
Note OFF: Time 340200, Note Name: C#4
Note ON: Time 340320, Note Name: G#3, Velocity: 68
Note ON: Time 340320, Note Name: C4, Velocity: 68
Note OFF: Time 340440, Note Name: C4
Note OFF: Time 340440, Note Name: G#3
Note ON: Time 340560, Note Name: C#4, Velocity: 62
Note ON: Time 340560, Note Name: G#3, Velocity: 62
Note OFF: Time 340680, Note Name: G#3
Note OFF: Time 340680, Note Name: C#4
Note ON: Time 340800, Note Name: C4, Velocity: 71
Note ON: Time 340800, Note Name: G#3, Velocity: 71
Note OFF: Time 340920, Note Name: G#3
Note OFF: Time 340920, Note Name: C4
Note ON: Time 341040, Note Name: G#3, Velocity: 62
Note ON: Time 341040, Note Name: C#4, Velocity: 62
Note OFF: Time 341160, Note Name: C#4
Note OFF: Time 341160, Note Name: G#3
Note ON: Time 341280, Note Name: C4, Velocity: 67
Note ON: Time 341280, Note Name: G#3, Velocity: 67
Note OFF: Time 341400, Note Name: G#3
Note OFF: Time 341400, Note Name: C4
Note ON: Time 341520, Note Name: C#4, Velocity: 61
Note ON: Time 341520, Note Name: G#3, Velocity: 61
Note OFF: Time 341640, Note Name: G#3
Note OFF: Time 341640, Note Name: C#4
Note ON: Time 341760, Note Name: C4, Velocity: 71
Note ON: Time 341760, Note Name: G#3, Velocity: 71
Note OFF: Time 342000, Note Name: G#3
Note OFF: Time 342000, Note Name: C4
Note ON: Time 342240, Note Name: G#1, Velocity: 77
Note ON: Time 342240, Note Name: G#2, Velocity: 90
Note OFF: Time 343680, Note Name: G#2
Note OFF: Time 343680, Note Name: G#1
Note ON: Time 343680, Note Name: C#3, Velocity: 39
Note ON: Time 343800, Note Name: G#3, Velocity: 29
Note OFF: Time 343820, Note Name: C#3
Note ON: Time 343920, Note Name: E3, Velocity: 34
Note OFF: Time 343940, Note Name: G#3
Note ON: Time 344040, Note Name: G#3, Velocity: 29
Note OFF: Time 344060, Note Name: E3
Note ON: Time 344160, Note Name: C#3, Velocity: 39
Note OFF: Time 344180, Note Name: G#3
Note OFF: Time 344279, Note Name: C#3
Note ON: Time 344280, Note Name: G#3, Velocity: 29
Note OFF: Time 344399, Note Name: G#3
Note ON: Time 344400, Note Name: E3, Velocity: 34
Note OFF: Time 344519, Note Name: E3
Note ON: Time 344520, Note Name: G#3, Velocity: 30
Note OFF: Time 344639, Note Name: G#3
Note ON: Time 344640, Note Name: C#3, Velocity: 39
Note OFF: Time 344759, Note Name: C#3
Note ON: Time 344760, Note Name: G#3, Velocity: 30
Note OFF: Time 344879, Note Name: G#3
Note ON: Time 344880, Note Name: E3, Velocity: 34
Note OFF: Time 344999, Note Name: E3
Note ON: Time 345000, Note Name: G#3, Velocity: 30
Note OFF: Time 345119, Note Name: G#3
Note ON: Time 345120, Note Name: C#3, Velocity: 39
Note OFF: Time 345239, Note Name: C#3
Note ON: Time 345240, Note Name: G#3, Velocity: 30
Note OFF: Time 345359, Note Name: G#3
Note ON: Time 345360, Note Name: E3, Velocity: 34
Note OFF: Time 345479, Note Name: E3
Note ON: Time 345480, Note Name: G#3, Velocity: 30
Note OFF: Time 345599, Note Name: G#3
Note ON: Time 345600, Note Name: D#3, Velocity: 39
Note ON: Time 345720, Note Name: G#3, Velocity: 30
Note OFF: Time 345740, Note Name: D#3
Note ON: Time 345840, Note Name: F#3, Velocity: 34
Note OFF: Time 345860, Note Name: G#3
Note ON: Time 345960, Note Name: G#3, Velocity: 30
Note OFF: Time 345980, Note Name: F#3
Note ON: Time 346080, Note Name: D#3, Velocity: 48
Note OFF: Time 346100, Note Name: G#3
Note OFF: Time 346199, Note Name: D#3
Note ON: Time 346200, Note Name: G#3, Velocity: 43
Note OFF: Time 346319, Note Name: G#3
Note ON: Time 346320, Note Name: F#3, Velocity: 47
Note OFF: Time 346439, Note Name: F#3
Note ON: Time 346440, Note Name: G#3, Velocity: 49
Note OFF: Time 346559, Note Name: G#3
Note ON: Time 346560, Note Name: D#3, Velocity: 58
Note OFF: Time 346679, Note Name: D#3
Note ON: Time 346680, Note Name: G#3, Velocity: 46
Note OFF: Time 346799, Note Name: G#3
Note ON: Time 346800, Note Name: F#3, Velocity: 54
Note OFF: Time 346919, Note Name: F#3
Note ON: Time 346920, Note Name: G#3, Velocity: 47
Note OFF: Time 347039, Note Name: G#3
Note ON: Time 347040, Note Name: D#3, Velocity: 66
Note OFF: Time 347159, Note Name: D#3
Note ON: Time 347160, Note Name: G#3, Velocity: 46
Note OFF: Time 347279, Note Name: G#3
Note ON: Time 347280, Note Name: F#3, Velocity: 51
Note OFF: Time 347399, Note Name: F#3
Note ON: Time 347400, Note Name: G#3, Velocity: 40
Note OFF: Time 347519, Note Name: G#3
Note ON: Time 347520, Note Name: E3, Velocity: 39
Note OFF: Time 347639, Note Name: E3
Note ON: Time 347640, Note Name: G#3, Velocity: 32
Note OFF: Time 347759, Note Name: G#3
Note ON: Time 347760, Note Name: E3, Velocity: 35
Note OFF: Time 347879, Note Name: E3
Note ON: Time 347880, Note Name: G#3, Velocity: 31
Note OFF: Time 347999, Note Name: G#3
Note ON: Time 348000, Note Name: E3, Velocity: 50
Note OFF: Time 348119, Note Name: E3
Note ON: Time 348120, Note Name: G#3, Velocity: 41
Note OFF: Time 348239, Note Name: G#3
Note ON: Time 348240, Note Name: E3, Velocity: 47
Note OFF: Time 348359, Note Name: E3
Note ON: Time 348360, Note Name: G#3, Velocity: 42
Note OFF: Time 348479, Note Name: G#3
Note ON: Time 348480, Note Name: E3, Velocity: 58
Note OFF: Time 348599, Note Name: E3
Note ON: Time 348600, Note Name: G#3, Velocity: 48
Note OFF: Time 348719, Note Name: G#3
Note ON: Time 348720, Note Name: E3, Velocity: 56
Note OFF: Time 348839, Note Name: E3
Note ON: Time 348840, Note Name: G#3, Velocity: 51
Note OFF: Time 348959, Note Name: G#3
Note ON: Time 348960, Note Name: E3, Velocity: 66
Note OFF: Time 349079, Note Name: E3
Note ON: Time 349080, Note Name: G#3, Velocity: 49
Note OFF: Time 349199, Note Name: G#3
Note ON: Time 349200, Note Name: E3, Velocity: 51
Note OFF: Time 349319, Note Name: E3
Note ON: Time 349320, Note Name: G#3, Velocity: 47
Note OFF: Time 349439, Note Name: G#3
Note ON: Time 349440, Note Name: C3, Velocity: 39
Note OFF: Time 349559, Note Name: C3
Note ON: Time 349560, Note Name: G#3, Velocity: 31
Note OFF: Time 349679, Note Name: G#3
Note ON: Time 349680, Note Name: C3, Velocity: 34
Note OFF: Time 349799, Note Name: C3
Note ON: Time 349800, Note Name: G#3, Velocity: 32
Note OFF: Time 349919, Note Name: G#3
Note ON: Time 349920, Note Name: C3, Velocity: 50
Note OFF: Time 350039, Note Name: C3
Note ON: Time 350040, Note Name: G#3, Velocity: 43
Note OFF: Time 350159, Note Name: G#3
Note ON: Time 350160, Note Name: C3, Velocity: 49
Note OFF: Time 350279, Note Name: C3
Note ON: Time 350280, Note Name: G#3, Velocity: 44
Note OFF: Time 350399, Note Name: G#3
Note ON: Time 350400, Note Name: C3, Velocity: 58
Note OFF: Time 350519, Note Name: C3
Note ON: Time 350520, Note Name: G#3, Velocity: 51
Note OFF: Time 350639, Note Name: G#3
Note ON: Time 350640, Note Name: C3, Velocity: 59
Note OFF: Time 350759, Note Name: C3
Note ON: Time 350760, Note Name: G#3, Velocity: 54
Note OFF: Time 350879, Note Name: G#3
Note ON: Time 350880, Note Name: C3, Velocity: 66
Note OFF: Time 350999, Note Name: C3
Note ON: Time 351000, Note Name: G#3, Velocity: 48
Note OFF: Time 351119, Note Name: G#3
Note ON: Time 351120, Note Name: C3, Velocity: 51
Note OFF: Time 351239, Note Name: C3
Note ON: Time 351240, Note Name: G#3, Velocity: 39
Note OFF: Time 351359, Note Name: G#3
Note ON: Time 351360, Note Name: C#3, Velocity: 39
Note ON: Time 351480, Note Name: G#3, Velocity: 32
Note OFF: Time 351500, Note Name: C#3
Note ON: Time 351600, Note Name: E3, Velocity: 35
Note OFF: Time 351620, Note Name: G#3
Note OFF: Time 351719, Note Name: E3
Note ON: Time 351720, Note Name: G#3, Velocity: 31
Note OFF: Time 351839, Note Name: G#3
Note ON: Time 351840, Note Name: C#3, Velocity: 40
Note OFF: Time 351959, Note Name: C#3
Note ON: Time 351960, Note Name: G#3, Velocity: 31
Note OFF: Time 352079, Note Name: G#3
Note ON: Time 352080, Note Name: E3, Velocity: 34
Note OFF: Time 352199, Note Name: E3
Note ON: Time 352200, Note Name: G#3, Velocity: 31
Note OFF: Time 352319, Note Name: G#3
Note ON: Time 352320, Note Name: C#3, Velocity: 41
Note OFF: Time 352439, Note Name: C#3
Note ON: Time 352440, Note Name: G#3, Velocity: 31
Note OFF: Time 352559, Note Name: G#3
Note ON: Time 352560, Note Name: E3, Velocity: 35
Note OFF: Time 352679, Note Name: E3
Note ON: Time 352680, Note Name: G#3, Velocity: 31
Note OFF: Time 352799, Note Name: G#3
Note ON: Time 352800, Note Name: C#3, Velocity: 43
Note ON: Time 352920, Note Name: G#3, Velocity: 34
Note OFF: Time 352940, Note Name: C#3
Note ON: Time 353040, Note Name: E3, Velocity: 37
Note OFF: Time 353060, Note Name: G#3
Note ON: Time 353160, Note Name: G#3, Velocity: 33
Note OFF: Time 353180, Note Name: E3
Note ON: Time 353280, Note Name: D#3, Velocity: 46
Note OFF: Time 353300, Note Name: G#3
Note ON: Time 353400, Note Name: G#3, Velocity: 33
Note OFF: Time 353420, Note Name: D#3
Note ON: Time 353520, Note Name: F#3, Velocity: 39
Note OFF: Time 353540, Note Name: G#3
Note OFF: Time 353639, Note Name: F#3
Note ON: Time 353640, Note Name: G#3, Velocity: 33
Note OFF: Time 353759, Note Name: G#3
Note ON: Time 353760, Note Name: D#3, Velocity: 47
Note OFF: Time 353879, Note Name: D#3
Note ON: Time 353880, Note Name: G#3, Velocity: 35
Note OFF: Time 353999, Note Name: G#3
Note ON: Time 354000, Note Name: F#3, Velocity: 40
Note OFF: Time 354119, Note Name: F#3
Note ON: Time 354120, Note Name: G#3, Velocity: 34
Note OFF: Time 354239, Note Name: G#3
Note ON: Time 354240, Note Name: D#3, Velocity: 49
Note OFF: Time 354359, Note Name: D#3
Note ON: Time 354360, Note Name: G#3, Velocity: 35
Note OFF: Time 354479, Note Name: G#3
Note ON: Time 354480, Note Name: F#3, Velocity: 41
Note OFF: Time 354599, Note Name: F#3
Note ON: Time 354600, Note Name: G#3, Velocity: 35
Note OFF: Time 354719, Note Name: G#3
Note ON: Time 354720, Note Name: D#3, Velocity: 50
Note ON: Time 354840, Note Name: G#3, Velocity: 40
Note OFF: Time 354860, Note Name: D#3
Note ON: Time 354960, Note Name: F#3, Velocity: 45
Note OFF: Time 354980, Note Name: G#3
Note ON: Time 355080, Note Name: G#3, Velocity: 42
Note OFF: Time 355100, Note Name: F#3
Note ON: Time 355200, Note Name: E3, Velocity: 51
Note OFF: Time 355220, Note Name: G#3
Note ON: Time 355320, Note Name: G#3, Velocity: 43
Note OFF: Time 355340, Note Name: E3
Note ON: Time 355440, Note Name: E3, Velocity: 47
Note OFF: Time 355460, Note Name: G#3
Note OFF: Time 355559, Note Name: E3
Note ON: Time 355560, Note Name: G#3, Velocity: 43
Note OFF: Time 355679, Note Name: G#3
Note ON: Time 355680, Note Name: E3, Velocity: 52
Note OFF: Time 355799, Note Name: E3
Note ON: Time 355800, Note Name: G#3, Velocity: 43
Note OFF: Time 355919, Note Name: G#3
Note ON: Time 355920, Note Name: E3, Velocity: 48
Note OFF: Time 356039, Note Name: E3
Note ON: Time 356040, Note Name: G#3, Velocity: 44
Note OFF: Time 356159, Note Name: G#3
Note ON: Time 356160, Note Name: E3, Velocity: 56
Note OFF: Time 356279, Note Name: E3
Note ON: Time 356280, Note Name: G#3, Velocity: 46
Note OFF: Time 356399, Note Name: G#3
Note ON: Time 356400, Note Name: E3, Velocity: 50
Note OFF: Time 356519, Note Name: E3
Note ON: Time 356520, Note Name: G#3, Velocity: 47
Note OFF: Time 356639, Note Name: G#3
Note ON: Time 356640, Note Name: E3, Velocity: 57
Note ON: Time 356760, Note Name: G#3, Velocity: 49
Note OFF: Time 356780, Note Name: E3
Note ON: Time 356880, Note Name: E3, Velocity: 51
Note OFF: Time 356900, Note Name: G#3
Note ON: Time 357000, Note Name: G#3, Velocity: 48
Note OFF: Time 357020, Note Name: E3
Note ON: Time 357120, Note Name: C3, Velocity: 59
Note OFF: Time 357140, Note Name: G#3
Note ON: Time 357240, Note Name: G#3, Velocity: 53
Note OFF: Time 357260, Note Name: C3
Note ON: Time 357360, Note Name: C3, Velocity: 56
Note OFF: Time 357380, Note Name: G#3
Note OFF: Time 357479, Note Name: C3
Note ON: Time 357480, Note Name: G#3, Velocity: 52
Note OFF: Time 357599, Note Name: G#3
Note ON: Time 357600, Note Name: C3, Velocity: 60
Note OFF: Time 357719, Note Name: C3
Note ON: Time 357720, Note Name: G#3, Velocity: 52
Note OFF: Time 357839, Note Name: G#3
Note ON: Time 357840, Note Name: C3, Velocity: 57
Note OFF: Time 357959, Note Name: C3
Note ON: Time 357960, Note Name: G#3, Velocity: 52
Note OFF: Time 358079, Note Name: G#3
Note ON: Time 358080, Note Name: C3, Velocity: 62
Note OFF: Time 358199, Note Name: C3
Note ON: Time 358200, Note Name: G#3, Velocity: 52
Note OFF: Time 358319, Note Name: G#3
Note ON: Time 358320, Note Name: C3, Velocity: 59
Note OFF: Time 358439, Note Name: C3
Note ON: Time 358440, Note Name: G#3, Velocity: 53
Note OFF: Time 358559, Note Name: G#3
Note ON: Time 358560, Note Name: C3, Velocity: 62
Note ON: Time 358680, Note Name: G#3, Velocity: 53
Note OFF: Time 358700, Note Name: C3
Note ON: Time 358800, Note Name: C3, Velocity: 60
Note OFF: Time 358820, Note Name: G#3
Note ON: Time 358920, Note Name: G#3, Velocity: 54
Note OFF: Time 358940, Note Name: C3
Note ON: Time 359040, Note Name: B2, Velocity: 66
Note OFF: Time 359060, Note Name: G#3
Note ON: Time 359160, Note Name: G#3, Velocity: 56
Note OFF: Time 359180, Note Name: B2
Note ON: Time 359280, Note Name: C#3, Velocity: 61
Note OFF: Time 359300, Note Name: G#3
Note ON: Time 359400, Note Name: G#3, Velocity: 56
Note OFF: Time 359420, Note Name: C#3
Note ON: Time 359520, Note Name: B2, Velocity: 66
Note OFF: Time 359540, Note Name: G#3
Note ON: Time 359640, Note Name: G#3, Velocity: 56
Note OFF: Time 359660, Note Name: B2
Note ON: Time 359760, Note Name: C#3, Velocity: 61
Note OFF: Time 359780, Note Name: G#3
Note ON: Time 359880, Note Name: G#3, Velocity: 56
Note OFF: Time 359900, Note Name: C#3
Note ON: Time 360000, Note Name: A2, Velocity: 66
Note OFF: Time 360020, Note Name: G#3
Note ON: Time 360120, Note Name: F#3, Velocity: 56
Note OFF: Time 360140, Note Name: A2
Note ON: Time 360240, Note Name: C#3, Velocity: 62
Note OFF: Time 360260, Note Name: F#3
Note ON: Time 360360, Note Name: F#3, Velocity: 57
Note OFF: Time 360380, Note Name: C#3
Note ON: Time 360480, Note Name: A2, Velocity: 66
Note OFF: Time 360500, Note Name: F#3
Note ON: Time 360600, Note Name: F#3, Velocity: 56
Note OFF: Time 360620, Note Name: A2
Note ON: Time 360720, Note Name: C#3, Velocity: 61
Note OFF: Time 360740, Note Name: F#3
Note ON: Time 360840, Note Name: F#3, Velocity: 56
Note OFF: Time 360860, Note Name: C#3
Note ON: Time 360960, Note Name: A2, Velocity: 66
Note OFF: Time 360980, Note Name: F#3
Note OFF: Time 361079, Note Name: A2
Note ON: Time 361080, Note Name: F#3, Velocity: 56
Note OFF: Time 361199, Note Name: F#3
Note ON: Time 361200, Note Name: B2, Velocity: 61
Note OFF: Time 361319, Note Name: B2
Note ON: Time 361320, Note Name: F#3, Velocity: 56
Note OFF: Time 361439, Note Name: F#3
Note ON: Time 361440, Note Name: G#2, Velocity: 66
Note ON: Time 361560, Note Name: E3, Velocity: 56
Note OFF: Time 361580, Note Name: G#2
Note ON: Time 361680, Note Name: B2, Velocity: 62
Note OFF: Time 361700, Note Name: E3
Note ON: Time 361800, Note Name: E3, Velocity: 56
Note OFF: Time 361820, Note Name: B2
Note ON: Time 361920, Note Name: G#2, Velocity: 66
Note OFF: Time 361940, Note Name: E3
Note ON: Time 362040, Note Name: E3, Velocity: 56
Note OFF: Time 362060, Note Name: G#2
Note ON: Time 362160, Note Name: B2, Velocity: 61
Note OFF: Time 362180, Note Name: E3
Note ON: Time 362280, Note Name: E3, Velocity: 56
Note OFF: Time 362300, Note Name: B2
Note ON: Time 362400, Note Name: G#2, Velocity: 66
Note OFF: Time 362420, Note Name: E3
Note ON: Time 362520, Note Name: E3, Velocity: 54
Note OFF: Time 362540, Note Name: G#2
Note ON: Time 362640, Note Name: B2, Velocity: 60
Note OFF: Time 362660, Note Name: E3
Note ON: Time 362760, Note Name: E3, Velocity: 56
Note OFF: Time 362780, Note Name: B2
Note ON: Time 362880, Note Name: G2, Velocity: 66
Note OFF: Time 362900, Note Name: E3
Note ON: Time 363000, Note Name: E3, Velocity: 58
Note OFF: Time 363020, Note Name: G2
Note ON: Time 363120, Note Name: A2, Velocity: 62
Note OFF: Time 363140, Note Name: E3
Note ON: Time 363240, Note Name: E3, Velocity: 58
Note OFF: Time 363260, Note Name: A2
Note ON: Time 363360, Note Name: G2, Velocity: 66
Note OFF: Time 363380, Note Name: E3
Note ON: Time 363480, Note Name: E3, Velocity: 57
Note OFF: Time 363500, Note Name: G2
Note ON: Time 363600, Note Name: A2, Velocity: 62
Note OFF: Time 363620, Note Name: E3
Note ON: Time 363720, Note Name: E3, Velocity: 58
Note OFF: Time 363740, Note Name: A2
Note ON: Time 363840, Note Name: F#2, Velocity: 66
Note OFF: Time 363860, Note Name: E3
Note ON: Time 363960, Note Name: D3, Velocity: 54
Note OFF: Time 363980, Note Name: F#2
Note ON: Time 364080, Note Name: A2, Velocity: 62
Note OFF: Time 364100, Note Name: D3
Note ON: Time 364200, Note Name: D3, Velocity: 56
Note OFF: Time 364220, Note Name: A2
Note ON: Time 364320, Note Name: F#2, Velocity: 66
Note OFF: Time 364340, Note Name: D3
Note ON: Time 364440, Note Name: D3, Velocity: 54
Note OFF: Time 364460, Note Name: F#2
Note ON: Time 364560, Note Name: A2, Velocity: 62
Note OFF: Time 364580, Note Name: D3
Note ON: Time 364680, Note Name: D3, Velocity: 54
Note OFF: Time 364700, Note Name: A2
Note ON: Time 364800, Note Name: F#2, Velocity: 66
Note OFF: Time 364820, Note Name: D3
Note OFF: Time 364919, Note Name: F#2
Note ON: Time 364920, Note Name: D#3, Velocity: 56
Note OFF: Time 365039, Note Name: D#3
Note ON: Time 365040, Note Name: G#2, Velocity: 60
Note OFF: Time 365159, Note Name: G#2
Note ON: Time 365160, Note Name: D#3, Velocity: 60
Note OFF: Time 365279, Note Name: D#3
Note ON: Time 365280, Note Name: E2, Velocity: 66
Note ON: Time 365400, Note Name: C#3, Velocity: 56
Note OFF: Time 365420, Note Name: E2
Note ON: Time 365520, Note Name: G#2, Velocity: 61
Note OFF: Time 365540, Note Name: C#3
Note ON: Time 365640, Note Name: C#3, Velocity: 57
Note OFF: Time 365660, Note Name: G#2
Note ON: Time 365760, Note Name: E2, Velocity: 66
Note OFF: Time 365780, Note Name: C#3
Note ON: Time 365880, Note Name: C#3, Velocity: 56
Note OFF: Time 365900, Note Name: E2
Note ON: Time 366000, Note Name: G#2, Velocity: 61
Note OFF: Time 366020, Note Name: C#3
Note ON: Time 366120, Note Name: C#3, Velocity: 56
Note OFF: Time 366140, Note Name: G#2
Note ON: Time 366240, Note Name: E2, Velocity: 66
Note OFF: Time 366260, Note Name: C#3
Note ON: Time 366360, Note Name: C#3, Velocity: 56
Note OFF: Time 366380, Note Name: E2
Note ON: Time 366480, Note Name: G#2, Velocity: 61
Note OFF: Time 366500, Note Name: C#3
Note ON: Time 366600, Note Name: C#3, Velocity: 61
Note OFF: Time 366620, Note Name: G#2
Note ON: Time 366720, Note Name: A2, Velocity: 64
Note ON: Time 366720, Note Name: F#3, Velocity: 75
Note ON: Time 366720, Note Name: D3, Velocity: 75
Note ON: Time 366720, Note Name: F#2, Velocity: 64
Note OFF: Time 366740, Note Name: C#3
Note OFF: Time 368160, Note Name: D3
Note OFF: Time 368160, Note Name: A2
Note OFF: Time 368160, Note Name: F#3
Note OFF: Time 368160, Note Name: F#2
Note ON: Time 368640, Note Name: F#3, Velocity: 42
Note ON: Time 368640, Note Name: D4, Velocity: 50
Note ON: Time 368640, Note Name: A3, Velocity: 42
Note OFF: Time 369116, Note Name: D4
Note OFF: Time 369120, Note Name: A3
Note OFF: Time 369120, Note Name: F#3
Note ON: Time 369600, Note Name: A3, Velocity: 41
Note ON: Time 369600, Note Name: D4, Velocity: 49
Note ON: Time 369600, Note Name: F#3, Velocity: 41
Note OFF: Time 370080, Note Name: F#3
Note OFF: Time 370080, Note Name: D4
Note OFF: Time 370080, Note Name: A3
Note ON: Time 370560, Note Name: F#3, Velocity: 41
Note ON: Time 370560, Note Name: A3, Velocity: 41
Note ON: Time 370560, Note Name: D4, Velocity: 49
Note OFF: Time 371040, Note Name: D4
Note OFF: Time 371040, Note Name: A3
Note OFF: Time 371040, Note Name: F#3
Note ON: Time 371040, Note Name: D4, Velocity: 52
Note ON: Time 371040, Note Name: A3, Velocity: 44
Note ON: Time 371040, Note Name: F#3, Velocity: 44
Note OFF: Time 371520, Note Name: F#3
Note OFF: Time 371520, Note Name: A3
Note OFF: Time 371520, Note Name: D4
Note ON: Time 371520, Note Name: F#3, Velocity: 51
Note ON: Time 371520, Note Name: D4, Velocity: 60
Note ON: Time 371520, Note Name: A3, Velocity: 51
Note OFF: Time 372000, Note Name: A3
Note OFF: Time 372000, Note Name: D4
Note OFF: Time 372000, Note Name: F#3
Note ON: Time 372000, Note Name: F#3, Velocity: 47
Note ON: Time 372000, Note Name: D4, Velocity: 56
Note ON: Time 372000, Note Name: A3, Velocity: 47
Note OFF: Time 372480, Note Name: A3
Note OFF: Time 372480, Note Name: D4
Note OFF: Time 372480, Note Name: F#3
Note ON: Time 372480, Note Name: G#3, Velocity: 49
Note ON: Time 372600, Note Name: E4, Velocity: 44
Note OFF: Time 372620, Note Name: G#3
Note ON: Time 372720, Note Name: C#4, Velocity: 47
Note OFF: Time 372740, Note Name: E4
Note ON: Time 372840, Note Name: E4, Velocity: 43
Note OFF: Time 372860, Note Name: C#4
Note ON: Time 372960, Note Name: G#3, Velocity: 51
Note OFF: Time 372980, Note Name: E4
Note ON: Time 373080, Note Name: E4, Velocity: 43
Note OFF: Time 373100, Note Name: G#3
Note ON: Time 373200, Note Name: C#4, Velocity: 47
Note OFF: Time 373220, Note Name: E4
Note ON: Time 373320, Note Name: E4, Velocity: 42
Note OFF: Time 373340, Note Name: C#4
Note ON: Time 373440, Note Name: G#3, Velocity: 51
Note OFF: Time 373460, Note Name: E4
Note OFF: Time 373559, Note Name: G#3
Note ON: Time 373560, Note Name: F#4, Velocity: 43
Note OFF: Time 373679, Note Name: F#4
Note ON: Time 373680, Note Name: C4, Velocity: 47
Note OFF: Time 373799, Note Name: C4
Note ON: Time 373800, Note Name: F#4, Velocity: 43
Note OFF: Time 373919, Note Name: F#4
Note ON: Time 373920, Note Name: G#3, Velocity: 51
Note OFF: Time 374039, Note Name: G#3
Note ON: Time 374040, Note Name: F#4, Velocity: 44
Note OFF: Time 374159, Note Name: F#4
Note ON: Time 374160, Note Name: C4, Velocity: 47
Note OFF: Time 374279, Note Name: C4
Note ON: Time 374280, Note Name: F#4, Velocity: 42
Note OFF: Time 374399, Note Name: F#4
Note ON: Time 374400, Note Name: E4, Velocity: 56
Note ON: Time 374400, Note Name: C#4, Velocity: 56
Note ON: Time 374400, Note Name: A3, Velocity: 56
Note OFF: Time 374640, Note Name: A3
Note OFF: Time 374640, Note Name: C#4
Note OFF: Time 374640, Note Name: E4
Note ON: Time 374880, Note Name: F#1, Velocity: 67
Note ON: Time 374880, Note Name: A1, Velocity: 67
Note ON: Time 374880, Note Name: D2, Velocity: 80
Note ON: Time 374880, Note Name: F#2, Velocity: 80
Note OFF: Time 375840, Note Name: F#2
Note OFF: Time 375840, Note Name: F#1
Note OFF: Time 375840, Note Name: A1
Note OFF: Time 375840, Note Name: D2
Note ON: Time 376800, Note Name: D3, Velocity: 49
Note ON: Time 376800, Note Name: A2, Velocity: 41
Note ON: Time 376800, Note Name: F#2, Velocity: 41
Note OFF: Time 377280, Note Name: F#2
Note OFF: Time 377280, Note Name: A2
Note OFF: Time 377280, Note Name: D3
Note ON: Time 377760, Note Name: D3, Velocity: 49
Note ON: Time 377760, Note Name: F#2, Velocity: 41
Note ON: Time 377760, Note Name: A2, Velocity: 41
Note OFF: Time 378240, Note Name: A2
Note OFF: Time 378240, Note Name: F#2
Note OFF: Time 378240, Note Name: D3
Note ON: Time 378480, Note Name: D3, Velocity: 51
Note ON: Time 378480, Note Name: A2, Velocity: 43
Note ON: Time 378480, Note Name: F#2, Velocity: 43
Note OFF: Time 378720, Note Name: F#2
Note OFF: Time 378720, Note Name: A2
Note OFF: Time 378720, Note Name: D3
Note ON: Time 378960, Note Name: D3, Velocity: 61
Note ON: Time 378960, Note Name: A2, Velocity: 51
Note ON: Time 378960, Note Name: F#2, Velocity: 51
Note OFF: Time 379200, Note Name: F#2
Note OFF: Time 379200, Note Name: A2
Note OFF: Time 379200, Note Name: D3
Note ON: Time 379440, Note Name: A2, Velocity: 57
Note ON: Time 379440, Note Name: D3, Velocity: 68
Note ON: Time 379440, Note Name: F#2, Velocity: 57
Note OFF: Time 379680, Note Name: F#2
Note OFF: Time 379680, Note Name: D3
Note OFF: Time 379680, Note Name: A2
Note ON: Time 379920, Note Name: F#2, Velocity: 57
Note ON: Time 379920, Note Name: D3, Velocity: 68
Note ON: Time 379920, Note Name: A2, Velocity: 57
Note OFF: Time 380160, Note Name: A2
Note OFF: Time 380160, Note Name: D3
Note OFF: Time 380160, Note Name: F#2
Note ON: Time 380160, Note Name: F#2, Velocity: 66
Note OFF: Time 380279, Note Name: F#2
Note ON: Time 380280, Note Name: D3, Velocity: 56
Note OFF: Time 380399, Note Name: D3
Note ON: Time 380400, Note Name: A2, Velocity: 62
Note OFF: Time 380519, Note Name: A2
Note ON: Time 380520, Note Name: D3, Velocity: 56
Note OFF: Time 380639, Note Name: D3
Note ON: Time 380640, Note Name: F#2, Velocity: 66
Note OFF: Time 380759, Note Name: F#2
Note ON: Time 380760, Note Name: D3, Velocity: 56
Note OFF: Time 380879, Note Name: D3
Note ON: Time 380880, Note Name: A2, Velocity: 61
Note OFF: Time 380999, Note Name: A2
Note ON: Time 381000, Note Name: D3, Velocity: 54
Note OFF: Time 381119, Note Name: D3
Note ON: Time 381120, Note Name: G2, Velocity: 66
Note OFF: Time 381239, Note Name: G2
Note ON: Time 381240, Note Name: E3, Velocity: 56
Note OFF: Time 381359, Note Name: E3
Note ON: Time 381360, Note Name: A#2, Velocity: 62
Note OFF: Time 381479, Note Name: A#2
Note ON: Time 381480, Note Name: E3, Velocity: 56
Note OFF: Time 381599, Note Name: E3
Note ON: Time 381600, Note Name: G2, Velocity: 66
Note OFF: Time 381719, Note Name: G2
Note ON: Time 381720, Note Name: E3, Velocity: 54
Note OFF: Time 381839, Note Name: E3
Note ON: Time 381840, Note Name: A#2, Velocity: 60
Note OFF: Time 381959, Note Name: A#2
Note ON: Time 381960, Note Name: E3, Velocity: 54
Note OFF: Time 382079, Note Name: E3
Note ON: Time 382080, Note Name: G#2, Velocity: 66
Note OFF: Time 382199, Note Name: G#2
Note ON: Time 382200, Note Name: E3, Velocity: 58
Note OFF: Time 382319, Note Name: E3
Note ON: Time 382320, Note Name: C#3, Velocity: 62
Note OFF: Time 382439, Note Name: C#3
Note ON: Time 382440, Note Name: E3, Velocity: 56
Note OFF: Time 382559, Note Name: E3
Note ON: Time 382560, Note Name: G#2, Velocity: 66
Note OFF: Time 382679, Note Name: G#2
Note ON: Time 382680, Note Name: E3, Velocity: 56
Note OFF: Time 382799, Note Name: E3
Note ON: Time 382800, Note Name: C#3, Velocity: 62
Note OFF: Time 382919, Note Name: C#3
Note ON: Time 382920, Note Name: E3, Velocity: 57
Note OFF: Time 383039, Note Name: E3
Note ON: Time 383040, Note Name: G#1, Velocity: 66
Note OFF: Time 383159, Note Name: G#1
Note ON: Time 383160, Note Name: G#2, Velocity: 57
Note OFF: Time 383279, Note Name: G#2
Note ON: Time 383280, Note Name: G2, Velocity: 62
Note OFF: Time 383399, Note Name: G2
Note ON: Time 383400, Note Name: G#2, Velocity: 57
Note OFF: Time 383519, Note Name: G#2
Note ON: Time 383520, Note Name: G2, Velocity: 66
Note OFF: Time 383639, Note Name: G2
Note ON: Time 383640, Note Name: G#2, Velocity: 57
Note OFF: Time 383759, Note Name: G#2
Note ON: Time 383760, Note Name: G2, Velocity: 62
Note OFF: Time 383879, Note Name: G2
Note ON: Time 383880, Note Name: G#2, Velocity: 58
Note OFF: Time 383999, Note Name: G#2
Note ON: Time 384000, Note Name: C#2, Velocity: 59
Note ON: Time 384000, Note Name: C#3, Velocity: 59
Note ON: Time 384000, Note Name: E3, Velocity: 59
Note ON: Time 384000, Note Name: C#4, Velocity: 59
Note OFF: Time 384240, Note Name: C#4
Note OFF: Time 384240, Note Name: C#2
Note OFF: Time 384240, Note Name: C#3
Note OFF: Time 384240, Note Name: E3
Note ON: Time 384240, Note Name: C#3, Velocity: 40
Note OFF: Time 384360, Note Name: C#3
Note ON: Time 384480, Note Name: C#3, Velocity: 40
Note OFF: Time 384600, Note Name: C#3
Note ON: Time 384720, Note Name: C#3, Velocity: 40
Note OFF: Time 384840, Note Name: C#3
Note ON: Time 384960, Note Name: C#3, Velocity: 40
Note OFF: Time 385080, Note Name: C#3
Note ON: Time 385200, Note Name: C#3, Velocity: 40
Note OFF: Time 385320, Note Name: C#3
Note ON: Time 385440, Note Name: D#3, Velocity: 39
Note OFF: Time 385560, Note Name: D#3
Note ON: Time 385680, Note Name: E3, Velocity: 39
Note OFF: Time 385800, Note Name: E3
Note ON: Time 385920, Note Name: G#2, Velocity: 45
Note ON: Time 385920, Note Name: F#3, Velocity: 45
Note OFF: Time 386160, Note Name: F#3
Note OFF: Time 386160, Note Name: G#2
Note ON: Time 386160, Note Name: G#3, Velocity: 39
Note ON: Time 386160, Note Name: F#3, Velocity: 39
Note OFF: Time 386280, Note Name: F#3
Note OFF: Time 386280, Note Name: G#3
Note ON: Time 386400, Note Name: G#3, Velocity: 39
Note ON: Time 386400, Note Name: F#3, Velocity: 39
Note OFF: Time 386520, Note Name: F#3
Note OFF: Time 386520, Note Name: G#3
Note ON: Time 386640, Note Name: G#3, Velocity: 39
Note ON: Time 386640, Note Name: F#3, Velocity: 39
Note OFF: Time 386760, Note Name: F#3
Note OFF: Time 386760, Note Name: G#3
Note ON: Time 386880, Note Name: F#3, Velocity: 39
Note ON: Time 386880, Note Name: G#3, Velocity: 39
Note OFF: Time 387000, Note Name: G#3
Note OFF: Time 387000, Note Name: F#3
Note ON: Time 387120, Note Name: F#3, Velocity: 39
Note ON: Time 387120, Note Name: G#3, Velocity: 39
Note OFF: Time 387240, Note Name: G#3
Note OFF: Time 387240, Note Name: F#3
Note ON: Time 387360, Note Name: G#3, Velocity: 39
Note ON: Time 387360, Note Name: E3, Velocity: 39
Note OFF: Time 387480, Note Name: E3
Note OFF: Time 387480, Note Name: G#3
Note ON: Time 387600, Note Name: D#3, Velocity: 42
Note ON: Time 387600, Note Name: G#3, Velocity: 42
Note OFF: Time 387720, Note Name: G#3
Note OFF: Time 387720, Note Name: D#3
Note ON: Time 387840, Note Name: C#3, Velocity: 45
Note ON: Time 387840, Note Name: C#2, Velocity: 45
Note OFF: Time 388080, Note Name: C#2
Note OFF: Time 388080, Note Name: C#3
Note ON: Time 388080, Note Name: C#3, Velocity: 39
Note OFF: Time 388200, Note Name: C#3
Note ON: Time 388320, Note Name: C#3, Velocity: 39
Note OFF: Time 388440, Note Name: C#3
Note ON: Time 388560, Note Name: C#3, Velocity: 39
Note OFF: Time 388680, Note Name: C#3
Note ON: Time 388800, Note Name: C#3, Velocity: 39
Note OFF: Time 388920, Note Name: C#3
Note ON: Time 389040, Note Name: C#3, Velocity: 40
Note OFF: Time 389160, Note Name: C#3
Note ON: Time 389280, Note Name: D#3, Velocity: 39
Note OFF: Time 389400, Note Name: D#3
Note ON: Time 389520, Note Name: E3, Velocity: 39
Note OFF: Time 389640, Note Name: E3
Note ON: Time 389760, Note Name: F#3, Velocity: 47
Note ON: Time 389760, Note Name: G#2, Velocity: 47
Note OFF: Time 390000, Note Name: G#2
Note OFF: Time 390000, Note Name: F#3
Note ON: Time 390000, Note Name: G#3, Velocity: 39
Note ON: Time 390000, Note Name: F#3, Velocity: 39
Note OFF: Time 390120, Note Name: F#3
Note OFF: Time 390120, Note Name: G#3
Note ON: Time 390240, Note Name: F#3, Velocity: 39
Note ON: Time 390240, Note Name: G#3, Velocity: 39
Note OFF: Time 390360, Note Name: G#3
Note OFF: Time 390360, Note Name: F#3
Note ON: Time 390480, Note Name: F#3, Velocity: 39
Note ON: Time 390480, Note Name: G#3, Velocity: 39
Note OFF: Time 390600, Note Name: G#3
Note OFF: Time 390600, Note Name: F#3
Note ON: Time 390720, Note Name: F#3, Velocity: 39
Note ON: Time 390720, Note Name: G#3, Velocity: 39
Note OFF: Time 390840, Note Name: G#3
Note OFF: Time 390840, Note Name: F#3
Note ON: Time 390960, Note Name: F#3, Velocity: 39
Note ON: Time 390960, Note Name: G#3, Velocity: 39
Note OFF: Time 391080, Note Name: G#3
Note OFF: Time 391080, Note Name: F#3
Note ON: Time 391200, Note Name: E3, Velocity: 41
Note ON: Time 391200, Note Name: G#3, Velocity: 41
Note OFF: Time 391320, Note Name: G#3
Note OFF: Time 391320, Note Name: E3
Note ON: Time 391440, Note Name: D#3, Velocity: 43
Note ON: Time 391440, Note Name: G#3, Velocity: 43
Note OFF: Time 391560, Note Name: G#3
Note OFF: Time 391560, Note Name: D#3
Note ON: Time 391680, Note Name: C#3, Velocity: 47
Note ON: Time 391680, Note Name: C#2, Velocity: 42
Note OFF: Time 391800, Note Name: C#2
Note OFF: Time 391800, Note Name: C#3
Note ON: Time 391920, Note Name: C#3, Velocity: 40
Note ON: Time 391920, Note Name: E3, Velocity: 40
Note OFF: Time 392040, Note Name: E3
Note OFF: Time 392040, Note Name: C#3
Note ON: Time 392160, Note Name: E3, Velocity: 40
Note ON: Time 392160, Note Name: C#3, Velocity: 40
Note OFF: Time 392400, Note Name: C#3
Note OFF: Time 392400, Note Name: E3
Note ON: Time 392400, Note Name: G#3, Velocity: 39
Note ON: Time 392400, Note Name: E3, Velocity: 39
Note OFF: Time 392640, Note Name: E3
Note OFF: Time 392640, Note Name: G#3
Note ON: Time 392640, Note Name: F#2, Velocity: 48
Note OFF: Time 392760, Note Name: F#2
Note ON: Time 392880, Note Name: C#3, Velocity: 40
Note ON: Time 392880, Note Name: F#3, Velocity: 40
Note OFF: Time 393000, Note Name: F#3
Note OFF: Time 393000, Note Name: C#3
Note ON: Time 393120, Note Name: F#3, Velocity: 40
Note ON: Time 393120, Note Name: C#3, Velocity: 40
Note OFF: Time 393360, Note Name: C#3
Note OFF: Time 393360, Note Name: F#3
Note ON: Time 393360, Note Name: A3, Velocity: 39
Note ON: Time 393360, Note Name: F#3, Velocity: 39
Note OFF: Time 393600, Note Name: F#3
Note OFF: Time 393600, Note Name: A3
Note ON: Time 393600, Note Name: G#2, Velocity: 48
Note OFF: Time 393720, Note Name: G#2
Note ON: Time 393840, Note Name: E3, Velocity: 39
Note ON: Time 393840, Note Name: C#3, Velocity: 39
Note OFF: Time 393960, Note Name: C#3
Note OFF: Time 393960, Note Name: E3
Note ON: Time 394080, Note Name: C#3, Velocity: 39
Note ON: Time 394080, Note Name: E3, Velocity: 39
Note OFF: Time 394320, Note Name: E3
Note OFF: Time 394320, Note Name: C#3
Note ON: Time 394320, Note Name: E3, Velocity: 39
Note ON: Time 394320, Note Name: G#3, Velocity: 39
Note OFF: Time 394560, Note Name: G#3
Note OFF: Time 394560, Note Name: E3
Note ON: Time 394560, Note Name: G#2, Velocity: 48
Note OFF: Time 394680, Note Name: G#2
Note ON: Time 394800, Note Name: D#3, Velocity: 39
Note ON: Time 394800, Note Name: C3, Velocity: 39
Note OFF: Time 394920, Note Name: C3
Note OFF: Time 394920, Note Name: D#3
Note ON: Time 395040, Note Name: C3, Velocity: 39
Note ON: Time 395040, Note Name: D#3, Velocity: 39
Note OFF: Time 395280, Note Name: D#3
Note OFF: Time 395280, Note Name: C3
Note ON: Time 395280, Note Name: G#3, Velocity: 38
Note ON: Time 395280, Note Name: D#3, Velocity: 38
Note OFF: Time 395520, Note Name: D#3
Note OFF: Time 395520, Note Name: G#3
Note ON: Time 395520, Note Name: C#3, Velocity: 49
Note ON: Time 395520, Note Name: C#2, Velocity: 49
Note OFF: Time 395760, Note Name: C#2
Note OFF: Time 395760, Note Name: C#3
Note ON: Time 395760, Note Name: C#3, Velocity: 39
Note ON: Time 395760, Note Name: G#3, Velocity: 39
Note OFF: Time 395880, Note Name: G#3
Note OFF: Time 395880, Note Name: C#3
Note ON: Time 396000, Note Name: G#3, Velocity: 42
Note ON: Time 396000, Note Name: C#3, Velocity: 42
Note OFF: Time 396120, Note Name: C#3
Note OFF: Time 396120, Note Name: G#3
Note ON: Time 396240, Note Name: G#3, Velocity: 41
Note ON: Time 396240, Note Name: C#3, Velocity: 41
Note OFF: Time 396360, Note Name: C#3
Note OFF: Time 396360, Note Name: G#3
Note ON: Time 396480, Note Name: C#3, Velocity: 39
Note ON: Time 396480, Note Name: G#3, Velocity: 39
Note OFF: Time 396600, Note Name: G#3
Note OFF: Time 396600, Note Name: C#3
Note ON: Time 396720, Note Name: C#3, Velocity: 39
Note ON: Time 396720, Note Name: G#3, Velocity: 39
Note OFF: Time 396840, Note Name: G#3
Note OFF: Time 396840, Note Name: C#3
Note ON: Time 396960, Note Name: G#3, Velocity: 41
Note ON: Time 396960, Note Name: D#3, Velocity: 41
Note OFF: Time 397080, Note Name: D#3
Note OFF: Time 397080, Note Name: G#3
Note ON: Time 397200, Note Name: G#3, Velocity: 44
Note ON: Time 397200, Note Name: E3, Velocity: 44
Note OFF: Time 397320, Note Name: E3
Note OFF: Time 397320, Note Name: G#3
Note ON: Time 397440, Note Name: G#2, Velocity: 47
Note ON: Time 397440, Note Name: G#3, Velocity: 47
Note ON: Time 397440, Note Name: F#3, Velocity: 47
Note OFF: Time 397680, Note Name: F#3
Note OFF: Time 397680, Note Name: G#3
Note OFF: Time 397680, Note Name: G#2
Note ON: Time 397680, Note Name: F#4, Velocity: 58
Note ON: Time 397680, Note Name: G#3, Velocity: 58
Note OFF: Time 397800, Note Name: G#3
Note OFF: Time 397800, Note Name: F#4
Note ON: Time 397920, Note Name: F#4, Velocity: 68
Note ON: Time 397920, Note Name: G#3, Velocity: 68
Note OFF: Time 398040, Note Name: G#3
Note OFF: Time 398040, Note Name: F#4
Note ON: Time 398160, Note Name: G#3, Velocity: 62
Note ON: Time 398160, Note Name: F#4, Velocity: 62
Note OFF: Time 398280, Note Name: F#4
Note OFF: Time 398280, Note Name: G#3
Note ON: Time 398400, Note Name: G#3, Velocity: 68
Note ON: Time 398400, Note Name: F#4, Velocity: 68
Note OFF: Time 398520, Note Name: F#4
Note OFF: Time 398520, Note Name: G#3
Note ON: Time 398640, Note Name: F#4, Velocity: 62
Note ON: Time 398640, Note Name: G#3, Velocity: 62
Note OFF: Time 398760, Note Name: G#3
Note OFF: Time 398760, Note Name: F#4
Note ON: Time 398880, Note Name: G#3, Velocity: 68
Note ON: Time 398880, Note Name: E4, Velocity: 68
Note OFF: Time 399000, Note Name: E4
Note OFF: Time 399000, Note Name: G#3
Note ON: Time 399120, Note Name: D#4, Velocity: 62
Note ON: Time 399120, Note Name: G#3, Velocity: 62
Note OFF: Time 399240, Note Name: G#3
Note OFF: Time 399240, Note Name: D#4
Note ON: Time 399360, Note Name: C#2, Velocity: 68
Note ON: Time 399360, Note Name: C#3, Velocity: 68
Note OFF: Time 399600, Note Name: C#3
Note OFF: Time 399600, Note Name: C#2
Note ON: Time 399600, Note Name: G#3, Velocity: 39
Note ON: Time 399600, Note Name: C#3, Velocity: 39
Note OFF: Time 399720, Note Name: C#3
Note OFF: Time 399720, Note Name: G#3
Note ON: Time 399840, Note Name: G#3, Velocity: 39
Note ON: Time 399840, Note Name: C#3, Velocity: 39
Note OFF: Time 399960, Note Name: C#3
Note OFF: Time 399960, Note Name: G#3
Note ON: Time 400080, Note Name: G#3, Velocity: 39
Note ON: Time 400080, Note Name: C#3, Velocity: 39
Note OFF: Time 400200, Note Name: C#3
Note OFF: Time 400200, Note Name: G#3
Note ON: Time 400320, Note Name: C#3, Velocity: 39
Note ON: Time 400320, Note Name: G#3, Velocity: 39
Note OFF: Time 400440, Note Name: G#3
Note OFF: Time 400440, Note Name: C#3
Note ON: Time 400560, Note Name: C#3, Velocity: 39
Note ON: Time 400560, Note Name: G#3, Velocity: 39
Note OFF: Time 400680, Note Name: G#3
Note OFF: Time 400680, Note Name: C#3
Note ON: Time 400800, Note Name: D#3, Velocity: 39
Note ON: Time 400800, Note Name: G#3, Velocity: 39
Note OFF: Time 400920, Note Name: G#3
Note OFF: Time 400920, Note Name: D#3
Note ON: Time 401040, Note Name: G#3, Velocity: 41
Note ON: Time 401040, Note Name: E3, Velocity: 41
Note OFF: Time 401160, Note Name: E3
Note OFF: Time 401160, Note Name: G#3
Note ON: Time 401280, Note Name: G#2, Velocity: 45
Note ON: Time 401280, Note Name: G#3, Velocity: 45
Note ON: Time 401280, Note Name: F#3, Velocity: 45
Note OFF: Time 401520, Note Name: F#3
Note OFF: Time 401520, Note Name: G#3
Note OFF: Time 401520, Note Name: G#2
Note ON: Time 401520, Note Name: F#4, Velocity: 57
Note ON: Time 401520, Note Name: G#3, Velocity: 57
Note OFF: Time 401640, Note Name: G#3
Note OFF: Time 401640, Note Name: F#4
Note ON: Time 401760, Note Name: G#3, Velocity: 68
Note ON: Time 401760, Note Name: F#4, Velocity: 68
Note OFF: Time 401880, Note Name: F#4
Note OFF: Time 401880, Note Name: G#3
Note ON: Time 402000, Note Name: F#4, Velocity: 60
Note ON: Time 402000, Note Name: G#3, Velocity: 60
Note OFF: Time 402120, Note Name: G#3
Note OFF: Time 402120, Note Name: F#4
Note ON: Time 402240, Note Name: G#3, Velocity: 68
Note ON: Time 402240, Note Name: F#4, Velocity: 68
Note OFF: Time 402360, Note Name: F#4
Note OFF: Time 402360, Note Name: G#3
Note ON: Time 402480, Note Name: F#4, Velocity: 60
Note ON: Time 402480, Note Name: G#3, Velocity: 60
Note OFF: Time 402600, Note Name: G#3
Note OFF: Time 402600, Note Name: F#4
Note ON: Time 402720, Note Name: E4, Velocity: 68
Note ON: Time 402720, Note Name: G#3, Velocity: 68
Note OFF: Time 402840, Note Name: G#3
Note OFF: Time 402840, Note Name: E4
Note ON: Time 402960, Note Name: G#3, Velocity: 59
Note ON: Time 402960, Note Name: D#4, Velocity: 59
Note OFF: Time 403080, Note Name: D#4
Note OFF: Time 403080, Note Name: G#3
Note ON: Time 403200, Note Name: C#4, Velocity: 69
Note ON: Time 403200, Note Name: C#3, Velocity: 69
Note OFF: Time 403440, Note Name: C#3
Note OFF: Time 403440, Note Name: C#4
Note ON: Time 403440, Note Name: C#4, Velocity: 42
Note ON: Time 403440, Note Name: E4, Velocity: 42
Note OFF: Time 403560, Note Name: E4
Note OFF: Time 403560, Note Name: C#4
Note ON: Time 403680, Note Name: E4, Velocity: 43
Note ON: Time 403680, Note Name: C#4, Velocity: 43
Note OFF: Time 403920, Note Name: C#4
Note OFF: Time 403920, Note Name: E4
Note ON: Time 403920, Note Name: G#4, Velocity: 39
Note ON: Time 403920, Note Name: E4, Velocity: 39
Note OFF: Time 404160, Note Name: E4
Note OFF: Time 404160, Note Name: G#4
Note ON: Time 404160, Note Name: F#3, Velocity: 48
Note OFF: Time 404280, Note Name: F#3
Note ON: Time 404400, Note Name: F#4, Velocity: 40
Note ON: Time 404400, Note Name: C#4, Velocity: 40
Note OFF: Time 404520, Note Name: C#4
Note OFF: Time 404520, Note Name: F#4
Note ON: Time 404640, Note Name: F#4, Velocity: 42
Note ON: Time 404640, Note Name: C#4, Velocity: 42
Note OFF: Time 404880, Note Name: C#4
Note OFF: Time 404880, Note Name: F#4
Note ON: Time 404880, Note Name: F#4, Velocity: 39
Note ON: Time 404880, Note Name: A4, Velocity: 39
Note OFF: Time 405120, Note Name: A4
Note OFF: Time 405120, Note Name: F#4
Note ON: Time 405120, Note Name: G#3, Velocity: 47
Note OFF: Time 405240, Note Name: G#3
Note ON: Time 405360, Note Name: C#4, Velocity: 42
Note ON: Time 405360, Note Name: E4, Velocity: 42
Note OFF: Time 405480, Note Name: E4
Note OFF: Time 405480, Note Name: C#4
Note ON: Time 405600, Note Name: E4, Velocity: 42
Note ON: Time 405600, Note Name: C#4, Velocity: 42
Note OFF: Time 405840, Note Name: C#4
Note OFF: Time 405840, Note Name: E4
Note ON: Time 405840, Note Name: G#4, Velocity: 39
Note ON: Time 405840, Note Name: E4, Velocity: 39
Note OFF: Time 406080, Note Name: E4
Note OFF: Time 406080, Note Name: G#4
Note ON: Time 406080, Note Name: F#3, Velocity: 47
Note OFF: Time 406200, Note Name: F#3
Note ON: Time 406320, Note Name: D#4, Velocity: 42
Note ON: Time 406320, Note Name: C4, Velocity: 42
Note OFF: Time 406440, Note Name: C4
Note OFF: Time 406440, Note Name: D#4
Note ON: Time 406560, Note Name: D#4, Velocity: 42
Note ON: Time 406560, Note Name: C4, Velocity: 42
Note OFF: Time 406800, Note Name: C4
Note OFF: Time 406800, Note Name: D#4
Note ON: Time 406800, Note Name: D#4, Velocity: 40
Note ON: Time 406800, Note Name: G#4, Velocity: 40
Note OFF: Time 407040, Note Name: G#4
Note OFF: Time 407040, Note Name: D#4
Note ON: Time 407040, Note Name: E3, Velocity: 47
Note OFF: Time 407280, Note Name: E3
Note ON: Time 407280, Note Name: C#4, Velocity: 42
Note ON: Time 407280, Note Name: G#3, Velocity: 42
Note OFF: Time 407400, Note Name: G#3
Note OFF: Time 407400, Note Name: C#4
Note ON: Time 407520, Note Name: C#4, Velocity: 42
Note ON: Time 407520, Note Name: G#3, Velocity: 42
Note OFF: Time 407760, Note Name: G#3
Note OFF: Time 407760, Note Name: C#4
Note ON: Time 407760, Note Name: E4, Velocity: 39
Note ON: Time 407760, Note Name: C#4, Velocity: 39
Note OFF: Time 408000, Note Name: C#4
Note OFF: Time 408000, Note Name: E4
Note ON: Time 408000, Note Name: F#2, Velocity: 47
Note OFF: Time 408240, Note Name: F#2
Note ON: Time 408240, Note Name: A3, Velocity: 43
Note ON: Time 408240, Note Name: F#3, Velocity: 43
Note OFF: Time 408360, Note Name: F#3
Note OFF: Time 408360, Note Name: A3
Note ON: Time 408480, Note Name: F#3, Velocity: 43
Note ON: Time 408480, Note Name: A3, Velocity: 43
Note OFF: Time 408720, Note Name: A3
Note OFF: Time 408720, Note Name: F#3
Note ON: Time 408720, Note Name: D4, Velocity: 41
Note ON: Time 408720, Note Name: A3, Velocity: 41
Note OFF: Time 408960, Note Name: A3
Note OFF: Time 408960, Note Name: D4
Note ON: Time 408960, Note Name: G#2, Velocity: 45
Note OFF: Time 409200, Note Name: G#2
Note ON: Time 409200, Note Name: G#3, Velocity: 39
Note ON: Time 409200, Note Name: E3, Velocity: 39
Note OFF: Time 409320, Note Name: E3
Note OFF: Time 409320, Note Name: G#3
Note ON: Time 409440, Note Name: E3, Velocity: 40
Note ON: Time 409440, Note Name: G#3, Velocity: 40
Note OFF: Time 409680, Note Name: G#3
Note OFF: Time 409680, Note Name: E3
Note ON: Time 409680, Note Name: G#3, Velocity: 42
Note ON: Time 409680, Note Name: C#4, Velocity: 42
Note OFF: Time 409920, Note Name: C#4
Note OFF: Time 409920, Note Name: G#3
Note ON: Time 409920, Note Name: G#2, Velocity: 48
Note OFF: Time 410160, Note Name: G#2
Note ON: Time 410160, Note Name: D#3, Velocity: 39
Note ON: Time 410160, Note Name: F#3, Velocity: 39
Note OFF: Time 410280, Note Name: F#3
Note OFF: Time 410280, Note Name: D#3
Note ON: Time 410400, Note Name: F#3, Velocity: 39
Note ON: Time 410400, Note Name: D#3, Velocity: 39
Note OFF: Time 410640, Note Name: D#3
Note OFF: Time 410640, Note Name: F#3
Note ON: Time 410640, Note Name: F#3, Velocity: 39
Note ON: Time 410640, Note Name: C4, Velocity: 39
Note OFF: Time 410880, Note Name: C4
Note OFF: Time 410880, Note Name: F#3
Note ON: Time 410880, Note Name: C#2, Velocity: 49
Note OFF: Time 410999, Note Name: C#2
Note ON: Time 411000, Note Name: C#3, Velocity: 31
Note OFF: Time 411119, Note Name: C#3
Note ON: Time 411120, Note Name: G#2, Velocity: 36
Note OFF: Time 411239, Note Name: G#2
Note ON: Time 411240, Note Name: C#3, Velocity: 32
Note OFF: Time 411359, Note Name: C#3
Note ON: Time 411360, Note Name: C#2, Velocity: 41
Note OFF: Time 411479, Note Name: C#2
Note ON: Time 411480, Note Name: C#3, Velocity: 32
Note OFF: Time 411599, Note Name: C#3
Note ON: Time 411600, Note Name: G#2, Velocity: 36
Note OFF: Time 411719, Note Name: G#2
Note ON: Time 411720, Note Name: C#3, Velocity: 32
Note OFF: Time 411839, Note Name: C#3
Note ON: Time 411840, Note Name: C#2, Velocity: 41
Note OFF: Time 411959, Note Name: C#2
Note ON: Time 411960, Note Name: C#3, Velocity: 32
Note OFF: Time 412079, Note Name: C#3
Note ON: Time 412080, Note Name: G#2, Velocity: 37
Note OFF: Time 412199, Note Name: G#2
Note ON: Time 412200, Note Name: C#3, Velocity: 37
Note OFF: Time 412319, Note Name: C#3
Note ON: Time 412320, Note Name: C#2, Velocity: 41
Note OFF: Time 412439, Note Name: C#2
Note ON: Time 412440, Note Name: C#3, Velocity: 32
Note OFF: Time 412559, Note Name: C#3
Note ON: Time 412560, Note Name: G#2, Velocity: 37
Note OFF: Time 412679, Note Name: G#2
Note ON: Time 412680, Note Name: C#3, Velocity: 33
Note OFF: Time 412799, Note Name: C#3
Note ON: Time 412800, Note Name: C#2, Velocity: 41
Note OFF: Time 412919, Note Name: C#2
Note ON: Time 412920, Note Name: D#3, Velocity: 33
Note OFF: Time 413039, Note Name: D#3
Note ON: Time 413040, Note Name: G#2, Velocity: 38
Note OFF: Time 413159, Note Name: G#2
Note ON: Time 413160, Note Name: D#3, Velocity: 33
Note OFF: Time 413279, Note Name: D#3
Note ON: Time 413280, Note Name: C#2, Velocity: 41
Note OFF: Time 413399, Note Name: C#2
Note ON: Time 413400, Note Name: D#3, Velocity: 32
Note OFF: Time 413519, Note Name: D#3
Note ON: Time 413520, Note Name: G#2, Velocity: 37
Note OFF: Time 413639, Note Name: G#2
Note ON: Time 413640, Note Name: D#3, Velocity: 32
Note OFF: Time 413759, Note Name: D#3
Note ON: Time 413760, Note Name: C#2, Velocity: 41
Note OFF: Time 413879, Note Name: C#2
Note ON: Time 413880, Note Name: D#3, Velocity: 33
Note OFF: Time 413999, Note Name: D#3
Note ON: Time 414000, Note Name: G#2, Velocity: 38
Note OFF: Time 414119, Note Name: G#2
Note ON: Time 414120, Note Name: D#3, Velocity: 33
Note OFF: Time 414239, Note Name: D#3
Note ON: Time 414240, Note Name: C#2, Velocity: 41
Note OFF: Time 414359, Note Name: C#2
Note ON: Time 414360, Note Name: D#3, Velocity: 32
Note OFF: Time 414479, Note Name: D#3
Note ON: Time 414480, Note Name: G#2, Velocity: 36
Note OFF: Time 414599, Note Name: G#2
Note ON: Time 414600, Note Name: D#3, Velocity: 33
Note OFF: Time 414719, Note Name: D#3
Note ON: Time 414720, Note Name: C#2, Velocity: 41
Note OFF: Time 414839, Note Name: C#2
Note ON: Time 414840, Note Name: C#3, Velocity: 33
Note OFF: Time 414959, Note Name: C#3
Note ON: Time 414960, Note Name: G#2, Velocity: 37
Note OFF: Time 415079, Note Name: G#2
Note ON: Time 415080, Note Name: C#3, Velocity: 33
Note OFF: Time 415199, Note Name: C#3
Note ON: Time 415200, Note Name: C#2, Velocity: 41
Note OFF: Time 415319, Note Name: C#2
Note ON: Time 415320, Note Name: C#3, Velocity: 34
Note OFF: Time 415439, Note Name: C#3
Note ON: Time 415440, Note Name: G#2, Velocity: 38
Note OFF: Time 415559, Note Name: G#2
Note ON: Time 415560, Note Name: C#3, Velocity: 34
Note OFF: Time 415679, Note Name: C#3
Note ON: Time 415680, Note Name: C#2, Velocity: 41
Note OFF: Time 415799, Note Name: C#2
Note ON: Time 415800, Note Name: C#3, Velocity: 34
Note OFF: Time 415919, Note Name: C#3
Note ON: Time 415920, Note Name: G#2, Velocity: 38
Note OFF: Time 416039, Note Name: G#2
Note ON: Time 416040, Note Name: C#3, Velocity: 33
Note OFF: Time 416159, Note Name: C#3
Note ON: Time 416160, Note Name: C#2, Velocity: 41
Note OFF: Time 416279, Note Name: C#2
Note ON: Time 416280, Note Name: C#3, Velocity: 33
Note OFF: Time 416399, Note Name: C#3
Note ON: Time 416400, Note Name: G#2, Velocity: 36
Note OFF: Time 416519, Note Name: G#2
Note ON: Time 416520, Note Name: C#3, Velocity: 32
Note OFF: Time 416639, Note Name: C#3
Note ON: Time 416640, Note Name: C#2, Velocity: 41
Note OFF: Time 416759, Note Name: C#2
Note ON: Time 416760, Note Name: D#3, Velocity: 33
Note OFF: Time 416879, Note Name: D#3
Note ON: Time 416880, Note Name: G#2, Velocity: 36
Note OFF: Time 416999, Note Name: G#2
Note ON: Time 417000, Note Name: D#3, Velocity: 33
Note OFF: Time 417119, Note Name: D#3
Note ON: Time 417120, Note Name: C#2, Velocity: 41
Note OFF: Time 417239, Note Name: C#2
Note ON: Time 417240, Note Name: D#3, Velocity: 33
Note OFF: Time 417359, Note Name: D#3
Note ON: Time 417360, Note Name: G#2, Velocity: 36
Note OFF: Time 417479, Note Name: G#2
Note ON: Time 417480, Note Name: D#3, Velocity: 33
Note OFF: Time 417599, Note Name: D#3
Note ON: Time 417600, Note Name: C#2, Velocity: 41
Note OFF: Time 417719, Note Name: C#2
Note ON: Time 417720, Note Name: D#3, Velocity: 32
Note OFF: Time 417839, Note Name: D#3
Note ON: Time 417840, Note Name: G#2, Velocity: 36
Note OFF: Time 417959, Note Name: G#2
Note ON: Time 417960, Note Name: D#3, Velocity: 33
Note OFF: Time 418079, Note Name: D#3
Note ON: Time 418080, Note Name: C#2, Velocity: 41
Note OFF: Time 418199, Note Name: C#2
Note ON: Time 418200, Note Name: D#3, Velocity: 35
Note OFF: Time 418319, Note Name: D#3
Note ON: Time 418320, Note Name: G#2, Velocity: 39
Note OFF: Time 418439, Note Name: G#2
Note ON: Time 418440, Note Name: D#3, Velocity: 34
Note OFF: Time 418559, Note Name: D#3
Note ON: Time 418560, Note Name: C#2, Velocity: 41
Note OFF: Time 418679, Note Name: C#2
Note ON: Time 418680, Note Name: C#3, Velocity: 33
Note OFF: Time 418799, Note Name: C#3
Note ON: Time 418800, Note Name: G#2, Velocity: 36
Note OFF: Time 418919, Note Name: G#2
Note ON: Time 418920, Note Name: C#3, Velocity: 33
Note OFF: Time 419039, Note Name: C#3
Note ON: Time 419040, Note Name: C#2, Velocity: 42
Note OFF: Time 419159, Note Name: C#2
Note ON: Time 419160, Note Name: C#3, Velocity: 31
Note OFF: Time 419279, Note Name: C#3
Note ON: Time 419280, Note Name: G#2, Velocity: 35
Note OFF: Time 419399, Note Name: G#2
Note ON: Time 419400, Note Name: C#3, Velocity: 32
Note OFF: Time 419519, Note Name: C#3
Note ON: Time 419520, Note Name: C#2, Velocity: 41
Note OFF: Time 419639, Note Name: C#2
Note ON: Time 419640, Note Name: D#3, Velocity: 33
Note OFF: Time 419759, Note Name: D#3
Note ON: Time 419760, Note Name: G#2, Velocity: 37
Note OFF: Time 419879, Note Name: G#2
Note ON: Time 419880, Note Name: D#3, Velocity: 33
Note OFF: Time 419999, Note Name: D#3
Note ON: Time 420000, Note Name: C#2, Velocity: 41
Note OFF: Time 420119, Note Name: C#2
Note ON: Time 420120, Note Name: D#3, Velocity: 33
Note OFF: Time 420239, Note Name: D#3
Note ON: Time 420240, Note Name: G#2, Velocity: 38
Note OFF: Time 420359, Note Name: G#2
Note ON: Time 420360, Note Name: D#3, Velocity: 34
Note OFF: Time 420479, Note Name: D#3
Note ON: Time 420480, Note Name: C#2, Velocity: 41
Note OFF: Time 420599, Note Name: C#2
Note ON: Time 420600, Note Name: C#3, Velocity: 33
Note OFF: Time 420719, Note Name: C#3
Note ON: Time 420720, Note Name: G#2, Velocity: 36
Note OFF: Time 420839, Note Name: G#2
Note ON: Time 420840, Note Name: C#3, Velocity: 32
Note OFF: Time 420959, Note Name: C#3
Note ON: Time 420960, Note Name: C#2, Velocity: 41
Note OFF: Time 421079, Note Name: C#2
Note ON: Time 421080, Note Name: C#3, Velocity: 33
Note OFF: Time 421199, Note Name: C#3
Note ON: Time 421200, Note Name: G#2, Velocity: 36
Note OFF: Time 421319, Note Name: G#2
Note ON: Time 421320, Note Name: C#3, Velocity: 33
Note OFF: Time 421439, Note Name: C#3
Note ON: Time 421440, Note Name: C#2, Velocity: 41
Note OFF: Time 421559, Note Name: C#2
Note ON: Time 421560, Note Name: D#3, Velocity: 33
Note OFF: Time 421679, Note Name: D#3
Note ON: Time 421680, Note Name: G#2, Velocity: 37
Note OFF: Time 421799, Note Name: G#2
Note ON: Time 421800, Note Name: D#3, Velocity: 33
Note OFF: Time 421919, Note Name: D#3
Note ON: Time 421920, Note Name: C#2, Velocity: 41
Note OFF: Time 422039, Note Name: C#2
Note ON: Time 422040, Note Name: D#3, Velocity: 33
Note OFF: Time 422159, Note Name: D#3
Note ON: Time 422160, Note Name: G#2, Velocity: 37
Note OFF: Time 422279, Note Name: G#2
Note ON: Time 422280, Note Name: D#3, Velocity: 34
Note OFF: Time 422399, Note Name: D#3
Note ON: Time 422400, Note Name: C#2, Velocity: 41
Note OFF: Time 422519, Note Name: C#2
Note ON: Time 422520, Note Name: C#3, Velocity: 39
Note OFF: Time 422639, Note Name: C#3
Note ON: Time 422640, Note Name: G#2, Velocity: 43
Note OFF: Time 422759, Note Name: G#2
Note ON: Time 422760, Note Name: C#3, Velocity: 42
Note OFF: Time 422879, Note Name: C#3
Note ON: Time 422880, Note Name: C#2, Velocity: 45
Note OFF: Time 422999, Note Name: C#2
Note ON: Time 423000, Note Name: C#3, Velocity: 43
Note OFF: Time 423119, Note Name: C#3
Note ON: Time 423120, Note Name: G#2, Velocity: 47
Note OFF: Time 423239, Note Name: G#2
Note ON: Time 423240, Note Name: C#3, Velocity: 43
Note OFF: Time 423359, Note Name: C#3
Note ON: Time 423360, Note Name: C#2, Velocity: 48
Note OFF: Time 423479, Note Name: C#2
Note ON: Time 423480, Note Name: C#3, Velocity: 45
Note OFF: Time 423599, Note Name: C#3
Note ON: Time 423600, Note Name: G#2, Velocity: 50
Note OFF: Time 423719, Note Name: G#2
Note ON: Time 423720, Note Name: C#3, Velocity: 45
Note OFF: Time 423839, Note Name: C#3
Note ON: Time 423840, Note Name: C#2, Velocity: 51
Note OFF: Time 423959, Note Name: C#2
Note ON: Time 423960, Note Name: C#3, Velocity: 47
Note OFF: Time 424079, Note Name: C#3
Note ON: Time 424080, Note Name: G#2, Velocity: 52
Note OFF: Time 424199, Note Name: G#2
Note ON: Time 424200, Note Name: C#3, Velocity: 49
Note OFF: Time 424319, Note Name: C#3
Note ON: Time 424320, Note Name: B1, Velocity: 55
Note OFF: Time 424439, Note Name: B1
Note ON: Time 424440, Note Name: B2, Velocity: 50
Note OFF: Time 424559, Note Name: B2
Note ON: Time 424560, Note Name: C#2, Velocity: 56
Note OFF: Time 424679, Note Name: C#2
Note ON: Time 424680, Note Name: B2, Velocity: 51
Note OFF: Time 424799, Note Name: B2
Note ON: Time 424800, Note Name: B1, Velocity: 57
Note OFF: Time 424919, Note Name: B1
Note ON: Time 424920, Note Name: B2, Velocity: 52
Note OFF: Time 425039, Note Name: B2
Note ON: Time 425040, Note Name: C#2, Velocity: 58
Note OFF: Time 425159, Note Name: C#2
Note ON: Time 425160, Note Name: B2, Velocity: 53
Note OFF: Time 425279, Note Name: B2
Note ON: Time 425280, Note Name: B1, Velocity: 61
Note OFF: Time 425399, Note Name: B1
Note ON: Time 425400, Note Name: B2, Velocity: 57
Note OFF: Time 425519, Note Name: B2
Note ON: Time 425520, Note Name: C#2, Velocity: 62
Note OFF: Time 425639, Note Name: C#2
Note ON: Time 425640, Note Name: B2, Velocity: 57
Note OFF: Time 425759, Note Name: B2
Note ON: Time 425760, Note Name: B1, Velocity: 62
Note OFF: Time 425879, Note Name: B1
Note ON: Time 425880, Note Name: B2, Velocity: 58
Note OFF: Time 425999, Note Name: B2
Note ON: Time 426000, Note Name: C#2, Velocity: 64
Note OFF: Time 426119, Note Name: C#2
Note ON: Time 426120, Note Name: B2, Velocity: 60
Note OFF: Time 426222, Note Name: B2
Note ON: Time 426240, Note Name: A1, Velocity: 56
Note ON: Time 426240, Note Name: A2, Velocity: 67
Note OFF: Time 426360, Note Name: A2
Note OFF: Time 426360, Note Name: A1
Note ON: Time 426480, Note Name: F#2, Velocity: 39
Note OFF: Time 426600, Note Name: F#2
Note ON: Time 426720, Note Name: A1, Velocity: 39
Note OFF: Time 426840, Note Name: A1
Note ON: Time 426960, Note Name: F#2, Velocity: 36
Note OFF: Time 427080, Note Name: F#2
Note ON: Time 427200, Note Name: A1, Velocity: 39
Note OFF: Time 427320, Note Name: A1
Note ON: Time 427440, Note Name: F#2, Velocity: 35
Note OFF: Time 427560, Note Name: F#2
Note ON: Time 427680, Note Name: A1, Velocity: 39
Note OFF: Time 427800, Note Name: A1
Note ON: Time 427920, Note Name: F#2, Velocity: 35
Note OFF: Time 428040, Note Name: F#2
Note ON: Time 428160, Note Name: A1, Velocity: 39
Note OFF: Time 428280, Note Name: A1
Note ON: Time 428400, Note Name: F#2, Velocity: 40
Note OFF: Time 428520, Note Name: F#2
Note ON: Time 428640, Note Name: A1, Velocity: 40
Note OFF: Time 428760, Note Name: A1
Note ON: Time 428880, Note Name: F#2, Velocity: 40
Note OFF: Time 429000, Note Name: F#2
Note ON: Time 429120, Note Name: A1, Velocity: 40
Note OFF: Time 429240, Note Name: A1
Note ON: Time 429360, Note Name: F#2, Velocity: 36
Note OFF: Time 429480, Note Name: F#2
Note ON: Time 429600, Note Name: A2, Velocity: 81
Note ON: Time 429600, Note Name: A1, Velocity: 69
Note OFF: Time 429720, Note Name: A1
Note OFF: Time 429720, Note Name: A2
Note ON: Time 429840, Note Name: F#2, Velocity: 69
Note OFF: Time 429960, Note Name: F#2
Note ON: Time 430080, Note Name: G#1, Velocity: 52
Note OFF: Time 430200, Note Name: G#1
Note ON: Time 430320, Note Name: E2, Velocity: 47
Note OFF: Time 430440, Note Name: E2
Note ON: Time 430560, Note Name: G#1, Velocity: 52
Note OFF: Time 430680, Note Name: G#1
Note ON: Time 430800, Note Name: E2, Velocity: 48
Note OFF: Time 430920, Note Name: E2
Note ON: Time 431040, Note Name: G#1, Velocity: 52
Note OFF: Time 431160, Note Name: G#1
Note ON: Time 431280, Note Name: E2, Velocity: 48
Note OFF: Time 431400, Note Name: E2
Note ON: Time 431520, Note Name: G#1, Velocity: 52
Note OFF: Time 431640, Note Name: G#1
Note ON: Time 431760, Note Name: E2, Velocity: 52
Note OFF: Time 431880, Note Name: E2
Note ON: Time 432000, Note Name: G#1, Velocity: 52
Note OFF: Time 432120, Note Name: G#1
Note ON: Time 432240, Note Name: E2, Velocity: 52
Note OFF: Time 432360, Note Name: E2
Note ON: Time 432480, Note Name: G#1, Velocity: 52
Note OFF: Time 432600, Note Name: G#1
Note ON: Time 432720, Note Name: E2, Velocity: 48
Note OFF: Time 432840, Note Name: E2
Note ON: Time 432960, Note Name: G#1, Velocity: 52
Note OFF: Time 433080, Note Name: G#1
Note ON: Time 433200, Note Name: E2, Velocity: 48
Note OFF: Time 433320, Note Name: E2
Note ON: Time 433440, Note Name: G#1, Velocity: 72
Note ON: Time 433440, Note Name: G#2, Velocity: 86
Note OFF: Time 433560, Note Name: G#2
Note OFF: Time 433560, Note Name: G#1
Note ON: Time 433680, Note Name: E2, Velocity: 77
Note OFF: Time 433800, Note Name: E2
Note ON: Time 433920, Note Name: G1, Velocity: 39
Note OFF: Time 434640, Note Name: G1
Note ON: Time 434640, Note Name: G1, Velocity: 45
Note ON: Time 434700, Note Name: A#1, Velocity: 47
Note ON: Time 434760, Note Name: C#2, Velocity: 50
Note ON: Time 434820, Note Name: E2, Velocity: 51
Note ON: Time 434880, Note Name: G2, Velocity: 53
Note OFF: Time 435600, Note Name: G2
Note OFF: Time 435600, Note Name: C#2
Note OFF: Time 435600, Note Name: G1
Note OFF: Time 435600, Note Name: A#1
Note OFF: Time 435600, Note Name: E2
Note ON: Time 435600, Note Name: G2, Velocity: 51
Note ON: Time 435660, Note Name: A#2, Velocity: 56
Note ON: Time 435720, Note Name: C#3, Velocity: 58
Note ON: Time 435780, Note Name: E3, Velocity: 61
Note ON: Time 435840, Note Name: G3, Velocity: 63
Note OFF: Time 436080, Note Name: G3
Note OFF: Time 436320, Note Name: C#3
Note OFF: Time 436320, Note Name: G2
Note OFF: Time 436320, Note Name: A#2
Note OFF: Time 436320, Note Name: E3
Note ON: Time 436320, Note Name: E4, Velocity: 79
Note ON: Time 436320, Note Name: C#4, Velocity: 79
Note ON: Time 436320, Note Name: G3, Velocity: 67
Note ON: Time 436320, Note Name: A#3, Velocity: 67
Note OFF: Time 437760, Note Name: A#3
Note OFF: Time 437760, Note Name: E4
Note OFF: Time 437760, Note Name: C#4
Note OFF: Time 437760, Note Name: G3
Note ON: Time 437760, Note Name: F#1, Velocity: 47
Note OFF: Time 438480, Note Name: F#1
Note ON: Time 438480, Note Name: F#1, Velocity: 41
Note ON: Time 438540, Note Name: A1, Velocity: 43
Note ON: Time 438600, Note Name: C2, Velocity: 47
Note ON: Time 438660, Note Name: D#2, Velocity: 49
Note ON: Time 438720, Note Name: F#2, Velocity: 52
Note OFF: Time 439440, Note Name: F#2
Note OFF: Time 439440, Note Name: C2
Note OFF: Time 439440, Note Name: F#1
Note OFF: Time 439440, Note Name: A1
Note OFF: Time 439440, Note Name: D#2
Note ON: Time 439440, Note Name: F#2, Velocity: 54
Note ON: Time 439500, Note Name: A2, Velocity: 56
Note ON: Time 439560, Note Name: C3, Velocity: 58
Note ON: Time 439620, Note Name: D#3, Velocity: 61
Note ON: Time 439680, Note Name: F#3, Velocity: 62
Note OFF: Time 439920, Note Name: F#3
Note OFF: Time 440160, Note Name: C3
Note OFF: Time 440160, Note Name: F#2
Note OFF: Time 440160, Note Name: A2
Note OFF: Time 440160, Note Name: D#3
Note ON: Time 440160, Note Name: D#4, Velocity: 79
Note ON: Time 440160, Note Name: A3, Velocity: 67
Note ON: Time 440160, Note Name: F#3, Velocity: 67
Note ON: Time 440160, Note Name: C4, Velocity: 79
Note OFF: Time 441600, Note Name: C4
Note OFF: Time 441600, Note Name: D#4
Note OFF: Time 441600, Note Name: A3
Note OFF: Time 441600, Note Name: F#3
Note ON: Time 441600, Note Name: C#3, Velocity: 41
Note OFF: Time 441840, Note Name: C#3
Note ON: Time 442080, Note Name: G#3, Velocity: 56
Note OFF: Time 443040, Note Name: G#3
Note ON: Time 443040, Note Name: E3, Velocity: 48
Note OFF: Time 443400, Note Name: E3
Note ON: Time 443400, Note Name: C#3, Velocity: 48
Note OFF: Time 443515, Note Name: C#3
Note ON: Time 443520, Note Name: C#3, Velocity: 54
Note OFF: Time 444000, Note Name: C#3
Note ON: Time 444000, Note Name: C3, Velocity: 47
Note OFF: Time 444720, Note Name: C3
Note ON: Time 444720, Note Name: C3, Velocity: 47
Note OFF: Time 444960, Note Name: C3
Note ON: Time 444960, Note Name: G#3, Velocity: 56
Note OFF: Time 445320, Note Name: G#3
Note ON: Time 445320, Note Name: C3, Velocity: 47
Note OFF: Time 445440, Note Name: C3
Note ON: Time 445440, Note Name: D#3, Velocity: 43
Note OFF: Time 445920, Note Name: D#3
Note ON: Time 445920, Note Name: C#3, Velocity: 47
Note OFF: Time 446640, Note Name: C#3
Note ON: Time 446640, Note Name: C#3, Velocity: 48
Note OFF: Time 446880, Note Name: C#3
Note ON: Time 446880, Note Name: G#3, Velocity: 53
Note OFF: Time 447240, Note Name: G#3
Note ON: Time 447240, Note Name: C#3, Velocity: 47
Note OFF: Time 447360, Note Name: C#3
Note ON: Time 447360, Note Name: E3, Velocity: 43
Note OFF: Time 447840, Note Name: E3
Note ON: Time 447840, Note Name: D#3, Velocity: 47
Note OFF: Time 448560, Note Name: D#3
Note ON: Time 448560, Note Name: D#3, Velocity: 48
Note OFF: Time 448800, Note Name: D#3
Note ON: Time 448800, Note Name: G#3, Velocity: 53
Note OFF: Time 449160, Note Name: G#3
Note ON: Time 449160, Note Name: D#3, Velocity: 47
Note OFF: Time 449280, Note Name: D#3
Note ON: Time 449280, Note Name: E3, Velocity: 40
Note ON: Time 449400, Note Name: G#3, Velocity: 35
Note OFF: Time 449420, Note Name: E3
Note ON: Time 449520, Note Name: E3, Velocity: 40
Note OFF: Time 449540, Note Name: G#3
Note ON: Time 449640, Note Name: G#3, Velocity: 34
Note OFF: Time 449660, Note Name: E3
Note ON: Time 449760, Note Name: E3, Velocity: 47
Note OFF: Time 449780, Note Name: G#3
Note OFF: Time 449879, Note Name: E3
Note ON: Time 449880, Note Name: G#3, Velocity: 34
Note OFF: Time 449999, Note Name: G#3
Note ON: Time 450000, Note Name: E3, Velocity: 40
Note OFF: Time 450119, Note Name: E3
Note ON: Time 450120, Note Name: G#3, Velocity: 34
Note OFF: Time 450239, Note Name: G#3
Note ON: Time 450240, Note Name: E3, Velocity: 47
Note OFF: Time 450359, Note Name: E3
Note ON: Time 450360, Note Name: G#3, Velocity: 34
Note OFF: Time 450479, Note Name: G#3
Note ON: Time 450480, Note Name: E3, Velocity: 39
Note OFF: Time 450599, Note Name: E3
Note ON: Time 450600, Note Name: G#3, Velocity: 34
Note OFF: Time 450719, Note Name: G#3
Note ON: Time 450720, Note Name: E3, Velocity: 47
Note OFF: Time 450839, Note Name: E3
Note ON: Time 450840, Note Name: G#3, Velocity: 35
Note OFF: Time 450959, Note Name: G#3
Note ON: Time 450960, Note Name: E3, Velocity: 40
Note OFF: Time 451079, Note Name: E3
Note ON: Time 451080, Note Name: G#3, Velocity: 34
Note OFF: Time 451199, Note Name: G#3
Note ON: Time 451200, Note Name: F#3, Velocity: 47
Note OFF: Time 451319, Note Name: F#3
Note ON: Time 451320, Note Name: G#3, Velocity: 33
Note OFF: Time 451439, Note Name: G#3
Note ON: Time 451440, Note Name: F#3, Velocity: 39
Note OFF: Time 451559, Note Name: F#3
Note ON: Time 451560, Note Name: G#3, Velocity: 34
Note OFF: Time 451679, Note Name: G#3
Note ON: Time 451680, Note Name: F#3, Velocity: 55
Note OFF: Time 451799, Note Name: F#3
Note ON: Time 451800, Note Name: G#3, Velocity: 45
Note OFF: Time 451919, Note Name: G#3
Note ON: Time 451920, Note Name: F#3, Velocity: 57
Note OFF: Time 452039, Note Name: F#3
Note ON: Time 452040, Note Name: G#3, Velocity: 53
Note OFF: Time 452159, Note Name: G#3
Note ON: Time 452160, Note Name: F#3, Velocity: 67
Note OFF: Time 452279, Note Name: F#3
Note ON: Time 452280, Note Name: G#3, Velocity: 52
Note OFF: Time 452399, Note Name: G#3
Note ON: Time 452400, Note Name: F#3, Velocity: 62
Note OFF: Time 452519, Note Name: F#3
Note ON: Time 452520, Note Name: G#3, Velocity: 56
Note OFF: Time 452639, Note Name: G#3
Note ON: Time 452640, Note Name: F#3, Velocity: 71
Note OFF: Time 452759, Note Name: F#3
Note ON: Time 452760, Note Name: G#3, Velocity: 56
Note OFF: Time 452879, Note Name: G#3
Note ON: Time 452880, Note Name: F#3, Velocity: 58
Note OFF: Time 452999, Note Name: F#3
Note ON: Time 453000, Note Name: G#3, Velocity: 49
Note OFF: Time 453119, Note Name: G#3
Note ON: Time 453120, Note Name: E3, Velocity: 47
Note OFF: Time 453239, Note Name: E3
Note ON: Time 453240, Note Name: G#3, Velocity: 34
Note OFF: Time 453359, Note Name: G#3
Note ON: Time 453360, Note Name: E3, Velocity: 40
Note OFF: Time 453479, Note Name: E3
Note ON: Time 453480, Note Name: G#3, Velocity: 34
Note OFF: Time 453599, Note Name: G#3
Note ON: Time 453600, Note Name: E3, Velocity: 56
Note OFF: Time 453719, Note Name: E3
Note ON: Time 453720, Note Name: G#3, Velocity: 47
Note OFF: Time 453839, Note Name: G#3
Note ON: Time 453840, Note Name: E3, Velocity: 57
Note OFF: Time 453959, Note Name: E3
Note ON: Time 453960, Note Name: G#3, Velocity: 50
Note OFF: Time 454079, Note Name: G#3
Note ON: Time 454080, Note Name: E3, Velocity: 68
Note OFF: Time 454199, Note Name: E3
Note ON: Time 454200, Note Name: G#3, Velocity: 52
Note OFF: Time 454319, Note Name: G#3
Note ON: Time 454320, Note Name: E3, Velocity: 64
Note OFF: Time 454439, Note Name: E3
Note ON: Time 454440, Note Name: G#3, Velocity: 57
Note OFF: Time 454559, Note Name: G#3
Note ON: Time 454560, Note Name: E3, Velocity: 75
Note OFF: Time 454679, Note Name: E3
Note ON: Time 454680, Note Name: G#3, Velocity: 56
Note OFF: Time 454799, Note Name: G#3
Note ON: Time 454800, Note Name: E3, Velocity: 61
Note OFF: Time 454919, Note Name: E3
Note ON: Time 454920, Note Name: G#3, Velocity: 49
Note OFF: Time 455039, Note Name: G#3
Note ON: Time 455040, Note Name: C3, Velocity: 47
Note OFF: Time 455159, Note Name: C3
Note ON: Time 455160, Note Name: G#3, Velocity: 37
Note OFF: Time 455279, Note Name: G#3
Note ON: Time 455280, Note Name: C3, Velocity: 41
Note OFF: Time 455399, Note Name: C3
Note ON: Time 455400, Note Name: G#3, Velocity: 35
Note OFF: Time 455519, Note Name: G#3
Note ON: Time 455520, Note Name: C3, Velocity: 59
Note OFF: Time 455639, Note Name: C3
Note ON: Time 455640, Note Name: G#3, Velocity: 47
Note OFF: Time 455759, Note Name: G#3
Note ON: Time 455760, Note Name: C3, Velocity: 56
Note OFF: Time 455879, Note Name: C3
Note ON: Time 455880, Note Name: G#3, Velocity: 49
Note OFF: Time 455999, Note Name: G#3
Note ON: Time 456000, Note Name: C3, Velocity: 69
Note OFF: Time 456119, Note Name: C3
Note ON: Time 456120, Note Name: G#3, Velocity: 52
Note OFF: Time 456239, Note Name: G#3
Note ON: Time 456240, Note Name: C3, Velocity: 62
Note OFF: Time 456359, Note Name: C3
Note ON: Time 456360, Note Name: G#3, Velocity: 56
Note OFF: Time 456479, Note Name: G#3
Note ON: Time 456480, Note Name: C3, Velocity: 77
Note OFF: Time 456599, Note Name: C3
Note ON: Time 456600, Note Name: G#3, Velocity: 54
Note OFF: Time 456719, Note Name: G#3
Note ON: Time 456720, Note Name: C3, Velocity: 58
Note OFF: Time 456839, Note Name: C3
Note ON: Time 456840, Note Name: G#3, Velocity: 47
Note OFF: Time 456959, Note Name: G#3
Note ON: Time 456960, Note Name: C#3, Velocity: 47
Note ON: Time 457080, Note Name: G#3, Velocity: 43
Note OFF: Time 457100, Note Name: C#3
Note ON: Time 457200, Note Name: C#3, Velocity: 47
Note OFF: Time 457220, Note Name: G#3
Note ON: Time 457320, Note Name: G#3, Velocity: 43
Note OFF: Time 457340, Note Name: C#3
Note ON: Time 457440, Note Name: C#3, Velocity: 49
Note OFF: Time 457460, Note Name: G#3
Note ON: Time 457560, Note Name: G#3, Velocity: 46
Note OFF: Time 457580, Note Name: C#3
Note ON: Time 457680, Note Name: C#3, Velocity: 51
Note OFF: Time 457700, Note Name: G#3
Note ON: Time 457800, Note Name: G#3, Velocity: 48
Note OFF: Time 457820, Note Name: C#3
Note ON: Time 457920, Note Name: B2, Velocity: 53
Note OFF: Time 457940, Note Name: G#3
Note ON: Time 458040, Note Name: C#3, Velocity: 51
Note OFF: Time 458060, Note Name: B2
Note ON: Time 458160, Note Name: B2, Velocity: 56
Note OFF: Time 458180, Note Name: C#3
Note ON: Time 458280, Note Name: C#3, Velocity: 51
Note OFF: Time 458300, Note Name: B2
Note ON: Time 458400, Note Name: B2, Velocity: 57
Note OFF: Time 458420, Note Name: C#3
Note ON: Time 458520, Note Name: C#3, Velocity: 53
Note OFF: Time 458540, Note Name: B2
Note ON: Time 458640, Note Name: B2, Velocity: 59
Note OFF: Time 458660, Note Name: C#3
Note ON: Time 458760, Note Name: C#3, Velocity: 53
Note OFF: Time 458780, Note Name: B2
Note ON: Time 458880, Note Name: A2, Velocity: 62
Note OFF: Time 458900, Note Name: C#3
Note ON: Time 459000, Note Name: C#3, Velocity: 56
Note OFF: Time 459020, Note Name: A2
Note ON: Time 459120, Note Name: A2, Velocity: 62
Note OFF: Time 459140, Note Name: C#3
Note ON: Time 459240, Note Name: C#3, Velocity: 58
Note OFF: Time 459260, Note Name: A2
Note ON: Time 459360, Note Name: A2, Velocity: 66
Note OFF: Time 459380, Note Name: C#3
Note ON: Time 459480, Note Name: C#3, Velocity: 61
Note OFF: Time 459500, Note Name: A2
Note ON: Time 459600, Note Name: A2, Velocity: 68
Note OFF: Time 459620, Note Name: C#3
Note ON: Time 459720, Note Name: C#3, Velocity: 62
Note OFF: Time 459740, Note Name: A2
Note ON: Time 459840, Note Name: F2, Velocity: 69
Note OFF: Time 459860, Note Name: C#3
Note ON: Time 459960, Note Name: C#3, Velocity: 66
Note OFF: Time 459980, Note Name: F2
Note ON: Time 460080, Note Name: F2, Velocity: 72
Note OFF: Time 460100, Note Name: C#3
Note ON: Time 460200, Note Name: C#3, Velocity: 68
Note OFF: Time 460220, Note Name: F2
Note ON: Time 460320, Note Name: F2, Velocity: 73
Note OFF: Time 460340, Note Name: C#3
Note ON: Time 460440, Note Name: C#3, Velocity: 68
Note OFF: Time 460460, Note Name: F2
Note ON: Time 460560, Note Name: F2, Velocity: 76
Note OFF: Time 460580, Note Name: C#3
Note ON: Time 460680, Note Name: C#3, Velocity: 70
Note OFF: Time 460700, Note Name: F2
Note ON: Time 460800, Note Name: C#2, Velocity: 67
Note ON: Time 460800, Note Name: F#2, Velocity: 79
Note ON: Time 460800, Note Name: F#1, Velocity: 67
Note OFF: Time 460820, Note Name: C#3
Note OFF: Time 464640, Note Name: C#2
Note OFF: Time 464640, Note Name: F#2
Note OFF: Time 464640, Note Name: F#1
Note ON: Time 464640, Note Name: D2, Velocity: 53
Note ON: Time 464640, Note Name: F#2, Velocity: 63
Note ON: Time 464640, Note Name: F#1, Velocity: 53
Note OFF: Time 468480, Note Name: F#1
Note OFF: Time 468480, Note Name: F#2
Note OFF: Time 468480, Note Name: D2
Note ON: Time 468480, Note Name: C#2, Velocity: 53
Note ON: Time 468480, Note Name: G1, Velocity: 53
Note ON: Time 468480, Note Name: G2, Velocity: 63
Note OFF: Time 472320, Note Name: G2
Note OFF: Time 472320, Note Name: G1
Note OFF: Time 472320, Note Name: C#2
Note ON: Time 472320, Note Name: C#2, Velocity: 52
Note ON: Time 472320, Note Name: G#2, Velocity: 62
Note ON: Time 472320, Note Name: G#1, Velocity: 52
Note OFF: Time 476160, Note Name: G#1
Note OFF: Time 476160, Note Name: G#2
Note OFF: Time 476160, Note Name: C#2
Note ON: Time 480000, Note Name: C4, Velocity: 62
Note ON: Time 480000, Note Name: F#4, Velocity: 62
Note ON: Time 480000, Note Name: G#3, Velocity: 62
Note OFF: Time 481920, Note Name: G#3
Note OFF: Time 481920, Note Name: F#4
Note OFF: Time 481920, Note Name: C4
Note ON: Time 486720, Note Name: G1, Velocity: 33
Note ON: Time 486720, Note Name: G2, Velocity: 39
Note OFF: Time 488640, Note Name: G2
Note OFF: Time 488640, Note Name: G1
Note ON: Time 488640, Note Name: G#1, Velocity: 28
Note ON: Time 488640, Note Name: G#2, Velocity: 34
Note OFF: Time 490560, Note Name: G#2
Note OFF: Time 490560, Note Name: G#1
Note ON: Time 490560, Note Name: C#2, Velocity: 37
Note ON: Time 490560, Note Name: C#3, Velocity: 37
Note OFF: Time 490675, Note Name: C#3
Note OFF: Time 490680, Note Name: C#2
Note ON: Time 490680, Note Name: C#3, Velocity: 31
Note OFF: Time 490800, Note Name: C#3
Note ON: Time 490800, Note Name: G#2, Velocity: 35
Note OFF: Time 490920, Note Name: G#2
Note ON: Time 490920, Note Name: C#3, Velocity: 31
Note OFF: Time 491040, Note Name: C#3
Note ON: Time 491040, Note Name: C#2, Velocity: 37
Note OFF: Time 491160, Note Name: C#2
Note ON: Time 491160, Note Name: C#3, Velocity: 31
Note OFF: Time 491279, Note Name: C#3
Note ON: Time 491280, Note Name: G#2, Velocity: 35
Note OFF: Time 491399, Note Name: G#2
Note ON: Time 491400, Note Name: C#3, Velocity: 30
Note OFF: Time 491519, Note Name: C#3
Note ON: Time 491520, Note Name: C#2, Velocity: 37
Note OFF: Time 491639, Note Name: C#2
Note ON: Time 491640, Note Name: C#3, Velocity: 32
Note OFF: Time 491759, Note Name: C#3
Note ON: Time 491760, Note Name: G#2, Velocity: 35
Note OFF: Time 491879, Note Name: G#2
Note ON: Time 491880, Note Name: C#3, Velocity: 32
Note OFF: Time 491999, Note Name: C#3
Note ON: Time 492000, Note Name: C#2, Velocity: 37
Note OFF: Time 492119, Note Name: C#2
Note ON: Time 492120, Note Name: C#3, Velocity: 32
Note OFF: Time 492239, Note Name: C#3
Note ON: Time 492240, Note Name: G#2, Velocity: 35
Note OFF: Time 492359, Note Name: G#2
Note ON: Time 492360, Note Name: C#3, Velocity: 30
Note OFF: Time 492479, Note Name: C#3
Note ON: Time 492480, Note Name: C#2, Velocity: 37
Note OFF: Time 492599, Note Name: C#2
Note ON: Time 492600, Note Name: D#3, Velocity: 31
Note OFF: Time 492719, Note Name: D#3
Note ON: Time 492720, Note Name: G#2, Velocity: 35
Note OFF: Time 492839, Note Name: G#2
Note ON: Time 492840, Note Name: D#3, Velocity: 31
Note OFF: Time 492959, Note Name: D#3
Note ON: Time 492960, Note Name: C#2, Velocity: 37
Note OFF: Time 493079, Note Name: C#2
Note ON: Time 493080, Note Name: D#3, Velocity: 30
Note OFF: Time 493199, Note Name: D#3
Note ON: Time 493200, Note Name: G#2, Velocity: 35
Note OFF: Time 493319, Note Name: G#2
Note ON: Time 493320, Note Name: D#3, Velocity: 31
Note OFF: Time 493439, Note Name: D#3
Note ON: Time 493440, Note Name: C#2, Velocity: 37
Note OFF: Time 493559, Note Name: C#2
Note ON: Time 493560, Note Name: D#3, Velocity: 32
Note OFF: Time 493679, Note Name: D#3
Note ON: Time 493680, Note Name: G#2, Velocity: 35
Note OFF: Time 493799, Note Name: G#2
Note ON: Time 493800, Note Name: D#3, Velocity: 35
Note OFF: Time 493919, Note Name: D#3
Note ON: Time 493920, Note Name: C#2, Velocity: 37
Note OFF: Time 494039, Note Name: C#2
Note ON: Time 494040, Note Name: D#3, Velocity: 30
Note OFF: Time 494159, Note Name: D#3
Note ON: Time 494160, Note Name: G#2, Velocity: 35
Note OFF: Time 494279, Note Name: G#2
Note ON: Time 494280, Note Name: D#3, Velocity: 31
Note OFF: Time 494399, Note Name: D#3
Note ON: Time 494400, Note Name: C#2, Velocity: 37
Note OFF: Time 494519, Note Name: C#2
Note ON: Time 494520, Note Name: C#3, Velocity: 30
Note OFF: Time 494639, Note Name: C#3
Note ON: Time 494640, Note Name: G#2, Velocity: 35
Note OFF: Time 494759, Note Name: G#2
Note ON: Time 494760, Note Name: C#3, Velocity: 31
Note OFF: Time 494879, Note Name: C#3
Note ON: Time 494880, Note Name: C#2, Velocity: 37
Note OFF: Time 494999, Note Name: C#2
Note ON: Time 495000, Note Name: C#3, Velocity: 32
Note OFF: Time 495119, Note Name: C#3
Note ON: Time 495120, Note Name: G#2, Velocity: 35
Note OFF: Time 495239, Note Name: G#2
Note ON: Time 495240, Note Name: C#3, Velocity: 30
Note OFF: Time 495359, Note Name: C#3
Note ON: Time 495360, Note Name: C#2, Velocity: 37
Note OFF: Time 495479, Note Name: C#2
Note ON: Time 495480, Note Name: C#3, Velocity: 31
Note OFF: Time 495599, Note Name: C#3
Note ON: Time 495600, Note Name: G#2, Velocity: 35
Note OFF: Time 495719, Note Name: G#2
Note ON: Time 495720, Note Name: C#3, Velocity: 31
Note OFF: Time 495839, Note Name: C#3
Note ON: Time 495840, Note Name: C#2, Velocity: 37
Note OFF: Time 495959, Note Name: C#2
Note ON: Time 495960, Note Name: C#3, Velocity: 31
Note OFF: Time 496079, Note Name: C#3
Note ON: Time 496080, Note Name: G#2, Velocity: 35
Note OFF: Time 496199, Note Name: G#2
Note ON: Time 496200, Note Name: C#3, Velocity: 30
Note OFF: Time 496319, Note Name: C#3
Note ON: Time 496320, Note Name: C#2, Velocity: 37
Note OFF: Time 496439, Note Name: C#2
Note ON: Time 496440, Note Name: D#3, Velocity: 31
Note OFF: Time 496559, Note Name: D#3
Note ON: Time 496560, Note Name: G#2, Velocity: 35
Note OFF: Time 496679, Note Name: G#2
Note ON: Time 496680, Note Name: D#3, Velocity: 31
Note OFF: Time 496799, Note Name: D#3
Note ON: Time 496800, Note Name: C#2, Velocity: 37
Note OFF: Time 496919, Note Name: C#2
Note ON: Time 496920, Note Name: D#3, Velocity: 33
Note OFF: Time 497039, Note Name: D#3
Note ON: Time 497040, Note Name: G#2, Velocity: 35
Note OFF: Time 497159, Note Name: G#2
Note ON: Time 497160, Note Name: D#3, Velocity: 30
Note OFF: Time 497279, Note Name: D#3
Note ON: Time 497280, Note Name: C#2, Velocity: 37
Note OFF: Time 497399, Note Name: C#2
Note ON: Time 497400, Note Name: D#3, Velocity: 31
Note OFF: Time 497519, Note Name: D#3
Note ON: Time 497520, Note Name: G#2, Velocity: 35
Note OFF: Time 497639, Note Name: G#2
Note ON: Time 497640, Note Name: D#3, Velocity: 31
Note OFF: Time 497759, Note Name: D#3
Note ON: Time 497760, Note Name: C#2, Velocity: 37
Note OFF: Time 497879, Note Name: C#2
Note ON: Time 497880, Note Name: D#3, Velocity: 32
Note OFF: Time 497999, Note Name: D#3
Note ON: Time 498000, Note Name: G#2, Velocity: 35
Note OFF: Time 498119, Note Name: G#2
Note ON: Time 498120, Note Name: D#3, Velocity: 32
Note OFF: Time 498239, Note Name: D#3
Note ON: Time 498240, Note Name: C#2, Velocity: 37
Note OFF: Time 498359, Note Name: C#2
Note ON: Time 498360, Note Name: C#3, Velocity: 33
Note OFF: Time 498479, Note Name: C#3
Note ON: Time 498480, Note Name: G#2, Velocity: 38
Note OFF: Time 498599, Note Name: G#2
Note ON: Time 498600, Note Name: C#3, Velocity: 34
Note OFF: Time 498719, Note Name: C#3
Note ON: Time 498720, Note Name: C#2, Velocity: 39
Note OFF: Time 498839, Note Name: C#2
Note ON: Time 498840, Note Name: C#3, Velocity: 34
Note OFF: Time 498959, Note Name: C#3
Note ON: Time 498960, Note Name: G#2, Velocity: 40
Note OFF: Time 499079, Note Name: G#2
Note ON: Time 499080, Note Name: C#3, Velocity: 35
Note OFF: Time 499199, Note Name: C#3
Note ON: Time 499200, Note Name: C#2, Velocity: 41
Note OFF: Time 499319, Note Name: C#2
Note ON: Time 499320, Note Name: D#3, Velocity: 39
Note OFF: Time 499439, Note Name: D#3
Note ON: Time 499440, Note Name: G#2, Velocity: 43
Note OFF: Time 499559, Note Name: G#2
Note ON: Time 499560, Note Name: D#3, Velocity: 39
Note OFF: Time 499679, Note Name: D#3
Note ON: Time 499680, Note Name: C#2, Velocity: 45
Note OFF: Time 499799, Note Name: C#2
Note ON: Time 499800, Note Name: D#3, Velocity: 40
Note OFF: Time 499919, Note Name: D#3
Note ON: Time 499920, Note Name: G#2, Velocity: 47
Note OFF: Time 500039, Note Name: G#2
Note ON: Time 500040, Note Name: D#3, Velocity: 41
Note OFF: Time 500159, Note Name: D#3
Note ON: Time 500160, Note Name: C#2, Velocity: 47
Note OFF: Time 500279, Note Name: C#2
Note ON: Time 500280, Note Name: C#3, Velocity: 42
Note OFF: Time 500399, Note Name: C#3
Note ON: Time 500400, Note Name: G#2, Velocity: 50
Note OFF: Time 500519, Note Name: G#2
Note ON: Time 500520, Note Name: C#3, Velocity: 44
Note OFF: Time 500639, Note Name: C#3
Note ON: Time 500640, Note Name: C#2, Velocity: 51
Note OFF: Time 500759, Note Name: C#2
Note ON: Time 500760, Note Name: C#3, Velocity: 47
Note OFF: Time 500879, Note Name: C#3
Note ON: Time 500880, Note Name: G#2, Velocity: 51
Note OFF: Time 500999, Note Name: G#2
Note ON: Time 501000, Note Name: C#3, Velocity: 46
Note OFF: Time 501119, Note Name: C#3
Note ON: Time 501120, Note Name: C#2, Velocity: 52
Note OFF: Time 501239, Note Name: C#2
Note ON: Time 501240, Note Name: D#3, Velocity: 50
Note OFF: Time 501359, Note Name: D#3
Note ON: Time 501360, Note Name: G#2, Velocity: 54
Note OFF: Time 501479, Note Name: G#2
Note ON: Time 501480, Note Name: D#3, Velocity: 50
Note OFF: Time 501599, Note Name: D#3
Note ON: Time 501600, Note Name: C#2, Velocity: 56
Note OFF: Time 501719, Note Name: C#2
Note ON: Time 501720, Note Name: D#3, Velocity: 51
Note OFF: Time 501839, Note Name: D#3
Note ON: Time 501840, Note Name: G#2, Velocity: 57
Note OFF: Time 501959, Note Name: G#2
Note ON: Time 501960, Note Name: D#3, Velocity: 51
Note OFF: Time 502079, Note Name: D#3
Note ON: Time 502080, Note Name: G#2, Velocity: 68
Note ON: Time 502080, Note Name: C#3, Velocity: 68
Note ON: Time 502080, Note Name: C#2, Velocity: 57
Note ON: Time 502200, Note Name: E3, Velocity: 57
Note OFF: Time 502220, Note Name: C#2
Note OFF: Time 502220, Note Name: G#2
Note OFF: Time 502220, Note Name: C#3
Note ON: Time 502320, Note Name: G#3, Velocity: 60
Note OFF: Time 502340, Note Name: E3
Note ON: Time 502440, Note Name: C#4, Velocity: 56
Note OFF: Time 502460, Note Name: G#3
Note ON: Time 502560, Note Name: E4, Velocity: 62
Note OFF: Time 502580, Note Name: C#4
Note ON: Time 502680, Note Name: G#3, Velocity: 57
Note OFF: Time 502700, Note Name: E4
Note ON: Time 502800, Note Name: C#4, Velocity: 58
Note OFF: Time 502820, Note Name: G#3
Note ON: Time 502920, Note Name: E4, Velocity: 57
Note OFF: Time 502940, Note Name: C#4
Note ON: Time 503040, Note Name: G#4, Velocity: 62
Note OFF: Time 503060, Note Name: E4
Note ON: Time 503160, Note Name: C#4, Velocity: 58
Note OFF: Time 503180, Note Name: G#4
Note ON: Time 503280, Note Name: E4, Velocity: 58
Note OFF: Time 503300, Note Name: C#4
Note ON: Time 503400, Note Name: G#4, Velocity: 57
Note OFF: Time 503420, Note Name: E4
Note ON: Time 503520, Note Name: C#5, Velocity: 63
Note OFF: Time 503540, Note Name: G#4
Note ON: Time 503640, Note Name: E4, Velocity: 60
Note OFF: Time 503660, Note Name: C#5
Note ON: Time 503760, Note Name: G#4, Velocity: 62
Note OFF: Time 503780, Note Name: E4
Note ON: Time 503880, Note Name: C#5, Velocity: 60
Note OFF: Time 503900, Note Name: G#4
Note ON: Time 504000, Note Name: E5, Velocity: 68
Note OFF: Time 504020, Note Name: C#5
Note ON: Time 504120, Note Name: C#5, Velocity: 64
Note OFF: Time 504140, Note Name: E5
Note ON: Time 504240, Note Name: G#4, Velocity: 63
Note OFF: Time 504260, Note Name: C#5
Note ON: Time 504360, Note Name: E4, Velocity: 61
Note OFF: Time 504380, Note Name: G#4
Note ON: Time 504480, Note Name: C#5, Velocity: 67
Note OFF: Time 504500, Note Name: E4
Note ON: Time 504600, Note Name: G#4, Velocity: 64
Note OFF: Time 504620, Note Name: C#5
Note ON: Time 504720, Note Name: E4, Velocity: 62
Note OFF: Time 504740, Note Name: G#4
Note ON: Time 504840, Note Name: C#4, Velocity: 62
Note OFF: Time 504860, Note Name: E4
Note ON: Time 504960, Note Name: G#4, Velocity: 67
Note OFF: Time 504980, Note Name: C#4
Note ON: Time 505080, Note Name: E4, Velocity: 64
Note OFF: Time 505100, Note Name: G#4
Note ON: Time 505200, Note Name: C#4, Velocity: 62
Note OFF: Time 505220, Note Name: E4
Note ON: Time 505320, Note Name: G#3, Velocity: 62
Note OFF: Time 505340, Note Name: C#4
Note ON: Time 505440, Note Name: E4, Velocity: 67
Note OFF: Time 505460, Note Name: G#3
Note ON: Time 505560, Note Name: C#4, Velocity: 64
Note OFF: Time 505580, Note Name: E4
Note ON: Time 505680, Note Name: G#3, Velocity: 62
Note OFF: Time 505700, Note Name: C#4
Note ON: Time 505800, Note Name: E3, Velocity: 62
Note OFF: Time 505820, Note Name: G#3
Note ON: Time 505920, Note Name: C#4, Velocity: 63
Note OFF: Time 505940, Note Name: E3
Note ON: Time 506040, Note Name: G#3, Velocity: 62
Note OFF: Time 506060, Note Name: C#4
Note ON: Time 506160, Note Name: E3, Velocity: 62
Note OFF: Time 506180, Note Name: G#3
Note ON: Time 506280, Note Name: C#3, Velocity: 60
Note OFF: Time 506300, Note Name: E3
Note ON: Time 506400, Note Name: G#3, Velocity: 64
Note OFF: Time 506420, Note Name: C#3
Note ON: Time 506520, Note Name: E3, Velocity: 63
Note OFF: Time 506540, Note Name: G#3
Note ON: Time 506640, Note Name: C#3, Velocity: 62
Note OFF: Time 506660, Note Name: E3
Note ON: Time 506760, Note Name: G#2, Velocity: 60
Note OFF: Time 506780, Note Name: C#3
Note ON: Time 506880, Note Name: E3, Velocity: 66
Note OFF: Time 506900, Note Name: G#2
Note ON: Time 507000, Note Name: C#3, Velocity: 66
Note OFF: Time 507020, Note Name: E3
Note ON: Time 507120, Note Name: G#2, Velocity: 63
Note OFF: Time 507140, Note Name: C#3
Note ON: Time 507240, Note Name: E2, Velocity: 61
Note OFF: Time 507260, Note Name: G#2
Note ON: Time 507360, Note Name: C#3, Velocity: 66
Note OFF: Time 507380, Note Name: E2
Note ON: Time 507480, Note Name: G#2, Velocity: 64
Note OFF: Time 507500, Note Name: C#3
Note ON: Time 507600, Note Name: E2, Velocity: 63
Note OFF: Time 507620, Note Name: G#2
Note ON: Time 507720, Note Name: G#2, Velocity: 62
Note OFF: Time 507740, Note Name: E2
Note ON: Time 507840, Note Name: C#2, Velocity: 62
Note OFF: Time 507860, Note Name: G#2
Note OFF: Time 508320, Note Name: C#2
Note ON: Time 508800, Note Name: C#2, Velocity: 67
Note ON: Time 508800, Note Name: E2, Velocity: 67
Note ON: Time 508800, Note Name: G#2, Velocity: 79
Note ON: Time 508800, Note Name: C#3, Velocity: 79
Note OFF: Time 509160, Note Name: C#3
Note OFF: Time 509160, Note Name: C#2
Note OFF: Time 509160, Note Name: E2
Note OFF: Time 509160, Note Name: G#2
Note ON: Time 509760, Note Name: G#2, Velocity: 79
Note ON: Time 509760, Note Name: C#2, Velocity: 67
Note ON: Time 509760, Note Name: E2, Velocity: 67
Note ON: Time 509760, Note Name: C#3, Velocity: 79
Note OFF: Time 510120, Note Name: C#3
Note OFF: Time 510120, Note Name: G#2
Note OFF: Time 510120, Note Name: C#2
Note OFF: Time 510120, Note Name: E2
Track 3: Pedal
Track 4: Beethoven: Sonate Nr. 14 cis-moll, Op. 27/2 - 3. Satz
Track 5: Copyright  1998 by Bernd Krueger
Track 6: http://www.piano-midi.de
Track 7: Edition: 2012-06-14
