Processing mond_2.mid...

Track 0: Sonata No.14 in cis-Moll, Op. 27/2 - 2. Satz
Track 1: PIano right 
Note ON: Time 960, Note Name: G#4, Velocity: 62
Note ON: Time 960, Note Name: C#5, Velocity: 62
Note OFF: Time 1440, Note Name: C#5
Note OFF: Time 1440, Note Name: G#4
Note ON: Time 1441, Note Name: C5, Velocity: 65
Note ON: Time 1441, Note Name: G#4, Velocity: 65
Note ON: Time 2400, Note Name: G4, Velocity: 58
Note ON: Time 2400, Note Name: A#4, Velocity: 58
Note OFF: Time 2401, Note Name: G#4
Note OFF: Time 2401, Note Name: C5
Note OFF: Time 2880, Note Name: G4
Note OFF: Time 2880, Note Name: A#4
Note ON: Time 2880, Note Name: G#4, Velocity: 54
Note ON: Time 2880, Note Name: D#5, Velocity: 54
Note OFF: Time 2970, Note Name: D#5
Note OFF: Time 2970, Note Name: G#4
Note ON: Time 3840, Note Name: F4, Velocity: 53
Note ON: Time 3840, Note Name: C#5, Velocity: 53
Note OFF: Time 3930, Note Name: C#5
Note OFF: Time 3930, Note Name: F4
Note ON: Time 4320, Note Name: G#4, Velocity: 53
Note ON: Time 4320, Note Name: C5, Velocity: 53
Note OFF: Time 4410, Note Name: C5
Note OFF: Time 4410, Note Name: G#4
Note ON: Time 5280, Note Name: G4, Velocity: 52
Note ON: Time 5280, Note Name: A#4, Velocity: 52
Note OFF: Time 5370, Note Name: A#4
Note OFF: Time 5370, Note Name: G4
Note ON: Time 5760, Note Name: G#4, Velocity: 51
Note OFF: Time 5850, Note Name: G#4
Note ON: Time 6720, Note Name: C#5, Velocity: 65
Note ON: Time 6720, Note Name: F#5, Velocity: 65
Note OFF: Time 7200, Note Name: F#5
Note OFF: Time 7200, Note Name: C#5
Note ON: Time 7200, Note Name: C#5, Velocity: 65
Note ON: Time 7200, Note Name: F5, Velocity: 65
Note OFF: Time 8160, Note Name: F5
Note OFF: Time 8160, Note Name: C#5
Note ON: Time 8160, Note Name: C5, Velocity: 61
Note ON: Time 8160, Note Name: D#5, Velocity: 61
Note OFF: Time 8640, Note Name: D#5
Note OFF: Time 8640, Note Name: C5
Note ON: Time 8640, Note Name: C#5, Velocity: 56
Note ON: Time 8640, Note Name: G#5, Velocity: 56
Note OFF: Time 8730, Note Name: G#5
Note OFF: Time 8730, Note Name: C#5
Note ON: Time 9600, Note Name: A#4, Velocity: 55
Note ON: Time 9600, Note Name: F#5, Velocity: 55
Note OFF: Time 9690, Note Name: F#5
Note OFF: Time 9690, Note Name: A#4
Note ON: Time 10080, Note Name: C#5, Velocity: 55
Note ON: Time 10080, Note Name: F5, Velocity: 55
Note OFF: Time 10170, Note Name: F5
Note OFF: Time 10170, Note Name: C#5
Note ON: Time 11040, Note Name: C5, Velocity: 53
Note ON: Time 11040, Note Name: D#5, Velocity: 53
Note OFF: Time 11130, Note Name: D#5
Note OFF: Time 11130, Note Name: C5
Note ON: Time 11520, Note Name: C#5, Velocity: 50
Note OFF: Time 11610, Note Name: C#5
Note ON: Time 12480, Note Name: C#4, Velocity: 65
Note ON: Time 12480, Note Name: C#5, Velocity: 65
Note OFF: Time 13440, Note Name: C#5
Note OFF: Time 13440, Note Name: C#4
Note ON: Time 13440, Note Name: C4, Velocity: 65
Note ON: Time 13440, Note Name: C5, Velocity: 65
Note OFF: Time 13920, Note Name: C5
Note OFF: Time 13920, Note Name: C4
Note ON: Time 13920, Note Name: A#3, Velocity: 65
Note ON: Time 13920, Note Name: A#4, Velocity: 65
Note OFF: Time 14400, Note Name: A#3
Note ON: Time 14400, Note Name: D#4, Velocity: 65
Note OFF: Time 14880, Note Name: D#4
Note OFF: Time 14880, Note Name: A#4
Note ON: Time 14880, Note Name: D#5, Velocity: 65
Note OFF: Time 15000, Note Name: D#5
Note ON: Time 15360, Note Name: C#5, Velocity: 62
Note ON: Time 15360, Note Name: F4, Velocity: 62
Note OFF: Time 15840, Note Name: F4
Note ON: Time 15840, Note Name: G#4, Velocity: 62
Note OFF: Time 16320, Note Name: G#4
Note OFF: Time 16320, Note Name: C#5
Note ON: Time 16320, Note Name: C5, Velocity: 62
Note OFF: Time 16800, Note Name: C5
Note ON: Time 16800, Note Name: G4, Velocity: 58
Note ON: Time 16800, Note Name: A#4, Velocity: 58
Note OFF: Time 17280, Note Name: G4
Note OFF: Time 17760, Note Name: A#4
Note ON: Time 17760, Note Name: G#4, Velocity: 56
Note OFF: Time 18000, Note Name: G#4
Note ON: Time 18240, Note Name: F#4, Velocity: 66
Note ON: Time 18240, Note Name: F#5, Velocity: 66
Note OFF: Time 19200, Note Name: F#5
Note OFF: Time 19200, Note Name: F#4
Note ON: Time 19200, Note Name: F4, Velocity: 65
Note ON: Time 19200, Note Name: F5, Velocity: 65
Note OFF: Time 19680, Note Name: F5
Note OFF: Time 19680, Note Name: F4
Note ON: Time 19680, Note Name: D#4, Velocity: 65
Note ON: Time 19680, Note Name: D#5, Velocity: 65
Note OFF: Time 20160, Note Name: D#4
Note ON: Time 20160, Note Name: G#4, Velocity: 73
Note OFF: Time 20640, Note Name: G#4
Note OFF: Time 20640, Note Name: D#5
Note ON: Time 20640, Note Name: G#5, Velocity: 73
Note OFF: Time 20760, Note Name: G#5
Note ON: Time 21120, Note Name: A#4, Velocity: 62
Note ON: Time 21120, Note Name: F#5, Velocity: 62
Note OFF: Time 21600, Note Name: A#4
Note ON: Time 21600, Note Name: C#5, Velocity: 62
Note OFF: Time 22080, Note Name: C#5
Note OFF: Time 22080, Note Name: F#5
Note ON: Time 22080, Note Name: F5, Velocity: 62
Note OFF: Time 22560, Note Name: F5
Note ON: Time 22560, Note Name: D#5, Velocity: 62
Note ON: Time 22560, Note Name: C5, Velocity: 62
Note OFF: Time 23040, Note Name: C5
Note OFF: Time 23520, Note Name: D#5
Note ON: Time 23520, Note Name: C#5, Velocity: 59
Note OFF: Time 23760, Note Name: C#5
Note ON: Time 24000, Note Name: C#5, Velocity: 53
Note ON: Time 24000, Note Name: F4, Velocity: 53
Note OFF: Time 24480, Note Name: F4
Note OFF: Time 24480, Note Name: C#5
Note ON: Time 24480, Note Name: C#5, Velocity: 58
Note ON: Time 24480, Note Name: F4, Velocity: 58
Note OFF: Time 25440, Note Name: F4
Note OFF: Time 25440, Note Name: C#5
Note ON: Time 25440, Note Name: F4, Velocity: 57
Note ON: Time 25440, Note Name: C#5, Velocity: 57
Note OFF: Time 25920, Note Name: C#5
Note OFF: Time 25920, Note Name: F4
Note ON: Time 25920, Note Name: D#4, Velocity: 57
Note ON: Time 25920, Note Name: C#5, Velocity: 57
Note OFF: Time 26400, Note Name: C#5
Note ON: Time 26400, Note Name: C5, Velocity: 58
Note OFF: Time 26640, Note Name: C5
Note OFF: Time 26880, Note Name: D#4
Note ON: Time 26880, Note Name: D#4, Velocity: 58
Note ON: Time 26880, Note Name: B4, Velocity: 58
Note OFF: Time 27360, Note Name: B4
Note OFF: Time 27360, Note Name: D#4
Note ON: Time 27360, Note Name: D#4, Velocity: 58
Note ON: Time 27360, Note Name: B4, Velocity: 58
Note OFF: Time 28320, Note Name: B4
Note OFF: Time 28320, Note Name: D#4
Note ON: Time 28320, Note Name: D#4, Velocity: 56
Note ON: Time 28320, Note Name: B4, Velocity: 56
Note OFF: Time 28800, Note Name: B4
Note OFF: Time 28800, Note Name: D#4
Note ON: Time 28800, Note Name: D#4, Velocity: 56
Note ON: Time 28800, Note Name: B4, Velocity: 56
Note OFF: Time 29280, Note Name: B4
Note ON: Time 29280, Note Name: A#4, Velocity: 56
Note OFF: Time 29520, Note Name: A#4
Note OFF: Time 29760, Note Name: D#4
Note ON: Time 29760, Note Name: C#4, Velocity: 65
Note ON: Time 29760, Note Name: A#4, Velocity: 65
Note OFF: Time 30240, Note Name: A#4
Note OFF: Time 30240, Note Name: C#4
Note ON: Time 30240, Note Name: F#4, Velocity: 75
Note ON: Time 30240, Note Name: C5, Velocity: 75
Note OFF: Time 31200, Note Name: C5
Note OFF: Time 31200, Note Name: F#4
Note ON: Time 31200, Note Name: F4, Velocity: 78
Note ON: Time 31200, Note Name: C#5, Velocity: 78
Note OFF: Time 31680, Note Name: C#5
Note OFF: Time 31680, Note Name: F4
Note ON: Time 31680, Note Name: F#4, Velocity: 90
Note ON: Time 31680, Note Name: D#5, Velocity: 90
Note OFF: Time 32640, Note Name: D#5
Note OFF: Time 32640, Note Name: F#4
Note ON: Time 32640, Note Name: D#4, Velocity: 77
Note ON: Time 32640, Note Name: F#4, Velocity: 77
Note OFF: Time 33600, Note Name: F#4
Note OFF: Time 33600, Note Name: D#4
Note ON: Time 33600, Note Name: C#4, Velocity: 65
Note ON: Time 33600, Note Name: F4, Velocity: 65
Note OFF: Time 34080, Note Name: F4
Note OFF: Time 34080, Note Name: C#4
Note ON: Time 34080, Note Name: A#4, Velocity: 65
Note ON: Time 34080, Note Name: A#3, Velocity: 65
Note OFF: Time 34320, Note Name: A#4
Note ON: Time 34320, Note Name: F#4, Velocity: 65
Note OFF: Time 34560, Note Name: F#4
Note OFF: Time 34560, Note Name: A#3
Note ON: Time 34560, Note Name: C#4, Velocity: 71
Note ON: Time 34560, Note Name: F4, Velocity: 71
Note OFF: Time 35040, Note Name: F4
Note OFF: Time 35040, Note Name: C#4
Note ON: Time 35040, Note Name: C4, Velocity: 65
Note ON: Time 35040, Note Name: D#4, Velocity: 65
Note OFF: Time 35280, Note Name: D#4
Note OFF: Time 35280, Note Name: C4
Note ON: Time 35520, Note Name: C#4, Velocity: 65
Note ON: Time 35520, Note Name: C#5, Velocity: 65
Note OFF: Time 36000, Note Name: C#5
Note OFF: Time 36000, Note Name: C#4
Note ON: Time 36000, Note Name: C4, Velocity: 66
Note ON: Time 36000, Note Name: C5, Velocity: 66
Note OFF: Time 36960, Note Name: C5
Note OFF: Time 36960, Note Name: C4
Note ON: Time 36960, Note Name: A#4, Velocity: 61
Note ON: Time 36960, Note Name: A#3, Velocity: 61
Note OFF: Time 37440, Note Name: A#3
Note OFF: Time 37440, Note Name: A#4
Note ON: Time 37440, Note Name: D#4, Velocity: 59
Note ON: Time 37440, Note Name: D#5, Velocity: 59
Note OFF: Time 37530, Note Name: D#5
Note OFF: Time 37530, Note Name: D#4
Note ON: Time 38400, Note Name: F4, Velocity: 64
Note ON: Time 38400, Note Name: C#5, Velocity: 64
Note OFF: Time 38880, Note Name: F4
Note ON: Time 38880, Note Name: G#4, Velocity: 64
Note OFF: Time 39360, Note Name: G#4
Note OFF: Time 39360, Note Name: C#5
Note ON: Time 39360, Note Name: C5, Velocity: 64
Note OFF: Time 39840, Note Name: C5
Note ON: Time 39840, Note Name: G4, Velocity: 60
Note ON: Time 39840, Note Name: A#4, Velocity: 60
Note OFF: Time 40320, Note Name: G4
Note OFF: Time 40800, Note Name: A#4
Note ON: Time 40800, Note Name: G#4, Velocity: 60
Note OFF: Time 41040, Note Name: G#4
Note ON: Time 41280, Note Name: F#4, Velocity: 64
Note ON: Time 41280, Note Name: F#5, Velocity: 64
Note OFF: Time 41760, Note Name: F#5
Note OFF: Time 41760, Note Name: F#4
Note ON: Time 41760, Note Name: F4, Velocity: 65
Note ON: Time 41760, Note Name: F5, Velocity: 65
Note OFF: Time 42720, Note Name: F5
Note OFF: Time 42720, Note Name: F4
Note ON: Time 42720, Note Name: D#4, Velocity: 64
Note ON: Time 42720, Note Name: D#5, Velocity: 64
Note OFF: Time 43200, Note Name: D#5
Note OFF: Time 43200, Note Name: D#4
Note ON: Time 43200, Note Name: G#4, Velocity: 62
Note ON: Time 43200, Note Name: G#5, Velocity: 62
Note OFF: Time 43290, Note Name: G#5
Note OFF: Time 43290, Note Name: G#4
Note ON: Time 44160, Note Name: F#4, Velocity: 64
Note ON: Time 44160, Note Name: F#5, Velocity: 64
Note OFF: Time 45120, Note Name: F#5
Note OFF: Time 45120, Note Name: F#4
Note ON: Time 45120, Note Name: F4, Velocity: 64
Note ON: Time 45120, Note Name: F5, Velocity: 64
Note OFF: Time 45600, Note Name: F5
Note OFF: Time 45600, Note Name: F4
Note ON: Time 45600, Note Name: D#4, Velocity: 64
Note ON: Time 45600, Note Name: D#5, Velocity: 64
Note OFF: Time 45840, Note Name: D#5
Note OFF: Time 45840, Note Name: D#4
Note ON: Time 46080, Note Name: G#4, Velocity: 65
Note ON: Time 46080, Note Name: G#5, Velocity: 65
Note OFF: Time 46170, Note Name: G#5
Note OFF: Time 46170, Note Name: G#4
Note ON: Time 47040, Note Name: F#4, Velocity: 74
Note ON: Time 47040, Note Name: F#5, Velocity: 74
Note OFF: Time 48000, Note Name: F#5
Note OFF: Time 48000, Note Name: F#4
Note ON: Time 48000, Note Name: F4, Velocity: 80
Note ON: Time 48000, Note Name: F5, Velocity: 80
Note OFF: Time 48480, Note Name: F5
Note OFF: Time 48480, Note Name: F4
Note ON: Time 48480, Note Name: A#4, Velocity: 97
Note ON: Time 48480, Note Name: A#5, Velocity: 97
Note OFF: Time 49440, Note Name: A#5
Note OFF: Time 49440, Note Name: A#4
Note ON: Time 49440, Note Name: G#4, Velocity: 77
Note ON: Time 49440, Note Name: G#5, Velocity: 77
Note OFF: Time 49920, Note Name: G#5
Note OFF: Time 49920, Note Name: G#4
Note ON: Time 50400, Note Name: F#3, Velocity: 64
Note ON: Time 50400, Note Name: C4, Velocity: 64
Note OFF: Time 51360, Note Name: C4
Note ON: Time 51360, Note Name: D#4, Velocity: 61
Note OFF: Time 51600, Note Name: D#4
Note ON: Time 51600, Note Name: C#4, Velocity: 61
Note OFF: Time 51840, Note Name: C#4
Note OFF: Time 51840, Note Name: F#3
Note ON: Time 51840, Note Name: F3, Velocity: 54
Note ON: Time 51840, Note Name: C#4, Velocity: 58
Note OFF: Time 52320, Note Name: C#4
Note OFF: Time 52320, Note Name: F3
Note ON: Time 52800, Note Name: C#5, Velocity: 64
Note ON: Time 52800, Note Name: F4, Velocity: 64
Note OFF: Time 53280, Note Name: F4
Note OFF: Time 53280, Note Name: C#5
Note ON: Time 53280, Note Name: C#5, Velocity: 64
Note ON: Time 53280, Note Name: F4, Velocity: 64
Note OFF: Time 54240, Note Name: F4
Note OFF: Time 54240, Note Name: C#5
Note ON: Time 54240, Note Name: F4, Velocity: 64
Note ON: Time 54240, Note Name: C#5, Velocity: 64
Note OFF: Time 54720, Note Name: C#5
Note OFF: Time 54720, Note Name: F4
Note ON: Time 54720, Note Name: D#4, Velocity: 64
Note ON: Time 54720, Note Name: C#5, Velocity: 64
Note OFF: Time 55200, Note Name: C#5
Note ON: Time 55200, Note Name: C5, Velocity: 64
Note OFF: Time 55440, Note Name: C5
Note OFF: Time 55680, Note Name: D#4
Note ON: Time 55680, Note Name: D#4, Velocity: 61
Note ON: Time 55680, Note Name: B4, Velocity: 61
Note OFF: Time 56160, Note Name: B4
Note OFF: Time 56160, Note Name: D#4
Note ON: Time 56160, Note Name: D#4, Velocity: 61
Note ON: Time 56160, Note Name: B4, Velocity: 61
Note OFF: Time 57120, Note Name: B4
Note OFF: Time 57120, Note Name: D#4
Note ON: Time 57120, Note Name: D#4, Velocity: 58
Note ON: Time 57120, Note Name: B4, Velocity: 58
Note OFF: Time 57600, Note Name: B4
Note OFF: Time 57600, Note Name: D#4
Note ON: Time 57600, Note Name: D#4, Velocity: 58
Note ON: Time 57600, Note Name: B4, Velocity: 58
Note OFF: Time 58080, Note Name: B4
Note ON: Time 58080, Note Name: A#4, Velocity: 58
Note OFF: Time 58320, Note Name: A#4
Note OFF: Time 58560, Note Name: D#4
Note ON: Time 58560, Note Name: C#4, Velocity: 64
Note ON: Time 58560, Note Name: A#4, Velocity: 64
Note OFF: Time 59040, Note Name: A#4
Note OFF: Time 59040, Note Name: C#4
Note ON: Time 59040, Note Name: F#4, Velocity: 74
Note ON: Time 59040, Note Name: C5, Velocity: 74
Note OFF: Time 60000, Note Name: C5
Note OFF: Time 60000, Note Name: F#4
Note ON: Time 60000, Note Name: F4, Velocity: 77
Note ON: Time 60000, Note Name: C#5, Velocity: 77
Note OFF: Time 60480, Note Name: C#5
Note OFF: Time 60480, Note Name: F4
Note ON: Time 60480, Note Name: F#4, Velocity: 89
Note ON: Time 60480, Note Name: D#5, Velocity: 89
Note OFF: Time 61440, Note Name: D#5
Note OFF: Time 61440, Note Name: F#4
Note ON: Time 61440, Note Name: D#4, Velocity: 76
Note ON: Time 61440, Note Name: F#4, Velocity: 76
Note OFF: Time 62400, Note Name: F#4
Note OFF: Time 62400, Note Name: D#4
Note ON: Time 62400, Note Name: C#4, Velocity: 64
Note ON: Time 62400, Note Name: F4, Velocity: 64
Note OFF: Time 62880, Note Name: F4
Note OFF: Time 62880, Note Name: C#4
Note ON: Time 62880, Note Name: A#4, Velocity: 64
Note ON: Time 62880, Note Name: A#3, Velocity: 64
Note OFF: Time 63120, Note Name: A#4
Note ON: Time 63120, Note Name: F#4, Velocity: 64
Note OFF: Time 63360, Note Name: F#4
Note OFF: Time 63360, Note Name: A#3
Note ON: Time 63360, Note Name: C#4, Velocity: 71
Note ON: Time 63360, Note Name: F4, Velocity: 71
Note OFF: Time 63840, Note Name: F4
Note OFF: Time 63840, Note Name: C#4
Note ON: Time 63840, Note Name: C4, Velocity: 64
Note ON: Time 63840, Note Name: D#4, Velocity: 64
Note OFF: Time 64080, Note Name: D#4
Note OFF: Time 64080, Note Name: C4
Note ON: Time 64320, Note Name: C#4, Velocity: 64
Note ON: Time 64320, Note Name: C#5, Velocity: 64
Note OFF: Time 64800, Note Name: C#5
Note OFF: Time 64800, Note Name: C#4
Note ON: Time 64800, Note Name: C4, Velocity: 65
Note ON: Time 64800, Note Name: C5, Velocity: 65
Note OFF: Time 65760, Note Name: C5
Note OFF: Time 65760, Note Name: C4
Note ON: Time 65760, Note Name: A#4, Velocity: 62
Note ON: Time 65760, Note Name: A#3, Velocity: 62
Note OFF: Time 66240, Note Name: A#3
Note OFF: Time 66240, Note Name: A#4
Note ON: Time 66240, Note Name: D#4, Velocity: 60
Note ON: Time 66240, Note Name: D#5, Velocity: 60
Note OFF: Time 66330, Note Name: D#5
Note OFF: Time 66330, Note Name: D#4
Note ON: Time 67200, Note Name: F4, Velocity: 61
Note ON: Time 67200, Note Name: C#5, Velocity: 61
Note OFF: Time 67680, Note Name: F4
Note ON: Time 67680, Note Name: G#4, Velocity: 61
Note OFF: Time 68160, Note Name: G#4
Note OFF: Time 68160, Note Name: C#5
Note ON: Time 68160, Note Name: C5, Velocity: 61
Note OFF: Time 68640, Note Name: C5
Note ON: Time 68640, Note Name: G4, Velocity: 61
Note ON: Time 68640, Note Name: A#4, Velocity: 61
Note OFF: Time 69120, Note Name: G4
Note OFF: Time 69600, Note Name: A#4
Note ON: Time 69600, Note Name: G#4, Velocity: 59
Note OFF: Time 69840, Note Name: G#4
Note ON: Time 70080, Note Name: F#4, Velocity: 64
Note ON: Time 70080, Note Name: F#5, Velocity: 64
Note OFF: Time 70560, Note Name: F#5
Note OFF: Time 70560, Note Name: F#4
Note ON: Time 70560, Note Name: F4, Velocity: 65
Note ON: Time 70560, Note Name: F5, Velocity: 65
Note OFF: Time 71520, Note Name: F5
Note OFF: Time 71520, Note Name: F4
Note ON: Time 71520, Note Name: D#4, Velocity: 63
Note ON: Time 71520, Note Name: D#5, Velocity: 63
Note OFF: Time 72000, Note Name: D#5
Note OFF: Time 72000, Note Name: D#4
Note ON: Time 72000, Note Name: G#4, Velocity: 59
Note ON: Time 72000, Note Name: G#5, Velocity: 59
Note OFF: Time 72090, Note Name: G#5
Note OFF: Time 72090, Note Name: G#4
Note ON: Time 72960, Note Name: F#4, Velocity: 64
Note ON: Time 72960, Note Name: F#5, Velocity: 64
Note OFF: Time 73920, Note Name: F#5
Note OFF: Time 73920, Note Name: F#4
Note ON: Time 73920, Note Name: F4, Velocity: 64
Note ON: Time 73920, Note Name: F5, Velocity: 64
Note OFF: Time 74400, Note Name: F5
Note OFF: Time 74400, Note Name: F4
Note ON: Time 74400, Note Name: D#4, Velocity: 64
Note ON: Time 74400, Note Name: D#5, Velocity: 64
Note OFF: Time 74640, Note Name: D#5
Note OFF: Time 74640, Note Name: D#4
Note ON: Time 74880, Note Name: G#4, Velocity: 69
Note ON: Time 74880, Note Name: G#5, Velocity: 69
Note OFF: Time 74970, Note Name: G#5
Note OFF: Time 74970, Note Name: G#4
Note ON: Time 75840, Note Name: F#4, Velocity: 74
Note ON: Time 75840, Note Name: F#5, Velocity: 74
Note OFF: Time 76800, Note Name: F#5
Note OFF: Time 76800, Note Name: F#4
Note ON: Time 76800, Note Name: F4, Velocity: 84
Note ON: Time 76800, Note Name: F5, Velocity: 84
Note OFF: Time 77280, Note Name: F5
Note OFF: Time 77280, Note Name: F4
Note ON: Time 77280, Note Name: A#4, Velocity: 99
Note ON: Time 77280, Note Name: A#5, Velocity: 99
Note OFF: Time 78240, Note Name: A#5
Note OFF: Time 78240, Note Name: A#4
Note ON: Time 78240, Note Name: G#4, Velocity: 77
Note ON: Time 78240, Note Name: G#5, Velocity: 77
Note OFF: Time 78720, Note Name: G#5
Note OFF: Time 78720, Note Name: G#4
Note ON: Time 79200, Note Name: F#3, Velocity: 64
Note ON: Time 79200, Note Name: C4, Velocity: 64
Note OFF: Time 80160, Note Name: C4
Note ON: Time 80160, Note Name: D#4, Velocity: 61
Note OFF: Time 80400, Note Name: D#4
Note ON: Time 80400, Note Name: C#4, Velocity: 61
Note OFF: Time 80640, Note Name: C#4
Note OFF: Time 80640, Note Name: F#3
Note ON: Time 80640, Note Name: F3, Velocity: 54
Note ON: Time 80640, Note Name: C#4, Velocity: 58
Note OFF: Time 81120, Note Name: C#4
Note OFF: Time 81120, Note Name: F3
Note ON: Time 81600, Note Name: F3, Velocity: 85
Note ON: Time 81600, Note Name: F4, Velocity: 100
Note OFF: Time 83040, Note Name: F4
Note OFF: Time 83040, Note Name: F3
Note ON: Time 83040, Note Name: F#3, Velocity: 83
Note ON: Time 83040, Note Name: F#4, Velocity: 98
Note OFF: Time 84480, Note Name: F#4
Note OFF: Time 84480, Note Name: F#3
Note ON: Time 84480, Note Name: D#4, Velocity: 86
Note ON: Time 84480, Note Name: D#5, Velocity: 102
Note OFF: Time 85440, Note Name: D#5
Note OFF: Time 85440, Note Name: D#4
Note ON: Time 85440, Note Name: C4, Velocity: 73
Note ON: Time 85440, Note Name: C5, Velocity: 87
Note OFF: Time 85920, Note Name: C5
Note OFF: Time 85920, Note Name: C4
Note ON: Time 85920, Note Name: G#3, Velocity: 74
Note ON: Time 85920, Note Name: G#4, Velocity: 88
Note OFF: Time 86040, Note Name: G#4
Note OFF: Time 86040, Note Name: G#3
Note ON: Time 86400, Note Name: C#4, Velocity: 75
Note ON: Time 86400, Note Name: C#5, Velocity: 89
Note OFF: Time 86880, Note Name: C#5
Note OFF: Time 86880, Note Name: C#4
Note ON: Time 86880, Note Name: F4, Velocity: 69
Note ON: Time 86880, Note Name: F5, Velocity: 82
Note OFF: Time 87120, Note Name: F5
Note OFF: Time 87120, Note Name: F4
Note ON: Time 87360, Note Name: F3, Velocity: 84
Note ON: Time 87360, Note Name: F4, Velocity: 99
Note OFF: Time 88800, Note Name: F4
Note OFF: Time 88800, Note Name: F3
Note ON: Time 88800, Note Name: F#3, Velocity: 84
Note ON: Time 88800, Note Name: F#4, Velocity: 99
Note OFF: Time 90240, Note Name: F#4
Note OFF: Time 90240, Note Name: F#3
Note ON: Time 90240, Note Name: F#4, Velocity: 73
Note ON: Time 90240, Note Name: F#5, Velocity: 87
Note OFF: Time 91200, Note Name: F#5
Note OFF: Time 91200, Note Name: F#4
Note ON: Time 91200, Note Name: A#4, Velocity: 70
Note ON: Time 91200, Note Name: A#5, Velocity: 83
Note OFF: Time 91440, Note Name: A#5
Note OFF: Time 91440, Note Name: A#4
Note ON: Time 91680, Note Name: C4, Velocity: 67
Note ON: Time 91680, Note Name: C5, Velocity: 79
Note OFF: Time 91800, Note Name: C5
Note OFF: Time 91800, Note Name: C4
Note ON: Time 92160, Note Name: D#4, Velocity: 71
Note ON: Time 92160, Note Name: D#5, Velocity: 84
Note OFF: Time 92640, Note Name: D#5
Note OFF: Time 92640, Note Name: D#4
Note ON: Time 92640, Note Name: C#4, Velocity: 66
Note ON: Time 92640, Note Name: C#5, Velocity: 78
Note OFF: Time 93120, Note Name: C#5
Note OFF: Time 93120, Note Name: C#4
Note ON: Time 93120, Note Name: F3, Velocity: 84
Note ON: Time 93120, Note Name: F4, Velocity: 99
Note OFF: Time 94560, Note Name: F4
Note OFF: Time 94560, Note Name: F3
Note ON: Time 94560, Note Name: F#3, Velocity: 85
Note ON: Time 94560, Note Name: F#4, Velocity: 100
Note OFF: Time 96000, Note Name: F#4
Note OFF: Time 96000, Note Name: F#3
Note ON: Time 96000, Note Name: D#4, Velocity: 84
Note ON: Time 96000, Note Name: D#5, Velocity: 99
Note OFF: Time 96960, Note Name: D#5
Note OFF: Time 96960, Note Name: D#4
Note ON: Time 96960, Note Name: C4, Velocity: 73
Note ON: Time 96960, Note Name: C5, Velocity: 87
Note OFF: Time 97440, Note Name: C5
Note OFF: Time 97440, Note Name: C4
Note ON: Time 97440, Note Name: G#3, Velocity: 74
Note ON: Time 97440, Note Name: G#4, Velocity: 88
Note OFF: Time 97560, Note Name: G#4
Note OFF: Time 97560, Note Name: G#3
Note ON: Time 97920, Note Name: C#4, Velocity: 75
Note ON: Time 97920, Note Name: C#5, Velocity: 89
Note OFF: Time 98400, Note Name: C#5
Note OFF: Time 98400, Note Name: C#4
Note ON: Time 98400, Note Name: F4, Velocity: 70
Note ON: Time 98400, Note Name: F5, Velocity: 83
Note OFF: Time 98640, Note Name: F5
Note OFF: Time 98640, Note Name: F4
Note ON: Time 98880, Note Name: F3, Velocity: 85
Note ON: Time 98880, Note Name: F4, Velocity: 100
Note OFF: Time 100320, Note Name: F4
Note OFF: Time 100320, Note Name: F3
Note ON: Time 100320, Note Name: F#3, Velocity: 86
Note ON: Time 100320, Note Name: F#4, Velocity: 102
Note OFF: Time 101760, Note Name: F#4
Note OFF: Time 101760, Note Name: F#3
Note ON: Time 101760, Note Name: F#4, Velocity: 73
Note ON: Time 101760, Note Name: F#5, Velocity: 87
Note OFF: Time 102720, Note Name: F#5
Note OFF: Time 102720, Note Name: F#4
Note ON: Time 102720, Note Name: A#4, Velocity: 73
Note ON: Time 102720, Note Name: A#5, Velocity: 87
Note OFF: Time 102960, Note Name: A#5
Note OFF: Time 102960, Note Name: A#4
Note ON: Time 103200, Note Name: C4, Velocity: 72
Note ON: Time 103200, Note Name: C5, Velocity: 85
Note OFF: Time 103320, Note Name: C5
Note OFF: Time 103320, Note Name: C4
Note ON: Time 103680, Note Name: D#4, Velocity: 67
Note ON: Time 103680, Note Name: D#5, Velocity: 79
Note OFF: Time 104160, Note Name: D#5
Note OFF: Time 104160, Note Name: D#4
Note ON: Time 104160, Note Name: C#4, Velocity: 62
Note ON: Time 104160, Note Name: C#5, Velocity: 74
Note OFF: Time 104640, Note Name: C#5
Note OFF: Time 104640, Note Name: C#4
Note ON: Time 104640, Note Name: F4, Velocity: 46
Note ON: Time 104640, Note Name: F5, Velocity: 55
Note OFF: Time 106080, Note Name: F5
Note OFF: Time 106080, Note Name: F4
Note ON: Time 106080, Note Name: A#3, Velocity: 46
Note ON: Time 106080, Note Name: A#4, Velocity: 55
Note OFF: Time 107520, Note Name: A#4
Note OFF: Time 107520, Note Name: A#3
Note ON: Time 107520, Note Name: D#4, Velocity: 40
Note ON: Time 107520, Note Name: D#5, Velocity: 48
Note OFF: Time 108960, Note Name: D#5
Note OFF: Time 108960, Note Name: D#4
Note ON: Time 108960, Note Name: G#3, Velocity: 41
Note ON: Time 108960, Note Name: G#4, Velocity: 49
Note OFF: Time 110400, Note Name: G#4
Note OFF: Time 110400, Note Name: G#3
Note ON: Time 110400, Note Name: C#4, Velocity: 41
Note ON: Time 110400, Note Name: C#5, Velocity: 49
Note OFF: Time 111840, Note Name: C#5
Note OFF: Time 111840, Note Name: C#4
Note ON: Time 111840, Note Name: F#3, Velocity: 36
Note ON: Time 111840, Note Name: F#4, Velocity: 43
Note OFF: Time 113280, Note Name: F#4
Note OFF: Time 113280, Note Name: F#3
Note ON: Time 113280, Note Name: F3, Velocity: 37
Note ON: Time 113280, Note Name: F4, Velocity: 44
Note OFF: Time 114240, Note Name: F4
Note OFF: Time 114240, Note Name: F3
Note ON: Time 114240, Note Name: G#3, Velocity: 37
Note ON: Time 114240, Note Name: G#4, Velocity: 44
Note OFF: Time 114720, Note Name: G#4
Note OFF: Time 114720, Note Name: G#3
Note ON: Time 114720, Note Name: B3, Velocity: 37
Note ON: Time 114720, Note Name: B4, Velocity: 44
Note OFF: Time 115680, Note Name: B4
Note OFF: Time 115680, Note Name: B3
Note ON: Time 115680, Note Name: A#3, Velocity: 37
Note ON: Time 115680, Note Name: A#4, Velocity: 44
Note OFF: Time 115920, Note Name: A#4
Note OFF: Time 115920, Note Name: A#3
Note ON: Time 116160, Note Name: C#4, Velocity: 40
Note ON: Time 116160, Note Name: C#5, Velocity: 48
Note OFF: Time 117600, Note Name: C#5
Note OFF: Time 117600, Note Name: C#4
Note ON: Time 117600, Note Name: F#3, Velocity: 40
Note ON: Time 117600, Note Name: F#4, Velocity: 48
Note OFF: Time 119040, Note Name: F#4
Note OFF: Time 119040, Note Name: F#3
Note ON: Time 119040, Note Name: F3, Velocity: 39
Note ON: Time 119040, Note Name: F4, Velocity: 47
Note OFF: Time 120480, Note Name: F4
Note OFF: Time 120480, Note Name: F3
Note ON: Time 120480, Note Name: E3, Velocity: 42
Note ON: Time 120480, Note Name: E4, Velocity: 50
Note OFF: Time 121920, Note Name: E4
Note OFF: Time 121920, Note Name: E3
Note ON: Time 121920, Note Name: F3, Velocity: 54
Note ON: Time 121920, Note Name: F4, Velocity: 64
Note OFF: Time 123360, Note Name: F4
Note OFF: Time 123360, Note Name: F3
Note ON: Time 123360, Note Name: F#3, Velocity: 74
Note ON: Time 123360, Note Name: F#4, Velocity: 85
Note OFF: Time 124800, Note Name: F#4
Note OFF: Time 124800, Note Name: F#3
Note ON: Time 124800, Note Name: F3, Velocity: 56
Note ON: Time 124800, Note Name: F4, Velocity: 66
Note OFF: Time 125760, Note Name: F4
Note OFF: Time 125760, Note Name: F3
Note ON: Time 125760, Note Name: F#3, Velocity: 54
Note ON: Time 125760, Note Name: F#4, Velocity: 64
Note OFF: Time 126000, Note Name: F#4
Note OFF: Time 126000, Note Name: F#3
Note ON: Time 126240, Note Name: C3, Velocity: 48
Note ON: Time 126240, Note Name: C4, Velocity: 57
Note OFF: Time 126360, Note Name: C4
Note OFF: Time 126360, Note Name: C3
Note ON: Time 126720, Note Name: C#3, Velocity: 48
Note ON: Time 126720, Note Name: C#4, Velocity: 57
Note OFF: Time 126840, Note Name: C#4
Note OFF: Time 126840, Note Name: C#3
Note ON: Time 127680, Note Name: F4, Velocity: 44
Note ON: Time 127680, Note Name: F5, Velocity: 52
Note OFF: Time 129120, Note Name: F5
Note OFF: Time 129120, Note Name: F4
Note ON: Time 129120, Note Name: A#3, Velocity: 41
Note ON: Time 129120, Note Name: A#4, Velocity: 49
Note OFF: Time 130560, Note Name: A#4
Note OFF: Time 130560, Note Name: A#3
Note ON: Time 130560, Note Name: D#4, Velocity: 41
Note ON: Time 130560, Note Name: D#5, Velocity: 49
Note OFF: Time 132000, Note Name: D#5
Note OFF: Time 132000, Note Name: D#4
Note ON: Time 132000, Note Name: G#3, Velocity: 39
Note ON: Time 132000, Note Name: G#4, Velocity: 47
Note OFF: Time 133440, Note Name: G#4
Note OFF: Time 133440, Note Name: G#3
Note ON: Time 133440, Note Name: C#4, Velocity: 41
Note ON: Time 133440, Note Name: C#5, Velocity: 49
Note OFF: Time 134880, Note Name: C#5
Note OFF: Time 134880, Note Name: C#4
Note ON: Time 134880, Note Name: F#3, Velocity: 35
Note ON: Time 134880, Note Name: F#4, Velocity: 42
Note OFF: Time 136320, Note Name: F#4
Note OFF: Time 136320, Note Name: F#3
Note ON: Time 136320, Note Name: F3, Velocity: 36
Note ON: Time 136320, Note Name: F4, Velocity: 43
Note OFF: Time 137280, Note Name: F4
Note OFF: Time 137280, Note Name: F3
Note ON: Time 137280, Note Name: G#3, Velocity: 36
Note ON: Time 137280, Note Name: G#4, Velocity: 43
Note OFF: Time 137760, Note Name: G#4
Note OFF: Time 137760, Note Name: G#3
Note ON: Time 137760, Note Name: B3, Velocity: 42
Note ON: Time 137760, Note Name: B4, Velocity: 50
Note OFF: Time 138720, Note Name: B4
Note OFF: Time 138720, Note Name: B3
Note ON: Time 138720, Note Name: A#3, Velocity: 36
Note ON: Time 138720, Note Name: A#4, Velocity: 43
Note OFF: Time 138960, Note Name: A#4
Note OFF: Time 138960, Note Name: A#3
Note ON: Time 139200, Note Name: C#4, Velocity: 43
Note ON: Time 139200, Note Name: C#5, Velocity: 51
Note OFF: Time 140640, Note Name: C#5
Note OFF: Time 140640, Note Name: C#4
Note ON: Time 140640, Note Name: F#3, Velocity: 41
Note ON: Time 140640, Note Name: F#4, Velocity: 49
Note OFF: Time 142080, Note Name: F#4
Note OFF: Time 142080, Note Name: F#3
Note ON: Time 142080, Note Name: F3, Velocity: 39
Note ON: Time 142080, Note Name: F4, Velocity: 46
Note OFF: Time 143520, Note Name: F4
Note OFF: Time 143520, Note Name: F3
Note ON: Time 143520, Note Name: E3, Velocity: 39
Note ON: Time 143520, Note Name: E4, Velocity: 47
Note OFF: Time 144960, Note Name: E4
Note OFF: Time 144960, Note Name: E3
Note ON: Time 144960, Note Name: F3, Velocity: 54
Note ON: Time 144960, Note Name: F4, Velocity: 64
Note OFF: Time 146400, Note Name: F4
Note OFF: Time 146400, Note Name: F3
Note ON: Time 146400, Note Name: F#3, Velocity: 72
Note ON: Time 146400, Note Name: F#4, Velocity: 85
Note OFF: Time 147840, Note Name: F#4
Note OFF: Time 147840, Note Name: F#3
Note ON: Time 147840, Note Name: F3, Velocity: 56
Note ON: Time 147840, Note Name: F4, Velocity: 66
Note OFF: Time 148800, Note Name: F4
Note OFF: Time 148800, Note Name: F3
Note ON: Time 148800, Note Name: F#3, Velocity: 54
Note ON: Time 148800, Note Name: F#4, Velocity: 64
Note OFF: Time 149040, Note Name: F#4
Note OFF: Time 149040, Note Name: F#3
Note ON: Time 149280, Note Name: C3, Velocity: 49
Note ON: Time 149280, Note Name: C4, Velocity: 58
Note OFF: Time 149400, Note Name: C4
Note OFF: Time 149400, Note Name: C3
Note ON: Time 149760, Note Name: C#3, Velocity: 49
Note ON: Time 149760, Note Name: C#4, Velocity: 58
Note OFF: Time 149880, Note Name: C#4
Note OFF: Time 149880, Note Name: C#3
Note ON: Time 150720, Note Name: G#4, Velocity: 64
Note ON: Time 150720, Note Name: C#5, Velocity: 64
Note OFF: Time 151200, Note Name: C#5
Note OFF: Time 151200, Note Name: G#4
Note ON: Time 151201, Note Name: C5, Velocity: 64
Note ON: Time 151201, Note Name: G#4, Velocity: 64
Note ON: Time 152160, Note Name: G4, Velocity: 59
Note ON: Time 152160, Note Name: A#4, Velocity: 59
Note OFF: Time 152161, Note Name: G#4
Note OFF: Time 152161, Note Name: C5
Note OFF: Time 152640, Note Name: G4
Note OFF: Time 152640, Note Name: A#4
Note ON: Time 152640, Note Name: G#4, Velocity: 55
Note ON: Time 152640, Note Name: D#5, Velocity: 55
Note OFF: Time 152730, Note Name: D#5
Note OFF: Time 152730, Note Name: G#4
Note ON: Time 153600, Note Name: F4, Velocity: 55
Note ON: Time 153600, Note Name: C#5, Velocity: 55
Note OFF: Time 153690, Note Name: C#5
Note OFF: Time 153690, Note Name: F4
Note ON: Time 154080, Note Name: G#4, Velocity: 55
Note ON: Time 154080, Note Name: C5, Velocity: 55
Note OFF: Time 154170, Note Name: C5
Note OFF: Time 154170, Note Name: G#4
Note ON: Time 155040, Note Name: G4, Velocity: 50
Note ON: Time 155040, Note Name: A#4, Velocity: 50
Note OFF: Time 155130, Note Name: A#4
Note OFF: Time 155130, Note Name: G4
Note ON: Time 155520, Note Name: G#4, Velocity: 48
Note OFF: Time 155610, Note Name: G#4
Note ON: Time 156480, Note Name: C#5, Velocity: 64
Note ON: Time 156480, Note Name: F#5, Velocity: 64
Note OFF: Time 156960, Note Name: F#5
Note OFF: Time 156960, Note Name: C#5
Note ON: Time 156960, Note Name: C#5, Velocity: 64
Note ON: Time 156960, Note Name: F5, Velocity: 64
Note OFF: Time 157920, Note Name: F5
Note OFF: Time 157920, Note Name: C#5
Note ON: Time 157920, Note Name: C5, Velocity: 60
Note ON: Time 157920, Note Name: D#5, Velocity: 60
Note OFF: Time 158400, Note Name: D#5
Note OFF: Time 158400, Note Name: C5
Note ON: Time 158400, Note Name: C#5, Velocity: 56
Note ON: Time 158400, Note Name: G#5, Velocity: 56
Note OFF: Time 158490, Note Name: G#5
Note OFF: Time 158490, Note Name: C#5
Note ON: Time 159360, Note Name: A#4, Velocity: 55
Note ON: Time 159360, Note Name: F#5, Velocity: 55
Note OFF: Time 159450, Note Name: F#5
Note OFF: Time 159450, Note Name: A#4
Note ON: Time 159840, Note Name: C#5, Velocity: 56
Note ON: Time 159840, Note Name: F5, Velocity: 56
Note OFF: Time 159930, Note Name: F5
Note OFF: Time 159930, Note Name: C#5
Note ON: Time 160800, Note Name: C5, Velocity: 54
Note ON: Time 160800, Note Name: D#5, Velocity: 54
Note OFF: Time 160890, Note Name: D#5
Note OFF: Time 160890, Note Name: C5
Note ON: Time 161280, Note Name: C#5, Velocity: 51
Note OFF: Time 161370, Note Name: C#5
Note ON: Time 162240, Note Name: C#4, Velocity: 64
Note ON: Time 162240, Note Name: C#5, Velocity: 64
Note OFF: Time 163200, Note Name: C#5
Note OFF: Time 163200, Note Name: C#4
Note ON: Time 163200, Note Name: C4, Velocity: 64
Note ON: Time 163200, Note Name: C5, Velocity: 64
Note OFF: Time 163680, Note Name: C5
Note OFF: Time 163680, Note Name: C4
Note ON: Time 163680, Note Name: A#3, Velocity: 64
Note ON: Time 163680, Note Name: A#4, Velocity: 64
Note OFF: Time 164160, Note Name: A#3
Note ON: Time 164160, Note Name: D#4, Velocity: 64
Note OFF: Time 164640, Note Name: D#4
Note OFF: Time 164640, Note Name: A#4
Note ON: Time 164640, Note Name: D#5, Velocity: 64
Note OFF: Time 164760, Note Name: D#5
Note ON: Time 165120, Note Name: C#5, Velocity: 59
Note ON: Time 165120, Note Name: F4, Velocity: 59
Note OFF: Time 165600, Note Name: F4
Note ON: Time 165600, Note Name: G#4, Velocity: 59
Note OFF: Time 166080, Note Name: G#4
Note OFF: Time 166080, Note Name: C#5
Note ON: Time 166080, Note Name: C5, Velocity: 59
Note OFF: Time 166560, Note Name: C5
Note ON: Time 166560, Note Name: G4, Velocity: 59
Note ON: Time 166560, Note Name: A#4, Velocity: 59
Note OFF: Time 167040, Note Name: G4
Note OFF: Time 167520, Note Name: A#4
Note ON: Time 167520, Note Name: G#4, Velocity: 64
Note OFF: Time 167760, Note Name: G#4
Note ON: Time 168000, Note Name: F#4, Velocity: 64
Note ON: Time 168000, Note Name: F#5, Velocity: 64
Note OFF: Time 168960, Note Name: F#5
Note OFF: Time 168960, Note Name: F#4
Note ON: Time 168960, Note Name: F4, Velocity: 64
Note ON: Time 168960, Note Name: F5, Velocity: 64
Note OFF: Time 169440, Note Name: F5
Note OFF: Time 169440, Note Name: F4
Note ON: Time 169440, Note Name: D#4, Velocity: 64
Note ON: Time 169440, Note Name: D#5, Velocity: 64
Note OFF: Time 169920, Note Name: D#4
Note ON: Time 169920, Note Name: G#4, Velocity: 69
Note OFF: Time 170400, Note Name: G#4
Note OFF: Time 170400, Note Name: D#5
Note ON: Time 170400, Note Name: G#5, Velocity: 69
Note OFF: Time 170520, Note Name: G#5
Note ON: Time 170880, Note Name: A#4, Velocity: 64
Note ON: Time 170880, Note Name: F#5, Velocity: 64
Note OFF: Time 171360, Note Name: A#4
Note ON: Time 171360, Note Name: C#5, Velocity: 64
Note OFF: Time 171840, Note Name: C#5
Note OFF: Time 171840, Note Name: F#5
Note ON: Time 171840, Note Name: F5, Velocity: 59
Note OFF: Time 172080, Note Name: F5
Note ON: Time 172320, Note Name: D#5, Velocity: 59
Note ON: Time 172320, Note Name: C5, Velocity: 59
Note OFF: Time 172800, Note Name: C5
Note OFF: Time 173280, Note Name: D#5
Note ON: Time 173280, Note Name: C#5, Velocity: 56
Note OFF: Time 173520, Note Name: C#5
Note ON: Time 173760, Note Name: C#5, Velocity: 64
Note ON: Time 173760, Note Name: F4, Velocity: 64
Note OFF: Time 174240, Note Name: F4
Note OFF: Time 174240, Note Name: C#5
Note ON: Time 174240, Note Name: C#5, Velocity: 64
Note ON: Time 174240, Note Name: F4, Velocity: 64
Note OFF: Time 175200, Note Name: F4
Note OFF: Time 175200, Note Name: C#5
Note ON: Time 175200, Note Name: F4, Velocity: 64
Note ON: Time 175200, Note Name: C#5, Velocity: 64
Note OFF: Time 175680, Note Name: C#5
Note OFF: Time 175680, Note Name: F4
Note ON: Time 175680, Note Name: D#4, Velocity: 64
Note ON: Time 175680, Note Name: C#5, Velocity: 64
Note OFF: Time 176160, Note Name: C#5
Note ON: Time 176160, Note Name: C5, Velocity: 64
Note OFF: Time 176400, Note Name: C5
Note OFF: Time 176640, Note Name: D#4
Note ON: Time 176640, Note Name: D#4, Velocity: 57
Note ON: Time 176640, Note Name: B4, Velocity: 57
Note OFF: Time 177120, Note Name: B4
Note OFF: Time 177120, Note Name: D#4
Note ON: Time 177120, Note Name: D#4, Velocity: 58
Note ON: Time 177120, Note Name: B4, Velocity: 58
Note OFF: Time 178080, Note Name: B4
Note OFF: Time 178080, Note Name: D#4
Note ON: Time 178080, Note Name: D#4, Velocity: 58
Note ON: Time 178080, Note Name: B4, Velocity: 58
Note OFF: Time 178560, Note Name: B4
Note OFF: Time 178560, Note Name: D#4
Note ON: Time 178560, Note Name: D#4, Velocity: 58
Note ON: Time 178560, Note Name: B4, Velocity: 58
Note OFF: Time 179040, Note Name: B4
Note ON: Time 179040, Note Name: A#4, Velocity: 58
Note OFF: Time 179280, Note Name: A#4
Note OFF: Time 179520, Note Name: D#4
Note ON: Time 179520, Note Name: C#4, Velocity: 64
Note ON: Time 179520, Note Name: A#4, Velocity: 64
Note OFF: Time 180000, Note Name: A#4
Note OFF: Time 180000, Note Name: C#4
Note ON: Time 180000, Note Name: F#4, Velocity: 73
Note ON: Time 180000, Note Name: C5, Velocity: 73
Note OFF: Time 180960, Note Name: C5
Note OFF: Time 180960, Note Name: F#4
Note ON: Time 180960, Note Name: F4, Velocity: 77
Note ON: Time 180960, Note Name: C#5, Velocity: 77
Note OFF: Time 181440, Note Name: C#5
Note OFF: Time 181440, Note Name: F4
Note ON: Time 181440, Note Name: F#4, Velocity: 88
Note ON: Time 181440, Note Name: D#5, Velocity: 88
Note OFF: Time 182400, Note Name: D#5
Note OFF: Time 182400, Note Name: F#4
Note ON: Time 182400, Note Name: D#4, Velocity: 75
Note ON: Time 182400, Note Name: F#4, Velocity: 75
Note OFF: Time 183360, Note Name: F#4
Note OFF: Time 183360, Note Name: D#4
Note ON: Time 183360, Note Name: C#4, Velocity: 64
Note ON: Time 183360, Note Name: F4, Velocity: 64
Note OFF: Time 183840, Note Name: F4
Note OFF: Time 183840, Note Name: C#4
Note ON: Time 183840, Note Name: A#4, Velocity: 64
Note ON: Time 183840, Note Name: A#3, Velocity: 64
Note OFF: Time 184080, Note Name: A#4
Note ON: Time 184080, Note Name: F#4, Velocity: 64
Note OFF: Time 184320, Note Name: F#4
Note OFF: Time 184320, Note Name: A#3
Note ON: Time 184320, Note Name: C#4, Velocity: 70
Note ON: Time 184320, Note Name: F4, Velocity: 70
Note OFF: Time 184800, Note Name: F4
Note OFF: Time 184800, Note Name: C#4
Note ON: Time 184800, Note Name: C4, Velocity: 64
Note ON: Time 184800, Note Name: D#4, Velocity: 64
Note OFF: Time 185280, Note Name: D#4
Note OFF: Time 185280, Note Name: C4
Note ON: Time 185280, Note Name: C#4, Velocity: 64
Note ON: Time 185280, Note Name: C#5, Velocity: 64
Note OFF: Time 185760, Note Name: C#5
Note OFF: Time 185760, Note Name: C#4
Note ON: Time 185760, Note Name: C4, Velocity: 65
Note ON: Time 185760, Note Name: C5, Velocity: 65
Note OFF: Time 186720, Note Name: C5
Note OFF: Time 186720, Note Name: C4
Note ON: Time 186720, Note Name: A#4, Velocity: 68
Note ON: Time 186720, Note Name: A#3, Velocity: 68
Note OFF: Time 187200, Note Name: A#3
Note OFF: Time 187200, Note Name: A#4
Note ON: Time 187200, Note Name: D#4, Velocity: 65
Note ON: Time 187200, Note Name: D#5, Velocity: 65
Note OFF: Time 187290, Note Name: D#5
Note OFF: Time 187290, Note Name: D#4
Note ON: Time 188160, Note Name: F4, Velocity: 64
Note ON: Time 188160, Note Name: C#5, Velocity: 64
Note OFF: Time 188640, Note Name: F4
Note ON: Time 188640, Note Name: G#4, Velocity: 64
Note OFF: Time 189120, Note Name: G#4
Note OFF: Time 189120, Note Name: C#5
Note ON: Time 189120, Note Name: C5, Velocity: 64
Note OFF: Time 189600, Note Name: C5
Note ON: Time 189600, Note Name: G4, Velocity: 59
Note ON: Time 189600, Note Name: A#4, Velocity: 59
Note OFF: Time 190080, Note Name: G4
Note OFF: Time 190560, Note Name: A#4
Note ON: Time 190560, Note Name: G#4, Velocity: 58
Note OFF: Time 190800, Note Name: G#4
Note ON: Time 191040, Note Name: F#4, Velocity: 64
Note ON: Time 191040, Note Name: F#5, Velocity: 64
Note OFF: Time 191520, Note Name: F#5
Note OFF: Time 191520, Note Name: F#4
Note ON: Time 191520, Note Name: F4, Velocity: 65
Note ON: Time 191520, Note Name: F5, Velocity: 65
Note OFF: Time 192480, Note Name: F5
Note OFF: Time 192480, Note Name: F4
Note ON: Time 192480, Note Name: D#4, Velocity: 68
Note ON: Time 192480, Note Name: D#5, Velocity: 68
Note OFF: Time 192960, Note Name: D#5
Note OFF: Time 192960, Note Name: D#4
Note ON: Time 192960, Note Name: G#4, Velocity: 65
Note ON: Time 192960, Note Name: G#5, Velocity: 65
Note OFF: Time 193050, Note Name: G#5
Note OFF: Time 193050, Note Name: G#4
Note ON: Time 193920, Note Name: F#4, Velocity: 64
Note ON: Time 193920, Note Name: F#5, Velocity: 64
Note OFF: Time 194880, Note Name: F#5
Note OFF: Time 194880, Note Name: F#4
Note ON: Time 194880, Note Name: F4, Velocity: 64
Note ON: Time 194880, Note Name: F5, Velocity: 64
Note OFF: Time 195360, Note Name: F5
Note OFF: Time 195360, Note Name: F4
Note ON: Time 195360, Note Name: D#4, Velocity: 64
Note ON: Time 195360, Note Name: D#5, Velocity: 64
Note OFF: Time 195600, Note Name: D#5
Note OFF: Time 195600, Note Name: D#4
Note ON: Time 195840, Note Name: G#4, Velocity: 64
Note ON: Time 195840, Note Name: G#5, Velocity: 64
Note OFF: Time 195930, Note Name: G#5
Note OFF: Time 195930, Note Name: G#4
Note ON: Time 196800, Note Name: F#4, Velocity: 73
Note ON: Time 196800, Note Name: F#5, Velocity: 73
Note OFF: Time 197760, Note Name: F#5
Note OFF: Time 197760, Note Name: F#4
Note ON: Time 197760, Note Name: F4, Velocity: 85
Note ON: Time 197760, Note Name: F5, Velocity: 85
Note OFF: Time 198240, Note Name: F5
Note OFF: Time 198240, Note Name: F4
Note ON: Time 198240, Note Name: A#4, Velocity: 103
Note ON: Time 198240, Note Name: A#5, Velocity: 103
Note OFF: Time 199200, Note Name: A#5
Note OFF: Time 199200, Note Name: A#4
Note ON: Time 199200, Note Name: G#4, Velocity: 77
Note ON: Time 199200, Note Name: G#5, Velocity: 77
Note OFF: Time 199680, Note Name: G#5
Note OFF: Time 199680, Note Name: G#4
Note ON: Time 200160, Note Name: F#3, Velocity: 64
Note ON: Time 200160, Note Name: C4, Velocity: 64
Note OFF: Time 201120, Note Name: C4
Note ON: Time 201120, Note Name: D#4, Velocity: 60
Note OFF: Time 201360, Note Name: D#4
Note ON: Time 201360, Note Name: C#4, Velocity: 60
Note OFF: Time 201600, Note Name: C#4
Note OFF: Time 201600, Note Name: F#3
Note ON: Time 201600, Note Name: F3, Velocity: 54
Note ON: Time 201600, Note Name: C#4, Velocity: 57
Note OFF: Time 202080, Note Name: C#4
Note OFF: Time 202080, Note Name: F3
Track 2: Piano left
Note ON: Time 960, Note Name: F4, Velocity: 52
Note OFF: Time 1440, Note Name: F4
Note ON: Time 1441, Note Name: D#4, Velocity: 55
Note ON: Time 2400, Note Name: C#4, Velocity: 49
Note OFF: Time 2401, Note Name: D#4
Note OFF: Time 2880, Note Name: C#4
Note ON: Time 2880, Note Name: C4, Velocity: 46
Note OFF: Time 2970, Note Name: C4
Note ON: Time 3840, Note Name: C#3, Velocity: 44
Note ON: Time 3840, Note Name: A#3, Velocity: 44
Note OFF: Time 3930, Note Name: A#3
Note OFF: Time 3930, Note Name: C#3
Note ON: Time 4320, Note Name: D#4, Velocity: 45
Note ON: Time 4320, Note Name: D#3, Velocity: 45
Note OFF: Time 4410, Note Name: D#3
Note OFF: Time 4410, Note Name: D#4
Note ON: Time 5280, Note Name: D#3, Velocity: 42
Note ON: Time 5280, Note Name: C#4, Velocity: 42
Note OFF: Time 5370, Note Name: C#4
Note OFF: Time 5370, Note Name: D#3
Note ON: Time 5760, Note Name: G#3, Velocity: 41
Note ON: Time 5760, Note Name: C4, Velocity: 41
Note OFF: Time 5850, Note Name: C4
Note OFF: Time 5850, Note Name: G#3
Note ON: Time 6720, Note Name: A#4, Velocity: 55
Note OFF: Time 7200, Note Name: A#4
Note ON: Time 7200, Note Name: G#4, Velocity: 55
Note OFF: Time 8160, Note Name: G#4
Note ON: Time 8160, Note Name: F#4, Velocity: 52
Note OFF: Time 8640, Note Name: F#4
Note ON: Time 8640, Note Name: F4, Velocity: 47
Note OFF: Time 8730, Note Name: F4
Note ON: Time 9600, Note Name: F#3, Velocity: 47
Note ON: Time 9600, Note Name: D#4, Velocity: 47
Note OFF: Time 9690, Note Name: D#4
Note OFF: Time 9690, Note Name: F#3
Note ON: Time 10080, Note Name: G#3, Velocity: 47
Note ON: Time 10080, Note Name: G#4, Velocity: 47
Note OFF: Time 10170, Note Name: G#4
Note OFF: Time 10170, Note Name: G#3
Note ON: Time 11040, Note Name: G#3, Velocity: 45
Note ON: Time 11040, Note Name: F#4, Velocity: 45
Note OFF: Time 11130, Note Name: F#4
Note OFF: Time 11130, Note Name: G#3
Note ON: Time 11520, Note Name: C#4, Velocity: 44
Note ON: Time 11520, Note Name: F4, Velocity: 44
Note OFF: Time 11610, Note Name: F4
Note OFF: Time 11610, Note Name: C#4
Note ON: Time 12480, Note Name: F3, Velocity: 47
Note ON: Time 12480, Note Name: G#3, Velocity: 47
Note OFF: Time 12960, Note Name: G#3
Note OFF: Time 12960, Note Name: F3
Note ON: Time 12960, Note Name: D#3, Velocity: 55
Note ON: Time 12960, Note Name: G#3, Velocity: 55
Note OFF: Time 13920, Note Name: G#3
Note OFF: Time 13920, Note Name: D#3
Note ON: Time 13920, Note Name: G3, Velocity: 49
Note ON: Time 13920, Note Name: C#3, Velocity: 49
Note OFF: Time 14400, Note Name: C#3
Note OFF: Time 14400, Note Name: G3
Note ON: Time 14400, Note Name: C3, Velocity: 55
Note ON: Time 14400, Note Name: C4, Velocity: 55
Note OFF: Time 14880, Note Name: C4
Note OFF: Time 14880, Note Name: C3
Note ON: Time 15360, Note Name: C#3, Velocity: 48
Note ON: Time 15360, Note Name: A#3, Velocity: 48
Note OFF: Time 15600, Note Name: A#3
Note OFF: Time 15600, Note Name: C#3
Note ON: Time 15840, Note Name: D#3, Velocity: 52
Note ON: Time 15840, Note Name: D#4, Velocity: 52
Note OFF: Time 16080, Note Name: D#4
Note OFF: Time 16080, Note Name: D#3
Note ON: Time 16800, Note Name: D#3, Velocity: 45
Note ON: Time 16800, Note Name: C#4, Velocity: 45
Note OFF: Time 17040, Note Name: C#4
Note OFF: Time 17040, Note Name: D#3
Note ON: Time 17280, Note Name: G#3, Velocity: 48
Note ON: Time 17280, Note Name: C4, Velocity: 48
Note OFF: Time 17520, Note Name: C4
Note OFF: Time 17520, Note Name: G#3
Note ON: Time 18240, Note Name: A#3, Velocity: 49
Note ON: Time 18240, Note Name: C#4, Velocity: 49
Note OFF: Time 18720, Note Name: C#4
Note OFF: Time 18720, Note Name: A#3
Note ON: Time 18720, Note Name: G#3, Velocity: 56
Note ON: Time 18720, Note Name: C#4, Velocity: 56
Note OFF: Time 19680, Note Name: C#4
Note OFF: Time 19680, Note Name: G#3
Note ON: Time 19680, Note Name: F#3, Velocity: 55
Note ON: Time 19680, Note Name: C4, Velocity: 55
Note OFF: Time 20160, Note Name: C4
Note OFF: Time 20160, Note Name: F#3
Note ON: Time 20160, Note Name: F3, Velocity: 60
Note ON: Time 20160, Note Name: F4, Velocity: 60
Note OFF: Time 20640, Note Name: F4
Note OFF: Time 20640, Note Name: F3
Note ON: Time 21120, Note Name: F#3, Velocity: 46
Note ON: Time 21120, Note Name: D#4, Velocity: 46
Note OFF: Time 21360, Note Name: D#4
Note OFF: Time 21360, Note Name: F#3
Note ON: Time 21600, Note Name: G#3, Velocity: 52
Note ON: Time 21600, Note Name: G#4, Velocity: 52
Note OFF: Time 21840, Note Name: G#4
Note OFF: Time 21840, Note Name: G#3
Note ON: Time 22560, Note Name: G#3, Velocity: 45
Note ON: Time 22560, Note Name: F#4, Velocity: 45
Note OFF: Time 22800, Note Name: F#4
Note OFF: Time 22800, Note Name: G#3
Note ON: Time 23040, Note Name: C#4, Velocity: 47
Note ON: Time 23040, Note Name: F4, Velocity: 47
Note OFF: Time 23280, Note Name: F4
Note OFF: Time 23280, Note Name: C#4
Note ON: Time 24000, Note Name: C#4, Velocity: 46
Note OFF: Time 24480, Note Name: C#4
Note ON: Time 24480, Note Name: A#3, Velocity: 50
Note OFF: Time 25440, Note Name: A#3
Note ON: Time 25440, Note Name: G#3, Velocity: 50
Note OFF: Time 25920, Note Name: G#3
Note ON: Time 25920, Note Name: G3, Velocity: 50
Note OFF: Time 26400, Note Name: G3
Note ON: Time 26400, Note Name: G#3, Velocity: 47
Note OFF: Time 26640, Note Name: G#3
Note ON: Time 26880, Note Name: G#3, Velocity: 47
Note OFF: Time 27360, Note Name: G#3
Note ON: Time 27360, Note Name: G#3, Velocity: 47
Note OFF: Time 28320, Note Name: G#3
Note ON: Time 28320, Note Name: F#3, Velocity: 47
Note OFF: Time 28800, Note Name: F#3
Note ON: Time 28800, Note Name: F3, Velocity: 48
Note OFF: Time 29280, Note Name: F3
Note ON: Time 29280, Note Name: F#3, Velocity: 48
Note OFF: Time 29520, Note Name: F#3
Note ON: Time 29760, Note Name: F#3, Velocity: 55
Note OFF: Time 30240, Note Name: F#3
Note ON: Time 30240, Note Name: D#3, Velocity: 58
Note ON: Time 30240, Note Name: G#3, Velocity: 58
Note OFF: Time 31200, Note Name: G#3
Note OFF: Time 31200, Note Name: D#3
Note ON: Time 31200, Note Name: C#3, Velocity: 65
Note ON: Time 31200, Note Name: G#3, Velocity: 65
Note OFF: Time 31680, Note Name: G#3
Note OFF: Time 31680, Note Name: C#3
Note ON: Time 31680, Note Name: C3, Velocity: 73
Note ON: Time 31680, Note Name: G#3, Velocity: 73
Note OFF: Time 33120, Note Name: G#3
Note OFF: Time 33120, Note Name: C3
Note ON: Time 33120, Note Name: C#3, Velocity: 56
Note ON: Time 33120, Note Name: G#3, Velocity: 56
Note OFF: Time 34080, Note Name: G#3
Note OFF: Time 34080, Note Name: C#3
Note ON: Time 34080, Note Name: F#3, Velocity: 55
Note ON: Time 34080, Note Name: F#2, Velocity: 55
Note OFF: Time 34320, Note Name: F#3
Note ON: Time 34320, Note Name: D#3, Velocity: 55
Note OFF: Time 34560, Note Name: D#3
Note OFF: Time 34560, Note Name: F#2
Note ON: Time 34560, Note Name: F#2, Velocity: 55
Note ON: Time 34560, Note Name: G#3, Velocity: 55
Note OFF: Time 35280, Note Name: G#3
Note OFF: Time 35280, Note Name: F#2
Note ON: Time 35520, Note Name: F3, Velocity: 51
Note ON: Time 35520, Note Name: G#3, Velocity: 51
Note OFF: Time 36000, Note Name: G#3
Note OFF: Time 36000, Note Name: F3
Note ON: Time 36000, Note Name: D#3, Velocity: 56
Note ON: Time 36000, Note Name: G#3, Velocity: 56
Note OFF: Time 36960, Note Name: G#3
Note OFF: Time 36960, Note Name: D#3
Note ON: Time 36960, Note Name: C#3, Velocity: 47
Note ON: Time 36960, Note Name: G3, Velocity: 47
Note OFF: Time 37440, Note Name: G3
Note OFF: Time 37440, Note Name: C#3
Note ON: Time 37440, Note Name: C3, Velocity: 49
Note ON: Time 37440, Note Name: C4, Velocity: 49
Note OFF: Time 37530, Note Name: C4
Note OFF: Time 37530, Note Name: C3
Note ON: Time 38400, Note Name: C#3, Velocity: 48
Note ON: Time 38400, Note Name: A#3, Velocity: 48
Note OFF: Time 38640, Note Name: A#3
Note OFF: Time 38640, Note Name: C#3
Note ON: Time 38880, Note Name: D#3, Velocity: 54
Note ON: Time 38880, Note Name: D#4, Velocity: 54
Note OFF: Time 39120, Note Name: D#4
Note OFF: Time 39120, Note Name: D#3
Note ON: Time 39840, Note Name: D#3, Velocity: 47
Note ON: Time 39840, Note Name: C#4, Velocity: 47
Note OFF: Time 40080, Note Name: C#4
Note OFF: Time 40080, Note Name: D#3
Note ON: Time 40320, Note Name: G#3, Velocity: 51
Note ON: Time 40320, Note Name: C4, Velocity: 51
Note OFF: Time 40560, Note Name: C4
Note OFF: Time 40560, Note Name: G#3
Note ON: Time 41280, Note Name: A#3, Velocity: 49
Note ON: Time 41280, Note Name: C#4, Velocity: 49
Note OFF: Time 41760, Note Name: C#4
Note OFF: Time 41760, Note Name: A#3
Note ON: Time 41760, Note Name: G#3, Velocity: 56
Note ON: Time 41760, Note Name: C#4, Velocity: 56
Note OFF: Time 42720, Note Name: C#4
Note OFF: Time 42720, Note Name: G#3
Note ON: Time 42720, Note Name: F#3, Velocity: 49
Note ON: Time 42720, Note Name: C4, Velocity: 49
Note OFF: Time 43200, Note Name: C4
Note OFF: Time 43200, Note Name: F#3
Note ON: Time 43200, Note Name: F3, Velocity: 53
Note ON: Time 43200, Note Name: C#4, Velocity: 53
Note OFF: Time 43290, Note Name: C#4
Note OFF: Time 43290, Note Name: F3
Note ON: Time 44160, Note Name: A#3, Velocity: 47
Note ON: Time 44160, Note Name: C#4, Velocity: 47
Note OFF: Time 44640, Note Name: C#4
Note OFF: Time 44640, Note Name: A#3
Note ON: Time 44640, Note Name: G#3, Velocity: 55
Note ON: Time 44640, Note Name: C#4, Velocity: 55
Note OFF: Time 45600, Note Name: C#4
Note OFF: Time 45600, Note Name: G#3
Note ON: Time 45600, Note Name: F#3, Velocity: 47
Note ON: Time 45600, Note Name: C4, Velocity: 47
Note OFF: Time 46080, Note Name: C4
Note OFF: Time 46080, Note Name: F#3
Note ON: Time 46080, Note Name: F3, Velocity: 56
Note ON: Time 46080, Note Name: C#4, Velocity: 56
Note OFF: Time 46170, Note Name: C#4
Note OFF: Time 46170, Note Name: F3
Note ON: Time 47040, Note Name: A#3, Velocity: 54
Note ON: Time 47040, Note Name: C#4, Velocity: 54
Note OFF: Time 47520, Note Name: C#4
Note OFF: Time 47520, Note Name: A#3
Note ON: Time 47520, Note Name: G#3, Velocity: 61
Note ON: Time 47520, Note Name: C#4, Velocity: 61
Note OFF: Time 48480, Note Name: C#4
Note OFF: Time 48480, Note Name: G#3
Note ON: Time 48480, Note Name: G3, Velocity: 71
Note ON: Time 48480, Note Name: E4, Velocity: 71
Note ON: Time 48480, Note Name: C#4, Velocity: 71
Note OFF: Time 48960, Note Name: C#4
Note OFF: Time 48960, Note Name: E4
Note OFF: Time 48960, Note Name: G3
Note ON: Time 48960, Note Name: G#3, Velocity: 74
Note ON: Time 48960, Note Name: C#4, Velocity: 74
Note ON: Time 48960, Note Name: F4, Velocity: 74
Note OFF: Time 49440, Note Name: F4
Note OFF: Time 49440, Note Name: C#4
Note OFF: Time 49440, Note Name: G#3
Note ON: Time 50400, Note Name: G#1, Velocity: 54
Note ON: Time 50400, Note Name: G#2, Velocity: 54
Note OFF: Time 51840, Note Name: G#2
Note OFF: Time 51840, Note Name: G#1
Note ON: Time 51840, Note Name: C#2, Velocity: 51
Note ON: Time 51840, Note Name: G#2, Velocity: 51
Note OFF: Time 52320, Note Name: G#2
Note OFF: Time 52320, Note Name: C#2
Note ON: Time 52800, Note Name: C#4, Velocity: 54
Note OFF: Time 53280, Note Name: C#4
Note ON: Time 53280, Note Name: A#3, Velocity: 54
Note OFF: Time 54240, Note Name: A#3
Note ON: Time 54240, Note Name: G#3, Velocity: 54
Note OFF: Time 54720, Note Name: G#3
Note ON: Time 54720, Note Name: G3, Velocity: 54
Note OFF: Time 55200, Note Name: G3
Note ON: Time 55200, Note Name: G#3, Velocity: 54
Note OFF: Time 55440, Note Name: G#3
Note ON: Time 55680, Note Name: G#3, Velocity: 51
Note OFF: Time 56160, Note Name: G#3
Note ON: Time 56160, Note Name: G#3, Velocity: 51
Note OFF: Time 57120, Note Name: G#3
Note ON: Time 57120, Note Name: F#3, Velocity: 51
Note OFF: Time 57600, Note Name: F#3
Note ON: Time 57600, Note Name: F3, Velocity: 51
Note OFF: Time 58080, Note Name: F3
Note ON: Time 58080, Note Name: F#3, Velocity: 51
Note OFF: Time 58320, Note Name: F#3
Note ON: Time 58560, Note Name: F#3, Velocity: 54
Note OFF: Time 59040, Note Name: F#3
Note ON: Time 59040, Note Name: D#3, Velocity: 58
Note ON: Time 59040, Note Name: G#3, Velocity: 58
Note OFF: Time 60000, Note Name: G#3
Note OFF: Time 60000, Note Name: D#3
Note ON: Time 60000, Note Name: C#3, Velocity: 64
Note ON: Time 60000, Note Name: G#3, Velocity: 64
Note OFF: Time 60480, Note Name: G#3
Note OFF: Time 60480, Note Name: C#3
Note ON: Time 60480, Note Name: C3, Velocity: 72
Note ON: Time 60480, Note Name: G#3, Velocity: 72
Note OFF: Time 61920, Note Name: G#3
Note OFF: Time 61920, Note Name: C3
Note ON: Time 61920, Note Name: C#3, Velocity: 56
Note ON: Time 61920, Note Name: G#3, Velocity: 56
Note OFF: Time 62880, Note Name: G#3
Note OFF: Time 62880, Note Name: C#3
Note ON: Time 62880, Note Name: F#3, Velocity: 54
Note ON: Time 62880, Note Name: F#2, Velocity: 54
Note OFF: Time 63120, Note Name: F#3
Note ON: Time 63120, Note Name: D#3, Velocity: 54
Note OFF: Time 63360, Note Name: D#3
Note OFF: Time 63360, Note Name: F#2
Note ON: Time 63360, Note Name: F#2, Velocity: 54
Note ON: Time 63360, Note Name: G#3, Velocity: 54
Note OFF: Time 64080, Note Name: G#3
Note OFF: Time 64080, Note Name: F#2
Note ON: Time 64320, Note Name: F3, Velocity: 50
Note ON: Time 64320, Note Name: G#3, Velocity: 50
Note OFF: Time 64800, Note Name: G#3
Note OFF: Time 64800, Note Name: F3
Note ON: Time 64800, Note Name: D#3, Velocity: 56
Note ON: Time 64800, Note Name: G#3, Velocity: 56
Note OFF: Time 65760, Note Name: G#3
Note OFF: Time 65760, Note Name: D#3
Note ON: Time 65760, Note Name: C#3, Velocity: 48
Note ON: Time 65760, Note Name: G3, Velocity: 48
Note OFF: Time 66240, Note Name: G3
Note OFF: Time 66240, Note Name: C#3
Note ON: Time 66240, Note Name: C3, Velocity: 50
Note ON: Time 66240, Note Name: C4, Velocity: 50
Note OFF: Time 66330, Note Name: C4
Note OFF: Time 66330, Note Name: C3
Note ON: Time 67200, Note Name: C#3, Velocity: 46
Note ON: Time 67200, Note Name: A#3, Velocity: 46
Note OFF: Time 67440, Note Name: A#3
Note OFF: Time 67440, Note Name: C#3
Note ON: Time 67680, Note Name: D#3, Velocity: 51
Note ON: Time 67680, Note Name: D#4, Velocity: 51
Note OFF: Time 67920, Note Name: D#4
Note OFF: Time 67920, Note Name: D#3
Note ON: Time 68640, Note Name: D#3, Velocity: 47
Note ON: Time 68640, Note Name: C#4, Velocity: 47
Note OFF: Time 68880, Note Name: C#4
Note OFF: Time 68880, Note Name: D#3
Note ON: Time 69120, Note Name: G#3, Velocity: 51
Note ON: Time 69120, Note Name: C4, Velocity: 51
Note OFF: Time 69360, Note Name: C4
Note OFF: Time 69360, Note Name: G#3
Note ON: Time 70080, Note Name: A#3, Velocity: 54
Note ON: Time 70080, Note Name: C#4, Velocity: 54
Note OFF: Time 70560, Note Name: C#4
Note OFF: Time 70560, Note Name: A#3
Note ON: Time 70560, Note Name: G#3, Velocity: 56
Note ON: Time 70560, Note Name: C#4, Velocity: 56
Note OFF: Time 71520, Note Name: C#4
Note OFF: Time 71520, Note Name: G#3
Note ON: Time 71520, Note Name: F#3, Velocity: 47
Note ON: Time 71520, Note Name: C4, Velocity: 47
Note OFF: Time 72000, Note Name: C4
Note OFF: Time 72000, Note Name: F#3
Note ON: Time 72000, Note Name: F3, Velocity: 49
Note ON: Time 72000, Note Name: C#4, Velocity: 49
Note OFF: Time 72090, Note Name: C#4
Note OFF: Time 72090, Note Name: F3
Note ON: Time 72960, Note Name: A#3, Velocity: 49
Note ON: Time 72960, Note Name: C#4, Velocity: 49
Note OFF: Time 73440, Note Name: C#4
Note OFF: Time 73440, Note Name: A#3
Note ON: Time 73440, Note Name: G#3, Velocity: 55
Note ON: Time 73440, Note Name: C#4, Velocity: 55
Note OFF: Time 74400, Note Name: C#4
Note OFF: Time 74400, Note Name: G#3
Note ON: Time 74400, Note Name: F#3, Velocity: 54
Note ON: Time 74400, Note Name: C4, Velocity: 54
Note OFF: Time 74880, Note Name: C4
Note OFF: Time 74880, Note Name: F#3
Note ON: Time 74880, Note Name: F3, Velocity: 58
Note ON: Time 74880, Note Name: C#4, Velocity: 58
Note OFF: Time 74970, Note Name: C#4
Note OFF: Time 74970, Note Name: F3
Note ON: Time 75840, Note Name: A#3, Velocity: 54
Note ON: Time 75840, Note Name: C#4, Velocity: 54
Note OFF: Time 76320, Note Name: C#4
Note OFF: Time 76320, Note Name: A#3
Note ON: Time 76320, Note Name: G#3, Velocity: 61
Note ON: Time 76320, Note Name: C#4, Velocity: 61
Note OFF: Time 77280, Note Name: C#4
Note OFF: Time 77280, Note Name: G#3
Note ON: Time 77280, Note Name: G3, Velocity: 67
Note ON: Time 77280, Note Name: E4, Velocity: 67
Note ON: Time 77280, Note Name: C#4, Velocity: 67
Note OFF: Time 77760, Note Name: C#4
Note OFF: Time 77760, Note Name: E4
Note OFF: Time 77760, Note Name: G3
Note ON: Time 77760, Note Name: G#3, Velocity: 74
Note ON: Time 77760, Note Name: C#4, Velocity: 74
Note ON: Time 77760, Note Name: F4, Velocity: 74
Note OFF: Time 78240, Note Name: F4
Note OFF: Time 78240, Note Name: C#4
Note OFF: Time 78240, Note Name: G#3
Note ON: Time 79200, Note Name: G#1, Velocity: 54
Note ON: Time 79200, Note Name: G#2, Velocity: 54
Note OFF: Time 80640, Note Name: G#2
Note OFF: Time 80640, Note Name: G#1
Note ON: Time 80640, Note Name: C#2, Velocity: 51
Note ON: Time 80640, Note Name: G#2, Velocity: 51
Note OFF: Time 81120, Note Name: G#2
Note OFF: Time 81120, Note Name: C#2
Note ON: Time 82080, Note Name: C#2, Velocity: 65
Note ON: Time 82080, Note Name: G#2, Velocity: 77
Note OFF: Time 83520, Note Name: C#2
Note ON: Time 83520, Note Name: D#2, Velocity: 62
Note OFF: Time 84960, Note Name: D#2
Note ON: Time 84960, Note Name: F#2, Velocity: 73
Note OFF: Time 86400, Note Name: F#2
Note ON: Time 86400, Note Name: F2, Velocity: 73
Note OFF: Time 87840, Note Name: F2
Note OFF: Time 87840, Note Name: G#2
Note ON: Time 87840, Note Name: C#2, Velocity: 67
Note ON: Time 87840, Note Name: G#2, Velocity: 79
Note OFF: Time 89280, Note Name: C#2
Note ON: Time 89280, Note Name: D#2, Velocity: 74
Note OFF: Time 90720, Note Name: D#2
Note ON: Time 90720, Note Name: G#1, Velocity: 73
Note OFF: Time 91680, Note Name: G#2
Note ON: Time 91680, Note Name: G#2, Velocity: 72
Note OFF: Time 92160, Note Name: G#1
Note ON: Time 92160, Note Name: C#2, Velocity: 73
Note OFF: Time 93120, Note Name: C#2
Note OFF: Time 93120, Note Name: G#2
Note ON: Time 93600, Note Name: C#2, Velocity: 67
Note ON: Time 93600, Note Name: G#2, Velocity: 79
Note OFF: Time 95040, Note Name: C#2
Note ON: Time 95040, Note Name: D#2, Velocity: 73
Note OFF: Time 96480, Note Name: D#2
Note ON: Time 96480, Note Name: F#2, Velocity: 73
Note OFF: Time 97920, Note Name: F#2
Note ON: Time 97920, Note Name: F2, Velocity: 73
Note OFF: Time 99360, Note Name: F2
Note OFF: Time 99360, Note Name: G#2
Note ON: Time 99360, Note Name: C#2, Velocity: 67
Note ON: Time 99360, Note Name: G#2, Velocity: 79
Note OFF: Time 100800, Note Name: C#2
Note ON: Time 100800, Note Name: D#2, Velocity: 74
Note OFF: Time 102240, Note Name: D#2
Note ON: Time 102240, Note Name: G#1, Velocity: 73
Note OFF: Time 103200, Note Name: G#2
Note ON: Time 103200, Note Name: G#2, Velocity: 72
Note OFF: Time 103680, Note Name: G#1
Note ON: Time 103680, Note Name: C#2, Velocity: 66
Note OFF: Time 104640, Note Name: C#2
Note OFF: Time 104640, Note Name: G#2
Note ON: Time 105120, Note Name: D3, Velocity: 35
Note ON: Time 105120, Note Name: G#3, Velocity: 42
Note OFF: Time 106560, Note Name: G#3
Note OFF: Time 106560, Note Name: D3
Note ON: Time 106560, Note Name: C#3, Velocity: 33
Note ON: Time 106560, Note Name: G3, Velocity: 39
Note OFF: Time 108000, Note Name: G3
Note OFF: Time 108000, Note Name: C#3
Note ON: Time 108000, Note Name: C3, Velocity: 30
Note ON: Time 108000, Note Name: F#3, Velocity: 36
Note OFF: Time 109440, Note Name: F#3
Note OFF: Time 109440, Note Name: C3
Note ON: Time 109440, Note Name: B2, Velocity: 29
Note ON: Time 109440, Note Name: F3, Velocity: 35
Note OFF: Time 110880, Note Name: F3
Note OFF: Time 110880, Note Name: B2
Note ON: Time 110880, Note Name: A#2, Velocity: 42
Note ON: Time 110880, Note Name: C#3, Velocity: 50
Note OFF: Time 112320, Note Name: A#2
Note ON: Time 112320, Note Name: G#2, Velocity: 37
Note OFF: Time 113760, Note Name: G#2
Note ON: Time 113760, Note Name: C#2, Velocity: 36
Note OFF: Time 114240, Note Name: C#2
Note ON: Time 114240, Note Name: F2, Velocity: 36
Note OFF: Time 114720, Note Name: F2
Note ON: Time 114720, Note Name: G#2, Velocity: 41
Note OFF: Time 115200, Note Name: G#2
Note ON: Time 115200, Note Name: F#2, Velocity: 36
Note OFF: Time 116640, Note Name: F#2
Note OFF: Time 116640, Note Name: C#3
Note ON: Time 116640, Note Name: A#2, Velocity: 41
Note ON: Time 116640, Note Name: C#3, Velocity: 49
Note OFF: Time 118080, Note Name: A#2
Note ON: Time 118080, Note Name: G#2, Velocity: 37
Note OFF: Time 119520, Note Name: G#2
Note ON: Time 119520, Note Name: G2, Velocity: 37
Note OFF: Time 120960, Note Name: G2
Note ON: Time 120960, Note Name: G#2, Velocity: 37
Note OFF: Time 122400, Note Name: G#2
Note OFF: Time 122400, Note Name: C#3
Note ON: Time 122400, Note Name: A#2, Velocity: 45
Note ON: Time 122400, Note Name: C#3, Velocity: 38
Note OFF: Time 123840, Note Name: A#2
Note ON: Time 123840, Note Name: G#2, Velocity: 54
Note OFF: Time 125280, Note Name: C#3
Note ON: Time 125280, Note Name: G#1, Velocity: 54
Note OFF: Time 126240, Note Name: G#1
Note OFF: Time 126240, Note Name: G#2
Note ON: Time 126240, Note Name: G#2, Velocity: 48
Note OFF: Time 126360, Note Name: G#2
Note ON: Time 126720, Note Name: C#2, Velocity: 48
Note OFF: Time 126840, Note Name: C#2
Note ON: Time 128160, Note Name: D3, Velocity: 33
Note ON: Time 128160, Note Name: G#3, Velocity: 39
Note OFF: Time 129600, Note Name: G#3
Note OFF: Time 129600, Note Name: D3
Note ON: Time 129600, Note Name: C#3, Velocity: 29
Note ON: Time 129600, Note Name: G3, Velocity: 35
Note OFF: Time 131040, Note Name: G3
Note OFF: Time 131040, Note Name: C#3
Note ON: Time 131040, Note Name: C3, Velocity: 31
Note ON: Time 131040, Note Name: F#3, Velocity: 37
Note OFF: Time 132480, Note Name: F#3
Note OFF: Time 132480, Note Name: C3
Note ON: Time 132480, Note Name: B2, Velocity: 28
Note ON: Time 132480, Note Name: F3, Velocity: 34
Note OFF: Time 133920, Note Name: F3
Note OFF: Time 133920, Note Name: B2
Note ON: Time 133920, Note Name: A#2, Velocity: 42
Note ON: Time 133920, Note Name: C#3, Velocity: 50
Note OFF: Time 135360, Note Name: A#2
Note ON: Time 135360, Note Name: G#2, Velocity: 36
Note OFF: Time 136800, Note Name: G#2
Note ON: Time 136800, Note Name: C#2, Velocity: 35
Note OFF: Time 137280, Note Name: C#2
Note ON: Time 137280, Note Name: F2, Velocity: 35
Note OFF: Time 137760, Note Name: F2
Note ON: Time 137760, Note Name: G#2, Velocity: 39
Note OFF: Time 138240, Note Name: G#2
Note ON: Time 138240, Note Name: F#2, Velocity: 41
Note OFF: Time 139680, Note Name: F#2
Note OFF: Time 139680, Note Name: C#3
Note ON: Time 139680, Note Name: A#2, Velocity: 39
Note ON: Time 139680, Note Name: C#3, Velocity: 47
Note OFF: Time 141120, Note Name: A#2
Note ON: Time 141120, Note Name: G#2, Velocity: 39
Note OFF: Time 142560, Note Name: G#2
Note ON: Time 142560, Note Name: G2, Velocity: 39
Note OFF: Time 144000, Note Name: G2
Note ON: Time 144000, Note Name: G#2, Velocity: 39
Note OFF: Time 145440, Note Name: G#2
Note OFF: Time 145440, Note Name: C#3
Note ON: Time 145440, Note Name: A#2, Velocity: 38
Note ON: Time 145440, Note Name: C#3, Velocity: 45
Note OFF: Time 146880, Note Name: A#2
Note ON: Time 146880, Note Name: G#2, Velocity: 54
Note OFF: Time 148320, Note Name: C#3
Note ON: Time 148320, Note Name: G#1, Velocity: 54
Note OFF: Time 149280, Note Name: G#1
Note OFF: Time 149280, Note Name: G#2
Note ON: Time 149280, Note Name: G#2, Velocity: 52
Note OFF: Time 149400, Note Name: G#2
Note ON: Time 149760, Note Name: C#2, Velocity: 52
Note OFF: Time 149880, Note Name: C#2
Note ON: Time 150720, Note Name: F4, Velocity: 54
Note OFF: Time 151200, Note Name: F4
Note ON: Time 151201, Note Name: D#4, Velocity: 54
Note ON: Time 152160, Note Name: C#4, Velocity: 50
Note OFF: Time 152161, Note Name: D#4
Note OFF: Time 152640, Note Name: C#4
Note ON: Time 152640, Note Name: C4, Velocity: 46
Note OFF: Time 152730, Note Name: C4
Note ON: Time 153600, Note Name: C#3, Velocity: 45
Note ON: Time 153600, Note Name: A#3, Velocity: 45
Note OFF: Time 153690, Note Name: A#3
Note OFF: Time 153690, Note Name: C#3
Note ON: Time 154080, Note Name: D#4, Velocity: 47
Note ON: Time 154080, Note Name: D#3, Velocity: 47
Note OFF: Time 154170, Note Name: D#3
Note OFF: Time 154170, Note Name: D#4
Note ON: Time 155040, Note Name: D#3, Velocity: 40
Note ON: Time 155040, Note Name: C#4, Velocity: 40
Note OFF: Time 155130, Note Name: C#4
Note OFF: Time 155130, Note Name: D#3
Note ON: Time 155520, Note Name: G#3, Velocity: 42
Note ON: Time 155520, Note Name: C4, Velocity: 42
Note OFF: Time 155610, Note Name: C4
Note OFF: Time 155610, Note Name: G#3
Note ON: Time 156480, Note Name: A#4, Velocity: 49
Note OFF: Time 156960, Note Name: A#4
Note ON: Time 156960, Note Name: G#4, Velocity: 54
Note OFF: Time 157920, Note Name: G#4
Note ON: Time 157920, Note Name: F#4, Velocity: 46
Note OFF: Time 158400, Note Name: F#4
Note ON: Time 158400, Note Name: F4, Velocity: 48
Note OFF: Time 158490, Note Name: F4
Note ON: Time 159360, Note Name: F#3, Velocity: 45
Note ON: Time 159360, Note Name: D#4, Velocity: 45
Note OFF: Time 159450, Note Name: D#4
Note OFF: Time 159450, Note Name: F#3
Note ON: Time 159840, Note Name: G#3, Velocity: 47
Note ON: Time 159840, Note Name: G#4, Velocity: 47
Note OFF: Time 159930, Note Name: G#4
Note OFF: Time 159930, Note Name: G#3
Note ON: Time 160800, Note Name: G#3, Velocity: 40
Note ON: Time 160800, Note Name: F#4, Velocity: 40
Note OFF: Time 160890, Note Name: F#4
Note OFF: Time 160890, Note Name: G#3
Note ON: Time 161280, Note Name: C#4, Velocity: 42
Note ON: Time 161280, Note Name: F4, Velocity: 42
Note OFF: Time 161370, Note Name: F4
Note OFF: Time 161370, Note Name: C#4
Note ON: Time 162240, Note Name: F3, Velocity: 49
Note ON: Time 162240, Note Name: G#3, Velocity: 49
Note OFF: Time 162720, Note Name: G#3
Note OFF: Time 162720, Note Name: F3
Note ON: Time 162720, Note Name: D#3, Velocity: 54
Note ON: Time 162720, Note Name: G#3, Velocity: 54
Note OFF: Time 163680, Note Name: G#3
Note OFF: Time 163680, Note Name: D#3
Note ON: Time 163680, Note Name: G3, Velocity: 49
Note ON: Time 163680, Note Name: C#3, Velocity: 49
Note OFF: Time 164160, Note Name: C#3
Note OFF: Time 164160, Note Name: G3
Note ON: Time 164160, Note Name: C3, Velocity: 54
Note ON: Time 164160, Note Name: C4, Velocity: 54
Note OFF: Time 164640, Note Name: C4
Note OFF: Time 164640, Note Name: C3
Note ON: Time 165120, Note Name: C#3, Velocity: 46
Note ON: Time 165120, Note Name: A#3, Velocity: 46
Note OFF: Time 165360, Note Name: A#3
Note OFF: Time 165360, Note Name: C#3
Note ON: Time 165600, Note Name: D#3, Velocity: 49
Note ON: Time 165600, Note Name: D#4, Velocity: 49
Note OFF: Time 165840, Note Name: D#4
Note OFF: Time 165840, Note Name: D#3
Note ON: Time 166560, Note Name: D#3, Velocity: 45
Note ON: Time 166560, Note Name: C#4, Velocity: 45
Note OFF: Time 166800, Note Name: C#4
Note OFF: Time 166800, Note Name: D#3
Note ON: Time 167040, Note Name: G#3, Velocity: 46
Note ON: Time 167040, Note Name: C4, Velocity: 46
Note OFF: Time 167280, Note Name: C4
Note OFF: Time 167280, Note Name: G#3
Note ON: Time 168000, Note Name: A#3, Velocity: 49
Note ON: Time 168000, Note Name: C#4, Velocity: 49
Note OFF: Time 168480, Note Name: C#4
Note OFF: Time 168480, Note Name: A#3
Note ON: Time 168480, Note Name: G#3, Velocity: 54
Note ON: Time 168480, Note Name: C#4, Velocity: 54
Note OFF: Time 169440, Note Name: C#4
Note OFF: Time 169440, Note Name: G#3
Note ON: Time 169440, Note Name: F#3, Velocity: 54
Note ON: Time 169440, Note Name: C4, Velocity: 54
Note OFF: Time 169920, Note Name: C4
Note OFF: Time 169920, Note Name: F#3
Note ON: Time 169920, Note Name: F3, Velocity: 57
Note ON: Time 169920, Note Name: F4, Velocity: 57
Note OFF: Time 170400, Note Name: F4
Note OFF: Time 170400, Note Name: F3
Note ON: Time 170880, Note Name: F#3, Velocity: 50
Note ON: Time 170880, Note Name: D#4, Velocity: 50
Note OFF: Time 171120, Note Name: D#4
Note OFF: Time 171120, Note Name: F#3
Note ON: Time 171360, Note Name: G#3, Velocity: 54
Note ON: Time 171360, Note Name: G#4, Velocity: 54
Note OFF: Time 171600, Note Name: G#4
Note OFF: Time 171600, Note Name: G#3
Note ON: Time 172320, Note Name: G#3, Velocity: 45
Note ON: Time 172320, Note Name: F#4, Velocity: 45
Note OFF: Time 172560, Note Name: F#4
Note OFF: Time 172560, Note Name: G#3
Note ON: Time 172800, Note Name: C#4, Velocity: 48
Note ON: Time 172800, Note Name: F4, Velocity: 48
Note OFF: Time 173040, Note Name: F4
Note OFF: Time 173040, Note Name: C#4
Note ON: Time 173760, Note Name: C#4, Velocity: 54
Note OFF: Time 174240, Note Name: C#4
Note ON: Time 174240, Note Name: A#3, Velocity: 54
Note OFF: Time 175200, Note Name: A#3
Note ON: Time 175200, Note Name: G#3, Velocity: 54
Note OFF: Time 175680, Note Name: G#3
Note ON: Time 175680, Note Name: G3, Velocity: 54
Note OFF: Time 176160, Note Name: G3
Note ON: Time 176160, Note Name: G#3, Velocity: 54
Note OFF: Time 176400, Note Name: G#3
Note ON: Time 176640, Note Name: G#3, Velocity: 50
Note OFF: Time 177120, Note Name: G#3
Note ON: Time 177120, Note Name: G#3, Velocity: 50
Note OFF: Time 178080, Note Name: G#3
Note ON: Time 178080, Note Name: F#3, Velocity: 48
Note OFF: Time 178560, Note Name: F#3
Note ON: Time 178560, Note Name: F3, Velocity: 48
Note OFF: Time 179040, Note Name: F3
Note ON: Time 179040, Note Name: F#3, Velocity: 48
Note OFF: Time 179280, Note Name: F#3
Note ON: Time 179520, Note Name: F#3, Velocity: 54
Note OFF: Time 180000, Note Name: F#3
Note ON: Time 180000, Note Name: D#3, Velocity: 54
Note ON: Time 180000, Note Name: G#3, Velocity: 54
Note OFF: Time 180960, Note Name: G#3
Note OFF: Time 180960, Note Name: D#3
Note ON: Time 180960, Note Name: C#3, Velocity: 54
Note ON: Time 180960, Note Name: G#3, Velocity: 54
Note OFF: Time 181440, Note Name: G#3
Note OFF: Time 181440, Note Name: C#3
Note ON: Time 181440, Note Name: C3, Velocity: 54
Note ON: Time 181440, Note Name: G#3, Velocity: 54
Note OFF: Time 182880, Note Name: G#3
Note OFF: Time 182880, Note Name: C3
Note ON: Time 182880, Note Name: C#3, Velocity: 54
Note ON: Time 182880, Note Name: G#3, Velocity: 54
Note OFF: Time 183840, Note Name: G#3
Note OFF: Time 183840, Note Name: C#3
Note ON: Time 183840, Note Name: F#3, Velocity: 54
Note ON: Time 183840, Note Name: F#2, Velocity: 54
Note OFF: Time 184080, Note Name: F#3
Note ON: Time 184080, Note Name: D#3, Velocity: 54
Note OFF: Time 184320, Note Name: D#3
Note OFF: Time 184320, Note Name: F#2
Note ON: Time 184320, Note Name: F#2, Velocity: 54
Note ON: Time 184320, Note Name: G#3, Velocity: 54
Note OFF: Time 185280, Note Name: G#3
Note OFF: Time 185280, Note Name: F#2
Note ON: Time 185280, Note Name: F3, Velocity: 49
Note ON: Time 185280, Note Name: G#3, Velocity: 49
Note OFF: Time 185760, Note Name: G#3
Note OFF: Time 185760, Note Name: F3
Note ON: Time 185760, Note Name: D#3, Velocity: 54
Note ON: Time 185760, Note Name: G#3, Velocity: 54
Note OFF: Time 186720, Note Name: G#3
Note OFF: Time 186720, Note Name: D#3
Note ON: Time 186720, Note Name: C#3, Velocity: 47
Note ON: Time 186720, Note Name: G3, Velocity: 47
Note OFF: Time 187200, Note Name: G3
Note OFF: Time 187200, Note Name: C#3
Note ON: Time 187200, Note Name: C3, Velocity: 54
Note ON: Time 187200, Note Name: C4, Velocity: 54
Note OFF: Time 187290, Note Name: C4
Note OFF: Time 187290, Note Name: C3
Note ON: Time 188160, Note Name: C#3, Velocity: 49
Note ON: Time 188160, Note Name: A#3, Velocity: 49
Note OFF: Time 188400, Note Name: A#3
Note OFF: Time 188400, Note Name: C#3
Note ON: Time 188640, Note Name: D#3, Velocity: 54
Note ON: Time 188640, Note Name: D#4, Velocity: 54
Note OFF: Time 188880, Note Name: D#4
Note OFF: Time 188880, Note Name: D#3
Note ON: Time 189600, Note Name: D#3, Velocity: 45
Note ON: Time 189600, Note Name: C#4, Velocity: 45
Note OFF: Time 189840, Note Name: C#4
Note OFF: Time 189840, Note Name: D#3
Note ON: Time 190080, Note Name: G#3, Velocity: 51
Note ON: Time 190080, Note Name: C4, Velocity: 51
Note OFF: Time 190320, Note Name: C4
Note OFF: Time 190320, Note Name: G#3
Note ON: Time 191040, Note Name: A#3, Velocity: 49
Note ON: Time 191040, Note Name: C#4, Velocity: 49
Note OFF: Time 191520, Note Name: C#4
Note OFF: Time 191520, Note Name: A#3
Note ON: Time 191520, Note Name: G#3, Velocity: 54
Note ON: Time 191520, Note Name: C#4, Velocity: 54
Note OFF: Time 192480, Note Name: C#4
Note OFF: Time 192480, Note Name: G#3
Note ON: Time 192480, Note Name: F#3, Velocity: 49
Note ON: Time 192480, Note Name: C4, Velocity: 49
Note OFF: Time 192960, Note Name: C4
Note OFF: Time 192960, Note Name: F#3
Note ON: Time 192960, Note Name: F3, Velocity: 55
Note ON: Time 192960, Note Name: C#4, Velocity: 55
Note OFF: Time 193050, Note Name: C#4
Note OFF: Time 193050, Note Name: F3
Note ON: Time 193920, Note Name: A#3, Velocity: 48
Note ON: Time 193920, Note Name: C#4, Velocity: 48
Note OFF: Time 194400, Note Name: C#4
Note OFF: Time 194400, Note Name: A#3
Note ON: Time 194400, Note Name: G#3, Velocity: 54
Note ON: Time 194400, Note Name: C#4, Velocity: 54
Note OFF: Time 195360, Note Name: C#4
Note OFF: Time 195360, Note Name: G#3
Note ON: Time 195360, Note Name: F#3, Velocity: 48
Note ON: Time 195360, Note Name: C4, Velocity: 48
Note OFF: Time 195840, Note Name: C4
Note OFF: Time 195840, Note Name: F#3
Note ON: Time 195840, Note Name: F3, Velocity: 54
Note ON: Time 195840, Note Name: C#4, Velocity: 54
Note OFF: Time 195930, Note Name: C#4
Note OFF: Time 195930, Note Name: F3
Note ON: Time 196800, Note Name: A#3, Velocity: 49
Note ON: Time 196800, Note Name: C#4, Velocity: 49
Note OFF: Time 197280, Note Name: C#4
Note OFF: Time 197280, Note Name: A#3
Note ON: Time 197280, Note Name: G#3, Velocity: 54
Note ON: Time 197280, Note Name: C#4, Velocity: 54
Note OFF: Time 198240, Note Name: C#4
Note OFF: Time 198240, Note Name: G#3
Note ON: Time 198240, Note Name: G3, Velocity: 62
Note ON: Time 198240, Note Name: E4, Velocity: 62
Note ON: Time 198240, Note Name: C#4, Velocity: 62
Note OFF: Time 198720, Note Name: C#4
Note OFF: Time 198720, Note Name: E4
Note OFF: Time 198720, Note Name: G3
Note ON: Time 198720, Note Name: G#3, Velocity: 65
Note ON: Time 198720, Note Name: C#4, Velocity: 65
Note ON: Time 198720, Note Name: F4, Velocity: 65
Note OFF: Time 199200, Note Name: F4
Note OFF: Time 199200, Note Name: C#4
Note OFF: Time 199200, Note Name: G#3
Note ON: Time 200160, Note Name: G#1, Velocity: 54
Note ON: Time 200160, Note Name: G#2, Velocity: 54
Note OFF: Time 201600, Note Name: G#2
Note OFF: Time 201600, Note Name: G#1
Note ON: Time 201600, Note Name: C#2, Velocity: 54
Note ON: Time 201600, Note Name: G#2, Velocity: 54
Note OFF: Time 202080, Note Name: G#2
Note OFF: Time 202080, Note Name: C#2
Track 3: Pedal
Track 4: Copyright  1998 by Bernd Krueger
Track 5: http://www.piano-midi.de
Track 6: Edition: 2012-06-05
