Processing pathetique_3.mid...

Track 0: Beethoven Sonata No. 8 in C minor "Pathetique"
Track 1: Piano right
Note ON: Time 1200, Note Name: G4, Velocity: 48
Note OFF: Time 1320, Note Name: G4
Note ON: Time 1440, Note Name: C5, Velocity: 49
Note OFF: Time 1560, Note Name: C5
Note ON: Time 1680, Note Name: D5, Velocity: 51
Note OFF: Time 1800, Note Name: D5
Note ON: Time 1920, Note Name: D#5, Velocity: 52
Note OFF: Time 2640, Note Name: D#5
Note ON: Time 2640, Note Name: F5, Velocity: 50
Note OFF: Time 2880, Note Name: F5
Note ON: Time 2880, Note Name: D5, Velocity: 53
Note OFF: Time 3600, Note Name: D5
Note ON: Time 3600, Note Name: D#5, Velocity: 50
Note OFF: Time 3840, Note Name: D#5
Note ON: Time 3840, Note Name: C5, Velocity: 52
Note OFF: Time 4740, Note Name: C5
Note ON: Time 4740, Note Name: D5, Velocity: 48
Note OFF: Time 4800, Note Name: D5
Note ON: Time 4800, Note Name: C5, Velocity: 52
Note OFF: Time 5040, Note Name: C5
Note ON: Time 5040, Note Name: B4, Velocity: 51
Note OFF: Time 5280, Note Name: B4
Note ON: Time 5280, Note Name: C5, Velocity: 51
Note OFF: Time 5520, Note Name: C5
Note ON: Time 5520, Note Name: D5, Velocity: 50
Note OFF: Time 5700, Note Name: D5
Note ON: Time 5700, Note Name: F5, Velocity: 49
Note OFF: Time 5760, Note Name: F5
Note ON: Time 5760, Note Name: D#5, Velocity: 56
Note OFF: Time 6000, Note Name: D#5
Note ON: Time 6000, Note Name: D5, Velocity: 52
Note OFF: Time 6240, Note Name: D5
Note ON: Time 6240, Note Name: D#5, Velocity: 52
Note OFF: Time 6480, Note Name: D#5
Note ON: Time 6480, Note Name: F5, Velocity: 52
Note OFF: Time 6720, Note Name: F5
Note ON: Time 6720, Note Name: G5, Velocity: 56
Note OFF: Time 6960, Note Name: G5
Note ON: Time 7200, Note Name: G5, Velocity: 55
Note OFF: Time 7440, Note Name: G5
Note ON: Time 7680, Note Name: G5, Velocity: 57
Note OFF: Time 9120, Note Name: G5
Note ON: Time 9120, Note Name: F5, Velocity: 51
Note OFF: Time 9360, Note Name: F5
Note ON: Time 9360, Note Name: G5, Velocity: 53
Note OFF: Time 9480, Note Name: G5
Note ON: Time 9480, Note Name: F5, Velocity: 48
Note OFF: Time 9540, Note Name: F5
Note ON: Time 9540, Note Name: G5, Velocity: 48
Note OFF: Time 9600, Note Name: G5
Note ON: Time 9600, Note Name: G#5, Velocity: 56
Note OFF: Time 10560, Note Name: G#5
Note ON: Time 10560, Note Name: D5, Velocity: 52
Note OFF: Time 11040, Note Name: D5
Note ON: Time 11040, Note Name: D#5, Velocity: 51
Note OFF: Time 11280, Note Name: D#5
Note ON: Time 11280, Note Name: F5, Velocity: 53
Note OFF: Time 11400, Note Name: F5
Note ON: Time 11400, Note Name: D#5, Velocity: 50
Note OFF: Time 11460, Note Name: D#5
Note ON: Time 11460, Note Name: F5, Velocity: 50
Note OFF: Time 11520, Note Name: F5
Note ON: Time 11520, Note Name: G5, Velocity: 56
Note OFF: Time 12480, Note Name: G5
Note ON: Time 12480, Note Name: C5, Velocity: 52
Note OFF: Time 12954, Note Name: C5
Note ON: Time 12960, Note Name: C5, Velocity: 53
Note OFF: Time 13200, Note Name: C5
Note ON: Time 13200, Note Name: D5, Velocity: 54
Note OFF: Time 13440, Note Name: D5
Note ON: Time 13440, Note Name: D#5, Velocity: 57
Note OFF: Time 13680, Note Name: D#5
Note ON: Time 13920, Note Name: D#5, Velocity: 53
Note OFF: Time 14160, Note Name: D#5
Note ON: Time 14160, Note Name: F5, Velocity: 46
Note OFF: Time 14400, Note Name: F5
Note ON: Time 14400, Note Name: D5, Velocity: 57
Note OFF: Time 14640, Note Name: D5
Note ON: Time 14880, Note Name: D5, Velocity: 51
Note OFF: Time 15120, Note Name: D5
Note ON: Time 15120, Note Name: D#5, Velocity: 54
Note OFF: Time 15360, Note Name: D#5
Note ON: Time 15360, Note Name: C5, Velocity: 57
Note OFF: Time 15840, Note Name: C5
Note ON: Time 16800, Note Name: F5, Velocity: 56
Note OFF: Time 17040, Note Name: F5
Note ON: Time 17040, Note Name: G5, Velocity: 58
Note OFF: Time 17280, Note Name: G5
Note ON: Time 17280, Note Name: G#4, Velocity: 51
Note ON: Time 17280, Note Name: G#5, Velocity: 61
Note OFF: Time 18240, Note Name: G#5
Note OFF: Time 18240, Note Name: G#4
Note ON: Time 18240, Note Name: D5, Velocity: 57
Note OFF: Time 18720, Note Name: D5
Note ON: Time 18720, Note Name: D#5, Velocity: 56
Note OFF: Time 18960, Note Name: D#5
Note ON: Time 18960, Note Name: F5, Velocity: 58
Note OFF: Time 19200, Note Name: F5
Note ON: Time 19200, Note Name: G4, Velocity: 51
Note ON: Time 19200, Note Name: G5, Velocity: 61
Note OFF: Time 20160, Note Name: G5
Note OFF: Time 20160, Note Name: G4
Note ON: Time 20160, Note Name: C5, Velocity: 57
Note OFF: Time 20640, Note Name: C5
Note ON: Time 20640, Note Name: C5, Velocity: 58
Note OFF: Time 20880, Note Name: C5
Note ON: Time 20880, Note Name: D5, Velocity: 59
Note OFF: Time 21120, Note Name: D5
Note ON: Time 21120, Note Name: D#5, Velocity: 62
Note OFF: Time 21360, Note Name: D#5
Note ON: Time 21600, Note Name: D#5, Velocity: 58
Note OFF: Time 21840, Note Name: D#5
Note ON: Time 21840, Note Name: F5, Velocity: 60
Note OFF: Time 22080, Note Name: F5
Note ON: Time 22080, Note Name: D5, Velocity: 62
Note OFF: Time 22320, Note Name: D5
Note ON: Time 22560, Note Name: D5, Velocity: 56
Note OFF: Time 22800, Note Name: D5
Note ON: Time 22800, Note Name: D#5, Velocity: 59
Note OFF: Time 23040, Note Name: D#5
Note ON: Time 23040, Note Name: C5, Velocity: 62
Note OFF: Time 23280, Note Name: C5
Note ON: Time 23520, Note Name: A#5, Velocity: 74
Note OFF: Time 24480, Note Name: A#5
Note ON: Time 24480, Note Name: A#5, Velocity: 73
Note OFF: Time 25200, Note Name: A#5
Note ON: Time 25200, Note Name: G#5, Velocity: 71
Note OFF: Time 25440, Note Name: G#5
Note ON: Time 25440, Note Name: G5, Velocity: 72
Note OFF: Time 25680, Note Name: G5
Note ON: Time 25680, Note Name: F5, Velocity: 72
Note OFF: Time 25920, Note Name: F5
Note ON: Time 25920, Note Name: D#5, Velocity: 71
Note OFF: Time 26160, Note Name: D#5
Note ON: Time 26160, Note Name: D5, Velocity: 71
Note OFF: Time 26400, Note Name: D5
Note ON: Time 26400, Note Name: C5, Velocity: 71
Note OFF: Time 26640, Note Name: C5
Note ON: Time 26640, Note Name: B4, Velocity: 71
Note OFF: Time 26880, Note Name: B4
Note ON: Time 26880, Note Name: C5, Velocity: 73
Note OFF: Time 27120, Note Name: C5
Note ON: Time 27360, Note Name: C5, Velocity: 67
Note ON: Time 27360, Note Name: C6, Velocity: 79
Note OFF: Time 28320, Note Name: C6
Note OFF: Time 28320, Note Name: C5
Note ON: Time 28320, Note Name: A#5, Velocity: 80
Note OFF: Time 29040, Note Name: A#5
Note ON: Time 29040, Note Name: G#5, Velocity: 81
Note OFF: Time 29280, Note Name: G#5
Note ON: Time 29280, Note Name: G5, Velocity: 82
Note OFF: Time 29520, Note Name: G5
Note ON: Time 29520, Note Name: F5, Velocity: 81
Note OFF: Time 29760, Note Name: F5
Note ON: Time 29760, Note Name: D#5, Velocity: 79
Note OFF: Time 30000, Note Name: D#5
Note ON: Time 30000, Note Name: D5, Velocity: 79
Note OFF: Time 30240, Note Name: D5
Note ON: Time 30240, Note Name: C5, Velocity: 79
Note OFF: Time 30480, Note Name: C5
Note ON: Time 30480, Note Name: B4, Velocity: 78
Note OFF: Time 30720, Note Name: B4
Note ON: Time 30720, Note Name: C5, Velocity: 89
Note OFF: Time 30960, Note Name: C5
Note ON: Time 31200, Note Name: D5, Velocity: 81
Note OFF: Time 31280, Note Name: D5
Note ON: Time 31280, Note Name: D#5, Velocity: 81
Note OFF: Time 31360, Note Name: D#5
Note ON: Time 31360, Note Name: D5, Velocity: 81
Note OFF: Time 31440, Note Name: D5
Note ON: Time 31440, Note Name: D#5, Velocity: 81
Note OFF: Time 31500, Note Name: D#5
Note ON: Time 31500, Note Name: D5, Velocity: 81
Note OFF: Time 31560, Note Name: D5
Note ON: Time 31560, Note Name: C5, Velocity: 80
Note OFF: Time 31620, Note Name: C5
Note ON: Time 31620, Note Name: D5, Velocity: 80
Note OFF: Time 31680, Note Name: D5
Note ON: Time 31680, Note Name: D#5, Velocity: 92
Note OFF: Time 31920, Note Name: D#5
Note ON: Time 32160, Note Name: B4, Velocity: 92
Note ON: Time 32160, Note Name: D5, Velocity: 92
Note ON: Time 32160, Note Name: B5, Velocity: 92
Note OFF: Time 32400, Note Name: B5
Note OFF: Time 32400, Note Name: D5
Note OFF: Time 32400, Note Name: B4
Note ON: Time 32640, Note Name: C5, Velocity: 92
Note ON: Time 32640, Note Name: D#5, Velocity: 92
Note ON: Time 32640, Note Name: C6, Velocity: 92
Note OFF: Time 32880, Note Name: C6
Note OFF: Time 32880, Note Name: D#5
Note OFF: Time 32880, Note Name: C5
Note ON: Time 34560, Note Name: G3, Velocity: 73
Note ON: Time 34560, Note Name: C4, Velocity: 73
Note ON: Time 34560, Note Name: E4, Velocity: 86
Note OFF: Time 36480, Note Name: E4
Note OFF: Time 36480, Note Name: C4
Note OFF: Time 36480, Note Name: G3
Note ON: Time 36480, Note Name: F4, Velocity: 50
Note OFF: Time 36720, Note Name: F4
Note ON: Time 36720, Note Name: C5, Velocity: 51
Note OFF: Time 36960, Note Name: C5
Note ON: Time 36960, Note Name: G#4, Velocity: 53
Note OFF: Time 37200, Note Name: G#4
Note ON: Time 37200, Note Name: F5, Velocity: 54
Note OFF: Time 37440, Note Name: F5
Note ON: Time 37440, Note Name: C5, Velocity: 55
Note OFF: Time 37680, Note Name: C5
Note ON: Time 37680, Note Name: G#5, Velocity: 56
Note OFF: Time 37920, Note Name: G#5
Note ON: Time 37920, Note Name: F5, Velocity: 57
Note OFF: Time 38160, Note Name: F5
Note ON: Time 38160, Note Name: C6, Velocity: 59
Note OFF: Time 38400, Note Name: C6
Note ON: Time 38400, Note Name: A#5, Velocity: 59
Note OFF: Time 38640, Note Name: A#5
Note ON: Time 38640, Note Name: G5, Velocity: 59
Note OFF: Time 38880, Note Name: G5
Note ON: Time 38880, Note Name: E5, Velocity: 58
Note OFF: Time 39120, Note Name: E5
Note ON: Time 39120, Note Name: C5, Velocity: 57
Note OFF: Time 39360, Note Name: C5
Note ON: Time 39360, Note Name: A#4, Velocity: 56
Note OFF: Time 39600, Note Name: A#4
Note ON: Time 39600, Note Name: B4, Velocity: 55
Note OFF: Time 39840, Note Name: B4
Note ON: Time 39840, Note Name: C5, Velocity: 55
Note OFF: Time 40080, Note Name: C5
Note ON: Time 40080, Note Name: G4, Velocity: 54
Note OFF: Time 40320, Note Name: G4
Note ON: Time 40320, Note Name: A#4, Velocity: 60
Note OFF: Time 41280, Note Name: A#4
Note ON: Time 41280, Note Name: G#4, Velocity: 56
Note OFF: Time 41760, Note Name: G#4
Note ON: Time 42240, Note Name: F3, Velocity: 73
Note ON: Time 42240, Note Name: A#3, Velocity: 73
Note ON: Time 42240, Note Name: D4, Velocity: 86
Note OFF: Time 44160, Note Name: D4
Note OFF: Time 44160, Note Name: A#3
Note OFF: Time 44160, Note Name: F3
Note ON: Time 44160, Note Name: D#4, Velocity: 50
Note OFF: Time 44400, Note Name: D#4
Note ON: Time 44400, Note Name: A#4, Velocity: 51
Note OFF: Time 44640, Note Name: A#4
Note ON: Time 44640, Note Name: G4, Velocity: 53
Note OFF: Time 44880, Note Name: G4
Note ON: Time 44880, Note Name: D#5, Velocity: 54
Note OFF: Time 45120, Note Name: D#5
Note ON: Time 45120, Note Name: A#4, Velocity: 55
Note OFF: Time 45360, Note Name: A#4
Note ON: Time 45360, Note Name: G5, Velocity: 56
Note OFF: Time 45600, Note Name: G5
Note ON: Time 45600, Note Name: D#5, Velocity: 57
Note OFF: Time 45840, Note Name: D#5
Note ON: Time 45840, Note Name: A#5, Velocity: 59
Note OFF: Time 46080, Note Name: A#5
Note ON: Time 46080, Note Name: G#5, Velocity: 59
Note OFF: Time 46320, Note Name: G#5
Note ON: Time 46320, Note Name: G5, Velocity: 59
Note OFF: Time 46560, Note Name: G5
Note ON: Time 46560, Note Name: F5, Velocity: 58
Note OFF: Time 46800, Note Name: F5
Note ON: Time 46800, Note Name: D#5, Velocity: 57
Note OFF: Time 47040, Note Name: D#5
Note ON: Time 47040, Note Name: D5, Velocity: 56
Note OFF: Time 47280, Note Name: D5
Note ON: Time 47280, Note Name: C5, Velocity: 55
Note OFF: Time 47520, Note Name: C5
Note ON: Time 47520, Note Name: A#4, Velocity: 55
Note OFF: Time 47760, Note Name: A#4
Note ON: Time 47760, Note Name: G#4, Velocity: 54
Note OFF: Time 48000, Note Name: G#4
Note ON: Time 48000, Note Name: G4, Velocity: 60
Note OFF: Time 48240, Note Name: G4
Note ON: Time 48480, Note Name: A#4, Velocity: 60
Note OFF: Time 49440, Note Name: A#4
Note ON: Time 49440, Note Name: A#4, Velocity: 56
Note OFF: Time 50160, Note Name: A#4
Note ON: Time 50160, Note Name: C5, Velocity: 54
Note OFF: Time 50400, Note Name: C5
Note ON: Time 50400, Note Name: D5, Velocity: 55
Note OFF: Time 50640, Note Name: D5
Note ON: Time 50640, Note Name: D#5, Velocity: 57
Note OFF: Time 50880, Note Name: D#5
Note ON: Time 50880, Note Name: F5, Velocity: 58
Note OFF: Time 51120, Note Name: F5
Note ON: Time 51120, Note Name: G5, Velocity: 60
Note OFF: Time 51360, Note Name: G5
Note ON: Time 51360, Note Name: G#5, Velocity: 61
Note OFF: Time 51600, Note Name: G#5
Note ON: Time 51600, Note Name: F5, Velocity: 58
Note OFF: Time 51840, Note Name: F5
Note ON: Time 51840, Note Name: G#5, Velocity: 61
Note OFF: Time 52080, Note Name: G#5
Note ON: Time 52080, Note Name: G5, Velocity: 60
Note OFF: Time 52320, Note Name: G5
Note ON: Time 52320, Note Name: F5, Velocity: 59
Note OFF: Time 52560, Note Name: F5
Note ON: Time 52560, Note Name: D#5, Velocity: 58
Note OFF: Time 52780, Note Name: D#5
Note ON: Time 52800, Note Name: D#5, Velocity: 60
Note OFF: Time 53040, Note Name: D#5
Note ON: Time 53040, Note Name: D5, Velocity: 58
Note OFF: Time 53280, Note Name: D5
Note ON: Time 53280, Note Name: C5, Velocity: 58
Note OFF: Time 53520, Note Name: C5
Note ON: Time 53520, Note Name: D5, Velocity: 58
Note OFF: Time 53760, Note Name: D5
Note ON: Time 53760, Note Name: F5, Velocity: 63
Note OFF: Time 54000, Note Name: F5
Note ON: Time 54000, Note Name: D#5, Velocity: 57
Note OFF: Time 54240, Note Name: D#5
Note ON: Time 54240, Note Name: D5, Velocity: 57
Note OFF: Time 54480, Note Name: D5
Note ON: Time 54480, Note Name: C5, Velocity: 57
Note OFF: Time 54720, Note Name: C5
Note ON: Time 54720, Note Name: G#4, Velocity: 60
Note ON: Time 54720, Note Name: A#4, Velocity: 60
Note OFF: Time 55152, Note Name: A#4
Note OFF: Time 55152, Note Name: G#4
Note ON: Time 55200, Note Name: G#4, Velocity: 60
Note ON: Time 55200, Note Name: A#4, Velocity: 60
Note OFF: Time 55632, Note Name: A#4
Note OFF: Time 55632, Note Name: G#4
Note ON: Time 55680, Note Name: G#4, Velocity: 60
Note ON: Time 55680, Note Name: A#4, Velocity: 60
Note OFF: Time 55920, Note Name: G#4
Note ON: Time 55920, Note Name: G4, Velocity: 53
Note OFF: Time 56160, Note Name: G4
Note ON: Time 56160, Note Name: F4, Velocity: 53
Note OFF: Time 56400, Note Name: F4
Note ON: Time 56400, Note Name: D#4, Velocity: 53
Note OFF: Time 56620, Note Name: D#4
Note ON: Time 56640, Note Name: D#4, Velocity: 57
Note OFF: Time 56880, Note Name: D#4
Note ON: Time 56880, Note Name: D4, Velocity: 52
Note OFF: Time 57120, Note Name: D4
Note ON: Time 57120, Note Name: C4, Velocity: 52
Note OFF: Time 57360, Note Name: C4
Note ON: Time 57360, Note Name: D4, Velocity: 52
Note OFF: Time 57600, Note Name: D4
Note ON: Time 57600, Note Name: D#4, Velocity: 55
Note OFF: Time 57840, Note Name: D#4
Note OFF: Time 57840, Note Name: A#4
Note ON: Time 57840, Note Name: C5, Velocity: 56
Note OFF: Time 58080, Note Name: C5
Note ON: Time 58080, Note Name: D5, Velocity: 58
Note OFF: Time 58320, Note Name: D5
Note ON: Time 58320, Note Name: D#5, Velocity: 59
Note OFF: Time 58560, Note Name: D#5
Note ON: Time 58560, Note Name: F5, Velocity: 61
Note OFF: Time 58800, Note Name: F5
Note ON: Time 58800, Note Name: F#5, Velocity: 63
Note OFF: Time 59040, Note Name: F#5
Note ON: Time 59040, Note Name: G#5, Velocity: 64
Note OFF: Time 59280, Note Name: G#5
Note ON: Time 59280, Note Name: F5, Velocity: 62
Note OFF: Time 59520, Note Name: F5
Note ON: Time 59520, Note Name: F#5, Velocity: 65
Note OFF: Time 60000, Note Name: F#5
Note ON: Time 60000, Note Name: A#5, Velocity: 72
Note OFF: Time 60950, Note Name: A#5
Note ON: Time 60960, Note Name: A#5, Velocity: 74
Note OFF: Time 61920, Note Name: A#5
Note ON: Time 61920, Note Name: D#6, Velocity: 91
Note OFF: Time 62880, Note Name: D#6
Note ON: Time 62880, Note Name: A5, Velocity: 78
Note OFF: Time 63360, Note Name: A5
Note ON: Time 63360, Note Name: A#5, Velocity: 60
Note OFF: Time 64480, Note Name: A#5
Note ON: Time 64480, Note Name: A5, Velocity: 49
Note OFF: Time 64640, Note Name: A5
Note ON: Time 64640, Note Name: A#5, Velocity: 51
Note OFF: Time 64800, Note Name: A#5
Note ON: Time 64800, Note Name: C6, Velocity: 53
Note OFF: Time 64960, Note Name: C6
Note ON: Time 64960, Note Name: A#5, Velocity: 50
Note OFF: Time 65120, Note Name: A#5
Note ON: Time 65120, Note Name: A5, Velocity: 50
Note OFF: Time 65280, Note Name: A5
Note ON: Time 65280, Note Name: A#5, Velocity: 50
Note OFF: Time 66400, Note Name: A#5
Note ON: Time 66400, Note Name: A5, Velocity: 49
Note OFF: Time 66560, Note Name: A5
Note ON: Time 66560, Note Name: A#5, Velocity: 51
Note OFF: Time 66720, Note Name: A#5
Note ON: Time 66720, Note Name: C6, Velocity: 53
Note OFF: Time 66880, Note Name: C6
Note ON: Time 66880, Note Name: A#5, Velocity: 50
Note OFF: Time 67040, Note Name: A#5
Note ON: Time 67040, Note Name: A5, Velocity: 50
Note OFF: Time 67200, Note Name: A5
Note ON: Time 67360, Note Name: A#5, Velocity: 54
Note OFF: Time 67520, Note Name: A#5
Note ON: Time 67520, Note Name: C6, Velocity: 56
Note OFF: Time 67680, Note Name: C6
Note ON: Time 67680, Note Name: D6, Velocity: 58
Note OFF: Time 67840, Note Name: D6
Note ON: Time 67840, Note Name: C6, Velocity: 55
Note OFF: Time 68000, Note Name: C6
Note ON: Time 68000, Note Name: A#5, Velocity: 52
Note OFF: Time 68160, Note Name: A#5
Note ON: Time 68320, Note Name: D6, Velocity: 54
Note OFF: Time 68480, Note Name: D6
Note ON: Time 68480, Note Name: D#6, Velocity: 57
Note OFF: Time 68640, Note Name: D#6
Note ON: Time 68640, Note Name: F6, Velocity: 59
Note OFF: Time 68800, Note Name: F6
Note ON: Time 68800, Note Name: D#6, Velocity: 57
Note OFF: Time 68960, Note Name: D#6
Note ON: Time 68960, Note Name: D6, Velocity: 55
Note OFF: Time 69120, Note Name: D6
Note ON: Time 69120, Note Name: F6, Velocity: 63
Note OFF: Time 69280, Note Name: F6
Note ON: Time 69280, Note Name: D#6, Velocity: 63
Note OFF: Time 69440, Note Name: D#6
Note ON: Time 69440, Note Name: D6, Velocity: 62
Note OFF: Time 69600, Note Name: D6
Note ON: Time 69600, Note Name: C6, Velocity: 61
Note OFF: Time 69760, Note Name: C6
Note ON: Time 69760, Note Name: A#5, Velocity: 60
Note OFF: Time 69920, Note Name: A#5
Note ON: Time 69920, Note Name: G#5, Velocity: 59
Note OFF: Time 70080, Note Name: G#5
Note ON: Time 70080, Note Name: G5, Velocity: 59
Note OFF: Time 70240, Note Name: G5
Note ON: Time 70240, Note Name: F5, Velocity: 58
Note OFF: Time 70400, Note Name: F5
Note ON: Time 70400, Note Name: D#5, Velocity: 57
Note OFF: Time 70560, Note Name: D#5
Note ON: Time 70560, Note Name: D5, Velocity: 56
Note OFF: Time 70680, Note Name: D5
Note ON: Time 70680, Note Name: C5, Velocity: 56
Note OFF: Time 70800, Note Name: C5
Note ON: Time 70800, Note Name: A#4, Velocity: 55
Note OFF: Time 70920, Note Name: A#4
Note ON: Time 70920, Note Name: G#4, Velocity: 54
Note OFF: Time 71040, Note Name: G#4
Note ON: Time 71040, Note Name: G4, Velocity: 59
Note ON: Time 71200, Note Name: D#4, Velocity: 55
Note OFF: Time 71210, Note Name: G4
Note ON: Time 71360, Note Name: F4, Velocity: 55
Note OFF: Time 71370, Note Name: D#4
Note ON: Time 71520, Note Name: G4, Velocity: 59
Note OFF: Time 71530, Note Name: F4
Note ON: Time 71680, Note Name: F4, Velocity: 55
Note OFF: Time 71690, Note Name: G4
Note ON: Time 71840, Note Name: D#4, Velocity: 55
Note OFF: Time 71850, Note Name: F4
Note ON: Time 72000, Note Name: G#4, Velocity: 59
Note OFF: Time 72010, Note Name: D#4
Note OFF: Time 72960, Note Name: G#4
Note ON: Time 72960, Note Name: G4, Velocity: 59
Note ON: Time 73120, Note Name: D#5, Velocity: 55
Note OFF: Time 73130, Note Name: G4
Note ON: Time 73280, Note Name: F5, Velocity: 55
Note OFF: Time 73290, Note Name: D#5
Note ON: Time 73440, Note Name: G5, Velocity: 59
Note OFF: Time 73450, Note Name: F5
Note ON: Time 73600, Note Name: F5, Velocity: 55
Note OFF: Time 73610, Note Name: G5
Note ON: Time 73760, Note Name: D#5, Velocity: 55
Note OFF: Time 73770, Note Name: F5
Note ON: Time 73920, Note Name: G#5, Velocity: 59
Note OFF: Time 73930, Note Name: D#5
Note OFF: Time 74880, Note Name: G#5
Note ON: Time 74880, Note Name: G5, Velocity: 59
Note OFF: Time 75040, Note Name: G5
Note ON: Time 75040, Note Name: D#5, Velocity: 59
Note OFF: Time 75200, Note Name: D#5
Note ON: Time 75200, Note Name: F5, Velocity: 59
Note OFF: Time 75360, Note Name: F5
Note ON: Time 75360, Note Name: G5, Velocity: 64
Note OFF: Time 75520, Note Name: G5
Note ON: Time 75520, Note Name: F5, Velocity: 57
Note OFF: Time 75680, Note Name: F5
Note ON: Time 75680, Note Name: D#5, Velocity: 58
Note OFF: Time 75840, Note Name: D#5
Note ON: Time 75840, Note Name: A#5, Velocity: 67
Note OFF: Time 76000, Note Name: A#5
Note ON: Time 76000, Note Name: G5, Velocity: 59
Note OFF: Time 76160, Note Name: G5
Note ON: Time 76160, Note Name: G#5, Velocity: 59
Note OFF: Time 76320, Note Name: G#5
Note ON: Time 76320, Note Name: A#5, Velocity: 62
Note OFF: Time 76480, Note Name: A#5
Note ON: Time 76480, Note Name: G#5, Velocity: 65
Note OFF: Time 76640, Note Name: G#5
Note ON: Time 76640, Note Name: G5, Velocity: 67
Note OFF: Time 76800, Note Name: G5
Note ON: Time 76800, Note Name: C#6, Velocity: 69
Note ON: Time 76960, Note Name: C6, Velocity: 68
Note OFF: Time 76970, Note Name: C#6
Note ON: Time 77120, Note Name: A#5, Velocity: 67
Note OFF: Time 77130, Note Name: C6
Note ON: Time 77280, Note Name: G#5, Velocity: 66
Note OFF: Time 77290, Note Name: A#5
Note ON: Time 77440, Note Name: G5, Velocity: 65
Note OFF: Time 77450, Note Name: G#5
Note ON: Time 77600, Note Name: F5, Velocity: 63
Note OFF: Time 77610, Note Name: G5
Note ON: Time 77760, Note Name: D#5, Velocity: 59
Note OFF: Time 77770, Note Name: F5
Note ON: Time 77920, Note Name: D5, Velocity: 55
Note OFF: Time 77930, Note Name: D#5
Note ON: Time 78080, Note Name: D#5, Velocity: 55
Note OFF: Time 78090, Note Name: D5
Note ON: Time 78240, Note Name: E5, Velocity: 59
Note OFF: Time 78250, Note Name: D#5
Note ON: Time 78400, Note Name: F5, Velocity: 56
Note OFF: Time 78410, Note Name: E5
Note ON: Time 78560, Note Name: C#5, Velocity: 56
Note OFF: Time 78570, Note Name: F5
Note OFF: Time 78730, Note Name: C#5
Note ON: Time 79200, Note Name: C4, Velocity: 57
Note OFF: Time 79360, Note Name: C4
Note ON: Time 79360, Note Name: D#4, Velocity: 59
Note OFF: Time 79520, Note Name: D#4
Note ON: Time 79520, Note Name: G#4, Velocity: 62
Note OFF: Time 79680, Note Name: G#4
Note ON: Time 79680, Note Name: C5, Velocity: 64
Note OFF: Time 79840, Note Name: C5
Note ON: Time 79840, Note Name: D#5, Velocity: 66
Note OFF: Time 80000, Note Name: D#5
Note ON: Time 80000, Note Name: G#5, Velocity: 68
Note OFF: Time 80160, Note Name: G#5
Note ON: Time 80160, Note Name: C6, Velocity: 70
Note OFF: Time 80280, Note Name: C6
Note ON: Time 80400, Note Name: C6, Velocity: 70
Note OFF: Time 80520, Note Name: C6
Note ON: Time 80640, Note Name: C6, Velocity: 70
Note OFF: Time 80880, Note Name: C6
Note ON: Time 80880, Note Name: A#5, Velocity: 68
Note OFF: Time 81120, Note Name: A#5
Note ON: Time 81120, Note Name: G#5, Velocity: 66
Note OFF: Time 81240, Note Name: G#5
Note ON: Time 81360, Note Name: G5, Velocity: 64
Note OFF: Time 81480, Note Name: G5
Note ON: Time 81600, Note Name: G5, Velocity: 65
Note OFF: Time 81840, Note Name: G5
Note ON: Time 81840, Note Name: F5, Velocity: 63
Note OFF: Time 82080, Note Name: F5
Note ON: Time 82080, Note Name: D#5, Velocity: 61
Note OFF: Time 82200, Note Name: D#5
Note ON: Time 82320, Note Name: D5, Velocity: 59
Note OFF: Time 82440, Note Name: D5
Note ON: Time 82560, Note Name: D#5, Velocity: 63
Note OFF: Time 83040, Note Name: D#5
Note ON: Time 84000, Note Name: A#3, Velocity: 45
Note OFF: Time 84470, Note Name: A#3
Note ON: Time 84480, Note Name: D4, Velocity: 37
Note ON: Time 84480, Note Name: F4, Velocity: 45
Note OFF: Time 84720, Note Name: F4
Note OFF: Time 84720, Note Name: D4
Note ON: Time 84960, Note Name: D4, Velocity: 38
Note ON: Time 84960, Note Name: F4, Velocity: 45
Note OFF: Time 85200, Note Name: F4
Note OFF: Time 85200, Note Name: D4
Note ON: Time 85440, Note Name: D4, Velocity: 38
Note ON: Time 85440, Note Name: F4, Velocity: 45
Note OFF: Time 85680, Note Name: F4
Note OFF: Time 85680, Note Name: D4
Note ON: Time 85920, Note Name: D4, Velocity: 39
Note ON: Time 85920, Note Name: F4, Velocity: 46
Note OFF: Time 86160, Note Name: F4
Note OFF: Time 86160, Note Name: D4
Note ON: Time 86400, Note Name: D#4, Velocity: 40
Note ON: Time 86400, Note Name: A#4, Velocity: 47
Note OFF: Time 87840, Note Name: A#4
Note OFF: Time 87840, Note Name: D#4
Note ON: Time 87840, Note Name: D#4, Velocity: 46
Note ON: Time 87840, Note Name: A#4, Velocity: 46
Note OFF: Time 88320, Note Name: A#4
Note OFF: Time 88320, Note Name: D#4
Note ON: Time 88320, Note Name: D#4, Velocity: 40
Note ON: Time 88320, Note Name: G#4, Velocity: 48
Note OFF: Time 89280, Note Name: G#4
Note OFF: Time 89280, Note Name: D#4
Note ON: Time 89280, Note Name: F4, Velocity: 37
Note ON: Time 89280, Note Name: D#4, Velocity: 37
Note ON: Time 89280, Note Name: A4, Velocity: 45
Note OFF: Time 90240, Note Name: A4
Note OFF: Time 90240, Note Name: D#4
Note OFF: Time 90240, Note Name: F4
Note ON: Time 90240, Note Name: D4, Velocity: 39
Note ON: Time 90240, Note Name: F4, Velocity: 39
Note ON: Time 90240, Note Name: A#4, Velocity: 46
Note OFF: Time 91680, Note Name: A#4
Note OFF: Time 91680, Note Name: F4
Note OFF: Time 91680, Note Name: D4
Note ON: Time 91680, Note Name: A#4, Velocity: 50
Note OFF: Time 92150, Note Name: A#4
Note ON: Time 92160, Note Name: A#4, Velocity: 42
Note ON: Time 92160, Note Name: F5, Velocity: 50
Note OFF: Time 92400, Note Name: F5
Note OFF: Time 92400, Note Name: A#4
Note ON: Time 92640, Note Name: A#4, Velocity: 45
Note ON: Time 92640, Note Name: F5, Velocity: 53
Note OFF: Time 92880, Note Name: F5
Note OFF: Time 92880, Note Name: A#4
Note ON: Time 93120, Note Name: A#4, Velocity: 47
Note ON: Time 93120, Note Name: F5, Velocity: 56
Note OFF: Time 93360, Note Name: F5
Note OFF: Time 93360, Note Name: A#4
Note ON: Time 93600, Note Name: A#4, Velocity: 50
Note ON: Time 93600, Note Name: F5, Velocity: 59
Note OFF: Time 93840, Note Name: F5
Note OFF: Time 93840, Note Name: A#4
Note ON: Time 94080, Note Name: A#4, Velocity: 73
Note ON: Time 94080, Note Name: A#5, Velocity: 73
Note OFF: Time 95040, Note Name: A#4
Note ON: Time 95040, Note Name: C#5, Velocity: 80
Note OFF: Time 95520, Note Name: A#5
Note ON: Time 95520, Note Name: B5, Velocity: 72
Note OFF: Time 96000, Note Name: B5
Note OFF: Time 96000, Note Name: C#5
Note ON: Time 96000, Note Name: C5, Velocity: 74
Note ON: Time 96000, Note Name: C6, Velocity: 87
Note OFF: Time 96480, Note Name: C6
Note OFF: Time 96480, Note Name: C5
Note ON: Time 96960, Note Name: F4, Velocity: 74
Note ON: Time 96960, Note Name: G#4, Velocity: 74
Note ON: Time 96960, Note Name: D5, Velocity: 87
Note OFF: Time 97440, Note Name: D5
Note OFF: Time 97440, Note Name: G#4
Note OFF: Time 97440, Note Name: F4
Note ON: Time 97920, Note Name: G4, Velocity: 49
Note ON: Time 97920, Note Name: D#5, Velocity: 55
Note OFF: Time 98400, Note Name: D#5
Note OFF: Time 98400, Note Name: G4
Note ON: Time 99040, Note Name: A#4, Velocity: 54
Note ON: Time 99200, Note Name: C5, Velocity: 56
Note OFF: Time 99210, Note Name: A#4
Note ON: Time 99360, Note Name: D5, Velocity: 57
Note OFF: Time 99370, Note Name: C5
Note ON: Time 99520, Note Name: C5, Velocity: 54
Note OFF: Time 99530, Note Name: D5
Note ON: Time 99680, Note Name: A#4, Velocity: 51
Note OFF: Time 99690, Note Name: C5
Note ON: Time 99840, Note Name: D#5, Velocity: 55
Note OFF: Time 99850, Note Name: A#4
Note OFF: Time 100320, Note Name: D#5
Note ON: Time 100960, Note Name: A#4, Velocity: 54
Note ON: Time 101120, Note Name: C5, Velocity: 56
Note OFF: Time 101130, Note Name: A#4
Note ON: Time 101280, Note Name: D5, Velocity: 57
Note OFF: Time 101290, Note Name: C5
Note ON: Time 101440, Note Name: C5, Velocity: 54
Note OFF: Time 101450, Note Name: D5
Note ON: Time 101600, Note Name: A#4, Velocity: 51
Note OFF: Time 101610, Note Name: C5
Note ON: Time 101760, Note Name: D#5, Velocity: 56
Note OFF: Time 101770, Note Name: A#4
Note OFF: Time 101920, Note Name: D#5
Note ON: Time 101920, Note Name: G5, Velocity: 59
Note OFF: Time 102080, Note Name: G5
Note ON: Time 102080, Note Name: F5, Velocity: 52
Note OFF: Time 102240, Note Name: F5
Note ON: Time 102240, Note Name: D#5, Velocity: 59
Note OFF: Time 102400, Note Name: D#5
Note ON: Time 102400, Note Name: D5, Velocity: 57
Note OFF: Time 102560, Note Name: D5
Note ON: Time 102560, Note Name: C5, Velocity: 58
Note OFF: Time 102720, Note Name: C5
Note ON: Time 102720, Note Name: B4, Velocity: 54
Note OFF: Time 102880, Note Name: B4
Note ON: Time 102880, Note Name: C5, Velocity: 54
Note OFF: Time 103040, Note Name: C5
Note ON: Time 103040, Note Name: A#4, Velocity: 53
Note OFF: Time 103200, Note Name: A#4
Note ON: Time 103200, Note Name: G#4, Velocity: 53
Note OFF: Time 103360, Note Name: G#4
Note ON: Time 103360, Note Name: G4, Velocity: 52
Note OFF: Time 103520, Note Name: G4
Note ON: Time 103520, Note Name: F4, Velocity: 52
Note OFF: Time 103680, Note Name: F4
Note ON: Time 103680, Note Name: D#4, Velocity: 55
Note OFF: Time 104160, Note Name: D#4
Note ON: Time 104800, Note Name: A#3, Velocity: 54
Note ON: Time 104960, Note Name: C4, Velocity: 56
Note OFF: Time 104970, Note Name: A#3
Note ON: Time 105120, Note Name: D4, Velocity: 57
Note OFF: Time 105130, Note Name: C4
Note ON: Time 105280, Note Name: C4, Velocity: 54
Note OFF: Time 105290, Note Name: D4
Note ON: Time 105440, Note Name: A#3, Velocity: 51
Note OFF: Time 105450, Note Name: C4
Note ON: Time 105600, Note Name: D#4, Velocity: 55
Note OFF: Time 105610, Note Name: A#3
Note OFF: Time 106080, Note Name: D#4
Note ON: Time 106720, Note Name: A#3, Velocity: 54
Note ON: Time 106880, Note Name: C4, Velocity: 56
Note OFF: Time 106890, Note Name: A#3
Note ON: Time 107040, Note Name: D4, Velocity: 57
Note OFF: Time 107050, Note Name: C4
Note ON: Time 107200, Note Name: C4, Velocity: 54
Note OFF: Time 107210, Note Name: D4
Note ON: Time 107360, Note Name: A#3, Velocity: 51
Note OFF: Time 107370, Note Name: C4
Note ON: Time 107520, Note Name: D#4, Velocity: 55
Note OFF: Time 107530, Note Name: A#3
Note OFF: Time 108000, Note Name: D#4
Note ON: Time 108640, Note Name: B3, Velocity: 54
Note ON: Time 108800, Note Name: C4, Velocity: 56
Note OFF: Time 108810, Note Name: B3
Note ON: Time 108960, Note Name: D4, Velocity: 57
Note OFF: Time 108970, Note Name: C4
Note ON: Time 109120, Note Name: C4, Velocity: 54
Note OFF: Time 109130, Note Name: D4
Note ON: Time 109280, Note Name: B3, Velocity: 51
Note OFF: Time 109290, Note Name: C4
Note ON: Time 109440, Note Name: F4, Velocity: 64
Note OFF: Time 109450, Note Name: B3
Note ON: Time 109602, Note Name: D#4, Velocity: 54
Note OFF: Time 109610, Note Name: F4
Note ON: Time 109761, Note Name: D4, Velocity: 58
Note OFF: Time 109772, Note Name: D#4
Note ON: Time 109913, Note Name: G#4, Velocity: 66
Note OFF: Time 109921, Note Name: D4
Note ON: Time 110082, Note Name: G4, Velocity: 58
Note OFF: Time 110083, Note Name: G#4
Note ON: Time 110241, Note Name: F4, Velocity: 61
Note OFF: Time 110252, Note Name: G4
Note ON: Time 110400, Note Name: D5, Velocity: 70
Note OFF: Time 110401, Note Name: F4
Note ON: Time 110559, Note Name: C5, Velocity: 60
Note OFF: Time 110570, Note Name: D5
Note ON: Time 110721, Note Name: B4, Velocity: 64
Note OFF: Time 110729, Note Name: C5
Note OFF: Time 110881, Note Name: B4
Note ON: Time 110886, Note Name: F5, Velocity: 74
Note ON: Time 111039, Note Name: D#5, Velocity: 64
Note OFF: Time 111056, Note Name: F5
Note ON: Time 111201, Note Name: D5, Velocity: 68
Note OFF: Time 111209, Note Name: D#5
Note ON: Time 111360, Note Name: F6, Velocity: 100
Note OFF: Time 111361, Note Name: D5
Note OFF: Time 112800, Note Name: F6
Note ON: Time 112800, Note Name: D#6, Velocity: 86
Note OFF: Time 112960, Note Name: D#6
Note ON: Time 112960, Note Name: D6, Velocity: 85
Note OFF: Time 113120, Note Name: D6
Note ON: Time 113120, Note Name: C6, Velocity: 83
Note OFF: Time 113280, Note Name: C6
Note ON: Time 113280, Note Name: B5, Velocity: 82
Note OFF: Time 113440, Note Name: B5
Note ON: Time 113440, Note Name: G#5, Velocity: 81
Note OFF: Time 113600, Note Name: G#5
Note ON: Time 113600, Note Name: G5, Velocity: 79
Note OFF: Time 113760, Note Name: G5
Note ON: Time 113760, Note Name: F5, Velocity: 78
Note OFF: Time 113920, Note Name: F5
Note ON: Time 113920, Note Name: D#5, Velocity: 77
Note OFF: Time 114080, Note Name: D#5
Note ON: Time 114080, Note Name: D5, Velocity: 75
Note OFF: Time 114240, Note Name: D5
Note ON: Time 114240, Note Name: C5, Velocity: 74
Note OFF: Time 114400, Note Name: C5
Note ON: Time 114400, Note Name: B4, Velocity: 72
Note OFF: Time 114560, Note Name: B4
Note ON: Time 114560, Note Name: G#4, Velocity: 71
Note OFF: Time 114720, Note Name: G#4
Note ON: Time 114720, Note Name: G4, Velocity: 70
Note OFF: Time 114816, Note Name: G4
Note ON: Time 114816, Note Name: F4, Velocity: 68
Note OFF: Time 114912, Note Name: F4
Note ON: Time 114912, Note Name: D#4, Velocity: 69
Note OFF: Time 115008, Note Name: D#4
Note ON: Time 115008, Note Name: D4, Velocity: 70
Note OFF: Time 115104, Note Name: D4
Note ON: Time 115104, Note Name: C4, Velocity: 71
Note OFF: Time 115200, Note Name: C4
Note ON: Time 115200, Note Name: B3, Velocity: 93
Note OFF: Time 118080, Note Name: B3
Note ON: Time 118320, Note Name: G4, Velocity: 48
Note OFF: Time 118440, Note Name: G4
Note ON: Time 118560, Note Name: C5, Velocity: 49
Note OFF: Time 118680, Note Name: C5
Note ON: Time 118800, Note Name: D5, Velocity: 51
Note OFF: Time 118920, Note Name: D5
Note ON: Time 119040, Note Name: D#5, Velocity: 52
Note OFF: Time 119760, Note Name: D#5
Note ON: Time 119760, Note Name: F5, Velocity: 50
Note OFF: Time 120000, Note Name: F5
Note ON: Time 120000, Note Name: D5, Velocity: 53
Note OFF: Time 120720, Note Name: D5
Note ON: Time 120720, Note Name: D#5, Velocity: 50
Note OFF: Time 120960, Note Name: D#5
Note ON: Time 120960, Note Name: C5, Velocity: 52
Note OFF: Time 121860, Note Name: C5
Note ON: Time 121860, Note Name: D5, Velocity: 48
Note OFF: Time 121920, Note Name: D5
Note ON: Time 121920, Note Name: C5, Velocity: 52
Note OFF: Time 122160, Note Name: C5
Note ON: Time 122160, Note Name: B4, Velocity: 51
Note OFF: Time 122400, Note Name: B4
Note ON: Time 122400, Note Name: C5, Velocity: 51
Note OFF: Time 122640, Note Name: C5
Note ON: Time 122640, Note Name: D5, Velocity: 50
Note OFF: Time 122820, Note Name: D5
Note ON: Time 122820, Note Name: F5, Velocity: 49
Note OFF: Time 122880, Note Name: F5
Note ON: Time 122880, Note Name: D#5, Velocity: 56
Note OFF: Time 123120, Note Name: D#5
Note ON: Time 123120, Note Name: D5, Velocity: 52
Note OFF: Time 123360, Note Name: D5
Note ON: Time 123360, Note Name: D#5, Velocity: 52
Note OFF: Time 123600, Note Name: D#5
Note ON: Time 123600, Note Name: F5, Velocity: 52
Note OFF: Time 123840, Note Name: F5
Note ON: Time 123840, Note Name: G5, Velocity: 56
Note OFF: Time 124080, Note Name: G5
Note ON: Time 124320, Note Name: G5, Velocity: 55
Note OFF: Time 124560, Note Name: G5
Note ON: Time 124800, Note Name: G5, Velocity: 57
Note OFF: Time 126240, Note Name: G5
Note ON: Time 126240, Note Name: F5, Velocity: 51
Note OFF: Time 126480, Note Name: F5
Note ON: Time 126480, Note Name: G5, Velocity: 53
Note OFF: Time 126600, Note Name: G5
Note ON: Time 126600, Note Name: F5, Velocity: 48
Note OFF: Time 126660, Note Name: F5
Note ON: Time 126660, Note Name: G5, Velocity: 48
Note OFF: Time 126720, Note Name: G5
Note ON: Time 126720, Note Name: G#5, Velocity: 56
Note OFF: Time 127680, Note Name: G#5
Note ON: Time 127680, Note Name: D5, Velocity: 52
Note OFF: Time 128160, Note Name: D5
Note ON: Time 128160, Note Name: D#5, Velocity: 51
Note OFF: Time 128400, Note Name: D#5
Note ON: Time 128400, Note Name: F5, Velocity: 53
Note OFF: Time 128520, Note Name: F5
Note ON: Time 128520, Note Name: D#5, Velocity: 50
Note OFF: Time 128580, Note Name: D#5
Note ON: Time 128580, Note Name: F5, Velocity: 50
Note OFF: Time 128640, Note Name: F5
Note ON: Time 128640, Note Name: G5, Velocity: 56
Note OFF: Time 129600, Note Name: G5
Note ON: Time 129600, Note Name: C5, Velocity: 52
Note OFF: Time 130070, Note Name: C5
Note ON: Time 130080, Note Name: C5, Velocity: 53
Note OFF: Time 130320, Note Name: C5
Note ON: Time 130320, Note Name: D5, Velocity: 54
Note OFF: Time 130560, Note Name: D5
Note ON: Time 130560, Note Name: D#5, Velocity: 57
Note OFF: Time 130800, Note Name: D#5
Note ON: Time 131040, Note Name: D#5, Velocity: 53
Note OFF: Time 131280, Note Name: D#5
Note ON: Time 131280, Note Name: F5, Velocity: 55
Note OFF: Time 131520, Note Name: F5
Note ON: Time 131520, Note Name: D5, Velocity: 57
Note OFF: Time 131760, Note Name: D5
Note ON: Time 132000, Note Name: D5, Velocity: 51
Note OFF: Time 132240, Note Name: D5
Note ON: Time 132240, Note Name: D#5, Velocity: 54
Note OFF: Time 132480, Note Name: D#5
Note ON: Time 132480, Note Name: C5, Velocity: 57
Note OFF: Time 132960, Note Name: C5
Note ON: Time 133920, Note Name: F5, Velocity: 56
Note OFF: Time 134160, Note Name: F5
Note ON: Time 134160, Note Name: G5, Velocity: 58
Note OFF: Time 134400, Note Name: G5
Note ON: Time 134400, Note Name: G#4, Velocity: 51
Note ON: Time 134400, Note Name: G#5, Velocity: 61
Note OFF: Time 135360, Note Name: G#5
Note OFF: Time 135360, Note Name: G#4
Note ON: Time 135360, Note Name: D5, Velocity: 57
Note OFF: Time 135840, Note Name: D5
Note ON: Time 135840, Note Name: D#5, Velocity: 56
Note OFF: Time 136080, Note Name: D#5
Note ON: Time 136080, Note Name: F5, Velocity: 58
Note OFF: Time 136320, Note Name: F5
Note ON: Time 136320, Note Name: G4, Velocity: 51
Note ON: Time 136320, Note Name: G5, Velocity: 61
Note OFF: Time 137280, Note Name: G5
Note OFF: Time 137280, Note Name: G4
Note ON: Time 137280, Note Name: C5, Velocity: 57
Note OFF: Time 137750, Note Name: C5
Note ON: Time 137760, Note Name: C5, Velocity: 58
Note OFF: Time 138000, Note Name: C5
Note ON: Time 138000, Note Name: D5, Velocity: 59
Note OFF: Time 138240, Note Name: D5
Note ON: Time 138240, Note Name: D#5, Velocity: 62
Note OFF: Time 138480, Note Name: D#5
Note ON: Time 138720, Note Name: D#5, Velocity: 58
Note OFF: Time 138960, Note Name: D#5
Note ON: Time 138960, Note Name: F5, Velocity: 60
Note OFF: Time 139200, Note Name: F5
Note ON: Time 139200, Note Name: D5, Velocity: 62
Note OFF: Time 139440, Note Name: D5
Note ON: Time 139680, Note Name: D5, Velocity: 56
Note OFF: Time 139920, Note Name: D5
Note ON: Time 139920, Note Name: D#5, Velocity: 59
Note OFF: Time 140160, Note Name: D#5
Note ON: Time 140160, Note Name: C5, Velocity: 62
Note OFF: Time 140400, Note Name: C5
Note ON: Time 140640, Note Name: A#5, Velocity: 74
Note OFF: Time 141600, Note Name: A#5
Note ON: Time 141600, Note Name: A#5, Velocity: 73
Note OFF: Time 142320, Note Name: A#5
Note ON: Time 142320, Note Name: G#5, Velocity: 71
Note OFF: Time 142560, Note Name: G#5
Note ON: Time 142560, Note Name: G5, Velocity: 72
Note OFF: Time 142800, Note Name: G5
Note ON: Time 142800, Note Name: F5, Velocity: 72
Note OFF: Time 143040, Note Name: F5
Note ON: Time 143040, Note Name: D#5, Velocity: 71
Note OFF: Time 143280, Note Name: D#5
Note ON: Time 143280, Note Name: D5, Velocity: 71
Note OFF: Time 143520, Note Name: D5
Note ON: Time 143520, Note Name: C5, Velocity: 71
Note OFF: Time 143760, Note Name: C5
Note ON: Time 143760, Note Name: B4, Velocity: 71
Note OFF: Time 144000, Note Name: B4
Note ON: Time 144000, Note Name: C5, Velocity: 73
Note OFF: Time 144240, Note Name: C5
Note ON: Time 144480, Note Name: C5, Velocity: 67
Note ON: Time 144480, Note Name: C6, Velocity: 79
Note OFF: Time 145440, Note Name: C6
Note OFF: Time 145440, Note Name: C5
Note ON: Time 145440, Note Name: A#5, Velocity: 80
Note OFF: Time 146160, Note Name: A#5
Note ON: Time 146160, Note Name: G#5, Velocity: 81
Note OFF: Time 146400, Note Name: G#5
Note ON: Time 146400, Note Name: G5, Velocity: 82
Note OFF: Time 146640, Note Name: G5
Note ON: Time 146640, Note Name: F5, Velocity: 81
Note OFF: Time 146880, Note Name: F5
Note ON: Time 146880, Note Name: D#5, Velocity: 79
Note OFF: Time 147120, Note Name: D#5
Note ON: Time 147120, Note Name: D5, Velocity: 79
Note OFF: Time 147360, Note Name: D5
Note ON: Time 147360, Note Name: C5, Velocity: 79
Note OFF: Time 147600, Note Name: C5
Note ON: Time 147600, Note Name: B4, Velocity: 78
Note OFF: Time 147840, Note Name: B4
Note ON: Time 147840, Note Name: C5, Velocity: 89
Note OFF: Time 148080, Note Name: C5
Note ON: Time 148320, Note Name: D5, Velocity: 81
Note OFF: Time 148400, Note Name: D5
Note ON: Time 148400, Note Name: D#5, Velocity: 81
Note OFF: Time 148480, Note Name: D#5
Note ON: Time 148480, Note Name: D5, Velocity: 81
Note OFF: Time 148560, Note Name: D5
Note ON: Time 148560, Note Name: D#5, Velocity: 81
Note OFF: Time 148620, Note Name: D#5
Note ON: Time 148620, Note Name: D5, Velocity: 81
Note OFF: Time 148680, Note Name: D5
Note ON: Time 148680, Note Name: C5, Velocity: 80
Note OFF: Time 148740, Note Name: C5
Note ON: Time 148740, Note Name: D5, Velocity: 80
Note OFF: Time 148800, Note Name: D5
Note ON: Time 148800, Note Name: D#5, Velocity: 92
Note OFF: Time 149040, Note Name: D#5
Note ON: Time 149280, Note Name: B4, Velocity: 92
Note ON: Time 149280, Note Name: D5, Velocity: 92
Note ON: Time 149280, Note Name: B5, Velocity: 92
Note OFF: Time 149520, Note Name: B5
Note OFF: Time 149520, Note Name: D5
Note OFF: Time 149520, Note Name: B4
Note ON: Time 149760, Note Name: C5, Velocity: 92
Note ON: Time 149760, Note Name: D#5, Velocity: 92
Note ON: Time 149760, Note Name: C6, Velocity: 92
Note OFF: Time 150000, Note Name: C6
Note OFF: Time 150000, Note Name: D#5
Note OFF: Time 150000, Note Name: C5
Note ON: Time 151680, Note Name: C4, Velocity: 53
Note OFF: Time 152640, Note Name: C4
Note ON: Time 152640, Note Name: F4, Velocity: 48
Note OFF: Time 153600, Note Name: F4
Note ON: Time 153600, Note Name: A#3, Velocity: 51
Note OFF: Time 154560, Note Name: A#3
Note ON: Time 154560, Note Name: D#4, Velocity: 48
Note OFF: Time 155520, Note Name: D#4
Note ON: Time 155520, Note Name: G#3, Velocity: 52
Note OFF: Time 156480, Note Name: G#3
Note ON: Time 156480, Note Name: C#4, Velocity: 48
Note OFF: Time 156960, Note Name: C#4
Note ON: Time 156960, Note Name: C4, Velocity: 48
Note OFF: Time 157440, Note Name: C4
Note ON: Time 157440, Note Name: A#3, Velocity: 53
Note OFF: Time 157920, Note Name: A#3
Note ON: Time 157920, Note Name: G#3, Velocity: 48
Note OFF: Time 158400, Note Name: G#3
Note ON: Time 158400, Note Name: G3, Velocity: 48
Note OFF: Time 158880, Note Name: G3
Note ON: Time 159840, Note Name: C5, Velocity: 55
Note OFF: Time 160800, Note Name: C5
Note ON: Time 160800, Note Name: F4, Velocity: 53
Note OFF: Time 161760, Note Name: F4
Note ON: Time 161760, Note Name: A#4, Velocity: 56
Note OFF: Time 162720, Note Name: A#4
Note ON: Time 162720, Note Name: D#4, Velocity: 53
Note OFF: Time 163680, Note Name: D#4
Note ON: Time 163680, Note Name: G#4, Velocity: 53
Note OFF: Time 164160, Note Name: G#4
Note ON: Time 164160, Note Name: G4, Velocity: 51
Note OFF: Time 164640, Note Name: G4
Note ON: Time 164640, Note Name: F4, Velocity: 51
Note OFF: Time 165120, Note Name: F4
Note ON: Time 165120, Note Name: D#4, Velocity: 53
Note OFF: Time 165600, Note Name: D#4
Note ON: Time 165600, Note Name: D4, Velocity: 49
Note OFF: Time 166080, Note Name: D4
Note ON: Time 166080, Note Name: F4, Velocity: 53
Note OFF: Time 166560, Note Name: F4
Note ON: Time 166560, Note Name: D#4, Velocity: 49
Note OFF: Time 167040, Note Name: D#4
Note ON: Time 167040, Note Name: C5, Velocity: 57
Note OFF: Time 168000, Note Name: C5
Note ON: Time 168000, Note Name: F4, Velocity: 40
Note ON: Time 168000, Note Name: F5, Velocity: 48
Note OFF: Time 168960, Note Name: F5
Note OFF: Time 168960, Note Name: F4
Note ON: Time 168960, Note Name: A#4, Velocity: 57
Note OFF: Time 169920, Note Name: A#4
Note ON: Time 169920, Note Name: D#4, Velocity: 40
Note ON: Time 169920, Note Name: D#5, Velocity: 48
Note OFF: Time 170880, Note Name: D#5
Note ON: Time 170880, Note Name: G#4, Velocity: 52
Note OFF: Time 171360, Note Name: D#4
Note ON: Time 171360, Note Name: C4, Velocity: 48
Note OFF: Time 171840, Note Name: C4
Note OFF: Time 171840, Note Name: G#4
Note ON: Time 171840, Note Name: F4, Velocity: 45
Note ON: Time 171840, Note Name: C#5, Velocity: 53
Note OFF: Time 172320, Note Name: C#5
Note OFF: Time 172320, Note Name: F4
Note ON: Time 172320, Note Name: D#4, Velocity: 40
Note ON: Time 172320, Note Name: C5, Velocity: 48
Note OFF: Time 172800, Note Name: C5
Note OFF: Time 172800, Note Name: D#4
Note ON: Time 172800, Note Name: C#4, Velocity: 40
Note ON: Time 172800, Note Name: A#4, Velocity: 53
Note OFF: Time 173280, Note Name: A#4
Note OFF: Time 173280, Note Name: C#4
Note ON: Time 173280, Note Name: C4, Velocity: 40
Note ON: Time 173280, Note Name: G#4, Velocity: 48
Note OFF: Time 173760, Note Name: G#4
Note OFF: Time 173760, Note Name: C4
Note ON: Time 173760, Note Name: A#3, Velocity: 40
Note ON: Time 173760, Note Name: G4, Velocity: 48
Note OFF: Time 174240, Note Name: G4
Note OFF: Time 174240, Note Name: A#3
Note ON: Time 174240, Note Name: D#4, Velocity: 48
Note OFF: Time 174720, Note Name: D#4
Note ON: Time 175200, Note Name: C5, Velocity: 46
Note ON: Time 175200, Note Name: C6, Velocity: 55
Note OFF: Time 176160, Note Name: C6
Note OFF: Time 176160, Note Name: C5
Note ON: Time 176160, Note Name: F5, Velocity: 55
Note OFF: Time 177120, Note Name: F5
Note ON: Time 177120, Note Name: A#4, Velocity: 51
Note ON: Time 177120, Note Name: A#5, Velocity: 61
Note OFF: Time 178080, Note Name: A#5
Note OFF: Time 178080, Note Name: A#4
Note ON: Time 178080, Note Name: D#5, Velocity: 59
Note ON: Time 178560, Note Name: C5, Velocity: 51
Note OFF: Time 179040, Note Name: D#5
Note ON: Time 179040, Note Name: G#5, Velocity: 61
Note OFF: Time 179520, Note Name: G#5
Note OFF: Time 179520, Note Name: C5
Note ON: Time 179520, Note Name: A#4, Velocity: 50
Note ON: Time 179520, Note Name: G5, Velocity: 60
Note OFF: Time 180000, Note Name: G5
Note OFF: Time 180000, Note Name: A#4
Note ON: Time 180000, Note Name: G#4, Velocity: 51
Note ON: Time 180000, Note Name: F5, Velocity: 61
Note OFF: Time 180480, Note Name: F5
Note OFF: Time 180480, Note Name: G#4
Note ON: Time 180480, Note Name: G4, Velocity: 54
Note ON: Time 180480, Note Name: D#5, Velocity: 64
Note OFF: Time 180960, Note Name: D#5
Note OFF: Time 180960, Note Name: G4
Note ON: Time 180960, Note Name: F4, Velocity: 50
Note ON: Time 180960, Note Name: D5, Velocity: 60
Note OFF: Time 181440, Note Name: D5
Note OFF: Time 181440, Note Name: F4
Note ON: Time 181440, Note Name: G#4, Velocity: 56
Note ON: Time 181440, Note Name: F5, Velocity: 66
Note OFF: Time 181920, Note Name: F5
Note OFF: Time 181920, Note Name: G#4
Note ON: Time 181920, Note Name: G4, Velocity: 52
Note ON: Time 181920, Note Name: D#5, Velocity: 62
Note OFF: Time 182400, Note Name: D#5
Note OFF: Time 182400, Note Name: G4
Note ON: Time 183840, Note Name: D#5, Velocity: 65
Note OFF: Time 184320, Note Name: D#5
Note ON: Time 184320, Note Name: C5, Velocity: 68
Note OFF: Time 184800, Note Name: C5
Note ON: Time 184800, Note Name: C#5, Velocity: 65
Note OFF: Time 185280, Note Name: C#5
Note ON: Time 185280, Note Name: F5, Velocity: 67
Note OFF: Time 185760, Note Name: F5
Note ON: Time 185760, Note Name: G4, Velocity: 63
Note OFF: Time 186240, Note Name: G4
Note ON: Time 186240, Note Name: A#4, Velocity: 68
Note OFF: Time 186720, Note Name: A#4
Note ON: Time 186720, Note Name: G#4, Velocity: 65
Note OFF: Time 187200, Note Name: G#4
Note ON: Time 187200, Note Name: C5, Velocity: 67
Note OFF: Time 187680, Note Name: C5
Note ON: Time 187680, Note Name: D4, Velocity: 65
Note OFF: Time 188160, Note Name: D4
Note ON: Time 188160, Note Name: D#4, Velocity: 65
Note OFF: Time 188400, Note Name: D#4
Note ON: Time 188640, Note Name: A#5, Velocity: 61
Note OFF: Time 189120, Note Name: A#5
Note ON: Time 189120, Note Name: D#6, Velocity: 66
Note OFF: Time 189600, Note Name: D#6
Note ON: Time 189600, Note Name: C#6, Velocity: 62
Note OFF: Time 190080, Note Name: C#6
Note ON: Time 190080, Note Name: C6, Velocity: 69
Note OFF: Time 191040, Note Name: C6
Note ON: Time 191040, Note Name: F6, Velocity: 70
Note OFF: Time 192000, Note Name: F6
Note ON: Time 192000, Note Name: A#5, Velocity: 70
Note OFF: Time 192960, Note Name: A#5
Note ON: Time 192960, Note Name: D#6, Velocity: 67
Note OFF: Time 193920, Note Name: D#6
Note ON: Time 193920, Note Name: G#5, Velocity: 70
Note OFF: Time 194880, Note Name: G#5
Note ON: Time 194880, Note Name: C#5, Velocity: 72
Note ON: Time 194880, Note Name: C#6, Velocity: 72
Note OFF: Time 195120, Note Name: C#6
Note OFF: Time 195120, Note Name: C#5
Note ON: Time 195360, Note Name: C6, Velocity: 73
Note ON: Time 195360, Note Name: C5, Velocity: 73
Note OFF: Time 195600, Note Name: C5
Note OFF: Time 195600, Note Name: C6
Note ON: Time 195840, Note Name: A#4, Velocity: 75
Note ON: Time 195840, Note Name: A#5, Velocity: 75
Note OFF: Time 196080, Note Name: A#5
Note OFF: Time 196080, Note Name: A#4
Note ON: Time 196320, Note Name: G#5, Velocity: 77
Note ON: Time 196320, Note Name: G#4, Velocity: 77
Note OFF: Time 196560, Note Name: G#4
Note OFF: Time 196560, Note Name: G#5
Note ON: Time 196800, Note Name: G4, Velocity: 79
Note ON: Time 196800, Note Name: G5, Velocity: 79
Note OFF: Time 197040, Note Name: G5
Note OFF: Time 197040, Note Name: G4
Note ON: Time 197280, Note Name: C#5, Velocity: 80
Note OFF: Time 197520, Note Name: C#5
Note ON: Time 197760, Note Name: C6, Velocity: 80
Note OFF: Time 198000, Note Name: C6
Note ON: Time 198000, Note Name: A#5, Velocity: 79
Note OFF: Time 198240, Note Name: A#5
Note ON: Time 198240, Note Name: G#5, Velocity: 79
Note OFF: Time 198480, Note Name: G#5
Note ON: Time 198480, Note Name: G5, Velocity: 78
Note OFF: Time 198720, Note Name: G5
Note ON: Time 198720, Note Name: F5, Velocity: 77
Note OFF: Time 198960, Note Name: F5
Note ON: Time 198960, Note Name: D#5, Velocity: 76
Note OFF: Time 199200, Note Name: D#5
Note ON: Time 199200, Note Name: C#5, Velocity: 76
Note OFF: Time 199440, Note Name: C#5
Note ON: Time 199440, Note Name: C5, Velocity: 76
Note OFF: Time 199680, Note Name: C5
Note ON: Time 199680, Note Name: A#4, Velocity: 77
Note OFF: Time 199920, Note Name: A#4
Note ON: Time 199920, Note Name: G#4, Velocity: 77
Note OFF: Time 200160, Note Name: G#4
Note ON: Time 200160, Note Name: G4, Velocity: 77
Note OFF: Time 200400, Note Name: G4
Note ON: Time 200400, Note Name: F4, Velocity: 77
Note OFF: Time 200640, Note Name: F4
Note ON: Time 200640, Note Name: E4, Velocity: 77
Note OFF: Time 200880, Note Name: E4
Note ON: Time 200880, Note Name: C#4, Velocity: 76
Note OFF: Time 201120, Note Name: C#4
Note ON: Time 201120, Note Name: C4, Velocity: 76
Note OFF: Time 201360, Note Name: C4
Note ON: Time 201360, Note Name: A#3, Velocity: 75
Note OFF: Time 201600, Note Name: A#3
Note ON: Time 201600, Note Name: G#3, Velocity: 75
Note OFF: Time 201840, Note Name: G#3
Note ON: Time 201840, Note Name: G3, Velocity: 74
Note OFF: Time 202080, Note Name: G3
Note ON: Time 202080, Note Name: F3, Velocity: 73
Note OFF: Time 202320, Note Name: F3
Note ON: Time 202320, Note Name: E3, Velocity: 71
Note OFF: Time 202560, Note Name: E3
Note ON: Time 202560, Note Name: F3, Velocity: 70
Note OFF: Time 202800, Note Name: F3
Note ON: Time 202800, Note Name: G3, Velocity: 72
Note OFF: Time 203040, Note Name: G3
Note ON: Time 203040, Note Name: G#3, Velocity: 74
Note OFF: Time 203280, Note Name: G#3
Note ON: Time 203280, Note Name: G3, Velocity: 71
Note OFF: Time 203520, Note Name: G3
Note ON: Time 203520, Note Name: F3, Velocity: 73
Note OFF: Time 203760, Note Name: F3
Note ON: Time 203760, Note Name: D#3, Velocity: 72
Note OFF: Time 204000, Note Name: D#3
Note ON: Time 204000, Note Name: D3, Velocity: 71
Note OFF: Time 204240, Note Name: D3
Note ON: Time 204240, Note Name: C3, Velocity: 70
Note OFF: Time 204480, Note Name: C3
Note ON: Time 204480, Note Name: B2, Velocity: 67
Note OFF: Time 204720, Note Name: B2
Note ON: Time 204720, Note Name: C3, Velocity: 69
Note OFF: Time 204960, Note Name: C3
Note ON: Time 204960, Note Name: D3, Velocity: 71
Note OFF: Time 205200, Note Name: D3
Note ON: Time 205200, Note Name: C3, Velocity: 70
Note OFF: Time 205440, Note Name: C3
Note ON: Time 205560, Note Name: G2, Velocity: 56
Note OFF: Time 205680, Note Name: G2
Note ON: Time 205680, Note Name: B2, Velocity: 56
Note OFF: Time 205800, Note Name: B2
Note ON: Time 205800, Note Name: D3, Velocity: 56
Note OFF: Time 205920, Note Name: D3
Note ON: Time 205920, Note Name: G3, Velocity: 69
Note OFF: Time 206040, Note Name: G3
Note ON: Time 206520, Note Name: G2, Velocity: 58
Note OFF: Time 206640, Note Name: G2
Note ON: Time 206640, Note Name: C3, Velocity: 58
Note OFF: Time 206760, Note Name: C3
Note ON: Time 206760, Note Name: D#3, Velocity: 58
Note OFF: Time 206880, Note Name: D#3
Note ON: Time 206880, Note Name: G3, Velocity: 70
Note OFF: Time 207000, Note Name: G3
Note ON: Time 207480, Note Name: G2, Velocity: 60
Note OFF: Time 207600, Note Name: G2
Note ON: Time 207600, Note Name: D3, Velocity: 60
Note OFF: Time 207720, Note Name: D3
Note ON: Time 207720, Note Name: F3, Velocity: 60
Note OFF: Time 207840, Note Name: F3
Note ON: Time 207840, Note Name: G3, Velocity: 71
Note OFF: Time 207960, Note Name: G3
Note ON: Time 208440, Note Name: G2, Velocity: 61
Note OFF: Time 208560, Note Name: G2
Note ON: Time 208560, Note Name: C3, Velocity: 61
Note OFF: Time 208680, Note Name: C3
Note ON: Time 208680, Note Name: D#3, Velocity: 61
Note OFF: Time 208800, Note Name: D#3
Note ON: Time 208800, Note Name: G3, Velocity: 71
Note OFF: Time 208920, Note Name: G3
Note ON: Time 209400, Note Name: G3, Velocity: 60
Note OFF: Time 209520, Note Name: G3
Note ON: Time 209520, Note Name: B3, Velocity: 60
Note OFF: Time 209640, Note Name: B3
Note ON: Time 209640, Note Name: D4, Velocity: 60
Note OFF: Time 209760, Note Name: D4
Note ON: Time 209760, Note Name: G4, Velocity: 76
Note OFF: Time 209880, Note Name: G4
Note ON: Time 210360, Note Name: G3, Velocity: 64
Note OFF: Time 210480, Note Name: G3
Note ON: Time 210480, Note Name: C4, Velocity: 64
Note OFF: Time 210600, Note Name: C4
Note ON: Time 210600, Note Name: D#4, Velocity: 64
Note OFF: Time 210720, Note Name: D#4
Note ON: Time 210720, Note Name: G4, Velocity: 76
Note OFF: Time 210840, Note Name: G4
Note ON: Time 211320, Note Name: G3, Velocity: 66
Note OFF: Time 211440, Note Name: G3
Note ON: Time 211440, Note Name: D4, Velocity: 66
Note OFF: Time 211560, Note Name: D4
Note ON: Time 211560, Note Name: F4, Velocity: 66
Note OFF: Time 211680, Note Name: F4
Note ON: Time 211680, Note Name: G4, Velocity: 77
Note OFF: Time 211800, Note Name: G4
Note ON: Time 212280, Note Name: G3, Velocity: 67
Note OFF: Time 212400, Note Name: G3
Note ON: Time 212400, Note Name: C4, Velocity: 67
Note OFF: Time 212520, Note Name: C4
Note ON: Time 212520, Note Name: D#4, Velocity: 67
Note OFF: Time 212640, Note Name: D#4
Note ON: Time 212640, Note Name: G4, Velocity: 77
Note OFF: Time 212760, Note Name: G4
Note ON: Time 213240, Note Name: G4, Velocity: 72
Note OFF: Time 213360, Note Name: G4
Note ON: Time 213360, Note Name: B4, Velocity: 72
Note OFF: Time 213480, Note Name: B4
Note ON: Time 213480, Note Name: D5, Velocity: 72
Note OFF: Time 213600, Note Name: D5
Note ON: Time 213600, Note Name: G5, Velocity: 89
Note OFF: Time 213720, Note Name: G5
Note ON: Time 214200, Note Name: G4, Velocity: 75
Note OFF: Time 214320, Note Name: G4
Note ON: Time 214320, Note Name: C5, Velocity: 75
Note OFF: Time 214440, Note Name: C5
Note ON: Time 214440, Note Name: D#5, Velocity: 75
Note OFF: Time 214560, Note Name: D#5
Note ON: Time 214560, Note Name: G5, Velocity: 88
Note OFF: Time 214680, Note Name: G5
Note ON: Time 215160, Note Name: G4, Velocity: 75
Note OFF: Time 215280, Note Name: G4
Note ON: Time 215280, Note Name: D5, Velocity: 75
Note OFF: Time 215400, Note Name: D5
Note ON: Time 215400, Note Name: F5, Velocity: 75
Note OFF: Time 215520, Note Name: F5
Note ON: Time 215520, Note Name: G5, Velocity: 87
Note OFF: Time 215640, Note Name: G5
Note ON: Time 216120, Note Name: G4, Velocity: 75
Note OFF: Time 216240, Note Name: G4
Note ON: Time 216240, Note Name: C5, Velocity: 75
Note OFF: Time 216360, Note Name: C5
Note ON: Time 216360, Note Name: D#5, Velocity: 75
Note OFF: Time 216480, Note Name: D#5
Note ON: Time 216480, Note Name: G5, Velocity: 86
Note OFF: Time 216600, Note Name: G5
Note ON: Time 217120, Note Name: G4, Velocity: 66
Note OFF: Time 217280, Note Name: G4
Note ON: Time 217280, Note Name: F#4, Velocity: 68
Note OFF: Time 217440, Note Name: F#4
Note ON: Time 217440, Note Name: G4, Velocity: 70
Note OFF: Time 217600, Note Name: G4
Note ON: Time 217600, Note Name: B4, Velocity: 72
Note OFF: Time 217760, Note Name: B4
Note ON: Time 217760, Note Name: D5, Velocity: 75
Note OFF: Time 217920, Note Name: D5
Note ON: Time 217920, Note Name: G5, Velocity: 84
Note OFF: Time 218080, Note Name: G5
Note ON: Time 218080, Note Name: D5, Velocity: 72
Note OFF: Time 218240, Note Name: D5
Note ON: Time 218240, Note Name: B4, Velocity: 64
Note OFF: Time 218400, Note Name: B4
Note ON: Time 218400, Note Name: G4, Velocity: 70
Note OFF: Time 218520, Note Name: G4
Note ON: Time 219040, Note Name: B4, Velocity: 66
Note OFF: Time 219200, Note Name: B4
Note ON: Time 219200, Note Name: A#4, Velocity: 68
Note OFF: Time 219360, Note Name: A#4
Note ON: Time 219360, Note Name: B4, Velocity: 70
Note OFF: Time 219520, Note Name: B4
Note ON: Time 219520, Note Name: D5, Velocity: 72
Note OFF: Time 219680, Note Name: D5
Note ON: Time 219680, Note Name: G5, Velocity: 75
Note OFF: Time 219840, Note Name: G5
Note ON: Time 219840, Note Name: B5, Velocity: 84
Note OFF: Time 220000, Note Name: B5
Note ON: Time 220000, Note Name: G5, Velocity: 72
Note OFF: Time 220160, Note Name: G5
Note ON: Time 220160, Note Name: D5, Velocity: 64
Note OFF: Time 220320, Note Name: D5
Note ON: Time 220320, Note Name: B4, Velocity: 70
Note OFF: Time 220440, Note Name: B4
Note ON: Time 220960, Note Name: D5, Velocity: 66
Note OFF: Time 221120, Note Name: D5
Note ON: Time 221120, Note Name: C#5, Velocity: 68
Note OFF: Time 221280, Note Name: C#5
Note ON: Time 221280, Note Name: D5, Velocity: 70
Note OFF: Time 221440, Note Name: D5
Note ON: Time 221440, Note Name: F5, Velocity: 72
Note OFF: Time 221600, Note Name: F5
Note ON: Time 221600, Note Name: B5, Velocity: 75
Note OFF: Time 221760, Note Name: B5
Note ON: Time 221760, Note Name: D6, Velocity: 84
Note OFF: Time 221920, Note Name: D6
Note ON: Time 221920, Note Name: B5, Velocity: 72
Note OFF: Time 222080, Note Name: B5
Note ON: Time 222080, Note Name: F5, Velocity: 64
Note OFF: Time 222240, Note Name: F5
Note ON: Time 222240, Note Name: D5, Velocity: 70
Note OFF: Time 222360, Note Name: D5
Note ON: Time 222880, Note Name: F5, Velocity: 66
Note OFF: Time 223040, Note Name: F5
Note ON: Time 223040, Note Name: E5, Velocity: 68
Note OFF: Time 223200, Note Name: E5
Note ON: Time 223200, Note Name: F5, Velocity: 70
Note OFF: Time 223360, Note Name: F5
Note ON: Time 223360, Note Name: B5, Velocity: 72
Note OFF: Time 223520, Note Name: B5
Note ON: Time 223520, Note Name: D6, Velocity: 75
Note OFF: Time 223680, Note Name: D6
Note ON: Time 223680, Note Name: F6, Velocity: 84
Note OFF: Time 223840, Note Name: F6
Note ON: Time 223840, Note Name: D6, Velocity: 72
Note OFF: Time 224000, Note Name: D6
Note ON: Time 224000, Note Name: B5, Velocity: 64
Note OFF: Time 224160, Note Name: B5
Note ON: Time 224160, Note Name: F6, Velocity: 84
Note OFF: Time 224320, Note Name: F6
Note ON: Time 224320, Note Name: D6, Velocity: 72
Note OFF: Time 224480, Note Name: D6
Note ON: Time 224480, Note Name: B5, Velocity: 64
Note OFF: Time 224640, Note Name: B5
Note ON: Time 224640, Note Name: F6, Velocity: 100
Note OFF: Time 226080, Note Name: F6
Note ON: Time 226080, Note Name: D#6, Velocity: 86
Note OFF: Time 226240, Note Name: D#6
Note ON: Time 226240, Note Name: D6, Velocity: 85
Note OFF: Time 226400, Note Name: D6
Note ON: Time 226400, Note Name: C6, Velocity: 83
Note OFF: Time 226560, Note Name: C6
Note ON: Time 226560, Note Name: B5, Velocity: 82
Note OFF: Time 226720, Note Name: B5
Note ON: Time 226720, Note Name: G#5, Velocity: 81
Note OFF: Time 226880, Note Name: G#5
Note ON: Time 226880, Note Name: G5, Velocity: 79
Note OFF: Time 227040, Note Name: G5
Note ON: Time 227040, Note Name: F5, Velocity: 78
Note OFF: Time 227200, Note Name: F5
Note ON: Time 227200, Note Name: D#5, Velocity: 77
Note OFF: Time 227360, Note Name: D#5
Note ON: Time 227360, Note Name: D5, Velocity: 75
Note OFF: Time 227520, Note Name: D5
Note ON: Time 227520, Note Name: C5, Velocity: 74
Note OFF: Time 227680, Note Name: C5
Note ON: Time 227680, Note Name: B4, Velocity: 72
Note OFF: Time 227840, Note Name: B4
Note ON: Time 227840, Note Name: G#4, Velocity: 71
Note OFF: Time 228000, Note Name: G#4
Note ON: Time 228000, Note Name: G4, Velocity: 70
Note OFF: Time 228096, Note Name: G4
Note ON: Time 228096, Note Name: F4, Velocity: 68
Note OFF: Time 228192, Note Name: F4
Note ON: Time 228192, Note Name: D#4, Velocity: 69
Note OFF: Time 228288, Note Name: D#4
Note ON: Time 228288, Note Name: D4, Velocity: 70
Note OFF: Time 228384, Note Name: D4
Note ON: Time 228384, Note Name: C4, Velocity: 71
Note OFF: Time 228480, Note Name: C4
Note ON: Time 228480, Note Name: B3, Velocity: 93
Note OFF: Time 231360, Note Name: B3
Note ON: Time 231600, Note Name: G4, Velocity: 48
Note OFF: Time 231720, Note Name: G4
Note ON: Time 231840, Note Name: C5, Velocity: 49
Note OFF: Time 231960, Note Name: C5
Note ON: Time 232080, Note Name: D5, Velocity: 51
Note OFF: Time 232200, Note Name: D5
Note ON: Time 232320, Note Name: D#5, Velocity: 52
Note OFF: Time 233040, Note Name: D#5
Note ON: Time 233040, Note Name: F5, Velocity: 50
Note OFF: Time 233280, Note Name: F5
Note ON: Time 233280, Note Name: D5, Velocity: 53
Note OFF: Time 234000, Note Name: D5
Note ON: Time 234000, Note Name: D#5, Velocity: 50
Note OFF: Time 234240, Note Name: D#5
Note ON: Time 234240, Note Name: C5, Velocity: 52
Note OFF: Time 235140, Note Name: C5
Note ON: Time 235140, Note Name: D5, Velocity: 48
Note OFF: Time 235200, Note Name: D5
Note ON: Time 235200, Note Name: C5, Velocity: 52
Note OFF: Time 235440, Note Name: C5
Note ON: Time 235440, Note Name: B4, Velocity: 51
Note OFF: Time 235680, Note Name: B4
Note ON: Time 235680, Note Name: C5, Velocity: 51
Note OFF: Time 235920, Note Name: C5
Note ON: Time 235920, Note Name: D5, Velocity: 50
Note OFF: Time 236100, Note Name: D5
Note ON: Time 236100, Note Name: F5, Velocity: 49
Note OFF: Time 236160, Note Name: F5
Note ON: Time 236160, Note Name: D#5, Velocity: 56
Note OFF: Time 236400, Note Name: D#5
Note ON: Time 236400, Note Name: D5, Velocity: 52
Note OFF: Time 236640, Note Name: D5
Note ON: Time 236640, Note Name: D#5, Velocity: 52
Note OFF: Time 236880, Note Name: D#5
Note ON: Time 236880, Note Name: F5, Velocity: 52
Note OFF: Time 237120, Note Name: F5
Note ON: Time 237120, Note Name: G5, Velocity: 56
Note OFF: Time 237360, Note Name: G5
Note ON: Time 237600, Note Name: G5, Velocity: 55
Note OFF: Time 237840, Note Name: G5
Note ON: Time 238080, Note Name: G5, Velocity: 57
Note OFF: Time 239520, Note Name: G5
Note ON: Time 239520, Note Name: F5, Velocity: 51
Note OFF: Time 239760, Note Name: F5
Note ON: Time 239760, Note Name: G5, Velocity: 53
Note OFF: Time 239880, Note Name: G5
Note ON: Time 239880, Note Name: F5, Velocity: 48
Note OFF: Time 239940, Note Name: F5
Note ON: Time 239940, Note Name: G5, Velocity: 48
Note OFF: Time 240000, Note Name: G5
Note ON: Time 240000, Note Name: G#5, Velocity: 56
Note OFF: Time 240960, Note Name: G#5
Note ON: Time 240960, Note Name: D5, Velocity: 52
Note OFF: Time 241440, Note Name: D5
Note ON: Time 241440, Note Name: D#5, Velocity: 51
Note OFF: Time 241680, Note Name: D#5
Note ON: Time 241680, Note Name: F5, Velocity: 53
Note OFF: Time 241800, Note Name: F5
Note ON: Time 241800, Note Name: D#5, Velocity: 50
Note OFF: Time 241860, Note Name: D#5
Note ON: Time 241860, Note Name: F5, Velocity: 50
Note OFF: Time 241920, Note Name: F5
Note ON: Time 241920, Note Name: G5, Velocity: 56
Note OFF: Time 242880, Note Name: G5
Note ON: Time 242880, Note Name: C5, Velocity: 52
Note OFF: Time 243350, Note Name: C5
Note ON: Time 243360, Note Name: C5, Velocity: 53
Note OFF: Time 243600, Note Name: C5
Note ON: Time 243600, Note Name: D5, Velocity: 54
Note OFF: Time 243840, Note Name: D5
Note ON: Time 243840, Note Name: D#5, Velocity: 57
Note OFF: Time 244080, Note Name: D#5
Note ON: Time 244320, Note Name: D#5, Velocity: 53
Note OFF: Time 244560, Note Name: D#5
Note ON: Time 244560, Note Name: F5, Velocity: 55
Note OFF: Time 244800, Note Name: F5
Note ON: Time 244800, Note Name: D5, Velocity: 57
Note OFF: Time 245040, Note Name: D5
Note ON: Time 245280, Note Name: D5, Velocity: 51
Note OFF: Time 245520, Note Name: D5
Note ON: Time 245520, Note Name: D#5, Velocity: 54
Note OFF: Time 245760, Note Name: D#5
Note ON: Time 245760, Note Name: C5, Velocity: 57
Note OFF: Time 246240, Note Name: C5
Note ON: Time 247920, Note Name: B3, Velocity: 47
Note OFF: Time 248160, Note Name: B3
Note ON: Time 248160, Note Name: D4, Velocity: 49
Note OFF: Time 248400, Note Name: D4
Note ON: Time 248400, Note Name: F4, Velocity: 51
Note OFF: Time 248640, Note Name: F4
Note ON: Time 248880, Note Name: F5, Velocity: 51
Note OFF: Time 249120, Note Name: F5
Note ON: Time 249120, Note Name: D5, Velocity: 50
Note OFF: Time 249360, Note Name: D5
Note ON: Time 249360, Note Name: B4, Velocity: 48
Note OFF: Time 249600, Note Name: B4
Note ON: Time 249840, Note Name: C4, Velocity: 44
Note OFF: Time 250080, Note Name: C4
Note ON: Time 250080, Note Name: D#4, Velocity: 46
Note OFF: Time 250320, Note Name: D#4
Note ON: Time 250320, Note Name: G4, Velocity: 49
Note OFF: Time 250560, Note Name: G4
Note ON: Time 250800, Note Name: G5, Velocity: 48
Note OFF: Time 251040, Note Name: G5
Note ON: Time 251040, Note Name: D#5, Velocity: 47
Note OFF: Time 251280, Note Name: D#5
Note ON: Time 251280, Note Name: C5, Velocity: 45
Note OFF: Time 251520, Note Name: C5
Note ON: Time 251760, Note Name: E4, Velocity: 47
Note OFF: Time 252000, Note Name: E4
Note ON: Time 252000, Note Name: G4, Velocity: 49
Note OFF: Time 252240, Note Name: G4
Note ON: Time 252240, Note Name: A#4, Velocity: 51
Note OFF: Time 252480, Note Name: A#4
Note ON: Time 252720, Note Name: A#5, Velocity: 51
Note OFF: Time 252960, Note Name: A#5
Note ON: Time 252960, Note Name: G5, Velocity: 50
Note OFF: Time 253200, Note Name: G5
Note ON: Time 253200, Note Name: E5, Velocity: 48
Note OFF: Time 253440, Note Name: E5
Note ON: Time 253680, Note Name: F4, Velocity: 48
Note OFF: Time 253920, Note Name: F4
Note ON: Time 253920, Note Name: G#4, Velocity: 50
Note OFF: Time 254160, Note Name: G#4
Note ON: Time 254160, Note Name: C5, Velocity: 53
Note OFF: Time 254400, Note Name: C5
Note ON: Time 254400, Note Name: F5, Velocity: 55
Note OFF: Time 254640, Note Name: F5
Note ON: Time 254640, Note Name: G#5, Velocity: 58
Note OFF: Time 254880, Note Name: G#5
Note ON: Time 254880, Note Name: C6, Velocity: 60
Note OFF: Time 255120, Note Name: C6
Note ON: Time 255120, Note Name: F6, Velocity: 69
Note OFF: Time 255840, Note Name: F6
Note ON: Time 255840, Note Name: D#6, Velocity: 63
Note OFF: Time 256320, Note Name: D#6
Note ON: Time 256320, Note Name: D6, Velocity: 61
Note OFF: Time 256800, Note Name: D6
Note ON: Time 256800, Note Name: C6, Velocity: 60
Note OFF: Time 257280, Note Name: C6
Note ON: Time 257280, Note Name: B5, Velocity: 60
Note OFF: Time 257520, Note Name: B5
Note ON: Time 257760, Note Name: G5, Velocity: 60
Note OFF: Time 258720, Note Name: G5
Note ON: Time 258720, Note Name: G5, Velocity: 56
Note OFF: Time 259440, Note Name: G5
Note ON: Time 259440, Note Name: A5, Velocity: 54
Note OFF: Time 259680, Note Name: A5
Note ON: Time 259680, Note Name: B5, Velocity: 55
Note OFF: Time 259920, Note Name: B5
Note ON: Time 259920, Note Name: C6, Velocity: 57
Note OFF: Time 260160, Note Name: C6
Note ON: Time 260160, Note Name: D6, Velocity: 58
Note OFF: Time 260400, Note Name: D6
Note ON: Time 260400, Note Name: E6, Velocity: 60
Note OFF: Time 260640, Note Name: E6
Note ON: Time 260640, Note Name: F6, Velocity: 61
Note OFF: Time 260880, Note Name: F6
Note ON: Time 260880, Note Name: D6, Velocity: 58
Note OFF: Time 261120, Note Name: D6
Note ON: Time 261120, Note Name: F6, Velocity: 61
Note OFF: Time 261360, Note Name: F6
Note ON: Time 261360, Note Name: E6, Velocity: 60
Note OFF: Time 261600, Note Name: E6
Note ON: Time 261600, Note Name: D6, Velocity: 59
Note OFF: Time 261840, Note Name: D6
Note ON: Time 261840, Note Name: C6, Velocity: 58
Note OFF: Time 262060, Note Name: C6
Note ON: Time 262080, Note Name: C6, Velocity: 60
Note OFF: Time 262320, Note Name: C6
Note ON: Time 262320, Note Name: B5, Velocity: 58
Note OFF: Time 262560, Note Name: B5
Note ON: Time 262560, Note Name: A5, Velocity: 58
Note OFF: Time 262800, Note Name: A5
Note ON: Time 262800, Note Name: B5, Velocity: 58
Note OFF: Time 263040, Note Name: B5
Note ON: Time 263040, Note Name: D6, Velocity: 63
Note OFF: Time 263280, Note Name: D6
Note ON: Time 263280, Note Name: C6, Velocity: 57
Note OFF: Time 263520, Note Name: C6
Note ON: Time 263520, Note Name: B5, Velocity: 57
Note OFF: Time 263760, Note Name: B5
Note ON: Time 263760, Note Name: A5, Velocity: 57
Note OFF: Time 264000, Note Name: A5
Note ON: Time 264000, Note Name: F5, Velocity: 48
Note ON: Time 264000, Note Name: G5, Velocity: 60
Note OFF: Time 264432, Note Name: G5
Note OFF: Time 264432, Note Name: F5
Note ON: Time 264480, Note Name: F5, Velocity: 48
Note ON: Time 264480, Note Name: G5, Velocity: 60
Note OFF: Time 264912, Note Name: G5
Note OFF: Time 264912, Note Name: F5
Note ON: Time 264960, Note Name: F5, Velocity: 60
Note ON: Time 264960, Note Name: G5, Velocity: 60
Note OFF: Time 265200, Note Name: F5
Note ON: Time 265200, Note Name: E5, Velocity: 53
Note OFF: Time 265440, Note Name: E5
Note ON: Time 265440, Note Name: D5, Velocity: 53
Note OFF: Time 265680, Note Name: D5
Note ON: Time 265680, Note Name: C5, Velocity: 53
Note OFF: Time 265900, Note Name: C5
Note ON: Time 265920, Note Name: C5, Velocity: 57
Note OFF: Time 266160, Note Name: C5
Note ON: Time 266160, Note Name: B4, Velocity: 52
Note OFF: Time 266400, Note Name: B4
Note ON: Time 266400, Note Name: A4, Velocity: 52
Note OFF: Time 266640, Note Name: A4
Note ON: Time 266640, Note Name: B4, Velocity: 52
Note OFF: Time 266880, Note Name: B4
Note ON: Time 266880, Note Name: C5, Velocity: 52
Note OFF: Time 267120, Note Name: G5
Note ON: Time 267120, Note Name: A5, Velocity: 54
Note OFF: Time 267360, Note Name: A5
Note OFF: Time 267360, Note Name: C5
Note ON: Time 267360, Note Name: B5, Velocity: 55
Note OFF: Time 267600, Note Name: B5
Note ON: Time 267600, Note Name: C6, Velocity: 57
Note OFF: Time 267840, Note Name: C6
Note ON: Time 267840, Note Name: D6, Velocity: 58
Note OFF: Time 268080, Note Name: D6
Note ON: Time 268080, Note Name: E6, Velocity: 60
Note OFF: Time 268320, Note Name: E6
Note ON: Time 268320, Note Name: F6, Velocity: 61
Note OFF: Time 268560, Note Name: F6
Note ON: Time 268560, Note Name: D6, Velocity: 58
Note OFF: Time 268800, Note Name: D6
Note ON: Time 268800, Note Name: F6, Velocity: 61
Note OFF: Time 269040, Note Name: F6
Note ON: Time 269040, Note Name: E6, Velocity: 60
Note OFF: Time 269280, Note Name: E6
Note ON: Time 269280, Note Name: D6, Velocity: 59
Note OFF: Time 269520, Note Name: D6
Note ON: Time 269520, Note Name: C6, Velocity: 58
Note OFF: Time 269760, Note Name: C6
Note ON: Time 269760, Note Name: B5, Velocity: 60
Note OFF: Time 270000, Note Name: B5
Note ON: Time 270000, Note Name: C6, Velocity: 58
Note OFF: Time 270240, Note Name: C6
Note ON: Time 270240, Note Name: E6, Velocity: 59
Note OFF: Time 270480, Note Name: E6
Note ON: Time 270480, Note Name: C6, Velocity: 59
Note OFF: Time 270720, Note Name: C6
Note ON: Time 270720, Note Name: B5, Velocity: 66
Note OFF: Time 270960, Note Name: B5
Note ON: Time 270960, Note Name: A5, Velocity: 57
Note OFF: Time 271200, Note Name: A5
Note ON: Time 271200, Note Name: C6, Velocity: 58
Note OFF: Time 271440, Note Name: C6
Note ON: Time 271440, Note Name: A5, Velocity: 59
Note OFF: Time 271680, Note Name: A5
Note ON: Time 271680, Note Name: G5, Velocity: 69
Note OFF: Time 271920, Note Name: G5
Note ON: Time 271920, Note Name: F5, Velocity: 63
Note OFF: Time 272160, Note Name: F5
Note ON: Time 272160, Note Name: A5, Velocity: 63
Note OFF: Time 272400, Note Name: A5
Note ON: Time 272400, Note Name: F5, Velocity: 64
Note OFF: Time 272640, Note Name: F5
Note ON: Time 272640, Note Name: E5, Velocity: 72
Note OFF: Time 272880, Note Name: E5
Note ON: Time 272880, Note Name: D5, Velocity: 62
Note OFF: Time 273120, Note Name: D5
Note ON: Time 273120, Note Name: F5, Velocity: 64
Note OFF: Time 273360, Note Name: F5
Note ON: Time 273360, Note Name: D5, Velocity: 64
Note OFF: Time 273600, Note Name: D5
Note ON: Time 273600, Note Name: A5, Velocity: 75
Note OFF: Time 273840, Note Name: A5
Note ON: Time 273840, Note Name: F5, Velocity: 67
Note OFF: Time 274080, Note Name: F5
Note ON: Time 274080, Note Name: D5, Velocity: 67
Note OFF: Time 274320, Note Name: D5
Note ON: Time 274320, Note Name: C5, Velocity: 67
Note OFF: Time 274560, Note Name: C5
Note ON: Time 274560, Note Name: B4, Velocity: 59
Note ON: Time 274720, Note Name: G4, Velocity: 55
Note OFF: Time 274730, Note Name: B4
Note ON: Time 274880, Note Name: A4, Velocity: 55
Note OFF: Time 274890, Note Name: G4
Note ON: Time 275040, Note Name: B4, Velocity: 59
Note OFF: Time 275050, Note Name: A4
Note ON: Time 275200, Note Name: A4, Velocity: 55
Note OFF: Time 275210, Note Name: B4
Note ON: Time 275360, Note Name: G4, Velocity: 55
Note OFF: Time 275370, Note Name: A4
Note ON: Time 275520, Note Name: C5, Velocity: 59
Note OFF: Time 275530, Note Name: G4
Note OFF: Time 276480, Note Name: C5
Note ON: Time 276480, Note Name: B4, Velocity: 59
Note ON: Time 276640, Note Name: G4, Velocity: 55
Note OFF: Time 276650, Note Name: B4
Note ON: Time 276800, Note Name: A4, Velocity: 55
Note OFF: Time 276810, Note Name: G4
Note ON: Time 276960, Note Name: B4, Velocity: 59
Note OFF: Time 276970, Note Name: A4
Note ON: Time 277120, Note Name: A4, Velocity: 55
Note OFF: Time 277130, Note Name: B4
Note ON: Time 277280, Note Name: G4, Velocity: 55
Note OFF: Time 277290, Note Name: A4
Note ON: Time 277440, Note Name: C5, Velocity: 59
Note OFF: Time 277450, Note Name: G4
Note OFF: Time 278400, Note Name: C5
Note ON: Time 278400, Note Name: B4, Velocity: 59
Note OFF: Time 278560, Note Name: B4
Note ON: Time 278560, Note Name: G4, Velocity: 59
Note OFF: Time 278720, Note Name: G4
Note ON: Time 278720, Note Name: A4, Velocity: 59
Note OFF: Time 278880, Note Name: A4
Note ON: Time 278880, Note Name: B4, Velocity: 64
Note OFF: Time 279040, Note Name: B4
Note ON: Time 279040, Note Name: A4, Velocity: 57
Note OFF: Time 279200, Note Name: A4
Note ON: Time 279200, Note Name: G4, Velocity: 58
Note OFF: Time 279360, Note Name: G4
Note ON: Time 279360, Note Name: D5, Velocity: 67
Note OFF: Time 279520, Note Name: D5
Note ON: Time 279520, Note Name: B4, Velocity: 59
Note OFF: Time 279680, Note Name: B4
Note ON: Time 279680, Note Name: C5, Velocity: 59
Note OFF: Time 279840, Note Name: C5
Note ON: Time 279840, Note Name: D5, Velocity: 62
Note OFF: Time 280000, Note Name: D5
Note ON: Time 280000, Note Name: C5, Velocity: 65
Note OFF: Time 280160, Note Name: C5
Note ON: Time 280160, Note Name: B4, Velocity: 67
Note OFF: Time 280320, Note Name: B4
Note ON: Time 280320, Note Name: F5, Velocity: 69
Note ON: Time 280480, Note Name: E5, Velocity: 68
Note OFF: Time 280490, Note Name: F5
Note ON: Time 280640, Note Name: D5, Velocity: 67
Note OFF: Time 280650, Note Name: E5
Note ON: Time 280800, Note Name: C5, Velocity: 66
Note OFF: Time 280810, Note Name: D5
Note ON: Time 280960, Note Name: B4, Velocity: 65
Note OFF: Time 280970, Note Name: C5
Note ON: Time 281120, Note Name: A4, Velocity: 63
Note OFF: Time 281130, Note Name: B4
Note ON: Time 281280, Note Name: G4, Velocity: 59
Note OFF: Time 281290, Note Name: A4
Note ON: Time 281440, Note Name: A4, Velocity: 55
Note OFF: Time 281450, Note Name: G4
Note ON: Time 281600, Note Name: G4, Velocity: 55
Note OFF: Time 281610, Note Name: A4
Note ON: Time 281760, Note Name: F4, Velocity: 59
Note OFF: Time 281770, Note Name: G4
Note ON: Time 281920, Note Name: E4, Velocity: 56
Note OFF: Time 281930, Note Name: F4
Note ON: Time 282080, Note Name: D4, Velocity: 56
Note OFF: Time 282090, Note Name: E4
Note ON: Time 282240, Note Name: E4, Velocity: 59
Note OFF: Time 282250, Note Name: D4
Note ON: Time 282400, Note Name: C4, Velocity: 55
Note OFF: Time 282410, Note Name: E4
Note ON: Time 282560, Note Name: D4, Velocity: 55
Note OFF: Time 282570, Note Name: C4
Note ON: Time 282720, Note Name: E4, Velocity: 59
Note OFF: Time 282730, Note Name: D4
Note ON: Time 282880, Note Name: D4, Velocity: 55
Note OFF: Time 282890, Note Name: E4
Note ON: Time 283040, Note Name: C4, Velocity: 55
Note OFF: Time 283050, Note Name: D4
Note ON: Time 283200, Note Name: F4, Velocity: 59
Note OFF: Time 283210, Note Name: C4
Note OFF: Time 284160, Note Name: F4
Note ON: Time 284160, Note Name: E4, Velocity: 59
Note ON: Time 284320, Note Name: C5, Velocity: 55
Note OFF: Time 284330, Note Name: E4
Note ON: Time 284480, Note Name: D5, Velocity: 55
Note OFF: Time 284490, Note Name: C5
Note ON: Time 284640, Note Name: E5, Velocity: 59
Note OFF: Time 284650, Note Name: D5
Note ON: Time 284800, Note Name: D5, Velocity: 55
Note OFF: Time 284810, Note Name: E5
Note ON: Time 284960, Note Name: C5, Velocity: 55
Note OFF: Time 284970, Note Name: D5
Note ON: Time 285120, Note Name: F5, Velocity: 59
Note OFF: Time 285130, Note Name: C5
Note OFF: Time 286080, Note Name: F5
Note ON: Time 286080, Note Name: E5, Velocity: 59
Note OFF: Time 286240, Note Name: E5
Note ON: Time 286240, Note Name: C5, Velocity: 59
Note OFF: Time 286400, Note Name: C5
Note ON: Time 286400, Note Name: D5, Velocity: 59
Note OFF: Time 286560, Note Name: D5
Note ON: Time 286560, Note Name: E5, Velocity: 64
Note OFF: Time 286720, Note Name: E5
Note ON: Time 286720, Note Name: D5, Velocity: 57
Note OFF: Time 286880, Note Name: D5
Note ON: Time 286880, Note Name: C5, Velocity: 58
Note OFF: Time 287040, Note Name: C5
Note ON: Time 287040, Note Name: G5, Velocity: 67
Note OFF: Time 287200, Note Name: G5
Note ON: Time 287200, Note Name: E5, Velocity: 59
Note OFF: Time 287360, Note Name: E5
Note ON: Time 287360, Note Name: F5, Velocity: 59
Note OFF: Time 287520, Note Name: F5
Note ON: Time 287520, Note Name: G5, Velocity: 62
Note OFF: Time 287680, Note Name: G5
Note ON: Time 287680, Note Name: F5, Velocity: 65
Note OFF: Time 287840, Note Name: F5
Note ON: Time 287840, Note Name: E5, Velocity: 67
Note OFF: Time 288000, Note Name: E5
Note ON: Time 288000, Note Name: A#5, Velocity: 69
Note ON: Time 288160, Note Name: A5, Velocity: 68
Note OFF: Time 288170, Note Name: A#5
Note ON: Time 288320, Note Name: G5, Velocity: 67
Note OFF: Time 288330, Note Name: A5
Note ON: Time 288480, Note Name: F5, Velocity: 66
Note OFF: Time 288490, Note Name: G5
Note ON: Time 288640, Note Name: E5, Velocity: 65
Note OFF: Time 288650, Note Name: F5
Note ON: Time 288800, Note Name: D5, Velocity: 63
Note OFF: Time 288810, Note Name: E5
Note ON: Time 288960, Note Name: C5, Velocity: 59
Note OFF: Time 288970, Note Name: D5
Note ON: Time 289120, Note Name: B4, Velocity: 55
Note OFF: Time 289130, Note Name: C5
Note ON: Time 289280, Note Name: C5, Velocity: 55
Note OFF: Time 289290, Note Name: B4
Note ON: Time 289440, Note Name: C#5, Velocity: 59
Note OFF: Time 289450, Note Name: C5
Note ON: Time 289600, Note Name: D5, Velocity: 56
Note OFF: Time 289610, Note Name: C#5
Note ON: Time 289760, Note Name: A#4, Velocity: 56
Note OFF: Time 289770, Note Name: D5
Note OFF: Time 289930, Note Name: A#4
Note ON: Time 290400, Note Name: A3, Velocity: 57
Note OFF: Time 290560, Note Name: A3
Note ON: Time 290560, Note Name: C4, Velocity: 59
Note OFF: Time 290720, Note Name: C4
Note ON: Time 290720, Note Name: F4, Velocity: 62
Note OFF: Time 290880, Note Name: F4
Note ON: Time 290880, Note Name: A4, Velocity: 64
Note OFF: Time 291040, Note Name: A4
Note ON: Time 291040, Note Name: C5, Velocity: 66
Note OFF: Time 291200, Note Name: C5
Note ON: Time 291200, Note Name: F5, Velocity: 68
Note OFF: Time 291360, Note Name: F5
Note ON: Time 291360, Note Name: A5, Velocity: 70
Note OFF: Time 291480, Note Name: A5
Note ON: Time 291600, Note Name: A5, Velocity: 70
Note OFF: Time 291720, Note Name: A5
Note ON: Time 291840, Note Name: A5, Velocity: 70
Note OFF: Time 292080, Note Name: A5
Note ON: Time 292080, Note Name: G5, Velocity: 68
Note OFF: Time 292320, Note Name: G5
Note ON: Time 292320, Note Name: F5, Velocity: 66
Note OFF: Time 292440, Note Name: F5
Note ON: Time 292560, Note Name: E5, Velocity: 64
Note OFF: Time 292680, Note Name: E5
Note ON: Time 292800, Note Name: E5, Velocity: 65
Note OFF: Time 293040, Note Name: E5
Note ON: Time 293040, Note Name: D5, Velocity: 63
Note OFF: Time 293280, Note Name: D5
Note ON: Time 293280, Note Name: C5, Velocity: 61
Note OFF: Time 293400, Note Name: C5
Note ON: Time 293520, Note Name: B4, Velocity: 59
Note OFF: Time 293640, Note Name: B4
Note ON: Time 293760, Note Name: C5, Velocity: 63
Note OFF: Time 294240, Note Name: C5
Note ON: Time 295200, Note Name: G4, Velocity: 45
Note OFF: Time 295670, Note Name: G4
Note ON: Time 295680, Note Name: B4, Velocity: 37
Note ON: Time 295680, Note Name: D5, Velocity: 45
Note OFF: Time 295920, Note Name: D5
Note OFF: Time 295920, Note Name: B4
Note ON: Time 296160, Note Name: B4, Velocity: 38
Note ON: Time 296160, Note Name: D5, Velocity: 45
Note OFF: Time 296400, Note Name: D5
Note OFF: Time 296400, Note Name: B4
Note ON: Time 296640, Note Name: B4, Velocity: 38
Note ON: Time 296640, Note Name: D5, Velocity: 45
Note OFF: Time 296880, Note Name: D5
Note OFF: Time 296880, Note Name: B4
Note ON: Time 297120, Note Name: B4, Velocity: 39
Note ON: Time 297120, Note Name: D5, Velocity: 46
Note OFF: Time 297360, Note Name: D5
Note OFF: Time 297360, Note Name: B4
Note ON: Time 297600, Note Name: C5, Velocity: 40
Note ON: Time 297600, Note Name: G5, Velocity: 47
Note OFF: Time 299040, Note Name: G5
Note OFF: Time 299040, Note Name: C5
Note ON: Time 299040, Note Name: C5, Velocity: 46
Note ON: Time 299040, Note Name: G5, Velocity: 46
Note OFF: Time 299520, Note Name: G5
Note OFF: Time 299520, Note Name: C5
Note ON: Time 299520, Note Name: D#5, Velocity: 40
Note ON: Time 299520, Note Name: C5, Velocity: 40
Note ON: Time 299520, Note Name: F#5, Velocity: 48
Note OFF: Time 300461, Note Name: F#5
Note OFF: Time 300461, Note Name: C5
Note OFF: Time 300461, Note Name: D#5
Note ON: Time 300480, Note Name: D5, Velocity: 37
Note ON: Time 300480, Note Name: C5, Velocity: 37
Note ON: Time 300480, Note Name: F#5, Velocity: 45
Note OFF: Time 301421, Note Name: F#5
Note OFF: Time 301421, Note Name: C5
Note OFF: Time 301421, Note Name: D5
Note ON: Time 301440, Note Name: B4, Velocity: 39
Note ON: Time 301440, Note Name: D5, Velocity: 39
Note ON: Time 301440, Note Name: G5, Velocity: 46
Note OFF: Time 301920, Note Name: G5
Note OFF: Time 301920, Note Name: D5
Note OFF: Time 301920, Note Name: B4
Note ON: Time 302880, Note Name: G3, Velocity: 45
Note OFF: Time 303354, Note Name: G3
Note ON: Time 303360, Note Name: B3, Velocity: 37
Note ON: Time 303360, Note Name: D4, Velocity: 45
Note OFF: Time 303600, Note Name: D4
Note OFF: Time 303600, Note Name: B3
Note ON: Time 303840, Note Name: B3, Velocity: 38
Note ON: Time 303840, Note Name: D4, Velocity: 45
Note OFF: Time 304080, Note Name: D4
Note OFF: Time 304080, Note Name: B3
Note ON: Time 304320, Note Name: B3, Velocity: 38
Note ON: Time 304320, Note Name: D4, Velocity: 45
Note OFF: Time 304560, Note Name: D4
Note OFF: Time 304560, Note Name: B3
Note ON: Time 304800, Note Name: B3, Velocity: 39
Note ON: Time 304800, Note Name: D4, Velocity: 46
Note OFF: Time 305040, Note Name: D4
Note OFF: Time 305040, Note Name: B3
Note ON: Time 305280, Note Name: G4, Velocity: 47
Note ON: Time 305760, Note Name: B3, Velocity: 40
Note OFF: Time 306240, Note Name: B3
Note ON: Time 306240, Note Name: C4, Velocity: 40
Note OFF: Time 306720, Note Name: G4
Note ON: Time 306720, Note Name: G4, Velocity: 45
Note OFF: Time 307200, Note Name: G4
Note ON: Time 307200, Note Name: F4, Velocity: 50
Note OFF: Time 307440, Note Name: F4
Note OFF: Time 307440, Note Name: C4
Note ON: Time 307680, Note Name: C4, Velocity: 49
Note ON: Time 307680, Note Name: F4, Velocity: 49
Note OFF: Time 307920, Note Name: F4
Note OFF: Time 307920, Note Name: C4
Note ON: Time 308160, Note Name: D4, Velocity: 49
Note ON: Time 308160, Note Name: F4, Velocity: 49
Note OFF: Time 308400, Note Name: F4
Note OFF: Time 308400, Note Name: D4
Note ON: Time 308640, Note Name: D4, Velocity: 49
Note ON: Time 308640, Note Name: F4, Velocity: 49
Note OFF: Time 308880, Note Name: F4
Note ON: Time 309120, Note Name: A#4, Velocity: 54
Note OFF: Time 309600, Note Name: D4
Note ON: Time 309600, Note Name: D4, Velocity: 51
Note OFF: Time 310080, Note Name: D4
Note ON: Time 310080, Note Name: D#4, Velocity: 51
Note OFF: Time 310560, Note Name: A#4
Note ON: Time 310560, Note Name: A#4, Velocity: 53
Note OFF: Time 311040, Note Name: A#4
Note ON: Time 311040, Note Name: A4, Velocity: 59
Note OFF: Time 311280, Note Name: A4
Note OFF: Time 311520, Note Name: D#4
Note ON: Time 311520, Note Name: F#4, Velocity: 56
Note ON: Time 311520, Note Name: A4, Velocity: 56
Note OFF: Time 311760, Note Name: A4
Note OFF: Time 311760, Note Name: F#4
Note ON: Time 312000, Note Name: F#4, Velocity: 56
Note ON: Time 312000, Note Name: A4, Velocity: 56
Note OFF: Time 312240, Note Name: A4
Note OFF: Time 312240, Note Name: F#4
Note ON: Time 312480, Note Name: F#4, Velocity: 55
Note ON: Time 312480, Note Name: A4, Velocity: 55
Note OFF: Time 312720, Note Name: A4
Note ON: Time 312960, Note Name: D5, Velocity: 61
Note OFF: Time 313440, Note Name: F#4
Note ON: Time 313440, Note Name: F#4, Velocity: 54
Note OFF: Time 313920, Note Name: F#4
Note ON: Time 313920, Note Name: G4, Velocity: 54
Note OFF: Time 314400, Note Name: G4
Note OFF: Time 314400, Note Name: D5
Note ON: Time 314400, Note Name: F#4, Velocity: 62
Note ON: Time 314400, Note Name: A4, Velocity: 62
Note OFF: Time 314880, Note Name: A4
Note ON: Time 314880, Note Name: D5, Velocity: 63
Note OFF: Time 315360, Note Name: F#4
Note ON: Time 315360, Note Name: F#4, Velocity: 55
Note OFF: Time 315840, Note Name: F#4
Note ON: Time 315840, Note Name: G4, Velocity: 50
Note OFF: Time 316320, Note Name: G4
Note OFF: Time 316320, Note Name: D5
Note ON: Time 316320, Note Name: B4, Velocity: 54
Note ON: Time 316320, Note Name: D5, Velocity: 54
Note OFF: Time 316800, Note Name: D5
Note ON: Time 316800, Note Name: G5, Velocity: 58
Note OFF: Time 317280, Note Name: B4
Note ON: Time 317280, Note Name: B4, Velocity: 52
Note OFF: Time 317760, Note Name: B4
Note ON: Time 317760, Note Name: C5, Velocity: 55
Note OFF: Time 318240, Note Name: C5
Note OFF: Time 318240, Note Name: G5
Note ON: Time 318240, Note Name: B4, Velocity: 57
Note ON: Time 318240, Note Name: D5, Velocity: 57
Note OFF: Time 318720, Note Name: D5
Note ON: Time 318720, Note Name: G5, Velocity: 63
Note OFF: Time 319200, Note Name: B4
Note ON: Time 319200, Note Name: B4, Velocity: 55
Note OFF: Time 319680, Note Name: B4
Note ON: Time 319680, Note Name: C5, Velocity: 55
Note OFF: Time 320160, Note Name: C5
Note OFF: Time 320160, Note Name: G5
Note ON: Time 320160, Note Name: B4, Velocity: 60
Note ON: Time 320160, Note Name: D5, Velocity: 60
Note OFF: Time 320640, Note Name: D5
Note ON: Time 320640, Note Name: G#5, Velocity: 69
Note OFF: Time 321120, Note Name: B4
Note ON: Time 321120, Note Name: A#4, Velocity: 49
Note OFF: Time 321600, Note Name: A#4
Note ON: Time 321600, Note Name: B4, Velocity: 49
Note OFF: Time 322080, Note Name: B4
Note OFF: Time 322080, Note Name: G#5
Note ON: Time 322080, Note Name: D5, Velocity: 56
Note OFF: Time 322560, Note Name: D5
Note ON: Time 322560, Note Name: G5, Velocity: 65
Note ON: Time 323040, Note Name: A#4, Velocity: 47
Note OFF: Time 323520, Note Name: A#4
Note ON: Time 323520, Note Name: B4, Velocity: 48
Note OFF: Time 324000, Note Name: B4
Note OFF: Time 324000, Note Name: G5
Note ON: Time 324000, Note Name: D5, Velocity: 54
Note OFF: Time 324480, Note Name: D5
Note ON: Time 324480, Note Name: F#5, Velocity: 60
Note ON: Time 324960, Note Name: A#4, Velocity: 38
Note OFF: Time 325440, Note Name: A#4
Note ON: Time 325440, Note Name: B4, Velocity: 38
Note OFF: Time 325920, Note Name: B4
Note OFF: Time 325920, Note Name: F#5
Note ON: Time 325920, Note Name: D5, Velocity: 40
Note ON: Time 326400, Note Name: F5, Velocity: 47
Note OFF: Time 326880, Note Name: D5
Note ON: Time 326880, Note Name: A#4, Velocity: 37
Note OFF: Time 327360, Note Name: A#4
Note ON: Time 327360, Note Name: B4, Velocity: 37
Note OFF: Time 327840, Note Name: F5
Note OFF: Time 328320, Note Name: B4
Note ON: Time 328320, Note Name: G4, Velocity: 44
Note ON: Time 328320, Note Name: C5, Velocity: 44
Note ON: Time 328320, Note Name: D#5, Velocity: 52
Note OFF: Time 329040, Note Name: D#5
Note OFF: Time 329040, Note Name: C5
Note OFF: Time 329040, Note Name: G4
Note ON: Time 329040, Note Name: F5, Velocity: 50
Note OFF: Time 329280, Note Name: F5
Note ON: Time 329280, Note Name: D5, Velocity: 53
Note OFF: Time 330000, Note Name: D5
Note ON: Time 330000, Note Name: D#5, Velocity: 50
Note OFF: Time 330240, Note Name: D#5
Note ON: Time 330240, Note Name: C5, Velocity: 52
Note OFF: Time 331140, Note Name: C5
Note ON: Time 331140, Note Name: D5, Velocity: 48
Note OFF: Time 331200, Note Name: D5
Note ON: Time 331200, Note Name: C5, Velocity: 52
Note OFF: Time 331440, Note Name: C5
Note ON: Time 331440, Note Name: B4, Velocity: 51
Note OFF: Time 331680, Note Name: B4
Note ON: Time 331680, Note Name: C5, Velocity: 51
Note OFF: Time 331920, Note Name: C5
Note ON: Time 331920, Note Name: D5, Velocity: 50
Note OFF: Time 332100, Note Name: D5
Note ON: Time 332100, Note Name: F5, Velocity: 49
Note OFF: Time 332160, Note Name: F5
Note ON: Time 332160, Note Name: D#5, Velocity: 56
Note OFF: Time 332400, Note Name: D#5
Note ON: Time 332400, Note Name: D5, Velocity: 52
Note OFF: Time 332640, Note Name: D5
Note ON: Time 332640, Note Name: D#5, Velocity: 52
Note OFF: Time 332880, Note Name: D#5
Note ON: Time 332880, Note Name: F5, Velocity: 52
Note OFF: Time 333120, Note Name: F5
Note ON: Time 333120, Note Name: G5, Velocity: 56
Note OFF: Time 333360, Note Name: G5
Note ON: Time 333600, Note Name: G5, Velocity: 55
Note OFF: Time 333840, Note Name: G5
Note ON: Time 334080, Note Name: G5, Velocity: 57
Note OFF: Time 335520, Note Name: G5
Note ON: Time 335520, Note Name: F5, Velocity: 51
Note OFF: Time 335760, Note Name: F5
Note ON: Time 335760, Note Name: G5, Velocity: 53
Note OFF: Time 335880, Note Name: G5
Note ON: Time 335880, Note Name: F5, Velocity: 48
Note OFF: Time 335940, Note Name: F5
Note ON: Time 335940, Note Name: G5, Velocity: 48
Note OFF: Time 336000, Note Name: G5
Note ON: Time 336000, Note Name: G#5, Velocity: 56
Note OFF: Time 336960, Note Name: G#5
Note ON: Time 336960, Note Name: D5, Velocity: 52
Note OFF: Time 337440, Note Name: D5
Note ON: Time 337440, Note Name: D#5, Velocity: 51
Note OFF: Time 337680, Note Name: D#5
Note ON: Time 337680, Note Name: F5, Velocity: 53
Note OFF: Time 337800, Note Name: F5
Note ON: Time 337800, Note Name: D#5, Velocity: 50
Note OFF: Time 337860, Note Name: D#5
Note ON: Time 337860, Note Name: F5, Velocity: 50
Note OFF: Time 337920, Note Name: F5
Note ON: Time 337920, Note Name: G5, Velocity: 56
Note OFF: Time 338880, Note Name: G5
Note ON: Time 338880, Note Name: C5, Velocity: 52
Note OFF: Time 339350, Note Name: C5
Note ON: Time 339360, Note Name: C5, Velocity: 53
Note OFF: Time 339600, Note Name: C5
Note ON: Time 339600, Note Name: D5, Velocity: 54
Note OFF: Time 339840, Note Name: D5
Note ON: Time 339840, Note Name: D#5, Velocity: 57
Note OFF: Time 340080, Note Name: D#5
Note ON: Time 340320, Note Name: D#5, Velocity: 53
Note OFF: Time 340560, Note Name: D#5
Note ON: Time 340560, Note Name: F5, Velocity: 55
Note OFF: Time 340800, Note Name: F5
Note ON: Time 340800, Note Name: D5, Velocity: 57
Note OFF: Time 341040, Note Name: D5
Note ON: Time 341280, Note Name: D5, Velocity: 51
Note OFF: Time 341520, Note Name: D5
Note ON: Time 341520, Note Name: D#5, Velocity: 54
Note OFF: Time 341760, Note Name: D#5
Note ON: Time 341760, Note Name: C5, Velocity: 57
Note OFF: Time 342000, Note Name: C5
Note ON: Time 342000, Note Name: B4, Velocity: 52
Note OFF: Time 342240, Note Name: B4
Note ON: Time 342240, Note Name: C5, Velocity: 53
Note OFF: Time 342480, Note Name: C5
Note ON: Time 342480, Note Name: D5, Velocity: 54
Note OFF: Time 342720, Note Name: D5
Note ON: Time 342720, Note Name: D#5, Velocity: 55
Note OFF: Time 342960, Note Name: D#5
Note ON: Time 342960, Note Name: E5, Velocity: 56
Note OFF: Time 343200, Note Name: E5
Note ON: Time 343200, Note Name: F5, Velocity: 58
Note OFF: Time 343440, Note Name: F5
Note ON: Time 343440, Note Name: G5, Velocity: 59
Note OFF: Time 343680, Note Name: G5
Note ON: Time 343680, Note Name: G#5, Velocity: 60
Note OFF: Time 343920, Note Name: G#5
Note ON: Time 343920, Note Name: G5, Velocity: 57
Note OFF: Time 344160, Note Name: G5
Note ON: Time 344160, Note Name: A#5, Velocity: 63
Note OFF: Time 344400, Note Name: A#5
Note ON: Time 344400, Note Name: G#5, Velocity: 62
Note OFF: Time 344640, Note Name: G#5
Note ON: Time 344640, Note Name: G5, Velocity: 62
Note OFF: Time 344880, Note Name: G5
Note ON: Time 344880, Note Name: F5, Velocity: 61
Note OFF: Time 345120, Note Name: F5
Note ON: Time 345120, Note Name: D#5, Velocity: 60
Note OFF: Time 345360, Note Name: D#5
Note ON: Time 345360, Note Name: D5, Velocity: 58
Note OFF: Time 345600, Note Name: D5
Note ON: Time 345600, Note Name: G5, Velocity: 66
Note OFF: Time 345840, Note Name: G5
Note ON: Time 345840, Note Name: F#5, Velocity: 60
Note OFF: Time 346080, Note Name: F#5
Note ON: Time 346080, Note Name: G#5, Velocity: 67
Note OFF: Time 346320, Note Name: G#5
Note ON: Time 346320, Note Name: G5, Velocity: 66
Note OFF: Time 346560, Note Name: G5
Note ON: Time 346560, Note Name: F5, Velocity: 66
Note OFF: Time 346800, Note Name: F5
Note ON: Time 346800, Note Name: D#5, Velocity: 65
Note OFF: Time 347040, Note Name: D#5
Note ON: Time 347040, Note Name: D5, Velocity: 65
Note OFF: Time 347280, Note Name: D5
Note ON: Time 347280, Note Name: C5, Velocity: 64
Note OFF: Time 347520, Note Name: C5
Note ON: Time 347520, Note Name: D#5, Velocity: 71
Note OFF: Time 347760, Note Name: D#5
Note ON: Time 347760, Note Name: D5, Velocity: 64
Note OFF: Time 348000, Note Name: D5
Note ON: Time 348000, Note Name: F5, Velocity: 70
Note OFF: Time 348240, Note Name: F5
Note ON: Time 348240, Note Name: D#5, Velocity: 62
Note OFF: Time 348480, Note Name: D#5
Note ON: Time 348480, Note Name: D5, Velocity: 69
Note OFF: Time 348720, Note Name: D5
Note ON: Time 348720, Note Name: C#5, Velocity: 66
Note OFF: Time 348960, Note Name: C#5
Note ON: Time 348960, Note Name: D#5, Velocity: 64
Note OFF: Time 349200, Note Name: D#5
Note ON: Time 349200, Note Name: D5, Velocity: 60
Note OFF: Time 349440, Note Name: D5
Note ON: Time 349440, Note Name: C5, Velocity: 66
Note OFF: Time 349920, Note Name: C5
Note ON: Time 350560, Note Name: C6, Velocity: 68
Note OFF: Time 350720, Note Name: C6
Note ON: Time 350720, Note Name: D6, Velocity: 70
Note OFF: Time 350880, Note Name: D6
Note ON: Time 350880, Note Name: E6, Velocity: 73
Note OFF: Time 351040, Note Name: E6
Note ON: Time 351040, Note Name: D6, Velocity: 70
Note OFF: Time 351200, Note Name: D6
Note ON: Time 351200, Note Name: C6, Velocity: 66
Note OFF: Time 351360, Note Name: C6
Note ON: Time 351360, Note Name: F6, Velocity: 77
Note OFF: Time 351600, Note Name: F6
Note ON: Time 352480, Note Name: C6, Velocity: 66
Note OFF: Time 352640, Note Name: C6
Note ON: Time 352640, Note Name: D6, Velocity: 69
Note OFF: Time 352800, Note Name: D6
Note ON: Time 352800, Note Name: E6, Velocity: 72
Note OFF: Time 352960, Note Name: E6
Note ON: Time 352960, Note Name: D6, Velocity: 70
Note OFF: Time 353120, Note Name: D6
Note ON: Time 353120, Note Name: C6, Velocity: 67
Note OFF: Time 353280, Note Name: C6
Note ON: Time 353280, Note Name: F6, Velocity: 77
Note OFF: Time 353520, Note Name: F6
Note ON: Time 354400, Note Name: C6, Velocity: 66
Note OFF: Time 354560, Note Name: C6
Note ON: Time 354560, Note Name: D6, Velocity: 69
Note OFF: Time 354720, Note Name: D6
Note ON: Time 354720, Note Name: E6, Velocity: 72
Note OFF: Time 354880, Note Name: E6
Note ON: Time 354880, Note Name: D6, Velocity: 70
Note OFF: Time 355040, Note Name: D6
Note ON: Time 355040, Note Name: C6, Velocity: 67
Note OFF: Time 355200, Note Name: C6
Note ON: Time 355200, Note Name: F6, Velocity: 86
Note OFF: Time 355440, Note Name: F6
Note ON: Time 355680, Note Name: C5, Velocity: 76
Note ON: Time 355680, Note Name: D#5, Velocity: 76
Note ON: Time 355680, Note Name: F#5, Velocity: 76
Note ON: Time 355680, Note Name: C6, Velocity: 90
Note OFF: Time 355920, Note Name: C6
Note OFF: Time 355920, Note Name: C5
Note OFF: Time 355920, Note Name: D#5
Note OFF: Time 355920, Note Name: F#5
Note ON: Time 356160, Note Name: C5, Velocity: 76
Note ON: Time 356160, Note Name: D#5, Velocity: 76
Note ON: Time 356160, Note Name: G5, Velocity: 76
Note ON: Time 356160, Note Name: C6, Velocity: 90
Note OFF: Time 356400, Note Name: C6
Note OFF: Time 356400, Note Name: C5
Note OFF: Time 356400, Note Name: D#5
Note OFF: Time 356400, Note Name: G5
Note ON: Time 356640, Note Name: B4, Velocity: 76
Note ON: Time 356640, Note Name: D5, Velocity: 76
Note ON: Time 356640, Note Name: G5, Velocity: 76
Note ON: Time 356640, Note Name: B5, Velocity: 90
Note OFF: Time 356880, Note Name: B5
Note OFF: Time 356880, Note Name: B4
Note OFF: Time 356880, Note Name: D5
Note OFF: Time 356880, Note Name: G5
Note ON: Time 357120, Note Name: C5, Velocity: 76
Note ON: Time 357120, Note Name: D#5, Velocity: 76
Note ON: Time 357120, Note Name: G5, Velocity: 76
Note ON: Time 357120, Note Name: C6, Velocity: 90
Note OFF: Time 357360, Note Name: C6
Note OFF: Time 357360, Note Name: C5
Note OFF: Time 357360, Note Name: D#5
Note OFF: Time 357360, Note Name: G5
Note ON: Time 358240, Note Name: C5, Velocity: 68
Note OFF: Time 358400, Note Name: C5
Note ON: Time 358400, Note Name: D5, Velocity: 70
Note OFF: Time 358560, Note Name: D5
Note ON: Time 358560, Note Name: E5, Velocity: 73
Note OFF: Time 358720, Note Name: E5
Note ON: Time 358720, Note Name: D5, Velocity: 70
Note OFF: Time 358880, Note Name: D5
Note ON: Time 358880, Note Name: C5, Velocity: 66
Note OFF: Time 359040, Note Name: C5
Note ON: Time 359040, Note Name: F5, Velocity: 77
Note OFF: Time 359280, Note Name: F5
Note ON: Time 360160, Note Name: C5, Velocity: 66
Note OFF: Time 360320, Note Name: C5
Note ON: Time 360320, Note Name: D5, Velocity: 69
Note OFF: Time 360480, Note Name: D5
Note ON: Time 360480, Note Name: E5, Velocity: 72
Note OFF: Time 360640, Note Name: E5
Note ON: Time 360640, Note Name: D5, Velocity: 70
Note OFF: Time 360800, Note Name: D5
Note ON: Time 360800, Note Name: C5, Velocity: 67
Note OFF: Time 360960, Note Name: C5
Note ON: Time 360960, Note Name: F5, Velocity: 77
Note OFF: Time 361200, Note Name: F5
Note ON: Time 362080, Note Name: C4, Velocity: 66
Note OFF: Time 362240, Note Name: C4
Note ON: Time 362240, Note Name: D4, Velocity: 69
Note OFF: Time 362400, Note Name: D4
Note ON: Time 362400, Note Name: E4, Velocity: 72
Note OFF: Time 362560, Note Name: E4
Note ON: Time 362560, Note Name: D4, Velocity: 70
Note OFF: Time 362720, Note Name: D4
Note ON: Time 362720, Note Name: C4, Velocity: 67
Note OFF: Time 362880, Note Name: C4
Note ON: Time 362880, Note Name: F4, Velocity: 63
Note OFF: Time 363040, Note Name: F4
Note ON: Time 363040, Note Name: C4, Velocity: 50
Note OFF: Time 363200, Note Name: C4
Note ON: Time 363200, Note Name: D4, Velocity: 50
Note OFF: Time 363360, Note Name: D4
Note ON: Time 363360, Note Name: D#4, Velocity: 63
Note OFF: Time 363520, Note Name: D#4
Note ON: Time 363520, Note Name: D4, Velocity: 50
Note OFF: Time 363680, Note Name: D4
Note ON: Time 363680, Note Name: C4, Velocity: 50
Note OFF: Time 363840, Note Name: C4
Note ON: Time 363840, Note Name: F#4, Velocity: 68
Note OFF: Time 364000, Note Name: F#4
Note ON: Time 364000, Note Name: C4, Velocity: 52
Note OFF: Time 364160, Note Name: C4
Note ON: Time 364160, Note Name: D4, Velocity: 53
Note OFF: Time 364320, Note Name: D4
Note ON: Time 364320, Note Name: D#4, Velocity: 60
Note OFF: Time 364480, Note Name: D#4
Note ON: Time 364480, Note Name: D4, Velocity: 50
Note OFF: Time 364640, Note Name: D4
Note ON: Time 364640, Note Name: C4, Velocity: 50
Note OFF: Time 364800, Note Name: C4
Note ON: Time 364800, Note Name: G4, Velocity: 69
Note OFF: Time 364960, Note Name: G4
Note ON: Time 364960, Note Name: C4, Velocity: 51
Note OFF: Time 365120, Note Name: C4
Note ON: Time 365120, Note Name: D4, Velocity: 52
Note OFF: Time 365280, Note Name: D4
Note ON: Time 365280, Note Name: D#4, Velocity: 58
Note OFF: Time 365440, Note Name: D#4
Note ON: Time 365440, Note Name: D4, Velocity: 51
Note OFF: Time 365600, Note Name: D4
Note ON: Time 365600, Note Name: C4, Velocity: 52
Note OFF: Time 365760, Note Name: C4
Note ON: Time 365760, Note Name: A4, Velocity: 69
Note OFF: Time 365920, Note Name: A4
Note ON: Time 365920, Note Name: C4, Velocity: 54
Note OFF: Time 366080, Note Name: C4
Note ON: Time 366080, Note Name: D4, Velocity: 55
Note OFF: Time 366240, Note Name: D4
Note ON: Time 366240, Note Name: D#4, Velocity: 62
Note OFF: Time 366400, Note Name: D#4
Note ON: Time 366400, Note Name: D4, Velocity: 55
Note OFF: Time 366560, Note Name: D4
Note ON: Time 366560, Note Name: C4, Velocity: 55
Note OFF: Time 366720, Note Name: C4
Note ON: Time 366720, Note Name: B4, Velocity: 70
Note OFF: Time 366880, Note Name: B4
Note ON: Time 366880, Note Name: B3, Velocity: 55
Note OFF: Time 367040, Note Name: B3
Note ON: Time 367040, Note Name: C4, Velocity: 55
Note OFF: Time 367200, Note Name: C4
Note ON: Time 367200, Note Name: D4, Velocity: 61
Note OFF: Time 367360, Note Name: D4
Note ON: Time 367360, Note Name: C4, Velocity: 55
Note OFF: Time 367520, Note Name: C4
Note ON: Time 367520, Note Name: B3, Velocity: 54
Note OFF: Time 367680, Note Name: B3
Note ON: Time 367680, Note Name: C5, Velocity: 72
Note OFF: Time 367840, Note Name: C5
Note ON: Time 367840, Note Name: C4, Velocity: 55
Note OFF: Time 368000, Note Name: C4
Note ON: Time 368000, Note Name: D4, Velocity: 55
Note OFF: Time 368160, Note Name: D4
Note ON: Time 368160, Note Name: D#4, Velocity: 63
Note OFF: Time 368320, Note Name: D#4
Note ON: Time 368320, Note Name: D4, Velocity: 56
Note OFF: Time 368480, Note Name: D4
Note ON: Time 368480, Note Name: C4, Velocity: 58
Note OFF: Time 368640, Note Name: C4
Note ON: Time 368640, Note Name: D5, Velocity: 74
Note OFF: Time 368800, Note Name: D5
Note ON: Time 368800, Note Name: D4, Velocity: 56
Note OFF: Time 368960, Note Name: D4
Note ON: Time 368960, Note Name: D#4, Velocity: 56
Note OFF: Time 369120, Note Name: D#4
Note ON: Time 369120, Note Name: F4, Velocity: 62
Note OFF: Time 369280, Note Name: F4
Note ON: Time 369280, Note Name: D#4, Velocity: 54
Note OFF: Time 369440, Note Name: D#4
Note ON: Time 369440, Note Name: D4, Velocity: 54
Note OFF: Time 369600, Note Name: D4
Note ON: Time 369600, Note Name: B4, Velocity: 75
Note OFF: Time 369760, Note Name: B4
Note ON: Time 369760, Note Name: B3, Velocity: 53
Note OFF: Time 369920, Note Name: B3
Note ON: Time 369920, Note Name: C4, Velocity: 53
Note OFF: Time 370080, Note Name: C4
Note ON: Time 370080, Note Name: D4, Velocity: 65
Note OFF: Time 370240, Note Name: D4
Note ON: Time 370240, Note Name: C4, Velocity: 55
Note OFF: Time 370400, Note Name: C4
Note ON: Time 370400, Note Name: B3, Velocity: 55
Note OFF: Time 370560, Note Name: B3
Note ON: Time 370560, Note Name: C4, Velocity: 67
Note ON: Time 370560, Note Name: C5, Velocity: 79
Note OFF: Time 371040, Note Name: C5
Note OFF: Time 371040, Note Name: C4
Note ON: Time 371520, Note Name: G5, Velocity: 84
Note OFF: Time 372000, Note Name: G5
Note ON: Time 372000, Note Name: F5, Velocity: 80
Note OFF: Time 372120, Note Name: F5
Note ON: Time 372120, Note Name: D#5, Velocity: 79
Note OFF: Time 372240, Note Name: D#5
Note ON: Time 372240, Note Name: D5, Velocity: 78
Note OFF: Time 372360, Note Name: D5
Note ON: Time 372360, Note Name: C5, Velocity: 77
Note OFF: Time 372480, Note Name: C5
Note ON: Time 372480, Note Name: D5, Velocity: 79
Note OFF: Time 372720, Note Name: D5
Note ON: Time 373440, Note Name: F5, Velocity: 84
Note OFF: Time 373920, Note Name: F5
Note ON: Time 373920, Note Name: D#5, Velocity: 80
Note OFF: Time 374040, Note Name: D#5
Note ON: Time 374040, Note Name: D5, Velocity: 79
Note OFF: Time 374160, Note Name: D5
Note ON: Time 374160, Note Name: C5, Velocity: 78
Note OFF: Time 374280, Note Name: C5
Note ON: Time 374280, Note Name: B4, Velocity: 77
Note OFF: Time 374400, Note Name: B4
Note ON: Time 374400, Note Name: C5, Velocity: 79
Note OFF: Time 374640, Note Name: C5
Note ON: Time 375360, Note Name: G5, Velocity: 84
Note OFF: Time 375840, Note Name: G5
Note ON: Time 375840, Note Name: F5, Velocity: 80
Note OFF: Time 375960, Note Name: F5
Note ON: Time 375960, Note Name: D#5, Velocity: 79
Note OFF: Time 376080, Note Name: D#5
Note ON: Time 376080, Note Name: D5, Velocity: 78
Note OFF: Time 376200, Note Name: D5
Note ON: Time 376200, Note Name: C5, Velocity: 77
Note OFF: Time 376320, Note Name: C5
Note ON: Time 376320, Note Name: D5, Velocity: 79
Note OFF: Time 376560, Note Name: D5
Note ON: Time 377280, Note Name: F5, Velocity: 84
Note OFF: Time 377760, Note Name: F5
Note ON: Time 377760, Note Name: D#5, Velocity: 80
Note OFF: Time 377880, Note Name: D#5
Note ON: Time 377880, Note Name: D5, Velocity: 79
Note OFF: Time 378000, Note Name: D5
Note ON: Time 378000, Note Name: C5, Velocity: 78
Note OFF: Time 378120, Note Name: C5
Note ON: Time 378120, Note Name: B4, Velocity: 77
Note OFF: Time 378240, Note Name: B4
Note ON: Time 378240, Note Name: C5, Velocity: 79
Note OFF: Time 378480, Note Name: C5
Note ON: Time 379200, Note Name: G5, Velocity: 84
Note OFF: Time 379680, Note Name: G5
Note ON: Time 379680, Note Name: F5, Velocity: 80
Note OFF: Time 379800, Note Name: F5
Note ON: Time 379800, Note Name: D#5, Velocity: 79
Note OFF: Time 379920, Note Name: D#5
Note ON: Time 379920, Note Name: D5, Velocity: 78
Note OFF: Time 380040, Note Name: D5
Note ON: Time 380040, Note Name: C5, Velocity: 77
Note OFF: Time 380160, Note Name: C5
Note ON: Time 380160, Note Name: C#5, Velocity: 79
Note OFF: Time 380400, Note Name: C#5
Note ON: Time 381120, Note Name: F6, Velocity: 100
Note OFF: Time 383520, Note Name: F6
Note ON: Time 383520, Note Name: D#6, Velocity: 86
Note OFF: Time 383680, Note Name: D#6
Note ON: Time 383680, Note Name: C#6, Velocity: 85
Note OFF: Time 383840, Note Name: C#6
Note ON: Time 383840, Note Name: C6, Velocity: 83
Note OFF: Time 384000, Note Name: C6
Note ON: Time 384000, Note Name: A#5, Velocity: 82
Note OFF: Time 384160, Note Name: A#5
Note ON: Time 384160, Note Name: G#5, Velocity: 81
Note OFF: Time 384320, Note Name: G#5
Note ON: Time 384320, Note Name: G5, Velocity: 79
Note OFF: Time 384480, Note Name: G5
Note ON: Time 384480, Note Name: F5, Velocity: 78
Note OFF: Time 384640, Note Name: F5
Note ON: Time 384640, Note Name: D#5, Velocity: 77
Note OFF: Time 384800, Note Name: D#5
Note ON: Time 384800, Note Name: C#5, Velocity: 75
Note OFF: Time 384960, Note Name: C#5
Note ON: Time 384960, Note Name: C5, Velocity: 74
Note OFF: Time 385040, Note Name: C5
Note ON: Time 385040, Note Name: A#4, Velocity: 72
Note OFF: Time 385120, Note Name: A#4
Note ON: Time 385120, Note Name: G#4, Velocity: 71
Note OFF: Time 385200, Note Name: G#4
Note ON: Time 385200, Note Name: G4, Velocity: 70
Note OFF: Time 385280, Note Name: G4
Note ON: Time 385280, Note Name: F4, Velocity: 68
Note OFF: Time 385360, Note Name: F4
Note ON: Time 385360, Note Name: D#4, Velocity: 69
Note OFF: Time 385440, Note Name: D#4
Note ON: Time 385440, Note Name: C#4, Velocity: 70
Note OFF: Time 385508, Note Name: C#4
Note ON: Time 385508, Note Name: C4, Velocity: 71
Note OFF: Time 385576, Note Name: C4
Note ON: Time 385576, Note Name: A#3, Velocity: 71
Note OFF: Time 385644, Note Name: A#3
Note ON: Time 385644, Note Name: G#3, Velocity: 71
Note OFF: Time 385712, Note Name: G#3
Note ON: Time 385712, Note Name: G3, Velocity: 71
Note OFF: Time 385780, Note Name: G3
Note ON: Time 385780, Note Name: F3, Velocity: 71
Note OFF: Time 385848, Note Name: F3
Note ON: Time 385848, Note Name: D#3, Velocity: 71
Note OFF: Time 385920, Note Name: D#3
Note ON: Time 385920, Note Name: C#3, Velocity: 93
Note OFF: Time 388800, Note Name: C#3
Note ON: Time 389280, Note Name: G#3, Velocity: 49
Note OFF: Time 389520, Note Name: G#3
Note ON: Time 389520, Note Name: A#3, Velocity: 51
Note OFF: Time 389760, Note Name: A#3
Note ON: Time 389760, Note Name: C4, Velocity: 52
Note OFF: Time 390480, Note Name: C4
Note ON: Time 390480, Note Name: C#4, Velocity: 50
Note OFF: Time 390720, Note Name: C#4
Note ON: Time 390720, Note Name: A#3, Velocity: 53
Note OFF: Time 391440, Note Name: A#3
Note ON: Time 391440, Note Name: C4, Velocity: 50
Note OFF: Time 391680, Note Name: C4
Note ON: Time 391680, Note Name: G#3, Velocity: 52
Note OFF: Time 392160, Note Name: G#3
Note ON: Time 393120, Note Name: G#4, Velocity: 46
Note OFF: Time 393360, Note Name: G#4
Note ON: Time 393360, Note Name: A#4, Velocity: 48
Note OFF: Time 393600, Note Name: A#4
Note ON: Time 393600, Note Name: C5, Velocity: 49
Note OFF: Time 394320, Note Name: C5
Note ON: Time 394320, Note Name: C#5, Velocity: 47
Note OFF: Time 394560, Note Name: C#5
Note ON: Time 394560, Note Name: A#4, Velocity: 49
Note OFF: Time 395280, Note Name: A#4
Note ON: Time 395280, Note Name: C5, Velocity: 46
Note OFF: Time 395520, Note Name: C5
Note ON: Time 395520, Note Name: G#4, Velocity: 47
Note OFF: Time 396000, Note Name: G#4
Note ON: Time 396960, Note Name: C5, Velocity: 40
Note OFF: Time 397440, Note Name: C5
Note ON: Time 397440, Note Name: F#5, Velocity: 40
Note ON: Time 397440, Note Name: D#5, Velocity: 40
Note OFF: Time 397920, Note Name: D#5
Note OFF: Time 397920, Note Name: F#5
Note ON: Time 398880, Note Name: C5, Velocity: 40
Note OFF: Time 399360, Note Name: C5
Note ON: Time 399360, Note Name: G5, Velocity: 40
Note ON: Time 399360, Note Name: D#5, Velocity: 40
Note OFF: Time 399840, Note Name: D#5
Note OFF: Time 399840, Note Name: G5
Note ON: Time 400800, Note Name: D#6, Velocity: 97
Note OFF: Time 400960, Note Name: D#6
Note ON: Time 400960, Note Name: D6, Velocity: 90
Note OFF: Time 401120, Note Name: D6
Note ON: Time 401120, Note Name: C6, Velocity: 90
Note OFF: Time 401280, Note Name: C6
Note ON: Time 401280, Note Name: F6, Velocity: 96
Note OFF: Time 401440, Note Name: F6
Note ON: Time 401440, Note Name: D#6, Velocity: 89
Note OFF: Time 401600, Note Name: D#6
Note ON: Time 401600, Note Name: D6, Velocity: 90
Note OFF: Time 401760, Note Name: D6
Note ON: Time 401760, Note Name: C6, Velocity: 97
Note OFF: Time 401920, Note Name: C6
Note ON: Time 401920, Note Name: B5, Velocity: 92
Note OFF: Time 402080, Note Name: B5
Note ON: Time 402080, Note Name: G#5, Velocity: 92
Note OFF: Time 402240, Note Name: G#5
Note ON: Time 402240, Note Name: G5, Velocity: 90
Note OFF: Time 402400, Note Name: G5
Note ON: Time 402400, Note Name: F5, Velocity: 92
Note OFF: Time 402560, Note Name: F5
Note ON: Time 402560, Note Name: D#5, Velocity: 93
Note OFF: Time 402720, Note Name: D#5
Note ON: Time 402720, Note Name: D5, Velocity: 95
Note OFF: Time 402880, Note Name: D5
Note ON: Time 402880, Note Name: C5, Velocity: 97
Note OFF: Time 403040, Note Name: C5
Note ON: Time 403040, Note Name: B4, Velocity: 99
Note OFF: Time 403200, Note Name: B4
Note ON: Time 403200, Note Name: C5, Velocity: 101
Note OFF: Time 403680, Note Name: C5
Track 2: Piano left
Note ON: Time 1920, Note Name: C3, Velocity: 40
Note OFF: Time 2160, Note Name: C3
Note ON: Time 2160, Note Name: D#3, Velocity: 36
Note OFF: Time 2400, Note Name: D#3
Note ON: Time 2400, Note Name: G3, Velocity: 36
Note OFF: Time 2640, Note Name: G3
Note ON: Time 2640, Note Name: C4, Velocity: 36
Note OFF: Time 2880, Note Name: C4
Note ON: Time 2880, Note Name: C3, Velocity: 40
Note OFF: Time 3120, Note Name: C3
Note ON: Time 3120, Note Name: F3, Velocity: 40
Note OFF: Time 3360, Note Name: F3
Note ON: Time 3360, Note Name: G3, Velocity: 36
Note OFF: Time 3600, Note Name: G3
Note ON: Time 3600, Note Name: B3, Velocity: 36
Note OFF: Time 3840, Note Name: B3
Note ON: Time 3840, Note Name: C3, Velocity: 40
Note OFF: Time 4080, Note Name: C3
Note ON: Time 4080, Note Name: D#3, Velocity: 40
Note OFF: Time 4320, Note Name: D#3
Note ON: Time 4320, Note Name: G3, Velocity: 36
Note OFF: Time 4560, Note Name: G3
Note ON: Time 4560, Note Name: C4, Velocity: 36
Note OFF: Time 4800, Note Name: C4
Note ON: Time 4800, Note Name: D#4, Velocity: 40
Note OFF: Time 5040, Note Name: D#4
Note ON: Time 5040, Note Name: G4, Velocity: 36
Note OFF: Time 5280, Note Name: G4
Note ON: Time 5280, Note Name: D#4, Velocity: 36
Note OFF: Time 5520, Note Name: D#4
Note ON: Time 5520, Note Name: D4, Velocity: 36
Note OFF: Time 5760, Note Name: D4
Note ON: Time 5760, Note Name: C4, Velocity: 40
Note OFF: Time 6000, Note Name: C4
Note ON: Time 6000, Note Name: G4, Velocity: 36
Note OFF: Time 6240, Note Name: G4
Note ON: Time 6240, Note Name: C4, Velocity: 36
Note ON: Time 6240, Note Name: D#4, Velocity: 36
Note OFF: Time 6480, Note Name: D#4
Note OFF: Time 6480, Note Name: C4
Note ON: Time 6480, Note Name: G4, Velocity: 36
Note OFF: Time 6720, Note Name: G4
Note ON: Time 6720, Note Name: B3, Velocity: 41
Note ON: Time 6720, Note Name: D4, Velocity: 41
Note OFF: Time 6960, Note Name: D4
Note OFF: Time 6960, Note Name: B3
Note ON: Time 6960, Note Name: G4, Velocity: 36
Note OFF: Time 7200, Note Name: G4
Note ON: Time 7200, Note Name: C4, Velocity: 36
Note ON: Time 7200, Note Name: G#3, Velocity: 36
Note OFF: Time 7440, Note Name: G#3
Note OFF: Time 7440, Note Name: C4
Note ON: Time 7440, Note Name: G4, Velocity: 36
Note OFF: Time 7680, Note Name: G4
Note ON: Time 7680, Note Name: G3, Velocity: 40
Note OFF: Time 7920, Note Name: G3
Note ON: Time 7920, Note Name: B3, Velocity: 29
Note OFF: Time 8160, Note Name: B3
Note ON: Time 8160, Note Name: D4, Velocity: 28
Note OFF: Time 8400, Note Name: D4
Note ON: Time 8400, Note Name: G4, Velocity: 28
Note OFF: Time 8640, Note Name: G4
Note ON: Time 8640, Note Name: G3, Velocity: 40
Note OFF: Time 8880, Note Name: G3
Note ON: Time 8880, Note Name: B3, Velocity: 31
Note OFF: Time 9120, Note Name: B3
Note ON: Time 9120, Note Name: D4, Velocity: 31
Note OFF: Time 9360, Note Name: D4
Note ON: Time 9360, Note Name: G4, Velocity: 31
Note OFF: Time 9600, Note Name: G4
Note ON: Time 9600, Note Name: F3, Velocity: 40
Note OFF: Time 9840, Note Name: F3
Note ON: Time 9840, Note Name: G#3, Velocity: 36
Note OFF: Time 10080, Note Name: G#3
Note ON: Time 10080, Note Name: B3, Velocity: 37
Note OFF: Time 10320, Note Name: B3
Note ON: Time 10320, Note Name: D4, Velocity: 37
Note OFF: Time 10560, Note Name: D4
Note ON: Time 10560, Note Name: F3, Velocity: 40
Note OFF: Time 10800, Note Name: F3
Note ON: Time 10800, Note Name: G#3, Velocity: 36
Note OFF: Time 11040, Note Name: G#3
Note ON: Time 11040, Note Name: B3, Velocity: 36
Note OFF: Time 11280, Note Name: B3
Note ON: Time 11280, Note Name: D4, Velocity: 36
Note OFF: Time 11520, Note Name: D4
Note ON: Time 11520, Note Name: D#3, Velocity: 40
Note OFF: Time 11760, Note Name: D#3
Note ON: Time 11760, Note Name: G3, Velocity: 34
Note OFF: Time 12000, Note Name: G3
Note ON: Time 12000, Note Name: C4, Velocity: 34
Note OFF: Time 12240, Note Name: C4
Note ON: Time 12240, Note Name: D#4, Velocity: 33
Note OFF: Time 12480, Note Name: D#4
Note ON: Time 12480, Note Name: G#3, Velocity: 41
Note OFF: Time 12720, Note Name: G#3
Note ON: Time 12720, Note Name: C4, Velocity: 35
Note OFF: Time 12960, Note Name: C4
Note ON: Time 12960, Note Name: D#4, Velocity: 35
Note OFF: Time 13200, Note Name: D#4
Note ON: Time 13200, Note Name: F#4, Velocity: 35
Note OFF: Time 13440, Note Name: F#4
Note ON: Time 13440, Note Name: G3, Velocity: 40
Note OFF: Time 13680, Note Name: G3
Note ON: Time 13680, Note Name: C4, Velocity: 40
Note OFF: Time 13920, Note Name: C4
Note ON: Time 13920, Note Name: D#4, Velocity: 35
Note OFF: Time 14160, Note Name: D#4
Note ON: Time 14160, Note Name: G4, Velocity: 35
Note OFF: Time 14400, Note Name: G4
Note ON: Time 14400, Note Name: G3, Velocity: 40
Note OFF: Time 14640, Note Name: G3
Note ON: Time 14640, Note Name: B3, Velocity: 36
Note OFF: Time 14880, Note Name: B3
Note ON: Time 14880, Note Name: D4, Velocity: 36
Note OFF: Time 15120, Note Name: D4
Note ON: Time 15120, Note Name: G4, Velocity: 36
Note OFF: Time 15360, Note Name: G4
Note ON: Time 15600, Note Name: C3, Velocity: 38
Note OFF: Time 15840, Note Name: C3
Note ON: Time 15840, Note Name: D#3, Velocity: 42
Note OFF: Time 16080, Note Name: D#3
Note ON: Time 16080, Note Name: G3, Velocity: 45
Note OFF: Time 16320, Note Name: G3
Note ON: Time 16320, Note Name: C4, Velocity: 49
Note OFF: Time 16800, Note Name: C4
Note ON: Time 17520, Note Name: F2, Velocity: 43
Note OFF: Time 17760, Note Name: F2
Note ON: Time 17760, Note Name: B2, Velocity: 45
Note OFF: Time 18000, Note Name: B2
Note ON: Time 18000, Note Name: D3, Velocity: 47
Note OFF: Time 18240, Note Name: D3
Note ON: Time 18240, Note Name: F3, Velocity: 49
Note OFF: Time 18480, Note Name: F3
Note ON: Time 18480, Note Name: G#3, Velocity: 43
Note OFF: Time 18720, Note Name: G#3
Note ON: Time 18720, Note Name: G3, Velocity: 43
Note OFF: Time 18960, Note Name: G3
Note ON: Time 18960, Note Name: F3, Velocity: 43
Note OFF: Time 19200, Note Name: F3
Note ON: Time 19440, Note Name: D#2, Velocity: 40
Note OFF: Time 19680, Note Name: D#2
Note ON: Time 19680, Note Name: G2, Velocity: 42
Note OFF: Time 19920, Note Name: G2
Note ON: Time 19920, Note Name: C3, Velocity: 45
Note OFF: Time 20160, Note Name: C3
Note ON: Time 20160, Note Name: D#3, Velocity: 48
Note OFF: Time 20400, Note Name: D#3
Note ON: Time 20400, Note Name: G3, Velocity: 40
Note OFF: Time 20640, Note Name: G3
Note ON: Time 20640, Note Name: G#3, Velocity: 39
Note OFF: Time 20880, Note Name: G#3
Note ON: Time 20880, Note Name: F#3, Velocity: 39
Note OFF: Time 21120, Note Name: F#3
Note ON: Time 21120, Note Name: G2, Velocity: 48
Note OFF: Time 21360, Note Name: G2
Note ON: Time 21360, Note Name: G3, Velocity: 44
Note OFF: Time 21600, Note Name: G3
Note ON: Time 21600, Note Name: C4, Velocity: 38
Note OFF: Time 21840, Note Name: C4
Note ON: Time 21840, Note Name: G3, Velocity: 38
Note OFF: Time 22080, Note Name: G3
Note ON: Time 22080, Note Name: G2, Velocity: 48
Note OFF: Time 22320, Note Name: G2
Note ON: Time 22320, Note Name: G3, Velocity: 39
Note OFF: Time 22560, Note Name: G3
Note ON: Time 22560, Note Name: B3, Velocity: 39
Note OFF: Time 22800, Note Name: B3
Note ON: Time 22800, Note Name: G3, Velocity: 39
Note OFF: Time 23040, Note Name: G3
Note ON: Time 23040, Note Name: C3, Velocity: 52
Note OFF: Time 23280, Note Name: C3
Note ON: Time 23280, Note Name: C4, Velocity: 45
Note OFF: Time 23520, Note Name: C4
Note ON: Time 23520, Note Name: B3, Velocity: 45
Note OFF: Time 23760, Note Name: B3
Note ON: Time 23760, Note Name: C4, Velocity: 45
Note OFF: Time 24000, Note Name: C4
Note ON: Time 24000, Note Name: E3, Velocity: 52
Note OFF: Time 24240, Note Name: E3
Note ON: Time 24240, Note Name: C4, Velocity: 48
Note OFF: Time 24480, Note Name: C4
Note ON: Time 24480, Note Name: G3, Velocity: 48
Note OFF: Time 24720, Note Name: G3
Note ON: Time 24720, Note Name: C4, Velocity: 48
Note OFF: Time 24960, Note Name: C4
Note ON: Time 24960, Note Name: F3, Velocity: 53
Note OFF: Time 25200, Note Name: F3
Note ON: Time 25200, Note Name: C4, Velocity: 49
Note OFF: Time 25440, Note Name: C4
Note ON: Time 25440, Note Name: G#3, Velocity: 50
Note OFF: Time 25680, Note Name: G#3
Note ON: Time 25680, Note Name: C4, Velocity: 49
Note OFF: Time 25920, Note Name: C4
Note ON: Time 25920, Note Name: G3, Velocity: 54
Note OFF: Time 26160, Note Name: G3
Note ON: Time 26160, Note Name: F4, Velocity: 52
Note OFF: Time 26400, Note Name: F4
Note ON: Time 26400, Note Name: B3, Velocity: 46
Note OFF: Time 26640, Note Name: B3
Note ON: Time 26640, Note Name: F4, Velocity: 50
Note OFF: Time 26880, Note Name: F4
Note ON: Time 26880, Note Name: G#3, Velocity: 54
Note OFF: Time 27120, Note Name: G#3
Note ON: Time 27120, Note Name: D#4, Velocity: 47
Note OFF: Time 27360, Note Name: D#4
Note ON: Time 27360, Note Name: C4, Velocity: 47
Note OFF: Time 27600, Note Name: C4
Note ON: Time 27600, Note Name: D#4, Velocity: 47
Note OFF: Time 27840, Note Name: D#4
Note ON: Time 27840, Note Name: G3, Velocity: 62
Note OFF: Time 28080, Note Name: G3
Note ON: Time 28080, Note Name: E4, Velocity: 54
Note OFF: Time 28320, Note Name: E4
Note ON: Time 28320, Note Name: C4, Velocity: 55
Note OFF: Time 28560, Note Name: C4
Note ON: Time 28560, Note Name: E4, Velocity: 55
Note OFF: Time 28800, Note Name: E4
Note ON: Time 28800, Note Name: F3, Velocity: 64
Note OFF: Time 29040, Note Name: F3
Note ON: Time 29040, Note Name: F4, Velocity: 57
Note OFF: Time 29280, Note Name: F4
Note ON: Time 29280, Note Name: C4, Velocity: 58
Note OFF: Time 29520, Note Name: C4
Note ON: Time 29520, Note Name: F4, Velocity: 57
Note OFF: Time 29760, Note Name: F4
Note ON: Time 29760, Note Name: G3, Velocity: 63
Note OFF: Time 30000, Note Name: G3
Note ON: Time 30000, Note Name: G4, Velocity: 57
Note OFF: Time 30240, Note Name: G4
Note ON: Time 30240, Note Name: G3, Velocity: 57
Note OFF: Time 30480, Note Name: G3
Note ON: Time 30480, Note Name: G4, Velocity: 56
Note OFF: Time 30720, Note Name: G4
Note ON: Time 30720, Note Name: C4, Velocity: 68
Note OFF: Time 30960, Note Name: C4
Note ON: Time 31200, Note Name: G3, Velocity: 62
Note ON: Time 31200, Note Name: B3, Velocity: 62
Note OFF: Time 31440, Note Name: B3
Note OFF: Time 31440, Note Name: G3
Note ON: Time 31680, Note Name: C3, Velocity: 62
Note ON: Time 31680, Note Name: C4, Velocity: 62
Note OFF: Time 31920, Note Name: C4
Note OFF: Time 31920, Note Name: C3
Note ON: Time 32160, Note Name: G2, Velocity: 62
Note ON: Time 32160, Note Name: G3, Velocity: 62
Note OFF: Time 32400, Note Name: G3
Note OFF: Time 32400, Note Name: G2
Note ON: Time 32640, Note Name: C2, Velocity: 69
Note ON: Time 32640, Note Name: C3, Velocity: 69
Note OFF: Time 32880, Note Name: C3
Note OFF: Time 32880, Note Name: C2
Note ON: Time 34560, Note Name: A#1, Velocity: 58
Note ON: Time 34560, Note Name: A#2, Velocity: 69
Note OFF: Time 36480, Note Name: A#2
Note OFF: Time 36480, Note Name: A#1
Note ON: Time 36480, Note Name: G#1, Velocity: 57
Note ON: Time 36480, Note Name: G#2, Velocity: 68
Note OFF: Time 36960, Note Name: G#2
Note OFF: Time 36960, Note Name: G#1
Note ON: Time 38880, Note Name: E3, Velocity: 46
Note ON: Time 38880, Note Name: C4, Velocity: 55
Note OFF: Time 39360, Note Name: C4
Note OFF: Time 39360, Note Name: E3
Note ON: Time 39360, Note Name: E3, Velocity: 46
Note ON: Time 39360, Note Name: C4, Velocity: 55
Note OFF: Time 39840, Note Name: C4
Note OFF: Time 39840, Note Name: E3
Note ON: Time 39840, Note Name: E3, Velocity: 46
Note ON: Time 39840, Note Name: C4, Velocity: 55
Note OFF: Time 40320, Note Name: C4
Note OFF: Time 40320, Note Name: E3
Note ON: Time 40320, Note Name: F3, Velocity: 46
Note ON: Time 40320, Note Name: C4, Velocity: 55
Note OFF: Time 41760, Note Name: C4
Note OFF: Time 41760, Note Name: F3
Note ON: Time 42240, Note Name: G#1, Velocity: 58
Note ON: Time 42240, Note Name: G#2, Velocity: 69
Note OFF: Time 44160, Note Name: G#2
Note OFF: Time 44160, Note Name: G#1
Note ON: Time 44160, Note Name: G1, Velocity: 57
Note ON: Time 44160, Note Name: G2, Velocity: 68
Note OFF: Time 44640, Note Name: G2
Note OFF: Time 44640, Note Name: G1
Note ON: Time 46560, Note Name: D3, Velocity: 46
Note ON: Time 46560, Note Name: A#3, Velocity: 55
Note OFF: Time 47040, Note Name: A#3
Note OFF: Time 47040, Note Name: D3
Note ON: Time 47040, Note Name: D3, Velocity: 46
Note ON: Time 47040, Note Name: A#3, Velocity: 55
Note OFF: Time 47520, Note Name: A#3
Note OFF: Time 47520, Note Name: D3
Note ON: Time 47520, Note Name: D3, Velocity: 46
Note ON: Time 47520, Note Name: A#3, Velocity: 55
Note OFF: Time 48000, Note Name: A#3
Note OFF: Time 48000, Note Name: D3
Note ON: Time 48000, Note Name: D#3, Velocity: 46
Note OFF: Time 48240, Note Name: D#3
Note ON: Time 48240, Note Name: A#3, Velocity: 31
Note OFF: Time 48480, Note Name: A#3
Note ON: Time 48480, Note Name: D#4, Velocity: 31
Note OFF: Time 48720, Note Name: D#4
Note ON: Time 48720, Note Name: A#3, Velocity: 31
Note OFF: Time 48960, Note Name: A#3
Note ON: Time 48960, Note Name: G#3, Velocity: 42
Note OFF: Time 49200, Note Name: G#3
Note ON: Time 49200, Note Name: A#3, Velocity: 30
Note OFF: Time 49440, Note Name: A#3
Note ON: Time 49440, Note Name: D4, Velocity: 30
Note OFF: Time 49680, Note Name: D4
Note ON: Time 49680, Note Name: A#3, Velocity: 30
Note OFF: Time 49920, Note Name: A#3
Note ON: Time 49920, Note Name: G3, Velocity: 42
Note OFF: Time 50160, Note Name: G3
Note ON: Time 50160, Note Name: A#3, Velocity: 33
Note OFF: Time 50400, Note Name: A#3
Note ON: Time 50400, Note Name: D#4, Velocity: 33
Note OFF: Time 50640, Note Name: D#4
Note ON: Time 50640, Note Name: A#3, Velocity: 34
Note OFF: Time 50880, Note Name: A#3
Note ON: Time 50880, Note Name: D3, Velocity: 41
Note OFF: Time 51120, Note Name: D3
Note ON: Time 51120, Note Name: A#3, Velocity: 33
Note OFF: Time 51360, Note Name: A#3
Note ON: Time 51360, Note Name: D4, Velocity: 33
Note OFF: Time 51600, Note Name: D4
Note ON: Time 51600, Note Name: A#3, Velocity: 33
Note OFF: Time 51840, Note Name: A#3
Note ON: Time 51840, Note Name: D#3, Velocity: 40
Note OFF: Time 52080, Note Name: D#3
Note ON: Time 52080, Note Name: A#3, Velocity: 35
Note OFF: Time 52320, Note Name: A#3
Note ON: Time 52320, Note Name: D#4, Velocity: 35
Note OFF: Time 52560, Note Name: D#4
Note ON: Time 52560, Note Name: A#3, Velocity: 35
Note OFF: Time 52800, Note Name: A#3
Note ON: Time 52800, Note Name: G#3, Velocity: 40
Note OFF: Time 53040, Note Name: G#3
Note ON: Time 53040, Note Name: A#3, Velocity: 35
Note OFF: Time 53280, Note Name: A#3
Note ON: Time 53280, Note Name: F4, Velocity: 36
Note OFF: Time 53520, Note Name: F4
Note ON: Time 53520, Note Name: A#3, Velocity: 36
Note OFF: Time 53760, Note Name: A#3
Note ON: Time 53760, Note Name: G3, Velocity: 40
Note OFF: Time 54000, Note Name: G3
Note ON: Time 54000, Note Name: A#3, Velocity: 35
Note OFF: Time 54240, Note Name: A#3
Note ON: Time 54240, Note Name: D#4, Velocity: 36
Note OFF: Time 54480, Note Name: D#4
Note ON: Time 54480, Note Name: A#3, Velocity: 36
Note OFF: Time 54720, Note Name: A#3
Note ON: Time 54720, Note Name: D3, Velocity: 40
Note OFF: Time 54960, Note Name: D3
Note ON: Time 54960, Note Name: A#3, Velocity: 34
Note OFF: Time 55200, Note Name: A#3
Note ON: Time 55200, Note Name: D3, Velocity: 34
Note OFF: Time 55440, Note Name: D3
Note ON: Time 55440, Note Name: A#3, Velocity: 34
Note OFF: Time 55680, Note Name: A#3
Note ON: Time 55680, Note Name: D#3, Velocity: 41
Note OFF: Time 55920, Note Name: D#3
Note ON: Time 55920, Note Name: A#3, Velocity: 34
Note OFF: Time 56160, Note Name: A#3
Note ON: Time 56160, Note Name: D#3, Velocity: 34
Note OFF: Time 56400, Note Name: D#3
Note ON: Time 56400, Note Name: A#3, Velocity: 34
Note OFF: Time 56640, Note Name: A#3
Note ON: Time 56640, Note Name: G#3, Velocity: 40
Note OFF: Time 56880, Note Name: G#3
Note ON: Time 56880, Note Name: A#3, Velocity: 34
Note OFF: Time 57120, Note Name: A#3
Note ON: Time 57120, Note Name: G#3, Velocity: 34
Note OFF: Time 57360, Note Name: G#3
Note ON: Time 57360, Note Name: A#3, Velocity: 34
Note OFF: Time 57600, Note Name: A#3
Note ON: Time 57600, Note Name: F#3, Velocity: 40
Note OFF: Time 57840, Note Name: F#3
Note ON: Time 57840, Note Name: A#3, Velocity: 36
Note OFF: Time 58080, Note Name: A#3
Note ON: Time 58080, Note Name: F#3, Velocity: 37
Note OFF: Time 58320, Note Name: F#3
Note ON: Time 58320, Note Name: A#3, Velocity: 37
Note OFF: Time 58560, Note Name: A#3
Note ON: Time 58560, Note Name: D3, Velocity: 41
Note OFF: Time 58800, Note Name: D3
Note ON: Time 58800, Note Name: A#3, Velocity: 36
Note OFF: Time 59040, Note Name: A#3
Note ON: Time 59040, Note Name: D3, Velocity: 36
Note OFF: Time 59280, Note Name: D3
Note ON: Time 59280, Note Name: A#3, Velocity: 36
Note OFF: Time 59520, Note Name: A#3
Note ON: Time 59520, Note Name: D#3, Velocity: 39
Note OFF: Time 59760, Note Name: D#3
Note ON: Time 59760, Note Name: A#3, Velocity: 39
Note OFF: Time 60000, Note Name: A#3
Note ON: Time 60000, Note Name: F#3, Velocity: 41
Note OFF: Time 60240, Note Name: F#3
Note ON: Time 60240, Note Name: A#3, Velocity: 41
Note OFF: Time 60480, Note Name: A#3
Note ON: Time 60480, Note Name: A#2, Velocity: 42
Note OFF: Time 60720, Note Name: A#2
Note ON: Time 60720, Note Name: A#3, Velocity: 43
Note OFF: Time 60960, Note Name: A#3
Note ON: Time 60960, Note Name: D3, Velocity: 44
Note OFF: Time 61200, Note Name: D3
Note ON: Time 61200, Note Name: A#3, Velocity: 45
Note OFF: Time 61440, Note Name: A#3
Note ON: Time 61440, Note Name: B2, Velocity: 45
Note OFF: Time 61680, Note Name: B2
Note ON: Time 61680, Note Name: A#3, Velocity: 47
Note OFF: Time 61920, Note Name: A#3
Note ON: Time 61920, Note Name: D#3, Velocity: 51
Note OFF: Time 62160, Note Name: D#3
Note ON: Time 62160, Note Name: A#3, Velocity: 54
Note OFF: Time 62400, Note Name: A#3
Note ON: Time 62400, Note Name: B2, Velocity: 58
Note OFF: Time 62640, Note Name: B2
Note ON: Time 62640, Note Name: A3, Velocity: 49
Note OFF: Time 62880, Note Name: A3
Note ON: Time 62880, Note Name: D#3, Velocity: 49
Note OFF: Time 63120, Note Name: D#3
Note ON: Time 63120, Note Name: A3, Velocity: 49
Note OFF: Time 63360, Note Name: A3
Note ON: Time 63360, Note Name: A#2, Velocity: 60
Note OFF: Time 63840, Note Name: A#2
Note ON: Time 63840, Note Name: A#3, Velocity: 46
Note ON: Time 63840, Note Name: D4, Velocity: 46
Note ON: Time 63840, Note Name: F4, Velocity: 55
Note OFF: Time 64080, Note Name: F4
Note OFF: Time 64080, Note Name: D4
Note OFF: Time 64080, Note Name: A#3
Note ON: Time 64320, Note Name: A#3, Velocity: 59
Note ON: Time 64320, Note Name: F#4, Velocity: 70
Note ON: Time 64320, Note Name: D#4, Velocity: 59
Note OFF: Time 65280, Note Name: D#4
Note OFF: Time 65280, Note Name: F#4
Note OFF: Time 65280, Note Name: A#3
Note ON: Time 65760, Note Name: A#3, Velocity: 46
Note ON: Time 65760, Note Name: D4, Velocity: 46
Note ON: Time 65760, Note Name: F4, Velocity: 55
Note OFF: Time 66000, Note Name: F4
Note OFF: Time 66000, Note Name: D4
Note OFF: Time 66000, Note Name: A#3
Note ON: Time 66240, Note Name: A#3, Velocity: 59
Note ON: Time 66240, Note Name: F#4, Velocity: 70
Note ON: Time 66240, Note Name: D#4, Velocity: 59
Note OFF: Time 67200, Note Name: D#4
Note OFF: Time 67200, Note Name: F#4
Note OFF: Time 67200, Note Name: A#3
Note ON: Time 67200, Note Name: A#3, Velocity: 46
Note ON: Time 67200, Note Name: D4, Velocity: 46
Note ON: Time 67200, Note Name: F4, Velocity: 55
Note OFF: Time 67680, Note Name: F4
Note OFF: Time 67680, Note Name: D4
Note OFF: Time 67680, Note Name: A#3
Note ON: Time 68160, Note Name: A#3, Velocity: 46
Note ON: Time 68160, Note Name: F4, Velocity: 46
Note ON: Time 68160, Note Name: G#4, Velocity: 55
Note OFF: Time 68640, Note Name: G#4
Note OFF: Time 68640, Note Name: F4
Note OFF: Time 68640, Note Name: A#3
Note ON: Time 69120, Note Name: A#3, Velocity: 46
Note ON: Time 69120, Note Name: D4, Velocity: 46
Note ON: Time 69120, Note Name: F4, Velocity: 46
Note ON: Time 69120, Note Name: G#4, Velocity: 55
Note OFF: Time 69600, Note Name: G#4
Note OFF: Time 69600, Note Name: A#3
Note OFF: Time 69600, Note Name: D4
Note OFF: Time 69600, Note Name: F4
Note ON: Time 71040, Note Name: D#3, Velocity: 55
Note OFF: Time 71520, Note Name: D#3
Note ON: Time 72160, Note Name: A#3, Velocity: 45
Note ON: Time 72320, Note Name: C4, Velocity: 48
Note OFF: Time 72330, Note Name: A#3
Note ON: Time 72480, Note Name: D4, Velocity: 50
Note OFF: Time 72490, Note Name: C4
Note ON: Time 72640, Note Name: C4, Velocity: 48
Note OFF: Time 72650, Note Name: D4
Note ON: Time 72800, Note Name: A#3, Velocity: 45
Note OFF: Time 72810, Note Name: C4
Note ON: Time 72960, Note Name: D#4, Velocity: 55
Note OFF: Time 72970, Note Name: A#3
Note OFF: Time 73440, Note Name: D#4
Note ON: Time 74080, Note Name: A#3, Velocity: 43
Note ON: Time 74240, Note Name: C4, Velocity: 47
Note OFF: Time 74250, Note Name: A#3
Note ON: Time 74400, Note Name: D4, Velocity: 50
Note OFF: Time 74410, Note Name: C4
Note ON: Time 74560, Note Name: C4, Velocity: 48
Note OFF: Time 74570, Note Name: D4
Note ON: Time 74720, Note Name: A#3, Velocity: 45
Note OFF: Time 74730, Note Name: C4
Note ON: Time 74880, Note Name: D#4, Velocity: 55
Note OFF: Time 74890, Note Name: A#3
Note OFF: Time 75360, Note Name: D#4
Note ON: Time 75840, Note Name: D#4, Velocity: 55
Note OFF: Time 76320, Note Name: D#4
Note ON: Time 76800, Note Name: C#4, Velocity: 55
Note ON: Time 76800, Note Name: G3, Velocity: 55
Note ON: Time 76800, Note Name: A#3, Velocity: 55
Note ON: Time 76800, Note Name: D#4, Velocity: 55
Note OFF: Time 77280, Note Name: D#4
Note OFF: Time 77280, Note Name: C#4
Note OFF: Time 77280, Note Name: G3
Note OFF: Time 77280, Note Name: A#3
Note ON: Time 78720, Note Name: G#2, Velocity: 52
Note OFF: Time 78880, Note Name: G#2
Note ON: Time 78880, Note Name: C3, Velocity: 54
Note OFF: Time 79040, Note Name: C3
Note ON: Time 79040, Note Name: D#3, Velocity: 56
Note OFF: Time 79200, Note Name: D#3
Note ON: Time 79200, Note Name: G#3, Velocity: 59
Note OFF: Time 79680, Note Name: G#3
Note ON: Time 80640, Note Name: A#3, Velocity: 48
Note ON: Time 80640, Note Name: D#4, Velocity: 48
Note ON: Time 80640, Note Name: G4, Velocity: 57
Note OFF: Time 81120, Note Name: G4
Note OFF: Time 81120, Note Name: D#4
Note OFF: Time 81120, Note Name: A#3
Note ON: Time 81600, Note Name: A#3, Velocity: 49
Note ON: Time 81600, Note Name: F4, Velocity: 49
Note ON: Time 81600, Note Name: G#4, Velocity: 58
Note OFF: Time 82080, Note Name: G#4
Note OFF: Time 82080, Note Name: F4
Note OFF: Time 82080, Note Name: A#3
Note ON: Time 82560, Note Name: D#4, Velocity: 49
Note ON: Time 82560, Note Name: G4, Velocity: 58
Note OFF: Time 83040, Note Name: G4
Note OFF: Time 83040, Note Name: D#4
Note ON: Time 84480, Note Name: A#3, Velocity: 39
Note ON: Time 84480, Note Name: G#3, Velocity: 33
Note OFF: Time 84720, Note Name: G#3
Note OFF: Time 84720, Note Name: A#3
Note ON: Time 84960, Note Name: G#3, Velocity: 34
Note ON: Time 84960, Note Name: A#3, Velocity: 40
Note OFF: Time 85200, Note Name: A#3
Note OFF: Time 85200, Note Name: G#3
Note ON: Time 85440, Note Name: A#3, Velocity: 42
Note ON: Time 85440, Note Name: G#3, Velocity: 35
Note OFF: Time 85680, Note Name: G#3
Note OFF: Time 85680, Note Name: A#3
Note ON: Time 85920, Note Name: G#3, Velocity: 36
Note ON: Time 85920, Note Name: A#3, Velocity: 43
Note OFF: Time 86160, Note Name: A#3
Note OFF: Time 86160, Note Name: G#3
Note ON: Time 86400, Note Name: G3, Velocity: 37
Note ON: Time 86400, Note Name: A#3, Velocity: 45
Note OFF: Time 87840, Note Name: A#3
Note OFF: Time 87840, Note Name: G3
Note ON: Time 87840, Note Name: G3, Velocity: 42
Note OFF: Time 88320, Note Name: G3
Note ON: Time 88320, Note Name: C4, Velocity: 45
Note OFF: Time 89280, Note Name: C4
Note ON: Time 89280, Note Name: B3, Velocity: 43
Note OFF: Time 90240, Note Name: B3
Note ON: Time 90240, Note Name: A#3, Velocity: 43
Note OFF: Time 91680, Note Name: A#3
Note ON: Time 92160, Note Name: D4, Velocity: 44
Note ON: Time 92160, Note Name: G#3, Velocity: 37
Note OFF: Time 92400, Note Name: G#3
Note OFF: Time 92400, Note Name: D4
Note ON: Time 92640, Note Name: G#3, Velocity: 39
Note ON: Time 92640, Note Name: D4, Velocity: 47
Note OFF: Time 92880, Note Name: D4
Note OFF: Time 92880, Note Name: G#3
Note ON: Time 93120, Note Name: D4, Velocity: 51
Note ON: Time 93120, Note Name: G#3, Velocity: 42
Note OFF: Time 93360, Note Name: G#3
Note OFF: Time 93360, Note Name: D4
Note ON: Time 93600, Note Name: G#3, Velocity: 46
Note ON: Time 93600, Note Name: D4, Velocity: 55
Note OFF: Time 93840, Note Name: D4
Note OFF: Time 93840, Note Name: G#3
Note ON: Time 94080, Note Name: G3, Velocity: 50
Note ON: Time 94080, Note Name: D#4, Velocity: 60
Note OFF: Time 96000, Note Name: D#4
Note OFF: Time 96000, Note Name: G3
Note ON: Time 96000, Note Name: G#3, Velocity: 61
Note ON: Time 96000, Note Name: D#4, Velocity: 72
Note OFF: Time 96480, Note Name: D#4
Note OFF: Time 96480, Note Name: G#3
Note ON: Time 96960, Note Name: A#2, Velocity: 61
Note ON: Time 96960, Note Name: A#3, Velocity: 72
Note OFF: Time 97440, Note Name: A#3
Note OFF: Time 97440, Note Name: A#2
Note ON: Time 98080, Note Name: D#4, Velocity: 55
Note ON: Time 98240, Note Name: F4, Velocity: 55
Note OFF: Time 98250, Note Name: D#4
Note ON: Time 98400, Note Name: G4, Velocity: 59
Note OFF: Time 98410, Note Name: F4
Note ON: Time 98560, Note Name: F4, Velocity: 55
Note OFF: Time 98570, Note Name: G4
Note ON: Time 98720, Note Name: D#4, Velocity: 55
Note OFF: Time 98730, Note Name: F4
Note ON: Time 98880, Note Name: G#4, Velocity: 59
Note OFF: Time 98890, Note Name: D#4
Note OFF: Time 99840, Note Name: G#4
Note ON: Time 99840, Note Name: G4, Velocity: 59
Note ON: Time 100000, Note Name: D#4, Velocity: 55
Note OFF: Time 100010, Note Name: G4
Note ON: Time 100160, Note Name: F4, Velocity: 55
Note OFF: Time 100170, Note Name: D#4
Note ON: Time 100320, Note Name: G4, Velocity: 59
Note OFF: Time 100330, Note Name: F4
Note ON: Time 100480, Note Name: F4, Velocity: 55
Note OFF: Time 100490, Note Name: G4
Note ON: Time 100640, Note Name: D#4, Velocity: 55
Note OFF: Time 100650, Note Name: F4
Note ON: Time 100800, Note Name: G#4, Velocity: 59
Note OFF: Time 100810, Note Name: D#4
Note OFF: Time 101760, Note Name: G#4
Note ON: Time 101760, Note Name: G4, Velocity: 55
Note ON: Time 101760, Note Name: D#4, Velocity: 55
Note OFF: Time 102000, Note Name: D#4
Note OFF: Time 102000, Note Name: G4
Note ON: Time 102246, Note Name: C4, Velocity: 52
Note OFF: Time 102486, Note Name: C4
Note ON: Time 102720, Note Name: G#3, Velocity: 52
Note OFF: Time 102960, Note Name: G#3
Note ON: Time 103200, Note Name: A#3, Velocity: 52
Note OFF: Time 103440, Note Name: A#3
Note ON: Time 103840, Note Name: D#2, Velocity: 49
Note ON: Time 104000, Note Name: F2, Velocity: 49
Note OFF: Time 104010, Note Name: D#2
Note ON: Time 104160, Note Name: G2, Velocity: 53
Note OFF: Time 104170, Note Name: F2
Note ON: Time 104320, Note Name: F2, Velocity: 49
Note OFF: Time 104330, Note Name: G2
Note ON: Time 104480, Note Name: D#2, Velocity: 49
Note OFF: Time 104490, Note Name: F2
Note ON: Time 104640, Note Name: G#2, Velocity: 70
Note OFF: Time 104650, Note Name: D#2
Note OFF: Time 105600, Note Name: G#2
Note ON: Time 105600, Note Name: G2, Velocity: 53
Note ON: Time 105760, Note Name: D#2, Velocity: 49
Note OFF: Time 105770, Note Name: G2
Note ON: Time 105920, Note Name: F2, Velocity: 49
Note OFF: Time 105930, Note Name: D#2
Note ON: Time 106080, Note Name: G2, Velocity: 53
Note OFF: Time 106090, Note Name: F2
Note ON: Time 106240, Note Name: F2, Velocity: 49
Note OFF: Time 106250, Note Name: G2
Note ON: Time 106400, Note Name: D#2, Velocity: 49
Note OFF: Time 106410, Note Name: F2
Note ON: Time 106560, Note Name: G#2, Velocity: 70
Note OFF: Time 106570, Note Name: D#2
Note OFF: Time 107520, Note Name: G#2
Note ON: Time 107520, Note Name: G2, Velocity: 53
Note ON: Time 107680, Note Name: D#2, Velocity: 49
Note OFF: Time 107690, Note Name: G2
Note ON: Time 107840, Note Name: F2, Velocity: 49
Note OFF: Time 107850, Note Name: D#2
Note ON: Time 108000, Note Name: G2, Velocity: 53
Note OFF: Time 108010, Note Name: F2
Note ON: Time 108160, Note Name: F2, Velocity: 49
Note OFF: Time 108170, Note Name: G2
Note ON: Time 108320, Note Name: D#2, Velocity: 49
Note OFF: Time 108330, Note Name: F2
Note ON: Time 108480, Note Name: G#2, Velocity: 70
Note OFF: Time 108490, Note Name: D#2
Note OFF: Time 111360, Note Name: G#2
Note ON: Time 111360, Note Name: G1, Velocity: 75
Note ON: Time 111360, Note Name: G2, Velocity: 80
Note OFF: Time 115200, Note Name: G2
Note OFF: Time 115200, Note Name: G1
Note ON: Time 115200, Note Name: G2, Velocity: 69
Note ON: Time 115200, Note Name: D3, Velocity: 69
Note ON: Time 115200, Note Name: F3, Velocity: 82
Note OFF: Time 118080, Note Name: F3
Note OFF: Time 118080, Note Name: D3
Note OFF: Time 118080, Note Name: G2
Note ON: Time 119040, Note Name: C3, Velocity: 40
Note OFF: Time 119280, Note Name: C3
Note ON: Time 119280, Note Name: D#3, Velocity: 36
Note OFF: Time 119520, Note Name: D#3
Note ON: Time 119520, Note Name: G3, Velocity: 36
Note OFF: Time 119760, Note Name: G3
Note ON: Time 119760, Note Name: C4, Velocity: 36
Note OFF: Time 120000, Note Name: C4
Note ON: Time 120000, Note Name: C3, Velocity: 40
Note OFF: Time 120240, Note Name: C3
Note ON: Time 120240, Note Name: F3, Velocity: 40
Note OFF: Time 120480, Note Name: F3
Note ON: Time 120480, Note Name: G3, Velocity: 36
Note OFF: Time 120720, Note Name: G3
Note ON: Time 120720, Note Name: B3, Velocity: 36
Note OFF: Time 120960, Note Name: B3
Note ON: Time 120960, Note Name: C3, Velocity: 40
Note OFF: Time 121200, Note Name: C3
Note ON: Time 121200, Note Name: D#3, Velocity: 40
Note OFF: Time 121440, Note Name: D#3
Note ON: Time 121440, Note Name: G3, Velocity: 36
Note OFF: Time 121680, Note Name: G3
Note ON: Time 121680, Note Name: C4, Velocity: 36
Note OFF: Time 121920, Note Name: C4
Note ON: Time 121920, Note Name: D#4, Velocity: 40
Note OFF: Time 122160, Note Name: D#4
Note ON: Time 122160, Note Name: G4, Velocity: 36
Note OFF: Time 122400, Note Name: G4
Note ON: Time 122400, Note Name: D#4, Velocity: 36
Note OFF: Time 122640, Note Name: D#4
Note ON: Time 122640, Note Name: D4, Velocity: 36
Note OFF: Time 122880, Note Name: D4
Note ON: Time 122880, Note Name: C4, Velocity: 40
Note OFF: Time 123120, Note Name: C4
Note ON: Time 123120, Note Name: G4, Velocity: 36
Note OFF: Time 123360, Note Name: G4
Note ON: Time 123360, Note Name: C4, Velocity: 36
Note ON: Time 123360, Note Name: D#4, Velocity: 36
Note OFF: Time 123600, Note Name: D#4
Note OFF: Time 123600, Note Name: C4
Note ON: Time 123600, Note Name: G4, Velocity: 36
Note OFF: Time 123840, Note Name: G4
Note ON: Time 123840, Note Name: B3, Velocity: 41
Note ON: Time 123840, Note Name: D4, Velocity: 41
Note OFF: Time 124080, Note Name: D4
Note OFF: Time 124080, Note Name: B3
Note ON: Time 124080, Note Name: G4, Velocity: 36
Note OFF: Time 124320, Note Name: G4
Note ON: Time 124320, Note Name: C4, Velocity: 36
Note ON: Time 124320, Note Name: G#3, Velocity: 36
Note OFF: Time 124560, Note Name: G#3
Note OFF: Time 124560, Note Name: C4
Note ON: Time 124560, Note Name: G4, Velocity: 36
Note OFF: Time 124800, Note Name: G4
Note ON: Time 124800, Note Name: G3, Velocity: 40
Note OFF: Time 125040, Note Name: G3
Note ON: Time 125040, Note Name: B3, Velocity: 29
Note OFF: Time 125280, Note Name: B3
Note ON: Time 125280, Note Name: D4, Velocity: 28
Note OFF: Time 125520, Note Name: D4
Note ON: Time 125520, Note Name: G4, Velocity: 28
Note OFF: Time 125760, Note Name: G4
Note ON: Time 125760, Note Name: G3, Velocity: 40
Note OFF: Time 126000, Note Name: G3
Note ON: Time 126000, Note Name: B3, Velocity: 31
Note OFF: Time 126240, Note Name: B3
Note ON: Time 126240, Note Name: D4, Velocity: 31
Note OFF: Time 126480, Note Name: D4
Note ON: Time 126480, Note Name: G4, Velocity: 31
Note OFF: Time 126720, Note Name: G4
Note ON: Time 126720, Note Name: F3, Velocity: 40
Note OFF: Time 126960, Note Name: F3
Note ON: Time 126960, Note Name: G#3, Velocity: 36
Note OFF: Time 127200, Note Name: G#3
Note ON: Time 127200, Note Name: B3, Velocity: 37
Note OFF: Time 127440, Note Name: B3
Note ON: Time 127440, Note Name: D4, Velocity: 37
Note OFF: Time 127680, Note Name: D4
Note ON: Time 127680, Note Name: F3, Velocity: 40
Note OFF: Time 127920, Note Name: F3
Note ON: Time 127920, Note Name: G#3, Velocity: 36
Note OFF: Time 128160, Note Name: G#3
Note ON: Time 128160, Note Name: B3, Velocity: 36
Note OFF: Time 128400, Note Name: B3
Note ON: Time 128400, Note Name: D4, Velocity: 36
Note OFF: Time 128640, Note Name: D4
Note ON: Time 128640, Note Name: D#3, Velocity: 40
Note OFF: Time 128880, Note Name: D#3
Note ON: Time 128880, Note Name: G3, Velocity: 34
Note OFF: Time 129120, Note Name: G3
Note ON: Time 129120, Note Name: C4, Velocity: 34
Note OFF: Time 129360, Note Name: C4
Note ON: Time 129360, Note Name: D#4, Velocity: 33
Note OFF: Time 129600, Note Name: D#4
Note ON: Time 129600, Note Name: G#3, Velocity: 41
Note OFF: Time 129840, Note Name: G#3
Note ON: Time 129840, Note Name: C4, Velocity: 35
Note OFF: Time 130080, Note Name: C4
Note ON: Time 130080, Note Name: D#4, Velocity: 35
Note OFF: Time 130320, Note Name: D#4
Note ON: Time 130320, Note Name: F#4, Velocity: 35
Note OFF: Time 130560, Note Name: F#4
Note ON: Time 130560, Note Name: G3, Velocity: 40
Note OFF: Time 130800, Note Name: G3
Note ON: Time 130800, Note Name: C4, Velocity: 40
Note OFF: Time 131040, Note Name: C4
Note ON: Time 131040, Note Name: D#4, Velocity: 35
Note OFF: Time 131280, Note Name: D#4
Note ON: Time 131280, Note Name: G4, Velocity: 35
Note OFF: Time 131520, Note Name: G4
Note ON: Time 131520, Note Name: G3, Velocity: 40
Note OFF: Time 131760, Note Name: G3
Note ON: Time 131760, Note Name: B3, Velocity: 36
Note OFF: Time 132000, Note Name: B3
Note ON: Time 132000, Note Name: D4, Velocity: 36
Note OFF: Time 132240, Note Name: D4
Note ON: Time 132240, Note Name: G4, Velocity: 36
Note OFF: Time 132480, Note Name: G4
Note ON: Time 132720, Note Name: C3, Velocity: 38
Note OFF: Time 132960, Note Name: C3
Note ON: Time 132960, Note Name: D#3, Velocity: 42
Note OFF: Time 133200, Note Name: D#3
Note ON: Time 133200, Note Name: G3, Velocity: 45
Note OFF: Time 133440, Note Name: G3
Note ON: Time 133440, Note Name: C4, Velocity: 49
Note OFF: Time 133920, Note Name: C4
Note ON: Time 134640, Note Name: F2, Velocity: 43
Note OFF: Time 134880, Note Name: F2
Note ON: Time 134880, Note Name: B2, Velocity: 45
Note OFF: Time 135120, Note Name: B2
Note ON: Time 135120, Note Name: D3, Velocity: 47
Note OFF: Time 135360, Note Name: D3
Note ON: Time 135360, Note Name: F3, Velocity: 49
Note OFF: Time 135600, Note Name: F3
Note ON: Time 135600, Note Name: G#3, Velocity: 43
Note OFF: Time 135840, Note Name: G#3
Note ON: Time 135840, Note Name: G3, Velocity: 43
Note OFF: Time 136080, Note Name: G3
Note ON: Time 136080, Note Name: F3, Velocity: 43
Note OFF: Time 136320, Note Name: F3
Note ON: Time 136560, Note Name: D#2, Velocity: 40
Note OFF: Time 136800, Note Name: D#2
Note ON: Time 136800, Note Name: G2, Velocity: 42
Note OFF: Time 137040, Note Name: G2
Note ON: Time 137040, Note Name: C3, Velocity: 45
Note OFF: Time 137280, Note Name: C3
Note ON: Time 137280, Note Name: D#3, Velocity: 48
Note OFF: Time 137520, Note Name: D#3
Note ON: Time 137520, Note Name: G3, Velocity: 40
Note OFF: Time 137760, Note Name: G3
Note ON: Time 137760, Note Name: G#3, Velocity: 39
Note OFF: Time 138000, Note Name: G#3
Note ON: Time 138000, Note Name: F#3, Velocity: 39
Note OFF: Time 138240, Note Name: F#3
Note ON: Time 138240, Note Name: G2, Velocity: 48
Note OFF: Time 138480, Note Name: G2
Note ON: Time 138480, Note Name: G3, Velocity: 44
Note OFF: Time 138720, Note Name: G3
Note ON: Time 138720, Note Name: C4, Velocity: 38
Note OFF: Time 138960, Note Name: C4
Note ON: Time 138960, Note Name: G3, Velocity: 38
Note OFF: Time 139200, Note Name: G3
Note ON: Time 139200, Note Name: G2, Velocity: 48
Note OFF: Time 139440, Note Name: G2
Note ON: Time 139440, Note Name: G3, Velocity: 39
Note OFF: Time 139680, Note Name: G3
Note ON: Time 139680, Note Name: B3, Velocity: 39
Note OFF: Time 139920, Note Name: B3
Note ON: Time 139920, Note Name: G3, Velocity: 39
Note OFF: Time 140160, Note Name: G3
Note ON: Time 140160, Note Name: C3, Velocity: 52
Note OFF: Time 140400, Note Name: C3
Note ON: Time 140400, Note Name: C4, Velocity: 45
Note OFF: Time 140640, Note Name: C4
Note ON: Time 140640, Note Name: B3, Velocity: 45
Note OFF: Time 140880, Note Name: B3
Note ON: Time 140880, Note Name: C4, Velocity: 45
Note OFF: Time 141120, Note Name: C4
Note ON: Time 141120, Note Name: E3, Velocity: 52
Note OFF: Time 141360, Note Name: E3
Note ON: Time 141360, Note Name: C4, Velocity: 48
Note OFF: Time 141600, Note Name: C4
Note ON: Time 141600, Note Name: G3, Velocity: 48
Note OFF: Time 141840, Note Name: G3
Note ON: Time 141840, Note Name: C4, Velocity: 48
Note OFF: Time 142080, Note Name: C4
Note ON: Time 142080, Note Name: F3, Velocity: 53
Note OFF: Time 142320, Note Name: F3
Note ON: Time 142320, Note Name: C4, Velocity: 49
Note OFF: Time 142560, Note Name: C4
Note ON: Time 142560, Note Name: G#3, Velocity: 50
Note OFF: Time 142800, Note Name: G#3
Note ON: Time 142800, Note Name: C4, Velocity: 49
Note OFF: Time 143040, Note Name: C4
Note ON: Time 143040, Note Name: G3, Velocity: 54
Note OFF: Time 143280, Note Name: G3
Note ON: Time 143280, Note Name: F4, Velocity: 52
Note OFF: Time 143520, Note Name: F4
Note ON: Time 143520, Note Name: B3, Velocity: 43
Note OFF: Time 143760, Note Name: B3
Note ON: Time 143760, Note Name: F4, Velocity: 50
Note OFF: Time 144000, Note Name: F4
Note ON: Time 144000, Note Name: G#3, Velocity: 54
Note OFF: Time 144240, Note Name: G#3
Note ON: Time 144240, Note Name: D#4, Velocity: 47
Note OFF: Time 144480, Note Name: D#4
Note ON: Time 144480, Note Name: C4, Velocity: 47
Note OFF: Time 144720, Note Name: C4
Note ON: Time 144720, Note Name: D#4, Velocity: 47
Note OFF: Time 144960, Note Name: D#4
Note ON: Time 144960, Note Name: G3, Velocity: 62
Note OFF: Time 145200, Note Name: G3
Note ON: Time 145200, Note Name: E4, Velocity: 54
Note OFF: Time 145440, Note Name: E4
Note ON: Time 145440, Note Name: C4, Velocity: 55
Note OFF: Time 145680, Note Name: C4
Note ON: Time 145680, Note Name: E4, Velocity: 55
Note OFF: Time 145920, Note Name: E4
Note ON: Time 145920, Note Name: F3, Velocity: 64
Note OFF: Time 146160, Note Name: F3
Note ON: Time 146160, Note Name: F4, Velocity: 57
Note OFF: Time 146400, Note Name: F4
Note ON: Time 146400, Note Name: C4, Velocity: 58
Note OFF: Time 146640, Note Name: C4
Note ON: Time 146640, Note Name: F4, Velocity: 57
Note OFF: Time 146880, Note Name: F4
Note ON: Time 146880, Note Name: G3, Velocity: 63
Note OFF: Time 147120, Note Name: G3
Note ON: Time 147120, Note Name: G4, Velocity: 57
Note OFF: Time 147360, Note Name: G4
Note ON: Time 147360, Note Name: G3, Velocity: 57
Note OFF: Time 147600, Note Name: G3
Note ON: Time 147600, Note Name: G4, Velocity: 56
Note OFF: Time 147840, Note Name: G4
Note ON: Time 147840, Note Name: C4, Velocity: 68
Note OFF: Time 148080, Note Name: C4
Note ON: Time 148320, Note Name: G3, Velocity: 62
Note ON: Time 148320, Note Name: B3, Velocity: 62
Note OFF: Time 148560, Note Name: B3
Note OFF: Time 148560, Note Name: G3
Note ON: Time 148800, Note Name: C3, Velocity: 62
Note ON: Time 148800, Note Name: C4, Velocity: 62
Note OFF: Time 149040, Note Name: C4
Note OFF: Time 149040, Note Name: C3
Note ON: Time 149280, Note Name: G2, Velocity: 62
Note ON: Time 149280, Note Name: G3, Velocity: 62
Note OFF: Time 149520, Note Name: G3
Note OFF: Time 149520, Note Name: G2
Note ON: Time 149760, Note Name: C2, Velocity: 69
Note ON: Time 149760, Note Name: C3, Velocity: 69
Note OFF: Time 150000, Note Name: C3
Note OFF: Time 150000, Note Name: C2
Note ON: Time 150960, Note Name: G#2, Velocity: 46
Note OFF: Time 151200, Note Name: G#2
Note ON: Time 151200, Note Name: C3, Velocity: 48
Note OFF: Time 151440, Note Name: C3
Note ON: Time 151440, Note Name: D#3, Velocity: 50
Note OFF: Time 151680, Note Name: D#3
Note ON: Time 151680, Note Name: G#3, Velocity: 51
Note OFF: Time 152640, Note Name: G#3
Note ON: Time 152640, Note Name: C#3, Velocity: 48
Note OFF: Time 153600, Note Name: C#3
Note ON: Time 153600, Note Name: G3, Velocity: 48
Note OFF: Time 154560, Note Name: G3
Note ON: Time 154560, Note Name: C3, Velocity: 45
Note OFF: Time 155520, Note Name: C3
Note ON: Time 155520, Note Name: F3, Velocity: 48
Note OFF: Time 156000, Note Name: F3
Note ON: Time 156000, Note Name: A#2, Velocity: 48
Note OFF: Time 156960, Note Name: A#2
Note ON: Time 156960, Note Name: C3, Velocity: 48
Note OFF: Time 157440, Note Name: C3
Note ON: Time 157440, Note Name: C#3, Velocity: 51
Note OFF: Time 157920, Note Name: C#3
Note ON: Time 157920, Note Name: D3, Velocity: 46
Note OFF: Time 158400, Note Name: D3
Note ON: Time 158400, Note Name: D#3, Velocity: 46
Note OFF: Time 158880, Note Name: D#3
Note ON: Time 158880, Note Name: D#2, Velocity: 42
Note OFF: Time 159360, Note Name: D#2
Note ON: Time 159360, Note Name: G#2, Velocity: 51
Note OFF: Time 160320, Note Name: G#2
Note ON: Time 160320, Note Name: C#3, Velocity: 49
Note OFF: Time 161280, Note Name: C#3
Note ON: Time 161280, Note Name: G2, Velocity: 51
Note OFF: Time 162240, Note Name: G2
Note ON: Time 162240, Note Name: C3, Velocity: 49
Note OFF: Time 163200, Note Name: C3
Note ON: Time 163200, Note Name: F2, Velocity: 52
Note OFF: Time 164160, Note Name: F2
Note ON: Time 164160, Note Name: G2, Velocity: 51
Note OFF: Time 164640, Note Name: G2
Note ON: Time 164640, Note Name: G#2, Velocity: 49
Note OFF: Time 165120, Note Name: G#2
Note ON: Time 165120, Note Name: A2, Velocity: 53
Note OFF: Time 165600, Note Name: A2
Note ON: Time 165600, Note Name: A#2, Velocity: 50
Note OFF: Time 166080, Note Name: A#2
Note ON: Time 166080, Note Name: D#2, Velocity: 49
Note OFF: Time 166560, Note Name: D#2
Note ON: Time 167520, Note Name: G#3, Velocity: 43
Note ON: Time 167520, Note Name: C4, Velocity: 51
Note OFF: Time 168480, Note Name: C4
Note OFF: Time 168480, Note Name: G#3
Note ON: Time 168480, Note Name: C#3, Velocity: 40
Note ON: Time 168480, Note Name: F3, Velocity: 48
Note OFF: Time 169440, Note Name: F3
Note OFF: Time 169440, Note Name: C#3
Note ON: Time 169440, Note Name: G3, Velocity: 43
Note ON: Time 169440, Note Name: A#3, Velocity: 51
Note OFF: Time 170400, Note Name: A#3
Note OFF: Time 170400, Note Name: G3
Note ON: Time 170400, Note Name: C3, Velocity: 40
Note ON: Time 170400, Note Name: D#3, Velocity: 48
Note OFF: Time 171360, Note Name: D#3
Note OFF: Time 171360, Note Name: C3
Note ON: Time 171360, Note Name: F3, Velocity: 43
Note ON: Time 171360, Note Name: G#3, Velocity: 51
Note OFF: Time 171840, Note Name: G#3
Note OFF: Time 171840, Note Name: F3
Note ON: Time 171840, Note Name: A#2, Velocity: 51
Note OFF: Time 172320, Note Name: A#2
Note ON: Time 172320, Note Name: C3, Velocity: 51
Note OFF: Time 172800, Note Name: C3
Note ON: Time 172800, Note Name: C#3, Velocity: 49
Note OFF: Time 173280, Note Name: C#3
Note ON: Time 173280, Note Name: D3, Velocity: 49
Note OFF: Time 173760, Note Name: D3
Note ON: Time 173760, Note Name: D#3, Velocity: 49
Note OFF: Time 174240, Note Name: D#3
Note ON: Time 174720, Note Name: C4, Velocity: 51
Note ON: Time 174720, Note Name: G#3, Velocity: 43
Note OFF: Time 175680, Note Name: G#3
Note OFF: Time 175680, Note Name: C4
Note ON: Time 175680, Note Name: F4, Velocity: 50
Note ON: Time 175680, Note Name: C#4, Velocity: 42
Note OFF: Time 176640, Note Name: C#4
Note OFF: Time 176640, Note Name: F4
Note ON: Time 176640, Note Name: A#3, Velocity: 54
Note ON: Time 176640, Note Name: G3, Velocity: 46
Note OFF: Time 177600, Note Name: G3
Note OFF: Time 177600, Note Name: A#3
Note ON: Time 177600, Note Name: D#4, Velocity: 54
Note ON: Time 177600, Note Name: C4, Velocity: 45
Note OFF: Time 178560, Note Name: C4
Note OFF: Time 178560, Note Name: D#4
Note ON: Time 178560, Note Name: F3, Velocity: 59
Note OFF: Time 179520, Note Name: F3
Note ON: Time 179520, Note Name: G3, Velocity: 60
Note OFF: Time 180000, Note Name: G3
Note ON: Time 180000, Note Name: G#3, Velocity: 58
Note OFF: Time 180480, Note Name: G#3
Note ON: Time 180480, Note Name: A3, Velocity: 64
Note OFF: Time 180960, Note Name: A3
Note ON: Time 180960, Note Name: A#3, Velocity: 62
Note OFF: Time 181440, Note Name: A#3
Note ON: Time 181440, Note Name: D#3, Velocity: 61
Note OFF: Time 181920, Note Name: D#3
Note ON: Time 181920, Note Name: D#4, Velocity: 64
Note OFF: Time 182400, Note Name: D#4
Note ON: Time 182400, Note Name: D4, Velocity: 65
Note OFF: Time 182880, Note Name: D4
Note ON: Time 182880, Note Name: D#4, Velocity: 65
Note OFF: Time 183360, Note Name: D#4
Note ON: Time 183360, Note Name: F#4, Velocity: 65
Note OFF: Time 183840, Note Name: F#4
Note ON: Time 183840, Note Name: A3, Velocity: 61
Note OFF: Time 184320, Note Name: A3
Note ON: Time 184320, Note Name: A#3, Velocity: 62
Note OFF: Time 184560, Note Name: A#3
Note ON: Time 185760, Note Name: C#4, Velocity: 65
Note ON: Time 185760, Note Name: D#3, Velocity: 54
Note OFF: Time 186240, Note Name: D#3
Note OFF: Time 186240, Note Name: C#4
Note ON: Time 186240, Note Name: C4, Velocity: 62
Note ON: Time 186240, Note Name: G#3, Velocity: 62
Note OFF: Time 186720, Note Name: G#3
Note OFF: Time 186720, Note Name: C4
Note ON: Time 187680, Note Name: A#2, Velocity: 53
Note ON: Time 187680, Note Name: G#3, Velocity: 63
Note OFF: Time 188160, Note Name: G#3
Note OFF: Time 188160, Note Name: A#2
Note ON: Time 188160, Note Name: D#3, Velocity: 63
Note ON: Time 188160, Note Name: G3, Velocity: 63
Note OFF: Time 188640, Note Name: G3
Note OFF: Time 188640, Note Name: D#3
Note ON: Time 189360, Note Name: D#5, Velocity: 49
Note OFF: Time 189480, Note Name: D#5
Note ON: Time 189600, Note Name: F5, Velocity: 49
Note OFF: Time 189720, Note Name: F5
Note ON: Time 189840, Note Name: G5, Velocity: 49
Note OFF: Time 189960, Note Name: G5
Note ON: Time 190080, Note Name: G#5, Velocity: 49
Note OFF: Time 190320, Note Name: G#5
Note ON: Time 190320, Note Name: G5, Velocity: 49
Note OFF: Time 190560, Note Name: G5
Note ON: Time 190560, Note Name: F5, Velocity: 49
Note OFF: Time 190800, Note Name: F5
Note ON: Time 190800, Note Name: D#5, Velocity: 49
Note OFF: Time 191040, Note Name: D#5
Note ON: Time 191040, Note Name: C#5, Velocity: 49
Note OFF: Time 191280, Note Name: C#5
Note ON: Time 191280, Note Name: C5, Velocity: 49
Note OFF: Time 191520, Note Name: C5
Note ON: Time 191520, Note Name: A#4, Velocity: 49
Note OFF: Time 191760, Note Name: A#4
Note ON: Time 191760, Note Name: G#4, Velocity: 49
Note OFF: Time 192000, Note Name: G#4
Note ON: Time 192000, Note Name: G4, Velocity: 49
Note OFF: Time 192240, Note Name: G4
Note ON: Time 192240, Note Name: F4, Velocity: 49
Note OFF: Time 192480, Note Name: F4
Note ON: Time 192480, Note Name: D#4, Velocity: 49
Note OFF: Time 192720, Note Name: D#4
Note ON: Time 192720, Note Name: C#4, Velocity: 49
Note OFF: Time 192960, Note Name: C#4
Note ON: Time 192960, Note Name: C4, Velocity: 49
Note OFF: Time 193200, Note Name: C4
Note ON: Time 193200, Note Name: A#3, Velocity: 49
Note OFF: Time 193440, Note Name: A#3
Note ON: Time 193440, Note Name: G#3, Velocity: 49
Note OFF: Time 193680, Note Name: G#3
Note ON: Time 193680, Note Name: G3, Velocity: 49
Note OFF: Time 193920, Note Name: G3
Note ON: Time 193920, Note Name: F3, Velocity: 51
Note OFF: Time 194160, Note Name: F3
Note ON: Time 194160, Note Name: D#3, Velocity: 51
Note OFF: Time 194400, Note Name: D#3
Note ON: Time 194400, Note Name: C#3, Velocity: 52
Note OFF: Time 194640, Note Name: C#3
Note ON: Time 194640, Note Name: C3, Velocity: 53
Note OFF: Time 194880, Note Name: C3
Note ON: Time 194880, Note Name: A#2, Velocity: 53
Note OFF: Time 195120, Note Name: A#2
Note ON: Time 195120, Note Name: A2, Velocity: 54
Note OFF: Time 195360, Note Name: A2
Note ON: Time 195360, Note Name: A#2, Velocity: 55
Note OFF: Time 195600, Note Name: A#2
Note ON: Time 195600, Note Name: C3, Velocity: 55
Note OFF: Time 195840, Note Name: C3
Note ON: Time 195840, Note Name: C#3, Velocity: 55
Note OFF: Time 196080, Note Name: C#3
Note ON: Time 196080, Note Name: C3, Velocity: 56
Note OFF: Time 196320, Note Name: C3
Note ON: Time 196320, Note Name: C#3, Velocity: 57
Note OFF: Time 196560, Note Name: C#3
Note ON: Time 196560, Note Name: D3, Velocity: 58
Note OFF: Time 196800, Note Name: D3
Note ON: Time 196800, Note Name: D#3, Velocity: 59
Note OFF: Time 197040, Note Name: D#3
Note ON: Time 197040, Note Name: F3, Velocity: 60
Note OFF: Time 197280, Note Name: F3
Note ON: Time 197280, Note Name: F#3, Velocity: 61
Note OFF: Time 197520, Note Name: F#3
Note ON: Time 197520, Note Name: G3, Velocity: 62
Note OFF: Time 197760, Note Name: G3
Note ON: Time 197760, Note Name: G#2, Velocity: 76
Note OFF: Time 198720, Note Name: G#2
Note ON: Time 198720, Note Name: C#3, Velocity: 72
Note OFF: Time 199680, Note Name: C#3
Note ON: Time 199680, Note Name: G2, Velocity: 77
Note OFF: Time 200640, Note Name: G2
Note ON: Time 200640, Note Name: C3, Velocity: 71
Note OFF: Time 201600, Note Name: C3
Note ON: Time 201600, Note Name: F2, Velocity: 76
Note OFF: Time 202560, Note Name: F2
Note ON: Time 202560, Note Name: F1, Velocity: 76
Note ON: Time 202560, Note Name: F2, Velocity: 76
Note OFF: Time 204480, Note Name: F2
Note OFF: Time 204480, Note Name: F1
Note ON: Time 204480, Note Name: F#1, Velocity: 75
Note ON: Time 204480, Note Name: F#2, Velocity: 75
Note OFF: Time 205440, Note Name: F#2
Note OFF: Time 205440, Note Name: F#1
Note ON: Time 205440, Note Name: G1, Velocity: 75
Note OFF: Time 205920, Note Name: G1
Note ON: Time 206160, Note Name: D2, Velocity: 54
Note OFF: Time 206280, Note Name: D2
Note ON: Time 206280, Note Name: B1, Velocity: 55
Note OFF: Time 206400, Note Name: B1
Note ON: Time 206400, Note Name: G1, Velocity: 67
Note OFF: Time 206520, Note Name: G1
Note ON: Time 207120, Note Name: D#2, Velocity: 55
Note OFF: Time 207240, Note Name: D#2
Note ON: Time 207240, Note Name: C2, Velocity: 55
Note OFF: Time 207360, Note Name: C2
Note ON: Time 207360, Note Name: G1, Velocity: 69
Note OFF: Time 207480, Note Name: G1
Note ON: Time 208080, Note Name: F2, Velocity: 57
Note OFF: Time 208200, Note Name: F2
Note ON: Time 208200, Note Name: D2, Velocity: 57
Note OFF: Time 208320, Note Name: D2
Note ON: Time 208320, Note Name: G1, Velocity: 70
Note OFF: Time 208440, Note Name: G1
Note ON: Time 209040, Note Name: D#2, Velocity: 59
Note OFF: Time 209160, Note Name: D#2
Note ON: Time 209160, Note Name: C2, Velocity: 59
Note OFF: Time 209280, Note Name: C2
Note ON: Time 209280, Note Name: G1, Velocity: 81
Note OFF: Time 209400, Note Name: G1
Note ON: Time 210000, Note Name: D3, Velocity: 59
Note OFF: Time 210120, Note Name: D3
Note ON: Time 210120, Note Name: B2, Velocity: 59
Note OFF: Time 210240, Note Name: B2
Note ON: Time 210240, Note Name: G2, Velocity: 74
Note OFF: Time 210360, Note Name: G2
Note ON: Time 210960, Note Name: D#3, Velocity: 59
Note OFF: Time 211080, Note Name: D#3
Note ON: Time 211080, Note Name: C3, Velocity: 59
Note OFF: Time 211200, Note Name: C3
Note ON: Time 211200, Note Name: G2, Velocity: 76
Note OFF: Time 211320, Note Name: G2
Note ON: Time 211920, Note Name: F3, Velocity: 62
Note OFF: Time 212040, Note Name: F3
Note ON: Time 212040, Note Name: D3, Velocity: 62
Note OFF: Time 212160, Note Name: D3
Note ON: Time 212160, Note Name: G2, Velocity: 76
Note OFF: Time 212280, Note Name: G2
Note ON: Time 212880, Note Name: D#3, Velocity: 65
Note OFF: Time 213000, Note Name: D#3
Note ON: Time 213000, Note Name: C3, Velocity: 65
Note OFF: Time 213120, Note Name: C3
Note ON: Time 213120, Note Name: G2, Velocity: 88
Note OFF: Time 213240, Note Name: G2
Note ON: Time 213840, Note Name: D4, Velocity: 70
Note OFF: Time 213960, Note Name: D4
Note ON: Time 213960, Note Name: B3, Velocity: 70
Note OFF: Time 214080, Note Name: B3
Note ON: Time 214080, Note Name: G3, Velocity: 86
Note OFF: Time 214200, Note Name: G3
Note ON: Time 214800, Note Name: D#4, Velocity: 68
Note OFF: Time 214920, Note Name: D#4
Note ON: Time 214920, Note Name: C4, Velocity: 68
Note OFF: Time 215040, Note Name: C4
Note ON: Time 215040, Note Name: G3, Velocity: 86
Note OFF: Time 215160, Note Name: G3
Note ON: Time 215760, Note Name: F4, Velocity: 70
Note OFF: Time 215880, Note Name: F4
Note ON: Time 215880, Note Name: D4, Velocity: 70
Note OFF: Time 216000, Note Name: D4
Note ON: Time 216000, Note Name: G3, Velocity: 86
Note OFF: Time 216120, Note Name: G3
Note ON: Time 216720, Note Name: D#4, Velocity: 71
Note OFF: Time 216840, Note Name: D#4
Note ON: Time 216840, Note Name: C4, Velocity: 71
Note OFF: Time 216960, Note Name: C4
Note ON: Time 216960, Note Name: G3, Velocity: 80
Note OFF: Time 217080, Note Name: G3
Note ON: Time 218400, Note Name: G3, Velocity: 67
Note OFF: Time 218560, Note Name: G3
Note ON: Time 218560, Note Name: D3, Velocity: 67
Note OFF: Time 218720, Note Name: D3
Note ON: Time 218720, Note Name: B2, Velocity: 66
Note OFF: Time 218880, Note Name: B2
Note ON: Time 218880, Note Name: G2, Velocity: 80
Note OFF: Time 219360, Note Name: G2
Note ON: Time 220320, Note Name: G3, Velocity: 67
Note OFF: Time 220480, Note Name: G3
Note ON: Time 220480, Note Name: D3, Velocity: 67
Note OFF: Time 220640, Note Name: D3
Note ON: Time 220640, Note Name: B2, Velocity: 66
Note OFF: Time 220800, Note Name: B2
Note ON: Time 220800, Note Name: G2, Velocity: 80
Note OFF: Time 221280, Note Name: G2
Note ON: Time 222240, Note Name: G2, Velocity: 67
Note OFF: Time 222400, Note Name: G2
Note ON: Time 222400, Note Name: D2, Velocity: 67
Note OFF: Time 222560, Note Name: D2
Note ON: Time 222560, Note Name: B1, Velocity: 66
Note OFF: Time 222720, Note Name: B1
Note ON: Time 222720, Note Name: G1, Velocity: 80
Note OFF: Time 223200, Note Name: G1
Note ON: Time 224640, Note Name: G1, Velocity: 75
Note ON: Time 224640, Note Name: G2, Velocity: 80
Note OFF: Time 228480, Note Name: G2
Note OFF: Time 228480, Note Name: G1
Note ON: Time 228480, Note Name: G2, Velocity: 69
Note ON: Time 228480, Note Name: F3, Velocity: 82
Note ON: Time 228480, Note Name: D3, Velocity: 69
Note OFF: Time 231360, Note Name: D3
Note OFF: Time 231360, Note Name: F3
Note OFF: Time 231360, Note Name: G2
Note ON: Time 232320, Note Name: C3, Velocity: 40
Note OFF: Time 232560, Note Name: C3
Note ON: Time 232560, Note Name: D#3, Velocity: 36
Note OFF: Time 232800, Note Name: D#3
Note ON: Time 232800, Note Name: G3, Velocity: 36
Note OFF: Time 233040, Note Name: G3
Note ON: Time 233040, Note Name: C4, Velocity: 36
Note OFF: Time 233280, Note Name: C4
Note ON: Time 233280, Note Name: C3, Velocity: 40
Note OFF: Time 233520, Note Name: C3
Note ON: Time 233520, Note Name: F3, Velocity: 40
Note OFF: Time 233760, Note Name: F3
Note ON: Time 233760, Note Name: G3, Velocity: 36
Note OFF: Time 234000, Note Name: G3
Note ON: Time 234000, Note Name: B3, Velocity: 36
Note OFF: Time 234240, Note Name: B3
Note ON: Time 234240, Note Name: C3, Velocity: 40
Note OFF: Time 234480, Note Name: C3
Note ON: Time 234480, Note Name: D#3, Velocity: 40
Note OFF: Time 234720, Note Name: D#3
Note ON: Time 234720, Note Name: G3, Velocity: 36
Note OFF: Time 234960, Note Name: G3
Note ON: Time 234960, Note Name: C4, Velocity: 36
Note OFF: Time 235200, Note Name: C4
Note ON: Time 235200, Note Name: D#4, Velocity: 40
Note OFF: Time 235440, Note Name: D#4
Note ON: Time 235440, Note Name: G4, Velocity: 36
Note OFF: Time 235680, Note Name: G4
Note ON: Time 235680, Note Name: D#4, Velocity: 36
Note OFF: Time 235920, Note Name: D#4
Note ON: Time 235920, Note Name: D4, Velocity: 36
Note OFF: Time 236160, Note Name: D4
Note ON: Time 236160, Note Name: C4, Velocity: 40
Note OFF: Time 236400, Note Name: C4
Note ON: Time 236400, Note Name: G4, Velocity: 36
Note OFF: Time 236640, Note Name: G4
Note ON: Time 236640, Note Name: C4, Velocity: 36
Note ON: Time 236640, Note Name: D#4, Velocity: 36
Note OFF: Time 236880, Note Name: D#4
Note OFF: Time 236880, Note Name: C4
Note ON: Time 236880, Note Name: G4, Velocity: 36
Note OFF: Time 237120, Note Name: G4
Note ON: Time 237120, Note Name: B3, Velocity: 41
Note ON: Time 237120, Note Name: D4, Velocity: 41
Note OFF: Time 237360, Note Name: D4
Note OFF: Time 237360, Note Name: B3
Note ON: Time 237360, Note Name: G4, Velocity: 36
Note OFF: Time 237600, Note Name: G4
Note ON: Time 237600, Note Name: C4, Velocity: 36
Note ON: Time 237600, Note Name: G#3, Velocity: 36
Note OFF: Time 237840, Note Name: G#3
Note OFF: Time 237840, Note Name: C4
Note ON: Time 237840, Note Name: G4, Velocity: 36
Note OFF: Time 238080, Note Name: G4
Note ON: Time 238080, Note Name: G3, Velocity: 40
Note OFF: Time 238320, Note Name: G3
Note ON: Time 238320, Note Name: B3, Velocity: 29
Note OFF: Time 238560, Note Name: B3
Note ON: Time 238560, Note Name: D4, Velocity: 28
Note OFF: Time 238800, Note Name: D4
Note ON: Time 238800, Note Name: G4, Velocity: 28
Note OFF: Time 239040, Note Name: G4
Note ON: Time 239040, Note Name: G3, Velocity: 40
Note OFF: Time 239280, Note Name: G3
Note ON: Time 239280, Note Name: B3, Velocity: 31
Note OFF: Time 239520, Note Name: B3
Note ON: Time 239520, Note Name: D4, Velocity: 31
Note OFF: Time 239760, Note Name: D4
Note ON: Time 239760, Note Name: G4, Velocity: 31
Note OFF: Time 240000, Note Name: G4
Note ON: Time 240000, Note Name: F3, Velocity: 40
Note OFF: Time 240240, Note Name: F3
Note ON: Time 240240, Note Name: G#3, Velocity: 36
Note OFF: Time 240480, Note Name: G#3
Note ON: Time 240480, Note Name: B3, Velocity: 37
Note OFF: Time 240720, Note Name: B3
Note ON: Time 240720, Note Name: D4, Velocity: 37
Note OFF: Time 240960, Note Name: D4
Note ON: Time 240960, Note Name: F3, Velocity: 40
Note OFF: Time 241200, Note Name: F3
Note ON: Time 241200, Note Name: G#3, Velocity: 36
Note OFF: Time 241440, Note Name: G#3
Note ON: Time 241440, Note Name: B3, Velocity: 36
Note OFF: Time 241680, Note Name: B3
Note ON: Time 241680, Note Name: D4, Velocity: 36
Note OFF: Time 241920, Note Name: D4
Note ON: Time 241920, Note Name: D#3, Velocity: 40
Note OFF: Time 242160, Note Name: D#3
Note ON: Time 242160, Note Name: G3, Velocity: 34
Note OFF: Time 242400, Note Name: G3
Note ON: Time 242400, Note Name: C4, Velocity: 34
Note OFF: Time 242640, Note Name: C4
Note ON: Time 242640, Note Name: D#4, Velocity: 33
Note OFF: Time 242880, Note Name: D#4
Note ON: Time 242880, Note Name: G#3, Velocity: 41
Note OFF: Time 243120, Note Name: G#3
Note ON: Time 243120, Note Name: C4, Velocity: 35
Note OFF: Time 243360, Note Name: C4
Note ON: Time 243360, Note Name: D#4, Velocity: 35
Note OFF: Time 243600, Note Name: D#4
Note ON: Time 243600, Note Name: F#4, Velocity: 35
Note OFF: Time 243840, Note Name: F#4
Note ON: Time 243840, Note Name: G3, Velocity: 40
Note OFF: Time 244080, Note Name: G3
Note ON: Time 244080, Note Name: C4, Velocity: 40
Note OFF: Time 244320, Note Name: C4
Note ON: Time 244320, Note Name: D#4, Velocity: 35
Note OFF: Time 244560, Note Name: D#4
Note ON: Time 244560, Note Name: G4, Velocity: 35
Note OFF: Time 244800, Note Name: G4
Note ON: Time 244800, Note Name: G3, Velocity: 40
Note OFF: Time 245040, Note Name: G3
Note ON: Time 245040, Note Name: B3, Velocity: 36
Note OFF: Time 245280, Note Name: B3
Note ON: Time 245280, Note Name: D4, Velocity: 36
Note OFF: Time 245520, Note Name: D4
Note ON: Time 245520, Note Name: G4, Velocity: 36
Note OFF: Time 245760, Note Name: G4
Note ON: Time 246000, Note Name: C2, Velocity: 38
Note OFF: Time 246240, Note Name: C2
Note ON: Time 246240, Note Name: D#2, Velocity: 42
Note OFF: Time 246480, Note Name: D#2
Note ON: Time 246480, Note Name: G2, Velocity: 45
Note OFF: Time 246720, Note Name: G2
Note ON: Time 246720, Note Name: C3, Velocity: 45
Note OFF: Time 246960, Note Name: C3
Note ON: Time 246960, Note Name: D#3, Velocity: 45
Note OFF: Time 247200, Note Name: D#3
Note ON: Time 247200, Note Name: F3, Velocity: 50
Note OFF: Time 247440, Note Name: F3
Note ON: Time 247440, Note Name: G3, Velocity: 52
Note OFF: Time 247680, Note Name: G3
Note ON: Time 247680, Note Name: G#3, Velocity: 54
Note OFF: Time 248640, Note Name: G#3
Note ON: Time 248640, Note Name: D3, Velocity: 51
Note OFF: Time 249120, Note Name: D3
Note ON: Time 249120, Note Name: D#3, Velocity: 50
Note OFF: Time 249360, Note Name: D#3
Note ON: Time 249360, Note Name: F3, Velocity: 52
Note OFF: Time 249600, Note Name: F3
Note ON: Time 249600, Note Name: G3, Velocity: 54
Note OFF: Time 250560, Note Name: G3
Note ON: Time 250560, Note Name: C3, Velocity: 51
Note OFF: Time 251040, Note Name: C3
Note ON: Time 251040, Note Name: A#3, Velocity: 50
Note OFF: Time 251280, Note Name: A#3
Note ON: Time 251280, Note Name: C4, Velocity: 52
Note OFF: Time 251520, Note Name: C4
Note ON: Time 251520, Note Name: C#4, Velocity: 54
Note OFF: Time 252480, Note Name: C#4
Note ON: Time 252480, Note Name: G3, Velocity: 51
Note OFF: Time 252960, Note Name: G3
Note ON: Time 252960, Note Name: G#3, Velocity: 50
Note OFF: Time 253200, Note Name: G#3
Note ON: Time 253200, Note Name: A#3, Velocity: 52
Note OFF: Time 253440, Note Name: A#3
Note ON: Time 253440, Note Name: C4, Velocity: 54
Note OFF: Time 254400, Note Name: C4
Note ON: Time 254400, Note Name: F3, Velocity: 51
Note OFF: Time 254880, Note Name: F3
Note ON: Time 255360, Note Name: C4, Velocity: 54
Note ON: Time 255360, Note Name: G#3, Velocity: 54
Note OFF: Time 255840, Note Name: C4
Note ON: Time 255840, Note Name: F4, Velocity: 54
Note OFF: Time 256320, Note Name: F4
Note OFF: Time 256320, Note Name: G#3
Note ON: Time 256320, Note Name: C4, Velocity: 54
Note ON: Time 256320, Note Name: G#3, Velocity: 54
Note OFF: Time 256800, Note Name: C4
Note ON: Time 256800, Note Name: F#4, Velocity: 54
Note OFF: Time 257280, Note Name: F#4
Note OFF: Time 257280, Note Name: G#3
Note ON: Time 257280, Note Name: G3, Velocity: 46
Note OFF: Time 257760, Note Name: G3
Note ON: Time 257760, Note Name: G4, Velocity: 31
Note OFF: Time 258240, Note Name: G4
Note ON: Time 258240, Note Name: F4, Velocity: 42
Note OFF: Time 258720, Note Name: F4
Note ON: Time 258720, Note Name: G4, Velocity: 30
Note OFF: Time 259200, Note Name: G4
Note ON: Time 259200, Note Name: E4, Velocity: 42
Note OFF: Time 259680, Note Name: E4
Note ON: Time 259680, Note Name: G4, Velocity: 33
Note OFF: Time 260160, Note Name: G4
Note ON: Time 260160, Note Name: B3, Velocity: 41
Note OFF: Time 260640, Note Name: B3
Note ON: Time 260640, Note Name: G4, Velocity: 33
Note OFF: Time 261120, Note Name: G4
Note ON: Time 261120, Note Name: C4, Velocity: 40
Note OFF: Time 261600, Note Name: C4
Note ON: Time 261600, Note Name: G4, Velocity: 35
Note OFF: Time 262080, Note Name: G4
Note ON: Time 262080, Note Name: D5, Velocity: 40
Note ON: Time 262080, Note Name: F4, Velocity: 40
Note OFF: Time 262560, Note Name: F4
Note ON: Time 262560, Note Name: G4, Velocity: 36
Note OFF: Time 263040, Note Name: G4
Note OFF: Time 263040, Note Name: D5
Note ON: Time 263040, Note Name: C5, Velocity: 40
Note ON: Time 263040, Note Name: E4, Velocity: 40
Note OFF: Time 263520, Note Name: E4
Note ON: Time 263520, Note Name: G4, Velocity: 36
Note OFF: Time 264000, Note Name: G4
Note OFF: Time 264000, Note Name: C5
Note ON: Time 264000, Note Name: B3, Velocity: 40
Note OFF: Time 264480, Note Name: B3
Note ON: Time 264480, Note Name: G4, Velocity: 34
Note OFF: Time 264960, Note Name: G4
Note ON: Time 264960, Note Name: C4, Velocity: 41
Note OFF: Time 265440, Note Name: C4
Note ON: Time 265440, Note Name: G4, Velocity: 34
Note OFF: Time 265920, Note Name: G4
Note ON: Time 265920, Note Name: F4, Velocity: 40
Note OFF: Time 266400, Note Name: F4
Note ON: Time 266400, Note Name: G4, Velocity: 34
Note OFF: Time 266880, Note Name: G4
Note ON: Time 266880, Note Name: E4, Velocity: 42
Note OFF: Time 267360, Note Name: E4
Note ON: Time 267360, Note Name: G4, Velocity: 33
Note OFF: Time 267840, Note Name: G4
Note ON: Time 267840, Note Name: B3, Velocity: 41
Note OFF: Time 268320, Note Name: B3
Note ON: Time 268320, Note Name: G4, Velocity: 33
Note OFF: Time 268800, Note Name: G4
Note ON: Time 268800, Note Name: C4, Velocity: 40
Note OFF: Time 269280, Note Name: C4
Note ON: Time 269280, Note Name: G4, Velocity: 35
Note OFF: Time 269760, Note Name: G4
Note ON: Time 269760, Note Name: E4, Velocity: 40
Note ON: Time 269760, Note Name: C5, Velocity: 40
Note OFF: Time 270240, Note Name: C5
Note ON: Time 270240, Note Name: G4, Velocity: 36
Note OFF: Time 270720, Note Name: G4
Note OFF: Time 270720, Note Name: E4
Note ON: Time 270720, Note Name: F4, Velocity: 38
Note ON: Time 270720, Note Name: C5, Velocity: 42
Note OFF: Time 271200, Note Name: C5
Note ON: Time 271200, Note Name: A4, Velocity: 38
Note OFF: Time 271670, Note Name: F4
Note OFF: Time 271680, Note Name: A4
Note ON: Time 271680, Note Name: F4, Velocity: 37
Note ON: Time 271680, Note Name: C#5, Velocity: 44
Note OFF: Time 272160, Note Name: C#5
Note ON: Time 272160, Note Name: A4, Velocity: 38
Note OFF: Time 272640, Note Name: A4
Note OFF: Time 272640, Note Name: F4
Note ON: Time 272640, Note Name: F4, Velocity: 46
Note ON: Time 272640, Note Name: D5, Velocity: 46
Note OFF: Time 273120, Note Name: D5
Note OFF: Time 273120, Note Name: F4
Note ON: Time 273120, Note Name: A4, Velocity: 42
Note OFF: Time 273600, Note Name: A4
Note ON: Time 273600, Note Name: F4, Velocity: 48
Note OFF: Time 274080, Note Name: F4
Note ON: Time 274080, Note Name: F#4, Velocity: 41
Note OFF: Time 274560, Note Name: F#4
Note ON: Time 274560, Note Name: G4, Velocity: 55
Note OFF: Time 274710, Note Name: G4
Note ON: Time 275680, Note Name: D4, Velocity: 45
Note ON: Time 275840, Note Name: E4, Velocity: 48
Note OFF: Time 275850, Note Name: D4
Note ON: Time 276000, Note Name: F#4, Velocity: 50
Note OFF: Time 276010, Note Name: E4
Note ON: Time 276160, Note Name: E4, Velocity: 48
Note OFF: Time 276170, Note Name: F#4
Note ON: Time 276320, Note Name: D4, Velocity: 45
Note OFF: Time 276330, Note Name: E4
Note ON: Time 276480, Note Name: G4, Velocity: 55
Note OFF: Time 276490, Note Name: D4
Note OFF: Time 276630, Note Name: G4
Note ON: Time 277600, Note Name: D4, Velocity: 43
Note ON: Time 277760, Note Name: E4, Velocity: 47
Note OFF: Time 277770, Note Name: D4
Note ON: Time 277920, Note Name: F#4, Velocity: 50
Note OFF: Time 277930, Note Name: E4
Note ON: Time 278080, Note Name: E4, Velocity: 48
Note OFF: Time 278090, Note Name: F#4
Note ON: Time 278240, Note Name: D4, Velocity: 45
Note OFF: Time 278250, Note Name: E4
Note ON: Time 278400, Note Name: G4, Velocity: 55
Note OFF: Time 278410, Note Name: D4
Note OFF: Time 278550, Note Name: G4
Note ON: Time 279360, Note Name: G4, Velocity: 55
Note OFF: Time 279840, Note Name: G4
Note ON: Time 280320, Note Name: D4, Velocity: 46
Note ON: Time 280320, Note Name: G3, Velocity: 46
Note ON: Time 280320, Note Name: B3, Velocity: 46
Note ON: Time 280320, Note Name: F4, Velocity: 55
Note OFF: Time 280800, Note Name: F4
Note OFF: Time 280800, Note Name: D4
Note OFF: Time 280800, Note Name: G3
Note OFF: Time 280800, Note Name: B3
Note ON: Time 282240, Note Name: C3, Velocity: 55
Note OFF: Time 282720, Note Name: C3
Note ON: Time 283360, Note Name: G3, Velocity: 45
Note ON: Time 283520, Note Name: A3, Velocity: 48
Note OFF: Time 283530, Note Name: G3
Note ON: Time 283680, Note Name: B3, Velocity: 50
Note OFF: Time 283690, Note Name: A3
Note ON: Time 283840, Note Name: A3, Velocity: 48
Note OFF: Time 283850, Note Name: B3
Note ON: Time 284000, Note Name: G3, Velocity: 45
Note OFF: Time 284010, Note Name: A3
Note ON: Time 284160, Note Name: C4, Velocity: 55
Note OFF: Time 284170, Note Name: G3
Note OFF: Time 284640, Note Name: C4
Note ON: Time 285280, Note Name: G3, Velocity: 43
Note ON: Time 285440, Note Name: A3, Velocity: 47
Note OFF: Time 285450, Note Name: G3
Note ON: Time 285600, Note Name: B3, Velocity: 50
Note OFF: Time 285610, Note Name: A3
Note ON: Time 285760, Note Name: A3, Velocity: 48
Note OFF: Time 285770, Note Name: B3
Note ON: Time 285920, Note Name: G3, Velocity: 45
Note OFF: Time 285930, Note Name: A3
Note ON: Time 286080, Note Name: C4, Velocity: 55
Note OFF: Time 286090, Note Name: G3
Note OFF: Time 286560, Note Name: C4
Note ON: Time 287040, Note Name: C4, Velocity: 55
Note OFF: Time 287520, Note Name: C4
Note ON: Time 288000, Note Name: A#3, Velocity: 46
Note ON: Time 288000, Note Name: E3, Velocity: 46
Note ON: Time 288000, Note Name: G3, Velocity: 46
Note ON: Time 288000, Note Name: C4, Velocity: 55
Note OFF: Time 288480, Note Name: C4
Note OFF: Time 288480, Note Name: A#3
Note OFF: Time 288480, Note Name: E3
Note OFF: Time 288480, Note Name: G3
Note ON: Time 289920, Note Name: F2, Velocity: 52
Note OFF: Time 290080, Note Name: F2
Note ON: Time 290080, Note Name: A2, Velocity: 54
Note OFF: Time 290240, Note Name: A2
Note ON: Time 290240, Note Name: C3, Velocity: 56
Note OFF: Time 290400, Note Name: C3
Note ON: Time 290400, Note Name: F3, Velocity: 59
Note OFF: Time 290880, Note Name: F3
Note ON: Time 291840, Note Name: G3, Velocity: 48
Note ON: Time 291840, Note Name: C4, Velocity: 48
Note ON: Time 291840, Note Name: E4, Velocity: 57
Note OFF: Time 292320, Note Name: E4
Note OFF: Time 292320, Note Name: C4
Note OFF: Time 292320, Note Name: G3
Note ON: Time 292800, Note Name: G3, Velocity: 49
Note ON: Time 292800, Note Name: D4, Velocity: 49
Note ON: Time 292800, Note Name: F4, Velocity: 58
Note OFF: Time 293280, Note Name: F4
Note OFF: Time 293280, Note Name: D4
Note OFF: Time 293280, Note Name: G3
Note ON: Time 293760, Note Name: C4, Velocity: 49
Note ON: Time 293760, Note Name: E4, Velocity: 58
Note OFF: Time 294240, Note Name: E4
Note OFF: Time 294240, Note Name: C4
Note ON: Time 295680, Note Name: G4, Velocity: 39
Note ON: Time 295680, Note Name: F4, Velocity: 33
Note OFF: Time 295920, Note Name: F4
Note OFF: Time 295920, Note Name: G4
Note ON: Time 296160, Note Name: F4, Velocity: 34
Note ON: Time 296160, Note Name: G4, Velocity: 40
Note OFF: Time 296400, Note Name: G4
Note OFF: Time 296400, Note Name: F4
Note ON: Time 296640, Note Name: G4, Velocity: 42
Note ON: Time 296640, Note Name: F4, Velocity: 35
Note OFF: Time 296880, Note Name: F4
Note OFF: Time 296880, Note Name: G4
Note ON: Time 297120, Note Name: F4, Velocity: 36
Note ON: Time 297120, Note Name: G4, Velocity: 43
Note OFF: Time 297360, Note Name: G4
Note OFF: Time 297360, Note Name: F4
Note ON: Time 297600, Note Name: E4, Velocity: 37
Note ON: Time 297600, Note Name: G4, Velocity: 45
Note OFF: Time 299030, Note Name: G4
Note OFF: Time 299030, Note Name: E4
Note ON: Time 299040, Note Name: E4, Velocity: 42
Note OFF: Time 299520, Note Name: E4
Note ON: Time 299520, Note Name: A4, Velocity: 45
Note OFF: Time 300461, Note Name: A4
Note ON: Time 300480, Note Name: A4, Velocity: 43
Note OFF: Time 301421, Note Name: A4
Note ON: Time 301440, Note Name: G4, Velocity: 43
Note OFF: Time 301920, Note Name: G4
Note ON: Time 303360, Note Name: G3, Velocity: 39
Note ON: Time 303360, Note Name: F3, Velocity: 33
Note OFF: Time 303600, Note Name: F3
Note OFF: Time 303600, Note Name: G3
Note ON: Time 303840, Note Name: F3, Velocity: 34
Note ON: Time 303840, Note Name: G3, Velocity: 40
Note OFF: Time 304080, Note Name: G3
Note OFF: Time 304080, Note Name: F3
Note ON: Time 304320, Note Name: G3, Velocity: 42
Note ON: Time 304320, Note Name: F3, Velocity: 35
Note OFF: Time 304560, Note Name: F3
Note OFF: Time 304560, Note Name: G3
Note ON: Time 304800, Note Name: F3, Velocity: 36
Note ON: Time 304800, Note Name: G3, Velocity: 43
Note OFF: Time 305040, Note Name: G3
Note OFF: Time 305040, Note Name: F3
Note ON: Time 305280, Note Name: D#3, Velocity: 37
Note ON: Time 305280, Note Name: G3, Velocity: 45
Note OFF: Time 306720, Note Name: G3
Note OFF: Time 306720, Note Name: D#3
Note ON: Time 306720, Note Name: D#3, Velocity: 41
Note OFF: Time 307200, Note Name: D#3
Note ON: Time 307200, Note Name: G#3, Velocity: 39
Note OFF: Time 307440, Note Name: G#3
Note ON: Time 307680, Note Name: G#3, Velocity: 44
Note OFF: Time 307920, Note Name: G#3
Note ON: Time 308160, Note Name: A#3, Velocity: 44
Note ON: Time 308160, Note Name: G#3, Velocity: 44
Note OFF: Time 308400, Note Name: G#3
Note OFF: Time 308400, Note Name: A#3
Note ON: Time 308640, Note Name: G#3, Velocity: 46
Note ON: Time 308640, Note Name: A#3, Velocity: 46
Note OFF: Time 308880, Note Name: A#3
Note OFF: Time 308880, Note Name: G#3
Note ON: Time 309120, Note Name: G3, Velocity: 50
Note ON: Time 309120, Note Name: A#3, Velocity: 50
Note OFF: Time 310560, Note Name: A#3
Note OFF: Time 310560, Note Name: G3
Note ON: Time 310560, Note Name: G3, Velocity: 51
Note OFF: Time 311040, Note Name: G3
Note ON: Time 311040, Note Name: C4, Velocity: 47
Note OFF: Time 311280, Note Name: C4
Note ON: Time 311520, Note Name: C4, Velocity: 48
Note ON: Time 311520, Note Name: D#4, Velocity: 48
Note OFF: Time 311760, Note Name: D#4
Note OFF: Time 311760, Note Name: C4
Note ON: Time 312000, Note Name: D#4, Velocity: 50
Note ON: Time 312000, Note Name: C4, Velocity: 50
Note OFF: Time 312240, Note Name: C4
Note OFF: Time 312240, Note Name: D#4
Note ON: Time 312480, Note Name: C4, Velocity: 51
Note ON: Time 312480, Note Name: D#4, Velocity: 51
Note OFF: Time 312720, Note Name: D#4
Note OFF: Time 312720, Note Name: C4
Note ON: Time 312960, Note Name: B3, Velocity: 54
Note ON: Time 312960, Note Name: D4, Velocity: 54
Note OFF: Time 314400, Note Name: D4
Note OFF: Time 314400, Note Name: B3
Note ON: Time 314400, Note Name: C4, Velocity: 53
Note ON: Time 314400, Note Name: D#4, Velocity: 53
Note OFF: Time 314880, Note Name: D#4
Note OFF: Time 314880, Note Name: C4
Note ON: Time 314880, Note Name: B3, Velocity: 55
Note ON: Time 314880, Note Name: D4, Velocity: 55
Note OFF: Time 316320, Note Name: D4
Note OFF: Time 316320, Note Name: B3
Note ON: Time 316320, Note Name: F4, Velocity: 54
Note ON: Time 316320, Note Name: G#4, Velocity: 54
Note OFF: Time 316800, Note Name: G#4
Note OFF: Time 316800, Note Name: F4
Note ON: Time 316800, Note Name: D#4, Velocity: 56
Note ON: Time 316800, Note Name: G4, Velocity: 56
Note OFF: Time 318240, Note Name: G4
Note OFF: Time 318240, Note Name: D#4
Note ON: Time 318240, Note Name: F4, Velocity: 49
Note ON: Time 318240, Note Name: G#4, Velocity: 49
Note OFF: Time 318720, Note Name: G#4
Note OFF: Time 318720, Note Name: F4
Note ON: Time 318720, Note Name: D#4, Velocity: 52
Note ON: Time 318720, Note Name: G4, Velocity: 52
Note OFF: Time 320160, Note Name: G4
Note OFF: Time 320160, Note Name: D#4
Note ON: Time 320160, Note Name: F4, Velocity: 36
Note ON: Time 320160, Note Name: G#4, Velocity: 43
Note OFF: Time 320640, Note Name: G#4
Note OFF: Time 320640, Note Name: F4
Note ON: Time 327840, Note Name: G2, Velocity: 42
Note OFF: Time 328320, Note Name: G2
Note ON: Time 328320, Note Name: C3, Velocity: 40
Note OFF: Time 328560, Note Name: C3
Note ON: Time 328560, Note Name: D#3, Velocity: 36
Note OFF: Time 328800, Note Name: D#3
Note ON: Time 328800, Note Name: G3, Velocity: 36
Note OFF: Time 329040, Note Name: G3
Note ON: Time 329040, Note Name: C4, Velocity: 36
Note OFF: Time 329280, Note Name: C4
Note ON: Time 329280, Note Name: C3, Velocity: 40
Note OFF: Time 329520, Note Name: C3
Note ON: Time 329520, Note Name: F3, Velocity: 40
Note OFF: Time 329760, Note Name: F3
Note ON: Time 329760, Note Name: G3, Velocity: 36
Note OFF: Time 330000, Note Name: G3
Note ON: Time 330000, Note Name: B3, Velocity: 36
Note OFF: Time 330240, Note Name: B3
Note ON: Time 330240, Note Name: C3, Velocity: 40
Note OFF: Time 330480, Note Name: C3
Note ON: Time 330480, Note Name: D#3, Velocity: 40
Note OFF: Time 330720, Note Name: D#3
Note ON: Time 330720, Note Name: G3, Velocity: 36
Note OFF: Time 330960, Note Name: G3
Note ON: Time 330960, Note Name: C4, Velocity: 36
Note OFF: Time 331200, Note Name: C4
Note ON: Time 331200, Note Name: D#4, Velocity: 40
Note OFF: Time 331440, Note Name: D#4
Note ON: Time 331440, Note Name: G4, Velocity: 36
Note OFF: Time 331680, Note Name: G4
Note ON: Time 331680, Note Name: D#4, Velocity: 36
Note OFF: Time 331920, Note Name: D#4
Note ON: Time 331920, Note Name: D4, Velocity: 36
Note OFF: Time 332160, Note Name: D4
Note ON: Time 332160, Note Name: C4, Velocity: 40
Note OFF: Time 332400, Note Name: C4
Note ON: Time 332400, Note Name: G4, Velocity: 36
Note OFF: Time 332640, Note Name: G4
Note ON: Time 332640, Note Name: C4, Velocity: 36
Note ON: Time 332640, Note Name: D#4, Velocity: 36
Note OFF: Time 332880, Note Name: D#4
Note OFF: Time 332880, Note Name: C4
Note ON: Time 332880, Note Name: G4, Velocity: 36
Note OFF: Time 333120, Note Name: G4
Note ON: Time 333120, Note Name: B3, Velocity: 41
Note ON: Time 333120, Note Name: D4, Velocity: 41
Note OFF: Time 333360, Note Name: D4
Note OFF: Time 333360, Note Name: B3
Note ON: Time 333360, Note Name: G4, Velocity: 36
Note OFF: Time 333600, Note Name: G4
Note ON: Time 333600, Note Name: C4, Velocity: 36
Note ON: Time 333600, Note Name: G#3, Velocity: 36
Note OFF: Time 333840, Note Name: G#3
Note OFF: Time 333840, Note Name: C4
Note ON: Time 333840, Note Name: G4, Velocity: 36
Note OFF: Time 334080, Note Name: G4
Note ON: Time 334080, Note Name: G3, Velocity: 40
Note OFF: Time 334320, Note Name: G3
Note ON: Time 334320, Note Name: B3, Velocity: 29
Note OFF: Time 334560, Note Name: B3
Note ON: Time 334560, Note Name: D4, Velocity: 28
Note OFF: Time 334800, Note Name: D4
Note ON: Time 334800, Note Name: G4, Velocity: 28
Note OFF: Time 335040, Note Name: G4
Note ON: Time 335040, Note Name: G3, Velocity: 40
Note OFF: Time 335280, Note Name: G3
Note ON: Time 335280, Note Name: B3, Velocity: 31
Note OFF: Time 335520, Note Name: B3
Note ON: Time 335520, Note Name: D4, Velocity: 31
Note OFF: Time 335760, Note Name: D4
Note ON: Time 335760, Note Name: G4, Velocity: 31
Note OFF: Time 336000, Note Name: G4
Note ON: Time 336000, Note Name: F3, Velocity: 40
Note OFF: Time 336240, Note Name: F3
Note ON: Time 336240, Note Name: G#3, Velocity: 36
Note OFF: Time 336480, Note Name: G#3
Note ON: Time 336480, Note Name: B3, Velocity: 37
Note OFF: Time 336720, Note Name: B3
Note ON: Time 336720, Note Name: D4, Velocity: 37
Note OFF: Time 336960, Note Name: D4
Note ON: Time 336960, Note Name: F3, Velocity: 40
Note OFF: Time 337200, Note Name: F3
Note ON: Time 337200, Note Name: G#3, Velocity: 36
Note OFF: Time 337440, Note Name: G#3
Note ON: Time 337440, Note Name: B3, Velocity: 36
Note OFF: Time 337680, Note Name: B3
Note ON: Time 337680, Note Name: D4, Velocity: 36
Note OFF: Time 337920, Note Name: D4
Note ON: Time 337920, Note Name: D#3, Velocity: 40
Note OFF: Time 338160, Note Name: D#3
Note ON: Time 338160, Note Name: G3, Velocity: 34
Note OFF: Time 338400, Note Name: G3
Note ON: Time 338400, Note Name: C4, Velocity: 34
Note OFF: Time 338640, Note Name: C4
Note ON: Time 338640, Note Name: D#4, Velocity: 33
Note OFF: Time 338880, Note Name: D#4
Note ON: Time 338880, Note Name: G#3, Velocity: 41
Note OFF: Time 339120, Note Name: G#3
Note ON: Time 339120, Note Name: C4, Velocity: 35
Note OFF: Time 339360, Note Name: C4
Note ON: Time 339360, Note Name: D#4, Velocity: 35
Note OFF: Time 339600, Note Name: D#4
Note ON: Time 339600, Note Name: F#4, Velocity: 35
Note OFF: Time 339840, Note Name: F#4
Note ON: Time 339840, Note Name: G3, Velocity: 40
Note OFF: Time 340080, Note Name: G3
Note ON: Time 340080, Note Name: C4, Velocity: 40
Note OFF: Time 340320, Note Name: C4
Note ON: Time 340320, Note Name: D#4, Velocity: 35
Note OFF: Time 340560, Note Name: D#4
Note ON: Time 340560, Note Name: G4, Velocity: 35
Note OFF: Time 340800, Note Name: G4
Note ON: Time 340800, Note Name: G3, Velocity: 40
Note OFF: Time 341040, Note Name: G3
Note ON: Time 341040, Note Name: B3, Velocity: 36
Note OFF: Time 341280, Note Name: B3
Note ON: Time 341280, Note Name: D4, Velocity: 36
Note OFF: Time 341520, Note Name: D4
Note ON: Time 341520, Note Name: G4, Velocity: 36
Note OFF: Time 341760, Note Name: G4
Note ON: Time 341760, Note Name: C4, Velocity: 57
Note OFF: Time 342240, Note Name: C4
Note ON: Time 343680, Note Name: F2, Velocity: 58
Note OFF: Time 343920, Note Name: F2
Note ON: Time 343920, Note Name: G#2, Velocity: 48
Note OFF: Time 344160, Note Name: G#2
Note ON: Time 344160, Note Name: B2, Velocity: 49
Note OFF: Time 344400, Note Name: B2
Note ON: Time 344400, Note Name: D3, Velocity: 51
Note OFF: Time 344640, Note Name: D3
Note ON: Time 344640, Note Name: F2, Velocity: 53
Note OFF: Time 344880, Note Name: F2
Note ON: Time 344880, Note Name: G#2, Velocity: 54
Note OFF: Time 345120, Note Name: G#2
Note ON: Time 345120, Note Name: B2, Velocity: 56
Note OFF: Time 345360, Note Name: B2
Note ON: Time 345360, Note Name: D3, Velocity: 57
Note OFF: Time 345600, Note Name: D3
Note ON: Time 345600, Note Name: D#2, Velocity: 58
Note OFF: Time 345840, Note Name: D#2
Note ON: Time 345840, Note Name: G2, Velocity: 57
Note OFF: Time 346080, Note Name: G2
Note ON: Time 346080, Note Name: C3, Velocity: 55
Note OFF: Time 346320, Note Name: C3
Note ON: Time 346320, Note Name: D#3, Velocity: 56
Note OFF: Time 346560, Note Name: D#3
Note ON: Time 346560, Note Name: G#2, Velocity: 57
Note OFF: Time 346800, Note Name: G#2
Note ON: Time 346800, Note Name: C3, Velocity: 57
Note OFF: Time 347040, Note Name: C3
Note ON: Time 347040, Note Name: D#3, Velocity: 58
Note OFF: Time 347280, Note Name: D#3
Note ON: Time 347280, Note Name: F#3, Velocity: 60
Note OFF: Time 347520, Note Name: F#3
Note ON: Time 347520, Note Name: G2, Velocity: 64
Note OFF: Time 347760, Note Name: G2
Note ON: Time 347760, Note Name: C3, Velocity: 58
Note OFF: Time 348000, Note Name: C3
Note ON: Time 348000, Note Name: D#3, Velocity: 63
Note OFF: Time 348240, Note Name: D#3
Note ON: Time 348240, Note Name: G3, Velocity: 63
Note OFF: Time 348480, Note Name: G3
Note ON: Time 348480, Note Name: G2, Velocity: 62
Note OFF: Time 348720, Note Name: G2
Note ON: Time 348720, Note Name: G3, Velocity: 61
Note OFF: Time 348960, Note Name: G3
Note ON: Time 348960, Note Name: G2, Velocity: 58
Note OFF: Time 349200, Note Name: G2
Note ON: Time 349200, Note Name: G3, Velocity: 57
Note OFF: Time 349440, Note Name: G3
Note ON: Time 349440, Note Name: C3, Velocity: 67
Note OFF: Time 349680, Note Name: C3
Note ON: Time 349680, Note Name: C4, Velocity: 52
Note OFF: Time 349920, Note Name: C4
Note ON: Time 349920, Note Name: B3, Velocity: 60
Note OFF: Time 350160, Note Name: B3
Note ON: Time 350160, Note Name: C4, Velocity: 52
Note OFF: Time 350400, Note Name: C4
Note ON: Time 350400, Note Name: A#3, Velocity: 64
Note OFF: Time 350640, Note Name: A#3
Note ON: Time 350640, Note Name: C4, Velocity: 51
Note OFF: Time 350880, Note Name: C4
Note ON: Time 350880, Note Name: G3, Velocity: 57
Note OFF: Time 351120, Note Name: G3
Note ON: Time 351120, Note Name: C4, Velocity: 50
Note OFF: Time 351360, Note Name: C4
Note ON: Time 351360, Note Name: G#3, Velocity: 63
Note OFF: Time 351600, Note Name: G#3
Note ON: Time 351600, Note Name: C4, Velocity: 50
Note OFF: Time 351840, Note Name: C4
Note ON: Time 351840, Note Name: F3, Velocity: 57
Note OFF: Time 352080, Note Name: F3
Note ON: Time 352080, Note Name: C4, Velocity: 50
Note OFF: Time 352320, Note Name: C4
Note ON: Time 352320, Note Name: A#3, Velocity: 59
Note OFF: Time 352560, Note Name: A#3
Note ON: Time 352560, Note Name: C4, Velocity: 50
Note OFF: Time 352800, Note Name: C4
Note ON: Time 352800, Note Name: G3, Velocity: 55
Note OFF: Time 353040, Note Name: G3
Note ON: Time 353040, Note Name: C4, Velocity: 50
Note OFF: Time 353280, Note Name: C4
Note ON: Time 353280, Note Name: G#3, Velocity: 63
Note OFF: Time 353520, Note Name: G#3
Note ON: Time 353520, Note Name: C4, Velocity: 50
Note OFF: Time 353760, Note Name: C4
Note ON: Time 353760, Note Name: F3, Velocity: 57
Note OFF: Time 354000, Note Name: F3
Note ON: Time 354000, Note Name: C4, Velocity: 50
Note OFF: Time 354240, Note Name: C4
Note ON: Time 354240, Note Name: A#3, Velocity: 59
Note OFF: Time 354480, Note Name: A#3
Note ON: Time 354480, Note Name: C4, Velocity: 50
Note OFF: Time 354720, Note Name: C4
Note ON: Time 354720, Note Name: G3, Velocity: 55
Note OFF: Time 354960, Note Name: G3
Note ON: Time 354960, Note Name: C4, Velocity: 50
Note OFF: Time 355200, Note Name: C4
Note ON: Time 355200, Note Name: G#3, Velocity: 77
Note OFF: Time 355440, Note Name: G#3
Note ON: Time 355680, Note Name: G#2, Velocity: 62
Note ON: Time 355680, Note Name: C3, Velocity: 62
Note ON: Time 355680, Note Name: D#3, Velocity: 62
Note ON: Time 355680, Note Name: G#3, Velocity: 73
Note OFF: Time 355920, Note Name: G#3
Note OFF: Time 355920, Note Name: G#2
Note OFF: Time 355920, Note Name: C3
Note OFF: Time 355920, Note Name: D#3
Note ON: Time 356160, Note Name: G2, Velocity: 62
Note ON: Time 356160, Note Name: C3, Velocity: 62
Note ON: Time 356160, Note Name: D#3, Velocity: 62
Note ON: Time 356160, Note Name: G3, Velocity: 73
Note OFF: Time 356400, Note Name: G3
Note OFF: Time 356400, Note Name: G2
Note OFF: Time 356400, Note Name: C3
Note OFF: Time 356400, Note Name: D#3
Note ON: Time 356640, Note Name: G2, Velocity: 62
Note ON: Time 356640, Note Name: B2, Velocity: 62
Note ON: Time 356640, Note Name: D3, Velocity: 62
Note ON: Time 356640, Note Name: G3, Velocity: 73
Note OFF: Time 356880, Note Name: G3
Note OFF: Time 356880, Note Name: G2
Note OFF: Time 356880, Note Name: B2
Note OFF: Time 356880, Note Name: D3
Note ON: Time 357120, Note Name: C2, Velocity: 76
Note OFF: Time 357360, Note Name: C2
Note ON: Time 357360, Note Name: C3, Velocity: 52
Note OFF: Time 357600, Note Name: C3
Note ON: Time 357600, Note Name: B2, Velocity: 60
Note OFF: Time 357840, Note Name: B2
Note ON: Time 357840, Note Name: C3, Velocity: 52
Note OFF: Time 358080, Note Name: C3
Note ON: Time 358080, Note Name: A#2, Velocity: 64
Note OFF: Time 358320, Note Name: A#2
Note ON: Time 358320, Note Name: C3, Velocity: 51
Note OFF: Time 358560, Note Name: C3
Note ON: Time 358560, Note Name: G2, Velocity: 57
Note OFF: Time 358800, Note Name: G2
Note ON: Time 358800, Note Name: C3, Velocity: 50
Note OFF: Time 359040, Note Name: C3
Note ON: Time 359040, Note Name: G#2, Velocity: 63
Note OFF: Time 359280, Note Name: G#2
Note ON: Time 359280, Note Name: C3, Velocity: 50
Note OFF: Time 359520, Note Name: C3
Note ON: Time 359520, Note Name: F2, Velocity: 57
Note OFF: Time 359760, Note Name: F2
Note ON: Time 359760, Note Name: C3, Velocity: 50
Note OFF: Time 360000, Note Name: C3
Note ON: Time 360000, Note Name: A#2, Velocity: 59
Note OFF: Time 360240, Note Name: A#2
Note ON: Time 360240, Note Name: C3, Velocity: 50
Note OFF: Time 360480, Note Name: C3
Note ON: Time 360480, Note Name: G2, Velocity: 55
Note OFF: Time 360720, Note Name: G2
Note ON: Time 360720, Note Name: C3, Velocity: 50
Note OFF: Time 360960, Note Name: C3
Note ON: Time 360960, Note Name: G#2, Velocity: 63
Note OFF: Time 361200, Note Name: G#2
Note ON: Time 361200, Note Name: C3, Velocity: 50
Note OFF: Time 361440, Note Name: C3
Note ON: Time 361440, Note Name: F2, Velocity: 57
Note OFF: Time 361680, Note Name: F2
Note ON: Time 361680, Note Name: C3, Velocity: 50
Note OFF: Time 361920, Note Name: C3
Note ON: Time 361920, Note Name: A#2, Velocity: 59
Note OFF: Time 362160, Note Name: A#2
Note ON: Time 362160, Note Name: C3, Velocity: 50
Note OFF: Time 362400, Note Name: C3
Note ON: Time 362400, Note Name: G2, Velocity: 55
Note OFF: Time 362640, Note Name: G2
Note ON: Time 362640, Note Name: C3, Velocity: 50
Note OFF: Time 362880, Note Name: C3
Note ON: Time 362880, Note Name: G#2, Velocity: 45
Note OFF: Time 363360, Note Name: G#2
Note ON: Time 363360, Note Name: G#2, Velocity: 45
Note ON: Time 363360, Note Name: G#3, Velocity: 45
Note OFF: Time 363840, Note Name: G#3
Note OFF: Time 363840, Note Name: G#2
Note ON: Time 364320, Note Name: G#2, Velocity: 41
Note ON: Time 364320, Note Name: C3, Velocity: 41
Note ON: Time 364320, Note Name: D#3, Velocity: 41
Note ON: Time 364320, Note Name: G#3, Velocity: 49
Note OFF: Time 364560, Note Name: G#3
Note OFF: Time 364560, Note Name: G#2
Note OFF: Time 364560, Note Name: C3
Note OFF: Time 364560, Note Name: D#3
Note ON: Time 365280, Note Name: G2, Velocity: 44
Note ON: Time 365280, Note Name: C3, Velocity: 44
Note ON: Time 365280, Note Name: D#3, Velocity: 44
Note ON: Time 365280, Note Name: G3, Velocity: 52
Note OFF: Time 365520, Note Name: G3
Note OFF: Time 365520, Note Name: G2
Note OFF: Time 365520, Note Name: C3
Note OFF: Time 365520, Note Name: D#3
Note ON: Time 366240, Note Name: F#2, Velocity: 46
Note ON: Time 366240, Note Name: C3, Velocity: 46
Note ON: Time 366240, Note Name: D#3, Velocity: 46
Note ON: Time 366240, Note Name: F#3, Velocity: 55
Note OFF: Time 366480, Note Name: F#3
Note OFF: Time 366480, Note Name: F#2
Note OFF: Time 366480, Note Name: C3
Note OFF: Time 366480, Note Name: D#3
Note ON: Time 367200, Note Name: F2, Velocity: 48
Note ON: Time 367200, Note Name: B2, Velocity: 48
Note ON: Time 367200, Note Name: D3, Velocity: 48
Note ON: Time 367200, Note Name: F3, Velocity: 57
Note OFF: Time 367440, Note Name: F3
Note OFF: Time 367440, Note Name: F2
Note OFF: Time 367440, Note Name: B2
Note OFF: Time 367440, Note Name: D3
Note ON: Time 368160, Note Name: D#2, Velocity: 51
Note ON: Time 368160, Note Name: G2, Velocity: 51
Note ON: Time 368160, Note Name: C3, Velocity: 51
Note ON: Time 368160, Note Name: D#3, Velocity: 60
Note OFF: Time 368400, Note Name: D#3
Note OFF: Time 368400, Note Name: D#2
Note OFF: Time 368400, Note Name: G2
Note OFF: Time 368400, Note Name: C3
Note ON: Time 369120, Note Name: F2, Velocity: 53
Note ON: Time 369120, Note Name: G#2, Velocity: 53
Note ON: Time 369120, Note Name: D3, Velocity: 53
Note ON: Time 369120, Note Name: F3, Velocity: 63
Note OFF: Time 369360, Note Name: F3
Note OFF: Time 369360, Note Name: F2
Note OFF: Time 369360, Note Name: G#2
Note OFF: Time 369360, Note Name: D3
Note ON: Time 370080, Note Name: G2, Velocity: 56
Note ON: Time 370080, Note Name: B2, Velocity: 56
Note ON: Time 370080, Note Name: D3, Velocity: 56
Note ON: Time 370080, Note Name: G3, Velocity: 66
Note OFF: Time 370320, Note Name: G3
Note OFF: Time 370320, Note Name: G2
Note OFF: Time 370320, Note Name: B2
Note OFF: Time 370320, Note Name: D3
Note ON: Time 370560, Note Name: C2, Velocity: 65
Note ON: Time 370560, Note Name: C3, Velocity: 77
Note OFF: Time 370800, Note Name: C3
Note OFF: Time 370800, Note Name: C2
Note ON: Time 371040, Note Name: D#3, Velocity: 70
Note ON: Time 371040, Note Name: G3, Velocity: 70
Note ON: Time 371040, Note Name: C4, Velocity: 83
Note OFF: Time 372480, Note Name: C4
Note OFF: Time 372480, Note Name: G3
Note OFF: Time 372480, Note Name: D#3
Note ON: Time 372480, Note Name: F3, Velocity: 65
Note ON: Time 372480, Note Name: G#3, Velocity: 65
Note ON: Time 372480, Note Name: C4, Velocity: 65
Note ON: Time 372480, Note Name: D4, Velocity: 77
Note OFF: Time 372720, Note Name: D4
Note OFF: Time 372720, Note Name: F3
Note OFF: Time 372720, Note Name: G#3
Note OFF: Time 372720, Note Name: C4
Note ON: Time 372960, Note Name: G3, Velocity: 70
Note ON: Time 372960, Note Name: B3, Velocity: 70
Note ON: Time 372960, Note Name: D4, Velocity: 83
Note OFF: Time 374400, Note Name: D4
Note OFF: Time 374400, Note Name: B3
Note OFF: Time 374400, Note Name: G3
Note ON: Time 374400, Note Name: D#3, Velocity: 65
Note ON: Time 374400, Note Name: G3, Velocity: 65
Note ON: Time 374400, Note Name: C4, Velocity: 77
Note OFF: Time 374640, Note Name: C4
Note OFF: Time 374640, Note Name: G3
Note OFF: Time 374640, Note Name: D#3
Note ON: Time 374880, Note Name: D#3, Velocity: 70
Note ON: Time 374880, Note Name: G3, Velocity: 70
Note ON: Time 374880, Note Name: C4, Velocity: 83
Note OFF: Time 376320, Note Name: C4
Note OFF: Time 376320, Note Name: G3
Note OFF: Time 376320, Note Name: D#3
Note ON: Time 376320, Note Name: F3, Velocity: 65
Note ON: Time 376320, Note Name: G#3, Velocity: 65
Note ON: Time 376320, Note Name: C4, Velocity: 65
Note ON: Time 376320, Note Name: D4, Velocity: 77
Note OFF: Time 376560, Note Name: D4
Note OFF: Time 376560, Note Name: F3
Note OFF: Time 376560, Note Name: G#3
Note OFF: Time 376560, Note Name: C4
Note ON: Time 376800, Note Name: G3, Velocity: 70
Note ON: Time 376800, Note Name: B3, Velocity: 70
Note ON: Time 376800, Note Name: D4, Velocity: 83
Note OFF: Time 378240, Note Name: D4
Note OFF: Time 378240, Note Name: B3
Note OFF: Time 378240, Note Name: G3
Note ON: Time 378240, Note Name: D#3, Velocity: 65
Note ON: Time 378240, Note Name: G3, Velocity: 65
Note ON: Time 378240, Note Name: C4, Velocity: 77
Note OFF: Time 378480, Note Name: C4
Note OFF: Time 378480, Note Name: G3
Note OFF: Time 378480, Note Name: D#3
Note ON: Time 378720, Note Name: D#3, Velocity: 70
Note ON: Time 378720, Note Name: G3, Velocity: 70
Note ON: Time 378720, Note Name: C4, Velocity: 83
Note OFF: Time 380160, Note Name: C4
Note OFF: Time 380160, Note Name: G3
Note OFF: Time 380160, Note Name: D#3
Note ON: Time 380160, Note Name: F3, Velocity: 65
Note ON: Time 380160, Note Name: G#3, Velocity: 65
Note ON: Time 380160, Note Name: C#4, Velocity: 77
Note OFF: Time 380400, Note Name: C#4
Note OFF: Time 380400, Note Name: G#3
Note OFF: Time 380400, Note Name: F3
Note ON: Time 380640, Note Name: F3, Velocity: 70
Note ON: Time 380640, Note Name: G#3, Velocity: 70
Note ON: Time 380640, Note Name: C#4, Velocity: 83
Note OFF: Time 381600, Note Name: C#4
Note OFF: Time 381600, Note Name: G#3
Note OFF: Time 381600, Note Name: F3
Note ON: Time 381600, Note Name: F3, Velocity: 71
Note ON: Time 381600, Note Name: G#3, Velocity: 71
Note ON: Time 381600, Note Name: C#4, Velocity: 84
Note OFF: Time 381840, Note Name: C#4
Note OFF: Time 381840, Note Name: G#3
Note OFF: Time 381840, Note Name: F3
Note ON: Time 382080, Note Name: G3, Velocity: 77
Note ON: Time 382080, Note Name: A#3, Velocity: 77
Note ON: Time 382080, Note Name: C#4, Velocity: 77
Note ON: Time 382080, Note Name: D#4, Velocity: 91
Note OFF: Time 384960, Note Name: D#4
Note OFF: Time 384960, Note Name: G3
Note OFF: Time 384960, Note Name: A#3
Note OFF: Time 384960, Note Name: C#4
Note ON: Time 385920, Note Name: G1, Velocity: 69
Note ON: Time 385920, Note Name: D#2, Velocity: 69
Note ON: Time 385920, Note Name: G2, Velocity: 82
Note OFF: Time 388800, Note Name: G2
Note OFF: Time 388800, Note Name: D#2
Note OFF: Time 388800, Note Name: G1
Note ON: Time 389760, Note Name: G#2, Velocity: 40
Note ON: Time 389760, Note Name: D#3, Velocity: 40
Note OFF: Time 390720, Note Name: D#3
Note ON: Time 390720, Note Name: C#3, Velocity: 40
Note OFF: Time 391680, Note Name: C#3
Note OFF: Time 391680, Note Name: G#2
Note ON: Time 391680, Note Name: G#2, Velocity: 40
Note ON: Time 391680, Note Name: C3, Velocity: 40
Note OFF: Time 392160, Note Name: C3
Note OFF: Time 392160, Note Name: G#2
Note ON: Time 393600, Note Name: G#3, Velocity: 38
Note ON: Time 393600, Note Name: D#4, Velocity: 38
Note OFF: Time 394560, Note Name: D#4
Note ON: Time 394560, Note Name: C#4, Velocity: 37
Note OFF: Time 395520, Note Name: C#4
Note OFF: Time 395520, Note Name: G#3
Note ON: Time 395520, Note Name: G#3, Velocity: 36
Note ON: Time 395520, Note Name: C4, Velocity: 36
Note OFF: Time 396000, Note Name: C4
Note OFF: Time 396000, Note Name: G#3
Note ON: Time 397440, Note Name: G#4, Velocity: 35
Note OFF: Time 397920, Note Name: G#4
Note ON: Time 399360, Note Name: G4, Velocity: 34
Note OFF: Time 399840, Note Name: G4
Note ON: Time 401280, Note Name: G2, Velocity: 67
Note ON: Time 401280, Note Name: B2, Velocity: 67
Note ON: Time 401280, Note Name: D3, Velocity: 67
Note ON: Time 401280, Note Name: G3, Velocity: 79
Note OFF: Time 401760, Note Name: G3
Note OFF: Time 401760, Note Name: G2
Note OFF: Time 401760, Note Name: B2
Note OFF: Time 401760, Note Name: D3
Note ON: Time 403200, Note Name: C2, Velocity: 69
Note ON: Time 403200, Note Name: D#2, Velocity: 69
Note ON: Time 403200, Note Name: G2, Velocity: 69
Note ON: Time 403200, Note Name: C3, Velocity: 82
Note OFF: Time 403680, Note Name: C3
Note OFF: Time 403680, Note Name: C2
Note OFF: Time 403680, Note Name: D#2
Note OFF: Time 403680, Note Name: G2
Track 3: Pedale
Track 4: Beethoven Sonata No. 8 C minor, Grand Sonate pathtique 3. Movement
Track 5: Copyright  2003 by Bernd Krueger
Track 6: http://www.piano-midi.de
Track 7: Edition: 2012-05-21
Track 8: Spur 8
