Processing pathetique_1.mid...

Track 0: Beethoven Sonata No. 8 in C minor "Pathetique"
Track 1: Piano right
Note ON: Time 0, Note Name: D#3, Velocity: 79
Note ON: Time 0, Note Name: G3, Velocity: 79
Note ON: Time 0, Note Name: C4, Velocity: 93
Note OFF: Time 1320, Note Name: C4
Note OFF: Time 1320, Note Name: G3
Note OFF: Time 1320, Note Name: D#3
Note ON: Time 1320, Note Name: G3, Velocity: 40
Note ON: Time 1320, Note Name: C4, Velocity: 47
Note OFF: Time 1440, Note Name: C4
Note OFF: Time 1440, Note Name: G3
Note ON: Time 1440, Note Name: G3, Velocity: 42
Note ON: Time 1440, Note Name: B3, Velocity: 42
Note ON: Time 1440, Note Name: D4, Velocity: 50
Note OFF: Time 1800, Note Name: D4
Note OFF: Time 1800, Note Name: B3
Note OFF: Time 1800, Note Name: G3
Note ON: Time 1800, Note Name: G3, Velocity: 39
Note ON: Time 1800, Note Name: C4, Velocity: 46
Note ON: Time 1800, Note Name: D#4, Velocity: 46
Note OFF: Time 1908, Note Name: D#4
Note OFF: Time 1908, Note Name: C4
Note OFF: Time 1908, Note Name: G3
Note ON: Time 1920, Note Name: A3, Velocity: 42
Note ON: Time 1920, Note Name: C4, Velocity: 50
Note ON: Time 1920, Note Name: D#4, Velocity: 50
Note OFF: Time 2880, Note Name: D#4
Note OFF: Time 2880, Note Name: C4
Note OFF: Time 2880, Note Name: A3
Note ON: Time 2880, Note Name: B3, Velocity: 29
Note ON: Time 2880, Note Name: D4, Velocity: 36
Note OFF: Time 3360, Note Name: D4
Note OFF: Time 3360, Note Name: B3
Note ON: Time 3840, Note Name: B3, Velocity: 91
Note ON: Time 3840, Note Name: D4, Velocity: 91
Note ON: Time 3840, Note Name: F4, Velocity: 104
Note OFF: Time 5160, Note Name: F4
Note OFF: Time 5160, Note Name: D4
Note OFF: Time 5160, Note Name: B3
Note ON: Time 5160, Note Name: D4, Velocity: 42
Note ON: Time 5160, Note Name: B3, Velocity: 42
Note ON: Time 5160, Note Name: F4, Velocity: 50
Note OFF: Time 5268, Note Name: F4
Note OFF: Time 5268, Note Name: B3
Note OFF: Time 5268, Note Name: D4
Note ON: Time 5280, Note Name: B3, Velocity: 44
Note ON: Time 5280, Note Name: D4, Velocity: 44
Note ON: Time 5280, Note Name: G4, Velocity: 53
Note OFF: Time 5640, Note Name: G4
Note OFF: Time 5640, Note Name: D4
Note OFF: Time 5640, Note Name: B3
Note ON: Time 5640, Note Name: D4, Velocity: 49
Note ON: Time 5640, Note Name: G#4, Velocity: 49
Note ON: Time 5640, Note Name: B3, Velocity: 41
Note OFF: Time 5748, Note Name: B3
Note OFF: Time 5748, Note Name: G#4
Note OFF: Time 5748, Note Name: D4
Note ON: Time 5760, Note Name: G#4, Velocity: 53
Note ON: Time 5760, Note Name: B3, Velocity: 44
Note ON: Time 5760, Note Name: D4, Velocity: 53
Note OFF: Time 6720, Note Name: D4
Note OFF: Time 6720, Note Name: B3
Note OFF: Time 6720, Note Name: G#4
Note ON: Time 6720, Note Name: C4, Velocity: 31
Note ON: Time 6720, Note Name: G4, Velocity: 38
Note ON: Time 6720, Note Name: D#4, Velocity: 31
Note OFF: Time 7200, Note Name: D#4
Note OFF: Time 7200, Note Name: G4
Note OFF: Time 7200, Note Name: C4
Note ON: Time 7680, Note Name: F#4, Velocity: 88
Note ON: Time 7680, Note Name: A4, Velocity: 88
Note ON: Time 7680, Note Name: C5, Velocity: 102
Note OFF: Time 9000, Note Name: C5
Note OFF: Time 9000, Note Name: A4
Note OFF: Time 9000, Note Name: F#4
Note ON: Time 9000, Note Name: A4, Velocity: 49
Note ON: Time 9000, Note Name: F#4, Velocity: 49
Note ON: Time 9000, Note Name: C5, Velocity: 58
Note OFF: Time 9108, Note Name: C5
Note OFF: Time 9108, Note Name: F#4
Note OFF: Time 9108, Note Name: A4
Note ON: Time 9120, Note Name: F#4, Velocity: 54
Note ON: Time 9120, Note Name: A4, Velocity: 54
Note ON: Time 9120, Note Name: D5, Velocity: 64
Note OFF: Time 9480, Note Name: D5
Note OFF: Time 9480, Note Name: A4
Note OFF: Time 9480, Note Name: F#4
Note ON: Time 9480, Note Name: A4, Velocity: 67
Note ON: Time 9480, Note Name: D#5, Velocity: 67
Note ON: Time 9480, Note Name: F#4, Velocity: 57
Note OFF: Time 9588, Note Name: F#4
Note OFF: Time 9588, Note Name: D#5
Note OFF: Time 9588, Note Name: A4
Note ON: Time 9600, Note Name: D#5, Velocity: 74
Note ON: Time 9600, Note Name: F#4, Velocity: 62
Note ON: Time 9600, Note Name: A4, Velocity: 62
Note OFF: Time 10560, Note Name: A4
Note OFF: Time 10560, Note Name: F#4
Note OFF: Time 10560, Note Name: D#5
Note ON: Time 10560, Note Name: D4, Velocity: 35
Note ON: Time 10560, Note Name: D5, Velocity: 42
Note ON: Time 10560, Note Name: G4, Velocity: 35
Note OFF: Time 10680, Note Name: G4
Note OFF: Time 10680, Note Name: D5
Note OFF: Time 10680, Note Name: D4
Note ON: Time 10920, Note Name: A4, Velocity: 51
Note ON: Time 10920, Note Name: F#4, Velocity: 51
Note ON: Time 10920, Note Name: C5, Velocity: 60
Note OFF: Time 11028, Note Name: C5
Note OFF: Time 11028, Note Name: F#4
Note OFF: Time 11028, Note Name: A4
Note ON: Time 11040, Note Name: F#4, Velocity: 56
Note ON: Time 11040, Note Name: A4, Velocity: 56
Note ON: Time 11040, Note Name: D5, Velocity: 67
Note OFF: Time 11400, Note Name: D5
Note OFF: Time 11400, Note Name: A4
Note OFF: Time 11400, Note Name: F#4
Note ON: Time 11400, Note Name: A4, Velocity: 70
Note ON: Time 11400, Note Name: D#5, Velocity: 70
Note ON: Time 11400, Note Name: F#4, Velocity: 59
Note OFF: Time 11508, Note Name: F#4
Note OFF: Time 11508, Note Name: D#5
Note OFF: Time 11508, Note Name: A4
Note ON: Time 11520, Note Name: D#5, Velocity: 77
Note ON: Time 11520, Note Name: F#4, Velocity: 65
Note ON: Time 11520, Note Name: A4, Velocity: 65
Note OFF: Time 12480, Note Name: A4
Note OFF: Time 12480, Note Name: F#4
Note OFF: Time 12480, Note Name: D#5
Note ON: Time 12480, Note Name: G4, Velocity: 47
Note ON: Time 12480, Note Name: D5, Velocity: 55
Note OFF: Time 12960, Note Name: D5
Note OFF: Time 12960, Note Name: G4
Note ON: Time 12960, Note Name: G4, Velocity: 53
Note ON: Time 12960, Note Name: C5, Velocity: 53
Note ON: Time 12960, Note Name: E5, Velocity: 63
Note OFF: Time 13440, Note Name: E5
Note OFF: Time 13440, Note Name: C5
Note OFF: Time 13440, Note Name: G4
Note ON: Time 13440, Note Name: G#4, Velocity: 58
Note ON: Time 13440, Note Name: C5, Velocity: 58
Note ON: Time 13440, Note Name: F5, Velocity: 70
Note OFF: Time 13680, Note Name: F5
Note OFF: Time 13680, Note Name: C5
Note OFF: Time 13680, Note Name: G#4
Note ON: Time 13920, Note Name: G#5, Velocity: 84
Note OFF: Time 14520, Note Name: G#5
Note ON: Time 14520, Note Name: G5, Velocity: 61
Note OFF: Time 14580, Note Name: G5
Note ON: Time 14580, Note Name: G#5, Velocity: 63
Note OFF: Time 14640, Note Name: G#5
Note ON: Time 14640, Note Name: A#5, Velocity: 65
Note OFF: Time 14700, Note Name: A#5
Note ON: Time 14700, Note Name: G#5, Velocity: 67
Note OFF: Time 14760, Note Name: G#5
Note ON: Time 14760, Note Name: G5, Velocity: 67
Note OFF: Time 14820, Note Name: G5
Note ON: Time 14820, Note Name: F5, Velocity: 67
Note OFF: Time 14880, Note Name: F5
Note ON: Time 14880, Note Name: D#5, Velocity: 67
Note OFF: Time 14940, Note Name: D#5
Note ON: Time 14940, Note Name: D5, Velocity: 67
Note OFF: Time 15000, Note Name: D5
Note ON: Time 15000, Note Name: C5, Velocity: 67
Note OFF: Time 15060, Note Name: C5
Note ON: Time 15060, Note Name: A#4, Velocity: 67
Note OFF: Time 15120, Note Name: A#4
Note ON: Time 15120, Note Name: G#4, Velocity: 63
Note OFF: Time 15147, Note Name: G#4
Note ON: Time 15147, Note Name: G4, Velocity: 62
Note OFF: Time 15174, Note Name: G4
Note ON: Time 15174, Note Name: F4, Velocity: 60
Note OFF: Time 15201, Note Name: F4
Note ON: Time 15201, Note Name: D#4, Velocity: 59
Note OFF: Time 15228, Note Name: D#4
Note ON: Time 15228, Note Name: D4, Velocity: 58
Note OFF: Time 15255, Note Name: D4
Note ON: Time 15255, Note Name: F4, Velocity: 57
Note OFF: Time 15282, Note Name: F4
Note ON: Time 15282, Note Name: G#4, Velocity: 55
Note OFF: Time 15309, Note Name: G#4
Note ON: Time 15309, Note Name: F4, Velocity: 54
Note OFF: Time 15336, Note Name: F4
Note ON: Time 15336, Note Name: D4, Velocity: 53
Note OFF: Time 15360, Note Name: D4
Note ON: Time 15360, Note Name: D#4, Velocity: 50
Note OFF: Time 15600, Note Name: D#4
Note ON: Time 15840, Note Name: D#4, Velocity: 46
Note ON: Time 15840, Note Name: D#5, Velocity: 55
Note OFF: Time 16680, Note Name: D#5
Note OFF: Time 16680, Note Name: D#4
Note ON: Time 16680, Note Name: D#4, Velocity: 46
Note ON: Time 16680, Note Name: D#5, Velocity: 55
Note OFF: Time 16800, Note Name: D#5
Note OFF: Time 16800, Note Name: D#4
Note ON: Time 16800, Note Name: F4, Velocity: 48
Note ON: Time 16800, Note Name: F5, Velocity: 57
Note OFF: Time 17160, Note Name: F5
Note OFF: Time 17160, Note Name: F4
Note ON: Time 17160, Note Name: G4, Velocity: 49
Note ON: Time 17160, Note Name: G5, Velocity: 59
Note OFF: Time 17274, Note Name: G5
Note OFF: Time 17274, Note Name: G4
Note ON: Time 17280, Note Name: G4, Velocity: 49
Note ON: Time 17280, Note Name: G5, Velocity: 59
Note OFF: Time 17760, Note Name: G5
Note OFF: Time 17760, Note Name: G4
Note ON: Time 17760, Note Name: F4, Velocity: 42
Note ON: Time 17760, Note Name: F5, Velocity: 50
Note OFF: Time 18000, Note Name: F5
Note OFF: Time 18000, Note Name: F4
Note ON: Time 18120, Note Name: F4, Velocity: 90
Note OFF: Time 18240, Note Name: F4
Note ON: Time 18240, Note Name: F3, Velocity: 81
Note ON: Time 18240, Note Name: G#3, Velocity: 81
Note ON: Time 18240, Note Name: B3, Velocity: 81
Note ON: Time 18240, Note Name: F4, Velocity: 96
Note OFF: Time 18600, Note Name: F4
Note OFF: Time 18600, Note Name: F3
Note OFF: Time 18600, Note Name: G#3
Note OFF: Time 18600, Note Name: B3
Note ON: Time 18600, Note Name: F3, Velocity: 74
Note ON: Time 18600, Note Name: G#3, Velocity: 74
Note ON: Time 18600, Note Name: B3, Velocity: 74
Note ON: Time 18600, Note Name: F4, Velocity: 89
Note OFF: Time 18714, Note Name: F4
Note OFF: Time 18714, Note Name: F3
Note OFF: Time 18714, Note Name: G#3
Note OFF: Time 18714, Note Name: B3
Note ON: Time 18720, Note Name: F3, Velocity: 79
Note ON: Time 18720, Note Name: G#3, Velocity: 79
Note ON: Time 18720, Note Name: C4, Velocity: 79
Note ON: Time 18720, Note Name: F4, Velocity: 93
Note OFF: Time 19080, Note Name: F4
Note OFF: Time 19080, Note Name: F3
Note OFF: Time 19080, Note Name: G#3
Note OFF: Time 19080, Note Name: C4
Note ON: Time 19080, Note Name: F3, Velocity: 79
Note ON: Time 19080, Note Name: G#3, Velocity: 79
Note ON: Time 19080, Note Name: C4, Velocity: 79
Note ON: Time 19080, Note Name: F4, Velocity: 93
Note OFF: Time 19194, Note Name: F4
Note OFF: Time 19194, Note Name: F3
Note OFF: Time 19194, Note Name: G#3
Note OFF: Time 19194, Note Name: C4
Note ON: Time 19200, Note Name: F3, Velocity: 79
Note ON: Time 19200, Note Name: G#3, Velocity: 79
Note ON: Time 19200, Note Name: D4, Velocity: 79
Note ON: Time 19200, Note Name: F4, Velocity: 93
Note OFF: Time 19680, Note Name: F4
Note OFF: Time 19680, Note Name: F3
Note OFF: Time 19680, Note Name: G#3
Note OFF: Time 19680, Note Name: D4
Note ON: Time 19680, Note Name: F4, Velocity: 46
Note ON: Time 19680, Note Name: F5, Velocity: 55
Note OFF: Time 20520, Note Name: F5
Note OFF: Time 20520, Note Name: F4
Note ON: Time 20520, Note Name: F4, Velocity: 46
Note ON: Time 20520, Note Name: F5, Velocity: 55
Note OFF: Time 20640, Note Name: F5
Note OFF: Time 20640, Note Name: F4
Note ON: Time 20640, Note Name: G4, Velocity: 48
Note ON: Time 20640, Note Name: G5, Velocity: 57
Note OFF: Time 21000, Note Name: G5
Note OFF: Time 21000, Note Name: G4
Note ON: Time 21000, Note Name: G#4, Velocity: 49
Note ON: Time 21000, Note Name: G#5, Velocity: 59
Note OFF: Time 21114, Note Name: G#5
Note OFF: Time 21114, Note Name: G#4
Note ON: Time 21120, Note Name: G#4, Velocity: 49
Note ON: Time 21120, Note Name: G#5, Velocity: 59
Note OFF: Time 21600, Note Name: G#5
Note OFF: Time 21600, Note Name: G#4
Note ON: Time 21600, Note Name: G4, Velocity: 46
Note ON: Time 21600, Note Name: G5, Velocity: 55
Note OFF: Time 21840, Note Name: G5
Note OFF: Time 21840, Note Name: G4
Note ON: Time 21960, Note Name: G3, Velocity: 75
Note ON: Time 21960, Note Name: C#4, Velocity: 75
Note ON: Time 21960, Note Name: E4, Velocity: 75
Note ON: Time 21960, Note Name: G4, Velocity: 90
Note OFF: Time 22080, Note Name: G4
Note OFF: Time 22080, Note Name: G3
Note OFF: Time 22080, Note Name: C#4
Note OFF: Time 22080, Note Name: E4
Note ON: Time 22080, Note Name: A3, Velocity: 81
Note ON: Time 22080, Note Name: C#4, Velocity: 81
Note ON: Time 22080, Note Name: D#4, Velocity: 81
Note ON: Time 22080, Note Name: A4, Velocity: 96
Note OFF: Time 22440, Note Name: A4
Note OFF: Time 22440, Note Name: A3
Note OFF: Time 22440, Note Name: C#4
Note OFF: Time 22440, Note Name: D#4
Note ON: Time 22440, Note Name: A3, Velocity: 74
Note ON: Time 22440, Note Name: C#4, Velocity: 74
Note ON: Time 22440, Note Name: D#4, Velocity: 74
Note ON: Time 22440, Note Name: A4, Velocity: 89
Note OFF: Time 22554, Note Name: A4
Note OFF: Time 22554, Note Name: A3
Note OFF: Time 22554, Note Name: C#4
Note OFF: Time 22554, Note Name: D#4
Note ON: Time 22560, Note Name: A#3, Velocity: 79
Note ON: Time 22560, Note Name: C#4, Velocity: 79
Note ON: Time 22560, Note Name: D#4, Velocity: 79
Note ON: Time 22560, Note Name: A#4, Velocity: 93
Note OFF: Time 22920, Note Name: A#4
Note OFF: Time 22920, Note Name: A#3
Note OFF: Time 22920, Note Name: C#4
Note OFF: Time 22920, Note Name: D#4
Note ON: Time 22920, Note Name: A#3, Velocity: 79
Note ON: Time 22920, Note Name: C#4, Velocity: 79
Note ON: Time 22920, Note Name: D#4, Velocity: 79
Note ON: Time 22920, Note Name: A#4, Velocity: 93
Note OFF: Time 23034, Note Name: A#4
Note OFF: Time 23034, Note Name: A#3
Note OFF: Time 23034, Note Name: C#4
Note OFF: Time 23034, Note Name: D#4
Note ON: Time 23040, Note Name: A3, Velocity: 79
Note ON: Time 23040, Note Name: D4, Velocity: 79
Note ON: Time 23040, Note Name: F#4, Velocity: 79
Note ON: Time 23040, Note Name: A4, Velocity: 93
Note OFF: Time 23520, Note Name: A4
Note OFF: Time 23520, Note Name: A3
Note OFF: Time 23520, Note Name: D4
Note OFF: Time 23520, Note Name: F#4
Note ON: Time 23520, Note Name: A4, Velocity: 46
Note ON: Time 23520, Note Name: A5, Velocity: 55
Note OFF: Time 24360, Note Name: A5
Note OFF: Time 24360, Note Name: A4
Note ON: Time 24360, Note Name: A4, Velocity: 46
Note ON: Time 24360, Note Name: A5, Velocity: 55
Note OFF: Time 24480, Note Name: A5
Note OFF: Time 24480, Note Name: A4
Note ON: Time 24480, Note Name: B4, Velocity: 48
Note ON: Time 24480, Note Name: B5, Velocity: 57
Note OFF: Time 24840, Note Name: B5
Note OFF: Time 24840, Note Name: B4
Note ON: Time 24840, Note Name: C5, Velocity: 49
Note ON: Time 24840, Note Name: C6, Velocity: 59
Note OFF: Time 24954, Note Name: C6
Note OFF: Time 24954, Note Name: C5
Note ON: Time 24960, Note Name: C5, Velocity: 49
Note ON: Time 24960, Note Name: C6, Velocity: 59
Note OFF: Time 25440, Note Name: C6
Note OFF: Time 25440, Note Name: C5
Note ON: Time 25440, Note Name: B4, Velocity: 46
Note ON: Time 25440, Note Name: B5, Velocity: 55
Note OFF: Time 25680, Note Name: B5
Note OFF: Time 25680, Note Name: B4
Note ON: Time 26400, Note Name: B4, Velocity: 71
Note ON: Time 26400, Note Name: B5, Velocity: 71
Note OFF: Time 26760, Note Name: B5
Note OFF: Time 26760, Note Name: B4
Note ON: Time 26760, Note Name: C5, Velocity: 62
Note ON: Time 26760, Note Name: C6, Velocity: 74
Note OFF: Time 26880, Note Name: C6
Note OFF: Time 26880, Note Name: C5
Note ON: Time 26880, Note Name: C#5, Velocity: 80
Note ON: Time 26880, Note Name: C#6, Velocity: 80
Note OFF: Time 27360, Note Name: C#6
Note OFF: Time 27360, Note Name: C#5
Note ON: Time 27360, Note Name: D5, Velocity: 85
Note ON: Time 27360, Note Name: D6, Velocity: 85
Note OFF: Time 27840, Note Name: D6
Note OFF: Time 27840, Note Name: D5
Note ON: Time 28320, Note Name: D5, Velocity: 90
Note ON: Time 28320, Note Name: D6, Velocity: 91
Note OFF: Time 28680, Note Name: D6
Note OFF: Time 28680, Note Name: D5
Note ON: Time 28680, Note Name: D#5, Velocity: 80
Note ON: Time 28680, Note Name: D#6, Velocity: 82
Note OFF: Time 28800, Note Name: D#6
Note OFF: Time 28800, Note Name: D#5
Note ON: Time 28800, Note Name: E5, Velocity: 88
Note ON: Time 28800, Note Name: E6, Velocity: 88
Note OFF: Time 29280, Note Name: E6
Note OFF: Time 29280, Note Name: E5
Note ON: Time 29280, Note Name: F5, Velocity: 88
Note ON: Time 29280, Note Name: F6, Velocity: 90
Note OFF: Time 30230, Note Name: F6
Note OFF: Time 30230, Note Name: F5
Note ON: Time 30240, Note Name: F5, Velocity: 96
Note ON: Time 30240, Note Name: F6, Velocity: 96
Note OFF: Time 30710, Note Name: F6
Note OFF: Time 30710, Note Name: F5
Note ON: Time 30720, Note Name: F5, Velocity: 96
Note ON: Time 30720, Note Name: F6, Velocity: 96
Note OFF: Time 31320, Note Name: F6
Note OFF: Time 31320, Note Name: F5
Note ON: Time 31320, Note Name: D#6, Velocity: 62
Note OFF: Time 31380, Note Name: D#6
Note ON: Time 31380, Note Name: D6, Velocity: 62
Note OFF: Time 31440, Note Name: D6
Note ON: Time 31440, Note Name: F6, Velocity: 62
Note OFF: Time 31500, Note Name: F6
Note ON: Time 31500, Note Name: D#6, Velocity: 62
Note OFF: Time 31560, Note Name: D#6
Note ON: Time 31560, Note Name: D6, Velocity: 62
Note OFF: Time 31620, Note Name: D6
Note ON: Time 31620, Note Name: C6, Velocity: 62
Note OFF: Time 31680, Note Name: C6
Note ON: Time 31680, Note Name: B5, Velocity: 62
Note OFF: Time 31800, Note Name: B5
Note ON: Time 31920, Note Name: B5, Velocity: 52
Note OFF: Time 32040, Note Name: B5
Note ON: Time 32160, Note Name: F5, Velocity: 39
Note ON: Time 32160, Note Name: B5, Velocity: 47
Note OFF: Time 32280, Note Name: B5
Note OFF: Time 32280, Note Name: F5
Note ON: Time 32400, Note Name: F5, Velocity: 40
Note ON: Time 32400, Note Name: B5, Velocity: 48
Note OFF: Time 32520, Note Name: B5
Note OFF: Time 32520, Note Name: F5
Note ON: Time 32640, Note Name: D#5, Velocity: 40
Note ON: Time 32640, Note Name: C6, Velocity: 48
Note OFF: Time 33120, Note Name: C6
Note OFF: Time 33120, Note Name: D#5
Note ON: Time 34560, Note Name: C6, Velocity: 65
Note OFF: Time 35160, Note Name: C6
Note ON: Time 35160, Note Name: B5, Velocity: 61
Note OFF: Time 35220, Note Name: B5
Note ON: Time 35220, Note Name: C6, Velocity: 63
Note OFF: Time 35280, Note Name: C6
Note ON: Time 35280, Note Name: D6, Velocity: 66
Note OFF: Time 35320, Note Name: D6
Note ON: Time 35320, Note Name: C6, Velocity: 65
Note OFF: Time 35360, Note Name: C6
Note ON: Time 35360, Note Name: A#5, Velocity: 64
Note OFF: Time 35400, Note Name: A#5
Note ON: Time 35400, Note Name: G#5, Velocity: 63
Note OFF: Time 35440, Note Name: G#5
Note ON: Time 35440, Note Name: G5, Velocity: 61
Note OFF: Time 35480, Note Name: G5
Note ON: Time 35480, Note Name: A#5, Velocity: 60
Note OFF: Time 35520, Note Name: A#5
Note ON: Time 35520, Note Name: G#5, Velocity: 62
Note OFF: Time 35640, Note Name: G#5
Note ON: Time 35760, Note Name: G#5, Velocity: 49
Note OFF: Time 35880, Note Name: G#5
Note ON: Time 36000, Note Name: G#5, Velocity: 47
Note OFF: Time 36120, Note Name: G#5
Note ON: Time 36240, Note Name: G#5, Velocity: 48
Note OFF: Time 36360, Note Name: G#5
Note ON: Time 36480, Note Name: G5, Velocity: 50
Note OFF: Time 36720, Note Name: G5
Note ON: Time 36720, Note Name: D#6, Velocity: 65
Note OFF: Time 37000, Note Name: D#6
Note ON: Time 37000, Note Name: D6, Velocity: 52
Note OFF: Time 37040, Note Name: D6
Note ON: Time 37040, Note Name: C#6, Velocity: 52
Note OFF: Time 37080, Note Name: C#6
Note ON: Time 37080, Note Name: C6, Velocity: 52
Note OFF: Time 37120, Note Name: C6
Note ON: Time 37120, Note Name: B5, Velocity: 52
Note OFF: Time 37160, Note Name: B5
Note ON: Time 37160, Note Name: A#5, Velocity: 53
Note OFF: Time 37200, Note Name: A#5
Note ON: Time 37200, Note Name: A5, Velocity: 53
Note OFF: Time 37234, Note Name: A5
Note ON: Time 37234, Note Name: G#5, Velocity: 53
Note OFF: Time 37268, Note Name: G#5
Note ON: Time 37268, Note Name: G5, Velocity: 53
Note OFF: Time 37302, Note Name: G5
Note ON: Time 37302, Note Name: F#5, Velocity: 54
Note OFF: Time 37336, Note Name: F#5
Note ON: Time 37336, Note Name: F5, Velocity: 54
Note OFF: Time 37370, Note Name: F5
Note ON: Time 37370, Note Name: E5, Velocity: 54
Note OFF: Time 37404, Note Name: E5
Note ON: Time 37404, Note Name: D#5, Velocity: 54
Note OFF: Time 37440, Note Name: D#5
Note ON: Time 37440, Note Name: D5, Velocity: 54
Note OFF: Time 37500, Note Name: D5
Note ON: Time 37500, Note Name: C#5, Velocity: 55
Note OFF: Time 37560, Note Name: C#5
Note ON: Time 37560, Note Name: C5, Velocity: 55
Note OFF: Time 37620, Note Name: C5
Note ON: Time 37620, Note Name: B4, Velocity: 56
Note OFF: Time 37680, Note Name: B4
Note ON: Time 37680, Note Name: A#4, Velocity: 56
Note OFF: Time 37740, Note Name: A#4
Note ON: Time 37740, Note Name: A4, Velocity: 56
Note OFF: Time 37800, Note Name: A4
Note ON: Time 37800, Note Name: G#4, Velocity: 57
Note OFF: Time 37860, Note Name: G#4
Note ON: Time 37860, Note Name: G4, Velocity: 57
Note OFF: Time 37920, Note Name: G4
Note ON: Time 37920, Note Name: F#4, Velocity: 57
Note OFF: Time 37980, Note Name: F#4
Note ON: Time 37980, Note Name: F4, Velocity: 58
Note OFF: Time 38040, Note Name: F4
Note ON: Time 38040, Note Name: E4, Velocity: 57
Note OFF: Time 38100, Note Name: E4
Note ON: Time 38100, Note Name: D#4, Velocity: 57
Note OFF: Time 38160, Note Name: D#4
Note ON: Time 38160, Note Name: D4, Velocity: 58
Note OFF: Time 38220, Note Name: D4
Note ON: Time 38220, Note Name: C#4, Velocity: 63
Note OFF: Time 38280, Note Name: C#4
Note ON: Time 38280, Note Name: C4, Velocity: 68
Note OFF: Time 38340, Note Name: C4
Note ON: Time 38340, Note Name: B3, Velocity: 73
Note OFF: Time 38400, Note Name: B3
Note ON: Time 38400, Note Name: G#4, Velocity: 82
Note OFF: Time 38760, Note Name: G#4
Note ON: Time 38760, Note Name: B3, Velocity: 68
Note OFF: Time 38880, Note Name: B3
Note ON: Time 38880, Note Name: C4, Velocity: 50
Note OFF: Time 39600, Note Name: C4
Note ON: Time 39600, Note Name: A#3, Velocity: 52
Note ON: Time 39600, Note Name: E4, Velocity: 52
Note OFF: Time 39690, Note Name: E4
Note OFF: Time 39690, Note Name: A#3
Note ON: Time 39840, Note Name: G#3, Velocity: 54
Note ON: Time 39840, Note Name: F4, Velocity: 54
Note OFF: Time 39930, Note Name: F4
Note OFF: Time 39930, Note Name: G#3
Note ON: Time 40080, Note Name: E4, Velocity: 56
Note ON: Time 40080, Note Name: G4, Velocity: 56
Note OFF: Time 40170, Note Name: G4
Note OFF: Time 40170, Note Name: E4
Note ON: Time 40320, Note Name: F4, Velocity: 57
Note ON: Time 40320, Note Name: G#4, Velocity: 57
Note OFF: Time 40410, Note Name: G#4
Note OFF: Time 40410, Note Name: F4
Note ON: Time 40560, Note Name: D4, Velocity: 59
Note ON: Time 40560, Note Name: B4, Velocity: 59
Note OFF: Time 40650, Note Name: B4
Note OFF: Time 40650, Note Name: D4
Note ON: Time 40800, Note Name: D#4, Velocity: 61
Note ON: Time 40800, Note Name: C5, Velocity: 61
Note OFF: Time 40890, Note Name: C5
Note OFF: Time 40890, Note Name: D#4
Note ON: Time 41040, Note Name: E4, Velocity: 55
Note ON: Time 41040, Note Name: C5, Velocity: 55
Note OFF: Time 41520, Note Name: C5
Note OFF: Time 41520, Note Name: E4
Note ON: Time 41520, Note Name: A#4, Velocity: 51
Note ON: Time 41520, Note Name: E5, Velocity: 51
Note OFF: Time 41610, Note Name: E5
Note OFF: Time 41610, Note Name: A#4
Note ON: Time 41760, Note Name: G#4, Velocity: 53
Note ON: Time 41760, Note Name: F5, Velocity: 53
Note OFF: Time 41850, Note Name: F5
Note OFF: Time 41850, Note Name: G#4
Note ON: Time 42000, Note Name: E5, Velocity: 55
Note ON: Time 42000, Note Name: G5, Velocity: 55
Note OFF: Time 42090, Note Name: G5
Note OFF: Time 42090, Note Name: E5
Note ON: Time 42240, Note Name: F5, Velocity: 57
Note ON: Time 42240, Note Name: G#5, Velocity: 57
Note OFF: Time 42330, Note Name: G#5
Note OFF: Time 42330, Note Name: F5
Note ON: Time 42480, Note Name: D5, Velocity: 59
Note ON: Time 42480, Note Name: B5, Velocity: 59
Note OFF: Time 42570, Note Name: B5
Note OFF: Time 42570, Note Name: D5
Note ON: Time 42720, Note Name: C5, Velocity: 51
Note ON: Time 42720, Note Name: G5, Velocity: 61
Note ON: Time 42720, Note Name: D#5, Velocity: 51
Note ON: Time 42720, Note Name: C6, Velocity: 61
Note OFF: Time 43200, Note Name: C6
Note OFF: Time 43200, Note Name: C5
Note OFF: Time 43200, Note Name: G5
Note OFF: Time 43200, Note Name: D#5
Note ON: Time 43200, Note Name: G4, Velocity: 53
Note ON: Time 43200, Note Name: B4, Velocity: 53
Note ON: Time 43200, Note Name: F5, Velocity: 63
Note ON: Time 43200, Note Name: G5, Velocity: 63
Note OFF: Time 43680, Note Name: G5
Note OFF: Time 43680, Note Name: G4
Note OFF: Time 43680, Note Name: B4
Note OFF: Time 43680, Note Name: F5
Note ON: Time 43680, Note Name: G4, Velocity: 56
Note ON: Time 43680, Note Name: C5, Velocity: 56
Note ON: Time 43680, Note Name: D#5, Velocity: 67
Note OFF: Time 44160, Note Name: D#5
Note OFF: Time 44160, Note Name: C5
Note OFF: Time 44160, Note Name: G4
Note ON: Time 44160, Note Name: F4, Velocity: 60
Note ON: Time 44160, Note Name: G#4, Velocity: 60
Note ON: Time 44160, Note Name: D5, Velocity: 71
Note OFF: Time 44640, Note Name: D5
Note OFF: Time 44640, Note Name: G#4
Note OFF: Time 44640, Note Name: F4
Note ON: Time 44640, Note Name: D#4, Velocity: 62
Note ON: Time 44640, Note Name: G4, Velocity: 74
Note ON: Time 44640, Note Name: C5, Velocity: 74
Note OFF: Time 45120, Note Name: G4
Note ON: Time 45120, Note Name: F#4, Velocity: 74
Note OFF: Time 45600, Note Name: F#4
Note ON: Time 45600, Note Name: A4, Velocity: 77
Note OFF: Time 46080, Note Name: A4
Note OFF: Time 46080, Note Name: C5
Note OFF: Time 46080, Note Name: D#4
Note ON: Time 46080, Note Name: D4, Velocity: 62
Note ON: Time 46080, Note Name: F4, Velocity: 62
Note ON: Time 46080, Note Name: B4, Velocity: 74
Note OFF: Time 46560, Note Name: B4
Note OFF: Time 46560, Note Name: F4
Note OFF: Time 46560, Note Name: D4
Note ON: Time 46560, Note Name: C4, Velocity: 67
Note ON: Time 46560, Note Name: D#4, Velocity: 67
Note ON: Time 46560, Note Name: C5, Velocity: 79
Note OFF: Time 46650, Note Name: C5
Note OFF: Time 46650, Note Name: D#4
Note OFF: Time 46650, Note Name: C4
Note ON: Time 46800, Note Name: C4, Velocity: 67
Note OFF: Time 47280, Note Name: C4
Note ON: Time 47280, Note Name: A#3, Velocity: 52
Note ON: Time 47280, Note Name: E4, Velocity: 52
Note OFF: Time 47370, Note Name: E4
Note OFF: Time 47370, Note Name: A#3
Note ON: Time 47520, Note Name: G#3, Velocity: 54
Note ON: Time 47520, Note Name: F4, Velocity: 54
Note OFF: Time 47610, Note Name: F4
Note OFF: Time 47610, Note Name: G#3
Note ON: Time 47760, Note Name: E4, Velocity: 55
Note ON: Time 47760, Note Name: G4, Velocity: 55
Note OFF: Time 47850, Note Name: G4
Note OFF: Time 47850, Note Name: E4
Note ON: Time 48000, Note Name: F4, Velocity: 57
Note ON: Time 48000, Note Name: G#4, Velocity: 57
Note OFF: Time 48090, Note Name: G#4
Note OFF: Time 48090, Note Name: F4
Note ON: Time 48240, Note Name: D4, Velocity: 59
Note ON: Time 48240, Note Name: B4, Velocity: 59
Note OFF: Time 48330, Note Name: B4
Note OFF: Time 48330, Note Name: D4
Note ON: Time 48480, Note Name: D#4, Velocity: 61
Note ON: Time 48480, Note Name: C5, Velocity: 61
Note OFF: Time 48570, Note Name: C5
Note OFF: Time 48570, Note Name: D#4
Note ON: Time 48720, Note Name: E4, Velocity: 55
Note ON: Time 48720, Note Name: C5, Velocity: 55
Note OFF: Time 49200, Note Name: C5
Note OFF: Time 49200, Note Name: E4
Note ON: Time 49200, Note Name: A#4, Velocity: 51
Note ON: Time 49200, Note Name: E5, Velocity: 51
Note OFF: Time 49290, Note Name: E5
Note OFF: Time 49290, Note Name: A#4
Note ON: Time 49440, Note Name: G#4, Velocity: 53
Note ON: Time 49440, Note Name: F5, Velocity: 53
Note OFF: Time 49530, Note Name: F5
Note OFF: Time 49530, Note Name: G#4
Note ON: Time 49680, Note Name: E5, Velocity: 55
Note ON: Time 49680, Note Name: G5, Velocity: 55
Note OFF: Time 49770, Note Name: G5
Note OFF: Time 49770, Note Name: E5
Note ON: Time 49920, Note Name: F5, Velocity: 57
Note ON: Time 49920, Note Name: G#5, Velocity: 57
Note OFF: Time 50010, Note Name: G#5
Note OFF: Time 50010, Note Name: F5
Note ON: Time 50160, Note Name: D5, Velocity: 59
Note ON: Time 50160, Note Name: B5, Velocity: 59
Note OFF: Time 50250, Note Name: B5
Note OFF: Time 50250, Note Name: D5
Note ON: Time 50400, Note Name: C5, Velocity: 51
Note ON: Time 50400, Note Name: G5, Velocity: 61
Note ON: Time 50400, Note Name: D#5, Velocity: 51
Note ON: Time 50400, Note Name: C6, Velocity: 61
Note OFF: Time 50880, Note Name: C6
Note OFF: Time 50880, Note Name: C5
Note OFF: Time 50880, Note Name: G5
Note OFF: Time 50880, Note Name: D#5
Note ON: Time 50880, Note Name: G4, Velocity: 53
Note ON: Time 50880, Note Name: B4, Velocity: 53
Note ON: Time 50880, Note Name: F5, Velocity: 63
Note ON: Time 50880, Note Name: G5, Velocity: 63
Note OFF: Time 51360, Note Name: G5
Note OFF: Time 51360, Note Name: G4
Note OFF: Time 51360, Note Name: B4
Note OFF: Time 51360, Note Name: F5
Note ON: Time 51360, Note Name: G4, Velocity: 56
Note ON: Time 51360, Note Name: C5, Velocity: 56
Note ON: Time 51360, Note Name: D#5, Velocity: 67
Note OFF: Time 51840, Note Name: D#5
Note OFF: Time 51840, Note Name: C5
Note OFF: Time 51840, Note Name: G4
Note ON: Time 51840, Note Name: F4, Velocity: 60
Note ON: Time 51840, Note Name: G#4, Velocity: 60
Note ON: Time 51840, Note Name: D5, Velocity: 71
Note OFF: Time 52320, Note Name: D5
Note OFF: Time 52320, Note Name: G#4
Note OFF: Time 52320, Note Name: F4
Note ON: Time 52320, Note Name: D#4, Velocity: 62
Note ON: Time 52320, Note Name: G4, Velocity: 74
Note ON: Time 52320, Note Name: C5, Velocity: 74
Note OFF: Time 52800, Note Name: G4
Note ON: Time 52800, Note Name: F#4, Velocity: 74
Note OFF: Time 53280, Note Name: F#4
Note ON: Time 53280, Note Name: A4, Velocity: 77
Note OFF: Time 54240, Note Name: A4
Note OFF: Time 54240, Note Name: C5
Note OFF: Time 54240, Note Name: D#4
Note ON: Time 54240, Note Name: D4, Velocity: 55
Note ON: Time 54240, Note Name: G4, Velocity: 55
Note ON: Time 54240, Note Name: B4, Velocity: 55
Note OFF: Time 54480, Note Name: B4
Note OFF: Time 54480, Note Name: G4
Note OFF: Time 54480, Note Name: D4
Note ON: Time 54720, Note Name: G4, Velocity: 80
Note ON: Time 54720, Note Name: G5, Velocity: 80
Note OFF: Time 55440, Note Name: G5
Note OFF: Time 55440, Note Name: G4
Note ON: Time 55680, Note Name: G4, Velocity: 80
Note ON: Time 55680, Note Name: G5, Velocity: 80
Note OFF: Time 56280, Note Name: G5
Note OFF: Time 56280, Note Name: G4
Note ON: Time 56280, Note Name: F5, Velocity: 70
Note OFF: Time 56400, Note Name: F5
Note ON: Time 56400, Note Name: D5, Velocity: 69
Note OFF: Time 56520, Note Name: D5
Note ON: Time 56520, Note Name: B4, Velocity: 69
Note OFF: Time 56640, Note Name: B4
Note ON: Time 56640, Note Name: G4, Velocity: 68
Note OFF: Time 56760, Note Name: G4
Note ON: Time 56760, Note Name: F4, Velocity: 67
Note OFF: Time 56880, Note Name: F4
Note ON: Time 56880, Note Name: D4, Velocity: 66
Note OFF: Time 57000, Note Name: D4
Note ON: Time 57000, Note Name: B3, Velocity: 65
Note OFF: Time 57120, Note Name: B3
Note ON: Time 57120, Note Name: C4, Velocity: 65
Note OFF: Time 57240, Note Name: C4
Note ON: Time 57240, Note Name: D#4, Velocity: 64
Note OFF: Time 57360, Note Name: D#4
Note ON: Time 57360, Note Name: C4, Velocity: 65
Note OFF: Time 57480, Note Name: C4
Note ON: Time 57480, Note Name: G3, Velocity: 65
Note OFF: Time 57600, Note Name: G3
Note ON: Time 57600, Note Name: F#3, Velocity: 64
Note OFF: Time 57720, Note Name: F#3
Note ON: Time 57720, Note Name: C4, Velocity: 64
Note OFF: Time 57840, Note Name: C4
Note ON: Time 57840, Note Name: G#3, Velocity: 63
Note OFF: Time 57960, Note Name: G#3
Note ON: Time 57960, Note Name: F#3, Velocity: 65
Note OFF: Time 58080, Note Name: F#3
Note ON: Time 58080, Note Name: G3, Velocity: 67
Note OFF: Time 58320, Note Name: G3
Note ON: Time 58560, Note Name: G4, Velocity: 80
Note ON: Time 58560, Note Name: G5, Velocity: 80
Note OFF: Time 59280, Note Name: G5
Note OFF: Time 59280, Note Name: G4
Note ON: Time 59520, Note Name: G4, Velocity: 80
Note ON: Time 59520, Note Name: G5, Velocity: 80
Note OFF: Time 60120, Note Name: G5
Note OFF: Time 60120, Note Name: G4
Note ON: Time 60120, Note Name: F5, Velocity: 72
Note OFF: Time 60240, Note Name: F5
Note ON: Time 60240, Note Name: D5, Velocity: 71
Note OFF: Time 60360, Note Name: D5
Note ON: Time 60360, Note Name: B4, Velocity: 70
Note OFF: Time 60480, Note Name: B4
Note ON: Time 60480, Note Name: G4, Velocity: 69
Note OFF: Time 60600, Note Name: G4
Note ON: Time 60600, Note Name: F4, Velocity: 68
Note OFF: Time 60720, Note Name: F4
Note ON: Time 60720, Note Name: D4, Velocity: 67
Note OFF: Time 60840, Note Name: D4
Note ON: Time 60840, Note Name: B3, Velocity: 66
Note OFF: Time 60960, Note Name: B3
Note ON: Time 60960, Note Name: C4, Velocity: 65
Note OFF: Time 61080, Note Name: C4
Note ON: Time 61080, Note Name: D#4, Velocity: 64
Note OFF: Time 61200, Note Name: D#4
Note ON: Time 61200, Note Name: C4, Velocity: 64
Note OFF: Time 61320, Note Name: C4
Note ON: Time 61320, Note Name: G3, Velocity: 67
Note OFF: Time 61440, Note Name: G3
Note ON: Time 61440, Note Name: F#3, Velocity: 66
Note OFF: Time 61560, Note Name: F#3
Note ON: Time 61560, Note Name: C4, Velocity: 64
Note OFF: Time 61680, Note Name: C4
Note ON: Time 61680, Note Name: G#3, Velocity: 62
Note OFF: Time 61800, Note Name: G#3
Note ON: Time 61800, Note Name: F#3, Velocity: 60
Note OFF: Time 61920, Note Name: F#3
Note ON: Time 61920, Note Name: G3, Velocity: 67
Note OFF: Time 62160, Note Name: G3
Note ON: Time 62160, Note Name: F#4, Velocity: 67
Note OFF: Time 62250, Note Name: F#4
Note ON: Time 62400, Note Name: G4, Velocity: 69
Note OFF: Time 62490, Note Name: G4
Note ON: Time 62640, Note Name: F#4, Velocity: 71
Note ON: Time 62640, Note Name: C5, Velocity: 71
Note OFF: Time 62730, Note Name: C5
Note OFF: Time 62730, Note Name: F#4
Note ON: Time 62880, Note Name: G4, Velocity: 73
Note ON: Time 62880, Note Name: B4, Velocity: 73
Note OFF: Time 62970, Note Name: B4
Note OFF: Time 62970, Note Name: G4
Note ON: Time 63120, Note Name: C5, Velocity: 75
Note ON: Time 63120, Note Name: F#5, Velocity: 75
Note OFF: Time 63210, Note Name: F#5
Note OFF: Time 63210, Note Name: C5
Note ON: Time 63360, Note Name: B4, Velocity: 77
Note ON: Time 63360, Note Name: G5, Velocity: 77
Note OFF: Time 63450, Note Name: G5
Note OFF: Time 63450, Note Name: B4
Note ON: Time 63600, Note Name: C6, Velocity: 79
Note ON: Time 63600, Note Name: F#5, Velocity: 79
Note OFF: Time 63690, Note Name: F#5
Note OFF: Time 63690, Note Name: C6
Note ON: Time 63840, Note Name: B5, Velocity: 81
Note ON: Time 63840, Note Name: G5, Velocity: 81
Note OFF: Time 63960, Note Name: G5
Note OFF: Time 63960, Note Name: B5
Note ON: Time 64800, Note Name: A#3, Velocity: 81
Note ON: Time 64800, Note Name: C#4, Velocity: 81
Note ON: Time 64800, Note Name: D#4, Velocity: 84
Note OFF: Time 65760, Note Name: C#4
Note OFF: Time 65760, Note Name: A#3
Note ON: Time 65760, Note Name: C4, Velocity: 67
Note OFF: Time 66000, Note Name: C4
Note OFF: Time 66000, Note Name: D#4
Note ON: Time 66000, Note Name: C#5, Velocity: 67
Note OFF: Time 66090, Note Name: C#5
Note ON: Time 66240, Note Name: C5, Velocity: 69
Note OFF: Time 66330, Note Name: C5
Note ON: Time 66480, Note Name: C#5, Velocity: 71
Note ON: Time 66480, Note Name: G5, Velocity: 71
Note OFF: Time 66570, Note Name: G5
Note OFF: Time 66570, Note Name: C#5
Note ON: Time 66720, Note Name: C5, Velocity: 73
Note ON: Time 66720, Note Name: G#5, Velocity: 73
Note OFF: Time 66810, Note Name: G#5
Note OFF: Time 66810, Note Name: C5
Note ON: Time 66960, Note Name: G5, Velocity: 75
Note ON: Time 66960, Note Name: C#6, Velocity: 75
Note OFF: Time 67050, Note Name: C#6
Note OFF: Time 67050, Note Name: G5
Note ON: Time 67200, Note Name: G#5, Velocity: 77
Note ON: Time 67200, Note Name: C6, Velocity: 77
Note OFF: Time 67290, Note Name: C6
Note OFF: Time 67290, Note Name: G#5
Note ON: Time 67440, Note Name: C#6, Velocity: 79
Note ON: Time 67440, Note Name: G5, Velocity: 79
Note OFF: Time 67530, Note Name: G5
Note OFF: Time 67530, Note Name: C#6
Note ON: Time 67680, Note Name: C6, Velocity: 81
Note ON: Time 67680, Note Name: G#5, Velocity: 81
Note OFF: Time 67800, Note Name: G#5
Note OFF: Time 67800, Note Name: C6
Note ON: Time 68640, Note Name: C4, Velocity: 81
Note ON: Time 68640, Note Name: D#4, Velocity: 81
Note ON: Time 68640, Note Name: F#4, Velocity: 84
Note OFF: Time 69600, Note Name: F#4
Note OFF: Time 69600, Note Name: D#4
Note OFF: Time 69600, Note Name: C4
Note ON: Time 69600, Note Name: D4, Velocity: 67
Note ON: Time 69600, Note Name: F4, Velocity: 67
Note OFF: Time 69840, Note Name: F4
Note OFF: Time 69840, Note Name: D4
Note ON: Time 69840, Note Name: A4, Velocity: 62
Note ON: Time 69840, Note Name: D#5, Velocity: 67
Note OFF: Time 69930, Note Name: D#5
Note OFF: Time 69930, Note Name: A4
Note ON: Time 70080, Note Name: A#4, Velocity: 65
Note ON: Time 70080, Note Name: D5, Velocity: 69
Note OFF: Time 70170, Note Name: D5
Note OFF: Time 70170, Note Name: A#4
Note ON: Time 70320, Note Name: D#5, Velocity: 71
Note ON: Time 70320, Note Name: A5, Velocity: 71
Note OFF: Time 70410, Note Name: A5
Note OFF: Time 70410, Note Name: D#5
Note ON: Time 70560, Note Name: D5, Velocity: 73
Note ON: Time 70560, Note Name: A#5, Velocity: 73
Note OFF: Time 70650, Note Name: A#5
Note OFF: Time 70650, Note Name: D5
Note ON: Time 70800, Note Name: A5, Velocity: 75
Note ON: Time 70800, Note Name: D#6, Velocity: 75
Note OFF: Time 70890, Note Name: D#6
Note OFF: Time 70890, Note Name: A5
Note ON: Time 71040, Note Name: A#5, Velocity: 77
Note ON: Time 71040, Note Name: D6, Velocity: 77
Note OFF: Time 71130, Note Name: D6
Note OFF: Time 71130, Note Name: A#5
Note ON: Time 71280, Note Name: D#6, Velocity: 79
Note ON: Time 71280, Note Name: A5, Velocity: 79
Note OFF: Time 71370, Note Name: A5
Note OFF: Time 71370, Note Name: D#6
Note ON: Time 71520, Note Name: D6, Velocity: 81
Note ON: Time 71520, Note Name: A#5, Velocity: 81
Note OFF: Time 71640, Note Name: A#5
Note OFF: Time 71640, Note Name: D6
Note ON: Time 72000, Note Name: D#5, Velocity: 81
Note ON: Time 72000, Note Name: A5, Velocity: 81
Note OFF: Time 72480, Note Name: A5
Note OFF: Time 72480, Note Name: D#5
Note ON: Time 72480, Note Name: D5, Velocity: 81
Note ON: Time 72480, Note Name: A#5, Velocity: 81
Note OFF: Time 72720, Note Name: A#5
Note OFF: Time 72720, Note Name: D5
Note ON: Time 72960, Note Name: A4, Velocity: 81
Note ON: Time 72960, Note Name: D#5, Velocity: 81
Note OFF: Time 73440, Note Name: D#5
Note OFF: Time 73440, Note Name: A4
Note ON: Time 73440, Note Name: A#4, Velocity: 81
Note ON: Time 73440, Note Name: D5, Velocity: 81
Note OFF: Time 73680, Note Name: D5
Note OFF: Time 73680, Note Name: A#4
Note ON: Time 73920, Note Name: D#4, Velocity: 81
Note ON: Time 73920, Note Name: A4, Velocity: 81
Note OFF: Time 74400, Note Name: A4
Note OFF: Time 74400, Note Name: D#4
Note ON: Time 74400, Note Name: D4, Velocity: 81
Note ON: Time 74400, Note Name: A#4, Velocity: 81
Note OFF: Time 74640, Note Name: A#4
Note OFF: Time 74640, Note Name: D4
Note ON: Time 74880, Note Name: A3, Velocity: 81
Note ON: Time 74880, Note Name: D#4, Velocity: 81
Note OFF: Time 75360, Note Name: D#4
Note OFF: Time 75360, Note Name: A3
Note ON: Time 75360, Note Name: A#3, Velocity: 81
Note ON: Time 75360, Note Name: D4, Velocity: 81
Note OFF: Time 75600, Note Name: D4
Note OFF: Time 75600, Note Name: A#3
Note ON: Time 75600, Note Name: A3, Velocity: 50
Note OFF: Time 75840, Note Name: A3
Note ON: Time 75840, Note Name: A#3, Velocity: 59
Note OFF: Time 76080, Note Name: A#3
Note ON: Time 76080, Note Name: A3, Velocity: 56
Note OFF: Time 76320, Note Name: A3
Note ON: Time 76320, Note Name: A#3, Velocity: 57
Note OFF: Time 76560, Note Name: A#3
Note ON: Time 76560, Note Name: A3, Velocity: 49
Note OFF: Time 76800, Note Name: A3
Note ON: Time 76800, Note Name: A#3, Velocity: 57
Note OFF: Time 77040, Note Name: A#3
Note ON: Time 77040, Note Name: A3, Velocity: 51
Note OFF: Time 77280, Note Name: A3
Note ON: Time 77520, Note Name: A#2, Velocity: 55
Note OFF: Time 77640, Note Name: A#2
Note ON: Time 77760, Note Name: D#3, Velocity: 58
Note OFF: Time 77880, Note Name: D#3
Note ON: Time 78000, Note Name: F3, Velocity: 61
Note OFF: Time 78120, Note Name: F3
Note ON: Time 78240, Note Name: F#3, Velocity: 64
Note OFF: Time 78360, Note Name: F#3
Note ON: Time 78480, Note Name: A#4, Velocity: 62
Note OFF: Time 78600, Note Name: A#4
Note ON: Time 78720, Note Name: D#5, Velocity: 64
Note OFF: Time 78840, Note Name: D#5
Note ON: Time 78960, Note Name: F5, Velocity: 66
Note OFF: Time 79080, Note Name: F5
Note ON: Time 79140, Note Name: A#4, Velocity: 65
Note OFF: Time 79200, Note Name: A#4
Note ON: Time 79200, Note Name: F#5, Velocity: 75
Note OFF: Time 79920, Note Name: F#5
Note ON: Time 79920, Note Name: D#5, Velocity: 63
Note ON: Time 80100, Note Name: A#4, Velocity: 60
Note OFF: Time 80160, Note Name: A#4
Note OFF: Time 80160, Note Name: D#5
Note ON: Time 80160, Note Name: F#5, Velocity: 71
Note OFF: Time 80880, Note Name: F#5
Note ON: Time 80880, Note Name: D#5, Velocity: 58
Note OFF: Time 81120, Note Name: D#5
Note ON: Time 81120, Note Name: D5, Velocity: 60
Note OFF: Time 81360, Note Name: D5
Note ON: Time 81360, Note Name: A#2, Velocity: 57
Note OFF: Time 81480, Note Name: A#2
Note ON: Time 81600, Note Name: F3, Velocity: 60
Note OFF: Time 81720, Note Name: F3
Note ON: Time 81840, Note Name: F#3, Velocity: 63
Note OFF: Time 81960, Note Name: F#3
Note ON: Time 82080, Note Name: G#3, Velocity: 66
Note OFF: Time 82200, Note Name: G#3
Note ON: Time 82320, Note Name: A#4, Velocity: 59
Note OFF: Time 82560, Note Name: A#4
Note ON: Time 82560, Note Name: G#5, Velocity: 62
Note OFF: Time 82800, Note Name: G#5
Note ON: Time 82800, Note Name: F#5, Velocity: 65
Note OFF: Time 83040, Note Name: F#5
Note ON: Time 83040, Note Name: F#5, Velocity: 60
Note OFF: Time 83100, Note Name: F#5
Note ON: Time 83100, Note Name: G#5, Velocity: 60
Note OFF: Time 83160, Note Name: G#5
Note ON: Time 83160, Note Name: F#5, Velocity: 67
Note OFF: Time 83280, Note Name: F#5
Note ON: Time 83280, Note Name: F5, Velocity: 60
Note OFF: Time 83520, Note Name: F5
Note ON: Time 83520, Note Name: F5, Velocity: 60
Note OFF: Time 83580, Note Name: F5
Note ON: Time 83580, Note Name: F#5, Velocity: 60
Note OFF: Time 83640, Note Name: F#5
Note ON: Time 83640, Note Name: F5, Velocity: 67
Note OFF: Time 83760, Note Name: F5
Note ON: Time 83760, Note Name: D#5, Velocity: 60
Note OFF: Time 84000, Note Name: D#5
Note ON: Time 84000, Note Name: D#5, Velocity: 60
Note OFF: Time 84060, Note Name: D#5
Note ON: Time 84060, Note Name: F5, Velocity: 60
Note OFF: Time 84120, Note Name: F5
Note ON: Time 84120, Note Name: D#5, Velocity: 66
Note OFF: Time 84240, Note Name: D#5
Note ON: Time 84240, Note Name: D5, Velocity: 60
Note OFF: Time 84480, Note Name: D5
Note ON: Time 84480, Note Name: C5, Velocity: 60
Note OFF: Time 84600, Note Name: C5
Note ON: Time 84720, Note Name: D5, Velocity: 60
Note OFF: Time 84840, Note Name: D5
Note ON: Time 84960, Note Name: D#5, Velocity: 60
Note OFF: Time 85200, Note Name: D#5
Note ON: Time 85200, Note Name: A#2, Velocity: 55
Note OFF: Time 85320, Note Name: A#2
Note ON: Time 85440, Note Name: D#3, Velocity: 58
Note OFF: Time 85560, Note Name: D#3
Note ON: Time 85680, Note Name: F3, Velocity: 61
Note OFF: Time 85800, Note Name: F3
Note ON: Time 85920, Note Name: F#3, Velocity: 64
Note OFF: Time 86040, Note Name: F#3
Note ON: Time 86160, Note Name: A#4, Velocity: 62
Note OFF: Time 86280, Note Name: A#4
Note ON: Time 86400, Note Name: D#5, Velocity: 64
Note OFF: Time 86520, Note Name: D#5
Note ON: Time 86640, Note Name: F5, Velocity: 66
Note OFF: Time 86760, Note Name: F5
Note ON: Time 86820, Note Name: A#4, Velocity: 65
Note OFF: Time 86880, Note Name: A#4
Note ON: Time 86880, Note Name: F#5, Velocity: 75
Note OFF: Time 87600, Note Name: F#5
Note ON: Time 87600, Note Name: D#5, Velocity: 63
Note ON: Time 87780, Note Name: A#4, Velocity: 60
Note OFF: Time 87840, Note Name: A#4
Note OFF: Time 87840, Note Name: D#5
Note ON: Time 87840, Note Name: F#5, Velocity: 71
Note OFF: Time 88560, Note Name: F#5
Note ON: Time 88560, Note Name: D#5, Velocity: 58
Note OFF: Time 88800, Note Name: D#5
Note ON: Time 88800, Note Name: C5, Velocity: 60
Note OFF: Time 89040, Note Name: C5
Note ON: Time 89040, Note Name: G#2, Velocity: 57
Note OFF: Time 89160, Note Name: G#2
Note ON: Time 89280, Note Name: D#3, Velocity: 60
Note OFF: Time 89400, Note Name: D#3
Note ON: Time 89520, Note Name: F3, Velocity: 63
Note OFF: Time 89640, Note Name: F3
Note ON: Time 89760, Note Name: F#3, Velocity: 66
Note OFF: Time 89880, Note Name: F#3
Note ON: Time 90000, Note Name: G#4, Velocity: 59
Note OFF: Time 90240, Note Name: G#4
Note ON: Time 90240, Note Name: F#5, Velocity: 62
Note OFF: Time 90480, Note Name: F#5
Note ON: Time 90480, Note Name: F5, Velocity: 65
Note OFF: Time 90720, Note Name: F5
Note ON: Time 90720, Note Name: F5, Velocity: 60
Note OFF: Time 90780, Note Name: F5
Note ON: Time 90780, Note Name: F#5, Velocity: 60
Note OFF: Time 90840, Note Name: F#5
Note ON: Time 90840, Note Name: F5, Velocity: 67
Note OFF: Time 90960, Note Name: F5
Note ON: Time 90960, Note Name: D#5, Velocity: 60
Note OFF: Time 91200, Note Name: D#5
Note ON: Time 91200, Note Name: D#5, Velocity: 60
Note OFF: Time 91260, Note Name: D#5
Note ON: Time 91260, Note Name: F5, Velocity: 60
Note OFF: Time 91320, Note Name: F5
Note ON: Time 91320, Note Name: D#5, Velocity: 67
Note OFF: Time 91440, Note Name: D#5
Note ON: Time 91440, Note Name: C#5, Velocity: 60
Note OFF: Time 91680, Note Name: C#5
Note ON: Time 91680, Note Name: C#5, Velocity: 60
Note OFF: Time 91740, Note Name: C#5
Note ON: Time 91740, Note Name: D#5, Velocity: 60
Note OFF: Time 91800, Note Name: D#5
Note ON: Time 91800, Note Name: C#5, Velocity: 66
Note OFF: Time 91920, Note Name: C#5
Note ON: Time 91920, Note Name: C5, Velocity: 60
Note OFF: Time 92160, Note Name: C5
Note ON: Time 92160, Note Name: A#4, Velocity: 60
Note OFF: Time 92280, Note Name: A#4
Note ON: Time 92400, Note Name: C5, Velocity: 60
Note OFF: Time 92520, Note Name: C5
Note ON: Time 92640, Note Name: C#5, Velocity: 60
Note OFF: Time 92880, Note Name: C#5
Note ON: Time 92880, Note Name: G#2, Velocity: 55
Note OFF: Time 93000, Note Name: G#2
Note ON: Time 93120, Note Name: C#3, Velocity: 58
Note OFF: Time 93240, Note Name: C#3
Note ON: Time 93360, Note Name: D#3, Velocity: 61
Note OFF: Time 93480, Note Name: D#3
Note ON: Time 93600, Note Name: F3, Velocity: 64
Note OFF: Time 93720, Note Name: F3
Note ON: Time 93840, Note Name: G#4, Velocity: 62
Note OFF: Time 93960, Note Name: G#4
Note ON: Time 94080, Note Name: C#5, Velocity: 64
Note OFF: Time 94200, Note Name: C#5
Note ON: Time 94320, Note Name: D#5, Velocity: 66
Note OFF: Time 94440, Note Name: D#5
Note ON: Time 94500, Note Name: G#4, Velocity: 65
Note OFF: Time 94560, Note Name: G#4
Note ON: Time 94560, Note Name: F5, Velocity: 75
Note OFF: Time 95280, Note Name: F5
Note ON: Time 95280, Note Name: C#5, Velocity: 63
Note ON: Time 95460, Note Name: G#4, Velocity: 60
Note OFF: Time 95520, Note Name: G#4
Note OFF: Time 95520, Note Name: C#5
Note ON: Time 95520, Note Name: F5, Velocity: 71
Note OFF: Time 96240, Note Name: F5
Note ON: Time 96240, Note Name: C#5, Velocity: 58
Note OFF: Time 96480, Note Name: C#5
Note ON: Time 96480, Note Name: C5, Velocity: 60
Note OFF: Time 96720, Note Name: C5
Note ON: Time 96720, Note Name: G#2, Velocity: 57
Note OFF: Time 96840, Note Name: G#2
Note ON: Time 96960, Note Name: D#3, Velocity: 60
Note OFF: Time 97080, Note Name: D#3
Note ON: Time 97200, Note Name: F3, Velocity: 63
Note OFF: Time 97320, Note Name: F3
Note ON: Time 97440, Note Name: F#3, Velocity: 66
Note OFF: Time 97560, Note Name: F#3
Note ON: Time 97680, Note Name: G#4, Velocity: 59
Note OFF: Time 97920, Note Name: G#4
Note ON: Time 97920, Note Name: F#5, Velocity: 62
Note OFF: Time 98160, Note Name: F#5
Note ON: Time 98160, Note Name: F5, Velocity: 65
Note OFF: Time 98400, Note Name: F5
Note ON: Time 98400, Note Name: F5, Velocity: 60
Note OFF: Time 98460, Note Name: F5
Note ON: Time 98460, Note Name: F#5, Velocity: 60
Note OFF: Time 98520, Note Name: F#5
Note ON: Time 98520, Note Name: F5, Velocity: 67
Note OFF: Time 98640, Note Name: F5
Note ON: Time 98640, Note Name: D#5, Velocity: 60
Note OFF: Time 98880, Note Name: D#5
Note ON: Time 98880, Note Name: D#5, Velocity: 60
Note OFF: Time 98940, Note Name: D#5
Note ON: Time 98940, Note Name: F5, Velocity: 60
Note OFF: Time 99000, Note Name: F5
Note ON: Time 99000, Note Name: D#5, Velocity: 67
Note OFF: Time 99120, Note Name: D#5
Note ON: Time 99120, Note Name: C#5, Velocity: 60
Note OFF: Time 99360, Note Name: C#5
Note ON: Time 99360, Note Name: C#5, Velocity: 60
Note OFF: Time 99420, Note Name: C#5
Note ON: Time 99420, Note Name: D#5, Velocity: 60
Note OFF: Time 99480, Note Name: D#5
Note ON: Time 99480, Note Name: C#5, Velocity: 66
Note OFF: Time 99600, Note Name: C#5
Note ON: Time 99600, Note Name: C5, Velocity: 60
Note OFF: Time 99840, Note Name: C5
Note ON: Time 99840, Note Name: A#4, Velocity: 60
Note OFF: Time 99960, Note Name: A#4
Note ON: Time 100080, Note Name: C5, Velocity: 57
Note OFF: Time 100200, Note Name: C5
Note ON: Time 100320, Note Name: C#5, Velocity: 60
Note OFF: Time 100560, Note Name: C#5
Note ON: Time 100560, Note Name: C#3, Velocity: 73
Note OFF: Time 100800, Note Name: C#3
Note ON: Time 100800, Note Name: G#3, Velocity: 77
Note OFF: Time 101040, Note Name: G#3
Note ON: Time 101040, Note Name: B2, Velocity: 73
Note OFF: Time 101160, Note Name: B2
Note ON: Time 101280, Note Name: A#2, Velocity: 77
Note OFF: Time 101400, Note Name: A#2
Note ON: Time 101520, Note Name: A#4, Velocity: 59
Note OFF: Time 101760, Note Name: A#4
Note ON: Time 101760, Note Name: G#5, Velocity: 62
Note OFF: Time 102000, Note Name: G#5
Note ON: Time 102000, Note Name: F#5, Velocity: 65
Note OFF: Time 102240, Note Name: F#5
Note ON: Time 102240, Note Name: F#5, Velocity: 60
Note OFF: Time 102300, Note Name: F#5
Note ON: Time 102300, Note Name: G#5, Velocity: 60
Note OFF: Time 102360, Note Name: G#5
Note ON: Time 102360, Note Name: F#5, Velocity: 67
Note OFF: Time 102480, Note Name: F#5
Note ON: Time 102480, Note Name: F5, Velocity: 60
Note OFF: Time 102720, Note Name: F5
Note ON: Time 102720, Note Name: F5, Velocity: 60
Note OFF: Time 102780, Note Name: F5
Note ON: Time 102780, Note Name: F#5, Velocity: 60
Note OFF: Time 102840, Note Name: F#5
Note ON: Time 102840, Note Name: F5, Velocity: 67
Note OFF: Time 102960, Note Name: F5
Note ON: Time 102960, Note Name: D#5, Velocity: 60
Note OFF: Time 103200, Note Name: D#5
Note ON: Time 103200, Note Name: D#5, Velocity: 60
Note OFF: Time 103260, Note Name: D#5
Note ON: Time 103260, Note Name: F5, Velocity: 60
Note OFF: Time 103320, Note Name: F5
Note ON: Time 103320, Note Name: D#5, Velocity: 66
Note OFF: Time 103440, Note Name: D#5
Note ON: Time 103440, Note Name: D5, Velocity: 60
Note OFF: Time 103680, Note Name: D5
Note ON: Time 103680, Note Name: C5, Velocity: 60
Note OFF: Time 103800, Note Name: C5
Note ON: Time 103920, Note Name: D5, Velocity: 57
Note OFF: Time 104040, Note Name: D5
Note ON: Time 104160, Note Name: D#5, Velocity: 60
Note OFF: Time 104400, Note Name: D#5
Note ON: Time 104400, Note Name: D#3, Velocity: 73
Note OFF: Time 104640, Note Name: D#3
Note ON: Time 104640, Note Name: A#3, Velocity: 77
Note OFF: Time 104880, Note Name: A#3
Note ON: Time 104880, Note Name: C#3, Velocity: 73
Note OFF: Time 105000, Note Name: C#3
Note ON: Time 105120, Note Name: C3, Velocity: 77
Note OFF: Time 105240, Note Name: C3
Note ON: Time 105360, Note Name: C5, Velocity: 59
Note OFF: Time 105600, Note Name: C5
Note ON: Time 105600, Note Name: A#5, Velocity: 62
Note OFF: Time 105840, Note Name: A#5
Note ON: Time 105840, Note Name: G#5, Velocity: 65
Note OFF: Time 106080, Note Name: G#5
Note ON: Time 106080, Note Name: G#5, Velocity: 60
Note OFF: Time 106140, Note Name: G#5
Note ON: Time 106140, Note Name: A#5, Velocity: 60
Note OFF: Time 106200, Note Name: A#5
Note ON: Time 106200, Note Name: G#5, Velocity: 67
Note OFF: Time 106320, Note Name: G#5
Note ON: Time 106320, Note Name: G5, Velocity: 60
Note OFF: Time 106560, Note Name: G5
Note ON: Time 106560, Note Name: G5, Velocity: 60
Note OFF: Time 106620, Note Name: G5
Note ON: Time 106620, Note Name: G#5, Velocity: 60
Note OFF: Time 106680, Note Name: G#5
Note ON: Time 106680, Note Name: G5, Velocity: 67
Note OFF: Time 106800, Note Name: G5
Note ON: Time 106800, Note Name: F5, Velocity: 60
Note OFF: Time 107040, Note Name: F5
Note ON: Time 107040, Note Name: F5, Velocity: 60
Note OFF: Time 107100, Note Name: F5
Note ON: Time 107100, Note Name: G5, Velocity: 60
Note OFF: Time 107160, Note Name: G5
Note ON: Time 107160, Note Name: F5, Velocity: 66
Note OFF: Time 107280, Note Name: F5
Note ON: Time 107280, Note Name: E5, Velocity: 60
Note OFF: Time 107520, Note Name: E5
Note ON: Time 107520, Note Name: D5, Velocity: 60
Note OFF: Time 107760, Note Name: D5
Note ON: Time 107760, Note Name: E5, Velocity: 57
Note OFF: Time 108000, Note Name: E5
Note ON: Time 108000, Note Name: G5, Velocity: 60
Note OFF: Time 108060, Note Name: G5
Note ON: Time 108060, Note Name: G#5, Velocity: 60
Note OFF: Time 108120, Note Name: G#5
Note ON: Time 108120, Note Name: G5, Velocity: 67
Note OFF: Time 108240, Note Name: G5
Note ON: Time 108240, Note Name: F5, Velocity: 60
Note OFF: Time 108480, Note Name: F5
Note ON: Time 108480, Note Name: F5, Velocity: 60
Note OFF: Time 108540, Note Name: F5
Note ON: Time 108540, Note Name: G5, Velocity: 60
Note OFF: Time 108600, Note Name: G5
Note ON: Time 108600, Note Name: F5, Velocity: 67
Note OFF: Time 108720, Note Name: F5
Note ON: Time 108720, Note Name: D#5, Velocity: 60
Note OFF: Time 108960, Note Name: D#5
Note ON: Time 108960, Note Name: D#5, Velocity: 60
Note OFF: Time 109020, Note Name: D#5
Note ON: Time 109020, Note Name: F5, Velocity: 60
Note OFF: Time 109080, Note Name: F5
Note ON: Time 109080, Note Name: D#5, Velocity: 66
Note OFF: Time 109200, Note Name: D#5
Note ON: Time 109200, Note Name: D5, Velocity: 60
Note OFF: Time 109440, Note Name: D5
Note ON: Time 109440, Note Name: C5, Velocity: 60
Note OFF: Time 109680, Note Name: C5
Note ON: Time 109680, Note Name: D5, Velocity: 57
Note OFF: Time 109920, Note Name: D5
Note ON: Time 109920, Note Name: F5, Velocity: 60
Note OFF: Time 109980, Note Name: F5
Note ON: Time 109980, Note Name: G5, Velocity: 60
Note OFF: Time 110040, Note Name: G5
Note ON: Time 110040, Note Name: F5, Velocity: 67
Note OFF: Time 110160, Note Name: F5
Note ON: Time 110160, Note Name: D#5, Velocity: 59
Note OFF: Time 110400, Note Name: D#5
Note ON: Time 110400, Note Name: D#5, Velocity: 58
Note OFF: Time 110460, Note Name: D#5
Note ON: Time 110460, Note Name: F5, Velocity: 58
Note OFF: Time 110520, Note Name: F5
Note ON: Time 110520, Note Name: D#5, Velocity: 64
Note OFF: Time 110640, Note Name: D#5
Note ON: Time 110640, Note Name: D5, Velocity: 57
Note OFF: Time 110880, Note Name: D5
Note ON: Time 110880, Note Name: D5, Velocity: 56
Note OFF: Time 110940, Note Name: D5
Note ON: Time 110940, Note Name: D#5, Velocity: 55
Note OFF: Time 111000, Note Name: D#5
Note ON: Time 111000, Note Name: D5, Velocity: 61
Note OFF: Time 111120, Note Name: D5
Note ON: Time 111120, Note Name: C5, Velocity: 55
Note OFF: Time 111360, Note Name: C5
Note ON: Time 111360, Note Name: C5, Velocity: 54
Note OFF: Time 111420, Note Name: C5
Note ON: Time 111420, Note Name: D5, Velocity: 54
Note OFF: Time 111480, Note Name: D5
Note ON: Time 111480, Note Name: C5, Velocity: 59
Note OFF: Time 111600, Note Name: C5
Note ON: Time 111600, Note Name: B4, Velocity: 53
Note OFF: Time 111840, Note Name: B4
Note ON: Time 111840, Note Name: C5, Velocity: 52
Note OFF: Time 111900, Note Name: C5
Note ON: Time 111900, Note Name: D5, Velocity: 52
Note OFF: Time 111960, Note Name: D5
Note ON: Time 111960, Note Name: C5, Velocity: 56
Note OFF: Time 112080, Note Name: C5
Note ON: Time 112080, Note Name: A#4, Velocity: 51
Note OFF: Time 112320, Note Name: A#4
Note ON: Time 112320, Note Name: A#4, Velocity: 50
Note OFF: Time 112410, Note Name: A#4
Note ON: Time 112560, Note Name: A#4, Velocity: 46
Note OFF: Time 112650, Note Name: A#4
Note ON: Time 112800, Note Name: C5, Velocity: 37
Note OFF: Time 112860, Note Name: C5
Note ON: Time 112860, Note Name: D5, Velocity: 37
Note OFF: Time 112920, Note Name: D5
Note ON: Time 112920, Note Name: C5, Velocity: 41
Note OFF: Time 113040, Note Name: C5
Note ON: Time 113040, Note Name: A#4, Velocity: 37
Note OFF: Time 113280, Note Name: A#4
Note ON: Time 113280, Note Name: A#4, Velocity: 37
Note OFF: Time 113370, Note Name: A#4
Note ON: Time 113520, Note Name: A#4, Velocity: 35
Note OFF: Time 113610, Note Name: A#4
Note ON: Time 113880, Note Name: D#4, Velocity: 25
Note OFF: Time 114000, Note Name: D#4
Note ON: Time 114000, Note Name: G4, Velocity: 29
Note OFF: Time 114120, Note Name: G4
Note ON: Time 114120, Note Name: D#4, Velocity: 29
Note OFF: Time 114240, Note Name: D#4
Note ON: Time 114240, Note Name: D#5, Velocity: 45
Note ON: Time 114360, Note Name: D#4, Velocity: 28
Note OFF: Time 114480, Note Name: D#4
Note ON: Time 114480, Note Name: G4, Velocity: 30
Note OFF: Time 114600, Note Name: G4
Note ON: Time 114600, Note Name: D#4, Velocity: 28
Note OFF: Time 114720, Note Name: D#4
Note ON: Time 114720, Note Name: G4, Velocity: 31
Note OFF: Time 114840, Note Name: G4
Note ON: Time 114840, Note Name: D#4, Velocity: 30
Note OFF: Time 114960, Note Name: D#4
Note ON: Time 114960, Note Name: G4, Velocity: 32
Note OFF: Time 115080, Note Name: G4
Note ON: Time 115080, Note Name: D#4, Velocity: 29
Note OFF: Time 115200, Note Name: D#4
Note OFF: Time 115200, Note Name: D#5
Note ON: Time 115200, Note Name: D#5, Velocity: 50
Note ON: Time 115320, Note Name: D#4, Velocity: 30
Note OFF: Time 115440, Note Name: D#4
Note ON: Time 115440, Note Name: G4, Velocity: 33
Note OFF: Time 115560, Note Name: G4
Note ON: Time 115560, Note Name: D#4, Velocity: 32
Note OFF: Time 115680, Note Name: D#4
Note OFF: Time 115680, Note Name: D#5
Note ON: Time 115800, Note Name: D#4, Velocity: 32
Note OFF: Time 115920, Note Name: D#4
Note ON: Time 115920, Note Name: G4, Velocity: 36
Note OFF: Time 116040, Note Name: G4
Note ON: Time 116040, Note Name: D#4, Velocity: 35
Note OFF: Time 116160, Note Name: D#4
Note ON: Time 116160, Note Name: D#5, Velocity: 54
Note ON: Time 116280, Note Name: D#4, Velocity: 33
Note OFF: Time 116400, Note Name: D#4
Note ON: Time 116400, Note Name: G4, Velocity: 35
Note OFF: Time 116520, Note Name: G4
Note ON: Time 116520, Note Name: D#4, Velocity: 32
Note OFF: Time 116640, Note Name: D#4
Note ON: Time 116640, Note Name: G4, Velocity: 35
Note OFF: Time 116760, Note Name: G4
Note ON: Time 116760, Note Name: D#4, Velocity: 33
Note OFF: Time 116880, Note Name: D#4
Note ON: Time 116880, Note Name: G4, Velocity: 35
Note OFF: Time 117000, Note Name: G4
Note ON: Time 117000, Note Name: D#4, Velocity: 32
Note OFF: Time 117120, Note Name: D#4
Note OFF: Time 117120, Note Name: D#5
Note ON: Time 117120, Note Name: D#5, Velocity: 53
Note ON: Time 117240, Note Name: D#4, Velocity: 32
Note OFF: Time 117360, Note Name: D#4
Note ON: Time 117360, Note Name: G4, Velocity: 35
Note OFF: Time 117480, Note Name: G4
Note ON: Time 117480, Note Name: D#4, Velocity: 33
Note OFF: Time 117600, Note Name: D#4
Note OFF: Time 117600, Note Name: D#5
Note ON: Time 117600, Note Name: D#5, Velocity: 66
Note OFF: Time 117690, Note Name: D#5
Note ON: Time 117720, Note Name: D#4, Velocity: 41
Note OFF: Time 117840, Note Name: D#4
Note ON: Time 117840, Note Name: G#4, Velocity: 45
Note OFF: Time 117960, Note Name: G#4
Note ON: Time 117960, Note Name: D#4, Velocity: 42
Note OFF: Time 118080, Note Name: D#4
Note ON: Time 118080, Note Name: E5, Velocity: 67
Note OFF: Time 118170, Note Name: E5
Note ON: Time 118200, Note Name: E4, Velocity: 43
Note OFF: Time 118320, Note Name: E4
Note ON: Time 118320, Note Name: C5, Velocity: 47
Note OFF: Time 118440, Note Name: C5
Note ON: Time 118440, Note Name: E4, Velocity: 43
Note OFF: Time 118560, Note Name: E4
Note ON: Time 118560, Note Name: F5, Velocity: 71
Note OFF: Time 118650, Note Name: F5
Note ON: Time 118680, Note Name: F4, Velocity: 45
Note OFF: Time 118800, Note Name: F4
Note ON: Time 118800, Note Name: C5, Velocity: 50
Note OFF: Time 118920, Note Name: C5
Note ON: Time 118920, Note Name: F4, Velocity: 45
Note OFF: Time 119040, Note Name: F4
Note ON: Time 119040, Note Name: G5, Velocity: 72
Note OFF: Time 119130, Note Name: G5
Note ON: Time 119160, Note Name: G4, Velocity: 47
Note OFF: Time 119280, Note Name: G4
Note ON: Time 119280, Note Name: C5, Velocity: 50
Note OFF: Time 119400, Note Name: C5
Note ON: Time 119400, Note Name: G4, Velocity: 47
Note OFF: Time 119520, Note Name: G4
Note ON: Time 119520, Note Name: G#5, Velocity: 74
Note OFF: Time 119610, Note Name: G#5
Note ON: Time 119640, Note Name: G#4, Velocity: 49
Note OFF: Time 119760, Note Name: G#4
Note ON: Time 119760, Note Name: C5, Velocity: 54
Note OFF: Time 119880, Note Name: C5
Note ON: Time 119880, Note Name: G#4, Velocity: 49
Note OFF: Time 120000, Note Name: G#4
Note ON: Time 120000, Note Name: A5, Velocity: 80
Note OFF: Time 120090, Note Name: A5
Note ON: Time 120120, Note Name: A4, Velocity: 50
Note OFF: Time 120240, Note Name: A4
Note ON: Time 120240, Note Name: C5, Velocity: 55
Note OFF: Time 120360, Note Name: C5
Note ON: Time 120360, Note Name: A4, Velocity: 51
Note OFF: Time 120480, Note Name: A4
Note ON: Time 120480, Note Name: A#5, Velocity: 84
Note OFF: Time 120570, Note Name: A#5
Note ON: Time 120600, Note Name: A#4, Velocity: 51
Note OFF: Time 120720, Note Name: A#4
Note ON: Time 120720, Note Name: F5, Velocity: 58
Note OFF: Time 120840, Note Name: F5
Note ON: Time 120840, Note Name: A#4, Velocity: 53
Note OFF: Time 120960, Note Name: A#4
Note ON: Time 120960, Note Name: C6, Velocity: 85
Note OFF: Time 121050, Note Name: C6
Note ON: Time 121080, Note Name: C5, Velocity: 53
Note OFF: Time 121200, Note Name: C5
Note ON: Time 121200, Note Name: F5, Velocity: 58
Note OFF: Time 121320, Note Name: F5
Note ON: Time 121320, Note Name: C5, Velocity: 54
Note OFF: Time 121440, Note Name: C5
Note ON: Time 121440, Note Name: C#6, Velocity: 85
Note OFF: Time 121530, Note Name: C#6
Note ON: Time 121560, Note Name: C#5, Velocity: 55
Note OFF: Time 121680, Note Name: C#5
Note ON: Time 121680, Note Name: F5, Velocity: 63
Note OFF: Time 121800, Note Name: F5
Note ON: Time 121800, Note Name: C#5, Velocity: 55
Note OFF: Time 121920, Note Name: C#5
Note ON: Time 121920, Note Name: D6, Velocity: 90
Note OFF: Time 122010, Note Name: D6
Note ON: Time 122040, Note Name: D5, Velocity: 57
Note OFF: Time 122160, Note Name: D5
Note ON: Time 122160, Note Name: F5, Velocity: 62
Note OFF: Time 122280, Note Name: F5
Note ON: Time 122280, Note Name: D5, Velocity: 57
Note OFF: Time 122400, Note Name: D5
Note ON: Time 122400, Note Name: D#6, Velocity: 89
Note OFF: Time 122490, Note Name: D#6
Note ON: Time 122520, Note Name: D#5, Velocity: 59
Note OFF: Time 122640, Note Name: D#5
Note ON: Time 122640, Note Name: A#5, Velocity: 64
Note OFF: Time 122760, Note Name: A#5
Note ON: Time 122760, Note Name: D#5, Velocity: 59
Note OFF: Time 122880, Note Name: D#5
Note ON: Time 122880, Note Name: B5, Velocity: 91
Note OFF: Time 122970, Note Name: B5
Note ON: Time 123000, Note Name: B4, Velocity: 61
Note OFF: Time 123120, Note Name: B4
Note ON: Time 123120, Note Name: D#5, Velocity: 67
Note OFF: Time 123240, Note Name: D#5
Note ON: Time 123240, Note Name: B4, Velocity: 61
Note OFF: Time 123360, Note Name: B4
Note ON: Time 123480, Note Name: C5, Velocity: 78
Note OFF: Time 123600, Note Name: C5
Note ON: Time 123600, Note Name: D#5, Velocity: 84
Note OFF: Time 123720, Note Name: D#5
Note ON: Time 123720, Note Name: C5, Velocity: 78
Note OFF: Time 123840, Note Name: C5
Note ON: Time 123840, Note Name: C6, Velocity: 88
Note OFF: Time 123930, Note Name: C6
Note ON: Time 123960, Note Name: C5, Velocity: 78
Note OFF: Time 124080, Note Name: C5
Note ON: Time 124080, Note Name: D#5, Velocity: 84
Note OFF: Time 124200, Note Name: D#5
Note ON: Time 124200, Note Name: C5, Velocity: 76
Note OFF: Time 124320, Note Name: C5
Note ON: Time 124440, Note Name: F4, Velocity: 78
Note OFF: Time 124560, Note Name: F4
Note ON: Time 124560, Note Name: G#4, Velocity: 84
Note OFF: Time 124680, Note Name: G#4
Note ON: Time 124680, Note Name: F4, Velocity: 78
Note OFF: Time 124800, Note Name: F4
Note ON: Time 124800, Note Name: D5, Velocity: 88
Note OFF: Time 124890, Note Name: D5
Note ON: Time 124920, Note Name: F4, Velocity: 78
Note OFF: Time 125040, Note Name: F4
Note ON: Time 125040, Note Name: G#4, Velocity: 84
Note OFF: Time 125160, Note Name: G#4
Note ON: Time 125160, Note Name: F4, Velocity: 76
Note OFF: Time 125280, Note Name: F4
Note ON: Time 125400, Note Name: D#4, Velocity: 32
Note OFF: Time 125520, Note Name: D#4
Note ON: Time 125520, Note Name: G4, Velocity: 36
Note OFF: Time 125640, Note Name: G4
Note ON: Time 125640, Note Name: D#4, Velocity: 35
Note OFF: Time 125760, Note Name: D#4
Note ON: Time 125760, Note Name: D#5, Velocity: 54
Note ON: Time 125880, Note Name: D#4, Velocity: 33
Note OFF: Time 126000, Note Name: D#4
Note ON: Time 126000, Note Name: G4, Velocity: 35
Note OFF: Time 126120, Note Name: G4
Note ON: Time 126120, Note Name: D#4, Velocity: 32
Note OFF: Time 126240, Note Name: D#4
Note ON: Time 126240, Note Name: G4, Velocity: 35
Note OFF: Time 126360, Note Name: G4
Note ON: Time 126360, Note Name: D#4, Velocity: 33
Note OFF: Time 126480, Note Name: D#4
Note ON: Time 126480, Note Name: G4, Velocity: 35
Note OFF: Time 126600, Note Name: G4
Note ON: Time 126600, Note Name: D#4, Velocity: 32
Note OFF: Time 126720, Note Name: D#4
Note OFF: Time 126720, Note Name: D#5
Note ON: Time 126720, Note Name: D#5, Velocity: 53
Note ON: Time 126840, Note Name: D#4, Velocity: 32
Note OFF: Time 126960, Note Name: D#4
Note ON: Time 126960, Note Name: G4, Velocity: 35
Note OFF: Time 127080, Note Name: G4
Note ON: Time 127080, Note Name: D#4, Velocity: 33
Note OFF: Time 127200, Note Name: D#4
Note OFF: Time 127200, Note Name: D#5
Note ON: Time 127320, Note Name: D#4, Velocity: 32
Note OFF: Time 127440, Note Name: D#4
Note ON: Time 127440, Note Name: G4, Velocity: 36
Note OFF: Time 127560, Note Name: G4
Note ON: Time 127560, Note Name: D#4, Velocity: 35
Note OFF: Time 127680, Note Name: D#4
Note ON: Time 127680, Note Name: D#5, Velocity: 54
Note ON: Time 127800, Note Name: D#4, Velocity: 33
Note OFF: Time 127920, Note Name: D#4
Note ON: Time 127920, Note Name: G4, Velocity: 35
Note OFF: Time 128040, Note Name: G4
Note ON: Time 128040, Note Name: D#4, Velocity: 32
Note OFF: Time 128160, Note Name: D#4
Note ON: Time 128160, Note Name: G4, Velocity: 35
Note OFF: Time 128280, Note Name: G4
Note ON: Time 128280, Note Name: D#4, Velocity: 33
Note OFF: Time 128400, Note Name: D#4
Note ON: Time 128400, Note Name: G4, Velocity: 35
Note OFF: Time 128520, Note Name: G4
Note ON: Time 128520, Note Name: D#4, Velocity: 32
Note OFF: Time 128640, Note Name: D#4
Note OFF: Time 128640, Note Name: D#5
Note ON: Time 128640, Note Name: D#5, Velocity: 53
Note ON: Time 128760, Note Name: D#4, Velocity: 32
Note OFF: Time 128880, Note Name: D#4
Note ON: Time 128880, Note Name: G4, Velocity: 35
Note OFF: Time 129000, Note Name: G4
Note ON: Time 129000, Note Name: D#4, Velocity: 33
Note OFF: Time 129120, Note Name: D#4
Note OFF: Time 129120, Note Name: D#5
Note ON: Time 129120, Note Name: D#5, Velocity: 66
Note OFF: Time 129210, Note Name: D#5
Note ON: Time 129240, Note Name: D#4, Velocity: 41
Note OFF: Time 129360, Note Name: D#4
Note ON: Time 129360, Note Name: G#4, Velocity: 45
Note OFF: Time 129480, Note Name: G#4
Note ON: Time 129480, Note Name: D#4, Velocity: 42
Note OFF: Time 129600, Note Name: D#4
Note ON: Time 129600, Note Name: E5, Velocity: 67
Note OFF: Time 129690, Note Name: E5
Note ON: Time 129720, Note Name: E4, Velocity: 43
Note OFF: Time 129840, Note Name: E4
Note ON: Time 129840, Note Name: C5, Velocity: 47
Note OFF: Time 129960, Note Name: C5
Note ON: Time 129960, Note Name: E4, Velocity: 43
Note OFF: Time 130080, Note Name: E4
Note ON: Time 130080, Note Name: F5, Velocity: 71
Note OFF: Time 130170, Note Name: F5
Note ON: Time 130200, Note Name: F4, Velocity: 45
Note OFF: Time 130320, Note Name: F4
Note ON: Time 130320, Note Name: C5, Velocity: 50
Note OFF: Time 130440, Note Name: C5
Note ON: Time 130440, Note Name: F4, Velocity: 45
Note OFF: Time 130560, Note Name: F4
Note ON: Time 130560, Note Name: G5, Velocity: 72
Note OFF: Time 130650, Note Name: G5
Note ON: Time 130680, Note Name: G4, Velocity: 47
Note OFF: Time 130800, Note Name: G4
Note ON: Time 130800, Note Name: C5, Velocity: 50
Note OFF: Time 130920, Note Name: C5
Note ON: Time 130920, Note Name: G4, Velocity: 47
Note OFF: Time 131040, Note Name: G4
Note ON: Time 131040, Note Name: G#5, Velocity: 74
Note OFF: Time 131130, Note Name: G#5
Note ON: Time 131160, Note Name: G#4, Velocity: 49
Note OFF: Time 131280, Note Name: G#4
Note ON: Time 131280, Note Name: C5, Velocity: 54
Note OFF: Time 131400, Note Name: C5
Note ON: Time 131400, Note Name: G#4, Velocity: 49
Note OFF: Time 131520, Note Name: G#4
Note ON: Time 131520, Note Name: A5, Velocity: 80
Note OFF: Time 131610, Note Name: A5
Note ON: Time 131640, Note Name: A4, Velocity: 50
Note OFF: Time 131760, Note Name: A4
Note ON: Time 131760, Note Name: C5, Velocity: 55
Note OFF: Time 131880, Note Name: C5
Note ON: Time 131880, Note Name: A4, Velocity: 51
Note OFF: Time 132000, Note Name: A4
Note ON: Time 132000, Note Name: A#5, Velocity: 84
Note OFF: Time 132090, Note Name: A#5
Note ON: Time 132120, Note Name: A#4, Velocity: 51
Note OFF: Time 132240, Note Name: A#4
Note ON: Time 132240, Note Name: F5, Velocity: 58
Note OFF: Time 132360, Note Name: F5
Note ON: Time 132360, Note Name: A#4, Velocity: 53
Note OFF: Time 132480, Note Name: A#4
Note ON: Time 132480, Note Name: C6, Velocity: 85
Note OFF: Time 132570, Note Name: C6
Note ON: Time 132600, Note Name: C5, Velocity: 53
Note OFF: Time 132720, Note Name: C5
Note ON: Time 132720, Note Name: F5, Velocity: 58
Note OFF: Time 132840, Note Name: F5
Note ON: Time 132840, Note Name: C5, Velocity: 54
Note OFF: Time 132960, Note Name: C5
Note ON: Time 132960, Note Name: C#6, Velocity: 85
Note OFF: Time 133050, Note Name: C#6
Note ON: Time 133080, Note Name: C#5, Velocity: 55
Note OFF: Time 133200, Note Name: C#5
Note ON: Time 133200, Note Name: F5, Velocity: 63
Note OFF: Time 133320, Note Name: F5
Note ON: Time 133320, Note Name: C#5, Velocity: 55
Note OFF: Time 133440, Note Name: C#5
Note ON: Time 133440, Note Name: D6, Velocity: 90
Note OFF: Time 133530, Note Name: D6
Note ON: Time 133560, Note Name: D5, Velocity: 57
Note OFF: Time 133680, Note Name: D5
Note ON: Time 133680, Note Name: F5, Velocity: 62
Note OFF: Time 133800, Note Name: F5
Note ON: Time 133800, Note Name: D5, Velocity: 57
Note OFF: Time 133920, Note Name: D5
Note ON: Time 133920, Note Name: D#6, Velocity: 89
Note OFF: Time 134010, Note Name: D#6
Note ON: Time 134040, Note Name: D#5, Velocity: 59
Note OFF: Time 134160, Note Name: D#5
Note ON: Time 134160, Note Name: A#5, Velocity: 64
Note OFF: Time 134280, Note Name: A#5
Note ON: Time 134280, Note Name: D#5, Velocity: 59
Note OFF: Time 134400, Note Name: D#5
Note ON: Time 134400, Note Name: E6, Velocity: 91
Note OFF: Time 134490, Note Name: E6
Note ON: Time 134520, Note Name: E5, Velocity: 61
Note OFF: Time 134640, Note Name: E5
Note ON: Time 134640, Note Name: A#5, Velocity: 67
Note OFF: Time 134760, Note Name: A#5
Note ON: Time 134760, Note Name: E5, Velocity: 61
Note OFF: Time 134880, Note Name: E5
Note ON: Time 135000, Note Name: G#5, Velocity: 78
Note OFF: Time 135120, Note Name: G#5
Note ON: Time 135120, Note Name: C6, Velocity: 84
Note OFF: Time 135240, Note Name: C6
Note ON: Time 135240, Note Name: G#5, Velocity: 78
Note OFF: Time 135360, Note Name: G#5
Note ON: Time 135360, Note Name: F6, Velocity: 88
Note OFF: Time 135450, Note Name: F6
Note ON: Time 135480, Note Name: G#5, Velocity: 78
Note OFF: Time 135600, Note Name: G#5
Note ON: Time 135600, Note Name: C6, Velocity: 84
Note OFF: Time 135720, Note Name: C6
Note ON: Time 135720, Note Name: G#5, Velocity: 76
Note OFF: Time 135840, Note Name: G#5
Note ON: Time 135960, Note Name: F5, Velocity: 78
Note OFF: Time 136080, Note Name: F5
Note ON: Time 136080, Note Name: G#5, Velocity: 84
Note OFF: Time 136200, Note Name: G#5
Note ON: Time 136200, Note Name: F5, Velocity: 78
Note OFF: Time 136320, Note Name: F5
Note ON: Time 136320, Note Name: D6, Velocity: 88
Note OFF: Time 136410, Note Name: D6
Note ON: Time 136440, Note Name: F5, Velocity: 78
Note OFF: Time 136560, Note Name: F5
Note ON: Time 136560, Note Name: G#5, Velocity: 84
Note OFF: Time 136680, Note Name: G#5
Note ON: Time 136680, Note Name: F5, Velocity: 76
Note OFF: Time 136800, Note Name: F5
Note ON: Time 136800, Note Name: G5, Velocity: 81
Note OFF: Time 136890, Note Name: G5
Note ON: Time 137040, Note Name: D#6, Velocity: 62
Note OFF: Time 137520, Note Name: D#6
Note ON: Time 137520, Note Name: D6, Velocity: 46
Note OFF: Time 137640, Note Name: D6
Note ON: Time 137640, Note Name: D#6, Velocity: 48
Note OFF: Time 137760, Note Name: D#6
Note ON: Time 137760, Note Name: F6, Velocity: 49
Note OFF: Time 137880, Note Name: F6
Note ON: Time 137880, Note Name: D#6, Velocity: 49
Note OFF: Time 138000, Note Name: D#6
Note ON: Time 138000, Note Name: D6, Velocity: 48
Note OFF: Time 138120, Note Name: D6
Note ON: Time 138120, Note Name: C6, Velocity: 47
Note OFF: Time 138240, Note Name: C6
Note ON: Time 138240, Note Name: B5, Velocity: 45
Note OFF: Time 138360, Note Name: B5
Note ON: Time 138360, Note Name: C6, Velocity: 46
Note OFF: Time 138480, Note Name: C6
Note ON: Time 138480, Note Name: D6, Velocity: 49
Note OFF: Time 138600, Note Name: D6
Note ON: Time 138600, Note Name: C6, Velocity: 47
Note OFF: Time 138720, Note Name: C6
Note ON: Time 138720, Note Name: A#5, Velocity: 49
Note OFF: Time 138840, Note Name: A#5
Note ON: Time 138840, Note Name: G#5, Velocity: 47
Note OFF: Time 138960, Note Name: G#5
Note ON: Time 138960, Note Name: G5, Velocity: 46
Note OFF: Time 139080, Note Name: G5
Note ON: Time 139080, Note Name: F5, Velocity: 45
Note OFF: Time 139200, Note Name: F5
Note ON: Time 139200, Note Name: E5, Velocity: 45
Note OFF: Time 139320, Note Name: E5
Note ON: Time 139320, Note Name: F5, Velocity: 45
Note OFF: Time 139440, Note Name: F5
Note ON: Time 139440, Note Name: G5, Velocity: 47
Note OFF: Time 139560, Note Name: G5
Note ON: Time 139560, Note Name: F5, Velocity: 45
Note OFF: Time 139680, Note Name: F5
Note ON: Time 139680, Note Name: D#5, Velocity: 46
Note OFF: Time 139800, Note Name: D#5
Note ON: Time 139800, Note Name: D5, Velocity: 46
Note OFF: Time 139920, Note Name: D5
Note ON: Time 139920, Note Name: C5, Velocity: 45
Note OFF: Time 140040, Note Name: C5
Note ON: Time 140040, Note Name: A#4, Velocity: 45
Note OFF: Time 140160, Note Name: A#4
Note ON: Time 140160, Note Name: A4, Velocity: 45
Note OFF: Time 140280, Note Name: A4
Note ON: Time 140280, Note Name: A#4, Velocity: 42
Note OFF: Time 140400, Note Name: A#4
Note ON: Time 140400, Note Name: C5, Velocity: 46
Note OFF: Time 140520, Note Name: C5
Note ON: Time 140520, Note Name: G#4, Velocity: 42
Note OFF: Time 140640, Note Name: G#4
Note ON: Time 140640, Note Name: G4, Velocity: 66
Note OFF: Time 140730, Note Name: G4
Note ON: Time 140880, Note Name: D#5, Velocity: 68
Note ON: Time 140880, Note Name: D#6, Velocity: 68
Note OFF: Time 141360, Note Name: D#6
Note OFF: Time 141360, Note Name: D#5
Note ON: Time 141360, Note Name: D6, Velocity: 61
Note OFF: Time 141480, Note Name: D6
Note ON: Time 141480, Note Name: D#6, Velocity: 64
Note OFF: Time 141600, Note Name: D#6
Note ON: Time 141600, Note Name: F6, Velocity: 66
Note OFF: Time 141720, Note Name: F6
Note ON: Time 141720, Note Name: D#6, Velocity: 66
Note OFF: Time 141840, Note Name: D#6
Note ON: Time 141840, Note Name: D6, Velocity: 65
Note OFF: Time 141960, Note Name: D6
Note ON: Time 141960, Note Name: C6, Velocity: 64
Note OFF: Time 142080, Note Name: C6
Note ON: Time 142080, Note Name: B5, Velocity: 62
Note OFF: Time 142200, Note Name: B5
Note ON: Time 142200, Note Name: C6, Velocity: 64
Note OFF: Time 142320, Note Name: C6
Note ON: Time 142320, Note Name: D6, Velocity: 68
Note OFF: Time 142440, Note Name: D6
Note ON: Time 142440, Note Name: C6, Velocity: 66
Note OFF: Time 142560, Note Name: C6
Note ON: Time 142560, Note Name: A#5, Velocity: 69
Note OFF: Time 142680, Note Name: A#5
Note ON: Time 142680, Note Name: G#5, Velocity: 67
Note OFF: Time 142800, Note Name: G#5
Note ON: Time 142800, Note Name: G5, Velocity: 66
Note OFF: Time 142920, Note Name: G5
Note ON: Time 142920, Note Name: F5, Velocity: 65
Note OFF: Time 143040, Note Name: F5
Note ON: Time 143040, Note Name: E5, Velocity: 65
Note OFF: Time 143160, Note Name: E5
Note ON: Time 143160, Note Name: F5, Velocity: 64
Note OFF: Time 143280, Note Name: F5
Note ON: Time 143280, Note Name: G5, Velocity: 68
Note OFF: Time 143400, Note Name: G5
Note ON: Time 143400, Note Name: F5, Velocity: 66
Note OFF: Time 143520, Note Name: F5
Note ON: Time 143520, Note Name: D#5, Velocity: 68
Note OFF: Time 143640, Note Name: D#5
Note ON: Time 143640, Note Name: D5, Velocity: 68
Note OFF: Time 143760, Note Name: D5
Note ON: Time 143760, Note Name: C5, Velocity: 68
Note OFF: Time 143880, Note Name: C5
Note ON: Time 143880, Note Name: A#4, Velocity: 68
Note OFF: Time 144000, Note Name: A#4
Note ON: Time 144000, Note Name: A4, Velocity: 67
Note OFF: Time 144120, Note Name: A4
Note ON: Time 144120, Note Name: A#4, Velocity: 64
Note OFF: Time 144240, Note Name: A#4
Note ON: Time 144240, Note Name: C5, Velocity: 70
Note OFF: Time 144360, Note Name: C5
Note ON: Time 144360, Note Name: A#4, Velocity: 64
Note OFF: Time 144480, Note Name: A#4
Note ON: Time 144480, Note Name: D#5, Velocity: 83
Note OFF: Time 144600, Note Name: D#5
Note ON: Time 144720, Note Name: D#4, Velocity: 82
Note OFF: Time 145200, Note Name: D#4
Note ON: Time 145200, Note Name: C#4, Velocity: 80
Note ON: Time 145200, Note Name: G4, Velocity: 80
Note OFF: Time 145320, Note Name: G4
Note OFF: Time 145320, Note Name: C#4
Note ON: Time 145440, Note Name: C4, Velocity: 81
Note ON: Time 145440, Note Name: G#4, Velocity: 81
Note OFF: Time 145560, Note Name: G#4
Note OFF: Time 145560, Note Name: C4
Note ON: Time 145680, Note Name: G4, Velocity: 82
Note ON: Time 145680, Note Name: A#4, Velocity: 82
Note OFF: Time 145800, Note Name: A#4
Note OFF: Time 145800, Note Name: G4
Note ON: Time 145920, Note Name: G#4, Velocity: 83
Note ON: Time 145920, Note Name: C5, Velocity: 83
Note OFF: Time 146040, Note Name: C5
Note OFF: Time 146040, Note Name: G#4
Note ON: Time 146160, Note Name: G#4, Velocity: 85
Note ON: Time 146160, Note Name: D5, Velocity: 85
Note OFF: Time 146280, Note Name: D5
Note OFF: Time 146280, Note Name: G#4
Note ON: Time 146400, Note Name: G4, Velocity: 83
Note ON: Time 146400, Note Name: D#5, Velocity: 83
Note OFF: Time 146520, Note Name: D#5
Note OFF: Time 146520, Note Name: G4
Note ON: Time 146640, Note Name: D#5, Velocity: 82
Note OFF: Time 147120, Note Name: D#5
Note ON: Time 147120, Note Name: C#5, Velocity: 80
Note ON: Time 147120, Note Name: G5, Velocity: 80
Note OFF: Time 147240, Note Name: G5
Note OFF: Time 147240, Note Name: C#5
Note ON: Time 147360, Note Name: C5, Velocity: 81
Note ON: Time 147360, Note Name: G#5, Velocity: 81
Note OFF: Time 147480, Note Name: G#5
Note OFF: Time 147480, Note Name: C5
Note ON: Time 147600, Note Name: G5, Velocity: 82
Note ON: Time 147600, Note Name: A#5, Velocity: 82
Note OFF: Time 147720, Note Name: A#5
Note OFF: Time 147720, Note Name: G5
Note ON: Time 147840, Note Name: G#5, Velocity: 83
Note ON: Time 147840, Note Name: C6, Velocity: 83
Note OFF: Time 147960, Note Name: C6
Note OFF: Time 147960, Note Name: G#5
Note ON: Time 148080, Note Name: G#5, Velocity: 85
Note ON: Time 148080, Note Name: D6, Velocity: 85
Note OFF: Time 148200, Note Name: D6
Note OFF: Time 148200, Note Name: G#5
Note ON: Time 148320, Note Name: D#6, Velocity: 94
Note ON: Time 148320, Note Name: G5, Velocity: 94
Note OFF: Time 149280, Note Name: G5
Note OFF: Time 149280, Note Name: D#6
Note ON: Time 149280, Note Name: G4, Velocity: 88
Note ON: Time 149280, Note Name: D#5, Velocity: 88
Note OFF: Time 150240, Note Name: D#5
Note OFF: Time 150240, Note Name: G4
Note ON: Time 150240, Note Name: D#6, Velocity: 99
Note ON: Time 150240, Note Name: G5, Velocity: 99
Note OFF: Time 151200, Note Name: G5
Note OFF: Time 151200, Note Name: D#6
Note ON: Time 151200, Note Name: G4, Velocity: 92
Note ON: Time 151200, Note Name: D#5, Velocity: 92
Note OFF: Time 152160, Note Name: D#5
Note OFF: Time 152160, Note Name: G4
Note ON: Time 152160, Note Name: D#6, Velocity: 102
Note ON: Time 152160, Note Name: C6, Velocity: 102
Note OFF: Time 153120, Note Name: C6
Note OFF: Time 153120, Note Name: D#6
Note ON: Time 153120, Note Name: C5, Velocity: 96
Note ON: Time 153120, Note Name: D#5, Velocity: 96
Note OFF: Time 154080, Note Name: D#5
Note OFF: Time 154080, Note Name: C5
Note ON: Time 154080, Note Name: C6, Velocity: 93
Note ON: Time 154080, Note Name: A5, Velocity: 93
Note ON: Time 154080, Note Name: D6, Velocity: 93
Note OFF: Time 155040, Note Name: D6
Note OFF: Time 155040, Note Name: A5
Note OFF: Time 155040, Note Name: C6
Note ON: Time 155040, Note Name: F3, Velocity: 86
Note ON: Time 155040, Note Name: B3, Velocity: 102
Note ON: Time 155040, Note Name: D4, Velocity: 102
Note OFF: Time 156000, Note Name: D4
Note OFF: Time 156000, Note Name: B3
Note OFF: Time 156000, Note Name: F3
Note ON: Time 156000, Note Name: C4, Velocity: 50
Note OFF: Time 156720, Note Name: C4
Note ON: Time 156720, Note Name: A#3, Velocity: 52
Note ON: Time 156720, Note Name: E4, Velocity: 52
Note OFF: Time 156810, Note Name: E4
Note OFF: Time 156810, Note Name: A#3
Note ON: Time 156960, Note Name: G#3, Velocity: 54
Note ON: Time 156960, Note Name: F4, Velocity: 54
Note OFF: Time 157050, Note Name: F4
Note OFF: Time 157050, Note Name: G#3
Note ON: Time 157200, Note Name: E4, Velocity: 56
Note ON: Time 157200, Note Name: G4, Velocity: 56
Note OFF: Time 157290, Note Name: G4
Note OFF: Time 157290, Note Name: E4
Note ON: Time 157440, Note Name: F4, Velocity: 57
Note ON: Time 157440, Note Name: G#4, Velocity: 57
Note OFF: Time 157530, Note Name: G#4
Note OFF: Time 157530, Note Name: F4
Note ON: Time 157680, Note Name: D4, Velocity: 59
Note ON: Time 157680, Note Name: B4, Velocity: 59
Note OFF: Time 157770, Note Name: B4
Note OFF: Time 157770, Note Name: D4
Note ON: Time 157920, Note Name: D#4, Velocity: 61
Note ON: Time 157920, Note Name: C5, Velocity: 61
Note OFF: Time 158010, Note Name: C5
Note OFF: Time 158010, Note Name: D#4
Note ON: Time 158160, Note Name: E4, Velocity: 55
Note ON: Time 158160, Note Name: C5, Velocity: 55
Note OFF: Time 158640, Note Name: C5
Note OFF: Time 158640, Note Name: E4
Note ON: Time 158640, Note Name: A#4, Velocity: 51
Note ON: Time 158640, Note Name: E5, Velocity: 51
Note OFF: Time 158730, Note Name: E5
Note OFF: Time 158730, Note Name: A#4
Note ON: Time 158880, Note Name: G#4, Velocity: 53
Note ON: Time 158880, Note Name: F5, Velocity: 53
Note OFF: Time 158970, Note Name: F5
Note OFF: Time 158970, Note Name: G#4
Note ON: Time 159120, Note Name: E5, Velocity: 55
Note ON: Time 159120, Note Name: G5, Velocity: 55
Note OFF: Time 159210, Note Name: G5
Note OFF: Time 159210, Note Name: E5
Note ON: Time 159360, Note Name: F5, Velocity: 57
Note ON: Time 159360, Note Name: G#5, Velocity: 57
Note OFF: Time 159450, Note Name: G#5
Note OFF: Time 159450, Note Name: F5
Note ON: Time 159600, Note Name: D5, Velocity: 59
Note ON: Time 159600, Note Name: B5, Velocity: 59
Note OFF: Time 159690, Note Name: B5
Note OFF: Time 159690, Note Name: D5
Note ON: Time 159840, Note Name: C5, Velocity: 51
Note ON: Time 159840, Note Name: G5, Velocity: 61
Note ON: Time 159840, Note Name: D#5, Velocity: 51
Note ON: Time 159840, Note Name: C6, Velocity: 61
Note OFF: Time 160320, Note Name: C6
Note OFF: Time 160320, Note Name: C5
Note OFF: Time 160320, Note Name: G5
Note OFF: Time 160320, Note Name: D#5
Note ON: Time 160320, Note Name: G4, Velocity: 53
Note ON: Time 160320, Note Name: B4, Velocity: 53
Note ON: Time 160320, Note Name: F5, Velocity: 63
Note ON: Time 160320, Note Name: G5, Velocity: 63
Note OFF: Time 160800, Note Name: G5
Note OFF: Time 160800, Note Name: G4
Note OFF: Time 160800, Note Name: B4
Note OFF: Time 160800, Note Name: F5
Note ON: Time 160800, Note Name: G4, Velocity: 56
Note ON: Time 160800, Note Name: C5, Velocity: 56
Note ON: Time 160800, Note Name: D#5, Velocity: 67
Note OFF: Time 161280, Note Name: D#5
Note OFF: Time 161280, Note Name: C5
Note OFF: Time 161280, Note Name: G4
Note ON: Time 161280, Note Name: F4, Velocity: 60
Note ON: Time 161280, Note Name: G#4, Velocity: 60
Note ON: Time 161280, Note Name: D5, Velocity: 71
Note OFF: Time 161760, Note Name: D5
Note OFF: Time 161760, Note Name: G#4
Note OFF: Time 161760, Note Name: F4
Note ON: Time 161760, Note Name: D#4, Velocity: 62
Note ON: Time 161760, Note Name: G4, Velocity: 74
Note ON: Time 161760, Note Name: C5, Velocity: 74
Note OFF: Time 162240, Note Name: G4
Note ON: Time 162240, Note Name: F#4, Velocity: 74
Note OFF: Time 162720, Note Name: F#4
Note ON: Time 162720, Note Name: A4, Velocity: 77
Note OFF: Time 163200, Note Name: A4
Note OFF: Time 163200, Note Name: C5
Note OFF: Time 163200, Note Name: D#4
Note ON: Time 163200, Note Name: D4, Velocity: 62
Note ON: Time 163200, Note Name: F4, Velocity: 62
Note ON: Time 163200, Note Name: B4, Velocity: 74
Note OFF: Time 163680, Note Name: B4
Note OFF: Time 163680, Note Name: F4
Note OFF: Time 163680, Note Name: D4
Note ON: Time 163680, Note Name: C4, Velocity: 67
Note ON: Time 163680, Note Name: D#4, Velocity: 67
Note ON: Time 163680, Note Name: C5, Velocity: 79
Note OFF: Time 163770, Note Name: C5
Note OFF: Time 163770, Note Name: D#4
Note OFF: Time 163770, Note Name: C4
Note ON: Time 163920, Note Name: C4, Velocity: 67
Note OFF: Time 164400, Note Name: C4
Note ON: Time 164400, Note Name: A#3, Velocity: 52
Note ON: Time 164400, Note Name: E4, Velocity: 52
Note OFF: Time 164490, Note Name: E4
Note OFF: Time 164490, Note Name: A#3
Note ON: Time 164640, Note Name: G#3, Velocity: 54
Note ON: Time 164640, Note Name: F4, Velocity: 54
Note OFF: Time 164730, Note Name: F4
Note OFF: Time 164730, Note Name: G#3
Note ON: Time 164880, Note Name: E4, Velocity: 55
Note ON: Time 164880, Note Name: G4, Velocity: 55
Note OFF: Time 164970, Note Name: G4
Note OFF: Time 164970, Note Name: E4
Note ON: Time 165120, Note Name: F4, Velocity: 57
Note ON: Time 165120, Note Name: G#4, Velocity: 57
Note OFF: Time 165210, Note Name: G#4
Note OFF: Time 165210, Note Name: F4
Note ON: Time 165360, Note Name: D4, Velocity: 59
Note ON: Time 165360, Note Name: B4, Velocity: 59
Note OFF: Time 165450, Note Name: B4
Note OFF: Time 165450, Note Name: D4
Note ON: Time 165600, Note Name: D#4, Velocity: 61
Note ON: Time 165600, Note Name: C5, Velocity: 61
Note OFF: Time 165690, Note Name: C5
Note OFF: Time 165690, Note Name: D#4
Note ON: Time 165840, Note Name: E4, Velocity: 55
Note ON: Time 165840, Note Name: C5, Velocity: 55
Note OFF: Time 166320, Note Name: C5
Note OFF: Time 166320, Note Name: E4
Note ON: Time 166320, Note Name: A#4, Velocity: 51
Note ON: Time 166320, Note Name: E5, Velocity: 51
Note OFF: Time 166410, Note Name: E5
Note OFF: Time 166410, Note Name: A#4
Note ON: Time 166560, Note Name: G#4, Velocity: 53
Note ON: Time 166560, Note Name: F5, Velocity: 53
Note OFF: Time 166650, Note Name: F5
Note OFF: Time 166650, Note Name: G#4
Note ON: Time 166800, Note Name: E5, Velocity: 55
Note ON: Time 166800, Note Name: G5, Velocity: 55
Note OFF: Time 166890, Note Name: G5
Note OFF: Time 166890, Note Name: E5
Note ON: Time 167040, Note Name: F5, Velocity: 57
Note ON: Time 167040, Note Name: G#5, Velocity: 57
Note OFF: Time 167130, Note Name: G#5
Note OFF: Time 167130, Note Name: F5
Note ON: Time 167280, Note Name: D5, Velocity: 59
Note ON: Time 167280, Note Name: B5, Velocity: 59
Note OFF: Time 167370, Note Name: B5
Note OFF: Time 167370, Note Name: D5
Note ON: Time 167520, Note Name: C5, Velocity: 51
Note ON: Time 167520, Note Name: G5, Velocity: 61
Note ON: Time 167520, Note Name: D#5, Velocity: 51
Note ON: Time 167520, Note Name: C6, Velocity: 61
Note OFF: Time 168000, Note Name: C6
Note OFF: Time 168000, Note Name: C5
Note OFF: Time 168000, Note Name: G5
Note OFF: Time 168000, Note Name: D#5
Note ON: Time 168000, Note Name: G4, Velocity: 53
Note ON: Time 168000, Note Name: B4, Velocity: 53
Note ON: Time 168000, Note Name: F5, Velocity: 63
Note ON: Time 168000, Note Name: G5, Velocity: 63
Note OFF: Time 168480, Note Name: G5
Note OFF: Time 168480, Note Name: G4
Note OFF: Time 168480, Note Name: B4
Note OFF: Time 168480, Note Name: F5
Note ON: Time 168480, Note Name: G4, Velocity: 56
Note ON: Time 168480, Note Name: C5, Velocity: 56
Note ON: Time 168480, Note Name: D#5, Velocity: 67
Note OFF: Time 168960, Note Name: D#5
Note OFF: Time 168960, Note Name: C5
Note OFF: Time 168960, Note Name: G4
Note ON: Time 168960, Note Name: F4, Velocity: 60
Note ON: Time 168960, Note Name: G#4, Velocity: 60
Note ON: Time 168960, Note Name: D5, Velocity: 71
Note OFF: Time 169440, Note Name: D5
Note OFF: Time 169440, Note Name: G#4
Note OFF: Time 169440, Note Name: F4
Note ON: Time 169440, Note Name: D#4, Velocity: 62
Note ON: Time 169440, Note Name: G4, Velocity: 74
Note ON: Time 169440, Note Name: C5, Velocity: 74
Note OFF: Time 169920, Note Name: G4
Note ON: Time 169920, Note Name: F#4, Velocity: 74
Note OFF: Time 170400, Note Name: F#4
Note ON: Time 170400, Note Name: A4, Velocity: 77
Note OFF: Time 171360, Note Name: A4
Note OFF: Time 171360, Note Name: C5
Note OFF: Time 171360, Note Name: D#4
Note ON: Time 171360, Note Name: D4, Velocity: 55
Note ON: Time 171360, Note Name: G4, Velocity: 55
Note ON: Time 171360, Note Name: B4, Velocity: 55
Note OFF: Time 171600, Note Name: B4
Note OFF: Time 171600, Note Name: G4
Note OFF: Time 171600, Note Name: D4
Note ON: Time 171840, Note Name: G4, Velocity: 80
Note ON: Time 171840, Note Name: G5, Velocity: 80
Note OFF: Time 172560, Note Name: G5
Note OFF: Time 172560, Note Name: G4
Note ON: Time 172800, Note Name: G4, Velocity: 80
Note ON: Time 172800, Note Name: G5, Velocity: 80
Note OFF: Time 173400, Note Name: G5
Note OFF: Time 173400, Note Name: G4
Note ON: Time 173400, Note Name: F5, Velocity: 70
Note OFF: Time 173520, Note Name: F5
Note ON: Time 173520, Note Name: D5, Velocity: 69
Note OFF: Time 173640, Note Name: D5
Note ON: Time 173640, Note Name: B4, Velocity: 69
Note OFF: Time 173760, Note Name: B4
Note ON: Time 173760, Note Name: G4, Velocity: 68
Note OFF: Time 173880, Note Name: G4
Note ON: Time 173880, Note Name: F4, Velocity: 67
Note OFF: Time 174000, Note Name: F4
Note ON: Time 174000, Note Name: D4, Velocity: 66
Note OFF: Time 174120, Note Name: D4
Note ON: Time 174120, Note Name: B3, Velocity: 65
Note OFF: Time 174240, Note Name: B3
Note ON: Time 174240, Note Name: C4, Velocity: 65
Note OFF: Time 174360, Note Name: C4
Note ON: Time 174360, Note Name: D#4, Velocity: 64
Note OFF: Time 174480, Note Name: D#4
Note ON: Time 174480, Note Name: C4, Velocity: 65
Note OFF: Time 174600, Note Name: C4
Note ON: Time 174600, Note Name: G3, Velocity: 65
Note OFF: Time 174720, Note Name: G3
Note ON: Time 174720, Note Name: F#3, Velocity: 64
Note OFF: Time 174840, Note Name: F#3
Note ON: Time 174840, Note Name: C4, Velocity: 64
Note OFF: Time 174960, Note Name: C4
Note ON: Time 174960, Note Name: G#3, Velocity: 63
Note OFF: Time 175080, Note Name: G#3
Note ON: Time 175080, Note Name: F#3, Velocity: 65
Note OFF: Time 175200, Note Name: F#3
Note ON: Time 175200, Note Name: G3, Velocity: 67
Note OFF: Time 175440, Note Name: G3
Note ON: Time 175680, Note Name: G4, Velocity: 80
Note ON: Time 175680, Note Name: G5, Velocity: 80
Note OFF: Time 176400, Note Name: G5
Note OFF: Time 176400, Note Name: G4
Note ON: Time 176640, Note Name: G4, Velocity: 80
Note ON: Time 176640, Note Name: G5, Velocity: 80
Note OFF: Time 177240, Note Name: G5
Note OFF: Time 177240, Note Name: G4
Note ON: Time 177240, Note Name: F5, Velocity: 72
Note OFF: Time 177360, Note Name: F5
Note ON: Time 177360, Note Name: D5, Velocity: 71
Note OFF: Time 177480, Note Name: D5
Note ON: Time 177480, Note Name: B4, Velocity: 70
Note OFF: Time 177600, Note Name: B4
Note ON: Time 177600, Note Name: G4, Velocity: 69
Note OFF: Time 177720, Note Name: G4
Note ON: Time 177720, Note Name: F4, Velocity: 68
Note OFF: Time 177840, Note Name: F4
Note ON: Time 177840, Note Name: D4, Velocity: 67
Note OFF: Time 177960, Note Name: D4
Note ON: Time 177960, Note Name: B3, Velocity: 66
Note OFF: Time 178080, Note Name: B3
Note ON: Time 178080, Note Name: C4, Velocity: 65
Note OFF: Time 178200, Note Name: C4
Note ON: Time 178200, Note Name: D#4, Velocity: 64
Note OFF: Time 178320, Note Name: D#4
Note ON: Time 178320, Note Name: C4, Velocity: 64
Note OFF: Time 178440, Note Name: C4
Note ON: Time 178440, Note Name: G3, Velocity: 67
Note OFF: Time 178560, Note Name: G3
Note ON: Time 178560, Note Name: F#3, Velocity: 66
Note OFF: Time 178680, Note Name: F#3
Note ON: Time 178680, Note Name: C4, Velocity: 64
Note OFF: Time 178800, Note Name: C4
Note ON: Time 178800, Note Name: G#3, Velocity: 62
Note OFF: Time 178920, Note Name: G#3
Note ON: Time 178920, Note Name: F#3, Velocity: 60
Note OFF: Time 179040, Note Name: F#3
Note ON: Time 179040, Note Name: G3, Velocity: 67
Note OFF: Time 179280, Note Name: G3
Note ON: Time 179280, Note Name: F#4, Velocity: 67
Note OFF: Time 179370, Note Name: F#4
Note ON: Time 179520, Note Name: G4, Velocity: 69
Note OFF: Time 179610, Note Name: G4
Note ON: Time 179760, Note Name: F#4, Velocity: 71
Note ON: Time 179760, Note Name: C5, Velocity: 71
Note OFF: Time 179850, Note Name: C5
Note OFF: Time 179850, Note Name: F#4
Note ON: Time 180000, Note Name: G4, Velocity: 73
Note ON: Time 180000, Note Name: B4, Velocity: 73
Note OFF: Time 180090, Note Name: B4
Note OFF: Time 180090, Note Name: G4
Note ON: Time 180240, Note Name: C5, Velocity: 75
Note ON: Time 180240, Note Name: F#5, Velocity: 75
Note OFF: Time 180330, Note Name: F#5
Note OFF: Time 180330, Note Name: C5
Note ON: Time 180480, Note Name: B4, Velocity: 77
Note ON: Time 180480, Note Name: G5, Velocity: 77
Note OFF: Time 180570, Note Name: G5
Note OFF: Time 180570, Note Name: B4
Note ON: Time 180720, Note Name: C6, Velocity: 79
Note ON: Time 180720, Note Name: F#5, Velocity: 79
Note OFF: Time 180810, Note Name: F#5
Note OFF: Time 180810, Note Name: C6
Note ON: Time 180960, Note Name: B5, Velocity: 81
Note ON: Time 180960, Note Name: G5, Velocity: 81
Note OFF: Time 181080, Note Name: G5
Note OFF: Time 181080, Note Name: B5
Note ON: Time 181920, Note Name: A#3, Velocity: 81
Note ON: Time 181920, Note Name: C#4, Velocity: 81
Note ON: Time 181920, Note Name: D#4, Velocity: 84
Note OFF: Time 182880, Note Name: C#4
Note OFF: Time 182880, Note Name: A#3
Note ON: Time 182880, Note Name: C4, Velocity: 67
Note OFF: Time 183120, Note Name: C4
Note OFF: Time 183120, Note Name: D#4
Note ON: Time 183120, Note Name: C#5, Velocity: 67
Note OFF: Time 183210, Note Name: C#5
Note ON: Time 183360, Note Name: C5, Velocity: 69
Note OFF: Time 183450, Note Name: C5
Note ON: Time 183600, Note Name: C#5, Velocity: 71
Note ON: Time 183600, Note Name: G5, Velocity: 71
Note OFF: Time 183690, Note Name: G5
Note OFF: Time 183690, Note Name: C#5
Note ON: Time 183840, Note Name: C5, Velocity: 73
Note ON: Time 183840, Note Name: G#5, Velocity: 73
Note OFF: Time 183930, Note Name: G#5
Note OFF: Time 183930, Note Name: C5
Note ON: Time 184080, Note Name: G5, Velocity: 75
Note ON: Time 184080, Note Name: C#6, Velocity: 75
Note OFF: Time 184170, Note Name: C#6
Note OFF: Time 184170, Note Name: G5
Note ON: Time 184320, Note Name: G#5, Velocity: 77
Note ON: Time 184320, Note Name: C6, Velocity: 77
Note OFF: Time 184410, Note Name: C6
Note OFF: Time 184410, Note Name: G#5
Note ON: Time 184560, Note Name: C#6, Velocity: 79
Note ON: Time 184560, Note Name: G5, Velocity: 79
Note OFF: Time 184650, Note Name: G5
Note OFF: Time 184650, Note Name: C#6
Note ON: Time 184800, Note Name: C6, Velocity: 81
Note ON: Time 184800, Note Name: G#5, Velocity: 81
Note OFF: Time 184920, Note Name: G#5
Note OFF: Time 184920, Note Name: C6
Note ON: Time 185760, Note Name: C4, Velocity: 81
Note ON: Time 185760, Note Name: D#4, Velocity: 81
Note ON: Time 185760, Note Name: F#4, Velocity: 84
Note OFF: Time 186720, Note Name: F#4
Note OFF: Time 186720, Note Name: D#4
Note OFF: Time 186720, Note Name: C4
Note ON: Time 186720, Note Name: D4, Velocity: 67
Note ON: Time 186720, Note Name: F4, Velocity: 67
Note OFF: Time 186960, Note Name: F4
Note OFF: Time 186960, Note Name: D4
Note ON: Time 186960, Note Name: A4, Velocity: 62
Note ON: Time 186960, Note Name: D#5, Velocity: 67
Note OFF: Time 187050, Note Name: D#5
Note OFF: Time 187050, Note Name: A4
Note ON: Time 187200, Note Name: A#4, Velocity: 65
Note ON: Time 187200, Note Name: D5, Velocity: 69
Note OFF: Time 187290, Note Name: D5
Note OFF: Time 187290, Note Name: A#4
Note ON: Time 187440, Note Name: D#5, Velocity: 71
Note ON: Time 187440, Note Name: A5, Velocity: 71
Note OFF: Time 187530, Note Name: A5
Note OFF: Time 187530, Note Name: D#5
Note ON: Time 187680, Note Name: D5, Velocity: 73
Note ON: Time 187680, Note Name: A#5, Velocity: 73
Note OFF: Time 187770, Note Name: A#5
Note OFF: Time 187770, Note Name: D5
Note ON: Time 187920, Note Name: A5, Velocity: 75
Note ON: Time 187920, Note Name: D#6, Velocity: 75
Note OFF: Time 188010, Note Name: D#6
Note OFF: Time 188010, Note Name: A5
Note ON: Time 188160, Note Name: A#5, Velocity: 77
Note ON: Time 188160, Note Name: D6, Velocity: 77
Note OFF: Time 188250, Note Name: D6
Note OFF: Time 188250, Note Name: A#5
Note ON: Time 188400, Note Name: D#6, Velocity: 79
Note ON: Time 188400, Note Name: A5, Velocity: 79
Note OFF: Time 188490, Note Name: A5
Note OFF: Time 188490, Note Name: D#6
Note ON: Time 188640, Note Name: D6, Velocity: 81
Note ON: Time 188640, Note Name: A#5, Velocity: 81
Note OFF: Time 188760, Note Name: A#5
Note OFF: Time 188760, Note Name: D6
Note ON: Time 189120, Note Name: D#5, Velocity: 81
Note ON: Time 189120, Note Name: A5, Velocity: 81
Note OFF: Time 189600, Note Name: A5
Note OFF: Time 189600, Note Name: D#5
Note ON: Time 189600, Note Name: D5, Velocity: 81
Note ON: Time 189600, Note Name: A#5, Velocity: 81
Note OFF: Time 189840, Note Name: A#5
Note OFF: Time 189840, Note Name: D5
Note ON: Time 190080, Note Name: A4, Velocity: 81
Note ON: Time 190080, Note Name: D#5, Velocity: 81
Note OFF: Time 190560, Note Name: D#5
Note OFF: Time 190560, Note Name: A4
Note ON: Time 190560, Note Name: A#4, Velocity: 81
Note ON: Time 190560, Note Name: D5, Velocity: 81
Note OFF: Time 190800, Note Name: D5
Note OFF: Time 190800, Note Name: A#4
Note ON: Time 191040, Note Name: D#4, Velocity: 81
Note ON: Time 191040, Note Name: A4, Velocity: 81
Note OFF: Time 191520, Note Name: A4
Note OFF: Time 191520, Note Name: D#4
Note ON: Time 191520, Note Name: D4, Velocity: 81
Note ON: Time 191520, Note Name: A#4, Velocity: 81
Note OFF: Time 191760, Note Name: A#4
Note OFF: Time 191760, Note Name: D4
Note ON: Time 192000, Note Name: A3, Velocity: 81
Note ON: Time 192000, Note Name: D#4, Velocity: 81
Note OFF: Time 192480, Note Name: D#4
Note OFF: Time 192480, Note Name: A3
Note ON: Time 192480, Note Name: A#3, Velocity: 81
Note ON: Time 192480, Note Name: D4, Velocity: 81
Note OFF: Time 192720, Note Name: D4
Note OFF: Time 192720, Note Name: A#3
Note ON: Time 192720, Note Name: A3, Velocity: 50
Note OFF: Time 192960, Note Name: A3
Note ON: Time 192960, Note Name: A#3, Velocity: 59
Note OFF: Time 193200, Note Name: A#3
Note ON: Time 193200, Note Name: A3, Velocity: 56
Note OFF: Time 193440, Note Name: A3
Note ON: Time 193440, Note Name: A#3, Velocity: 57
Note OFF: Time 193680, Note Name: A#3
Note ON: Time 193680, Note Name: A3, Velocity: 49
Note OFF: Time 193920, Note Name: A3
Note ON: Time 193920, Note Name: A#3, Velocity: 57
Note OFF: Time 194160, Note Name: A#3
Note ON: Time 194160, Note Name: A3, Velocity: 51
Note OFF: Time 194400, Note Name: A3
Note ON: Time 194640, Note Name: A#2, Velocity: 55
Note OFF: Time 194760, Note Name: A#2
Note ON: Time 194880, Note Name: D#3, Velocity: 58
Note OFF: Time 195000, Note Name: D#3
Note ON: Time 195120, Note Name: F3, Velocity: 61
Note OFF: Time 195240, Note Name: F3
Note ON: Time 195360, Note Name: F#3, Velocity: 64
Note OFF: Time 195480, Note Name: F#3
Note ON: Time 195600, Note Name: A#4, Velocity: 62
Note OFF: Time 195720, Note Name: A#4
Note ON: Time 195840, Note Name: D#5, Velocity: 64
Note OFF: Time 195960, Note Name: D#5
Note ON: Time 196080, Note Name: F5, Velocity: 66
Note OFF: Time 196200, Note Name: F5
Note ON: Time 196260, Note Name: A#4, Velocity: 65
Note OFF: Time 196320, Note Name: A#4
Note ON: Time 196320, Note Name: F#5, Velocity: 75
Note OFF: Time 197040, Note Name: F#5
Note ON: Time 197040, Note Name: D#5, Velocity: 63
Note ON: Time 197220, Note Name: A#4, Velocity: 60
Note OFF: Time 197280, Note Name: A#4
Note OFF: Time 197280, Note Name: D#5
Note ON: Time 197280, Note Name: F#5, Velocity: 71
Note OFF: Time 198000, Note Name: F#5
Note ON: Time 198000, Note Name: D#5, Velocity: 58
Note OFF: Time 198240, Note Name: D#5
Note ON: Time 198240, Note Name: D5, Velocity: 60
Note OFF: Time 198480, Note Name: D5
Note ON: Time 198480, Note Name: A#2, Velocity: 57
Note OFF: Time 198600, Note Name: A#2
Note ON: Time 198720, Note Name: F3, Velocity: 60
Note OFF: Time 198840, Note Name: F3
Note ON: Time 198960, Note Name: F#3, Velocity: 63
Note OFF: Time 199080, Note Name: F#3
Note ON: Time 199200, Note Name: G#3, Velocity: 66
Note OFF: Time 199320, Note Name: G#3
Note ON: Time 199440, Note Name: A#4, Velocity: 59
Note OFF: Time 199680, Note Name: A#4
Note ON: Time 199680, Note Name: G#5, Velocity: 62
Note OFF: Time 199920, Note Name: G#5
Note ON: Time 199920, Note Name: F#5, Velocity: 65
Note OFF: Time 200160, Note Name: F#5
Note ON: Time 200160, Note Name: F#5, Velocity: 60
Note OFF: Time 200220, Note Name: F#5
Note ON: Time 200220, Note Name: G#5, Velocity: 60
Note OFF: Time 200280, Note Name: G#5
Note ON: Time 200280, Note Name: F#5, Velocity: 67
Note OFF: Time 200400, Note Name: F#5
Note ON: Time 200400, Note Name: F5, Velocity: 60
Note OFF: Time 200640, Note Name: F5
Note ON: Time 200640, Note Name: F5, Velocity: 60
Note OFF: Time 200700, Note Name: F5
Note ON: Time 200700, Note Name: F#5, Velocity: 60
Note OFF: Time 200760, Note Name: F#5
Note ON: Time 200760, Note Name: F5, Velocity: 67
Note OFF: Time 200880, Note Name: F5
Note ON: Time 200880, Note Name: D#5, Velocity: 60
Note OFF: Time 201120, Note Name: D#5
Note ON: Time 201120, Note Name: D#5, Velocity: 60
Note OFF: Time 201180, Note Name: D#5
Note ON: Time 201180, Note Name: F5, Velocity: 60
Note OFF: Time 201240, Note Name: F5
Note ON: Time 201240, Note Name: D#5, Velocity: 66
Note OFF: Time 201360, Note Name: D#5
Note ON: Time 201360, Note Name: D5, Velocity: 60
Note OFF: Time 201600, Note Name: D5
Note ON: Time 201600, Note Name: C5, Velocity: 60
Note OFF: Time 201720, Note Name: C5
Note ON: Time 201840, Note Name: D5, Velocity: 60
Note OFF: Time 201960, Note Name: D5
Note ON: Time 202080, Note Name: D#5, Velocity: 60
Note OFF: Time 202320, Note Name: D#5
Note ON: Time 202320, Note Name: A#2, Velocity: 55
Note OFF: Time 202440, Note Name: A#2
Note ON: Time 202560, Note Name: D#3, Velocity: 58
Note OFF: Time 202680, Note Name: D#3
Note ON: Time 202800, Note Name: F3, Velocity: 61
Note OFF: Time 202920, Note Name: F3
Note ON: Time 203040, Note Name: F#3, Velocity: 64
Note OFF: Time 203160, Note Name: F#3
Note ON: Time 203280, Note Name: A#4, Velocity: 62
Note OFF: Time 203400, Note Name: A#4
Note ON: Time 203520, Note Name: D#5, Velocity: 64
Note OFF: Time 203640, Note Name: D#5
Note ON: Time 203760, Note Name: F5, Velocity: 66
Note OFF: Time 203880, Note Name: F5
Note ON: Time 203940, Note Name: A#4, Velocity: 65
Note OFF: Time 204000, Note Name: A#4
Note ON: Time 204000, Note Name: F#5, Velocity: 75
Note OFF: Time 204720, Note Name: F#5
Note ON: Time 204720, Note Name: D#5, Velocity: 63
Note ON: Time 204900, Note Name: A#4, Velocity: 60
Note OFF: Time 204960, Note Name: A#4
Note OFF: Time 204960, Note Name: D#5
Note ON: Time 204960, Note Name: F#5, Velocity: 71
Note OFF: Time 205680, Note Name: F#5
Note ON: Time 205680, Note Name: D#5, Velocity: 58
Note OFF: Time 205920, Note Name: D#5
Note ON: Time 205920, Note Name: C5, Velocity: 60
Note OFF: Time 206160, Note Name: C5
Note ON: Time 206160, Note Name: G#2, Velocity: 57
Note OFF: Time 206280, Note Name: G#2
Note ON: Time 206400, Note Name: D#3, Velocity: 60
Note OFF: Time 206520, Note Name: D#3
Note ON: Time 206640, Note Name: F3, Velocity: 63
Note OFF: Time 206760, Note Name: F3
Note ON: Time 206880, Note Name: F#3, Velocity: 66
Note OFF: Time 207000, Note Name: F#3
Note ON: Time 207120, Note Name: G#4, Velocity: 59
Note OFF: Time 207360, Note Name: G#4
Note ON: Time 207360, Note Name: F#5, Velocity: 62
Note OFF: Time 207600, Note Name: F#5
Note ON: Time 207600, Note Name: F5, Velocity: 65
Note OFF: Time 207840, Note Name: F5
Note ON: Time 207840, Note Name: F5, Velocity: 60
Note OFF: Time 207900, Note Name: F5
Note ON: Time 207900, Note Name: F#5, Velocity: 60
Note OFF: Time 207960, Note Name: F#5
Note ON: Time 207960, Note Name: F5, Velocity: 67
Note OFF: Time 208080, Note Name: F5
Note ON: Time 208080, Note Name: D#5, Velocity: 60
Note OFF: Time 208320, Note Name: D#5
Note ON: Time 208320, Note Name: D#5, Velocity: 60
Note OFF: Time 208380, Note Name: D#5
Note ON: Time 208380, Note Name: F5, Velocity: 60
Note OFF: Time 208440, Note Name: F5
Note ON: Time 208440, Note Name: D#5, Velocity: 67
Note OFF: Time 208560, Note Name: D#5
Note ON: Time 208560, Note Name: C#5, Velocity: 60
Note OFF: Time 208800, Note Name: C#5
Note ON: Time 208800, Note Name: C#5, Velocity: 60
Note OFF: Time 208860, Note Name: C#5
Note ON: Time 208860, Note Name: D#5, Velocity: 60
Note OFF: Time 208920, Note Name: D#5
Note ON: Time 208920, Note Name: C#5, Velocity: 66
Note OFF: Time 209040, Note Name: C#5
Note ON: Time 209040, Note Name: C5, Velocity: 60
Note OFF: Time 209280, Note Name: C5
Note ON: Time 209280, Note Name: A#4, Velocity: 60
Note OFF: Time 209400, Note Name: A#4
Note ON: Time 209520, Note Name: C5, Velocity: 60
Note OFF: Time 209640, Note Name: C5
Note ON: Time 209760, Note Name: C#5, Velocity: 60
Note OFF: Time 210000, Note Name: C#5
Note ON: Time 210000, Note Name: G#2, Velocity: 55
Note OFF: Time 210120, Note Name: G#2
Note ON: Time 210240, Note Name: C#3, Velocity: 58
Note OFF: Time 210360, Note Name: C#3
Note ON: Time 210480, Note Name: D#3, Velocity: 61
Note OFF: Time 210600, Note Name: D#3
Note ON: Time 210720, Note Name: F3, Velocity: 64
Note OFF: Time 210840, Note Name: F3
Note ON: Time 210960, Note Name: G#4, Velocity: 62
Note OFF: Time 211080, Note Name: G#4
Note ON: Time 211200, Note Name: C#5, Velocity: 64
Note OFF: Time 211320, Note Name: C#5
Note ON: Time 211440, Note Name: D#5, Velocity: 66
Note OFF: Time 211560, Note Name: D#5
Note ON: Time 211620, Note Name: G#4, Velocity: 65
Note OFF: Time 211680, Note Name: G#4
Note ON: Time 211680, Note Name: F5, Velocity: 75
Note OFF: Time 212400, Note Name: F5
Note ON: Time 212400, Note Name: C#5, Velocity: 63
Note ON: Time 212580, Note Name: G#4, Velocity: 60
Note OFF: Time 212640, Note Name: G#4
Note OFF: Time 212640, Note Name: C#5
Note ON: Time 212640, Note Name: F5, Velocity: 71
Note OFF: Time 213360, Note Name: F5
Note ON: Time 213360, Note Name: C#5, Velocity: 58
Note OFF: Time 213600, Note Name: C#5
Note ON: Time 213600, Note Name: C5, Velocity: 60
Note OFF: Time 213840, Note Name: C5
Note ON: Time 213840, Note Name: G#2, Velocity: 57
Note OFF: Time 213960, Note Name: G#2
Note ON: Time 214080, Note Name: D#3, Velocity: 60
Note OFF: Time 214200, Note Name: D#3
Note ON: Time 214320, Note Name: F3, Velocity: 63
Note OFF: Time 214440, Note Name: F3
Note ON: Time 214560, Note Name: F#3, Velocity: 66
Note OFF: Time 214680, Note Name: F#3
Note ON: Time 214800, Note Name: G#4, Velocity: 59
Note OFF: Time 215040, Note Name: G#4
Note ON: Time 215040, Note Name: F#5, Velocity: 62
Note OFF: Time 215280, Note Name: F#5
Note ON: Time 215280, Note Name: F5, Velocity: 65
Note OFF: Time 215520, Note Name: F5
Note ON: Time 215520, Note Name: F5, Velocity: 60
Note OFF: Time 215580, Note Name: F5
Note ON: Time 215580, Note Name: F#5, Velocity: 60
Note OFF: Time 215640, Note Name: F#5
Note ON: Time 215640, Note Name: F5, Velocity: 67
Note OFF: Time 215760, Note Name: F5
Note ON: Time 215760, Note Name: D#5, Velocity: 60
Note OFF: Time 216000, Note Name: D#5
Note ON: Time 216000, Note Name: D#5, Velocity: 60
Note OFF: Time 216060, Note Name: D#5
Note ON: Time 216060, Note Name: F5, Velocity: 60
Note OFF: Time 216120, Note Name: F5
Note ON: Time 216120, Note Name: D#5, Velocity: 67
Note OFF: Time 216240, Note Name: D#5
Note ON: Time 216240, Note Name: C#5, Velocity: 60
Note OFF: Time 216480, Note Name: C#5
Note ON: Time 216480, Note Name: C#5, Velocity: 60
Note OFF: Time 216540, Note Name: C#5
Note ON: Time 216540, Note Name: D#5, Velocity: 60
Note OFF: Time 216600, Note Name: D#5
Note ON: Time 216600, Note Name: C#5, Velocity: 66
Note OFF: Time 216720, Note Name: C#5
Note ON: Time 216720, Note Name: C5, Velocity: 60
Note OFF: Time 216960, Note Name: C5
Note ON: Time 216960, Note Name: A#4, Velocity: 60
Note OFF: Time 217080, Note Name: A#4
Note ON: Time 217200, Note Name: C5, Velocity: 57
Note OFF: Time 217320, Note Name: C5
Note ON: Time 217440, Note Name: C#5, Velocity: 60
Note OFF: Time 217680, Note Name: C#5
Note ON: Time 217680, Note Name: C#3, Velocity: 73
Note OFF: Time 217920, Note Name: C#3
Note ON: Time 217920, Note Name: G#3, Velocity: 77
Note OFF: Time 218160, Note Name: G#3
Note ON: Time 218160, Note Name: B2, Velocity: 73
Note OFF: Time 218280, Note Name: B2
Note ON: Time 218400, Note Name: A#2, Velocity: 77
Note OFF: Time 218520, Note Name: A#2
Note ON: Time 218640, Note Name: A#4, Velocity: 59
Note OFF: Time 218880, Note Name: A#4
Note ON: Time 218880, Note Name: G#5, Velocity: 62
Note OFF: Time 219120, Note Name: G#5
Note ON: Time 219120, Note Name: F#5, Velocity: 65
Note OFF: Time 219360, Note Name: F#5
Note ON: Time 219360, Note Name: F#5, Velocity: 60
Note OFF: Time 219420, Note Name: F#5
Note ON: Time 219420, Note Name: G#5, Velocity: 60
Note OFF: Time 219480, Note Name: G#5
Note ON: Time 219480, Note Name: F#5, Velocity: 67
Note OFF: Time 219600, Note Name: F#5
Note ON: Time 219600, Note Name: F5, Velocity: 60
Note OFF: Time 219840, Note Name: F5
Note ON: Time 219840, Note Name: F5, Velocity: 60
Note OFF: Time 219900, Note Name: F5
Note ON: Time 219900, Note Name: F#5, Velocity: 60
Note OFF: Time 219960, Note Name: F#5
Note ON: Time 219960, Note Name: F5, Velocity: 67
Note OFF: Time 220080, Note Name: F5
Note ON: Time 220080, Note Name: D#5, Velocity: 60
Note OFF: Time 220320, Note Name: D#5
Note ON: Time 220320, Note Name: D#5, Velocity: 60
Note OFF: Time 220380, Note Name: D#5
Note ON: Time 220380, Note Name: F5, Velocity: 60
Note OFF: Time 220440, Note Name: F5
Note ON: Time 220440, Note Name: D#5, Velocity: 66
Note OFF: Time 220560, Note Name: D#5
Note ON: Time 220560, Note Name: D5, Velocity: 60
Note OFF: Time 220800, Note Name: D5
Note ON: Time 220800, Note Name: C5, Velocity: 60
Note OFF: Time 220920, Note Name: C5
Note ON: Time 221040, Note Name: D5, Velocity: 57
Note OFF: Time 221160, Note Name: D5
Note ON: Time 221280, Note Name: D#5, Velocity: 60
Note OFF: Time 221520, Note Name: D#5
Note ON: Time 221520, Note Name: D#3, Velocity: 73
Note OFF: Time 221760, Note Name: D#3
Note ON: Time 221760, Note Name: A#3, Velocity: 77
Note OFF: Time 222000, Note Name: A#3
Note ON: Time 222000, Note Name: C#3, Velocity: 73
Note OFF: Time 222120, Note Name: C#3
Note ON: Time 222240, Note Name: C3, Velocity: 77
Note OFF: Time 222360, Note Name: C3
Note ON: Time 222480, Note Name: C5, Velocity: 59
Note OFF: Time 222720, Note Name: C5
Note ON: Time 222720, Note Name: A#5, Velocity: 62
Note OFF: Time 222960, Note Name: A#5
Note ON: Time 222960, Note Name: G#5, Velocity: 65
Note OFF: Time 223200, Note Name: G#5
Note ON: Time 223200, Note Name: G#5, Velocity: 60
Note OFF: Time 223260, Note Name: G#5
Note ON: Time 223260, Note Name: A#5, Velocity: 60
Note OFF: Time 223320, Note Name: A#5
Note ON: Time 223320, Note Name: G#5, Velocity: 67
Note OFF: Time 223440, Note Name: G#5
Note ON: Time 223440, Note Name: G5, Velocity: 60
Note OFF: Time 223680, Note Name: G5
Note ON: Time 223680, Note Name: G5, Velocity: 60
Note OFF: Time 223740, Note Name: G5
Note ON: Time 223740, Note Name: G#5, Velocity: 60
Note OFF: Time 223800, Note Name: G#5
Note ON: Time 223800, Note Name: G5, Velocity: 67
Note OFF: Time 223920, Note Name: G5
Note ON: Time 223920, Note Name: F5, Velocity: 60
Note OFF: Time 224160, Note Name: F5
Note ON: Time 224160, Note Name: F5, Velocity: 60
Note OFF: Time 224220, Note Name: F5
Note ON: Time 224220, Note Name: G5, Velocity: 60
Note OFF: Time 224280, Note Name: G5
Note ON: Time 224280, Note Name: F5, Velocity: 66
Note OFF: Time 224400, Note Name: F5
Note ON: Time 224400, Note Name: E5, Velocity: 60
Note OFF: Time 224640, Note Name: E5
Note ON: Time 224640, Note Name: D5, Velocity: 60
Note OFF: Time 224880, Note Name: D5
Note ON: Time 224880, Note Name: E5, Velocity: 57
Note OFF: Time 225120, Note Name: E5
Note ON: Time 225120, Note Name: G5, Velocity: 60
Note OFF: Time 225180, Note Name: G5
Note ON: Time 225180, Note Name: G#5, Velocity: 60
Note OFF: Time 225240, Note Name: G#5
Note ON: Time 225240, Note Name: G5, Velocity: 67
Note OFF: Time 225360, Note Name: G5
Note ON: Time 225360, Note Name: F5, Velocity: 60
Note OFF: Time 225600, Note Name: F5
Note ON: Time 225600, Note Name: F5, Velocity: 60
Note OFF: Time 225660, Note Name: F5
Note ON: Time 225660, Note Name: G5, Velocity: 60
Note OFF: Time 225720, Note Name: G5
Note ON: Time 225720, Note Name: F5, Velocity: 67
Note OFF: Time 225840, Note Name: F5
Note ON: Time 225840, Note Name: D#5, Velocity: 60
Note OFF: Time 226080, Note Name: D#5
Note ON: Time 226080, Note Name: D#5, Velocity: 60
Note OFF: Time 226140, Note Name: D#5
Note ON: Time 226140, Note Name: F5, Velocity: 60
Note OFF: Time 226200, Note Name: F5
Note ON: Time 226200, Note Name: D#5, Velocity: 66
Note OFF: Time 226320, Note Name: D#5
Note ON: Time 226320, Note Name: D5, Velocity: 60
Note OFF: Time 226560, Note Name: D5
Note ON: Time 226560, Note Name: C5, Velocity: 60
Note OFF: Time 226800, Note Name: C5
Note ON: Time 226800, Note Name: D5, Velocity: 57
Note OFF: Time 227040, Note Name: D5
Note ON: Time 227040, Note Name: F5, Velocity: 60
Note OFF: Time 227100, Note Name: F5
Note ON: Time 227100, Note Name: G5, Velocity: 60
Note OFF: Time 227160, Note Name: G5
Note ON: Time 227160, Note Name: F5, Velocity: 67
Note OFF: Time 227280, Note Name: F5
Note ON: Time 227280, Note Name: D#5, Velocity: 59
Note OFF: Time 227520, Note Name: D#5
Note ON: Time 227520, Note Name: D#5, Velocity: 58
Note OFF: Time 227580, Note Name: D#5
Note ON: Time 227580, Note Name: F5, Velocity: 58
Note OFF: Time 227640, Note Name: F5
Note ON: Time 227640, Note Name: D#5, Velocity: 64
Note OFF: Time 227760, Note Name: D#5
Note ON: Time 227760, Note Name: D5, Velocity: 57
Note OFF: Time 228000, Note Name: D5
Note ON: Time 228000, Note Name: D5, Velocity: 56
Note OFF: Time 228060, Note Name: D5
Note ON: Time 228060, Note Name: D#5, Velocity: 55
Note OFF: Time 228120, Note Name: D#5
Note ON: Time 228120, Note Name: D5, Velocity: 61
Note OFF: Time 228240, Note Name: D5
Note ON: Time 228240, Note Name: C5, Velocity: 55
Note OFF: Time 228480, Note Name: C5
Note ON: Time 228480, Note Name: C5, Velocity: 54
Note OFF: Time 228540, Note Name: C5
Note ON: Time 228540, Note Name: D5, Velocity: 54
Note OFF: Time 228600, Note Name: D5
Note ON: Time 228600, Note Name: C5, Velocity: 59
Note OFF: Time 228720, Note Name: C5
Note ON: Time 228720, Note Name: B4, Velocity: 53
Note OFF: Time 228960, Note Name: B4
Note ON: Time 228960, Note Name: C5, Velocity: 52
Note OFF: Time 229020, Note Name: C5
Note ON: Time 229020, Note Name: D5, Velocity: 52
Note OFF: Time 229080, Note Name: D5
Note ON: Time 229080, Note Name: C5, Velocity: 56
Note OFF: Time 229200, Note Name: C5
Note ON: Time 229200, Note Name: A#4, Velocity: 51
Note OFF: Time 229440, Note Name: A#4
Note ON: Time 229440, Note Name: A#4, Velocity: 50
Note OFF: Time 229530, Note Name: A#4
Note ON: Time 229680, Note Name: A#4, Velocity: 46
Note OFF: Time 229770, Note Name: A#4
Note ON: Time 229920, Note Name: C5, Velocity: 37
Note OFF: Time 229980, Note Name: C5
Note ON: Time 229980, Note Name: D5, Velocity: 37
Note OFF: Time 230040, Note Name: D5
Note ON: Time 230040, Note Name: C5, Velocity: 41
Note OFF: Time 230160, Note Name: C5
Note ON: Time 230160, Note Name: A#4, Velocity: 37
Note OFF: Time 230400, Note Name: A#4
Note ON: Time 230400, Note Name: A#4, Velocity: 37
Note OFF: Time 230490, Note Name: A#4
Note ON: Time 230640, Note Name: A#4, Velocity: 35
Note OFF: Time 230730, Note Name: A#4
Note ON: Time 231000, Note Name: D#4, Velocity: 25
Note OFF: Time 231120, Note Name: D#4
Note ON: Time 231120, Note Name: G4, Velocity: 29
Note OFF: Time 231240, Note Name: G4
Note ON: Time 231240, Note Name: D#4, Velocity: 29
Note OFF: Time 231360, Note Name: D#4
Note ON: Time 231360, Note Name: D#5, Velocity: 45
Note ON: Time 231480, Note Name: D#4, Velocity: 28
Note OFF: Time 231600, Note Name: D#4
Note ON: Time 231600, Note Name: G4, Velocity: 30
Note OFF: Time 231720, Note Name: G4
Note ON: Time 231720, Note Name: D#4, Velocity: 28
Note OFF: Time 231840, Note Name: D#4
Note ON: Time 231840, Note Name: G4, Velocity: 31
Note OFF: Time 231960, Note Name: G4
Note ON: Time 231960, Note Name: D#4, Velocity: 30
Note OFF: Time 232080, Note Name: D#4
Note ON: Time 232080, Note Name: G4, Velocity: 32
Note OFF: Time 232200, Note Name: G4
Note ON: Time 232200, Note Name: D#4, Velocity: 29
Note OFF: Time 232320, Note Name: D#4
Note OFF: Time 232320, Note Name: D#5
Note ON: Time 232320, Note Name: D#5, Velocity: 50
Note ON: Time 232440, Note Name: D#4, Velocity: 30
Note OFF: Time 232560, Note Name: D#4
Note ON: Time 232560, Note Name: G4, Velocity: 33
Note OFF: Time 232680, Note Name: G4
Note ON: Time 232680, Note Name: D#4, Velocity: 32
Note OFF: Time 232800, Note Name: D#4
Note OFF: Time 232800, Note Name: D#5
Note ON: Time 232920, Note Name: D#4, Velocity: 32
Note OFF: Time 233040, Note Name: D#4
Note ON: Time 233040, Note Name: G4, Velocity: 36
Note OFF: Time 233160, Note Name: G4
Note ON: Time 233160, Note Name: D#4, Velocity: 35
Note OFF: Time 233280, Note Name: D#4
Note ON: Time 233280, Note Name: D#5, Velocity: 54
Note ON: Time 233400, Note Name: D#4, Velocity: 33
Note OFF: Time 233520, Note Name: D#4
Note ON: Time 233520, Note Name: G4, Velocity: 35
Note OFF: Time 233640, Note Name: G4
Note ON: Time 233640, Note Name: D#4, Velocity: 32
Note OFF: Time 233760, Note Name: D#4
Note ON: Time 233760, Note Name: G4, Velocity: 35
Note OFF: Time 233880, Note Name: G4
Note ON: Time 233880, Note Name: D#4, Velocity: 33
Note OFF: Time 234000, Note Name: D#4
Note ON: Time 234000, Note Name: G4, Velocity: 35
Note OFF: Time 234120, Note Name: G4
Note ON: Time 234120, Note Name: D#4, Velocity: 32
Note OFF: Time 234240, Note Name: D#4
Note OFF: Time 234240, Note Name: D#5
Note ON: Time 234240, Note Name: D#5, Velocity: 53
Note ON: Time 234360, Note Name: D#4, Velocity: 32
Note OFF: Time 234480, Note Name: D#4
Note ON: Time 234480, Note Name: G4, Velocity: 35
Note OFF: Time 234600, Note Name: G4
Note ON: Time 234600, Note Name: D#4, Velocity: 33
Note OFF: Time 234720, Note Name: D#4
Note OFF: Time 234720, Note Name: D#5
Note ON: Time 234720, Note Name: D#5, Velocity: 66
Note OFF: Time 234810, Note Name: D#5
Note ON: Time 234840, Note Name: D#4, Velocity: 41
Note OFF: Time 234960, Note Name: D#4
Note ON: Time 234960, Note Name: G#4, Velocity: 45
Note OFF: Time 235080, Note Name: G#4
Note ON: Time 235080, Note Name: D#4, Velocity: 42
Note OFF: Time 235200, Note Name: D#4
Note ON: Time 235200, Note Name: E5, Velocity: 67
Note OFF: Time 235290, Note Name: E5
Note ON: Time 235320, Note Name: E4, Velocity: 43
Note OFF: Time 235440, Note Name: E4
Note ON: Time 235440, Note Name: C5, Velocity: 47
Note OFF: Time 235560, Note Name: C5
Note ON: Time 235560, Note Name: E4, Velocity: 43
Note OFF: Time 235680, Note Name: E4
Note ON: Time 235680, Note Name: F5, Velocity: 71
Note OFF: Time 235770, Note Name: F5
Note ON: Time 235800, Note Name: F4, Velocity: 45
Note OFF: Time 235920, Note Name: F4
Note ON: Time 235920, Note Name: C5, Velocity: 50
Note OFF: Time 236040, Note Name: C5
Note ON: Time 236040, Note Name: F4, Velocity: 45
Note OFF: Time 236160, Note Name: F4
Note ON: Time 236160, Note Name: G5, Velocity: 72
Note OFF: Time 236250, Note Name: G5
Note ON: Time 236280, Note Name: G4, Velocity: 47
Note OFF: Time 236400, Note Name: G4
Note ON: Time 236400, Note Name: C5, Velocity: 50
Note OFF: Time 236520, Note Name: C5
Note ON: Time 236520, Note Name: G4, Velocity: 47
Note OFF: Time 236640, Note Name: G4
Note ON: Time 236640, Note Name: G#5, Velocity: 74
Note OFF: Time 236730, Note Name: G#5
Note ON: Time 236760, Note Name: G#4, Velocity: 49
Note OFF: Time 236880, Note Name: G#4
Note ON: Time 236880, Note Name: C5, Velocity: 54
Note OFF: Time 237000, Note Name: C5
Note ON: Time 237000, Note Name: G#4, Velocity: 49
Note OFF: Time 237120, Note Name: G#4
Note ON: Time 237120, Note Name: A5, Velocity: 80
Note OFF: Time 237210, Note Name: A5
Note ON: Time 237240, Note Name: A4, Velocity: 50
Note OFF: Time 237360, Note Name: A4
Note ON: Time 237360, Note Name: C5, Velocity: 55
Note OFF: Time 237480, Note Name: C5
Note ON: Time 237480, Note Name: A4, Velocity: 51
Note OFF: Time 237600, Note Name: A4
Note ON: Time 237600, Note Name: A#5, Velocity: 84
Note OFF: Time 237690, Note Name: A#5
Note ON: Time 237720, Note Name: A#4, Velocity: 51
Note OFF: Time 237840, Note Name: A#4
Note ON: Time 237840, Note Name: F5, Velocity: 58
Note OFF: Time 237960, Note Name: F5
Note ON: Time 237960, Note Name: A#4, Velocity: 53
Note OFF: Time 238080, Note Name: A#4
Note ON: Time 238080, Note Name: C6, Velocity: 85
Note OFF: Time 238170, Note Name: C6
Note ON: Time 238200, Note Name: C5, Velocity: 53
Note OFF: Time 238320, Note Name: C5
Note ON: Time 238320, Note Name: F5, Velocity: 58
Note OFF: Time 238440, Note Name: F5
Note ON: Time 238440, Note Name: C5, Velocity: 54
Note OFF: Time 238560, Note Name: C5
Note ON: Time 238560, Note Name: C#6, Velocity: 85
Note OFF: Time 238650, Note Name: C#6
Note ON: Time 238680, Note Name: C#5, Velocity: 55
Note OFF: Time 238800, Note Name: C#5
Note ON: Time 238800, Note Name: F5, Velocity: 63
Note OFF: Time 238920, Note Name: F5
Note ON: Time 238920, Note Name: C#5, Velocity: 55
Note OFF: Time 239040, Note Name: C#5
Note ON: Time 239040, Note Name: D6, Velocity: 90
Note OFF: Time 239130, Note Name: D6
Note ON: Time 239160, Note Name: D5, Velocity: 57
Note OFF: Time 239280, Note Name: D5
Note ON: Time 239280, Note Name: F5, Velocity: 62
Note OFF: Time 239400, Note Name: F5
Note ON: Time 239400, Note Name: D5, Velocity: 57
Note OFF: Time 239520, Note Name: D5
Note ON: Time 239520, Note Name: D#6, Velocity: 89
Note OFF: Time 239610, Note Name: D#6
Note ON: Time 239640, Note Name: D#5, Velocity: 59
Note OFF: Time 239760, Note Name: D#5
Note ON: Time 239760, Note Name: A#5, Velocity: 64
Note OFF: Time 239880, Note Name: A#5
Note ON: Time 239880, Note Name: D#5, Velocity: 59
Note OFF: Time 240000, Note Name: D#5
Note ON: Time 240000, Note Name: B5, Velocity: 91
Note OFF: Time 240090, Note Name: B5
Note ON: Time 240120, Note Name: B4, Velocity: 61
Note OFF: Time 240240, Note Name: B4
Note ON: Time 240240, Note Name: D#5, Velocity: 67
Note OFF: Time 240360, Note Name: D#5
Note ON: Time 240360, Note Name: B4, Velocity: 61
Note OFF: Time 240480, Note Name: B4
Note ON: Time 240600, Note Name: C5, Velocity: 78
Note OFF: Time 240720, Note Name: C5
Note ON: Time 240720, Note Name: D#5, Velocity: 84
Note OFF: Time 240840, Note Name: D#5
Note ON: Time 240840, Note Name: C5, Velocity: 78
Note OFF: Time 240960, Note Name: C5
Note ON: Time 240960, Note Name: C6, Velocity: 88
Note OFF: Time 241050, Note Name: C6
Note ON: Time 241080, Note Name: C5, Velocity: 78
Note OFF: Time 241200, Note Name: C5
Note ON: Time 241200, Note Name: D#5, Velocity: 84
Note OFF: Time 241320, Note Name: D#5
Note ON: Time 241320, Note Name: C5, Velocity: 76
Note OFF: Time 241440, Note Name: C5
Note ON: Time 241560, Note Name: F4, Velocity: 78
Note OFF: Time 241680, Note Name: F4
Note ON: Time 241680, Note Name: G#4, Velocity: 84
Note OFF: Time 241800, Note Name: G#4
Note ON: Time 241800, Note Name: F4, Velocity: 78
Note OFF: Time 241920, Note Name: F4
Note ON: Time 241920, Note Name: D5, Velocity: 88
Note OFF: Time 242010, Note Name: D5
Note ON: Time 242040, Note Name: F4, Velocity: 78
Note OFF: Time 242160, Note Name: F4
Note ON: Time 242160, Note Name: G#4, Velocity: 84
Note OFF: Time 242280, Note Name: G#4
Note ON: Time 242280, Note Name: F4, Velocity: 76
Note OFF: Time 242400, Note Name: F4
Note ON: Time 242520, Note Name: D#4, Velocity: 32
Note OFF: Time 242640, Note Name: D#4
Note ON: Time 242640, Note Name: G4, Velocity: 36
Note OFF: Time 242760, Note Name: G4
Note ON: Time 242760, Note Name: D#4, Velocity: 35
Note OFF: Time 242880, Note Name: D#4
Note ON: Time 242880, Note Name: D#5, Velocity: 54
Note ON: Time 243000, Note Name: D#4, Velocity: 33
Note OFF: Time 243120, Note Name: D#4
Note ON: Time 243120, Note Name: G4, Velocity: 35
Note OFF: Time 243240, Note Name: G4
Note ON: Time 243240, Note Name: D#4, Velocity: 32
Note OFF: Time 243360, Note Name: D#4
Note ON: Time 243360, Note Name: G4, Velocity: 35
Note OFF: Time 243480, Note Name: G4
Note ON: Time 243480, Note Name: D#4, Velocity: 33
Note OFF: Time 243600, Note Name: D#4
Note ON: Time 243600, Note Name: G4, Velocity: 35
Note OFF: Time 243720, Note Name: G4
Note ON: Time 243720, Note Name: D#4, Velocity: 32
Note OFF: Time 243840, Note Name: D#4
Note OFF: Time 243840, Note Name: D#5
Note ON: Time 243840, Note Name: D#5, Velocity: 53
Note ON: Time 243960, Note Name: D#4, Velocity: 32
Note OFF: Time 244080, Note Name: D#4
Note ON: Time 244080, Note Name: G4, Velocity: 35
Note OFF: Time 244200, Note Name: G4
Note ON: Time 244200, Note Name: D#4, Velocity: 33
Note OFF: Time 244320, Note Name: D#4
Note OFF: Time 244320, Note Name: D#5
Note ON: Time 244440, Note Name: D#4, Velocity: 32
Note OFF: Time 244560, Note Name: D#4
Note ON: Time 244560, Note Name: G4, Velocity: 36
Note OFF: Time 244680, Note Name: G4
Note ON: Time 244680, Note Name: D#4, Velocity: 35
Note OFF: Time 244800, Note Name: D#4
Note ON: Time 244800, Note Name: D#5, Velocity: 54
Note ON: Time 244920, Note Name: D#4, Velocity: 33
Note OFF: Time 245040, Note Name: D#4
Note ON: Time 245040, Note Name: G4, Velocity: 35
Note OFF: Time 245160, Note Name: G4
Note ON: Time 245160, Note Name: D#4, Velocity: 32
Note OFF: Time 245280, Note Name: D#4
Note ON: Time 245280, Note Name: G4, Velocity: 35
Note OFF: Time 245400, Note Name: G4
Note ON: Time 245400, Note Name: D#4, Velocity: 33
Note OFF: Time 245520, Note Name: D#4
Note ON: Time 245520, Note Name: G4, Velocity: 35
Note OFF: Time 245640, Note Name: G4
Note ON: Time 245640, Note Name: D#4, Velocity: 32
Note OFF: Time 245760, Note Name: D#4
Note OFF: Time 245760, Note Name: D#5
Note ON: Time 245760, Note Name: D#5, Velocity: 53
Note ON: Time 245880, Note Name: D#4, Velocity: 32
Note OFF: Time 246000, Note Name: D#4
Note ON: Time 246000, Note Name: G4, Velocity: 35
Note OFF: Time 246120, Note Name: G4
Note ON: Time 246120, Note Name: D#4, Velocity: 33
Note OFF: Time 246240, Note Name: D#4
Note OFF: Time 246240, Note Name: D#5
Note ON: Time 246240, Note Name: D#5, Velocity: 66
Note OFF: Time 246330, Note Name: D#5
Note ON: Time 246360, Note Name: D#4, Velocity: 41
Note OFF: Time 246480, Note Name: D#4
Note ON: Time 246480, Note Name: G#4, Velocity: 45
Note OFF: Time 246600, Note Name: G#4
Note ON: Time 246600, Note Name: D#4, Velocity: 42
Note OFF: Time 246720, Note Name: D#4
Note ON: Time 246720, Note Name: E5, Velocity: 67
Note OFF: Time 246810, Note Name: E5
Note ON: Time 246840, Note Name: E4, Velocity: 43
Note OFF: Time 246960, Note Name: E4
Note ON: Time 246960, Note Name: C5, Velocity: 47
Note OFF: Time 247080, Note Name: C5
Note ON: Time 247080, Note Name: E4, Velocity: 43
Note OFF: Time 247200, Note Name: E4
Note ON: Time 247200, Note Name: F5, Velocity: 71
Note OFF: Time 247290, Note Name: F5
Note ON: Time 247320, Note Name: F4, Velocity: 45
Note OFF: Time 247440, Note Name: F4
Note ON: Time 247440, Note Name: C5, Velocity: 50
Note OFF: Time 247560, Note Name: C5
Note ON: Time 247560, Note Name: F4, Velocity: 45
Note OFF: Time 247680, Note Name: F4
Note ON: Time 247680, Note Name: G5, Velocity: 72
Note OFF: Time 247770, Note Name: G5
Note ON: Time 247800, Note Name: G4, Velocity: 47
Note OFF: Time 247920, Note Name: G4
Note ON: Time 247920, Note Name: C5, Velocity: 50
Note OFF: Time 248040, Note Name: C5
Note ON: Time 248040, Note Name: G4, Velocity: 47
Note OFF: Time 248160, Note Name: G4
Note ON: Time 248160, Note Name: G#5, Velocity: 74
Note OFF: Time 248250, Note Name: G#5
Note ON: Time 248280, Note Name: G#4, Velocity: 49
Note OFF: Time 248400, Note Name: G#4
Note ON: Time 248400, Note Name: C5, Velocity: 54
Note OFF: Time 248520, Note Name: C5
Note ON: Time 248520, Note Name: G#4, Velocity: 49
Note OFF: Time 248640, Note Name: G#4
Note ON: Time 248640, Note Name: A5, Velocity: 80
Note OFF: Time 248730, Note Name: A5
Note ON: Time 248760, Note Name: A4, Velocity: 50
Note OFF: Time 248880, Note Name: A4
Note ON: Time 248880, Note Name: C5, Velocity: 55
Note OFF: Time 249000, Note Name: C5
Note ON: Time 249000, Note Name: A4, Velocity: 51
Note OFF: Time 249120, Note Name: A4
Note ON: Time 249120, Note Name: A#5, Velocity: 84
Note OFF: Time 249210, Note Name: A#5
Note ON: Time 249240, Note Name: A#4, Velocity: 51
Note OFF: Time 249360, Note Name: A#4
Note ON: Time 249360, Note Name: F5, Velocity: 58
Note OFF: Time 249480, Note Name: F5
Note ON: Time 249480, Note Name: A#4, Velocity: 53
Note OFF: Time 249600, Note Name: A#4
Note ON: Time 249600, Note Name: C6, Velocity: 85
Note OFF: Time 249690, Note Name: C6
Note ON: Time 249720, Note Name: C5, Velocity: 53
Note OFF: Time 249840, Note Name: C5
Note ON: Time 249840, Note Name: F5, Velocity: 58
Note OFF: Time 249960, Note Name: F5
Note ON: Time 249960, Note Name: C5, Velocity: 54
Note OFF: Time 250080, Note Name: C5
Note ON: Time 250080, Note Name: C#6, Velocity: 85
Note OFF: Time 250170, Note Name: C#6
Note ON: Time 250200, Note Name: C#5, Velocity: 55
Note OFF: Time 250320, Note Name: C#5
Note ON: Time 250320, Note Name: F5, Velocity: 63
Note OFF: Time 250440, Note Name: F5
Note ON: Time 250440, Note Name: C#5, Velocity: 55
Note OFF: Time 250560, Note Name: C#5
Note ON: Time 250560, Note Name: D6, Velocity: 90
Note OFF: Time 250650, Note Name: D6
Note ON: Time 250680, Note Name: D5, Velocity: 57
Note OFF: Time 250800, Note Name: D5
Note ON: Time 250800, Note Name: F5, Velocity: 62
Note OFF: Time 250920, Note Name: F5
Note ON: Time 250920, Note Name: D5, Velocity: 57
Note OFF: Time 251040, Note Name: D5
Note ON: Time 251040, Note Name: D#6, Velocity: 89
Note OFF: Time 251130, Note Name: D#6
Note ON: Time 251160, Note Name: D#5, Velocity: 59
Note OFF: Time 251280, Note Name: D#5
Note ON: Time 251280, Note Name: A#5, Velocity: 64
Note OFF: Time 251400, Note Name: A#5
Note ON: Time 251400, Note Name: D#5, Velocity: 59
Note OFF: Time 251520, Note Name: D#5
Note ON: Time 251520, Note Name: E6, Velocity: 91
Note OFF: Time 251610, Note Name: E6
Note ON: Time 251640, Note Name: E5, Velocity: 61
Note OFF: Time 251760, Note Name: E5
Note ON: Time 251760, Note Name: A#5, Velocity: 67
Note OFF: Time 251880, Note Name: A#5
Note ON: Time 251880, Note Name: E5, Velocity: 61
Note OFF: Time 252000, Note Name: E5
Note ON: Time 252120, Note Name: G#5, Velocity: 78
Note OFF: Time 252240, Note Name: G#5
Note ON: Time 252240, Note Name: C6, Velocity: 84
Note OFF: Time 252360, Note Name: C6
Note ON: Time 252360, Note Name: G#5, Velocity: 78
Note OFF: Time 252480, Note Name: G#5
Note ON: Time 252480, Note Name: F6, Velocity: 88
Note OFF: Time 252570, Note Name: F6
Note ON: Time 252600, Note Name: G#5, Velocity: 78
Note OFF: Time 252720, Note Name: G#5
Note ON: Time 252720, Note Name: C6, Velocity: 84
Note OFF: Time 252840, Note Name: C6
Note ON: Time 252840, Note Name: G#5, Velocity: 76
Note OFF: Time 252960, Note Name: G#5
Note ON: Time 253080, Note Name: F5, Velocity: 78
Note OFF: Time 253200, Note Name: F5
Note ON: Time 253200, Note Name: G#5, Velocity: 84
Note OFF: Time 253320, Note Name: G#5
Note ON: Time 253320, Note Name: F5, Velocity: 78
Note OFF: Time 253440, Note Name: F5
Note ON: Time 253440, Note Name: D6, Velocity: 88
Note OFF: Time 253530, Note Name: D6
Note ON: Time 253560, Note Name: F5, Velocity: 78
Note OFF: Time 253680, Note Name: F5
Note ON: Time 253680, Note Name: G#5, Velocity: 84
Note OFF: Time 253800, Note Name: G#5
Note ON: Time 253800, Note Name: F5, Velocity: 76
Note OFF: Time 253920, Note Name: F5
Note ON: Time 253920, Note Name: G5, Velocity: 81
Note OFF: Time 254010, Note Name: G5
Note ON: Time 254160, Note Name: D#6, Velocity: 64
Note OFF: Time 254640, Note Name: D#6
Note ON: Time 254640, Note Name: D6, Velocity: 46
Note OFF: Time 254760, Note Name: D6
Note ON: Time 254760, Note Name: D#6, Velocity: 48
Note OFF: Time 254880, Note Name: D#6
Note ON: Time 254880, Note Name: F6, Velocity: 49
Note OFF: Time 255000, Note Name: F6
Note ON: Time 255000, Note Name: D#6, Velocity: 49
Note OFF: Time 255120, Note Name: D#6
Note ON: Time 255120, Note Name: D6, Velocity: 48
Note OFF: Time 255240, Note Name: D6
Note ON: Time 255240, Note Name: C6, Velocity: 47
Note OFF: Time 255360, Note Name: C6
Note ON: Time 255360, Note Name: B5, Velocity: 45
Note OFF: Time 255480, Note Name: B5
Note ON: Time 255480, Note Name: C6, Velocity: 46
Note OFF: Time 255600, Note Name: C6
Note ON: Time 255600, Note Name: D6, Velocity: 49
Note OFF: Time 255720, Note Name: D6
Note ON: Time 255720, Note Name: C6, Velocity: 47
Note OFF: Time 255840, Note Name: C6
Note ON: Time 255840, Note Name: A#5, Velocity: 49
Note OFF: Time 255960, Note Name: A#5
Note ON: Time 255960, Note Name: G#5, Velocity: 47
Note OFF: Time 256080, Note Name: G#5
Note ON: Time 256080, Note Name: G5, Velocity: 46
Note OFF: Time 256200, Note Name: G5
Note ON: Time 256200, Note Name: F5, Velocity: 45
Note OFF: Time 256320, Note Name: F5
Note ON: Time 256320, Note Name: E5, Velocity: 45
Note OFF: Time 256440, Note Name: E5
Note ON: Time 256440, Note Name: F5, Velocity: 45
Note OFF: Time 256560, Note Name: F5
Note ON: Time 256560, Note Name: G5, Velocity: 47
Note OFF: Time 256680, Note Name: G5
Note ON: Time 256680, Note Name: F5, Velocity: 45
Note OFF: Time 256800, Note Name: F5
Note ON: Time 256800, Note Name: D#5, Velocity: 46
Note OFF: Time 256920, Note Name: D#5
Note ON: Time 256920, Note Name: D5, Velocity: 46
Note OFF: Time 257040, Note Name: D5
Note ON: Time 257040, Note Name: C5, Velocity: 45
Note OFF: Time 257160, Note Name: C5
Note ON: Time 257160, Note Name: A#4, Velocity: 45
Note OFF: Time 257280, Note Name: A#4
Note ON: Time 257280, Note Name: A4, Velocity: 45
Note OFF: Time 257400, Note Name: A4
Note ON: Time 257400, Note Name: A#4, Velocity: 42
Note OFF: Time 257520, Note Name: A#4
Note ON: Time 257520, Note Name: C5, Velocity: 46
Note OFF: Time 257640, Note Name: C5
Note ON: Time 257640, Note Name: G#4, Velocity: 42
Note OFF: Time 257760, Note Name: G#4
Note ON: Time 257760, Note Name: G4, Velocity: 66
Note OFF: Time 257850, Note Name: G4
Note ON: Time 258000, Note Name: D#5, Velocity: 68
Note ON: Time 258000, Note Name: D#6, Velocity: 68
Note OFF: Time 258480, Note Name: D#6
Note OFF: Time 258480, Note Name: D#5
Note ON: Time 258480, Note Name: D6, Velocity: 61
Note OFF: Time 258600, Note Name: D6
Note ON: Time 258600, Note Name: D#6, Velocity: 64
Note OFF: Time 258720, Note Name: D#6
Note ON: Time 258720, Note Name: F6, Velocity: 66
Note OFF: Time 258840, Note Name: F6
Note ON: Time 258840, Note Name: D#6, Velocity: 66
Note OFF: Time 258960, Note Name: D#6
Note ON: Time 258960, Note Name: D6, Velocity: 65
Note OFF: Time 259080, Note Name: D6
Note ON: Time 259080, Note Name: C6, Velocity: 64
Note OFF: Time 259200, Note Name: C6
Note ON: Time 259200, Note Name: B5, Velocity: 62
Note OFF: Time 259320, Note Name: B5
Note ON: Time 259320, Note Name: C6, Velocity: 64
Note OFF: Time 259440, Note Name: C6
Note ON: Time 259440, Note Name: D6, Velocity: 68
Note OFF: Time 259560, Note Name: D6
Note ON: Time 259560, Note Name: C6, Velocity: 66
Note OFF: Time 259680, Note Name: C6
Note ON: Time 259680, Note Name: A#5, Velocity: 69
Note OFF: Time 259800, Note Name: A#5
Note ON: Time 259800, Note Name: G#5, Velocity: 67
Note OFF: Time 259920, Note Name: G#5
Note ON: Time 259920, Note Name: G5, Velocity: 66
Note OFF: Time 260040, Note Name: G5
Note ON: Time 260040, Note Name: F5, Velocity: 65
Note OFF: Time 260160, Note Name: F5
Note ON: Time 260160, Note Name: E5, Velocity: 65
Note OFF: Time 260280, Note Name: E5
Note ON: Time 260280, Note Name: F5, Velocity: 64
Note OFF: Time 260400, Note Name: F5
Note ON: Time 260400, Note Name: G5, Velocity: 68
Note OFF: Time 260520, Note Name: G5
Note ON: Time 260520, Note Name: F5, Velocity: 66
Note OFF: Time 260640, Note Name: F5
Note ON: Time 260640, Note Name: D#5, Velocity: 68
Note OFF: Time 260760, Note Name: D#5
Note ON: Time 260760, Note Name: D5, Velocity: 68
Note OFF: Time 260880, Note Name: D5
Note ON: Time 260880, Note Name: C5, Velocity: 68
Note OFF: Time 261000, Note Name: C5
Note ON: Time 261000, Note Name: A#4, Velocity: 68
Note OFF: Time 261120, Note Name: A#4
Note ON: Time 261120, Note Name: A4, Velocity: 67
Note OFF: Time 261240, Note Name: A4
Note ON: Time 261240, Note Name: A#4, Velocity: 64
Note OFF: Time 261360, Note Name: A#4
Note ON: Time 261360, Note Name: C5, Velocity: 70
Note OFF: Time 261480, Note Name: C5
Note ON: Time 261480, Note Name: A#4, Velocity: 64
Note OFF: Time 261600, Note Name: A#4
Note ON: Time 261600, Note Name: D#5, Velocity: 83
Note OFF: Time 261720, Note Name: D#5
Note ON: Time 261840, Note Name: D#4, Velocity: 82
Note OFF: Time 262320, Note Name: D#4
Note ON: Time 262320, Note Name: C#4, Velocity: 80
Note ON: Time 262320, Note Name: G4, Velocity: 80
Note OFF: Time 262440, Note Name: G4
Note OFF: Time 262440, Note Name: C#4
Note ON: Time 262560, Note Name: C4, Velocity: 81
Note ON: Time 262560, Note Name: G#4, Velocity: 81
Note OFF: Time 262680, Note Name: G#4
Note OFF: Time 262680, Note Name: C4
Note ON: Time 262800, Note Name: G4, Velocity: 82
Note ON: Time 262800, Note Name: A#4, Velocity: 82
Note OFF: Time 262920, Note Name: A#4
Note OFF: Time 262920, Note Name: G4
Note ON: Time 263040, Note Name: G#4, Velocity: 83
Note ON: Time 263040, Note Name: C5, Velocity: 83
Note OFF: Time 263160, Note Name: C5
Note OFF: Time 263160, Note Name: G#4
Note ON: Time 263280, Note Name: G#4, Velocity: 85
Note ON: Time 263280, Note Name: D5, Velocity: 85
Note OFF: Time 263400, Note Name: D5
Note OFF: Time 263400, Note Name: G#4
Note ON: Time 263520, Note Name: G4, Velocity: 83
Note ON: Time 263520, Note Name: D#5, Velocity: 83
Note OFF: Time 263640, Note Name: D#5
Note OFF: Time 263640, Note Name: G4
Note ON: Time 263760, Note Name: D#5, Velocity: 82
Note OFF: Time 264240, Note Name: D#5
Note ON: Time 264240, Note Name: C#5, Velocity: 80
Note ON: Time 264240, Note Name: G5, Velocity: 80
Note OFF: Time 264360, Note Name: G5
Note OFF: Time 264360, Note Name: C#5
Note ON: Time 264480, Note Name: C5, Velocity: 81
Note ON: Time 264480, Note Name: G#5, Velocity: 81
Note OFF: Time 264600, Note Name: G#5
Note OFF: Time 264600, Note Name: C5
Note ON: Time 264720, Note Name: G5, Velocity: 82
Note ON: Time 264720, Note Name: A#5, Velocity: 82
Note OFF: Time 264840, Note Name: A#5
Note OFF: Time 264840, Note Name: G5
Note ON: Time 264960, Note Name: G#5, Velocity: 83
Note ON: Time 264960, Note Name: C6, Velocity: 83
Note OFF: Time 265080, Note Name: C6
Note OFF: Time 265080, Note Name: G#5
Note ON: Time 265200, Note Name: G#5, Velocity: 85
Note ON: Time 265200, Note Name: D6, Velocity: 85
Note OFF: Time 265320, Note Name: D6
Note OFF: Time 265320, Note Name: G#5
Note ON: Time 265440, Note Name: D#6, Velocity: 94
Note ON: Time 265440, Note Name: G5, Velocity: 94
Note OFF: Time 266400, Note Name: G5
Note OFF: Time 266400, Note Name: D#6
Note ON: Time 266400, Note Name: G4, Velocity: 88
Note ON: Time 266400, Note Name: D#5, Velocity: 88
Note OFF: Time 267360, Note Name: D#5
Note OFF: Time 267360, Note Name: G4
Note ON: Time 267360, Note Name: D#6, Velocity: 99
Note ON: Time 267360, Note Name: G5, Velocity: 99
Note OFF: Time 268320, Note Name: G5
Note OFF: Time 268320, Note Name: D#6
Note ON: Time 268320, Note Name: G4, Velocity: 92
Note ON: Time 268320, Note Name: D#5, Velocity: 92
Note OFF: Time 269280, Note Name: D#5
Note OFF: Time 269280, Note Name: G4
Note ON: Time 269280, Note Name: D#6, Velocity: 102
Note ON: Time 269280, Note Name: C6, Velocity: 102
Note OFF: Time 270240, Note Name: C6
Note OFF: Time 270240, Note Name: D#6
Note ON: Time 270240, Note Name: C5, Velocity: 96
Note ON: Time 270240, Note Name: D#5, Velocity: 96
Note OFF: Time 271200, Note Name: D#5
Note OFF: Time 271200, Note Name: C5
Note ON: Time 271200, Note Name: C6, Velocity: 93
Note ON: Time 271200, Note Name: A5, Velocity: 93
Note ON: Time 271200, Note Name: D6, Velocity: 93
Note OFF: Time 272160, Note Name: D6
Note OFF: Time 272160, Note Name: A5
Note OFF: Time 272160, Note Name: C6
Note ON: Time 272160, Note Name: A3, Velocity: 86
Note ON: Time 272160, Note Name: C4, Velocity: 102
Note ON: Time 272160, Note Name: D4, Velocity: 102
Note OFF: Time 273120, Note Name: D4
Note OFF: Time 273120, Note Name: C4
Note OFF: Time 273120, Note Name: A3
Note ON: Time 273120, Note Name: G3, Velocity: 87
Note ON: Time 273120, Note Name: A#3, Velocity: 87
Note ON: Time 273120, Note Name: D4, Velocity: 87
Note ON: Time 273120, Note Name: G4, Velocity: 102
Note OFF: Time 274440, Note Name: G4
Note OFF: Time 274440, Note Name: G3
Note OFF: Time 274440, Note Name: A#3
Note OFF: Time 274440, Note Name: D4
Note ON: Time 274440, Note Name: D4, Velocity: 44
Note ON: Time 274440, Note Name: G4, Velocity: 51
Note OFF: Time 274554, Note Name: G4
Note OFF: Time 274554, Note Name: D4
Note ON: Time 274560, Note Name: D4, Velocity: 46
Note ON: Time 274560, Note Name: F#4, Velocity: 46
Note ON: Time 274560, Note Name: A4, Velocity: 55
Note OFF: Time 274920, Note Name: A4
Note OFF: Time 274920, Note Name: F#4
Note OFF: Time 274920, Note Name: D4
Note ON: Time 274920, Note Name: D4, Velocity: 42
Note ON: Time 274920, Note Name: G4, Velocity: 50
Note ON: Time 274920, Note Name: A#4, Velocity: 50
Note OFF: Time 275034, Note Name: A#4
Note OFF: Time 275034, Note Name: G4
Note OFF: Time 275034, Note Name: D4
Note ON: Time 275040, Note Name: E4, Velocity: 46
Note ON: Time 275040, Note Name: G4, Velocity: 55
Note ON: Time 275040, Note Name: A#4, Velocity: 55
Note OFF: Time 276000, Note Name: A#4
Note OFF: Time 276000, Note Name: G4
Note OFF: Time 276000, Note Name: E4
Note ON: Time 276000, Note Name: F#4, Velocity: 31
Note ON: Time 276000, Note Name: A4, Velocity: 39
Note OFF: Time 276480, Note Name: A4
Note OFF: Time 276480, Note Name: F#4
Note ON: Time 276960, Note Name: F#4, Velocity: 87
Note ON: Time 276960, Note Name: A4, Velocity: 87
Note ON: Time 276960, Note Name: C5, Velocity: 100
Note OFF: Time 278280, Note Name: C5
Note OFF: Time 278280, Note Name: A4
Note OFF: Time 278280, Note Name: F#4
Note ON: Time 278280, Note Name: A4, Velocity: 44
Note ON: Time 278280, Note Name: F#4, Velocity: 44
Note ON: Time 278280, Note Name: C5, Velocity: 52
Note OFF: Time 278394, Note Name: C5
Note OFF: Time 278394, Note Name: F#4
Note OFF: Time 278394, Note Name: A4
Note ON: Time 278400, Note Name: F#4, Velocity: 46
Note ON: Time 278400, Note Name: A4, Velocity: 46
Note ON: Time 278400, Note Name: D5, Velocity: 55
Note OFF: Time 278760, Note Name: D5
Note OFF: Time 278760, Note Name: A4
Note OFF: Time 278760, Note Name: F#4
Note ON: Time 278760, Note Name: A4, Velocity: 51
Note ON: Time 278760, Note Name: D#5, Velocity: 51
Note ON: Time 278760, Note Name: F#4, Velocity: 43
Note OFF: Time 278874, Note Name: F#4
Note OFF: Time 278874, Note Name: D#5
Note OFF: Time 278874, Note Name: A4
Note ON: Time 278880, Note Name: D#5, Velocity: 55
Note ON: Time 278880, Note Name: F#4, Velocity: 46
Note ON: Time 278880, Note Name: A4, Velocity: 55
Note OFF: Time 279840, Note Name: A4
Note OFF: Time 279840, Note Name: F#4
Note OFF: Time 279840, Note Name: D#5
Note ON: Time 279840, Note Name: G4, Velocity: 32
Note ON: Time 279840, Note Name: D5, Velocity: 39
Note ON: Time 279840, Note Name: A#4, Velocity: 32
Note OFF: Time 280320, Note Name: A#4
Note OFF: Time 280320, Note Name: D5
Note OFF: Time 280320, Note Name: G4
Note ON: Time 280800, Note Name: F#4, Velocity: 84
Note ON: Time 280800, Note Name: A4, Velocity: 84
Note ON: Time 280800, Note Name: C5, Velocity: 96
Note OFF: Time 282120, Note Name: C5
Note OFF: Time 282120, Note Name: A4
Note OFF: Time 282120, Note Name: F#4
Note ON: Time 282120, Note Name: A4, Velocity: 46
Note ON: Time 282120, Note Name: F#4, Velocity: 46
Note ON: Time 282120, Note Name: C5, Velocity: 55
Note OFF: Time 282234, Note Name: C5
Note OFF: Time 282234, Note Name: F#4
Note OFF: Time 282234, Note Name: A4
Note ON: Time 282240, Note Name: F#4, Velocity: 51
Note ON: Time 282240, Note Name: A4, Velocity: 51
Note ON: Time 282240, Note Name: D5, Velocity: 60
Note OFF: Time 282600, Note Name: D5
Note OFF: Time 282600, Note Name: A4
Note OFF: Time 282600, Note Name: F#4
Note ON: Time 282600, Note Name: A4, Velocity: 63
Note ON: Time 282600, Note Name: D#5, Velocity: 63
Note ON: Time 282600, Note Name: F#4, Velocity: 54
Note OFF: Time 282714, Note Name: F#4
Note OFF: Time 282714, Note Name: D#5
Note OFF: Time 282714, Note Name: A4
Note ON: Time 282720, Note Name: D#5, Velocity: 59
Note ON: Time 282720, Note Name: F#4, Velocity: 50
Note ON: Time 282720, Note Name: A4, Velocity: 50
Note OFF: Time 283680, Note Name: A4
Note OFF: Time 283680, Note Name: F#4
Note OFF: Time 283680, Note Name: D#5
Note ON: Time 283680, Note Name: E4, Velocity: 44
Note ON: Time 283680, Note Name: G4, Velocity: 44
Note ON: Time 283680, Note Name: E5, Velocity: 52
Note OFF: Time 284640, Note Name: E5
Note OFF: Time 284640, Note Name: G4
Note OFF: Time 284640, Note Name: E4
Note ON: Time 284640, Note Name: D#4, Velocity: 39
Note ON: Time 284640, Note Name: F#4, Velocity: 39
Note ON: Time 284640, Note Name: A4, Velocity: 47
Note OFF: Time 285600, Note Name: A4
Note OFF: Time 285600, Note Name: F#4
Note OFF: Time 285600, Note Name: D#4
Note ON: Time 285600, Note Name: B3, Velocity: 35
Note ON: Time 285600, Note Name: E4, Velocity: 35
Note ON: Time 285600, Note Name: G4, Velocity: 43
Note OFF: Time 286560, Note Name: G4
Note OFF: Time 286560, Note Name: E4
Note OFF: Time 286560, Note Name: B3
Note ON: Time 286560, Note Name: A3, Velocity: 33
Note ON: Time 286560, Note Name: C4, Velocity: 33
Note ON: Time 286560, Note Name: D#4, Velocity: 39
Note ON: Time 286560, Note Name: F#4, Velocity: 39
Note OFF: Time 287520, Note Name: F#4
Note OFF: Time 287520, Note Name: A3
Note OFF: Time 287520, Note Name: C4
Note OFF: Time 287520, Note Name: D#4
Note ON: Time 287520, Note Name: F#3, Velocity: 28
Note ON: Time 287520, Note Name: A3, Velocity: 28
Note ON: Time 287520, Note Name: D#4, Velocity: 34
Note OFF: Time 288480, Note Name: D#4
Note OFF: Time 288480, Note Name: A3
Note OFF: Time 288480, Note Name: F#3
Note ON: Time 288480, Note Name: E4, Velocity: 61
Note OFF: Time 288570, Note Name: E4
Note ON: Time 288720, Note Name: A4, Velocity: 55
Note OFF: Time 288810, Note Name: A4
Note ON: Time 288960, Note Name: G4, Velocity: 58
Note OFF: Time 289050, Note Name: G4
Note ON: Time 289200, Note Name: A4, Velocity: 47
Note ON: Time 289200, Note Name: D#5, Velocity: 56
Note OFF: Time 289290, Note Name: D#5
Note OFF: Time 289290, Note Name: A4
Note ON: Time 289440, Note Name: G4, Velocity: 51
Note ON: Time 289440, Note Name: E5, Velocity: 61
Note OFF: Time 289530, Note Name: E5
Note OFF: Time 289530, Note Name: G4
Note ON: Time 289680, Note Name: D#5, Velocity: 56
Note ON: Time 289680, Note Name: A5, Velocity: 66
Note OFF: Time 289770, Note Name: A5
Note OFF: Time 289770, Note Name: D#5
Note ON: Time 289920, Note Name: E5, Velocity: 60
Note ON: Time 289920, Note Name: G5, Velocity: 71
Note OFF: Time 290010, Note Name: G5
Note OFF: Time 290010, Note Name: E5
Note ON: Time 290160, Note Name: A5, Velocity: 62
Note ON: Time 290160, Note Name: D#6, Velocity: 73
Note OFF: Time 290250, Note Name: D#6
Note OFF: Time 290250, Note Name: A5
Note ON: Time 290400, Note Name: G5, Velocity: 68
Note ON: Time 290400, Note Name: E6, Velocity: 80
Note OFF: Time 290640, Note Name: E6
Note OFF: Time 290640, Note Name: G5
Note ON: Time 290880, Note Name: E4, Velocity: 68
Note ON: Time 290880, Note Name: E5, Velocity: 80
Note OFF: Time 291120, Note Name: E5
Note OFF: Time 291120, Note Name: E4
Note ON: Time 291600, Note Name: E4, Velocity: 52
Note ON: Time 291600, Note Name: E5, Velocity: 62
Note OFF: Time 291690, Note Name: E5
Note OFF: Time 291690, Note Name: E4
Note ON: Time 291840, Note Name: F#4, Velocity: 56
Note ON: Time 291840, Note Name: F#5, Velocity: 67
Note OFF: Time 291930, Note Name: F#5
Note OFF: Time 291930, Note Name: F#4
Note ON: Time 292080, Note Name: G4, Velocity: 52
Note ON: Time 292080, Note Name: G5, Velocity: 62
Note OFF: Time 292170, Note Name: G5
Note OFF: Time 292170, Note Name: G4
Note ON: Time 292320, Note Name: G4, Velocity: 56
Note ON: Time 292320, Note Name: G5, Velocity: 66
Note OFF: Time 292800, Note Name: G5
Note OFF: Time 292800, Note Name: G4
Note ON: Time 292800, Note Name: F#4, Velocity: 52
Note ON: Time 292800, Note Name: F#5, Velocity: 62
Note OFF: Time 293040, Note Name: F#5
Note OFF: Time 293040, Note Name: F#4
Note ON: Time 293520, Note Name: F#4, Velocity: 52
Note ON: Time 293520, Note Name: F#5, Velocity: 62
Note OFF: Time 293610, Note Name: F#5
Note OFF: Time 293610, Note Name: F#4
Note ON: Time 293760, Note Name: G4, Velocity: 56
Note ON: Time 293760, Note Name: G5, Velocity: 67
Note OFF: Time 293850, Note Name: G5
Note OFF: Time 293850, Note Name: G4
Note ON: Time 294000, Note Name: A4, Velocity: 52
Note ON: Time 294000, Note Name: A5, Velocity: 62
Note OFF: Time 294090, Note Name: A5
Note OFF: Time 294090, Note Name: A4
Note ON: Time 294240, Note Name: A4, Velocity: 52
Note ON: Time 294240, Note Name: A5, Velocity: 62
Note OFF: Time 294330, Note Name: A5
Note OFF: Time 294330, Note Name: A4
Note ON: Time 294480, Note Name: G4, Velocity: 55
Note OFF: Time 294570, Note Name: G4
Note ON: Time 294720, Note Name: F#4, Velocity: 58
Note OFF: Time 294810, Note Name: F#4
Note ON: Time 294960, Note Name: G4, Velocity: 47
Note ON: Time 294960, Note Name: C#5, Velocity: 56
Note OFF: Time 295050, Note Name: C#5
Note OFF: Time 295050, Note Name: G4
Note ON: Time 295200, Note Name: F#4, Velocity: 51
Note ON: Time 295200, Note Name: D5, Velocity: 61
Note OFF: Time 295290, Note Name: D5
Note OFF: Time 295290, Note Name: F#4
Note ON: Time 295440, Note Name: C#5, Velocity: 56
Note ON: Time 295440, Note Name: G5, Velocity: 66
Note OFF: Time 295530, Note Name: G5
Note OFF: Time 295530, Note Name: C#5
Note ON: Time 295680, Note Name: D5, Velocity: 60
Note ON: Time 295680, Note Name: F#5, Velocity: 71
Note OFF: Time 295770, Note Name: F#5
Note OFF: Time 295770, Note Name: D5
Note ON: Time 295920, Note Name: G5, Velocity: 62
Note ON: Time 295920, Note Name: C#6, Velocity: 73
Note OFF: Time 296010, Note Name: C#6
Note OFF: Time 296010, Note Name: G5
Note ON: Time 296160, Note Name: F#5, Velocity: 68
Note ON: Time 296160, Note Name: D6, Velocity: 80
Note OFF: Time 296400, Note Name: D6
Note OFF: Time 296400, Note Name: F#5
Note ON: Time 296640, Note Name: F#4, Velocity: 68
Note ON: Time 296640, Note Name: F#5, Velocity: 80
Note OFF: Time 296880, Note Name: F#5
Note OFF: Time 296880, Note Name: F#4
Note ON: Time 297360, Note Name: F#4, Velocity: 52
Note ON: Time 297360, Note Name: F#5, Velocity: 62
Note OFF: Time 297450, Note Name: F#5
Note OFF: Time 297450, Note Name: F#4
Note ON: Time 297600, Note Name: G4, Velocity: 56
Note ON: Time 297600, Note Name: G5, Velocity: 67
Note OFF: Time 297690, Note Name: G5
Note OFF: Time 297690, Note Name: G4
Note ON: Time 297840, Note Name: A4, Velocity: 52
Note ON: Time 297840, Note Name: A5, Velocity: 62
Note OFF: Time 297930, Note Name: A5
Note OFF: Time 297930, Note Name: A4
Note ON: Time 298080, Note Name: A4, Velocity: 56
Note ON: Time 298080, Note Name: A5, Velocity: 66
Note OFF: Time 298560, Note Name: A5
Note OFF: Time 298560, Note Name: A4
Note ON: Time 298560, Note Name: G4, Velocity: 52
Note ON: Time 298560, Note Name: G5, Velocity: 62
Note OFF: Time 298800, Note Name: G5
Note OFF: Time 298800, Note Name: G4
Note ON: Time 299280, Note Name: G4, Velocity: 52
Note ON: Time 299280, Note Name: G5, Velocity: 62
Note OFF: Time 299370, Note Name: G5
Note OFF: Time 299370, Note Name: G4
Note ON: Time 299520, Note Name: A4, Velocity: 56
Note ON: Time 299520, Note Name: A5, Velocity: 67
Note OFF: Time 299610, Note Name: A5
Note OFF: Time 299610, Note Name: A4
Note ON: Time 299760, Note Name: A#4, Velocity: 52
Note ON: Time 299760, Note Name: A#5, Velocity: 62
Note OFF: Time 299850, Note Name: A#5
Note OFF: Time 299850, Note Name: A#4
Note ON: Time 300000, Note Name: A#4, Velocity: 58
Note ON: Time 300120, Note Name: A#5, Velocity: 52
Note OFF: Time 300228, Note Name: A#4
Note OFF: Time 300240, Note Name: A#5
Note ON: Time 300240, Note Name: A#4, Velocity: 58
Note ON: Time 300360, Note Name: A#5, Velocity: 53
Note OFF: Time 300468, Note Name: A#4
Note OFF: Time 300480, Note Name: A#5
Note ON: Time 300480, Note Name: A#4, Velocity: 58
Note ON: Time 300600, Note Name: A#5, Velocity: 52
Note OFF: Time 300708, Note Name: A#4
Note OFF: Time 300720, Note Name: A#5
Note ON: Time 300720, Note Name: A#4, Velocity: 58
Note ON: Time 300840, Note Name: A#5, Velocity: 52
Note OFF: Time 300948, Note Name: A#4
Note OFF: Time 300960, Note Name: A#5
Note ON: Time 300960, Note Name: A#4, Velocity: 58
Note ON: Time 301080, Note Name: A#5, Velocity: 52
Note OFF: Time 301188, Note Name: A#4
Note OFF: Time 301200, Note Name: A#5
Note ON: Time 301200, Note Name: A#4, Velocity: 58
Note ON: Time 301320, Note Name: A#5, Velocity: 53
Note OFF: Time 301428, Note Name: A#4
Note OFF: Time 301440, Note Name: A#5
Note ON: Time 301440, Note Name: A#4, Velocity: 58
Note ON: Time 301560, Note Name: A#5, Velocity: 52
Note OFF: Time 301668, Note Name: A#4
Note OFF: Time 301680, Note Name: A#5
Note ON: Time 301680, Note Name: A#4, Velocity: 58
Note ON: Time 301800, Note Name: A#5, Velocity: 52
Note OFF: Time 301908, Note Name: A#4
Note OFF: Time 301920, Note Name: A#5
Note ON: Time 301920, Note Name: A#4, Velocity: 58
Note ON: Time 302040, Note Name: A#5, Velocity: 52
Note OFF: Time 302148, Note Name: A#4
Note OFF: Time 302160, Note Name: A#5
Note ON: Time 302160, Note Name: A#4, Velocity: 58
Note ON: Time 302280, Note Name: A#5, Velocity: 53
Note OFF: Time 302388, Note Name: A#4
Note OFF: Time 302400, Note Name: A#5
Note ON: Time 302400, Note Name: A#4, Velocity: 58
Note ON: Time 302520, Note Name: A#5, Velocity: 52
Note OFF: Time 302628, Note Name: A#4
Note OFF: Time 302640, Note Name: A#5
Note ON: Time 302640, Note Name: A#4, Velocity: 58
Note ON: Time 302760, Note Name: A#5, Velocity: 52
Note OFF: Time 302868, Note Name: A#4
Note OFF: Time 302880, Note Name: A#5
Note ON: Time 302880, Note Name: A#4, Velocity: 58
Note ON: Time 303000, Note Name: A#5, Velocity: 52
Note OFF: Time 303108, Note Name: A#4
Note OFF: Time 303120, Note Name: A#5
Note ON: Time 303120, Note Name: A#4, Velocity: 58
Note ON: Time 303240, Note Name: A#5, Velocity: 53
Note OFF: Time 303348, Note Name: A#4
Note OFF: Time 303360, Note Name: A#5
Note ON: Time 303360, Note Name: A#4, Velocity: 58
Note ON: Time 303480, Note Name: A#5, Velocity: 52
Note OFF: Time 303588, Note Name: A#4
Note OFF: Time 303600, Note Name: A#5
Note ON: Time 303600, Note Name: A#4, Velocity: 58
Note ON: Time 303720, Note Name: A#5, Velocity: 52
Note OFF: Time 303828, Note Name: A#4
Note OFF: Time 303840, Note Name: A#5
Note ON: Time 303840, Note Name: A4, Velocity: 58
Note ON: Time 303960, Note Name: A5, Velocity: 52
Note OFF: Time 304068, Note Name: A4
Note OFF: Time 304080, Note Name: A5
Note ON: Time 304080, Note Name: A4, Velocity: 58
Note ON: Time 304200, Note Name: A5, Velocity: 53
Note OFF: Time 304308, Note Name: A4
Note OFF: Time 304320, Note Name: A5
Note ON: Time 304320, Note Name: A4, Velocity: 58
Note ON: Time 304440, Note Name: A5, Velocity: 52
Note OFF: Time 304548, Note Name: A4
Note OFF: Time 304560, Note Name: A5
Note ON: Time 304560, Note Name: A4, Velocity: 58
Note ON: Time 304680, Note Name: A5, Velocity: 52
Note OFF: Time 304788, Note Name: A4
Note OFF: Time 304800, Note Name: A5
Note ON: Time 304800, Note Name: A4, Velocity: 58
Note ON: Time 304920, Note Name: A5, Velocity: 52
Note OFF: Time 305028, Note Name: A4
Note OFF: Time 305040, Note Name: A5
Note ON: Time 305040, Note Name: A4, Velocity: 58
Note ON: Time 305160, Note Name: A5, Velocity: 53
Note OFF: Time 305268, Note Name: A4
Note OFF: Time 305280, Note Name: A5
Note ON: Time 305280, Note Name: A4, Velocity: 58
Note ON: Time 305400, Note Name: A5, Velocity: 52
Note OFF: Time 305508, Note Name: A4
Note OFF: Time 305520, Note Name: A5
Note ON: Time 305520, Note Name: A4, Velocity: 58
Note ON: Time 305640, Note Name: A5, Velocity: 52
Note OFF: Time 305748, Note Name: A4
Note OFF: Time 305760, Note Name: A5
Note ON: Time 305760, Note Name: A4, Velocity: 58
Note ON: Time 305880, Note Name: A5, Velocity: 52
Note OFF: Time 305988, Note Name: A4
Note OFF: Time 306000, Note Name: A5
Note ON: Time 306000, Note Name: A4, Velocity: 58
Note ON: Time 306120, Note Name: A5, Velocity: 53
Note OFF: Time 306228, Note Name: A4
Note OFF: Time 306240, Note Name: A5
Note ON: Time 306240, Note Name: A4, Velocity: 58
Note ON: Time 306360, Note Name: A5, Velocity: 52
Note OFF: Time 306468, Note Name: A4
Note OFF: Time 306480, Note Name: A5
Note ON: Time 306480, Note Name: A4, Velocity: 58
Note ON: Time 306600, Note Name: A5, Velocity: 52
Note OFF: Time 306708, Note Name: A4
Note OFF: Time 306720, Note Name: A5
Note ON: Time 306720, Note Name: A4, Velocity: 58
Note ON: Time 306840, Note Name: A5, Velocity: 52
Note OFF: Time 306948, Note Name: A4
Note OFF: Time 306960, Note Name: A5
Note ON: Time 306960, Note Name: A4, Velocity: 58
Note ON: Time 307080, Note Name: A5, Velocity: 53
Note OFF: Time 307188, Note Name: A4
Note OFF: Time 307200, Note Name: A5
Note ON: Time 307200, Note Name: A4, Velocity: 58
Note ON: Time 307320, Note Name: A5, Velocity: 52
Note OFF: Time 307428, Note Name: A4
Note OFF: Time 307440, Note Name: A5
Note ON: Time 307440, Note Name: A4, Velocity: 58
Note ON: Time 307560, Note Name: A5, Velocity: 52
Note OFF: Time 307668, Note Name: A4
Note OFF: Time 307680, Note Name: A5
Note ON: Time 307680, Note Name: G#4, Velocity: 58
Note ON: Time 307800, Note Name: G#5, Velocity: 52
Note OFF: Time 307908, Note Name: G#4
Note OFF: Time 307920, Note Name: G#5
Note ON: Time 307920, Note Name: G#4, Velocity: 58
Note ON: Time 308040, Note Name: G#5, Velocity: 53
Note OFF: Time 308148, Note Name: G#4
Note OFF: Time 308160, Note Name: G#5
Note ON: Time 308160, Note Name: G#4, Velocity: 58
Note ON: Time 308280, Note Name: G#5, Velocity: 52
Note OFF: Time 308388, Note Name: G#4
Note OFF: Time 308400, Note Name: G#5
Note ON: Time 308400, Note Name: G#4, Velocity: 58
Note ON: Time 308520, Note Name: G#5, Velocity: 52
Note OFF: Time 308628, Note Name: G#4
Note OFF: Time 308640, Note Name: G#5
Note ON: Time 308640, Note Name: G#4, Velocity: 58
Note ON: Time 308760, Note Name: G#5, Velocity: 52
Note OFF: Time 308868, Note Name: G#4
Note OFF: Time 308880, Note Name: G#5
Note ON: Time 308880, Note Name: G#4, Velocity: 58
Note ON: Time 309000, Note Name: G#5, Velocity: 53
Note OFF: Time 309108, Note Name: G#4
Note OFF: Time 309120, Note Name: G#5
Note ON: Time 309120, Note Name: G#4, Velocity: 58
Note ON: Time 309240, Note Name: G#5, Velocity: 52
Note OFF: Time 309348, Note Name: G#4
Note OFF: Time 309360, Note Name: G#5
Note ON: Time 309360, Note Name: G#4, Velocity: 58
Note ON: Time 309480, Note Name: G#5, Velocity: 52
Note OFF: Time 309588, Note Name: G#4
Note OFF: Time 309600, Note Name: G#5
Note ON: Time 309600, Note Name: G#4, Velocity: 58
Note ON: Time 309720, Note Name: G#5, Velocity: 52
Note OFF: Time 309828, Note Name: G#4
Note OFF: Time 309840, Note Name: G#5
Note ON: Time 309840, Note Name: G#4, Velocity: 58
Note ON: Time 309960, Note Name: G#5, Velocity: 53
Note OFF: Time 310068, Note Name: G#4
Note OFF: Time 310080, Note Name: G#5
Note ON: Time 310080, Note Name: G#4, Velocity: 58
Note ON: Time 310200, Note Name: G#5, Velocity: 52
Note OFF: Time 310308, Note Name: G#4
Note OFF: Time 310320, Note Name: G#5
Note ON: Time 310320, Note Name: G#4, Velocity: 58
Note ON: Time 310440, Note Name: G#5, Velocity: 52
Note OFF: Time 310548, Note Name: G#4
Note OFF: Time 310560, Note Name: G#5
Note ON: Time 310560, Note Name: G#4, Velocity: 58
Note ON: Time 310680, Note Name: G#5, Velocity: 54
Note OFF: Time 310788, Note Name: G#4
Note OFF: Time 310800, Note Name: G#5
Note ON: Time 310800, Note Name: G4, Velocity: 58
Note ON: Time 310920, Note Name: G5, Velocity: 54
Note OFF: Time 311028, Note Name: G4
Note OFF: Time 311040, Note Name: G5
Note ON: Time 311040, Note Name: G4, Velocity: 58
Note ON: Time 311160, Note Name: G5, Velocity: 54
Note OFF: Time 311268, Note Name: G4
Note OFF: Time 311280, Note Name: G5
Note ON: Time 311280, Note Name: F4, Velocity: 58
Note ON: Time 311400, Note Name: F5, Velocity: 54
Note OFF: Time 311508, Note Name: F4
Note OFF: Time 311520, Note Name: F5
Note ON: Time 311520, Note Name: F4, Velocity: 56
Note ON: Time 311640, Note Name: F5, Velocity: 56
Note OFF: Time 311748, Note Name: F4
Note OFF: Time 311760, Note Name: F5
Note ON: Time 311760, Note Name: E4, Velocity: 56
Note ON: Time 311880, Note Name: E5, Velocity: 56
Note OFF: Time 311988, Note Name: E4
Note OFF: Time 312000, Note Name: E5
Note ON: Time 312000, Note Name: E4, Velocity: 55
Note ON: Time 312120, Note Name: E5, Velocity: 55
Note OFF: Time 312228, Note Name: E4
Note OFF: Time 312240, Note Name: E5
Note ON: Time 312240, Note Name: C#4, Velocity: 55
Note ON: Time 312360, Note Name: C#5, Velocity: 55
Note OFF: Time 312468, Note Name: C#4
Note OFF: Time 312480, Note Name: C#5
Note ON: Time 312480, Note Name: C#4, Velocity: 54
Note ON: Time 312600, Note Name: C#5, Velocity: 51
Note OFF: Time 312708, Note Name: C#4
Note OFF: Time 312720, Note Name: C#5
Note ON: Time 312720, Note Name: C4, Velocity: 54
Note ON: Time 312840, Note Name: C5, Velocity: 51
Note OFF: Time 312948, Note Name: C4
Note OFF: Time 312960, Note Name: C5
Note ON: Time 312960, Note Name: C4, Velocity: 53
Note ON: Time 313080, Note Name: C5, Velocity: 50
Note OFF: Time 313188, Note Name: C4
Note OFF: Time 313200, Note Name: C5
Note ON: Time 313200, Note Name: A#3, Velocity: 53
Note ON: Time 313320, Note Name: A#4, Velocity: 49
Note OFF: Time 313428, Note Name: A#3
Note OFF: Time 313440, Note Name: A#4
Note ON: Time 313440, Note Name: A#3, Velocity: 53
Note ON: Time 313560, Note Name: A#4, Velocity: 51
Note OFF: Time 313668, Note Name: A#3
Note OFF: Time 313680, Note Name: A#4
Note ON: Time 313680, Note Name: G#3, Velocity: 53
Note ON: Time 313800, Note Name: G#4, Velocity: 50
Note OFF: Time 313908, Note Name: G#3
Note OFF: Time 313920, Note Name: G#4
Note ON: Time 313920, Note Name: G#3, Velocity: 53
Note ON: Time 314040, Note Name: G#4, Velocity: 50
Note OFF: Time 314148, Note Name: G#3
Note OFF: Time 314160, Note Name: G#4
Note ON: Time 314160, Note Name: G3, Velocity: 53
Note ON: Time 314280, Note Name: G4, Velocity: 49
Note OFF: Time 314388, Note Name: G3
Note OFF: Time 314400, Note Name: G4
Note ON: Time 314400, Note Name: G3, Velocity: 53
Note ON: Time 314520, Note Name: G4, Velocity: 53
Note OFF: Time 314628, Note Name: G3
Note OFF: Time 314640, Note Name: G4
Note ON: Time 314640, Note Name: F3, Velocity: 53
Note ON: Time 314760, Note Name: F4, Velocity: 48
Note OFF: Time 314868, Note Name: F3
Note OFF: Time 314880, Note Name: F4
Note ON: Time 314880, Note Name: F3, Velocity: 53
Note ON: Time 315000, Note Name: F4, Velocity: 49
Note OFF: Time 315108, Note Name: F3
Note OFF: Time 315120, Note Name: F4
Note ON: Time 315120, Note Name: D#3, Velocity: 53
Note ON: Time 315240, Note Name: D#4, Velocity: 49
Note OFF: Time 315348, Note Name: D#3
Note OFF: Time 315360, Note Name: D#4
Note ON: Time 315360, Note Name: D#3, Velocity: 53
Note ON: Time 315480, Note Name: D#4, Velocity: 49
Note OFF: Time 315588, Note Name: D#3
Note OFF: Time 315600, Note Name: D#4
Note ON: Time 315600, Note Name: D3, Velocity: 53
Note ON: Time 315720, Note Name: D4, Velocity: 49
Note OFF: Time 315828, Note Name: D3
Note OFF: Time 315840, Note Name: D4
Note ON: Time 315840, Note Name: D3, Velocity: 53
Note ON: Time 315960, Note Name: D4, Velocity: 49
Note OFF: Time 316068, Note Name: D3
Note OFF: Time 316080, Note Name: D4
Note ON: Time 316080, Note Name: D#3, Velocity: 53
Note ON: Time 316200, Note Name: D#4, Velocity: 48
Note OFF: Time 316308, Note Name: D#3
Note OFF: Time 316320, Note Name: D#4
Note ON: Time 316320, Note Name: D#3, Velocity: 53
Note ON: Time 316440, Note Name: D#4, Velocity: 49
Note OFF: Time 316548, Note Name: D#3
Note OFF: Time 316560, Note Name: D#4
Note ON: Time 316560, Note Name: D3, Velocity: 53
Note ON: Time 316680, Note Name: D4, Velocity: 49
Note OFF: Time 316788, Note Name: D3
Note OFF: Time 316800, Note Name: D4
Note ON: Time 316800, Note Name: D3, Velocity: 53
Note ON: Time 316920, Note Name: D4, Velocity: 49
Note OFF: Time 317028, Note Name: D3
Note OFF: Time 317040, Note Name: D4
Note ON: Time 317040, Note Name: C3, Velocity: 53
Note ON: Time 317160, Note Name: C4, Velocity: 49
Note OFF: Time 317268, Note Name: C3
Note OFF: Time 317280, Note Name: C4
Note ON: Time 317280, Note Name: B2, Velocity: 53
Note ON: Time 317280, Note Name: B3, Velocity: 53
Note OFF: Time 317520, Note Name: B3
Note OFF: Time 317520, Note Name: B2
Note ON: Time 317760, Note Name: C#3, Velocity: 40
Note OFF: Time 317880, Note Name: C#3
Note ON: Time 317880, Note Name: G#3, Velocity: 34
Note OFF: Time 318000, Note Name: G#3
Note ON: Time 318000, Note Name: E3, Velocity: 34
Note OFF: Time 318120, Note Name: E3
Note ON: Time 318120, Note Name: C#3, Velocity: 34
Note OFF: Time 318240, Note Name: C#3
Note ON: Time 318240, Note Name: D3, Velocity: 41
Note OFF: Time 318360, Note Name: D3
Note ON: Time 318360, Note Name: G#3, Velocity: 34
Note OFF: Time 318480, Note Name: G#3
Note ON: Time 318480, Note Name: F3, Velocity: 34
Note OFF: Time 318600, Note Name: F3
Note ON: Time 318600, Note Name: D3, Velocity: 34
Note OFF: Time 318720, Note Name: D3
Note ON: Time 318720, Note Name: C3, Velocity: 41
Note OFF: Time 318840, Note Name: C3
Note ON: Time 318840, Note Name: G#3, Velocity: 34
Note OFF: Time 318960, Note Name: G#3
Note ON: Time 318960, Note Name: D#3, Velocity: 34
Note OFF: Time 319080, Note Name: D#3
Note ON: Time 319080, Note Name: C3, Velocity: 34
Note OFF: Time 319200, Note Name: C3
Note ON: Time 319200, Note Name: B2, Velocity: 40
Note OFF: Time 319320, Note Name: B2
Note ON: Time 319320, Note Name: G3, Velocity: 34
Note OFF: Time 319440, Note Name: G3
Note ON: Time 319440, Note Name: D3, Velocity: 34
Note OFF: Time 319560, Note Name: D3
Note ON: Time 319560, Note Name: B2, Velocity: 34
Note OFF: Time 319680, Note Name: B2
Note ON: Time 319680, Note Name: C#3, Velocity: 40
Note OFF: Time 319800, Note Name: C#3
Note ON: Time 319800, Note Name: G#3, Velocity: 34
Note OFF: Time 319920, Note Name: G#3
Note ON: Time 319920, Note Name: E3, Velocity: 34
Note OFF: Time 320040, Note Name: E3
Note ON: Time 320040, Note Name: C#3, Velocity: 34
Note OFF: Time 320160, Note Name: C#3
Note ON: Time 320160, Note Name: D3, Velocity: 40
Note OFF: Time 320280, Note Name: D3
Note ON: Time 320280, Note Name: G#3, Velocity: 34
Note OFF: Time 320400, Note Name: G#3
Note ON: Time 320400, Note Name: F3, Velocity: 34
Note OFF: Time 320520, Note Name: F3
Note ON: Time 320520, Note Name: D3, Velocity: 34
Note OFF: Time 320640, Note Name: D3
Note ON: Time 320640, Note Name: C3, Velocity: 39
Note OFF: Time 320760, Note Name: C3
Note ON: Time 320760, Note Name: G#3, Velocity: 34
Note OFF: Time 320880, Note Name: G#3
Note ON: Time 320880, Note Name: D#3, Velocity: 34
Note OFF: Time 321000, Note Name: D#3
Note ON: Time 321000, Note Name: C3, Velocity: 34
Note OFF: Time 321120, Note Name: C3
Note ON: Time 321120, Note Name: B2, Velocity: 34
Note ON: Time 321120, Note Name: D3, Velocity: 34
Note ON: Time 321120, Note Name: G3, Velocity: 34
Note OFF: Time 321360, Note Name: G3
Note OFF: Time 321360, Note Name: D3
Note OFF: Time 321360, Note Name: B2
Note ON: Time 321360, Note Name: E4, Velocity: 55
Note OFF: Time 321450, Note Name: E4
Note ON: Time 321600, Note Name: F4, Velocity: 58
Note OFF: Time 321690, Note Name: F4
Note ON: Time 321840, Note Name: E4, Velocity: 47
Note ON: Time 321840, Note Name: C#5, Velocity: 56
Note OFF: Time 321930, Note Name: C#5
Note OFF: Time 321930, Note Name: E4
Note ON: Time 322080, Note Name: F4, Velocity: 51
Note ON: Time 322080, Note Name: D5, Velocity: 61
Note OFF: Time 322170, Note Name: D5
Note OFF: Time 322170, Note Name: F4
Note ON: Time 322320, Note Name: C#5, Velocity: 56
Note ON: Time 322320, Note Name: E5, Velocity: 66
Note OFF: Time 322410, Note Name: E5
Note OFF: Time 322410, Note Name: C#5
Note ON: Time 322560, Note Name: D5, Velocity: 60
Note ON: Time 322560, Note Name: F5, Velocity: 71
Note OFF: Time 322650, Note Name: F5
Note OFF: Time 322650, Note Name: D5
Note ON: Time 322800, Note Name: E5, Velocity: 62
Note ON: Time 322800, Note Name: C#6, Velocity: 73
Note OFF: Time 322890, Note Name: C#6
Note OFF: Time 322890, Note Name: E5
Note ON: Time 323040, Note Name: F5, Velocity: 62
Note ON: Time 323040, Note Name: D6, Velocity: 73
Note OFF: Time 323130, Note Name: D6
Note OFF: Time 323130, Note Name: F5
Note ON: Time 323280, Note Name: C#6, Velocity: 77
Note ON: Time 323280, Note Name: E6, Velocity: 77
Note OFF: Time 323370, Note Name: E6
Note OFF: Time 323370, Note Name: C#6
Note ON: Time 323520, Note Name: D6, Velocity: 82
Note ON: Time 323520, Note Name: F6, Velocity: 82
Note OFF: Time 324480, Note Name: F6
Note OFF: Time 324480, Note Name: D6
Note ON: Time 324480, Note Name: C6, Velocity: 58
Note ON: Time 324480, Note Name: D#6, Velocity: 58
Note OFF: Time 324540, Note Name: D#6
Note ON: Time 324540, Note Name: F6, Velocity: 54
Note OFF: Time 324600, Note Name: F6
Note ON: Time 324600, Note Name: D#6, Velocity: 54
Note OFF: Time 324660, Note Name: D#6
Note ON: Time 324660, Note Name: F6, Velocity: 54
Note OFF: Time 324720, Note Name: F6
Note ON: Time 324720, Note Name: D#6, Velocity: 59
Note OFF: Time 324780, Note Name: D#6
Note ON: Time 324780, Note Name: F6, Velocity: 54
Note OFF: Time 324840, Note Name: F6
Note ON: Time 324840, Note Name: D#6, Velocity: 54
Note OFF: Time 324900, Note Name: D#6
Note ON: Time 324900, Note Name: F6, Velocity: 54
Note OFF: Time 324960, Note Name: F6
Note OFF: Time 324960, Note Name: C6
Note ON: Time 324960, Note Name: B5, Velocity: 59
Note ON: Time 324960, Note Name: D6, Velocity: 59
Note OFF: Time 325200, Note Name: D6
Note OFF: Time 325200, Note Name: B5
Note ON: Time 325440, Note Name: C#3, Velocity: 40
Note OFF: Time 325560, Note Name: C#3
Note ON: Time 325560, Note Name: G#3, Velocity: 34
Note OFF: Time 325680, Note Name: G#3
Note ON: Time 325680, Note Name: E3, Velocity: 34
Note OFF: Time 325800, Note Name: E3
Note ON: Time 325800, Note Name: C#3, Velocity: 34
Note OFF: Time 325920, Note Name: C#3
Note ON: Time 325920, Note Name: D3, Velocity: 41
Note OFF: Time 326040, Note Name: D3
Note ON: Time 326040, Note Name: G#3, Velocity: 34
Note OFF: Time 326160, Note Name: G#3
Note ON: Time 326160, Note Name: F3, Velocity: 34
Note OFF: Time 326280, Note Name: F3
Note ON: Time 326280, Note Name: D3, Velocity: 34
Note OFF: Time 326400, Note Name: D3
Note ON: Time 326400, Note Name: C3, Velocity: 41
Note OFF: Time 326520, Note Name: C3
Note ON: Time 326520, Note Name: G#3, Velocity: 34
Note OFF: Time 326640, Note Name: G#3
Note ON: Time 326640, Note Name: D#3, Velocity: 34
Note OFF: Time 326760, Note Name: D#3
Note ON: Time 326760, Note Name: C3, Velocity: 34
Note OFF: Time 326880, Note Name: C3
Note ON: Time 326880, Note Name: B2, Velocity: 40
Note OFF: Time 327000, Note Name: B2
Note ON: Time 327000, Note Name: G3, Velocity: 34
Note OFF: Time 327120, Note Name: G3
Note ON: Time 327120, Note Name: D3, Velocity: 34
Note OFF: Time 327240, Note Name: D3
Note ON: Time 327240, Note Name: B2, Velocity: 34
Note OFF: Time 327360, Note Name: B2
Note ON: Time 327360, Note Name: C#3, Velocity: 40
Note OFF: Time 327480, Note Name: C#3
Note ON: Time 327480, Note Name: G#3, Velocity: 34
Note OFF: Time 327600, Note Name: G#3
Note ON: Time 327600, Note Name: E3, Velocity: 34
Note OFF: Time 327720, Note Name: E3
Note ON: Time 327720, Note Name: C#3, Velocity: 34
Note OFF: Time 327840, Note Name: C#3
Note ON: Time 327840, Note Name: D3, Velocity: 40
Note OFF: Time 327960, Note Name: D3
Note ON: Time 327960, Note Name: G#3, Velocity: 34
Note OFF: Time 328080, Note Name: G#3
Note ON: Time 328080, Note Name: F3, Velocity: 34
Note OFF: Time 328200, Note Name: F3
Note ON: Time 328200, Note Name: D3, Velocity: 34
Note OFF: Time 328320, Note Name: D3
Note ON: Time 328320, Note Name: C3, Velocity: 39
Note OFF: Time 328440, Note Name: C3
Note ON: Time 328440, Note Name: G#3, Velocity: 34
Note OFF: Time 328560, Note Name: G#3
Note ON: Time 328560, Note Name: D#3, Velocity: 34
Note OFF: Time 328680, Note Name: D#3
Note ON: Time 328680, Note Name: C3, Velocity: 34
Note OFF: Time 328800, Note Name: C3
Note ON: Time 328800, Note Name: B2, Velocity: 34
Note ON: Time 328800, Note Name: D3, Velocity: 34
Note ON: Time 328800, Note Name: G3, Velocity: 34
Note OFF: Time 329040, Note Name: G3
Note OFF: Time 329040, Note Name: D3
Note OFF: Time 329040, Note Name: B2
Note ON: Time 329040, Note Name: E4, Velocity: 55
Note OFF: Time 329130, Note Name: E4
Note ON: Time 329280, Note Name: F4, Velocity: 58
Note OFF: Time 329370, Note Name: F4
Note ON: Time 329520, Note Name: E4, Velocity: 47
Note ON: Time 329520, Note Name: C#5, Velocity: 56
Note OFF: Time 329610, Note Name: C#5
Note OFF: Time 329610, Note Name: E4
Note ON: Time 329760, Note Name: F4, Velocity: 51
Note ON: Time 329760, Note Name: D5, Velocity: 61
Note OFF: Time 329850, Note Name: D5
Note OFF: Time 329850, Note Name: F4
Note ON: Time 330000, Note Name: C#5, Velocity: 56
Note ON: Time 330000, Note Name: E5, Velocity: 66
Note OFF: Time 330090, Note Name: E5
Note OFF: Time 330090, Note Name: C#5
Note ON: Time 330240, Note Name: D5, Velocity: 60
Note ON: Time 330240, Note Name: F5, Velocity: 71
Note OFF: Time 330330, Note Name: F5
Note OFF: Time 330330, Note Name: D5
Note ON: Time 330480, Note Name: E5, Velocity: 62
Note ON: Time 330480, Note Name: C#6, Velocity: 73
Note OFF: Time 330570, Note Name: C#6
Note OFF: Time 330570, Note Name: E5
Note ON: Time 330720, Note Name: F5, Velocity: 62
Note ON: Time 330720, Note Name: D6, Velocity: 73
Note OFF: Time 330810, Note Name: D6
Note OFF: Time 330810, Note Name: F5
Note ON: Time 330960, Note Name: C#6, Velocity: 77
Note ON: Time 330960, Note Name: E6, Velocity: 77
Note OFF: Time 331050, Note Name: E6
Note OFF: Time 331050, Note Name: C#6
Note ON: Time 331200, Note Name: D6, Velocity: 82
Note ON: Time 331200, Note Name: F6, Velocity: 82
Note OFF: Time 332160, Note Name: F6
Note OFF: Time 332160, Note Name: D6
Note ON: Time 332160, Note Name: C6, Velocity: 58
Note ON: Time 332160, Note Name: D#6, Velocity: 58
Note OFF: Time 332220, Note Name: D#6
Note ON: Time 332220, Note Name: F6, Velocity: 54
Note OFF: Time 332280, Note Name: F6
Note ON: Time 332280, Note Name: D#6, Velocity: 54
Note OFF: Time 332340, Note Name: D#6
Note ON: Time 332340, Note Name: F6, Velocity: 54
Note OFF: Time 332400, Note Name: F6
Note ON: Time 332400, Note Name: D#6, Velocity: 59
Note OFF: Time 332440, Note Name: D#6
Note ON: Time 332440, Note Name: F6, Velocity: 54
Note OFF: Time 332480, Note Name: F6
Note ON: Time 332480, Note Name: D#6, Velocity: 54
Note OFF: Time 332520, Note Name: D#6
Note ON: Time 332520, Note Name: D6, Velocity: 54
Note OFF: Time 332580, Note Name: D6
Note ON: Time 332580, Note Name: D#6, Velocity: 54
Note OFF: Time 332640, Note Name: D#6
Note OFF: Time 332640, Note Name: C6
Note ON: Time 332640, Note Name: B5, Velocity: 62
Note ON: Time 332640, Note Name: D6, Velocity: 73
Note OFF: Time 332730, Note Name: D6
Note OFF: Time 332730, Note Name: B5
Note ON: Time 332880, Note Name: C#6, Velocity: 77
Note ON: Time 332880, Note Name: E6, Velocity: 77
Note OFF: Time 332970, Note Name: E6
Note OFF: Time 332970, Note Name: C#6
Note ON: Time 333120, Note Name: D6, Velocity: 82
Note ON: Time 333120, Note Name: F6, Velocity: 82
Note OFF: Time 334080, Note Name: F6
Note OFF: Time 334080, Note Name: D6
Note ON: Time 334080, Note Name: C6, Velocity: 58
Note ON: Time 334080, Note Name: D#6, Velocity: 58
Note OFF: Time 334140, Note Name: D#6
Note ON: Time 334140, Note Name: F6, Velocity: 54
Note OFF: Time 334200, Note Name: F6
Note ON: Time 334200, Note Name: D#6, Velocity: 54
Note OFF: Time 334260, Note Name: D#6
Note ON: Time 334260, Note Name: F6, Velocity: 54
Note OFF: Time 334320, Note Name: F6
Note ON: Time 334320, Note Name: D#6, Velocity: 59
Note OFF: Time 334360, Note Name: D#6
Note ON: Time 334360, Note Name: F6, Velocity: 54
Note OFF: Time 334400, Note Name: F6
Note ON: Time 334400, Note Name: D#6, Velocity: 54
Note OFF: Time 334440, Note Name: D#6
Note ON: Time 334440, Note Name: D6, Velocity: 54
Note OFF: Time 334500, Note Name: D6
Note ON: Time 334500, Note Name: D#6, Velocity: 54
Note OFF: Time 334560, Note Name: D#6
Note OFF: Time 334560, Note Name: C6
Note ON: Time 334560, Note Name: B5, Velocity: 62
Note ON: Time 334560, Note Name: D6, Velocity: 73
Note OFF: Time 334650, Note Name: D6
Note OFF: Time 334650, Note Name: B5
Note ON: Time 334800, Note Name: C#6, Velocity: 77
Note ON: Time 334800, Note Name: E6, Velocity: 77
Note OFF: Time 334890, Note Name: E6
Note OFF: Time 334890, Note Name: C#6
Note ON: Time 335040, Note Name: D6, Velocity: 82
Note ON: Time 335040, Note Name: F6, Velocity: 82
Note OFF: Time 336000, Note Name: F6
Note OFF: Time 336000, Note Name: D6
Note ON: Time 336000, Note Name: C6, Velocity: 58
Note ON: Time 336000, Note Name: D#6, Velocity: 58
Note OFF: Time 336060, Note Name: D#6
Note ON: Time 336060, Note Name: F6, Velocity: 54
Note OFF: Time 336120, Note Name: F6
Note ON: Time 336120, Note Name: D#6, Velocity: 54
Note OFF: Time 336180, Note Name: D#6
Note ON: Time 336180, Note Name: F6, Velocity: 54
Note OFF: Time 336240, Note Name: F6
Note ON: Time 336240, Note Name: D#6, Velocity: 59
Note OFF: Time 336280, Note Name: D#6
Note ON: Time 336280, Note Name: F6, Velocity: 54
Note OFF: Time 336320, Note Name: F6
Note ON: Time 336320, Note Name: D#6, Velocity: 54
Note OFF: Time 336360, Note Name: D#6
Note ON: Time 336360, Note Name: D6, Velocity: 54
Note OFF: Time 336420, Note Name: D6
Note ON: Time 336420, Note Name: D#6, Velocity: 54
Note OFF: Time 336480, Note Name: D#6
Note OFF: Time 336480, Note Name: C6
Note ON: Time 336480, Note Name: B5, Velocity: 58
Note ON: Time 336480, Note Name: D6, Velocity: 58
Note OFF: Time 336600, Note Name: D6
Note OFF: Time 336600, Note Name: B5
Note ON: Time 336600, Note Name: F6, Velocity: 53
Note OFF: Time 336720, Note Name: F6
Note ON: Time 336720, Note Name: D6, Velocity: 54
Note OFF: Time 336840, Note Name: D6
Note ON: Time 336840, Note Name: C6, Velocity: 54
Note OFF: Time 336960, Note Name: C6
Note ON: Time 336960, Note Name: B5, Velocity: 58
Note OFF: Time 337080, Note Name: B5
Note ON: Time 337080, Note Name: F6, Velocity: 53
Note OFF: Time 337200, Note Name: F6
Note ON: Time 337200, Note Name: D6, Velocity: 53
Note OFF: Time 337320, Note Name: D6
Note ON: Time 337320, Note Name: C6, Velocity: 53
Note OFF: Time 337440, Note Name: C6
Note ON: Time 337440, Note Name: B5, Velocity: 58
Note OFF: Time 337560, Note Name: B5
Note ON: Time 337560, Note Name: F6, Velocity: 55
Note OFF: Time 337680, Note Name: F6
Note ON: Time 337680, Note Name: D6, Velocity: 55
Note OFF: Time 337800, Note Name: D6
Note ON: Time 337800, Note Name: C6, Velocity: 55
Note OFF: Time 337920, Note Name: C6
Note ON: Time 337920, Note Name: B5, Velocity: 58
Note OFF: Time 338040, Note Name: B5
Note ON: Time 338040, Note Name: D6, Velocity: 55
Note OFF: Time 338160, Note Name: D6
Note ON: Time 338160, Note Name: B5, Velocity: 55
Note OFF: Time 338280, Note Name: B5
Note ON: Time 338280, Note Name: G5, Velocity: 55
Note OFF: Time 338400, Note Name: G5
Note ON: Time 338400, Note Name: G#5, Velocity: 58
Note OFF: Time 338520, Note Name: G#5
Note ON: Time 338520, Note Name: A#5, Velocity: 55
Note OFF: Time 338640, Note Name: A#5
Note ON: Time 338640, Note Name: G#5, Velocity: 55
Note OFF: Time 338760, Note Name: G#5
Note ON: Time 338760, Note Name: G5, Velocity: 55
Note OFF: Time 338880, Note Name: G5
Note ON: Time 338880, Note Name: F5, Velocity: 58
Note OFF: Time 339000, Note Name: F5
Note ON: Time 339000, Note Name: G#5, Velocity: 55
Note OFF: Time 339120, Note Name: G#5
Note ON: Time 339120, Note Name: F5, Velocity: 55
Note OFF: Time 339240, Note Name: F5
Note ON: Time 339240, Note Name: D#5, Velocity: 55
Note OFF: Time 339360, Note Name: D#5
Note ON: Time 339360, Note Name: D5, Velocity: 58
Note OFF: Time 339480, Note Name: D5
Note ON: Time 339480, Note Name: F5, Velocity: 54
Note OFF: Time 339600, Note Name: F5
Note ON: Time 339600, Note Name: D5, Velocity: 54
Note OFF: Time 339720, Note Name: D5
Note ON: Time 339720, Note Name: C5, Velocity: 54
Note OFF: Time 339840, Note Name: C5
Note ON: Time 339840, Note Name: B4, Velocity: 58
Note OFF: Time 339960, Note Name: B4
Note ON: Time 339960, Note Name: D5, Velocity: 54
Note OFF: Time 340080, Note Name: D5
Note ON: Time 340080, Note Name: B4, Velocity: 54
Note OFF: Time 340200, Note Name: B4
Note ON: Time 340200, Note Name: G4, Velocity: 54
Note OFF: Time 340320, Note Name: G4
Note ON: Time 340320, Note Name: G#4, Velocity: 58
Note OFF: Time 340440, Note Name: G#4
Note ON: Time 340440, Note Name: A#4, Velocity: 55
Note OFF: Time 340560, Note Name: A#4
Note ON: Time 340560, Note Name: G#4, Velocity: 55
Note OFF: Time 340680, Note Name: G#4
Note ON: Time 340680, Note Name: G4, Velocity: 55
Note OFF: Time 340800, Note Name: G4
Note ON: Time 340800, Note Name: F4, Velocity: 58
Note OFF: Time 340920, Note Name: F4
Note ON: Time 340920, Note Name: G#4, Velocity: 58
Note OFF: Time 341040, Note Name: G#4
Note ON: Time 341040, Note Name: F4, Velocity: 55
Note OFF: Time 341160, Note Name: F4
Note ON: Time 341160, Note Name: D#4, Velocity: 55
Note OFF: Time 341280, Note Name: D#4
Note ON: Time 341280, Note Name: D4, Velocity: 58
Note OFF: Time 341400, Note Name: D4
Note ON: Time 341400, Note Name: F4, Velocity: 55
Note OFF: Time 341520, Note Name: F4
Note ON: Time 341520, Note Name: D4, Velocity: 55
Note OFF: Time 341640, Note Name: D4
Note ON: Time 341640, Note Name: C4, Velocity: 55
Note OFF: Time 341760, Note Name: C4
Note ON: Time 341760, Note Name: B3, Velocity: 58
Note OFF: Time 341880, Note Name: B3
Note ON: Time 341880, Note Name: D4, Velocity: 55
Note OFF: Time 342000, Note Name: D4
Note ON: Time 342000, Note Name: B3, Velocity: 55
Note OFF: Time 342120, Note Name: B3
Note ON: Time 342120, Note Name: G3, Velocity: 55
Note OFF: Time 342240, Note Name: G3
Note ON: Time 342240, Note Name: G#3, Velocity: 58
Note OFF: Time 342360, Note Name: G#3
Note ON: Time 342360, Note Name: A#3, Velocity: 54
Note OFF: Time 342480, Note Name: A#3
Note ON: Time 342480, Note Name: G#3, Velocity: 54
Note OFF: Time 342600, Note Name: G#3
Note ON: Time 342600, Note Name: G3, Velocity: 54
Note OFF: Time 342720, Note Name: G3
Note ON: Time 342720, Note Name: F3, Velocity: 58
Note OFF: Time 342840, Note Name: F3
Note ON: Time 342840, Note Name: D#3, Velocity: 53
Note OFF: Time 342960, Note Name: D#3
Note ON: Time 342960, Note Name: D3, Velocity: 53
Note OFF: Time 343080, Note Name: D3
Note ON: Time 343080, Note Name: C3, Velocity: 53
Note OFF: Time 343200, Note Name: C3
Note ON: Time 343200, Note Name: B2, Velocity: 58
Note OFF: Time 343320, Note Name: B2
Note ON: Time 343320, Note Name: C3, Velocity: 55
Note OFF: Time 343440, Note Name: C3
Note ON: Time 343440, Note Name: B2, Velocity: 55
Note OFF: Time 343560, Note Name: B2
Note ON: Time 343560, Note Name: G#2, Velocity: 56
Note OFF: Time 343680, Note Name: G#2
Note ON: Time 343680, Note Name: G2, Velocity: 58
Note OFF: Time 343800, Note Name: G2
Note ON: Time 343800, Note Name: F2, Velocity: 55
Note OFF: Time 343920, Note Name: F2
Note ON: Time 343920, Note Name: D#2, Velocity: 55
Note OFF: Time 344040, Note Name: D#2
Note ON: Time 344040, Note Name: D2, Velocity: 55
Note OFF: Time 344160, Note Name: D2
Note ON: Time 344160, Note Name: C4, Velocity: 50
Note OFF: Time 344880, Note Name: C4
Note ON: Time 344880, Note Name: A#3, Velocity: 52
Note ON: Time 344880, Note Name: E4, Velocity: 52
Note OFF: Time 344970, Note Name: E4
Note OFF: Time 344970, Note Name: A#3
Note ON: Time 345120, Note Name: G#3, Velocity: 54
Note ON: Time 345120, Note Name: F4, Velocity: 54
Note OFF: Time 345210, Note Name: F4
Note OFF: Time 345210, Note Name: G#3
Note ON: Time 345360, Note Name: E4, Velocity: 56
Note ON: Time 345360, Note Name: G4, Velocity: 56
Note OFF: Time 345450, Note Name: G4
Note OFF: Time 345450, Note Name: E4
Note ON: Time 345600, Note Name: F4, Velocity: 57
Note ON: Time 345600, Note Name: G#4, Velocity: 57
Note OFF: Time 345690, Note Name: G#4
Note OFF: Time 345690, Note Name: F4
Note ON: Time 345840, Note Name: D4, Velocity: 59
Note ON: Time 345840, Note Name: B4, Velocity: 59
Note OFF: Time 345930, Note Name: B4
Note OFF: Time 345930, Note Name: D4
Note ON: Time 346080, Note Name: D#4, Velocity: 61
Note ON: Time 346080, Note Name: C5, Velocity: 61
Note OFF: Time 346170, Note Name: C5
Note OFF: Time 346170, Note Name: D#4
Note ON: Time 346320, Note Name: E4, Velocity: 55
Note ON: Time 346320, Note Name: C5, Velocity: 55
Note OFF: Time 346800, Note Name: C5
Note OFF: Time 346800, Note Name: E4
Note ON: Time 346800, Note Name: A#4, Velocity: 51
Note ON: Time 346800, Note Name: E5, Velocity: 51
Note OFF: Time 346890, Note Name: E5
Note OFF: Time 346890, Note Name: A#4
Note ON: Time 347040, Note Name: G#4, Velocity: 53
Note ON: Time 347040, Note Name: F5, Velocity: 53
Note OFF: Time 347130, Note Name: F5
Note OFF: Time 347130, Note Name: G#4
Note ON: Time 347280, Note Name: E5, Velocity: 55
Note ON: Time 347280, Note Name: G5, Velocity: 55
Note OFF: Time 347370, Note Name: G5
Note OFF: Time 347370, Note Name: E5
Note ON: Time 347520, Note Name: F5, Velocity: 57
Note ON: Time 347520, Note Name: G#5, Velocity: 57
Note OFF: Time 347610, Note Name: G#5
Note OFF: Time 347610, Note Name: F5
Note ON: Time 347760, Note Name: D5, Velocity: 59
Note ON: Time 347760, Note Name: B5, Velocity: 59
Note OFF: Time 347850, Note Name: B5
Note OFF: Time 347850, Note Name: D5
Note ON: Time 348000, Note Name: C5, Velocity: 51
Note ON: Time 348000, Note Name: G5, Velocity: 61
Note ON: Time 348000, Note Name: D#5, Velocity: 51
Note ON: Time 348000, Note Name: C6, Velocity: 61
Note OFF: Time 348480, Note Name: C6
Note OFF: Time 348480, Note Name: C5
Note OFF: Time 348480, Note Name: G5
Note OFF: Time 348480, Note Name: D#5
Note ON: Time 348480, Note Name: G4, Velocity: 53
Note ON: Time 348480, Note Name: B4, Velocity: 53
Note ON: Time 348480, Note Name: F5, Velocity: 63
Note ON: Time 348480, Note Name: G5, Velocity: 63
Note OFF: Time 348960, Note Name: G5
Note OFF: Time 348960, Note Name: G4
Note OFF: Time 348960, Note Name: B4
Note OFF: Time 348960, Note Name: F5
Note ON: Time 348960, Note Name: G4, Velocity: 56
Note ON: Time 348960, Note Name: C5, Velocity: 56
Note ON: Time 348960, Note Name: D#5, Velocity: 67
Note OFF: Time 349440, Note Name: D#5
Note OFF: Time 349440, Note Name: C5
Note OFF: Time 349440, Note Name: G4
Note ON: Time 349440, Note Name: F4, Velocity: 60
Note ON: Time 349440, Note Name: G#4, Velocity: 60
Note ON: Time 349440, Note Name: D5, Velocity: 71
Note OFF: Time 349920, Note Name: D5
Note OFF: Time 349920, Note Name: G#4
Note OFF: Time 349920, Note Name: F4
Note ON: Time 349920, Note Name: D#4, Velocity: 62
Note ON: Time 349920, Note Name: G4, Velocity: 74
Note ON: Time 349920, Note Name: C5, Velocity: 74
Note OFF: Time 350400, Note Name: G4
Note ON: Time 350400, Note Name: F#4, Velocity: 74
Note OFF: Time 350880, Note Name: F#4
Note ON: Time 350880, Note Name: A4, Velocity: 77
Note OFF: Time 351360, Note Name: A4
Note OFF: Time 351360, Note Name: C5
Note OFF: Time 351360, Note Name: D#4
Note ON: Time 351360, Note Name: D4, Velocity: 62
Note ON: Time 351360, Note Name: F4, Velocity: 62
Note ON: Time 351360, Note Name: B4, Velocity: 74
Note OFF: Time 351840, Note Name: B4
Note OFF: Time 351840, Note Name: F4
Note OFF: Time 351840, Note Name: D4
Note ON: Time 351840, Note Name: C4, Velocity: 67
Note ON: Time 351840, Note Name: D#4, Velocity: 67
Note ON: Time 351840, Note Name: C5, Velocity: 79
Note OFF: Time 351930, Note Name: C5
Note OFF: Time 351930, Note Name: D#4
Note OFF: Time 351930, Note Name: C4
Note ON: Time 352080, Note Name: C4, Velocity: 67
Note OFF: Time 352560, Note Name: C4
Note ON: Time 352560, Note Name: A#3, Velocity: 52
Note ON: Time 352560, Note Name: E4, Velocity: 52
Note OFF: Time 352650, Note Name: E4
Note OFF: Time 352650, Note Name: A#3
Note ON: Time 352800, Note Name: G#3, Velocity: 54
Note ON: Time 352800, Note Name: F4, Velocity: 54
Note OFF: Time 352890, Note Name: F4
Note OFF: Time 352890, Note Name: G#3
Note ON: Time 353040, Note Name: E4, Velocity: 55
Note ON: Time 353040, Note Name: G4, Velocity: 55
Note OFF: Time 353130, Note Name: G4
Note OFF: Time 353130, Note Name: E4
Note ON: Time 353280, Note Name: F4, Velocity: 57
Note ON: Time 353280, Note Name: G#4, Velocity: 57
Note OFF: Time 353370, Note Name: G#4
Note OFF: Time 353370, Note Name: F4
Note ON: Time 353520, Note Name: D4, Velocity: 59
Note ON: Time 353520, Note Name: B4, Velocity: 59
Note OFF: Time 353610, Note Name: B4
Note OFF: Time 353610, Note Name: D4
Note ON: Time 353760, Note Name: D#4, Velocity: 61
Note ON: Time 353760, Note Name: C5, Velocity: 61
Note OFF: Time 353850, Note Name: C5
Note OFF: Time 353850, Note Name: D#4
Note ON: Time 354000, Note Name: E4, Velocity: 55
Note ON: Time 354000, Note Name: C5, Velocity: 55
Note OFF: Time 354480, Note Name: C5
Note OFF: Time 354480, Note Name: E4
Note ON: Time 354480, Note Name: A#4, Velocity: 51
Note ON: Time 354480, Note Name: E5, Velocity: 51
Note OFF: Time 354570, Note Name: E5
Note OFF: Time 354570, Note Name: A#4
Note ON: Time 354720, Note Name: G#4, Velocity: 53
Note ON: Time 354720, Note Name: F5, Velocity: 53
Note OFF: Time 354810, Note Name: F5
Note OFF: Time 354810, Note Name: G#4
Note ON: Time 354960, Note Name: E5, Velocity: 55
Note ON: Time 354960, Note Name: G5, Velocity: 55
Note OFF: Time 355050, Note Name: G5
Note OFF: Time 355050, Note Name: E5
Note ON: Time 355200, Note Name: F5, Velocity: 57
Note ON: Time 355200, Note Name: G#5, Velocity: 57
Note OFF: Time 355290, Note Name: G#5
Note OFF: Time 355290, Note Name: F5
Note ON: Time 355440, Note Name: D5, Velocity: 59
Note ON: Time 355440, Note Name: B5, Velocity: 59
Note OFF: Time 355530, Note Name: B5
Note OFF: Time 355530, Note Name: D5
Note ON: Time 355680, Note Name: C5, Velocity: 51
Note ON: Time 355680, Note Name: G5, Velocity: 61
Note ON: Time 355680, Note Name: D#5, Velocity: 51
Note ON: Time 355680, Note Name: C6, Velocity: 61
Note OFF: Time 356160, Note Name: C6
Note OFF: Time 356160, Note Name: C5
Note OFF: Time 356160, Note Name: G5
Note OFF: Time 356160, Note Name: D#5
Note ON: Time 356160, Note Name: G#4, Velocity: 53
Note ON: Time 356160, Note Name: D#5, Velocity: 63
Note ON: Time 356160, Note Name: G#5, Velocity: 63
Note OFF: Time 356640, Note Name: G#5
Note OFF: Time 356640, Note Name: D#5
Note OFF: Time 356640, Note Name: G#4
Note ON: Time 356640, Note Name: G#4, Velocity: 56
Note ON: Time 356640, Note Name: C#5, Velocity: 56
Note ON: Time 356640, Note Name: F5, Velocity: 67
Note OFF: Time 357120, Note Name: F5
Note OFF: Time 357120, Note Name: C#5
Note OFF: Time 357120, Note Name: G#4
Note ON: Time 357120, Note Name: F#4, Velocity: 60
Note ON: Time 357120, Note Name: C5, Velocity: 60
Note ON: Time 357120, Note Name: D#5, Velocity: 71
Note OFF: Time 357600, Note Name: D#5
Note OFF: Time 357600, Note Name: C5
Note OFF: Time 357600, Note Name: F#4
Note ON: Time 357600, Note Name: F4, Velocity: 62
Note ON: Time 357600, Note Name: G#4, Velocity: 74
Note ON: Time 357600, Note Name: C#5, Velocity: 74
Note OFF: Time 358080, Note Name: C#5
Note OFF: Time 358080, Note Name: G#4
Note OFF: Time 358080, Note Name: F4
Note ON: Time 358080, Note Name: A#4, Velocity: 74
Note ON: Time 358080, Note Name: F#4, Velocity: 74
Note ON: Time 358080, Note Name: C#4, Velocity: 74
Note OFF: Time 358560, Note Name: C#4
Note OFF: Time 358560, Note Name: F#4
Note OFF: Time 358560, Note Name: A#4
Note ON: Time 358560, Note Name: C#4, Velocity: 74
Note ON: Time 358560, Note Name: F4, Velocity: 74
Note ON: Time 358560, Note Name: G#4, Velocity: 77
Note OFF: Time 359040, Note Name: F4
Note OFF: Time 359040, Note Name: C#4
Note ON: Time 359040, Note Name: C4, Velocity: 74
Note ON: Time 359040, Note Name: D#4, Velocity: 74
Note OFF: Time 359520, Note Name: D#4
Note OFF: Time 359520, Note Name: C4
Note OFF: Time 359520, Note Name: G#4
Note ON: Time 359520, Note Name: D4, Velocity: 51
Note ON: Time 359520, Note Name: F4, Velocity: 51
Note ON: Time 359520, Note Name: A#4, Velocity: 61
Note OFF: Time 360000, Note Name: A#4
Note OFF: Time 360000, Note Name: F4
Note OFF: Time 360000, Note Name: D4
Note ON: Time 360000, Note Name: A#4, Velocity: 53
Note ON: Time 360000, Note Name: F5, Velocity: 63
Note ON: Time 360000, Note Name: A#5, Velocity: 63
Note OFF: Time 360480, Note Name: A#5
Note OFF: Time 360480, Note Name: F5
Note OFF: Time 360480, Note Name: A#4
Note ON: Time 360480, Note Name: A#4, Velocity: 56
Note ON: Time 360480, Note Name: D#5, Velocity: 56
Note ON: Time 360480, Note Name: F#5, Velocity: 67
Note OFF: Time 360960, Note Name: F#5
Note OFF: Time 360960, Note Name: D#5
Note OFF: Time 360960, Note Name: A#4
Note ON: Time 360960, Note Name: G#4, Velocity: 60
Note ON: Time 360960, Note Name: D5, Velocity: 60
Note ON: Time 360960, Note Name: F5, Velocity: 71
Note OFF: Time 361440, Note Name: F5
Note OFF: Time 361440, Note Name: D5
Note OFF: Time 361440, Note Name: G#4
Note ON: Time 361440, Note Name: F#4, Velocity: 62
Note ON: Time 361440, Note Name: A#4, Velocity: 74
Note ON: Time 361440, Note Name: D#5, Velocity: 74
Note OFF: Time 361920, Note Name: D#5
Note OFF: Time 361920, Note Name: A#4
Note OFF: Time 361920, Note Name: F#4
Note ON: Time 361920, Note Name: D#4, Velocity: 74
Note ON: Time 361920, Note Name: B4, Velocity: 74
Note ON: Time 361920, Note Name: G#4, Velocity: 74
Note OFF: Time 362400, Note Name: G#4
Note OFF: Time 362400, Note Name: B4
Note OFF: Time 362400, Note Name: D#4
Note ON: Time 362400, Note Name: D#4, Velocity: 74
Note ON: Time 362400, Note Name: F#4, Velocity: 74
Note ON: Time 362400, Note Name: A#4, Velocity: 77
Note OFF: Time 362880, Note Name: F#4
Note OFF: Time 362880, Note Name: D#4
Note ON: Time 362880, Note Name: D4, Velocity: 74
Note ON: Time 362880, Note Name: F4, Velocity: 74
Note OFF: Time 363360, Note Name: F4
Note OFF: Time 363360, Note Name: D4
Note OFF: Time 363360, Note Name: A#4
Note ON: Time 363360, Note Name: E4, Velocity: 51
Note ON: Time 363360, Note Name: G4, Velocity: 51
Note ON: Time 363360, Note Name: C5, Velocity: 61
Note OFF: Time 363840, Note Name: C5
Note OFF: Time 363840, Note Name: G4
Note OFF: Time 363840, Note Name: E4
Note ON: Time 363840, Note Name: C5, Velocity: 53
Note ON: Time 363840, Note Name: G5, Velocity: 63
Note ON: Time 363840, Note Name: C6, Velocity: 63
Note OFF: Time 364320, Note Name: C6
Note OFF: Time 364320, Note Name: G5
Note OFF: Time 364320, Note Name: C5
Note ON: Time 364320, Note Name: C5, Velocity: 56
Note ON: Time 364320, Note Name: F5, Velocity: 56
Note ON: Time 364320, Note Name: G#5, Velocity: 67
Note OFF: Time 364800, Note Name: G#5
Note OFF: Time 364800, Note Name: F5
Note OFF: Time 364800, Note Name: C5
Note ON: Time 364800, Note Name: A#4, Velocity: 60
Note ON: Time 364800, Note Name: E5, Velocity: 60
Note ON: Time 364800, Note Name: G5, Velocity: 71
Note OFF: Time 365280, Note Name: G5
Note OFF: Time 365280, Note Name: E5
Note OFF: Time 365280, Note Name: A#4
Note ON: Time 365280, Note Name: G#4, Velocity: 62
Note ON: Time 365280, Note Name: C5, Velocity: 74
Note ON: Time 365280, Note Name: F5, Velocity: 74
Note OFF: Time 365760, Note Name: F5
Note OFF: Time 365760, Note Name: C5
Note OFF: Time 365760, Note Name: G#4
Note ON: Time 365760, Note Name: C#5, Velocity: 74
Note ON: Time 365760, Note Name: F4, Velocity: 74
Note OFF: Time 366240, Note Name: F4
Note OFF: Time 366240, Note Name: C#5
Note ON: Time 366240, Note Name: F4, Velocity: 74
Note ON: Time 366240, Note Name: C5, Velocity: 77
Note OFF: Time 366720, Note Name: C5
Note OFF: Time 366720, Note Name: F4
Note ON: Time 366720, Note Name: F4, Velocity: 74
Note ON: Time 366720, Note Name: B4, Velocity: 74
Note OFF: Time 367200, Note Name: B4
Note OFF: Time 367200, Note Name: F4
Note ON: Time 367200, Note Name: E4, Velocity: 65
Note ON: Time 367200, Note Name: C5, Velocity: 73
Note OFF: Time 367440, Note Name: C5
Note OFF: Time 367440, Note Name: E4
Note ON: Time 367440, Note Name: B3, Velocity: 50
Note OFF: Time 367680, Note Name: B3
Note ON: Time 367680, Note Name: C4, Velocity: 59
Note OFF: Time 367920, Note Name: C4
Note ON: Time 367920, Note Name: B3, Velocity: 56
Note OFF: Time 368160, Note Name: B3
Note ON: Time 368160, Note Name: C4, Velocity: 57
Note OFF: Time 368400, Note Name: C4
Note ON: Time 368400, Note Name: B3, Velocity: 49
Note OFF: Time 368640, Note Name: B3
Note ON: Time 368640, Note Name: C4, Velocity: 57
Note OFF: Time 368880, Note Name: C4
Note ON: Time 368880, Note Name: B3, Velocity: 51
Note OFF: Time 369120, Note Name: B3
Note ON: Time 369360, Note Name: C3, Velocity: 55
Note OFF: Time 369480, Note Name: C3
Note ON: Time 369600, Note Name: F3, Velocity: 58
Note OFF: Time 369720, Note Name: F3
Note ON: Time 369840, Note Name: G3, Velocity: 61
Note OFF: Time 369960, Note Name: G3
Note ON: Time 370080, Note Name: G#3, Velocity: 64
Note OFF: Time 370200, Note Name: G#3
Note ON: Time 370320, Note Name: C5, Velocity: 62
Note OFF: Time 370440, Note Name: C5
Note ON: Time 370560, Note Name: F5, Velocity: 64
Note OFF: Time 370680, Note Name: F5
Note ON: Time 370800, Note Name: G5, Velocity: 66
Note OFF: Time 370920, Note Name: G5
Note ON: Time 370980, Note Name: C5, Velocity: 65
Note OFF: Time 371040, Note Name: C5
Note ON: Time 371040, Note Name: G#5, Velocity: 75
Note OFF: Time 371760, Note Name: G#5
Note ON: Time 371760, Note Name: F5, Velocity: 63
Note ON: Time 371940, Note Name: C5, Velocity: 60
Note OFF: Time 372000, Note Name: C5
Note OFF: Time 372000, Note Name: F5
Note ON: Time 372000, Note Name: G#5, Velocity: 71
Note OFF: Time 372720, Note Name: G#5
Note ON: Time 372720, Note Name: F5, Velocity: 58
Note OFF: Time 372960, Note Name: F5
Note ON: Time 372960, Note Name: E5, Velocity: 60
Note OFF: Time 373200, Note Name: E5
Note ON: Time 373200, Note Name: C3, Velocity: 57
Note OFF: Time 373320, Note Name: C3
Note ON: Time 373440, Note Name: G3, Velocity: 60
Note OFF: Time 373560, Note Name: G3
Note ON: Time 373680, Note Name: G#3, Velocity: 63
Note OFF: Time 373800, Note Name: G#3
Note ON: Time 373920, Note Name: A#3, Velocity: 66
Note OFF: Time 374040, Note Name: A#3
Note ON: Time 374160, Note Name: C5, Velocity: 59
Note OFF: Time 374400, Note Name: C5
Note ON: Time 374400, Note Name: A#5, Velocity: 62
Note OFF: Time 374640, Note Name: A#5
Note ON: Time 374640, Note Name: G#5, Velocity: 65
Note OFF: Time 374880, Note Name: G#5
Note ON: Time 374880, Note Name: G#5, Velocity: 60
Note OFF: Time 374940, Note Name: G#5
Note ON: Time 374940, Note Name: A#5, Velocity: 60
Note OFF: Time 375000, Note Name: A#5
Note ON: Time 375000, Note Name: G#5, Velocity: 67
Note OFF: Time 375120, Note Name: G#5
Note ON: Time 375120, Note Name: G5, Velocity: 60
Note OFF: Time 375360, Note Name: G5
Note ON: Time 375360, Note Name: G5, Velocity: 60
Note OFF: Time 375420, Note Name: G5
Note ON: Time 375420, Note Name: G#5, Velocity: 60
Note OFF: Time 375480, Note Name: G#5
Note ON: Time 375480, Note Name: G5, Velocity: 67
Note OFF: Time 375600, Note Name: G5
Note ON: Time 375600, Note Name: F5, Velocity: 60
Note OFF: Time 375840, Note Name: F5
Note ON: Time 375840, Note Name: F5, Velocity: 60
Note OFF: Time 375900, Note Name: F5
Note ON: Time 375900, Note Name: G5, Velocity: 60
Note OFF: Time 375960, Note Name: G5
Note ON: Time 375960, Note Name: F5, Velocity: 66
Note OFF: Time 376080, Note Name: F5
Note ON: Time 376080, Note Name: E5, Velocity: 60
Note OFF: Time 376320, Note Name: E5
Note ON: Time 376320, Note Name: D5, Velocity: 60
Note OFF: Time 376440, Note Name: D5
Note ON: Time 376560, Note Name: E5, Velocity: 60
Note OFF: Time 376680, Note Name: E5
Note ON: Time 376800, Note Name: F5, Velocity: 60
Note OFF: Time 377040, Note Name: F5
Note ON: Time 377040, Note Name: C3, Velocity: 55
Note OFF: Time 377160, Note Name: C3
Note ON: Time 377280, Note Name: F3, Velocity: 58
Note OFF: Time 377400, Note Name: F3
Note ON: Time 377520, Note Name: G3, Velocity: 61
Note OFF: Time 377640, Note Name: G3
Note ON: Time 377760, Note Name: G#3, Velocity: 64
Note OFF: Time 377880, Note Name: G#3
Note ON: Time 378000, Note Name: C5, Velocity: 62
Note OFF: Time 378120, Note Name: C5
Note ON: Time 378240, Note Name: F5, Velocity: 64
Note OFF: Time 378360, Note Name: F5
Note ON: Time 378480, Note Name: G#5, Velocity: 66
Note OFF: Time 378600, Note Name: G#5
Note ON: Time 378660, Note Name: C5, Velocity: 65
Note OFF: Time 378720, Note Name: C5
Note ON: Time 378720, Note Name: C6, Velocity: 75
Note OFF: Time 379440, Note Name: C6
Note ON: Time 379440, Note Name: F5, Velocity: 63
Note OFF: Time 379600, Note Name: F5
Note ON: Time 379620, Note Name: F5, Velocity: 60
Note OFF: Time 379680, Note Name: F5
Note ON: Time 379680, Note Name: F6, Velocity: 71
Note OFF: Time 380400, Note Name: F6
Note ON: Time 380400, Note Name: C6, Velocity: 58
Note OFF: Time 380640, Note Name: C6
Note ON: Time 380640, Note Name: B5, Velocity: 60
Note OFF: Time 380880, Note Name: B5
Note ON: Time 380880, Note Name: G2, Velocity: 57
Note OFF: Time 381000, Note Name: G2
Note ON: Time 381120, Note Name: D3, Velocity: 60
Note OFF: Time 381240, Note Name: D3
Note ON: Time 381360, Note Name: D#3, Velocity: 63
Note OFF: Time 381480, Note Name: D#3
Note ON: Time 381600, Note Name: F3, Velocity: 66
Note OFF: Time 381720, Note Name: F3
Note ON: Time 381840, Note Name: G4, Velocity: 59
Note OFF: Time 382080, Note Name: G4
Note ON: Time 382080, Note Name: F5, Velocity: 62
Note OFF: Time 382320, Note Name: F5
Note ON: Time 382320, Note Name: D#5, Velocity: 65
Note OFF: Time 382560, Note Name: D#5
Note ON: Time 382560, Note Name: D#5, Velocity: 60
Note OFF: Time 382620, Note Name: D#5
Note ON: Time 382620, Note Name: F5, Velocity: 60
Note OFF: Time 382680, Note Name: F5
Note ON: Time 382680, Note Name: D#5, Velocity: 67
Note OFF: Time 382800, Note Name: D#5
Note ON: Time 382800, Note Name: D5, Velocity: 60
Note OFF: Time 383040, Note Name: D5
Note ON: Time 383040, Note Name: D5, Velocity: 60
Note OFF: Time 383100, Note Name: D5
Note ON: Time 383100, Note Name: D#5, Velocity: 60
Note OFF: Time 383160, Note Name: D#5
Note ON: Time 383160, Note Name: D5, Velocity: 67
Note OFF: Time 383280, Note Name: D5
Note ON: Time 383280, Note Name: C5, Velocity: 60
Note OFF: Time 383520, Note Name: C5
Note ON: Time 383520, Note Name: C5, Velocity: 60
Note OFF: Time 383580, Note Name: C5
Note ON: Time 383580, Note Name: D5, Velocity: 60
Note OFF: Time 383640, Note Name: D5
Note ON: Time 383640, Note Name: C5, Velocity: 66
Note OFF: Time 383760, Note Name: C5
Note ON: Time 383760, Note Name: B4, Velocity: 60
Note OFF: Time 384000, Note Name: B4
Note ON: Time 384000, Note Name: A4, Velocity: 60
Note OFF: Time 384120, Note Name: A4
Note ON: Time 384240, Note Name: B4, Velocity: 60
Note OFF: Time 384360, Note Name: B4
Note ON: Time 384480, Note Name: C5, Velocity: 60
Note OFF: Time 384720, Note Name: C5
Note ON: Time 384720, Note Name: G2, Velocity: 55
Note OFF: Time 384840, Note Name: G2
Note ON: Time 384960, Note Name: C3, Velocity: 58
Note OFF: Time 385080, Note Name: C3
Note ON: Time 385200, Note Name: D3, Velocity: 61
Note OFF: Time 385320, Note Name: D3
Note ON: Time 385440, Note Name: D#3, Velocity: 64
Note OFF: Time 385560, Note Name: D#3
Note ON: Time 385680, Note Name: G5, Velocity: 62
Note OFF: Time 385800, Note Name: G5
Note ON: Time 385920, Note Name: C6, Velocity: 64
Note OFF: Time 386040, Note Name: C6
Note ON: Time 386160, Note Name: D6, Velocity: 66
Note OFF: Time 386280, Note Name: D6
Note ON: Time 386340, Note Name: G5, Velocity: 65
Note OFF: Time 386400, Note Name: G5
Note ON: Time 386400, Note Name: D#6, Velocity: 75
Note OFF: Time 387120, Note Name: D#6
Note ON: Time 387120, Note Name: C6, Velocity: 63
Note ON: Time 387300, Note Name: G5, Velocity: 60
Note OFF: Time 387360, Note Name: G5
Note OFF: Time 387360, Note Name: C6
Note ON: Time 387360, Note Name: D#6, Velocity: 71
Note OFF: Time 388080, Note Name: D#6
Note ON: Time 388080, Note Name: C6, Velocity: 58
Note OFF: Time 388320, Note Name: C6
Note ON: Time 388320, Note Name: B5, Velocity: 60
Note OFF: Time 388560, Note Name: B5
Note ON: Time 388560, Note Name: G2, Velocity: 57
Note OFF: Time 388680, Note Name: G2
Note ON: Time 388800, Note Name: D3, Velocity: 60
Note OFF: Time 388920, Note Name: D3
Note ON: Time 389040, Note Name: D#3, Velocity: 63
Note OFF: Time 389160, Note Name: D#3
Note ON: Time 389280, Note Name: F3, Velocity: 66
Note OFF: Time 389400, Note Name: F3
Note ON: Time 389520, Note Name: G5, Velocity: 59
Note OFF: Time 389760, Note Name: G5
Note ON: Time 389760, Note Name: F6, Velocity: 62
Note OFF: Time 390000, Note Name: F6
Note ON: Time 390000, Note Name: D#6, Velocity: 65
Note OFF: Time 390240, Note Name: D#6
Note ON: Time 390240, Note Name: D#6, Velocity: 60
Note OFF: Time 390300, Note Name: D#6
Note ON: Time 390300, Note Name: F6, Velocity: 60
Note OFF: Time 390360, Note Name: F6
Note ON: Time 390360, Note Name: D#6, Velocity: 67
Note OFF: Time 390480, Note Name: D#6
Note ON: Time 390480, Note Name: D6, Velocity: 60
Note OFF: Time 390720, Note Name: D6
Note ON: Time 390720, Note Name: D6, Velocity: 60
Note OFF: Time 390780, Note Name: D6
Note ON: Time 390780, Note Name: D#6, Velocity: 60
Note OFF: Time 390840, Note Name: D#6
Note ON: Time 390840, Note Name: D6, Velocity: 67
Note OFF: Time 390960, Note Name: D6
Note ON: Time 390960, Note Name: C6, Velocity: 60
Note OFF: Time 391200, Note Name: C6
Note ON: Time 391200, Note Name: C6, Velocity: 60
Note OFF: Time 391260, Note Name: C6
Note ON: Time 391260, Note Name: D6, Velocity: 60
Note OFF: Time 391320, Note Name: D6
Note ON: Time 391320, Note Name: C6, Velocity: 66
Note OFF: Time 391440, Note Name: C6
Note ON: Time 391440, Note Name: B5, Velocity: 60
Note OFF: Time 391680, Note Name: B5
Note ON: Time 391680, Note Name: A5, Velocity: 60
Note OFF: Time 391800, Note Name: A5
Note ON: Time 391920, Note Name: B5, Velocity: 60
Note OFF: Time 392040, Note Name: B5
Note ON: Time 392160, Note Name: D6, Velocity: 60
Note OFF: Time 392220, Note Name: D6
Note ON: Time 392220, Note Name: D#6, Velocity: 60
Note OFF: Time 392280, Note Name: D#6
Note ON: Time 392280, Note Name: D6, Velocity: 67
Note OFF: Time 392400, Note Name: D6
Note ON: Time 392400, Note Name: C6, Velocity: 59
Note OFF: Time 392640, Note Name: C6
Note ON: Time 392640, Note Name: C6, Velocity: 58
Note OFF: Time 392700, Note Name: C6
Note ON: Time 392700, Note Name: D6, Velocity: 58
Note OFF: Time 392760, Note Name: D6
Note ON: Time 392760, Note Name: C6, Velocity: 65
Note OFF: Time 392880, Note Name: C6
Note ON: Time 392880, Note Name: A#5, Velocity: 58
Note OFF: Time 393120, Note Name: A#5
Note ON: Time 393120, Note Name: A#5, Velocity: 57
Note OFF: Time 393180, Note Name: A#5
Note ON: Time 393180, Note Name: C6, Velocity: 57
Note OFF: Time 393240, Note Name: C6
Note ON: Time 393240, Note Name: A#5, Velocity: 63
Note OFF: Time 393360, Note Name: A#5
Note ON: Time 393360, Note Name: A5, Velocity: 57
Note OFF: Time 393600, Note Name: A5
Note ON: Time 393600, Note Name: G5, Velocity: 56
Note OFF: Time 393720, Note Name: G5
Note ON: Time 393840, Note Name: A5, Velocity: 55
Note OFF: Time 393960, Note Name: A5
Note ON: Time 394080, Note Name: C6, Velocity: 55
Note OFF: Time 394140, Note Name: C6
Note ON: Time 394140, Note Name: C#6, Velocity: 55
Note OFF: Time 394200, Note Name: C#6
Note ON: Time 394200, Note Name: C6, Velocity: 61
Note OFF: Time 394320, Note Name: C6
Note ON: Time 394320, Note Name: A#5, Velocity: 54
Note OFF: Time 394560, Note Name: A#5
Note ON: Time 394560, Note Name: A#5, Velocity: 54
Note OFF: Time 394620, Note Name: A#5
Note ON: Time 394620, Note Name: C6, Velocity: 54
Note OFF: Time 394680, Note Name: C6
Note ON: Time 394680, Note Name: A#5, Velocity: 60
Note OFF: Time 394800, Note Name: A#5
Note ON: Time 394800, Note Name: G#5, Velocity: 53
Note OFF: Time 395040, Note Name: G#5
Note ON: Time 395040, Note Name: G#5, Velocity: 52
Note OFF: Time 395100, Note Name: G#5
Note ON: Time 395100, Note Name: A#5, Velocity: 52
Note OFF: Time 395160, Note Name: A#5
Note ON: Time 395160, Note Name: G#5, Velocity: 57
Note OFF: Time 395280, Note Name: G#5
Note ON: Time 395280, Note Name: G5, Velocity: 52
Note OFF: Time 395520, Note Name: G5
Note ON: Time 395520, Note Name: F5, Velocity: 51
Note OFF: Time 395640, Note Name: F5
Note ON: Time 395760, Note Name: G5, Velocity: 51
Note OFF: Time 395880, Note Name: G5
Note ON: Time 396000, Note Name: A#5, Velocity: 50
Note OFF: Time 396060, Note Name: A#5
Note ON: Time 396060, Note Name: C6, Velocity: 50
Note OFF: Time 396120, Note Name: C6
Note ON: Time 396120, Note Name: A#5, Velocity: 55
Note OFF: Time 396240, Note Name: A#5
Note ON: Time 396240, Note Name: G#5, Velocity: 49
Note OFF: Time 396480, Note Name: G#5
Note ON: Time 396480, Note Name: G#5, Velocity: 49
Note OFF: Time 396540, Note Name: G#5
Note ON: Time 396540, Note Name: A#5, Velocity: 48
Note OFF: Time 396600, Note Name: A#5
Note ON: Time 396600, Note Name: G#5, Velocity: 54
Note OFF: Time 396720, Note Name: G#5
Note ON: Time 396720, Note Name: G5, Velocity: 48
Note OFF: Time 396960, Note Name: G5
Note ON: Time 396960, Note Name: G5, Velocity: 48
Note OFF: Time 397020, Note Name: G5
Note ON: Time 397020, Note Name: G#5, Velocity: 47
Note OFF: Time 397080, Note Name: G#5
Note ON: Time 397080, Note Name: G5, Velocity: 52
Note OFF: Time 397200, Note Name: G5
Note ON: Time 397200, Note Name: F#5, Velocity: 47
Note OFF: Time 397440, Note Name: F#5
Note ON: Time 397440, Note Name: F#5, Velocity: 46
Note OFF: Time 397560, Note Name: F#5
Note ON: Time 397680, Note Name: F#5, Velocity: 46
Note OFF: Time 397800, Note Name: F#5
Note ON: Time 397920, Note Name: G#5, Velocity: 42
Note OFF: Time 397980, Note Name: G#5
Note ON: Time 397980, Note Name: A#5, Velocity: 42
Note OFF: Time 398040, Note Name: A#5
Note ON: Time 398040, Note Name: G#5, Velocity: 46
Note OFF: Time 398160, Note Name: G#5
Note ON: Time 398160, Note Name: G5, Velocity: 42
Note OFF: Time 398400, Note Name: G5
Note ON: Time 398400, Note Name: G5, Velocity: 42
Note OFF: Time 398520, Note Name: G5
Note ON: Time 398640, Note Name: G5, Velocity: 42
Note OFF: Time 398760, Note Name: G5
Note ON: Time 398880, Note Name: G#5, Velocity: 42
Note OFF: Time 398940, Note Name: G#5
Note ON: Time 398940, Note Name: A#5, Velocity: 42
Note OFF: Time 399000, Note Name: A#5
Note ON: Time 399000, Note Name: G#5, Velocity: 46
Note OFF: Time 399120, Note Name: G#5
Note ON: Time 399120, Note Name: G5, Velocity: 42
Note OFF: Time 399360, Note Name: G5
Note ON: Time 399360, Note Name: G5, Velocity: 42
Note OFF: Time 399480, Note Name: G5
Note ON: Time 399600, Note Name: G5, Velocity: 42
Note OFF: Time 399720, Note Name: G5
Note ON: Time 399960, Note Name: C4, Velocity: 25
Note OFF: Time 400080, Note Name: C4
Note ON: Time 400080, Note Name: D#4, Velocity: 29
Note OFF: Time 400200, Note Name: D#4
Note ON: Time 400200, Note Name: C4, Velocity: 29
Note OFF: Time 400320, Note Name: C4
Note ON: Time 400320, Note Name: C5, Velocity: 45
Note ON: Time 400440, Note Name: C4, Velocity: 28
Note OFF: Time 400560, Note Name: C4
Note ON: Time 400560, Note Name: D#4, Velocity: 30
Note OFF: Time 400680, Note Name: D#4
Note ON: Time 400680, Note Name: C4, Velocity: 28
Note OFF: Time 400800, Note Name: C4
Note ON: Time 400800, Note Name: D#4, Velocity: 31
Note OFF: Time 400920, Note Name: D#4
Note ON: Time 400920, Note Name: C4, Velocity: 30
Note OFF: Time 401040, Note Name: C4
Note ON: Time 401040, Note Name: D#4, Velocity: 32
Note OFF: Time 401160, Note Name: D#4
Note ON: Time 401160, Note Name: C4, Velocity: 29
Note OFF: Time 401280, Note Name: C4
Note OFF: Time 401280, Note Name: C5
Note ON: Time 401280, Note Name: C5, Velocity: 50
Note ON: Time 401400, Note Name: C4, Velocity: 30
Note OFF: Time 401520, Note Name: C4
Note ON: Time 401520, Note Name: D#4, Velocity: 33
Note OFF: Time 401640, Note Name: D#4
Note ON: Time 401640, Note Name: C4, Velocity: 32
Note OFF: Time 401760, Note Name: C4
Note OFF: Time 401760, Note Name: C5
Note ON: Time 401880, Note Name: C#4, Velocity: 32
Note OFF: Time 402000, Note Name: C#4
Note ON: Time 402000, Note Name: E4, Velocity: 36
Note OFF: Time 402120, Note Name: E4
Note ON: Time 402120, Note Name: C#4, Velocity: 35
Note OFF: Time 402240, Note Name: C#4
Note ON: Time 402240, Note Name: C#5, Velocity: 54
Note ON: Time 402360, Note Name: C#4, Velocity: 33
Note OFF: Time 402480, Note Name: C#4
Note ON: Time 402480, Note Name: E4, Velocity: 35
Note OFF: Time 402600, Note Name: E4
Note ON: Time 402600, Note Name: C#4, Velocity: 32
Note OFF: Time 402720, Note Name: C#4
Note ON: Time 402720, Note Name: E4, Velocity: 35
Note OFF: Time 402840, Note Name: E4
Note ON: Time 402840, Note Name: C#4, Velocity: 33
Note OFF: Time 402960, Note Name: C#4
Note ON: Time 402960, Note Name: E4, Velocity: 35
Note OFF: Time 403080, Note Name: E4
Note ON: Time 403080, Note Name: C#4, Velocity: 32
Note OFF: Time 403200, Note Name: C#4
Note OFF: Time 403200, Note Name: C#5
Note ON: Time 403200, Note Name: C#5, Velocity: 53
Note ON: Time 403320, Note Name: C#4, Velocity: 32
Note OFF: Time 403440, Note Name: C#4
Note ON: Time 403440, Note Name: E4, Velocity: 35
Note OFF: Time 403560, Note Name: E4
Note ON: Time 403560, Note Name: C#4, Velocity: 33
Note OFF: Time 403680, Note Name: C#4
Note OFF: Time 403680, Note Name: C#5
Note ON: Time 403680, Note Name: C5, Velocity: 66
Note OFF: Time 403770, Note Name: C5
Note ON: Time 403800, Note Name: C4, Velocity: 41
Note OFF: Time 403920, Note Name: C4
Note ON: Time 403920, Note Name: F4, Velocity: 45
Note OFF: Time 404040, Note Name: F4
Note ON: Time 404040, Note Name: C4, Velocity: 42
Note OFF: Time 404160, Note Name: C4
Note ON: Time 404160, Note Name: E5, Velocity: 67
Note OFF: Time 404250, Note Name: E5
Note ON: Time 404280, Note Name: E4, Velocity: 43
Note OFF: Time 404400, Note Name: E4
Note ON: Time 404400, Note Name: C5, Velocity: 47
Note OFF: Time 404520, Note Name: C5
Note ON: Time 404520, Note Name: E4, Velocity: 43
Note OFF: Time 404640, Note Name: E4
Note ON: Time 404640, Note Name: F5, Velocity: 71
Note OFF: Time 404730, Note Name: F5
Note ON: Time 404760, Note Name: F4, Velocity: 45
Note OFF: Time 404880, Note Name: F4
Note ON: Time 404880, Note Name: C5, Velocity: 50
Note OFF: Time 405000, Note Name: C5
Note ON: Time 405000, Note Name: F4, Velocity: 45
Note OFF: Time 405120, Note Name: F4
Note ON: Time 405120, Note Name: G5, Velocity: 72
Note OFF: Time 405210, Note Name: G5
Note ON: Time 405240, Note Name: G4, Velocity: 47
Note OFF: Time 405360, Note Name: G4
Note ON: Time 405360, Note Name: C5, Velocity: 50
Note OFF: Time 405480, Note Name: C5
Note ON: Time 405480, Note Name: G4, Velocity: 47
Note OFF: Time 405600, Note Name: G4
Note ON: Time 405600, Note Name: G#5, Velocity: 74
Note OFF: Time 405690, Note Name: G#5
Note ON: Time 405720, Note Name: G#4, Velocity: 49
Note OFF: Time 405840, Note Name: G#4
Note ON: Time 405840, Note Name: C5, Velocity: 54
Note OFF: Time 405960, Note Name: C5
Note ON: Time 405960, Note Name: G#4, Velocity: 49
Note OFF: Time 406080, Note Name: G#4
Note ON: Time 406080, Note Name: A5, Velocity: 80
Note OFF: Time 406170, Note Name: A5
Note ON: Time 406200, Note Name: A4, Velocity: 50
Note OFF: Time 406320, Note Name: A4
Note ON: Time 406320, Note Name: C5, Velocity: 55
Note OFF: Time 406440, Note Name: C5
Note ON: Time 406440, Note Name: A4, Velocity: 51
Note OFF: Time 406560, Note Name: A4
Note ON: Time 406560, Note Name: B5, Velocity: 84
Note OFF: Time 406650, Note Name: B5
Note ON: Time 406680, Note Name: B4, Velocity: 51
Note OFF: Time 406800, Note Name: B4
Note ON: Time 406800, Note Name: F5, Velocity: 58
Note OFF: Time 406920, Note Name: F5
Note ON: Time 406920, Note Name: B4, Velocity: 53
Note OFF: Time 407040, Note Name: B4
Note ON: Time 407040, Note Name: C6, Velocity: 85
Note OFF: Time 407130, Note Name: C6
Note ON: Time 407160, Note Name: C5, Velocity: 53
Note OFF: Time 407280, Note Name: C5
Note ON: Time 407280, Note Name: F5, Velocity: 58
Note OFF: Time 407400, Note Name: F5
Note ON: Time 407400, Note Name: C5, Velocity: 54
Note OFF: Time 407520, Note Name: C5
Note ON: Time 407520, Note Name: D6, Velocity: 85
Note OFF: Time 407610, Note Name: D6
Note ON: Time 407640, Note Name: D5, Velocity: 55
Note OFF: Time 407760, Note Name: D5
Note ON: Time 407760, Note Name: F5, Velocity: 63
Note OFF: Time 407880, Note Name: F5
Note ON: Time 407880, Note Name: D5, Velocity: 55
Note OFF: Time 408000, Note Name: D5
Note ON: Time 408000, Note Name: E6, Velocity: 90
Note OFF: Time 408090, Note Name: E6
Note ON: Time 408120, Note Name: E5, Velocity: 57
Note OFF: Time 408240, Note Name: E5
Note ON: Time 408240, Note Name: G5, Velocity: 62
Note OFF: Time 408360, Note Name: G5
Note ON: Time 408360, Note Name: E5, Velocity: 57
Note OFF: Time 408480, Note Name: E5
Note ON: Time 408480, Note Name: F6, Velocity: 89
Note OFF: Time 408570, Note Name: F6
Note ON: Time 408600, Note Name: F5, Velocity: 59
Note OFF: Time 408720, Note Name: F5
Note ON: Time 408720, Note Name: G#5, Velocity: 64
Note OFF: Time 408840, Note Name: G#5
Note ON: Time 408840, Note Name: F5, Velocity: 59
Note OFF: Time 408960, Note Name: F5
Note ON: Time 408960, Note Name: D6, Velocity: 91
Note OFF: Time 409050, Note Name: D6
Note ON: Time 409080, Note Name: F5, Velocity: 61
Note OFF: Time 409200, Note Name: F5
Note ON: Time 409200, Note Name: G#5, Velocity: 67
Note OFF: Time 409320, Note Name: G#5
Note ON: Time 409320, Note Name: F5, Velocity: 61
Note OFF: Time 409440, Note Name: F5
Note ON: Time 409560, Note Name: D#5, Velocity: 78
Note OFF: Time 409680, Note Name: D#5
Note ON: Time 409680, Note Name: G5, Velocity: 84
Note OFF: Time 409800, Note Name: G5
Note ON: Time 409800, Note Name: D#5, Velocity: 78
Note OFF: Time 409920, Note Name: D#5
Note ON: Time 409920, Note Name: C6, Velocity: 88
Note OFF: Time 410010, Note Name: C6
Note ON: Time 410040, Note Name: D#5, Velocity: 78
Note OFF: Time 410160, Note Name: D#5
Note ON: Time 410160, Note Name: G5, Velocity: 84
Note OFF: Time 410280, Note Name: G5
Note ON: Time 410280, Note Name: D#5, Velocity: 76
Note OFF: Time 410400, Note Name: D#5
Note ON: Time 410520, Note Name: D5, Velocity: 78
Note OFF: Time 410640, Note Name: D5
Note ON: Time 410640, Note Name: F5, Velocity: 84
Note OFF: Time 410760, Note Name: F5
Note ON: Time 410760, Note Name: D5, Velocity: 78
Note OFF: Time 410880, Note Name: D5
Note ON: Time 410880, Note Name: B5, Velocity: 88
Note OFF: Time 410970, Note Name: B5
Note ON: Time 411000, Note Name: D5, Velocity: 78
Note OFF: Time 411120, Note Name: D5
Note ON: Time 411120, Note Name: F5, Velocity: 84
Note OFF: Time 411240, Note Name: F5
Note ON: Time 411240, Note Name: D5, Velocity: 76
Note OFF: Time 411360, Note Name: D5
Note ON: Time 411480, Note Name: C4, Velocity: 32
Note OFF: Time 411600, Note Name: C4
Note ON: Time 411600, Note Name: D#4, Velocity: 36
Note OFF: Time 411720, Note Name: D#4
Note ON: Time 411720, Note Name: C4, Velocity: 35
Note OFF: Time 411840, Note Name: C4
Note ON: Time 411840, Note Name: C5, Velocity: 54
Note ON: Time 411960, Note Name: C4, Velocity: 33
Note OFF: Time 412080, Note Name: C4
Note ON: Time 412080, Note Name: D#4, Velocity: 35
Note OFF: Time 412200, Note Name: D#4
Note ON: Time 412200, Note Name: C4, Velocity: 32
Note OFF: Time 412320, Note Name: C4
Note ON: Time 412320, Note Name: D#4, Velocity: 35
Note OFF: Time 412440, Note Name: D#4
Note ON: Time 412440, Note Name: C4, Velocity: 33
Note OFF: Time 412560, Note Name: C4
Note ON: Time 412560, Note Name: D#4, Velocity: 35
Note OFF: Time 412680, Note Name: D#4
Note ON: Time 412680, Note Name: C4, Velocity: 32
Note OFF: Time 412800, Note Name: C4
Note OFF: Time 412800, Note Name: C5
Note ON: Time 412800, Note Name: C5, Velocity: 53
Note ON: Time 412920, Note Name: C4, Velocity: 32
Note OFF: Time 413040, Note Name: C4
Note ON: Time 413040, Note Name: D#4, Velocity: 35
Note OFF: Time 413160, Note Name: D#4
Note ON: Time 413160, Note Name: C4, Velocity: 33
Note OFF: Time 413280, Note Name: C4
Note OFF: Time 413280, Note Name: C5
Note ON: Time 413400, Note Name: C#4, Velocity: 32
Note OFF: Time 413520, Note Name: C#4
Note ON: Time 413520, Note Name: E4, Velocity: 36
Note OFF: Time 413640, Note Name: E4
Note ON: Time 413640, Note Name: C#4, Velocity: 35
Note OFF: Time 413760, Note Name: C#4
Note ON: Time 413760, Note Name: C#5, Velocity: 54
Note ON: Time 413880, Note Name: C#4, Velocity: 33
Note OFF: Time 414000, Note Name: C#4
Note ON: Time 414000, Note Name: E4, Velocity: 35
Note OFF: Time 414120, Note Name: E4
Note ON: Time 414120, Note Name: C#4, Velocity: 32
Note OFF: Time 414240, Note Name: C#4
Note ON: Time 414240, Note Name: E4, Velocity: 35
Note OFF: Time 414360, Note Name: E4
Note ON: Time 414360, Note Name: C#4, Velocity: 33
Note OFF: Time 414480, Note Name: C#4
Note ON: Time 414480, Note Name: E4, Velocity: 35
Note OFF: Time 414600, Note Name: E4
Note ON: Time 414600, Note Name: C#4, Velocity: 32
Note OFF: Time 414720, Note Name: C#4
Note OFF: Time 414720, Note Name: C#5
Note ON: Time 414720, Note Name: C#5, Velocity: 53
Note ON: Time 414840, Note Name: C#4, Velocity: 32
Note OFF: Time 414960, Note Name: C#4
Note ON: Time 414960, Note Name: E4, Velocity: 35
Note OFF: Time 415080, Note Name: E4
Note ON: Time 415080, Note Name: C#4, Velocity: 33
Note OFF: Time 415200, Note Name: C#4
Note OFF: Time 415200, Note Name: C#5
Note ON: Time 415200, Note Name: C5, Velocity: 66
Note OFF: Time 415290, Note Name: C5
Note ON: Time 415320, Note Name: C4, Velocity: 41
Note OFF: Time 415440, Note Name: C4
Note ON: Time 415440, Note Name: F4, Velocity: 45
Note OFF: Time 415560, Note Name: F4
Note ON: Time 415560, Note Name: C4, Velocity: 42
Note OFF: Time 415680, Note Name: C4
Note ON: Time 415680, Note Name: E5, Velocity: 67
Note OFF: Time 415770, Note Name: E5
Note ON: Time 415800, Note Name: E4, Velocity: 43
Note OFF: Time 415920, Note Name: E4
Note ON: Time 415920, Note Name: C5, Velocity: 47
Note OFF: Time 416040, Note Name: C5
Note ON: Time 416040, Note Name: E4, Velocity: 43
Note OFF: Time 416160, Note Name: E4
Note ON: Time 416160, Note Name: F5, Velocity: 71
Note OFF: Time 416250, Note Name: F5
Note ON: Time 416280, Note Name: F4, Velocity: 45
Note OFF: Time 416400, Note Name: F4
Note ON: Time 416400, Note Name: C5, Velocity: 50
Note OFF: Time 416520, Note Name: C5
Note ON: Time 416520, Note Name: F4, Velocity: 45
Note OFF: Time 416640, Note Name: F4
Note ON: Time 416640, Note Name: G5, Velocity: 72
Note OFF: Time 416730, Note Name: G5
Note ON: Time 416760, Note Name: G4, Velocity: 47
Note OFF: Time 416880, Note Name: G4
Note ON: Time 416880, Note Name: C5, Velocity: 50
Note OFF: Time 417000, Note Name: C5
Note ON: Time 417000, Note Name: G4, Velocity: 47
Note OFF: Time 417120, Note Name: G4
Note ON: Time 417120, Note Name: G#5, Velocity: 74
Note OFF: Time 417210, Note Name: G#5
Note ON: Time 417240, Note Name: G#4, Velocity: 49
Note OFF: Time 417360, Note Name: G#4
Note ON: Time 417360, Note Name: C5, Velocity: 54
Note OFF: Time 417480, Note Name: C5
Note ON: Time 417480, Note Name: G#4, Velocity: 49
Note OFF: Time 417600, Note Name: G#4
Note ON: Time 417600, Note Name: A5, Velocity: 80
Note OFF: Time 417690, Note Name: A5
Note ON: Time 417720, Note Name: A4, Velocity: 50
Note OFF: Time 417840, Note Name: A4
Note ON: Time 417840, Note Name: C5, Velocity: 55
Note OFF: Time 417960, Note Name: C5
Note ON: Time 417960, Note Name: A4, Velocity: 51
Note OFF: Time 418080, Note Name: A4
Note ON: Time 418080, Note Name: B5, Velocity: 84
Note OFF: Time 418170, Note Name: B5
Note ON: Time 418200, Note Name: B4, Velocity: 51
Note OFF: Time 418320, Note Name: B4
Note ON: Time 418320, Note Name: F5, Velocity: 58
Note OFF: Time 418440, Note Name: F5
Note ON: Time 418440, Note Name: B4, Velocity: 53
Note OFF: Time 418560, Note Name: B4
Note ON: Time 418560, Note Name: C6, Velocity: 85
Note OFF: Time 418650, Note Name: C6
Note ON: Time 418680, Note Name: C5, Velocity: 53
Note OFF: Time 418800, Note Name: C5
Note ON: Time 418800, Note Name: F5, Velocity: 58
Note OFF: Time 418920, Note Name: F5
Note ON: Time 418920, Note Name: C5, Velocity: 54
Note OFF: Time 419040, Note Name: C5
Note ON: Time 419040, Note Name: D6, Velocity: 85
Note OFF: Time 419130, Note Name: D6
Note ON: Time 419160, Note Name: D5, Velocity: 55
Note OFF: Time 419280, Note Name: D5
Note ON: Time 419280, Note Name: F5, Velocity: 63
Note OFF: Time 419400, Note Name: F5
Note ON: Time 419400, Note Name: D5, Velocity: 55
Note OFF: Time 419520, Note Name: D5
Note ON: Time 419520, Note Name: E6, Velocity: 90
Note OFF: Time 419610, Note Name: E6
Note ON: Time 419640, Note Name: E5, Velocity: 57
Note OFF: Time 419760, Note Name: E5
Note ON: Time 419760, Note Name: G5, Velocity: 62
Note OFF: Time 419880, Note Name: G5
Note ON: Time 419880, Note Name: E5, Velocity: 57
Note OFF: Time 420000, Note Name: E5
Note ON: Time 420000, Note Name: F6, Velocity: 89
Note OFF: Time 420090, Note Name: F6
Note ON: Time 420120, Note Name: F5, Velocity: 59
Note OFF: Time 420240, Note Name: F5
Note ON: Time 420240, Note Name: G#5, Velocity: 64
Note OFF: Time 420360, Note Name: G#5
Note ON: Time 420360, Note Name: F5, Velocity: 59
Note OFF: Time 420480, Note Name: F5
Note ON: Time 420480, Note Name: D6, Velocity: 91
Note OFF: Time 420570, Note Name: D6
Note ON: Time 420600, Note Name: F5, Velocity: 61
Note OFF: Time 420720, Note Name: F5
Note ON: Time 420720, Note Name: G#5, Velocity: 67
Note OFF: Time 420840, Note Name: G#5
Note ON: Time 420840, Note Name: F5, Velocity: 61
Note OFF: Time 420960, Note Name: F5
Note ON: Time 421080, Note Name: D#5, Velocity: 78
Note OFF: Time 421200, Note Name: D#5
Note ON: Time 421200, Note Name: G5, Velocity: 84
Note OFF: Time 421320, Note Name: G5
Note ON: Time 421320, Note Name: D#5, Velocity: 78
Note OFF: Time 421440, Note Name: D#5
Note ON: Time 421440, Note Name: C6, Velocity: 88
Note OFF: Time 421530, Note Name: C6
Note ON: Time 421560, Note Name: D#5, Velocity: 78
Note OFF: Time 421680, Note Name: D#5
Note ON: Time 421680, Note Name: G5, Velocity: 84
Note OFF: Time 421800, Note Name: G5
Note ON: Time 421800, Note Name: D#5, Velocity: 76
Note OFF: Time 421920, Note Name: D#5
Note ON: Time 422040, Note Name: D5, Velocity: 78
Note OFF: Time 422160, Note Name: D5
Note ON: Time 422160, Note Name: F5, Velocity: 84
Note OFF: Time 422280, Note Name: F5
Note ON: Time 422280, Note Name: D5, Velocity: 78
Note OFF: Time 422400, Note Name: D5
Note ON: Time 422400, Note Name: B5, Velocity: 88
Note OFF: Time 422490, Note Name: B5
Note ON: Time 422520, Note Name: D5, Velocity: 78
Note OFF: Time 422640, Note Name: D5
Note ON: Time 422640, Note Name: F5, Velocity: 84
Note OFF: Time 422760, Note Name: F5
Note ON: Time 422760, Note Name: D5, Velocity: 76
Note OFF: Time 422880, Note Name: D5
Note ON: Time 422880, Note Name: C5, Velocity: 81
Note OFF: Time 422970, Note Name: C5
Note ON: Time 423120, Note Name: C6, Velocity: 58
Note OFF: Time 423600, Note Name: C6
Note ON: Time 423600, Note Name: B5, Velocity: 46
Note OFF: Time 423720, Note Name: B5
Note ON: Time 423720, Note Name: C6, Velocity: 48
Note OFF: Time 423840, Note Name: C6
Note ON: Time 423840, Note Name: D6, Velocity: 49
Note OFF: Time 423960, Note Name: D6
Note ON: Time 423960, Note Name: C6, Velocity: 49
Note OFF: Time 424080, Note Name: C6
Note ON: Time 424080, Note Name: A#5, Velocity: 48
Note OFF: Time 424200, Note Name: A#5
Note ON: Time 424200, Note Name: G#5, Velocity: 47
Note OFF: Time 424320, Note Name: G#5
Note ON: Time 424320, Note Name: G5, Velocity: 45
Note OFF: Time 424440, Note Name: G5
Note ON: Time 424440, Note Name: G#5, Velocity: 46
Note OFF: Time 424560, Note Name: G#5
Note ON: Time 424560, Note Name: A#5, Velocity: 49
Note OFF: Time 424680, Note Name: A#5
Note ON: Time 424680, Note Name: G#5, Velocity: 47
Note OFF: Time 424800, Note Name: G#5
Note ON: Time 424800, Note Name: G5, Velocity: 49
Note OFF: Time 424920, Note Name: G5
Note ON: Time 424920, Note Name: F5, Velocity: 47
Note OFF: Time 425040, Note Name: F5
Note ON: Time 425040, Note Name: D#5, Velocity: 46
Note OFF: Time 425160, Note Name: D#5
Note ON: Time 425160, Note Name: D5, Velocity: 45
Note OFF: Time 425280, Note Name: D5
Note ON: Time 425280, Note Name: C#5, Velocity: 45
Note OFF: Time 425400, Note Name: C#5
Note ON: Time 425400, Note Name: D5, Velocity: 45
Note OFF: Time 425520, Note Name: D5
Note ON: Time 425520, Note Name: D#5, Velocity: 47
Note OFF: Time 425640, Note Name: D#5
Note ON: Time 425640, Note Name: D5, Velocity: 45
Note OFF: Time 425760, Note Name: D5
Note ON: Time 425760, Note Name: C5, Velocity: 46
Note OFF: Time 425880, Note Name: C5
Note ON: Time 425880, Note Name: B4, Velocity: 46
Note OFF: Time 426000, Note Name: B4
Note ON: Time 426000, Note Name: G#4, Velocity: 45
Note OFF: Time 426120, Note Name: G#4
Note ON: Time 426120, Note Name: G4, Velocity: 45
Note OFF: Time 426240, Note Name: G4
Note ON: Time 426240, Note Name: F#4, Velocity: 45
Note OFF: Time 426360, Note Name: F#4
Note ON: Time 426360, Note Name: G4, Velocity: 42
Note OFF: Time 426480, Note Name: G4
Note ON: Time 426480, Note Name: G#4, Velocity: 46
Note OFF: Time 426600, Note Name: G#4
Note ON: Time 426600, Note Name: F4, Velocity: 42
Note OFF: Time 426720, Note Name: F4
Note ON: Time 426720, Note Name: D#4, Velocity: 66
Note OFF: Time 426810, Note Name: D#4
Note ON: Time 426960, Note Name: C5, Velocity: 68
Note ON: Time 426960, Note Name: C6, Velocity: 68
Note OFF: Time 427440, Note Name: C6
Note OFF: Time 427440, Note Name: C5
Note ON: Time 427440, Note Name: B5, Velocity: 61
Note OFF: Time 427560, Note Name: B5
Note ON: Time 427560, Note Name: C6, Velocity: 64
Note OFF: Time 427680, Note Name: C6
Note ON: Time 427680, Note Name: D6, Velocity: 66
Note OFF: Time 427800, Note Name: D6
Note ON: Time 427800, Note Name: C6, Velocity: 66
Note OFF: Time 427920, Note Name: C6
Note ON: Time 427920, Note Name: A#5, Velocity: 65
Note OFF: Time 428040, Note Name: A#5
Note ON: Time 428040, Note Name: G#5, Velocity: 64
Note OFF: Time 428160, Note Name: G#5
Note ON: Time 428160, Note Name: G5, Velocity: 62
Note OFF: Time 428280, Note Name: G5
Note ON: Time 428280, Note Name: G#5, Velocity: 64
Note OFF: Time 428400, Note Name: G#5
Note ON: Time 428400, Note Name: A#5, Velocity: 68
Note OFF: Time 428520, Note Name: A#5
Note ON: Time 428520, Note Name: G#5, Velocity: 66
Note OFF: Time 428640, Note Name: G#5
Note ON: Time 428640, Note Name: G5, Velocity: 69
Note OFF: Time 428760, Note Name: G5
Note ON: Time 428760, Note Name: F5, Velocity: 67
Note OFF: Time 428880, Note Name: F5
Note ON: Time 428880, Note Name: D#5, Velocity: 66
Note OFF: Time 429000, Note Name: D#5
Note ON: Time 429000, Note Name: D5, Velocity: 65
Note OFF: Time 429120, Note Name: D5
Note ON: Time 429120, Note Name: C#5, Velocity: 65
Note OFF: Time 429240, Note Name: C#5
Note ON: Time 429240, Note Name: D5, Velocity: 64
Note OFF: Time 429360, Note Name: D5
Note ON: Time 429360, Note Name: D#5, Velocity: 68
Note OFF: Time 429480, Note Name: D#5
Note ON: Time 429480, Note Name: D5, Velocity: 66
Note OFF: Time 429600, Note Name: D5
Note ON: Time 429600, Note Name: C5, Velocity: 68
Note OFF: Time 429720, Note Name: C5
Note ON: Time 429720, Note Name: B4, Velocity: 68
Note OFF: Time 429840, Note Name: B4
Note ON: Time 429840, Note Name: G#4, Velocity: 68
Note OFF: Time 429960, Note Name: G#4
Note ON: Time 429960, Note Name: G4, Velocity: 68
Note OFF: Time 430080, Note Name: G4
Note ON: Time 430080, Note Name: F#4, Velocity: 67
Note OFF: Time 430200, Note Name: F#4
Note ON: Time 430200, Note Name: G4, Velocity: 64
Note OFF: Time 430320, Note Name: G4
Note ON: Time 430320, Note Name: G#4, Velocity: 70
Note OFF: Time 430440, Note Name: G#4
Note ON: Time 430440, Note Name: G4, Velocity: 64
Note OFF: Time 430560, Note Name: G4
Note ON: Time 430560, Note Name: C5, Velocity: 83
Note OFF: Time 430680, Note Name: C5
Note ON: Time 430800, Note Name: C4, Velocity: 82
Note OFF: Time 431280, Note Name: C4
Note ON: Time 431280, Note Name: A#3, Velocity: 80
Note ON: Time 431280, Note Name: E4, Velocity: 80
Note OFF: Time 431400, Note Name: E4
Note OFF: Time 431400, Note Name: A#3
Note ON: Time 431520, Note Name: G#3, Velocity: 81
Note ON: Time 431520, Note Name: F4, Velocity: 81
Note OFF: Time 431640, Note Name: F4
Note OFF: Time 431640, Note Name: G#3
Note ON: Time 431760, Note Name: E4, Velocity: 82
Note ON: Time 431760, Note Name: G4, Velocity: 82
Note OFF: Time 431880, Note Name: G4
Note OFF: Time 431880, Note Name: E4
Note ON: Time 432000, Note Name: F4, Velocity: 83
Note ON: Time 432000, Note Name: G#4, Velocity: 83
Note OFF: Time 432120, Note Name: G#4
Note OFF: Time 432120, Note Name: F4
Note ON: Time 432240, Note Name: D4, Velocity: 85
Note ON: Time 432240, Note Name: B4, Velocity: 85
Note OFF: Time 432360, Note Name: B4
Note OFF: Time 432360, Note Name: D4
Note ON: Time 432480, Note Name: D#4, Velocity: 83
Note ON: Time 432480, Note Name: C5, Velocity: 83
Note OFF: Time 432600, Note Name: C5
Note OFF: Time 432600, Note Name: D#4
Note ON: Time 432720, Note Name: E4, Velocity: 83
Note ON: Time 432720, Note Name: C5, Velocity: 82
Note OFF: Time 433200, Note Name: C5
Note OFF: Time 433200, Note Name: E4
Note ON: Time 433200, Note Name: A#4, Velocity: 80
Note ON: Time 433200, Note Name: E5, Velocity: 80
Note OFF: Time 433320, Note Name: E5
Note OFF: Time 433320, Note Name: A#4
Note ON: Time 433440, Note Name: G#4, Velocity: 81
Note ON: Time 433440, Note Name: F5, Velocity: 81
Note OFF: Time 433560, Note Name: F5
Note OFF: Time 433560, Note Name: G#4
Note ON: Time 433680, Note Name: E5, Velocity: 82
Note ON: Time 433680, Note Name: G5, Velocity: 82
Note OFF: Time 433800, Note Name: G5
Note OFF: Time 433800, Note Name: E5
Note ON: Time 433920, Note Name: F5, Velocity: 83
Note ON: Time 433920, Note Name: G#5, Velocity: 83
Note OFF: Time 434040, Note Name: G#5
Note OFF: Time 434040, Note Name: F5
Note ON: Time 434160, Note Name: D5, Velocity: 85
Note ON: Time 434160, Note Name: B5, Velocity: 85
Note OFF: Time 434280, Note Name: B5
Note OFF: Time 434280, Note Name: D5
Note ON: Time 434400, Note Name: C5, Velocity: 94
Note ON: Time 434400, Note Name: C6, Velocity: 94
Note ON: Time 434400, Note Name: D#5, Velocity: 94
Note OFF: Time 435360, Note Name: D#5
Note OFF: Time 435360, Note Name: C6
Note OFF: Time 435360, Note Name: C5
Note ON: Time 435360, Note Name: C4, Velocity: 88
Note ON: Time 435360, Note Name: D#4, Velocity: 88
Note ON: Time 435360, Note Name: C5, Velocity: 88
Note OFF: Time 436320, Note Name: C5
Note OFF: Time 436320, Note Name: D#4
Note OFF: Time 436320, Note Name: C4
Note ON: Time 436320, Note Name: C5, Velocity: 99
Note ON: Time 436320, Note Name: C6, Velocity: 99
Note ON: Time 436320, Note Name: D#5, Velocity: 99
Note OFF: Time 437280, Note Name: D#5
Note OFF: Time 437280, Note Name: C6
Note OFF: Time 437280, Note Name: C5
Note ON: Time 437280, Note Name: C4, Velocity: 92
Note ON: Time 437280, Note Name: D#4, Velocity: 92
Note ON: Time 437280, Note Name: C5, Velocity: 92
Note OFF: Time 438240, Note Name: C5
Note OFF: Time 438240, Note Name: D#4
Note OFF: Time 438240, Note Name: C4
Note ON: Time 438240, Note Name: A5, Velocity: 102
Note ON: Time 438240, Note Name: C6, Velocity: 102
Note ON: Time 438240, Note Name: D#5, Velocity: 102
Note ON: Time 438240, Note Name: D#6, Velocity: 102
Note OFF: Time 439200, Note Name: D#6
Note OFF: Time 439200, Note Name: A5
Note OFF: Time 439200, Note Name: C6
Note OFF: Time 439200, Note Name: D#5
Note ON: Time 439200, Note Name: C4, Velocity: 102
Note ON: Time 439200, Note Name: F#3, Velocity: 86
Note ON: Time 439200, Note Name: A3, Velocity: 102
Note ON: Time 439200, Note Name: D#4, Velocity: 102
Note OFF: Time 440160, Note Name: D#4
Note OFF: Time 440160, Note Name: C4
Note OFF: Time 440160, Note Name: F#3
Note OFF: Time 440160, Note Name: A3
Note ON: Time 441480, Note Name: F#4, Velocity: 44
Note ON: Time 441480, Note Name: A4, Velocity: 44
Note ON: Time 441480, Note Name: C5, Velocity: 51
Note OFF: Time 441594, Note Name: C5
Note OFF: Time 441594, Note Name: A4
Note OFF: Time 441594, Note Name: F#4
Note ON: Time 441600, Note Name: F#4, Velocity: 46
Note ON: Time 441600, Note Name: A4, Velocity: 46
Note ON: Time 441600, Note Name: D5, Velocity: 55
Note OFF: Time 441960, Note Name: D5
Note OFF: Time 441960, Note Name: A4
Note OFF: Time 441960, Note Name: F#4
Note ON: Time 441960, Note Name: F#4, Velocity: 42
Note ON: Time 441960, Note Name: A4, Velocity: 50
Note ON: Time 441960, Note Name: D#5, Velocity: 50
Note OFF: Time 442074, Note Name: D#5
Note OFF: Time 442074, Note Name: A4
Note OFF: Time 442074, Note Name: F#4
Note ON: Time 442080, Note Name: F#4, Velocity: 46
Note ON: Time 442080, Note Name: A4, Velocity: 55
Note ON: Time 442080, Note Name: D#5, Velocity: 55
Note OFF: Time 443040, Note Name: D#5
Note OFF: Time 443040, Note Name: A4
Note OFF: Time 443040, Note Name: F#4
Note ON: Time 443040, Note Name: G4, Velocity: 31
Note ON: Time 443040, Note Name: B4, Velocity: 31
Note ON: Time 443040, Note Name: D5, Velocity: 39
Note OFF: Time 443520, Note Name: D5
Note OFF: Time 443520, Note Name: B4
Note OFF: Time 443520, Note Name: G4
Note ON: Time 445320, Note Name: D5, Velocity: 44
Note ON: Time 445320, Note Name: B4, Velocity: 44
Note ON: Time 445320, Note Name: F5, Velocity: 52
Note OFF: Time 445440, Note Name: F5
Note OFF: Time 445440, Note Name: B4
Note OFF: Time 445440, Note Name: D5
Note ON: Time 445440, Note Name: B4, Velocity: 46
Note ON: Time 445440, Note Name: D5, Velocity: 46
Note ON: Time 445440, Note Name: G5, Velocity: 55
Note OFF: Time 445800, Note Name: G5
Note OFF: Time 445800, Note Name: D5
Note OFF: Time 445800, Note Name: B4
Note ON: Time 445800, Note Name: D5, Velocity: 51
Note ON: Time 445800, Note Name: G#5, Velocity: 51
Note ON: Time 445800, Note Name: B4, Velocity: 43
Note OFF: Time 445914, Note Name: B4
Note OFF: Time 445914, Note Name: G#5
Note OFF: Time 445914, Note Name: D5
Note ON: Time 445920, Note Name: G#5, Velocity: 55
Note ON: Time 445920, Note Name: B4, Velocity: 46
Note ON: Time 445920, Note Name: D5, Velocity: 55
Note OFF: Time 446880, Note Name: D5
Note OFF: Time 446880, Note Name: B4
Note OFF: Time 446880, Note Name: G#5
Note ON: Time 446880, Note Name: C5, Velocity: 32
Note ON: Time 446880, Note Name: G5, Velocity: 39
Note ON: Time 446880, Note Name: D#5, Velocity: 32
Note OFF: Time 447360, Note Name: D#5
Note OFF: Time 447360, Note Name: G5
Note OFF: Time 447360, Note Name: C5
Note ON: Time 449160, Note Name: A#4, Velocity: 55
Note ON: Time 449160, Note Name: G5, Velocity: 55
Note ON: Time 449160, Note Name: E5, Velocity: 55
Note ON: Time 449160, Note Name: A#5, Velocity: 66
Note OFF: Time 449280, Note Name: A#5
Note OFF: Time 449280, Note Name: A#4
Note OFF: Time 449280, Note Name: G5
Note OFF: Time 449280, Note Name: E5
Note ON: Time 449280, Note Name: C5, Velocity: 61
Note ON: Time 449280, Note Name: E5, Velocity: 61
Note ON: Time 449280, Note Name: G5, Velocity: 61
Note ON: Time 449280, Note Name: C6, Velocity: 72
Note OFF: Time 449640, Note Name: C6
Note OFF: Time 449640, Note Name: C5
Note OFF: Time 449640, Note Name: E5
Note OFF: Time 449640, Note Name: G5
Note ON: Time 449640, Note Name: C#5, Velocity: 64
Note ON: Time 449640, Note Name: G5, Velocity: 75
Note ON: Time 449640, Note Name: C#6, Velocity: 75
Note ON: Time 449640, Note Name: E5, Velocity: 64
Note OFF: Time 449754, Note Name: E5
Note OFF: Time 449754, Note Name: C#5
Note OFF: Time 449754, Note Name: G5
Note OFF: Time 449754, Note Name: C#6
Note ON: Time 449760, Note Name: C#5, Velocity: 72
Note ON: Time 449760, Note Name: C#6, Velocity: 84
Note ON: Time 449760, Note Name: E5, Velocity: 72
Note ON: Time 449760, Note Name: G5, Velocity: 72
Note OFF: Time 450720, Note Name: G5
Note OFF: Time 450720, Note Name: C#5
Note OFF: Time 450720, Note Name: C#6
Note OFF: Time 450720, Note Name: E5
Note ON: Time 450720, Note Name: C5, Velocity: 52
Note ON: Time 450720, Note Name: C6, Velocity: 62
Note OFF: Time 451200, Note Name: C6
Note OFF: Time 451200, Note Name: C5
Note ON: Time 451200, Note Name: A#4, Velocity: 60
Note ON: Time 451200, Note Name: A#5, Velocity: 60
Note OFF: Time 451680, Note Name: A#5
Note OFF: Time 451680, Note Name: A#4
Note ON: Time 451680, Note Name: G#4, Velocity: 41
Note ON: Time 451680, Note Name: G#5, Velocity: 49
Note OFF: Time 452160, Note Name: G#5
Note OFF: Time 452160, Note Name: G#4
Note ON: Time 452160, Note Name: G4, Velocity: 40
Note ON: Time 452160, Note Name: G5, Velocity: 48
Note OFF: Time 452640, Note Name: G5
Note OFF: Time 452640, Note Name: G4
Note ON: Time 452640, Note Name: F4, Velocity: 39
Note ON: Time 452640, Note Name: F5, Velocity: 46
Note OFF: Time 453120, Note Name: F5
Note OFF: Time 453120, Note Name: F4
Note ON: Time 453120, Note Name: D#4, Velocity: 37
Note ON: Time 453120, Note Name: D#5, Velocity: 44
Note OFF: Time 453600, Note Name: D#5
Note OFF: Time 453600, Note Name: D#4
Note ON: Time 454080, Note Name: F4, Velocity: 32
Note ON: Time 454080, Note Name: G#4, Velocity: 32
Note ON: Time 454080, Note Name: D5, Velocity: 38
Note OFF: Time 454560, Note Name: D5
Note OFF: Time 454560, Note Name: G#4
Note OFF: Time 454560, Note Name: F4
Note ON: Time 455520, Note Name: C4, Velocity: 50
Note OFF: Time 456240, Note Name: C4
Note ON: Time 456240, Note Name: A#3, Velocity: 52
Note ON: Time 456240, Note Name: E4, Velocity: 52
Note OFF: Time 456330, Note Name: E4
Note OFF: Time 456330, Note Name: A#3
Note ON: Time 456480, Note Name: G#3, Velocity: 54
Note ON: Time 456480, Note Name: F4, Velocity: 54
Note OFF: Time 456570, Note Name: F4
Note OFF: Time 456570, Note Name: G#3
Note ON: Time 456720, Note Name: E4, Velocity: 56
Note ON: Time 456720, Note Name: G4, Velocity: 56
Note OFF: Time 456810, Note Name: G4
Note OFF: Time 456810, Note Name: E4
Note ON: Time 456960, Note Name: F4, Velocity: 57
Note ON: Time 456960, Note Name: G#4, Velocity: 57
Note OFF: Time 457050, Note Name: G#4
Note OFF: Time 457050, Note Name: F4
Note ON: Time 457200, Note Name: D4, Velocity: 59
Note ON: Time 457200, Note Name: B4, Velocity: 59
Note OFF: Time 457290, Note Name: B4
Note OFF: Time 457290, Note Name: D4
Note ON: Time 457440, Note Name: D#4, Velocity: 61
Note ON: Time 457440, Note Name: C5, Velocity: 61
Note OFF: Time 457530, Note Name: C5
Note OFF: Time 457530, Note Name: D#4
Note ON: Time 457680, Note Name: E4, Velocity: 55
Note ON: Time 457680, Note Name: C5, Velocity: 55
Note OFF: Time 458160, Note Name: C5
Note OFF: Time 458160, Note Name: E4
Note ON: Time 458160, Note Name: A#4, Velocity: 51
Note ON: Time 458160, Note Name: E5, Velocity: 51
Note OFF: Time 458250, Note Name: E5
Note OFF: Time 458250, Note Name: A#4
Note ON: Time 458400, Note Name: G#4, Velocity: 50
Note ON: Time 458400, Note Name: F5, Velocity: 50
Note OFF: Time 458490, Note Name: F5
Note OFF: Time 458490, Note Name: G#4
Note ON: Time 458640, Note Name: E5, Velocity: 53
Note ON: Time 458640, Note Name: G5, Velocity: 53
Note OFF: Time 458730, Note Name: G5
Note OFF: Time 458730, Note Name: E5
Note ON: Time 458880, Note Name: F5, Velocity: 57
Note ON: Time 458880, Note Name: G#5, Velocity: 57
Note OFF: Time 458970, Note Name: G#5
Note OFF: Time 458970, Note Name: F5
Note ON: Time 459120, Note Name: D5, Velocity: 60
Note ON: Time 459120, Note Name: B5, Velocity: 60
Note OFF: Time 459210, Note Name: B5
Note OFF: Time 459210, Note Name: D5
Note ON: Time 459360, Note Name: D#5, Velocity: 58
Note ON: Time 459360, Note Name: C6, Velocity: 70
Note OFF: Time 459840, Note Name: C6
Note OFF: Time 459840, Note Name: D#5
Note ON: Time 459840, Note Name: C5, Velocity: 64
Note ON: Time 459840, Note Name: D#5, Velocity: 75
Note ON: Time 459840, Note Name: C6, Velocity: 75
Note OFF: Time 460320, Note Name: C6
Note OFF: Time 460320, Note Name: D#5
Note OFF: Time 460320, Note Name: C5
Note ON: Time 460320, Note Name: C5, Velocity: 72
Note ON: Time 460320, Note Name: D#5, Velocity: 72
Note ON: Time 460320, Note Name: C6, Velocity: 86
Note OFF: Time 460800, Note Name: C6
Note OFF: Time 460800, Note Name: D#5
Note OFF: Time 460800, Note Name: C5
Note ON: Time 460800, Note Name: C5, Velocity: 81
Note ON: Time 460800, Note Name: D#5, Velocity: 81
Note ON: Time 460800, Note Name: C6, Velocity: 97
Note OFF: Time 461280, Note Name: C6
Note OFF: Time 461280, Note Name: D#5
Note OFF: Time 461280, Note Name: C5
Note ON: Time 461280, Note Name: D#5, Velocity: 99
Note ON: Time 461280, Note Name: A5, Velocity: 99
Note ON: Time 461280, Note Name: C6, Velocity: 99
Note ON: Time 461280, Note Name: D#6, Velocity: 103
Note OFF: Time 461520, Note Name: D#6
Note OFF: Time 461520, Note Name: D#5
Note OFF: Time 461520, Note Name: A5
Note OFF: Time 461520, Note Name: C6
Note ON: Time 462240, Note Name: F#4, Velocity: 79
Note ON: Time 462240, Note Name: A4, Velocity: 79
Note ON: Time 462240, Note Name: C5, Velocity: 94
Note ON: Time 462240, Note Name: D#5, Velocity: 94
Note OFF: Time 462480, Note Name: D#5
Note OFF: Time 462480, Note Name: F#4
Note OFF: Time 462480, Note Name: A4
Note OFF: Time 462480, Note Name: C5
Note ON: Time 463200, Note Name: D#5, Velocity: 94
Note ON: Time 463200, Note Name: G4, Velocity: 79
Note ON: Time 463200, Note Name: C5, Velocity: 79
Note ON: Time 463200, Note Name: G5, Velocity: 94
Note OFF: Time 463440, Note Name: G5
Note OFF: Time 463440, Note Name: D#5
Note OFF: Time 463440, Note Name: G4
Note OFF: Time 463440, Note Name: C5
Note ON: Time 464160, Note Name: D3, Velocity: 86
Note ON: Time 464160, Note Name: G3, Velocity: 103
Note ON: Time 464160, Note Name: B3, Velocity: 103
Note ON: Time 464160, Note Name: F3, Velocity: 86
Note OFF: Time 464400, Note Name: F3
Note OFF: Time 464400, Note Name: D3
Note OFF: Time 464400, Note Name: G3
Note OFF: Time 464400, Note Name: B3
Note ON: Time 465120, Note Name: G3, Velocity: 103
Note ON: Time 465120, Note Name: C4, Velocity: 103
Note ON: Time 465120, Note Name: D#3, Velocity: 86
Note OFF: Time 465360, Note Name: D#3
Note OFF: Time 465360, Note Name: C4
Note OFF: Time 465360, Note Name: G3
Track 2: Piano left
Note ON: Time 0, Note Name: C2, Velocity: 70
Note ON: Time 0, Note Name: D#2, Velocity: 70
Note ON: Time 0, Note Name: G2, Velocity: 70
Note ON: Time 0, Note Name: C3, Velocity: 81
Note OFF: Time 1320, Note Name: C3
Note OFF: Time 1320, Note Name: C2
Note OFF: Time 1320, Note Name: D#2
Note OFF: Time 1320, Note Name: G2
Note ON: Time 1320, Note Name: D#3, Velocity: 36
Note OFF: Time 1440, Note Name: D#3
Note ON: Time 1440, Note Name: D3, Velocity: 41
Note OFF: Time 1800, Note Name: D3
Note ON: Time 1800, Note Name: C3, Velocity: 36
Note OFF: Time 1908, Note Name: C3
Note ON: Time 1920, Note Name: F#3, Velocity: 39
Note OFF: Time 2880, Note Name: F#3
Note ON: Time 2880, Note Name: G3, Velocity: 25
Note OFF: Time 3360, Note Name: G3
Note ON: Time 3720, Note Name: G#2, Velocity: 89
Note OFF: Time 3840, Note Name: G#2
Note ON: Time 3840, Note Name: G#3, Velocity: 93
Note OFF: Time 5160, Note Name: G#3
Note ON: Time 5160, Note Name: G#3, Velocity: 38
Note OFF: Time 5268, Note Name: G#3
Note ON: Time 5280, Note Name: G3, Velocity: 43
Note OFF: Time 5640, Note Name: G3
Note ON: Time 5640, Note Name: F3, Velocity: 38
Note OFF: Time 5748, Note Name: F3
Note ON: Time 5760, Note Name: D#3, Velocity: 37
Note OFF: Time 7200, Note Name: D#3
Note ON: Time 7560, Note Name: D#3, Velocity: 86
Note OFF: Time 7680, Note Name: D#3
Note ON: Time 7680, Note Name: D#4, Velocity: 91
Note OFF: Time 9000, Note Name: D#4
Note ON: Time 9000, Note Name: D#4, Velocity: 45
Note OFF: Time 9108, Note Name: D#4
Note ON: Time 9120, Note Name: D4, Velocity: 52
Note OFF: Time 9480, Note Name: D4
Note ON: Time 9480, Note Name: C4, Velocity: 52
Note OFF: Time 9588, Note Name: C4
Note ON: Time 9600, Note Name: C4, Velocity: 65
Note OFF: Time 10560, Note Name: C4
Note ON: Time 10560, Note Name: B3, Velocity: 35
Note OFF: Time 10680, Note Name: B3
Note ON: Time 10920, Note Name: D#4, Velocity: 47
Note OFF: Time 11028, Note Name: D#4
Note ON: Time 11040, Note Name: D4, Velocity: 54
Note OFF: Time 11400, Note Name: D4
Note ON: Time 11400, Note Name: C4, Velocity: 54
Note OFF: Time 11508, Note Name: C4
Note ON: Time 11520, Note Name: C4, Velocity: 71
Note OFF: Time 12480, Note Name: C4
Note ON: Time 12480, Note Name: B3, Velocity: 43
Note ON: Time 12480, Note Name: D4, Velocity: 51
Note OFF: Time 12960, Note Name: D4
Note OFF: Time 12960, Note Name: B3
Note ON: Time 12960, Note Name: E4, Velocity: 57
Note ON: Time 12960, Note Name: A#3, Velocity: 48
Note ON: Time 12960, Note Name: C4, Velocity: 48
Note OFF: Time 13440, Note Name: C4
Note OFF: Time 13440, Note Name: A#3
Note OFF: Time 13440, Note Name: E4
Note ON: Time 13440, Note Name: F4, Velocity: 64
Note ON: Time 13440, Note Name: C4, Velocity: 53
Note ON: Time 13440, Note Name: G#3, Velocity: 53
Note OFF: Time 13680, Note Name: G#3
Note OFF: Time 13680, Note Name: C4
Note OFF: Time 13680, Note Name: F4
Note ON: Time 14400, Note Name: A#1, Velocity: 84
Note ON: Time 14400, Note Name: A#2, Velocity: 84
Note OFF: Time 15360, Note Name: A#2
Note OFF: Time 15360, Note Name: A#1
Note ON: Time 15360, Note Name: D#2, Velocity: 45
Note ON: Time 15360, Note Name: D#3, Velocity: 50
Note OFF: Time 15588, Note Name: D#3
Note OFF: Time 15588, Note Name: D#2
Note ON: Time 15600, Note Name: D#3, Velocity: 22
Note ON: Time 15600, Note Name: G3, Velocity: 27
Note ON: Time 15600, Note Name: A#3, Velocity: 32
Note OFF: Time 15828, Note Name: A#3
Note OFF: Time 15828, Note Name: G3
Note OFF: Time 15828, Note Name: D#3
Note ON: Time 15840, Note Name: D#3, Velocity: 22
Note ON: Time 15840, Note Name: G3, Velocity: 27
Note ON: Time 15840, Note Name: A#3, Velocity: 32
Note OFF: Time 16068, Note Name: A#3
Note OFF: Time 16068, Note Name: G3
Note OFF: Time 16068, Note Name: D#3
Note ON: Time 16080, Note Name: D#3, Velocity: 22
Note ON: Time 16080, Note Name: G3, Velocity: 27
Note ON: Time 16080, Note Name: A#3, Velocity: 32
Note OFF: Time 16308, Note Name: A#3
Note OFF: Time 16308, Note Name: G3
Note OFF: Time 16308, Note Name: D#3
Note ON: Time 16320, Note Name: D#3, Velocity: 22
Note ON: Time 16320, Note Name: G3, Velocity: 27
Note ON: Time 16320, Note Name: A#3, Velocity: 32
Note OFF: Time 16548, Note Name: A#3
Note OFF: Time 16548, Note Name: G3
Note OFF: Time 16548, Note Name: D#3
Note ON: Time 16560, Note Name: D#3, Velocity: 22
Note ON: Time 16560, Note Name: G3, Velocity: 27
Note ON: Time 16560, Note Name: A#3, Velocity: 32
Note OFF: Time 16788, Note Name: A#3
Note OFF: Time 16788, Note Name: G3
Note OFF: Time 16788, Note Name: D#3
Note ON: Time 16800, Note Name: D#3, Velocity: 22
Note ON: Time 16800, Note Name: G3, Velocity: 27
Note ON: Time 16800, Note Name: A#3, Velocity: 32
Note OFF: Time 17028, Note Name: A#3
Note OFF: Time 17028, Note Name: G3
Note OFF: Time 17028, Note Name: D#3
Note ON: Time 17040, Note Name: D#3, Velocity: 22
Note ON: Time 17040, Note Name: G3, Velocity: 27
Note ON: Time 17040, Note Name: A#3, Velocity: 32
Note OFF: Time 17268, Note Name: A#3
Note OFF: Time 17268, Note Name: G3
Note OFF: Time 17268, Note Name: D#3
Note ON: Time 17280, Note Name: D#3, Velocity: 23
Note ON: Time 17280, Note Name: G#3, Velocity: 27
Note ON: Time 17280, Note Name: C4, Velocity: 33
Note OFF: Time 17508, Note Name: C4
Note OFF: Time 17508, Note Name: G#3
Note OFF: Time 17508, Note Name: D#3
Note ON: Time 17520, Note Name: D#3, Velocity: 24
Note ON: Time 17520, Note Name: G#3, Velocity: 28
Note ON: Time 17520, Note Name: C4, Velocity: 34
Note OFF: Time 17748, Note Name: C4
Note OFF: Time 17748, Note Name: G#3
Note OFF: Time 17748, Note Name: D#3
Note ON: Time 17760, Note Name: D#3, Velocity: 24
Note ON: Time 17760, Note Name: G#3, Velocity: 28
Note ON: Time 17760, Note Name: C4, Velocity: 34
Note OFF: Time 17988, Note Name: C4
Note OFF: Time 17988, Note Name: G#3
Note OFF: Time 17988, Note Name: D#3
Note ON: Time 18000, Note Name: D#3, Velocity: 24
Note ON: Time 18000, Note Name: G#3, Velocity: 28
Note ON: Time 18000, Note Name: C4, Velocity: 34
Note OFF: Time 18228, Note Name: C4
Note OFF: Time 18228, Note Name: G#3
Note OFF: Time 18228, Note Name: D#3
Note ON: Time 18240, Note Name: D2, Velocity: 68
Note ON: Time 18240, Note Name: D3, Velocity: 81
Note OFF: Time 18468, Note Name: D3
Note OFF: Time 18468, Note Name: D2
Note ON: Time 18480, Note Name: D2, Velocity: 68
Note ON: Time 18480, Note Name: D3, Velocity: 81
Note OFF: Time 18708, Note Name: D3
Note OFF: Time 18708, Note Name: D2
Note ON: Time 18720, Note Name: C2, Velocity: 68
Note ON: Time 18720, Note Name: C3, Velocity: 81
Note OFF: Time 18948, Note Name: C3
Note OFF: Time 18948, Note Name: C2
Note ON: Time 18960, Note Name: C2, Velocity: 68
Note ON: Time 18960, Note Name: C3, Velocity: 81
Note OFF: Time 19188, Note Name: C3
Note OFF: Time 19188, Note Name: C2
Note ON: Time 19200, Note Name: B1, Velocity: 68
Note ON: Time 19200, Note Name: B2, Velocity: 81
Note OFF: Time 19428, Note Name: B2
Note OFF: Time 19428, Note Name: B1
Note ON: Time 19440, Note Name: B2, Velocity: 18
Note ON: Time 19440, Note Name: D3, Velocity: 18
Note ON: Time 19440, Note Name: F3, Velocity: 23
Note ON: Time 19440, Note Name: G#3, Velocity: 28
Note OFF: Time 19668, Note Name: G#3
Note OFF: Time 19668, Note Name: B2
Note OFF: Time 19668, Note Name: D3
Note OFF: Time 19668, Note Name: F3
Note ON: Time 19680, Note Name: B2, Velocity: 18
Note ON: Time 19680, Note Name: D3, Velocity: 18
Note ON: Time 19680, Note Name: F3, Velocity: 23
Note ON: Time 19680, Note Name: G#3, Velocity: 28
Note OFF: Time 19908, Note Name: G#3
Note OFF: Time 19908, Note Name: B2
Note OFF: Time 19908, Note Name: D3
Note OFF: Time 19908, Note Name: F3
Note ON: Time 19920, Note Name: B2, Velocity: 18
Note ON: Time 19920, Note Name: D3, Velocity: 18
Note ON: Time 19920, Note Name: F3, Velocity: 23
Note ON: Time 19920, Note Name: G#3, Velocity: 28
Note OFF: Time 20148, Note Name: G#3
Note OFF: Time 20148, Note Name: B2
Note OFF: Time 20148, Note Name: D3
Note OFF: Time 20148, Note Name: F3
Note ON: Time 20160, Note Name: A#2, Velocity: 18
Note ON: Time 20160, Note Name: D3, Velocity: 18
Note ON: Time 20160, Note Name: F3, Velocity: 23
Note ON: Time 20160, Note Name: G#3, Velocity: 28
Note OFF: Time 20388, Note Name: G#3
Note OFF: Time 20388, Note Name: A#2
Note OFF: Time 20388, Note Name: D3
Note OFF: Time 20388, Note Name: F3
Note ON: Time 20400, Note Name: A#2, Velocity: 18
Note ON: Time 20400, Note Name: D3, Velocity: 18
Note ON: Time 20400, Note Name: F3, Velocity: 23
Note ON: Time 20400, Note Name: G#3, Velocity: 28
Note OFF: Time 20628, Note Name: G#3
Note OFF: Time 20628, Note Name: A#2
Note OFF: Time 20628, Note Name: D3
Note OFF: Time 20628, Note Name: F3
Note ON: Time 20640, Note Name: A#2, Velocity: 18
Note ON: Time 20640, Note Name: D3, Velocity: 18
Note ON: Time 20640, Note Name: F3, Velocity: 23
Note ON: Time 20640, Note Name: G#3, Velocity: 28
Note OFF: Time 20868, Note Name: G#3
Note OFF: Time 20868, Note Name: A#2
Note OFF: Time 20868, Note Name: D3
Note OFF: Time 20868, Note Name: F3
Note ON: Time 20880, Note Name: A#2, Velocity: 18
Note ON: Time 20880, Note Name: D3, Velocity: 18
Note ON: Time 20880, Note Name: F3, Velocity: 23
Note ON: Time 20880, Note Name: G#3, Velocity: 28
Note OFF: Time 21108, Note Name: G#3
Note OFF: Time 21108, Note Name: A#2
Note OFF: Time 21108, Note Name: D3
Note OFF: Time 21108, Note Name: F3
Note ON: Time 21120, Note Name: A#2, Velocity: 19
Note ON: Time 21120, Note Name: C#3, Velocity: 19
Note ON: Time 21120, Note Name: E3, Velocity: 24
Note ON: Time 21120, Note Name: G3, Velocity: 28
Note OFF: Time 21348, Note Name: G3
Note OFF: Time 21348, Note Name: A#2
Note OFF: Time 21348, Note Name: C#3
Note OFF: Time 21348, Note Name: E3
Note ON: Time 21360, Note Name: A#2, Velocity: 19
Note ON: Time 21360, Note Name: C#3, Velocity: 19
Note ON: Time 21360, Note Name: E3, Velocity: 25
Note ON: Time 21360, Note Name: G3, Velocity: 29
Note OFF: Time 21588, Note Name: G3
Note OFF: Time 21588, Note Name: A#2
Note OFF: Time 21588, Note Name: C#3
Note OFF: Time 21588, Note Name: E3
Note ON: Time 21600, Note Name: A#2, Velocity: 19
Note ON: Time 21600, Note Name: C#3, Velocity: 19
Note ON: Time 21600, Note Name: E3, Velocity: 25
Note ON: Time 21600, Note Name: G3, Velocity: 29
Note OFF: Time 21828, Note Name: G3
Note OFF: Time 21828, Note Name: A#2
Note OFF: Time 21828, Note Name: C#3
Note OFF: Time 21828, Note Name: E3
Note ON: Time 21840, Note Name: A#2, Velocity: 19
Note ON: Time 21840, Note Name: C#3, Velocity: 19
Note ON: Time 21840, Note Name: E3, Velocity: 25
Note ON: Time 21840, Note Name: G3, Velocity: 29
Note OFF: Time 22068, Note Name: G3
Note OFF: Time 22068, Note Name: A#2
Note OFF: Time 22068, Note Name: C#3
Note OFF: Time 22068, Note Name: E3
Note ON: Time 22080, Note Name: A1, Velocity: 68
Note ON: Time 22080, Note Name: A2, Velocity: 81
Note OFF: Time 22308, Note Name: A2
Note OFF: Time 22308, Note Name: A1
Note ON: Time 22320, Note Name: A1, Velocity: 68
Note ON: Time 22320, Note Name: A2, Velocity: 81
Note OFF: Time 22548, Note Name: A2
Note OFF: Time 22548, Note Name: A1
Note ON: Time 22560, Note Name: G1, Velocity: 68
Note ON: Time 22560, Note Name: G2, Velocity: 81
Note OFF: Time 22788, Note Name: G2
Note OFF: Time 22788, Note Name: G1
Note ON: Time 22800, Note Name: G1, Velocity: 68
Note ON: Time 22800, Note Name: G2, Velocity: 81
Note OFF: Time 23028, Note Name: G2
Note OFF: Time 23028, Note Name: G1
Note ON: Time 23040, Note Name: F#1, Velocity: 68
Note ON: Time 23040, Note Name: F#2, Velocity: 81
Note OFF: Time 23268, Note Name: F#2
Note OFF: Time 23268, Note Name: F#1
Note ON: Time 23280, Note Name: F#3, Velocity: 24
Note ON: Time 23280, Note Name: A3, Velocity: 28
Note ON: Time 23280, Note Name: D4, Velocity: 34
Note OFF: Time 23508, Note Name: D4
Note OFF: Time 23508, Note Name: A3
Note OFF: Time 23508, Note Name: F#3
Note ON: Time 23520, Note Name: F#3, Velocity: 24
Note ON: Time 23520, Note Name: A3, Velocity: 28
Note ON: Time 23520, Note Name: D4, Velocity: 34
Note OFF: Time 23748, Note Name: D4
Note OFF: Time 23748, Note Name: A3
Note OFF: Time 23748, Note Name: F#3
Note ON: Time 23760, Note Name: F#3, Velocity: 24
Note ON: Time 23760, Note Name: A3, Velocity: 28
Note ON: Time 23760, Note Name: D4, Velocity: 34
Note OFF: Time 23988, Note Name: D4
Note OFF: Time 23988, Note Name: A3
Note OFF: Time 23988, Note Name: F#3
Note ON: Time 24000, Note Name: F#3, Velocity: 24
Note ON: Time 24000, Note Name: A3, Velocity: 28
Note ON: Time 24000, Note Name: D4, Velocity: 34
Note OFF: Time 24228, Note Name: D4
Note OFF: Time 24228, Note Name: A3
Note OFF: Time 24228, Note Name: F#3
Note ON: Time 24240, Note Name: F#3, Velocity: 24
Note ON: Time 24240, Note Name: A3, Velocity: 28
Note ON: Time 24240, Note Name: D4, Velocity: 34
Note OFF: Time 24468, Note Name: D4
Note OFF: Time 24468, Note Name: A3
Note OFF: Time 24468, Note Name: F#3
Note ON: Time 24480, Note Name: F#3, Velocity: 24
Note ON: Time 24480, Note Name: A3, Velocity: 28
Note ON: Time 24480, Note Name: D4, Velocity: 34
Note OFF: Time 24708, Note Name: D4
Note OFF: Time 24708, Note Name: A3
Note OFF: Time 24708, Note Name: F#3
Note ON: Time 24720, Note Name: F#3, Velocity: 24
Note ON: Time 24720, Note Name: A3, Velocity: 28
Note ON: Time 24720, Note Name: D4, Velocity: 34
Note OFF: Time 24948, Note Name: D4
Note OFF: Time 24948, Note Name: A3
Note OFF: Time 24948, Note Name: F#3
Note ON: Time 24960, Note Name: F3, Velocity: 25
Note ON: Time 24960, Note Name: G#3, Velocity: 29
Note ON: Time 24960, Note Name: D4, Velocity: 35
Note OFF: Time 25188, Note Name: D4
Note OFF: Time 25188, Note Name: G#3
Note OFF: Time 25188, Note Name: F3
Note ON: Time 25200, Note Name: F3, Velocity: 25
Note ON: Time 25200, Note Name: G#3, Velocity: 30
Note ON: Time 25200, Note Name: D4, Velocity: 36
Note OFF: Time 25428, Note Name: D4
Note OFF: Time 25428, Note Name: G#3
Note OFF: Time 25428, Note Name: F3
Note ON: Time 25440, Note Name: F3, Velocity: 25
Note ON: Time 25440, Note Name: G#3, Velocity: 30
Note ON: Time 25440, Note Name: D4, Velocity: 36
Note OFF: Time 25668, Note Name: D4
Note OFF: Time 25668, Note Name: G#3
Note OFF: Time 25668, Note Name: F3
Note ON: Time 25680, Note Name: F3, Velocity: 25
Note ON: Time 25680, Note Name: G#3, Velocity: 30
Note ON: Time 25680, Note Name: D4, Velocity: 36
Note OFF: Time 25908, Note Name: D4
Note OFF: Time 25908, Note Name: G#3
Note OFF: Time 25908, Note Name: F3
Note ON: Time 25920, Note Name: D3, Velocity: 35
Note ON: Time 25920, Note Name: F3, Velocity: 42
Note ON: Time 25920, Note Name: B3, Velocity: 50
Note OFF: Time 26148, Note Name: B3
Note OFF: Time 26148, Note Name: F3
Note OFF: Time 26148, Note Name: D3
Note ON: Time 26160, Note Name: D3, Velocity: 35
Note ON: Time 26160, Note Name: F3, Velocity: 42
Note ON: Time 26160, Note Name: B3, Velocity: 50
Note OFF: Time 26388, Note Name: B3
Note OFF: Time 26388, Note Name: F3
Note OFF: Time 26388, Note Name: D3
Note ON: Time 26400, Note Name: D3, Velocity: 35
Note ON: Time 26400, Note Name: F3, Velocity: 42
Note ON: Time 26400, Note Name: B3, Velocity: 50
Note OFF: Time 26628, Note Name: B3
Note OFF: Time 26628, Note Name: F3
Note OFF: Time 26628, Note Name: D3
Note ON: Time 26640, Note Name: D3, Velocity: 35
Note ON: Time 26640, Note Name: F3, Velocity: 42
Note ON: Time 26640, Note Name: B3, Velocity: 50
Note OFF: Time 26868, Note Name: B3
Note OFF: Time 26868, Note Name: F3
Note OFF: Time 26868, Note Name: D3
Note ON: Time 26880, Note Name: B2, Velocity: 47
Note ON: Time 26880, Note Name: D3, Velocity: 47
Note ON: Time 26880, Note Name: G#3, Velocity: 56
Note OFF: Time 27108, Note Name: G#3
Note OFF: Time 27108, Note Name: D3
Note OFF: Time 27108, Note Name: B2
Note ON: Time 27120, Note Name: B2, Velocity: 49
Note ON: Time 27120, Note Name: D3, Velocity: 49
Note ON: Time 27120, Note Name: G#3, Velocity: 58
Note OFF: Time 27348, Note Name: G#3
Note OFF: Time 27348, Note Name: D3
Note OFF: Time 27348, Note Name: B2
Note ON: Time 27360, Note Name: B2, Velocity: 44
Note ON: Time 27360, Note Name: D3, Velocity: 44
Note ON: Time 27360, Note Name: G#3, Velocity: 52
Note OFF: Time 27588, Note Name: G#3
Note OFF: Time 27588, Note Name: D3
Note OFF: Time 27588, Note Name: B2
Note ON: Time 27600, Note Name: B2, Velocity: 44
Note ON: Time 27600, Note Name: D3, Velocity: 44
Note ON: Time 27600, Note Name: G#3, Velocity: 52
Note OFF: Time 27828, Note Name: G#3
Note OFF: Time 27828, Note Name: D3
Note OFF: Time 27828, Note Name: B2
Note ON: Time 27840, Note Name: G#2, Velocity: 45
Note ON: Time 27840, Note Name: B2, Velocity: 53
Note ON: Time 27840, Note Name: F3, Velocity: 63
Note OFF: Time 28068, Note Name: F3
Note OFF: Time 28068, Note Name: B2
Note OFF: Time 28068, Note Name: G#2
Note ON: Time 28080, Note Name: G#2, Velocity: 45
Note ON: Time 28080, Note Name: B2, Velocity: 53
Note ON: Time 28080, Note Name: F3, Velocity: 63
Note OFF: Time 28308, Note Name: F3
Note OFF: Time 28308, Note Name: B2
Note OFF: Time 28308, Note Name: G#2
Note ON: Time 28320, Note Name: G#2, Velocity: 45
Note ON: Time 28320, Note Name: B2, Velocity: 53
Note ON: Time 28320, Note Name: F3, Velocity: 63
Note OFF: Time 28548, Note Name: F3
Note OFF: Time 28548, Note Name: B2
Note OFF: Time 28548, Note Name: G#2
Note ON: Time 28560, Note Name: G#2, Velocity: 45
Note ON: Time 28560, Note Name: B2, Velocity: 53
Note ON: Time 28560, Note Name: F3, Velocity: 63
Note OFF: Time 28788, Note Name: F3
Note OFF: Time 28788, Note Name: B2
Note OFF: Time 28788, Note Name: G#2
Note ON: Time 28800, Note Name: G2, Velocity: 45
Note ON: Time 28800, Note Name: B2, Velocity: 53
Note ON: Time 28800, Note Name: F3, Velocity: 64
Note OFF: Time 29028, Note Name: F3
Note OFF: Time 29028, Note Name: B2
Note OFF: Time 29028, Note Name: G2
Note ON: Time 29040, Note Name: G2, Velocity: 45
Note ON: Time 29040, Note Name: B2, Velocity: 53
Note ON: Time 29040, Note Name: F3, Velocity: 64
Note OFF: Time 29268, Note Name: F3
Note OFF: Time 29268, Note Name: B2
Note OFF: Time 29268, Note Name: G2
Note ON: Time 29280, Note Name: G2, Velocity: 45
Note ON: Time 29280, Note Name: B2, Velocity: 53
Note ON: Time 29280, Note Name: F3, Velocity: 64
Note OFF: Time 29508, Note Name: F3
Note OFF: Time 29508, Note Name: B2
Note OFF: Time 29508, Note Name: G2
Note ON: Time 29520, Note Name: G2, Velocity: 45
Note ON: Time 29520, Note Name: B2, Velocity: 53
Note ON: Time 29520, Note Name: F3, Velocity: 64
Note OFF: Time 29748, Note Name: F3
Note OFF: Time 29748, Note Name: B2
Note OFF: Time 29748, Note Name: G2
Note ON: Time 29760, Note Name: G#2, Velocity: 46
Note ON: Time 29760, Note Name: C3, Velocity: 55
Note ON: Time 29760, Note Name: F3, Velocity: 66
Note OFF: Time 29988, Note Name: F3
Note OFF: Time 29988, Note Name: C3
Note OFF: Time 29988, Note Name: G#2
Note ON: Time 30000, Note Name: G#2, Velocity: 48
Note ON: Time 30000, Note Name: C3, Velocity: 57
Note ON: Time 30000, Note Name: F3, Velocity: 68
Note OFF: Time 30228, Note Name: F3
Note OFF: Time 30228, Note Name: C3
Note OFF: Time 30228, Note Name: G#2
Note ON: Time 30240, Note Name: G#2, Velocity: 50
Note ON: Time 30240, Note Name: C3, Velocity: 60
Note ON: Time 30240, Note Name: F3, Velocity: 70
Note OFF: Time 30468, Note Name: F3
Note OFF: Time 30468, Note Name: C3
Note OFF: Time 30468, Note Name: G#2
Note ON: Time 30480, Note Name: G#2, Velocity: 51
Note ON: Time 30480, Note Name: C3, Velocity: 61
Note ON: Time 30480, Note Name: F3, Velocity: 73
Note OFF: Time 30708, Note Name: F3
Note OFF: Time 30708, Note Name: C3
Note OFF: Time 30708, Note Name: G#2
Note ON: Time 30720, Note Name: G2, Velocity: 75
Note ON: Time 30720, Note Name: B2, Velocity: 75
Note ON: Time 30720, Note Name: F3, Velocity: 75
Note OFF: Time 31200, Note Name: F3
Note OFF: Time 31200, Note Name: B2
Note OFF: Time 31200, Note Name: G2
Note ON: Time 32160, Note Name: G4, Velocity: 35
Note ON: Time 32160, Note Name: D5, Velocity: 42
Note OFF: Time 32280, Note Name: D5
Note OFF: Time 32280, Note Name: G4
Note ON: Time 32400, Note Name: G4, Velocity: 35
Note ON: Time 32400, Note Name: D5, Velocity: 42
Note OFF: Time 32520, Note Name: D5
Note OFF: Time 32520, Note Name: G4
Note ON: Time 32640, Note Name: G#4, Velocity: 35
Note ON: Time 32640, Note Name: C5, Velocity: 42
Note OFF: Time 33120, Note Name: C5
Note OFF: Time 33120, Note Name: G#4
Note ON: Time 36000, Note Name: C4, Velocity: 28
Note ON: Time 36000, Note Name: F3, Velocity: 28
Note ON: Time 36000, Note Name: D4, Velocity: 34
Note OFF: Time 36120, Note Name: D4
Note OFF: Time 36120, Note Name: F3
Note OFF: Time 36120, Note Name: C4
Note ON: Time 36240, Note Name: C4, Velocity: 28
Note ON: Time 36240, Note Name: F3, Velocity: 28
Note ON: Time 36240, Note Name: D4, Velocity: 34
Note OFF: Time 36360, Note Name: D4
Note OFF: Time 36360, Note Name: F3
Note OFF: Time 36360, Note Name: C4
Note ON: Time 36480, Note Name: C4, Velocity: 28
Note ON: Time 36480, Note Name: G3, Velocity: 28
Note ON: Time 36480, Note Name: D#4, Velocity: 34
Note OFF: Time 36960, Note Name: D#4
Note OFF: Time 36960, Note Name: G3
Note OFF: Time 36960, Note Name: C4
Note ON: Time 37440, Note Name: G2, Velocity: 33
Note ON: Time 37440, Note Name: D3, Velocity: 33
Note ON: Time 37440, Note Name: F3, Velocity: 40
Note OFF: Time 37920, Note Name: F3
Note OFF: Time 37920, Note Name: D3
Note OFF: Time 37920, Note Name: G2
Note ON: Time 38880, Note Name: C2, Velocity: 44
Note ON: Time 39000, Note Name: C3, Velocity: 41
Note OFF: Time 39108, Note Name: C2
Note OFF: Time 39120, Note Name: C3
Note ON: Time 39120, Note Name: C2, Velocity: 44
Note ON: Time 39240, Note Name: C3, Velocity: 41
Note OFF: Time 39348, Note Name: C2
Note OFF: Time 39360, Note Name: C3
Note ON: Time 39360, Note Name: C2, Velocity: 44
Note ON: Time 39480, Note Name: C3, Velocity: 41
Note OFF: Time 39588, Note Name: C2
Note OFF: Time 39600, Note Name: C3
Note ON: Time 39600, Note Name: C2, Velocity: 45
Note ON: Time 39720, Note Name: C3, Velocity: 41
Note OFF: Time 39828, Note Name: C2
Note OFF: Time 39840, Note Name: C3
Note ON: Time 39840, Note Name: C2, Velocity: 45
Note ON: Time 39960, Note Name: C3, Velocity: 46
Note OFF: Time 40068, Note Name: C2
Note OFF: Time 40080, Note Name: C3
Note ON: Time 40080, Note Name: C2, Velocity: 47
Note ON: Time 40200, Note Name: C3, Velocity: 47
Note OFF: Time 40308, Note Name: C2
Note OFF: Time 40320, Note Name: C3
Note ON: Time 40320, Note Name: C2, Velocity: 49
Note ON: Time 40440, Note Name: C3, Velocity: 50
Note OFF: Time 40548, Note Name: C2
Note OFF: Time 40560, Note Name: C3
Note ON: Time 40560, Note Name: C2, Velocity: 51
Note ON: Time 40680, Note Name: C3, Velocity: 53
Note OFF: Time 40788, Note Name: C2
Note OFF: Time 40800, Note Name: C3
Note ON: Time 40800, Note Name: C2, Velocity: 55
Note ON: Time 40920, Note Name: C3, Velocity: 50
Note OFF: Time 41028, Note Name: C2
Note OFF: Time 41040, Note Name: C3
Note ON: Time 41040, Note Name: C2, Velocity: 53
Note ON: Time 41160, Note Name: C3, Velocity: 47
Note OFF: Time 41268, Note Name: C2
Note OFF: Time 41280, Note Name: C3
Note ON: Time 41280, Note Name: C2, Velocity: 53
Note ON: Time 41400, Note Name: C3, Velocity: 47
Note OFF: Time 41508, Note Name: C2
Note OFF: Time 41520, Note Name: C3
Note ON: Time 41520, Note Name: C2, Velocity: 44
Note ON: Time 41640, Note Name: C3, Velocity: 40
Note OFF: Time 41748, Note Name: C2
Note OFF: Time 41760, Note Name: C3
Note ON: Time 41760, Note Name: C2, Velocity: 43
Note ON: Time 41880, Note Name: C3, Velocity: 45
Note OFF: Time 41988, Note Name: C2
Note OFF: Time 42000, Note Name: C3
Note ON: Time 42000, Note Name: C2, Velocity: 46
Note ON: Time 42120, Note Name: C3, Velocity: 47
Note OFF: Time 42228, Note Name: C2
Note OFF: Time 42240, Note Name: C3
Note ON: Time 42240, Note Name: C2, Velocity: 48
Note ON: Time 42360, Note Name: C3, Velocity: 50
Note OFF: Time 42468, Note Name: C2
Note OFF: Time 42480, Note Name: C3
Note ON: Time 42480, Note Name: C2, Velocity: 51
Note ON: Time 42600, Note Name: C3, Velocity: 53
Note OFF: Time 42708, Note Name: C2
Note OFF: Time 42720, Note Name: C3
Note ON: Time 42720, Note Name: C2, Velocity: 55
Note ON: Time 42840, Note Name: C3, Velocity: 50
Note OFF: Time 42948, Note Name: C2
Note OFF: Time 42960, Note Name: C3
Note ON: Time 42960, Note Name: C2, Velocity: 53
Note ON: Time 43080, Note Name: C3, Velocity: 47
Note OFF: Time 43188, Note Name: C2
Note OFF: Time 43200, Note Name: C3
Note ON: Time 43200, Note Name: D2, Velocity: 55
Note ON: Time 43320, Note Name: D3, Velocity: 50
Note OFF: Time 43428, Note Name: D2
Note OFF: Time 43440, Note Name: D3
Note ON: Time 43440, Note Name: D2, Velocity: 55
Note ON: Time 43560, Note Name: D3, Velocity: 51
Note OFF: Time 43668, Note Name: D2
Note OFF: Time 43680, Note Name: D3
Note ON: Time 43680, Note Name: D#2, Velocity: 55
Note ON: Time 43800, Note Name: D#3, Velocity: 55
Note OFF: Time 43908, Note Name: D#2
Note OFF: Time 43920, Note Name: D#3
Note ON: Time 43920, Note Name: D#2, Velocity: 55
Note ON: Time 44040, Note Name: D#3, Velocity: 55
Note OFF: Time 44148, Note Name: D#2
Note OFF: Time 44160, Note Name: D#3
Note ON: Time 44160, Note Name: F2, Velocity: 55
Note ON: Time 44280, Note Name: F3, Velocity: 53
Note OFF: Time 44388, Note Name: F2
Note OFF: Time 44400, Note Name: F3
Note ON: Time 44400, Note Name: F2, Velocity: 55
Note ON: Time 44520, Note Name: F3, Velocity: 55
Note OFF: Time 44628, Note Name: F2
Note OFF: Time 44640, Note Name: F3
Note ON: Time 44640, Note Name: G2, Velocity: 56
Note ON: Time 44760, Note Name: G3, Velocity: 56
Note OFF: Time 44868, Note Name: G2
Note OFF: Time 44880, Note Name: G3
Note ON: Time 44880, Note Name: G2, Velocity: 57
Note ON: Time 45000, Note Name: G3, Velocity: 57
Note OFF: Time 45108, Note Name: G2
Note OFF: Time 45120, Note Name: G3
Note ON: Time 45120, Note Name: G#2, Velocity: 58
Note ON: Time 45240, Note Name: G#3, Velocity: 59
Note OFF: Time 45348, Note Name: G#2
Note OFF: Time 45360, Note Name: G#3
Note ON: Time 45360, Note Name: G#2, Velocity: 59
Note ON: Time 45480, Note Name: G#3, Velocity: 60
Note OFF: Time 45588, Note Name: G#2
Note OFF: Time 45600, Note Name: G#3
Note ON: Time 45600, Note Name: F#2, Velocity: 60
Note ON: Time 45720, Note Name: F#3, Velocity: 55
Note OFF: Time 45828, Note Name: F#2
Note OFF: Time 45840, Note Name: F#3
Note ON: Time 45840, Note Name: F#2, Velocity: 61
Note ON: Time 45960, Note Name: F#3, Velocity: 55
Note OFF: Time 46068, Note Name: F#2
Note OFF: Time 46080, Note Name: F#3
Note ON: Time 46080, Note Name: G2, Velocity: 58
Note ON: Time 46200, Note Name: G3, Velocity: 55
Note OFF: Time 46308, Note Name: G2
Note OFF: Time 46320, Note Name: G3
Note ON: Time 46320, Note Name: G2, Velocity: 58
Note ON: Time 46440, Note Name: G3, Velocity: 55
Note OFF: Time 46548, Note Name: G2
Note OFF: Time 46560, Note Name: G3
Note ON: Time 46560, Note Name: C2, Velocity: 48
Note ON: Time 46680, Note Name: C3, Velocity: 45
Note OFF: Time 46788, Note Name: C2
Note OFF: Time 46800, Note Name: C3
Note ON: Time 46800, Note Name: C2, Velocity: 44
Note ON: Time 46920, Note Name: C3, Velocity: 41
Note OFF: Time 47028, Note Name: C2
Note OFF: Time 47040, Note Name: C3
Note ON: Time 47040, Note Name: C2, Velocity: 44
Note ON: Time 47160, Note Name: C3, Velocity: 40
Note OFF: Time 47268, Note Name: C2
Note OFF: Time 47280, Note Name: C3
Note ON: Time 47280, Note Name: C2, Velocity: 44
Note ON: Time 47400, Note Name: C3, Velocity: 41
Note OFF: Time 47508, Note Name: C2
Note OFF: Time 47520, Note Name: C3
Note ON: Time 47520, Note Name: C2, Velocity: 44
Note ON: Time 47640, Note Name: C3, Velocity: 46
Note OFF: Time 47748, Note Name: C2
Note OFF: Time 47760, Note Name: C3
Note ON: Time 47760, Note Name: C2, Velocity: 47
Note ON: Time 47880, Note Name: C3, Velocity: 47
Note OFF: Time 47988, Note Name: C2
Note OFF: Time 48000, Note Name: C3
Note ON: Time 48000, Note Name: C2, Velocity: 49
Note ON: Time 48120, Note Name: C3, Velocity: 50
Note OFF: Time 48228, Note Name: C2
Note OFF: Time 48240, Note Name: C3
Note ON: Time 48240, Note Name: C2, Velocity: 51
Note ON: Time 48360, Note Name: C3, Velocity: 53
Note OFF: Time 48468, Note Name: C2
Note OFF: Time 48480, Note Name: C3
Note ON: Time 48480, Note Name: C2, Velocity: 55
Note ON: Time 48600, Note Name: C3, Velocity: 50
Note OFF: Time 48708, Note Name: C2
Note OFF: Time 48720, Note Name: C3
Note ON: Time 48720, Note Name: C2, Velocity: 53
Note ON: Time 48840, Note Name: C3, Velocity: 47
Note OFF: Time 48948, Note Name: C2
Note OFF: Time 48960, Note Name: C3
Note ON: Time 48960, Note Name: C2, Velocity: 53
Note ON: Time 49080, Note Name: C3, Velocity: 47
Note OFF: Time 49188, Note Name: C2
Note OFF: Time 49200, Note Name: C3
Note ON: Time 49200, Note Name: C2, Velocity: 44
Note ON: Time 49320, Note Name: C3, Velocity: 40
Note OFF: Time 49428, Note Name: C2
Note OFF: Time 49440, Note Name: C3
Note ON: Time 49440, Note Name: C2, Velocity: 43
Note ON: Time 49560, Note Name: C3, Velocity: 45
Note OFF: Time 49668, Note Name: C2
Note OFF: Time 49680, Note Name: C3
Note ON: Time 49680, Note Name: C2, Velocity: 46
Note ON: Time 49800, Note Name: C3, Velocity: 47
Note OFF: Time 49908, Note Name: C2
Note OFF: Time 49920, Note Name: C3
Note ON: Time 49920, Note Name: C2, Velocity: 48
Note ON: Time 50040, Note Name: C3, Velocity: 50
Note OFF: Time 50148, Note Name: C2
Note OFF: Time 50160, Note Name: C3
Note ON: Time 50160, Note Name: C2, Velocity: 51
Note ON: Time 50280, Note Name: C3, Velocity: 53
Note OFF: Time 50388, Note Name: C2
Note OFF: Time 50400, Note Name: C3
Note ON: Time 50400, Note Name: C2, Velocity: 55
Note ON: Time 50520, Note Name: C3, Velocity: 50
Note OFF: Time 50628, Note Name: C2
Note OFF: Time 50640, Note Name: C3
Note ON: Time 50640, Note Name: C2, Velocity: 53
Note ON: Time 50760, Note Name: C3, Velocity: 47
Note OFF: Time 50868, Note Name: C2
Note OFF: Time 50880, Note Name: C3
Note ON: Time 50880, Note Name: D2, Velocity: 55
Note ON: Time 51000, Note Name: D3, Velocity: 50
Note OFF: Time 51108, Note Name: D2
Note OFF: Time 51120, Note Name: D3
Note ON: Time 51120, Note Name: D2, Velocity: 55
Note ON: Time 51240, Note Name: D3, Velocity: 51
Note OFF: Time 51348, Note Name: D2
Note OFF: Time 51360, Note Name: D3
Note ON: Time 51360, Note Name: D#2, Velocity: 55
Note ON: Time 51480, Note Name: D#3, Velocity: 55
Note OFF: Time 51588, Note Name: D#2
Note OFF: Time 51600, Note Name: D#3
Note ON: Time 51600, Note Name: D#2, Velocity: 55
Note ON: Time 51720, Note Name: D#3, Velocity: 55
Note OFF: Time 51828, Note Name: D#2
Note OFF: Time 51840, Note Name: D#3
Note ON: Time 51840, Note Name: F2, Velocity: 55
Note ON: Time 51960, Note Name: F3, Velocity: 53
Note OFF: Time 52068, Note Name: F2
Note OFF: Time 52080, Note Name: F3
Note ON: Time 52080, Note Name: F2, Velocity: 55
Note ON: Time 52200, Note Name: F3, Velocity: 55
Note OFF: Time 52308, Note Name: F2
Note OFF: Time 52320, Note Name: F3
Note ON: Time 52320, Note Name: G2, Velocity: 56
Note ON: Time 52440, Note Name: G3, Velocity: 56
Note OFF: Time 52548, Note Name: G2
Note OFF: Time 52560, Note Name: G3
Note ON: Time 52560, Note Name: G2, Velocity: 57
Note ON: Time 52680, Note Name: G3, Velocity: 57
Note OFF: Time 52788, Note Name: G2
Note OFF: Time 52800, Note Name: G3
Note ON: Time 52800, Note Name: G#2, Velocity: 58
Note ON: Time 52920, Note Name: G#3, Velocity: 59
Note OFF: Time 53028, Note Name: G#2
Note OFF: Time 53040, Note Name: G#3
Note ON: Time 53040, Note Name: G#2, Velocity: 59
Note ON: Time 53160, Note Name: G#3, Velocity: 60
Note OFF: Time 53268, Note Name: G#2
Note OFF: Time 53280, Note Name: G#3
Note ON: Time 53280, Note Name: F#2, Velocity: 60
Note ON: Time 53400, Note Name: F#3, Velocity: 55
Note OFF: Time 53508, Note Name: F#2
Note OFF: Time 53520, Note Name: F#3
Note ON: Time 53520, Note Name: F#2, Velocity: 61
Note ON: Time 53640, Note Name: F#3, Velocity: 55
Note OFF: Time 53748, Note Name: F#2
Note OFF: Time 53760, Note Name: F#3
Note ON: Time 53760, Note Name: F#2, Velocity: 58
Note ON: Time 53880, Note Name: F#3, Velocity: 55
Note OFF: Time 53988, Note Name: F#2
Note OFF: Time 54000, Note Name: F#3
Note ON: Time 54000, Note Name: F#2, Velocity: 58
Note ON: Time 54120, Note Name: F#3, Velocity: 55
Note OFF: Time 54228, Note Name: F#2
Note OFF: Time 54240, Note Name: F#3
Note ON: Time 54240, Note Name: G2, Velocity: 55
Note ON: Time 54240, Note Name: G3, Velocity: 55
Note OFF: Time 54480, Note Name: G3
Note OFF: Time 54480, Note Name: G2
Note ON: Time 54480, Note Name: D4, Velocity: 50
Note ON: Time 54480, Note Name: B3, Velocity: 50
Note OFF: Time 54708, Note Name: B3
Note OFF: Time 54708, Note Name: D4
Note ON: Time 54720, Note Name: D4, Velocity: 50
Note ON: Time 54720, Note Name: B3, Velocity: 50
Note OFF: Time 54948, Note Name: B3
Note OFF: Time 54948, Note Name: D4
Note ON: Time 54960, Note Name: B3, Velocity: 50
Note ON: Time 54960, Note Name: D4, Velocity: 50
Note OFF: Time 55188, Note Name: D4
Note OFF: Time 55188, Note Name: B3
Note ON: Time 55200, Note Name: G3, Velocity: 50
Note OFF: Time 55440, Note Name: G3
Note ON: Time 55440, Note Name: D#4, Velocity: 50
Note ON: Time 55440, Note Name: C4, Velocity: 50
Note OFF: Time 55668, Note Name: C4
Note OFF: Time 55668, Note Name: D#4
Note ON: Time 55680, Note Name: D#4, Velocity: 50
Note ON: Time 55680, Note Name: C4, Velocity: 50
Note OFF: Time 55908, Note Name: C4
Note OFF: Time 55908, Note Name: D#4
Note ON: Time 55920, Note Name: D#4, Velocity: 50
Note ON: Time 55920, Note Name: C4, Velocity: 50
Note OFF: Time 56148, Note Name: C4
Note OFF: Time 56148, Note Name: D#4
Note ON: Time 56160, Note Name: F4, Velocity: 50
Note ON: Time 56160, Note Name: D4, Velocity: 50
Note OFF: Time 56400, Note Name: D4
Note OFF: Time 56400, Note Name: F4
Note ON: Time 57600, Note Name: G#1, Velocity: 55
Note OFF: Time 57720, Note Name: G#1
Note ON: Time 57720, Note Name: G#2, Velocity: 55
Note OFF: Time 57840, Note Name: G#2
Note ON: Time 57840, Note Name: G#1, Velocity: 55
Note OFF: Time 57960, Note Name: G#1
Note ON: Time 57960, Note Name: G#2, Velocity: 55
Note OFF: Time 58080, Note Name: G#2
Note ON: Time 58080, Note Name: G1, Velocity: 50
Note ON: Time 58080, Note Name: G2, Velocity: 50
Note OFF: Time 58320, Note Name: G2
Note OFF: Time 58320, Note Name: G1
Note ON: Time 58320, Note Name: D4, Velocity: 50
Note ON: Time 58320, Note Name: B3, Velocity: 50
Note OFF: Time 58548, Note Name: B3
Note OFF: Time 58548, Note Name: D4
Note ON: Time 58560, Note Name: D4, Velocity: 50
Note ON: Time 58560, Note Name: B3, Velocity: 50
Note OFF: Time 58788, Note Name: B3
Note OFF: Time 58788, Note Name: D4
Note ON: Time 58800, Note Name: B3, Velocity: 50
Note ON: Time 58800, Note Name: D4, Velocity: 50
Note OFF: Time 59028, Note Name: D4
Note OFF: Time 59028, Note Name: B3
Note ON: Time 59040, Note Name: G3, Velocity: 50
Note OFF: Time 59280, Note Name: G3
Note ON: Time 59280, Note Name: D#4, Velocity: 50
Note ON: Time 59280, Note Name: C4, Velocity: 50
Note OFF: Time 59508, Note Name: C4
Note OFF: Time 59508, Note Name: D#4
Note ON: Time 59520, Note Name: D#4, Velocity: 50
Note ON: Time 59520, Note Name: C4, Velocity: 50
Note OFF: Time 59748, Note Name: C4
Note OFF: Time 59748, Note Name: D#4
Note ON: Time 59760, Note Name: D#4, Velocity: 50
Note ON: Time 59760, Note Name: C4, Velocity: 50
Note OFF: Time 59988, Note Name: C4
Note OFF: Time 59988, Note Name: D#4
Note ON: Time 60000, Note Name: F4, Velocity: 50
Note ON: Time 60000, Note Name: D4, Velocity: 50
Note OFF: Time 60240, Note Name: D4
Note OFF: Time 60240, Note Name: F4
Note ON: Time 61440, Note Name: G#1, Velocity: 55
Note ON: Time 61560, Note Name: G#2, Velocity: 55
Note OFF: Time 61668, Note Name: G#1
Note OFF: Time 61680, Note Name: G#2
Note ON: Time 61680, Note Name: G#1, Velocity: 55
Note ON: Time 61800, Note Name: G#2, Velocity: 49
Note OFF: Time 61908, Note Name: G#1
Note OFF: Time 61920, Note Name: G#2
Note ON: Time 61920, Note Name: G1, Velocity: 50
Note ON: Time 62040, Note Name: G2, Velocity: 51
Note OFF: Time 62148, Note Name: G1
Note OFF: Time 62160, Note Name: G2
Note ON: Time 62160, Note Name: G1, Velocity: 51
Note ON: Time 62280, Note Name: G2, Velocity: 52
Note OFF: Time 62388, Note Name: G1
Note OFF: Time 62400, Note Name: G2
Note ON: Time 62400, Note Name: G1, Velocity: 53
Note ON: Time 62520, Note Name: G2, Velocity: 54
Note OFF: Time 62628, Note Name: G1
Note OFF: Time 62640, Note Name: G2
Note ON: Time 62640, Note Name: G1, Velocity: 55
Note ON: Time 62760, Note Name: G2, Velocity: 56
Note OFF: Time 62868, Note Name: G1
Note OFF: Time 62880, Note Name: G2
Note ON: Time 62880, Note Name: G1, Velocity: 57
Note ON: Time 63000, Note Name: G2, Velocity: 58
Note OFF: Time 63108, Note Name: G1
Note OFF: Time 63120, Note Name: G2
Note ON: Time 63120, Note Name: G1, Velocity: 59
Note ON: Time 63240, Note Name: G2, Velocity: 60
Note OFF: Time 63348, Note Name: G1
Note OFF: Time 63360, Note Name: G2
Note ON: Time 63360, Note Name: G1, Velocity: 61
Note ON: Time 63480, Note Name: G2, Velocity: 61
Note OFF: Time 63588, Note Name: G1
Note OFF: Time 63600, Note Name: G2
Note ON: Time 63600, Note Name: G1, Velocity: 62
Note ON: Time 63720, Note Name: G2, Velocity: 63
Note OFF: Time 63828, Note Name: G1
Note OFF: Time 63840, Note Name: G2
Note ON: Time 63840, Note Name: G1, Velocity: 64
Note ON: Time 63960, Note Name: G2, Velocity: 55
Note OFF: Time 64068, Note Name: G1
Note OFF: Time 64080, Note Name: G2
Note ON: Time 64080, Note Name: G1, Velocity: 61
Note ON: Time 64200, Note Name: G2, Velocity: 55
Note OFF: Time 64308, Note Name: G1
Note OFF: Time 64320, Note Name: G2
Note ON: Time 64320, Note Name: G1, Velocity: 61
Note ON: Time 64440, Note Name: G2, Velocity: 55
Note OFF: Time 64548, Note Name: G1
Note OFF: Time 64560, Note Name: G2
Note ON: Time 64560, Note Name: G1, Velocity: 60
Note ON: Time 64680, Note Name: G2, Velocity: 55
Note OFF: Time 64788, Note Name: G1
Note OFF: Time 64800, Note Name: G2
Note ON: Time 64800, Note Name: G1, Velocity: 64
Note ON: Time 64920, Note Name: G2, Velocity: 55
Note OFF: Time 65028, Note Name: G1
Note OFF: Time 65040, Note Name: G2
Note ON: Time 65040, Note Name: G1, Velocity: 61
Note ON: Time 65160, Note Name: G2, Velocity: 55
Note OFF: Time 65268, Note Name: G1
Note OFF: Time 65280, Note Name: G2
Note ON: Time 65280, Note Name: G1, Velocity: 61
Note ON: Time 65400, Note Name: G2, Velocity: 55
Note OFF: Time 65508, Note Name: G1
Note OFF: Time 65520, Note Name: G2
Note ON: Time 65520, Note Name: G1, Velocity: 60
Note ON: Time 65640, Note Name: G2, Velocity: 55
Note OFF: Time 65748, Note Name: G1
Note OFF: Time 65760, Note Name: G2
Note ON: Time 65760, Note Name: G#1, Velocity: 50
Note ON: Time 65880, Note Name: G#2, Velocity: 51
Note OFF: Time 65988, Note Name: G#1
Note OFF: Time 66000, Note Name: G#2
Note ON: Time 66000, Note Name: G#1, Velocity: 51
Note ON: Time 66120, Note Name: G#2, Velocity: 52
Note OFF: Time 66228, Note Name: G#1
Note OFF: Time 66240, Note Name: G#2
Note ON: Time 66240, Note Name: G#1, Velocity: 53
Note ON: Time 66360, Note Name: G#2, Velocity: 54
Note OFF: Time 66468, Note Name: G#1
Note OFF: Time 66480, Note Name: G#2
Note ON: Time 66480, Note Name: G#1, Velocity: 55
Note ON: Time 66600, Note Name: G#2, Velocity: 56
Note OFF: Time 66708, Note Name: G#1
Note OFF: Time 66720, Note Name: G#2
Note ON: Time 66720, Note Name: G#1, Velocity: 57
Note ON: Time 66840, Note Name: G#2, Velocity: 58
Note OFF: Time 66948, Note Name: G#1
Note OFF: Time 66960, Note Name: G#2
Note ON: Time 66960, Note Name: G#1, Velocity: 59
Note ON: Time 67080, Note Name: G#2, Velocity: 60
Note OFF: Time 67188, Note Name: G#1
Note OFF: Time 67200, Note Name: G#2
Note ON: Time 67200, Note Name: G#1, Velocity: 61
Note ON: Time 67320, Note Name: G#2, Velocity: 61
Note OFF: Time 67428, Note Name: G#1
Note OFF: Time 67440, Note Name: G#2
Note ON: Time 67440, Note Name: G#1, Velocity: 62
Note ON: Time 67560, Note Name: G#2, Velocity: 63
Note OFF: Time 67668, Note Name: G#1
Note OFF: Time 67680, Note Name: G#2
Note ON: Time 67680, Note Name: G#1, Velocity: 64
Note ON: Time 67800, Note Name: G#2, Velocity: 55
Note OFF: Time 67908, Note Name: G#1
Note OFF: Time 67920, Note Name: G#2
Note ON: Time 67920, Note Name: G#1, Velocity: 61
Note ON: Time 68040, Note Name: G#2, Velocity: 55
Note OFF: Time 68148, Note Name: G#1
Note OFF: Time 68160, Note Name: G#2
Note ON: Time 68160, Note Name: G#1, Velocity: 61
Note ON: Time 68280, Note Name: G#2, Velocity: 55
Note OFF: Time 68388, Note Name: G#1
Note OFF: Time 68400, Note Name: G#2
Note ON: Time 68400, Note Name: G#1, Velocity: 60
Note ON: Time 68520, Note Name: G#2, Velocity: 55
Note OFF: Time 68628, Note Name: G#1
Note OFF: Time 68640, Note Name: G#2
Note ON: Time 68640, Note Name: A1, Velocity: 64
Note ON: Time 68760, Note Name: A2, Velocity: 55
Note OFF: Time 68868, Note Name: A1
Note OFF: Time 68880, Note Name: A2
Note ON: Time 68880, Note Name: A1, Velocity: 61
Note ON: Time 69000, Note Name: A2, Velocity: 55
Note OFF: Time 69108, Note Name: A1
Note OFF: Time 69120, Note Name: A2
Note ON: Time 69120, Note Name: A1, Velocity: 61
Note ON: Time 69240, Note Name: A2, Velocity: 55
Note OFF: Time 69348, Note Name: A1
Note OFF: Time 69360, Note Name: A2
Note ON: Time 69360, Note Name: A1, Velocity: 60
Note ON: Time 69480, Note Name: A2, Velocity: 55
Note OFF: Time 69588, Note Name: A1
Note OFF: Time 69600, Note Name: A2
Note ON: Time 69600, Note Name: A#1, Velocity: 50
Note ON: Time 69720, Note Name: A#2, Velocity: 51
Note OFF: Time 69828, Note Name: A#1
Note OFF: Time 69840, Note Name: A#2
Note ON: Time 69840, Note Name: A#1, Velocity: 51
Note ON: Time 69960, Note Name: A#2, Velocity: 52
Note OFF: Time 70068, Note Name: A#1
Note OFF: Time 70080, Note Name: A#2
Note ON: Time 70080, Note Name: A#1, Velocity: 53
Note ON: Time 70200, Note Name: A#2, Velocity: 54
Note OFF: Time 70308, Note Name: A#1
Note OFF: Time 70320, Note Name: A#2
Note ON: Time 70320, Note Name: A#1, Velocity: 55
Note ON: Time 70440, Note Name: A#2, Velocity: 56
Note OFF: Time 70548, Note Name: A#1
Note OFF: Time 70560, Note Name: A#2
Note ON: Time 70560, Note Name: A#1, Velocity: 57
Note ON: Time 70680, Note Name: A#2, Velocity: 58
Note OFF: Time 70788, Note Name: A#1
Note OFF: Time 70800, Note Name: A#2
Note ON: Time 70800, Note Name: A#1, Velocity: 59
Note ON: Time 70920, Note Name: A#2, Velocity: 60
Note OFF: Time 71028, Note Name: A#1
Note OFF: Time 71040, Note Name: A#2
Note ON: Time 71040, Note Name: A#1, Velocity: 61
Note ON: Time 71160, Note Name: A#2, Velocity: 61
Note OFF: Time 71268, Note Name: A#1
Note OFF: Time 71280, Note Name: A#2
Note ON: Time 71280, Note Name: A#1, Velocity: 62
Note ON: Time 71400, Note Name: A#2, Velocity: 63
Note OFF: Time 71508, Note Name: A#1
Note OFF: Time 71520, Note Name: A#2
Note ON: Time 71520, Note Name: A#1, Velocity: 64
Note ON: Time 71640, Note Name: A#2, Velocity: 55
Note OFF: Time 71748, Note Name: A#1
Note OFF: Time 71760, Note Name: A#2
Note ON: Time 71760, Note Name: A#1, Velocity: 61
Note ON: Time 71880, Note Name: A#2, Velocity: 55
Note OFF: Time 71988, Note Name: A#1
Note OFF: Time 72000, Note Name: A#2
Note ON: Time 72000, Note Name: A#1, Velocity: 61
Note ON: Time 72120, Note Name: A#2, Velocity: 55
Note OFF: Time 72228, Note Name: A#1
Note OFF: Time 72240, Note Name: A#2
Note ON: Time 72240, Note Name: A#1, Velocity: 60
Note ON: Time 72360, Note Name: A#2, Velocity: 55
Note OFF: Time 72468, Note Name: A#1
Note OFF: Time 72480, Note Name: A#2
Note ON: Time 72480, Note Name: A#1, Velocity: 64
Note ON: Time 72600, Note Name: A#2, Velocity: 55
Note OFF: Time 72708, Note Name: A#1
Note OFF: Time 72720, Note Name: A#2
Note ON: Time 72720, Note Name: A#1, Velocity: 61
Note ON: Time 72840, Note Name: A#2, Velocity: 55
Note OFF: Time 72948, Note Name: A#1
Note OFF: Time 72960, Note Name: A#2
Note ON: Time 72960, Note Name: A#1, Velocity: 61
Note ON: Time 73080, Note Name: A#2, Velocity: 55
Note OFF: Time 73188, Note Name: A#1
Note OFF: Time 73200, Note Name: A#2
Note ON: Time 73200, Note Name: A#1, Velocity: 60
Note ON: Time 73320, Note Name: A#2, Velocity: 55
Note OFF: Time 73428, Note Name: A#1
Note OFF: Time 73440, Note Name: A#2
Note ON: Time 73440, Note Name: A#1, Velocity: 64
Note ON: Time 73560, Note Name: A#2, Velocity: 55
Note OFF: Time 73668, Note Name: A#1
Note OFF: Time 73680, Note Name: A#2
Note ON: Time 73680, Note Name: A#1, Velocity: 61
Note ON: Time 73800, Note Name: A#2, Velocity: 55
Note OFF: Time 73908, Note Name: A#1
Note OFF: Time 73920, Note Name: A#2
Note ON: Time 73920, Note Name: A#1, Velocity: 61
Note ON: Time 74040, Note Name: A#2, Velocity: 55
Note OFF: Time 74148, Note Name: A#1
Note OFF: Time 74160, Note Name: A#2
Note ON: Time 74160, Note Name: A#1, Velocity: 60
Note ON: Time 74280, Note Name: A#2, Velocity: 55
Note OFF: Time 74388, Note Name: A#1
Note OFF: Time 74400, Note Name: A#2
Note ON: Time 74400, Note Name: A#1, Velocity: 64
Note ON: Time 74520, Note Name: A#2, Velocity: 55
Note OFF: Time 74628, Note Name: A#1
Note OFF: Time 74640, Note Name: A#2
Note ON: Time 74640, Note Name: A#1, Velocity: 61
Note ON: Time 74760, Note Name: A#2, Velocity: 55
Note OFF: Time 74868, Note Name: A#1
Note OFF: Time 74880, Note Name: A#2
Note ON: Time 74880, Note Name: A#1, Velocity: 61
Note ON: Time 75000, Note Name: A#2, Velocity: 55
Note OFF: Time 75108, Note Name: A#1
Note OFF: Time 75120, Note Name: A#2
Note ON: Time 75120, Note Name: A#1, Velocity: 60
Note ON: Time 75240, Note Name: A#2, Velocity: 55
Note OFF: Time 75348, Note Name: A#1
Note OFF: Time 75360, Note Name: A#2
Note ON: Time 75360, Note Name: A#2, Velocity: 55
Note ON: Time 75360, Note Name: A#1, Velocity: 64
Note OFF: Time 75600, Note Name: A#1
Note OFF: Time 75600, Note Name: A#2
Note ON: Time 77280, Note Name: A#3, Velocity: 44
Note ON: Time 77520, Note Name: D#4, Velocity: 38
Note ON: Time 77520, Note Name: F#4, Velocity: 38
Note OFF: Time 77748, Note Name: F#4
Note OFF: Time 77748, Note Name: D#4
Note ON: Time 77760, Note Name: D#4, Velocity: 38
Note ON: Time 77760, Note Name: F#4, Velocity: 38
Note OFF: Time 77988, Note Name: F#4
Note OFF: Time 77988, Note Name: D#4
Note ON: Time 78000, Note Name: D#4, Velocity: 38
Note ON: Time 78000, Note Name: F#4, Velocity: 38
Note OFF: Time 78228, Note Name: F#4
Note OFF: Time 78228, Note Name: D#4
Note OFF: Time 78240, Note Name: A#3
Note ON: Time 78240, Note Name: A#3, Velocity: 44
Note ON: Time 78480, Note Name: D#4, Velocity: 38
Note ON: Time 78480, Note Name: F#4, Velocity: 38
Note OFF: Time 78708, Note Name: F#4
Note OFF: Time 78708, Note Name: D#4
Note ON: Time 78720, Note Name: D#4, Velocity: 38
Note ON: Time 78720, Note Name: F#4, Velocity: 38
Note OFF: Time 78948, Note Name: F#4
Note OFF: Time 78948, Note Name: D#4
Note ON: Time 78960, Note Name: D#4, Velocity: 38
Note ON: Time 78960, Note Name: F#4, Velocity: 38
Note OFF: Time 79188, Note Name: F#4
Note OFF: Time 79188, Note Name: D#4
Note OFF: Time 79200, Note Name: A#3
Note ON: Time 79200, Note Name: A#3, Velocity: 44
Note ON: Time 79440, Note Name: D#4, Velocity: 38
Note ON: Time 79440, Note Name: F#4, Velocity: 38
Note OFF: Time 79668, Note Name: F#4
Note OFF: Time 79668, Note Name: D#4
Note ON: Time 79680, Note Name: D#4, Velocity: 38
Note ON: Time 79680, Note Name: F#4, Velocity: 38
Note OFF: Time 79908, Note Name: F#4
Note OFF: Time 79908, Note Name: D#4
Note ON: Time 79920, Note Name: D#4, Velocity: 38
Note ON: Time 79920, Note Name: F#4, Velocity: 38
Note OFF: Time 80148, Note Name: F#4
Note OFF: Time 80148, Note Name: D#4
Note OFF: Time 80160, Note Name: A#3
Note ON: Time 80160, Note Name: A#3, Velocity: 44
Note ON: Time 80400, Note Name: D#4, Velocity: 38
Note ON: Time 80400, Note Name: F#4, Velocity: 38
Note OFF: Time 80628, Note Name: F#4
Note OFF: Time 80628, Note Name: D#4
Note ON: Time 80640, Note Name: D#4, Velocity: 38
Note ON: Time 80640, Note Name: F#4, Velocity: 38
Note OFF: Time 80868, Note Name: F#4
Note OFF: Time 80868, Note Name: D#4
Note ON: Time 80880, Note Name: D#4, Velocity: 38
Note ON: Time 80880, Note Name: F#4, Velocity: 38
Note OFF: Time 81120, Note Name: F#4
Note OFF: Time 81120, Note Name: D#4
Note OFF: Time 81120, Note Name: A#3
Note ON: Time 81120, Note Name: A#3, Velocity: 44
Note ON: Time 81360, Note Name: F4, Velocity: 38
Note ON: Time 81360, Note Name: G#4, Velocity: 38
Note OFF: Time 81588, Note Name: G#4
Note OFF: Time 81588, Note Name: F4
Note ON: Time 81600, Note Name: F4, Velocity: 38
Note ON: Time 81600, Note Name: G#4, Velocity: 38
Note OFF: Time 81828, Note Name: G#4
Note OFF: Time 81828, Note Name: F4
Note ON: Time 81840, Note Name: F4, Velocity: 38
Note ON: Time 81840, Note Name: G#4, Velocity: 38
Note OFF: Time 82068, Note Name: G#4
Note OFF: Time 82068, Note Name: F4
Note OFF: Time 82080, Note Name: A#3
Note ON: Time 82080, Note Name: A#3, Velocity: 44
Note ON: Time 82320, Note Name: F4, Velocity: 38
Note ON: Time 82320, Note Name: G#4, Velocity: 38
Note OFF: Time 82548, Note Name: G#4
Note OFF: Time 82548, Note Name: F4
Note ON: Time 82560, Note Name: F4, Velocity: 38
Note ON: Time 82560, Note Name: G#4, Velocity: 38
Note OFF: Time 82788, Note Name: G#4
Note OFF: Time 82788, Note Name: F4
Note ON: Time 82800, Note Name: F4, Velocity: 38
Note ON: Time 82800, Note Name: G#4, Velocity: 38
Note OFF: Time 83028, Note Name: G#4
Note OFF: Time 83028, Note Name: F4
Note OFF: Time 83040, Note Name: A#3
Note ON: Time 83040, Note Name: A#3, Velocity: 44
Note ON: Time 83280, Note Name: F4, Velocity: 38
Note ON: Time 83280, Note Name: G#4, Velocity: 38
Note OFF: Time 83508, Note Name: G#4
Note OFF: Time 83508, Note Name: F4
Note ON: Time 83520, Note Name: F4, Velocity: 38
Note ON: Time 83520, Note Name: G#4, Velocity: 38
Note OFF: Time 83748, Note Name: G#4
Note OFF: Time 83748, Note Name: F4
Note ON: Time 83760, Note Name: F4, Velocity: 38
Note ON: Time 83760, Note Name: G#4, Velocity: 38
Note OFF: Time 83988, Note Name: G#4
Note OFF: Time 83988, Note Name: F4
Note OFF: Time 84000, Note Name: A#3
Note ON: Time 84000, Note Name: A#3, Velocity: 44
Note ON: Time 84240, Note Name: F4, Velocity: 38
Note ON: Time 84240, Note Name: G#4, Velocity: 38
Note OFF: Time 84468, Note Name: G#4
Note OFF: Time 84468, Note Name: F4
Note ON: Time 84480, Note Name: F4, Velocity: 38
Note ON: Time 84480, Note Name: G#4, Velocity: 38
Note OFF: Time 84708, Note Name: G#4
Note OFF: Time 84708, Note Name: F4
Note ON: Time 84720, Note Name: F4, Velocity: 38
Note ON: Time 84720, Note Name: G#4, Velocity: 38
Note OFF: Time 84948, Note Name: G#4
Note OFF: Time 84948, Note Name: F4
Note OFF: Time 84960, Note Name: A#3
Note ON: Time 84960, Note Name: A#3, Velocity: 44
Note ON: Time 85200, Note Name: D#4, Velocity: 38
Note ON: Time 85200, Note Name: F#4, Velocity: 38
Note OFF: Time 85428, Note Name: F#4
Note OFF: Time 85428, Note Name: D#4
Note ON: Time 85440, Note Name: D#4, Velocity: 38
Note ON: Time 85440, Note Name: F#4, Velocity: 38
Note OFF: Time 85668, Note Name: F#4
Note OFF: Time 85668, Note Name: D#4
Note ON: Time 85680, Note Name: D#4, Velocity: 38
Note ON: Time 85680, Note Name: F#4, Velocity: 38
Note OFF: Time 85908, Note Name: F#4
Note OFF: Time 85908, Note Name: D#4
Note OFF: Time 85920, Note Name: A#3
Note ON: Time 85920, Note Name: A#3, Velocity: 44
Note ON: Time 86160, Note Name: D#4, Velocity: 38
Note ON: Time 86160, Note Name: F#4, Velocity: 38
Note OFF: Time 86388, Note Name: F#4
Note OFF: Time 86388, Note Name: D#4
Note ON: Time 86400, Note Name: D#4, Velocity: 38
Note ON: Time 86400, Note Name: F#4, Velocity: 38
Note OFF: Time 86628, Note Name: F#4
Note OFF: Time 86628, Note Name: D#4
Note ON: Time 86640, Note Name: D#4, Velocity: 38
Note ON: Time 86640, Note Name: F#4, Velocity: 38
Note OFF: Time 86868, Note Name: F#4
Note OFF: Time 86868, Note Name: D#4
Note OFF: Time 86880, Note Name: A#3
Note ON: Time 86880, Note Name: A#3, Velocity: 44
Note ON: Time 87120, Note Name: D#4, Velocity: 38
Note ON: Time 87120, Note Name: F#4, Velocity: 38
Note OFF: Time 87348, Note Name: F#4
Note OFF: Time 87348, Note Name: D#4
Note ON: Time 87360, Note Name: D#4, Velocity: 38
Note ON: Time 87360, Note Name: F#4, Velocity: 38
Note OFF: Time 87588, Note Name: F#4
Note OFF: Time 87588, Note Name: D#4
Note ON: Time 87600, Note Name: D#4, Velocity: 38
Note ON: Time 87600, Note Name: F#4, Velocity: 38
Note OFF: Time 87828, Note Name: F#4
Note OFF: Time 87828, Note Name: D#4
Note OFF: Time 87840, Note Name: A#3
Note ON: Time 87840, Note Name: A#3, Velocity: 44
Note ON: Time 88080, Note Name: D#4, Velocity: 38
Note ON: Time 88080, Note Name: F#4, Velocity: 38
Note OFF: Time 88308, Note Name: F#4
Note OFF: Time 88308, Note Name: D#4
Note ON: Time 88320, Note Name: D#4, Velocity: 38
Note ON: Time 88320, Note Name: F#4, Velocity: 38
Note OFF: Time 88548, Note Name: F#4
Note OFF: Time 88548, Note Name: D#4
Note ON: Time 88560, Note Name: D#4, Velocity: 38
Note ON: Time 88560, Note Name: F#4, Velocity: 38
Note OFF: Time 88788, Note Name: F#4
Note OFF: Time 88788, Note Name: D#4
Note OFF: Time 88800, Note Name: A#3
Note ON: Time 88800, Note Name: G#3, Velocity: 44
Note ON: Time 89040, Note Name: D#4, Velocity: 38
Note ON: Time 89040, Note Name: F#4, Velocity: 38
Note OFF: Time 89268, Note Name: F#4
Note OFF: Time 89268, Note Name: D#4
Note ON: Time 89280, Note Name: D#4, Velocity: 38
Note ON: Time 89280, Note Name: F#4, Velocity: 38
Note OFF: Time 89508, Note Name: F#4
Note OFF: Time 89508, Note Name: D#4
Note ON: Time 89520, Note Name: D#4, Velocity: 38
Note ON: Time 89520, Note Name: F#4, Velocity: 38
Note OFF: Time 89748, Note Name: F#4
Note OFF: Time 89748, Note Name: D#4
Note OFF: Time 89760, Note Name: G#3
Note ON: Time 89760, Note Name: G#3, Velocity: 44
Note ON: Time 90000, Note Name: D#4, Velocity: 38
Note ON: Time 90000, Note Name: F#4, Velocity: 38
Note OFF: Time 90228, Note Name: F#4
Note OFF: Time 90228, Note Name: D#4
Note ON: Time 90240, Note Name: D#4, Velocity: 38
Note ON: Time 90240, Note Name: F#4, Velocity: 38
Note OFF: Time 90468, Note Name: F#4
Note OFF: Time 90468, Note Name: D#4
Note ON: Time 90480, Note Name: D#4, Velocity: 38
Note ON: Time 90480, Note Name: F#4, Velocity: 38
Note OFF: Time 90708, Note Name: F#4
Note OFF: Time 90708, Note Name: D#4
Note OFF: Time 90720, Note Name: G#3
Note ON: Time 90720, Note Name: G#3, Velocity: 44
Note ON: Time 90960, Note Name: D#4, Velocity: 38
Note ON: Time 90960, Note Name: F#4, Velocity: 38
Note OFF: Time 91188, Note Name: F#4
Note OFF: Time 91188, Note Name: D#4
Note ON: Time 91200, Note Name: D#4, Velocity: 38
Note ON: Time 91200, Note Name: F#4, Velocity: 38
Note OFF: Time 91428, Note Name: F#4
Note OFF: Time 91428, Note Name: D#4
Note ON: Time 91440, Note Name: D#4, Velocity: 38
Note ON: Time 91440, Note Name: F#4, Velocity: 38
Note OFF: Time 91668, Note Name: F#4
Note OFF: Time 91668, Note Name: D#4
Note OFF: Time 91680, Note Name: G#3
Note ON: Time 91680, Note Name: G#3, Velocity: 44
Note ON: Time 91920, Note Name: D#4, Velocity: 38
Note ON: Time 91920, Note Name: F#4, Velocity: 38
Note OFF: Time 92148, Note Name: F#4
Note OFF: Time 92148, Note Name: D#4
Note ON: Time 92160, Note Name: D#4, Velocity: 38
Note ON: Time 92160, Note Name: F#4, Velocity: 38
Note OFF: Time 92388, Note Name: F#4
Note OFF: Time 92388, Note Name: D#4
Note ON: Time 92400, Note Name: D#4, Velocity: 38
Note ON: Time 92400, Note Name: F#4, Velocity: 38
Note OFF: Time 92628, Note Name: F#4
Note OFF: Time 92628, Note Name: D#4
Note OFF: Time 92640, Note Name: G#3
Note ON: Time 92640, Note Name: G#3, Velocity: 44
Note ON: Time 92880, Note Name: C#4, Velocity: 38
Note ON: Time 92880, Note Name: F4, Velocity: 38
Note OFF: Time 93108, Note Name: F4
Note OFF: Time 93108, Note Name: C#4
Note ON: Time 93120, Note Name: C#4, Velocity: 38
Note ON: Time 93120, Note Name: F4, Velocity: 38
Note OFF: Time 93348, Note Name: F4
Note OFF: Time 93348, Note Name: C#4
Note ON: Time 93360, Note Name: C#4, Velocity: 38
Note ON: Time 93360, Note Name: F4, Velocity: 38
Note OFF: Time 93588, Note Name: F4
Note OFF: Time 93588, Note Name: C#4
Note OFF: Time 93600, Note Name: G#3
Note ON: Time 93600, Note Name: G#3, Velocity: 44
Note ON: Time 93840, Note Name: C#4, Velocity: 38
Note ON: Time 93840, Note Name: F4, Velocity: 38
Note OFF: Time 94068, Note Name: F4
Note OFF: Time 94068, Note Name: C#4
Note ON: Time 94080, Note Name: C#4, Velocity: 38
Note ON: Time 94080, Note Name: F4, Velocity: 38
Note OFF: Time 94308, Note Name: F4
Note OFF: Time 94308, Note Name: C#4
Note ON: Time 94320, Note Name: C#4, Velocity: 38
Note ON: Time 94320, Note Name: F4, Velocity: 38
Note OFF: Time 94548, Note Name: F4
Note OFF: Time 94548, Note Name: C#4
Note OFF: Time 94560, Note Name: G#3
Note ON: Time 94560, Note Name: G#3, Velocity: 44
Note ON: Time 94800, Note Name: C#4, Velocity: 38
Note ON: Time 94800, Note Name: F4, Velocity: 38
Note OFF: Time 95028, Note Name: F4
Note OFF: Time 95028, Note Name: C#4
Note ON: Time 95040, Note Name: C#4, Velocity: 38
Note ON: Time 95040, Note Name: F4, Velocity: 38
Note OFF: Time 95268, Note Name: F4
Note OFF: Time 95268, Note Name: C#4
Note ON: Time 95280, Note Name: C#4, Velocity: 38
Note ON: Time 95280, Note Name: F4, Velocity: 38
Note OFF: Time 95508, Note Name: F4
Note OFF: Time 95508, Note Name: C#4
Note OFF: Time 95520, Note Name: G#3
Note ON: Time 95520, Note Name: G#3, Velocity: 44
Note ON: Time 95760, Note Name: C#4, Velocity: 38
Note ON: Time 95760, Note Name: F4, Velocity: 38
Note OFF: Time 95988, Note Name: F4
Note OFF: Time 95988, Note Name: C#4
Note ON: Time 96000, Note Name: C#4, Velocity: 38
Note ON: Time 96000, Note Name: F4, Velocity: 38
Note OFF: Time 96228, Note Name: F4
Note OFF: Time 96228, Note Name: C#4
Note ON: Time 96240, Note Name: C#4, Velocity: 38
Note ON: Time 96240, Note Name: F4, Velocity: 38
Note OFF: Time 96468, Note Name: F4
Note OFF: Time 96468, Note Name: C#4
Note OFF: Time 96480, Note Name: G#3
Note ON: Time 96480, Note Name: G#3, Velocity: 44
Note ON: Time 96720, Note Name: D#4, Velocity: 38
Note ON: Time 96720, Note Name: F#4, Velocity: 38
Note OFF: Time 96948, Note Name: F#4
Note OFF: Time 96948, Note Name: D#4
Note ON: Time 96960, Note Name: D#4, Velocity: 38
Note ON: Time 96960, Note Name: F#4, Velocity: 38
Note OFF: Time 97188, Note Name: F#4
Note OFF: Time 97188, Note Name: D#4
Note ON: Time 97200, Note Name: D#4, Velocity: 38
Note ON: Time 97200, Note Name: F#4, Velocity: 38
Note OFF: Time 97428, Note Name: F#4
Note OFF: Time 97428, Note Name: D#4
Note OFF: Time 97440, Note Name: G#3
Note ON: Time 97440, Note Name: G#3, Velocity: 44
Note ON: Time 97680, Note Name: D#4, Velocity: 38
Note ON: Time 97680, Note Name: F#4, Velocity: 38
Note OFF: Time 97908, Note Name: F#4
Note OFF: Time 97908, Note Name: D#4
Note ON: Time 97920, Note Name: D#4, Velocity: 38
Note ON: Time 97920, Note Name: F#4, Velocity: 38
Note OFF: Time 98148, Note Name: F#4
Note OFF: Time 98148, Note Name: D#4
Note ON: Time 98160, Note Name: D#4, Velocity: 38
Note ON: Time 98160, Note Name: F#4, Velocity: 38
Note OFF: Time 98388, Note Name: F#4
Note OFF: Time 98388, Note Name: D#4
Note OFF: Time 98400, Note Name: G#3
Note ON: Time 98400, Note Name: G#3, Velocity: 44
Note ON: Time 98640, Note Name: D#4, Velocity: 38
Note ON: Time 98640, Note Name: F#4, Velocity: 38
Note OFF: Time 98868, Note Name: F#4
Note OFF: Time 98868, Note Name: D#4
Note ON: Time 98880, Note Name: D#4, Velocity: 38
Note ON: Time 98880, Note Name: F#4, Velocity: 38
Note OFF: Time 99108, Note Name: F#4
Note OFF: Time 99108, Note Name: D#4
Note ON: Time 99120, Note Name: D#4, Velocity: 38
Note ON: Time 99120, Note Name: F#4, Velocity: 38
Note OFF: Time 99348, Note Name: F#4
Note OFF: Time 99348, Note Name: D#4
Note OFF: Time 99360, Note Name: G#3
Note ON: Time 99360, Note Name: G#3, Velocity: 44
Note ON: Time 99600, Note Name: D#4, Velocity: 38
Note ON: Time 99600, Note Name: F#4, Velocity: 38
Note OFF: Time 99828, Note Name: F#4
Note OFF: Time 99828, Note Name: D#4
Note ON: Time 99840, Note Name: D#4, Velocity: 38
Note ON: Time 99840, Note Name: F#4, Velocity: 38
Note OFF: Time 100068, Note Name: F#4
Note OFF: Time 100068, Note Name: D#4
Note ON: Time 100080, Note Name: D#4, Velocity: 38
Note ON: Time 100080, Note Name: F#4, Velocity: 38
Note OFF: Time 100308, Note Name: F#4
Note OFF: Time 100308, Note Name: D#4
Note OFF: Time 100320, Note Name: G#3
Note ON: Time 100320, Note Name: C#4, Velocity: 54
Note ON: Time 100560, Note Name: F4, Velocity: 53
Note ON: Time 100560, Note Name: G#4, Velocity: 53
Note OFF: Time 100800, Note Name: G#4
Note OFF: Time 100800, Note Name: F4
Note OFF: Time 100800, Note Name: C#4
Note ON: Time 100800, Note Name: B3, Velocity: 60
Note ON: Time 101040, Note Name: F4, Velocity: 53
Note ON: Time 101040, Note Name: G#4, Velocity: 53
Note OFF: Time 101280, Note Name: G#4
Note OFF: Time 101280, Note Name: F4
Note OFF: Time 101280, Note Name: B3
Note ON: Time 101280, Note Name: A#3, Velocity: 53
Note ON: Time 101520, Note Name: F4, Velocity: 38
Note ON: Time 101520, Note Name: G#4, Velocity: 38
Note OFF: Time 101748, Note Name: G#4
Note OFF: Time 101748, Note Name: F4
Note ON: Time 101760, Note Name: F4, Velocity: 38
Note ON: Time 101760, Note Name: G#4, Velocity: 38
Note OFF: Time 101988, Note Name: G#4
Note OFF: Time 101988, Note Name: F4
Note ON: Time 102000, Note Name: F4, Velocity: 38
Note ON: Time 102000, Note Name: G#4, Velocity: 38
Note OFF: Time 102228, Note Name: G#4
Note OFF: Time 102228, Note Name: F4
Note OFF: Time 102240, Note Name: A#3
Note ON: Time 102240, Note Name: A#3, Velocity: 44
Note ON: Time 102480, Note Name: F4, Velocity: 38
Note ON: Time 102480, Note Name: G#4, Velocity: 38
Note OFF: Time 102708, Note Name: G#4
Note OFF: Time 102708, Note Name: F4
Note ON: Time 102720, Note Name: F4, Velocity: 38
Note ON: Time 102720, Note Name: G#4, Velocity: 38
Note OFF: Time 102948, Note Name: G#4
Note OFF: Time 102948, Note Name: F4
Note ON: Time 102960, Note Name: F4, Velocity: 38
Note ON: Time 102960, Note Name: G#4, Velocity: 38
Note OFF: Time 103188, Note Name: G#4
Note OFF: Time 103188, Note Name: F4
Note OFF: Time 103200, Note Name: A#3
Note ON: Time 103200, Note Name: A#3, Velocity: 44
Note ON: Time 103440, Note Name: F4, Velocity: 38
Note ON: Time 103440, Note Name: G#4, Velocity: 38
Note OFF: Time 103668, Note Name: G#4
Note OFF: Time 103668, Note Name: F4
Note ON: Time 103680, Note Name: F4, Velocity: 38
Note ON: Time 103680, Note Name: G#4, Velocity: 38
Note OFF: Time 103908, Note Name: G#4
Note OFF: Time 103908, Note Name: F4
Note ON: Time 103920, Note Name: F4, Velocity: 38
Note ON: Time 103920, Note Name: G#4, Velocity: 38
Note OFF: Time 104148, Note Name: G#4
Note OFF: Time 104148, Note Name: F4
Note OFF: Time 104160, Note Name: A#3
Note ON: Time 104160, Note Name: D#4, Velocity: 54
Note ON: Time 104400, Note Name: F#4, Velocity: 53
Note ON: Time 104400, Note Name: A#4, Velocity: 53
Note OFF: Time 104640, Note Name: A#4
Note OFF: Time 104640, Note Name: F#4
Note OFF: Time 104640, Note Name: D#4
Note ON: Time 104640, Note Name: C#4, Velocity: 60
Note ON: Time 104880, Note Name: F4, Velocity: 53
Note ON: Time 104880, Note Name: A#4, Velocity: 53
Note OFF: Time 105120, Note Name: A#4
Note OFF: Time 105120, Note Name: F4
Note OFF: Time 105120, Note Name: C#4
Note ON: Time 105120, Note Name: C4, Velocity: 53
Note ON: Time 105360, Note Name: G4, Velocity: 38
Note ON: Time 105360, Note Name: A#4, Velocity: 38
Note OFF: Time 105588, Note Name: A#4
Note OFF: Time 105588, Note Name: G4
Note ON: Time 105600, Note Name: G4, Velocity: 38
Note ON: Time 105600, Note Name: A#4, Velocity: 38
Note OFF: Time 105828, Note Name: A#4
Note OFF: Time 105828, Note Name: G4
Note ON: Time 105840, Note Name: G4, Velocity: 38
Note ON: Time 105840, Note Name: A#4, Velocity: 38
Note OFF: Time 106068, Note Name: A#4
Note OFF: Time 106068, Note Name: G4
Note OFF: Time 106080, Note Name: C4
Note ON: Time 106080, Note Name: C4, Velocity: 44
Note ON: Time 106320, Note Name: G4, Velocity: 38
Note ON: Time 106320, Note Name: A#4, Velocity: 38
Note OFF: Time 106548, Note Name: A#4
Note OFF: Time 106548, Note Name: G4
Note ON: Time 106560, Note Name: G4, Velocity: 38
Note ON: Time 106560, Note Name: A#4, Velocity: 38
Note OFF: Time 106788, Note Name: A#4
Note OFF: Time 106788, Note Name: G4
Note ON: Time 106800, Note Name: G4, Velocity: 38
Note ON: Time 106800, Note Name: A#4, Velocity: 38
Note OFF: Time 107028, Note Name: A#4
Note OFF: Time 107028, Note Name: G4
Note OFF: Time 107040, Note Name: C4
Note ON: Time 107040, Note Name: C4, Velocity: 44
Note ON: Time 107280, Note Name: G4, Velocity: 38
Note ON: Time 107280, Note Name: A#4, Velocity: 38
Note OFF: Time 107508, Note Name: A#4
Note OFF: Time 107508, Note Name: G4
Note ON: Time 107520, Note Name: G4, Velocity: 38
Note ON: Time 107520, Note Name: A#4, Velocity: 38
Note OFF: Time 107748, Note Name: A#4
Note OFF: Time 107748, Note Name: G4
Note ON: Time 107760, Note Name: G4, Velocity: 38
Note ON: Time 107760, Note Name: A#4, Velocity: 38
Note OFF: Time 107988, Note Name: A#4
Note OFF: Time 107988, Note Name: G4
Note OFF: Time 108000, Note Name: C4
Note ON: Time 108000, Note Name: F4, Velocity: 44
Note ON: Time 108240, Note Name: G#4, Velocity: 38
Note ON: Time 108240, Note Name: C5, Velocity: 38
Note OFF: Time 108468, Note Name: C5
Note OFF: Time 108468, Note Name: G#4
Note ON: Time 108480, Note Name: G#4, Velocity: 38
Note ON: Time 108480, Note Name: C5, Velocity: 38
Note OFF: Time 108708, Note Name: C5
Note OFF: Time 108708, Note Name: G#4
Note ON: Time 108720, Note Name: G#4, Velocity: 38
Note ON: Time 108720, Note Name: C5, Velocity: 38
Note OFF: Time 108948, Note Name: C5
Note OFF: Time 108948, Note Name: G#4
Note OFF: Time 108960, Note Name: F4
Note ON: Time 108960, Note Name: A#3, Velocity: 44
Note ON: Time 109200, Note Name: F4, Velocity: 38
Note ON: Time 109200, Note Name: G#4, Velocity: 38
Note OFF: Time 109428, Note Name: G#4
Note OFF: Time 109428, Note Name: F4
Note OFF: Time 109440, Note Name: A#3
Note ON: Time 109440, Note Name: B3, Velocity: 44
Note ON: Time 109440, Note Name: F4, Velocity: 38
Note ON: Time 109440, Note Name: G#4, Velocity: 38
Note OFF: Time 109668, Note Name: G#4
Note OFF: Time 109668, Note Name: F4
Note ON: Time 109680, Note Name: F4, Velocity: 38
Note ON: Time 109680, Note Name: G#4, Velocity: 38
Note OFF: Time 109908, Note Name: G#4
Note OFF: Time 109908, Note Name: F4
Note OFF: Time 109920, Note Name: B3
Note ON: Time 109920, Note Name: C4, Velocity: 44
Note ON: Time 110160, Note Name: D#4, Velocity: 37
Note ON: Time 110160, Note Name: G4, Velocity: 37
Note OFF: Time 110388, Note Name: G4
Note OFF: Time 110388, Note Name: D#4
Note ON: Time 110400, Note Name: D#4, Velocity: 36
Note ON: Time 110400, Note Name: G4, Velocity: 36
Note OFF: Time 110628, Note Name: G4
Note OFF: Time 110628, Note Name: D#4
Note ON: Time 110640, Note Name: D#4, Velocity: 36
Note ON: Time 110640, Note Name: G4, Velocity: 36
Note OFF: Time 110868, Note Name: G4
Note OFF: Time 110868, Note Name: D#4
Note OFF: Time 110880, Note Name: C4
Note ON: Time 110880, Note Name: G#3, Velocity: 41
Note ON: Time 111120, Note Name: D#4, Velocity: 34
Note ON: Time 111120, Note Name: F4, Velocity: 34
Note OFF: Time 111348, Note Name: F4
Note OFF: Time 111348, Note Name: D#4
Note ON: Time 111360, Note Name: D#4, Velocity: 34
Note ON: Time 111360, Note Name: F4, Velocity: 34
Note OFF: Time 111588, Note Name: F4
Note OFF: Time 111588, Note Name: D#4
Note ON: Time 111600, Note Name: D#4, Velocity: 33
Note ON: Time 111600, Note Name: F4, Velocity: 33
Note OFF: Time 111828, Note Name: F4
Note OFF: Time 111828, Note Name: D#4
Note OFF: Time 111840, Note Name: G#3
Note ON: Time 111840, Note Name: A#3, Velocity: 38
Note ON: Time 112080, Note Name: D#4, Velocity: 32
Note ON: Time 112080, Note Name: G4, Velocity: 32
Note OFF: Time 112308, Note Name: G4
Note OFF: Time 112308, Note Name: D#4
Note ON: Time 112320, Note Name: D#4, Velocity: 31
Note ON: Time 112320, Note Name: G4, Velocity: 31
Note OFF: Time 112548, Note Name: G4
Note OFF: Time 112548, Note Name: D#4
Note ON: Time 112560, Note Name: D#4, Velocity: 31
Note ON: Time 112560, Note Name: G4, Velocity: 31
Note OFF: Time 112788, Note Name: G4
Note OFF: Time 112788, Note Name: D#4
Note OFF: Time 112800, Note Name: A#3
Note ON: Time 112800, Note Name: A#3, Velocity: 27
Note ON: Time 113040, Note Name: D4, Velocity: 23
Note ON: Time 113040, Note Name: F4, Velocity: 23
Note OFF: Time 113268, Note Name: F4
Note OFF: Time 113268, Note Name: D4
Note ON: Time 113280, Note Name: D4, Velocity: 23
Note ON: Time 113280, Note Name: F4, Velocity: 23
Note OFF: Time 113508, Note Name: F4
Note OFF: Time 113508, Note Name: D4
Note ON: Time 113520, Note Name: D4, Velocity: 23
Note ON: Time 113520, Note Name: F4, Velocity: 23
Note OFF: Time 113748, Note Name: F4
Note OFF: Time 113748, Note Name: D4
Note OFF: Time 113760, Note Name: A#3
Note ON: Time 113760, Note Name: D#3, Velocity: 36
Note ON: Time 113880, Note Name: A#3, Velocity: 24
Note OFF: Time 114000, Note Name: A#3
Note ON: Time 114000, Note Name: G3, Velocity: 26
Note OFF: Time 114120, Note Name: G3
Note ON: Time 114120, Note Name: A#3, Velocity: 24
Note OFF: Time 114240, Note Name: A#3
Note ON: Time 114240, Note Name: G3, Velocity: 32
Note OFF: Time 114360, Note Name: G3
Note ON: Time 114360, Note Name: A#3, Velocity: 25
Note OFF: Time 114480, Note Name: A#3
Note ON: Time 114480, Note Name: G3, Velocity: 28
Note OFF: Time 114600, Note Name: G3
Note ON: Time 114600, Note Name: A#3, Velocity: 26
Note OFF: Time 114720, Note Name: A#3
Note ON: Time 114720, Note Name: G3, Velocity: 34
Note OFF: Time 114840, Note Name: G3
Note ON: Time 114840, Note Name: A#3, Velocity: 26
Note OFF: Time 114960, Note Name: A#3
Note ON: Time 114960, Note Name: G3, Velocity: 29
Note OFF: Time 115080, Note Name: G3
Note ON: Time 115080, Note Name: A#3, Velocity: 26
Note OFF: Time 115200, Note Name: A#3
Note OFF: Time 115200, Note Name: D#3
Note ON: Time 115200, Note Name: D#3, Velocity: 36
Note ON: Time 115320, Note Name: A#3, Velocity: 28
Note OFF: Time 115440, Note Name: A#3
Note ON: Time 115440, Note Name: G3, Velocity: 32
Note OFF: Time 115560, Note Name: G3
Note ON: Time 115560, Note Name: A#3, Velocity: 28
Note OFF: Time 115680, Note Name: A#3
Note OFF: Time 115680, Note Name: D#3
Note ON: Time 115680, Note Name: C#3, Velocity: 45
Note ON: Time 115800, Note Name: A#3, Velocity: 30
Note OFF: Time 115920, Note Name: A#3
Note ON: Time 115920, Note Name: G3, Velocity: 32
Note OFF: Time 116040, Note Name: G3
Note ON: Time 116040, Note Name: A#3, Velocity: 29
Note OFF: Time 116160, Note Name: A#3
Note ON: Time 116160, Note Name: G3, Velocity: 38
Note OFF: Time 116280, Note Name: G3
Note ON: Time 116280, Note Name: A#3, Velocity: 30
Note OFF: Time 116400, Note Name: A#3
Note ON: Time 116400, Note Name: G3, Velocity: 33
Note OFF: Time 116520, Note Name: G3
Note ON: Time 116520, Note Name: A#3, Velocity: 30
Note OFF: Time 116640, Note Name: A#3
Note ON: Time 116640, Note Name: G3, Velocity: 38
Note OFF: Time 116760, Note Name: G3
Note ON: Time 116760, Note Name: A#3, Velocity: 29
Note OFF: Time 116880, Note Name: A#3
Note ON: Time 116880, Note Name: G3, Velocity: 32
Note OFF: Time 117000, Note Name: G3
Note ON: Time 117000, Note Name: A#3, Velocity: 29
Note OFF: Time 117120, Note Name: A#3
Note OFF: Time 117120, Note Name: C#3
Note ON: Time 117120, Note Name: C#3, Velocity: 38
Note ON: Time 117240, Note Name: A#3, Velocity: 30
Note OFF: Time 117360, Note Name: A#3
Note ON: Time 117360, Note Name: G3, Velocity: 33
Note OFF: Time 117480, Note Name: G3
Note ON: Time 117480, Note Name: A#3, Velocity: 29
Note OFF: Time 117600, Note Name: A#3
Note OFF: Time 117600, Note Name: C#3
Note ON: Time 117600, Note Name: C3, Velocity: 55
Note OFF: Time 117690, Note Name: C3
Note ON: Time 117720, Note Name: G#3, Velocity: 36
Note OFF: Time 117840, Note Name: G#3
Note ON: Time 117840, Note Name: D#3, Velocity: 39
Note OFF: Time 117960, Note Name: D#3
Note ON: Time 117960, Note Name: G#3, Velocity: 35
Note OFF: Time 118080, Note Name: G#3
Note ON: Time 118080, Note Name: A#2, Velocity: 56
Note OFF: Time 118170, Note Name: A#2
Note ON: Time 118200, Note Name: G3, Velocity: 36
Note OFF: Time 118320, Note Name: G3
Note ON: Time 118320, Note Name: C3, Velocity: 43
Note OFF: Time 118440, Note Name: C3
Note ON: Time 118440, Note Name: G3, Velocity: 41
Note OFF: Time 118560, Note Name: G3
Note ON: Time 118560, Note Name: G#2, Velocity: 58
Note OFF: Time 118650, Note Name: G#2
Note ON: Time 118680, Note Name: G#3, Velocity: 38
Note OFF: Time 118800, Note Name: G#3
Note ON: Time 118800, Note Name: C3, Velocity: 43
Note OFF: Time 118920, Note Name: C3
Note ON: Time 118920, Note Name: G#3, Velocity: 38
Note OFF: Time 119040, Note Name: G#3
Note ON: Time 119040, Note Name: G2, Velocity: 60
Note OFF: Time 119130, Note Name: G2
Note ON: Time 119160, Note Name: G3, Velocity: 40
Note OFF: Time 119280, Note Name: G3
Note ON: Time 119280, Note Name: C3, Velocity: 43
Note OFF: Time 119400, Note Name: C3
Note ON: Time 119400, Note Name: G3, Velocity: 38
Note OFF: Time 119520, Note Name: G3
Note ON: Time 119520, Note Name: F2, Velocity: 63
Note OFF: Time 119610, Note Name: F2
Note ON: Time 119640, Note Name: F3, Velocity: 42
Note OFF: Time 119760, Note Name: F3
Note ON: Time 119760, Note Name: C3, Velocity: 45
Note OFF: Time 119880, Note Name: C3
Note ON: Time 119880, Note Name: F3, Velocity: 42
Note OFF: Time 120000, Note Name: F3
Note ON: Time 120000, Note Name: D#2, Velocity: 66
Note OFF: Time 120090, Note Name: D#2
Note ON: Time 120120, Note Name: D#3, Velocity: 41
Note OFF: Time 120240, Note Name: D#3
Note ON: Time 120240, Note Name: F2, Velocity: 47
Note OFF: Time 120360, Note Name: F2
Note ON: Time 120360, Note Name: D#3, Velocity: 41
Note OFF: Time 120480, Note Name: D#3
Note ON: Time 120480, Note Name: D2, Velocity: 68
Note OFF: Time 120570, Note Name: D2
Note ON: Time 120600, Note Name: D3, Velocity: 45
Note OFF: Time 120720, Note Name: D3
Note ON: Time 120720, Note Name: F2, Velocity: 49
Note OFF: Time 120840, Note Name: F2
Note ON: Time 120840, Note Name: D3, Velocity: 43
Note OFF: Time 120960, Note Name: D3
Note ON: Time 120960, Note Name: C2, Velocity: 70
Note OFF: Time 121050, Note Name: C2
Note ON: Time 121080, Note Name: C3, Velocity: 45
Note OFF: Time 121200, Note Name: C3
Note ON: Time 121200, Note Name: F2, Velocity: 51
Note OFF: Time 121320, Note Name: F2
Note ON: Time 121320, Note Name: C3, Velocity: 43
Note OFF: Time 121440, Note Name: C3
Note ON: Time 121440, Note Name: A#1, Velocity: 70
Note OFF: Time 121530, Note Name: A#1
Note ON: Time 121560, Note Name: A#2, Velocity: 47
Note OFF: Time 121680, Note Name: A#2
Note ON: Time 121680, Note Name: F2, Velocity: 53
Note OFF: Time 121800, Note Name: F2
Note ON: Time 121800, Note Name: A#2, Velocity: 48
Note OFF: Time 121920, Note Name: A#2
Note ON: Time 121920, Note Name: G#1, Velocity: 72
Note OFF: Time 122010, Note Name: G#1
Note ON: Time 122040, Note Name: G#2, Velocity: 47
Note OFF: Time 122160, Note Name: G#2
Note ON: Time 122160, Note Name: F2, Velocity: 53
Note OFF: Time 122280, Note Name: F2
Note ON: Time 122280, Note Name: G#2, Velocity: 50
Note OFF: Time 122400, Note Name: G#2
Note ON: Time 122400, Note Name: G1, Velocity: 75
Note OFF: Time 122490, Note Name: G1
Note ON: Time 122520, Note Name: G2, Velocity: 50
Note OFF: Time 122640, Note Name: G2
Note ON: Time 122640, Note Name: D#2, Velocity: 55
Note OFF: Time 122760, Note Name: D#2
Note ON: Time 122760, Note Name: G2, Velocity: 50
Note OFF: Time 122880, Note Name: G2
Note ON: Time 122880, Note Name: G1, Velocity: 76
Note OFF: Time 122970, Note Name: G1
Note ON: Time 123000, Note Name: G2, Velocity: 56
Note OFF: Time 123120, Note Name: G2
Note ON: Time 123120, Note Name: D#2, Velocity: 58
Note OFF: Time 123240, Note Name: D#2
Note ON: Time 123240, Note Name: G2, Velocity: 55
Note OFF: Time 123360, Note Name: G2
Note ON: Time 123360, Note Name: G#1, Velocity: 71
Note ON: Time 123360, Note Name: G#2, Velocity: 84
Note OFF: Time 123600, Note Name: G#2
Note OFF: Time 123600, Note Name: G#1
Note ON: Time 124320, Note Name: A#2, Velocity: 84
Note ON: Time 124320, Note Name: A#1, Velocity: 71
Note OFF: Time 124560, Note Name: A#1
Note OFF: Time 124560, Note Name: A#2
Note ON: Time 125280, Note Name: D#3, Velocity: 45
Note ON: Time 125400, Note Name: A#3, Velocity: 30
Note OFF: Time 125520, Note Name: A#3
Note ON: Time 125520, Note Name: G3, Velocity: 32
Note OFF: Time 125640, Note Name: G3
Note ON: Time 125640, Note Name: A#3, Velocity: 29
Note OFF: Time 125760, Note Name: A#3
Note ON: Time 125760, Note Name: G3, Velocity: 38
Note OFF: Time 125880, Note Name: G3
Note ON: Time 125880, Note Name: A#3, Velocity: 30
Note OFF: Time 126000, Note Name: A#3
Note ON: Time 126000, Note Name: G3, Velocity: 33
Note OFF: Time 126120, Note Name: G3
Note ON: Time 126120, Note Name: A#3, Velocity: 30
Note OFF: Time 126240, Note Name: A#3
Note ON: Time 126240, Note Name: G3, Velocity: 38
Note OFF: Time 126360, Note Name: G3
Note ON: Time 126360, Note Name: A#3, Velocity: 29
Note OFF: Time 126480, Note Name: A#3
Note ON: Time 126480, Note Name: G3, Velocity: 32
Note OFF: Time 126600, Note Name: G3
Note ON: Time 126600, Note Name: A#3, Velocity: 29
Note OFF: Time 126720, Note Name: A#3
Note OFF: Time 126720, Note Name: D#3
Note ON: Time 126720, Note Name: D#3, Velocity: 38
Note ON: Time 126840, Note Name: A#3, Velocity: 30
Note OFF: Time 126960, Note Name: A#3
Note ON: Time 126960, Note Name: G3, Velocity: 33
Note OFF: Time 127080, Note Name: G3
Note ON: Time 127080, Note Name: A#3, Velocity: 29
Note OFF: Time 127200, Note Name: A#3
Note OFF: Time 127200, Note Name: D#3
Note ON: Time 127200, Note Name: C#3, Velocity: 45
Note ON: Time 127320, Note Name: A#3, Velocity: 30
Note OFF: Time 127440, Note Name: A#3
Note ON: Time 127440, Note Name: G3, Velocity: 32
Note OFF: Time 127560, Note Name: G3
Note ON: Time 127560, Note Name: A#3, Velocity: 29
Note OFF: Time 127680, Note Name: A#3
Note ON: Time 127680, Note Name: G3, Velocity: 38
Note OFF: Time 127800, Note Name: G3
Note ON: Time 127800, Note Name: A#3, Velocity: 30
Note OFF: Time 127920, Note Name: A#3
Note ON: Time 127920, Note Name: G3, Velocity: 33
Note OFF: Time 128040, Note Name: G3
Note ON: Time 128040, Note Name: A#3, Velocity: 30
Note OFF: Time 128160, Note Name: A#3
Note ON: Time 128160, Note Name: G3, Velocity: 38
Note OFF: Time 128280, Note Name: G3
Note ON: Time 128280, Note Name: A#3, Velocity: 29
Note OFF: Time 128400, Note Name: A#3
Note ON: Time 128400, Note Name: G3, Velocity: 32
Note OFF: Time 128520, Note Name: G3
Note ON: Time 128520, Note Name: A#3, Velocity: 29
Note OFF: Time 128640, Note Name: A#3
Note OFF: Time 128640, Note Name: C#3
Note ON: Time 128640, Note Name: C#3, Velocity: 38
Note ON: Time 128760, Note Name: A#3, Velocity: 30
Note OFF: Time 128880, Note Name: A#3
Note ON: Time 128880, Note Name: G3, Velocity: 33
Note OFF: Time 129000, Note Name: G3
Note ON: Time 129000, Note Name: A#3, Velocity: 29
Note OFF: Time 129120, Note Name: A#3
Note OFF: Time 129120, Note Name: C#3
Note ON: Time 129120, Note Name: C3, Velocity: 55
Note OFF: Time 129210, Note Name: C3
Note ON: Time 129240, Note Name: G#3, Velocity: 36
Note OFF: Time 129360, Note Name: G#3
Note ON: Time 129360, Note Name: D#3, Velocity: 39
Note OFF: Time 129480, Note Name: D#3
Note ON: Time 129480, Note Name: G#3, Velocity: 35
Note OFF: Time 129600, Note Name: G#3
Note ON: Time 129600, Note Name: A#2, Velocity: 56
Note OFF: Time 129690, Note Name: A#2
Note ON: Time 129720, Note Name: G3, Velocity: 36
Note OFF: Time 129840, Note Name: G3
Note ON: Time 129840, Note Name: C3, Velocity: 43
Note OFF: Time 129960, Note Name: C3
Note ON: Time 129960, Note Name: G3, Velocity: 41
Note OFF: Time 130080, Note Name: G3
Note ON: Time 130080, Note Name: G#2, Velocity: 58
Note OFF: Time 130170, Note Name: G#2
Note ON: Time 130200, Note Name: G#3, Velocity: 38
Note OFF: Time 130320, Note Name: G#3
Note ON: Time 130320, Note Name: C3, Velocity: 43
Note OFF: Time 130440, Note Name: C3
Note ON: Time 130440, Note Name: G#3, Velocity: 38
Note OFF: Time 130560, Note Name: G#3
Note ON: Time 130560, Note Name: G2, Velocity: 60
Note OFF: Time 130650, Note Name: G2
Note ON: Time 130680, Note Name: G3, Velocity: 40
Note OFF: Time 130800, Note Name: G3
Note ON: Time 130800, Note Name: C3, Velocity: 43
Note OFF: Time 130920, Note Name: C3
Note ON: Time 130920, Note Name: G3, Velocity: 38
Note OFF: Time 131040, Note Name: G3
Note ON: Time 131040, Note Name: F2, Velocity: 63
Note OFF: Time 131130, Note Name: F2
Note ON: Time 131160, Note Name: F3, Velocity: 42
Note OFF: Time 131280, Note Name: F3
Note ON: Time 131280, Note Name: C3, Velocity: 45
Note OFF: Time 131400, Note Name: C3
Note ON: Time 131400, Note Name: F3, Velocity: 42
Note OFF: Time 131520, Note Name: F3
Note ON: Time 131520, Note Name: D#2, Velocity: 66
Note OFF: Time 131610, Note Name: D#2
Note ON: Time 131640, Note Name: D#3, Velocity: 41
Note OFF: Time 131760, Note Name: D#3
Note ON: Time 131760, Note Name: F2, Velocity: 47
Note OFF: Time 131880, Note Name: F2
Note ON: Time 131880, Note Name: D#3, Velocity: 41
Note OFF: Time 132000, Note Name: D#3
Note ON: Time 132000, Note Name: D2, Velocity: 68
Note OFF: Time 132090, Note Name: D2
Note ON: Time 132120, Note Name: D3, Velocity: 45
Note OFF: Time 132240, Note Name: D3
Note ON: Time 132240, Note Name: F2, Velocity: 49
Note OFF: Time 132360, Note Name: F2
Note ON: Time 132360, Note Name: D3, Velocity: 43
Note OFF: Time 132480, Note Name: D3
Note ON: Time 132480, Note Name: C2, Velocity: 70
Note OFF: Time 132570, Note Name: C2
Note ON: Time 132600, Note Name: C3, Velocity: 45
Note OFF: Time 132720, Note Name: C3
Note ON: Time 132720, Note Name: F2, Velocity: 51
Note OFF: Time 132840, Note Name: F2
Note ON: Time 132840, Note Name: C3, Velocity: 43
Note OFF: Time 132960, Note Name: C3
Note ON: Time 132960, Note Name: A#1, Velocity: 70
Note OFF: Time 133050, Note Name: A#1
Note ON: Time 133080, Note Name: A#2, Velocity: 47
Note OFF: Time 133200, Note Name: A#2
Note ON: Time 133200, Note Name: F2, Velocity: 53
Note OFF: Time 133320, Note Name: F2
Note ON: Time 133320, Note Name: A#2, Velocity: 48
Note OFF: Time 133440, Note Name: A#2
Note ON: Time 133440, Note Name: G#1, Velocity: 72
Note OFF: Time 133530, Note Name: G#1
Note ON: Time 133560, Note Name: G#2, Velocity: 47
Note OFF: Time 133680, Note Name: G#2
Note ON: Time 133680, Note Name: F2, Velocity: 53
Note OFF: Time 133800, Note Name: F2
Note ON: Time 133800, Note Name: G#2, Velocity: 50
Note OFF: Time 133920, Note Name: G#2
Note ON: Time 133920, Note Name: G1, Velocity: 75
Note OFF: Time 134010, Note Name: G1
Note ON: Time 134040, Note Name: G2, Velocity: 50
Note OFF: Time 134160, Note Name: G2
Note ON: Time 134160, Note Name: D#2, Velocity: 55
Note OFF: Time 134280, Note Name: D#2
Note ON: Time 134280, Note Name: G2, Velocity: 50
Note OFF: Time 134400, Note Name: G2
Note ON: Time 134400, Note Name: G1, Velocity: 76
Note OFF: Time 134490, Note Name: G1
Note ON: Time 134520, Note Name: G2, Velocity: 56
Note OFF: Time 134640, Note Name: G2
Note ON: Time 134640, Note Name: G1, Velocity: 58
Note OFF: Time 134760, Note Name: G1
Note ON: Time 134760, Note Name: G2, Velocity: 55
Note OFF: Time 134880, Note Name: G2
Note ON: Time 134880, Note Name: G#1, Velocity: 71
Note ON: Time 134880, Note Name: G#2, Velocity: 84
Note OFF: Time 135120, Note Name: G#2
Note OFF: Time 135120, Note Name: G#1
Note ON: Time 135840, Note Name: A#2, Velocity: 84
Note ON: Time 135840, Note Name: A#1, Velocity: 71
Note OFF: Time 136080, Note Name: A#1
Note OFF: Time 136080, Note Name: A#2
Note ON: Time 136800, Note Name: D#2, Velocity: 84
Note ON: Time 136800, Note Name: D#3, Velocity: 84
Note OFF: Time 137040, Note Name: D#3
Note OFF: Time 137040, Note Name: D#2
Note ON: Time 137040, Note Name: D#4, Velocity: 34
Note ON: Time 137040, Note Name: G4, Velocity: 34
Note OFF: Time 137268, Note Name: G4
Note OFF: Time 137268, Note Name: D#4
Note ON: Time 137280, Note Name: D#4, Velocity: 34
Note ON: Time 137280, Note Name: G4, Velocity: 34
Note OFF: Time 137508, Note Name: G4
Note OFF: Time 137508, Note Name: D#4
Note ON: Time 137520, Note Name: D#4, Velocity: 34
Note ON: Time 137520, Note Name: G4, Velocity: 34
Note OFF: Time 137748, Note Name: G4
Note OFF: Time 137748, Note Name: D#4
Note ON: Time 137760, Note Name: C4, Velocity: 34
Note ON: Time 138000, Note Name: D#4, Velocity: 34
Note ON: Time 138000, Note Name: G4, Velocity: 34
Note OFF: Time 138228, Note Name: G4
Note OFF: Time 138228, Note Name: D#4
Note ON: Time 138240, Note Name: D#4, Velocity: 34
Note ON: Time 138240, Note Name: G4, Velocity: 34
Note OFF: Time 138468, Note Name: G4
Note OFF: Time 138468, Note Name: D#4
Note ON: Time 138480, Note Name: D#4, Velocity: 34
Note ON: Time 138480, Note Name: G4, Velocity: 34
Note OFF: Time 138708, Note Name: G4
Note OFF: Time 138708, Note Name: D#4
Note OFF: Time 138720, Note Name: C4
Note ON: Time 138720, Note Name: G#3, Velocity: 34
Note ON: Time 138960, Note Name: F4, Velocity: 34
Note ON: Time 138960, Note Name: D#4, Velocity: 34
Note OFF: Time 139188, Note Name: D#4
Note OFF: Time 139188, Note Name: F4
Note ON: Time 139200, Note Name: D#4, Velocity: 34
Note ON: Time 139200, Note Name: F4, Velocity: 34
Note OFF: Time 139428, Note Name: F4
Note OFF: Time 139428, Note Name: D#4
Note ON: Time 139440, Note Name: D#4, Velocity: 34
Note ON: Time 139440, Note Name: F4, Velocity: 34
Note OFF: Time 139668, Note Name: F4
Note OFF: Time 139668, Note Name: D#4
Note OFF: Time 139680, Note Name: G#3
Note ON: Time 139680, Note Name: A#3, Velocity: 34
Note ON: Time 139920, Note Name: D4, Velocity: 34
Note ON: Time 139920, Note Name: F4, Velocity: 34
Note OFF: Time 140148, Note Name: F4
Note OFF: Time 140148, Note Name: D4
Note ON: Time 140160, Note Name: D4, Velocity: 34
Note ON: Time 140160, Note Name: F4, Velocity: 34
Note OFF: Time 140388, Note Name: F4
Note OFF: Time 140388, Note Name: D4
Note ON: Time 140400, Note Name: D4, Velocity: 34
Note ON: Time 140400, Note Name: F4, Velocity: 34
Note OFF: Time 140628, Note Name: F4
Note OFF: Time 140628, Note Name: D4
Note OFF: Time 140640, Note Name: A#3
Note ON: Time 140640, Note Name: D#3, Velocity: 59
Note ON: Time 140880, Note Name: G3, Velocity: 44
Note ON: Time 140880, Note Name: D#4, Velocity: 44
Note OFF: Time 141108, Note Name: D#4
Note OFF: Time 141108, Note Name: G3
Note ON: Time 141120, Note Name: G3, Velocity: 44
Note ON: Time 141120, Note Name: D#4, Velocity: 44
Note OFF: Time 141348, Note Name: D#4
Note OFF: Time 141348, Note Name: G3
Note ON: Time 141360, Note Name: G3, Velocity: 44
Note ON: Time 141360, Note Name: D#4, Velocity: 44
Note OFF: Time 141588, Note Name: D#4
Note OFF: Time 141588, Note Name: G3
Note OFF: Time 141600, Note Name: D#3
Note ON: Time 141600, Note Name: C3, Velocity: 45
Note ON: Time 141840, Note Name: G3, Velocity: 46
Note ON: Time 141840, Note Name: D#3, Velocity: 46
Note ON: Time 141840, Note Name: C4, Velocity: 46
Note OFF: Time 142068, Note Name: C4
Note OFF: Time 142068, Note Name: D#3
Note OFF: Time 142068, Note Name: G3
Note ON: Time 142080, Note Name: G3, Velocity: 46
Note ON: Time 142080, Note Name: D#3, Velocity: 46
Note ON: Time 142080, Note Name: C4, Velocity: 46
Note OFF: Time 142308, Note Name: C4
Note OFF: Time 142308, Note Name: D#3
Note OFF: Time 142308, Note Name: G3
Note ON: Time 142320, Note Name: G3, Velocity: 47
Note ON: Time 142320, Note Name: D#3, Velocity: 47
Note ON: Time 142320, Note Name: C4, Velocity: 47
Note OFF: Time 142548, Note Name: C4
Note OFF: Time 142548, Note Name: D#3
Note OFF: Time 142548, Note Name: G3
Note OFF: Time 142560, Note Name: C3
Note ON: Time 142560, Note Name: G#2, Velocity: 47
Note ON: Time 142800, Note Name: F3, Velocity: 48
Note ON: Time 142800, Note Name: G#3, Velocity: 48
Note ON: Time 142800, Note Name: D#3, Velocity: 48
Note OFF: Time 143028, Note Name: D#3
Note OFF: Time 143028, Note Name: G#3
Note OFF: Time 143028, Note Name: F3
Note ON: Time 143040, Note Name: F3, Velocity: 48
Note ON: Time 143040, Note Name: D#3, Velocity: 48
Note ON: Time 143040, Note Name: G#3, Velocity: 48
Note OFF: Time 143268, Note Name: G#3
Note OFF: Time 143268, Note Name: D#3
Note OFF: Time 143268, Note Name: F3
Note ON: Time 143280, Note Name: F3, Velocity: 49
Note ON: Time 143280, Note Name: D#3, Velocity: 49
Note ON: Time 143280, Note Name: G#3, Velocity: 49
Note OFF: Time 143508, Note Name: G#3
Note OFF: Time 143508, Note Name: D#3
Note OFF: Time 143508, Note Name: F3
Note OFF: Time 143520, Note Name: G#2
Note ON: Time 143520, Note Name: A#2, Velocity: 49
Note ON: Time 143760, Note Name: F3, Velocity: 50
Note ON: Time 143760, Note Name: D3, Velocity: 50
Note ON: Time 143760, Note Name: A#3, Velocity: 50
Note OFF: Time 143988, Note Name: A#3
Note OFF: Time 143988, Note Name: D3
Note OFF: Time 143988, Note Name: F3
Note ON: Time 144000, Note Name: F3, Velocity: 50
Note ON: Time 144000, Note Name: D3, Velocity: 50
Note ON: Time 144000, Note Name: A#3, Velocity: 50
Note OFF: Time 144228, Note Name: A#3
Note OFF: Time 144228, Note Name: D3
Note OFF: Time 144228, Note Name: F3
Note ON: Time 144240, Note Name: F3, Velocity: 51
Note ON: Time 144240, Note Name: D3, Velocity: 51
Note ON: Time 144240, Note Name: A#3, Velocity: 51
Note OFF: Time 144468, Note Name: A#3
Note OFF: Time 144468, Note Name: D3
Note OFF: Time 144468, Note Name: F3
Note OFF: Time 144480, Note Name: A#2
Note ON: Time 144480, Note Name: D#2, Velocity: 67
Note ON: Time 144600, Note Name: D#3, Velocity: 60
Note OFF: Time 144708, Note Name: D#2
Note OFF: Time 144720, Note Name: D#3
Note ON: Time 144720, Note Name: D#2, Velocity: 67
Note ON: Time 144840, Note Name: D#3, Velocity: 59
Note OFF: Time 144948, Note Name: D#2
Note OFF: Time 144960, Note Name: D#3
Note ON: Time 144960, Note Name: D#2, Velocity: 67
Note ON: Time 145080, Note Name: D#3, Velocity: 60
Note OFF: Time 145188, Note Name: D#2
Note OFF: Time 145200, Note Name: D#3
Note ON: Time 145200, Note Name: D#2, Velocity: 66
Note ON: Time 145320, Note Name: D#3, Velocity: 60
Note OFF: Time 145428, Note Name: D#2
Note OFF: Time 145440, Note Name: D#3
Note ON: Time 145440, Note Name: D#2, Velocity: 66
Note ON: Time 145560, Note Name: D#3, Velocity: 59
Note OFF: Time 145668, Note Name: D#2
Note OFF: Time 145680, Note Name: D#3
Note ON: Time 145680, Note Name: D#2, Velocity: 66
Note ON: Time 145800, Note Name: D#3, Velocity: 60
Note OFF: Time 145908, Note Name: D#2
Note OFF: Time 145920, Note Name: D#3
Note ON: Time 145920, Note Name: D#2, Velocity: 66
Note ON: Time 146040, Note Name: D#3, Velocity: 60
Note OFF: Time 146148, Note Name: D#2
Note OFF: Time 146160, Note Name: D#3
Note ON: Time 146160, Note Name: D#2, Velocity: 66
Note ON: Time 146280, Note Name: D#3, Velocity: 61
Note OFF: Time 146388, Note Name: D#2
Note OFF: Time 146400, Note Name: D#3
Note ON: Time 146400, Note Name: D#2, Velocity: 67
Note ON: Time 146520, Note Name: D#3, Velocity: 60
Note OFF: Time 146628, Note Name: D#2
Note OFF: Time 146640, Note Name: D#3
Note ON: Time 146640, Note Name: D#2, Velocity: 67
Note ON: Time 146760, Note Name: D#3, Velocity: 59
Note OFF: Time 146868, Note Name: D#2
Note OFF: Time 146880, Note Name: D#3
Note ON: Time 146880, Note Name: D#2, Velocity: 67
Note ON: Time 147000, Note Name: D#3, Velocity: 60
Note OFF: Time 147108, Note Name: D#2
Note OFF: Time 147120, Note Name: D#3
Note ON: Time 147120, Note Name: D#2, Velocity: 66
Note ON: Time 147240, Note Name: D#3, Velocity: 60
Note OFF: Time 147348, Note Name: D#2
Note OFF: Time 147360, Note Name: D#3
Note ON: Time 147360, Note Name: D#2, Velocity: 66
Note ON: Time 147480, Note Name: D#3, Velocity: 59
Note OFF: Time 147588, Note Name: D#2
Note OFF: Time 147600, Note Name: D#3
Note ON: Time 147600, Note Name: D#2, Velocity: 66
Note ON: Time 147720, Note Name: D#3, Velocity: 60
Note OFF: Time 147828, Note Name: D#2
Note OFF: Time 147840, Note Name: D#3
Note ON: Time 147840, Note Name: D#2, Velocity: 66
Note ON: Time 147960, Note Name: D#3, Velocity: 60
Note OFF: Time 148068, Note Name: D#2
Note OFF: Time 148080, Note Name: D#3
Note ON: Time 148080, Note Name: D#2, Velocity: 66
Note ON: Time 148200, Note Name: D#3, Velocity: 61
Note OFF: Time 148308, Note Name: D#2
Note OFF: Time 148320, Note Name: D#3
Note ON: Time 148320, Note Name: D#2, Velocity: 66
Note ON: Time 148440, Note Name: D#3, Velocity: 59
Note OFF: Time 148548, Note Name: D#2
Note OFF: Time 148560, Note Name: D#3
Note ON: Time 148560, Note Name: D#2, Velocity: 66
Note ON: Time 148680, Note Name: D#3, Velocity: 60
Note OFF: Time 148788, Note Name: D#2
Note OFF: Time 148800, Note Name: D#3
Note ON: Time 148800, Note Name: D#2, Velocity: 66
Note ON: Time 148920, Note Name: D#3, Velocity: 60
Note OFF: Time 149028, Note Name: D#2
Note OFF: Time 149040, Note Name: D#3
Note ON: Time 149040, Note Name: D#2, Velocity: 66
Note ON: Time 149160, Note Name: D#3, Velocity: 61
Note OFF: Time 149268, Note Name: D#2
Note OFF: Time 149280, Note Name: D#3
Note ON: Time 149280, Note Name: D2, Velocity: 66
Note ON: Time 149400, Note Name: D3, Velocity: 59
Note OFF: Time 149508, Note Name: D2
Note OFF: Time 149520, Note Name: D3
Note ON: Time 149520, Note Name: D2, Velocity: 66
Note ON: Time 149640, Note Name: D3, Velocity: 60
Note OFF: Time 149748, Note Name: D2
Note OFF: Time 149760, Note Name: D3
Note ON: Time 149760, Note Name: D2, Velocity: 66
Note ON: Time 149880, Note Name: D3, Velocity: 60
Note OFF: Time 149988, Note Name: D2
Note OFF: Time 150000, Note Name: D3
Note ON: Time 150000, Note Name: D2, Velocity: 66
Note ON: Time 150120, Note Name: D3, Velocity: 61
Note OFF: Time 150228, Note Name: D2
Note OFF: Time 150240, Note Name: D3
Note ON: Time 150240, Note Name: C2, Velocity: 66
Note ON: Time 150360, Note Name: C3, Velocity: 59
Note OFF: Time 150468, Note Name: C2
Note OFF: Time 150480, Note Name: C3
Note ON: Time 150480, Note Name: C2, Velocity: 66
Note ON: Time 150600, Note Name: C3, Velocity: 60
Note OFF: Time 150708, Note Name: C2
Note OFF: Time 150720, Note Name: C3
Note ON: Time 150720, Note Name: C2, Velocity: 66
Note ON: Time 150840, Note Name: C3, Velocity: 60
Note OFF: Time 150948, Note Name: C2
Note OFF: Time 150960, Note Name: C3
Note ON: Time 150960, Note Name: C2, Velocity: 66
Note ON: Time 151080, Note Name: C3, Velocity: 61
Note OFF: Time 151188, Note Name: C2
Note OFF: Time 151200, Note Name: C3
Note ON: Time 151200, Note Name: A#1, Velocity: 66
Note ON: Time 151320, Note Name: A#2, Velocity: 59
Note OFF: Time 151428, Note Name: A#1
Note OFF: Time 151440, Note Name: A#2
Note ON: Time 151440, Note Name: A#1, Velocity: 66
Note ON: Time 151560, Note Name: A#2, Velocity: 60
Note OFF: Time 151668, Note Name: A#1
Note OFF: Time 151680, Note Name: A#2
Note ON: Time 151680, Note Name: A#1, Velocity: 66
Note ON: Time 151800, Note Name: A#2, Velocity: 60
Note OFF: Time 151908, Note Name: A#1
Note OFF: Time 151920, Note Name: A#2
Note ON: Time 151920, Note Name: A#1, Velocity: 66
Note ON: Time 152040, Note Name: A#2, Velocity: 61
Note OFF: Time 152148, Note Name: A#1
Note OFF: Time 152160, Note Name: A#2
Note ON: Time 152160, Note Name: G#1, Velocity: 66
Note ON: Time 152280, Note Name: G#2, Velocity: 59
Note OFF: Time 152388, Note Name: G#1
Note OFF: Time 152400, Note Name: G#2
Note ON: Time 152400, Note Name: G#1, Velocity: 66
Note ON: Time 152520, Note Name: G#2, Velocity: 60
Note OFF: Time 152628, Note Name: G#1
Note OFF: Time 152640, Note Name: G#2
Note ON: Time 152640, Note Name: G#1, Velocity: 66
Note ON: Time 152760, Note Name: G#2, Velocity: 60
Note OFF: Time 152868, Note Name: G#1
Note OFF: Time 152880, Note Name: G#2
Note ON: Time 152880, Note Name: G#1, Velocity: 66
Note ON: Time 153000, Note Name: G#2, Velocity: 61
Note OFF: Time 153108, Note Name: G#1
Note OFF: Time 153120, Note Name: G#2
Note ON: Time 153120, Note Name: G1, Velocity: 66
Note ON: Time 153240, Note Name: G2, Velocity: 59
Note OFF: Time 153348, Note Name: G1
Note OFF: Time 153360, Note Name: G2
Note ON: Time 153360, Note Name: G1, Velocity: 66
Note ON: Time 153480, Note Name: G2, Velocity: 60
Note OFF: Time 153588, Note Name: G1
Note OFF: Time 153600, Note Name: G2
Note ON: Time 153600, Note Name: G1, Velocity: 66
Note ON: Time 153720, Note Name: G2, Velocity: 60
Note OFF: Time 153828, Note Name: G1
Note OFF: Time 153840, Note Name: G2
Note ON: Time 153840, Note Name: G1, Velocity: 66
Note ON: Time 153960, Note Name: G2, Velocity: 61
Note OFF: Time 154068, Note Name: G1
Note OFF: Time 154080, Note Name: G2
Note ON: Time 154080, Note Name: F#1, Velocity: 62
Note ON: Time 154080, Note Name: F#2, Velocity: 74
Note OFF: Time 155040, Note Name: F#2
Note OFF: Time 155040, Note Name: F#1
Note ON: Time 155040, Note Name: G1, Velocity: 71
Note ON: Time 155040, Note Name: G2, Velocity: 84
Note OFF: Time 156000, Note Name: G2
Note OFF: Time 156000, Note Name: G1
Note ON: Time 156000, Note Name: C2, Velocity: 44
Note ON: Time 156120, Note Name: C3, Velocity: 41
Note OFF: Time 156228, Note Name: C2
Note OFF: Time 156240, Note Name: C3
Note ON: Time 156240, Note Name: C2, Velocity: 44
Note ON: Time 156360, Note Name: C3, Velocity: 41
Note OFF: Time 156468, Note Name: C2
Note OFF: Time 156480, Note Name: C3
Note ON: Time 156480, Note Name: C2, Velocity: 44
Note ON: Time 156600, Note Name: C3, Velocity: 41
Note OFF: Time 156708, Note Name: C2
Note OFF: Time 156720, Note Name: C3
Note ON: Time 156720, Note Name: C2, Velocity: 45
Note ON: Time 156840, Note Name: C3, Velocity: 41
Note OFF: Time 156948, Note Name: C2
Note OFF: Time 156960, Note Name: C3
Note ON: Time 156960, Note Name: C2, Velocity: 45
Note ON: Time 157080, Note Name: C3, Velocity: 46
Note OFF: Time 157188, Note Name: C2
Note OFF: Time 157200, Note Name: C3
Note ON: Time 157200, Note Name: C2, Velocity: 47
Note ON: Time 157320, Note Name: C3, Velocity: 47
Note OFF: Time 157428, Note Name: C2
Note OFF: Time 157440, Note Name: C3
Note ON: Time 157440, Note Name: C2, Velocity: 49
Note ON: Time 157560, Note Name: C3, Velocity: 50
Note OFF: Time 157668, Note Name: C2
Note OFF: Time 157680, Note Name: C3
Note ON: Time 157680, Note Name: C2, Velocity: 51
Note ON: Time 157800, Note Name: C3, Velocity: 53
Note OFF: Time 157908, Note Name: C2
Note OFF: Time 157920, Note Name: C3
Note ON: Time 157920, Note Name: C2, Velocity: 55
Note ON: Time 158040, Note Name: C3, Velocity: 50
Note OFF: Time 158148, Note Name: C2
Note OFF: Time 158160, Note Name: C3
Note ON: Time 158160, Note Name: C2, Velocity: 53
Note ON: Time 158280, Note Name: C3, Velocity: 47
Note OFF: Time 158388, Note Name: C2
Note OFF: Time 158400, Note Name: C3
Note ON: Time 158400, Note Name: C2, Velocity: 53
Note ON: Time 158520, Note Name: C3, Velocity: 47
Note OFF: Time 158628, Note Name: C2
Note OFF: Time 158640, Note Name: C3
Note ON: Time 158640, Note Name: C2, Velocity: 44
Note ON: Time 158760, Note Name: C3, Velocity: 40
Note OFF: Time 158868, Note Name: C2
Note OFF: Time 158880, Note Name: C3
Note ON: Time 158880, Note Name: C2, Velocity: 43
Note ON: Time 159000, Note Name: C3, Velocity: 45
Note OFF: Time 159108, Note Name: C2
Note OFF: Time 159120, Note Name: C3
Note ON: Time 159120, Note Name: C2, Velocity: 46
Note ON: Time 159240, Note Name: C3, Velocity: 47
Note OFF: Time 159348, Note Name: C2
Note OFF: Time 159360, Note Name: C3
Note ON: Time 159360, Note Name: C2, Velocity: 48
Note ON: Time 159480, Note Name: C3, Velocity: 50
Note OFF: Time 159588, Note Name: C2
Note OFF: Time 159600, Note Name: C3
Note ON: Time 159600, Note Name: C2, Velocity: 51
Note ON: Time 159720, Note Name: C3, Velocity: 53
Note OFF: Time 159828, Note Name: C2
Note OFF: Time 159840, Note Name: C3
Note ON: Time 159840, Note Name: C2, Velocity: 55
Note ON: Time 159960, Note Name: C3, Velocity: 50
Note OFF: Time 160068, Note Name: C2
Note OFF: Time 160080, Note Name: C3
Note ON: Time 160080, Note Name: C2, Velocity: 53
Note ON: Time 160200, Note Name: C3, Velocity: 47
Note OFF: Time 160308, Note Name: C2
Note OFF: Time 160320, Note Name: C3
Note ON: Time 160320, Note Name: D2, Velocity: 55
Note ON: Time 160440, Note Name: D3, Velocity: 50
Note OFF: Time 160548, Note Name: D2
Note OFF: Time 160560, Note Name: D3
Note ON: Time 160560, Note Name: D2, Velocity: 55
Note ON: Time 160680, Note Name: D3, Velocity: 51
Note OFF: Time 160788, Note Name: D2
Note OFF: Time 160800, Note Name: D3
Note ON: Time 160800, Note Name: D#2, Velocity: 55
Note ON: Time 160920, Note Name: D#3, Velocity: 55
Note OFF: Time 161028, Note Name: D#2
Note OFF: Time 161040, Note Name: D#3
Note ON: Time 161040, Note Name: D#2, Velocity: 55
Note ON: Time 161160, Note Name: D#3, Velocity: 55
Note OFF: Time 161268, Note Name: D#2
Note OFF: Time 161280, Note Name: D#3
Note ON: Time 161280, Note Name: F2, Velocity: 55
Note ON: Time 161400, Note Name: F3, Velocity: 53
Note OFF: Time 161508, Note Name: F2
Note OFF: Time 161520, Note Name: F3
Note ON: Time 161520, Note Name: F2, Velocity: 55
Note ON: Time 161640, Note Name: F3, Velocity: 55
Note OFF: Time 161748, Note Name: F2
Note OFF: Time 161760, Note Name: F3
Note ON: Time 161760, Note Name: G2, Velocity: 56
Note ON: Time 161880, Note Name: G3, Velocity: 56
Note OFF: Time 161988, Note Name: G2
Note OFF: Time 162000, Note Name: G3
Note ON: Time 162000, Note Name: G2, Velocity: 57
Note ON: Time 162120, Note Name: G3, Velocity: 57
Note OFF: Time 162228, Note Name: G2
Note OFF: Time 162240, Note Name: G3
Note ON: Time 162240, Note Name: G#2, Velocity: 58
Note ON: Time 162360, Note Name: G#3, Velocity: 59
Note OFF: Time 162468, Note Name: G#2
Note OFF: Time 162480, Note Name: G#3
Note ON: Time 162480, Note Name: G#2, Velocity: 59
Note ON: Time 162600, Note Name: G#3, Velocity: 60
Note OFF: Time 162708, Note Name: G#2
Note OFF: Time 162720, Note Name: G#3
Note ON: Time 162720, Note Name: F#2, Velocity: 60
Note ON: Time 162840, Note Name: F#3, Velocity: 55
Note OFF: Time 162948, Note Name: F#2
Note OFF: Time 162960, Note Name: F#3
Note ON: Time 162960, Note Name: F#2, Velocity: 61
Note ON: Time 163080, Note Name: F#3, Velocity: 55
Note OFF: Time 163188, Note Name: F#2
Note OFF: Time 163200, Note Name: F#3
Note ON: Time 163200, Note Name: G2, Velocity: 58
Note ON: Time 163320, Note Name: G3, Velocity: 55
Note OFF: Time 163428, Note Name: G2
Note OFF: Time 163440, Note Name: G3
Note ON: Time 163440, Note Name: G2, Velocity: 58
Note ON: Time 163560, Note Name: G3, Velocity: 55
Note OFF: Time 163668, Note Name: G2
Note OFF: Time 163680, Note Name: G3
Note ON: Time 163680, Note Name: C2, Velocity: 48
Note ON: Time 163800, Note Name: C3, Velocity: 45
Note OFF: Time 163908, Note Name: C2
Note OFF: Time 163920, Note Name: C3
Note ON: Time 163920, Note Name: C2, Velocity: 44
Note ON: Time 164040, Note Name: C3, Velocity: 41
Note OFF: Time 164148, Note Name: C2
Note OFF: Time 164160, Note Name: C3
Note ON: Time 164160, Note Name: C2, Velocity: 44
Note ON: Time 164280, Note Name: C3, Velocity: 40
Note OFF: Time 164388, Note Name: C2
Note OFF: Time 164400, Note Name: C3
Note ON: Time 164400, Note Name: C2, Velocity: 44
Note ON: Time 164520, Note Name: C3, Velocity: 41
Note OFF: Time 164628, Note Name: C2
Note OFF: Time 164640, Note Name: C3
Note ON: Time 164640, Note Name: C2, Velocity: 44
Note ON: Time 164760, Note Name: C3, Velocity: 46
Note OFF: Time 164868, Note Name: C2
Note OFF: Time 164880, Note Name: C3
Note ON: Time 164880, Note Name: C2, Velocity: 47
Note ON: Time 165000, Note Name: C3, Velocity: 47
Note OFF: Time 165108, Note Name: C2
Note OFF: Time 165120, Note Name: C3
Note ON: Time 165120, Note Name: C2, Velocity: 49
Note ON: Time 165240, Note Name: C3, Velocity: 50
Note OFF: Time 165348, Note Name: C2
Note OFF: Time 165360, Note Name: C3
Note ON: Time 165360, Note Name: C2, Velocity: 51
Note ON: Time 165480, Note Name: C3, Velocity: 53
Note OFF: Time 165588, Note Name: C2
Note OFF: Time 165600, Note Name: C3
Note ON: Time 165600, Note Name: C2, Velocity: 55
Note ON: Time 165720, Note Name: C3, Velocity: 50
Note OFF: Time 165828, Note Name: C2
Note OFF: Time 165840, Note Name: C3
Note ON: Time 165840, Note Name: C2, Velocity: 53
Note ON: Time 165960, Note Name: C3, Velocity: 47
Note OFF: Time 166068, Note Name: C2
Note OFF: Time 166080, Note Name: C3
Note ON: Time 166080, Note Name: C2, Velocity: 53
Note ON: Time 166200, Note Name: C3, Velocity: 47
Note OFF: Time 166308, Note Name: C2
Note OFF: Time 166320, Note Name: C3
Note ON: Time 166320, Note Name: C2, Velocity: 44
Note ON: Time 166440, Note Name: C3, Velocity: 40
Note OFF: Time 166548, Note Name: C2
Note OFF: Time 166560, Note Name: C3
Note ON: Time 166560, Note Name: C2, Velocity: 43
Note ON: Time 166680, Note Name: C3, Velocity: 45
Note OFF: Time 166788, Note Name: C2
Note OFF: Time 166800, Note Name: C3
Note ON: Time 166800, Note Name: C2, Velocity: 46
Note ON: Time 166920, Note Name: C3, Velocity: 47
Note OFF: Time 167028, Note Name: C2
Note OFF: Time 167040, Note Name: C3
Note ON: Time 167040, Note Name: C2, Velocity: 48
Note ON: Time 167160, Note Name: C3, Velocity: 50
Note OFF: Time 167268, Note Name: C2
Note OFF: Time 167280, Note Name: C3
Note ON: Time 167280, Note Name: C2, Velocity: 51
Note ON: Time 167400, Note Name: C3, Velocity: 53
Note OFF: Time 167508, Note Name: C2
Note OFF: Time 167520, Note Name: C3
Note ON: Time 167520, Note Name: C2, Velocity: 55
Note ON: Time 167640, Note Name: C3, Velocity: 50
Note OFF: Time 167748, Note Name: C2
Note OFF: Time 167760, Note Name: C3
Note ON: Time 167760, Note Name: C2, Velocity: 53
Note ON: Time 167880, Note Name: C3, Velocity: 47
Note OFF: Time 167988, Note Name: C2
Note OFF: Time 168000, Note Name: C3
Note ON: Time 168000, Note Name: D2, Velocity: 55
Note ON: Time 168120, Note Name: D3, Velocity: 50
Note OFF: Time 168228, Note Name: D2
Note OFF: Time 168240, Note Name: D3
Note ON: Time 168240, Note Name: D2, Velocity: 55
Note ON: Time 168360, Note Name: D3, Velocity: 51
Note OFF: Time 168468, Note Name: D2
Note OFF: Time 168480, Note Name: D3
Note ON: Time 168480, Note Name: D#2, Velocity: 55
Note ON: Time 168600, Note Name: D#3, Velocity: 55
Note OFF: Time 168708, Note Name: D#2
Note OFF: Time 168720, Note Name: D#3
Note ON: Time 168720, Note Name: D#2, Velocity: 55
Note ON: Time 168840, Note Name: D#3, Velocity: 55
Note OFF: Time 168948, Note Name: D#2
Note OFF: Time 168960, Note Name: D#3
Note ON: Time 168960, Note Name: F2, Velocity: 55
Note ON: Time 169080, Note Name: F3, Velocity: 53
Note OFF: Time 169188, Note Name: F2
Note OFF: Time 169200, Note Name: F3
Note ON: Time 169200, Note Name: F2, Velocity: 55
Note ON: Time 169320, Note Name: F3, Velocity: 55
Note OFF: Time 169428, Note Name: F2
Note OFF: Time 169440, Note Name: F3
Note ON: Time 169440, Note Name: G2, Velocity: 56
Note ON: Time 169560, Note Name: G3, Velocity: 56
Note OFF: Time 169668, Note Name: G2
Note OFF: Time 169680, Note Name: G3
Note ON: Time 169680, Note Name: G2, Velocity: 57
Note ON: Time 169800, Note Name: G3, Velocity: 57
Note OFF: Time 169908, Note Name: G2
Note OFF: Time 169920, Note Name: G3
Note ON: Time 169920, Note Name: G#2, Velocity: 58
Note ON: Time 170040, Note Name: G#3, Velocity: 59
Note OFF: Time 170148, Note Name: G#2
Note OFF: Time 170160, Note Name: G#3
Note ON: Time 170160, Note Name: G#2, Velocity: 59
Note ON: Time 170280, Note Name: G#3, Velocity: 60
Note OFF: Time 170388, Note Name: G#2
Note OFF: Time 170400, Note Name: G#3
Note ON: Time 170400, Note Name: F#2, Velocity: 60
Note ON: Time 170520, Note Name: F#3, Velocity: 55
Note OFF: Time 170628, Note Name: F#2
Note OFF: Time 170640, Note Name: F#3
Note ON: Time 170640, Note Name: F#2, Velocity: 61
Note ON: Time 170760, Note Name: F#3, Velocity: 55
Note OFF: Time 170868, Note Name: F#2
Note OFF: Time 170880, Note Name: F#3
Note ON: Time 170880, Note Name: F#2, Velocity: 58
Note ON: Time 171000, Note Name: F#3, Velocity: 55
Note OFF: Time 171108, Note Name: F#2
Note OFF: Time 171120, Note Name: F#3
Note ON: Time 171120, Note Name: F#2, Velocity: 58
Note ON: Time 171240, Note Name: F#3, Velocity: 55
Note OFF: Time 171348, Note Name: F#2
Note OFF: Time 171360, Note Name: F#3
Note ON: Time 171360, Note Name: G2, Velocity: 55
Note ON: Time 171360, Note Name: G3, Velocity: 55
Note OFF: Time 171600, Note Name: G3
Note OFF: Time 171600, Note Name: G2
Note ON: Time 171600, Note Name: D4, Velocity: 50
Note ON: Time 171600, Note Name: B3, Velocity: 50
Note OFF: Time 171828, Note Name: B3
Note OFF: Time 171828, Note Name: D4
Note ON: Time 171840, Note Name: D4, Velocity: 50
Note ON: Time 171840, Note Name: B3, Velocity: 50
Note OFF: Time 172068, Note Name: B3
Note OFF: Time 172068, Note Name: D4
Note ON: Time 172080, Note Name: B3, Velocity: 50
Note ON: Time 172080, Note Name: D4, Velocity: 50
Note OFF: Time 172308, Note Name: D4
Note OFF: Time 172308, Note Name: B3
Note ON: Time 172320, Note Name: G3, Velocity: 50
Note OFF: Time 172560, Note Name: G3
Note ON: Time 172560, Note Name: D#4, Velocity: 50
Note ON: Time 172560, Note Name: C4, Velocity: 50
Note OFF: Time 172788, Note Name: C4
Note OFF: Time 172788, Note Name: D#4
Note ON: Time 172800, Note Name: D#4, Velocity: 50
Note ON: Time 172800, Note Name: C4, Velocity: 50
Note OFF: Time 173028, Note Name: C4
Note OFF: Time 173028, Note Name: D#4
Note ON: Time 173040, Note Name: D#4, Velocity: 50
Note ON: Time 173040, Note Name: C4, Velocity: 50
Note OFF: Time 173268, Note Name: C4
Note OFF: Time 173268, Note Name: D#4
Note ON: Time 173280, Note Name: F4, Velocity: 50
Note ON: Time 173280, Note Name: D4, Velocity: 50
Note OFF: Time 173520, Note Name: D4
Note OFF: Time 173520, Note Name: F4
Note ON: Time 174720, Note Name: G#1, Velocity: 55
Note OFF: Time 174840, Note Name: G#1
Note ON: Time 174840, Note Name: G#2, Velocity: 55
Note OFF: Time 174960, Note Name: G#2
Note ON: Time 174960, Note Name: G#1, Velocity: 55
Note OFF: Time 175080, Note Name: G#1
Note ON: Time 175080, Note Name: G#2, Velocity: 55
Note OFF: Time 175200, Note Name: G#2
Note ON: Time 175200, Note Name: G1, Velocity: 50
Note ON: Time 175200, Note Name: G2, Velocity: 50
Note OFF: Time 175440, Note Name: G2
Note OFF: Time 175440, Note Name: G1
Note ON: Time 175440, Note Name: D4, Velocity: 50
Note ON: Time 175440, Note Name: B3, Velocity: 50
Note OFF: Time 175668, Note Name: B3
Note OFF: Time 175668, Note Name: D4
Note ON: Time 175680, Note Name: D4, Velocity: 50
Note ON: Time 175680, Note Name: B3, Velocity: 50
Note OFF: Time 175908, Note Name: B3
Note OFF: Time 175908, Note Name: D4
Note ON: Time 175920, Note Name: B3, Velocity: 50
Note ON: Time 175920, Note Name: D4, Velocity: 50
Note OFF: Time 176160, Note Name: D4
Note OFF: Time 176160, Note Name: B3
Note ON: Time 176160, Note Name: G3, Velocity: 50
Note OFF: Time 176400, Note Name: G3
Note ON: Time 176400, Note Name: D#4, Velocity: 50
Note ON: Time 176400, Note Name: C4, Velocity: 50
Note OFF: Time 176628, Note Name: C4
Note OFF: Time 176628, Note Name: D#4
Note ON: Time 176640, Note Name: D#4, Velocity: 50
Note ON: Time 176640, Note Name: C4, Velocity: 50
Note OFF: Time 176868, Note Name: C4
Note OFF: Time 176868, Note Name: D#4
Note ON: Time 176880, Note Name: D#4, Velocity: 50
Note ON: Time 176880, Note Name: C4, Velocity: 50
Note OFF: Time 177108, Note Name: C4
Note OFF: Time 177108, Note Name: D#4
Note ON: Time 177120, Note Name: F4, Velocity: 50
Note ON: Time 177120, Note Name: D4, Velocity: 50
Note OFF: Time 177360, Note Name: D4
Note OFF: Time 177360, Note Name: F4
Note ON: Time 178560, Note Name: G#1, Velocity: 55
Note ON: Time 178680, Note Name: G#2, Velocity: 55
Note OFF: Time 178788, Note Name: G#1
Note OFF: Time 178800, Note Name: G#2
Note ON: Time 178800, Note Name: G#1, Velocity: 55
Note ON: Time 178920, Note Name: G#2, Velocity: 49
Note OFF: Time 179028, Note Name: G#1
Note OFF: Time 179040, Note Name: G#2
Note ON: Time 179040, Note Name: G1, Velocity: 50
Note ON: Time 179160, Note Name: G2, Velocity: 51
Note OFF: Time 179268, Note Name: G1
Note OFF: Time 179280, Note Name: G2
Note ON: Time 179280, Note Name: G1, Velocity: 51
Note ON: Time 179400, Note Name: G2, Velocity: 52
Note OFF: Time 179508, Note Name: G1
Note OFF: Time 179520, Note Name: G2
Note ON: Time 179520, Note Name: G1, Velocity: 53
Note ON: Time 179640, Note Name: G2, Velocity: 54
Note OFF: Time 179748, Note Name: G1
Note OFF: Time 179760, Note Name: G2
Note ON: Time 179760, Note Name: G1, Velocity: 55
Note ON: Time 179880, Note Name: G2, Velocity: 56
Note OFF: Time 179988, Note Name: G1
Note OFF: Time 180000, Note Name: G2
Note ON: Time 180000, Note Name: G1, Velocity: 57
Note ON: Time 180120, Note Name: G2, Velocity: 58
Note OFF: Time 180228, Note Name: G1
Note OFF: Time 180240, Note Name: G2
Note ON: Time 180240, Note Name: G1, Velocity: 59
Note ON: Time 180360, Note Name: G2, Velocity: 60
Note OFF: Time 180468, Note Name: G1
Note OFF: Time 180480, Note Name: G2
Note ON: Time 180480, Note Name: G1, Velocity: 61
Note ON: Time 180600, Note Name: G2, Velocity: 61
Note OFF: Time 180708, Note Name: G1
Note OFF: Time 180720, Note Name: G2
Note ON: Time 180720, Note Name: G1, Velocity: 62
Note ON: Time 180840, Note Name: G2, Velocity: 63
Note OFF: Time 180948, Note Name: G1
Note OFF: Time 180960, Note Name: G2
Note ON: Time 180960, Note Name: G1, Velocity: 64
Note ON: Time 181080, Note Name: G2, Velocity: 55
Note OFF: Time 181188, Note Name: G1
Note OFF: Time 181200, Note Name: G2
Note ON: Time 181200, Note Name: G1, Velocity: 61
Note ON: Time 181320, Note Name: G2, Velocity: 55
Note OFF: Time 181428, Note Name: G1
Note OFF: Time 181440, Note Name: G2
Note ON: Time 181440, Note Name: G1, Velocity: 61
Note ON: Time 181560, Note Name: G2, Velocity: 55
Note OFF: Time 181668, Note Name: G1
Note OFF: Time 181680, Note Name: G2
Note ON: Time 181680, Note Name: G1, Velocity: 60
Note ON: Time 181800, Note Name: G2, Velocity: 55
Note OFF: Time 181908, Note Name: G1
Note OFF: Time 181920, Note Name: G2
Note ON: Time 181920, Note Name: G1, Velocity: 64
Note ON: Time 182040, Note Name: G2, Velocity: 55
Note OFF: Time 182148, Note Name: G1
Note OFF: Time 182160, Note Name: G2
Note ON: Time 182160, Note Name: G1, Velocity: 61
Note ON: Time 182280, Note Name: G2, Velocity: 55
Note OFF: Time 182388, Note Name: G1
Note OFF: Time 182400, Note Name: G2
Note ON: Time 182400, Note Name: G1, Velocity: 61
Note ON: Time 182520, Note Name: G2, Velocity: 55
Note OFF: Time 182628, Note Name: G1
Note OFF: Time 182640, Note Name: G2
Note ON: Time 182640, Note Name: G1, Velocity: 60
Note ON: Time 182760, Note Name: G2, Velocity: 55
Note OFF: Time 182868, Note Name: G1
Note OFF: Time 182880, Note Name: G2
Note ON: Time 182880, Note Name: G#1, Velocity: 50
Note ON: Time 183000, Note Name: G#2, Velocity: 51
Note OFF: Time 183108, Note Name: G#1
Note OFF: Time 183120, Note Name: G#2
Note ON: Time 183120, Note Name: G#1, Velocity: 51
Note ON: Time 183240, Note Name: G#2, Velocity: 52
Note OFF: Time 183348, Note Name: G#1
Note OFF: Time 183360, Note Name: G#2
Note ON: Time 183360, Note Name: G#1, Velocity: 53
Note ON: Time 183480, Note Name: G#2, Velocity: 54
Note OFF: Time 183588, Note Name: G#1
Note OFF: Time 183600, Note Name: G#2
Note ON: Time 183600, Note Name: G#1, Velocity: 55
Note ON: Time 183720, Note Name: G#2, Velocity: 56
Note OFF: Time 183828, Note Name: G#1
Note OFF: Time 183840, Note Name: G#2
Note ON: Time 183840, Note Name: G#1, Velocity: 57
Note ON: Time 183960, Note Name: G#2, Velocity: 58
Note OFF: Time 184068, Note Name: G#1
Note OFF: Time 184080, Note Name: G#2
Note ON: Time 184080, Note Name: G#1, Velocity: 59
Note ON: Time 184200, Note Name: G#2, Velocity: 60
Note OFF: Time 184308, Note Name: G#1
Note OFF: Time 184320, Note Name: G#2
Note ON: Time 184320, Note Name: G#1, Velocity: 61
Note ON: Time 184440, Note Name: G#2, Velocity: 61
Note OFF: Time 184548, Note Name: G#1
Note OFF: Time 184560, Note Name: G#2
Note ON: Time 184560, Note Name: G#1, Velocity: 62
Note ON: Time 184680, Note Name: G#2, Velocity: 63
Note OFF: Time 184788, Note Name: G#1
Note OFF: Time 184800, Note Name: G#2
Note ON: Time 184800, Note Name: G#1, Velocity: 64
Note ON: Time 184920, Note Name: G#2, Velocity: 55
Note OFF: Time 185028, Note Name: G#1
Note OFF: Time 185040, Note Name: G#2
Note ON: Time 185040, Note Name: G#1, Velocity: 61
Note ON: Time 185160, Note Name: G#2, Velocity: 55
Note OFF: Time 185268, Note Name: G#1
Note OFF: Time 185280, Note Name: G#2
Note ON: Time 185280, Note Name: G#1, Velocity: 61
Note ON: Time 185400, Note Name: G#2, Velocity: 55
Note OFF: Time 185508, Note Name: G#1
Note OFF: Time 185520, Note Name: G#2
Note ON: Time 185520, Note Name: G#1, Velocity: 60
Note ON: Time 185640, Note Name: G#2, Velocity: 55
Note OFF: Time 185748, Note Name: G#1
Note OFF: Time 185760, Note Name: G#2
Note ON: Time 185760, Note Name: A1, Velocity: 64
Note ON: Time 185880, Note Name: A2, Velocity: 55
Note OFF: Time 185988, Note Name: A1
Note OFF: Time 186000, Note Name: A2
Note ON: Time 186000, Note Name: A1, Velocity: 61
Note ON: Time 186120, Note Name: A2, Velocity: 55
Note OFF: Time 186228, Note Name: A1
Note OFF: Time 186240, Note Name: A2
Note ON: Time 186240, Note Name: A1, Velocity: 61
Note ON: Time 186360, Note Name: A2, Velocity: 55
Note OFF: Time 186468, Note Name: A1
Note OFF: Time 186480, Note Name: A2
Note ON: Time 186480, Note Name: A1, Velocity: 60
Note ON: Time 186600, Note Name: A2, Velocity: 55
Note OFF: Time 186708, Note Name: A1
Note OFF: Time 186720, Note Name: A2
Note ON: Time 186720, Note Name: A#1, Velocity: 50
Note ON: Time 186840, Note Name: A#2, Velocity: 51
Note OFF: Time 186948, Note Name: A#1
Note OFF: Time 186960, Note Name: A#2
Note ON: Time 186960, Note Name: A#1, Velocity: 51
Note ON: Time 187080, Note Name: A#2, Velocity: 52
Note OFF: Time 187188, Note Name: A#1
Note OFF: Time 187200, Note Name: A#2
Note ON: Time 187200, Note Name: A#1, Velocity: 53
Note ON: Time 187320, Note Name: A#2, Velocity: 54
Note OFF: Time 187428, Note Name: A#1
Note OFF: Time 187440, Note Name: A#2
Note ON: Time 187440, Note Name: A#1, Velocity: 55
Note ON: Time 187560, Note Name: A#2, Velocity: 56
Note OFF: Time 187668, Note Name: A#1
Note OFF: Time 187680, Note Name: A#2
Note ON: Time 187680, Note Name: A#1, Velocity: 57
Note ON: Time 187800, Note Name: A#2, Velocity: 58
Note OFF: Time 187908, Note Name: A#1
Note OFF: Time 187920, Note Name: A#2
Note ON: Time 187920, Note Name: A#1, Velocity: 59
Note ON: Time 188040, Note Name: A#2, Velocity: 60
Note OFF: Time 188148, Note Name: A#1
Note OFF: Time 188160, Note Name: A#2
Note ON: Time 188160, Note Name: A#1, Velocity: 61
Note ON: Time 188280, Note Name: A#2, Velocity: 61
Note OFF: Time 188388, Note Name: A#1
Note OFF: Time 188400, Note Name: A#2
Note ON: Time 188400, Note Name: A#1, Velocity: 62
Note ON: Time 188520, Note Name: A#2, Velocity: 63
Note OFF: Time 188628, Note Name: A#1
Note OFF: Time 188640, Note Name: A#2
Note ON: Time 188640, Note Name: A#1, Velocity: 64
Note ON: Time 188760, Note Name: A#2, Velocity: 55
Note OFF: Time 188868, Note Name: A#1
Note OFF: Time 188880, Note Name: A#2
Note ON: Time 188880, Note Name: A#1, Velocity: 61
Note ON: Time 189000, Note Name: A#2, Velocity: 55
Note OFF: Time 189108, Note Name: A#1
Note OFF: Time 189120, Note Name: A#2
Note ON: Time 189120, Note Name: A#1, Velocity: 61
Note ON: Time 189240, Note Name: A#2, Velocity: 55
Note OFF: Time 189348, Note Name: A#1
Note OFF: Time 189360, Note Name: A#2
Note ON: Time 189360, Note Name: A#1, Velocity: 60
Note ON: Time 189480, Note Name: A#2, Velocity: 55
Note OFF: Time 189588, Note Name: A#1
Note OFF: Time 189600, Note Name: A#2
Note ON: Time 189600, Note Name: A#1, Velocity: 64
Note ON: Time 189720, Note Name: A#2, Velocity: 55
Note OFF: Time 189828, Note Name: A#1
Note OFF: Time 189840, Note Name: A#2
Note ON: Time 189840, Note Name: A#1, Velocity: 61
Note ON: Time 189960, Note Name: A#2, Velocity: 55
Note OFF: Time 190068, Note Name: A#1
Note OFF: Time 190080, Note Name: A#2
Note ON: Time 190080, Note Name: A#1, Velocity: 61
Note ON: Time 190200, Note Name: A#2, Velocity: 55
Note OFF: Time 190308, Note Name: A#1
Note OFF: Time 190320, Note Name: A#2
Note ON: Time 190320, Note Name: A#1, Velocity: 60
Note ON: Time 190440, Note Name: A#2, Velocity: 55
Note OFF: Time 190548, Note Name: A#1
Note OFF: Time 190560, Note Name: A#2
Note ON: Time 190560, Note Name: A#1, Velocity: 64
Note ON: Time 190680, Note Name: A#2, Velocity: 55
Note OFF: Time 190788, Note Name: A#1
Note OFF: Time 190800, Note Name: A#2
Note ON: Time 190800, Note Name: A#1, Velocity: 61
Note ON: Time 190920, Note Name: A#2, Velocity: 55
Note OFF: Time 191028, Note Name: A#1
Note OFF: Time 191040, Note Name: A#2
Note ON: Time 191040, Note Name: A#1, Velocity: 61
Note ON: Time 191160, Note Name: A#2, Velocity: 55
Note OFF: Time 191268, Note Name: A#1
Note OFF: Time 191280, Note Name: A#2
Note ON: Time 191280, Note Name: A#1, Velocity: 60
Note ON: Time 191400, Note Name: A#2, Velocity: 55
Note OFF: Time 191508, Note Name: A#1
Note OFF: Time 191520, Note Name: A#2
Note ON: Time 191520, Note Name: A#1, Velocity: 64
Note ON: Time 191640, Note Name: A#2, Velocity: 55
Note OFF: Time 191748, Note Name: A#1
Note OFF: Time 191760, Note Name: A#2
Note ON: Time 191760, Note Name: A#1, Velocity: 61
Note ON: Time 191880, Note Name: A#2, Velocity: 55
Note OFF: Time 191988, Note Name: A#1
Note OFF: Time 192000, Note Name: A#2
Note ON: Time 192000, Note Name: A#1, Velocity: 61
Note ON: Time 192120, Note Name: A#2, Velocity: 55
Note OFF: Time 192228, Note Name: A#1
Note OFF: Time 192240, Note Name: A#2
Note ON: Time 192240, Note Name: A#1, Velocity: 60
Note ON: Time 192360, Note Name: A#2, Velocity: 55
Note OFF: Time 192468, Note Name: A#1
Note OFF: Time 192480, Note Name: A#2
Note ON: Time 192480, Note Name: A#2, Velocity: 55
Note ON: Time 192480, Note Name: A#1, Velocity: 64
Note OFF: Time 192720, Note Name: A#1
Note OFF: Time 192720, Note Name: A#2
Note ON: Time 194400, Note Name: A#3, Velocity: 44
Note ON: Time 194640, Note Name: D#4, Velocity: 38
Note ON: Time 194640, Note Name: F#4, Velocity: 38
Note OFF: Time 194868, Note Name: F#4
Note OFF: Time 194868, Note Name: D#4
Note ON: Time 194880, Note Name: D#4, Velocity: 38
Note ON: Time 194880, Note Name: F#4, Velocity: 38
Note OFF: Time 195108, Note Name: F#4
Note OFF: Time 195108, Note Name: D#4
Note ON: Time 195120, Note Name: D#4, Velocity: 38
Note ON: Time 195120, Note Name: F#4, Velocity: 38
Note OFF: Time 195348, Note Name: F#4
Note OFF: Time 195348, Note Name: D#4
Note OFF: Time 195360, Note Name: A#3
Note ON: Time 195360, Note Name: A#3, Velocity: 44
Note ON: Time 195600, Note Name: D#4, Velocity: 38
Note ON: Time 195600, Note Name: F#4, Velocity: 38
Note OFF: Time 195828, Note Name: F#4
Note OFF: Time 195828, Note Name: D#4
Note ON: Time 195840, Note Name: D#4, Velocity: 38
Note ON: Time 195840, Note Name: F#4, Velocity: 38
Note OFF: Time 196068, Note Name: F#4
Note OFF: Time 196068, Note Name: D#4
Note ON: Time 196080, Note Name: D#4, Velocity: 38
Note ON: Time 196080, Note Name: F#4, Velocity: 38
Note OFF: Time 196320, Note Name: F#4
Note OFF: Time 196320, Note Name: D#4
Note OFF: Time 196320, Note Name: A#3
Note ON: Time 196320, Note Name: A#3, Velocity: 44
Note ON: Time 196560, Note Name: D#4, Velocity: 38
Note ON: Time 196560, Note Name: F#4, Velocity: 38
Note OFF: Time 196788, Note Name: F#4
Note OFF: Time 196788, Note Name: D#4
Note ON: Time 196800, Note Name: D#4, Velocity: 38
Note ON: Time 196800, Note Name: F#4, Velocity: 38
Note OFF: Time 197028, Note Name: F#4
Note OFF: Time 197028, Note Name: D#4
Note ON: Time 197040, Note Name: D#4, Velocity: 38
Note ON: Time 197040, Note Name: F#4, Velocity: 38
Note OFF: Time 197268, Note Name: F#4
Note OFF: Time 197268, Note Name: D#4
Note OFF: Time 197280, Note Name: A#3
Note ON: Time 197280, Note Name: A#3, Velocity: 44
Note ON: Time 197520, Note Name: D#4, Velocity: 38
Note ON: Time 197520, Note Name: F#4, Velocity: 38
Note OFF: Time 197748, Note Name: F#4
Note OFF: Time 197748, Note Name: D#4
Note ON: Time 197760, Note Name: D#4, Velocity: 38
Note ON: Time 197760, Note Name: F#4, Velocity: 38
Note OFF: Time 197988, Note Name: F#4
Note OFF: Time 197988, Note Name: D#4
Note ON: Time 198000, Note Name: D#4, Velocity: 38
Note ON: Time 198000, Note Name: F#4, Velocity: 38
Note OFF: Time 198228, Note Name: F#4
Note OFF: Time 198228, Note Name: D#4
Note OFF: Time 198240, Note Name: A#3
Note ON: Time 198240, Note Name: A#3, Velocity: 44
Note ON: Time 198480, Note Name: F4, Velocity: 38
Note ON: Time 198480, Note Name: G#4, Velocity: 38
Note OFF: Time 198708, Note Name: G#4
Note OFF: Time 198708, Note Name: F4
Note ON: Time 198720, Note Name: F4, Velocity: 38
Note ON: Time 198720, Note Name: G#4, Velocity: 38
Note OFF: Time 198948, Note Name: G#4
Note OFF: Time 198948, Note Name: F4
Note ON: Time 198960, Note Name: F4, Velocity: 38
Note ON: Time 198960, Note Name: G#4, Velocity: 38
Note OFF: Time 199188, Note Name: G#4
Note OFF: Time 199188, Note Name: F4
Note OFF: Time 199200, Note Name: A#3
Note ON: Time 199200, Note Name: A#3, Velocity: 44
Note ON: Time 199440, Note Name: F4, Velocity: 38
Note ON: Time 199440, Note Name: G#4, Velocity: 38
Note OFF: Time 199668, Note Name: G#4
Note OFF: Time 199668, Note Name: F4
Note ON: Time 199680, Note Name: F4, Velocity: 38
Note ON: Time 199680, Note Name: G#4, Velocity: 38
Note OFF: Time 199908, Note Name: G#4
Note OFF: Time 199908, Note Name: F4
Note ON: Time 199920, Note Name: F4, Velocity: 38
Note ON: Time 199920, Note Name: G#4, Velocity: 38
Note OFF: Time 200148, Note Name: G#4
Note OFF: Time 200148, Note Name: F4
Note OFF: Time 200160, Note Name: A#3
Note ON: Time 200160, Note Name: A#3, Velocity: 44
Note ON: Time 200400, Note Name: F4, Velocity: 38
Note ON: Time 200400, Note Name: G#4, Velocity: 38
Note OFF: Time 200628, Note Name: G#4
Note OFF: Time 200628, Note Name: F4
Note ON: Time 200640, Note Name: F4, Velocity: 38
Note ON: Time 200640, Note Name: G#4, Velocity: 38
Note OFF: Time 200868, Note Name: G#4
Note OFF: Time 200868, Note Name: F4
Note ON: Time 200880, Note Name: F4, Velocity: 38
Note ON: Time 200880, Note Name: G#4, Velocity: 38
Note OFF: Time 201108, Note Name: G#4
Note OFF: Time 201108, Note Name: F4
Note OFF: Time 201120, Note Name: A#3
Note ON: Time 201120, Note Name: A#3, Velocity: 44
Note ON: Time 201360, Note Name: F4, Velocity: 38
Note ON: Time 201360, Note Name: G#4, Velocity: 38
Note OFF: Time 201588, Note Name: G#4
Note OFF: Time 201588, Note Name: F4
Note ON: Time 201600, Note Name: F4, Velocity: 38
Note ON: Time 201600, Note Name: G#4, Velocity: 38
Note OFF: Time 201828, Note Name: G#4
Note OFF: Time 201828, Note Name: F4
Note ON: Time 201840, Note Name: F4, Velocity: 38
Note ON: Time 201840, Note Name: G#4, Velocity: 38
Note OFF: Time 202068, Note Name: G#4
Note OFF: Time 202068, Note Name: F4
Note OFF: Time 202080, Note Name: A#3
Note ON: Time 202080, Note Name: A#3, Velocity: 44
Note ON: Time 202320, Note Name: D#4, Velocity: 38
Note ON: Time 202320, Note Name: F#4, Velocity: 38
Note OFF: Time 202548, Note Name: F#4
Note OFF: Time 202548, Note Name: D#4
Note ON: Time 202560, Note Name: D#4, Velocity: 38
Note ON: Time 202560, Note Name: F#4, Velocity: 38
Note OFF: Time 202788, Note Name: F#4
Note OFF: Time 202788, Note Name: D#4
Note ON: Time 202800, Note Name: D#4, Velocity: 38
Note ON: Time 202800, Note Name: F#4, Velocity: 38
Note OFF: Time 203028, Note Name: F#4
Note OFF: Time 203028, Note Name: D#4
Note OFF: Time 203040, Note Name: A#3
Note ON: Time 203040, Note Name: A#3, Velocity: 44
Note ON: Time 203280, Note Name: D#4, Velocity: 38
Note ON: Time 203280, Note Name: F#4, Velocity: 38
Note OFF: Time 203508, Note Name: F#4
Note OFF: Time 203508, Note Name: D#4
Note ON: Time 203520, Note Name: D#4, Velocity: 38
Note ON: Time 203520, Note Name: F#4, Velocity: 38
Note OFF: Time 203748, Note Name: F#4
Note OFF: Time 203748, Note Name: D#4
Note ON: Time 203760, Note Name: D#4, Velocity: 38
Note ON: Time 203760, Note Name: F#4, Velocity: 38
Note OFF: Time 203988, Note Name: F#4
Note OFF: Time 203988, Note Name: D#4
Note OFF: Time 204000, Note Name: A#3
Note ON: Time 204000, Note Name: A#3, Velocity: 44
Note ON: Time 204240, Note Name: D#4, Velocity: 38
Note ON: Time 204240, Note Name: F#4, Velocity: 38
Note OFF: Time 204468, Note Name: F#4
Note OFF: Time 204468, Note Name: D#4
Note ON: Time 204480, Note Name: D#4, Velocity: 38
Note ON: Time 204480, Note Name: F#4, Velocity: 38
Note OFF: Time 204708, Note Name: F#4
Note OFF: Time 204708, Note Name: D#4
Note ON: Time 204720, Note Name: D#4, Velocity: 38
Note ON: Time 204720, Note Name: F#4, Velocity: 38
Note OFF: Time 204948, Note Name: F#4
Note OFF: Time 204948, Note Name: D#4
Note OFF: Time 204960, Note Name: A#3
Note ON: Time 204960, Note Name: A#3, Velocity: 44
Note ON: Time 205200, Note Name: D#4, Velocity: 38
Note ON: Time 205200, Note Name: F#4, Velocity: 38
Note OFF: Time 205428, Note Name: F#4
Note OFF: Time 205428, Note Name: D#4
Note ON: Time 205440, Note Name: D#4, Velocity: 38
Note ON: Time 205440, Note Name: F#4, Velocity: 38
Note OFF: Time 205668, Note Name: F#4
Note OFF: Time 205668, Note Name: D#4
Note ON: Time 205680, Note Name: D#4, Velocity: 38
Note ON: Time 205680, Note Name: F#4, Velocity: 38
Note OFF: Time 205908, Note Name: F#4
Note OFF: Time 205908, Note Name: D#4
Note OFF: Time 205920, Note Name: A#3
Note ON: Time 205920, Note Name: G#3, Velocity: 44
Note ON: Time 206160, Note Name: D#4, Velocity: 38
Note ON: Time 206160, Note Name: F#4, Velocity: 38
Note OFF: Time 206388, Note Name: F#4
Note OFF: Time 206388, Note Name: D#4
Note ON: Time 206400, Note Name: D#4, Velocity: 38
Note ON: Time 206400, Note Name: F#4, Velocity: 38
Note OFF: Time 206628, Note Name: F#4
Note OFF: Time 206628, Note Name: D#4
Note ON: Time 206640, Note Name: D#4, Velocity: 38
Note ON: Time 206640, Note Name: F#4, Velocity: 38
Note OFF: Time 206868, Note Name: F#4
Note OFF: Time 206868, Note Name: D#4
Note OFF: Time 206880, Note Name: G#3
Note ON: Time 206880, Note Name: G#3, Velocity: 44
Note ON: Time 207120, Note Name: D#4, Velocity: 38
Note ON: Time 207120, Note Name: F#4, Velocity: 38
Note OFF: Time 207348, Note Name: F#4
Note OFF: Time 207348, Note Name: D#4
Note ON: Time 207360, Note Name: D#4, Velocity: 38
Note ON: Time 207360, Note Name: F#4, Velocity: 38
Note OFF: Time 207588, Note Name: F#4
Note OFF: Time 207588, Note Name: D#4
Note ON: Time 207600, Note Name: D#4, Velocity: 38
Note ON: Time 207600, Note Name: F#4, Velocity: 38
Note OFF: Time 207828, Note Name: F#4
Note OFF: Time 207828, Note Name: D#4
Note OFF: Time 207840, Note Name: G#3
Note ON: Time 207840, Note Name: G#3, Velocity: 44
Note ON: Time 208080, Note Name: D#4, Velocity: 38
Note ON: Time 208080, Note Name: F#4, Velocity: 38
Note OFF: Time 208308, Note Name: F#4
Note OFF: Time 208308, Note Name: D#4
Note ON: Time 208320, Note Name: D#4, Velocity: 38
Note ON: Time 208320, Note Name: F#4, Velocity: 38
Note OFF: Time 208548, Note Name: F#4
Note OFF: Time 208548, Note Name: D#4
Note ON: Time 208560, Note Name: D#4, Velocity: 38
Note ON: Time 208560, Note Name: F#4, Velocity: 38
Note OFF: Time 208788, Note Name: F#4
Note OFF: Time 208788, Note Name: D#4
Note OFF: Time 208800, Note Name: G#3
Note ON: Time 208800, Note Name: G#3, Velocity: 44
Note ON: Time 209040, Note Name: D#4, Velocity: 38
Note ON: Time 209040, Note Name: F#4, Velocity: 38
Note OFF: Time 209268, Note Name: F#4
Note OFF: Time 209268, Note Name: D#4
Note ON: Time 209280, Note Name: D#4, Velocity: 38
Note ON: Time 209280, Note Name: F#4, Velocity: 38
Note OFF: Time 209508, Note Name: F#4
Note OFF: Time 209508, Note Name: D#4
Note ON: Time 209520, Note Name: D#4, Velocity: 38
Note ON: Time 209520, Note Name: F#4, Velocity: 38
Note OFF: Time 209748, Note Name: F#4
Note OFF: Time 209748, Note Name: D#4
Note OFF: Time 209760, Note Name: G#3
Note ON: Time 209760, Note Name: G#3, Velocity: 44
Note ON: Time 210000, Note Name: C#4, Velocity: 38
Note ON: Time 210000, Note Name: F4, Velocity: 38
Note OFF: Time 210228, Note Name: F4
Note OFF: Time 210228, Note Name: C#4
Note ON: Time 210240, Note Name: C#4, Velocity: 38
Note ON: Time 210240, Note Name: F4, Velocity: 38
Note OFF: Time 210468, Note Name: F4
Note OFF: Time 210468, Note Name: C#4
Note ON: Time 210480, Note Name: C#4, Velocity: 38
Note ON: Time 210480, Note Name: F4, Velocity: 38
Note OFF: Time 210708, Note Name: F4
Note OFF: Time 210708, Note Name: C#4
Note OFF: Time 210720, Note Name: G#3
Note ON: Time 210720, Note Name: G#3, Velocity: 44
Note ON: Time 210960, Note Name: C#4, Velocity: 38
Note ON: Time 210960, Note Name: F4, Velocity: 38
Note OFF: Time 211188, Note Name: F4
Note OFF: Time 211188, Note Name: C#4
Note ON: Time 211200, Note Name: C#4, Velocity: 38
Note ON: Time 211200, Note Name: F4, Velocity: 38
Note OFF: Time 211428, Note Name: F4
Note OFF: Time 211428, Note Name: C#4
Note ON: Time 211440, Note Name: C#4, Velocity: 38
Note ON: Time 211440, Note Name: F4, Velocity: 38
Note OFF: Time 211668, Note Name: F4
Note OFF: Time 211668, Note Name: C#4
Note OFF: Time 211680, Note Name: G#3
Note ON: Time 211680, Note Name: G#3, Velocity: 44
Note ON: Time 211920, Note Name: C#4, Velocity: 38
Note ON: Time 211920, Note Name: F4, Velocity: 38
Note OFF: Time 212148, Note Name: F4
Note OFF: Time 212148, Note Name: C#4
Note ON: Time 212160, Note Name: C#4, Velocity: 38
Note ON: Time 212160, Note Name: F4, Velocity: 38
Note OFF: Time 212388, Note Name: F4
Note OFF: Time 212388, Note Name: C#4
Note ON: Time 212400, Note Name: C#4, Velocity: 38
Note ON: Time 212400, Note Name: F4, Velocity: 38
Note OFF: Time 212628, Note Name: F4
Note OFF: Time 212628, Note Name: C#4
Note OFF: Time 212640, Note Name: G#3
Note ON: Time 212640, Note Name: G#3, Velocity: 44
Note ON: Time 212880, Note Name: C#4, Velocity: 38
Note ON: Time 212880, Note Name: F4, Velocity: 38
Note OFF: Time 213108, Note Name: F4
Note OFF: Time 213108, Note Name: C#4
Note ON: Time 213120, Note Name: C#4, Velocity: 38
Note ON: Time 213120, Note Name: F4, Velocity: 38
Note OFF: Time 213348, Note Name: F4
Note OFF: Time 213348, Note Name: C#4
Note ON: Time 213360, Note Name: C#4, Velocity: 38
Note ON: Time 213360, Note Name: F4, Velocity: 38
Note OFF: Time 213588, Note Name: F4
Note OFF: Time 213588, Note Name: C#4
Note OFF: Time 213600, Note Name: G#3
Note ON: Time 213600, Note Name: G#3, Velocity: 44
Note ON: Time 213840, Note Name: D#4, Velocity: 38
Note ON: Time 213840, Note Name: F#4, Velocity: 38
Note OFF: Time 214068, Note Name: F#4
Note OFF: Time 214068, Note Name: D#4
Note ON: Time 214080, Note Name: D#4, Velocity: 38
Note ON: Time 214080, Note Name: F#4, Velocity: 38
Note OFF: Time 214308, Note Name: F#4
Note OFF: Time 214308, Note Name: D#4
Note ON: Time 214320, Note Name: D#4, Velocity: 38
Note ON: Time 214320, Note Name: F#4, Velocity: 38
Note OFF: Time 214548, Note Name: F#4
Note OFF: Time 214548, Note Name: D#4
Note OFF: Time 214560, Note Name: G#3
Note ON: Time 214560, Note Name: G#3, Velocity: 44
Note ON: Time 214800, Note Name: D#4, Velocity: 38
Note ON: Time 214800, Note Name: F#4, Velocity: 38
Note OFF: Time 215028, Note Name: F#4
Note OFF: Time 215028, Note Name: D#4
Note ON: Time 215040, Note Name: D#4, Velocity: 38
Note ON: Time 215040, Note Name: F#4, Velocity: 38
Note OFF: Time 215268, Note Name: F#4
Note OFF: Time 215268, Note Name: D#4
Note ON: Time 215280, Note Name: D#4, Velocity: 38
Note ON: Time 215280, Note Name: F#4, Velocity: 38
Note OFF: Time 215508, Note Name: F#4
Note OFF: Time 215508, Note Name: D#4
Note OFF: Time 215520, Note Name: G#3
Note ON: Time 215520, Note Name: G#3, Velocity: 44
Note ON: Time 215760, Note Name: D#4, Velocity: 38
Note ON: Time 215760, Note Name: F#4, Velocity: 38
Note OFF: Time 215988, Note Name: F#4
Note OFF: Time 215988, Note Name: D#4
Note ON: Time 216000, Note Name: D#4, Velocity: 38
Note ON: Time 216000, Note Name: F#4, Velocity: 38
Note OFF: Time 216228, Note Name: F#4
Note OFF: Time 216228, Note Name: D#4
Note ON: Time 216240, Note Name: D#4, Velocity: 38
Note ON: Time 216240, Note Name: F#4, Velocity: 38
Note OFF: Time 216468, Note Name: F#4
Note OFF: Time 216468, Note Name: D#4
Note OFF: Time 216480, Note Name: G#3
Note ON: Time 216480, Note Name: G#3, Velocity: 44
Note ON: Time 216720, Note Name: D#4, Velocity: 38
Note ON: Time 216720, Note Name: F#4, Velocity: 38
Note OFF: Time 216948, Note Name: F#4
Note OFF: Time 216948, Note Name: D#4
Note ON: Time 216960, Note Name: D#4, Velocity: 38
Note ON: Time 216960, Note Name: F#4, Velocity: 38
Note OFF: Time 217188, Note Name: F#4
Note OFF: Time 217188, Note Name: D#4
Note ON: Time 217200, Note Name: D#4, Velocity: 38
Note ON: Time 217200, Note Name: F#4, Velocity: 38
Note OFF: Time 217428, Note Name: F#4
Note OFF: Time 217428, Note Name: D#4
Note OFF: Time 217440, Note Name: G#3
Note ON: Time 217440, Note Name: C#4, Velocity: 54
Note ON: Time 217680, Note Name: F4, Velocity: 53
Note ON: Time 217680, Note Name: G#4, Velocity: 53
Note OFF: Time 217920, Note Name: G#4
Note OFF: Time 217920, Note Name: F4
Note OFF: Time 217920, Note Name: C#4
Note ON: Time 217920, Note Name: B3, Velocity: 60
Note ON: Time 218160, Note Name: F4, Velocity: 53
Note ON: Time 218160, Note Name: G#4, Velocity: 53
Note OFF: Time 218400, Note Name: G#4
Note OFF: Time 218400, Note Name: F4
Note OFF: Time 218400, Note Name: B3
Note ON: Time 218400, Note Name: A#3, Velocity: 53
Note ON: Time 218640, Note Name: F4, Velocity: 38
Note ON: Time 218640, Note Name: G#4, Velocity: 38
Note OFF: Time 218868, Note Name: G#4
Note OFF: Time 218868, Note Name: F4
Note ON: Time 218880, Note Name: F4, Velocity: 38
Note ON: Time 218880, Note Name: G#4, Velocity: 38
Note OFF: Time 219108, Note Name: G#4
Note OFF: Time 219108, Note Name: F4
Note ON: Time 219120, Note Name: F4, Velocity: 38
Note ON: Time 219120, Note Name: G#4, Velocity: 38
Note OFF: Time 219348, Note Name: G#4
Note OFF: Time 219348, Note Name: F4
Note OFF: Time 219360, Note Name: A#3
Note ON: Time 219360, Note Name: A#3, Velocity: 44
Note ON: Time 219600, Note Name: F4, Velocity: 38
Note ON: Time 219600, Note Name: G#4, Velocity: 38
Note OFF: Time 219828, Note Name: G#4
Note OFF: Time 219828, Note Name: F4
Note ON: Time 219840, Note Name: F4, Velocity: 38
Note ON: Time 219840, Note Name: G#4, Velocity: 38
Note OFF: Time 220068, Note Name: G#4
Note OFF: Time 220068, Note Name: F4
Note ON: Time 220080, Note Name: F4, Velocity: 38
Note ON: Time 220080, Note Name: G#4, Velocity: 38
Note OFF: Time 220308, Note Name: G#4
Note OFF: Time 220308, Note Name: F4
Note OFF: Time 220320, Note Name: A#3
Note ON: Time 220320, Note Name: A#3, Velocity: 44
Note ON: Time 220560, Note Name: F4, Velocity: 38
Note ON: Time 220560, Note Name: G#4, Velocity: 38
Note OFF: Time 220788, Note Name: G#4
Note OFF: Time 220788, Note Name: F4
Note ON: Time 220800, Note Name: F4, Velocity: 38
Note ON: Time 220800, Note Name: G#4, Velocity: 38
Note OFF: Time 221028, Note Name: G#4
Note OFF: Time 221028, Note Name: F4
Note ON: Time 221040, Note Name: F4, Velocity: 38
Note ON: Time 221040, Note Name: G#4, Velocity: 38
Note OFF: Time 221268, Note Name: G#4
Note OFF: Time 221268, Note Name: F4
Note OFF: Time 221280, Note Name: A#3
Note ON: Time 221280, Note Name: D#4, Velocity: 54
Note ON: Time 221520, Note Name: F#4, Velocity: 53
Note ON: Time 221520, Note Name: A#4, Velocity: 53
Note OFF: Time 221760, Note Name: A#4
Note OFF: Time 221760, Note Name: F#4
Note OFF: Time 221760, Note Name: D#4
Note ON: Time 221760, Note Name: C#4, Velocity: 60
Note ON: Time 222000, Note Name: F4, Velocity: 53
Note ON: Time 222000, Note Name: A#4, Velocity: 53
Note OFF: Time 222240, Note Name: A#4
Note OFF: Time 222240, Note Name: F4
Note OFF: Time 222240, Note Name: C#4
Note ON: Time 222240, Note Name: C4, Velocity: 53
Note ON: Time 222480, Note Name: G4, Velocity: 38
Note ON: Time 222480, Note Name: A#4, Velocity: 38
Note OFF: Time 222708, Note Name: A#4
Note OFF: Time 222708, Note Name: G4
Note ON: Time 222720, Note Name: G4, Velocity: 38
Note ON: Time 222720, Note Name: A#4, Velocity: 38
Note OFF: Time 222948, Note Name: A#4
Note OFF: Time 222948, Note Name: G4
Note ON: Time 222960, Note Name: G4, Velocity: 38
Note ON: Time 222960, Note Name: A#4, Velocity: 38
Note OFF: Time 223188, Note Name: A#4
Note OFF: Time 223188, Note Name: G4
Note OFF: Time 223200, Note Name: C4
Note ON: Time 223200, Note Name: C4, Velocity: 44
Note ON: Time 223440, Note Name: G4, Velocity: 38
Note ON: Time 223440, Note Name: A#4, Velocity: 38
Note OFF: Time 223668, Note Name: A#4
Note OFF: Time 223668, Note Name: G4
Note ON: Time 223680, Note Name: G4, Velocity: 38
Note ON: Time 223680, Note Name: A#4, Velocity: 38
Note OFF: Time 223908, Note Name: A#4
Note OFF: Time 223908, Note Name: G4
Note ON: Time 223920, Note Name: G4, Velocity: 38
Note ON: Time 223920, Note Name: A#4, Velocity: 38
Note OFF: Time 224148, Note Name: A#4
Note OFF: Time 224148, Note Name: G4
Note OFF: Time 224160, Note Name: C4
Note ON: Time 224160, Note Name: C4, Velocity: 44
Note ON: Time 224400, Note Name: G4, Velocity: 38
Note ON: Time 224400, Note Name: A#4, Velocity: 38
Note OFF: Time 224628, Note Name: A#4
Note OFF: Time 224628, Note Name: G4
Note ON: Time 224640, Note Name: G4, Velocity: 38
Note ON: Time 224640, Note Name: A#4, Velocity: 38
Note OFF: Time 224868, Note Name: A#4
Note OFF: Time 224868, Note Name: G4
Note ON: Time 224880, Note Name: G4, Velocity: 38
Note ON: Time 224880, Note Name: A#4, Velocity: 38
Note OFF: Time 225108, Note Name: A#4
Note OFF: Time 225108, Note Name: G4
Note OFF: Time 225120, Note Name: C4
Note ON: Time 225120, Note Name: F4, Velocity: 44
Note ON: Time 225360, Note Name: G#4, Velocity: 38
Note ON: Time 225360, Note Name: C5, Velocity: 38
Note OFF: Time 225588, Note Name: C5
Note OFF: Time 225588, Note Name: G#4
Note ON: Time 225600, Note Name: G#4, Velocity: 38
Note ON: Time 225600, Note Name: C5, Velocity: 38
Note OFF: Time 225828, Note Name: C5
Note OFF: Time 225828, Note Name: G#4
Note ON: Time 225840, Note Name: G#4, Velocity: 38
Note ON: Time 225840, Note Name: C5, Velocity: 38
Note OFF: Time 226068, Note Name: C5
Note OFF: Time 226068, Note Name: G#4
Note OFF: Time 226080, Note Name: F4
Note ON: Time 226080, Note Name: A#3, Velocity: 44
Note ON: Time 226320, Note Name: F4, Velocity: 38
Note ON: Time 226320, Note Name: G#4, Velocity: 38
Note OFF: Time 226548, Note Name: G#4
Note OFF: Time 226548, Note Name: F4
Note OFF: Time 226560, Note Name: A#3
Note ON: Time 226560, Note Name: B3, Velocity: 44
Note ON: Time 226560, Note Name: F4, Velocity: 38
Note ON: Time 226560, Note Name: G#4, Velocity: 38
Note OFF: Time 226788, Note Name: G#4
Note OFF: Time 226788, Note Name: F4
Note ON: Time 226800, Note Name: F4, Velocity: 38
Note ON: Time 226800, Note Name: G#4, Velocity: 38
Note OFF: Time 227028, Note Name: G#4
Note OFF: Time 227028, Note Name: F4
Note OFF: Time 227040, Note Name: B3
Note ON: Time 227040, Note Name: C4, Velocity: 44
Note ON: Time 227280, Note Name: D#4, Velocity: 37
Note ON: Time 227280, Note Name: G4, Velocity: 37
Note OFF: Time 227508, Note Name: G4
Note OFF: Time 227508, Note Name: D#4
Note ON: Time 227520, Note Name: D#4, Velocity: 36
Note ON: Time 227520, Note Name: G4, Velocity: 36
Note OFF: Time 227748, Note Name: G4
Note OFF: Time 227748, Note Name: D#4
Note ON: Time 227760, Note Name: D#4, Velocity: 36
Note ON: Time 227760, Note Name: G4, Velocity: 36
Note OFF: Time 227988, Note Name: G4
Note OFF: Time 227988, Note Name: D#4
Note OFF: Time 228000, Note Name: C4
Note ON: Time 228000, Note Name: G#3, Velocity: 41
Note ON: Time 228240, Note Name: D#4, Velocity: 34
Note ON: Time 228240, Note Name: F4, Velocity: 34
Note OFF: Time 228468, Note Name: F4
Note OFF: Time 228468, Note Name: D#4
Note ON: Time 228480, Note Name: D#4, Velocity: 34
Note ON: Time 228480, Note Name: F4, Velocity: 34
Note OFF: Time 228708, Note Name: F4
Note OFF: Time 228708, Note Name: D#4
Note ON: Time 228720, Note Name: D#4, Velocity: 33
Note ON: Time 228720, Note Name: F4, Velocity: 33
Note OFF: Time 228948, Note Name: F4
Note OFF: Time 228948, Note Name: D#4
Note OFF: Time 228960, Note Name: G#3
Note ON: Time 228960, Note Name: A#3, Velocity: 38
Note ON: Time 229200, Note Name: D#4, Velocity: 32
Note ON: Time 229200, Note Name: G4, Velocity: 32
Note OFF: Time 229428, Note Name: G4
Note OFF: Time 229428, Note Name: D#4
Note ON: Time 229440, Note Name: D#4, Velocity: 31
Note ON: Time 229440, Note Name: G4, Velocity: 31
Note OFF: Time 229668, Note Name: G4
Note OFF: Time 229668, Note Name: D#4
Note ON: Time 229680, Note Name: D#4, Velocity: 31
Note ON: Time 229680, Note Name: G4, Velocity: 31
Note OFF: Time 229908, Note Name: G4
Note OFF: Time 229908, Note Name: D#4
Note OFF: Time 229920, Note Name: A#3
Note ON: Time 229920, Note Name: A#3, Velocity: 27
Note ON: Time 230160, Note Name: D4, Velocity: 23
Note ON: Time 230160, Note Name: F4, Velocity: 23
Note OFF: Time 230388, Note Name: F4
Note OFF: Time 230388, Note Name: D4
Note ON: Time 230400, Note Name: D4, Velocity: 23
Note ON: Time 230400, Note Name: F4, Velocity: 23
Note OFF: Time 230628, Note Name: F4
Note OFF: Time 230628, Note Name: D4
Note ON: Time 230640, Note Name: D4, Velocity: 23
Note ON: Time 230640, Note Name: F4, Velocity: 23
Note OFF: Time 230868, Note Name: F4
Note OFF: Time 230868, Note Name: D4
Note OFF: Time 230880, Note Name: A#3
Note ON: Time 230880, Note Name: D#3, Velocity: 36
Note ON: Time 231000, Note Name: A#3, Velocity: 24
Note OFF: Time 231120, Note Name: A#3
Note ON: Time 231120, Note Name: G3, Velocity: 26
Note OFF: Time 231240, Note Name: G3
Note ON: Time 231240, Note Name: A#3, Velocity: 24
Note OFF: Time 231360, Note Name: A#3
Note ON: Time 231360, Note Name: G3, Velocity: 32
Note OFF: Time 231480, Note Name: G3
Note ON: Time 231480, Note Name: A#3, Velocity: 25
Note OFF: Time 231600, Note Name: A#3
Note ON: Time 231600, Note Name: G3, Velocity: 28
Note OFF: Time 231720, Note Name: G3
Note ON: Time 231720, Note Name: A#3, Velocity: 26
Note OFF: Time 231840, Note Name: A#3
Note ON: Time 231840, Note Name: G3, Velocity: 34
Note OFF: Time 231960, Note Name: G3
Note ON: Time 231960, Note Name: A#3, Velocity: 26
Note OFF: Time 232080, Note Name: A#3
Note ON: Time 232080, Note Name: G3, Velocity: 29
Note OFF: Time 232200, Note Name: G3
Note ON: Time 232200, Note Name: A#3, Velocity: 26
Note OFF: Time 232320, Note Name: A#3
Note OFF: Time 232320, Note Name: D#3
Note ON: Time 232320, Note Name: D#3, Velocity: 36
Note ON: Time 232440, Note Name: A#3, Velocity: 28
Note OFF: Time 232560, Note Name: A#3
Note ON: Time 232560, Note Name: G3, Velocity: 32
Note OFF: Time 232680, Note Name: G3
Note ON: Time 232680, Note Name: A#3, Velocity: 28
Note OFF: Time 232800, Note Name: A#3
Note OFF: Time 232800, Note Name: D#3
Note ON: Time 232800, Note Name: C#3, Velocity: 45
Note ON: Time 232920, Note Name: A#3, Velocity: 30
Note OFF: Time 233040, Note Name: A#3
Note ON: Time 233040, Note Name: G3, Velocity: 32
Note OFF: Time 233160, Note Name: G3
Note ON: Time 233160, Note Name: A#3, Velocity: 29
Note OFF: Time 233280, Note Name: A#3
Note ON: Time 233280, Note Name: G3, Velocity: 38
Note OFF: Time 233400, Note Name: G3
Note ON: Time 233400, Note Name: A#3, Velocity: 30
Note OFF: Time 233520, Note Name: A#3
Note ON: Time 233520, Note Name: G3, Velocity: 33
Note OFF: Time 233640, Note Name: G3
Note ON: Time 233640, Note Name: A#3, Velocity: 30
Note OFF: Time 233760, Note Name: A#3
Note ON: Time 233760, Note Name: G3, Velocity: 38
Note OFF: Time 233880, Note Name: G3
Note ON: Time 233880, Note Name: A#3, Velocity: 29
Note OFF: Time 234000, Note Name: A#3
Note ON: Time 234000, Note Name: G3, Velocity: 32
Note OFF: Time 234120, Note Name: G3
Note ON: Time 234120, Note Name: A#3, Velocity: 29
Note OFF: Time 234240, Note Name: A#3
Note OFF: Time 234240, Note Name: C#3
Note ON: Time 234240, Note Name: C#3, Velocity: 38
Note ON: Time 234360, Note Name: A#3, Velocity: 30
Note OFF: Time 234480, Note Name: A#3
Note ON: Time 234480, Note Name: G3, Velocity: 33
Note OFF: Time 234600, Note Name: G3
Note ON: Time 234600, Note Name: A#3, Velocity: 29
Note OFF: Time 234720, Note Name: A#3
Note OFF: Time 234720, Note Name: C#3
Note ON: Time 234720, Note Name: C3, Velocity: 55
Note OFF: Time 234810, Note Name: C3
Note ON: Time 234840, Note Name: G#3, Velocity: 36
Note OFF: Time 234960, Note Name: G#3
Note ON: Time 234960, Note Name: D#3, Velocity: 39
Note OFF: Time 235080, Note Name: D#3
Note ON: Time 235080, Note Name: G#3, Velocity: 35
Note OFF: Time 235200, Note Name: G#3
Note ON: Time 235200, Note Name: A#2, Velocity: 56
Note OFF: Time 235290, Note Name: A#2
Note ON: Time 235320, Note Name: G3, Velocity: 36
Note OFF: Time 235440, Note Name: G3
Note ON: Time 235440, Note Name: C3, Velocity: 43
Note OFF: Time 235560, Note Name: C3
Note ON: Time 235560, Note Name: G3, Velocity: 41
Note OFF: Time 235680, Note Name: G3
Note ON: Time 235680, Note Name: G#2, Velocity: 58
Note OFF: Time 235770, Note Name: G#2
Note ON: Time 235800, Note Name: G#3, Velocity: 38
Note OFF: Time 235920, Note Name: G#3
Note ON: Time 235920, Note Name: C3, Velocity: 43
Note OFF: Time 236040, Note Name: C3
Note ON: Time 236040, Note Name: G#3, Velocity: 38
Note OFF: Time 236160, Note Name: G#3
Note ON: Time 236160, Note Name: G2, Velocity: 60
Note OFF: Time 236250, Note Name: G2
Note ON: Time 236280, Note Name: G3, Velocity: 40
Note OFF: Time 236400, Note Name: G3
Note ON: Time 236400, Note Name: C3, Velocity: 43
Note OFF: Time 236520, Note Name: C3
Note ON: Time 236520, Note Name: G3, Velocity: 38
Note OFF: Time 236640, Note Name: G3
Note ON: Time 236640, Note Name: F2, Velocity: 63
Note OFF: Time 236730, Note Name: F2
Note ON: Time 236760, Note Name: F3, Velocity: 42
Note OFF: Time 236880, Note Name: F3
Note ON: Time 236880, Note Name: C3, Velocity: 45
Note OFF: Time 237000, Note Name: C3
Note ON: Time 237000, Note Name: F3, Velocity: 42
Note OFF: Time 237120, Note Name: F3
Note ON: Time 237120, Note Name: D#2, Velocity: 66
Note OFF: Time 237210, Note Name: D#2
Note ON: Time 237240, Note Name: D#3, Velocity: 41
Note OFF: Time 237360, Note Name: D#3
Note ON: Time 237360, Note Name: F2, Velocity: 47
Note OFF: Time 237480, Note Name: F2
Note ON: Time 237480, Note Name: D#3, Velocity: 41
Note OFF: Time 237600, Note Name: D#3
Note ON: Time 237600, Note Name: D2, Velocity: 68
Note OFF: Time 237690, Note Name: D2
Note ON: Time 237720, Note Name: D3, Velocity: 45
Note OFF: Time 237840, Note Name: D3
Note ON: Time 237840, Note Name: F2, Velocity: 49
Note OFF: Time 237960, Note Name: F2
Note ON: Time 237960, Note Name: D3, Velocity: 43
Note OFF: Time 238080, Note Name: D3
Note ON: Time 238080, Note Name: C2, Velocity: 70
Note OFF: Time 238170, Note Name: C2
Note ON: Time 238200, Note Name: C3, Velocity: 45
Note OFF: Time 238320, Note Name: C3
Note ON: Time 238320, Note Name: F2, Velocity: 51
Note OFF: Time 238440, Note Name: F2
Note ON: Time 238440, Note Name: C3, Velocity: 43
Note OFF: Time 238560, Note Name: C3
Note ON: Time 238560, Note Name: A#1, Velocity: 70
Note OFF: Time 238650, Note Name: A#1
Note ON: Time 238680, Note Name: A#2, Velocity: 47
Note OFF: Time 238800, Note Name: A#2
Note ON: Time 238800, Note Name: F2, Velocity: 53
Note OFF: Time 238920, Note Name: F2
Note ON: Time 238920, Note Name: A#2, Velocity: 48
Note OFF: Time 239040, Note Name: A#2
Note ON: Time 239040, Note Name: G#1, Velocity: 72
Note OFF: Time 239130, Note Name: G#1
Note ON: Time 239160, Note Name: G#2, Velocity: 47
Note OFF: Time 239280, Note Name: G#2
Note ON: Time 239280, Note Name: F2, Velocity: 53
Note OFF: Time 239400, Note Name: F2
Note ON: Time 239400, Note Name: G#2, Velocity: 50
Note OFF: Time 239520, Note Name: G#2
Note ON: Time 239520, Note Name: G1, Velocity: 75
Note OFF: Time 239610, Note Name: G1
Note ON: Time 239640, Note Name: G2, Velocity: 50
Note OFF: Time 239760, Note Name: G2
Note ON: Time 239760, Note Name: D#2, Velocity: 55
Note OFF: Time 239880, Note Name: D#2
Note ON: Time 239880, Note Name: G2, Velocity: 50
Note OFF: Time 240000, Note Name: G2
Note ON: Time 240000, Note Name: G1, Velocity: 76
Note OFF: Time 240090, Note Name: G1
Note ON: Time 240120, Note Name: G2, Velocity: 56
Note OFF: Time 240240, Note Name: G2
Note ON: Time 240240, Note Name: D#2, Velocity: 58
Note OFF: Time 240360, Note Name: D#2
Note ON: Time 240360, Note Name: G2, Velocity: 55
Note OFF: Time 240480, Note Name: G2
Note ON: Time 240480, Note Name: G#1, Velocity: 71
Note ON: Time 240480, Note Name: G#2, Velocity: 84
Note OFF: Time 240720, Note Name: G#2
Note OFF: Time 240720, Note Name: G#1
Note ON: Time 241440, Note Name: A#2, Velocity: 84
Note ON: Time 241440, Note Name: A#1, Velocity: 71
Note OFF: Time 241680, Note Name: A#1
Note OFF: Time 241680, Note Name: A#2
Note ON: Time 242400, Note Name: D#3, Velocity: 45
Note ON: Time 242520, Note Name: A#3, Velocity: 30
Note OFF: Time 242640, Note Name: A#3
Note ON: Time 242640, Note Name: G3, Velocity: 32
Note OFF: Time 242760, Note Name: G3
Note ON: Time 242760, Note Name: A#3, Velocity: 29
Note OFF: Time 242880, Note Name: A#3
Note ON: Time 242880, Note Name: G3, Velocity: 38
Note OFF: Time 243000, Note Name: G3
Note ON: Time 243000, Note Name: A#3, Velocity: 30
Note OFF: Time 243120, Note Name: A#3
Note ON: Time 243120, Note Name: G3, Velocity: 33
Note OFF: Time 243240, Note Name: G3
Note ON: Time 243240, Note Name: A#3, Velocity: 30
Note OFF: Time 243360, Note Name: A#3
Note ON: Time 243360, Note Name: G3, Velocity: 38
Note OFF: Time 243480, Note Name: G3
Note ON: Time 243480, Note Name: A#3, Velocity: 29
Note OFF: Time 243600, Note Name: A#3
Note ON: Time 243600, Note Name: G3, Velocity: 32
Note OFF: Time 243720, Note Name: G3
Note ON: Time 243720, Note Name: A#3, Velocity: 29
Note OFF: Time 243840, Note Name: A#3
Note OFF: Time 243840, Note Name: D#3
Note ON: Time 243840, Note Name: D#3, Velocity: 38
Note ON: Time 243960, Note Name: A#3, Velocity: 30
Note OFF: Time 244080, Note Name: A#3
Note ON: Time 244080, Note Name: G3, Velocity: 33
Note OFF: Time 244200, Note Name: G3
Note ON: Time 244200, Note Name: A#3, Velocity: 29
Note OFF: Time 244320, Note Name: A#3
Note OFF: Time 244320, Note Name: D#3
Note ON: Time 244320, Note Name: C#3, Velocity: 45
Note ON: Time 244440, Note Name: A#3, Velocity: 30
Note OFF: Time 244560, Note Name: A#3
Note ON: Time 244560, Note Name: G3, Velocity: 32
Note OFF: Time 244680, Note Name: G3
Note ON: Time 244680, Note Name: A#3, Velocity: 29
Note OFF: Time 244800, Note Name: A#3
Note ON: Time 244800, Note Name: G3, Velocity: 38
Note OFF: Time 244920, Note Name: G3
Note ON: Time 244920, Note Name: A#3, Velocity: 30
Note OFF: Time 245040, Note Name: A#3
Note ON: Time 245040, Note Name: G3, Velocity: 33
Note OFF: Time 245160, Note Name: G3
Note ON: Time 245160, Note Name: A#3, Velocity: 30
Note OFF: Time 245280, Note Name: A#3
Note ON: Time 245280, Note Name: G3, Velocity: 38
Note OFF: Time 245400, Note Name: G3
Note ON: Time 245400, Note Name: A#3, Velocity: 29
Note OFF: Time 245520, Note Name: A#3
Note ON: Time 245520, Note Name: G3, Velocity: 32
Note OFF: Time 245640, Note Name: G3
Note ON: Time 245640, Note Name: A#3, Velocity: 29
Note OFF: Time 245760, Note Name: A#3
Note OFF: Time 245760, Note Name: C#3
Note ON: Time 245760, Note Name: C#3, Velocity: 38
Note ON: Time 245880, Note Name: A#3, Velocity: 30
Note OFF: Time 246000, Note Name: A#3
Note ON: Time 246000, Note Name: G3, Velocity: 33
Note OFF: Time 246120, Note Name: G3
Note ON: Time 246120, Note Name: A#3, Velocity: 29
Note OFF: Time 246240, Note Name: A#3
Note OFF: Time 246240, Note Name: C#3
Note ON: Time 246240, Note Name: C3, Velocity: 55
Note OFF: Time 246330, Note Name: C3
Note ON: Time 246360, Note Name: G#3, Velocity: 36
Note OFF: Time 246480, Note Name: G#3
Note ON: Time 246480, Note Name: D#3, Velocity: 39
Note OFF: Time 246600, Note Name: D#3
Note ON: Time 246600, Note Name: G#3, Velocity: 35
Note OFF: Time 246720, Note Name: G#3
Note ON: Time 246720, Note Name: A#2, Velocity: 56
Note OFF: Time 246810, Note Name: A#2
Note ON: Time 246840, Note Name: G3, Velocity: 36
Note OFF: Time 246960, Note Name: G3
Note ON: Time 246960, Note Name: C3, Velocity: 43
Note OFF: Time 247080, Note Name: C3
Note ON: Time 247080, Note Name: G3, Velocity: 41
Note OFF: Time 247200, Note Name: G3
Note ON: Time 247200, Note Name: G#2, Velocity: 58
Note OFF: Time 247290, Note Name: G#2
Note ON: Time 247320, Note Name: G#3, Velocity: 38
Note OFF: Time 247440, Note Name: G#3
Note ON: Time 247440, Note Name: C3, Velocity: 43
Note OFF: Time 247560, Note Name: C3
Note ON: Time 247560, Note Name: G#3, Velocity: 38
Note OFF: Time 247680, Note Name: G#3
Note ON: Time 247680, Note Name: G2, Velocity: 60
Note OFF: Time 247770, Note Name: G2
Note ON: Time 247800, Note Name: G3, Velocity: 40
Note OFF: Time 247920, Note Name: G3
Note ON: Time 247920, Note Name: C3, Velocity: 43
Note OFF: Time 248040, Note Name: C3
Note ON: Time 248040, Note Name: G3, Velocity: 38
Note OFF: Time 248160, Note Name: G3
Note ON: Time 248160, Note Name: F2, Velocity: 63
Note OFF: Time 248250, Note Name: F2
Note ON: Time 248280, Note Name: F3, Velocity: 42
Note OFF: Time 248400, Note Name: F3
Note ON: Time 248400, Note Name: C3, Velocity: 45
Note OFF: Time 248520, Note Name: C3
Note ON: Time 248520, Note Name: F3, Velocity: 42
Note OFF: Time 248640, Note Name: F3
Note ON: Time 248640, Note Name: D#2, Velocity: 66
Note OFF: Time 248730, Note Name: D#2
Note ON: Time 248760, Note Name: D#3, Velocity: 41
Note OFF: Time 248880, Note Name: D#3
Note ON: Time 248880, Note Name: F2, Velocity: 47
Note OFF: Time 249000, Note Name: F2
Note ON: Time 249000, Note Name: D#3, Velocity: 41
Note OFF: Time 249120, Note Name: D#3
Note ON: Time 249120, Note Name: D2, Velocity: 68
Note OFF: Time 249210, Note Name: D2
Note ON: Time 249240, Note Name: D3, Velocity: 45
Note OFF: Time 249360, Note Name: D3
Note ON: Time 249360, Note Name: F2, Velocity: 49
Note OFF: Time 249480, Note Name: F2
Note ON: Time 249480, Note Name: D3, Velocity: 43
Note OFF: Time 249600, Note Name: D3
Note ON: Time 249600, Note Name: C2, Velocity: 70
Note OFF: Time 249690, Note Name: C2
Note ON: Time 249720, Note Name: C3, Velocity: 45
Note OFF: Time 249840, Note Name: C3
Note ON: Time 249840, Note Name: F2, Velocity: 51
Note OFF: Time 249960, Note Name: F2
Note ON: Time 249960, Note Name: C3, Velocity: 43
Note OFF: Time 250080, Note Name: C3
Note ON: Time 250080, Note Name: A#1, Velocity: 70
Note OFF: Time 250170, Note Name: A#1
Note ON: Time 250200, Note Name: A#2, Velocity: 47
Note OFF: Time 250320, Note Name: A#2
Note ON: Time 250320, Note Name: F2, Velocity: 53
Note OFF: Time 250440, Note Name: F2
Note ON: Time 250440, Note Name: A#2, Velocity: 48
Note OFF: Time 250560, Note Name: A#2
Note ON: Time 250560, Note Name: G#1, Velocity: 72
Note OFF: Time 250650, Note Name: G#1
Note ON: Time 250680, Note Name: G#2, Velocity: 47
Note OFF: Time 250800, Note Name: G#2
Note ON: Time 250800, Note Name: F2, Velocity: 53
Note OFF: Time 250920, Note Name: F2
Note ON: Time 250920, Note Name: G#2, Velocity: 50
Note OFF: Time 251040, Note Name: G#2
Note ON: Time 251040, Note Name: G1, Velocity: 75
Note OFF: Time 251130, Note Name: G1
Note ON: Time 251160, Note Name: G2, Velocity: 50
Note OFF: Time 251280, Note Name: G2
Note ON: Time 251280, Note Name: D#2, Velocity: 55
Note OFF: Time 251400, Note Name: D#2
Note ON: Time 251400, Note Name: G2, Velocity: 50
Note OFF: Time 251520, Note Name: G2
Note ON: Time 251520, Note Name: G1, Velocity: 76
Note OFF: Time 251610, Note Name: G1
Note ON: Time 251640, Note Name: G2, Velocity: 56
Note OFF: Time 251760, Note Name: G2
Note ON: Time 251760, Note Name: G1, Velocity: 58
Note OFF: Time 251880, Note Name: G1
Note ON: Time 251880, Note Name: G2, Velocity: 55
Note OFF: Time 252000, Note Name: G2
Note ON: Time 252000, Note Name: G#1, Velocity: 71
Note ON: Time 252000, Note Name: G#2, Velocity: 84
Note OFF: Time 252240, Note Name: G#2
Note OFF: Time 252240, Note Name: G#1
Note ON: Time 252960, Note Name: A#2, Velocity: 84
Note ON: Time 252960, Note Name: A#1, Velocity: 71
Note OFF: Time 253200, Note Name: A#1
Note OFF: Time 253200, Note Name: A#2
Note ON: Time 253920, Note Name: D#2, Velocity: 84
Note ON: Time 253920, Note Name: D#3, Velocity: 84
Note OFF: Time 254160, Note Name: D#3
Note OFF: Time 254160, Note Name: D#2
Note ON: Time 254160, Note Name: D#4, Velocity: 34
Note ON: Time 254160, Note Name: G4, Velocity: 34
Note OFF: Time 254388, Note Name: G4
Note OFF: Time 254388, Note Name: D#4
Note ON: Time 254400, Note Name: D#4, Velocity: 34
Note ON: Time 254400, Note Name: G4, Velocity: 34
Note OFF: Time 254628, Note Name: G4
Note OFF: Time 254628, Note Name: D#4
Note ON: Time 254640, Note Name: D#4, Velocity: 34
Note ON: Time 254640, Note Name: G4, Velocity: 34
Note OFF: Time 254868, Note Name: G4
Note OFF: Time 254868, Note Name: D#4
Note ON: Time 254880, Note Name: C4, Velocity: 34
Note ON: Time 255120, Note Name: D#4, Velocity: 34
Note ON: Time 255120, Note Name: G4, Velocity: 34
Note OFF: Time 255348, Note Name: G4
Note OFF: Time 255348, Note Name: D#4
Note ON: Time 255360, Note Name: D#4, Velocity: 34
Note ON: Time 255360, Note Name: G4, Velocity: 34
Note OFF: Time 255588, Note Name: G4
Note OFF: Time 255588, Note Name: D#4
Note ON: Time 255600, Note Name: D#4, Velocity: 34
Note ON: Time 255600, Note Name: G4, Velocity: 34
Note OFF: Time 255828, Note Name: G4
Note OFF: Time 255828, Note Name: D#4
Note OFF: Time 255840, Note Name: C4
Note ON: Time 255840, Note Name: G#3, Velocity: 34
Note ON: Time 256080, Note Name: F4, Velocity: 34
Note ON: Time 256080, Note Name: D#4, Velocity: 34
Note OFF: Time 256308, Note Name: D#4
Note OFF: Time 256308, Note Name: F4
Note ON: Time 256320, Note Name: D#4, Velocity: 34
Note ON: Time 256320, Note Name: F4, Velocity: 34
Note OFF: Time 256548, Note Name: F4
Note OFF: Time 256548, Note Name: D#4
Note ON: Time 256560, Note Name: D#4, Velocity: 34
Note ON: Time 256560, Note Name: F4, Velocity: 34
Note OFF: Time 256788, Note Name: F4
Note OFF: Time 256788, Note Name: D#4
Note OFF: Time 256800, Note Name: G#3
Note ON: Time 256800, Note Name: A#3, Velocity: 34
Note ON: Time 257040, Note Name: D4, Velocity: 34
Note ON: Time 257040, Note Name: F4, Velocity: 34
Note OFF: Time 257268, Note Name: F4
Note OFF: Time 257268, Note Name: D4
Note ON: Time 257280, Note Name: D4, Velocity: 34
Note ON: Time 257280, Note Name: F4, Velocity: 34
Note OFF: Time 257508, Note Name: F4
Note OFF: Time 257508, Note Name: D4
Note ON: Time 257520, Note Name: D4, Velocity: 34
Note ON: Time 257520, Note Name: F4, Velocity: 34
Note OFF: Time 257748, Note Name: F4
Note OFF: Time 257748, Note Name: D4
Note OFF: Time 257760, Note Name: A#3
Note ON: Time 257760, Note Name: D#3, Velocity: 59
Note ON: Time 258000, Note Name: G3, Velocity: 44
Note ON: Time 258000, Note Name: D#4, Velocity: 44
Note OFF: Time 258228, Note Name: D#4
Note OFF: Time 258228, Note Name: G3
Note ON: Time 258240, Note Name: G3, Velocity: 44
Note ON: Time 258240, Note Name: D#4, Velocity: 44
Note OFF: Time 258468, Note Name: D#4
Note OFF: Time 258468, Note Name: G3
Note ON: Time 258480, Note Name: G3, Velocity: 44
Note ON: Time 258480, Note Name: D#4, Velocity: 44
Note OFF: Time 258708, Note Name: D#4
Note OFF: Time 258708, Note Name: G3
Note OFF: Time 258720, Note Name: D#3
Note ON: Time 258720, Note Name: C3, Velocity: 45
Note ON: Time 258960, Note Name: G3, Velocity: 46
Note ON: Time 258960, Note Name: D#3, Velocity: 46
Note ON: Time 258960, Note Name: C4, Velocity: 46
Note OFF: Time 259188, Note Name: C4
Note OFF: Time 259188, Note Name: D#3
Note OFF: Time 259188, Note Name: G3
Note ON: Time 259200, Note Name: G3, Velocity: 46
Note ON: Time 259200, Note Name: D#3, Velocity: 46
Note ON: Time 259200, Note Name: C4, Velocity: 46
Note OFF: Time 259428, Note Name: C4
Note OFF: Time 259428, Note Name: D#3
Note OFF: Time 259428, Note Name: G3
Note ON: Time 259440, Note Name: G3, Velocity: 47
Note ON: Time 259440, Note Name: D#3, Velocity: 47
Note ON: Time 259440, Note Name: C4, Velocity: 47
Note OFF: Time 259668, Note Name: C4
Note OFF: Time 259668, Note Name: D#3
Note OFF: Time 259668, Note Name: G3
Note OFF: Time 259680, Note Name: C3
Note ON: Time 259680, Note Name: G#2, Velocity: 47
Note ON: Time 259920, Note Name: F3, Velocity: 48
Note ON: Time 259920, Note Name: G#3, Velocity: 48
Note ON: Time 259920, Note Name: D#3, Velocity: 48
Note OFF: Time 260148, Note Name: D#3
Note OFF: Time 260148, Note Name: G#3
Note OFF: Time 260148, Note Name: F3
Note ON: Time 260160, Note Name: F3, Velocity: 48
Note ON: Time 260160, Note Name: D#3, Velocity: 48
Note ON: Time 260160, Note Name: G#3, Velocity: 48
Note OFF: Time 260388, Note Name: G#3
Note OFF: Time 260388, Note Name: D#3
Note OFF: Time 260388, Note Name: F3
Note ON: Time 260400, Note Name: F3, Velocity: 49
Note ON: Time 260400, Note Name: D#3, Velocity: 49
Note ON: Time 260400, Note Name: G#3, Velocity: 49
Note OFF: Time 260628, Note Name: G#3
Note OFF: Time 260628, Note Name: D#3
Note OFF: Time 260628, Note Name: F3
Note OFF: Time 260640, Note Name: G#2
Note ON: Time 260640, Note Name: A#2, Velocity: 49
Note ON: Time 260880, Note Name: F3, Velocity: 50
Note ON: Time 260880, Note Name: D3, Velocity: 50
Note ON: Time 260880, Note Name: A#3, Velocity: 50
Note OFF: Time 261108, Note Name: A#3
Note OFF: Time 261108, Note Name: D3
Note OFF: Time 261108, Note Name: F3
Note ON: Time 261120, Note Name: F3, Velocity: 50
Note ON: Time 261120, Note Name: D3, Velocity: 50
Note ON: Time 261120, Note Name: A#3, Velocity: 50
Note OFF: Time 261348, Note Name: A#3
Note OFF: Time 261348, Note Name: D3
Note OFF: Time 261348, Note Name: F3
Note ON: Time 261360, Note Name: F3, Velocity: 51
Note ON: Time 261360, Note Name: D3, Velocity: 51
Note ON: Time 261360, Note Name: A#3, Velocity: 51
Note OFF: Time 261588, Note Name: A#3
Note OFF: Time 261588, Note Name: D3
Note OFF: Time 261588, Note Name: F3
Note OFF: Time 261600, Note Name: A#2
Note ON: Time 261600, Note Name: D#2, Velocity: 67
Note ON: Time 261720, Note Name: D#3, Velocity: 60
Note OFF: Time 261828, Note Name: D#2
Note OFF: Time 261840, Note Name: D#3
Note ON: Time 261840, Note Name: D#2, Velocity: 67
Note ON: Time 261960, Note Name: D#3, Velocity: 59
Note OFF: Time 262068, Note Name: D#2
Note OFF: Time 262080, Note Name: D#3
Note ON: Time 262080, Note Name: D#2, Velocity: 67
Note ON: Time 262200, Note Name: D#3, Velocity: 60
Note OFF: Time 262308, Note Name: D#2
Note OFF: Time 262320, Note Name: D#3
Note ON: Time 262320, Note Name: D#2, Velocity: 66
Note ON: Time 262440, Note Name: D#3, Velocity: 60
Note OFF: Time 262548, Note Name: D#2
Note OFF: Time 262560, Note Name: D#3
Note ON: Time 262560, Note Name: D#2, Velocity: 66
Note ON: Time 262680, Note Name: D#3, Velocity: 59
Note OFF: Time 262788, Note Name: D#2
Note OFF: Time 262800, Note Name: D#3
Note ON: Time 262800, Note Name: D#2, Velocity: 66
Note ON: Time 262920, Note Name: D#3, Velocity: 60
Note OFF: Time 263028, Note Name: D#2
Note OFF: Time 263040, Note Name: D#3
Note ON: Time 263040, Note Name: D#2, Velocity: 66
Note ON: Time 263160, Note Name: D#3, Velocity: 60
Note OFF: Time 263268, Note Name: D#2
Note OFF: Time 263280, Note Name: D#3
Note ON: Time 263280, Note Name: D#2, Velocity: 66
Note ON: Time 263400, Note Name: D#3, Velocity: 61
Note OFF: Time 263508, Note Name: D#2
Note OFF: Time 263520, Note Name: D#3
Note ON: Time 263520, Note Name: D#2, Velocity: 67
Note ON: Time 263640, Note Name: D#3, Velocity: 60
Note OFF: Time 263748, Note Name: D#2
Note OFF: Time 263760, Note Name: D#3
Note ON: Time 263760, Note Name: D#2, Velocity: 67
Note ON: Time 263880, Note Name: D#3, Velocity: 59
Note OFF: Time 263988, Note Name: D#2
Note OFF: Time 264000, Note Name: D#3
Note ON: Time 264000, Note Name: D#2, Velocity: 67
Note ON: Time 264120, Note Name: D#3, Velocity: 60
Note OFF: Time 264228, Note Name: D#2
Note OFF: Time 264240, Note Name: D#3
Note ON: Time 264240, Note Name: D#2, Velocity: 66
Note ON: Time 264360, Note Name: D#3, Velocity: 60
Note OFF: Time 264468, Note Name: D#2
Note OFF: Time 264480, Note Name: D#3
Note ON: Time 264480, Note Name: D#2, Velocity: 66
Note ON: Time 264600, Note Name: D#3, Velocity: 59
Note OFF: Time 264708, Note Name: D#2
Note OFF: Time 264720, Note Name: D#3
Note ON: Time 264720, Note Name: D#2, Velocity: 66
Note ON: Time 264840, Note Name: D#3, Velocity: 60
Note OFF: Time 264948, Note Name: D#2
Note OFF: Time 264960, Note Name: D#3
Note ON: Time 264960, Note Name: D#2, Velocity: 66
Note ON: Time 265080, Note Name: D#3, Velocity: 60
Note OFF: Time 265188, Note Name: D#2
Note OFF: Time 265200, Note Name: D#3
Note ON: Time 265200, Note Name: D#2, Velocity: 66
Note ON: Time 265320, Note Name: D#3, Velocity: 61
Note OFF: Time 265428, Note Name: D#2
Note OFF: Time 265440, Note Name: D#3
Note ON: Time 265440, Note Name: D#2, Velocity: 66
Note ON: Time 265560, Note Name: D#3, Velocity: 59
Note OFF: Time 265668, Note Name: D#2
Note OFF: Time 265680, Note Name: D#3
Note ON: Time 265680, Note Name: D#2, Velocity: 66
Note ON: Time 265800, Note Name: D#3, Velocity: 60
Note OFF: Time 265908, Note Name: D#2
Note OFF: Time 265920, Note Name: D#3
Note ON: Time 265920, Note Name: D#2, Velocity: 66
Note ON: Time 266040, Note Name: D#3, Velocity: 60
Note OFF: Time 266148, Note Name: D#2
Note OFF: Time 266160, Note Name: D#3
Note ON: Time 266160, Note Name: D#2, Velocity: 66
Note ON: Time 266280, Note Name: D#3, Velocity: 61
Note OFF: Time 266388, Note Name: D#2
Note OFF: Time 266400, Note Name: D#3
Note ON: Time 266400, Note Name: D2, Velocity: 66
Note ON: Time 266520, Note Name: D3, Velocity: 59
Note OFF: Time 266628, Note Name: D2
Note OFF: Time 266640, Note Name: D3
Note ON: Time 266640, Note Name: D2, Velocity: 66
Note ON: Time 266760, Note Name: D3, Velocity: 60
Note OFF: Time 266868, Note Name: D2
Note OFF: Time 266880, Note Name: D3
Note ON: Time 266880, Note Name: D2, Velocity: 66
Note ON: Time 267000, Note Name: D3, Velocity: 60
Note OFF: Time 267108, Note Name: D2
Note OFF: Time 267120, Note Name: D3
Note ON: Time 267120, Note Name: D2, Velocity: 66
Note ON: Time 267240, Note Name: D3, Velocity: 61
Note OFF: Time 267348, Note Name: D2
Note OFF: Time 267360, Note Name: D3
Note ON: Time 267360, Note Name: C2, Velocity: 66
Note ON: Time 267480, Note Name: C3, Velocity: 59
Note OFF: Time 267588, Note Name: C2
Note OFF: Time 267600, Note Name: C3
Note ON: Time 267600, Note Name: C2, Velocity: 66
Note ON: Time 267720, Note Name: C3, Velocity: 60
Note OFF: Time 267828, Note Name: C2
Note OFF: Time 267840, Note Name: C3
Note ON: Time 267840, Note Name: C2, Velocity: 66
Note ON: Time 267960, Note Name: C3, Velocity: 60
Note OFF: Time 268068, Note Name: C2
Note OFF: Time 268080, Note Name: C3
Note ON: Time 268080, Note Name: C2, Velocity: 66
Note ON: Time 268200, Note Name: C3, Velocity: 61
Note OFF: Time 268308, Note Name: C2
Note OFF: Time 268320, Note Name: C3
Note ON: Time 268320, Note Name: A#1, Velocity: 66
Note ON: Time 268440, Note Name: A#2, Velocity: 59
Note OFF: Time 268548, Note Name: A#1
Note OFF: Time 268560, Note Name: A#2
Note ON: Time 268560, Note Name: A#1, Velocity: 66
Note ON: Time 268680, Note Name: A#2, Velocity: 60
Note OFF: Time 268788, Note Name: A#1
Note OFF: Time 268800, Note Name: A#2
Note ON: Time 268800, Note Name: A#1, Velocity: 66
Note ON: Time 268920, Note Name: A#2, Velocity: 60
Note OFF: Time 269028, Note Name: A#1
Note OFF: Time 269040, Note Name: A#2
Note ON: Time 269040, Note Name: A#1, Velocity: 66
Note ON: Time 269160, Note Name: A#2, Velocity: 61
Note OFF: Time 269268, Note Name: A#1
Note OFF: Time 269280, Note Name: A#2
Note ON: Time 269280, Note Name: G#1, Velocity: 66
Note ON: Time 269400, Note Name: G#2, Velocity: 59
Note OFF: Time 269508, Note Name: G#1
Note OFF: Time 269520, Note Name: G#2
Note ON: Time 269520, Note Name: G#1, Velocity: 66
Note ON: Time 269640, Note Name: G#2, Velocity: 60
Note OFF: Time 269748, Note Name: G#1
Note OFF: Time 269760, Note Name: G#2
Note ON: Time 269760, Note Name: G#1, Velocity: 66
Note ON: Time 269880, Note Name: G#2, Velocity: 60
Note OFF: Time 269988, Note Name: G#1
Note OFF: Time 270000, Note Name: G#2
Note ON: Time 270000, Note Name: G#1, Velocity: 66
Note ON: Time 270120, Note Name: G#2, Velocity: 61
Note OFF: Time 270228, Note Name: G#1
Note OFF: Time 270240, Note Name: G#2
Note ON: Time 270240, Note Name: G1, Velocity: 66
Note ON: Time 270360, Note Name: G2, Velocity: 59
Note OFF: Time 270468, Note Name: G1
Note OFF: Time 270480, Note Name: G2
Note ON: Time 270480, Note Name: G1, Velocity: 66
Note ON: Time 270600, Note Name: G2, Velocity: 60
Note OFF: Time 270708, Note Name: G1
Note OFF: Time 270720, Note Name: G2
Note ON: Time 270720, Note Name: G1, Velocity: 66
Note ON: Time 270840, Note Name: G2, Velocity: 60
Note OFF: Time 270948, Note Name: G1
Note OFF: Time 270960, Note Name: G2
Note ON: Time 270960, Note Name: G1, Velocity: 66
Note ON: Time 271080, Note Name: G2, Velocity: 61
Note OFF: Time 271188, Note Name: G1
Note OFF: Time 271200, Note Name: G2
Note ON: Time 271200, Note Name: F#1, Velocity: 62
Note ON: Time 271200, Note Name: F#2, Velocity: 74
Note OFF: Time 272160, Note Name: F#2
Note OFF: Time 272160, Note Name: F#1
Note ON: Time 272160, Note Name: F#2, Velocity: 71
Note ON: Time 272160, Note Name: F#3, Velocity: 84
Note OFF: Time 273120, Note Name: F#3
Note OFF: Time 273120, Note Name: F#2
Note ON: Time 273120, Note Name: G1, Velocity: 76
Note ON: Time 273120, Note Name: A#1, Velocity: 76
Note ON: Time 273120, Note Name: D2, Velocity: 76
Note ON: Time 273120, Note Name: G2, Velocity: 89
Note OFF: Time 274440, Note Name: G2
Note OFF: Time 274440, Note Name: G1
Note OFF: Time 274440, Note Name: A#1
Note OFF: Time 274440, Note Name: D2
Note ON: Time 274440, Note Name: A#3, Velocity: 39
Note OFF: Time 274554, Note Name: A#3
Note ON: Time 274560, Note Name: A3, Velocity: 45
Note OFF: Time 274920, Note Name: A3
Note ON: Time 274920, Note Name: G3, Velocity: 39
Note OFF: Time 275034, Note Name: G3
Note ON: Time 275040, Note Name: C#4, Velocity: 42
Note OFF: Time 276000, Note Name: C#4
Note ON: Time 276000, Note Name: D4, Velocity: 27
Note OFF: Time 276480, Note Name: D4
Note ON: Time 276840, Note Name: D#3, Velocity: 86
Note OFF: Time 276960, Note Name: D#3
Note ON: Time 276960, Note Name: D#4, Velocity: 90
Note OFF: Time 278280, Note Name: D#4
Note ON: Time 278280, Note Name: D#4, Velocity: 39
Note OFF: Time 278394, Note Name: D#4
Note ON: Time 278400, Note Name: D4, Velocity: 45
Note OFF: Time 278760, Note Name: D4
Note ON: Time 278760, Note Name: C4, Velocity: 39
Note OFF: Time 278874, Note Name: C4
Note ON: Time 278880, Note Name: A#3, Velocity: 38
Note OFF: Time 280320, Note Name: A#3
Note ON: Time 280680, Note Name: D#3, Velocity: 81
Note OFF: Time 280800, Note Name: D#3
Note ON: Time 280800, Note Name: D#4, Velocity: 86
Note OFF: Time 282120, Note Name: D#4
Note ON: Time 282120, Note Name: D#4, Velocity: 42
Note OFF: Time 282234, Note Name: D#4
Note ON: Time 282240, Note Name: D4, Velocity: 49
Note OFF: Time 282600, Note Name: D4
Note ON: Time 282600, Note Name: C4, Velocity: 49
Note OFF: Time 282714, Note Name: C4
Note ON: Time 282720, Note Name: C4, Velocity: 50
Note OFF: Time 283200, Note Name: C4
Note ON: Time 283200, Note Name: B3, Velocity: 43
Note OFF: Time 284160, Note Name: B3
Note ON: Time 284160, Note Name: B3, Velocity: 33
Note OFF: Time 285120, Note Name: B3
Note ON: Time 285120, Note Name: B2, Velocity: 31
Note OFF: Time 286080, Note Name: B2
Note ON: Time 286080, Note Name: B2, Velocity: 28
Note OFF: Time 287040, Note Name: B2
Note ON: Time 287040, Note Name: B1, Velocity: 25
Note OFF: Time 288000, Note Name: B1
Note ON: Time 288000, Note Name: B1, Velocity: 22
Note OFF: Time 288480, Note Name: B1
Note ON: Time 288480, Note Name: E2, Velocity: 55
Note ON: Time 288600, Note Name: E3, Velocity: 50
Note OFF: Time 288708, Note Name: E2
Note OFF: Time 288720, Note Name: E3
Note ON: Time 288720, Note Name: E2, Velocity: 53
Note ON: Time 288840, Note Name: E3, Velocity: 47
Note OFF: Time 288948, Note Name: E2
Note OFF: Time 288960, Note Name: E3
Note ON: Time 288960, Note Name: E2, Velocity: 53
Note ON: Time 289080, Note Name: E3, Velocity: 47
Note OFF: Time 289188, Note Name: E2
Note OFF: Time 289200, Note Name: E3
Note ON: Time 289200, Note Name: E2, Velocity: 52
Note ON: Time 289320, Note Name: E3, Velocity: 48
Note OFF: Time 289428, Note Name: E2
Note OFF: Time 289440, Note Name: E3
Note ON: Time 289440, Note Name: E2, Velocity: 50
Note ON: Time 289560, Note Name: E3, Velocity: 53
Note OFF: Time 289668, Note Name: E2
Note OFF: Time 289680, Note Name: E3
Note ON: Time 289680, Note Name: E2, Velocity: 54
Note ON: Time 289800, Note Name: E3, Velocity: 54
Note OFF: Time 289908, Note Name: E2
Note OFF: Time 289920, Note Name: E3
Note ON: Time 289920, Note Name: E2, Velocity: 56
Note ON: Time 290040, Note Name: E3, Velocity: 58
Note OFF: Time 290148, Note Name: E2
Note OFF: Time 290160, Note Name: E3
Note ON: Time 290160, Note Name: E2, Velocity: 62
Note ON: Time 290280, Note Name: E3, Velocity: 57
Note OFF: Time 290388, Note Name: E2
Note OFF: Time 290400, Note Name: E3
Note ON: Time 290400, Note Name: E3, Velocity: 63
Note ON: Time 290400, Note Name: E2, Velocity: 53
Note OFF: Time 290628, Note Name: E2
Note OFF: Time 290628, Note Name: E3
Note ON: Time 290640, Note Name: G3, Velocity: 46
Note ON: Time 290640, Note Name: B3, Velocity: 55
Note OFF: Time 290868, Note Name: B3
Note OFF: Time 290868, Note Name: G3
Note ON: Time 290880, Note Name: G3, Velocity: 46
Note ON: Time 290880, Note Name: B3, Velocity: 55
Note OFF: Time 291108, Note Name: B3
Note OFF: Time 291108, Note Name: G3
Note ON: Time 291120, Note Name: G3, Velocity: 46
Note ON: Time 291120, Note Name: B3, Velocity: 55
Note OFF: Time 291348, Note Name: B3
Note OFF: Time 291348, Note Name: G3
Note ON: Time 291360, Note Name: E3, Velocity: 63
Note OFF: Time 291588, Note Name: E3
Note ON: Time 291600, Note Name: G3, Velocity: 46
Note ON: Time 291600, Note Name: B3, Velocity: 55
Note OFF: Time 291828, Note Name: B3
Note OFF: Time 291828, Note Name: G3
Note ON: Time 291840, Note Name: G3, Velocity: 46
Note ON: Time 291840, Note Name: B3, Velocity: 55
Note OFF: Time 292068, Note Name: B3
Note OFF: Time 292068, Note Name: G3
Note ON: Time 292080, Note Name: G3, Velocity: 43
Note ON: Time 292080, Note Name: B3, Velocity: 51
Note OFF: Time 292308, Note Name: B3
Note OFF: Time 292308, Note Name: G3
Note ON: Time 292320, Note Name: E3, Velocity: 55
Note OFF: Time 292548, Note Name: E3
Note ON: Time 292560, Note Name: A3, Velocity: 40
Note ON: Time 292560, Note Name: C4, Velocity: 48
Note OFF: Time 292788, Note Name: C4
Note OFF: Time 292788, Note Name: A3
Note ON: Time 292800, Note Name: A3, Velocity: 40
Note ON: Time 292800, Note Name: C4, Velocity: 48
Note OFF: Time 293028, Note Name: C4
Note OFF: Time 293028, Note Name: A3
Note ON: Time 293040, Note Name: A3, Velocity: 40
Note ON: Time 293040, Note Name: C4, Velocity: 48
Note OFF: Time 293268, Note Name: C4
Note OFF: Time 293268, Note Name: A3
Note ON: Time 293280, Note Name: D#3, Velocity: 63
Note OFF: Time 293508, Note Name: D#3
Note ON: Time 293520, Note Name: A3, Velocity: 46
Note ON: Time 293520, Note Name: C4, Velocity: 55
Note OFF: Time 293748, Note Name: C4
Note OFF: Time 293748, Note Name: A3
Note ON: Time 293760, Note Name: A3, Velocity: 46
Note ON: Time 293760, Note Name: C4, Velocity: 55
Note OFF: Time 293988, Note Name: C4
Note OFF: Time 293988, Note Name: A3
Note ON: Time 294000, Note Name: A3, Velocity: 43
Note ON: Time 294000, Note Name: C4, Velocity: 51
Note OFF: Time 294228, Note Name: C4
Note OFF: Time 294228, Note Name: A3
Note ON: Time 294240, Note Name: D2, Velocity: 55
Note ON: Time 294360, Note Name: D3, Velocity: 50
Note OFF: Time 294468, Note Name: D2
Note OFF: Time 294480, Note Name: D3
Note ON: Time 294480, Note Name: D2, Velocity: 53
Note ON: Time 294600, Note Name: D3, Velocity: 47
Note OFF: Time 294708, Note Name: D2
Note OFF: Time 294720, Note Name: D3
Note ON: Time 294720, Note Name: D2, Velocity: 53
Note ON: Time 294840, Note Name: D3, Velocity: 47
Note OFF: Time 294948, Note Name: D2
Note OFF: Time 294960, Note Name: D3
Note ON: Time 294960, Note Name: D2, Velocity: 52
Note ON: Time 295080, Note Name: D3, Velocity: 48
Note OFF: Time 295188, Note Name: D2
Note OFF: Time 295200, Note Name: D3
Note ON: Time 295200, Note Name: D2, Velocity: 50
Note ON: Time 295320, Note Name: D3, Velocity: 53
Note OFF: Time 295428, Note Name: D2
Note OFF: Time 295440, Note Name: D3
Note ON: Time 295440, Note Name: D2, Velocity: 54
Note ON: Time 295560, Note Name: D3, Velocity: 54
Note OFF: Time 295668, Note Name: D2
Note OFF: Time 295680, Note Name: D3
Note ON: Time 295680, Note Name: D2, Velocity: 56
Note ON: Time 295800, Note Name: D3, Velocity: 58
Note OFF: Time 295908, Note Name: D2
Note OFF: Time 295920, Note Name: D3
Note ON: Time 295920, Note Name: D2, Velocity: 62
Note ON: Time 296040, Note Name: D3, Velocity: 57
Note OFF: Time 296148, Note Name: D2
Note OFF: Time 296160, Note Name: D3
Note ON: Time 296160, Note Name: D3, Velocity: 63
Note ON: Time 296160, Note Name: D2, Velocity: 53
Note OFF: Time 296388, Note Name: D2
Note OFF: Time 296388, Note Name: D3
Note ON: Time 296400, Note Name: A3, Velocity: 46
Note ON: Time 296400, Note Name: C4, Velocity: 55
Note OFF: Time 296628, Note Name: C4
Note OFF: Time 296628, Note Name: A3
Note ON: Time 296640, Note Name: A3, Velocity: 46
Note ON: Time 296640, Note Name: C4, Velocity: 55
Note OFF: Time 296868, Note Name: C4
Note OFF: Time 296868, Note Name: A3
Note ON: Time 296880, Note Name: A3, Velocity: 46
Note ON: Time 296880, Note Name: C4, Velocity: 55
Note OFF: Time 297108, Note Name: C4
Note OFF: Time 297108, Note Name: A3
Note ON: Time 297120, Note Name: D3, Velocity: 63
Note OFF: Time 297348, Note Name: D3
Note ON: Time 297360, Note Name: A3, Velocity: 46
Note ON: Time 297360, Note Name: C4, Velocity: 55
Note OFF: Time 297588, Note Name: C4
Note OFF: Time 297588, Note Name: A3
Note ON: Time 297600, Note Name: A3, Velocity: 46
Note ON: Time 297600, Note Name: C4, Velocity: 55
Note OFF: Time 297828, Note Name: C4
Note OFF: Time 297828, Note Name: A3
Note ON: Time 297840, Note Name: A3, Velocity: 43
Note ON: Time 297840, Note Name: C4, Velocity: 51
Note OFF: Time 298068, Note Name: C4
Note OFF: Time 298068, Note Name: A3
Note ON: Time 298080, Note Name: D3, Velocity: 55
Note OFF: Time 298308, Note Name: D3
Note ON: Time 298320, Note Name: G3, Velocity: 40
Note ON: Time 298320, Note Name: A#3, Velocity: 48
Note OFF: Time 298548, Note Name: A#3
Note OFF: Time 298548, Note Name: G3
Note ON: Time 298560, Note Name: G3, Velocity: 40
Note ON: Time 298560, Note Name: A#3, Velocity: 48
Note OFF: Time 298788, Note Name: A#3
Note OFF: Time 298788, Note Name: G3
Note ON: Time 298800, Note Name: G3, Velocity: 40
Note ON: Time 298800, Note Name: A#3, Velocity: 48
Note OFF: Time 299028, Note Name: A#3
Note OFF: Time 299028, Note Name: G3
Note ON: Time 299040, Note Name: C#3, Velocity: 63
Note OFF: Time 299268, Note Name: C#3
Note ON: Time 299280, Note Name: G3, Velocity: 46
Note ON: Time 299280, Note Name: A#3, Velocity: 55
Note OFF: Time 299508, Note Name: A#3
Note OFF: Time 299508, Note Name: G3
Note ON: Time 299520, Note Name: G3, Velocity: 46
Note ON: Time 299520, Note Name: A#3, Velocity: 55
Note OFF: Time 299748, Note Name: A#3
Note OFF: Time 299748, Note Name: G3
Note ON: Time 299760, Note Name: G3, Velocity: 43
Note ON: Time 299760, Note Name: A#3, Velocity: 51
Note OFF: Time 299988, Note Name: A#3
Note OFF: Time 299988, Note Name: G3
Note ON: Time 300000, Note Name: C2, Velocity: 53
Note ON: Time 300000, Note Name: C3, Velocity: 53
Note OFF: Time 300240, Note Name: C3
Note OFF: Time 300240, Note Name: C2
Note ON: Time 300240, Note Name: C#3, Velocity: 55
Note OFF: Time 300480, Note Name: C#3
Note ON: Time 300480, Note Name: C3, Velocity: 51
Note OFF: Time 300720, Note Name: C3
Note ON: Time 300720, Note Name: F3, Velocity: 55
Note OFF: Time 300960, Note Name: F3
Note ON: Time 300960, Note Name: E3, Velocity: 52
Note OFF: Time 301200, Note Name: E3
Note ON: Time 301200, Note Name: C#4, Velocity: 55
Note OFF: Time 301440, Note Name: C#4
Note ON: Time 301440, Note Name: C4, Velocity: 51
Note OFF: Time 301680, Note Name: C4
Note ON: Time 301680, Note Name: F4, Velocity: 55
Note OFF: Time 301920, Note Name: F4
Note ON: Time 301920, Note Name: E4, Velocity: 51
Note OFF: Time 302160, Note Name: E4
Note ON: Time 302160, Note Name: F#4, Velocity: 55
Note OFF: Time 302400, Note Name: F#4
Note ON: Time 302400, Note Name: G4, Velocity: 57
Note OFF: Time 302640, Note Name: G4
Note ON: Time 304080, Note Name: F#2, Velocity: 55
Note OFF: Time 304320, Note Name: F#2
Note ON: Time 304320, Note Name: F2, Velocity: 51
Note OFF: Time 304560, Note Name: F2
Note ON: Time 304560, Note Name: C#3, Velocity: 55
Note OFF: Time 304800, Note Name: C#3
Note ON: Time 304800, Note Name: C3, Velocity: 52
Note OFF: Time 305040, Note Name: C3
Note ON: Time 305040, Note Name: F#3, Velocity: 55
Note OFF: Time 305280, Note Name: F#3
Note ON: Time 305280, Note Name: F3, Velocity: 51
Note OFF: Time 305520, Note Name: F3
Note ON: Time 305520, Note Name: C#4, Velocity: 55
Note OFF: Time 305760, Note Name: C#4
Note ON: Time 305760, Note Name: C4, Velocity: 51
Note OFF: Time 306000, Note Name: C4
Note ON: Time 306000, Note Name: E4, Velocity: 55
Note OFF: Time 306240, Note Name: E4
Note ON: Time 306240, Note Name: F4, Velocity: 57
Note OFF: Time 306480, Note Name: F4
Note ON: Time 307920, Note Name: C3, Velocity: 55
Note OFF: Time 308160, Note Name: C3
Note ON: Time 308160, Note Name: B2, Velocity: 51
Note OFF: Time 308400, Note Name: B2
Note ON: Time 308400, Note Name: D3, Velocity: 55
Note OFF: Time 308640, Note Name: D3
Note ON: Time 308640, Note Name: F3, Velocity: 52
Note OFF: Time 308880, Note Name: F3
Note ON: Time 308880, Note Name: C4, Velocity: 55
Note OFF: Time 309120, Note Name: C4
Note ON: Time 309120, Note Name: B3, Velocity: 51
Note OFF: Time 309360, Note Name: B3
Note ON: Time 309360, Note Name: D4, Velocity: 55
Note OFF: Time 309600, Note Name: D4
Note ON: Time 309600, Note Name: F4, Velocity: 54
Note OFF: Time 309714, Note Name: F4
Note ON: Time 310080, Note Name: D4, Velocity: 54
Note OFF: Time 310200, Note Name: D4
Note ON: Time 310560, Note Name: B3, Velocity: 53
Note OFF: Time 310680, Note Name: B3
Note ON: Time 311040, Note Name: G3, Velocity: 52
Note OFF: Time 311160, Note Name: G3
Note ON: Time 311520, Note Name: C#3, Velocity: 43
Note ON: Time 311520, Note Name: C#4, Velocity: 51
Note OFF: Time 311760, Note Name: C#4
Note OFF: Time 311760, Note Name: C#3
Note ON: Time 312000, Note Name: A#2, Velocity: 42
Note ON: Time 312000, Note Name: A#3, Velocity: 50
Note OFF: Time 312240, Note Name: A#3
Note OFF: Time 312240, Note Name: A#2
Note ON: Time 312480, Note Name: G2, Velocity: 41
Note ON: Time 312480, Note Name: G3, Velocity: 49
Note OFF: Time 312720, Note Name: G3
Note OFF: Time 312720, Note Name: G2
Note ON: Time 312960, Note Name: E2, Velocity: 40
Note ON: Time 312960, Note Name: E3, Velocity: 48
Note OFF: Time 313200, Note Name: E3
Note OFF: Time 313200, Note Name: E2
Note ON: Time 313440, Note Name: F2, Velocity: 40
Note ON: Time 313440, Note Name: F3, Velocity: 48
Note OFF: Time 313680, Note Name: F3
Note OFF: Time 313680, Note Name: F2
Note ON: Time 314400, Note Name: F1, Velocity: 40
Note ON: Time 314400, Note Name: F2, Velocity: 48
Note OFF: Time 314640, Note Name: F2
Note OFF: Time 314640, Note Name: F1
Note ON: Time 315360, Note Name: F#1, Velocity: 40
Note ON: Time 315360, Note Name: F#2, Velocity: 48
Note OFF: Time 315600, Note Name: F#2
Note OFF: Time 315600, Note Name: F#1
Note ON: Time 316320, Note Name: F#1, Velocity: 40
Note ON: Time 316320, Note Name: F#2, Velocity: 48
Note OFF: Time 316560, Note Name: F#2
Note OFF: Time 316560, Note Name: F#1
Note ON: Time 317280, Note Name: G1, Velocity: 33
Note OFF: Time 317400, Note Name: G1
Note ON: Time 317400, Note Name: G2, Velocity: 33
Note OFF: Time 317520, Note Name: G2
Note ON: Time 317520, Note Name: G1, Velocity: 34
Note OFF: Time 317640, Note Name: G1
Note ON: Time 317640, Note Name: G2, Velocity: 34
Note OFF: Time 317760, Note Name: G2
Note ON: Time 317760, Note Name: G1, Velocity: 34
Note OFF: Time 317880, Note Name: G1
Note ON: Time 317880, Note Name: G2, Velocity: 34
Note OFF: Time 318000, Note Name: G2
Note ON: Time 318000, Note Name: G1, Velocity: 34
Note OFF: Time 318120, Note Name: G1
Note ON: Time 318120, Note Name: G2, Velocity: 34
Note OFF: Time 318240, Note Name: G2
Note ON: Time 318240, Note Name: G1, Velocity: 34
Note OFF: Time 318360, Note Name: G1
Note ON: Time 318360, Note Name: G2, Velocity: 34
Note OFF: Time 318480, Note Name: G2
Note ON: Time 318480, Note Name: G1, Velocity: 34
Note OFF: Time 318600, Note Name: G1
Note ON: Time 318600, Note Name: G2, Velocity: 34
Note OFF: Time 318720, Note Name: G2
Note ON: Time 318720, Note Name: G1, Velocity: 34
Note OFF: Time 318840, Note Name: G1
Note ON: Time 318840, Note Name: G2, Velocity: 34
Note OFF: Time 318960, Note Name: G2
Note ON: Time 318960, Note Name: G1, Velocity: 34
Note OFF: Time 319080, Note Name: G1
Note ON: Time 319080, Note Name: G2, Velocity: 34
Note OFF: Time 319200, Note Name: G2
Note ON: Time 319200, Note Name: G1, Velocity: 33
Note OFF: Time 319320, Note Name: G1
Note ON: Time 319320, Note Name: G2, Velocity: 33
Note OFF: Time 319440, Note Name: G2
Note ON: Time 319440, Note Name: G1, Velocity: 33
Note OFF: Time 319560, Note Name: G1
Note ON: Time 319560, Note Name: G2, Velocity: 33
Note OFF: Time 319680, Note Name: G2
Note ON: Time 319680, Note Name: G1, Velocity: 33
Note OFF: Time 319800, Note Name: G1
Note ON: Time 319800, Note Name: G2, Velocity: 33
Note OFF: Time 319920, Note Name: G2
Note ON: Time 319920, Note Name: G1, Velocity: 33
Note OFF: Time 320040, Note Name: G1
Note ON: Time 320040, Note Name: G2, Velocity: 33
Note OFF: Time 320160, Note Name: G2
Note ON: Time 320160, Note Name: G1, Velocity: 33
Note OFF: Time 320280, Note Name: G1
Note ON: Time 320280, Note Name: G2, Velocity: 33
Note OFF: Time 320400, Note Name: G2
Note ON: Time 320400, Note Name: G1, Velocity: 33
Note OFF: Time 320520, Note Name: G1
Note ON: Time 320520, Note Name: G2, Velocity: 33
Note OFF: Time 320640, Note Name: G2
Note ON: Time 320640, Note Name: G1, Velocity: 33
Note OFF: Time 320760, Note Name: G1
Note ON: Time 320760, Note Name: G2, Velocity: 33
Note OFF: Time 320880, Note Name: G2
Note ON: Time 320880, Note Name: G1, Velocity: 33
Note OFF: Time 321000, Note Name: G1
Note ON: Time 321000, Note Name: G2, Velocity: 33
Note OFF: Time 321120, Note Name: G2
Note ON: Time 321120, Note Name: G1, Velocity: 55
Note ON: Time 321240, Note Name: G2, Velocity: 50
Note OFF: Time 321348, Note Name: G1
Note OFF: Time 321360, Note Name: G2
Note ON: Time 321360, Note Name: G1, Velocity: 53
Note ON: Time 321480, Note Name: G2, Velocity: 47
Note OFF: Time 321588, Note Name: G1
Note OFF: Time 321600, Note Name: G2
Note ON: Time 321600, Note Name: G1, Velocity: 53
Note ON: Time 321720, Note Name: G2, Velocity: 47
Note OFF: Time 321828, Note Name: G1
Note OFF: Time 321840, Note Name: G2
Note ON: Time 321840, Note Name: G1, Velocity: 52
Note ON: Time 321960, Note Name: G2, Velocity: 48
Note OFF: Time 322068, Note Name: G1
Note OFF: Time 322080, Note Name: G2
Note ON: Time 322080, Note Name: G1, Velocity: 50
Note ON: Time 322200, Note Name: G2, Velocity: 53
Note OFF: Time 322308, Note Name: G1
Note OFF: Time 322320, Note Name: G2
Note ON: Time 322320, Note Name: G1, Velocity: 54
Note ON: Time 322440, Note Name: G2, Velocity: 54
Note OFF: Time 322548, Note Name: G1
Note OFF: Time 322560, Note Name: G2
Note ON: Time 322560, Note Name: G1, Velocity: 56
Note ON: Time 322680, Note Name: G2, Velocity: 58
Note OFF: Time 322788, Note Name: G1
Note OFF: Time 322800, Note Name: G2
Note ON: Time 322800, Note Name: G1, Velocity: 62
Note ON: Time 322920, Note Name: G2, Velocity: 57
Note OFF: Time 323028, Note Name: G1
Note OFF: Time 323040, Note Name: G2
Note ON: Time 323040, Note Name: G1, Velocity: 69
Note ON: Time 323280, Note Name: G2, Velocity: 62
Note OFF: Time 323520, Note Name: G1
Note ON: Time 323520, Note Name: B1, Velocity: 67
Note OFF: Time 323760, Note Name: G2
Note ON: Time 323760, Note Name: G2, Velocity: 62
Note OFF: Time 324000, Note Name: B1
Note ON: Time 324000, Note Name: C2, Velocity: 67
Note OFF: Time 324240, Note Name: G2
Note ON: Time 324240, Note Name: G2, Velocity: 62
Note OFF: Time 324480, Note Name: C2
Note ON: Time 324480, Note Name: F#1, Velocity: 64
Note OFF: Time 324720, Note Name: G2
Note ON: Time 324720, Note Name: G2, Velocity: 62
Note OFF: Time 324960, Note Name: G2
Note OFF: Time 324960, Note Name: F#1
Note ON: Time 324960, Note Name: G1, Velocity: 33
Note OFF: Time 325080, Note Name: G1
Note ON: Time 325080, Note Name: G2, Velocity: 33
Note OFF: Time 325200, Note Name: G2
Note ON: Time 325200, Note Name: G1, Velocity: 34
Note OFF: Time 325320, Note Name: G1
Note ON: Time 325320, Note Name: G2, Velocity: 34
Note OFF: Time 325440, Note Name: G2
Note ON: Time 325440, Note Name: G1, Velocity: 34
Note OFF: Time 325560, Note Name: G1
Note ON: Time 325560, Note Name: G2, Velocity: 34
Note OFF: Time 325680, Note Name: G2
Note ON: Time 325680, Note Name: G1, Velocity: 34
Note OFF: Time 325800, Note Name: G1
Note ON: Time 325800, Note Name: G2, Velocity: 34
Note OFF: Time 325920, Note Name: G2
Note ON: Time 325920, Note Name: G1, Velocity: 34
Note OFF: Time 326040, Note Name: G1
Note ON: Time 326040, Note Name: G2, Velocity: 34
Note OFF: Time 326160, Note Name: G2
Note ON: Time 326160, Note Name: G1, Velocity: 34
Note OFF: Time 326280, Note Name: G1
Note ON: Time 326280, Note Name: G2, Velocity: 34
Note OFF: Time 326400, Note Name: G2
Note ON: Time 326400, Note Name: G1, Velocity: 34
Note OFF: Time 326520, Note Name: G1
Note ON: Time 326520, Note Name: G2, Velocity: 34
Note OFF: Time 326640, Note Name: G2
Note ON: Time 326640, Note Name: G1, Velocity: 34
Note OFF: Time 326760, Note Name: G1
Note ON: Time 326760, Note Name: G2, Velocity: 34
Note OFF: Time 326880, Note Name: G2
Note ON: Time 326880, Note Name: G1, Velocity: 33
Note OFF: Time 327000, Note Name: G1
Note ON: Time 327000, Note Name: G2, Velocity: 33
Note OFF: Time 327120, Note Name: G2
Note ON: Time 327120, Note Name: G1, Velocity: 33
Note OFF: Time 327240, Note Name: G1
Note ON: Time 327240, Note Name: G2, Velocity: 33
Note OFF: Time 327360, Note Name: G2
Note ON: Time 327360, Note Name: G1, Velocity: 33
Note OFF: Time 327480, Note Name: G1
Note ON: Time 327480, Note Name: G2, Velocity: 33
Note OFF: Time 327600, Note Name: G2
Note ON: Time 327600, Note Name: G1, Velocity: 33
Note OFF: Time 327720, Note Name: G1
Note ON: Time 327720, Note Name: G2, Velocity: 33
Note OFF: Time 327840, Note Name: G2
Note ON: Time 327840, Note Name: G1, Velocity: 33
Note OFF: Time 327960, Note Name: G1
Note ON: Time 327960, Note Name: G2, Velocity: 33
Note OFF: Time 328080, Note Name: G2
Note ON: Time 328080, Note Name: G1, Velocity: 33
Note OFF: Time 328200, Note Name: G1
Note ON: Time 328200, Note Name: G2, Velocity: 33
Note OFF: Time 328320, Note Name: G2
Note ON: Time 328320, Note Name: G1, Velocity: 33
Note OFF: Time 328440, Note Name: G1
Note ON: Time 328440, Note Name: G2, Velocity: 33
Note OFF: Time 328560, Note Name: G2
Note ON: Time 328560, Note Name: G1, Velocity: 33
Note OFF: Time 328680, Note Name: G1
Note ON: Time 328680, Note Name: G2, Velocity: 33
Note OFF: Time 328800, Note Name: G2
Note ON: Time 328800, Note Name: G1, Velocity: 55
Note ON: Time 328920, Note Name: G2, Velocity: 50
Note OFF: Time 329028, Note Name: G1
Note OFF: Time 329040, Note Name: G2
Note ON: Time 329040, Note Name: G1, Velocity: 53
Note ON: Time 329160, Note Name: G2, Velocity: 47
Note OFF: Time 329268, Note Name: G1
Note OFF: Time 329280, Note Name: G2
Note ON: Time 329280, Note Name: G1, Velocity: 53
Note ON: Time 329400, Note Name: G2, Velocity: 47
Note OFF: Time 329508, Note Name: G1
Note OFF: Time 329520, Note Name: G2
Note ON: Time 329520, Note Name: G1, Velocity: 52
Note ON: Time 329640, Note Name: G2, Velocity: 48
Note OFF: Time 329748, Note Name: G1
Note OFF: Time 329760, Note Name: G2
Note ON: Time 329760, Note Name: G1, Velocity: 50
Note ON: Time 329880, Note Name: G2, Velocity: 53
Note OFF: Time 329988, Note Name: G1
Note OFF: Time 330000, Note Name: G2
Note ON: Time 330000, Note Name: G1, Velocity: 54
Note ON: Time 330120, Note Name: G2, Velocity: 54
Note OFF: Time 330228, Note Name: G1
Note OFF: Time 330240, Note Name: G2
Note ON: Time 330240, Note Name: G1, Velocity: 56
Note ON: Time 330360, Note Name: G2, Velocity: 58
Note OFF: Time 330468, Note Name: G1
Note OFF: Time 330480, Note Name: G2
Note ON: Time 330480, Note Name: G1, Velocity: 62
Note ON: Time 330600, Note Name: G2, Velocity: 57
Note OFF: Time 330708, Note Name: G1
Note OFF: Time 330720, Note Name: G2
Note ON: Time 330720, Note Name: G1, Velocity: 69
Note ON: Time 330960, Note Name: G2, Velocity: 62
Note OFF: Time 331200, Note Name: G1
Note ON: Time 331200, Note Name: B1, Velocity: 67
Note OFF: Time 331440, Note Name: G2
Note ON: Time 331440, Note Name: G2, Velocity: 62
Note OFF: Time 331680, Note Name: B1
Note ON: Time 331680, Note Name: C2, Velocity: 67
Note OFF: Time 331920, Note Name: G2
Note ON: Time 331920, Note Name: G2, Velocity: 62
Note OFF: Time 332160, Note Name: C2
Note ON: Time 332160, Note Name: F#1, Velocity: 64
Note OFF: Time 332400, Note Name: G2
Note ON: Time 332400, Note Name: G2, Velocity: 62
Note OFF: Time 332640, Note Name: G2
Note OFF: Time 332640, Note Name: F#1
Note ON: Time 332640, Note Name: G1, Velocity: 69
Note ON: Time 332880, Note Name: G2, Velocity: 62
Note OFF: Time 333120, Note Name: G1
Note ON: Time 333120, Note Name: B1, Velocity: 67
Note OFF: Time 333360, Note Name: G2
Note ON: Time 333360, Note Name: G2, Velocity: 62
Note OFF: Time 333600, Note Name: B1
Note ON: Time 333600, Note Name: C2, Velocity: 67
Note OFF: Time 333840, Note Name: G2
Note ON: Time 333840, Note Name: G2, Velocity: 62
Note OFF: Time 334080, Note Name: C2
Note ON: Time 334080, Note Name: F#1, Velocity: 64
Note OFF: Time 334320, Note Name: G2
Note ON: Time 334320, Note Name: G2, Velocity: 62
Note OFF: Time 334560, Note Name: G2
Note OFF: Time 334560, Note Name: F#1
Note ON: Time 334560, Note Name: G1, Velocity: 69
Note ON: Time 334800, Note Name: G2, Velocity: 62
Note OFF: Time 335040, Note Name: G1
Note ON: Time 335040, Note Name: B1, Velocity: 67
Note OFF: Time 335280, Note Name: G2
Note ON: Time 335280, Note Name: G2, Velocity: 62
Note OFF: Time 335520, Note Name: B1
Note ON: Time 335520, Note Name: C2, Velocity: 67
Note OFF: Time 335760, Note Name: G2
Note ON: Time 335760, Note Name: G2, Velocity: 62
Note OFF: Time 336000, Note Name: C2
Note ON: Time 336000, Note Name: F#1, Velocity: 64
Note OFF: Time 336240, Note Name: G2
Note ON: Time 336240, Note Name: G2, Velocity: 62
Note OFF: Time 336480, Note Name: G2
Note OFF: Time 336480, Note Name: F#1
Note ON: Time 344160, Note Name: C2, Velocity: 44
Note ON: Time 344280, Note Name: C3, Velocity: 41
Note OFF: Time 344388, Note Name: C2
Note OFF: Time 344400, Note Name: C3
Note ON: Time 344400, Note Name: C2, Velocity: 44
Note ON: Time 344520, Note Name: C3, Velocity: 41
Note OFF: Time 344628, Note Name: C2
Note OFF: Time 344640, Note Name: C3
Note ON: Time 344640, Note Name: C2, Velocity: 44
Note ON: Time 344760, Note Name: C3, Velocity: 41
Note OFF: Time 344868, Note Name: C2
Note OFF: Time 344880, Note Name: C3
Note ON: Time 344880, Note Name: C2, Velocity: 45
Note ON: Time 345000, Note Name: C3, Velocity: 41
Note OFF: Time 345108, Note Name: C2
Note OFF: Time 345120, Note Name: C3
Note ON: Time 345120, Note Name: C2, Velocity: 45
Note ON: Time 345240, Note Name: C3, Velocity: 46
Note OFF: Time 345348, Note Name: C2
Note OFF: Time 345360, Note Name: C3
Note ON: Time 345360, Note Name: C2, Velocity: 47
Note ON: Time 345480, Note Name: C3, Velocity: 47
Note OFF: Time 345588, Note Name: C2
Note OFF: Time 345600, Note Name: C3
Note ON: Time 345600, Note Name: C2, Velocity: 49
Note ON: Time 345720, Note Name: C3, Velocity: 50
Note OFF: Time 345828, Note Name: C2
Note OFF: Time 345840, Note Name: C3
Note ON: Time 345840, Note Name: C2, Velocity: 51
Note ON: Time 345960, Note Name: C3, Velocity: 53
Note OFF: Time 346068, Note Name: C2
Note OFF: Time 346080, Note Name: C3
Note ON: Time 346080, Note Name: C2, Velocity: 55
Note ON: Time 346200, Note Name: C3, Velocity: 50
Note OFF: Time 346308, Note Name: C2
Note OFF: Time 346320, Note Name: C3
Note ON: Time 346320, Note Name: C2, Velocity: 53
Note ON: Time 346440, Note Name: C3, Velocity: 47
Note OFF: Time 346548, Note Name: C2
Note OFF: Time 346560, Note Name: C3
Note ON: Time 346560, Note Name: C2, Velocity: 53
Note ON: Time 346680, Note Name: C3, Velocity: 47
Note OFF: Time 346788, Note Name: C2
Note OFF: Time 346800, Note Name: C3
Note ON: Time 346800, Note Name: C2, Velocity: 44
Note ON: Time 346920, Note Name: C3, Velocity: 40
Note OFF: Time 347028, Note Name: C2
Note OFF: Time 347040, Note Name: C3
Note ON: Time 347040, Note Name: C2, Velocity: 43
Note ON: Time 347160, Note Name: C3, Velocity: 45
Note OFF: Time 347268, Note Name: C2
Note OFF: Time 347280, Note Name: C3
Note ON: Time 347280, Note Name: C2, Velocity: 46
Note ON: Time 347400, Note Name: C3, Velocity: 47
Note OFF: Time 347508, Note Name: C2
Note OFF: Time 347520, Note Name: C3
Note ON: Time 347520, Note Name: C2, Velocity: 48
Note ON: Time 347640, Note Name: C3, Velocity: 50
Note OFF: Time 347748, Note Name: C2
Note OFF: Time 347760, Note Name: C3
Note ON: Time 347760, Note Name: C2, Velocity: 51
Note ON: Time 347880, Note Name: C3, Velocity: 53
Note OFF: Time 347988, Note Name: C2
Note OFF: Time 348000, Note Name: C3
Note ON: Time 348000, Note Name: C2, Velocity: 55
Note ON: Time 348120, Note Name: C3, Velocity: 50
Note OFF: Time 348228, Note Name: C2
Note OFF: Time 348240, Note Name: C3
Note ON: Time 348240, Note Name: C2, Velocity: 53
Note ON: Time 348360, Note Name: C3, Velocity: 47
Note OFF: Time 348468, Note Name: C2
Note OFF: Time 348480, Note Name: C3
Note ON: Time 348480, Note Name: D2, Velocity: 55
Note ON: Time 348600, Note Name: D3, Velocity: 50
Note OFF: Time 348708, Note Name: D2
Note OFF: Time 348720, Note Name: D3
Note ON: Time 348720, Note Name: D2, Velocity: 55
Note ON: Time 348840, Note Name: D3, Velocity: 51
Note OFF: Time 348948, Note Name: D2
Note OFF: Time 348960, Note Name: D3
Note ON: Time 348960, Note Name: D#2, Velocity: 55
Note ON: Time 349080, Note Name: D#3, Velocity: 55
Note OFF: Time 349188, Note Name: D#2
Note OFF: Time 349200, Note Name: D#3
Note ON: Time 349200, Note Name: D#2, Velocity: 55
Note ON: Time 349320, Note Name: D#3, Velocity: 55
Note OFF: Time 349428, Note Name: D#2
Note OFF: Time 349440, Note Name: D#3
Note ON: Time 349440, Note Name: F2, Velocity: 55
Note ON: Time 349560, Note Name: F3, Velocity: 53
Note OFF: Time 349668, Note Name: F2
Note OFF: Time 349680, Note Name: F3
Note ON: Time 349680, Note Name: F2, Velocity: 55
Note ON: Time 349800, Note Name: F3, Velocity: 55
Note OFF: Time 349908, Note Name: F2
Note OFF: Time 349920, Note Name: F3
Note ON: Time 349920, Note Name: G2, Velocity: 56
Note ON: Time 350040, Note Name: G3, Velocity: 56
Note OFF: Time 350148, Note Name: G2
Note OFF: Time 350160, Note Name: G3
Note ON: Time 350160, Note Name: G2, Velocity: 57
Note ON: Time 350280, Note Name: G3, Velocity: 57
Note OFF: Time 350388, Note Name: G2
Note OFF: Time 350400, Note Name: G3
Note ON: Time 350400, Note Name: G#2, Velocity: 58
Note ON: Time 350520, Note Name: G#3, Velocity: 59
Note OFF: Time 350628, Note Name: G#2
Note OFF: Time 350640, Note Name: G#3
Note ON: Time 350640, Note Name: G#2, Velocity: 59
Note ON: Time 350760, Note Name: G#3, Velocity: 60
Note OFF: Time 350868, Note Name: G#2
Note OFF: Time 350880, Note Name: G#3
Note ON: Time 350880, Note Name: F#2, Velocity: 60
Note ON: Time 351000, Note Name: F#3, Velocity: 55
Note OFF: Time 351108, Note Name: F#2
Note OFF: Time 351120, Note Name: F#3
Note ON: Time 351120, Note Name: F#2, Velocity: 61
Note ON: Time 351240, Note Name: F#3, Velocity: 55
Note OFF: Time 351348, Note Name: F#2
Note OFF: Time 351360, Note Name: F#3
Note ON: Time 351360, Note Name: G2, Velocity: 58
Note ON: Time 351480, Note Name: G3, Velocity: 55
Note OFF: Time 351588, Note Name: G2
Note OFF: Time 351600, Note Name: G3
Note ON: Time 351600, Note Name: G2, Velocity: 58
Note ON: Time 351720, Note Name: G3, Velocity: 55
Note OFF: Time 351828, Note Name: G2
Note OFF: Time 351840, Note Name: G3
Note ON: Time 351840, Note Name: C2, Velocity: 48
Note ON: Time 351960, Note Name: C3, Velocity: 45
Note OFF: Time 352068, Note Name: C2
Note OFF: Time 352080, Note Name: C3
Note ON: Time 352080, Note Name: C2, Velocity: 44
Note ON: Time 352200, Note Name: C3, Velocity: 41
Note OFF: Time 352308, Note Name: C2
Note OFF: Time 352320, Note Name: C3
Note ON: Time 352320, Note Name: C2, Velocity: 44
Note ON: Time 352440, Note Name: C3, Velocity: 40
Note OFF: Time 352548, Note Name: C2
Note OFF: Time 352560, Note Name: C3
Note ON: Time 352560, Note Name: C2, Velocity: 44
Note ON: Time 352680, Note Name: C3, Velocity: 41
Note OFF: Time 352788, Note Name: C2
Note OFF: Time 352800, Note Name: C3
Note ON: Time 352800, Note Name: C2, Velocity: 44
Note ON: Time 352920, Note Name: C3, Velocity: 46
Note OFF: Time 353028, Note Name: C2
Note OFF: Time 353040, Note Name: C3
Note ON: Time 353040, Note Name: C2, Velocity: 47
Note ON: Time 353160, Note Name: C3, Velocity: 47
Note OFF: Time 353268, Note Name: C2
Note OFF: Time 353280, Note Name: C3
Note ON: Time 353280, Note Name: C2, Velocity: 49
Note ON: Time 353400, Note Name: C3, Velocity: 50
Note OFF: Time 353508, Note Name: C2
Note OFF: Time 353520, Note Name: C3
Note ON: Time 353520, Note Name: C2, Velocity: 51
Note ON: Time 353640, Note Name: C3, Velocity: 53
Note OFF: Time 353748, Note Name: C2
Note OFF: Time 353760, Note Name: C3
Note ON: Time 353760, Note Name: C2, Velocity: 55
Note ON: Time 353880, Note Name: C3, Velocity: 50
Note OFF: Time 353988, Note Name: C2
Note OFF: Time 354000, Note Name: C3
Note ON: Time 354000, Note Name: C2, Velocity: 53
Note ON: Time 354120, Note Name: C3, Velocity: 47
Note OFF: Time 354228, Note Name: C2
Note OFF: Time 354240, Note Name: C3
Note ON: Time 354240, Note Name: C2, Velocity: 53
Note ON: Time 354360, Note Name: C3, Velocity: 47
Note OFF: Time 354468, Note Name: C2
Note OFF: Time 354480, Note Name: C3
Note ON: Time 354480, Note Name: C2, Velocity: 44
Note ON: Time 354600, Note Name: C3, Velocity: 40
Note OFF: Time 354708, Note Name: C2
Note OFF: Time 354720, Note Name: C3
Note ON: Time 354720, Note Name: C2, Velocity: 43
Note ON: Time 354840, Note Name: C3, Velocity: 45
Note OFF: Time 354948, Note Name: C2
Note OFF: Time 354960, Note Name: C3
Note ON: Time 354960, Note Name: C2, Velocity: 46
Note ON: Time 355080, Note Name: C3, Velocity: 47
Note OFF: Time 355188, Note Name: C2
Note OFF: Time 355200, Note Name: C3
Note ON: Time 355200, Note Name: C2, Velocity: 48
Note ON: Time 355320, Note Name: C3, Velocity: 50
Note OFF: Time 355428, Note Name: C2
Note OFF: Time 355440, Note Name: C3
Note ON: Time 355440, Note Name: C2, Velocity: 51
Note ON: Time 355560, Note Name: C3, Velocity: 53
Note OFF: Time 355668, Note Name: C2
Note OFF: Time 355680, Note Name: C3
Note ON: Time 355680, Note Name: C2, Velocity: 55
Note ON: Time 355800, Note Name: C3, Velocity: 50
Note OFF: Time 355908, Note Name: C2
Note OFF: Time 355920, Note Name: C3
Note ON: Time 355920, Note Name: C2, Velocity: 53
Note ON: Time 356040, Note Name: C3, Velocity: 47
Note OFF: Time 356148, Note Name: C2
Note OFF: Time 356160, Note Name: C3
Note ON: Time 356160, Note Name: C2, Velocity: 55
Note ON: Time 356280, Note Name: C3, Velocity: 50
Note OFF: Time 356388, Note Name: C2
Note OFF: Time 356400, Note Name: C3
Note ON: Time 356400, Note Name: C2, Velocity: 55
Note ON: Time 356520, Note Name: C3, Velocity: 51
Note OFF: Time 356628, Note Name: C2
Note OFF: Time 356640, Note Name: C3
Note ON: Time 356640, Note Name: C#2, Velocity: 55
Note ON: Time 356760, Note Name: C#3, Velocity: 55
Note OFF: Time 356868, Note Name: C#2
Note OFF: Time 356880, Note Name: C#3
Note ON: Time 356880, Note Name: C#2, Velocity: 55
Note ON: Time 357000, Note Name: C#3, Velocity: 55
Note OFF: Time 357108, Note Name: C#2
Note OFF: Time 357120, Note Name: C#3
Note ON: Time 357120, Note Name: D#2, Velocity: 55
Note ON: Time 357240, Note Name: D#3, Velocity: 53
Note OFF: Time 357348, Note Name: D#2
Note OFF: Time 357360, Note Name: D#3
Note ON: Time 357360, Note Name: D#2, Velocity: 55
Note ON: Time 357480, Note Name: D#3, Velocity: 55
Note OFF: Time 357588, Note Name: D#2
Note OFF: Time 357600, Note Name: D#3
Note ON: Time 357600, Note Name: F2, Velocity: 56
Note ON: Time 357720, Note Name: F3, Velocity: 56
Note OFF: Time 357828, Note Name: F2
Note OFF: Time 357840, Note Name: F3
Note ON: Time 357840, Note Name: F2, Velocity: 57
Note ON: Time 357960, Note Name: F3, Velocity: 57
Note OFF: Time 358068, Note Name: F2
Note OFF: Time 358080, Note Name: F3
Note ON: Time 358080, Note Name: F#2, Velocity: 58
Note ON: Time 358200, Note Name: F#3, Velocity: 59
Note OFF: Time 358308, Note Name: F#2
Note OFF: Time 358320, Note Name: F#3
Note ON: Time 358320, Note Name: F#2, Velocity: 59
Note ON: Time 358440, Note Name: F#3, Velocity: 60
Note OFF: Time 358548, Note Name: F#2
Note OFF: Time 358560, Note Name: F#3
Note ON: Time 358560, Note Name: G#2, Velocity: 60
Note ON: Time 358680, Note Name: G#3, Velocity: 55
Note OFF: Time 358788, Note Name: G#2
Note OFF: Time 358800, Note Name: G#3
Note ON: Time 358800, Note Name: G#2, Velocity: 61
Note ON: Time 358920, Note Name: G#3, Velocity: 55
Note OFF: Time 359028, Note Name: G#2
Note OFF: Time 359040, Note Name: G#3
Note ON: Time 359040, Note Name: G#2, Velocity: 58
Note ON: Time 359160, Note Name: G#3, Velocity: 55
Note OFF: Time 359268, Note Name: G#2
Note OFF: Time 359280, Note Name: G#3
Note ON: Time 359280, Note Name: G#2, Velocity: 58
Note ON: Time 359400, Note Name: G#3, Velocity: 55
Note OFF: Time 359508, Note Name: G#2
Note OFF: Time 359520, Note Name: G#3
Note ON: Time 359520, Note Name: G#2, Velocity: 52
Note ON: Time 359640, Note Name: G#3, Velocity: 45
Note OFF: Time 359748, Note Name: G#2
Note OFF: Time 359760, Note Name: G#3
Note ON: Time 359760, Note Name: G#2, Velocity: 53
Note ON: Time 359880, Note Name: G#3, Velocity: 47
Note OFF: Time 359988, Note Name: G#2
Note OFF: Time 360000, Note Name: G#3
Note ON: Time 360000, Note Name: D2, Velocity: 55
Note ON: Time 360120, Note Name: D3, Velocity: 50
Note OFF: Time 360228, Note Name: D2
Note OFF: Time 360240, Note Name: D3
Note ON: Time 360240, Note Name: D2, Velocity: 55
Note ON: Time 360360, Note Name: D3, Velocity: 51
Note OFF: Time 360468, Note Name: D2
Note OFF: Time 360480, Note Name: D3
Note ON: Time 360480, Note Name: D#2, Velocity: 55
Note ON: Time 360600, Note Name: D#3, Velocity: 55
Note OFF: Time 360708, Note Name: D#2
Note OFF: Time 360720, Note Name: D#3
Note ON: Time 360720, Note Name: D#2, Velocity: 55
Note ON: Time 360840, Note Name: D#3, Velocity: 55
Note OFF: Time 360948, Note Name: D#2
Note OFF: Time 360960, Note Name: D#3
Note ON: Time 360960, Note Name: F2, Velocity: 55
Note ON: Time 361080, Note Name: F3, Velocity: 53
Note OFF: Time 361188, Note Name: F2
Note OFF: Time 361200, Note Name: F3
Note ON: Time 361200, Note Name: F2, Velocity: 55
Note ON: Time 361320, Note Name: F3, Velocity: 55
Note OFF: Time 361428, Note Name: F2
Note OFF: Time 361440, Note Name: F3
Note ON: Time 361440, Note Name: F#2, Velocity: 56
Note ON: Time 361560, Note Name: F#3, Velocity: 56
Note OFF: Time 361668, Note Name: F#2
Note OFF: Time 361680, Note Name: F#3
Note ON: Time 361680, Note Name: F#2, Velocity: 57
Note ON: Time 361800, Note Name: F#3, Velocity: 57
Note OFF: Time 361908, Note Name: F#2
Note OFF: Time 361920, Note Name: F#3
Note ON: Time 361920, Note Name: G#2, Velocity: 58
Note ON: Time 362040, Note Name: G#3, Velocity: 59
Note OFF: Time 362148, Note Name: G#2
Note OFF: Time 362160, Note Name: G#3
Note ON: Time 362160, Note Name: G#2, Velocity: 59
Note ON: Time 362280, Note Name: G#3, Velocity: 60
Note OFF: Time 362388, Note Name: G#2
Note OFF: Time 362400, Note Name: G#3
Note ON: Time 362400, Note Name: A#2, Velocity: 60
Note ON: Time 362520, Note Name: A#3, Velocity: 55
Note OFF: Time 362628, Note Name: A#2
Note OFF: Time 362640, Note Name: A#3
Note ON: Time 362640, Note Name: A#2, Velocity: 61
Note ON: Time 362760, Note Name: A#3, Velocity: 55
Note OFF: Time 362868, Note Name: A#2
Note OFF: Time 362880, Note Name: A#3
Note ON: Time 362880, Note Name: A#2, Velocity: 58
Note ON: Time 363000, Note Name: A#3, Velocity: 55
Note OFF: Time 363108, Note Name: A#2
Note OFF: Time 363120, Note Name: A#3
Note ON: Time 363120, Note Name: A#2, Velocity: 58
Note ON: Time 363240, Note Name: A#3, Velocity: 55
Note OFF: Time 363348, Note Name: A#2
Note OFF: Time 363360, Note Name: A#3
Note ON: Time 363360, Note Name: A#2, Velocity: 53
Note ON: Time 363480, Note Name: A#3, Velocity: 46
Note OFF: Time 363588, Note Name: A#2
Note OFF: Time 363600, Note Name: A#3
Note ON: Time 363600, Note Name: A#2, Velocity: 50
Note ON: Time 363720, Note Name: A#3, Velocity: 47
Note OFF: Time 363828, Note Name: A#2
Note OFF: Time 363840, Note Name: A#3
Note ON: Time 363840, Note Name: E2, Velocity: 55
Note ON: Time 363960, Note Name: E3, Velocity: 50
Note OFF: Time 364068, Note Name: E2
Note OFF: Time 364080, Note Name: E3
Note ON: Time 364080, Note Name: E2, Velocity: 55
Note ON: Time 364200, Note Name: E3, Velocity: 51
Note OFF: Time 364308, Note Name: E2
Note OFF: Time 364320, Note Name: E3
Note ON: Time 364320, Note Name: F2, Velocity: 55
Note ON: Time 364440, Note Name: F3, Velocity: 55
Note OFF: Time 364548, Note Name: F2
Note OFF: Time 364560, Note Name: F3
Note ON: Time 364560, Note Name: F2, Velocity: 55
Note ON: Time 364680, Note Name: F3, Velocity: 55
Note OFF: Time 364788, Note Name: F2
Note OFF: Time 364800, Note Name: F3
Note ON: Time 364800, Note Name: G2, Velocity: 55
Note ON: Time 364920, Note Name: G3, Velocity: 53
Note OFF: Time 365028, Note Name: G2
Note OFF: Time 365040, Note Name: G3
Note ON: Time 365040, Note Name: G2, Velocity: 55
Note ON: Time 365160, Note Name: G3, Velocity: 55
Note OFF: Time 365268, Note Name: G2
Note OFF: Time 365280, Note Name: G3
Note ON: Time 365280, Note Name: G#2, Velocity: 56
Note ON: Time 365400, Note Name: G#3, Velocity: 56
Note OFF: Time 365508, Note Name: G#2
Note OFF: Time 365520, Note Name: G#3
Note ON: Time 365520, Note Name: G#2, Velocity: 57
Note ON: Time 365640, Note Name: G#3, Velocity: 57
Note OFF: Time 365748, Note Name: G#2
Note OFF: Time 365760, Note Name: G#3
Note ON: Time 365760, Note Name: A#2, Velocity: 58
Note ON: Time 365880, Note Name: A#3, Velocity: 59
Note OFF: Time 365988, Note Name: A#2
Note OFF: Time 366000, Note Name: A#3
Note ON: Time 366000, Note Name: A#2, Velocity: 59
Note ON: Time 366120, Note Name: A#3, Velocity: 60
Note OFF: Time 366228, Note Name: A#2
Note OFF: Time 366240, Note Name: A#3
Note ON: Time 366240, Note Name: C3, Velocity: 60
Note ON: Time 366360, Note Name: C4, Velocity: 55
Note OFF: Time 366468, Note Name: C3
Note OFF: Time 366480, Note Name: C4
Note ON: Time 366480, Note Name: C3, Velocity: 61
Note ON: Time 366600, Note Name: C4, Velocity: 55
Note OFF: Time 366708, Note Name: C3
Note OFF: Time 366720, Note Name: C4
Note ON: Time 366720, Note Name: C#3, Velocity: 58
Note ON: Time 366840, Note Name: C#4, Velocity: 55
Note OFF: Time 366948, Note Name: C#3
Note OFF: Time 366960, Note Name: C#4
Note ON: Time 366960, Note Name: C#3, Velocity: 58
Note ON: Time 367080, Note Name: C#4, Velocity: 55
Note OFF: Time 367188, Note Name: C#3
Note OFF: Time 367200, Note Name: C#4
Note ON: Time 367200, Note Name: C3, Velocity: 58
Note ON: Time 367200, Note Name: C4, Velocity: 58
Note OFF: Time 367440, Note Name: C4
Note OFF: Time 367440, Note Name: C3
Note ON: Time 369120, Note Name: C4, Velocity: 44
Note ON: Time 369360, Note Name: F4, Velocity: 38
Note ON: Time 369360, Note Name: G#4, Velocity: 38
Note OFF: Time 369588, Note Name: G#4
Note OFF: Time 369588, Note Name: F4
Note ON: Time 369600, Note Name: F4, Velocity: 38
Note ON: Time 369600, Note Name: G#4, Velocity: 38
Note OFF: Time 369828, Note Name: G#4
Note OFF: Time 369828, Note Name: F4
Note ON: Time 369840, Note Name: F4, Velocity: 38
Note ON: Time 369840, Note Name: G#4, Velocity: 38
Note OFF: Time 370068, Note Name: G#4
Note OFF: Time 370068, Note Name: F4
Note OFF: Time 370080, Note Name: C4
Note ON: Time 370080, Note Name: C4, Velocity: 44
Note ON: Time 370320, Note Name: F4, Velocity: 38
Note ON: Time 370320, Note Name: G#4, Velocity: 38
Note OFF: Time 370548, Note Name: G#4
Note OFF: Time 370548, Note Name: F4
Note ON: Time 370560, Note Name: F4, Velocity: 38
Note ON: Time 370560, Note Name: G#4, Velocity: 38
Note OFF: Time 370788, Note Name: G#4
Note OFF: Time 370788, Note Name: F4
Note ON: Time 370800, Note Name: F4, Velocity: 38
Note ON: Time 370800, Note Name: G#4, Velocity: 38
Note OFF: Time 371028, Note Name: G#4
Note OFF: Time 371028, Note Name: F4
Note OFF: Time 371040, Note Name: C4
Note ON: Time 371040, Note Name: C4, Velocity: 44
Note ON: Time 371280, Note Name: F4, Velocity: 38
Note ON: Time 371280, Note Name: G#4, Velocity: 38
Note OFF: Time 371508, Note Name: G#4
Note OFF: Time 371508, Note Name: F4
Note ON: Time 371520, Note Name: F4, Velocity: 38
Note ON: Time 371520, Note Name: G#4, Velocity: 38
Note OFF: Time 371748, Note Name: G#4
Note OFF: Time 371748, Note Name: F4
Note ON: Time 371760, Note Name: F4, Velocity: 38
Note ON: Time 371760, Note Name: G#4, Velocity: 38
Note OFF: Time 371988, Note Name: G#4
Note OFF: Time 371988, Note Name: F4
Note OFF: Time 372000, Note Name: C4
Note ON: Time 372000, Note Name: C4, Velocity: 44
Note ON: Time 372240, Note Name: F4, Velocity: 38
Note ON: Time 372240, Note Name: G#4, Velocity: 38
Note OFF: Time 372468, Note Name: G#4
Note OFF: Time 372468, Note Name: F4
Note ON: Time 372480, Note Name: F4, Velocity: 38
Note ON: Time 372480, Note Name: G#4, Velocity: 38
Note OFF: Time 372708, Note Name: G#4
Note OFF: Time 372708, Note Name: F4
Note ON: Time 372720, Note Name: F4, Velocity: 38
Note ON: Time 372720, Note Name: G#4, Velocity: 38
Note OFF: Time 372948, Note Name: G#4
Note OFF: Time 372948, Note Name: F4
Note OFF: Time 372960, Note Name: C4
Note ON: Time 372960, Note Name: C4, Velocity: 44
Note ON: Time 373200, Note Name: G4, Velocity: 38
Note ON: Time 373200, Note Name: A#4, Velocity: 38
Note OFF: Time 373428, Note Name: A#4
Note OFF: Time 373428, Note Name: G4
Note ON: Time 373440, Note Name: G4, Velocity: 38
Note ON: Time 373440, Note Name: A#4, Velocity: 38
Note OFF: Time 373668, Note Name: A#4
Note OFF: Time 373668, Note Name: G4
Note ON: Time 373680, Note Name: G4, Velocity: 38
Note ON: Time 373680, Note Name: A#4, Velocity: 38
Note OFF: Time 373908, Note Name: A#4
Note OFF: Time 373908, Note Name: G4
Note OFF: Time 373920, Note Name: C4
Note ON: Time 373920, Note Name: C4, Velocity: 44
Note ON: Time 374160, Note Name: G4, Velocity: 38
Note ON: Time 374160, Note Name: A#4, Velocity: 38
Note OFF: Time 374388, Note Name: A#4
Note OFF: Time 374388, Note Name: G4
Note ON: Time 374400, Note Name: G4, Velocity: 38
Note ON: Time 374400, Note Name: A#4, Velocity: 38
Note OFF: Time 374628, Note Name: A#4
Note OFF: Time 374628, Note Name: G4
Note ON: Time 374640, Note Name: G4, Velocity: 38
Note ON: Time 374640, Note Name: A#4, Velocity: 38
Note OFF: Time 374868, Note Name: A#4
Note OFF: Time 374868, Note Name: G4
Note OFF: Time 374880, Note Name: C4
Note ON: Time 374880, Note Name: C4, Velocity: 44
Note ON: Time 375120, Note Name: G4, Velocity: 38
Note ON: Time 375120, Note Name: A#4, Velocity: 38
Note OFF: Time 375348, Note Name: A#4
Note OFF: Time 375348, Note Name: G4
Note ON: Time 375360, Note Name: G4, Velocity: 38
Note ON: Time 375360, Note Name: A#4, Velocity: 38
Note OFF: Time 375588, Note Name: A#4
Note OFF: Time 375588, Note Name: G4
Note ON: Time 375600, Note Name: G4, Velocity: 38
Note ON: Time 375600, Note Name: A#4, Velocity: 38
Note OFF: Time 375828, Note Name: A#4
Note OFF: Time 375828, Note Name: G4
Note OFF: Time 375840, Note Name: C4
Note ON: Time 375840, Note Name: C4, Velocity: 44
Note ON: Time 376080, Note Name: G4, Velocity: 38
Note ON: Time 376080, Note Name: A#4, Velocity: 38
Note OFF: Time 376308, Note Name: A#4
Note OFF: Time 376308, Note Name: G4
Note ON: Time 376320, Note Name: G4, Velocity: 38
Note ON: Time 376320, Note Name: A#4, Velocity: 38
Note OFF: Time 376548, Note Name: A#4
Note OFF: Time 376548, Note Name: G4
Note ON: Time 376560, Note Name: G4, Velocity: 38
Note ON: Time 376560, Note Name: A#4, Velocity: 38
Note OFF: Time 376788, Note Name: A#4
Note OFF: Time 376788, Note Name: G4
Note OFF: Time 376800, Note Name: C4
Note ON: Time 376800, Note Name: C4, Velocity: 44
Note ON: Time 377040, Note Name: F4, Velocity: 38
Note ON: Time 377040, Note Name: G#4, Velocity: 38
Note OFF: Time 377268, Note Name: G#4
Note OFF: Time 377268, Note Name: F4
Note ON: Time 377280, Note Name: F4, Velocity: 38
Note ON: Time 377280, Note Name: G#4, Velocity: 38
Note OFF: Time 377508, Note Name: G#4
Note OFF: Time 377508, Note Name: F4
Note ON: Time 377520, Note Name: F4, Velocity: 38
Note ON: Time 377520, Note Name: G#4, Velocity: 38
Note OFF: Time 377748, Note Name: G#4
Note OFF: Time 377748, Note Name: F4
Note OFF: Time 377760, Note Name: C4
Note ON: Time 377760, Note Name: C4, Velocity: 44
Note ON: Time 378000, Note Name: F4, Velocity: 38
Note ON: Time 378000, Note Name: G#4, Velocity: 38
Note OFF: Time 378228, Note Name: G#4
Note OFF: Time 378228, Note Name: F4
Note ON: Time 378240, Note Name: F4, Velocity: 38
Note ON: Time 378240, Note Name: G#4, Velocity: 38
Note OFF: Time 378468, Note Name: G#4
Note OFF: Time 378468, Note Name: F4
Note ON: Time 378480, Note Name: F4, Velocity: 38
Note ON: Time 378480, Note Name: G#4, Velocity: 38
Note OFF: Time 378708, Note Name: G#4
Note OFF: Time 378708, Note Name: F4
Note OFF: Time 378720, Note Name: C4
Note ON: Time 378720, Note Name: G#3, Velocity: 44
Note ON: Time 378960, Note Name: C4, Velocity: 38
Note ON: Time 378960, Note Name: F4, Velocity: 38
Note OFF: Time 379188, Note Name: F4
Note OFF: Time 379188, Note Name: C4
Note ON: Time 379200, Note Name: C4, Velocity: 38
Note ON: Time 379200, Note Name: F4, Velocity: 38
Note OFF: Time 379428, Note Name: F4
Note OFF: Time 379428, Note Name: C4
Note ON: Time 379440, Note Name: C4, Velocity: 38
Note ON: Time 379440, Note Name: F4, Velocity: 38
Note OFF: Time 379668, Note Name: F4
Note OFF: Time 379668, Note Name: C4
Note OFF: Time 379680, Note Name: G#3
Note ON: Time 379680, Note Name: G#3, Velocity: 44
Note ON: Time 379920, Note Name: C4, Velocity: 38
Note ON: Time 379920, Note Name: F4, Velocity: 38
Note OFF: Time 380148, Note Name: F4
Note OFF: Time 380148, Note Name: C4
Note ON: Time 380160, Note Name: C4, Velocity: 38
Note ON: Time 380160, Note Name: F4, Velocity: 38
Note OFF: Time 380388, Note Name: F4
Note OFF: Time 380388, Note Name: C4
Note ON: Time 380400, Note Name: C4, Velocity: 38
Note ON: Time 380400, Note Name: F4, Velocity: 38
Note OFF: Time 380628, Note Name: F4
Note OFF: Time 380628, Note Name: C4
Note OFF: Time 380640, Note Name: G#3
Note ON: Time 380640, Note Name: G3, Velocity: 44
Note ON: Time 380880, Note Name: D4, Velocity: 38
Note ON: Time 380880, Note Name: F4, Velocity: 38
Note OFF: Time 381108, Note Name: F4
Note OFF: Time 381108, Note Name: D4
Note ON: Time 381120, Note Name: D4, Velocity: 38
Note ON: Time 381120, Note Name: F4, Velocity: 38
Note OFF: Time 381348, Note Name: F4
Note OFF: Time 381348, Note Name: D4
Note ON: Time 381360, Note Name: D4, Velocity: 38
Note ON: Time 381360, Note Name: F4, Velocity: 38
Note OFF: Time 381588, Note Name: F4
Note OFF: Time 381588, Note Name: D4
Note OFF: Time 381600, Note Name: G3
Note ON: Time 381600, Note Name: G3, Velocity: 44
Note ON: Time 381840, Note Name: D4, Velocity: 38
Note ON: Time 381840, Note Name: F4, Velocity: 38
Note OFF: Time 382068, Note Name: F4
Note OFF: Time 382068, Note Name: D4
Note ON: Time 382080, Note Name: D4, Velocity: 38
Note ON: Time 382080, Note Name: F4, Velocity: 38
Note OFF: Time 382308, Note Name: F4
Note OFF: Time 382308, Note Name: D4
Note ON: Time 382320, Note Name: D4, Velocity: 38
Note ON: Time 382320, Note Name: F4, Velocity: 38
Note OFF: Time 382548, Note Name: F4
Note OFF: Time 382548, Note Name: D4
Note OFF: Time 382560, Note Name: G3
Note ON: Time 382560, Note Name: G3, Velocity: 44
Note ON: Time 382800, Note Name: D4, Velocity: 38
Note ON: Time 382800, Note Name: F4, Velocity: 38
Note OFF: Time 383028, Note Name: F4
Note OFF: Time 383028, Note Name: D4
Note ON: Time 383040, Note Name: D4, Velocity: 38
Note ON: Time 383040, Note Name: F4, Velocity: 38
Note OFF: Time 383268, Note Name: F4
Note OFF: Time 383268, Note Name: D4
Note ON: Time 383280, Note Name: D4, Velocity: 38
Note ON: Time 383280, Note Name: F4, Velocity: 38
Note OFF: Time 383508, Note Name: F4
Note OFF: Time 383508, Note Name: D4
Note OFF: Time 383520, Note Name: G3
Note ON: Time 383520, Note Name: G3, Velocity: 44
Note ON: Time 383760, Note Name: D4, Velocity: 38
Note ON: Time 383760, Note Name: F4, Velocity: 38
Note OFF: Time 383988, Note Name: F4
Note OFF: Time 383988, Note Name: D4
Note ON: Time 384000, Note Name: D4, Velocity: 38
Note ON: Time 384000, Note Name: F4, Velocity: 38
Note OFF: Time 384228, Note Name: F4
Note OFF: Time 384228, Note Name: D4
Note ON: Time 384240, Note Name: D4, Velocity: 38
Note ON: Time 384240, Note Name: F4, Velocity: 38
Note OFF: Time 384468, Note Name: F4
Note OFF: Time 384468, Note Name: D4
Note OFF: Time 384480, Note Name: G3
Note ON: Time 384480, Note Name: G3, Velocity: 44
Note ON: Time 384720, Note Name: C4, Velocity: 38
Note ON: Time 384720, Note Name: D#4, Velocity: 38
Note OFF: Time 384948, Note Name: D#4
Note OFF: Time 384948, Note Name: C4
Note ON: Time 384960, Note Name: C4, Velocity: 38
Note ON: Time 384960, Note Name: D#4, Velocity: 38
Note OFF: Time 385188, Note Name: D#4
Note OFF: Time 385188, Note Name: C4
Note ON: Time 385200, Note Name: C4, Velocity: 38
Note ON: Time 385200, Note Name: D#4, Velocity: 38
Note OFF: Time 385428, Note Name: D#4
Note OFF: Time 385428, Note Name: C4
Note OFF: Time 385440, Note Name: G3
Note ON: Time 385440, Note Name: G3, Velocity: 44
Note ON: Time 385680, Note Name: C4, Velocity: 38
Note ON: Time 385680, Note Name: D#4, Velocity: 38
Note OFF: Time 385908, Note Name: D#4
Note OFF: Time 385908, Note Name: C4
Note ON: Time 385920, Note Name: C4, Velocity: 38
Note ON: Time 385920, Note Name: D#4, Velocity: 38
Note OFF: Time 386148, Note Name: D#4
Note OFF: Time 386148, Note Name: C4
Note ON: Time 386160, Note Name: C4, Velocity: 38
Note ON: Time 386160, Note Name: D#4, Velocity: 38
Note OFF: Time 386388, Note Name: D#4
Note OFF: Time 386388, Note Name: C4
Note OFF: Time 386400, Note Name: G3
Note ON: Time 386400, Note Name: G3, Velocity: 44
Note ON: Time 386640, Note Name: C4, Velocity: 38
Note ON: Time 386640, Note Name: D#4, Velocity: 38
Note OFF: Time 386868, Note Name: D#4
Note OFF: Time 386868, Note Name: C4
Note ON: Time 386880, Note Name: C4, Velocity: 38
Note ON: Time 386880, Note Name: D#4, Velocity: 38
Note OFF: Time 387108, Note Name: D#4
Note OFF: Time 387108, Note Name: C4
Note ON: Time 387120, Note Name: C4, Velocity: 38
Note ON: Time 387120, Note Name: D#4, Velocity: 38
Note OFF: Time 387348, Note Name: D#4
Note OFF: Time 387348, Note Name: C4
Note OFF: Time 387360, Note Name: G3
Note ON: Time 387360, Note Name: G3, Velocity: 44
Note ON: Time 387600, Note Name: C4, Velocity: 38
Note ON: Time 387600, Note Name: D#4, Velocity: 38
Note OFF: Time 387828, Note Name: D#4
Note OFF: Time 387828, Note Name: C4
Note ON: Time 387840, Note Name: C4, Velocity: 38
Note ON: Time 387840, Note Name: D#4, Velocity: 38
Note OFF: Time 388068, Note Name: D#4
Note OFF: Time 388068, Note Name: C4
Note ON: Time 388080, Note Name: C4, Velocity: 38
Note ON: Time 388080, Note Name: D#4, Velocity: 38
Note OFF: Time 388308, Note Name: D#4
Note OFF: Time 388308, Note Name: C4
Note OFF: Time 388320, Note Name: G3
Note ON: Time 388320, Note Name: G3, Velocity: 44
Note ON: Time 388560, Note Name: D4, Velocity: 38
Note ON: Time 388560, Note Name: F4, Velocity: 38
Note OFF: Time 388788, Note Name: F4
Note OFF: Time 388788, Note Name: D4
Note ON: Time 388800, Note Name: D4, Velocity: 38
Note ON: Time 388800, Note Name: F4, Velocity: 38
Note OFF: Time 389028, Note Name: F4
Note OFF: Time 389028, Note Name: D4
Note ON: Time 389040, Note Name: D4, Velocity: 38
Note ON: Time 389040, Note Name: F4, Velocity: 38
Note OFF: Time 389268, Note Name: F4
Note OFF: Time 389268, Note Name: D4
Note OFF: Time 389280, Note Name: G3
Note ON: Time 389280, Note Name: G3, Velocity: 44
Note ON: Time 389520, Note Name: D4, Velocity: 38
Note ON: Time 389520, Note Name: F4, Velocity: 38
Note OFF: Time 389748, Note Name: F4
Note OFF: Time 389748, Note Name: D4
Note ON: Time 389760, Note Name: D4, Velocity: 38
Note ON: Time 389760, Note Name: F4, Velocity: 38
Note OFF: Time 389988, Note Name: F4
Note OFF: Time 389988, Note Name: D4
Note ON: Time 390000, Note Name: D4, Velocity: 38
Note ON: Time 390000, Note Name: F4, Velocity: 38
Note OFF: Time 390228, Note Name: F4
Note OFF: Time 390228, Note Name: D4
Note OFF: Time 390240, Note Name: G3
Note ON: Time 390240, Note Name: G3, Velocity: 44
Note ON: Time 390480, Note Name: D4, Velocity: 38
Note ON: Time 390480, Note Name: F4, Velocity: 38
Note OFF: Time 390708, Note Name: F4
Note OFF: Time 390708, Note Name: D4
Note ON: Time 390720, Note Name: D4, Velocity: 38
Note ON: Time 390720, Note Name: F4, Velocity: 38
Note OFF: Time 390948, Note Name: F4
Note OFF: Time 390948, Note Name: D4
Note ON: Time 390960, Note Name: D4, Velocity: 38
Note ON: Time 390960, Note Name: F4, Velocity: 38
Note OFF: Time 391188, Note Name: F4
Note OFF: Time 391188, Note Name: D4
Note OFF: Time 391200, Note Name: G3
Note ON: Time 391200, Note Name: G3, Velocity: 44
Note ON: Time 391440, Note Name: D4, Velocity: 38
Note ON: Time 391440, Note Name: F4, Velocity: 38
Note OFF: Time 391668, Note Name: F4
Note OFF: Time 391668, Note Name: D4
Note ON: Time 391680, Note Name: D4, Velocity: 38
Note ON: Time 391680, Note Name: F4, Velocity: 38
Note OFF: Time 391908, Note Name: F4
Note OFF: Time 391908, Note Name: D4
Note ON: Time 391920, Note Name: D4, Velocity: 38
Note ON: Time 391920, Note Name: F4, Velocity: 38
Note OFF: Time 392148, Note Name: F4
Note OFF: Time 392148, Note Name: D4
Note OFF: Time 392160, Note Name: G3
Note ON: Time 392160, Note Name: C4, Velocity: 44
Note ON: Time 392400, Note Name: D#4, Velocity: 37
Note ON: Time 392400, Note Name: G4, Velocity: 37
Note OFF: Time 392628, Note Name: G4
Note OFF: Time 392628, Note Name: D#4
Note ON: Time 392640, Note Name: D#4, Velocity: 37
Note ON: Time 392640, Note Name: G4, Velocity: 37
Note OFF: Time 392868, Note Name: G4
Note OFF: Time 392868, Note Name: D#4
Note ON: Time 392880, Note Name: D#4, Velocity: 36
Note ON: Time 392880, Note Name: G4, Velocity: 36
Note OFF: Time 393108, Note Name: G4
Note OFF: Time 393108, Note Name: D#4
Note OFF: Time 393120, Note Name: C4
Note ON: Time 393120, Note Name: F3, Velocity: 42
Note ON: Time 393360, Note Name: D#4, Velocity: 36
Note ON: Time 393360, Note Name: F4, Velocity: 36
Note OFF: Time 393588, Note Name: F4
Note OFF: Time 393588, Note Name: D#4
Note ON: Time 393600, Note Name: D#4, Velocity: 35
Note ON: Time 393600, Note Name: F4, Velocity: 35
Note OFF: Time 393828, Note Name: F4
Note OFF: Time 393828, Note Name: D#4
Note ON: Time 393840, Note Name: D#4, Velocity: 35
Note ON: Time 393840, Note Name: F4, Velocity: 35
Note OFF: Time 394068, Note Name: F4
Note OFF: Time 394068, Note Name: D#4
Note OFF: Time 394080, Note Name: F3
Note ON: Time 394080, Note Name: A#3, Velocity: 40
Note ON: Time 394320, Note Name: C#4, Velocity: 34
Note ON: Time 394320, Note Name: F4, Velocity: 34
Note OFF: Time 394548, Note Name: F4
Note OFF: Time 394548, Note Name: C#4
Note ON: Time 394560, Note Name: C#4, Velocity: 34
Note ON: Time 394560, Note Name: F4, Velocity: 34
Note OFF: Time 394788, Note Name: F4
Note OFF: Time 394788, Note Name: C#4
Note ON: Time 394800, Note Name: C#4, Velocity: 33
Note ON: Time 394800, Note Name: F4, Velocity: 33
Note OFF: Time 395028, Note Name: F4
Note OFF: Time 395028, Note Name: C#4
Note OFF: Time 395040, Note Name: A#3
Note ON: Time 395040, Note Name: D#3, Velocity: 38
Note ON: Time 395280, Note Name: C#4, Velocity: 33
Note ON: Time 395280, Note Name: D#4, Velocity: 33
Note OFF: Time 395508, Note Name: D#4
Note OFF: Time 395508, Note Name: C#4
Note ON: Time 395520, Note Name: C#4, Velocity: 32
Note ON: Time 395520, Note Name: D#4, Velocity: 32
Note OFF: Time 395748, Note Name: D#4
Note OFF: Time 395748, Note Name: C#4
Note ON: Time 395760, Note Name: C#4, Velocity: 32
Note ON: Time 395760, Note Name: D#4, Velocity: 32
Note OFF: Time 395988, Note Name: D#4
Note OFF: Time 395988, Note Name: C#4
Note OFF: Time 396000, Note Name: D#3
Note ON: Time 396000, Note Name: G#3, Velocity: 36
Note ON: Time 396240, Note Name: C4, Velocity: 31
Note ON: Time 396240, Note Name: D#4, Velocity: 31
Note OFF: Time 396468, Note Name: D#4
Note OFF: Time 396468, Note Name: C4
Note ON: Time 396480, Note Name: C4, Velocity: 31
Note ON: Time 396480, Note Name: D#4, Velocity: 31
Note OFF: Time 396708, Note Name: D#4
Note OFF: Time 396708, Note Name: C4
Note ON: Time 396720, Note Name: C4, Velocity: 30
Note ON: Time 396720, Note Name: D#4, Velocity: 30
Note OFF: Time 396948, Note Name: D#4
Note OFF: Time 396948, Note Name: C4
Note OFF: Time 396960, Note Name: G#3
Note ON: Time 396960, Note Name: G#3, Velocity: 35
Note ON: Time 397200, Note Name: C4, Velocity: 30
Note ON: Time 397200, Note Name: D#4, Velocity: 30
Note OFF: Time 397428, Note Name: D#4
Note OFF: Time 397428, Note Name: C4
Note ON: Time 397440, Note Name: C4, Velocity: 29
Note ON: Time 397440, Note Name: D#4, Velocity: 29
Note OFF: Time 397668, Note Name: D#4
Note OFF: Time 397668, Note Name: C4
Note ON: Time 397680, Note Name: C4, Velocity: 29
Note ON: Time 397680, Note Name: D#4, Velocity: 29
Note OFF: Time 397908, Note Name: D#4
Note OFF: Time 397908, Note Name: C4
Note OFF: Time 397920, Note Name: G#3
Note ON: Time 397920, Note Name: G3, Velocity: 30
Note ON: Time 398160, Note Name: C4, Velocity: 26
Note ON: Time 398160, Note Name: D#4, Velocity: 26
Note OFF: Time 398388, Note Name: D#4
Note OFF: Time 398388, Note Name: C4
Note ON: Time 398400, Note Name: C4, Velocity: 26
Note ON: Time 398400, Note Name: D#4, Velocity: 26
Note OFF: Time 398628, Note Name: D#4
Note OFF: Time 398628, Note Name: C4
Note ON: Time 398640, Note Name: C4, Velocity: 26
Note ON: Time 398640, Note Name: D#4, Velocity: 26
Note OFF: Time 398868, Note Name: D#4
Note OFF: Time 398868, Note Name: C4
Note OFF: Time 398880, Note Name: G3
Note ON: Time 398880, Note Name: G3, Velocity: 30
Note ON: Time 399120, Note Name: B3, Velocity: 26
Note ON: Time 399120, Note Name: D4, Velocity: 26
Note OFF: Time 399348, Note Name: D4
Note OFF: Time 399348, Note Name: B3
Note ON: Time 399360, Note Name: B3, Velocity: 26
Note ON: Time 399360, Note Name: D4, Velocity: 26
Note OFF: Time 399588, Note Name: D4
Note OFF: Time 399588, Note Name: B3
Note ON: Time 399600, Note Name: B3, Velocity: 26
Note ON: Time 399600, Note Name: D4, Velocity: 26
Note OFF: Time 399828, Note Name: D4
Note OFF: Time 399828, Note Name: B3
Note OFF: Time 399840, Note Name: G3
Note ON: Time 399840, Note Name: C3, Velocity: 36
Note ON: Time 399960, Note Name: G3, Velocity: 24
Note OFF: Time 400080, Note Name: G3
Note ON: Time 400080, Note Name: D#3, Velocity: 26
Note OFF: Time 400200, Note Name: D#3
Note ON: Time 400200, Note Name: G3, Velocity: 24
Note OFF: Time 400320, Note Name: G3
Note ON: Time 400320, Note Name: D#3, Velocity: 32
Note OFF: Time 400440, Note Name: D#3
Note ON: Time 400440, Note Name: G3, Velocity: 25
Note OFF: Time 400560, Note Name: G3
Note ON: Time 400560, Note Name: D#3, Velocity: 28
Note OFF: Time 400680, Note Name: D#3
Note ON: Time 400680, Note Name: G3, Velocity: 26
Note OFF: Time 400800, Note Name: G3
Note ON: Time 400800, Note Name: D#3, Velocity: 34
Note OFF: Time 400920, Note Name: D#3
Note ON: Time 400920, Note Name: G3, Velocity: 26
Note OFF: Time 401040, Note Name: G3
Note ON: Time 401040, Note Name: D#3, Velocity: 29
Note OFF: Time 401160, Note Name: D#3
Note ON: Time 401160, Note Name: G3, Velocity: 26
Note OFF: Time 401280, Note Name: G3
Note OFF: Time 401280, Note Name: C3
Note ON: Time 401280, Note Name: C3, Velocity: 36
Note ON: Time 401400, Note Name: G3, Velocity: 28
Note OFF: Time 401520, Note Name: G3
Note ON: Time 401520, Note Name: D#3, Velocity: 32
Note OFF: Time 401640, Note Name: D#3
Note ON: Time 401640, Note Name: G3, Velocity: 28
Note OFF: Time 401760, Note Name: G3
Note OFF: Time 401760, Note Name: C3
Note ON: Time 401760, Note Name: A#2, Velocity: 45
Note ON: Time 401880, Note Name: G3, Velocity: 30
Note OFF: Time 402000, Note Name: G3
Note ON: Time 402000, Note Name: E3, Velocity: 32
Note OFF: Time 402120, Note Name: E3
Note ON: Time 402120, Note Name: G3, Velocity: 29
Note OFF: Time 402240, Note Name: G3
Note ON: Time 402240, Note Name: E3, Velocity: 38
Note OFF: Time 402360, Note Name: E3
Note ON: Time 402360, Note Name: G3, Velocity: 30
Note OFF: Time 402480, Note Name: G3
Note ON: Time 402480, Note Name: E3, Velocity: 33
Note OFF: Time 402600, Note Name: E3
Note ON: Time 402600, Note Name: G3, Velocity: 30
Note OFF: Time 402720, Note Name: G3
Note ON: Time 402720, Note Name: E3, Velocity: 38
Note OFF: Time 402840, Note Name: E3
Note ON: Time 402840, Note Name: G3, Velocity: 29
Note OFF: Time 402960, Note Name: G3
Note ON: Time 402960, Note Name: E3, Velocity: 32
Note OFF: Time 403080, Note Name: E3
Note ON: Time 403080, Note Name: G3, Velocity: 29
Note OFF: Time 403200, Note Name: G3
Note OFF: Time 403200, Note Name: A#2
Note ON: Time 403200, Note Name: A#2, Velocity: 38
Note ON: Time 403320, Note Name: G3, Velocity: 30
Note OFF: Time 403440, Note Name: G3
Note ON: Time 403440, Note Name: E3, Velocity: 33
Note OFF: Time 403560, Note Name: E3
Note ON: Time 403560, Note Name: G3, Velocity: 29
Note OFF: Time 403680, Note Name: G3
Note OFF: Time 403680, Note Name: A#2
Note ON: Time 403680, Note Name: G#2, Velocity: 55
Note OFF: Time 403770, Note Name: G#2
Note ON: Time 403800, Note Name: G#3, Velocity: 36
Note OFF: Time 403920, Note Name: G#3
Note ON: Time 403920, Note Name: C3, Velocity: 39
Note OFF: Time 404040, Note Name: C3
Note ON: Time 404040, Note Name: G#3, Velocity: 35
Note OFF: Time 404160, Note Name: G#3
Note ON: Time 404160, Note Name: A#2, Velocity: 56
Note OFF: Time 404250, Note Name: A#2
Note ON: Time 404280, Note Name: A#3, Velocity: 36
Note OFF: Time 404400, Note Name: A#3
Note ON: Time 404400, Note Name: C3, Velocity: 43
Note OFF: Time 404520, Note Name: C3
Note ON: Time 404520, Note Name: A#3, Velocity: 41
Note OFF: Time 404640, Note Name: A#3
Note ON: Time 404640, Note Name: G#2, Velocity: 58
Note OFF: Time 404730, Note Name: G#2
Note ON: Time 404760, Note Name: G#3, Velocity: 38
Note OFF: Time 404880, Note Name: G#3
Note ON: Time 404880, Note Name: C3, Velocity: 43
Note OFF: Time 405000, Note Name: C3
Note ON: Time 405000, Note Name: G#3, Velocity: 38
Note OFF: Time 405120, Note Name: G#3
Note ON: Time 405120, Note Name: G2, Velocity: 60
Note OFF: Time 405210, Note Name: G2
Note ON: Time 405240, Note Name: G3, Velocity: 40
Note OFF: Time 405360, Note Name: G3
Note ON: Time 405360, Note Name: C3, Velocity: 43
Note OFF: Time 405480, Note Name: C3
Note ON: Time 405480, Note Name: G3, Velocity: 38
Note OFF: Time 405600, Note Name: G3
Note ON: Time 405600, Note Name: F2, Velocity: 63
Note OFF: Time 405690, Note Name: F2
Note ON: Time 405720, Note Name: F3, Velocity: 42
Note OFF: Time 405840, Note Name: F3
Note ON: Time 405840, Note Name: C3, Velocity: 45
Note OFF: Time 405960, Note Name: C3
Note ON: Time 405960, Note Name: F3, Velocity: 42
Note OFF: Time 406080, Note Name: F3
Note ON: Time 406080, Note Name: D#2, Velocity: 66
Note OFF: Time 406170, Note Name: D#2
Note ON: Time 406200, Note Name: D#3, Velocity: 41
Note OFF: Time 406320, Note Name: D#3
Note ON: Time 406320, Note Name: C3, Velocity: 47
Note OFF: Time 406440, Note Name: C3
Note ON: Time 406440, Note Name: D#3, Velocity: 41
Note OFF: Time 406560, Note Name: D#3
Note ON: Time 406560, Note Name: D2, Velocity: 68
Note OFF: Time 406650, Note Name: D2
Note ON: Time 406680, Note Name: D3, Velocity: 45
Note OFF: Time 406800, Note Name: D3
Note ON: Time 406800, Note Name: G2, Velocity: 49
Note OFF: Time 406920, Note Name: G2
Note ON: Time 406920, Note Name: D3, Velocity: 43
Note OFF: Time 407040, Note Name: D3
Note ON: Time 407040, Note Name: C2, Velocity: 70
Note OFF: Time 407130, Note Name: C2
Note ON: Time 407160, Note Name: C3, Velocity: 45
Note OFF: Time 407280, Note Name: C3
Note ON: Time 407280, Note Name: G2, Velocity: 51
Note OFF: Time 407400, Note Name: G2
Note ON: Time 407400, Note Name: C3, Velocity: 43
Note OFF: Time 407520, Note Name: C3
Note ON: Time 407520, Note Name: B1, Velocity: 70
Note OFF: Time 407610, Note Name: B1
Note ON: Time 407640, Note Name: B2, Velocity: 47
Note OFF: Time 407760, Note Name: B2
Note ON: Time 407760, Note Name: G2, Velocity: 53
Note OFF: Time 407880, Note Name: G2
Note ON: Time 407880, Note Name: B2, Velocity: 48
Note OFF: Time 408000, Note Name: B2
Note ON: Time 408000, Note Name: A#1, Velocity: 72
Note OFF: Time 408090, Note Name: A#1
Note ON: Time 408120, Note Name: A#2, Velocity: 47
Note OFF: Time 408240, Note Name: A#2
Note ON: Time 408240, Note Name: C2, Velocity: 53
Note OFF: Time 408360, Note Name: C2
Note ON: Time 408360, Note Name: A#2, Velocity: 50
Note OFF: Time 408480, Note Name: A#2
Note ON: Time 408480, Note Name: G#1, Velocity: 75
Note OFF: Time 408570, Note Name: G#1
Note ON: Time 408600, Note Name: G#2, Velocity: 50
Note OFF: Time 408720, Note Name: G#2
Note ON: Time 408720, Note Name: C2, Velocity: 55
Note OFF: Time 408840, Note Name: C2
Note ON: Time 408840, Note Name: G#2, Velocity: 50
Note OFF: Time 408960, Note Name: G#2
Note ON: Time 408960, Note Name: F1, Velocity: 76
Note OFF: Time 409050, Note Name: F1
Note ON: Time 409080, Note Name: F2, Velocity: 56
Note OFF: Time 409200, Note Name: F2
Note ON: Time 409200, Note Name: C2, Velocity: 58
Note OFF: Time 409320, Note Name: C2
Note ON: Time 409320, Note Name: F2, Velocity: 55
Note OFF: Time 409440, Note Name: F2
Note ON: Time 409440, Note Name: G1, Velocity: 71
Note ON: Time 409440, Note Name: G2, Velocity: 84
Note OFF: Time 409680, Note Name: G2
Note OFF: Time 409680, Note Name: G1
Note ON: Time 410400, Note Name: G3, Velocity: 84
Note ON: Time 410400, Note Name: G2, Velocity: 71
Note OFF: Time 410640, Note Name: G2
Note OFF: Time 410640, Note Name: G3
Note ON: Time 411360, Note Name: C3, Velocity: 45
Note ON: Time 411480, Note Name: G3, Velocity: 30
Note OFF: Time 411600, Note Name: G3
Note ON: Time 411600, Note Name: D#3, Velocity: 32
Note OFF: Time 411720, Note Name: D#3
Note ON: Time 411720, Note Name: G3, Velocity: 29
Note OFF: Time 411840, Note Name: G3
Note ON: Time 411840, Note Name: D#3, Velocity: 38
Note OFF: Time 411960, Note Name: D#3
Note ON: Time 411960, Note Name: G3, Velocity: 30
Note OFF: Time 412080, Note Name: G3
Note ON: Time 412080, Note Name: D#3, Velocity: 33
Note OFF: Time 412200, Note Name: D#3
Note ON: Time 412200, Note Name: G3, Velocity: 30
Note OFF: Time 412320, Note Name: G3
Note ON: Time 412320, Note Name: D#3, Velocity: 38
Note OFF: Time 412440, Note Name: D#3
Note ON: Time 412440, Note Name: G3, Velocity: 29
Note OFF: Time 412560, Note Name: G3
Note ON: Time 412560, Note Name: D#3, Velocity: 32
Note OFF: Time 412680, Note Name: D#3
Note ON: Time 412680, Note Name: G3, Velocity: 29
Note OFF: Time 412800, Note Name: G3
Note OFF: Time 412800, Note Name: C3
Note ON: Time 412800, Note Name: C3, Velocity: 38
Note ON: Time 412920, Note Name: G3, Velocity: 30
Note OFF: Time 413040, Note Name: G3
Note ON: Time 413040, Note Name: D#3, Velocity: 33
Note OFF: Time 413160, Note Name: D#3
Note ON: Time 413160, Note Name: G3, Velocity: 29
Note OFF: Time 413280, Note Name: G3
Note OFF: Time 413280, Note Name: C3
Note ON: Time 413280, Note Name: A#2, Velocity: 45
Note ON: Time 413400, Note Name: G3, Velocity: 30
Note OFF: Time 413520, Note Name: G3
Note ON: Time 413520, Note Name: E3, Velocity: 32
Note OFF: Time 413640, Note Name: E3
Note ON: Time 413640, Note Name: G3, Velocity: 29
Note OFF: Time 413760, Note Name: G3
Note ON: Time 413760, Note Name: E3, Velocity: 38
Note OFF: Time 413880, Note Name: E3
Note ON: Time 413880, Note Name: G3, Velocity: 30
Note OFF: Time 414000, Note Name: G3
Note ON: Time 414000, Note Name: E3, Velocity: 33
Note OFF: Time 414120, Note Name: E3
Note ON: Time 414120, Note Name: G3, Velocity: 30
Note OFF: Time 414240, Note Name: G3
Note ON: Time 414240, Note Name: E3, Velocity: 38
Note OFF: Time 414360, Note Name: E3
Note ON: Time 414360, Note Name: G3, Velocity: 29
Note OFF: Time 414480, Note Name: G3
Note ON: Time 414480, Note Name: E3, Velocity: 32
Note OFF: Time 414600, Note Name: E3
Note ON: Time 414600, Note Name: G3, Velocity: 29
Note OFF: Time 414720, Note Name: G3
Note OFF: Time 414720, Note Name: A#2
Note ON: Time 414720, Note Name: A#2, Velocity: 38
Note ON: Time 414840, Note Name: G3, Velocity: 30
Note OFF: Time 414960, Note Name: G3
Note ON: Time 414960, Note Name: E3, Velocity: 33
Note OFF: Time 415080, Note Name: E3
Note ON: Time 415080, Note Name: G3, Velocity: 29
Note OFF: Time 415200, Note Name: G3
Note OFF: Time 415200, Note Name: A#2
Note ON: Time 415200, Note Name: G#2, Velocity: 55
Note OFF: Time 415290, Note Name: G#2
Note ON: Time 415320, Note Name: G#3, Velocity: 36
Note OFF: Time 415440, Note Name: G#3
Note ON: Time 415440, Note Name: C3, Velocity: 39
Note OFF: Time 415560, Note Name: C3
Note ON: Time 415560, Note Name: G#3, Velocity: 35
Note OFF: Time 415680, Note Name: G#3
Note ON: Time 415680, Note Name: A#2, Velocity: 56
Note OFF: Time 415770, Note Name: A#2
Note ON: Time 415800, Note Name: A#3, Velocity: 36
Note OFF: Time 415920, Note Name: A#3
Note ON: Time 415920, Note Name: C3, Velocity: 43
Note OFF: Time 416040, Note Name: C3
Note ON: Time 416040, Note Name: A#3, Velocity: 41
Note OFF: Time 416160, Note Name: A#3
Note ON: Time 416160, Note Name: G#2, Velocity: 58
Note OFF: Time 416250, Note Name: G#2
Note ON: Time 416280, Note Name: G#3, Velocity: 38
Note OFF: Time 416400, Note Name: G#3
Note ON: Time 416400, Note Name: C3, Velocity: 43
Note OFF: Time 416520, Note Name: C3
Note ON: Time 416520, Note Name: G#3, Velocity: 38
Note OFF: Time 416640, Note Name: G#3
Note ON: Time 416640, Note Name: G2, Velocity: 60
Note OFF: Time 416730, Note Name: G2
Note ON: Time 416760, Note Name: G3, Velocity: 40
Note OFF: Time 416880, Note Name: G3
Note ON: Time 416880, Note Name: C3, Velocity: 43
Note OFF: Time 417000, Note Name: C3
Note ON: Time 417000, Note Name: G3, Velocity: 38
Note OFF: Time 417120, Note Name: G3
Note ON: Time 417120, Note Name: F2, Velocity: 63
Note OFF: Time 417210, Note Name: F2
Note ON: Time 417240, Note Name: F3, Velocity: 42
Note OFF: Time 417360, Note Name: F3
Note ON: Time 417360, Note Name: C3, Velocity: 45
Note OFF: Time 417480, Note Name: C3
Note ON: Time 417480, Note Name: F3, Velocity: 42
Note OFF: Time 417600, Note Name: F3
Note ON: Time 417600, Note Name: D#2, Velocity: 66
Note OFF: Time 417690, Note Name: D#2
Note ON: Time 417720, Note Name: D#3, Velocity: 41
Note OFF: Time 417840, Note Name: D#3
Note ON: Time 417840, Note Name: C3, Velocity: 47
Note OFF: Time 417960, Note Name: C3
Note ON: Time 417960, Note Name: D#3, Velocity: 41
Note OFF: Time 418080, Note Name: D#3
Note ON: Time 418080, Note Name: D2, Velocity: 68
Note OFF: Time 418170, Note Name: D2
Note ON: Time 418200, Note Name: D3, Velocity: 45
Note OFF: Time 418320, Note Name: D3
Note ON: Time 418320, Note Name: G2, Velocity: 49
Note OFF: Time 418440, Note Name: G2
Note ON: Time 418440, Note Name: D3, Velocity: 43
Note OFF: Time 418560, Note Name: D3
Note ON: Time 418560, Note Name: C2, Velocity: 70
Note OFF: Time 418650, Note Name: C2
Note ON: Time 418680, Note Name: C3, Velocity: 45
Note OFF: Time 418800, Note Name: C3
Note ON: Time 418800, Note Name: G2, Velocity: 51
Note OFF: Time 418920, Note Name: G2
Note ON: Time 418920, Note Name: C3, Velocity: 43
Note OFF: Time 419040, Note Name: C3
Note ON: Time 419040, Note Name: B1, Velocity: 70
Note OFF: Time 419130, Note Name: B1
Note ON: Time 419160, Note Name: B2, Velocity: 47
Note OFF: Time 419280, Note Name: B2
Note ON: Time 419280, Note Name: G2, Velocity: 53
Note OFF: Time 419400, Note Name: G2
Note ON: Time 419400, Note Name: B2, Velocity: 48
Note OFF: Time 419520, Note Name: B2
Note ON: Time 419520, Note Name: A#1, Velocity: 72
Note OFF: Time 419610, Note Name: A#1
Note ON: Time 419640, Note Name: A#2, Velocity: 47
Note OFF: Time 419760, Note Name: A#2
Note ON: Time 419760, Note Name: C2, Velocity: 53
Note OFF: Time 419880, Note Name: C2
Note ON: Time 419880, Note Name: A#2, Velocity: 50
Note OFF: Time 420000, Note Name: A#2
Note ON: Time 420000, Note Name: G#1, Velocity: 75
Note OFF: Time 420090, Note Name: G#1
Note ON: Time 420120, Note Name: G#2, Velocity: 50
Note OFF: Time 420240, Note Name: G#2
Note ON: Time 420240, Note Name: C2, Velocity: 55
Note OFF: Time 420360, Note Name: C2
Note ON: Time 420360, Note Name: G#2, Velocity: 50
Note OFF: Time 420480, Note Name: G#2
Note ON: Time 420480, Note Name: F1, Velocity: 76
Note OFF: Time 420570, Note Name: F1
Note ON: Time 420600, Note Name: F2, Velocity: 56
Note OFF: Time 420720, Note Name: F2
Note ON: Time 420720, Note Name: C2, Velocity: 58
Note OFF: Time 420840, Note Name: C2
Note ON: Time 420840, Note Name: F2, Velocity: 55
Note OFF: Time 420960, Note Name: F2
Note ON: Time 420960, Note Name: G1, Velocity: 71
Note ON: Time 420960, Note Name: G2, Velocity: 84
Note OFF: Time 421200, Note Name: G2
Note OFF: Time 421200, Note Name: G1
Note ON: Time 421920, Note Name: G3, Velocity: 84
Note ON: Time 421920, Note Name: G2, Velocity: 71
Note OFF: Time 422160, Note Name: G2
Note OFF: Time 422160, Note Name: G3
Note ON: Time 422880, Note Name: C3, Velocity: 84
Note OFF: Time 423120, Note Name: C3
Note ON: Time 423120, Note Name: C4, Velocity: 34
Note ON: Time 423120, Note Name: D#4, Velocity: 34
Note OFF: Time 423348, Note Name: D#4
Note OFF: Time 423348, Note Name: C4
Note ON: Time 423360, Note Name: C4, Velocity: 34
Note ON: Time 423360, Note Name: D#4, Velocity: 34
Note OFF: Time 423588, Note Name: D#4
Note OFF: Time 423588, Note Name: C4
Note ON: Time 423600, Note Name: C4, Velocity: 34
Note ON: Time 423600, Note Name: D#4, Velocity: 34
Note OFF: Time 423828, Note Name: D#4
Note OFF: Time 423828, Note Name: C4
Note ON: Time 423840, Note Name: G#3, Velocity: 34
Note ON: Time 424080, Note Name: C4, Velocity: 34
Note ON: Time 424080, Note Name: D#4, Velocity: 34
Note OFF: Time 424308, Note Name: D#4
Note OFF: Time 424308, Note Name: C4
Note ON: Time 424320, Note Name: C4, Velocity: 34
Note ON: Time 424320, Note Name: D#4, Velocity: 34
Note OFF: Time 424548, Note Name: D#4
Note OFF: Time 424548, Note Name: C4
Note ON: Time 424560, Note Name: C4, Velocity: 34
Note ON: Time 424560, Note Name: D#4, Velocity: 34
Note OFF: Time 424788, Note Name: D#4
Note OFF: Time 424788, Note Name: C4
Note OFF: Time 424800, Note Name: G#3
Note ON: Time 424800, Note Name: F3, Velocity: 34
Note ON: Time 425040, Note Name: D4, Velocity: 34
Note ON: Time 425040, Note Name: C4, Velocity: 34
Note OFF: Time 425268, Note Name: C4
Note OFF: Time 425268, Note Name: D4
Note ON: Time 425280, Note Name: C4, Velocity: 34
Note ON: Time 425280, Note Name: D4, Velocity: 34
Note OFF: Time 425508, Note Name: D4
Note OFF: Time 425508, Note Name: C4
Note ON: Time 425520, Note Name: C4, Velocity: 34
Note ON: Time 425520, Note Name: D4, Velocity: 34
Note OFF: Time 425748, Note Name: D4
Note OFF: Time 425748, Note Name: C4
Note OFF: Time 425760, Note Name: F3
Note ON: Time 425760, Note Name: G3, Velocity: 34
Note ON: Time 426000, Note Name: B3, Velocity: 34
Note ON: Time 426000, Note Name: D4, Velocity: 34
Note OFF: Time 426228, Note Name: D4
Note OFF: Time 426228, Note Name: B3
Note ON: Time 426240, Note Name: B3, Velocity: 34
Note ON: Time 426240, Note Name: D4, Velocity: 34
Note OFF: Time 426468, Note Name: D4
Note OFF: Time 426468, Note Name: B3
Note ON: Time 426480, Note Name: B3, Velocity: 34
Note ON: Time 426480, Note Name: D4, Velocity: 34
Note OFF: Time 426708, Note Name: D4
Note OFF: Time 426708, Note Name: B3
Note OFF: Time 426720, Note Name: G3
Note ON: Time 426720, Note Name: C3, Velocity: 59
Note ON: Time 426960, Note Name: D#3, Velocity: 44
Note ON: Time 426960, Note Name: C4, Velocity: 44
Note OFF: Time 427188, Note Name: C4
Note OFF: Time 427188, Note Name: D#3
Note ON: Time 427200, Note Name: D#3, Velocity: 44
Note ON: Time 427200, Note Name: C4, Velocity: 44
Note OFF: Time 427428, Note Name: C4
Note OFF: Time 427428, Note Name: D#3
Note ON: Time 427440, Note Name: D#3, Velocity: 44
Note ON: Time 427440, Note Name: C4, Velocity: 44
Note OFF: Time 427668, Note Name: C4
Note OFF: Time 427668, Note Name: D#3
Note OFF: Time 427680, Note Name: C3
Note ON: Time 427680, Note Name: G#2, Velocity: 45
Note ON: Time 427920, Note Name: D#3, Velocity: 46
Note ON: Time 427920, Note Name: C3, Velocity: 46
Note ON: Time 427920, Note Name: G#3, Velocity: 46
Note OFF: Time 428148, Note Name: G#3
Note OFF: Time 428148, Note Name: C3
Note OFF: Time 428148, Note Name: D#3
Note ON: Time 428160, Note Name: D#3, Velocity: 46
Note ON: Time 428160, Note Name: C3, Velocity: 46
Note ON: Time 428160, Note Name: G#3, Velocity: 46
Note OFF: Time 428388, Note Name: G#3
Note OFF: Time 428388, Note Name: C3
Note OFF: Time 428388, Note Name: D#3
Note ON: Time 428400, Note Name: D#3, Velocity: 47
Note ON: Time 428400, Note Name: C3, Velocity: 47
Note ON: Time 428400, Note Name: G#3, Velocity: 47
Note OFF: Time 428628, Note Name: G#3
Note OFF: Time 428628, Note Name: C3
Note OFF: Time 428628, Note Name: D#3
Note OFF: Time 428640, Note Name: G#2
Note ON: Time 428640, Note Name: F2, Velocity: 47
Note ON: Time 428880, Note Name: D3, Velocity: 48
Note ON: Time 428880, Note Name: F3, Velocity: 48
Note ON: Time 428880, Note Name: C3, Velocity: 48
Note OFF: Time 429108, Note Name: C3
Note OFF: Time 429108, Note Name: F3
Note OFF: Time 429108, Note Name: D3
Note ON: Time 429120, Note Name: D3, Velocity: 48
Note ON: Time 429120, Note Name: C3, Velocity: 48
Note ON: Time 429120, Note Name: F3, Velocity: 48
Note OFF: Time 429348, Note Name: F3
Note OFF: Time 429348, Note Name: C3
Note OFF: Time 429348, Note Name: D3
Note ON: Time 429360, Note Name: D3, Velocity: 49
Note ON: Time 429360, Note Name: C3, Velocity: 49
Note ON: Time 429360, Note Name: F3, Velocity: 49
Note OFF: Time 429588, Note Name: F3
Note OFF: Time 429588, Note Name: C3
Note OFF: Time 429588, Note Name: D3
Note OFF: Time 429600, Note Name: F2
Note ON: Time 429600, Note Name: G2, Velocity: 49
Note ON: Time 429840, Note Name: D3, Velocity: 50
Note ON: Time 429840, Note Name: B2, Velocity: 50
Note ON: Time 429840, Note Name: G3, Velocity: 50
Note OFF: Time 430068, Note Name: G3
Note OFF: Time 430068, Note Name: B2
Note OFF: Time 430068, Note Name: D3
Note ON: Time 430080, Note Name: D3, Velocity: 50
Note ON: Time 430080, Note Name: B2, Velocity: 50
Note ON: Time 430080, Note Name: G3, Velocity: 50
Note OFF: Time 430308, Note Name: G3
Note OFF: Time 430308, Note Name: B2
Note OFF: Time 430308, Note Name: D3
Note ON: Time 430320, Note Name: D3, Velocity: 51
Note ON: Time 430320, Note Name: B2, Velocity: 51
Note ON: Time 430320, Note Name: G3, Velocity: 51
Note OFF: Time 430548, Note Name: G3
Note OFF: Time 430548, Note Name: B2
Note OFF: Time 430548, Note Name: D3
Note OFF: Time 430560, Note Name: G2
Note ON: Time 430560, Note Name: C2, Velocity: 67
Note ON: Time 430680, Note Name: C3, Velocity: 60
Note OFF: Time 430788, Note Name: C2
Note OFF: Time 430800, Note Name: C3
Note ON: Time 430800, Note Name: C2, Velocity: 67
Note ON: Time 430920, Note Name: C3, Velocity: 59
Note OFF: Time 431028, Note Name: C2
Note OFF: Time 431040, Note Name: C3
Note ON: Time 431040, Note Name: C2, Velocity: 67
Note ON: Time 431160, Note Name: C3, Velocity: 60
Note OFF: Time 431268, Note Name: C2
Note OFF: Time 431280, Note Name: C3
Note ON: Time 431280, Note Name: C2, Velocity: 66
Note ON: Time 431400, Note Name: C3, Velocity: 60
Note OFF: Time 431508, Note Name: C2
Note OFF: Time 431520, Note Name: C3
Note ON: Time 431520, Note Name: C2, Velocity: 66
Note ON: Time 431640, Note Name: C3, Velocity: 59
Note OFF: Time 431748, Note Name: C2
Note OFF: Time 431760, Note Name: C3
Note ON: Time 431760, Note Name: C2, Velocity: 66
Note ON: Time 431880, Note Name: C3, Velocity: 60
Note OFF: Time 431988, Note Name: C2
Note OFF: Time 432000, Note Name: C3
Note ON: Time 432000, Note Name: C2, Velocity: 66
Note ON: Time 432120, Note Name: C3, Velocity: 60
Note OFF: Time 432228, Note Name: C2
Note OFF: Time 432240, Note Name: C3
Note ON: Time 432240, Note Name: C2, Velocity: 66
Note ON: Time 432360, Note Name: C3, Velocity: 61
Note OFF: Time 432468, Note Name: C2
Note OFF: Time 432480, Note Name: C3
Note ON: Time 432480, Note Name: C2, Velocity: 67
Note ON: Time 432600, Note Name: C3, Velocity: 60
Note OFF: Time 432708, Note Name: C2
Note OFF: Time 432720, Note Name: C3
Note ON: Time 432720, Note Name: C2, Velocity: 67
Note ON: Time 432840, Note Name: C3, Velocity: 59
Note OFF: Time 432948, Note Name: C2
Note OFF: Time 432960, Note Name: C3
Note ON: Time 432960, Note Name: C2, Velocity: 67
Note ON: Time 433080, Note Name: C3, Velocity: 60
Note OFF: Time 433188, Note Name: C2
Note OFF: Time 433200, Note Name: C3
Note ON: Time 433200, Note Name: C2, Velocity: 66
Note ON: Time 433320, Note Name: C3, Velocity: 60
Note OFF: Time 433428, Note Name: C2
Note OFF: Time 433440, Note Name: C3
Note ON: Time 433440, Note Name: C2, Velocity: 66
Note ON: Time 433560, Note Name: C3, Velocity: 59
Note OFF: Time 433668, Note Name: C2
Note OFF: Time 433680, Note Name: C3
Note ON: Time 433680, Note Name: C2, Velocity: 66
Note ON: Time 433800, Note Name: C3, Velocity: 60
Note OFF: Time 433908, Note Name: C2
Note OFF: Time 433920, Note Name: C3
Note ON: Time 433920, Note Name: C2, Velocity: 66
Note ON: Time 434040, Note Name: C3, Velocity: 60
Note OFF: Time 434148, Note Name: C2
Note OFF: Time 434160, Note Name: C3
Note ON: Time 434160, Note Name: C2, Velocity: 66
Note ON: Time 434280, Note Name: C3, Velocity: 61
Note OFF: Time 434388, Note Name: C2
Note OFF: Time 434400, Note Name: C3
Note ON: Time 434400, Note Name: C2, Velocity: 66
Note ON: Time 434520, Note Name: C3, Velocity: 59
Note OFF: Time 434628, Note Name: C2
Note OFF: Time 434640, Note Name: C3
Note ON: Time 434640, Note Name: C2, Velocity: 66
Note ON: Time 434760, Note Name: C3, Velocity: 60
Note OFF: Time 434868, Note Name: C2
Note OFF: Time 434880, Note Name: C3
Note ON: Time 434880, Note Name: C2, Velocity: 66
Note ON: Time 435000, Note Name: C3, Velocity: 60
Note OFF: Time 435108, Note Name: C2
Note OFF: Time 435120, Note Name: C3
Note ON: Time 435120, Note Name: C2, Velocity: 66
Note ON: Time 435240, Note Name: C3, Velocity: 61
Note OFF: Time 435348, Note Name: C2
Note OFF: Time 435360, Note Name: C3
Note ON: Time 435360, Note Name: A#1, Velocity: 66
Note ON: Time 435480, Note Name: A#2, Velocity: 59
Note OFF: Time 435588, Note Name: A#1
Note OFF: Time 435600, Note Name: A#2
Note ON: Time 435600, Note Name: A#1, Velocity: 66
Note ON: Time 435720, Note Name: A#2, Velocity: 60
Note OFF: Time 435828, Note Name: A#1
Note OFF: Time 435840, Note Name: A#2
Note ON: Time 435840, Note Name: A#1, Velocity: 66
Note ON: Time 435960, Note Name: A#2, Velocity: 60
Note OFF: Time 436068, Note Name: A#1
Note OFF: Time 436080, Note Name: A#2
Note ON: Time 436080, Note Name: A#1, Velocity: 66
Note ON: Time 436200, Note Name: A#2, Velocity: 61
Note OFF: Time 436308, Note Name: A#1
Note OFF: Time 436320, Note Name: A#2
Note ON: Time 436320, Note Name: G#1, Velocity: 66
Note ON: Time 436440, Note Name: G#2, Velocity: 59
Note OFF: Time 436548, Note Name: G#1
Note OFF: Time 436560, Note Name: G#2
Note ON: Time 436560, Note Name: G#1, Velocity: 66
Note ON: Time 436680, Note Name: G#2, Velocity: 60
Note OFF: Time 436788, Note Name: G#1
Note OFF: Time 436800, Note Name: G#2
Note ON: Time 436800, Note Name: G#1, Velocity: 66
Note ON: Time 436920, Note Name: G#2, Velocity: 60
Note OFF: Time 437028, Note Name: G#1
Note OFF: Time 437040, Note Name: G#2
Note ON: Time 437040, Note Name: G#1, Velocity: 66
Note ON: Time 437160, Note Name: G#2, Velocity: 61
Note OFF: Time 437268, Note Name: G#1
Note OFF: Time 437280, Note Name: G#2
Note ON: Time 437280, Note Name: G1, Velocity: 66
Note ON: Time 437400, Note Name: G2, Velocity: 59
Note OFF: Time 437508, Note Name: G1
Note OFF: Time 437520, Note Name: G2
Note ON: Time 437520, Note Name: G1, Velocity: 66
Note ON: Time 437640, Note Name: G2, Velocity: 60
Note OFF: Time 437748, Note Name: G1
Note OFF: Time 437760, Note Name: G2
Note ON: Time 437760, Note Name: G1, Velocity: 66
Note ON: Time 437880, Note Name: G2, Velocity: 60
Note OFF: Time 437988, Note Name: G1
Note OFF: Time 438000, Note Name: G2
Note ON: Time 438000, Note Name: G1, Velocity: 66
Note ON: Time 438120, Note Name: G2, Velocity: 61
Note OFF: Time 438228, Note Name: G1
Note OFF: Time 438240, Note Name: G2
Note ON: Time 438240, Note Name: F#1, Velocity: 68
Note ON: Time 438240, Note Name: F#2, Velocity: 81
Note OFF: Time 439200, Note Name: F#2
Note OFF: Time 439200, Note Name: F#1
Note ON: Time 439200, Note Name: A2, Velocity: 84
Note ON: Time 439200, Note Name: C3, Velocity: 84
Note ON: Time 439200, Note Name: F#2, Velocity: 71
Note ON: Time 439200, Note Name: D#3, Velocity: 84
Note OFF: Time 440160, Note Name: D#3
Note OFF: Time 440160, Note Name: A2
Note OFF: Time 440160, Note Name: C3
Note OFF: Time 440160, Note Name: F#2
Note ON: Time 441480, Note Name: D#4, Velocity: 39
Note OFF: Time 441594, Note Name: D#4
Note ON: Time 441600, Note Name: D4, Velocity: 45
Note OFF: Time 441960, Note Name: D4
Note ON: Time 441960, Note Name: C4, Velocity: 39
Note OFF: Time 442074, Note Name: C4
Note ON: Time 442080, Note Name: C4, Velocity: 42
Note OFF: Time 443040, Note Name: C4
Note ON: Time 443040, Note Name: B3, Velocity: 27
Note OFF: Time 443520, Note Name: B3
Note ON: Time 445320, Note Name: G#4, Velocity: 39
Note OFF: Time 445440, Note Name: G#4
Note ON: Time 445440, Note Name: G4, Velocity: 45
Note OFF: Time 445800, Note Name: G4
Note ON: Time 445800, Note Name: F4, Velocity: 39
Note OFF: Time 445914, Note Name: F4
Note ON: Time 445920, Note Name: F4, Velocity: 38
Note OFF: Time 446880, Note Name: F4
Note ON: Time 446880, Note Name: D#4, Velocity: 27
Note OFF: Time 447360, Note Name: D#4
Note ON: Time 449160, Note Name: C#4, Velocity: 42
Note ON: Time 449160, Note Name: E4, Velocity: 42
Note ON: Time 449160, Note Name: G4, Velocity: 50
Note OFF: Time 449280, Note Name: G4
Note OFF: Time 449280, Note Name: E4
Note OFF: Time 449280, Note Name: C#4
Note ON: Time 449280, Note Name: C4, Velocity: 49
Note ON: Time 449280, Note Name: E4, Velocity: 49
Note ON: Time 449280, Note Name: G4, Velocity: 58
Note OFF: Time 449640, Note Name: G4
Note OFF: Time 449640, Note Name: E4
Note OFF: Time 449640, Note Name: C4
Note ON: Time 449640, Note Name: A#3, Velocity: 49
Note ON: Time 449640, Note Name: E4, Velocity: 49
Note ON: Time 449640, Note Name: G4, Velocity: 58
Note OFF: Time 449754, Note Name: G4
Note OFF: Time 449754, Note Name: E4
Note OFF: Time 449754, Note Name: A#3
Note ON: Time 449760, Note Name: G#3, Velocity: 60
Note ON: Time 449760, Note Name: A#3, Velocity: 60
Note ON: Time 449760, Note Name: E4, Velocity: 60
Note ON: Time 449760, Note Name: G4, Velocity: 72
Note OFF: Time 450720, Note Name: G4
Note OFF: Time 450720, Note Name: E4
Note OFF: Time 450720, Note Name: A#3
Note ON: Time 450720, Note Name: C4, Velocity: 46
Note ON: Time 450720, Note Name: F4, Velocity: 46
Note ON: Time 450720, Note Name: G#4, Velocity: 55
Note OFF: Time 451200, Note Name: G#4
Note OFF: Time 451200, Note Name: F4
Note OFF: Time 451200, Note Name: C4
Note ON: Time 451200, Note Name: G3, Velocity: 44
Note ON: Time 451200, Note Name: C4, Velocity: 44
Note ON: Time 451200, Note Name: E4, Velocity: 52
Note OFF: Time 451680, Note Name: E4
Note OFF: Time 451680, Note Name: G#3
Note OFF: Time 451680, Note Name: G3
Note OFF: Time 451680, Note Name: C4
Note ON: Time 451680, Note Name: F3, Velocity: 35
Note ON: Time 451680, Note Name: C4, Velocity: 35
Note ON: Time 451680, Note Name: F4, Velocity: 42
Note OFF: Time 452160, Note Name: F4
Note OFF: Time 452160, Note Name: C4
Note OFF: Time 452160, Note Name: F3
Note ON: Time 452160, Note Name: D#3, Velocity: 34
Note ON: Time 452160, Note Name: G3, Velocity: 34
Note ON: Time 452160, Note Name: C4, Velocity: 40
Note OFF: Time 452640, Note Name: C4
Note OFF: Time 452640, Note Name: G3
Note OFF: Time 452640, Note Name: D#3
Note ON: Time 452640, Note Name: D3, Velocity: 32
Note ON: Time 452640, Note Name: G3, Velocity: 32
Note ON: Time 452640, Note Name: B3, Velocity: 38
Note OFF: Time 453120, Note Name: B3
Note OFF: Time 453120, Note Name: G3
Note OFF: Time 453120, Note Name: D3
Note ON: Time 453120, Note Name: C3, Velocity: 30
Note ON: Time 453120, Note Name: G3, Velocity: 30
Note ON: Time 453120, Note Name: C4, Velocity: 36
Note OFF: Time 453600, Note Name: C4
Note OFF: Time 453600, Note Name: G3
Note OFF: Time 453600, Note Name: C3
Note ON: Time 453600, Note Name: F3, Velocity: 34
Note OFF: Time 454080, Note Name: F3
Note ON: Time 454560, Note Name: G1, Velocity: 30
Note ON: Time 454560, Note Name: G2, Velocity: 36
Note OFF: Time 455040, Note Name: G2
Note OFF: Time 455040, Note Name: G1
Note ON: Time 455040, Note Name: D3, Velocity: 29
Note ON: Time 455040, Note Name: F3, Velocity: 29
Note ON: Time 455040, Note Name: B3, Velocity: 35
Note OFF: Time 455520, Note Name: B3
Note OFF: Time 455520, Note Name: F3
Note OFF: Time 455520, Note Name: D3
Note ON: Time 455520, Note Name: C2, Velocity: 44
Note ON: Time 455640, Note Name: C3, Velocity: 41
Note OFF: Time 455748, Note Name: C2
Note OFF: Time 455760, Note Name: C3
Note ON: Time 455760, Note Name: C2, Velocity: 44
Note ON: Time 455880, Note Name: C3, Velocity: 41
Note OFF: Time 455988, Note Name: C2
Note OFF: Time 456000, Note Name: C3
Note ON: Time 456000, Note Name: C2, Velocity: 44
Note ON: Time 456120, Note Name: C3, Velocity: 41
Note OFF: Time 456228, Note Name: C2
Note OFF: Time 456240, Note Name: C3
Note ON: Time 456240, Note Name: C2, Velocity: 45
Note ON: Time 456360, Note Name: C3, Velocity: 41
Note OFF: Time 456468, Note Name: C2
Note OFF: Time 456480, Note Name: C3
Note ON: Time 456480, Note Name: C2, Velocity: 45
Note ON: Time 456600, Note Name: C3, Velocity: 46
Note OFF: Time 456708, Note Name: C2
Note OFF: Time 456720, Note Name: C3
Note ON: Time 456720, Note Name: C2, Velocity: 47
Note ON: Time 456840, Note Name: C3, Velocity: 47
Note OFF: Time 456948, Note Name: C2
Note OFF: Time 456960, Note Name: C3
Note ON: Time 456960, Note Name: C2, Velocity: 49
Note ON: Time 457080, Note Name: C3, Velocity: 50
Note OFF: Time 457188, Note Name: C2
Note OFF: Time 457200, Note Name: C3
Note ON: Time 457200, Note Name: C2, Velocity: 51
Note ON: Time 457320, Note Name: C3, Velocity: 53
Note OFF: Time 457428, Note Name: C2
Note OFF: Time 457440, Note Name: C3
Note ON: Time 457440, Note Name: C2, Velocity: 55
Note ON: Time 457560, Note Name: C3, Velocity: 50
Note OFF: Time 457668, Note Name: C2
Note OFF: Time 457680, Note Name: C3
Note ON: Time 457680, Note Name: C2, Velocity: 53
Note ON: Time 457800, Note Name: C3, Velocity: 47
Note OFF: Time 457908, Note Name: C2
Note OFF: Time 457920, Note Name: C3
Note ON: Time 457920, Note Name: C2, Velocity: 53
Note ON: Time 458040, Note Name: C3, Velocity: 47
Note OFF: Time 458148, Note Name: C2
Note OFF: Time 458160, Note Name: C3
Note ON: Time 458160, Note Name: C2, Velocity: 44
Note ON: Time 458280, Note Name: C3, Velocity: 40
Note OFF: Time 458388, Note Name: C2
Note OFF: Time 458400, Note Name: C3
Note ON: Time 458400, Note Name: C2, Velocity: 40
Note ON: Time 458520, Note Name: C3, Velocity: 43
Note OFF: Time 458628, Note Name: C2
Note OFF: Time 458640, Note Name: C3
Note ON: Time 458640, Note Name: C2, Velocity: 44
Note ON: Time 458760, Note Name: C3, Velocity: 46
Note OFF: Time 458868, Note Name: C2
Note OFF: Time 458880, Note Name: C3
Note ON: Time 458880, Note Name: C2, Velocity: 48
Note ON: Time 459000, Note Name: C3, Velocity: 50
Note OFF: Time 459108, Note Name: C2
Note OFF: Time 459120, Note Name: C3
Note ON: Time 459120, Note Name: C2, Velocity: 52
Note ON: Time 459240, Note Name: C3, Velocity: 54
Note OFF: Time 459348, Note Name: C2
Note OFF: Time 459360, Note Name: C3
Note ON: Time 459360, Note Name: C2, Velocity: 63
Note ON: Time 459480, Note Name: C3, Velocity: 57
Note OFF: Time 459588, Note Name: C2
Note OFF: Time 459600, Note Name: C3
Note ON: Time 459600, Note Name: C2, Velocity: 62
Note ON: Time 459720, Note Name: C3, Velocity: 56
Note OFF: Time 459828, Note Name: C2
Note OFF: Time 459840, Note Name: C3
Note ON: Time 459840, Note Name: A#1, Velocity: 66
Note ON: Time 459960, Note Name: A#2, Velocity: 61
Note OFF: Time 460068, Note Name: A#1
Note OFF: Time 460080, Note Name: A#2
Note ON: Time 460080, Note Name: A#1, Velocity: 68
Note ON: Time 460200, Note Name: A#2, Velocity: 64
Note OFF: Time 460308, Note Name: A#1
Note OFF: Time 460320, Note Name: A#2
Note ON: Time 460320, Note Name: G#1, Velocity: 70
Note ON: Time 460440, Note Name: G#2, Velocity: 72
Note OFF: Time 460548, Note Name: G#1
Note OFF: Time 460560, Note Name: G#2
Note ON: Time 460560, Note Name: G#1, Velocity: 73
Note ON: Time 460680, Note Name: G#2, Velocity: 74
Note OFF: Time 460788, Note Name: G#1
Note OFF: Time 460800, Note Name: G#2
Note ON: Time 460800, Note Name: G1, Velocity: 75
Note ON: Time 460920, Note Name: G2, Velocity: 73
Note OFF: Time 461028, Note Name: G1
Note OFF: Time 461040, Note Name: G2
Note ON: Time 461040, Note Name: G1, Velocity: 76
Note ON: Time 461160, Note Name: G2, Velocity: 78
Note OFF: Time 461268, Note Name: G1
Note OFF: Time 461280, Note Name: G2
Note ON: Time 461280, Note Name: F#1, Velocity: 93
Note ON: Time 461280, Note Name: F#2, Velocity: 93
Note OFF: Time 461520, Note Name: F#2
Note OFF: Time 461520, Note Name: F#1
Note ON: Time 462240, Note Name: A3, Velocity: 79
Note ON: Time 462240, Note Name: D#4, Velocity: 93
Note ON: Time 462240, Note Name: C4, Velocity: 93
Note ON: Time 462240, Note Name: F#3, Velocity: 79
Note OFF: Time 462480, Note Name: F#3
Note OFF: Time 462480, Note Name: A3
Note OFF: Time 462480, Note Name: D#4
Note OFF: Time 462480, Note Name: C4
Note ON: Time 463200, Note Name: C4, Velocity: 93
Note ON: Time 463200, Note Name: G3, Velocity: 79
Note ON: Time 463200, Note Name: D#4, Velocity: 93
Note OFF: Time 463440, Note Name: D#4
Note OFF: Time 463440, Note Name: G3
Note OFF: Time 463440, Note Name: C4
Note ON: Time 464160, Note Name: G2, Velocity: 89
Note ON: Time 464160, Note Name: D2, Velocity: 74
Note ON: Time 464160, Note Name: G1, Velocity: 74
Note ON: Time 464160, Note Name: B1, Velocity: 74
Note OFF: Time 464400, Note Name: B1
Note OFF: Time 464400, Note Name: G2
Note OFF: Time 464400, Note Name: D2
Note OFF: Time 464400, Note Name: G1
Note ON: Time 465120, Note Name: C3, Velocity: 89
Note ON: Time 465120, Note Name: C2, Velocity: 74
Note ON: Time 465120, Note Name: D#2, Velocity: 74
Note ON: Time 465120, Note Name: G2, Velocity: 74
Note OFF: Time 465360, Note Name: G2
Note OFF: Time 465360, Note Name: C3
Note OFF: Time 465360, Note Name: C2
Note OFF: Time 465360, Note Name: D#2
Track 3: Pedale
Track 4: Beethoven Sonata No. 8 C minor, Grand Sonate pathtique 1. Movement
Track 5: Copyright  2003 by Bernd Krueger
Track 6: http://www.piano-midi.de
Track 7: Edition: 2012-05-15
Track 8: Spur 8
