Processing pathetique_2.mid...

Track 0: Beethoven Sonata No. 8 in C minor "Pathetique"
Track 1: Piano right
Note ON: Time 0, Note Name: C4, Velocity: 50
Note OFF: Time 480, Note Name: C4
Note ON: Time 480, Note Name: A#3, Velocity: 46
Note OFF: Time 960, Note Name: A#3
Note ON: Time 960, Note Name: D#4, Velocity: 50
Note OFF: Time 1680, Note Name: D#4
Note ON: Time 1680, Note Name: C#4, Velocity: 48
Note OFF: Time 1920, Note Name: C#4
Note ON: Time 1920, Note Name: C4, Velocity: 47
Note OFF: Time 2160, Note Name: C4
Note ON: Time 2160, Note Name: D#4, Velocity: 49
Note OFF: Time 2400, Note Name: D#4
Note ON: Time 2400, Note Name: G#4, Velocity: 51
Note OFF: Time 2640, Note Name: G#4
Note ON: Time 2640, Note Name: A#4, Velocity: 56
Note OFF: Time 2880, Note Name: A#4
Note ON: Time 2880, Note Name: D#4, Velocity: 50
Note OFF: Time 3600, Note Name: D#4
Note ON: Time 3600, Note Name: E4, Velocity: 46
Note OFF: Time 3840, Note Name: E4
Note ON: Time 3840, Note Name: F4, Velocity: 50
Note OFF: Time 4320, Note Name: F4
Note ON: Time 4320, Note Name: A#3, Velocity: 50
Note OFF: Time 4680, Note Name: A#3
Note ON: Time 4680, Note Name: C4, Velocity: 46
Note OFF: Time 4740, Note Name: C4
Note ON: Time 4740, Note Name: C#4, Velocity: 46
Note OFF: Time 4800, Note Name: C#4
Note ON: Time 4800, Note Name: D#4, Velocity: 50
Note OFF: Time 5280, Note Name: D#4
Note ON: Time 5280, Note Name: A3, Velocity: 48
Note OFF: Time 5760, Note Name: A3
Note ON: Time 5760, Note Name: C#4, Velocity: 50
Note OFF: Time 6240, Note Name: C#4
Note ON: Time 6240, Note Name: C4, Velocity: 48
Note OFF: Time 6360, Note Name: C4
Note ON: Time 6360, Note Name: A#3, Velocity: 48
Note OFF: Time 6480, Note Name: A#3
Note ON: Time 6480, Note Name: G#3, Velocity: 48
Note OFF: Time 6600, Note Name: G#3
Note ON: Time 6600, Note Name: G3, Velocity: 48
Note OFF: Time 6720, Note Name: G3
Note ON: Time 6720, Note Name: G3, Velocity: 40
Note ON: Time 6720, Note Name: A#3, Velocity: 50
Note OFF: Time 7200, Note Name: A#3
Note OFF: Time 7200, Note Name: G3
Note ON: Time 7200, Note Name: G#3, Velocity: 50
Note OFF: Time 7440, Note Name: G#3
Note ON: Time 7440, Note Name: C4, Velocity: 36
Note OFF: Time 7500, Note Name: C4
Note ON: Time 7520, Note Name: D#4, Velocity: 35
Note OFF: Time 7580, Note Name: D#4
Note ON: Time 7600, Note Name: G#4, Velocity: 35
Note OFF: Time 7660, Note Name: G#4
Note ON: Time 7680, Note Name: C5, Velocity: 50
Note OFF: Time 8160, Note Name: C5
Note ON: Time 8160, Note Name: A#4, Velocity: 46
Note OFF: Time 8640, Note Name: A#4
Note ON: Time 8640, Note Name: D#5, Velocity: 50
Note OFF: Time 9360, Note Name: D#5
Note ON: Time 9360, Note Name: C#5, Velocity: 48
Note OFF: Time 9600, Note Name: C#5
Note ON: Time 9600, Note Name: C5, Velocity: 47
Note OFF: Time 9840, Note Name: C5
Note ON: Time 9840, Note Name: D#5, Velocity: 49
Note OFF: Time 10080, Note Name: D#5
Note ON: Time 10080, Note Name: G#5, Velocity: 51
Note OFF: Time 10320, Note Name: G#5
Note ON: Time 10320, Note Name: A#5, Velocity: 56
Note OFF: Time 10560, Note Name: A#5
Note ON: Time 10560, Note Name: D#5, Velocity: 50
Note OFF: Time 11280, Note Name: D#5
Note ON: Time 11280, Note Name: E5, Velocity: 46
Note OFF: Time 11520, Note Name: E5
Note ON: Time 11520, Note Name: F5, Velocity: 50
Note OFF: Time 12000, Note Name: F5
Note ON: Time 12000, Note Name: A#4, Velocity: 50
Note OFF: Time 12360, Note Name: A#4
Note ON: Time 12360, Note Name: C5, Velocity: 46
Note OFF: Time 12420, Note Name: C5
Note ON: Time 12420, Note Name: C#5, Velocity: 46
Note OFF: Time 12480, Note Name: C#5
Note ON: Time 12480, Note Name: D#5, Velocity: 50
Note OFF: Time 12960, Note Name: D#5
Note ON: Time 12960, Note Name: A4, Velocity: 48
Note OFF: Time 13440, Note Name: A4
Note ON: Time 13440, Note Name: C#5, Velocity: 50
Note OFF: Time 13920, Note Name: C#5
Note ON: Time 13920, Note Name: C5, Velocity: 48
Note OFF: Time 14040, Note Name: C5
Note ON: Time 14040, Note Name: A#4, Velocity: 48
Note OFF: Time 14160, Note Name: A#4
Note ON: Time 14160, Note Name: G#4, Velocity: 48
Note OFF: Time 14280, Note Name: G#4
Note ON: Time 14280, Note Name: G4, Velocity: 48
Note OFF: Time 14400, Note Name: G4
Note ON: Time 14400, Note Name: A#4, Velocity: 50
Note OFF: Time 14880, Note Name: A#4
Note ON: Time 14880, Note Name: G#4, Velocity: 50
Note OFF: Time 15120, Note Name: G#4
Note ON: Time 15300, Note Name: C4, Velocity: 45
Note OFF: Time 15360, Note Name: C4
Note ON: Time 15360, Note Name: C5, Velocity: 50
Note OFF: Time 15960, Note Name: C5
Note ON: Time 15960, Note Name: G#5, Velocity: 50
Note OFF: Time 16080, Note Name: G#5
Note ON: Time 16080, Note Name: G5, Velocity: 51
Note OFF: Time 16200, Note Name: G5
Note ON: Time 16200, Note Name: F5, Velocity: 48
Note OFF: Time 16320, Note Name: F5
Note ON: Time 16320, Note Name: C6, Velocity: 54
Note OFF: Time 16920, Note Name: C6
Note ON: Time 16920, Note Name: G#5, Velocity: 50
Note OFF: Time 17040, Note Name: G#5
Note ON: Time 17040, Note Name: G5, Velocity: 50
Note OFF: Time 17160, Note Name: G5
Note ON: Time 17160, Note Name: F5, Velocity: 48
Note OFF: Time 17280, Note Name: F5
Note ON: Time 17280, Note Name: C5, Velocity: 52
Note OFF: Time 17880, Note Name: C5
Note ON: Time 17880, Note Name: G#5, Velocity: 46
Note OFF: Time 18000, Note Name: G#5
Note ON: Time 18000, Note Name: G5, Velocity: 49
Note OFF: Time 18120, Note Name: G5
Note ON: Time 18120, Note Name: F5, Velocity: 51
Note OFF: Time 18240, Note Name: F5
Note ON: Time 18240, Note Name: D#5, Velocity: 57
Note OFF: Time 18480, Note Name: D#5
Note ON: Time 18480, Note Name: D5, Velocity: 53
Note OFF: Time 18840, Note Name: D5
Note ON: Time 18840, Note Name: D#5, Velocity: 55
Note OFF: Time 18870, Note Name: D#5
Note ON: Time 18870, Note Name: D5, Velocity: 55
Note OFF: Time 18900, Note Name: D5
Note ON: Time 18900, Note Name: C5, Velocity: 54
Note OFF: Time 18930, Note Name: C5
Note ON: Time 18930, Note Name: D5, Velocity: 54
Note OFF: Time 18960, Note Name: D5
Note ON: Time 18960, Note Name: F5, Velocity: 63
Note OFF: Time 19140, Note Name: F5
Note ON: Time 19140, Note Name: D#5, Velocity: 55
Note OFF: Time 19200, Note Name: D#5
Note ON: Time 19200, Note Name: D#5, Velocity: 62
Note OFF: Time 19680, Note Name: D#5
Note ON: Time 19680, Note Name: F4, Velocity: 55
Note ON: Time 19920, Note Name: G4, Velocity: 54
Note OFF: Time 19950, Note Name: G4
Note ON: Time 19950, Note Name: F4, Velocity: 54
Note OFF: Time 19980, Note Name: F4
Note ON: Time 19980, Note Name: E4, Velocity: 53
Note OFF: Time 20010, Note Name: E4
Note ON: Time 20010, Note Name: F4, Velocity: 53
Note OFF: Time 20040, Note Name: F4
Note OFF: Time 20040, Note Name: F4
Note ON: Time 20040, Note Name: G#4, Velocity: 58
Note OFF: Time 20100, Note Name: G#4
Note ON: Time 20100, Note Name: C5, Velocity: 51
Note OFF: Time 20160, Note Name: C5
Note ON: Time 20160, Note Name: B4, Velocity: 45
Note OFF: Time 20200, Note Name: B4
Note ON: Time 20200, Note Name: C5, Velocity: 45
Note OFF: Time 20240, Note Name: C5
Note ON: Time 20240, Note Name: D5, Velocity: 45
Note OFF: Time 20280, Note Name: D5
Note ON: Time 20280, Note Name: C5, Velocity: 49
Note OFF: Time 20340, Note Name: C5
Note ON: Time 20340, Note Name: A#4, Velocity: 45
Note OFF: Time 20400, Note Name: A#4
Note ON: Time 20400, Note Name: G5, Velocity: 52
Note OFF: Time 20640, Note Name: G5
Note ON: Time 20640, Note Name: F5, Velocity: 50
Note OFF: Time 20700, Note Name: F5
Note ON: Time 20700, Note Name: D#5, Velocity: 49
Note OFF: Time 20760, Note Name: D#5
Note ON: Time 20760, Note Name: D5, Velocity: 47
Note OFF: Time 20820, Note Name: D5
Note ON: Time 20820, Note Name: C5, Velocity: 46
Note OFF: Time 20880, Note Name: C5
Note ON: Time 20880, Note Name: A#4, Velocity: 44
Note OFF: Time 20940, Note Name: A#4
Note ON: Time 20940, Note Name: A4, Velocity: 43
Note OFF: Time 21000, Note Name: A4
Note ON: Time 21000, Note Name: C5, Velocity: 47
Note OFF: Time 21060, Note Name: C5
Note ON: Time 21060, Note Name: A#4, Velocity: 46
Note OFF: Time 21120, Note Name: A#4
Note ON: Time 21120, Note Name: G#4, Velocity: 45
Note OFF: Time 21180, Note Name: G#4
Note ON: Time 21180, Note Name: F4, Velocity: 43
Note OFF: Time 21240, Note Name: F4
Note ON: Time 21240, Note Name: D#4, Velocity: 49
Note OFF: Time 21480, Note Name: D#4
Note ON: Time 21600, Note Name: A#3, Velocity: 44
Note OFF: Time 21720, Note Name: A#3
Note ON: Time 21720, Note Name: G3, Velocity: 49
Note OFF: Time 21840, Note Name: G3
Note ON: Time 21840, Note Name: A#3, Velocity: 45
Note OFF: Time 21960, Note Name: A#3
Note ON: Time 21960, Note Name: G3, Velocity: 49
Note OFF: Time 22080, Note Name: G3
Note ON: Time 22080, Note Name: D#3, Velocity: 45
Note OFF: Time 22200, Note Name: D#3
Note ON: Time 22200, Note Name: F3, Velocity: 38
Note ON: Time 22200, Note Name: G#3, Velocity: 45
Note OFF: Time 22435, Note Name: G#3
Note OFF: Time 22435, Note Name: F3
Note ON: Time 22440, Note Name: F3, Velocity: 39
Note ON: Time 22440, Note Name: G#3, Velocity: 47
Note OFF: Time 22675, Note Name: G#3
Note OFF: Time 22675, Note Name: F3
Note ON: Time 22680, Note Name: F3, Velocity: 42
Note ON: Time 22680, Note Name: G#3, Velocity: 50
Note OFF: Time 22915, Note Name: G#3
Note OFF: Time 22915, Note Name: F3
Note ON: Time 22920, Note Name: D3, Velocity: 36
Note ON: Time 22920, Note Name: F3, Velocity: 41
Note ON: Time 22920, Note Name: G#3, Velocity: 49
Note OFF: Time 23155, Note Name: G#3
Note OFF: Time 23155, Note Name: F3
Note OFF: Time 23155, Note Name: D3
Note ON: Time 23160, Note Name: A#2, Velocity: 36
Note ON: Time 23160, Note Name: D#3, Velocity: 41
Note ON: Time 23160, Note Name: G3, Velocity: 49
Note OFF: Time 23400, Note Name: G3
Note OFF: Time 23400, Note Name: D#3
Note OFF: Time 23400, Note Name: A#2
Note ON: Time 23880, Note Name: A#3, Velocity: 49
Note OFF: Time 24060, Note Name: A#3
Note ON: Time 24060, Note Name: D#4, Velocity: 49
Note OFF: Time 24120, Note Name: D#4
Note ON: Time 24120, Note Name: D#4, Velocity: 49
Note OFF: Time 24240, Note Name: D#4
Note ON: Time 24240, Note Name: D4, Velocity: 44
Note OFF: Time 24355, Note Name: D4
Note ON: Time 24360, Note Name: D4, Velocity: 49
Note OFF: Time 24480, Note Name: D4
Note ON: Time 24480, Note Name: C4, Velocity: 45
Note OFF: Time 24595, Note Name: C4
Note ON: Time 24600, Note Name: C4, Velocity: 53
Note OFF: Time 24720, Note Name: C4
Note ON: Time 24720, Note Name: B3, Velocity: 47
Note OFF: Time 24835, Note Name: B3
Note ON: Time 24840, Note Name: B3, Velocity: 53
Note OFF: Time 24960, Note Name: B3
Note ON: Time 24960, Note Name: A#3, Velocity: 49
Note OFF: Time 25075, Note Name: A#3
Note ON: Time 25080, Note Name: G3, Velocity: 50
Note ON: Time 25080, Note Name: A#3, Velocity: 50
Note OFF: Time 27000, Note Name: A#3
Note OFF: Time 27000, Note Name: G3
Note ON: Time 27000, Note Name: C4, Velocity: 47
Note OFF: Time 27480, Note Name: C4
Note ON: Time 27480, Note Name: A#3, Velocity: 46
Note OFF: Time 27960, Note Name: A#3
Note ON: Time 27960, Note Name: D#4, Velocity: 50
Note OFF: Time 28680, Note Name: D#4
Note ON: Time 28680, Note Name: C#4, Velocity: 48
Note OFF: Time 28920, Note Name: C#4
Note ON: Time 28920, Note Name: C4, Velocity: 47
Note OFF: Time 29160, Note Name: C4
Note ON: Time 29160, Note Name: D#4, Velocity: 49
Note OFF: Time 29400, Note Name: D#4
Note ON: Time 29400, Note Name: G#4, Velocity: 51
Note OFF: Time 29640, Note Name: G#4
Note ON: Time 29640, Note Name: A#4, Velocity: 56
Note OFF: Time 29880, Note Name: A#4
Note ON: Time 29880, Note Name: D#4, Velocity: 50
Note OFF: Time 30600, Note Name: D#4
Note ON: Time 30600, Note Name: E4, Velocity: 46
Note OFF: Time 30840, Note Name: E4
Note ON: Time 30840, Note Name: F4, Velocity: 50
Note OFF: Time 31320, Note Name: F4
Note ON: Time 31320, Note Name: A#3, Velocity: 50
Note OFF: Time 31680, Note Name: A#3
Note ON: Time 31680, Note Name: C4, Velocity: 46
Note OFF: Time 31740, Note Name: C4
Note ON: Time 31740, Note Name: C#4, Velocity: 46
Note OFF: Time 31800, Note Name: C#4
Note ON: Time 31800, Note Name: D#4, Velocity: 50
Note OFF: Time 32280, Note Name: D#4
Note ON: Time 32280, Note Name: A3, Velocity: 48
Note OFF: Time 32760, Note Name: A3
Note ON: Time 32760, Note Name: C#4, Velocity: 50
Note OFF: Time 33240, Note Name: C#4
Note ON: Time 33240, Note Name: C4, Velocity: 48
Note OFF: Time 33360, Note Name: C4
Note ON: Time 33360, Note Name: A#3, Velocity: 48
Note OFF: Time 33480, Note Name: A#3
Note ON: Time 33480, Note Name: G#3, Velocity: 48
Note OFF: Time 33600, Note Name: G#3
Note ON: Time 33600, Note Name: G3, Velocity: 48
Note OFF: Time 33720, Note Name: G3
Note ON: Time 33720, Note Name: G3, Velocity: 40
Note ON: Time 33720, Note Name: A#3, Velocity: 50
Note OFF: Time 34200, Note Name: A#3
Note OFF: Time 34200, Note Name: G3
Note ON: Time 34200, Note Name: G#3, Velocity: 50
Note OFF: Time 34440, Note Name: G#3
Note ON: Time 34440, Note Name: D#4, Velocity: 47
Note OFF: Time 34680, Note Name: D#4
Note ON: Time 34680, Note Name: G#4, Velocity: 50
Note OFF: Time 34920, Note Name: G#4
Note ON: Time 34920, Note Name: B4, Velocity: 47
Note OFF: Time 35160, Note Name: B4
Note ON: Time 35160, Note Name: A#4, Velocity: 47
Note OFF: Time 35400, Note Name: A#4
Note ON: Time 35400, Note Name: G#4, Velocity: 46
Note OFF: Time 35640, Note Name: G#4
Note ON: Time 35640, Note Name: G4, Velocity: 51
Note OFF: Time 35880, Note Name: G4
Note ON: Time 35880, Note Name: C#5, Velocity: 47
Note OFF: Time 36120, Note Name: C#5
Note ON: Time 36600, Note Name: G#4, Velocity: 50
Note OFF: Time 36840, Note Name: G#4
Note ON: Time 36840, Note Name: B4, Velocity: 47
Note OFF: Time 37080, Note Name: B4
Note ON: Time 37080, Note Name: A#4, Velocity: 47
Note OFF: Time 37320, Note Name: A#4
Note ON: Time 37320, Note Name: G#4, Velocity: 46
Note OFF: Time 37560, Note Name: G#4
Note ON: Time 37560, Note Name: G#4, Velocity: 51
Note OFF: Time 37800, Note Name: G#4
Note ON: Time 37800, Note Name: G4, Velocity: 47
Note OFF: Time 38040, Note Name: G4
Note ON: Time 38520, Note Name: G#4, Velocity: 55
Note OFF: Time 38760, Note Name: G#4
Note ON: Time 38760, Note Name: B4, Velocity: 56
Note OFF: Time 39000, Note Name: B4
Note ON: Time 39000, Note Name: A#4, Velocity: 61
Note OFF: Time 39240, Note Name: A#4
Note ON: Time 39240, Note Name: G#4, Velocity: 65
Note OFF: Time 39480, Note Name: G#4
Note ON: Time 39480, Note Name: F#4, Velocity: 73
Note ON: Time 39480, Note Name: F#5, Velocity: 86
Note OFF: Time 39720, Note Name: F#4
Note OFF: Time 39800, Note Name: F#5
Note ON: Time 39800, Note Name: D#5, Velocity: 85
Note OFF: Time 39880, Note Name: D#5
Note ON: Time 39880, Note Name: B4, Velocity: 85
Note OFF: Time 39960, Note Name: B4
Note ON: Time 39960, Note Name: B4, Velocity: 81
Note ON: Time 39960, Note Name: B5, Velocity: 96
Note OFF: Time 40200, Note Name: B4
Note OFF: Time 40280, Note Name: B5
Note ON: Time 40280, Note Name: G#5, Velocity: 93
Note OFF: Time 40360, Note Name: G#5
Note ON: Time 40360, Note Name: E5, Velocity: 93
Note OFF: Time 40440, Note Name: E5
Note ON: Time 40440, Note Name: E5, Velocity: 88
Note ON: Time 40440, Note Name: E6, Velocity: 104
Note OFF: Time 40680, Note Name: E5
Note OFF: Time 40760, Note Name: E6
Note ON: Time 40760, Note Name: C#6, Velocity: 92
Note OFF: Time 40840, Note Name: C#6
Note ON: Time 40840, Note Name: A#5, Velocity: 92
Note OFF: Time 40920, Note Name: A#5
Note ON: Time 40920, Note Name: B4, Velocity: 81
Note ON: Time 40920, Note Name: B5, Velocity: 96
Note OFF: Time 41040, Note Name: B5
Note OFF: Time 41040, Note Name: B4
Note ON: Time 41160, Note Name: F#3, Velocity: 73
Note ON: Time 41160, Note Name: A3, Velocity: 73
Note ON: Time 41160, Note Name: B3, Velocity: 86
Note ON: Time 41160, Note Name: D#4, Velocity: 86
Note OFF: Time 41280, Note Name: D#4
Note OFF: Time 41280, Note Name: F#3
Note OFF: Time 41280, Note Name: A3
Note OFF: Time 41280, Note Name: B3
Note ON: Time 41400, Note Name: E4, Velocity: 86
Note OFF: Time 41520, Note Name: E4
Note ON: Time 42360, Note Name: E4, Velocity: 50
Note OFF: Time 42600, Note Name: E4
Note ON: Time 42600, Note Name: G#4, Velocity: 47
Note OFF: Time 42840, Note Name: G#4
Note ON: Time 42840, Note Name: F#4, Velocity: 47
Note OFF: Time 43080, Note Name: F#4
Note ON: Time 43080, Note Name: E4, Velocity: 46
Note OFF: Time 43320, Note Name: E4
Note ON: Time 43320, Note Name: D#4, Velocity: 51
Note OFF: Time 43560, Note Name: D#4
Note ON: Time 43560, Note Name: A4, Velocity: 47
Note OFF: Time 43800, Note Name: A4
Note ON: Time 44280, Note Name: E4, Velocity: 50
Note OFF: Time 44520, Note Name: E4
Note ON: Time 44520, Note Name: G#4, Velocity: 47
Note OFF: Time 44760, Note Name: G#4
Note ON: Time 44760, Note Name: E4, Velocity: 47
Note OFF: Time 45000, Note Name: E4
Note ON: Time 45000, Note Name: D#4, Velocity: 46
Note OFF: Time 45240, Note Name: D#4
Note ON: Time 45240, Note Name: D4, Velocity: 54
Note OFF: Time 45960, Note Name: D4
Note ON: Time 45960, Note Name: D4, Velocity: 51
Note OFF: Time 46200, Note Name: D4
Note ON: Time 46200, Note Name: D4, Velocity: 56
Note OFF: Time 46920, Note Name: D4
Note ON: Time 46920, Note Name: D4, Velocity: 53
Note OFF: Time 47160, Note Name: D4
Note ON: Time 47160, Note Name: C#4, Velocity: 59
Note OFF: Time 47880, Note Name: C#4
Note ON: Time 47880, Note Name: C#4, Velocity: 72
Note OFF: Time 48120, Note Name: C#4
Note ON: Time 48120, Note Name: C4, Velocity: 50
Note OFF: Time 48600, Note Name: C4
Note ON: Time 48600, Note Name: A#3, Velocity: 46
Note OFF: Time 49080, Note Name: A#3
Note ON: Time 49080, Note Name: D#4, Velocity: 50
Note OFF: Time 49800, Note Name: D#4
Note ON: Time 49800, Note Name: C#4, Velocity: 48
Note OFF: Time 50040, Note Name: C#4
Note ON: Time 50040, Note Name: C4, Velocity: 47
Note OFF: Time 50280, Note Name: C4
Note ON: Time 50280, Note Name: D#4, Velocity: 49
Note OFF: Time 50520, Note Name: D#4
Note ON: Time 50520, Note Name: G#4, Velocity: 51
Note OFF: Time 50760, Note Name: G#4
Note ON: Time 50760, Note Name: A#4, Velocity: 56
Note OFF: Time 51000, Note Name: A#4
Note ON: Time 51000, Note Name: D#4, Velocity: 50
Note OFF: Time 51720, Note Name: D#4
Note ON: Time 51720, Note Name: E4, Velocity: 46
Note OFF: Time 51960, Note Name: E4
Note ON: Time 51960, Note Name: F4, Velocity: 50
Note OFF: Time 52440, Note Name: F4
Note ON: Time 52440, Note Name: A#3, Velocity: 50
Note OFF: Time 52800, Note Name: A#3
Note ON: Time 52800, Note Name: C4, Velocity: 46
Note OFF: Time 52860, Note Name: C4
Note ON: Time 52860, Note Name: C#4, Velocity: 46
Note OFF: Time 52920, Note Name: C#4
Note ON: Time 52920, Note Name: D#4, Velocity: 50
Note OFF: Time 53400, Note Name: D#4
Note ON: Time 53400, Note Name: A3, Velocity: 48
Note OFF: Time 53880, Note Name: A3
Note ON: Time 53880, Note Name: C#4, Velocity: 50
Note OFF: Time 54360, Note Name: C#4
Note ON: Time 54360, Note Name: C#4, Velocity: 52
Note OFF: Time 54440, Note Name: C#4
Note ON: Time 54440, Note Name: C4, Velocity: 46
Note OFF: Time 54520, Note Name: C4
Note ON: Time 54520, Note Name: A#3, Velocity: 46
Note OFF: Time 54600, Note Name: A#3
Note ON: Time 54600, Note Name: A#3, Velocity: 51
Note OFF: Time 54680, Note Name: A#3
Note ON: Time 54680, Note Name: G#3, Velocity: 47
Note OFF: Time 54760, Note Name: G#3
Note ON: Time 54760, Note Name: G3, Velocity: 47
Note OFF: Time 54840, Note Name: G3
Note ON: Time 54840, Note Name: G3, Velocity: 40
Note ON: Time 54840, Note Name: A#3, Velocity: 50
Note OFF: Time 55320, Note Name: A#3
Note OFF: Time 55320, Note Name: G3
Note ON: Time 55320, Note Name: G#3, Velocity: 50
Note OFF: Time 55560, Note Name: G#3
Note ON: Time 55560, Note Name: C4, Velocity: 36
Note OFF: Time 55620, Note Name: C4
Note ON: Time 55640, Note Name: D#4, Velocity: 35
Note OFF: Time 55700, Note Name: D#4
Note ON: Time 55720, Note Name: G#4, Velocity: 35
Note OFF: Time 55780, Note Name: G#4
Note ON: Time 55800, Note Name: C5, Velocity: 50
Note OFF: Time 56280, Note Name: C5
Note ON: Time 56280, Note Name: A#4, Velocity: 46
Note OFF: Time 56760, Note Name: A#4
Note ON: Time 56760, Note Name: D#5, Velocity: 50
Note OFF: Time 57480, Note Name: D#5
Note ON: Time 57480, Note Name: C#5, Velocity: 48
Note OFF: Time 57720, Note Name: C#5
Note ON: Time 57720, Note Name: C5, Velocity: 47
Note OFF: Time 57960, Note Name: C5
Note ON: Time 57960, Note Name: D#5, Velocity: 49
Note OFF: Time 58200, Note Name: D#5
Note ON: Time 58200, Note Name: G#5, Velocity: 51
Note OFF: Time 58440, Note Name: G#5
Note ON: Time 58440, Note Name: A#5, Velocity: 56
Note OFF: Time 58680, Note Name: A#5
Note ON: Time 58680, Note Name: D#5, Velocity: 50
Note OFF: Time 59400, Note Name: D#5
Note ON: Time 59400, Note Name: E5, Velocity: 55
Note OFF: Time 59640, Note Name: E5
Note ON: Time 59640, Note Name: F5, Velocity: 59
Note OFF: Time 60120, Note Name: F5
Note ON: Time 60120, Note Name: A#4, Velocity: 57
Note OFF: Time 60480, Note Name: A#4
Note ON: Time 60480, Note Name: C5, Velocity: 56
Note OFF: Time 60540, Note Name: C5
Note ON: Time 60540, Note Name: C#5, Velocity: 58
Note OFF: Time 60600, Note Name: C#5
Note ON: Time 60600, Note Name: D#5, Velocity: 60
Note OFF: Time 61080, Note Name: D#5
Note ON: Time 61080, Note Name: A4, Velocity: 48
Note OFF: Time 61560, Note Name: A4
Note ON: Time 61560, Note Name: C#5, Velocity: 50
Note OFF: Time 62040, Note Name: C#5
Note ON: Time 62040, Note Name: C#5, Velocity: 48
Note OFF: Time 62120, Note Name: C#5
Note ON: Time 62120, Note Name: C5, Velocity: 47
Note OFF: Time 62200, Note Name: C5
Note ON: Time 62200, Note Name: A#4, Velocity: 47
Note OFF: Time 62260, Note Name: A#4
Note ON: Time 62280, Note Name: A#4, Velocity: 48
Note OFF: Time 62360, Note Name: A#4
Note ON: Time 62360, Note Name: G#4, Velocity: 46
Note OFF: Time 62440, Note Name: G#4
Note ON: Time 62440, Note Name: G4, Velocity: 46
Note OFF: Time 62520, Note Name: G4
Note ON: Time 62520, Note Name: C4, Velocity: 52
Note ON: Time 62520, Note Name: G#4, Velocity: 52
Note OFF: Time 62760, Note Name: G#4
Note OFF: Time 62760, Note Name: C4
Note ON: Time 63240, Note Name: D#5, Velocity: 50
Note OFF: Time 63420, Note Name: D#5
Note ON: Time 63420, Note Name: E5, Velocity: 50
Note OFF: Time 63480, Note Name: E5
Note ON: Time 63480, Note Name: F5, Velocity: 55
Note OFF: Time 63800, Note Name: F5
Note ON: Time 63800, Note Name: D#5, Velocity: 51
Note OFF: Time 63880, Note Name: D#5
Note ON: Time 63880, Note Name: C#5, Velocity: 51
Note OFF: Time 63960, Note Name: C#5
Note ON: Time 63960, Note Name: C5, Velocity: 52
Note OFF: Time 64040, Note Name: C5
Note ON: Time 64040, Note Name: A#4, Velocity: 53
Note OFF: Time 64120, Note Name: A#4
Note ON: Time 64120, Note Name: G#4, Velocity: 54
Note OFF: Time 64200, Note Name: G#4
Note ON: Time 64200, Note Name: G4, Velocity: 58
Note OFF: Time 64260, Note Name: G4
Note ON: Time 64260, Note Name: C#5, Velocity: 53
Note OFF: Time 64320, Note Name: C#5
Note ON: Time 64320, Note Name: A#4, Velocity: 51
Note OFF: Time 64380, Note Name: A#4
Note ON: Time 64380, Note Name: G4, Velocity: 50
Note OFF: Time 64440, Note Name: G4
Note ON: Time 64440, Note Name: G#4, Velocity: 52
Note OFF: Time 64520, Note Name: G#4
Note ON: Time 64520, Note Name: A#4, Velocity: 45
Note OFF: Time 64546, Note Name: A#4
Note ON: Time 64546, Note Name: G#4, Velocity: 39
Note OFF: Time 64572, Note Name: G#4
Note ON: Time 64572, Note Name: G4, Velocity: 39
Note OFF: Time 64598, Note Name: G4
Note ON: Time 64600, Note Name: G#4, Velocity: 44
Note OFF: Time 64660, Note Name: G#4
Note ON: Time 64660, Note Name: C5, Velocity: 46
Note OFF: Time 64680, Note Name: C5
Note ON: Time 64680, Note Name: D#4, Velocity: 46
Note OFF: Time 64920, Note Name: D#4
Note ON: Time 65160, Note Name: D#6, Velocity: 50
Note ON: Time 65160, Note Name: D#5, Velocity: 42
Note OFF: Time 65340, Note Name: D#5
Note OFF: Time 65340, Note Name: D#6
Note ON: Time 65340, Note Name: E6, Velocity: 50
Note ON: Time 65340, Note Name: E5, Velocity: 42
Note OFF: Time 65400, Note Name: E5
Note OFF: Time 65400, Note Name: E6
Note ON: Time 65400, Note Name: F6, Velocity: 55
Note ON: Time 65400, Note Name: F5, Velocity: 46
Note OFF: Time 65720, Note Name: F5
Note OFF: Time 65720, Note Name: F6
Note ON: Time 65720, Note Name: D#6, Velocity: 51
Note ON: Time 65720, Note Name: D#5, Velocity: 43
Note OFF: Time 65800, Note Name: D#5
Note OFF: Time 65800, Note Name: D#6
Note ON: Time 65800, Note Name: C#6, Velocity: 53
Note ON: Time 65800, Note Name: C#5, Velocity: 45
Note OFF: Time 65880, Note Name: C#5
Note OFF: Time 65880, Note Name: C#6
Note ON: Time 65880, Note Name: C6, Velocity: 53
Note ON: Time 65880, Note Name: C5, Velocity: 45
Note OFF: Time 65960, Note Name: C5
Note OFF: Time 65960, Note Name: C6
Note ON: Time 65960, Note Name: A#5, Velocity: 52
Note ON: Time 65960, Note Name: A#4, Velocity: 44
Note OFF: Time 66040, Note Name: A#4
Note OFF: Time 66040, Note Name: A#5
Note ON: Time 66040, Note Name: G#5, Velocity: 50
Note ON: Time 66040, Note Name: G#4, Velocity: 42
Note OFF: Time 66120, Note Name: G#4
Note OFF: Time 66120, Note Name: G#5
Note ON: Time 66120, Note Name: G4, Velocity: 43
Note ON: Time 66120, Note Name: G5, Velocity: 51
Note OFF: Time 66200, Note Name: G5
Note OFF: Time 66200, Note Name: G4
Note ON: Time 66200, Note Name: C#5, Velocity: 42
Note ON: Time 66200, Note Name: C#6, Velocity: 50
Note OFF: Time 66280, Note Name: C#6
Note OFF: Time 66280, Note Name: C#5
Note ON: Time 66280, Note Name: G4, Velocity: 44
Note ON: Time 66280, Note Name: G5, Velocity: 52
Note OFF: Time 66360, Note Name: G5
Note OFF: Time 66360, Note Name: G4
Note ON: Time 66360, Note Name: G#5, Velocity: 52
Note ON: Time 66360, Note Name: G#4, Velocity: 44
Note OFF: Time 66600, Note Name: G#4
Note OFF: Time 66600, Note Name: G#5
Note ON: Time 66810, Note Name: D#5, Velocity: 52
Note OFF: Time 66840, Note Name: D#5
Note ON: Time 66840, Note Name: C#5, Velocity: 63
Note OFF: Time 66920, Note Name: C#5
Note ON: Time 66920, Note Name: C5, Velocity: 55
Note OFF: Time 67000, Note Name: C5
Note ON: Time 67000, Note Name: C#5, Velocity: 55
Note OFF: Time 67080, Note Name: C#5
Note ON: Time 67080, Note Name: F5, Velocity: 58
Note OFF: Time 67160, Note Name: F5
Note ON: Time 67160, Note Name: D#5, Velocity: 55
Note OFF: Time 67240, Note Name: D#5
Note ON: Time 67240, Note Name: C#5, Velocity: 54
Note OFF: Time 67320, Note Name: C#5
Note ON: Time 67320, Note Name: C5, Velocity: 52
Note OFF: Time 67560, Note Name: C5
Note ON: Time 67770, Note Name: C5, Velocity: 54
Note OFF: Time 67800, Note Name: C5
Note ON: Time 67800, Note Name: G4, Velocity: 47
Note ON: Time 67800, Note Name: A#4, Velocity: 64
Note OFF: Time 67880, Note Name: A#4
Note ON: Time 67880, Note Name: A4, Velocity: 52
Note OFF: Time 67960, Note Name: A4
Note ON: Time 67960, Note Name: A#4, Velocity: 52
Note OFF: Time 68040, Note Name: A#4
Note ON: Time 68040, Note Name: C#5, Velocity: 54
Note OFF: Time 68120, Note Name: C#5
Note ON: Time 68120, Note Name: C5, Velocity: 52
Note OFF: Time 68200, Note Name: C5
Note ON: Time 68200, Note Name: A#4, Velocity: 52
Note OFF: Time 68280, Note Name: A#4
Note OFF: Time 68280, Note Name: G4
Note ON: Time 68280, Note Name: G#4, Velocity: 46
Note OFF: Time 68520, Note Name: G#4
Note ON: Time 68730, Note Name: C4, Velocity: 54
Note OFF: Time 68760, Note Name: C4
Note ON: Time 68760, Note Name: A#3, Velocity: 64
Note OFF: Time 68840, Note Name: A#3
Note ON: Time 68840, Note Name: A3, Velocity: 48
Note OFF: Time 68920, Note Name: A3
Note ON: Time 68920, Note Name: A#3, Velocity: 48
Note OFF: Time 69000, Note Name: A#3
Note ON: Time 69000, Note Name: C#4, Velocity: 50
Note OFF: Time 69080, Note Name: C#4
Note ON: Time 69080, Note Name: C4, Velocity: 47
Note OFF: Time 69160, Note Name: C4
Note ON: Time 69160, Note Name: A#3, Velocity: 44
Note OFF: Time 69240, Note Name: A#3
Note ON: Time 69240, Note Name: G#3, Velocity: 35
Note OFF: Time 69360, Note Name: G#3
Note ON: Time 69480, Note Name: C3, Velocity: 28
Note ON: Time 69480, Note Name: D#3, Velocity: 28
Note ON: Time 69480, Note Name: G#3, Velocity: 35
Note OFF: Time 69600, Note Name: G#3
Note OFF: Time 69600, Note Name: D#3
Note OFF: Time 69600, Note Name: C3
Note ON: Time 69720, Note Name: G#2, Velocity: 28
Note ON: Time 69720, Note Name: C3, Velocity: 28
Note ON: Time 69720, Note Name: G#3, Velocity: 35
Note OFF: Time 70200, Note Name: G#3
Note OFF: Time 70200, Note Name: C3
Note OFF: Time 70200, Note Name: G#2
Track 2: Accompaniment right
Note ON: Time 7680, Note Name: C4, Velocity: 28
Note OFF: Time 7800, Note Name: C4
Note ON: Time 7800, Note Name: D#4, Velocity: 24
Note OFF: Time 7920, Note Name: D#4
Note ON: Time 7920, Note Name: C4, Velocity: 26
Note OFF: Time 8040, Note Name: C4
Note ON: Time 8040, Note Name: D#4, Velocity: 23
Note OFF: Time 8160, Note Name: D#4
Note ON: Time 8160, Note Name: A#3, Velocity: 28
Note OFF: Time 8280, Note Name: A#3
Note ON: Time 8280, Note Name: D#4, Velocity: 24
Note OFF: Time 8400, Note Name: D#4
Note ON: Time 8400, Note Name: A#3, Velocity: 26
Note OFF: Time 8520, Note Name: A#3
Note ON: Time 8520, Note Name: D#4, Velocity: 24
Note OFF: Time 8640, Note Name: D#4
Note ON: Time 8640, Note Name: D#4, Velocity: 28
Note OFF: Time 8760, Note Name: D#4
Note ON: Time 8760, Note Name: G#4, Velocity: 25
Note OFF: Time 8880, Note Name: G#4
Note ON: Time 8880, Note Name: D#4, Velocity: 25
Note OFF: Time 9000, Note Name: D#4
Note ON: Time 9000, Note Name: G#4, Velocity: 25
Note OFF: Time 9120, Note Name: G#4
Note ON: Time 9120, Note Name: D#4, Velocity: 28
Note OFF: Time 9240, Note Name: D#4
Note ON: Time 9240, Note Name: A#4, Velocity: 25
Note OFF: Time 9360, Note Name: A#4
Note ON: Time 9360, Note Name: D#4, Velocity: 25
Note OFF: Time 9480, Note Name: D#4
Note ON: Time 9480, Note Name: A#4, Velocity: 25
Note OFF: Time 9600, Note Name: A#4
Note ON: Time 9600, Note Name: D#4, Velocity: 31
Note OFF: Time 9720, Note Name: D#4
Note ON: Time 9720, Note Name: G#4, Velocity: 31
Note OFF: Time 9840, Note Name: G#4
Note ON: Time 9840, Note Name: D#4, Velocity: 32
Note OFF: Time 9960, Note Name: D#4
Note ON: Time 9960, Note Name: A#4, Velocity: 33
Note OFF: Time 10080, Note Name: A#4
Note ON: Time 10080, Note Name: G#4, Velocity: 33
Note OFF: Time 10200, Note Name: G#4
Note ON: Time 10200, Note Name: C5, Velocity: 34
Note OFF: Time 10320, Note Name: C5
Note ON: Time 10320, Note Name: G#4, Velocity: 35
Note OFF: Time 10440, Note Name: G#4
Note ON: Time 10440, Note Name: D5, Velocity: 35
Note OFF: Time 10560, Note Name: D5
Note ON: Time 10560, Note Name: G4, Velocity: 33
Note OFF: Time 10680, Note Name: G4
Note ON: Time 10680, Note Name: A#4, Velocity: 25
Note OFF: Time 10800, Note Name: A#4
Note ON: Time 10800, Note Name: G4, Velocity: 25
Note OFF: Time 10920, Note Name: G4
Note ON: Time 10920, Note Name: A#4, Velocity: 25
Note OFF: Time 11040, Note Name: A#4
Note ON: Time 11040, Note Name: G4, Velocity: 29
Note OFF: Time 11160, Note Name: G4
Note ON: Time 11160, Note Name: A#4, Velocity: 30
Note OFF: Time 11280, Note Name: A#4
Note ON: Time 11280, Note Name: G4, Velocity: 33
Note OFF: Time 11400, Note Name: G4
Note ON: Time 11400, Note Name: A#4, Velocity: 34
Note OFF: Time 11520, Note Name: A#4
Note ON: Time 11520, Note Name: G4, Velocity: 30
Note OFF: Time 11640, Note Name: G4
Note ON: Time 11640, Note Name: A#4, Velocity: 24
Note OFF: Time 11760, Note Name: A#4
Note ON: Time 11760, Note Name: G4, Velocity: 26
Note OFF: Time 11880, Note Name: G4
Note ON: Time 11880, Note Name: A#4, Velocity: 23
Note OFF: Time 11998, Note Name: A#4
Note ON: Time 12000, Note Name: G4, Velocity: 28
Note OFF: Time 12120, Note Name: G4
Note ON: Time 12120, Note Name: D#4, Velocity: 24
Note OFF: Time 12240, Note Name: D#4
Note ON: Time 12240, Note Name: G4, Velocity: 24
Note OFF: Time 12360, Note Name: G4
Note ON: Time 12360, Note Name: D#4, Velocity: 24
Note OFF: Time 12480, Note Name: D#4
Note ON: Time 12480, Note Name: G#4, Velocity: 30
Note OFF: Time 12600, Note Name: G#4
Note ON: Time 12600, Note Name: D#4, Velocity: 27
Note OFF: Time 12720, Note Name: D#4
Note ON: Time 12720, Note Name: G#4, Velocity: 27
Note OFF: Time 12840, Note Name: G#4
Note ON: Time 12840, Note Name: D#4, Velocity: 25
Note OFF: Time 12930, Note Name: D#4
Note ON: Time 12960, Note Name: D#4, Velocity: 28
Note OFF: Time 13080, Note Name: D#4
Note ON: Time 13080, Note Name: C4, Velocity: 24
Note OFF: Time 13200, Note Name: C4
Note ON: Time 13200, Note Name: D#4, Velocity: 26
Note OFF: Time 13320, Note Name: D#4
Note ON: Time 13320, Note Name: C4, Velocity: 24
Note OFF: Time 13440, Note Name: C4
Note ON: Time 13440, Note Name: F4, Velocity: 29
Note OFF: Time 13560, Note Name: F4
Note ON: Time 13560, Note Name: C#4, Velocity: 25
Note OFF: Time 13680, Note Name: C#4
Note ON: Time 13680, Note Name: F4, Velocity: 27
Note OFF: Time 13800, Note Name: F4
Note ON: Time 13800, Note Name: C#4, Velocity: 24
Note OFF: Time 13890, Note Name: C#4
Note ON: Time 13920, Note Name: C#4, Velocity: 30
Note OFF: Time 14010, Note Name: C#4
Note ON: Time 14040, Note Name: C#4, Velocity: 26
Note OFF: Time 14130, Note Name: C#4
Note ON: Time 14160, Note Name: C#4, Velocity: 28
Note OFF: Time 14250, Note Name: C#4
Note ON: Time 14280, Note Name: C#4, Velocity: 26
Note OFF: Time 14370, Note Name: C#4
Note ON: Time 14400, Note Name: C#4, Velocity: 30
Note OFF: Time 14520, Note Name: C#4
Note ON: Time 14520, Note Name: D#4, Velocity: 26
Note OFF: Time 14640, Note Name: D#4
Note ON: Time 14640, Note Name: C#4, Velocity: 28
Note OFF: Time 14760, Note Name: C#4
Note ON: Time 14760, Note Name: D#4, Velocity: 24
Note OFF: Time 14880, Note Name: D#4
Note ON: Time 14880, Note Name: C4, Velocity: 36
Note OFF: Time 15120, Note Name: C4
Note ON: Time 34680, Note Name: B3, Velocity: 24
Note ON: Time 34680, Note Name: D#4, Velocity: 29
Note OFF: Time 34740, Note Name: D#4
Note OFF: Time 34740, Note Name: B3
Note ON: Time 34760, Note Name: B3, Velocity: 24
Note ON: Time 34760, Note Name: D#4, Velocity: 29
Note OFF: Time 34820, Note Name: D#4
Note OFF: Time 34820, Note Name: B3
Note ON: Time 34840, Note Name: B3, Velocity: 24
Note ON: Time 34840, Note Name: D#4, Velocity: 29
Note OFF: Time 34900, Note Name: D#4
Note OFF: Time 34900, Note Name: B3
Note ON: Time 34920, Note Name: B3, Velocity: 24
Note ON: Time 34920, Note Name: D#4, Velocity: 29
Note OFF: Time 34980, Note Name: D#4
Note OFF: Time 34980, Note Name: B3
Note ON: Time 35000, Note Name: B3, Velocity: 25
Note ON: Time 35000, Note Name: D#4, Velocity: 30
Note OFF: Time 35060, Note Name: D#4
Note OFF: Time 35060, Note Name: B3
Note ON: Time 35080, Note Name: B3, Velocity: 25
Note ON: Time 35080, Note Name: D#4, Velocity: 30
Note OFF: Time 35140, Note Name: D#4
Note OFF: Time 35140, Note Name: B3
Note ON: Time 35160, Note Name: B3, Velocity: 25
Note ON: Time 35160, Note Name: D#4, Velocity: 30
Note OFF: Time 35220, Note Name: D#4
Note OFF: Time 35220, Note Name: B3
Note ON: Time 35240, Note Name: B3, Velocity: 25
Note ON: Time 35240, Note Name: D#4, Velocity: 30
Note OFF: Time 35300, Note Name: D#4
Note OFF: Time 35300, Note Name: B3
Note ON: Time 35320, Note Name: B3, Velocity: 25
Note ON: Time 35320, Note Name: D#4, Velocity: 30
Note OFF: Time 35380, Note Name: D#4
Note OFF: Time 35380, Note Name: B3
Note ON: Time 35400, Note Name: B3, Velocity: 25
Note ON: Time 35400, Note Name: D#4, Velocity: 30
Note OFF: Time 35460, Note Name: D#4
Note OFF: Time 35460, Note Name: B3
Note ON: Time 35480, Note Name: B3, Velocity: 25
Note ON: Time 35480, Note Name: D#4, Velocity: 30
Note OFF: Time 35540, Note Name: D#4
Note OFF: Time 35540, Note Name: B3
Note ON: Time 35560, Note Name: B3, Velocity: 25
Note ON: Time 35560, Note Name: D#4, Velocity: 30
Note OFF: Time 35620, Note Name: D#4
Note OFF: Time 35620, Note Name: B3
Note ON: Time 35640, Note Name: C#4, Velocity: 25
Note ON: Time 35640, Note Name: D#4, Velocity: 30
Note OFF: Time 35700, Note Name: D#4
Note OFF: Time 35700, Note Name: C#4
Note ON: Time 35720, Note Name: C#4, Velocity: 25
Note ON: Time 35720, Note Name: D#4, Velocity: 30
Note OFF: Time 35780, Note Name: D#4
Note OFF: Time 35780, Note Name: C#4
Note ON: Time 35800, Note Name: C#4, Velocity: 25
Note ON: Time 35800, Note Name: D#4, Velocity: 30
Note OFF: Time 35860, Note Name: D#4
Note OFF: Time 35860, Note Name: C#4
Note ON: Time 35880, Note Name: C#4, Velocity: 25
Note ON: Time 35880, Note Name: D#4, Velocity: 30
Note OFF: Time 35940, Note Name: D#4
Note OFF: Time 35940, Note Name: C#4
Note ON: Time 35960, Note Name: C#4, Velocity: 25
Note ON: Time 35960, Note Name: D#4, Velocity: 30
Note OFF: Time 36020, Note Name: D#4
Note OFF: Time 36020, Note Name: C#4
Note ON: Time 36040, Note Name: C#4, Velocity: 25
Note ON: Time 36040, Note Name: D#4, Velocity: 30
Note OFF: Time 36100, Note Name: D#4
Note OFF: Time 36100, Note Name: C#4
Note ON: Time 36120, Note Name: C#4, Velocity: 25
Note ON: Time 36120, Note Name: D#4, Velocity: 30
Note OFF: Time 36180, Note Name: D#4
Note OFF: Time 36180, Note Name: C#4
Note ON: Time 36200, Note Name: C#4, Velocity: 25
Note ON: Time 36200, Note Name: D#4, Velocity: 30
Note OFF: Time 36260, Note Name: D#4
Note OFF: Time 36260, Note Name: C#4
Note ON: Time 36280, Note Name: C#4, Velocity: 25
Note ON: Time 36280, Note Name: D#4, Velocity: 30
Note OFF: Time 36340, Note Name: D#4
Note OFF: Time 36340, Note Name: C#4
Note ON: Time 36360, Note Name: C#4, Velocity: 25
Note ON: Time 36360, Note Name: D#4, Velocity: 30
Note OFF: Time 36420, Note Name: D#4
Note OFF: Time 36420, Note Name: C#4
Note ON: Time 36440, Note Name: C#4, Velocity: 25
Note ON: Time 36440, Note Name: D#4, Velocity: 30
Note OFF: Time 36500, Note Name: D#4
Note OFF: Time 36500, Note Name: C#4
Note ON: Time 36520, Note Name: C#4, Velocity: 25
Note ON: Time 36520, Note Name: D#4, Velocity: 30
Note OFF: Time 36580, Note Name: D#4
Note OFF: Time 36580, Note Name: C#4
Note ON: Time 36600, Note Name: B3, Velocity: 24
Note ON: Time 36600, Note Name: D#4, Velocity: 29
Note OFF: Time 36660, Note Name: D#4
Note OFF: Time 36660, Note Name: B3
Note ON: Time 36680, Note Name: B3, Velocity: 24
Note ON: Time 36680, Note Name: D#4, Velocity: 29
Note OFF: Time 36740, Note Name: D#4
Note OFF: Time 36740, Note Name: B3
Note ON: Time 36760, Note Name: B3, Velocity: 24
Note ON: Time 36760, Note Name: D#4, Velocity: 29
Note OFF: Time 36820, Note Name: D#4
Note OFF: Time 36820, Note Name: B3
Note ON: Time 36840, Note Name: B3, Velocity: 24
Note ON: Time 36840, Note Name: D#4, Velocity: 29
Note OFF: Time 36900, Note Name: D#4
Note OFF: Time 36900, Note Name: B3
Note ON: Time 36920, Note Name: B3, Velocity: 25
Note ON: Time 36920, Note Name: D#4, Velocity: 30
Note OFF: Time 36980, Note Name: D#4
Note OFF: Time 36980, Note Name: B3
Note ON: Time 37000, Note Name: B3, Velocity: 25
Note ON: Time 37000, Note Name: D#4, Velocity: 30
Note OFF: Time 37060, Note Name: D#4
Note OFF: Time 37060, Note Name: B3
Note ON: Time 37080, Note Name: B3, Velocity: 25
Note ON: Time 37080, Note Name: D#4, Velocity: 30
Note OFF: Time 37140, Note Name: D#4
Note OFF: Time 37140, Note Name: B3
Note ON: Time 37160, Note Name: B3, Velocity: 25
Note ON: Time 37160, Note Name: D#4, Velocity: 30
Note OFF: Time 37220, Note Name: D#4
Note OFF: Time 37220, Note Name: B3
Note ON: Time 37240, Note Name: B3, Velocity: 25
Note ON: Time 37240, Note Name: D#4, Velocity: 30
Note OFF: Time 37300, Note Name: D#4
Note OFF: Time 37300, Note Name: B3
Note ON: Time 37320, Note Name: B3, Velocity: 25
Note ON: Time 37320, Note Name: D#4, Velocity: 30
Note OFF: Time 37380, Note Name: D#4
Note OFF: Time 37380, Note Name: B3
Note ON: Time 37400, Note Name: B3, Velocity: 25
Note ON: Time 37400, Note Name: D#4, Velocity: 30
Note OFF: Time 37460, Note Name: D#4
Note OFF: Time 37460, Note Name: B3
Note ON: Time 37480, Note Name: B3, Velocity: 25
Note ON: Time 37480, Note Name: D#4, Velocity: 30
Note OFF: Time 37540, Note Name: D#4
Note OFF: Time 37540, Note Name: B3
Note ON: Time 37560, Note Name: A#3, Velocity: 25
Note ON: Time 37560, Note Name: D#4, Velocity: 30
Note OFF: Time 37620, Note Name: D#4
Note OFF: Time 37620, Note Name: A#3
Note ON: Time 37640, Note Name: A#3, Velocity: 25
Note ON: Time 37640, Note Name: D#4, Velocity: 30
Note OFF: Time 37700, Note Name: D#4
Note OFF: Time 37700, Note Name: A#3
Note ON: Time 37720, Note Name: A#3, Velocity: 25
Note ON: Time 37720, Note Name: D#4, Velocity: 30
Note OFF: Time 37780, Note Name: D#4
Note OFF: Time 37780, Note Name: A#3
Note ON: Time 37800, Note Name: A#3, Velocity: 25
Note ON: Time 37800, Note Name: D#4, Velocity: 30
Note OFF: Time 37860, Note Name: D#4
Note OFF: Time 37860, Note Name: A#3
Note ON: Time 37880, Note Name: A#3, Velocity: 25
Note ON: Time 37880, Note Name: D#4, Velocity: 30
Note OFF: Time 37940, Note Name: D#4
Note OFF: Time 37940, Note Name: A#3
Note ON: Time 37960, Note Name: A#3, Velocity: 25
Note ON: Time 37960, Note Name: D#4, Velocity: 30
Note OFF: Time 38020, Note Name: D#4
Note OFF: Time 38020, Note Name: A#3
Note ON: Time 38040, Note Name: G3, Velocity: 25
Note ON: Time 38040, Note Name: A#3, Velocity: 25
Note ON: Time 38040, Note Name: D#4, Velocity: 30
Note OFF: Time 38100, Note Name: D#4
Note OFF: Time 38100, Note Name: A#3
Note OFF: Time 38100, Note Name: G3
Note ON: Time 38120, Note Name: G3, Velocity: 25
Note ON: Time 38120, Note Name: A#3, Velocity: 25
Note ON: Time 38120, Note Name: D#4, Velocity: 30
Note OFF: Time 38180, Note Name: D#4
Note OFF: Time 38180, Note Name: A#3
Note OFF: Time 38180, Note Name: G3
Note ON: Time 38200, Note Name: G3, Velocity: 25
Note ON: Time 38200, Note Name: A#3, Velocity: 25
Note ON: Time 38200, Note Name: D#4, Velocity: 30
Note OFF: Time 38260, Note Name: D#4
Note OFF: Time 38260, Note Name: A#3
Note OFF: Time 38260, Note Name: G3
Note ON: Time 38280, Note Name: G3, Velocity: 25
Note ON: Time 38280, Note Name: A#3, Velocity: 25
Note ON: Time 38280, Note Name: D#4, Velocity: 30
Note OFF: Time 38340, Note Name: D#4
Note OFF: Time 38340, Note Name: A#3
Note OFF: Time 38340, Note Name: G3
Note ON: Time 38360, Note Name: G3, Velocity: 25
Note ON: Time 38360, Note Name: A#3, Velocity: 25
Note ON: Time 38360, Note Name: D#4, Velocity: 30
Note OFF: Time 38420, Note Name: D#4
Note OFF: Time 38420, Note Name: A#3
Note OFF: Time 38420, Note Name: G3
Note ON: Time 38440, Note Name: G3, Velocity: 25
Note ON: Time 38440, Note Name: A#3, Velocity: 25
Note ON: Time 38440, Note Name: D#4, Velocity: 30
Note OFF: Time 38500, Note Name: D#4
Note OFF: Time 38500, Note Name: A#3
Note OFF: Time 38500, Note Name: G3
Note ON: Time 38520, Note Name: B3, Velocity: 26
Note ON: Time 38520, Note Name: D#4, Velocity: 31
Note OFF: Time 38580, Note Name: D#4
Note OFF: Time 38580, Note Name: B3
Note ON: Time 38600, Note Name: B3, Velocity: 26
Note ON: Time 38600, Note Name: D#4, Velocity: 32
Note OFF: Time 38660, Note Name: D#4
Note OFF: Time 38660, Note Name: B3
Note ON: Time 38680, Note Name: B3, Velocity: 27
Note ON: Time 38680, Note Name: D#4, Velocity: 32
Note OFF: Time 38740, Note Name: D#4
Note OFF: Time 38740, Note Name: B3
Note ON: Time 38760, Note Name: B3, Velocity: 28
Note ON: Time 38760, Note Name: D#4, Velocity: 34
Note OFF: Time 38820, Note Name: D#4
Note OFF: Time 38820, Note Name: B3
Note ON: Time 38840, Note Name: B3, Velocity: 30
Note ON: Time 38840, Note Name: D#4, Velocity: 36
Note OFF: Time 38900, Note Name: D#4
Note OFF: Time 38900, Note Name: B3
Note ON: Time 38920, Note Name: B3, Velocity: 31
Note ON: Time 38920, Note Name: D#4, Velocity: 37
Note OFF: Time 38980, Note Name: D#4
Note OFF: Time 38980, Note Name: B3
Note ON: Time 39000, Note Name: B3, Velocity: 33
Note ON: Time 39000, Note Name: D#4, Velocity: 39
Note OFF: Time 39060, Note Name: D#4
Note OFF: Time 39060, Note Name: B3
Note ON: Time 39080, Note Name: B3, Velocity: 33
Note ON: Time 39080, Note Name: D#4, Velocity: 39
Note OFF: Time 39140, Note Name: D#4
Note OFF: Time 39140, Note Name: B3
Note ON: Time 39160, Note Name: B3, Velocity: 33
Note ON: Time 39160, Note Name: D#4, Velocity: 40
Note OFF: Time 39220, Note Name: D#4
Note OFF: Time 39220, Note Name: B3
Note ON: Time 39240, Note Name: B3, Velocity: 35
Note ON: Time 39240, Note Name: D#4, Velocity: 42
Note OFF: Time 39300, Note Name: D#4
Note OFF: Time 39300, Note Name: B3
Note ON: Time 39320, Note Name: B3, Velocity: 35
Note ON: Time 39320, Note Name: D#4, Velocity: 42
Note OFF: Time 39380, Note Name: D#4
Note OFF: Time 39380, Note Name: B3
Note ON: Time 39400, Note Name: B3, Velocity: 37
Note ON: Time 39400, Note Name: D#4, Velocity: 44
Note OFF: Time 39460, Note Name: D#4
Note OFF: Time 39460, Note Name: B3
Note ON: Time 41400, Note Name: G#3, Velocity: 58
Note ON: Time 41400, Note Name: B3, Velocity: 58
Note OFF: Time 41460, Note Name: B3
Note OFF: Time 41460, Note Name: G#3
Note ON: Time 41480, Note Name: G#3, Velocity: 35
Note ON: Time 41480, Note Name: B3, Velocity: 35
Note OFF: Time 41540, Note Name: B3
Note OFF: Time 41540, Note Name: G#3
Note ON: Time 41560, Note Name: G#3, Velocity: 35
Note ON: Time 41560, Note Name: B3, Velocity: 35
Note OFF: Time 41620, Note Name: B3
Note OFF: Time 41620, Note Name: G#3
Note ON: Time 41640, Note Name: G#3, Velocity: 35
Note ON: Time 41640, Note Name: B3, Velocity: 35
Note OFF: Time 41700, Note Name: B3
Note OFF: Time 41700, Note Name: G#3
Note ON: Time 41720, Note Name: G#3, Velocity: 35
Note ON: Time 41720, Note Name: B3, Velocity: 35
Note OFF: Time 41780, Note Name: B3
Note OFF: Time 41780, Note Name: G#3
Note ON: Time 41800, Note Name: G#3, Velocity: 35
Note ON: Time 41800, Note Name: B3, Velocity: 35
Note OFF: Time 41860, Note Name: B3
Note OFF: Time 41860, Note Name: G#3
Note ON: Time 41880, Note Name: G#3, Velocity: 33
Note ON: Time 41880, Note Name: B3, Velocity: 33
Note OFF: Time 41940, Note Name: B3
Note OFF: Time 41940, Note Name: G#3
Note ON: Time 41960, Note Name: G#3, Velocity: 33
Note ON: Time 41960, Note Name: B3, Velocity: 33
Note OFF: Time 42020, Note Name: B3
Note OFF: Time 42020, Note Name: G#3
Note ON: Time 42040, Note Name: G#3, Velocity: 32
Note ON: Time 42040, Note Name: B3, Velocity: 32
Note OFF: Time 42100, Note Name: B3
Note OFF: Time 42100, Note Name: G#3
Note ON: Time 42120, Note Name: G#3, Velocity: 31
Note ON: Time 42120, Note Name: B3, Velocity: 31
Note OFF: Time 42180, Note Name: B3
Note OFF: Time 42180, Note Name: G#3
Note ON: Time 42200, Note Name: G#3, Velocity: 30
Note ON: Time 42200, Note Name: B3, Velocity: 30
Note OFF: Time 42260, Note Name: B3
Note OFF: Time 42260, Note Name: G#3
Note ON: Time 42280, Note Name: G#3, Velocity: 29
Note ON: Time 42280, Note Name: B3, Velocity: 29
Note OFF: Time 42340, Note Name: B3
Note OFF: Time 42340, Note Name: G#3
Note ON: Time 42360, Note Name: G#3, Velocity: 24
Note ON: Time 42360, Note Name: B3, Velocity: 29
Note OFF: Time 42420, Note Name: B3
Note OFF: Time 42420, Note Name: G#3
Note ON: Time 42440, Note Name: G#3, Velocity: 24
Note ON: Time 42440, Note Name: B3, Velocity: 29
Note OFF: Time 42500, Note Name: B3
Note OFF: Time 42500, Note Name: G#3
Note ON: Time 42520, Note Name: G#3, Velocity: 24
Note ON: Time 42520, Note Name: B3, Velocity: 29
Note OFF: Time 42580, Note Name: B3
Note OFF: Time 42580, Note Name: G#3
Note ON: Time 42600, Note Name: G#3, Velocity: 24
Note ON: Time 42600, Note Name: B3, Velocity: 29
Note OFF: Time 42660, Note Name: B3
Note OFF: Time 42660, Note Name: G#3
Note ON: Time 42680, Note Name: G#3, Velocity: 25
Note ON: Time 42680, Note Name: B3, Velocity: 30
Note OFF: Time 42740, Note Name: B3
Note OFF: Time 42740, Note Name: G#3
Note ON: Time 42760, Note Name: G#3, Velocity: 25
Note ON: Time 42760, Note Name: B3, Velocity: 30
Note OFF: Time 42820, Note Name: B3
Note OFF: Time 42820, Note Name: G#3
Note ON: Time 42840, Note Name: G#3, Velocity: 25
Note ON: Time 42840, Note Name: B3, Velocity: 30
Note OFF: Time 42900, Note Name: B3
Note OFF: Time 42900, Note Name: G#3
Note ON: Time 42920, Note Name: G#3, Velocity: 25
Note ON: Time 42920, Note Name: B3, Velocity: 30
Note OFF: Time 42980, Note Name: B3
Note OFF: Time 42980, Note Name: G#3
Note ON: Time 43000, Note Name: G#3, Velocity: 25
Note ON: Time 43000, Note Name: B3, Velocity: 30
Note OFF: Time 43060, Note Name: B3
Note OFF: Time 43060, Note Name: G#3
Note ON: Time 43080, Note Name: G#3, Velocity: 25
Note ON: Time 43080, Note Name: B3, Velocity: 30
Note OFF: Time 43140, Note Name: B3
Note OFF: Time 43140, Note Name: G#3
Note ON: Time 43160, Note Name: G#3, Velocity: 25
Note ON: Time 43160, Note Name: B3, Velocity: 30
Note OFF: Time 43220, Note Name: B3
Note OFF: Time 43220, Note Name: G#3
Note ON: Time 43240, Note Name: G#3, Velocity: 25
Note ON: Time 43240, Note Name: B3, Velocity: 30
Note OFF: Time 43300, Note Name: B3
Note OFF: Time 43300, Note Name: G#3
Note ON: Time 43320, Note Name: A3, Velocity: 25
Note ON: Time 43320, Note Name: B3, Velocity: 30
Note OFF: Time 43380, Note Name: B3
Note OFF: Time 43380, Note Name: A3
Note ON: Time 43400, Note Name: A3, Velocity: 25
Note ON: Time 43400, Note Name: B3, Velocity: 30
Note OFF: Time 43460, Note Name: B3
Note OFF: Time 43460, Note Name: A3
Note ON: Time 43480, Note Name: A3, Velocity: 25
Note ON: Time 43480, Note Name: B3, Velocity: 30
Note OFF: Time 43540, Note Name: B3
Note OFF: Time 43540, Note Name: A3
Note ON: Time 43560, Note Name: A3, Velocity: 25
Note ON: Time 43560, Note Name: B3, Velocity: 30
Note OFF: Time 43620, Note Name: B3
Note OFF: Time 43620, Note Name: A3
Note ON: Time 43640, Note Name: A3, Velocity: 25
Note ON: Time 43640, Note Name: B3, Velocity: 30
Note OFF: Time 43700, Note Name: B3
Note OFF: Time 43700, Note Name: A3
Note ON: Time 43720, Note Name: A3, Velocity: 25
Note ON: Time 43720, Note Name: B3, Velocity: 30
Note OFF: Time 43780, Note Name: B3
Note OFF: Time 43780, Note Name: A3
Note ON: Time 43800, Note Name: A3, Velocity: 25
Note ON: Time 43800, Note Name: B3, Velocity: 30
Note OFF: Time 43860, Note Name: B3
Note OFF: Time 43860, Note Name: A3
Note ON: Time 43880, Note Name: A3, Velocity: 25
Note ON: Time 43880, Note Name: B3, Velocity: 30
Note OFF: Time 43940, Note Name: B3
Note OFF: Time 43940, Note Name: A3
Note ON: Time 43960, Note Name: A3, Velocity: 25
Note ON: Time 43960, Note Name: B3, Velocity: 30
Note OFF: Time 44020, Note Name: B3
Note OFF: Time 44020, Note Name: A3
Note ON: Time 44040, Note Name: A3, Velocity: 25
Note ON: Time 44040, Note Name: B3, Velocity: 30
Note OFF: Time 44100, Note Name: B3
Note OFF: Time 44100, Note Name: A3
Note ON: Time 44120, Note Name: A3, Velocity: 25
Note ON: Time 44120, Note Name: B3, Velocity: 30
Note OFF: Time 44180, Note Name: B3
Note OFF: Time 44180, Note Name: A3
Note ON: Time 44200, Note Name: A3, Velocity: 25
Note ON: Time 44200, Note Name: B3, Velocity: 30
Note OFF: Time 44260, Note Name: B3
Note OFF: Time 44260, Note Name: A3
Note ON: Time 44280, Note Name: G#3, Velocity: 24
Note ON: Time 44280, Note Name: B3, Velocity: 29
Note OFF: Time 44340, Note Name: B3
Note OFF: Time 44340, Note Name: G#3
Note ON: Time 44360, Note Name: G#3, Velocity: 24
Note ON: Time 44360, Note Name: B3, Velocity: 29
Note OFF: Time 44420, Note Name: B3
Note OFF: Time 44420, Note Name: G#3
Note ON: Time 44440, Note Name: G#3, Velocity: 24
Note ON: Time 44440, Note Name: B3, Velocity: 29
Note OFF: Time 44500, Note Name: B3
Note OFF: Time 44500, Note Name: G#3
Note ON: Time 44520, Note Name: G#3, Velocity: 24
Note ON: Time 44520, Note Name: B3, Velocity: 29
Note OFF: Time 44580, Note Name: B3
Note OFF: Time 44580, Note Name: G#3
Note ON: Time 44600, Note Name: G#3, Velocity: 25
Note ON: Time 44600, Note Name: B3, Velocity: 30
Note OFF: Time 44660, Note Name: B3
Note OFF: Time 44660, Note Name: G#3
Note ON: Time 44680, Note Name: G#3, Velocity: 25
Note ON: Time 44680, Note Name: B3, Velocity: 30
Note OFF: Time 44740, Note Name: B3
Note OFF: Time 44740, Note Name: G#3
Note ON: Time 44760, Note Name: G#3, Velocity: 25
Note ON: Time 44760, Note Name: B3, Velocity: 30
Note OFF: Time 44820, Note Name: B3
Note OFF: Time 44820, Note Name: G#3
Note ON: Time 44840, Note Name: G#3, Velocity: 25
Note ON: Time 44840, Note Name: B3, Velocity: 30
Note OFF: Time 44900, Note Name: B3
Note OFF: Time 44900, Note Name: G#3
Note ON: Time 44920, Note Name: G#3, Velocity: 25
Note ON: Time 44920, Note Name: B3, Velocity: 30
Note OFF: Time 44980, Note Name: B3
Note OFF: Time 44980, Note Name: G#3
Note ON: Time 45000, Note Name: G#3, Velocity: 25
Note ON: Time 45000, Note Name: B3, Velocity: 30
Note OFF: Time 45060, Note Name: B3
Note OFF: Time 45060, Note Name: G#3
Note ON: Time 45080, Note Name: G#3, Velocity: 25
Note ON: Time 45080, Note Name: B3, Velocity: 30
Note OFF: Time 45140, Note Name: B3
Note OFF: Time 45140, Note Name: G#3
Note ON: Time 45160, Note Name: G#3, Velocity: 25
Note ON: Time 45160, Note Name: B3, Velocity: 30
Note OFF: Time 45220, Note Name: B3
Note OFF: Time 45220, Note Name: G#3
Note ON: Time 45240, Note Name: D3, Velocity: 24
Note ON: Time 45240, Note Name: G#3, Velocity: 24
Note ON: Time 45240, Note Name: B3, Velocity: 29
Note OFF: Time 45300, Note Name: B3
Note OFF: Time 45300, Note Name: G#3
Note OFF: Time 45300, Note Name: D3
Note ON: Time 45320, Note Name: D3, Velocity: 24
Note ON: Time 45320, Note Name: G#3, Velocity: 24
Note ON: Time 45320, Note Name: B3, Velocity: 29
Note OFF: Time 45380, Note Name: B3
Note OFF: Time 45380, Note Name: G#3
Note OFF: Time 45380, Note Name: D3
Note ON: Time 45400, Note Name: D3, Velocity: 24
Note ON: Time 45400, Note Name: G#3, Velocity: 24
Note ON: Time 45400, Note Name: B3, Velocity: 29
Note OFF: Time 45460, Note Name: B3
Note OFF: Time 45460, Note Name: G#3
Note OFF: Time 45460, Note Name: D3
Note ON: Time 45480, Note Name: D3, Velocity: 24
Note ON: Time 45480, Note Name: G#3, Velocity: 24
Note ON: Time 45480, Note Name: B3, Velocity: 29
Note OFF: Time 45540, Note Name: B3
Note OFF: Time 45540, Note Name: G#3
Note OFF: Time 45540, Note Name: D3
Note ON: Time 45560, Note Name: D3, Velocity: 24
Note ON: Time 45560, Note Name: G#3, Velocity: 25
Note ON: Time 45560, Note Name: B3, Velocity: 30
Note OFF: Time 45620, Note Name: B3
Note OFF: Time 45620, Note Name: G#3
Note OFF: Time 45620, Note Name: D3
Note ON: Time 45640, Note Name: D3, Velocity: 24
Note ON: Time 45640, Note Name: G#3, Velocity: 25
Note ON: Time 45640, Note Name: B3, Velocity: 30
Note OFF: Time 45700, Note Name: B3
Note OFF: Time 45700, Note Name: G#3
Note OFF: Time 45700, Note Name: D3
Note ON: Time 45720, Note Name: D3, Velocity: 24
Note ON: Time 45720, Note Name: G#3, Velocity: 25
Note ON: Time 45720, Note Name: B3, Velocity: 30
Note OFF: Time 45780, Note Name: B3
Note OFF: Time 45780, Note Name: G#3
Note OFF: Time 45780, Note Name: D3
Note ON: Time 45800, Note Name: D3, Velocity: 24
Note ON: Time 45800, Note Name: G#3, Velocity: 25
Note ON: Time 45800, Note Name: B3, Velocity: 30
Note OFF: Time 45860, Note Name: B3
Note OFF: Time 45860, Note Name: G#3
Note OFF: Time 45860, Note Name: D3
Note ON: Time 45880, Note Name: D3, Velocity: 24
Note ON: Time 45880, Note Name: G#3, Velocity: 25
Note ON: Time 45880, Note Name: B3, Velocity: 30
Note OFF: Time 45940, Note Name: B3
Note OFF: Time 45940, Note Name: G#3
Note OFF: Time 45940, Note Name: D3
Note ON: Time 45960, Note Name: D3, Velocity: 24
Note ON: Time 45960, Note Name: G#3, Velocity: 25
Note ON: Time 45960, Note Name: B3, Velocity: 30
Note OFF: Time 46020, Note Name: B3
Note OFF: Time 46020, Note Name: G#3
Note OFF: Time 46020, Note Name: D3
Note ON: Time 46040, Note Name: D3, Velocity: 24
Note ON: Time 46040, Note Name: G#3, Velocity: 25
Note ON: Time 46040, Note Name: B3, Velocity: 30
Note OFF: Time 46100, Note Name: B3
Note OFF: Time 46100, Note Name: G#3
Note OFF: Time 46100, Note Name: D3
Note ON: Time 46120, Note Name: D3, Velocity: 24
Note ON: Time 46120, Note Name: G#3, Velocity: 25
Note ON: Time 46120, Note Name: B3, Velocity: 30
Note OFF: Time 46180, Note Name: B3
Note OFF: Time 46180, Note Name: G#3
Note OFF: Time 46180, Note Name: D3
Note ON: Time 46200, Note Name: D3, Velocity: 25
Note ON: Time 46200, Note Name: G#3, Velocity: 25
Note ON: Time 46200, Note Name: B3, Velocity: 30
Note OFF: Time 46260, Note Name: B3
Note OFF: Time 46260, Note Name: G#3
Note OFF: Time 46260, Note Name: D3
Note ON: Time 46280, Note Name: D3, Velocity: 25
Note ON: Time 46280, Note Name: G#3, Velocity: 25
Note ON: Time 46280, Note Name: B3, Velocity: 30
Note OFF: Time 46340, Note Name: B3
Note OFF: Time 46340, Note Name: G#3
Note OFF: Time 46340, Note Name: D3
Note ON: Time 46360, Note Name: D3, Velocity: 25
Note ON: Time 46360, Note Name: G#3, Velocity: 25
Note ON: Time 46360, Note Name: B3, Velocity: 30
Note OFF: Time 46420, Note Name: B3
Note OFF: Time 46420, Note Name: G#3
Note OFF: Time 46420, Note Name: D3
Note ON: Time 46440, Note Name: D3, Velocity: 25
Note ON: Time 46440, Note Name: G#3, Velocity: 25
Note ON: Time 46440, Note Name: B3, Velocity: 30
Note OFF: Time 46500, Note Name: B3
Note OFF: Time 46500, Note Name: G#3
Note OFF: Time 46500, Note Name: D3
Note ON: Time 46520, Note Name: D3, Velocity: 25
Note ON: Time 46520, Note Name: G#3, Velocity: 26
Note ON: Time 46520, Note Name: B3, Velocity: 31
Note OFF: Time 46580, Note Name: B3
Note OFF: Time 46580, Note Name: G#3
Note OFF: Time 46580, Note Name: D3
Note ON: Time 46600, Note Name: D3, Velocity: 25
Note ON: Time 46600, Note Name: G#3, Velocity: 26
Note ON: Time 46600, Note Name: B3, Velocity: 31
Note OFF: Time 46660, Note Name: B3
Note OFF: Time 46660, Note Name: G#3
Note OFF: Time 46660, Note Name: D3
Note ON: Time 46680, Note Name: D3, Velocity: 25
Note ON: Time 46680, Note Name: G#3, Velocity: 26
Note ON: Time 46680, Note Name: B3, Velocity: 31
Note OFF: Time 46740, Note Name: B3
Note OFF: Time 46740, Note Name: G#3
Note OFF: Time 46740, Note Name: D3
Note ON: Time 46760, Note Name: D3, Velocity: 25
Note ON: Time 46760, Note Name: G#3, Velocity: 26
Note ON: Time 46760, Note Name: B3, Velocity: 31
Note OFF: Time 46820, Note Name: B3
Note OFF: Time 46820, Note Name: G#3
Note OFF: Time 46820, Note Name: D3
Note ON: Time 46840, Note Name: D3, Velocity: 25
Note ON: Time 46840, Note Name: G#3, Velocity: 26
Note ON: Time 46840, Note Name: B3, Velocity: 31
Note OFF: Time 46900, Note Name: B3
Note OFF: Time 46900, Note Name: G#3
Note OFF: Time 46900, Note Name: D3
Note ON: Time 46920, Note Name: D3, Velocity: 25
Note ON: Time 46920, Note Name: G#3, Velocity: 26
Note ON: Time 46920, Note Name: B3, Velocity: 31
Note OFF: Time 46980, Note Name: B3
Note OFF: Time 46980, Note Name: G#3
Note OFF: Time 46980, Note Name: D3
Note ON: Time 47000, Note Name: D3, Velocity: 25
Note ON: Time 47000, Note Name: G#3, Velocity: 26
Note ON: Time 47000, Note Name: B3, Velocity: 31
Note OFF: Time 47060, Note Name: B3
Note OFF: Time 47060, Note Name: G#3
Note OFF: Time 47060, Note Name: D3
Note ON: Time 47080, Note Name: D3, Velocity: 25
Note ON: Time 47080, Note Name: G#3, Velocity: 26
Note ON: Time 47080, Note Name: B3, Velocity: 31
Note OFF: Time 47140, Note Name: B3
Note OFF: Time 47140, Note Name: G#3
Note OFF: Time 47140, Note Name: D3
Note ON: Time 47160, Note Name: C#3, Velocity: 26
Note ON: Time 47160, Note Name: G#3, Velocity: 26
Note ON: Time 47160, Note Name: A#3, Velocity: 31
Note OFF: Time 47220, Note Name: A#3
Note OFF: Time 47220, Note Name: G#3
Note OFF: Time 47220, Note Name: C#3
Note ON: Time 47240, Note Name: C#3, Velocity: 26
Note ON: Time 47240, Note Name: G#3, Velocity: 26
Note ON: Time 47240, Note Name: A#3, Velocity: 31
Note OFF: Time 47300, Note Name: A#3
Note OFF: Time 47300, Note Name: G#3
Note OFF: Time 47300, Note Name: C#3
Note ON: Time 47320, Note Name: C#3, Velocity: 26
Note ON: Time 47320, Note Name: G#3, Velocity: 26
Note ON: Time 47320, Note Name: A#3, Velocity: 32
Note OFF: Time 47380, Note Name: A#3
Note OFF: Time 47380, Note Name: G#3
Note OFF: Time 47380, Note Name: C#3
Note ON: Time 47400, Note Name: C#3, Velocity: 26
Note ON: Time 47400, Note Name: G#3, Velocity: 26
Note ON: Time 47400, Note Name: A#3, Velocity: 32
Note OFF: Time 47460, Note Name: A#3
Note OFF: Time 47460, Note Name: G#3
Note OFF: Time 47460, Note Name: C#3
Note ON: Time 47480, Note Name: C#3, Velocity: 27
Note ON: Time 47480, Note Name: G#3, Velocity: 28
Note ON: Time 47480, Note Name: A#3, Velocity: 33
Note OFF: Time 47540, Note Name: A#3
Note OFF: Time 47540, Note Name: G#3
Note OFF: Time 47540, Note Name: C#3
Note ON: Time 47560, Note Name: C#3, Velocity: 27
Note ON: Time 47560, Note Name: G#3, Velocity: 28
Note ON: Time 47560, Note Name: A#3, Velocity: 34
Note OFF: Time 47620, Note Name: A#3
Note OFF: Time 47620, Note Name: G#3
Note OFF: Time 47620, Note Name: C#3
Note ON: Time 47640, Note Name: C#3, Velocity: 27
Note ON: Time 47640, Note Name: G3, Velocity: 28
Note ON: Time 47640, Note Name: A#3, Velocity: 34
Note OFF: Time 47700, Note Name: A#3
Note OFF: Time 47700, Note Name: G3
Note OFF: Time 47700, Note Name: C#3
Note ON: Time 47720, Note Name: C#3, Velocity: 27
Note ON: Time 47720, Note Name: G3, Velocity: 28
Note ON: Time 47720, Note Name: A#3, Velocity: 34
Note OFF: Time 47780, Note Name: A#3
Note OFF: Time 47780, Note Name: G3
Note OFF: Time 47780, Note Name: C#3
Note ON: Time 47800, Note Name: C#3, Velocity: 27
Note ON: Time 47800, Note Name: G3, Velocity: 29
Note ON: Time 47800, Note Name: A#3, Velocity: 34
Note OFF: Time 47860, Note Name: A#3
Note OFF: Time 47860, Note Name: G3
Note OFF: Time 47860, Note Name: C#3
Note ON: Time 47880, Note Name: D#3, Velocity: 28
Note ON: Time 47880, Note Name: C#3, Velocity: 23
Note ON: Time 47880, Note Name: G3, Velocity: 29
Note ON: Time 47880, Note Name: A#3, Velocity: 35
Note OFF: Time 47940, Note Name: A#3
Note OFF: Time 47940, Note Name: D#3
Note OFF: Time 47940, Note Name: C#3
Note OFF: Time 47940, Note Name: G3
Note ON: Time 47960, Note Name: D#3, Velocity: 28
Note ON: Time 47960, Note Name: C#3, Velocity: 23
Note ON: Time 47960, Note Name: G3, Velocity: 29
Note ON: Time 47960, Note Name: A#3, Velocity: 35
Note OFF: Time 48020, Note Name: A#3
Note OFF: Time 48020, Note Name: D#3
Note OFF: Time 48020, Note Name: C#3
Note OFF: Time 48020, Note Name: G3
Note ON: Time 48040, Note Name: D#3, Velocity: 28
Note ON: Time 48040, Note Name: C#3, Velocity: 23
Note ON: Time 48040, Note Name: G3, Velocity: 29
Note ON: Time 48040, Note Name: A#3, Velocity: 35
Note OFF: Time 48100, Note Name: A#3
Note OFF: Time 48100, Note Name: D#3
Note OFF: Time 48100, Note Name: C#3
Note OFF: Time 48100, Note Name: G3
Note ON: Time 55800, Note Name: C4, Velocity: 28
Note OFF: Time 55880, Note Name: C4
Note ON: Time 55880, Note Name: D#4, Velocity: 26
Note OFF: Time 55940, Note Name: D#4
Note ON: Time 55960, Note Name: D#4, Velocity: 26
Note OFF: Time 56020, Note Name: D#4
Note ON: Time 56040, Note Name: C4, Velocity: 26
Note OFF: Time 56120, Note Name: C4
Note ON: Time 56120, Note Name: D#4, Velocity: 26
Note OFF: Time 56180, Note Name: D#4
Note ON: Time 56200, Note Name: D#4, Velocity: 26
Note OFF: Time 56260, Note Name: D#4
Note ON: Time 56280, Note Name: A#3, Velocity: 28
Note OFF: Time 56360, Note Name: A#3
Note ON: Time 56360, Note Name: D#4, Velocity: 26
Note OFF: Time 56420, Note Name: D#4
Note ON: Time 56440, Note Name: D#4, Velocity: 26
Note OFF: Time 56500, Note Name: D#4
Note ON: Time 56520, Note Name: A#3, Velocity: 26
Note OFF: Time 56600, Note Name: A#3
Note ON: Time 56600, Note Name: D#4, Velocity: 26
Note OFF: Time 56660, Note Name: D#4
Note ON: Time 56680, Note Name: D#4, Velocity: 26
Note OFF: Time 56740, Note Name: D#4
Note ON: Time 56760, Note Name: D#4, Velocity: 28
Note OFF: Time 56840, Note Name: D#4
Note ON: Time 56840, Note Name: G#4, Velocity: 26
Note OFF: Time 56900, Note Name: G#4
Note ON: Time 56920, Note Name: G#4, Velocity: 26
Note OFF: Time 56980, Note Name: G#4
Note ON: Time 57000, Note Name: D#4, Velocity: 25
Note OFF: Time 57080, Note Name: D#4
Note ON: Time 57080, Note Name: G#4, Velocity: 25
Note OFF: Time 57140, Note Name: G#4
Note ON: Time 57160, Note Name: G#4, Velocity: 25
Note OFF: Time 57220, Note Name: G#4
Note ON: Time 57240, Note Name: D#4, Velocity: 28
Note OFF: Time 57320, Note Name: D#4
Note ON: Time 57320, Note Name: A#4, Velocity: 26
Note OFF: Time 57380, Note Name: A#4
Note ON: Time 57400, Note Name: A#4, Velocity: 26
Note OFF: Time 57460, Note Name: A#4
Note ON: Time 57480, Note Name: D#4, Velocity: 25
Note OFF: Time 57560, Note Name: D#4
Note ON: Time 57560, Note Name: A#4, Velocity: 25
Note OFF: Time 57620, Note Name: A#4
Note ON: Time 57640, Note Name: A#4, Velocity: 25
Note OFF: Time 57700, Note Name: A#4
Note ON: Time 57720, Note Name: D#4, Velocity: 29
Note OFF: Time 57800, Note Name: D#4
Note ON: Time 57800, Note Name: G#4, Velocity: 27
Note OFF: Time 57860, Note Name: G#4
Note ON: Time 57880, Note Name: G#4, Velocity: 26
Note OFF: Time 57940, Note Name: G#4
Note ON: Time 57960, Note Name: D#4, Velocity: 26
Note OFF: Time 58040, Note Name: D#4
Note ON: Time 58040, Note Name: A#4, Velocity: 26
Note OFF: Time 58100, Note Name: A#4
Note ON: Time 58120, Note Name: A#4, Velocity: 26
Note OFF: Time 58180, Note Name: A#4
Note ON: Time 58200, Note Name: G#4, Velocity: 30
Note OFF: Time 58280, Note Name: G#4
Note ON: Time 58280, Note Name: C5, Velocity: 28
Note OFF: Time 58340, Note Name: C5
Note ON: Time 58360, Note Name: C5, Velocity: 28
Note OFF: Time 58420, Note Name: C5
Note ON: Time 58440, Note Name: G#4, Velocity: 27
Note OFF: Time 58520, Note Name: G#4
Note ON: Time 58520, Note Name: D5, Velocity: 27
Note OFF: Time 58580, Note Name: D5
Note ON: Time 58600, Note Name: D5, Velocity: 27
Note OFF: Time 58660, Note Name: D5
Note ON: Time 58680, Note Name: G4, Velocity: 30
Note OFF: Time 58760, Note Name: G4
Note ON: Time 58760, Note Name: A#4, Velocity: 28
Note OFF: Time 58820, Note Name: A#4
Note ON: Time 58840, Note Name: A#4, Velocity: 28
Note OFF: Time 58900, Note Name: A#4
Note ON: Time 58920, Note Name: G4, Velocity: 27
Note OFF: Time 59000, Note Name: G4
Note ON: Time 59000, Note Name: A#4, Velocity: 23
Note OFF: Time 59060, Note Name: A#4
Note ON: Time 59080, Note Name: A#4, Velocity: 23
Note OFF: Time 59140, Note Name: A#4
Note ON: Time 59160, Note Name: G4, Velocity: 32
Note OFF: Time 59240, Note Name: G4
Note ON: Time 59240, Note Name: A#4, Velocity: 28
Note OFF: Time 59300, Note Name: A#4
Note ON: Time 59320, Note Name: A#4, Velocity: 28
Note OFF: Time 59380, Note Name: A#4
Note ON: Time 59400, Note Name: G4, Velocity: 33
Note OFF: Time 59480, Note Name: G4
Note ON: Time 59480, Note Name: A#4, Velocity: 29
Note OFF: Time 59540, Note Name: A#4
Note ON: Time 59560, Note Name: A#4, Velocity: 28
Note OFF: Time 59620, Note Name: A#4
Note ON: Time 59640, Note Name: G4, Velocity: 35
Note OFF: Time 59720, Note Name: G4
Note ON: Time 59720, Note Name: A#4, Velocity: 28
Note OFF: Time 59780, Note Name: A#4
Note ON: Time 59800, Note Name: A#4, Velocity: 28
Note OFF: Time 59860, Note Name: A#4
Note ON: Time 59880, Note Name: G4, Velocity: 32
Note OFF: Time 59960, Note Name: G4
Note ON: Time 59960, Note Name: A#4, Velocity: 26
Note OFF: Time 60020, Note Name: A#4
Note ON: Time 60040, Note Name: A#4, Velocity: 26
Note OFF: Time 60099, Note Name: A#4
Note ON: Time 60120, Note Name: G4, Velocity: 34
Note OFF: Time 60200, Note Name: G4
Note ON: Time 60200, Note Name: D#4, Velocity: 27
Note OFF: Time 60260, Note Name: D#4
Note ON: Time 60280, Note Name: D#4, Velocity: 27
Note OFF: Time 60340, Note Name: D#4
Note ON: Time 60360, Note Name: G4, Velocity: 33
Note OFF: Time 60440, Note Name: G4
Note ON: Time 60440, Note Name: D#4, Velocity: 27
Note OFF: Time 60500, Note Name: D#4
Note ON: Time 60520, Note Name: D#4, Velocity: 25
Note OFF: Time 60580, Note Name: D#4
Note ON: Time 60600, Note Name: G#4, Velocity: 30
Note OFF: Time 60680, Note Name: G#4
Note ON: Time 60680, Note Name: D#4, Velocity: 28
Note OFF: Time 60740, Note Name: D#4
Note ON: Time 60760, Note Name: D#4, Velocity: 28
Note OFF: Time 60820, Note Name: D#4
Note ON: Time 60840, Note Name: G#4, Velocity: 27
Note OFF: Time 60920, Note Name: G#4
Note ON: Time 60920, Note Name: D#4, Velocity: 23
Note OFF: Time 60980, Note Name: D#4
Note ON: Time 61000, Note Name: D#4, Velocity: 23
Note OFF: Time 61060, Note Name: D#4
Note ON: Time 61080, Note Name: D#4, Velocity: 28
Note OFF: Time 61160, Note Name: D#4
Note ON: Time 61160, Note Name: C4, Velocity: 26
Note OFF: Time 61220, Note Name: C4
Note ON: Time 61240, Note Name: C4, Velocity: 26
Note OFF: Time 61300, Note Name: C4
Note ON: Time 61320, Note Name: D#4, Velocity: 28
Note OFF: Time 61400, Note Name: D#4
Note ON: Time 61400, Note Name: C4, Velocity: 25
Note OFF: Time 61460, Note Name: C4
Note ON: Time 61480, Note Name: C4, Velocity: 25
Note OFF: Time 61540, Note Name: C4
Note ON: Time 61560, Note Name: F4, Velocity: 29
Note OFF: Time 61640, Note Name: F4
Note ON: Time 61640, Note Name: C#4, Velocity: 28
Note OFF: Time 61700, Note Name: C#4
Note ON: Time 61720, Note Name: C#4, Velocity: 27
Note OFF: Time 61780, Note Name: C#4
Note ON: Time 61800, Note Name: F4, Velocity: 27
Note OFF: Time 61880, Note Name: F4
Note ON: Time 61880, Note Name: C#4, Velocity: 27
Note OFF: Time 61940, Note Name: C#4
Note ON: Time 61960, Note Name: C#4, Velocity: 27
Note OFF: Time 62020, Note Name: C#4
Note ON: Time 62040, Note Name: G4, Velocity: 30
Note OFF: Time 62120, Note Name: G4
Note ON: Time 62120, Note Name: C#4, Velocity: 28
Note OFF: Time 62180, Note Name: C#4
Note ON: Time 62200, Note Name: C#4, Velocity: 28
Note OFF: Time 62260, Note Name: C#4
Note ON: Time 62280, Note Name: C#4, Velocity: 28
Note OFF: Time 62340, Note Name: C#4
Note ON: Time 62360, Note Name: C#4, Velocity: 28
Note OFF: Time 62420, Note Name: C#4
Note ON: Time 62440, Note Name: C#4, Velocity: 28
Note OFF: Time 62500, Note Name: C#4
Track 3: Piano left
Note ON: Time 0, Note Name: G#2, Velocity: 40
Note OFF: Time 480, Note Name: G#2
Note ON: Time 480, Note Name: C#3, Velocity: 35
Note OFF: Time 960, Note Name: C#3
Note ON: Time 960, Note Name: C3, Velocity: 40
Note OFF: Time 1440, Note Name: C3
Note ON: Time 1440, Note Name: G2, Velocity: 37
Note OFF: Time 1920, Note Name: G2
Note ON: Time 1920, Note Name: G#2, Velocity: 33
Note OFF: Time 2160, Note Name: G#2
Note ON: Time 2160, Note Name: G2, Velocity: 35
Note OFF: Time 2400, Note Name: G2
Note ON: Time 2400, Note Name: F2, Velocity: 38
Note OFF: Time 2640, Note Name: F2
Note ON: Time 2640, Note Name: F3, Velocity: 40
Note OFF: Time 2880, Note Name: F3
Note ON: Time 2880, Note Name: D#3, Velocity: 36
Note OFF: Time 3360, Note Name: D#3
Note ON: Time 3360, Note Name: D#2, Velocity: 35
Note OFF: Time 3840, Note Name: D#2
Note ON: Time 3840, Note Name: C#2, Velocity: 40
Note OFF: Time 4320, Note Name: C#2
Note ON: Time 4320, Note Name: C#3, Velocity: 36
Note OFF: Time 4800, Note Name: C#3
Note ON: Time 4800, Note Name: C3, Velocity: 40
Note OFF: Time 5280, Note Name: C3
Note ON: Time 5280, Note Name: F2, Velocity: 36
Note OFF: Time 5760, Note Name: F2
Note ON: Time 5760, Note Name: A#1, Velocity: 40
Note OFF: Time 6240, Note Name: A#1
Note ON: Time 6240, Note Name: D#2, Velocity: 34
Note OFF: Time 6720, Note Name: D#2
Note ON: Time 6720, Note Name: G#1, Velocity: 37
Note OFF: Time 6960, Note Name: G#1
Note ON: Time 6960, Note Name: G#2, Velocity: 29
Note OFF: Time 7200, Note Name: G#2
Note ON: Time 7200, Note Name: C3, Velocity: 36
Note ON: Time 7200, Note Name: G#1, Velocity: 36
Note OFF: Time 7260, Note Name: C3
Note ON: Time 7280, Note Name: D#3, Velocity: 34
Note OFF: Time 7340, Note Name: D#3
Note ON: Time 7360, Note Name: G#3, Velocity: 34
Note OFF: Time 7420, Note Name: G#3
Note OFF: Time 7440, Note Name: G#1
Note ON: Time 7680, Note Name: G#2, Velocity: 40
Note OFF: Time 8160, Note Name: G#2
Note ON: Time 8160, Note Name: C#3, Velocity: 35
Note OFF: Time 8640, Note Name: C#3
Note ON: Time 8640, Note Name: C3, Velocity: 40
Note OFF: Time 9120, Note Name: C3
Note ON: Time 9120, Note Name: G2, Velocity: 37
Note OFF: Time 9600, Note Name: G2
Note ON: Time 9600, Note Name: G#2, Velocity: 41
Note OFF: Time 9840, Note Name: G#2
Note ON: Time 9840, Note Name: G2, Velocity: 44
Note OFF: Time 10080, Note Name: G2
Note ON: Time 10080, Note Name: F2, Velocity: 46
Note OFF: Time 10320, Note Name: F2
Note ON: Time 10320, Note Name: F2, Velocity: 49
Note OFF: Time 10560, Note Name: F2
Note ON: Time 12960, Note Name: F2, Velocity: 36
Note OFF: Time 13440, Note Name: F2
Note ON: Time 13440, Note Name: A#2, Velocity: 40
Note OFF: Time 13920, Note Name: A#2
Note ON: Time 13920, Note Name: D#2, Velocity: 34
Note OFF: Time 14400, Note Name: D#2
Note ON: Time 14400, Note Name: G#2, Velocity: 37
Note ON: Time 14880, Note Name: G#3, Velocity: 36
Note OFF: Time 15120, Note Name: G#3
Note OFF: Time 15120, Note Name: G#2
Note ON: Time 21240, Note Name: D#3, Velocity: 25
Note ON: Time 21240, Note Name: G3, Velocity: 33
Note OFF: Time 21480, Note Name: G3
Note OFF: Time 21480, Note Name: D#3
Note ON: Time 22200, Note Name: D#3, Velocity: 49
Note ON: Time 22200, Note Name: A#1, Velocity: 33
Note OFF: Time 22320, Note Name: D#3
Note ON: Time 22320, Note Name: D3, Velocity: 44
Note OFF: Time 22410, Note Name: D3
Note ON: Time 22440, Note Name: D3, Velocity: 49
Note OFF: Time 22560, Note Name: D3
Note ON: Time 22560, Note Name: C3, Velocity: 45
Note OFF: Time 22650, Note Name: C3
Note ON: Time 22680, Note Name: C3, Velocity: 53
Note OFF: Time 22800, Note Name: C3
Note ON: Time 22800, Note Name: B2, Velocity: 47
Note OFF: Time 22890, Note Name: B2
Note ON: Time 22920, Note Name: B2, Velocity: 53
Note OFF: Time 23040, Note Name: B2
Note ON: Time 23040, Note Name: A#2, Velocity: 49
Note OFF: Time 23160, Note Name: A#2
Note OFF: Time 23160, Note Name: A#1
Note ON: Time 23160, Note Name: D#2, Velocity: 36
Note OFF: Time 23400, Note Name: D#2
Note ON: Time 23520, Note Name: A#2, Velocity: 44
Note OFF: Time 23640, Note Name: A#2
Note ON: Time 23640, Note Name: G2, Velocity: 49
Note OFF: Time 23760, Note Name: G2
Note ON: Time 23760, Note Name: A#2, Velocity: 45
Note OFF: Time 23880, Note Name: A#2
Note ON: Time 23880, Note Name: G2, Velocity: 41
Note OFF: Time 24000, Note Name: G2
Note ON: Time 24000, Note Name: D#2, Velocity: 38
Note OFF: Time 24120, Note Name: D#2
Note ON: Time 24120, Note Name: F3, Velocity: 38
Note ON: Time 24120, Note Name: A#1, Velocity: 33
Note ON: Time 24120, Note Name: G#3, Velocity: 45
Note OFF: Time 24600, Note Name: G#3
Note OFF: Time 24600, Note Name: A#1
Note OFF: Time 24600, Note Name: F3
Note ON: Time 24600, Note Name: A#2, Velocity: 33
Note ON: Time 24600, Note Name: F3, Velocity: 42
Note ON: Time 24600, Note Name: G#3, Velocity: 50
Note OFF: Time 25080, Note Name: G#3
Note OFF: Time 25080, Note Name: F3
Note OFF: Time 25080, Note Name: A#2
Note ON: Time 25080, Note Name: D#2, Velocity: 51
Note ON: Time 25080, Note Name: F3, Velocity: 51
Note OFF: Time 25200, Note Name: F3
Note ON: Time 25200, Note Name: E3, Velocity: 48
Note OFF: Time 25290, Note Name: E3
Note ON: Time 25320, Note Name: E3, Velocity: 53
Note OFF: Time 25440, Note Name: E3
Note ON: Time 25440, Note Name: D#3, Velocity: 48
Note OFF: Time 25530, Note Name: D#3
Note ON: Time 25560, Note Name: D#3, Velocity: 53
Note OFF: Time 25680, Note Name: D#3
Note ON: Time 25680, Note Name: D3, Velocity: 49
Note OFF: Time 25770, Note Name: D3
Note ON: Time 25800, Note Name: D3, Velocity: 55
Note OFF: Time 25920, Note Name: D3
Note ON: Time 25920, Note Name: D#3, Velocity: 50
Note OFF: Time 26010, Note Name: D#3
Note ON: Time 26040, Note Name: D#3, Velocity: 55
Note OFF: Time 26160, Note Name: D#3
Note ON: Time 26160, Note Name: E3, Velocity: 40
Note OFF: Time 26250, Note Name: E3
Note ON: Time 26280, Note Name: E3, Velocity: 44
Note OFF: Time 26400, Note Name: E3
Note ON: Time 26400, Note Name: D#3, Velocity: 37
Note OFF: Time 26490, Note Name: D#3
Note ON: Time 26520, Note Name: D#3, Velocity: 44
Note OFF: Time 26640, Note Name: D#3
Note ON: Time 26640, Note Name: D3, Velocity: 31
Note OFF: Time 26730, Note Name: D3
Note ON: Time 26760, Note Name: D3, Velocity: 37
Note OFF: Time 26880, Note Name: D3
Note ON: Time 26880, Note Name: C#3, Velocity: 29
Note OFF: Time 27000, Note Name: C#3
Note OFF: Time 27000, Note Name: D#2
Note ON: Time 27000, Note Name: G#1, Velocity: 33
Note ON: Time 27000, Note Name: G#2, Velocity: 37
Note OFF: Time 27480, Note Name: G#2
Note OFF: Time 27480, Note Name: G#1
Note ON: Time 27480, Note Name: C#3, Velocity: 35
Note OFF: Time 27960, Note Name: C#3
Note ON: Time 27960, Note Name: C3, Velocity: 40
Note OFF: Time 28440, Note Name: C3
Note ON: Time 28440, Note Name: G2, Velocity: 37
Note OFF: Time 28920, Note Name: G2
Note ON: Time 28920, Note Name: G#2, Velocity: 33
Note OFF: Time 29160, Note Name: G#2
Note ON: Time 29160, Note Name: G2, Velocity: 36
Note OFF: Time 29400, Note Name: G2
Note ON: Time 29400, Note Name: F2, Velocity: 40
Note OFF: Time 29640, Note Name: F2
Note ON: Time 29640, Note Name: F3, Velocity: 44
Note OFF: Time 29880, Note Name: F3
Note ON: Time 29880, Note Name: D#3, Velocity: 36
Note OFF: Time 30360, Note Name: D#3
Note ON: Time 30360, Note Name: D#2, Velocity: 35
Note OFF: Time 30840, Note Name: D#2
Note ON: Time 30840, Note Name: C#2, Velocity: 40
Note OFF: Time 31320, Note Name: C#2
Note ON: Time 31320, Note Name: C#3, Velocity: 36
Note OFF: Time 31800, Note Name: C#3
Note ON: Time 31800, Note Name: C3, Velocity: 40
Note OFF: Time 32280, Note Name: C3
Note ON: Time 32280, Note Name: F2, Velocity: 36
Note OFF: Time 32760, Note Name: F2
Note ON: Time 32760, Note Name: A#1, Velocity: 40
Note OFF: Time 33240, Note Name: A#1
Note ON: Time 33240, Note Name: D#2, Velocity: 34
Note OFF: Time 33720, Note Name: D#2
Note ON: Time 33720, Note Name: G#1, Velocity: 37
Note OFF: Time 33960, Note Name: G#1
Note ON: Time 33960, Note Name: G#2, Velocity: 29
Note OFF: Time 34200, Note Name: G#2
Note ON: Time 34200, Note Name: G#1, Velocity: 36
Note OFF: Time 34440, Note Name: G#1
Note ON: Time 34680, Note Name: G#2, Velocity: 33
Note ON: Time 34680, Note Name: G#3, Velocity: 33
Note OFF: Time 35160, Note Name: G#3
Note OFF: Time 35160, Note Name: G#2
Note ON: Time 35640, Note Name: A#3, Velocity: 36
Note OFF: Time 35960, Note Name: A#3
Note ON: Time 35960, Note Name: A#3, Velocity: 36
Note OFF: Time 36040, Note Name: A#3
Note ON: Time 36040, Note Name: A3, Velocity: 36
Note OFF: Time 36120, Note Name: A3
Note ON: Time 36120, Note Name: A#3, Velocity: 36
Note OFF: Time 36180, Note Name: A#3
Note ON: Time 36200, Note Name: A#3, Velocity: 36
Note OFF: Time 36260, Note Name: A#3
Note ON: Time 36280, Note Name: G#3, Velocity: 33
Note OFF: Time 36340, Note Name: G#3
Note ON: Time 36360, Note Name: G3, Velocity: 36
Note OFF: Time 36420, Note Name: G3
Note ON: Time 36440, Note Name: F3, Velocity: 32
Note OFF: Time 36500, Note Name: F3
Note ON: Time 36520, Note Name: D#3, Velocity: 32
Note OFF: Time 36580, Note Name: D#3
Note ON: Time 36600, Note Name: G#2, Velocity: 33
Note ON: Time 36600, Note Name: G#3, Velocity: 33
Note OFF: Time 37080, Note Name: G#3
Note OFF: Time 37080, Note Name: G#2
Note ON: Time 37560, Note Name: D#3, Velocity: 36
Note OFF: Time 37880, Note Name: D#3
Note ON: Time 37880, Note Name: D#3, Velocity: 36
Note OFF: Time 37960, Note Name: D#3
Note ON: Time 37960, Note Name: D3, Velocity: 36
Note OFF: Time 38040, Note Name: D3
Note ON: Time 38040, Note Name: D#3, Velocity: 36
Note OFF: Time 38100, Note Name: D#3
Note ON: Time 38120, Note Name: E3, Velocity: 36
Note OFF: Time 38180, Note Name: E3
Note ON: Time 38200, Note Name: D#3, Velocity: 33
Note OFF: Time 38260, Note Name: D#3
Note ON: Time 38280, Note Name: C#3, Velocity: 36
Note OFF: Time 38340, Note Name: C#3
Note ON: Time 38360, Note Name: B2, Velocity: 32
Note OFF: Time 38420, Note Name: B2
Note ON: Time 38440, Note Name: A#2, Velocity: 32
Note OFF: Time 38500, Note Name: A#2
Note ON: Time 38520, Note Name: G#2, Velocity: 36
Note ON: Time 38520, Note Name: G#3, Velocity: 36
Note OFF: Time 39000, Note Name: G#3
Note OFF: Time 39000, Note Name: G#2
Note ON: Time 42360, Note Name: E2, Velocity: 33
Note ON: Time 42360, Note Name: E3, Velocity: 33
Note OFF: Time 42840, Note Name: E3
Note OFF: Time 42840, Note Name: E2
Note ON: Time 43320, Note Name: F#3, Velocity: 36
Note OFF: Time 43640, Note Name: F#3
Note ON: Time 43640, Note Name: F#3, Velocity: 36
Note OFF: Time 43720, Note Name: F#3
Note ON: Time 43720, Note Name: F3, Velocity: 36
Note OFF: Time 43800, Note Name: F3
Note ON: Time 43800, Note Name: F#3, Velocity: 36
Note OFF: Time 43860, Note Name: F#3
Note ON: Time 43880, Note Name: F#3, Velocity: 36
Note OFF: Time 43940, Note Name: F#3
Note ON: Time 43960, Note Name: E3, Velocity: 33
Note OFF: Time 44020, Note Name: E3
Note ON: Time 44040, Note Name: D#3, Velocity: 36
Note OFF: Time 44100, Note Name: D#3
Note ON: Time 44120, Note Name: C#3, Velocity: 32
Note OFF: Time 44180, Note Name: C#3
Note ON: Time 44200, Note Name: B2, Velocity: 32
Note OFF: Time 44260, Note Name: B2
Note ON: Time 44280, Note Name: E3, Velocity: 33
Note OFF: Time 44760, Note Name: E3
Note ON: Time 45320, Note Name: F1, Velocity: 41
Note OFF: Time 45360, Note Name: F1
Note ON: Time 45400, Note Name: G#1, Velocity: 44
Note OFF: Time 45440, Note Name: G#1
Note ON: Time 45480, Note Name: B1, Velocity: 46
Note OFF: Time 45520, Note Name: B1
Note ON: Time 45560, Note Name: D2, Velocity: 47
Note OFF: Time 45600, Note Name: D2
Note ON: Time 45640, Note Name: F2, Velocity: 49
Note OFF: Time 45680, Note Name: F2
Note ON: Time 45720, Note Name: G#2, Velocity: 51
Note OFF: Time 45960, Note Name: G#2
Note ON: Time 46280, Note Name: F1, Velocity: 42
Note OFF: Time 46320, Note Name: F1
Note ON: Time 46360, Note Name: G#1, Velocity: 46
Note OFF: Time 46400, Note Name: G#1
Note ON: Time 46440, Note Name: B1, Velocity: 48
Note OFF: Time 46480, Note Name: B1
Note ON: Time 46520, Note Name: D2, Velocity: 49
Note OFF: Time 46560, Note Name: D2
Note ON: Time 46600, Note Name: F2, Velocity: 51
Note OFF: Time 46640, Note Name: F2
Note ON: Time 46680, Note Name: G#2, Velocity: 53
Note OFF: Time 46920, Note Name: G#2
Note ON: Time 47240, Note Name: E2, Velocity: 45
Note OFF: Time 47280, Note Name: E2
Note ON: Time 47320, Note Name: G#2, Velocity: 48
Note OFF: Time 47360, Note Name: G#2
Note ON: Time 47400, Note Name: A#2, Velocity: 51
Note OFF: Time 47520, Note Name: A#2
Note ON: Time 47720, Note Name: D#2, Velocity: 57
Note OFF: Time 47760, Note Name: D#2
Note ON: Time 47800, Note Name: G2, Velocity: 60
Note OFF: Time 47840, Note Name: G2
Note ON: Time 47880, Note Name: A#2, Velocity: 64
Note OFF: Time 48000, Note Name: A#2
Note ON: Time 48120, Note Name: G#1, Velocity: 34
Note ON: Time 48120, Note Name: G#2, Velocity: 40
Note OFF: Time 48600, Note Name: G#2
Note OFF: Time 48600, Note Name: G#1
Note ON: Time 48600, Note Name: C#3, Velocity: 35
Note OFF: Time 49080, Note Name: C#3
Note ON: Time 49080, Note Name: C3, Velocity: 40
Note OFF: Time 49560, Note Name: C3
Note ON: Time 49560, Note Name: G2, Velocity: 37
Note OFF: Time 50040, Note Name: G2
Note ON: Time 50040, Note Name: G#2, Velocity: 33
Note OFF: Time 50280, Note Name: G#2
Note ON: Time 50280, Note Name: G2, Velocity: 35
Note OFF: Time 50520, Note Name: G2
Note ON: Time 50520, Note Name: F2, Velocity: 38
Note OFF: Time 50760, Note Name: F2
Note ON: Time 50760, Note Name: F3, Velocity: 40
Note OFF: Time 51000, Note Name: F3
Note ON: Time 51000, Note Name: D#3, Velocity: 36
Note OFF: Time 51480, Note Name: D#3
Note ON: Time 51480, Note Name: D#2, Velocity: 35
Note OFF: Time 51960, Note Name: D#2
Note ON: Time 51960, Note Name: C#2, Velocity: 40
Note OFF: Time 52440, Note Name: C#2
Note ON: Time 52440, Note Name: C#3, Velocity: 36
Note OFF: Time 52920, Note Name: C#3
Note ON: Time 52920, Note Name: C3, Velocity: 40
Note OFF: Time 53400, Note Name: C3
Note ON: Time 53400, Note Name: F2, Velocity: 36
Note OFF: Time 53880, Note Name: F2
Note ON: Time 53880, Note Name: A#1, Velocity: 40
Note OFF: Time 54360, Note Name: A#1
Note ON: Time 54360, Note Name: D#2, Velocity: 34
Note OFF: Time 54840, Note Name: D#2
Note ON: Time 54840, Note Name: G#1, Velocity: 37
Note OFF: Time 55080, Note Name: G#1
Note ON: Time 55080, Note Name: G#2, Velocity: 29
Note OFF: Time 55320, Note Name: G#2
Note ON: Time 55320, Note Name: C3, Velocity: 36
Note ON: Time 55320, Note Name: G#1, Velocity: 36
Note OFF: Time 55380, Note Name: C3
Note ON: Time 55400, Note Name: D#3, Velocity: 34
Note OFF: Time 55460, Note Name: D#3
Note ON: Time 55480, Note Name: G#3, Velocity: 34
Note OFF: Time 55540, Note Name: G#3
Note OFF: Time 55560, Note Name: G#1
Note ON: Time 55800, Note Name: G#2, Velocity: 40
Note OFF: Time 56280, Note Name: G#2
Note ON: Time 56280, Note Name: C#3, Velocity: 35
Note OFF: Time 56760, Note Name: C#3
Note ON: Time 56760, Note Name: C3, Velocity: 40
Note OFF: Time 57240, Note Name: C3
Note ON: Time 57240, Note Name: G2, Velocity: 37
Note OFF: Time 57720, Note Name: G2
Note ON: Time 57720, Note Name: G#2, Velocity: 33
Note OFF: Time 57960, Note Name: G#2
Note ON: Time 57960, Note Name: G2, Velocity: 35
Note OFF: Time 58200, Note Name: G2
Note ON: Time 58200, Note Name: F2, Velocity: 38
Note OFF: Time 58440, Note Name: F2
Note ON: Time 58440, Note Name: F2, Velocity: 40
Note OFF: Time 58680, Note Name: F2
Note ON: Time 58680, Note Name: D#2, Velocity: 50
Note OFF: Time 58720, Note Name: D#2
Note ON: Time 58760, Note Name: G2, Velocity: 44
Note OFF: Time 58800, Note Name: G2
Note ON: Time 58840, Note Name: A#2, Velocity: 45
Note OFF: Time 58880, Note Name: A#2
Note ON: Time 58920, Note Name: D#3, Velocity: 47
Note OFF: Time 58960, Note Name: D#3
Note ON: Time 59000, Note Name: G3, Velocity: 49
Note OFF: Time 59040, Note Name: G3
Note ON: Time 59080, Note Name: A#3, Velocity: 50
Note OFF: Time 59120, Note Name: A#3
Note ON: Time 59160, Note Name: D#4, Velocity: 52
Note OFF: Time 59640, Note Name: D#4
Note ON: Time 59640, Note Name: C#2, Velocity: 50
Note OFF: Time 59680, Note Name: C#2
Note ON: Time 59720, Note Name: G2, Velocity: 43
Note OFF: Time 59760, Note Name: G2
Note ON: Time 59800, Note Name: A#2, Velocity: 44
Note OFF: Time 59840, Note Name: A#2
Note ON: Time 59880, Note Name: C#3, Velocity: 46
Note OFF: Time 59920, Note Name: C#3
Note ON: Time 59960, Note Name: G3, Velocity: 47
Note OFF: Time 60000, Note Name: G3
Note ON: Time 60040, Note Name: A#3, Velocity: 49
Note OFF: Time 60080, Note Name: A#3
Note ON: Time 60120, Note Name: C#4, Velocity: 50
Note OFF: Time 60600, Note Name: C#4
Note ON: Time 60600, Note Name: C4, Velocity: 40
Note OFF: Time 61080, Note Name: C4
Note ON: Time 61080, Note Name: F3, Velocity: 36
Note OFF: Time 61560, Note Name: F3
Note ON: Time 61560, Note Name: A#2, Velocity: 40
Note OFF: Time 62040, Note Name: A#2
Note ON: Time 66840, Note Name: D#4, Velocity: 44
Note ON: Time 66840, Note Name: G4, Velocity: 47
Note OFF: Time 67320, Note Name: G4
Note OFF: Time 67320, Note Name: D#4
Note ON: Time 67320, Note Name: G#3, Velocity: 44
Note ON: Time 67320, Note Name: G#4, Velocity: 44
Note OFF: Time 67560, Note Name: G#4
Note OFF: Time 67560, Note Name: G#3
Note ON: Time 67800, Note Name: D#3, Velocity: 43
Note ON: Time 67800, Note Name: C#4, Velocity: 45
Note OFF: Time 68280, Note Name: C#4
Note OFF: Time 68280, Note Name: D#3
Note ON: Time 68280, Note Name: G#3, Velocity: 33
Note ON: Time 68280, Note Name: C4, Velocity: 39
Note OFF: Time 68520, Note Name: C4
Note OFF: Time 68520, Note Name: G#3
Note ON: Time 68760, Note Name: G3, Velocity: 44
Note ON: Time 68760, Note Name: D#2, Velocity: 37
Note ON: Time 68760, Note Name: C#3, Velocity: 37
Note OFF: Time 69240, Note Name: C#3
Note OFF: Time 69240, Note Name: D#2
Note OFF: Time 69240, Note Name: G3
Note ON: Time 69240, Note Name: G#2, Velocity: 25
Note ON: Time 69240, Note Name: C3, Velocity: 30
Note OFF: Time 69360, Note Name: C3
Note OFF: Time 69360, Note Name: G#2
Note ON: Time 69480, Note Name: G#1, Velocity: 30
Note OFF: Time 69600, Note Name: G#1
Note ON: Time 69720, Note Name: G#1, Velocity: 30
Note OFF: Time 70200, Note Name: G#1
Track 4: Accompaniment left
Note ON: Time 0, Note Name: G#3, Velocity: 28
Note OFF: Time 120, Note Name: G#3
Note ON: Time 120, Note Name: D#3, Velocity: 24
Note OFF: Time 240, Note Name: D#3
Note ON: Time 240, Note Name: G#3, Velocity: 26
Note OFF: Time 360, Note Name: G#3
Note ON: Time 360, Note Name: D#3, Velocity: 23
Note OFF: Time 480, Note Name: D#3
Note ON: Time 480, Note Name: G3, Velocity: 28
Note OFF: Time 600, Note Name: G3
Note ON: Time 600, Note Name: D#3, Velocity: 24
Note OFF: Time 720, Note Name: D#3
Note ON: Time 720, Note Name: G3, Velocity: 26
Note OFF: Time 840, Note Name: G3
Note ON: Time 840, Note Name: D#3, Velocity: 24
Note OFF: Time 960, Note Name: D#3
Note ON: Time 960, Note Name: G#3, Velocity: 28
Note OFF: Time 1080, Note Name: G#3
Note ON: Time 1080, Note Name: D#3, Velocity: 25
Note OFF: Time 1200, Note Name: D#3
Note ON: Time 1200, Note Name: G#3, Velocity: 25
Note OFF: Time 1320, Note Name: G#3
Note ON: Time 1320, Note Name: D#3, Velocity: 25
Note OFF: Time 1440, Note Name: D#3
Note ON: Time 1440, Note Name: A#3, Velocity: 28
Note OFF: Time 1560, Note Name: A#3
Note ON: Time 1560, Note Name: D#3, Velocity: 25
Note OFF: Time 1680, Note Name: D#3
Note ON: Time 1680, Note Name: A#3, Velocity: 25
Note OFF: Time 1800, Note Name: A#3
Note ON: Time 1800, Note Name: D#3, Velocity: 25
Note OFF: Time 1920, Note Name: D#3
Note ON: Time 1920, Note Name: G#3, Velocity: 29
Note OFF: Time 2040, Note Name: G#3
Note ON: Time 2040, Note Name: D#3, Velocity: 25
Note OFF: Time 2160, Note Name: D#3
Note ON: Time 2160, Note Name: A#3, Velocity: 26
Note OFF: Time 2280, Note Name: A#3
Note ON: Time 2280, Note Name: D#3, Velocity: 23
Note OFF: Time 2400, Note Name: D#3
Note ON: Time 2400, Note Name: C4, Velocity: 30
Note OFF: Time 2520, Note Name: C4
Note ON: Time 2520, Note Name: G#3, Velocity: 25
Note OFF: Time 2640, Note Name: G#3
Note ON: Time 2640, Note Name: D4, Velocity: 27
Note OFF: Time 2760, Note Name: D4
Note ON: Time 2760, Note Name: G#3, Velocity: 22
Note OFF: Time 2880, Note Name: G#3
Note ON: Time 2880, Note Name: G3, Velocity: 28
Note OFF: Time 3000, Note Name: G3
Note ON: Time 3000, Note Name: A#3, Velocity: 23
Note OFF: Time 3120, Note Name: A#3
Note ON: Time 3120, Note Name: G3, Velocity: 23
Note OFF: Time 3240, Note Name: G3
Note ON: Time 3240, Note Name: A#3, Velocity: 23
Note OFF: Time 3360, Note Name: A#3
Note ON: Time 3360, Note Name: G3, Velocity: 28
Note OFF: Time 3480, Note Name: G3
Note ON: Time 3480, Note Name: A#3, Velocity: 23
Note OFF: Time 3600, Note Name: A#3
Note ON: Time 3600, Note Name: G3, Velocity: 25
Note OFF: Time 3720, Note Name: G3
Note ON: Time 3720, Note Name: A#3, Velocity: 24
Note OFF: Time 3840, Note Name: A#3
Note ON: Time 3840, Note Name: G3, Velocity: 28
Note OFF: Time 3960, Note Name: G3
Note ON: Time 3960, Note Name: A#3, Velocity: 24
Note OFF: Time 4080, Note Name: A#3
Note ON: Time 4080, Note Name: G3, Velocity: 26
Note OFF: Time 4200, Note Name: G3
Note ON: Time 4200, Note Name: A#3, Velocity: 23
Note OFF: Time 4318, Note Name: A#3
Note ON: Time 4320, Note Name: G3, Velocity: 28
Note OFF: Time 4440, Note Name: G3
Note ON: Time 4440, Note Name: D#3, Velocity: 24
Note OFF: Time 4560, Note Name: D#3
Note ON: Time 4560, Note Name: G3, Velocity: 24
Note OFF: Time 4680, Note Name: G3
Note ON: Time 4680, Note Name: D#3, Velocity: 24
Note OFF: Time 4800, Note Name: D#3
Note ON: Time 4800, Note Name: G#3, Velocity: 28
Note OFF: Time 4920, Note Name: G#3
Note ON: Time 4920, Note Name: D#3, Velocity: 27
Note OFF: Time 5040, Note Name: D#3
Note ON: Time 5040, Note Name: G#3, Velocity: 27
Note OFF: Time 5160, Note Name: G#3
Note ON: Time 5160, Note Name: D#3, Velocity: 25
Note OFF: Time 5280, Note Name: D#3
Note ON: Time 5280, Note Name: D#3, Velocity: 28
Note OFF: Time 5400, Note Name: D#3
Note ON: Time 5400, Note Name: C3, Velocity: 24
Note OFF: Time 5520, Note Name: C3
Note ON: Time 5520, Note Name: D#3, Velocity: 26
Note OFF: Time 5640, Note Name: D#3
Note ON: Time 5640, Note Name: C3, Velocity: 24
Note OFF: Time 5760, Note Name: C3
Note ON: Time 5760, Note Name: F3, Velocity: 29
Note OFF: Time 5880, Note Name: F3
Note ON: Time 5880, Note Name: C#3, Velocity: 25
Note OFF: Time 6000, Note Name: C#3
Note ON: Time 6000, Note Name: F3, Velocity: 27
Note OFF: Time 6120, Note Name: F3
Note ON: Time 6120, Note Name: C#3, Velocity: 24
Note OFF: Time 6228, Note Name: C#3
Note ON: Time 6240, Note Name: C#3, Velocity: 30
Note OFF: Time 6348, Note Name: C#3
Note ON: Time 6360, Note Name: C#3, Velocity: 26
Note OFF: Time 6468, Note Name: C#3
Note ON: Time 6480, Note Name: C#3, Velocity: 28
Note OFF: Time 6588, Note Name: C#3
Note ON: Time 6600, Note Name: C#3, Velocity: 26
Note OFF: Time 6708, Note Name: C#3
Note ON: Time 6720, Note Name: C#3, Velocity: 31
Note OFF: Time 6840, Note Name: C#3
Note ON: Time 6840, Note Name: D#3, Velocity: 26
Note OFF: Time 6960, Note Name: D#3
Note ON: Time 6960, Note Name: C#3, Velocity: 28
Note OFF: Time 7080, Note Name: C#3
Note ON: Time 7080, Note Name: D#3, Velocity: 24
Note OFF: Time 7200, Note Name: D#3
Note ON: Time 7680, Note Name: G#3, Velocity: 25
Note OFF: Time 7800, Note Name: G#3
Note ON: Time 7800, Note Name: D#3, Velocity: 21
Note OFF: Time 7920, Note Name: D#3
Note ON: Time 7920, Note Name: G#3, Velocity: 23
Note OFF: Time 8040, Note Name: G#3
Note ON: Time 8040, Note Name: D#3, Velocity: 20
Note OFF: Time 8160, Note Name: D#3
Note ON: Time 8160, Note Name: G3, Velocity: 25
Note OFF: Time 8280, Note Name: G3
Note ON: Time 8280, Note Name: D#3, Velocity: 21
Note OFF: Time 8400, Note Name: D#3
Note ON: Time 8400, Note Name: G3, Velocity: 23
Note OFF: Time 8520, Note Name: G3
Note ON: Time 8520, Note Name: D#3, Velocity: 21
Note OFF: Time 8640, Note Name: D#3
Note ON: Time 8640, Note Name: G#3, Velocity: 25
Note OFF: Time 8760, Note Name: G#3
Note ON: Time 8760, Note Name: D#3, Velocity: 22
Note OFF: Time 8880, Note Name: D#3
Note ON: Time 8880, Note Name: G#3, Velocity: 22
Note OFF: Time 9000, Note Name: G#3
Note ON: Time 9000, Note Name: D#3, Velocity: 22
Note OFF: Time 9120, Note Name: D#3
Note ON: Time 9120, Note Name: G3, Velocity: 25
Note OFF: Time 9240, Note Name: G3
Note ON: Time 9240, Note Name: D#3, Velocity: 22
Note OFF: Time 9360, Note Name: D#3
Note ON: Time 9360, Note Name: G3, Velocity: 22
Note OFF: Time 9480, Note Name: G3
Note ON: Time 9480, Note Name: D#3, Velocity: 22
Note OFF: Time 9600, Note Name: D#3
Note ON: Time 9600, Note Name: G#3, Velocity: 30
Note OFF: Time 9720, Note Name: G#3
Note ON: Time 9720, Note Name: D#3, Velocity: 30
Note OFF: Time 9840, Note Name: D#3
Note ON: Time 9840, Note Name: G3, Velocity: 30
Note OFF: Time 9960, Note Name: G3
Note ON: Time 9960, Note Name: D#3, Velocity: 31
Note OFF: Time 10080, Note Name: D#3
Note ON: Time 10080, Note Name: F3, Velocity: 31
Note OFF: Time 10200, Note Name: F3
Note ON: Time 10200, Note Name: G#2, Velocity: 32
Note OFF: Time 10320, Note Name: G#2
Note ON: Time 10320, Note Name: F3, Velocity: 32
Note OFF: Time 10440, Note Name: F3
Note ON: Time 10440, Note Name: G#2, Velocity: 32
Note OFF: Time 10560, Note Name: G#2
Note ON: Time 10560, Note Name: D#2, Velocity: 46
Note OFF: Time 10680, Note Name: D#2
Note ON: Time 10680, Note Name: G2, Velocity: 25
Note OFF: Time 10800, Note Name: G2
Note ON: Time 10800, Note Name: A#2, Velocity: 25
Note OFF: Time 10920, Note Name: A#2
Note ON: Time 10920, Note Name: D#3, Velocity: 25
Note OFF: Time 11040, Note Name: D#3
Note ON: Time 11040, Note Name: G3, Velocity: 28
Note OFF: Time 11160, Note Name: G3
Note ON: Time 11160, Note Name: A#3, Velocity: 30
Note OFF: Time 11280, Note Name: A#3
Note ON: Time 11280, Note Name: G3, Velocity: 33
Note OFF: Time 11400, Note Name: G3
Note ON: Time 11400, Note Name: A#3, Velocity: 35
Note OFF: Time 11520, Note Name: A#3
Note ON: Time 11520, Note Name: C#2, Velocity: 40
Note OFF: Time 11640, Note Name: C#2
Note ON: Time 11640, Note Name: G2, Velocity: 24
Note OFF: Time 11760, Note Name: G2
Note ON: Time 11760, Note Name: A#2, Velocity: 26
Note OFF: Time 11880, Note Name: A#2
Note ON: Time 11880, Note Name: C#3, Velocity: 23
Note OFF: Time 12000, Note Name: C#3
Note ON: Time 12000, Note Name: G3, Velocity: 25
Note OFF: Time 12120, Note Name: G3
Note ON: Time 12120, Note Name: A#3, Velocity: 21
Note OFF: Time 12240, Note Name: A#3
Note ON: Time 12240, Note Name: G3, Velocity: 21
Note OFF: Time 12360, Note Name: G3
Note ON: Time 12360, Note Name: C#3, Velocity: 21
Note OFF: Time 12480, Note Name: C#3
Note ON: Time 12480, Note Name: C3, Velocity: 40
Note ON: Time 12600, Note Name: D#3, Velocity: 27
Note OFF: Time 12720, Note Name: D#3
Note OFF: Time 12720, Note Name: C3
Note ON: Time 12720, Note Name: C3, Velocity: 27
Note ON: Time 12840, Note Name: D#3, Velocity: 25
Note OFF: Time 12960, Note Name: D#3
Note OFF: Time 12960, Note Name: C3
Note ON: Time 12960, Note Name: C3, Velocity: 25
Note OFF: Time 13080, Note Name: C3
Note ON: Time 13080, Note Name: F3, Velocity: 21
Note OFF: Time 13200, Note Name: F3
Note ON: Time 13200, Note Name: C3, Velocity: 23
Note OFF: Time 13320, Note Name: C3
Note ON: Time 13320, Note Name: F3, Velocity: 21
Note OFF: Time 13440, Note Name: F3
Note ON: Time 13440, Note Name: C#3, Velocity: 26
Note OFF: Time 13560, Note Name: C#3
Note ON: Time 13560, Note Name: F3, Velocity: 22
Note OFF: Time 13680, Note Name: F3
Note ON: Time 13680, Note Name: C#3, Velocity: 24
Note OFF: Time 13800, Note Name: C#3
Note ON: Time 13800, Note Name: F3, Velocity: 21
Note OFF: Time 13920, Note Name: F3
Note ON: Time 13920, Note Name: A#2, Velocity: 27
Note OFF: Time 14040, Note Name: A#2
Note ON: Time 14040, Note Name: D#3, Velocity: 23
Note OFF: Time 14160, Note Name: D#3
Note ON: Time 14160, Note Name: A#2, Velocity: 25
Note OFF: Time 14280, Note Name: A#2
Note ON: Time 14280, Note Name: D#3, Velocity: 23
Note OFF: Time 14400, Note Name: D#3
Note ON: Time 14520, Note Name: D#3, Velocity: 23
Note OFF: Time 14640, Note Name: D#3
Note ON: Time 14640, Note Name: G3, Velocity: 25
Note OFF: Time 14760, Note Name: G3
Note ON: Time 14760, Note Name: D#3, Velocity: 21
Note OFF: Time 14880, Note Name: D#3
Note ON: Time 15480, Note Name: C4, Velocity: 25
Note OFF: Time 15588, Note Name: C4
Note ON: Time 15600, Note Name: C4, Velocity: 25
Note OFF: Time 15708, Note Name: C4
Note ON: Time 15720, Note Name: C4, Velocity: 25
Note OFF: Time 15828, Note Name: C4
Note ON: Time 15840, Note Name: C4, Velocity: 29
Note OFF: Time 15948, Note Name: C4
Note ON: Time 15960, Note Name: C4, Velocity: 25
Note OFF: Time 16068, Note Name: C4
Note ON: Time 16080, Note Name: C4, Velocity: 25
Note OFF: Time 16188, Note Name: C4
Note ON: Time 16200, Note Name: C4, Velocity: 25
Note OFF: Time 16308, Note Name: C4
Note ON: Time 16320, Note Name: E3, Velocity: 24
Note ON: Time 16320, Note Name: G3, Velocity: 24
Note ON: Time 16320, Note Name: C4, Velocity: 29
Note OFF: Time 16428, Note Name: C4
Note OFF: Time 16428, Note Name: G3
Note OFF: Time 16428, Note Name: E3
Note ON: Time 16440, Note Name: E3, Velocity: 21
Note ON: Time 16440, Note Name: G3, Velocity: 21
Note ON: Time 16440, Note Name: C4, Velocity: 25
Note OFF: Time 16548, Note Name: C4
Note OFF: Time 16548, Note Name: G3
Note OFF: Time 16548, Note Name: E3
Note ON: Time 16560, Note Name: E3, Velocity: 21
Note ON: Time 16560, Note Name: G3, Velocity: 21
Note ON: Time 16560, Note Name: C4, Velocity: 25
Note OFF: Time 16668, Note Name: C4
Note OFF: Time 16668, Note Name: G3
Note OFF: Time 16668, Note Name: E3
Note ON: Time 16680, Note Name: E3, Velocity: 21
Note ON: Time 16680, Note Name: G3, Velocity: 21
Note ON: Time 16680, Note Name: C4, Velocity: 25
Note OFF: Time 16788, Note Name: C4
Note OFF: Time 16788, Note Name: G3
Note OFF: Time 16788, Note Name: E3
Note ON: Time 16800, Note Name: F3, Velocity: 24
Note ON: Time 16800, Note Name: G#3, Velocity: 24
Note ON: Time 16800, Note Name: C4, Velocity: 29
Note OFF: Time 16908, Note Name: C4
Note OFF: Time 16908, Note Name: G#3
Note OFF: Time 16908, Note Name: F3
Note ON: Time 16920, Note Name: F3, Velocity: 21
Note ON: Time 16920, Note Name: G#3, Velocity: 21
Note ON: Time 16920, Note Name: C4, Velocity: 25
Note OFF: Time 17028, Note Name: C4
Note OFF: Time 17028, Note Name: G#3
Note OFF: Time 17028, Note Name: F3
Note ON: Time 17040, Note Name: F3, Velocity: 21
Note ON: Time 17040, Note Name: G#3, Velocity: 21
Note ON: Time 17040, Note Name: C4, Velocity: 25
Note OFF: Time 17148, Note Name: C4
Note OFF: Time 17148, Note Name: G#3
Note OFF: Time 17148, Note Name: F3
Note ON: Time 17160, Note Name: F3, Velocity: 21
Note ON: Time 17160, Note Name: G#3, Velocity: 21
Note ON: Time 17160, Note Name: C4, Velocity: 25
Note OFF: Time 17268, Note Name: C4
Note OFF: Time 17268, Note Name: G#3
Note OFF: Time 17268, Note Name: F3
Note ON: Time 17280, Note Name: G3, Velocity: 24
Note ON: Time 17280, Note Name: A#3, Velocity: 24
Note ON: Time 17280, Note Name: E4, Velocity: 29
Note OFF: Time 17388, Note Name: E4
Note OFF: Time 17388, Note Name: A#3
Note OFF: Time 17388, Note Name: G3
Note ON: Time 17400, Note Name: G3, Velocity: 21
Note ON: Time 17400, Note Name: A#3, Velocity: 21
Note ON: Time 17400, Note Name: E4, Velocity: 25
Note OFF: Time 17508, Note Name: E4
Note OFF: Time 17508, Note Name: A#3
Note OFF: Time 17508, Note Name: G3
Note ON: Time 17520, Note Name: G3, Velocity: 21
Note ON: Time 17520, Note Name: A#3, Velocity: 21
Note ON: Time 17520, Note Name: E4, Velocity: 25
Note OFF: Time 17628, Note Name: E4
Note OFF: Time 17628, Note Name: A#3
Note OFF: Time 17628, Note Name: G3
Note ON: Time 17640, Note Name: G3, Velocity: 21
Note ON: Time 17640, Note Name: A#3, Velocity: 21
Note ON: Time 17640, Note Name: E4, Velocity: 25
Note OFF: Time 17748, Note Name: E4
Note OFF: Time 17748, Note Name: A#3
Note OFF: Time 17748, Note Name: G3
Note ON: Time 17760, Note Name: G#3, Velocity: 26
Note ON: Time 17760, Note Name: C4, Velocity: 26
Note ON: Time 17760, Note Name: F4, Velocity: 31
Note OFF: Time 17868, Note Name: F4
Note OFF: Time 17868, Note Name: C4
Note OFF: Time 17868, Note Name: G#3
Note ON: Time 17880, Note Name: G#3, Velocity: 23
Note ON: Time 17880, Note Name: C4, Velocity: 23
Note ON: Time 17880, Note Name: F4, Velocity: 28
Note OFF: Time 17988, Note Name: F4
Note OFF: Time 17988, Note Name: C4
Note OFF: Time 17988, Note Name: G#3
Note ON: Time 18000, Note Name: G#3, Velocity: 24
Note ON: Time 18000, Note Name: C4, Velocity: 24
Note ON: Time 18000, Note Name: F4, Velocity: 29
Note OFF: Time 18108, Note Name: F4
Note OFF: Time 18108, Note Name: C4
Note OFF: Time 18108, Note Name: G#3
Note ON: Time 18120, Note Name: G#3, Velocity: 24
Note ON: Time 18120, Note Name: C4, Velocity: 24
Note ON: Time 18120, Note Name: F4, Velocity: 29
Note OFF: Time 18228, Note Name: F4
Note OFF: Time 18228, Note Name: C4
Note OFF: Time 18228, Note Name: G#3
Note ON: Time 18240, Note Name: A#3, Velocity: 25
Note ON: Time 18240, Note Name: F4, Velocity: 25
Note ON: Time 18240, Note Name: G#4, Velocity: 30
Note OFF: Time 18348, Note Name: G#4
Note OFF: Time 18348, Note Name: F4
Note OFF: Time 18348, Note Name: A#3
Note ON: Time 18360, Note Name: A#3, Velocity: 26
Note ON: Time 18360, Note Name: F4, Velocity: 26
Note ON: Time 18360, Note Name: G#4, Velocity: 31
Note OFF: Time 18468, Note Name: G#4
Note OFF: Time 18468, Note Name: F4
Note OFF: Time 18468, Note Name: A#3
Note ON: Time 18480, Note Name: A#3, Velocity: 28
Note ON: Time 18480, Note Name: F4, Velocity: 28
Note ON: Time 18480, Note Name: G#4, Velocity: 33
Note OFF: Time 18588, Note Name: G#4
Note OFF: Time 18588, Note Name: F4
Note OFF: Time 18588, Note Name: A#3
Note ON: Time 18600, Note Name: A#3, Velocity: 30
Note ON: Time 18600, Note Name: F4, Velocity: 30
Note ON: Time 18600, Note Name: G#4, Velocity: 35
Note OFF: Time 18708, Note Name: G#4
Note OFF: Time 18708, Note Name: F4
Note OFF: Time 18708, Note Name: A#3
Note ON: Time 18720, Note Name: B3, Velocity: 32
Note ON: Time 18720, Note Name: F4, Velocity: 32
Note ON: Time 18720, Note Name: G#4, Velocity: 38
Note OFF: Time 18828, Note Name: G#4
Note OFF: Time 18828, Note Name: F4
Note OFF: Time 18828, Note Name: B3
Note ON: Time 18840, Note Name: B3, Velocity: 27
Note ON: Time 18840, Note Name: F4, Velocity: 27
Note ON: Time 18840, Note Name: G#4, Velocity: 33
Note OFF: Time 18948, Note Name: G#4
Note OFF: Time 18948, Note Name: F4
Note OFF: Time 18948, Note Name: B3
Note ON: Time 18960, Note Name: B3, Velocity: 27
Note ON: Time 18960, Note Name: D4, Velocity: 27
Note ON: Time 18960, Note Name: G#4, Velocity: 33
Note OFF: Time 19068, Note Name: G#4
Note OFF: Time 19068, Note Name: D4
Note OFF: Time 19068, Note Name: B3
Note ON: Time 19080, Note Name: B3, Velocity: 25
Note ON: Time 19080, Note Name: D4, Velocity: 25
Note ON: Time 19080, Note Name: G#4, Velocity: 30
Note OFF: Time 19188, Note Name: G#4
Note OFF: Time 19188, Note Name: D4
Note OFF: Time 19188, Note Name: B3
Note ON: Time 19200, Note Name: C4, Velocity: 27
Note ON: Time 19200, Note Name: D#4, Velocity: 27
Note ON: Time 19200, Note Name: G4, Velocity: 32
Note OFF: Time 19308, Note Name: G4
Note OFF: Time 19308, Note Name: D#4
Note OFF: Time 19308, Note Name: C4
Note ON: Time 19320, Note Name: C4, Velocity: 22
Note ON: Time 19320, Note Name: D#4, Velocity: 22
Note ON: Time 19320, Note Name: G4, Velocity: 27
Note OFF: Time 19428, Note Name: G4
Note OFF: Time 19428, Note Name: D#4
Note OFF: Time 19428, Note Name: C4
Note ON: Time 19440, Note Name: C4, Velocity: 22
Note ON: Time 19440, Note Name: D#4, Velocity: 22
Note ON: Time 19440, Note Name: G4, Velocity: 27
Note OFF: Time 19548, Note Name: G4
Note OFF: Time 19548, Note Name: D#4
Note OFF: Time 19548, Note Name: C4
Note ON: Time 19560, Note Name: C4, Velocity: 22
Note ON: Time 19560, Note Name: D#4, Velocity: 22
Note ON: Time 19560, Note Name: G4, Velocity: 27
Note OFF: Time 19668, Note Name: G4
Note OFF: Time 19668, Note Name: D#4
Note OFF: Time 19668, Note Name: C4
Note ON: Time 19680, Note Name: G#3, Velocity: 28
Note ON: Time 19680, Note Name: D#4, Velocity: 33
Note OFF: Time 19788, Note Name: D#4
Note OFF: Time 19788, Note Name: G#3
Note ON: Time 19800, Note Name: G#3, Velocity: 25
Note ON: Time 19800, Note Name: D#4, Velocity: 30
Note OFF: Time 19908, Note Name: D#4
Note OFF: Time 19908, Note Name: G#3
Note ON: Time 19920, Note Name: G#3, Velocity: 25
Note ON: Time 19920, Note Name: D#4, Velocity: 30
Note OFF: Time 20028, Note Name: D#4
Note OFF: Time 20028, Note Name: G#3
Note ON: Time 20040, Note Name: G#3, Velocity: 25
Note ON: Time 20040, Note Name: D#4, Velocity: 30
Note OFF: Time 20148, Note Name: D#4
Note OFF: Time 20148, Note Name: G#3
Note ON: Time 20400, Note Name: A#3, Velocity: 25
Note ON: Time 20400, Note Name: D#4, Velocity: 25
Note ON: Time 20400, Note Name: G4, Velocity: 30
Note OFF: Time 20508, Note Name: G4
Note OFF: Time 20508, Note Name: D#4
Note OFF: Time 20508, Note Name: A#3
Note ON: Time 20520, Note Name: A#3, Velocity: 25
Note ON: Time 20520, Note Name: D#4, Velocity: 25
Note ON: Time 20520, Note Name: G4, Velocity: 30
Note OFF: Time 20628, Note Name: G4
Note OFF: Time 20628, Note Name: D#4
Note OFF: Time 20628, Note Name: A#3
Note ON: Time 20640, Note Name: A#3, Velocity: 25
Note ON: Time 20640, Note Name: D#4, Velocity: 25
Note ON: Time 20640, Note Name: G4, Velocity: 30
Note OFF: Time 20748, Note Name: G4
Note OFF: Time 20748, Note Name: D#4
Note OFF: Time 20748, Note Name: A#3
Note ON: Time 20880, Note Name: A#2, Velocity: 25
Note ON: Time 20880, Note Name: D3, Velocity: 25
Note ON: Time 20880, Note Name: G#3, Velocity: 30
Note OFF: Time 20988, Note Name: G#3
Note OFF: Time 20988, Note Name: D3
Note OFF: Time 20988, Note Name: A#2
Note ON: Time 21000, Note Name: A#2, Velocity: 25
Note ON: Time 21000, Note Name: D3, Velocity: 25
Note ON: Time 21000, Note Name: G#3, Velocity: 30
Note OFF: Time 21108, Note Name: G#3
Note OFF: Time 21108, Note Name: D3
Note OFF: Time 21108, Note Name: A#2
Note ON: Time 21120, Note Name: A#2, Velocity: 25
Note ON: Time 21120, Note Name: D3, Velocity: 25
Note ON: Time 21120, Note Name: G#3, Velocity: 30
Note OFF: Time 21228, Note Name: G#3
Note OFF: Time 21228, Note Name: D3
Note OFF: Time 21228, Note Name: A#2
Note ON: Time 27000, Note Name: G#3, Velocity: 28
Note OFF: Time 27120, Note Name: G#3
Note ON: Time 27120, Note Name: D#3, Velocity: 24
Note OFF: Time 27240, Note Name: D#3
Note ON: Time 27240, Note Name: G#3, Velocity: 26
Note OFF: Time 27360, Note Name: G#3
Note ON: Time 27360, Note Name: D#3, Velocity: 23
Note OFF: Time 27480, Note Name: D#3
Note ON: Time 27480, Note Name: G3, Velocity: 28
Note OFF: Time 27600, Note Name: G3
Note ON: Time 27600, Note Name: D#3, Velocity: 24
Note OFF: Time 27720, Note Name: D#3
Note ON: Time 27720, Note Name: G3, Velocity: 26
Note OFF: Time 27840, Note Name: G3
Note ON: Time 27840, Note Name: D#3, Velocity: 24
Note OFF: Time 27960, Note Name: D#3
Note ON: Time 27960, Note Name: G#3, Velocity: 28
Note OFF: Time 28080, Note Name: G#3
Note ON: Time 28080, Note Name: D#3, Velocity: 25
Note OFF: Time 28200, Note Name: D#3
Note ON: Time 28200, Note Name: G#3, Velocity: 25
Note OFF: Time 28320, Note Name: G#3
Note ON: Time 28320, Note Name: D#3, Velocity: 25
Note OFF: Time 28440, Note Name: D#3
Note ON: Time 28440, Note Name: A#3, Velocity: 28
Note OFF: Time 28560, Note Name: A#3
Note ON: Time 28560, Note Name: D#3, Velocity: 25
Note OFF: Time 28680, Note Name: D#3
Note ON: Time 28680, Note Name: A#3, Velocity: 25
Note OFF: Time 28800, Note Name: A#3
Note ON: Time 28800, Note Name: D#3, Velocity: 25
Note OFF: Time 28920, Note Name: D#3
Note ON: Time 28920, Note Name: G#3, Velocity: 29
Note OFF: Time 29040, Note Name: G#3
Note ON: Time 29040, Note Name: D#3, Velocity: 25
Note OFF: Time 29160, Note Name: D#3
Note ON: Time 29160, Note Name: A#3, Velocity: 27
Note OFF: Time 29280, Note Name: A#3
Note ON: Time 29280, Note Name: D#3, Velocity: 24
Note OFF: Time 29400, Note Name: D#3
Note ON: Time 29400, Note Name: C4, Velocity: 33
Note OFF: Time 29520, Note Name: C4
Note ON: Time 29520, Note Name: G#3, Velocity: 28
Note OFF: Time 29640, Note Name: G#3
Note ON: Time 29640, Note Name: D4, Velocity: 31
Note OFF: Time 29760, Note Name: D4
Note ON: Time 29760, Note Name: G#3, Velocity: 26
Note OFF: Time 29880, Note Name: G#3
Note ON: Time 29880, Note Name: G3, Velocity: 28
Note OFF: Time 30000, Note Name: G3
Note ON: Time 30000, Note Name: A#3, Velocity: 23
Note OFF: Time 30120, Note Name: A#3
Note ON: Time 30120, Note Name: G3, Velocity: 23
Note OFF: Time 30240, Note Name: G3
Note ON: Time 30240, Note Name: A#3, Velocity: 23
Note OFF: Time 30360, Note Name: A#3
Note ON: Time 30360, Note Name: G3, Velocity: 28
Note OFF: Time 30480, Note Name: G3
Note ON: Time 30480, Note Name: A#3, Velocity: 23
Note OFF: Time 30600, Note Name: A#3
Note ON: Time 30600, Note Name: G3, Velocity: 25
Note OFF: Time 30720, Note Name: G3
Note ON: Time 30720, Note Name: A#3, Velocity: 24
Note OFF: Time 30840, Note Name: A#3
Note ON: Time 30840, Note Name: G3, Velocity: 28
Note OFF: Time 30960, Note Name: G3
Note ON: Time 30960, Note Name: A#3, Velocity: 24
Note OFF: Time 31080, Note Name: A#3
Note ON: Time 31080, Note Name: G3, Velocity: 26
Note OFF: Time 31200, Note Name: G3
Note ON: Time 31200, Note Name: A#3, Velocity: 23
Note OFF: Time 31318, Note Name: A#3
Note ON: Time 31320, Note Name: G3, Velocity: 28
Note OFF: Time 31440, Note Name: G3
Note ON: Time 31440, Note Name: D#3, Velocity: 24
Note OFF: Time 31560, Note Name: D#3
Note ON: Time 31560, Note Name: G3, Velocity: 24
Note OFF: Time 31680, Note Name: G3
Note ON: Time 31680, Note Name: D#3, Velocity: 24
Note OFF: Time 31800, Note Name: D#3
Note ON: Time 31800, Note Name: G#3, Velocity: 28
Note OFF: Time 31920, Note Name: G#3
Note ON: Time 31920, Note Name: D#3, Velocity: 27
Note OFF: Time 32040, Note Name: D#3
Note ON: Time 32040, Note Name: G#3, Velocity: 27
Note OFF: Time 32160, Note Name: G#3
Note ON: Time 32160, Note Name: D#3, Velocity: 25
Note OFF: Time 32280, Note Name: D#3
Note ON: Time 32280, Note Name: D#3, Velocity: 28
Note OFF: Time 32400, Note Name: D#3
Note ON: Time 32400, Note Name: C3, Velocity: 24
Note OFF: Time 32520, Note Name: C3
Note ON: Time 32520, Note Name: D#3, Velocity: 26
Note OFF: Time 32640, Note Name: D#3
Note ON: Time 32640, Note Name: C3, Velocity: 24
Note OFF: Time 32760, Note Name: C3
Note ON: Time 32760, Note Name: F3, Velocity: 29
Note OFF: Time 32880, Note Name: F3
Note ON: Time 32880, Note Name: C#3, Velocity: 25
Note OFF: Time 33000, Note Name: C#3
Note ON: Time 33000, Note Name: F3, Velocity: 27
Note OFF: Time 33120, Note Name: F3
Note ON: Time 33120, Note Name: C#3, Velocity: 24
Note OFF: Time 33210, Note Name: C#3
Note ON: Time 33240, Note Name: C#3, Velocity: 30
Note OFF: Time 33330, Note Name: C#3
Note ON: Time 33360, Note Name: C#3, Velocity: 26
Note OFF: Time 33450, Note Name: C#3
Note ON: Time 33480, Note Name: C#3, Velocity: 28
Note OFF: Time 33570, Note Name: C#3
Note ON: Time 33600, Note Name: C#3, Velocity: 26
Note OFF: Time 33690, Note Name: C#3
Note ON: Time 33720, Note Name: C#3, Velocity: 31
Note OFF: Time 33840, Note Name: C#3
Note ON: Time 33840, Note Name: D#3, Velocity: 26
Note OFF: Time 33960, Note Name: D#3
Note ON: Time 33960, Note Name: C#3, Velocity: 28
Note OFF: Time 34080, Note Name: C#3
Note ON: Time 34080, Note Name: D#3, Velocity: 24
Note OFF: Time 34200, Note Name: D#3
Note ON: Time 39480, Note Name: A2, Velocity: 45
Note ON: Time 39480, Note Name: B2, Velocity: 50
Note ON: Time 39480, Note Name: D#3, Velocity: 54
Note ON: Time 39480, Note Name: F#3, Velocity: 64
Note OFF: Time 39540, Note Name: F#3
Note OFF: Time 39540, Note Name: A2
Note OFF: Time 39540, Note Name: B2
Note OFF: Time 39540, Note Name: D#3
Note ON: Time 39560, Note Name: A2, Velocity: 42
Note ON: Time 39560, Note Name: B2, Velocity: 50
Note ON: Time 39560, Note Name: D#3, Velocity: 50
Note ON: Time 39560, Note Name: F#3, Velocity: 60
Note OFF: Time 39620, Note Name: F#3
Note OFF: Time 39620, Note Name: A2
Note OFF: Time 39620, Note Name: B2
Note OFF: Time 39620, Note Name: D#3
Note ON: Time 39640, Note Name: A2, Velocity: 42
Note ON: Time 39640, Note Name: B2, Velocity: 50
Note ON: Time 39640, Note Name: D#3, Velocity: 50
Note ON: Time 39640, Note Name: F#3, Velocity: 60
Note OFF: Time 39700, Note Name: F#3
Note OFF: Time 39700, Note Name: A2
Note OFF: Time 39700, Note Name: B2
Note OFF: Time 39700, Note Name: D#3
Note ON: Time 39720, Note Name: A2, Velocity: 42
Note ON: Time 39720, Note Name: B2, Velocity: 50
Note ON: Time 39720, Note Name: D#3, Velocity: 50
Note ON: Time 39720, Note Name: F#3, Velocity: 60
Note OFF: Time 39780, Note Name: F#3
Note OFF: Time 39780, Note Name: A2
Note OFF: Time 39780, Note Name: B2
Note OFF: Time 39780, Note Name: D#3
Note ON: Time 39800, Note Name: A2, Velocity: 42
Note ON: Time 39800, Note Name: B2, Velocity: 50
Note ON: Time 39800, Note Name: D#3, Velocity: 50
Note ON: Time 39800, Note Name: F#3, Velocity: 60
Note OFF: Time 39860, Note Name: F#3
Note OFF: Time 39860, Note Name: A2
Note OFF: Time 39860, Note Name: B2
Note OFF: Time 39860, Note Name: D#3
Note ON: Time 39880, Note Name: A2, Velocity: 42
Note ON: Time 39880, Note Name: B2, Velocity: 50
Note ON: Time 39880, Note Name: D#3, Velocity: 50
Note ON: Time 39880, Note Name: F#3, Velocity: 60
Note OFF: Time 39940, Note Name: F#3
Note OFF: Time 39940, Note Name: A2
Note OFF: Time 39940, Note Name: B2
Note OFF: Time 39940, Note Name: D#3
Note ON: Time 39960, Note Name: G#2, Velocity: 46
Note ON: Time 39960, Note Name: B2, Velocity: 55
Note ON: Time 39960, Note Name: E3, Velocity: 55
Note ON: Time 39960, Note Name: G#3, Velocity: 66
Note OFF: Time 40020, Note Name: G#3
Note OFF: Time 40020, Note Name: G#2
Note OFF: Time 40020, Note Name: B2
Note OFF: Time 40020, Note Name: E3
Note ON: Time 40040, Note Name: G#2, Velocity: 42
Note ON: Time 40040, Note Name: B2, Velocity: 50
Note ON: Time 40040, Note Name: E3, Velocity: 50
Note ON: Time 40040, Note Name: G#3, Velocity: 60
Note OFF: Time 40100, Note Name: G#3
Note OFF: Time 40100, Note Name: G#2
Note OFF: Time 40100, Note Name: B2
Note OFF: Time 40100, Note Name: E3
Note ON: Time 40120, Note Name: G#2, Velocity: 42
Note ON: Time 40120, Note Name: B2, Velocity: 50
Note ON: Time 40120, Note Name: E3, Velocity: 50
Note ON: Time 40120, Note Name: G#3, Velocity: 60
Note OFF: Time 40180, Note Name: G#3
Note OFF: Time 40180, Note Name: G#2
Note OFF: Time 40180, Note Name: B2
Note OFF: Time 40180, Note Name: E3
Note ON: Time 40200, Note Name: G#2, Velocity: 42
Note ON: Time 40200, Note Name: B2, Velocity: 50
Note ON: Time 40200, Note Name: E3, Velocity: 50
Note ON: Time 40200, Note Name: G#3, Velocity: 60
Note OFF: Time 40260, Note Name: G#3
Note OFF: Time 40260, Note Name: G#2
Note OFF: Time 40260, Note Name: B2
Note OFF: Time 40260, Note Name: E3
Note ON: Time 40280, Note Name: G#2, Velocity: 42
Note ON: Time 40280, Note Name: B2, Velocity: 49
Note ON: Time 40280, Note Name: E3, Velocity: 49
Note ON: Time 40280, Note Name: G#3, Velocity: 58
Note OFF: Time 40340, Note Name: G#3
Note OFF: Time 40340, Note Name: G#2
Note OFF: Time 40340, Note Name: B2
Note OFF: Time 40340, Note Name: E3
Note ON: Time 40360, Note Name: G#2, Velocity: 42
Note ON: Time 40360, Note Name: B2, Velocity: 49
Note ON: Time 40360, Note Name: E3, Velocity: 49
Note ON: Time 40360, Note Name: G#3, Velocity: 58
Note OFF: Time 40420, Note Name: G#3
Note OFF: Time 40420, Note Name: G#2
Note OFF: Time 40420, Note Name: B2
Note OFF: Time 40420, Note Name: E3
Note ON: Time 40440, Note Name: C#3, Velocity: 46
Note ON: Time 40440, Note Name: E3, Velocity: 55
Note ON: Time 40440, Note Name: F#3, Velocity: 55
Note ON: Time 40440, Note Name: A#3, Velocity: 66
Note OFF: Time 40500, Note Name: A#3
Note OFF: Time 40500, Note Name: C#3
Note OFF: Time 40500, Note Name: E3
Note OFF: Time 40500, Note Name: F#3
Note ON: Time 40520, Note Name: C#3, Velocity: 40
Note ON: Time 40520, Note Name: E3, Velocity: 48
Note ON: Time 40520, Note Name: F#3, Velocity: 48
Note ON: Time 40520, Note Name: A#3, Velocity: 57
Note OFF: Time 40580, Note Name: A#3
Note OFF: Time 40580, Note Name: C#3
Note OFF: Time 40580, Note Name: E3
Note OFF: Time 40580, Note Name: F#3
Note ON: Time 40600, Note Name: C#3, Velocity: 40
Note ON: Time 40600, Note Name: E3, Velocity: 48
Note ON: Time 40600, Note Name: F#3, Velocity: 48
Note ON: Time 40600, Note Name: A#3, Velocity: 57
Note OFF: Time 40660, Note Name: A#3
Note OFF: Time 40660, Note Name: C#3
Note OFF: Time 40660, Note Name: E3
Note OFF: Time 40660, Note Name: F#3
Note ON: Time 40680, Note Name: C#3, Velocity: 40
Note ON: Time 40680, Note Name: E3, Velocity: 48
Note ON: Time 40680, Note Name: F#3, Velocity: 48
Note ON: Time 40680, Note Name: A#3, Velocity: 57
Note OFF: Time 40740, Note Name: A#3
Note OFF: Time 40740, Note Name: C#3
Note OFF: Time 40740, Note Name: E3
Note OFF: Time 40740, Note Name: F#3
Note ON: Time 40760, Note Name: C#3, Velocity: 40
Note ON: Time 40760, Note Name: E3, Velocity: 48
Note ON: Time 40760, Note Name: F#3, Velocity: 48
Note ON: Time 40760, Note Name: A#3, Velocity: 57
Note OFF: Time 40820, Note Name: A#3
Note OFF: Time 40820, Note Name: C#3
Note OFF: Time 40820, Note Name: E3
Note OFF: Time 40820, Note Name: F#3
Note ON: Time 40840, Note Name: C#3, Velocity: 40
Note ON: Time 40840, Note Name: E3, Velocity: 48
Note ON: Time 40840, Note Name: F#3, Velocity: 48
Note ON: Time 40840, Note Name: A#3, Velocity: 57
Note OFF: Time 40900, Note Name: A#3
Note OFF: Time 40900, Note Name: C#3
Note OFF: Time 40900, Note Name: E3
Note OFF: Time 40900, Note Name: F#3
Note ON: Time 40920, Note Name: B2, Velocity: 51
Note ON: Time 40920, Note Name: E3, Velocity: 61
Note ON: Time 40920, Note Name: G#3, Velocity: 61
Note ON: Time 40920, Note Name: B3, Velocity: 73
Note OFF: Time 40980, Note Name: B3
Note OFF: Time 40980, Note Name: B2
Note OFF: Time 40980, Note Name: E3
Note OFF: Time 40980, Note Name: G#3
Note ON: Time 41000, Note Name: B2, Velocity: 46
Note ON: Time 41000, Note Name: E3, Velocity: 55
Note ON: Time 41000, Note Name: G#3, Velocity: 55
Note ON: Time 41000, Note Name: B3, Velocity: 66
Note OFF: Time 41060, Note Name: B3
Note OFF: Time 41060, Note Name: B2
Note OFF: Time 41060, Note Name: E3
Note OFF: Time 41060, Note Name: G#3
Note ON: Time 41080, Note Name: B2, Velocity: 46
Note ON: Time 41080, Note Name: E3, Velocity: 55
Note ON: Time 41080, Note Name: G#3, Velocity: 55
Note ON: Time 41080, Note Name: B3, Velocity: 66
Note OFF: Time 41140, Note Name: B3
Note OFF: Time 41140, Note Name: B2
Note OFF: Time 41140, Note Name: E3
Note OFF: Time 41140, Note Name: G#3
Note ON: Time 41160, Note Name: B1, Velocity: 55
Note ON: Time 41160, Note Name: B2, Velocity: 66
Note OFF: Time 41220, Note Name: B2
Note OFF: Time 41220, Note Name: B1
Note ON: Time 41240, Note Name: B1, Velocity: 55
Note ON: Time 41240, Note Name: B2, Velocity: 66
Note OFF: Time 41300, Note Name: B2
Note OFF: Time 41300, Note Name: B1
Note ON: Time 41320, Note Name: B1, Velocity: 55
Note ON: Time 41320, Note Name: B2, Velocity: 66
Note OFF: Time 41380, Note Name: B2
Note OFF: Time 41380, Note Name: B1
Note ON: Time 41400, Note Name: E2, Velocity: 55
Note ON: Time 41400, Note Name: E3, Velocity: 55
Note OFF: Time 41640, Note Name: E3
Note OFF: Time 41640, Note Name: E2
Note ON: Time 48120, Note Name: C3, Velocity: 28
Note OFF: Time 48200, Note Name: C3
Note ON: Time 48200, Note Name: D#3, Velocity: 26
Note OFF: Time 48260, Note Name: D#3
Note ON: Time 48280, Note Name: D#3, Velocity: 26
Note OFF: Time 48340, Note Name: D#3
Note ON: Time 48360, Note Name: G#3, Velocity: 28
Note OFF: Time 48440, Note Name: G#3
Note ON: Time 48440, Note Name: D#3, Velocity: 26
Note OFF: Time 48500, Note Name: D#3
Note ON: Time 48520, Note Name: D#3, Velocity: 26
Note OFF: Time 48580, Note Name: D#3
Note ON: Time 48600, Note Name: G3, Velocity: 28
Note OFF: Time 48680, Note Name: G3
Note ON: Time 48680, Note Name: D#3, Velocity: 26
Note OFF: Time 48740, Note Name: D#3
Note ON: Time 48760, Note Name: D#3, Velocity: 26
Note OFF: Time 48820, Note Name: D#3
Note ON: Time 48840, Note Name: G3, Velocity: 28
Note OFF: Time 48920, Note Name: G3
Note ON: Time 48920, Note Name: D#3, Velocity: 27
Note OFF: Time 48980, Note Name: D#3
Note ON: Time 49000, Note Name: D#3, Velocity: 27
Note OFF: Time 49060, Note Name: D#3
Note ON: Time 49080, Note Name: G#3, Velocity: 28
Note OFF: Time 49160, Note Name: G#3
Note ON: Time 49160, Note Name: D#3, Velocity: 26
Note OFF: Time 49220, Note Name: D#3
Note ON: Time 49240, Note Name: D#3, Velocity: 26
Note OFF: Time 49300, Note Name: D#3
Note ON: Time 49320, Note Name: G#3, Velocity: 28
Note OFF: Time 49400, Note Name: G#3
Note ON: Time 49400, Note Name: D#3, Velocity: 26
Note OFF: Time 49460, Note Name: D#3
Note ON: Time 49480, Note Name: D#3, Velocity: 26
Note OFF: Time 49540, Note Name: D#3
Note ON: Time 49560, Note Name: A#3, Velocity: 28
Note OFF: Time 49640, Note Name: A#3
Note ON: Time 49640, Note Name: D#3, Velocity: 25
Note OFF: Time 49700, Note Name: D#3
Note ON: Time 49720, Note Name: D#3, Velocity: 25
Note OFF: Time 49780, Note Name: D#3
Note ON: Time 49800, Note Name: A#3, Velocity: 25
Note OFF: Time 49880, Note Name: A#3
Note ON: Time 49880, Note Name: D#3, Velocity: 25
Note OFF: Time 49940, Note Name: D#3
Note ON: Time 49960, Note Name: D#3, Velocity: 25
Note OFF: Time 50020, Note Name: D#3
Note ON: Time 50040, Note Name: G#3, Velocity: 29
Note OFF: Time 50120, Note Name: G#3
Note ON: Time 50120, Note Name: D#3, Velocity: 27
Note OFF: Time 50180, Note Name: D#3
Note ON: Time 50200, Note Name: D#3, Velocity: 27
Note OFF: Time 50260, Note Name: D#3
Note ON: Time 50280, Note Name: A#3, Velocity: 26
Note OFF: Time 50360, Note Name: A#3
Note ON: Time 50360, Note Name: D#3, Velocity: 26
Note OFF: Time 50420, Note Name: D#3
Note ON: Time 50440, Note Name: D#3, Velocity: 26
Note OFF: Time 50500, Note Name: D#3
Note ON: Time 50520, Note Name: C4, Velocity: 30
Note OFF: Time 50600, Note Name: C4
Note ON: Time 50600, Note Name: G#3, Velocity: 27
Note OFF: Time 50660, Note Name: G#3
Note ON: Time 50680, Note Name: G#3, Velocity: 27
Note OFF: Time 50740, Note Name: G#3
Note ON: Time 50760, Note Name: D4, Velocity: 27
Note OFF: Time 50840, Note Name: D4
Note ON: Time 50840, Note Name: G#3, Velocity: 27
Note OFF: Time 50900, Note Name: G#3
Note ON: Time 50920, Note Name: G#3, Velocity: 25
Note OFF: Time 50980, Note Name: G#3
Note ON: Time 51000, Note Name: G3, Velocity: 28
Note OFF: Time 51080, Note Name: G3
Note ON: Time 51080, Note Name: A#3, Velocity: 27
Note OFF: Time 51140, Note Name: A#3
Note ON: Time 51160, Note Name: A#3, Velocity: 27
Note OFF: Time 51220, Note Name: A#3
Note ON: Time 51240, Note Name: G3, Velocity: 23
Note OFF: Time 51320, Note Name: G3
Note ON: Time 51320, Note Name: A#3, Velocity: 23
Note OFF: Time 51380, Note Name: A#3
Note ON: Time 51400, Note Name: A#3, Velocity: 23
Note OFF: Time 51460, Note Name: A#3
Note ON: Time 51480, Note Name: G3, Velocity: 28
Note OFF: Time 51560, Note Name: G3
Note ON: Time 51560, Note Name: A#3, Velocity: 26
Note OFF: Time 51620, Note Name: A#3
Note ON: Time 51640, Note Name: A#3, Velocity: 26
Note OFF: Time 51700, Note Name: A#3
Note ON: Time 51720, Note Name: G3, Velocity: 25
Note OFF: Time 51800, Note Name: G3
Note ON: Time 51800, Note Name: A#3, Velocity: 25
Note OFF: Time 51860, Note Name: A#3
Note ON: Time 51880, Note Name: A#3, Velocity: 25
Note OFF: Time 51940, Note Name: A#3
Note ON: Time 51960, Note Name: G3, Velocity: 28
Note OFF: Time 52040, Note Name: G3
Note ON: Time 52040, Note Name: A#3, Velocity: 25
Note OFF: Time 52100, Note Name: A#3
Note ON: Time 52120, Note Name: A#3, Velocity: 25
Note OFF: Time 52180, Note Name: A#3
Note ON: Time 52200, Note Name: G3, Velocity: 26
Note OFF: Time 52280, Note Name: G3
Note ON: Time 52280, Note Name: A#3, Velocity: 26
Note OFF: Time 52340, Note Name: A#3
Note ON: Time 52360, Note Name: A#3, Velocity: 26
Note OFF: Time 52419, Note Name: A#3
Note ON: Time 52440, Note Name: G3, Velocity: 28
Note OFF: Time 52520, Note Name: G3
Note ON: Time 52520, Note Name: D#3, Velocity: 26
Note OFF: Time 52580, Note Name: D#3
Note ON: Time 52600, Note Name: D#3, Velocity: 26
Note OFF: Time 52660, Note Name: D#3
Note ON: Time 52680, Note Name: G3, Velocity: 24
Note OFF: Time 52760, Note Name: G3
Note ON: Time 52760, Note Name: D#3, Velocity: 24
Note OFF: Time 52820, Note Name: D#3
Note ON: Time 52840, Note Name: D#3, Velocity: 24
Note OFF: Time 52900, Note Name: D#3
Note ON: Time 52920, Note Name: G#3, Velocity: 28
Note OFF: Time 53000, Note Name: G#3
Note ON: Time 53000, Note Name: D#3, Velocity: 26
Note OFF: Time 53060, Note Name: D#3
Note ON: Time 53080, Note Name: D#3, Velocity: 26
Note OFF: Time 53140, Note Name: D#3
Note ON: Time 53160, Note Name: G#3, Velocity: 27
Note OFF: Time 53240, Note Name: G#3
Note ON: Time 53240, Note Name: D#3, Velocity: 25
Note OFF: Time 53300, Note Name: D#3
Note ON: Time 53320, Note Name: D#3, Velocity: 25
Note OFF: Time 53380, Note Name: D#3
Note ON: Time 53400, Note Name: D#3, Velocity: 28
Note OFF: Time 53480, Note Name: D#3
Note ON: Time 53480, Note Name: C3, Velocity: 25
Note OFF: Time 53540, Note Name: C3
Note ON: Time 53560, Note Name: C3, Velocity: 25
Note OFF: Time 53620, Note Name: C3
Note ON: Time 53640, Note Name: D#3, Velocity: 26
Note OFF: Time 53720, Note Name: D#3
Note ON: Time 53720, Note Name: C3, Velocity: 26
Note OFF: Time 53780, Note Name: C3
Note ON: Time 53800, Note Name: C3, Velocity: 26
Note OFF: Time 53860, Note Name: C3
Note ON: Time 53880, Note Name: F3, Velocity: 29
Note OFF: Time 53960, Note Name: F3
Note ON: Time 53960, Note Name: C#3, Velocity: 26
Note OFF: Time 54020, Note Name: C#3
Note ON: Time 54040, Note Name: C#3, Velocity: 26
Note OFF: Time 54100, Note Name: C#3
Note ON: Time 54120, Note Name: F3, Velocity: 27
Note OFF: Time 54200, Note Name: F3
Note ON: Time 54200, Note Name: C#3, Velocity: 25
Note OFF: Time 54260, Note Name: C#3
Note ON: Time 54280, Note Name: C#3, Velocity: 25
Note OFF: Time 54340, Note Name: C#3
Note ON: Time 54360, Note Name: G3, Velocity: 30
Note OFF: Time 54440, Note Name: G3
Note ON: Time 54440, Note Name: C#3, Velocity: 28
Note OFF: Time 54500, Note Name: C#3
Note ON: Time 54520, Note Name: C#3, Velocity: 28
Note OFF: Time 54580, Note Name: C#3
Note ON: Time 54600, Note Name: C#3, Velocity: 28
Note OFF: Time 54660, Note Name: C#3
Note ON: Time 54680, Note Name: C#3, Velocity: 25
Note OFF: Time 54740, Note Name: C#3
Note ON: Time 54760, Note Name: C#3, Velocity: 25
Note OFF: Time 54820, Note Name: C#3
Note ON: Time 54840, Note Name: C#3, Velocity: 31
Note OFF: Time 54920, Note Name: C#3
Note ON: Time 54920, Note Name: D#3, Velocity: 28
Note OFF: Time 54980, Note Name: D#3
Note ON: Time 55000, Note Name: D#3, Velocity: 28
Note OFF: Time 55060, Note Name: D#3
Note ON: Time 55080, Note Name: C#3, Velocity: 28
Note OFF: Time 55160, Note Name: C#3
Note ON: Time 55160, Note Name: D#3, Velocity: 25
Note OFF: Time 55220, Note Name: D#3
Note ON: Time 55240, Note Name: D#3, Velocity: 25
Note OFF: Time 55300, Note Name: D#3
Note ON: Time 55800, Note Name: G#3, Velocity: 28
Note OFF: Time 55880, Note Name: G#3
Note ON: Time 55880, Note Name: D#3, Velocity: 26
Note OFF: Time 55940, Note Name: D#3
Note ON: Time 55960, Note Name: D#3, Velocity: 26
Note OFF: Time 56020, Note Name: D#3
Note ON: Time 56040, Note Name: G#3, Velocity: 28
Note OFF: Time 56120, Note Name: G#3
Note ON: Time 56120, Note Name: D#3, Velocity: 26
Note OFF: Time 56180, Note Name: D#3
Note ON: Time 56200, Note Name: D#3, Velocity: 26
Note OFF: Time 56260, Note Name: D#3
Note ON: Time 56280, Note Name: G3, Velocity: 28
Note OFF: Time 56360, Note Name: G3
Note ON: Time 56360, Note Name: D#3, Velocity: 26
Note OFF: Time 56420, Note Name: D#3
Note ON: Time 56440, Note Name: D#3, Velocity: 26
Note OFF: Time 56500, Note Name: D#3
Note ON: Time 56520, Note Name: G3, Velocity: 28
Note OFF: Time 56600, Note Name: G3
Note ON: Time 56600, Note Name: D#3, Velocity: 27
Note OFF: Time 56660, Note Name: D#3
Note ON: Time 56680, Note Name: D#3, Velocity: 27
Note OFF: Time 56740, Note Name: D#3
Note ON: Time 56760, Note Name: G#3, Velocity: 28
Note OFF: Time 56840, Note Name: G#3
Note ON: Time 56840, Note Name: D#3, Velocity: 26
Note OFF: Time 56900, Note Name: D#3
Note ON: Time 56920, Note Name: D#3, Velocity: 26
Note OFF: Time 56980, Note Name: D#3
Note ON: Time 57000, Note Name: G#3, Velocity: 28
Note OFF: Time 57080, Note Name: G#3
Note ON: Time 57080, Note Name: D#3, Velocity: 26
Note OFF: Time 57140, Note Name: D#3
Note ON: Time 57160, Note Name: D#3, Velocity: 26
Note OFF: Time 57220, Note Name: D#3
Note ON: Time 57240, Note Name: G3, Velocity: 28
Note OFF: Time 57320, Note Name: G3
Note ON: Time 57320, Note Name: D#3, Velocity: 25
Note OFF: Time 57380, Note Name: D#3
Note ON: Time 57400, Note Name: D#3, Velocity: 25
Note OFF: Time 57460, Note Name: D#3
Note ON: Time 57480, Note Name: G3, Velocity: 25
Note OFF: Time 57560, Note Name: G3
Note ON: Time 57560, Note Name: D#3, Velocity: 25
Note OFF: Time 57620, Note Name: D#3
Note ON: Time 57640, Note Name: D#3, Velocity: 25
Note OFF: Time 57700, Note Name: D#3
Note ON: Time 57720, Note Name: G#3, Velocity: 29
Note OFF: Time 57800, Note Name: G#3
Note ON: Time 57800, Note Name: D#3, Velocity: 27
Note OFF: Time 57860, Note Name: D#3
Note ON: Time 57880, Note Name: D#3, Velocity: 27
Note OFF: Time 57940, Note Name: D#3
Note ON: Time 57960, Note Name: G3, Velocity: 26
Note OFF: Time 58040, Note Name: G3
Note ON: Time 58040, Note Name: D#3, Velocity: 26
Note OFF: Time 58100, Note Name: D#3
Note ON: Time 58120, Note Name: D#3, Velocity: 26
Note OFF: Time 58180, Note Name: D#3
Note ON: Time 58200, Note Name: F3, Velocity: 30
Note OFF: Time 58280, Note Name: F3
Note ON: Time 58280, Note Name: G#2, Velocity: 27
Note OFF: Time 58340, Note Name: G#2
Note ON: Time 58360, Note Name: G#2, Velocity: 27
Note OFF: Time 58420, Note Name: G#2
Note ON: Time 58440, Note Name: F3, Velocity: 27
Note OFF: Time 58520, Note Name: F3
Note ON: Time 58520, Note Name: G#2, Velocity: 27
Note OFF: Time 58580, Note Name: G#2
Note ON: Time 58600, Note Name: G#2, Velocity: 25
Note OFF: Time 58660, Note Name: G#2
Note ON: Time 62040, Note Name: D#2, Velocity: 34
Note ON: Time 62040, Note Name: A#2, Velocity: 27
Note OFF: Time 62120, Note Name: A#2
Note ON: Time 62120, Note Name: D#3, Velocity: 25
Note OFF: Time 62180, Note Name: D#3
Note ON: Time 62200, Note Name: D#3, Velocity: 25
Note OFF: Time 62260, Note Name: D#3
Note OFF: Time 62280, Note Name: D#2
Note ON: Time 62280, Note Name: D#2, Velocity: 30
Note ON: Time 62360, Note Name: D#3, Velocity: 25
Note OFF: Time 62420, Note Name: D#3
Note ON: Time 62440, Note Name: D#3, Velocity: 25
Note OFF: Time 62500, Note Name: D#3
Note OFF: Time 62520, Note Name: D#2
Note ON: Time 62520, Note Name: G#2, Velocity: 29
Note OFF: Time 62600, Note Name: G#2
Note ON: Time 62600, Note Name: D#3, Velocity: 25
Note OFF: Time 62660, Note Name: D#3
Note ON: Time 62680, Note Name: D#3, Velocity: 25
Note OFF: Time 62740, Note Name: D#3
Note ON: Time 62760, Note Name: D#3, Velocity: 25
Note OFF: Time 62820, Note Name: D#3
Note ON: Time 62840, Note Name: D#3, Velocity: 25
Note OFF: Time 62900, Note Name: D#3
Note ON: Time 62920, Note Name: D#3, Velocity: 25
Note OFF: Time 62980, Note Name: D#3
Note ON: Time 63000, Note Name: D#3, Velocity: 25
Note OFF: Time 63072, Note Name: D#3
Note ON: Time 63080, Note Name: D#3, Velocity: 25
Note OFF: Time 63152, Note Name: D#3
Note ON: Time 63160, Note Name: D#3, Velocity: 25
Note OFF: Time 63232, Note Name: D#3
Note ON: Time 63240, Note Name: D#3, Velocity: 26
Note OFF: Time 63312, Note Name: D#3
Note ON: Time 63320, Note Name: D#3, Velocity: 27
Note OFF: Time 63392, Note Name: D#3
Note ON: Time 63400, Note Name: D#3, Velocity: 28
Note OFF: Time 63472, Note Name: D#3
Note ON: Time 63480, Note Name: D#2, Velocity: 24
Note ON: Time 63480, Note Name: C#3, Velocity: 24
Note ON: Time 63480, Note Name: D#3, Velocity: 30
Note OFF: Time 63552, Note Name: D#3
Note OFF: Time 63552, Note Name: C#3
Note OFF: Time 63552, Note Name: D#2
Note ON: Time 63560, Note Name: D#2, Velocity: 20
Note ON: Time 63560, Note Name: C#3, Velocity: 20
Note ON: Time 63560, Note Name: D#3, Velocity: 25
Note OFF: Time 63632, Note Name: D#3
Note OFF: Time 63632, Note Name: C#3
Note OFF: Time 63632, Note Name: D#2
Note ON: Time 63640, Note Name: D#2, Velocity: 20
Note ON: Time 63640, Note Name: C#3, Velocity: 20
Note ON: Time 63640, Note Name: D#3, Velocity: 25
Note OFF: Time 63712, Note Name: D#3
Note OFF: Time 63712, Note Name: C#3
Note OFF: Time 63712, Note Name: D#2
Note ON: Time 63720, Note Name: D#2, Velocity: 20
Note ON: Time 63720, Note Name: C#3, Velocity: 20
Note ON: Time 63720, Note Name: D#3, Velocity: 25
Note OFF: Time 63792, Note Name: D#3
Note OFF: Time 63792, Note Name: C#3
Note OFF: Time 63792, Note Name: D#2
Note ON: Time 63800, Note Name: D#2, Velocity: 20
Note ON: Time 63800, Note Name: C#3, Velocity: 20
Note ON: Time 63800, Note Name: D#3, Velocity: 25
Note OFF: Time 63872, Note Name: D#3
Note OFF: Time 63872, Note Name: C#3
Note OFF: Time 63872, Note Name: D#2
Note ON: Time 63880, Note Name: D#2, Velocity: 20
Note ON: Time 63880, Note Name: C#3, Velocity: 20
Note ON: Time 63880, Note Name: D#3, Velocity: 26
Note OFF: Time 63952, Note Name: D#3
Note OFF: Time 63952, Note Name: C#3
Note OFF: Time 63952, Note Name: D#2
Note ON: Time 63960, Note Name: D#2, Velocity: 21
Note ON: Time 63960, Note Name: C#3, Velocity: 21
Note ON: Time 63960, Note Name: D#3, Velocity: 26
Note OFF: Time 64032, Note Name: D#3
Note OFF: Time 64032, Note Name: C#3
Note OFF: Time 64032, Note Name: D#2
Note ON: Time 64040, Note Name: D#2, Velocity: 21
Note ON: Time 64040, Note Name: C#3, Velocity: 21
Note ON: Time 64040, Note Name: D#3, Velocity: 27
Note OFF: Time 64112, Note Name: D#3
Note OFF: Time 64112, Note Name: C#3
Note OFF: Time 64112, Note Name: D#2
Note ON: Time 64120, Note Name: D#2, Velocity: 22
Note ON: Time 64120, Note Name: C#3, Velocity: 22
Note ON: Time 64120, Note Name: D#3, Velocity: 27
Note OFF: Time 64192, Note Name: D#3
Note OFF: Time 64192, Note Name: C#3
Note OFF: Time 64192, Note Name: D#2
Note ON: Time 64200, Note Name: D#2, Velocity: 20
Note ON: Time 64200, Note Name: C#3, Velocity: 20
Note ON: Time 64200, Note Name: D#3, Velocity: 25
Note OFF: Time 64272, Note Name: D#3
Note OFF: Time 64272, Note Name: C#3
Note OFF: Time 64272, Note Name: D#2
Note ON: Time 64280, Note Name: D#2, Velocity: 20
Note ON: Time 64280, Note Name: C#3, Velocity: 20
Note ON: Time 64280, Note Name: D#3, Velocity: 25
Note OFF: Time 64352, Note Name: D#3
Note OFF: Time 64352, Note Name: C#3
Note OFF: Time 64352, Note Name: D#2
Note ON: Time 64360, Note Name: D#2, Velocity: 20
Note ON: Time 64360, Note Name: C#3, Velocity: 20
Note ON: Time 64360, Note Name: D#3, Velocity: 25
Note OFF: Time 64432, Note Name: D#3
Note OFF: Time 64432, Note Name: C#3
Note OFF: Time 64432, Note Name: D#2
Note ON: Time 64440, Note Name: G#2, Velocity: 20
Note ON: Time 64440, Note Name: C3, Velocity: 20
Note ON: Time 64440, Note Name: D#3, Velocity: 25
Note OFF: Time 64512, Note Name: D#3
Note OFF: Time 64512, Note Name: C3
Note OFF: Time 64512, Note Name: G#2
Note ON: Time 64520, Note Name: D#3, Velocity: 25
Note OFF: Time 64592, Note Name: D#3
Note ON: Time 64600, Note Name: D#3, Velocity: 25
Note OFF: Time 64672, Note Name: D#3
Note ON: Time 64680, Note Name: D#3, Velocity: 25
Note OFF: Time 64752, Note Name: D#3
Note ON: Time 64760, Note Name: D#3, Velocity: 25
Note OFF: Time 64832, Note Name: D#3
Note ON: Time 64840, Note Name: D#3, Velocity: 25
Note OFF: Time 64912, Note Name: D#3
Note ON: Time 64920, Note Name: D#3, Velocity: 25
Note OFF: Time 64992, Note Name: D#3
Note ON: Time 65000, Note Name: D#3, Velocity: 25
Note OFF: Time 65072, Note Name: D#3
Note ON: Time 65080, Note Name: D#3, Velocity: 25
Note OFF: Time 65152, Note Name: D#3
Note ON: Time 65160, Note Name: D#3, Velocity: 26
Note OFF: Time 65232, Note Name: D#3
Note ON: Time 65240, Note Name: D#3, Velocity: 27
Note OFF: Time 65312, Note Name: D#3
Note ON: Time 65320, Note Name: D#3, Velocity: 28
Note OFF: Time 65392, Note Name: D#3
Note ON: Time 65400, Note Name: D#2, Velocity: 24
Note ON: Time 65400, Note Name: C#3, Velocity: 24
Note ON: Time 65400, Note Name: D#3, Velocity: 30
Note OFF: Time 65472, Note Name: D#3
Note OFF: Time 65472, Note Name: C#3
Note OFF: Time 65472, Note Name: D#2
Note ON: Time 65480, Note Name: D#2, Velocity: 20
Note ON: Time 65480, Note Name: C#3, Velocity: 20
Note ON: Time 65480, Note Name: D#3, Velocity: 25
Note OFF: Time 65552, Note Name: D#3
Note OFF: Time 65552, Note Name: C#3
Note OFF: Time 65552, Note Name: D#2
Note ON: Time 65560, Note Name: D#2, Velocity: 20
Note ON: Time 65560, Note Name: C#3, Velocity: 20
Note ON: Time 65560, Note Name: D#3, Velocity: 25
Note OFF: Time 65632, Note Name: D#3
Note OFF: Time 65632, Note Name: C#3
Note OFF: Time 65632, Note Name: D#2
Note ON: Time 65640, Note Name: D#2, Velocity: 20
Note ON: Time 65640, Note Name: C#3, Velocity: 20
Note ON: Time 65640, Note Name: D#3, Velocity: 25
Note OFF: Time 65712, Note Name: D#3
Note OFF: Time 65712, Note Name: C#3
Note OFF: Time 65712, Note Name: D#2
Note ON: Time 65720, Note Name: D#2, Velocity: 20
Note ON: Time 65720, Note Name: C#3, Velocity: 20
Note ON: Time 65720, Note Name: D#3, Velocity: 25
Note OFF: Time 65792, Note Name: D#3
Note OFF: Time 65792, Note Name: C#3
Note OFF: Time 65792, Note Name: D#2
Note ON: Time 65800, Note Name: D#2, Velocity: 20
Note ON: Time 65800, Note Name: C#3, Velocity: 20
Note ON: Time 65800, Note Name: D#3, Velocity: 26
Note OFF: Time 65872, Note Name: D#3
Note OFF: Time 65872, Note Name: C#3
Note OFF: Time 65872, Note Name: D#2
Note ON: Time 65880, Note Name: D#2, Velocity: 21
Note ON: Time 65880, Note Name: C#3, Velocity: 21
Note ON: Time 65880, Note Name: D#3, Velocity: 26
Note OFF: Time 65952, Note Name: D#3
Note OFF: Time 65952, Note Name: C#3
Note OFF: Time 65952, Note Name: D#2
Note ON: Time 65960, Note Name: D#2, Velocity: 21
Note ON: Time 65960, Note Name: C#3, Velocity: 21
Note ON: Time 65960, Note Name: D#3, Velocity: 27
Note OFF: Time 66032, Note Name: D#3
Note OFF: Time 66032, Note Name: C#3
Note OFF: Time 66032, Note Name: D#2
Note ON: Time 66040, Note Name: D#2, Velocity: 22
Note ON: Time 66040, Note Name: C#3, Velocity: 22
Note ON: Time 66040, Note Name: D#3, Velocity: 27
Note OFF: Time 66112, Note Name: D#3
Note OFF: Time 66112, Note Name: C#3
Note OFF: Time 66112, Note Name: D#2
Note ON: Time 66120, Note Name: D#2, Velocity: 20
Note ON: Time 66120, Note Name: C#3, Velocity: 20
Note ON: Time 66120, Note Name: D#3, Velocity: 25
Note OFF: Time 66192, Note Name: D#3
Note OFF: Time 66192, Note Name: C#3
Note OFF: Time 66192, Note Name: D#2
Note ON: Time 66200, Note Name: D#2, Velocity: 20
Note ON: Time 66200, Note Name: C#3, Velocity: 20
Note ON: Time 66200, Note Name: D#3, Velocity: 25
Note OFF: Time 66272, Note Name: D#3
Note OFF: Time 66272, Note Name: C#3
Note OFF: Time 66272, Note Name: D#2
Note ON: Time 66280, Note Name: D#2, Velocity: 20
Note ON: Time 66280, Note Name: C#3, Velocity: 20
Note ON: Time 66280, Note Name: D#3, Velocity: 25
Note OFF: Time 66352, Note Name: D#3
Note OFF: Time 66352, Note Name: C#3
Note OFF: Time 66352, Note Name: D#2
Note ON: Time 66360, Note Name: G#2, Velocity: 20
Note ON: Time 66360, Note Name: C3, Velocity: 20
Note ON: Time 66360, Note Name: D#3, Velocity: 25
Note OFF: Time 66600, Note Name: D#3
Note OFF: Time 66600, Note Name: C3
Note OFF: Time 66600, Note Name: G#2
Track 5: Pedale
Track 6: Beethoven Sonata No. 8 C minor, Grand Sonate pathtique 2. Movement
Track 7: Copyright  2003 by Bernd Krueger
Track 8: http://www.piano-midi.de
Track 9: Edition: 2012-05-17
