Processing waldstein_1.mid...

Track 0: Beethoven Sonata No. 21 in C major
Track 1: Piano right
Note ON: Time 240, Note Name: C3, Velocity: 28
Note ON: Time 240, Note Name: E3, Velocity: 33
Note OFF: Time 420, Note Name: E3
Note OFF: Time 420, Note Name: C3
Note ON: Time 480, Note Name: C3, Velocity: 28
Note ON: Time 480, Note Name: E3, Velocity: 33
Note OFF: Time 660, Note Name: E3
Note OFF: Time 660, Note Name: C3
Note ON: Time 720, Note Name: C3, Velocity: 28
Note ON: Time 720, Note Name: E3, Velocity: 34
Note OFF: Time 900, Note Name: E3
Note OFF: Time 900, Note Name: C3
Note ON: Time 960, Note Name: C3, Velocity: 28
Note ON: Time 960, Note Name: E3, Velocity: 34
Note OFF: Time 1140, Note Name: E3
Note OFF: Time 1140, Note Name: C3
Note ON: Time 1200, Note Name: C3, Velocity: 28
Note ON: Time 1200, Note Name: E3, Velocity: 34
Note OFF: Time 1380, Note Name: E3
Note OFF: Time 1380, Note Name: C3
Note ON: Time 1440, Note Name: C3, Velocity: 29
Note ON: Time 1440, Note Name: E3, Velocity: 35
Note OFF: Time 1620, Note Name: E3
Note OFF: Time 1620, Note Name: C3
Note ON: Time 1680, Note Name: C3, Velocity: 29
Note ON: Time 1680, Note Name: E3, Velocity: 35
Note OFF: Time 1860, Note Name: E3
Note OFF: Time 1860, Note Name: C3
Note ON: Time 1920, Note Name: C3, Velocity: 30
Note ON: Time 1920, Note Name: E3, Velocity: 36
Note OFF: Time 2100, Note Name: E3
Note OFF: Time 2100, Note Name: C3
Note ON: Time 2160, Note Name: C3, Velocity: 30
Note ON: Time 2160, Note Name: E3, Velocity: 36
Note OFF: Time 2340, Note Name: E3
Note OFF: Time 2340, Note Name: C3
Note ON: Time 2400, Note Name: C3, Velocity: 31
Note ON: Time 2400, Note Name: E3, Velocity: 37
Note OFF: Time 2580, Note Name: E3
Note OFF: Time 2580, Note Name: C3
Note ON: Time 2640, Note Name: C3, Velocity: 32
Note ON: Time 2640, Note Name: E3, Velocity: 38
Note OFF: Time 2820, Note Name: E3
Note OFF: Time 2820, Note Name: C3
Note ON: Time 2880, Note Name: C3, Velocity: 33
Note ON: Time 2880, Note Name: E3, Velocity: 39
Note OFF: Time 3060, Note Name: E3
Note OFF: Time 3060, Note Name: C3
Note ON: Time 3120, Note Name: C3, Velocity: 34
Note ON: Time 3120, Note Name: E3, Velocity: 40
Note OFF: Time 3300, Note Name: E3
Note OFF: Time 3300, Note Name: C3
Note ON: Time 3360, Note Name: D3, Velocity: 34
Note ON: Time 3360, Note Name: F#3, Velocity: 40
Note OFF: Time 3540, Note Name: F#3
Note OFF: Time 3540, Note Name: D3
Note ON: Time 3600, Note Name: D3, Velocity: 34
Note ON: Time 3600, Note Name: F#3, Velocity: 40
Note OFF: Time 3780, Note Name: F#3
Note OFF: Time 3780, Note Name: D3
Note ON: Time 3840, Note Name: D3, Velocity: 39
Note ON: Time 3840, Note Name: G3, Velocity: 46
Note OFF: Time 4560, Note Name: G3
Note OFF: Time 4560, Note Name: D3
Note ON: Time 4560, Note Name: B3, Velocity: 40
Note OFF: Time 4680, Note Name: B3
Note ON: Time 4680, Note Name: A3, Velocity: 40
Note OFF: Time 4800, Note Name: A3
Note ON: Time 4800, Note Name: G3, Velocity: 45
Note OFF: Time 4920, Note Name: G3
Note ON: Time 5700, Note Name: C#6, Velocity: 46
Note OFF: Time 5760, Note Name: C#6
Note ON: Time 5760, Note Name: D6, Velocity: 57
Note OFF: Time 6360, Note Name: D6
Note ON: Time 6360, Note Name: C6, Velocity: 48
Note OFF: Time 6480, Note Name: C6
Note ON: Time 6480, Note Name: B5, Velocity: 47
Note OFF: Time 6600, Note Name: B5
Note ON: Time 6600, Note Name: A5, Velocity: 45
Note OFF: Time 6720, Note Name: A5
Note ON: Time 6720, Note Name: G5, Velocity: 44
Note OFF: Time 6960, Note Name: G5
Note ON: Time 7680, Note Name: A#2, Velocity: 29
Note ON: Time 7680, Note Name: D3, Velocity: 35
Note OFF: Time 7860, Note Name: D3
Note OFF: Time 7860, Note Name: A#2
Note ON: Time 7920, Note Name: A#2, Velocity: 29
Note ON: Time 7920, Note Name: D3, Velocity: 35
Note OFF: Time 8100, Note Name: D3
Note OFF: Time 8100, Note Name: A#2
Note ON: Time 8160, Note Name: A#2, Velocity: 29
Note ON: Time 8160, Note Name: D3, Velocity: 35
Note OFF: Time 8340, Note Name: D3
Note OFF: Time 8340, Note Name: A#2
Note ON: Time 8400, Note Name: A#2, Velocity: 30
Note ON: Time 8400, Note Name: D3, Velocity: 36
Note OFF: Time 8580, Note Name: D3
Note OFF: Time 8580, Note Name: A#2
Note ON: Time 8640, Note Name: A#2, Velocity: 31
Note ON: Time 8640, Note Name: D3, Velocity: 37
Note OFF: Time 8820, Note Name: D3
Note OFF: Time 8820, Note Name: A#2
Note ON: Time 8880, Note Name: A#2, Velocity: 31
Note ON: Time 8880, Note Name: D3, Velocity: 37
Note OFF: Time 9060, Note Name: D3
Note OFF: Time 9060, Note Name: A#2
Note ON: Time 9120, Note Name: A#2, Velocity: 32
Note ON: Time 9120, Note Name: D3, Velocity: 38
Note OFF: Time 9300, Note Name: D3
Note OFF: Time 9300, Note Name: A#2
Note ON: Time 9360, Note Name: A#2, Velocity: 33
Note ON: Time 9360, Note Name: D3, Velocity: 39
Note OFF: Time 9540, Note Name: D3
Note OFF: Time 9540, Note Name: A#2
Note ON: Time 9600, Note Name: A#2, Velocity: 33
Note ON: Time 9600, Note Name: D3, Velocity: 39
Note OFF: Time 9780, Note Name: D3
Note OFF: Time 9780, Note Name: A#2
Note ON: Time 9840, Note Name: A#2, Velocity: 34
Note ON: Time 9840, Note Name: D3, Velocity: 40
Note OFF: Time 10020, Note Name: D3
Note OFF: Time 10020, Note Name: A#2
Note ON: Time 10080, Note Name: A#2, Velocity: 34
Note ON: Time 10080, Note Name: D3, Velocity: 40
Note OFF: Time 10260, Note Name: D3
Note OFF: Time 10260, Note Name: A#2
Note ON: Time 10320, Note Name: A#2, Velocity: 34
Note ON: Time 10320, Note Name: D3, Velocity: 40
Note OFF: Time 10500, Note Name: D3
Note OFF: Time 10500, Note Name: A#2
Note ON: Time 10560, Note Name: A#2, Velocity: 34
Note ON: Time 10560, Note Name: D3, Velocity: 40
Note OFF: Time 10740, Note Name: D3
Note OFF: Time 10740, Note Name: A#2
Note ON: Time 10800, Note Name: A#2, Velocity: 34
Note ON: Time 10800, Note Name: D3, Velocity: 40
Note OFF: Time 10980, Note Name: D3
Note OFF: Time 10980, Note Name: A#2
Note ON: Time 11040, Note Name: C3, Velocity: 34
Note ON: Time 11040, Note Name: E3, Velocity: 40
Note OFF: Time 11220, Note Name: E3
Note OFF: Time 11220, Note Name: C3
Note ON: Time 11280, Note Name: C3, Velocity: 34
Note ON: Time 11280, Note Name: E3, Velocity: 40
Note OFF: Time 11460, Note Name: E3
Note OFF: Time 11460, Note Name: C3
Note ON: Time 11520, Note Name: C3, Velocity: 39
Note ON: Time 11520, Note Name: F3, Velocity: 46
Note OFF: Time 12240, Note Name: F3
Note OFF: Time 12240, Note Name: C3
Note ON: Time 12240, Note Name: A3, Velocity: 40
Note OFF: Time 12360, Note Name: A3
Note ON: Time 12360, Note Name: G3, Velocity: 40
Note OFF: Time 12480, Note Name: G3
Note ON: Time 12480, Note Name: F3, Velocity: 45
Note OFF: Time 12600, Note Name: F3
Note ON: Time 13380, Note Name: B5, Velocity: 46
Note OFF: Time 13440, Note Name: B5
Note ON: Time 13440, Note Name: C6, Velocity: 57
Note OFF: Time 14040, Note Name: C6
Note ON: Time 14040, Note Name: A#5, Velocity: 50
Note OFF: Time 14160, Note Name: A#5
Note ON: Time 14160, Note Name: G#5, Velocity: 49
Note OFF: Time 14280, Note Name: G#5
Note ON: Time 14280, Note Name: G5, Velocity: 47
Note OFF: Time 14400, Note Name: G5
Note ON: Time 14400, Note Name: F5, Velocity: 46
Note OFF: Time 14640, Note Name: F5
Note ON: Time 15300, Note Name: E6, Velocity: 67
Note OFF: Time 15360, Note Name: E6
Note ON: Time 15360, Note Name: F6, Velocity: 73
Note OFF: Time 16800, Note Name: F6
Note ON: Time 16800, Note Name: F6, Velocity: 74
Note OFF: Time 16920, Note Name: F6
Note ON: Time 16920, Note Name: D#6, Velocity: 73
Note OFF: Time 17040, Note Name: D#6
Note ON: Time 17040, Note Name: D6, Velocity: 71
Note OFF: Time 17160, Note Name: D6
Note ON: Time 17160, Note Name: C6, Velocity: 70
Note OFF: Time 17280, Note Name: C6
Note ON: Time 17280, Note Name: B5, Velocity: 72
Note OFF: Time 17400, Note Name: B5
Note ON: Time 17400, Note Name: C6, Velocity: 71
Note OFF: Time 17520, Note Name: C6
Note ON: Time 17520, Note Name: D6, Velocity: 72
Note OFF: Time 17640, Note Name: D6
Note ON: Time 17640, Note Name: D#6, Velocity: 73
Note OFF: Time 17760, Note Name: D#6
Note ON: Time 17760, Note Name: F6, Velocity: 74
Note OFF: Time 17880, Note Name: F6
Note ON: Time 17880, Note Name: D#6, Velocity: 72
Note OFF: Time 18000, Note Name: D#6
Note ON: Time 18000, Note Name: D6, Velocity: 71
Note OFF: Time 18120, Note Name: D6
Note ON: Time 18120, Note Name: C6, Velocity: 69
Note OFF: Time 18240, Note Name: C6
Note ON: Time 18240, Note Name: B5, Velocity: 72
Note OFF: Time 18360, Note Name: B5
Note ON: Time 18360, Note Name: C6, Velocity: 75
Note OFF: Time 18480, Note Name: C6
Note ON: Time 18480, Note Name: D6, Velocity: 77
Note OFF: Time 18600, Note Name: D6
Note ON: Time 18600, Note Name: D#6, Velocity: 80
Note OFF: Time 18720, Note Name: D#6
Note ON: Time 18720, Note Name: F6, Velocity: 80
Note OFF: Time 18840, Note Name: F6
Note ON: Time 18840, Note Name: D#6, Velocity: 80
Note OFF: Time 18960, Note Name: D#6
Note ON: Time 18960, Note Name: D6, Velocity: 79
Note OFF: Time 19080, Note Name: D6
Note ON: Time 19080, Note Name: C6, Velocity: 81
Note OFF: Time 19200, Note Name: C6
Note ON: Time 19200, Note Name: B5, Velocity: 85
Note OFF: Time 19320, Note Name: B5
Note ON: Time 19320, Note Name: C6, Velocity: 89
Note OFF: Time 19440, Note Name: C6
Note ON: Time 19440, Note Name: D6, Velocity: 94
Note OFF: Time 19560, Note Name: D6
Note ON: Time 19560, Note Name: D#6, Velocity: 98
Note OFF: Time 19680, Note Name: D#6
Note ON: Time 19680, Note Name: F6, Velocity: 100
Note OFF: Time 19800, Note Name: F6
Note ON: Time 19800, Note Name: D#6, Velocity: 98
Note OFF: Time 19920, Note Name: D#6
Note ON: Time 19920, Note Name: D6, Velocity: 96
Note OFF: Time 20040, Note Name: D6
Note ON: Time 20040, Note Name: C6, Velocity: 94
Note OFF: Time 20160, Note Name: C6
Note ON: Time 20160, Note Name: B5, Velocity: 93
Note OFF: Time 20280, Note Name: B5
Note ON: Time 20280, Note Name: G#5, Velocity: 91
Note OFF: Time 20400, Note Name: G#5
Note ON: Time 20400, Note Name: G5, Velocity: 89
Note OFF: Time 20520, Note Name: G5
Note ON: Time 20520, Note Name: F5, Velocity: 87
Note OFF: Time 20640, Note Name: F5
Note ON: Time 20640, Note Name: D#5, Velocity: 85
Note OFF: Time 20760, Note Name: D#5
Note ON: Time 20760, Note Name: D5, Velocity: 83
Note OFF: Time 20880, Note Name: D5
Note ON: Time 20880, Note Name: C5, Velocity: 81
Note OFF: Time 21000, Note Name: C5
Note ON: Time 21000, Note Name: B4, Velocity: 79
Note OFF: Time 21120, Note Name: B4
Note ON: Time 21120, Note Name: C5, Velocity: 93
Note OFF: Time 21300, Note Name: C5
Note ON: Time 21600, Note Name: G4, Velocity: 83
Note OFF: Time 21780, Note Name: G4
Note ON: Time 22080, Note Name: D#4, Velocity: 72
Note OFF: Time 22260, Note Name: D#4
Note ON: Time 22560, Note Name: C4, Velocity: 64
Note OFF: Time 22740, Note Name: C4
Note ON: Time 23040, Note Name: G3, Velocity: 60
Note OFF: Time 24960, Note Name: G3
Note ON: Time 24960, Note Name: E4, Velocity: 37
Note OFF: Time 25079, Note Name: E4
Note ON: Time 25080, Note Name: C4, Velocity: 33
Note OFF: Time 25200, Note Name: C4
Note ON: Time 25200, Note Name: E4, Velocity: 37
Note OFF: Time 25319, Note Name: E4
Note ON: Time 25320, Note Name: C4, Velocity: 33
Note OFF: Time 25440, Note Name: C4
Note ON: Time 25440, Note Name: E4, Velocity: 37
Note OFF: Time 25559, Note Name: E4
Note ON: Time 25560, Note Name: C4, Velocity: 33
Note OFF: Time 25680, Note Name: C4
Note ON: Time 25680, Note Name: E4, Velocity: 36
Note OFF: Time 25799, Note Name: E4
Note ON: Time 25800, Note Name: C4, Velocity: 33
Note OFF: Time 25920, Note Name: C4
Note ON: Time 25920, Note Name: E4, Velocity: 36
Note OFF: Time 26039, Note Name: E4
Note ON: Time 26040, Note Name: C4, Velocity: 33
Note OFF: Time 26160, Note Name: C4
Note ON: Time 26160, Note Name: E4, Velocity: 37
Note OFF: Time 26279, Note Name: E4
Note ON: Time 26280, Note Name: C4, Velocity: 33
Note OFF: Time 26400, Note Name: C4
Note ON: Time 26400, Note Name: E4, Velocity: 36
Note OFF: Time 26519, Note Name: E4
Note ON: Time 26520, Note Name: C4, Velocity: 33
Note OFF: Time 26640, Note Name: C4
Note ON: Time 26640, Note Name: E4, Velocity: 36
Note OFF: Time 26759, Note Name: E4
Note ON: Time 26760, Note Name: C4, Velocity: 33
Note OFF: Time 26880, Note Name: C4
Note ON: Time 26880, Note Name: E4, Velocity: 37
Note OFF: Time 26999, Note Name: E4
Note ON: Time 27000, Note Name: C4, Velocity: 33
Note OFF: Time 27120, Note Name: C4
Note ON: Time 27120, Note Name: E4, Velocity: 37
Note OFF: Time 27239, Note Name: E4
Note ON: Time 27240, Note Name: C4, Velocity: 33
Note OFF: Time 27360, Note Name: C4
Note ON: Time 27360, Note Name: E4, Velocity: 37
Note OFF: Time 27479, Note Name: E4
Note ON: Time 27480, Note Name: C4, Velocity: 33
Note OFF: Time 27600, Note Name: C4
Note ON: Time 27600, Note Name: E4, Velocity: 36
Note OFF: Time 27719, Note Name: E4
Note ON: Time 27720, Note Name: C4, Velocity: 33
Note OFF: Time 27840, Note Name: C4
Note ON: Time 27840, Note Name: E4, Velocity: 36
Note OFF: Time 27959, Note Name: E4
Note ON: Time 27960, Note Name: C4, Velocity: 33
Note OFF: Time 28080, Note Name: C4
Note ON: Time 28080, Note Name: E4, Velocity: 37
Note OFF: Time 28199, Note Name: E4
Note ON: Time 28200, Note Name: C4, Velocity: 33
Note OFF: Time 28320, Note Name: C4
Note ON: Time 28320, Note Name: F#4, Velocity: 36
Note OFF: Time 28439, Note Name: F#4
Note ON: Time 28440, Note Name: D4, Velocity: 33
Note OFF: Time 28560, Note Name: D4
Note ON: Time 28560, Note Name: F#4, Velocity: 36
Note OFF: Time 28679, Note Name: F#4
Note ON: Time 28680, Note Name: D4, Velocity: 33
Note OFF: Time 28800, Note Name: D4
Note ON: Time 28800, Note Name: G4, Velocity: 46
Note OFF: Time 29520, Note Name: G4
Note ON: Time 29520, Note Name: B4, Velocity: 40
Note OFF: Time 29640, Note Name: B4
Note ON: Time 29640, Note Name: A4, Velocity: 40
Note OFF: Time 29760, Note Name: A4
Note ON: Time 29760, Note Name: G4, Velocity: 45
Note OFF: Time 29880, Note Name: G4
Note ON: Time 30660, Note Name: C#6, Velocity: 46
Note OFF: Time 30720, Note Name: C#6
Note ON: Time 30720, Note Name: D6, Velocity: 57
Note OFF: Time 31320, Note Name: D6
Note ON: Time 31320, Note Name: C6, Velocity: 48
Note OFF: Time 31440, Note Name: C6
Note ON: Time 31440, Note Name: B5, Velocity: 47
Note OFF: Time 31560, Note Name: B5
Note ON: Time 31560, Note Name: A5, Velocity: 45
Note OFF: Time 31680, Note Name: A5
Note ON: Time 31680, Note Name: G5, Velocity: 44
Note OFF: Time 31920, Note Name: G5
Note ON: Time 32640, Note Name: F4, Velocity: 40
Note OFF: Time 32759, Note Name: F4
Note ON: Time 32760, Note Name: D4, Velocity: 36
Note OFF: Time 32880, Note Name: D4
Note ON: Time 32880, Note Name: F4, Velocity: 40
Note OFF: Time 32999, Note Name: F4
Note ON: Time 33000, Note Name: D4, Velocity: 36
Note OFF: Time 33120, Note Name: D4
Note ON: Time 33120, Note Name: F4, Velocity: 40
Note OFF: Time 33239, Note Name: F4
Note ON: Time 33240, Note Name: D4, Velocity: 36
Note OFF: Time 33360, Note Name: D4
Note ON: Time 33360, Note Name: F4, Velocity: 39
Note OFF: Time 33479, Note Name: F4
Note ON: Time 33480, Note Name: D4, Velocity: 36
Note OFF: Time 33600, Note Name: D4
Note ON: Time 33600, Note Name: F4, Velocity: 39
Note OFF: Time 33719, Note Name: F4
Note ON: Time 33720, Note Name: D4, Velocity: 36
Note OFF: Time 33840, Note Name: D4
Note ON: Time 33840, Note Name: F4, Velocity: 41
Note OFF: Time 33959, Note Name: F4
Note ON: Time 33960, Note Name: D4, Velocity: 36
Note OFF: Time 34080, Note Name: D4
Note ON: Time 34080, Note Name: F4, Velocity: 40
Note OFF: Time 34199, Note Name: F4
Note ON: Time 34200, Note Name: D4, Velocity: 37
Note OFF: Time 34320, Note Name: D4
Note ON: Time 34320, Note Name: F4, Velocity: 40
Note OFF: Time 34439, Note Name: F4
Note ON: Time 34440, Note Name: D4, Velocity: 37
Note OFF: Time 34560, Note Name: D4
Note ON: Time 34560, Note Name: F4, Velocity: 41
Note OFF: Time 34679, Note Name: F4
Note ON: Time 34680, Note Name: D4, Velocity: 37
Note OFF: Time 34800, Note Name: D4
Note ON: Time 34800, Note Name: F4, Velocity: 41
Note OFF: Time 34919, Note Name: F4
Note ON: Time 34920, Note Name: D4, Velocity: 37
Note OFF: Time 35040, Note Name: D4
Note ON: Time 35040, Note Name: F4, Velocity: 42
Note OFF: Time 35159, Note Name: F4
Note ON: Time 35160, Note Name: D4, Velocity: 37
Note OFF: Time 35280, Note Name: D4
Note ON: Time 35280, Note Name: F4, Velocity: 41
Note OFF: Time 35399, Note Name: F4
Note ON: Time 35400, Note Name: D4, Velocity: 38
Note OFF: Time 35520, Note Name: D4
Note ON: Time 35520, Note Name: F4, Velocity: 41
Note OFF: Time 35639, Note Name: F4
Note ON: Time 35640, Note Name: D4, Velocity: 38
Note OFF: Time 35760, Note Name: D4
Note ON: Time 35760, Note Name: F4, Velocity: 42
Note OFF: Time 35879, Note Name: F4
Note ON: Time 35880, Note Name: D4, Velocity: 38
Note OFF: Time 36000, Note Name: D4
Note ON: Time 36000, Note Name: G#4, Velocity: 41
Note OFF: Time 36119, Note Name: G#4
Note ON: Time 36120, Note Name: E4, Velocity: 38
Note OFF: Time 36240, Note Name: E4
Note ON: Time 36240, Note Name: G#4, Velocity: 42
Note OFF: Time 36359, Note Name: G#4
Note ON: Time 36360, Note Name: E4, Velocity: 38
Note OFF: Time 36480, Note Name: E4
Note ON: Time 36480, Note Name: A4, Velocity: 55
Note OFF: Time 37200, Note Name: A4
Note ON: Time 37200, Note Name: C5, Velocity: 48
Note OFF: Time 37320, Note Name: C5
Note ON: Time 37320, Note Name: B4, Velocity: 48
Note OFF: Time 37440, Note Name: B4
Note ON: Time 37440, Note Name: A4, Velocity: 53
Note OFF: Time 37560, Note Name: A4
Note ON: Time 38340, Note Name: D#6, Velocity: 55
Note OFF: Time 38400, Note Name: D#6
Note ON: Time 38400, Note Name: E6, Velocity: 68
Note OFF: Time 39000, Note Name: E6
Note ON: Time 39000, Note Name: D6, Velocity: 59
Note OFF: Time 39120, Note Name: D6
Note ON: Time 39120, Note Name: C6, Velocity: 58
Note OFF: Time 39240, Note Name: C6
Note ON: Time 39240, Note Name: B5, Velocity: 57
Note OFF: Time 39360, Note Name: B5
Note ON: Time 39360, Note Name: A5, Velocity: 57
Note OFF: Time 39600, Note Name: A5
Note ON: Time 40260, Note Name: D#6, Velocity: 66
Note OFF: Time 40320, Note Name: D#6
Note ON: Time 40320, Note Name: E6, Velocity: 85
Note OFF: Time 40920, Note Name: E6
Note ON: Time 40920, Note Name: D6, Velocity: 76
Note OFF: Time 41040, Note Name: D6
Note ON: Time 41040, Note Name: C6, Velocity: 75
Note OFF: Time 41160, Note Name: C6
Note ON: Time 41160, Note Name: B5, Velocity: 71
Note OFF: Time 41280, Note Name: B5
Note ON: Time 41280, Note Name: A#5, Velocity: 71
Note OFF: Time 41520, Note Name: A#5
Note ON: Time 42240, Note Name: B5, Velocity: 56
Note ON: Time 42840, Note Name: A5, Velocity: 54
Note OFF: Time 42860, Note Name: B5
Note ON: Time 42960, Note Name: G5, Velocity: 53
Note OFF: Time 42980, Note Name: A5
Note ON: Time 43080, Note Name: F#5, Velocity: 51
Note OFF: Time 43100, Note Name: G5
Note ON: Time 43200, Note Name: G5, Velocity: 53
Note OFF: Time 43220, Note Name: F#5
Note ON: Time 43320, Note Name: F#5, Velocity: 52
Note OFF: Time 43340, Note Name: G5
Note ON: Time 43440, Note Name: E5, Velocity: 51
Note OFF: Time 43460, Note Name: F#5
Note ON: Time 43560, Note Name: D#5, Velocity: 50
Note OFF: Time 43580, Note Name: E5
Note ON: Time 43680, Note Name: E5, Velocity: 50
Note OFF: Time 43700, Note Name: D#5
Note ON: Time 43800, Note Name: G5, Velocity: 52
Note OFF: Time 43820, Note Name: E5
Note ON: Time 43920, Note Name: F#5, Velocity: 50
Note OFF: Time 43940, Note Name: G5
Note ON: Time 44040, Note Name: E5, Velocity: 50
Note OFF: Time 44060, Note Name: F#5
Note ON: Time 44160, Note Name: D#5, Velocity: 50
Note OFF: Time 44180, Note Name: E5
Note ON: Time 44280, Note Name: C#5, Velocity: 49
Note OFF: Time 44300, Note Name: D#5
Note ON: Time 44400, Note Name: B4, Velocity: 48
Note OFF: Time 44420, Note Name: C#5
Note ON: Time 44520, Note Name: A#4, Velocity: 47
Note OFF: Time 44540, Note Name: B4
Note ON: Time 44640, Note Name: B4, Velocity: 49
Note OFF: Time 44660, Note Name: A#4
Note ON: Time 44760, Note Name: C#5, Velocity: 49
Note OFF: Time 44780, Note Name: B4
Note ON: Time 44880, Note Name: D5, Velocity: 49
Note OFF: Time 44900, Note Name: C#5
Note ON: Time 45000, Note Name: D#5, Velocity: 50
Note OFF: Time 45020, Note Name: D5
Note ON: Time 45120, Note Name: E5, Velocity: 50
Note OFF: Time 45140, Note Name: D#5
Note ON: Time 45240, Note Name: D#5, Velocity: 50
Note OFF: Time 45260, Note Name: E5
Note ON: Time 45360, Note Name: E5, Velocity: 51
Note OFF: Time 45380, Note Name: D#5
Note ON: Time 45480, Note Name: F#5, Velocity: 51
Note OFF: Time 45500, Note Name: E5
Note ON: Time 45600, Note Name: G5, Velocity: 49
Note OFF: Time 45620, Note Name: F#5
Note ON: Time 45720, Note Name: G#5, Velocity: 50
Note OFF: Time 45740, Note Name: G5
Note ON: Time 45840, Note Name: A5, Velocity: 52
Note OFF: Time 45860, Note Name: G#5
Note ON: Time 45960, Note Name: A#5, Velocity: 53
Note OFF: Time 45980, Note Name: A5
Note ON: Time 46080, Note Name: B5, Velocity: 55
Note OFF: Time 46100, Note Name: A#5
Note ON: Time 46200, Note Name: A#5, Velocity: 53
Note OFF: Time 46220, Note Name: B5
Note ON: Time 46320, Note Name: B5, Velocity: 53
Note OFF: Time 46340, Note Name: A#5
Note ON: Time 46440, Note Name: A#5, Velocity: 50
Note OFF: Time 46460, Note Name: B5
Note ON: Time 46560, Note Name: B5, Velocity: 52
Note OFF: Time 46580, Note Name: A#5
Note ON: Time 46680, Note Name: A5, Velocity: 52
Note OFF: Time 46700, Note Name: B5
Note ON: Time 46800, Note Name: G5, Velocity: 51
Note OFF: Time 46820, Note Name: A5
Note ON: Time 46920, Note Name: F#5, Velocity: 50
Note OFF: Time 46940, Note Name: G5
Note ON: Time 47040, Note Name: G5, Velocity: 52
Note OFF: Time 47060, Note Name: F#5
Note ON: Time 47160, Note Name: F#5, Velocity: 51
Note OFF: Time 47180, Note Name: G5
Note ON: Time 47280, Note Name: E5, Velocity: 49
Note OFF: Time 47300, Note Name: F#5
Note ON: Time 47400, Note Name: D#5, Velocity: 50
Note OFF: Time 47420, Note Name: E5
Note ON: Time 47520, Note Name: E5, Velocity: 50
Note OFF: Time 47540, Note Name: D#5
Note ON: Time 47640, Note Name: G5, Velocity: 53
Note OFF: Time 47660, Note Name: E5
Note ON: Time 47760, Note Name: F#5, Velocity: 50
Note OFF: Time 47780, Note Name: G5
Note ON: Time 47880, Note Name: E5, Velocity: 50
Note OFF: Time 47900, Note Name: F#5
Note ON: Time 48000, Note Name: D#5, Velocity: 50
Note OFF: Time 48020, Note Name: E5
Note ON: Time 48120, Note Name: C#5, Velocity: 49
Note OFF: Time 48140, Note Name: D#5
Note ON: Time 48240, Note Name: B4, Velocity: 48
Note OFF: Time 48260, Note Name: C#5
Note ON: Time 48360, Note Name: A#4, Velocity: 47
Note OFF: Time 48380, Note Name: B4
Note ON: Time 48480, Note Name: B4, Velocity: 49
Note OFF: Time 48500, Note Name: A#4
Note ON: Time 48600, Note Name: C#5, Velocity: 50
Note OFF: Time 48620, Note Name: B4
Note ON: Time 48720, Note Name: D5, Velocity: 50
Note OFF: Time 48740, Note Name: C#5
Note ON: Time 48840, Note Name: D#5, Velocity: 52
Note OFF: Time 48860, Note Name: D5
Note ON: Time 48960, Note Name: E5, Velocity: 52
Note OFF: Time 48980, Note Name: D#5
Note ON: Time 49080, Note Name: D#5, Velocity: 52
Note OFF: Time 49100, Note Name: E5
Note ON: Time 49200, Note Name: E5, Velocity: 54
Note OFF: Time 49220, Note Name: D#5
Note ON: Time 49320, Note Name: F#5, Velocity: 54
Note OFF: Time 49340, Note Name: E5
Note ON: Time 49440, Note Name: G5, Velocity: 56
Note OFF: Time 49460, Note Name: F#5
Note ON: Time 49560, Note Name: G#5, Velocity: 58
Note OFF: Time 49580, Note Name: G5
Note ON: Time 49680, Note Name: A5, Velocity: 60
Note OFF: Time 49700, Note Name: G#5
Note ON: Time 49800, Note Name: A#5, Velocity: 62
Note OFF: Time 49820, Note Name: A5
Note ON: Time 49920, Note Name: B5, Velocity: 68
Note OFF: Time 49940, Note Name: A#5
Note OFF: Time 50040, Note Name: B5
Note ON: Time 50040, Note Name: F#5, Velocity: 60
Note OFF: Time 50160, Note Name: F#5
Note ON: Time 50160, Note Name: D#5, Velocity: 61
Note OFF: Time 50280, Note Name: D#5
Note ON: Time 50280, Note Name: B4, Velocity: 61
Note OFF: Time 50400, Note Name: B4
Note ON: Time 50400, Note Name: A#4, Velocity: 75
Note OFF: Time 50520, Note Name: A#4
Note ON: Time 50520, Note Name: B4, Velocity: 63
Note OFF: Time 50640, Note Name: B4
Note ON: Time 50640, Note Name: E5, Velocity: 63
Note OFF: Time 50760, Note Name: E5
Note ON: Time 50760, Note Name: G5, Velocity: 63
Note OFF: Time 50880, Note Name: G5
Note ON: Time 50880, Note Name: B5, Velocity: 74
Note OFF: Time 51000, Note Name: B5
Note ON: Time 51000, Note Name: F#5, Velocity: 65
Note OFF: Time 51120, Note Name: F#5
Note ON: Time 51120, Note Name: D#5, Velocity: 68
Note OFF: Time 51240, Note Name: D#5
Note ON: Time 51240, Note Name: B4, Velocity: 68
Note OFF: Time 51360, Note Name: B4
Note ON: Time 51360, Note Name: A#4, Velocity: 80
Note OFF: Time 51480, Note Name: A#4
Note ON: Time 51480, Note Name: B4, Velocity: 71
Note OFF: Time 51600, Note Name: B4
Note ON: Time 51600, Note Name: E5, Velocity: 71
Note OFF: Time 51720, Note Name: E5
Note ON: Time 51720, Note Name: G5, Velocity: 72
Note OFF: Time 51840, Note Name: G5
Note ON: Time 51840, Note Name: B5, Velocity: 91
Note OFF: Time 51960, Note Name: B5
Note ON: Time 51960, Note Name: F#5, Velocity: 82
Note OFF: Time 52080, Note Name: F#5
Note ON: Time 52080, Note Name: D#5, Velocity: 82
Note OFF: Time 52200, Note Name: D#5
Note ON: Time 52200, Note Name: B4, Velocity: 82
Note OFF: Time 52320, Note Name: B4
Note ON: Time 52320, Note Name: B5, Velocity: 91
Note OFF: Time 52440, Note Name: B5
Note ON: Time 52440, Note Name: G5, Velocity: 82
Note OFF: Time 52560, Note Name: G5
Note ON: Time 52560, Note Name: E5, Velocity: 82
Note OFF: Time 52680, Note Name: E5
Note ON: Time 52680, Note Name: B4, Velocity: 82
Note OFF: Time 52800, Note Name: B4
Note ON: Time 52800, Note Name: B5, Velocity: 91
Note OFF: Time 52920, Note Name: B5
Note ON: Time 52920, Note Name: F#5, Velocity: 82
Note OFF: Time 53040, Note Name: F#5
Note ON: Time 53040, Note Name: D#5, Velocity: 81
Note OFF: Time 53160, Note Name: D#5
Note ON: Time 53160, Note Name: B4, Velocity: 81
Note OFF: Time 53280, Note Name: B4
Note ON: Time 53280, Note Name: B5, Velocity: 91
Note OFF: Time 53400, Note Name: B5
Note ON: Time 53400, Note Name: G5, Velocity: 81
Note OFF: Time 53520, Note Name: G5
Note ON: Time 53520, Note Name: E5, Velocity: 81
Note OFF: Time 53640, Note Name: E5
Note ON: Time 53640, Note Name: B4, Velocity: 82
Note OFF: Time 53760, Note Name: B4
Note ON: Time 53760, Note Name: B5, Velocity: 91
Note OFF: Time 53880, Note Name: B5
Note ON: Time 53880, Note Name: F#5, Velocity: 82
Note OFF: Time 54000, Note Name: F#5
Note ON: Time 54000, Note Name: D#5, Velocity: 82
Note OFF: Time 54120, Note Name: D#5
Note ON: Time 54120, Note Name: B4, Velocity: 82
Note OFF: Time 54240, Note Name: B4
Note ON: Time 54240, Note Name: F#5, Velocity: 91
Note OFF: Time 54360, Note Name: F#5
Note ON: Time 54360, Note Name: D#5, Velocity: 82
Note OFF: Time 54480, Note Name: D#5
Note ON: Time 54480, Note Name: B4, Velocity: 82
Note OFF: Time 54600, Note Name: B4
Note ON: Time 54600, Note Name: F#4, Velocity: 82
Note OFF: Time 54720, Note Name: F#4
Note ON: Time 54720, Note Name: D#5, Velocity: 91
Note OFF: Time 54840, Note Name: D#5
Note ON: Time 54840, Note Name: B4, Velocity: 82
Note OFF: Time 54960, Note Name: B4
Note ON: Time 54960, Note Name: F#4, Velocity: 81
Note OFF: Time 55080, Note Name: F#4
Note ON: Time 55080, Note Name: D#4, Velocity: 81
Note OFF: Time 55200, Note Name: D#4
Note ON: Time 55200, Note Name: B4, Velocity: 91
Note OFF: Time 55320, Note Name: B4
Note ON: Time 55320, Note Name: F#4, Velocity: 81
Note OFF: Time 55440, Note Name: F#4
Note ON: Time 55440, Note Name: D#4, Velocity: 81
Note OFF: Time 55560, Note Name: D#4
Note ON: Time 55560, Note Name: B3, Velocity: 82
Note OFF: Time 55680, Note Name: B3
Note ON: Time 55680, Note Name: F#4, Velocity: 91
Note OFF: Time 55800, Note Name: F#4
Note ON: Time 55800, Note Name: D#4, Velocity: 81
Note OFF: Time 55920, Note Name: D#4
Note ON: Time 55920, Note Name: B3, Velocity: 80
Note OFF: Time 56040, Note Name: B3
Note ON: Time 56040, Note Name: F#3, Velocity: 80
Note OFF: Time 56160, Note Name: F#3
Note ON: Time 56160, Note Name: D#4, Velocity: 89
Note OFF: Time 56280, Note Name: D#4
Note ON: Time 56280, Note Name: B3, Velocity: 79
Note OFF: Time 56400, Note Name: B3
Note ON: Time 56400, Note Name: F#3, Velocity: 79
Note OFF: Time 56520, Note Name: F#3
Note ON: Time 56520, Note Name: D#3, Velocity: 78
Note OFF: Time 56640, Note Name: D#3
Note ON: Time 56640, Note Name: B3, Velocity: 87
Note OFF: Time 56760, Note Name: B3
Note ON: Time 56760, Note Name: F#3, Velocity: 78
Note OFF: Time 56880, Note Name: F#3
Note ON: Time 56880, Note Name: D#3, Velocity: 77
Note OFF: Time 57000, Note Name: D#3
Note ON: Time 57000, Note Name: B2, Velocity: 77
Note OFF: Time 57120, Note Name: B2
Note ON: Time 58560, Note Name: B4, Velocity: 75
Note OFF: Time 58680, Note Name: B4
Note ON: Time 58800, Note Name: B3, Velocity: 69
Note OFF: Time 58920, Note Name: B3
Note ON: Time 59040, Note Name: C#5, Velocity: 74
Note OFF: Time 59160, Note Name: C#5
Note ON: Time 59280, Note Name: C#4, Velocity: 65
Note OFF: Time 59400, Note Name: C#4
Note ON: Time 59520, Note Name: D#5, Velocity: 71
Note OFF: Time 59640, Note Name: D#5
Note ON: Time 59760, Note Name: D#4, Velocity: 64
Note OFF: Time 59880, Note Name: D#4
Note ON: Time 60480, Note Name: D#5, Velocity: 67
Note OFF: Time 60600, Note Name: D#5
Note ON: Time 60720, Note Name: D#4, Velocity: 53
Note OFF: Time 60840, Note Name: D#4
Note ON: Time 60960, Note Name: E5, Velocity: 59
Note OFF: Time 61080, Note Name: E5
Note ON: Time 61200, Note Name: E4, Velocity: 50
Note OFF: Time 61320, Note Name: E4
Note ON: Time 61440, Note Name: F#5, Velocity: 52
Note OFF: Time 61560, Note Name: F#5
Note ON: Time 61680, Note Name: F#4, Velocity: 49
Note OFF: Time 61800, Note Name: F#4
Note ON: Time 61920, Note Name: G#5, Velocity: 52
Note OFF: Time 62040, Note Name: G#5
Note ON: Time 62160, Note Name: G#4, Velocity: 49
Note OFF: Time 62280, Note Name: G#4
Note ON: Time 62400, Note Name: A5, Velocity: 52
Note OFF: Time 62520, Note Name: A5
Note ON: Time 62640, Note Name: A4, Velocity: 48
Note OFF: Time 62760, Note Name: A4
Note ON: Time 62880, Note Name: A5, Velocity: 52
Note OFF: Time 63000, Note Name: A5
Note ON: Time 63120, Note Name: B4, Velocity: 46
Note OFF: Time 63240, Note Name: B4
Note ON: Time 63360, Note Name: A5, Velocity: 51
Note OFF: Time 63480, Note Name: A5
Note ON: Time 63600, Note Name: C#5, Velocity: 46
Note OFF: Time 63720, Note Name: C#5
Note ON: Time 63840, Note Name: A5, Velocity: 51
Note OFF: Time 63960, Note Name: A5
Note ON: Time 64080, Note Name: D#5, Velocity: 46
Note OFF: Time 64200, Note Name: D#5
Note ON: Time 64320, Note Name: A5, Velocity: 51
Note OFF: Time 64440, Note Name: A5
Note ON: Time 64560, Note Name: E5, Velocity: 47
Note OFF: Time 64680, Note Name: E5
Note ON: Time 64800, Note Name: A5, Velocity: 50
Note OFF: Time 64920, Note Name: A5
Note ON: Time 65040, Note Name: F#5, Velocity: 46
Note OFF: Time 65160, Note Name: F#5
Note ON: Time 65280, Note Name: B4, Velocity: 42
Note ON: Time 65280, Note Name: E5, Velocity: 42
Note ON: Time 65280, Note Name: G#5, Velocity: 55
Note OFF: Time 66240, Note Name: G#5
Note OFF: Time 66240, Note Name: E5
Note OFF: Time 66240, Note Name: B4
Note ON: Time 66240, Note Name: A4, Velocity: 40
Note ON: Time 66240, Note Name: D#5, Velocity: 40
Note ON: Time 66240, Note Name: F#5, Velocity: 52
Note OFF: Time 66720, Note Name: F#5
Note OFF: Time 66720, Note Name: D#5
Note OFF: Time 66720, Note Name: A4
Note ON: Time 66720, Note Name: G#4, Velocity: 40
Note ON: Time 66720, Note Name: C#5, Velocity: 40
Note ON: Time 66720, Note Name: E5, Velocity: 52
Note OFF: Time 67200, Note Name: E5
Note OFF: Time 67200, Note Name: C#5
Note OFF: Time 67200, Note Name: G#4
Note ON: Time 67200, Note Name: F#4, Velocity: 42
Note ON: Time 67200, Note Name: C5, Velocity: 42
Note ON: Time 67200, Note Name: D#5, Velocity: 55
Note OFF: Time 68160, Note Name: D#5
Note OFF: Time 68160, Note Name: C5
Note OFF: Time 68160, Note Name: F#4
Note ON: Time 68160, Note Name: E4, Velocity: 40
Note ON: Time 68160, Note Name: C#5, Velocity: 52
Note OFF: Time 69120, Note Name: C#5
Note OFF: Time 69120, Note Name: E4
Note ON: Time 69120, Note Name: A4, Velocity: 49
Note ON: Time 69120, Note Name: B4, Velocity: 49
Note ON: Time 69120, Note Name: D#5, Velocity: 63
Note OFF: Time 70080, Note Name: D#5
Note OFF: Time 70080, Note Name: B4
Note OFF: Time 70080, Note Name: A4
Note ON: Time 70080, Note Name: B4, Velocity: 50
Note ON: Time 70080, Note Name: E5, Velocity: 66
Note OFF: Time 70560, Note Name: E5
Note OFF: Time 70560, Note Name: B4
Note ON: Time 70560, Note Name: C#5, Velocity: 48
Note ON: Time 70560, Note Name: E5, Velocity: 55
Note ON: Time 70560, Note Name: F#5, Velocity: 72
Note OFF: Time 71040, Note Name: F#5
Note OFF: Time 71040, Note Name: E5
Note OFF: Time 71040, Note Name: C#5
Note ON: Time 71040, Note Name: B4, Velocity: 59
Note ON: Time 71040, Note Name: E5, Velocity: 59
Note ON: Time 71040, Note Name: G#5, Velocity: 77
Note OFF: Time 72000, Note Name: G#5
Note OFF: Time 72000, Note Name: E5
Note ON: Time 72000, Note Name: D#5, Velocity: 32
Note ON: Time 72000, Note Name: F#5, Velocity: 49
Note OFF: Time 72480, Note Name: B4
Note ON: Time 72480, Note Name: A4, Velocity: 48
Note OFF: Time 72960, Note Name: A4
Note OFF: Time 72960, Note Name: F#5
Note OFF: Time 72960, Note Name: D#5
Note ON: Time 72960, Note Name: B3, Velocity: 37
Note ON: Time 72960, Note Name: E4, Velocity: 37
Note ON: Time 72960, Note Name: G#4, Velocity: 45
Note OFF: Time 73920, Note Name: G#4
Note OFF: Time 73920, Note Name: E4
Note OFF: Time 73920, Note Name: B3
Note ON: Time 73920, Note Name: A3, Velocity: 36
Note ON: Time 73920, Note Name: D#4, Velocity: 36
Note ON: Time 73920, Note Name: F#4, Velocity: 43
Note OFF: Time 74400, Note Name: F#4
Note OFF: Time 74400, Note Name: D#4
Note OFF: Time 74400, Note Name: A3
Note ON: Time 74400, Note Name: G#3, Velocity: 36
Note ON: Time 74400, Note Name: C#4, Velocity: 36
Note ON: Time 74400, Note Name: E4, Velocity: 43
Note OFF: Time 74880, Note Name: E4
Note OFF: Time 74880, Note Name: C#4
Note OFF: Time 74880, Note Name: G#3
Note ON: Time 74880, Note Name: F#3, Velocity: 37
Note ON: Time 74880, Note Name: C4, Velocity: 37
Note ON: Time 74880, Note Name: D#4, Velocity: 45
Note OFF: Time 75840, Note Name: D#4
Note OFF: Time 75840, Note Name: C4
Note OFF: Time 75840, Note Name: F#3
Note ON: Time 75840, Note Name: A3, Velocity: 36
Note ON: Time 75840, Note Name: E3, Velocity: 36
Note ON: Time 75840, Note Name: C#4, Velocity: 43
Note OFF: Time 76800, Note Name: C#4
Note OFF: Time 76800, Note Name: E3
Note OFF: Time 76800, Note Name: A3
Note ON: Time 76800, Note Name: E3, Velocity: 44
Note ON: Time 76800, Note Name: G#3, Velocity: 44
Note ON: Time 76800, Note Name: B3, Velocity: 52
Note OFF: Time 77280, Note Name: G#3
Note OFF: Time 77280, Note Name: E3
Note ON: Time 77280, Note Name: F#3, Velocity: 50
Note ON: Time 77280, Note Name: A3, Velocity: 50
Note OFF: Time 77760, Note Name: B3
Note ON: Time 77760, Note Name: C#4, Velocity: 61
Note OFF: Time 78240, Note Name: C#4
Note ON: Time 78240, Note Name: D#4, Velocity: 69
Note OFF: Time 78720, Note Name: D#4
Note OFF: Time 78720, Note Name: A3
Note OFF: Time 78720, Note Name: F#3
Note ON: Time 78720, Note Name: G#3, Velocity: 43
Note ON: Time 78720, Note Name: E4, Velocity: 49
Note OFF: Time 78840, Note Name: E4
Note OFF: Time 78880, Note Name: G#3
Note ON: Time 78880, Note Name: F#4, Velocity: 48
Note OFF: Time 79000, Note Name: F#4
Note ON: Time 79040, Note Name: G#4, Velocity: 49
Note OFF: Time 79160, Note Name: G#4
Note ON: Time 79200, Note Name: A4, Velocity: 47
Note OFF: Time 79320, Note Name: A4
Note ON: Time 79360, Note Name: B4, Velocity: 48
Note OFF: Time 79480, Note Name: B4
Note ON: Time 79520, Note Name: C#5, Velocity: 49
Note OFF: Time 79640, Note Name: C#5
Note ON: Time 79680, Note Name: D5, Velocity: 50
Note OFF: Time 79800, Note Name: D5
Note ON: Time 79840, Note Name: D#5, Velocity: 51
Note OFF: Time 79960, Note Name: D#5
Note ON: Time 80000, Note Name: E5, Velocity: 52
Note OFF: Time 80120, Note Name: E5
Note ON: Time 80160, Note Name: F5, Velocity: 52
Note OFF: Time 80280, Note Name: F5
Note ON: Time 80320, Note Name: F#5, Velocity: 53
Note OFF: Time 80440, Note Name: F#5
Note ON: Time 80480, Note Name: G5, Velocity: 53
Note OFF: Time 80600, Note Name: G5
Note ON: Time 80640, Note Name: B4, Velocity: 45
Note ON: Time 80640, Note Name: G#5, Velocity: 57
Note OFF: Time 80800, Note Name: G#5
Note ON: Time 80800, Note Name: G5, Velocity: 53
Note OFF: Time 80960, Note Name: G5
Note ON: Time 80960, Note Name: G#5, Velocity: 53
Note OFF: Time 81120, Note Name: G#5
Note ON: Time 81120, Note Name: A5, Velocity: 53
Note OFF: Time 81280, Note Name: A5
Note ON: Time 81280, Note Name: G5, Velocity: 53
Note OFF: Time 81440, Note Name: G5
Note ON: Time 81440, Note Name: G#5, Velocity: 53
Note OFF: Time 81600, Note Name: G#5
Note OFF: Time 81600, Note Name: B4
Note ON: Time 81600, Note Name: A4, Velocity: 60
Note ON: Time 81760, Note Name: G#5, Velocity: 54
Note OFF: Time 81920, Note Name: G#5
Note ON: Time 81920, Note Name: F#5, Velocity: 54
Note OFF: Time 82080, Note Name: F#5
Note OFF: Time 82080, Note Name: A4
Note ON: Time 82080, Note Name: G#4, Velocity: 60
Note ON: Time 82240, Note Name: F#5, Velocity: 53
Note OFF: Time 82400, Note Name: F#5
Note ON: Time 82400, Note Name: E5, Velocity: 53
Note OFF: Time 82560, Note Name: E5
Note OFF: Time 82560, Note Name: G#4
Note ON: Time 82560, Note Name: F#4, Velocity: 60
Note ON: Time 82720, Note Name: C5, Velocity: 54
Note OFF: Time 82880, Note Name: C5
Note ON: Time 82880, Note Name: D#5, Velocity: 54
Note OFF: Time 83040, Note Name: D#5
Note ON: Time 83040, Note Name: E5, Velocity: 54
Note OFF: Time 83200, Note Name: E5
Note ON: Time 83200, Note Name: C5, Velocity: 54
Note OFF: Time 83360, Note Name: C5
Note ON: Time 83360, Note Name: D#5, Velocity: 54
Note OFF: Time 83520, Note Name: D#5
Note OFF: Time 83520, Note Name: F#4
Note ON: Time 83520, Note Name: E4, Velocity: 60
Note ON: Time 83680, Note Name: A4, Velocity: 54
Note OFF: Time 83840, Note Name: A4
Note ON: Time 83840, Note Name: C#5, Velocity: 54
Note OFF: Time 84000, Note Name: C#5
Note ON: Time 84000, Note Name: D#5, Velocity: 54
Note OFF: Time 84160, Note Name: D#5
Note ON: Time 84160, Note Name: A4, Velocity: 54
Note OFF: Time 84320, Note Name: A4
Note ON: Time 84320, Note Name: C#5, Velocity: 54
Note OFF: Time 84480, Note Name: C#5
Note OFF: Time 84480, Note Name: E4
Note ON: Time 84480, Note Name: A4, Velocity: 62
Note ON: Time 84640, Note Name: D5, Velocity: 62
Note OFF: Time 84800, Note Name: D5
Note ON: Time 84800, Note Name: D#5, Velocity: 57
Note OFF: Time 84960, Note Name: D#5
Note ON: Time 84960, Note Name: E5, Velocity: 57
Note OFF: Time 85120, Note Name: E5
Note ON: Time 85120, Note Name: D5, Velocity: 59
Note OFF: Time 85280, Note Name: D5
Note ON: Time 85280, Note Name: D#5, Velocity: 59
Note OFF: Time 85440, Note Name: D#5
Note OFF: Time 85440, Note Name: A4
Note ON: Time 85440, Note Name: B4, Velocity: 71
Note ON: Time 85600, Note Name: F#5, Velocity: 63
Note OFF: Time 85760, Note Name: F#5
Note ON: Time 85760, Note Name: E5, Velocity: 64
Note OFF: Time 85920, Note Name: E5
Note OFF: Time 85920, Note Name: B4
Note ON: Time 85920, Note Name: C#5, Velocity: 74
Note ON: Time 86080, Note Name: G#5, Velocity: 65
Note OFF: Time 86240, Note Name: G#5
Note ON: Time 86240, Note Name: F#5, Velocity: 65
Note OFF: Time 86400, Note Name: F#5
Note OFF: Time 86400, Note Name: C#5
Note ON: Time 86400, Note Name: G#5, Velocity: 79
Note ON: Time 86400, Note Name: E5, Velocity: 79
Note OFF: Time 86560, Note Name: G#5
Note ON: Time 86560, Note Name: G5, Velocity: 72
Note OFF: Time 86720, Note Name: G5
Note ON: Time 86720, Note Name: G#5, Velocity: 72
Note OFF: Time 86880, Note Name: G#5
Note ON: Time 86880, Note Name: B5, Velocity: 68
Note OFF: Time 87040, Note Name: B5
Note ON: Time 87040, Note Name: A5, Velocity: 72
Note OFF: Time 87200, Note Name: A5
Note ON: Time 87200, Note Name: G#5, Velocity: 69
Note OFF: Time 87360, Note Name: G#5
Note OFF: Time 87360, Note Name: E5
Note ON: Time 87360, Note Name: D#5, Velocity: 67
Note ON: Time 87360, Note Name: F#5, Velocity: 67
Note OFF: Time 87520, Note Name: F#5
Note OFF: Time 87520, Note Name: D#5
Note ON: Time 87520, Note Name: C#5, Velocity: 64
Note ON: Time 87520, Note Name: E5, Velocity: 64
Note OFF: Time 87680, Note Name: E5
Note OFF: Time 87680, Note Name: C#5
Note ON: Time 87680, Note Name: D#5, Velocity: 60
Note ON: Time 87680, Note Name: B4, Velocity: 60
Note OFF: Time 87840, Note Name: B4
Note OFF: Time 87840, Note Name: D#5
Note ON: Time 87840, Note Name: A4, Velocity: 60
Note ON: Time 87840, Note Name: C#5, Velocity: 60
Note OFF: Time 88000, Note Name: C#5
Note OFF: Time 88000, Note Name: A4
Note ON: Time 88000, Note Name: G#4, Velocity: 56
Note ON: Time 88000, Note Name: B4, Velocity: 56
Note OFF: Time 88160, Note Name: B4
Note OFF: Time 88160, Note Name: G#4
Note ON: Time 88160, Note Name: F#4, Velocity: 53
Note ON: Time 88160, Note Name: A4, Velocity: 53
Note OFF: Time 88320, Note Name: A4
Note OFF: Time 88320, Note Name: F#4
Note ON: Time 88320, Note Name: B3, Velocity: 57
Note ON: Time 88320, Note Name: G#4, Velocity: 57
Note OFF: Time 88480, Note Name: G#4
Note ON: Time 88480, Note Name: G4, Velocity: 49
Note OFF: Time 88640, Note Name: G4
Note ON: Time 88640, Note Name: G#4, Velocity: 49
Note OFF: Time 88800, Note Name: G#4
Note ON: Time 88800, Note Name: A4, Velocity: 49
Note OFF: Time 88960, Note Name: A4
Note ON: Time 88960, Note Name: G4, Velocity: 49
Note OFF: Time 89120, Note Name: G4
Note ON: Time 89120, Note Name: G#4, Velocity: 49
Note OFF: Time 89280, Note Name: G#4
Note OFF: Time 89280, Note Name: B3
Note ON: Time 89280, Note Name: A3, Velocity: 56
Note ON: Time 89440, Note Name: G#4, Velocity: 50
Note OFF: Time 89600, Note Name: G#4
Note ON: Time 89600, Note Name: F#4, Velocity: 50
Note OFF: Time 89760, Note Name: F#4
Note OFF: Time 89760, Note Name: A3
Note ON: Time 89760, Note Name: G#3, Velocity: 56
Note ON: Time 89920, Note Name: F#4, Velocity: 49
Note OFF: Time 90080, Note Name: F#4
Note ON: Time 90080, Note Name: E4, Velocity: 49
Note OFF: Time 90240, Note Name: E4
Note OFF: Time 90240, Note Name: G#3
Note ON: Time 90400, Note Name: C4, Velocity: 50
Note OFF: Time 90560, Note Name: C4
Note ON: Time 90560, Note Name: D#4, Velocity: 50
Note OFF: Time 90720, Note Name: D#4
Note ON: Time 90720, Note Name: E4, Velocity: 53
Note OFF: Time 90880, Note Name: E4
Note ON: Time 90880, Note Name: C4, Velocity: 50
Note OFF: Time 91040, Note Name: C4
Note ON: Time 91040, Note Name: D#4, Velocity: 50
Note OFF: Time 91200, Note Name: D#4
Note ON: Time 91360, Note Name: A3, Velocity: 50
Note OFF: Time 91520, Note Name: A3
Note ON: Time 91520, Note Name: C#4, Velocity: 50
Note OFF: Time 91680, Note Name: C#4
Note ON: Time 91680, Note Name: D#4, Velocity: 53
Note OFF: Time 91840, Note Name: D#4
Note ON: Time 91840, Note Name: A3, Velocity: 50
Note OFF: Time 92000, Note Name: A3
Note ON: Time 92000, Note Name: C#4, Velocity: 50
Note OFF: Time 92160, Note Name: C#4
Note ON: Time 92160, Note Name: E3, Velocity: 60
Note ON: Time 92320, Note Name: G#3, Velocity: 56
Note OFF: Time 92480, Note Name: G#3
Note ON: Time 92480, Note Name: B3, Velocity: 57
Note OFF: Time 92640, Note Name: B3
Note OFF: Time 92640, Note Name: E3
Note ON: Time 92640, Note Name: F#3, Velocity: 66
Note ON: Time 92800, Note Name: A3, Velocity: 61
Note OFF: Time 92960, Note Name: A3
Note ON: Time 92960, Note Name: B3, Velocity: 61
Note OFF: Time 93120, Note Name: B3
Note OFF: Time 93120, Note Name: F#3
Note ON: Time 93120, Note Name: F#3, Velocity: 74
Note ON: Time 93280, Note Name: A3, Velocity: 67
Note OFF: Time 93440, Note Name: A3
Note ON: Time 93440, Note Name: C#4, Velocity: 65
Note OFF: Time 93600, Note Name: C#4
Note OFF: Time 93600, Note Name: F#3
Note ON: Time 93600, Note Name: F#3, Velocity: 80
Note ON: Time 93760, Note Name: A3, Velocity: 71
Note OFF: Time 93920, Note Name: A3
Note ON: Time 93920, Note Name: D#4, Velocity: 70
Note OFF: Time 94080, Note Name: D#4
Note OFF: Time 94080, Note Name: F#3
Note ON: Time 94080, Note Name: G#3, Velocity: 77
Note ON: Time 94080, Note Name: E4, Velocity: 82
Note OFF: Time 94240, Note Name: E4
Note OFF: Time 94240, Note Name: G#3
Note ON: Time 94240, Note Name: B3, Velocity: 75
Note OFF: Time 94400, Note Name: B3
Note ON: Time 94400, Note Name: G#3, Velocity: 77
Note OFF: Time 94560, Note Name: G#3
Note ON: Time 94560, Note Name: B3, Velocity: 82
Note OFF: Time 94720, Note Name: B3
Note ON: Time 94720, Note Name: E4, Velocity: 77
Note OFF: Time 94880, Note Name: E4
Note ON: Time 94880, Note Name: G#4, Velocity: 77
Note OFF: Time 95040, Note Name: G#4
Note ON: Time 95040, Note Name: F#4, Velocity: 82
Note OFF: Time 95200, Note Name: F#4
Note ON: Time 95200, Note Name: D#4, Velocity: 77
Note OFF: Time 95360, Note Name: D#4
Note ON: Time 95360, Note Name: B3, Velocity: 77
Note OFF: Time 95520, Note Name: B3
Note ON: Time 95520, Note Name: D#4, Velocity: 82
Note OFF: Time 95680, Note Name: D#4
Note ON: Time 95680, Note Name: F#4, Velocity: 77
Note OFF: Time 95840, Note Name: F#4
Note ON: Time 95840, Note Name: A4, Velocity: 77
Note OFF: Time 96000, Note Name: A4
Note ON: Time 96000, Note Name: G#4, Velocity: 82
Note OFF: Time 96160, Note Name: G#4
Note ON: Time 96160, Note Name: E4, Velocity: 75
Note OFF: Time 96320, Note Name: E4
Note ON: Time 96320, Note Name: B3, Velocity: 77
Note OFF: Time 96480, Note Name: B3
Note ON: Time 96480, Note Name: E4, Velocity: 82
Note OFF: Time 96640, Note Name: E4
Note ON: Time 96640, Note Name: G#4, Velocity: 77
Note OFF: Time 96800, Note Name: G#4
Note ON: Time 96800, Note Name: B4, Velocity: 77
Note OFF: Time 96960, Note Name: B4
Note ON: Time 96960, Note Name: A4, Velocity: 82
Note OFF: Time 97120, Note Name: A4
Note ON: Time 97120, Note Name: F#4, Velocity: 77
Note OFF: Time 97280, Note Name: F#4
Note ON: Time 97280, Note Name: D#4, Velocity: 77
Note OFF: Time 97440, Note Name: D#4
Note ON: Time 97440, Note Name: D#5, Velocity: 82
Note OFF: Time 97600, Note Name: D#5
Note ON: Time 97600, Note Name: A4, Velocity: 77
Note OFF: Time 97760, Note Name: A4
Note ON: Time 97760, Note Name: F#4, Velocity: 77
Note OFF: Time 97920, Note Name: F#4
Note ON: Time 97920, Note Name: G#4, Velocity: 63
Note ON: Time 97920, Note Name: E5, Velocity: 75
Note OFF: Time 98400, Note Name: E5
Note OFF: Time 98400, Note Name: G#4
Note ON: Time 98400, Note Name: B4, Velocity: 80
Note OFF: Time 99360, Note Name: B4
Note ON: Time 99360, Note Name: B4, Velocity: 80
Note OFF: Time 100320, Note Name: B4
Note ON: Time 100320, Note Name: B4, Velocity: 80
Note OFF: Time 101280, Note Name: B4
Note ON: Time 101280, Note Name: B4, Velocity: 80
Note OFF: Time 101760, Note Name: B4
Note ON: Time 101760, Note Name: E5, Velocity: 82
Note OFF: Time 101920, Note Name: E5
Note ON: Time 101920, Note Name: B4, Velocity: 75
Note OFF: Time 102080, Note Name: B4
Note ON: Time 102080, Note Name: G#4, Velocity: 77
Note OFF: Time 102240, Note Name: G#4
Note ON: Time 102240, Note Name: B4, Velocity: 82
Note OFF: Time 102400, Note Name: B4
Note ON: Time 102400, Note Name: E5, Velocity: 77
Note OFF: Time 102560, Note Name: E5
Note ON: Time 102560, Note Name: G#5, Velocity: 77
Note OFF: Time 102720, Note Name: G#5
Note ON: Time 102720, Note Name: F#5, Velocity: 82
Note OFF: Time 102880, Note Name: F#5
Note ON: Time 102880, Note Name: D#5, Velocity: 77
Note OFF: Time 103040, Note Name: D#5
Note ON: Time 103040, Note Name: B4, Velocity: 77
Note OFF: Time 103200, Note Name: B4
Note ON: Time 103200, Note Name: D#5, Velocity: 82
Note OFF: Time 103360, Note Name: D#5
Note ON: Time 103360, Note Name: F#5, Velocity: 77
Note OFF: Time 103520, Note Name: F#5
Note ON: Time 103520, Note Name: A5, Velocity: 77
Note OFF: Time 103680, Note Name: A5
Note ON: Time 103680, Note Name: G#5, Velocity: 82
Note OFF: Time 103840, Note Name: G#5
Note ON: Time 103840, Note Name: E5, Velocity: 75
Note OFF: Time 104000, Note Name: E5
Note ON: Time 104000, Note Name: B4, Velocity: 77
Note OFF: Time 104160, Note Name: B4
Note ON: Time 104160, Note Name: E5, Velocity: 82
Note OFF: Time 104320, Note Name: E5
Note ON: Time 104320, Note Name: G#5, Velocity: 77
Note OFF: Time 104480, Note Name: G#5
Note ON: Time 104480, Note Name: B5, Velocity: 77
Note OFF: Time 104640, Note Name: B5
Note ON: Time 104640, Note Name: A5, Velocity: 82
Note OFF: Time 104800, Note Name: A5
Note ON: Time 104800, Note Name: F#5, Velocity: 77
Note OFF: Time 104960, Note Name: F#5
Note ON: Time 104960, Note Name: D#5, Velocity: 77
Note OFF: Time 105120, Note Name: D#5
Note ON: Time 105120, Note Name: D#6, Velocity: 82
Note OFF: Time 105280, Note Name: D#6
Note ON: Time 105280, Note Name: A5, Velocity: 77
Note OFF: Time 105440, Note Name: A5
Note ON: Time 105440, Note Name: F#5, Velocity: 77
Note OFF: Time 105600, Note Name: F#5
Note ON: Time 105600, Note Name: E6, Velocity: 84
Note ON: Time 105760, Note Name: B5, Velocity: 74
Note OFF: Time 105840, Note Name: E6
Note OFF: Time 105920, Note Name: B5
Note ON: Time 105920, Note Name: G#5, Velocity: 74
Note OFF: Time 106080, Note Name: G#5
Note ON: Time 106080, Note Name: B5, Velocity: 79
Note ON: Time 106240, Note Name: G#5, Velocity: 73
Note OFF: Time 106320, Note Name: B5
Note OFF: Time 106400, Note Name: G#5
Note ON: Time 106400, Note Name: E5, Velocity: 72
Note OFF: Time 106560, Note Name: E5
Note ON: Time 106560, Note Name: A5, Velocity: 78
Note ON: Time 106720, Note Name: F#5, Velocity: 71
Note OFF: Time 106800, Note Name: A5
Note OFF: Time 106880, Note Name: F#5
Note ON: Time 106880, Note Name: D#5, Velocity: 70
Note OFF: Time 107040, Note Name: D#5
Note ON: Time 107040, Note Name: D#6, Velocity: 77
Note ON: Time 107200, Note Name: B5, Velocity: 69
Note OFF: Time 107280, Note Name: D#6
Note OFF: Time 107360, Note Name: B5
Note ON: Time 107360, Note Name: F#5, Velocity: 67
Note OFF: Time 107520, Note Name: F#5
Note ON: Time 107520, Note Name: E6, Velocity: 74
Note ON: Time 107680, Note Name: B5, Velocity: 65
Note OFF: Time 107760, Note Name: E6
Note OFF: Time 107840, Note Name: B5
Note ON: Time 107840, Note Name: G#5, Velocity: 65
Note OFF: Time 108000, Note Name: G#5
Note ON: Time 108000, Note Name: B5, Velocity: 72
Note ON: Time 108160, Note Name: G#5, Velocity: 64
Note OFF: Time 108240, Note Name: B5
Note OFF: Time 108320, Note Name: G#5
Note ON: Time 108320, Note Name: E5, Velocity: 63
Note OFF: Time 108480, Note Name: E5
Note ON: Time 108480, Note Name: A5, Velocity: 69
Note ON: Time 108640, Note Name: F#5, Velocity: 62
Note OFF: Time 108720, Note Name: A5
Note OFF: Time 108800, Note Name: F#5
Note ON: Time 108800, Note Name: D#5, Velocity: 60
Note OFF: Time 108960, Note Name: D#5
Note ON: Time 108960, Note Name: D#6, Velocity: 68
Note ON: Time 109120, Note Name: B5, Velocity: 59
Note OFF: Time 109200, Note Name: D#6
Note OFF: Time 109280, Note Name: B5
Note ON: Time 109280, Note Name: F#5, Velocity: 58
Note OFF: Time 109440, Note Name: F#5
Note ON: Time 109440, Note Name: E6, Velocity: 64
Note OFF: Time 109560, Note Name: E6
Note ON: Time 109560, Note Name: B5, Velocity: 58
Note OFF: Time 109680, Note Name: B5
Note ON: Time 109680, Note Name: G#5, Velocity: 58
Note OFF: Time 109800, Note Name: G#5
Note ON: Time 109800, Note Name: E5, Velocity: 59
Note OFF: Time 109920, Note Name: E5
Note ON: Time 109920, Note Name: A5, Velocity: 65
Note OFF: Time 110040, Note Name: A5
Note ON: Time 110040, Note Name: F#5, Velocity: 59
Note OFF: Time 110160, Note Name: F#5
Note ON: Time 110160, Note Name: D#6, Velocity: 62
Note OFF: Time 110280, Note Name: D#6
Note ON: Time 110280, Note Name: B5, Velocity: 63
Note OFF: Time 110400, Note Name: B5
Note ON: Time 110400, Note Name: E6, Velocity: 69
Note OFF: Time 110520, Note Name: E6
Note ON: Time 110520, Note Name: B5, Velocity: 63
Note OFF: Time 110640, Note Name: B5
Note ON: Time 110640, Note Name: G#5, Velocity: 63
Note OFF: Time 110760, Note Name: G#5
Note ON: Time 110760, Note Name: E5, Velocity: 64
Note OFF: Time 110880, Note Name: E5
Note ON: Time 110880, Note Name: A5, Velocity: 71
Note OFF: Time 111000, Note Name: A5
Note ON: Time 111000, Note Name: F#5, Velocity: 66
Note OFF: Time 111120, Note Name: F#5
Note ON: Time 111120, Note Name: D#6, Velocity: 67
Note OFF: Time 111240, Note Name: D#6
Note ON: Time 111240, Note Name: B5, Velocity: 67
Note OFF: Time 111360, Note Name: B5
Note ON: Time 111360, Note Name: E6, Velocity: 74
Note OFF: Time 111480, Note Name: E6
Note ON: Time 111480, Note Name: B5, Velocity: 67
Note OFF: Time 111600, Note Name: B5
Note ON: Time 111600, Note Name: D#6, Velocity: 69
Note OFF: Time 111720, Note Name: D#6
Note ON: Time 111720, Note Name: B5, Velocity: 69
Note OFF: Time 111840, Note Name: B5
Note ON: Time 111840, Note Name: E6, Velocity: 77
Note OFF: Time 111960, Note Name: E6
Note ON: Time 111960, Note Name: B5, Velocity: 77
Note OFF: Time 112080, Note Name: B5
Note ON: Time 112080, Note Name: D#6, Velocity: 72
Note OFF: Time 112200, Note Name: D#6
Note ON: Time 112200, Note Name: B5, Velocity: 73
Note OFF: Time 112320, Note Name: B5
Note ON: Time 112320, Note Name: E6, Velocity: 80
Note OFF: Time 112440, Note Name: E6
Note ON: Time 112440, Note Name: B5, Velocity: 73
Note OFF: Time 112560, Note Name: B5
Note ON: Time 112560, Note Name: D#6, Velocity: 74
Note OFF: Time 112680, Note Name: D#6
Note ON: Time 112680, Note Name: B5, Velocity: 74
Note OFF: Time 112800, Note Name: B5
Note ON: Time 112800, Note Name: E6, Velocity: 82
Note OFF: Time 112920, Note Name: E6
Note ON: Time 112920, Note Name: B5, Velocity: 85
Note OFF: Time 113040, Note Name: B5
Note ON: Time 113040, Note Name: D#6, Velocity: 78
Note OFF: Time 113160, Note Name: D#6
Note ON: Time 113160, Note Name: B5, Velocity: 79
Note OFF: Time 113280, Note Name: B5
Note ON: Time 113280, Note Name: E6, Velocity: 89
Note OFF: Time 113400, Note Name: E6
Note ON: Time 113400, Note Name: B5, Velocity: 81
Note OFF: Time 113520, Note Name: B5
Note ON: Time 113520, Note Name: D6, Velocity: 81
Note OFF: Time 113640, Note Name: D6
Note ON: Time 113640, Note Name: B5, Velocity: 81
Note OFF: Time 113760, Note Name: B5
Note ON: Time 113760, Note Name: D6, Velocity: 89
Note OFF: Time 113880, Note Name: D6
Note ON: Time 113880, Note Name: B5, Velocity: 83
Note OFF: Time 114000, Note Name: B5
Note ON: Time 114000, Note Name: D6, Velocity: 82
Note OFF: Time 114120, Note Name: D6
Note ON: Time 114120, Note Name: B5, Velocity: 82
Note OFF: Time 114240, Note Name: B5
Note ON: Time 114240, Note Name: D6, Velocity: 89
Note OFF: Time 114360, Note Name: D6
Note ON: Time 114360, Note Name: B5, Velocity: 81
Note OFF: Time 114480, Note Name: B5
Note ON: Time 114480, Note Name: D6, Velocity: 81
Note OFF: Time 114600, Note Name: D6
Note ON: Time 114600, Note Name: B5, Velocity: 81
Note OFF: Time 114720, Note Name: B5
Note ON: Time 114720, Note Name: D6, Velocity: 89
Note OFF: Time 114840, Note Name: D6
Note ON: Time 114840, Note Name: B5, Velocity: 83
Note OFF: Time 114960, Note Name: B5
Note ON: Time 114960, Note Name: D6, Velocity: 82
Note OFF: Time 115080, Note Name: D6
Note ON: Time 115080, Note Name: B5, Velocity: 82
Note OFF: Time 115200, Note Name: B5
Note ON: Time 115200, Note Name: D6, Velocity: 89
Note OFF: Time 115440, Note Name: D6
Note ON: Time 115440, Note Name: C#6, Velocity: 81
Note OFF: Time 115560, Note Name: C#6
Note ON: Time 115560, Note Name: B5, Velocity: 81
Note OFF: Time 115680, Note Name: B5
Note ON: Time 115680, Note Name: A5, Velocity: 88
Note OFF: Time 115800, Note Name: A5
Note ON: Time 115800, Note Name: G#5, Velocity: 83
Note OFF: Time 115920, Note Name: G#5
Note ON: Time 115920, Note Name: F#5, Velocity: 83
Note OFF: Time 116040, Note Name: F#5
Note ON: Time 116040, Note Name: E5, Velocity: 83
Note OFF: Time 116160, Note Name: E5
Note ON: Time 116160, Note Name: D5, Velocity: 88
Note OFF: Time 116280, Note Name: D5
Note ON: Time 116280, Note Name: C#5, Velocity: 82
Note OFF: Time 116400, Note Name: C#5
Note ON: Time 116400, Note Name: B4, Velocity: 83
Note OFF: Time 116520, Note Name: B4
Note ON: Time 116520, Note Name: A4, Velocity: 83
Note OFF: Time 116640, Note Name: A4
Note ON: Time 116640, Note Name: G#4, Velocity: 91
Note OFF: Time 116760, Note Name: G#4
Note ON: Time 116760, Note Name: F#4, Velocity: 86
Note OFF: Time 116880, Note Name: F#4
Note ON: Time 116880, Note Name: E4, Velocity: 85
Note OFF: Time 117000, Note Name: E4
Note ON: Time 117000, Note Name: D4, Velocity: 85
Note OFF: Time 117120, Note Name: D4
Note ON: Time 117120, Note Name: C#4, Velocity: 93
Note OFF: Time 117240, Note Name: C#4
Note ON: Time 117240, Note Name: D#4, Velocity: 84
Note OFF: Time 117360, Note Name: D#4
Note ON: Time 117360, Note Name: E4, Velocity: 84
Note OFF: Time 117480, Note Name: E4
Note ON: Time 117480, Note Name: D#4, Velocity: 86
Note OFF: Time 117600, Note Name: D#4
Note ON: Time 117600, Note Name: E4, Velocity: 92
Note OFF: Time 117720, Note Name: E4
Note ON: Time 117720, Note Name: G#4, Velocity: 85
Note OFF: Time 117840, Note Name: G#4
Note ON: Time 117840, Note Name: A4, Velocity: 85
Note OFF: Time 117960, Note Name: A4
Note ON: Time 117960, Note Name: G#4, Velocity: 85
Note OFF: Time 118080, Note Name: G#4
Note ON: Time 118080, Note Name: A4, Velocity: 93
Note OFF: Time 118200, Note Name: A4
Note ON: Time 118200, Note Name: C5, Velocity: 84
Note OFF: Time 118320, Note Name: C5
Note ON: Time 118320, Note Name: C#5, Velocity: 84
Note OFF: Time 118440, Note Name: C#5
Note ON: Time 118440, Note Name: C5, Velocity: 84
Note OFF: Time 118560, Note Name: C5
Note ON: Time 118560, Note Name: C#5, Velocity: 93
Note OFF: Time 118680, Note Name: C#5
Note ON: Time 118680, Note Name: D#5, Velocity: 84
Note OFF: Time 118800, Note Name: D#5
Note ON: Time 118800, Note Name: E5, Velocity: 84
Note OFF: Time 118920, Note Name: E5
Note ON: Time 118920, Note Name: D#5, Velocity: 84
Note OFF: Time 119040, Note Name: D#5
Note ON: Time 119040, Note Name: E5, Velocity: 95
Note OFF: Time 119160, Note Name: E5
Note ON: Time 119160, Note Name: G#5, Velocity: 86
Note OFF: Time 119280, Note Name: G#5
Note ON: Time 119280, Note Name: A5, Velocity: 86
Note OFF: Time 119400, Note Name: A5
Note ON: Time 119400, Note Name: G#5, Velocity: 86
Note OFF: Time 119520, Note Name: G#5
Note ON: Time 119520, Note Name: A5, Velocity: 95
Note OFF: Time 119640, Note Name: A5
Note ON: Time 119640, Note Name: C6, Velocity: 86
Note OFF: Time 119760, Note Name: C6
Note ON: Time 119760, Note Name: C#6, Velocity: 86
Note OFF: Time 119880, Note Name: C#6
Note ON: Time 119880, Note Name: C6, Velocity: 86
Note OFF: Time 120000, Note Name: C6
Note ON: Time 120000, Note Name: C#6, Velocity: 95
Note OFF: Time 120120, Note Name: C#6
Note ON: Time 120120, Note Name: D#6, Velocity: 86
Note OFF: Time 120240, Note Name: D#6
Note ON: Time 120240, Note Name: E6, Velocity: 86
Note OFF: Time 120360, Note Name: E6
Note ON: Time 120360, Note Name: D#6, Velocity: 86
Note OFF: Time 120480, Note Name: D#6
Note ON: Time 120480, Note Name: E6, Velocity: 95
Note OFF: Time 120600, Note Name: E6
Note ON: Time 120600, Note Name: D#6, Velocity: 86
Note OFF: Time 120720, Note Name: D#6
Note ON: Time 120720, Note Name: C#6, Velocity: 86
Note OFF: Time 120840, Note Name: C#6
Note ON: Time 120840, Note Name: C6, Velocity: 86
Note OFF: Time 120960, Note Name: C6
Note ON: Time 120960, Note Name: C#6, Velocity: 95
Note OFF: Time 121080, Note Name: C#6
Note ON: Time 121080, Note Name: C6, Velocity: 86
Note OFF: Time 121200, Note Name: C6
Note ON: Time 121200, Note Name: C#6, Velocity: 86
Note OFF: Time 121320, Note Name: C#6
Note ON: Time 121320, Note Name: D#6, Velocity: 86
Note OFF: Time 121440, Note Name: D#6
Note ON: Time 121440, Note Name: E6, Velocity: 95
Note OFF: Time 121560, Note Name: E6
Note ON: Time 121560, Note Name: D#6, Velocity: 86
Note OFF: Time 121680, Note Name: D#6
Note ON: Time 121680, Note Name: C#6, Velocity: 86
Note OFF: Time 121800, Note Name: C#6
Note ON: Time 121800, Note Name: C6, Velocity: 86
Note OFF: Time 121920, Note Name: C6
Note ON: Time 121920, Note Name: C#6, Velocity: 95
Note OFF: Time 122040, Note Name: C#6
Note ON: Time 122040, Note Name: C6, Velocity: 86
Note OFF: Time 122160, Note Name: C6
Note ON: Time 122160, Note Name: C#6, Velocity: 86
Note OFF: Time 122280, Note Name: C#6
Note ON: Time 122280, Note Name: D#6, Velocity: 86
Note OFF: Time 122400, Note Name: D#6
Note ON: Time 122400, Note Name: E6, Velocity: 95
Note OFF: Time 122520, Note Name: E6
Note ON: Time 122520, Note Name: D#6, Velocity: 86
Note OFF: Time 122640, Note Name: D#6
Note ON: Time 122640, Note Name: C#6, Velocity: 86
Note OFF: Time 122760, Note Name: C#6
Note ON: Time 122760, Note Name: C6, Velocity: 86
Note OFF: Time 122880, Note Name: C6
Note ON: Time 122880, Note Name: C#6, Velocity: 95
Note OFF: Time 123000, Note Name: C#6
Note ON: Time 123000, Note Name: C6, Velocity: 86
Note OFF: Time 123120, Note Name: C6
Note ON: Time 123120, Note Name: C#6, Velocity: 86
Note OFF: Time 123240, Note Name: C#6
Note ON: Time 123240, Note Name: D#6, Velocity: 86
Note OFF: Time 123360, Note Name: D#6
Note ON: Time 123360, Note Name: E6, Velocity: 95
Note OFF: Time 123480, Note Name: E6
Note ON: Time 123480, Note Name: D#6, Velocity: 86
Note OFF: Time 123600, Note Name: D#6
Note ON: Time 123600, Note Name: C#6, Velocity: 86
Note OFF: Time 123720, Note Name: C#6
Note ON: Time 123720, Note Name: C6, Velocity: 86
Note OFF: Time 123840, Note Name: C6
Note ON: Time 123840, Note Name: C#6, Velocity: 95
Note OFF: Time 123960, Note Name: C#6
Note ON: Time 123960, Note Name: C6, Velocity: 86
Note OFF: Time 124080, Note Name: C6
Note ON: Time 124080, Note Name: C#6, Velocity: 86
Note OFF: Time 124200, Note Name: C#6
Note ON: Time 124200, Note Name: D#6, Velocity: 86
Note OFF: Time 124320, Note Name: D#6
Note ON: Time 124320, Note Name: E6, Velocity: 95
Note OFF: Time 124440, Note Name: E6
Note ON: Time 124440, Note Name: D#6, Velocity: 86
Note OFF: Time 124560, Note Name: D#6
Note ON: Time 124560, Note Name: E6, Velocity: 86
Note OFF: Time 124680, Note Name: E6
Note ON: Time 124680, Note Name: C#6, Velocity: 86
Note OFF: Time 124800, Note Name: C#6
Note ON: Time 124800, Note Name: B4, Velocity: 87
Note ON: Time 124800, Note Name: B5, Velocity: 103
Note OFF: Time 124920, Note Name: B5
Note OFF: Time 124920, Note Name: B4
Note ON: Time 125040, Note Name: B4, Velocity: 73
Note ON: Time 125040, Note Name: B5, Velocity: 87
Note OFF: Time 125160, Note Name: B5
Note OFF: Time 125160, Note Name: B4
Note ON: Time 125280, Note Name: G#4, Velocity: 74
Note ON: Time 125280, Note Name: G#5, Velocity: 88
Note OFF: Time 125400, Note Name: G#5
Note OFF: Time 125400, Note Name: G#4
Note ON: Time 125520, Note Name: E4, Velocity: 73
Note ON: Time 125520, Note Name: E5, Velocity: 87
Note OFF: Time 125640, Note Name: E5
Note OFF: Time 125640, Note Name: E4
Note ON: Time 125760, Note Name: E5, Velocity: 87
Note ON: Time 125760, Note Name: E6, Velocity: 103
Note OFF: Time 125880, Note Name: E6
Note OFF: Time 125880, Note Name: E5
Note ON: Time 126000, Note Name: E5, Velocity: 73
Note ON: Time 126000, Note Name: E6, Velocity: 87
Note OFF: Time 126120, Note Name: E6
Note OFF: Time 126120, Note Name: E5
Note ON: Time 126240, Note Name: B4, Velocity: 73
Note ON: Time 126240, Note Name: B5, Velocity: 87
Note OFF: Time 126360, Note Name: B5
Note OFF: Time 126360, Note Name: B4
Note ON: Time 126480, Note Name: G#4, Velocity: 73
Note ON: Time 126480, Note Name: G#5, Velocity: 87
Note OFF: Time 126600, Note Name: G#5
Note OFF: Time 126600, Note Name: G#4
Note ON: Time 126720, Note Name: B4, Velocity: 87
Note ON: Time 126720, Note Name: B5, Velocity: 103
Note OFF: Time 126840, Note Name: B5
Note OFF: Time 126840, Note Name: B4
Note ON: Time 126960, Note Name: B4, Velocity: 73
Note ON: Time 126960, Note Name: B5, Velocity: 87
Note OFF: Time 127080, Note Name: B5
Note OFF: Time 127080, Note Name: B4
Note ON: Time 127200, Note Name: G#4, Velocity: 74
Note ON: Time 127200, Note Name: G#5, Velocity: 88
Note OFF: Time 127320, Note Name: G#5
Note OFF: Time 127320, Note Name: G#4
Note ON: Time 127440, Note Name: E4, Velocity: 73
Note ON: Time 127440, Note Name: E5, Velocity: 87
Note OFF: Time 127560, Note Name: E5
Note OFF: Time 127560, Note Name: E4
Note ON: Time 127680, Note Name: E5, Velocity: 87
Note ON: Time 127680, Note Name: E6, Velocity: 103
Note OFF: Time 127800, Note Name: E6
Note OFF: Time 127800, Note Name: E5
Note ON: Time 127920, Note Name: E5, Velocity: 73
Note ON: Time 127920, Note Name: E6, Velocity: 87
Note OFF: Time 128040, Note Name: E6
Note OFF: Time 128040, Note Name: E5
Note ON: Time 128160, Note Name: B4, Velocity: 73
Note ON: Time 128160, Note Name: B5, Velocity: 87
Note OFF: Time 128280, Note Name: B5
Note OFF: Time 128280, Note Name: B4
Note ON: Time 128400, Note Name: G#4, Velocity: 73
Note ON: Time 128400, Note Name: G#5, Velocity: 87
Note OFF: Time 128520, Note Name: G#5
Note OFF: Time 128520, Note Name: G#4
Note ON: Time 128760, Note Name: G#5, Velocity: 47
Note OFF: Time 128880, Note Name: G#5
Note ON: Time 128880, Note Name: B5, Velocity: 50
Note OFF: Time 128999, Note Name: B5
Note ON: Time 129000, Note Name: G#5, Velocity: 47
Note OFF: Time 129120, Note Name: G#5
Note ON: Time 129120, Note Name: B5, Velocity: 51
Note OFF: Time 129239, Note Name: B5
Note ON: Time 129240, Note Name: G#5, Velocity: 47
Note OFF: Time 129360, Note Name: G#5
Note ON: Time 129360, Note Name: B5, Velocity: 50
Note OFF: Time 129479, Note Name: B5
Note ON: Time 129480, Note Name: G#5, Velocity: 47
Note OFF: Time 129600, Note Name: G#5
Note ON: Time 129600, Note Name: B5, Velocity: 51
Note OFF: Time 129719, Note Name: B5
Note ON: Time 129720, Note Name: G#5, Velocity: 47
Note OFF: Time 129840, Note Name: G#5
Note ON: Time 129840, Note Name: B5, Velocity: 50
Note OFF: Time 129959, Note Name: B5
Note ON: Time 129960, Note Name: G#5, Velocity: 47
Note OFF: Time 130080, Note Name: G#5
Note ON: Time 130080, Note Name: B5, Velocity: 52
Note OFF: Time 130199, Note Name: B5
Note ON: Time 130200, Note Name: G#5, Velocity: 47
Note OFF: Time 130320, Note Name: G#5
Note ON: Time 130320, Note Name: B5, Velocity: 51
Note OFF: Time 130439, Note Name: B5
Note ON: Time 130440, Note Name: G#5, Velocity: 47
Note OFF: Time 130560, Note Name: G#5
Note ON: Time 130560, Note Name: B5, Velocity: 50
Note OFF: Time 130679, Note Name: B5
Note ON: Time 130680, Note Name: G#5, Velocity: 47
Note OFF: Time 130800, Note Name: G#5
Note ON: Time 130800, Note Name: B5, Velocity: 50
Note OFF: Time 130919, Note Name: B5
Note ON: Time 130920, Note Name: G#5, Velocity: 47
Note OFF: Time 131040, Note Name: G#5
Note ON: Time 131040, Note Name: B5, Velocity: 51
Note OFF: Time 131159, Note Name: B5
Note ON: Time 131160, Note Name: G#5, Velocity: 47
Note OFF: Time 131280, Note Name: G#5
Note ON: Time 131280, Note Name: B5, Velocity: 50
Note OFF: Time 131399, Note Name: B5
Note ON: Time 131400, Note Name: G#5, Velocity: 47
Note OFF: Time 131520, Note Name: G#5
Note ON: Time 131520, Note Name: B5, Velocity: 51
Note OFF: Time 131639, Note Name: B5
Note ON: Time 131640, Note Name: G#5, Velocity: 47
Note OFF: Time 131760, Note Name: G#5
Note ON: Time 131760, Note Name: B5, Velocity: 50
Note OFF: Time 131879, Note Name: B5
Note ON: Time 131880, Note Name: G#5, Velocity: 47
Note OFF: Time 132000, Note Name: G#5
Note ON: Time 132000, Note Name: B5, Velocity: 52
Note OFF: Time 132119, Note Name: B5
Note ON: Time 132120, Note Name: G#5, Velocity: 47
Note OFF: Time 132240, Note Name: G#5
Note ON: Time 132240, Note Name: B5, Velocity: 51
Note OFF: Time 132359, Note Name: B5
Note ON: Time 132360, Note Name: G#5, Velocity: 47
Note OFF: Time 132480, Note Name: G#5
Note ON: Time 132600, Note Name: A5, Velocity: 42
Note OFF: Time 132720, Note Name: A5
Note ON: Time 132720, Note Name: B5, Velocity: 45
Note OFF: Time 132839, Note Name: B5
Note ON: Time 132840, Note Name: A5, Velocity: 41
Note OFF: Time 132960, Note Name: A5
Note ON: Time 132960, Note Name: C6, Velocity: 44
Note OFF: Time 133079, Note Name: C6
Note ON: Time 133080, Note Name: A5, Velocity: 40
Note OFF: Time 133200, Note Name: A5
Note ON: Time 133200, Note Name: B5, Velocity: 42
Note OFF: Time 133319, Note Name: B5
Note ON: Time 133320, Note Name: A5, Velocity: 39
Note OFF: Time 133440, Note Name: A5
Note ON: Time 133440, Note Name: C6, Velocity: 42
Note OFF: Time 133559, Note Name: C6
Note ON: Time 133560, Note Name: A5, Velocity: 38
Note OFF: Time 133680, Note Name: A5
Note ON: Time 133680, Note Name: B5, Velocity: 40
Note OFF: Time 133799, Note Name: B5
Note ON: Time 133800, Note Name: A5, Velocity: 37
Note OFF: Time 133920, Note Name: A5
Note ON: Time 133920, Note Name: C6, Velocity: 40
Note OFF: Time 134039, Note Name: C6
Note ON: Time 134040, Note Name: A5, Velocity: 36
Note OFF: Time 134160, Note Name: A5
Note ON: Time 134160, Note Name: B5, Velocity: 39
Note OFF: Time 134279, Note Name: B5
Note ON: Time 134280, Note Name: A5, Velocity: 35
Note OFF: Time 134400, Note Name: A5
Note ON: Time 134400, Note Name: C6, Velocity: 37
Note OFF: Time 134519, Note Name: C6
Note ON: Time 134520, Note Name: A5, Velocity: 34
Note OFF: Time 134640, Note Name: A5
Note ON: Time 134640, Note Name: B5, Velocity: 36
Note OFF: Time 134759, Note Name: B5
Note ON: Time 134760, Note Name: A5, Velocity: 34
Note OFF: Time 134880, Note Name: A5
Note ON: Time 134880, Note Name: C6, Velocity: 37
Note OFF: Time 134999, Note Name: C6
Note ON: Time 135000, Note Name: A5, Velocity: 34
Note OFF: Time 135120, Note Name: A5
Note ON: Time 135120, Note Name: B5, Velocity: 36
Note OFF: Time 135239, Note Name: B5
Note ON: Time 135240, Note Name: A5, Velocity: 34
Note OFF: Time 135360, Note Name: A5
Note ON: Time 135360, Note Name: C6, Velocity: 37
Note OFF: Time 135479, Note Name: C6
Note ON: Time 135480, Note Name: A5, Velocity: 34
Note OFF: Time 135600, Note Name: A5
Note ON: Time 135600, Note Name: B5, Velocity: 36
Note OFF: Time 135719, Note Name: B5
Note ON: Time 135720, Note Name: A5, Velocity: 34
Note OFF: Time 135840, Note Name: A5
Note ON: Time 135840, Note Name: C6, Velocity: 38
Note OFF: Time 135959, Note Name: C6
Note ON: Time 135960, Note Name: A5, Velocity: 34
Note OFF: Time 136080, Note Name: A5
Note ON: Time 136080, Note Name: B5, Velocity: 37
Note OFF: Time 136199, Note Name: B5
Note ON: Time 136200, Note Name: A5, Velocity: 34
Note OFF: Time 136320, Note Name: A5
Note ON: Time 136320, Note Name: C#6, Velocity: 37
Note ON: Time 136440, Note Name: A5, Velocity: 34
Note OFF: Time 136441, Note Name: C#6
Note OFF: Time 136530, Note Name: A5
Note ON: Time 136560, Note Name: B5, Velocity: 36
Note ON: Time 136680, Note Name: A5, Velocity: 35
Note OFF: Time 136681, Note Name: B5
Note OFF: Time 136800, Note Name: A5
Note ON: Time 136800, Note Name: C#6, Velocity: 38
Note ON: Time 136920, Note Name: A5, Velocity: 36
Note OFF: Time 136921, Note Name: C#6
Note OFF: Time 137040, Note Name: A5
Note ON: Time 137040, Note Name: B5, Velocity: 38
Note ON: Time 137160, Note Name: A5, Velocity: 36
Note OFF: Time 137161, Note Name: B5
Note OFF: Time 137280, Note Name: A5
Note ON: Time 137280, Note Name: C#6, Velocity: 40
Note ON: Time 137400, Note Name: A5, Velocity: 37
Note OFF: Time 137401, Note Name: C#6
Note OFF: Time 137520, Note Name: A5
Note ON: Time 137520, Note Name: B5, Velocity: 40
Note ON: Time 137640, Note Name: A5, Velocity: 38
Note OFF: Time 137641, Note Name: B5
Note OFF: Time 137760, Note Name: A5
Note ON: Time 137760, Note Name: C#6, Velocity: 43
Note ON: Time 137880, Note Name: A5, Velocity: 39
Note OFF: Time 137881, Note Name: C#6
Note OFF: Time 138000, Note Name: A5
Note ON: Time 138000, Note Name: B5, Velocity: 43
Note ON: Time 138120, Note Name: A5, Velocity: 40
Note OFF: Time 138121, Note Name: B5
Note OFF: Time 138240, Note Name: A5
Note ON: Time 138240, Note Name: F#6, Velocity: 44
Note ON: Time 138360, Note Name: B5, Velocity: 41
Note ON: Time 138360, Note Name: A5, Velocity: 41
Note OFF: Time 138361, Note Name: F#6
Note OFF: Time 138480, Note Name: A5
Note OFF: Time 138480, Note Name: B5
Note ON: Time 138480, Note Name: F#6, Velocity: 43
Note ON: Time 138600, Note Name: B5, Velocity: 41
Note ON: Time 138600, Note Name: A5, Velocity: 41
Note OFF: Time 138601, Note Name: F#6
Note OFF: Time 138720, Note Name: A5
Note OFF: Time 138720, Note Name: B5
Note ON: Time 138720, Note Name: F#6, Velocity: 46
Note ON: Time 138840, Note Name: B5, Velocity: 42
Note ON: Time 138840, Note Name: A5, Velocity: 42
Note OFF: Time 138841, Note Name: F#6
Note OFF: Time 138960, Note Name: A5
Note OFF: Time 138960, Note Name: B5
Note ON: Time 138960, Note Name: F#6, Velocity: 46
Note ON: Time 139080, Note Name: B5, Velocity: 44
Note ON: Time 139080, Note Name: A5, Velocity: 44
Note OFF: Time 139081, Note Name: F#6
Note OFF: Time 139200, Note Name: A5
Note OFF: Time 139200, Note Name: B5
Note ON: Time 139200, Note Name: F#6, Velocity: 49
Note OFF: Time 139281, Note Name: F#6
Note ON: Time 139320, Note Name: B5, Velocity: 45
Note ON: Time 139320, Note Name: A5, Velocity: 45
Note OFF: Time 139440, Note Name: A5
Note OFF: Time 139440, Note Name: B5
Note ON: Time 139440, Note Name: F#6, Velocity: 49
Note ON: Time 139560, Note Name: B5, Velocity: 47
Note ON: Time 139560, Note Name: A5, Velocity: 47
Note OFF: Time 139561, Note Name: F#6
Note OFF: Time 139680, Note Name: A5
Note OFF: Time 139680, Note Name: B5
Note ON: Time 139680, Note Name: F#6, Velocity: 54
Note ON: Time 139800, Note Name: B5, Velocity: 48
Note ON: Time 139800, Note Name: A5, Velocity: 48
Note OFF: Time 139801, Note Name: F#6
Note OFF: Time 139920, Note Name: A5
Note OFF: Time 139920, Note Name: B5
Note ON: Time 139920, Note Name: F#6, Velocity: 53
Note ON: Time 140040, Note Name: B5, Velocity: 49
Note ON: Time 140040, Note Name: A5, Velocity: 49
Note OFF: Time 140041, Note Name: F#6
Note OFF: Time 140160, Note Name: A5
Note OFF: Time 140160, Note Name: B5
Note ON: Time 140160, Note Name: G#5, Velocity: 72
Note ON: Time 140160, Note Name: B5, Velocity: 72
Note ON: Time 140160, Note Name: E6, Velocity: 72
Note OFF: Time 141600, Note Name: E6
Note OFF: Time 141600, Note Name: B5
Note OFF: Time 141600, Note Name: G#5
Note ON: Time 141600, Note Name: E6, Velocity: 58
Note OFF: Time 141720, Note Name: E6
Note ON: Time 141720, Note Name: D6, Velocity: 57
Note OFF: Time 141840, Note Name: D6
Note ON: Time 141840, Note Name: C6, Velocity: 56
Note OFF: Time 141960, Note Name: C6
Note ON: Time 141960, Note Name: B5, Velocity: 55
Note OFF: Time 142080, Note Name: B5
Note ON: Time 142080, Note Name: C6, Velocity: 58
Note OFF: Time 142200, Note Name: C6
Note ON: Time 142200, Note Name: B5, Velocity: 57
Note OFF: Time 142320, Note Name: B5
Note ON: Time 142320, Note Name: A5, Velocity: 56
Note OFF: Time 142440, Note Name: A5
Note ON: Time 142440, Note Name: G#5, Velocity: 55
Note OFF: Time 142560, Note Name: G#5
Note ON: Time 142560, Note Name: A5, Velocity: 51
Note OFF: Time 142680, Note Name: A5
Note ON: Time 142680, Note Name: B5, Velocity: 52
Note OFF: Time 142800, Note Name: B5
Note ON: Time 142800, Note Name: C6, Velocity: 53
Note OFF: Time 142920, Note Name: C6
Note ON: Time 142920, Note Name: D6, Velocity: 54
Note OFF: Time 143040, Note Name: D6
Note ON: Time 143040, Note Name: E6, Velocity: 56
Note OFF: Time 143160, Note Name: E6
Note ON: Time 143160, Note Name: F6, Velocity: 57
Note OFF: Time 143280, Note Name: F6
Note ON: Time 143280, Note Name: E6, Velocity: 57
Note OFF: Time 143400, Note Name: E6
Note ON: Time 143400, Note Name: D#6, Velocity: 56
Note OFF: Time 143520, Note Name: D#6
Note ON: Time 143520, Note Name: E6, Velocity: 56
Note OFF: Time 143640, Note Name: E6
Note ON: Time 143640, Note Name: D6, Velocity: 56
Note OFF: Time 143760, Note Name: D6
Note ON: Time 143760, Note Name: C6, Velocity: 56
Note OFF: Time 143880, Note Name: C6
Note ON: Time 143880, Note Name: B5, Velocity: 56
Note OFF: Time 144000, Note Name: B5
Note ON: Time 144000, Note Name: C6, Velocity: 57
Note OFF: Time 144120, Note Name: C6
Note ON: Time 144120, Note Name: D6, Velocity: 57
Note OFF: Time 144240, Note Name: D6
Note ON: Time 144240, Note Name: C6, Velocity: 57
Note OFF: Time 144360, Note Name: C6
Note ON: Time 144360, Note Name: B5, Velocity: 53
Note OFF: Time 144480, Note Name: B5
Note ON: Time 144480, Note Name: A5, Velocity: 56
Note OFF: Time 144600, Note Name: A5
Note ON: Time 144600, Note Name: G#5, Velocity: 52
Note OFF: Time 144720, Note Name: G#5
Note ON: Time 144720, Note Name: A5, Velocity: 56
Note OFF: Time 144840, Note Name: A5
Note ON: Time 144840, Note Name: B5, Velocity: 52
Note OFF: Time 144960, Note Name: B5
Note ON: Time 144960, Note Name: C5, Velocity: 45
Note ON: Time 144960, Note Name: C6, Velocity: 59
Note OFF: Time 145440, Note Name: C6
Note ON: Time 145440, Note Name: A5, Velocity: 52
Note OFF: Time 145680, Note Name: A5
Note ON: Time 145680, Note Name: F#5, Velocity: 52
Note OFF: Time 145920, Note Name: F#5
Note OFF: Time 145920, Note Name: C5
Note ON: Time 145920, Note Name: B4, Velocity: 45
Note ON: Time 145920, Note Name: B5, Velocity: 57
Note OFF: Time 146400, Note Name: B5
Note ON: Time 146400, Note Name: G5, Velocity: 52
Note OFF: Time 146640, Note Name: G5
Note ON: Time 146640, Note Name: E5, Velocity: 52
Note OFF: Time 146880, Note Name: E5
Note OFF: Time 146880, Note Name: B4
Note ON: Time 146880, Note Name: A4, Velocity: 45
Note ON: Time 146880, Note Name: A5, Velocity: 57
Note OFF: Time 147360, Note Name: A5
Note ON: Time 147360, Note Name: F#5, Velocity: 52
Note OFF: Time 147600, Note Name: F#5
Note ON: Time 147600, Note Name: D#5, Velocity: 52
Note OFF: Time 147840, Note Name: D#5
Note OFF: Time 147840, Note Name: A4
Note ON: Time 147840, Note Name: E5, Velocity: 72
Note OFF: Time 149280, Note Name: E5
Note ON: Time 149280, Note Name: E5, Velocity: 58
Note OFF: Time 149400, Note Name: E5
Note ON: Time 149400, Note Name: D5, Velocity: 57
Note OFF: Time 149520, Note Name: D5
Note ON: Time 149520, Note Name: C5, Velocity: 56
Note OFF: Time 149640, Note Name: C5
Note ON: Time 149640, Note Name: B4, Velocity: 55
Note OFF: Time 149760, Note Name: B4
Note ON: Time 149760, Note Name: C5, Velocity: 58
Note OFF: Time 149880, Note Name: C5
Note ON: Time 149880, Note Name: B4, Velocity: 57
Note OFF: Time 150000, Note Name: B4
Note ON: Time 150000, Note Name: A4, Velocity: 56
Note OFF: Time 150120, Note Name: A4
Note ON: Time 150120, Note Name: G#4, Velocity: 55
Note OFF: Time 150240, Note Name: G#4
Note ON: Time 150240, Note Name: A4, Velocity: 51
Note OFF: Time 150360, Note Name: A4
Note ON: Time 150360, Note Name: B4, Velocity: 52
Note OFF: Time 150480, Note Name: B4
Note ON: Time 150480, Note Name: C5, Velocity: 53
Note OFF: Time 150600, Note Name: C5
Note ON: Time 150600, Note Name: D5, Velocity: 54
Note OFF: Time 150720, Note Name: D5
Note ON: Time 150720, Note Name: E5, Velocity: 56
Note OFF: Time 150840, Note Name: E5
Note ON: Time 150840, Note Name: F5, Velocity: 57
Note OFF: Time 150960, Note Name: F5
Note ON: Time 150960, Note Name: E5, Velocity: 57
Note OFF: Time 151080, Note Name: E5
Note ON: Time 151080, Note Name: D#5, Velocity: 56
Note OFF: Time 151200, Note Name: D#5
Note ON: Time 151200, Note Name: E5, Velocity: 56
Note OFF: Time 151320, Note Name: E5
Note ON: Time 151320, Note Name: D5, Velocity: 56
Note OFF: Time 151440, Note Name: D5
Note ON: Time 151440, Note Name: C5, Velocity: 56
Note OFF: Time 151560, Note Name: C5
Note ON: Time 151560, Note Name: B4, Velocity: 56
Note OFF: Time 151680, Note Name: B4
Note ON: Time 151680, Note Name: C5, Velocity: 57
Note OFF: Time 151800, Note Name: C5
Note ON: Time 151800, Note Name: D5, Velocity: 57
Note OFF: Time 151920, Note Name: D5
Note ON: Time 151920, Note Name: C5, Velocity: 57
Note OFF: Time 152040, Note Name: C5
Note ON: Time 152040, Note Name: B4, Velocity: 53
Note OFF: Time 152160, Note Name: B4
Note ON: Time 152160, Note Name: A4, Velocity: 56
Note OFF: Time 152280, Note Name: A4
Note ON: Time 152280, Note Name: G#4, Velocity: 52
Note OFF: Time 152400, Note Name: G#4
Note ON: Time 152400, Note Name: A4, Velocity: 56
Note OFF: Time 152520, Note Name: A4
Note ON: Time 152520, Note Name: B4, Velocity: 52
Note OFF: Time 152640, Note Name: B4
Note ON: Time 152640, Note Name: C4, Velocity: 45
Note ON: Time 152640, Note Name: C5, Velocity: 59
Note OFF: Time 153120, Note Name: C5
Note ON: Time 153120, Note Name: A4, Velocity: 52
Note OFF: Time 153360, Note Name: A4
Note ON: Time 153360, Note Name: F#4, Velocity: 52
Note OFF: Time 153600, Note Name: F#4
Note OFF: Time 153600, Note Name: C4
Note ON: Time 153600, Note Name: B3, Velocity: 45
Note ON: Time 153600, Note Name: B4, Velocity: 57
Note OFF: Time 154080, Note Name: B4
Note ON: Time 154080, Note Name: G4, Velocity: 52
Note OFF: Time 154320, Note Name: G4
Note ON: Time 154320, Note Name: E4, Velocity: 52
Note OFF: Time 154560, Note Name: E4
Note OFF: Time 154560, Note Name: B3
Note ON: Time 154560, Note Name: A3, Velocity: 45
Note ON: Time 154560, Note Name: A4, Velocity: 57
Note OFF: Time 155040, Note Name: A4
Note ON: Time 155040, Note Name: F#4, Velocity: 52
Note OFF: Time 155280, Note Name: F#4
Note ON: Time 155280, Note Name: D#4, Velocity: 52
Note OFF: Time 155520, Note Name: D#4
Note OFF: Time 155520, Note Name: A3
Note ON: Time 155520, Note Name: E4, Velocity: 55
Note OFF: Time 155760, Note Name: E4
Note ON: Time 156000, Note Name: E5, Velocity: 67
Note OFF: Time 156240, Note Name: E5
Note ON: Time 156240, Note Name: D5, Velocity: 62
Note OFF: Time 156480, Note Name: D5
Note ON: Time 156480, Note Name: C5, Velocity: 66
Note OFF: Time 156960, Note Name: C5
Note ON: Time 156960, Note Name: A4, Velocity: 61
Note OFF: Time 157200, Note Name: A4
Note ON: Time 157200, Note Name: F4, Velocity: 54
Note OFF: Time 157440, Note Name: F4
Note ON: Time 157440, Note Name: B4, Velocity: 51
Note OFF: Time 157920, Note Name: B4
Note ON: Time 157920, Note Name: G4, Velocity: 46
Note OFF: Time 158160, Note Name: G4
Note ON: Time 158160, Note Name: E4, Velocity: 46
Note OFF: Time 158400, Note Name: E4
Note ON: Time 158400, Note Name: A4, Velocity: 51
Note OFF: Time 158880, Note Name: A4
Note ON: Time 158880, Note Name: F#4, Velocity: 46
Note OFF: Time 159120, Note Name: F#4
Note ON: Time 159120, Note Name: D#4, Velocity: 46
Note OFF: Time 159360, Note Name: D#4
Note ON: Time 159360, Note Name: E4, Velocity: 55
Note OFF: Time 159600, Note Name: E4
Note ON: Time 159840, Note Name: C5, Velocity: 66
Note OFF: Time 160080, Note Name: C5
Note ON: Time 160080, Note Name: B4, Velocity: 62
Note OFF: Time 160320, Note Name: B4
Note ON: Time 160320, Note Name: A4, Velocity: 66
Note OFF: Time 160800, Note Name: A4
Note ON: Time 160800, Note Name: F4, Velocity: 61
Note OFF: Time 161040, Note Name: F4
Note ON: Time 161040, Note Name: D4, Velocity: 54
Note OFF: Time 161280, Note Name: D4
Note ON: Time 161280, Note Name: G4, Velocity: 51
Note OFF: Time 161760, Note Name: G4
Note ON: Time 161760, Note Name: E4, Velocity: 46
Note OFF: Time 162000, Note Name: E4
Note ON: Time 162000, Note Name: C4, Velocity: 46
Note OFF: Time 162240, Note Name: C4
Note ON: Time 162240, Note Name: F4, Velocity: 51
Note OFF: Time 162720, Note Name: F4
Note ON: Time 162720, Note Name: D4, Velocity: 46
Note OFF: Time 162960, Note Name: D4
Note ON: Time 162960, Note Name: B3, Velocity: 46
Note OFF: Time 163200, Note Name: B3
Note ON: Time 163200, Note Name: C3, Velocity: 28
Note ON: Time 163200, Note Name: E3, Velocity: 33
Note ON: Time 163200, Note Name: C4, Velocity: 40
Note OFF: Time 163380, Note Name: E3
Note OFF: Time 163380, Note Name: C3
Note OFF: Time 163440, Note Name: C4
Note ON: Time 163440, Note Name: C3, Velocity: 28
Note ON: Time 163440, Note Name: E3, Velocity: 33
Note OFF: Time 163620, Note Name: E3
Note OFF: Time 163620, Note Name: C3
Note ON: Time 163680, Note Name: C3, Velocity: 28
Note ON: Time 163680, Note Name: E3, Velocity: 33
Note OFF: Time 163860, Note Name: E3
Note OFF: Time 163860, Note Name: C3
Note ON: Time 163920, Note Name: C3, Velocity: 28
Note ON: Time 163920, Note Name: E3, Velocity: 34
Note OFF: Time 164100, Note Name: E3
Note OFF: Time 164100, Note Name: C3
Note ON: Time 164160, Note Name: C3, Velocity: 28
Note ON: Time 164160, Note Name: E3, Velocity: 34
Note OFF: Time 164340, Note Name: E3
Note OFF: Time 164340, Note Name: C3
Note ON: Time 164400, Note Name: C3, Velocity: 28
Note ON: Time 164400, Note Name: E3, Velocity: 34
Note OFF: Time 164580, Note Name: E3
Note OFF: Time 164580, Note Name: C3
Note ON: Time 164640, Note Name: C3, Velocity: 29
Note ON: Time 164640, Note Name: E3, Velocity: 35
Note OFF: Time 164820, Note Name: E3
Note OFF: Time 164820, Note Name: C3
Note ON: Time 164880, Note Name: C3, Velocity: 29
Note ON: Time 164880, Note Name: E3, Velocity: 35
Note OFF: Time 165060, Note Name: E3
Note OFF: Time 165060, Note Name: C3
Note ON: Time 165120, Note Name: C3, Velocity: 30
Note ON: Time 165120, Note Name: E3, Velocity: 36
Note OFF: Time 165300, Note Name: E3
Note OFF: Time 165300, Note Name: C3
Note ON: Time 165360, Note Name: C3, Velocity: 30
Note ON: Time 165360, Note Name: E3, Velocity: 36
Note OFF: Time 165540, Note Name: E3
Note OFF: Time 165540, Note Name: C3
Note ON: Time 165600, Note Name: C3, Velocity: 31
Note ON: Time 165600, Note Name: E3, Velocity: 37
Note OFF: Time 165780, Note Name: E3
Note OFF: Time 165780, Note Name: C3
Note ON: Time 165840, Note Name: C3, Velocity: 32
Note ON: Time 165840, Note Name: E3, Velocity: 38
Note OFF: Time 166020, Note Name: E3
Note OFF: Time 166020, Note Name: C3
Note ON: Time 166080, Note Name: C3, Velocity: 33
Note ON: Time 166080, Note Name: E3, Velocity: 39
Note OFF: Time 166260, Note Name: E3
Note OFF: Time 166260, Note Name: C3
Note ON: Time 166320, Note Name: C3, Velocity: 34
Note ON: Time 166320, Note Name: E3, Velocity: 40
Note OFF: Time 166500, Note Name: E3
Note OFF: Time 166500, Note Name: C3
Note ON: Time 166560, Note Name: D3, Velocity: 34
Note ON: Time 166560, Note Name: F#3, Velocity: 40
Note OFF: Time 166740, Note Name: F#3
Note OFF: Time 166740, Note Name: D3
Note ON: Time 166800, Note Name: D3, Velocity: 34
Note ON: Time 166800, Note Name: F#3, Velocity: 40
Note OFF: Time 166980, Note Name: F#3
Note OFF: Time 166980, Note Name: D3
Note ON: Time 167040, Note Name: D3, Velocity: 39
Note ON: Time 167040, Note Name: G3, Velocity: 46
Note OFF: Time 167760, Note Name: G3
Note OFF: Time 167760, Note Name: D3
Note ON: Time 167760, Note Name: B3, Velocity: 40
Note OFF: Time 167880, Note Name: B3
Note ON: Time 167880, Note Name: A3, Velocity: 40
Note OFF: Time 168000, Note Name: A3
Note ON: Time 168000, Note Name: G3, Velocity: 45
Note OFF: Time 168120, Note Name: G3
Note ON: Time 168900, Note Name: C#6, Velocity: 46
Note OFF: Time 168960, Note Name: C#6
Note ON: Time 168960, Note Name: D6, Velocity: 57
Note OFF: Time 169560, Note Name: D6
Note ON: Time 169560, Note Name: C6, Velocity: 48
Note OFF: Time 169680, Note Name: C6
Note ON: Time 169680, Note Name: B5, Velocity: 47
Note OFF: Time 169800, Note Name: B5
Note ON: Time 169800, Note Name: A5, Velocity: 45
Note OFF: Time 169920, Note Name: A5
Note ON: Time 169920, Note Name: G5, Velocity: 44
Note OFF: Time 170160, Note Name: G5
Note ON: Time 170880, Note Name: A#2, Velocity: 29
Note ON: Time 170880, Note Name: D3, Velocity: 35
Note OFF: Time 171060, Note Name: D3
Note OFF: Time 171060, Note Name: A#2
Note ON: Time 171120, Note Name: A#2, Velocity: 29
Note ON: Time 171120, Note Name: D3, Velocity: 35
Note OFF: Time 171300, Note Name: D3
Note OFF: Time 171300, Note Name: A#2
Note ON: Time 171360, Note Name: A#2, Velocity: 29
Note ON: Time 171360, Note Name: D3, Velocity: 35
Note OFF: Time 171540, Note Name: D3
Note OFF: Time 171540, Note Name: A#2
Note ON: Time 171600, Note Name: A#2, Velocity: 30
Note ON: Time 171600, Note Name: D3, Velocity: 36
Note OFF: Time 171780, Note Name: D3
Note OFF: Time 171780, Note Name: A#2
Note ON: Time 171840, Note Name: A#2, Velocity: 31
Note ON: Time 171840, Note Name: D3, Velocity: 37
Note OFF: Time 172020, Note Name: D3
Note OFF: Time 172020, Note Name: A#2
Note ON: Time 172080, Note Name: A#2, Velocity: 31
Note ON: Time 172080, Note Name: D3, Velocity: 37
Note OFF: Time 172260, Note Name: D3
Note OFF: Time 172260, Note Name: A#2
Note ON: Time 172320, Note Name: A#2, Velocity: 32
Note ON: Time 172320, Note Name: D3, Velocity: 38
Note OFF: Time 172500, Note Name: D3
Note OFF: Time 172500, Note Name: A#2
Note ON: Time 172560, Note Name: A#2, Velocity: 33
Note ON: Time 172560, Note Name: D3, Velocity: 39
Note OFF: Time 172740, Note Name: D3
Note OFF: Time 172740, Note Name: A#2
Note ON: Time 172800, Note Name: A#2, Velocity: 33
Note ON: Time 172800, Note Name: D3, Velocity: 39
Note OFF: Time 172980, Note Name: D3
Note OFF: Time 172980, Note Name: A#2
Note ON: Time 173040, Note Name: A#2, Velocity: 34
Note ON: Time 173040, Note Name: D3, Velocity: 40
Note OFF: Time 173220, Note Name: D3
Note OFF: Time 173220, Note Name: A#2
Note ON: Time 173280, Note Name: A#2, Velocity: 34
Note ON: Time 173280, Note Name: D3, Velocity: 40
Note OFF: Time 173460, Note Name: D3
Note OFF: Time 173460, Note Name: A#2
Note ON: Time 173520, Note Name: A#2, Velocity: 34
Note ON: Time 173520, Note Name: D3, Velocity: 40
Note OFF: Time 173700, Note Name: D3
Note OFF: Time 173700, Note Name: A#2
Note ON: Time 173760, Note Name: A#2, Velocity: 34
Note ON: Time 173760, Note Name: D3, Velocity: 40
Note OFF: Time 173940, Note Name: D3
Note OFF: Time 173940, Note Name: A#2
Note ON: Time 174000, Note Name: A#2, Velocity: 34
Note ON: Time 174000, Note Name: D3, Velocity: 40
Note OFF: Time 174180, Note Name: D3
Note OFF: Time 174180, Note Name: A#2
Note ON: Time 174240, Note Name: C3, Velocity: 34
Note ON: Time 174240, Note Name: E3, Velocity: 40
Note OFF: Time 174420, Note Name: E3
Note OFF: Time 174420, Note Name: C3
Note ON: Time 174480, Note Name: C3, Velocity: 34
Note ON: Time 174480, Note Name: E3, Velocity: 40
Note OFF: Time 174660, Note Name: E3
Note OFF: Time 174660, Note Name: C3
Note ON: Time 174720, Note Name: C3, Velocity: 39
Note ON: Time 174720, Note Name: F3, Velocity: 46
Note OFF: Time 175440, Note Name: F3
Note OFF: Time 175440, Note Name: C3
Note ON: Time 175440, Note Name: A3, Velocity: 40
Note OFF: Time 175560, Note Name: A3
Note ON: Time 175560, Note Name: G3, Velocity: 40
Note OFF: Time 175680, Note Name: G3
Note ON: Time 175680, Note Name: F3, Velocity: 45
Note OFF: Time 175800, Note Name: F3
Note ON: Time 176580, Note Name: B5, Velocity: 46
Note OFF: Time 176640, Note Name: B5
Note ON: Time 176640, Note Name: C6, Velocity: 57
Note OFF: Time 177240, Note Name: C6
Note ON: Time 177240, Note Name: A#5, Velocity: 50
Note OFF: Time 177360, Note Name: A#5
Note ON: Time 177360, Note Name: G#5, Velocity: 49
Note OFF: Time 177480, Note Name: G#5
Note ON: Time 177480, Note Name: G5, Velocity: 47
Note OFF: Time 177600, Note Name: G5
Note ON: Time 177600, Note Name: F5, Velocity: 46
Note OFF: Time 177840, Note Name: F5
Note ON: Time 178500, Note Name: E6, Velocity: 67
Note OFF: Time 178560, Note Name: E6
Note ON: Time 178560, Note Name: F6, Velocity: 73
Note OFF: Time 180000, Note Name: F6
Note ON: Time 180000, Note Name: F6, Velocity: 74
Note OFF: Time 180120, Note Name: F6
Note ON: Time 180120, Note Name: D#6, Velocity: 73
Note OFF: Time 180240, Note Name: D#6
Note ON: Time 180240, Note Name: D6, Velocity: 71
Note OFF: Time 180360, Note Name: D6
Note ON: Time 180360, Note Name: C6, Velocity: 70
Note OFF: Time 180480, Note Name: C6
Note ON: Time 180480, Note Name: B5, Velocity: 72
Note OFF: Time 180600, Note Name: B5
Note ON: Time 180600, Note Name: C6, Velocity: 71
Note OFF: Time 180720, Note Name: C6
Note ON: Time 180720, Note Name: D6, Velocity: 72
Note OFF: Time 180840, Note Name: D6
Note ON: Time 180840, Note Name: D#6, Velocity: 73
Note OFF: Time 180960, Note Name: D#6
Note ON: Time 180960, Note Name: F6, Velocity: 74
Note OFF: Time 181080, Note Name: F6
Note ON: Time 181080, Note Name: D#6, Velocity: 72
Note OFF: Time 181200, Note Name: D#6
Note ON: Time 181200, Note Name: D6, Velocity: 71
Note OFF: Time 181320, Note Name: D6
Note ON: Time 181320, Note Name: C6, Velocity: 69
Note OFF: Time 181440, Note Name: C6
Note ON: Time 181440, Note Name: B5, Velocity: 72
Note OFF: Time 181560, Note Name: B5
Note ON: Time 181560, Note Name: C6, Velocity: 75
Note OFF: Time 181680, Note Name: C6
Note ON: Time 181680, Note Name: D6, Velocity: 77
Note OFF: Time 181800, Note Name: D6
Note ON: Time 181800, Note Name: D#6, Velocity: 80
Note OFF: Time 181920, Note Name: D#6
Note ON: Time 181920, Note Name: F6, Velocity: 80
Note OFF: Time 182040, Note Name: F6
Note ON: Time 182040, Note Name: D#6, Velocity: 80
Note OFF: Time 182160, Note Name: D#6
Note ON: Time 182160, Note Name: D6, Velocity: 79
Note OFF: Time 182280, Note Name: D6
Note ON: Time 182280, Note Name: C6, Velocity: 81
Note OFF: Time 182400, Note Name: C6
Note ON: Time 182400, Note Name: B5, Velocity: 85
Note OFF: Time 182520, Note Name: B5
Note ON: Time 182520, Note Name: C6, Velocity: 89
Note OFF: Time 182640, Note Name: C6
Note ON: Time 182640, Note Name: D6, Velocity: 94
Note OFF: Time 182760, Note Name: D6
Note ON: Time 182760, Note Name: D#6, Velocity: 98
Note OFF: Time 182880, Note Name: D#6
Note ON: Time 182880, Note Name: F6, Velocity: 100
Note OFF: Time 183000, Note Name: F6
Note ON: Time 183000, Note Name: D#6, Velocity: 98
Note OFF: Time 183120, Note Name: D#6
Note ON: Time 183120, Note Name: D6, Velocity: 96
Note OFF: Time 183240, Note Name: D6
Note ON: Time 183240, Note Name: C6, Velocity: 94
Note OFF: Time 183360, Note Name: C6
Note ON: Time 183360, Note Name: B5, Velocity: 93
Note OFF: Time 183480, Note Name: B5
Note ON: Time 183480, Note Name: G#5, Velocity: 91
Note OFF: Time 183600, Note Name: G#5
Note ON: Time 183600, Note Name: G5, Velocity: 89
Note OFF: Time 183720, Note Name: G5
Note ON: Time 183720, Note Name: F5, Velocity: 87
Note OFF: Time 183840, Note Name: F5
Note ON: Time 183840, Note Name: D#5, Velocity: 85
Note OFF: Time 183960, Note Name: D#5
Note ON: Time 183960, Note Name: D5, Velocity: 83
Note OFF: Time 184080, Note Name: D5
Note ON: Time 184080, Note Name: C5, Velocity: 81
Note OFF: Time 184200, Note Name: C5
Note ON: Time 184200, Note Name: B4, Velocity: 79
Note OFF: Time 184320, Note Name: B4
Note ON: Time 184320, Note Name: C5, Velocity: 93
Note OFF: Time 184500, Note Name: C5
Note ON: Time 184800, Note Name: G4, Velocity: 83
Note OFF: Time 184980, Note Name: G4
Note ON: Time 185280, Note Name: D#4, Velocity: 72
Note OFF: Time 185460, Note Name: D#4
Note ON: Time 185760, Note Name: C4, Velocity: 64
Note OFF: Time 185940, Note Name: C4
Note ON: Time 186240, Note Name: G3, Velocity: 60
Note OFF: Time 188160, Note Name: G3
Note ON: Time 188160, Note Name: E4, Velocity: 37
Note OFF: Time 188279, Note Name: E4
Note ON: Time 188280, Note Name: C4, Velocity: 33
Note OFF: Time 188400, Note Name: C4
Note ON: Time 188400, Note Name: E4, Velocity: 37
Note OFF: Time 188519, Note Name: E4
Note ON: Time 188520, Note Name: C4, Velocity: 33
Note OFF: Time 188640, Note Name: C4
Note ON: Time 188640, Note Name: E4, Velocity: 37
Note OFF: Time 188759, Note Name: E4
Note ON: Time 188760, Note Name: C4, Velocity: 33
Note OFF: Time 188880, Note Name: C4
Note ON: Time 188880, Note Name: E4, Velocity: 36
Note OFF: Time 188999, Note Name: E4
Note ON: Time 189000, Note Name: C4, Velocity: 33
Note OFF: Time 189120, Note Name: C4
Note ON: Time 189120, Note Name: E4, Velocity: 36
Note OFF: Time 189239, Note Name: E4
Note ON: Time 189240, Note Name: C4, Velocity: 33
Note OFF: Time 189360, Note Name: C4
Note ON: Time 189360, Note Name: E4, Velocity: 37
Note OFF: Time 189479, Note Name: E4
Note ON: Time 189480, Note Name: C4, Velocity: 33
Note OFF: Time 189600, Note Name: C4
Note ON: Time 189600, Note Name: E4, Velocity: 36
Note OFF: Time 189719, Note Name: E4
Note ON: Time 189720, Note Name: C4, Velocity: 33
Note OFF: Time 189840, Note Name: C4
Note ON: Time 189840, Note Name: E4, Velocity: 36
Note OFF: Time 189959, Note Name: E4
Note ON: Time 189960, Note Name: C4, Velocity: 33
Note OFF: Time 190080, Note Name: C4
Note ON: Time 190080, Note Name: E4, Velocity: 37
Note OFF: Time 190199, Note Name: E4
Note ON: Time 190200, Note Name: C4, Velocity: 33
Note OFF: Time 190320, Note Name: C4
Note ON: Time 190320, Note Name: E4, Velocity: 37
Note OFF: Time 190439, Note Name: E4
Note ON: Time 190440, Note Name: C4, Velocity: 33
Note OFF: Time 190560, Note Name: C4
Note ON: Time 190560, Note Name: E4, Velocity: 37
Note OFF: Time 190679, Note Name: E4
Note ON: Time 190680, Note Name: C4, Velocity: 33
Note OFF: Time 190800, Note Name: C4
Note ON: Time 190800, Note Name: E4, Velocity: 36
Note OFF: Time 190919, Note Name: E4
Note ON: Time 190920, Note Name: C4, Velocity: 33
Note OFF: Time 191040, Note Name: C4
Note ON: Time 191040, Note Name: E4, Velocity: 36
Note OFF: Time 191159, Note Name: E4
Note ON: Time 191160, Note Name: C4, Velocity: 33
Note OFF: Time 191280, Note Name: C4
Note ON: Time 191280, Note Name: E4, Velocity: 37
Note OFF: Time 191399, Note Name: E4
Note ON: Time 191400, Note Name: C4, Velocity: 33
Note OFF: Time 191520, Note Name: C4
Note ON: Time 191520, Note Name: F#4, Velocity: 36
Note OFF: Time 191639, Note Name: F#4
Note ON: Time 191640, Note Name: D4, Velocity: 33
Note OFF: Time 191760, Note Name: D4
Note ON: Time 191760, Note Name: F#4, Velocity: 36
Note OFF: Time 191879, Note Name: F#4
Note ON: Time 191880, Note Name: D4, Velocity: 33
Note OFF: Time 192000, Note Name: D4
Note ON: Time 192000, Note Name: G4, Velocity: 46
Note OFF: Time 192720, Note Name: G4
Note ON: Time 192720, Note Name: B4, Velocity: 40
Note OFF: Time 192840, Note Name: B4
Note ON: Time 192840, Note Name: A4, Velocity: 40
Note OFF: Time 192960, Note Name: A4
Note ON: Time 192960, Note Name: G4, Velocity: 45
Note OFF: Time 193080, Note Name: G4
Note ON: Time 193860, Note Name: C#6, Velocity: 46
Note OFF: Time 193920, Note Name: C#6
Note ON: Time 193920, Note Name: D6, Velocity: 57
Note OFF: Time 194520, Note Name: D6
Note ON: Time 194520, Note Name: C6, Velocity: 48
Note OFF: Time 194640, Note Name: C6
Note ON: Time 194640, Note Name: B5, Velocity: 47
Note OFF: Time 194760, Note Name: B5
Note ON: Time 194760, Note Name: A5, Velocity: 45
Note OFF: Time 194880, Note Name: A5
Note ON: Time 194880, Note Name: G5, Velocity: 44
Note OFF: Time 195120, Note Name: G5
Note ON: Time 195840, Note Name: F4, Velocity: 40
Note OFF: Time 195959, Note Name: F4
Note ON: Time 195960, Note Name: D4, Velocity: 36
Note OFF: Time 196080, Note Name: D4
Note ON: Time 196080, Note Name: F4, Velocity: 40
Note OFF: Time 196199, Note Name: F4
Note ON: Time 196200, Note Name: D4, Velocity: 36
Note OFF: Time 196320, Note Name: D4
Note ON: Time 196320, Note Name: F4, Velocity: 40
Note OFF: Time 196439, Note Name: F4
Note ON: Time 196440, Note Name: D4, Velocity: 36
Note OFF: Time 196560, Note Name: D4
Note ON: Time 196560, Note Name: F4, Velocity: 39
Note OFF: Time 196679, Note Name: F4
Note ON: Time 196680, Note Name: D4, Velocity: 36
Note OFF: Time 196800, Note Name: D4
Note ON: Time 196800, Note Name: F4, Velocity: 39
Note OFF: Time 196919, Note Name: F4
Note ON: Time 196920, Note Name: D4, Velocity: 36
Note OFF: Time 197040, Note Name: D4
Note ON: Time 197040, Note Name: F4, Velocity: 41
Note OFF: Time 197159, Note Name: F4
Note ON: Time 197160, Note Name: D4, Velocity: 36
Note OFF: Time 197280, Note Name: D4
Note ON: Time 197280, Note Name: F4, Velocity: 40
Note OFF: Time 197399, Note Name: F4
Note ON: Time 197400, Note Name: D4, Velocity: 37
Note OFF: Time 197520, Note Name: D4
Note ON: Time 197520, Note Name: F4, Velocity: 40
Note OFF: Time 197639, Note Name: F4
Note ON: Time 197640, Note Name: D4, Velocity: 37
Note OFF: Time 197760, Note Name: D4
Note ON: Time 197760, Note Name: F4, Velocity: 41
Note OFF: Time 197879, Note Name: F4
Note ON: Time 197880, Note Name: D4, Velocity: 37
Note OFF: Time 198000, Note Name: D4
Note ON: Time 198000, Note Name: F4, Velocity: 41
Note OFF: Time 198119, Note Name: F4
Note ON: Time 198120, Note Name: D4, Velocity: 37
Note OFF: Time 198240, Note Name: D4
Note ON: Time 198240, Note Name: F4, Velocity: 42
Note OFF: Time 198359, Note Name: F4
Note ON: Time 198360, Note Name: D4, Velocity: 37
Note OFF: Time 198480, Note Name: D4
Note ON: Time 198480, Note Name: F4, Velocity: 41
Note OFF: Time 198599, Note Name: F4
Note ON: Time 198600, Note Name: D4, Velocity: 38
Note OFF: Time 198720, Note Name: D4
Note ON: Time 198720, Note Name: F4, Velocity: 41
Note OFF: Time 198839, Note Name: F4
Note ON: Time 198840, Note Name: D4, Velocity: 38
Note OFF: Time 198960, Note Name: D4
Note ON: Time 198960, Note Name: F4, Velocity: 42
Note OFF: Time 199079, Note Name: F4
Note ON: Time 199080, Note Name: D4, Velocity: 38
Note OFF: Time 199200, Note Name: D4
Note ON: Time 199200, Note Name: G#4, Velocity: 41
Note OFF: Time 199319, Note Name: G#4
Note ON: Time 199320, Note Name: E4, Velocity: 38
Note OFF: Time 199440, Note Name: E4
Note ON: Time 199440, Note Name: G#4, Velocity: 42
Note OFF: Time 199559, Note Name: G#4
Note ON: Time 199560, Note Name: E4, Velocity: 38
Note OFF: Time 199680, Note Name: E4
Note ON: Time 199680, Note Name: A4, Velocity: 55
Note OFF: Time 200400, Note Name: A4
Note ON: Time 200400, Note Name: C5, Velocity: 48
Note OFF: Time 200520, Note Name: C5
Note ON: Time 200520, Note Name: B4, Velocity: 48
Note OFF: Time 200640, Note Name: B4
Note ON: Time 200640, Note Name: A4, Velocity: 53
Note OFF: Time 200760, Note Name: A4
Note ON: Time 201540, Note Name: D#6, Velocity: 55
Note OFF: Time 201600, Note Name: D#6
Note ON: Time 201600, Note Name: E6, Velocity: 68
Note OFF: Time 202200, Note Name: E6
Note ON: Time 202200, Note Name: D6, Velocity: 59
Note OFF: Time 202320, Note Name: D6
Note ON: Time 202320, Note Name: C6, Velocity: 58
Note OFF: Time 202440, Note Name: C6
Note ON: Time 202440, Note Name: B5, Velocity: 57
Note OFF: Time 202560, Note Name: B5
Note ON: Time 202560, Note Name: A5, Velocity: 57
Note OFF: Time 202800, Note Name: A5
Note ON: Time 203460, Note Name: D#6, Velocity: 66
Note OFF: Time 203520, Note Name: D#6
Note ON: Time 203520, Note Name: E6, Velocity: 85
Note OFF: Time 204120, Note Name: E6
Note ON: Time 204120, Note Name: D6, Velocity: 76
Note OFF: Time 204240, Note Name: D6
Note ON: Time 204240, Note Name: C6, Velocity: 75
Note OFF: Time 204360, Note Name: C6
Note ON: Time 204360, Note Name: B5, Velocity: 71
Note OFF: Time 204480, Note Name: B5
Note ON: Time 204480, Note Name: A#5, Velocity: 71
Note OFF: Time 204720, Note Name: A#5
Note ON: Time 205440, Note Name: B5, Velocity: 56
Note ON: Time 206040, Note Name: A5, Velocity: 54
Note OFF: Time 206060, Note Name: B5
Note ON: Time 206160, Note Name: G5, Velocity: 53
Note OFF: Time 206180, Note Name: A5
Note ON: Time 206280, Note Name: F#5, Velocity: 51
Note OFF: Time 206300, Note Name: G5
Note ON: Time 206400, Note Name: G5, Velocity: 53
Note OFF: Time 206420, Note Name: F#5
Note ON: Time 206520, Note Name: F#5, Velocity: 52
Note OFF: Time 206540, Note Name: G5
Note ON: Time 206640, Note Name: E5, Velocity: 51
Note OFF: Time 206660, Note Name: F#5
Note ON: Time 206760, Note Name: D#5, Velocity: 50
Note OFF: Time 206780, Note Name: E5
Note ON: Time 206880, Note Name: E5, Velocity: 50
Note OFF: Time 206900, Note Name: D#5
Note ON: Time 207000, Note Name: G5, Velocity: 52
Note OFF: Time 207020, Note Name: E5
Note ON: Time 207120, Note Name: F#5, Velocity: 50
Note OFF: Time 207140, Note Name: G5
Note ON: Time 207240, Note Name: E5, Velocity: 50
Note OFF: Time 207260, Note Name: F#5
Note ON: Time 207360, Note Name: D#5, Velocity: 50
Note OFF: Time 207380, Note Name: E5
Note ON: Time 207480, Note Name: C#5, Velocity: 49
Note OFF: Time 207500, Note Name: D#5
Note ON: Time 207600, Note Name: B4, Velocity: 48
Note OFF: Time 207620, Note Name: C#5
Note ON: Time 207720, Note Name: A#4, Velocity: 47
Note OFF: Time 207740, Note Name: B4
Note ON: Time 207840, Note Name: B4, Velocity: 49
Note OFF: Time 207860, Note Name: A#4
Note ON: Time 207960, Note Name: C#5, Velocity: 49
Note OFF: Time 207980, Note Name: B4
Note ON: Time 208080, Note Name: D5, Velocity: 49
Note OFF: Time 208100, Note Name: C#5
Note ON: Time 208200, Note Name: D#5, Velocity: 50
Note OFF: Time 208220, Note Name: D5
Note ON: Time 208320, Note Name: E5, Velocity: 50
Note OFF: Time 208340, Note Name: D#5
Note ON: Time 208440, Note Name: D#5, Velocity: 50
Note OFF: Time 208460, Note Name: E5
Note ON: Time 208560, Note Name: E5, Velocity: 51
Note OFF: Time 208580, Note Name: D#5
Note ON: Time 208680, Note Name: F#5, Velocity: 51
Note OFF: Time 208700, Note Name: E5
Note ON: Time 208800, Note Name: G5, Velocity: 49
Note OFF: Time 208820, Note Name: F#5
Note ON: Time 208920, Note Name: G#5, Velocity: 50
Note OFF: Time 208940, Note Name: G5
Note ON: Time 209040, Note Name: A5, Velocity: 52
Note OFF: Time 209060, Note Name: G#5
Note ON: Time 209160, Note Name: A#5, Velocity: 53
Note OFF: Time 209180, Note Name: A5
Note ON: Time 209280, Note Name: B5, Velocity: 55
Note OFF: Time 209300, Note Name: A#5
Note ON: Time 209400, Note Name: A#5, Velocity: 53
Note OFF: Time 209420, Note Name: B5
Note ON: Time 209520, Note Name: B5, Velocity: 53
Note OFF: Time 209540, Note Name: A#5
Note ON: Time 209640, Note Name: A#5, Velocity: 50
Note OFF: Time 209660, Note Name: B5
Note ON: Time 209760, Note Name: B5, Velocity: 52
Note OFF: Time 209780, Note Name: A#5
Note ON: Time 209880, Note Name: A5, Velocity: 52
Note OFF: Time 209900, Note Name: B5
Note ON: Time 210000, Note Name: G5, Velocity: 51
Note OFF: Time 210020, Note Name: A5
Note ON: Time 210120, Note Name: F#5, Velocity: 50
Note OFF: Time 210140, Note Name: G5
Note ON: Time 210240, Note Name: G5, Velocity: 52
Note OFF: Time 210260, Note Name: F#5
Note ON: Time 210360, Note Name: F#5, Velocity: 51
Note OFF: Time 210380, Note Name: G5
Note ON: Time 210480, Note Name: E5, Velocity: 49
Note OFF: Time 210500, Note Name: F#5
Note ON: Time 210600, Note Name: D#5, Velocity: 50
Note OFF: Time 210620, Note Name: E5
Note ON: Time 210720, Note Name: E5, Velocity: 50
Note OFF: Time 210740, Note Name: D#5
Note ON: Time 210840, Note Name: G5, Velocity: 53
Note OFF: Time 210860, Note Name: E5
Note ON: Time 210960, Note Name: F#5, Velocity: 50
Note OFF: Time 210980, Note Name: G5
Note ON: Time 211080, Note Name: E5, Velocity: 50
Note OFF: Time 211100, Note Name: F#5
Note ON: Time 211200, Note Name: D#5, Velocity: 50
Note OFF: Time 211220, Note Name: E5
Note ON: Time 211320, Note Name: C#5, Velocity: 49
Note OFF: Time 211340, Note Name: D#5
Note ON: Time 211440, Note Name: B4, Velocity: 48
Note OFF: Time 211460, Note Name: C#5
Note ON: Time 211560, Note Name: A#4, Velocity: 47
Note OFF: Time 211580, Note Name: B4
Note ON: Time 211680, Note Name: B4, Velocity: 49
Note OFF: Time 211700, Note Name: A#4
Note ON: Time 211800, Note Name: C#5, Velocity: 50
Note OFF: Time 211820, Note Name: B4
Note ON: Time 211920, Note Name: D5, Velocity: 50
Note OFF: Time 211940, Note Name: C#5
Note ON: Time 212040, Note Name: D#5, Velocity: 52
Note OFF: Time 212060, Note Name: D5
Note ON: Time 212160, Note Name: E5, Velocity: 52
Note OFF: Time 212180, Note Name: D#5
Note ON: Time 212280, Note Name: D#5, Velocity: 52
Note OFF: Time 212300, Note Name: E5
Note ON: Time 212400, Note Name: E5, Velocity: 54
Note OFF: Time 212420, Note Name: D#5
Note ON: Time 212520, Note Name: F#5, Velocity: 54
Note OFF: Time 212540, Note Name: E5
Note ON: Time 212640, Note Name: G5, Velocity: 56
Note OFF: Time 212660, Note Name: F#5
Note ON: Time 212760, Note Name: G#5, Velocity: 58
Note OFF: Time 212780, Note Name: G5
Note ON: Time 212880, Note Name: A5, Velocity: 60
Note OFF: Time 212900, Note Name: G#5
Note ON: Time 213000, Note Name: A#5, Velocity: 62
Note OFF: Time 213020, Note Name: A5
Note ON: Time 213120, Note Name: B5, Velocity: 68
Note OFF: Time 213140, Note Name: A#5
Note OFF: Time 213240, Note Name: B5
Note ON: Time 213240, Note Name: F#5, Velocity: 60
Note OFF: Time 213360, Note Name: F#5
Note ON: Time 213360, Note Name: D#5, Velocity: 61
Note OFF: Time 213480, Note Name: D#5
Note ON: Time 213480, Note Name: B4, Velocity: 61
Note OFF: Time 213600, Note Name: B4
Note ON: Time 213600, Note Name: A#4, Velocity: 75
Note OFF: Time 213720, Note Name: A#4
Note ON: Time 213720, Note Name: B4, Velocity: 63
Note OFF: Time 213840, Note Name: B4
Note ON: Time 213840, Note Name: E5, Velocity: 63
Note OFF: Time 213960, Note Name: E5
Note ON: Time 213960, Note Name: G5, Velocity: 63
Note OFF: Time 214080, Note Name: G5
Note ON: Time 214080, Note Name: B5, Velocity: 74
Note OFF: Time 214200, Note Name: B5
Note ON: Time 214200, Note Name: F#5, Velocity: 65
Note OFF: Time 214320, Note Name: F#5
Note ON: Time 214320, Note Name: D#5, Velocity: 68
Note OFF: Time 214440, Note Name: D#5
Note ON: Time 214440, Note Name: B4, Velocity: 68
Note OFF: Time 214560, Note Name: B4
Note ON: Time 214560, Note Name: A#4, Velocity: 80
Note OFF: Time 214680, Note Name: A#4
Note ON: Time 214680, Note Name: B4, Velocity: 71
Note OFF: Time 214800, Note Name: B4
Note ON: Time 214800, Note Name: E5, Velocity: 71
Note OFF: Time 214920, Note Name: E5
Note ON: Time 214920, Note Name: G5, Velocity: 72
Note OFF: Time 215040, Note Name: G5
Note ON: Time 215040, Note Name: B5, Velocity: 91
Note OFF: Time 215160, Note Name: B5
Note ON: Time 215160, Note Name: F#5, Velocity: 82
Note OFF: Time 215280, Note Name: F#5
Note ON: Time 215280, Note Name: D#5, Velocity: 82
Note OFF: Time 215400, Note Name: D#5
Note ON: Time 215400, Note Name: B4, Velocity: 82
Note OFF: Time 215520, Note Name: B4
Note ON: Time 215520, Note Name: B5, Velocity: 91
Note OFF: Time 215640, Note Name: B5
Note ON: Time 215640, Note Name: G5, Velocity: 82
Note OFF: Time 215760, Note Name: G5
Note ON: Time 215760, Note Name: E5, Velocity: 82
Note OFF: Time 215880, Note Name: E5
Note ON: Time 215880, Note Name: B4, Velocity: 82
Note OFF: Time 216000, Note Name: B4
Note ON: Time 216000, Note Name: B5, Velocity: 91
Note OFF: Time 216120, Note Name: B5
Note ON: Time 216120, Note Name: F#5, Velocity: 82
Note OFF: Time 216240, Note Name: F#5
Note ON: Time 216240, Note Name: D#5, Velocity: 81
Note OFF: Time 216360, Note Name: D#5
Note ON: Time 216360, Note Name: B4, Velocity: 81
Note OFF: Time 216480, Note Name: B4
Note ON: Time 216480, Note Name: B5, Velocity: 91
Note OFF: Time 216600, Note Name: B5
Note ON: Time 216600, Note Name: G5, Velocity: 81
Note OFF: Time 216720, Note Name: G5
Note ON: Time 216720, Note Name: E5, Velocity: 81
Note OFF: Time 216840, Note Name: E5
Note ON: Time 216840, Note Name: B4, Velocity: 82
Note OFF: Time 216960, Note Name: B4
Note ON: Time 216960, Note Name: B5, Velocity: 91
Note OFF: Time 217080, Note Name: B5
Note ON: Time 217080, Note Name: F#5, Velocity: 82
Note OFF: Time 217200, Note Name: F#5
Note ON: Time 217200, Note Name: D#5, Velocity: 82
Note OFF: Time 217320, Note Name: D#5
Note ON: Time 217320, Note Name: B4, Velocity: 82
Note OFF: Time 217440, Note Name: B4
Note ON: Time 217440, Note Name: F#5, Velocity: 91
Note OFF: Time 217560, Note Name: F#5
Note ON: Time 217560, Note Name: D#5, Velocity: 82
Note OFF: Time 217680, Note Name: D#5
Note ON: Time 217680, Note Name: B4, Velocity: 82
Note OFF: Time 217800, Note Name: B4
Note ON: Time 217800, Note Name: F#4, Velocity: 82
Note OFF: Time 217920, Note Name: F#4
Note ON: Time 217920, Note Name: D#5, Velocity: 91
Note OFF: Time 218040, Note Name: D#5
Note ON: Time 218040, Note Name: B4, Velocity: 82
Note OFF: Time 218160, Note Name: B4
Note ON: Time 218160, Note Name: F#4, Velocity: 81
Note OFF: Time 218280, Note Name: F#4
Note ON: Time 218280, Note Name: D#4, Velocity: 81
Note OFF: Time 218400, Note Name: D#4
Note ON: Time 218400, Note Name: B4, Velocity: 91
Note OFF: Time 218520, Note Name: B4
Note ON: Time 218520, Note Name: F#4, Velocity: 81
Note OFF: Time 218640, Note Name: F#4
Note ON: Time 218640, Note Name: D#4, Velocity: 81
Note OFF: Time 218760, Note Name: D#4
Note ON: Time 218760, Note Name: B3, Velocity: 82
Note OFF: Time 218880, Note Name: B3
Note ON: Time 218880, Note Name: F#4, Velocity: 91
Note OFF: Time 219000, Note Name: F#4
Note ON: Time 219000, Note Name: D#4, Velocity: 81
Note OFF: Time 219120, Note Name: D#4
Note ON: Time 219120, Note Name: B3, Velocity: 80
Note OFF: Time 219240, Note Name: B3
Note ON: Time 219240, Note Name: F#3, Velocity: 80
Note OFF: Time 219360, Note Name: F#3
Note ON: Time 219360, Note Name: D#4, Velocity: 89
Note OFF: Time 219480, Note Name: D#4
Note ON: Time 219480, Note Name: B3, Velocity: 79
Note OFF: Time 219600, Note Name: B3
Note ON: Time 219600, Note Name: F#3, Velocity: 79
Note OFF: Time 219720, Note Name: F#3
Note ON: Time 219720, Note Name: D#3, Velocity: 78
Note OFF: Time 219840, Note Name: D#3
Note ON: Time 219840, Note Name: B3, Velocity: 87
Note OFF: Time 219960, Note Name: B3
Note ON: Time 219960, Note Name: F#3, Velocity: 78
Note OFF: Time 220080, Note Name: F#3
Note ON: Time 220080, Note Name: D#3, Velocity: 77
Note OFF: Time 220200, Note Name: D#3
Note ON: Time 220200, Note Name: B2, Velocity: 77
Note OFF: Time 220320, Note Name: B2
Note ON: Time 221760, Note Name: B4, Velocity: 75
Note OFF: Time 221880, Note Name: B4
Note ON: Time 222000, Note Name: B3, Velocity: 69
Note OFF: Time 222120, Note Name: B3
Note ON: Time 222240, Note Name: C#5, Velocity: 74
Note OFF: Time 222360, Note Name: C#5
Note ON: Time 222480, Note Name: C#4, Velocity: 65
Note OFF: Time 222600, Note Name: C#4
Note ON: Time 222720, Note Name: D#5, Velocity: 71
Note OFF: Time 222840, Note Name: D#5
Note ON: Time 222960, Note Name: D#4, Velocity: 64
Note OFF: Time 223080, Note Name: D#4
Note ON: Time 223680, Note Name: D#5, Velocity: 67
Note OFF: Time 223800, Note Name: D#5
Note ON: Time 223920, Note Name: D#4, Velocity: 53
Note OFF: Time 224040, Note Name: D#4
Note ON: Time 224160, Note Name: E5, Velocity: 59
Note OFF: Time 224280, Note Name: E5
Note ON: Time 224400, Note Name: E4, Velocity: 50
Note OFF: Time 224520, Note Name: E4
Note ON: Time 224640, Note Name: F#5, Velocity: 52
Note OFF: Time 224760, Note Name: F#5
Note ON: Time 224880, Note Name: F#4, Velocity: 49
Note OFF: Time 225000, Note Name: F#4
Note ON: Time 225120, Note Name: G#5, Velocity: 52
Note OFF: Time 225240, Note Name: G#5
Note ON: Time 225360, Note Name: G#4, Velocity: 49
Note OFF: Time 225480, Note Name: G#4
Note ON: Time 225600, Note Name: A5, Velocity: 52
Note OFF: Time 225720, Note Name: A5
Note ON: Time 225840, Note Name: A4, Velocity: 48
Note OFF: Time 225960, Note Name: A4
Note ON: Time 226080, Note Name: A5, Velocity: 52
Note OFF: Time 226200, Note Name: A5
Note ON: Time 226320, Note Name: B4, Velocity: 46
Note OFF: Time 226440, Note Name: B4
Note ON: Time 226560, Note Name: A5, Velocity: 51
Note OFF: Time 226680, Note Name: A5
Note ON: Time 226800, Note Name: C#5, Velocity: 46
Note OFF: Time 226920, Note Name: C#5
Note ON: Time 227040, Note Name: A5, Velocity: 51
Note OFF: Time 227160, Note Name: A5
Note ON: Time 227280, Note Name: D#5, Velocity: 46
Note OFF: Time 227400, Note Name: D#5
Note ON: Time 227520, Note Name: A5, Velocity: 51
Note OFF: Time 227640, Note Name: A5
Note ON: Time 227760, Note Name: E5, Velocity: 47
Note OFF: Time 227880, Note Name: E5
Note ON: Time 228000, Note Name: A5, Velocity: 50
Note OFF: Time 228120, Note Name: A5
Note ON: Time 228240, Note Name: F#5, Velocity: 46
Note OFF: Time 228360, Note Name: F#5
Note ON: Time 228480, Note Name: B4, Velocity: 42
Note ON: Time 228480, Note Name: E5, Velocity: 42
Note ON: Time 228480, Note Name: G#5, Velocity: 55
Note OFF: Time 229440, Note Name: G#5
Note OFF: Time 229440, Note Name: E5
Note OFF: Time 229440, Note Name: B4
Note ON: Time 229440, Note Name: A4, Velocity: 40
Note ON: Time 229440, Note Name: D#5, Velocity: 40
Note ON: Time 229440, Note Name: F#5, Velocity: 52
Note OFF: Time 229920, Note Name: F#5
Note OFF: Time 229920, Note Name: D#5
Note OFF: Time 229920, Note Name: A4
Note ON: Time 229920, Note Name: G#4, Velocity: 40
Note ON: Time 229920, Note Name: C#5, Velocity: 40
Note ON: Time 229920, Note Name: E5, Velocity: 52
Note OFF: Time 230400, Note Name: E5
Note OFF: Time 230400, Note Name: C#5
Note OFF: Time 230400, Note Name: G#4
Note ON: Time 230400, Note Name: F#4, Velocity: 42
Note ON: Time 230400, Note Name: C5, Velocity: 42
Note ON: Time 230400, Note Name: D#5, Velocity: 55
Note OFF: Time 231360, Note Name: D#5
Note OFF: Time 231360, Note Name: C5
Note OFF: Time 231360, Note Name: F#4
Note ON: Time 231360, Note Name: E4, Velocity: 40
Note ON: Time 231360, Note Name: C#5, Velocity: 52
Note OFF: Time 232320, Note Name: C#5
Note OFF: Time 232320, Note Name: E4
Note ON: Time 232320, Note Name: A4, Velocity: 49
Note ON: Time 232320, Note Name: B4, Velocity: 49
Note ON: Time 232320, Note Name: D#5, Velocity: 63
Note OFF: Time 233280, Note Name: D#5
Note OFF: Time 233280, Note Name: B4
Note OFF: Time 233280, Note Name: A4
Note ON: Time 233280, Note Name: B4, Velocity: 50
Note ON: Time 233280, Note Name: E5, Velocity: 66
Note OFF: Time 233760, Note Name: E5
Note OFF: Time 233760, Note Name: B4
Note ON: Time 233760, Note Name: C#5, Velocity: 49
Note ON: Time 233760, Note Name: E5, Velocity: 55
Note ON: Time 233760, Note Name: F#5, Velocity: 72
Note OFF: Time 234240, Note Name: F#5
Note OFF: Time 234240, Note Name: E5
Note OFF: Time 234240, Note Name: C#5
Note ON: Time 234240, Note Name: B4, Velocity: 59
Note ON: Time 234240, Note Name: E5, Velocity: 59
Note ON: Time 234240, Note Name: G#5, Velocity: 77
Note OFF: Time 235200, Note Name: G#5
Note OFF: Time 235200, Note Name: E5
Note ON: Time 235200, Note Name: D#5, Velocity: 32
Note ON: Time 235200, Note Name: F#5, Velocity: 49
Note OFF: Time 235680, Note Name: B4
Note ON: Time 235680, Note Name: A4, Velocity: 48
Note OFF: Time 236160, Note Name: A4
Note OFF: Time 236160, Note Name: F#5
Note OFF: Time 236160, Note Name: D#5
Note ON: Time 236160, Note Name: B3, Velocity: 37
Note ON: Time 236160, Note Name: E4, Velocity: 37
Note ON: Time 236160, Note Name: G#4, Velocity: 45
Note OFF: Time 237120, Note Name: G#4
Note OFF: Time 237120, Note Name: E4
Note OFF: Time 237120, Note Name: B3
Note ON: Time 237120, Note Name: A3, Velocity: 36
Note ON: Time 237120, Note Name: D#4, Velocity: 36
Note ON: Time 237120, Note Name: F#4, Velocity: 43
Note OFF: Time 237600, Note Name: F#4
Note OFF: Time 237600, Note Name: D#4
Note OFF: Time 237600, Note Name: A3
Note ON: Time 237600, Note Name: G#3, Velocity: 36
Note ON: Time 237600, Note Name: C#4, Velocity: 36
Note ON: Time 237600, Note Name: E4, Velocity: 43
Note OFF: Time 238080, Note Name: E4
Note OFF: Time 238080, Note Name: C#4
Note OFF: Time 238080, Note Name: G#3
Note ON: Time 238080, Note Name: F#3, Velocity: 37
Note ON: Time 238080, Note Name: C4, Velocity: 37
Note ON: Time 238080, Note Name: D#4, Velocity: 45
Note OFF: Time 239040, Note Name: D#4
Note OFF: Time 239040, Note Name: C4
Note OFF: Time 239040, Note Name: F#3
Note ON: Time 239040, Note Name: A3, Velocity: 36
Note ON: Time 239040, Note Name: E3, Velocity: 36
Note ON: Time 239040, Note Name: C#4, Velocity: 43
Note OFF: Time 240000, Note Name: C#4
Note OFF: Time 240000, Note Name: E3
Note OFF: Time 240000, Note Name: A3
Note ON: Time 240000, Note Name: E3, Velocity: 44
Note ON: Time 240000, Note Name: G#3, Velocity: 44
Note ON: Time 240000, Note Name: B3, Velocity: 52
Note OFF: Time 240480, Note Name: G#3
Note OFF: Time 240480, Note Name: E3
Note ON: Time 240480, Note Name: F#3, Velocity: 49
Note ON: Time 240480, Note Name: A3, Velocity: 49
Note OFF: Time 240960, Note Name: B3
Note ON: Time 240960, Note Name: C#4, Velocity: 61
Note OFF: Time 241440, Note Name: C#4
Note ON: Time 241440, Note Name: D#4, Velocity: 68
Note OFF: Time 241920, Note Name: D#4
Note OFF: Time 241920, Note Name: A3
Note OFF: Time 241920, Note Name: F#3
Note ON: Time 241920, Note Name: G#3, Velocity: 42
Note ON: Time 241920, Note Name: E4, Velocity: 49
Note OFF: Time 242040, Note Name: E4
Note OFF: Time 242080, Note Name: G#3
Note ON: Time 242080, Note Name: F#4, Velocity: 48
Note OFF: Time 242200, Note Name: F#4
Note ON: Time 242240, Note Name: G#4, Velocity: 49
Note OFF: Time 242360, Note Name: G#4
Note ON: Time 242400, Note Name: A4, Velocity: 46
Note OFF: Time 242520, Note Name: A4
Note ON: Time 242560, Note Name: B4, Velocity: 47
Note OFF: Time 242680, Note Name: B4
Note ON: Time 242720, Note Name: C#5, Velocity: 48
Note OFF: Time 242840, Note Name: C#5
Note ON: Time 242880, Note Name: D5, Velocity: 50
Note OFF: Time 243000, Note Name: D5
Note ON: Time 243040, Note Name: D#5, Velocity: 51
Note OFF: Time 243160, Note Name: D#5
Note ON: Time 243200, Note Name: E5, Velocity: 52
Note OFF: Time 243320, Note Name: E5
Note ON: Time 243360, Note Name: F5, Velocity: 53
Note OFF: Time 243480, Note Name: F5
Note ON: Time 243520, Note Name: F#5, Velocity: 51
Note OFF: Time 243640, Note Name: F#5
Note ON: Time 243680, Note Name: G5, Velocity: 52
Note OFF: Time 243800, Note Name: G5
Note ON: Time 243840, Note Name: B4, Velocity: 46
Note ON: Time 243840, Note Name: G#5, Velocity: 56
Note OFF: Time 244000, Note Name: G#5
Note ON: Time 244000, Note Name: G5, Velocity: 53
Note OFF: Time 244160, Note Name: G5
Note ON: Time 244160, Note Name: G#5, Velocity: 53
Note OFF: Time 244320, Note Name: G#5
Note ON: Time 244320, Note Name: A5, Velocity: 53
Note OFF: Time 244480, Note Name: A5
Note ON: Time 244480, Note Name: G5, Velocity: 53
Note OFF: Time 244640, Note Name: G5
Note ON: Time 244640, Note Name: G#5, Velocity: 53
Note OFF: Time 244800, Note Name: G#5
Note OFF: Time 244800, Note Name: B4
Note ON: Time 244800, Note Name: A4, Velocity: 60
Note ON: Time 244960, Note Name: G#5, Velocity: 54
Note OFF: Time 245120, Note Name: G#5
Note ON: Time 245120, Note Name: F#5, Velocity: 54
Note OFF: Time 245280, Note Name: F#5
Note OFF: Time 245280, Note Name: A4
Note ON: Time 245280, Note Name: G#4, Velocity: 60
Note ON: Time 245440, Note Name: F#5, Velocity: 53
Note OFF: Time 245600, Note Name: F#5
Note ON: Time 245600, Note Name: E5, Velocity: 53
Note OFF: Time 245760, Note Name: E5
Note OFF: Time 245760, Note Name: G#4
Note ON: Time 245760, Note Name: F#4, Velocity: 60
Note ON: Time 245920, Note Name: C5, Velocity: 54
Note OFF: Time 246080, Note Name: C5
Note ON: Time 246080, Note Name: D#5, Velocity: 54
Note OFF: Time 246240, Note Name: D#5
Note ON: Time 246240, Note Name: E5, Velocity: 54
Note OFF: Time 246400, Note Name: E5
Note ON: Time 246400, Note Name: C5, Velocity: 54
Note OFF: Time 246560, Note Name: C5
Note ON: Time 246560, Note Name: D#5, Velocity: 54
Note OFF: Time 246720, Note Name: D#5
Note OFF: Time 246720, Note Name: F#4
Note ON: Time 246720, Note Name: E4, Velocity: 60
Note ON: Time 246880, Note Name: A4, Velocity: 54
Note OFF: Time 247040, Note Name: A4
Note ON: Time 247040, Note Name: C#5, Velocity: 54
Note OFF: Time 247200, Note Name: C#5
Note ON: Time 247200, Note Name: D#5, Velocity: 54
Note OFF: Time 247360, Note Name: D#5
Note ON: Time 247360, Note Name: A4, Velocity: 54
Note OFF: Time 247520, Note Name: A4
Note ON: Time 247520, Note Name: C#5, Velocity: 54
Note OFF: Time 247680, Note Name: C#5
Note OFF: Time 247680, Note Name: E4
Note ON: Time 247680, Note Name: A4, Velocity: 62
Note ON: Time 247840, Note Name: D5, Velocity: 62
Note OFF: Time 248000, Note Name: D5
Note ON: Time 248000, Note Name: D#5, Velocity: 57
Note OFF: Time 248160, Note Name: D#5
Note ON: Time 248160, Note Name: E5, Velocity: 57
Note OFF: Time 248320, Note Name: E5
Note ON: Time 248320, Note Name: D5, Velocity: 59
Note OFF: Time 248480, Note Name: D5
Note ON: Time 248480, Note Name: D#5, Velocity: 59
Note OFF: Time 248640, Note Name: D#5
Note OFF: Time 248640, Note Name: A4
Note ON: Time 248640, Note Name: B4, Velocity: 71
Note ON: Time 248800, Note Name: F#5, Velocity: 63
Note OFF: Time 248960, Note Name: F#5
Note ON: Time 248960, Note Name: E5, Velocity: 64
Note OFF: Time 249120, Note Name: E5
Note OFF: Time 249120, Note Name: B4
Note ON: Time 249120, Note Name: C#5, Velocity: 74
Note ON: Time 249280, Note Name: G#5, Velocity: 65
Note OFF: Time 249440, Note Name: G#5
Note ON: Time 249440, Note Name: F#5, Velocity: 65
Note OFF: Time 249600, Note Name: F#5
Note OFF: Time 249600, Note Name: C#5
Note ON: Time 249600, Note Name: G#5, Velocity: 79
Note ON: Time 249600, Note Name: E5, Velocity: 79
Note OFF: Time 249760, Note Name: G#5
Note ON: Time 249760, Note Name: G5, Velocity: 72
Note OFF: Time 249920, Note Name: G5
Note ON: Time 249920, Note Name: G#5, Velocity: 72
Note OFF: Time 250080, Note Name: G#5
Note ON: Time 250080, Note Name: B5, Velocity: 68
Note OFF: Time 250240, Note Name: B5
Note ON: Time 250240, Note Name: A5, Velocity: 72
Note OFF: Time 250400, Note Name: A5
Note ON: Time 250400, Note Name: G#5, Velocity: 69
Note OFF: Time 250560, Note Name: G#5
Note OFF: Time 250560, Note Name: E5
Note ON: Time 250560, Note Name: D#5, Velocity: 67
Note ON: Time 250560, Note Name: F#5, Velocity: 67
Note OFF: Time 250720, Note Name: F#5
Note OFF: Time 250720, Note Name: D#5
Note ON: Time 250720, Note Name: C#5, Velocity: 64
Note ON: Time 250720, Note Name: E5, Velocity: 64
Note OFF: Time 250880, Note Name: E5
Note OFF: Time 250880, Note Name: C#5
Note ON: Time 250880, Note Name: D#5, Velocity: 60
Note ON: Time 250880, Note Name: B4, Velocity: 60
Note OFF: Time 251040, Note Name: B4
Note OFF: Time 251040, Note Name: D#5
Note ON: Time 251040, Note Name: A4, Velocity: 60
Note ON: Time 251040, Note Name: C#5, Velocity: 60
Note OFF: Time 251200, Note Name: C#5
Note OFF: Time 251200, Note Name: A4
Note ON: Time 251200, Note Name: G#4, Velocity: 56
Note ON: Time 251200, Note Name: B4, Velocity: 56
Note OFF: Time 251360, Note Name: B4
Note OFF: Time 251360, Note Name: G#4
Note ON: Time 251360, Note Name: F#4, Velocity: 53
Note ON: Time 251360, Note Name: A4, Velocity: 53
Note OFF: Time 251520, Note Name: A4
Note OFF: Time 251520, Note Name: F#4
Note ON: Time 251520, Note Name: B3, Velocity: 57
Note ON: Time 251520, Note Name: G#4, Velocity: 57
Note OFF: Time 251680, Note Name: G#4
Note ON: Time 251680, Note Name: G4, Velocity: 49
Note OFF: Time 251840, Note Name: G4
Note ON: Time 251840, Note Name: G#4, Velocity: 49
Note OFF: Time 252000, Note Name: G#4
Note ON: Time 252000, Note Name: A4, Velocity: 49
Note OFF: Time 252160, Note Name: A4
Note ON: Time 252160, Note Name: G4, Velocity: 49
Note OFF: Time 252320, Note Name: G4
Note ON: Time 252320, Note Name: G#4, Velocity: 49
Note OFF: Time 252480, Note Name: G#4
Note OFF: Time 252480, Note Name: B3
Note ON: Time 252480, Note Name: A3, Velocity: 56
Note ON: Time 252640, Note Name: G#4, Velocity: 50
Note OFF: Time 252800, Note Name: G#4
Note ON: Time 252800, Note Name: F#4, Velocity: 50
Note OFF: Time 252960, Note Name: F#4
Note OFF: Time 252960, Note Name: A3
Note ON: Time 252960, Note Name: G#3, Velocity: 56
Note ON: Time 253120, Note Name: F#4, Velocity: 49
Note OFF: Time 253280, Note Name: F#4
Note ON: Time 253280, Note Name: E4, Velocity: 49
Note OFF: Time 253440, Note Name: E4
Note OFF: Time 253440, Note Name: G#3
Note ON: Time 253600, Note Name: C4, Velocity: 50
Note OFF: Time 253760, Note Name: C4
Note ON: Time 253760, Note Name: D#4, Velocity: 50
Note OFF: Time 253920, Note Name: D#4
Note ON: Time 253920, Note Name: E4, Velocity: 53
Note OFF: Time 254080, Note Name: E4
Note ON: Time 254080, Note Name: C4, Velocity: 50
Note OFF: Time 254240, Note Name: C4
Note ON: Time 254240, Note Name: D#4, Velocity: 50
Note OFF: Time 254400, Note Name: D#4
Note ON: Time 254560, Note Name: A3, Velocity: 50
Note OFF: Time 254720, Note Name: A3
Note ON: Time 254720, Note Name: C#4, Velocity: 50
Note OFF: Time 254880, Note Name: C#4
Note ON: Time 254880, Note Name: D#4, Velocity: 53
Note OFF: Time 255040, Note Name: D#4
Note ON: Time 255040, Note Name: A3, Velocity: 50
Note OFF: Time 255200, Note Name: A3
Note ON: Time 255200, Note Name: C#4, Velocity: 50
Note OFF: Time 255360, Note Name: C#4
Note ON: Time 255360, Note Name: E3, Velocity: 60
Note ON: Time 255520, Note Name: G#3, Velocity: 56
Note OFF: Time 255680, Note Name: G#3
Note ON: Time 255680, Note Name: B3, Velocity: 57
Note OFF: Time 255840, Note Name: B3
Note OFF: Time 255840, Note Name: E3
Note ON: Time 255840, Note Name: F#3, Velocity: 66
Note ON: Time 256000, Note Name: A3, Velocity: 61
Note OFF: Time 256160, Note Name: A3
Note ON: Time 256160, Note Name: B3, Velocity: 61
Note OFF: Time 256320, Note Name: B3
Note OFF: Time 256320, Note Name: F#3
Note ON: Time 256320, Note Name: F#3, Velocity: 74
Note ON: Time 256480, Note Name: A3, Velocity: 67
Note OFF: Time 256640, Note Name: A3
Note ON: Time 256640, Note Name: C#4, Velocity: 65
Note OFF: Time 256800, Note Name: C#4
Note OFF: Time 256800, Note Name: F#3
Note ON: Time 256800, Note Name: F#3, Velocity: 80
Note ON: Time 256960, Note Name: A3, Velocity: 71
Note OFF: Time 257120, Note Name: A3
Note ON: Time 257120, Note Name: D#4, Velocity: 70
Note OFF: Time 257280, Note Name: D#4
Note OFF: Time 257280, Note Name: F#3
Note ON: Time 257280, Note Name: G#3, Velocity: 77
Note ON: Time 257280, Note Name: E4, Velocity: 82
Note OFF: Time 257440, Note Name: E4
Note OFF: Time 257440, Note Name: G#3
Note ON: Time 257440, Note Name: B3, Velocity: 75
Note OFF: Time 257600, Note Name: B3
Note ON: Time 257600, Note Name: G#3, Velocity: 77
Note OFF: Time 257760, Note Name: G#3
Note ON: Time 257760, Note Name: B3, Velocity: 82
Note OFF: Time 257920, Note Name: B3
Note ON: Time 257920, Note Name: E4, Velocity: 77
Note OFF: Time 258080, Note Name: E4
Note ON: Time 258080, Note Name: G#4, Velocity: 77
Note OFF: Time 258240, Note Name: G#4
Note ON: Time 258240, Note Name: F#4, Velocity: 82
Note OFF: Time 258400, Note Name: F#4
Note ON: Time 258400, Note Name: D#4, Velocity: 77
Note OFF: Time 258560, Note Name: D#4
Note ON: Time 258560, Note Name: B3, Velocity: 77
Note OFF: Time 258720, Note Name: B3
Note ON: Time 258720, Note Name: D#4, Velocity: 82
Note OFF: Time 258880, Note Name: D#4
Note ON: Time 258880, Note Name: F#4, Velocity: 77
Note OFF: Time 259040, Note Name: F#4
Note ON: Time 259040, Note Name: A4, Velocity: 77
Note OFF: Time 259200, Note Name: A4
Note ON: Time 259200, Note Name: G#4, Velocity: 82
Note OFF: Time 259360, Note Name: G#4
Note ON: Time 259360, Note Name: E4, Velocity: 75
Note OFF: Time 259520, Note Name: E4
Note ON: Time 259520, Note Name: B3, Velocity: 77
Note OFF: Time 259680, Note Name: B3
Note ON: Time 259680, Note Name: E4, Velocity: 82
Note OFF: Time 259840, Note Name: E4
Note ON: Time 259840, Note Name: G#4, Velocity: 77
Note OFF: Time 260000, Note Name: G#4
Note ON: Time 260000, Note Name: B4, Velocity: 77
Note OFF: Time 260160, Note Name: B4
Note ON: Time 260160, Note Name: A4, Velocity: 82
Note OFF: Time 260320, Note Name: A4
Note ON: Time 260320, Note Name: F#4, Velocity: 77
Note OFF: Time 260480, Note Name: F#4
Note ON: Time 260480, Note Name: D#4, Velocity: 77
Note OFF: Time 260640, Note Name: D#4
Note ON: Time 260640, Note Name: D#5, Velocity: 82
Note OFF: Time 260800, Note Name: D#5
Note ON: Time 260800, Note Name: A4, Velocity: 77
Note OFF: Time 260960, Note Name: A4
Note ON: Time 260960, Note Name: F#4, Velocity: 77
Note OFF: Time 261120, Note Name: F#4
Note ON: Time 261120, Note Name: G#4, Velocity: 63
Note ON: Time 261120, Note Name: E5, Velocity: 75
Note OFF: Time 261600, Note Name: E5
Note OFF: Time 261600, Note Name: G#4
Note ON: Time 261600, Note Name: B4, Velocity: 80
Note OFF: Time 262560, Note Name: B4
Note ON: Time 262560, Note Name: B4, Velocity: 80
Note OFF: Time 263520, Note Name: B4
Note ON: Time 263520, Note Name: B4, Velocity: 80
Note OFF: Time 264480, Note Name: B4
Note ON: Time 264480, Note Name: B4, Velocity: 80
Note OFF: Time 264960, Note Name: B4
Note ON: Time 264960, Note Name: E5, Velocity: 82
Note OFF: Time 265120, Note Name: E5
Note ON: Time 265120, Note Name: B4, Velocity: 75
Note OFF: Time 265280, Note Name: B4
Note ON: Time 265280, Note Name: G#4, Velocity: 77
Note OFF: Time 265440, Note Name: G#4
Note ON: Time 265440, Note Name: B4, Velocity: 82
Note OFF: Time 265600, Note Name: B4
Note ON: Time 265600, Note Name: E5, Velocity: 77
Note OFF: Time 265760, Note Name: E5
Note ON: Time 265760, Note Name: G#5, Velocity: 77
Note OFF: Time 265920, Note Name: G#5
Note ON: Time 265920, Note Name: F#5, Velocity: 82
Note OFF: Time 266080, Note Name: F#5
Note ON: Time 266080, Note Name: D#5, Velocity: 77
Note OFF: Time 266240, Note Name: D#5
Note ON: Time 266240, Note Name: B4, Velocity: 77
Note OFF: Time 266400, Note Name: B4
Note ON: Time 266400, Note Name: D#5, Velocity: 82
Note OFF: Time 266560, Note Name: D#5
Note ON: Time 266560, Note Name: F#5, Velocity: 77
Note OFF: Time 266720, Note Name: F#5
Note ON: Time 266720, Note Name: A5, Velocity: 77
Note OFF: Time 266880, Note Name: A5
Note ON: Time 266880, Note Name: G#5, Velocity: 82
Note OFF: Time 267040, Note Name: G#5
Note ON: Time 267040, Note Name: E5, Velocity: 75
Note OFF: Time 267200, Note Name: E5
Note ON: Time 267200, Note Name: B4, Velocity: 77
Note OFF: Time 267360, Note Name: B4
Note ON: Time 267360, Note Name: E5, Velocity: 82
Note OFF: Time 267520, Note Name: E5
Note ON: Time 267520, Note Name: G#5, Velocity: 77
Note OFF: Time 267680, Note Name: G#5
Note ON: Time 267680, Note Name: B5, Velocity: 77
Note OFF: Time 267840, Note Name: B5
Note ON: Time 267840, Note Name: A5, Velocity: 82
Note OFF: Time 268000, Note Name: A5
Note ON: Time 268000, Note Name: F#5, Velocity: 77
Note OFF: Time 268160, Note Name: F#5
Note ON: Time 268160, Note Name: D#5, Velocity: 77
Note OFF: Time 268320, Note Name: D#5
Note ON: Time 268320, Note Name: D#6, Velocity: 82
Note OFF: Time 268480, Note Name: D#6
Note ON: Time 268480, Note Name: A5, Velocity: 77
Note OFF: Time 268640, Note Name: A5
Note ON: Time 268640, Note Name: F#5, Velocity: 77
Note OFF: Time 268800, Note Name: F#5
Note ON: Time 268800, Note Name: E6, Velocity: 86
Note ON: Time 268960, Note Name: B5, Velocity: 74
Note OFF: Time 269040, Note Name: E6
Note OFF: Time 269120, Note Name: B5
Note ON: Time 269120, Note Name: G#5, Velocity: 74
Note OFF: Time 269280, Note Name: G#5
Note ON: Time 269280, Note Name: B5, Velocity: 82
Note ON: Time 269440, Note Name: G#5, Velocity: 73
Note OFF: Time 269520, Note Name: B5
Note OFF: Time 269600, Note Name: G#5
Note ON: Time 269600, Note Name: E5, Velocity: 72
Note OFF: Time 269760, Note Name: E5
Note ON: Time 269760, Note Name: A5, Velocity: 79
Note ON: Time 269920, Note Name: F#5, Velocity: 71
Note OFF: Time 270000, Note Name: A5
Note OFF: Time 270080, Note Name: F#5
Note ON: Time 270080, Note Name: D#5, Velocity: 70
Note OFF: Time 270240, Note Name: D#5
Note ON: Time 270240, Note Name: D#6, Velocity: 76
Note ON: Time 270400, Note Name: B5, Velocity: 69
Note OFF: Time 270480, Note Name: D#6
Note OFF: Time 270560, Note Name: B5
Note ON: Time 270560, Note Name: F#5, Velocity: 67
Note OFF: Time 270720, Note Name: F#5
Note ON: Time 270720, Note Name: E6, Velocity: 75
Note ON: Time 270880, Note Name: B5, Velocity: 65
Note OFF: Time 270960, Note Name: E6
Note OFF: Time 271040, Note Name: B5
Note ON: Time 271040, Note Name: G#5, Velocity: 65
Note OFF: Time 271200, Note Name: G#5
Note ON: Time 271200, Note Name: B5, Velocity: 72
Note ON: Time 271360, Note Name: G#5, Velocity: 64
Note OFF: Time 271440, Note Name: B5
Note OFF: Time 271520, Note Name: G#5
Note ON: Time 271520, Note Name: E5, Velocity: 63
Note OFF: Time 271680, Note Name: E5
Note ON: Time 271680, Note Name: A5, Velocity: 69
Note ON: Time 271840, Note Name: F#5, Velocity: 62
Note OFF: Time 271920, Note Name: A5
Note OFF: Time 272000, Note Name: F#5
Note ON: Time 272000, Note Name: D#5, Velocity: 60
Note OFF: Time 272160, Note Name: D#5
Note ON: Time 272160, Note Name: D#6, Velocity: 69
Note ON: Time 272320, Note Name: B5, Velocity: 59
Note OFF: Time 272400, Note Name: D#6
Note OFF: Time 272480, Note Name: B5
Note ON: Time 272480, Note Name: F#5, Velocity: 58
Note OFF: Time 272640, Note Name: F#5
Note ON: Time 272640, Note Name: E6, Velocity: 64
Note OFF: Time 272760, Note Name: E6
Note ON: Time 272760, Note Name: B5, Velocity: 58
Note OFF: Time 272880, Note Name: B5
Note ON: Time 272880, Note Name: G#5, Velocity: 58
Note OFF: Time 273000, Note Name: G#5
Note ON: Time 273000, Note Name: E5, Velocity: 59
Note OFF: Time 273120, Note Name: E5
Note ON: Time 273120, Note Name: A5, Velocity: 65
Note OFF: Time 273240, Note Name: A5
Note ON: Time 273240, Note Name: F#5, Velocity: 59
Note OFF: Time 273360, Note Name: F#5
Note ON: Time 273360, Note Name: D#6, Velocity: 62
Note OFF: Time 273480, Note Name: D#6
Note ON: Time 273480, Note Name: B5, Velocity: 63
Note OFF: Time 273600, Note Name: B5
Note ON: Time 273600, Note Name: E6, Velocity: 69
Note OFF: Time 273720, Note Name: E6
Note ON: Time 273720, Note Name: B5, Velocity: 63
Note OFF: Time 273840, Note Name: B5
Note ON: Time 273840, Note Name: G#5, Velocity: 63
Note OFF: Time 273960, Note Name: G#5
Note ON: Time 273960, Note Name: E5, Velocity: 64
Note OFF: Time 274080, Note Name: E5
Note ON: Time 274080, Note Name: A5, Velocity: 71
Note OFF: Time 274200, Note Name: A5
Note ON: Time 274200, Note Name: F#5, Velocity: 66
Note OFF: Time 274320, Note Name: F#5
Note ON: Time 274320, Note Name: D#6, Velocity: 67
Note OFF: Time 274440, Note Name: D#6
Note ON: Time 274440, Note Name: B5, Velocity: 67
Note OFF: Time 274560, Note Name: B5
Note ON: Time 274560, Note Name: E6, Velocity: 74
Note OFF: Time 274680, Note Name: E6
Note ON: Time 274680, Note Name: B5, Velocity: 67
Note OFF: Time 274800, Note Name: B5
Note ON: Time 274800, Note Name: D#6, Velocity: 69
Note OFF: Time 274920, Note Name: D#6
Note ON: Time 274920, Note Name: B5, Velocity: 69
Note OFF: Time 275040, Note Name: B5
Note ON: Time 275040, Note Name: E6, Velocity: 77
Note OFF: Time 275160, Note Name: E6
Note ON: Time 275160, Note Name: B5, Velocity: 77
Note OFF: Time 275280, Note Name: B5
Note ON: Time 275280, Note Name: D#6, Velocity: 72
Note OFF: Time 275400, Note Name: D#6
Note ON: Time 275400, Note Name: B5, Velocity: 73
Note OFF: Time 275520, Note Name: B5
Note ON: Time 275520, Note Name: E6, Velocity: 80
Note OFF: Time 275640, Note Name: E6
Note ON: Time 275640, Note Name: B5, Velocity: 73
Note OFF: Time 275760, Note Name: B5
Note ON: Time 275760, Note Name: D#6, Velocity: 74
Note OFF: Time 275880, Note Name: D#6
Note ON: Time 275880, Note Name: B5, Velocity: 74
Note OFF: Time 276000, Note Name: B5
Note ON: Time 276000, Note Name: E6, Velocity: 82
Note OFF: Time 276120, Note Name: E6
Note ON: Time 276120, Note Name: B5, Velocity: 85
Note OFF: Time 276240, Note Name: B5
Note ON: Time 276240, Note Name: D#6, Velocity: 78
Note OFF: Time 276360, Note Name: D#6
Note ON: Time 276360, Note Name: B5, Velocity: 79
Note OFF: Time 276480, Note Name: B5
Note ON: Time 276480, Note Name: E6, Velocity: 89
Note OFF: Time 276600, Note Name: E6
Note ON: Time 276600, Note Name: B5, Velocity: 81
Note OFF: Time 276720, Note Name: B5
Note ON: Time 276720, Note Name: D6, Velocity: 81
Note OFF: Time 276840, Note Name: D6
Note ON: Time 276840, Note Name: B5, Velocity: 81
Note OFF: Time 276960, Note Name: B5
Note ON: Time 276960, Note Name: D6, Velocity: 89
Note OFF: Time 277080, Note Name: D6
Note ON: Time 277080, Note Name: B5, Velocity: 83
Note OFF: Time 277200, Note Name: B5
Note ON: Time 277200, Note Name: D6, Velocity: 82
Note OFF: Time 277320, Note Name: D6
Note ON: Time 277320, Note Name: B5, Velocity: 82
Note OFF: Time 277440, Note Name: B5
Note ON: Time 277440, Note Name: D6, Velocity: 89
Note OFF: Time 277560, Note Name: D6
Note ON: Time 277560, Note Name: B5, Velocity: 81
Note OFF: Time 277680, Note Name: B5
Note ON: Time 277680, Note Name: D6, Velocity: 81
Note OFF: Time 277800, Note Name: D6
Note ON: Time 277800, Note Name: B5, Velocity: 81
Note OFF: Time 277920, Note Name: B5
Note ON: Time 277920, Note Name: D6, Velocity: 89
Note OFF: Time 278040, Note Name: D6
Note ON: Time 278040, Note Name: B5, Velocity: 83
Note OFF: Time 278160, Note Name: B5
Note ON: Time 278160, Note Name: D6, Velocity: 82
Note OFF: Time 278280, Note Name: D6
Note ON: Time 278280, Note Name: B5, Velocity: 82
Note OFF: Time 278400, Note Name: B5
Note ON: Time 278400, Note Name: D6, Velocity: 89
Note OFF: Time 278640, Note Name: D6
Note ON: Time 278640, Note Name: C#6, Velocity: 81
Note OFF: Time 278760, Note Name: C#6
Note ON: Time 278760, Note Name: B5, Velocity: 81
Note OFF: Time 278880, Note Name: B5
Note ON: Time 278880, Note Name: A5, Velocity: 86
Note OFF: Time 279000, Note Name: A5
Note ON: Time 279000, Note Name: G#5, Velocity: 82
Note OFF: Time 279120, Note Name: G#5
Note ON: Time 279120, Note Name: F#5, Velocity: 83
Note OFF: Time 279240, Note Name: F#5
Note ON: Time 279240, Note Name: E5, Velocity: 83
Note OFF: Time 279360, Note Name: E5
Note ON: Time 279360, Note Name: D5, Velocity: 86
Note OFF: Time 279480, Note Name: D5
Note ON: Time 279480, Note Name: C#5, Velocity: 82
Note OFF: Time 279600, Note Name: C#5
Note ON: Time 279600, Note Name: B4, Velocity: 83
Note OFF: Time 279720, Note Name: B4
Note ON: Time 279720, Note Name: A4, Velocity: 83
Note OFF: Time 279840, Note Name: A4
Note ON: Time 279840, Note Name: G#4, Velocity: 88
Note OFF: Time 279960, Note Name: G#4
Note ON: Time 279960, Note Name: F#4, Velocity: 85
Note OFF: Time 280080, Note Name: F#4
Note ON: Time 280080, Note Name: E4, Velocity: 85
Note OFF: Time 280200, Note Name: E4
Note ON: Time 280200, Note Name: D4, Velocity: 85
Note OFF: Time 280320, Note Name: D4
Note ON: Time 280320, Note Name: C#4, Velocity: 93
Note OFF: Time 280440, Note Name: C#4
Note ON: Time 280440, Note Name: D#4, Velocity: 83
Note OFF: Time 280560, Note Name: D#4
Note ON: Time 280560, Note Name: E4, Velocity: 83
Note OFF: Time 280680, Note Name: E4
Note ON: Time 280680, Note Name: D#4, Velocity: 84
Note OFF: Time 280800, Note Name: D#4
Note ON: Time 280800, Note Name: E4, Velocity: 92
Note OFF: Time 280920, Note Name: E4
Note ON: Time 280920, Note Name: G#4, Velocity: 84
Note OFF: Time 281040, Note Name: G#4
Note ON: Time 281040, Note Name: A4, Velocity: 84
Note OFF: Time 281160, Note Name: A4
Note ON: Time 281160, Note Name: G#4, Velocity: 84
Note OFF: Time 281280, Note Name: G#4
Note ON: Time 281280, Note Name: A4, Velocity: 93
Note OFF: Time 281400, Note Name: A4
Note ON: Time 281400, Note Name: C5, Velocity: 84
Note OFF: Time 281520, Note Name: C5
Note ON: Time 281520, Note Name: C#5, Velocity: 84
Note OFF: Time 281640, Note Name: C#5
Note ON: Time 281640, Note Name: C5, Velocity: 84
Note OFF: Time 281760, Note Name: C5
Note ON: Time 281760, Note Name: C#5, Velocity: 93
Note OFF: Time 281880, Note Name: C#5
Note ON: Time 281880, Note Name: D#5, Velocity: 84
Note OFF: Time 282000, Note Name: D#5
Note ON: Time 282000, Note Name: E5, Velocity: 84
Note OFF: Time 282120, Note Name: E5
Note ON: Time 282120, Note Name: D#5, Velocity: 84
Note OFF: Time 282240, Note Name: D#5
Note ON: Time 282240, Note Name: E5, Velocity: 95
Note OFF: Time 282360, Note Name: E5
Note ON: Time 282360, Note Name: G#5, Velocity: 85
Note OFF: Time 282480, Note Name: G#5
Note ON: Time 282480, Note Name: A5, Velocity: 85
Note OFF: Time 282600, Note Name: A5
Note ON: Time 282600, Note Name: G#5, Velocity: 85
Note OFF: Time 282720, Note Name: G#5
Note ON: Time 282720, Note Name: A5, Velocity: 95
Note OFF: Time 282840, Note Name: A5
Note ON: Time 282840, Note Name: C6, Velocity: 85
Note OFF: Time 282960, Note Name: C6
Note ON: Time 282960, Note Name: C#6, Velocity: 85
Note OFF: Time 283080, Note Name: C#6
Note ON: Time 283080, Note Name: C6, Velocity: 86
Note OFF: Time 283200, Note Name: C6
Note ON: Time 283200, Note Name: C#6, Velocity: 95
Note OFF: Time 283320, Note Name: C#6
Note ON: Time 283320, Note Name: D#6, Velocity: 86
Note OFF: Time 283440, Note Name: D#6
Note ON: Time 283440, Note Name: E6, Velocity: 86
Note OFF: Time 283560, Note Name: E6
Note ON: Time 283560, Note Name: D#6, Velocity: 86
Note OFF: Time 283680, Note Name: D#6
Note ON: Time 283680, Note Name: E6, Velocity: 95
Note OFF: Time 283800, Note Name: E6
Note ON: Time 283800, Note Name: D#6, Velocity: 86
Note OFF: Time 283920, Note Name: D#6
Note ON: Time 283920, Note Name: C#6, Velocity: 86
Note OFF: Time 284040, Note Name: C#6
Note ON: Time 284040, Note Name: C6, Velocity: 86
Note OFF: Time 284160, Note Name: C6
Note ON: Time 284160, Note Name: C#6, Velocity: 95
Note OFF: Time 284280, Note Name: C#6
Note ON: Time 284280, Note Name: C6, Velocity: 86
Note OFF: Time 284400, Note Name: C6
Note ON: Time 284400, Note Name: C#6, Velocity: 86
Note OFF: Time 284520, Note Name: C#6
Note ON: Time 284520, Note Name: D#6, Velocity: 86
Note OFF: Time 284640, Note Name: D#6
Note ON: Time 284640, Note Name: E6, Velocity: 95
Note OFF: Time 284760, Note Name: E6
Note ON: Time 284760, Note Name: D#6, Velocity: 86
Note OFF: Time 284880, Note Name: D#6
Note ON: Time 284880, Note Name: C#6, Velocity: 86
Note OFF: Time 285000, Note Name: C#6
Note ON: Time 285000, Note Name: C6, Velocity: 86
Note OFF: Time 285120, Note Name: C6
Note ON: Time 285120, Note Name: C#6, Velocity: 95
Note OFF: Time 285240, Note Name: C#6
Note ON: Time 285240, Note Name: C6, Velocity: 86
Note OFF: Time 285360, Note Name: C6
Note ON: Time 285360, Note Name: C#6, Velocity: 86
Note OFF: Time 285480, Note Name: C#6
Note ON: Time 285480, Note Name: D#6, Velocity: 86
Note OFF: Time 285600, Note Name: D#6
Note ON: Time 285600, Note Name: E6, Velocity: 95
Note OFF: Time 285720, Note Name: E6
Note ON: Time 285720, Note Name: D#6, Velocity: 86
Note OFF: Time 285840, Note Name: D#6
Note ON: Time 285840, Note Name: C#6, Velocity: 86
Note OFF: Time 285960, Note Name: C#6
Note ON: Time 285960, Note Name: C6, Velocity: 86
Note OFF: Time 286080, Note Name: C6
Note ON: Time 286080, Note Name: C#6, Velocity: 95
Note OFF: Time 286200, Note Name: C#6
Note ON: Time 286200, Note Name: C6, Velocity: 86
Note OFF: Time 286320, Note Name: C6
Note ON: Time 286320, Note Name: C#6, Velocity: 86
Note OFF: Time 286440, Note Name: C#6
Note ON: Time 286440, Note Name: D#6, Velocity: 86
Note OFF: Time 286560, Note Name: D#6
Note ON: Time 286560, Note Name: E6, Velocity: 95
Note OFF: Time 286680, Note Name: E6
Note ON: Time 286680, Note Name: D#6, Velocity: 86
Note OFF: Time 286800, Note Name: D#6
Note ON: Time 286800, Note Name: C#6, Velocity: 86
Note OFF: Time 286920, Note Name: C#6
Note ON: Time 286920, Note Name: C6, Velocity: 86
Note OFF: Time 287040, Note Name: C6
Note ON: Time 287040, Note Name: C#6, Velocity: 95
Note OFF: Time 287160, Note Name: C#6
Note ON: Time 287160, Note Name: C6, Velocity: 86
Note OFF: Time 287280, Note Name: C6
Note ON: Time 287280, Note Name: C#6, Velocity: 86
Note OFF: Time 287400, Note Name: C#6
Note ON: Time 287400, Note Name: D#6, Velocity: 86
Note OFF: Time 287520, Note Name: D#6
Note ON: Time 287520, Note Name: E6, Velocity: 95
Note OFF: Time 287640, Note Name: E6
Note ON: Time 287640, Note Name: D#6, Velocity: 86
Note OFF: Time 287760, Note Name: D#6
Note ON: Time 287760, Note Name: E6, Velocity: 86
Note OFF: Time 287880, Note Name: E6
Note ON: Time 287880, Note Name: C#6, Velocity: 86
Note OFF: Time 288000, Note Name: C#6
Note ON: Time 288000, Note Name: B4, Velocity: 87
Note ON: Time 288000, Note Name: B5, Velocity: 103
Note OFF: Time 288120, Note Name: B5
Note OFF: Time 288120, Note Name: B4
Note ON: Time 288240, Note Name: B4, Velocity: 73
Note ON: Time 288240, Note Name: B5, Velocity: 87
Note OFF: Time 288360, Note Name: B5
Note OFF: Time 288360, Note Name: B4
Note ON: Time 288480, Note Name: G#4, Velocity: 74
Note ON: Time 288480, Note Name: G#5, Velocity: 88
Note OFF: Time 288600, Note Name: G#5
Note OFF: Time 288600, Note Name: G#4
Note ON: Time 288720, Note Name: E4, Velocity: 73
Note ON: Time 288720, Note Name: E5, Velocity: 87
Note OFF: Time 288840, Note Name: E5
Note OFF: Time 288840, Note Name: E4
Note ON: Time 288960, Note Name: E5, Velocity: 87
Note ON: Time 288960, Note Name: E6, Velocity: 103
Note OFF: Time 289080, Note Name: E6
Note OFF: Time 289080, Note Name: E5
Note ON: Time 289200, Note Name: E5, Velocity: 73
Note ON: Time 289200, Note Name: E6, Velocity: 87
Note OFF: Time 289320, Note Name: E6
Note OFF: Time 289320, Note Name: E5
Note ON: Time 289440, Note Name: B4, Velocity: 73
Note ON: Time 289440, Note Name: B5, Velocity: 87
Note OFF: Time 289560, Note Name: B5
Note OFF: Time 289560, Note Name: B4
Note ON: Time 289680, Note Name: G#4, Velocity: 73
Note ON: Time 289680, Note Name: G#5, Velocity: 87
Note OFF: Time 289800, Note Name: G#5
Note OFF: Time 289800, Note Name: G#4
Note ON: Time 289920, Note Name: B4, Velocity: 87
Note ON: Time 289920, Note Name: B5, Velocity: 103
Note OFF: Time 290040, Note Name: B5
Note OFF: Time 290040, Note Name: B4
Note ON: Time 290160, Note Name: B4, Velocity: 73
Note ON: Time 290160, Note Name: B5, Velocity: 87
Note OFF: Time 290280, Note Name: B5
Note OFF: Time 290280, Note Name: B4
Note ON: Time 290400, Note Name: G#4, Velocity: 74
Note ON: Time 290400, Note Name: G#5, Velocity: 88
Note OFF: Time 290520, Note Name: G#5
Note OFF: Time 290520, Note Name: G#4
Note ON: Time 290640, Note Name: E4, Velocity: 73
Note ON: Time 290640, Note Name: E5, Velocity: 87
Note OFF: Time 290760, Note Name: E5
Note OFF: Time 290760, Note Name: E4
Note ON: Time 290880, Note Name: E5, Velocity: 87
Note ON: Time 290880, Note Name: E6, Velocity: 103
Note OFF: Time 291000, Note Name: E6
Note OFF: Time 291000, Note Name: E5
Note ON: Time 291120, Note Name: E5, Velocity: 73
Note ON: Time 291120, Note Name: E6, Velocity: 87
Note OFF: Time 291240, Note Name: E6
Note OFF: Time 291240, Note Name: E5
Note ON: Time 291360, Note Name: B4, Velocity: 73
Note ON: Time 291360, Note Name: B5, Velocity: 87
Note OFF: Time 291480, Note Name: B5
Note OFF: Time 291480, Note Name: B4
Note ON: Time 291600, Note Name: G#4, Velocity: 73
Note ON: Time 291600, Note Name: G#5, Velocity: 87
Note OFF: Time 291720, Note Name: G#5
Note OFF: Time 291720, Note Name: G#4
Note ON: Time 291960, Note Name: G#5, Velocity: 47
Note OFF: Time 292080, Note Name: G#5
Note ON: Time 292080, Note Name: B5, Velocity: 50
Note OFF: Time 292199, Note Name: B5
Note ON: Time 292200, Note Name: G#5, Velocity: 47
Note OFF: Time 292320, Note Name: G#5
Note ON: Time 292320, Note Name: B5, Velocity: 51
Note OFF: Time 292439, Note Name: B5
Note ON: Time 292440, Note Name: G#5, Velocity: 47
Note OFF: Time 292560, Note Name: G#5
Note ON: Time 292560, Note Name: B5, Velocity: 50
Note OFF: Time 292679, Note Name: B5
Note ON: Time 292680, Note Name: G#5, Velocity: 47
Note OFF: Time 292800, Note Name: G#5
Note ON: Time 292800, Note Name: B5, Velocity: 51
Note OFF: Time 292919, Note Name: B5
Note ON: Time 292920, Note Name: G#5, Velocity: 47
Note OFF: Time 293040, Note Name: G#5
Note ON: Time 293040, Note Name: B5, Velocity: 50
Note OFF: Time 293159, Note Name: B5
Note ON: Time 293160, Note Name: G#5, Velocity: 47
Note OFF: Time 293280, Note Name: G#5
Note ON: Time 293280, Note Name: B5, Velocity: 52
Note OFF: Time 293399, Note Name: B5
Note ON: Time 293400, Note Name: G#5, Velocity: 47
Note OFF: Time 293520, Note Name: G#5
Note ON: Time 293520, Note Name: B5, Velocity: 51
Note OFF: Time 293639, Note Name: B5
Note ON: Time 293640, Note Name: G#5, Velocity: 47
Note OFF: Time 293760, Note Name: G#5
Note ON: Time 293760, Note Name: B5, Velocity: 50
Note OFF: Time 293879, Note Name: B5
Note ON: Time 293880, Note Name: G#5, Velocity: 47
Note OFF: Time 294000, Note Name: G#5
Note ON: Time 294000, Note Name: B5, Velocity: 50
Note OFF: Time 294119, Note Name: B5
Note ON: Time 294120, Note Name: G#5, Velocity: 47
Note OFF: Time 294240, Note Name: G#5
Note ON: Time 294240, Note Name: B5, Velocity: 51
Note OFF: Time 294359, Note Name: B5
Note ON: Time 294360, Note Name: G#5, Velocity: 47
Note OFF: Time 294480, Note Name: G#5
Note ON: Time 294480, Note Name: B5, Velocity: 50
Note OFF: Time 294599, Note Name: B5
Note ON: Time 294600, Note Name: G#5, Velocity: 47
Note OFF: Time 294720, Note Name: G#5
Note ON: Time 294720, Note Name: B5, Velocity: 51
Note OFF: Time 294839, Note Name: B5
Note ON: Time 294840, Note Name: G#5, Velocity: 47
Note OFF: Time 294960, Note Name: G#5
Note ON: Time 294960, Note Name: B5, Velocity: 50
Note OFF: Time 295079, Note Name: B5
Note ON: Time 295080, Note Name: G#5, Velocity: 47
Note OFF: Time 295200, Note Name: G#5
Note ON: Time 295200, Note Name: B5, Velocity: 52
Note OFF: Time 295319, Note Name: B5
Note ON: Time 295320, Note Name: G#5, Velocity: 47
Note OFF: Time 295440, Note Name: G#5
Note ON: Time 295440, Note Name: B5, Velocity: 51
Note OFF: Time 295559, Note Name: B5
Note ON: Time 295560, Note Name: G#5, Velocity: 47
Note OFF: Time 295680, Note Name: G#5
Note ON: Time 295800, Note Name: A5, Velocity: 42
Note OFF: Time 295920, Note Name: A5
Note ON: Time 295920, Note Name: B5, Velocity: 45
Note OFF: Time 296039, Note Name: B5
Note ON: Time 296040, Note Name: A5, Velocity: 41
Note OFF: Time 296160, Note Name: A5
Note ON: Time 296160, Note Name: C6, Velocity: 44
Note OFF: Time 296279, Note Name: C6
Note ON: Time 296280, Note Name: A5, Velocity: 40
Note OFF: Time 296400, Note Name: A5
Note ON: Time 296400, Note Name: B5, Velocity: 42
Note OFF: Time 296519, Note Name: B5
Note ON: Time 296520, Note Name: A5, Velocity: 39
Note OFF: Time 296640, Note Name: A5
Note ON: Time 296640, Note Name: C6, Velocity: 42
Note OFF: Time 296759, Note Name: C6
Note ON: Time 296760, Note Name: A5, Velocity: 38
Note OFF: Time 296880, Note Name: A5
Note ON: Time 296880, Note Name: B5, Velocity: 40
Note OFF: Time 296999, Note Name: B5
Note ON: Time 297000, Note Name: A5, Velocity: 37
Note OFF: Time 297120, Note Name: A5
Note ON: Time 297120, Note Name: C6, Velocity: 40
Note OFF: Time 297239, Note Name: C6
Note ON: Time 297240, Note Name: A5, Velocity: 36
Note OFF: Time 297360, Note Name: A5
Note ON: Time 297360, Note Name: B5, Velocity: 39
Note OFF: Time 297479, Note Name: B5
Note ON: Time 297480, Note Name: A5, Velocity: 35
Note OFF: Time 297600, Note Name: A5
Note ON: Time 297600, Note Name: C6, Velocity: 37
Note OFF: Time 297719, Note Name: C6
Note ON: Time 297720, Note Name: A5, Velocity: 34
Note OFF: Time 297840, Note Name: A5
Note ON: Time 297840, Note Name: B5, Velocity: 36
Note OFF: Time 297959, Note Name: B5
Note ON: Time 297960, Note Name: A5, Velocity: 34
Note OFF: Time 298080, Note Name: A5
Note ON: Time 298080, Note Name: C6, Velocity: 37
Note OFF: Time 298199, Note Name: C6
Note ON: Time 298200, Note Name: A5, Velocity: 34
Note OFF: Time 298320, Note Name: A5
Note ON: Time 298320, Note Name: B5, Velocity: 36
Note OFF: Time 298439, Note Name: B5
Note ON: Time 298440, Note Name: A5, Velocity: 34
Note OFF: Time 298560, Note Name: A5
Note ON: Time 298560, Note Name: C6, Velocity: 37
Note OFF: Time 298679, Note Name: C6
Note ON: Time 298680, Note Name: A5, Velocity: 34
Note OFF: Time 298800, Note Name: A5
Note ON: Time 298800, Note Name: B5, Velocity: 36
Note OFF: Time 298919, Note Name: B5
Note ON: Time 298920, Note Name: A5, Velocity: 34
Note OFF: Time 299040, Note Name: A5
Note ON: Time 299040, Note Name: C6, Velocity: 38
Note OFF: Time 299159, Note Name: C6
Note ON: Time 299160, Note Name: A5, Velocity: 34
Note OFF: Time 299280, Note Name: A5
Note ON: Time 299280, Note Name: B5, Velocity: 37
Note OFF: Time 299399, Note Name: B5
Note ON: Time 299400, Note Name: A5, Velocity: 34
Note OFF: Time 299520, Note Name: A5
Note ON: Time 299520, Note Name: C#6, Velocity: 37
Note OFF: Time 299640, Note Name: C#6
Note ON: Time 299640, Note Name: A5, Velocity: 34
Note OFF: Time 299760, Note Name: A5
Note ON: Time 299760, Note Name: B5, Velocity: 36
Note OFF: Time 299880, Note Name: B5
Note ON: Time 299880, Note Name: A5, Velocity: 35
Note OFF: Time 300000, Note Name: A5
Note ON: Time 300000, Note Name: C#6, Velocity: 38
Note OFF: Time 300120, Note Name: C#6
Note ON: Time 300120, Note Name: A5, Velocity: 36
Note OFF: Time 300240, Note Name: A5
Note ON: Time 300240, Note Name: B5, Velocity: 38
Note OFF: Time 300360, Note Name: B5
Note ON: Time 300360, Note Name: A5, Velocity: 36
Note OFF: Time 300480, Note Name: A5
Note ON: Time 300480, Note Name: C#6, Velocity: 40
Note OFF: Time 300600, Note Name: C#6
Note ON: Time 300600, Note Name: A5, Velocity: 37
Note OFF: Time 300720, Note Name: A5
Note ON: Time 300720, Note Name: B5, Velocity: 40
Note OFF: Time 300840, Note Name: B5
Note ON: Time 300840, Note Name: A5, Velocity: 38
Note OFF: Time 300960, Note Name: A5
Note ON: Time 300960, Note Name: C#6, Velocity: 43
Note OFF: Time 301080, Note Name: C#6
Note ON: Time 301080, Note Name: A5, Velocity: 39
Note OFF: Time 301200, Note Name: A5
Note ON: Time 301200, Note Name: B5, Velocity: 43
Note OFF: Time 301320, Note Name: B5
Note ON: Time 301320, Note Name: A5, Velocity: 40
Note OFF: Time 301440, Note Name: A5
Note ON: Time 301440, Note Name: F#6, Velocity: 44
Note OFF: Time 301560, Note Name: F#6
Note ON: Time 301560, Note Name: B5, Velocity: 41
Note ON: Time 301560, Note Name: A5, Velocity: 41
Note OFF: Time 301680, Note Name: A5
Note OFF: Time 301680, Note Name: B5
Note ON: Time 301680, Note Name: F#6, Velocity: 43
Note OFF: Time 301800, Note Name: F#6
Note ON: Time 301800, Note Name: B5, Velocity: 41
Note ON: Time 301800, Note Name: A5, Velocity: 41
Note OFF: Time 301920, Note Name: A5
Note OFF: Time 301920, Note Name: B5
Note ON: Time 301920, Note Name: F#6, Velocity: 46
Note OFF: Time 302040, Note Name: F#6
Note ON: Time 302040, Note Name: B5, Velocity: 42
Note ON: Time 302040, Note Name: A5, Velocity: 42
Note OFF: Time 302160, Note Name: A5
Note OFF: Time 302160, Note Name: B5
Note ON: Time 302160, Note Name: F#6, Velocity: 46
Note OFF: Time 302280, Note Name: F#6
Note ON: Time 302280, Note Name: B5, Velocity: 44
Note ON: Time 302280, Note Name: A5, Velocity: 44
Note OFF: Time 302400, Note Name: A5
Note OFF: Time 302400, Note Name: B5
Note ON: Time 302400, Note Name: F#6, Velocity: 49
Note OFF: Time 302520, Note Name: F#6
Note ON: Time 302520, Note Name: B5, Velocity: 45
Note ON: Time 302520, Note Name: A5, Velocity: 45
Note OFF: Time 302640, Note Name: A5
Note OFF: Time 302640, Note Name: B5
Note ON: Time 302640, Note Name: F#6, Velocity: 49
Note OFF: Time 302760, Note Name: F#6
Note ON: Time 302760, Note Name: B5, Velocity: 47
Note ON: Time 302760, Note Name: A5, Velocity: 47
Note OFF: Time 302880, Note Name: A5
Note OFF: Time 302880, Note Name: B5
Note ON: Time 302880, Note Name: F#6, Velocity: 54
Note OFF: Time 303000, Note Name: F#6
Note ON: Time 303000, Note Name: B5, Velocity: 48
Note ON: Time 303000, Note Name: A5, Velocity: 48
Note OFF: Time 303120, Note Name: A5
Note OFF: Time 303120, Note Name: B5
Note ON: Time 303120, Note Name: F#6, Velocity: 53
Note OFF: Time 303240, Note Name: F#6
Note ON: Time 303240, Note Name: B5, Velocity: 49
Note ON: Time 303240, Note Name: A5, Velocity: 49
Note OFF: Time 303360, Note Name: A5
Note OFF: Time 303360, Note Name: B5
Note ON: Time 303360, Note Name: G#5, Velocity: 72
Note ON: Time 303360, Note Name: B5, Velocity: 72
Note ON: Time 303360, Note Name: E6, Velocity: 72
Note OFF: Time 304800, Note Name: E6
Note OFF: Time 304800, Note Name: B5
Note OFF: Time 304800, Note Name: G#5
Note ON: Time 304800, Note Name: E6, Velocity: 58
Note OFF: Time 304920, Note Name: E6
Note ON: Time 304920, Note Name: D6, Velocity: 57
Note OFF: Time 305040, Note Name: D6
Note ON: Time 305040, Note Name: C6, Velocity: 56
Note OFF: Time 305160, Note Name: C6
Note ON: Time 305160, Note Name: B5, Velocity: 55
Note OFF: Time 305280, Note Name: B5
Note ON: Time 305280, Note Name: C6, Velocity: 58
Note OFF: Time 305400, Note Name: C6
Note ON: Time 305400, Note Name: B5, Velocity: 57
Note OFF: Time 305520, Note Name: B5
Note ON: Time 305520, Note Name: A5, Velocity: 56
Note OFF: Time 305640, Note Name: A5
Note ON: Time 305640, Note Name: G#5, Velocity: 55
Note OFF: Time 305760, Note Name: G#5
Note ON: Time 305760, Note Name: A5, Velocity: 51
Note OFF: Time 305880, Note Name: A5
Note ON: Time 305880, Note Name: B5, Velocity: 52
Note OFF: Time 306000, Note Name: B5
Note ON: Time 306000, Note Name: C6, Velocity: 53
Note OFF: Time 306120, Note Name: C6
Note ON: Time 306120, Note Name: D6, Velocity: 54
Note OFF: Time 306240, Note Name: D6
Note ON: Time 306240, Note Name: E6, Velocity: 56
Note OFF: Time 306360, Note Name: E6
Note ON: Time 306360, Note Name: F6, Velocity: 57
Note OFF: Time 306480, Note Name: F6
Note ON: Time 306480, Note Name: E6, Velocity: 57
Note OFF: Time 306600, Note Name: E6
Note ON: Time 306600, Note Name: D#6, Velocity: 56
Note OFF: Time 306720, Note Name: D#6
Note ON: Time 306720, Note Name: E6, Velocity: 56
Note OFF: Time 306840, Note Name: E6
Note ON: Time 306840, Note Name: D6, Velocity: 56
Note OFF: Time 306960, Note Name: D6
Note ON: Time 306960, Note Name: C6, Velocity: 56
Note OFF: Time 307080, Note Name: C6
Note ON: Time 307080, Note Name: B5, Velocity: 56
Note OFF: Time 307200, Note Name: B5
Note ON: Time 307200, Note Name: C6, Velocity: 57
Note OFF: Time 307320, Note Name: C6
Note ON: Time 307320, Note Name: D6, Velocity: 57
Note OFF: Time 307440, Note Name: D6
Note ON: Time 307440, Note Name: C6, Velocity: 57
Note OFF: Time 307560, Note Name: C6
Note ON: Time 307560, Note Name: B5, Velocity: 53
Note OFF: Time 307680, Note Name: B5
Note ON: Time 307680, Note Name: A5, Velocity: 56
Note OFF: Time 307800, Note Name: A5
Note ON: Time 307800, Note Name: G#5, Velocity: 52
Note OFF: Time 307920, Note Name: G#5
Note ON: Time 307920, Note Name: A5, Velocity: 56
Note OFF: Time 308040, Note Name: A5
Note ON: Time 308040, Note Name: B5, Velocity: 52
Note OFF: Time 308160, Note Name: B5
Note ON: Time 308160, Note Name: C5, Velocity: 45
Note ON: Time 308160, Note Name: C6, Velocity: 59
Note OFF: Time 308640, Note Name: C6
Note ON: Time 308640, Note Name: A5, Velocity: 52
Note OFF: Time 308880, Note Name: A5
Note ON: Time 308880, Note Name: F#5, Velocity: 52
Note OFF: Time 309120, Note Name: F#5
Note OFF: Time 309120, Note Name: C5
Note ON: Time 309120, Note Name: B4, Velocity: 45
Note ON: Time 309120, Note Name: B5, Velocity: 57
Note OFF: Time 309600, Note Name: B5
Note ON: Time 309600, Note Name: G5, Velocity: 52
Note OFF: Time 309840, Note Name: G5
Note ON: Time 309840, Note Name: E5, Velocity: 52
Note OFF: Time 310080, Note Name: E5
Note OFF: Time 310080, Note Name: B4
Note ON: Time 310080, Note Name: A4, Velocity: 45
Note ON: Time 310080, Note Name: A5, Velocity: 57
Note OFF: Time 310560, Note Name: A5
Note ON: Time 310560, Note Name: F#5, Velocity: 52
Note OFF: Time 310800, Note Name: F#5
Note ON: Time 310800, Note Name: D#5, Velocity: 52
Note OFF: Time 311040, Note Name: D#5
Note OFF: Time 311040, Note Name: A4
Note ON: Time 311040, Note Name: E5, Velocity: 72
Note OFF: Time 312480, Note Name: E5
Note ON: Time 312480, Note Name: E5, Velocity: 58
Note OFF: Time 312600, Note Name: E5
Note ON: Time 312600, Note Name: D5, Velocity: 57
Note OFF: Time 312720, Note Name: D5
Note ON: Time 312720, Note Name: C5, Velocity: 56
Note OFF: Time 312840, Note Name: C5
Note ON: Time 312840, Note Name: B4, Velocity: 55
Note OFF: Time 312960, Note Name: B4
Note ON: Time 312960, Note Name: C5, Velocity: 58
Note OFF: Time 313080, Note Name: C5
Note ON: Time 313080, Note Name: B4, Velocity: 57
Note OFF: Time 313200, Note Name: B4
Note ON: Time 313200, Note Name: A4, Velocity: 56
Note OFF: Time 313320, Note Name: A4
Note ON: Time 313320, Note Name: G#4, Velocity: 55
Note OFF: Time 313440, Note Name: G#4
Note ON: Time 313440, Note Name: A4, Velocity: 51
Note OFF: Time 313560, Note Name: A4
Note ON: Time 313560, Note Name: B4, Velocity: 52
Note OFF: Time 313680, Note Name: B4
Note ON: Time 313680, Note Name: C5, Velocity: 53
Note OFF: Time 313800, Note Name: C5
Note ON: Time 313800, Note Name: D5, Velocity: 54
Note OFF: Time 313920, Note Name: D5
Note ON: Time 313920, Note Name: E5, Velocity: 56
Note OFF: Time 314040, Note Name: E5
Note ON: Time 314040, Note Name: F5, Velocity: 57
Note OFF: Time 314160, Note Name: F5
Note ON: Time 314160, Note Name: E5, Velocity: 57
Note OFF: Time 314280, Note Name: E5
Note ON: Time 314280, Note Name: D#5, Velocity: 56
Note OFF: Time 314400, Note Name: D#5
Note ON: Time 314400, Note Name: E5, Velocity: 56
Note OFF: Time 314520, Note Name: E5
Note ON: Time 314520, Note Name: D5, Velocity: 56
Note OFF: Time 314640, Note Name: D5
Note ON: Time 314640, Note Name: C5, Velocity: 56
Note OFF: Time 314760, Note Name: C5
Note ON: Time 314760, Note Name: B4, Velocity: 56
Note OFF: Time 314880, Note Name: B4
Note ON: Time 314880, Note Name: C5, Velocity: 57
Note OFF: Time 315000, Note Name: C5
Note ON: Time 315000, Note Name: D5, Velocity: 57
Note OFF: Time 315120, Note Name: D5
Note ON: Time 315120, Note Name: C5, Velocity: 57
Note OFF: Time 315240, Note Name: C5
Note ON: Time 315240, Note Name: B4, Velocity: 53
Note OFF: Time 315360, Note Name: B4
Note ON: Time 315360, Note Name: A4, Velocity: 56
Note OFF: Time 315480, Note Name: A4
Note ON: Time 315480, Note Name: G#4, Velocity: 52
Note OFF: Time 315600, Note Name: G#4
Note ON: Time 315600, Note Name: A4, Velocity: 56
Note OFF: Time 315720, Note Name: A4
Note ON: Time 315720, Note Name: B4, Velocity: 52
Note OFF: Time 315840, Note Name: B4
Note ON: Time 315840, Note Name: C4, Velocity: 45
Note ON: Time 315840, Note Name: C5, Velocity: 59
Note OFF: Time 316320, Note Name: C5
Note ON: Time 316320, Note Name: A4, Velocity: 52
Note OFF: Time 316560, Note Name: A4
Note ON: Time 316560, Note Name: F#4, Velocity: 52
Note OFF: Time 316800, Note Name: F#4
Note OFF: Time 316800, Note Name: C4
Note ON: Time 316800, Note Name: B3, Velocity: 45
Note ON: Time 316800, Note Name: B4, Velocity: 57
Note OFF: Time 317280, Note Name: B4
Note ON: Time 317280, Note Name: G4, Velocity: 52
Note OFF: Time 317520, Note Name: G4
Note ON: Time 317520, Note Name: E4, Velocity: 52
Note OFF: Time 317760, Note Name: E4
Note OFF: Time 317760, Note Name: B3
Note ON: Time 317760, Note Name: A3, Velocity: 45
Note ON: Time 317760, Note Name: A4, Velocity: 57
Note OFF: Time 318240, Note Name: A4
Note ON: Time 318240, Note Name: F#4, Velocity: 52
Note OFF: Time 318480, Note Name: F#4
Note ON: Time 318480, Note Name: D#4, Velocity: 52
Note OFF: Time 318720, Note Name: D#4
Note OFF: Time 318720, Note Name: A3
Note ON: Time 318720, Note Name: E4, Velocity: 55
Note OFF: Time 318960, Note Name: E4
Note ON: Time 319200, Note Name: E5, Velocity: 68
Note OFF: Time 319440, Note Name: E5
Note ON: Time 319440, Note Name: D5, Velocity: 63
Note OFF: Time 319680, Note Name: D5
Note ON: Time 319680, Note Name: C5, Velocity: 66
Note OFF: Time 320160, Note Name: C5
Note ON: Time 320160, Note Name: A4, Velocity: 61
Note OFF: Time 320400, Note Name: A4
Note ON: Time 320400, Note Name: F4, Velocity: 54
Note OFF: Time 320640, Note Name: F4
Note ON: Time 320640, Note Name: B4, Velocity: 51
Note OFF: Time 321120, Note Name: B4
Note ON: Time 321120, Note Name: G4, Velocity: 46
Note OFF: Time 321360, Note Name: G4
Note ON: Time 321360, Note Name: E4, Velocity: 46
Note OFF: Time 321600, Note Name: E4
Note ON: Time 321600, Note Name: A4, Velocity: 51
Note OFF: Time 322080, Note Name: A4
Note ON: Time 322080, Note Name: F#4, Velocity: 46
Note OFF: Time 322320, Note Name: F#4
Note ON: Time 322320, Note Name: D#4, Velocity: 46
Note OFF: Time 322560, Note Name: D#4
Note ON: Time 322560, Note Name: E4, Velocity: 55
Note OFF: Time 322800, Note Name: E4
Note ON: Time 323040, Note Name: C5, Velocity: 67
Note OFF: Time 323280, Note Name: C5
Note ON: Time 323280, Note Name: B4, Velocity: 63
Note OFF: Time 323520, Note Name: B4
Note ON: Time 323520, Note Name: A4, Velocity: 66
Note OFF: Time 324000, Note Name: A4
Note ON: Time 324000, Note Name: F4, Velocity: 61
Note OFF: Time 324240, Note Name: F4
Note ON: Time 324240, Note Name: D4, Velocity: 54
Note OFF: Time 324480, Note Name: D4
Note ON: Time 324480, Note Name: G4, Velocity: 51
Note OFF: Time 324960, Note Name: G4
Note ON: Time 324960, Note Name: E4, Velocity: 46
Note OFF: Time 325200, Note Name: E4
Note ON: Time 325200, Note Name: C4, Velocity: 46
Note OFF: Time 325440, Note Name: C4
Note ON: Time 325440, Note Name: F4, Velocity: 51
Note OFF: Time 325920, Note Name: F4
Note ON: Time 325920, Note Name: D4, Velocity: 46
Note OFF: Time 326160, Note Name: D4
Note ON: Time 326160, Note Name: B3, Velocity: 46
Note OFF: Time 326400, Note Name: B3
Note ON: Time 326400, Note Name: C4, Velocity: 55
Note OFF: Time 326880, Note Name: C4
Note ON: Time 326880, Note Name: F5, Velocity: 69
Note OFF: Time 327120, Note Name: F5
Note ON: Time 327120, Note Name: E5, Velocity: 64
Note OFF: Time 327360, Note Name: E5
Note ON: Time 327360, Note Name: D5, Velocity: 66
Note OFF: Time 327840, Note Name: D5
Note ON: Time 327840, Note Name: A#4, Velocity: 61
Note OFF: Time 328080, Note Name: A#4
Note ON: Time 328080, Note Name: G4, Velocity: 54
Note OFF: Time 328320, Note Name: G4
Note ON: Time 328320, Note Name: C5, Velocity: 51
Note OFF: Time 328800, Note Name: C5
Note ON: Time 328800, Note Name: A4, Velocity: 46
Note OFF: Time 329040, Note Name: A4
Note ON: Time 329040, Note Name: F4, Velocity: 46
Note OFF: Time 329280, Note Name: F4
Note ON: Time 329280, Note Name: A#4, Velocity: 51
Note OFF: Time 329760, Note Name: A#4
Note ON: Time 329760, Note Name: G4, Velocity: 46
Note OFF: Time 330000, Note Name: G4
Note ON: Time 330000, Note Name: E4, Velocity: 46
Note OFF: Time 330240, Note Name: E4
Note ON: Time 330240, Note Name: F4, Velocity: 55
Note OFF: Time 330480, Note Name: F4
Note ON: Time 330720, Note Name: F4, Velocity: 68
Note OFF: Time 330960, Note Name: F4
Note ON: Time 330960, Note Name: E4, Velocity: 63
Note OFF: Time 331200, Note Name: E4
Note ON: Time 331200, Note Name: D4, Velocity: 66
Note OFF: Time 331680, Note Name: D4
Note ON: Time 331680, Note Name: A#3, Velocity: 61
Note OFF: Time 331920, Note Name: A#3
Note ON: Time 331920, Note Name: G3, Velocity: 54
Note OFF: Time 332160, Note Name: G3
Note ON: Time 332160, Note Name: C4, Velocity: 51
Note OFF: Time 332640, Note Name: C4
Note ON: Time 332640, Note Name: A3, Velocity: 46
Note OFF: Time 332880, Note Name: A3
Note ON: Time 332880, Note Name: F3, Velocity: 46
Note OFF: Time 333120, Note Name: F3
Note ON: Time 333120, Note Name: A#3, Velocity: 51
Note OFF: Time 333600, Note Name: A#3
Note ON: Time 333600, Note Name: G3, Velocity: 46
Note OFF: Time 333840, Note Name: G3
Note ON: Time 333840, Note Name: E3, Velocity: 46
Note OFF: Time 334080, Note Name: E3
Note ON: Time 334080, Note Name: A2, Velocity: 33
Note ON: Time 334080, Note Name: F3, Velocity: 40
Note OFF: Time 334200, Note Name: A2
Note OFF: Time 334320, Note Name: F3
Note ON: Time 334320, Note Name: F2, Velocity: 28
Note ON: Time 334320, Note Name: A2, Velocity: 33
Note OFF: Time 334440, Note Name: A2
Note OFF: Time 334440, Note Name: F2
Note ON: Time 334560, Note Name: F2, Velocity: 28
Note ON: Time 334560, Note Name: A2, Velocity: 33
Note OFF: Time 334680, Note Name: A2
Note OFF: Time 334680, Note Name: F2
Note ON: Time 334800, Note Name: F2, Velocity: 28
Note ON: Time 334800, Note Name: A2, Velocity: 34
Note OFF: Time 334920, Note Name: A2
Note OFF: Time 334920, Note Name: F2
Note ON: Time 335040, Note Name: F2, Velocity: 28
Note ON: Time 335040, Note Name: A2, Velocity: 34
Note OFF: Time 335160, Note Name: A2
Note OFF: Time 335160, Note Name: F2
Note ON: Time 335280, Note Name: F2, Velocity: 28
Note ON: Time 335280, Note Name: A2, Velocity: 34
Note OFF: Time 335400, Note Name: A2
Note OFF: Time 335400, Note Name: F2
Note ON: Time 335520, Note Name: F2, Velocity: 29
Note ON: Time 335520, Note Name: A2, Velocity: 35
Note OFF: Time 335640, Note Name: A2
Note OFF: Time 335640, Note Name: F2
Note ON: Time 335760, Note Name: F2, Velocity: 29
Note ON: Time 335760, Note Name: A2, Velocity: 35
Note OFF: Time 335880, Note Name: A2
Note OFF: Time 335880, Note Name: F2
Note ON: Time 336000, Note Name: F2, Velocity: 30
Note ON: Time 336000, Note Name: A2, Velocity: 36
Note OFF: Time 336120, Note Name: A2
Note OFF: Time 336120, Note Name: F2
Note ON: Time 336240, Note Name: F2, Velocity: 30
Note ON: Time 336240, Note Name: A2, Velocity: 36
Note OFF: Time 336360, Note Name: A2
Note OFF: Time 336360, Note Name: F2
Note ON: Time 336480, Note Name: F2, Velocity: 31
Note ON: Time 336480, Note Name: A2, Velocity: 37
Note OFF: Time 336600, Note Name: A2
Note OFF: Time 336600, Note Name: F2
Note ON: Time 336720, Note Name: F2, Velocity: 32
Note ON: Time 336720, Note Name: A2, Velocity: 38
Note OFF: Time 336840, Note Name: A2
Note OFF: Time 336840, Note Name: F2
Note ON: Time 336960, Note Name: F2, Velocity: 33
Note ON: Time 336960, Note Name: A2, Velocity: 39
Note OFF: Time 337080, Note Name: A2
Note OFF: Time 337080, Note Name: F2
Note ON: Time 337200, Note Name: F2, Velocity: 34
Note ON: Time 337200, Note Name: A2, Velocity: 40
Note OFF: Time 337320, Note Name: A2
Note OFF: Time 337320, Note Name: F2
Note ON: Time 337440, Note Name: G2, Velocity: 34
Note ON: Time 337440, Note Name: B2, Velocity: 40
Note OFF: Time 337560, Note Name: B2
Note OFF: Time 337560, Note Name: G2
Note ON: Time 337680, Note Name: G2, Velocity: 34
Note ON: Time 337680, Note Name: B2, Velocity: 40
Note OFF: Time 337800, Note Name: B2
Note OFF: Time 337800, Note Name: G2
Note ON: Time 337920, Note Name: C3, Velocity: 46
Note OFF: Time 338640, Note Name: C3
Note ON: Time 338640, Note Name: E3, Velocity: 40
Note OFF: Time 338760, Note Name: E3
Note ON: Time 338760, Note Name: D3, Velocity: 40
Note OFF: Time 338880, Note Name: D3
Note ON: Time 338880, Note Name: C3, Velocity: 45
Note OFF: Time 339000, Note Name: C3
Note ON: Time 339780, Note Name: F#5, Velocity: 46
Note OFF: Time 339840, Note Name: F#5
Note ON: Time 339840, Note Name: G5, Velocity: 57
Note OFF: Time 340440, Note Name: G5
Note ON: Time 340440, Note Name: F5, Velocity: 48
Note OFF: Time 340560, Note Name: F5
Note ON: Time 340560, Note Name: D#5, Velocity: 47
Note OFF: Time 340680, Note Name: D#5
Note ON: Time 340680, Note Name: D5, Velocity: 45
Note OFF: Time 340800, Note Name: D5
Note ON: Time 340800, Note Name: C5, Velocity: 44
Note OFF: Time 341040, Note Name: C5
Note ON: Time 341760, Note Name: F#3, Velocity: 46
Note OFF: Time 342480, Note Name: F#3
Note ON: Time 342480, Note Name: A3, Velocity: 40
Note OFF: Time 342600, Note Name: A3
Note ON: Time 342600, Note Name: G3, Velocity: 40
Note OFF: Time 342720, Note Name: G3
Note ON: Time 342720, Note Name: F#3, Velocity: 45
Note OFF: Time 342840, Note Name: F#3
Note ON: Time 343620, Note Name: D6, Velocity: 46
Note OFF: Time 343680, Note Name: D6
Note ON: Time 343680, Note Name: D#6, Velocity: 57
Note OFF: Time 344280, Note Name: D#6
Note ON: Time 344280, Note Name: D6, Velocity: 48
Note OFF: Time 344400, Note Name: D6
Note ON: Time 344400, Note Name: C6, Velocity: 47
Note OFF: Time 344520, Note Name: C6
Note ON: Time 344520, Note Name: A#5, Velocity: 45
Note OFF: Time 344640, Note Name: A#5
Note ON: Time 344640, Note Name: A5, Velocity: 44
Note OFF: Time 344880, Note Name: A5
Note ON: Time 345600, Note Name: A#3, Velocity: 57
Note OFF: Time 345840, Note Name: A#3
Note ON: Time 345840, Note Name: D4, Velocity: 48
Note OFF: Time 345960, Note Name: D4
Note ON: Time 345960, Note Name: C4, Velocity: 48
Note OFF: Time 346080, Note Name: C4
Note ON: Time 346080, Note Name: A#3, Velocity: 51
Note OFF: Time 346320, Note Name: A#3
Note ON: Time 346560, Note Name: C6, Velocity: 54
Note OFF: Time 346680, Note Name: C6
Note ON: Time 346680, Note Name: A#5, Velocity: 52
Note OFF: Time 346800, Note Name: A#5
Note ON: Time 346800, Note Name: A5, Velocity: 50
Note OFF: Time 346920, Note Name: A5
Note ON: Time 346920, Note Name: G5, Velocity: 48
Note OFF: Time 347040, Note Name: G5
Note ON: Time 347040, Note Name: F#5, Velocity: 51
Note OFF: Time 347280, Note Name: F#5
Note ON: Time 347520, Note Name: G4, Velocity: 57
Note OFF: Time 347760, Note Name: G4
Note ON: Time 347760, Note Name: A#4, Velocity: 48
Note OFF: Time 347880, Note Name: A#4
Note ON: Time 347880, Note Name: A4, Velocity: 48
Note OFF: Time 348000, Note Name: A4
Note ON: Time 348000, Note Name: G4, Velocity: 51
Note OFF: Time 348240, Note Name: G4
Note ON: Time 348480, Note Name: D#6, Velocity: 54
Note OFF: Time 348600, Note Name: D#6
Note ON: Time 348600, Note Name: D6, Velocity: 52
Note OFF: Time 348720, Note Name: D6
Note ON: Time 348720, Note Name: C6, Velocity: 50
Note OFF: Time 348840, Note Name: C6
Note ON: Time 348840, Note Name: A#5, Velocity: 48
Note OFF: Time 348960, Note Name: A#5
Note ON: Time 348960, Note Name: A5, Velocity: 51
Note OFF: Time 349200, Note Name: A5
Note ON: Time 349440, Note Name: A#3, Velocity: 59
Note OFF: Time 349680, Note Name: A#3
Note ON: Time 349680, Note Name: D4, Velocity: 50
Note OFF: Time 349800, Note Name: D4
Note ON: Time 349800, Note Name: C4, Velocity: 51
Note OFF: Time 349920, Note Name: C4
Note ON: Time 349920, Note Name: A#3, Velocity: 56
Note OFF: Time 350160, Note Name: A#3
Note ON: Time 350400, Note Name: C6, Velocity: 63
Note OFF: Time 350520, Note Name: C6
Note ON: Time 350520, Note Name: A#5, Velocity: 63
Note OFF: Time 350640, Note Name: A#5
Note ON: Time 350640, Note Name: A5, Velocity: 62
Note OFF: Time 350760, Note Name: A5
Note ON: Time 350760, Note Name: G5, Velocity: 60
Note OFF: Time 350880, Note Name: G5
Note ON: Time 350880, Note Name: F#5, Velocity: 64
Note OFF: Time 351120, Note Name: F#5
Note ON: Time 351360, Note Name: D5, Velocity: 73
Note OFF: Time 351480, Note Name: D5
Note ON: Time 351480, Note Name: C5, Velocity: 71
Note OFF: Time 351600, Note Name: C5
Note ON: Time 351600, Note Name: A#4, Velocity: 71
Note OFF: Time 351720, Note Name: A#4
Note ON: Time 351720, Note Name: A4, Velocity: 67
Note OFF: Time 351840, Note Name: A4
Note ON: Time 351840, Note Name: G4, Velocity: 74
Note OFF: Time 352080, Note Name: G4
Note ON: Time 352320, Note Name: G#5, Velocity: 87
Note OFF: Time 352440, Note Name: G#5
Note ON: Time 352440, Note Name: G5, Velocity: 83
Note OFF: Time 352560, Note Name: G5
Note ON: Time 352560, Note Name: F5, Velocity: 81
Note OFF: Time 352680, Note Name: F5
Note ON: Time 352680, Note Name: D#5, Velocity: 78
Note OFF: Time 352800, Note Name: D#5
Note ON: Time 352800, Note Name: D5, Velocity: 83
Note OFF: Time 353040, Note Name: D5
Note ON: Time 353280, Note Name: D#4, Velocity: 57
Note OFF: Time 353520, Note Name: D#4
Note ON: Time 353520, Note Name: G4, Velocity: 48
Note OFF: Time 353640, Note Name: G4
Note ON: Time 353640, Note Name: F4, Velocity: 48
Note OFF: Time 353760, Note Name: F4
Note ON: Time 353760, Note Name: D#4, Velocity: 51
Note OFF: Time 354000, Note Name: D#4
Note ON: Time 354240, Note Name: F5, Velocity: 54
Note OFF: Time 354360, Note Name: F5
Note ON: Time 354360, Note Name: D#5, Velocity: 52
Note OFF: Time 354480, Note Name: D#5
Note ON: Time 354480, Note Name: D5, Velocity: 50
Note OFF: Time 354600, Note Name: D5
Note ON: Time 354600, Note Name: C5, Velocity: 48
Note OFF: Time 354720, Note Name: C5
Note ON: Time 354720, Note Name: B4, Velocity: 51
Note OFF: Time 354960, Note Name: B4
Note ON: Time 355200, Note Name: C4, Velocity: 57
Note OFF: Time 355440, Note Name: C4
Note ON: Time 355440, Note Name: D#4, Velocity: 48
Note OFF: Time 355560, Note Name: D#4
Note ON: Time 355560, Note Name: D4, Velocity: 48
Note OFF: Time 355680, Note Name: D4
Note ON: Time 355680, Note Name: C4, Velocity: 51
Note OFF: Time 355920, Note Name: C4
Note ON: Time 356160, Note Name: G#5, Velocity: 54
Note OFF: Time 356280, Note Name: G#5
Note ON: Time 356280, Note Name: G5, Velocity: 52
Note OFF: Time 356400, Note Name: G5
Note ON: Time 356400, Note Name: F5, Velocity: 50
Note OFF: Time 356520, Note Name: F5
Note ON: Time 356520, Note Name: D#5, Velocity: 48
Note OFF: Time 356640, Note Name: D#5
Note ON: Time 356640, Note Name: D5, Velocity: 51
Note OFF: Time 356880, Note Name: D5
Note ON: Time 357120, Note Name: D#4, Velocity: 59
Note OFF: Time 357360, Note Name: D#4
Note ON: Time 357360, Note Name: G4, Velocity: 50
Note OFF: Time 357480, Note Name: G4
Note ON: Time 357480, Note Name: F4, Velocity: 51
Note OFF: Time 357600, Note Name: F4
Note ON: Time 357600, Note Name: D#4, Velocity: 56
Note OFF: Time 357840, Note Name: D#4
Note ON: Time 358080, Note Name: F5, Velocity: 63
Note OFF: Time 358200, Note Name: F5
Note ON: Time 358200, Note Name: D#5, Velocity: 63
Note OFF: Time 358320, Note Name: D#5
Note ON: Time 358320, Note Name: D5, Velocity: 62
Note OFF: Time 358440, Note Name: D5
Note ON: Time 358440, Note Name: C5, Velocity: 60
Note OFF: Time 358560, Note Name: C5
Note ON: Time 358560, Note Name: B4, Velocity: 64
Note OFF: Time 358800, Note Name: B4
Note ON: Time 359040, Note Name: G5, Velocity: 73
Note OFF: Time 359160, Note Name: G5
Note ON: Time 359160, Note Name: F5, Velocity: 71
Note OFF: Time 359280, Note Name: F5
Note ON: Time 359280, Note Name: D#5, Velocity: 71
Note OFF: Time 359400, Note Name: D#5
Note ON: Time 359400, Note Name: D5, Velocity: 67
Note OFF: Time 359520, Note Name: D5
Note ON: Time 359520, Note Name: C5, Velocity: 74
Note OFF: Time 359760, Note Name: C5
Note ON: Time 360000, Note Name: C#6, Velocity: 87
Note OFF: Time 360120, Note Name: C#6
Note ON: Time 360120, Note Name: C6, Velocity: 83
Note OFF: Time 360240, Note Name: C6
Note ON: Time 360240, Note Name: A#5, Velocity: 81
Note OFF: Time 360360, Note Name: A#5
Note ON: Time 360360, Note Name: G#5, Velocity: 78
Note OFF: Time 360480, Note Name: G#5
Note ON: Time 360480, Note Name: G5, Velocity: 83
Note OFF: Time 360720, Note Name: G5
Note ON: Time 360960, Note Name: G#5, Velocity: 48
Note OFF: Time 361200, Note Name: G#5
Note ON: Time 361200, Note Name: C6, Velocity: 40
Note OFF: Time 361320, Note Name: C6
Note ON: Time 361320, Note Name: A#5, Velocity: 40
Note OFF: Time 361440, Note Name: A#5
Note ON: Time 361440, Note Name: G#5, Velocity: 43
Note OFF: Time 361680, Note Name: G#5
Note ON: Time 361920, Note Name: C#6, Velocity: 48
Note OFF: Time 362160, Note Name: C#6
Note ON: Time 362160, Note Name: F6, Velocity: 40
Note OFF: Time 362280, Note Name: F6
Note ON: Time 362280, Note Name: D#6, Velocity: 40
Note OFF: Time 362400, Note Name: D#6
Note ON: Time 362400, Note Name: C#6, Velocity: 43
Note OFF: Time 362640, Note Name: C#6
Note ON: Time 362880, Note Name: F#4, Velocity: 40
Note OFF: Time 363120, Note Name: F#4
Note ON: Time 363120, Note Name: A#4, Velocity: 34
Note OFF: Time 363240, Note Name: A#4
Note ON: Time 363240, Note Name: G#4, Velocity: 34
Note OFF: Time 363360, Note Name: G#4
Note ON: Time 363360, Note Name: F#4, Velocity: 36
Note OFF: Time 363600, Note Name: F#4
Note ON: Time 363840, Note Name: B4, Velocity: 40
Note OFF: Time 364800, Note Name: B4
Note ON: Time 364800, Note Name: F5, Velocity: 48
Note OFF: Time 365040, Note Name: F5
Note ON: Time 365040, Note Name: A5, Velocity: 40
Note OFF: Time 365160, Note Name: A5
Note ON: Time 365160, Note Name: G5, Velocity: 40
Note OFF: Time 365280, Note Name: G5
Note ON: Time 365280, Note Name: F5, Velocity: 43
Note OFF: Time 365520, Note Name: F5
Note ON: Time 365760, Note Name: A#5, Velocity: 48
Note OFF: Time 366000, Note Name: A#5
Note ON: Time 366000, Note Name: C#6, Velocity: 40
Note OFF: Time 366120, Note Name: C#6
Note ON: Time 366120, Note Name: C6, Velocity: 40
Note OFF: Time 366240, Note Name: C6
Note ON: Time 366240, Note Name: A#5, Velocity: 43
Note OFF: Time 366480, Note Name: A#5
Note ON: Time 366720, Note Name: D#4, Velocity: 40
Note OFF: Time 366960, Note Name: D#4
Note ON: Time 366960, Note Name: G4, Velocity: 34
Note OFF: Time 367080, Note Name: G4
Note ON: Time 367080, Note Name: F4, Velocity: 34
Note OFF: Time 367200, Note Name: F4
Note ON: Time 367200, Note Name: D#4, Velocity: 36
Note OFF: Time 367440, Note Name: D#4
Note ON: Time 367680, Note Name: G#4, Velocity: 40
Note OFF: Time 368640, Note Name: G#4
Note ON: Time 368640, Note Name: C#5, Velocity: 48
Note OFF: Time 368880, Note Name: C#5
Note ON: Time 368880, Note Name: F5, Velocity: 40
Note OFF: Time 369000, Note Name: F5
Note ON: Time 369000, Note Name: D#5, Velocity: 40
Note OFF: Time 369120, Note Name: D#5
Note ON: Time 369120, Note Name: C#5, Velocity: 43
Note OFF: Time 369360, Note Name: C#5
Note ON: Time 369600, Note Name: F#5, Velocity: 48
Note OFF: Time 369840, Note Name: F#5
Note ON: Time 369840, Note Name: A#5, Velocity: 40
Note OFF: Time 369960, Note Name: A#5
Note ON: Time 369960, Note Name: G#5, Velocity: 40
Note OFF: Time 370080, Note Name: G#5
Note ON: Time 370080, Note Name: F#5, Velocity: 43
Note OFF: Time 370320, Note Name: F#5
Note ON: Time 370560, Note Name: C4, Velocity: 42
Note OFF: Time 370800, Note Name: C4
Note ON: Time 370800, Note Name: E4, Velocity: 35
Note OFF: Time 370920, Note Name: E4
Note ON: Time 370920, Note Name: D4, Velocity: 35
Note OFF: Time 371040, Note Name: D4
Note ON: Time 371040, Note Name: C4, Velocity: 38
Note OFF: Time 371280, Note Name: C4
Note ON: Time 371520, Note Name: C5, Velocity: 42
Note OFF: Time 372480, Note Name: C5
Note ON: Time 372480, Note Name: C5, Velocity: 59
Note OFF: Time 372720, Note Name: C5
Note ON: Time 372720, Note Name: E5, Velocity: 52
Note OFF: Time 372840, Note Name: E5
Note ON: Time 372840, Note Name: D5, Velocity: 52
Note OFF: Time 372960, Note Name: D5
Note ON: Time 372960, Note Name: C5, Velocity: 56
Note OFF: Time 373200, Note Name: C5
Note ON: Time 373440, Note Name: C6, Velocity: 69
Note OFF: Time 374400, Note Name: C6
Note ON: Time 374400, Note Name: C6, Velocity: 68
Note OFF: Time 374640, Note Name: C6
Note ON: Time 374640, Note Name: E6, Velocity: 70
Note OFF: Time 374760, Note Name: E6
Note ON: Time 374760, Note Name: D6, Velocity: 71
Note OFF: Time 374880, Note Name: D6
Note ON: Time 374880, Note Name: C6, Velocity: 73
Note OFF: Time 375000, Note Name: C6
Note ON: Time 375120, Note Name: C6, Velocity: 77
Note OFF: Time 375240, Note Name: C6
Note ON: Time 375360, Note Name: C6, Velocity: 81
Note OFF: Time 375480, Note Name: C6
Note ON: Time 375600, Note Name: C6, Velocity: 83
Note OFF: Time 375840, Note Name: C6
Note ON: Time 375840, Note Name: F6, Velocity: 86
Note OFF: Time 376080, Note Name: F6
Note ON: Time 376080, Note Name: B5, Velocity: 90
Note OFF: Time 376320, Note Name: B5
Note ON: Time 376320, Note Name: C6, Velocity: 93
Note OFF: Time 376800, Note Name: C6
Note ON: Time 376800, Note Name: G4, Velocity: 75
Note OFF: Time 377760, Note Name: G4
Note ON: Time 377760, Note Name: G4, Velocity: 75
Note OFF: Time 378240, Note Name: G4
Note ON: Time 378240, Note Name: C5, Velocity: 82
Note OFF: Time 378400, Note Name: C5
Note ON: Time 378400, Note Name: G4, Velocity: 74
Note OFF: Time 378560, Note Name: G4
Note ON: Time 378560, Note Name: E4, Velocity: 74
Note OFF: Time 378720, Note Name: E4
Note ON: Time 378720, Note Name: G4, Velocity: 82
Note OFF: Time 378880, Note Name: G4
Note ON: Time 378880, Note Name: C5, Velocity: 74
Note OFF: Time 379040, Note Name: C5
Note ON: Time 379040, Note Name: E5, Velocity: 73
Note OFF: Time 379200, Note Name: E5
Note ON: Time 379200, Note Name: D5, Velocity: 82
Note OFF: Time 379360, Note Name: D5
Note ON: Time 379360, Note Name: B4, Velocity: 74
Note OFF: Time 379520, Note Name: B4
Note ON: Time 379520, Note Name: G#4, Velocity: 74
Note OFF: Time 379680, Note Name: G#4
Note ON: Time 379680, Note Name: B4, Velocity: 82
Note OFF: Time 379840, Note Name: B4
Note ON: Time 379840, Note Name: D5, Velocity: 75
Note OFF: Time 380000, Note Name: D5
Note ON: Time 380000, Note Name: F5, Velocity: 75
Note OFF: Time 380160, Note Name: F5
Note ON: Time 380160, Note Name: E5, Velocity: 82
Note OFF: Time 380320, Note Name: E5
Note ON: Time 380320, Note Name: C#5, Velocity: 74
Note OFF: Time 380480, Note Name: C#5
Note ON: Time 380480, Note Name: A#4, Velocity: 77
Note OFF: Time 380640, Note Name: A#4
Note ON: Time 380640, Note Name: C#5, Velocity: 82
Note OFF: Time 380800, Note Name: C#5
Note ON: Time 380800, Note Name: E5, Velocity: 75
Note OFF: Time 380960, Note Name: E5
Note ON: Time 380960, Note Name: G5, Velocity: 74
Note OFF: Time 381120, Note Name: G5
Note ON: Time 381120, Note Name: A#5, Velocity: 82
Note OFF: Time 381280, Note Name: A#5
Note ON: Time 381280, Note Name: E5, Velocity: 74
Note OFF: Time 381440, Note Name: E5
Note ON: Time 381440, Note Name: C#6, Velocity: 74
Note OFF: Time 381600, Note Name: C#6
Note ON: Time 381600, Note Name: E5, Velocity: 82
Note OFF: Time 381760, Note Name: E5
Note ON: Time 381760, Note Name: C#5, Velocity: 74
Note OFF: Time 381920, Note Name: C#5
Note ON: Time 381920, Note Name: A#5, Velocity: 74
Note OFF: Time 382080, Note Name: A#5
Note ON: Time 382080, Note Name: C#5, Velocity: 82
Note OFF: Time 382240, Note Name: C#5
Note ON: Time 382240, Note Name: A#4, Velocity: 74
Note OFF: Time 382400, Note Name: A#4
Note ON: Time 382400, Note Name: E5, Velocity: 74
Note OFF: Time 382560, Note Name: E5
Note ON: Time 382560, Note Name: A#4, Velocity: 78
Note OFF: Time 382720, Note Name: A#4
Note ON: Time 382720, Note Name: E4, Velocity: 74
Note OFF: Time 382880, Note Name: E4
Note ON: Time 382880, Note Name: C#5, Velocity: 74
Note OFF: Time 383040, Note Name: C#5
Note ON: Time 383040, Note Name: A#4, Velocity: 77
Note OFF: Time 383200, Note Name: A#4
Note ON: Time 383200, Note Name: E4, Velocity: 71
Note OFF: Time 383360, Note Name: E4
Note ON: Time 383360, Note Name: C5, Velocity: 71
Note OFF: Time 383520, Note Name: C5
Note ON: Time 383520, Note Name: A#4, Velocity: 76
Note OFF: Time 383680, Note Name: A#4
Note ON: Time 383680, Note Name: E4, Velocity: 71
Note OFF: Time 383840, Note Name: E4
Note ON: Time 383840, Note Name: C5, Velocity: 71
Note OFF: Time 384000, Note Name: C5
Note ON: Time 384000, Note Name: F4, Velocity: 67
Note ON: Time 384000, Note Name: A4, Velocity: 67
Note ON: Time 384000, Note Name: C5, Velocity: 79
Note OFF: Time 384480, Note Name: C5
Note OFF: Time 384480, Note Name: A4
Note OFF: Time 384480, Note Name: F4
Note ON: Time 384480, Note Name: C5, Velocity: 75
Note OFF: Time 385440, Note Name: C5
Note ON: Time 385440, Note Name: C5, Velocity: 75
Note OFF: Time 385920, Note Name: C5
Note ON: Time 385920, Note Name: F5, Velocity: 82
Note OFF: Time 386080, Note Name: F5
Note ON: Time 386080, Note Name: C5, Velocity: 74
Note OFF: Time 386240, Note Name: C5
Note ON: Time 386240, Note Name: A4, Velocity: 74
Note OFF: Time 386400, Note Name: A4
Note ON: Time 386400, Note Name: C5, Velocity: 82
Note OFF: Time 386560, Note Name: C5
Note ON: Time 386560, Note Name: F5, Velocity: 74
Note OFF: Time 386720, Note Name: F5
Note ON: Time 386720, Note Name: A5, Velocity: 73
Note OFF: Time 386880, Note Name: A5
Note ON: Time 386880, Note Name: G5, Velocity: 82
Note OFF: Time 387040, Note Name: G5
Note ON: Time 387040, Note Name: E5, Velocity: 74
Note OFF: Time 387200, Note Name: E5
Note ON: Time 387200, Note Name: C#5, Velocity: 74
Note OFF: Time 387360, Note Name: C#5
Note ON: Time 387360, Note Name: E5, Velocity: 82
Note OFF: Time 387520, Note Name: E5
Note ON: Time 387520, Note Name: G5, Velocity: 75
Note OFF: Time 387680, Note Name: G5
Note ON: Time 387680, Note Name: A#5, Velocity: 75
Note OFF: Time 387840, Note Name: A#5
Note ON: Time 387840, Note Name: A5, Velocity: 82
Note OFF: Time 388000, Note Name: A5
Note ON: Time 388000, Note Name: F#5, Velocity: 74
Note OFF: Time 388160, Note Name: F#5
Note ON: Time 388160, Note Name: D#5, Velocity: 77
Note OFF: Time 388320, Note Name: D#5
Note ON: Time 388320, Note Name: F#5, Velocity: 82
Note OFF: Time 388480, Note Name: F#5
Note ON: Time 388480, Note Name: A5, Velocity: 75
Note OFF: Time 388640, Note Name: A5
Note ON: Time 388640, Note Name: C6, Velocity: 74
Note OFF: Time 388800, Note Name: C6
Note ON: Time 388800, Note Name: A5, Velocity: 82
Note OFF: Time 388960, Note Name: A5
Note ON: Time 388960, Note Name: F#5, Velocity: 74
Note OFF: Time 389120, Note Name: F#5
Note ON: Time 389120, Note Name: D#6, Velocity: 74
Note OFF: Time 389280, Note Name: D#6
Note ON: Time 389280, Note Name: F#5, Velocity: 82
Note OFF: Time 389440, Note Name: F#5
Note ON: Time 389440, Note Name: D#5, Velocity: 74
Note OFF: Time 389600, Note Name: D#5
Note ON: Time 389600, Note Name: C6, Velocity: 74
Note OFF: Time 389760, Note Name: C6
Note ON: Time 389760, Note Name: D#5, Velocity: 82
Note OFF: Time 389920, Note Name: D#5
Note ON: Time 389920, Note Name: C5, Velocity: 74
Note OFF: Time 390080, Note Name: C5
Note ON: Time 390080, Note Name: A5, Velocity: 74
Note OFF: Time 390240, Note Name: A5
Note ON: Time 390240, Note Name: D#5, Velocity: 78
Note OFF: Time 390400, Note Name: D#5
Note ON: Time 390400, Note Name: A4, Velocity: 74
Note OFF: Time 390560, Note Name: A4
Note ON: Time 390560, Note Name: F#5, Velocity: 74
Note OFF: Time 390720, Note Name: F#5
Note ON: Time 390720, Note Name: D#5, Velocity: 77
Note OFF: Time 390880, Note Name: D#5
Note ON: Time 390880, Note Name: A4, Velocity: 71
Note OFF: Time 391040, Note Name: A4
Note ON: Time 391040, Note Name: F5, Velocity: 71
Note OFF: Time 391200, Note Name: F5
Note ON: Time 391200, Note Name: D#5, Velocity: 76
Note OFF: Time 391360, Note Name: D#5
Note ON: Time 391360, Note Name: A4, Velocity: 71
Note OFF: Time 391520, Note Name: A4
Note ON: Time 391520, Note Name: F5, Velocity: 71
Note OFF: Time 391680, Note Name: F5
Note ON: Time 391680, Note Name: A#4, Velocity: 67
Note ON: Time 391680, Note Name: D5, Velocity: 67
Note ON: Time 391680, Note Name: F5, Velocity: 79
Note OFF: Time 392160, Note Name: F5
Note OFF: Time 392160, Note Name: D5
Note OFF: Time 392160, Note Name: A#4
Note ON: Time 392160, Note Name: F4, Velocity: 75
Note OFF: Time 393120, Note Name: F4
Note ON: Time 393120, Note Name: F4, Velocity: 75
Note OFF: Time 393600, Note Name: F4
Note ON: Time 393600, Note Name: A#4, Velocity: 82
Note OFF: Time 393760, Note Name: A#4
Note ON: Time 393760, Note Name: F4, Velocity: 74
Note OFF: Time 393920, Note Name: F4
Note ON: Time 393920, Note Name: D4, Velocity: 74
Note OFF: Time 394080, Note Name: D4
Note ON: Time 394080, Note Name: F4, Velocity: 82
Note OFF: Time 394240, Note Name: F4
Note ON: Time 394240, Note Name: A#4, Velocity: 74
Note OFF: Time 394400, Note Name: A#4
Note ON: Time 394400, Note Name: D5, Velocity: 73
Note OFF: Time 394560, Note Name: D5
Note ON: Time 394560, Note Name: C5, Velocity: 82
Note OFF: Time 394720, Note Name: C5
Note ON: Time 394720, Note Name: A4, Velocity: 74
Note OFF: Time 394880, Note Name: A4
Note ON: Time 394880, Note Name: F#4, Velocity: 74
Note OFF: Time 395040, Note Name: F#4
Note ON: Time 395040, Note Name: A4, Velocity: 82
Note OFF: Time 395200, Note Name: A4
Note ON: Time 395200, Note Name: C5, Velocity: 75
Note OFF: Time 395360, Note Name: C5
Note ON: Time 395360, Note Name: D#5, Velocity: 75
Note OFF: Time 395520, Note Name: D#5
Note ON: Time 395520, Note Name: D5, Velocity: 82
Note OFF: Time 395680, Note Name: D5
Note ON: Time 395680, Note Name: B4, Velocity: 74
Note OFF: Time 395840, Note Name: B4
Note ON: Time 395840, Note Name: G#4, Velocity: 77
Note OFF: Time 396000, Note Name: G#4
Note ON: Time 396000, Note Name: B4, Velocity: 82
Note OFF: Time 396160, Note Name: B4
Note ON: Time 396160, Note Name: D5, Velocity: 75
Note OFF: Time 396320, Note Name: D5
Note ON: Time 396320, Note Name: F5, Velocity: 74
Note OFF: Time 396480, Note Name: F5
Note ON: Time 396480, Note Name: G#5, Velocity: 82
Note OFF: Time 396640, Note Name: G#5
Note ON: Time 396640, Note Name: D5, Velocity: 74
Note OFF: Time 396800, Note Name: D5
Note ON: Time 396800, Note Name: B5, Velocity: 74
Note OFF: Time 396960, Note Name: B5
Note ON: Time 396960, Note Name: D5, Velocity: 82
Note OFF: Time 397120, Note Name: D5
Note ON: Time 397120, Note Name: B4, Velocity: 74
Note OFF: Time 397280, Note Name: B4
Note ON: Time 397280, Note Name: G#5, Velocity: 74
Note OFF: Time 397440, Note Name: G#5
Note ON: Time 397440, Note Name: B4, Velocity: 82
Note OFF: Time 397600, Note Name: B4
Note ON: Time 397600, Note Name: G#4, Velocity: 74
Note OFF: Time 397760, Note Name: G#4
Note ON: Time 397760, Note Name: F5, Velocity: 74
Note OFF: Time 397920, Note Name: F5
Note ON: Time 397920, Note Name: G#4, Velocity: 78
Note OFF: Time 398080, Note Name: G#4
Note ON: Time 398080, Note Name: F4, Velocity: 74
Note OFF: Time 398240, Note Name: F4
Note ON: Time 398240, Note Name: D5, Velocity: 74
Note OFF: Time 398400, Note Name: D5
Note ON: Time 398400, Note Name: G#4, Velocity: 77
Note OFF: Time 398560, Note Name: G#4
Note ON: Time 398560, Note Name: D4, Velocity: 71
Note OFF: Time 398720, Note Name: D4
Note ON: Time 398720, Note Name: B4, Velocity: 71
Note OFF: Time 398880, Note Name: B4
Note ON: Time 398880, Note Name: G#4, Velocity: 76
Note OFF: Time 399040, Note Name: G#4
Note ON: Time 399040, Note Name: D4, Velocity: 71
Note OFF: Time 399200, Note Name: D4
Note ON: Time 399200, Note Name: A#4, Velocity: 71
Note OFF: Time 399360, Note Name: A#4
Note ON: Time 399360, Note Name: F#5, Velocity: 82
Note OFF: Time 399520, Note Name: F#5
Note ON: Time 399520, Note Name: D#5, Velocity: 74
Note OFF: Time 399680, Note Name: D#5
Note ON: Time 399680, Note Name: A#4, Velocity: 77
Note OFF: Time 399840, Note Name: A#4
Note ON: Time 399840, Note Name: D#5, Velocity: 82
Note OFF: Time 400000, Note Name: D#5
Note ON: Time 400000, Note Name: F#5, Velocity: 75
Note OFF: Time 400160, Note Name: F#5
Note ON: Time 400160, Note Name: A#5, Velocity: 74
Note OFF: Time 400320, Note Name: A#5
Note ON: Time 400320, Note Name: F#5, Velocity: 82
Note OFF: Time 400480, Note Name: F#5
Note ON: Time 400480, Note Name: D#5, Velocity: 74
Note OFF: Time 400640, Note Name: D#5
Note ON: Time 400640, Note Name: D#6, Velocity: 74
Note OFF: Time 400800, Note Name: D#6
Note ON: Time 400800, Note Name: D#5, Velocity: 82
Note OFF: Time 400960, Note Name: D#5
Note ON: Time 400960, Note Name: A#4, Velocity: 74
Note OFF: Time 401120, Note Name: A#4
Note ON: Time 401120, Note Name: A#5, Velocity: 74
Note OFF: Time 401280, Note Name: A#5
Note ON: Time 401280, Note Name: A#4, Velocity: 82
Note OFF: Time 401440, Note Name: A#4
Note ON: Time 401440, Note Name: F#4, Velocity: 74
Note OFF: Time 401600, Note Name: F#4
Note ON: Time 401600, Note Name: F#5, Velocity: 74
Note OFF: Time 401760, Note Name: F#5
Note ON: Time 401760, Note Name: F#4, Velocity: 78
Note OFF: Time 401920, Note Name: F#4
Note ON: Time 401920, Note Name: D#4, Velocity: 74
Note OFF: Time 402080, Note Name: D#4
Note ON: Time 402080, Note Name: D#5, Velocity: 74
Note OFF: Time 402240, Note Name: D#5
Note ON: Time 402240, Note Name: F#4, Velocity: 77
Note OFF: Time 402400, Note Name: F#4
Note ON: Time 402400, Note Name: D#4, Velocity: 71
Note OFF: Time 402560, Note Name: D#4
Note ON: Time 402560, Note Name: D#5, Velocity: 71
Note OFF: Time 402720, Note Name: D#5
Note ON: Time 402720, Note Name: F#4, Velocity: 76
Note OFF: Time 402880, Note Name: F#4
Note ON: Time 402880, Note Name: D#4, Velocity: 71
Note OFF: Time 403040, Note Name: D#4
Note ON: Time 403040, Note Name: D#5, Velocity: 71
Note OFF: Time 403200, Note Name: D#5
Note ON: Time 403200, Note Name: F#5, Velocity: 82
Note OFF: Time 403360, Note Name: F#5
Note ON: Time 403360, Note Name: E5, Velocity: 74
Note OFF: Time 403520, Note Name: E5
Note ON: Time 403520, Note Name: C#5, Velocity: 77
Note OFF: Time 403680, Note Name: C#5
Note ON: Time 403680, Note Name: E5, Velocity: 82
Note OFF: Time 403840, Note Name: E5
Note ON: Time 403840, Note Name: F#5, Velocity: 75
Note OFF: Time 404000, Note Name: F#5
Note ON: Time 404000, Note Name: C#6, Velocity: 74
Note OFF: Time 404160, Note Name: C#6
Note ON: Time 404160, Note Name: F#5, Velocity: 82
Note OFF: Time 404320, Note Name: F#5
Note ON: Time 404320, Note Name: E5, Velocity: 74
Note OFF: Time 404480, Note Name: E5
Note ON: Time 404480, Note Name: E6, Velocity: 74
Note OFF: Time 404640, Note Name: E6
Note ON: Time 404640, Note Name: E5, Velocity: 82
Note OFF: Time 404800, Note Name: E5
Note ON: Time 404800, Note Name: C#5, Velocity: 74
Note OFF: Time 404960, Note Name: C#5
Note ON: Time 404960, Note Name: C#6, Velocity: 74
Note OFF: Time 405120, Note Name: C#6
Note ON: Time 405120, Note Name: C#5, Velocity: 82
Note OFF: Time 405280, Note Name: C#5
Note ON: Time 405280, Note Name: F#4, Velocity: 74
Note OFF: Time 405440, Note Name: F#4
Note ON: Time 405440, Note Name: F#5, Velocity: 74
Note OFF: Time 405600, Note Name: F#5
Note ON: Time 405600, Note Name: F#4, Velocity: 78
Note OFF: Time 405760, Note Name: F#4
Note ON: Time 405760, Note Name: E4, Velocity: 74
Note OFF: Time 405920, Note Name: E4
Note ON: Time 405920, Note Name: E5, Velocity: 74
Note OFF: Time 406080, Note Name: E5
Note ON: Time 406080, Note Name: F#4, Velocity: 77
Note OFF: Time 406240, Note Name: F#4
Note ON: Time 406240, Note Name: E4, Velocity: 71
Note OFF: Time 406400, Note Name: E4
Note ON: Time 406400, Note Name: E5, Velocity: 71
Note OFF: Time 406560, Note Name: E5
Note ON: Time 406560, Note Name: F#4, Velocity: 76
Note OFF: Time 406720, Note Name: F#4
Note ON: Time 406720, Note Name: E4, Velocity: 71
Note OFF: Time 406880, Note Name: E4
Note ON: Time 406880, Note Name: E5, Velocity: 71
Note OFF: Time 407040, Note Name: E5
Note ON: Time 407040, Note Name: F#5, Velocity: 82
Note OFF: Time 407200, Note Name: F#5
Note ON: Time 407200, Note Name: D5, Velocity: 74
Note OFF: Time 407360, Note Name: D5
Note ON: Time 407360, Note Name: B4, Velocity: 77
Note OFF: Time 407520, Note Name: B4
Note ON: Time 407520, Note Name: D5, Velocity: 82
Note OFF: Time 407680, Note Name: D5
Note ON: Time 407680, Note Name: F#5, Velocity: 75
Note OFF: Time 407840, Note Name: F#5
Note ON: Time 407840, Note Name: B5, Velocity: 74
Note OFF: Time 408000, Note Name: B5
Note ON: Time 408000, Note Name: F#5, Velocity: 82
Note OFF: Time 408160, Note Name: F#5
Note ON: Time 408160, Note Name: D5, Velocity: 74
Note OFF: Time 408320, Note Name: D5
Note ON: Time 408320, Note Name: D6, Velocity: 74
Note OFF: Time 408480, Note Name: D6
Note ON: Time 408480, Note Name: D5, Velocity: 82
Note OFF: Time 408640, Note Name: D5
Note ON: Time 408640, Note Name: B4, Velocity: 74
Note OFF: Time 408800, Note Name: B4
Note ON: Time 408800, Note Name: B5, Velocity: 74
Note OFF: Time 408960, Note Name: B5
Note ON: Time 408960, Note Name: B4, Velocity: 82
Note OFF: Time 409120, Note Name: B4
Note ON: Time 409120, Note Name: F#4, Velocity: 74
Note OFF: Time 409280, Note Name: F#4
Note ON: Time 409280, Note Name: F#5, Velocity: 74
Note OFF: Time 409440, Note Name: F#5
Note ON: Time 409440, Note Name: F#4, Velocity: 78
Note OFF: Time 409600, Note Name: F#4
Note ON: Time 409600, Note Name: D4, Velocity: 74
Note OFF: Time 409760, Note Name: D4
Note ON: Time 409760, Note Name: D5, Velocity: 74
Note OFF: Time 409920, Note Name: D5
Note ON: Time 409920, Note Name: F#4, Velocity: 77
Note OFF: Time 410080, Note Name: F#4
Note ON: Time 410080, Note Name: D4, Velocity: 71
Note OFF: Time 410240, Note Name: D4
Note ON: Time 410240, Note Name: D5, Velocity: 71
Note OFF: Time 410400, Note Name: D5
Note ON: Time 410400, Note Name: F#4, Velocity: 76
Note OFF: Time 410560, Note Name: F#4
Note ON: Time 410560, Note Name: D4, Velocity: 71
Note OFF: Time 410720, Note Name: D4
Note ON: Time 410720, Note Name: D5, Velocity: 71
Note OFF: Time 410880, Note Name: D5
Note ON: Time 410880, Note Name: G5, Velocity: 82
Note OFF: Time 411040, Note Name: G5
Note ON: Time 411040, Note Name: D5, Velocity: 74
Note OFF: Time 411200, Note Name: D5
Note ON: Time 411200, Note Name: B4, Velocity: 77
Note OFF: Time 411360, Note Name: B4
Note ON: Time 411360, Note Name: D5, Velocity: 82
Note OFF: Time 411520, Note Name: D5
Note ON: Time 411520, Note Name: G5, Velocity: 75
Note OFF: Time 411680, Note Name: G5
Note ON: Time 411680, Note Name: B5, Velocity: 74
Note OFF: Time 411840, Note Name: B5
Note ON: Time 411840, Note Name: G5, Velocity: 82
Note OFF: Time 412000, Note Name: G5
Note ON: Time 412000, Note Name: D5, Velocity: 74
Note OFF: Time 412160, Note Name: D5
Note ON: Time 412160, Note Name: D6, Velocity: 74
Note OFF: Time 412320, Note Name: D6
Note ON: Time 412320, Note Name: D5, Velocity: 82
Note OFF: Time 412480, Note Name: D5
Note ON: Time 412480, Note Name: B4, Velocity: 74
Note OFF: Time 412640, Note Name: B4
Note ON: Time 412640, Note Name: B5, Velocity: 74
Note OFF: Time 412800, Note Name: B5
Note ON: Time 412800, Note Name: B4, Velocity: 82
Note OFF: Time 412960, Note Name: B4
Note ON: Time 412960, Note Name: G4, Velocity: 74
Note OFF: Time 413120, Note Name: G4
Note ON: Time 413120, Note Name: G5, Velocity: 74
Note OFF: Time 413280, Note Name: G5
Note ON: Time 413280, Note Name: G4, Velocity: 78
Note OFF: Time 413440, Note Name: G4
Note ON: Time 413440, Note Name: F4, Velocity: 74
Note OFF: Time 413600, Note Name: F4
Note ON: Time 413600, Note Name: F5, Velocity: 74
Note OFF: Time 413760, Note Name: F5
Note ON: Time 413760, Note Name: G4, Velocity: 77
Note OFF: Time 413920, Note Name: G4
Note ON: Time 413920, Note Name: D4, Velocity: 71
Note OFF: Time 414080, Note Name: D4
Note ON: Time 414080, Note Name: D5, Velocity: 71
Note OFF: Time 414240, Note Name: D5
Note ON: Time 414240, Note Name: G4, Velocity: 76
Note OFF: Time 414400, Note Name: G4
Note ON: Time 414400, Note Name: D4, Velocity: 71
Note OFF: Time 414560, Note Name: D4
Note ON: Time 414560, Note Name: D5, Velocity: 71
Note OFF: Time 414720, Note Name: D5
Note ON: Time 414720, Note Name: C6, Velocity: 82
Note OFF: Time 414880, Note Name: C6
Note ON: Time 414880, Note Name: G5, Velocity: 74
Note OFF: Time 415040, Note Name: G5
Note ON: Time 415040, Note Name: D#5, Velocity: 77
Note OFF: Time 415200, Note Name: D#5
Note ON: Time 415200, Note Name: G5, Velocity: 82
Note OFF: Time 415360, Note Name: G5
Note ON: Time 415360, Note Name: C6, Velocity: 75
Note OFF: Time 415520, Note Name: C6
Note ON: Time 415520, Note Name: D#6, Velocity: 74
Note OFF: Time 415680, Note Name: D#6
Note ON: Time 415680, Note Name: G5, Velocity: 82
Note OFF: Time 415840, Note Name: G5
Note ON: Time 415840, Note Name: D#5, Velocity: 74
Note OFF: Time 416000, Note Name: D#5
Note ON: Time 416000, Note Name: D#6, Velocity: 74
Note OFF: Time 416160, Note Name: D#6
Note ON: Time 416160, Note Name: D#5, Velocity: 82
Note OFF: Time 416320, Note Name: D#5
Note ON: Time 416320, Note Name: C5, Velocity: 74
Note OFF: Time 416480, Note Name: C5
Note ON: Time 416480, Note Name: C6, Velocity: 74
Note OFF: Time 416640, Note Name: C6
Note ON: Time 416640, Note Name: C5, Velocity: 82
Note OFF: Time 416800, Note Name: C5
Note ON: Time 416800, Note Name: G4, Velocity: 74
Note OFF: Time 416960, Note Name: G4
Note ON: Time 416960, Note Name: G5, Velocity: 74
Note OFF: Time 417120, Note Name: G5
Note ON: Time 417120, Note Name: G4, Velocity: 78
Note OFF: Time 417280, Note Name: G4
Note ON: Time 417280, Note Name: D#4, Velocity: 74
Note OFF: Time 417440, Note Name: D#4
Note ON: Time 417440, Note Name: D#5, Velocity: 74
Note OFF: Time 417600, Note Name: D#5
Note ON: Time 417600, Note Name: G4, Velocity: 77
Note OFF: Time 417760, Note Name: G4
Note ON: Time 417760, Note Name: D#4, Velocity: 71
Note OFF: Time 417920, Note Name: D#4
Note ON: Time 417920, Note Name: D#5, Velocity: 71
Note OFF: Time 418080, Note Name: D#5
Note ON: Time 418080, Note Name: G4, Velocity: 76
Note OFF: Time 418240, Note Name: G4
Note ON: Time 418240, Note Name: D#4, Velocity: 71
Note OFF: Time 418400, Note Name: D#4
Note ON: Time 418400, Note Name: D#5, Velocity: 71
Note OFF: Time 418560, Note Name: D#5
Note ON: Time 418560, Note Name: F5, Velocity: 82
Note OFF: Time 418720, Note Name: F5
Note ON: Time 418720, Note Name: C#5, Velocity: 74
Note OFF: Time 418880, Note Name: C#5
Note ON: Time 418880, Note Name: G#4, Velocity: 77
Note OFF: Time 419040, Note Name: G#4
Note ON: Time 419040, Note Name: C#5, Velocity: 82
Note OFF: Time 419200, Note Name: C#5
Note ON: Time 419200, Note Name: F5, Velocity: 75
Note OFF: Time 419360, Note Name: F5
Note ON: Time 419360, Note Name: G#5, Velocity: 74
Note OFF: Time 419520, Note Name: G#5
Note ON: Time 419520, Note Name: F5, Velocity: 82
Note OFF: Time 419680, Note Name: F5
Note ON: Time 419680, Note Name: C#5, Velocity: 74
Note OFF: Time 419840, Note Name: C#5
Note ON: Time 419840, Note Name: G#4, Velocity: 74
Note OFF: Time 420000, Note Name: G#4
Note ON: Time 420000, Note Name: F5, Velocity: 82
Note OFF: Time 420160, Note Name: F5
Note ON: Time 420160, Note Name: C#5, Velocity: 74
Note OFF: Time 420320, Note Name: C#5
Note ON: Time 420320, Note Name: G#4, Velocity: 74
Note OFF: Time 420480, Note Name: G#4
Note ON: Time 420480, Note Name: D#5, Velocity: 82
Note OFF: Time 420640, Note Name: D#5
Note ON: Time 420640, Note Name: C5, Velocity: 74
Note OFF: Time 420800, Note Name: C5
Note ON: Time 420800, Note Name: A4, Velocity: 77
Note OFF: Time 420960, Note Name: A4
Note ON: Time 420960, Note Name: C5, Velocity: 82
Note OFF: Time 421120, Note Name: C5
Note ON: Time 421120, Note Name: D#5, Velocity: 75
Note OFF: Time 421280, Note Name: D#5
Note ON: Time 421280, Note Name: A5, Velocity: 74
Note OFF: Time 421440, Note Name: A5
Note ON: Time 421440, Note Name: D#5, Velocity: 82
Note OFF: Time 421600, Note Name: D#5
Note ON: Time 421600, Note Name: C5, Velocity: 74
Note OFF: Time 421760, Note Name: C5
Note ON: Time 421760, Note Name: A4, Velocity: 74
Note OFF: Time 421920, Note Name: A4
Note ON: Time 421920, Note Name: D#5, Velocity: 82
Note OFF: Time 422080, Note Name: D#5
Note ON: Time 422080, Note Name: C5, Velocity: 74
Note OFF: Time 422240, Note Name: C5
Note ON: Time 422240, Note Name: A4, Velocity: 74
Note OFF: Time 422400, Note Name: A4
Note ON: Time 422880, Note Name: B4, Velocity: 83
Note OFF: Time 423040, Note Name: B4
Note ON: Time 423040, Note Name: D5, Velocity: 72
Note OFF: Time 423200, Note Name: D5
Note ON: Time 423200, Note Name: G5, Velocity: 72
Note OFF: Time 423360, Note Name: G5
Note ON: Time 423360, Note Name: D5, Velocity: 83
Note OFF: Time 423520, Note Name: D5
Note ON: Time 423520, Note Name: B4, Velocity: 71
Note OFF: Time 423680, Note Name: B4
Note ON: Time 423680, Note Name: G4, Velocity: 70
Note OFF: Time 423840, Note Name: G4
Note ON: Time 423840, Note Name: F5, Velocity: 58
Note OFF: Time 424000, Note Name: F5
Note ON: Time 424000, Note Name: B4, Velocity: 47
Note OFF: Time 424160, Note Name: B4
Note ON: Time 424160, Note Name: G4, Velocity: 47
Note OFF: Time 424320, Note Name: G4
Note ON: Time 424320, Note Name: F5, Velocity: 55
Note OFF: Time 424480, Note Name: F5
Note ON: Time 424480, Note Name: D5, Velocity: 47
Note OFF: Time 424640, Note Name: D5
Note ON: Time 424640, Note Name: G4, Velocity: 47
Note OFF: Time 424800, Note Name: G4
Note ON: Time 424800, Note Name: D#5, Velocity: 55
Note OFF: Time 424960, Note Name: D#5
Note ON: Time 424960, Note Name: D5, Velocity: 47
Note OFF: Time 425120, Note Name: D5
Note ON: Time 425120, Note Name: G4, Velocity: 47
Note OFF: Time 425280, Note Name: G4
Note ON: Time 425280, Note Name: D#5, Velocity: 55
Note OFF: Time 425440, Note Name: D#5
Note ON: Time 425440, Note Name: C5, Velocity: 48
Note OFF: Time 425600, Note Name: C5
Note ON: Time 425600, Note Name: G4, Velocity: 48
Note OFF: Time 425760, Note Name: G4
Note ON: Time 425760, Note Name: D5, Velocity: 55
Note OFF: Time 425920, Note Name: D5
Note ON: Time 425920, Note Name: C5, Velocity: 47
Note OFF: Time 426080, Note Name: C5
Note ON: Time 426080, Note Name: A4, Velocity: 47
Note OFF: Time 426240, Note Name: A4
Note ON: Time 426720, Note Name: B3, Velocity: 78
Note OFF: Time 426880, Note Name: B3
Note ON: Time 426880, Note Name: D4, Velocity: 71
Note OFF: Time 427040, Note Name: D4
Note ON: Time 427040, Note Name: G4, Velocity: 71
Note OFF: Time 427200, Note Name: G4
Note ON: Time 427200, Note Name: D4, Velocity: 74
Note OFF: Time 427360, Note Name: D4
Note ON: Time 427360, Note Name: B3, Velocity: 63
Note OFF: Time 427520, Note Name: B3
Note ON: Time 427520, Note Name: G3, Velocity: 62
Note OFF: Time 427680, Note Name: G3
Note ON: Time 427680, Note Name: F4, Velocity: 52
Note OFF: Time 427840, Note Name: F4
Note ON: Time 427840, Note Name: B3, Velocity: 42
Note OFF: Time 428000, Note Name: B3
Note ON: Time 428000, Note Name: G3, Velocity: 42
Note OFF: Time 428160, Note Name: G3
Note ON: Time 428160, Note Name: F4, Velocity: 49
Note OFF: Time 428320, Note Name: F4
Note ON: Time 428320, Note Name: D4, Velocity: 42
Note OFF: Time 428480, Note Name: D4
Note ON: Time 428480, Note Name: G3, Velocity: 42
Note OFF: Time 428640, Note Name: G3
Note ON: Time 428640, Note Name: D#4, Velocity: 49
Note OFF: Time 428800, Note Name: D#4
Note ON: Time 428800, Note Name: D4, Velocity: 42
Note OFF: Time 428960, Note Name: D4
Note ON: Time 428960, Note Name: G3, Velocity: 42
Note OFF: Time 429120, Note Name: G3
Note ON: Time 429120, Note Name: D#4, Velocity: 49
Note OFF: Time 429280, Note Name: D#4
Note ON: Time 429280, Note Name: C4, Velocity: 43
Note OFF: Time 429440, Note Name: C4
Note ON: Time 429440, Note Name: G3, Velocity: 43
Note OFF: Time 429600, Note Name: G3
Note ON: Time 429600, Note Name: D4, Velocity: 49
Note OFF: Time 429760, Note Name: D4
Note ON: Time 429760, Note Name: C4, Velocity: 42
Note OFF: Time 429920, Note Name: C4
Note ON: Time 429920, Note Name: A3, Velocity: 42
Note OFF: Time 430080, Note Name: A3
Note ON: Time 430080, Note Name: D4, Velocity: 49
Note OFF: Time 430240, Note Name: D4
Note ON: Time 430240, Note Name: B3, Velocity: 42
Note OFF: Time 430400, Note Name: B3
Note ON: Time 430400, Note Name: G3, Velocity: 42
Note OFF: Time 430560, Note Name: G3
Note ON: Time 430560, Note Name: C4, Velocity: 49
Note OFF: Time 430720, Note Name: C4
Note ON: Time 430720, Note Name: G3, Velocity: 42
Note OFF: Time 430880, Note Name: G3
Note ON: Time 430880, Note Name: D#3, Velocity: 41
Note OFF: Time 431040, Note Name: D#3
Note ON: Time 431040, Note Name: B3, Velocity: 48
Note OFF: Time 431200, Note Name: B3
Note ON: Time 431200, Note Name: G3, Velocity: 41
Note OFF: Time 431360, Note Name: G3
Note ON: Time 431360, Note Name: D3, Velocity: 41
Note OFF: Time 431520, Note Name: D3
Note ON: Time 431520, Note Name: A3, Velocity: 46
Note OFF: Time 431680, Note Name: A3
Note ON: Time 431680, Note Name: D#3, Velocity: 39
Note OFF: Time 431840, Note Name: D#3
Note ON: Time 431840, Note Name: C3, Velocity: 39
Note OFF: Time 432000, Note Name: C3
Note ON: Time 432000, Note Name: G3, Velocity: 45
Note OFF: Time 432160, Note Name: G3
Note ON: Time 432160, Note Name: D3, Velocity: 38
Note OFF: Time 432320, Note Name: D3
Note ON: Time 432320, Note Name: B2, Velocity: 37
Note OFF: Time 432480, Note Name: B2
Note ON: Time 432480, Note Name: F#3, Velocity: 43
Note OFF: Time 432640, Note Name: F#3
Note ON: Time 432640, Note Name: D#3, Velocity: 36
Note OFF: Time 432800, Note Name: D#3
Note ON: Time 432800, Note Name: A2, Velocity: 36
Note OFF: Time 432960, Note Name: A2
Note ON: Time 432960, Note Name: G3, Velocity: 42
Note OFF: Time 433120, Note Name: G3
Note ON: Time 433120, Note Name: D3, Velocity: 36
Note OFF: Time 433280, Note Name: D3
Note ON: Time 433280, Note Name: B2, Velocity: 36
Note OFF: Time 433440, Note Name: B2
Note ON: Time 433440, Note Name: F#3, Velocity: 40
Note OFF: Time 433600, Note Name: F#3
Note ON: Time 433600, Note Name: D#3, Velocity: 34
Note OFF: Time 433760, Note Name: D#3
Note ON: Time 433760, Note Name: A2, Velocity: 34
Note OFF: Time 433920, Note Name: A2
Note ON: Time 433920, Note Name: B2, Velocity: 38
Note ON: Time 433920, Note Name: D3, Velocity: 38
Note ON: Time 433920, Note Name: G3, Velocity: 45
Note OFF: Time 435960, Note Name: G3
Note OFF: Time 435960, Note Name: D3
Note OFF: Time 435960, Note Name: B2
Note ON: Time 435960, Note Name: D3, Velocity: 40
Note OFF: Time 436080, Note Name: D3
Note ON: Time 436080, Note Name: E3, Velocity: 40
Note OFF: Time 436200, Note Name: E3
Note ON: Time 436200, Note Name: F#3, Velocity: 40
Note OFF: Time 436320, Note Name: F#3
Note ON: Time 436320, Note Name: G3, Velocity: 45
Note OFF: Time 436440, Note Name: G3
Note ON: Time 436440, Note Name: D3, Velocity: 40
Note OFF: Time 436560, Note Name: D3
Note ON: Time 436560, Note Name: E3, Velocity: 40
Note OFF: Time 436680, Note Name: E3
Note ON: Time 436680, Note Name: F#3, Velocity: 40
Note OFF: Time 436800, Note Name: F#3
Note ON: Time 436800, Note Name: G3, Velocity: 45
Note OFF: Time 436920, Note Name: G3
Note ON: Time 436920, Note Name: D3, Velocity: 40
Note OFF: Time 437040, Note Name: D3
Note ON: Time 437040, Note Name: E3, Velocity: 40
Note OFF: Time 437160, Note Name: E3
Note ON: Time 437160, Note Name: F#3, Velocity: 40
Note OFF: Time 437280, Note Name: F#3
Note ON: Time 437280, Note Name: G3, Velocity: 46
Note OFF: Time 437400, Note Name: G3
Note ON: Time 437400, Note Name: D3, Velocity: 40
Note OFF: Time 437520, Note Name: D3
Note ON: Time 437520, Note Name: E3, Velocity: 40
Note OFF: Time 437640, Note Name: E3
Note ON: Time 437640, Note Name: F#3, Velocity: 40
Note OFF: Time 437760, Note Name: F#3
Note ON: Time 437760, Note Name: G3, Velocity: 45
Note OFF: Time 439800, Note Name: G3
Note ON: Time 439800, Note Name: F#3, Velocity: 40
Note OFF: Time 439920, Note Name: F#3
Note ON: Time 439920, Note Name: G3, Velocity: 40
Note OFF: Time 440040, Note Name: G3
Note ON: Time 440040, Note Name: A3, Velocity: 40
Note OFF: Time 440160, Note Name: A3
Note ON: Time 440160, Note Name: B3, Velocity: 45
Note OFF: Time 440280, Note Name: B3
Note ON: Time 440280, Note Name: F#3, Velocity: 40
Note OFF: Time 440400, Note Name: F#3
Note ON: Time 440400, Note Name: G3, Velocity: 40
Note OFF: Time 440520, Note Name: G3
Note ON: Time 440520, Note Name: A3, Velocity: 40
Note OFF: Time 440640, Note Name: A3
Note ON: Time 440640, Note Name: B3, Velocity: 45
Note OFF: Time 440760, Note Name: B3
Note ON: Time 440760, Note Name: F#3, Velocity: 40
Note OFF: Time 440880, Note Name: F#3
Note ON: Time 440880, Note Name: G3, Velocity: 40
Note OFF: Time 441000, Note Name: G3
Note ON: Time 441000, Note Name: A3, Velocity: 40
Note OFF: Time 441120, Note Name: A3
Note ON: Time 441120, Note Name: B3, Velocity: 46
Note OFF: Time 441240, Note Name: B3
Note ON: Time 441240, Note Name: F#3, Velocity: 40
Note OFF: Time 441360, Note Name: F#3
Note ON: Time 441360, Note Name: G3, Velocity: 40
Note OFF: Time 441480, Note Name: G3
Note ON: Time 441480, Note Name: A3, Velocity: 40
Note OFF: Time 441600, Note Name: A3
Note ON: Time 441600, Note Name: B3, Velocity: 45
Note OFF: Time 441840, Note Name: B3
Note ON: Time 442320, Note Name: B3, Velocity: 41
Note OFF: Time 442440, Note Name: B3
Note ON: Time 442440, Note Name: C4, Velocity: 44
Note OFF: Time 442560, Note Name: C4
Note ON: Time 442560, Note Name: D4, Velocity: 48
Note OFF: Time 442680, Note Name: D4
Note ON: Time 443280, Note Name: D4, Velocity: 45
Note OFF: Time 443360, Note Name: D4
Note ON: Time 443360, Note Name: E4, Velocity: 47
Note OFF: Time 443440, Note Name: E4
Note ON: Time 443440, Note Name: F#4, Velocity: 48
Note OFF: Time 443520, Note Name: F#4
Note ON: Time 443520, Note Name: G4, Velocity: 53
Note OFF: Time 443760, Note Name: G4
Note ON: Time 444240, Note Name: G4, Velocity: 51
Note OFF: Time 444360, Note Name: G4
Note ON: Time 444360, Note Name: A4, Velocity: 51
Note OFF: Time 444480, Note Name: A4
Note ON: Time 444480, Note Name: B4, Velocity: 55
Note OFF: Time 444600, Note Name: B4
Note ON: Time 444720, Note Name: B4, Velocity: 51
Note OFF: Time 444840, Note Name: B4
Note ON: Time 444840, Note Name: C5, Velocity: 52
Note OFF: Time 444960, Note Name: C5
Note ON: Time 444960, Note Name: D5, Velocity: 55
Note OFF: Time 445080, Note Name: D5
Note ON: Time 445200, Note Name: D5, Velocity: 52
Note OFF: Time 445280, Note Name: D5
Note ON: Time 445280, Note Name: E5, Velocity: 54
Note OFF: Time 445360, Note Name: E5
Note ON: Time 445360, Note Name: F#5, Velocity: 56
Note OFF: Time 445440, Note Name: F#5
Note ON: Time 445440, Note Name: G5, Velocity: 58
Note OFF: Time 445680, Note Name: G5
Note ON: Time 446160, Note Name: D4, Velocity: 50
Note OFF: Time 446240, Note Name: D4
Note ON: Time 446240, Note Name: E4, Velocity: 53
Note OFF: Time 446320, Note Name: E4
Note ON: Time 446320, Note Name: F#4, Velocity: 55
Note OFF: Time 446400, Note Name: F#4
Note ON: Time 446400, Note Name: G4, Velocity: 58
Note OFF: Time 446640, Note Name: G4
Note ON: Time 447120, Note Name: G4, Velocity: 55
Note OFF: Time 447240, Note Name: G4
Note ON: Time 447240, Note Name: A4, Velocity: 59
Note OFF: Time 447360, Note Name: A4
Note ON: Time 447360, Note Name: B4, Velocity: 63
Note OFF: Time 447480, Note Name: B4
Note ON: Time 448080, Note Name: B4, Velocity: 57
Note OFF: Time 448200, Note Name: B4
Note ON: Time 448200, Note Name: C5, Velocity: 58
Note OFF: Time 448320, Note Name: C5
Note ON: Time 448320, Note Name: D5, Velocity: 63
Note OFF: Time 448440, Note Name: D5
Note ON: Time 448560, Note Name: D5, Velocity: 58
Note OFF: Time 448640, Note Name: D5
Note ON: Time 448640, Note Name: E5, Velocity: 60
Note OFF: Time 448720, Note Name: E5
Note ON: Time 448720, Note Name: F#5, Velocity: 63
Note OFF: Time 448800, Note Name: F#5
Note ON: Time 448800, Note Name: G5, Velocity: 66
Note OFF: Time 448920, Note Name: G5
Note ON: Time 449040, Note Name: G5, Velocity: 65
Note OFF: Time 449160, Note Name: G5
Note ON: Time 449160, Note Name: A5, Velocity: 68
Note OFF: Time 449280, Note Name: A5
Note ON: Time 449280, Note Name: B5, Velocity: 70
Note OFF: Time 449400, Note Name: B5
Note ON: Time 450000, Note Name: D5, Velocity: 65
Note OFF: Time 450080, Note Name: D5
Note ON: Time 450080, Note Name: E5, Velocity: 68
Note OFF: Time 450160, Note Name: E5
Note ON: Time 450160, Note Name: F#5, Velocity: 69
Note OFF: Time 450240, Note Name: F#5
Note ON: Time 450240, Note Name: G5, Velocity: 71
Note OFF: Time 450360, Note Name: G5
Note ON: Time 450960, Note Name: G5, Velocity: 66
Note OFF: Time 451080, Note Name: G5
Note ON: Time 451080, Note Name: A5, Velocity: 68
Note OFF: Time 451200, Note Name: A5
Note ON: Time 451200, Note Name: B5, Velocity: 73
Note OFF: Time 451320, Note Name: B5
Note ON: Time 451920, Note Name: G5, Velocity: 68
Note OFF: Time 452040, Note Name: G5
Note ON: Time 452040, Note Name: A5, Velocity: 72
Note OFF: Time 452160, Note Name: A5
Note ON: Time 452160, Note Name: B5, Velocity: 76
Note OFF: Time 452280, Note Name: B5
Note ON: Time 452400, Note Name: B5, Velocity: 68
Note OFF: Time 452520, Note Name: B5
Note ON: Time 452520, Note Name: C6, Velocity: 71
Note OFF: Time 452640, Note Name: C6
Note ON: Time 452640, Note Name: D6, Velocity: 75
Note OFF: Time 452760, Note Name: D6
Note ON: Time 452880, Note Name: D6, Velocity: 70
Note OFF: Time 453000, Note Name: D6
Note ON: Time 453000, Note Name: E6, Velocity: 75
Note OFF: Time 453120, Note Name: E6
Note ON: Time 453120, Note Name: F6, Velocity: 79
Note OFF: Time 453240, Note Name: F6
Note ON: Time 453840, Note Name: D6, Velocity: 77
Note OFF: Time 453960, Note Name: D6
Note ON: Time 453960, Note Name: E6, Velocity: 82
Note OFF: Time 454080, Note Name: E6
Note ON: Time 454080, Note Name: F6, Velocity: 86
Note OFF: Time 454200, Note Name: F6
Note ON: Time 454800, Note Name: D6, Velocity: 79
Note OFF: Time 454920, Note Name: D6
Note ON: Time 454920, Note Name: E6, Velocity: 84
Note OFF: Time 455040, Note Name: E6
Note ON: Time 455040, Note Name: F6, Velocity: 88
Note OFF: Time 455160, Note Name: F6
Note ON: Time 455280, Note Name: D6, Velocity: 79
Note OFF: Time 455400, Note Name: D6
Note ON: Time 455400, Note Name: E6, Velocity: 84
Note OFF: Time 455520, Note Name: E6
Note ON: Time 455520, Note Name: F6, Velocity: 88
Note OFF: Time 455640, Note Name: F6
Note ON: Time 455760, Note Name: D6, Velocity: 81
Note OFF: Time 455880, Note Name: D6
Note ON: Time 455880, Note Name: E6, Velocity: 85
Note OFF: Time 456000, Note Name: E6
Note ON: Time 456000, Note Name: F6, Velocity: 89
Note OFF: Time 456120, Note Name: F6
Note ON: Time 456240, Note Name: D6, Velocity: 81
Note OFF: Time 456360, Note Name: D6
Note ON: Time 456360, Note Name: E6, Velocity: 86
Note OFF: Time 456480, Note Name: E6
Note ON: Time 456480, Note Name: F6, Velocity: 92
Note OFF: Time 456600, Note Name: F6
Note ON: Time 456720, Note Name: D6, Velocity: 85
Note OFF: Time 456840, Note Name: D6
Note ON: Time 456840, Note Name: E6, Velocity: 91
Note OFF: Time 456960, Note Name: E6
Note ON: Time 456960, Note Name: F6, Velocity: 96
Note ON: Time 457080, Note Name: E6, Velocity: 94
Note OFF: Time 457100, Note Name: F6
Note ON: Time 457200, Note Name: D6, Velocity: 92
Note OFF: Time 457220, Note Name: E6
Note ON: Time 457320, Note Name: C6, Velocity: 91
Note OFF: Time 457340, Note Name: D6
Note ON: Time 457440, Note Name: B5, Velocity: 89
Note OFF: Time 457460, Note Name: C6
Note ON: Time 457560, Note Name: C6, Velocity: 91
Note OFF: Time 457580, Note Name: B5
Note ON: Time 457680, Note Name: D6, Velocity: 92
Note OFF: Time 457700, Note Name: C6
Note ON: Time 457800, Note Name: E6, Velocity: 93
Note OFF: Time 457820, Note Name: D6
Note ON: Time 457920, Note Name: F6, Velocity: 96
Note OFF: Time 457940, Note Name: E6
Note ON: Time 458040, Note Name: E6, Velocity: 95
Note OFF: Time 458060, Note Name: F6
Note ON: Time 458160, Note Name: D6, Velocity: 94
Note OFF: Time 458180, Note Name: E6
Note ON: Time 458280, Note Name: C6, Velocity: 93
Note OFF: Time 458300, Note Name: D6
Note ON: Time 458400, Note Name: B5, Velocity: 93
Note OFF: Time 458420, Note Name: C6
Note ON: Time 458520, Note Name: C6, Velocity: 93
Note OFF: Time 458540, Note Name: B5
Note ON: Time 458640, Note Name: D6, Velocity: 95
Note OFF: Time 458660, Note Name: C6
Note ON: Time 458760, Note Name: E6, Velocity: 97
Note OFF: Time 458780, Note Name: D6
Note ON: Time 458880, Note Name: F6, Velocity: 99
Note OFF: Time 458900, Note Name: E6
Note ON: Time 459120, Note Name: E6, Velocity: 97
Note OFF: Time 459140, Note Name: F6
Note ON: Time 459240, Note Name: D6, Velocity: 96
Note OFF: Time 459260, Note Name: E6
Note ON: Time 459360, Note Name: C6, Velocity: 95
Note OFF: Time 459380, Note Name: D6
Note ON: Time 459480, Note Name: B5, Velocity: 93
Note OFF: Time 459500, Note Name: C6
Note ON: Time 459600, Note Name: A5, Velocity: 92
Note OFF: Time 459620, Note Name: B5
Note ON: Time 459720, Note Name: G5, Velocity: 91
Note OFF: Time 459740, Note Name: A5
Note ON: Time 459840, Note Name: F5, Velocity: 90
Note OFF: Time 459860, Note Name: G5
Note ON: Time 459960, Note Name: E5, Velocity: 88
Note OFF: Time 459980, Note Name: F5
Note ON: Time 460080, Note Name: D5, Velocity: 87
Note OFF: Time 460100, Note Name: E5
Note ON: Time 460200, Note Name: C5, Velocity: 86
Note OFF: Time 460220, Note Name: D5
Note ON: Time 460320, Note Name: B4, Velocity: 85
Note OFF: Time 460340, Note Name: C5
Note ON: Time 460440, Note Name: A4, Velocity: 83
Note OFF: Time 460460, Note Name: B4
Note ON: Time 460560, Note Name: G4, Velocity: 82
Note OFF: Time 460580, Note Name: A4
Note ON: Time 460680, Note Name: F4, Velocity: 81
Note OFF: Time 460700, Note Name: G4
Note ON: Time 460800, Note Name: E4, Velocity: 80
Note OFF: Time 460820, Note Name: F4
Note OFF: Time 461040, Note Name: E4
Note ON: Time 461040, Note Name: C3, Velocity: 28
Note ON: Time 461040, Note Name: E3, Velocity: 33
Note OFF: Time 461220, Note Name: E3
Note OFF: Time 461220, Note Name: C3
Note ON: Time 461280, Note Name: C3, Velocity: 28
Note ON: Time 461280, Note Name: E3, Velocity: 33
Note OFF: Time 461460, Note Name: E3
Note OFF: Time 461460, Note Name: C3
Note ON: Time 461520, Note Name: C3, Velocity: 28
Note ON: Time 461520, Note Name: E3, Velocity: 34
Note OFF: Time 461700, Note Name: E3
Note OFF: Time 461700, Note Name: C3
Note ON: Time 461760, Note Name: C3, Velocity: 28
Note ON: Time 461760, Note Name: E3, Velocity: 34
Note OFF: Time 461940, Note Name: E3
Note OFF: Time 461940, Note Name: C3
Note ON: Time 462000, Note Name: C3, Velocity: 28
Note ON: Time 462000, Note Name: E3, Velocity: 34
Note OFF: Time 462180, Note Name: E3
Note OFF: Time 462180, Note Name: C3
Note ON: Time 462240, Note Name: C3, Velocity: 29
Note ON: Time 462240, Note Name: E3, Velocity: 35
Note OFF: Time 462420, Note Name: E3
Note OFF: Time 462420, Note Name: C3
Note ON: Time 462480, Note Name: C3, Velocity: 29
Note ON: Time 462480, Note Name: E3, Velocity: 35
Note OFF: Time 462660, Note Name: E3
Note OFF: Time 462660, Note Name: C3
Note ON: Time 462720, Note Name: C3, Velocity: 30
Note ON: Time 462720, Note Name: E3, Velocity: 36
Note OFF: Time 462900, Note Name: E3
Note OFF: Time 462900, Note Name: C3
Note ON: Time 462960, Note Name: C3, Velocity: 30
Note ON: Time 462960, Note Name: E3, Velocity: 36
Note OFF: Time 463140, Note Name: E3
Note OFF: Time 463140, Note Name: C3
Note ON: Time 463200, Note Name: C3, Velocity: 31
Note ON: Time 463200, Note Name: E3, Velocity: 37
Note OFF: Time 463380, Note Name: E3
Note OFF: Time 463380, Note Name: C3
Note ON: Time 463440, Note Name: C3, Velocity: 32
Note ON: Time 463440, Note Name: E3, Velocity: 38
Note OFF: Time 463620, Note Name: E3
Note OFF: Time 463620, Note Name: C3
Note ON: Time 463680, Note Name: C3, Velocity: 33
Note ON: Time 463680, Note Name: E3, Velocity: 39
Note OFF: Time 463860, Note Name: E3
Note OFF: Time 463860, Note Name: C3
Note ON: Time 463920, Note Name: C3, Velocity: 34
Note ON: Time 463920, Note Name: E3, Velocity: 40
Note OFF: Time 464100, Note Name: E3
Note OFF: Time 464100, Note Name: C3
Note ON: Time 464160, Note Name: D3, Velocity: 34
Note ON: Time 464160, Note Name: F#3, Velocity: 40
Note OFF: Time 464340, Note Name: F#3
Note OFF: Time 464340, Note Name: D3
Note ON: Time 464400, Note Name: D3, Velocity: 34
Note ON: Time 464400, Note Name: F#3, Velocity: 40
Note OFF: Time 464580, Note Name: F#3
Note OFF: Time 464580, Note Name: D3
Note ON: Time 464640, Note Name: D3, Velocity: 39
Note ON: Time 464640, Note Name: G3, Velocity: 46
Note OFF: Time 465360, Note Name: G3
Note OFF: Time 465360, Note Name: D3
Note ON: Time 465360, Note Name: B3, Velocity: 40
Note OFF: Time 465480, Note Name: B3
Note ON: Time 465480, Note Name: A3, Velocity: 40
Note OFF: Time 465600, Note Name: A3
Note ON: Time 465600, Note Name: G3, Velocity: 45
Note OFF: Time 465720, Note Name: G3
Note ON: Time 466500, Note Name: C#6, Velocity: 46
Note OFF: Time 466560, Note Name: C#6
Note ON: Time 466560, Note Name: D6, Velocity: 57
Note OFF: Time 467160, Note Name: D6
Note ON: Time 467160, Note Name: C6, Velocity: 48
Note OFF: Time 467280, Note Name: C6
Note ON: Time 467280, Note Name: B5, Velocity: 47
Note OFF: Time 467400, Note Name: B5
Note ON: Time 467400, Note Name: A5, Velocity: 45
Note OFF: Time 467520, Note Name: A5
Note ON: Time 467520, Note Name: G5, Velocity: 44
Note OFF: Time 467760, Note Name: G5
Note ON: Time 468480, Note Name: A#2, Velocity: 29
Note ON: Time 468480, Note Name: D3, Velocity: 37
Note OFF: Time 468660, Note Name: D3
Note OFF: Time 468660, Note Name: A#2
Note ON: Time 468720, Note Name: A#2, Velocity: 29
Note ON: Time 468720, Note Name: D3, Velocity: 35
Note OFF: Time 468900, Note Name: D3
Note OFF: Time 468900, Note Name: A#2
Note ON: Time 468960, Note Name: A#2, Velocity: 29
Note ON: Time 468960, Note Name: D3, Velocity: 35
Note OFF: Time 469140, Note Name: D3
Note OFF: Time 469140, Note Name: A#2
Note ON: Time 469200, Note Name: A#2, Velocity: 30
Note ON: Time 469200, Note Name: D3, Velocity: 36
Note OFF: Time 469380, Note Name: D3
Note OFF: Time 469380, Note Name: A#2
Note ON: Time 469440, Note Name: A#2, Velocity: 31
Note ON: Time 469440, Note Name: D3, Velocity: 37
Note OFF: Time 469620, Note Name: D3
Note OFF: Time 469620, Note Name: A#2
Note ON: Time 469680, Note Name: A#2, Velocity: 31
Note ON: Time 469680, Note Name: D3, Velocity: 37
Note OFF: Time 469860, Note Name: D3
Note OFF: Time 469860, Note Name: A#2
Note ON: Time 469920, Note Name: A#2, Velocity: 32
Note ON: Time 469920, Note Name: D3, Velocity: 38
Note OFF: Time 470100, Note Name: D3
Note OFF: Time 470100, Note Name: A#2
Note ON: Time 470160, Note Name: A#2, Velocity: 33
Note ON: Time 470160, Note Name: D3, Velocity: 39
Note OFF: Time 470340, Note Name: D3
Note OFF: Time 470340, Note Name: A#2
Note ON: Time 470400, Note Name: A#2, Velocity: 33
Note ON: Time 470400, Note Name: D3, Velocity: 39
Note OFF: Time 470580, Note Name: D3
Note OFF: Time 470580, Note Name: A#2
Note ON: Time 470640, Note Name: A#2, Velocity: 34
Note ON: Time 470640, Note Name: D3, Velocity: 40
Note OFF: Time 470820, Note Name: D3
Note OFF: Time 470820, Note Name: A#2
Note ON: Time 470880, Note Name: A#2, Velocity: 34
Note ON: Time 470880, Note Name: D3, Velocity: 40
Note OFF: Time 471060, Note Name: D3
Note OFF: Time 471060, Note Name: A#2
Note ON: Time 471120, Note Name: A#2, Velocity: 34
Note ON: Time 471120, Note Name: D3, Velocity: 40
Note OFF: Time 471300, Note Name: D3
Note OFF: Time 471300, Note Name: A#2
Note ON: Time 471360, Note Name: A#2, Velocity: 34
Note ON: Time 471360, Note Name: D3, Velocity: 40
Note OFF: Time 471540, Note Name: D3
Note OFF: Time 471540, Note Name: A#2
Note ON: Time 471600, Note Name: A#2, Velocity: 34
Note ON: Time 471600, Note Name: D3, Velocity: 40
Note OFF: Time 471780, Note Name: D3
Note OFF: Time 471780, Note Name: A#2
Note ON: Time 471840, Note Name: C3, Velocity: 34
Note ON: Time 471840, Note Name: E3, Velocity: 40
Note OFF: Time 472020, Note Name: E3
Note OFF: Time 472020, Note Name: C3
Note ON: Time 472080, Note Name: C3, Velocity: 34
Note ON: Time 472080, Note Name: E3, Velocity: 40
Note OFF: Time 472260, Note Name: E3
Note OFF: Time 472260, Note Name: C3
Note ON: Time 472320, Note Name: C3, Velocity: 39
Note ON: Time 472320, Note Name: F3, Velocity: 46
Note OFF: Time 473040, Note Name: F3
Note OFF: Time 473040, Note Name: C3
Note ON: Time 473040, Note Name: A3, Velocity: 40
Note OFF: Time 473160, Note Name: A3
Note ON: Time 473160, Note Name: G3, Velocity: 40
Note OFF: Time 473280, Note Name: G3
Note ON: Time 473280, Note Name: F3, Velocity: 45
Note OFF: Time 473400, Note Name: F3
Note ON: Time 474180, Note Name: B5, Velocity: 46
Note OFF: Time 474240, Note Name: B5
Note ON: Time 474240, Note Name: C6, Velocity: 57
Note OFF: Time 474840, Note Name: C6
Note ON: Time 474840, Note Name: A#5, Velocity: 50
Note OFF: Time 474960, Note Name: A#5
Note ON: Time 474960, Note Name: G#5, Velocity: 49
Note OFF: Time 475080, Note Name: G#5
Note ON: Time 475080, Note Name: G5, Velocity: 47
Note OFF: Time 475200, Note Name: G5
Note ON: Time 475200, Note Name: F5, Velocity: 46
Note OFF: Time 475440, Note Name: F5
Note ON: Time 476100, Note Name: E6, Velocity: 67
Note OFF: Time 476160, Note Name: E6
Note ON: Time 476160, Note Name: F6, Velocity: 73
Note OFF: Time 477600, Note Name: F6
Note ON: Time 477600, Note Name: F6, Velocity: 74
Note OFF: Time 477720, Note Name: F6
Note ON: Time 477720, Note Name: D#6, Velocity: 73
Note OFF: Time 477840, Note Name: D#6
Note ON: Time 477840, Note Name: D6, Velocity: 71
Note OFF: Time 477960, Note Name: D6
Note ON: Time 477960, Note Name: C6, Velocity: 70
Note OFF: Time 478080, Note Name: C6
Note ON: Time 478080, Note Name: B5, Velocity: 72
Note OFF: Time 478200, Note Name: B5
Note ON: Time 478200, Note Name: C6, Velocity: 71
Note OFF: Time 478320, Note Name: C6
Note ON: Time 478320, Note Name: D6, Velocity: 72
Note OFF: Time 478440, Note Name: D6
Note ON: Time 478440, Note Name: D#6, Velocity: 73
Note OFF: Time 478560, Note Name: D#6
Note ON: Time 478560, Note Name: F6, Velocity: 74
Note OFF: Time 478680, Note Name: F6
Note ON: Time 478680, Note Name: D#6, Velocity: 72
Note OFF: Time 478800, Note Name: D#6
Note ON: Time 478800, Note Name: D6, Velocity: 71
Note OFF: Time 478920, Note Name: D6
Note ON: Time 478920, Note Name: C6, Velocity: 69
Note OFF: Time 479040, Note Name: C6
Note ON: Time 479040, Note Name: B5, Velocity: 72
Note OFF: Time 479160, Note Name: B5
Note ON: Time 479160, Note Name: C6, Velocity: 75
Note OFF: Time 479280, Note Name: C6
Note ON: Time 479280, Note Name: D6, Velocity: 77
Note OFF: Time 479400, Note Name: D6
Note ON: Time 479400, Note Name: D#6, Velocity: 80
Note OFF: Time 479520, Note Name: D#6
Note ON: Time 479520, Note Name: F6, Velocity: 80
Note OFF: Time 479640, Note Name: F6
Note ON: Time 479640, Note Name: D#6, Velocity: 80
Note OFF: Time 479760, Note Name: D#6
Note ON: Time 479760, Note Name: D6, Velocity: 79
Note OFF: Time 479880, Note Name: D6
Note ON: Time 479880, Note Name: C6, Velocity: 81
Note OFF: Time 480000, Note Name: C6
Note ON: Time 480000, Note Name: B5, Velocity: 85
Note OFF: Time 480120, Note Name: B5
Note ON: Time 480120, Note Name: C6, Velocity: 89
Note OFF: Time 480240, Note Name: C6
Note ON: Time 480240, Note Name: D6, Velocity: 94
Note OFF: Time 480360, Note Name: D6
Note ON: Time 480360, Note Name: D#6, Velocity: 98
Note OFF: Time 480480, Note Name: D#6
Note ON: Time 480480, Note Name: F6, Velocity: 100
Note OFF: Time 480600, Note Name: F6
Note ON: Time 480600, Note Name: D#6, Velocity: 98
Note OFF: Time 480720, Note Name: D#6
Note ON: Time 480720, Note Name: D6, Velocity: 96
Note OFF: Time 480840, Note Name: D6
Note ON: Time 480840, Note Name: C6, Velocity: 94
Note OFF: Time 480960, Note Name: C6
Note ON: Time 480960, Note Name: B5, Velocity: 93
Note OFF: Time 481080, Note Name: B5
Note ON: Time 481080, Note Name: G#5, Velocity: 91
Note OFF: Time 481200, Note Name: G#5
Note ON: Time 481200, Note Name: G5, Velocity: 89
Note OFF: Time 481320, Note Name: G5
Note ON: Time 481320, Note Name: F5, Velocity: 87
Note OFF: Time 481440, Note Name: F5
Note ON: Time 481440, Note Name: D#5, Velocity: 85
Note OFF: Time 481560, Note Name: D#5
Note ON: Time 481560, Note Name: D5, Velocity: 83
Note OFF: Time 481680, Note Name: D5
Note ON: Time 481680, Note Name: C5, Velocity: 81
Note OFF: Time 481800, Note Name: C5
Note ON: Time 481800, Note Name: B4, Velocity: 79
Note OFF: Time 481920, Note Name: B4
Note ON: Time 481920, Note Name: C5, Velocity: 93
Note OFF: Time 482100, Note Name: C5
Note ON: Time 482400, Note Name: G4, Velocity: 83
Note OFF: Time 482580, Note Name: G4
Note ON: Time 482880, Note Name: D#4, Velocity: 72
Note OFF: Time 483060, Note Name: D#4
Note ON: Time 483360, Note Name: C4, Velocity: 64
Note OFF: Time 483540, Note Name: C4
Note ON: Time 483840, Note Name: G#3, Velocity: 60
Note OFF: Time 485760, Note Name: G#3
Note ON: Time 485760, Note Name: C#5, Velocity: 54
Note OFF: Time 485940, Note Name: C#5
Note ON: Time 486240, Note Name: G#4, Velocity: 52
Note OFF: Time 486420, Note Name: G#4
Note ON: Time 486720, Note Name: F4, Velocity: 48
Note OFF: Time 486900, Note Name: F4
Note ON: Time 487200, Note Name: C#4, Velocity: 43
Note OFF: Time 487380, Note Name: C#4
Note ON: Time 487680, Note Name: A#3, Velocity: 39
Note OFF: Time 489600, Note Name: A#3
Note ON: Time 489720, Note Name: G4, Velocity: 37
Note OFF: Time 489840, Note Name: G4
Note ON: Time 489840, Note Name: A#4, Velocity: 37
Note OFF: Time 489960, Note Name: A#4
Note ON: Time 489960, Note Name: D#5, Velocity: 37
Note OFF: Time 490080, Note Name: D#5
Note ON: Time 490200, Note Name: G4, Velocity: 37
Note OFF: Time 490320, Note Name: G4
Note ON: Time 490320, Note Name: A#4, Velocity: 37
Note OFF: Time 490440, Note Name: A#4
Note ON: Time 490440, Note Name: D#5, Velocity: 37
Note OFF: Time 490560, Note Name: D#5
Note ON: Time 490680, Note Name: G4, Velocity: 37
Note OFF: Time 490800, Note Name: G4
Note ON: Time 490800, Note Name: A#4, Velocity: 37
Note OFF: Time 490920, Note Name: A#4
Note ON: Time 490920, Note Name: D#5, Velocity: 37
Note OFF: Time 491040, Note Name: D#5
Note ON: Time 491160, Note Name: G4, Velocity: 37
Note OFF: Time 491280, Note Name: G4
Note ON: Time 491280, Note Name: A#4, Velocity: 37
Note OFF: Time 491400, Note Name: A#4
Note ON: Time 491400, Note Name: D#5, Velocity: 37
Note OFF: Time 491520, Note Name: D#5
Note ON: Time 491640, Note Name: F4, Velocity: 37
Note OFF: Time 491760, Note Name: F4
Note ON: Time 491760, Note Name: G#4, Velocity: 37
Note OFF: Time 491880, Note Name: G#4
Note ON: Time 491880, Note Name: D#5, Velocity: 37
Note OFF: Time 492000, Note Name: D#5
Note ON: Time 492120, Note Name: F4, Velocity: 41
Note OFF: Time 492240, Note Name: F4
Note ON: Time 492240, Note Name: B4, Velocity: 41
Note OFF: Time 492360, Note Name: B4
Note ON: Time 492360, Note Name: D5, Velocity: 41
Note OFF: Time 492480, Note Name: D5
Note ON: Time 492600, Note Name: D#4, Velocity: 45
Note OFF: Time 492720, Note Name: D#4
Note ON: Time 492720, Note Name: F#4, Velocity: 45
Note OFF: Time 492840, Note Name: F#4
Note ON: Time 492840, Note Name: D5, Velocity: 45
Note OFF: Time 492960, Note Name: D5
Note ON: Time 493080, Note Name: D#4, Velocity: 39
Note OFF: Time 493200, Note Name: D#4
Note ON: Time 493200, Note Name: A4, Velocity: 39
Note OFF: Time 493320, Note Name: A4
Note ON: Time 493320, Note Name: C5, Velocity: 39
Note OFF: Time 493440, Note Name: C5
Note ON: Time 493560, Note Name: D4, Velocity: 44
Note OFF: Time 493680, Note Name: D4
Note ON: Time 493680, Note Name: G4, Velocity: 44
Note OFF: Time 493800, Note Name: G4
Note ON: Time 493800, Note Name: C5, Velocity: 44
Note OFF: Time 493920, Note Name: C5
Note ON: Time 494040, Note Name: D4, Velocity: 48
Note OFF: Time 494160, Note Name: D4
Note ON: Time 494160, Note Name: G4, Velocity: 48
Note OFF: Time 494280, Note Name: G4
Note ON: Time 494280, Note Name: C5, Velocity: 48
Note OFF: Time 494400, Note Name: C5
Note ON: Time 494520, Note Name: D4, Velocity: 53
Note OFF: Time 494640, Note Name: D4
Note ON: Time 494640, Note Name: G4, Velocity: 53
Note OFF: Time 494760, Note Name: G4
Note ON: Time 494760, Note Name: B4, Velocity: 53
Note OFF: Time 494880, Note Name: B4
Note ON: Time 495000, Note Name: D4, Velocity: 58
Note OFF: Time 495120, Note Name: D4
Note ON: Time 495120, Note Name: F4, Velocity: 59
Note OFF: Time 495240, Note Name: F4
Note ON: Time 495240, Note Name: B4, Velocity: 59
Note OFF: Time 495360, Note Name: B4
Note ON: Time 495360, Note Name: E4, Velocity: 68
Note ON: Time 495360, Note Name: C5, Velocity: 84
Note OFF: Time 495600, Note Name: C5
Note OFF: Time 495600, Note Name: E4
Note ON: Time 495600, Note Name: E4, Velocity: 37
Note OFF: Time 495719, Note Name: E4
Note ON: Time 495720, Note Name: C4, Velocity: 33
Note OFF: Time 495840, Note Name: C4
Note ON: Time 495840, Note Name: E4, Velocity: 37
Note OFF: Time 495959, Note Name: E4
Note ON: Time 495960, Note Name: C4, Velocity: 33
Note OFF: Time 496080, Note Name: C4
Note ON: Time 496080, Note Name: E4, Velocity: 36
Note OFF: Time 496199, Note Name: E4
Note ON: Time 496200, Note Name: C4, Velocity: 33
Note OFF: Time 496320, Note Name: C4
Note ON: Time 496320, Note Name: E4, Velocity: 36
Note OFF: Time 496439, Note Name: E4
Note ON: Time 496440, Note Name: C4, Velocity: 33
Note OFF: Time 496560, Note Name: C4
Note ON: Time 496560, Note Name: E4, Velocity: 37
Note OFF: Time 496679, Note Name: E4
Note ON: Time 496680, Note Name: C4, Velocity: 33
Note OFF: Time 496800, Note Name: C4
Note ON: Time 496800, Note Name: E4, Velocity: 36
Note OFF: Time 496919, Note Name: E4
Note ON: Time 496920, Note Name: C4, Velocity: 33
Note OFF: Time 497040, Note Name: C4
Note ON: Time 497040, Note Name: E4, Velocity: 36
Note OFF: Time 497159, Note Name: E4
Note ON: Time 497160, Note Name: C4, Velocity: 33
Note OFF: Time 497280, Note Name: C4
Note ON: Time 497280, Note Name: E4, Velocity: 37
Note OFF: Time 497399, Note Name: E4
Note ON: Time 497400, Note Name: C4, Velocity: 33
Note OFF: Time 497520, Note Name: C4
Note ON: Time 497520, Note Name: E4, Velocity: 37
Note OFF: Time 497639, Note Name: E4
Note ON: Time 497640, Note Name: C4, Velocity: 33
Note OFF: Time 497760, Note Name: C4
Note ON: Time 497760, Note Name: E4, Velocity: 37
Note OFF: Time 497879, Note Name: E4
Note ON: Time 497880, Note Name: C4, Velocity: 33
Note OFF: Time 498000, Note Name: C4
Note ON: Time 498000, Note Name: E4, Velocity: 36
Note OFF: Time 498119, Note Name: E4
Note ON: Time 498120, Note Name: C4, Velocity: 33
Note OFF: Time 498240, Note Name: C4
Note ON: Time 498240, Note Name: E4, Velocity: 36
Note OFF: Time 498359, Note Name: E4
Note ON: Time 498360, Note Name: C4, Velocity: 33
Note OFF: Time 498480, Note Name: C4
Note ON: Time 498480, Note Name: E4, Velocity: 37
Note OFF: Time 498599, Note Name: E4
Note ON: Time 498600, Note Name: C4, Velocity: 33
Note OFF: Time 498720, Note Name: C4
Note ON: Time 498720, Note Name: F#4, Velocity: 36
Note OFF: Time 498839, Note Name: F#4
Note ON: Time 498840, Note Name: D4, Velocity: 33
Note OFF: Time 498960, Note Name: D4
Note ON: Time 498960, Note Name: F#4, Velocity: 36
Note OFF: Time 499079, Note Name: F#4
Note ON: Time 499080, Note Name: D4, Velocity: 33
Note OFF: Time 499200, Note Name: D4
Note ON: Time 499200, Note Name: G4, Velocity: 46
Note OFF: Time 499920, Note Name: G4
Note ON: Time 499920, Note Name: B4, Velocity: 40
Note OFF: Time 500040, Note Name: B4
Note ON: Time 500040, Note Name: A4, Velocity: 40
Note OFF: Time 500160, Note Name: A4
Note ON: Time 500160, Note Name: G4, Velocity: 45
Note OFF: Time 500280, Note Name: G4
Note ON: Time 501060, Note Name: C#6, Velocity: 46
Note OFF: Time 501120, Note Name: C#6
Note ON: Time 501120, Note Name: D6, Velocity: 57
Note OFF: Time 501720, Note Name: D6
Note ON: Time 501720, Note Name: C6, Velocity: 48
Note OFF: Time 501840, Note Name: C6
Note ON: Time 501840, Note Name: B5, Velocity: 47
Note OFF: Time 501960, Note Name: B5
Note ON: Time 501960, Note Name: A5, Velocity: 45
Note OFF: Time 502080, Note Name: A5
Note ON: Time 502080, Note Name: G5, Velocity: 44
Note OFF: Time 502320, Note Name: G5
Note ON: Time 503040, Note Name: F4, Velocity: 40
Note OFF: Time 503159, Note Name: F4
Note ON: Time 503160, Note Name: D4, Velocity: 36
Note OFF: Time 503280, Note Name: D4
Note ON: Time 503280, Note Name: F4, Velocity: 40
Note OFF: Time 503399, Note Name: F4
Note ON: Time 503400, Note Name: D4, Velocity: 36
Note OFF: Time 503520, Note Name: D4
Note ON: Time 503520, Note Name: F4, Velocity: 40
Note OFF: Time 503639, Note Name: F4
Note ON: Time 503640, Note Name: D4, Velocity: 36
Note OFF: Time 503760, Note Name: D4
Note ON: Time 503760, Note Name: F4, Velocity: 39
Note OFF: Time 503879, Note Name: F4
Note ON: Time 503880, Note Name: D4, Velocity: 36
Note OFF: Time 504000, Note Name: D4
Note ON: Time 504000, Note Name: F4, Velocity: 39
Note OFF: Time 504119, Note Name: F4
Note ON: Time 504120, Note Name: D4, Velocity: 36
Note OFF: Time 504240, Note Name: D4
Note ON: Time 504240, Note Name: F4, Velocity: 41
Note OFF: Time 504359, Note Name: F4
Note ON: Time 504360, Note Name: D4, Velocity: 36
Note OFF: Time 504480, Note Name: D4
Note ON: Time 504480, Note Name: F4, Velocity: 40
Note OFF: Time 504599, Note Name: F4
Note ON: Time 504600, Note Name: D4, Velocity: 37
Note OFF: Time 504720, Note Name: D4
Note ON: Time 504720, Note Name: F4, Velocity: 40
Note OFF: Time 504839, Note Name: F4
Note ON: Time 504840, Note Name: D4, Velocity: 37
Note OFF: Time 504960, Note Name: D4
Note ON: Time 504960, Note Name: F4, Velocity: 41
Note OFF: Time 505079, Note Name: F4
Note ON: Time 505080, Note Name: D4, Velocity: 37
Note OFF: Time 505200, Note Name: D4
Note ON: Time 505200, Note Name: F4, Velocity: 41
Note OFF: Time 505319, Note Name: F4
Note ON: Time 505320, Note Name: D4, Velocity: 37
Note OFF: Time 505440, Note Name: D4
Note ON: Time 505440, Note Name: F4, Velocity: 42
Note OFF: Time 505559, Note Name: F4
Note ON: Time 505560, Note Name: D4, Velocity: 37
Note OFF: Time 505680, Note Name: D4
Note ON: Time 505680, Note Name: F4, Velocity: 41
Note OFF: Time 505799, Note Name: F4
Note ON: Time 505800, Note Name: D4, Velocity: 38
Note OFF: Time 505920, Note Name: D4
Note ON: Time 505920, Note Name: F4, Velocity: 41
Note OFF: Time 506039, Note Name: F4
Note ON: Time 506040, Note Name: D4, Velocity: 38
Note OFF: Time 506160, Note Name: D4
Note ON: Time 506160, Note Name: F4, Velocity: 42
Note OFF: Time 506279, Note Name: F4
Note ON: Time 506280, Note Name: D4, Velocity: 38
Note OFF: Time 506400, Note Name: D4
Note ON: Time 506400, Note Name: G#4, Velocity: 41
Note OFF: Time 506519, Note Name: G#4
Note ON: Time 506520, Note Name: E4, Velocity: 38
Note OFF: Time 506640, Note Name: E4
Note ON: Time 506640, Note Name: G#4, Velocity: 42
Note OFF: Time 506759, Note Name: G#4
Note ON: Time 506760, Note Name: E4, Velocity: 38
Note OFF: Time 506880, Note Name: E4
Note ON: Time 506880, Note Name: A4, Velocity: 55
Note OFF: Time 507600, Note Name: A4
Note ON: Time 507600, Note Name: C5, Velocity: 48
Note OFF: Time 507720, Note Name: C5
Note ON: Time 507720, Note Name: B4, Velocity: 48
Note OFF: Time 507840, Note Name: B4
Note ON: Time 507840, Note Name: A4, Velocity: 53
Note OFF: Time 507960, Note Name: A4
Note ON: Time 508740, Note Name: D#6, Velocity: 55
Note OFF: Time 508800, Note Name: D#6
Note ON: Time 508800, Note Name: E6, Velocity: 68
Note OFF: Time 509400, Note Name: E6
Note ON: Time 509400, Note Name: D6, Velocity: 58
Note OFF: Time 509520, Note Name: D6
Note ON: Time 509520, Note Name: C6, Velocity: 57
Note OFF: Time 509640, Note Name: C6
Note ON: Time 509640, Note Name: B5, Velocity: 55
Note OFF: Time 509760, Note Name: B5
Note ON: Time 509760, Note Name: A5, Velocity: 55
Note OFF: Time 510000, Note Name: A5
Note ON: Time 510660, Note Name: B5, Velocity: 61
Note OFF: Time 510720, Note Name: B5
Note ON: Time 510720, Note Name: C6, Velocity: 78
Note OFF: Time 511320, Note Name: C6
Note ON: Time 511320, Note Name: B5, Velocity: 68
Note OFF: Time 511440, Note Name: B5
Note ON: Time 511440, Note Name: A5, Velocity: 67
Note OFF: Time 511560, Note Name: A5
Note ON: Time 511560, Note Name: G#5, Velocity: 64
Note OFF: Time 511680, Note Name: G#5
Note ON: Time 511680, Note Name: A5, Velocity: 63
Note OFF: Time 511920, Note Name: A5
Note ON: Time 512580, Note Name: B5, Velocity: 63
Note OFF: Time 512640, Note Name: B5
Note ON: Time 512640, Note Name: C6, Velocity: 81
Note OFF: Time 513240, Note Name: C6
Note ON: Time 513240, Note Name: B5, Velocity: 72
Note OFF: Time 513360, Note Name: B5
Note ON: Time 513360, Note Name: A5, Velocity: 71
Note OFF: Time 513480, Note Name: A5
Note ON: Time 513480, Note Name: G#5, Velocity: 67
Note OFF: Time 513600, Note Name: G#5
Note ON: Time 513600, Note Name: A5, Velocity: 70
Note OFF: Time 513720, Note Name: A5
Note ON: Time 513720, Note Name: G#5, Velocity: 66
Note OFF: Time 513840, Note Name: G#5
Note ON: Time 513840, Note Name: A5, Velocity: 66
Note OFF: Time 513960, Note Name: A5
Note ON: Time 513960, Note Name: B5, Velocity: 66
Note OFF: Time 514080, Note Name: B5
Note ON: Time 514080, Note Name: C6, Velocity: 69
Note OFF: Time 514200, Note Name: C6
Note ON: Time 514200, Note Name: C#6, Velocity: 70
Note OFF: Time 514320, Note Name: C#6
Note ON: Time 514320, Note Name: D6, Velocity: 71
Note OFF: Time 514440, Note Name: D6
Note ON: Time 514440, Note Name: D#6, Velocity: 74
Note OFF: Time 514560, Note Name: D#6
Note ON: Time 514560, Note Name: E6, Velocity: 68
Note ON: Time 515160, Note Name: D6, Velocity: 54
Note OFF: Time 515180, Note Name: E6
Note ON: Time 515280, Note Name: C6, Velocity: 53
Note OFF: Time 515300, Note Name: D6
Note ON: Time 515400, Note Name: B5, Velocity: 51
Note OFF: Time 515420, Note Name: C6
Note ON: Time 515520, Note Name: C6, Velocity: 53
Note OFF: Time 515540, Note Name: B5
Note ON: Time 515640, Note Name: B5, Velocity: 52
Note OFF: Time 515660, Note Name: C6
Note ON: Time 515760, Note Name: A5, Velocity: 51
Note OFF: Time 515780, Note Name: B5
Note ON: Time 515880, Note Name: G#5, Velocity: 50
Note OFF: Time 515900, Note Name: A5
Note ON: Time 516000, Note Name: A5, Velocity: 50
Note OFF: Time 516020, Note Name: G#5
Note ON: Time 516120, Note Name: C6, Velocity: 52
Note OFF: Time 516140, Note Name: A5
Note ON: Time 516240, Note Name: B5, Velocity: 50
Note OFF: Time 516260, Note Name: C6
Note ON: Time 516360, Note Name: A5, Velocity: 50
Note OFF: Time 516380, Note Name: B5
Note ON: Time 516480, Note Name: G#5, Velocity: 50
Note OFF: Time 516500, Note Name: A5
Note ON: Time 516600, Note Name: F#5, Velocity: 49
Note OFF: Time 516620, Note Name: G#5
Note ON: Time 516720, Note Name: E5, Velocity: 48
Note OFF: Time 516740, Note Name: F#5
Note ON: Time 516840, Note Name: D#5, Velocity: 47
Note OFF: Time 516860, Note Name: E5
Note ON: Time 516960, Note Name: E5, Velocity: 49
Note OFF: Time 516980, Note Name: D#5
Note ON: Time 517080, Note Name: F#5, Velocity: 49
Note OFF: Time 517100, Note Name: E5
Note ON: Time 517200, Note Name: G5, Velocity: 49
Note OFF: Time 517220, Note Name: F#5
Note ON: Time 517320, Note Name: G#5, Velocity: 50
Note OFF: Time 517340, Note Name: G5
Note ON: Time 517440, Note Name: A5, Velocity: 50
Note OFF: Time 517460, Note Name: G#5
Note ON: Time 517560, Note Name: G#5, Velocity: 50
Note OFF: Time 517580, Note Name: A5
Note ON: Time 517680, Note Name: A5, Velocity: 51
Note OFF: Time 517700, Note Name: G#5
Note ON: Time 517800, Note Name: B5, Velocity: 51
Note OFF: Time 517820, Note Name: A5
Note ON: Time 517920, Note Name: C6, Velocity: 49
Note OFF: Time 517940, Note Name: B5
Note ON: Time 518040, Note Name: C#6, Velocity: 50
Note OFF: Time 518060, Note Name: C6
Note ON: Time 518160, Note Name: D6, Velocity: 52
Note OFF: Time 518180, Note Name: C#6
Note ON: Time 518280, Note Name: D#6, Velocity: 53
Note OFF: Time 518300, Note Name: D6
Note ON: Time 518400, Note Name: E6, Velocity: 55
Note OFF: Time 518420, Note Name: D#6
Note ON: Time 518520, Note Name: D#6, Velocity: 53
Note OFF: Time 518540, Note Name: E6
Note ON: Time 518640, Note Name: E6, Velocity: 53
Note OFF: Time 518660, Note Name: D#6
Note ON: Time 518760, Note Name: D#6, Velocity: 50
Note OFF: Time 518780, Note Name: E6
Note ON: Time 518880, Note Name: E6, Velocity: 52
Note OFF: Time 518900, Note Name: D#6
Note ON: Time 519000, Note Name: D6, Velocity: 52
Note OFF: Time 519020, Note Name: E6
Note ON: Time 519120, Note Name: C6, Velocity: 51
Note OFF: Time 519140, Note Name: D6
Note ON: Time 519240, Note Name: B5, Velocity: 50
Note OFF: Time 519260, Note Name: C6
Note ON: Time 519360, Note Name: C6, Velocity: 52
Note OFF: Time 519380, Note Name: B5
Note ON: Time 519480, Note Name: B5, Velocity: 51
Note OFF: Time 519500, Note Name: C6
Note ON: Time 519600, Note Name: A5, Velocity: 49
Note OFF: Time 519620, Note Name: B5
Note ON: Time 519720, Note Name: G#5, Velocity: 50
Note OFF: Time 519740, Note Name: A5
Note ON: Time 519840, Note Name: A5, Velocity: 50
Note OFF: Time 519860, Note Name: G#5
Note ON: Time 519960, Note Name: C6, Velocity: 53
Note OFF: Time 519980, Note Name: A5
Note ON: Time 520080, Note Name: B5, Velocity: 50
Note OFF: Time 520100, Note Name: C6
Note ON: Time 520200, Note Name: A5, Velocity: 50
Note OFF: Time 520220, Note Name: B5
Note ON: Time 520320, Note Name: G#5, Velocity: 50
Note OFF: Time 520340, Note Name: A5
Note ON: Time 520440, Note Name: F#5, Velocity: 49
Note OFF: Time 520460, Note Name: G#5
Note ON: Time 520560, Note Name: E5, Velocity: 48
Note OFF: Time 520580, Note Name: F#5
Note ON: Time 520680, Note Name: D#5, Velocity: 47
Note OFF: Time 520700, Note Name: E5
Note ON: Time 520800, Note Name: E5, Velocity: 49
Note OFF: Time 520820, Note Name: D#5
Note ON: Time 520920, Note Name: F#5, Velocity: 50
Note OFF: Time 520940, Note Name: E5
Note ON: Time 521040, Note Name: G5, Velocity: 50
Note OFF: Time 521060, Note Name: F#5
Note ON: Time 521160, Note Name: G#5, Velocity: 52
Note OFF: Time 521180, Note Name: G5
Note ON: Time 521280, Note Name: A5, Velocity: 52
Note OFF: Time 521300, Note Name: G#5
Note ON: Time 521400, Note Name: G#5, Velocity: 52
Note OFF: Time 521420, Note Name: A5
Note ON: Time 521520, Note Name: A5, Velocity: 54
Note OFF: Time 521540, Note Name: G#5
Note ON: Time 521640, Note Name: B5, Velocity: 54
Note OFF: Time 521660, Note Name: A5
Note ON: Time 521760, Note Name: C6, Velocity: 56
Note OFF: Time 521780, Note Name: B5
Note ON: Time 521880, Note Name: C#6, Velocity: 58
Note OFF: Time 521900, Note Name: C6
Note ON: Time 522000, Note Name: D6, Velocity: 60
Note OFF: Time 522020, Note Name: C#6
Note ON: Time 522120, Note Name: D#6, Velocity: 62
Note OFF: Time 522140, Note Name: D6
Note ON: Time 522240, Note Name: E6, Velocity: 68
Note OFF: Time 522260, Note Name: D#6
Note OFF: Time 522360, Note Name: E6
Note ON: Time 522360, Note Name: B5, Velocity: 60
Note OFF: Time 522480, Note Name: B5
Note ON: Time 522480, Note Name: G#5, Velocity: 61
Note OFF: Time 522600, Note Name: G#5
Note ON: Time 522600, Note Name: E5, Velocity: 61
Note OFF: Time 522720, Note Name: E5
Note ON: Time 522720, Note Name: D#5, Velocity: 75
Note OFF: Time 522840, Note Name: D#5
Note ON: Time 522840, Note Name: E5, Velocity: 63
Note OFF: Time 522960, Note Name: E5
Note ON: Time 522960, Note Name: A5, Velocity: 63
Note OFF: Time 523080, Note Name: A5
Note ON: Time 523080, Note Name: C6, Velocity: 63
Note OFF: Time 523200, Note Name: C6
Note ON: Time 523200, Note Name: E6, Velocity: 74
Note OFF: Time 523320, Note Name: E6
Note ON: Time 523320, Note Name: B5, Velocity: 65
Note OFF: Time 523440, Note Name: B5
Note ON: Time 523440, Note Name: G#5, Velocity: 68
Note OFF: Time 523560, Note Name: G#5
Note ON: Time 523560, Note Name: E5, Velocity: 68
Note OFF: Time 523680, Note Name: E5
Note ON: Time 523680, Note Name: D#5, Velocity: 80
Note OFF: Time 523800, Note Name: D#5
Note ON: Time 523800, Note Name: E5, Velocity: 71
Note OFF: Time 523920, Note Name: E5
Note ON: Time 523920, Note Name: A5, Velocity: 71
Note OFF: Time 524040, Note Name: A5
Note ON: Time 524040, Note Name: C6, Velocity: 72
Note OFF: Time 524160, Note Name: C6
Note ON: Time 524160, Note Name: E6, Velocity: 91
Note OFF: Time 524280, Note Name: E6
Note ON: Time 524280, Note Name: B5, Velocity: 82
Note OFF: Time 524400, Note Name: B5
Note ON: Time 524400, Note Name: G#5, Velocity: 82
Note OFF: Time 524520, Note Name: G#5
Note ON: Time 524520, Note Name: E5, Velocity: 82
Note OFF: Time 524640, Note Name: E5
Note ON: Time 524640, Note Name: E6, Velocity: 91
Note OFF: Time 524760, Note Name: E6
Note ON: Time 524760, Note Name: C6, Velocity: 82
Note OFF: Time 524880, Note Name: C6
Note ON: Time 524880, Note Name: A5, Velocity: 82
Note OFF: Time 525000, Note Name: A5
Note ON: Time 525000, Note Name: E5, Velocity: 82
Note OFF: Time 525120, Note Name: E5
Note ON: Time 525120, Note Name: E6, Velocity: 91
Note OFF: Time 525240, Note Name: E6
Note ON: Time 525240, Note Name: B5, Velocity: 82
Note OFF: Time 525360, Note Name: B5
Note ON: Time 525360, Note Name: G#5, Velocity: 81
Note OFF: Time 525480, Note Name: G#5
Note ON: Time 525480, Note Name: E5, Velocity: 81
Note OFF: Time 525600, Note Name: E5
Note ON: Time 525600, Note Name: E6, Velocity: 91
Note OFF: Time 525720, Note Name: E6
Note ON: Time 525720, Note Name: C6, Velocity: 81
Note OFF: Time 525840, Note Name: C6
Note ON: Time 525840, Note Name: A5, Velocity: 81
Note OFF: Time 525960, Note Name: A5
Note ON: Time 525960, Note Name: E5, Velocity: 82
Note OFF: Time 526080, Note Name: E5
Note ON: Time 526080, Note Name: E6, Velocity: 91
Note OFF: Time 526200, Note Name: E6
Note ON: Time 526200, Note Name: B5, Velocity: 82
Note OFF: Time 526320, Note Name: B5
Note ON: Time 526320, Note Name: G#5, Velocity: 82
Note OFF: Time 526440, Note Name: G#5
Note ON: Time 526440, Note Name: E5, Velocity: 82
Note OFF: Time 526560, Note Name: E5
Note ON: Time 526560, Note Name: B5, Velocity: 91
Note OFF: Time 526680, Note Name: B5
Note ON: Time 526680, Note Name: G#5, Velocity: 82
Note OFF: Time 526800, Note Name: G#5
Note ON: Time 526800, Note Name: E5, Velocity: 82
Note OFF: Time 526920, Note Name: E5
Note ON: Time 526920, Note Name: B4, Velocity: 82
Note OFF: Time 527040, Note Name: B4
Note ON: Time 527040, Note Name: G#5, Velocity: 91
Note OFF: Time 527160, Note Name: G#5
Note ON: Time 527160, Note Name: E5, Velocity: 82
Note OFF: Time 527280, Note Name: E5
Note ON: Time 527280, Note Name: B4, Velocity: 81
Note OFF: Time 527400, Note Name: B4
Note ON: Time 527400, Note Name: G#4, Velocity: 81
Note OFF: Time 527520, Note Name: G#4
Note ON: Time 527520, Note Name: E5, Velocity: 91
Note OFF: Time 527640, Note Name: E5
Note ON: Time 527640, Note Name: B4, Velocity: 81
Note OFF: Time 527760, Note Name: B4
Note ON: Time 527760, Note Name: G#4, Velocity: 81
Note OFF: Time 527880, Note Name: G#4
Note ON: Time 527880, Note Name: E4, Velocity: 82
Note OFF: Time 528000, Note Name: E4
Note ON: Time 528000, Note Name: B4, Velocity: 91
Note OFF: Time 528120, Note Name: B4
Note ON: Time 528120, Note Name: G#4, Velocity: 81
Note OFF: Time 528240, Note Name: G#4
Note ON: Time 528240, Note Name: E4, Velocity: 80
Note OFF: Time 528360, Note Name: E4
Note ON: Time 528360, Note Name: B3, Velocity: 80
Note OFF: Time 528480, Note Name: B3
Note ON: Time 528480, Note Name: G#4, Velocity: 89
Note OFF: Time 528600, Note Name: G#4
Note ON: Time 528600, Note Name: E4, Velocity: 79
Note OFF: Time 528720, Note Name: E4
Note ON: Time 528720, Note Name: B3, Velocity: 79
Note OFF: Time 528840, Note Name: B3
Note ON: Time 528840, Note Name: G#3, Velocity: 78
Note OFF: Time 528960, Note Name: G#3
Note ON: Time 528960, Note Name: E4, Velocity: 87
Note OFF: Time 529080, Note Name: E4
Note ON: Time 529080, Note Name: B3, Velocity: 78
Note OFF: Time 529200, Note Name: B3
Note ON: Time 529200, Note Name: G#3, Velocity: 77
Note OFF: Time 529320, Note Name: G#3
Note ON: Time 529320, Note Name: E3, Velocity: 77
Note OFF: Time 529440, Note Name: E3
Note ON: Time 530880, Note Name: E5, Velocity: 75
Note OFF: Time 531000, Note Name: E5
Note ON: Time 531120, Note Name: E4, Velocity: 69
Note OFF: Time 531240, Note Name: E4
Note ON: Time 531360, Note Name: F#5, Velocity: 74
Note OFF: Time 531480, Note Name: F#5
Note ON: Time 531600, Note Name: F#4, Velocity: 65
Note OFF: Time 531720, Note Name: F#4
Note ON: Time 531840, Note Name: G#5, Velocity: 71
Note OFF: Time 531960, Note Name: G#5
Note ON: Time 532080, Note Name: G#4, Velocity: 64
Note OFF: Time 532200, Note Name: G#4
Note ON: Time 532800, Note Name: G#5, Velocity: 67
Note OFF: Time 532920, Note Name: G#5
Note ON: Time 533040, Note Name: G#4, Velocity: 53
Note OFF: Time 533160, Note Name: G#4
Note ON: Time 533280, Note Name: A5, Velocity: 59
Note OFF: Time 533400, Note Name: A5
Note ON: Time 533520, Note Name: A4, Velocity: 50
Note OFF: Time 533640, Note Name: A4
Note ON: Time 533760, Note Name: B5, Velocity: 52
Note OFF: Time 533880, Note Name: B5
Note ON: Time 534000, Note Name: B4, Velocity: 49
Note OFF: Time 534120, Note Name: B4
Note ON: Time 534240, Note Name: C#6, Velocity: 52
Note OFF: Time 534360, Note Name: C#6
Note ON: Time 534480, Note Name: C#5, Velocity: 49
Note OFF: Time 534600, Note Name: C#5
Note ON: Time 534720, Note Name: D6, Velocity: 52
Note OFF: Time 534840, Note Name: D6
Note ON: Time 534960, Note Name: D5, Velocity: 48
Note OFF: Time 535080, Note Name: D5
Note ON: Time 535200, Note Name: D6, Velocity: 52
Note OFF: Time 535320, Note Name: D6
Note ON: Time 535440, Note Name: E5, Velocity: 46
Note OFF: Time 535560, Note Name: E5
Note ON: Time 535680, Note Name: D6, Velocity: 51
Note OFF: Time 535800, Note Name: D6
Note ON: Time 535920, Note Name: F#5, Velocity: 46
Note OFF: Time 536040, Note Name: F#5
Note ON: Time 536160, Note Name: D6, Velocity: 51
Note OFF: Time 536280, Note Name: D6
Note ON: Time 536400, Note Name: G#5, Velocity: 46
Note OFF: Time 536520, Note Name: G#5
Note ON: Time 536640, Note Name: D6, Velocity: 51
Note OFF: Time 536760, Note Name: D6
Note ON: Time 536880, Note Name: A5, Velocity: 47
Note OFF: Time 537000, Note Name: A5
Note ON: Time 537120, Note Name: D6, Velocity: 50
Note OFF: Time 537240, Note Name: D6
Note ON: Time 537360, Note Name: B5, Velocity: 46
Note OFF: Time 537480, Note Name: B5
Note ON: Time 537600, Note Name: C#5, Velocity: 42
Note ON: Time 537600, Note Name: E5, Velocity: 42
Note ON: Time 537600, Note Name: A5, Velocity: 42
Note ON: Time 537600, Note Name: C#6, Velocity: 55
Note OFF: Time 538560, Note Name: C#6
Note OFF: Time 538560, Note Name: C#5
Note OFF: Time 538560, Note Name: E5
Note OFF: Time 538560, Note Name: A5
Note ON: Time 538560, Note Name: B4, Velocity: 40
Note ON: Time 538560, Note Name: E5, Velocity: 40
Note ON: Time 538560, Note Name: G#5, Velocity: 40
Note ON: Time 538560, Note Name: B5, Velocity: 52
Note OFF: Time 539040, Note Name: B5
Note OFF: Time 539040, Note Name: B4
Note OFF: Time 539040, Note Name: E5
Note OFF: Time 539040, Note Name: G#5
Note ON: Time 539040, Note Name: A4, Velocity: 40
Note ON: Time 539040, Note Name: C#5, Velocity: 40
Note ON: Time 539040, Note Name: F#5, Velocity: 40
Note ON: Time 539040, Note Name: A5, Velocity: 52
Note OFF: Time 539520, Note Name: A5
Note OFF: Time 539520, Note Name: A4
Note OFF: Time 539520, Note Name: C#5
Note OFF: Time 539520, Note Name: F#5
Note ON: Time 539520, Note Name: G#4, Velocity: 42
Note ON: Time 539520, Note Name: B4, Velocity: 42
Note ON: Time 539520, Note Name: F5, Velocity: 42
Note ON: Time 539520, Note Name: G#5, Velocity: 55
Note OFF: Time 540480, Note Name: G#5
Note OFF: Time 540480, Note Name: G#4
Note OFF: Time 540480, Note Name: B4
Note OFF: Time 540480, Note Name: F5
Note ON: Time 540480, Note Name: D5, Velocity: 40
Note ON: Time 540480, Note Name: F#4, Velocity: 40
Note ON: Time 540480, Note Name: A4, Velocity: 40
Note ON: Time 540480, Note Name: F#5, Velocity: 52
Note OFF: Time 541440, Note Name: F#5
Note OFF: Time 541440, Note Name: D5
Note OFF: Time 541440, Note Name: F#4
Note OFF: Time 541440, Note Name: A4
Note ON: Time 541440, Note Name: G#4, Velocity: 49
Note ON: Time 541440, Note Name: D5, Velocity: 49
Note ON: Time 541440, Note Name: E5, Velocity: 49
Note ON: Time 541440, Note Name: G#5, Velocity: 63
Note OFF: Time 542400, Note Name: G#5
Note OFF: Time 542400, Note Name: G#4
Note OFF: Time 542400, Note Name: D5
Note OFF: Time 542400, Note Name: E5
Note ON: Time 542400, Note Name: A4, Velocity: 50
Note ON: Time 542400, Note Name: E5, Velocity: 50
Note ON: Time 542400, Note Name: A5, Velocity: 66
Note OFF: Time 542880, Note Name: A5
Note OFF: Time 542880, Note Name: E5
Note OFF: Time 542880, Note Name: A4
Note ON: Time 542880, Note Name: B4, Velocity: 55
Note ON: Time 542880, Note Name: F#5, Velocity: 55
Note ON: Time 542880, Note Name: A5, Velocity: 55
Note ON: Time 542880, Note Name: B5, Velocity: 72
Note OFF: Time 543360, Note Name: B5
Note OFF: Time 543360, Note Name: B4
Note OFF: Time 543360, Note Name: F#5
Note OFF: Time 543360, Note Name: A5
Note ON: Time 543360, Note Name: C#5, Velocity: 59
Note ON: Time 543360, Note Name: E5, Velocity: 59
Note ON: Time 543360, Note Name: A5, Velocity: 59
Note ON: Time 543360, Note Name: C#6, Velocity: 77
Note OFF: Time 544320, Note Name: C#6
Note OFF: Time 544320, Note Name: A5
Note OFF: Time 544320, Note Name: C#5
Note ON: Time 544320, Note Name: B4, Velocity: 33
Note ON: Time 544320, Note Name: G#5, Velocity: 32
Note ON: Time 544320, Note Name: B5, Velocity: 49
Note OFF: Time 544800, Note Name: E5
Note ON: Time 544800, Note Name: D5, Velocity: 55
Note OFF: Time 545280, Note Name: D5
Note OFF: Time 545280, Note Name: B5
Note OFF: Time 545280, Note Name: G#5
Note OFF: Time 545280, Note Name: B4
Note ON: Time 545280, Note Name: E4, Velocity: 37
Note ON: Time 545280, Note Name: A4, Velocity: 37
Note ON: Time 545280, Note Name: C5, Velocity: 45
Note OFF: Time 546240, Note Name: C5
Note OFF: Time 546240, Note Name: A4
Note OFF: Time 546240, Note Name: E4
Note ON: Time 546240, Note Name: E4, Velocity: 36
Note ON: Time 546240, Note Name: G4, Velocity: 36
Note ON: Time 546240, Note Name: B4, Velocity: 43
Note OFF: Time 546720, Note Name: B4
Note OFF: Time 546720, Note Name: G4
Note OFF: Time 546720, Note Name: E4
Note ON: Time 546720, Note Name: C4, Velocity: 36
Note ON: Time 546720, Note Name: F4, Velocity: 36
Note ON: Time 546720, Note Name: A4, Velocity: 43
Note OFF: Time 547200, Note Name: A4
Note OFF: Time 547200, Note Name: F4
Note OFF: Time 547200, Note Name: C4
Note ON: Time 547200, Note Name: C4, Velocity: 37
Note ON: Time 547200, Note Name: E4, Velocity: 37
Note ON: Time 547200, Note Name: G4, Velocity: 45
Note OFF: Time 548160, Note Name: G4
Note OFF: Time 548160, Note Name: E4
Note OFF: Time 548160, Note Name: C4
Note ON: Time 548160, Note Name: D4, Velocity: 36
Note ON: Time 548160, Note Name: A3, Velocity: 36
Note ON: Time 548160, Note Name: F4, Velocity: 43
Note OFF: Time 549120, Note Name: F4
Note OFF: Time 549120, Note Name: A3
Note OFF: Time 549120, Note Name: D4
Note ON: Time 549120, Note Name: C4, Velocity: 44
Note ON: Time 549120, Note Name: E4, Velocity: 44
Note ON: Time 549120, Note Name: G4, Velocity: 52
Note OFF: Time 549600, Note Name: E4
Note OFF: Time 549600, Note Name: C4
Note ON: Time 549600, Note Name: D4, Velocity: 45
Note ON: Time 549600, Note Name: F4, Velocity: 45
Note OFF: Time 550080, Note Name: G4
Note ON: Time 550080, Note Name: A4, Velocity: 61
Note OFF: Time 550560, Note Name: A4
Note ON: Time 550560, Note Name: B4, Velocity: 69
Note OFF: Time 551040, Note Name: B4
Note OFF: Time 551040, Note Name: F4
Note OFF: Time 551040, Note Name: D4
Note ON: Time 551040, Note Name: C4, Velocity: 41
Note ON: Time 551040, Note Name: E4, Velocity: 41
Note ON: Time 551040, Note Name: C5, Velocity: 51
Note OFF: Time 551160, Note Name: C5
Note OFF: Time 551200, Note Name: E4
Note OFF: Time 551200, Note Name: C4
Note ON: Time 551200, Note Name: D5, Velocity: 48
Note OFF: Time 551320, Note Name: D5
Note ON: Time 551360, Note Name: E5, Velocity: 49
Note OFF: Time 551480, Note Name: E5
Note ON: Time 551520, Note Name: F5, Velocity: 50
Note OFF: Time 551640, Note Name: F5
Note ON: Time 551680, Note Name: G5, Velocity: 50
Note OFF: Time 551800, Note Name: G5
Note ON: Time 551840, Note Name: A5, Velocity: 51
Note OFF: Time 551960, Note Name: A5
Note ON: Time 552000, Note Name: A#5, Velocity: 52
Note OFF: Time 552120, Note Name: A#5
Note ON: Time 552160, Note Name: B5, Velocity: 48
Note OFF: Time 552280, Note Name: B5
Note ON: Time 552320, Note Name: C6, Velocity: 49
Note OFF: Time 552440, Note Name: C6
Note ON: Time 552480, Note Name: C#6, Velocity: 51
Note OFF: Time 552600, Note Name: C#6
Note ON: Time 552640, Note Name: D6, Velocity: 53
Note OFF: Time 552760, Note Name: D6
Note ON: Time 552800, Note Name: D#6, Velocity: 54
Note OFF: Time 552920, Note Name: D#6
Note ON: Time 552960, Note Name: C6, Velocity: 48
Note ON: Time 552960, Note Name: E6, Velocity: 58
Note OFF: Time 553120, Note Name: E6
Note ON: Time 553120, Note Name: D#6, Velocity: 53
Note OFF: Time 553280, Note Name: D#6
Note ON: Time 553280, Note Name: E6, Velocity: 53
Note OFF: Time 553440, Note Name: E6
Note ON: Time 553440, Note Name: F6, Velocity: 53
Note OFF: Time 553600, Note Name: F6
Note ON: Time 553600, Note Name: D#6, Velocity: 53
Note OFF: Time 553760, Note Name: D#6
Note ON: Time 553760, Note Name: E6, Velocity: 53
Note OFF: Time 553920, Note Name: E6
Note OFF: Time 553920, Note Name: C6
Note ON: Time 553920, Note Name: B5, Velocity: 60
Note ON: Time 554080, Note Name: E6, Velocity: 54
Note OFF: Time 554240, Note Name: E6
Note ON: Time 554240, Note Name: D6, Velocity: 54
Note OFF: Time 554400, Note Name: D6
Note OFF: Time 554400, Note Name: B5
Note ON: Time 554400, Note Name: E5, Velocity: 60
Note ON: Time 554560, Note Name: D6, Velocity: 53
Note OFF: Time 554720, Note Name: D6
Note ON: Time 554720, Note Name: C6, Velocity: 53
Note OFF: Time 554880, Note Name: C6
Note OFF: Time 554880, Note Name: E5
Note ON: Time 554880, Note Name: G#5, Velocity: 60
Note ON: Time 555040, Note Name: A#5, Velocity: 54
Note OFF: Time 555200, Note Name: A#5
Note ON: Time 555200, Note Name: B5, Velocity: 54
Note OFF: Time 555360, Note Name: B5
Note ON: Time 555360, Note Name: C6, Velocity: 54
Note OFF: Time 555520, Note Name: C6
Note ON: Time 555520, Note Name: A#5, Velocity: 54
Note OFF: Time 555680, Note Name: A#5
Note ON: Time 555680, Note Name: B5, Velocity: 54
Note OFF: Time 555840, Note Name: B5
Note OFF: Time 555840, Note Name: G#5
Note ON: Time 555840, Note Name: F5, Velocity: 60
Note ON: Time 556000, Note Name: G#5, Velocity: 54
Note OFF: Time 556160, Note Name: G#5
Note ON: Time 556160, Note Name: A5, Velocity: 54
Note OFF: Time 556320, Note Name: A5
Note ON: Time 556320, Note Name: B5, Velocity: 54
Note OFF: Time 556480, Note Name: B5
Note ON: Time 556480, Note Name: G#5, Velocity: 54
Note OFF: Time 556640, Note Name: G#5
Note ON: Time 556640, Note Name: A5, Velocity: 54
Note OFF: Time 556800, Note Name: A5
Note OFF: Time 556800, Note Name: F5
Note ON: Time 556800, Note Name: F5, Velocity: 62
Note ON: Time 556960, Note Name: A#5, Velocity: 62
Note OFF: Time 557120, Note Name: A#5
Note ON: Time 557120, Note Name: B5, Velocity: 57
Note OFF: Time 557280, Note Name: B5
Note ON: Time 557280, Note Name: C6, Velocity: 57
Note OFF: Time 557440, Note Name: C6
Note ON: Time 557440, Note Name: A#5, Velocity: 59
Note OFF: Time 557600, Note Name: A#5
Note ON: Time 557600, Note Name: B5, Velocity: 59
Note OFF: Time 557760, Note Name: B5
Note OFF: Time 557760, Note Name: F5
Note ON: Time 557760, Note Name: G5, Velocity: 71
Note ON: Time 557920, Note Name: D6, Velocity: 63
Note OFF: Time 558080, Note Name: D6
Note ON: Time 558080, Note Name: C6, Velocity: 64
Note OFF: Time 558240, Note Name: C6
Note OFF: Time 558240, Note Name: G5
Note ON: Time 558240, Note Name: A5, Velocity: 74
Note ON: Time 558400, Note Name: E6, Velocity: 65
Note OFF: Time 558560, Note Name: E6
Note ON: Time 558560, Note Name: D6, Velocity: 65
Note OFF: Time 558720, Note Name: D6
Note OFF: Time 558720, Note Name: A5
Note ON: Time 558720, Note Name: E6, Velocity: 79
Note ON: Time 558720, Note Name: C6, Velocity: 79
Note OFF: Time 558880, Note Name: E6
Note ON: Time 558880, Note Name: D#6, Velocity: 72
Note OFF: Time 559040, Note Name: D#6
Note ON: Time 559040, Note Name: E6, Velocity: 72
Note OFF: Time 559200, Note Name: E6
Note ON: Time 559200, Note Name: G6, Velocity: 68
Note OFF: Time 559360, Note Name: G6
Note ON: Time 559360, Note Name: F6, Velocity: 72
Note OFF: Time 559520, Note Name: F6
Note ON: Time 559520, Note Name: E6, Velocity: 69
Note OFF: Time 559680, Note Name: E6
Note OFF: Time 559680, Note Name: C6
Note ON: Time 559680, Note Name: B5, Velocity: 67
Note ON: Time 559680, Note Name: D6, Velocity: 67
Note OFF: Time 559840, Note Name: D6
Note OFF: Time 559840, Note Name: B5
Note ON: Time 559840, Note Name: A5, Velocity: 64
Note ON: Time 559840, Note Name: C6, Velocity: 64
Note OFF: Time 560000, Note Name: C6
Note OFF: Time 560000, Note Name: A5
Note ON: Time 560000, Note Name: B5, Velocity: 60
Note ON: Time 560000, Note Name: G5, Velocity: 60
Note OFF: Time 560160, Note Name: G5
Note OFF: Time 560160, Note Name: B5
Note ON: Time 560160, Note Name: F5, Velocity: 60
Note ON: Time 560160, Note Name: A5, Velocity: 60
Note OFF: Time 560320, Note Name: A5
Note OFF: Time 560320, Note Name: F5
Note ON: Time 560320, Note Name: E5, Velocity: 56
Note ON: Time 560320, Note Name: G5, Velocity: 56
Note OFF: Time 560480, Note Name: G5
Note OFF: Time 560480, Note Name: E5
Note ON: Time 560480, Note Name: D5, Velocity: 53
Note ON: Time 560480, Note Name: F5, Velocity: 53
Note OFF: Time 560640, Note Name: F5
Note OFF: Time 560640, Note Name: D5
Note ON: Time 560640, Note Name: G4, Velocity: 57
Note ON: Time 560640, Note Name: E5, Velocity: 57
Note OFF: Time 560800, Note Name: E5
Note ON: Time 560800, Note Name: D#5, Velocity: 49
Note OFF: Time 560960, Note Name: D#5
Note ON: Time 560960, Note Name: E5, Velocity: 49
Note OFF: Time 561120, Note Name: E5
Note ON: Time 561120, Note Name: F5, Velocity: 49
Note OFF: Time 561280, Note Name: F5
Note ON: Time 561280, Note Name: D#5, Velocity: 49
Note OFF: Time 561440, Note Name: D#5
Note ON: Time 561440, Note Name: E5, Velocity: 49
Note OFF: Time 561600, Note Name: E5
Note OFF: Time 561600, Note Name: G4
Note ON: Time 561600, Note Name: F4, Velocity: 56
Note ON: Time 561760, Note Name: E5, Velocity: 50
Note OFF: Time 561920, Note Name: E5
Note ON: Time 561920, Note Name: D5, Velocity: 50
Note OFF: Time 562080, Note Name: D5
Note OFF: Time 562080, Note Name: F4
Note ON: Time 562080, Note Name: E4, Velocity: 56
Note ON: Time 562240, Note Name: D5, Velocity: 49
Note OFF: Time 562400, Note Name: D5
Note ON: Time 562400, Note Name: C5, Velocity: 49
Note OFF: Time 562560, Note Name: C5
Note OFF: Time 562560, Note Name: E4
Note ON: Time 562720, Note Name: A#4, Velocity: 50
Note OFF: Time 562880, Note Name: A#4
Note ON: Time 562880, Note Name: B4, Velocity: 50
Note OFF: Time 563040, Note Name: B4
Note ON: Time 563040, Note Name: C5, Velocity: 53
Note OFF: Time 563200, Note Name: C5
Note ON: Time 563200, Note Name: A#4, Velocity: 50
Note OFF: Time 563360, Note Name: A#4
Note ON: Time 563360, Note Name: B4, Velocity: 50
Note OFF: Time 563520, Note Name: B4
Note ON: Time 563680, Note Name: G#4, Velocity: 50
Note OFF: Time 563840, Note Name: G#4
Note ON: Time 563840, Note Name: A4, Velocity: 50
Note OFF: Time 564000, Note Name: A4
Note ON: Time 564000, Note Name: B4, Velocity: 53
Note OFF: Time 564160, Note Name: B4
Note ON: Time 564160, Note Name: G#4, Velocity: 50
Note OFF: Time 564320, Note Name: G#4
Note ON: Time 564320, Note Name: A4, Velocity: 50
Note OFF: Time 564480, Note Name: A4
Note ON: Time 564480, Note Name: C4, Velocity: 60
Note OFF: Time 564640, Note Name: C4
Note ON: Time 564640, Note Name: E4, Velocity: 56
Note OFF: Time 564800, Note Name: E4
Note ON: Time 564800, Note Name: G4, Velocity: 57
Note OFF: Time 564960, Note Name: G4
Note ON: Time 564960, Note Name: D4, Velocity: 66
Note OFF: Time 565120, Note Name: D4
Note ON: Time 565120, Note Name: F4, Velocity: 61
Note OFF: Time 565280, Note Name: F4
Note ON: Time 565280, Note Name: G4, Velocity: 61
Note OFF: Time 565440, Note Name: G4
Note ON: Time 565440, Note Name: D4, Velocity: 74
Note OFF: Time 565600, Note Name: D4
Note ON: Time 565600, Note Name: F4, Velocity: 67
Note OFF: Time 565760, Note Name: F4
Note ON: Time 565760, Note Name: A4, Velocity: 65
Note OFF: Time 565920, Note Name: A4
Note ON: Time 565920, Note Name: D4, Velocity: 80
Note OFF: Time 566080, Note Name: D4
Note ON: Time 566080, Note Name: F4, Velocity: 71
Note OFF: Time 566240, Note Name: F4
Note ON: Time 566240, Note Name: B4, Velocity: 70
Note OFF: Time 566400, Note Name: B4
Note ON: Time 566400, Note Name: E4, Velocity: 77
Note ON: Time 566400, Note Name: C5, Velocity: 82
Note OFF: Time 566560, Note Name: C5
Note OFF: Time 566560, Note Name: E4
Note ON: Time 566560, Note Name: G3, Velocity: 75
Note OFF: Time 566720, Note Name: G3
Note ON: Time 566720, Note Name: E3, Velocity: 77
Note OFF: Time 566880, Note Name: E3
Note ON: Time 566880, Note Name: G3, Velocity: 82
Note OFF: Time 567040, Note Name: G3
Note ON: Time 567040, Note Name: C4, Velocity: 77
Note OFF: Time 567200, Note Name: C4
Note ON: Time 567200, Note Name: E4, Velocity: 77
Note OFF: Time 567360, Note Name: E4
Note ON: Time 567360, Note Name: D4, Velocity: 82
Note OFF: Time 567520, Note Name: D4
Note ON: Time 567520, Note Name: B3, Velocity: 77
Note OFF: Time 567680, Note Name: B3
Note ON: Time 567680, Note Name: G3, Velocity: 77
Note OFF: Time 567840, Note Name: G3
Note ON: Time 567840, Note Name: B3, Velocity: 82
Note OFF: Time 568000, Note Name: B3
Note ON: Time 568000, Note Name: D4, Velocity: 77
Note OFF: Time 568160, Note Name: D4
Note ON: Time 568160, Note Name: F4, Velocity: 77
Note OFF: Time 568320, Note Name: F4
Note ON: Time 568320, Note Name: E4, Velocity: 82
Note OFF: Time 568480, Note Name: E4
Note ON: Time 568480, Note Name: C4, Velocity: 75
Note OFF: Time 568640, Note Name: C4
Note ON: Time 568640, Note Name: G3, Velocity: 77
Note OFF: Time 568800, Note Name: G3
Note ON: Time 568800, Note Name: C4, Velocity: 82
Note OFF: Time 568960, Note Name: C4
Note ON: Time 568960, Note Name: E4, Velocity: 77
Note OFF: Time 569120, Note Name: E4
Note ON: Time 569120, Note Name: G4, Velocity: 77
Note OFF: Time 569280, Note Name: G4
Note ON: Time 569280, Note Name: F4, Velocity: 82
Note OFF: Time 569440, Note Name: F4
Note ON: Time 569440, Note Name: D4, Velocity: 77
Note OFF: Time 569600, Note Name: D4
Note ON: Time 569600, Note Name: B3, Velocity: 77
Note OFF: Time 569760, Note Name: B3
Note ON: Time 569760, Note Name: B4, Velocity: 82
Note OFF: Time 569920, Note Name: B4
Note ON: Time 569920, Note Name: F4, Velocity: 77
Note OFF: Time 570080, Note Name: F4
Note ON: Time 570080, Note Name: D4, Velocity: 77
Note OFF: Time 570240, Note Name: D4
Note ON: Time 570240, Note Name: E4, Velocity: 63
Note ON: Time 570240, Note Name: C5, Velocity: 75
Note OFF: Time 570720, Note Name: C5
Note OFF: Time 570720, Note Name: E4
Note ON: Time 570720, Note Name: G4, Velocity: 75
Note OFF: Time 571680, Note Name: G4
Note ON: Time 571680, Note Name: G4, Velocity: 75
Note OFF: Time 572640, Note Name: G4
Note ON: Time 572640, Note Name: G4, Velocity: 75
Note OFF: Time 573600, Note Name: G4
Note ON: Time 573600, Note Name: G4, Velocity: 75
Note OFF: Time 574080, Note Name: G4
Note ON: Time 574080, Note Name: C5, Velocity: 82
Note OFF: Time 574240, Note Name: C5
Note ON: Time 574240, Note Name: G4, Velocity: 75
Note OFF: Time 574400, Note Name: G4
Note ON: Time 574400, Note Name: E4, Velocity: 77
Note OFF: Time 574560, Note Name: E4
Note ON: Time 574560, Note Name: G4, Velocity: 82
Note OFF: Time 574720, Note Name: G4
Note ON: Time 574720, Note Name: C5, Velocity: 77
Note OFF: Time 574880, Note Name: C5
Note ON: Time 574880, Note Name: E5, Velocity: 77
Note OFF: Time 575040, Note Name: E5
Note ON: Time 575040, Note Name: D5, Velocity: 82
Note OFF: Time 575200, Note Name: D5
Note ON: Time 575200, Note Name: B4, Velocity: 77
Note OFF: Time 575360, Note Name: B4
Note ON: Time 575360, Note Name: G4, Velocity: 77
Note OFF: Time 575520, Note Name: G4
Note ON: Time 575520, Note Name: B4, Velocity: 82
Note OFF: Time 575680, Note Name: B4
Note ON: Time 575680, Note Name: D5, Velocity: 77
Note OFF: Time 575840, Note Name: D5
Note ON: Time 575840, Note Name: F5, Velocity: 77
Note OFF: Time 576000, Note Name: F5
Note ON: Time 576000, Note Name: E5, Velocity: 82
Note OFF: Time 576160, Note Name: E5
Note ON: Time 576160, Note Name: C5, Velocity: 75
Note OFF: Time 576320, Note Name: C5
Note ON: Time 576320, Note Name: G4, Velocity: 77
Note OFF: Time 576480, Note Name: G4
Note ON: Time 576480, Note Name: C5, Velocity: 82
Note OFF: Time 576640, Note Name: C5
Note ON: Time 576640, Note Name: E5, Velocity: 77
Note OFF: Time 576800, Note Name: E5
Note ON: Time 576800, Note Name: G5, Velocity: 77
Note OFF: Time 576960, Note Name: G5
Note ON: Time 576960, Note Name: F5, Velocity: 82
Note OFF: Time 577120, Note Name: F5
Note ON: Time 577120, Note Name: D5, Velocity: 77
Note OFF: Time 577280, Note Name: D5
Note ON: Time 577280, Note Name: B4, Velocity: 77
Note OFF: Time 577440, Note Name: B4
Note ON: Time 577440, Note Name: B5, Velocity: 82
Note OFF: Time 577600, Note Name: B5
Note ON: Time 577600, Note Name: F5, Velocity: 77
Note OFF: Time 577760, Note Name: F5
Note ON: Time 577760, Note Name: D5, Velocity: 77
Note OFF: Time 577920, Note Name: D5
Note ON: Time 577920, Note Name: C6, Velocity: 82
Note ON: Time 578080, Note Name: G5, Velocity: 74
Note OFF: Time 578160, Note Name: C6
Note OFF: Time 578240, Note Name: G5
Note ON: Time 578240, Note Name: E5, Velocity: 74
Note OFF: Time 578400, Note Name: E5
Note ON: Time 578400, Note Name: G5, Velocity: 79
Note ON: Time 578560, Note Name: E5, Velocity: 73
Note OFF: Time 578640, Note Name: G5
Note OFF: Time 578720, Note Name: E5
Note ON: Time 578720, Note Name: C5, Velocity: 72
Note OFF: Time 578880, Note Name: C5
Note ON: Time 578880, Note Name: F5, Velocity: 77
Note ON: Time 579040, Note Name: D5, Velocity: 71
Note OFF: Time 579120, Note Name: F5
Note OFF: Time 579200, Note Name: D5
Note ON: Time 579200, Note Name: B4, Velocity: 70
Note OFF: Time 579360, Note Name: B4
Note ON: Time 579360, Note Name: B5, Velocity: 74
Note ON: Time 579520, Note Name: G5, Velocity: 69
Note OFF: Time 579600, Note Name: B5
Note OFF: Time 579680, Note Name: G5
Note ON: Time 579680, Note Name: D5, Velocity: 67
Note OFF: Time 579840, Note Name: D5
Note ON: Time 579840, Note Name: C6, Velocity: 72
Note ON: Time 580000, Note Name: G5, Velocity: 65
Note OFF: Time 580080, Note Name: C6
Note OFF: Time 580160, Note Name: G5
Note ON: Time 580160, Note Name: E5, Velocity: 65
Note OFF: Time 580320, Note Name: E5
Note ON: Time 580320, Note Name: G5, Velocity: 70
Note ON: Time 580480, Note Name: E5, Velocity: 64
Note OFF: Time 580560, Note Name: G5
Note OFF: Time 580640, Note Name: E5
Note ON: Time 580640, Note Name: C5, Velocity: 63
Note OFF: Time 580800, Note Name: C5
Note ON: Time 580800, Note Name: F5, Velocity: 67
Note ON: Time 580960, Note Name: D5, Velocity: 62
Note OFF: Time 581040, Note Name: F5
Note OFF: Time 581120, Note Name: D5
Note ON: Time 581120, Note Name: B4, Velocity: 60
Note OFF: Time 581280, Note Name: B4
Note ON: Time 581280, Note Name: B5, Velocity: 64
Note ON: Time 581440, Note Name: G5, Velocity: 59
Note OFF: Time 581520, Note Name: B5
Note OFF: Time 581600, Note Name: G5
Note ON: Time 581600, Note Name: D5, Velocity: 58
Note OFF: Time 581760, Note Name: D5
Note ON: Time 581760, Note Name: C6, Velocity: 64
Note OFF: Time 581880, Note Name: C6
Note ON: Time 581880, Note Name: G5, Velocity: 58
Note OFF: Time 582000, Note Name: G5
Note ON: Time 582000, Note Name: E5, Velocity: 58
Note OFF: Time 582120, Note Name: E5
Note ON: Time 582120, Note Name: C5, Velocity: 59
Note OFF: Time 582240, Note Name: C5
Note ON: Time 582240, Note Name: F5, Velocity: 65
Note OFF: Time 582360, Note Name: F5
Note ON: Time 582360, Note Name: D5, Velocity: 59
Note OFF: Time 582480, Note Name: D5
Note ON: Time 582480, Note Name: B5, Velocity: 62
Note OFF: Time 582600, Note Name: B5
Note ON: Time 582600, Note Name: G5, Velocity: 63
Note OFF: Time 582720, Note Name: G5
Note ON: Time 582720, Note Name: C6, Velocity: 69
Note OFF: Time 582840, Note Name: C6
Note ON: Time 582840, Note Name: G5, Velocity: 63
Note OFF: Time 582960, Note Name: G5
Note ON: Time 582960, Note Name: E5, Velocity: 63
Note OFF: Time 583080, Note Name: E5
Note ON: Time 583080, Note Name: C5, Velocity: 64
Note OFF: Time 583200, Note Name: C5
Note ON: Time 583200, Note Name: F5, Velocity: 71
Note OFF: Time 583320, Note Name: F5
Note ON: Time 583320, Note Name: D5, Velocity: 66
Note OFF: Time 583440, Note Name: D5
Note ON: Time 583440, Note Name: B5, Velocity: 67
Note OFF: Time 583560, Note Name: B5
Note ON: Time 583560, Note Name: G5, Velocity: 67
Note OFF: Time 583680, Note Name: G5
Note ON: Time 583680, Note Name: C6, Velocity: 74
Note OFF: Time 583800, Note Name: C6
Note ON: Time 583800, Note Name: G5, Velocity: 67
Note OFF: Time 583920, Note Name: G5
Note ON: Time 583920, Note Name: B5, Velocity: 69
Note OFF: Time 584040, Note Name: B5
Note ON: Time 584040, Note Name: G5, Velocity: 69
Note OFF: Time 584160, Note Name: G5
Note ON: Time 584160, Note Name: C6, Velocity: 77
Note OFF: Time 584280, Note Name: C6
Note ON: Time 584280, Note Name: G5, Velocity: 77
Note OFF: Time 584400, Note Name: G5
Note ON: Time 584400, Note Name: B5, Velocity: 72
Note OFF: Time 584520, Note Name: B5
Note ON: Time 584520, Note Name: G5, Velocity: 73
Note OFF: Time 584640, Note Name: G5
Note ON: Time 584640, Note Name: C6, Velocity: 80
Note OFF: Time 584760, Note Name: C6
Note ON: Time 584760, Note Name: G5, Velocity: 73
Note OFF: Time 584880, Note Name: G5
Note ON: Time 584880, Note Name: B5, Velocity: 74
Note OFF: Time 585000, Note Name: B5
Note ON: Time 585000, Note Name: G5, Velocity: 74
Note OFF: Time 585120, Note Name: G5
Note ON: Time 585120, Note Name: C6, Velocity: 82
Note OFF: Time 585240, Note Name: C6
Note ON: Time 585240, Note Name: G5, Velocity: 85
Note OFF: Time 585360, Note Name: G5
Note ON: Time 585360, Note Name: B5, Velocity: 78
Note OFF: Time 585480, Note Name: B5
Note ON: Time 585480, Note Name: G5, Velocity: 79
Note OFF: Time 585600, Note Name: G5
Note ON: Time 585600, Note Name: C6, Velocity: 89
Note OFF: Time 585720, Note Name: C6
Note ON: Time 585720, Note Name: G5, Velocity: 81
Note OFF: Time 585840, Note Name: G5
Note ON: Time 585840, Note Name: A#5, Velocity: 81
Note OFF: Time 585960, Note Name: A#5
Note ON: Time 585960, Note Name: G5, Velocity: 81
Note OFF: Time 586080, Note Name: G5
Note ON: Time 586080, Note Name: A#5, Velocity: 89
Note OFF: Time 586200, Note Name: A#5
Note ON: Time 586200, Note Name: G5, Velocity: 83
Note OFF: Time 586320, Note Name: G5
Note ON: Time 586320, Note Name: A#5, Velocity: 82
Note OFF: Time 586440, Note Name: A#5
Note ON: Time 586440, Note Name: G5, Velocity: 82
Note OFF: Time 586560, Note Name: G5
Note ON: Time 586560, Note Name: A#5, Velocity: 89
Note OFF: Time 586680, Note Name: A#5
Note ON: Time 586680, Note Name: G5, Velocity: 81
Note OFF: Time 586800, Note Name: G5
Note ON: Time 586800, Note Name: A#5, Velocity: 81
Note OFF: Time 586920, Note Name: A#5
Note ON: Time 586920, Note Name: G5, Velocity: 81
Note OFF: Time 587040, Note Name: G5
Note ON: Time 587040, Note Name: A#5, Velocity: 89
Note OFF: Time 587160, Note Name: A#5
Note ON: Time 587160, Note Name: G5, Velocity: 83
Note OFF: Time 587280, Note Name: G5
Note ON: Time 587280, Note Name: A#5, Velocity: 82
Note OFF: Time 587400, Note Name: A#5
Note ON: Time 587400, Note Name: G5, Velocity: 82
Note OFF: Time 587520, Note Name: G5
Note ON: Time 587520, Note Name: A#5, Velocity: 89
Note OFF: Time 587760, Note Name: A#5
Note ON: Time 587760, Note Name: A5, Velocity: 81
Note OFF: Time 587880, Note Name: A5
Note ON: Time 587880, Note Name: G5, Velocity: 81
Note OFF: Time 588000, Note Name: G5
Note ON: Time 588000, Note Name: F5, Velocity: 84
Note OFF: Time 588120, Note Name: F5
Note ON: Time 588120, Note Name: E5, Velocity: 78
Note OFF: Time 588240, Note Name: E5
Note ON: Time 588240, Note Name: D5, Velocity: 78
Note OFF: Time 588360, Note Name: D5
Note ON: Time 588360, Note Name: C5, Velocity: 80
Note OFF: Time 588480, Note Name: C5
Note ON: Time 588480, Note Name: A#4, Velocity: 84
Note OFF: Time 588600, Note Name: A#4
Note ON: Time 588600, Note Name: A4, Velocity: 80
Note OFF: Time 588720, Note Name: A4
Note ON: Time 588720, Note Name: G4, Velocity: 80
Note OFF: Time 588840, Note Name: G4
Note ON: Time 588840, Note Name: F4, Velocity: 81
Note OFF: Time 588960, Note Name: F4
Note ON: Time 588960, Note Name: E4, Velocity: 86
Note OFF: Time 589080, Note Name: E4
Note ON: Time 589080, Note Name: D4, Velocity: 84
Note OFF: Time 589200, Note Name: D4
Note ON: Time 589200, Note Name: C4, Velocity: 85
Note OFF: Time 589320, Note Name: C4
Note ON: Time 589320, Note Name: A#3, Velocity: 85
Note OFF: Time 589440, Note Name: A#3
Note ON: Time 589440, Note Name: A3, Velocity: 93
Note OFF: Time 589560, Note Name: A3
Note ON: Time 589560, Note Name: B3, Velocity: 81
Note OFF: Time 589680, Note Name: B3
Note ON: Time 589680, Note Name: C4, Velocity: 81
Note OFF: Time 589800, Note Name: C4
Note ON: Time 589800, Note Name: B3, Velocity: 81
Note OFF: Time 589920, Note Name: B3
Note ON: Time 589920, Note Name: C4, Velocity: 92
Note OFF: Time 590040, Note Name: C4
Note ON: Time 590040, Note Name: E4, Velocity: 81
Note OFF: Time 590160, Note Name: E4
Note ON: Time 590160, Note Name: F4, Velocity: 81
Note OFF: Time 590280, Note Name: F4
Note ON: Time 590280, Note Name: E4, Velocity: 82
Note OFF: Time 590400, Note Name: E4
Note ON: Time 590400, Note Name: F4, Velocity: 93
Note OFF: Time 590520, Note Name: F4
Note ON: Time 590520, Note Name: G#4, Velocity: 80
Note OFF: Time 590640, Note Name: G#4
Note ON: Time 590640, Note Name: A4, Velocity: 80
Note OFF: Time 590760, Note Name: A4
Note ON: Time 590760, Note Name: G#4, Velocity: 81
Note OFF: Time 590880, Note Name: G#4
Note ON: Time 590880, Note Name: A4, Velocity: 93
Note OFF: Time 591000, Note Name: A4
Note ON: Time 591000, Note Name: B4, Velocity: 83
Note OFF: Time 591120, Note Name: B4
Note ON: Time 591120, Note Name: C5, Velocity: 83
Note OFF: Time 591240, Note Name: C5
Note ON: Time 591240, Note Name: B4, Velocity: 83
Note OFF: Time 591360, Note Name: B4
Note ON: Time 591360, Note Name: C5, Velocity: 95
Note OFF: Time 591480, Note Name: C5
Note ON: Time 591480, Note Name: E5, Velocity: 84
Note OFF: Time 591600, Note Name: E5
Note ON: Time 591600, Note Name: F5, Velocity: 84
Note OFF: Time 591720, Note Name: F5
Note ON: Time 591720, Note Name: E5, Velocity: 84
Note OFF: Time 591840, Note Name: E5
Note ON: Time 591840, Note Name: F5, Velocity: 95
Note OFF: Time 591960, Note Name: F5
Note ON: Time 591960, Note Name: G#5, Velocity: 82
Note OFF: Time 592080, Note Name: G#5
Note ON: Time 592080, Note Name: A5, Velocity: 82
Note OFF: Time 592200, Note Name: A5
Note ON: Time 592200, Note Name: G#5, Velocity: 82
Note OFF: Time 592320, Note Name: G#5
Note ON: Time 592320, Note Name: A5, Velocity: 95
Note OFF: Time 592440, Note Name: A5
Note ON: Time 592440, Note Name: B5, Velocity: 82
Note OFF: Time 592560, Note Name: B5
Note ON: Time 592560, Note Name: C6, Velocity: 82
Note OFF: Time 592680, Note Name: C6
Note ON: Time 592680, Note Name: B5, Velocity: 82
Note OFF: Time 592800, Note Name: B5
Note ON: Time 592800, Note Name: C6, Velocity: 95
Note OFF: Time 592920, Note Name: C6
Note ON: Time 592920, Note Name: B5, Velocity: 82
Note OFF: Time 593040, Note Name: B5
Note ON: Time 593040, Note Name: A5, Velocity: 83
Note OFF: Time 593160, Note Name: A5
Note ON: Time 593160, Note Name: G#5, Velocity: 83
Note OFF: Time 593280, Note Name: G#5
Note ON: Time 593280, Note Name: A5, Velocity: 95
Note OFF: Time 593400, Note Name: A5
Note ON: Time 593400, Note Name: G#5, Velocity: 83
Note OFF: Time 593520, Note Name: G#5
Note ON: Time 593520, Note Name: A5, Velocity: 83
Note OFF: Time 593640, Note Name: A5
Note ON: Time 593640, Note Name: B5, Velocity: 83
Note OFF: Time 593760, Note Name: B5
Note ON: Time 593760, Note Name: C6, Velocity: 95
Note OFF: Time 593880, Note Name: C6
Note ON: Time 593880, Note Name: B5, Velocity: 85
Note OFF: Time 594000, Note Name: B5
Note ON: Time 594000, Note Name: A5, Velocity: 85
Note OFF: Time 594120, Note Name: A5
Note ON: Time 594120, Note Name: G#5, Velocity: 85
Note OFF: Time 594240, Note Name: G#5
Note ON: Time 594240, Note Name: A5, Velocity: 95
Note OFF: Time 594360, Note Name: A5
Note ON: Time 594360, Note Name: G#5, Velocity: 84
Note OFF: Time 594480, Note Name: G#5
Note ON: Time 594480, Note Name: A5, Velocity: 84
Note OFF: Time 594600, Note Name: A5
Note ON: Time 594600, Note Name: B5, Velocity: 84
Note OFF: Time 594720, Note Name: B5
Note ON: Time 594720, Note Name: C6, Velocity: 95
Note OFF: Time 594840, Note Name: C6
Note ON: Time 594840, Note Name: B5, Velocity: 84
Note OFF: Time 594960, Note Name: B5
Note ON: Time 594960, Note Name: A5, Velocity: 84
Note OFF: Time 595080, Note Name: A5
Note ON: Time 595080, Note Name: G#5, Velocity: 84
Note OFF: Time 595200, Note Name: G#5
Note ON: Time 595200, Note Name: A5, Velocity: 95
Note OFF: Time 595320, Note Name: A5
Note ON: Time 595320, Note Name: G#5, Velocity: 84
Note OFF: Time 595440, Note Name: G#5
Note ON: Time 595440, Note Name: A5, Velocity: 84
Note OFF: Time 595560, Note Name: A5
Note ON: Time 595560, Note Name: B5, Velocity: 84
Note OFF: Time 595680, Note Name: B5
Note ON: Time 595680, Note Name: C6, Velocity: 95
Note OFF: Time 595800, Note Name: C6
Note ON: Time 595800, Note Name: B5, Velocity: 83
Note OFF: Time 595920, Note Name: B5
Note ON: Time 595920, Note Name: A5, Velocity: 83
Note OFF: Time 596040, Note Name: A5
Note ON: Time 596040, Note Name: G#5, Velocity: 83
Note OFF: Time 596160, Note Name: G#5
Note ON: Time 596160, Note Name: A5, Velocity: 95
Note OFF: Time 596280, Note Name: A5
Note ON: Time 596280, Note Name: G#5, Velocity: 83
Note OFF: Time 596400, Note Name: G#5
Note ON: Time 596400, Note Name: A5, Velocity: 83
Note OFF: Time 596520, Note Name: A5
Note ON: Time 596520, Note Name: B5, Velocity: 83
Note OFF: Time 596640, Note Name: B5
Note ON: Time 596640, Note Name: C6, Velocity: 95
Note OFF: Time 596760, Note Name: C6
Note ON: Time 596760, Note Name: B5, Velocity: 84
Note OFF: Time 596880, Note Name: B5
Note ON: Time 596880, Note Name: C6, Velocity: 84
Note OFF: Time 597000, Note Name: C6
Note ON: Time 597000, Note Name: A5, Velocity: 86
Note OFF: Time 597120, Note Name: A5
Note ON: Time 597120, Note Name: G4, Velocity: 87
Note ON: Time 597120, Note Name: G5, Velocity: 103
Note OFF: Time 597240, Note Name: G5
Note OFF: Time 597240, Note Name: G4
Note ON: Time 597360, Note Name: G4, Velocity: 73
Note ON: Time 597360, Note Name: G5, Velocity: 87
Note OFF: Time 597480, Note Name: G5
Note OFF: Time 597480, Note Name: G4
Note ON: Time 597600, Note Name: E4, Velocity: 74
Note ON: Time 597600, Note Name: E5, Velocity: 88
Note OFF: Time 597720, Note Name: E5
Note OFF: Time 597720, Note Name: E4
Note ON: Time 597840, Note Name: C4, Velocity: 73
Note ON: Time 597840, Note Name: C5, Velocity: 87
Note OFF: Time 597960, Note Name: C5
Note OFF: Time 597960, Note Name: C4
Note ON: Time 598080, Note Name: C5, Velocity: 87
Note ON: Time 598080, Note Name: C6, Velocity: 103
Note OFF: Time 598200, Note Name: C6
Note OFF: Time 598200, Note Name: C5
Note ON: Time 598320, Note Name: C5, Velocity: 73
Note ON: Time 598320, Note Name: C6, Velocity: 87
Note OFF: Time 598440, Note Name: C6
Note OFF: Time 598440, Note Name: C5
Note ON: Time 598560, Note Name: G4, Velocity: 73
Note ON: Time 598560, Note Name: G5, Velocity: 87
Note OFF: Time 598680, Note Name: G5
Note OFF: Time 598680, Note Name: G4
Note ON: Time 598800, Note Name: E4, Velocity: 73
Note ON: Time 598800, Note Name: E5, Velocity: 87
Note OFF: Time 598920, Note Name: E5
Note OFF: Time 598920, Note Name: E4
Note ON: Time 599040, Note Name: G4, Velocity: 87
Note ON: Time 599040, Note Name: G5, Velocity: 103
Note OFF: Time 599160, Note Name: G5
Note OFF: Time 599160, Note Name: G4
Note ON: Time 599280, Note Name: G4, Velocity: 73
Note ON: Time 599280, Note Name: G5, Velocity: 87
Note OFF: Time 599400, Note Name: G5
Note OFF: Time 599400, Note Name: G4
Note ON: Time 599520, Note Name: E4, Velocity: 74
Note ON: Time 599520, Note Name: E5, Velocity: 88
Note OFF: Time 599640, Note Name: E5
Note OFF: Time 599640, Note Name: E4
Note ON: Time 599760, Note Name: C4, Velocity: 73
Note ON: Time 599760, Note Name: C5, Velocity: 87
Note OFF: Time 599880, Note Name: C5
Note OFF: Time 599880, Note Name: C4
Note ON: Time 600000, Note Name: C5, Velocity: 87
Note ON: Time 600000, Note Name: C6, Velocity: 103
Note OFF: Time 600120, Note Name: C6
Note OFF: Time 600120, Note Name: C5
Note ON: Time 600240, Note Name: C5, Velocity: 73
Note ON: Time 600240, Note Name: C6, Velocity: 87
Note OFF: Time 600360, Note Name: C6
Note OFF: Time 600360, Note Name: C5
Note ON: Time 600480, Note Name: G4, Velocity: 73
Note ON: Time 600480, Note Name: G5, Velocity: 87
Note OFF: Time 600600, Note Name: G5
Note OFF: Time 600600, Note Name: G4
Note ON: Time 600720, Note Name: E4, Velocity: 73
Note ON: Time 600720, Note Name: E5, Velocity: 87
Note OFF: Time 600840, Note Name: E5
Note OFF: Time 600840, Note Name: E4
Note ON: Time 601080, Note Name: C6, Velocity: 47
Note OFF: Time 601200, Note Name: C6
Note ON: Time 601200, Note Name: E6, Velocity: 50
Note OFF: Time 601319, Note Name: E6
Note ON: Time 601320, Note Name: C6, Velocity: 47
Note OFF: Time 601440, Note Name: C6
Note ON: Time 601440, Note Name: G6, Velocity: 51
Note OFF: Time 601559, Note Name: G6
Note ON: Time 601560, Note Name: E6, Velocity: 47
Note OFF: Time 601680, Note Name: E6
Note ON: Time 601680, Note Name: G6, Velocity: 50
Note OFF: Time 601799, Note Name: G6
Note ON: Time 601800, Note Name: E6, Velocity: 47
Note OFF: Time 601920, Note Name: E6
Note ON: Time 601920, Note Name: G6, Velocity: 51
Note OFF: Time 602039, Note Name: G6
Note ON: Time 602040, Note Name: E6, Velocity: 47
Note OFF: Time 602160, Note Name: E6
Note ON: Time 602160, Note Name: G6, Velocity: 50
Note OFF: Time 602279, Note Name: G6
Note ON: Time 602280, Note Name: E6, Velocity: 47
Note OFF: Time 602400, Note Name: E6
Note ON: Time 602400, Note Name: G6, Velocity: 52
Note OFF: Time 602519, Note Name: G6
Note ON: Time 602520, Note Name: E6, Velocity: 47
Note OFF: Time 602640, Note Name: E6
Note ON: Time 602640, Note Name: G6, Velocity: 51
Note OFF: Time 602759, Note Name: G6
Note ON: Time 602760, Note Name: E6, Velocity: 47
Note OFF: Time 602880, Note Name: E6
Note ON: Time 602880, Note Name: G6, Velocity: 50
Note OFF: Time 602999, Note Name: G6
Note ON: Time 603000, Note Name: E6, Velocity: 47
Note OFF: Time 603120, Note Name: E6
Note ON: Time 603120, Note Name: G6, Velocity: 50
Note OFF: Time 603239, Note Name: G6
Note ON: Time 603240, Note Name: E6, Velocity: 47
Note OFF: Time 603360, Note Name: E6
Note ON: Time 603360, Note Name: G6, Velocity: 51
Note OFF: Time 603479, Note Name: G6
Note ON: Time 603480, Note Name: E6, Velocity: 47
Note OFF: Time 603600, Note Name: E6
Note ON: Time 603600, Note Name: G6, Velocity: 50
Note OFF: Time 603719, Note Name: G6
Note ON: Time 603720, Note Name: E6, Velocity: 47
Note OFF: Time 603840, Note Name: E6
Note ON: Time 603840, Note Name: G6, Velocity: 51
Note OFF: Time 603959, Note Name: G6
Note ON: Time 603960, Note Name: E6, Velocity: 47
Note OFF: Time 604080, Note Name: E6
Note ON: Time 604080, Note Name: G6, Velocity: 50
Note OFF: Time 604199, Note Name: G6
Note ON: Time 604200, Note Name: E6, Velocity: 47
Note OFF: Time 604320, Note Name: E6
Note ON: Time 604320, Note Name: G6, Velocity: 52
Note OFF: Time 604439, Note Name: G6
Note ON: Time 604440, Note Name: E6, Velocity: 47
Note OFF: Time 604560, Note Name: E6
Note ON: Time 604560, Note Name: G6, Velocity: 51
Note OFF: Time 604679, Note Name: G6
Note ON: Time 604680, Note Name: E6, Velocity: 47
Note OFF: Time 604800, Note Name: E6
Note ON: Time 604920, Note Name: F6, Velocity: 42
Note OFF: Time 605040, Note Name: F6
Note ON: Time 605040, Note Name: G6, Velocity: 45
Note ON: Time 605160, Note Name: F6, Velocity: 41
Note OFF: Time 605220, Note Name: G6
Note OFF: Time 605280, Note Name: F6
Note ON: Time 605280, Note Name: G#6, Velocity: 44
Note ON: Time 605400, Note Name: F6, Velocity: 40
Note OFF: Time 605460, Note Name: G#6
Note OFF: Time 605520, Note Name: F6
Note ON: Time 605520, Note Name: G6, Velocity: 42
Note ON: Time 605640, Note Name: F6, Velocity: 39
Note OFF: Time 605700, Note Name: G6
Note OFF: Time 605760, Note Name: F6
Note ON: Time 605760, Note Name: G#6, Velocity: 42
Note ON: Time 605880, Note Name: F6, Velocity: 38
Note OFF: Time 605940, Note Name: G#6
Note OFF: Time 606000, Note Name: F6
Note ON: Time 606000, Note Name: G6, Velocity: 40
Note ON: Time 606120, Note Name: F6, Velocity: 37
Note OFF: Time 606180, Note Name: G6
Note OFF: Time 606240, Note Name: F6
Note ON: Time 606240, Note Name: G#6, Velocity: 40
Note ON: Time 606360, Note Name: F6, Velocity: 36
Note OFF: Time 606420, Note Name: G#6
Note OFF: Time 606480, Note Name: F6
Note ON: Time 606480, Note Name: G6, Velocity: 39
Note ON: Time 606600, Note Name: F6, Velocity: 35
Note OFF: Time 606660, Note Name: G6
Note OFF: Time 606720, Note Name: F6
Note ON: Time 606720, Note Name: G#6, Velocity: 37
Note ON: Time 606840, Note Name: F6, Velocity: 34
Note OFF: Time 606900, Note Name: G#6
Note OFF: Time 606960, Note Name: F6
Note ON: Time 606960, Note Name: G6, Velocity: 36
Note ON: Time 607080, Note Name: F6, Velocity: 34
Note OFF: Time 607140, Note Name: G6
Note OFF: Time 607200, Note Name: F6
Note ON: Time 607200, Note Name: G#6, Velocity: 37
Note ON: Time 607320, Note Name: F6, Velocity: 34
Note OFF: Time 607380, Note Name: G#6
Note OFF: Time 607440, Note Name: F6
Note ON: Time 607440, Note Name: G6, Velocity: 36
Note ON: Time 607560, Note Name: F6, Velocity: 34
Note OFF: Time 607620, Note Name: G6
Note OFF: Time 607680, Note Name: F6
Note ON: Time 607680, Note Name: G#6, Velocity: 37
Note ON: Time 607800, Note Name: F6, Velocity: 34
Note OFF: Time 607860, Note Name: G#6
Note OFF: Time 607920, Note Name: F6
Note ON: Time 607920, Note Name: G6, Velocity: 36
Note ON: Time 608040, Note Name: F6, Velocity: 34
Note OFF: Time 608100, Note Name: G6
Note OFF: Time 608160, Note Name: F6
Note ON: Time 608160, Note Name: G#6, Velocity: 38
Note ON: Time 608280, Note Name: F6, Velocity: 34
Note OFF: Time 608340, Note Name: G#6
Note OFF: Time 608400, Note Name: F6
Note ON: Time 608400, Note Name: G6, Velocity: 37
Note ON: Time 608520, Note Name: F6, Velocity: 34
Note OFF: Time 608580, Note Name: G6
Note OFF: Time 608640, Note Name: F6
Note ON: Time 608640, Note Name: A6, Velocity: 37
Note OFF: Time 608760, Note Name: A6
Note ON: Time 608760, Note Name: F6, Velocity: 34
Note OFF: Time 608880, Note Name: F6
Note ON: Time 608880, Note Name: G6, Velocity: 36
Note OFF: Time 609000, Note Name: G6
Note ON: Time 609000, Note Name: F6, Velocity: 35
Note OFF: Time 609120, Note Name: F6
Note ON: Time 609120, Note Name: A6, Velocity: 38
Note OFF: Time 609240, Note Name: A6
Note ON: Time 609240, Note Name: F6, Velocity: 36
Note OFF: Time 609360, Note Name: F6
Note ON: Time 609360, Note Name: G6, Velocity: 38
Note OFF: Time 609480, Note Name: G6
Note ON: Time 609480, Note Name: F6, Velocity: 36
Note OFF: Time 609600, Note Name: F6
Note ON: Time 609600, Note Name: A6, Velocity: 40
Note OFF: Time 609720, Note Name: A6
Note ON: Time 609720, Note Name: F6, Velocity: 37
Note OFF: Time 609840, Note Name: F6
Note ON: Time 609840, Note Name: G6, Velocity: 40
Note OFF: Time 609960, Note Name: G6
Note ON: Time 609960, Note Name: F6, Velocity: 38
Note OFF: Time 610080, Note Name: F6
Note ON: Time 610080, Note Name: A6, Velocity: 43
Note OFF: Time 610200, Note Name: A6
Note ON: Time 610200, Note Name: F6, Velocity: 39
Note OFF: Time 610320, Note Name: F6
Note ON: Time 610320, Note Name: G6, Velocity: 43
Note OFF: Time 610440, Note Name: G6
Note ON: Time 610440, Note Name: F6, Velocity: 40
Note OFF: Time 610560, Note Name: F6
Note ON: Time 610560, Note Name: A6, Velocity: 44
Note OFF: Time 610680, Note Name: A6
Note ON: Time 610800, Note Name: F6, Velocity: 43
Note ON: Time 610800, Note Name: G6, Velocity: 43
Note OFF: Time 610920, Note Name: G6
Note OFF: Time 610920, Note Name: F6
Note ON: Time 611040, Note Name: F6, Velocity: 46
Note ON: Time 611040, Note Name: G6, Velocity: 46
Note OFF: Time 611160, Note Name: G6
Note OFF: Time 611160, Note Name: F6
Note ON: Time 611280, Note Name: F6, Velocity: 46
Note ON: Time 611280, Note Name: G6, Velocity: 46
Note OFF: Time 611400, Note Name: G6
Note OFF: Time 611400, Note Name: F6
Note ON: Time 611520, Note Name: F6, Velocity: 49
Note ON: Time 611520, Note Name: G6, Velocity: 49
Note OFF: Time 611640, Note Name: G6
Note OFF: Time 611640, Note Name: F6
Note ON: Time 611760, Note Name: F6, Velocity: 49
Note ON: Time 611760, Note Name: G6, Velocity: 49
Note OFF: Time 611880, Note Name: G6
Note OFF: Time 611880, Note Name: F6
Note ON: Time 612000, Note Name: F6, Velocity: 54
Note ON: Time 612000, Note Name: G6, Velocity: 54
Note OFF: Time 612120, Note Name: G6
Note OFF: Time 612120, Note Name: F6
Note ON: Time 612240, Note Name: F6, Velocity: 53
Note ON: Time 612240, Note Name: G6, Velocity: 53
Note OFF: Time 612360, Note Name: G6
Note OFF: Time 612360, Note Name: F6
Note ON: Time 612480, Note Name: C6, Velocity: 82
Note OFF: Time 613920, Note Name: C6
Note ON: Time 613920, Note Name: C6, Velocity: 58
Note OFF: Time 614040, Note Name: C6
Note ON: Time 614040, Note Name: A#5, Velocity: 57
Note OFF: Time 614160, Note Name: A#5
Note ON: Time 614160, Note Name: G#5, Velocity: 56
Note OFF: Time 614280, Note Name: G#5
Note ON: Time 614280, Note Name: G5, Velocity: 55
Note OFF: Time 614400, Note Name: G5
Note ON: Time 614400, Note Name: G#5, Velocity: 58
Note OFF: Time 614520, Note Name: G#5
Note ON: Time 614520, Note Name: G5, Velocity: 57
Note OFF: Time 614640, Note Name: G5
Note ON: Time 614640, Note Name: F5, Velocity: 56
Note OFF: Time 614760, Note Name: F5
Note ON: Time 614760, Note Name: E5, Velocity: 55
Note OFF: Time 614880, Note Name: E5
Note ON: Time 614880, Note Name: F5, Velocity: 51
Note OFF: Time 615000, Note Name: F5
Note ON: Time 615000, Note Name: G5, Velocity: 52
Note OFF: Time 615120, Note Name: G5
Note ON: Time 615120, Note Name: G#5, Velocity: 53
Note OFF: Time 615240, Note Name: G#5
Note ON: Time 615240, Note Name: A#5, Velocity: 54
Note OFF: Time 615360, Note Name: A#5
Note ON: Time 615360, Note Name: C6, Velocity: 56
Note OFF: Time 615480, Note Name: C6
Note ON: Time 615480, Note Name: C#6, Velocity: 57
Note OFF: Time 615600, Note Name: C#6
Note ON: Time 615600, Note Name: C6, Velocity: 57
Note OFF: Time 615720, Note Name: C6
Note ON: Time 615720, Note Name: B5, Velocity: 56
Note OFF: Time 615840, Note Name: B5
Note ON: Time 615840, Note Name: C6, Velocity: 56
Note OFF: Time 615960, Note Name: C6
Note ON: Time 615960, Note Name: A#5, Velocity: 56
Note OFF: Time 616080, Note Name: A#5
Note ON: Time 616080, Note Name: G#5, Velocity: 56
Note OFF: Time 616200, Note Name: G#5
Note ON: Time 616200, Note Name: G5, Velocity: 56
Note OFF: Time 616320, Note Name: G5
Note ON: Time 616320, Note Name: G#5, Velocity: 57
Note OFF: Time 616440, Note Name: G#5
Note ON: Time 616440, Note Name: A#5, Velocity: 57
Note OFF: Time 616560, Note Name: A#5
Note ON: Time 616560, Note Name: G#5, Velocity: 57
Note OFF: Time 616680, Note Name: G#5
Note ON: Time 616680, Note Name: G5, Velocity: 53
Note OFF: Time 616800, Note Name: G5
Note ON: Time 616800, Note Name: F5, Velocity: 56
Note OFF: Time 616920, Note Name: F5
Note ON: Time 616920, Note Name: E5, Velocity: 52
Note OFF: Time 617040, Note Name: E5
Note ON: Time 617040, Note Name: F5, Velocity: 56
Note OFF: Time 617160, Note Name: F5
Note ON: Time 617160, Note Name: G5, Velocity: 52
Note OFF: Time 617280, Note Name: G5
Note ON: Time 617280, Note Name: G#4, Velocity: 45
Note ON: Time 617280, Note Name: G#5, Velocity: 59
Note OFF: Time 617760, Note Name: G#5
Note ON: Time 617760, Note Name: F5, Velocity: 52
Note OFF: Time 618000, Note Name: F5
Note ON: Time 618000, Note Name: C#5, Velocity: 52
Note OFF: Time 618240, Note Name: C#5
Note OFF: Time 618240, Note Name: G#4
Note ON: Time 618240, Note Name: G4, Velocity: 45
Note ON: Time 618240, Note Name: G5, Velocity: 57
Note OFF: Time 618720, Note Name: G5
Note ON: Time 618720, Note Name: D#5, Velocity: 52
Note OFF: Time 618960, Note Name: D#5
Note ON: Time 618960, Note Name: C5, Velocity: 52
Note OFF: Time 619200, Note Name: C5
Note OFF: Time 619200, Note Name: G4
Note ON: Time 619200, Note Name: F4, Velocity: 45
Note ON: Time 619200, Note Name: F5, Velocity: 57
Note OFF: Time 619680, Note Name: F5
Note ON: Time 619680, Note Name: D5, Velocity: 52
Note OFF: Time 619920, Note Name: D5
Note ON: Time 619920, Note Name: B4, Velocity: 52
Note OFF: Time 620160, Note Name: B4
Note OFF: Time 620160, Note Name: F4
Note ON: Time 620160, Note Name: C5, Velocity: 72
Note OFF: Time 621600, Note Name: C5
Note ON: Time 621600, Note Name: C5, Velocity: 58
Note OFF: Time 621720, Note Name: C5
Note ON: Time 621720, Note Name: A#4, Velocity: 57
Note OFF: Time 621840, Note Name: A#4
Note ON: Time 621840, Note Name: A4, Velocity: 56
Note OFF: Time 621960, Note Name: A4
Note ON: Time 621960, Note Name: G4, Velocity: 55
Note OFF: Time 622080, Note Name: G4
Note ON: Time 622080, Note Name: A4, Velocity: 58
Note OFF: Time 622200, Note Name: A4
Note ON: Time 622200, Note Name: G4, Velocity: 57
Note OFF: Time 622320, Note Name: G4
Note ON: Time 622320, Note Name: F4, Velocity: 56
Note OFF: Time 622440, Note Name: F4
Note ON: Time 622440, Note Name: E4, Velocity: 55
Note OFF: Time 622560, Note Name: E4
Note ON: Time 622560, Note Name: F4, Velocity: 51
Note OFF: Time 622680, Note Name: F4
Note ON: Time 622680, Note Name: G4, Velocity: 52
Note OFF: Time 622800, Note Name: G4
Note ON: Time 622800, Note Name: A4, Velocity: 53
Note OFF: Time 622920, Note Name: A4
Note ON: Time 622920, Note Name: A#4, Velocity: 54
Note OFF: Time 623040, Note Name: A#4
Note ON: Time 623040, Note Name: C5, Velocity: 56
Note OFF: Time 623160, Note Name: C5
Note ON: Time 623160, Note Name: D5, Velocity: 57
Note OFF: Time 623280, Note Name: D5
Note ON: Time 623280, Note Name: C5, Velocity: 57
Note OFF: Time 623400, Note Name: C5
Note ON: Time 623400, Note Name: B4, Velocity: 56
Note OFF: Time 623520, Note Name: B4
Note ON: Time 623520, Note Name: C5, Velocity: 56
Note OFF: Time 623640, Note Name: C5
Note ON: Time 623640, Note Name: A#4, Velocity: 56
Note OFF: Time 623760, Note Name: A#4
Note ON: Time 623760, Note Name: A4, Velocity: 56
Note OFF: Time 623880, Note Name: A4
Note ON: Time 623880, Note Name: G4, Velocity: 56
Note OFF: Time 624000, Note Name: G4
Note ON: Time 624000, Note Name: A4, Velocity: 57
Note OFF: Time 624120, Note Name: A4
Note ON: Time 624120, Note Name: A#4, Velocity: 57
Note OFF: Time 624240, Note Name: A#4
Note ON: Time 624240, Note Name: A4, Velocity: 57
Note OFF: Time 624360, Note Name: A4
Note ON: Time 624360, Note Name: G4, Velocity: 53
Note OFF: Time 624480, Note Name: G4
Note ON: Time 624480, Note Name: F4, Velocity: 56
Note OFF: Time 624600, Note Name: F4
Note ON: Time 624600, Note Name: E4, Velocity: 52
Note OFF: Time 624720, Note Name: E4
Note ON: Time 624720, Note Name: F4, Velocity: 56
Note OFF: Time 624840, Note Name: F4
Note ON: Time 624840, Note Name: G4, Velocity: 52
Note OFF: Time 624960, Note Name: G4
Note ON: Time 624960, Note Name: A3, Velocity: 45
Note ON: Time 624960, Note Name: A4, Velocity: 59
Note OFF: Time 625440, Note Name: A4
Note ON: Time 625440, Note Name: F4, Velocity: 52
Note OFF: Time 625680, Note Name: F4
Note ON: Time 625680, Note Name: D4, Velocity: 52
Note OFF: Time 625920, Note Name: D4
Note OFF: Time 625920, Note Name: A3
Note ON: Time 625920, Note Name: G3, Velocity: 45
Note ON: Time 625920, Note Name: G4, Velocity: 57
Note OFF: Time 626400, Note Name: G4
Note ON: Time 626400, Note Name: E4, Velocity: 52
Note OFF: Time 626640, Note Name: E4
Note ON: Time 626640, Note Name: C4, Velocity: 52
Note OFF: Time 626880, Note Name: C4
Note ON: Time 626880, Note Name: F4, Velocity: 57
Note OFF: Time 627360, Note Name: F4
Note ON: Time 627360, Note Name: D4, Velocity: 52
Note OFF: Time 627600, Note Name: D4
Note ON: Time 627600, Note Name: B3, Velocity: 52
Note OFF: Time 627840, Note Name: B3
Note OFF: Time 627840, Note Name: G3
Note ON: Time 627840, Note Name: G3, Velocity: 51
Note ON: Time 627840, Note Name: C4, Velocity: 55
Note OFF: Time 628320, Note Name: C4
Note OFF: Time 628320, Note Name: G3
Note ON: Time 628320, Note Name: C5, Velocity: 68
Note OFF: Time 628560, Note Name: C5
Note ON: Time 628560, Note Name: B4, Velocity: 64
Note OFF: Time 628800, Note Name: B4
Note ON: Time 628800, Note Name: A4, Velocity: 66
Note OFF: Time 629280, Note Name: A4
Note ON: Time 629280, Note Name: F4, Velocity: 61
Note OFF: Time 629520, Note Name: F4
Note ON: Time 629520, Note Name: D4, Velocity: 54
Note OFF: Time 629760, Note Name: D4
Note ON: Time 629760, Note Name: G4, Velocity: 51
Note OFF: Time 630240, Note Name: G4
Note ON: Time 630240, Note Name: E4, Velocity: 46
Note OFF: Time 630480, Note Name: E4
Note ON: Time 630480, Note Name: C4, Velocity: 46
Note OFF: Time 630720, Note Name: C4
Note ON: Time 630720, Note Name: F4, Velocity: 51
Note OFF: Time 631200, Note Name: F4
Note ON: Time 631200, Note Name: D4, Velocity: 46
Note OFF: Time 631440, Note Name: D4
Note ON: Time 631440, Note Name: B3, Velocity: 46
Note OFF: Time 631680, Note Name: B3
Note ON: Time 631680, Note Name: C4, Velocity: 55
Note OFF: Time 632160, Note Name: C4
Note ON: Time 632160, Note Name: F5, Velocity: 68
Note OFF: Time 632400, Note Name: F5
Note ON: Time 632400, Note Name: E5, Velocity: 64
Note OFF: Time 632640, Note Name: E5
Note ON: Time 632640, Note Name: D5, Velocity: 66
Note OFF: Time 633120, Note Name: D5
Note ON: Time 633120, Note Name: A#4, Velocity: 61
Note OFF: Time 633360, Note Name: A#4
Note ON: Time 633360, Note Name: G4, Velocity: 54
Note OFF: Time 633600, Note Name: G4
Note ON: Time 633600, Note Name: C5, Velocity: 51
Note OFF: Time 634080, Note Name: C5
Note ON: Time 634080, Note Name: A4, Velocity: 46
Note OFF: Time 634320, Note Name: A4
Note ON: Time 634320, Note Name: F4, Velocity: 46
Note OFF: Time 634560, Note Name: F4
Note ON: Time 634560, Note Name: A#4, Velocity: 51
Note OFF: Time 635040, Note Name: A#4
Note ON: Time 635040, Note Name: G4, Velocity: 46
Note OFF: Time 635280, Note Name: G4
Note ON: Time 635280, Note Name: E4, Velocity: 46
Note OFF: Time 635520, Note Name: E4
Note ON: Time 635520, Note Name: F4, Velocity: 55
Note OFF: Time 636000, Note Name: F4
Note ON: Time 636000, Note Name: F5, Velocity: 67
Note OFF: Time 636240, Note Name: F5
Note ON: Time 636240, Note Name: D#5, Velocity: 63
Note OFF: Time 636480, Note Name: D#5
Note ON: Time 636480, Note Name: C#5, Velocity: 66
Note OFF: Time 636960, Note Name: C#5
Note ON: Time 636960, Note Name: A#4, Velocity: 61
Note OFF: Time 637200, Note Name: A#4
Note ON: Time 637200, Note Name: G4, Velocity: 54
Note OFF: Time 637440, Note Name: G4
Note ON: Time 637440, Note Name: C5, Velocity: 51
Note OFF: Time 637920, Note Name: C5
Note ON: Time 637920, Note Name: G#4, Velocity: 46
Note OFF: Time 638160, Note Name: G#4
Note ON: Time 638160, Note Name: F4, Velocity: 46
Note OFF: Time 638400, Note Name: F4
Note ON: Time 638400, Note Name: A#4, Velocity: 51
Note OFF: Time 638880, Note Name: A#4
Note ON: Time 638880, Note Name: G4, Velocity: 46
Note OFF: Time 639120, Note Name: G4
Note ON: Time 639120, Note Name: E4, Velocity: 46
Note OFF: Time 639360, Note Name: E4
Note ON: Time 639360, Note Name: F4, Velocity: 40
Note OFF: Time 639600, Note Name: F4
Note ON: Time 639600, Note Name: C#3, Velocity: 28
Note ON: Time 639600, Note Name: F3, Velocity: 33
Note OFF: Time 639720, Note Name: F3
Note OFF: Time 639720, Note Name: C#3
Note ON: Time 639840, Note Name: C#3, Velocity: 28
Note ON: Time 639840, Note Name: F3, Velocity: 33
Note OFF: Time 639960, Note Name: F3
Note OFF: Time 639960, Note Name: C#3
Note ON: Time 640080, Note Name: C#3, Velocity: 28
Note ON: Time 640080, Note Name: F3, Velocity: 34
Note OFF: Time 640200, Note Name: F3
Note OFF: Time 640200, Note Name: C#3
Note ON: Time 640320, Note Name: C#3, Velocity: 28
Note ON: Time 640320, Note Name: F3, Velocity: 34
Note OFF: Time 640440, Note Name: F3
Note OFF: Time 640440, Note Name: C#3
Note ON: Time 640560, Note Name: C#3, Velocity: 28
Note ON: Time 640560, Note Name: F3, Velocity: 34
Note OFF: Time 640680, Note Name: F3
Note OFF: Time 640680, Note Name: C#3
Note ON: Time 640800, Note Name: C#3, Velocity: 29
Note ON: Time 640800, Note Name: F3, Velocity: 35
Note OFF: Time 640920, Note Name: F3
Note OFF: Time 640920, Note Name: C#3
Note ON: Time 641040, Note Name: C#3, Velocity: 29
Note ON: Time 641040, Note Name: F3, Velocity: 35
Note OFF: Time 641160, Note Name: F3
Note OFF: Time 641160, Note Name: C#3
Note ON: Time 641280, Note Name: C#3, Velocity: 30
Note ON: Time 641280, Note Name: F3, Velocity: 36
Note OFF: Time 641400, Note Name: F3
Note OFF: Time 641400, Note Name: C#3
Note ON: Time 641520, Note Name: C#3, Velocity: 30
Note ON: Time 641520, Note Name: F3, Velocity: 36
Note OFF: Time 641640, Note Name: F3
Note OFF: Time 641640, Note Name: C#3
Note ON: Time 641760, Note Name: C#3, Velocity: 31
Note ON: Time 641760, Note Name: F3, Velocity: 37
Note OFF: Time 641880, Note Name: F3
Note OFF: Time 641880, Note Name: C#3
Note ON: Time 642000, Note Name: C#3, Velocity: 32
Note ON: Time 642000, Note Name: F3, Velocity: 38
Note OFF: Time 642120, Note Name: F3
Note OFF: Time 642120, Note Name: C#3
Note ON: Time 642240, Note Name: C#3, Velocity: 33
Note ON: Time 642240, Note Name: F3, Velocity: 39
Note OFF: Time 642360, Note Name: F3
Note OFF: Time 642360, Note Name: C#3
Note ON: Time 642480, Note Name: C#3, Velocity: 34
Note ON: Time 642480, Note Name: F3, Velocity: 40
Note OFF: Time 642600, Note Name: F3
Note OFF: Time 642600, Note Name: C#3
Note ON: Time 642720, Note Name: D#3, Velocity: 34
Note ON: Time 642720, Note Name: G3, Velocity: 40
Note OFF: Time 642840, Note Name: G3
Note OFF: Time 642840, Note Name: D#3
Note ON: Time 642960, Note Name: D#3, Velocity: 34
Note ON: Time 642960, Note Name: G3, Velocity: 40
Note OFF: Time 643080, Note Name: G3
Note OFF: Time 643080, Note Name: D#3
Note ON: Time 643200, Note Name: G#3, Velocity: 46
Note OFF: Time 643920, Note Name: G#3
Note ON: Time 643920, Note Name: C4, Velocity: 40
Note OFF: Time 644040, Note Name: C4
Note ON: Time 644040, Note Name: A#3, Velocity: 40
Note OFF: Time 644160, Note Name: A#3
Note ON: Time 644160, Note Name: G#3, Velocity: 45
Note OFF: Time 644280, Note Name: G#3
Note ON: Time 645060, Note Name: D6, Velocity: 72
Note OFF: Time 645120, Note Name: D6
Note ON: Time 645120, Note Name: D#6, Velocity: 89
Note OFF: Time 645720, Note Name: D#6
Note ON: Time 645720, Note Name: C#6, Velocity: 75
Note OFF: Time 645840, Note Name: C#6
Note ON: Time 645840, Note Name: C6, Velocity: 73
Note OFF: Time 645960, Note Name: C6
Note ON: Time 645960, Note Name: A#5, Velocity: 70
Note OFF: Time 646080, Note Name: A#5
Note ON: Time 646080, Note Name: A5, Velocity: 69
Note OFF: Time 646320, Note Name: A5
Note ON: Time 647040, Note Name: A#3, Velocity: 46
Note OFF: Time 647760, Note Name: A#3
Note ON: Time 647760, Note Name: C#4, Velocity: 40
Note OFF: Time 647880, Note Name: C#4
Note ON: Time 647880, Note Name: C4, Velocity: 40
Note OFF: Time 648000, Note Name: C4
Note ON: Time 648000, Note Name: A#3, Velocity: 45
Note OFF: Time 648120, Note Name: A#3
Note ON: Time 648900, Note Name: E6, Velocity: 72
Note OFF: Time 648960, Note Name: E6
Note ON: Time 648960, Note Name: F6, Velocity: 89
Note OFF: Time 649560, Note Name: F6
Note ON: Time 649560, Note Name: D#6, Velocity: 75
Note OFF: Time 649680, Note Name: D#6
Note ON: Time 649680, Note Name: D6, Velocity: 73
Note OFF: Time 649800, Note Name: D6
Note ON: Time 649800, Note Name: C6, Velocity: 70
Note OFF: Time 649920, Note Name: C6
Note ON: Time 649920, Note Name: B5, Velocity: 69
Note OFF: Time 650160, Note Name: B5
Note ON: Time 650880, Note Name: C4, Velocity: 82
Note OFF: Time 651120, Note Name: C4
Note ON: Time 651120, Note Name: D#4, Velocity: 70
Note OFF: Time 651240, Note Name: D#4
Note ON: Time 651240, Note Name: D4, Velocity: 70
Note OFF: Time 651360, Note Name: D4
Note ON: Time 651360, Note Name: C4, Velocity: 74
Note OFF: Time 651600, Note Name: C4
Note ON: Time 651840, Note Name: G#5, Velocity: 78
Note OFF: Time 651960, Note Name: G#5
Note ON: Time 651960, Note Name: G5, Velocity: 75
Note OFF: Time 652080, Note Name: G5
Note ON: Time 652080, Note Name: F5, Velocity: 73
Note OFF: Time 652200, Note Name: F5
Note ON: Time 652200, Note Name: D#5, Velocity: 70
Note OFF: Time 652320, Note Name: D#5
Note ON: Time 652320, Note Name: D5, Velocity: 74
Note OFF: Time 652560, Note Name: D5
Note ON: Time 652800, Note Name: E4, Velocity: 82
Note OFF: Time 653040, Note Name: E4
Note ON: Time 653040, Note Name: G4, Velocity: 70
Note OFF: Time 653160, Note Name: G4
Note ON: Time 653160, Note Name: F4, Velocity: 70
Note OFF: Time 653280, Note Name: F4
Note ON: Time 653280, Note Name: E4, Velocity: 74
Note OFF: Time 653520, Note Name: E4
Note ON: Time 653760, Note Name: C6, Velocity: 78
Note OFF: Time 653880, Note Name: C6
Note ON: Time 653880, Note Name: A#5, Velocity: 75
Note OFF: Time 654000, Note Name: A#5
Note ON: Time 654000, Note Name: G#5, Velocity: 73
Note OFF: Time 654120, Note Name: G#5
Note ON: Time 654120, Note Name: G5, Velocity: 70
Note OFF: Time 654240, Note Name: G5
Note ON: Time 654240, Note Name: F5, Velocity: 74
Note OFF: Time 654480, Note Name: F5
Note ON: Time 654720, Note Name: D#6, Velocity: 90
Note OFF: Time 654840, Note Name: D#6
Note ON: Time 654840, Note Name: D6, Velocity: 86
Note OFF: Time 654960, Note Name: D6
Note ON: Time 654960, Note Name: C6, Velocity: 84
Note OFF: Time 655080, Note Name: C6
Note ON: Time 655080, Note Name: B5, Velocity: 80
Note OFF: Time 655200, Note Name: B5
Note ON: Time 655200, Note Name: C6, Velocity: 85
Note OFF: Time 655440, Note Name: C6
Note ON: Time 655680, Note Name: D#5, Velocity: 90
Note OFF: Time 655800, Note Name: D#5
Note ON: Time 655800, Note Name: D5, Velocity: 86
Note OFF: Time 655920, Note Name: D5
Note ON: Time 655920, Note Name: C5, Velocity: 84
Note OFF: Time 656040, Note Name: C5
Note ON: Time 656040, Note Name: B4, Velocity: 80
Note OFF: Time 656160, Note Name: B4
Note ON: Time 656160, Note Name: C5, Velocity: 85
Note OFF: Time 656400, Note Name: C5
Note ON: Time 656640, Note Name: D#4, Velocity: 90
Note OFF: Time 656760, Note Name: D#4
Note ON: Time 656760, Note Name: D4, Velocity: 86
Note OFF: Time 656880, Note Name: D4
Note ON: Time 656880, Note Name: C4, Velocity: 84
Note OFF: Time 657000, Note Name: C4
Note ON: Time 657000, Note Name: B3, Velocity: 80
Note OFF: Time 657120, Note Name: B3
Note ON: Time 657120, Note Name: C4, Velocity: 85
Note OFF: Time 657360, Note Name: C4
Note ON: Time 657600, Note Name: D#5, Velocity: 90
Note OFF: Time 657720, Note Name: D#5
Note ON: Time 657720, Note Name: D5, Velocity: 86
Note OFF: Time 657840, Note Name: D5
Note ON: Time 657840, Note Name: C5, Velocity: 84
Note OFF: Time 657960, Note Name: C5
Note ON: Time 657960, Note Name: B4, Velocity: 80
Note OFF: Time 658080, Note Name: B4
Note ON: Time 658080, Note Name: C5, Velocity: 85
Note OFF: Time 658200, Note Name: C5
Note ON: Time 658200, Note Name: D5, Velocity: 85
Note OFF: Time 658320, Note Name: D5
Note ON: Time 658320, Note Name: D#5, Velocity: 85
Note OFF: Time 658440, Note Name: D#5
Note ON: Time 658440, Note Name: F#5, Velocity: 85
Note OFF: Time 658560, Note Name: F#5
Note ON: Time 658560, Note Name: G5, Velocity: 85
Note OFF: Time 658780, Note Name: G5
Note ON: Time 658800, Note Name: G4, Velocity: 38
Note ON: Time 658800, Note Name: G5, Velocity: 45
Note OFF: Time 659020, Note Name: G5
Note OFF: Time 659020, Note Name: G4
Note ON: Time 659040, Note Name: G4, Velocity: 38
Note ON: Time 659040, Note Name: G5, Velocity: 45
Note OFF: Time 659260, Note Name: G5
Note OFF: Time 659260, Note Name: G4
Note ON: Time 659280, Note Name: G4, Velocity: 38
Note ON: Time 659280, Note Name: G5, Velocity: 45
Note OFF: Time 659500, Note Name: G5
Note OFF: Time 659500, Note Name: G4
Note ON: Time 659520, Note Name: G4, Velocity: 38
Note ON: Time 659520, Note Name: G5, Velocity: 45
Note OFF: Time 659740, Note Name: G5
Note OFF: Time 659740, Note Name: G4
Note ON: Time 659760, Note Name: G4, Velocity: 38
Note ON: Time 659760, Note Name: G5, Velocity: 45
Note OFF: Time 659980, Note Name: G5
Note OFF: Time 659980, Note Name: G4
Note ON: Time 660000, Note Name: G4, Velocity: 38
Note ON: Time 660000, Note Name: G5, Velocity: 45
Note OFF: Time 660220, Note Name: G5
Note OFF: Time 660220, Note Name: G4
Note ON: Time 660240, Note Name: G4, Velocity: 38
Note ON: Time 660240, Note Name: G5, Velocity: 45
Note OFF: Time 660460, Note Name: G5
Note OFF: Time 660460, Note Name: G4
Note ON: Time 660480, Note Name: G4, Velocity: 37
Note ON: Time 660480, Note Name: A#4, Velocity: 37
Note ON: Time 660480, Note Name: C#5, Velocity: 37
Note ON: Time 660480, Note Name: G5, Velocity: 45
Note OFF: Time 660700, Note Name: G5
Note OFF: Time 660700, Note Name: G4
Note OFF: Time 660700, Note Name: A#4
Note OFF: Time 660700, Note Name: C#5
Note ON: Time 660720, Note Name: G4, Velocity: 39
Note ON: Time 660720, Note Name: A#4, Velocity: 39
Note ON: Time 660720, Note Name: C#5, Velocity: 39
Note ON: Time 660720, Note Name: G5, Velocity: 47
Note OFF: Time 660940, Note Name: G5
Note OFF: Time 660940, Note Name: G4
Note OFF: Time 660940, Note Name: A#4
Note OFF: Time 660940, Note Name: C#5
Note ON: Time 660960, Note Name: G4, Velocity: 41
Note ON: Time 660960, Note Name: A#4, Velocity: 41
Note ON: Time 660960, Note Name: C#5, Velocity: 41
Note ON: Time 660960, Note Name: G5, Velocity: 49
Note OFF: Time 661180, Note Name: G5
Note OFF: Time 661180, Note Name: G4
Note OFF: Time 661180, Note Name: A#4
Note OFF: Time 661180, Note Name: C#5
Note ON: Time 661200, Note Name: G4, Velocity: 43
Note ON: Time 661200, Note Name: A#4, Velocity: 43
Note ON: Time 661200, Note Name: C#5, Velocity: 43
Note ON: Time 661200, Note Name: G5, Velocity: 52
Note OFF: Time 661420, Note Name: G5
Note OFF: Time 661420, Note Name: G4
Note OFF: Time 661420, Note Name: A#4
Note OFF: Time 661420, Note Name: C#5
Note ON: Time 661440, Note Name: G4, Velocity: 45
Note ON: Time 661440, Note Name: A#4, Velocity: 45
Note ON: Time 661440, Note Name: C#5, Velocity: 45
Note ON: Time 661440, Note Name: G5, Velocity: 54
Note OFF: Time 661660, Note Name: G5
Note OFF: Time 661660, Note Name: G4
Note OFF: Time 661660, Note Name: A#4
Note OFF: Time 661660, Note Name: C#5
Note ON: Time 661680, Note Name: G4, Velocity: 46
Note ON: Time 661680, Note Name: A#4, Velocity: 46
Note ON: Time 661680, Note Name: C#5, Velocity: 46
Note ON: Time 661680, Note Name: G5, Velocity: 55
Note OFF: Time 661900, Note Name: G5
Note OFF: Time 661900, Note Name: G4
Note OFF: Time 661900, Note Name: A#4
Note OFF: Time 661900, Note Name: C#5
Note ON: Time 661920, Note Name: G4, Velocity: 49
Note ON: Time 661920, Note Name: A#4, Velocity: 49
Note ON: Time 661920, Note Name: C#5, Velocity: 49
Note ON: Time 661920, Note Name: G5, Velocity: 59
Note OFF: Time 662140, Note Name: G5
Note OFF: Time 662140, Note Name: G4
Note OFF: Time 662140, Note Name: A#4
Note OFF: Time 662140, Note Name: C#5
Note ON: Time 662160, Note Name: G4, Velocity: 51
Note ON: Time 662160, Note Name: A#4, Velocity: 51
Note ON: Time 662160, Note Name: C#5, Velocity: 51
Note ON: Time 662160, Note Name: G5, Velocity: 61
Note OFF: Time 662380, Note Name: G5
Note OFF: Time 662380, Note Name: G4
Note OFF: Time 662380, Note Name: A#4
Note OFF: Time 662380, Note Name: C#5
Note ON: Time 662400, Note Name: G4, Velocity: 41
Note ON: Time 662400, Note Name: B4, Velocity: 41
Note ON: Time 662400, Note Name: D5, Velocity: 41
Note ON: Time 662400, Note Name: G5, Velocity: 49
Note OFF: Time 662640, Note Name: G5
Note OFF: Time 662640, Note Name: G4
Note OFF: Time 662640, Note Name: B4
Note OFF: Time 662640, Note Name: D5
Note ON: Time 662640, Note Name: G6, Velocity: 58
Note ON: Time 662640, Note Name: G5, Velocity: 49
Note OFF: Time 663120, Note Name: G5
Note OFF: Time 663120, Note Name: G6
Note ON: Time 663120, Note Name: F6, Velocity: 53
Note ON: Time 663120, Note Name: F5, Velocity: 53
Note OFF: Time 663600, Note Name: F5
Note OFF: Time 663600, Note Name: F6
Note ON: Time 663600, Note Name: E6, Velocity: 55
Note ON: Time 663600, Note Name: E5, Velocity: 46
Note OFF: Time 664080, Note Name: E5
Note OFF: Time 664080, Note Name: E6
Note ON: Time 664080, Note Name: D6, Velocity: 53
Note ON: Time 664080, Note Name: D5, Velocity: 45
Note OFF: Time 664560, Note Name: D5
Note OFF: Time 664560, Note Name: D6
Note ON: Time 664560, Note Name: C6, Velocity: 52
Note ON: Time 664560, Note Name: C5, Velocity: 44
Note OFF: Time 665040, Note Name: C5
Note OFF: Time 665040, Note Name: C6
Note ON: Time 665040, Note Name: B5, Velocity: 50
Note ON: Time 665040, Note Name: B4, Velocity: 42
Note OFF: Time 665520, Note Name: B4
Note OFF: Time 665520, Note Name: B5
Note ON: Time 665520, Note Name: A5, Velocity: 49
Note ON: Time 665520, Note Name: A4, Velocity: 41
Note OFF: Time 666000, Note Name: A4
Note OFF: Time 666000, Note Name: A5
Note ON: Time 666000, Note Name: G5, Velocity: 47
Note ON: Time 666000, Note Name: G4, Velocity: 39
Note OFF: Time 666240, Note Name: G4
Note OFF: Time 666240, Note Name: G5
Note ON: Time 666240, Note Name: F4, Velocity: 38
Note ON: Time 666240, Note Name: F5, Velocity: 45
Note OFF: Time 666360, Note Name: F5
Note OFF: Time 666360, Note Name: F4
Note ON: Time 666360, Note Name: D4, Velocity: 37
Note OFF: Time 666480, Note Name: D4
Note ON: Time 666480, Note Name: E4, Velocity: 39
Note OFF: Time 666600, Note Name: E4
Note ON: Time 666600, Note Name: F4, Velocity: 40
Note OFF: Time 666720, Note Name: F4
Note ON: Time 666720, Note Name: G4, Velocity: 42
Note OFF: Time 666840, Note Name: G4
Note ON: Time 666840, Note Name: A4, Velocity: 44
Note OFF: Time 666960, Note Name: A4
Note ON: Time 666960, Note Name: B4, Velocity: 45
Note OFF: Time 667080, Note Name: B4
Note ON: Time 667080, Note Name: C#5, Velocity: 47
Note OFF: Time 667200, Note Name: C#5
Note ON: Time 667200, Note Name: D5, Velocity: 48
Note OFF: Time 667320, Note Name: D5
Note ON: Time 667320, Note Name: F4, Velocity: 42
Note OFF: Time 667440, Note Name: F4
Note ON: Time 667440, Note Name: G4, Velocity: 43
Note OFF: Time 667560, Note Name: G4
Note ON: Time 667560, Note Name: A4, Velocity: 45
Note OFF: Time 667680, Note Name: A4
Note ON: Time 667680, Note Name: B4, Velocity: 46
Note OFF: Time 667800, Note Name: B4
Note ON: Time 667800, Note Name: C#5, Velocity: 48
Note OFF: Time 667920, Note Name: C#5
Note ON: Time 667920, Note Name: D5, Velocity: 49
Note OFF: Time 668040, Note Name: D5
Note ON: Time 668040, Note Name: E5, Velocity: 50
Note OFF: Time 668160, Note Name: E5
Note ON: Time 668160, Note Name: F5, Velocity: 52
Note OFF: Time 668280, Note Name: F5
Note ON: Time 668280, Note Name: D5, Velocity: 46
Note OFF: Time 668400, Note Name: D5
Note ON: Time 668400, Note Name: E5, Velocity: 46
Note OFF: Time 668520, Note Name: E5
Note ON: Time 668520, Note Name: F5, Velocity: 47
Note OFF: Time 668640, Note Name: F5
Note ON: Time 668640, Note Name: G5, Velocity: 48
Note OFF: Time 668760, Note Name: G5
Note ON: Time 668760, Note Name: A5, Velocity: 49
Note OFF: Time 668880, Note Name: A5
Note ON: Time 668880, Note Name: B5, Velocity: 50
Note OFF: Time 669000, Note Name: B5
Note ON: Time 669000, Note Name: C#6, Velocity: 51
Note OFF: Time 669120, Note Name: C#6
Note ON: Time 669120, Note Name: D6, Velocity: 52
Note OFF: Time 669240, Note Name: D6
Note ON: Time 669240, Note Name: C#6, Velocity: 46
Note OFF: Time 669360, Note Name: C#6
Note ON: Time 669360, Note Name: D6, Velocity: 47
Note OFF: Time 669480, Note Name: D6
Note ON: Time 669480, Note Name: E6, Velocity: 48
Note OFF: Time 669600, Note Name: E6
Note ON: Time 669600, Note Name: F6, Velocity: 49
Note OFF: Time 669720, Note Name: F6
Note ON: Time 669720, Note Name: C#6, Velocity: 51
Note OFF: Time 669840, Note Name: C#6
Note ON: Time 669840, Note Name: D6, Velocity: 52
Note OFF: Time 669960, Note Name: D6
Note ON: Time 669960, Note Name: E6, Velocity: 53
Note OFF: Time 670080, Note Name: E6
Note ON: Time 670080, Note Name: F6, Velocity: 49
Note OFF: Time 670320, Note Name: F6
Note ON: Time 670320, Note Name: F6, Velocity: 58
Note ON: Time 670320, Note Name: F5, Velocity: 49
Note OFF: Time 670800, Note Name: F5
Note OFF: Time 670800, Note Name: F6
Note ON: Time 670800, Note Name: E6, Velocity: 53
Note ON: Time 670800, Note Name: E5, Velocity: 53
Note OFF: Time 671280, Note Name: E5
Note OFF: Time 671280, Note Name: E6
Note ON: Time 671280, Note Name: D6, Velocity: 55
Note ON: Time 671280, Note Name: D5, Velocity: 46
Note OFF: Time 671760, Note Name: D5
Note OFF: Time 671760, Note Name: D6
Note ON: Time 671760, Note Name: C6, Velocity: 53
Note ON: Time 671760, Note Name: C5, Velocity: 45
Note OFF: Time 672240, Note Name: C5
Note OFF: Time 672240, Note Name: C6
Note ON: Time 672240, Note Name: B5, Velocity: 52
Note ON: Time 672240, Note Name: B4, Velocity: 44
Note OFF: Time 672720, Note Name: B4
Note OFF: Time 672720, Note Name: B5
Note ON: Time 672720, Note Name: A5, Velocity: 50
Note ON: Time 672720, Note Name: A4, Velocity: 42
Note OFF: Time 673200, Note Name: A4
Note OFF: Time 673200, Note Name: A5
Note ON: Time 673200, Note Name: G5, Velocity: 49
Note ON: Time 673200, Note Name: G4, Velocity: 41
Note OFF: Time 673680, Note Name: G4
Note OFF: Time 673680, Note Name: G5
Note ON: Time 673680, Note Name: F5, Velocity: 47
Note ON: Time 673680, Note Name: F4, Velocity: 39
Note OFF: Time 673920, Note Name: F4
Note OFF: Time 673920, Note Name: F5
Note ON: Time 673920, Note Name: E4, Velocity: 38
Note ON: Time 673920, Note Name: E5, Velocity: 45
Note OFF: Time 674040, Note Name: E5
Note OFF: Time 674040, Note Name: E4
Note ON: Time 674040, Note Name: E4, Velocity: 37
Note OFF: Time 674160, Note Name: E4
Note ON: Time 674160, Note Name: F4, Velocity: 39
Note OFF: Time 674280, Note Name: F4
Note ON: Time 674280, Note Name: G4, Velocity: 40
Note OFF: Time 674400, Note Name: G4
Note ON: Time 674400, Note Name: A4, Velocity: 42
Note OFF: Time 674520, Note Name: A4
Note ON: Time 674520, Note Name: B4, Velocity: 44
Note OFF: Time 674640, Note Name: B4
Note ON: Time 674640, Note Name: C5, Velocity: 45
Note OFF: Time 674760, Note Name: C5
Note ON: Time 674760, Note Name: D5, Velocity: 47
Note OFF: Time 674880, Note Name: D5
Note ON: Time 674880, Note Name: E5, Velocity: 48
Note OFF: Time 675000, Note Name: E5
Note ON: Time 675000, Note Name: A4, Velocity: 42
Note OFF: Time 675120, Note Name: A4
Note ON: Time 675120, Note Name: B4, Velocity: 43
Note OFF: Time 675240, Note Name: B4
Note ON: Time 675240, Note Name: C5, Velocity: 45
Note OFF: Time 675360, Note Name: C5
Note ON: Time 675360, Note Name: D5, Velocity: 46
Note OFF: Time 675480, Note Name: D5
Note ON: Time 675480, Note Name: E5, Velocity: 48
Note OFF: Time 675600, Note Name: E5
Note ON: Time 675600, Note Name: F#5, Velocity: 49
Note OFF: Time 675720, Note Name: F#5
Note ON: Time 675720, Note Name: G#5, Velocity: 50
Note OFF: Time 675840, Note Name: G#5
Note ON: Time 675840, Note Name: A5, Velocity: 52
Note OFF: Time 675960, Note Name: A5
Note ON: Time 675960, Note Name: E5, Velocity: 46
Note OFF: Time 676080, Note Name: E5
Note ON: Time 676080, Note Name: F#5, Velocity: 46
Note OFF: Time 676200, Note Name: F#5
Note ON: Time 676200, Note Name: G#5, Velocity: 47
Note OFF: Time 676320, Note Name: G#5
Note ON: Time 676320, Note Name: A5, Velocity: 48
Note OFF: Time 676440, Note Name: A5
Note ON: Time 676440, Note Name: B5, Velocity: 49
Note OFF: Time 676560, Note Name: B5
Note ON: Time 676560, Note Name: C6, Velocity: 50
Note OFF: Time 676680, Note Name: C6
Note ON: Time 676680, Note Name: D6, Velocity: 51
Note OFF: Time 676800, Note Name: D6
Note ON: Time 676800, Note Name: E6, Velocity: 52
Note OFF: Time 676920, Note Name: E6
Note ON: Time 676920, Note Name: D6, Velocity: 46
Note OFF: Time 677040, Note Name: D6
Note ON: Time 677040, Note Name: C6, Velocity: 47
Note OFF: Time 677160, Note Name: C6
Note ON: Time 677160, Note Name: B5, Velocity: 48
Note OFF: Time 677280, Note Name: B5
Note ON: Time 677280, Note Name: A5, Velocity: 49
Note OFF: Time 677400, Note Name: A5
Note ON: Time 677400, Note Name: B5, Velocity: 51
Note OFF: Time 677520, Note Name: B5
Note ON: Time 677520, Note Name: C6, Velocity: 52
Note OFF: Time 677640, Note Name: C6
Note ON: Time 677640, Note Name: A5, Velocity: 53
Note OFF: Time 677760, Note Name: A5
Note ON: Time 677880, Note Name: F4, Velocity: 38
Note OFF: Time 678000, Note Name: F4
Note ON: Time 678000, Note Name: G4, Velocity: 41
Note OFF: Time 678120, Note Name: G4
Note ON: Time 678120, Note Name: A4, Velocity: 42
Note OFF: Time 678240, Note Name: A4
Note ON: Time 678240, Note Name: B4, Velocity: 44
Note OFF: Time 678360, Note Name: B4
Note ON: Time 678360, Note Name: C5, Velocity: 47
Note OFF: Time 678480, Note Name: C5
Note ON: Time 678480, Note Name: D5, Velocity: 48
Note OFF: Time 678600, Note Name: D5
Note ON: Time 678600, Note Name: E5, Velocity: 50
Note OFF: Time 678720, Note Name: E5
Note ON: Time 678720, Note Name: F5, Velocity: 52
Note OFF: Time 678840, Note Name: F5
Note ON: Time 678840, Note Name: B4, Velocity: 45
Note OFF: Time 678960, Note Name: B4
Note ON: Time 678960, Note Name: C5, Velocity: 47
Note OFF: Time 679080, Note Name: C5
Note ON: Time 679080, Note Name: D5, Velocity: 49
Note OFF: Time 679200, Note Name: D5
Note ON: Time 679200, Note Name: E5, Velocity: 51
Note OFF: Time 679320, Note Name: E5
Note ON: Time 679320, Note Name: F5, Velocity: 53
Note OFF: Time 679440, Note Name: F5
Note ON: Time 679440, Note Name: G5, Velocity: 54
Note OFF: Time 679560, Note Name: G5
Note ON: Time 679560, Note Name: A5, Velocity: 56
Note OFF: Time 679680, Note Name: A5
Note ON: Time 679680, Note Name: B5, Velocity: 58
Note OFF: Time 679800, Note Name: B5
Note ON: Time 679800, Note Name: F5, Velocity: 51
Note OFF: Time 679920, Note Name: F5
Note ON: Time 679920, Note Name: G5, Velocity: 52
Note OFF: Time 680040, Note Name: G5
Note ON: Time 680040, Note Name: A5, Velocity: 53
Note OFF: Time 680160, Note Name: A5
Note ON: Time 680160, Note Name: B5, Velocity: 55
Note OFF: Time 680280, Note Name: B5
Note ON: Time 680280, Note Name: C6, Velocity: 56
Note OFF: Time 680400, Note Name: C6
Note ON: Time 680400, Note Name: D6, Velocity: 58
Note OFF: Time 680520, Note Name: D6
Note ON: Time 680520, Note Name: E6, Velocity: 59
Note OFF: Time 680640, Note Name: E6
Note ON: Time 680640, Note Name: F6, Velocity: 60
Note OFF: Time 680760, Note Name: F6
Note ON: Time 680760, Note Name: E6, Velocity: 54
Note OFF: Time 680880, Note Name: E6
Note ON: Time 680880, Note Name: D6, Velocity: 55
Note OFF: Time 681000, Note Name: D6
Note ON: Time 681000, Note Name: C6, Velocity: 57
Note OFF: Time 681120, Note Name: C6
Note ON: Time 681120, Note Name: B5, Velocity: 58
Note OFF: Time 681240, Note Name: B5
Note ON: Time 681240, Note Name: C6, Velocity: 61
Note OFF: Time 681360, Note Name: C6
Note ON: Time 681360, Note Name: D6, Velocity: 62
Note OFF: Time 681480, Note Name: D6
Note ON: Time 681480, Note Name: B5, Velocity: 64
Note OFF: Time 681600, Note Name: B5
Note ON: Time 681720, Note Name: G5, Velocity: 56
Note OFF: Time 681840, Note Name: G5
Note ON: Time 681840, Note Name: A5, Velocity: 56
Note OFF: Time 681960, Note Name: A5
Note ON: Time 681960, Note Name: B5, Velocity: 57
Note OFF: Time 682080, Note Name: B5
Note ON: Time 682080, Note Name: C6, Velocity: 59
Note OFF: Time 682200, Note Name: C6
Note ON: Time 682200, Note Name: D6, Velocity: 60
Note OFF: Time 682320, Note Name: D6
Note ON: Time 682320, Note Name: E6, Velocity: 62
Note OFF: Time 682440, Note Name: E6
Note ON: Time 682440, Note Name: F6, Velocity: 63
Note OFF: Time 682560, Note Name: F6
Note ON: Time 682560, Note Name: G6, Velocity: 65
Note OFF: Time 682680, Note Name: G6
Note ON: Time 682680, Note Name: F6, Velocity: 57
Note OFF: Time 682800, Note Name: F6
Note ON: Time 682800, Note Name: E6, Velocity: 59
Note OFF: Time 682920, Note Name: E6
Note ON: Time 682920, Note Name: D6, Velocity: 60
Note OFF: Time 683040, Note Name: D6
Note ON: Time 683040, Note Name: C#6, Velocity: 62
Note OFF: Time 683160, Note Name: C#6
Note ON: Time 683160, Note Name: D6, Velocity: 65
Note OFF: Time 683280, Note Name: D6
Note ON: Time 683280, Note Name: E6, Velocity: 66
Note OFF: Time 683400, Note Name: E6
Note ON: Time 683400, Note Name: C#6, Velocity: 68
Note OFF: Time 683520, Note Name: C#6
Note ON: Time 683640, Note Name: C#5, Velocity: 59
Note OFF: Time 683760, Note Name: C#5
Note ON: Time 683760, Note Name: D5, Velocity: 59
Note OFF: Time 683880, Note Name: D5
Note ON: Time 683880, Note Name: E5, Velocity: 61
Note OFF: Time 684000, Note Name: E5
Note ON: Time 684000, Note Name: F5, Velocity: 63
Note OFF: Time 684120, Note Name: F5
Note ON: Time 684120, Note Name: G5, Velocity: 64
Note OFF: Time 684240, Note Name: G5
Note ON: Time 684240, Note Name: A5, Velocity: 66
Note OFF: Time 684360, Note Name: A5
Note ON: Time 684360, Note Name: F5, Velocity: 67
Note OFF: Time 684600, Note Name: F5
Note ON: Time 684600, Note Name: D#5, Velocity: 61
Note OFF: Time 684720, Note Name: D#5
Note ON: Time 684720, Note Name: E5, Velocity: 61
Note OFF: Time 684840, Note Name: E5
Note ON: Time 684840, Note Name: F5, Velocity: 64
Note OFF: Time 684960, Note Name: F5
Note ON: Time 684960, Note Name: G5, Velocity: 65
Note OFF: Time 685080, Note Name: G5
Note ON: Time 685080, Note Name: A5, Velocity: 66
Note OFF: Time 685200, Note Name: A5
Note ON: Time 685200, Note Name: B5, Velocity: 69
Note OFF: Time 685320, Note Name: B5
Note ON: Time 685320, Note Name: G5, Velocity: 70
Note OFF: Time 685560, Note Name: G5
Note ON: Time 685560, Note Name: E5, Velocity: 63
Note OFF: Time 685680, Note Name: E5
Note ON: Time 685680, Note Name: F5, Velocity: 64
Note OFF: Time 685800, Note Name: F5
Note ON: Time 685800, Note Name: G5, Velocity: 66
Note OFF: Time 685920, Note Name: G5
Note ON: Time 685920, Note Name: A5, Velocity: 68
Note OFF: Time 686040, Note Name: A5
Note ON: Time 686040, Note Name: B5, Velocity: 69
Note OFF: Time 686160, Note Name: B5
Note ON: Time 686160, Note Name: C6, Velocity: 72
Note OFF: Time 686280, Note Name: C6
Note ON: Time 686280, Note Name: A5, Velocity: 73
Note OFF: Time 686520, Note Name: A5
Note ON: Time 686520, Note Name: F#5, Velocity: 66
Note OFF: Time 686640, Note Name: F#5
Note ON: Time 686640, Note Name: G5, Velocity: 66
Note OFF: Time 686760, Note Name: G5
Note ON: Time 686760, Note Name: A5, Velocity: 68
Note OFF: Time 686880, Note Name: A5
Note ON: Time 686880, Note Name: B5, Velocity: 70
Note OFF: Time 687000, Note Name: B5
Note ON: Time 687000, Note Name: C6, Velocity: 71
Note OFF: Time 687120, Note Name: C6
Note ON: Time 687120, Note Name: D6, Velocity: 74
Note OFF: Time 687240, Note Name: D6
Note ON: Time 687240, Note Name: B5, Velocity: 75
Note OFF: Time 687480, Note Name: B5
Note ON: Time 687480, Note Name: G#5, Velocity: 69
Note OFF: Time 687600, Note Name: G#5
Note ON: Time 687600, Note Name: A5, Velocity: 69
Note OFF: Time 687720, Note Name: A5
Note ON: Time 687720, Note Name: B5, Velocity: 71
Note OFF: Time 687840, Note Name: B5
Note ON: Time 687840, Note Name: C6, Velocity: 73
Note OFF: Time 687960, Note Name: C6
Note ON: Time 687960, Note Name: D6, Velocity: 74
Note OFF: Time 688080, Note Name: D6
Note ON: Time 688080, Note Name: E6, Velocity: 77
Note OFF: Time 688200, Note Name: E6
Note ON: Time 688200, Note Name: C6, Velocity: 79
Note OFF: Time 688440, Note Name: C6
Note ON: Time 688440, Note Name: A#5, Velocity: 71
Note OFF: Time 688560, Note Name: A#5
Note ON: Time 688560, Note Name: B5, Velocity: 71
Note OFF: Time 688680, Note Name: B5
Note ON: Time 688680, Note Name: C6, Velocity: 74
Note OFF: Time 688800, Note Name: C6
Note ON: Time 688800, Note Name: D6, Velocity: 75
Note OFF: Time 688920, Note Name: D6
Note ON: Time 688920, Note Name: E6, Velocity: 77
Note OFF: Time 689040, Note Name: E6
Note ON: Time 689040, Note Name: F6, Velocity: 79
Note OFF: Time 689160, Note Name: F6
Note ON: Time 689160, Note Name: D6, Velocity: 81
Note OFF: Time 689280, Note Name: D6
Note ON: Time 689520, Note Name: G5, Velocity: 76
Note OFF: Time 689600, Note Name: G5
Note ON: Time 689600, Note Name: C6, Velocity: 69
Note OFF: Time 689680, Note Name: C6
Note ON: Time 689680, Note Name: G6, Velocity: 70
Note OFF: Time 689760, Note Name: G6
Note ON: Time 690000, Note Name: G5, Velocity: 78
Note OFF: Time 690080, Note Name: G5
Note ON: Time 690080, Note Name: C6, Velocity: 72
Note OFF: Time 690160, Note Name: C6
Note ON: Time 690160, Note Name: G6, Velocity: 71
Note OFF: Time 690240, Note Name: G6
Note ON: Time 690480, Note Name: G#5, Velocity: 80
Note OFF: Time 690560, Note Name: G#5
Note ON: Time 690560, Note Name: C6, Velocity: 73
Note OFF: Time 690640, Note Name: C6
Note ON: Time 690640, Note Name: G#6, Velocity: 74
Note OFF: Time 690720, Note Name: G#6
Note ON: Time 690960, Note Name: G#5, Velocity: 82
Note OFF: Time 691040, Note Name: G#5
Note ON: Time 691040, Note Name: C6, Velocity: 75
Note OFF: Time 691120, Note Name: C6
Note ON: Time 691120, Note Name: G#6, Velocity: 75
Note OFF: Time 691200, Note Name: G#6
Note ON: Time 691200, Note Name: A5, Velocity: 85
Note OFF: Time 691320, Note Name: A5
Note ON: Time 691320, Note Name: A6, Velocity: 88
Note OFF: Time 691440, Note Name: A6
Note ON: Time 691440, Note Name: G6, Velocity: 87
Note OFF: Time 691560, Note Name: G6
Note ON: Time 691560, Note Name: F6, Velocity: 86
Note OFF: Time 691680, Note Name: F6
Note ON: Time 691680, Note Name: E6, Velocity: 86
Note OFF: Time 691800, Note Name: E6
Note ON: Time 691800, Note Name: D6, Velocity: 85
Note OFF: Time 691920, Note Name: D6
Note ON: Time 691920, Note Name: C6, Velocity: 84
Note OFF: Time 692040, Note Name: C6
Note ON: Time 692040, Note Name: B5, Velocity: 83
Note OFF: Time 692160, Note Name: B5
Note ON: Time 692160, Note Name: A5, Velocity: 82
Note OFF: Time 692280, Note Name: A5
Note ON: Time 692280, Note Name: G5, Velocity: 81
Note OFF: Time 692400, Note Name: G5
Note ON: Time 692400, Note Name: F5, Velocity: 80
Note OFF: Time 692520, Note Name: F5
Note ON: Time 692520, Note Name: E5, Velocity: 79
Note OFF: Time 692640, Note Name: E5
Note ON: Time 692640, Note Name: D5, Velocity: 78
Note OFF: Time 692760, Note Name: D5
Note ON: Time 692760, Note Name: C5, Velocity: 77
Note OFF: Time 692880, Note Name: C5
Note ON: Time 692880, Note Name: B4, Velocity: 77
Note OFF: Time 693000, Note Name: B4
Note ON: Time 693000, Note Name: A4, Velocity: 76
Note OFF: Time 693120, Note Name: A4
Note ON: Time 693120, Note Name: G#4, Velocity: 75
Note OFF: Time 693240, Note Name: G#4
Note ON: Time 693240, Note Name: A4, Velocity: 78
Note OFF: Time 693360, Note Name: A4
Note ON: Time 693360, Note Name: G4, Velocity: 77
Note OFF: Time 693480, Note Name: G4
Note ON: Time 693480, Note Name: F4, Velocity: 77
Note OFF: Time 693600, Note Name: F4
Note ON: Time 693600, Note Name: E4, Velocity: 77
Note OFF: Time 693720, Note Name: E4
Note ON: Time 693720, Note Name: D4, Velocity: 77
Note OFF: Time 693840, Note Name: D4
Note ON: Time 693840, Note Name: C4, Velocity: 76
Note OFF: Time 693960, Note Name: C4
Note ON: Time 693960, Note Name: B3, Velocity: 76
Note OFF: Time 694080, Note Name: B3
Note ON: Time 694080, Note Name: A3, Velocity: 76
Note OFF: Time 694200, Note Name: A3
Note ON: Time 694200, Note Name: G3, Velocity: 75
Note OFF: Time 694320, Note Name: G3
Note ON: Time 694320, Note Name: F3, Velocity: 75
Note OFF: Time 694440, Note Name: F3
Note ON: Time 694440, Note Name: E3, Velocity: 75
Note OFF: Time 694560, Note Name: E3
Note ON: Time 694560, Note Name: D3, Velocity: 75
Note OFF: Time 694680, Note Name: D3
Note ON: Time 694680, Note Name: C3, Velocity: 74
Note OFF: Time 694800, Note Name: C3
Note ON: Time 694800, Note Name: B2, Velocity: 74
Note OFF: Time 694920, Note Name: B2
Note ON: Time 694920, Note Name: A2, Velocity: 74
Note OFF: Time 695040, Note Name: A2
Note ON: Time 695040, Note Name: G2, Velocity: 75
Note OFF: Time 695160, Note Name: G2
Note ON: Time 695160, Note Name: C3, Velocity: 75
Note OFF: Time 695280, Note Name: C3
Note ON: Time 695280, Note Name: B2, Velocity: 47
Note OFF: Time 695400, Note Name: B2
Note ON: Time 695400, Note Name: D3, Velocity: 47
Note OFF: Time 695520, Note Name: D3
Note ON: Time 695520, Note Name: C3, Velocity: 47
Note OFF: Time 695640, Note Name: C3
Note ON: Time 695640, Note Name: E3, Velocity: 48
Note OFF: Time 695760, Note Name: E3
Note ON: Time 695760, Note Name: D#3, Velocity: 48
Note OFF: Time 695880, Note Name: D#3
Note ON: Time 695880, Note Name: F3, Velocity: 48
Note OFF: Time 696000, Note Name: F3
Note ON: Time 696000, Note Name: E3, Velocity: 48
Note OFF: Time 696120, Note Name: E3
Note ON: Time 696120, Note Name: G3, Velocity: 49
Note OFF: Time 696240, Note Name: G3
Note ON: Time 696240, Note Name: F#3, Velocity: 49
Note OFF: Time 696360, Note Name: F#3
Note ON: Time 696360, Note Name: A3, Velocity: 49
Note OFF: Time 696480, Note Name: A3
Note ON: Time 696480, Note Name: G3, Velocity: 50
Note OFF: Time 696600, Note Name: G3
Note ON: Time 696600, Note Name: C4, Velocity: 50
Note OFF: Time 696720, Note Name: C4
Note ON: Time 696720, Note Name: B3, Velocity: 50
Note OFF: Time 696840, Note Name: B3
Note ON: Time 696840, Note Name: D4, Velocity: 51
Note OFF: Time 696960, Note Name: D4
Note ON: Time 696960, Note Name: C4, Velocity: 51
Note OFF: Time 697080, Note Name: C4
Note ON: Time 697080, Note Name: E4, Velocity: 51
Note OFF: Time 697200, Note Name: E4
Note ON: Time 697200, Note Name: D#4, Velocity: 52
Note OFF: Time 697320, Note Name: D#4
Note ON: Time 697320, Note Name: F4, Velocity: 52
Note OFF: Time 697440, Note Name: F4
Note ON: Time 697440, Note Name: E4, Velocity: 52
Note OFF: Time 697560, Note Name: E4
Note ON: Time 697560, Note Name: G4, Velocity: 53
Note OFF: Time 697680, Note Name: G4
Note ON: Time 697680, Note Name: F#4, Velocity: 53
Note OFF: Time 697800, Note Name: F#4
Note ON: Time 697800, Note Name: A4, Velocity: 53
Note OFF: Time 697920, Note Name: A4
Note ON: Time 697920, Note Name: G4, Velocity: 54
Note OFF: Time 698040, Note Name: G4
Note ON: Time 698040, Note Name: C5, Velocity: 54
Note OFF: Time 698160, Note Name: C5
Note ON: Time 698160, Note Name: B4, Velocity: 54
Note OFF: Time 698280, Note Name: B4
Note ON: Time 698280, Note Name: D5, Velocity: 55
Note OFF: Time 698400, Note Name: D5
Note ON: Time 698400, Note Name: C5, Velocity: 55
Note OFF: Time 698520, Note Name: C5
Note ON: Time 698520, Note Name: E5, Velocity: 55
Note OFF: Time 698640, Note Name: E5
Note ON: Time 698640, Note Name: D#5, Velocity: 56
Note OFF: Time 698760, Note Name: D#5
Note ON: Time 698760, Note Name: F5, Velocity: 56
Note OFF: Time 698880, Note Name: F5
Note ON: Time 698880, Note Name: E5, Velocity: 56
Note OFF: Time 699000, Note Name: E5
Note ON: Time 699000, Note Name: G5, Velocity: 58
Note OFF: Time 699120, Note Name: G5
Note ON: Time 699120, Note Name: F#5, Velocity: 60
Note OFF: Time 699240, Note Name: F#5
Note ON: Time 699240, Note Name: A5, Velocity: 62
Note OFF: Time 699360, Note Name: A5
Note ON: Time 699360, Note Name: G5, Velocity: 70
Note OFF: Time 699420, Note Name: G5
Note ON: Time 699480, Note Name: C6, Velocity: 62
Note OFF: Time 699600, Note Name: C6
Note ON: Time 699600, Note Name: B5, Velocity: 62
Note OFF: Time 699720, Note Name: B5
Note ON: Time 699720, Note Name: C6, Velocity: 63
Note OFF: Time 699840, Note Name: C6
Note ON: Time 699840, Note Name: G5, Velocity: 70
Note OFF: Time 699900, Note Name: G5
Note ON: Time 699960, Note Name: E6, Velocity: 63
Note OFF: Time 700080, Note Name: E6
Note ON: Time 700080, Note Name: D#6, Velocity: 64
Note OFF: Time 700200, Note Name: D#6
Note ON: Time 700200, Note Name: E6, Velocity: 65
Note OFF: Time 700320, Note Name: E6
Note ON: Time 700320, Note Name: G5, Velocity: 72
Note OFF: Time 700380, Note Name: G5
Note ON: Time 700440, Note Name: C6, Velocity: 65
Note OFF: Time 700560, Note Name: C6
Note ON: Time 700560, Note Name: B5, Velocity: 66
Note OFF: Time 700680, Note Name: B5
Note ON: Time 700680, Note Name: C6, Velocity: 66
Note OFF: Time 700800, Note Name: C6
Note ON: Time 700800, Note Name: G5, Velocity: 74
Note OFF: Time 700860, Note Name: G5
Note ON: Time 700920, Note Name: E6, Velocity: 67
Note OFF: Time 701040, Note Name: E6
Note ON: Time 701040, Note Name: D#6, Velocity: 68
Note OFF: Time 701160, Note Name: D#6
Note ON: Time 701160, Note Name: E6, Velocity: 68
Note OFF: Time 701280, Note Name: E6
Note ON: Time 701280, Note Name: G5, Velocity: 76
Note OFF: Time 701340, Note Name: G5
Note ON: Time 701400, Note Name: C6, Velocity: 69
Note OFF: Time 701520, Note Name: C6
Note ON: Time 701520, Note Name: B5, Velocity: 69
Note OFF: Time 701640, Note Name: B5
Note ON: Time 701640, Note Name: C6, Velocity: 70
Note OFF: Time 701760, Note Name: C6
Note ON: Time 701760, Note Name: G5, Velocity: 78
Note OFF: Time 701820, Note Name: G5
Note ON: Time 701880, Note Name: E6, Velocity: 71
Note OFF: Time 702000, Note Name: E6
Note ON: Time 702000, Note Name: D#6, Velocity: 71
Note OFF: Time 702120, Note Name: D#6
Note ON: Time 702120, Note Name: E6, Velocity: 71
Note OFF: Time 702240, Note Name: E6
Note ON: Time 702240, Note Name: G5, Velocity: 80
Note OFF: Time 702300, Note Name: G5
Note ON: Time 702360, Note Name: C6, Velocity: 72
Note OFF: Time 702480, Note Name: C6
Note ON: Time 702480, Note Name: B5, Velocity: 73
Note OFF: Time 702600, Note Name: B5
Note ON: Time 702600, Note Name: C6, Velocity: 73
Note OFF: Time 702720, Note Name: C6
Note ON: Time 702720, Note Name: F6, Velocity: 87
Note ON: Time 702720, Note Name: B5, Velocity: 87
Note OFF: Time 703920, Note Name: B5
Note OFF: Time 703920, Note Name: F6
Note ON: Time 703920, Note Name: F6, Velocity: 73
Note OFF: Time 703980, Note Name: F6
Note ON: Time 703980, Note Name: E6, Velocity: 73
Note OFF: Time 704040, Note Name: E6
Note ON: Time 704040, Note Name: D6, Velocity: 72
Note OFF: Time 704100, Note Name: D6
Note ON: Time 704100, Note Name: C6, Velocity: 71
Note OFF: Time 704160, Note Name: C6
Note ON: Time 704160, Note Name: B5, Velocity: 70
Note OFF: Time 704220, Note Name: B5
Note ON: Time 704220, Note Name: A5, Velocity: 69
Note OFF: Time 704280, Note Name: A5
Note ON: Time 704280, Note Name: G5, Velocity: 68
Note OFF: Time 704340, Note Name: G5
Note ON: Time 704340, Note Name: F5, Velocity: 68
Note OFF: Time 704400, Note Name: F5
Note ON: Time 704400, Note Name: E5, Velocity: 66
Note OFF: Time 704460, Note Name: E5
Note ON: Time 704460, Note Name: D5, Velocity: 66
Note OFF: Time 704520, Note Name: D5
Note ON: Time 704520, Note Name: C5, Velocity: 65
Note OFF: Time 704580, Note Name: C5
Note ON: Time 704580, Note Name: B4, Velocity: 65
Note OFF: Time 704640, Note Name: B4
Note ON: Time 704640, Note Name: B4, Velocity: 78
Note ON: Time 704640, Note Name: F5, Velocity: 78
Note OFF: Time 706080, Note Name: F5
Note OFF: Time 706080, Note Name: B4
Note ON: Time 706080, Note Name: F5, Velocity: 64
Note OFF: Time 706140, Note Name: F5
Note ON: Time 706140, Note Name: E5, Velocity: 62
Note OFF: Time 706200, Note Name: E5
Note ON: Time 706200, Note Name: D5, Velocity: 60
Note OFF: Time 706260, Note Name: D5
Note ON: Time 706260, Note Name: C5, Velocity: 60
Note OFF: Time 706320, Note Name: C5
Note ON: Time 706320, Note Name: B4, Velocity: 60
Note OFF: Time 706380, Note Name: B4
Note ON: Time 706380, Note Name: A4, Velocity: 59
Note OFF: Time 706440, Note Name: A4
Note ON: Time 706440, Note Name: G4, Velocity: 56
Note OFF: Time 706500, Note Name: G4
Note ON: Time 706500, Note Name: F4, Velocity: 54
Note OFF: Time 706560, Note Name: F4
Note ON: Time 706560, Note Name: G3, Velocity: 42
Note ON: Time 706560, Note Name: C4, Velocity: 42
Note ON: Time 706560, Note Name: E4, Velocity: 50
Note OFF: Time 707520, Note Name: E4
Note OFF: Time 707520, Note Name: C4
Note OFF: Time 707520, Note Name: G3
Note ON: Time 707520, Note Name: F3, Velocity: 40
Note ON: Time 707520, Note Name: B3, Velocity: 40
Note ON: Time 707520, Note Name: D4, Velocity: 48
Note OFF: Time 708000, Note Name: D4
Note OFF: Time 708000, Note Name: B3
Note OFF: Time 708000, Note Name: F3
Note ON: Time 708000, Note Name: E3, Velocity: 40
Note ON: Time 708000, Note Name: A3, Velocity: 40
Note ON: Time 708000, Note Name: C4, Velocity: 48
Note OFF: Time 708480, Note Name: C4
Note OFF: Time 708480, Note Name: A3
Note OFF: Time 708480, Note Name: E3
Note ON: Time 708480, Note Name: D3, Velocity: 42
Note ON: Time 708480, Note Name: G#3, Velocity: 42
Note ON: Time 708480, Note Name: B3, Velocity: 50
Note OFF: Time 709440, Note Name: B3
Note OFF: Time 709440, Note Name: G#3
Note OFF: Time 709440, Note Name: D3
Note ON: Time 709440, Note Name: C3, Velocity: 40
Note ON: Time 709440, Note Name: A3, Velocity: 48
Note OFF: Time 710400, Note Name: A3
Note OFF: Time 710400, Note Name: C3
Note ON: Time 710400, Note Name: F4, Velocity: 45
Note ON: Time 710400, Note Name: G4, Velocity: 45
Note ON: Time 710400, Note Name: B4, Velocity: 53
Note OFF: Time 711360, Note Name: B4
Note OFF: Time 711360, Note Name: G4
Note OFF: Time 711360, Note Name: F4
Note ON: Time 711360, Note Name: G4, Velocity: 47
Note ON: Time 711360, Note Name: C5, Velocity: 56
Note OFF: Time 711840, Note Name: C5
Note OFF: Time 711840, Note Name: G4
Note ON: Time 711840, Note Name: A4, Velocity: 51
Note ON: Time 711840, Note Name: C5, Velocity: 51
Note ON: Time 711840, Note Name: D5, Velocity: 62
Note OFF: Time 712320, Note Name: D5
Note OFF: Time 712320, Note Name: C5
Note OFF: Time 712320, Note Name: A4
Note ON: Time 712320, Note Name: G4, Velocity: 56
Note ON: Time 712320, Note Name: C5, Velocity: 56
Note ON: Time 712320, Note Name: E5, Velocity: 67
Note OFF: Time 713280, Note Name: E5
Note OFF: Time 713280, Note Name: C5
Note ON: Time 713280, Note Name: B4, Velocity: 50
Note ON: Time 713280, Note Name: D5, Velocity: 60
Note OFF: Time 713760, Note Name: G4
Note ON: Time 713760, Note Name: G5, Velocity: 50
Note OFF: Time 714000, Note Name: G5
Note ON: Time 714000, Note Name: F5, Velocity: 49
Note OFF: Time 714240, Note Name: F5
Note OFF: Time 714240, Note Name: D5
Note OFF: Time 714240, Note Name: B4
Note ON: Time 714720, Note Name: E6, Velocity: 52
Note ON: Time 714720, Note Name: C6, Velocity: 44
Note OFF: Time 715200, Note Name: C6
Note OFF: Time 715200, Note Name: E6
Note ON: Time 715200, Note Name: D6, Velocity: 50
Note ON: Time 715200, Note Name: B5, Velocity: 42
Note ON: Time 715200, Note Name: F5, Velocity: 42
Note OFF: Time 715680, Note Name: F5
Note OFF: Time 715680, Note Name: B5
Note OFF: Time 715680, Note Name: D6
Note ON: Time 715680, Note Name: C6, Velocity: 50
Note ON: Time 715680, Note Name: A5, Velocity: 42
Note ON: Time 715680, Note Name: E5, Velocity: 42
Note OFF: Time 716160, Note Name: E5
Note OFF: Time 716160, Note Name: A5
Note OFF: Time 716160, Note Name: C6
Note ON: Time 716160, Note Name: D5, Velocity: 45
Note ON: Time 716160, Note Name: G#5, Velocity: 45
Note ON: Time 716160, Note Name: B5, Velocity: 53
Note OFF: Time 717120, Note Name: B5
Note OFF: Time 717120, Note Name: G#5
Note OFF: Time 717120, Note Name: D5
Note ON: Time 717120, Note Name: C5, Velocity: 42
Note ON: Time 717120, Note Name: A5, Velocity: 50
Note OFF: Time 718080, Note Name: A5
Note OFF: Time 718080, Note Name: C5
Note ON: Time 718080, Note Name: C5, Velocity: 45
Note ON: Time 718080, Note Name: E5, Velocity: 45
Note ON: Time 718080, Note Name: G5, Velocity: 53
Note OFF: Time 718560, Note Name: E5
Note OFF: Time 718560, Note Name: C5
Note ON: Time 718560, Note Name: D5, Velocity: 40
Note ON: Time 718560, Note Name: F5, Velocity: 48
Note OFF: Time 719040, Note Name: G5
Note ON: Time 719040, Note Name: A5, Velocity: 53
Note OFF: Time 719520, Note Name: A5
Note ON: Time 719520, Note Name: B5, Velocity: 51
Note OFF: Time 720000, Note Name: B5
Note OFF: Time 720000, Note Name: F5
Note OFF: Time 720000, Note Name: D5
Note ON: Time 720000, Note Name: C4, Velocity: 45
Note ON: Time 720000, Note Name: E4, Velocity: 45
Note ON: Time 720000, Note Name: G4, Velocity: 53
Note OFF: Time 720480, Note Name: E4
Note OFF: Time 720480, Note Name: C4
Note ON: Time 720480, Note Name: D4, Velocity: 40
Note ON: Time 720480, Note Name: F4, Velocity: 48
Note OFF: Time 721920, Note Name: G4
Note ON: Time 721920, Note Name: G#4, Velocity: 56
Note OFF: Time 722880, Note Name: G#4
Note ON: Time 722880, Note Name: B4, Velocity: 46
Note OFF: Time 723840, Note Name: B4
Note OFF: Time 723840, Note Name: F4
Note OFF: Time 723840, Note Name: D4
Note ON: Time 723840, Note Name: C3, Velocity: 45
Note ON: Time 723840, Note Name: E3, Velocity: 45
Note ON: Time 723840, Note Name: G3, Velocity: 53
Note OFF: Time 724320, Note Name: E3
Note OFF: Time 724320, Note Name: C3
Note ON: Time 724320, Note Name: D3, Velocity: 40
Note ON: Time 724320, Note Name: F3, Velocity: 48
Note OFF: Time 725760, Note Name: G3
Note ON: Time 725760, Note Name: A3, Velocity: 56
Note OFF: Time 726720, Note Name: A3
Note ON: Time 726720, Note Name: B3, Velocity: 46
Note OFF: Time 727680, Note Name: B3
Note OFF: Time 727680, Note Name: F3
Note OFF: Time 727680, Note Name: D3
Note ON: Time 727680, Note Name: E3, Velocity: 28
Note ON: Time 727680, Note Name: C4, Velocity: 40
Note OFF: Time 727800, Note Name: E3
Note OFF: Time 727920, Note Name: C4
Note ON: Time 727920, Note Name: C4, Velocity: 28
Note ON: Time 727920, Note Name: E4, Velocity: 33
Note OFF: Time 728040, Note Name: E4
Note OFF: Time 728040, Note Name: C4
Note ON: Time 728160, Note Name: C4, Velocity: 28
Note ON: Time 728160, Note Name: E4, Velocity: 33
Note OFF: Time 728280, Note Name: E4
Note OFF: Time 728280, Note Name: C4
Note ON: Time 728400, Note Name: C4, Velocity: 28
Note ON: Time 728400, Note Name: E4, Velocity: 34
Note OFF: Time 728520, Note Name: E4
Note OFF: Time 728520, Note Name: C4
Note ON: Time 728640, Note Name: C4, Velocity: 28
Note ON: Time 728640, Note Name: E4, Velocity: 34
Note OFF: Time 728760, Note Name: E4
Note OFF: Time 728760, Note Name: C4
Note ON: Time 728880, Note Name: C4, Velocity: 28
Note ON: Time 728880, Note Name: E4, Velocity: 34
Note OFF: Time 729000, Note Name: E4
Note OFF: Time 729000, Note Name: C4
Note ON: Time 729120, Note Name: C4, Velocity: 29
Note ON: Time 729120, Note Name: E4, Velocity: 35
Note OFF: Time 729240, Note Name: E4
Note OFF: Time 729240, Note Name: C4
Note ON: Time 729360, Note Name: C4, Velocity: 29
Note ON: Time 729360, Note Name: E4, Velocity: 35
Note OFF: Time 729480, Note Name: E4
Note OFF: Time 729480, Note Name: C4
Note ON: Time 729600, Note Name: C4, Velocity: 30
Note ON: Time 729600, Note Name: E4, Velocity: 36
Note OFF: Time 729720, Note Name: E4
Note OFF: Time 729720, Note Name: C4
Note ON: Time 729840, Note Name: C4, Velocity: 30
Note ON: Time 729840, Note Name: E4, Velocity: 36
Note OFF: Time 729960, Note Name: E4
Note OFF: Time 729960, Note Name: C4
Note ON: Time 730080, Note Name: C4, Velocity: 31
Note ON: Time 730080, Note Name: E4, Velocity: 37
Note OFF: Time 730200, Note Name: E4
Note OFF: Time 730200, Note Name: C4
Note ON: Time 730320, Note Name: C4, Velocity: 32
Note ON: Time 730320, Note Name: E4, Velocity: 38
Note OFF: Time 730440, Note Name: E4
Note OFF: Time 730440, Note Name: C4
Note ON: Time 730560, Note Name: C4, Velocity: 33
Note ON: Time 730560, Note Name: E4, Velocity: 39
Note OFF: Time 730680, Note Name: E4
Note OFF: Time 730680, Note Name: C4
Note ON: Time 730800, Note Name: C4, Velocity: 34
Note ON: Time 730800, Note Name: E4, Velocity: 40
Note OFF: Time 730920, Note Name: E4
Note OFF: Time 730920, Note Name: C4
Note ON: Time 731040, Note Name: D4, Velocity: 34
Note ON: Time 731040, Note Name: F#4, Velocity: 40
Note OFF: Time 731160, Note Name: F#4
Note OFF: Time 731160, Note Name: D4
Note ON: Time 731280, Note Name: D4, Velocity: 34
Note ON: Time 731280, Note Name: F#4, Velocity: 40
Note OFF: Time 731400, Note Name: F#4
Note OFF: Time 731400, Note Name: D4
Note ON: Time 731520, Note Name: G4, Velocity: 52
Note OFF: Time 731760, Note Name: G4
Note ON: Time 731760, Note Name: B4, Velocity: 46
Note OFF: Time 731880, Note Name: B4
Note ON: Time 731880, Note Name: A4, Velocity: 46
Note OFF: Time 732000, Note Name: A4
Note ON: Time 732000, Note Name: G4, Velocity: 52
Note OFF: Time 732120, Note Name: G4
Note ON: Time 732480, Note Name: C5, Velocity: 65
Note OFF: Time 732720, Note Name: C5
Note ON: Time 732720, Note Name: E5, Velocity: 58
Note OFF: Time 732840, Note Name: E5
Note ON: Time 732840, Note Name: D5, Velocity: 58
Note OFF: Time 732960, Note Name: D5
Note ON: Time 732960, Note Name: C5, Velocity: 64
Note OFF: Time 733080, Note Name: C5
Note ON: Time 733440, Note Name: F5, Velocity: 75
Note OFF: Time 733680, Note Name: F5
Note ON: Time 733680, Note Name: A5, Velocity: 65
Note OFF: Time 733800, Note Name: A5
Note ON: Time 733800, Note Name: G5, Velocity: 65
Note OFF: Time 733920, Note Name: G5
Note ON: Time 733920, Note Name: F5, Velocity: 73
Note OFF: Time 734040, Note Name: F5
Note ON: Time 734400, Note Name: F6, Velocity: 87
Note OFF: Time 734520, Note Name: F6
Note ON: Time 734520, Note Name: E6, Velocity: 79
Note OFF: Time 734640, Note Name: E6
Note ON: Time 734640, Note Name: F6, Velocity: 79
Note OFF: Time 734760, Note Name: F6
Note ON: Time 734760, Note Name: E6, Velocity: 79
Note OFF: Time 734880, Note Name: E6
Note ON: Time 734880, Note Name: F6, Velocity: 79
Note OFF: Time 735000, Note Name: F6
Note ON: Time 735000, Note Name: E6, Velocity: 79
Note OFF: Time 735120, Note Name: E6
Note ON: Time 735120, Note Name: F6, Velocity: 79
Note OFF: Time 735240, Note Name: F6
Note ON: Time 735240, Note Name: E6, Velocity: 79
Note OFF: Time 735360, Note Name: E6
Note ON: Time 735360, Note Name: F6, Velocity: 78
Note OFF: Time 735480, Note Name: F6
Note ON: Time 735480, Note Name: E6, Velocity: 78
Note OFF: Time 735600, Note Name: E6
Note ON: Time 735600, Note Name: D6, Velocity: 79
Note OFF: Time 735720, Note Name: D6
Note ON: Time 735720, Note Name: C6, Velocity: 80
Note OFF: Time 735840, Note Name: C6
Note ON: Time 735840, Note Name: B5, Velocity: 81
Note OFF: Time 735960, Note Name: B5
Note ON: Time 735960, Note Name: A5, Velocity: 82
Note OFF: Time 736080, Note Name: A5
Note ON: Time 736080, Note Name: G5, Velocity: 83
Note OFF: Time 736200, Note Name: G5
Note ON: Time 736200, Note Name: F5, Velocity: 84
Note OFF: Time 736320, Note Name: F5
Note ON: Time 736320, Note Name: E5, Velocity: 85
Note OFF: Time 736440, Note Name: E5
Note ON: Time 736440, Note Name: D5, Velocity: 86
Note OFF: Time 736560, Note Name: D5
Note ON: Time 736560, Note Name: C5, Velocity: 88
Note OFF: Time 736680, Note Name: C5
Note ON: Time 736680, Note Name: B4, Velocity: 89
Note OFF: Time 736800, Note Name: B4
Note ON: Time 736800, Note Name: A4, Velocity: 90
Note OFF: Time 736920, Note Name: A4
Note ON: Time 736920, Note Name: G4, Velocity: 92
Note OFF: Time 737040, Note Name: G4
Note ON: Time 737040, Note Name: F4, Velocity: 92
Note OFF: Time 737160, Note Name: F4
Note ON: Time 737160, Note Name: E4, Velocity: 93
Note OFF: Time 737280, Note Name: E4
Note ON: Time 737280, Note Name: D4, Velocity: 100
Note OFF: Time 737520, Note Name: D4
Note ON: Time 737760, Note Name: G4, Velocity: 85
Note ON: Time 737760, Note Name: B4, Velocity: 85
Note ON: Time 737760, Note Name: D5, Velocity: 100
Note ON: Time 737760, Note Name: G5, Velocity: 100
Note OFF: Time 738000, Note Name: G5
Note OFF: Time 738000, Note Name: G4
Note OFF: Time 738000, Note Name: B4
Note OFF: Time 738000, Note Name: D5
Note ON: Time 739200, Note Name: E4, Velocity: 89
Note ON: Time 739200, Note Name: G4, Velocity: 89
Note ON: Time 739200, Note Name: C5, Velocity: 106
Note ON: Time 739200, Note Name: E5, Velocity: 106
Note OFF: Time 739440, Note Name: E5
Note OFF: Time 739440, Note Name: E4
Note OFF: Time 739440, Note Name: G4
Note OFF: Time 739440, Note Name: C5
Note ON: Time 740160, Note Name: G4, Velocity: 89
Note ON: Time 740160, Note Name: B4, Velocity: 89
Note ON: Time 740160, Note Name: D5, Velocity: 106
Note ON: Time 740160, Note Name: G5, Velocity: 106
Note OFF: Time 740400, Note Name: G5
Note OFF: Time 740400, Note Name: G4
Note OFF: Time 740400, Note Name: B4
Note OFF: Time 740400, Note Name: D5
Note ON: Time 741120, Note Name: C6, Velocity: 106
Note ON: Time 741120, Note Name: G5, Velocity: 106
Note ON: Time 741120, Note Name: E5, Velocity: 89
Note ON: Time 741120, Note Name: C5, Velocity: 89
Note OFF: Time 741360, Note Name: C5
Note OFF: Time 741360, Note Name: C6
Note OFF: Time 741360, Note Name: G5
Note OFF: Time 741360, Note Name: E5
Track 2: Piano left
Note ON: Time 0, Note Name: C2, Velocity: 25
Note OFF: Time 180, Note Name: C2
Note ON: Time 240, Note Name: G2, Velocity: 26
Note ON: Time 240, Note Name: C2, Velocity: 22
Note OFF: Time 420, Note Name: C2
Note OFF: Time 420, Note Name: G2
Note ON: Time 480, Note Name: G2, Velocity: 26
Note ON: Time 480, Note Name: C2, Velocity: 22
Note OFF: Time 660, Note Name: C2
Note OFF: Time 660, Note Name: G2
Note ON: Time 720, Note Name: G2, Velocity: 27
Note ON: Time 720, Note Name: C2, Velocity: 22
Note OFF: Time 900, Note Name: C2
Note OFF: Time 900, Note Name: G2
Note ON: Time 960, Note Name: G2, Velocity: 27
Note ON: Time 960, Note Name: C2, Velocity: 22
Note OFF: Time 1140, Note Name: C2
Note OFF: Time 1140, Note Name: G2
Note ON: Time 1200, Note Name: G2, Velocity: 28
Note ON: Time 1200, Note Name: C2, Velocity: 23
Note OFF: Time 1380, Note Name: C2
Note OFF: Time 1380, Note Name: G2
Note ON: Time 1440, Note Name: G2, Velocity: 28
Note ON: Time 1440, Note Name: C2, Velocity: 23
Note OFF: Time 1620, Note Name: C2
Note OFF: Time 1620, Note Name: G2
Note ON: Time 1680, Note Name: G2, Velocity: 29
Note ON: Time 1680, Note Name: C2, Velocity: 24
Note OFF: Time 1860, Note Name: C2
Note OFF: Time 1860, Note Name: G2
Note ON: Time 1920, Note Name: C2, Velocity: 25
Note ON: Time 1920, Note Name: G2, Velocity: 30
Note OFF: Time 2100, Note Name: G2
Note OFF: Time 2100, Note Name: C2
Note ON: Time 2160, Note Name: C2, Velocity: 22
Note ON: Time 2160, Note Name: G2, Velocity: 27
Note OFF: Time 2340, Note Name: G2
Note OFF: Time 2340, Note Name: C2
Note ON: Time 2400, Note Name: C2, Velocity: 23
Note ON: Time 2400, Note Name: G2, Velocity: 28
Note OFF: Time 2580, Note Name: G2
Note OFF: Time 2580, Note Name: C2
Note ON: Time 2640, Note Name: C2, Velocity: 24
Note ON: Time 2640, Note Name: G2, Velocity: 29
Note OFF: Time 2820, Note Name: G2
Note OFF: Time 2820, Note Name: C2
Note ON: Time 2880, Note Name: C2, Velocity: 25
Note ON: Time 2880, Note Name: G2, Velocity: 30
Note OFF: Time 3060, Note Name: G2
Note OFF: Time 3060, Note Name: C2
Note ON: Time 3120, Note Name: C2, Velocity: 25
Note ON: Time 3120, Note Name: G2, Velocity: 30
Note OFF: Time 3300, Note Name: G2
Note OFF: Time 3300, Note Name: C2
Note ON: Time 3360, Note Name: C2, Velocity: 25
Note ON: Time 3360, Note Name: A2, Velocity: 30
Note OFF: Time 3540, Note Name: A2
Note OFF: Time 3540, Note Name: C2
Note ON: Time 3600, Note Name: C2, Velocity: 25
Note ON: Time 3600, Note Name: A2, Velocity: 30
Note OFF: Time 3780, Note Name: A2
Note OFF: Time 3780, Note Name: C2
Note ON: Time 3840, Note Name: B1, Velocity: 25
Note ON: Time 3840, Note Name: G2, Velocity: 30
Note OFF: Time 4020, Note Name: G2
Note OFF: Time 4020, Note Name: B1
Note ON: Time 4080, Note Name: B1, Velocity: 25
Note ON: Time 4080, Note Name: G2, Velocity: 30
Note OFF: Time 4260, Note Name: G2
Note OFF: Time 4260, Note Name: B1
Note ON: Time 4320, Note Name: B1, Velocity: 25
Note ON: Time 4320, Note Name: G2, Velocity: 30
Note OFF: Time 4500, Note Name: G2
Note OFF: Time 4500, Note Name: B1
Note ON: Time 4560, Note Name: B1, Velocity: 25
Note ON: Time 4560, Note Name: G2, Velocity: 30
Note OFF: Time 4740, Note Name: G2
Note OFF: Time 4740, Note Name: B1
Note ON: Time 4800, Note Name: B1, Velocity: 25
Note ON: Time 4800, Note Name: G2, Velocity: 30
Note OFF: Time 4980, Note Name: G2
Note OFF: Time 4980, Note Name: B1
Note ON: Time 5040, Note Name: B1, Velocity: 25
Note ON: Time 5040, Note Name: G2, Velocity: 30
Note OFF: Time 5220, Note Name: G2
Note OFF: Time 5220, Note Name: B1
Note ON: Time 5280, Note Name: B1, Velocity: 25
Note ON: Time 5280, Note Name: G2, Velocity: 30
Note OFF: Time 5460, Note Name: G2
Note OFF: Time 5460, Note Name: B1
Note ON: Time 5520, Note Name: B1, Velocity: 25
Note ON: Time 5520, Note Name: G2, Velocity: 30
Note OFF: Time 5700, Note Name: G2
Note OFF: Time 5700, Note Name: B1
Note ON: Time 5760, Note Name: B1, Velocity: 25
Note ON: Time 5760, Note Name: G2, Velocity: 30
Note OFF: Time 5940, Note Name: G2
Note OFF: Time 5940, Note Name: B1
Note ON: Time 6000, Note Name: B1, Velocity: 25
Note ON: Time 6000, Note Name: G2, Velocity: 30
Note OFF: Time 6180, Note Name: G2
Note OFF: Time 6180, Note Name: B1
Note ON: Time 6240, Note Name: B1, Velocity: 25
Note ON: Time 6240, Note Name: G2, Velocity: 30
Note OFF: Time 6420, Note Name: G2
Note OFF: Time 6420, Note Name: B1
Note ON: Time 6480, Note Name: B1, Velocity: 25
Note ON: Time 6480, Note Name: G2, Velocity: 30
Note OFF: Time 6660, Note Name: G2
Note OFF: Time 6660, Note Name: B1
Note ON: Time 6720, Note Name: B1, Velocity: 25
Note ON: Time 6720, Note Name: G2, Velocity: 30
Note OFF: Time 6900, Note Name: G2
Note OFF: Time 6900, Note Name: B1
Note ON: Time 6960, Note Name: B1, Velocity: 25
Note ON: Time 6960, Note Name: G2, Velocity: 30
Note OFF: Time 7140, Note Name: G2
Note OFF: Time 7140, Note Name: B1
Note ON: Time 7200, Note Name: B1, Velocity: 25
Note ON: Time 7200, Note Name: G2, Velocity: 30
Note OFF: Time 7380, Note Name: G2
Note OFF: Time 7380, Note Name: B1
Note ON: Time 7440, Note Name: B1, Velocity: 25
Note ON: Time 7440, Note Name: G2, Velocity: 30
Note OFF: Time 7620, Note Name: G2
Note OFF: Time 7620, Note Name: B1
Note ON: Time 7680, Note Name: F2, Velocity: 30
Note ON: Time 7680, Note Name: A#1, Velocity: 26
Note OFF: Time 7860, Note Name: A#1
Note OFF: Time 7860, Note Name: F2
Note ON: Time 7920, Note Name: F2, Velocity: 30
Note ON: Time 7920, Note Name: A#1, Velocity: 25
Note OFF: Time 8100, Note Name: A#1
Note OFF: Time 8100, Note Name: F2
Note ON: Time 8160, Note Name: F2, Velocity: 30
Note ON: Time 8160, Note Name: A#1, Velocity: 25
Note OFF: Time 8340, Note Name: A#1
Note OFF: Time 8340, Note Name: F2
Note ON: Time 8400, Note Name: F2, Velocity: 31
Note ON: Time 8400, Note Name: A#1, Velocity: 26
Note OFF: Time 8580, Note Name: A#1
Note OFF: Time 8580, Note Name: F2
Note ON: Time 8640, Note Name: F2, Velocity: 31
Note ON: Time 8640, Note Name: A#1, Velocity: 26
Note OFF: Time 8820, Note Name: A#1
Note OFF: Time 8820, Note Name: F2
Note ON: Time 8880, Note Name: F2, Velocity: 31
Note ON: Time 8880, Note Name: A#1, Velocity: 26
Note OFF: Time 9060, Note Name: A#1
Note OFF: Time 9060, Note Name: F2
Note ON: Time 9120, Note Name: F2, Velocity: 31
Note ON: Time 9120, Note Name: A#1, Velocity: 26
Note OFF: Time 9300, Note Name: A#1
Note OFF: Time 9300, Note Name: F2
Note ON: Time 9360, Note Name: F2, Velocity: 31
Note ON: Time 9360, Note Name: A#1, Velocity: 26
Note OFF: Time 9540, Note Name: A#1
Note OFF: Time 9540, Note Name: F2
Note ON: Time 9600, Note Name: A#1, Velocity: 26
Note ON: Time 9600, Note Name: F2, Velocity: 31
Note OFF: Time 9780, Note Name: F2
Note OFF: Time 9780, Note Name: A#1
Note ON: Time 9840, Note Name: A#1, Velocity: 26
Note ON: Time 9840, Note Name: F2, Velocity: 31
Note OFF: Time 10020, Note Name: F2
Note OFF: Time 10020, Note Name: A#1
Note ON: Time 10080, Note Name: A#1, Velocity: 26
Note ON: Time 10080, Note Name: F2, Velocity: 31
Note OFF: Time 10260, Note Name: F2
Note OFF: Time 10260, Note Name: A#1
Note ON: Time 10320, Note Name: A#1, Velocity: 26
Note ON: Time 10320, Note Name: F2, Velocity: 31
Note OFF: Time 10500, Note Name: F2
Note OFF: Time 10500, Note Name: A#1
Note ON: Time 10560, Note Name: A#1, Velocity: 26
Note ON: Time 10560, Note Name: F2, Velocity: 31
Note OFF: Time 10740, Note Name: F2
Note OFF: Time 10740, Note Name: A#1
Note ON: Time 10800, Note Name: A#1, Velocity: 25
Note ON: Time 10800, Note Name: F2, Velocity: 30
Note OFF: Time 10980, Note Name: F2
Note OFF: Time 10980, Note Name: A#1
Note ON: Time 11040, Note Name: A#1, Velocity: 25
Note ON: Time 11040, Note Name: G2, Velocity: 30
Note OFF: Time 11220, Note Name: G2
Note OFF: Time 11220, Note Name: A#1
Note ON: Time 11280, Note Name: A#1, Velocity: 25
Note ON: Time 11280, Note Name: G2, Velocity: 30
Note OFF: Time 11460, Note Name: G2
Note OFF: Time 11460, Note Name: A#1
Note ON: Time 11520, Note Name: A1, Velocity: 25
Note ON: Time 11520, Note Name: F2, Velocity: 30
Note OFF: Time 11700, Note Name: F2
Note OFF: Time 11700, Note Name: A1
Note ON: Time 11760, Note Name: A1, Velocity: 25
Note ON: Time 11760, Note Name: F2, Velocity: 30
Note OFF: Time 11940, Note Name: F2
Note OFF: Time 11940, Note Name: A1
Note ON: Time 12000, Note Name: A1, Velocity: 25
Note ON: Time 12000, Note Name: F2, Velocity: 30
Note OFF: Time 12180, Note Name: F2
Note OFF: Time 12180, Note Name: A1
Note ON: Time 12240, Note Name: A1, Velocity: 25
Note ON: Time 12240, Note Name: F2, Velocity: 30
Note OFF: Time 12420, Note Name: F2
Note OFF: Time 12420, Note Name: A1
Note ON: Time 12480, Note Name: A1, Velocity: 25
Note ON: Time 12480, Note Name: F2, Velocity: 30
Note OFF: Time 12660, Note Name: F2
Note OFF: Time 12660, Note Name: A1
Note ON: Time 12720, Note Name: A1, Velocity: 25
Note ON: Time 12720, Note Name: F2, Velocity: 30
Note OFF: Time 12900, Note Name: F2
Note OFF: Time 12900, Note Name: A1
Note ON: Time 12960, Note Name: A1, Velocity: 25
Note ON: Time 12960, Note Name: F2, Velocity: 30
Note OFF: Time 13140, Note Name: F2
Note OFF: Time 13140, Note Name: A1
Note ON: Time 13200, Note Name: A1, Velocity: 25
Note ON: Time 13200, Note Name: F2, Velocity: 30
Note OFF: Time 13380, Note Name: F2
Note OFF: Time 13380, Note Name: A1
Note ON: Time 13440, Note Name: G#1, Velocity: 25
Note ON: Time 13440, Note Name: F2, Velocity: 30
Note OFF: Time 13620, Note Name: F2
Note OFF: Time 13620, Note Name: G#1
Note ON: Time 13680, Note Name: G#1, Velocity: 25
Note ON: Time 13680, Note Name: F2, Velocity: 30
Note OFF: Time 13860, Note Name: F2
Note OFF: Time 13860, Note Name: G#1
Note ON: Time 13920, Note Name: G#1, Velocity: 25
Note ON: Time 13920, Note Name: F2, Velocity: 30
Note OFF: Time 14100, Note Name: F2
Note OFF: Time 14100, Note Name: G#1
Note ON: Time 14160, Note Name: G#1, Velocity: 25
Note ON: Time 14160, Note Name: F2, Velocity: 30
Note OFF: Time 14340, Note Name: F2
Note OFF: Time 14340, Note Name: G#1
Note ON: Time 14400, Note Name: G#1, Velocity: 25
Note ON: Time 14400, Note Name: F2, Velocity: 30
Note OFF: Time 14580, Note Name: F2
Note OFF: Time 14580, Note Name: G#1
Note ON: Time 14640, Note Name: G#1, Velocity: 25
Note ON: Time 14640, Note Name: F2, Velocity: 30
Note OFF: Time 14820, Note Name: F2
Note OFF: Time 14820, Note Name: G#1
Note ON: Time 14880, Note Name: G#1, Velocity: 25
Note ON: Time 14880, Note Name: F2, Velocity: 30
Note OFF: Time 15060, Note Name: F2
Note OFF: Time 15060, Note Name: G#1
Note ON: Time 15120, Note Name: G#1, Velocity: 25
Note ON: Time 15120, Note Name: F2, Velocity: 30
Note OFF: Time 15300, Note Name: F2
Note OFF: Time 15300, Note Name: G#1
Note ON: Time 15360, Note Name: G1, Velocity: 30
Note ON: Time 15360, Note Name: F2, Velocity: 36
Note OFF: Time 15540, Note Name: F2
Note OFF: Time 15540, Note Name: G1
Note ON: Time 15600, Note Name: G1, Velocity: 32
Note ON: Time 15600, Note Name: F2, Velocity: 38
Note OFF: Time 15780, Note Name: F2
Note OFF: Time 15780, Note Name: G1
Note ON: Time 15840, Note Name: G1, Velocity: 33
Note ON: Time 15840, Note Name: F2, Velocity: 39
Note OFF: Time 16020, Note Name: F2
Note OFF: Time 16020, Note Name: G1
Note ON: Time 16080, Note Name: G1, Velocity: 34
Note ON: Time 16080, Note Name: F2, Velocity: 41
Note OFF: Time 16260, Note Name: F2
Note OFF: Time 16260, Note Name: G1
Note ON: Time 16320, Note Name: G1, Velocity: 36
Note ON: Time 16320, Note Name: F2, Velocity: 43
Note OFF: Time 16500, Note Name: F2
Note OFF: Time 16500, Note Name: G1
Note ON: Time 16560, Note Name: G1, Velocity: 38
Note ON: Time 16560, Note Name: F2, Velocity: 45
Note OFF: Time 16740, Note Name: F2
Note OFF: Time 16740, Note Name: G1
Note ON: Time 16800, Note Name: G#1, Velocity: 39
Note ON: Time 16800, Note Name: F2, Velocity: 46
Note OFF: Time 16980, Note Name: F2
Note OFF: Time 16980, Note Name: G#1
Note ON: Time 17040, Note Name: G#1, Velocity: 40
Note ON: Time 17040, Note Name: F2, Velocity: 48
Note OFF: Time 17220, Note Name: F2
Note OFF: Time 17220, Note Name: G#1
Note ON: Time 17280, Note Name: G1, Velocity: 44
Note ON: Time 17280, Note Name: F2, Velocity: 52
Note OFF: Time 17460, Note Name: F2
Note OFF: Time 17460, Note Name: G1
Note ON: Time 17520, Note Name: G1, Velocity: 44
Note ON: Time 17520, Note Name: F2, Velocity: 52
Note OFF: Time 17700, Note Name: F2
Note OFF: Time 17700, Note Name: G1
Note ON: Time 17760, Note Name: G#1, Velocity: 45
Note ON: Time 17760, Note Name: F2, Velocity: 55
Note OFF: Time 17940, Note Name: F2
Note OFF: Time 17940, Note Name: G#1
Note ON: Time 18000, Note Name: G#1, Velocity: 46
Note ON: Time 18000, Note Name: F2, Velocity: 55
Note OFF: Time 18180, Note Name: F2
Note OFF: Time 18180, Note Name: G#1
Note ON: Time 18240, Note Name: G1, Velocity: 48
Note ON: Time 18240, Note Name: F2, Velocity: 58
Note OFF: Time 18420, Note Name: F2
Note OFF: Time 18420, Note Name: G1
Note ON: Time 18480, Note Name: G1, Velocity: 51
Note ON: Time 18480, Note Name: F2, Velocity: 60
Note OFF: Time 18660, Note Name: F2
Note OFF: Time 18660, Note Name: G1
Note ON: Time 18720, Note Name: G#1, Velocity: 54
Note ON: Time 18720, Note Name: F2, Velocity: 64
Note OFF: Time 18900, Note Name: F2
Note OFF: Time 18900, Note Name: G#1
Note ON: Time 18960, Note Name: G#1, Velocity: 56
Note ON: Time 18960, Note Name: F2, Velocity: 66
Note OFF: Time 19140, Note Name: F2
Note OFF: Time 19140, Note Name: G#1
Note ON: Time 19200, Note Name: G1, Velocity: 70
Note ON: Time 19200, Note Name: F2, Velocity: 85
Note OFF: Time 19680, Note Name: F2
Note OFF: Time 19680, Note Name: G1
Note ON: Time 19680, Note Name: G2, Velocity: 81
Note ON: Time 19680, Note Name: G3, Velocity: 96
Note OFF: Time 20880, Note Name: G3
Note OFF: Time 20880, Note Name: G2
Note ON: Time 20880, Note Name: A3, Velocity: 67
Note OFF: Time 21000, Note Name: A3
Note ON: Time 21000, Note Name: B3, Velocity: 70
Note OFF: Time 21120, Note Name: B3
Note ON: Time 21120, Note Name: C4, Velocity: 72
Note OFF: Time 21300, Note Name: C4
Note ON: Time 21600, Note Name: G2, Velocity: 56
Note ON: Time 21600, Note Name: G3, Velocity: 66
Note OFF: Time 21780, Note Name: G3
Note OFF: Time 21780, Note Name: G2
Note ON: Time 22080, Note Name: D#2, Velocity: 52
Note ON: Time 22080, Note Name: D#3, Velocity: 62
Note OFF: Time 22260, Note Name: D#3
Note OFF: Time 22260, Note Name: D#2
Note ON: Time 22560, Note Name: C2, Velocity: 48
Note ON: Time 22560, Note Name: C3, Velocity: 57
Note OFF: Time 22740, Note Name: C3
Note OFF: Time 22740, Note Name: C2
Note ON: Time 23040, Note Name: G1, Velocity: 46
Note ON: Time 23040, Note Name: G2, Velocity: 54
Note OFF: Time 24960, Note Name: G2
Note OFF: Time 24960, Note Name: G1
Note ON: Time 24960, Note Name: C2, Velocity: 30
Note ON: Time 24960, Note Name: C3, Velocity: 30
Note OFF: Time 25200, Note Name: C3
Note ON: Time 25200, Note Name: C3, Velocity: 31
Note OFF: Time 25319, Note Name: C3
Note ON: Time 25320, Note Name: G3, Velocity: 26
Note OFF: Time 25440, Note Name: G3
Note ON: Time 25440, Note Name: C3, Velocity: 31
Note OFF: Time 25559, Note Name: C3
Note ON: Time 25560, Note Name: G3, Velocity: 27
Note OFF: Time 25680, Note Name: G3
Note ON: Time 25680, Note Name: C3, Velocity: 31
Note OFF: Time 25799, Note Name: C3
Note ON: Time 25800, Note Name: G3, Velocity: 27
Note OFF: Time 25920, Note Name: G3
Note ON: Time 25920, Note Name: C3, Velocity: 31
Note OFF: Time 26039, Note Name: C3
Note ON: Time 26040, Note Name: G3, Velocity: 26
Note OFF: Time 26160, Note Name: G3
Note ON: Time 26160, Note Name: C3, Velocity: 31
Note OFF: Time 26279, Note Name: C3
Note ON: Time 26280, Note Name: G3, Velocity: 27
Note OFF: Time 26400, Note Name: G3
Note ON: Time 26400, Note Name: C3, Velocity: 31
Note OFF: Time 26519, Note Name: C3
Note ON: Time 26520, Note Name: G3, Velocity: 27
Note OFF: Time 26640, Note Name: G3
Note ON: Time 26640, Note Name: C3, Velocity: 31
Note OFF: Time 26759, Note Name: C3
Note ON: Time 26760, Note Name: G3, Velocity: 25
Note OFF: Time 26880, Note Name: G3
Note OFF: Time 26880, Note Name: C2
Note ON: Time 26880, Note Name: C3, Velocity: 31
Note OFF: Time 26999, Note Name: C3
Note ON: Time 27000, Note Name: G3, Velocity: 26
Note OFF: Time 27120, Note Name: G3
Note ON: Time 27120, Note Name: C3, Velocity: 31
Note OFF: Time 27239, Note Name: C3
Note ON: Time 27240, Note Name: G3, Velocity: 26
Note OFF: Time 27360, Note Name: G3
Note ON: Time 27360, Note Name: C3, Velocity: 31
Note OFF: Time 27479, Note Name: C3
Note ON: Time 27480, Note Name: G3, Velocity: 27
Note OFF: Time 27600, Note Name: G3
Note ON: Time 27600, Note Name: C3, Velocity: 31
Note OFF: Time 27719, Note Name: C3
Note ON: Time 27720, Note Name: G3, Velocity: 27
Note OFF: Time 27840, Note Name: G3
Note ON: Time 27840, Note Name: C3, Velocity: 31
Note OFF: Time 27959, Note Name: C3
Note ON: Time 27960, Note Name: G3, Velocity: 26
Note OFF: Time 28080, Note Name: G3
Note ON: Time 28080, Note Name: C3, Velocity: 31
Note OFF: Time 28199, Note Name: C3
Note ON: Time 28200, Note Name: G3, Velocity: 27
Note OFF: Time 28320, Note Name: G3
Note ON: Time 28320, Note Name: C3, Velocity: 31
Note OFF: Time 28439, Note Name: C3
Note ON: Time 28440, Note Name: A3, Velocity: 27
Note OFF: Time 28560, Note Name: A3
Note ON: Time 28560, Note Name: C3, Velocity: 31
Note OFF: Time 28679, Note Name: C3
Note ON: Time 28680, Note Name: A3, Velocity: 25
Note OFF: Time 28800, Note Name: A3
Note ON: Time 28800, Note Name: B2, Velocity: 26
Note ON: Time 28800, Note Name: D3, Velocity: 31
Note ON: Time 28920, Note Name: G3, Velocity: 25
Note OFF: Time 28980, Note Name: D3
Note OFF: Time 28980, Note Name: B2
Note OFF: Time 29040, Note Name: G3
Note ON: Time 29040, Note Name: B2, Velocity: 26
Note ON: Time 29040, Note Name: D3, Velocity: 31
Note ON: Time 29160, Note Name: G3, Velocity: 25
Note OFF: Time 29220, Note Name: D3
Note OFF: Time 29220, Note Name: B2
Note OFF: Time 29280, Note Name: G3
Note ON: Time 29280, Note Name: B2, Velocity: 26
Note ON: Time 29280, Note Name: D3, Velocity: 31
Note ON: Time 29400, Note Name: G3, Velocity: 25
Note OFF: Time 29460, Note Name: D3
Note OFF: Time 29460, Note Name: B2
Note OFF: Time 29520, Note Name: G3
Note ON: Time 29520, Note Name: B2, Velocity: 26
Note ON: Time 29520, Note Name: D3, Velocity: 31
Note ON: Time 29640, Note Name: G3, Velocity: 25
Note OFF: Time 29700, Note Name: D3
Note OFF: Time 29700, Note Name: B2
Note OFF: Time 29760, Note Name: G3
Note ON: Time 29760, Note Name: B2, Velocity: 26
Note ON: Time 29760, Note Name: D3, Velocity: 31
Note ON: Time 29880, Note Name: G3, Velocity: 25
Note OFF: Time 29940, Note Name: D3
Note OFF: Time 29940, Note Name: B2
Note OFF: Time 30000, Note Name: G3
Note ON: Time 30000, Note Name: B2, Velocity: 26
Note ON: Time 30000, Note Name: D3, Velocity: 31
Note ON: Time 30120, Note Name: G3, Velocity: 25
Note OFF: Time 30180, Note Name: D3
Note OFF: Time 30180, Note Name: B2
Note OFF: Time 30240, Note Name: G3
Note ON: Time 30240, Note Name: B2, Velocity: 26
Note ON: Time 30240, Note Name: D3, Velocity: 31
Note ON: Time 30360, Note Name: G3, Velocity: 25
Note OFF: Time 30420, Note Name: D3
Note OFF: Time 30420, Note Name: B2
Note OFF: Time 30480, Note Name: G3
Note ON: Time 30480, Note Name: B2, Velocity: 26
Note ON: Time 30480, Note Name: D3, Velocity: 31
Note ON: Time 30600, Note Name: G3, Velocity: 25
Note OFF: Time 30660, Note Name: D3
Note OFF: Time 30660, Note Name: B2
Note OFF: Time 30720, Note Name: G3
Note ON: Time 30720, Note Name: B2, Velocity: 26
Note ON: Time 30720, Note Name: D3, Velocity: 31
Note ON: Time 30840, Note Name: G3, Velocity: 25
Note OFF: Time 30900, Note Name: D3
Note OFF: Time 30900, Note Name: B2
Note OFF: Time 30960, Note Name: G3
Note ON: Time 30960, Note Name: B2, Velocity: 26
Note ON: Time 30960, Note Name: D3, Velocity: 31
Note ON: Time 31080, Note Name: G3, Velocity: 25
Note OFF: Time 31140, Note Name: D3
Note OFF: Time 31140, Note Name: B2
Note OFF: Time 31200, Note Name: G3
Note ON: Time 31200, Note Name: B2, Velocity: 26
Note ON: Time 31200, Note Name: D3, Velocity: 31
Note ON: Time 31320, Note Name: G3, Velocity: 25
Note OFF: Time 31380, Note Name: D3
Note OFF: Time 31380, Note Name: B2
Note OFF: Time 31440, Note Name: G3
Note ON: Time 31440, Note Name: B2, Velocity: 26
Note ON: Time 31440, Note Name: D3, Velocity: 31
Note ON: Time 31560, Note Name: G3, Velocity: 25
Note OFF: Time 31620, Note Name: D3
Note OFF: Time 31620, Note Name: B2
Note OFF: Time 31680, Note Name: G3
Note ON: Time 31680, Note Name: B2, Velocity: 26
Note ON: Time 31680, Note Name: D3, Velocity: 31
Note ON: Time 31800, Note Name: G3, Velocity: 25
Note OFF: Time 31860, Note Name: D3
Note OFF: Time 31860, Note Name: B2
Note OFF: Time 31920, Note Name: G3
Note ON: Time 31920, Note Name: B2, Velocity: 26
Note ON: Time 31920, Note Name: D3, Velocity: 31
Note ON: Time 32040, Note Name: G3, Velocity: 25
Note OFF: Time 32100, Note Name: D3
Note OFF: Time 32100, Note Name: B2
Note OFF: Time 32160, Note Name: G3
Note ON: Time 32160, Note Name: B2, Velocity: 26
Note ON: Time 32160, Note Name: D3, Velocity: 31
Note ON: Time 32280, Note Name: G3, Velocity: 25
Note OFF: Time 32340, Note Name: D3
Note OFF: Time 32340, Note Name: B2
Note OFF: Time 32400, Note Name: G3
Note ON: Time 32400, Note Name: B2, Velocity: 26
Note ON: Time 32400, Note Name: D3, Velocity: 31
Note ON: Time 32520, Note Name: G3, Velocity: 25
Note OFF: Time 32580, Note Name: D3
Note OFF: Time 32580, Note Name: B2
Note OFF: Time 32640, Note Name: G3
Note ON: Time 32640, Note Name: D2, Velocity: 33
Note ON: Time 32640, Note Name: D3, Velocity: 33
Note OFF: Time 32880, Note Name: D3
Note ON: Time 32880, Note Name: D3, Velocity: 34
Note OFF: Time 32999, Note Name: D3
Note ON: Time 33000, Note Name: A3, Velocity: 28
Note OFF: Time 33120, Note Name: A3
Note ON: Time 33120, Note Name: D3, Velocity: 34
Note OFF: Time 33239, Note Name: D3
Note ON: Time 33240, Note Name: A3, Velocity: 29
Note OFF: Time 33360, Note Name: A3
Note ON: Time 33360, Note Name: D3, Velocity: 34
Note OFF: Time 33479, Note Name: D3
Note ON: Time 33480, Note Name: A3, Velocity: 29
Note OFF: Time 33600, Note Name: A3
Note ON: Time 33600, Note Name: D3, Velocity: 34
Note OFF: Time 33719, Note Name: D3
Note ON: Time 33720, Note Name: A3, Velocity: 28
Note OFF: Time 33840, Note Name: A3
Note ON: Time 33840, Note Name: D3, Velocity: 34
Note OFF: Time 33959, Note Name: D3
Note ON: Time 33960, Note Name: A3, Velocity: 29
Note OFF: Time 34080, Note Name: A3
Note ON: Time 34080, Note Name: D3, Velocity: 34
Note OFF: Time 34199, Note Name: D3
Note ON: Time 34200, Note Name: A3, Velocity: 30
Note OFF: Time 34320, Note Name: A3
Note ON: Time 34320, Note Name: D3, Velocity: 35
Note OFF: Time 34439, Note Name: D3
Note ON: Time 34440, Note Name: A3, Velocity: 28
Note OFF: Time 34560, Note Name: A3
Note OFF: Time 34560, Note Name: D2
Note ON: Time 34560, Note Name: D3, Velocity: 35
Note OFF: Time 34679, Note Name: D3
Note ON: Time 34680, Note Name: A3, Velocity: 29
Note OFF: Time 34800, Note Name: A3
Note ON: Time 34800, Note Name: D3, Velocity: 35
Note OFF: Time 34919, Note Name: D3
Note ON: Time 34920, Note Name: A3, Velocity: 29
Note OFF: Time 35040, Note Name: A3
Note ON: Time 35040, Note Name: D3, Velocity: 35
Note OFF: Time 35159, Note Name: D3
Note ON: Time 35160, Note Name: A3, Velocity: 30
Note OFF: Time 35280, Note Name: A3
Note ON: Time 35280, Note Name: D3, Velocity: 35
Note OFF: Time 35399, Note Name: D3
Note ON: Time 35400, Note Name: A3, Velocity: 30
Note OFF: Time 35520, Note Name: A3
Note ON: Time 35520, Note Name: D3, Velocity: 36
Note OFF: Time 35639, Note Name: D3
Note ON: Time 35640, Note Name: A3, Velocity: 29
Note OFF: Time 35760, Note Name: A3
Note ON: Time 35760, Note Name: D3, Velocity: 36
Note OFF: Time 35879, Note Name: D3
Note ON: Time 35880, Note Name: A3, Velocity: 31
Note OFF: Time 36000, Note Name: A3
Note ON: Time 36000, Note Name: D3, Velocity: 36
Note OFF: Time 36119, Note Name: D3
Note ON: Time 36120, Note Name: B3, Velocity: 31
Note OFF: Time 36240, Note Name: B3
Note ON: Time 36240, Note Name: D3, Velocity: 36
Note OFF: Time 36359, Note Name: D3
Note ON: Time 36360, Note Name: B3, Velocity: 29
Note OFF: Time 36480, Note Name: B3
Note ON: Time 36480, Note Name: C3, Velocity: 30
Note ON: Time 36480, Note Name: E3, Velocity: 37
Note ON: Time 36600, Note Name: A3, Velocity: 29
Note OFF: Time 36660, Note Name: E3
Note OFF: Time 36660, Note Name: C3
Note OFF: Time 36720, Note Name: A3
Note ON: Time 36720, Note Name: C3, Velocity: 30
Note ON: Time 36720, Note Name: E3, Velocity: 37
Note ON: Time 36840, Note Name: A3, Velocity: 29
Note OFF: Time 36900, Note Name: E3
Note OFF: Time 36900, Note Name: C3
Note OFF: Time 36960, Note Name: A3
Note ON: Time 36960, Note Name: C3, Velocity: 30
Note ON: Time 36960, Note Name: E3, Velocity: 37
Note ON: Time 37080, Note Name: A3, Velocity: 29
Note OFF: Time 37140, Note Name: E3
Note OFF: Time 37140, Note Name: C3
Note OFF: Time 37200, Note Name: A3
Note ON: Time 37200, Note Name: C3, Velocity: 30
Note ON: Time 37200, Note Name: E3, Velocity: 37
Note ON: Time 37320, Note Name: A3, Velocity: 29
Note OFF: Time 37380, Note Name: E3
Note OFF: Time 37380, Note Name: C3
Note OFF: Time 37440, Note Name: A3
Note ON: Time 37440, Note Name: C3, Velocity: 30
Note ON: Time 37440, Note Name: E3, Velocity: 37
Note ON: Time 37560, Note Name: A3, Velocity: 29
Note OFF: Time 37620, Note Name: E3
Note OFF: Time 37620, Note Name: C3
Note OFF: Time 37680, Note Name: A3
Note ON: Time 37680, Note Name: C3, Velocity: 30
Note ON: Time 37680, Note Name: E3, Velocity: 37
Note ON: Time 37800, Note Name: A3, Velocity: 29
Note OFF: Time 37860, Note Name: E3
Note OFF: Time 37860, Note Name: C3
Note OFF: Time 37920, Note Name: A3
Note ON: Time 37920, Note Name: C3, Velocity: 30
Note ON: Time 37920, Note Name: E3, Velocity: 37
Note ON: Time 38040, Note Name: A3, Velocity: 29
Note OFF: Time 38100, Note Name: E3
Note OFF: Time 38100, Note Name: C3
Note OFF: Time 38160, Note Name: A3
Note ON: Time 38160, Note Name: C3, Velocity: 30
Note ON: Time 38160, Note Name: E3, Velocity: 37
Note ON: Time 38280, Note Name: A3, Velocity: 29
Note OFF: Time 38340, Note Name: E3
Note OFF: Time 38340, Note Name: C3
Note OFF: Time 38400, Note Name: A3
Note ON: Time 38400, Note Name: C3, Velocity: 30
Note ON: Time 38400, Note Name: E3, Velocity: 37
Note ON: Time 38520, Note Name: A3, Velocity: 29
Note OFF: Time 38580, Note Name: E3
Note OFF: Time 38580, Note Name: C3
Note OFF: Time 38640, Note Name: A3
Note ON: Time 38640, Note Name: C3, Velocity: 30
Note ON: Time 38640, Note Name: E3, Velocity: 37
Note ON: Time 38760, Note Name: A3, Velocity: 29
Note OFF: Time 38820, Note Name: E3
Note OFF: Time 38820, Note Name: C3
Note OFF: Time 38880, Note Name: A3
Note ON: Time 38880, Note Name: C3, Velocity: 30
Note ON: Time 38880, Note Name: E3, Velocity: 37
Note ON: Time 39000, Note Name: A3, Velocity: 29
Note OFF: Time 39060, Note Name: E3
Note OFF: Time 39060, Note Name: C3
Note OFF: Time 39120, Note Name: A3
Note ON: Time 39120, Note Name: C3, Velocity: 30
Note ON: Time 39120, Note Name: E3, Velocity: 39
Note ON: Time 39240, Note Name: A3, Velocity: 31
Note OFF: Time 39300, Note Name: E3
Note OFF: Time 39300, Note Name: C3
Note OFF: Time 39360, Note Name: A3
Note ON: Time 39360, Note Name: C3, Velocity: 32
Note ON: Time 39360, Note Name: E3, Velocity: 39
Note ON: Time 39480, Note Name: A3, Velocity: 31
Note OFF: Time 39540, Note Name: E3
Note OFF: Time 39540, Note Name: C3
Note OFF: Time 39600, Note Name: A3
Note ON: Time 39600, Note Name: C3, Velocity: 32
Note ON: Time 39600, Note Name: E3, Velocity: 41
Note ON: Time 39720, Note Name: A3, Velocity: 31
Note OFF: Time 39780, Note Name: E3
Note OFF: Time 39780, Note Name: C3
Note OFF: Time 39840, Note Name: A3
Note ON: Time 39840, Note Name: C3, Velocity: 33
Note ON: Time 39840, Note Name: E3, Velocity: 41
Note ON: Time 39960, Note Name: A3, Velocity: 33
Note OFF: Time 40020, Note Name: E3
Note OFF: Time 40020, Note Name: C3
Note OFF: Time 40080, Note Name: A3
Note ON: Time 40080, Note Name: C3, Velocity: 35
Note ON: Time 40080, Note Name: E3, Velocity: 42
Note ON: Time 40200, Note Name: A3, Velocity: 33
Note OFF: Time 40260, Note Name: E3
Note OFF: Time 40260, Note Name: C3
Note OFF: Time 40320, Note Name: A3
Note ON: Time 40320, Note Name: C3, Velocity: 37
Note ON: Time 40320, Note Name: E3, Velocity: 45
Note ON: Time 40440, Note Name: A#3, Velocity: 36
Note OFF: Time 40500, Note Name: E3
Note OFF: Time 40500, Note Name: C3
Note OFF: Time 40560, Note Name: A#3
Note ON: Time 40560, Note Name: C3, Velocity: 38
Note ON: Time 40560, Note Name: E3, Velocity: 45
Note ON: Time 40680, Note Name: A#3, Velocity: 37
Note OFF: Time 40740, Note Name: E3
Note OFF: Time 40740, Note Name: C3
Note OFF: Time 40800, Note Name: A#3
Note ON: Time 40800, Note Name: C3, Velocity: 39
Note ON: Time 40800, Note Name: E3, Velocity: 47
Note ON: Time 40920, Note Name: A#3, Velocity: 38
Note OFF: Time 40980, Note Name: E3
Note OFF: Time 40980, Note Name: C3
Note OFF: Time 41040, Note Name: A#3
Note ON: Time 41040, Note Name: C3, Velocity: 39
Note ON: Time 41040, Note Name: E3, Velocity: 47
Note ON: Time 41160, Note Name: A#3, Velocity: 38
Note OFF: Time 41220, Note Name: E3
Note OFF: Time 41220, Note Name: C3
Note OFF: Time 41280, Note Name: A#3
Note ON: Time 41280, Note Name: C3, Velocity: 41
Note ON: Time 41280, Note Name: E3, Velocity: 50
Note ON: Time 41400, Note Name: A#3, Velocity: 40
Note OFF: Time 41460, Note Name: E3
Note OFF: Time 41460, Note Name: C3
Note OFF: Time 41520, Note Name: A#3
Note ON: Time 41520, Note Name: C3, Velocity: 41
Note ON: Time 41520, Note Name: E3, Velocity: 51
Note ON: Time 41640, Note Name: A#3, Velocity: 40
Note OFF: Time 41700, Note Name: E3
Note OFF: Time 41700, Note Name: C3
Note OFF: Time 41760, Note Name: A#3
Note ON: Time 41760, Note Name: C3, Velocity: 42
Note ON: Time 41760, Note Name: E3, Velocity: 51
Note ON: Time 41880, Note Name: A#3, Velocity: 42
Note OFF: Time 41940, Note Name: E3
Note OFF: Time 41940, Note Name: C3
Note OFF: Time 42000, Note Name: A#3
Note ON: Time 42000, Note Name: C3, Velocity: 43
Note ON: Time 42000, Note Name: E3, Velocity: 53
Note ON: Time 42120, Note Name: A#3, Velocity: 42
Note OFF: Time 42180, Note Name: E3
Note OFF: Time 42180, Note Name: C3
Note OFF: Time 42240, Note Name: A#3
Note ON: Time 42240, Note Name: B2, Velocity: 40
Note ON: Time 42360, Note Name: D#3, Velocity: 35
Note OFF: Time 42380, Note Name: B2
Note ON: Time 42480, Note Name: F#3, Velocity: 35
Note OFF: Time 42500, Note Name: D#3
Note ON: Time 42600, Note Name: B3, Velocity: 35
Note OFF: Time 42620, Note Name: F#3
Note OFF: Time 42720, Note Name: B3
Note ON: Time 42720, Note Name: B2, Velocity: 41
Note ON: Time 42840, Note Name: D#3, Velocity: 35
Note OFF: Time 42860, Note Name: B2
Note ON: Time 42960, Note Name: F#3, Velocity: 35
Note OFF: Time 42980, Note Name: D#3
Note ON: Time 43080, Note Name: B3, Velocity: 35
Note OFF: Time 43100, Note Name: F#3
Note OFF: Time 43200, Note Name: B3
Note ON: Time 43200, Note Name: B2, Velocity: 39
Note ON: Time 43320, Note Name: E3, Velocity: 35
Note OFF: Time 43340, Note Name: B2
Note ON: Time 43440, Note Name: G3, Velocity: 35
Note OFF: Time 43460, Note Name: E3
Note ON: Time 43560, Note Name: B3, Velocity: 35
Note OFF: Time 43580, Note Name: G3
Note OFF: Time 43680, Note Name: B3
Note ON: Time 43680, Note Name: B2, Velocity: 40
Note ON: Time 43800, Note Name: E3, Velocity: 35
Note OFF: Time 43820, Note Name: B2
Note ON: Time 43920, Note Name: G3, Velocity: 35
Note OFF: Time 43940, Note Name: E3
Note ON: Time 44040, Note Name: B3, Velocity: 35
Note OFF: Time 44060, Note Name: G3
Note OFF: Time 44160, Note Name: B3
Note ON: Time 44160, Note Name: B2, Velocity: 40
Note ON: Time 44280, Note Name: F#3, Velocity: 35
Note OFF: Time 44300, Note Name: B2
Note ON: Time 44400, Note Name: A3, Velocity: 35
Note OFF: Time 44420, Note Name: F#3
Note ON: Time 44520, Note Name: B3, Velocity: 35
Note OFF: Time 44540, Note Name: A3
Note OFF: Time 44640, Note Name: B3
Note ON: Time 44640, Note Name: B2, Velocity: 40
Note ON: Time 44760, Note Name: F#3, Velocity: 35
Note OFF: Time 44780, Note Name: B2
Note ON: Time 44880, Note Name: A3, Velocity: 35
Note OFF: Time 44900, Note Name: F#3
Note ON: Time 45000, Note Name: B3, Velocity: 35
Note OFF: Time 45020, Note Name: A3
Note OFF: Time 45120, Note Name: B3
Note ON: Time 45120, Note Name: B2, Velocity: 40
Note ON: Time 45240, Note Name: E3, Velocity: 35
Note OFF: Time 45260, Note Name: B2
Note ON: Time 45360, Note Name: G3, Velocity: 35
Note OFF: Time 45380, Note Name: E3
Note ON: Time 45480, Note Name: B3, Velocity: 35
Note OFF: Time 45500, Note Name: G3
Note OFF: Time 45600, Note Name: B3
Note ON: Time 45600, Note Name: B2, Velocity: 40
Note ON: Time 45720, Note Name: E3, Velocity: 35
Note OFF: Time 45740, Note Name: B2
Note ON: Time 45840, Note Name: G3, Velocity: 35
Note OFF: Time 45860, Note Name: E3
Note ON: Time 45960, Note Name: B3, Velocity: 35
Note OFF: Time 45980, Note Name: G3
Note OFF: Time 46080, Note Name: B3
Note ON: Time 46080, Note Name: B2, Velocity: 40
Note ON: Time 46200, Note Name: D#3, Velocity: 35
Note OFF: Time 46220, Note Name: B2
Note ON: Time 46320, Note Name: F#3, Velocity: 35
Note OFF: Time 46340, Note Name: D#3
Note ON: Time 46440, Note Name: B3, Velocity: 35
Note OFF: Time 46460, Note Name: F#3
Note OFF: Time 46560, Note Name: B3
Note ON: Time 46560, Note Name: B2, Velocity: 40
Note ON: Time 46680, Note Name: D#3, Velocity: 35
Note OFF: Time 46700, Note Name: B2
Note ON: Time 46800, Note Name: F#3, Velocity: 35
Note OFF: Time 46820, Note Name: D#3
Note ON: Time 46920, Note Name: B3, Velocity: 35
Note OFF: Time 46940, Note Name: F#3
Note OFF: Time 47040, Note Name: B3
Note ON: Time 47040, Note Name: B2, Velocity: 40
Note ON: Time 47160, Note Name: E3, Velocity: 35
Note OFF: Time 47180, Note Name: B2
Note ON: Time 47280, Note Name: G3, Velocity: 35
Note OFF: Time 47300, Note Name: E3
Note ON: Time 47400, Note Name: B3, Velocity: 35
Note OFF: Time 47420, Note Name: G3
Note OFF: Time 47520, Note Name: B3
Note ON: Time 47520, Note Name: B2, Velocity: 41
Note ON: Time 47640, Note Name: E3, Velocity: 35
Note OFF: Time 47660, Note Name: B2
Note ON: Time 47760, Note Name: G3, Velocity: 35
Note OFF: Time 47780, Note Name: E3
Note ON: Time 47880, Note Name: B3, Velocity: 35
Note OFF: Time 47900, Note Name: G3
Note OFF: Time 48000, Note Name: B3
Note ON: Time 48000, Note Name: B2, Velocity: 40
Note ON: Time 48120, Note Name: F#3, Velocity: 35
Note OFF: Time 48140, Note Name: B2
Note ON: Time 48240, Note Name: A3, Velocity: 35
Note OFF: Time 48260, Note Name: F#3
Note ON: Time 48360, Note Name: B3, Velocity: 35
Note OFF: Time 48380, Note Name: A3
Note OFF: Time 48480, Note Name: B3
Note ON: Time 48480, Note Name: B2, Velocity: 40
Note ON: Time 48600, Note Name: F#3, Velocity: 36
Note OFF: Time 48620, Note Name: B2
Note ON: Time 48720, Note Name: A3, Velocity: 36
Note OFF: Time 48740, Note Name: F#3
Note ON: Time 48840, Note Name: B3, Velocity: 36
Note OFF: Time 48860, Note Name: A3
Note OFF: Time 48960, Note Name: B3
Note ON: Time 48960, Note Name: B2, Velocity: 42
Note ON: Time 49080, Note Name: E3, Velocity: 36
Note OFF: Time 49100, Note Name: B2
Note ON: Time 49200, Note Name: G3, Velocity: 37
Note OFF: Time 49220, Note Name: E3
Note ON: Time 49320, Note Name: B3, Velocity: 37
Note OFF: Time 49340, Note Name: G3
Note OFF: Time 49440, Note Name: B3
Note ON: Time 49440, Note Name: B2, Velocity: 42
Note ON: Time 49560, Note Name: E3, Velocity: 37
Note OFF: Time 49580, Note Name: B2
Note ON: Time 49680, Note Name: G3, Velocity: 37
Note OFF: Time 49700, Note Name: E3
Note ON: Time 49800, Note Name: B3, Velocity: 38
Note OFF: Time 49820, Note Name: G3
Note OFF: Time 49920, Note Name: B3
Note ON: Time 49920, Note Name: B2, Velocity: 44
Note OFF: Time 50040, Note Name: B2
Note ON: Time 50040, Note Name: D#3, Velocity: 38
Note OFF: Time 50160, Note Name: D#3
Note ON: Time 50160, Note Name: F#3, Velocity: 38
Note OFF: Time 50280, Note Name: F#3
Note ON: Time 50280, Note Name: B3, Velocity: 38
Note OFF: Time 50400, Note Name: B3
Note ON: Time 50400, Note Name: A#3, Velocity: 50
Note OFF: Time 50520, Note Name: A#3
Note ON: Time 50520, Note Name: B3, Velocity: 41
Note OFF: Time 50640, Note Name: B3
Note ON: Time 50640, Note Name: G3, Velocity: 40
Note OFF: Time 50760, Note Name: G3
Note ON: Time 50760, Note Name: E3, Velocity: 41
Note OFF: Time 50880, Note Name: E3
Note ON: Time 50880, Note Name: B2, Velocity: 52
Note OFF: Time 51000, Note Name: B2
Note ON: Time 51000, Note Name: D#3, Velocity: 44
Note OFF: Time 51120, Note Name: D#3
Note ON: Time 51120, Note Name: F#3, Velocity: 45
Note OFF: Time 51240, Note Name: F#3
Note ON: Time 51240, Note Name: B3, Velocity: 45
Note OFF: Time 51360, Note Name: B3
Note ON: Time 51360, Note Name: A#3, Velocity: 60
Note OFF: Time 51480, Note Name: A#3
Note ON: Time 51480, Note Name: B3, Velocity: 51
Note OFF: Time 51600, Note Name: B3
Note ON: Time 51600, Note Name: G3, Velocity: 51
Note OFF: Time 51720, Note Name: G3
Note ON: Time 51720, Note Name: E3, Velocity: 52
Note OFF: Time 51840, Note Name: E3
Note ON: Time 51840, Note Name: B2, Velocity: 63
Note OFF: Time 51960, Note Name: B2
Note ON: Time 51960, Note Name: D#3, Velocity: 52
Note OFF: Time 52080, Note Name: D#3
Note ON: Time 52080, Note Name: F#3, Velocity: 52
Note OFF: Time 52200, Note Name: F#3
Note ON: Time 52200, Note Name: B3, Velocity: 52
Note OFF: Time 52320, Note Name: B3
Note ON: Time 52320, Note Name: B2, Velocity: 63
Note OFF: Time 52440, Note Name: B2
Note ON: Time 52440, Note Name: E3, Velocity: 52
Note OFF: Time 52560, Note Name: E3
Note ON: Time 52560, Note Name: G3, Velocity: 52
Note OFF: Time 52680, Note Name: G3
Note ON: Time 52680, Note Name: B3, Velocity: 52
Note OFF: Time 52800, Note Name: B3
Note ON: Time 52800, Note Name: B2, Velocity: 63
Note OFF: Time 52920, Note Name: B2
Note ON: Time 52920, Note Name: D#3, Velocity: 52
Note OFF: Time 53040, Note Name: D#3
Note ON: Time 53040, Note Name: F#3, Velocity: 52
Note OFF: Time 53160, Note Name: F#3
Note ON: Time 53160, Note Name: B3, Velocity: 52
Note OFF: Time 53280, Note Name: B3
Note ON: Time 53280, Note Name: B2, Velocity: 63
Note OFF: Time 53400, Note Name: B2
Note ON: Time 53400, Note Name: E3, Velocity: 52
Note OFF: Time 53520, Note Name: E3
Note ON: Time 53520, Note Name: G3, Velocity: 52
Note OFF: Time 53640, Note Name: G3
Note ON: Time 53640, Note Name: B3, Velocity: 52
Note OFF: Time 53760, Note Name: B3
Note ON: Time 53760, Note Name: B2, Velocity: 54
Note ON: Time 53760, Note Name: D#3, Velocity: 54
Note ON: Time 53760, Note Name: F#3, Velocity: 54
Note ON: Time 53760, Note Name: B3, Velocity: 63
Note OFF: Time 54240, Note Name: B3
Note OFF: Time 54240, Note Name: B2
Note OFF: Time 54240, Note Name: D#3
Note OFF: Time 54240, Note Name: F#3
Note ON: Time 57120, Note Name: B1, Velocity: 85
Note OFF: Time 57240, Note Name: B1
Note ON: Time 57240, Note Name: D#2, Velocity: 76
Note OFF: Time 57360, Note Name: D#2
Note ON: Time 57360, Note Name: F#2, Velocity: 76
Note OFF: Time 57480, Note Name: F#2
Note ON: Time 57480, Note Name: B2, Velocity: 75
Note OFF: Time 57600, Note Name: B2
Note ON: Time 57600, Note Name: B1, Velocity: 77
Note OFF: Time 57720, Note Name: B1
Note ON: Time 57840, Note Name: B2, Velocity: 68
Note OFF: Time 57960, Note Name: B2
Note ON: Time 58080, Note Name: C#2, Velocity: 73
Note OFF: Time 58200, Note Name: C#2
Note ON: Time 58320, Note Name: C#3, Velocity: 66
Note OFF: Time 58440, Note Name: C#3
Note ON: Time 58560, Note Name: D#2, Velocity: 71
Note OFF: Time 58680, Note Name: D#2
Note ON: Time 58800, Note Name: D#3, Velocity: 65
Note OFF: Time 58920, Note Name: D#3
Note ON: Time 59520, Note Name: D#2, Velocity: 69
Note OFF: Time 59640, Note Name: D#2
Note ON: Time 59760, Note Name: D#3, Velocity: 61
Note OFF: Time 59880, Note Name: D#3
Note ON: Time 60000, Note Name: E2, Velocity: 65
Note OFF: Time 60120, Note Name: E2
Note ON: Time 60240, Note Name: E3, Velocity: 59
Note OFF: Time 60360, Note Name: E3
Note ON: Time 60480, Note Name: F#2, Velocity: 65
Note OFF: Time 60600, Note Name: F#2
Note ON: Time 60720, Note Name: F#3, Velocity: 54
Note OFF: Time 60840, Note Name: F#3
Note ON: Time 62400, Note Name: F#2, Velocity: 41
Note OFF: Time 62520, Note Name: F#2
Note ON: Time 62640, Note Name: F#3, Velocity: 36
Note OFF: Time 62760, Note Name: F#3
Note ON: Time 62880, Note Name: G#2, Velocity: 41
Note OFF: Time 63000, Note Name: G#2
Note ON: Time 63120, Note Name: G#3, Velocity: 36
Note OFF: Time 63240, Note Name: G#3
Note ON: Time 63360, Note Name: A2, Velocity: 40
Note OFF: Time 63480, Note Name: A2
Note ON: Time 63600, Note Name: A3, Velocity: 37
Note OFF: Time 63720, Note Name: A3
Note ON: Time 63840, Note Name: B2, Velocity: 39
Note OFF: Time 63960, Note Name: B2
Note ON: Time 64080, Note Name: B3, Velocity: 36
Note OFF: Time 64200, Note Name: B3
Note ON: Time 64320, Note Name: C#3, Velocity: 38
Note OFF: Time 64440, Note Name: C#3
Note ON: Time 64560, Note Name: C#4, Velocity: 37
Note OFF: Time 64680, Note Name: C#4
Note ON: Time 64800, Note Name: D#3, Velocity: 40
Note OFF: Time 64920, Note Name: D#3
Note ON: Time 65040, Note Name: D#4, Velocity: 37
Note OFF: Time 65160, Note Name: D#4
Note ON: Time 65280, Note Name: G#4, Velocity: 39
Note ON: Time 65280, Note Name: E4, Velocity: 33
Note OFF: Time 66240, Note Name: E4
Note OFF: Time 66240, Note Name: G#4
Note ON: Time 66240, Note Name: F#4, Velocity: 35
Note ON: Time 66240, Note Name: D#4, Velocity: 29
Note ON: Time 66240, Note Name: B3, Velocity: 29
Note OFF: Time 66720, Note Name: B3
Note OFF: Time 66720, Note Name: D#4
Note OFF: Time 66720, Note Name: F#4
Note ON: Time 66720, Note Name: E4, Velocity: 35
Note ON: Time 66720, Note Name: C#4, Velocity: 29
Note OFF: Time 67200, Note Name: C#4
Note OFF: Time 67200, Note Name: E4
Note ON: Time 67200, Note Name: D#4, Velocity: 39
Note ON: Time 67200, Note Name: C4, Velocity: 33
Note ON: Time 67200, Note Name: G#3, Velocity: 33
Note OFF: Time 68160, Note Name: G#3
Note OFF: Time 68160, Note Name: C4
Note OFF: Time 68160, Note Name: D#4
Note ON: Time 68160, Note Name: C#4, Velocity: 34
Note ON: Time 68160, Note Name: A3, Velocity: 28
Note OFF: Time 69120, Note Name: A3
Note OFF: Time 69120, Note Name: C#4
Note ON: Time 69120, Note Name: F#3, Velocity: 37
Note ON: Time 69120, Note Name: A3, Velocity: 45
Note ON: Time 69120, Note Name: B3, Velocity: 37
Note ON: Time 69120, Note Name: D#4, Velocity: 45
Note OFF: Time 70080, Note Name: D#4
Note OFF: Time 70080, Note Name: F#3
Note OFF: Time 70080, Note Name: A3
Note OFF: Time 70080, Note Name: B3
Note ON: Time 70080, Note Name: G#3, Velocity: 40
Note ON: Time 70080, Note Name: B3, Velocity: 40
Note ON: Time 70080, Note Name: E4, Velocity: 49
Note OFF: Time 70560, Note Name: E4
Note OFF: Time 70560, Note Name: B3
Note OFF: Time 70560, Note Name: G#3
Note ON: Time 70560, Note Name: F#4, Velocity: 51
Note ON: Time 70560, Note Name: A3, Velocity: 46
Note ON: Time 70560, Note Name: C#4, Velocity: 42
Note OFF: Time 71040, Note Name: C#4
Note OFF: Time 71040, Note Name: A3
Note OFF: Time 71040, Note Name: F#4
Note ON: Time 71040, Note Name: B3, Velocity: 49
Note ON: Time 71040, Note Name: E4, Velocity: 49
Note ON: Time 71040, Note Name: G#4, Velocity: 59
Note OFF: Time 72000, Note Name: G#4
Note OFF: Time 72000, Note Name: E4
Note ON: Time 72000, Note Name: D#4, Velocity: 27
Note ON: Time 72000, Note Name: F#4, Velocity: 32
Note OFF: Time 72958, Note Name: B3
Note OFF: Time 72960, Note Name: F#4
Note OFF: Time 72960, Note Name: D#4
Note ON: Time 72960, Note Name: G#3, Velocity: 35
Note ON: Time 72960, Note Name: E3, Velocity: 29
Note OFF: Time 73920, Note Name: E3
Note OFF: Time 73920, Note Name: G#3
Note ON: Time 73920, Note Name: F#3, Velocity: 31
Note ON: Time 73920, Note Name: D#3, Velocity: 26
Note ON: Time 73920, Note Name: B2, Velocity: 26
Note OFF: Time 74400, Note Name: B2
Note OFF: Time 74400, Note Name: D#3
Note OFF: Time 74400, Note Name: F#3
Note ON: Time 74400, Note Name: E3, Velocity: 31
Note ON: Time 74400, Note Name: C#3, Velocity: 26
Note OFF: Time 74880, Note Name: C#3
Note OFF: Time 74880, Note Name: E3
Note ON: Time 74880, Note Name: D#3, Velocity: 35
Note ON: Time 74880, Note Name: C3, Velocity: 29
Note ON: Time 74880, Note Name: G#2, Velocity: 29
Note OFF: Time 75840, Note Name: G#2
Note OFF: Time 75840, Note Name: C3
Note OFF: Time 75840, Note Name: D#3
Note ON: Time 75840, Note Name: C#3, Velocity: 30
Note ON: Time 75840, Note Name: A2, Velocity: 25
Note OFF: Time 76800, Note Name: A2
Note OFF: Time 76800, Note Name: C#3
Note ON: Time 76800, Note Name: B1, Velocity: 33
Note ON: Time 76800, Note Name: B2, Velocity: 40
Note OFF: Time 78720, Note Name: B2
Note OFF: Time 78720, Note Name: B1
Note ON: Time 78720, Note Name: E2, Velocity: 38
Note ON: Time 78720, Note Name: E3, Velocity: 43
Note OFF: Time 79200, Note Name: E3
Note OFF: Time 79200, Note Name: E2
Note ON: Time 80640, Note Name: G#4, Velocity: 44
Note ON: Time 80640, Note Name: E4, Velocity: 37
Note OFF: Time 81600, Note Name: E4
Note OFF: Time 81600, Note Name: G#4
Note ON: Time 81600, Note Name: F#4, Velocity: 40
Note ON: Time 81600, Note Name: D#4, Velocity: 33
Note ON: Time 81600, Note Name: B3, Velocity: 33
Note OFF: Time 82080, Note Name: B3
Note OFF: Time 82080, Note Name: D#4
Note OFF: Time 82080, Note Name: F#4
Note ON: Time 82080, Note Name: E4, Velocity: 40
Note ON: Time 82080, Note Name: C#4, Velocity: 33
Note OFF: Time 82560, Note Name: C#4
Note OFF: Time 82560, Note Name: E4
Note ON: Time 82560, Note Name: D#4, Velocity: 44
Note ON: Time 82560, Note Name: C4, Velocity: 37
Note ON: Time 82560, Note Name: G#3, Velocity: 37
Note OFF: Time 83520, Note Name: G#3
Note OFF: Time 83520, Note Name: C4
Note OFF: Time 83520, Note Name: D#4
Note ON: Time 83520, Note Name: C#4, Velocity: 39
Note ON: Time 83520, Note Name: A3, Velocity: 32
Note OFF: Time 84480, Note Name: A3
Note OFF: Time 84480, Note Name: C#4
Note ON: Time 84480, Note Name: F#3, Velocity: 39
Note ON: Time 84480, Note Name: A3, Velocity: 47
Note ON: Time 84480, Note Name: B3, Velocity: 39
Note ON: Time 84480, Note Name: D#4, Velocity: 47
Note OFF: Time 85440, Note Name: D#4
Note OFF: Time 85440, Note Name: F#3
Note OFF: Time 85440, Note Name: A3
Note OFF: Time 85440, Note Name: B3
Note ON: Time 85440, Note Name: G#3, Velocity: 45
Note ON: Time 85440, Note Name: B3, Velocity: 45
Note ON: Time 85440, Note Name: E4, Velocity: 53
Note OFF: Time 85920, Note Name: E4
Note OFF: Time 85920, Note Name: B3
Note OFF: Time 85920, Note Name: G#3
Note ON: Time 85920, Note Name: F#4, Velocity: 59
Note ON: Time 85920, Note Name: A3, Velocity: 49
Note ON: Time 85920, Note Name: C#4, Velocity: 49
Note OFF: Time 86400, Note Name: C#4
Note OFF: Time 86400, Note Name: A3
Note OFF: Time 86400, Note Name: F#4
Note ON: Time 86400, Note Name: B3, Velocity: 53
Note ON: Time 86400, Note Name: E4, Velocity: 53
Note ON: Time 86400, Note Name: G#4, Velocity: 65
Note OFF: Time 87360, Note Name: G#4
Note OFF: Time 87360, Note Name: E4
Note ON: Time 87360, Note Name: D#4, Velocity: 45
Note ON: Time 87360, Note Name: F#4, Velocity: 53
Note OFF: Time 87840, Note Name: F#4
Note OFF: Time 87840, Note Name: D#4
Note ON: Time 87840, Note Name: B2, Velocity: 44
Note OFF: Time 88000, Note Name: B2
Note ON: Time 88000, Note Name: C#3, Velocity: 43
Note OFF: Time 88160, Note Name: C#3
Note ON: Time 88160, Note Name: D#3, Velocity: 41
Note OFF: Time 88318, Note Name: B3
Note OFF: Time 88320, Note Name: D#3
Note ON: Time 88320, Note Name: G#3, Velocity: 45
Note ON: Time 88320, Note Name: E3, Velocity: 37
Note OFF: Time 89280, Note Name: E3
Note OFF: Time 89280, Note Name: G#3
Note ON: Time 89280, Note Name: F#3, Velocity: 41
Note ON: Time 89280, Note Name: D#3, Velocity: 33
Note ON: Time 89280, Note Name: B2, Velocity: 33
Note OFF: Time 89760, Note Name: B2
Note OFF: Time 89760, Note Name: D#3
Note OFF: Time 89760, Note Name: F#3
Note ON: Time 89760, Note Name: E3, Velocity: 41
Note ON: Time 89760, Note Name: C#3, Velocity: 33
Note OFF: Time 90240, Note Name: C#3
Note OFF: Time 90240, Note Name: E3
Note ON: Time 90240, Note Name: D#3, Velocity: 37
Note ON: Time 90240, Note Name: F#3, Velocity: 49
Note ON: Time 90240, Note Name: C3, Velocity: 37
Note ON: Time 90240, Note Name: G#2, Velocity: 37
Note OFF: Time 91200, Note Name: G#2
Note OFF: Time 91200, Note Name: D#3
Note OFF: Time 91200, Note Name: F#3
Note OFF: Time 91200, Note Name: C3
Note ON: Time 91200, Note Name: A2, Velocity: 39
Note ON: Time 91200, Note Name: C#3, Velocity: 39
Note ON: Time 91200, Note Name: E3, Velocity: 32
Note OFF: Time 92160, Note Name: E3
Note OFF: Time 92160, Note Name: C#3
Note OFF: Time 92160, Note Name: A2
Note ON: Time 92160, Note Name: B1, Velocity: 46
Note ON: Time 92160, Note Name: B2, Velocity: 55
Note OFF: Time 94080, Note Name: B2
Note OFF: Time 94080, Note Name: B1
Note ON: Time 94080, Note Name: E2, Velocity: 50
Note ON: Time 94080, Note Name: E3, Velocity: 60
Note OFF: Time 94560, Note Name: E3
Note OFF: Time 94560, Note Name: E2
Note ON: Time 94560, Note Name: B2, Velocity: 76
Note OFF: Time 95520, Note Name: B2
Note ON: Time 95520, Note Name: B2, Velocity: 76
Note OFF: Time 96480, Note Name: B2
Note ON: Time 96480, Note Name: B2, Velocity: 75
Note OFF: Time 97440, Note Name: B2
Note ON: Time 97440, Note Name: B2, Velocity: 74
Note OFF: Time 97920, Note Name: B2
Note ON: Time 97920, Note Name: E3, Velocity: 73
Note OFF: Time 98080, Note Name: E3
Note ON: Time 98080, Note Name: B2, Velocity: 67
Note OFF: Time 98240, Note Name: B2
Note ON: Time 98240, Note Name: G#2, Velocity: 69
Note OFF: Time 98400, Note Name: G#2
Note ON: Time 98400, Note Name: B2, Velocity: 73
Note OFF: Time 98560, Note Name: B2
Note ON: Time 98560, Note Name: E3, Velocity: 69
Note OFF: Time 98720, Note Name: E3
Note ON: Time 98720, Note Name: G#3, Velocity: 69
Note OFF: Time 98880, Note Name: G#3
Note ON: Time 98880, Note Name: F#3, Velocity: 73
Note OFF: Time 99040, Note Name: F#3
Note ON: Time 99040, Note Name: D#3, Velocity: 69
Note OFF: Time 99200, Note Name: D#3
Note ON: Time 99200, Note Name: B2, Velocity: 69
Note OFF: Time 99360, Note Name: B2
Note ON: Time 99360, Note Name: D#3, Velocity: 73
Note OFF: Time 99520, Note Name: D#3
Note ON: Time 99520, Note Name: F#3, Velocity: 69
Note OFF: Time 99680, Note Name: F#3
Note ON: Time 99680, Note Name: A3, Velocity: 69
Note OFF: Time 99840, Note Name: A3
Note ON: Time 99840, Note Name: G#3, Velocity: 73
Note OFF: Time 100000, Note Name: G#3
Note ON: Time 100000, Note Name: E3, Velocity: 67
Note OFF: Time 100160, Note Name: E3
Note ON: Time 100160, Note Name: B2, Velocity: 69
Note OFF: Time 100320, Note Name: B2
Note ON: Time 100320, Note Name: E3, Velocity: 73
Note OFF: Time 100480, Note Name: E3
Note ON: Time 100480, Note Name: G#3, Velocity: 69
Note OFF: Time 100640, Note Name: G#3
Note ON: Time 100640, Note Name: B3, Velocity: 69
Note OFF: Time 100800, Note Name: B3
Note ON: Time 100800, Note Name: A3, Velocity: 73
Note OFF: Time 100960, Note Name: A3
Note ON: Time 100960, Note Name: F#3, Velocity: 69
Note OFF: Time 101120, Note Name: F#3
Note ON: Time 101120, Note Name: D#3, Velocity: 69
Note OFF: Time 101280, Note Name: D#3
Note ON: Time 101280, Note Name: D#4, Velocity: 73
Note OFF: Time 101440, Note Name: D#4
Note ON: Time 101440, Note Name: A3, Velocity: 69
Note OFF: Time 101600, Note Name: A3
Note ON: Time 101600, Note Name: F#3, Velocity: 69
Note OFF: Time 101760, Note Name: F#3
Note ON: Time 101760, Note Name: G#3, Velocity: 64
Note OFF: Time 101920, Note Name: G#3
Note ON: Time 101920, Note Name: B3, Velocity: 56
Note OFF: Time 102080, Note Name: B3
Note ON: Time 102080, Note Name: E4, Velocity: 56
Note OFF: Time 102240, Note Name: E4
Note ON: Time 102240, Note Name: B3, Velocity: 64
Note OFF: Time 102400, Note Name: B3
Note ON: Time 102400, Note Name: G#3, Velocity: 57
Note OFF: Time 102560, Note Name: G#3
Note ON: Time 102560, Note Name: E3, Velocity: 57
Note OFF: Time 102720, Note Name: E3
Note ON: Time 102720, Note Name: D#3, Velocity: 64
Note OFF: Time 102880, Note Name: D#3
Note ON: Time 102880, Note Name: F#3, Velocity: 56
Note OFF: Time 103040, Note Name: F#3
Note ON: Time 103040, Note Name: A3, Velocity: 56
Note OFF: Time 103200, Note Name: A3
Note ON: Time 103200, Note Name: F#3, Velocity: 64
Note OFF: Time 103360, Note Name: F#3
Note ON: Time 103360, Note Name: D#3, Velocity: 57
Note OFF: Time 103520, Note Name: D#3
Note ON: Time 103520, Note Name: B2, Velocity: 58
Note OFF: Time 103680, Note Name: B2
Note ON: Time 103686, Note Name: E3, Velocity: 64
Note ON: Time 103840, Note Name: G#3, Velocity: 56
Note OFF: Time 103846, Note Name: E3
Note OFF: Time 104000, Note Name: G#3
Note ON: Time 104000, Note Name: B3, Velocity: 56
Note OFF: Time 104160, Note Name: B3
Note ON: Time 104160, Note Name: G#3, Velocity: 64
Note OFF: Time 104320, Note Name: G#3
Note ON: Time 104320, Note Name: E3, Velocity: 57
Note OFF: Time 104480, Note Name: E3
Note ON: Time 104486, Note Name: B2, Velocity: 57
Note ON: Time 104640, Note Name: D#3, Velocity: 64
Note OFF: Time 104646, Note Name: B2
Note OFF: Time 104800, Note Name: D#3
Note ON: Time 104800, Note Name: A3, Velocity: 56
Note OFF: Time 104960, Note Name: A3
Note ON: Time 104966, Note Name: B3, Velocity: 56
Note ON: Time 105120, Note Name: A3, Velocity: 64
Note OFF: Time 105126, Note Name: B3
Note OFF: Time 105280, Note Name: A3
Note ON: Time 105280, Note Name: B3, Velocity: 57
Note OFF: Time 105440, Note Name: B3
Note ON: Time 105440, Note Name: F#4, Velocity: 58
Note OFF: Time 105600, Note Name: F#4
Note ON: Time 105600, Note Name: G#3, Velocity: 64
Note OFF: Time 105760, Note Name: G#3
Note ON: Time 105760, Note Name: B3, Velocity: 55
Note OFF: Time 105920, Note Name: B3
Note ON: Time 105920, Note Name: E4, Velocity: 55
Note OFF: Time 106080, Note Name: E4
Note ON: Time 106080, Note Name: E3, Velocity: 62
Note OFF: Time 106240, Note Name: E3
Note ON: Time 106240, Note Name: G#3, Velocity: 55
Note OFF: Time 106400, Note Name: G#3
Note ON: Time 106400, Note Name: B3, Velocity: 54
Note OFF: Time 106560, Note Name: B3
Note ON: Time 106560, Note Name: F#3, Velocity: 59
Note OFF: Time 106720, Note Name: F#3
Note ON: Time 106720, Note Name: A3, Velocity: 51
Note OFF: Time 106880, Note Name: A3
Note ON: Time 106880, Note Name: B3, Velocity: 51
Note OFF: Time 107040, Note Name: B3
Note ON: Time 107040, Note Name: A3, Velocity: 57
Note OFF: Time 107200, Note Name: A3
Note ON: Time 107200, Note Name: B3, Velocity: 51
Note OFF: Time 107360, Note Name: B3
Note ON: Time 107360, Note Name: F#4, Velocity: 51
Note OFF: Time 107520, Note Name: F#4
Note ON: Time 107520, Note Name: G#3, Velocity: 56
Note OFF: Time 107680, Note Name: G#3
Note ON: Time 107680, Note Name: B3, Velocity: 48
Note OFF: Time 107840, Note Name: B3
Note ON: Time 107840, Note Name: E4, Velocity: 48
Note OFF: Time 108000, Note Name: E4
Note ON: Time 108000, Note Name: E3, Velocity: 54
Note OFF: Time 108160, Note Name: E3
Note ON: Time 108160, Note Name: G#3, Velocity: 48
Note OFF: Time 108320, Note Name: G#3
Note ON: Time 108320, Note Name: B3, Velocity: 47
Note OFF: Time 108480, Note Name: B3
Note ON: Time 108480, Note Name: F#3, Velocity: 51
Note OFF: Time 108640, Note Name: F#3
Note ON: Time 108640, Note Name: A3, Velocity: 44
Note OFF: Time 108800, Note Name: A3
Note ON: Time 108800, Note Name: B3, Velocity: 44
Note OFF: Time 108960, Note Name: B3
Note ON: Time 108960, Note Name: A3, Velocity: 50
Note OFF: Time 109120, Note Name: A3
Note ON: Time 109120, Note Name: B3, Velocity: 44
Note OFF: Time 109280, Note Name: B3
Note ON: Time 109280, Note Name: F#4, Velocity: 44
Note OFF: Time 109440, Note Name: F#4
Note ON: Time 109440, Note Name: G#3, Velocity: 50
Note OFF: Time 109560, Note Name: G#3
Note ON: Time 109560, Note Name: B3, Velocity: 43
Note OFF: Time 109680, Note Name: B3
Note ON: Time 109680, Note Name: E3, Velocity: 43
Note OFF: Time 109800, Note Name: E3
Note ON: Time 109800, Note Name: B3, Velocity: 44
Note OFF: Time 109920, Note Name: B3
Note ON: Time 109920, Note Name: F#3, Velocity: 51
Note OFF: Time 110040, Note Name: F#3
Note ON: Time 110040, Note Name: B3, Velocity: 44
Note OFF: Time 110160, Note Name: B3
Note ON: Time 110160, Note Name: A3, Velocity: 44
Note OFF: Time 110280, Note Name: A3
Note ON: Time 110280, Note Name: B3, Velocity: 44
Note OFF: Time 110400, Note Name: B3
Note ON: Time 110400, Note Name: G#3, Velocity: 52
Note OFF: Time 110520, Note Name: G#3
Note ON: Time 110520, Note Name: B3, Velocity: 46
Note OFF: Time 110640, Note Name: B3
Note ON: Time 110640, Note Name: E3, Velocity: 47
Note OFF: Time 110760, Note Name: E3
Note ON: Time 110760, Note Name: B3, Velocity: 49
Note OFF: Time 110880, Note Name: B3
Note ON: Time 110880, Note Name: F#3, Velocity: 55
Note OFF: Time 111000, Note Name: F#3
Note ON: Time 111000, Note Name: B3, Velocity: 48
Note OFF: Time 111120, Note Name: B3
Note ON: Time 111120, Note Name: A3, Velocity: 48
Note OFF: Time 111240, Note Name: A3
Note ON: Time 111240, Note Name: B3, Velocity: 49
Note OFF: Time 111360, Note Name: B3
Note ON: Time 111360, Note Name: G#3, Velocity: 58
Note OFF: Time 111480, Note Name: G#3
Note ON: Time 111480, Note Name: B3, Velocity: 50
Note OFF: Time 111600, Note Name: B3
Note ON: Time 111600, Note Name: A3, Velocity: 51
Note OFF: Time 111720, Note Name: A3
Note ON: Time 111720, Note Name: B3, Velocity: 52
Note OFF: Time 111840, Note Name: B3
Note ON: Time 111840, Note Name: G#3, Velocity: 60
Note OFF: Time 111960, Note Name: G#3
Note ON: Time 111960, Note Name: B3, Velocity: 52
Note OFF: Time 112080, Note Name: B3
Note ON: Time 112080, Note Name: A3, Velocity: 52
Note OFF: Time 112200, Note Name: A3
Note ON: Time 112200, Note Name: B3, Velocity: 54
Note OFF: Time 112320, Note Name: B3
Note ON: Time 112320, Note Name: G#3, Velocity: 62
Note OFF: Time 112440, Note Name: G#3
Note ON: Time 112440, Note Name: B3, Velocity: 55
Note OFF: Time 112560, Note Name: B3
Note ON: Time 112560, Note Name: A3, Velocity: 55
Note OFF: Time 112680, Note Name: A3
Note ON: Time 112680, Note Name: B3, Velocity: 57
Note OFF: Time 112800, Note Name: B3
Note ON: Time 112800, Note Name: G#3, Velocity: 65
Note OFF: Time 112920, Note Name: G#3
Note ON: Time 112920, Note Name: B3, Velocity: 57
Note OFF: Time 113040, Note Name: B3
Note ON: Time 113040, Note Name: A3, Velocity: 57
Note OFF: Time 113160, Note Name: A3
Note ON: Time 113160, Note Name: B3, Velocity: 58
Note OFF: Time 113280, Note Name: B3
Note ON: Time 113280, Note Name: G#3, Velocity: 70
Note OFF: Time 113400, Note Name: G#3
Note ON: Time 113400, Note Name: B3, Velocity: 60
Note OFF: Time 113520, Note Name: B3
Note ON: Time 113520, Note Name: G#2, Velocity: 60
Note OFF: Time 113640, Note Name: G#2
Note ON: Time 113640, Note Name: E3, Velocity: 62
Note OFF: Time 113760, Note Name: E3
Note ON: Time 113760, Note Name: G#2, Velocity: 70
Note OFF: Time 113880, Note Name: G#2
Note ON: Time 113880, Note Name: E3, Velocity: 60
Note OFF: Time 114000, Note Name: E3
Note ON: Time 114000, Note Name: G#2, Velocity: 60
Note OFF: Time 114120, Note Name: G#2
Note ON: Time 114120, Note Name: E3, Velocity: 60
Note OFF: Time 114240, Note Name: E3
Note ON: Time 114240, Note Name: G#2, Velocity: 70
Note OFF: Time 114360, Note Name: G#2
Note ON: Time 114360, Note Name: E3, Velocity: 60
Note OFF: Time 114480, Note Name: E3
Note ON: Time 114480, Note Name: G#2, Velocity: 60
Note OFF: Time 114600, Note Name: G#2
Note ON: Time 114600, Note Name: E3, Velocity: 62
Note OFF: Time 114720, Note Name: E3
Note ON: Time 114720, Note Name: G#2, Velocity: 70
Note OFF: Time 114840, Note Name: G#2
Note ON: Time 114840, Note Name: E3, Velocity: 60
Note OFF: Time 114960, Note Name: E3
Note ON: Time 114960, Note Name: G#2, Velocity: 60
Note OFF: Time 115080, Note Name: G#2
Note ON: Time 115080, Note Name: E3, Velocity: 60
Note OFF: Time 115200, Note Name: E3
Note ON: Time 115200, Note Name: G#2, Velocity: 70
Note OFF: Time 115320, Note Name: G#2
Note ON: Time 115320, Note Name: E3, Velocity: 60
Note OFF: Time 115440, Note Name: E3
Note ON: Time 115440, Note Name: G#2, Velocity: 60
Note OFF: Time 115560, Note Name: G#2
Note ON: Time 115560, Note Name: E3, Velocity: 62
Note OFF: Time 115680, Note Name: E3
Note ON: Time 115680, Note Name: G#2, Velocity: 70
Note OFF: Time 115800, Note Name: G#2
Note ON: Time 115800, Note Name: E3, Velocity: 60
Note OFF: Time 115920, Note Name: E3
Note ON: Time 115920, Note Name: G#2, Velocity: 60
Note OFF: Time 116040, Note Name: G#2
Note ON: Time 116040, Note Name: E3, Velocity: 61
Note OFF: Time 116160, Note Name: E3
Note ON: Time 116160, Note Name: G#2, Velocity: 71
Note OFF: Time 116280, Note Name: G#2
Note ON: Time 116280, Note Name: E3, Velocity: 61
Note OFF: Time 116400, Note Name: E3
Note ON: Time 116400, Note Name: G#2, Velocity: 61
Note OFF: Time 116520, Note Name: G#2
Note ON: Time 116520, Note Name: E3, Velocity: 63
Note OFF: Time 116640, Note Name: E3
Note ON: Time 116640, Note Name: G#2, Velocity: 72
Note OFF: Time 116760, Note Name: G#2
Note ON: Time 116760, Note Name: E3, Velocity: 62
Note OFF: Time 116880, Note Name: E3
Note ON: Time 116880, Note Name: G#2, Velocity: 62
Note OFF: Time 117000, Note Name: G#2
Note ON: Time 117000, Note Name: E3, Velocity: 62
Note OFF: Time 117120, Note Name: E3
Note ON: Time 117120, Note Name: A2, Velocity: 67
Note ON: Time 117120, Note Name: C#3, Velocity: 67
Note ON: Time 117120, Note Name: E3, Velocity: 80
Note OFF: Time 117300, Note Name: E3
Note OFF: Time 117300, Note Name: C#3
Note OFF: Time 117300, Note Name: A2
Note ON: Time 117360, Note Name: A2, Velocity: 60
Note ON: Time 117360, Note Name: C#3, Velocity: 60
Note ON: Time 117360, Note Name: E3, Velocity: 73
Note OFF: Time 117540, Note Name: E3
Note OFF: Time 117540, Note Name: C#3
Note OFF: Time 117540, Note Name: A2
Note ON: Time 117840, Note Name: A2, Velocity: 60
Note ON: Time 117840, Note Name: C#3, Velocity: 60
Note ON: Time 117840, Note Name: E3, Velocity: 73
Note OFF: Time 118020, Note Name: E3
Note OFF: Time 118020, Note Name: C#3
Note OFF: Time 118020, Note Name: A2
Note ON: Time 118080, Note Name: A2, Velocity: 67
Note ON: Time 118080, Note Name: C#3, Velocity: 67
Note ON: Time 118080, Note Name: E3, Velocity: 80
Note OFF: Time 118260, Note Name: E3
Note OFF: Time 118260, Note Name: C#3
Note OFF: Time 118260, Note Name: A2
Note ON: Time 118320, Note Name: A2, Velocity: 60
Note ON: Time 118320, Note Name: C#3, Velocity: 60
Note ON: Time 118320, Note Name: E3, Velocity: 73
Note OFF: Time 118500, Note Name: E3
Note OFF: Time 118500, Note Name: C#3
Note OFF: Time 118500, Note Name: A2
Note ON: Time 118800, Note Name: A2, Velocity: 60
Note ON: Time 118800, Note Name: C#3, Velocity: 60
Note ON: Time 118800, Note Name: E3, Velocity: 73
Note OFF: Time 118980, Note Name: E3
Note OFF: Time 118980, Note Name: C#3
Note OFF: Time 118980, Note Name: A2
Note ON: Time 119040, Note Name: A2, Velocity: 67
Note ON: Time 119040, Note Name: C#3, Velocity: 67
Note ON: Time 119040, Note Name: E3, Velocity: 78
Note OFF: Time 119220, Note Name: E3
Note OFF: Time 119220, Note Name: C#3
Note OFF: Time 119220, Note Name: A2
Note ON: Time 119280, Note Name: A2, Velocity: 60
Note ON: Time 119280, Note Name: C#3, Velocity: 60
Note ON: Time 119280, Note Name: E3, Velocity: 73
Note OFF: Time 119460, Note Name: E3
Note OFF: Time 119460, Note Name: C#3
Note OFF: Time 119460, Note Name: A2
Note ON: Time 119760, Note Name: A2, Velocity: 60
Note ON: Time 119760, Note Name: C#3, Velocity: 60
Note ON: Time 119760, Note Name: E3, Velocity: 73
Note OFF: Time 119940, Note Name: E3
Note OFF: Time 119940, Note Name: C#3
Note OFF: Time 119940, Note Name: A2
Note ON: Time 120000, Note Name: A2, Velocity: 67
Note ON: Time 120000, Note Name: C#3, Velocity: 67
Note ON: Time 120000, Note Name: E3, Velocity: 78
Note OFF: Time 120180, Note Name: E3
Note OFF: Time 120180, Note Name: C#3
Note OFF: Time 120180, Note Name: A2
Note ON: Time 120240, Note Name: A2, Velocity: 60
Note ON: Time 120240, Note Name: C#3, Velocity: 60
Note ON: Time 120240, Note Name: E3, Velocity: 73
Note OFF: Time 120420, Note Name: E3
Note OFF: Time 120420, Note Name: C#3
Note OFF: Time 120420, Note Name: A2
Note ON: Time 120720, Note Name: A2, Velocity: 60
Note ON: Time 120720, Note Name: C#3, Velocity: 60
Note ON: Time 120720, Note Name: E3, Velocity: 73
Note OFF: Time 120900, Note Name: E3
Note OFF: Time 120900, Note Name: C#3
Note OFF: Time 120900, Note Name: A2
Note ON: Time 120960, Note Name: E3, Velocity: 67
Note ON: Time 120960, Note Name: A#2, Velocity: 67
Note ON: Time 120960, Note Name: C#3, Velocity: 67
Note ON: Time 120960, Note Name: F#3, Velocity: 78
Note OFF: Time 121140, Note Name: F#3
Note OFF: Time 121140, Note Name: E3
Note OFF: Time 121140, Note Name: A#2
Note OFF: Time 121140, Note Name: C#3
Note ON: Time 121200, Note Name: E3, Velocity: 60
Note ON: Time 121200, Note Name: A#2, Velocity: 60
Note ON: Time 121200, Note Name: C#3, Velocity: 60
Note ON: Time 121200, Note Name: F#3, Velocity: 73
Note OFF: Time 121380, Note Name: F#3
Note OFF: Time 121380, Note Name: E3
Note OFF: Time 121380, Note Name: A#2
Note OFF: Time 121380, Note Name: C#3
Note ON: Time 121680, Note Name: E3, Velocity: 60
Note ON: Time 121680, Note Name: A#2, Velocity: 60
Note ON: Time 121680, Note Name: C#3, Velocity: 60
Note ON: Time 121680, Note Name: F#3, Velocity: 73
Note OFF: Time 121860, Note Name: F#3
Note OFF: Time 121860, Note Name: E3
Note OFF: Time 121860, Note Name: A#2
Note OFF: Time 121860, Note Name: C#3
Note ON: Time 121920, Note Name: E3, Velocity: 67
Note ON: Time 121920, Note Name: A#2, Velocity: 67
Note ON: Time 121920, Note Name: C#3, Velocity: 67
Note ON: Time 121920, Note Name: F#3, Velocity: 78
Note OFF: Time 122100, Note Name: F#3
Note OFF: Time 122100, Note Name: E3
Note OFF: Time 122100, Note Name: A#2
Note OFF: Time 122100, Note Name: C#3
Note ON: Time 122160, Note Name: E3, Velocity: 60
Note ON: Time 122160, Note Name: A#2, Velocity: 60
Note ON: Time 122160, Note Name: C#3, Velocity: 60
Note ON: Time 122160, Note Name: F#3, Velocity: 73
Note OFF: Time 122340, Note Name: F#3
Note OFF: Time 122340, Note Name: E3
Note OFF: Time 122340, Note Name: A#2
Note OFF: Time 122340, Note Name: C#3
Note ON: Time 122640, Note Name: E3, Velocity: 60
Note ON: Time 122640, Note Name: A#2, Velocity: 60
Note ON: Time 122640, Note Name: C#3, Velocity: 60
Note ON: Time 122640, Note Name: F#3, Velocity: 73
Note OFF: Time 122820, Note Name: F#3
Note OFF: Time 122820, Note Name: E3
Note OFF: Time 122820, Note Name: A#2
Note OFF: Time 122820, Note Name: C#3
Note ON: Time 122880, Note Name: E3, Velocity: 67
Note ON: Time 122880, Note Name: A#2, Velocity: 67
Note ON: Time 122880, Note Name: C#3, Velocity: 67
Note ON: Time 122880, Note Name: F#3, Velocity: 78
Note OFF: Time 123060, Note Name: F#3
Note OFF: Time 123060, Note Name: E3
Note OFF: Time 123060, Note Name: A#2
Note OFF: Time 123060, Note Name: C#3
Note ON: Time 123120, Note Name: E3, Velocity: 60
Note ON: Time 123120, Note Name: A#2, Velocity: 60
Note ON: Time 123120, Note Name: C#3, Velocity: 60
Note ON: Time 123120, Note Name: F#3, Velocity: 73
Note OFF: Time 123300, Note Name: F#3
Note OFF: Time 123300, Note Name: E3
Note OFF: Time 123300, Note Name: A#2
Note OFF: Time 123300, Note Name: C#3
Note ON: Time 123600, Note Name: E3, Velocity: 60
Note ON: Time 123600, Note Name: A#2, Velocity: 60
Note ON: Time 123600, Note Name: C#3, Velocity: 60
Note ON: Time 123600, Note Name: F#3, Velocity: 73
Note OFF: Time 123780, Note Name: F#3
Note OFF: Time 123780, Note Name: E3
Note OFF: Time 123780, Note Name: A#2
Note OFF: Time 123780, Note Name: C#3
Note ON: Time 123840, Note Name: E3, Velocity: 67
Note ON: Time 123840, Note Name: A#2, Velocity: 67
Note ON: Time 123840, Note Name: C#3, Velocity: 67
Note ON: Time 123840, Note Name: F#3, Velocity: 78
Note OFF: Time 124020, Note Name: F#3
Note OFF: Time 124020, Note Name: E3
Note OFF: Time 124020, Note Name: A#2
Note OFF: Time 124020, Note Name: C#3
Note ON: Time 124080, Note Name: E3, Velocity: 60
Note ON: Time 124080, Note Name: A#2, Velocity: 60
Note ON: Time 124080, Note Name: C#3, Velocity: 60
Note ON: Time 124080, Note Name: F#3, Velocity: 73
Note OFF: Time 124260, Note Name: F#3
Note OFF: Time 124260, Note Name: E3
Note OFF: Time 124260, Note Name: A#2
Note OFF: Time 124260, Note Name: C#3
Note ON: Time 124560, Note Name: E3, Velocity: 60
Note ON: Time 124560, Note Name: A#2, Velocity: 60
Note ON: Time 124560, Note Name: C#3, Velocity: 60
Note ON: Time 124560, Note Name: F#3, Velocity: 73
Note OFF: Time 124740, Note Name: F#3
Note OFF: Time 124740, Note Name: E3
Note OFF: Time 124740, Note Name: A#2
Note OFF: Time 124740, Note Name: C#3
Note ON: Time 124800, Note Name: B2, Velocity: 78
Note OFF: Time 124920, Note Name: B2
Note ON: Time 124920, Note Name: E3, Velocity: 70
Note OFF: Time 125040, Note Name: E3
Note ON: Time 125040, Note Name: G#3, Velocity: 70
Note OFF: Time 125160, Note Name: G#3
Note ON: Time 125160, Note Name: B3, Velocity: 70
Note OFF: Time 125280, Note Name: B3
Note ON: Time 125280, Note Name: B2, Velocity: 77
Note OFF: Time 125400, Note Name: B2
Note ON: Time 125400, Note Name: E3, Velocity: 70
Note OFF: Time 125520, Note Name: E3
Note ON: Time 125520, Note Name: G#3, Velocity: 70
Note OFF: Time 125640, Note Name: G#3
Note ON: Time 125640, Note Name: B3, Velocity: 70
Note OFF: Time 125760, Note Name: B3
Note ON: Time 125760, Note Name: B2, Velocity: 75
Note OFF: Time 125880, Note Name: B2
Note ON: Time 125880, Note Name: E3, Velocity: 70
Note OFF: Time 126000, Note Name: E3
Note ON: Time 126000, Note Name: G#3, Velocity: 70
Note OFF: Time 126120, Note Name: G#3
Note ON: Time 126120, Note Name: B3, Velocity: 70
Note OFF: Time 126240, Note Name: B3
Note ON: Time 126240, Note Name: B2, Velocity: 75
Note OFF: Time 126360, Note Name: B2
Note ON: Time 126360, Note Name: E3, Velocity: 70
Note OFF: Time 126480, Note Name: E3
Note ON: Time 126480, Note Name: G#3, Velocity: 70
Note OFF: Time 126600, Note Name: G#3
Note ON: Time 126600, Note Name: B3, Velocity: 70
Note OFF: Time 126720, Note Name: B3
Note ON: Time 126720, Note Name: B2, Velocity: 78
Note OFF: Time 126840, Note Name: B2
Note ON: Time 126840, Note Name: E3, Velocity: 70
Note OFF: Time 126960, Note Name: E3
Note ON: Time 126960, Note Name: G#3, Velocity: 70
Note OFF: Time 127080, Note Name: G#3
Note ON: Time 127080, Note Name: B3, Velocity: 70
Note OFF: Time 127200, Note Name: B3
Note ON: Time 127200, Note Name: B2, Velocity: 77
Note OFF: Time 127320, Note Name: B2
Note ON: Time 127320, Note Name: E3, Velocity: 70
Note OFF: Time 127440, Note Name: E3
Note ON: Time 127440, Note Name: G#3, Velocity: 70
Note OFF: Time 127560, Note Name: G#3
Note ON: Time 127560, Note Name: B3, Velocity: 70
Note OFF: Time 127680, Note Name: B3
Note ON: Time 127680, Note Name: G#3, Velocity: 75
Note OFF: Time 127800, Note Name: G#3
Note ON: Time 127920, Note Name: G#3, Velocity: 70
Note OFF: Time 128040, Note Name: G#3
Note ON: Time 128160, Note Name: E3, Velocity: 75
Note OFF: Time 128280, Note Name: E3
Note ON: Time 128400, Note Name: B2, Velocity: 70
Note OFF: Time 128520, Note Name: B2
Note ON: Time 128640, Note Name: B3, Velocity: 86
Note OFF: Time 128760, Note Name: B3
Note ON: Time 128880, Note Name: G#3, Velocity: 47
Note OFF: Time 129000, Note Name: G#3
Note ON: Time 129120, Note Name: E4, Velocity: 53
Note OFF: Time 129240, Note Name: E4
Note ON: Time 129360, Note Name: B3, Velocity: 48
Note OFF: Time 129480, Note Name: B3
Note ON: Time 129600, Note Name: G#4, Velocity: 52
Note OFF: Time 129720, Note Name: G#4
Note ON: Time 129840, Note Name: E4, Velocity: 41
Note OFF: Time 129960, Note Name: E4
Note ON: Time 130080, Note Name: B4, Velocity: 50
Note OFF: Time 130200, Note Name: B4
Note ON: Time 130320, Note Name: G#4, Velocity: 41
Note OFF: Time 130440, Note Name: G#4
Note ON: Time 130560, Note Name: E5, Velocity: 50
Note OFF: Time 130680, Note Name: E5
Note ON: Time 130800, Note Name: B4, Velocity: 41
Note OFF: Time 130920, Note Name: B4
Note ON: Time 131040, Note Name: E5, Velocity: 50
Note OFF: Time 131160, Note Name: E5
Note ON: Time 131280, Note Name: B4, Velocity: 39
Note OFF: Time 131400, Note Name: B4
Note ON: Time 131520, Note Name: E5, Velocity: 50
Note OFF: Time 131640, Note Name: E5
Note ON: Time 131760, Note Name: B4, Velocity: 41
Note OFF: Time 131880, Note Name: B4
Note ON: Time 132000, Note Name: E5, Velocity: 50
Note OFF: Time 132120, Note Name: E5
Note ON: Time 132240, Note Name: B4, Velocity: 42
Note OFF: Time 132360, Note Name: B4
Note ON: Time 132480, Note Name: D#5, Velocity: 46
Note OFF: Time 132600, Note Name: D#5
Note ON: Time 132720, Note Name: B4, Velocity: 37
Note OFF: Time 132840, Note Name: B4
Note ON: Time 132960, Note Name: D#5, Velocity: 43
Note OFF: Time 133080, Note Name: D#5
Note ON: Time 133200, Note Name: B4, Velocity: 36
Note OFF: Time 133320, Note Name: B4
Note ON: Time 133440, Note Name: D#5, Velocity: 41
Note OFF: Time 133560, Note Name: D#5
Note ON: Time 133680, Note Name: B4, Velocity: 32
Note OFF: Time 133800, Note Name: B4
Note ON: Time 133920, Note Name: D#5, Velocity: 39
Note OFF: Time 134040, Note Name: D#5
Note ON: Time 134160, Note Name: B4, Velocity: 31
Note OFF: Time 134280, Note Name: B4
Note ON: Time 134400, Note Name: D#5, Velocity: 36
Note OFF: Time 134520, Note Name: D#5
Note ON: Time 134640, Note Name: B4, Velocity: 30
Note OFF: Time 134760, Note Name: B4
Note ON: Time 134880, Note Name: D#5, Velocity: 36
Note OFF: Time 135000, Note Name: D#5
Note ON: Time 135120, Note Name: B4, Velocity: 31
Note OFF: Time 135240, Note Name: B4
Note ON: Time 135360, Note Name: D#5, Velocity: 36
Note OFF: Time 135480, Note Name: D#5
Note ON: Time 135600, Note Name: B4, Velocity: 29
Note OFF: Time 135720, Note Name: B4
Note ON: Time 135840, Note Name: D#5, Velocity: 36
Note OFF: Time 135960, Note Name: D#5
Note ON: Time 136080, Note Name: B4, Velocity: 30
Note OFF: Time 136200, Note Name: B4
Note ON: Time 136320, Note Name: D#5, Velocity: 37
Note OFF: Time 136400, Note Name: D#5
Note ON: Time 136400, Note Name: E5, Velocity: 32
Note OFF: Time 136480, Note Name: E5
Note ON: Time 136480, Note Name: D#5, Velocity: 36
Note OFF: Time 136560, Note Name: D#5
Note ON: Time 136560, Note Name: E5, Velocity: 31
Note OFF: Time 136640, Note Name: E5
Note ON: Time 136640, Note Name: D#5, Velocity: 36
Note OFF: Time 136720, Note Name: D#5
Note ON: Time 136720, Note Name: E5, Velocity: 33
Note OFF: Time 136800, Note Name: E5
Note ON: Time 136800, Note Name: D#5, Velocity: 37
Note OFF: Time 136880, Note Name: D#5
Note ON: Time 136880, Note Name: E5, Velocity: 33
Note OFF: Time 136960, Note Name: E5
Note ON: Time 136960, Note Name: D#5, Velocity: 37
Note OFF: Time 137040, Note Name: D#5
Note ON: Time 137040, Note Name: E5, Velocity: 33
Note OFF: Time 137120, Note Name: E5
Note ON: Time 137120, Note Name: D#5, Velocity: 38
Note OFF: Time 137200, Note Name: D#5
Note ON: Time 137200, Note Name: E5, Velocity: 34
Note OFF: Time 137280, Note Name: E5
Note ON: Time 137280, Note Name: D#5, Velocity: 38
Note OFF: Time 137360, Note Name: D#5
Note ON: Time 137360, Note Name: E5, Velocity: 35
Note OFF: Time 137440, Note Name: E5
Note ON: Time 137440, Note Name: D#5, Velocity: 39
Note OFF: Time 137520, Note Name: D#5
Note ON: Time 137520, Note Name: E5, Velocity: 35
Note OFF: Time 137600, Note Name: E5
Note ON: Time 137600, Note Name: D#5, Velocity: 39
Note OFF: Time 137680, Note Name: D#5
Note ON: Time 137680, Note Name: E5, Velocity: 36
Note OFF: Time 137760, Note Name: E5
Note ON: Time 137760, Note Name: D#5, Velocity: 40
Note OFF: Time 137840, Note Name: D#5
Note ON: Time 137840, Note Name: E5, Velocity: 36
Note OFF: Time 137920, Note Name: E5
Note ON: Time 137920, Note Name: D#5, Velocity: 40
Note OFF: Time 138000, Note Name: D#5
Note ON: Time 138000, Note Name: E5, Velocity: 36
Note OFF: Time 138080, Note Name: E5
Note ON: Time 138080, Note Name: D#5, Velocity: 41
Note OFF: Time 138160, Note Name: D#5
Note ON: Time 138160, Note Name: E5, Velocity: 37
Note OFF: Time 138240, Note Name: E5
Note ON: Time 138240, Note Name: D#5, Velocity: 41
Note OFF: Time 138320, Note Name: D#5
Note ON: Time 138320, Note Name: E5, Velocity: 36
Note OFF: Time 138400, Note Name: E5
Note ON: Time 138400, Note Name: D#5, Velocity: 42
Note OFF: Time 138480, Note Name: D#5
Note ON: Time 138480, Note Name: E5, Velocity: 37
Note OFF: Time 138560, Note Name: E5
Note ON: Time 138560, Note Name: D#5, Velocity: 42
Note OFF: Time 138640, Note Name: D#5
Note ON: Time 138640, Note Name: E5, Velocity: 37
Note OFF: Time 138720, Note Name: E5
Note ON: Time 138720, Note Name: D#5, Velocity: 43
Note OFF: Time 138800, Note Name: D#5
Note ON: Time 138800, Note Name: E5, Velocity: 38
Note OFF: Time 138880, Note Name: E5
Note ON: Time 138880, Note Name: D#5, Velocity: 43
Note OFF: Time 138960, Note Name: D#5
Note ON: Time 138960, Note Name: E5, Velocity: 39
Note OFF: Time 139040, Note Name: E5
Note ON: Time 139040, Note Name: D#5, Velocity: 44
Note OFF: Time 139120, Note Name: D#5
Note ON: Time 139120, Note Name: E5, Velocity: 39
Note OFF: Time 139200, Note Name: E5
Note ON: Time 139200, Note Name: D#5, Velocity: 44
Note OFF: Time 139280, Note Name: D#5
Note ON: Time 139280, Note Name: E5, Velocity: 38
Note OFF: Time 139360, Note Name: E5
Note ON: Time 139360, Note Name: D#5, Velocity: 45
Note OFF: Time 139440, Note Name: D#5
Note ON: Time 139440, Note Name: E5, Velocity: 38
Note OFF: Time 139520, Note Name: E5
Note ON: Time 139520, Note Name: D#5, Velocity: 45
Note OFF: Time 139600, Note Name: D#5
Note ON: Time 139600, Note Name: E5, Velocity: 40
Note OFF: Time 139680, Note Name: E5
Note ON: Time 139680, Note Name: D#5, Velocity: 50
Note OFF: Time 139776, Note Name: D#5
Note ON: Time 139776, Note Name: E5, Velocity: 44
Note OFF: Time 139872, Note Name: E5
Note ON: Time 139872, Note Name: D#5, Velocity: 50
Note OFF: Time 139968, Note Name: D#5
Note ON: Time 139968, Note Name: C#5, Velocity: 52
Note OFF: Time 140064, Note Name: C#5
Note ON: Time 140064, Note Name: D#5, Velocity: 47
Note OFF: Time 140160, Note Name: D#5
Note ON: Time 140160, Note Name: E4, Velocity: 48
Note ON: Time 140160, Note Name: E5, Velocity: 57
Note OFF: Time 141120, Note Name: E5
Note ON: Time 141120, Note Name: G#4, Velocity: 38
Note ON: Time 141120, Note Name: D5, Velocity: 45
Note ON: Time 141120, Note Name: B4, Velocity: 38
Note OFF: Time 142080, Note Name: B4
Note OFF: Time 142080, Note Name: D5
Note OFF: Time 142080, Note Name: G#4
Note ON: Time 142080, Note Name: C5, Velocity: 47
Note ON: Time 142080, Note Name: A4, Velocity: 39
Note OFF: Time 143040, Note Name: A4
Note OFF: Time 143040, Note Name: C5
Note ON: Time 143040, Note Name: D5, Velocity: 46
Note ON: Time 143040, Note Name: B4, Velocity: 39
Note ON: Time 143040, Note Name: G#4, Velocity: 39
Note OFF: Time 144000, Note Name: G#4
Note OFF: Time 144000, Note Name: E4
Note OFF: Time 144000, Note Name: D5
Note OFF: Time 144000, Note Name: B4
Note ON: Time 144000, Note Name: A4, Velocity: 40
Note ON: Time 144000, Note Name: C5, Velocity: 48
Note OFF: Time 144480, Note Name: C5
Note OFF: Time 144480, Note Name: A4
Note ON: Time 144960, Note Name: A3, Velocity: 39
Note ON: Time 144960, Note Name: C4, Velocity: 39
Note ON: Time 144960, Note Name: F#4, Velocity: 39
Note ON: Time 144960, Note Name: A4, Velocity: 47
Note OFF: Time 145920, Note Name: A4
Note OFF: Time 145920, Note Name: A3
Note OFF: Time 145920, Note Name: C4
Note OFF: Time 145920, Note Name: F#4
Note ON: Time 145920, Note Name: B3, Velocity: 39
Note ON: Time 145920, Note Name: E4, Velocity: 39
Note ON: Time 145920, Note Name: G4, Velocity: 46
Note OFF: Time 146880, Note Name: G4
Note OFF: Time 146880, Note Name: E4
Note OFF: Time 146880, Note Name: B3
Note ON: Time 146880, Note Name: D#4, Velocity: 37
Note ON: Time 146880, Note Name: F#4, Velocity: 44
Note ON: Time 146880, Note Name: B3, Velocity: 37
Note OFF: Time 147840, Note Name: B3
Note OFF: Time 147840, Note Name: F#4
Note OFF: Time 147840, Note Name: D#4
Note ON: Time 147840, Note Name: E4, Velocity: 56
Note ON: Time 147840, Note Name: E3, Velocity: 45
Note OFF: Time 148800, Note Name: E4
Note ON: Time 148800, Note Name: D4, Velocity: 45
Note ON: Time 148800, Note Name: B3, Velocity: 38
Note ON: Time 148800, Note Name: G#3, Velocity: 38
Note OFF: Time 149760, Note Name: G#3
Note OFF: Time 149760, Note Name: B3
Note OFF: Time 149760, Note Name: D4
Note ON: Time 149760, Note Name: A3, Velocity: 39
Note ON: Time 149760, Note Name: C4, Velocity: 47
Note OFF: Time 150720, Note Name: C4
Note OFF: Time 150720, Note Name: A3
Note ON: Time 150720, Note Name: D4, Velocity: 46
Note ON: Time 150720, Note Name: B3, Velocity: 39
Note ON: Time 150720, Note Name: G#3, Velocity: 39
Note OFF: Time 151680, Note Name: G#3
Note OFF: Time 151680, Note Name: E3
Note OFF: Time 151680, Note Name: D4
Note OFF: Time 151680, Note Name: B3
Note ON: Time 151680, Note Name: A3, Velocity: 48
Note ON: Time 151680, Note Name: C4, Velocity: 48
Note OFF: Time 152160, Note Name: C4
Note OFF: Time 152160, Note Name: A3
Note ON: Time 152640, Note Name: A2, Velocity: 39
Note ON: Time 152640, Note Name: C3, Velocity: 39
Note ON: Time 152640, Note Name: F#3, Velocity: 39
Note ON: Time 152640, Note Name: A3, Velocity: 47
Note OFF: Time 153600, Note Name: A3
Note OFF: Time 153600, Note Name: A2
Note OFF: Time 153600, Note Name: C3
Note OFF: Time 153600, Note Name: F#3
Note ON: Time 153600, Note Name: B2, Velocity: 39
Note ON: Time 153600, Note Name: E3, Velocity: 39
Note ON: Time 153600, Note Name: G3, Velocity: 46
Note OFF: Time 154560, Note Name: G3
Note OFF: Time 154560, Note Name: E3
Note OFF: Time 154560, Note Name: B2
Note ON: Time 154560, Note Name: F#3, Velocity: 44
Note ON: Time 154560, Note Name: D#3, Velocity: 37
Note ON: Time 154560, Note Name: B2, Velocity: 37
Note OFF: Time 155520, Note Name: B2
Note OFF: Time 155520, Note Name: D#3
Note OFF: Time 155520, Note Name: F#3
Note ON: Time 155520, Note Name: G3, Velocity: 44
Note ON: Time 155520, Note Name: E3, Velocity: 37
Note OFF: Time 155760, Note Name: E3
Note OFF: Time 155760, Note Name: G3
Note ON: Time 156000, Note Name: G2, Velocity: 42
Note ON: Time 156000, Note Name: E3, Velocity: 51
Note OFF: Time 156480, Note Name: G2
Note ON: Time 156480, Note Name: A2, Velocity: 42
Note OFF: Time 156720, Note Name: E3
Note ON: Time 156720, Note Name: F3, Velocity: 49
Note OFF: Time 156960, Note Name: F3
Note ON: Time 156960, Note Name: G3, Velocity: 51
Note OFF: Time 157200, Note Name: G3
Note ON: Time 157200, Note Name: A3, Velocity: 55
Note OFF: Time 157440, Note Name: A3
Note OFF: Time 157440, Note Name: A2
Note ON: Time 157440, Note Name: B3, Velocity: 41
Note ON: Time 157440, Note Name: B2, Velocity: 35
Note ON: Time 157440, Note Name: G3, Velocity: 35
Note OFF: Time 158400, Note Name: G3
Note OFF: Time 158400, Note Name: B3
Note ON: Time 158400, Note Name: F#3, Velocity: 33
Note ON: Time 158400, Note Name: A3, Velocity: 39
Note OFF: Time 159360, Note Name: A3
Note OFF: Time 159360, Note Name: F#3
Note OFF: Time 159360, Note Name: B2
Note ON: Time 159360, Note Name: C3, Velocity: 37
Note ON: Time 159360, Note Name: E3, Velocity: 37
Note ON: Time 159360, Note Name: G3, Velocity: 44
Note OFF: Time 159600, Note Name: G3
Note OFF: Time 159600, Note Name: E3
Note OFF: Time 159600, Note Name: C3
Note ON: Time 159840, Note Name: E2, Velocity: 42
Note ON: Time 159840, Note Name: C3, Velocity: 51
Note OFF: Time 160320, Note Name: E2
Note ON: Time 160320, Note Name: F2, Velocity: 42
Note OFF: Time 160560, Note Name: C3
Note ON: Time 160560, Note Name: D3, Velocity: 49
Note OFF: Time 160800, Note Name: D3
Note ON: Time 160800, Note Name: E3, Velocity: 51
Note OFF: Time 161040, Note Name: E3
Note ON: Time 161040, Note Name: F3, Velocity: 55
Note OFF: Time 161280, Note Name: F3
Note OFF: Time 161280, Note Name: F2
Note ON: Time 161280, Note Name: E3, Velocity: 35
Note ON: Time 161280, Note Name: G2, Velocity: 35
Note ON: Time 161280, Note Name: G3, Velocity: 41
Note OFF: Time 162240, Note Name: G3
Note OFF: Time 162240, Note Name: E3
Note ON: Time 162240, Note Name: F3, Velocity: 39
Note ON: Time 162240, Note Name: D3, Velocity: 33
Note OFF: Time 163200, Note Name: D3
Note OFF: Time 163200, Note Name: F3
Note OFF: Time 163200, Note Name: G2
Note ON: Time 163200, Note Name: C2, Velocity: 25
Note OFF: Time 163380, Note Name: C2
Note ON: Time 163440, Note Name: G2, Velocity: 26
Note ON: Time 163440, Note Name: C2, Velocity: 22
Note OFF: Time 163620, Note Name: C2
Note OFF: Time 163620, Note Name: G2
Note ON: Time 163680, Note Name: G2, Velocity: 26
Note ON: Time 163680, Note Name: C2, Velocity: 22
Note OFF: Time 163860, Note Name: C2
Note OFF: Time 163860, Note Name: G2
Note ON: Time 163920, Note Name: G2, Velocity: 27
Note ON: Time 163920, Note Name: C2, Velocity: 22
Note OFF: Time 164100, Note Name: C2
Note OFF: Time 164100, Note Name: G2
Note ON: Time 164160, Note Name: G2, Velocity: 27
Note ON: Time 164160, Note Name: C2, Velocity: 22
Note OFF: Time 164340, Note Name: C2
Note OFF: Time 164340, Note Name: G2
Note ON: Time 164400, Note Name: G2, Velocity: 28
Note ON: Time 164400, Note Name: C2, Velocity: 23
Note OFF: Time 164580, Note Name: C2
Note OFF: Time 164580, Note Name: G2
Note ON: Time 164640, Note Name: G2, Velocity: 28
Note ON: Time 164640, Note Name: C2, Velocity: 23
Note OFF: Time 164820, Note Name: C2
Note OFF: Time 164820, Note Name: G2
Note ON: Time 164880, Note Name: G2, Velocity: 29
Note ON: Time 164880, Note Name: C2, Velocity: 24
Note OFF: Time 165060, Note Name: C2
Note OFF: Time 165060, Note Name: G2
Note ON: Time 165120, Note Name: C2, Velocity: 25
Note ON: Time 165120, Note Name: G2, Velocity: 30
Note OFF: Time 165300, Note Name: G2
Note OFF: Time 165300, Note Name: C2
Note ON: Time 165360, Note Name: C2, Velocity: 22
Note ON: Time 165360, Note Name: G2, Velocity: 27
Note OFF: Time 165540, Note Name: G2
Note OFF: Time 165540, Note Name: C2
Note ON: Time 165600, Note Name: C2, Velocity: 23
Note ON: Time 165600, Note Name: G2, Velocity: 28
Note OFF: Time 165780, Note Name: G2
Note OFF: Time 165780, Note Name: C2
Note ON: Time 165840, Note Name: C2, Velocity: 24
Note ON: Time 165840, Note Name: G2, Velocity: 29
Note OFF: Time 166020, Note Name: G2
Note OFF: Time 166020, Note Name: C2
Note ON: Time 166080, Note Name: C2, Velocity: 25
Note ON: Time 166080, Note Name: G2, Velocity: 30
Note OFF: Time 166260, Note Name: G2
Note OFF: Time 166260, Note Name: C2
Note ON: Time 166320, Note Name: C2, Velocity: 25
Note ON: Time 166320, Note Name: G2, Velocity: 30
Note OFF: Time 166500, Note Name: G2
Note OFF: Time 166500, Note Name: C2
Note ON: Time 166560, Note Name: C2, Velocity: 25
Note ON: Time 166560, Note Name: A2, Velocity: 30
Note OFF: Time 166740, Note Name: A2
Note OFF: Time 166740, Note Name: C2
Note ON: Time 166800, Note Name: C2, Velocity: 25
Note ON: Time 166800, Note Name: A2, Velocity: 30
Note OFF: Time 166980, Note Name: A2
Note OFF: Time 166980, Note Name: C2
Note ON: Time 167040, Note Name: B1, Velocity: 25
Note ON: Time 167040, Note Name: G2, Velocity: 30
Note OFF: Time 167220, Note Name: G2
Note OFF: Time 167220, Note Name: B1
Note ON: Time 167280, Note Name: B1, Velocity: 25
Note ON: Time 167280, Note Name: G2, Velocity: 30
Note OFF: Time 167460, Note Name: G2
Note OFF: Time 167460, Note Name: B1
Note ON: Time 167520, Note Name: B1, Velocity: 25
Note ON: Time 167520, Note Name: G2, Velocity: 30
Note OFF: Time 167700, Note Name: G2
Note OFF: Time 167700, Note Name: B1
Note ON: Time 167760, Note Name: B1, Velocity: 25
Note ON: Time 167760, Note Name: G2, Velocity: 30
Note OFF: Time 167940, Note Name: G2
Note OFF: Time 167940, Note Name: B1
Note ON: Time 168000, Note Name: B1, Velocity: 25
Note ON: Time 168000, Note Name: G2, Velocity: 30
Note OFF: Time 168180, Note Name: G2
Note OFF: Time 168180, Note Name: B1
Note ON: Time 168240, Note Name: B1, Velocity: 25
Note ON: Time 168240, Note Name: G2, Velocity: 30
Note OFF: Time 168420, Note Name: G2
Note OFF: Time 168420, Note Name: B1
Note ON: Time 168480, Note Name: B1, Velocity: 25
Note ON: Time 168480, Note Name: G2, Velocity: 30
Note OFF: Time 168660, Note Name: G2
Note OFF: Time 168660, Note Name: B1
Note ON: Time 168720, Note Name: B1, Velocity: 25
Note ON: Time 168720, Note Name: G2, Velocity: 30
Note OFF: Time 168900, Note Name: G2
Note OFF: Time 168900, Note Name: B1
Note ON: Time 168960, Note Name: B1, Velocity: 25
Note ON: Time 168960, Note Name: G2, Velocity: 30
Note OFF: Time 169140, Note Name: G2
Note OFF: Time 169140, Note Name: B1
Note ON: Time 169200, Note Name: B1, Velocity: 25
Note ON: Time 169200, Note Name: G2, Velocity: 30
Note OFF: Time 169380, Note Name: G2
Note OFF: Time 169380, Note Name: B1
Note ON: Time 169440, Note Name: B1, Velocity: 25
Note ON: Time 169440, Note Name: G2, Velocity: 30
Note OFF: Time 169620, Note Name: G2
Note OFF: Time 169620, Note Name: B1
Note ON: Time 169680, Note Name: B1, Velocity: 25
Note ON: Time 169680, Note Name: G2, Velocity: 30
Note OFF: Time 169860, Note Name: G2
Note OFF: Time 169860, Note Name: B1
Note ON: Time 169920, Note Name: B1, Velocity: 25
Note ON: Time 169920, Note Name: G2, Velocity: 30
Note OFF: Time 170100, Note Name: G2
Note OFF: Time 170100, Note Name: B1
Note ON: Time 170160, Note Name: B1, Velocity: 25
Note ON: Time 170160, Note Name: G2, Velocity: 30
Note OFF: Time 170340, Note Name: G2
Note OFF: Time 170340, Note Name: B1
Note ON: Time 170400, Note Name: B1, Velocity: 25
Note ON: Time 170400, Note Name: G2, Velocity: 30
Note OFF: Time 170580, Note Name: G2
Note OFF: Time 170580, Note Name: B1
Note ON: Time 170640, Note Name: B1, Velocity: 25
Note ON: Time 170640, Note Name: G2, Velocity: 30
Note OFF: Time 170820, Note Name: G2
Note OFF: Time 170820, Note Name: B1
Note ON: Time 170880, Note Name: F2, Velocity: 30
Note ON: Time 170880, Note Name: A#1, Velocity: 26
Note OFF: Time 171060, Note Name: A#1
Note OFF: Time 171060, Note Name: F2
Note ON: Time 171120, Note Name: F2, Velocity: 30
Note ON: Time 171120, Note Name: A#1, Velocity: 25
Note OFF: Time 171300, Note Name: A#1
Note OFF: Time 171300, Note Name: F2
Note ON: Time 171360, Note Name: F2, Velocity: 30
Note ON: Time 171360, Note Name: A#1, Velocity: 25
Note OFF: Time 171540, Note Name: A#1
Note OFF: Time 171540, Note Name: F2
Note ON: Time 171600, Note Name: F2, Velocity: 31
Note ON: Time 171600, Note Name: A#1, Velocity: 26
Note OFF: Time 171780, Note Name: A#1
Note OFF: Time 171780, Note Name: F2
Note ON: Time 171840, Note Name: F2, Velocity: 31
Note ON: Time 171840, Note Name: A#1, Velocity: 26
Note OFF: Time 172020, Note Name: A#1
Note OFF: Time 172020, Note Name: F2
Note ON: Time 172080, Note Name: F2, Velocity: 31
Note ON: Time 172080, Note Name: A#1, Velocity: 26
Note OFF: Time 172260, Note Name: A#1
Note OFF: Time 172260, Note Name: F2
Note ON: Time 172320, Note Name: F2, Velocity: 31
Note ON: Time 172320, Note Name: A#1, Velocity: 26
Note OFF: Time 172500, Note Name: A#1
Note OFF: Time 172500, Note Name: F2
Note ON: Time 172560, Note Name: F2, Velocity: 31
Note ON: Time 172560, Note Name: A#1, Velocity: 26
Note OFF: Time 172740, Note Name: A#1
Note OFF: Time 172740, Note Name: F2
Note ON: Time 172800, Note Name: A#1, Velocity: 26
Note ON: Time 172800, Note Name: F2, Velocity: 31
Note OFF: Time 172980, Note Name: F2
Note OFF: Time 172980, Note Name: A#1
Note ON: Time 173040, Note Name: A#1, Velocity: 26
Note ON: Time 173040, Note Name: F2, Velocity: 31
Note OFF: Time 173220, Note Name: F2
Note OFF: Time 173220, Note Name: A#1
Note ON: Time 173280, Note Name: A#1, Velocity: 26
Note ON: Time 173280, Note Name: F2, Velocity: 31
Note OFF: Time 173460, Note Name: F2
Note OFF: Time 173460, Note Name: A#1
Note ON: Time 173520, Note Name: A#1, Velocity: 26
Note ON: Time 173520, Note Name: F2, Velocity: 31
Note OFF: Time 173700, Note Name: F2
Note OFF: Time 173700, Note Name: A#1
Note ON: Time 173760, Note Name: A#1, Velocity: 26
Note ON: Time 173760, Note Name: F2, Velocity: 31
Note OFF: Time 173940, Note Name: F2
Note OFF: Time 173940, Note Name: A#1
Note ON: Time 174000, Note Name: A#1, Velocity: 25
Note ON: Time 174000, Note Name: F2, Velocity: 30
Note OFF: Time 174180, Note Name: F2
Note OFF: Time 174180, Note Name: A#1
Note ON: Time 174240, Note Name: A#1, Velocity: 25
Note ON: Time 174240, Note Name: G2, Velocity: 30
Note OFF: Time 174420, Note Name: G2
Note OFF: Time 174420, Note Name: A#1
Note ON: Time 174480, Note Name: A#1, Velocity: 25
Note ON: Time 174480, Note Name: G2, Velocity: 30
Note OFF: Time 174660, Note Name: G2
Note OFF: Time 174660, Note Name: A#1
Note ON: Time 174720, Note Name: A1, Velocity: 25
Note ON: Time 174720, Note Name: F2, Velocity: 30
Note OFF: Time 174900, Note Name: F2
Note OFF: Time 174900, Note Name: A1
Note ON: Time 174960, Note Name: A1, Velocity: 25
Note ON: Time 174960, Note Name: F2, Velocity: 30
Note OFF: Time 175140, Note Name: F2
Note OFF: Time 175140, Note Name: A1
Note ON: Time 175200, Note Name: A1, Velocity: 25
Note ON: Time 175200, Note Name: F2, Velocity: 30
Note OFF: Time 175380, Note Name: F2
Note OFF: Time 175380, Note Name: A1
Note ON: Time 175440, Note Name: A1, Velocity: 25
Note ON: Time 175440, Note Name: F2, Velocity: 30
Note OFF: Time 175620, Note Name: F2
Note OFF: Time 175620, Note Name: A1
Note ON: Time 175680, Note Name: A1, Velocity: 25
Note ON: Time 175680, Note Name: F2, Velocity: 30
Note OFF: Time 175860, Note Name: F2
Note OFF: Time 175860, Note Name: A1
Note ON: Time 175920, Note Name: A1, Velocity: 25
Note ON: Time 175920, Note Name: F2, Velocity: 30
Note OFF: Time 176100, Note Name: F2
Note OFF: Time 176100, Note Name: A1
Note ON: Time 176160, Note Name: A1, Velocity: 25
Note ON: Time 176160, Note Name: F2, Velocity: 30
Note OFF: Time 176340, Note Name: F2
Note OFF: Time 176340, Note Name: A1
Note ON: Time 176400, Note Name: A1, Velocity: 25
Note ON: Time 176400, Note Name: F2, Velocity: 30
Note OFF: Time 176580, Note Name: F2
Note OFF: Time 176580, Note Name: A1
Note ON: Time 176640, Note Name: G#1, Velocity: 25
Note ON: Time 176640, Note Name: F2, Velocity: 30
Note OFF: Time 176820, Note Name: F2
Note OFF: Time 176820, Note Name: G#1
Note ON: Time 176880, Note Name: G#1, Velocity: 25
Note ON: Time 176880, Note Name: F2, Velocity: 30
Note OFF: Time 177060, Note Name: F2
Note OFF: Time 177060, Note Name: G#1
Note ON: Time 177120, Note Name: G#1, Velocity: 25
Note ON: Time 177120, Note Name: F2, Velocity: 30
Note OFF: Time 177300, Note Name: F2
Note OFF: Time 177300, Note Name: G#1
Note ON: Time 177360, Note Name: G#1, Velocity: 25
Note ON: Time 177360, Note Name: F2, Velocity: 30
Note OFF: Time 177540, Note Name: F2
Note OFF: Time 177540, Note Name: G#1
Note ON: Time 177600, Note Name: G#1, Velocity: 25
Note ON: Time 177600, Note Name: F2, Velocity: 30
Note OFF: Time 177780, Note Name: F2
Note OFF: Time 177780, Note Name: G#1
Note ON: Time 177840, Note Name: G#1, Velocity: 25
Note ON: Time 177840, Note Name: F2, Velocity: 30
Note OFF: Time 178020, Note Name: F2
Note OFF: Time 178020, Note Name: G#1
Note ON: Time 178080, Note Name: G#1, Velocity: 25
Note ON: Time 178080, Note Name: F2, Velocity: 30
Note OFF: Time 178260, Note Name: F2
Note OFF: Time 178260, Note Name: G#1
Note ON: Time 178320, Note Name: G#1, Velocity: 25
Note ON: Time 178320, Note Name: F2, Velocity: 30
Note OFF: Time 178500, Note Name: F2
Note OFF: Time 178500, Note Name: G#1
Note ON: Time 178560, Note Name: G1, Velocity: 30
Note ON: Time 178560, Note Name: F2, Velocity: 36
Note OFF: Time 178740, Note Name: F2
Note OFF: Time 178740, Note Name: G1
Note ON: Time 178800, Note Name: G1, Velocity: 32
Note ON: Time 178800, Note Name: F2, Velocity: 38
Note OFF: Time 178980, Note Name: F2
Note OFF: Time 178980, Note Name: G1
Note ON: Time 179040, Note Name: G1, Velocity: 33
Note ON: Time 179040, Note Name: F2, Velocity: 39
Note OFF: Time 179220, Note Name: F2
Note OFF: Time 179220, Note Name: G1
Note ON: Time 179280, Note Name: G1, Velocity: 34
Note ON: Time 179280, Note Name: F2, Velocity: 41
Note OFF: Time 179460, Note Name: F2
Note OFF: Time 179460, Note Name: G1
Note ON: Time 179520, Note Name: G1, Velocity: 36
Note ON: Time 179520, Note Name: F2, Velocity: 43
Note OFF: Time 179700, Note Name: F2
Note OFF: Time 179700, Note Name: G1
Note ON: Time 179760, Note Name: G1, Velocity: 38
Note ON: Time 179760, Note Name: F2, Velocity: 45
Note OFF: Time 179940, Note Name: F2
Note OFF: Time 179940, Note Name: G1
Note ON: Time 180000, Note Name: G#1, Velocity: 39
Note ON: Time 180000, Note Name: F2, Velocity: 46
Note OFF: Time 180180, Note Name: F2
Note OFF: Time 180180, Note Name: G#1
Note ON: Time 180240, Note Name: G#1, Velocity: 40
Note ON: Time 180240, Note Name: F2, Velocity: 48
Note OFF: Time 180420, Note Name: F2
Note OFF: Time 180420, Note Name: G#1
Note ON: Time 180480, Note Name: G1, Velocity: 44
Note ON: Time 180480, Note Name: F2, Velocity: 52
Note OFF: Time 180660, Note Name: F2
Note OFF: Time 180660, Note Name: G1
Note ON: Time 180720, Note Name: G1, Velocity: 44
Note ON: Time 180720, Note Name: F2, Velocity: 52
Note OFF: Time 180900, Note Name: F2
Note OFF: Time 180900, Note Name: G1
Note ON: Time 180960, Note Name: G#1, Velocity: 45
Note ON: Time 180960, Note Name: F2, Velocity: 55
Note OFF: Time 181140, Note Name: F2
Note OFF: Time 181140, Note Name: G#1
Note ON: Time 181200, Note Name: G#1, Velocity: 46
Note ON: Time 181200, Note Name: F2, Velocity: 55
Note OFF: Time 181380, Note Name: F2
Note OFF: Time 181380, Note Name: G#1
Note ON: Time 181440, Note Name: G1, Velocity: 48
Note ON: Time 181440, Note Name: F2, Velocity: 58
Note OFF: Time 181620, Note Name: F2
Note OFF: Time 181620, Note Name: G1
Note ON: Time 181680, Note Name: G1, Velocity: 51
Note ON: Time 181680, Note Name: F2, Velocity: 60
Note OFF: Time 181860, Note Name: F2
Note OFF: Time 181860, Note Name: G1
Note ON: Time 181920, Note Name: G#1, Velocity: 54
Note ON: Time 181920, Note Name: F2, Velocity: 64
Note OFF: Time 182100, Note Name: F2
Note OFF: Time 182100, Note Name: G#1
Note ON: Time 182160, Note Name: G#1, Velocity: 56
Note ON: Time 182160, Note Name: F2, Velocity: 66
Note OFF: Time 182340, Note Name: F2
Note OFF: Time 182340, Note Name: G#1
Note ON: Time 182400, Note Name: G1, Velocity: 70
Note ON: Time 182400, Note Name: F2, Velocity: 85
Note OFF: Time 182880, Note Name: F2
Note OFF: Time 182880, Note Name: G1
Note ON: Time 182880, Note Name: G2, Velocity: 81
Note ON: Time 182880, Note Name: G3, Velocity: 96
Note OFF: Time 184080, Note Name: G3
Note OFF: Time 184080, Note Name: G2
Note ON: Time 184080, Note Name: A3, Velocity: 67
Note OFF: Time 184200, Note Name: A3
Note ON: Time 184200, Note Name: B3, Velocity: 70
Note OFF: Time 184320, Note Name: B3
Note ON: Time 184320, Note Name: C4, Velocity: 72
Note OFF: Time 184500, Note Name: C4
Note ON: Time 184800, Note Name: G2, Velocity: 56
Note ON: Time 184800, Note Name: G3, Velocity: 66
Note OFF: Time 184980, Note Name: G3
Note OFF: Time 184980, Note Name: G2
Note ON: Time 185280, Note Name: D#2, Velocity: 52
Note ON: Time 185280, Note Name: D#3, Velocity: 62
Note OFF: Time 185460, Note Name: D#3
Note OFF: Time 185460, Note Name: D#2
Note ON: Time 185760, Note Name: C2, Velocity: 48
Note ON: Time 185760, Note Name: C3, Velocity: 57
Note OFF: Time 185940, Note Name: C3
Note OFF: Time 185940, Note Name: C2
Note ON: Time 186240, Note Name: G1, Velocity: 46
Note ON: Time 186240, Note Name: G2, Velocity: 54
Note OFF: Time 188160, Note Name: G2
Note OFF: Time 188160, Note Name: G1
Note ON: Time 188160, Note Name: C2, Velocity: 30
Note ON: Time 188160, Note Name: C3, Velocity: 30
Note OFF: Time 188400, Note Name: C3
Note ON: Time 188400, Note Name: C3, Velocity: 31
Note OFF: Time 188519, Note Name: C3
Note ON: Time 188520, Note Name: G3, Velocity: 26
Note OFF: Time 188640, Note Name: G3
Note ON: Time 188640, Note Name: C3, Velocity: 31
Note OFF: Time 188759, Note Name: C3
Note ON: Time 188760, Note Name: G3, Velocity: 27
Note OFF: Time 188880, Note Name: G3
Note ON: Time 188880, Note Name: C3, Velocity: 31
Note OFF: Time 188999, Note Name: C3
Note ON: Time 189000, Note Name: G3, Velocity: 27
Note OFF: Time 189120, Note Name: G3
Note ON: Time 189120, Note Name: C3, Velocity: 31
Note OFF: Time 189239, Note Name: C3
Note ON: Time 189240, Note Name: G3, Velocity: 26
Note OFF: Time 189360, Note Name: G3
Note ON: Time 189360, Note Name: C3, Velocity: 31
Note OFF: Time 189479, Note Name: C3
Note ON: Time 189480, Note Name: G3, Velocity: 27
Note OFF: Time 189600, Note Name: G3
Note ON: Time 189600, Note Name: C3, Velocity: 31
Note OFF: Time 189719, Note Name: C3
Note ON: Time 189720, Note Name: G3, Velocity: 27
Note OFF: Time 189840, Note Name: G3
Note ON: Time 189840, Note Name: C3, Velocity: 31
Note OFF: Time 189959, Note Name: C3
Note ON: Time 189960, Note Name: G3, Velocity: 25
Note OFF: Time 190080, Note Name: G3
Note OFF: Time 190080, Note Name: C2
Note ON: Time 190080, Note Name: C3, Velocity: 31
Note OFF: Time 190199, Note Name: C3
Note ON: Time 190200, Note Name: G3, Velocity: 26
Note OFF: Time 190320, Note Name: G3
Note ON: Time 190320, Note Name: C3, Velocity: 31
Note OFF: Time 190439, Note Name: C3
Note ON: Time 190440, Note Name: G3, Velocity: 26
Note OFF: Time 190560, Note Name: G3
Note ON: Time 190560, Note Name: C3, Velocity: 31
Note OFF: Time 190679, Note Name: C3
Note ON: Time 190680, Note Name: G3, Velocity: 27
Note OFF: Time 190800, Note Name: G3
Note ON: Time 190800, Note Name: C3, Velocity: 31
Note OFF: Time 190919, Note Name: C3
Note ON: Time 190920, Note Name: G3, Velocity: 27
Note OFF: Time 191040, Note Name: G3
Note ON: Time 191040, Note Name: C3, Velocity: 31
Note OFF: Time 191159, Note Name: C3
Note ON: Time 191160, Note Name: G3, Velocity: 26
Note OFF: Time 191280, Note Name: G3
Note ON: Time 191280, Note Name: C3, Velocity: 31
Note OFF: Time 191399, Note Name: C3
Note ON: Time 191400, Note Name: G3, Velocity: 27
Note OFF: Time 191520, Note Name: G3
Note ON: Time 191520, Note Name: C3, Velocity: 31
Note OFF: Time 191639, Note Name: C3
Note ON: Time 191640, Note Name: A3, Velocity: 27
Note OFF: Time 191760, Note Name: A3
Note ON: Time 191760, Note Name: C3, Velocity: 31
Note OFF: Time 191879, Note Name: C3
Note ON: Time 191880, Note Name: A3, Velocity: 25
Note OFF: Time 192000, Note Name: A3
Note ON: Time 192000, Note Name: B2, Velocity: 26
Note ON: Time 192000, Note Name: D3, Velocity: 31
Note ON: Time 192120, Note Name: G3, Velocity: 25
Note OFF: Time 192180, Note Name: D3
Note OFF: Time 192180, Note Name: B2
Note OFF: Time 192240, Note Name: G3
Note ON: Time 192240, Note Name: B2, Velocity: 26
Note ON: Time 192240, Note Name: D3, Velocity: 31
Note ON: Time 192360, Note Name: G3, Velocity: 25
Note OFF: Time 192420, Note Name: D3
Note OFF: Time 192420, Note Name: B2
Note OFF: Time 192480, Note Name: G3
Note ON: Time 192480, Note Name: B2, Velocity: 26
Note ON: Time 192480, Note Name: D3, Velocity: 31
Note ON: Time 192600, Note Name: G3, Velocity: 25
Note OFF: Time 192660, Note Name: D3
Note OFF: Time 192660, Note Name: B2
Note OFF: Time 192720, Note Name: G3
Note ON: Time 192720, Note Name: B2, Velocity: 26
Note ON: Time 192720, Note Name: D3, Velocity: 31
Note ON: Time 192840, Note Name: G3, Velocity: 25
Note OFF: Time 192900, Note Name: D3
Note OFF: Time 192900, Note Name: B2
Note OFF: Time 192960, Note Name: G3
Note ON: Time 192960, Note Name: B2, Velocity: 26
Note ON: Time 192960, Note Name: D3, Velocity: 31
Note ON: Time 193080, Note Name: G3, Velocity: 25
Note OFF: Time 193140, Note Name: D3
Note OFF: Time 193140, Note Name: B2
Note OFF: Time 193200, Note Name: G3
Note ON: Time 193200, Note Name: B2, Velocity: 26
Note ON: Time 193200, Note Name: D3, Velocity: 31
Note ON: Time 193320, Note Name: G3, Velocity: 25
Note OFF: Time 193380, Note Name: D3
Note OFF: Time 193380, Note Name: B2
Note OFF: Time 193440, Note Name: G3
Note ON: Time 193440, Note Name: B2, Velocity: 26
Note ON: Time 193440, Note Name: D3, Velocity: 31
Note ON: Time 193560, Note Name: G3, Velocity: 25
Note OFF: Time 193620, Note Name: D3
Note OFF: Time 193620, Note Name: B2
Note OFF: Time 193680, Note Name: G3
Note ON: Time 193680, Note Name: B2, Velocity: 26
Note ON: Time 193680, Note Name: D3, Velocity: 31
Note ON: Time 193800, Note Name: G3, Velocity: 25
Note OFF: Time 193860, Note Name: D3
Note OFF: Time 193860, Note Name: B2
Note OFF: Time 193920, Note Name: G3
Note ON: Time 193920, Note Name: B2, Velocity: 26
Note ON: Time 193920, Note Name: D3, Velocity: 31
Note ON: Time 194040, Note Name: G3, Velocity: 25
Note OFF: Time 194100, Note Name: D3
Note OFF: Time 194100, Note Name: B2
Note OFF: Time 194160, Note Name: G3
Note ON: Time 194160, Note Name: B2, Velocity: 26
Note ON: Time 194160, Note Name: D3, Velocity: 31
Note ON: Time 194280, Note Name: G3, Velocity: 25
Note OFF: Time 194340, Note Name: D3
Note OFF: Time 194340, Note Name: B2
Note OFF: Time 194400, Note Name: G3
Note ON: Time 194400, Note Name: B2, Velocity: 26
Note ON: Time 194400, Note Name: D3, Velocity: 31
Note ON: Time 194520, Note Name: G3, Velocity: 25
Note OFF: Time 194580, Note Name: D3
Note OFF: Time 194580, Note Name: B2
Note OFF: Time 194640, Note Name: G3
Note ON: Time 194640, Note Name: B2, Velocity: 26
Note ON: Time 194640, Note Name: D3, Velocity: 31
Note ON: Time 194760, Note Name: G3, Velocity: 25
Note OFF: Time 194820, Note Name: D3
Note OFF: Time 194820, Note Name: B2
Note OFF: Time 194880, Note Name: G3
Note ON: Time 194880, Note Name: B2, Velocity: 26
Note ON: Time 194880, Note Name: D3, Velocity: 31
Note ON: Time 195000, Note Name: G3, Velocity: 25
Note OFF: Time 195060, Note Name: D3
Note OFF: Time 195060, Note Name: B2
Note OFF: Time 195120, Note Name: G3
Note ON: Time 195120, Note Name: B2, Velocity: 26
Note ON: Time 195120, Note Name: D3, Velocity: 31
Note ON: Time 195240, Note Name: G3, Velocity: 25
Note OFF: Time 195300, Note Name: D3
Note OFF: Time 195300, Note Name: B2
Note OFF: Time 195360, Note Name: G3
Note ON: Time 195360, Note Name: B2, Velocity: 26
Note ON: Time 195360, Note Name: D3, Velocity: 31
Note ON: Time 195480, Note Name: G3, Velocity: 25
Note OFF: Time 195540, Note Name: D3
Note OFF: Time 195540, Note Name: B2
Note OFF: Time 195600, Note Name: G3
Note ON: Time 195600, Note Name: B2, Velocity: 26
Note ON: Time 195600, Note Name: D3, Velocity: 31
Note ON: Time 195720, Note Name: G3, Velocity: 25
Note OFF: Time 195780, Note Name: D3
Note OFF: Time 195780, Note Name: B2
Note OFF: Time 195840, Note Name: G3
Note ON: Time 195840, Note Name: D2, Velocity: 33
Note ON: Time 195840, Note Name: D3, Velocity: 33
Note OFF: Time 196080, Note Name: D3
Note ON: Time 196080, Note Name: D3, Velocity: 34
Note OFF: Time 196199, Note Name: D3
Note ON: Time 196200, Note Name: A3, Velocity: 28
Note OFF: Time 196320, Note Name: A3
Note ON: Time 196320, Note Name: D3, Velocity: 34
Note OFF: Time 196439, Note Name: D3
Note ON: Time 196440, Note Name: A3, Velocity: 29
Note OFF: Time 196560, Note Name: A3
Note ON: Time 196560, Note Name: D3, Velocity: 34
Note OFF: Time 196679, Note Name: D3
Note ON: Time 196680, Note Name: A3, Velocity: 29
Note OFF: Time 196800, Note Name: A3
Note ON: Time 196800, Note Name: D3, Velocity: 34
Note OFF: Time 196919, Note Name: D3
Note ON: Time 196920, Note Name: A3, Velocity: 28
Note OFF: Time 197040, Note Name: A3
Note ON: Time 197040, Note Name: D3, Velocity: 34
Note OFF: Time 197159, Note Name: D3
Note ON: Time 197160, Note Name: A3, Velocity: 29
Note OFF: Time 197280, Note Name: A3
Note ON: Time 197280, Note Name: D3, Velocity: 34
Note OFF: Time 197399, Note Name: D3
Note ON: Time 197400, Note Name: A3, Velocity: 30
Note OFF: Time 197520, Note Name: A3
Note ON: Time 197520, Note Name: D3, Velocity: 35
Note OFF: Time 197639, Note Name: D3
Note ON: Time 197640, Note Name: A3, Velocity: 28
Note OFF: Time 197760, Note Name: A3
Note OFF: Time 197760, Note Name: D2
Note ON: Time 197760, Note Name: D3, Velocity: 35
Note OFF: Time 197879, Note Name: D3
Note ON: Time 197880, Note Name: A3, Velocity: 29
Note OFF: Time 198000, Note Name: A3
Note ON: Time 198000, Note Name: D3, Velocity: 35
Note OFF: Time 198119, Note Name: D3
Note ON: Time 198120, Note Name: A3, Velocity: 29
Note OFF: Time 198240, Note Name: A3
Note ON: Time 198240, Note Name: D3, Velocity: 35
Note OFF: Time 198359, Note Name: D3
Note ON: Time 198360, Note Name: A3, Velocity: 30
Note OFF: Time 198480, Note Name: A3
Note ON: Time 198480, Note Name: D3, Velocity: 35
Note OFF: Time 198599, Note Name: D3
Note ON: Time 198600, Note Name: A3, Velocity: 30
Note OFF: Time 198720, Note Name: A3
Note ON: Time 198720, Note Name: D3, Velocity: 36
Note OFF: Time 198839, Note Name: D3
Note ON: Time 198840, Note Name: A3, Velocity: 29
Note OFF: Time 198960, Note Name: A3
Note ON: Time 198960, Note Name: D3, Velocity: 36
Note OFF: Time 199079, Note Name: D3
Note ON: Time 199080, Note Name: A3, Velocity: 31
Note OFF: Time 199200, Note Name: A3
Note ON: Time 199200, Note Name: D3, Velocity: 36
Note OFF: Time 199319, Note Name: D3
Note ON: Time 199320, Note Name: B3, Velocity: 31
Note OFF: Time 199440, Note Name: B3
Note ON: Time 199440, Note Name: D3, Velocity: 36
Note OFF: Time 199559, Note Name: D3
Note ON: Time 199560, Note Name: B3, Velocity: 29
Note OFF: Time 199680, Note Name: B3
Note ON: Time 199680, Note Name: C3, Velocity: 30
Note ON: Time 199680, Note Name: E3, Velocity: 37
Note ON: Time 199800, Note Name: A3, Velocity: 29
Note OFF: Time 199860, Note Name: E3
Note OFF: Time 199860, Note Name: C3
Note OFF: Time 199920, Note Name: A3
Note ON: Time 199920, Note Name: C3, Velocity: 30
Note ON: Time 199920, Note Name: E3, Velocity: 37
Note ON: Time 200040, Note Name: A3, Velocity: 29
Note OFF: Time 200100, Note Name: E3
Note OFF: Time 200100, Note Name: C3
Note OFF: Time 200160, Note Name: A3
Note ON: Time 200160, Note Name: C3, Velocity: 30
Note ON: Time 200160, Note Name: E3, Velocity: 37
Note ON: Time 200280, Note Name: A3, Velocity: 29
Note OFF: Time 200340, Note Name: E3
Note OFF: Time 200340, Note Name: C3
Note OFF: Time 200400, Note Name: A3
Note ON: Time 200400, Note Name: C3, Velocity: 30
Note ON: Time 200400, Note Name: E3, Velocity: 37
Note ON: Time 200520, Note Name: A3, Velocity: 29
Note OFF: Time 200580, Note Name: E3
Note OFF: Time 200580, Note Name: C3
Note OFF: Time 200640, Note Name: A3
Note ON: Time 200640, Note Name: C3, Velocity: 30
Note ON: Time 200640, Note Name: E3, Velocity: 37
Note ON: Time 200760, Note Name: A3, Velocity: 29
Note OFF: Time 200820, Note Name: E3
Note OFF: Time 200820, Note Name: C3
Note OFF: Time 200880, Note Name: A3
Note ON: Time 200880, Note Name: C3, Velocity: 30
Note ON: Time 200880, Note Name: E3, Velocity: 37
Note ON: Time 201000, Note Name: A3, Velocity: 29
Note OFF: Time 201060, Note Name: E3
Note OFF: Time 201060, Note Name: C3
Note OFF: Time 201120, Note Name: A3
Note ON: Time 201120, Note Name: C3, Velocity: 30
Note ON: Time 201120, Note Name: E3, Velocity: 37
Note ON: Time 201240, Note Name: A3, Velocity: 29
Note OFF: Time 201300, Note Name: E3
Note OFF: Time 201300, Note Name: C3
Note OFF: Time 201360, Note Name: A3
Note ON: Time 201360, Note Name: C3, Velocity: 30
Note ON: Time 201360, Note Name: E3, Velocity: 37
Note ON: Time 201480, Note Name: A3, Velocity: 29
Note OFF: Time 201540, Note Name: E3
Note OFF: Time 201540, Note Name: C3
Note OFF: Time 201600, Note Name: A3
Note ON: Time 201600, Note Name: C3, Velocity: 30
Note ON: Time 201600, Note Name: E3, Velocity: 37
Note ON: Time 201720, Note Name: A3, Velocity: 29
Note OFF: Time 201780, Note Name: E3
Note OFF: Time 201780, Note Name: C3
Note OFF: Time 201840, Note Name: A3
Note ON: Time 201840, Note Name: C3, Velocity: 30
Note ON: Time 201840, Note Name: E3, Velocity: 37
Note ON: Time 201960, Note Name: A3, Velocity: 29
Note OFF: Time 202020, Note Name: E3
Note OFF: Time 202020, Note Name: C3
Note OFF: Time 202080, Note Name: A3
Note ON: Time 202080, Note Name: C3, Velocity: 30
Note ON: Time 202080, Note Name: E3, Velocity: 37
Note ON: Time 202200, Note Name: A3, Velocity: 29
Note OFF: Time 202260, Note Name: E3
Note OFF: Time 202260, Note Name: C3
Note OFF: Time 202320, Note Name: A3
Note ON: Time 202320, Note Name: C3, Velocity: 30
Note ON: Time 202320, Note Name: E3, Velocity: 39
Note ON: Time 202440, Note Name: A3, Velocity: 31
Note OFF: Time 202500, Note Name: E3
Note OFF: Time 202500, Note Name: C3
Note OFF: Time 202560, Note Name: A3
Note ON: Time 202560, Note Name: C3, Velocity: 32
Note ON: Time 202560, Note Name: E3, Velocity: 39
Note ON: Time 202680, Note Name: A3, Velocity: 31
Note OFF: Time 202740, Note Name: E3
Note OFF: Time 202740, Note Name: C3
Note OFF: Time 202800, Note Name: A3
Note ON: Time 202800, Note Name: C3, Velocity: 32
Note ON: Time 202800, Note Name: E3, Velocity: 41
Note ON: Time 202920, Note Name: A3, Velocity: 31
Note OFF: Time 202980, Note Name: E3
Note OFF: Time 202980, Note Name: C3
Note OFF: Time 203040, Note Name: A3
Note ON: Time 203040, Note Name: C3, Velocity: 33
Note ON: Time 203040, Note Name: E3, Velocity: 41
Note ON: Time 203160, Note Name: A3, Velocity: 33
Note OFF: Time 203220, Note Name: E3
Note OFF: Time 203220, Note Name: C3
Note OFF: Time 203280, Note Name: A3
Note ON: Time 203280, Note Name: C3, Velocity: 35
Note ON: Time 203280, Note Name: E3, Velocity: 42
Note ON: Time 203400, Note Name: A3, Velocity: 33
Note OFF: Time 203460, Note Name: E3
Note OFF: Time 203460, Note Name: C3
Note OFF: Time 203520, Note Name: A3
Note ON: Time 203520, Note Name: C3, Velocity: 37
Note ON: Time 203520, Note Name: E3, Velocity: 45
Note ON: Time 203640, Note Name: A#3, Velocity: 36
Note OFF: Time 203700, Note Name: E3
Note OFF: Time 203700, Note Name: C3
Note OFF: Time 203760, Note Name: A#3
Note ON: Time 203760, Note Name: C3, Velocity: 38
Note ON: Time 203760, Note Name: E3, Velocity: 45
Note ON: Time 203880, Note Name: A#3, Velocity: 37
Note OFF: Time 203940, Note Name: E3
Note OFF: Time 203940, Note Name: C3
Note OFF: Time 204000, Note Name: A#3
Note ON: Time 204000, Note Name: C3, Velocity: 39
Note ON: Time 204000, Note Name: E3, Velocity: 47
Note ON: Time 204120, Note Name: A#3, Velocity: 38
Note OFF: Time 204180, Note Name: E3
Note OFF: Time 204180, Note Name: C3
Note OFF: Time 204240, Note Name: A#3
Note ON: Time 204240, Note Name: C3, Velocity: 39
Note ON: Time 204240, Note Name: E3, Velocity: 47
Note ON: Time 204360, Note Name: A#3, Velocity: 38
Note OFF: Time 204420, Note Name: E3
Note OFF: Time 204420, Note Name: C3
Note OFF: Time 204480, Note Name: A#3
Note ON: Time 204480, Note Name: C3, Velocity: 41
Note ON: Time 204480, Note Name: E3, Velocity: 50
Note ON: Time 204600, Note Name: A#3, Velocity: 40
Note OFF: Time 204660, Note Name: E3
Note OFF: Time 204660, Note Name: C3
Note OFF: Time 204720, Note Name: A#3
Note ON: Time 204720, Note Name: C3, Velocity: 41
Note ON: Time 204720, Note Name: E3, Velocity: 51
Note ON: Time 204840, Note Name: A#3, Velocity: 40
Note OFF: Time 204900, Note Name: E3
Note OFF: Time 204900, Note Name: C3
Note OFF: Time 204960, Note Name: A#3
Note ON: Time 204960, Note Name: C3, Velocity: 42
Note ON: Time 204960, Note Name: E3, Velocity: 51
Note ON: Time 205080, Note Name: A#3, Velocity: 42
Note OFF: Time 205140, Note Name: E3
Note OFF: Time 205140, Note Name: C3
Note OFF: Time 205200, Note Name: A#3
Note ON: Time 205200, Note Name: C3, Velocity: 43
Note ON: Time 205200, Note Name: E3, Velocity: 53
Note ON: Time 205320, Note Name: A#3, Velocity: 42
Note OFF: Time 205380, Note Name: E3
Note OFF: Time 205380, Note Name: C3
Note OFF: Time 205440, Note Name: A#3
Note ON: Time 205440, Note Name: B2, Velocity: 40
Note ON: Time 205560, Note Name: D#3, Velocity: 35
Note OFF: Time 205580, Note Name: B2
Note ON: Time 205680, Note Name: F#3, Velocity: 35
Note OFF: Time 205700, Note Name: D#3
Note ON: Time 205800, Note Name: B3, Velocity: 35
Note OFF: Time 205820, Note Name: F#3
Note OFF: Time 205920, Note Name: B3
Note ON: Time 205920, Note Name: B2, Velocity: 41
Note ON: Time 206040, Note Name: D#3, Velocity: 35
Note OFF: Time 206060, Note Name: B2
Note ON: Time 206160, Note Name: F#3, Velocity: 35
Note OFF: Time 206180, Note Name: D#3
Note ON: Time 206280, Note Name: B3, Velocity: 35
Note OFF: Time 206300, Note Name: F#3
Note OFF: Time 206400, Note Name: B3
Note ON: Time 206400, Note Name: B2, Velocity: 39
Note ON: Time 206520, Note Name: E3, Velocity: 35
Note OFF: Time 206540, Note Name: B2
Note ON: Time 206640, Note Name: G3, Velocity: 35
Note OFF: Time 206660, Note Name: E3
Note ON: Time 206760, Note Name: B3, Velocity: 35
Note OFF: Time 206780, Note Name: G3
Note OFF: Time 206880, Note Name: B3
Note ON: Time 206880, Note Name: B2, Velocity: 40
Note ON: Time 207000, Note Name: E3, Velocity: 35
Note OFF: Time 207020, Note Name: B2
Note ON: Time 207120, Note Name: G3, Velocity: 35
Note OFF: Time 207140, Note Name: E3
Note ON: Time 207240, Note Name: B3, Velocity: 35
Note OFF: Time 207260, Note Name: G3
Note OFF: Time 207360, Note Name: B3
Note ON: Time 207360, Note Name: B2, Velocity: 40
Note ON: Time 207480, Note Name: F#3, Velocity: 35
Note OFF: Time 207500, Note Name: B2
Note ON: Time 207600, Note Name: A3, Velocity: 35
Note OFF: Time 207620, Note Name: F#3
Note ON: Time 207720, Note Name: B3, Velocity: 35
Note OFF: Time 207740, Note Name: A3
Note OFF: Time 207840, Note Name: B3
Note ON: Time 207840, Note Name: B2, Velocity: 40
Note ON: Time 207960, Note Name: F#3, Velocity: 35
Note OFF: Time 207980, Note Name: B2
Note ON: Time 208080, Note Name: A3, Velocity: 35
Note OFF: Time 208100, Note Name: F#3
Note ON: Time 208200, Note Name: B3, Velocity: 35
Note OFF: Time 208220, Note Name: A3
Note OFF: Time 208320, Note Name: B3
Note ON: Time 208320, Note Name: B2, Velocity: 40
Note ON: Time 208440, Note Name: E3, Velocity: 35
Note OFF: Time 208460, Note Name: B2
Note ON: Time 208560, Note Name: G3, Velocity: 35
Note OFF: Time 208580, Note Name: E3
Note ON: Time 208680, Note Name: B3, Velocity: 35
Note OFF: Time 208700, Note Name: G3
Note OFF: Time 208800, Note Name: B3
Note ON: Time 208800, Note Name: B2, Velocity: 40
Note ON: Time 208920, Note Name: E3, Velocity: 35
Note OFF: Time 208940, Note Name: B2
Note ON: Time 209040, Note Name: G3, Velocity: 35
Note OFF: Time 209060, Note Name: E3
Note ON: Time 209160, Note Name: B3, Velocity: 35
Note OFF: Time 209180, Note Name: G3
Note OFF: Time 209280, Note Name: B3
Note ON: Time 209280, Note Name: B2, Velocity: 40
Note ON: Time 209400, Note Name: D#3, Velocity: 35
Note OFF: Time 209420, Note Name: B2
Note ON: Time 209520, Note Name: F#3, Velocity: 35
Note OFF: Time 209540, Note Name: D#3
Note ON: Time 209640, Note Name: B3, Velocity: 35
Note OFF: Time 209660, Note Name: F#3
Note OFF: Time 209760, Note Name: B3
Note ON: Time 209760, Note Name: B2, Velocity: 40
Note ON: Time 209880, Note Name: D#3, Velocity: 35
Note OFF: Time 209900, Note Name: B2
Note ON: Time 210000, Note Name: F#3, Velocity: 35
Note OFF: Time 210020, Note Name: D#3
Note ON: Time 210120, Note Name: B3, Velocity: 35
Note OFF: Time 210140, Note Name: F#3
Note OFF: Time 210240, Note Name: B3
Note ON: Time 210240, Note Name: B2, Velocity: 40
Note ON: Time 210360, Note Name: E3, Velocity: 35
Note OFF: Time 210380, Note Name: B2
Note ON: Time 210480, Note Name: G3, Velocity: 35
Note OFF: Time 210500, Note Name: E3
Note ON: Time 210600, Note Name: B3, Velocity: 35
Note OFF: Time 210620, Note Name: G3
Note OFF: Time 210720, Note Name: B3
Note ON: Time 210720, Note Name: B2, Velocity: 41
Note ON: Time 210840, Note Name: E3, Velocity: 35
Note OFF: Time 210860, Note Name: B2
Note ON: Time 210960, Note Name: G3, Velocity: 35
Note OFF: Time 210980, Note Name: E3
Note ON: Time 211080, Note Name: B3, Velocity: 35
Note OFF: Time 211100, Note Name: G3
Note OFF: Time 211200, Note Name: B3
Note ON: Time 211200, Note Name: B2, Velocity: 40
Note ON: Time 211320, Note Name: F#3, Velocity: 35
Note OFF: Time 211340, Note Name: B2
Note ON: Time 211440, Note Name: A3, Velocity: 35
Note OFF: Time 211460, Note Name: F#3
Note ON: Time 211560, Note Name: B3, Velocity: 35
Note OFF: Time 211580, Note Name: A3
Note OFF: Time 211680, Note Name: B3
Note ON: Time 211680, Note Name: B2, Velocity: 40
Note ON: Time 211800, Note Name: F#3, Velocity: 36
Note OFF: Time 211820, Note Name: B2
Note ON: Time 211920, Note Name: A3, Velocity: 36
Note OFF: Time 211940, Note Name: F#3
Note ON: Time 212040, Note Name: B3, Velocity: 36
Note OFF: Time 212060, Note Name: A3
Note OFF: Time 212160, Note Name: B3
Note ON: Time 212160, Note Name: B2, Velocity: 42
Note ON: Time 212280, Note Name: E3, Velocity: 36
Note OFF: Time 212300, Note Name: B2
Note ON: Time 212400, Note Name: G3, Velocity: 37
Note OFF: Time 212420, Note Name: E3
Note ON: Time 212520, Note Name: B3, Velocity: 37
Note OFF: Time 212540, Note Name: G3
Note OFF: Time 212640, Note Name: B3
Note ON: Time 212640, Note Name: B2, Velocity: 42
Note ON: Time 212760, Note Name: E3, Velocity: 37
Note OFF: Time 212780, Note Name: B2
Note ON: Time 212880, Note Name: G3, Velocity: 37
Note OFF: Time 212900, Note Name: E3
Note ON: Time 213000, Note Name: B3, Velocity: 38
Note OFF: Time 213020, Note Name: G3
Note OFF: Time 213120, Note Name: B3
Note ON: Time 213120, Note Name: B2, Velocity: 44
Note OFF: Time 213240, Note Name: B2
Note ON: Time 213240, Note Name: D#3, Velocity: 38
Note OFF: Time 213360, Note Name: D#3
Note ON: Time 213360, Note Name: F3, Velocity: 38
Note OFF: Time 213480, Note Name: F3
Note ON: Time 213480, Note Name: B3, Velocity: 38
Note OFF: Time 213600, Note Name: B3
Note ON: Time 213600, Note Name: A#3, Velocity: 50
Note OFF: Time 213720, Note Name: A#3
Note ON: Time 213720, Note Name: B3, Velocity: 41
Note OFF: Time 213840, Note Name: B3
Note ON: Time 213840, Note Name: G3, Velocity: 40
Note OFF: Time 213960, Note Name: G3
Note ON: Time 213960, Note Name: E3, Velocity: 41
Note OFF: Time 214080, Note Name: E3
Note ON: Time 214080, Note Name: B2, Velocity: 52
Note OFF: Time 214200, Note Name: B2
Note ON: Time 214200, Note Name: D#3, Velocity: 44
Note OFF: Time 214320, Note Name: D#3
Note ON: Time 214320, Note Name: F#3, Velocity: 45
Note OFF: Time 214440, Note Name: F#3
Note ON: Time 214440, Note Name: B3, Velocity: 45
Note OFF: Time 214560, Note Name: B3
Note ON: Time 214560, Note Name: A#3, Velocity: 60
Note OFF: Time 214680, Note Name: A#3
Note ON: Time 214680, Note Name: B3, Velocity: 51
Note OFF: Time 214800, Note Name: B3
Note ON: Time 214800, Note Name: G3, Velocity: 51
Note OFF: Time 214920, Note Name: G3
Note ON: Time 214920, Note Name: E3, Velocity: 52
Note OFF: Time 215040, Note Name: E3
Note ON: Time 215040, Note Name: B2, Velocity: 63
Note OFF: Time 215160, Note Name: B2
Note ON: Time 215160, Note Name: D#3, Velocity: 52
Note OFF: Time 215280, Note Name: D#3
Note ON: Time 215280, Note Name: F#3, Velocity: 52
Note OFF: Time 215400, Note Name: F#3
Note ON: Time 215400, Note Name: B3, Velocity: 52
Note OFF: Time 215520, Note Name: B3
Note ON: Time 215520, Note Name: B2, Velocity: 63
Note OFF: Time 215640, Note Name: B2
Note ON: Time 215640, Note Name: E3, Velocity: 52
Note OFF: Time 215760, Note Name: E3
Note ON: Time 215760, Note Name: G3, Velocity: 52
Note OFF: Time 215880, Note Name: G3
Note ON: Time 215880, Note Name: B3, Velocity: 52
Note OFF: Time 216000, Note Name: B3
Note ON: Time 216000, Note Name: B2, Velocity: 63
Note OFF: Time 216120, Note Name: B2
Note ON: Time 216120, Note Name: D#3, Velocity: 52
Note OFF: Time 216240, Note Name: D#3
Note ON: Time 216240, Note Name: F#3, Velocity: 52
Note OFF: Time 216360, Note Name: F#3
Note ON: Time 216360, Note Name: B3, Velocity: 52
Note OFF: Time 216480, Note Name: B3
Note ON: Time 216480, Note Name: B2, Velocity: 63
Note OFF: Time 216600, Note Name: B2
Note ON: Time 216600, Note Name: E3, Velocity: 52
Note OFF: Time 216720, Note Name: E3
Note ON: Time 216720, Note Name: G3, Velocity: 52
Note OFF: Time 216840, Note Name: G3
Note ON: Time 216840, Note Name: B3, Velocity: 52
Note OFF: Time 216960, Note Name: B3
Note ON: Time 216960, Note Name: B2, Velocity: 54
Note ON: Time 216960, Note Name: D#3, Velocity: 54
Note ON: Time 216960, Note Name: F#3, Velocity: 54
Note ON: Time 216960, Note Name: B3, Velocity: 63
Note OFF: Time 217440, Note Name: B3
Note OFF: Time 217440, Note Name: B2
Note OFF: Time 217440, Note Name: D#3
Note OFF: Time 217440, Note Name: F#3
Note ON: Time 220320, Note Name: B1, Velocity: 85
Note OFF: Time 220440, Note Name: B1
Note ON: Time 220440, Note Name: D#2, Velocity: 76
Note OFF: Time 220560, Note Name: D#2
Note ON: Time 220560, Note Name: F#2, Velocity: 76
Note OFF: Time 220680, Note Name: F#2
Note ON: Time 220680, Note Name: B2, Velocity: 75
Note OFF: Time 220800, Note Name: B2
Note ON: Time 220800, Note Name: B1, Velocity: 77
Note OFF: Time 220920, Note Name: B1
Note ON: Time 221040, Note Name: B2, Velocity: 68
Note OFF: Time 221160, Note Name: B2
Note ON: Time 221280, Note Name: C#2, Velocity: 73
Note OFF: Time 221400, Note Name: C#2
Note ON: Time 221520, Note Name: C#3, Velocity: 66
Note OFF: Time 221640, Note Name: C#3
Note ON: Time 221760, Note Name: D#2, Velocity: 71
Note OFF: Time 221880, Note Name: D#2
Note ON: Time 222000, Note Name: D#3, Velocity: 65
Note OFF: Time 222120, Note Name: D#3
Note ON: Time 222720, Note Name: D#2, Velocity: 69
Note OFF: Time 222840, Note Name: D#2
Note ON: Time 222960, Note Name: D#3, Velocity: 61
Note OFF: Time 223080, Note Name: D#3
Note ON: Time 223200, Note Name: E2, Velocity: 65
Note OFF: Time 223320, Note Name: E2
Note ON: Time 223440, Note Name: E3, Velocity: 59
Note OFF: Time 223560, Note Name: E3
Note ON: Time 223680, Note Name: F#2, Velocity: 65
Note OFF: Time 223800, Note Name: F#2
Note ON: Time 223920, Note Name: F#3, Velocity: 54
Note OFF: Time 224040, Note Name: F#3
Note ON: Time 225600, Note Name: F#2, Velocity: 41
Note OFF: Time 225720, Note Name: F#2
Note ON: Time 225840, Note Name: F#3, Velocity: 36
Note OFF: Time 225960, Note Name: F#3
Note ON: Time 226080, Note Name: G#2, Velocity: 41
Note OFF: Time 226200, Note Name: G#2
Note ON: Time 226320, Note Name: G#3, Velocity: 36
Note OFF: Time 226440, Note Name: G#3
Note ON: Time 226560, Note Name: A2, Velocity: 40
Note OFF: Time 226680, Note Name: A2
Note ON: Time 226800, Note Name: A3, Velocity: 37
Note OFF: Time 226920, Note Name: A3
Note ON: Time 227040, Note Name: B2, Velocity: 39
Note OFF: Time 227160, Note Name: B2
Note ON: Time 227280, Note Name: B3, Velocity: 36
Note OFF: Time 227400, Note Name: B3
Note ON: Time 227520, Note Name: C#3, Velocity: 38
Note OFF: Time 227640, Note Name: C#3
Note ON: Time 227760, Note Name: C#4, Velocity: 37
Note OFF: Time 227880, Note Name: C#4
Note ON: Time 228000, Note Name: D#3, Velocity: 40
Note OFF: Time 228120, Note Name: D#3
Note ON: Time 228240, Note Name: D#4, Velocity: 37
Note OFF: Time 228360, Note Name: D#4
Note ON: Time 228480, Note Name: G#4, Velocity: 39
Note ON: Time 228480, Note Name: E4, Velocity: 33
Note OFF: Time 229440, Note Name: E4
Note OFF: Time 229440, Note Name: G#4
Note ON: Time 229440, Note Name: F#4, Velocity: 35
Note ON: Time 229440, Note Name: D#4, Velocity: 29
Note ON: Time 229440, Note Name: B3, Velocity: 29
Note OFF: Time 229920, Note Name: B3
Note OFF: Time 229920, Note Name: D#4
Note OFF: Time 229920, Note Name: F#4
Note ON: Time 229920, Note Name: E4, Velocity: 35
Note ON: Time 229920, Note Name: C#4, Velocity: 29
Note OFF: Time 230400, Note Name: C#4
Note OFF: Time 230400, Note Name: E4
Note ON: Time 230400, Note Name: D#4, Velocity: 39
Note ON: Time 230400, Note Name: C4, Velocity: 33
Note ON: Time 230400, Note Name: G#3, Velocity: 33
Note OFF: Time 231360, Note Name: G#3
Note OFF: Time 231360, Note Name: C4
Note OFF: Time 231360, Note Name: D#4
Note ON: Time 231360, Note Name: C#4, Velocity: 34
Note ON: Time 231360, Note Name: A3, Velocity: 28
Note OFF: Time 232320, Note Name: A3
Note OFF: Time 232320, Note Name: C#4
Note ON: Time 232320, Note Name: F#3, Velocity: 37
Note ON: Time 232320, Note Name: A3, Velocity: 45
Note ON: Time 232320, Note Name: B3, Velocity: 37
Note ON: Time 232320, Note Name: D#4, Velocity: 45
Note OFF: Time 233280, Note Name: D#4
Note OFF: Time 233280, Note Name: F#3
Note OFF: Time 233280, Note Name: A3
Note OFF: Time 233280, Note Name: B3
Note ON: Time 233280, Note Name: G#3, Velocity: 40
Note ON: Time 233280, Note Name: B3, Velocity: 40
Note ON: Time 233280, Note Name: E4, Velocity: 49
Note OFF: Time 233760, Note Name: E4
Note OFF: Time 233760, Note Name: B3
Note OFF: Time 233760, Note Name: G#3
Note ON: Time 233760, Note Name: F#4, Velocity: 55
Note ON: Time 233760, Note Name: A3, Velocity: 42
Note ON: Time 233760, Note Name: C#4, Velocity: 43
Note OFF: Time 234240, Note Name: C#4
Note OFF: Time 234240, Note Name: A3
Note OFF: Time 234240, Note Name: F#4
Note ON: Time 234240, Note Name: B3, Velocity: 49
Note ON: Time 234240, Note Name: E4, Velocity: 49
Note ON: Time 234240, Note Name: G#4, Velocity: 59
Note OFF: Time 235200, Note Name: G#4
Note OFF: Time 235200, Note Name: E4
Note ON: Time 235200, Note Name: D#4, Velocity: 27
Note ON: Time 235200, Note Name: F#4, Velocity: 32
Note OFF: Time 236158, Note Name: B3
Note OFF: Time 236160, Note Name: F#4
Note OFF: Time 236160, Note Name: D#4
Note ON: Time 236160, Note Name: G#3, Velocity: 35
Note ON: Time 236160, Note Name: E3, Velocity: 29
Note OFF: Time 237120, Note Name: E3
Note OFF: Time 237120, Note Name: G#3
Note ON: Time 237120, Note Name: F#3, Velocity: 31
Note ON: Time 237120, Note Name: D#3, Velocity: 26
Note ON: Time 237120, Note Name: B2, Velocity: 26
Note OFF: Time 237600, Note Name: B2
Note OFF: Time 237600, Note Name: D#3
Note OFF: Time 237600, Note Name: F#3
Note ON: Time 237600, Note Name: E3, Velocity: 31
Note ON: Time 237600, Note Name: C#3, Velocity: 26
Note OFF: Time 238080, Note Name: C#3
Note OFF: Time 238080, Note Name: E3
Note ON: Time 238080, Note Name: D#3, Velocity: 35
Note ON: Time 238080, Note Name: C3, Velocity: 29
Note ON: Time 238080, Note Name: G#2, Velocity: 29
Note OFF: Time 239040, Note Name: G#2
Note OFF: Time 239040, Note Name: C3
Note OFF: Time 239040, Note Name: D#3
Note ON: Time 239040, Note Name: C#3, Velocity: 30
Note ON: Time 239040, Note Name: A2, Velocity: 25
Note OFF: Time 240000, Note Name: A2
Note OFF: Time 240000, Note Name: C#3
Note ON: Time 240000, Note Name: B1, Velocity: 33
Note ON: Time 240000, Note Name: B2, Velocity: 40
Note OFF: Time 241920, Note Name: B2
Note OFF: Time 241920, Note Name: B1
Note ON: Time 241920, Note Name: E2, Velocity: 42
Note ON: Time 241920, Note Name: E3, Velocity: 45
Note OFF: Time 242400, Note Name: E3
Note OFF: Time 242400, Note Name: E2
Note ON: Time 243840, Note Name: G#4, Velocity: 43
Note ON: Time 243840, Note Name: E4, Velocity: 36
Note OFF: Time 244800, Note Name: E4
Note OFF: Time 244800, Note Name: G#4
Note ON: Time 244800, Note Name: F#4, Velocity: 39
Note ON: Time 244800, Note Name: D#4, Velocity: 32
Note ON: Time 244800, Note Name: B3, Velocity: 32
Note OFF: Time 245280, Note Name: B3
Note OFF: Time 245280, Note Name: D#4
Note OFF: Time 245280, Note Name: F#4
Note ON: Time 245280, Note Name: E4, Velocity: 39
Note ON: Time 245280, Note Name: C#4, Velocity: 32
Note OFF: Time 245760, Note Name: C#4
Note OFF: Time 245760, Note Name: E4
Note ON: Time 245760, Note Name: D#4, Velocity: 43
Note ON: Time 245760, Note Name: C4, Velocity: 36
Note ON: Time 245760, Note Name: G#3, Velocity: 36
Note OFF: Time 246720, Note Name: G#3
Note OFF: Time 246720, Note Name: C4
Note OFF: Time 246720, Note Name: D#4
Note ON: Time 246720, Note Name: C#4, Velocity: 38
Note ON: Time 246720, Note Name: A3, Velocity: 31
Note OFF: Time 247680, Note Name: A3
Note OFF: Time 247680, Note Name: C#4
Note ON: Time 247680, Note Name: F#3, Velocity: 39
Note ON: Time 247680, Note Name: A3, Velocity: 47
Note ON: Time 247680, Note Name: B3, Velocity: 39
Note ON: Time 247680, Note Name: D#4, Velocity: 47
Note OFF: Time 248640, Note Name: D#4
Note OFF: Time 248640, Note Name: F#3
Note OFF: Time 248640, Note Name: A3
Note OFF: Time 248640, Note Name: B3
Note ON: Time 248640, Note Name: G#3, Velocity: 45
Note ON: Time 248640, Note Name: B3, Velocity: 45
Note ON: Time 248640, Note Name: E4, Velocity: 53
Note OFF: Time 249120, Note Name: E4
Note OFF: Time 249120, Note Name: B3
Note OFF: Time 249120, Note Name: G#3
Note ON: Time 249120, Note Name: F#4, Velocity: 59
Note ON: Time 249120, Note Name: A3, Velocity: 49
Note ON: Time 249120, Note Name: C#4, Velocity: 49
Note OFF: Time 249600, Note Name: C#4
Note OFF: Time 249600, Note Name: A3
Note OFF: Time 249600, Note Name: F#4
Note ON: Time 249600, Note Name: B3, Velocity: 53
Note ON: Time 249600, Note Name: E4, Velocity: 53
Note ON: Time 249600, Note Name: G#4, Velocity: 65
Note OFF: Time 250560, Note Name: G#4
Note OFF: Time 250560, Note Name: E4
Note ON: Time 250560, Note Name: D#4, Velocity: 45
Note ON: Time 250560, Note Name: F#4, Velocity: 53
Note OFF: Time 251040, Note Name: F#4
Note OFF: Time 251040, Note Name: D#4
Note ON: Time 251040, Note Name: B2, Velocity: 44
Note OFF: Time 251200, Note Name: B2
Note ON: Time 251200, Note Name: C#3, Velocity: 43
Note OFF: Time 251360, Note Name: C#3
Note ON: Time 251360, Note Name: D#3, Velocity: 41
Note OFF: Time 251518, Note Name: B3
Note OFF: Time 251520, Note Name: D#3
Note ON: Time 251520, Note Name: G#3, Velocity: 45
Note ON: Time 251520, Note Name: E3, Velocity: 37
Note OFF: Time 252480, Note Name: E3
Note OFF: Time 252480, Note Name: G#3
Note ON: Time 252480, Note Name: F#3, Velocity: 41
Note ON: Time 252480, Note Name: D#3, Velocity: 33
Note ON: Time 252480, Note Name: B2, Velocity: 33
Note OFF: Time 252960, Note Name: B2
Note OFF: Time 252960, Note Name: D#3
Note OFF: Time 252960, Note Name: F#3
Note ON: Time 252960, Note Name: E3, Velocity: 41
Note ON: Time 252960, Note Name: C#3, Velocity: 33
Note OFF: Time 253440, Note Name: C#3
Note OFF: Time 253440, Note Name: E3
Note ON: Time 253440, Note Name: D#3, Velocity: 37
Note ON: Time 253440, Note Name: F#3, Velocity: 49
Note ON: Time 253440, Note Name: C3, Velocity: 37
Note ON: Time 253440, Note Name: G#2, Velocity: 37
Note OFF: Time 254400, Note Name: G#2
Note OFF: Time 254400, Note Name: D#3
Note OFF: Time 254400, Note Name: F#3
Note OFF: Time 254400, Note Name: C3
Note ON: Time 254400, Note Name: A2, Velocity: 39
Note ON: Time 254400, Note Name: C#3, Velocity: 39
Note ON: Time 254400, Note Name: E3, Velocity: 32
Note OFF: Time 255360, Note Name: E3
Note OFF: Time 255360, Note Name: C#3
Note OFF: Time 255360, Note Name: A2
Note ON: Time 255360, Note Name: B1, Velocity: 46
Note ON: Time 255360, Note Name: B2, Velocity: 55
Note OFF: Time 257280, Note Name: B2
Note OFF: Time 257280, Note Name: B1
Note ON: Time 257280, Note Name: E2, Velocity: 50
Note ON: Time 257280, Note Name: E3, Velocity: 60
Note OFF: Time 257760, Note Name: E3
Note OFF: Time 257760, Note Name: E2
Note ON: Time 257760, Note Name: B2, Velocity: 74
Note OFF: Time 258720, Note Name: B2
Note ON: Time 258720, Note Name: B2, Velocity: 74
Note OFF: Time 259680, Note Name: B2
Note ON: Time 259680, Note Name: B2, Velocity: 74
Note OFF: Time 260640, Note Name: B2
Note ON: Time 260640, Note Name: B2, Velocity: 73
Note OFF: Time 261120, Note Name: B2
Note ON: Time 261120, Note Name: E3, Velocity: 73
Note OFF: Time 261280, Note Name: E3
Note ON: Time 261280, Note Name: B2, Velocity: 67
Note OFF: Time 261440, Note Name: B2
Note ON: Time 261440, Note Name: G#2, Velocity: 69
Note OFF: Time 261600, Note Name: G#2
Note ON: Time 261600, Note Name: B2, Velocity: 73
Note OFF: Time 261760, Note Name: B2
Note ON: Time 261760, Note Name: E3, Velocity: 69
Note OFF: Time 261920, Note Name: E3
Note ON: Time 261920, Note Name: G#3, Velocity: 69
Note OFF: Time 262080, Note Name: G#3
Note ON: Time 262080, Note Name: F#3, Velocity: 73
Note OFF: Time 262240, Note Name: F#3
Note ON: Time 262240, Note Name: D#3, Velocity: 69
Note OFF: Time 262400, Note Name: D#3
Note ON: Time 262400, Note Name: B2, Velocity: 69
Note OFF: Time 262560, Note Name: B2
Note ON: Time 262560, Note Name: D#3, Velocity: 73
Note OFF: Time 262720, Note Name: D#3
Note ON: Time 262720, Note Name: F#3, Velocity: 69
Note OFF: Time 262880, Note Name: F#3
Note ON: Time 262880, Note Name: A3, Velocity: 69
Note OFF: Time 263040, Note Name: A3
Note ON: Time 263040, Note Name: G#3, Velocity: 73
Note OFF: Time 263200, Note Name: G#3
Note ON: Time 263200, Note Name: E3, Velocity: 67
Note OFF: Time 263360, Note Name: E3
Note ON: Time 263360, Note Name: B2, Velocity: 69
Note OFF: Time 263520, Note Name: B2
Note ON: Time 263520, Note Name: E3, Velocity: 73
Note OFF: Time 263680, Note Name: E3
Note ON: Time 263680, Note Name: G#3, Velocity: 69
Note OFF: Time 263840, Note Name: G#3
Note ON: Time 263840, Note Name: B3, Velocity: 69
Note OFF: Time 264000, Note Name: B3
Note ON: Time 264000, Note Name: A3, Velocity: 73
Note OFF: Time 264160, Note Name: A3
Note ON: Time 264160, Note Name: F#3, Velocity: 69
Note OFF: Time 264320, Note Name: F#3
Note ON: Time 264320, Note Name: D#3, Velocity: 69
Note OFF: Time 264480, Note Name: D#3
Note ON: Time 264480, Note Name: D#4, Velocity: 73
Note OFF: Time 264640, Note Name: D#4
Note ON: Time 264640, Note Name: A3, Velocity: 69
Note OFF: Time 264800, Note Name: A3
Note ON: Time 264800, Note Name: F#3, Velocity: 69
Note OFF: Time 264960, Note Name: F#3
Note ON: Time 264960, Note Name: G#3, Velocity: 64
Note OFF: Time 265120, Note Name: G#3
Note ON: Time 265120, Note Name: B3, Velocity: 56
Note OFF: Time 265280, Note Name: B3
Note ON: Time 265280, Note Name: E4, Velocity: 56
Note OFF: Time 265440, Note Name: E4
Note ON: Time 265440, Note Name: B3, Velocity: 64
Note OFF: Time 265600, Note Name: B3
Note ON: Time 265600, Note Name: G#3, Velocity: 57
Note OFF: Time 265760, Note Name: G#3
Note ON: Time 265760, Note Name: E3, Velocity: 57
Note OFF: Time 265920, Note Name: E3
Note ON: Time 265920, Note Name: D#3, Velocity: 64
Note OFF: Time 266080, Note Name: D#3
Note ON: Time 266080, Note Name: F#3, Velocity: 56
Note OFF: Time 266240, Note Name: F#3
Note ON: Time 266240, Note Name: A3, Velocity: 56
Note OFF: Time 266400, Note Name: A3
Note ON: Time 266400, Note Name: F#3, Velocity: 64
Note OFF: Time 266560, Note Name: F#3
Note ON: Time 266560, Note Name: D#3, Velocity: 57
Note OFF: Time 266720, Note Name: D#3
Note ON: Time 266720, Note Name: B2, Velocity: 58
Note OFF: Time 266880, Note Name: B2
Note ON: Time 266886, Note Name: E3, Velocity: 64
Note ON: Time 267040, Note Name: G#3, Velocity: 56
Note OFF: Time 267046, Note Name: E3
Note OFF: Time 267200, Note Name: G#3
Note ON: Time 267200, Note Name: B3, Velocity: 56
Note OFF: Time 267360, Note Name: B3
Note ON: Time 267360, Note Name: G#3, Velocity: 64
Note OFF: Time 267520, Note Name: G#3
Note ON: Time 267520, Note Name: E3, Velocity: 57
Note OFF: Time 267680, Note Name: E3
Note ON: Time 267686, Note Name: B2, Velocity: 57
Note ON: Time 267840, Note Name: D#3, Velocity: 64
Note OFF: Time 267846, Note Name: B2
Note OFF: Time 268000, Note Name: D#3
Note ON: Time 268000, Note Name: A3, Velocity: 56
Note OFF: Time 268160, Note Name: A3
Note ON: Time 268166, Note Name: B3, Velocity: 56
Note ON: Time 268320, Note Name: A3, Velocity: 64
Note OFF: Time 268326, Note Name: B3
Note OFF: Time 268480, Note Name: A3
Note ON: Time 268480, Note Name: B3, Velocity: 57
Note OFF: Time 268640, Note Name: B3
Note ON: Time 268640, Note Name: F#4, Velocity: 58
Note OFF: Time 268800, Note Name: F#4
Note ON: Time 268800, Note Name: G#3, Velocity: 64
Note OFF: Time 268960, Note Name: G#3
Note ON: Time 268960, Note Name: B3, Velocity: 55
Note OFF: Time 269120, Note Name: B3
Note ON: Time 269120, Note Name: E4, Velocity: 55
Note OFF: Time 269280, Note Name: E4
Note ON: Time 269280, Note Name: E3, Velocity: 62
Note OFF: Time 269440, Note Name: E3
Note ON: Time 269440, Note Name: G#3, Velocity: 55
Note OFF: Time 269600, Note Name: G#3
Note ON: Time 269600, Note Name: B3, Velocity: 54
Note OFF: Time 269760, Note Name: B3
Note ON: Time 269760, Note Name: F#3, Velocity: 59
Note OFF: Time 269920, Note Name: F#3
Note ON: Time 269920, Note Name: A3, Velocity: 51
Note OFF: Time 270080, Note Name: A3
Note ON: Time 270080, Note Name: B3, Velocity: 51
Note OFF: Time 270240, Note Name: B3
Note ON: Time 270240, Note Name: A3, Velocity: 57
Note OFF: Time 270400, Note Name: A3
Note ON: Time 270400, Note Name: B3, Velocity: 51
Note OFF: Time 270560, Note Name: B3
Note ON: Time 270560, Note Name: F#4, Velocity: 51
Note OFF: Time 270720, Note Name: F#4
Note ON: Time 270720, Note Name: G#3, Velocity: 56
Note OFF: Time 270880, Note Name: G#3
Note ON: Time 270880, Note Name: B3, Velocity: 48
Note OFF: Time 271040, Note Name: B3
Note ON: Time 271040, Note Name: E4, Velocity: 48
Note OFF: Time 271200, Note Name: E4
Note ON: Time 271200, Note Name: E3, Velocity: 54
Note OFF: Time 271360, Note Name: E3
Note ON: Time 271360, Note Name: G#3, Velocity: 48
Note OFF: Time 271520, Note Name: G#3
Note ON: Time 271520, Note Name: B3, Velocity: 47
Note OFF: Time 271680, Note Name: B3
Note ON: Time 271680, Note Name: F#3, Velocity: 51
Note OFF: Time 271840, Note Name: F#3
Note ON: Time 271840, Note Name: A3, Velocity: 44
Note OFF: Time 272000, Note Name: A3
Note ON: Time 272000, Note Name: B3, Velocity: 44
Note OFF: Time 272160, Note Name: B3
Note ON: Time 272160, Note Name: A3, Velocity: 50
Note OFF: Time 272320, Note Name: A3
Note ON: Time 272320, Note Name: B3, Velocity: 44
Note OFF: Time 272480, Note Name: B3
Note ON: Time 272480, Note Name: F#4, Velocity: 44
Note OFF: Time 272640, Note Name: F#4
Note ON: Time 272640, Note Name: G#3, Velocity: 50
Note OFF: Time 272760, Note Name: G#3
Note ON: Time 272760, Note Name: B3, Velocity: 43
Note OFF: Time 272880, Note Name: B3
Note ON: Time 272880, Note Name: E3, Velocity: 43
Note OFF: Time 273000, Note Name: E3
Note ON: Time 273000, Note Name: B3, Velocity: 44
Note OFF: Time 273120, Note Name: B3
Note ON: Time 273120, Note Name: F#3, Velocity: 51
Note OFF: Time 273240, Note Name: F#3
Note ON: Time 273240, Note Name: B3, Velocity: 44
Note OFF: Time 273360, Note Name: B3
Note ON: Time 273360, Note Name: A3, Velocity: 44
Note OFF: Time 273480, Note Name: A3
Note ON: Time 273480, Note Name: B3, Velocity: 44
Note OFF: Time 273600, Note Name: B3
Note ON: Time 273600, Note Name: G#3, Velocity: 52
Note OFF: Time 273720, Note Name: G#3
Note ON: Time 273720, Note Name: B3, Velocity: 46
Note OFF: Time 273840, Note Name: B3
Note ON: Time 273840, Note Name: E3, Velocity: 47
Note OFF: Time 273960, Note Name: E3
Note ON: Time 273960, Note Name: B3, Velocity: 49
Note OFF: Time 274080, Note Name: B3
Note ON: Time 274080, Note Name: F#3, Velocity: 55
Note OFF: Time 274200, Note Name: F#3
Note ON: Time 274200, Note Name: B3, Velocity: 48
Note OFF: Time 274320, Note Name: B3
Note ON: Time 274320, Note Name: A3, Velocity: 48
Note OFF: Time 274440, Note Name: A3
Note ON: Time 274440, Note Name: B3, Velocity: 49
Note OFF: Time 274560, Note Name: B3
Note ON: Time 274560, Note Name: G#3, Velocity: 58
Note OFF: Time 274680, Note Name: G#3
Note ON: Time 274680, Note Name: B3, Velocity: 50
Note OFF: Time 274800, Note Name: B3
Note ON: Time 274800, Note Name: A3, Velocity: 51
Note OFF: Time 274920, Note Name: A3
Note ON: Time 274920, Note Name: B3, Velocity: 52
Note OFF: Time 275040, Note Name: B3
Note ON: Time 275040, Note Name: G#3, Velocity: 60
Note OFF: Time 275160, Note Name: G#3
Note ON: Time 275160, Note Name: B3, Velocity: 52
Note OFF: Time 275280, Note Name: B3
Note ON: Time 275280, Note Name: A3, Velocity: 52
Note OFF: Time 275400, Note Name: A3
Note ON: Time 275400, Note Name: B3, Velocity: 54
Note OFF: Time 275520, Note Name: B3
Note ON: Time 275520, Note Name: G#3, Velocity: 62
Note OFF: Time 275640, Note Name: G#3
Note ON: Time 275640, Note Name: B3, Velocity: 55
Note OFF: Time 275760, Note Name: B3
Note ON: Time 275760, Note Name: A3, Velocity: 55
Note OFF: Time 275880, Note Name: A3
Note ON: Time 275880, Note Name: B3, Velocity: 57
Note OFF: Time 276000, Note Name: B3
Note ON: Time 276000, Note Name: G#3, Velocity: 65
Note OFF: Time 276120, Note Name: G#3
Note ON: Time 276120, Note Name: B3, Velocity: 57
Note OFF: Time 276240, Note Name: B3
Note ON: Time 276240, Note Name: A3, Velocity: 57
Note OFF: Time 276360, Note Name: A3
Note ON: Time 276360, Note Name: B3, Velocity: 58
Note OFF: Time 276480, Note Name: B3
Note ON: Time 276480, Note Name: G#3, Velocity: 70
Note OFF: Time 276600, Note Name: G#3
Note ON: Time 276600, Note Name: B3, Velocity: 60
Note OFF: Time 276720, Note Name: B3
Note ON: Time 276720, Note Name: G#2, Velocity: 60
Note OFF: Time 276840, Note Name: G#2
Note ON: Time 276840, Note Name: E3, Velocity: 62
Note OFF: Time 276960, Note Name: E3
Note ON: Time 276960, Note Name: G#2, Velocity: 70
Note OFF: Time 277080, Note Name: G#2
Note ON: Time 277080, Note Name: E3, Velocity: 60
Note OFF: Time 277200, Note Name: E3
Note ON: Time 277200, Note Name: G#2, Velocity: 60
Note OFF: Time 277320, Note Name: G#2
Note ON: Time 277320, Note Name: E3, Velocity: 60
Note OFF: Time 277440, Note Name: E3
Note ON: Time 277440, Note Name: G#2, Velocity: 70
Note OFF: Time 277560, Note Name: G#2
Note ON: Time 277560, Note Name: E3, Velocity: 60
Note OFF: Time 277680, Note Name: E3
Note ON: Time 277680, Note Name: G#2, Velocity: 60
Note OFF: Time 277800, Note Name: G#2
Note ON: Time 277800, Note Name: E3, Velocity: 62
Note OFF: Time 277920, Note Name: E3
Note ON: Time 277920, Note Name: G#2, Velocity: 70
Note OFF: Time 278040, Note Name: G#2
Note ON: Time 278040, Note Name: E3, Velocity: 60
Note OFF: Time 278160, Note Name: E3
Note ON: Time 278160, Note Name: G#2, Velocity: 60
Note OFF: Time 278280, Note Name: G#2
Note ON: Time 278280, Note Name: E3, Velocity: 60
Note OFF: Time 278400, Note Name: E3
Note ON: Time 278400, Note Name: G#2, Velocity: 70
Note OFF: Time 278520, Note Name: G#2
Note ON: Time 278520, Note Name: E3, Velocity: 60
Note OFF: Time 278640, Note Name: E3
Note ON: Time 278640, Note Name: G#2, Velocity: 60
Note OFF: Time 278760, Note Name: G#2
Note ON: Time 278760, Note Name: E3, Velocity: 62
Note OFF: Time 278880, Note Name: E3
Note ON: Time 278880, Note Name: G#2, Velocity: 70
Note OFF: Time 279000, Note Name: G#2
Note ON: Time 279000, Note Name: E3, Velocity: 60
Note OFF: Time 279120, Note Name: E3
Note ON: Time 279120, Note Name: G#2, Velocity: 60
Note OFF: Time 279240, Note Name: G#2
Note ON: Time 279240, Note Name: E3, Velocity: 61
Note OFF: Time 279360, Note Name: E3
Note ON: Time 279360, Note Name: G#2, Velocity: 71
Note OFF: Time 279480, Note Name: G#2
Note ON: Time 279480, Note Name: E3, Velocity: 61
Note OFF: Time 279600, Note Name: E3
Note ON: Time 279600, Note Name: G#2, Velocity: 61
Note OFF: Time 279720, Note Name: G#2
Note ON: Time 279720, Note Name: E3, Velocity: 63
Note OFF: Time 279840, Note Name: E3
Note ON: Time 279840, Note Name: G#2, Velocity: 72
Note OFF: Time 279960, Note Name: G#2
Note ON: Time 279960, Note Name: E3, Velocity: 62
Note OFF: Time 280080, Note Name: E3
Note ON: Time 280080, Note Name: G#2, Velocity: 62
Note OFF: Time 280200, Note Name: G#2
Note ON: Time 280200, Note Name: E3, Velocity: 62
Note OFF: Time 280320, Note Name: E3
Note ON: Time 280320, Note Name: A2, Velocity: 67
Note ON: Time 280320, Note Name: C#3, Velocity: 67
Note ON: Time 280320, Note Name: E3, Velocity: 80
Note OFF: Time 280500, Note Name: E3
Note OFF: Time 280500, Note Name: C#3
Note OFF: Time 280500, Note Name: A2
Note ON: Time 280560, Note Name: A2, Velocity: 60
Note ON: Time 280560, Note Name: C#3, Velocity: 60
Note ON: Time 280560, Note Name: E3, Velocity: 73
Note OFF: Time 280740, Note Name: E3
Note OFF: Time 280740, Note Name: C#3
Note OFF: Time 280740, Note Name: A2
Note ON: Time 281040, Note Name: A2, Velocity: 60
Note ON: Time 281040, Note Name: C#3, Velocity: 60
Note ON: Time 281040, Note Name: E3, Velocity: 73
Note OFF: Time 281220, Note Name: E3
Note OFF: Time 281220, Note Name: C#3
Note OFF: Time 281220, Note Name: A2
Note ON: Time 281280, Note Name: A2, Velocity: 67
Note ON: Time 281280, Note Name: C#3, Velocity: 67
Note ON: Time 281280, Note Name: E3, Velocity: 80
Note OFF: Time 281460, Note Name: E3
Note OFF: Time 281460, Note Name: C#3
Note OFF: Time 281460, Note Name: A2
Note ON: Time 281520, Note Name: A2, Velocity: 60
Note ON: Time 281520, Note Name: C#3, Velocity: 60
Note ON: Time 281520, Note Name: E3, Velocity: 73
Note OFF: Time 281700, Note Name: E3
Note OFF: Time 281700, Note Name: C#3
Note OFF: Time 281700, Note Name: A2
Note ON: Time 282000, Note Name: A2, Velocity: 60
Note ON: Time 282000, Note Name: C#3, Velocity: 60
Note ON: Time 282000, Note Name: E3, Velocity: 73
Note OFF: Time 282180, Note Name: E3
Note OFF: Time 282180, Note Name: C#3
Note OFF: Time 282180, Note Name: A2
Note ON: Time 282240, Note Name: A2, Velocity: 67
Note ON: Time 282240, Note Name: C#3, Velocity: 67
Note ON: Time 282240, Note Name: E3, Velocity: 78
Note OFF: Time 282420, Note Name: E3
Note OFF: Time 282420, Note Name: C#3
Note OFF: Time 282420, Note Name: A2
Note ON: Time 282480, Note Name: A2, Velocity: 60
Note ON: Time 282480, Note Name: C#3, Velocity: 60
Note ON: Time 282480, Note Name: E3, Velocity: 73
Note OFF: Time 282660, Note Name: E3
Note OFF: Time 282660, Note Name: C#3
Note OFF: Time 282660, Note Name: A2
Note ON: Time 282960, Note Name: A2, Velocity: 60
Note ON: Time 282960, Note Name: C#3, Velocity: 60
Note ON: Time 282960, Note Name: E3, Velocity: 73
Note OFF: Time 283140, Note Name: E3
Note OFF: Time 283140, Note Name: C#3
Note OFF: Time 283140, Note Name: A2
Note ON: Time 283200, Note Name: A2, Velocity: 67
Note ON: Time 283200, Note Name: C#3, Velocity: 67
Note ON: Time 283200, Note Name: E3, Velocity: 78
Note OFF: Time 283380, Note Name: E3
Note OFF: Time 283380, Note Name: C#3
Note OFF: Time 283380, Note Name: A2
Note ON: Time 283440, Note Name: A2, Velocity: 60
Note ON: Time 283440, Note Name: C#3, Velocity: 60
Note ON: Time 283440, Note Name: E3, Velocity: 73
Note OFF: Time 283620, Note Name: E3
Note OFF: Time 283620, Note Name: C#3
Note OFF: Time 283620, Note Name: A2
Note ON: Time 283920, Note Name: A2, Velocity: 60
Note ON: Time 283920, Note Name: C#3, Velocity: 60
Note ON: Time 283920, Note Name: E3, Velocity: 73
Note OFF: Time 284100, Note Name: E3
Note OFF: Time 284100, Note Name: C#3
Note OFF: Time 284100, Note Name: A2
Note ON: Time 284160, Note Name: E3, Velocity: 67
Note ON: Time 284160, Note Name: A#2, Velocity: 67
Note ON: Time 284160, Note Name: C#3, Velocity: 67
Note ON: Time 284160, Note Name: F#3, Velocity: 78
Note OFF: Time 284340, Note Name: F#3
Note OFF: Time 284340, Note Name: E3
Note OFF: Time 284340, Note Name: A#2
Note OFF: Time 284340, Note Name: C#3
Note ON: Time 284400, Note Name: E3, Velocity: 60
Note ON: Time 284400, Note Name: A#2, Velocity: 60
Note ON: Time 284400, Note Name: C#3, Velocity: 60
Note ON: Time 284400, Note Name: F#3, Velocity: 73
Note OFF: Time 284580, Note Name: F#3
Note OFF: Time 284580, Note Name: E3
Note OFF: Time 284580, Note Name: A#2
Note OFF: Time 284580, Note Name: C#3
Note ON: Time 284880, Note Name: E3, Velocity: 60
Note ON: Time 284880, Note Name: A#2, Velocity: 60
Note ON: Time 284880, Note Name: C#3, Velocity: 60
Note ON: Time 284880, Note Name: F#3, Velocity: 73
Note OFF: Time 285060, Note Name: F#3
Note OFF: Time 285060, Note Name: E3
Note OFF: Time 285060, Note Name: A#2
Note OFF: Time 285060, Note Name: C#3
Note ON: Time 285120, Note Name: E3, Velocity: 67
Note ON: Time 285120, Note Name: A#2, Velocity: 67
Note ON: Time 285120, Note Name: C#3, Velocity: 67
Note ON: Time 285120, Note Name: F#3, Velocity: 78
Note OFF: Time 285300, Note Name: F#3
Note OFF: Time 285300, Note Name: E3
Note OFF: Time 285300, Note Name: A#2
Note OFF: Time 285300, Note Name: C#3
Note ON: Time 285360, Note Name: E3, Velocity: 60
Note ON: Time 285360, Note Name: A#2, Velocity: 60
Note ON: Time 285360, Note Name: C#3, Velocity: 60
Note ON: Time 285360, Note Name: F#3, Velocity: 73
Note OFF: Time 285540, Note Name: F#3
Note OFF: Time 285540, Note Name: E3
Note OFF: Time 285540, Note Name: A#2
Note OFF: Time 285540, Note Name: C#3
Note ON: Time 285840, Note Name: E3, Velocity: 60
Note ON: Time 285840, Note Name: A#2, Velocity: 60
Note ON: Time 285840, Note Name: C#3, Velocity: 60
Note ON: Time 285840, Note Name: F#3, Velocity: 73
Note OFF: Time 286020, Note Name: F#3
Note OFF: Time 286020, Note Name: E3
Note OFF: Time 286020, Note Name: A#2
Note OFF: Time 286020, Note Name: C#3
Note ON: Time 286080, Note Name: E3, Velocity: 67
Note ON: Time 286080, Note Name: A#2, Velocity: 67
Note ON: Time 286080, Note Name: C#3, Velocity: 67
Note ON: Time 286080, Note Name: F#3, Velocity: 78
Note OFF: Time 286260, Note Name: F#3
Note OFF: Time 286260, Note Name: E3
Note OFF: Time 286260, Note Name: A#2
Note OFF: Time 286260, Note Name: C#3
Note ON: Time 286320, Note Name: E3, Velocity: 60
Note ON: Time 286320, Note Name: A#2, Velocity: 60
Note ON: Time 286320, Note Name: C#3, Velocity: 60
Note ON: Time 286320, Note Name: F#3, Velocity: 73
Note OFF: Time 286500, Note Name: F#3
Note OFF: Time 286500, Note Name: E3
Note OFF: Time 286500, Note Name: A#2
Note OFF: Time 286500, Note Name: C#3
Note ON: Time 286800, Note Name: E3, Velocity: 60
Note ON: Time 286800, Note Name: A#2, Velocity: 60
Note ON: Time 286800, Note Name: C#3, Velocity: 60
Note ON: Time 286800, Note Name: F#3, Velocity: 73
Note OFF: Time 286980, Note Name: F#3
Note OFF: Time 286980, Note Name: E3
Note OFF: Time 286980, Note Name: A#2
Note OFF: Time 286980, Note Name: C#3
Note ON: Time 287040, Note Name: E3, Velocity: 67
Note ON: Time 287040, Note Name: A#2, Velocity: 67
Note ON: Time 287040, Note Name: C#3, Velocity: 67
Note ON: Time 287040, Note Name: F#3, Velocity: 78
Note OFF: Time 287220, Note Name: F#3
Note OFF: Time 287220, Note Name: E3
Note OFF: Time 287220, Note Name: A#2
Note OFF: Time 287220, Note Name: C#3
Note ON: Time 287280, Note Name: E3, Velocity: 60
Note ON: Time 287280, Note Name: A#2, Velocity: 60
Note ON: Time 287280, Note Name: C#3, Velocity: 60
Note ON: Time 287280, Note Name: F#3, Velocity: 73
Note OFF: Time 287460, Note Name: F#3
Note OFF: Time 287460, Note Name: E3
Note OFF: Time 287460, Note Name: A#2
Note OFF: Time 287460, Note Name: C#3
Note ON: Time 287760, Note Name: E3, Velocity: 60
Note ON: Time 287760, Note Name: A#2, Velocity: 60
Note ON: Time 287760, Note Name: C#3, Velocity: 60
Note ON: Time 287760, Note Name: F#3, Velocity: 73
Note OFF: Time 287940, Note Name: F#3
Note OFF: Time 287940, Note Name: E3
Note OFF: Time 287940, Note Name: A#2
Note OFF: Time 287940, Note Name: C#3
Note ON: Time 288000, Note Name: B2, Velocity: 78
Note OFF: Time 288120, Note Name: B2
Note ON: Time 288120, Note Name: E3, Velocity: 70
Note OFF: Time 288240, Note Name: E3
Note ON: Time 288240, Note Name: G#3, Velocity: 70
Note OFF: Time 288360, Note Name: G#3
Note ON: Time 288360, Note Name: B3, Velocity: 70
Note OFF: Time 288480, Note Name: B3
Note ON: Time 288480, Note Name: B2, Velocity: 77
Note OFF: Time 288600, Note Name: B2
Note ON: Time 288600, Note Name: E3, Velocity: 70
Note OFF: Time 288720, Note Name: E3
Note ON: Time 288720, Note Name: G#3, Velocity: 70
Note OFF: Time 288840, Note Name: G#3
Note ON: Time 288840, Note Name: B3, Velocity: 70
Note OFF: Time 288960, Note Name: B3
Note ON: Time 288960, Note Name: B2, Velocity: 75
Note OFF: Time 289080, Note Name: B2
Note ON: Time 289080, Note Name: E3, Velocity: 70
Note OFF: Time 289200, Note Name: E3
Note ON: Time 289200, Note Name: G#3, Velocity: 70
Note OFF: Time 289320, Note Name: G#3
Note ON: Time 289320, Note Name: B3, Velocity: 70
Note OFF: Time 289440, Note Name: B3
Note ON: Time 289440, Note Name: B2, Velocity: 75
Note OFF: Time 289560, Note Name: B2
Note ON: Time 289560, Note Name: E3, Velocity: 70
Note OFF: Time 289680, Note Name: E3
Note ON: Time 289680, Note Name: G#3, Velocity: 70
Note OFF: Time 289800, Note Name: G#3
Note ON: Time 289800, Note Name: B3, Velocity: 70
Note OFF: Time 289920, Note Name: B3
Note ON: Time 289920, Note Name: B2, Velocity: 78
Note OFF: Time 290040, Note Name: B2
Note ON: Time 290040, Note Name: E3, Velocity: 70
Note OFF: Time 290160, Note Name: E3
Note ON: Time 290160, Note Name: G#3, Velocity: 70
Note OFF: Time 290280, Note Name: G#3
Note ON: Time 290280, Note Name: B3, Velocity: 70
Note OFF: Time 290400, Note Name: B3
Note ON: Time 290400, Note Name: B2, Velocity: 77
Note OFF: Time 290520, Note Name: B2
Note ON: Time 290520, Note Name: E3, Velocity: 70
Note OFF: Time 290640, Note Name: E3
Note ON: Time 290640, Note Name: G#3, Velocity: 70
Note OFF: Time 290760, Note Name: G#3
Note ON: Time 290760, Note Name: B3, Velocity: 70
Note OFF: Time 290880, Note Name: B3
Note ON: Time 290880, Note Name: G#3, Velocity: 75
Note OFF: Time 291000, Note Name: G#3
Note ON: Time 291120, Note Name: G#3, Velocity: 70
Note OFF: Time 291240, Note Name: G#3
Note ON: Time 291360, Note Name: E3, Velocity: 75
Note OFF: Time 291480, Note Name: E3
Note ON: Time 291600, Note Name: B2, Velocity: 70
Note OFF: Time 291720, Note Name: B2
Note ON: Time 291840, Note Name: B3, Velocity: 82
Note OFF: Time 291960, Note Name: B3
Note ON: Time 292080, Note Name: G#3, Velocity: 47
Note OFF: Time 292200, Note Name: G#3
Note ON: Time 292320, Note Name: E4, Velocity: 53
Note OFF: Time 292440, Note Name: E4
Note ON: Time 292560, Note Name: B3, Velocity: 48
Note OFF: Time 292680, Note Name: B3
Note ON: Time 292800, Note Name: G#4, Velocity: 52
Note OFF: Time 292920, Note Name: G#4
Note ON: Time 293040, Note Name: E4, Velocity: 41
Note OFF: Time 293160, Note Name: E4
Note ON: Time 293280, Note Name: B4, Velocity: 50
Note OFF: Time 293400, Note Name: B4
Note ON: Time 293520, Note Name: G#4, Velocity: 41
Note OFF: Time 293640, Note Name: G#4
Note ON: Time 293760, Note Name: E5, Velocity: 50
Note OFF: Time 293880, Note Name: E5
Note ON: Time 294000, Note Name: B4, Velocity: 41
Note OFF: Time 294120, Note Name: B4
Note ON: Time 294240, Note Name: E5, Velocity: 50
Note OFF: Time 294360, Note Name: E5
Note ON: Time 294480, Note Name: B4, Velocity: 39
Note OFF: Time 294600, Note Name: B4
Note ON: Time 294720, Note Name: E5, Velocity: 50
Note OFF: Time 294840, Note Name: E5
Note ON: Time 294960, Note Name: B4, Velocity: 41
Note OFF: Time 295080, Note Name: B4
Note ON: Time 295200, Note Name: E5, Velocity: 50
Note OFF: Time 295320, Note Name: E5
Note ON: Time 295440, Note Name: B4, Velocity: 42
Note OFF: Time 295560, Note Name: B4
Note ON: Time 295680, Note Name: D#5, Velocity: 46
Note OFF: Time 295800, Note Name: D#5
Note ON: Time 295920, Note Name: B4, Velocity: 37
Note OFF: Time 296040, Note Name: B4
Note ON: Time 296160, Note Name: D#5, Velocity: 43
Note OFF: Time 296280, Note Name: D#5
Note ON: Time 296400, Note Name: B4, Velocity: 36
Note OFF: Time 296520, Note Name: B4
Note ON: Time 296640, Note Name: D#5, Velocity: 41
Note OFF: Time 296760, Note Name: D#5
Note ON: Time 296880, Note Name: B4, Velocity: 32
Note OFF: Time 297000, Note Name: B4
Note ON: Time 297120, Note Name: D#5, Velocity: 39
Note OFF: Time 297240, Note Name: D#5
Note ON: Time 297360, Note Name: B4, Velocity: 31
Note OFF: Time 297480, Note Name: B4
Note ON: Time 297600, Note Name: D#5, Velocity: 36
Note OFF: Time 297720, Note Name: D#5
Note ON: Time 297840, Note Name: B4, Velocity: 30
Note OFF: Time 297960, Note Name: B4
Note ON: Time 298080, Note Name: D#5, Velocity: 36
Note OFF: Time 298200, Note Name: D#5
Note ON: Time 298320, Note Name: B4, Velocity: 31
Note OFF: Time 298440, Note Name: B4
Note ON: Time 298560, Note Name: D#5, Velocity: 36
Note OFF: Time 298680, Note Name: D#5
Note ON: Time 298800, Note Name: B4, Velocity: 29
Note OFF: Time 298920, Note Name: B4
Note ON: Time 299040, Note Name: D#5, Velocity: 36
Note OFF: Time 299160, Note Name: D#5
Note ON: Time 299280, Note Name: B4, Velocity: 30
Note OFF: Time 299400, Note Name: B4
Note ON: Time 299520, Note Name: D#5, Velocity: 37
Note OFF: Time 299600, Note Name: D#5
Note ON: Time 299600, Note Name: E5, Velocity: 32
Note OFF: Time 299680, Note Name: E5
Note ON: Time 299680, Note Name: D#5, Velocity: 36
Note OFF: Time 299760, Note Name: D#5
Note ON: Time 299760, Note Name: E5, Velocity: 31
Note OFF: Time 299840, Note Name: E5
Note ON: Time 299840, Note Name: D#5, Velocity: 36
Note OFF: Time 299920, Note Name: D#5
Note ON: Time 299920, Note Name: E5, Velocity: 33
Note OFF: Time 300000, Note Name: E5
Note ON: Time 300000, Note Name: D#5, Velocity: 37
Note OFF: Time 300080, Note Name: D#5
Note ON: Time 300080, Note Name: E5, Velocity: 33
Note OFF: Time 300160, Note Name: E5
Note ON: Time 300160, Note Name: D#5, Velocity: 37
Note OFF: Time 300240, Note Name: D#5
Note ON: Time 300240, Note Name: E5, Velocity: 33
Note OFF: Time 300320, Note Name: E5
Note ON: Time 300320, Note Name: D#5, Velocity: 38
Note OFF: Time 300400, Note Name: D#5
Note ON: Time 300400, Note Name: E5, Velocity: 34
Note OFF: Time 300480, Note Name: E5
Note ON: Time 300480, Note Name: D#5, Velocity: 38
Note OFF: Time 300560, Note Name: D#5
Note ON: Time 300560, Note Name: E5, Velocity: 35
Note OFF: Time 300640, Note Name: E5
Note ON: Time 300640, Note Name: D#5, Velocity: 39
Note OFF: Time 300720, Note Name: D#5
Note ON: Time 300720, Note Name: E5, Velocity: 35
Note OFF: Time 300800, Note Name: E5
Note ON: Time 300800, Note Name: D#5, Velocity: 39
Note OFF: Time 300880, Note Name: D#5
Note ON: Time 300880, Note Name: E5, Velocity: 36
Note OFF: Time 300960, Note Name: E5
Note ON: Time 300960, Note Name: D#5, Velocity: 40
Note OFF: Time 301040, Note Name: D#5
Note ON: Time 301040, Note Name: E5, Velocity: 36
Note OFF: Time 301120, Note Name: E5
Note ON: Time 301120, Note Name: D#5, Velocity: 40
Note OFF: Time 301200, Note Name: D#5
Note ON: Time 301200, Note Name: E5, Velocity: 36
Note OFF: Time 301280, Note Name: E5
Note ON: Time 301280, Note Name: D#5, Velocity: 41
Note OFF: Time 301360, Note Name: D#5
Note ON: Time 301360, Note Name: E5, Velocity: 37
Note OFF: Time 301440, Note Name: E5
Note ON: Time 301440, Note Name: D#5, Velocity: 41
Note OFF: Time 301520, Note Name: D#5
Note ON: Time 301520, Note Name: E5, Velocity: 36
Note OFF: Time 301600, Note Name: E5
Note ON: Time 301600, Note Name: D#5, Velocity: 42
Note OFF: Time 301680, Note Name: D#5
Note ON: Time 301680, Note Name: E5, Velocity: 37
Note OFF: Time 301760, Note Name: E5
Note ON: Time 301760, Note Name: D#5, Velocity: 42
Note OFF: Time 301840, Note Name: D#5
Note ON: Time 301840, Note Name: E5, Velocity: 37
Note OFF: Time 301920, Note Name: E5
Note ON: Time 301920, Note Name: D#5, Velocity: 43
Note OFF: Time 302000, Note Name: D#5
Note ON: Time 302000, Note Name: E5, Velocity: 38
Note OFF: Time 302080, Note Name: E5
Note ON: Time 302080, Note Name: D#5, Velocity: 43
Note OFF: Time 302160, Note Name: D#5
Note ON: Time 302160, Note Name: E5, Velocity: 39
Note OFF: Time 302240, Note Name: E5
Note ON: Time 302240, Note Name: D#5, Velocity: 44
Note OFF: Time 302320, Note Name: D#5
Note ON: Time 302320, Note Name: E5, Velocity: 39
Note OFF: Time 302400, Note Name: E5
Note ON: Time 302400, Note Name: D#5, Velocity: 44
Note OFF: Time 302480, Note Name: D#5
Note ON: Time 302480, Note Name: E5, Velocity: 38
Note OFF: Time 302560, Note Name: E5
Note ON: Time 302560, Note Name: D#5, Velocity: 45
Note OFF: Time 302640, Note Name: D#5
Note ON: Time 302640, Note Name: E5, Velocity: 38
Note OFF: Time 302720, Note Name: E5
Note ON: Time 302720, Note Name: D#5, Velocity: 45
Note OFF: Time 302800, Note Name: D#5
Note ON: Time 302800, Note Name: E5, Velocity: 40
Note OFF: Time 302880, Note Name: E5
Note ON: Time 302880, Note Name: D#5, Velocity: 50
Note OFF: Time 302976, Note Name: D#5
Note ON: Time 302976, Note Name: E5, Velocity: 44
Note OFF: Time 303072, Note Name: E5
Note ON: Time 303072, Note Name: D#5, Velocity: 50
Note OFF: Time 303168, Note Name: D#5
Note ON: Time 303168, Note Name: C#5, Velocity: 52
Note OFF: Time 303264, Note Name: C#5
Note ON: Time 303264, Note Name: D#5, Velocity: 47
Note OFF: Time 303360, Note Name: D#5
Note ON: Time 303360, Note Name: E4, Velocity: 48
Note ON: Time 303360, Note Name: E5, Velocity: 57
Note OFF: Time 304320, Note Name: E5
Note ON: Time 304320, Note Name: D5, Velocity: 45
Note ON: Time 304320, Note Name: B4, Velocity: 38
Note ON: Time 304320, Note Name: G#4, Velocity: 38
Note OFF: Time 305280, Note Name: G#4
Note OFF: Time 305280, Note Name: B4
Note OFF: Time 305280, Note Name: D5
Note ON: Time 305280, Note Name: A4, Velocity: 39
Note ON: Time 305280, Note Name: C5, Velocity: 47
Note OFF: Time 306240, Note Name: C5
Note OFF: Time 306240, Note Name: A4
Note ON: Time 306240, Note Name: D5, Velocity: 46
Note ON: Time 306240, Note Name: G#4, Velocity: 39
Note ON: Time 306240, Note Name: B4, Velocity: 39
Note OFF: Time 307200, Note Name: B4
Note OFF: Time 307200, Note Name: E4
Note OFF: Time 307200, Note Name: D5
Note OFF: Time 307200, Note Name: G#4
Note ON: Time 307200, Note Name: C5, Velocity: 48
Note ON: Time 307200, Note Name: A4, Velocity: 40
Note OFF: Time 307680, Note Name: A4
Note OFF: Time 307680, Note Name: C5
Note ON: Time 308160, Note Name: A4, Velocity: 47
Note ON: Time 308160, Note Name: A3, Velocity: 39
Note ON: Time 308160, Note Name: C4, Velocity: 39
Note ON: Time 308160, Note Name: F#4, Velocity: 39
Note OFF: Time 309120, Note Name: F#4
Note OFF: Time 309120, Note Name: A4
Note OFF: Time 309120, Note Name: A3
Note OFF: Time 309120, Note Name: C4
Note ON: Time 309120, Note Name: G4, Velocity: 46
Note ON: Time 309120, Note Name: B3, Velocity: 39
Note ON: Time 309120, Note Name: E4, Velocity: 39
Note OFF: Time 310080, Note Name: E4
Note OFF: Time 310080, Note Name: B3
Note OFF: Time 310080, Note Name: G4
Note ON: Time 310080, Note Name: D#4, Velocity: 37
Note ON: Time 310080, Note Name: F#4, Velocity: 44
Note ON: Time 310080, Note Name: B3, Velocity: 37
Note OFF: Time 311040, Note Name: B3
Note OFF: Time 311040, Note Name: F#4
Note OFF: Time 311040, Note Name: D#4
Note ON: Time 311040, Note Name: E4, Velocity: 56
Note ON: Time 311040, Note Name: E3, Velocity: 45
Note OFF: Time 312000, Note Name: E4
Note ON: Time 312000, Note Name: G#3, Velocity: 38
Note ON: Time 312000, Note Name: D4, Velocity: 45
Note ON: Time 312000, Note Name: B3, Velocity: 38
Note OFF: Time 312960, Note Name: B3
Note OFF: Time 312960, Note Name: D4
Note OFF: Time 312960, Note Name: G#3
Note ON: Time 312960, Note Name: A3, Velocity: 39
Note ON: Time 312960, Note Name: C4, Velocity: 47
Note OFF: Time 313920, Note Name: C4
Note OFF: Time 313920, Note Name: A3
Note ON: Time 313920, Note Name: D4, Velocity: 46
Note ON: Time 313920, Note Name: B3, Velocity: 39
Note ON: Time 313920, Note Name: G#3, Velocity: 39
Note OFF: Time 314880, Note Name: G#3
Note OFF: Time 314880, Note Name: E3
Note OFF: Time 314880, Note Name: D4
Note OFF: Time 314880, Note Name: B3
Note ON: Time 314880, Note Name: C4, Velocity: 48
Note ON: Time 314880, Note Name: A3, Velocity: 48
Note OFF: Time 315360, Note Name: A3
Note OFF: Time 315360, Note Name: C4
Note ON: Time 315840, Note Name: A2, Velocity: 39
Note ON: Time 315840, Note Name: F#3, Velocity: 39
Note ON: Time 315840, Note Name: A3, Velocity: 47
Note ON: Time 315840, Note Name: C3, Velocity: 39
Note OFF: Time 316800, Note Name: C3
Note OFF: Time 316800, Note Name: A2
Note OFF: Time 316800, Note Name: F#3
Note OFF: Time 316800, Note Name: A3
Note ON: Time 316800, Note Name: G3, Velocity: 46
Note ON: Time 316800, Note Name: B2, Velocity: 39
Note ON: Time 316800, Note Name: E3, Velocity: 39
Note OFF: Time 317760, Note Name: E3
Note OFF: Time 317760, Note Name: B2
Note OFF: Time 317760, Note Name: G3
Note ON: Time 317760, Note Name: F#3, Velocity: 44
Note ON: Time 317760, Note Name: D#3, Velocity: 37
Note ON: Time 317760, Note Name: B2, Velocity: 37
Note OFF: Time 318720, Note Name: B2
Note OFF: Time 318720, Note Name: D#3
Note OFF: Time 318720, Note Name: F#3
Note ON: Time 318720, Note Name: G3, Velocity: 44
Note ON: Time 318720, Note Name: E3, Velocity: 37
Note OFF: Time 318960, Note Name: E3
Note OFF: Time 318960, Note Name: G3
Note ON: Time 319200, Note Name: G2, Velocity: 42
Note ON: Time 319200, Note Name: E3, Velocity: 51
Note OFF: Time 319680, Note Name: G2
Note ON: Time 319680, Note Name: A2, Velocity: 42
Note OFF: Time 319920, Note Name: E3
Note ON: Time 319920, Note Name: F3, Velocity: 49
Note OFF: Time 320160, Note Name: F3
Note ON: Time 320160, Note Name: G3, Velocity: 51
Note OFF: Time 320400, Note Name: G3
Note ON: Time 320400, Note Name: A3, Velocity: 55
Note OFF: Time 320640, Note Name: A3
Note OFF: Time 320640, Note Name: A2
Note ON: Time 320640, Note Name: B3, Velocity: 41
Note ON: Time 320640, Note Name: G3, Velocity: 35
Note ON: Time 320640, Note Name: B2, Velocity: 35
Note OFF: Time 321600, Note Name: G3
Note OFF: Time 321600, Note Name: B3
Note ON: Time 321600, Note Name: A3, Velocity: 39
Note ON: Time 321600, Note Name: F#3, Velocity: 33
Note OFF: Time 322560, Note Name: F#3
Note OFF: Time 322560, Note Name: A3
Note OFF: Time 322560, Note Name: B2
Note ON: Time 322560, Note Name: E3, Velocity: 37
Note ON: Time 322560, Note Name: G3, Velocity: 44
Note ON: Time 322560, Note Name: C3, Velocity: 37
Note OFF: Time 322800, Note Name: C3
Note OFF: Time 322800, Note Name: G3
Note OFF: Time 322800, Note Name: E3
Note ON: Time 323040, Note Name: C3, Velocity: 51
Note ON: Time 323040, Note Name: E2, Velocity: 42
Note OFF: Time 323520, Note Name: E2
Note ON: Time 323520, Note Name: F2, Velocity: 42
Note OFF: Time 323760, Note Name: C3
Note ON: Time 323760, Note Name: D3, Velocity: 49
Note OFF: Time 324000, Note Name: D3
Note ON: Time 324000, Note Name: E3, Velocity: 51
Note OFF: Time 324240, Note Name: E3
Note ON: Time 324240, Note Name: F3, Velocity: 55
Note OFF: Time 324480, Note Name: F3
Note OFF: Time 324480, Note Name: F2
Note ON: Time 324480, Note Name: E3, Velocity: 35
Note ON: Time 324480, Note Name: G3, Velocity: 41
Note ON: Time 324480, Note Name: G2, Velocity: 35
Note OFF: Time 325440, Note Name: G3
Note OFF: Time 325440, Note Name: E3
Note ON: Time 325440, Note Name: D3, Velocity: 33
Note ON: Time 325440, Note Name: F3, Velocity: 39
Note OFF: Time 326400, Note Name: F3
Note OFF: Time 326400, Note Name: D3
Note OFF: Time 326400, Note Name: G2
Note ON: Time 326400, Note Name: C3, Velocity: 37
Note ON: Time 326400, Note Name: E3, Velocity: 44
Note OFF: Time 326880, Note Name: E3
Note OFF: Time 326880, Note Name: C3
Note ON: Time 326880, Note Name: A2, Velocity: 42
Note ON: Time 326880, Note Name: F3, Velocity: 51
Note OFF: Time 327360, Note Name: A2
Note ON: Time 327360, Note Name: A#2, Velocity: 42
Note OFF: Time 327600, Note Name: F3
Note ON: Time 327600, Note Name: G3, Velocity: 49
Note OFF: Time 327840, Note Name: G3
Note ON: Time 327840, Note Name: A3, Velocity: 51
Note OFF: Time 328080, Note Name: A3
Note ON: Time 328080, Note Name: A#3, Velocity: 55
Note OFF: Time 328320, Note Name: A#3
Note OFF: Time 328320, Note Name: A#2
Note ON: Time 328320, Note Name: C4, Velocity: 41
Note ON: Time 328320, Note Name: C3, Velocity: 35
Note ON: Time 328320, Note Name: A3, Velocity: 35
Note OFF: Time 329280, Note Name: A3
Note OFF: Time 329280, Note Name: C4
Note ON: Time 329280, Note Name: G3, Velocity: 33
Note ON: Time 329280, Note Name: A#3, Velocity: 39
Note OFF: Time 330240, Note Name: A#3
Note OFF: Time 330240, Note Name: G3
Note OFF: Time 330240, Note Name: C3
Note ON: Time 330240, Note Name: D3, Velocity: 37
Note ON: Time 330240, Note Name: F3, Velocity: 37
Note ON: Time 330240, Note Name: A3, Velocity: 44
Note OFF: Time 330720, Note Name: A3
Note OFF: Time 330720, Note Name: F3
Note OFF: Time 330720, Note Name: D3
Note ON: Time 330720, Note Name: A1, Velocity: 42
Note ON: Time 330720, Note Name: F2, Velocity: 51
Note OFF: Time 331200, Note Name: A1
Note ON: Time 331200, Note Name: A#1, Velocity: 42
Note OFF: Time 331440, Note Name: F2
Note ON: Time 331440, Note Name: G2, Velocity: 49
Note OFF: Time 331680, Note Name: G2
Note ON: Time 331680, Note Name: A2, Velocity: 51
Note OFF: Time 331920, Note Name: A2
Note ON: Time 331920, Note Name: A#2, Velocity: 55
Note OFF: Time 332160, Note Name: A#2
Note OFF: Time 332160, Note Name: A#1
Note ON: Time 332160, Note Name: C3, Velocity: 41
Note ON: Time 332160, Note Name: C2, Velocity: 35
Note ON: Time 332160, Note Name: A2, Velocity: 35
Note OFF: Time 333120, Note Name: A2
Note OFF: Time 333120, Note Name: C3
Note ON: Time 333120, Note Name: G2, Velocity: 33
Note ON: Time 333120, Note Name: A#2, Velocity: 39
Note OFF: Time 334080, Note Name: A#2
Note OFF: Time 334080, Note Name: G2
Note OFF: Time 334080, Note Name: C2
Note ON: Time 334080, Note Name: F2, Velocity: 28
Note ON: Time 334080, Note Name: F1, Velocity: 25
Note OFF: Time 334200, Note Name: F1
Note OFF: Time 334200, Note Name: F2
Note ON: Time 334320, Note Name: C2, Velocity: 26
Note ON: Time 334320, Note Name: F1, Velocity: 22
Note OFF: Time 334440, Note Name: F1
Note OFF: Time 334440, Note Name: C2
Note ON: Time 334560, Note Name: C2, Velocity: 26
Note ON: Time 334560, Note Name: F1, Velocity: 22
Note OFF: Time 334680, Note Name: F1
Note OFF: Time 334680, Note Name: C2
Note ON: Time 334800, Note Name: C2, Velocity: 27
Note ON: Time 334800, Note Name: F1, Velocity: 22
Note OFF: Time 334920, Note Name: F1
Note OFF: Time 334920, Note Name: C2
Note ON: Time 335040, Note Name: C2, Velocity: 27
Note ON: Time 335040, Note Name: F1, Velocity: 22
Note OFF: Time 335160, Note Name: F1
Note OFF: Time 335160, Note Name: C2
Note ON: Time 335280, Note Name: C2, Velocity: 28
Note ON: Time 335280, Note Name: F1, Velocity: 23
Note OFF: Time 335400, Note Name: F1
Note OFF: Time 335400, Note Name: C2
Note ON: Time 335520, Note Name: C2, Velocity: 28
Note ON: Time 335520, Note Name: F1, Velocity: 23
Note OFF: Time 335640, Note Name: F1
Note OFF: Time 335640, Note Name: C2
Note ON: Time 335760, Note Name: C2, Velocity: 29
Note ON: Time 335760, Note Name: F1, Velocity: 24
Note OFF: Time 335880, Note Name: F1
Note OFF: Time 335880, Note Name: C2
Note ON: Time 336000, Note Name: F1, Velocity: 25
Note ON: Time 336000, Note Name: C2, Velocity: 30
Note OFF: Time 336120, Note Name: C2
Note OFF: Time 336120, Note Name: F1
Note ON: Time 336240, Note Name: F1, Velocity: 22
Note ON: Time 336240, Note Name: C2, Velocity: 27
Note OFF: Time 336360, Note Name: C2
Note OFF: Time 336360, Note Name: F1
Note ON: Time 336480, Note Name: F1, Velocity: 23
Note ON: Time 336480, Note Name: C2, Velocity: 28
Note OFF: Time 336600, Note Name: C2
Note OFF: Time 336600, Note Name: F1
Note ON: Time 336720, Note Name: F1, Velocity: 24
Note ON: Time 336720, Note Name: C2, Velocity: 29
Note OFF: Time 336840, Note Name: C2
Note OFF: Time 336840, Note Name: F1
Note ON: Time 336960, Note Name: F1, Velocity: 25
Note ON: Time 336960, Note Name: C2, Velocity: 30
Note OFF: Time 337080, Note Name: C2
Note OFF: Time 337080, Note Name: F1
Note ON: Time 337200, Note Name: F1, Velocity: 25
Note ON: Time 337200, Note Name: C2, Velocity: 30
Note OFF: Time 337320, Note Name: C2
Note OFF: Time 337320, Note Name: F1
Note ON: Time 337440, Note Name: F1, Velocity: 25
Note ON: Time 337440, Note Name: D2, Velocity: 30
Note OFF: Time 337560, Note Name: D2
Note OFF: Time 337560, Note Name: F1
Note ON: Time 337680, Note Name: F1, Velocity: 25
Note ON: Time 337680, Note Name: D2, Velocity: 30
Note OFF: Time 337800, Note Name: D2
Note OFF: Time 337800, Note Name: F1
Note ON: Time 337920, Note Name: E2, Velocity: 25
Note ON: Time 337920, Note Name: G2, Velocity: 30
Note OFF: Time 338100, Note Name: G2
Note OFF: Time 338100, Note Name: E2
Note ON: Time 338160, Note Name: E2, Velocity: 25
Note ON: Time 338160, Note Name: G2, Velocity: 30
Note OFF: Time 338340, Note Name: G2
Note OFF: Time 338340, Note Name: E2
Note ON: Time 338400, Note Name: E2, Velocity: 25
Note ON: Time 338400, Note Name: G2, Velocity: 30
Note OFF: Time 338580, Note Name: G2
Note OFF: Time 338580, Note Name: E2
Note ON: Time 338640, Note Name: E2, Velocity: 25
Note ON: Time 338640, Note Name: G2, Velocity: 30
Note OFF: Time 338820, Note Name: G2
Note OFF: Time 338820, Note Name: E2
Note ON: Time 338880, Note Name: E2, Velocity: 25
Note ON: Time 338880, Note Name: G2, Velocity: 30
Note OFF: Time 339060, Note Name: G2
Note OFF: Time 339060, Note Name: E2
Note ON: Time 339120, Note Name: E2, Velocity: 25
Note ON: Time 339120, Note Name: G2, Velocity: 30
Note OFF: Time 339300, Note Name: G2
Note OFF: Time 339300, Note Name: E2
Note ON: Time 339360, Note Name: E2, Velocity: 25
Note ON: Time 339360, Note Name: G2, Velocity: 30
Note OFF: Time 339540, Note Name: G2
Note OFF: Time 339540, Note Name: E2
Note ON: Time 339600, Note Name: E2, Velocity: 25
Note ON: Time 339600, Note Name: G2, Velocity: 30
Note OFF: Time 339780, Note Name: G2
Note OFF: Time 339780, Note Name: E2
Note ON: Time 339840, Note Name: D#2, Velocity: 25
Note ON: Time 339840, Note Name: G2, Velocity: 30
Note OFF: Time 340020, Note Name: G2
Note OFF: Time 340020, Note Name: D#2
Note ON: Time 340080, Note Name: D#2, Velocity: 25
Note ON: Time 340080, Note Name: G2, Velocity: 30
Note OFF: Time 340260, Note Name: G2
Note OFF: Time 340260, Note Name: D#2
Note ON: Time 340320, Note Name: D#2, Velocity: 25
Note ON: Time 340320, Note Name: G2, Velocity: 30
Note OFF: Time 340500, Note Name: G2
Note OFF: Time 340500, Note Name: D#2
Note ON: Time 340560, Note Name: D#2, Velocity: 25
Note ON: Time 340560, Note Name: G2, Velocity: 30
Note OFF: Time 340740, Note Name: G2
Note OFF: Time 340740, Note Name: D#2
Note ON: Time 340800, Note Name: D#2, Velocity: 25
Note ON: Time 340800, Note Name: G2, Velocity: 30
Note OFF: Time 340980, Note Name: G2
Note OFF: Time 340980, Note Name: D#2
Note ON: Time 341040, Note Name: D#2, Velocity: 25
Note ON: Time 341040, Note Name: G2, Velocity: 30
Note OFF: Time 341220, Note Name: G2
Note OFF: Time 341220, Note Name: D#2
Note ON: Time 341280, Note Name: D#2, Velocity: 25
Note ON: Time 341280, Note Name: G2, Velocity: 30
Note OFF: Time 341460, Note Name: G2
Note OFF: Time 341460, Note Name: D#2
Note ON: Time 341520, Note Name: D#2, Velocity: 25
Note ON: Time 341520, Note Name: G2, Velocity: 30
Note OFF: Time 341700, Note Name: G2
Note OFF: Time 341700, Note Name: D#2
Note ON: Time 341760, Note Name: D2, Velocity: 25
Note ON: Time 341760, Note Name: A2, Velocity: 30
Note OFF: Time 341940, Note Name: A2
Note OFF: Time 341940, Note Name: D2
Note ON: Time 342000, Note Name: D2, Velocity: 25
Note ON: Time 342000, Note Name: A2, Velocity: 30
Note OFF: Time 342180, Note Name: A2
Note OFF: Time 342180, Note Name: D2
Note ON: Time 342240, Note Name: D2, Velocity: 25
Note ON: Time 342240, Note Name: A2, Velocity: 30
Note OFF: Time 342420, Note Name: A2
Note OFF: Time 342420, Note Name: D2
Note ON: Time 342480, Note Name: D2, Velocity: 25
Note ON: Time 342480, Note Name: A2, Velocity: 30
Note OFF: Time 342660, Note Name: A2
Note OFF: Time 342660, Note Name: D2
Note ON: Time 342720, Note Name: D2, Velocity: 25
Note ON: Time 342720, Note Name: A2, Velocity: 30
Note OFF: Time 342900, Note Name: A2
Note OFF: Time 342900, Note Name: D2
Note ON: Time 342960, Note Name: D2, Velocity: 25
Note ON: Time 342960, Note Name: A2, Velocity: 30
Note OFF: Time 343140, Note Name: A2
Note OFF: Time 343140, Note Name: D2
Note ON: Time 343200, Note Name: D2, Velocity: 25
Note ON: Time 343200, Note Name: A2, Velocity: 30
Note OFF: Time 343380, Note Name: A2
Note OFF: Time 343380, Note Name: D2
Note ON: Time 343440, Note Name: D2, Velocity: 25
Note ON: Time 343440, Note Name: A2, Velocity: 30
Note OFF: Time 343620, Note Name: A2
Note OFF: Time 343620, Note Name: D2
Note ON: Time 343680, Note Name: F#2, Velocity: 25
Note ON: Time 343680, Note Name: D3, Velocity: 30
Note OFF: Time 343860, Note Name: D3
Note OFF: Time 343860, Note Name: F#2
Note ON: Time 343920, Note Name: F#2, Velocity: 25
Note ON: Time 343920, Note Name: D3, Velocity: 30
Note OFF: Time 344100, Note Name: D3
Note OFF: Time 344100, Note Name: F#2
Note ON: Time 344160, Note Name: F#2, Velocity: 25
Note ON: Time 344160, Note Name: D3, Velocity: 30
Note OFF: Time 344340, Note Name: D3
Note OFF: Time 344340, Note Name: F#2
Note ON: Time 344400, Note Name: F#2, Velocity: 25
Note ON: Time 344400, Note Name: D3, Velocity: 30
Note OFF: Time 344580, Note Name: D3
Note OFF: Time 344580, Note Name: F#2
Note ON: Time 344640, Note Name: F#2, Velocity: 25
Note ON: Time 344640, Note Name: D3, Velocity: 30
Note OFF: Time 344820, Note Name: D3
Note OFF: Time 344820, Note Name: F#2
Note ON: Time 344880, Note Name: F#2, Velocity: 25
Note ON: Time 344880, Note Name: D3, Velocity: 30
Note OFF: Time 345060, Note Name: D3
Note OFF: Time 345060, Note Name: F#2
Note ON: Time 345120, Note Name: F#2, Velocity: 25
Note ON: Time 345120, Note Name: D3, Velocity: 30
Note OFF: Time 345300, Note Name: D3
Note OFF: Time 345300, Note Name: F#2
Note ON: Time 345360, Note Name: F#2, Velocity: 25
Note ON: Time 345360, Note Name: D3, Velocity: 30
Note OFF: Time 345540, Note Name: D3
Note OFF: Time 345540, Note Name: F#2
Note ON: Time 345600, Note Name: G2, Velocity: 30
Note ON: Time 345720, Note Name: D3, Velocity: 26
Note OFF: Time 345765, Note Name: G2
Note OFF: Time 345840, Note Name: D3
Note ON: Time 345840, Note Name: G2, Velocity: 30
Note ON: Time 345960, Note Name: D3, Velocity: 27
Note OFF: Time 346005, Note Name: G2
Note OFF: Time 346080, Note Name: D3
Note ON: Time 346080, Note Name: G2, Velocity: 30
Note ON: Time 346200, Note Name: D3, Velocity: 26
Note OFF: Time 346245, Note Name: G2
Note OFF: Time 346320, Note Name: D3
Note ON: Time 346320, Note Name: G2, Velocity: 30
Note ON: Time 346440, Note Name: D3, Velocity: 25
Note OFF: Time 346485, Note Name: G2
Note OFF: Time 346560, Note Name: D3
Note ON: Time 346560, Note Name: A2, Velocity: 31
Note ON: Time 346680, Note Name: D3, Velocity: 26
Note OFF: Time 346725, Note Name: A2
Note OFF: Time 346800, Note Name: D3
Note ON: Time 346800, Note Name: A2, Velocity: 31
Note ON: Time 346920, Note Name: D3, Velocity: 27
Note OFF: Time 346965, Note Name: A2
Note OFF: Time 347040, Note Name: D3
Note ON: Time 347040, Note Name: A2, Velocity: 31
Note ON: Time 347160, Note Name: D3, Velocity: 28
Note OFF: Time 347205, Note Name: A2
Note OFF: Time 347280, Note Name: D3
Note ON: Time 347280, Note Name: A2, Velocity: 31
Note ON: Time 347400, Note Name: D3, Velocity: 27
Note OFF: Time 347445, Note Name: A2
Note OFF: Time 347520, Note Name: D3
Note ON: Time 347520, Note Name: A#2, Velocity: 30
Note ON: Time 347640, Note Name: D3, Velocity: 26
Note OFF: Time 347685, Note Name: A#2
Note OFF: Time 347760, Note Name: D3
Note ON: Time 347760, Note Name: A#2, Velocity: 30
Note ON: Time 347880, Note Name: D3, Velocity: 27
Note OFF: Time 347925, Note Name: A#2
Note OFF: Time 348000, Note Name: D3
Note ON: Time 348000, Note Name: A#2, Velocity: 30
Note ON: Time 348120, Note Name: D3, Velocity: 26
Note OFF: Time 348165, Note Name: A#2
Note OFF: Time 348240, Note Name: D3
Note ON: Time 348240, Note Name: A#2, Velocity: 30
Note ON: Time 348360, Note Name: D3, Velocity: 25
Note OFF: Time 348405, Note Name: A#2
Note OFF: Time 348480, Note Name: D3
Note ON: Time 348480, Note Name: F#2, Velocity: 31
Note ON: Time 348600, Note Name: D3, Velocity: 26
Note OFF: Time 348645, Note Name: F#2
Note OFF: Time 348720, Note Name: D3
Note ON: Time 348720, Note Name: F#2, Velocity: 31
Note ON: Time 348840, Note Name: D3, Velocity: 27
Note OFF: Time 348885, Note Name: F#2
Note OFF: Time 348960, Note Name: D3
Note ON: Time 348960, Note Name: F#2, Velocity: 31
Note ON: Time 349080, Note Name: D3, Velocity: 28
Note OFF: Time 349125, Note Name: F#2
Note OFF: Time 349200, Note Name: D3
Note ON: Time 349200, Note Name: F#2, Velocity: 31
Note ON: Time 349320, Note Name: D3, Velocity: 27
Note OFF: Time 349365, Note Name: F#2
Note OFF: Time 349440, Note Name: D3
Note ON: Time 349440, Note Name: G2, Velocity: 31
Note ON: Time 349560, Note Name: D3, Velocity: 27
Note OFF: Time 349605, Note Name: G2
Note OFF: Time 349680, Note Name: D3
Note ON: Time 349680, Note Name: G2, Velocity: 31
Note ON: Time 349800, Note Name: D3, Velocity: 29
Note OFF: Time 349845, Note Name: G2
Note OFF: Time 349920, Note Name: D3
Note ON: Time 349920, Note Name: G2, Velocity: 32
Note ON: Time 350040, Note Name: D3, Velocity: 28
Note OFF: Time 350085, Note Name: G2
Note OFF: Time 350160, Note Name: D3
Note ON: Time 350160, Note Name: G2, Velocity: 34
Note ON: Time 350280, Note Name: D3, Velocity: 29
Note OFF: Time 350325, Note Name: G2
Note OFF: Time 350400, Note Name: D3
Note ON: Time 350400, Note Name: A2, Velocity: 36
Note ON: Time 350520, Note Name: D3, Velocity: 31
Note OFF: Time 350565, Note Name: A2
Note OFF: Time 350640, Note Name: D3
Note ON: Time 350640, Note Name: A2, Velocity: 38
Note ON: Time 350760, Note Name: D3, Velocity: 35
Note OFF: Time 350805, Note Name: A2
Note OFF: Time 350880, Note Name: D3
Note ON: Time 350880, Note Name: A2, Velocity: 40
Note ON: Time 351000, Note Name: D3, Velocity: 37
Note OFF: Time 351045, Note Name: A2
Note OFF: Time 351120, Note Name: D3
Note ON: Time 351120, Note Name: A2, Velocity: 43
Note ON: Time 351240, Note Name: D3, Velocity: 38
Note OFF: Time 351285, Note Name: A2
Note OFF: Time 351360, Note Name: D3
Note ON: Time 351360, Note Name: A#2, Velocity: 45
Note ON: Time 351480, Note Name: D3, Velocity: 39
Note OFF: Time 351525, Note Name: A#2
Note OFF: Time 351600, Note Name: D3
Note ON: Time 351600, Note Name: A#2, Velocity: 48
Note ON: Time 351720, Note Name: D3, Velocity: 42
Note OFF: Time 351765, Note Name: A#2
Note OFF: Time 351840, Note Name: D3
Note ON: Time 351840, Note Name: A#2, Velocity: 50
Note ON: Time 351960, Note Name: G3, Velocity: 46
Note OFF: Time 352005, Note Name: A#2
Note OFF: Time 352080, Note Name: G3
Note ON: Time 352080, Note Name: A#2, Velocity: 54
Note ON: Time 352200, Note Name: G3, Velocity: 51
Note OFF: Time 352245, Note Name: A#2
Note OFF: Time 352320, Note Name: G3
Note ON: Time 352320, Note Name: B2, Velocity: 64
Note ON: Time 352440, Note Name: G3, Velocity: 53
Note OFF: Time 352485, Note Name: B2
Note OFF: Time 352560, Note Name: G3
Note ON: Time 352560, Note Name: B2, Velocity: 64
Note ON: Time 352680, Note Name: G3, Velocity: 56
Note OFF: Time 352725, Note Name: B2
Note OFF: Time 352800, Note Name: G3
Note ON: Time 352800, Note Name: B2, Velocity: 66
Note ON: Time 352920, Note Name: G3, Velocity: 59
Note OFF: Time 352965, Note Name: B2
Note OFF: Time 353040, Note Name: G3
Note ON: Time 353040, Note Name: B2, Velocity: 66
Note ON: Time 353160, Note Name: G3, Velocity: 57
Note OFF: Time 353205, Note Name: B2
Note OFF: Time 353280, Note Name: G3
Note ON: Time 353280, Note Name: C3, Velocity: 30
Note ON: Time 353400, Note Name: G3, Velocity: 26
Note OFF: Time 353445, Note Name: C3
Note OFF: Time 353520, Note Name: G3
Note ON: Time 353520, Note Name: C3, Velocity: 30
Note ON: Time 353640, Note Name: G3, Velocity: 27
Note OFF: Time 353685, Note Name: C3
Note OFF: Time 353760, Note Name: G3
Note ON: Time 353760, Note Name: C3, Velocity: 30
Note ON: Time 353880, Note Name: G3, Velocity: 26
Note OFF: Time 353925, Note Name: C3
Note OFF: Time 354000, Note Name: G3
Note ON: Time 354000, Note Name: C3, Velocity: 30
Note ON: Time 354120, Note Name: G3, Velocity: 25
Note OFF: Time 354165, Note Name: C3
Note OFF: Time 354240, Note Name: G3
Note ON: Time 354240, Note Name: D3, Velocity: 31
Note ON: Time 354360, Note Name: G3, Velocity: 26
Note OFF: Time 354405, Note Name: D3
Note OFF: Time 354480, Note Name: G3
Note ON: Time 354480, Note Name: D3, Velocity: 31
Note ON: Time 354600, Note Name: G3, Velocity: 27
Note OFF: Time 354645, Note Name: D3
Note OFF: Time 354720, Note Name: G3
Note ON: Time 354720, Note Name: D3, Velocity: 31
Note ON: Time 354840, Note Name: G3, Velocity: 28
Note OFF: Time 354885, Note Name: D3
Note OFF: Time 354960, Note Name: G3
Note ON: Time 354960, Note Name: D3, Velocity: 31
Note ON: Time 355080, Note Name: G3, Velocity: 27
Note OFF: Time 355125, Note Name: D3
Note OFF: Time 355200, Note Name: G3
Note ON: Time 355200, Note Name: D#3, Velocity: 30
Note ON: Time 355320, Note Name: G3, Velocity: 26
Note OFF: Time 355365, Note Name: D#3
Note OFF: Time 355440, Note Name: G3
Note ON: Time 355440, Note Name: D#3, Velocity: 30
Note ON: Time 355560, Note Name: G3, Velocity: 27
Note OFF: Time 355605, Note Name: D#3
Note OFF: Time 355680, Note Name: G3
Note ON: Time 355680, Note Name: D#3, Velocity: 30
Note ON: Time 355800, Note Name: G3, Velocity: 26
Note OFF: Time 355845, Note Name: D#3
Note OFF: Time 355920, Note Name: G3
Note ON: Time 355920, Note Name: D#3, Velocity: 30
Note ON: Time 356040, Note Name: G3, Velocity: 25
Note OFF: Time 356085, Note Name: D#3
Note OFF: Time 356160, Note Name: G3
Note ON: Time 356160, Note Name: B2, Velocity: 31
Note ON: Time 356280, Note Name: G3, Velocity: 26
Note OFF: Time 356325, Note Name: B2
Note OFF: Time 356400, Note Name: G3
Note ON: Time 356400, Note Name: B2, Velocity: 31
Note ON: Time 356520, Note Name: G3, Velocity: 27
Note OFF: Time 356565, Note Name: B2
Note OFF: Time 356640, Note Name: G3
Note ON: Time 356640, Note Name: B2, Velocity: 31
Note ON: Time 356760, Note Name: G3, Velocity: 28
Note OFF: Time 356805, Note Name: B2
Note OFF: Time 356880, Note Name: G3
Note ON: Time 356880, Note Name: B2, Velocity: 31
Note ON: Time 357000, Note Name: G3, Velocity: 27
Note OFF: Time 357045, Note Name: B2
Note OFF: Time 357120, Note Name: G3
Note ON: Time 357120, Note Name: C3, Velocity: 31
Note ON: Time 357240, Note Name: G3, Velocity: 27
Note OFF: Time 357285, Note Name: C3
Note OFF: Time 357360, Note Name: G3
Note ON: Time 357360, Note Name: C3, Velocity: 31
Note ON: Time 357480, Note Name: G3, Velocity: 29
Note OFF: Time 357525, Note Name: C3
Note OFF: Time 357600, Note Name: G3
Note ON: Time 357600, Note Name: C3, Velocity: 32
Note ON: Time 357720, Note Name: G3, Velocity: 28
Note OFF: Time 357765, Note Name: C3
Note OFF: Time 357840, Note Name: G3
Note ON: Time 357840, Note Name: C3, Velocity: 34
Note ON: Time 357960, Note Name: G3, Velocity: 29
Note OFF: Time 358005, Note Name: C3
Note OFF: Time 358080, Note Name: G3
Note ON: Time 358080, Note Name: D3, Velocity: 36
Note ON: Time 358200, Note Name: G3, Velocity: 31
Note OFF: Time 358245, Note Name: D3
Note OFF: Time 358320, Note Name: G3
Note ON: Time 358320, Note Name: D3, Velocity: 38
Note ON: Time 358440, Note Name: G3, Velocity: 35
Note OFF: Time 358485, Note Name: D3
Note OFF: Time 358560, Note Name: G3
Note ON: Time 358560, Note Name: D3, Velocity: 40
Note ON: Time 358680, Note Name: G3, Velocity: 37
Note OFF: Time 358725, Note Name: D3
Note OFF: Time 358800, Note Name: G3
Note ON: Time 358800, Note Name: D3, Velocity: 43
Note ON: Time 358920, Note Name: G3, Velocity: 38
Note OFF: Time 358965, Note Name: D3
Note OFF: Time 359040, Note Name: G3
Note ON: Time 359040, Note Name: D#3, Velocity: 45
Note ON: Time 359160, Note Name: G3, Velocity: 39
Note OFF: Time 359205, Note Name: D#3
Note OFF: Time 359280, Note Name: G3
Note ON: Time 359280, Note Name: D#3, Velocity: 48
Note ON: Time 359400, Note Name: G3, Velocity: 42
Note OFF: Time 359445, Note Name: D#3
Note OFF: Time 359520, Note Name: G3
Note ON: Time 359520, Note Name: D#3, Velocity: 50
Note ON: Time 359640, Note Name: C4, Velocity: 46
Note OFF: Time 359685, Note Name: D#3
Note OFF: Time 359760, Note Name: C4
Note ON: Time 359760, Note Name: D#3, Velocity: 54
Note ON: Time 359880, Note Name: C4, Velocity: 47
Note OFF: Time 359925, Note Name: D#3
Note OFF: Time 360000, Note Name: C4
Note ON: Time 360000, Note Name: E3, Velocity: 64
Note ON: Time 360120, Note Name: C4, Velocity: 53
Note OFF: Time 360165, Note Name: E3
Note OFF: Time 360240, Note Name: C4
Note ON: Time 360240, Note Name: E3, Velocity: 64
Note ON: Time 360360, Note Name: C4, Velocity: 56
Note OFF: Time 360405, Note Name: E3
Note OFF: Time 360480, Note Name: C4
Note ON: Time 360480, Note Name: E3, Velocity: 66
Note ON: Time 360600, Note Name: C4, Velocity: 59
Note OFF: Time 360645, Note Name: E3
Note OFF: Time 360720, Note Name: C4
Note ON: Time 360720, Note Name: E3, Velocity: 66
Note ON: Time 360840, Note Name: C4, Velocity: 57
Note OFF: Time 360885, Note Name: E3
Note OFF: Time 360960, Note Name: C4
Note ON: Time 360960, Note Name: F3, Velocity: 25
Note OFF: Time 361080, Note Name: F3
Note ON: Time 361080, Note Name: G#3, Velocity: 22
Note OFF: Time 361200, Note Name: G#3
Note ON: Time 361200, Note Name: C4, Velocity: 22
Note OFF: Time 361320, Note Name: C4
Note ON: Time 361320, Note Name: F4, Velocity: 22
Note OFF: Time 361440, Note Name: F4
Note ON: Time 361440, Note Name: F3, Velocity: 25
Note OFF: Time 361560, Note Name: F3
Note ON: Time 361560, Note Name: G#3, Velocity: 22
Note OFF: Time 361680, Note Name: G#3
Note ON: Time 361680, Note Name: C4, Velocity: 22
Note OFF: Time 361800, Note Name: C4
Note ON: Time 361800, Note Name: F4, Velocity: 22
Note OFF: Time 361920, Note Name: F4
Note ON: Time 361920, Note Name: F3, Velocity: 26
Note OFF: Time 362040, Note Name: F3
Note ON: Time 362040, Note Name: A#3, Velocity: 22
Note OFF: Time 362160, Note Name: A#3
Note ON: Time 362160, Note Name: C#4, Velocity: 22
Note OFF: Time 362280, Note Name: C#4
Note ON: Time 362280, Note Name: F4, Velocity: 22
Note OFF: Time 362400, Note Name: F4
Note ON: Time 362400, Note Name: F3, Velocity: 26
Note OFF: Time 362520, Note Name: F3
Note ON: Time 362520, Note Name: A#3, Velocity: 23
Note OFF: Time 362640, Note Name: A#3
Note ON: Time 362640, Note Name: C#4, Velocity: 22
Note OFF: Time 362760, Note Name: C#4
Note ON: Time 362760, Note Name: F4, Velocity: 22
Note OFF: Time 362880, Note Name: F4
Note ON: Time 362880, Note Name: E3, Velocity: 25
Note OFF: Time 363000, Note Name: E3
Note ON: Time 363000, Note Name: F#3, Velocity: 22
Note OFF: Time 363120, Note Name: F#3
Note ON: Time 363120, Note Name: A#3, Velocity: 22
Note OFF: Time 363240, Note Name: A#3
Note ON: Time 363240, Note Name: C#4, Velocity: 22
Note OFF: Time 363360, Note Name: C#4
Note ON: Time 363360, Note Name: E3, Velocity: 25
Note OFF: Time 363480, Note Name: E3
Note ON: Time 363480, Note Name: F#3, Velocity: 22
Note OFF: Time 363600, Note Name: F#3
Note ON: Time 363600, Note Name: A#3, Velocity: 22
Note OFF: Time 363720, Note Name: A#3
Note ON: Time 363720, Note Name: C#4, Velocity: 22
Note OFF: Time 363840, Note Name: C#4
Note ON: Time 363840, Note Name: D#3, Velocity: 26
Note OFF: Time 363960, Note Name: D#3
Note ON: Time 363960, Note Name: F#3, Velocity: 22
Note OFF: Time 364080, Note Name: F#3
Note ON: Time 364080, Note Name: B3, Velocity: 22
Note OFF: Time 364200, Note Name: B3
Note ON: Time 364200, Note Name: D#4, Velocity: 22
Note OFF: Time 364320, Note Name: D#4
Note ON: Time 364320, Note Name: D#3, Velocity: 26
Note OFF: Time 364440, Note Name: D#3
Note ON: Time 364440, Note Name: F#3, Velocity: 23
Note OFF: Time 364560, Note Name: F#3
Note ON: Time 364560, Note Name: B3, Velocity: 22
Note OFF: Time 364680, Note Name: B3
Note ON: Time 364680, Note Name: D#4, Velocity: 22
Note OFF: Time 364800, Note Name: D#4
Note ON: Time 364800, Note Name: D#3, Velocity: 25
Note OFF: Time 364920, Note Name: D#3
Note ON: Time 364920, Note Name: F3, Velocity: 22
Note OFF: Time 365040, Note Name: F3
Note ON: Time 365040, Note Name: A3, Velocity: 22
Note OFF: Time 365160, Note Name: A3
Note ON: Time 365160, Note Name: C4, Velocity: 22
Note OFF: Time 365280, Note Name: C4
Note ON: Time 365280, Note Name: D#3, Velocity: 25
Note OFF: Time 365400, Note Name: D#3
Note ON: Time 365400, Note Name: F3, Velocity: 22
Note OFF: Time 365520, Note Name: F3
Note ON: Time 365520, Note Name: A3, Velocity: 22
Note OFF: Time 365640, Note Name: A3
Note ON: Time 365640, Note Name: C4, Velocity: 22
Note OFF: Time 365760, Note Name: C4
Note ON: Time 365760, Note Name: C#3, Velocity: 26
Note OFF: Time 365880, Note Name: C#3
Note ON: Time 365880, Note Name: F3, Velocity: 22
Note OFF: Time 366000, Note Name: F3
Note ON: Time 366000, Note Name: A#3, Velocity: 22
Note OFF: Time 366120, Note Name: A#3
Note ON: Time 366120, Note Name: C#4, Velocity: 22
Note OFF: Time 366240, Note Name: C#4
Note ON: Time 366240, Note Name: C#3, Velocity: 26
Note OFF: Time 366360, Note Name: C#3
Note ON: Time 366360, Note Name: F3, Velocity: 23
Note OFF: Time 366480, Note Name: F3
Note ON: Time 366480, Note Name: A#3, Velocity: 22
Note OFF: Time 366600, Note Name: A#3
Note ON: Time 366600, Note Name: C#4, Velocity: 22
Note OFF: Time 366720, Note Name: C#4
Note ON: Time 366720, Note Name: C#3, Velocity: 25
Note OFF: Time 366840, Note Name: C#3
Note ON: Time 366840, Note Name: D#3, Velocity: 22
Note OFF: Time 366960, Note Name: D#3
Note ON: Time 366960, Note Name: G3, Velocity: 22
Note OFF: Time 367080, Note Name: G3
Note ON: Time 367080, Note Name: A#3, Velocity: 22
Note OFF: Time 367200, Note Name: A#3
Note ON: Time 367200, Note Name: C#3, Velocity: 25
Note OFF: Time 367320, Note Name: C#3
Note ON: Time 367320, Note Name: D#3, Velocity: 22
Note OFF: Time 367440, Note Name: D#3
Note ON: Time 367440, Note Name: G3, Velocity: 22
Note OFF: Time 367560, Note Name: G3
Note ON: Time 367560, Note Name: A#3, Velocity: 22
Note OFF: Time 367680, Note Name: A#3
Note ON: Time 367680, Note Name: C3, Velocity: 26
Note OFF: Time 367800, Note Name: C3
Note ON: Time 367800, Note Name: D#3, Velocity: 22
Note OFF: Time 367920, Note Name: D#3
Note ON: Time 367920, Note Name: G#3, Velocity: 22
Note OFF: Time 368040, Note Name: G#3
Note ON: Time 368040, Note Name: C4, Velocity: 22
Note OFF: Time 368160, Note Name: C4
Note ON: Time 368160, Note Name: C3, Velocity: 26
Note OFF: Time 368280, Note Name: C3
Note ON: Time 368280, Note Name: D#3, Velocity: 23
Note OFF: Time 368400, Note Name: D#3
Note ON: Time 368400, Note Name: G#3, Velocity: 22
Note OFF: Time 368520, Note Name: G#3
Note ON: Time 368520, Note Name: C4, Velocity: 22
Note OFF: Time 368640, Note Name: C4
Note ON: Time 368640, Note Name: B2, Velocity: 25
Note OFF: Time 368760, Note Name: B2
Note ON: Time 368760, Note Name: C#3, Velocity: 22
Note OFF: Time 368880, Note Name: C#3
Note ON: Time 368880, Note Name: F3, Velocity: 22
Note OFF: Time 369000, Note Name: F3
Note ON: Time 369000, Note Name: G#3, Velocity: 22
Note OFF: Time 369120, Note Name: G#3
Note ON: Time 369120, Note Name: B2, Velocity: 25
Note OFF: Time 369240, Note Name: B2
Note ON: Time 369240, Note Name: C#3, Velocity: 22
Note OFF: Time 369360, Note Name: C#3
Note ON: Time 369360, Note Name: F3, Velocity: 22
Note OFF: Time 369480, Note Name: F3
Note ON: Time 369480, Note Name: G#3, Velocity: 22
Note OFF: Time 369600, Note Name: G#3
Note ON: Time 369600, Note Name: A#2, Velocity: 26
Note OFF: Time 369720, Note Name: A#2
Note ON: Time 369720, Note Name: C#3, Velocity: 22
Note OFF: Time 369840, Note Name: C#3
Note ON: Time 369840, Note Name: F#3, Velocity: 22
Note OFF: Time 369960, Note Name: F#3
Note ON: Time 369960, Note Name: A#3, Velocity: 22
Note OFF: Time 370080, Note Name: A#3
Note ON: Time 370080, Note Name: A#2, Velocity: 26
Note OFF: Time 370200, Note Name: A#2
Note ON: Time 370200, Note Name: C#3, Velocity: 23
Note OFF: Time 370320, Note Name: C#3
Note ON: Time 370320, Note Name: F#3, Velocity: 22
Note OFF: Time 370440, Note Name: F#3
Note ON: Time 370440, Note Name: A#3, Velocity: 22
Note OFF: Time 370560, Note Name: A#3
Note ON: Time 370560, Note Name: A#2, Velocity: 26
Note OFF: Time 370680, Note Name: A#2
Note ON: Time 370680, Note Name: C3, Velocity: 23
Note OFF: Time 370800, Note Name: C3
Note ON: Time 370800, Note Name: E3, Velocity: 23
Note OFF: Time 370920, Note Name: E3
Note ON: Time 370920, Note Name: G3, Velocity: 23
Note OFF: Time 371040, Note Name: G3
Note ON: Time 371040, Note Name: A#2, Velocity: 26
Note OFF: Time 371160, Note Name: A#2
Note ON: Time 371160, Note Name: C3, Velocity: 23
Note OFF: Time 371280, Note Name: C3
Note ON: Time 371280, Note Name: E3, Velocity: 23
Note OFF: Time 371400, Note Name: E3
Note ON: Time 371400, Note Name: G3, Velocity: 23
Note OFF: Time 371520, Note Name: G3
Note ON: Time 371520, Note Name: G#2, Velocity: 27
Note OFF: Time 371640, Note Name: G#2
Note ON: Time 371640, Note Name: C3, Velocity: 23
Note OFF: Time 371760, Note Name: C3
Note ON: Time 371760, Note Name: F3, Velocity: 23
Note OFF: Time 371880, Note Name: F3
Note ON: Time 371880, Note Name: G#3, Velocity: 23
Note OFF: Time 372000, Note Name: G#3
Note ON: Time 372000, Note Name: G#2, Velocity: 28
Note OFF: Time 372120, Note Name: G#2
Note ON: Time 372120, Note Name: C3, Velocity: 25
Note OFF: Time 372240, Note Name: C3
Note ON: Time 372240, Note Name: F3, Velocity: 23
Note OFF: Time 372360, Note Name: F3
Note ON: Time 372360, Note Name: G#3, Velocity: 23
Note OFF: Time 372480, Note Name: G#3
Note ON: Time 372480, Note Name: G2, Velocity: 32
Note OFF: Time 372600, Note Name: G2
Note ON: Time 372600, Note Name: A#2, Velocity: 28
Note OFF: Time 372720, Note Name: A#2
Note ON: Time 372720, Note Name: E3, Velocity: 28
Note OFF: Time 372840, Note Name: E3
Note ON: Time 372840, Note Name: G3, Velocity: 29
Note OFF: Time 372960, Note Name: G3
Note ON: Time 372960, Note Name: G2, Velocity: 34
Note OFF: Time 373080, Note Name: G2
Note ON: Time 373080, Note Name: A#2, Velocity: 29
Note OFF: Time 373200, Note Name: A#2
Note ON: Time 373200, Note Name: E3, Velocity: 31
Note OFF: Time 373320, Note Name: E3
Note ON: Time 373320, Note Name: G3, Velocity: 32
Note OFF: Time 373440, Note Name: G3
Note ON: Time 373440, Note Name: F2, Velocity: 39
Note OFF: Time 373560, Note Name: F2
Note ON: Time 373560, Note Name: G#2, Velocity: 33
Note OFF: Time 373680, Note Name: G#2
Note ON: Time 373680, Note Name: C3, Velocity: 33
Note OFF: Time 373800, Note Name: C3
Note ON: Time 373800, Note Name: F3, Velocity: 34
Note OFF: Time 373920, Note Name: F3
Note ON: Time 373920, Note Name: F2, Velocity: 41
Note OFF: Time 374080, Note Name: F2
Note ON: Time 374080, Note Name: G#2, Velocity: 35
Note OFF: Time 374240, Note Name: G#2
Note ON: Time 374240, Note Name: F3, Velocity: 36
Note OFF: Time 374400, Note Name: F3
Note ON: Time 374400, Note Name: E2, Velocity: 44
Note OFF: Time 374560, Note Name: E2
Note ON: Time 374560, Note Name: G2, Velocity: 45
Note OFF: Time 374720, Note Name: G2
Note ON: Time 374720, Note Name: E3, Velocity: 47
Note OFF: Time 374880, Note Name: E3
Note ON: Time 374880, Note Name: D#2, Velocity: 47
Note OFF: Time 375040, Note Name: D#2
Note ON: Time 375040, Note Name: G2, Velocity: 49
Note OFF: Time 375200, Note Name: G2
Note ON: Time 375200, Note Name: D#3, Velocity: 51
Note OFF: Time 375360, Note Name: D#3
Note ON: Time 375360, Note Name: D2, Velocity: 54
Note OFF: Time 375520, Note Name: D2
Note ON: Time 375520, Note Name: F2, Velocity: 53
Note OFF: Time 375680, Note Name: F2
Note ON: Time 375680, Note Name: D3, Velocity: 56
Note OFF: Time 375840, Note Name: D3
Note ON: Time 375840, Note Name: C#2, Velocity: 56
Note OFF: Time 376000, Note Name: C#2
Note ON: Time 376000, Note Name: F2, Velocity: 58
Note OFF: Time 376160, Note Name: F2
Note ON: Time 376160, Note Name: C#3, Velocity: 59
Note OFF: Time 376320, Note Name: C#3
Note ON: Time 376320, Note Name: C2, Velocity: 66
Note ON: Time 376320, Note Name: C3, Velocity: 70
Note OFF: Time 376480, Note Name: C3
Note OFF: Time 376480, Note Name: C2
Note ON: Time 376480, Note Name: G2, Velocity: 61
Note OFF: Time 376640, Note Name: G2
Note ON: Time 376640, Note Name: E2, Velocity: 62
Note OFF: Time 376800, Note Name: E2
Note ON: Time 376800, Note Name: G2, Velocity: 70
Note OFF: Time 376960, Note Name: G2
Note ON: Time 376960, Note Name: C3, Velocity: 63
Note OFF: Time 377120, Note Name: C3
Note ON: Time 377120, Note Name: E3, Velocity: 64
Note OFF: Time 377280, Note Name: E3
Note ON: Time 377280, Note Name: D3, Velocity: 70
Note OFF: Time 377440, Note Name: D3
Note ON: Time 377440, Note Name: B2, Velocity: 63
Note OFF: Time 377600, Note Name: B2
Note ON: Time 377600, Note Name: G2, Velocity: 64
Note OFF: Time 377760, Note Name: G2
Note ON: Time 377760, Note Name: B2, Velocity: 70
Note OFF: Time 377920, Note Name: B2
Note ON: Time 377920, Note Name: D3, Velocity: 65
Note OFF: Time 378080, Note Name: D3
Note ON: Time 378080, Note Name: F3, Velocity: 65
Note OFF: Time 378240, Note Name: F3
Note ON: Time 378240, Note Name: E3, Velocity: 64
Note OFF: Time 378400, Note Name: E3
Note ON: Time 378400, Note Name: G3, Velocity: 56
Note OFF: Time 378560, Note Name: G3
Note ON: Time 378560, Note Name: C4, Velocity: 56
Note OFF: Time 378720, Note Name: C4
Note ON: Time 378720, Note Name: G3, Velocity: 64
Note OFF: Time 378880, Note Name: G3
Note ON: Time 378880, Note Name: E3, Velocity: 57
Note OFF: Time 379040, Note Name: E3
Note ON: Time 379040, Note Name: C3, Velocity: 57
Note OFF: Time 379200, Note Name: C3
Note ON: Time 379200, Note Name: F3, Velocity: 64
Note OFF: Time 379360, Note Name: F3
Note ON: Time 379360, Note Name: G#3, Velocity: 56
Note OFF: Time 379520, Note Name: G#3
Note ON: Time 379520, Note Name: C4, Velocity: 56
Note OFF: Time 379680, Note Name: C4
Note ON: Time 379680, Note Name: G#3, Velocity: 64
Note OFF: Time 379840, Note Name: G#3
Note ON: Time 379840, Note Name: F3, Velocity: 57
Note OFF: Time 380000, Note Name: F3
Note ON: Time 380000, Note Name: C3, Velocity: 58
Note OFF: Time 380160, Note Name: C3
Note ON: Time 380160, Note Name: G3, Velocity: 64
Note ON: Time 380320, Note Name: A#3, Velocity: 56
Note ON: Time 380480, Note Name: C4, Velocity: 56
Note OFF: Time 380640, Note Name: A#3
Note ON: Time 380640, Note Name: A#3, Velocity: 64
Note OFF: Time 380800, Note Name: G3
Note ON: Time 380800, Note Name: G3, Velocity: 57
Note ON: Time 380960, Note Name: C3, Velocity: 57
Note OFF: Time 384000, Note Name: C3
Note OFF: Time 384000, Note Name: C4
Note OFF: Time 384000, Note Name: A#3
Note OFF: Time 384000, Note Name: G3
Note ON: Time 384000, Note Name: F2, Velocity: 66
Note ON: Time 384000, Note Name: F3, Velocity: 70
Note OFF: Time 384160, Note Name: F3
Note OFF: Time 384160, Note Name: F2
Note ON: Time 384160, Note Name: C3, Velocity: 61
Note OFF: Time 384320, Note Name: C3
Note ON: Time 384320, Note Name: A2, Velocity: 62
Note OFF: Time 384480, Note Name: A2
Note ON: Time 384480, Note Name: C3, Velocity: 70
Note OFF: Time 384640, Note Name: C3
Note ON: Time 384640, Note Name: F3, Velocity: 63
Note OFF: Time 384800, Note Name: F3
Note ON: Time 384800, Note Name: A3, Velocity: 64
Note OFF: Time 384960, Note Name: A3
Note ON: Time 384960, Note Name: G3, Velocity: 70
Note OFF: Time 385120, Note Name: G3
Note ON: Time 385120, Note Name: E3, Velocity: 63
Note OFF: Time 385280, Note Name: E3
Note ON: Time 385280, Note Name: C3, Velocity: 64
Note OFF: Time 385440, Note Name: C3
Note ON: Time 385440, Note Name: E3, Velocity: 70
Note OFF: Time 385600, Note Name: E3
Note ON: Time 385600, Note Name: G3, Velocity: 65
Note OFF: Time 385760, Note Name: G3
Note ON: Time 385760, Note Name: A#3, Velocity: 65
Note OFF: Time 385920, Note Name: A#3
Note ON: Time 385920, Note Name: A3, Velocity: 64
Note OFF: Time 386080, Note Name: A3
Note ON: Time 386080, Note Name: C4, Velocity: 56
Note OFF: Time 386240, Note Name: C4
Note ON: Time 386240, Note Name: F4, Velocity: 56
Note OFF: Time 386400, Note Name: F4
Note ON: Time 386400, Note Name: C4, Velocity: 64
Note OFF: Time 386560, Note Name: C4
Note ON: Time 386560, Note Name: A3, Velocity: 57
Note OFF: Time 386720, Note Name: A3
Note ON: Time 386720, Note Name: F3, Velocity: 57
Note OFF: Time 386880, Note Name: F3
Note ON: Time 386880, Note Name: A#3, Velocity: 64
Note OFF: Time 387040, Note Name: A#3
Note ON: Time 387040, Note Name: C#4, Velocity: 56
Note OFF: Time 387200, Note Name: C#4
Note ON: Time 387200, Note Name: F4, Velocity: 56
Note OFF: Time 387360, Note Name: F4
Note ON: Time 387360, Note Name: C#4, Velocity: 64
Note OFF: Time 387520, Note Name: C#4
Note ON: Time 387520, Note Name: A#3, Velocity: 57
Note OFF: Time 387680, Note Name: A#3
Note ON: Time 387680, Note Name: F3, Velocity: 58
Note OFF: Time 387840, Note Name: F3
Note ON: Time 387840, Note Name: C4, Velocity: 64
Note ON: Time 388000, Note Name: D#4, Velocity: 56
Note ON: Time 388160, Note Name: F4, Velocity: 56
Note OFF: Time 388320, Note Name: D#4
Note ON: Time 388320, Note Name: D#4, Velocity: 64
Note OFF: Time 388480, Note Name: C4
Note ON: Time 388480, Note Name: C4, Velocity: 57
Note ON: Time 388640, Note Name: F3, Velocity: 57
Note OFF: Time 391680, Note Name: F3
Note OFF: Time 391680, Note Name: F4
Note OFF: Time 391680, Note Name: D#4
Note OFF: Time 391680, Note Name: C4
Note ON: Time 391680, Note Name: A#1, Velocity: 66
Note ON: Time 391680, Note Name: A#2, Velocity: 70
Note OFF: Time 391840, Note Name: A#2
Note OFF: Time 391840, Note Name: A#1
Note ON: Time 391840, Note Name: F2, Velocity: 61
Note OFF: Time 392000, Note Name: F2
Note ON: Time 392000, Note Name: D2, Velocity: 62
Note OFF: Time 392160, Note Name: D2
Note ON: Time 392160, Note Name: F2, Velocity: 70
Note OFF: Time 392320, Note Name: F2
Note ON: Time 392320, Note Name: A#2, Velocity: 63
Note OFF: Time 392480, Note Name: A#2
Note ON: Time 392480, Note Name: D3, Velocity: 64
Note OFF: Time 392640, Note Name: D3
Note ON: Time 392640, Note Name: C3, Velocity: 70
Note OFF: Time 392800, Note Name: C3
Note ON: Time 392800, Note Name: A2, Velocity: 63
Note OFF: Time 392960, Note Name: A2
Note ON: Time 392960, Note Name: F2, Velocity: 64
Note OFF: Time 393120, Note Name: F2
Note ON: Time 393120, Note Name: A2, Velocity: 70
Note OFF: Time 393280, Note Name: A2
Note ON: Time 393280, Note Name: C3, Velocity: 65
Note OFF: Time 393440, Note Name: C3
Note ON: Time 393440, Note Name: D#3, Velocity: 65
Note OFF: Time 393600, Note Name: D#3
Note ON: Time 393600, Note Name: D3, Velocity: 64
Note OFF: Time 393760, Note Name: D3
Note ON: Time 393760, Note Name: F3, Velocity: 56
Note OFF: Time 393920, Note Name: F3
Note ON: Time 393920, Note Name: A#3, Velocity: 56
Note OFF: Time 394080, Note Name: A#3
Note ON: Time 394080, Note Name: F3, Velocity: 64
Note OFF: Time 394240, Note Name: F3
Note ON: Time 394240, Note Name: D3, Velocity: 57
Note OFF: Time 394400, Note Name: D3
Note ON: Time 394400, Note Name: A#2, Velocity: 57
Note OFF: Time 394560, Note Name: A#2
Note ON: Time 394560, Note Name: D#3, Velocity: 64
Note OFF: Time 394720, Note Name: D#3
Note ON: Time 394720, Note Name: F#3, Velocity: 56
Note OFF: Time 394880, Note Name: F#3
Note ON: Time 394880, Note Name: A#3, Velocity: 56
Note OFF: Time 395040, Note Name: A#3
Note ON: Time 395040, Note Name: F#3, Velocity: 64
Note OFF: Time 395200, Note Name: F#3
Note ON: Time 395200, Note Name: D#3, Velocity: 57
Note OFF: Time 395360, Note Name: D#3
Note ON: Time 395360, Note Name: A#2, Velocity: 58
Note OFF: Time 395520, Note Name: A#2
Note ON: Time 395520, Note Name: F3, Velocity: 64
Note ON: Time 395680, Note Name: G#3, Velocity: 56
Note ON: Time 395840, Note Name: A#3, Velocity: 56
Note OFF: Time 396000, Note Name: G#3
Note ON: Time 396000, Note Name: G#3, Velocity: 64
Note OFF: Time 396160, Note Name: F3
Note ON: Time 396160, Note Name: F3, Velocity: 57
Note ON: Time 396320, Note Name: A#2, Velocity: 57
Note OFF: Time 399360, Note Name: A#2
Note OFF: Time 399360, Note Name: A#3
Note OFF: Time 399360, Note Name: G#3
Note OFF: Time 399360, Note Name: F3
Note ON: Time 399360, Note Name: D#3, Velocity: 64
Note ON: Time 399520, Note Name: F#3, Velocity: 56
Note ON: Time 399680, Note Name: A#3, Velocity: 56
Note OFF: Time 399840, Note Name: F#3
Note ON: Time 399840, Note Name: F#3, Velocity: 64
Note OFF: Time 400000, Note Name: D#3
Note ON: Time 400000, Note Name: D#3, Velocity: 57
Note ON: Time 400160, Note Name: A#2, Velocity: 57
Note OFF: Time 403200, Note Name: A#2
Note OFF: Time 403200, Note Name: A#3
Note OFF: Time 403200, Note Name: F#3
Note OFF: Time 403200, Note Name: D#3
Note ON: Time 403200, Note Name: C#3, Velocity: 64
Note ON: Time 403360, Note Name: F#3, Velocity: 56
Note ON: Time 403520, Note Name: A#3, Velocity: 56
Note OFF: Time 403680, Note Name: F#3
Note ON: Time 403680, Note Name: F#3, Velocity: 64
Note OFF: Time 403840, Note Name: C#3
Note ON: Time 403840, Note Name: C#3, Velocity: 57
Note ON: Time 404000, Note Name: A#2, Velocity: 57
Note OFF: Time 407040, Note Name: A#2
Note OFF: Time 407040, Note Name: A#3
Note OFF: Time 407040, Note Name: F#3
Note OFF: Time 407040, Note Name: C#3
Note ON: Time 407040, Note Name: D3, Velocity: 64
Note ON: Time 407200, Note Name: F#3, Velocity: 56
Note ON: Time 407360, Note Name: B3, Velocity: 56
Note OFF: Time 407520, Note Name: F#3
Note ON: Time 407520, Note Name: F#3, Velocity: 64
Note OFF: Time 407680, Note Name: D3
Note ON: Time 407680, Note Name: D3, Velocity: 57
Note ON: Time 407840, Note Name: B2, Velocity: 57
Note OFF: Time 410880, Note Name: B2
Note OFF: Time 410880, Note Name: B3
Note OFF: Time 410880, Note Name: F#3
Note OFF: Time 410880, Note Name: D3
Note ON: Time 410880, Note Name: D3, Velocity: 64
Note ON: Time 411040, Note Name: G3, Velocity: 56
Note ON: Time 411200, Note Name: B3, Velocity: 56
Note OFF: Time 411360, Note Name: G3
Note ON: Time 411360, Note Name: G3, Velocity: 64
Note OFF: Time 411520, Note Name: D3
Note ON: Time 411520, Note Name: D3, Velocity: 57
Note ON: Time 411680, Note Name: B2, Velocity: 57
Note OFF: Time 414720, Note Name: B2
Note OFF: Time 414720, Note Name: B3
Note OFF: Time 414720, Note Name: G3
Note OFF: Time 414720, Note Name: D3
Note ON: Time 414720, Note Name: D#3, Velocity: 64
Note ON: Time 414880, Note Name: G3, Velocity: 56
Note ON: Time 415040, Note Name: C4, Velocity: 56
Note OFF: Time 415200, Note Name: G3
Note ON: Time 415200, Note Name: G3, Velocity: 64
Note OFF: Time 415360, Note Name: D#3
Note ON: Time 415360, Note Name: D#3, Velocity: 57
Note ON: Time 415520, Note Name: C3, Velocity: 57
Note OFF: Time 418560, Note Name: C3
Note OFF: Time 418560, Note Name: C4
Note OFF: Time 418560, Note Name: G3
Note OFF: Time 418560, Note Name: D#3
Note ON: Time 418560, Note Name: G#3, Velocity: 64
Note ON: Time 418720, Note Name: C#4, Velocity: 56
Note ON: Time 418880, Note Name: F4, Velocity: 56
Note OFF: Time 419040, Note Name: C#4
Note ON: Time 419040, Note Name: C#4, Velocity: 64
Note OFF: Time 419200, Note Name: G#3
Note ON: Time 419200, Note Name: G#3, Velocity: 57
Note ON: Time 419360, Note Name: F3, Velocity: 57
Note OFF: Time 420480, Note Name: F3
Note OFF: Time 420480, Note Name: F4
Note OFF: Time 420480, Note Name: C#4
Note OFF: Time 420480, Note Name: G#3
Note ON: Time 420480, Note Name: C4, Velocity: 64
Note ON: Time 420640, Note Name: D#4, Velocity: 56
Note ON: Time 420800, Note Name: F#4, Velocity: 56
Note OFF: Time 420960, Note Name: D#4
Note ON: Time 420960, Note Name: D#4, Velocity: 64
Note OFF: Time 421120, Note Name: C4
Note ON: Time 421120, Note Name: C4, Velocity: 57
Note ON: Time 421280, Note Name: F#3, Velocity: 57
Note OFF: Time 421440, Note Name: D#4
Note OFF: Time 422400, Note Name: F#4
Note OFF: Time 422400, Note Name: C4
Note OFF: Time 422400, Note Name: F#3
Note ON: Time 422400, Note Name: B3, Velocity: 70
Note ON: Time 422560, Note Name: D4, Velocity: 61
Note ON: Time 422720, Note Name: G4, Velocity: 61
Note OFF: Time 422880, Note Name: D4
Note ON: Time 422880, Note Name: D4, Velocity: 70
Note OFF: Time 423040, Note Name: B3
Note ON: Time 423040, Note Name: B3, Velocity: 62
Note ON: Time 423200, Note Name: G3, Velocity: 62
Note OFF: Time 423840, Note Name: B3
Note OFF: Time 423840, Note Name: G4
Note OFF: Time 423840, Note Name: D4
Note ON: Time 423840, Note Name: D4, Velocity: 36
Note OFF: Time 424320, Note Name: D4
Note ON: Time 424320, Note Name: B3, Velocity: 41
Note OFF: Time 424800, Note Name: B3
Note OFF: Time 424800, Note Name: G3
Note ON: Time 424800, Note Name: G3, Velocity: 36
Note ON: Time 425280, Note Name: C4, Velocity: 36
Note OFF: Time 425760, Note Name: C4
Note ON: Time 425760, Note Name: F#4, Velocity: 36
Note OFF: Time 426240, Note Name: F#4
Note OFF: Time 426240, Note Name: G3
Note ON: Time 426240, Note Name: B2, Velocity: 62
Note ON: Time 426400, Note Name: D3, Velocity: 55
Note ON: Time 426560, Note Name: G3, Velocity: 55
Note OFF: Time 426720, Note Name: D3
Note ON: Time 426720, Note Name: D3, Velocity: 62
Note OFF: Time 426880, Note Name: B2
Note ON: Time 426880, Note Name: B2, Velocity: 56
Note ON: Time 427040, Note Name: G2, Velocity: 56
Note OFF: Time 427515, Note Name: G3
Note OFF: Time 427680, Note Name: D3
Note OFF: Time 427680, Note Name: B2
Note ON: Time 427680, Note Name: D3, Velocity: 32
Note OFF: Time 428160, Note Name: D3
Note ON: Time 428160, Note Name: B2, Velocity: 36
Note OFF: Time 428640, Note Name: B2
Note OFF: Time 428640, Note Name: G2
Note ON: Time 428640, Note Name: G2, Velocity: 32
Note ON: Time 429120, Note Name: C3, Velocity: 32
Note OFF: Time 429600, Note Name: C3
Note ON: Time 429600, Note Name: F#3, Velocity: 32
Note OFF: Time 430080, Note Name: F#3
Note ON: Time 430080, Note Name: G3, Velocity: 36
Note OFF: Time 430320, Note Name: G3
Note OFF: Time 430320, Note Name: G2
Note ON: Time 430560, Note Name: C3, Velocity: 32
Note OFF: Time 431040, Note Name: C3
Note ON: Time 431040, Note Name: G2, Velocity: 31
Note OFF: Time 431520, Note Name: G2
Note ON: Time 431520, Note Name: C2, Velocity: 30
Note OFF: Time 432000, Note Name: C2
Note ON: Time 432000, Note Name: G1, Velocity: 33
Note OFF: Time 432480, Note Name: G1
Note ON: Time 432480, Note Name: C2, Velocity: 28
Note OFF: Time 432960, Note Name: C2
Note ON: Time 432960, Note Name: G1, Velocity: 27
Note OFF: Time 433440, Note Name: G1
Note ON: Time 433440, Note Name: C2, Velocity: 26
Note OFF: Time 433920, Note Name: C2
Note ON: Time 433920, Note Name: G1, Velocity: 37
Note OFF: Time 434040, Note Name: G1
Note ON: Time 434040, Note Name: C2, Velocity: 33
Note OFF: Time 434160, Note Name: C2
Note ON: Time 434160, Note Name: B1, Velocity: 33
Note OFF: Time 434280, Note Name: B1
Note ON: Time 434280, Note Name: A1, Velocity: 33
Note OFF: Time 434400, Note Name: A1
Note ON: Time 434400, Note Name: G1, Velocity: 37
Note OFF: Time 434520, Note Name: G1
Note ON: Time 434520, Note Name: C2, Velocity: 33
Note OFF: Time 434640, Note Name: C2
Note ON: Time 434640, Note Name: B1, Velocity: 33
Note OFF: Time 434760, Note Name: B1
Note ON: Time 434760, Note Name: A1, Velocity: 33
Note OFF: Time 434880, Note Name: A1
Note ON: Time 434880, Note Name: G1, Velocity: 37
Note OFF: Time 435000, Note Name: G1
Note ON: Time 435000, Note Name: C2, Velocity: 33
Note OFF: Time 435120, Note Name: C2
Note ON: Time 435120, Note Name: B1, Velocity: 33
Note OFF: Time 435240, Note Name: B1
Note ON: Time 435240, Note Name: A1, Velocity: 33
Note OFF: Time 435360, Note Name: A1
Note ON: Time 435360, Note Name: G1, Velocity: 37
Note OFF: Time 435480, Note Name: G1
Note ON: Time 435480, Note Name: C2, Velocity: 33
Note OFF: Time 435600, Note Name: C2
Note ON: Time 435600, Note Name: B1, Velocity: 33
Note OFF: Time 435720, Note Name: B1
Note ON: Time 435720, Note Name: A1, Velocity: 33
Note OFF: Time 435840, Note Name: A1
Note ON: Time 435840, Note Name: G1, Velocity: 33
Note OFF: Time 437880, Note Name: G1
Note ON: Time 437880, Note Name: C2, Velocity: 33
Note OFF: Time 438000, Note Name: C2
Note ON: Time 438000, Note Name: B1, Velocity: 33
Note OFF: Time 438120, Note Name: B1
Note ON: Time 438120, Note Name: A1, Velocity: 33
Note OFF: Time 438240, Note Name: A1
Note ON: Time 438240, Note Name: G1, Velocity: 37
Note OFF: Time 438360, Note Name: G1
Note ON: Time 438360, Note Name: C2, Velocity: 33
Note OFF: Time 438480, Note Name: C2
Note ON: Time 438480, Note Name: B1, Velocity: 33
Note OFF: Time 438600, Note Name: B1
Note ON: Time 438600, Note Name: A1, Velocity: 33
Note OFF: Time 438720, Note Name: A1
Note ON: Time 438720, Note Name: G1, Velocity: 37
Note OFF: Time 438840, Note Name: G1
Note ON: Time 438840, Note Name: C2, Velocity: 33
Note OFF: Time 438960, Note Name: C2
Note ON: Time 438960, Note Name: B1, Velocity: 33
Note OFF: Time 439080, Note Name: B1
Note ON: Time 439080, Note Name: A1, Velocity: 33
Note OFF: Time 439200, Note Name: A1
Note ON: Time 439200, Note Name: G1, Velocity: 37
Note OFF: Time 439320, Note Name: G1
Note ON: Time 439320, Note Name: C2, Velocity: 33
Note OFF: Time 439440, Note Name: C2
Note ON: Time 439440, Note Name: B1, Velocity: 33
Note OFF: Time 439560, Note Name: B1
Note ON: Time 439560, Note Name: A1, Velocity: 33
Note OFF: Time 439680, Note Name: A1
Note ON: Time 439680, Note Name: G1, Velocity: 33
Note OFF: Time 441720, Note Name: G1
Note ON: Time 441720, Note Name: C2, Velocity: 33
Note OFF: Time 441840, Note Name: C2
Note ON: Time 441840, Note Name: B1, Velocity: 33
Note OFF: Time 441960, Note Name: B1
Note ON: Time 441960, Note Name: A1, Velocity: 33
Note OFF: Time 442080, Note Name: A1
Note ON: Time 442080, Note Name: G1, Velocity: 37
Note OFF: Time 442200, Note Name: G1
Note ON: Time 442200, Note Name: C2, Velocity: 33
Note OFF: Time 442320, Note Name: C2
Note ON: Time 442320, Note Name: B1, Velocity: 33
Note OFF: Time 442440, Note Name: B1
Note ON: Time 442440, Note Name: A1, Velocity: 33
Note OFF: Time 442560, Note Name: A1
Note ON: Time 442560, Note Name: G1, Velocity: 38
Note OFF: Time 442680, Note Name: G1
Note ON: Time 442680, Note Name: C2, Velocity: 33
Note OFF: Time 442800, Note Name: C2
Note ON: Time 442800, Note Name: B1, Velocity: 34
Note OFF: Time 442920, Note Name: B1
Note ON: Time 442920, Note Name: A1, Velocity: 34
Note OFF: Time 443040, Note Name: A1
Note ON: Time 443040, Note Name: G1, Velocity: 38
Note OFF: Time 443160, Note Name: G1
Note ON: Time 443160, Note Name: C2, Velocity: 34
Note OFF: Time 443280, Note Name: C2
Note ON: Time 443280, Note Name: B1, Velocity: 34
Note OFF: Time 443400, Note Name: B1
Note ON: Time 443400, Note Name: A1, Velocity: 34
Note OFF: Time 443520, Note Name: A1
Note ON: Time 443520, Note Name: G1, Velocity: 39
Note OFF: Time 443640, Note Name: G1
Note ON: Time 443640, Note Name: C2, Velocity: 35
Note OFF: Time 443760, Note Name: C2
Note ON: Time 443760, Note Name: B1, Velocity: 35
Note OFF: Time 443880, Note Name: B1
Note ON: Time 443880, Note Name: A1, Velocity: 35
Note OFF: Time 444000, Note Name: A1
Note ON: Time 444000, Note Name: G1, Velocity: 39
Note OFF: Time 444120, Note Name: G1
Note ON: Time 444120, Note Name: C2, Velocity: 35
Note OFF: Time 444240, Note Name: C2
Note ON: Time 444240, Note Name: B1, Velocity: 35
Note OFF: Time 444360, Note Name: B1
Note ON: Time 444360, Note Name: A1, Velocity: 35
Note OFF: Time 444480, Note Name: A1
Note ON: Time 444480, Note Name: G1, Velocity: 40
Note OFF: Time 444600, Note Name: G1
Note ON: Time 444600, Note Name: C2, Velocity: 36
Note OFF: Time 444720, Note Name: C2
Note ON: Time 444720, Note Name: B1, Velocity: 36
Note OFF: Time 444840, Note Name: B1
Note ON: Time 444840, Note Name: A1, Velocity: 36
Note OFF: Time 444960, Note Name: A1
Note ON: Time 444960, Note Name: G1, Velocity: 40
Note OFF: Time 445080, Note Name: G1
Note ON: Time 445080, Note Name: C2, Velocity: 36
Note OFF: Time 445200, Note Name: C2
Note ON: Time 445200, Note Name: B1, Velocity: 36
Note OFF: Time 445320, Note Name: B1
Note ON: Time 445320, Note Name: A1, Velocity: 36
Note OFF: Time 445440, Note Name: A1
Note ON: Time 445440, Note Name: G1, Velocity: 41
Note OFF: Time 445560, Note Name: G1
Note ON: Time 445560, Note Name: C2, Velocity: 36
Note OFF: Time 445680, Note Name: C2
Note ON: Time 445680, Note Name: B1, Velocity: 37
Note OFF: Time 445800, Note Name: B1
Note ON: Time 445800, Note Name: A1, Velocity: 37
Note OFF: Time 445920, Note Name: A1
Note ON: Time 445920, Note Name: G1, Velocity: 42
Note OFF: Time 446040, Note Name: G1
Note ON: Time 446040, Note Name: C2, Velocity: 37
Note OFF: Time 446160, Note Name: C2
Note ON: Time 446160, Note Name: B1, Velocity: 37
Note OFF: Time 446280, Note Name: B1
Note ON: Time 446280, Note Name: A1, Velocity: 37
Note OFF: Time 446400, Note Name: A1
Note ON: Time 446400, Note Name: G1, Velocity: 42
Note OFF: Time 446520, Note Name: G1
Note ON: Time 446520, Note Name: C2, Velocity: 38
Note OFF: Time 446640, Note Name: C2
Note ON: Time 446640, Note Name: B1, Velocity: 38
Note OFF: Time 446760, Note Name: B1
Note ON: Time 446760, Note Name: A1, Velocity: 38
Note OFF: Time 446880, Note Name: A1
Note ON: Time 446880, Note Name: G1, Velocity: 44
Note OFF: Time 447000, Note Name: G1
Note ON: Time 447000, Note Name: C2, Velocity: 38
Note OFF: Time 447120, Note Name: C2
Note ON: Time 447120, Note Name: B1, Velocity: 38
Note OFF: Time 447240, Note Name: B1
Note ON: Time 447240, Note Name: A1, Velocity: 38
Note OFF: Time 447360, Note Name: A1
Note ON: Time 447360, Note Name: G1, Velocity: 44
Note OFF: Time 447480, Note Name: G1
Note ON: Time 447480, Note Name: C2, Velocity: 39
Note OFF: Time 447600, Note Name: C2
Note ON: Time 447600, Note Name: B1, Velocity: 39
Note OFF: Time 447720, Note Name: B1
Note ON: Time 447720, Note Name: A1, Velocity: 39
Note OFF: Time 447840, Note Name: A1
Note ON: Time 447840, Note Name: G1, Velocity: 45
Note OFF: Time 447960, Note Name: G1
Note ON: Time 447960, Note Name: C2, Velocity: 39
Note OFF: Time 448080, Note Name: C2
Note ON: Time 448080, Note Name: B1, Velocity: 39
Note OFF: Time 448200, Note Name: B1
Note ON: Time 448200, Note Name: A1, Velocity: 39
Note OFF: Time 448320, Note Name: A1
Note ON: Time 448320, Note Name: G1, Velocity: 45
Note OFF: Time 448440, Note Name: G1
Note ON: Time 448440, Note Name: C2, Velocity: 39
Note OFF: Time 448560, Note Name: C2
Note ON: Time 448560, Note Name: B1, Velocity: 40
Note OFF: Time 448680, Note Name: B1
Note ON: Time 448680, Note Name: A1, Velocity: 40
Note OFF: Time 448800, Note Name: A1
Note ON: Time 448800, Note Name: G1, Velocity: 46
Note OFF: Time 448920, Note Name: G1
Note ON: Time 448920, Note Name: C2, Velocity: 40
Note OFF: Time 449040, Note Name: C2
Note ON: Time 449040, Note Name: B1, Velocity: 40
Note OFF: Time 449160, Note Name: B1
Note ON: Time 449160, Note Name: A1, Velocity: 40
Note OFF: Time 449280, Note Name: A1
Note ON: Time 449280, Note Name: G1, Velocity: 46
Note OFF: Time 449400, Note Name: G1
Note ON: Time 449400, Note Name: C2, Velocity: 41
Note OFF: Time 449520, Note Name: C2
Note ON: Time 449520, Note Name: B1, Velocity: 41
Note OFF: Time 449640, Note Name: B1
Note ON: Time 449640, Note Name: A1, Velocity: 41
Note OFF: Time 449760, Note Name: A1
Note ON: Time 449760, Note Name: G1, Velocity: 47
Note OFF: Time 449880, Note Name: G1
Note ON: Time 449880, Note Name: C2, Velocity: 41
Note OFF: Time 450000, Note Name: C2
Note ON: Time 450000, Note Name: B1, Velocity: 41
Note OFF: Time 450120, Note Name: B1
Note ON: Time 450120, Note Name: A1, Velocity: 41
Note OFF: Time 450240, Note Name: A1
Note ON: Time 450240, Note Name: G1, Velocity: 48
Note OFF: Time 450360, Note Name: G1
Note ON: Time 450360, Note Name: C2, Velocity: 42
Note OFF: Time 450480, Note Name: C2
Note ON: Time 450480, Note Name: B1, Velocity: 42
Note OFF: Time 450600, Note Name: B1
Note ON: Time 450600, Note Name: A1, Velocity: 42
Note OFF: Time 450720, Note Name: A1
Note ON: Time 450720, Note Name: G1, Velocity: 48
Note OFF: Time 450840, Note Name: G1
Note ON: Time 450840, Note Name: C2, Velocity: 42
Note OFF: Time 450960, Note Name: C2
Note ON: Time 450960, Note Name: B1, Velocity: 42
Note OFF: Time 451080, Note Name: B1
Note ON: Time 451080, Note Name: A1, Velocity: 42
Note OFF: Time 451200, Note Name: A1
Note ON: Time 451200, Note Name: G1, Velocity: 49
Note OFF: Time 451320, Note Name: G1
Note ON: Time 451320, Note Name: C2, Velocity: 42
Note OFF: Time 451440, Note Name: C2
Note ON: Time 451440, Note Name: B1, Velocity: 44
Note OFF: Time 451560, Note Name: B1
Note ON: Time 451560, Note Name: A1, Velocity: 44
Note OFF: Time 451680, Note Name: A1
Note ON: Time 451680, Note Name: G1, Velocity: 49
Note OFF: Time 451800, Note Name: G1
Note ON: Time 451800, Note Name: C2, Velocity: 44
Note OFF: Time 451920, Note Name: C2
Note ON: Time 451920, Note Name: B1, Velocity: 44
Note OFF: Time 452040, Note Name: B1
Note ON: Time 452040, Note Name: A1, Velocity: 44
Note OFF: Time 452160, Note Name: A1
Note ON: Time 452160, Note Name: G1, Velocity: 50
Note OFF: Time 452280, Note Name: G1
Note ON: Time 452280, Note Name: C2, Velocity: 45
Note OFF: Time 452400, Note Name: C2
Note ON: Time 452400, Note Name: B1, Velocity: 45
Note OFF: Time 452520, Note Name: B1
Note ON: Time 452520, Note Name: A1, Velocity: 45
Note OFF: Time 452640, Note Name: A1
Note ON: Time 452640, Note Name: G1, Velocity: 50
Note OFF: Time 452760, Note Name: G1
Note ON: Time 452760, Note Name: C2, Velocity: 45
Note OFF: Time 452880, Note Name: C2
Note ON: Time 452880, Note Name: B1, Velocity: 45
Note OFF: Time 453000, Note Name: B1
Note ON: Time 453000, Note Name: A1, Velocity: 45
Note OFF: Time 453120, Note Name: A1
Note ON: Time 453120, Note Name: G1, Velocity: 51
Note OFF: Time 453240, Note Name: G1
Note ON: Time 453240, Note Name: C2, Velocity: 46
Note OFF: Time 453360, Note Name: C2
Note ON: Time 453360, Note Name: B1, Velocity: 46
Note OFF: Time 453480, Note Name: B1
Note ON: Time 453480, Note Name: A1, Velocity: 46
Note OFF: Time 453600, Note Name: A1
Note ON: Time 453600, Note Name: G1, Velocity: 52
Note OFF: Time 453720, Note Name: G1
Note ON: Time 453720, Note Name: C2, Velocity: 47
Note OFF: Time 453840, Note Name: C2
Note ON: Time 453840, Note Name: B1, Velocity: 48
Note OFF: Time 453960, Note Name: B1
Note ON: Time 453960, Note Name: A1, Velocity: 48
Note OFF: Time 454080, Note Name: A1
Note ON: Time 454080, Note Name: G1, Velocity: 54
Note OFF: Time 454200, Note Name: G1
Note ON: Time 454200, Note Name: C#2, Velocity: 49
Note OFF: Time 454320, Note Name: C#2
Note ON: Time 454320, Note Name: B1, Velocity: 49
Note OFF: Time 454440, Note Name: B1
Note ON: Time 454440, Note Name: A1, Velocity: 50
Note OFF: Time 454560, Note Name: A1
Note ON: Time 454560, Note Name: G1, Velocity: 56
Note OFF: Time 454680, Note Name: G1
Note ON: Time 454680, Note Name: C#2, Velocity: 51
Note OFF: Time 454800, Note Name: C#2
Note ON: Time 454800, Note Name: B1, Velocity: 51
Note OFF: Time 454920, Note Name: B1
Note ON: Time 454920, Note Name: A1, Velocity: 51
Note OFF: Time 455040, Note Name: A1
Note ON: Time 455040, Note Name: G1, Velocity: 57
Note ON: Time 455160, Note Name: D2, Velocity: 52
Note OFF: Time 455180, Note Name: G1
Note ON: Time 455280, Note Name: B1, Velocity: 52
Note OFF: Time 455300, Note Name: D2
Note ON: Time 455400, Note Name: A1, Velocity: 53
Note OFF: Time 455420, Note Name: B1
Note ON: Time 455520, Note Name: G1, Velocity: 59
Note OFF: Time 455540, Note Name: A1
Note ON: Time 455640, Note Name: D2, Velocity: 54
Note OFF: Time 455660, Note Name: G1
Note ON: Time 455760, Note Name: B1, Velocity: 54
Note OFF: Time 455780, Note Name: D2
Note ON: Time 455880, Note Name: A1, Velocity: 54
Note OFF: Time 455900, Note Name: B1
Note ON: Time 456000, Note Name: G1, Velocity: 61
Note OFF: Time 456020, Note Name: A1
Note ON: Time 456120, Note Name: D2, Velocity: 55
Note OFF: Time 456140, Note Name: G1
Note ON: Time 456240, Note Name: B1, Velocity: 56
Note OFF: Time 456260, Note Name: D2
Note ON: Time 456360, Note Name: A1, Velocity: 56
Note OFF: Time 456380, Note Name: B1
Note ON: Time 456480, Note Name: G1, Velocity: 63
Note OFF: Time 456500, Note Name: A1
Note ON: Time 456600, Note Name: D2, Velocity: 57
Note OFF: Time 456620, Note Name: G1
Note ON: Time 456720, Note Name: B1, Velocity: 57
Note OFF: Time 456740, Note Name: D2
Note ON: Time 456840, Note Name: A1, Velocity: 57
Note OFF: Time 456860, Note Name: B1
Note ON: Time 456960, Note Name: G1, Velocity: 67
Note OFF: Time 456980, Note Name: A1
Note ON: Time 457080, Note Name: A1, Velocity: 66
Note OFF: Time 457100, Note Name: G1
Note ON: Time 457200, Note Name: B1, Velocity: 65
Note OFF: Time 457220, Note Name: A1
Note ON: Time 457320, Note Name: C2, Velocity: 63
Note OFF: Time 457340, Note Name: B1
Note ON: Time 457440, Note Name: D2, Velocity: 62
Note OFF: Time 457460, Note Name: C2
Note ON: Time 457560, Note Name: C2, Velocity: 63
Note OFF: Time 457580, Note Name: D2
Note ON: Time 457680, Note Name: B1, Velocity: 64
Note OFF: Time 457700, Note Name: C2
Note ON: Time 457800, Note Name: A1, Velocity: 66
Note OFF: Time 457820, Note Name: B1
Note ON: Time 457920, Note Name: G1, Velocity: 66
Note OFF: Time 457940, Note Name: A1
Note ON: Time 458040, Note Name: A1, Velocity: 65
Note OFF: Time 458060, Note Name: G1
Note ON: Time 458160, Note Name: B1, Velocity: 64
Note OFF: Time 458180, Note Name: A1
Note ON: Time 458280, Note Name: C2, Velocity: 64
Note OFF: Time 458300, Note Name: B1
Note ON: Time 458400, Note Name: D2, Velocity: 61
Note OFF: Time 458420, Note Name: C2
Note ON: Time 458520, Note Name: C2, Velocity: 63
Note OFF: Time 458540, Note Name: D2
Note ON: Time 458640, Note Name: B1, Velocity: 65
Note OFF: Time 458660, Note Name: C2
Note ON: Time 458760, Note Name: A1, Velocity: 67
Note OFF: Time 458780, Note Name: B1
Note ON: Time 458880, Note Name: G1, Velocity: 69
Note OFF: Time 458900, Note Name: A1
Note ON: Time 459120, Note Name: A1, Velocity: 66
Note OFF: Time 459140, Note Name: G1
Note ON: Time 459240, Note Name: B1, Velocity: 65
Note OFF: Time 459260, Note Name: A1
Note ON: Time 459360, Note Name: C2, Velocity: 64
Note OFF: Time 459380, Note Name: B1
Note ON: Time 459480, Note Name: D2, Velocity: 63
Note OFF: Time 459500, Note Name: C2
Note ON: Time 459600, Note Name: E2, Velocity: 63
Note OFF: Time 459620, Note Name: D2
Note ON: Time 459720, Note Name: F2, Velocity: 62
Note OFF: Time 459740, Note Name: E2
Note ON: Time 459840, Note Name: G2, Velocity: 61
Note OFF: Time 459860, Note Name: F2
Note ON: Time 459960, Note Name: A2, Velocity: 60
Note OFF: Time 459980, Note Name: G2
Note ON: Time 460080, Note Name: B2, Velocity: 59
Note OFF: Time 460100, Note Name: A2
Note ON: Time 460200, Note Name: C3, Velocity: 58
Note OFF: Time 460220, Note Name: B2
Note ON: Time 460320, Note Name: D3, Velocity: 57
Note OFF: Time 460340, Note Name: C3
Note ON: Time 460440, Note Name: E3, Velocity: 56
Note OFF: Time 460460, Note Name: D3
Note ON: Time 460560, Note Name: F3, Velocity: 55
Note OFF: Time 460580, Note Name: E3
Note ON: Time 460680, Note Name: G3, Velocity: 55
Note OFF: Time 460700, Note Name: F3
Note ON: Time 460800, Note Name: C3, Velocity: 54
Note OFF: Time 460820, Note Name: G3
Note OFF: Time 461040, Note Name: C3
Note ON: Time 461040, Note Name: G2, Velocity: 26
Note ON: Time 461040, Note Name: C2, Velocity: 22
Note OFF: Time 461220, Note Name: C2
Note OFF: Time 461220, Note Name: G2
Note ON: Time 461280, Note Name: G2, Velocity: 26
Note ON: Time 461280, Note Name: C2, Velocity: 22
Note OFF: Time 461460, Note Name: C2
Note OFF: Time 461460, Note Name: G2
Note ON: Time 461520, Note Name: G2, Velocity: 27
Note ON: Time 461520, Note Name: C2, Velocity: 22
Note OFF: Time 461700, Note Name: C2
Note OFF: Time 461700, Note Name: G2
Note ON: Time 461760, Note Name: G2, Velocity: 27
Note ON: Time 461760, Note Name: C2, Velocity: 22
Note OFF: Time 461940, Note Name: C2
Note OFF: Time 461940, Note Name: G2
Note ON: Time 462000, Note Name: G2, Velocity: 28
Note ON: Time 462000, Note Name: C2, Velocity: 23
Note OFF: Time 462180, Note Name: C2
Note OFF: Time 462180, Note Name: G2
Note ON: Time 462240, Note Name: G2, Velocity: 28
Note ON: Time 462240, Note Name: C2, Velocity: 23
Note OFF: Time 462420, Note Name: C2
Note OFF: Time 462420, Note Name: G2
Note ON: Time 462480, Note Name: G2, Velocity: 29
Note ON: Time 462480, Note Name: C2, Velocity: 24
Note OFF: Time 462660, Note Name: C2
Note OFF: Time 462660, Note Name: G2
Note ON: Time 462720, Note Name: C2, Velocity: 25
Note ON: Time 462720, Note Name: G2, Velocity: 30
Note OFF: Time 462900, Note Name: G2
Note OFF: Time 462900, Note Name: C2
Note ON: Time 462960, Note Name: C2, Velocity: 22
Note ON: Time 462960, Note Name: G2, Velocity: 27
Note OFF: Time 463140, Note Name: G2
Note OFF: Time 463140, Note Name: C2
Note ON: Time 463200, Note Name: C2, Velocity: 23
Note ON: Time 463200, Note Name: G2, Velocity: 28
Note OFF: Time 463380, Note Name: G2
Note OFF: Time 463380, Note Name: C2
Note ON: Time 463440, Note Name: C2, Velocity: 24
Note ON: Time 463440, Note Name: G2, Velocity: 29
Note OFF: Time 463620, Note Name: G2
Note OFF: Time 463620, Note Name: C2
Note ON: Time 463680, Note Name: C2, Velocity: 25
Note ON: Time 463680, Note Name: G2, Velocity: 30
Note OFF: Time 463860, Note Name: G2
Note OFF: Time 463860, Note Name: C2
Note ON: Time 463920, Note Name: C2, Velocity: 25
Note ON: Time 463920, Note Name: G2, Velocity: 30
Note OFF: Time 464100, Note Name: G2
Note OFF: Time 464100, Note Name: C2
Note ON: Time 464160, Note Name: C2, Velocity: 25
Note ON: Time 464160, Note Name: A2, Velocity: 30
Note OFF: Time 464340, Note Name: A2
Note OFF: Time 464340, Note Name: C2
Note ON: Time 464400, Note Name: C2, Velocity: 25
Note ON: Time 464400, Note Name: A2, Velocity: 30
Note OFF: Time 464580, Note Name: A2
Note OFF: Time 464580, Note Name: C2
Note ON: Time 464640, Note Name: B1, Velocity: 25
Note ON: Time 464640, Note Name: G2, Velocity: 30
Note OFF: Time 464820, Note Name: G2
Note OFF: Time 464820, Note Name: B1
Note ON: Time 464880, Note Name: B1, Velocity: 25
Note ON: Time 464880, Note Name: G2, Velocity: 30
Note OFF: Time 465060, Note Name: G2
Note OFF: Time 465060, Note Name: B1
Note ON: Time 465120, Note Name: B1, Velocity: 25
Note ON: Time 465120, Note Name: G2, Velocity: 30
Note OFF: Time 465300, Note Name: G2
Note OFF: Time 465300, Note Name: B1
Note ON: Time 465360, Note Name: B1, Velocity: 25
Note ON: Time 465360, Note Name: G2, Velocity: 30
Note OFF: Time 465540, Note Name: G2
Note OFF: Time 465540, Note Name: B1
Note ON: Time 465600, Note Name: B1, Velocity: 25
Note ON: Time 465600, Note Name: G2, Velocity: 30
Note OFF: Time 465780, Note Name: G2
Note OFF: Time 465780, Note Name: B1
Note ON: Time 465840, Note Name: B1, Velocity: 25
Note ON: Time 465840, Note Name: G2, Velocity: 30
Note OFF: Time 466020, Note Name: G2
Note OFF: Time 466020, Note Name: B1
Note ON: Time 466080, Note Name: B1, Velocity: 25
Note ON: Time 466080, Note Name: G2, Velocity: 30
Note OFF: Time 466260, Note Name: G2
Note OFF: Time 466260, Note Name: B1
Note ON: Time 466320, Note Name: B1, Velocity: 25
Note ON: Time 466320, Note Name: G2, Velocity: 30
Note OFF: Time 466500, Note Name: G2
Note OFF: Time 466500, Note Name: B1
Note ON: Time 466560, Note Name: B1, Velocity: 25
Note ON: Time 466560, Note Name: G2, Velocity: 30
Note OFF: Time 466740, Note Name: G2
Note OFF: Time 466740, Note Name: B1
Note ON: Time 466800, Note Name: B1, Velocity: 25
Note ON: Time 466800, Note Name: G2, Velocity: 30
Note OFF: Time 466980, Note Name: G2
Note OFF: Time 466980, Note Name: B1
Note ON: Time 467040, Note Name: B1, Velocity: 25
Note ON: Time 467040, Note Name: G2, Velocity: 30
Note OFF: Time 467220, Note Name: G2
Note OFF: Time 467220, Note Name: B1
Note ON: Time 467280, Note Name: B1, Velocity: 25
Note ON: Time 467280, Note Name: G2, Velocity: 30
Note OFF: Time 467460, Note Name: G2
Note OFF: Time 467460, Note Name: B1
Note ON: Time 467520, Note Name: B1, Velocity: 25
Note ON: Time 467520, Note Name: G2, Velocity: 30
Note OFF: Time 467700, Note Name: G2
Note OFF: Time 467700, Note Name: B1
Note ON: Time 467760, Note Name: B1, Velocity: 25
Note ON: Time 467760, Note Name: G2, Velocity: 30
Note OFF: Time 467940, Note Name: G2
Note OFF: Time 467940, Note Name: B1
Note ON: Time 468000, Note Name: B1, Velocity: 25
Note ON: Time 468000, Note Name: G2, Velocity: 30
Note OFF: Time 468180, Note Name: G2
Note OFF: Time 468180, Note Name: B1
Note ON: Time 468240, Note Name: B1, Velocity: 25
Note ON: Time 468240, Note Name: G2, Velocity: 30
Note OFF: Time 468420, Note Name: G2
Note OFF: Time 468420, Note Name: B1
Note ON: Time 468480, Note Name: F2, Velocity: 30
Note ON: Time 468480, Note Name: A#1, Velocity: 26
Note OFF: Time 468660, Note Name: A#1
Note OFF: Time 468660, Note Name: F2
Note ON: Time 468720, Note Name: F2, Velocity: 30
Note ON: Time 468720, Note Name: A#1, Velocity: 25
Note OFF: Time 468900, Note Name: A#1
Note OFF: Time 468900, Note Name: F2
Note ON: Time 468960, Note Name: F2, Velocity: 30
Note ON: Time 468960, Note Name: A#1, Velocity: 25
Note OFF: Time 469140, Note Name: A#1
Note OFF: Time 469140, Note Name: F2
Note ON: Time 469200, Note Name: F2, Velocity: 31
Note ON: Time 469200, Note Name: A#1, Velocity: 26
Note OFF: Time 469380, Note Name: A#1
Note OFF: Time 469380, Note Name: F2
Note ON: Time 469440, Note Name: F2, Velocity: 31
Note ON: Time 469440, Note Name: A#1, Velocity: 26
Note OFF: Time 469620, Note Name: A#1
Note OFF: Time 469620, Note Name: F2
Note ON: Time 469680, Note Name: F2, Velocity: 31
Note ON: Time 469680, Note Name: A#1, Velocity: 26
Note OFF: Time 469860, Note Name: A#1
Note OFF: Time 469860, Note Name: F2
Note ON: Time 469920, Note Name: F2, Velocity: 31
Note ON: Time 469920, Note Name: A#1, Velocity: 26
Note OFF: Time 470100, Note Name: A#1
Note OFF: Time 470100, Note Name: F2
Note ON: Time 470160, Note Name: F2, Velocity: 31
Note ON: Time 470160, Note Name: A#1, Velocity: 26
Note OFF: Time 470340, Note Name: A#1
Note OFF: Time 470340, Note Name: F2
Note ON: Time 470400, Note Name: A#1, Velocity: 26
Note ON: Time 470400, Note Name: F2, Velocity: 31
Note OFF: Time 470580, Note Name: F2
Note OFF: Time 470580, Note Name: A#1
Note ON: Time 470640, Note Name: A#1, Velocity: 26
Note ON: Time 470640, Note Name: F2, Velocity: 31
Note OFF: Time 470820, Note Name: F2
Note OFF: Time 470820, Note Name: A#1
Note ON: Time 470880, Note Name: A#1, Velocity: 26
Note ON: Time 470880, Note Name: F2, Velocity: 31
Note OFF: Time 471060, Note Name: F2
Note OFF: Time 471060, Note Name: A#1
Note ON: Time 471120, Note Name: A#1, Velocity: 26
Note ON: Time 471120, Note Name: F2, Velocity: 31
Note OFF: Time 471300, Note Name: F2
Note OFF: Time 471300, Note Name: A#1
Note ON: Time 471360, Note Name: A#1, Velocity: 26
Note ON: Time 471360, Note Name: F2, Velocity: 31
Note OFF: Time 471540, Note Name: F2
Note OFF: Time 471540, Note Name: A#1
Note ON: Time 471600, Note Name: A#1, Velocity: 25
Note ON: Time 471600, Note Name: F2, Velocity: 30
Note OFF: Time 471780, Note Name: F2
Note OFF: Time 471780, Note Name: A#1
Note ON: Time 471840, Note Name: A#1, Velocity: 25
Note ON: Time 471840, Note Name: G2, Velocity: 30
Note OFF: Time 472020, Note Name: G2
Note OFF: Time 472020, Note Name: A#1
Note ON: Time 472080, Note Name: A#1, Velocity: 25
Note ON: Time 472080, Note Name: G2, Velocity: 30
Note OFF: Time 472260, Note Name: G2
Note OFF: Time 472260, Note Name: A#1
Note ON: Time 472320, Note Name: A1, Velocity: 25
Note ON: Time 472320, Note Name: F2, Velocity: 30
Note OFF: Time 472500, Note Name: F2
Note OFF: Time 472500, Note Name: A1
Note ON: Time 472560, Note Name: A1, Velocity: 25
Note ON: Time 472560, Note Name: F2, Velocity: 30
Note OFF: Time 472740, Note Name: F2
Note OFF: Time 472740, Note Name: A1
Note ON: Time 472800, Note Name: A1, Velocity: 25
Note ON: Time 472800, Note Name: F2, Velocity: 30
Note OFF: Time 472980, Note Name: F2
Note OFF: Time 472980, Note Name: A1
Note ON: Time 473040, Note Name: A1, Velocity: 25
Note ON: Time 473040, Note Name: F2, Velocity: 30
Note OFF: Time 473220, Note Name: F2
Note OFF: Time 473220, Note Name: A1
Note ON: Time 473280, Note Name: A1, Velocity: 25
Note ON: Time 473280, Note Name: F2, Velocity: 30
Note OFF: Time 473460, Note Name: F2
Note OFF: Time 473460, Note Name: A1
Note ON: Time 473520, Note Name: A1, Velocity: 25
Note ON: Time 473520, Note Name: F2, Velocity: 30
Note OFF: Time 473700, Note Name: F2
Note OFF: Time 473700, Note Name: A1
Note ON: Time 473760, Note Name: A1, Velocity: 25
Note ON: Time 473760, Note Name: F2, Velocity: 30
Note OFF: Time 473940, Note Name: F2
Note OFF: Time 473940, Note Name: A1
Note ON: Time 474000, Note Name: A1, Velocity: 25
Note ON: Time 474000, Note Name: F2, Velocity: 30
Note OFF: Time 474180, Note Name: F2
Note OFF: Time 474180, Note Name: A1
Note ON: Time 474240, Note Name: G#1, Velocity: 25
Note ON: Time 474240, Note Name: F2, Velocity: 30
Note OFF: Time 474420, Note Name: F2
Note OFF: Time 474420, Note Name: G#1
Note ON: Time 474480, Note Name: G#1, Velocity: 25
Note ON: Time 474480, Note Name: F2, Velocity: 30
Note OFF: Time 474660, Note Name: F2
Note OFF: Time 474660, Note Name: G#1
Note ON: Time 474720, Note Name: G#1, Velocity: 25
Note ON: Time 474720, Note Name: F2, Velocity: 30
Note OFF: Time 474900, Note Name: F2
Note OFF: Time 474900, Note Name: G#1
Note ON: Time 474960, Note Name: G#1, Velocity: 25
Note ON: Time 474960, Note Name: F2, Velocity: 30
Note OFF: Time 475140, Note Name: F2
Note OFF: Time 475140, Note Name: G#1
Note ON: Time 475200, Note Name: G#1, Velocity: 25
Note ON: Time 475200, Note Name: F2, Velocity: 30
Note OFF: Time 475380, Note Name: F2
Note OFF: Time 475380, Note Name: G#1
Note ON: Time 475440, Note Name: G#1, Velocity: 25
Note ON: Time 475440, Note Name: F2, Velocity: 30
Note OFF: Time 475620, Note Name: F2
Note OFF: Time 475620, Note Name: G#1
Note ON: Time 475680, Note Name: G#1, Velocity: 25
Note ON: Time 475680, Note Name: F2, Velocity: 30
Note OFF: Time 475860, Note Name: F2
Note OFF: Time 475860, Note Name: G#1
Note ON: Time 475920, Note Name: G#1, Velocity: 25
Note ON: Time 475920, Note Name: F2, Velocity: 30
Note OFF: Time 476100, Note Name: F2
Note OFF: Time 476100, Note Name: G#1
Note ON: Time 476160, Note Name: G1, Velocity: 30
Note ON: Time 476160, Note Name: F2, Velocity: 36
Note OFF: Time 476340, Note Name: F2
Note OFF: Time 476340, Note Name: G1
Note ON: Time 476400, Note Name: G1, Velocity: 32
Note ON: Time 476400, Note Name: F2, Velocity: 38
Note OFF: Time 476580, Note Name: F2
Note OFF: Time 476580, Note Name: G1
Note ON: Time 476640, Note Name: G1, Velocity: 33
Note ON: Time 476640, Note Name: F2, Velocity: 39
Note OFF: Time 476820, Note Name: F2
Note OFF: Time 476820, Note Name: G1
Note ON: Time 476880, Note Name: G1, Velocity: 34
Note ON: Time 476880, Note Name: F2, Velocity: 41
Note OFF: Time 477060, Note Name: F2
Note OFF: Time 477060, Note Name: G1
Note ON: Time 477120, Note Name: G1, Velocity: 36
Note ON: Time 477120, Note Name: F2, Velocity: 43
Note OFF: Time 477300, Note Name: F2
Note OFF: Time 477300, Note Name: G1
Note ON: Time 477360, Note Name: G1, Velocity: 38
Note ON: Time 477360, Note Name: F2, Velocity: 45
Note OFF: Time 477540, Note Name: F2
Note OFF: Time 477540, Note Name: G1
Note ON: Time 477600, Note Name: G#1, Velocity: 39
Note ON: Time 477600, Note Name: F2, Velocity: 46
Note OFF: Time 477780, Note Name: F2
Note OFF: Time 477780, Note Name: G#1
Note ON: Time 477840, Note Name: G#1, Velocity: 40
Note ON: Time 477840, Note Name: F2, Velocity: 48
Note OFF: Time 478020, Note Name: F2
Note OFF: Time 478020, Note Name: G#1
Note ON: Time 478080, Note Name: G1, Velocity: 44
Note ON: Time 478080, Note Name: F2, Velocity: 52
Note OFF: Time 478260, Note Name: F2
Note OFF: Time 478260, Note Name: G1
Note ON: Time 478320, Note Name: G1, Velocity: 44
Note ON: Time 478320, Note Name: F2, Velocity: 52
Note OFF: Time 478500, Note Name: F2
Note OFF: Time 478500, Note Name: G1
Note ON: Time 478560, Note Name: G#1, Velocity: 45
Note ON: Time 478560, Note Name: F2, Velocity: 55
Note OFF: Time 478740, Note Name: F2
Note OFF: Time 478740, Note Name: G#1
Note ON: Time 478800, Note Name: G#1, Velocity: 46
Note ON: Time 478800, Note Name: F2, Velocity: 55
Note OFF: Time 478980, Note Name: F2
Note OFF: Time 478980, Note Name: G#1
Note ON: Time 479040, Note Name: G1, Velocity: 48
Note ON: Time 479040, Note Name: F2, Velocity: 58
Note OFF: Time 479220, Note Name: F2
Note OFF: Time 479220, Note Name: G1
Note ON: Time 479280, Note Name: G1, Velocity: 51
Note ON: Time 479280, Note Name: F2, Velocity: 60
Note OFF: Time 479460, Note Name: F2
Note OFF: Time 479460, Note Name: G1
Note ON: Time 479520, Note Name: G#1, Velocity: 54
Note ON: Time 479520, Note Name: F2, Velocity: 64
Note OFF: Time 479700, Note Name: F2
Note OFF: Time 479700, Note Name: G#1
Note ON: Time 479760, Note Name: G#1, Velocity: 56
Note ON: Time 479760, Note Name: F2, Velocity: 66
Note OFF: Time 479940, Note Name: F2
Note OFF: Time 479940, Note Name: G#1
Note ON: Time 480000, Note Name: F2, Velocity: 85
Note ON: Time 480006, Note Name: G1, Velocity: 70
Note OFF: Time 480480, Note Name: F2
Note ON: Time 480480, Note Name: G2, Velocity: 81
Note ON: Time 480480, Note Name: G3, Velocity: 96
Note OFF: Time 480486, Note Name: G1
Note OFF: Time 481680, Note Name: G3
Note OFF: Time 481680, Note Name: G2
Note ON: Time 481680, Note Name: A3, Velocity: 67
Note OFF: Time 481800, Note Name: A3
Note ON: Time 481800, Note Name: B3, Velocity: 70
Note OFF: Time 481920, Note Name: B3
Note ON: Time 481920, Note Name: C4, Velocity: 72
Note OFF: Time 482100, Note Name: C4
Note ON: Time 482400, Note Name: G2, Velocity: 56
Note ON: Time 482400, Note Name: G3, Velocity: 66
Note OFF: Time 482580, Note Name: G3
Note OFF: Time 482580, Note Name: G2
Note ON: Time 482880, Note Name: D#2, Velocity: 52
Note ON: Time 482880, Note Name: D#3, Velocity: 62
Note OFF: Time 483060, Note Name: D#3
Note OFF: Time 483060, Note Name: D#2
Note ON: Time 483360, Note Name: C2, Velocity: 48
Note ON: Time 483360, Note Name: C3, Velocity: 57
Note OFF: Time 483540, Note Name: C3
Note OFF: Time 483540, Note Name: C2
Note ON: Time 483840, Note Name: G#1, Velocity: 46
Note ON: Time 483840, Note Name: G#2, Velocity: 54
Note OFF: Time 485760, Note Name: G#2
Note OFF: Time 485760, Note Name: G#1
Note ON: Time 485760, Note Name: C#4, Velocity: 37
Note OFF: Time 485940, Note Name: C#4
Note ON: Time 486240, Note Name: G#3, Velocity: 33
Note OFF: Time 486420, Note Name: G#3
Note ON: Time 486720, Note Name: F3, Velocity: 32
Note OFF: Time 486900, Note Name: F3
Note ON: Time 487200, Note Name: C#3, Velocity: 29
Note OFF: Time 487380, Note Name: C#3
Note ON: Time 487680, Note Name: A#1, Velocity: 24
Note ON: Time 487680, Note Name: A#2, Velocity: 29
Note OFF: Time 489600, Note Name: A#2
Note OFF: Time 489600, Note Name: A#1
Note ON: Time 489600, Note Name: D#4, Velocity: 41
Note OFF: Time 489780, Note Name: D#4
Note ON: Time 490080, Note Name: A#3, Velocity: 37
Note OFF: Time 490260, Note Name: A#3
Note ON: Time 490560, Note Name: G3, Velocity: 37
Note OFF: Time 490740, Note Name: G3
Note ON: Time 491040, Note Name: D#3, Velocity: 37
Note OFF: Time 491220, Note Name: D#3
Note ON: Time 491520, Note Name: F3, Velocity: 35
Note OFF: Time 491700, Note Name: F3
Note ON: Time 492000, Note Name: G#3, Velocity: 38
Note OFF: Time 492180, Note Name: G#3
Note ON: Time 492480, Note Name: A3, Velocity: 39
Note OFF: Time 492660, Note Name: A3
Note ON: Time 492960, Note Name: F#3, Velocity: 37
Note OFF: Time 493140, Note Name: F#3
Note ON: Time 493440, Note Name: G3, Velocity: 46
Note OFF: Time 493620, Note Name: G3
Note ON: Time 493920, Note Name: F#3, Velocity: 44
Note OFF: Time 494100, Note Name: F#3
Note ON: Time 494400, Note Name: G3, Velocity: 60
Note OFF: Time 494580, Note Name: G3
Note ON: Time 494880, Note Name: G2, Velocity: 56
Note OFF: Time 495060, Note Name: G2
Note ON: Time 495360, Note Name: C2, Velocity: 70
Note ON: Time 495360, Note Name: C3, Velocity: 70
Note OFF: Time 495600, Note Name: C3
Note ON: Time 495600, Note Name: C3, Velocity: 31
Note OFF: Time 495719, Note Name: C3
Note ON: Time 495720, Note Name: G3, Velocity: 26
Note OFF: Time 495840, Note Name: G3
Note ON: Time 495840, Note Name: C3, Velocity: 31
Note OFF: Time 495959, Note Name: C3
Note ON: Time 495960, Note Name: G3, Velocity: 27
Note OFF: Time 496080, Note Name: G3
Note ON: Time 496080, Note Name: C3, Velocity: 31
Note OFF: Time 496199, Note Name: C3
Note ON: Time 496200, Note Name: G3, Velocity: 27
Note OFF: Time 496320, Note Name: G3
Note ON: Time 496320, Note Name: C3, Velocity: 31
Note OFF: Time 496439, Note Name: C3
Note ON: Time 496440, Note Name: G3, Velocity: 26
Note OFF: Time 496560, Note Name: G3
Note ON: Time 496560, Note Name: C3, Velocity: 31
Note OFF: Time 496679, Note Name: C3
Note ON: Time 496680, Note Name: G3, Velocity: 27
Note OFF: Time 496800, Note Name: G3
Note ON: Time 496800, Note Name: C3, Velocity: 31
Note OFF: Time 496919, Note Name: C3
Note ON: Time 496920, Note Name: G3, Velocity: 27
Note OFF: Time 497040, Note Name: G3
Note ON: Time 497040, Note Name: C3, Velocity: 31
Note OFF: Time 497159, Note Name: C3
Note ON: Time 497160, Note Name: G3, Velocity: 25
Note OFF: Time 497280, Note Name: G3
Note OFF: Time 497280, Note Name: C2
Note ON: Time 497280, Note Name: C3, Velocity: 31
Note OFF: Time 497399, Note Name: C3
Note ON: Time 497400, Note Name: G3, Velocity: 26
Note OFF: Time 497520, Note Name: G3
Note ON: Time 497520, Note Name: C3, Velocity: 31
Note OFF: Time 497639, Note Name: C3
Note ON: Time 497640, Note Name: G3, Velocity: 26
Note OFF: Time 497760, Note Name: G3
Note ON: Time 497760, Note Name: C3, Velocity: 31
Note OFF: Time 497879, Note Name: C3
Note ON: Time 497880, Note Name: G3, Velocity: 27
Note OFF: Time 498000, Note Name: G3
Note ON: Time 498000, Note Name: C3, Velocity: 31
Note OFF: Time 498119, Note Name: C3
Note ON: Time 498120, Note Name: G3, Velocity: 27
Note OFF: Time 498240, Note Name: G3
Note ON: Time 498240, Note Name: C3, Velocity: 31
Note OFF: Time 498359, Note Name: C3
Note ON: Time 498360, Note Name: G3, Velocity: 26
Note OFF: Time 498480, Note Name: G3
Note ON: Time 498480, Note Name: C3, Velocity: 31
Note OFF: Time 498599, Note Name: C3
Note ON: Time 498600, Note Name: G3, Velocity: 27
Note OFF: Time 498720, Note Name: G3
Note ON: Time 498720, Note Name: C3, Velocity: 31
Note OFF: Time 498839, Note Name: C3
Note ON: Time 498840, Note Name: A3, Velocity: 27
Note OFF: Time 498960, Note Name: A3
Note ON: Time 498960, Note Name: C3, Velocity: 31
Note OFF: Time 499079, Note Name: C3
Note ON: Time 499080, Note Name: A3, Velocity: 25
Note OFF: Time 499200, Note Name: A3
Note ON: Time 499200, Note Name: B2, Velocity: 26
Note ON: Time 499200, Note Name: D3, Velocity: 31
Note ON: Time 499320, Note Name: G3, Velocity: 25
Note OFF: Time 499380, Note Name: D3
Note OFF: Time 499380, Note Name: B2
Note OFF: Time 499440, Note Name: G3
Note ON: Time 499440, Note Name: B2, Velocity: 26
Note ON: Time 499440, Note Name: D3, Velocity: 31
Note ON: Time 499560, Note Name: G3, Velocity: 25
Note OFF: Time 499620, Note Name: D3
Note OFF: Time 499620, Note Name: B2
Note OFF: Time 499680, Note Name: G3
Note ON: Time 499680, Note Name: B2, Velocity: 26
Note ON: Time 499680, Note Name: D3, Velocity: 31
Note ON: Time 499800, Note Name: G3, Velocity: 25
Note OFF: Time 499860, Note Name: D3
Note OFF: Time 499860, Note Name: B2
Note OFF: Time 499920, Note Name: G3
Note ON: Time 499920, Note Name: B2, Velocity: 26
Note ON: Time 499920, Note Name: D3, Velocity: 31
Note ON: Time 500040, Note Name: G3, Velocity: 25
Note OFF: Time 500100, Note Name: D3
Note OFF: Time 500100, Note Name: B2
Note OFF: Time 500160, Note Name: G3
Note ON: Time 500160, Note Name: B2, Velocity: 26
Note ON: Time 500160, Note Name: D3, Velocity: 31
Note ON: Time 500280, Note Name: G3, Velocity: 25
Note OFF: Time 500340, Note Name: D3
Note OFF: Time 500340, Note Name: B2
Note OFF: Time 500400, Note Name: G3
Note ON: Time 500400, Note Name: B2, Velocity: 26
Note ON: Time 500400, Note Name: D3, Velocity: 31
Note ON: Time 500520, Note Name: G3, Velocity: 25
Note OFF: Time 500580, Note Name: D3
Note OFF: Time 500580, Note Name: B2
Note OFF: Time 500640, Note Name: G3
Note ON: Time 500640, Note Name: B2, Velocity: 26
Note ON: Time 500640, Note Name: D3, Velocity: 31
Note ON: Time 500760, Note Name: G3, Velocity: 25
Note OFF: Time 500820, Note Name: D3
Note OFF: Time 500820, Note Name: B2
Note OFF: Time 500880, Note Name: G3
Note ON: Time 500880, Note Name: B2, Velocity: 26
Note ON: Time 500880, Note Name: D3, Velocity: 31
Note ON: Time 501000, Note Name: G3, Velocity: 25
Note OFF: Time 501060, Note Name: D3
Note OFF: Time 501060, Note Name: B2
Note OFF: Time 501120, Note Name: G3
Note ON: Time 501120, Note Name: B2, Velocity: 26
Note ON: Time 501120, Note Name: D3, Velocity: 31
Note ON: Time 501240, Note Name: G3, Velocity: 25
Note OFF: Time 501300, Note Name: D3
Note OFF: Time 501300, Note Name: B2
Note OFF: Time 501360, Note Name: G3
Note ON: Time 501360, Note Name: B2, Velocity: 26
Note ON: Time 501360, Note Name: D3, Velocity: 31
Note ON: Time 501480, Note Name: G3, Velocity: 25
Note OFF: Time 501540, Note Name: D3
Note OFF: Time 501540, Note Name: B2
Note OFF: Time 501600, Note Name: G3
Note ON: Time 501600, Note Name: B2, Velocity: 26
Note ON: Time 501600, Note Name: D3, Velocity: 31
Note ON: Time 501720, Note Name: G3, Velocity: 25
Note OFF: Time 501780, Note Name: D3
Note OFF: Time 501780, Note Name: B2
Note OFF: Time 501840, Note Name: G3
Note ON: Time 501840, Note Name: B2, Velocity: 26
Note ON: Time 501840, Note Name: D3, Velocity: 31
Note ON: Time 501960, Note Name: G3, Velocity: 25
Note OFF: Time 502020, Note Name: D3
Note OFF: Time 502020, Note Name: B2
Note OFF: Time 502080, Note Name: G3
Note ON: Time 502080, Note Name: B2, Velocity: 26
Note ON: Time 502080, Note Name: D3, Velocity: 31
Note ON: Time 502200, Note Name: G3, Velocity: 25
Note OFF: Time 502260, Note Name: D3
Note OFF: Time 502260, Note Name: B2
Note OFF: Time 502320, Note Name: G3
Note ON: Time 502320, Note Name: B2, Velocity: 26
Note ON: Time 502320, Note Name: D3, Velocity: 31
Note ON: Time 502440, Note Name: G3, Velocity: 25
Note OFF: Time 502500, Note Name: D3
Note OFF: Time 502500, Note Name: B2
Note OFF: Time 502560, Note Name: G3
Note ON: Time 502560, Note Name: B2, Velocity: 26
Note ON: Time 502560, Note Name: D3, Velocity: 31
Note ON: Time 502680, Note Name: G3, Velocity: 25
Note OFF: Time 502740, Note Name: D3
Note OFF: Time 502740, Note Name: B2
Note OFF: Time 502800, Note Name: G3
Note ON: Time 502800, Note Name: B2, Velocity: 26
Note ON: Time 502800, Note Name: D3, Velocity: 31
Note ON: Time 502920, Note Name: G3, Velocity: 25
Note OFF: Time 502980, Note Name: D3
Note OFF: Time 502980, Note Name: B2
Note OFF: Time 503040, Note Name: G3
Note ON: Time 503040, Note Name: D2, Velocity: 33
Note ON: Time 503040, Note Name: D3, Velocity: 33
Note OFF: Time 503280, Note Name: D3
Note ON: Time 503280, Note Name: D3, Velocity: 34
Note OFF: Time 503399, Note Name: D3
Note ON: Time 503400, Note Name: A3, Velocity: 28
Note OFF: Time 503520, Note Name: A3
Note ON: Time 503520, Note Name: D3, Velocity: 34
Note OFF: Time 503639, Note Name: D3
Note ON: Time 503640, Note Name: A3, Velocity: 29
Note OFF: Time 503760, Note Name: A3
Note ON: Time 503760, Note Name: D3, Velocity: 34
Note OFF: Time 503879, Note Name: D3
Note ON: Time 503880, Note Name: A3, Velocity: 29
Note OFF: Time 504000, Note Name: A3
Note ON: Time 504000, Note Name: D3, Velocity: 34
Note OFF: Time 504119, Note Name: D3
Note ON: Time 504120, Note Name: A3, Velocity: 28
Note OFF: Time 504240, Note Name: A3
Note ON: Time 504240, Note Name: D3, Velocity: 34
Note OFF: Time 504359, Note Name: D3
Note ON: Time 504360, Note Name: A3, Velocity: 29
Note OFF: Time 504480, Note Name: A3
Note ON: Time 504480, Note Name: D3, Velocity: 34
Note OFF: Time 504599, Note Name: D3
Note ON: Time 504600, Note Name: A3, Velocity: 30
Note OFF: Time 504720, Note Name: A3
Note ON: Time 504720, Note Name: D3, Velocity: 35
Note OFF: Time 504839, Note Name: D3
Note ON: Time 504840, Note Name: A3, Velocity: 28
Note OFF: Time 504960, Note Name: A3
Note OFF: Time 504960, Note Name: D2
Note ON: Time 504960, Note Name: D3, Velocity: 35
Note OFF: Time 505079, Note Name: D3
Note ON: Time 505080, Note Name: A3, Velocity: 29
Note OFF: Time 505200, Note Name: A3
Note ON: Time 505200, Note Name: D3, Velocity: 35
Note OFF: Time 505319, Note Name: D3
Note ON: Time 505320, Note Name: A3, Velocity: 29
Note OFF: Time 505440, Note Name: A3
Note ON: Time 505440, Note Name: D3, Velocity: 35
Note OFF: Time 505559, Note Name: D3
Note ON: Time 505560, Note Name: A3, Velocity: 30
Note OFF: Time 505680, Note Name: A3
Note ON: Time 505680, Note Name: D3, Velocity: 35
Note OFF: Time 505799, Note Name: D3
Note ON: Time 505800, Note Name: A3, Velocity: 30
Note OFF: Time 505920, Note Name: A3
Note ON: Time 505920, Note Name: D3, Velocity: 36
Note OFF: Time 506039, Note Name: D3
Note ON: Time 506040, Note Name: A3, Velocity: 29
Note OFF: Time 506160, Note Name: A3
Note ON: Time 506160, Note Name: D3, Velocity: 36
Note OFF: Time 506279, Note Name: D3
Note ON: Time 506280, Note Name: A3, Velocity: 31
Note OFF: Time 506400, Note Name: A3
Note ON: Time 506400, Note Name: D3, Velocity: 36
Note OFF: Time 506519, Note Name: D3
Note ON: Time 506520, Note Name: B3, Velocity: 31
Note OFF: Time 506640, Note Name: B3
Note ON: Time 506640, Note Name: D3, Velocity: 36
Note OFF: Time 506759, Note Name: D3
Note ON: Time 506760, Note Name: B3, Velocity: 29
Note OFF: Time 506880, Note Name: B3
Note ON: Time 506880, Note Name: C3, Velocity: 30
Note ON: Time 506880, Note Name: E3, Velocity: 37
Note ON: Time 507000, Note Name: A3, Velocity: 29
Note OFF: Time 507060, Note Name: E3
Note OFF: Time 507060, Note Name: C3
Note OFF: Time 507120, Note Name: A3
Note ON: Time 507120, Note Name: C3, Velocity: 30
Note ON: Time 507120, Note Name: E3, Velocity: 37
Note ON: Time 507240, Note Name: A3, Velocity: 29
Note OFF: Time 507300, Note Name: E3
Note OFF: Time 507300, Note Name: C3
Note OFF: Time 507360, Note Name: A3
Note ON: Time 507360, Note Name: C3, Velocity: 30
Note ON: Time 507360, Note Name: E3, Velocity: 37
Note ON: Time 507480, Note Name: A3, Velocity: 29
Note OFF: Time 507540, Note Name: E3
Note OFF: Time 507540, Note Name: C3
Note OFF: Time 507600, Note Name: A3
Note ON: Time 507600, Note Name: C3, Velocity: 30
Note ON: Time 507600, Note Name: E3, Velocity: 37
Note ON: Time 507720, Note Name: A3, Velocity: 29
Note OFF: Time 507780, Note Name: E3
Note OFF: Time 507780, Note Name: C3
Note OFF: Time 507840, Note Name: A3
Note ON: Time 507840, Note Name: C3, Velocity: 30
Note ON: Time 507840, Note Name: E3, Velocity: 37
Note ON: Time 507960, Note Name: A3, Velocity: 29
Note OFF: Time 508020, Note Name: E3
Note OFF: Time 508020, Note Name: C3
Note OFF: Time 508080, Note Name: A3
Note ON: Time 508080, Note Name: C3, Velocity: 30
Note ON: Time 508080, Note Name: E3, Velocity: 37
Note ON: Time 508200, Note Name: A3, Velocity: 29
Note OFF: Time 508260, Note Name: E3
Note OFF: Time 508260, Note Name: C3
Note OFF: Time 508320, Note Name: A3
Note ON: Time 508320, Note Name: C3, Velocity: 30
Note ON: Time 508320, Note Name: E3, Velocity: 37
Note ON: Time 508440, Note Name: A3, Velocity: 29
Note OFF: Time 508500, Note Name: E3
Note OFF: Time 508500, Note Name: C3
Note OFF: Time 508560, Note Name: A3
Note ON: Time 508560, Note Name: C3, Velocity: 30
Note ON: Time 508560, Note Name: E3, Velocity: 37
Note ON: Time 508680, Note Name: A3, Velocity: 29
Note OFF: Time 508740, Note Name: E3
Note OFF: Time 508740, Note Name: C3
Note OFF: Time 508800, Note Name: A3
Note ON: Time 508800, Note Name: C3, Velocity: 30
Note ON: Time 508800, Note Name: E3, Velocity: 37
Note ON: Time 508920, Note Name: A3, Velocity: 29
Note OFF: Time 508980, Note Name: E3
Note OFF: Time 508980, Note Name: C3
Note OFF: Time 509040, Note Name: A3
Note ON: Time 509040, Note Name: C3, Velocity: 30
Note ON: Time 509040, Note Name: E3, Velocity: 37
Note ON: Time 509160, Note Name: A3, Velocity: 29
Note OFF: Time 509220, Note Name: E3
Note OFF: Time 509220, Note Name: C3
Note OFF: Time 509280, Note Name: A3
Note ON: Time 509280, Note Name: C3, Velocity: 30
Note ON: Time 509280, Note Name: E3, Velocity: 37
Note ON: Time 509400, Note Name: A3, Velocity: 29
Note OFF: Time 509460, Note Name: E3
Note OFF: Time 509460, Note Name: C3
Note OFF: Time 509520, Note Name: A3
Note ON: Time 509520, Note Name: C3, Velocity: 30
Note ON: Time 509520, Note Name: E3, Velocity: 38
Note ON: Time 509640, Note Name: A3, Velocity: 30
Note OFF: Time 509700, Note Name: E3
Note OFF: Time 509700, Note Name: C3
Note OFF: Time 509760, Note Name: A3
Note ON: Time 509760, Note Name: C3, Velocity: 31
Note ON: Time 509760, Note Name: E3, Velocity: 38
Note ON: Time 509880, Note Name: A3, Velocity: 30
Note OFF: Time 509940, Note Name: E3
Note OFF: Time 509940, Note Name: C3
Note OFF: Time 510000, Note Name: A3
Note ON: Time 510000, Note Name: C3, Velocity: 31
Note ON: Time 510000, Note Name: E3, Velocity: 39
Note ON: Time 510120, Note Name: A3, Velocity: 30
Note OFF: Time 510180, Note Name: E3
Note OFF: Time 510180, Note Name: C3
Note OFF: Time 510240, Note Name: A3
Note ON: Time 510240, Note Name: C3, Velocity: 31
Note ON: Time 510240, Note Name: E3, Velocity: 39
Note ON: Time 510360, Note Name: A3, Velocity: 31
Note OFF: Time 510420, Note Name: E3
Note OFF: Time 510420, Note Name: C3
Note OFF: Time 510480, Note Name: A3
Note ON: Time 510480, Note Name: C3, Velocity: 33
Note ON: Time 510480, Note Name: E3, Velocity: 39
Note ON: Time 510600, Note Name: A3, Velocity: 31
Note OFF: Time 510660, Note Name: E3
Note OFF: Time 510660, Note Name: C3
Note OFF: Time 510720, Note Name: A3
Note ON: Time 510720, Note Name: F3, Velocity: 34
Note ON: Time 510720, Note Name: A3, Velocity: 41
Note ON: Time 510840, Note Name: C4, Velocity: 33
Note OFF: Time 510900, Note Name: A3
Note OFF: Time 510900, Note Name: F3
Note OFF: Time 510960, Note Name: C4
Note ON: Time 510960, Note Name: F3, Velocity: 35
Note ON: Time 510960, Note Name: A3, Velocity: 41
Note ON: Time 511080, Note Name: C4, Velocity: 34
Note OFF: Time 511140, Note Name: A3
Note OFF: Time 511140, Note Name: F3
Note OFF: Time 511200, Note Name: C4
Note ON: Time 511200, Note Name: F3, Velocity: 35
Note ON: Time 511200, Note Name: A3, Velocity: 42
Note ON: Time 511320, Note Name: C4, Velocity: 34
Note OFF: Time 511380, Note Name: A3
Note OFF: Time 511380, Note Name: F3
Note OFF: Time 511440, Note Name: C4
Note ON: Time 511440, Note Name: F3, Velocity: 35
Note ON: Time 511440, Note Name: A3, Velocity: 42
Note ON: Time 511560, Note Name: C4, Velocity: 34
Note OFF: Time 511620, Note Name: A3
Note OFF: Time 511620, Note Name: F3
Note OFF: Time 511680, Note Name: C4
Note ON: Time 511680, Note Name: F3, Velocity: 36
Note ON: Time 511680, Note Name: A3, Velocity: 44
Note ON: Time 511800, Note Name: D4, Velocity: 35
Note OFF: Time 511860, Note Name: A3
Note OFF: Time 511860, Note Name: F3
Note OFF: Time 511920, Note Name: D4
Note ON: Time 511920, Note Name: F3, Velocity: 37
Note ON: Time 511920, Note Name: A3, Velocity: 45
Note ON: Time 512040, Note Name: D4, Velocity: 36
Note OFF: Time 512100, Note Name: A3
Note OFF: Time 512100, Note Name: F3
Note OFF: Time 512160, Note Name: D4
Note ON: Time 512160, Note Name: F3, Velocity: 37
Note ON: Time 512160, Note Name: A3, Velocity: 45
Note ON: Time 512280, Note Name: D4, Velocity: 37
Note OFF: Time 512340, Note Name: A3
Note OFF: Time 512340, Note Name: F3
Note OFF: Time 512400, Note Name: D4
Note ON: Time 512400, Note Name: F3, Velocity: 38
Note ON: Time 512400, Note Name: A3, Velocity: 46
Note ON: Time 512520, Note Name: D4, Velocity: 37
Note OFF: Time 512580, Note Name: A3
Note OFF: Time 512580, Note Name: F3
Note OFF: Time 512640, Note Name: D4
Note ON: Time 512640, Note Name: F3, Velocity: 35
Note ON: Time 512640, Note Name: A3, Velocity: 43
Note ON: Time 512760, Note Name: D#4, Velocity: 34
Note OFF: Time 512820, Note Name: A3
Note OFF: Time 512820, Note Name: F3
Note OFF: Time 512880, Note Name: D#4
Note ON: Time 512880, Note Name: F3, Velocity: 36
Note ON: Time 512880, Note Name: A3, Velocity: 43
Note ON: Time 513000, Note Name: D#4, Velocity: 35
Note OFF: Time 513060, Note Name: A3
Note OFF: Time 513060, Note Name: F3
Note OFF: Time 513120, Note Name: D#4
Note ON: Time 513120, Note Name: F3, Velocity: 37
Note ON: Time 513120, Note Name: A3, Velocity: 44
Note ON: Time 513240, Note Name: D#4, Velocity: 36
Note OFF: Time 513300, Note Name: A3
Note OFF: Time 513300, Note Name: F3
Note OFF: Time 513360, Note Name: D#4
Note ON: Time 513360, Note Name: F3, Velocity: 37
Note ON: Time 513360, Note Name: A3, Velocity: 44
Note ON: Time 513480, Note Name: D#4, Velocity: 36
Note OFF: Time 513540, Note Name: A3
Note OFF: Time 513540, Note Name: F3
Note OFF: Time 513600, Note Name: D#4
Note ON: Time 513600, Note Name: F3, Velocity: 38
Note ON: Time 513600, Note Name: A3, Velocity: 47
Note ON: Time 513720, Note Name: C4, Velocity: 37
Note OFF: Time 513780, Note Name: A3
Note OFF: Time 513780, Note Name: F3
Note OFF: Time 513840, Note Name: C4
Note ON: Time 513840, Note Name: F3, Velocity: 38
Note ON: Time 513840, Note Name: A3, Velocity: 47
Note ON: Time 513960, Note Name: C4, Velocity: 37
Note OFF: Time 514020, Note Name: A3
Note OFF: Time 514020, Note Name: F3
Note OFF: Time 514080, Note Name: C4
Note ON: Time 514080, Note Name: F3, Velocity: 47
Note ON: Time 514200, Note Name: A3, Velocity: 39
Note OFF: Time 514260, Note Name: F3
Note OFF: Time 514320, Note Name: A3
Note ON: Time 514320, Note Name: F3, Velocity: 49
Note ON: Time 514440, Note Name: A3, Velocity: 39
Note OFF: Time 514500, Note Name: F3
Note OFF: Time 514560, Note Name: A3
Note ON: Time 514560, Note Name: E3, Velocity: 40
Note ON: Time 514680, Note Name: G#3, Velocity: 35
Note OFF: Time 514700, Note Name: E3
Note ON: Time 514800, Note Name: B3, Velocity: 35
Note OFF: Time 514820, Note Name: G#3
Note ON: Time 514920, Note Name: E4, Velocity: 35
Note OFF: Time 514940, Note Name: B3
Note OFF: Time 515040, Note Name: E4
Note ON: Time 515040, Note Name: E3, Velocity: 41
Note ON: Time 515160, Note Name: G#3, Velocity: 35
Note OFF: Time 515180, Note Name: E3
Note ON: Time 515280, Note Name: B3, Velocity: 35
Note OFF: Time 515300, Note Name: G#3
Note ON: Time 515400, Note Name: E4, Velocity: 35
Note OFF: Time 515420, Note Name: B3
Note OFF: Time 515520, Note Name: E4
Note ON: Time 515520, Note Name: E3, Velocity: 39
Note ON: Time 515640, Note Name: A3, Velocity: 35
Note OFF: Time 515660, Note Name: E3
Note ON: Time 515760, Note Name: C4, Velocity: 35
Note OFF: Time 515780, Note Name: A3
Note ON: Time 515880, Note Name: E4, Velocity: 35
Note OFF: Time 515900, Note Name: C4
Note OFF: Time 516000, Note Name: E4
Note ON: Time 516000, Note Name: E3, Velocity: 40
Note ON: Time 516120, Note Name: A3, Velocity: 35
Note OFF: Time 516140, Note Name: E3
Note ON: Time 516240, Note Name: C4, Velocity: 35
Note OFF: Time 516260, Note Name: A3
Note ON: Time 516360, Note Name: E4, Velocity: 35
Note OFF: Time 516380, Note Name: C4
Note OFF: Time 516480, Note Name: E4
Note ON: Time 516480, Note Name: E3, Velocity: 40
Note ON: Time 516600, Note Name: B3, Velocity: 35
Note OFF: Time 516620, Note Name: E3
Note ON: Time 516720, Note Name: D4, Velocity: 35
Note OFF: Time 516740, Note Name: B3
Note ON: Time 516840, Note Name: E4, Velocity: 35
Note OFF: Time 516860, Note Name: D4
Note OFF: Time 516960, Note Name: E4
Note ON: Time 516960, Note Name: E3, Velocity: 40
Note ON: Time 517080, Note Name: B3, Velocity: 35
Note OFF: Time 517100, Note Name: E3
Note ON: Time 517200, Note Name: D4, Velocity: 35
Note OFF: Time 517220, Note Name: B3
Note ON: Time 517320, Note Name: E4, Velocity: 35
Note OFF: Time 517340, Note Name: D4
Note OFF: Time 517440, Note Name: E4
Note ON: Time 517440, Note Name: E3, Velocity: 40
Note ON: Time 517560, Note Name: A3, Velocity: 35
Note OFF: Time 517580, Note Name: E3
Note ON: Time 517680, Note Name: C4, Velocity: 35
Note OFF: Time 517700, Note Name: A3
Note ON: Time 517800, Note Name: E4, Velocity: 35
Note OFF: Time 517820, Note Name: C4
Note OFF: Time 517920, Note Name: E4
Note ON: Time 517920, Note Name: E3, Velocity: 40
Note ON: Time 518040, Note Name: A3, Velocity: 35
Note OFF: Time 518060, Note Name: E3
Note ON: Time 518160, Note Name: C4, Velocity: 35
Note OFF: Time 518180, Note Name: A3
Note ON: Time 518280, Note Name: E4, Velocity: 35
Note OFF: Time 518300, Note Name: C4
Note OFF: Time 518400, Note Name: E4
Note ON: Time 518400, Note Name: E3, Velocity: 40
Note ON: Time 518520, Note Name: G#3, Velocity: 35
Note OFF: Time 518540, Note Name: E3
Note ON: Time 518640, Note Name: B3, Velocity: 35
Note OFF: Time 518660, Note Name: G#3
Note ON: Time 518760, Note Name: E4, Velocity: 35
Note OFF: Time 518780, Note Name: B3
Note OFF: Time 518880, Note Name: E4
Note ON: Time 518880, Note Name: E3, Velocity: 40
Note ON: Time 519000, Note Name: G#3, Velocity: 35
Note OFF: Time 519020, Note Name: E3
Note ON: Time 519120, Note Name: B3, Velocity: 35
Note OFF: Time 519140, Note Name: G#3
Note ON: Time 519240, Note Name: E4, Velocity: 35
Note OFF: Time 519260, Note Name: B3
Note OFF: Time 519360, Note Name: E4
Note ON: Time 519360, Note Name: E3, Velocity: 40
Note ON: Time 519480, Note Name: A3, Velocity: 35
Note OFF: Time 519500, Note Name: E3
Note ON: Time 519600, Note Name: C4, Velocity: 35
Note OFF: Time 519620, Note Name: A3
Note ON: Time 519720, Note Name: E4, Velocity: 35
Note OFF: Time 519740, Note Name: C4
Note OFF: Time 519840, Note Name: E4
Note ON: Time 519840, Note Name: E3, Velocity: 41
Note ON: Time 519960, Note Name: A3, Velocity: 35
Note OFF: Time 519980, Note Name: E3
Note ON: Time 520080, Note Name: C4, Velocity: 35
Note OFF: Time 520100, Note Name: A3
Note ON: Time 520200, Note Name: E4, Velocity: 35
Note OFF: Time 520220, Note Name: C4
Note OFF: Time 520320, Note Name: E4
Note ON: Time 520320, Note Name: E3, Velocity: 40
Note ON: Time 520440, Note Name: B3, Velocity: 35
Note OFF: Time 520460, Note Name: E3
Note ON: Time 520560, Note Name: D4, Velocity: 35
Note OFF: Time 520580, Note Name: B3
Note ON: Time 520680, Note Name: E4, Velocity: 35
Note OFF: Time 520700, Note Name: D4
Note OFF: Time 520800, Note Name: E4
Note ON: Time 520800, Note Name: E3, Velocity: 40
Note ON: Time 520920, Note Name: B3, Velocity: 36
Note OFF: Time 520940, Note Name: E3
Note ON: Time 521040, Note Name: D4, Velocity: 36
Note OFF: Time 521060, Note Name: B3
Note ON: Time 521160, Note Name: E4, Velocity: 36
Note OFF: Time 521180, Note Name: D4
Note OFF: Time 521280, Note Name: E4
Note ON: Time 521280, Note Name: E3, Velocity: 42
Note ON: Time 521400, Note Name: A3, Velocity: 36
Note OFF: Time 521420, Note Name: E3
Note ON: Time 521520, Note Name: C4, Velocity: 37
Note OFF: Time 521540, Note Name: A3
Note ON: Time 521640, Note Name: E4, Velocity: 37
Note OFF: Time 521660, Note Name: C4
Note OFF: Time 521760, Note Name: E4
Note ON: Time 521760, Note Name: E3, Velocity: 42
Note ON: Time 521880, Note Name: A3, Velocity: 37
Note OFF: Time 521900, Note Name: E3
Note ON: Time 522000, Note Name: C4, Velocity: 37
Note OFF: Time 522020, Note Name: A3
Note ON: Time 522120, Note Name: E4, Velocity: 38
Note OFF: Time 522140, Note Name: C4
Note OFF: Time 522240, Note Name: E4
Note ON: Time 522240, Note Name: E3, Velocity: 44
Note OFF: Time 522360, Note Name: E3
Note ON: Time 522360, Note Name: G#3, Velocity: 38
Note OFF: Time 522480, Note Name: G#3
Note ON: Time 522480, Note Name: B3, Velocity: 38
Note OFF: Time 522600, Note Name: B3
Note ON: Time 522600, Note Name: E4, Velocity: 38
Note OFF: Time 522720, Note Name: E4
Note ON: Time 522720, Note Name: D#4, Velocity: 50
Note OFF: Time 522840, Note Name: D#4
Note ON: Time 522840, Note Name: E4, Velocity: 41
Note OFF: Time 522960, Note Name: E4
Note ON: Time 522960, Note Name: C4, Velocity: 40
Note OFF: Time 523080, Note Name: C4
Note ON: Time 523080, Note Name: A3, Velocity: 41
Note OFF: Time 523200, Note Name: A3
Note ON: Time 523200, Note Name: E3, Velocity: 52
Note OFF: Time 523320, Note Name: E3
Note ON: Time 523320, Note Name: G#3, Velocity: 44
Note OFF: Time 523440, Note Name: G#3
Note ON: Time 523440, Note Name: B3, Velocity: 45
Note OFF: Time 523560, Note Name: B3
Note ON: Time 523560, Note Name: E4, Velocity: 45
Note OFF: Time 523680, Note Name: E4
Note ON: Time 523680, Note Name: D#4, Velocity: 60
Note OFF: Time 523800, Note Name: D#4
Note ON: Time 523800, Note Name: E4, Velocity: 51
Note OFF: Time 523920, Note Name: E4
Note ON: Time 523920, Note Name: C4, Velocity: 51
Note OFF: Time 524040, Note Name: C4
Note ON: Time 524040, Note Name: A3, Velocity: 52
Note OFF: Time 524160, Note Name: A3
Note ON: Time 524160, Note Name: E3, Velocity: 63
Note OFF: Time 524280, Note Name: E3
Note ON: Time 524280, Note Name: G#3, Velocity: 52
Note OFF: Time 524400, Note Name: G#3
Note ON: Time 524400, Note Name: B3, Velocity: 52
Note OFF: Time 524520, Note Name: B3
Note ON: Time 524520, Note Name: E4, Velocity: 52
Note OFF: Time 524640, Note Name: E4
Note ON: Time 524640, Note Name: E3, Velocity: 63
Note OFF: Time 524760, Note Name: E3
Note ON: Time 524760, Note Name: A3, Velocity: 52
Note OFF: Time 524880, Note Name: A3
Note ON: Time 524880, Note Name: C4, Velocity: 52
Note OFF: Time 525000, Note Name: C4
Note ON: Time 525000, Note Name: E4, Velocity: 52
Note OFF: Time 525120, Note Name: E4
Note ON: Time 525120, Note Name: E3, Velocity: 63
Note OFF: Time 525240, Note Name: E3
Note ON: Time 525240, Note Name: G#3, Velocity: 52
Note OFF: Time 525360, Note Name: G#3
Note ON: Time 525360, Note Name: B3, Velocity: 52
Note OFF: Time 525480, Note Name: B3
Note ON: Time 525480, Note Name: E4, Velocity: 52
Note OFF: Time 525600, Note Name: E4
Note ON: Time 525600, Note Name: E3, Velocity: 63
Note OFF: Time 525720, Note Name: E3
Note ON: Time 525720, Note Name: A3, Velocity: 52
Note OFF: Time 525840, Note Name: A3
Note ON: Time 525840, Note Name: C4, Velocity: 52
Note OFF: Time 525960, Note Name: C4
Note ON: Time 525960, Note Name: E4, Velocity: 52
Note OFF: Time 526080, Note Name: E4
Note ON: Time 526080, Note Name: E3, Velocity: 54
Note ON: Time 526080, Note Name: G#3, Velocity: 54
Note ON: Time 526080, Note Name: B3, Velocity: 54
Note ON: Time 526080, Note Name: E4, Velocity: 63
Note OFF: Time 526560, Note Name: E4
Note OFF: Time 526560, Note Name: E3
Note OFF: Time 526560, Note Name: G#3
Note OFF: Time 526560, Note Name: B3
Note ON: Time 529440, Note Name: E2, Velocity: 85
Note OFF: Time 529560, Note Name: E2
Note ON: Time 529560, Note Name: G#2, Velocity: 76
Note OFF: Time 529680, Note Name: G#2
Note ON: Time 529680, Note Name: B2, Velocity: 76
Note OFF: Time 529800, Note Name: B2
Note ON: Time 529800, Note Name: E3, Velocity: 75
Note OFF: Time 529920, Note Name: E3
Note ON: Time 529920, Note Name: E2, Velocity: 77
Note OFF: Time 530040, Note Name: E2
Note ON: Time 530160, Note Name: E3, Velocity: 68
Note OFF: Time 530280, Note Name: E3
Note ON: Time 530400, Note Name: F#2, Velocity: 73
Note OFF: Time 530520, Note Name: F#2
Note ON: Time 530640, Note Name: F#3, Velocity: 66
Note OFF: Time 530760, Note Name: F#3
Note ON: Time 530880, Note Name: G#2, Velocity: 71
Note OFF: Time 531000, Note Name: G#2
Note ON: Time 531120, Note Name: G#3, Velocity: 65
Note OFF: Time 531240, Note Name: G#3
Note ON: Time 531840, Note Name: G#2, Velocity: 69
Note OFF: Time 531960, Note Name: G#2
Note ON: Time 532080, Note Name: G#3, Velocity: 61
Note OFF: Time 532200, Note Name: G#3
Note ON: Time 532320, Note Name: A2, Velocity: 65
Note OFF: Time 532440, Note Name: A2
Note ON: Time 532560, Note Name: A3, Velocity: 59
Note OFF: Time 532680, Note Name: A3
Note ON: Time 532800, Note Name: B2, Velocity: 65
Note OFF: Time 532920, Note Name: B2
Note ON: Time 533040, Note Name: B3, Velocity: 54
Note OFF: Time 533160, Note Name: B3
Note ON: Time 534720, Note Name: B2, Velocity: 41
Note OFF: Time 534840, Note Name: B2
Note ON: Time 534960, Note Name: B3, Velocity: 36
Note OFF: Time 535080, Note Name: B3
Note ON: Time 535200, Note Name: C#3, Velocity: 41
Note OFF: Time 535320, Note Name: C#3
Note ON: Time 535440, Note Name: C#4, Velocity: 36
Note OFF: Time 535560, Note Name: C#4
Note ON: Time 535680, Note Name: D3, Velocity: 40
Note OFF: Time 535800, Note Name: D3
Note ON: Time 535920, Note Name: D4, Velocity: 37
Note OFF: Time 536040, Note Name: D4
Note ON: Time 536160, Note Name: E3, Velocity: 39
Note OFF: Time 536280, Note Name: E3
Note ON: Time 536400, Note Name: E4, Velocity: 36
Note OFF: Time 536520, Note Name: E4
Note ON: Time 536640, Note Name: F#3, Velocity: 38
Note OFF: Time 536760, Note Name: F#3
Note ON: Time 536880, Note Name: F#4, Velocity: 37
Note OFF: Time 537000, Note Name: F#4
Note ON: Time 537120, Note Name: G#3, Velocity: 40
Note OFF: Time 537240, Note Name: G#3
Note ON: Time 537360, Note Name: G#4, Velocity: 37
Note OFF: Time 537480, Note Name: G#4
Note ON: Time 537600, Note Name: E4, Velocity: 33
Note ON: Time 537600, Note Name: C#4, Velocity: 33
Note ON: Time 537600, Note Name: A4, Velocity: 39
Note ON: Time 537600, Note Name: A3, Velocity: 33
Note OFF: Time 538560, Note Name: A3
Note OFF: Time 538560, Note Name: E4
Note OFF: Time 538560, Note Name: C#4
Note OFF: Time 538560, Note Name: A4
Note ON: Time 538560, Note Name: B3, Velocity: 29
Note ON: Time 538560, Note Name: E4, Velocity: 35
Note ON: Time 538560, Note Name: G#3, Velocity: 29
Note ON: Time 538560, Note Name: E3, Velocity: 29
Note OFF: Time 539040, Note Name: E3
Note OFF: Time 539040, Note Name: B3
Note OFF: Time 539040, Note Name: E4
Note OFF: Time 539040, Note Name: G#3
Note ON: Time 539040, Note Name: A3, Velocity: 29
Note ON: Time 539040, Note Name: C#4, Velocity: 29
Note ON: Time 539040, Note Name: F#4, Velocity: 35
Note ON: Time 539040, Note Name: F#3, Velocity: 29
Note OFF: Time 539520, Note Name: F#3
Note OFF: Time 539520, Note Name: A3
Note OFF: Time 539520, Note Name: C#4
Note OFF: Time 539520, Note Name: F#4
Note ON: Time 539520, Note Name: C#3, Velocity: 33
Note ON: Time 539520, Note Name: C#4, Velocity: 39
Note ON: Time 539520, Note Name: G#3, Velocity: 33
Note ON: Time 539520, Note Name: F3, Velocity: 33
Note OFF: Time 540480, Note Name: F3
Note OFF: Time 540480, Note Name: C#3
Note OFF: Time 540480, Note Name: C#4
Note OFF: Time 540480, Note Name: G#3
Note ON: Time 540480, Note Name: F#3, Velocity: 28
Note ON: Time 540480, Note Name: D3, Velocity: 28
Note ON: Time 540480, Note Name: D4, Velocity: 34
Note ON: Time 540480, Note Name: A3, Velocity: 28
Note OFF: Time 541440, Note Name: A3
Note OFF: Time 541440, Note Name: F#3
Note OFF: Time 541440, Note Name: D3
Note OFF: Time 541440, Note Name: D4
Note ON: Time 541440, Note Name: B2, Velocity: 37
Note ON: Time 541440, Note Name: E3, Velocity: 45
Note ON: Time 541440, Note Name: G#3, Velocity: 37
Note ON: Time 541440, Note Name: B3, Velocity: 45
Note OFF: Time 542400, Note Name: B3
Note OFF: Time 542400, Note Name: B2
Note OFF: Time 542400, Note Name: E3
Note OFF: Time 542400, Note Name: G#3
Note ON: Time 542400, Note Name: A3, Velocity: 40
Note ON: Time 542400, Note Name: C#3, Velocity: 40
Note ON: Time 542400, Note Name: E3, Velocity: 40
Note ON: Time 542400, Note Name: C#4, Velocity: 49
Note OFF: Time 542880, Note Name: C#4
Note OFF: Time 542880, Note Name: A3
Note OFF: Time 542880, Note Name: C#3
Note OFF: Time 542880, Note Name: E3
Note ON: Time 542880, Note Name: B3, Velocity: 46
Note ON: Time 542880, Note Name: D4, Velocity: 55
Note ON: Time 542880, Note Name: D3, Velocity: 36
Note ON: Time 542880, Note Name: F#3, Velocity: 41
Note OFF: Time 543360, Note Name: F#3
Note OFF: Time 543360, Note Name: B3
Note OFF: Time 543360, Note Name: D4
Note OFF: Time 543360, Note Name: D3
Note ON: Time 543360, Note Name: C#4, Velocity: 49
Note ON: Time 543360, Note Name: E3, Velocity: 49
Note ON: Time 543360, Note Name: A3, Velocity: 49
Note ON: Time 543360, Note Name: E4, Velocity: 59
Note OFF: Time 544320, Note Name: E4
Note OFF: Time 544320, Note Name: A3
Note OFF: Time 544320, Note Name: C#4
Note ON: Time 544320, Note Name: B3, Velocity: 27
Note ON: Time 544320, Note Name: G#3, Velocity: 27
Note ON: Time 544320, Note Name: E4, Velocity: 32
Note OFF: Time 545278, Note Name: E4
Note OFF: Time 545280, Note Name: E3
Note OFF: Time 545280, Note Name: B3
Note OFF: Time 545280, Note Name: G#3
Note ON: Time 545280, Note Name: C4, Velocity: 35
Note ON: Time 545280, Note Name: A3, Velocity: 29
Note OFF: Time 546240, Note Name: A3
Note OFF: Time 546240, Note Name: C4
Note ON: Time 546240, Note Name: B3, Velocity: 31
Note ON: Time 546240, Note Name: G3, Velocity: 26
Note ON: Time 546240, Note Name: E3, Velocity: 26
Note OFF: Time 546720, Note Name: E3
Note OFF: Time 546720, Note Name: G3
Note OFF: Time 546720, Note Name: B3
Note ON: Time 546720, Note Name: A3, Velocity: 31
Note ON: Time 546720, Note Name: F3, Velocity: 26
Note OFF: Time 547200, Note Name: F3
Note OFF: Time 547200, Note Name: A3
Note ON: Time 547200, Note Name: G3, Velocity: 35
Note ON: Time 547200, Note Name: E3, Velocity: 29
Note ON: Time 547200, Note Name: C3, Velocity: 29
Note OFF: Time 548160, Note Name: C3
Note OFF: Time 548160, Note Name: E3
Note OFF: Time 548160, Note Name: G3
Note ON: Time 548160, Note Name: F3, Velocity: 30
Note ON: Time 548160, Note Name: D3, Velocity: 25
Note OFF: Time 549120, Note Name: D3
Note OFF: Time 549120, Note Name: F3
Note ON: Time 549120, Note Name: C3, Velocity: 35
Note ON: Time 549120, Note Name: E3, Velocity: 35
Note ON: Time 549120, Note Name: G2, Velocity: 26
Note OFF: Time 549600, Note Name: E3
Note OFF: Time 549600, Note Name: C3
Note ON: Time 549600, Note Name: D3, Velocity: 35
Note ON: Time 549600, Note Name: F3, Velocity: 35
Note OFF: Time 551040, Note Name: F3
Note OFF: Time 551040, Note Name: D3
Note OFF: Time 551040, Note Name: G2
Note ON: Time 551040, Note Name: C3, Velocity: 37
Note ON: Time 551040, Note Name: E3, Velocity: 40
Note OFF: Time 551520, Note Name: E3
Note OFF: Time 551520, Note Name: C3
Note ON: Time 552960, Note Name: E5, Velocity: 44
Note ON: Time 552960, Note Name: C5, Velocity: 37
Note OFF: Time 553920, Note Name: C5
Note OFF: Time 553920, Note Name: E5
Note ON: Time 553920, Note Name: F5, Velocity: 40
Note ON: Time 553920, Note Name: D5, Velocity: 40
Note ON: Time 553920, Note Name: B4, Velocity: 33
Note ON: Time 553920, Note Name: G#4, Velocity: 33
Note OFF: Time 554400, Note Name: G#4
Note OFF: Time 554400, Note Name: F5
Note OFF: Time 554400, Note Name: D5
Note OFF: Time 554400, Note Name: B4
Note ON: Time 554400, Note Name: E5, Velocity: 40
Note ON: Time 554400, Note Name: C5, Velocity: 40
Note ON: Time 554400, Note Name: A4, Velocity: 33
Note OFF: Time 554880, Note Name: A4
Note OFF: Time 554880, Note Name: C5
Note OFF: Time 554880, Note Name: E5
Note ON: Time 554880, Note Name: D5, Velocity: 44
Note ON: Time 554880, Note Name: B4, Velocity: 44
Note ON: Time 554880, Note Name: G#4, Velocity: 37
Note ON: Time 554880, Note Name: E4, Velocity: 37
Note OFF: Time 555840, Note Name: E4
Note OFF: Time 555840, Note Name: D5
Note OFF: Time 555840, Note Name: B4
Note OFF: Time 555840, Note Name: G#4
Note ON: Time 555840, Note Name: C5, Velocity: 39
Note ON: Time 555840, Note Name: A4, Velocity: 39
Note ON: Time 555840, Note Name: F4, Velocity: 32
Note OFF: Time 556800, Note Name: F4
Note OFF: Time 556800, Note Name: A4
Note OFF: Time 556800, Note Name: C5
Note ON: Time 556800, Note Name: D4, Velocity: 39
Note ON: Time 556800, Note Name: F4, Velocity: 47
Note ON: Time 556800, Note Name: G4, Velocity: 39
Note ON: Time 556800, Note Name: B4, Velocity: 47
Note OFF: Time 557760, Note Name: B4
Note OFF: Time 557760, Note Name: D4
Note OFF: Time 557760, Note Name: F4
Note OFF: Time 557760, Note Name: G4
Note ON: Time 557760, Note Name: E4, Velocity: 45
Note ON: Time 557760, Note Name: G4, Velocity: 45
Note ON: Time 557760, Note Name: C5, Velocity: 53
Note OFF: Time 558240, Note Name: C5
Note OFF: Time 558240, Note Name: G4
Note OFF: Time 558240, Note Name: E4
Note ON: Time 558240, Note Name: C5, Velocity: 56
Note ON: Time 558240, Note Name: D5, Velocity: 57
Note ON: Time 558240, Note Name: F4, Velocity: 45
Note ON: Time 558240, Note Name: A4, Velocity: 48
Note OFF: Time 558720, Note Name: A4
Note OFF: Time 558720, Note Name: C5
Note OFF: Time 558720, Note Name: D5
Note OFF: Time 558720, Note Name: F4
Note ON: Time 558720, Note Name: G4, Velocity: 53
Note ON: Time 558720, Note Name: C5, Velocity: 53
Note ON: Time 558720, Note Name: E5, Velocity: 65
Note OFF: Time 559680, Note Name: E5
Note OFF: Time 559680, Note Name: C5
Note ON: Time 559680, Note Name: B4, Velocity: 45
Note ON: Time 559680, Note Name: D5, Velocity: 53
Note OFF: Time 560160, Note Name: D5
Note OFF: Time 560160, Note Name: B4
Note OFF: Time 560160, Note Name: G4
Note ON: Time 560160, Note Name: G3, Velocity: 44
Note OFF: Time 560320, Note Name: G3
Note ON: Time 560320, Note Name: A3, Velocity: 43
Note OFF: Time 560480, Note Name: A3
Note ON: Time 560480, Note Name: B3, Velocity: 41
Note OFF: Time 560640, Note Name: B3
Note ON: Time 560640, Note Name: E4, Velocity: 45
Note ON: Time 560640, Note Name: C4, Velocity: 37
Note OFF: Time 561600, Note Name: C4
Note OFF: Time 561600, Note Name: E4
Note ON: Time 561600, Note Name: D4, Velocity: 41
Note ON: Time 561600, Note Name: B3, Velocity: 33
Note ON: Time 561600, Note Name: G#3, Velocity: 33
Note OFF: Time 562080, Note Name: G#3
Note OFF: Time 562080, Note Name: B3
Note OFF: Time 562080, Note Name: D4
Note ON: Time 562080, Note Name: C4, Velocity: 41
Note ON: Time 562080, Note Name: A3, Velocity: 33
Note OFF: Time 562560, Note Name: A3
Note OFF: Time 562560, Note Name: C4
Note ON: Time 562560, Note Name: B3, Velocity: 37
Note ON: Time 562560, Note Name: D4, Velocity: 56
Note ON: Time 562560, Note Name: G#3, Velocity: 37
Note ON: Time 562560, Note Name: E3, Velocity: 37
Note OFF: Time 563520, Note Name: E3
Note OFF: Time 563520, Note Name: B3
Note OFF: Time 563520, Note Name: D4
Note OFF: Time 563520, Note Name: G#3
Note ON: Time 563520, Note Name: F3, Velocity: 39
Note ON: Time 563520, Note Name: A3, Velocity: 39
Note ON: Time 563520, Note Name: C4, Velocity: 32
Note OFF: Time 564480, Note Name: C4
Note OFF: Time 564480, Note Name: A3
Note OFF: Time 564480, Note Name: F3
Note ON: Time 564480, Note Name: C3, Velocity: 52
Note ON: Time 564480, Note Name: G2, Velocity: 46
Note ON: Time 564480, Note Name: E3, Velocity: 55
Note OFF: Time 564960, Note Name: E3
Note OFF: Time 564960, Note Name: C3
Note ON: Time 564960, Note Name: D3, Velocity: 55
Note ON: Time 564960, Note Name: F3, Velocity: 58
Note OFF: Time 566400, Note Name: F3
Note OFF: Time 566400, Note Name: D3
Note OFF: Time 566400, Note Name: G2
Note ON: Time 566400, Note Name: C2, Velocity: 50
Note ON: Time 566400, Note Name: C3, Velocity: 60
Note OFF: Time 566880, Note Name: C3
Note OFF: Time 566880, Note Name: C2
Note ON: Time 566880, Note Name: G2, Velocity: 60
Note OFF: Time 567840, Note Name: G2
Note ON: Time 567840, Note Name: G2, Velocity: 60
Note OFF: Time 568800, Note Name: G2
Note ON: Time 568800, Note Name: G2, Velocity: 60
Note OFF: Time 569760, Note Name: G2
Note ON: Time 569760, Note Name: G2, Velocity: 60
Note OFF: Time 570240, Note Name: G2
Note ON: Time 570240, Note Name: C3, Velocity: 73
Note OFF: Time 570400, Note Name: C3
Note ON: Time 570400, Note Name: G2, Velocity: 67
Note OFF: Time 570560, Note Name: G2
Note ON: Time 570560, Note Name: E2, Velocity: 69
Note OFF: Time 570720, Note Name: E2
Note ON: Time 570720, Note Name: G2, Velocity: 73
Note OFF: Time 570880, Note Name: G2
Note ON: Time 570880, Note Name: C3, Velocity: 69
Note OFF: Time 571040, Note Name: C3
Note ON: Time 571040, Note Name: E3, Velocity: 69
Note OFF: Time 571200, Note Name: E3
Note ON: Time 571200, Note Name: D3, Velocity: 73
Note OFF: Time 571360, Note Name: D3
Note ON: Time 571360, Note Name: B2, Velocity: 69
Note OFF: Time 571520, Note Name: B2
Note ON: Time 571520, Note Name: G2, Velocity: 69
Note OFF: Time 571680, Note Name: G2
Note ON: Time 571680, Note Name: B2, Velocity: 73
Note OFF: Time 571840, Note Name: B2
Note ON: Time 571840, Note Name: D3, Velocity: 69
Note OFF: Time 572000, Note Name: D3
Note ON: Time 572000, Note Name: F3, Velocity: 69
Note OFF: Time 572160, Note Name: F3
Note ON: Time 572160, Note Name: E3, Velocity: 73
Note OFF: Time 572320, Note Name: E3
Note ON: Time 572320, Note Name: C3, Velocity: 67
Note OFF: Time 572480, Note Name: C3
Note ON: Time 572480, Note Name: G2, Velocity: 69
Note OFF: Time 572640, Note Name: G2
Note ON: Time 572640, Note Name: C3, Velocity: 73
Note OFF: Time 572800, Note Name: C3
Note ON: Time 572800, Note Name: E3, Velocity: 69
Note OFF: Time 572960, Note Name: E3
Note ON: Time 572960, Note Name: G3, Velocity: 69
Note OFF: Time 573120, Note Name: G3
Note ON: Time 573120, Note Name: F3, Velocity: 73
Note OFF: Time 573280, Note Name: F3
Note ON: Time 573280, Note Name: D3, Velocity: 69
Note OFF: Time 573440, Note Name: D3
Note ON: Time 573440, Note Name: B2, Velocity: 69
Note OFF: Time 573600, Note Name: B2
Note ON: Time 573600, Note Name: B3, Velocity: 73
Note OFF: Time 573760, Note Name: B3
Note ON: Time 573760, Note Name: F3, Velocity: 69
Note OFF: Time 573920, Note Name: F3
Note ON: Time 573920, Note Name: D3, Velocity: 69
Note OFF: Time 574080, Note Name: D3
Note ON: Time 574080, Note Name: E3, Velocity: 64
Note OFF: Time 574240, Note Name: E3
Note ON: Time 574240, Note Name: G3, Velocity: 56
Note OFF: Time 574400, Note Name: G3
Note ON: Time 574400, Note Name: C4, Velocity: 56
Note OFF: Time 574560, Note Name: C4
Note ON: Time 574560, Note Name: G3, Velocity: 64
Note OFF: Time 574720, Note Name: G3
Note ON: Time 574720, Note Name: E3, Velocity: 57
Note OFF: Time 574880, Note Name: E3
Note ON: Time 574880, Note Name: C3, Velocity: 57
Note OFF: Time 575040, Note Name: C3
Note ON: Time 575040, Note Name: B2, Velocity: 64
Note OFF: Time 575200, Note Name: B2
Note ON: Time 575200, Note Name: D3, Velocity: 56
Note OFF: Time 575360, Note Name: D3
Note ON: Time 575360, Note Name: F3, Velocity: 56
Note OFF: Time 575520, Note Name: F3
Note ON: Time 575520, Note Name: D3, Velocity: 64
Note OFF: Time 575680, Note Name: D3
Note ON: Time 575680, Note Name: B2, Velocity: 57
Note OFF: Time 575840, Note Name: B2
Note ON: Time 575840, Note Name: G2, Velocity: 58
Note OFF: Time 576000, Note Name: G2
Note ON: Time 576006, Note Name: C3, Velocity: 64
Note ON: Time 576160, Note Name: E3, Velocity: 56
Note OFF: Time 576166, Note Name: C3
Note OFF: Time 576320, Note Name: E3
Note ON: Time 576320, Note Name: G3, Velocity: 56
Note OFF: Time 576480, Note Name: G3
Note ON: Time 576480, Note Name: E3, Velocity: 64
Note OFF: Time 576640, Note Name: E3
Note ON: Time 576640, Note Name: C3, Velocity: 57
Note OFF: Time 576800, Note Name: C3
Note ON: Time 576806, Note Name: G2, Velocity: 57
Note ON: Time 576960, Note Name: B2, Velocity: 64
Note OFF: Time 576966, Note Name: G2
Note OFF: Time 577120, Note Name: B2
Note ON: Time 577120, Note Name: F3, Velocity: 56
Note OFF: Time 577280, Note Name: F3
Note ON: Time 577286, Note Name: G3, Velocity: 56
Note ON: Time 577440, Note Name: F3, Velocity: 64
Note OFF: Time 577446, Note Name: G3
Note OFF: Time 577600, Note Name: F3
Note ON: Time 577600, Note Name: G3, Velocity: 57
Note OFF: Time 577760, Note Name: G3
Note ON: Time 577760, Note Name: D4, Velocity: 58
Note OFF: Time 577920, Note Name: D4
Note ON: Time 577920, Note Name: E3, Velocity: 64
Note OFF: Time 578080, Note Name: E3
Note ON: Time 578080, Note Name: G3, Velocity: 55
Note OFF: Time 578240, Note Name: G3
Note ON: Time 578240, Note Name: C4, Velocity: 55
Note OFF: Time 578400, Note Name: C4
Note ON: Time 578400, Note Name: C3, Velocity: 62
Note OFF: Time 578560, Note Name: C3
Note ON: Time 578560, Note Name: E3, Velocity: 55
Note OFF: Time 578720, Note Name: E3
Note ON: Time 578720, Note Name: G3, Velocity: 54
Note OFF: Time 578880, Note Name: G3
Note ON: Time 578880, Note Name: D3, Velocity: 59
Note OFF: Time 579040, Note Name: D3
Note ON: Time 579040, Note Name: F3, Velocity: 51
Note OFF: Time 579200, Note Name: F3
Note ON: Time 579200, Note Name: G3, Velocity: 51
Note OFF: Time 579360, Note Name: G3
Note ON: Time 579360, Note Name: F3, Velocity: 57
Note OFF: Time 579520, Note Name: F3
Note ON: Time 579520, Note Name: G3, Velocity: 51
Note OFF: Time 579680, Note Name: G3
Note ON: Time 579680, Note Name: D4, Velocity: 51
Note OFF: Time 579840, Note Name: D4
Note ON: Time 579840, Note Name: E3, Velocity: 56
Note OFF: Time 580000, Note Name: E3
Note ON: Time 580000, Note Name: G3, Velocity: 48
Note OFF: Time 580160, Note Name: G3
Note ON: Time 580160, Note Name: C4, Velocity: 48
Note OFF: Time 580320, Note Name: C4
Note ON: Time 580320, Note Name: C3, Velocity: 54
Note OFF: Time 580480, Note Name: C3
Note ON: Time 580480, Note Name: E3, Velocity: 48
Note OFF: Time 580640, Note Name: E3
Note ON: Time 580640, Note Name: G3, Velocity: 47
Note OFF: Time 580800, Note Name: G3
Note ON: Time 580800, Note Name: D3, Velocity: 51
Note OFF: Time 580960, Note Name: D3
Note ON: Time 580960, Note Name: F3, Velocity: 44
Note OFF: Time 581120, Note Name: F3
Note ON: Time 581120, Note Name: G3, Velocity: 44
Note OFF: Time 581280, Note Name: G3
Note ON: Time 581280, Note Name: F3, Velocity: 50
Note OFF: Time 581440, Note Name: F3
Note ON: Time 581440, Note Name: G3, Velocity: 44
Note OFF: Time 581600, Note Name: G3
Note ON: Time 581600, Note Name: D4, Velocity: 44
Note OFF: Time 581760, Note Name: D4
Note ON: Time 581760, Note Name: E3, Velocity: 50
Note OFF: Time 581880, Note Name: E3
Note ON: Time 581880, Note Name: G3, Velocity: 43
Note OFF: Time 582000, Note Name: G3
Note ON: Time 582000, Note Name: C3, Velocity: 43
Note OFF: Time 582120, Note Name: C3
Note ON: Time 582120, Note Name: G3, Velocity: 44
Note OFF: Time 582240, Note Name: G3
Note ON: Time 582240, Note Name: D3, Velocity: 51
Note OFF: Time 582360, Note Name: D3
Note ON: Time 582360, Note Name: G3, Velocity: 44
Note OFF: Time 582480, Note Name: G3
Note ON: Time 582480, Note Name: F3, Velocity: 44
Note OFF: Time 582600, Note Name: F3
Note ON: Time 582600, Note Name: G3, Velocity: 44
Note OFF: Time 582720, Note Name: G3
Note ON: Time 582720, Note Name: E3, Velocity: 52
Note OFF: Time 582840, Note Name: E3
Note ON: Time 582840, Note Name: G3, Velocity: 46
Note OFF: Time 582960, Note Name: G3
Note ON: Time 582960, Note Name: C3, Velocity: 47
Note OFF: Time 583080, Note Name: C3
Note ON: Time 583080, Note Name: G3, Velocity: 49
Note OFF: Time 583200, Note Name: G3
Note ON: Time 583200, Note Name: D3, Velocity: 55
Note OFF: Time 583320, Note Name: D3
Note ON: Time 583320, Note Name: G3, Velocity: 48
Note OFF: Time 583440, Note Name: G3
Note ON: Time 583440, Note Name: F3, Velocity: 48
Note OFF: Time 583560, Note Name: F3
Note ON: Time 583560, Note Name: G3, Velocity: 49
Note OFF: Time 583680, Note Name: G3
Note ON: Time 583680, Note Name: E3, Velocity: 58
Note OFF: Time 583800, Note Name: E3
Note ON: Time 583800, Note Name: G3, Velocity: 50
Note OFF: Time 583920, Note Name: G3
Note ON: Time 583920, Note Name: F3, Velocity: 51
Note OFF: Time 584040, Note Name: F3
Note ON: Time 584040, Note Name: G3, Velocity: 52
Note OFF: Time 584160, Note Name: G3
Note ON: Time 584160, Note Name: E3, Velocity: 60
Note OFF: Time 584280, Note Name: E3
Note ON: Time 584280, Note Name: G3, Velocity: 52
Note OFF: Time 584400, Note Name: G3
Note ON: Time 584400, Note Name: F3, Velocity: 52
Note OFF: Time 584520, Note Name: F3
Note ON: Time 584520, Note Name: G3, Velocity: 54
Note OFF: Time 584640, Note Name: G3
Note ON: Time 584640, Note Name: E3, Velocity: 62
Note OFF: Time 584760, Note Name: E3
Note ON: Time 584760, Note Name: G3, Velocity: 55
Note OFF: Time 584880, Note Name: G3
Note ON: Time 584880, Note Name: F3, Velocity: 55
Note OFF: Time 585000, Note Name: F3
Note ON: Time 585000, Note Name: G3, Velocity: 57
Note OFF: Time 585120, Note Name: G3
Note ON: Time 585120, Note Name: E3, Velocity: 65
Note OFF: Time 585240, Note Name: E3
Note ON: Time 585240, Note Name: G3, Velocity: 57
Note OFF: Time 585360, Note Name: G3
Note ON: Time 585360, Note Name: F3, Velocity: 57
Note OFF: Time 585480, Note Name: F3
Note ON: Time 585480, Note Name: G3, Velocity: 58
Note OFF: Time 585600, Note Name: G3
Note ON: Time 585600, Note Name: E3, Velocity: 70
Note OFF: Time 585720, Note Name: E3
Note ON: Time 585720, Note Name: G3, Velocity: 60
Note OFF: Time 585840, Note Name: G3
Note ON: Time 585840, Note Name: E2, Velocity: 60
Note OFF: Time 585960, Note Name: E2
Note ON: Time 585960, Note Name: C3, Velocity: 62
Note OFF: Time 586080, Note Name: C3
Note ON: Time 586080, Note Name: E2, Velocity: 70
Note OFF: Time 586200, Note Name: E2
Note ON: Time 586200, Note Name: C3, Velocity: 60
Note OFF: Time 586320, Note Name: C3
Note ON: Time 586320, Note Name: E2, Velocity: 60
Note OFF: Time 586440, Note Name: E2
Note ON: Time 586440, Note Name: C3, Velocity: 60
Note OFF: Time 586560, Note Name: C3
Note ON: Time 586560, Note Name: E2, Velocity: 70
Note OFF: Time 586680, Note Name: E2
Note ON: Time 586680, Note Name: C3, Velocity: 60
Note OFF: Time 586800, Note Name: C3
Note ON: Time 586800, Note Name: E2, Velocity: 60
Note OFF: Time 586920, Note Name: E2
Note ON: Time 586920, Note Name: C3, Velocity: 62
Note OFF: Time 587040, Note Name: C3
Note ON: Time 587040, Note Name: E2, Velocity: 70
Note OFF: Time 587160, Note Name: E2
Note ON: Time 587160, Note Name: C3, Velocity: 60
Note OFF: Time 587280, Note Name: C3
Note ON: Time 587280, Note Name: E2, Velocity: 60
Note OFF: Time 587400, Note Name: E2
Note ON: Time 587400, Note Name: C3, Velocity: 60
Note OFF: Time 587520, Note Name: C3
Note ON: Time 587520, Note Name: E2, Velocity: 70
Note OFF: Time 587640, Note Name: E2
Note ON: Time 587640, Note Name: C3, Velocity: 60
Note OFF: Time 587760, Note Name: C3
Note ON: Time 587760, Note Name: E2, Velocity: 60
Note OFF: Time 587880, Note Name: E2
Note ON: Time 587880, Note Name: C3, Velocity: 62
Note OFF: Time 588000, Note Name: C3
Note ON: Time 588000, Note Name: E2, Velocity: 70
Note OFF: Time 588120, Note Name: E2
Note ON: Time 588120, Note Name: C3, Velocity: 60
Note OFF: Time 588240, Note Name: C3
Note ON: Time 588240, Note Name: E2, Velocity: 60
Note OFF: Time 588360, Note Name: E2
Note ON: Time 588360, Note Name: C3, Velocity: 61
Note OFF: Time 588480, Note Name: C3
Note ON: Time 588480, Note Name: E2, Velocity: 71
Note OFF: Time 588600, Note Name: E2
Note ON: Time 588600, Note Name: C3, Velocity: 61
Note OFF: Time 588720, Note Name: C3
Note ON: Time 588720, Note Name: E2, Velocity: 61
Note OFF: Time 588840, Note Name: E2
Note ON: Time 588840, Note Name: C3, Velocity: 63
Note OFF: Time 588960, Note Name: C3
Note ON: Time 588960, Note Name: E2, Velocity: 72
Note OFF: Time 589080, Note Name: E2
Note ON: Time 589080, Note Name: C3, Velocity: 62
Note OFF: Time 589200, Note Name: C3
Note ON: Time 589200, Note Name: E2, Velocity: 62
Note OFF: Time 589320, Note Name: E2
Note ON: Time 589320, Note Name: C3, Velocity: 62
Note OFF: Time 589440, Note Name: C3
Note ON: Time 589440, Note Name: F2, Velocity: 67
Note ON: Time 589440, Note Name: A2, Velocity: 67
Note ON: Time 589440, Note Name: C3, Velocity: 80
Note OFF: Time 589620, Note Name: C3
Note OFF: Time 589620, Note Name: A2
Note OFF: Time 589620, Note Name: F2
Note ON: Time 589680, Note Name: F2, Velocity: 60
Note ON: Time 589680, Note Name: A2, Velocity: 60
Note ON: Time 589680, Note Name: C3, Velocity: 73
Note OFF: Time 589860, Note Name: C3
Note OFF: Time 589860, Note Name: A2
Note OFF: Time 589860, Note Name: F2
Note ON: Time 590160, Note Name: F2, Velocity: 60
Note ON: Time 590160, Note Name: A2, Velocity: 60
Note ON: Time 590160, Note Name: C3, Velocity: 73
Note OFF: Time 590340, Note Name: C3
Note OFF: Time 590340, Note Name: A2
Note OFF: Time 590340, Note Name: F2
Note ON: Time 590400, Note Name: F2, Velocity: 67
Note ON: Time 590400, Note Name: A2, Velocity: 67
Note ON: Time 590400, Note Name: C3, Velocity: 80
Note OFF: Time 590580, Note Name: C3
Note OFF: Time 590580, Note Name: A2
Note OFF: Time 590580, Note Name: F2
Note ON: Time 590640, Note Name: F2, Velocity: 60
Note ON: Time 590640, Note Name: A2, Velocity: 60
Note ON: Time 590640, Note Name: C3, Velocity: 73
Note OFF: Time 590820, Note Name: C3
Note OFF: Time 590820, Note Name: A2
Note OFF: Time 590820, Note Name: F2
Note ON: Time 591120, Note Name: F2, Velocity: 60
Note ON: Time 591120, Note Name: A2, Velocity: 60
Note ON: Time 591120, Note Name: C3, Velocity: 73
Note OFF: Time 591300, Note Name: C3
Note OFF: Time 591300, Note Name: A2
Note OFF: Time 591300, Note Name: F2
Note ON: Time 591360, Note Name: F2, Velocity: 67
Note ON: Time 591360, Note Name: A2, Velocity: 67
Note ON: Time 591360, Note Name: C3, Velocity: 78
Note OFF: Time 591540, Note Name: C3
Note OFF: Time 591540, Note Name: A2
Note OFF: Time 591540, Note Name: F2
Note ON: Time 591600, Note Name: F2, Velocity: 60
Note ON: Time 591600, Note Name: A2, Velocity: 60
Note ON: Time 591600, Note Name: C3, Velocity: 73
Note OFF: Time 591780, Note Name: C3
Note OFF: Time 591780, Note Name: A2
Note OFF: Time 591780, Note Name: F2
Note ON: Time 592080, Note Name: F2, Velocity: 60
Note ON: Time 592080, Note Name: A2, Velocity: 60
Note ON: Time 592080, Note Name: C3, Velocity: 73
Note OFF: Time 592260, Note Name: C3
Note OFF: Time 592260, Note Name: A2
Note OFF: Time 592260, Note Name: F2
Note ON: Time 592320, Note Name: F2, Velocity: 67
Note ON: Time 592320, Note Name: A2, Velocity: 67
Note ON: Time 592320, Note Name: C3, Velocity: 78
Note OFF: Time 592500, Note Name: C3
Note OFF: Time 592500, Note Name: A2
Note OFF: Time 592500, Note Name: F2
Note ON: Time 592560, Note Name: F2, Velocity: 60
Note ON: Time 592560, Note Name: A2, Velocity: 60
Note ON: Time 592560, Note Name: C3, Velocity: 73
Note OFF: Time 592740, Note Name: C3
Note OFF: Time 592740, Note Name: A2
Note OFF: Time 592740, Note Name: F2
Note ON: Time 593040, Note Name: F2, Velocity: 60
Note ON: Time 593040, Note Name: A2, Velocity: 60
Note ON: Time 593040, Note Name: C3, Velocity: 73
Note OFF: Time 593220, Note Name: C3
Note OFF: Time 593220, Note Name: A2
Note OFF: Time 593220, Note Name: F2
Note ON: Time 593280, Note Name: C3, Velocity: 67
Note ON: Time 593280, Note Name: F#2, Velocity: 67
Note ON: Time 593280, Note Name: A2, Velocity: 67
Note ON: Time 593280, Note Name: D3, Velocity: 78
Note OFF: Time 593460, Note Name: D3
Note OFF: Time 593460, Note Name: C3
Note OFF: Time 593460, Note Name: F#2
Note OFF: Time 593460, Note Name: A2
Note ON: Time 593520, Note Name: C3, Velocity: 60
Note ON: Time 593520, Note Name: F#2, Velocity: 60
Note ON: Time 593520, Note Name: A2, Velocity: 60
Note ON: Time 593520, Note Name: D3, Velocity: 73
Note OFF: Time 593700, Note Name: D3
Note OFF: Time 593700, Note Name: C3
Note OFF: Time 593700, Note Name: F#2
Note OFF: Time 593700, Note Name: A2
Note ON: Time 594000, Note Name: C3, Velocity: 60
Note ON: Time 594000, Note Name: F#2, Velocity: 60
Note ON: Time 594000, Note Name: A2, Velocity: 60
Note ON: Time 594000, Note Name: D3, Velocity: 73
Note OFF: Time 594180, Note Name: D3
Note OFF: Time 594180, Note Name: C3
Note OFF: Time 594180, Note Name: F#2
Note OFF: Time 594180, Note Name: A2
Note ON: Time 594240, Note Name: C3, Velocity: 67
Note ON: Time 594240, Note Name: F#2, Velocity: 67
Note ON: Time 594240, Note Name: A2, Velocity: 67
Note ON: Time 594240, Note Name: D3, Velocity: 78
Note OFF: Time 594420, Note Name: D3
Note OFF: Time 594420, Note Name: C3
Note OFF: Time 594420, Note Name: F#2
Note OFF: Time 594420, Note Name: A2
Note ON: Time 594480, Note Name: C3, Velocity: 60
Note ON: Time 594480, Note Name: F#2, Velocity: 60
Note ON: Time 594480, Note Name: A2, Velocity: 60
Note ON: Time 594480, Note Name: D3, Velocity: 73
Note OFF: Time 594660, Note Name: D3
Note OFF: Time 594660, Note Name: C3
Note OFF: Time 594660, Note Name: F#2
Note OFF: Time 594660, Note Name: A2
Note ON: Time 594960, Note Name: C3, Velocity: 60
Note ON: Time 594960, Note Name: F#2, Velocity: 60
Note ON: Time 594960, Note Name: A2, Velocity: 60
Note ON: Time 594960, Note Name: D3, Velocity: 73
Note OFF: Time 595140, Note Name: D3
Note OFF: Time 595140, Note Name: C3
Note OFF: Time 595140, Note Name: F#2
Note OFF: Time 595140, Note Name: A2
Note ON: Time 595200, Note Name: C3, Velocity: 67
Note ON: Time 595200, Note Name: F#2, Velocity: 67
Note ON: Time 595200, Note Name: A2, Velocity: 67
Note ON: Time 595200, Note Name: D3, Velocity: 78
Note OFF: Time 595380, Note Name: D3
Note OFF: Time 595380, Note Name: C3
Note OFF: Time 595380, Note Name: F#2
Note OFF: Time 595380, Note Name: A2
Note ON: Time 595440, Note Name: C3, Velocity: 60
Note ON: Time 595440, Note Name: F#2, Velocity: 60
Note ON: Time 595440, Note Name: A2, Velocity: 60
Note ON: Time 595440, Note Name: D3, Velocity: 73
Note OFF: Time 595620, Note Name: D3
Note OFF: Time 595620, Note Name: C3
Note OFF: Time 595620, Note Name: F#2
Note OFF: Time 595620, Note Name: A2
Note ON: Time 595920, Note Name: C3, Velocity: 60
Note ON: Time 595920, Note Name: F#2, Velocity: 60
Note ON: Time 595920, Note Name: A2, Velocity: 60
Note ON: Time 595920, Note Name: D3, Velocity: 73
Note OFF: Time 596100, Note Name: D3
Note OFF: Time 596100, Note Name: C3
Note OFF: Time 596100, Note Name: F#2
Note OFF: Time 596100, Note Name: A2
Note ON: Time 596160, Note Name: C3, Velocity: 67
Note ON: Time 596160, Note Name: F#2, Velocity: 67
Note ON: Time 596160, Note Name: A2, Velocity: 67
Note ON: Time 596160, Note Name: D3, Velocity: 78
Note OFF: Time 596340, Note Name: D3
Note OFF: Time 596340, Note Name: C3
Note OFF: Time 596340, Note Name: F#2
Note OFF: Time 596340, Note Name: A2
Note ON: Time 596400, Note Name: C3, Velocity: 60
Note ON: Time 596400, Note Name: F#2, Velocity: 60
Note ON: Time 596400, Note Name: A2, Velocity: 60
Note ON: Time 596400, Note Name: D3, Velocity: 73
Note OFF: Time 596580, Note Name: D3
Note OFF: Time 596580, Note Name: C3
Note OFF: Time 596580, Note Name: F#2
Note OFF: Time 596580, Note Name: A2
Note ON: Time 596880, Note Name: C3, Velocity: 60
Note ON: Time 596880, Note Name: F#2, Velocity: 60
Note ON: Time 596880, Note Name: A2, Velocity: 60
Note ON: Time 596880, Note Name: D3, Velocity: 73
Note OFF: Time 597060, Note Name: D3
Note OFF: Time 597060, Note Name: C3
Note OFF: Time 597060, Note Name: F#2
Note OFF: Time 597060, Note Name: A2
Note ON: Time 597120, Note Name: G2, Velocity: 78
Note OFF: Time 597240, Note Name: G2
Note ON: Time 597240, Note Name: C3, Velocity: 70
Note OFF: Time 597360, Note Name: C3
Note ON: Time 597360, Note Name: E3, Velocity: 70
Note OFF: Time 597480, Note Name: E3
Note ON: Time 597480, Note Name: G3, Velocity: 70
Note OFF: Time 597600, Note Name: G3
Note ON: Time 597600, Note Name: G2, Velocity: 77
Note OFF: Time 597720, Note Name: G2
Note ON: Time 597720, Note Name: C3, Velocity: 70
Note OFF: Time 597840, Note Name: C3
Note ON: Time 597840, Note Name: E3, Velocity: 70
Note OFF: Time 597960, Note Name: E3
Note ON: Time 597960, Note Name: G3, Velocity: 70
Note OFF: Time 598080, Note Name: G3
Note ON: Time 598080, Note Name: G2, Velocity: 75
Note OFF: Time 598200, Note Name: G2
Note ON: Time 598200, Note Name: C3, Velocity: 70
Note OFF: Time 598320, Note Name: C3
Note ON: Time 598320, Note Name: E3, Velocity: 70
Note OFF: Time 598440, Note Name: E3
Note ON: Time 598440, Note Name: G3, Velocity: 70
Note OFF: Time 598560, Note Name: G3
Note ON: Time 598560, Note Name: G2, Velocity: 75
Note OFF: Time 598680, Note Name: G2
Note ON: Time 598680, Note Name: C3, Velocity: 70
Note OFF: Time 598800, Note Name: C3
Note ON: Time 598800, Note Name: E3, Velocity: 70
Note OFF: Time 598920, Note Name: E3
Note ON: Time 598920, Note Name: G3, Velocity: 70
Note OFF: Time 599040, Note Name: G3
Note ON: Time 599040, Note Name: G2, Velocity: 78
Note OFF: Time 599160, Note Name: G2
Note ON: Time 599160, Note Name: C3, Velocity: 70
Note OFF: Time 599280, Note Name: C3
Note ON: Time 599280, Note Name: E3, Velocity: 70
Note OFF: Time 599400, Note Name: E3
Note ON: Time 599400, Note Name: G3, Velocity: 70
Note OFF: Time 599520, Note Name: G3
Note ON: Time 599520, Note Name: G2, Velocity: 77
Note OFF: Time 599640, Note Name: G2
Note ON: Time 599640, Note Name: C3, Velocity: 70
Note OFF: Time 599760, Note Name: C3
Note ON: Time 599760, Note Name: E3, Velocity: 70
Note OFF: Time 599880, Note Name: E3
Note ON: Time 599880, Note Name: G3, Velocity: 70
Note OFF: Time 600000, Note Name: G3
Note ON: Time 600000, Note Name: E3, Velocity: 75
Note OFF: Time 600120, Note Name: E3
Note ON: Time 600240, Note Name: E3, Velocity: 70
Note OFF: Time 600360, Note Name: E3
Note ON: Time 600480, Note Name: C3, Velocity: 75
Note OFF: Time 600600, Note Name: C3
Note ON: Time 600720, Note Name: G2, Velocity: 70
Note OFF: Time 600840, Note Name: G2
Note ON: Time 600960, Note Name: G3, Velocity: 86
Note OFF: Time 601080, Note Name: G3
Note ON: Time 601200, Note Name: E3, Velocity: 47
Note OFF: Time 601320, Note Name: E3
Note ON: Time 601440, Note Name: C4, Velocity: 53
Note OFF: Time 601560, Note Name: C4
Note ON: Time 601680, Note Name: G3, Velocity: 48
Note OFF: Time 601800, Note Name: G3
Note ON: Time 601920, Note Name: E4, Velocity: 52
Note OFF: Time 602040, Note Name: E4
Note ON: Time 602160, Note Name: C4, Velocity: 41
Note OFF: Time 602280, Note Name: C4
Note ON: Time 602400, Note Name: G4, Velocity: 50
Note OFF: Time 602520, Note Name: G4
Note ON: Time 602640, Note Name: E4, Velocity: 41
Note OFF: Time 602760, Note Name: E4
Note ON: Time 602880, Note Name: C5, Velocity: 50
Note OFF: Time 603000, Note Name: C5
Note ON: Time 603120, Note Name: G4, Velocity: 41
Note OFF: Time 603240, Note Name: G4
Note ON: Time 603360, Note Name: E5, Velocity: 50
Note OFF: Time 603480, Note Name: E5
Note ON: Time 603600, Note Name: C5, Velocity: 39
Note OFF: Time 603720, Note Name: C5
Note ON: Time 603840, Note Name: G5, Velocity: 50
Note OFF: Time 603960, Note Name: G5
Note ON: Time 604080, Note Name: E5, Velocity: 41
Note OFF: Time 604200, Note Name: E5
Note ON: Time 604320, Note Name: C6, Velocity: 50
Note OFF: Time 604440, Note Name: C6
Note ON: Time 604560, Note Name: G5, Velocity: 42
Note OFF: Time 604680, Note Name: G5
Note ON: Time 604800, Note Name: B5, Velocity: 46
Note OFF: Time 604920, Note Name: B5
Note ON: Time 605040, Note Name: G5, Velocity: 37
Note OFF: Time 605160, Note Name: G5
Note ON: Time 605280, Note Name: B5, Velocity: 43
Note OFF: Time 605400, Note Name: B5
Note ON: Time 605520, Note Name: G5, Velocity: 36
Note OFF: Time 605640, Note Name: G5
Note ON: Time 605760, Note Name: B5, Velocity: 41
Note OFF: Time 605880, Note Name: B5
Note ON: Time 606000, Note Name: G5, Velocity: 32
Note OFF: Time 606120, Note Name: G5
Note ON: Time 606240, Note Name: B5, Velocity: 39
Note OFF: Time 606360, Note Name: B5
Note ON: Time 606480, Note Name: G5, Velocity: 31
Note OFF: Time 606600, Note Name: G5
Note ON: Time 606720, Note Name: B5, Velocity: 36
Note OFF: Time 606840, Note Name: B5
Note ON: Time 606960, Note Name: G5, Velocity: 30
Note OFF: Time 607080, Note Name: G5
Note ON: Time 607200, Note Name: B5, Velocity: 36
Note OFF: Time 607320, Note Name: B5
Note ON: Time 607440, Note Name: G5, Velocity: 31
Note OFF: Time 607560, Note Name: G5
Note ON: Time 607680, Note Name: B5, Velocity: 36
Note OFF: Time 607800, Note Name: B5
Note ON: Time 607920, Note Name: G5, Velocity: 29
Note OFF: Time 608040, Note Name: G5
Note ON: Time 608160, Note Name: B5, Velocity: 36
Note OFF: Time 608280, Note Name: B5
Note ON: Time 608400, Note Name: G5, Velocity: 30
Note OFF: Time 608520, Note Name: G5
Note ON: Time 608640, Note Name: B5, Velocity: 37
Note OFF: Time 608720, Note Name: B5
Note ON: Time 608720, Note Name: C6, Velocity: 32
Note OFF: Time 608800, Note Name: C6
Note ON: Time 608800, Note Name: B5, Velocity: 36
Note OFF: Time 608880, Note Name: B5
Note ON: Time 608880, Note Name: C6, Velocity: 31
Note OFF: Time 608960, Note Name: C6
Note ON: Time 608960, Note Name: B5, Velocity: 36
Note OFF: Time 609040, Note Name: B5
Note ON: Time 609040, Note Name: C6, Velocity: 33
Note OFF: Time 609120, Note Name: C6
Note ON: Time 609120, Note Name: B5, Velocity: 37
Note OFF: Time 609200, Note Name: B5
Note ON: Time 609200, Note Name: C6, Velocity: 33
Note OFF: Time 609280, Note Name: C6
Note ON: Time 609280, Note Name: B5, Velocity: 37
Note OFF: Time 609360, Note Name: B5
Note ON: Time 609360, Note Name: C6, Velocity: 33
Note OFF: Time 609440, Note Name: C6
Note ON: Time 609440, Note Name: B5, Velocity: 38
Note OFF: Time 609520, Note Name: B5
Note ON: Time 609520, Note Name: C6, Velocity: 34
Note OFF: Time 609600, Note Name: C6
Note ON: Time 609600, Note Name: B5, Velocity: 38
Note OFF: Time 609680, Note Name: B5
Note ON: Time 609680, Note Name: C6, Velocity: 35
Note OFF: Time 609760, Note Name: C6
Note ON: Time 609760, Note Name: B5, Velocity: 39
Note OFF: Time 609840, Note Name: B5
Note ON: Time 609840, Note Name: C6, Velocity: 35
Note OFF: Time 609920, Note Name: C6
Note ON: Time 609920, Note Name: B5, Velocity: 39
Note OFF: Time 610000, Note Name: B5
Note ON: Time 610000, Note Name: C6, Velocity: 36
Note OFF: Time 610080, Note Name: C6
Note ON: Time 610080, Note Name: B5, Velocity: 40
Note OFF: Time 610160, Note Name: B5
Note ON: Time 610160, Note Name: C6, Velocity: 36
Note OFF: Time 610240, Note Name: C6
Note ON: Time 610240, Note Name: B5, Velocity: 40
Note OFF: Time 610320, Note Name: B5
Note ON: Time 610320, Note Name: C6, Velocity: 36
Note OFF: Time 610400, Note Name: C6
Note ON: Time 610400, Note Name: B5, Velocity: 41
Note OFF: Time 610480, Note Name: B5
Note ON: Time 610480, Note Name: C6, Velocity: 37
Note OFF: Time 610560, Note Name: C6
Note ON: Time 610560, Note Name: B5, Velocity: 41
Note OFF: Time 610640, Note Name: B5
Note ON: Time 610640, Note Name: C6, Velocity: 36
Note OFF: Time 610720, Note Name: C6
Note ON: Time 610720, Note Name: B5, Velocity: 42
Note OFF: Time 610800, Note Name: B5
Note ON: Time 610800, Note Name: C6, Velocity: 37
Note OFF: Time 610880, Note Name: C6
Note ON: Time 610880, Note Name: B5, Velocity: 42
Note OFF: Time 610960, Note Name: B5
Note ON: Time 610960, Note Name: C6, Velocity: 37
Note OFF: Time 611040, Note Name: C6
Note ON: Time 611040, Note Name: B5, Velocity: 43
Note OFF: Time 611120, Note Name: B5
Note ON: Time 611120, Note Name: C6, Velocity: 38
Note OFF: Time 611200, Note Name: C6
Note ON: Time 611200, Note Name: B5, Velocity: 43
Note OFF: Time 611280, Note Name: B5
Note ON: Time 611280, Note Name: C6, Velocity: 39
Note OFF: Time 611360, Note Name: C6
Note ON: Time 611360, Note Name: B5, Velocity: 44
Note OFF: Time 611440, Note Name: B5
Note ON: Time 611440, Note Name: C6, Velocity: 39
Note OFF: Time 611520, Note Name: C6
Note ON: Time 611520, Note Name: B5, Velocity: 44
Note OFF: Time 611600, Note Name: B5
Note ON: Time 611600, Note Name: C6, Velocity: 38
Note OFF: Time 611680, Note Name: C6
Note ON: Time 611680, Note Name: B5, Velocity: 45
Note OFF: Time 611760, Note Name: B5
Note ON: Time 611760, Note Name: C6, Velocity: 38
Note OFF: Time 611840, Note Name: C6
Note ON: Time 611840, Note Name: B5, Velocity: 45
Note OFF: Time 611920, Note Name: B5
Note ON: Time 611920, Note Name: C6, Velocity: 40
Note OFF: Time 612000, Note Name: C6
Note ON: Time 612000, Note Name: B5, Velocity: 50
Note OFF: Time 612096, Note Name: B5
Note ON: Time 612096, Note Name: C6, Velocity: 44
Note OFF: Time 612192, Note Name: C6
Note ON: Time 612192, Note Name: B5, Velocity: 50
Note OFF: Time 612288, Note Name: B5
Note ON: Time 612288, Note Name: A5, Velocity: 52
Note OFF: Time 612384, Note Name: A5
Note ON: Time 612384, Note Name: B5, Velocity: 47
Note OFF: Time 612480, Note Name: B5
Note ON: Time 612480, Note Name: C4, Velocity: 52
Note ON: Time 612480, Note Name: C5, Velocity: 62
Note OFF: Time 613440, Note Name: C5
Note ON: Time 613440, Note Name: E4, Velocity: 38
Note ON: Time 613440, Note Name: G4, Velocity: 38
Note ON: Time 613440, Note Name: A#4, Velocity: 45
Note OFF: Time 614400, Note Name: A#4
Note OFF: Time 614400, Note Name: G4
Note OFF: Time 614400, Note Name: E4
Note ON: Time 614400, Note Name: F4, Velocity: 39
Note ON: Time 614400, Note Name: G#4, Velocity: 47
Note OFF: Time 615360, Note Name: G#4
Note OFF: Time 615360, Note Name: F4
Note ON: Time 615360, Note Name: E4, Velocity: 39
Note ON: Time 615360, Note Name: G4, Velocity: 39
Note ON: Time 615360, Note Name: A#4, Velocity: 46
Note OFF: Time 616320, Note Name: A#4
Note OFF: Time 616320, Note Name: C4
Note OFF: Time 616320, Note Name: E4
Note OFF: Time 616320, Note Name: G4
Note ON: Time 616320, Note Name: G#4, Velocity: 48
Note ON: Time 616320, Note Name: F4, Velocity: 40
Note OFF: Time 616800, Note Name: F4
Note OFF: Time 616800, Note Name: G#4
Note ON: Time 617280, Note Name: F4, Velocity: 47
Note ON: Time 617280, Note Name: C#4, Velocity: 39
Note ON: Time 617280, Note Name: G#3, Velocity: 39
Note ON: Time 617280, Note Name: F3, Velocity: 39
Note OFF: Time 618240, Note Name: F3
Note OFF: Time 618240, Note Name: F4
Note OFF: Time 618240, Note Name: C#4
Note OFF: Time 618240, Note Name: G#3
Note ON: Time 618240, Note Name: C4, Velocity: 39
Note ON: Time 618240, Note Name: G3, Velocity: 39
Note ON: Time 618240, Note Name: D#4, Velocity: 46
Note OFF: Time 619200, Note Name: D#4
Note OFF: Time 619200, Note Name: G3
Note OFF: Time 619200, Note Name: C4
Note ON: Time 619200, Note Name: G3, Velocity: 37
Note ON: Time 619200, Note Name: B3, Velocity: 37
Note ON: Time 619200, Note Name: D4, Velocity: 44
Note OFF: Time 620160, Note Name: D4
Note OFF: Time 620160, Note Name: B3
Note OFF: Time 620160, Note Name: G3
Note ON: Time 620160, Note Name: C4, Velocity: 56
Note ON: Time 620160, Note Name: C3, Velocity: 45
Note OFF: Time 621120, Note Name: C4
Note ON: Time 621120, Note Name: E3, Velocity: 38
Note ON: Time 621120, Note Name: G3, Velocity: 38
Note ON: Time 621120, Note Name: A#3, Velocity: 45
Note OFF: Time 622080, Note Name: A#3
Note OFF: Time 622080, Note Name: G3
Note OFF: Time 622080, Note Name: E3
Note ON: Time 622080, Note Name: F3, Velocity: 39
Note ON: Time 622080, Note Name: A3, Velocity: 47
Note OFF: Time 623040, Note Name: A3
Note OFF: Time 623040, Note Name: F3
Note ON: Time 623040, Note Name: G3, Velocity: 39
Note ON: Time 623040, Note Name: A#3, Velocity: 46
Note ON: Time 623040, Note Name: E3, Velocity: 39
Note OFF: Time 624000, Note Name: E3
Note OFF: Time 624000, Note Name: C3
Note OFF: Time 624000, Note Name: G3
Note OFF: Time 624000, Note Name: A#3
Note ON: Time 624000, Note Name: F3, Velocity: 48
Note ON: Time 624000, Note Name: A3, Velocity: 48
Note OFF: Time 624480, Note Name: A3
Note OFF: Time 624480, Note Name: F3
Note ON: Time 624960, Note Name: F2, Velocity: 39
Note ON: Time 624960, Note Name: D3, Velocity: 47
Note ON: Time 624960, Note Name: A2, Velocity: 39
Note OFF: Time 625920, Note Name: A2
Note OFF: Time 625920, Note Name: D3
Note OFF: Time 625920, Note Name: F2
Note ON: Time 625920, Note Name: C3, Velocity: 39
Note ON: Time 625920, Note Name: G2, Velocity: 39
Note ON: Time 625920, Note Name: E3, Velocity: 46
Note OFF: Time 626880, Note Name: E3
Note OFF: Time 626880, Note Name: C3
Note ON: Time 626880, Note Name: D3, Velocity: 37
Note ON: Time 626880, Note Name: F3, Velocity: 44
Note OFF: Time 627840, Note Name: F3
Note OFF: Time 627840, Note Name: D3
Note OFF: Time 627840, Note Name: G2
Note ON: Time 627840, Note Name: C3, Velocity: 37
Note ON: Time 627840, Note Name: E3, Velocity: 44
Note OFF: Time 628320, Note Name: E3
Note OFF: Time 628320, Note Name: C3
Note ON: Time 628320, Note Name: C3, Velocity: 51
Note ON: Time 628320, Note Name: E2, Velocity: 42
Note OFF: Time 628800, Note Name: E2
Note ON: Time 628800, Note Name: F2, Velocity: 42
Note OFF: Time 629040, Note Name: C3
Note ON: Time 629040, Note Name: D3, Velocity: 49
Note OFF: Time 629280, Note Name: D3
Note ON: Time 629280, Note Name: E3, Velocity: 51
Note OFF: Time 629520, Note Name: E3
Note ON: Time 629520, Note Name: F3, Velocity: 55
Note OFF: Time 629760, Note Name: F3
Note OFF: Time 629760, Note Name: F2
Note ON: Time 629760, Note Name: G2, Velocity: 35
Note ON: Time 629760, Note Name: E3, Velocity: 35
Note ON: Time 629760, Note Name: G3, Velocity: 41
Note OFF: Time 630720, Note Name: G3
Note OFF: Time 630720, Note Name: E3
Note ON: Time 630720, Note Name: D3, Velocity: 33
Note ON: Time 630720, Note Name: F3, Velocity: 39
Note OFF: Time 631680, Note Name: F3
Note OFF: Time 631680, Note Name: D3
Note OFF: Time 631680, Note Name: G2
Note ON: Time 631680, Note Name: E3, Velocity: 44
Note ON: Time 631680, Note Name: C3, Velocity: 37
Note OFF: Time 632160, Note Name: C3
Note OFF: Time 632160, Note Name: E3
Note ON: Time 632160, Note Name: A2, Velocity: 42
Note ON: Time 632160, Note Name: F3, Velocity: 51
Note OFF: Time 632640, Note Name: A2
Note ON: Time 632640, Note Name: A#2, Velocity: 42
Note OFF: Time 632880, Note Name: F3
Note ON: Time 632880, Note Name: G3, Velocity: 49
Note OFF: Time 633120, Note Name: G3
Note ON: Time 633120, Note Name: A3, Velocity: 51
Note OFF: Time 633360, Note Name: A3
Note ON: Time 633360, Note Name: A#3, Velocity: 55
Note OFF: Time 633600, Note Name: A#3
Note OFF: Time 633600, Note Name: A#2
Note ON: Time 633600, Note Name: C4, Velocity: 41
Note ON: Time 633600, Note Name: A3, Velocity: 35
Note ON: Time 633600, Note Name: C3, Velocity: 35
Note OFF: Time 634560, Note Name: A3
Note OFF: Time 634560, Note Name: C4
Note ON: Time 634560, Note Name: G3, Velocity: 33
Note ON: Time 634560, Note Name: A#3, Velocity: 39
Note OFF: Time 635520, Note Name: A#3
Note OFF: Time 635520, Note Name: G3
Note OFF: Time 635520, Note Name: C3
Note ON: Time 635520, Note Name: G#3, Velocity: 44
Note ON: Time 635520, Note Name: F3, Velocity: 37
Note OFF: Time 636000, Note Name: F3
Note OFF: Time 636000, Note Name: G#3
Note ON: Time 636000, Note Name: G#2, Velocity: 42
Note ON: Time 636000, Note Name: F3, Velocity: 51
Note OFF: Time 636480, Note Name: G#2
Note ON: Time 636480, Note Name: A#2, Velocity: 42
Note OFF: Time 636720, Note Name: F3
Note ON: Time 636720, Note Name: G3, Velocity: 49
Note OFF: Time 636960, Note Name: G3
Note ON: Time 636960, Note Name: G#3, Velocity: 51
Note OFF: Time 637200, Note Name: G#3
Note ON: Time 637200, Note Name: A#3, Velocity: 55
Note OFF: Time 637440, Note Name: A#3
Note OFF: Time 637440, Note Name: A#2
Note ON: Time 637440, Note Name: C3, Velocity: 35
Note ON: Time 637440, Note Name: C4, Velocity: 41
Note ON: Time 637440, Note Name: G#3, Velocity: 35
Note OFF: Time 638400, Note Name: G#3
Note OFF: Time 638400, Note Name: C4
Note ON: Time 638400, Note Name: G3, Velocity: 33
Note ON: Time 638400, Note Name: A#3, Velocity: 39
Note OFF: Time 639360, Note Name: A#3
Note OFF: Time 639360, Note Name: G3
Note OFF: Time 639360, Note Name: C3
Note ON: Time 639360, Note Name: C#3, Velocity: 25
Note ON: Time 639360, Note Name: G#3, Velocity: 28
Note ON: Time 639360, Note Name: F3, Velocity: 25
Note OFF: Time 639480, Note Name: F3
Note OFF: Time 639480, Note Name: G#3
Note OFF: Time 639480, Note Name: C#3
Note ON: Time 639600, Note Name: C#2, Velocity: 22
Note ON: Time 639600, Note Name: G#2, Velocity: 26
Note OFF: Time 639720, Note Name: G#2
Note OFF: Time 639720, Note Name: C#2
Note ON: Time 639840, Note Name: G#2, Velocity: 26
Note ON: Time 639840, Note Name: C#2, Velocity: 22
Note OFF: Time 639960, Note Name: C#2
Note OFF: Time 639960, Note Name: G#2
Note ON: Time 640080, Note Name: G#2, Velocity: 27
Note ON: Time 640080, Note Name: C#2, Velocity: 22
Note OFF: Time 640200, Note Name: C#2
Note OFF: Time 640200, Note Name: G#2
Note ON: Time 640320, Note Name: C#2, Velocity: 22
Note ON: Time 640320, Note Name: G#2, Velocity: 27
Note OFF: Time 640440, Note Name: G#2
Note OFF: Time 640440, Note Name: C#2
Note ON: Time 640560, Note Name: G#2, Velocity: 28
Note ON: Time 640560, Note Name: C#2, Velocity: 23
Note OFF: Time 640680, Note Name: C#2
Note OFF: Time 640680, Note Name: G#2
Note ON: Time 640800, Note Name: G#2, Velocity: 28
Note ON: Time 640800, Note Name: C#2, Velocity: 23
Note OFF: Time 640920, Note Name: C#2
Note OFF: Time 640920, Note Name: G#2
Note ON: Time 641040, Note Name: C#2, Velocity: 24
Note ON: Time 641040, Note Name: G#2, Velocity: 29
Note OFF: Time 641160, Note Name: G#2
Note OFF: Time 641160, Note Name: C#2
Note ON: Time 641280, Note Name: C#2, Velocity: 25
Note ON: Time 641280, Note Name: G#2, Velocity: 30
Note OFF: Time 641400, Note Name: G#2
Note OFF: Time 641400, Note Name: C#2
Note ON: Time 641520, Note Name: G#2, Velocity: 27
Note ON: Time 641520, Note Name: C#2, Velocity: 22
Note OFF: Time 641640, Note Name: C#2
Note OFF: Time 641640, Note Name: G#2
Note ON: Time 641760, Note Name: C#2, Velocity: 23
Note ON: Time 641760, Note Name: G#2, Velocity: 28
Note OFF: Time 641880, Note Name: G#2
Note OFF: Time 641880, Note Name: C#2
Note ON: Time 642000, Note Name: G#2, Velocity: 29
Note ON: Time 642000, Note Name: C#2, Velocity: 24
Note OFF: Time 642120, Note Name: C#2
Note OFF: Time 642120, Note Name: G#2
Note ON: Time 642240, Note Name: C#2, Velocity: 25
Note ON: Time 642240, Note Name: G#2, Velocity: 30
Note OFF: Time 642360, Note Name: G#2
Note OFF: Time 642360, Note Name: C#2
Note ON: Time 642480, Note Name: C#2, Velocity: 25
Note ON: Time 642480, Note Name: G#2, Velocity: 30
Note OFF: Time 642600, Note Name: G#2
Note OFF: Time 642600, Note Name: C#2
Note ON: Time 642720, Note Name: C#2, Velocity: 25
Note ON: Time 642720, Note Name: A#2, Velocity: 30
Note OFF: Time 642840, Note Name: A#2
Note OFF: Time 642840, Note Name: C#2
Note ON: Time 642960, Note Name: C#2, Velocity: 25
Note ON: Time 642960, Note Name: A#2, Velocity: 30
Note OFF: Time 643080, Note Name: A#2
Note OFF: Time 643080, Note Name: C#2
Note ON: Time 643200, Note Name: C2, Velocity: 25
Note ON: Time 643200, Note Name: G#2, Velocity: 30
Note ON: Time 643200, Note Name: D#2, Velocity: 25
Note OFF: Time 643380, Note Name: D#2
Note OFF: Time 643380, Note Name: G#2
Note OFF: Time 643380, Note Name: C2
Note ON: Time 643440, Note Name: C2, Velocity: 25
Note ON: Time 643440, Note Name: D#2, Velocity: 25
Note ON: Time 643440, Note Name: G#2, Velocity: 30
Note OFF: Time 643620, Note Name: G#2
Note OFF: Time 643620, Note Name: D#2
Note OFF: Time 643620, Note Name: C2
Note ON: Time 643680, Note Name: C2, Velocity: 25
Note ON: Time 643680, Note Name: D#2, Velocity: 25
Note ON: Time 643680, Note Name: G#2, Velocity: 30
Note OFF: Time 643860, Note Name: G#2
Note OFF: Time 643860, Note Name: D#2
Note OFF: Time 643860, Note Name: C2
Note ON: Time 643920, Note Name: C2, Velocity: 25
Note ON: Time 643920, Note Name: D#2, Velocity: 25
Note ON: Time 643920, Note Name: G#2, Velocity: 30
Note OFF: Time 644100, Note Name: G#2
Note OFF: Time 644100, Note Name: D#2
Note OFF: Time 644100, Note Name: C2
Note ON: Time 644160, Note Name: C2, Velocity: 25
Note ON: Time 644160, Note Name: D#2, Velocity: 25
Note ON: Time 644160, Note Name: G#2, Velocity: 30
Note OFF: Time 644340, Note Name: G#2
Note OFF: Time 644340, Note Name: D#2
Note OFF: Time 644340, Note Name: C2
Note ON: Time 644400, Note Name: G#2, Velocity: 30
Note ON: Time 644400, Note Name: D#2, Velocity: 25
Note ON: Time 644400, Note Name: C2, Velocity: 25
Note OFF: Time 644580, Note Name: C2
Note OFF: Time 644580, Note Name: D#2
Note OFF: Time 644580, Note Name: G#2
Note ON: Time 644640, Note Name: C2, Velocity: 25
Note ON: Time 644640, Note Name: D#2, Velocity: 25
Note ON: Time 644640, Note Name: G#2, Velocity: 30
Note OFF: Time 644820, Note Name: G#2
Note OFF: Time 644820, Note Name: D#2
Note OFF: Time 644820, Note Name: C2
Note ON: Time 644880, Note Name: C2, Velocity: 25
Note ON: Time 644880, Note Name: D#2, Velocity: 25
Note ON: Time 644880, Note Name: G#2, Velocity: 30
Note OFF: Time 645060, Note Name: G#2
Note OFF: Time 645060, Note Name: D#2
Note OFF: Time 645060, Note Name: C2
Note ON: Time 645120, Note Name: F2, Velocity: 38
Note ON: Time 645120, Note Name: D#2, Velocity: 38
Note ON: Time 645120, Note Name: C2, Velocity: 38
Note ON: Time 645120, Note Name: A2, Velocity: 47
Note OFF: Time 645300, Note Name: A2
Note OFF: Time 645300, Note Name: F2
Note OFF: Time 645300, Note Name: D#2
Note OFF: Time 645300, Note Name: C2
Note ON: Time 645360, Note Name: D#2, Velocity: 38
Note ON: Time 645360, Note Name: C2, Velocity: 38
Note ON: Time 645360, Note Name: A2, Velocity: 47
Note ON: Time 645360, Note Name: F2, Velocity: 38
Note OFF: Time 645540, Note Name: F2
Note OFF: Time 645540, Note Name: D#2
Note OFF: Time 645540, Note Name: C2
Note OFF: Time 645540, Note Name: A2
Note ON: Time 645600, Note Name: D#2, Velocity: 38
Note ON: Time 645600, Note Name: C2, Velocity: 38
Note ON: Time 645600, Note Name: F2, Velocity: 38
Note ON: Time 645600, Note Name: A2, Velocity: 47
Note OFF: Time 645780, Note Name: A2
Note OFF: Time 645780, Note Name: D#2
Note OFF: Time 645780, Note Name: C2
Note OFF: Time 645780, Note Name: F2
Note ON: Time 645840, Note Name: F2, Velocity: 38
Note ON: Time 645840, Note Name: D#2, Velocity: 38
Note ON: Time 645840, Note Name: C2, Velocity: 38
Note ON: Time 645840, Note Name: A2, Velocity: 47
Note OFF: Time 646020, Note Name: A2
Note OFF: Time 646020, Note Name: F2
Note OFF: Time 646020, Note Name: D#2
Note OFF: Time 646020, Note Name: C2
Note ON: Time 646080, Note Name: F2, Velocity: 38
Note ON: Time 646080, Note Name: A2, Velocity: 47
Note ON: Time 646080, Note Name: C2, Velocity: 38
Note ON: Time 646080, Note Name: D#2, Velocity: 38
Note OFF: Time 646260, Note Name: D#2
Note OFF: Time 646260, Note Name: F2
Note OFF: Time 646260, Note Name: A2
Note OFF: Time 646260, Note Name: C2
Note ON: Time 646320, Note Name: C2, Velocity: 37
Note ON: Time 646320, Note Name: D#2, Velocity: 37
Note ON: Time 646320, Note Name: F2, Velocity: 37
Note ON: Time 646320, Note Name: A2, Velocity: 45
Note OFF: Time 646500, Note Name: A2
Note OFF: Time 646500, Note Name: C2
Note OFF: Time 646500, Note Name: D#2
Note OFF: Time 646500, Note Name: F2
Note ON: Time 646560, Note Name: F2, Velocity: 37
Note ON: Time 646560, Note Name: D#2, Velocity: 37
Note ON: Time 646560, Note Name: C2, Velocity: 37
Note ON: Time 646560, Note Name: A2, Velocity: 45
Note OFF: Time 646740, Note Name: A2
Note OFF: Time 646740, Note Name: F2
Note OFF: Time 646740, Note Name: D#2
Note OFF: Time 646740, Note Name: C2
Note ON: Time 646800, Note Name: F2, Velocity: 37
Note ON: Time 646800, Note Name: A2, Velocity: 45
Note ON: Time 646800, Note Name: D#2, Velocity: 37
Note ON: Time 646800, Note Name: C2, Velocity: 37
Note OFF: Time 646980, Note Name: C2
Note OFF: Time 646980, Note Name: F2
Note OFF: Time 646980, Note Name: A2
Note OFF: Time 646980, Note Name: D#2
Note ON: Time 647040, Note Name: F2, Velocity: 25
Note ON: Time 647040, Note Name: C#2, Velocity: 25
Note ON: Time 647040, Note Name: A#2, Velocity: 30
Note OFF: Time 647220, Note Name: A#2
Note OFF: Time 647220, Note Name: C#2
Note OFF: Time 647220, Note Name: F2
Note ON: Time 647280, Note Name: F2, Velocity: 25
Note ON: Time 647280, Note Name: C#2, Velocity: 25
Note ON: Time 647280, Note Name: A#2, Velocity: 30
Note OFF: Time 647460, Note Name: A#2
Note OFF: Time 647460, Note Name: C#2
Note OFF: Time 647460, Note Name: F2
Note ON: Time 647520, Note Name: F2, Velocity: 25
Note ON: Time 647520, Note Name: C#2, Velocity: 25
Note ON: Time 647520, Note Name: A#2, Velocity: 30
Note OFF: Time 647700, Note Name: A#2
Note OFF: Time 647700, Note Name: C#2
Note OFF: Time 647700, Note Name: F2
Note ON: Time 647760, Note Name: F2, Velocity: 25
Note ON: Time 647760, Note Name: C#2, Velocity: 25
Note ON: Time 647760, Note Name: A#2, Velocity: 30
Note OFF: Time 647940, Note Name: A#2
Note OFF: Time 647940, Note Name: C#2
Note OFF: Time 647940, Note Name: F2
Note ON: Time 648000, Note Name: A#2, Velocity: 30
Note ON: Time 648000, Note Name: F2, Velocity: 25
Note ON: Time 648000, Note Name: C#2, Velocity: 25
Note OFF: Time 648180, Note Name: C#2
Note OFF: Time 648180, Note Name: F2
Note OFF: Time 648180, Note Name: A#2
Note ON: Time 648240, Note Name: C#2, Velocity: 25
Note ON: Time 648240, Note Name: A#2, Velocity: 30
Note ON: Time 648240, Note Name: F2, Velocity: 25
Note OFF: Time 648420, Note Name: F2
Note OFF: Time 648420, Note Name: A#2
Note OFF: Time 648420, Note Name: C#2
Note ON: Time 648480, Note Name: C#2, Velocity: 25
Note ON: Time 648480, Note Name: A#2, Velocity: 30
Note ON: Time 648480, Note Name: F2, Velocity: 25
Note OFF: Time 648660, Note Name: F2
Note OFF: Time 648660, Note Name: A#2
Note OFF: Time 648660, Note Name: C#2
Note ON: Time 648720, Note Name: C#2, Velocity: 25
Note ON: Time 648720, Note Name: A#2, Velocity: 30
Note ON: Time 648720, Note Name: F2, Velocity: 25
Note OFF: Time 648900, Note Name: F2
Note OFF: Time 648900, Note Name: A#2
Note OFF: Time 648900, Note Name: C#2
Note ON: Time 648960, Note Name: B2, Velocity: 47
Note ON: Time 648960, Note Name: F2, Velocity: 38
Note ON: Time 648960, Note Name: D2, Velocity: 38
Note OFF: Time 649140, Note Name: D2
Note OFF: Time 649140, Note Name: F2
Note OFF: Time 649140, Note Name: B2
Note ON: Time 649200, Note Name: F2, Velocity: 38
Note ON: Time 649200, Note Name: D2, Velocity: 38
Note ON: Time 649200, Note Name: B2, Velocity: 47
Note OFF: Time 649380, Note Name: B2
Note OFF: Time 649380, Note Name: D2
Note OFF: Time 649380, Note Name: F2
Note ON: Time 649440, Note Name: F2, Velocity: 38
Note ON: Time 649440, Note Name: D2, Velocity: 38
Note ON: Time 649440, Note Name: B2, Velocity: 47
Note OFF: Time 649620, Note Name: B2
Note OFF: Time 649620, Note Name: D2
Note OFF: Time 649620, Note Name: F2
Note ON: Time 649680, Note Name: F2, Velocity: 38
Note ON: Time 649680, Note Name: D2, Velocity: 38
Note ON: Time 649680, Note Name: B2, Velocity: 47
Note OFF: Time 649860, Note Name: B2
Note OFF: Time 649860, Note Name: D2
Note OFF: Time 649860, Note Name: F2
Note ON: Time 649920, Note Name: F2, Velocity: 37
Note ON: Time 649920, Note Name: D2, Velocity: 37
Note ON: Time 649920, Note Name: B2, Velocity: 45
Note OFF: Time 650100, Note Name: B2
Note OFF: Time 650100, Note Name: D2
Note OFF: Time 650100, Note Name: F2
Note ON: Time 650160, Note Name: B2, Velocity: 45
Note ON: Time 650160, Note Name: F2, Velocity: 37
Note ON: Time 650160, Note Name: D2, Velocity: 37
Note OFF: Time 650340, Note Name: D2
Note OFF: Time 650340, Note Name: F2
Note OFF: Time 650340, Note Name: B2
Note ON: Time 650400, Note Name: F2, Velocity: 37
Note ON: Time 650400, Note Name: B2, Velocity: 45
Note ON: Time 650400, Note Name: D2, Velocity: 37
Note OFF: Time 650580, Note Name: D2
Note OFF: Time 650580, Note Name: B2
Note OFF: Time 650580, Note Name: F2
Note ON: Time 650640, Note Name: D2, Velocity: 37
Note ON: Time 650640, Note Name: F2, Velocity: 37
Note ON: Time 650640, Note Name: B2, Velocity: 45
Note OFF: Time 650820, Note Name: B2
Note OFF: Time 650820, Note Name: F2
Note OFF: Time 650820, Note Name: D2
Note ON: Time 650880, Note Name: G2, Velocity: 37
Note ON: Time 650880, Note Name: D#2, Velocity: 37
Note ON: Time 650880, Note Name: B2, Velocity: 45
Note OFF: Time 651060, Note Name: B2
Note OFF: Time 651060, Note Name: D#2
Note OFF: Time 651060, Note Name: G2
Note ON: Time 651120, Note Name: G2, Velocity: 37
Note ON: Time 651120, Note Name: D#2, Velocity: 37
Note ON: Time 651120, Note Name: B2, Velocity: 45
Note OFF: Time 651300, Note Name: B2
Note OFF: Time 651300, Note Name: D#2
Note OFF: Time 651300, Note Name: G2
Note ON: Time 651360, Note Name: G2, Velocity: 37
Note ON: Time 651360, Note Name: D#2, Velocity: 37
Note ON: Time 651360, Note Name: C3, Velocity: 45
Note OFF: Time 651540, Note Name: C3
Note OFF: Time 651540, Note Name: D#2
Note OFF: Time 651540, Note Name: G2
Note ON: Time 651600, Note Name: D#2, Velocity: 37
Note ON: Time 651600, Note Name: C3, Velocity: 45
Note ON: Time 651600, Note Name: G2, Velocity: 37
Note OFF: Time 651780, Note Name: G2
Note OFF: Time 651780, Note Name: C3
Note OFF: Time 651780, Note Name: D#2
Note ON: Time 651840, Note Name: F2, Velocity: 37
Note ON: Time 651840, Note Name: C3, Velocity: 45
Note ON: Time 651840, Note Name: G#2, Velocity: 37
Note OFF: Time 652020, Note Name: G#2
Note OFF: Time 652020, Note Name: C3
Note OFF: Time 652020, Note Name: F2
Note ON: Time 652080, Note Name: F2, Velocity: 38
Note ON: Time 652080, Note Name: C3, Velocity: 46
Note ON: Time 652080, Note Name: G#2, Velocity: 38
Note OFF: Time 652260, Note Name: G#2
Note OFF: Time 652260, Note Name: C3
Note OFF: Time 652260, Note Name: F2
Note ON: Time 652320, Note Name: G#2, Velocity: 38
Note ON: Time 652320, Note Name: F2, Velocity: 38
Note ON: Time 652320, Note Name: D3, Velocity: 46
Note OFF: Time 652500, Note Name: D3
Note OFF: Time 652500, Note Name: F2
Note OFF: Time 652500, Note Name: G#2
Note ON: Time 652560, Note Name: D3, Velocity: 46
Note ON: Time 652560, Note Name: F2, Velocity: 38
Note ON: Time 652560, Note Name: G#2, Velocity: 38
Note OFF: Time 652740, Note Name: G#2
Note OFF: Time 652740, Note Name: F2
Note OFF: Time 652740, Note Name: D3
Note ON: Time 652800, Note Name: G2, Velocity: 38
Note ON: Time 652800, Note Name: A#2, Velocity: 38
Note ON: Time 652800, Note Name: D3, Velocity: 47
Note OFF: Time 652980, Note Name: D3
Note OFF: Time 652980, Note Name: A#2
Note OFF: Time 652980, Note Name: G2
Note ON: Time 653040, Note Name: G2, Velocity: 38
Note ON: Time 653040, Note Name: A#2, Velocity: 38
Note ON: Time 653040, Note Name: D3, Velocity: 47
Note OFF: Time 653220, Note Name: D3
Note OFF: Time 653220, Note Name: A#2
Note OFF: Time 653220, Note Name: G2
Note ON: Time 653280, Note Name: G2, Velocity: 39
Note ON: Time 653280, Note Name: A#2, Velocity: 39
Note ON: Time 653280, Note Name: E3, Velocity: 47
Note OFF: Time 653460, Note Name: E3
Note OFF: Time 653460, Note Name: A#2
Note OFF: Time 653460, Note Name: G2
Note ON: Time 653520, Note Name: A#2, Velocity: 39
Note ON: Time 653520, Note Name: G2, Velocity: 39
Note ON: Time 653520, Note Name: E3, Velocity: 48
Note OFF: Time 653700, Note Name: E3
Note OFF: Time 653700, Note Name: G2
Note OFF: Time 653700, Note Name: A#2
Note ON: Time 653760, Note Name: G#2, Velocity: 39
Note ON: Time 653760, Note Name: E3, Velocity: 48
Note ON: Time 653760, Note Name: C3, Velocity: 39
Note OFF: Time 653940, Note Name: C3
Note OFF: Time 653940, Note Name: E3
Note OFF: Time 653940, Note Name: G#2
Note ON: Time 654000, Note Name: G#2, Velocity: 39
Note ON: Time 654000, Note Name: E3, Velocity: 48
Note ON: Time 654000, Note Name: C3, Velocity: 39
Note OFF: Time 654180, Note Name: C3
Note OFF: Time 654180, Note Name: E3
Note OFF: Time 654180, Note Name: G#2
Note ON: Time 654240, Note Name: G#2, Velocity: 40
Note ON: Time 654240, Note Name: F3, Velocity: 49
Note ON: Time 654240, Note Name: C3, Velocity: 40
Note OFF: Time 654420, Note Name: C3
Note OFF: Time 654420, Note Name: F3
Note OFF: Time 654420, Note Name: G#2
Note ON: Time 654480, Note Name: C3, Velocity: 40
Note ON: Time 654480, Note Name: G#2, Velocity: 40
Note ON: Time 654480, Note Name: F3, Velocity: 49
Note OFF: Time 654660, Note Name: F3
Note OFF: Time 654660, Note Name: G#2
Note OFF: Time 654660, Note Name: C3
Note ON: Time 654720, Note Name: F#3, Velocity: 51
Note ON: Time 654720, Note Name: A2, Velocity: 42
Note ON: Time 654720, Note Name: C3, Velocity: 42
Note OFF: Time 654900, Note Name: C3
Note OFF: Time 654900, Note Name: A2
Note OFF: Time 654900, Note Name: F#3
Note ON: Time 654960, Note Name: F#3, Velocity: 51
Note ON: Time 654960, Note Name: A2, Velocity: 42
Note ON: Time 654960, Note Name: C3, Velocity: 42
Note OFF: Time 655140, Note Name: C3
Note OFF: Time 655140, Note Name: A2
Note OFF: Time 655140, Note Name: F#3
Note ON: Time 655200, Note Name: C3, Velocity: 42
Note ON: Time 655200, Note Name: A2, Velocity: 42
Note ON: Time 655200, Note Name: F#3, Velocity: 51
Note OFF: Time 655380, Note Name: F#3
Note OFF: Time 655380, Note Name: A2
Note OFF: Time 655380, Note Name: C3
Note ON: Time 655440, Note Name: C3, Velocity: 42
Note ON: Time 655440, Note Name: A2, Velocity: 42
Note ON: Time 655440, Note Name: F#3, Velocity: 51
Note OFF: Time 655620, Note Name: F#3
Note OFF: Time 655620, Note Name: A2
Note OFF: Time 655620, Note Name: C3
Note ON: Time 655680, Note Name: F#3, Velocity: 51
Note ON: Time 655680, Note Name: C3, Velocity: 42
Note ON: Time 655680, Note Name: A2, Velocity: 42
Note OFF: Time 655860, Note Name: A2
Note OFF: Time 655860, Note Name: C3
Note OFF: Time 655860, Note Name: F#3
Note ON: Time 655920, Note Name: C3, Velocity: 42
Note ON: Time 655920, Note Name: A2, Velocity: 42
Note ON: Time 655920, Note Name: F#3, Velocity: 51
Note OFF: Time 656100, Note Name: F#3
Note OFF: Time 656100, Note Name: A2
Note OFF: Time 656100, Note Name: C3
Note ON: Time 656160, Note Name: C3, Velocity: 42
Note ON: Time 656160, Note Name: A2, Velocity: 42
Note ON: Time 656160, Note Name: F#3, Velocity: 51
Note OFF: Time 656340, Note Name: F#3
Note OFF: Time 656340, Note Name: A2
Note OFF: Time 656340, Note Name: C3
Note ON: Time 656400, Note Name: C3, Velocity: 42
Note ON: Time 656400, Note Name: A2, Velocity: 42
Note ON: Time 656400, Note Name: F#3, Velocity: 51
Note OFF: Time 656580, Note Name: F#3
Note OFF: Time 656580, Note Name: A2
Note OFF: Time 656580, Note Name: C3
Note ON: Time 656640, Note Name: C3, Velocity: 42
Note ON: Time 656640, Note Name: F#3, Velocity: 51
Note ON: Time 656640, Note Name: G#2, Velocity: 42
Note OFF: Time 656820, Note Name: G#2
Note OFF: Time 656820, Note Name: F#3
Note OFF: Time 656820, Note Name: C3
Note ON: Time 656880, Note Name: F#3, Velocity: 51
Note ON: Time 656880, Note Name: G#2, Velocity: 42
Note ON: Time 656880, Note Name: C3, Velocity: 42
Note OFF: Time 657060, Note Name: C3
Note OFF: Time 657060, Note Name: G#2
Note OFF: Time 657060, Note Name: F#3
Note ON: Time 657120, Note Name: C3, Velocity: 42
Note ON: Time 657120, Note Name: G#2, Velocity: 42
Note ON: Time 657120, Note Name: F#3, Velocity: 51
Note OFF: Time 657300, Note Name: F#3
Note OFF: Time 657300, Note Name: G#2
Note OFF: Time 657300, Note Name: C3
Note ON: Time 657360, Note Name: C3, Velocity: 42
Note ON: Time 657360, Note Name: G#2, Velocity: 42
Note ON: Time 657360, Note Name: F#3, Velocity: 51
Note OFF: Time 657540, Note Name: F#3
Note OFF: Time 657540, Note Name: G#2
Note OFF: Time 657540, Note Name: C3
Note ON: Time 657600, Note Name: C3, Velocity: 42
Note ON: Time 657600, Note Name: G#2, Velocity: 42
Note ON: Time 657600, Note Name: D#3, Velocity: 51
Note OFF: Time 657780, Note Name: D#3
Note OFF: Time 657780, Note Name: G#2
Note OFF: Time 657780, Note Name: C3
Note ON: Time 657840, Note Name: D#3, Velocity: 51
Note ON: Time 657840, Note Name: C3, Velocity: 42
Note ON: Time 657840, Note Name: G#2, Velocity: 42
Note OFF: Time 658020, Note Name: G#2
Note OFF: Time 658020, Note Name: C3
Note OFF: Time 658020, Note Name: D#3
Note ON: Time 658080, Note Name: G#2, Velocity: 42
Note ON: Time 658080, Note Name: C3, Velocity: 51
Note OFF: Time 658260, Note Name: C3
Note OFF: Time 658260, Note Name: G#2
Note ON: Time 658320, Note Name: C3, Velocity: 51
Note ON: Time 658320, Note Name: G#2, Velocity: 42
Note OFF: Time 658500, Note Name: G#2
Note OFF: Time 658500, Note Name: C3
Note ON: Time 658560, Note Name: G2, Velocity: 42
Note ON: Time 658560, Note Name: B2, Velocity: 51
Note OFF: Time 658780, Note Name: B2
Note OFF: Time 658780, Note Name: G2
Note ON: Time 662400, Note Name: B2, Velocity: 29
Note ON: Time 662400, Note Name: D3, Velocity: 35
Note OFF: Time 662580, Note Name: D3
Note OFF: Time 662580, Note Name: B2
Note ON: Time 662640, Note Name: D3, Velocity: 35
Note ON: Time 662640, Note Name: B2, Velocity: 29
Note OFF: Time 662820, Note Name: B2
Note OFF: Time 662820, Note Name: D3
Note ON: Time 662880, Note Name: D3, Velocity: 35
Note ON: Time 662880, Note Name: B2, Velocity: 29
Note OFF: Time 663060, Note Name: B2
Note OFF: Time 663060, Note Name: D3
Note ON: Time 663120, Note Name: B2, Velocity: 29
Note ON: Time 663120, Note Name: D3, Velocity: 35
Note OFF: Time 663300, Note Name: D3
Note OFF: Time 663300, Note Name: B2
Note ON: Time 663360, Note Name: B2, Velocity: 29
Note ON: Time 663360, Note Name: D3, Velocity: 35
Note OFF: Time 663540, Note Name: D3
Note OFF: Time 663540, Note Name: B2
Note ON: Time 663600, Note Name: D3, Velocity: 35
Note ON: Time 663600, Note Name: B2, Velocity: 29
Note OFF: Time 663780, Note Name: B2
Note OFF: Time 663780, Note Name: D3
Note ON: Time 663840, Note Name: B2, Velocity: 29
Note ON: Time 663840, Note Name: D3, Velocity: 35
Note OFF: Time 664020, Note Name: D3
Note OFF: Time 664020, Note Name: B2
Note ON: Time 664080, Note Name: B2, Velocity: 29
Note ON: Time 664080, Note Name: D3, Velocity: 35
Note OFF: Time 664260, Note Name: D3
Note OFF: Time 664260, Note Name: B2
Note ON: Time 664320, Note Name: B2, Velocity: 29
Note ON: Time 664320, Note Name: D3, Velocity: 35
Note OFF: Time 664500, Note Name: D3
Note OFF: Time 664500, Note Name: B2
Note ON: Time 664560, Note Name: B2, Velocity: 29
Note ON: Time 664560, Note Name: D3, Velocity: 35
Note OFF: Time 664740, Note Name: D3
Note OFF: Time 664740, Note Name: B2
Note ON: Time 664800, Note Name: B2, Velocity: 29
Note ON: Time 664800, Note Name: D3, Velocity: 35
Note OFF: Time 664980, Note Name: D3
Note OFF: Time 664980, Note Name: B2
Note ON: Time 665040, Note Name: B2, Velocity: 29
Note ON: Time 665040, Note Name: D3, Velocity: 35
Note OFF: Time 665220, Note Name: D3
Note OFF: Time 665220, Note Name: B2
Note ON: Time 665280, Note Name: D3, Velocity: 35
Note ON: Time 665280, Note Name: B2, Velocity: 29
Note OFF: Time 665460, Note Name: B2
Note OFF: Time 665460, Note Name: D3
Note ON: Time 665520, Note Name: B2, Velocity: 29
Note ON: Time 665520, Note Name: D3, Velocity: 35
Note OFF: Time 665700, Note Name: D3
Note OFF: Time 665700, Note Name: B2
Note ON: Time 665760, Note Name: E3, Velocity: 35
Note ON: Time 665760, Note Name: C#3, Velocity: 29
Note OFF: Time 665940, Note Name: C#3
Note OFF: Time 665940, Note Name: E3
Note ON: Time 666000, Note Name: C#3, Velocity: 29
Note ON: Time 666000, Note Name: E3, Velocity: 35
Note OFF: Time 666180, Note Name: E3
Note OFF: Time 666180, Note Name: C#3
Note ON: Time 666240, Note Name: F3, Velocity: 42
Note ON: Time 666240, Note Name: D3, Velocity: 42
Note OFF: Time 666960, Note Name: F3
Note ON: Time 666960, Note Name: A3, Velocity: 40
Note OFF: Time 667080, Note Name: A3
Note ON: Time 667080, Note Name: G3, Velocity: 40
Note OFF: Time 667200, Note Name: G3
Note ON: Time 667200, Note Name: F3, Velocity: 45
Note OFF: Time 667440, Note Name: F3
Note OFF: Time 667440, Note Name: D3
Note ON: Time 668160, Note Name: A4, Velocity: 46
Note OFF: Time 668760, Note Name: A4
Note ON: Time 668760, Note Name: G4, Velocity: 40
Note OFF: Time 668880, Note Name: G4
Note ON: Time 668880, Note Name: F4, Velocity: 40
Note OFF: Time 669000, Note Name: F4
Note ON: Time 669000, Note Name: E4, Velocity: 40
Note OFF: Time 669120, Note Name: E4
Note ON: Time 669120, Note Name: D4, Velocity: 45
Note OFF: Time 669360, Note Name: D4
Note ON: Time 670080, Note Name: A2, Velocity: 29
Note ON: Time 670080, Note Name: C3, Velocity: 35
Note OFF: Time 670260, Note Name: C3
Note OFF: Time 670260, Note Name: A2
Note ON: Time 670320, Note Name: A2, Velocity: 29
Note ON: Time 670320, Note Name: C3, Velocity: 35
Note OFF: Time 670500, Note Name: C3
Note OFF: Time 670500, Note Name: A2
Note ON: Time 670560, Note Name: C3, Velocity: 35
Note ON: Time 670560, Note Name: A2, Velocity: 29
Note OFF: Time 670740, Note Name: A2
Note OFF: Time 670740, Note Name: C3
Note ON: Time 670800, Note Name: A2, Velocity: 29
Note ON: Time 670800, Note Name: C3, Velocity: 35
Note OFF: Time 670980, Note Name: C3
Note OFF: Time 670980, Note Name: A2
Note ON: Time 671040, Note Name: A2, Velocity: 29
Note ON: Time 671040, Note Name: C3, Velocity: 35
Note OFF: Time 671220, Note Name: C3
Note OFF: Time 671220, Note Name: A2
Note ON: Time 671280, Note Name: C3, Velocity: 35
Note ON: Time 671280, Note Name: A2, Velocity: 29
Note OFF: Time 671460, Note Name: A2
Note OFF: Time 671460, Note Name: C3
Note ON: Time 671520, Note Name: A2, Velocity: 29
Note ON: Time 671520, Note Name: C3, Velocity: 35
Note OFF: Time 671700, Note Name: C3
Note OFF: Time 671700, Note Name: A2
Note ON: Time 671760, Note Name: A2, Velocity: 29
Note ON: Time 671760, Note Name: C3, Velocity: 35
Note OFF: Time 671940, Note Name: C3
Note OFF: Time 671940, Note Name: A2
Note ON: Time 672000, Note Name: C3, Velocity: 35
Note ON: Time 672000, Note Name: A2, Velocity: 29
Note OFF: Time 672180, Note Name: A2
Note OFF: Time 672180, Note Name: C3
Note ON: Time 672240, Note Name: A2, Velocity: 29
Note ON: Time 672240, Note Name: C3, Velocity: 35
Note OFF: Time 672420, Note Name: C3
Note OFF: Time 672420, Note Name: A2
Note ON: Time 672480, Note Name: A2, Velocity: 29
Note ON: Time 672480, Note Name: C3, Velocity: 35
Note OFF: Time 672660, Note Name: C3
Note OFF: Time 672660, Note Name: A2
Note ON: Time 672720, Note Name: C3, Velocity: 35
Note ON: Time 672720, Note Name: A2, Velocity: 29
Note OFF: Time 672900, Note Name: A2
Note OFF: Time 672900, Note Name: C3
Note ON: Time 672960, Note Name: A2, Velocity: 29
Note ON: Time 672960, Note Name: C3, Velocity: 35
Note OFF: Time 673140, Note Name: C3
Note OFF: Time 673140, Note Name: A2
Note ON: Time 673200, Note Name: C3, Velocity: 35
Note ON: Time 673200, Note Name: A2, Velocity: 29
Note OFF: Time 673380, Note Name: A2
Note OFF: Time 673380, Note Name: C3
Note ON: Time 673440, Note Name: B2, Velocity: 29
Note ON: Time 673440, Note Name: D3, Velocity: 35
Note OFF: Time 673620, Note Name: D3
Note OFF: Time 673620, Note Name: B2
Note ON: Time 673680, Note Name: B2, Velocity: 29
Note ON: Time 673680, Note Name: D3, Velocity: 35
Note OFF: Time 673860, Note Name: D3
Note OFF: Time 673860, Note Name: B2
Note ON: Time 673920, Note Name: E3, Velocity: 42
Note ON: Time 673920, Note Name: C3, Velocity: 42
Note OFF: Time 674640, Note Name: E3
Note ON: Time 674640, Note Name: G3, Velocity: 40
Note OFF: Time 674760, Note Name: G3
Note ON: Time 674760, Note Name: F3, Velocity: 40
Note OFF: Time 674880, Note Name: F3
Note ON: Time 674880, Note Name: E3, Velocity: 45
Note OFF: Time 675120, Note Name: E3
Note OFF: Time 675120, Note Name: C3
Note ON: Time 675780, Note Name: C3, Velocity: 36
Note OFF: Time 675840, Note Name: C3
Note ON: Time 675840, Note Name: E4, Velocity: 46
Note OFF: Time 676440, Note Name: E4
Note ON: Time 676440, Note Name: D4, Velocity: 40
Note OFF: Time 676560, Note Name: D4
Note ON: Time 676560, Note Name: C4, Velocity: 40
Note OFF: Time 676680, Note Name: C4
Note ON: Time 676680, Note Name: B3, Velocity: 40
Note OFF: Time 676800, Note Name: B3
Note ON: Time 676800, Note Name: A3, Velocity: 45
Note OFF: Time 677040, Note Name: A3
Note ON: Time 677760, Note Name: F3, Velocity: 44
Note ON: Time 677760, Note Name: D3, Velocity: 44
Note OFF: Time 678480, Note Name: F3
Note ON: Time 678480, Note Name: A3, Velocity: 43
Note OFF: Time 678600, Note Name: A3
Note ON: Time 678600, Note Name: G3, Velocity: 43
Note OFF: Time 678720, Note Name: G3
Note ON: Time 678720, Note Name: F3, Velocity: 49
Note OFF: Time 678960, Note Name: F3
Note OFF: Time 678960, Note Name: D3
Note ON: Time 679620, Note Name: D3, Velocity: 35
Note OFF: Time 679680, Note Name: D3
Note ON: Time 679680, Note Name: F4, Velocity: 55
Note OFF: Time 680280, Note Name: F4
Note ON: Time 680280, Note Name: E4, Velocity: 46
Note OFF: Time 680400, Note Name: E4
Note ON: Time 680400, Note Name: D4, Velocity: 46
Note OFF: Time 680520, Note Name: D4
Note ON: Time 680520, Note Name: C4, Velocity: 46
Note OFF: Time 680640, Note Name: C4
Note ON: Time 680640, Note Name: B3, Velocity: 52
Note OFF: Time 681120, Note Name: B3
Note ON: Time 681540, Note Name: E3, Velocity: 40
Note OFF: Time 681600, Note Name: E3
Note ON: Time 681600, Note Name: G4, Velocity: 64
Note OFF: Time 682200, Note Name: G4
Note ON: Time 682200, Note Name: F4, Velocity: 52
Note OFF: Time 682320, Note Name: F4
Note ON: Time 682320, Note Name: E4, Velocity: 51
Note OFF: Time 682440, Note Name: E4
Note ON: Time 682440, Note Name: D4, Velocity: 51
Note OFF: Time 682560, Note Name: D4
Note ON: Time 682560, Note Name: C#4, Velocity: 56
Note OFF: Time 683040, Note Name: C#4
Note ON: Time 683460, Note Name: F3, Velocity: 46
Note OFF: Time 683520, Note Name: F3
Note ON: Time 683520, Note Name: A4, Velocity: 73
Note OFF: Time 684000, Note Name: A4
Note ON: Time 684000, Note Name: G4, Velocity: 60
Note OFF: Time 684120, Note Name: G4
Note ON: Time 684120, Note Name: F4, Velocity: 60
Note OFF: Time 684240, Note Name: F4
Note ON: Time 684240, Note Name: E4, Velocity: 60
Note OFF: Time 684360, Note Name: E4
Note ON: Time 684360, Note Name: D4, Velocity: 59
Note OFF: Time 684420, Note Name: D4
Note ON: Time 684420, Note Name: G3, Velocity: 47
Note OFF: Time 684480, Note Name: G3
Note ON: Time 684480, Note Name: B4, Velocity: 75
Note OFF: Time 684960, Note Name: B4
Note ON: Time 684960, Note Name: A4, Velocity: 62
Note OFF: Time 685080, Note Name: A4
Note ON: Time 685080, Note Name: G4, Velocity: 62
Note OFF: Time 685200, Note Name: G4
Note ON: Time 685200, Note Name: F4, Velocity: 63
Note OFF: Time 685320, Note Name: F4
Note ON: Time 685320, Note Name: E4, Velocity: 62
Note OFF: Time 685380, Note Name: E4
Note ON: Time 685380, Note Name: A3, Velocity: 50
Note OFF: Time 685440, Note Name: A3
Note ON: Time 685440, Note Name: C5, Velocity: 78
Note OFF: Time 685920, Note Name: C5
Note ON: Time 685920, Note Name: B4, Velocity: 64
Note OFF: Time 686040, Note Name: B4
Note ON: Time 686040, Note Name: A4, Velocity: 64
Note OFF: Time 686160, Note Name: A4
Note ON: Time 686160, Note Name: G4, Velocity: 65
Note OFF: Time 686280, Note Name: G4
Note ON: Time 686280, Note Name: F4, Velocity: 64
Note OFF: Time 686340, Note Name: F4
Note ON: Time 686340, Note Name: B3, Velocity: 54
Note OFF: Time 686400, Note Name: B3
Note ON: Time 686400, Note Name: D5, Velocity: 81
Note OFF: Time 686880, Note Name: D5
Note ON: Time 686880, Note Name: C5, Velocity: 67
Note OFF: Time 687000, Note Name: C5
Note ON: Time 687000, Note Name: B4, Velocity: 67
Note OFF: Time 687120, Note Name: B4
Note ON: Time 687120, Note Name: A4, Velocity: 67
Note OFF: Time 687240, Note Name: A4
Note ON: Time 687240, Note Name: G4, Velocity: 66
Note OFF: Time 687300, Note Name: G4
Note ON: Time 687300, Note Name: C4, Velocity: 56
Note OFF: Time 687360, Note Name: C4
Note ON: Time 687360, Note Name: E5, Velocity: 84
Note OFF: Time 687840, Note Name: E5
Note ON: Time 687840, Note Name: D5, Velocity: 69
Note OFF: Time 687960, Note Name: D5
Note ON: Time 687960, Note Name: C5, Velocity: 70
Note OFF: Time 688080, Note Name: C5
Note ON: Time 688080, Note Name: B4, Velocity: 70
Note OFF: Time 688200, Note Name: B4
Note ON: Time 688200, Note Name: A4, Velocity: 69
Note OFF: Time 688260, Note Name: A4
Note ON: Time 688260, Note Name: D4, Velocity: 58
Note OFF: Time 688320, Note Name: D4
Note ON: Time 688320, Note Name: F5, Velocity: 87
Note OFF: Time 688800, Note Name: F5
Note ON: Time 688800, Note Name: E5, Velocity: 71
Note OFF: Time 688920, Note Name: E5
Note ON: Time 688920, Note Name: D5, Velocity: 72
Note OFF: Time 689040, Note Name: D5
Note ON: Time 689040, Note Name: C5, Velocity: 72
Note OFF: Time 689160, Note Name: C5
Note ON: Time 689160, Note Name: B4, Velocity: 71
Note OFF: Time 689280, Note Name: B4
Note ON: Time 689280, Note Name: E4, Velocity: 78
Note OFF: Time 689360, Note Name: E4
Note ON: Time 689360, Note Name: C5, Velocity: 74
Note OFF: Time 689440, Note Name: C5
Note ON: Time 689440, Note Name: E5, Velocity: 74
Note OFF: Time 689520, Note Name: E5
Note ON: Time 689760, Note Name: E4, Velocity: 79
Note OFF: Time 689840, Note Name: E4
Note ON: Time 689840, Note Name: C5, Velocity: 74
Note OFF: Time 689920, Note Name: C5
Note ON: Time 689920, Note Name: E5, Velocity: 75
Note OFF: Time 690000, Note Name: E5
Note ON: Time 690240, Note Name: E4, Velocity: 81
Note OFF: Time 690320, Note Name: E4
Note ON: Time 690320, Note Name: C5, Velocity: 77
Note OFF: Time 690400, Note Name: C5
Note ON: Time 690400, Note Name: E5, Velocity: 77
Note OFF: Time 690480, Note Name: E5
Note ON: Time 690720, Note Name: E4, Velocity: 81
Note OFF: Time 690800, Note Name: E4
Note ON: Time 690800, Note Name: C5, Velocity: 78
Note OFF: Time 690880, Note Name: C5
Note ON: Time 690880, Note Name: E5, Velocity: 79
Note OFF: Time 690960, Note Name: E5
Note ON: Time 691200, Note Name: C5, Velocity: 75
Note ON: Time 691200, Note Name: F5, Velocity: 75
Note ON: Time 691200, Note Name: F4, Velocity: 75
Note OFF: Time 691680, Note Name: F4
Note OFF: Time 691680, Note Name: F5
Note OFF: Time 691680, Note Name: C5
Note ON: Time 693600, Note Name: F1, Velocity: 75
Note OFF: Time 694200, Note Name: F1
Note ON: Time 694200, Note Name: G1, Velocity: 68
Note OFF: Time 694320, Note Name: G1
Note ON: Time 694320, Note Name: A1, Velocity: 69
Note OFF: Time 694440, Note Name: A1
Note ON: Time 694440, Note Name: B1, Velocity: 70
Note OFF: Time 694560, Note Name: B1
Note ON: Time 694560, Note Name: C2, Velocity: 71
Note OFF: Time 694680, Note Name: C2
Note ON: Time 694680, Note Name: D2, Velocity: 73
Note OFF: Time 694800, Note Name: D2
Note ON: Time 694800, Note Name: E2, Velocity: 74
Note OFF: Time 694920, Note Name: E2
Note ON: Time 694920, Note Name: F2, Velocity: 75
Note OFF: Time 695040, Note Name: F2
Note ON: Time 695040, Note Name: G1, Velocity: 63
Note ON: Time 695040, Note Name: C2, Velocity: 63
Note ON: Time 695040, Note Name: E2, Velocity: 75
Note OFF: Time 695520, Note Name: E2
Note OFF: Time 695520, Note Name: C2
Note OFF: Time 695520, Note Name: G1
Note ON: Time 699480, Note Name: E5, Velocity: 52
Note OFF: Time 699600, Note Name: E5
Note ON: Time 699600, Note Name: D#5, Velocity: 52
Note OFF: Time 699720, Note Name: D#5
Note ON: Time 699720, Note Name: E5, Velocity: 53
Note OFF: Time 699840, Note Name: E5
Note ON: Time 699840, Note Name: G4, Velocity: 60
Note OFF: Time 699900, Note Name: G4
Note ON: Time 699960, Note Name: C5, Velocity: 54
Note OFF: Time 700080, Note Name: C5
Note ON: Time 700080, Note Name: B4, Velocity: 55
Note OFF: Time 700200, Note Name: B4
Note ON: Time 700200, Note Name: C5, Velocity: 55
Note OFF: Time 700320, Note Name: C5
Note ON: Time 700320, Note Name: G4, Velocity: 61
Note OFF: Time 700380, Note Name: G4
Note ON: Time 700440, Note Name: E5, Velocity: 56
Note OFF: Time 700560, Note Name: E5
Note ON: Time 700560, Note Name: D#5, Velocity: 56
Note OFF: Time 700680, Note Name: D#5
Note ON: Time 700680, Note Name: E5, Velocity: 56
Note OFF: Time 700800, Note Name: E5
Note ON: Time 700800, Note Name: G4, Velocity: 63
Note OFF: Time 700860, Note Name: G4
Note ON: Time 700920, Note Name: C5, Velocity: 57
Note OFF: Time 701040, Note Name: C5
Note ON: Time 701040, Note Name: B4, Velocity: 58
Note OFF: Time 701160, Note Name: B4
Note ON: Time 701160, Note Name: C5, Velocity: 58
Note OFF: Time 701280, Note Name: C5
Note ON: Time 701280, Note Name: G4, Velocity: 65
Note OFF: Time 701340, Note Name: G4
Note ON: Time 701400, Note Name: E5, Velocity: 59
Note OFF: Time 701520, Note Name: E5
Note ON: Time 701520, Note Name: D#5, Velocity: 59
Note OFF: Time 701640, Note Name: D#5
Note ON: Time 701640, Note Name: E5, Velocity: 59
Note OFF: Time 701760, Note Name: E5
Note ON: Time 701760, Note Name: G4, Velocity: 67
Note OFF: Time 701820, Note Name: G4
Note ON: Time 701880, Note Name: C5, Velocity: 60
Note OFF: Time 702000, Note Name: C5
Note ON: Time 702000, Note Name: B4, Velocity: 60
Note OFF: Time 702120, Note Name: B4
Note ON: Time 702120, Note Name: C5, Velocity: 61
Note OFF: Time 702240, Note Name: C5
Note ON: Time 702240, Note Name: G4, Velocity: 69
Note OFF: Time 702300, Note Name: G4
Note ON: Time 702360, Note Name: E5, Velocity: 62
Note OFF: Time 702480, Note Name: E5
Note ON: Time 702480, Note Name: D#5, Velocity: 62
Note OFF: Time 702600, Note Name: D#5
Note ON: Time 702600, Note Name: E5, Velocity: 63
Note OFF: Time 702720, Note Name: E5
Note ON: Time 702720, Note Name: D5, Velocity: 73
Note ON: Time 702720, Note Name: G4, Velocity: 73
Note ON: Time 702720, Note Name: F5, Velocity: 73
Note OFF: Time 704640, Note Name: F5
Note OFF: Time 704640, Note Name: G4
Note OFF: Time 704640, Note Name: D5
Note ON: Time 704640, Note Name: F4, Velocity: 65
Note ON: Time 704640, Note Name: G3, Velocity: 65
Note ON: Time 704640, Note Name: D4, Velocity: 65
Note OFF: Time 706560, Note Name: D4
Note OFF: Time 706560, Note Name: G3
Note OFF: Time 706560, Note Name: F4
Note ON: Time 706560, Note Name: C3, Velocity: 39
Note ON: Time 706560, Note Name: C2, Velocity: 33
Note OFF: Time 707520, Note Name: C2
Note OFF: Time 707520, Note Name: C3
Note ON: Time 707520, Note Name: G#2, Velocity: 29
Note ON: Time 707520, Note Name: G#1, Velocity: 29
Note OFF: Time 708000, Note Name: G#1
Note OFF: Time 708000, Note Name: G#2
Note ON: Time 708000, Note Name: A2, Velocity: 35
Note ON: Time 708000, Note Name: A1, Velocity: 29
Note OFF: Time 708480, Note Name: A1
Note OFF: Time 708480, Note Name: A2
Note ON: Time 708480, Note Name: E2, Velocity: 39
Note OFF: Time 709440, Note Name: E2
Note ON: Time 709440, Note Name: F2, Velocity: 34
Note OFF: Time 710400, Note Name: F2
Note ON: Time 710400, Note Name: F3, Velocity: 41
Note ON: Time 710400, Note Name: G3, Velocity: 34
Note ON: Time 710400, Note Name: B3, Velocity: 41
Note ON: Time 710400, Note Name: D3, Velocity: 34
Note OFF: Time 711360, Note Name: D3
Note OFF: Time 711360, Note Name: F3
Note OFF: Time 711360, Note Name: G3
Note OFF: Time 711360, Note Name: B3
Note ON: Time 711360, Note Name: G3, Velocity: 38
Note ON: Time 711360, Note Name: C4, Velocity: 46
Note ON: Time 711360, Note Name: E3, Velocity: 38
Note OFF: Time 711840, Note Name: E3
Note OFF: Time 711840, Note Name: C4
Note OFF: Time 711840, Note Name: G3
Note ON: Time 711840, Note Name: D4, Velocity: 51
Note ON: Time 711840, Note Name: F3, Velocity: 43
Note ON: Time 711840, Note Name: C4, Velocity: 43
Note ON: Time 711840, Note Name: A3, Velocity: 43
Note OFF: Time 712320, Note Name: A3
Note OFF: Time 712320, Note Name: D4
Note OFF: Time 712320, Note Name: F3
Note OFF: Time 712320, Note Name: C4
Note ON: Time 712320, Note Name: G3, Velocity: 46
Note ON: Time 712320, Note Name: C4, Velocity: 46
Note ON: Time 712320, Note Name: E4, Velocity: 56
Note OFF: Time 713280, Note Name: E4
Note OFF: Time 713280, Note Name: C4
Note ON: Time 713280, Note Name: B3, Velocity: 41
Note ON: Time 713280, Note Name: D4, Velocity: 49
Note OFF: Time 714240, Note Name: D4
Note OFF: Time 714240, Note Name: B3
Note OFF: Time 714240, Note Name: G3
Note ON: Time 714240, Note Name: E5, Velocity: 50
Note ON: Time 714240, Note Name: C5, Velocity: 42
Note OFF: Time 715200, Note Name: C5
Note OFF: Time 715200, Note Name: E5
Note ON: Time 715200, Note Name: D5, Velocity: 48
Note ON: Time 715200, Note Name: G#4, Velocity: 40
Note ON: Time 715200, Note Name: B4, Velocity: 40
Note OFF: Time 715680, Note Name: B4
Note OFF: Time 715680, Note Name: G#4
Note OFF: Time 715680, Note Name: D5
Note ON: Time 715680, Note Name: A4, Velocity: 40
Note ON: Time 715680, Note Name: C5, Velocity: 48
Note OFF: Time 716160, Note Name: C5
Note OFF: Time 716160, Note Name: A4
Note ON: Time 716160, Note Name: E4, Velocity: 42
Note ON: Time 716160, Note Name: G#4, Velocity: 42
Note ON: Time 716160, Note Name: B4, Velocity: 50
Note OFF: Time 717120, Note Name: B4
Note OFF: Time 717120, Note Name: G#4
Note OFF: Time 717120, Note Name: E4
Note ON: Time 717120, Note Name: F4, Velocity: 40
Note ON: Time 717120, Note Name: A4, Velocity: 48
Note OFF: Time 718080, Note Name: A4
Note OFF: Time 718080, Note Name: F4
Note ON: Time 718080, Note Name: C4, Velocity: 34
Note ON: Time 718080, Note Name: E4, Velocity: 40
Note ON: Time 718080, Note Name: G3, Velocity: 34
Note OFF: Time 718560, Note Name: E4
Note OFF: Time 718560, Note Name: C4
Note ON: Time 718560, Note Name: F4, Velocity: 35
Note ON: Time 718560, Note Name: D4, Velocity: 29
Note OFF: Time 720000, Note Name: D4
Note OFF: Time 720000, Note Name: F4
Note OFF: Time 720000, Note Name: G3
Note ON: Time 720000, Note Name: G2, Velocity: 34
Note ON: Time 720000, Note Name: E3, Velocity: 40
Note ON: Time 720000, Note Name: C3, Velocity: 34
Note OFF: Time 720480, Note Name: C3
Note OFF: Time 720480, Note Name: E3
Note ON: Time 720480, Note Name: D3, Velocity: 29
Note ON: Time 720480, Note Name: F3, Velocity: 35
Note OFF: Time 723840, Note Name: F3
Note OFF: Time 723840, Note Name: D3
Note OFF: Time 723840, Note Name: G2
Note ON: Time 723840, Note Name: G1, Velocity: 34
Note ON: Time 723840, Note Name: C2, Velocity: 34
Note ON: Time 723840, Note Name: E2, Velocity: 40
Note OFF: Time 724320, Note Name: E2
Note OFF: Time 724320, Note Name: C2
Note ON: Time 724320, Note Name: D2, Velocity: 29
Note ON: Time 724320, Note Name: F2, Velocity: 35
Note OFF: Time 727680, Note Name: F2
Note OFF: Time 727680, Note Name: D2
Note OFF: Time 727680, Note Name: G1
Note ON: Time 727680, Note Name: C3, Velocity: 25
Note ON: Time 727680, Note Name: C2, Velocity: 25
Note OFF: Time 727800, Note Name: C2
Note OFF: Time 727800, Note Name: C3
Note ON: Time 727920, Note Name: G3, Velocity: 26
Note ON: Time 727920, Note Name: C3, Velocity: 22
Note OFF: Time 728040, Note Name: C3
Note OFF: Time 728040, Note Name: G3
Note ON: Time 728160, Note Name: G3, Velocity: 26
Note ON: Time 728160, Note Name: C3, Velocity: 22
Note OFF: Time 728280, Note Name: C3
Note OFF: Time 728280, Note Name: G3
Note ON: Time 728400, Note Name: G3, Velocity: 27
Note ON: Time 728400, Note Name: C3, Velocity: 22
Note OFF: Time 728520, Note Name: C3
Note OFF: Time 728520, Note Name: G3
Note ON: Time 728640, Note Name: C3, Velocity: 22
Note ON: Time 728640, Note Name: G3, Velocity: 27
Note OFF: Time 728760, Note Name: G3
Note OFF: Time 728760, Note Name: C3
Note ON: Time 728880, Note Name: G3, Velocity: 28
Note ON: Time 728880, Note Name: C3, Velocity: 23
Note OFF: Time 729000, Note Name: C3
Note OFF: Time 729000, Note Name: G3
Note ON: Time 729120, Note Name: G3, Velocity: 28
Note ON: Time 729120, Note Name: C3, Velocity: 23
Note OFF: Time 729240, Note Name: C3
Note OFF: Time 729240, Note Name: G3
Note ON: Time 729360, Note Name: G3, Velocity: 29
Note ON: Time 729360, Note Name: C3, Velocity: 24
Note OFF: Time 729480, Note Name: C3
Note OFF: Time 729480, Note Name: G3
Note ON: Time 729600, Note Name: C3, Velocity: 25
Note ON: Time 729600, Note Name: G3, Velocity: 30
Note OFF: Time 729720, Note Name: G3
Note OFF: Time 729720, Note Name: C3
Note ON: Time 729840, Note Name: C3, Velocity: 22
Note ON: Time 729840, Note Name: G3, Velocity: 27
Note OFF: Time 729960, Note Name: G3
Note OFF: Time 729960, Note Name: C3
Note ON: Time 730080, Note Name: C3, Velocity: 23
Note ON: Time 730080, Note Name: G3, Velocity: 28
Note OFF: Time 730200, Note Name: G3
Note OFF: Time 730200, Note Name: C3
Note ON: Time 730320, Note Name: G3, Velocity: 29
Note ON: Time 730320, Note Name: C3, Velocity: 24
Note OFF: Time 730440, Note Name: C3
Note OFF: Time 730440, Note Name: G3
Note ON: Time 730560, Note Name: G3, Velocity: 30
Note ON: Time 730560, Note Name: C3, Velocity: 25
Note OFF: Time 730680, Note Name: C3
Note OFF: Time 730680, Note Name: G3
Note ON: Time 730800, Note Name: C3, Velocity: 25
Note ON: Time 730800, Note Name: G3, Velocity: 30
Note OFF: Time 730920, Note Name: G3
Note OFF: Time 730920, Note Name: C3
Note ON: Time 731040, Note Name: A3, Velocity: 30
Note ON: Time 731040, Note Name: C3, Velocity: 25
Note OFF: Time 731160, Note Name: C3
Note OFF: Time 731160, Note Name: A3
Note ON: Time 731280, Note Name: C3, Velocity: 25
Note ON: Time 731280, Note Name: A3, Velocity: 30
Note OFF: Time 731400, Note Name: A3
Note OFF: Time 731400, Note Name: C3
Note ON: Time 731520, Note Name: B2, Velocity: 28
Note ON: Time 731520, Note Name: D3, Velocity: 28
Note ON: Time 731520, Note Name: G3, Velocity: 34
Note OFF: Time 731700, Note Name: G3
Note OFF: Time 731700, Note Name: D3
Note OFF: Time 731700, Note Name: B2
Note ON: Time 731760, Note Name: G3, Velocity: 34
Note ON: Time 731760, Note Name: B2, Velocity: 28
Note ON: Time 731760, Note Name: D3, Velocity: 28
Note OFF: Time 731940, Note Name: D3
Note OFF: Time 731940, Note Name: B2
Note OFF: Time 731940, Note Name: G3
Note ON: Time 732000, Note Name: B2, Velocity: 28
Note ON: Time 732000, Note Name: D3, Velocity: 28
Note ON: Time 732000, Note Name: G3, Velocity: 34
Note OFF: Time 732180, Note Name: G3
Note OFF: Time 732180, Note Name: D3
Note OFF: Time 732180, Note Name: B2
Note ON: Time 732240, Note Name: B2, Velocity: 28
Note ON: Time 732240, Note Name: D3, Velocity: 28
Note ON: Time 732240, Note Name: G3, Velocity: 35
Note OFF: Time 732420, Note Name: G3
Note OFF: Time 732420, Note Name: D3
Note OFF: Time 732420, Note Name: B2
Note ON: Time 732480, Note Name: A#2, Velocity: 34
Note ON: Time 732480, Note Name: C3, Velocity: 34
Note ON: Time 732480, Note Name: G3, Velocity: 42
Note OFF: Time 732660, Note Name: G3
Note OFF: Time 732660, Note Name: C3
Note OFF: Time 732660, Note Name: A#2
Note ON: Time 732720, Note Name: G3, Velocity: 42
Note ON: Time 732720, Note Name: A#2, Velocity: 34
Note ON: Time 732720, Note Name: C3, Velocity: 34
Note OFF: Time 732900, Note Name: C3
Note OFF: Time 732900, Note Name: A#2
Note OFF: Time 732900, Note Name: G3
Note ON: Time 732960, Note Name: G3, Velocity: 42
Note ON: Time 732960, Note Name: C3, Velocity: 35
Note ON: Time 732960, Note Name: A#2, Velocity: 35
Note OFF: Time 733140, Note Name: A#2
Note OFF: Time 733140, Note Name: C3
Note OFF: Time 733140, Note Name: G3
Note ON: Time 733200, Note Name: G3, Velocity: 43
Note ON: Time 733200, Note Name: A#2, Velocity: 35
Note ON: Time 733200, Note Name: C3, Velocity: 35
Note OFF: Time 733380, Note Name: C3
Note OFF: Time 733380, Note Name: A#2
Note OFF: Time 733380, Note Name: G3
Note ON: Time 733440, Note Name: A2, Velocity: 38
Note ON: Time 733440, Note Name: C3, Velocity: 38
Note ON: Time 733440, Note Name: F3, Velocity: 48
Note OFF: Time 733620, Note Name: F3
Note OFF: Time 733620, Note Name: C3
Note OFF: Time 733620, Note Name: A2
Note ON: Time 733680, Note Name: A2, Velocity: 38
Note ON: Time 733680, Note Name: C3, Velocity: 38
Note ON: Time 733680, Note Name: F3, Velocity: 48
Note OFF: Time 733860, Note Name: F3
Note OFF: Time 733860, Note Name: C3
Note OFF: Time 733860, Note Name: A2
Note ON: Time 733920, Note Name: A2, Velocity: 39
Note ON: Time 733920, Note Name: C3, Velocity: 39
Note ON: Time 733920, Note Name: F3, Velocity: 49
Note OFF: Time 734100, Note Name: F3
Note OFF: Time 734100, Note Name: C3
Note OFF: Time 734100, Note Name: A2
Note ON: Time 734160, Note Name: A2, Velocity: 39
Note ON: Time 734160, Note Name: F3, Velocity: 49
Note ON: Time 734160, Note Name: C3, Velocity: 39
Note OFF: Time 734340, Note Name: C3
Note OFF: Time 734340, Note Name: F3
Note OFF: Time 734340, Note Name: A2
Note ON: Time 734400, Note Name: G#2, Velocity: 62
Note ON: Time 734400, Note Name: C3, Velocity: 62
Note ON: Time 734400, Note Name: F3, Velocity: 62
Note OFF: Time 734580, Note Name: F3
Note OFF: Time 734580, Note Name: C3
Note OFF: Time 734580, Note Name: G#2
Note ON: Time 734640, Note Name: G#1, Velocity: 55
Note ON: Time 734640, Note Name: G#2, Velocity: 55
Note OFF: Time 734820, Note Name: G#2
Note OFF: Time 734820, Note Name: G#1
Note ON: Time 734880, Note Name: G#1, Velocity: 55
Note ON: Time 734880, Note Name: G#2, Velocity: 55
Note OFF: Time 735060, Note Name: G#2
Note OFF: Time 735060, Note Name: G#1
Note ON: Time 735120, Note Name: G#1, Velocity: 55
Note ON: Time 735120, Note Name: G#2, Velocity: 55
Note OFF: Time 735300, Note Name: G#2
Note OFF: Time 735300, Note Name: G#1
Note ON: Time 735360, Note Name: G2, Velocity: 56
Note ON: Time 735360, Note Name: G1, Velocity: 56
Note OFF: Time 735480, Note Name: G1
Note OFF: Time 735480, Note Name: G2
Note ON: Time 735480, Note Name: A1, Velocity: 57
Note OFF: Time 735600, Note Name: A1
Note ON: Time 735600, Note Name: B1, Velocity: 57
Note OFF: Time 735720, Note Name: B1
Note ON: Time 735720, Note Name: C2, Velocity: 58
Note OFF: Time 735840, Note Name: C2
Note ON: Time 735840, Note Name: D2, Velocity: 59
Note OFF: Time 735960, Note Name: D2
Note ON: Time 735960, Note Name: E2, Velocity: 59
Note OFF: Time 736080, Note Name: E2
Note ON: Time 736080, Note Name: F2, Velocity: 60
Note OFF: Time 736200, Note Name: F2
Note ON: Time 736200, Note Name: G2, Velocity: 62
Note OFF: Time 736320, Note Name: G2
Note ON: Time 736320, Note Name: A2, Velocity: 62
Note OFF: Time 736440, Note Name: A2
Note ON: Time 736440, Note Name: B2, Velocity: 63
Note OFF: Time 736560, Note Name: B2
Note ON: Time 736560, Note Name: C3, Velocity: 63
Note OFF: Time 736680, Note Name: C3
Note ON: Time 736680, Note Name: D3, Velocity: 64
Note OFF: Time 736800, Note Name: D3
Note ON: Time 736800, Note Name: E3, Velocity: 65
Note OFF: Time 736920, Note Name: E3
Note ON: Time 736920, Note Name: F3, Velocity: 66
Note OFF: Time 737040, Note Name: F3
Note ON: Time 737040, Note Name: G3, Velocity: 67
Note OFF: Time 737160, Note Name: G3
Note ON: Time 737160, Note Name: A3, Velocity: 68
Note OFF: Time 737280, Note Name: A3
Note ON: Time 737280, Note Name: F3, Velocity: 78
Note ON: Time 737280, Note Name: F2, Velocity: 66
Note OFF: Time 737520, Note Name: F2
Note OFF: Time 737520, Note Name: F3
Note ON: Time 737760, Note Name: G2, Velocity: 66
Note ON: Time 737760, Note Name: B2, Velocity: 66
Note ON: Time 737760, Note Name: D3, Velocity: 78
Note ON: Time 737760, Note Name: G3, Velocity: 78
Note OFF: Time 738000, Note Name: G3
Note OFF: Time 738000, Note Name: G2
Note OFF: Time 738000, Note Name: B2
Note OFF: Time 738000, Note Name: D3
Note ON: Time 739200, Note Name: C4, Velocity: 78
Note ON: Time 739200, Note Name: G3, Velocity: 78
Note ON: Time 739200, Note Name: C3, Velocity: 66
Note ON: Time 739200, Note Name: E3, Velocity: 66
Note OFF: Time 739440, Note Name: E3
Note OFF: Time 739440, Note Name: C4
Note OFF: Time 739440, Note Name: G3
Note OFF: Time 739440, Note Name: C3
Note ON: Time 740160, Note Name: B2, Velocity: 66
Note ON: Time 740160, Note Name: G2, Velocity: 66
Note ON: Time 740160, Note Name: D3, Velocity: 78
Note ON: Time 740160, Note Name: G3, Velocity: 78
Note OFF: Time 740400, Note Name: G3
Note OFF: Time 740400, Note Name: B2
Note OFF: Time 740400, Note Name: G2
Note OFF: Time 740400, Note Name: D3
Note ON: Time 741120, Note Name: C2, Velocity: 65
Note ON: Time 741120, Note Name: E2, Velocity: 65
Note ON: Time 741120, Note Name: G2, Velocity: 77
Note ON: Time 741120, Note Name: C3, Velocity: 77
Note OFF: Time 741360, Note Name: C3
Note OFF: Time 741360, Note Name: C2
Note OFF: Time 741360, Note Name: E2
Note OFF: Time 741360, Note Name: G2
Track 3: Pedal
Track 4: Beethoven Sonata No. 21 C major, Waldsteinsonate 1. Movement
Track 5: Copyright  2003 by Bernd Krueger
Track 6: http://www.piano-midi.de
Track 7: Edition: 2012-06-23
