Processing waldstein_3.mid...

Track 0: Beethoven Sonata No. 21 in C major
Track 1: Triller
Note ON: Time 51840, Note Name: A5, Velocity: 48
Note OFF: Time 51920, Note Name: A5
Note ON: Time 51920, Note Name: G5, Velocity: 35
Note OFF: Time 52000, Note Name: G5
Note ON: Time 52000, Note Name: A5, Velocity: 38
Note OFF: Time 52080, Note Name: A5
Note ON: Time 52080, Note Name: G5, Velocity: 35
Note OFF: Time 52160, Note Name: G5
Note ON: Time 52160, Note Name: A5, Velocity: 38
Note OFF: Time 52240, Note Name: A5
Note ON: Time 52240, Note Name: G5, Velocity: 36
Note OFF: Time 52320, Note Name: G5
Note ON: Time 52320, Note Name: A5, Velocity: 40
Note OFF: Time 52400, Note Name: A5
Note ON: Time 52400, Note Name: G5, Velocity: 36
Note OFF: Time 52480, Note Name: G5
Note ON: Time 52480, Note Name: A5, Velocity: 40
Note OFF: Time 52560, Note Name: A5
Note ON: Time 52560, Note Name: G5, Velocity: 36
Note OFF: Time 52640, Note Name: G5
Note ON: Time 52640, Note Name: A5, Velocity: 40
Note OFF: Time 52720, Note Name: A5
Note ON: Time 52720, Note Name: G5, Velocity: 36
Note OFF: Time 52800, Note Name: G5
Note ON: Time 52800, Note Name: A5, Velocity: 40
Note OFF: Time 52880, Note Name: A5
Note ON: Time 52880, Note Name: G5, Velocity: 37
Note OFF: Time 52960, Note Name: G5
Note ON: Time 52960, Note Name: A5, Velocity: 40
Note OFF: Time 53040, Note Name: A5
Note ON: Time 53040, Note Name: G5, Velocity: 36
Note OFF: Time 53120, Note Name: G5
Note ON: Time 53120, Note Name: A5, Velocity: 40
Note OFF: Time 53200, Note Name: A5
Note ON: Time 53200, Note Name: G5, Velocity: 36
Note OFF: Time 53280, Note Name: G5
Note ON: Time 53280, Note Name: A5, Velocity: 40
Note OFF: Time 53360, Note Name: A5
Note ON: Time 53360, Note Name: G5, Velocity: 35
Note OFF: Time 53440, Note Name: G5
Note ON: Time 53440, Note Name: A5, Velocity: 38
Note OFF: Time 53520, Note Name: A5
Note ON: Time 53520, Note Name: G5, Velocity: 33
Note OFF: Time 53600, Note Name: G5
Note ON: Time 53600, Note Name: A5, Velocity: 38
Note OFF: Time 53680, Note Name: A5
Note ON: Time 53680, Note Name: G5, Velocity: 34
Note OFF: Time 53760, Note Name: G5
Note ON: Time 53760, Note Name: A5, Velocity: 38
Note OFF: Time 53840, Note Name: A5
Note ON: Time 53840, Note Name: G5, Velocity: 34
Note OFF: Time 53920, Note Name: G5
Note ON: Time 53920, Note Name: A5, Velocity: 36
Note OFF: Time 54000, Note Name: A5
Note ON: Time 54000, Note Name: G5, Velocity: 33
Note OFF: Time 54080, Note Name: G5
Note ON: Time 54080, Note Name: A5, Velocity: 37
Note OFF: Time 54160, Note Name: A5
Note ON: Time 54160, Note Name: G5, Velocity: 33
Note OFF: Time 54240, Note Name: G5
Note ON: Time 54240, Note Name: A5, Velocity: 37
Note OFF: Time 54320, Note Name: A5
Note ON: Time 54320, Note Name: G5, Velocity: 33
Note OFF: Time 54400, Note Name: G5
Note ON: Time 54400, Note Name: A5, Velocity: 38
Note OFF: Time 54480, Note Name: A5
Note ON: Time 54480, Note Name: G5, Velocity: 32
Note OFF: Time 54560, Note Name: G5
Note ON: Time 54560, Note Name: A5, Velocity: 37
Note OFF: Time 54640, Note Name: A5
Note ON: Time 54640, Note Name: G5, Velocity: 32
Note OFF: Time 54720, Note Name: G5
Note ON: Time 54720, Note Name: A5, Velocity: 38
Note OFF: Time 54800, Note Name: A5
Note ON: Time 54800, Note Name: G5, Velocity: 32
Note OFF: Time 54880, Note Name: G5
Note ON: Time 54880, Note Name: A5, Velocity: 37
Note OFF: Time 54960, Note Name: A5
Note ON: Time 54960, Note Name: G5, Velocity: 32
Note OFF: Time 55040, Note Name: G5
Note ON: Time 55040, Note Name: A5, Velocity: 36
Note OFF: Time 55120, Note Name: A5
Note ON: Time 55120, Note Name: G5, Velocity: 32
Note OFF: Time 55200, Note Name: G5
Note ON: Time 55200, Note Name: A5, Velocity: 36
Note OFF: Time 55280, Note Name: A5
Note ON: Time 55280, Note Name: G5, Velocity: 34
Note OFF: Time 55360, Note Name: G5
Note ON: Time 55360, Note Name: A5, Velocity: 37
Note OFF: Time 55440, Note Name: A5
Note ON: Time 55440, Note Name: G5, Velocity: 33
Note OFF: Time 55520, Note Name: G5
Note ON: Time 55520, Note Name: A5, Velocity: 36
Note OFF: Time 55600, Note Name: A5
Note ON: Time 55600, Note Name: G5, Velocity: 32
Note OFF: Time 55680, Note Name: G5
Note ON: Time 55680, Note Name: A5, Velocity: 36
Note OFF: Time 55760, Note Name: A5
Note ON: Time 55760, Note Name: G5, Velocity: 32
Note OFF: Time 55840, Note Name: G5
Note ON: Time 55840, Note Name: A5, Velocity: 37
Note OFF: Time 55920, Note Name: A5
Note ON: Time 55920, Note Name: G5, Velocity: 33
Note OFF: Time 56000, Note Name: G5
Note ON: Time 56000, Note Name: A5, Velocity: 38
Note OFF: Time 56080, Note Name: A5
Note ON: Time 56080, Note Name: G5, Velocity: 33
Note OFF: Time 56160, Note Name: G5
Note ON: Time 56160, Note Name: A5, Velocity: 39
Note OFF: Time 56240, Note Name: A5
Note ON: Time 56240, Note Name: G5, Velocity: 35
Note OFF: Time 56320, Note Name: G5
Note ON: Time 56320, Note Name: A5, Velocity: 40
Note OFF: Time 56400, Note Name: A5
Note ON: Time 56400, Note Name: G5, Velocity: 36
Note OFF: Time 56480, Note Name: G5
Note ON: Time 56480, Note Name: A5, Velocity: 40
Note OFF: Time 56560, Note Name: A5
Note ON: Time 56560, Note Name: G5, Velocity: 36
Note OFF: Time 56640, Note Name: G5
Note ON: Time 56640, Note Name: A5, Velocity: 40
Note OFF: Time 56720, Note Name: A5
Note ON: Time 56720, Note Name: G5, Velocity: 37
Note OFF: Time 56800, Note Name: G5
Note ON: Time 56800, Note Name: A5, Velocity: 40
Note OFF: Time 56880, Note Name: A5
Note ON: Time 56880, Note Name: G5, Velocity: 36
Note OFF: Time 56960, Note Name: G5
Note ON: Time 56960, Note Name: A5, Velocity: 40
Note OFF: Time 57040, Note Name: A5
Note ON: Time 57040, Note Name: G5, Velocity: 36
Note OFF: Time 57120, Note Name: G5
Note ON: Time 57120, Note Name: A5, Velocity: 39
Note OFF: Time 57200, Note Name: A5
Note ON: Time 57200, Note Name: G5, Velocity: 36
Note OFF: Time 57280, Note Name: G5
Note ON: Time 57280, Note Name: A5, Velocity: 38
Note OFF: Time 57360, Note Name: A5
Note ON: Time 57360, Note Name: G5, Velocity: 32
Note OFF: Time 57440, Note Name: G5
Note ON: Time 57440, Note Name: A5, Velocity: 37
Note OFF: Time 57520, Note Name: A5
Note ON: Time 57520, Note Name: G5, Velocity: 33
Note OFF: Time 57600, Note Name: G5
Note ON: Time 57600, Note Name: A5, Velocity: 39
Note OFF: Time 57680, Note Name: A5
Note ON: Time 57680, Note Name: G5, Velocity: 32
Note OFF: Time 57760, Note Name: G5
Note ON: Time 57760, Note Name: A5, Velocity: 36
Note OFF: Time 57840, Note Name: A5
Note ON: Time 57840, Note Name: G5, Velocity: 31
Note OFF: Time 57920, Note Name: G5
Note ON: Time 57920, Note Name: A5, Velocity: 36
Note OFF: Time 58000, Note Name: A5
Note ON: Time 58000, Note Name: G5, Velocity: 30
Note OFF: Time 58080, Note Name: G5
Note ON: Time 58080, Note Name: A5, Velocity: 36
Note OFF: Time 58160, Note Name: A5
Note ON: Time 58160, Note Name: G5, Velocity: 31
Note OFF: Time 58240, Note Name: G5
Note ON: Time 58240, Note Name: A5, Velocity: 36
Note OFF: Time 58320, Note Name: A5
Note ON: Time 58320, Note Name: G5, Velocity: 34
Note OFF: Time 58400, Note Name: G5
Note ON: Time 58400, Note Name: F#5, Velocity: 36
Note OFF: Time 58480, Note Name: F#5
Note ON: Time 58480, Note Name: G5, Velocity: 31
Note OFF: Time 58560, Note Name: G5
Note ON: Time 160320, Note Name: A5, Velocity: 48
Note OFF: Time 160400, Note Name: A5
Note ON: Time 160400, Note Name: G5, Velocity: 35
Note OFF: Time 160480, Note Name: G5
Note ON: Time 160480, Note Name: A5, Velocity: 38
Note OFF: Time 160560, Note Name: A5
Note ON: Time 160560, Note Name: G5, Velocity: 35
Note OFF: Time 160640, Note Name: G5
Note ON: Time 160640, Note Name: A5, Velocity: 38
Note OFF: Time 160720, Note Name: A5
Note ON: Time 160720, Note Name: G5, Velocity: 36
Note OFF: Time 160800, Note Name: G5
Note ON: Time 160800, Note Name: A5, Velocity: 40
Note OFF: Time 160880, Note Name: A5
Note ON: Time 160880, Note Name: G5, Velocity: 36
Note OFF: Time 160960, Note Name: G5
Note ON: Time 160960, Note Name: A5, Velocity: 40
Note OFF: Time 161040, Note Name: A5
Note ON: Time 161040, Note Name: G5, Velocity: 36
Note OFF: Time 161120, Note Name: G5
Note ON: Time 161120, Note Name: A5, Velocity: 40
Note OFF: Time 161200, Note Name: A5
Note ON: Time 161200, Note Name: G5, Velocity: 36
Note OFF: Time 161280, Note Name: G5
Note ON: Time 161280, Note Name: A5, Velocity: 40
Note OFF: Time 161360, Note Name: A5
Note ON: Time 161360, Note Name: G5, Velocity: 37
Note OFF: Time 161440, Note Name: G5
Note ON: Time 161440, Note Name: A5, Velocity: 40
Note OFF: Time 161520, Note Name: A5
Note ON: Time 161520, Note Name: G5, Velocity: 36
Note OFF: Time 161600, Note Name: G5
Note ON: Time 161600, Note Name: A5, Velocity: 40
Note OFF: Time 161680, Note Name: A5
Note ON: Time 161680, Note Name: G5, Velocity: 36
Note OFF: Time 161760, Note Name: G5
Note ON: Time 161760, Note Name: A5, Velocity: 40
Note OFF: Time 161840, Note Name: A5
Note ON: Time 161840, Note Name: G5, Velocity: 35
Note OFF: Time 161920, Note Name: G5
Note ON: Time 161920, Note Name: A5, Velocity: 38
Note OFF: Time 162000, Note Name: A5
Note ON: Time 162000, Note Name: G5, Velocity: 33
Note OFF: Time 162080, Note Name: G5
Note ON: Time 162080, Note Name: A5, Velocity: 38
Note OFF: Time 162160, Note Name: A5
Note ON: Time 162160, Note Name: G5, Velocity: 34
Note OFF: Time 162240, Note Name: G5
Note ON: Time 162240, Note Name: A5, Velocity: 38
Note OFF: Time 162320, Note Name: A5
Note ON: Time 162320, Note Name: G5, Velocity: 34
Note OFF: Time 162400, Note Name: G5
Note ON: Time 162400, Note Name: A5, Velocity: 36
Note OFF: Time 162480, Note Name: A5
Note ON: Time 162480, Note Name: G5, Velocity: 33
Note OFF: Time 162560, Note Name: G5
Note ON: Time 162560, Note Name: A5, Velocity: 37
Note OFF: Time 162640, Note Name: A5
Note ON: Time 162640, Note Name: G5, Velocity: 33
Note OFF: Time 162720, Note Name: G5
Note ON: Time 162720, Note Name: A5, Velocity: 37
Note OFF: Time 162800, Note Name: A5
Note ON: Time 162800, Note Name: G5, Velocity: 33
Note OFF: Time 162880, Note Name: G5
Note ON: Time 162880, Note Name: A5, Velocity: 38
Note OFF: Time 162960, Note Name: A5
Note ON: Time 162960, Note Name: G5, Velocity: 32
Note OFF: Time 163040, Note Name: G5
Note ON: Time 163040, Note Name: A5, Velocity: 37
Note OFF: Time 163120, Note Name: A5
Note ON: Time 163120, Note Name: G5, Velocity: 32
Note OFF: Time 163200, Note Name: G5
Note ON: Time 163200, Note Name: A5, Velocity: 38
Note OFF: Time 163280, Note Name: A5
Note ON: Time 163280, Note Name: G5, Velocity: 32
Note OFF: Time 163360, Note Name: G5
Note ON: Time 163360, Note Name: A5, Velocity: 37
Note OFF: Time 163440, Note Name: A5
Note ON: Time 163440, Note Name: G5, Velocity: 32
Note OFF: Time 163520, Note Name: G5
Note ON: Time 163520, Note Name: A5, Velocity: 36
Note OFF: Time 163600, Note Name: A5
Note ON: Time 163600, Note Name: G5, Velocity: 32
Note OFF: Time 163680, Note Name: G5
Note ON: Time 163680, Note Name: A5, Velocity: 36
Note OFF: Time 163760, Note Name: A5
Note ON: Time 163760, Note Name: G5, Velocity: 34
Note OFF: Time 163840, Note Name: G5
Note ON: Time 163840, Note Name: A5, Velocity: 37
Note OFF: Time 163920, Note Name: A5
Note ON: Time 163920, Note Name: G5, Velocity: 33
Note OFF: Time 164000, Note Name: G5
Note ON: Time 164000, Note Name: A5, Velocity: 36
Note OFF: Time 164080, Note Name: A5
Note ON: Time 164080, Note Name: G5, Velocity: 32
Note OFF: Time 164160, Note Name: G5
Note ON: Time 164160, Note Name: A5, Velocity: 36
Note OFF: Time 164240, Note Name: A5
Note ON: Time 164240, Note Name: G5, Velocity: 32
Note OFF: Time 164320, Note Name: G5
Note ON: Time 164320, Note Name: A5, Velocity: 37
Note OFF: Time 164400, Note Name: A5
Note ON: Time 164400, Note Name: G5, Velocity: 33
Note OFF: Time 164480, Note Name: G5
Note ON: Time 164480, Note Name: A5, Velocity: 38
Note OFF: Time 164560, Note Name: A5
Note ON: Time 164560, Note Name: G5, Velocity: 33
Note OFF: Time 164640, Note Name: G5
Note ON: Time 164640, Note Name: A5, Velocity: 39
Note OFF: Time 164720, Note Name: A5
Note ON: Time 164720, Note Name: G5, Velocity: 35
Note OFF: Time 164800, Note Name: G5
Note ON: Time 164800, Note Name: A5, Velocity: 40
Note OFF: Time 164880, Note Name: A5
Note ON: Time 164880, Note Name: G5, Velocity: 36
Note OFF: Time 164960, Note Name: G5
Note ON: Time 164960, Note Name: A5, Velocity: 40
Note OFF: Time 165040, Note Name: A5
Note ON: Time 165040, Note Name: G5, Velocity: 36
Note OFF: Time 165120, Note Name: G5
Note ON: Time 165120, Note Name: A5, Velocity: 40
Note OFF: Time 165200, Note Name: A5
Note ON: Time 165200, Note Name: G5, Velocity: 37
Note OFF: Time 165280, Note Name: G5
Note ON: Time 165280, Note Name: A5, Velocity: 40
Note OFF: Time 165360, Note Name: A5
Note ON: Time 165360, Note Name: G5, Velocity: 36
Note OFF: Time 165440, Note Name: G5
Note ON: Time 165440, Note Name: A5, Velocity: 40
Note OFF: Time 165520, Note Name: A5
Note ON: Time 165520, Note Name: G5, Velocity: 36
Note OFF: Time 165600, Note Name: G5
Note ON: Time 165600, Note Name: A5, Velocity: 39
Note OFF: Time 165680, Note Name: A5
Note ON: Time 165680, Note Name: G5, Velocity: 36
Note OFF: Time 165760, Note Name: G5
Note ON: Time 165760, Note Name: A5, Velocity: 38
Note OFF: Time 165840, Note Name: A5
Note ON: Time 165840, Note Name: G5, Velocity: 32
Note OFF: Time 165920, Note Name: G5
Note ON: Time 165920, Note Name: A5, Velocity: 37
Note OFF: Time 166000, Note Name: A5
Note ON: Time 166000, Note Name: G5, Velocity: 33
Note OFF: Time 166080, Note Name: G5
Note ON: Time 166080, Note Name: A5, Velocity: 39
Note OFF: Time 166160, Note Name: A5
Note ON: Time 166160, Note Name: G5, Velocity: 32
Note OFF: Time 166240, Note Name: G5
Note ON: Time 166240, Note Name: A5, Velocity: 36
Note OFF: Time 166320, Note Name: A5
Note ON: Time 166320, Note Name: G5, Velocity: 31
Note OFF: Time 166400, Note Name: G5
Note ON: Time 166400, Note Name: A5, Velocity: 36
Note OFF: Time 166480, Note Name: A5
Note ON: Time 166480, Note Name: G5, Velocity: 30
Note OFF: Time 166560, Note Name: G5
Note ON: Time 166560, Note Name: A5, Velocity: 36
Note OFF: Time 166640, Note Name: A5
Note ON: Time 166640, Note Name: G5, Velocity: 31
Note OFF: Time 166720, Note Name: G5
Note ON: Time 166720, Note Name: A5, Velocity: 36
Note OFF: Time 166800, Note Name: A5
Note ON: Time 166800, Note Name: G5, Velocity: 34
Note OFF: Time 166880, Note Name: G5
Note ON: Time 166880, Note Name: F#5, Velocity: 36
Note OFF: Time 166960, Note Name: F#5
Note ON: Time 166960, Note Name: G5, Velocity: 31
Note OFF: Time 167040, Note Name: G5
Note ON: Time 322560, Note Name: A5, Velocity: 48
Note OFF: Time 322640, Note Name: A5
Note ON: Time 322640, Note Name: G5, Velocity: 35
Note OFF: Time 322720, Note Name: G5
Note ON: Time 322720, Note Name: A5, Velocity: 38
Note OFF: Time 322800, Note Name: A5
Note ON: Time 322800, Note Name: G5, Velocity: 35
Note OFF: Time 322880, Note Name: G5
Note ON: Time 322880, Note Name: A5, Velocity: 38
Note OFF: Time 322960, Note Name: A5
Note ON: Time 322960, Note Name: G5, Velocity: 36
Note OFF: Time 323040, Note Name: G5
Note ON: Time 323040, Note Name: A5, Velocity: 40
Note OFF: Time 323120, Note Name: A5
Note ON: Time 323120, Note Name: G5, Velocity: 36
Note OFF: Time 323200, Note Name: G5
Note ON: Time 323200, Note Name: A5, Velocity: 40
Note OFF: Time 323280, Note Name: A5
Note ON: Time 323280, Note Name: G5, Velocity: 36
Note OFF: Time 323360, Note Name: G5
Note ON: Time 323360, Note Name: A5, Velocity: 40
Note OFF: Time 323440, Note Name: A5
Note ON: Time 323440, Note Name: G5, Velocity: 36
Note OFF: Time 323520, Note Name: G5
Note ON: Time 323520, Note Name: A5, Velocity: 40
Note OFF: Time 323600, Note Name: A5
Note ON: Time 323600, Note Name: G5, Velocity: 37
Note OFF: Time 323680, Note Name: G5
Note ON: Time 323680, Note Name: A5, Velocity: 40
Note OFF: Time 323760, Note Name: A5
Note ON: Time 323760, Note Name: G5, Velocity: 36
Note OFF: Time 323840, Note Name: G5
Note ON: Time 323840, Note Name: A5, Velocity: 40
Note OFF: Time 323920, Note Name: A5
Note ON: Time 323920, Note Name: G5, Velocity: 36
Note OFF: Time 324000, Note Name: G5
Note ON: Time 324000, Note Name: A5, Velocity: 40
Note OFF: Time 324080, Note Name: A5
Note ON: Time 324080, Note Name: G5, Velocity: 35
Note OFF: Time 324160, Note Name: G5
Note ON: Time 324160, Note Name: A5, Velocity: 38
Note OFF: Time 324240, Note Name: A5
Note ON: Time 324240, Note Name: G5, Velocity: 33
Note OFF: Time 324320, Note Name: G5
Note ON: Time 324320, Note Name: A5, Velocity: 38
Note OFF: Time 324400, Note Name: A5
Note ON: Time 324400, Note Name: G5, Velocity: 34
Note OFF: Time 324480, Note Name: G5
Note ON: Time 324480, Note Name: A5, Velocity: 38
Note OFF: Time 324560, Note Name: A5
Note ON: Time 324560, Note Name: G5, Velocity: 34
Note OFF: Time 324640, Note Name: G5
Note ON: Time 324640, Note Name: A5, Velocity: 36
Note OFF: Time 324720, Note Name: A5
Note ON: Time 324720, Note Name: G5, Velocity: 33
Note OFF: Time 324800, Note Name: G5
Note ON: Time 324800, Note Name: A5, Velocity: 37
Note OFF: Time 324880, Note Name: A5
Note ON: Time 324880, Note Name: G5, Velocity: 33
Note OFF: Time 324960, Note Name: G5
Note ON: Time 324960, Note Name: A5, Velocity: 37
Note OFF: Time 325040, Note Name: A5
Note ON: Time 325040, Note Name: G5, Velocity: 33
Note OFF: Time 325120, Note Name: G5
Note ON: Time 325120, Note Name: A5, Velocity: 38
Note OFF: Time 325200, Note Name: A5
Note ON: Time 325200, Note Name: G5, Velocity: 32
Note OFF: Time 325280, Note Name: G5
Note ON: Time 325280, Note Name: A5, Velocity: 37
Note OFF: Time 325360, Note Name: A5
Note ON: Time 325360, Note Name: G5, Velocity: 32
Note OFF: Time 325440, Note Name: G5
Note ON: Time 325440, Note Name: A5, Velocity: 38
Note OFF: Time 325520, Note Name: A5
Note ON: Time 325520, Note Name: G5, Velocity: 32
Note OFF: Time 325600, Note Name: G5
Note ON: Time 325600, Note Name: A5, Velocity: 37
Note OFF: Time 325680, Note Name: A5
Note ON: Time 325680, Note Name: G5, Velocity: 32
Note OFF: Time 325760, Note Name: G5
Note ON: Time 325760, Note Name: A5, Velocity: 36
Note OFF: Time 325840, Note Name: A5
Note ON: Time 325840, Note Name: G5, Velocity: 32
Note OFF: Time 325920, Note Name: G5
Note ON: Time 325920, Note Name: A5, Velocity: 36
Note OFF: Time 326000, Note Name: A5
Note ON: Time 326000, Note Name: G5, Velocity: 34
Note OFF: Time 326080, Note Name: G5
Note ON: Time 326080, Note Name: A5, Velocity: 37
Note OFF: Time 326160, Note Name: A5
Note ON: Time 326160, Note Name: G5, Velocity: 33
Note OFF: Time 326240, Note Name: G5
Note ON: Time 326240, Note Name: A5, Velocity: 36
Note OFF: Time 326320, Note Name: A5
Note ON: Time 326320, Note Name: G5, Velocity: 32
Note OFF: Time 326400, Note Name: G5
Note ON: Time 326400, Note Name: A5, Velocity: 36
Note OFF: Time 326480, Note Name: A5
Note ON: Time 326480, Note Name: G5, Velocity: 32
Note OFF: Time 326560, Note Name: G5
Note ON: Time 326560, Note Name: A5, Velocity: 37
Note OFF: Time 326640, Note Name: A5
Note ON: Time 326640, Note Name: G5, Velocity: 33
Note OFF: Time 326720, Note Name: G5
Note ON: Time 326720, Note Name: A5, Velocity: 38
Note OFF: Time 326800, Note Name: A5
Note ON: Time 326800, Note Name: G5, Velocity: 33
Note OFF: Time 326880, Note Name: G5
Note ON: Time 326880, Note Name: A5, Velocity: 39
Note OFF: Time 326960, Note Name: A5
Note ON: Time 326960, Note Name: G5, Velocity: 35
Note OFF: Time 327040, Note Name: G5
Note ON: Time 327040, Note Name: A5, Velocity: 40
Note OFF: Time 327120, Note Name: A5
Note ON: Time 327120, Note Name: G5, Velocity: 36
Note OFF: Time 327200, Note Name: G5
Note ON: Time 327200, Note Name: A5, Velocity: 40
Note OFF: Time 327280, Note Name: A5
Note ON: Time 327280, Note Name: G5, Velocity: 36
Note OFF: Time 327360, Note Name: G5
Note ON: Time 327360, Note Name: A5, Velocity: 40
Note OFF: Time 327440, Note Name: A5
Note ON: Time 327440, Note Name: G5, Velocity: 37
Note OFF: Time 327520, Note Name: G5
Note ON: Time 327520, Note Name: A5, Velocity: 40
Note OFF: Time 327600, Note Name: A5
Note ON: Time 327600, Note Name: G5, Velocity: 36
Note OFF: Time 327680, Note Name: G5
Note ON: Time 327680, Note Name: A5, Velocity: 40
Note OFF: Time 327760, Note Name: A5
Note ON: Time 327760, Note Name: G5, Velocity: 36
Note OFF: Time 327840, Note Name: G5
Note ON: Time 327840, Note Name: A5, Velocity: 39
Note OFF: Time 327920, Note Name: A5
Note ON: Time 327920, Note Name: G5, Velocity: 36
Note OFF: Time 328000, Note Name: G5
Note ON: Time 328000, Note Name: A5, Velocity: 38
Note OFF: Time 328080, Note Name: A5
Note ON: Time 328080, Note Name: G5, Velocity: 32
Note OFF: Time 328160, Note Name: G5
Note ON: Time 328160, Note Name: A5, Velocity: 37
Note OFF: Time 328240, Note Name: A5
Note ON: Time 328240, Note Name: G5, Velocity: 33
Note OFF: Time 328320, Note Name: G5
Note ON: Time 328320, Note Name: A5, Velocity: 39
Note OFF: Time 328400, Note Name: A5
Note ON: Time 328400, Note Name: G5, Velocity: 32
Note OFF: Time 328480, Note Name: G5
Note ON: Time 328480, Note Name: A5, Velocity: 36
Note OFF: Time 328560, Note Name: A5
Note ON: Time 328560, Note Name: G5, Velocity: 31
Note OFF: Time 328640, Note Name: G5
Note ON: Time 328640, Note Name: A5, Velocity: 36
Note OFF: Time 328720, Note Name: A5
Note ON: Time 328720, Note Name: G5, Velocity: 30
Note OFF: Time 328800, Note Name: G5
Note ON: Time 328800, Note Name: A5, Velocity: 36
Note OFF: Time 328880, Note Name: A5
Note ON: Time 328880, Note Name: G5, Velocity: 31
Note OFF: Time 328960, Note Name: G5
Note ON: Time 328960, Note Name: A5, Velocity: 36
Note OFF: Time 329040, Note Name: A5
Note ON: Time 329040, Note Name: G5, Velocity: 34
Note OFF: Time 329120, Note Name: G5
Note ON: Time 329120, Note Name: F#5, Velocity: 36
Note OFF: Time 329200, Note Name: F#5
Note ON: Time 329200, Note Name: G5, Velocity: 31
Note OFF: Time 329280, Note Name: G5
Note ON: Time 456960, Note Name: G5, Velocity: 54
Note OFF: Time 457040, Note Name: G5
Note ON: Time 457040, Note Name: A5, Velocity: 35
Note OFF: Time 457120, Note Name: A5
Note ON: Time 457120, Note Name: G5, Velocity: 44
Note OFF: Time 457200, Note Name: G5
Note ON: Time 457200, Note Name: A5, Velocity: 38
Note OFF: Time 457280, Note Name: A5
Note ON: Time 457280, Note Name: G5, Velocity: 44
Note OFF: Time 457360, Note Name: G5
Note ON: Time 457360, Note Name: A5, Velocity: 37
Note OFF: Time 457440, Note Name: A5
Note ON: Time 457440, Note Name: G5, Velocity: 41
Note OFF: Time 457520, Note Name: G5
Note ON: Time 457520, Note Name: A5, Velocity: 36
Note OFF: Time 457600, Note Name: A5
Note ON: Time 457600, Note Name: G5, Velocity: 41
Note OFF: Time 457680, Note Name: G5
Note ON: Time 457680, Note Name: A5, Velocity: 37
Note OFF: Time 457760, Note Name: A5
Note ON: Time 457760, Note Name: G5, Velocity: 41
Note OFF: Time 457840, Note Name: G5
Note ON: Time 457840, Note Name: A5, Velocity: 35
Note OFF: Time 457920, Note Name: A5
Note ON: Time 457920, Note Name: G5, Velocity: 41
Note OFF: Time 458000, Note Name: G5
Note ON: Time 458000, Note Name: A5, Velocity: 37
Note OFF: Time 458080, Note Name: A5
Note ON: Time 458080, Note Name: G5, Velocity: 41
Note OFF: Time 458160, Note Name: G5
Note ON: Time 458160, Note Name: A5, Velocity: 36
Note OFF: Time 458240, Note Name: A5
Note ON: Time 458240, Note Name: G5, Velocity: 41
Note OFF: Time 458320, Note Name: G5
Note ON: Time 458320, Note Name: A5, Velocity: 36
Note OFF: Time 458400, Note Name: A5
Note ON: Time 458400, Note Name: G5, Velocity: 41
Note OFF: Time 458480, Note Name: G5
Note ON: Time 458480, Note Name: A5, Velocity: 37
Note OFF: Time 458560, Note Name: A5
Note ON: Time 458560, Note Name: G5, Velocity: 41
Note OFF: Time 458640, Note Name: G5
Note ON: Time 458640, Note Name: A5, Velocity: 37
Note OFF: Time 458720, Note Name: A5
Note ON: Time 458720, Note Name: G5, Velocity: 41
Note OFF: Time 458800, Note Name: G5
Note ON: Time 458800, Note Name: A5, Velocity: 36
Note OFF: Time 458880, Note Name: A5
Note ON: Time 458880, Note Name: G5, Velocity: 41
Note OFF: Time 458960, Note Name: G5
Note ON: Time 458960, Note Name: A5, Velocity: 36
Note OFF: Time 459040, Note Name: A5
Note ON: Time 459040, Note Name: G5, Velocity: 41
Note OFF: Time 459120, Note Name: G5
Note ON: Time 459120, Note Name: A5, Velocity: 37
Note OFF: Time 459200, Note Name: A5
Note ON: Time 459200, Note Name: G5, Velocity: 41
Note OFF: Time 459280, Note Name: G5
Note ON: Time 459280, Note Name: A5, Velocity: 37
Note OFF: Time 459360, Note Name: A5
Note ON: Time 459360, Note Name: G5, Velocity: 41
Note OFF: Time 459440, Note Name: G5
Note ON: Time 459440, Note Name: A5, Velocity: 36
Note OFF: Time 459520, Note Name: A5
Note ON: Time 459520, Note Name: G5, Velocity: 41
Note OFF: Time 459600, Note Name: G5
Note ON: Time 459600, Note Name: A5, Velocity: 37
Note OFF: Time 459680, Note Name: A5
Note ON: Time 459680, Note Name: G5, Velocity: 41
Note OFF: Time 459760, Note Name: G5
Note ON: Time 459760, Note Name: A5, Velocity: 36
Note OFF: Time 459840, Note Name: A5
Note ON: Time 459840, Note Name: G5, Velocity: 40
Note OFF: Time 459920, Note Name: G5
Note ON: Time 459920, Note Name: A5, Velocity: 36
Note OFF: Time 460000, Note Name: A5
Note ON: Time 460000, Note Name: G5, Velocity: 39
Note OFF: Time 460080, Note Name: G5
Note ON: Time 460080, Note Name: A5, Velocity: 35
Note OFF: Time 460160, Note Name: A5
Note ON: Time 460160, Note Name: G5, Velocity: 39
Note OFF: Time 460240, Note Name: G5
Note ON: Time 460240, Note Name: A5, Velocity: 35
Note OFF: Time 460320, Note Name: A5
Note ON: Time 460320, Note Name: G5, Velocity: 39
Note OFF: Time 460400, Note Name: G5
Note ON: Time 460400, Note Name: A5, Velocity: 35
Note OFF: Time 460480, Note Name: A5
Note ON: Time 460480, Note Name: G5, Velocity: 39
Note OFF: Time 460560, Note Name: G5
Note ON: Time 460560, Note Name: A5, Velocity: 35
Note OFF: Time 460640, Note Name: A5
Note ON: Time 460640, Note Name: G5, Velocity: 39
Note OFF: Time 460720, Note Name: G5
Note ON: Time 460720, Note Name: A5, Velocity: 35
Note OFF: Time 460800, Note Name: A5
Note ON: Time 460800, Note Name: G5, Velocity: 36
Note OFF: Time 460880, Note Name: G5
Note ON: Time 460880, Note Name: A5, Velocity: 32
Note OFF: Time 460960, Note Name: A5
Note ON: Time 460960, Note Name: G5, Velocity: 35
Note OFF: Time 461040, Note Name: G5
Note ON: Time 461040, Note Name: A5, Velocity: 31
Note OFF: Time 461120, Note Name: A5
Note ON: Time 461120, Note Name: G5, Velocity: 35
Note OFF: Time 461200, Note Name: G5
Note ON: Time 461200, Note Name: A5, Velocity: 31
Note OFF: Time 461280, Note Name: A5
Note ON: Time 461280, Note Name: G5, Velocity: 35
Note OFF: Time 461360, Note Name: G5
Note ON: Time 461360, Note Name: A5, Velocity: 31
Note OFF: Time 461440, Note Name: A5
Note ON: Time 461440, Note Name: G5, Velocity: 35
Note OFF: Time 461520, Note Name: G5
Note ON: Time 461520, Note Name: A5, Velocity: 31
Note OFF: Time 461600, Note Name: A5
Note ON: Time 461600, Note Name: G5, Velocity: 35
Note OFF: Time 461680, Note Name: G5
Note ON: Time 461680, Note Name: A5, Velocity: 31
Note OFF: Time 461760, Note Name: A5
Note ON: Time 461760, Note Name: G5, Velocity: 36
Note OFF: Time 461840, Note Name: G5
Note ON: Time 461840, Note Name: A5, Velocity: 32
Note OFF: Time 461920, Note Name: A5
Note ON: Time 461920, Note Name: G5, Velocity: 35
Note OFF: Time 462000, Note Name: G5
Note ON: Time 462000, Note Name: A5, Velocity: 31
Note OFF: Time 462080, Note Name: A5
Note ON: Time 462080, Note Name: G5, Velocity: 35
Note OFF: Time 462160, Note Name: G5
Note ON: Time 462160, Note Name: A5, Velocity: 31
Note OFF: Time 462240, Note Name: A5
Note ON: Time 462240, Note Name: G5, Velocity: 35
Note OFF: Time 462320, Note Name: G5
Note ON: Time 462320, Note Name: A5, Velocity: 31
Note OFF: Time 462400, Note Name: A5
Note ON: Time 462400, Note Name: G5, Velocity: 35
Note OFF: Time 462480, Note Name: G5
Note ON: Time 462480, Note Name: A5, Velocity: 31
Note OFF: Time 462560, Note Name: A5
Note ON: Time 462560, Note Name: G5, Velocity: 35
Note OFF: Time 462640, Note Name: G5
Note ON: Time 462640, Note Name: A5, Velocity: 31
Note OFF: Time 462720, Note Name: A5
Note ON: Time 462720, Note Name: G5, Velocity: 36
Note OFF: Time 462800, Note Name: G5
Note ON: Time 462800, Note Name: A5, Velocity: 32
Note OFF: Time 462880, Note Name: A5
Note ON: Time 462880, Note Name: G5, Velocity: 35
Note OFF: Time 462960, Note Name: G5
Note ON: Time 462960, Note Name: A5, Velocity: 32
Note OFF: Time 463040, Note Name: A5
Note ON: Time 463040, Note Name: G5, Velocity: 36
Note OFF: Time 463120, Note Name: G5
Note ON: Time 463120, Note Name: A5, Velocity: 32
Note OFF: Time 463200, Note Name: A5
Note ON: Time 463200, Note Name: G5, Velocity: 37
Note OFF: Time 463280, Note Name: G5
Note ON: Time 463280, Note Name: A5, Velocity: 33
Note OFF: Time 463360, Note Name: A5
Note ON: Time 463360, Note Name: G5, Velocity: 38
Note OFF: Time 463440, Note Name: G5
Note ON: Time 463440, Note Name: A5, Velocity: 34
Note OFF: Time 463520, Note Name: A5
Note ON: Time 463520, Note Name: G5, Velocity: 39
Note OFF: Time 463600, Note Name: G5
Note ON: Time 463600, Note Name: A5, Velocity: 35
Note OFF: Time 463680, Note Name: A5
Note ON: Time 463680, Note Name: G5, Velocity: 41
Note OFF: Time 463760, Note Name: G5
Note ON: Time 463760, Note Name: A5, Velocity: 37
Note OFF: Time 463840, Note Name: A5
Note ON: Time 463840, Note Name: G5, Velocity: 40
Note OFF: Time 463920, Note Name: G5
Note ON: Time 463920, Note Name: A5, Velocity: 36
Note OFF: Time 464000, Note Name: A5
Note ON: Time 464000, Note Name: G5, Velocity: 42
Note OFF: Time 464080, Note Name: G5
Note ON: Time 464080, Note Name: A5, Velocity: 37
Note OFF: Time 464160, Note Name: A5
Note ON: Time 464160, Note Name: G5, Velocity: 42
Note OFF: Time 464240, Note Name: G5
Note ON: Time 464240, Note Name: A5, Velocity: 38
Note OFF: Time 464320, Note Name: A5
Note ON: Time 464320, Note Name: G5, Velocity: 43
Note OFF: Time 464400, Note Name: G5
Note ON: Time 464400, Note Name: A5, Velocity: 39
Note OFF: Time 464480, Note Name: A5
Note ON: Time 464480, Note Name: G5, Velocity: 44
Note OFF: Time 464560, Note Name: G5
Note ON: Time 464560, Note Name: A5, Velocity: 39
Note OFF: Time 464640, Note Name: A5
Note ON: Time 464640, Note Name: G5, Velocity: 46
Note OFF: Time 464720, Note Name: G5
Note ON: Time 464720, Note Name: A5, Velocity: 31
Note OFF: Time 464800, Note Name: A5
Note ON: Time 464800, Note Name: G5, Velocity: 33
Note OFF: Time 464880, Note Name: G5
Note ON: Time 464880, Note Name: A5, Velocity: 29
Note OFF: Time 464960, Note Name: A5
Note ON: Time 464960, Note Name: G5, Velocity: 32
Note OFF: Time 465040, Note Name: G5
Note ON: Time 465040, Note Name: A5, Velocity: 28
Note OFF: Time 465120, Note Name: A5
Note ON: Time 465120, Note Name: G5, Velocity: 31
Note OFF: Time 465200, Note Name: G5
Note ON: Time 465200, Note Name: A5, Velocity: 27
Note OFF: Time 465280, Note Name: A5
Note ON: Time 465280, Note Name: G5, Velocity: 31
Note OFF: Time 465360, Note Name: G5
Note ON: Time 465360, Note Name: A5, Velocity: 27
Note OFF: Time 465440, Note Name: A5
Note ON: Time 465440, Note Name: G5, Velocity: 31
Note OFF: Time 465520, Note Name: G5
Note ON: Time 465520, Note Name: A5, Velocity: 27
Note OFF: Time 465600, Note Name: A5
Note ON: Time 465600, Note Name: G5, Velocity: 32
Note OFF: Time 465680, Note Name: G5
Note ON: Time 465680, Note Name: A5, Velocity: 28
Note OFF: Time 465760, Note Name: A5
Note ON: Time 465760, Note Name: G5, Velocity: 31
Note OFF: Time 465840, Note Name: G5
Note ON: Time 465840, Note Name: A5, Velocity: 27
Note OFF: Time 465920, Note Name: A5
Note ON: Time 465920, Note Name: G5, Velocity: 31
Note OFF: Time 466000, Note Name: G5
Note ON: Time 466000, Note Name: A5, Velocity: 27
Note OFF: Time 466080, Note Name: A5
Note ON: Time 466080, Note Name: G5, Velocity: 31
Note OFF: Time 466160, Note Name: G5
Note ON: Time 466160, Note Name: A5, Velocity: 27
Note OFF: Time 466240, Note Name: A5
Note ON: Time 466240, Note Name: G5, Velocity: 31
Note OFF: Time 466320, Note Name: G5
Note ON: Time 466320, Note Name: A5, Velocity: 27
Note OFF: Time 466400, Note Name: A5
Note ON: Time 466400, Note Name: G5, Velocity: 31
Note OFF: Time 466480, Note Name: G5
Note ON: Time 466480, Note Name: A5, Velocity: 27
Note OFF: Time 466560, Note Name: A5
Note ON: Time 466560, Note Name: G5, Velocity: 37
Note OFF: Time 466640, Note Name: G5
Note ON: Time 466640, Note Name: A5, Velocity: 28
Note OFF: Time 466720, Note Name: A5
Note ON: Time 466720, Note Name: G5, Velocity: 34
Note OFF: Time 466800, Note Name: G5
Note ON: Time 466800, Note Name: A5, Velocity: 28
Note OFF: Time 466880, Note Name: A5
Note ON: Time 466880, Note Name: G5, Velocity: 34
Note OFF: Time 466960, Note Name: G5
Note ON: Time 466960, Note Name: A5, Velocity: 28
Note OFF: Time 467040, Note Name: A5
Note ON: Time 467120, Note Name: A5, Velocity: 27
Note OFF: Time 467200, Note Name: A5
Note ON: Time 467200, Note Name: G5, Velocity: 31
Note OFF: Time 467280, Note Name: G5
Note ON: Time 467280, Note Name: A5, Velocity: 27
Note OFF: Time 467360, Note Name: A5
Note ON: Time 467360, Note Name: G5, Velocity: 31
Note OFF: Time 467440, Note Name: G5
Note ON: Time 467440, Note Name: A5, Velocity: 27
Note OFF: Time 467520, Note Name: A5
Note ON: Time 467520, Note Name: G5, Velocity: 32
Note OFF: Time 467600, Note Name: G5
Note ON: Time 467600, Note Name: A5, Velocity: 28
Note OFF: Time 467680, Note Name: A5
Note ON: Time 467680, Note Name: G5, Velocity: 31
Note OFF: Time 467760, Note Name: G5
Note ON: Time 467760, Note Name: A5, Velocity: 27
Note OFF: Time 467840, Note Name: A5
Note ON: Time 467840, Note Name: G5, Velocity: 31
Note OFF: Time 467920, Note Name: G5
Note ON: Time 467920, Note Name: A5, Velocity: 27
Note OFF: Time 468000, Note Name: A5
Note ON: Time 468000, Note Name: G5, Velocity: 31
Note OFF: Time 468080, Note Name: G5
Note ON: Time 468080, Note Name: A5, Velocity: 27
Note OFF: Time 468160, Note Name: A5
Note ON: Time 468160, Note Name: G5, Velocity: 31
Note OFF: Time 468240, Note Name: G5
Note ON: Time 468240, Note Name: A5, Velocity: 27
Note OFF: Time 468320, Note Name: A5
Note ON: Time 468320, Note Name: G5, Velocity: 31
Note OFF: Time 468400, Note Name: G5
Note ON: Time 468400, Note Name: A5, Velocity: 27
Note OFF: Time 468480, Note Name: A5
Note ON: Time 468480, Note Name: G5, Velocity: 36
Note OFF: Time 468560, Note Name: G5
Note ON: Time 468560, Note Name: A5, Velocity: 31
Note OFF: Time 468640, Note Name: A5
Note ON: Time 468640, Note Name: G5, Velocity: 33
Note OFF: Time 468720, Note Name: G5
Note ON: Time 468720, Note Name: A5, Velocity: 29
Note OFF: Time 468800, Note Name: A5
Note ON: Time 468800, Note Name: G5, Velocity: 32
Note OFF: Time 468880, Note Name: G5
Note ON: Time 468880, Note Name: A5, Velocity: 28
Note OFF: Time 468960, Note Name: A5
Note ON: Time 468960, Note Name: G5, Velocity: 31
Note OFF: Time 469040, Note Name: G5
Note ON: Time 469040, Note Name: A5, Velocity: 27
Note OFF: Time 469120, Note Name: A5
Note ON: Time 469120, Note Name: G5, Velocity: 31
Note OFF: Time 469200, Note Name: G5
Note ON: Time 469200, Note Name: A5, Velocity: 27
Note OFF: Time 469280, Note Name: A5
Note ON: Time 469280, Note Name: G5, Velocity: 31
Note OFF: Time 469360, Note Name: G5
Note ON: Time 469360, Note Name: A5, Velocity: 27
Note OFF: Time 469440, Note Name: A5
Note ON: Time 469440, Note Name: G5, Velocity: 32
Note OFF: Time 469520, Note Name: G5
Note ON: Time 469520, Note Name: A5, Velocity: 28
Note OFF: Time 469600, Note Name: A5
Note ON: Time 469600, Note Name: G5, Velocity: 31
Note OFF: Time 469680, Note Name: G5
Note ON: Time 469680, Note Name: A5, Velocity: 27
Note OFF: Time 469760, Note Name: A5
Note ON: Time 469760, Note Name: G5, Velocity: 31
Note OFF: Time 469840, Note Name: G5
Note ON: Time 469840, Note Name: A5, Velocity: 27
Note OFF: Time 469920, Note Name: A5
Note ON: Time 469920, Note Name: G5, Velocity: 31
Note OFF: Time 470000, Note Name: G5
Note ON: Time 470000, Note Name: A5, Velocity: 27
Note OFF: Time 470080, Note Name: A5
Note ON: Time 470080, Note Name: G5, Velocity: 31
Note OFF: Time 470160, Note Name: G5
Note ON: Time 470160, Note Name: A5, Velocity: 27
Note OFF: Time 470240, Note Name: A5
Note ON: Time 470240, Note Name: G5, Velocity: 31
Note OFF: Time 470320, Note Name: G5
Note ON: Time 470320, Note Name: A5, Velocity: 27
Note OFF: Time 470400, Note Name: A5
Note ON: Time 470400, Note Name: G5, Velocity: 32
Note OFF: Time 470480, Note Name: G5
Note ON: Time 470480, Note Name: A5, Velocity: 28
Note OFF: Time 470560, Note Name: A5
Note ON: Time 470560, Note Name: G5, Velocity: 31
Note OFF: Time 470640, Note Name: G5
Note ON: Time 470640, Note Name: A5, Velocity: 27
Note OFF: Time 470720, Note Name: A5
Note ON: Time 470720, Note Name: G5, Velocity: 31
Note OFF: Time 470800, Note Name: G5
Note ON: Time 470800, Note Name: A5, Velocity: 27
Note OFF: Time 470880, Note Name: A5
Note ON: Time 470880, Note Name: G5, Velocity: 31
Note OFF: Time 470960, Note Name: G5
Note ON: Time 470960, Note Name: A5, Velocity: 27
Note OFF: Time 471040, Note Name: A5
Note ON: Time 471040, Note Name: G5, Velocity: 31
Note OFF: Time 471120, Note Name: G5
Note ON: Time 471120, Note Name: A5, Velocity: 27
Note OFF: Time 471200, Note Name: A5
Note ON: Time 471200, Note Name: G5, Velocity: 31
Note OFF: Time 471280, Note Name: G5
Note ON: Time 471280, Note Name: A5, Velocity: 27
Note OFF: Time 471360, Note Name: A5
Note ON: Time 471360, Note Name: G5, Velocity: 32
Note OFF: Time 471440, Note Name: G5
Note ON: Time 471440, Note Name: A5, Velocity: 28
Note OFF: Time 471520, Note Name: A5
Note ON: Time 471520, Note Name: G5, Velocity: 32
Note OFF: Time 471600, Note Name: G5
Note ON: Time 471600, Note Name: A5, Velocity: 28
Note OFF: Time 471680, Note Name: A5
Note ON: Time 471680, Note Name: G5, Velocity: 34
Note OFF: Time 471760, Note Name: G5
Note ON: Time 471760, Note Name: A5, Velocity: 30
Note OFF: Time 471840, Note Name: A5
Note ON: Time 471840, Note Name: G5, Velocity: 35
Note OFF: Time 471920, Note Name: G5
Note ON: Time 471920, Note Name: A5, Velocity: 31
Note OFF: Time 472000, Note Name: A5
Note ON: Time 472000, Note Name: G5, Velocity: 36
Note OFF: Time 472080, Note Name: G5
Note ON: Time 472080, Note Name: A5, Velocity: 32
Note OFF: Time 472160, Note Name: A5
Note ON: Time 472160, Note Name: G5, Velocity: 38
Note OFF: Time 472240, Note Name: G5
Note ON: Time 472240, Note Name: A5, Velocity: 34
Note OFF: Time 472320, Note Name: A5
Note ON: Time 472320, Note Name: G#5, Velocity: 46
Note OFF: Time 472400, Note Name: G#5
Note ON: Time 472400, Note Name: G5, Velocity: 31
Note OFF: Time 472480, Note Name: G5
Note ON: Time 472480, Note Name: G#5, Velocity: 33
Note OFF: Time 472560, Note Name: G#5
Note ON: Time 472560, Note Name: G5, Velocity: 29
Note OFF: Time 472640, Note Name: G5
Note ON: Time 472640, Note Name: G#5, Velocity: 32
Note OFF: Time 472720, Note Name: G#5
Note ON: Time 472720, Note Name: G5, Velocity: 28
Note OFF: Time 472800, Note Name: G5
Note ON: Time 472800, Note Name: G#5, Velocity: 31
Note OFF: Time 472880, Note Name: G#5
Note ON: Time 472880, Note Name: G5, Velocity: 27
Note OFF: Time 472960, Note Name: G5
Note ON: Time 472960, Note Name: G#5, Velocity: 31
Note OFF: Time 473040, Note Name: G#5
Note ON: Time 473040, Note Name: G5, Velocity: 27
Note OFF: Time 473120, Note Name: G5
Note ON: Time 473120, Note Name: G#5, Velocity: 31
Note OFF: Time 473200, Note Name: G#5
Note ON: Time 473200, Note Name: G5, Velocity: 27
Note OFF: Time 473280, Note Name: G5
Note ON: Time 473280, Note Name: G#5, Velocity: 32
Note OFF: Time 473360, Note Name: G#5
Note ON: Time 473360, Note Name: G5, Velocity: 28
Note OFF: Time 473440, Note Name: G5
Note ON: Time 473440, Note Name: G#5, Velocity: 31
Note OFF: Time 473520, Note Name: G#5
Note ON: Time 473520, Note Name: G5, Velocity: 27
Note OFF: Time 473600, Note Name: G5
Note ON: Time 473600, Note Name: G#5, Velocity: 31
Note OFF: Time 473680, Note Name: G#5
Note ON: Time 473680, Note Name: G5, Velocity: 27
Note OFF: Time 473760, Note Name: G5
Note ON: Time 473760, Note Name: G#5, Velocity: 31
Note OFF: Time 473840, Note Name: G#5
Note ON: Time 473840, Note Name: G5, Velocity: 27
Note OFF: Time 473920, Note Name: G5
Note ON: Time 473920, Note Name: G#5, Velocity: 31
Note OFF: Time 474000, Note Name: G#5
Note ON: Time 474000, Note Name: G5, Velocity: 27
Note OFF: Time 474080, Note Name: G5
Note ON: Time 474080, Note Name: G#5, Velocity: 31
Note OFF: Time 474160, Note Name: G#5
Note ON: Time 474160, Note Name: G5, Velocity: 27
Note OFF: Time 474240, Note Name: G5
Note ON: Time 474240, Note Name: G#5, Velocity: 37
Note OFF: Time 474320, Note Name: G#5
Note ON: Time 474320, Note Name: G5, Velocity: 28
Note OFF: Time 474400, Note Name: G5
Note ON: Time 474400, Note Name: G#5, Velocity: 34
Note OFF: Time 474480, Note Name: G#5
Note ON: Time 474480, Note Name: G5, Velocity: 28
Note OFF: Time 474560, Note Name: G5
Note ON: Time 474560, Note Name: G#5, Velocity: 34
Note OFF: Time 474640, Note Name: G#5
Note ON: Time 474640, Note Name: G5, Velocity: 28
Note OFF: Time 474720, Note Name: G5
Note ON: Time 474720, Note Name: G#5, Velocity: 31
Note OFF: Time 474800, Note Name: G#5
Note ON: Time 474800, Note Name: G5, Velocity: 27
Note OFF: Time 474880, Note Name: G5
Note ON: Time 474880, Note Name: G#5, Velocity: 31
Note OFF: Time 474960, Note Name: G#5
Note ON: Time 474960, Note Name: G5, Velocity: 27
Note OFF: Time 475040, Note Name: G5
Note ON: Time 475040, Note Name: G#5, Velocity: 31
Note OFF: Time 475120, Note Name: G#5
Note ON: Time 475120, Note Name: G5, Velocity: 27
Note OFF: Time 475200, Note Name: G5
Note ON: Time 475200, Note Name: G#5, Velocity: 32
Note OFF: Time 475280, Note Name: G#5
Note ON: Time 475280, Note Name: G5, Velocity: 28
Note OFF: Time 475360, Note Name: G5
Note ON: Time 475360, Note Name: G#5, Velocity: 31
Note OFF: Time 475440, Note Name: G#5
Note ON: Time 475440, Note Name: G5, Velocity: 27
Note OFF: Time 475520, Note Name: G5
Note ON: Time 475520, Note Name: G#5, Velocity: 31
Note OFF: Time 475600, Note Name: G#5
Note ON: Time 475600, Note Name: G5, Velocity: 27
Note OFF: Time 475680, Note Name: G5
Note ON: Time 475680, Note Name: G#5, Velocity: 31
Note OFF: Time 475760, Note Name: G#5
Note ON: Time 475760, Note Name: G5, Velocity: 27
Note OFF: Time 475840, Note Name: G5
Note ON: Time 475840, Note Name: G#5, Velocity: 31
Note OFF: Time 475920, Note Name: G#5
Note ON: Time 475920, Note Name: G5, Velocity: 27
Note OFF: Time 476000, Note Name: G5
Note ON: Time 476000, Note Name: F5, Velocity: 31
Note OFF: Time 476080, Note Name: F5
Note ON: Time 476080, Note Name: G5, Velocity: 27
Note OFF: Time 476160, Note Name: G5
Note ON: Time 476160, Note Name: G#5, Velocity: 36
Note OFF: Time 476240, Note Name: G#5
Note ON: Time 476240, Note Name: A#5, Velocity: 31
Note OFF: Time 476320, Note Name: A#5
Note ON: Time 476320, Note Name: G#5, Velocity: 33
Note OFF: Time 476400, Note Name: G#5
Note ON: Time 476400, Note Name: A#5, Velocity: 29
Note OFF: Time 476480, Note Name: A#5
Note ON: Time 476480, Note Name: G#5, Velocity: 32
Note OFF: Time 476560, Note Name: G#5
Note ON: Time 476560, Note Name: A#5, Velocity: 28
Note OFF: Time 476640, Note Name: A#5
Note ON: Time 476640, Note Name: D#5, Velocity: 31
Note OFF: Time 476720, Note Name: D#5
Note ON: Time 476720, Note Name: F5, Velocity: 27
Note OFF: Time 476800, Note Name: F5
Note ON: Time 476800, Note Name: D#5, Velocity: 31
Note OFF: Time 476880, Note Name: D#5
Note ON: Time 476880, Note Name: F5, Velocity: 27
Note OFF: Time 476960, Note Name: F5
Note ON: Time 476960, Note Name: D#5, Velocity: 31
Note OFF: Time 477040, Note Name: D#5
Note ON: Time 477040, Note Name: F5, Velocity: 27
Note OFF: Time 477120, Note Name: F5
Note ON: Time 477120, Note Name: D#5, Velocity: 32
Note OFF: Time 477200, Note Name: D#5
Note ON: Time 477200, Note Name: F5, Velocity: 28
Note OFF: Time 477280, Note Name: F5
Note ON: Time 477280, Note Name: D#5, Velocity: 31
Note OFF: Time 477360, Note Name: D#5
Note ON: Time 477360, Note Name: F5, Velocity: 27
Note OFF: Time 477440, Note Name: F5
Note ON: Time 477440, Note Name: D#5, Velocity: 31
Note OFF: Time 477520, Note Name: D#5
Note ON: Time 477520, Note Name: F5, Velocity: 27
Note OFF: Time 477600, Note Name: F5
Note ON: Time 477600, Note Name: D#5, Velocity: 31
Note OFF: Time 477680, Note Name: D#5
Note ON: Time 477680, Note Name: F5, Velocity: 27
Note OFF: Time 477760, Note Name: F5
Note ON: Time 477760, Note Name: D#5, Velocity: 31
Note OFF: Time 477840, Note Name: D#5
Note ON: Time 477840, Note Name: F5, Velocity: 27
Note OFF: Time 477920, Note Name: F5
Note ON: Time 477920, Note Name: D#5, Velocity: 31
Note OFF: Time 478000, Note Name: D#5
Note ON: Time 478000, Note Name: F5, Velocity: 27
Note OFF: Time 478080, Note Name: F5
Note ON: Time 478080, Note Name: D#5, Velocity: 32
Note OFF: Time 478160, Note Name: D#5
Note ON: Time 478160, Note Name: F5, Velocity: 28
Note OFF: Time 478240, Note Name: F5
Note ON: Time 478240, Note Name: D#5, Velocity: 31
Note OFF: Time 478320, Note Name: D#5
Note ON: Time 478320, Note Name: F5, Velocity: 27
Note OFF: Time 478400, Note Name: F5
Note ON: Time 478400, Note Name: D#5, Velocity: 31
Note OFF: Time 478480, Note Name: D#5
Note ON: Time 478480, Note Name: F5, Velocity: 27
Note OFF: Time 478560, Note Name: F5
Note ON: Time 478560, Note Name: D#5, Velocity: 31
Note OFF: Time 478640, Note Name: D#5
Note ON: Time 478640, Note Name: F5, Velocity: 27
Note OFF: Time 478720, Note Name: F5
Note ON: Time 478720, Note Name: D#5, Velocity: 31
Note OFF: Time 478800, Note Name: D#5
Note ON: Time 478800, Note Name: F5, Velocity: 27
Note OFF: Time 478880, Note Name: F5
Note ON: Time 478880, Note Name: D#5, Velocity: 31
Note OFF: Time 478960, Note Name: D#5
Note ON: Time 478960, Note Name: F5, Velocity: 27
Note OFF: Time 479040, Note Name: F5
Note ON: Time 479040, Note Name: D#5, Velocity: 32
Note OFF: Time 479120, Note Name: D#5
Note ON: Time 479120, Note Name: F5, Velocity: 28
Note OFF: Time 479200, Note Name: F5
Note ON: Time 479200, Note Name: D#5, Velocity: 32
Note OFF: Time 479280, Note Name: D#5
Note ON: Time 479280, Note Name: F5, Velocity: 28
Note OFF: Time 479360, Note Name: F5
Note ON: Time 479360, Note Name: D#5, Velocity: 34
Note OFF: Time 479440, Note Name: D#5
Note ON: Time 479440, Note Name: F5, Velocity: 30
Note OFF: Time 479520, Note Name: F5
Note ON: Time 479520, Note Name: E5, Velocity: 35
Note OFF: Time 479600, Note Name: E5
Note ON: Time 479600, Note Name: F5, Velocity: 31
Note OFF: Time 479680, Note Name: F5
Note ON: Time 479680, Note Name: E5, Velocity: 36
Note OFF: Time 479760, Note Name: E5
Note ON: Time 479760, Note Name: F5, Velocity: 32
Note OFF: Time 479820, Note Name: F5
Note ON: Time 479820, Note Name: E5, Velocity: 38
Note OFF: Time 479880, Note Name: E5
Note ON: Time 479880, Note Name: F5, Velocity: 34
Note ON: Time 479935, Note Name: E5, Velocity: 34
Note OFF: Time 479940, Note Name: F5
Note OFF: Time 479995, Note Name: E5
Note ON: Time 480000, Note Name: F5, Velocity: 36
Note OFF: Time 480080, Note Name: F5
Note ON: Time 480080, Note Name: G5, Velocity: 31
Note OFF: Time 480160, Note Name: G5
Note ON: Time 480160, Note Name: F5, Velocity: 33
Note OFF: Time 480240, Note Name: F5
Note ON: Time 480240, Note Name: G5, Velocity: 29
Note OFF: Time 480320, Note Name: G5
Note ON: Time 480320, Note Name: F5, Velocity: 32
Note OFF: Time 480400, Note Name: F5
Note ON: Time 480400, Note Name: G5, Velocity: 28
Note OFF: Time 480480, Note Name: G5
Note ON: Time 480480, Note Name: C#5, Velocity: 31
Note OFF: Time 480560, Note Name: C#5
Note ON: Time 480560, Note Name: C5, Velocity: 27
Note OFF: Time 480640, Note Name: C5
Note ON: Time 480640, Note Name: C#5, Velocity: 31
Note OFF: Time 480720, Note Name: C#5
Note ON: Time 480720, Note Name: C5, Velocity: 27
Note OFF: Time 480800, Note Name: C5
Note ON: Time 480800, Note Name: C#5, Velocity: 31
Note OFF: Time 480880, Note Name: C#5
Note ON: Time 480880, Note Name: C5, Velocity: 27
Note OFF: Time 480960, Note Name: C5
Note ON: Time 480960, Note Name: C#5, Velocity: 32
Note OFF: Time 481040, Note Name: C#5
Note ON: Time 481040, Note Name: C5, Velocity: 28
Note OFF: Time 481120, Note Name: C5
Note ON: Time 481120, Note Name: C#5, Velocity: 31
Note OFF: Time 481200, Note Name: C#5
Note ON: Time 481200, Note Name: C5, Velocity: 27
Note OFF: Time 481280, Note Name: C5
Note ON: Time 481280, Note Name: C#5, Velocity: 31
Note OFF: Time 481360, Note Name: C#5
Note ON: Time 481360, Note Name: C5, Velocity: 27
Note OFF: Time 481440, Note Name: C5
Note ON: Time 481440, Note Name: C#5, Velocity: 31
Note OFF: Time 481520, Note Name: C#5
Note ON: Time 481520, Note Name: C5, Velocity: 27
Note OFF: Time 481600, Note Name: C5
Note ON: Time 481600, Note Name: C#5, Velocity: 31
Note OFF: Time 481680, Note Name: C#5
Note ON: Time 481680, Note Name: C5, Velocity: 27
Note OFF: Time 481760, Note Name: C5
Note ON: Time 481760, Note Name: C#5, Velocity: 31
Note OFF: Time 481840, Note Name: C#5
Note ON: Time 481840, Note Name: C5, Velocity: 27
Note OFF: Time 481920, Note Name: C5
Note ON: Time 481920, Note Name: C#5, Velocity: 32
Note OFF: Time 482000, Note Name: C#5
Note ON: Time 482000, Note Name: C5, Velocity: 28
Note OFF: Time 482080, Note Name: C5
Note ON: Time 482080, Note Name: C#5, Velocity: 31
Note OFF: Time 482160, Note Name: C#5
Note ON: Time 482160, Note Name: C5, Velocity: 27
Note OFF: Time 482240, Note Name: C5
Note ON: Time 482240, Note Name: C#5, Velocity: 31
Note OFF: Time 482320, Note Name: C#5
Note ON: Time 482320, Note Name: C5, Velocity: 27
Note OFF: Time 482400, Note Name: C5
Note ON: Time 482400, Note Name: C#5, Velocity: 31
Note OFF: Time 482480, Note Name: C#5
Note ON: Time 482480, Note Name: C5, Velocity: 27
Note OFF: Time 482560, Note Name: C5
Note ON: Time 482560, Note Name: C#5, Velocity: 31
Note OFF: Time 482640, Note Name: C#5
Note ON: Time 482640, Note Name: C5, Velocity: 27
Note OFF: Time 482720, Note Name: C5
Note ON: Time 482720, Note Name: C#5, Velocity: 31
Note OFF: Time 482800, Note Name: C#5
Note ON: Time 482800, Note Name: C5, Velocity: 27
Note OFF: Time 482880, Note Name: C5
Note ON: Time 482880, Note Name: C#5, Velocity: 32
Note OFF: Time 482960, Note Name: C#5
Note ON: Time 482960, Note Name: C5, Velocity: 28
Note OFF: Time 483040, Note Name: C5
Note ON: Time 483040, Note Name: C#5, Velocity: 32
Note OFF: Time 483120, Note Name: C#5
Note ON: Time 483120, Note Name: C5, Velocity: 28
Note OFF: Time 483200, Note Name: C5
Note ON: Time 483200, Note Name: C#5, Velocity: 34
Note OFF: Time 483280, Note Name: C#5
Note ON: Time 483280, Note Name: C5, Velocity: 30
Note OFF: Time 483360, Note Name: C5
Note ON: Time 483360, Note Name: C#5, Velocity: 35
Note OFF: Time 483440, Note Name: C#5
Note ON: Time 483440, Note Name: C5, Velocity: 29
Note OFF: Time 483520, Note Name: C5
Note ON: Time 483520, Note Name: C#5, Velocity: 34
Note OFF: Time 483600, Note Name: C#5
Note ON: Time 483600, Note Name: C5, Velocity: 29
Note OFF: Time 483680, Note Name: C5
Note ON: Time 483680, Note Name: C#5, Velocity: 34
Note OFF: Time 483760, Note Name: C#5
Note ON: Time 483760, Note Name: C5, Velocity: 28
Note OFF: Time 483840, Note Name: C5
Note ON: Time 483840, Note Name: C#5, Velocity: 32
Note OFF: Time 483920, Note Name: C#5
Note ON: Time 483920, Note Name: C5, Velocity: 28
Note OFF: Time 484000, Note Name: C5
Note ON: Time 484000, Note Name: C#5, Velocity: 31
Note OFF: Time 484080, Note Name: C#5
Note ON: Time 484080, Note Name: C5, Velocity: 27
Note OFF: Time 484160, Note Name: C5
Note ON: Time 484160, Note Name: C#5, Velocity: 31
Note OFF: Time 484240, Note Name: C#5
Note ON: Time 484240, Note Name: C5, Velocity: 27
Note OFF: Time 484320, Note Name: C5
Note ON: Time 484320, Note Name: C#5, Velocity: 31
Note OFF: Time 484400, Note Name: C#5
Note ON: Time 484400, Note Name: C5, Velocity: 27
Note OFF: Time 484480, Note Name: C5
Note ON: Time 484480, Note Name: C#5, Velocity: 31
Note OFF: Time 484560, Note Name: C#5
Note ON: Time 484560, Note Name: C5, Velocity: 27
Note OFF: Time 484640, Note Name: C5
Note ON: Time 484640, Note Name: C#5, Velocity: 31
Note OFF: Time 484720, Note Name: C#5
Note ON: Time 484720, Note Name: C5, Velocity: 27
Note OFF: Time 484800, Note Name: C5
Note ON: Time 484800, Note Name: C#5, Velocity: 32
Note OFF: Time 484880, Note Name: C#5
Note ON: Time 484880, Note Name: C5, Velocity: 28
Note OFF: Time 484960, Note Name: C5
Note ON: Time 484960, Note Name: C#5, Velocity: 32
Note OFF: Time 485040, Note Name: C#5
Note ON: Time 485040, Note Name: C5, Velocity: 28
Note OFF: Time 485120, Note Name: C5
Note ON: Time 485120, Note Name: C#5, Velocity: 34
Note OFF: Time 485200, Note Name: C#5
Note ON: Time 485200, Note Name: C5, Velocity: 30
Note OFF: Time 485280, Note Name: C5
Note ON: Time 485280, Note Name: C#5, Velocity: 34
Note OFF: Time 485360, Note Name: C#5
Note ON: Time 485360, Note Name: C5, Velocity: 29
Note OFF: Time 485440, Note Name: C5
Note ON: Time 485440, Note Name: C#5, Velocity: 34
Note OFF: Time 485520, Note Name: C#5
Note ON: Time 485520, Note Name: C5, Velocity: 28
Note OFF: Time 485600, Note Name: C5
Note ON: Time 485600, Note Name: C#5, Velocity: 34
Note OFF: Time 485680, Note Name: C#5
Note ON: Time 485680, Note Name: C5, Velocity: 29
Note OFF: Time 485760, Note Name: C5
Note ON: Time 485760, Note Name: D5, Velocity: 32
Note OFF: Time 485840, Note Name: D5
Note ON: Time 485840, Note Name: C5, Velocity: 28
Note OFF: Time 485920, Note Name: C5
Note ON: Time 485920, Note Name: D5, Velocity: 32
Note OFF: Time 486000, Note Name: D5
Note ON: Time 486000, Note Name: C5, Velocity: 28
Note OFF: Time 486080, Note Name: C5
Note ON: Time 486080, Note Name: D5, Velocity: 34
Note OFF: Time 486160, Note Name: D5
Note ON: Time 486160, Note Name: C5, Velocity: 30
Note OFF: Time 486240, Note Name: C5
Note ON: Time 486240, Note Name: D5, Velocity: 33
Note OFF: Time 486320, Note Name: D5
Note ON: Time 486320, Note Name: C5, Velocity: 28
Note OFF: Time 486400, Note Name: C5
Note ON: Time 486400, Note Name: D5, Velocity: 35
Note OFF: Time 486480, Note Name: D5
Note ON: Time 486480, Note Name: C5, Velocity: 28
Note OFF: Time 486560, Note Name: C5
Note ON: Time 486560, Note Name: D5, Velocity: 34
Note OFF: Time 486640, Note Name: D5
Note ON: Time 486640, Note Name: C5, Velocity: 30
Note OFF: Time 486720, Note Name: C5
Note ON: Time 486720, Note Name: D5, Velocity: 33
Note OFF: Time 486800, Note Name: D5
Note ON: Time 486800, Note Name: C5, Velocity: 29
Note OFF: Time 486880, Note Name: C5
Note ON: Time 486880, Note Name: D5, Velocity: 33
Note OFF: Time 486960, Note Name: D5
Note ON: Time 486960, Note Name: C5, Velocity: 29
Note OFF: Time 487040, Note Name: C5
Note ON: Time 487040, Note Name: D5, Velocity: 36
Note OFF: Time 487120, Note Name: D5
Note ON: Time 487120, Note Name: C5, Velocity: 32
Note OFF: Time 487200, Note Name: C5
Note ON: Time 487200, Note Name: D5, Velocity: 37
Note OFF: Time 487280, Note Name: D5
Note ON: Time 487280, Note Name: C5, Velocity: 33
Note OFF: Time 487360, Note Name: C5
Note ON: Time 487360, Note Name: D5, Velocity: 36
Note OFF: Time 487440, Note Name: D5
Note ON: Time 487440, Note Name: C5, Velocity: 31
Note OFF: Time 487520, Note Name: C5
Note ON: Time 487520, Note Name: D5, Velocity: 37
Note OFF: Time 487600, Note Name: D5
Note ON: Time 487600, Note Name: C5, Velocity: 31
Note OFF: Time 487680, Note Name: C5
Note ON: Time 487680, Note Name: D5, Velocity: 35
Note OFF: Time 487760, Note Name: D5
Note ON: Time 487760, Note Name: C5, Velocity: 30
Note OFF: Time 487840, Note Name: C5
Note ON: Time 487840, Note Name: D5, Velocity: 35
Note OFF: Time 487920, Note Name: D5
Note ON: Time 487920, Note Name: C5, Velocity: 31
Note OFF: Time 488000, Note Name: C5
Note ON: Time 488000, Note Name: D5, Velocity: 37
Note OFF: Time 488080, Note Name: D5
Note ON: Time 488080, Note Name: C5, Velocity: 33
Note OFF: Time 488160, Note Name: C5
Note ON: Time 488160, Note Name: D5, Velocity: 39
Note OFF: Time 488240, Note Name: D5
Note ON: Time 488240, Note Name: C5, Velocity: 34
Note OFF: Time 488320, Note Name: C5
Note ON: Time 488320, Note Name: D5, Velocity: 39
Note OFF: Time 488400, Note Name: D5
Note ON: Time 488400, Note Name: C5, Velocity: 36
Note OFF: Time 488480, Note Name: C5
Note ON: Time 488480, Note Name: D5, Velocity: 39
Note OFF: Time 488560, Note Name: D5
Note ON: Time 488560, Note Name: C5, Velocity: 35
Note OFF: Time 488640, Note Name: C5
Note ON: Time 488640, Note Name: D5, Velocity: 36
Note OFF: Time 488720, Note Name: D5
Note ON: Time 488720, Note Name: C5, Velocity: 32
Note OFF: Time 488800, Note Name: C5
Note ON: Time 488800, Note Name: D5, Velocity: 36
Note OFF: Time 488880, Note Name: D5
Note ON: Time 488880, Note Name: C5, Velocity: 32
Note OFF: Time 488960, Note Name: C5
Note ON: Time 488960, Note Name: D5, Velocity: 39
Note OFF: Time 489040, Note Name: D5
Note ON: Time 489040, Note Name: C5, Velocity: 35
Note OFF: Time 489120, Note Name: C5
Note ON: Time 489120, Note Name: D5, Velocity: 40
Note OFF: Time 489200, Note Name: D5
Note ON: Time 489200, Note Name: C5, Velocity: 36
Note OFF: Time 489280, Note Name: C5
Note ON: Time 489280, Note Name: D5, Velocity: 40
Note OFF: Time 489360, Note Name: D5
Note ON: Time 489360, Note Name: C5, Velocity: 35
Note OFF: Time 489420, Note Name: C5
Note ON: Time 489420, Note Name: D5, Velocity: 40
Note OFF: Time 489480, Note Name: D5
Note ON: Time 489480, Note Name: C5, Velocity: 34
Note OFF: Time 489540, Note Name: C5
Note ON: Time 489540, Note Name: D5, Velocity: 34
Note OFF: Time 489600, Note Name: D5
Note ON: Time 489600, Note Name: C5, Velocity: 38
Note OFF: Time 489680, Note Name: C5
Note ON: Time 489680, Note Name: D5, Velocity: 33
Note OFF: Time 489760, Note Name: D5
Note ON: Time 489760, Note Name: E5, Velocity: 39
Note OFF: Time 489840, Note Name: E5
Note ON: Time 489840, Note Name: D5, Velocity: 34
Note OFF: Time 489920, Note Name: D5
Note ON: Time 489920, Note Name: E5, Velocity: 42
Note OFF: Time 490000, Note Name: E5
Note ON: Time 490000, Note Name: D5, Velocity: 37
Note OFF: Time 490080, Note Name: D5
Note ON: Time 490080, Note Name: E5, Velocity: 44
Note OFF: Time 490160, Note Name: E5
Note ON: Time 490160, Note Name: D5, Velocity: 39
Note OFF: Time 490240, Note Name: D5
Note ON: Time 490240, Note Name: E5, Velocity: 43
Note OFF: Time 490320, Note Name: E5
Note ON: Time 490320, Note Name: D5, Velocity: 37
Note OFF: Time 490400, Note Name: D5
Note ON: Time 490400, Note Name: E5, Velocity: 45
Note OFF: Time 490480, Note Name: E5
Note ON: Time 490480, Note Name: D5, Velocity: 40
Note OFF: Time 490560, Note Name: D5
Note ON: Time 490560, Note Name: E5, Velocity: 42
Note OFF: Time 490640, Note Name: E5
Note ON: Time 490640, Note Name: D5, Velocity: 37
Note OFF: Time 490720, Note Name: D5
Note ON: Time 490720, Note Name: E5, Velocity: 42
Note OFF: Time 490800, Note Name: E5
Note ON: Time 490800, Note Name: D5, Velocity: 37
Note OFF: Time 490880, Note Name: D5
Note ON: Time 490880, Note Name: E5, Velocity: 46
Note OFF: Time 490960, Note Name: E5
Note ON: Time 490960, Note Name: D5, Velocity: 41
Note OFF: Time 491040, Note Name: D5
Note ON: Time 491040, Note Name: E5, Velocity: 48
Note OFF: Time 491120, Note Name: E5
Note ON: Time 491120, Note Name: D5, Velocity: 43
Note OFF: Time 491200, Note Name: D5
Note ON: Time 491200, Note Name: E5, Velocity: 49
Note OFF: Time 491280, Note Name: E5
Note ON: Time 491280, Note Name: D5, Velocity: 40
Note OFF: Time 491360, Note Name: D5
Note ON: Time 491360, Note Name: E5, Velocity: 49
Note OFF: Time 491440, Note Name: E5
Note ON: Time 491440, Note Name: D5, Velocity: 42
Note OFF: Time 491520, Note Name: D5
Note ON: Time 491520, Note Name: E5, Velocity: 46
Note OFF: Time 491600, Note Name: E5
Note ON: Time 491600, Note Name: D5, Velocity: 40
Note OFF: Time 491680, Note Name: D5
Note ON: Time 491680, Note Name: E5, Velocity: 47
Note OFF: Time 491760, Note Name: E5
Note ON: Time 491760, Note Name: D5, Velocity: 41
Note OFF: Time 491840, Note Name: D5
Note ON: Time 491840, Note Name: E5, Velocity: 49
Note OFF: Time 491920, Note Name: E5
Note ON: Time 491920, Note Name: D5, Velocity: 45
Note OFF: Time 492000, Note Name: D5
Note ON: Time 492000, Note Name: E5, Velocity: 52
Note OFF: Time 492080, Note Name: E5
Note ON: Time 492080, Note Name: D5, Velocity: 47
Note OFF: Time 492160, Note Name: D5
Note ON: Time 492160, Note Name: E5, Velocity: 53
Note OFF: Time 492240, Note Name: E5
Note ON: Time 492240, Note Name: D5, Velocity: 43
Note OFF: Time 492320, Note Name: D5
Note ON: Time 492320, Note Name: E5, Velocity: 52
Note OFF: Time 492400, Note Name: E5
Note ON: Time 492400, Note Name: D5, Velocity: 53
Note OFF: Time 492480, Note Name: D5
Note ON: Time 492480, Note Name: E5, Velocity: 50
Note OFF: Time 492560, Note Name: E5
Note ON: Time 492560, Note Name: D5, Velocity: 44
Note OFF: Time 492640, Note Name: D5
Note ON: Time 492640, Note Name: E5, Velocity: 50
Note OFF: Time 492720, Note Name: E5
Note ON: Time 492720, Note Name: D5, Velocity: 44
Note OFF: Time 492800, Note Name: D5
Note ON: Time 492800, Note Name: E5, Velocity: 54
Note OFF: Time 492880, Note Name: E5
Note ON: Time 492880, Note Name: D5, Velocity: 48
Note OFF: Time 492960, Note Name: D5
Note ON: Time 492960, Note Name: E5, Velocity: 58
Note OFF: Time 493040, Note Name: E5
Note ON: Time 493040, Note Name: D5, Velocity: 47
Note OFF: Time 493120, Note Name: D5
Note ON: Time 493120, Note Name: E5, Velocity: 56
Note OFF: Time 493200, Note Name: E5
Note ON: Time 493200, Note Name: D5, Velocity: 48
Note OFF: Time 493280, Note Name: D5
Note ON: Time 493280, Note Name: E5, Velocity: 58
Note OFF: Time 493360, Note Name: E5
Note ON: Time 493360, Note Name: D5, Velocity: 48
Note OFF: Time 493440, Note Name: D5
Track 2: Piano right
Note ON: Time 120, Note Name: E3, Velocity: 28
Note OFF: Time 240, Note Name: E3
Note ON: Time 240, Note Name: G3, Velocity: 30
Note OFF: Time 360, Note Name: G3
Note ON: Time 360, Note Name: C4, Velocity: 32
Note OFF: Time 480, Note Name: C4
Note ON: Time 480, Note Name: E4, Velocity: 34
Note OFF: Time 600, Note Name: E4
Note ON: Time 600, Note Name: E3, Velocity: 31
Note OFF: Time 720, Note Name: E3
Note ON: Time 720, Note Name: G3, Velocity: 31
Note OFF: Time 840, Note Name: G3
Note ON: Time 840, Note Name: C4, Velocity: 31
Note OFF: Time 960, Note Name: C4
Note ON: Time 960, Note Name: E4, Velocity: 35
Note OFF: Time 1080, Note Name: E4
Note ON: Time 1080, Note Name: E3, Velocity: 30
Note OFF: Time 1200, Note Name: E3
Note ON: Time 1200, Note Name: G3, Velocity: 31
Note OFF: Time 1320, Note Name: G3
Note ON: Time 1320, Note Name: C4, Velocity: 33
Note OFF: Time 1440, Note Name: C4
Note ON: Time 1440, Note Name: E4, Velocity: 36
Note OFF: Time 1560, Note Name: E4
Note ON: Time 1560, Note Name: E3, Velocity: 33
Note OFF: Time 1680, Note Name: E3
Note ON: Time 1680, Note Name: G3, Velocity: 33
Note OFF: Time 1800, Note Name: G3
Note ON: Time 1800, Note Name: C4, Velocity: 33
Note OFF: Time 1920, Note Name: C4
Note ON: Time 2040, Note Name: F3, Velocity: 28
Note OFF: Time 2160, Note Name: F3
Note ON: Time 2160, Note Name: G3, Velocity: 31
Note OFF: Time 2280, Note Name: G3
Note ON: Time 2280, Note Name: B3, Velocity: 33
Note OFF: Time 2400, Note Name: B3
Note ON: Time 2400, Note Name: D4, Velocity: 36
Note OFF: Time 2520, Note Name: D4
Note ON: Time 2520, Note Name: F3, Velocity: 33
Note OFF: Time 2640, Note Name: F3
Note ON: Time 2640, Note Name: G3, Velocity: 33
Note OFF: Time 2760, Note Name: G3
Note ON: Time 2760, Note Name: B3, Velocity: 34
Note OFF: Time 2880, Note Name: B3
Note ON: Time 3000, Note Name: E3, Velocity: 28
Note OFF: Time 3120, Note Name: E3
Note ON: Time 3120, Note Name: G3, Velocity: 30
Note OFF: Time 3240, Note Name: G3
Note ON: Time 3240, Note Name: C4, Velocity: 32
Note OFF: Time 3360, Note Name: C4
Note ON: Time 3360, Note Name: E4, Velocity: 34
Note OFF: Time 3480, Note Name: E4
Note ON: Time 3480, Note Name: E3, Velocity: 32
Note OFF: Time 3600, Note Name: E3
Note ON: Time 3600, Note Name: G3, Velocity: 32
Note OFF: Time 3720, Note Name: G3
Note ON: Time 3720, Note Name: C4, Velocity: 33
Note OFF: Time 3840, Note Name: C4
Note ON: Time 3960, Note Name: E3, Velocity: 28
Note OFF: Time 4080, Note Name: E3
Note ON: Time 4080, Note Name: G3, Velocity: 30
Note OFF: Time 4200, Note Name: G3
Note ON: Time 4200, Note Name: C4, Velocity: 32
Note OFF: Time 4320, Note Name: C4
Note ON: Time 4320, Note Name: E4, Velocity: 34
Note OFF: Time 4440, Note Name: E4
Note ON: Time 4440, Note Name: E3, Velocity: 31
Note OFF: Time 4560, Note Name: E3
Note ON: Time 4560, Note Name: G3, Velocity: 31
Note OFF: Time 4680, Note Name: G3
Note ON: Time 4680, Note Name: C4, Velocity: 31
Note OFF: Time 4800, Note Name: C4
Note ON: Time 4800, Note Name: E4, Velocity: 35
Note OFF: Time 4920, Note Name: E4
Note ON: Time 4920, Note Name: E3, Velocity: 30
Note OFF: Time 5040, Note Name: E3
Note ON: Time 5040, Note Name: G3, Velocity: 31
Note OFF: Time 5160, Note Name: G3
Note ON: Time 5160, Note Name: C4, Velocity: 33
Note OFF: Time 5280, Note Name: C4
Note ON: Time 5280, Note Name: E4, Velocity: 36
Note OFF: Time 5400, Note Name: E4
Note ON: Time 5400, Note Name: E3, Velocity: 33
Note OFF: Time 5520, Note Name: E3
Note ON: Time 5520, Note Name: G3, Velocity: 33
Note OFF: Time 5640, Note Name: G3
Note ON: Time 5640, Note Name: C4, Velocity: 33
Note OFF: Time 5760, Note Name: C4
Note ON: Time 5880, Note Name: F3, Velocity: 28
Note OFF: Time 6000, Note Name: F3
Note ON: Time 6000, Note Name: G3, Velocity: 31
Note OFF: Time 6120, Note Name: G3
Note ON: Time 6120, Note Name: B3, Velocity: 33
Note OFF: Time 6240, Note Name: B3
Note ON: Time 6240, Note Name: D4, Velocity: 36
Note OFF: Time 6360, Note Name: D4
Note ON: Time 6360, Note Name: F3, Velocity: 33
Note OFF: Time 6480, Note Name: F3
Note ON: Time 6480, Note Name: G3, Velocity: 33
Note OFF: Time 6600, Note Name: G3
Note ON: Time 6600, Note Name: B3, Velocity: 34
Note OFF: Time 6720, Note Name: B3
Note ON: Time 6960, Note Name: E3, Velocity: 30
Note OFF: Time 7080, Note Name: E3
Note ON: Time 7080, Note Name: G3, Velocity: 32
Note OFF: Time 7200, Note Name: G3
Note ON: Time 7200, Note Name: C4, Velocity: 34
Note OFF: Time 7320, Note Name: C4
Note ON: Time 7320, Note Name: E4, Velocity: 32
Note OFF: Time 7440, Note Name: E4
Note ON: Time 7440, Note Name: D4, Velocity: 32
Note OFF: Time 7560, Note Name: D4
Note ON: Time 7560, Note Name: C4, Velocity: 33
Note OFF: Time 7680, Note Name: C4
Note ON: Time 7680, Note Name: B3, Velocity: 35
Note OFF: Time 7800, Note Name: B3
Note ON: Time 7800, Note Name: G3, Velocity: 28
Note OFF: Time 7920, Note Name: G3
Note ON: Time 7920, Note Name: B3, Velocity: 30
Note OFF: Time 8040, Note Name: B3
Note ON: Time 8040, Note Name: D4, Velocity: 32
Note OFF: Time 8160, Note Name: D4
Note ON: Time 8160, Note Name: G4, Velocity: 34
Note OFF: Time 8280, Note Name: G4
Note ON: Time 8280, Note Name: G3, Velocity: 31
Note OFF: Time 8400, Note Name: G3
Note ON: Time 8400, Note Name: B3, Velocity: 31
Note OFF: Time 8520, Note Name: B3
Note ON: Time 8520, Note Name: D4, Velocity: 31
Note OFF: Time 8640, Note Name: D4
Note ON: Time 8640, Note Name: G4, Velocity: 35
Note OFF: Time 8760, Note Name: G4
Note ON: Time 8760, Note Name: G3, Velocity: 30
Note OFF: Time 8880, Note Name: G3
Note ON: Time 8880, Note Name: B3, Velocity: 31
Note OFF: Time 9000, Note Name: B3
Note ON: Time 9000, Note Name: D4, Velocity: 33
Note OFF: Time 9120, Note Name: D4
Note ON: Time 9120, Note Name: G4, Velocity: 36
Note OFF: Time 9240, Note Name: G4
Note ON: Time 9240, Note Name: G3, Velocity: 33
Note OFF: Time 9360, Note Name: G3
Note ON: Time 9360, Note Name: B3, Velocity: 33
Note OFF: Time 9480, Note Name: B3
Note ON: Time 9480, Note Name: G4, Velocity: 33
Note OFF: Time 9600, Note Name: G4
Note ON: Time 9720, Note Name: G3, Velocity: 28
Note OFF: Time 9840, Note Name: G3
Note ON: Time 9840, Note Name: C4, Velocity: 31
Note OFF: Time 9960, Note Name: C4
Note ON: Time 9960, Note Name: G4, Velocity: 33
Note OFF: Time 10080, Note Name: G4
Note ON: Time 10200, Note Name: G3, Velocity: 28
Note OFF: Time 10320, Note Name: G3
Note ON: Time 10320, Note Name: E4, Velocity: 31
Note OFF: Time 10440, Note Name: E4
Note ON: Time 10440, Note Name: G4, Velocity: 33
Note OFF: Time 10560, Note Name: G4
Note ON: Time 10680, Note Name: G3, Velocity: 28
Note OFF: Time 10800, Note Name: G3
Note ON: Time 10800, Note Name: D4, Velocity: 30
Note OFF: Time 10920, Note Name: D4
Note ON: Time 10920, Note Name: G4, Velocity: 32
Note OFF: Time 11040, Note Name: G4
Note ON: Time 11160, Note Name: G3, Velocity: 28
Note OFF: Time 11280, Note Name: G3
Note ON: Time 11280, Note Name: B3, Velocity: 30
Note OFF: Time 11400, Note Name: B3
Note ON: Time 11400, Note Name: G4, Velocity: 32
Note OFF: Time 11520, Note Name: G4
Note ON: Time 11640, Note Name: G3, Velocity: 28
Note OFF: Time 11760, Note Name: G3
Note ON: Time 11760, Note Name: B3, Velocity: 30
Note OFF: Time 11880, Note Name: B3
Note ON: Time 11880, Note Name: D4, Velocity: 32
Note OFF: Time 12000, Note Name: D4
Note ON: Time 12000, Note Name: G4, Velocity: 34
Note OFF: Time 12120, Note Name: G4
Note ON: Time 12120, Note Name: G3, Velocity: 31
Note OFF: Time 12240, Note Name: G3
Note ON: Time 12240, Note Name: B3, Velocity: 31
Note OFF: Time 12360, Note Name: B3
Note ON: Time 12360, Note Name: D4, Velocity: 31
Note OFF: Time 12480, Note Name: D4
Note ON: Time 12480, Note Name: G4, Velocity: 35
Note OFF: Time 12600, Note Name: G4
Note ON: Time 12600, Note Name: G3, Velocity: 30
Note OFF: Time 12720, Note Name: G3
Note ON: Time 12720, Note Name: B3, Velocity: 31
Note OFF: Time 12840, Note Name: B3
Note ON: Time 12840, Note Name: D4, Velocity: 33
Note OFF: Time 12960, Note Name: D4
Note ON: Time 12960, Note Name: G4, Velocity: 36
Note OFF: Time 13080, Note Name: G4
Note ON: Time 13080, Note Name: G3, Velocity: 33
Note OFF: Time 13200, Note Name: G3
Note ON: Time 13200, Note Name: B3, Velocity: 33
Note OFF: Time 13320, Note Name: B3
Note ON: Time 13320, Note Name: G4, Velocity: 33
Note OFF: Time 13440, Note Name: G4
Note ON: Time 13560, Note Name: G3, Velocity: 28
Note OFF: Time 13680, Note Name: G3
Note ON: Time 13680, Note Name: C4, Velocity: 31
Note OFF: Time 13800, Note Name: C4
Note ON: Time 13800, Note Name: G4, Velocity: 33
Note OFF: Time 13920, Note Name: G4
Note ON: Time 14040, Note Name: G3, Velocity: 28
Note OFF: Time 14160, Note Name: G3
Note ON: Time 14160, Note Name: D#4, Velocity: 31
Note OFF: Time 14280, Note Name: D#4
Note ON: Time 14280, Note Name: G4, Velocity: 33
Note OFF: Time 14400, Note Name: G4
Note ON: Time 14520, Note Name: G3, Velocity: 28
Note OFF: Time 14640, Note Name: G3
Note ON: Time 14640, Note Name: D4, Velocity: 30
Note OFF: Time 14760, Note Name: D4
Note ON: Time 14760, Note Name: G4, Velocity: 32
Note OFF: Time 14880, Note Name: G4
Note ON: Time 15000, Note Name: G3, Velocity: 28
Note OFF: Time 15120, Note Name: G3
Note ON: Time 15120, Note Name: B3, Velocity: 30
Note OFF: Time 15240, Note Name: B3
Note ON: Time 15240, Note Name: G4, Velocity: 32
Note OFF: Time 15360, Note Name: G4
Note ON: Time 15480, Note Name: G3, Velocity: 28
Note OFF: Time 15600, Note Name: G3
Note ON: Time 15600, Note Name: C4, Velocity: 31
Note OFF: Time 15720, Note Name: C4
Note ON: Time 15720, Note Name: G4, Velocity: 33
Note OFF: Time 15840, Note Name: G4
Note ON: Time 15960, Note Name: G3, Velocity: 28
Note OFF: Time 16080, Note Name: G3
Note ON: Time 16080, Note Name: E4, Velocity: 31
Note OFF: Time 16200, Note Name: E4
Note ON: Time 16200, Note Name: G4, Velocity: 33
Note OFF: Time 16320, Note Name: G4
Note ON: Time 16440, Note Name: G3, Velocity: 28
Note OFF: Time 16560, Note Name: G3
Note ON: Time 16560, Note Name: D4, Velocity: 30
Note OFF: Time 16680, Note Name: D4
Note ON: Time 16680, Note Name: G4, Velocity: 32
Note OFF: Time 16800, Note Name: G4
Note ON: Time 16920, Note Name: G3, Velocity: 28
Note OFF: Time 17040, Note Name: G3
Note ON: Time 17040, Note Name: B3, Velocity: 30
Note OFF: Time 17160, Note Name: B3
Note ON: Time 17160, Note Name: G4, Velocity: 32
Note OFF: Time 17280, Note Name: G4
Note ON: Time 17400, Note Name: G3, Velocity: 28
Note OFF: Time 17520, Note Name: G3
Note ON: Time 17520, Note Name: C4, Velocity: 31
Note OFF: Time 17640, Note Name: C4
Note ON: Time 17640, Note Name: G4, Velocity: 33
Note OFF: Time 17760, Note Name: G4
Note ON: Time 17880, Note Name: G3, Velocity: 28
Note OFF: Time 18000, Note Name: G3
Note ON: Time 18000, Note Name: C4, Velocity: 31
Note OFF: Time 18120, Note Name: C4
Note ON: Time 18120, Note Name: D#4, Velocity: 33
Note OFF: Time 18240, Note Name: D#4
Note ON: Time 18360, Note Name: G3, Velocity: 28
Note OFF: Time 18480, Note Name: G3
Note ON: Time 18480, Note Name: B3, Velocity: 30
Note OFF: Time 18600, Note Name: B3
Note ON: Time 18600, Note Name: D4, Velocity: 32
Note OFF: Time 18720, Note Name: D4
Note ON: Time 18840, Note Name: G3, Velocity: 28
Note OFF: Time 18960, Note Name: G3
Note ON: Time 18960, Note Name: C4, Velocity: 30
Note OFF: Time 19080, Note Name: C4
Note ON: Time 19080, Note Name: D#4, Velocity: 32
Note OFF: Time 19200, Note Name: D#4
Note ON: Time 19320, Note Name: G3, Velocity: 28
Note OFF: Time 19440, Note Name: G3
Note ON: Time 19440, Note Name: B3, Velocity: 30
Note OFF: Time 19560, Note Name: B3
Note ON: Time 19560, Note Name: D4, Velocity: 32
Note OFF: Time 19680, Note Name: D4
Note ON: Time 19800, Note Name: G3, Velocity: 28
Note OFF: Time 19920, Note Name: G3
Note ON: Time 19920, Note Name: C4, Velocity: 30
Note OFF: Time 20040, Note Name: C4
Note ON: Time 20040, Note Name: D#4, Velocity: 32
Note OFF: Time 20160, Note Name: D#4
Note ON: Time 20280, Note Name: G3, Velocity: 28
Note OFF: Time 20400, Note Name: G3
Note ON: Time 20400, Note Name: B3, Velocity: 30
Note OFF: Time 20520, Note Name: B3
Note ON: Time 20520, Note Name: D4, Velocity: 32
Note OFF: Time 20640, Note Name: D4
Note ON: Time 20760, Note Name: G3, Velocity: 28
Note OFF: Time 20880, Note Name: G3
Note ON: Time 20880, Note Name: A3, Velocity: 30
Note OFF: Time 21000, Note Name: A3
Note ON: Time 21000, Note Name: C4, Velocity: 32
Note OFF: Time 21120, Note Name: C4
Note ON: Time 21240, Note Name: G3, Velocity: 36
Note OFF: Time 21360, Note Name: G3
Note ON: Time 21360, Note Name: B3, Velocity: 38
Note OFF: Time 21480, Note Name: B3
Note ON: Time 21480, Note Name: D4, Velocity: 35
Note OFF: Time 21600, Note Name: D4
Note ON: Time 21600, Note Name: G4, Velocity: 43
Note OFF: Time 21720, Note Name: G4
Note ON: Time 21720, Note Name: B4, Velocity: 39
Note OFF: Time 21840, Note Name: B4
Note ON: Time 21840, Note Name: A4, Velocity: 41
Note OFF: Time 21960, Note Name: A4
Note ON: Time 21960, Note Name: F#4, Velocity: 38
Note OFF: Time 22080, Note Name: F#4
Note ON: Time 22080, Note Name: G4, Velocity: 43
Note OFF: Time 22200, Note Name: G4
Note ON: Time 22200, Note Name: B3, Velocity: 38
Note OFF: Time 22320, Note Name: B3
Note ON: Time 22320, Note Name: D4, Velocity: 41
Note OFF: Time 22440, Note Name: D4
Note ON: Time 22440, Note Name: G4, Velocity: 38
Note OFF: Time 22560, Note Name: G4
Note ON: Time 22560, Note Name: B4, Velocity: 46
Note OFF: Time 22680, Note Name: B4
Note ON: Time 22680, Note Name: D5, Velocity: 41
Note OFF: Time 22800, Note Name: D5
Note ON: Time 22800, Note Name: C5, Velocity: 41
Note OFF: Time 22920, Note Name: C5
Note ON: Time 22920, Note Name: A4, Velocity: 37
Note OFF: Time 23040, Note Name: A4
Note ON: Time 23040, Note Name: B4, Velocity: 47
Note OFF: Time 23160, Note Name: B4
Note ON: Time 23160, Note Name: G4, Velocity: 42
Note OFF: Time 23280, Note Name: G4
Note ON: Time 23280, Note Name: B4, Velocity: 47
Note OFF: Time 23400, Note Name: B4
Note ON: Time 23400, Note Name: D5, Velocity: 43
Note OFF: Time 23520, Note Name: D5
Note ON: Time 23520, Note Name: G5, Velocity: 51
Note OFF: Time 23640, Note Name: G5
Note ON: Time 23640, Note Name: B5, Velocity: 46
Note OFF: Time 23760, Note Name: B5
Note ON: Time 23760, Note Name: A5, Velocity: 48
Note OFF: Time 23880, Note Name: A5
Note ON: Time 23880, Note Name: F#5, Velocity: 43
Note OFF: Time 24000, Note Name: F#5
Note ON: Time 24000, Note Name: G5, Velocity: 52
Note OFF: Time 24120, Note Name: G5
Note ON: Time 24120, Note Name: B5, Velocity: 52
Note OFF: Time 24240, Note Name: B5
Note ON: Time 24240, Note Name: A5, Velocity: 53
Note OFF: Time 24360, Note Name: A5
Note ON: Time 24360, Note Name: C6, Velocity: 54
Note OFF: Time 24480, Note Name: C6
Note ON: Time 24480, Note Name: B5, Velocity: 55
Note OFF: Time 24600, Note Name: B5
Note ON: Time 24600, Note Name: D6, Velocity: 56
Note OFF: Time 24720, Note Name: D6
Note ON: Time 24720, Note Name: C#6, Velocity: 56
Note OFF: Time 24840, Note Name: C#6
Note ON: Time 24840, Note Name: E6, Velocity: 57
Note OFF: Time 24960, Note Name: E6
Note ON: Time 24960, Note Name: D6, Velocity: 58
Note OFF: Time 25080, Note Name: D6
Note ON: Time 25080, Note Name: F6, Velocity: 59
Note OFF: Time 25200, Note Name: F6
Note ON: Time 25200, Note Name: E6, Velocity: 60
Note OFF: Time 25320, Note Name: E6
Note ON: Time 25320, Note Name: G6, Velocity: 56
Note OFF: Time 25440, Note Name: G6
Note ON: Time 25440, Note Name: F6, Velocity: 61
Note OFF: Time 25560, Note Name: F6
Note ON: Time 25560, Note Name: A6, Velocity: 62
Note OFF: Time 25680, Note Name: A6
Note ON: Time 25680, Note Name: F6, Velocity: 63
Note OFF: Time 25800, Note Name: F6
Note ON: Time 25800, Note Name: E6, Velocity: 59
Note OFF: Time 25920, Note Name: E6
Note ON: Time 25920, Note Name: D6, Velocity: 65
Note OFF: Time 26040, Note Name: D6
Note ON: Time 26040, Note Name: F6, Velocity: 66
Note OFF: Time 26160, Note Name: F6
Note ON: Time 26160, Note Name: E6, Velocity: 66
Note OFF: Time 26280, Note Name: E6
Note ON: Time 26280, Note Name: G6, Velocity: 64
Note OFF: Time 26400, Note Name: G6
Note ON: Time 26400, Note Name: F6, Velocity: 68
Note OFF: Time 26520, Note Name: F6
Note ON: Time 26520, Note Name: A6, Velocity: 69
Note OFF: Time 26640, Note Name: A6
Note ON: Time 26640, Note Name: F6, Velocity: 70
Note OFF: Time 26760, Note Name: F6
Note ON: Time 26760, Note Name: E6, Velocity: 66
Note OFF: Time 26880, Note Name: E6
Note ON: Time 26880, Note Name: D6, Velocity: 69
Note OFF: Time 27000, Note Name: D6
Note ON: Time 27000, Note Name: F6, Velocity: 65
Note OFF: Time 27120, Note Name: F6
Note ON: Time 27120, Note Name: E6, Velocity: 67
Note OFF: Time 27240, Note Name: E6
Note ON: Time 27240, Note Name: C6, Velocity: 60
Note OFF: Time 27360, Note Name: C6
Note ON: Time 27360, Note Name: B5, Velocity: 64
Note OFF: Time 27480, Note Name: B5
Note ON: Time 27480, Note Name: D6, Velocity: 59
Note OFF: Time 27600, Note Name: D6
Note ON: Time 27600, Note Name: C6, Velocity: 62
Note OFF: Time 27720, Note Name: C6
Note ON: Time 27720, Note Name: A5, Velocity: 55
Note OFF: Time 27840, Note Name: A5
Note ON: Time 27840, Note Name: G5, Velocity: 59
Note OFF: Time 27960, Note Name: G5
Note ON: Time 27960, Note Name: B5, Velocity: 54
Note OFF: Time 28080, Note Name: B5
Note ON: Time 28080, Note Name: A5, Velocity: 56
Note OFF: Time 28200, Note Name: A5
Note ON: Time 28200, Note Name: F5, Velocity: 51
Note OFF: Time 28320, Note Name: F5
Note ON: Time 28320, Note Name: E5, Velocity: 54
Note OFF: Time 28440, Note Name: E5
Note ON: Time 28440, Note Name: G5, Velocity: 46
Note OFF: Time 28560, Note Name: G5
Note ON: Time 28560, Note Name: F5, Velocity: 49
Note OFF: Time 28680, Note Name: F5
Note ON: Time 28680, Note Name: D5, Velocity: 42
Note OFF: Time 28800, Note Name: D5
Note ON: Time 28800, Note Name: C5, Velocity: 49
Note OFF: Time 28920, Note Name: C5
Note ON: Time 29280, Note Name: G6, Velocity: 50
Note ON: Time 29280, Note Name: G5, Velocity: 50
Note OFF: Time 29520, Note Name: G5
Note OFF: Time 29520, Note Name: G6
Note ON: Time 29760, Note Name: G6, Velocity: 54
Note ON: Time 29760, Note Name: G5, Velocity: 54
Note OFF: Time 30480, Note Name: G5
Note OFF: Time 30480, Note Name: G6
Note ON: Time 30480, Note Name: E6, Velocity: 47
Note ON: Time 30480, Note Name: E5, Velocity: 47
Note OFF: Time 30720, Note Name: E5
Note OFF: Time 30720, Note Name: E6
Note ON: Time 30720, Note Name: D6, Velocity: 50
Note ON: Time 30720, Note Name: D5, Velocity: 50
Note OFF: Time 31200, Note Name: D5
Note OFF: Time 31200, Note Name: D6
Note ON: Time 31200, Note Name: G5, Velocity: 41
Note ON: Time 31200, Note Name: G4, Velocity: 41
Note OFF: Time 31680, Note Name: G4
Note OFF: Time 31680, Note Name: G5
Note ON: Time 31680, Note Name: C6, Velocity: 50
Note ON: Time 31680, Note Name: C5, Velocity: 50
Note OFF: Time 32160, Note Name: C5
Note OFF: Time 32160, Note Name: C6
Note ON: Time 32160, Note Name: E6, Velocity: 47
Note ON: Time 32160, Note Name: E5, Velocity: 47
Note OFF: Time 32400, Note Name: E5
Note OFF: Time 32400, Note Name: E6
Note ON: Time 33120, Note Name: G6, Velocity: 50
Note ON: Time 33120, Note Name: G5, Velocity: 50
Note OFF: Time 33360, Note Name: G5
Note OFF: Time 33360, Note Name: G6
Note ON: Time 33600, Note Name: G6, Velocity: 54
Note ON: Time 33600, Note Name: G5, Velocity: 54
Note OFF: Time 34320, Note Name: G5
Note OFF: Time 34320, Note Name: G6
Note ON: Time 34320, Note Name: E6, Velocity: 47
Note ON: Time 34320, Note Name: E5, Velocity: 47
Note OFF: Time 34560, Note Name: E5
Note OFF: Time 34560, Note Name: E6
Note ON: Time 34560, Note Name: D6, Velocity: 50
Note ON: Time 34560, Note Name: D5, Velocity: 50
Note OFF: Time 35040, Note Name: D5
Note OFF: Time 35040, Note Name: D6
Note ON: Time 35040, Note Name: G5, Velocity: 41
Note ON: Time 35040, Note Name: G4, Velocity: 41
Note OFF: Time 35520, Note Name: G4
Note OFF: Time 35520, Note Name: G5
Note ON: Time 35520, Note Name: C6, Velocity: 50
Note ON: Time 35520, Note Name: C5, Velocity: 50
Note OFF: Time 35760, Note Name: C5
Note OFF: Time 35760, Note Name: C6
Note ON: Time 36960, Note Name: F6, Velocity: 50
Note ON: Time 36960, Note Name: F5, Velocity: 50
Note OFF: Time 37200, Note Name: F5
Note OFF: Time 37200, Note Name: F6
Note ON: Time 37440, Note Name: F6, Velocity: 54
Note ON: Time 37440, Note Name: F5, Velocity: 54
Note OFF: Time 38160, Note Name: F5
Note OFF: Time 38160, Note Name: F6
Note ON: Time 38160, Note Name: D6, Velocity: 47
Note ON: Time 38160, Note Name: D5, Velocity: 47
Note OFF: Time 38400, Note Name: D5
Note OFF: Time 38400, Note Name: D6
Note ON: Time 38400, Note Name: E6, Velocity: 50
Note ON: Time 38400, Note Name: E5, Velocity: 50
Note OFF: Time 38880, Note Name: E5
Note OFF: Time 38880, Note Name: E6
Note ON: Time 38880, Note Name: C6, Velocity: 41
Note ON: Time 38880, Note Name: C5, Velocity: 41
Note OFF: Time 39360, Note Name: C5
Note OFF: Time 39360, Note Name: C6
Note ON: Time 39360, Note Name: B5, Velocity: 50
Note ON: Time 39360, Note Name: B4, Velocity: 50
Note OFF: Time 39840, Note Name: B4
Note OFF: Time 39840, Note Name: B5
Note ON: Time 39840, Note Name: D6, Velocity: 47
Note ON: Time 39840, Note Name: D5, Velocity: 47
Note OFF: Time 40080, Note Name: D5
Note OFF: Time 40080, Note Name: D6
Note ON: Time 40800, Note Name: F6, Velocity: 50
Note ON: Time 40800, Note Name: F5, Velocity: 50
Note OFF: Time 41040, Note Name: F5
Note OFF: Time 41040, Note Name: F6
Note ON: Time 41280, Note Name: F6, Velocity: 54
Note ON: Time 41280, Note Name: F5, Velocity: 54
Note OFF: Time 42000, Note Name: F5
Note OFF: Time 42000, Note Name: F6
Note ON: Time 42000, Note Name: D6, Velocity: 47
Note ON: Time 42000, Note Name: D5, Velocity: 47
Note OFF: Time 42240, Note Name: D5
Note OFF: Time 42240, Note Name: D6
Note ON: Time 42240, Note Name: D#6, Velocity: 50
Note ON: Time 42240, Note Name: D#5, Velocity: 50
Note OFF: Time 42720, Note Name: D#5
Note OFF: Time 42720, Note Name: D#6
Note ON: Time 42720, Note Name: C6, Velocity: 41
Note ON: Time 42720, Note Name: C5, Velocity: 41
Note OFF: Time 43200, Note Name: C5
Note OFF: Time 43200, Note Name: C6
Note ON: Time 43200, Note Name: B5, Velocity: 50
Note ON: Time 43200, Note Name: B4, Velocity: 50
Note OFF: Time 43680, Note Name: B4
Note OFF: Time 43680, Note Name: B5
Note ON: Time 43680, Note Name: D6, Velocity: 47
Note ON: Time 43680, Note Name: D5, Velocity: 47
Note OFF: Time 44160, Note Name: D5
Note OFF: Time 44160, Note Name: D6
Note ON: Time 44160, Note Name: E6, Velocity: 50
Note ON: Time 44160, Note Name: E5, Velocity: 50
Note OFF: Time 44640, Note Name: E5
Note OFF: Time 44640, Note Name: E6
Note ON: Time 44640, Note Name: C6, Velocity: 42
Note ON: Time 44640, Note Name: C5, Velocity: 42
Note OFF: Time 45120, Note Name: C5
Note OFF: Time 45120, Note Name: C6
Note ON: Time 45120, Note Name: B5, Velocity: 53
Note ON: Time 45120, Note Name: B4, Velocity: 53
Note OFF: Time 45600, Note Name: B4
Note OFF: Time 45600, Note Name: B5
Note ON: Time 45600, Note Name: D6, Velocity: 52
Note ON: Time 45600, Note Name: D5, Velocity: 52
Note OFF: Time 46080, Note Name: D5
Note OFF: Time 46080, Note Name: D6
Note ON: Time 46080, Note Name: D#6, Velocity: 50
Note ON: Time 46080, Note Name: D#5, Velocity: 50
Note OFF: Time 46560, Note Name: D#5
Note OFF: Time 46560, Note Name: D#6
Note ON: Time 46560, Note Name: C6, Velocity: 41
Note ON: Time 46560, Note Name: C5, Velocity: 41
Note OFF: Time 47040, Note Name: C5
Note OFF: Time 47040, Note Name: C6
Note ON: Time 47040, Note Name: G5, Velocity: 50
Note OFF: Time 47520, Note Name: G5
Note ON: Time 47520, Note Name: G5, Velocity: 47
Note OFF: Time 48000, Note Name: G5
Note ON: Time 48000, Note Name: A5, Velocity: 33
Note OFF: Time 48080, Note Name: A5
Note ON: Time 48080, Note Name: G5, Velocity: 33
Note OFF: Time 48160, Note Name: G5
Note ON: Time 48160, Note Name: A5, Velocity: 33
Note OFF: Time 48240, Note Name: A5
Note ON: Time 48240, Note Name: G5, Velocity: 33
Note OFF: Time 48320, Note Name: G5
Note ON: Time 48320, Note Name: A5, Velocity: 34
Note OFF: Time 48400, Note Name: A5
Note ON: Time 48400, Note Name: G5, Velocity: 34
Note OFF: Time 48480, Note Name: G5
Note ON: Time 48480, Note Name: A5, Velocity: 35
Note OFF: Time 48560, Note Name: A5
Note ON: Time 48560, Note Name: G5, Velocity: 35
Note OFF: Time 48640, Note Name: G5
Note ON: Time 48640, Note Name: A5, Velocity: 35
Note OFF: Time 48720, Note Name: A5
Note ON: Time 48720, Note Name: G5, Velocity: 35
Note OFF: Time 48800, Note Name: G5
Note ON: Time 48800, Note Name: A5, Velocity: 36
Note OFF: Time 48880, Note Name: A5
Note ON: Time 48880, Note Name: G5, Velocity: 36
Note OFF: Time 48960, Note Name: G5
Note ON: Time 48960, Note Name: A5, Velocity: 37
Note OFF: Time 49040, Note Name: A5
Note ON: Time 49040, Note Name: G5, Velocity: 37
Note OFF: Time 49120, Note Name: G5
Note ON: Time 49120, Note Name: A5, Velocity: 37
Note OFF: Time 49200, Note Name: A5
Note ON: Time 49200, Note Name: G5, Velocity: 39
Note OFF: Time 49280, Note Name: G5
Note ON: Time 49280, Note Name: A5, Velocity: 39
Note OFF: Time 49360, Note Name: A5
Note ON: Time 49360, Note Name: G5, Velocity: 39
Note OFF: Time 49440, Note Name: G5
Note ON: Time 49440, Note Name: A5, Velocity: 39
Note OFF: Time 49520, Note Name: A5
Note ON: Time 49520, Note Name: G5, Velocity: 39
Note OFF: Time 49600, Note Name: G5
Note ON: Time 49600, Note Name: A5, Velocity: 41
Note OFF: Time 49680, Note Name: A5
Note ON: Time 49680, Note Name: G5, Velocity: 41
Note OFF: Time 49760, Note Name: G5
Note ON: Time 49760, Note Name: A5, Velocity: 41
Note OFF: Time 49840, Note Name: A5
Note ON: Time 49840, Note Name: G5, Velocity: 41
Note OFF: Time 49920, Note Name: G5
Note ON: Time 49920, Note Name: A5, Velocity: 42
Note OFF: Time 50000, Note Name: A5
Note ON: Time 50000, Note Name: G5, Velocity: 42
Note OFF: Time 50080, Note Name: G5
Note ON: Time 50080, Note Name: A5, Velocity: 42
Note OFF: Time 50160, Note Name: A5
Note ON: Time 50160, Note Name: G5, Velocity: 42
Note OFF: Time 50240, Note Name: G5
Note ON: Time 50240, Note Name: A5, Velocity: 42
Note OFF: Time 50320, Note Name: A5
Note ON: Time 50320, Note Name: G5, Velocity: 44
Note OFF: Time 50400, Note Name: G5
Note ON: Time 50400, Note Name: A5, Velocity: 44
Note OFF: Time 50480, Note Name: A5
Note ON: Time 50480, Note Name: G5, Velocity: 44
Note OFF: Time 50560, Note Name: G5
Note ON: Time 50560, Note Name: A5, Velocity: 45
Note OFF: Time 50640, Note Name: A5
Note ON: Time 50640, Note Name: G5, Velocity: 45
Note OFF: Time 50720, Note Name: G5
Note ON: Time 50720, Note Name: A5, Velocity: 45
Note OFF: Time 50800, Note Name: A5
Note ON: Time 50800, Note Name: G5, Velocity: 46
Note OFF: Time 50880, Note Name: G5
Note ON: Time 50880, Note Name: A5, Velocity: 46
Note OFF: Time 50960, Note Name: A5
Note ON: Time 50960, Note Name: G5, Velocity: 47
Note OFF: Time 51040, Note Name: G5
Note ON: Time 51040, Note Name: A5, Velocity: 47
Note OFF: Time 51120, Note Name: A5
Note ON: Time 51120, Note Name: G5, Velocity: 48
Note OFF: Time 51200, Note Name: G5
Note ON: Time 51200, Note Name: A5, Velocity: 49
Note OFF: Time 51280, Note Name: A5
Note ON: Time 51280, Note Name: G5, Velocity: 49
Note OFF: Time 51360, Note Name: G5
Note ON: Time 51360, Note Name: A5, Velocity: 49
Note OFF: Time 51440, Note Name: A5
Note ON: Time 51440, Note Name: G5, Velocity: 49
Note OFF: Time 51520, Note Name: G5
Note ON: Time 51520, Note Name: A5, Velocity: 50
Note OFF: Time 51600, Note Name: A5
Note ON: Time 51600, Note Name: G5, Velocity: 50
Note OFF: Time 51680, Note Name: G5
Note ON: Time 51680, Note Name: A5, Velocity: 51
Note OFF: Time 51760, Note Name: A5
Note ON: Time 51760, Note Name: G5, Velocity: 51
Note OFF: Time 51840, Note Name: G5
Note ON: Time 52320, Note Name: G6, Velocity: 89
Note OFF: Time 52560, Note Name: G6
Note ON: Time 52800, Note Name: G6, Velocity: 90
Note OFF: Time 53520, Note Name: G6
Note ON: Time 53520, Note Name: E6, Velocity: 85
Note OFF: Time 53760, Note Name: E6
Note ON: Time 53760, Note Name: D6, Velocity: 90
Note OFF: Time 54240, Note Name: D6
Note ON: Time 54240, Note Name: G5, Velocity: 84
Note OFF: Time 54310, Note Name: G5
Note ON: Time 54720, Note Name: C6, Velocity: 87
Note OFF: Time 55200, Note Name: C6
Note ON: Time 55200, Note Name: E6, Velocity: 84
Note OFF: Time 55440, Note Name: E6
Note ON: Time 56160, Note Name: G6, Velocity: 90
Note OFF: Time 56400, Note Name: G6
Note ON: Time 56640, Note Name: G6, Velocity: 92
Note OFF: Time 57360, Note Name: G6
Note ON: Time 57360, Note Name: E6, Velocity: 84
Note OFF: Time 57600, Note Name: E6
Note ON: Time 57600, Note Name: D6, Velocity: 90
Note OFF: Time 58080, Note Name: D6
Note ON: Time 58080, Note Name: G5, Velocity: 82
Note OFF: Time 58150, Note Name: G5
Note ON: Time 58560, Note Name: C6, Velocity: 86
Note OFF: Time 58800, Note Name: C6
Note ON: Time 59040, Note Name: C4, Velocity: 68
Note OFF: Time 59120, Note Name: C4
Note ON: Time 59120, Note Name: E4, Velocity: 62
Note OFF: Time 59200, Note Name: E4
Note ON: Time 59200, Note Name: C4, Velocity: 62
Note OFF: Time 59280, Note Name: C4
Note ON: Time 59280, Note Name: G3, Velocity: 62
Note OFF: Time 59360, Note Name: G3
Note ON: Time 59360, Note Name: E3, Velocity: 62
Note OFF: Time 59440, Note Name: E3
Note ON: Time 59440, Note Name: G3, Velocity: 62
Note OFF: Time 59520, Note Name: G3
Note ON: Time 59520, Note Name: C4, Velocity: 68
Note OFF: Time 59600, Note Name: C4
Note ON: Time 59600, Note Name: F4, Velocity: 62
Note OFF: Time 59680, Note Name: F4
Note ON: Time 59680, Note Name: C4, Velocity: 62
Note OFF: Time 59760, Note Name: C4
Note ON: Time 59760, Note Name: A3, Velocity: 62
Note OFF: Time 59840, Note Name: A3
Note ON: Time 59840, Note Name: F3, Velocity: 62
Note OFF: Time 59920, Note Name: F3
Note ON: Time 59920, Note Name: A3, Velocity: 62
Note OFF: Time 60000, Note Name: A3
Note ON: Time 60000, Note Name: C4, Velocity: 68
Note OFF: Time 60080, Note Name: C4
Note ON: Time 60080, Note Name: E4, Velocity: 61
Note OFF: Time 60160, Note Name: E4
Note ON: Time 60160, Note Name: C4, Velocity: 61
Note OFF: Time 60240, Note Name: C4
Note ON: Time 60240, Note Name: G3, Velocity: 61
Note OFF: Time 60320, Note Name: G3
Note ON: Time 60320, Note Name: E3, Velocity: 61
Note OFF: Time 60400, Note Name: E3
Note ON: Time 60400, Note Name: G3, Velocity: 61
Note OFF: Time 60480, Note Name: G3
Note ON: Time 60480, Note Name: C4, Velocity: 63
Note OFF: Time 60560, Note Name: C4
Note ON: Time 60560, Note Name: D4, Velocity: 59
Note OFF: Time 60640, Note Name: D4
Note ON: Time 60640, Note Name: C4, Velocity: 59
Note OFF: Time 60720, Note Name: C4
Note ON: Time 60720, Note Name: F3, Velocity: 59
Note OFF: Time 60800, Note Name: F3
Note ON: Time 60800, Note Name: D3, Velocity: 59
Note OFF: Time 60880, Note Name: D3
Note ON: Time 60880, Note Name: F3, Velocity: 59
Note OFF: Time 60960, Note Name: F3
Note ON: Time 60960, Note Name: C4, Velocity: 68
Note OFF: Time 61040, Note Name: C4
Note ON: Time 61040, Note Name: D#4, Velocity: 61
Note OFF: Time 61120, Note Name: D#4
Note ON: Time 61120, Note Name: C4, Velocity: 61
Note OFF: Time 61200, Note Name: C4
Note ON: Time 61200, Note Name: F#3, Velocity: 61
Note OFF: Time 61280, Note Name: F#3
Note ON: Time 61280, Note Name: D#3, Velocity: 61
Note OFF: Time 61360, Note Name: D#3
Note ON: Time 61360, Note Name: F#3, Velocity: 61
Note OFF: Time 61440, Note Name: F#3
Note ON: Time 61440, Note Name: C4, Velocity: 68
Note OFF: Time 61520, Note Name: C4
Note ON: Time 61520, Note Name: E4, Velocity: 62
Note OFF: Time 61600, Note Name: E4
Note ON: Time 61600, Note Name: C4, Velocity: 62
Note OFF: Time 61680, Note Name: C4
Note ON: Time 61680, Note Name: G3, Velocity: 62
Note OFF: Time 61760, Note Name: G3
Note ON: Time 61760, Note Name: E3, Velocity: 62
Note OFF: Time 61840, Note Name: E3
Note ON: Time 61840, Note Name: G3, Velocity: 62
Note OFF: Time 61920, Note Name: G3
Note ON: Time 61920, Note Name: B3, Velocity: 68
Note OFF: Time 62000, Note Name: B3
Note ON: Time 62000, Note Name: D4, Velocity: 61
Note OFF: Time 62080, Note Name: D4
Note ON: Time 62080, Note Name: B3, Velocity: 61
Note OFF: Time 62160, Note Name: B3
Note ON: Time 62160, Note Name: F3, Velocity: 61
Note OFF: Time 62240, Note Name: F3
Note ON: Time 62240, Note Name: D3, Velocity: 61
Note OFF: Time 62320, Note Name: D3
Note ON: Time 62320, Note Name: F3, Velocity: 61
Note OFF: Time 62400, Note Name: F3
Note ON: Time 62400, Note Name: G3, Velocity: 68
Note OFF: Time 62480, Note Name: G3
Note ON: Time 62480, Note Name: C4, Velocity: 62
Note OFF: Time 62560, Note Name: C4
Note ON: Time 62560, Note Name: G3, Velocity: 62
Note OFF: Time 62640, Note Name: G3
Note ON: Time 62640, Note Name: E3, Velocity: 62
Note OFF: Time 62720, Note Name: E3
Note ON: Time 62720, Note Name: C3, Velocity: 62
Note OFF: Time 62800, Note Name: C3
Note ON: Time 62800, Note Name: E3, Velocity: 62
Note OFF: Time 62880, Note Name: E3
Note ON: Time 62880, Note Name: E4, Velocity: 68
Note OFF: Time 62960, Note Name: E4
Note ON: Time 62960, Note Name: G4, Velocity: 62
Note OFF: Time 63040, Note Name: G4
Note ON: Time 63040, Note Name: E4, Velocity: 62
Note OFF: Time 63120, Note Name: E4
Note ON: Time 63120, Note Name: C4, Velocity: 62
Note OFF: Time 63200, Note Name: C4
Note ON: Time 63200, Note Name: G3, Velocity: 62
Note OFF: Time 63280, Note Name: G3
Note ON: Time 63280, Note Name: C4, Velocity: 62
Note OFF: Time 63360, Note Name: C4
Note ON: Time 63360, Note Name: F4, Velocity: 68
Note OFF: Time 63440, Note Name: F4
Note ON: Time 63440, Note Name: A4, Velocity: 62
Note OFF: Time 63520, Note Name: A4
Note ON: Time 63520, Note Name: F4, Velocity: 62
Note OFF: Time 63600, Note Name: F4
Note ON: Time 63600, Note Name: C4, Velocity: 62
Note OFF: Time 63680, Note Name: C4
Note ON: Time 63680, Note Name: A3, Velocity: 62
Note OFF: Time 63760, Note Name: A3
Note ON: Time 63760, Note Name: C4, Velocity: 62
Note OFF: Time 63840, Note Name: C4
Note ON: Time 63840, Note Name: E4, Velocity: 68
Note OFF: Time 63920, Note Name: E4
Note ON: Time 63920, Note Name: G4, Velocity: 61
Note OFF: Time 64000, Note Name: G4
Note ON: Time 64000, Note Name: E4, Velocity: 61
Note OFF: Time 64080, Note Name: E4
Note ON: Time 64080, Note Name: C4, Velocity: 61
Note OFF: Time 64160, Note Name: C4
Note ON: Time 64160, Note Name: G3, Velocity: 61
Note OFF: Time 64240, Note Name: G3
Note ON: Time 64240, Note Name: C4, Velocity: 61
Note OFF: Time 64320, Note Name: C4
Note ON: Time 64320, Note Name: D4, Velocity: 63
Note OFF: Time 64400, Note Name: D4
Note ON: Time 64400, Note Name: F4, Velocity: 59
Note OFF: Time 64480, Note Name: F4
Note ON: Time 64480, Note Name: D4, Velocity: 59
Note OFF: Time 64560, Note Name: D4
Note ON: Time 64560, Note Name: C4, Velocity: 59
Note OFF: Time 64640, Note Name: C4
Note ON: Time 64640, Note Name: F3, Velocity: 59
Note OFF: Time 64720, Note Name: F3
Note ON: Time 64720, Note Name: C4, Velocity: 59
Note OFF: Time 64800, Note Name: C4
Note ON: Time 64800, Note Name: D#4, Velocity: 68
Note OFF: Time 64880, Note Name: D#4
Note ON: Time 64880, Note Name: F#4, Velocity: 61
Note OFF: Time 64960, Note Name: F#4
Note ON: Time 64960, Note Name: D#4, Velocity: 61
Note OFF: Time 65040, Note Name: D#4
Note ON: Time 65040, Note Name: C4, Velocity: 61
Note OFF: Time 65120, Note Name: C4
Note ON: Time 65120, Note Name: F#3, Velocity: 61
Note OFF: Time 65200, Note Name: F#3
Note ON: Time 65200, Note Name: C4, Velocity: 61
Note OFF: Time 65280, Note Name: C4
Note ON: Time 65280, Note Name: E4, Velocity: 68
Note OFF: Time 65360, Note Name: E4
Note ON: Time 65360, Note Name: G4, Velocity: 62
Note OFF: Time 65440, Note Name: G4
Note ON: Time 65440, Note Name: E4, Velocity: 62
Note OFF: Time 65520, Note Name: E4
Note ON: Time 65520, Note Name: C4, Velocity: 62
Note OFF: Time 65600, Note Name: C4
Note ON: Time 65600, Note Name: G3, Velocity: 62
Note OFF: Time 65680, Note Name: G3
Note ON: Time 65680, Note Name: C4, Velocity: 62
Note OFF: Time 65760, Note Name: C4
Note ON: Time 65760, Note Name: D4, Velocity: 68
Note OFF: Time 65840, Note Name: D4
Note ON: Time 65840, Note Name: F4, Velocity: 61
Note OFF: Time 65920, Note Name: F4
Note ON: Time 65920, Note Name: D4, Velocity: 61
Note OFF: Time 66000, Note Name: D4
Note ON: Time 66000, Note Name: B3, Velocity: 61
Note OFF: Time 66080, Note Name: B3
Note ON: Time 66080, Note Name: F3, Velocity: 61
Note OFF: Time 66160, Note Name: F3
Note ON: Time 66160, Note Name: B3, Velocity: 61
Note OFF: Time 66240, Note Name: B3
Note ON: Time 66240, Note Name: C4, Velocity: 68
Note OFF: Time 66320, Note Name: C4
Note ON: Time 66320, Note Name: E4, Velocity: 62
Note OFF: Time 66400, Note Name: E4
Note ON: Time 66400, Note Name: C4, Velocity: 62
Note OFF: Time 66480, Note Name: C4
Note ON: Time 66480, Note Name: E3, Velocity: 62
Note OFF: Time 66560, Note Name: E3
Note ON: Time 66560, Note Name: E4, Velocity: 62
Note OFF: Time 66640, Note Name: E4
Note ON: Time 66640, Note Name: E3, Velocity: 62
Note OFF: Time 66720, Note Name: E3
Note ON: Time 66800, Note Name: E3, Velocity: 70
Note OFF: Time 66880, Note Name: E3
Note ON: Time 66880, Note Name: E4, Velocity: 70
Note OFF: Time 66960, Note Name: E4
Note ON: Time 67040, Note Name: E3, Velocity: 71
Note OFF: Time 67120, Note Name: E3
Note ON: Time 67120, Note Name: E4, Velocity: 72
Note OFF: Time 67200, Note Name: E4
Note ON: Time 67280, Note Name: A3, Velocity: 73
Note OFF: Time 67360, Note Name: A3
Note ON: Time 67360, Note Name: A4, Velocity: 74
Note OFF: Time 67440, Note Name: A4
Note ON: Time 67520, Note Name: B3, Velocity: 75
Note OFF: Time 67600, Note Name: B3
Note ON: Time 67600, Note Name: B4, Velocity: 77
Note OFF: Time 67680, Note Name: B4
Note ON: Time 67760, Note Name: C4, Velocity: 78
Note OFF: Time 67840, Note Name: C4
Note ON: Time 67840, Note Name: C5, Velocity: 79
Note OFF: Time 67920, Note Name: C5
Note ON: Time 68000, Note Name: D4, Velocity: 80
Note OFF: Time 68080, Note Name: D4
Note ON: Time 68080, Note Name: D5, Velocity: 81
Note OFF: Time 68160, Note Name: D5
Note ON: Time 68160, Note Name: E5, Velocity: 85
Note OFF: Time 68240, Note Name: E5
Note ON: Time 68240, Note Name: E4, Velocity: 85
Note OFF: Time 68320, Note Name: E4
Note ON: Time 68320, Note Name: E5, Velocity: 84
Note OFF: Time 68400, Note Name: E5
Note ON: Time 68400, Note Name: E4, Velocity: 84
Note OFF: Time 68480, Note Name: E4
Note ON: Time 68480, Note Name: E5, Velocity: 84
Note OFF: Time 68560, Note Name: E5
Note ON: Time 68560, Note Name: E4, Velocity: 82
Note OFF: Time 68640, Note Name: E4
Note ON: Time 68720, Note Name: E4, Velocity: 79
Note OFF: Time 68800, Note Name: E4
Note ON: Time 68800, Note Name: E5, Velocity: 78
Note OFF: Time 68880, Note Name: E5
Note ON: Time 68960, Note Name: D4, Velocity: 77
Note OFF: Time 69040, Note Name: D4
Note ON: Time 69040, Note Name: D5, Velocity: 77
Note OFF: Time 69120, Note Name: D5
Note ON: Time 69200, Note Name: C4, Velocity: 75
Note OFF: Time 69280, Note Name: C4
Note ON: Time 69280, Note Name: C5, Velocity: 75
Note OFF: Time 69360, Note Name: C5
Note ON: Time 69440, Note Name: B3, Velocity: 74
Note OFF: Time 69520, Note Name: B3
Note ON: Time 69520, Note Name: B4, Velocity: 74
Note OFF: Time 69600, Note Name: B4
Note ON: Time 69680, Note Name: C4, Velocity: 73
Note OFF: Time 69760, Note Name: C4
Note ON: Time 69760, Note Name: C5, Velocity: 73
Note OFF: Time 69840, Note Name: C5
Note ON: Time 69920, Note Name: A3, Velocity: 72
Note OFF: Time 70000, Note Name: A3
Note ON: Time 70000, Note Name: A4, Velocity: 73
Note OFF: Time 70080, Note Name: A4
Note ON: Time 70080, Note Name: E4, Velocity: 85
Note OFF: Time 70160, Note Name: E4
Note ON: Time 70160, Note Name: E3, Velocity: 77
Note OFF: Time 70240, Note Name: E3
Note ON: Time 70240, Note Name: E4, Velocity: 77
Note OFF: Time 70320, Note Name: E4
Note ON: Time 70320, Note Name: E3, Velocity: 77
Note OFF: Time 70400, Note Name: E3
Note ON: Time 70400, Note Name: E4, Velocity: 77
Note OFF: Time 70480, Note Name: E4
Note ON: Time 70480, Note Name: E3, Velocity: 77
Note OFF: Time 70560, Note Name: E3
Note ON: Time 70640, Note Name: E4, Velocity: 70
Note OFF: Time 70720, Note Name: E4
Note ON: Time 70720, Note Name: E5, Velocity: 70
Note OFF: Time 70800, Note Name: E5
Note ON: Time 70880, Note Name: E4, Velocity: 71
Note OFF: Time 70960, Note Name: E4
Note ON: Time 70960, Note Name: E5, Velocity: 72
Note OFF: Time 71040, Note Name: E5
Note ON: Time 71120, Note Name: A4, Velocity: 73
Note OFF: Time 71200, Note Name: A4
Note ON: Time 71200, Note Name: A5, Velocity: 74
Note OFF: Time 71280, Note Name: A5
Note ON: Time 71360, Note Name: B4, Velocity: 75
Note OFF: Time 71440, Note Name: B4
Note ON: Time 71440, Note Name: B5, Velocity: 77
Note OFF: Time 71520, Note Name: B5
Note ON: Time 71600, Note Name: C5, Velocity: 78
Note OFF: Time 71680, Note Name: C5
Note ON: Time 71680, Note Name: C6, Velocity: 79
Note OFF: Time 71760, Note Name: C6
Note ON: Time 71840, Note Name: D5, Velocity: 80
Note OFF: Time 71920, Note Name: D5
Note ON: Time 71920, Note Name: D6, Velocity: 81
Note OFF: Time 72000, Note Name: D6
Note ON: Time 72000, Note Name: E6, Velocity: 85
Note OFF: Time 72080, Note Name: E6
Note ON: Time 72080, Note Name: E5, Velocity: 85
Note OFF: Time 72160, Note Name: E5
Note ON: Time 72160, Note Name: E6, Velocity: 84
Note OFF: Time 72240, Note Name: E6
Note ON: Time 72240, Note Name: E5, Velocity: 84
Note OFF: Time 72320, Note Name: E5
Note ON: Time 72320, Note Name: E6, Velocity: 84
Note OFF: Time 72400, Note Name: E6
Note ON: Time 72400, Note Name: E5, Velocity: 82
Note OFF: Time 72480, Note Name: E5
Note ON: Time 72560, Note Name: E5, Velocity: 79
Note OFF: Time 72640, Note Name: E5
Note ON: Time 72640, Note Name: E6, Velocity: 78
Note OFF: Time 72720, Note Name: E6
Note ON: Time 72800, Note Name: D5, Velocity: 77
Note OFF: Time 72880, Note Name: D5
Note ON: Time 72880, Note Name: D6, Velocity: 77
Note OFF: Time 72960, Note Name: D6
Note ON: Time 73040, Note Name: C5, Velocity: 75
Note OFF: Time 73120, Note Name: C5
Note ON: Time 73120, Note Name: C6, Velocity: 75
Note OFF: Time 73200, Note Name: C6
Note ON: Time 73280, Note Name: B4, Velocity: 74
Note OFF: Time 73360, Note Name: B4
Note ON: Time 73360, Note Name: B5, Velocity: 74
Note OFF: Time 73440, Note Name: B5
Note ON: Time 73520, Note Name: C5, Velocity: 73
Note OFF: Time 73600, Note Name: C5
Note ON: Time 73600, Note Name: C6, Velocity: 73
Note OFF: Time 73680, Note Name: C6
Note ON: Time 73760, Note Name: A4, Velocity: 72
Note OFF: Time 73840, Note Name: A4
Note ON: Time 73840, Note Name: A5, Velocity: 73
Note OFF: Time 73920, Note Name: A5
Note ON: Time 73920, Note Name: E5, Velocity: 82
Note OFF: Time 74000, Note Name: E5
Note ON: Time 74000, Note Name: E4, Velocity: 78
Note OFF: Time 74080, Note Name: E4
Note ON: Time 74080, Note Name: E5, Velocity: 78
Note OFF: Time 74160, Note Name: E5
Note ON: Time 74160, Note Name: E4, Velocity: 78
Note OFF: Time 74240, Note Name: E4
Note ON: Time 74240, Note Name: E5, Velocity: 78
Note OFF: Time 74320, Note Name: E5
Note ON: Time 74320, Note Name: E4, Velocity: 78
Note OFF: Time 74400, Note Name: E4
Note ON: Time 74400, Note Name: A5, Velocity: 80
Note OFF: Time 74480, Note Name: A5
Note ON: Time 74480, Note Name: A4, Velocity: 75
Note OFF: Time 74560, Note Name: A4
Note ON: Time 74560, Note Name: A5, Velocity: 75
Note OFF: Time 74640, Note Name: A5
Note ON: Time 74640, Note Name: A4, Velocity: 75
Note OFF: Time 74720, Note Name: A4
Note ON: Time 74720, Note Name: A5, Velocity: 75
Note OFF: Time 74800, Note Name: A5
Note ON: Time 74800, Note Name: A4, Velocity: 75
Note OFF: Time 74880, Note Name: A4
Note ON: Time 74880, Note Name: A5, Velocity: 82
Note OFF: Time 74960, Note Name: A5
Note ON: Time 74960, Note Name: A4, Velocity: 75
Note OFF: Time 75040, Note Name: A4
Note ON: Time 75040, Note Name: A5, Velocity: 75
Note OFF: Time 75120, Note Name: A5
Note ON: Time 75120, Note Name: A4, Velocity: 75
Note OFF: Time 75200, Note Name: A4
Note ON: Time 75200, Note Name: A5, Velocity: 75
Note OFF: Time 75280, Note Name: A5
Note ON: Time 75280, Note Name: A4, Velocity: 75
Note OFF: Time 75360, Note Name: A4
Note ON: Time 75360, Note Name: A5, Velocity: 82
Note OFF: Time 75440, Note Name: A5
Note ON: Time 75440, Note Name: A4, Velocity: 75
Note OFF: Time 75520, Note Name: A4
Note ON: Time 75520, Note Name: A5, Velocity: 75
Note OFF: Time 75600, Note Name: A5
Note ON: Time 75600, Note Name: A4, Velocity: 75
Note OFF: Time 75680, Note Name: A4
Note ON: Time 75680, Note Name: A5, Velocity: 75
Note OFF: Time 75760, Note Name: A5
Note ON: Time 75760, Note Name: A4, Velocity: 75
Note OFF: Time 75840, Note Name: A4
Note ON: Time 75840, Note Name: A5, Velocity: 81
Note OFF: Time 75920, Note Name: A5
Note ON: Time 75920, Note Name: A4, Velocity: 75
Note OFF: Time 76000, Note Name: A4
Note ON: Time 76000, Note Name: A5, Velocity: 75
Note OFF: Time 76080, Note Name: A5
Note ON: Time 76080, Note Name: A4, Velocity: 75
Note OFF: Time 76160, Note Name: A4
Note ON: Time 76160, Note Name: A5, Velocity: 75
Note OFF: Time 76240, Note Name: A5
Note ON: Time 76240, Note Name: A4, Velocity: 75
Note OFF: Time 76320, Note Name: A4
Note ON: Time 76320, Note Name: F5, Velocity: 81
Note OFF: Time 76400, Note Name: F5
Note ON: Time 76400, Note Name: G5, Velocity: 77
Note OFF: Time 76480, Note Name: G5
Note ON: Time 76480, Note Name: A5, Velocity: 77
Note OFF: Time 76560, Note Name: A5
Note ON: Time 76560, Note Name: F5, Velocity: 79
Note OFF: Time 76640, Note Name: F5
Note ON: Time 76640, Note Name: E5, Velocity: 75
Note OFF: Time 76720, Note Name: E5
Note ON: Time 76720, Note Name: D5, Velocity: 75
Note OFF: Time 76800, Note Name: D5
Note ON: Time 76800, Note Name: C5, Velocity: 80
Note OFF: Time 76880, Note Name: C5
Note ON: Time 76880, Note Name: D5, Velocity: 74
Note OFF: Time 76960, Note Name: D5
Note ON: Time 76960, Note Name: E5, Velocity: 74
Note OFF: Time 77040, Note Name: E5
Note ON: Time 77040, Note Name: C5, Velocity: 78
Note OFF: Time 77120, Note Name: C5
Note ON: Time 77120, Note Name: B4, Velocity: 71
Note OFF: Time 77200, Note Name: B4
Note ON: Time 77200, Note Name: A4, Velocity: 71
Note OFF: Time 77280, Note Name: A4
Note ON: Time 77280, Note Name: B4, Velocity: 81
Note OFF: Time 77360, Note Name: B4
Note ON: Time 77360, Note Name: C5, Velocity: 73
Note OFF: Time 77440, Note Name: C5
Note ON: Time 77440, Note Name: D5, Velocity: 73
Note OFF: Time 77520, Note Name: D5
Note ON: Time 77520, Note Name: B4, Velocity: 79
Note OFF: Time 77600, Note Name: B4
Note ON: Time 77600, Note Name: A4, Velocity: 75
Note OFF: Time 77680, Note Name: A4
Note ON: Time 77680, Note Name: G#4, Velocity: 75
Note OFF: Time 77760, Note Name: G#4
Note ON: Time 77760, Note Name: A4, Velocity: 79
Note OFF: Time 77840, Note Name: A4
Note ON: Time 77840, Note Name: A3, Velocity: 75
Note OFF: Time 77920, Note Name: A3
Note ON: Time 77920, Note Name: A4, Velocity: 75
Note OFF: Time 78000, Note Name: A4
Note ON: Time 78000, Note Name: A3, Velocity: 75
Note OFF: Time 78080, Note Name: A3
Note ON: Time 78080, Note Name: A4, Velocity: 75
Note OFF: Time 78160, Note Name: A4
Note ON: Time 78160, Note Name: A3, Velocity: 75
Note OFF: Time 78240, Note Name: A3
Note ON: Time 78240, Note Name: A4, Velocity: 80
Note OFF: Time 78320, Note Name: A4
Note ON: Time 78320, Note Name: A3, Velocity: 75
Note OFF: Time 78400, Note Name: A3
Note ON: Time 78400, Note Name: A4, Velocity: 75
Note OFF: Time 78480, Note Name: A4
Note ON: Time 78480, Note Name: A3, Velocity: 75
Note OFF: Time 78560, Note Name: A3
Note ON: Time 78560, Note Name: A4, Velocity: 75
Note OFF: Time 78640, Note Name: A4
Note ON: Time 78640, Note Name: A3, Velocity: 75
Note OFF: Time 78720, Note Name: A3
Note ON: Time 78720, Note Name: A4, Velocity: 82
Note OFF: Time 78800, Note Name: A4
Note ON: Time 78800, Note Name: A3, Velocity: 75
Note OFF: Time 78880, Note Name: A3
Note ON: Time 78880, Note Name: A4, Velocity: 75
Note OFF: Time 78960, Note Name: A4
Note ON: Time 78960, Note Name: A3, Velocity: 75
Note OFF: Time 79040, Note Name: A3
Note ON: Time 79040, Note Name: A4, Velocity: 75
Note OFF: Time 79120, Note Name: A4
Note ON: Time 79120, Note Name: A3, Velocity: 75
Note OFF: Time 79200, Note Name: A3
Note ON: Time 79200, Note Name: A4, Velocity: 82
Note OFF: Time 79280, Note Name: A4
Note ON: Time 79280, Note Name: A3, Velocity: 75
Note OFF: Time 79360, Note Name: A3
Note ON: Time 79360, Note Name: A4, Velocity: 75
Note OFF: Time 79440, Note Name: A4
Note ON: Time 79440, Note Name: A3, Velocity: 75
Note OFF: Time 79520, Note Name: A3
Note ON: Time 79520, Note Name: A4, Velocity: 75
Note OFF: Time 79600, Note Name: A4
Note ON: Time 79600, Note Name: A3, Velocity: 75
Note OFF: Time 79680, Note Name: A3
Note ON: Time 79680, Note Name: A4, Velocity: 81
Note OFF: Time 79760, Note Name: A4
Note ON: Time 79760, Note Name: A3, Velocity: 75
Note OFF: Time 79840, Note Name: A3
Note ON: Time 79840, Note Name: A4, Velocity: 75
Note OFF: Time 79920, Note Name: A4
Note ON: Time 79920, Note Name: A3, Velocity: 75
Note OFF: Time 80000, Note Name: A3
Note ON: Time 80000, Note Name: A4, Velocity: 75
Note OFF: Time 80080, Note Name: A4
Note ON: Time 80080, Note Name: A3, Velocity: 75
Note OFF: Time 80160, Note Name: A3
Note ON: Time 80160, Note Name: F4, Velocity: 81
Note OFF: Time 80240, Note Name: F4
Note ON: Time 80240, Note Name: G4, Velocity: 77
Note OFF: Time 80320, Note Name: G4
Note ON: Time 80320, Note Name: A4, Velocity: 77
Note OFF: Time 80400, Note Name: A4
Note ON: Time 80400, Note Name: F4, Velocity: 79
Note OFF: Time 80480, Note Name: F4
Note ON: Time 80480, Note Name: E4, Velocity: 75
Note OFF: Time 80560, Note Name: E4
Note ON: Time 80560, Note Name: D4, Velocity: 75
Note OFF: Time 80640, Note Name: D4
Note ON: Time 80640, Note Name: C4, Velocity: 80
Note OFF: Time 80720, Note Name: C4
Note ON: Time 80720, Note Name: D4, Velocity: 74
Note OFF: Time 80800, Note Name: D4
Note ON: Time 80800, Note Name: E4, Velocity: 74
Note OFF: Time 80880, Note Name: E4
Note ON: Time 80880, Note Name: C4, Velocity: 78
Note OFF: Time 80960, Note Name: C4
Note ON: Time 80960, Note Name: B3, Velocity: 71
Note OFF: Time 81040, Note Name: B3
Note ON: Time 81040, Note Name: A3, Velocity: 71
Note OFF: Time 81120, Note Name: A3
Note ON: Time 81120, Note Name: B3, Velocity: 81
Note OFF: Time 81200, Note Name: B3
Note ON: Time 81200, Note Name: C4, Velocity: 73
Note OFF: Time 81280, Note Name: C4
Note ON: Time 81280, Note Name: D4, Velocity: 73
Note OFF: Time 81360, Note Name: D4
Note ON: Time 81360, Note Name: B3, Velocity: 79
Note OFF: Time 81440, Note Name: B3
Note ON: Time 81440, Note Name: A3, Velocity: 75
Note OFF: Time 81520, Note Name: A3
Note ON: Time 81520, Note Name: G#3, Velocity: 75
Note OFF: Time 81600, Note Name: G#3
Note ON: Time 81600, Note Name: A3, Velocity: 79
Note OFF: Time 81840, Note Name: A3
Note ON: Time 82080, Note Name: E6, Velocity: 95
Note ON: Time 82080, Note Name: E5, Velocity: 80
Note OFF: Time 82200, Note Name: E5
Note OFF: Time 82200, Note Name: E6
Note ON: Time 82320, Note Name: E6, Velocity: 95
Note ON: Time 82320, Note Name: E5, Velocity: 80
Note OFF: Time 82440, Note Name: E5
Note OFF: Time 82440, Note Name: E6
Note ON: Time 82560, Note Name: E5, Velocity: 91
Note ON: Time 82560, Note Name: E4, Velocity: 77
Note OFF: Time 82680, Note Name: E4
Note OFF: Time 82680, Note Name: E5
Note ON: Time 82800, Note Name: E5, Velocity: 91
Note ON: Time 82800, Note Name: E4, Velocity: 77
Note OFF: Time 82920, Note Name: E4
Note OFF: Time 82920, Note Name: E5
Note ON: Time 83040, Note Name: E4, Velocity: 79
Note ON: Time 83040, Note Name: E5, Velocity: 93
Note OFF: Time 83160, Note Name: E5
Note OFF: Time 83160, Note Name: E4
Note ON: Time 83280, Note Name: G#4, Velocity: 82
Note ON: Time 83280, Note Name: G#5, Velocity: 97
Note OFF: Time 83400, Note Name: G#5
Note OFF: Time 83400, Note Name: G#4
Note ON: Time 83520, Note Name: A4, Velocity: 85
Note ON: Time 83520, Note Name: A5, Velocity: 100
Note OFF: Time 84000, Note Name: A5
Note OFF: Time 84000, Note Name: A4
Note ON: Time 84000, Note Name: B5, Velocity: 58
Note OFF: Time 84120, Note Name: B5
Note ON: Time 84120, Note Name: D6, Velocity: 53
Note OFF: Time 84240, Note Name: D6
Note ON: Time 84240, Note Name: C6, Velocity: 53
Note OFF: Time 84360, Note Name: C6
Note ON: Time 84360, Note Name: B5, Velocity: 53
Note OFF: Time 84480, Note Name: B5
Note ON: Time 84480, Note Name: C6, Velocity: 56
Note OFF: Time 84600, Note Name: C6
Note ON: Time 84600, Note Name: E6, Velocity: 53
Note OFF: Time 84720, Note Name: E6
Note ON: Time 84720, Note Name: D6, Velocity: 53
Note OFF: Time 84840, Note Name: D6
Note ON: Time 84840, Note Name: C6, Velocity: 53
Note OFF: Time 84960, Note Name: C6
Note ON: Time 84960, Note Name: B5, Velocity: 58
Note OFF: Time 85080, Note Name: B5
Note ON: Time 85080, Note Name: D6, Velocity: 53
Note OFF: Time 85200, Note Name: D6
Note ON: Time 85200, Note Name: C6, Velocity: 53
Note OFF: Time 85320, Note Name: C6
Note ON: Time 85320, Note Name: B5, Velocity: 53
Note OFF: Time 85440, Note Name: B5
Note ON: Time 85440, Note Name: A5, Velocity: 52
Note OFF: Time 85920, Note Name: A5
Note ON: Time 85920, Note Name: E6, Velocity: 95
Note ON: Time 85920, Note Name: E5, Velocity: 80
Note OFF: Time 86040, Note Name: E5
Note OFF: Time 86040, Note Name: E6
Note ON: Time 86160, Note Name: E6, Velocity: 95
Note ON: Time 86160, Note Name: E5, Velocity: 80
Note OFF: Time 86280, Note Name: E5
Note OFF: Time 86280, Note Name: E6
Note ON: Time 86400, Note Name: E5, Velocity: 91
Note ON: Time 86400, Note Name: E4, Velocity: 77
Note OFF: Time 86520, Note Name: E4
Note OFF: Time 86520, Note Name: E5
Note ON: Time 86640, Note Name: E5, Velocity: 91
Note ON: Time 86640, Note Name: E4, Velocity: 77
Note OFF: Time 86760, Note Name: E4
Note OFF: Time 86760, Note Name: E5
Note ON: Time 86880, Note Name: E4, Velocity: 79
Note ON: Time 86880, Note Name: E5, Velocity: 93
Note OFF: Time 87000, Note Name: E5
Note OFF: Time 87000, Note Name: E4
Note ON: Time 87120, Note Name: G#4, Velocity: 82
Note ON: Time 87120, Note Name: G#5, Velocity: 97
Note OFF: Time 87240, Note Name: G#5
Note OFF: Time 87240, Note Name: G#4
Note ON: Time 87360, Note Name: A4, Velocity: 85
Note ON: Time 87360, Note Name: A5, Velocity: 100
Note OFF: Time 87840, Note Name: A5
Note OFF: Time 87840, Note Name: A4
Note ON: Time 87840, Note Name: B5, Velocity: 58
Note OFF: Time 87960, Note Name: B5
Note ON: Time 87960, Note Name: D6, Velocity: 53
Note OFF: Time 88080, Note Name: D6
Note ON: Time 88080, Note Name: C6, Velocity: 53
Note OFF: Time 88200, Note Name: C6
Note ON: Time 88200, Note Name: B5, Velocity: 52
Note OFF: Time 88320, Note Name: B5
Note ON: Time 88320, Note Name: C6, Velocity: 55
Note OFF: Time 88440, Note Name: C6
Note ON: Time 88440, Note Name: E6, Velocity: 52
Note OFF: Time 88560, Note Name: E6
Note ON: Time 88560, Note Name: D6, Velocity: 51
Note OFF: Time 88680, Note Name: D6
Note ON: Time 88680, Note Name: C6, Velocity: 51
Note OFF: Time 88800, Note Name: C6
Note ON: Time 88800, Note Name: B5, Velocity: 56
Note OFF: Time 88920, Note Name: B5
Note ON: Time 88920, Note Name: D6, Velocity: 51
Note OFF: Time 89040, Note Name: D6
Note ON: Time 89040, Note Name: C6, Velocity: 51
Note OFF: Time 89160, Note Name: C6
Note ON: Time 89160, Note Name: B5, Velocity: 51
Note OFF: Time 89280, Note Name: B5
Note ON: Time 89280, Note Name: A5, Velocity: 53
Note OFF: Time 89400, Note Name: A5
Note ON: Time 89400, Note Name: C6, Velocity: 49
Note OFF: Time 89520, Note Name: C6
Note ON: Time 89520, Note Name: B5, Velocity: 48
Note OFF: Time 89640, Note Name: B5
Note ON: Time 89640, Note Name: A5, Velocity: 48
Note OFF: Time 89760, Note Name: A5
Note ON: Time 89760, Note Name: B5, Velocity: 52
Note OFF: Time 89880, Note Name: B5
Note ON: Time 89880, Note Name: D6, Velocity: 46
Note OFF: Time 90000, Note Name: D6
Note ON: Time 90000, Note Name: C6, Velocity: 46
Note OFF: Time 90120, Note Name: C6
Note ON: Time 90120, Note Name: B5, Velocity: 45
Note OFF: Time 90240, Note Name: B5
Note ON: Time 90240, Note Name: C6, Velocity: 46
Note OFF: Time 90360, Note Name: C6
Note ON: Time 90360, Note Name: E6, Velocity: 43
Note OFF: Time 90480, Note Name: E6
Note ON: Time 90480, Note Name: D6, Velocity: 42
Note OFF: Time 90600, Note Name: D6
Note ON: Time 90600, Note Name: C6, Velocity: 42
Note OFF: Time 90720, Note Name: C6
Note ON: Time 90720, Note Name: B5, Velocity: 45
Note OFF: Time 90840, Note Name: B5
Note ON: Time 90840, Note Name: D6, Velocity: 40
Note OFF: Time 90960, Note Name: D6
Note ON: Time 90960, Note Name: C6, Velocity: 39
Note OFF: Time 91080, Note Name: C6
Note ON: Time 91080, Note Name: B5, Velocity: 39
Note OFF: Time 91200, Note Name: B5
Note ON: Time 91200, Note Name: A5, Velocity: 39
Note OFF: Time 91320, Note Name: A5
Note ON: Time 91320, Note Name: C6, Velocity: 37
Note OFF: Time 91440, Note Name: C6
Note ON: Time 91440, Note Name: B5, Velocity: 37
Note OFF: Time 91560, Note Name: B5
Note ON: Time 91560, Note Name: A5, Velocity: 37
Note OFF: Time 91680, Note Name: A5
Note ON: Time 91680, Note Name: B5, Velocity: 41
Note OFF: Time 91800, Note Name: B5
Note ON: Time 91800, Note Name: D6, Velocity: 37
Note OFF: Time 91920, Note Name: D6
Note ON: Time 91920, Note Name: C6, Velocity: 37
Note OFF: Time 92040, Note Name: C6
Note ON: Time 92040, Note Name: B5, Velocity: 37
Note OFF: Time 92160, Note Name: B5
Note ON: Time 92160, Note Name: A5, Velocity: 39
Note OFF: Time 92280, Note Name: A5
Note ON: Time 92280, Note Name: C6, Velocity: 37
Note OFF: Time 92400, Note Name: C6
Note ON: Time 92400, Note Name: B5, Velocity: 37
Note OFF: Time 92520, Note Name: B5
Note ON: Time 92520, Note Name: A5, Velocity: 37
Note OFF: Time 92640, Note Name: A5
Note ON: Time 92640, Note Name: B5, Velocity: 41
Note OFF: Time 92760, Note Name: B5
Note ON: Time 92760, Note Name: D6, Velocity: 37
Note OFF: Time 92880, Note Name: D6
Note ON: Time 92880, Note Name: C6, Velocity: 37
Note OFF: Time 93000, Note Name: C6
Note ON: Time 93000, Note Name: B5, Velocity: 37
Note OFF: Time 93120, Note Name: B5
Note ON: Time 93120, Note Name: A5, Velocity: 92
Note OFF: Time 93360, Note Name: A5
Note ON: Time 93600, Note Name: E5, Velocity: 92
Note OFF: Time 93840, Note Name: E5
Note ON: Time 94080, Note Name: E5, Velocity: 97
Note OFF: Time 94800, Note Name: E5
Note ON: Time 94800, Note Name: C5, Velocity: 53
Note OFF: Time 95040, Note Name: C5
Note ON: Time 95040, Note Name: B4, Velocity: 58
Note OFF: Time 95520, Note Name: B4
Note ON: Time 95520, Note Name: E4, Velocity: 54
Note OFF: Time 96000, Note Name: E4
Note ON: Time 96000, Note Name: A4, Velocity: 54
Note OFF: Time 96240, Note Name: A4
Note ON: Time 96960, Note Name: F3, Velocity: 102
Note OFF: Time 97200, Note Name: F3
Note ON: Time 97440, Note Name: C5, Velocity: 92
Note ON: Time 97440, Note Name: C6, Velocity: 92
Note OFF: Time 97680, Note Name: C6
Note OFF: Time 97680, Note Name: C5
Note ON: Time 97920, Note Name: C5, Velocity: 95
Note ON: Time 97920, Note Name: C6, Velocity: 95
Note OFF: Time 98640, Note Name: C6
Note OFF: Time 98640, Note Name: C5
Note ON: Time 98640, Note Name: A4, Velocity: 57
Note ON: Time 98640, Note Name: A5, Velocity: 57
Note OFF: Time 98880, Note Name: A5
Note OFF: Time 98880, Note Name: A4
Note ON: Time 98880, Note Name: G4, Velocity: 60
Note ON: Time 98880, Note Name: G5, Velocity: 60
Note OFF: Time 99360, Note Name: G5
Note OFF: Time 99360, Note Name: G4
Note ON: Time 99360, Note Name: C4, Velocity: 56
Note ON: Time 99360, Note Name: C5, Velocity: 56
Note OFF: Time 99840, Note Name: C5
Note OFF: Time 99840, Note Name: C4
Note ON: Time 99840, Note Name: F4, Velocity: 56
Note ON: Time 99840, Note Name: F5, Velocity: 56
Note OFF: Time 100080, Note Name: F5
Note OFF: Time 100080, Note Name: F4
Note ON: Time 100800, Note Name: G3, Velocity: 103
Note OFF: Time 101040, Note Name: G3
Note ON: Time 101280, Note Name: F5, Velocity: 63
Note ON: Time 101280, Note Name: F6, Velocity: 90
Note OFF: Time 101520, Note Name: F6
Note OFF: Time 101520, Note Name: F5
Note ON: Time 101760, Note Name: F5, Velocity: 67
Note ON: Time 101760, Note Name: F6, Velocity: 93
Note OFF: Time 102480, Note Name: F6
Note OFF: Time 102480, Note Name: F5
Note ON: Time 102480, Note Name: D5, Velocity: 56
Note ON: Time 102480, Note Name: D6, Velocity: 66
Note OFF: Time 102720, Note Name: D6
Note OFF: Time 102720, Note Name: D5
Note ON: Time 102720, Note Name: B4, Velocity: 58
Note ON: Time 102720, Note Name: B5, Velocity: 69
Note OFF: Time 103200, Note Name: B5
Note OFF: Time 103200, Note Name: B4
Note ON: Time 103200, Note Name: G4, Velocity: 49
Note ON: Time 103200, Note Name: G5, Velocity: 58
Note OFF: Time 103680, Note Name: G5
Note OFF: Time 103680, Note Name: G4
Note ON: Time 103680, Note Name: F4, Velocity: 54
Note ON: Time 103680, Note Name: F5, Velocity: 64
Note OFF: Time 104400, Note Name: F5
Note OFF: Time 104400, Note Name: F4
Note ON: Time 104400, Note Name: D4, Velocity: 44
Note ON: Time 104400, Note Name: D5, Velocity: 52
Note OFF: Time 104640, Note Name: D5
Note OFF: Time 104640, Note Name: D4
Note ON: Time 104640, Note Name: B3, Velocity: 46
Note ON: Time 104640, Note Name: B4, Velocity: 55
Note OFF: Time 105120, Note Name: B4
Note OFF: Time 105120, Note Name: B3
Note ON: Time 105120, Note Name: G3, Velocity: 41
Note ON: Time 105120, Note Name: G4, Velocity: 49
Note OFF: Time 105600, Note Name: G4
Note OFF: Time 105600, Note Name: G3
Note ON: Time 105600, Note Name: F3, Velocity: 43
Note ON: Time 105600, Note Name: F4, Velocity: 51
Note OFF: Time 106320, Note Name: F4
Note OFF: Time 106320, Note Name: F3
Note ON: Time 106320, Note Name: D3, Velocity: 34
Note ON: Time 106320, Note Name: D4, Velocity: 40
Note OFF: Time 106560, Note Name: D4
Note OFF: Time 106560, Note Name: D3
Note ON: Time 106560, Note Name: B2, Velocity: 34
Note ON: Time 106560, Note Name: B3, Velocity: 40
Note OFF: Time 107040, Note Name: B3
Note OFF: Time 107040, Note Name: B2
Note ON: Time 107520, Note Name: G3, Velocity: 40
Note OFF: Time 108000, Note Name: G3
Note ON: Time 108600, Note Name: E3, Velocity: 28
Note OFF: Time 108720, Note Name: E3
Note ON: Time 108720, Note Name: G3, Velocity: 30
Note OFF: Time 108840, Note Name: G3
Note ON: Time 108840, Note Name: C4, Velocity: 32
Note OFF: Time 108960, Note Name: C4
Note ON: Time 108960, Note Name: E4, Velocity: 34
Note OFF: Time 109080, Note Name: E4
Note ON: Time 109080, Note Name: E3, Velocity: 31
Note OFF: Time 109200, Note Name: E3
Note ON: Time 109200, Note Name: G3, Velocity: 31
Note OFF: Time 109320, Note Name: G3
Note ON: Time 109320, Note Name: C4, Velocity: 31
Note OFF: Time 109440, Note Name: C4
Note ON: Time 109440, Note Name: E4, Velocity: 35
Note OFF: Time 109560, Note Name: E4
Note ON: Time 109560, Note Name: E3, Velocity: 30
Note OFF: Time 109680, Note Name: E3
Note ON: Time 109680, Note Name: G3, Velocity: 31
Note OFF: Time 109800, Note Name: G3
Note ON: Time 109800, Note Name: C4, Velocity: 33
Note OFF: Time 109920, Note Name: C4
Note ON: Time 109920, Note Name: E4, Velocity: 36
Note OFF: Time 110040, Note Name: E4
Note ON: Time 110040, Note Name: E3, Velocity: 33
Note OFF: Time 110160, Note Name: E3
Note ON: Time 110160, Note Name: G3, Velocity: 33
Note OFF: Time 110280, Note Name: G3
Note ON: Time 110280, Note Name: C4, Velocity: 33
Note OFF: Time 110400, Note Name: C4
Note ON: Time 110520, Note Name: F3, Velocity: 28
Note OFF: Time 110640, Note Name: F3
Note ON: Time 110640, Note Name: G3, Velocity: 31
Note OFF: Time 110760, Note Name: G3
Note ON: Time 110760, Note Name: B3, Velocity: 33
Note OFF: Time 110880, Note Name: B3
Note ON: Time 110880, Note Name: D4, Velocity: 36
Note OFF: Time 111000, Note Name: D4
Note ON: Time 111000, Note Name: F3, Velocity: 33
Note OFF: Time 111120, Note Name: F3
Note ON: Time 111120, Note Name: G3, Velocity: 33
Note OFF: Time 111240, Note Name: G3
Note ON: Time 111240, Note Name: B3, Velocity: 34
Note OFF: Time 111360, Note Name: B3
Note ON: Time 111480, Note Name: E3, Velocity: 28
Note OFF: Time 111600, Note Name: E3
Note ON: Time 111600, Note Name: G3, Velocity: 30
Note OFF: Time 111720, Note Name: G3
Note ON: Time 111720, Note Name: C4, Velocity: 32
Note OFF: Time 111840, Note Name: C4
Note ON: Time 111840, Note Name: E4, Velocity: 34
Note OFF: Time 111960, Note Name: E4
Note ON: Time 111960, Note Name: E3, Velocity: 32
Note OFF: Time 112080, Note Name: E3
Note ON: Time 112080, Note Name: G3, Velocity: 32
Note OFF: Time 112200, Note Name: G3
Note ON: Time 112200, Note Name: C4, Velocity: 33
Note OFF: Time 112320, Note Name: C4
Note ON: Time 112440, Note Name: E3, Velocity: 28
Note OFF: Time 112560, Note Name: E3
Note ON: Time 112560, Note Name: G3, Velocity: 30
Note OFF: Time 112680, Note Name: G3
Note ON: Time 112680, Note Name: C4, Velocity: 32
Note OFF: Time 112800, Note Name: C4
Note ON: Time 112800, Note Name: E4, Velocity: 34
Note OFF: Time 112920, Note Name: E4
Note ON: Time 112920, Note Name: E3, Velocity: 31
Note OFF: Time 113040, Note Name: E3
Note ON: Time 113040, Note Name: G3, Velocity: 31
Note OFF: Time 113160, Note Name: G3
Note ON: Time 113160, Note Name: C4, Velocity: 31
Note OFF: Time 113280, Note Name: C4
Note ON: Time 113280, Note Name: E4, Velocity: 35
Note OFF: Time 113400, Note Name: E4
Note ON: Time 113400, Note Name: E3, Velocity: 30
Note OFF: Time 113520, Note Name: E3
Note ON: Time 113520, Note Name: G3, Velocity: 31
Note OFF: Time 113640, Note Name: G3
Note ON: Time 113640, Note Name: C4, Velocity: 33
Note OFF: Time 113760, Note Name: C4
Note ON: Time 113760, Note Name: E4, Velocity: 36
Note OFF: Time 113880, Note Name: E4
Note ON: Time 113880, Note Name: E3, Velocity: 33
Note OFF: Time 114000, Note Name: E3
Note ON: Time 114000, Note Name: G3, Velocity: 33
Note OFF: Time 114120, Note Name: G3
Note ON: Time 114120, Note Name: C4, Velocity: 33
Note OFF: Time 114240, Note Name: C4
Note ON: Time 114360, Note Name: F3, Velocity: 28
Note OFF: Time 114480, Note Name: F3
Note ON: Time 114480, Note Name: G3, Velocity: 31
Note OFF: Time 114600, Note Name: G3
Note ON: Time 114600, Note Name: B3, Velocity: 33
Note OFF: Time 114720, Note Name: B3
Note ON: Time 114720, Note Name: D4, Velocity: 36
Note OFF: Time 114840, Note Name: D4
Note ON: Time 114840, Note Name: F3, Velocity: 33
Note OFF: Time 114960, Note Name: F3
Note ON: Time 114960, Note Name: G3, Velocity: 33
Note OFF: Time 115080, Note Name: G3
Note ON: Time 115080, Note Name: B3, Velocity: 34
Note OFF: Time 115200, Note Name: B3
Note ON: Time 115440, Note Name: E3, Velocity: 30
Note OFF: Time 115560, Note Name: E3
Note ON: Time 115560, Note Name: G3, Velocity: 32
Note OFF: Time 115680, Note Name: G3
Note ON: Time 115680, Note Name: C4, Velocity: 34
Note OFF: Time 115800, Note Name: C4
Note ON: Time 115800, Note Name: E4, Velocity: 32
Note OFF: Time 115920, Note Name: E4
Note ON: Time 115920, Note Name: D4, Velocity: 32
Note OFF: Time 116040, Note Name: D4
Note ON: Time 116040, Note Name: C4, Velocity: 33
Note OFF: Time 116160, Note Name: C4
Note ON: Time 116160, Note Name: B3, Velocity: 35
Note OFF: Time 116280, Note Name: B3
Note ON: Time 116280, Note Name: G3, Velocity: 28
Note OFF: Time 116400, Note Name: G3
Note ON: Time 116400, Note Name: B3, Velocity: 30
Note OFF: Time 116520, Note Name: B3
Note ON: Time 116520, Note Name: D4, Velocity: 32
Note OFF: Time 116640, Note Name: D4
Note ON: Time 116640, Note Name: G4, Velocity: 34
Note OFF: Time 116760, Note Name: G4
Note ON: Time 116760, Note Name: G3, Velocity: 31
Note OFF: Time 116880, Note Name: G3
Note ON: Time 116880, Note Name: B3, Velocity: 31
Note OFF: Time 117000, Note Name: B3
Note ON: Time 117000, Note Name: D4, Velocity: 31
Note OFF: Time 117120, Note Name: D4
Note ON: Time 117120, Note Name: G4, Velocity: 35
Note OFF: Time 117240, Note Name: G4
Note ON: Time 117240, Note Name: G3, Velocity: 30
Note OFF: Time 117360, Note Name: G3
Note ON: Time 117360, Note Name: B3, Velocity: 31
Note OFF: Time 117480, Note Name: B3
Note ON: Time 117480, Note Name: D4, Velocity: 33
Note OFF: Time 117600, Note Name: D4
Note ON: Time 117600, Note Name: G4, Velocity: 36
Note OFF: Time 117720, Note Name: G4
Note ON: Time 117720, Note Name: G3, Velocity: 33
Note OFF: Time 117840, Note Name: G3
Note ON: Time 117840, Note Name: B3, Velocity: 33
Note OFF: Time 117960, Note Name: B3
Note ON: Time 117960, Note Name: G4, Velocity: 33
Note OFF: Time 118080, Note Name: G4
Note ON: Time 118200, Note Name: G3, Velocity: 28
Note OFF: Time 118320, Note Name: G3
Note ON: Time 118320, Note Name: C4, Velocity: 31
Note OFF: Time 118440, Note Name: C4
Note ON: Time 118440, Note Name: G4, Velocity: 33
Note OFF: Time 118560, Note Name: G4
Note ON: Time 118680, Note Name: G3, Velocity: 28
Note OFF: Time 118800, Note Name: G3
Note ON: Time 118800, Note Name: E4, Velocity: 31
Note OFF: Time 118920, Note Name: E4
Note ON: Time 118920, Note Name: G4, Velocity: 33
Note OFF: Time 119040, Note Name: G4
Note ON: Time 119160, Note Name: G3, Velocity: 28
Note OFF: Time 119280, Note Name: G3
Note ON: Time 119280, Note Name: D4, Velocity: 30
Note OFF: Time 119400, Note Name: D4
Note ON: Time 119400, Note Name: G4, Velocity: 32
Note OFF: Time 119520, Note Name: G4
Note ON: Time 119640, Note Name: G3, Velocity: 28
Note OFF: Time 119760, Note Name: G3
Note ON: Time 119760, Note Name: B3, Velocity: 30
Note OFF: Time 119880, Note Name: B3
Note ON: Time 119880, Note Name: G4, Velocity: 32
Note OFF: Time 120000, Note Name: G4
Note ON: Time 120120, Note Name: G3, Velocity: 28
Note OFF: Time 120240, Note Name: G3
Note ON: Time 120240, Note Name: B3, Velocity: 30
Note OFF: Time 120360, Note Name: B3
Note ON: Time 120360, Note Name: D4, Velocity: 32
Note OFF: Time 120480, Note Name: D4
Note ON: Time 120480, Note Name: G4, Velocity: 34
Note OFF: Time 120600, Note Name: G4
Note ON: Time 120600, Note Name: G3, Velocity: 31
Note OFF: Time 120720, Note Name: G3
Note ON: Time 120720, Note Name: B3, Velocity: 31
Note OFF: Time 120840, Note Name: B3
Note ON: Time 120840, Note Name: D4, Velocity: 31
Note OFF: Time 120960, Note Name: D4
Note ON: Time 120960, Note Name: G4, Velocity: 35
Note OFF: Time 121080, Note Name: G4
Note ON: Time 121080, Note Name: G3, Velocity: 30
Note OFF: Time 121200, Note Name: G3
Note ON: Time 121200, Note Name: B3, Velocity: 31
Note OFF: Time 121320, Note Name: B3
Note ON: Time 121320, Note Name: D4, Velocity: 33
Note OFF: Time 121440, Note Name: D4
Note ON: Time 121440, Note Name: G4, Velocity: 36
Note OFF: Time 121560, Note Name: G4
Note ON: Time 121560, Note Name: G3, Velocity: 33
Note OFF: Time 121680, Note Name: G3
Note ON: Time 121680, Note Name: B3, Velocity: 33
Note OFF: Time 121800, Note Name: B3
Note ON: Time 121800, Note Name: G4, Velocity: 33
Note OFF: Time 121920, Note Name: G4
Note ON: Time 122040, Note Name: G3, Velocity: 28
Note OFF: Time 122160, Note Name: G3
Note ON: Time 122160, Note Name: C4, Velocity: 31
Note OFF: Time 122280, Note Name: C4
Note ON: Time 122280, Note Name: G4, Velocity: 33
Note OFF: Time 122400, Note Name: G4
Note ON: Time 122520, Note Name: G3, Velocity: 28
Note OFF: Time 122640, Note Name: G3
Note ON: Time 122640, Note Name: D#4, Velocity: 31
Note OFF: Time 122760, Note Name: D#4
Note ON: Time 122760, Note Name: G4, Velocity: 33
Note OFF: Time 122880, Note Name: G4
Note ON: Time 123000, Note Name: G3, Velocity: 28
Note OFF: Time 123120, Note Name: G3
Note ON: Time 123120, Note Name: D4, Velocity: 30
Note OFF: Time 123240, Note Name: D4
Note ON: Time 123240, Note Name: G4, Velocity: 32
Note OFF: Time 123360, Note Name: G4
Note ON: Time 123480, Note Name: G3, Velocity: 28
Note OFF: Time 123600, Note Name: G3
Note ON: Time 123600, Note Name: B3, Velocity: 30
Note OFF: Time 123720, Note Name: B3
Note ON: Time 123720, Note Name: G4, Velocity: 32
Note OFF: Time 123840, Note Name: G4
Note ON: Time 123960, Note Name: G3, Velocity: 28
Note OFF: Time 124080, Note Name: G3
Note ON: Time 124080, Note Name: C4, Velocity: 31
Note OFF: Time 124200, Note Name: C4
Note ON: Time 124200, Note Name: G4, Velocity: 33
Note OFF: Time 124320, Note Name: G4
Note ON: Time 124440, Note Name: G3, Velocity: 28
Note OFF: Time 124560, Note Name: G3
Note ON: Time 124560, Note Name: E4, Velocity: 31
Note OFF: Time 124680, Note Name: E4
Note ON: Time 124680, Note Name: G4, Velocity: 33
Note OFF: Time 124800, Note Name: G4
Note ON: Time 124920, Note Name: G3, Velocity: 28
Note OFF: Time 125040, Note Name: G3
Note ON: Time 125040, Note Name: D4, Velocity: 30
Note OFF: Time 125160, Note Name: D4
Note ON: Time 125160, Note Name: G4, Velocity: 32
Note OFF: Time 125280, Note Name: G4
Note ON: Time 125400, Note Name: G3, Velocity: 28
Note OFF: Time 125520, Note Name: G3
Note ON: Time 125520, Note Name: B3, Velocity: 30
Note OFF: Time 125640, Note Name: B3
Note ON: Time 125640, Note Name: G4, Velocity: 32
Note OFF: Time 125760, Note Name: G4
Note ON: Time 125880, Note Name: G3, Velocity: 28
Note OFF: Time 126000, Note Name: G3
Note ON: Time 126000, Note Name: C4, Velocity: 31
Note OFF: Time 126120, Note Name: C4
Note ON: Time 126120, Note Name: G4, Velocity: 33
Note OFF: Time 126240, Note Name: G4
Note ON: Time 126360, Note Name: G3, Velocity: 28
Note OFF: Time 126480, Note Name: G3
Note ON: Time 126480, Note Name: C4, Velocity: 31
Note OFF: Time 126600, Note Name: C4
Note ON: Time 126600, Note Name: D#4, Velocity: 33
Note OFF: Time 126720, Note Name: D#4
Note ON: Time 126840, Note Name: G3, Velocity: 28
Note OFF: Time 126960, Note Name: G3
Note ON: Time 126960, Note Name: B3, Velocity: 30
Note OFF: Time 127080, Note Name: B3
Note ON: Time 127080, Note Name: D4, Velocity: 32
Note OFF: Time 127200, Note Name: D4
Note ON: Time 127320, Note Name: G3, Velocity: 28
Note OFF: Time 127440, Note Name: G3
Note ON: Time 127440, Note Name: C4, Velocity: 30
Note OFF: Time 127560, Note Name: C4
Note ON: Time 127560, Note Name: D#4, Velocity: 32
Note OFF: Time 127680, Note Name: D#4
Note ON: Time 127800, Note Name: G3, Velocity: 28
Note OFF: Time 127920, Note Name: G3
Note ON: Time 127920, Note Name: B3, Velocity: 30
Note OFF: Time 128040, Note Name: B3
Note ON: Time 128040, Note Name: D4, Velocity: 32
Note OFF: Time 128160, Note Name: D4
Note ON: Time 128280, Note Name: G3, Velocity: 28
Note OFF: Time 128400, Note Name: G3
Note ON: Time 128400, Note Name: C4, Velocity: 30
Note OFF: Time 128520, Note Name: C4
Note ON: Time 128520, Note Name: D#4, Velocity: 32
Note OFF: Time 128640, Note Name: D#4
Note ON: Time 128760, Note Name: G3, Velocity: 28
Note OFF: Time 128880, Note Name: G3
Note ON: Time 128880, Note Name: B3, Velocity: 30
Note OFF: Time 129000, Note Name: B3
Note ON: Time 129000, Note Name: D4, Velocity: 32
Note OFF: Time 129120, Note Name: D4
Note ON: Time 129240, Note Name: G3, Velocity: 28
Note OFF: Time 129360, Note Name: G3
Note ON: Time 129360, Note Name: A3, Velocity: 30
Note OFF: Time 129480, Note Name: A3
Note ON: Time 129480, Note Name: C4, Velocity: 32
Note OFF: Time 129600, Note Name: C4
Note ON: Time 129720, Note Name: G3, Velocity: 36
Note OFF: Time 129840, Note Name: G3
Note ON: Time 129840, Note Name: B3, Velocity: 38
Note OFF: Time 129960, Note Name: B3
Note ON: Time 129960, Note Name: D4, Velocity: 35
Note OFF: Time 130080, Note Name: D4
Note ON: Time 130080, Note Name: G4, Velocity: 43
Note OFF: Time 130200, Note Name: G4
Note ON: Time 130200, Note Name: B4, Velocity: 39
Note OFF: Time 130320, Note Name: B4
Note ON: Time 130320, Note Name: A4, Velocity: 41
Note OFF: Time 130440, Note Name: A4
Note ON: Time 130440, Note Name: F#4, Velocity: 38
Note OFF: Time 130560, Note Name: F#4
Note ON: Time 130560, Note Name: G4, Velocity: 43
Note OFF: Time 130680, Note Name: G4
Note ON: Time 130680, Note Name: B3, Velocity: 38
Note OFF: Time 130800, Note Name: B3
Note ON: Time 130800, Note Name: D4, Velocity: 41
Note OFF: Time 130920, Note Name: D4
Note ON: Time 130920, Note Name: G4, Velocity: 38
Note OFF: Time 131040, Note Name: G4
Note ON: Time 131040, Note Name: B4, Velocity: 46
Note OFF: Time 131160, Note Name: B4
Note ON: Time 131160, Note Name: D5, Velocity: 41
Note OFF: Time 131280, Note Name: D5
Note ON: Time 131280, Note Name: C5, Velocity: 41
Note OFF: Time 131400, Note Name: C5
Note ON: Time 131400, Note Name: A4, Velocity: 37
Note OFF: Time 131520, Note Name: A4
Note ON: Time 131520, Note Name: B4, Velocity: 47
Note OFF: Time 131640, Note Name: B4
Note ON: Time 131640, Note Name: G4, Velocity: 42
Note OFF: Time 131760, Note Name: G4
Note ON: Time 131760, Note Name: B4, Velocity: 47
Note OFF: Time 131880, Note Name: B4
Note ON: Time 131880, Note Name: D5, Velocity: 43
Note OFF: Time 132000, Note Name: D5
Note ON: Time 132000, Note Name: G5, Velocity: 51
Note OFF: Time 132120, Note Name: G5
Note ON: Time 132120, Note Name: B5, Velocity: 46
Note OFF: Time 132240, Note Name: B5
Note ON: Time 132240, Note Name: A5, Velocity: 48
Note OFF: Time 132360, Note Name: A5
Note ON: Time 132360, Note Name: F#5, Velocity: 43
Note OFF: Time 132480, Note Name: F#5
Note ON: Time 132480, Note Name: G5, Velocity: 52
Note OFF: Time 132600, Note Name: G5
Note ON: Time 132600, Note Name: B5, Velocity: 52
Note OFF: Time 132720, Note Name: B5
Note ON: Time 132720, Note Name: A5, Velocity: 53
Note OFF: Time 132840, Note Name: A5
Note ON: Time 132840, Note Name: C6, Velocity: 54
Note OFF: Time 132960, Note Name: C6
Note ON: Time 132960, Note Name: B5, Velocity: 55
Note OFF: Time 133080, Note Name: B5
Note ON: Time 133080, Note Name: D6, Velocity: 56
Note OFF: Time 133200, Note Name: D6
Note ON: Time 133200, Note Name: C#6, Velocity: 56
Note OFF: Time 133320, Note Name: C#6
Note ON: Time 133320, Note Name: E6, Velocity: 57
Note OFF: Time 133440, Note Name: E6
Note ON: Time 133440, Note Name: D6, Velocity: 58
Note OFF: Time 133560, Note Name: D6
Note ON: Time 133560, Note Name: F6, Velocity: 59
Note OFF: Time 133680, Note Name: F6
Note ON: Time 133680, Note Name: E6, Velocity: 60
Note OFF: Time 133800, Note Name: E6
Note ON: Time 133800, Note Name: G6, Velocity: 56
Note OFF: Time 133920, Note Name: G6
Note ON: Time 133920, Note Name: F6, Velocity: 61
Note OFF: Time 134040, Note Name: F6
Note ON: Time 134040, Note Name: A6, Velocity: 62
Note OFF: Time 134160, Note Name: A6
Note ON: Time 134160, Note Name: F6, Velocity: 63
Note OFF: Time 134280, Note Name: F6
Note ON: Time 134280, Note Name: E6, Velocity: 59
Note OFF: Time 134400, Note Name: E6
Note ON: Time 134400, Note Name: D6, Velocity: 65
Note OFF: Time 134520, Note Name: D6
Note ON: Time 134520, Note Name: F6, Velocity: 66
Note OFF: Time 134640, Note Name: F6
Note ON: Time 134640, Note Name: E6, Velocity: 66
Note OFF: Time 134760, Note Name: E6
Note ON: Time 134760, Note Name: G6, Velocity: 64
Note OFF: Time 134880, Note Name: G6
Note ON: Time 134880, Note Name: F6, Velocity: 68
Note OFF: Time 135000, Note Name: F6
Note ON: Time 135000, Note Name: A6, Velocity: 69
Note OFF: Time 135120, Note Name: A6
Note ON: Time 135120, Note Name: F6, Velocity: 70
Note OFF: Time 135240, Note Name: F6
Note ON: Time 135240, Note Name: E6, Velocity: 66
Note OFF: Time 135360, Note Name: E6
Note ON: Time 135360, Note Name: D6, Velocity: 69
Note OFF: Time 135480, Note Name: D6
Note ON: Time 135480, Note Name: F6, Velocity: 65
Note OFF: Time 135600, Note Name: F6
Note ON: Time 135600, Note Name: E6, Velocity: 67
Note OFF: Time 135720, Note Name: E6
Note ON: Time 135720, Note Name: C6, Velocity: 60
Note OFF: Time 135840, Note Name: C6
Note ON: Time 135840, Note Name: B5, Velocity: 64
Note OFF: Time 135960, Note Name: B5
Note ON: Time 135960, Note Name: D6, Velocity: 59
Note OFF: Time 136080, Note Name: D6
Note ON: Time 136080, Note Name: C6, Velocity: 62
Note OFF: Time 136200, Note Name: C6
Note ON: Time 136200, Note Name: A5, Velocity: 55
Note OFF: Time 136320, Note Name: A5
Note ON: Time 136320, Note Name: G5, Velocity: 59
Note OFF: Time 136440, Note Name: G5
Note ON: Time 136440, Note Name: B5, Velocity: 54
Note OFF: Time 136560, Note Name: B5
Note ON: Time 136560, Note Name: A5, Velocity: 56
Note OFF: Time 136680, Note Name: A5
Note ON: Time 136680, Note Name: F5, Velocity: 51
Note OFF: Time 136800, Note Name: F5
Note ON: Time 136800, Note Name: E5, Velocity: 54
Note OFF: Time 136920, Note Name: E5
Note ON: Time 136920, Note Name: G5, Velocity: 46
Note OFF: Time 137040, Note Name: G5
Note ON: Time 137040, Note Name: F5, Velocity: 49
Note OFF: Time 137160, Note Name: F5
Note ON: Time 137160, Note Name: D5, Velocity: 42
Note OFF: Time 137280, Note Name: D5
Note ON: Time 137280, Note Name: C5, Velocity: 49
Note OFF: Time 137400, Note Name: C5
Note ON: Time 137760, Note Name: G6, Velocity: 50
Note ON: Time 137760, Note Name: G5, Velocity: 50
Note OFF: Time 138000, Note Name: G5
Note OFF: Time 138000, Note Name: G6
Note ON: Time 138240, Note Name: G6, Velocity: 54
Note ON: Time 138240, Note Name: G5, Velocity: 54
Note OFF: Time 138960, Note Name: G5
Note OFF: Time 138960, Note Name: G6
Note ON: Time 138960, Note Name: E6, Velocity: 47
Note ON: Time 138960, Note Name: E5, Velocity: 47
Note OFF: Time 139200, Note Name: E5
Note OFF: Time 139200, Note Name: E6
Note ON: Time 139200, Note Name: D6, Velocity: 50
Note ON: Time 139200, Note Name: D5, Velocity: 50
Note OFF: Time 139680, Note Name: D5
Note OFF: Time 139680, Note Name: D6
Note ON: Time 139680, Note Name: G5, Velocity: 41
Note ON: Time 139680, Note Name: G4, Velocity: 41
Note OFF: Time 140160, Note Name: G4
Note OFF: Time 140160, Note Name: G5
Note ON: Time 140160, Note Name: C6, Velocity: 50
Note ON: Time 140160, Note Name: C5, Velocity: 50
Note OFF: Time 140640, Note Name: C5
Note OFF: Time 140640, Note Name: C6
Note ON: Time 140640, Note Name: E6, Velocity: 47
Note ON: Time 140640, Note Name: E5, Velocity: 47
Note OFF: Time 140880, Note Name: E5
Note OFF: Time 140880, Note Name: E6
Note ON: Time 141600, Note Name: G6, Velocity: 50
Note ON: Time 141600, Note Name: G5, Velocity: 50
Note OFF: Time 141840, Note Name: G5
Note OFF: Time 141840, Note Name: G6
Note ON: Time 142080, Note Name: G6, Velocity: 54
Note ON: Time 142080, Note Name: G5, Velocity: 54
Note OFF: Time 142800, Note Name: G5
Note OFF: Time 142800, Note Name: G6
Note ON: Time 142800, Note Name: E6, Velocity: 47
Note ON: Time 142800, Note Name: E5, Velocity: 47
Note OFF: Time 143040, Note Name: E5
Note OFF: Time 143040, Note Name: E6
Note ON: Time 143040, Note Name: D6, Velocity: 50
Note ON: Time 143040, Note Name: D5, Velocity: 50
Note OFF: Time 143520, Note Name: D5
Note OFF: Time 143520, Note Name: D6
Note ON: Time 143520, Note Name: G5, Velocity: 41
Note ON: Time 143520, Note Name: G4, Velocity: 41
Note OFF: Time 144000, Note Name: G4
Note OFF: Time 144000, Note Name: G5
Note ON: Time 144000, Note Name: C6, Velocity: 50
Note ON: Time 144000, Note Name: C5, Velocity: 50
Note OFF: Time 144240, Note Name: C5
Note OFF: Time 144240, Note Name: C6
Note ON: Time 145440, Note Name: F6, Velocity: 50
Note ON: Time 145440, Note Name: F5, Velocity: 50
Note OFF: Time 145680, Note Name: F5
Note OFF: Time 145680, Note Name: F6
Note ON: Time 145920, Note Name: F6, Velocity: 54
Note ON: Time 145920, Note Name: F5, Velocity: 54
Note OFF: Time 146640, Note Name: F5
Note OFF: Time 146640, Note Name: F6
Note ON: Time 146640, Note Name: D6, Velocity: 47
Note ON: Time 146640, Note Name: D5, Velocity: 47
Note OFF: Time 146880, Note Name: D5
Note OFF: Time 146880, Note Name: D6
Note ON: Time 146880, Note Name: E6, Velocity: 50
Note ON: Time 146880, Note Name: E5, Velocity: 50
Note OFF: Time 147360, Note Name: E5
Note OFF: Time 147360, Note Name: E6
Note ON: Time 147360, Note Name: C6, Velocity: 41
Note ON: Time 147360, Note Name: C5, Velocity: 41
Note OFF: Time 147840, Note Name: C5
Note OFF: Time 147840, Note Name: C6
Note ON: Time 147840, Note Name: B5, Velocity: 50
Note ON: Time 147840, Note Name: B4, Velocity: 50
Note OFF: Time 148320, Note Name: B4
Note OFF: Time 148320, Note Name: B5
Note ON: Time 148320, Note Name: D6, Velocity: 47
Note ON: Time 148320, Note Name: D5, Velocity: 47
Note OFF: Time 148560, Note Name: D5
Note OFF: Time 148560, Note Name: D6
Note ON: Time 149280, Note Name: F6, Velocity: 50
Note ON: Time 149280, Note Name: F5, Velocity: 50
Note OFF: Time 149520, Note Name: F5
Note OFF: Time 149520, Note Name: F6
Note ON: Time 149760, Note Name: F6, Velocity: 54
Note ON: Time 149760, Note Name: F5, Velocity: 54
Note OFF: Time 150480, Note Name: F5
Note OFF: Time 150480, Note Name: F6
Note ON: Time 150480, Note Name: D6, Velocity: 47
Note ON: Time 150480, Note Name: D5, Velocity: 47
Note OFF: Time 150720, Note Name: D5
Note OFF: Time 150720, Note Name: D6
Note ON: Time 150720, Note Name: D#6, Velocity: 50
Note ON: Time 150720, Note Name: D#5, Velocity: 50
Note OFF: Time 151200, Note Name: D#5
Note OFF: Time 151200, Note Name: D#6
Note ON: Time 151200, Note Name: C6, Velocity: 41
Note ON: Time 151200, Note Name: C5, Velocity: 41
Note OFF: Time 151680, Note Name: C5
Note OFF: Time 151680, Note Name: C6
Note ON: Time 151680, Note Name: B5, Velocity: 50
Note ON: Time 151680, Note Name: B4, Velocity: 50
Note OFF: Time 152160, Note Name: B4
Note OFF: Time 152160, Note Name: B5
Note ON: Time 152160, Note Name: D6, Velocity: 47
Note ON: Time 152160, Note Name: D5, Velocity: 47
Note OFF: Time 152640, Note Name: D5
Note OFF: Time 152640, Note Name: D6
Note ON: Time 152640, Note Name: E6, Velocity: 50
Note ON: Time 152640, Note Name: E5, Velocity: 50
Note OFF: Time 153120, Note Name: E5
Note OFF: Time 153120, Note Name: E6
Note ON: Time 153120, Note Name: C6, Velocity: 42
Note ON: Time 153120, Note Name: C5, Velocity: 42
Note OFF: Time 153600, Note Name: C5
Note OFF: Time 153600, Note Name: C6
Note ON: Time 153600, Note Name: B5, Velocity: 53
Note ON: Time 153600, Note Name: B4, Velocity: 53
Note OFF: Time 154080, Note Name: B4
Note OFF: Time 154080, Note Name: B5
Note ON: Time 154080, Note Name: D6, Velocity: 52
Note ON: Time 154080, Note Name: D5, Velocity: 52
Note OFF: Time 154560, Note Name: D5
Note OFF: Time 154560, Note Name: D6
Note ON: Time 154560, Note Name: D#6, Velocity: 50
Note ON: Time 154560, Note Name: D#5, Velocity: 50
Note OFF: Time 155040, Note Name: D#5
Note OFF: Time 155040, Note Name: D#6
Note ON: Time 155040, Note Name: C6, Velocity: 41
Note ON: Time 155040, Note Name: C5, Velocity: 41
Note OFF: Time 155520, Note Name: C5
Note OFF: Time 155520, Note Name: C6
Note ON: Time 155520, Note Name: G5, Velocity: 50
Note OFF: Time 156000, Note Name: G5
Note ON: Time 156000, Note Name: G5, Velocity: 47
Note OFF: Time 156480, Note Name: G5
Note ON: Time 156480, Note Name: A5, Velocity: 37
Note OFF: Time 156560, Note Name: A5
Note ON: Time 156560, Note Name: G5, Velocity: 37
Note OFF: Time 156640, Note Name: G5
Note ON: Time 156640, Note Name: A5, Velocity: 37
Note OFF: Time 156720, Note Name: A5
Note ON: Time 156720, Note Name: G5, Velocity: 37
Note OFF: Time 156800, Note Name: G5
Note ON: Time 156800, Note Name: A5, Velocity: 38
Note OFF: Time 156880, Note Name: A5
Note ON: Time 156880, Note Name: G5, Velocity: 38
Note OFF: Time 156960, Note Name: G5
Note ON: Time 156960, Note Name: A5, Velocity: 39
Note OFF: Time 157040, Note Name: A5
Note ON: Time 157040, Note Name: G5, Velocity: 39
Note OFF: Time 157120, Note Name: G5
Note ON: Time 157120, Note Name: A5, Velocity: 39
Note OFF: Time 157200, Note Name: A5
Note ON: Time 157200, Note Name: G5, Velocity: 39
Note OFF: Time 157280, Note Name: G5
Note ON: Time 157280, Note Name: A5, Velocity: 40
Note OFF: Time 157360, Note Name: A5
Note ON: Time 157360, Note Name: G5, Velocity: 40
Note OFF: Time 157440, Note Name: G5
Note ON: Time 157440, Note Name: A5, Velocity: 41
Note OFF: Time 157520, Note Name: A5
Note ON: Time 157520, Note Name: G5, Velocity: 41
Note OFF: Time 157600, Note Name: G5
Note ON: Time 157600, Note Name: A5, Velocity: 41
Note OFF: Time 157680, Note Name: A5
Note ON: Time 157680, Note Name: G5, Velocity: 43
Note OFF: Time 157760, Note Name: G5
Note ON: Time 157760, Note Name: A5, Velocity: 43
Note OFF: Time 157840, Note Name: A5
Note ON: Time 157840, Note Name: G5, Velocity: 43
Note OFF: Time 157920, Note Name: G5
Note ON: Time 157920, Note Name: A5, Velocity: 44
Note OFF: Time 158000, Note Name: A5
Note ON: Time 158000, Note Name: G5, Velocity: 44
Note OFF: Time 158080, Note Name: G5
Note ON: Time 158080, Note Name: A5, Velocity: 45
Note OFF: Time 158160, Note Name: A5
Note ON: Time 158160, Note Name: G5, Velocity: 45
Note OFF: Time 158240, Note Name: G5
Note ON: Time 158240, Note Name: A5, Velocity: 45
Note OFF: Time 158320, Note Name: A5
Note ON: Time 158320, Note Name: G5, Velocity: 45
Note OFF: Time 158400, Note Name: G5
Note ON: Time 158400, Note Name: A5, Velocity: 47
Note OFF: Time 158480, Note Name: A5
Note ON: Time 158480, Note Name: G5, Velocity: 47
Note OFF: Time 158560, Note Name: G5
Note ON: Time 158560, Note Name: A5, Velocity: 47
Note OFF: Time 158640, Note Name: A5
Note ON: Time 158640, Note Name: G5, Velocity: 47
Note OFF: Time 158720, Note Name: G5
Note ON: Time 158720, Note Name: A5, Velocity: 47
Note OFF: Time 158800, Note Name: A5
Note ON: Time 158800, Note Name: G5, Velocity: 48
Note OFF: Time 158880, Note Name: G5
Note ON: Time 158880, Note Name: A5, Velocity: 48
Note OFF: Time 158960, Note Name: A5
Note ON: Time 158960, Note Name: G5, Velocity: 48
Note OFF: Time 159040, Note Name: G5
Note ON: Time 159040, Note Name: A5, Velocity: 49
Note OFF: Time 159120, Note Name: A5
Note ON: Time 159120, Note Name: G5, Velocity: 49
Note OFF: Time 159200, Note Name: G5
Note ON: Time 159200, Note Name: A5, Velocity: 50
Note OFF: Time 159280, Note Name: A5
Note ON: Time 159280, Note Name: G5, Velocity: 51
Note OFF: Time 159360, Note Name: G5
Note ON: Time 159360, Note Name: A5, Velocity: 51
Note OFF: Time 159440, Note Name: A5
Note ON: Time 159440, Note Name: G5, Velocity: 52
Note OFF: Time 159520, Note Name: G5
Note ON: Time 159520, Note Name: A5, Velocity: 52
Note OFF: Time 159600, Note Name: A5
Note ON: Time 159600, Note Name: G5, Velocity: 52
Note OFF: Time 159680, Note Name: G5
Note ON: Time 159680, Note Name: A5, Velocity: 54
Note OFF: Time 159760, Note Name: A5
Note ON: Time 159760, Note Name: G5, Velocity: 54
Note OFF: Time 159840, Note Name: G5
Note ON: Time 159840, Note Name: A5, Velocity: 54
Note OFF: Time 159920, Note Name: A5
Note ON: Time 159920, Note Name: G5, Velocity: 55
Note OFF: Time 160000, Note Name: G5
Note ON: Time 160000, Note Name: A5, Velocity: 55
Note OFF: Time 160080, Note Name: A5
Note ON: Time 160080, Note Name: G5, Velocity: 55
Note OFF: Time 160160, Note Name: G5
Note ON: Time 160160, Note Name: A5, Velocity: 56
Note OFF: Time 160240, Note Name: A5
Note ON: Time 160240, Note Name: G5, Velocity: 56
Note OFF: Time 160320, Note Name: G5
Note ON: Time 160800, Note Name: G6, Velocity: 89
Note OFF: Time 161040, Note Name: G6
Note ON: Time 161280, Note Name: G6, Velocity: 90
Note OFF: Time 162000, Note Name: G6
Note ON: Time 162000, Note Name: E6, Velocity: 85
Note OFF: Time 162240, Note Name: E6
Note ON: Time 162240, Note Name: D6, Velocity: 90
Note OFF: Time 162720, Note Name: D6
Note ON: Time 162720, Note Name: G5, Velocity: 84
Note OFF: Time 162790, Note Name: G5
Note ON: Time 163200, Note Name: C6, Velocity: 87
Note OFF: Time 163680, Note Name: C6
Note ON: Time 163680, Note Name: E6, Velocity: 84
Note OFF: Time 163920, Note Name: E6
Note ON: Time 164640, Note Name: G6, Velocity: 90
Note OFF: Time 164880, Note Name: G6
Note ON: Time 165120, Note Name: G6, Velocity: 92
Note OFF: Time 165840, Note Name: G6
Note ON: Time 165840, Note Name: E6, Velocity: 84
Note OFF: Time 166080, Note Name: E6
Note ON: Time 166080, Note Name: D6, Velocity: 90
Note OFF: Time 166560, Note Name: D6
Note ON: Time 166560, Note Name: G5, Velocity: 82
Note OFF: Time 166630, Note Name: G5
Note ON: Time 167040, Note Name: C6, Velocity: 86
Note OFF: Time 167280, Note Name: C6
Note ON: Time 167400, Note Name: G3, Velocity: 67
Note OFF: Time 167520, Note Name: G3
Note ON: Time 167640, Note Name: D#4, Velocity: 62
Note OFF: Time 167760, Note Name: D#4
Note ON: Time 167880, Note Name: D4, Velocity: 62
Note OFF: Time 168000, Note Name: D4
Note ON: Time 168120, Note Name: C4, Velocity: 65
Note OFF: Time 168240, Note Name: C4
Note ON: Time 168360, Note Name: G3, Velocity: 61
Note OFF: Time 168480, Note Name: G3
Note ON: Time 168600, Note Name: A3, Velocity: 62
Note OFF: Time 168720, Note Name: A3
Note ON: Time 168840, Note Name: B3, Velocity: 62
Note OFF: Time 168960, Note Name: B3
Note ON: Time 169080, Note Name: C4, Velocity: 65
Note OFF: Time 169200, Note Name: C4
Note ON: Time 169320, Note Name: C4, Velocity: 61
Note OFF: Time 169440, Note Name: C4
Note ON: Time 169560, Note Name: G#4, Velocity: 66
Note OFF: Time 169680, Note Name: G#4
Note ON: Time 169800, Note Name: G4, Velocity: 62
Note OFF: Time 169920, Note Name: G4
Note ON: Time 170040, Note Name: F4, Velocity: 68
Note OFF: Time 170160, Note Name: F4
Note ON: Time 170280, Note Name: C4, Velocity: 63
Note OFF: Time 170400, Note Name: C4
Note ON: Time 170520, Note Name: D4, Velocity: 63
Note OFF: Time 170640, Note Name: D4
Note ON: Time 170760, Note Name: E4, Velocity: 63
Note OFF: Time 170880, Note Name: E4
Note ON: Time 171000, Note Name: F4, Velocity: 66
Note OFF: Time 171120, Note Name: F4
Note ON: Time 171240, Note Name: F4, Velocity: 62
Note OFF: Time 171360, Note Name: F4
Note ON: Time 171480, Note Name: C#5, Velocity: 68
Note OFF: Time 171600, Note Name: C#5
Note ON: Time 171720, Note Name: C5, Velocity: 64
Note OFF: Time 171840, Note Name: C5
Note ON: Time 171960, Note Name: A#4, Velocity: 68
Note OFF: Time 172080, Note Name: A#4
Note ON: Time 172200, Note Name: G#4, Velocity: 62
Note OFF: Time 172320, Note Name: G#4
Note ON: Time 172440, Note Name: G4, Velocity: 62
Note OFF: Time 172560, Note Name: G4
Note ON: Time 172680, Note Name: F4, Velocity: 62
Note OFF: Time 172800, Note Name: F4
Note ON: Time 172920, Note Name: D#4, Velocity: 69
Note OFF: Time 173040, Note Name: D#4
Note ON: Time 173160, Note Name: D#4, Velocity: 63
Note OFF: Time 173280, Note Name: D#4
Note ON: Time 173400, Note Name: D#3, Velocity: 40
Note ON: Time 173400, Note Name: G3, Velocity: 40
Note ON: Time 173400, Note Name: D#4, Velocity: 63
Note OFF: Time 173520, Note Name: D#4
Note OFF: Time 173520, Note Name: G3
Note OFF: Time 173520, Note Name: D#3
Note ON: Time 173640, Note Name: F3, Velocity: 40
Note ON: Time 173640, Note Name: G#3, Velocity: 50
Note ON: Time 173640, Note Name: D#4, Velocity: 63
Note OFF: Time 173760, Note Name: D#4
Note OFF: Time 173760, Note Name: G#3
Note OFF: Time 173760, Note Name: F3
Note ON: Time 173880, Note Name: G3, Velocity: 44
Note ON: Time 173880, Note Name: A#3, Velocity: 56
Note ON: Time 173880, Note Name: D#4, Velocity: 71
Note OFF: Time 174000, Note Name: D#4
Note OFF: Time 174000, Note Name: A#3
Note OFF: Time 174000, Note Name: G3
Note ON: Time 174120, Note Name: G#3, Velocity: 40
Note ON: Time 174120, Note Name: C4, Velocity: 51
Note ON: Time 174120, Note Name: D#4, Velocity: 64
Note OFF: Time 174240, Note Name: D#4
Note OFF: Time 174240, Note Name: C4
Note OFF: Time 174240, Note Name: G#3
Note ON: Time 174360, Note Name: A#3, Velocity: 40
Note ON: Time 174360, Note Name: C#4, Velocity: 51
Note ON: Time 174360, Note Name: D#4, Velocity: 64
Note OFF: Time 174480, Note Name: D#4
Note OFF: Time 174480, Note Name: C#4
Note OFF: Time 174480, Note Name: A#3
Note ON: Time 174600, Note Name: G3, Velocity: 40
Note ON: Time 174600, Note Name: A#3, Velocity: 51
Note ON: Time 174600, Note Name: D#4, Velocity: 64
Note OFF: Time 174720, Note Name: D#4
Note OFF: Time 174720, Note Name: A#3
Note OFF: Time 174720, Note Name: G3
Note ON: Time 174720, Note Name: C4, Velocity: 82
Note OFF: Time 174960, Note Name: C4
Note ON: Time 174960, Note Name: G3, Velocity: 79
Note ON: Time 174960, Note Name: G4, Velocity: 79
Note OFF: Time 175080, Note Name: G4
Note OFF: Time 175080, Note Name: G3
Note ON: Time 175200, Note Name: D#4, Velocity: 62
Note ON: Time 175200, Note Name: D#5, Velocity: 74
Note OFF: Time 175320, Note Name: D#5
Note OFF: Time 175320, Note Name: D#4
Note ON: Time 175440, Note Name: D4, Velocity: 62
Note ON: Time 175440, Note Name: D5, Velocity: 74
Note OFF: Time 175560, Note Name: D5
Note OFF: Time 175560, Note Name: D4
Note ON: Time 175680, Note Name: C4, Velocity: 65
Note ON: Time 175680, Note Name: C5, Velocity: 77
Note OFF: Time 175800, Note Name: C5
Note OFF: Time 175800, Note Name: C4
Note ON: Time 175920, Note Name: G3, Velocity: 61
Note ON: Time 175920, Note Name: G4, Velocity: 72
Note OFF: Time 176040, Note Name: G4
Note OFF: Time 176040, Note Name: G3
Note ON: Time 176160, Note Name: A3, Velocity: 62
Note ON: Time 176160, Note Name: A4, Velocity: 73
Note OFF: Time 176280, Note Name: A4
Note OFF: Time 176280, Note Name: A3
Note ON: Time 176400, Note Name: B3, Velocity: 62
Note ON: Time 176400, Note Name: B4, Velocity: 73
Note OFF: Time 176520, Note Name: B4
Note OFF: Time 176520, Note Name: B3
Note ON: Time 176640, Note Name: C4, Velocity: 65
Note ON: Time 176640, Note Name: C5, Velocity: 77
Note OFF: Time 176760, Note Name: C5
Note OFF: Time 176760, Note Name: C4
Note ON: Time 176880, Note Name: C4, Velocity: 61
Note ON: Time 176880, Note Name: C5, Velocity: 72
Note OFF: Time 177000, Note Name: C5
Note OFF: Time 177000, Note Name: C4
Note ON: Time 177120, Note Name: G#4, Velocity: 66
Note ON: Time 177120, Note Name: G#5, Velocity: 78
Note OFF: Time 177240, Note Name: G#5
Note OFF: Time 177240, Note Name: G#4
Note ON: Time 177360, Note Name: G4, Velocity: 62
Note ON: Time 177360, Note Name: G5, Velocity: 73
Note OFF: Time 177480, Note Name: G5
Note OFF: Time 177480, Note Name: G4
Note ON: Time 177600, Note Name: F4, Velocity: 68
Note ON: Time 177600, Note Name: F5, Velocity: 80
Note OFF: Time 177720, Note Name: F5
Note OFF: Time 177720, Note Name: F4
Note ON: Time 177840, Note Name: C4, Velocity: 63
Note ON: Time 177840, Note Name: C5, Velocity: 75
Note OFF: Time 177960, Note Name: C5
Note OFF: Time 177960, Note Name: C4
Note ON: Time 178080, Note Name: D4, Velocity: 63
Note ON: Time 178080, Note Name: D5, Velocity: 75
Note OFF: Time 178200, Note Name: D5
Note OFF: Time 178200, Note Name: D4
Note ON: Time 178320, Note Name: E4, Velocity: 63
Note ON: Time 178320, Note Name: E5, Velocity: 75
Note OFF: Time 178440, Note Name: E5
Note OFF: Time 178440, Note Name: E4
Note ON: Time 178560, Note Name: F4, Velocity: 66
Note ON: Time 178560, Note Name: F5, Velocity: 78
Note OFF: Time 178680, Note Name: F5
Note OFF: Time 178680, Note Name: F4
Note ON: Time 178800, Note Name: F4, Velocity: 62
Note ON: Time 178800, Note Name: F5, Velocity: 74
Note OFF: Time 178920, Note Name: F5
Note OFF: Time 178920, Note Name: F4
Note ON: Time 179040, Note Name: C#5, Velocity: 68
Note ON: Time 179040, Note Name: C#6, Velocity: 80
Note OFF: Time 179160, Note Name: C#6
Note OFF: Time 179160, Note Name: C#5
Note ON: Time 179280, Note Name: C5, Velocity: 64
Note ON: Time 179280, Note Name: C6, Velocity: 76
Note OFF: Time 179400, Note Name: C6
Note OFF: Time 179400, Note Name: C5
Note ON: Time 179520, Note Name: A#4, Velocity: 68
Note ON: Time 179520, Note Name: A#5, Velocity: 80
Note OFF: Time 179640, Note Name: A#5
Note OFF: Time 179640, Note Name: A#4
Note ON: Time 179760, Note Name: G#4, Velocity: 62
Note ON: Time 179760, Note Name: G#5, Velocity: 73
Note OFF: Time 179880, Note Name: G#5
Note OFF: Time 179880, Note Name: G#4
Note ON: Time 180000, Note Name: G4, Velocity: 62
Note ON: Time 180000, Note Name: G5, Velocity: 74
Note OFF: Time 180120, Note Name: G5
Note OFF: Time 180120, Note Name: G4
Note ON: Time 180240, Note Name: F4, Velocity: 62
Note ON: Time 180240, Note Name: F5, Velocity: 74
Note OFF: Time 180360, Note Name: F5
Note OFF: Time 180360, Note Name: F4
Note ON: Time 180480, Note Name: D#4, Velocity: 69
Note ON: Time 180480, Note Name: D#5, Velocity: 82
Note OFF: Time 180600, Note Name: D#5
Note OFF: Time 180600, Note Name: D#4
Note ON: Time 180720, Note Name: D#4, Velocity: 63
Note ON: Time 180720, Note Name: D#5, Velocity: 75
Note OFF: Time 180840, Note Name: D#5
Note OFF: Time 180840, Note Name: D#4
Note ON: Time 180960, Note Name: D#4, Velocity: 60
Note ON: Time 180960, Note Name: G4, Velocity: 60
Note ON: Time 180960, Note Name: D#5, Velocity: 75
Note OFF: Time 181080, Note Name: D#5
Note OFF: Time 181080, Note Name: G4
Note OFF: Time 181080, Note Name: D#4
Note ON: Time 181200, Note Name: F4, Velocity: 60
Note ON: Time 181200, Note Name: G#4, Velocity: 60
Note ON: Time 181200, Note Name: D#5, Velocity: 75
Note OFF: Time 181320, Note Name: D#5
Note OFF: Time 181320, Note Name: G#4
Note OFF: Time 181320, Note Name: F4
Note ON: Time 181440, Note Name: G4, Velocity: 67
Note ON: Time 181440, Note Name: A#4, Velocity: 67
Note ON: Time 181440, Note Name: D#5, Velocity: 84
Note OFF: Time 181560, Note Name: D#5
Note OFF: Time 181560, Note Name: A#4
Note OFF: Time 181560, Note Name: G4
Note ON: Time 181680, Note Name: G#4, Velocity: 60
Note ON: Time 181680, Note Name: C5, Velocity: 60
Note ON: Time 181680, Note Name: D#5, Velocity: 76
Note OFF: Time 181800, Note Name: D#5
Note OFF: Time 181800, Note Name: C5
Note OFF: Time 181800, Note Name: G#4
Note ON: Time 181920, Note Name: A#4, Velocity: 60
Note ON: Time 181920, Note Name: C#5, Velocity: 60
Note ON: Time 181920, Note Name: D#5, Velocity: 76
Note OFF: Time 182040, Note Name: D#5
Note OFF: Time 182040, Note Name: C#5
Note OFF: Time 182040, Note Name: A#4
Note ON: Time 182160, Note Name: G4, Velocity: 60
Note ON: Time 182160, Note Name: A#4, Velocity: 60
Note ON: Time 182160, Note Name: D#5, Velocity: 76
Note OFF: Time 182280, Note Name: D#5
Note OFF: Time 182280, Note Name: A#4
Note OFF: Time 182280, Note Name: G4
Note ON: Time 182400, Note Name: G#4, Velocity: 71
Note ON: Time 182400, Note Name: C5, Velocity: 76
Note OFF: Time 182640, Note Name: C5
Note OFF: Time 182640, Note Name: G#4
Note ON: Time 182640, Note Name: G4, Velocity: 55
Note OFF: Time 182720, Note Name: G4
Note ON: Time 182720, Note Name: F4, Velocity: 56
Note OFF: Time 182800, Note Name: F4
Note ON: Time 182800, Note Name: G4, Velocity: 57
Note OFF: Time 182880, Note Name: G4
Note ON: Time 182880, Note Name: G#4, Velocity: 58
Note OFF: Time 182960, Note Name: G#4
Note ON: Time 182960, Note Name: C5, Velocity: 60
Note OFF: Time 183040, Note Name: C5
Note ON: Time 183040, Note Name: C#5, Velocity: 61
Note OFF: Time 183120, Note Name: C#5
Note ON: Time 183120, Note Name: D#5, Velocity: 62
Note OFF: Time 183200, Note Name: D#5
Note ON: Time 183200, Note Name: F5, Velocity: 63
Note OFF: Time 183280, Note Name: F5
Note ON: Time 183280, Note Name: G5, Velocity: 63
Note OFF: Time 183360, Note Name: G5
Note ON: Time 183360, Note Name: G#5, Velocity: 63
Note OFF: Time 183440, Note Name: G#5
Note ON: Time 183440, Note Name: A#5, Velocity: 63
Note OFF: Time 183520, Note Name: A#5
Note ON: Time 183520, Note Name: C6, Velocity: 65
Note OFF: Time 183600, Note Name: C6
Note ON: Time 183600, Note Name: C#6, Velocity: 66
Note OFF: Time 183680, Note Name: C#6
Note ON: Time 183680, Note Name: C6, Velocity: 63
Note OFF: Time 183760, Note Name: C6
Note ON: Time 183760, Note Name: A#5, Velocity: 63
Note OFF: Time 183840, Note Name: A#5
Note ON: Time 183840, Note Name: C#6, Velocity: 66
Note OFF: Time 183920, Note Name: C#6
Note ON: Time 183920, Note Name: C6, Velocity: 63
Note OFF: Time 184000, Note Name: C6
Note ON: Time 184000, Note Name: A#5, Velocity: 63
Note OFF: Time 184080, Note Name: A#5
Note ON: Time 184080, Note Name: C#6, Velocity: 67
Note OFF: Time 184160, Note Name: C#6
Note ON: Time 184160, Note Name: C6, Velocity: 63
Note OFF: Time 184240, Note Name: C6
Note ON: Time 184240, Note Name: A#5, Velocity: 63
Note OFF: Time 184320, Note Name: A#5
Note ON: Time 184320, Note Name: G#5, Velocity: 76
Note OFF: Time 184560, Note Name: G#5
Note ON: Time 184560, Note Name: E4, Velocity: 55
Note OFF: Time 184640, Note Name: E4
Note ON: Time 184640, Note Name: D4, Velocity: 56
Note OFF: Time 184720, Note Name: D4
Note ON: Time 184720, Note Name: E4, Velocity: 57
Note OFF: Time 184800, Note Name: E4
Note ON: Time 184800, Note Name: F4, Velocity: 58
Note OFF: Time 184880, Note Name: F4
Note ON: Time 184880, Note Name: G#4, Velocity: 60
Note OFF: Time 184960, Note Name: G#4
Note ON: Time 184960, Note Name: A#4, Velocity: 61
Note OFF: Time 185040, Note Name: A#4
Note ON: Time 185040, Note Name: C5, Velocity: 62
Note OFF: Time 185120, Note Name: C5
Note ON: Time 185120, Note Name: D5, Velocity: 63
Note OFF: Time 185200, Note Name: D5
Note ON: Time 185200, Note Name: E5, Velocity: 63
Note OFF: Time 185280, Note Name: E5
Note ON: Time 185280, Note Name: F5, Velocity: 63
Note OFF: Time 185360, Note Name: F5
Note ON: Time 185360, Note Name: G5, Velocity: 63
Note OFF: Time 185440, Note Name: G5
Note ON: Time 185440, Note Name: G#5, Velocity: 65
Note OFF: Time 185520, Note Name: G#5
Note ON: Time 185520, Note Name: A#5, Velocity: 66
Note OFF: Time 185600, Note Name: A#5
Note ON: Time 185600, Note Name: G#5, Velocity: 63
Note OFF: Time 185680, Note Name: G#5
Note ON: Time 185680, Note Name: G5, Velocity: 63
Note OFF: Time 185760, Note Name: G5
Note ON: Time 185760, Note Name: A#5, Velocity: 66
Note OFF: Time 185840, Note Name: A#5
Note ON: Time 185840, Note Name: G#5, Velocity: 63
Note OFF: Time 185920, Note Name: G#5
Note ON: Time 185920, Note Name: G5, Velocity: 63
Note OFF: Time 186000, Note Name: G5
Note ON: Time 186000, Note Name: A#5, Velocity: 67
Note OFF: Time 186080, Note Name: A#5
Note ON: Time 186080, Note Name: G#5, Velocity: 63
Note OFF: Time 186160, Note Name: G#5
Note ON: Time 186160, Note Name: G5, Velocity: 63
Note OFF: Time 186240, Note Name: G5
Note ON: Time 186240, Note Name: G#5, Velocity: 70
Note OFF: Time 186320, Note Name: G#5
Note ON: Time 186320, Note Name: A#5, Velocity: 68
Note OFF: Time 186400, Note Name: A#5
Note ON: Time 186400, Note Name: G#5, Velocity: 68
Note OFF: Time 186480, Note Name: G#5
Note ON: Time 186480, Note Name: G5, Velocity: 70
Note OFF: Time 186560, Note Name: G5
Note ON: Time 186560, Note Name: G#5, Velocity: 66
Note OFF: Time 186640, Note Name: G#5
Note ON: Time 186640, Note Name: G5, Velocity: 66
Note OFF: Time 186720, Note Name: G5
Note ON: Time 186720, Note Name: F5, Velocity: 69
Note OFF: Time 186800, Note Name: F5
Note ON: Time 186800, Note Name: G5, Velocity: 66
Note OFF: Time 186880, Note Name: G5
Note ON: Time 186880, Note Name: F5, Velocity: 65
Note OFF: Time 186960, Note Name: F5
Note ON: Time 186960, Note Name: D#5, Velocity: 69
Note OFF: Time 187040, Note Name: D#5
Note ON: Time 187040, Note Name: F5, Velocity: 64
Note OFF: Time 187120, Note Name: F5
Note ON: Time 187120, Note Name: D#5, Velocity: 64
Note OFF: Time 187200, Note Name: D#5
Note ON: Time 187200, Note Name: D5, Velocity: 68
Note OFF: Time 187280, Note Name: D5
Note ON: Time 187280, Note Name: D#5, Velocity: 64
Note OFF: Time 187360, Note Name: D#5
Note ON: Time 187360, Note Name: D5, Velocity: 64
Note OFF: Time 187440, Note Name: D5
Note ON: Time 187440, Note Name: D#5, Velocity: 68
Note OFF: Time 187520, Note Name: D#5
Note ON: Time 187520, Note Name: F5, Velocity: 64
Note OFF: Time 187600, Note Name: F5
Note ON: Time 187600, Note Name: D#5, Velocity: 64
Note OFF: Time 187680, Note Name: D#5
Note ON: Time 187680, Note Name: F5, Velocity: 70
Note OFF: Time 187760, Note Name: F5
Note ON: Time 187760, Note Name: G5, Velocity: 65
Note OFF: Time 187840, Note Name: G5
Note ON: Time 187840, Note Name: F5, Velocity: 66
Note OFF: Time 187920, Note Name: F5
Note ON: Time 187920, Note Name: F#5, Velocity: 70
Note OFF: Time 188000, Note Name: F#5
Note ON: Time 188000, Note Name: G5, Velocity: 66
Note OFF: Time 188080, Note Name: G5
Note ON: Time 188080, Note Name: F#5, Velocity: 66
Note OFF: Time 188160, Note Name: F#5
Note ON: Time 188160, Note Name: G5, Velocity: 72
Note OFF: Time 188240, Note Name: G5
Note ON: Time 188240, Note Name: G#5, Velocity: 67
Note OFF: Time 188320, Note Name: G#5
Note ON: Time 188320, Note Name: G5, Velocity: 67
Note OFF: Time 188400, Note Name: G5
Note ON: Time 188400, Note Name: F#5, Velocity: 67
Note OFF: Time 188480, Note Name: F#5
Note ON: Time 188480, Note Name: G5, Velocity: 67
Note OFF: Time 188560, Note Name: G5
Note ON: Time 188560, Note Name: F#5, Velocity: 67
Note OFF: Time 188640, Note Name: F#5
Note ON: Time 188640, Note Name: G5, Velocity: 72
Note OFF: Time 188720, Note Name: G5
Note ON: Time 188720, Note Name: G#5, Velocity: 67
Note OFF: Time 188800, Note Name: G#5
Note ON: Time 188800, Note Name: G5, Velocity: 67
Note OFF: Time 188880, Note Name: G5
Note ON: Time 188880, Note Name: F#5, Velocity: 67
Note OFF: Time 188960, Note Name: F#5
Note ON: Time 188960, Note Name: G5, Velocity: 67
Note OFF: Time 189040, Note Name: G5
Note ON: Time 189040, Note Name: F#5, Velocity: 67
Note OFF: Time 189120, Note Name: F#5
Note ON: Time 189120, Note Name: G5, Velocity: 72
Note OFF: Time 189200, Note Name: G5
Note ON: Time 189200, Note Name: G#5, Velocity: 67
Note OFF: Time 189280, Note Name: G#5
Note ON: Time 189280, Note Name: G5, Velocity: 67
Note OFF: Time 189360, Note Name: G5
Note ON: Time 189360, Note Name: F5, Velocity: 69
Note OFF: Time 189440, Note Name: F5
Note ON: Time 189440, Note Name: G5, Velocity: 65
Note OFF: Time 189520, Note Name: G5
Note ON: Time 189520, Note Name: F5, Velocity: 65
Note OFF: Time 189600, Note Name: F5
Note ON: Time 189600, Note Name: D#5, Velocity: 68
Note OFF: Time 189680, Note Name: D#5
Note ON: Time 189680, Note Name: F5, Velocity: 63
Note OFF: Time 189760, Note Name: F5
Note ON: Time 189760, Note Name: D#5, Velocity: 63
Note OFF: Time 189840, Note Name: D#5
Note ON: Time 189840, Note Name: D5, Velocity: 67
Note OFF: Time 189920, Note Name: D5
Note ON: Time 189920, Note Name: D#5, Velocity: 62
Note OFF: Time 190000, Note Name: D#5
Note ON: Time 190000, Note Name: D5, Velocity: 62
Note OFF: Time 190080, Note Name: D5
Note ON: Time 190080, Note Name: C5, Velocity: 82
Note OFF: Time 190320, Note Name: C5
Note ON: Time 190320, Note Name: D#4, Velocity: 79
Note ON: Time 190320, Note Name: D#5, Velocity: 79
Note OFF: Time 190440, Note Name: D#5
Note OFF: Time 190440, Note Name: D#4
Note ON: Time 190560, Note Name: C5, Velocity: 62
Note ON: Time 190560, Note Name: C6, Velocity: 74
Note OFF: Time 190680, Note Name: C6
Note OFF: Time 190680, Note Name: C5
Note ON: Time 190800, Note Name: A#4, Velocity: 62
Note ON: Time 190800, Note Name: A#5, Velocity: 74
Note OFF: Time 190920, Note Name: A#5
Note OFF: Time 190920, Note Name: A#4
Note ON: Time 191040, Note Name: G#4, Velocity: 65
Note ON: Time 191040, Note Name: G#5, Velocity: 77
Note OFF: Time 191160, Note Name: G#5
Note OFF: Time 191160, Note Name: G#4
Note ON: Time 191280, Note Name: D#4, Velocity: 61
Note ON: Time 191280, Note Name: D#5, Velocity: 72
Note OFF: Time 191400, Note Name: D#5
Note OFF: Time 191400, Note Name: D#4
Note ON: Time 191520, Note Name: F4, Velocity: 62
Note ON: Time 191520, Note Name: F5, Velocity: 73
Note OFF: Time 191640, Note Name: F5
Note OFF: Time 191640, Note Name: F4
Note ON: Time 191760, Note Name: G4, Velocity: 62
Note ON: Time 191760, Note Name: G5, Velocity: 73
Note OFF: Time 191880, Note Name: G5
Note OFF: Time 191880, Note Name: G4
Note ON: Time 192000, Note Name: G#4, Velocity: 65
Note ON: Time 192000, Note Name: G#5, Velocity: 77
Note OFF: Time 192120, Note Name: G#5
Note OFF: Time 192120, Note Name: G#4
Note ON: Time 192240, Note Name: C4, Velocity: 61
Note ON: Time 192240, Note Name: C5, Velocity: 72
Note OFF: Time 192360, Note Name: C5
Note OFF: Time 192360, Note Name: C4
Note ON: Time 192480, Note Name: G#4, Velocity: 66
Note ON: Time 192480, Note Name: G#5, Velocity: 78
Note OFF: Time 192600, Note Name: G#5
Note OFF: Time 192600, Note Name: G#4
Note ON: Time 192720, Note Name: G4, Velocity: 62
Note ON: Time 192720, Note Name: G5, Velocity: 73
Note OFF: Time 192840, Note Name: G5
Note OFF: Time 192840, Note Name: G4
Note ON: Time 192960, Note Name: F4, Velocity: 68
Note ON: Time 192960, Note Name: F5, Velocity: 80
Note OFF: Time 193080, Note Name: F5
Note OFF: Time 193080, Note Name: F4
Note ON: Time 193200, Note Name: C4, Velocity: 63
Note ON: Time 193200, Note Name: C5, Velocity: 75
Note OFF: Time 193320, Note Name: C5
Note OFF: Time 193320, Note Name: C4
Note ON: Time 193440, Note Name: D4, Velocity: 63
Note ON: Time 193440, Note Name: D5, Velocity: 75
Note OFF: Time 193560, Note Name: D5
Note OFF: Time 193560, Note Name: D4
Note ON: Time 193680, Note Name: E4, Velocity: 63
Note ON: Time 193680, Note Name: E5, Velocity: 75
Note OFF: Time 193800, Note Name: E5
Note OFF: Time 193800, Note Name: E4
Note ON: Time 193920, Note Name: F4, Velocity: 66
Note ON: Time 193920, Note Name: F5, Velocity: 78
Note OFF: Time 194040, Note Name: F5
Note OFF: Time 194040, Note Name: F4
Note ON: Time 194160, Note Name: F5, Velocity: 62
Note ON: Time 194160, Note Name: F6, Velocity: 74
Note OFF: Time 194280, Note Name: F6
Note OFF: Time 194280, Note Name: F5
Note ON: Time 194400, Note Name: G#5, Velocity: 68
Note ON: Time 194400, Note Name: G#6, Velocity: 80
Note OFF: Time 194520, Note Name: G#6
Note OFF: Time 194520, Note Name: G#5
Note ON: Time 194640, Note Name: G5, Velocity: 64
Note ON: Time 194640, Note Name: G6, Velocity: 76
Note OFF: Time 194760, Note Name: G6
Note OFF: Time 194760, Note Name: G5
Note ON: Time 194880, Note Name: F5, Velocity: 68
Note ON: Time 194880, Note Name: F6, Velocity: 80
Note OFF: Time 195000, Note Name: F6
Note OFF: Time 195000, Note Name: F5
Note ON: Time 195120, Note Name: D#5, Velocity: 62
Note ON: Time 195120, Note Name: D#6, Velocity: 73
Note OFF: Time 195240, Note Name: D#6
Note OFF: Time 195240, Note Name: D#5
Note ON: Time 195360, Note Name: D5, Velocity: 62
Note ON: Time 195360, Note Name: D6, Velocity: 74
Note OFF: Time 195480, Note Name: D6
Note OFF: Time 195480, Note Name: D5
Note ON: Time 195600, Note Name: C5, Velocity: 62
Note ON: Time 195600, Note Name: C6, Velocity: 74
Note OFF: Time 195720, Note Name: C6
Note OFF: Time 195720, Note Name: C5
Note ON: Time 195840, Note Name: B4, Velocity: 69
Note ON: Time 195840, Note Name: B5, Velocity: 82
Note OFF: Time 196320, Note Name: B5
Note OFF: Time 196320, Note Name: B4
Note ON: Time 196320, Note Name: G4, Velocity: 66
Note ON: Time 196320, Note Name: G5, Velocity: 78
Note OFF: Time 196558, Note Name: G5
Note OFF: Time 196558, Note Name: G4
Note ON: Time 196560, Note Name: G4, Velocity: 62
Note ON: Time 196560, Note Name: G5, Velocity: 73
Note OFF: Time 196798, Note Name: G5
Note OFF: Time 196798, Note Name: G4
Note ON: Time 196800, Note Name: G4, Velocity: 66
Note ON: Time 196800, Note Name: G5, Velocity: 78
Note OFF: Time 197038, Note Name: G5
Note OFF: Time 197038, Note Name: G4
Note ON: Time 197040, Note Name: G4, Velocity: 61
Note ON: Time 197040, Note Name: G5, Velocity: 72
Note OFF: Time 197278, Note Name: G5
Note OFF: Time 197278, Note Name: G4
Note ON: Time 197280, Note Name: G4, Velocity: 66
Note ON: Time 197280, Note Name: G5, Velocity: 78
Note OFF: Time 197518, Note Name: G5
Note OFF: Time 197518, Note Name: G4
Note ON: Time 197520, Note Name: G4, Velocity: 62
Note ON: Time 197520, Note Name: G5, Velocity: 73
Note OFF: Time 197758, Note Name: G5
Note OFF: Time 197758, Note Name: G4
Note ON: Time 197760, Note Name: C5, Velocity: 71
Note ON: Time 197760, Note Name: C6, Velocity: 76
Note OFF: Time 198000, Note Name: C6
Note OFF: Time 198000, Note Name: C5
Note ON: Time 198000, Note Name: C5, Velocity: 55
Note OFF: Time 198080, Note Name: C5
Note ON: Time 198080, Note Name: D5, Velocity: 56
Note OFF: Time 198160, Note Name: D5
Note ON: Time 198160, Note Name: E5, Velocity: 57
Note OFF: Time 198240, Note Name: E5
Note ON: Time 198240, Note Name: F5, Velocity: 58
Note OFF: Time 198320, Note Name: F5
Note ON: Time 198320, Note Name: E5, Velocity: 60
Note OFF: Time 198400, Note Name: E5
Note ON: Time 198400, Note Name: F5, Velocity: 61
Note OFF: Time 198480, Note Name: F5
Note ON: Time 198480, Note Name: G5, Velocity: 62
Note OFF: Time 198560, Note Name: G5
Note ON: Time 198560, Note Name: F5, Velocity: 63
Note OFF: Time 198640, Note Name: F5
Note ON: Time 198640, Note Name: G5, Velocity: 63
Note OFF: Time 198720, Note Name: G5
Note ON: Time 198720, Note Name: G#5, Velocity: 68
Note OFF: Time 198800, Note Name: G#5
Note ON: Time 198800, Note Name: A#5, Velocity: 64
Note OFF: Time 198880, Note Name: A#5
Note ON: Time 198880, Note Name: G#5, Velocity: 64
Note OFF: Time 198960, Note Name: G#5
Note ON: Time 198960, Note Name: G5, Velocity: 68
Note OFF: Time 199040, Note Name: G5
Note ON: Time 199040, Note Name: G#5, Velocity: 64
Note OFF: Time 199120, Note Name: G#5
Note ON: Time 199120, Note Name: G5, Velocity: 64
Note OFF: Time 199200, Note Name: G5
Note ON: Time 199200, Note Name: F5, Velocity: 70
Note OFF: Time 199280, Note Name: F5
Note ON: Time 199280, Note Name: G5, Velocity: 65
Note OFF: Time 199360, Note Name: G5
Note ON: Time 199360, Note Name: F5, Velocity: 66
Note OFF: Time 199440, Note Name: F5
Note ON: Time 199440, Note Name: F#5, Velocity: 70
Note OFF: Time 199520, Note Name: F#5
Note ON: Time 199520, Note Name: G5, Velocity: 66
Note OFF: Time 199600, Note Name: G5
Note ON: Time 199600, Note Name: F#5, Velocity: 66
Note OFF: Time 199680, Note Name: F#5
Note ON: Time 199680, Note Name: G5, Velocity: 72
Note OFF: Time 199760, Note Name: G5
Note ON: Time 199760, Note Name: G#5, Velocity: 67
Note OFF: Time 199840, Note Name: G#5
Note ON: Time 199840, Note Name: G5, Velocity: 67
Note OFF: Time 199920, Note Name: G5
Note ON: Time 199920, Note Name: F#5, Velocity: 67
Note OFF: Time 200000, Note Name: F#5
Note ON: Time 200000, Note Name: G5, Velocity: 67
Note OFF: Time 200080, Note Name: G5
Note ON: Time 200080, Note Name: F#5, Velocity: 67
Note OFF: Time 200160, Note Name: F#5
Note ON: Time 200160, Note Name: G5, Velocity: 72
Note OFF: Time 200240, Note Name: G5
Note ON: Time 200240, Note Name: G#5, Velocity: 67
Note OFF: Time 200320, Note Name: G#5
Note ON: Time 200320, Note Name: G5, Velocity: 67
Note OFF: Time 200400, Note Name: G5
Note ON: Time 200400, Note Name: F#5, Velocity: 67
Note OFF: Time 200480, Note Name: F#5
Note ON: Time 200480, Note Name: G5, Velocity: 67
Note OFF: Time 200560, Note Name: G5
Note ON: Time 200560, Note Name: F#5, Velocity: 67
Note OFF: Time 200640, Note Name: F#5
Note ON: Time 200640, Note Name: G5, Velocity: 72
Note OFF: Time 200720, Note Name: G5
Note ON: Time 200720, Note Name: G#5, Velocity: 67
Note OFF: Time 200800, Note Name: G#5
Note ON: Time 200800, Note Name: G5, Velocity: 67
Note OFF: Time 200880, Note Name: G5
Note ON: Time 200880, Note Name: F5, Velocity: 69
Note OFF: Time 200960, Note Name: F5
Note ON: Time 200960, Note Name: G5, Velocity: 65
Note OFF: Time 201040, Note Name: G5
Note ON: Time 201040, Note Name: F5, Velocity: 65
Note OFF: Time 201120, Note Name: F5
Note ON: Time 201120, Note Name: D#5, Velocity: 68
Note OFF: Time 201200, Note Name: D#5
Note ON: Time 201200, Note Name: F5, Velocity: 63
Note OFF: Time 201280, Note Name: F5
Note ON: Time 201280, Note Name: D#5, Velocity: 63
Note OFF: Time 201360, Note Name: D#5
Note ON: Time 201360, Note Name: D5, Velocity: 67
Note OFF: Time 201440, Note Name: D5
Note ON: Time 201440, Note Name: D#5, Velocity: 62
Note OFF: Time 201520, Note Name: D#5
Note ON: Time 201520, Note Name: D5, Velocity: 62
Note OFF: Time 201600, Note Name: D5
Note ON: Time 201600, Note Name: C5, Velocity: 72
Note OFF: Time 201680, Note Name: C5
Note ON: Time 201680, Note Name: B4, Velocity: 67
Note OFF: Time 201760, Note Name: B4
Note ON: Time 201760, Note Name: C5, Velocity: 67
Note OFF: Time 201840, Note Name: C5
Note ON: Time 201840, Note Name: D5, Velocity: 67
Note OFF: Time 201920, Note Name: D5
Note ON: Time 201920, Note Name: C5, Velocity: 67
Note OFF: Time 202000, Note Name: C5
Note ON: Time 202000, Note Name: D5, Velocity: 67
Note OFF: Time 202080, Note Name: D5
Note ON: Time 202080, Note Name: D#5, Velocity: 75
Note OFF: Time 202160, Note Name: D#5
Note ON: Time 202160, Note Name: D5, Velocity: 70
Note OFF: Time 202240, Note Name: D5
Note ON: Time 202240, Note Name: D#5, Velocity: 70
Note OFF: Time 202320, Note Name: D#5
Note ON: Time 202320, Note Name: F5, Velocity: 70
Note OFF: Time 202400, Note Name: F5
Note ON: Time 202400, Note Name: D#5, Velocity: 70
Note OFF: Time 202480, Note Name: D#5
Note ON: Time 202480, Note Name: F5, Velocity: 70
Note OFF: Time 202560, Note Name: F5
Note ON: Time 202560, Note Name: G5, Velocity: 75
Note OFF: Time 202640, Note Name: G5
Note ON: Time 202640, Note Name: G#5, Velocity: 70
Note OFF: Time 202720, Note Name: G#5
Note ON: Time 202720, Note Name: G5, Velocity: 70
Note OFF: Time 202800, Note Name: G5
Note ON: Time 202800, Note Name: F5, Velocity: 72
Note OFF: Time 202880, Note Name: F5
Note ON: Time 202880, Note Name: G5, Velocity: 68
Note OFF: Time 202960, Note Name: G5
Note ON: Time 202960, Note Name: F5, Velocity: 68
Note OFF: Time 203040, Note Name: F5
Note ON: Time 203040, Note Name: D#5, Velocity: 71
Note OFF: Time 203120, Note Name: D#5
Note ON: Time 203120, Note Name: F5, Velocity: 66
Note OFF: Time 203200, Note Name: F5
Note ON: Time 203200, Note Name: D#5, Velocity: 66
Note OFF: Time 203280, Note Name: D#5
Note ON: Time 203280, Note Name: D5, Velocity: 70
Note OFF: Time 203360, Note Name: D5
Note ON: Time 203360, Note Name: D#5, Velocity: 65
Note OFF: Time 203440, Note Name: D#5
Note ON: Time 203440, Note Name: D5, Velocity: 65
Note OFF: Time 203520, Note Name: D5
Note ON: Time 203520, Note Name: C5, Velocity: 75
Note OFF: Time 203600, Note Name: C5
Note ON: Time 203600, Note Name: B4, Velocity: 70
Note OFF: Time 203680, Note Name: B4
Note ON: Time 203680, Note Name: C5, Velocity: 70
Note OFF: Time 203760, Note Name: C5
Note ON: Time 203760, Note Name: D5, Velocity: 70
Note OFF: Time 203840, Note Name: D5
Note ON: Time 203840, Note Name: C5, Velocity: 70
Note OFF: Time 203920, Note Name: C5
Note ON: Time 203920, Note Name: D5, Velocity: 70
Note OFF: Time 204000, Note Name: D5
Note ON: Time 204000, Note Name: D#5, Velocity: 79
Note OFF: Time 204080, Note Name: D#5
Note ON: Time 204080, Note Name: D5, Velocity: 73
Note OFF: Time 204160, Note Name: D5
Note ON: Time 204160, Note Name: D#5, Velocity: 73
Note OFF: Time 204240, Note Name: D#5
Note ON: Time 204240, Note Name: F5, Velocity: 73
Note OFF: Time 204320, Note Name: F5
Note ON: Time 204320, Note Name: D#5, Velocity: 73
Note OFF: Time 204400, Note Name: D#5
Note ON: Time 204400, Note Name: F5, Velocity: 73
Note OFF: Time 204480, Note Name: F5
Note ON: Time 204480, Note Name: G5, Velocity: 79
Note OFF: Time 204560, Note Name: G5
Note ON: Time 204560, Note Name: G#5, Velocity: 73
Note OFF: Time 204640, Note Name: G#5
Note ON: Time 204640, Note Name: G5, Velocity: 73
Note OFF: Time 204720, Note Name: G5
Note ON: Time 204720, Note Name: F5, Velocity: 75
Note OFF: Time 204800, Note Name: F5
Note ON: Time 204800, Note Name: G5, Velocity: 71
Note OFF: Time 204880, Note Name: G5
Note ON: Time 204880, Note Name: F5, Velocity: 71
Note OFF: Time 204960, Note Name: F5
Note ON: Time 204960, Note Name: D#5, Velocity: 74
Note OFF: Time 205040, Note Name: D#5
Note ON: Time 205040, Note Name: F5, Velocity: 69
Note OFF: Time 205120, Note Name: F5
Note ON: Time 205120, Note Name: D#5, Velocity: 69
Note OFF: Time 205200, Note Name: D#5
Note ON: Time 205200, Note Name: D5, Velocity: 73
Note OFF: Time 205280, Note Name: D5
Note ON: Time 205280, Note Name: D#5, Velocity: 68
Note OFF: Time 205360, Note Name: D#5
Note ON: Time 205360, Note Name: D5, Velocity: 68
Note OFF: Time 205440, Note Name: D5
Note ON: Time 205440, Note Name: C5, Velocity: 79
Note OFF: Time 205520, Note Name: C5
Note ON: Time 205520, Note Name: B4, Velocity: 69
Note OFF: Time 205600, Note Name: B4
Note ON: Time 205600, Note Name: C5, Velocity: 71
Note OFF: Time 205680, Note Name: C5
Note ON: Time 205680, Note Name: D5, Velocity: 73
Note OFF: Time 205760, Note Name: D5
Note ON: Time 205760, Note Name: D#5, Velocity: 75
Note OFF: Time 205840, Note Name: D#5
Note ON: Time 205840, Note Name: F5, Velocity: 78
Note OFF: Time 205920, Note Name: F5
Note ON: Time 205920, Note Name: G5, Velocity: 80
Note OFF: Time 206000, Note Name: G5
Note ON: Time 206000, Note Name: G#5, Velocity: 77
Note OFF: Time 206080, Note Name: G#5
Note ON: Time 206080, Note Name: G5, Velocity: 75
Note OFF: Time 206160, Note Name: G5
Note ON: Time 206160, Note Name: F5, Velocity: 74
Note OFF: Time 206240, Note Name: F5
Note ON: Time 206240, Note Name: D#5, Velocity: 73
Note OFF: Time 206320, Note Name: D#5
Note ON: Time 206320, Note Name: D5, Velocity: 73
Note OFF: Time 206400, Note Name: D5
Note ON: Time 206400, Note Name: C5, Velocity: 79
Note OFF: Time 206480, Note Name: C5
Note ON: Time 206480, Note Name: B4, Velocity: 69
Note OFF: Time 206560, Note Name: B4
Note ON: Time 206560, Note Name: C5, Velocity: 71
Note OFF: Time 206640, Note Name: C5
Note ON: Time 206640, Note Name: D5, Velocity: 73
Note OFF: Time 206720, Note Name: D5
Note ON: Time 206720, Note Name: D#5, Velocity: 75
Note OFF: Time 206800, Note Name: D#5
Note ON: Time 206800, Note Name: F5, Velocity: 78
Note OFF: Time 206880, Note Name: F5
Note ON: Time 206880, Note Name: G5, Velocity: 80
Note OFF: Time 206960, Note Name: G5
Note ON: Time 206960, Note Name: G#5, Velocity: 77
Note OFF: Time 207040, Note Name: G#5
Note ON: Time 207040, Note Name: G5, Velocity: 75
Note OFF: Time 207120, Note Name: G5
Note ON: Time 207120, Note Name: F5, Velocity: 74
Note OFF: Time 207200, Note Name: F5
Note ON: Time 207200, Note Name: D#5, Velocity: 73
Note OFF: Time 207280, Note Name: D#5
Note ON: Time 207280, Note Name: D5, Velocity: 73
Note OFF: Time 207360, Note Name: D5
Note ON: Time 207360, Note Name: C4, Velocity: 85
Note ON: Time 207360, Note Name: C5, Velocity: 101
Note OFF: Time 207480, Note Name: C5
Note OFF: Time 207480, Note Name: C4
Note ON: Time 207840, Note Name: C4, Velocity: 85
Note ON: Time 207840, Note Name: C5, Velocity: 101
Note OFF: Time 207960, Note Name: C5
Note OFF: Time 207960, Note Name: C4
Note ON: Time 208320, Note Name: C4, Velocity: 83
Note ON: Time 208320, Note Name: C5, Velocity: 99
Note OFF: Time 208560, Note Name: C5
Note OFF: Time 208560, Note Name: C4
Note ON: Time 209280, Note Name: C4, Velocity: 62
Note ON: Time 209280, Note Name: C5, Velocity: 73
Note OFF: Time 209760, Note Name: C5
Note OFF: Time 209760, Note Name: C4
Note ON: Time 210240, Note Name: C4, Velocity: 47
Note ON: Time 210240, Note Name: C5, Velocity: 56
Note OFF: Time 210720, Note Name: C5
Note OFF: Time 210720, Note Name: C4
Note ON: Time 211200, Note Name: G#3, Velocity: 108
Note OFF: Time 211440, Note Name: G#3
Note ON: Time 211680, Note Name: D#4, Velocity: 81
Note ON: Time 211680, Note Name: G#4, Velocity: 81
Note ON: Time 211680, Note Name: C5, Velocity: 81
Note ON: Time 211680, Note Name: D#5, Velocity: 96
Note OFF: Time 211920, Note Name: D#5
Note OFF: Time 211920, Note Name: D#4
Note OFF: Time 211920, Note Name: G#4
Note OFF: Time 211920, Note Name: C5
Note ON: Time 212160, Note Name: D#5, Velocity: 81
Note ON: Time 212160, Note Name: G#5, Velocity: 81
Note ON: Time 212160, Note Name: C6, Velocity: 81
Note ON: Time 212160, Note Name: D#6, Velocity: 97
Note OFF: Time 212880, Note Name: D#6
Note OFF: Time 212880, Note Name: D#5
Note OFF: Time 212880, Note Name: G#5
Note OFF: Time 212880, Note Name: C6
Note ON: Time 212880, Note Name: C6, Velocity: 64
Note ON: Time 212880, Note Name: D#5, Velocity: 54
Note OFF: Time 213120, Note Name: D#5
Note OFF: Time 213120, Note Name: C6
Note ON: Time 213120, Note Name: C#5, Velocity: 57
Note ON: Time 213120, Note Name: A#5, Velocity: 68
Note OFF: Time 213600, Note Name: A#5
Note OFF: Time 213600, Note Name: C#5
Note ON: Time 213600, Note Name: C#5, Velocity: 50
Note ON: Time 213600, Note Name: D#5, Velocity: 60
Note OFF: Time 214080, Note Name: D#5
Note OFF: Time 214080, Note Name: C#5
Note ON: Time 214080, Note Name: C5, Velocity: 50
Note ON: Time 214080, Note Name: G#5, Velocity: 60
Note OFF: Time 214560, Note Name: G#5
Note OFF: Time 214560, Note Name: C5
Note ON: Time 215040, Note Name: F3, Velocity: 108
Note OFF: Time 215280, Note Name: F3
Note ON: Time 215520, Note Name: C4, Velocity: 81
Note ON: Time 215520, Note Name: F4, Velocity: 81
Note ON: Time 215520, Note Name: G#4, Velocity: 81
Note ON: Time 215520, Note Name: C5, Velocity: 96
Note OFF: Time 215760, Note Name: C5
Note OFF: Time 215760, Note Name: C4
Note OFF: Time 215760, Note Name: F4
Note OFF: Time 215760, Note Name: G#4
Note ON: Time 216000, Note Name: C5, Velocity: 79
Note ON: Time 216000, Note Name: F5, Velocity: 79
Note ON: Time 216000, Note Name: G#5, Velocity: 79
Note ON: Time 216000, Note Name: C6, Velocity: 95
Note OFF: Time 216720, Note Name: C6
Note OFF: Time 216720, Note Name: C5
Note OFF: Time 216720, Note Name: F5
Note OFF: Time 216720, Note Name: G#5
Note ON: Time 216720, Note Name: G#5, Velocity: 64
Note ON: Time 216720, Note Name: C5, Velocity: 54
Note OFF: Time 216960, Note Name: C5
Note OFF: Time 216960, Note Name: G#5
Note ON: Time 216960, Note Name: A#4, Velocity: 57
Note ON: Time 216960, Note Name: G5, Velocity: 68
Note OFF: Time 217440, Note Name: G5
Note OFF: Time 217440, Note Name: A#4
Note ON: Time 217440, Note Name: A#4, Velocity: 50
Note ON: Time 217440, Note Name: C5, Velocity: 60
Note OFF: Time 217920, Note Name: C5
Note OFF: Time 217920, Note Name: A#4
Note ON: Time 217920, Note Name: G#4, Velocity: 50
Note ON: Time 217920, Note Name: F5, Velocity: 60
Note OFF: Time 218400, Note Name: F5
Note OFF: Time 218400, Note Name: G#4
Note ON: Time 218880, Note Name: C#4, Velocity: 108
Note OFF: Time 219120, Note Name: C#4
Note ON: Time 219360, Note Name: G#4, Velocity: 81
Note ON: Time 219360, Note Name: C#5, Velocity: 81
Note ON: Time 219360, Note Name: F5, Velocity: 81
Note ON: Time 219360, Note Name: G#5, Velocity: 96
Note OFF: Time 219600, Note Name: G#5
Note OFF: Time 219600, Note Name: G#4
Note OFF: Time 219600, Note Name: C#5
Note OFF: Time 219600, Note Name: F5
Note ON: Time 219840, Note Name: G#5, Velocity: 81
Note ON: Time 219840, Note Name: C#6, Velocity: 81
Note ON: Time 219840, Note Name: F6, Velocity: 81
Note ON: Time 219840, Note Name: G#6, Velocity: 97
Note OFF: Time 220560, Note Name: G#6
Note OFF: Time 220560, Note Name: G#5
Note OFF: Time 220560, Note Name: C#6
Note OFF: Time 220560, Note Name: F6
Note ON: Time 220560, Note Name: F6, Velocity: 64
Note ON: Time 220560, Note Name: G#5, Velocity: 54
Note OFF: Time 220800, Note Name: G#5
Note OFF: Time 220800, Note Name: F6
Note ON: Time 220800, Note Name: F#5, Velocity: 57
Note ON: Time 220800, Note Name: D#6, Velocity: 68
Note OFF: Time 221280, Note Name: D#6
Note OFF: Time 221280, Note Name: F#5
Note ON: Time 221280, Note Name: F#5, Velocity: 50
Note ON: Time 221280, Note Name: G#5, Velocity: 60
Note OFF: Time 221760, Note Name: G#5
Note OFF: Time 221760, Note Name: F#5
Note ON: Time 221760, Note Name: F5, Velocity: 50
Note ON: Time 221760, Note Name: C#6, Velocity: 60
Note OFF: Time 222480, Note Name: C#6
Note OFF: Time 222480, Note Name: F5
Note ON: Time 222480, Note Name: F5, Velocity: 51
Note ON: Time 222480, Note Name: G#4, Velocity: 43
Note OFF: Time 222720, Note Name: G#4
Note OFF: Time 222720, Note Name: F5
Note ON: Time 222720, Note Name: F#4, Velocity: 45
Note ON: Time 222720, Note Name: D#5, Velocity: 54
Note OFF: Time 223200, Note Name: D#5
Note OFF: Time 223200, Note Name: F#4
Note ON: Time 223200, Note Name: F#4, Velocity: 39
Note ON: Time 223200, Note Name: G#4, Velocity: 47
Note OFF: Time 223680, Note Name: G#4
Note OFF: Time 223680, Note Name: F#4
Note ON: Time 223680, Note Name: F4, Velocity: 39
Note ON: Time 223680, Note Name: C#5, Velocity: 47
Note OFF: Time 224400, Note Name: C#5
Note OFF: Time 224400, Note Name: F4
Note ON: Time 224400, Note Name: F4, Velocity: 38
Note ON: Time 224400, Note Name: G#3, Velocity: 32
Note OFF: Time 224640, Note Name: G#3
Note OFF: Time 224640, Note Name: F4
Note ON: Time 224640, Note Name: F#3, Velocity: 34
Note ON: Time 224640, Note Name: D#4, Velocity: 40
Note OFF: Time 225115, Note Name: D#4
Note OFF: Time 225115, Note Name: F#3
Note ON: Time 225120, Note Name: F#3, Velocity: 29
Note ON: Time 225120, Note Name: G#3, Velocity: 35
Note OFF: Time 225595, Note Name: G#3
Note OFF: Time 225595, Note Name: F#3
Note ON: Time 225600, Note Name: F3, Velocity: 29
Note ON: Time 225600, Note Name: C#4, Velocity: 35
Note OFF: Time 226075, Note Name: C#4
Note OFF: Time 226075, Note Name: F3
Note ON: Time 226080, Note Name: G#3, Velocity: 35
Note ON: Time 226080, Note Name: F3, Velocity: 29
Note OFF: Time 226555, Note Name: F3
Note OFF: Time 226555, Note Name: G#3
Note ON: Time 226560, Note Name: F#3, Velocity: 34
Note ON: Time 226560, Note Name: D#4, Velocity: 40
Note OFF: Time 227035, Note Name: D#4
Note OFF: Time 227035, Note Name: F#3
Note ON: Time 227040, Note Name: F#3, Velocity: 29
Note ON: Time 227040, Note Name: G#3, Velocity: 35
Note OFF: Time 227515, Note Name: G#3
Note OFF: Time 227515, Note Name: F#3
Note ON: Time 227520, Note Name: F#3, Velocity: 34
Note ON: Time 227520, Note Name: D#4, Velocity: 40
Note OFF: Time 227995, Note Name: D#4
Note OFF: Time 227995, Note Name: F#3
Note ON: Time 228000, Note Name: F#3, Velocity: 29
Note ON: Time 228000, Note Name: G#3, Velocity: 35
Note OFF: Time 228475, Note Name: G#3
Note OFF: Time 228475, Note Name: F#3
Note ON: Time 228480, Note Name: F3, Velocity: 30
Note ON: Time 228480, Note Name: C#4, Velocity: 36
Note OFF: Time 228720, Note Name: C#4
Note OFF: Time 228720, Note Name: F3
Note ON: Time 228720, Note Name: G#3, Velocity: 27
Note ON: Time 228720, Note Name: C#4, Velocity: 32
Note ON: Time 228720, Note Name: F4, Velocity: 38
Note OFF: Time 229195, Note Name: F4
Note OFF: Time 229195, Note Name: C#4
Note OFF: Time 229195, Note Name: G#3
Note ON: Time 229200, Note Name: G#3, Velocity: 27
Note ON: Time 229200, Note Name: C#4, Velocity: 32
Note ON: Time 229200, Note Name: F4, Velocity: 38
Note OFF: Time 229675, Note Name: F4
Note OFF: Time 229675, Note Name: C#4
Note OFF: Time 229675, Note Name: G#3
Note ON: Time 229680, Note Name: G#3, Velocity: 27
Note ON: Time 229680, Note Name: C#4, Velocity: 32
Note ON: Time 229680, Note Name: F4, Velocity: 38
Note OFF: Time 230155, Note Name: F4
Note OFF: Time 230155, Note Name: C#4
Note OFF: Time 230155, Note Name: G#3
Note ON: Time 230160, Note Name: F4, Velocity: 52
Note ON: Time 230160, Note Name: G#3, Velocity: 37
Note ON: Time 230160, Note Name: C#4, Velocity: 44
Note OFF: Time 230398, Note Name: F4
Note ON: Time 230400, Note Name: D#4, Velocity: 52
Note OFF: Time 230635, Note Name: C#4
Note OFF: Time 230635, Note Name: G#3
Note OFF: Time 230638, Note Name: D#4
Note ON: Time 230640, Note Name: G#3, Velocity: 30
Note ON: Time 230640, Note Name: C4, Velocity: 36
Note ON: Time 230640, Note Name: D#4, Velocity: 43
Note OFF: Time 231115, Note Name: D#4
Note OFF: Time 231115, Note Name: C4
Note OFF: Time 231115, Note Name: G#3
Note ON: Time 231120, Note Name: G#3, Velocity: 30
Note ON: Time 231120, Note Name: C4, Velocity: 36
Note ON: Time 231120, Note Name: D#4, Velocity: 43
Note OFF: Time 231358, Note Name: C4
Note ON: Time 231360, Note Name: B3, Velocity: 30
Note OFF: Time 231595, Note Name: D#4
Note OFF: Time 231595, Note Name: G#3
Note OFF: Time 231598, Note Name: B3
Note ON: Time 231600, Note Name: G#3, Velocity: 30
Note ON: Time 231600, Note Name: B3, Velocity: 36
Note ON: Time 231600, Note Name: D#4, Velocity: 43
Note OFF: Time 232075, Note Name: D#4
Note OFF: Time 232075, Note Name: B3
Note OFF: Time 232075, Note Name: G#3
Note ON: Time 232080, Note Name: G#3, Velocity: 41
Note ON: Time 232080, Note Name: C4, Velocity: 41
Note ON: Time 232080, Note Name: D4, Velocity: 49
Note ON: Time 232080, Note Name: F4, Velocity: 58
Note OFF: Time 232318, Note Name: F4
Note OFF: Time 232318, Note Name: G#3
Note OFF: Time 232318, Note Name: C4
Note OFF: Time 232318, Note Name: D4
Note ON: Time 232320, Note Name: F#3, Velocity: 25
Note ON: Time 232320, Note Name: A#3, Velocity: 30
Note ON: Time 232320, Note Name: D#4, Velocity: 39
Note ON: Time 232320, Note Name: F#4, Velocity: 47
Note OFF: Time 232558, Note Name: F#4
Note OFF: Time 232558, Note Name: F#3
Note OFF: Time 232558, Note Name: A#3
Note OFF: Time 232558, Note Name: D#4
Note ON: Time 232560, Note Name: A#3, Velocity: 27
Note ON: Time 232560, Note Name: D#4, Velocity: 32
Note ON: Time 232560, Note Name: F#4, Velocity: 38
Note OFF: Time 233035, Note Name: F#4
Note OFF: Time 233035, Note Name: D#4
Note OFF: Time 233035, Note Name: A#3
Note ON: Time 233040, Note Name: A#3, Velocity: 27
Note ON: Time 233040, Note Name: D#4, Velocity: 32
Note ON: Time 233040, Note Name: F#4, Velocity: 38
Note OFF: Time 233515, Note Name: F#4
Note OFF: Time 233515, Note Name: D#4
Note OFF: Time 233515, Note Name: A#3
Note ON: Time 233520, Note Name: A#3, Velocity: 27
Note ON: Time 233520, Note Name: D#4, Velocity: 32
Note ON: Time 233520, Note Name: F#4, Velocity: 38
Note OFF: Time 233995, Note Name: F#4
Note OFF: Time 233995, Note Name: D#4
Note OFF: Time 233995, Note Name: A#3
Note ON: Time 234000, Note Name: F#4, Velocity: 52
Note ON: Time 234000, Note Name: A#3, Velocity: 37
Note ON: Time 234000, Note Name: D#4, Velocity: 44
Note OFF: Time 234238, Note Name: F#4
Note ON: Time 234240, Note Name: F4, Velocity: 52
Note OFF: Time 234475, Note Name: D#4
Note OFF: Time 234475, Note Name: A#3
Note OFF: Time 234478, Note Name: F4
Note ON: Time 234480, Note Name: A#3, Velocity: 30
Note ON: Time 234480, Note Name: D4, Velocity: 36
Note ON: Time 234480, Note Name: F4, Velocity: 43
Note OFF: Time 234955, Note Name: F4
Note OFF: Time 234955, Note Name: D4
Note OFF: Time 234955, Note Name: A#3
Note ON: Time 234960, Note Name: A#3, Velocity: 30
Note ON: Time 234960, Note Name: D4, Velocity: 36
Note ON: Time 234960, Note Name: F4, Velocity: 43
Note OFF: Time 235198, Note Name: D4
Note ON: Time 235200, Note Name: C#4, Velocity: 30
Note OFF: Time 235435, Note Name: F4
Note OFF: Time 235435, Note Name: A#3
Note OFF: Time 235438, Note Name: C#4
Note ON: Time 235440, Note Name: A#3, Velocity: 30
Note ON: Time 235440, Note Name: C#4, Velocity: 36
Note ON: Time 235440, Note Name: F4, Velocity: 43
Note OFF: Time 235915, Note Name: F4
Note OFF: Time 235915, Note Name: C#4
Note OFF: Time 235915, Note Name: A#3
Note ON: Time 235920, Note Name: A#3, Velocity: 41
Note ON: Time 235920, Note Name: D4, Velocity: 41
Note ON: Time 235920, Note Name: E4, Velocity: 49
Note ON: Time 235920, Note Name: G4, Velocity: 58
Note OFF: Time 236160, Note Name: G4
Note OFF: Time 236160, Note Name: A#3
Note OFF: Time 236160, Note Name: D4
Note OFF: Time 236160, Note Name: E4
Note ON: Time 236160, Note Name: G#3, Velocity: 25
Note ON: Time 236160, Note Name: C4, Velocity: 30
Note ON: Time 236160, Note Name: F4, Velocity: 39
Note ON: Time 236160, Note Name: G#4, Velocity: 47
Note OFF: Time 236398, Note Name: G#4
Note OFF: Time 236398, Note Name: G#3
Note OFF: Time 236398, Note Name: C4
Note OFF: Time 236398, Note Name: F4
Note ON: Time 236400, Note Name: C4, Velocity: 27
Note ON: Time 236400, Note Name: F4, Velocity: 32
Note ON: Time 236400, Note Name: G#4, Velocity: 38
Note OFF: Time 236875, Note Name: G#4
Note OFF: Time 236875, Note Name: F4
Note OFF: Time 236875, Note Name: C4
Note ON: Time 236880, Note Name: C4, Velocity: 27
Note ON: Time 236880, Note Name: F4, Velocity: 32
Note ON: Time 236880, Note Name: G#4, Velocity: 38
Note OFF: Time 237355, Note Name: G#4
Note OFF: Time 237355, Note Name: F4
Note OFF: Time 237355, Note Name: C4
Note ON: Time 237360, Note Name: C4, Velocity: 27
Note ON: Time 237360, Note Name: F4, Velocity: 32
Note ON: Time 237360, Note Name: G#4, Velocity: 38
Note OFF: Time 237835, Note Name: G#4
Note OFF: Time 237835, Note Name: F4
Note OFF: Time 237835, Note Name: C4
Note ON: Time 237840, Note Name: G#4, Velocity: 48
Note ON: Time 237840, Note Name: C4, Velocity: 34
Note ON: Time 237840, Note Name: F4, Velocity: 40
Note OFF: Time 238078, Note Name: G#4
Note ON: Time 238080, Note Name: G4, Velocity: 48
Note OFF: Time 238315, Note Name: F4
Note OFF: Time 238315, Note Name: C4
Note OFF: Time 238318, Note Name: G4
Note ON: Time 238320, Note Name: C4, Velocity: 30
Note ON: Time 238320, Note Name: E4, Velocity: 36
Note ON: Time 238320, Note Name: G4, Velocity: 43
Note OFF: Time 238795, Note Name: G4
Note OFF: Time 238795, Note Name: E4
Note OFF: Time 238795, Note Name: C4
Note ON: Time 238800, Note Name: C4, Velocity: 34
Note ON: Time 238800, Note Name: E4, Velocity: 40
Note ON: Time 238800, Note Name: G4, Velocity: 48
Note OFF: Time 239038, Note Name: G4
Note OFF: Time 239038, Note Name: E4
Note ON: Time 239040, Note Name: G#4, Velocity: 48
Note ON: Time 239040, Note Name: F4, Velocity: 34
Note OFF: Time 239275, Note Name: C4
Note OFF: Time 239278, Note Name: F4
Note OFF: Time 239278, Note Name: G#4
Note ON: Time 239280, Note Name: C4, Velocity: 30
Note ON: Time 239280, Note Name: F4, Velocity: 36
Note ON: Time 239280, Note Name: G#4, Velocity: 43
Note OFF: Time 239755, Note Name: G#4
Note OFF: Time 239755, Note Name: F4
Note OFF: Time 239755, Note Name: C4
Note ON: Time 239760, Note Name: C4, Velocity: 34
Note ON: Time 239760, Note Name: F4, Velocity: 40
Note ON: Time 239760, Note Name: G#4, Velocity: 47
Note OFF: Time 240000, Note Name: G#4
Note OFF: Time 240000, Note Name: F4
Note OFF: Time 240000, Note Name: C4
Note ON: Time 240120, Note Name: C4, Velocity: 36
Note OFF: Time 240240, Note Name: C4
Note ON: Time 240240, Note Name: E4, Velocity: 37
Note OFF: Time 240360, Note Name: E4
Note ON: Time 240360, Note Name: G4, Velocity: 38
Note OFF: Time 240480, Note Name: G4
Note ON: Time 240480, Note Name: B4, Velocity: 40
Note OFF: Time 240600, Note Name: B4
Note ON: Time 240600, Note Name: C5, Velocity: 41
Note OFF: Time 240720, Note Name: C5
Note ON: Time 240720, Note Name: E5, Velocity: 42
Note OFF: Time 240840, Note Name: E5
Note ON: Time 240840, Note Name: G5, Velocity: 44
Note OFF: Time 240960, Note Name: G5
Note ON: Time 240960, Note Name: B5, Velocity: 45
Note OFF: Time 241080, Note Name: B5
Note ON: Time 241080, Note Name: C6, Velocity: 44
Note OFF: Time 241200, Note Name: C6
Note ON: Time 241200, Note Name: G5, Velocity: 43
Note OFF: Time 241320, Note Name: G5
Note ON: Time 241320, Note Name: E5, Velocity: 43
Note OFF: Time 241440, Note Name: E5
Note ON: Time 241440, Note Name: C5, Velocity: 42
Note OFF: Time 241560, Note Name: C5
Note ON: Time 241560, Note Name: G4, Velocity: 41
Note OFF: Time 241680, Note Name: G4
Note ON: Time 241680, Note Name: E4, Velocity: 41
Note OFF: Time 241800, Note Name: E4
Note ON: Time 241800, Note Name: C4, Velocity: 40
Note OFF: Time 241920, Note Name: C4
Note ON: Time 242040, Note Name: C#4, Velocity: 36
Note OFF: Time 242160, Note Name: C#4
Note ON: Time 242160, Note Name: F4, Velocity: 37
Note OFF: Time 242280, Note Name: F4
Note ON: Time 242280, Note Name: G#4, Velocity: 38
Note OFF: Time 242400, Note Name: G#4
Note ON: Time 242400, Note Name: C5, Velocity: 40
Note OFF: Time 242520, Note Name: C5
Note ON: Time 242520, Note Name: C#5, Velocity: 41
Note OFF: Time 242640, Note Name: C#5
Note ON: Time 242640, Note Name: F5, Velocity: 42
Note OFF: Time 242760, Note Name: F5
Note ON: Time 242760, Note Name: G#5, Velocity: 44
Note OFF: Time 242880, Note Name: G#5
Note ON: Time 242880, Note Name: C6, Velocity: 45
Note OFF: Time 243000, Note Name: C6
Note ON: Time 243000, Note Name: C#6, Velocity: 44
Note OFF: Time 243120, Note Name: C#6
Note ON: Time 243120, Note Name: G#5, Velocity: 43
Note OFF: Time 243240, Note Name: G#5
Note ON: Time 243240, Note Name: F5, Velocity: 43
Note OFF: Time 243360, Note Name: F5
Note ON: Time 243360, Note Name: C#5, Velocity: 42
Note OFF: Time 243480, Note Name: C#5
Note ON: Time 243480, Note Name: G#4, Velocity: 41
Note OFF: Time 243600, Note Name: G#4
Note ON: Time 243600, Note Name: F4, Velocity: 41
Note OFF: Time 243720, Note Name: F4
Note ON: Time 243720, Note Name: C#4, Velocity: 40
Note OFF: Time 243840, Note Name: C#4
Note ON: Time 243960, Note Name: E4, Velocity: 36
Note OFF: Time 244080, Note Name: E4
Note ON: Time 244080, Note Name: G4, Velocity: 37
Note OFF: Time 244200, Note Name: G4
Note ON: Time 244200, Note Name: A#4, Velocity: 38
Note OFF: Time 244320, Note Name: A#4
Note ON: Time 244320, Note Name: D#5, Velocity: 40
Note OFF: Time 244440, Note Name: D#5
Note ON: Time 244440, Note Name: E5, Velocity: 41
Note OFF: Time 244560, Note Name: E5
Note ON: Time 244560, Note Name: G5, Velocity: 42
Note OFF: Time 244680, Note Name: G5
Note ON: Time 244680, Note Name: A#5, Velocity: 44
Note OFF: Time 244800, Note Name: A#5
Note ON: Time 244800, Note Name: D#6, Velocity: 45
Note OFF: Time 244920, Note Name: D#6
Note ON: Time 244920, Note Name: E6, Velocity: 44
Note OFF: Time 245040, Note Name: E6
Note ON: Time 245040, Note Name: A#5, Velocity: 43
Note OFF: Time 245160, Note Name: A#5
Note ON: Time 245160, Note Name: G5, Velocity: 43
Note OFF: Time 245280, Note Name: G5
Note ON: Time 245280, Note Name: E5, Velocity: 42
Note OFF: Time 245400, Note Name: E5
Note ON: Time 245400, Note Name: A#4, Velocity: 41
Note OFF: Time 245520, Note Name: A#4
Note ON: Time 245520, Note Name: G4, Velocity: 41
Note OFF: Time 245640, Note Name: G4
Note ON: Time 245640, Note Name: E4, Velocity: 40
Note OFF: Time 245760, Note Name: E4
Note ON: Time 245880, Note Name: F4, Velocity: 36
Note OFF: Time 246000, Note Name: F4
Note ON: Time 246000, Note Name: A4, Velocity: 37
Note OFF: Time 246120, Note Name: A4
Note ON: Time 246120, Note Name: C5, Velocity: 38
Note OFF: Time 246240, Note Name: C5
Note ON: Time 246240, Note Name: E5, Velocity: 40
Note OFF: Time 246360, Note Name: E5
Note ON: Time 246360, Note Name: F5, Velocity: 41
Note OFF: Time 246480, Note Name: F5
Note ON: Time 246480, Note Name: A5, Velocity: 42
Note OFF: Time 246600, Note Name: A5
Note ON: Time 246600, Note Name: C6, Velocity: 44
Note OFF: Time 246720, Note Name: C6
Note ON: Time 246720, Note Name: E6, Velocity: 45
Note OFF: Time 246840, Note Name: E6
Note ON: Time 246840, Note Name: F6, Velocity: 44
Note OFF: Time 246960, Note Name: F6
Note ON: Time 246960, Note Name: C6, Velocity: 43
Note OFF: Time 247080, Note Name: C6
Note ON: Time 247080, Note Name: A5, Velocity: 43
Note OFF: Time 247200, Note Name: A5
Note ON: Time 247200, Note Name: F5, Velocity: 42
Note OFF: Time 247320, Note Name: F5
Note ON: Time 247320, Note Name: C5, Velocity: 41
Note OFF: Time 247440, Note Name: C5
Note ON: Time 247440, Note Name: A4, Velocity: 41
Note OFF: Time 247560, Note Name: A4
Note ON: Time 247560, Note Name: F4, Velocity: 40
Note OFF: Time 247680, Note Name: F4
Note ON: Time 247800, Note Name: F#4, Velocity: 36
Note OFF: Time 247920, Note Name: F#4
Note ON: Time 247920, Note Name: A#4, Velocity: 37
Note OFF: Time 248040, Note Name: A#4
Note ON: Time 248040, Note Name: C#5, Velocity: 38
Note OFF: Time 248160, Note Name: C#5
Note ON: Time 248160, Note Name: F5, Velocity: 40
Note OFF: Time 248280, Note Name: F5
Note ON: Time 248280, Note Name: F#5, Velocity: 41
Note OFF: Time 248400, Note Name: F#5
Note ON: Time 248400, Note Name: A#5, Velocity: 42
Note OFF: Time 248520, Note Name: A#5
Note ON: Time 248520, Note Name: C#6, Velocity: 44
Note OFF: Time 248640, Note Name: C#6
Note ON: Time 248640, Note Name: F6, Velocity: 45
Note OFF: Time 248760, Note Name: F6
Note ON: Time 248760, Note Name: F#6, Velocity: 44
Note OFF: Time 248880, Note Name: F#6
Note ON: Time 248880, Note Name: C#6, Velocity: 43
Note OFF: Time 249000, Note Name: C#6
Note ON: Time 249000, Note Name: A#5, Velocity: 43
Note OFF: Time 249120, Note Name: A#5
Note ON: Time 249120, Note Name: F#5, Velocity: 42
Note OFF: Time 249240, Note Name: F#5
Note ON: Time 249240, Note Name: C#5, Velocity: 41
Note OFF: Time 249360, Note Name: C#5
Note ON: Time 249360, Note Name: A#4, Velocity: 41
Note OFF: Time 249480, Note Name: A#4
Note ON: Time 249480, Note Name: F#4, Velocity: 40
Note OFF: Time 249600, Note Name: F#4
Note ON: Time 249720, Note Name: A4, Velocity: 36
Note OFF: Time 249840, Note Name: A4
Note ON: Time 249840, Note Name: C5, Velocity: 37
Note OFF: Time 249960, Note Name: C5
Note ON: Time 249960, Note Name: D#5, Velocity: 38
Note OFF: Time 250080, Note Name: D#5
Note ON: Time 250080, Note Name: G#5, Velocity: 40
Note OFF: Time 250200, Note Name: G#5
Note ON: Time 250200, Note Name: A5, Velocity: 41
Note OFF: Time 250320, Note Name: A5
Note ON: Time 250320, Note Name: C6, Velocity: 42
Note OFF: Time 250440, Note Name: C6
Note ON: Time 250440, Note Name: D#6, Velocity: 44
Note OFF: Time 250560, Note Name: D#6
Note ON: Time 250560, Note Name: G#6, Velocity: 45
Note OFF: Time 250680, Note Name: G#6
Note ON: Time 250680, Note Name: A6, Velocity: 44
Note OFF: Time 250800, Note Name: A6
Note ON: Time 250800, Note Name: D#6, Velocity: 43
Note OFF: Time 250920, Note Name: D#6
Note ON: Time 250920, Note Name: C6, Velocity: 43
Note OFF: Time 251040, Note Name: C6
Note ON: Time 251040, Note Name: A5, Velocity: 42
Note OFF: Time 251160, Note Name: A5
Note ON: Time 251160, Note Name: D#5, Velocity: 41
Note OFF: Time 251280, Note Name: D#5
Note ON: Time 251280, Note Name: C5, Velocity: 41
Note OFF: Time 251400, Note Name: C5
Note ON: Time 251400, Note Name: A4, Velocity: 40
Note OFF: Time 251520, Note Name: A4
Note ON: Time 251640, Note Name: A#4, Velocity: 39
Note OFF: Time 251760, Note Name: A#4
Note ON: Time 251760, Note Name: D5, Velocity: 41
Note OFF: Time 251880, Note Name: D5
Note ON: Time 251880, Note Name: F5, Velocity: 44
Note OFF: Time 252000, Note Name: F5
Note ON: Time 252000, Note Name: A5, Velocity: 46
Note OFF: Time 252120, Note Name: A5
Note ON: Time 252120, Note Name: A#5, Velocity: 44
Note OFF: Time 252240, Note Name: A#5
Note ON: Time 252240, Note Name: F5, Velocity: 42
Note OFF: Time 252360, Note Name: F5
Note ON: Time 252360, Note Name: D5, Velocity: 40
Note OFF: Time 252480, Note Name: D5
Note ON: Time 252480, Note Name: A#4, Velocity: 45
Note OFF: Time 252600, Note Name: A#4
Note ON: Time 252600, Note Name: D5, Velocity: 41
Note OFF: Time 252720, Note Name: D5
Note ON: Time 252720, Note Name: F5, Velocity: 43
Note OFF: Time 252840, Note Name: F5
Note ON: Time 252840, Note Name: A5, Velocity: 45
Note OFF: Time 252960, Note Name: A5
Note ON: Time 252960, Note Name: A#5, Velocity: 47
Note OFF: Time 253080, Note Name: A#5
Note ON: Time 253080, Note Name: F5, Velocity: 45
Note OFF: Time 253200, Note Name: F5
Note ON: Time 253200, Note Name: D5, Velocity: 44
Note OFF: Time 253320, Note Name: D5
Note ON: Time 253320, Note Name: A#4, Velocity: 42
Note OFF: Time 253440, Note Name: A#4
Note ON: Time 253560, Note Name: B4, Velocity: 39
Note OFF: Time 253680, Note Name: B4
Note ON: Time 253680, Note Name: D#5, Velocity: 41
Note OFF: Time 253800, Note Name: D#5
Note ON: Time 253800, Note Name: F#5, Velocity: 44
Note OFF: Time 253920, Note Name: F#5
Note ON: Time 253920, Note Name: A#5, Velocity: 46
Note OFF: Time 254040, Note Name: A#5
Note ON: Time 254040, Note Name: B5, Velocity: 44
Note OFF: Time 254160, Note Name: B5
Note ON: Time 254160, Note Name: F#5, Velocity: 42
Note OFF: Time 254280, Note Name: F#5
Note ON: Time 254280, Note Name: D#5, Velocity: 40
Note OFF: Time 254400, Note Name: D#5
Note ON: Time 254400, Note Name: B4, Velocity: 45
Note OFF: Time 254520, Note Name: B4
Note ON: Time 254520, Note Name: D#5, Velocity: 41
Note OFF: Time 254640, Note Name: D#5
Note ON: Time 254640, Note Name: F#5, Velocity: 43
Note OFF: Time 254760, Note Name: F#5
Note ON: Time 254760, Note Name: A#5, Velocity: 45
Note OFF: Time 254880, Note Name: A#5
Note ON: Time 254880, Note Name: B5, Velocity: 47
Note OFF: Time 255000, Note Name: B5
Note ON: Time 255000, Note Name: F#5, Velocity: 45
Note OFF: Time 255120, Note Name: F#5
Note ON: Time 255120, Note Name: D#5, Velocity: 44
Note OFF: Time 255240, Note Name: D#5
Note ON: Time 255240, Note Name: B4, Velocity: 42
Note OFF: Time 255360, Note Name: B4
Note ON: Time 255480, Note Name: D5, Velocity: 39
Note OFF: Time 255600, Note Name: D5
Note ON: Time 255600, Note Name: F5, Velocity: 41
Note OFF: Time 255720, Note Name: F5
Note ON: Time 255720, Note Name: G#5, Velocity: 44
Note OFF: Time 255840, Note Name: G#5
Note ON: Time 255840, Note Name: C#6, Velocity: 46
Note OFF: Time 255960, Note Name: C#6
Note ON: Time 255960, Note Name: D6, Velocity: 44
Note OFF: Time 256080, Note Name: D6
Note ON: Time 256080, Note Name: G#5, Velocity: 42
Note OFF: Time 256200, Note Name: G#5
Note ON: Time 256200, Note Name: F5, Velocity: 40
Note OFF: Time 256320, Note Name: F5
Note ON: Time 256320, Note Name: D5, Velocity: 45
Note OFF: Time 256440, Note Name: D5
Note ON: Time 256440, Note Name: F5, Velocity: 41
Note OFF: Time 256560, Note Name: F5
Note ON: Time 256560, Note Name: G#5, Velocity: 43
Note OFF: Time 256680, Note Name: G#5
Note ON: Time 256680, Note Name: C#6, Velocity: 45
Note OFF: Time 256800, Note Name: C#6
Note ON: Time 256800, Note Name: D6, Velocity: 47
Note OFF: Time 256920, Note Name: D6
Note ON: Time 256920, Note Name: G#5, Velocity: 45
Note OFF: Time 257040, Note Name: G#5
Note ON: Time 257040, Note Name: F5, Velocity: 44
Note OFF: Time 257160, Note Name: F5
Note ON: Time 257160, Note Name: D5, Velocity: 42
Note OFF: Time 257280, Note Name: D5
Note ON: Time 257400, Note Name: F#5, Velocity: 39
Note OFF: Time 257520, Note Name: F#5
Note ON: Time 257520, Note Name: F5, Velocity: 46
Note OFF: Time 257640, Note Name: F5
Note ON: Time 257640, Note Name: F#5, Velocity: 44
Note OFF: Time 257760, Note Name: F#5
Note ON: Time 257880, Note Name: A#5, Velocity: 44
Note OFF: Time 258000, Note Name: A#5
Note ON: Time 258000, Note Name: A5, Velocity: 47
Note OFF: Time 258120, Note Name: A5
Note ON: Time 258120, Note Name: A#5, Velocity: 40
Note OFF: Time 258240, Note Name: A#5
Note ON: Time 258360, Note Name: D#6, Velocity: 41
Note OFF: Time 258480, Note Name: D#6
Note ON: Time 258480, Note Name: D6, Velocity: 43
Note OFF: Time 258600, Note Name: D6
Note ON: Time 258600, Note Name: D#6, Velocity: 42
Note OFF: Time 258720, Note Name: D#6
Note ON: Time 258720, Note Name: F#6, Velocity: 47
Note OFF: Time 258840, Note Name: F#6
Note ON: Time 258840, Note Name: D#6, Velocity: 45
Note OFF: Time 258960, Note Name: D#6
Note ON: Time 258960, Note Name: F#6, Velocity: 49
Note OFF: Time 259080, Note Name: F#6
Note ON: Time 259080, Note Name: D#6, Velocity: 42
Note OFF: Time 259200, Note Name: D#6
Note ON: Time 259200, Note Name: F#6, Velocity: 53
Note OFF: Time 259320, Note Name: F#6
Note ON: Time 259320, Note Name: F6, Velocity: 51
Note OFF: Time 259440, Note Name: F6
Note ON: Time 259440, Note Name: D#6, Velocity: 49
Note OFF: Time 259560, Note Name: D#6
Note ON: Time 259560, Note Name: C#6, Velocity: 47
Note OFF: Time 259680, Note Name: C#6
Note ON: Time 259680, Note Name: C6, Velocity: 45
Note OFF: Time 259800, Note Name: C6
Note ON: Time 259800, Note Name: C#6, Velocity: 46
Note OFF: Time 259920, Note Name: C#6
Note ON: Time 259920, Note Name: D#6, Velocity: 47
Note OFF: Time 260040, Note Name: D#6
Note ON: Time 260040, Note Name: F6, Velocity: 48
Note OFF: Time 260160, Note Name: F6
Note ON: Time 260160, Note Name: F#6, Velocity: 53
Note OFF: Time 260280, Note Name: F#6
Note ON: Time 260280, Note Name: F6, Velocity: 52
Note OFF: Time 260400, Note Name: F6
Note ON: Time 260400, Note Name: D#6, Velocity: 51
Note OFF: Time 260520, Note Name: D#6
Note ON: Time 260520, Note Name: C#6, Velocity: 50
Note OFF: Time 260640, Note Name: C#6
Note ON: Time 260640, Note Name: C6, Velocity: 49
Note OFF: Time 260760, Note Name: C6
Note ON: Time 260760, Note Name: A#5, Velocity: 48
Note OFF: Time 260880, Note Name: A#5
Note ON: Time 260880, Note Name: G#5, Velocity: 47
Note OFF: Time 261000, Note Name: G#5
Note ON: Time 261000, Note Name: F#5, Velocity: 46
Note OFF: Time 261120, Note Name: F#5
Note ON: Time 261240, Note Name: F5, Velocity: 39
Note OFF: Time 261360, Note Name: F5
Note ON: Time 261360, Note Name: E5, Velocity: 46
Note OFF: Time 261480, Note Name: E5
Note ON: Time 261480, Note Name: F5, Velocity: 44
Note OFF: Time 261600, Note Name: F5
Note ON: Time 261720, Note Name: G#5, Velocity: 44
Note OFF: Time 261840, Note Name: G#5
Note ON: Time 261840, Note Name: G5, Velocity: 47
Note OFF: Time 261960, Note Name: G5
Note ON: Time 261960, Note Name: G#5, Velocity: 40
Note OFF: Time 262080, Note Name: G#5
Note ON: Time 262200, Note Name: C#6, Velocity: 41
Note OFF: Time 262320, Note Name: C#6
Note ON: Time 262320, Note Name: C6, Velocity: 43
Note OFF: Time 262440, Note Name: C6
Note ON: Time 262440, Note Name: C#6, Velocity: 42
Note OFF: Time 262560, Note Name: C#6
Note ON: Time 262560, Note Name: F6, Velocity: 47
Note OFF: Time 262680, Note Name: F6
Note ON: Time 262680, Note Name: C#6, Velocity: 45
Note OFF: Time 262800, Note Name: C#6
Note ON: Time 262800, Note Name: F6, Velocity: 49
Note OFF: Time 262920, Note Name: F6
Note ON: Time 262920, Note Name: C#6, Velocity: 42
Note OFF: Time 263040, Note Name: C#6
Note ON: Time 263040, Note Name: F6, Velocity: 53
Note OFF: Time 263160, Note Name: F6
Note ON: Time 263160, Note Name: D#6, Velocity: 51
Note OFF: Time 263280, Note Name: D#6
Note ON: Time 263280, Note Name: D6, Velocity: 49
Note OFF: Time 263400, Note Name: D6
Note ON: Time 263400, Note Name: C6, Velocity: 47
Note OFF: Time 263520, Note Name: C6
Note ON: Time 263520, Note Name: B5, Velocity: 45
Note OFF: Time 263640, Note Name: B5
Note ON: Time 263640, Note Name: C6, Velocity: 46
Note OFF: Time 263760, Note Name: C6
Note ON: Time 263760, Note Name: D6, Velocity: 47
Note OFF: Time 263880, Note Name: D6
Note ON: Time 263880, Note Name: D#6, Velocity: 48
Note OFF: Time 264000, Note Name: D#6
Note ON: Time 264000, Note Name: F6, Velocity: 53
Note OFF: Time 264120, Note Name: F6
Note ON: Time 264120, Note Name: D#6, Velocity: 52
Note OFF: Time 264240, Note Name: D#6
Note ON: Time 264240, Note Name: D6, Velocity: 51
Note OFF: Time 264360, Note Name: D6
Note ON: Time 264360, Note Name: C6, Velocity: 50
Note OFF: Time 264480, Note Name: C6
Note ON: Time 264480, Note Name: B5, Velocity: 49
Note OFF: Time 264600, Note Name: B5
Note ON: Time 264600, Note Name: G#5, Velocity: 48
Note OFF: Time 264720, Note Name: G#5
Note ON: Time 264720, Note Name: G5, Velocity: 47
Note OFF: Time 264840, Note Name: G5
Note ON: Time 264840, Note Name: F5, Velocity: 46
Note OFF: Time 264960, Note Name: F5
Note ON: Time 265080, Note Name: D#5, Velocity: 39
Note OFF: Time 265200, Note Name: D#5
Note ON: Time 265200, Note Name: D5, Velocity: 46
Note OFF: Time 265320, Note Name: D5
Note ON: Time 265320, Note Name: D#5, Velocity: 44
Note OFF: Time 265440, Note Name: D#5
Note ON: Time 265560, Note Name: G5, Velocity: 44
Note OFF: Time 265680, Note Name: G5
Note ON: Time 265680, Note Name: F#5, Velocity: 47
Note OFF: Time 265800, Note Name: F#5
Note ON: Time 265800, Note Name: G5, Velocity: 40
Note OFF: Time 265920, Note Name: G5
Note ON: Time 266040, Note Name: B5, Velocity: 41
Note OFF: Time 266160, Note Name: B5
Note ON: Time 266160, Note Name: C6, Velocity: 43
Note OFF: Time 266280, Note Name: C6
Note ON: Time 266280, Note Name: B5, Velocity: 42
Note OFF: Time 266400, Note Name: B5
Note ON: Time 266400, Note Name: C6, Velocity: 47
Note OFF: Time 266520, Note Name: C6
Note ON: Time 266520, Note Name: D6, Velocity: 45
Note OFF: Time 266640, Note Name: D6
Note ON: Time 266640, Note Name: D#6, Velocity: 49
Note OFF: Time 266760, Note Name: D#6
Note ON: Time 266760, Note Name: F#6, Velocity: 42
Note OFF: Time 266880, Note Name: F#6
Note ON: Time 266880, Note Name: G6, Velocity: 53
Note OFF: Time 267000, Note Name: G6
Note ON: Time 267000, Note Name: D6, Velocity: 51
Note OFF: Time 267120, Note Name: D6
Note ON: Time 267120, Note Name: B5, Velocity: 49
Note OFF: Time 267240, Note Name: B5
Note ON: Time 267240, Note Name: G5, Velocity: 47
Note OFF: Time 267360, Note Name: G5
Note ON: Time 267360, Note Name: F#5, Velocity: 45
Note OFF: Time 267480, Note Name: F#5
Note ON: Time 267480, Note Name: G5, Velocity: 46
Note OFF: Time 267600, Note Name: G5
Note ON: Time 267600, Note Name: B5, Velocity: 47
Note OFF: Time 267720, Note Name: B5
Note ON: Time 267720, Note Name: D6, Velocity: 48
Note OFF: Time 267840, Note Name: D6
Note ON: Time 267840, Note Name: D#6, Velocity: 53
Note OFF: Time 267960, Note Name: D#6
Note ON: Time 267960, Note Name: C6, Velocity: 51
Note OFF: Time 268080, Note Name: C6
Note ON: Time 268080, Note Name: G5, Velocity: 49
Note OFF: Time 268200, Note Name: G5
Note ON: Time 268200, Note Name: D#5, Velocity: 47
Note OFF: Time 268320, Note Name: D#5
Note ON: Time 268320, Note Name: C6, Velocity: 51
Note OFF: Time 268440, Note Name: C6
Note ON: Time 268440, Note Name: G5, Velocity: 50
Note OFF: Time 268560, Note Name: G5
Note ON: Time 268560, Note Name: D#5, Velocity: 49
Note OFF: Time 268680, Note Name: D#5
Note ON: Time 268680, Note Name: C5, Velocity: 48
Note OFF: Time 268800, Note Name: C5
Note ON: Time 268800, Note Name: B5, Velocity: 53
Note OFF: Time 268920, Note Name: B5
Note ON: Time 268920, Note Name: G5, Velocity: 51
Note OFF: Time 269040, Note Name: G5
Note ON: Time 269040, Note Name: D5, Velocity: 49
Note OFF: Time 269160, Note Name: D5
Note ON: Time 269160, Note Name: B4, Velocity: 47
Note OFF: Time 269280, Note Name: B4
Note ON: Time 269280, Note Name: G5, Velocity: 51
Note OFF: Time 269400, Note Name: G5
Note ON: Time 269400, Note Name: D5, Velocity: 50
Note OFF: Time 269520, Note Name: D5
Note ON: Time 269520, Note Name: B4, Velocity: 49
Note OFF: Time 269640, Note Name: B4
Note ON: Time 269640, Note Name: G4, Velocity: 48
Note OFF: Time 269760, Note Name: G4
Note ON: Time 269760, Note Name: D#5, Velocity: 53
Note OFF: Time 269880, Note Name: D#5
Note ON: Time 269880, Note Name: C5, Velocity: 51
Note OFF: Time 270000, Note Name: C5
Note ON: Time 270000, Note Name: G4, Velocity: 49
Note OFF: Time 270120, Note Name: G4
Note ON: Time 270120, Note Name: D#4, Velocity: 47
Note OFF: Time 270240, Note Name: D#4
Note ON: Time 270240, Note Name: C5, Velocity: 51
Note OFF: Time 270360, Note Name: C5
Note ON: Time 270360, Note Name: G4, Velocity: 50
Note OFF: Time 270480, Note Name: G4
Note ON: Time 270480, Note Name: D#4, Velocity: 49
Note OFF: Time 270600, Note Name: D#4
Note ON: Time 270600, Note Name: C4, Velocity: 48
Note OFF: Time 270720, Note Name: C4
Note ON: Time 270720, Note Name: B4, Velocity: 53
Note OFF: Time 270840, Note Name: B4
Note ON: Time 270840, Note Name: G4, Velocity: 51
Note OFF: Time 270960, Note Name: G4
Note ON: Time 270960, Note Name: D4, Velocity: 49
Note OFF: Time 271080, Note Name: D4
Note ON: Time 271080, Note Name: B3, Velocity: 47
Note OFF: Time 271200, Note Name: B3
Note ON: Time 271200, Note Name: D4, Velocity: 47
Note OFF: Time 271320, Note Name: D4
Note ON: Time 271320, Note Name: F4, Velocity: 48
Note OFF: Time 271440, Note Name: F4
Note ON: Time 271440, Note Name: B4, Velocity: 50
Note OFF: Time 271560, Note Name: B4
Note ON: Time 271560, Note Name: D5, Velocity: 52
Note OFF: Time 271680, Note Name: D5
Note ON: Time 271680, Note Name: C5, Velocity: 53
Note OFF: Time 271800, Note Name: C5
Note ON: Time 271800, Note Name: G4, Velocity: 51
Note OFF: Time 271920, Note Name: G4
Note ON: Time 271920, Note Name: D#4, Velocity: 49
Note OFF: Time 272040, Note Name: D#4
Note ON: Time 272040, Note Name: C4, Velocity: 47
Note OFF: Time 272160, Note Name: C4
Note ON: Time 272160, Note Name: G4, Velocity: 51
Note OFF: Time 272280, Note Name: G4
Note ON: Time 272280, Note Name: D#4, Velocity: 50
Note OFF: Time 272400, Note Name: D#4
Note ON: Time 272400, Note Name: C4, Velocity: 49
Note OFF: Time 272520, Note Name: C4
Note ON: Time 272520, Note Name: G3, Velocity: 48
Note OFF: Time 272640, Note Name: G3
Note ON: Time 272640, Note Name: G4, Velocity: 79
Note OFF: Time 272760, Note Name: G4
Note ON: Time 272760, Note Name: D4, Velocity: 75
Note OFF: Time 272880, Note Name: D4
Note ON: Time 272880, Note Name: B3, Velocity: 75
Note OFF: Time 273000, Note Name: B3
Note ON: Time 273000, Note Name: G3, Velocity: 70
Note OFF: Time 273120, Note Name: G3
Note ON: Time 273120, Note Name: B3, Velocity: 75
Note OFF: Time 273240, Note Name: B3
Note ON: Time 273240, Note Name: D4, Velocity: 71
Note OFF: Time 273360, Note Name: D4
Note ON: Time 273360, Note Name: B3, Velocity: 71
Note OFF: Time 273480, Note Name: B3
Note ON: Time 273480, Note Name: G3, Velocity: 71
Note OFF: Time 273600, Note Name: G3
Note ON: Time 273600, Note Name: C4, Velocity: 70
Note OFF: Time 273720, Note Name: C4
Note ON: Time 273720, Note Name: G3, Velocity: 61
Note OFF: Time 273840, Note Name: G3
Note ON: Time 273840, Note Name: D#3, Velocity: 61
Note OFF: Time 273960, Note Name: D#3
Note ON: Time 273960, Note Name: G3, Velocity: 60
Note OFF: Time 274080, Note Name: G3
Note ON: Time 274080, Note Name: D#3, Velocity: 64
Note OFF: Time 274200, Note Name: D#3
Note ON: Time 274200, Note Name: G3, Velocity: 54
Note OFF: Time 274320, Note Name: G3
Note ON: Time 274320, Note Name: D#3, Velocity: 54
Note OFF: Time 274440, Note Name: D#3
Note ON: Time 274440, Note Name: C3, Velocity: 54
Note OFF: Time 274560, Note Name: C3
Note ON: Time 274680, Note Name: G3, Velocity: 34
Note OFF: Time 274800, Note Name: G3
Note ON: Time 274800, Note Name: D3, Velocity: 34
Note OFF: Time 274920, Note Name: D3
Note ON: Time 274920, Note Name: B2, Velocity: 34
Note OFF: Time 275040, Note Name: B2
Note ON: Time 275160, Note Name: G3, Velocity: 34
Note OFF: Time 275280, Note Name: G3
Note ON: Time 275280, Note Name: D3, Velocity: 34
Note OFF: Time 275400, Note Name: D3
Note ON: Time 275400, Note Name: B2, Velocity: 34
Note OFF: Time 275520, Note Name: B2
Note ON: Time 275640, Note Name: G3, Velocity: 34
Note OFF: Time 275760, Note Name: G3
Note ON: Time 275760, Note Name: D3, Velocity: 34
Note OFF: Time 275880, Note Name: D3
Note ON: Time 275880, Note Name: B2, Velocity: 34
Note OFF: Time 276000, Note Name: B2
Note ON: Time 276120, Note Name: G3, Velocity: 34
Note OFF: Time 276240, Note Name: G3
Note ON: Time 276240, Note Name: D3, Velocity: 34
Note OFF: Time 276360, Note Name: D3
Note ON: Time 276360, Note Name: B2, Velocity: 34
Note OFF: Time 276480, Note Name: B2
Note ON: Time 276600, Note Name: A3, Velocity: 34
Note OFF: Time 276720, Note Name: A3
Note ON: Time 276720, Note Name: D#3, Velocity: 34
Note OFF: Time 276840, Note Name: D#3
Note ON: Time 276840, Note Name: C3, Velocity: 34
Note OFF: Time 276960, Note Name: C3
Note ON: Time 277080, Note Name: A3, Velocity: 34
Note OFF: Time 277200, Note Name: A3
Note ON: Time 277200, Note Name: D#3, Velocity: 34
Note OFF: Time 277320, Note Name: D#3
Note ON: Time 277320, Note Name: C3, Velocity: 34
Note OFF: Time 277440, Note Name: C3
Note ON: Time 277560, Note Name: A3, Velocity: 34
Note OFF: Time 277680, Note Name: A3
Note ON: Time 277680, Note Name: D#3, Velocity: 34
Note OFF: Time 277800, Note Name: D#3
Note ON: Time 277800, Note Name: C3, Velocity: 34
Note OFF: Time 277920, Note Name: C3
Note ON: Time 278040, Note Name: A3, Velocity: 34
Note OFF: Time 278160, Note Name: A3
Note ON: Time 278160, Note Name: D#3, Velocity: 34
Note OFF: Time 278280, Note Name: D#3
Note ON: Time 278280, Note Name: C3, Velocity: 34
Note OFF: Time 278400, Note Name: C3
Note ON: Time 278520, Note Name: G3, Velocity: 34
Note OFF: Time 278640, Note Name: G3
Note ON: Time 278640, Note Name: D3, Velocity: 34
Note OFF: Time 278760, Note Name: D3
Note ON: Time 278760, Note Name: B2, Velocity: 34
Note OFF: Time 278880, Note Name: B2
Note ON: Time 279000, Note Name: G3, Velocity: 34
Note OFF: Time 279120, Note Name: G3
Note ON: Time 279120, Note Name: D3, Velocity: 34
Note OFF: Time 279240, Note Name: D3
Note ON: Time 279240, Note Name: B2, Velocity: 34
Note OFF: Time 279360, Note Name: B2
Note ON: Time 279480, Note Name: G3, Velocity: 34
Note OFF: Time 279600, Note Name: G3
Note ON: Time 279600, Note Name: D3, Velocity: 34
Note OFF: Time 279720, Note Name: D3
Note ON: Time 279720, Note Name: B2, Velocity: 34
Note OFF: Time 279840, Note Name: B2
Note ON: Time 279960, Note Name: G3, Velocity: 34
Note OFF: Time 280080, Note Name: G3
Note ON: Time 280080, Note Name: D3, Velocity: 34
Note OFF: Time 280200, Note Name: D3
Note ON: Time 280200, Note Name: B2, Velocity: 34
Note OFF: Time 280320, Note Name: B2
Note ON: Time 280440, Note Name: A3, Velocity: 34
Note OFF: Time 280560, Note Name: A3
Note ON: Time 280560, Note Name: D#3, Velocity: 34
Note OFF: Time 280680, Note Name: D#3
Note ON: Time 280680, Note Name: C3, Velocity: 34
Note OFF: Time 280800, Note Name: C3
Note ON: Time 280920, Note Name: A3, Velocity: 34
Note OFF: Time 281040, Note Name: A3
Note ON: Time 281040, Note Name: D#3, Velocity: 34
Note OFF: Time 281160, Note Name: D#3
Note ON: Time 281160, Note Name: C3, Velocity: 34
Note OFF: Time 281280, Note Name: C3
Note ON: Time 281400, Note Name: A3, Velocity: 34
Note OFF: Time 281520, Note Name: A3
Note ON: Time 281520, Note Name: D#3, Velocity: 34
Note OFF: Time 281640, Note Name: D#3
Note ON: Time 281640, Note Name: C3, Velocity: 34
Note OFF: Time 281760, Note Name: C3
Note ON: Time 281880, Note Name: A3, Velocity: 34
Note OFF: Time 282000, Note Name: A3
Note ON: Time 282000, Note Name: D#3, Velocity: 34
Note OFF: Time 282120, Note Name: D#3
Note ON: Time 282120, Note Name: C3, Velocity: 34
Note OFF: Time 282240, Note Name: C3
Note ON: Time 282240, Note Name: G3, Velocity: 77
Note OFF: Time 282360, Note Name: G3
Note ON: Time 282360, Note Name: D3, Velocity: 60
Note OFF: Time 282480, Note Name: D3
Note ON: Time 282480, Note Name: B2, Velocity: 60
Note OFF: Time 282600, Note Name: B2
Note ON: Time 282600, Note Name: D3, Velocity: 60
Note OFF: Time 282720, Note Name: D3
Note ON: Time 282720, Note Name: G3, Velocity: 76
Note OFF: Time 282840, Note Name: G3
Note ON: Time 282840, Note Name: D3, Velocity: 60
Note OFF: Time 282960, Note Name: D3
Note ON: Time 282960, Note Name: B2, Velocity: 60
Note OFF: Time 283080, Note Name: B2
Note ON: Time 283080, Note Name: D3, Velocity: 60
Note OFF: Time 283200, Note Name: D3
Note ON: Time 283200, Note Name: G3, Velocity: 76
Note OFF: Time 283320, Note Name: G3
Note ON: Time 283320, Note Name: D3, Velocity: 59
Note OFF: Time 283440, Note Name: D3
Note ON: Time 283440, Note Name: B2, Velocity: 59
Note OFF: Time 283560, Note Name: B2
Note ON: Time 283560, Note Name: D3, Velocity: 59
Note OFF: Time 283680, Note Name: D3
Note ON: Time 283680, Note Name: G3, Velocity: 67
Note OFF: Time 283800, Note Name: G3
Note ON: Time 283800, Note Name: D3, Velocity: 61
Note OFF: Time 283920, Note Name: D3
Note ON: Time 283920, Note Name: B2, Velocity: 61
Note OFF: Time 284040, Note Name: B2
Note ON: Time 284040, Note Name: D3, Velocity: 61
Note OFF: Time 284160, Note Name: D3
Note ON: Time 284160, Note Name: B3, Velocity: 77
Note OFF: Time 284280, Note Name: B3
Note ON: Time 284280, Note Name: G3, Velocity: 60
Note OFF: Time 284400, Note Name: G3
Note ON: Time 284400, Note Name: D3, Velocity: 60
Note OFF: Time 284520, Note Name: D3
Note ON: Time 284520, Note Name: G3, Velocity: 60
Note OFF: Time 284640, Note Name: G3
Note ON: Time 284640, Note Name: B3, Velocity: 76
Note OFF: Time 284760, Note Name: B3
Note ON: Time 284760, Note Name: G3, Velocity: 60
Note OFF: Time 284880, Note Name: G3
Note ON: Time 284880, Note Name: D3, Velocity: 60
Note OFF: Time 285000, Note Name: D3
Note ON: Time 285000, Note Name: G3, Velocity: 60
Note OFF: Time 285120, Note Name: G3
Note ON: Time 285120, Note Name: B3, Velocity: 76
Note OFF: Time 285240, Note Name: B3
Note ON: Time 285240, Note Name: G3, Velocity: 59
Note OFF: Time 285360, Note Name: G3
Note ON: Time 285360, Note Name: D3, Velocity: 59
Note OFF: Time 285480, Note Name: D3
Note ON: Time 285480, Note Name: G3, Velocity: 59
Note OFF: Time 285600, Note Name: G3
Note ON: Time 285600, Note Name: B3, Velocity: 66
Note OFF: Time 285720, Note Name: B3
Note ON: Time 285720, Note Name: G3, Velocity: 58
Note OFF: Time 285840, Note Name: G3
Note ON: Time 285840, Note Name: D3, Velocity: 58
Note OFF: Time 285960, Note Name: D3
Note ON: Time 285960, Note Name: G3, Velocity: 58
Note OFF: Time 286080, Note Name: G3
Note ON: Time 286080, Note Name: D4, Velocity: 77
Note OFF: Time 286200, Note Name: D4
Note ON: Time 286200, Note Name: B3, Velocity: 60
Note OFF: Time 286320, Note Name: B3
Note ON: Time 286320, Note Name: G3, Velocity: 60
Note OFF: Time 286440, Note Name: G3
Note ON: Time 286440, Note Name: B3, Velocity: 60
Note OFF: Time 286560, Note Name: B3
Note ON: Time 286560, Note Name: D4, Velocity: 76
Note OFF: Time 286680, Note Name: D4
Note ON: Time 286680, Note Name: B3, Velocity: 60
Note OFF: Time 286800, Note Name: B3
Note ON: Time 286800, Note Name: G3, Velocity: 60
Note OFF: Time 286920, Note Name: G3
Note ON: Time 286920, Note Name: B3, Velocity: 60
Note OFF: Time 287040, Note Name: B3
Note ON: Time 287040, Note Name: D4, Velocity: 76
Note OFF: Time 287160, Note Name: D4
Note ON: Time 287160, Note Name: B3, Velocity: 59
Note OFF: Time 287280, Note Name: B3
Note ON: Time 287280, Note Name: G3, Velocity: 59
Note OFF: Time 287400, Note Name: G3
Note ON: Time 287400, Note Name: B3, Velocity: 59
Note OFF: Time 287520, Note Name: B3
Note ON: Time 287520, Note Name: D4, Velocity: 66
Note OFF: Time 287640, Note Name: D4
Note ON: Time 287640, Note Name: B3, Velocity: 58
Note OFF: Time 287760, Note Name: B3
Note ON: Time 287760, Note Name: G3, Velocity: 58
Note OFF: Time 287880, Note Name: G3
Note ON: Time 287880, Note Name: B3, Velocity: 58
Note OFF: Time 288000, Note Name: B3
Note ON: Time 288000, Note Name: F4, Velocity: 64
Note OFF: Time 288120, Note Name: F4
Note ON: Time 288120, Note Name: B3, Velocity: 39
Note ON: Time 288120, Note Name: D4, Velocity: 50
Note OFF: Time 288240, Note Name: D4
Note OFF: Time 288240, Note Name: B3
Note ON: Time 288240, Note Name: G3, Velocity: 49
Note OFF: Time 288360, Note Name: G3
Note ON: Time 288360, Note Name: D4, Velocity: 49
Note ON: Time 288360, Note Name: B3, Velocity: 39
Note OFF: Time 288480, Note Name: B3
Note OFF: Time 288480, Note Name: D4
Note ON: Time 288480, Note Name: F4, Velocity: 58
Note OFF: Time 288600, Note Name: F4
Note ON: Time 288600, Note Name: D4, Velocity: 47
Note ON: Time 288600, Note Name: B3, Velocity: 38
Note OFF: Time 288720, Note Name: B3
Note OFF: Time 288720, Note Name: D4
Note ON: Time 288720, Note Name: G3, Velocity: 47
Note OFF: Time 288840, Note Name: G3
Note ON: Time 288840, Note Name: D4, Velocity: 47
Note ON: Time 288840, Note Name: B3, Velocity: 37
Note OFF: Time 288960, Note Name: B3
Note OFF: Time 288960, Note Name: D4
Note ON: Time 288960, Note Name: F4, Velocity: 61
Note OFF: Time 289080, Note Name: F4
Note ON: Time 289080, Note Name: B3, Velocity: 37
Note ON: Time 289080, Note Name: D4, Velocity: 47
Note OFF: Time 289200, Note Name: D4
Note OFF: Time 289200, Note Name: B3
Note ON: Time 289200, Note Name: G3, Velocity: 47
Note OFF: Time 289320, Note Name: G3
Note ON: Time 289320, Note Name: D4, Velocity: 46
Note ON: Time 289320, Note Name: B3, Velocity: 35
Note OFF: Time 289440, Note Name: B3
Note OFF: Time 289440, Note Name: D4
Note ON: Time 289440, Note Name: F4, Velocity: 54
Note OFF: Time 289560, Note Name: F4
Note ON: Time 289560, Note Name: D4, Velocity: 44
Note ON: Time 289560, Note Name: B3, Velocity: 35
Note OFF: Time 289680, Note Name: B3
Note OFF: Time 289680, Note Name: D4
Note ON: Time 289680, Note Name: G3, Velocity: 44
Note OFF: Time 289800, Note Name: G3
Note ON: Time 289800, Note Name: D4, Velocity: 43
Note ON: Time 289800, Note Name: B3, Velocity: 34
Note OFF: Time 289920, Note Name: B3
Note OFF: Time 289920, Note Name: D4
Note ON: Time 289920, Note Name: F4, Velocity: 56
Note OFF: Time 290040, Note Name: F4
Note ON: Time 290040, Note Name: B3, Velocity: 33
Note ON: Time 290040, Note Name: D4, Velocity: 42
Note OFF: Time 290160, Note Name: D4
Note OFF: Time 290160, Note Name: B3
Note ON: Time 290160, Note Name: G3, Velocity: 42
Note OFF: Time 290280, Note Name: G3
Note ON: Time 290280, Note Name: D4, Velocity: 42
Note ON: Time 290280, Note Name: B3, Velocity: 32
Note OFF: Time 290400, Note Name: B3
Note OFF: Time 290400, Note Name: D4
Note ON: Time 290400, Note Name: F4, Velocity: 49
Note OFF: Time 290520, Note Name: F4
Note ON: Time 290520, Note Name: D4, Velocity: 39
Note ON: Time 290520, Note Name: B3, Velocity: 32
Note OFF: Time 290640, Note Name: B3
Note OFF: Time 290640, Note Name: D4
Note ON: Time 290640, Note Name: G3, Velocity: 39
Note OFF: Time 290760, Note Name: G3
Note ON: Time 290760, Note Name: D4, Velocity: 39
Note ON: Time 290760, Note Name: B3, Velocity: 31
Note OFF: Time 290880, Note Name: B3
Note OFF: Time 290880, Note Name: D4
Note ON: Time 290880, Note Name: F4, Velocity: 50
Note OFF: Time 291000, Note Name: F4
Note ON: Time 291000, Note Name: B3, Velocity: 30
Note ON: Time 291000, Note Name: D4, Velocity: 39
Note OFF: Time 291120, Note Name: D4
Note OFF: Time 291120, Note Name: B3
Note ON: Time 291120, Note Name: G3, Velocity: 39
Note OFF: Time 291240, Note Name: G3
Note ON: Time 291240, Note Name: D4, Velocity: 38
Note ON: Time 291240, Note Name: B3, Velocity: 29
Note OFF: Time 291360, Note Name: B3
Note OFF: Time 291360, Note Name: D4
Note ON: Time 291360, Note Name: F4, Velocity: 45
Note OFF: Time 291480, Note Name: F4
Note ON: Time 291480, Note Name: D4, Velocity: 36
Note ON: Time 291480, Note Name: B3, Velocity: 29
Note OFF: Time 291600, Note Name: B3
Note OFF: Time 291600, Note Name: D4
Note ON: Time 291600, Note Name: G3, Velocity: 35
Note OFF: Time 291720, Note Name: G3
Note ON: Time 291720, Note Name: D4, Velocity: 35
Note ON: Time 291720, Note Name: B3, Velocity: 28
Note OFF: Time 291840, Note Name: B3
Note OFF: Time 291840, Note Name: D4
Note ON: Time 291840, Note Name: F4, Velocity: 43
Note OFF: Time 291960, Note Name: F4
Note ON: Time 291960, Note Name: B3, Velocity: 26
Note ON: Time 291960, Note Name: D4, Velocity: 33
Note OFF: Time 292080, Note Name: D4
Note OFF: Time 292080, Note Name: B3
Note ON: Time 292080, Note Name: G3, Velocity: 33
Note OFF: Time 292200, Note Name: G3
Note ON: Time 292200, Note Name: D4, Velocity: 31
Note ON: Time 292200, Note Name: B3, Velocity: 24
Note OFF: Time 292320, Note Name: B3
Note OFF: Time 292320, Note Name: D4
Note ON: Time 292320, Note Name: F4, Velocity: 38
Note OFF: Time 292440, Note Name: F4
Note ON: Time 292440, Note Name: D4, Velocity: 31
Note ON: Time 292440, Note Name: B3, Velocity: 24
Note OFF: Time 292560, Note Name: B3
Note OFF: Time 292560, Note Name: D4
Note ON: Time 292560, Note Name: G3, Velocity: 30
Note OFF: Time 292680, Note Name: G3
Note ON: Time 292680, Note Name: D4, Velocity: 30
Note ON: Time 292680, Note Name: B3, Velocity: 23
Note OFF: Time 292800, Note Name: B3
Note OFF: Time 292800, Note Name: D4
Note ON: Time 292800, Note Name: F4, Velocity: 42
Note OFF: Time 292920, Note Name: F4
Note ON: Time 292920, Note Name: B3, Velocity: 25
Note ON: Time 292920, Note Name: D4, Velocity: 31
Note OFF: Time 293040, Note Name: D4
Note OFF: Time 293040, Note Name: B3
Note ON: Time 293040, Note Name: G3, Velocity: 31
Note OFF: Time 293160, Note Name: G3
Note ON: Time 293160, Note Name: D4, Velocity: 30
Note ON: Time 293160, Note Name: B3, Velocity: 24
Note OFF: Time 293280, Note Name: B3
Note OFF: Time 293280, Note Name: D4
Note ON: Time 293280, Note Name: F4, Velocity: 38
Note OFF: Time 293400, Note Name: F4
Note ON: Time 293400, Note Name: D4, Velocity: 30
Note ON: Time 293400, Note Name: B3, Velocity: 23
Note OFF: Time 293520, Note Name: B3
Note OFF: Time 293520, Note Name: D4
Note ON: Time 293520, Note Name: G3, Velocity: 30
Note OFF: Time 293640, Note Name: G3
Note ON: Time 293640, Note Name: D4, Velocity: 30
Note ON: Time 293640, Note Name: B3, Velocity: 22
Note OFF: Time 293760, Note Name: B3
Note OFF: Time 293760, Note Name: D4
Note ON: Time 293760, Note Name: F4, Velocity: 40
Note OFF: Time 293880, Note Name: F4
Note ON: Time 293880, Note Name: B3, Velocity: 24
Note ON: Time 293880, Note Name: D4, Velocity: 30
Note OFF: Time 294000, Note Name: D4
Note OFF: Time 294000, Note Name: B3
Note ON: Time 294000, Note Name: G3, Velocity: 30
Note OFF: Time 294120, Note Name: G3
Note ON: Time 294120, Note Name: D4, Velocity: 30
Note ON: Time 294120, Note Name: B3, Velocity: 23
Note OFF: Time 294240, Note Name: B3
Note OFF: Time 294240, Note Name: D4
Note ON: Time 294240, Note Name: F4, Velocity: 36
Note OFF: Time 294360, Note Name: F4
Note ON: Time 294360, Note Name: D4, Velocity: 30
Note ON: Time 294360, Note Name: B3, Velocity: 23
Note OFF: Time 294480, Note Name: B3
Note OFF: Time 294480, Note Name: D4
Note ON: Time 294480, Note Name: G3, Velocity: 29
Note OFF: Time 294600, Note Name: G3
Note ON: Time 294600, Note Name: D4, Velocity: 29
Note ON: Time 294600, Note Name: B3, Velocity: 21
Note OFF: Time 294720, Note Name: B3
Note OFF: Time 294720, Note Name: D4
Note ON: Time 294720, Note Name: F4, Velocity: 40
Note OFF: Time 294840, Note Name: F4
Note ON: Time 294840, Note Name: B3, Velocity: 23
Note ON: Time 294840, Note Name: D4, Velocity: 31
Note OFF: Time 294960, Note Name: D4
Note OFF: Time 294960, Note Name: B3
Note ON: Time 294960, Note Name: G3, Velocity: 30
Note OFF: Time 295080, Note Name: G3
Note ON: Time 295080, Note Name: D4, Velocity: 29
Note ON: Time 295080, Note Name: B3, Velocity: 23
Note OFF: Time 295200, Note Name: B3
Note OFF: Time 295200, Note Name: D4
Note ON: Time 295200, Note Name: F4, Velocity: 35
Note OFF: Time 295320, Note Name: F4
Note ON: Time 295320, Note Name: D4, Velocity: 29
Note ON: Time 295320, Note Name: B3, Velocity: 23
Note OFF: Time 295440, Note Name: B3
Note OFF: Time 295440, Note Name: D4
Note ON: Time 295440, Note Name: G3, Velocity: 28
Note OFF: Time 295560, Note Name: G3
Note ON: Time 295560, Note Name: D4, Velocity: 28
Note ON: Time 295560, Note Name: B3, Velocity: 22
Note OFF: Time 295680, Note Name: B3
Note OFF: Time 295680, Note Name: D4
Note ON: Time 295680, Note Name: F4, Velocity: 39
Note OFF: Time 295800, Note Name: F4
Note ON: Time 295800, Note Name: B3, Velocity: 23
Note ON: Time 295800, Note Name: D4, Velocity: 30
Note OFF: Time 295920, Note Name: D4
Note OFF: Time 295920, Note Name: B3
Note ON: Time 295920, Note Name: G3, Velocity: 30
Note OFF: Time 296040, Note Name: G3
Note ON: Time 296040, Note Name: D4, Velocity: 29
Note ON: Time 296040, Note Name: B3, Velocity: 23
Note OFF: Time 296160, Note Name: B3
Note OFF: Time 296160, Note Name: D4
Note ON: Time 296160, Note Name: F4, Velocity: 36
Note OFF: Time 296280, Note Name: F4
Note ON: Time 296280, Note Name: D4, Velocity: 29
Note ON: Time 296280, Note Name: B3, Velocity: 23
Note OFF: Time 296400, Note Name: B3
Note OFF: Time 296400, Note Name: D4
Note ON: Time 296400, Note Name: G3, Velocity: 28
Note OFF: Time 296520, Note Name: G3
Note ON: Time 296520, Note Name: D4, Velocity: 28
Note ON: Time 296520, Note Name: B3, Velocity: 22
Note OFF: Time 296640, Note Name: B3
Note OFF: Time 296640, Note Name: D4
Note ON: Time 296640, Note Name: F4, Velocity: 39
Note OFF: Time 296760, Note Name: F4
Note ON: Time 296760, Note Name: B3, Velocity: 24
Note ON: Time 296760, Note Name: D4, Velocity: 30
Note OFF: Time 296880, Note Name: D4
Note OFF: Time 296880, Note Name: B3
Note ON: Time 296880, Note Name: G3, Velocity: 30
Note OFF: Time 297000, Note Name: G3
Note ON: Time 297000, Note Name: D4, Velocity: 29
Note ON: Time 297000, Note Name: B3, Velocity: 23
Note OFF: Time 297120, Note Name: B3
Note OFF: Time 297120, Note Name: D4
Note ON: Time 297120, Note Name: F4, Velocity: 36
Note OFF: Time 297240, Note Name: F4
Note ON: Time 297240, Note Name: D4, Velocity: 29
Note ON: Time 297240, Note Name: B3, Velocity: 23
Note OFF: Time 297360, Note Name: B3
Note OFF: Time 297360, Note Name: D4
Note ON: Time 297360, Note Name: G3, Velocity: 28
Note OFF: Time 297480, Note Name: G3
Note ON: Time 297480, Note Name: D4, Velocity: 28
Note ON: Time 297480, Note Name: B3, Velocity: 22
Note OFF: Time 297600, Note Name: B3
Note OFF: Time 297600, Note Name: D4
Note ON: Time 297600, Note Name: F4, Velocity: 40
Note OFF: Time 297720, Note Name: F4
Note ON: Time 297720, Note Name: B3, Velocity: 24
Note ON: Time 297720, Note Name: D4, Velocity: 31
Note OFF: Time 297840, Note Name: D4
Note OFF: Time 297840, Note Name: B3
Note ON: Time 297840, Note Name: G3, Velocity: 31
Note OFF: Time 297960, Note Name: G3
Note ON: Time 297960, Note Name: D4, Velocity: 30
Note ON: Time 297960, Note Name: B3, Velocity: 23
Note OFF: Time 298080, Note Name: B3
Note OFF: Time 298080, Note Name: D4
Note ON: Time 298080, Note Name: F4, Velocity: 36
Note OFF: Time 298200, Note Name: F4
Note ON: Time 298200, Note Name: D4, Velocity: 30
Note ON: Time 298200, Note Name: B3, Velocity: 23
Note OFF: Time 298320, Note Name: B3
Note OFF: Time 298320, Note Name: D4
Note ON: Time 298320, Note Name: G3, Velocity: 29
Note OFF: Time 298440, Note Name: G3
Note ON: Time 298440, Note Name: D4, Velocity: 29
Note ON: Time 298440, Note Name: B3, Velocity: 22
Note OFF: Time 298560, Note Name: B3
Note OFF: Time 298560, Note Name: D4
Note ON: Time 298560, Note Name: F4, Velocity: 40
Note OFF: Time 298680, Note Name: F4
Note ON: Time 298680, Note Name: B3, Velocity: 24
Note ON: Time 298680, Note Name: D4, Velocity: 31
Note OFF: Time 298800, Note Name: D4
Note OFF: Time 298800, Note Name: B3
Note ON: Time 298800, Note Name: G3, Velocity: 31
Note OFF: Time 298920, Note Name: G3
Note ON: Time 298920, Note Name: D4, Velocity: 30
Note ON: Time 298920, Note Name: B3, Velocity: 23
Note OFF: Time 299040, Note Name: B3
Note OFF: Time 299040, Note Name: D4
Note ON: Time 299040, Note Name: B3, Velocity: 68
Note ON: Time 299040, Note Name: B4, Velocity: 80
Note OFF: Time 299160, Note Name: B4
Note OFF: Time 299160, Note Name: B3
Note ON: Time 299160, Note Name: D4, Velocity: 68
Note ON: Time 299160, Note Name: B3, Velocity: 57
Note OFF: Time 299280, Note Name: B3
Note OFF: Time 299280, Note Name: D4
Note ON: Time 299280, Note Name: B3, Velocity: 57
Note ON: Time 299280, Note Name: B4, Velocity: 69
Note OFF: Time 299400, Note Name: B4
Note OFF: Time 299400, Note Name: B3
Note ON: Time 299400, Note Name: D4, Velocity: 69
Note ON: Time 299400, Note Name: B3, Velocity: 57
Note OFF: Time 299520, Note Name: B3
Note OFF: Time 299520, Note Name: D4
Note ON: Time 299520, Note Name: C4, Velocity: 87
Note ON: Time 299520, Note Name: E4, Velocity: 91
Note ON: Time 299520, Note Name: C5, Velocity: 104
Note OFF: Time 299640, Note Name: C5
Note OFF: Time 299640, Note Name: E4
Note OFF: Time 299640, Note Name: C4
Note ON: Time 300000, Note Name: G6, Velocity: 94
Note ON: Time 300000, Note Name: G5, Velocity: 77
Note OFF: Time 300240, Note Name: G5
Note OFF: Time 300240, Note Name: G6
Note ON: Time 300480, Note Name: G6, Velocity: 100
Note ON: Time 300480, Note Name: G5, Velocity: 84
Note OFF: Time 301200, Note Name: G5
Note OFF: Time 301200, Note Name: G6
Note ON: Time 301200, Note Name: E6, Velocity: 87
Note ON: Time 301200, Note Name: E5, Velocity: 73
Note OFF: Time 301440, Note Name: E5
Note OFF: Time 301440, Note Name: E6
Note ON: Time 301440, Note Name: D6, Velocity: 94
Note ON: Time 301440, Note Name: D5, Velocity: 77
Note OFF: Time 301920, Note Name: D5
Note OFF: Time 301920, Note Name: D6
Note ON: Time 301920, Note Name: G5, Velocity: 76
Note ON: Time 301920, Note Name: G4, Velocity: 63
Note OFF: Time 302400, Note Name: G4
Note OFF: Time 302400, Note Name: G5
Note ON: Time 302400, Note Name: C6, Velocity: 88
Note ON: Time 302400, Note Name: C5, Velocity: 75
Note OFF: Time 302880, Note Name: C5
Note OFF: Time 302880, Note Name: C6
Note ON: Time 302880, Note Name: E6, Velocity: 87
Note ON: Time 302880, Note Name: E5, Velocity: 73
Note OFF: Time 303120, Note Name: E5
Note OFF: Time 303120, Note Name: E6
Note ON: Time 303840, Note Name: G6, Velocity: 94
Note ON: Time 303840, Note Name: G5, Velocity: 77
Note OFF: Time 304080, Note Name: G5
Note OFF: Time 304080, Note Name: G6
Note ON: Time 304320, Note Name: G6, Velocity: 100
Note ON: Time 304320, Note Name: G5, Velocity: 84
Note OFF: Time 305040, Note Name: G5
Note OFF: Time 305040, Note Name: G6
Note ON: Time 305040, Note Name: E6, Velocity: 87
Note ON: Time 305040, Note Name: E5, Velocity: 73
Note OFF: Time 305280, Note Name: E5
Note OFF: Time 305280, Note Name: E6
Note ON: Time 305280, Note Name: D6, Velocity: 94
Note ON: Time 305280, Note Name: D5, Velocity: 77
Note OFF: Time 305760, Note Name: D5
Note OFF: Time 305760, Note Name: D6
Note ON: Time 305760, Note Name: G5, Velocity: 76
Note ON: Time 305760, Note Name: G4, Velocity: 63
Note OFF: Time 306240, Note Name: G4
Note OFF: Time 306240, Note Name: G5
Note ON: Time 306240, Note Name: C6, Velocity: 83
Note ON: Time 306240, Note Name: C5, Velocity: 69
Note OFF: Time 306480, Note Name: C5
Note OFF: Time 306480, Note Name: C6
Note ON: Time 307680, Note Name: F6, Velocity: 82
Note ON: Time 307680, Note Name: F5, Velocity: 69
Note OFF: Time 307920, Note Name: F5
Note OFF: Time 307920, Note Name: F6
Note ON: Time 308160, Note Name: F6, Velocity: 86
Note ON: Time 308160, Note Name: F5, Velocity: 73
Note OFF: Time 308880, Note Name: F5
Note OFF: Time 308880, Note Name: F6
Note ON: Time 308880, Note Name: D6, Velocity: 55
Note ON: Time 308880, Note Name: D5, Velocity: 45
Note OFF: Time 309120, Note Name: D5
Note OFF: Time 309120, Note Name: D6
Note ON: Time 309120, Note Name: E6, Velocity: 52
Note ON: Time 309120, Note Name: E5, Velocity: 44
Note OFF: Time 309600, Note Name: E5
Note OFF: Time 309600, Note Name: E6
Note ON: Time 309600, Note Name: C6, Velocity: 42
Note ON: Time 309600, Note Name: C5, Velocity: 35
Note OFF: Time 310080, Note Name: C5
Note OFF: Time 310080, Note Name: C6
Note ON: Time 310080, Note Name: B5, Velocity: 52
Note ON: Time 310080, Note Name: B4, Velocity: 44
Note OFF: Time 310560, Note Name: B4
Note OFF: Time 310560, Note Name: B5
Note ON: Time 310560, Note Name: D6, Velocity: 49
Note ON: Time 310560, Note Name: D5, Velocity: 41
Note OFF: Time 310800, Note Name: D5
Note OFF: Time 310800, Note Name: D6
Note ON: Time 311520, Note Name: F6, Velocity: 78
Note ON: Time 311520, Note Name: F5, Velocity: 66
Note OFF: Time 311760, Note Name: F5
Note OFF: Time 311760, Note Name: F6
Note ON: Time 312000, Note Name: F6, Velocity: 85
Note ON: Time 312000, Note Name: F5, Velocity: 71
Note OFF: Time 312720, Note Name: F5
Note OFF: Time 312720, Note Name: F6
Note ON: Time 312720, Note Name: D6, Velocity: 62
Note ON: Time 312720, Note Name: D5, Velocity: 51
Note OFF: Time 312960, Note Name: D5
Note OFF: Time 312960, Note Name: D6
Note ON: Time 312960, Note Name: D#6, Velocity: 50
Note ON: Time 312960, Note Name: D#5, Velocity: 42
Note OFF: Time 313440, Note Name: D#5
Note OFF: Time 313440, Note Name: D#6
Note ON: Time 313440, Note Name: C6, Velocity: 39
Note ON: Time 313440, Note Name: C5, Velocity: 33
Note OFF: Time 313920, Note Name: C5
Note OFF: Time 313920, Note Name: C6
Note ON: Time 313920, Note Name: B5, Velocity: 50
Note ON: Time 313920, Note Name: B4, Velocity: 42
Note OFF: Time 314400, Note Name: B4
Note OFF: Time 314400, Note Name: B5
Note ON: Time 314400, Note Name: D6, Velocity: 45
Note ON: Time 314400, Note Name: D5, Velocity: 38
Note OFF: Time 314880, Note Name: D5
Note OFF: Time 314880, Note Name: D6
Note ON: Time 314880, Note Name: E6, Velocity: 60
Note ON: Time 314880, Note Name: E5, Velocity: 50
Note OFF: Time 315360, Note Name: E5
Note OFF: Time 315360, Note Name: E6
Note ON: Time 315360, Note Name: C6, Velocity: 50
Note ON: Time 315360, Note Name: C5, Velocity: 42
Note OFF: Time 315840, Note Name: C5
Note OFF: Time 315840, Note Name: C6
Note ON: Time 315840, Note Name: B5, Velocity: 63
Note ON: Time 315840, Note Name: B4, Velocity: 54
Note OFF: Time 316320, Note Name: B4
Note OFF: Time 316320, Note Name: B5
Note ON: Time 316320, Note Name: D6, Velocity: 62
Note ON: Time 316320, Note Name: D5, Velocity: 52
Note OFF: Time 316800, Note Name: D5
Note OFF: Time 316800, Note Name: D6
Note ON: Time 316800, Note Name: D#6, Velocity: 60
Note ON: Time 316800, Note Name: D#5, Velocity: 60
Note OFF: Time 317280, Note Name: D#5
Note OFF: Time 317280, Note Name: D#6
Note ON: Time 317280, Note Name: C6, Velocity: 49
Note ON: Time 317280, Note Name: C5, Velocity: 40
Note OFF: Time 317760, Note Name: C5
Note OFF: Time 317760, Note Name: C6
Note ON: Time 317760, Note Name: G5, Velocity: 50
Note OFF: Time 318240, Note Name: G5
Note ON: Time 318240, Note Name: G5, Velocity: 47
Note OFF: Time 318720, Note Name: G5
Note ON: Time 318720, Note Name: A5, Velocity: 37
Note OFF: Time 318800, Note Name: A5
Note ON: Time 318800, Note Name: G5, Velocity: 37
Note OFF: Time 318880, Note Name: G5
Note ON: Time 318880, Note Name: A5, Velocity: 37
Note OFF: Time 318960, Note Name: A5
Note ON: Time 318960, Note Name: G5, Velocity: 37
Note OFF: Time 319040, Note Name: G5
Note ON: Time 319040, Note Name: A5, Velocity: 38
Note OFF: Time 319120, Note Name: A5
Note ON: Time 319120, Note Name: G5, Velocity: 38
Note OFF: Time 319200, Note Name: G5
Note ON: Time 319200, Note Name: A5, Velocity: 39
Note OFF: Time 319280, Note Name: A5
Note ON: Time 319280, Note Name: G5, Velocity: 39
Note OFF: Time 319360, Note Name: G5
Note ON: Time 319360, Note Name: A5, Velocity: 39
Note OFF: Time 319440, Note Name: A5
Note ON: Time 319440, Note Name: G5, Velocity: 39
Note OFF: Time 319520, Note Name: G5
Note ON: Time 319520, Note Name: A5, Velocity: 40
Note OFF: Time 319600, Note Name: A5
Note ON: Time 319600, Note Name: G5, Velocity: 40
Note OFF: Time 319680, Note Name: G5
Note ON: Time 319680, Note Name: A5, Velocity: 41
Note OFF: Time 319760, Note Name: A5
Note ON: Time 319760, Note Name: G5, Velocity: 41
Note OFF: Time 319840, Note Name: G5
Note ON: Time 319840, Note Name: A5, Velocity: 41
Note OFF: Time 319920, Note Name: A5
Note ON: Time 319920, Note Name: G5, Velocity: 43
Note OFF: Time 320000, Note Name: G5
Note ON: Time 320000, Note Name: A5, Velocity: 43
Note OFF: Time 320080, Note Name: A5
Note ON: Time 320080, Note Name: G5, Velocity: 43
Note OFF: Time 320160, Note Name: G5
Note ON: Time 320160, Note Name: A5, Velocity: 44
Note OFF: Time 320240, Note Name: A5
Note ON: Time 320240, Note Name: G5, Velocity: 44
Note OFF: Time 320320, Note Name: G5
Note ON: Time 320320, Note Name: A5, Velocity: 45
Note OFF: Time 320400, Note Name: A5
Note ON: Time 320400, Note Name: G5, Velocity: 45
Note OFF: Time 320480, Note Name: G5
Note ON: Time 320480, Note Name: A5, Velocity: 45
Note OFF: Time 320560, Note Name: A5
Note ON: Time 320560, Note Name: G5, Velocity: 45
Note OFF: Time 320640, Note Name: G5
Note ON: Time 320640, Note Name: A5, Velocity: 47
Note OFF: Time 320720, Note Name: A5
Note ON: Time 320720, Note Name: G5, Velocity: 47
Note OFF: Time 320800, Note Name: G5
Note ON: Time 320800, Note Name: A5, Velocity: 47
Note OFF: Time 320880, Note Name: A5
Note ON: Time 320880, Note Name: G5, Velocity: 47
Note OFF: Time 320960, Note Name: G5
Note ON: Time 320960, Note Name: A5, Velocity: 47
Note OFF: Time 321040, Note Name: A5
Note ON: Time 321040, Note Name: G5, Velocity: 48
Note OFF: Time 321120, Note Name: G5
Note ON: Time 321120, Note Name: A5, Velocity: 48
Note OFF: Time 321200, Note Name: A5
Note ON: Time 321200, Note Name: G5, Velocity: 48
Note OFF: Time 321280, Note Name: G5
Note ON: Time 321280, Note Name: A5, Velocity: 49
Note OFF: Time 321360, Note Name: A5
Note ON: Time 321360, Note Name: G5, Velocity: 49
Note OFF: Time 321440, Note Name: G5
Note ON: Time 321440, Note Name: A5, Velocity: 50
Note OFF: Time 321520, Note Name: A5
Note ON: Time 321520, Note Name: G5, Velocity: 51
Note OFF: Time 321600, Note Name: G5
Note ON: Time 321600, Note Name: A5, Velocity: 51
Note OFF: Time 321680, Note Name: A5
Note ON: Time 321680, Note Name: G5, Velocity: 52
Note OFF: Time 321760, Note Name: G5
Note ON: Time 321760, Note Name: A5, Velocity: 52
Note OFF: Time 321840, Note Name: A5
Note ON: Time 321840, Note Name: G5, Velocity: 52
Note OFF: Time 321920, Note Name: G5
Note ON: Time 321920, Note Name: A5, Velocity: 54
Note OFF: Time 322000, Note Name: A5
Note ON: Time 322000, Note Name: G5, Velocity: 54
Note OFF: Time 322080, Note Name: G5
Note ON: Time 322080, Note Name: A5, Velocity: 54
Note OFF: Time 322160, Note Name: A5
Note ON: Time 322160, Note Name: G5, Velocity: 55
Note OFF: Time 322240, Note Name: G5
Note ON: Time 322240, Note Name: A5, Velocity: 55
Note OFF: Time 322320, Note Name: A5
Note ON: Time 322320, Note Name: G5, Velocity: 55
Note OFF: Time 322400, Note Name: G5
Note ON: Time 322400, Note Name: A5, Velocity: 56
Note OFF: Time 322480, Note Name: A5
Note ON: Time 322480, Note Name: G5, Velocity: 56
Note OFF: Time 322560, Note Name: G5
Note ON: Time 323040, Note Name: G6, Velocity: 89
Note OFF: Time 323280, Note Name: G6
Note ON: Time 323520, Note Name: G6, Velocity: 90
Note OFF: Time 324240, Note Name: G6
Note ON: Time 324240, Note Name: E6, Velocity: 85
Note OFF: Time 324480, Note Name: E6
Note ON: Time 324480, Note Name: D6, Velocity: 90
Note OFF: Time 324960, Note Name: D6
Note ON: Time 324960, Note Name: G5, Velocity: 84
Note OFF: Time 325440, Note Name: G5
Note ON: Time 325440, Note Name: C6, Velocity: 87
Note OFF: Time 325920, Note Name: C6
Note ON: Time 325920, Note Name: E6, Velocity: 84
Note OFF: Time 326160, Note Name: E6
Note ON: Time 326880, Note Name: G6, Velocity: 90
Note OFF: Time 327120, Note Name: G6
Note ON: Time 327360, Note Name: G6, Velocity: 92
Note OFF: Time 328080, Note Name: G6
Note ON: Time 328080, Note Name: E6, Velocity: 84
Note OFF: Time 328320, Note Name: E6
Note ON: Time 328320, Note Name: D6, Velocity: 90
Note OFF: Time 328800, Note Name: D6
Note ON: Time 328800, Note Name: G5, Velocity: 82
Note OFF: Time 329280, Note Name: G5
Note ON: Time 329280, Note Name: C6, Velocity: 86
Note OFF: Time 329520, Note Name: C6
Note ON: Time 329760, Note Name: C4, Velocity: 68
Note OFF: Time 329840, Note Name: C4
Note ON: Time 329840, Note Name: E4, Velocity: 62
Note OFF: Time 329920, Note Name: E4
Note ON: Time 329920, Note Name: C4, Velocity: 62
Note OFF: Time 330000, Note Name: C4
Note ON: Time 330000, Note Name: G3, Velocity: 62
Note OFF: Time 330080, Note Name: G3
Note ON: Time 330080, Note Name: E3, Velocity: 62
Note OFF: Time 330160, Note Name: E3
Note ON: Time 330160, Note Name: G3, Velocity: 62
Note OFF: Time 330240, Note Name: G3
Note ON: Time 330240, Note Name: C4, Velocity: 68
Note OFF: Time 330320, Note Name: C4
Note ON: Time 330320, Note Name: F4, Velocity: 62
Note OFF: Time 330400, Note Name: F4
Note ON: Time 330400, Note Name: C4, Velocity: 62
Note OFF: Time 330480, Note Name: C4
Note ON: Time 330480, Note Name: A3, Velocity: 62
Note OFF: Time 330560, Note Name: A3
Note ON: Time 330560, Note Name: F3, Velocity: 62
Note OFF: Time 330640, Note Name: F3
Note ON: Time 330640, Note Name: A3, Velocity: 62
Note OFF: Time 330720, Note Name: A3
Note ON: Time 330720, Note Name: C4, Velocity: 68
Note OFF: Time 330800, Note Name: C4
Note ON: Time 330800, Note Name: E4, Velocity: 61
Note OFF: Time 330880, Note Name: E4
Note ON: Time 330880, Note Name: C4, Velocity: 61
Note OFF: Time 330960, Note Name: C4
Note ON: Time 330960, Note Name: G3, Velocity: 61
Note OFF: Time 331040, Note Name: G3
Note ON: Time 331040, Note Name: E3, Velocity: 61
Note OFF: Time 331120, Note Name: E3
Note ON: Time 331120, Note Name: G3, Velocity: 61
Note OFF: Time 331200, Note Name: G3
Note ON: Time 331200, Note Name: C4, Velocity: 63
Note OFF: Time 331280, Note Name: C4
Note ON: Time 331280, Note Name: D4, Velocity: 59
Note OFF: Time 331360, Note Name: D4
Note ON: Time 331360, Note Name: C4, Velocity: 59
Note OFF: Time 331440, Note Name: C4
Note ON: Time 331440, Note Name: F3, Velocity: 59
Note OFF: Time 331520, Note Name: F3
Note ON: Time 331520, Note Name: D3, Velocity: 59
Note OFF: Time 331600, Note Name: D3
Note ON: Time 331600, Note Name: F3, Velocity: 59
Note OFF: Time 331680, Note Name: F3
Note ON: Time 331680, Note Name: C4, Velocity: 68
Note OFF: Time 331760, Note Name: C4
Note ON: Time 331760, Note Name: D#4, Velocity: 61
Note OFF: Time 331840, Note Name: D#4
Note ON: Time 331840, Note Name: C4, Velocity: 61
Note OFF: Time 331920, Note Name: C4
Note ON: Time 331920, Note Name: F#3, Velocity: 61
Note OFF: Time 332000, Note Name: F#3
Note ON: Time 332000, Note Name: D#3, Velocity: 61
Note OFF: Time 332080, Note Name: D#3
Note ON: Time 332080, Note Name: F#3, Velocity: 61
Note OFF: Time 332160, Note Name: F#3
Note ON: Time 332160, Note Name: C4, Velocity: 68
Note OFF: Time 332240, Note Name: C4
Note ON: Time 332240, Note Name: E4, Velocity: 62
Note OFF: Time 332320, Note Name: E4
Note ON: Time 332320, Note Name: C4, Velocity: 62
Note OFF: Time 332400, Note Name: C4
Note ON: Time 332400, Note Name: G3, Velocity: 62
Note OFF: Time 332480, Note Name: G3
Note ON: Time 332480, Note Name: E3, Velocity: 62
Note OFF: Time 332560, Note Name: E3
Note ON: Time 332560, Note Name: G3, Velocity: 62
Note OFF: Time 332640, Note Name: G3
Note ON: Time 332640, Note Name: B3, Velocity: 68
Note OFF: Time 332720, Note Name: B3
Note ON: Time 332720, Note Name: D4, Velocity: 61
Note OFF: Time 332800, Note Name: D4
Note ON: Time 332800, Note Name: B3, Velocity: 61
Note OFF: Time 332880, Note Name: B3
Note ON: Time 332880, Note Name: F3, Velocity: 61
Note OFF: Time 332960, Note Name: F3
Note ON: Time 332960, Note Name: D3, Velocity: 61
Note OFF: Time 333040, Note Name: D3
Note ON: Time 333040, Note Name: F3, Velocity: 61
Note OFF: Time 333120, Note Name: F3
Note ON: Time 333120, Note Name: G3, Velocity: 68
Note OFF: Time 333200, Note Name: G3
Note ON: Time 333200, Note Name: C4, Velocity: 62
Note OFF: Time 333280, Note Name: C4
Note ON: Time 333280, Note Name: G3, Velocity: 62
Note OFF: Time 333360, Note Name: G3
Note ON: Time 333360, Note Name: E3, Velocity: 62
Note OFF: Time 333440, Note Name: E3
Note ON: Time 333440, Note Name: C3, Velocity: 62
Note OFF: Time 333520, Note Name: C3
Note ON: Time 333520, Note Name: E3, Velocity: 62
Note OFF: Time 333600, Note Name: E3
Note ON: Time 333600, Note Name: E4, Velocity: 68
Note OFF: Time 333680, Note Name: E4
Note ON: Time 333680, Note Name: G4, Velocity: 62
Note OFF: Time 333760, Note Name: G4
Note ON: Time 333760, Note Name: E4, Velocity: 62
Note OFF: Time 333840, Note Name: E4
Note ON: Time 333840, Note Name: C4, Velocity: 62
Note OFF: Time 333920, Note Name: C4
Note ON: Time 333920, Note Name: G3, Velocity: 62
Note OFF: Time 334000, Note Name: G3
Note ON: Time 334000, Note Name: C4, Velocity: 62
Note OFF: Time 334080, Note Name: C4
Note ON: Time 334080, Note Name: F4, Velocity: 68
Note OFF: Time 334160, Note Name: F4
Note ON: Time 334160, Note Name: A4, Velocity: 62
Note OFF: Time 334240, Note Name: A4
Note ON: Time 334240, Note Name: F4, Velocity: 62
Note OFF: Time 334320, Note Name: F4
Note ON: Time 334320, Note Name: C4, Velocity: 62
Note OFF: Time 334400, Note Name: C4
Note ON: Time 334400, Note Name: A3, Velocity: 62
Note OFF: Time 334480, Note Name: A3
Note ON: Time 334480, Note Name: C4, Velocity: 62
Note OFF: Time 334560, Note Name: C4
Note ON: Time 334560, Note Name: E4, Velocity: 68
Note OFF: Time 334640, Note Name: E4
Note ON: Time 334640, Note Name: G4, Velocity: 61
Note OFF: Time 334720, Note Name: G4
Note ON: Time 334720, Note Name: E4, Velocity: 61
Note OFF: Time 334800, Note Name: E4
Note ON: Time 334800, Note Name: C4, Velocity: 61
Note OFF: Time 334880, Note Name: C4
Note ON: Time 334880, Note Name: G3, Velocity: 61
Note OFF: Time 334960, Note Name: G3
Note ON: Time 334960, Note Name: C4, Velocity: 61
Note OFF: Time 335040, Note Name: C4
Note ON: Time 335040, Note Name: D4, Velocity: 63
Note OFF: Time 335120, Note Name: D4
Note ON: Time 335120, Note Name: F4, Velocity: 59
Note OFF: Time 335200, Note Name: F4
Note ON: Time 335200, Note Name: D4, Velocity: 59
Note OFF: Time 335280, Note Name: D4
Note ON: Time 335280, Note Name: C4, Velocity: 59
Note OFF: Time 335360, Note Name: C4
Note ON: Time 335360, Note Name: F3, Velocity: 59
Note OFF: Time 335440, Note Name: F3
Note ON: Time 335440, Note Name: C4, Velocity: 59
Note OFF: Time 335520, Note Name: C4
Note ON: Time 335520, Note Name: D#4, Velocity: 68
Note OFF: Time 335600, Note Name: D#4
Note ON: Time 335600, Note Name: F#4, Velocity: 61
Note OFF: Time 335680, Note Name: F#4
Note ON: Time 335680, Note Name: D#4, Velocity: 61
Note OFF: Time 335760, Note Name: D#4
Note ON: Time 335760, Note Name: C4, Velocity: 61
Note OFF: Time 335840, Note Name: C4
Note ON: Time 335840, Note Name: F#3, Velocity: 61
Note OFF: Time 335920, Note Name: F#3
Note ON: Time 335920, Note Name: C4, Velocity: 61
Note OFF: Time 336000, Note Name: C4
Note ON: Time 336000, Note Name: E4, Velocity: 68
Note OFF: Time 336080, Note Name: E4
Note ON: Time 336080, Note Name: G4, Velocity: 62
Note OFF: Time 336160, Note Name: G4
Note ON: Time 336160, Note Name: E4, Velocity: 62
Note OFF: Time 336240, Note Name: E4
Note ON: Time 336240, Note Name: C4, Velocity: 62
Note OFF: Time 336320, Note Name: C4
Note ON: Time 336320, Note Name: G3, Velocity: 62
Note OFF: Time 336400, Note Name: G3
Note ON: Time 336400, Note Name: C4, Velocity: 62
Note OFF: Time 336480, Note Name: C4
Note ON: Time 336480, Note Name: D4, Velocity: 68
Note OFF: Time 336560, Note Name: D4
Note ON: Time 336560, Note Name: F4, Velocity: 61
Note OFF: Time 336640, Note Name: F4
Note ON: Time 336640, Note Name: D4, Velocity: 61
Note OFF: Time 336720, Note Name: D4
Note ON: Time 336720, Note Name: B3, Velocity: 61
Note OFF: Time 336800, Note Name: B3
Note ON: Time 336800, Note Name: F3, Velocity: 61
Note OFF: Time 336880, Note Name: F3
Note ON: Time 336880, Note Name: B3, Velocity: 61
Note OFF: Time 336960, Note Name: B3
Note ON: Time 336960, Note Name: C4, Velocity: 68
Note OFF: Time 337040, Note Name: C4
Note ON: Time 337040, Note Name: E4, Velocity: 62
Note OFF: Time 337120, Note Name: E4
Note ON: Time 337120, Note Name: C4, Velocity: 62
Note OFF: Time 337200, Note Name: C4
Note ON: Time 337200, Note Name: G3, Velocity: 62
Note OFF: Time 337280, Note Name: G3
Note ON: Time 337280, Note Name: E3, Velocity: 62
Note OFF: Time 337360, Note Name: E3
Note ON: Time 337360, Note Name: G3, Velocity: 62
Note OFF: Time 337440, Note Name: G3
Note ON: Time 337440, Note Name: G4, Velocity: 68
Note OFF: Time 337520, Note Name: G4
Note ON: Time 337520, Note Name: C5, Velocity: 59
Note OFF: Time 337600, Note Name: C5
Note ON: Time 337600, Note Name: G4, Velocity: 59
Note OFF: Time 337680, Note Name: G4
Note ON: Time 337680, Note Name: E4, Velocity: 67
Note OFF: Time 337760, Note Name: E4
Note ON: Time 337760, Note Name: C4, Velocity: 58
Note OFF: Time 337840, Note Name: C4
Note ON: Time 337840, Note Name: E4, Velocity: 58
Note OFF: Time 337920, Note Name: E4
Note ON: Time 337920, Note Name: A4, Velocity: 71
Note OFF: Time 338000, Note Name: A4
Note ON: Time 338000, Note Name: C5, Velocity: 61
Note OFF: Time 338080, Note Name: C5
Note ON: Time 338080, Note Name: A4, Velocity: 61
Note OFF: Time 338160, Note Name: A4
Note ON: Time 338160, Note Name: F4, Velocity: 67
Note OFF: Time 338240, Note Name: F4
Note ON: Time 338240, Note Name: C4, Velocity: 60
Note OFF: Time 338320, Note Name: C4
Note ON: Time 338320, Note Name: F4, Velocity: 60
Note OFF: Time 338400, Note Name: F4
Note ON: Time 338400, Note Name: G4, Velocity: 68
Note OFF: Time 338480, Note Name: G4
Note ON: Time 338480, Note Name: C5, Velocity: 59
Note OFF: Time 338560, Note Name: C5
Note ON: Time 338560, Note Name: G4, Velocity: 60
Note OFF: Time 338640, Note Name: G4
Note ON: Time 338640, Note Name: E4, Velocity: 67
Note OFF: Time 338720, Note Name: E4
Note ON: Time 338720, Note Name: C4, Velocity: 58
Note OFF: Time 338800, Note Name: C4
Note ON: Time 338800, Note Name: E4, Velocity: 58
Note OFF: Time 338880, Note Name: E4
Note ON: Time 338880, Note Name: F4, Velocity: 70
Note OFF: Time 338960, Note Name: F4
Note ON: Time 338960, Note Name: C5, Velocity: 59
Note OFF: Time 339040, Note Name: C5
Note ON: Time 339040, Note Name: F4, Velocity: 59
Note OFF: Time 339120, Note Name: F4
Note ON: Time 339120, Note Name: D4, Velocity: 67
Note OFF: Time 339200, Note Name: D4
Note ON: Time 339200, Note Name: C4, Velocity: 60
Note OFF: Time 339280, Note Name: C4
Note ON: Time 339280, Note Name: D4, Velocity: 59
Note OFF: Time 339360, Note Name: D4
Note ON: Time 339360, Note Name: F#4, Velocity: 66
Note OFF: Time 339440, Note Name: F#4
Note ON: Time 339440, Note Name: C5, Velocity: 57
Note OFF: Time 339520, Note Name: C5
Note ON: Time 339520, Note Name: F#4, Velocity: 60
Note OFF: Time 339600, Note Name: F#4
Note ON: Time 339600, Note Name: D#4, Velocity: 70
Note OFF: Time 339680, Note Name: D#4
Note ON: Time 339680, Note Name: C4, Velocity: 58
Note OFF: Time 339760, Note Name: C4
Note ON: Time 339760, Note Name: D#4, Velocity: 58
Note OFF: Time 339840, Note Name: D#4
Note ON: Time 339840, Note Name: G4, Velocity: 71
Note OFF: Time 339920, Note Name: G4
Note ON: Time 339920, Note Name: C5, Velocity: 61
Note OFF: Time 340000, Note Name: C5
Note ON: Time 340000, Note Name: G4, Velocity: 61
Note OFF: Time 340080, Note Name: G4
Note ON: Time 340080, Note Name: E4, Velocity: 67
Note OFF: Time 340160, Note Name: E4
Note ON: Time 340160, Note Name: C4, Velocity: 60
Note OFF: Time 340240, Note Name: C4
Note ON: Time 340240, Note Name: E4, Velocity: 60
Note OFF: Time 340320, Note Name: E4
Note ON: Time 340320, Note Name: F4, Velocity: 68
Note OFF: Time 340400, Note Name: F4
Note ON: Time 340400, Note Name: C5, Velocity: 56
Note OFF: Time 340480, Note Name: C5
Note ON: Time 340480, Note Name: F4, Velocity: 57
Note OFF: Time 340560, Note Name: F4
Note ON: Time 340560, Note Name: D4, Velocity: 62
Note OFF: Time 340640, Note Name: D4
Note ON: Time 340640, Note Name: B3, Velocity: 58
Note OFF: Time 340720, Note Name: B3
Note ON: Time 340720, Note Name: D4, Velocity: 58
Note OFF: Time 340800, Note Name: D4
Note ON: Time 340800, Note Name: G4, Velocity: 63
Note OFF: Time 340880, Note Name: G4
Note ON: Time 340880, Note Name: C5, Velocity: 57
Note OFF: Time 340960, Note Name: C5
Note ON: Time 340960, Note Name: G4, Velocity: 57
Note OFF: Time 341040, Note Name: G4
Note ON: Time 341040, Note Name: E4, Velocity: 60
Note OFF: Time 341120, Note Name: E4
Note ON: Time 341120, Note Name: C4, Velocity: 57
Note OFF: Time 341200, Note Name: C4
Note ON: Time 341200, Note Name: E4, Velocity: 57
Note OFF: Time 341280, Note Name: E4
Note ON: Time 341280, Note Name: C5, Velocity: 68
Note OFF: Time 341360, Note Name: C5
Note ON: Time 341360, Note Name: E5, Velocity: 59
Note OFF: Time 341440, Note Name: E5
Note ON: Time 341440, Note Name: C5, Velocity: 59
Note OFF: Time 341520, Note Name: C5
Note ON: Time 341520, Note Name: G4, Velocity: 67
Note OFF: Time 341600, Note Name: G4
Note ON: Time 341600, Note Name: E4, Velocity: 58
Note OFF: Time 341680, Note Name: E4
Note ON: Time 341680, Note Name: G4, Velocity: 58
Note OFF: Time 341760, Note Name: G4
Note ON: Time 341760, Note Name: C5, Velocity: 71
Note OFF: Time 341840, Note Name: C5
Note ON: Time 341840, Note Name: F5, Velocity: 61
Note OFF: Time 341920, Note Name: F5
Note ON: Time 341920, Note Name: C5, Velocity: 61
Note OFF: Time 342000, Note Name: C5
Note ON: Time 342000, Note Name: A4, Velocity: 67
Note OFF: Time 342080, Note Name: A4
Note ON: Time 342080, Note Name: F4, Velocity: 60
Note OFF: Time 342160, Note Name: F4
Note ON: Time 342160, Note Name: A4, Velocity: 60
Note OFF: Time 342240, Note Name: A4
Note ON: Time 342240, Note Name: C5, Velocity: 68
Note OFF: Time 342320, Note Name: C5
Note ON: Time 342320, Note Name: E5, Velocity: 59
Note OFF: Time 342400, Note Name: E5
Note ON: Time 342400, Note Name: C5, Velocity: 60
Note OFF: Time 342480, Note Name: C5
Note ON: Time 342480, Note Name: G4, Velocity: 67
Note OFF: Time 342560, Note Name: G4
Note ON: Time 342560, Note Name: E4, Velocity: 58
Note OFF: Time 342640, Note Name: E4
Note ON: Time 342640, Note Name: G4, Velocity: 58
Note OFF: Time 342720, Note Name: G4
Note ON: Time 342720, Note Name: C5, Velocity: 70
Note OFF: Time 342800, Note Name: C5
Note ON: Time 342800, Note Name: D5, Velocity: 59
Note OFF: Time 342880, Note Name: D5
Note ON: Time 342880, Note Name: C5, Velocity: 59
Note OFF: Time 342960, Note Name: C5
Note ON: Time 342960, Note Name: F4, Velocity: 67
Note OFF: Time 343040, Note Name: F4
Note ON: Time 343040, Note Name: D4, Velocity: 60
Note OFF: Time 343120, Note Name: D4
Note ON: Time 343120, Note Name: F4, Velocity: 59
Note OFF: Time 343200, Note Name: F4
Note ON: Time 343200, Note Name: C5, Velocity: 66
Note OFF: Time 343280, Note Name: C5
Note ON: Time 343280, Note Name: D#5, Velocity: 57
Note OFF: Time 343360, Note Name: D#5
Note ON: Time 343360, Note Name: C5, Velocity: 60
Note OFF: Time 343440, Note Name: C5
Note ON: Time 343440, Note Name: F#4, Velocity: 70
Note OFF: Time 343520, Note Name: F#4
Note ON: Time 343520, Note Name: D#4, Velocity: 58
Note OFF: Time 343600, Note Name: D#4
Note ON: Time 343600, Note Name: F#4, Velocity: 58
Note OFF: Time 343680, Note Name: F#4
Note ON: Time 343680, Note Name: C5, Velocity: 71
Note OFF: Time 343760, Note Name: C5
Note ON: Time 343760, Note Name: E5, Velocity: 61
Note OFF: Time 343840, Note Name: E5
Note ON: Time 343840, Note Name: C5, Velocity: 61
Note OFF: Time 343920, Note Name: C5
Note ON: Time 343920, Note Name: G4, Velocity: 67
Note OFF: Time 344000, Note Name: G4
Note ON: Time 344000, Note Name: E4, Velocity: 60
Note OFF: Time 344080, Note Name: E4
Note ON: Time 344080, Note Name: G4, Velocity: 60
Note OFF: Time 344160, Note Name: G4
Note ON: Time 344160, Note Name: B4, Velocity: 68
Note OFF: Time 344240, Note Name: B4
Note ON: Time 344240, Note Name: D5, Velocity: 56
Note OFF: Time 344320, Note Name: D5
Note ON: Time 344320, Note Name: B4, Velocity: 57
Note OFF: Time 344400, Note Name: B4
Note ON: Time 344400, Note Name: F4, Velocity: 62
Note OFF: Time 344480, Note Name: F4
Note ON: Time 344480, Note Name: D4, Velocity: 58
Note OFF: Time 344560, Note Name: D4
Note ON: Time 344560, Note Name: F4, Velocity: 58
Note OFF: Time 344640, Note Name: F4
Note ON: Time 344640, Note Name: G4, Velocity: 63
Note OFF: Time 344720, Note Name: G4
Note ON: Time 344720, Note Name: C5, Velocity: 57
Note OFF: Time 344800, Note Name: C5
Note ON: Time 344800, Note Name: G4, Velocity: 57
Note OFF: Time 344880, Note Name: G4
Note ON: Time 344880, Note Name: E4, Velocity: 60
Note OFF: Time 344960, Note Name: E4
Note ON: Time 344960, Note Name: C4, Velocity: 57
Note OFF: Time 345040, Note Name: C4
Note ON: Time 345040, Note Name: E4, Velocity: 57
Note OFF: Time 345120, Note Name: E4
Note ON: Time 345120, Note Name: C5, Velocity: 74
Note OFF: Time 345200, Note Name: C5
Note ON: Time 345200, Note Name: E5, Velocity: 59
Note OFF: Time 345280, Note Name: E5
Note ON: Time 345280, Note Name: C5, Velocity: 59
Note OFF: Time 345360, Note Name: C5
Note ON: Time 345360, Note Name: G4, Velocity: 70
Note OFF: Time 345440, Note Name: G4
Note ON: Time 345440, Note Name: E4, Velocity: 58
Note OFF: Time 345520, Note Name: E4
Note ON: Time 345520, Note Name: G4, Velocity: 58
Note OFF: Time 345600, Note Name: G4
Note ON: Time 345600, Note Name: B4, Velocity: 71
Note OFF: Time 345680, Note Name: B4
Note ON: Time 345680, Note Name: D5, Velocity: 61
Note OFF: Time 345760, Note Name: D5
Note ON: Time 345760, Note Name: B4, Velocity: 61
Note OFF: Time 345840, Note Name: B4
Note ON: Time 345840, Note Name: G4, Velocity: 67
Note OFF: Time 345920, Note Name: G4
Note ON: Time 345920, Note Name: D4, Velocity: 60
Note OFF: Time 346000, Note Name: D4
Note ON: Time 346000, Note Name: G4, Velocity: 60
Note OFF: Time 346080, Note Name: G4
Note ON: Time 346080, Note Name: D5, Velocity: 74
Note OFF: Time 346160, Note Name: D5
Note ON: Time 346160, Note Name: F5, Velocity: 59
Note OFF: Time 346240, Note Name: F5
Note ON: Time 346240, Note Name: D5, Velocity: 59
Note OFF: Time 346320, Note Name: D5
Note ON: Time 346320, Note Name: A4, Velocity: 70
Note OFF: Time 346400, Note Name: A4
Note ON: Time 346400, Note Name: F4, Velocity: 58
Note OFF: Time 346480, Note Name: F4
Note ON: Time 346480, Note Name: A4, Velocity: 58
Note OFF: Time 346560, Note Name: A4
Note ON: Time 346560, Note Name: C5, Velocity: 71
Note OFF: Time 346640, Note Name: C5
Note ON: Time 346640, Note Name: E5, Velocity: 61
Note OFF: Time 346720, Note Name: E5
Note ON: Time 346720, Note Name: C5, Velocity: 61
Note OFF: Time 346800, Note Name: C5
Note ON: Time 346800, Note Name: A4, Velocity: 67
Note OFF: Time 346880, Note Name: A4
Note ON: Time 346880, Note Name: E4, Velocity: 60
Note OFF: Time 346960, Note Name: E4
Note ON: Time 346960, Note Name: A4, Velocity: 60
Note OFF: Time 347040, Note Name: A4
Note ON: Time 347040, Note Name: F5, Velocity: 74
Note OFF: Time 347120, Note Name: F5
Note ON: Time 347120, Note Name: A5, Velocity: 59
Note OFF: Time 347200, Note Name: A5
Note ON: Time 347200, Note Name: F5, Velocity: 59
Note OFF: Time 347280, Note Name: F5
Note ON: Time 347280, Note Name: C5, Velocity: 70
Note OFF: Time 347360, Note Name: C5
Note ON: Time 347360, Note Name: A4, Velocity: 58
Note OFF: Time 347440, Note Name: A4
Note ON: Time 347440, Note Name: C5, Velocity: 58
Note OFF: Time 347520, Note Name: C5
Note ON: Time 347520, Note Name: D5, Velocity: 75
Note OFF: Time 347600, Note Name: D5
Note ON: Time 347600, Note Name: G5, Velocity: 61
Note OFF: Time 347680, Note Name: G5
Note ON: Time 347680, Note Name: D5, Velocity: 61
Note OFF: Time 347760, Note Name: D5
Note ON: Time 347760, Note Name: C5, Velocity: 67
Note OFF: Time 347840, Note Name: C5
Note ON: Time 347840, Note Name: G4, Velocity: 60
Note OFF: Time 347920, Note Name: G4
Note ON: Time 347920, Note Name: C5, Velocity: 60
Note OFF: Time 348000, Note Name: C5
Note ON: Time 348000, Note Name: D5, Velocity: 74
Note OFF: Time 348080, Note Name: D5
Note ON: Time 348080, Note Name: G5, Velocity: 59
Note OFF: Time 348160, Note Name: G5
Note ON: Time 348160, Note Name: D5, Velocity: 59
Note OFF: Time 348240, Note Name: D5
Note ON: Time 348240, Note Name: B4, Velocity: 70
Note OFF: Time 348320, Note Name: B4
Note ON: Time 348320, Note Name: G4, Velocity: 58
Note OFF: Time 348400, Note Name: G4
Note ON: Time 348400, Note Name: B4, Velocity: 58
Note OFF: Time 348480, Note Name: B4
Note ON: Time 348480, Note Name: E5, Velocity: 71
Note OFF: Time 348560, Note Name: E5
Note ON: Time 348560, Note Name: G5, Velocity: 58
Note OFF: Time 348640, Note Name: G5
Note ON: Time 348640, Note Name: E5, Velocity: 58
Note OFF: Time 348720, Note Name: E5
Note ON: Time 348720, Note Name: C5, Velocity: 63
Note OFF: Time 348800, Note Name: C5
Note ON: Time 348800, Note Name: G4, Velocity: 60
Note OFF: Time 348880, Note Name: G4
Note ON: Time 348880, Note Name: C5, Velocity: 58
Note OFF: Time 348960, Note Name: C5
Note ON: Time 348960, Note Name: E5, Velocity: 74
Note OFF: Time 349040, Note Name: E5
Note ON: Time 349040, Note Name: G5, Velocity: 59
Note OFF: Time 349120, Note Name: G5
Note ON: Time 349120, Note Name: E5, Velocity: 59
Note OFF: Time 349200, Note Name: E5
Note ON: Time 349200, Note Name: C5, Velocity: 70
Note OFF: Time 349280, Note Name: C5
Note ON: Time 349280, Note Name: G4, Velocity: 58
Note OFF: Time 349360, Note Name: G4
Note ON: Time 349360, Note Name: C5, Velocity: 58
Note OFF: Time 349440, Note Name: C5
Note ON: Time 349440, Note Name: D5, Velocity: 71
Note OFF: Time 349520, Note Name: D5
Note ON: Time 349520, Note Name: G5, Velocity: 61
Note OFF: Time 349600, Note Name: G5
Note ON: Time 349600, Note Name: D5, Velocity: 61
Note OFF: Time 349680, Note Name: D5
Note ON: Time 349680, Note Name: B4, Velocity: 67
Note OFF: Time 349760, Note Name: B4
Note ON: Time 349760, Note Name: G4, Velocity: 60
Note OFF: Time 349840, Note Name: G4
Note ON: Time 349840, Note Name: B4, Velocity: 60
Note OFF: Time 349920, Note Name: B4
Note ON: Time 349920, Note Name: F5, Velocity: 74
Note OFF: Time 350000, Note Name: F5
Note ON: Time 350000, Note Name: A5, Velocity: 59
Note OFF: Time 350080, Note Name: A5
Note ON: Time 350080, Note Name: F5, Velocity: 59
Note OFF: Time 350160, Note Name: F5
Note ON: Time 350160, Note Name: D5, Velocity: 70
Note OFF: Time 350240, Note Name: D5
Note ON: Time 350240, Note Name: A4, Velocity: 58
Note OFF: Time 350320, Note Name: A4
Note ON: Time 350320, Note Name: D5, Velocity: 58
Note OFF: Time 350400, Note Name: D5
Note ON: Time 350400, Note Name: E5, Velocity: 71
Note OFF: Time 350480, Note Name: E5
Note ON: Time 350480, Note Name: A5, Velocity: 61
Note OFF: Time 350560, Note Name: A5
Note ON: Time 350560, Note Name: E5, Velocity: 61
Note OFF: Time 350640, Note Name: E5
Note ON: Time 350640, Note Name: C5, Velocity: 67
Note OFF: Time 350720, Note Name: C5
Note ON: Time 350720, Note Name: A4, Velocity: 60
Note OFF: Time 350800, Note Name: A4
Note ON: Time 350800, Note Name: C5, Velocity: 60
Note OFF: Time 350880, Note Name: C5
Note ON: Time 350880, Note Name: A5, Velocity: 74
Note OFF: Time 350960, Note Name: A5
Note ON: Time 350960, Note Name: C6, Velocity: 59
Note OFF: Time 351040, Note Name: C6
Note ON: Time 351040, Note Name: A5, Velocity: 59
Note OFF: Time 351120, Note Name: A5
Note ON: Time 351120, Note Name: E5, Velocity: 70
Note OFF: Time 351200, Note Name: E5
Note ON: Time 351200, Note Name: C5, Velocity: 58
Note OFF: Time 351280, Note Name: C5
Note ON: Time 351280, Note Name: E5, Velocity: 58
Note OFF: Time 351360, Note Name: E5
Note ON: Time 351360, Note Name: A5, Velocity: 75
Note OFF: Time 351440, Note Name: A5
Note ON: Time 351440, Note Name: C6, Velocity: 61
Note OFF: Time 351520, Note Name: C6
Note ON: Time 351520, Note Name: A5, Velocity: 61
Note OFF: Time 351600, Note Name: A5
Note ON: Time 351600, Note Name: F#5, Velocity: 67
Note OFF: Time 351680, Note Name: F#5
Note ON: Time 351680, Note Name: C5, Velocity: 60
Note OFF: Time 351760, Note Name: C5
Note ON: Time 351760, Note Name: F#5, Velocity: 60
Note OFF: Time 351840, Note Name: F#5
Note ON: Time 351840, Note Name: A5, Velocity: 74
Note OFF: Time 351920, Note Name: A5
Note ON: Time 351920, Note Name: C6, Velocity: 59
Note OFF: Time 352000, Note Name: C6
Note ON: Time 352000, Note Name: A5, Velocity: 59
Note OFF: Time 352080, Note Name: A5
Note ON: Time 352080, Note Name: F#5, Velocity: 70
Note OFF: Time 352160, Note Name: F#5
Note ON: Time 352160, Note Name: C5, Velocity: 58
Note OFF: Time 352240, Note Name: C5
Note ON: Time 352240, Note Name: F#5, Velocity: 58
Note OFF: Time 352320, Note Name: F#5
Note ON: Time 352320, Note Name: G5, Velocity: 71
Note OFF: Time 352400, Note Name: G5
Note ON: Time 352400, Note Name: B5, Velocity: 58
Note OFF: Time 352480, Note Name: B5
Note ON: Time 352480, Note Name: G5, Velocity: 58
Note OFF: Time 352560, Note Name: G5
Note ON: Time 352560, Note Name: D5, Velocity: 63
Note OFF: Time 352640, Note Name: D5
Note ON: Time 352640, Note Name: B4, Velocity: 60
Note OFF: Time 352720, Note Name: B4
Note ON: Time 352720, Note Name: D5, Velocity: 58
Note OFF: Time 352800, Note Name: D5
Note ON: Time 352800, Note Name: A5, Velocity: 74
Note OFF: Time 352880, Note Name: A5
Note ON: Time 352880, Note Name: D6, Velocity: 59
Note OFF: Time 352960, Note Name: D6
Note ON: Time 352960, Note Name: A5, Velocity: 59
Note OFF: Time 353040, Note Name: A5
Note ON: Time 353040, Note Name: F#5, Velocity: 70
Note OFF: Time 353120, Note Name: F#5
Note ON: Time 353120, Note Name: D5, Velocity: 58
Note OFF: Time 353200, Note Name: D5
Note ON: Time 353200, Note Name: F#5, Velocity: 58
Note OFF: Time 353280, Note Name: F#5
Note ON: Time 353280, Note Name: B5, Velocity: 75
Note OFF: Time 353360, Note Name: B5
Note ON: Time 353360, Note Name: D6, Velocity: 61
Note OFF: Time 353440, Note Name: D6
Note ON: Time 353440, Note Name: B5, Velocity: 61
Note OFF: Time 353520, Note Name: B5
Note ON: Time 353520, Note Name: G5, Velocity: 67
Note OFF: Time 353600, Note Name: G5
Note ON: Time 353600, Note Name: D5, Velocity: 60
Note OFF: Time 353680, Note Name: D5
Note ON: Time 353680, Note Name: G5, Velocity: 60
Note OFF: Time 353760, Note Name: G5
Note ON: Time 353760, Note Name: A5, Velocity: 74
Note OFF: Time 353840, Note Name: A5
Note ON: Time 353840, Note Name: D6, Velocity: 59
Note OFF: Time 353920, Note Name: D6
Note ON: Time 353920, Note Name: A5, Velocity: 59
Note OFF: Time 354000, Note Name: A5
Note ON: Time 354000, Note Name: F#5, Velocity: 70
Note OFF: Time 354080, Note Name: F#5
Note ON: Time 354080, Note Name: D5, Velocity: 58
Note OFF: Time 354160, Note Name: D5
Note ON: Time 354160, Note Name: F#5, Velocity: 58
Note OFF: Time 354240, Note Name: F#5
Note ON: Time 354240, Note Name: B5, Velocity: 77
Note OFF: Time 354320, Note Name: B5
Note ON: Time 354320, Note Name: D6, Velocity: 58
Note OFF: Time 354400, Note Name: D6
Note ON: Time 354400, Note Name: B5, Velocity: 58
Note OFF: Time 354480, Note Name: B5
Note ON: Time 354480, Note Name: G5, Velocity: 63
Note OFF: Time 354560, Note Name: G5
Note ON: Time 354560, Note Name: D5, Velocity: 60
Note OFF: Time 354640, Note Name: D5
Note ON: Time 354640, Note Name: G5, Velocity: 58
Note OFF: Time 354720, Note Name: G5
Note ON: Time 354720, Note Name: D6, Velocity: 51
Note OFF: Time 354800, Note Name: D6
Note ON: Time 354800, Note Name: F#6, Velocity: 40
Note OFF: Time 354880, Note Name: F#6
Note ON: Time 354880, Note Name: D6, Velocity: 40
Note OFF: Time 354960, Note Name: D6
Note ON: Time 354960, Note Name: A5, Velocity: 48
Note OFF: Time 355040, Note Name: A5
Note ON: Time 355040, Note Name: F#5, Velocity: 39
Note OFF: Time 355120, Note Name: F#5
Note ON: Time 355120, Note Name: A5, Velocity: 39
Note OFF: Time 355200, Note Name: A5
Note ON: Time 355200, Note Name: D6, Velocity: 51
Note OFF: Time 355280, Note Name: D6
Note ON: Time 355280, Note Name: G6, Velocity: 42
Note OFF: Time 355360, Note Name: G6
Note ON: Time 355360, Note Name: D6, Velocity: 42
Note OFF: Time 355440, Note Name: D6
Note ON: Time 355440, Note Name: B5, Velocity: 45
Note OFF: Time 355520, Note Name: B5
Note ON: Time 355520, Note Name: G5, Velocity: 41
Note OFF: Time 355600, Note Name: G5
Note ON: Time 355600, Note Name: B5, Velocity: 41
Note OFF: Time 355680, Note Name: B5
Note ON: Time 355680, Note Name: D6, Velocity: 51
Note OFF: Time 355760, Note Name: D6
Note ON: Time 355760, Note Name: F#6, Velocity: 40
Note OFF: Time 355840, Note Name: F#6
Note ON: Time 355840, Note Name: D6, Velocity: 40
Note OFF: Time 355920, Note Name: D6
Note ON: Time 355920, Note Name: A5, Velocity: 48
Note OFF: Time 356000, Note Name: A5
Note ON: Time 356000, Note Name: F#5, Velocity: 39
Note OFF: Time 356080, Note Name: F#5
Note ON: Time 356080, Note Name: A5, Velocity: 39
Note OFF: Time 356160, Note Name: A5
Note ON: Time 356160, Note Name: D6, Velocity: 52
Note OFF: Time 356240, Note Name: D6
Note ON: Time 356240, Note Name: G6, Velocity: 39
Note OFF: Time 356320, Note Name: G6
Note ON: Time 356320, Note Name: D6, Velocity: 39
Note OFF: Time 356400, Note Name: D6
Note ON: Time 356400, Note Name: B5, Velocity: 43
Note OFF: Time 356480, Note Name: B5
Note ON: Time 356480, Note Name: G5, Velocity: 41
Note OFF: Time 356560, Note Name: G5
Note ON: Time 356560, Note Name: B5, Velocity: 39
Note OFF: Time 356640, Note Name: B5
Note ON: Time 356640, Note Name: A5, Velocity: 81
Note OFF: Time 356720, Note Name: A5
Note ON: Time 356720, Note Name: D6, Velocity: 61
Note OFF: Time 356800, Note Name: D6
Note ON: Time 356800, Note Name: A5, Velocity: 61
Note OFF: Time 356880, Note Name: A5
Note ON: Time 356880, Note Name: F#5, Velocity: 69
Note OFF: Time 356960, Note Name: F#5
Note ON: Time 356960, Note Name: D5, Velocity: 63
Note OFF: Time 357040, Note Name: D5
Note ON: Time 357040, Note Name: F#5, Velocity: 63
Note OFF: Time 357120, Note Name: F#5
Note ON: Time 357120, Note Name: B5, Velocity: 82
Note OFF: Time 357200, Note Name: B5
Note ON: Time 357200, Note Name: D6, Velocity: 62
Note OFF: Time 357280, Note Name: D6
Note ON: Time 357280, Note Name: B5, Velocity: 62
Note OFF: Time 357360, Note Name: B5
Note ON: Time 357360, Note Name: G5, Velocity: 67
Note OFF: Time 357440, Note Name: G5
Note ON: Time 357440, Note Name: D5, Velocity: 63
Note OFF: Time 357520, Note Name: D5
Note ON: Time 357520, Note Name: G5, Velocity: 66
Note OFF: Time 357600, Note Name: G5
Note ON: Time 357600, Note Name: A5, Velocity: 81
Note OFF: Time 357680, Note Name: A5
Note ON: Time 357680, Note Name: D6, Velocity: 61
Note OFF: Time 357760, Note Name: D6
Note ON: Time 357760, Note Name: A5, Velocity: 61
Note OFF: Time 357840, Note Name: A5
Note ON: Time 357840, Note Name: F#5, Velocity: 68
Note OFF: Time 357920, Note Name: F#5
Note ON: Time 357920, Note Name: D5, Velocity: 63
Note OFF: Time 358000, Note Name: D5
Note ON: Time 358000, Note Name: F#5, Velocity: 63
Note OFF: Time 358080, Note Name: F#5
Note ON: Time 358080, Note Name: B5, Velocity: 84
Note OFF: Time 358160, Note Name: B5
Note ON: Time 358160, Note Name: D6, Velocity: 63
Note OFF: Time 358240, Note Name: D6
Note ON: Time 358240, Note Name: B5, Velocity: 63
Note OFF: Time 358320, Note Name: B5
Note ON: Time 358320, Note Name: G5, Velocity: 69
Note OFF: Time 358400, Note Name: G5
Note ON: Time 358400, Note Name: D5, Velocity: 66
Note OFF: Time 358480, Note Name: D5
Note ON: Time 358480, Note Name: G5, Velocity: 63
Note OFF: Time 358560, Note Name: G5
Note ON: Time 358560, Note Name: D6, Velocity: 51
Note OFF: Time 358640, Note Name: D6
Note ON: Time 358640, Note Name: F#6, Velocity: 40
Note OFF: Time 358720, Note Name: F#6
Note ON: Time 358720, Note Name: D6, Velocity: 40
Note OFF: Time 358800, Note Name: D6
Note ON: Time 358800, Note Name: A5, Velocity: 48
Note OFF: Time 358880, Note Name: A5
Note ON: Time 358880, Note Name: F#5, Velocity: 39
Note OFF: Time 358960, Note Name: F#5
Note ON: Time 358960, Note Name: A5, Velocity: 39
Note OFF: Time 359040, Note Name: A5
Note ON: Time 359040, Note Name: D6, Velocity: 51
Note OFF: Time 359120, Note Name: D6
Note ON: Time 359120, Note Name: G6, Velocity: 42
Note OFF: Time 359200, Note Name: G6
Note ON: Time 359200, Note Name: D6, Velocity: 42
Note OFF: Time 359280, Note Name: D6
Note ON: Time 359280, Note Name: B5, Velocity: 45
Note OFF: Time 359360, Note Name: B5
Note ON: Time 359360, Note Name: G5, Velocity: 41
Note OFF: Time 359440, Note Name: G5
Note ON: Time 359440, Note Name: B5, Velocity: 41
Note OFF: Time 359520, Note Name: B5
Note ON: Time 359520, Note Name: D6, Velocity: 51
Note OFF: Time 359600, Note Name: D6
Note ON: Time 359600, Note Name: F#6, Velocity: 40
Note OFF: Time 359680, Note Name: F#6
Note ON: Time 359680, Note Name: D6, Velocity: 40
Note OFF: Time 359760, Note Name: D6
Note ON: Time 359760, Note Name: A5, Velocity: 48
Note OFF: Time 359840, Note Name: A5
Note ON: Time 359840, Note Name: F#5, Velocity: 39
Note OFF: Time 359920, Note Name: F#5
Note ON: Time 359920, Note Name: A5, Velocity: 39
Note OFF: Time 360000, Note Name: A5
Note ON: Time 360000, Note Name: D6, Velocity: 57
Note OFF: Time 360080, Note Name: D6
Note ON: Time 360080, Note Name: G6, Velocity: 42
Note OFF: Time 360160, Note Name: G6
Note ON: Time 360160, Note Name: D6, Velocity: 44
Note OFF: Time 360240, Note Name: D6
Note ON: Time 360240, Note Name: B5, Velocity: 49
Note OFF: Time 360320, Note Name: B5
Note ON: Time 360320, Note Name: G5, Velocity: 48
Note OFF: Time 360400, Note Name: G5
Note ON: Time 360400, Note Name: B5, Velocity: 47
Note OFF: Time 360480, Note Name: B5
Note ON: Time 360480, Note Name: D6, Velocity: 63
Note OFF: Time 360560, Note Name: D6
Note ON: Time 360560, Note Name: F#6, Velocity: 50
Note OFF: Time 360640, Note Name: F#6
Note ON: Time 360640, Note Name: D6, Velocity: 51
Note OFF: Time 360720, Note Name: D6
Note ON: Time 360720, Note Name: A5, Velocity: 63
Note OFF: Time 360800, Note Name: A5
Note ON: Time 360800, Note Name: F#5, Velocity: 52
Note OFF: Time 360880, Note Name: F#5
Note ON: Time 360880, Note Name: A5, Velocity: 53
Note OFF: Time 360960, Note Name: A5
Note ON: Time 360960, Note Name: D6, Velocity: 72
Note OFF: Time 361040, Note Name: D6
Note ON: Time 361040, Note Name: G6, Velocity: 60
Note OFF: Time 361120, Note Name: G6
Note ON: Time 361120, Note Name: D6, Velocity: 62
Note OFF: Time 361200, Note Name: D6
Note ON: Time 361200, Note Name: B5, Velocity: 67
Note OFF: Time 361280, Note Name: B5
Note ON: Time 361280, Note Name: G5, Velocity: 62
Note OFF: Time 361360, Note Name: G5
Note ON: Time 361360, Note Name: B5, Velocity: 64
Note OFF: Time 361440, Note Name: B5
Note ON: Time 361440, Note Name: D6, Velocity: 80
Note OFF: Time 361520, Note Name: D6
Note ON: Time 361520, Note Name: F#6, Velocity: 64
Note OFF: Time 361600, Note Name: F#6
Note ON: Time 361600, Note Name: D6, Velocity: 66
Note OFF: Time 361680, Note Name: D6
Note ON: Time 361680, Note Name: A5, Velocity: 80
Note OFF: Time 361760, Note Name: A5
Note ON: Time 361760, Note Name: F#5, Velocity: 66
Note OFF: Time 361840, Note Name: F#5
Note ON: Time 361840, Note Name: A5, Velocity: 67
Note OFF: Time 361920, Note Name: A5
Note ON: Time 361920, Note Name: G6, Velocity: 104
Note ON: Time 361920, Note Name: G5, Velocity: 98
Note OFF: Time 362160, Note Name: G5
Note OFF: Time 362160, Note Name: G6
Note ON: Time 362400, Note Name: G4, Velocity: 81
Note ON: Time 362400, Note Name: B4, Velocity: 81
Note ON: Time 362400, Note Name: D5, Velocity: 81
Note ON: Time 362400, Note Name: G5, Velocity: 96
Note OFF: Time 362640, Note Name: G5
Note OFF: Time 362640, Note Name: G4
Note OFF: Time 362640, Note Name: B4
Note OFF: Time 362640, Note Name: D5
Note ON: Time 362880, Note Name: G4, Velocity: 81
Note ON: Time 362880, Note Name: B4, Velocity: 81
Note ON: Time 362880, Note Name: D5, Velocity: 81
Note ON: Time 362880, Note Name: G5, Velocity: 96
Note OFF: Time 363840, Note Name: G5
Note OFF: Time 363840, Note Name: G4
Note OFF: Time 363840, Note Name: B4
Note OFF: Time 363840, Note Name: D5
Note ON: Time 364320, Note Name: B4, Velocity: 81
Note ON: Time 364320, Note Name: D5, Velocity: 81
Note ON: Time 364320, Note Name: G5, Velocity: 81
Note ON: Time 364320, Note Name: B5, Velocity: 96
Note OFF: Time 364560, Note Name: B5
Note OFF: Time 364560, Note Name: B4
Note OFF: Time 364560, Note Name: D5
Note OFF: Time 364560, Note Name: G5
Note ON: Time 364800, Note Name: B4, Velocity: 81
Note ON: Time 364800, Note Name: D5, Velocity: 81
Note ON: Time 364800, Note Name: G5, Velocity: 81
Note ON: Time 364800, Note Name: B5, Velocity: 96
Note OFF: Time 365760, Note Name: B5
Note OFF: Time 365760, Note Name: B4
Note OFF: Time 365760, Note Name: D5
Note OFF: Time 365760, Note Name: G5
Note ON: Time 366240, Note Name: D5, Velocity: 81
Note ON: Time 366240, Note Name: F5, Velocity: 81
Note ON: Time 366240, Note Name: B5, Velocity: 81
Note ON: Time 366240, Note Name: D6, Velocity: 96
Note OFF: Time 366480, Note Name: D6
Note OFF: Time 366480, Note Name: D5
Note OFF: Time 366480, Note Name: F5
Note OFF: Time 366480, Note Name: B5
Note ON: Time 366720, Note Name: D5, Velocity: 81
Note ON: Time 366720, Note Name: F5, Velocity: 81
Note ON: Time 366720, Note Name: B5, Velocity: 81
Note ON: Time 366720, Note Name: D6, Velocity: 96
Note OFF: Time 367680, Note Name: D6
Note OFF: Time 367680, Note Name: D5
Note OFF: Time 367680, Note Name: F5
Note OFF: Time 367680, Note Name: B5
Note ON: Time 368160, Note Name: F5, Velocity: 81
Note ON: Time 368160, Note Name: B5, Velocity: 81
Note ON: Time 368160, Note Name: D6, Velocity: 81
Note ON: Time 368160, Note Name: F6, Velocity: 96
Note OFF: Time 368400, Note Name: F6
Note OFF: Time 368400, Note Name: F5
Note OFF: Time 368400, Note Name: B5
Note OFF: Time 368400, Note Name: D6
Note ON: Time 368640, Note Name: F5, Velocity: 81
Note ON: Time 368640, Note Name: B5, Velocity: 81
Note ON: Time 368640, Note Name: D6, Velocity: 81
Note ON: Time 368640, Note Name: F6, Velocity: 96
Note OFF: Time 369600, Note Name: F6
Note OFF: Time 369600, Note Name: F5
Note OFF: Time 369600, Note Name: B5
Note OFF: Time 369600, Note Name: D6
Note ON: Time 370080, Note Name: B5, Velocity: 69
Note ON: Time 370080, Note Name: D6, Velocity: 69
Note ON: Time 370080, Note Name: F6, Velocity: 69
Note ON: Time 370080, Note Name: G#6, Velocity: 81
Note OFF: Time 370320, Note Name: G#6
Note OFF: Time 370320, Note Name: B5
Note OFF: Time 370320, Note Name: D6
Note OFF: Time 370320, Note Name: F6
Note ON: Time 371040, Note Name: G#5, Velocity: 60
Note ON: Time 371040, Note Name: B5, Velocity: 60
Note ON: Time 371040, Note Name: D6, Velocity: 60
Note ON: Time 371040, Note Name: F6, Velocity: 70
Note OFF: Time 371280, Note Name: F6
Note OFF: Time 371280, Note Name: G#5
Note OFF: Time 371280, Note Name: B5
Note OFF: Time 371280, Note Name: D6
Note ON: Time 372000, Note Name: D6, Velocity: 67
Note ON: Time 372000, Note Name: B5, Velocity: 57
Note ON: Time 372000, Note Name: G#5, Velocity: 57
Note ON: Time 372000, Note Name: F5, Velocity: 57
Note OFF: Time 372240, Note Name: F5
Note OFF: Time 372240, Note Name: D6
Note OFF: Time 372240, Note Name: B5
Note OFF: Time 372240, Note Name: G#5
Note ON: Time 372960, Note Name: B5, Velocity: 60
Note ON: Time 372960, Note Name: G#5, Velocity: 50
Note ON: Time 372960, Note Name: F5, Velocity: 50
Note ON: Time 372960, Note Name: D5, Velocity: 50
Note OFF: Time 373200, Note Name: D5
Note OFF: Time 373200, Note Name: B5
Note OFF: Time 373200, Note Name: G#5
Note OFF: Time 373200, Note Name: F5
Note ON: Time 373920, Note Name: B4, Velocity: 41
Note ON: Time 373920, Note Name: D5, Velocity: 41
Note ON: Time 373920, Note Name: F5, Velocity: 41
Note ON: Time 373920, Note Name: G#5, Velocity: 49
Note OFF: Time 374160, Note Name: G#5
Note OFF: Time 374160, Note Name: B4
Note OFF: Time 374160, Note Name: D5
Note OFF: Time 374160, Note Name: F5
Note ON: Time 374880, Note Name: G#4, Velocity: 39
Note ON: Time 374880, Note Name: B4, Velocity: 39
Note ON: Time 374880, Note Name: F5, Velocity: 46
Note ON: Time 374880, Note Name: D5, Velocity: 39
Note OFF: Time 375120, Note Name: D5
Note OFF: Time 375120, Note Name: G#4
Note OFF: Time 375120, Note Name: B4
Note OFF: Time 375120, Note Name: F5
Note ON: Time 375840, Note Name: F4, Velocity: 36
Note ON: Time 375840, Note Name: G#4, Velocity: 36
Note ON: Time 375840, Note Name: B4, Velocity: 36
Note ON: Time 375840, Note Name: D5, Velocity: 44
Note OFF: Time 376080, Note Name: D5
Note OFF: Time 376080, Note Name: F4
Note OFF: Time 376080, Note Name: G#4
Note OFF: Time 376080, Note Name: B4
Note ON: Time 376800, Note Name: D4, Velocity: 34
Note ON: Time 376800, Note Name: F4, Velocity: 34
Note ON: Time 376800, Note Name: G#4, Velocity: 34
Note ON: Time 376800, Note Name: B4, Velocity: 41
Note OFF: Time 377040, Note Name: B4
Note OFF: Time 377040, Note Name: D4
Note OFF: Time 377040, Note Name: F4
Note OFF: Time 377040, Note Name: G#4
Note ON: Time 377760, Note Name: B3, Velocity: 26
Note ON: Time 377760, Note Name: D4, Velocity: 26
Note ON: Time 377760, Note Name: F4, Velocity: 26
Note ON: Time 377760, Note Name: G#4, Velocity: 32
Note OFF: Time 378000, Note Name: G#4
Note OFF: Time 378000, Note Name: B3
Note OFF: Time 378000, Note Name: D4
Note OFF: Time 378000, Note Name: F4
Note ON: Time 379680, Note Name: A#3, Velocity: 26
Note ON: Time 379680, Note Name: C#4, Velocity: 26
Note ON: Time 379680, Note Name: E4, Velocity: 26
Note ON: Time 379680, Note Name: G4, Velocity: 32
Note OFF: Time 380160, Note Name: G4
Note OFF: Time 380160, Note Name: A#3
Note OFF: Time 380160, Note Name: C#4
Note OFF: Time 380160, Note Name: E4
Note ON: Time 381600, Note Name: A3, Velocity: 26
Note ON: Time 381600, Note Name: C4, Velocity: 26
Note ON: Time 381600, Note Name: D#4, Velocity: 26
Note ON: Time 381600, Note Name: F#4, Velocity: 32
Note OFF: Time 382080, Note Name: F#4
Note OFF: Time 382080, Note Name: A3
Note OFF: Time 382080, Note Name: C4
Note OFF: Time 382080, Note Name: D#4
Note ON: Time 383520, Note Name: B3, Velocity: 22
Note ON: Time 383520, Note Name: D4, Velocity: 22
Note ON: Time 383520, Note Name: F4, Velocity: 27
Note OFF: Time 385920, Note Name: F4
Note OFF: Time 385920, Note Name: D4
Note OFF: Time 385920, Note Name: B3
Note ON: Time 385920, Note Name: C4, Velocity: 85
Note OFF: Time 386160, Note Name: C4
Note ON: Time 386160, Note Name: G6, Velocity: 50
Note OFF: Time 386280, Note Name: G6
Note ON: Time 386400, Note Name: G6, Velocity: 53
Note OFF: Time 386760, Note Name: G6
Note ON: Time 386760, Note Name: E6, Velocity: 50
Note OFF: Time 386880, Note Name: E6
Note ON: Time 386880, Note Name: D6, Velocity: 54
Note OFF: Time 387120, Note Name: D6
Note ON: Time 387120, Note Name: G5, Velocity: 50
Note OFF: Time 387360, Note Name: G5
Note ON: Time 387360, Note Name: C6, Velocity: 50
Note OFF: Time 387600, Note Name: C6
Note ON: Time 387600, Note Name: E6, Velocity: 49
Note OFF: Time 387840, Note Name: E6
Note ON: Time 388080, Note Name: G6, Velocity: 50
Note OFF: Time 388200, Note Name: G6
Note ON: Time 388320, Note Name: G6, Velocity: 53
Note OFF: Time 388680, Note Name: G6
Note ON: Time 388680, Note Name: E6, Velocity: 50
Note OFF: Time 388800, Note Name: E6
Note ON: Time 388800, Note Name: D6, Velocity: 54
Note OFF: Time 389040, Note Name: D6
Note ON: Time 389040, Note Name: G5, Velocity: 50
Note OFF: Time 389280, Note Name: G5
Note ON: Time 389280, Note Name: C6, Velocity: 50
Note OFF: Time 389520, Note Name: C6
Note ON: Time 389760, Note Name: G6, Velocity: 50
Note OFF: Time 389880, Note Name: G6
Note ON: Time 389880, Note Name: F#6, Velocity: 47
Note OFF: Time 390000, Note Name: F#6
Note ON: Time 390000, Note Name: G6, Velocity: 50
Note OFF: Time 390120, Note Name: G6
Note ON: Time 390120, Note Name: F#6, Velocity: 46
Note OFF: Time 390240, Note Name: F#6
Note ON: Time 390240, Note Name: G6, Velocity: 50
Note OFF: Time 390360, Note Name: G6
Note ON: Time 390360, Note Name: F#6, Velocity: 47
Note OFF: Time 390480, Note Name: F#6
Note ON: Time 390480, Note Name: G6, Velocity: 50
Note OFF: Time 390600, Note Name: G6
Note ON: Time 390600, Note Name: E6, Velocity: 47
Note OFF: Time 390720, Note Name: E6
Note ON: Time 390720, Note Name: D6, Velocity: 48
Note OFF: Time 390840, Note Name: D6
Note ON: Time 390840, Note Name: C#6, Velocity: 43
Note OFF: Time 390960, Note Name: C#6
Note ON: Time 390960, Note Name: D6, Velocity: 48
Note OFF: Time 391080, Note Name: D6
Note ON: Time 391080, Note Name: G5, Velocity: 45
Note OFF: Time 391200, Note Name: G5
Note ON: Time 391200, Note Name: C6, Velocity: 48
Note OFF: Time 391320, Note Name: C6
Note ON: Time 391320, Note Name: B5, Velocity: 44
Note OFF: Time 391440, Note Name: B5
Note ON: Time 391440, Note Name: C6, Velocity: 50
Note OFF: Time 391560, Note Name: C6
Note ON: Time 391560, Note Name: E6, Velocity: 46
Note OFF: Time 391680, Note Name: E6
Note ON: Time 391680, Note Name: G6, Velocity: 50
Note OFF: Time 391800, Note Name: G6
Note ON: Time 391800, Note Name: F#6, Velocity: 46
Note OFF: Time 391920, Note Name: F#6
Note ON: Time 391920, Note Name: G6, Velocity: 50
Note OFF: Time 392040, Note Name: G6
Note ON: Time 392040, Note Name: F#6, Velocity: 47
Note OFF: Time 392160, Note Name: F#6
Note ON: Time 392160, Note Name: G6, Velocity: 50
Note OFF: Time 392280, Note Name: G6
Note ON: Time 392280, Note Name: F#6, Velocity: 46
Note OFF: Time 392400, Note Name: F#6
Note ON: Time 392400, Note Name: G6, Velocity: 50
Note OFF: Time 392520, Note Name: G6
Note ON: Time 392520, Note Name: E6, Velocity: 44
Note OFF: Time 392640, Note Name: E6
Note ON: Time 392640, Note Name: D6, Velocity: 48
Note OFF: Time 392760, Note Name: D6
Note ON: Time 392760, Note Name: C#6, Velocity: 45
Note OFF: Time 392880, Note Name: C#6
Note ON: Time 392880, Note Name: D6, Velocity: 49
Note OFF: Time 393000, Note Name: D6
Note ON: Time 393000, Note Name: G5, Velocity: 45
Note OFF: Time 393120, Note Name: G5
Note ON: Time 393120, Note Name: C6, Velocity: 49
Note OFF: Time 393240, Note Name: C6
Note ON: Time 393240, Note Name: B5, Velocity: 46
Note OFF: Time 393360, Note Name: B5
Note ON: Time 393360, Note Name: C6, Velocity: 49
Note OFF: Time 393480, Note Name: C6
Note ON: Time 393480, Note Name: E6, Velocity: 46
Note OFF: Time 393600, Note Name: E6
Note ON: Time 393600, Note Name: D6, Velocity: 59
Note OFF: Time 393720, Note Name: D6
Note ON: Time 393720, Note Name: C#6, Velocity: 55
Note OFF: Time 393840, Note Name: C#6
Note ON: Time 393840, Note Name: D6, Velocity: 68
Note OFF: Time 393960, Note Name: D6
Note ON: Time 393960, Note Name: G5, Velocity: 62
Note OFF: Time 394080, Note Name: G5
Note ON: Time 394080, Note Name: C6, Velocity: 74
Note ON: Time 394200, Note Name: B5, Velocity: 67
Note OFF: Time 394210, Note Name: C6
Note ON: Time 394320, Note Name: C6, Velocity: 67
Note OFF: Time 394330, Note Name: B5
Note ON: Time 394440, Note Name: E6, Velocity: 67
Note OFF: Time 394450, Note Name: C6
Note OFF: Time 394560, Note Name: E6
Note ON: Time 394560, Note Name: B5, Velocity: 76
Note ON: Time 394680, Note Name: A#5, Velocity: 69
Note OFF: Time 394690, Note Name: B5
Note ON: Time 394800, Note Name: B5, Velocity: 69
Note OFF: Time 394810, Note Name: A#5
Note ON: Time 394920, Note Name: D6, Velocity: 69
Note OFF: Time 394930, Note Name: B5
Note OFF: Time 395040, Note Name: D6
Note ON: Time 395040, Note Name: A5, Velocity: 75
Note ON: Time 395160, Note Name: G#5, Velocity: 70
Note OFF: Time 395170, Note Name: A5
Note ON: Time 395280, Note Name: A5, Velocity: 70
Note OFF: Time 395290, Note Name: G#5
Note ON: Time 395400, Note Name: C6, Velocity: 70
Note OFF: Time 395410, Note Name: A5
Note OFF: Time 395520, Note Name: C6
Note ON: Time 395520, Note Name: G5, Velocity: 75
Note ON: Time 395640, Note Name: F#5, Velocity: 69
Note OFF: Time 395650, Note Name: G5
Note ON: Time 395760, Note Name: G5, Velocity: 69
Note OFF: Time 395770, Note Name: F#5
Note ON: Time 395880, Note Name: B5, Velocity: 69
Note OFF: Time 395890, Note Name: G5
Note OFF: Time 396000, Note Name: B5
Note ON: Time 396000, Note Name: F5, Velocity: 75
Note ON: Time 396120, Note Name: E5, Velocity: 69
Note OFF: Time 396130, Note Name: F5
Note ON: Time 396240, Note Name: F5, Velocity: 69
Note OFF: Time 396250, Note Name: E5
Note ON: Time 396360, Note Name: A5, Velocity: 69
Note OFF: Time 396370, Note Name: F5
Note OFF: Time 396480, Note Name: A5
Note ON: Time 396480, Note Name: E5, Velocity: 75
Note ON: Time 396600, Note Name: D#5, Velocity: 70
Note OFF: Time 396610, Note Name: E5
Note ON: Time 396720, Note Name: E5, Velocity: 70
Note OFF: Time 396730, Note Name: D#5
Note ON: Time 396840, Note Name: G5, Velocity: 70
Note OFF: Time 396850, Note Name: E5
Note OFF: Time 396960, Note Name: G5
Note ON: Time 396960, Note Name: D5, Velocity: 75
Note ON: Time 397080, Note Name: C#5, Velocity: 70
Note OFF: Time 397090, Note Name: D5
Note ON: Time 397200, Note Name: D5, Velocity: 70
Note OFF: Time 397210, Note Name: C#5
Note ON: Time 397320, Note Name: F5, Velocity: 69
Note OFF: Time 397330, Note Name: D5
Note OFF: Time 397440, Note Name: F5
Note ON: Time 397440, Note Name: C5, Velocity: 75
Note ON: Time 397560, Note Name: B4, Velocity: 69
Note OFF: Time 397570, Note Name: C5
Note ON: Time 397680, Note Name: C5, Velocity: 69
Note OFF: Time 397690, Note Name: B4
Note ON: Time 397800, Note Name: E5, Velocity: 69
Note OFF: Time 397810, Note Name: C5
Note OFF: Time 397920, Note Name: E5
Note ON: Time 397920, Note Name: E5, Velocity: 75
Note ON: Time 398040, Note Name: D#5, Velocity: 68
Note OFF: Time 398050, Note Name: E5
Note ON: Time 398160, Note Name: E5, Velocity: 68
Note OFF: Time 398170, Note Name: D#5
Note ON: Time 398280, Note Name: G5, Velocity: 68
Note OFF: Time 398290, Note Name: E5
Note OFF: Time 398400, Note Name: G5
Note ON: Time 398400, Note Name: D5, Velocity: 75
Note ON: Time 398520, Note Name: C#5, Velocity: 68
Note OFF: Time 398530, Note Name: D5
Note ON: Time 398640, Note Name: D5, Velocity: 68
Note OFF: Time 398650, Note Name: C#5
Note ON: Time 398760, Note Name: B4, Velocity: 68
Note OFF: Time 398770, Note Name: D5
Note OFF: Time 398880, Note Name: B4
Note ON: Time 398880, Note Name: C5, Velocity: 74
Note ON: Time 399000, Note Name: B4, Velocity: 68
Note OFF: Time 399010, Note Name: C5
Note ON: Time 399120, Note Name: C5, Velocity: 68
Note OFF: Time 399130, Note Name: B4
Note ON: Time 399240, Note Name: A4, Velocity: 68
Note OFF: Time 399250, Note Name: C5
Note OFF: Time 399360, Note Name: A4
Note ON: Time 399360, Note Name: B4, Velocity: 74
Note ON: Time 399480, Note Name: A#4, Velocity: 69
Note OFF: Time 399490, Note Name: B4
Note ON: Time 399600, Note Name: B4, Velocity: 68
Note OFF: Time 399610, Note Name: A#4
Note ON: Time 399720, Note Name: G4, Velocity: 68
Note OFF: Time 399730, Note Name: B4
Note OFF: Time 399840, Note Name: G4
Note ON: Time 399840, Note Name: A4, Velocity: 74
Note ON: Time 399960, Note Name: G#4, Velocity: 68
Note OFF: Time 399970, Note Name: A4
Note ON: Time 400080, Note Name: A4, Velocity: 68
Note OFF: Time 400090, Note Name: G#4
Note ON: Time 400200, Note Name: F4, Velocity: 68
Note OFF: Time 400210, Note Name: A4
Note OFF: Time 400320, Note Name: F4
Note ON: Time 400320, Note Name: G4, Velocity: 74
Note ON: Time 400440, Note Name: F#4, Velocity: 68
Note OFF: Time 400450, Note Name: G4
Note ON: Time 400560, Note Name: G4, Velocity: 68
Note OFF: Time 400570, Note Name: F#4
Note ON: Time 400680, Note Name: E4, Velocity: 68
Note OFF: Time 400690, Note Name: G4
Note OFF: Time 400800, Note Name: E4
Note ON: Time 400800, Note Name: F4, Velocity: 74
Note ON: Time 400920, Note Name: E4, Velocity: 68
Note OFF: Time 400930, Note Name: F4
Note ON: Time 401040, Note Name: F4, Velocity: 68
Note OFF: Time 401050, Note Name: E4
Note ON: Time 401160, Note Name: D4, Velocity: 68
Note OFF: Time 401170, Note Name: F4
Note OFF: Time 401280, Note Name: D4
Note ON: Time 401280, Note Name: E4, Velocity: 91
Note ON: Time 401400, Note Name: C4, Velocity: 81
Note OFF: Time 401410, Note Name: E4
Note ON: Time 401520, Note Name: G3, Velocity: 81
Note OFF: Time 401530, Note Name: C4
Note ON: Time 401640, Note Name: E4, Velocity: 81
Note OFF: Time 401650, Note Name: G3
Note OFF: Time 401760, Note Name: E4
Note ON: Time 401760, Note Name: D4, Velocity: 90
Note ON: Time 401880, Note Name: B3, Velocity: 81
Note OFF: Time 401890, Note Name: D4
Note ON: Time 402000, Note Name: G3, Velocity: 81
Note OFF: Time 402010, Note Name: B3
Note ON: Time 402120, Note Name: D4, Velocity: 81
Note OFF: Time 402130, Note Name: G3
Note OFF: Time 402240, Note Name: D4
Note ON: Time 402240, Note Name: F4, Velocity: 91
Note ON: Time 402360, Note Name: D4, Velocity: 81
Note OFF: Time 402370, Note Name: F4
Note ON: Time 402480, Note Name: A3, Velocity: 81
Note OFF: Time 402490, Note Name: D4
Note ON: Time 402600, Note Name: F4, Velocity: 81
Note OFF: Time 402610, Note Name: A3
Note OFF: Time 402720, Note Name: F4
Note ON: Time 402720, Note Name: E4, Velocity: 90
Note ON: Time 402840, Note Name: C4, Velocity: 81
Note OFF: Time 402850, Note Name: E4
Note ON: Time 402960, Note Name: A3, Velocity: 81
Note OFF: Time 402970, Note Name: C4
Note ON: Time 403080, Note Name: E4, Velocity: 81
Note OFF: Time 403090, Note Name: A3
Note OFF: Time 403200, Note Name: E4
Note ON: Time 403200, Note Name: A4, Velocity: 90
Note ON: Time 403320, Note Name: F4, Velocity: 81
Note OFF: Time 403330, Note Name: A4
Note ON: Time 403440, Note Name: C4, Velocity: 81
Note OFF: Time 403450, Note Name: F4
Note ON: Time 403560, Note Name: A4, Velocity: 81
Note OFF: Time 403570, Note Name: C4
Note OFF: Time 403680, Note Name: A4
Note ON: Time 403680, Note Name: G4, Velocity: 90
Note ON: Time 403800, Note Name: E4, Velocity: 81
Note OFF: Time 403810, Note Name: G4
Note ON: Time 403920, Note Name: C4, Velocity: 81
Note OFF: Time 403930, Note Name: E4
Note ON: Time 404040, Note Name: C5, Velocity: 81
Note OFF: Time 404050, Note Name: C4
Note OFF: Time 404160, Note Name: C5
Note ON: Time 404160, Note Name: D4, Velocity: 91
Note ON: Time 404280, Note Name: C5, Velocity: 81
Note OFF: Time 404290, Note Name: D4
Note ON: Time 404400, Note Name: G4, Velocity: 81
Note OFF: Time 404410, Note Name: C5
Note ON: Time 404520, Note Name: D4, Velocity: 81
Note OFF: Time 404530, Note Name: G4
Note OFF: Time 404640, Note Name: D4
Note ON: Time 404640, Note Name: B4, Velocity: 91
Note ON: Time 404760, Note Name: G4, Velocity: 81
Note OFF: Time 404770, Note Name: B4
Note ON: Time 404880, Note Name: D4, Velocity: 81
Note OFF: Time 404890, Note Name: G4
Note ON: Time 405000, Note Name: B4, Velocity: 81
Note OFF: Time 405010, Note Name: D4
Note OFF: Time 405120, Note Name: B4
Note ON: Time 405120, Note Name: E5, Velocity: 91
Note ON: Time 405240, Note Name: C5, Velocity: 81
Note OFF: Time 405250, Note Name: E5
Note ON: Time 405360, Note Name: G4, Velocity: 81
Note OFF: Time 405370, Note Name: C5
Note ON: Time 405480, Note Name: E5, Velocity: 81
Note OFF: Time 405490, Note Name: G4
Note OFF: Time 405600, Note Name: E5
Note ON: Time 405600, Note Name: G4, Velocity: 91
Note ON: Time 405720, Note Name: D5, Velocity: 81
Note OFF: Time 405730, Note Name: G4
Note ON: Time 405840, Note Name: B4, Velocity: 81
Note OFF: Time 405850, Note Name: D5
Note ON: Time 405960, Note Name: G4, Velocity: 81
Note OFF: Time 405970, Note Name: B4
Note OFF: Time 406080, Note Name: G4
Note ON: Time 406080, Note Name: F5, Velocity: 91
Note ON: Time 406200, Note Name: D5, Velocity: 81
Note OFF: Time 406210, Note Name: F5
Note ON: Time 406320, Note Name: A4, Velocity: 81
Note OFF: Time 406330, Note Name: D5
Note ON: Time 406440, Note Name: F5, Velocity: 81
Note OFF: Time 406450, Note Name: A4
Note OFF: Time 406560, Note Name: F5
Note ON: Time 406560, Note Name: A4, Velocity: 93
Note ON: Time 406680, Note Name: E5, Velocity: 81
Note OFF: Time 406690, Note Name: A4
Note ON: Time 406800, Note Name: C5, Velocity: 81
Note OFF: Time 406810, Note Name: E5
Note ON: Time 406920, Note Name: A4, Velocity: 81
Note OFF: Time 406930, Note Name: C5
Note OFF: Time 407040, Note Name: A4
Note ON: Time 407040, Note Name: A5, Velocity: 92
Note ON: Time 407160, Note Name: F5, Velocity: 81
Note OFF: Time 407170, Note Name: A5
Note ON: Time 407280, Note Name: C5, Velocity: 81
Note OFF: Time 407290, Note Name: F5
Note ON: Time 407400, Note Name: A5, Velocity: 81
Note OFF: Time 407410, Note Name: C5
Note OFF: Time 407520, Note Name: A5
Note ON: Time 407520, Note Name: C5, Velocity: 92
Note ON: Time 407640, Note Name: A5, Velocity: 81
Note OFF: Time 407650, Note Name: C5
Note ON: Time 407760, Note Name: F5, Velocity: 81
Note OFF: Time 407770, Note Name: A5
Note ON: Time 407880, Note Name: C5, Velocity: 81
Note OFF: Time 407890, Note Name: F5
Note OFF: Time 408000, Note Name: C5
Note ON: Time 408000, Note Name: A5, Velocity: 92
Note ON: Time 408120, Note Name: F5, Velocity: 81
Note OFF: Time 408130, Note Name: A5
Note ON: Time 408240, Note Name: C5, Velocity: 81
Note OFF: Time 408250, Note Name: F5
Note ON: Time 408360, Note Name: A5, Velocity: 81
Note OFF: Time 408370, Note Name: C5
Note OFF: Time 408480, Note Name: A5
Note ON: Time 408480, Note Name: C5, Velocity: 91
Note ON: Time 408600, Note Name: A5, Velocity: 81
Note OFF: Time 408610, Note Name: C5
Note ON: Time 408720, Note Name: F5, Velocity: 81
Note OFF: Time 408730, Note Name: A5
Note ON: Time 408840, Note Name: C5, Velocity: 81
Note OFF: Time 408850, Note Name: F5
Note OFF: Time 408960, Note Name: C5
Note ON: Time 409200, Note Name: C6, Velocity: 50
Note OFF: Time 409320, Note Name: C6
Note ON: Time 409440, Note Name: C6, Velocity: 53
Note OFF: Time 409800, Note Name: C6
Note ON: Time 409800, Note Name: A5, Velocity: 50
Note OFF: Time 409920, Note Name: A5
Note ON: Time 409920, Note Name: G5, Velocity: 54
Note OFF: Time 410160, Note Name: G5
Note ON: Time 410160, Note Name: C5, Velocity: 50
Note OFF: Time 410400, Note Name: C5
Note ON: Time 410400, Note Name: F5, Velocity: 50
Note OFF: Time 410640, Note Name: F5
Note ON: Time 410640, Note Name: A5, Velocity: 47
Note OFF: Time 410880, Note Name: A5
Note ON: Time 411120, Note Name: C6, Velocity: 50
Note OFF: Time 411240, Note Name: C6
Note ON: Time 411240, Note Name: B5, Velocity: 46
Note OFF: Time 411360, Note Name: B5
Note ON: Time 411360, Note Name: C6, Velocity: 50
Note OFF: Time 411480, Note Name: C6
Note ON: Time 411480, Note Name: B5, Velocity: 47
Note OFF: Time 411600, Note Name: B5
Note ON: Time 411600, Note Name: C6, Velocity: 50
Note OFF: Time 411720, Note Name: C6
Note ON: Time 411720, Note Name: A5, Velocity: 47
Note OFF: Time 411840, Note Name: A5
Note ON: Time 411840, Note Name: G5, Velocity: 48
Note OFF: Time 411960, Note Name: G5
Note ON: Time 411960, Note Name: F#5, Velocity: 43
Note OFF: Time 412080, Note Name: F#5
Note ON: Time 412080, Note Name: G5, Velocity: 48
Note OFF: Time 412200, Note Name: G5
Note ON: Time 412200, Note Name: C5, Velocity: 45
Note OFF: Time 412320, Note Name: C5
Note ON: Time 412320, Note Name: F5, Velocity: 48
Note OFF: Time 412440, Note Name: F5
Note ON: Time 412440, Note Name: E5, Velocity: 44
Note OFF: Time 412560, Note Name: E5
Note ON: Time 412560, Note Name: F5, Velocity: 50
Note OFF: Time 412680, Note Name: F5
Note ON: Time 412680, Note Name: A5, Velocity: 46
Note OFF: Time 412800, Note Name: A5
Note ON: Time 413040, Note Name: F6, Velocity: 46
Note ON: Time 413040, Note Name: F5, Velocity: 39
Note OFF: Time 413280, Note Name: F5
Note OFF: Time 413280, Note Name: F6
Note ON: Time 413280, Note Name: F6, Velocity: 48
Note ON: Time 413280, Note Name: F5, Velocity: 40
Note OFF: Time 413640, Note Name: F5
Note OFF: Time 413640, Note Name: F6
Note ON: Time 413640, Note Name: D6, Velocity: 46
Note ON: Time 413640, Note Name: D5, Velocity: 39
Note OFF: Time 413760, Note Name: D5
Note OFF: Time 413760, Note Name: D6
Note ON: Time 413760, Note Name: E6, Velocity: 49
Note ON: Time 413760, Note Name: E5, Velocity: 41
Note OFF: Time 414000, Note Name: E5
Note OFF: Time 414000, Note Name: E6
Note ON: Time 414000, Note Name: C6, Velocity: 46
Note ON: Time 414000, Note Name: C5, Velocity: 39
Note OFF: Time 414240, Note Name: C5
Note OFF: Time 414240, Note Name: C6
Note ON: Time 414240, Note Name: B5, Velocity: 46
Note ON: Time 414240, Note Name: B4, Velocity: 39
Note OFF: Time 414480, Note Name: B4
Note OFF: Time 414480, Note Name: B5
Note ON: Time 414480, Note Name: D6, Velocity: 42
Note ON: Time 414480, Note Name: D5, Velocity: 35
Note OFF: Time 414720, Note Name: D5
Note OFF: Time 414720, Note Name: D6
Note ON: Time 414960, Note Name: F6, Velocity: 46
Note ON: Time 414960, Note Name: F5, Velocity: 39
Note OFF: Time 415200, Note Name: F5
Note OFF: Time 415200, Note Name: F6
Note ON: Time 415200, Note Name: F6, Velocity: 48
Note ON: Time 415200, Note Name: F5, Velocity: 40
Note OFF: Time 415560, Note Name: F5
Note OFF: Time 415560, Note Name: F6
Note ON: Time 415560, Note Name: D6, Velocity: 46
Note ON: Time 415560, Note Name: D5, Velocity: 39
Note OFF: Time 415680, Note Name: D5
Note OFF: Time 415680, Note Name: D6
Note ON: Time 415680, Note Name: E6, Velocity: 49
Note ON: Time 415680, Note Name: E5, Velocity: 41
Note ON: Time 415920, Note Name: C6, Velocity: 46
Note ON: Time 415920, Note Name: C5, Velocity: 39
Note OFF: Time 415930, Note Name: E5
Note OFF: Time 415930, Note Name: E6
Note ON: Time 416160, Note Name: B5, Velocity: 46
Note ON: Time 416160, Note Name: B4, Velocity: 39
Note OFF: Time 416170, Note Name: C6
Note OFF: Time 416170, Note Name: C5
Note ON: Time 416400, Note Name: D6, Velocity: 42
Note ON: Time 416400, Note Name: D5, Velocity: 35
Note OFF: Time 416410, Note Name: B5
Note OFF: Time 416410, Note Name: B4
Note OFF: Time 416640, Note Name: D6
Note OFF: Time 416640, Note Name: D5
Note ON: Time 416640, Note Name: C6, Velocity: 49
Note ON: Time 416640, Note Name: C5, Velocity: 41
Note ON: Time 416880, Note Name: A5, Velocity: 46
Note ON: Time 416880, Note Name: A4, Velocity: 39
Note OFF: Time 416890, Note Name: C5
Note OFF: Time 416890, Note Name: C6
Note ON: Time 417120, Note Name: G5, Velocity: 46
Note ON: Time 417120, Note Name: G4, Velocity: 39
Note OFF: Time 417130, Note Name: A5
Note OFF: Time 417130, Note Name: A4
Note ON: Time 417360, Note Name: B5, Velocity: 42
Note ON: Time 417360, Note Name: B4, Velocity: 35
Note OFF: Time 417370, Note Name: G5
Note OFF: Time 417370, Note Name: G4
Note OFF: Time 417600, Note Name: B5
Note OFF: Time 417600, Note Name: B4
Note ON: Time 417600, Note Name: A5, Velocity: 49
Note ON: Time 417600, Note Name: A4, Velocity: 41
Note ON: Time 417840, Note Name: F5, Velocity: 46
Note ON: Time 417840, Note Name: F4, Velocity: 39
Note OFF: Time 417850, Note Name: A4
Note OFF: Time 417850, Note Name: A5
Note ON: Time 418080, Note Name: E5, Velocity: 46
Note ON: Time 418080, Note Name: E4, Velocity: 39
Note OFF: Time 418090, Note Name: F5
Note OFF: Time 418090, Note Name: F4
Note ON: Time 418320, Note Name: G5, Velocity: 42
Note ON: Time 418320, Note Name: G4, Velocity: 35
Note OFF: Time 418330, Note Name: E5
Note OFF: Time 418330, Note Name: E4
Note OFF: Time 418560, Note Name: G5
Note OFF: Time 418560, Note Name: G4
Note ON: Time 418560, Note Name: F5, Velocity: 51
Note ON: Time 418560, Note Name: F4, Velocity: 42
Note ON: Time 418800, Note Name: D5, Velocity: 48
Note ON: Time 418800, Note Name: D4, Velocity: 40
Note OFF: Time 418810, Note Name: F4
Note OFF: Time 418810, Note Name: F5
Note ON: Time 419040, Note Name: E5, Velocity: 48
Note ON: Time 419040, Note Name: E4, Velocity: 41
Note OFF: Time 419050, Note Name: D5
Note OFF: Time 419050, Note Name: D4
Note ON: Time 419280, Note Name: C5, Velocity: 44
Note ON: Time 419280, Note Name: C4, Velocity: 36
Note OFF: Time 419290, Note Name: E5
Note OFF: Time 419290, Note Name: E4
Note OFF: Time 419520, Note Name: C5
Note OFF: Time 419520, Note Name: C4
Note ON: Time 419520, Note Name: D5, Velocity: 52
Note ON: Time 419520, Note Name: D4, Velocity: 43
Note ON: Time 419760, Note Name: B4, Velocity: 49
Note ON: Time 419760, Note Name: B3, Velocity: 41
Note OFF: Time 419770, Note Name: D4
Note OFF: Time 419770, Note Name: D5
Note ON: Time 420000, Note Name: C5, Velocity: 49
Note ON: Time 420000, Note Name: C4, Velocity: 41
Note OFF: Time 420010, Note Name: B4
Note OFF: Time 420010, Note Name: B3
Note ON: Time 420240, Note Name: A4, Velocity: 46
Note ON: Time 420240, Note Name: A3, Velocity: 37
Note OFF: Time 420250, Note Name: C5
Note OFF: Time 420250, Note Name: C4
Note OFF: Time 420480, Note Name: A4
Note OFF: Time 420480, Note Name: A3
Note ON: Time 420480, Note Name: B4, Velocity: 54
Note ON: Time 420480, Note Name: B3, Velocity: 44
Note ON: Time 420720, Note Name: G4, Velocity: 50
Note ON: Time 420720, Note Name: G3, Velocity: 42
Note OFF: Time 420730, Note Name: B3
Note OFF: Time 420730, Note Name: B4
Note ON: Time 420960, Note Name: A4, Velocity: 50
Note ON: Time 420960, Note Name: A3, Velocity: 42
Note OFF: Time 420970, Note Name: G4
Note OFF: Time 420970, Note Name: G3
Note ON: Time 421200, Note Name: F4, Velocity: 47
Note ON: Time 421200, Note Name: F3, Velocity: 39
Note OFF: Time 421210, Note Name: A4
Note OFF: Time 421210, Note Name: A3
Note OFF: Time 421440, Note Name: F4
Note OFF: Time 421440, Note Name: F3
Note ON: Time 421440, Note Name: G4, Velocity: 55
Note ON: Time 421440, Note Name: G3, Velocity: 46
Note ON: Time 421680, Note Name: E4, Velocity: 51
Note ON: Time 421680, Note Name: E3, Velocity: 43
Note OFF: Time 421690, Note Name: G3
Note OFF: Time 421690, Note Name: G4
Note ON: Time 421920, Note Name: F4, Velocity: 51
Note ON: Time 421920, Note Name: F3, Velocity: 43
Note OFF: Time 421930, Note Name: E4
Note OFF: Time 421930, Note Name: E3
Note ON: Time 422160, Note Name: B3, Velocity: 48
Note ON: Time 422160, Note Name: B2, Velocity: 40
Note OFF: Time 422170, Note Name: F4
Note OFF: Time 422170, Note Name: F3
Note OFF: Time 422400, Note Name: B3
Note OFF: Time 422400, Note Name: B2
Note ON: Time 422400, Note Name: D#3, Velocity: 104
Note ON: Time 422400, Note Name: C4, Velocity: 104
Note OFF: Time 422640, Note Name: C4
Note OFF: Time 422640, Note Name: D#3
Note ON: Time 423520, Note Name: C5, Velocity: 74
Note OFF: Time 423680, Note Name: C5
Note ON: Time 423680, Note Name: D#5, Velocity: 74
Note OFF: Time 423840, Note Name: D#5
Note ON: Time 423840, Note Name: G#5, Velocity: 78
Note OFF: Time 424000, Note Name: G#5
Note ON: Time 424000, Note Name: C6, Velocity: 74
Note OFF: Time 424160, Note Name: C6
Note ON: Time 424160, Note Name: D#6, Velocity: 74
Note OFF: Time 424320, Note Name: D#6
Note ON: Time 424320, Note Name: C#6, Velocity: 58
Note OFF: Time 424480, Note Name: C#6
Note ON: Time 424480, Note Name: A#5, Velocity: 49
Note OFF: Time 424640, Note Name: A#5
Note ON: Time 424640, Note Name: G5, Velocity: 49
Note OFF: Time 424800, Note Name: G5
Note ON: Time 424800, Note Name: C#5, Velocity: 55
Note OFF: Time 424960, Note Name: C#5
Note ON: Time 424960, Note Name: A#4, Velocity: 50
Note OFF: Time 425120, Note Name: A#4
Note ON: Time 425120, Note Name: G4, Velocity: 50
Note OFF: Time 425280, Note Name: G4
Note ON: Time 425280, Note Name: C#6, Velocity: 56
Note OFF: Time 425440, Note Name: C#6
Note ON: Time 425440, Note Name: A#5, Velocity: 49
Note OFF: Time 425600, Note Name: A#5
Note ON: Time 425600, Note Name: G5, Velocity: 49
Note OFF: Time 425760, Note Name: G5
Note ON: Time 425760, Note Name: C#5, Velocity: 55
Note OFF: Time 425920, Note Name: C#5
Note ON: Time 425920, Note Name: A#4, Velocity: 50
Note OFF: Time 426080, Note Name: A#4
Note ON: Time 426080, Note Name: G4, Velocity: 50
Note OFF: Time 426240, Note Name: G4
Note ON: Time 427360, Note Name: G#4, Velocity: 74
Note OFF: Time 427520, Note Name: G#4
Note ON: Time 427520, Note Name: C5, Velocity: 74
Note OFF: Time 427680, Note Name: C5
Note ON: Time 427680, Note Name: F5, Velocity: 78
Note OFF: Time 427840, Note Name: F5
Note ON: Time 427840, Note Name: G#5, Velocity: 74
Note OFF: Time 428000, Note Name: G#5
Note ON: Time 428000, Note Name: C6, Velocity: 74
Note OFF: Time 428160, Note Name: C6
Note ON: Time 428160, Note Name: A#5, Velocity: 58
Note OFF: Time 428320, Note Name: A#5
Note ON: Time 428320, Note Name: G5, Velocity: 49
Note OFF: Time 428480, Note Name: G5
Note ON: Time 428480, Note Name: E5, Velocity: 49
Note OFF: Time 428640, Note Name: E5
Note ON: Time 428640, Note Name: A#4, Velocity: 55
Note OFF: Time 428800, Note Name: A#4
Note ON: Time 428800, Note Name: G4, Velocity: 50
Note OFF: Time 428960, Note Name: G4
Note ON: Time 428960, Note Name: E4, Velocity: 50
Note OFF: Time 429120, Note Name: E4
Note ON: Time 429120, Note Name: A#5, Velocity: 56
Note OFF: Time 429280, Note Name: A#5
Note ON: Time 429280, Note Name: G5, Velocity: 49
Note OFF: Time 429440, Note Name: G5
Note ON: Time 429440, Note Name: E5, Velocity: 49
Note OFF: Time 429600, Note Name: E5
Note ON: Time 429600, Note Name: A#4, Velocity: 55
Note OFF: Time 429760, Note Name: A#4
Note ON: Time 429760, Note Name: G4, Velocity: 50
Note OFF: Time 429920, Note Name: G4
Note ON: Time 429920, Note Name: E4, Velocity: 50
Note OFF: Time 430080, Note Name: E4
Note ON: Time 431200, Note Name: F4, Velocity: 74
Note OFF: Time 431360, Note Name: F4
Note ON: Time 431360, Note Name: G#4, Velocity: 74
Note OFF: Time 431520, Note Name: G#4
Note ON: Time 431520, Note Name: C#5, Velocity: 78
Note OFF: Time 431680, Note Name: C#5
Note ON: Time 431680, Note Name: F5, Velocity: 74
Note OFF: Time 431840, Note Name: F5
Note ON: Time 431840, Note Name: G#5, Velocity: 74
Note OFF: Time 432000, Note Name: G#5
Note ON: Time 432000, Note Name: F#5, Velocity: 58
Note OFF: Time 432160, Note Name: F#5
Note ON: Time 432160, Note Name: D#5, Velocity: 49
Note OFF: Time 432320, Note Name: D#5
Note ON: Time 432320, Note Name: C5, Velocity: 49
Note OFF: Time 432480, Note Name: C5
Note ON: Time 432480, Note Name: F#4, Velocity: 55
Note OFF: Time 432640, Note Name: F#4
Note ON: Time 432640, Note Name: D#4, Velocity: 50
Note OFF: Time 432800, Note Name: D#4
Note ON: Time 432800, Note Name: C4, Velocity: 50
Note OFF: Time 432960, Note Name: C4
Note ON: Time 432960, Note Name: F#5, Velocity: 56
Note OFF: Time 433120, Note Name: F#5
Note ON: Time 433120, Note Name: D#5, Velocity: 49
Note OFF: Time 433280, Note Name: D#5
Note ON: Time 433280, Note Name: C5, Velocity: 49
Note OFF: Time 433440, Note Name: C5
Note ON: Time 433440, Note Name: F#4, Velocity: 55
Note OFF: Time 433600, Note Name: F#4
Note ON: Time 433600, Note Name: D#4, Velocity: 50
Note OFF: Time 433760, Note Name: D#4
Note ON: Time 433760, Note Name: C4, Velocity: 50
Note OFF: Time 433920, Note Name: C4
Note ON: Time 434080, Note Name: F3, Velocity: 39
Note OFF: Time 434240, Note Name: F3
Note ON: Time 434240, Note Name: A#3, Velocity: 40
Note OFF: Time 434400, Note Name: A#3
Note ON: Time 434400, Note Name: C#4, Velocity: 41
Note OFF: Time 434560, Note Name: C#4
Note ON: Time 434560, Note Name: F4, Velocity: 43
Note OFF: Time 434720, Note Name: F4
Note ON: Time 434720, Note Name: A#4, Velocity: 44
Note OFF: Time 434880, Note Name: A#4
Note ON: Time 434880, Note Name: C#5, Velocity: 46
Note OFF: Time 435040, Note Name: C#5
Note ON: Time 435040, Note Name: F5, Velocity: 45
Note OFF: Time 435200, Note Name: F5
Note ON: Time 435200, Note Name: A#5, Velocity: 47
Note OFF: Time 435360, Note Name: A#5
Note ON: Time 435360, Note Name: C#6, Velocity: 49
Note OFF: Time 435520, Note Name: C#6
Note ON: Time 435520, Note Name: F6, Velocity: 45
Note OFF: Time 435680, Note Name: F6
Note ON: Time 435680, Note Name: F5, Velocity: 41
Note OFF: Time 435840, Note Name: F5
Note ON: Time 436000, Note Name: F3, Velocity: 39
Note OFF: Time 436160, Note Name: F3
Note ON: Time 436160, Note Name: G#3, Velocity: 40
Note OFF: Time 436320, Note Name: G#3
Note ON: Time 436320, Note Name: C4, Velocity: 41
Note OFF: Time 436480, Note Name: C4
Note ON: Time 436480, Note Name: F4, Velocity: 43
Note OFF: Time 436640, Note Name: F4
Note ON: Time 436640, Note Name: G#4, Velocity: 44
Note OFF: Time 436800, Note Name: G#4
Note ON: Time 436800, Note Name: C5, Velocity: 46
Note OFF: Time 436960, Note Name: C5
Note ON: Time 436960, Note Name: F5, Velocity: 45
Note OFF: Time 437120, Note Name: F5
Note ON: Time 437120, Note Name: G#5, Velocity: 47
Note OFF: Time 437280, Note Name: G#5
Note ON: Time 437280, Note Name: C6, Velocity: 49
Note OFF: Time 437440, Note Name: C6
Note ON: Time 437440, Note Name: F6, Velocity: 45
Note OFF: Time 437600, Note Name: F6
Note ON: Time 437600, Note Name: F5, Velocity: 41
Note OFF: Time 437760, Note Name: F5
Note ON: Time 437920, Note Name: F3, Velocity: 39
Note OFF: Time 438080, Note Name: F3
Note ON: Time 438080, Note Name: B3, Velocity: 40
Note OFF: Time 438240, Note Name: B3
Note ON: Time 438240, Note Name: D4, Velocity: 41
Note OFF: Time 438400, Note Name: D4
Note ON: Time 438400, Note Name: F4, Velocity: 43
Note OFF: Time 438560, Note Name: F4
Note ON: Time 438560, Note Name: B4, Velocity: 44
Note OFF: Time 438720, Note Name: B4
Note ON: Time 438720, Note Name: D5, Velocity: 46
Note OFF: Time 438880, Note Name: D5
Note ON: Time 438880, Note Name: F5, Velocity: 45
Note OFF: Time 439040, Note Name: F5
Note ON: Time 439040, Note Name: B5, Velocity: 47
Note OFF: Time 439200, Note Name: B5
Note ON: Time 439200, Note Name: D6, Velocity: 49
Note OFF: Time 439360, Note Name: D6
Note ON: Time 439360, Note Name: F6, Velocity: 45
Note OFF: Time 439520, Note Name: F6
Note ON: Time 439520, Note Name: F5, Velocity: 41
Note OFF: Time 439680, Note Name: F5
Note ON: Time 439840, Note Name: D#3, Velocity: 39
Note OFF: Time 440000, Note Name: D#3
Note ON: Time 440000, Note Name: G#3, Velocity: 40
Note OFF: Time 440160, Note Name: G#3
Note ON: Time 440160, Note Name: C4, Velocity: 41
Note OFF: Time 440320, Note Name: C4
Note ON: Time 440320, Note Name: D#4, Velocity: 43
Note OFF: Time 440480, Note Name: D#4
Note ON: Time 440480, Note Name: G#4, Velocity: 44
Note OFF: Time 440640, Note Name: G#4
Note ON: Time 440640, Note Name: C5, Velocity: 46
Note OFF: Time 440800, Note Name: C5
Note ON: Time 440800, Note Name: D#5, Velocity: 45
Note OFF: Time 440960, Note Name: D#5
Note ON: Time 440960, Note Name: G#5, Velocity: 47
Note OFF: Time 441120, Note Name: G#5
Note ON: Time 441120, Note Name: C6, Velocity: 49
Note OFF: Time 441280, Note Name: C6
Note ON: Time 441280, Note Name: D#6, Velocity: 45
Note OFF: Time 441440, Note Name: D#6
Note ON: Time 441440, Note Name: D#5, Velocity: 41
Note OFF: Time 441600, Note Name: D#5
Note ON: Time 443040, Note Name: C4, Velocity: 45
Note OFF: Time 443200, Note Name: C4
Note ON: Time 443200, Note Name: D#4, Velocity: 41
Note OFF: Time 443360, Note Name: D#4
Note ON: Time 443360, Note Name: F#4, Velocity: 41
Note OFF: Time 443520, Note Name: F#4
Note ON: Time 443520, Note Name: A4, Velocity: 46
Note OFF: Time 443680, Note Name: A4
Note ON: Time 443680, Note Name: C5, Velocity: 41
Note OFF: Time 443840, Note Name: C5
Note ON: Time 443840, Note Name: D#5, Velocity: 41
Note OFF: Time 444000, Note Name: D#5
Note ON: Time 444000, Note Name: F#5, Velocity: 46
Note OFF: Time 444160, Note Name: F#5
Note ON: Time 444160, Note Name: A5, Velocity: 41
Note OFF: Time 444320, Note Name: A5
Note ON: Time 444320, Note Name: C6, Velocity: 41
Note OFF: Time 444480, Note Name: C6
Note ON: Time 444480, Note Name: D#6, Velocity: 47
Note OFF: Time 444640, Note Name: D#6
Note ON: Time 444640, Note Name: C6, Velocity: 43
Note OFF: Time 444800, Note Name: C6
Note ON: Time 444800, Note Name: A5, Velocity: 43
Note OFF: Time 444960, Note Name: A5
Note ON: Time 444960, Note Name: F#6, Velocity: 47
Note OFF: Time 445120, Note Name: F#6
Note ON: Time 445120, Note Name: D#6, Velocity: 43
Note OFF: Time 445280, Note Name: D#6
Note ON: Time 445280, Note Name: C6, Velocity: 43
Note OFF: Time 445440, Note Name: C6
Note ON: Time 445560, Note Name: G6, Velocity: 49
Note ON: Time 445560, Note Name: G5, Velocity: 41
Note ON: Time 445680, Note Name: F6, Velocity: 49
Note ON: Time 445680, Note Name: F5, Velocity: 41
Note OFF: Time 445690, Note Name: G5
Note OFF: Time 445690, Note Name: G6
Note ON: Time 445800, Note Name: E6, Velocity: 49
Note ON: Time 445800, Note Name: E5, Velocity: 41
Note OFF: Time 445810, Note Name: F6
Note OFF: Time 445810, Note Name: F5
Note ON: Time 445920, Note Name: D6, Velocity: 48
Note ON: Time 445920, Note Name: D5, Velocity: 40
Note OFF: Time 445930, Note Name: E6
Note OFF: Time 445930, Note Name: E5
Note ON: Time 446040, Note Name: C6, Velocity: 48
Note ON: Time 446040, Note Name: C5, Velocity: 40
Note OFF: Time 446050, Note Name: D6
Note OFF: Time 446050, Note Name: D5
Note ON: Time 446160, Note Name: B5, Velocity: 47
Note ON: Time 446160, Note Name: B4, Velocity: 39
Note OFF: Time 446170, Note Name: C6
Note OFF: Time 446170, Note Name: C5
Note ON: Time 446280, Note Name: A5, Velocity: 39
Note ON: Time 446280, Note Name: A4, Velocity: 39
Note OFF: Time 446290, Note Name: B5
Note OFF: Time 446290, Note Name: B4
Note ON: Time 446400, Note Name: G4, Velocity: 39
Note ON: Time 446400, Note Name: G5, Velocity: 47
Note OFF: Time 446410, Note Name: A5
Note OFF: Time 446410, Note Name: A4
Note OFF: Time 446640, Note Name: G4
Note OFF: Time 446640, Note Name: G5
Note ON: Time 446640, Note Name: F4, Velocity: 38
Note ON: Time 446640, Note Name: F5, Velocity: 45
Note ON: Time 446760, Note Name: E4, Velocity: 38
Note ON: Time 446760, Note Name: E5, Velocity: 45
Note OFF: Time 446770, Note Name: F5
Note OFF: Time 446770, Note Name: F4
Note ON: Time 446880, Note Name: D4, Velocity: 37
Note ON: Time 446880, Note Name: D5, Velocity: 44
Note OFF: Time 446890, Note Name: E4
Note OFF: Time 446890, Note Name: E5
Note ON: Time 447000, Note Name: C4, Velocity: 37
Note ON: Time 447000, Note Name: C5, Velocity: 44
Note OFF: Time 447010, Note Name: D4
Note OFF: Time 447010, Note Name: D5
Note ON: Time 447120, Note Name: B3, Velocity: 36
Note ON: Time 447120, Note Name: B4, Velocity: 43
Note OFF: Time 447130, Note Name: C4
Note OFF: Time 447130, Note Name: C5
Note ON: Time 447240, Note Name: A3, Velocity: 35
Note ON: Time 447240, Note Name: A4, Velocity: 42
Note OFF: Time 447250, Note Name: B3
Note OFF: Time 447250, Note Name: B4
Note ON: Time 447360, Note Name: C4, Velocity: 35
Note ON: Time 447360, Note Name: G3, Velocity: 35
Note ON: Time 447360, Note Name: E4, Velocity: 35
Note ON: Time 447360, Note Name: G4, Velocity: 42
Note OFF: Time 447370, Note Name: A3
Note OFF: Time 447370, Note Name: A4
Note OFF: Time 448320, Note Name: E4
Note OFF: Time 448320, Note Name: G3
Note OFF: Time 448320, Note Name: C4
Note ON: Time 448320, Note Name: B3, Velocity: 35
Note ON: Time 448320, Note Name: D4, Velocity: 35
Note OFF: Time 448800, Note Name: D4
Note OFF: Time 448800, Note Name: B3
Note OFF: Time 448800, Note Name: G4
Note ON: Time 448800, Note Name: D5, Velocity: 42
Note ON: Time 448800, Note Name: F5, Velocity: 46
Note OFF: Time 449280, Note Name: F5
Note OFF: Time 449280, Note Name: D5
Note ON: Time 449280, Note Name: C5, Velocity: 41
Note ON: Time 449280, Note Name: E5, Velocity: 49
Note OFF: Time 449340, Note Name: E5
Note OFF: Time 449340, Note Name: C5
Note ON: Time 449400, Note Name: G6, Velocity: 49
Note ON: Time 449400, Note Name: G5, Velocity: 41
Note ON: Time 449520, Note Name: F6, Velocity: 49
Note ON: Time 449520, Note Name: F5, Velocity: 41
Note OFF: Time 449530, Note Name: G5
Note OFF: Time 449530, Note Name: G6
Note ON: Time 449640, Note Name: E6, Velocity: 49
Note ON: Time 449640, Note Name: E5, Velocity: 41
Note OFF: Time 449650, Note Name: F6
Note OFF: Time 449650, Note Name: F5
Note ON: Time 449760, Note Name: D6, Velocity: 48
Note ON: Time 449760, Note Name: D5, Velocity: 40
Note OFF: Time 449770, Note Name: E6
Note OFF: Time 449770, Note Name: E5
Note ON: Time 449880, Note Name: C6, Velocity: 48
Note ON: Time 449880, Note Name: C5, Velocity: 40
Note OFF: Time 449890, Note Name: D6
Note OFF: Time 449890, Note Name: D5
Note ON: Time 450000, Note Name: B5, Velocity: 47
Note ON: Time 450000, Note Name: B4, Velocity: 39
Note OFF: Time 450010, Note Name: C6
Note OFF: Time 450010, Note Name: C5
Note ON: Time 450120, Note Name: A5, Velocity: 39
Note ON: Time 450120, Note Name: A4, Velocity: 39
Note OFF: Time 450130, Note Name: B5
Note OFF: Time 450130, Note Name: B4
Note ON: Time 450240, Note Name: G4, Velocity: 39
Note ON: Time 450240, Note Name: G5, Velocity: 47
Note OFF: Time 450250, Note Name: A5
Note OFF: Time 450250, Note Name: A4
Note OFF: Time 450480, Note Name: G4
Note OFF: Time 450480, Note Name: G5
Note ON: Time 450480, Note Name: F4, Velocity: 38
Note ON: Time 450480, Note Name: F5, Velocity: 45
Note ON: Time 450600, Note Name: E4, Velocity: 38
Note ON: Time 450600, Note Name: E5, Velocity: 45
Note OFF: Time 450610, Note Name: F5
Note OFF: Time 450610, Note Name: F4
Note ON: Time 450720, Note Name: D4, Velocity: 37
Note ON: Time 450720, Note Name: D5, Velocity: 44
Note OFF: Time 450730, Note Name: E4
Note OFF: Time 450730, Note Name: E5
Note ON: Time 450840, Note Name: C4, Velocity: 37
Note ON: Time 450840, Note Name: C5, Velocity: 44
Note OFF: Time 450850, Note Name: D4
Note OFF: Time 450850, Note Name: D5
Note ON: Time 450960, Note Name: B3, Velocity: 36
Note ON: Time 450960, Note Name: B4, Velocity: 43
Note OFF: Time 450970, Note Name: C4
Note OFF: Time 450970, Note Name: C5
Note ON: Time 451080, Note Name: A3, Velocity: 35
Note ON: Time 451080, Note Name: A4, Velocity: 42
Note OFF: Time 451090, Note Name: B3
Note OFF: Time 451090, Note Name: B4
Note ON: Time 451200, Note Name: C4, Velocity: 35
Note ON: Time 451200, Note Name: G3, Velocity: 35
Note ON: Time 451200, Note Name: E4, Velocity: 35
Note ON: Time 451200, Note Name: G4, Velocity: 42
Note OFF: Time 451210, Note Name: A3
Note OFF: Time 451210, Note Name: A4
Note OFF: Time 452160, Note Name: E4
Note OFF: Time 452160, Note Name: G3
Note OFF: Time 452160, Note Name: C4
Note ON: Time 452160, Note Name: B3, Velocity: 35
Note ON: Time 452160, Note Name: D4, Velocity: 35
Note OFF: Time 452640, Note Name: D4
Note OFF: Time 452640, Note Name: B3
Note OFF: Time 452640, Note Name: G4
Note ON: Time 452640, Note Name: D5, Velocity: 42
Note ON: Time 452640, Note Name: F5, Velocity: 46
Note OFF: Time 453120, Note Name: F5
Note OFF: Time 453120, Note Name: D5
Note ON: Time 453120, Note Name: C5, Velocity: 41
Note ON: Time 453120, Note Name: E5, Velocity: 49
Note OFF: Time 453180, Note Name: E5
Note OFF: Time 453180, Note Name: C5
Note ON: Time 453240, Note Name: G6, Velocity: 49
Note ON: Time 453240, Note Name: G5, Velocity: 41
Note ON: Time 453360, Note Name: F6, Velocity: 49
Note ON: Time 453360, Note Name: F5, Velocity: 41
Note OFF: Time 453370, Note Name: G5
Note OFF: Time 453370, Note Name: G6
Note ON: Time 453480, Note Name: E6, Velocity: 49
Note ON: Time 453480, Note Name: E5, Velocity: 41
Note OFF: Time 453490, Note Name: F6
Note OFF: Time 453490, Note Name: F5
Note ON: Time 453600, Note Name: D6, Velocity: 48
Note ON: Time 453600, Note Name: D5, Velocity: 40
Note OFF: Time 453610, Note Name: E6
Note OFF: Time 453610, Note Name: E5
Note ON: Time 453720, Note Name: C6, Velocity: 48
Note ON: Time 453720, Note Name: C5, Velocity: 40
Note OFF: Time 453730, Note Name: D6
Note OFF: Time 453730, Note Name: D5
Note ON: Time 453840, Note Name: B5, Velocity: 47
Note ON: Time 453840, Note Name: B4, Velocity: 39
Note OFF: Time 453850, Note Name: C6
Note OFF: Time 453850, Note Name: C5
Note ON: Time 453960, Note Name: A5, Velocity: 39
Note ON: Time 453960, Note Name: A4, Velocity: 39
Note OFF: Time 453970, Note Name: B5
Note OFF: Time 453970, Note Name: B4
Note ON: Time 454080, Note Name: G4, Velocity: 39
Note ON: Time 454080, Note Name: G5, Velocity: 47
Note OFF: Time 454090, Note Name: A5
Note OFF: Time 454090, Note Name: A4
Note OFF: Time 454320, Note Name: G4
Note OFF: Time 454320, Note Name: G5
Note ON: Time 454320, Note Name: F4, Velocity: 38
Note ON: Time 454320, Note Name: F5, Velocity: 45
Note ON: Time 454440, Note Name: E4, Velocity: 38
Note ON: Time 454440, Note Name: E5, Velocity: 45
Note OFF: Time 454450, Note Name: F5
Note OFF: Time 454450, Note Name: F4
Note ON: Time 454560, Note Name: D4, Velocity: 37
Note ON: Time 454560, Note Name: D5, Velocity: 44
Note OFF: Time 454570, Note Name: E4
Note OFF: Time 454570, Note Name: E5
Note ON: Time 454680, Note Name: C4, Velocity: 37
Note ON: Time 454680, Note Name: C5, Velocity: 44
Note OFF: Time 454690, Note Name: D4
Note OFF: Time 454690, Note Name: D5
Note ON: Time 454800, Note Name: B3, Velocity: 36
Note ON: Time 454800, Note Name: B4, Velocity: 43
Note OFF: Time 454810, Note Name: C4
Note OFF: Time 454810, Note Name: C5
Note ON: Time 454920, Note Name: A3, Velocity: 35
Note ON: Time 454920, Note Name: A4, Velocity: 42
Note OFF: Time 454930, Note Name: B3
Note OFF: Time 454930, Note Name: B4
Note ON: Time 455040, Note Name: G3, Velocity: 44
Note ON: Time 455040, Note Name: G4, Velocity: 44
Note OFF: Time 455050, Note Name: A3
Note OFF: Time 455050, Note Name: A4
Note ON: Time 455160, Note Name: A3, Velocity: 46
Note OFF: Time 455170, Note Name: G3
Note OFF: Time 455170, Note Name: G4
Note ON: Time 455280, Note Name: B3, Velocity: 47
Note OFF: Time 455290, Note Name: A3
Note ON: Time 455400, Note Name: C4, Velocity: 49
Note OFF: Time 455410, Note Name: B3
Note ON: Time 455520, Note Name: D4, Velocity: 51
Note OFF: Time 455530, Note Name: C4
Note ON: Time 455640, Note Name: E4, Velocity: 53
Note OFF: Time 455650, Note Name: D4
Note ON: Time 455760, Note Name: F4, Velocity: 54
Note OFF: Time 455770, Note Name: E4
Note ON: Time 455880, Note Name: F#4, Velocity: 56
Note OFF: Time 455890, Note Name: F4
Note ON: Time 456000, Note Name: G4, Velocity: 58
Note OFF: Time 456010, Note Name: F#4
Note ON: Time 456120, Note Name: A4, Velocity: 59
Note OFF: Time 456130, Note Name: G4
Note ON: Time 456240, Note Name: B4, Velocity: 61
Note OFF: Time 456250, Note Name: A4
Note ON: Time 456360, Note Name: C5, Velocity: 63
Note OFF: Time 456370, Note Name: B4
Note ON: Time 456480, Note Name: D5, Velocity: 65
Note OFF: Time 456490, Note Name: C5
Note ON: Time 456600, Note Name: E5, Velocity: 66
Note OFF: Time 456610, Note Name: D5
Note ON: Time 456720, Note Name: F5, Velocity: 68
Note OFF: Time 456730, Note Name: E5
Note ON: Time 456840, Note Name: F#5, Velocity: 70
Note OFF: Time 456850, Note Name: F5
Note OFF: Time 456970, Note Name: F#5
Note ON: Time 465120, Note Name: G6, Velocity: 57
Note OFF: Time 465600, Note Name: G6
Note ON: Time 465600, Note Name: G6, Velocity: 59
Note OFF: Time 466320, Note Name: G6
Note ON: Time 466320, Note Name: E6, Velocity: 50
Note OFF: Time 466560, Note Name: E6
Note ON: Time 466560, Note Name: D6, Velocity: 57
Note OFF: Time 467040, Note Name: D6
Note ON: Time 467040, Note Name: G5, Velocity: 50
Note OFF: Time 467110, Note Name: G5
Note ON: Time 467520, Note Name: C6, Velocity: 53
Note OFF: Time 468000, Note Name: C6
Note ON: Time 468000, Note Name: E6, Velocity: 53
Note OFF: Time 468240, Note Name: E6
Note ON: Time 468960, Note Name: G6, Velocity: 57
Note OFF: Time 469440, Note Name: G6
Note ON: Time 469440, Note Name: G6, Velocity: 59
Note OFF: Time 470160, Note Name: G6
Note ON: Time 470160, Note Name: E6, Velocity: 50
Note OFF: Time 470400, Note Name: E6
Note ON: Time 470400, Note Name: D6, Velocity: 57
Note OFF: Time 470880, Note Name: D6
Note ON: Time 470880, Note Name: G5, Velocity: 50
Note OFF: Time 470950, Note Name: G5
Note ON: Time 471360, Note Name: C6, Velocity: 53
Note OFF: Time 471600, Note Name: C6
Note ON: Time 472800, Note Name: G6, Velocity: 57
Note OFF: Time 473280, Note Name: G6
Note ON: Time 473280, Note Name: G6, Velocity: 59
Note OFF: Time 474000, Note Name: G6
Note ON: Time 474000, Note Name: D#6, Velocity: 50
Note OFF: Time 474240, Note Name: D#6
Note ON: Time 474240, Note Name: D6, Velocity: 57
Note OFF: Time 474720, Note Name: D6
Note ON: Time 474720, Note Name: G5, Velocity: 50
Note OFF: Time 474790, Note Name: G5
Note ON: Time 475200, Note Name: C6, Velocity: 53
Note OFF: Time 475440, Note Name: C6
Note ON: Time 476640, Note Name: D#6, Velocity: 57
Note OFF: Time 477120, Note Name: D#6
Note ON: Time 477120, Note Name: D#6, Velocity: 59
Note OFF: Time 477840, Note Name: D#6
Note ON: Time 477840, Note Name: C6, Velocity: 50
Note OFF: Time 478080, Note Name: C6
Note ON: Time 478080, Note Name: A#5, Velocity: 57
Note OFF: Time 478560, Note Name: A#5
Note ON: Time 478560, Note Name: D#5, Velocity: 50
Note OFF: Time 479040, Note Name: D#5
Note ON: Time 479040, Note Name: G#5, Velocity: 53
Note OFF: Time 479280, Note Name: G#5
Note ON: Time 480480, Note Name: C6, Velocity: 57
Note OFF: Time 480960, Note Name: C6
Note ON: Time 480960, Note Name: C6, Velocity: 59
Note OFF: Time 481680, Note Name: C6
Note ON: Time 481680, Note Name: G#5, Velocity: 50
Note OFF: Time 481920, Note Name: G#5
Note ON: Time 481920, Note Name: G5, Velocity: 57
Note OFF: Time 482400, Note Name: G5
Note ON: Time 482400, Note Name: C5, Velocity: 50
Note OFF: Time 482470, Note Name: C5
Note ON: Time 482880, Note Name: F5, Velocity: 57
Note OFF: Time 483600, Note Name: F5
Note ON: Time 483600, Note Name: G#5, Velocity: 53
Note OFF: Time 483840, Note Name: G#5
Note ON: Time 483840, Note Name: G5, Velocity: 57
Note OFF: Time 484320, Note Name: G5
Note ON: Time 484320, Note Name: C5, Velocity: 50
Note OFF: Time 484390, Note Name: C5
Note ON: Time 484800, Note Name: F5, Velocity: 57
Note OFF: Time 485280, Note Name: F5
Note ON: Time 485280, Note Name: D#5, Velocity: 53
Note OFF: Time 485760, Note Name: D#5
Note ON: Time 491760, Note Name: G5, Velocity: 63
Note OFF: Time 491998, Note Name: G5
Note ON: Time 492000, Note Name: G5, Velocity: 64
Note OFF: Time 492238, Note Name: G5
Note ON: Time 492240, Note Name: G5, Velocity: 66
Note OFF: Time 492478, Note Name: G5
Note ON: Time 492480, Note Name: G5, Velocity: 68
Note OFF: Time 492718, Note Name: G5
Note ON: Time 492720, Note Name: G5, Velocity: 69
Note OFF: Time 492958, Note Name: G5
Note ON: Time 492960, Note Name: G5, Velocity: 71
Note OFF: Time 493198, Note Name: G5
Note ON: Time 493200, Note Name: G5, Velocity: 72
Note OFF: Time 493440, Note Name: G5
Note ON: Time 493440, Note Name: C5, Velocity: 97
Note ON: Time 493440, Note Name: E5, Velocity: 97
Note OFF: Time 493680, Note Name: E5
Note OFF: Time 493680, Note Name: C5
Note ON: Time 493680, Note Name: G5, Velocity: 75
Note ON: Time 493680, Note Name: G6, Velocity: 75
Note OFF: Time 493800, Note Name: G6
Note OFF: Time 493920, Note Name: G5
Note ON: Time 493920, Note Name: G5, Velocity: 75
Note ON: Time 493920, Note Name: G6, Velocity: 79
Note OFF: Time 494280, Note Name: G6
Note ON: Time 494280, Note Name: E6, Velocity: 75
Note OFF: Time 494400, Note Name: E6
Note ON: Time 494400, Note Name: D6, Velocity: 81
Note OFF: Time 494640, Note Name: D6
Note OFF: Time 494640, Note Name: G5
Note ON: Time 494640, Note Name: G5, Velocity: 75
Note ON: Time 494880, Note Name: C6, Velocity: 75
Note OFF: Time 495120, Note Name: C6
Note ON: Time 495120, Note Name: E6, Velocity: 73
Note OFF: Time 495360, Note Name: E6
Note OFF: Time 495360, Note Name: G5
Note ON: Time 495600, Note Name: G4, Velocity: 50
Note ON: Time 495600, Note Name: G5, Velocity: 50
Note OFF: Time 495720, Note Name: G5
Note OFF: Time 495840, Note Name: G4
Note ON: Time 495840, Note Name: G4, Velocity: 50
Note ON: Time 495840, Note Name: G5, Velocity: 53
Note OFF: Time 496200, Note Name: G5
Note ON: Time 496200, Note Name: E5, Velocity: 50
Note OFF: Time 496320, Note Name: E5
Note ON: Time 496320, Note Name: D5, Velocity: 54
Note OFF: Time 496560, Note Name: D5
Note OFF: Time 496560, Note Name: G4
Note ON: Time 496560, Note Name: G4, Velocity: 50
Note ON: Time 496800, Note Name: C5, Velocity: 50
Note OFF: Time 497040, Note Name: C5
Note ON: Time 497040, Note Name: E5, Velocity: 49
Note OFF: Time 497280, Note Name: E5
Note OFF: Time 497280, Note Name: G4
Note ON: Time 497520, Note Name: G6, Velocity: 75
Note OFF: Time 497640, Note Name: G6
Note ON: Time 497640, Note Name: F#6, Velocity: 69
Note OFF: Time 497760, Note Name: F#6
Note ON: Time 497760, Note Name: G6, Velocity: 75
Note OFF: Time 497880, Note Name: G6
Note ON: Time 497880, Note Name: F#6, Velocity: 70
Note OFF: Time 498000, Note Name: F#6
Note ON: Time 498000, Note Name: G6, Velocity: 75
Note OFF: Time 498120, Note Name: G6
Note ON: Time 498120, Note Name: E6, Velocity: 70
Note OFF: Time 498240, Note Name: E6
Note ON: Time 498240, Note Name: D6, Velocity: 72
Note OFF: Time 498360, Note Name: D6
Note ON: Time 498360, Note Name: C#6, Velocity: 64
Note OFF: Time 498480, Note Name: C#6
Note ON: Time 498480, Note Name: D6, Velocity: 72
Note OFF: Time 498600, Note Name: D6
Note ON: Time 498600, Note Name: G5, Velocity: 67
Note OFF: Time 498720, Note Name: G5
Note ON: Time 498720, Note Name: C6, Velocity: 72
Note OFF: Time 498840, Note Name: C6
Note ON: Time 498840, Note Name: B5, Velocity: 66
Note OFF: Time 498960, Note Name: B5
Note ON: Time 498960, Note Name: C6, Velocity: 75
Note OFF: Time 499080, Note Name: C6
Note ON: Time 499080, Note Name: E6, Velocity: 69
Note OFF: Time 499200, Note Name: E6
Note ON: Time 499440, Note Name: G5, Velocity: 50
Note OFF: Time 499560, Note Name: G5
Note ON: Time 499560, Note Name: F#5, Velocity: 47
Note OFF: Time 499680, Note Name: F#5
Note ON: Time 499680, Note Name: G5, Velocity: 50
Note OFF: Time 499800, Note Name: G5
Note ON: Time 499800, Note Name: F#5, Velocity: 46
Note OFF: Time 499920, Note Name: F#5
Note ON: Time 499920, Note Name: G5, Velocity: 50
Note OFF: Time 500040, Note Name: G5
Note ON: Time 500040, Note Name: E5, Velocity: 44
Note OFF: Time 500160, Note Name: E5
Note ON: Time 500160, Note Name: D5, Velocity: 48
Note OFF: Time 500280, Note Name: D5
Note ON: Time 500280, Note Name: C#5, Velocity: 45
Note OFF: Time 500400, Note Name: C#5
Note ON: Time 500400, Note Name: D5, Velocity: 49
Note OFF: Time 500520, Note Name: D5
Note ON: Time 500520, Note Name: G4, Velocity: 45
Note OFF: Time 500640, Note Name: G4
Note ON: Time 500640, Note Name: C5, Velocity: 49
Note OFF: Time 500760, Note Name: C5
Note ON: Time 500760, Note Name: B4, Velocity: 46
Note OFF: Time 500880, Note Name: B4
Note ON: Time 500880, Note Name: C5, Velocity: 49
Note OFF: Time 501000, Note Name: C5
Note ON: Time 501000, Note Name: E5, Velocity: 46
Note OFF: Time 501120, Note Name: E5
Note ON: Time 501120, Note Name: D4, Velocity: 50
Note OFF: Time 501240, Note Name: D4
Note ON: Time 501240, Note Name: C#4, Velocity: 45
Note OFF: Time 501360, Note Name: C#4
Note ON: Time 501360, Note Name: D4, Velocity: 51
Note OFF: Time 501480, Note Name: D4
Note ON: Time 501480, Note Name: G3, Velocity: 46
Note OFF: Time 501600, Note Name: G3
Note ON: Time 501600, Note Name: C4, Velocity: 51
Note ON: Time 501720, Note Name: B3, Velocity: 46
Note OFF: Time 501730, Note Name: C4
Note ON: Time 501840, Note Name: C4, Velocity: 51
Note OFF: Time 501850, Note Name: B3
Note ON: Time 501960, Note Name: E4, Velocity: 46
Note OFF: Time 501970, Note Name: C4
Note OFF: Time 502080, Note Name: E4
Note ON: Time 502080, Note Name: D4, Velocity: 50
Note OFF: Time 502200, Note Name: D4
Note ON: Time 502200, Note Name: C#4, Velocity: 45
Note OFF: Time 502320, Note Name: C#4
Note ON: Time 502320, Note Name: D4, Velocity: 51
Note OFF: Time 502440, Note Name: D4
Note ON: Time 502440, Note Name: G3, Velocity: 46
Note OFF: Time 502560, Note Name: G3
Note ON: Time 502560, Note Name: C4, Velocity: 51
Note ON: Time 502680, Note Name: B3, Velocity: 46
Note OFF: Time 502690, Note Name: C4
Note ON: Time 502800, Note Name: C4, Velocity: 51
Note OFF: Time 502810, Note Name: B3
Note ON: Time 502920, Note Name: E4, Velocity: 46
Note OFF: Time 502930, Note Name: C4
Note OFF: Time 503040, Note Name: E4
Note ON: Time 503040, Note Name: D4, Velocity: 55
Note OFF: Time 503160, Note Name: D4
Note ON: Time 503160, Note Name: C#4, Velocity: 49
Note OFF: Time 503280, Note Name: C#4
Note ON: Time 503280, Note Name: D4, Velocity: 57
Note OFF: Time 503400, Note Name: D4
Note ON: Time 503400, Note Name: B3, Velocity: 52
Note OFF: Time 503520, Note Name: B3
Note ON: Time 503520, Note Name: F4, Velocity: 59
Note ON: Time 503640, Note Name: E4, Velocity: 54
Note OFF: Time 503650, Note Name: F4
Note ON: Time 503760, Note Name: F4, Velocity: 61
Note OFF: Time 503770, Note Name: E4
Note ON: Time 503880, Note Name: D4, Velocity: 56
Note OFF: Time 503890, Note Name: F4
Note OFF: Time 504000, Note Name: D4
Note ON: Time 504000, Note Name: B4, Velocity: 62
Note OFF: Time 504120, Note Name: B4
Note ON: Time 504120, Note Name: A#4, Velocity: 56
Note OFF: Time 504240, Note Name: A#4
Note ON: Time 504240, Note Name: B4, Velocity: 65
Note OFF: Time 504360, Note Name: B4
Note ON: Time 504360, Note Name: F4, Velocity: 59
Note OFF: Time 504480, Note Name: F4
Note ON: Time 504480, Note Name: D5, Velocity: 67
Note ON: Time 504600, Note Name: C#5, Velocity: 61
Note OFF: Time 504610, Note Name: D5
Note ON: Time 504720, Note Name: D5, Velocity: 69
Note OFF: Time 504730, Note Name: C#5
Note ON: Time 504840, Note Name: B4, Velocity: 63
Note OFF: Time 504850, Note Name: D5
Note OFF: Time 504960, Note Name: B4
Note ON: Time 504960, Note Name: F5, Velocity: 70
Note OFF: Time 505080, Note Name: F5
Note ON: Time 505080, Note Name: E5, Velocity: 63
Note OFF: Time 505200, Note Name: E5
Note ON: Time 505200, Note Name: F5, Velocity: 71
Note OFF: Time 505320, Note Name: F5
Note ON: Time 505320, Note Name: D5, Velocity: 65
Note OFF: Time 505440, Note Name: D5
Note ON: Time 505440, Note Name: B5, Velocity: 73
Note ON: Time 505560, Note Name: A#5, Velocity: 66
Note OFF: Time 505570, Note Name: B5
Note ON: Time 505680, Note Name: B5, Velocity: 73
Note OFF: Time 505690, Note Name: A#5
Note ON: Time 505800, Note Name: F5, Velocity: 67
Note OFF: Time 505810, Note Name: B5
Note OFF: Time 505920, Note Name: F5
Note ON: Time 505920, Note Name: D6, Velocity: 74
Note OFF: Time 506040, Note Name: D6
Note ON: Time 506040, Note Name: C#6, Velocity: 67
Note OFF: Time 506160, Note Name: C#6
Note ON: Time 506160, Note Name: D6, Velocity: 76
Note OFF: Time 506280, Note Name: D6
Note ON: Time 506280, Note Name: B5, Velocity: 69
Note OFF: Time 506400, Note Name: B5
Note ON: Time 506400, Note Name: F6, Velocity: 77
Note ON: Time 506520, Note Name: E6, Velocity: 70
Note OFF: Time 506530, Note Name: F6
Note ON: Time 506640, Note Name: F6, Velocity: 78
Note OFF: Time 506650, Note Name: E6
Note ON: Time 506760, Note Name: B5, Velocity: 71
Note OFF: Time 506770, Note Name: F6
Note OFF: Time 506880, Note Name: B5
Note ON: Time 506880, Note Name: C6, Velocity: 91
Note OFF: Time 507120, Note Name: C6
Note ON: Time 507120, Note Name: E4, Velocity: 68
Note ON: Time 507120, Note Name: G4, Velocity: 81
Note OFF: Time 507240, Note Name: G4
Note OFF: Time 507240, Note Name: E4
Note ON: Time 507360, Note Name: C4, Velocity: 72
Note ON: Time 507360, Note Name: E4, Velocity: 85
Note OFF: Time 507480, Note Name: E4
Note OFF: Time 507480, Note Name: C4
Note ON: Time 507600, Note Name: G4, Velocity: 68
Note ON: Time 507600, Note Name: C5, Velocity: 81
Note OFF: Time 507720, Note Name: C5
Note OFF: Time 507720, Note Name: G4
Note ON: Time 507840, Note Name: E4, Velocity: 71
Note ON: Time 507840, Note Name: G4, Velocity: 84
Note OFF: Time 507960, Note Name: G4
Note OFF: Time 507960, Note Name: E4
Note ON: Time 508080, Note Name: C5, Velocity: 68
Note ON: Time 508080, Note Name: E5, Velocity: 81
Note OFF: Time 508200, Note Name: E5
Note OFF: Time 508200, Note Name: C5
Note ON: Time 508320, Note Name: G4, Velocity: 73
Note ON: Time 508320, Note Name: C5, Velocity: 86
Note OFF: Time 508440, Note Name: C5
Note OFF: Time 508440, Note Name: G4
Note ON: Time 508560, Note Name: E5, Velocity: 68
Note ON: Time 508560, Note Name: G5, Velocity: 81
Note OFF: Time 508680, Note Name: G5
Note OFF: Time 508680, Note Name: E5
Note ON: Time 508800, Note Name: C5, Velocity: 73
Note ON: Time 508800, Note Name: E5, Velocity: 86
Note OFF: Time 508920, Note Name: E5
Note OFF: Time 508920, Note Name: C5
Note ON: Time 509040, Note Name: C6, Velocity: 81
Note ON: Time 509040, Note Name: G5, Velocity: 68
Note OFF: Time 509160, Note Name: G5
Note OFF: Time 509160, Note Name: C6
Note ON: Time 509280, Note Name: E5, Velocity: 73
Note ON: Time 509280, Note Name: G5, Velocity: 86
Note OFF: Time 509400, Note Name: G5
Note OFF: Time 509400, Note Name: E5
Note ON: Time 509520, Note Name: E6, Velocity: 82
Note ON: Time 509520, Note Name: C6, Velocity: 69
Note OFF: Time 509640, Note Name: C6
Note OFF: Time 509640, Note Name: E6
Note ON: Time 509760, Note Name: C6, Velocity: 87
Note ON: Time 509760, Note Name: G5, Velocity: 73
Note OFF: Time 509880, Note Name: G5
Note OFF: Time 509880, Note Name: C6
Note ON: Time 510000, Note Name: G6, Velocity: 82
Note ON: Time 510000, Note Name: E6, Velocity: 69
Note OFF: Time 510120, Note Name: E6
Note OFF: Time 510120, Note Name: G6
Note ON: Time 510240, Note Name: C6, Velocity: 74
Note ON: Time 510240, Note Name: E6, Velocity: 88
Note OFF: Time 510360, Note Name: E6
Note OFF: Time 510360, Note Name: C6
Note ON: Time 510480, Note Name: G6, Velocity: 82
Note ON: Time 510480, Note Name: E6, Velocity: 69
Note OFF: Time 510600, Note Name: E6
Note OFF: Time 510600, Note Name: G6
Note ON: Time 510720, Note Name: E6, Velocity: 87
Note ON: Time 510720, Note Name: C6, Velocity: 73
Note OFF: Time 510840, Note Name: C6
Note OFF: Time 510840, Note Name: E6
Note ON: Time 511680, Note Name: E5, Velocity: 54
Note ON: Time 511680, Note Name: G5, Velocity: 76
Note OFF: Time 511920, Note Name: G5
Note OFF: Time 511920, Note Name: E5
Note ON: Time 512640, Note Name: C5, Velocity: 50
Note ON: Time 512640, Note Name: E5, Velocity: 70
Note OFF: Time 512880, Note Name: E5
Note OFF: Time 512880, Note Name: C5
Note ON: Time 513600, Note Name: E4, Velocity: 43
Note ON: Time 513600, Note Name: G4, Velocity: 60
Note OFF: Time 513840, Note Name: G4
Note OFF: Time 513840, Note Name: E4
Note ON: Time 514560, Note Name: C4, Velocity: 39
Note ON: Time 514560, Note Name: E4, Velocity: 56
Note OFF: Time 514800, Note Name: E4
Note OFF: Time 514800, Note Name: C4
Note ON: Time 515520, Note Name: E5, Velocity: 36
Note ON: Time 515520, Note Name: G5, Velocity: 43
Note OFF: Time 515760, Note Name: G5
Note OFF: Time 515760, Note Name: E5
Note ON: Time 516000, Note Name: E5, Velocity: 36
Note ON: Time 516000, Note Name: G5, Velocity: 43
Note OFF: Time 516240, Note Name: G5
Note OFF: Time 516240, Note Name: E5
Note ON: Time 516480, Note Name: C5, Velocity: 35
Note ON: Time 516480, Note Name: E5, Velocity: 42
Note OFF: Time 516720, Note Name: E5
Note OFF: Time 516720, Note Name: C5
Note ON: Time 517440, Note Name: G6, Velocity: 101
Note ON: Time 517440, Note Name: E6, Velocity: 101
Note ON: Time 517440, Note Name: C6, Velocity: 85
Note ON: Time 517440, Note Name: G5, Velocity: 85
Note OFF: Time 517560, Note Name: G5
Note OFF: Time 517560, Note Name: G6
Note OFF: Time 517560, Note Name: E6
Note OFF: Time 517560, Note Name: C6
Note ON: Time 517920, Note Name: G5, Velocity: 85
Note ON: Time 517920, Note Name: C6, Velocity: 85
Note ON: Time 517920, Note Name: E6, Velocity: 101
Note ON: Time 517920, Note Name: G6, Velocity: 101
Note OFF: Time 518040, Note Name: G6
Note OFF: Time 518040, Note Name: G5
Note OFF: Time 518040, Note Name: C6
Note OFF: Time 518040, Note Name: E6
Note ON: Time 518400, Note Name: E6, Velocity: 101
Note ON: Time 518400, Note Name: C6, Velocity: 101
Note ON: Time 518400, Note Name: G5, Velocity: 85
Note ON: Time 518400, Note Name: E5, Velocity: 85
Note OFF: Time 518520, Note Name: E5
Note OFF: Time 518520, Note Name: E6
Note OFF: Time 518520, Note Name: C6
Note OFF: Time 518520, Note Name: G5
Note ON: Time 519360, Note Name: E4, Velocity: 85
Note ON: Time 519360, Note Name: G4, Velocity: 85
Note ON: Time 519360, Note Name: C5, Velocity: 101
Note ON: Time 519360, Note Name: E5, Velocity: 101
Note OFF: Time 519480, Note Name: E5
Note OFF: Time 519480, Note Name: E4
Note OFF: Time 519480, Note Name: G4
Note OFF: Time 519480, Note Name: C5
Note ON: Time 520320, Note Name: C4, Velocity: 85
Note ON: Time 520320, Note Name: E4, Velocity: 85
Note ON: Time 520320, Note Name: G4, Velocity: 101
Note ON: Time 520320, Note Name: C5, Velocity: 101
Note OFF: Time 520440, Note Name: C5
Note OFF: Time 520440, Note Name: C4
Note OFF: Time 520440, Note Name: E4
Note OFF: Time 520440, Note Name: G4
Track 3: Piano left
Note ON: Time 0, Note Name: C2, Velocity: 50
Note OFF: Time 240, Note Name: C2
Note ON: Time 480, Note Name: G5, Velocity: 50
Note OFF: Time 720, Note Name: G5
Note ON: Time 960, Note Name: G5, Velocity: 54
Note OFF: Time 1680, Note Name: G5
Note ON: Time 1680, Note Name: E5, Velocity: 47
Note OFF: Time 1920, Note Name: E5
Note ON: Time 1920, Note Name: D5, Velocity: 50
Note OFF: Time 2400, Note Name: D5
Note ON: Time 2400, Note Name: G4, Velocity: 41
Note OFF: Time 2880, Note Name: G4
Note ON: Time 2880, Note Name: C5, Velocity: 50
Note OFF: Time 3360, Note Name: C5
Note ON: Time 3360, Note Name: E5, Velocity: 47
Note OFF: Time 3600, Note Name: E5
Note ON: Time 3720, Note Name: C3, Velocity: 31
Note OFF: Time 3840, Note Name: C3
Note ON: Time 3840, Note Name: C2, Velocity: 50
Note OFF: Time 4080, Note Name: C2
Note ON: Time 4320, Note Name: G5, Velocity: 50
Note OFF: Time 4560, Note Name: G5
Note ON: Time 4800, Note Name: G5, Velocity: 54
Note OFF: Time 5520, Note Name: G5
Note ON: Time 5520, Note Name: E5, Velocity: 47
Note OFF: Time 5760, Note Name: E5
Note ON: Time 5760, Note Name: D5, Velocity: 50
Note OFF: Time 6240, Note Name: D5
Note ON: Time 6240, Note Name: G4, Velocity: 41
Note OFF: Time 6720, Note Name: G4
Note ON: Time 6720, Note Name: C5, Velocity: 50
Note OFF: Time 6960, Note Name: C5
Note ON: Time 7560, Note Name: G2, Velocity: 30
Note OFF: Time 7680, Note Name: G2
Note ON: Time 7680, Note Name: G1, Velocity: 45
Note OFF: Time 7920, Note Name: G1
Note ON: Time 8160, Note Name: F5, Velocity: 50
Note OFF: Time 8400, Note Name: F5
Note ON: Time 8640, Note Name: F5, Velocity: 54
Note OFF: Time 9360, Note Name: F5
Note ON: Time 9360, Note Name: D5, Velocity: 47
Note OFF: Time 9600, Note Name: D5
Note ON: Time 9600, Note Name: E5, Velocity: 50
Note OFF: Time 10080, Note Name: E5
Note ON: Time 10080, Note Name: C5, Velocity: 41
Note OFF: Time 10560, Note Name: C5
Note ON: Time 10560, Note Name: B4, Velocity: 50
Note OFF: Time 11040, Note Name: B4
Note ON: Time 11040, Note Name: D5, Velocity: 47
Note OFF: Time 11280, Note Name: D5
Note ON: Time 11400, Note Name: G2, Velocity: 32
Note OFF: Time 11520, Note Name: G2
Note ON: Time 11520, Note Name: G1, Velocity: 48
Note OFF: Time 11760, Note Name: G1
Note ON: Time 12000, Note Name: F5, Velocity: 50
Note OFF: Time 12240, Note Name: F5
Note ON: Time 12480, Note Name: F5, Velocity: 54
Note OFF: Time 13200, Note Name: F5
Note ON: Time 13200, Note Name: D5, Velocity: 47
Note OFF: Time 13440, Note Name: D5
Note ON: Time 13440, Note Name: D#5, Velocity: 50
Note OFF: Time 13920, Note Name: D#5
Note ON: Time 13920, Note Name: C5, Velocity: 41
Note OFF: Time 14400, Note Name: C5
Note ON: Time 14400, Note Name: B4, Velocity: 50
Note OFF: Time 14880, Note Name: B4
Note ON: Time 14880, Note Name: D5, Velocity: 47
Note OFF: Time 15360, Note Name: D5
Note ON: Time 15360, Note Name: E5, Velocity: 50
Note OFF: Time 15840, Note Name: E5
Note ON: Time 15840, Note Name: C5, Velocity: 41
Note OFF: Time 16320, Note Name: C5
Note ON: Time 16320, Note Name: B4, Velocity: 50
Note OFF: Time 16800, Note Name: B4
Note ON: Time 16800, Note Name: D5, Velocity: 47
Note OFF: Time 17280, Note Name: D5
Note ON: Time 17280, Note Name: D#5, Velocity: 50
Note OFF: Time 17760, Note Name: D#5
Note ON: Time 17760, Note Name: C5, Velocity: 41
Note OFF: Time 18240, Note Name: C5
Note ON: Time 18240, Note Name: G5, Velocity: 50
Note OFF: Time 18715, Note Name: G5
Note ON: Time 18720, Note Name: G5, Velocity: 47
Note OFF: Time 19195, Note Name: G5
Note ON: Time 19200, Note Name: G5, Velocity: 50
Note OFF: Time 19675, Note Name: G5
Note ON: Time 19680, Note Name: G5, Velocity: 47
Note OFF: Time 20155, Note Name: G5
Note ON: Time 20160, Note Name: G5, Velocity: 50
Note OFF: Time 20635, Note Name: G5
Note ON: Time 20640, Note Name: G5, Velocity: 47
Note OFF: Time 21115, Note Name: G5
Note ON: Time 21120, Note Name: G5, Velocity: 47
Note OFF: Time 21600, Note Name: G5
Note ON: Time 28800, Note Name: C2, Velocity: 50
Note OFF: Time 28920, Note Name: C2
Note ON: Time 28920, Note Name: G2, Velocity: 30
Note OFF: Time 29040, Note Name: G2
Note ON: Time 29040, Note Name: C3, Velocity: 32
Note OFF: Time 29160, Note Name: C3
Note ON: Time 29160, Note Name: E3, Velocity: 34
Note OFF: Time 29280, Note Name: E3
Note ON: Time 29280, Note Name: G3, Velocity: 31
Note OFF: Time 29400, Note Name: G3
Note ON: Time 29400, Note Name: C3, Velocity: 31
Note OFF: Time 29520, Note Name: C3
Note ON: Time 29520, Note Name: E3, Velocity: 31
Note OFF: Time 29640, Note Name: E3
Note ON: Time 29640, Note Name: G3, Velocity: 35
Note OFF: Time 29760, Note Name: G3
Note ON: Time 29760, Note Name: C4, Velocity: 30
Note OFF: Time 29880, Note Name: C4
Note ON: Time 29880, Note Name: E3, Velocity: 31
Note OFF: Time 30000, Note Name: E3
Note ON: Time 30000, Note Name: G3, Velocity: 33
Note OFF: Time 30120, Note Name: G3
Note ON: Time 30120, Note Name: C4, Velocity: 36
Note OFF: Time 30240, Note Name: C4
Note ON: Time 30240, Note Name: E4, Velocity: 33
Note OFF: Time 30360, Note Name: E4
Note ON: Time 30360, Note Name: G3, Velocity: 33
Note OFF: Time 30480, Note Name: G3
Note ON: Time 30480, Note Name: C4, Velocity: 33
Note OFF: Time 30600, Note Name: C4
Note ON: Time 30600, Note Name: E4, Velocity: 36
Note OFF: Time 30720, Note Name: E4
Note ON: Time 30720, Note Name: F4, Velocity: 28
Note OFF: Time 30840, Note Name: F4
Note ON: Time 30840, Note Name: E4, Velocity: 31
Note OFF: Time 30960, Note Name: E4
Note ON: Time 30960, Note Name: D4, Velocity: 33
Note OFF: Time 31080, Note Name: D4
Note ON: Time 31080, Note Name: C4, Velocity: 36
Note OFF: Time 31200, Note Name: C4
Note ON: Time 31200, Note Name: B3, Velocity: 33
Note OFF: Time 31320, Note Name: B3
Note ON: Time 31320, Note Name: A3, Velocity: 33
Note OFF: Time 31440, Note Name: A3
Note ON: Time 31440, Note Name: G3, Velocity: 34
Note OFF: Time 31560, Note Name: G3
Note ON: Time 31560, Note Name: F3, Velocity: 34
Note OFF: Time 31680, Note Name: F3
Note ON: Time 31680, Note Name: E3, Velocity: 28
Note OFF: Time 31800, Note Name: E3
Note ON: Time 31800, Note Name: G3, Velocity: 30
Note OFF: Time 31920, Note Name: G3
Note ON: Time 31920, Note Name: C3, Velocity: 32
Note OFF: Time 32040, Note Name: C3
Note ON: Time 32040, Note Name: E3, Velocity: 34
Note OFF: Time 32160, Note Name: E3
Note ON: Time 32160, Note Name: G2, Velocity: 32
Note OFF: Time 32280, Note Name: G2
Note ON: Time 32280, Note Name: C3, Velocity: 32
Note OFF: Time 32400, Note Name: C3
Note ON: Time 32400, Note Name: E2, Velocity: 33
Note OFF: Time 32520, Note Name: E2
Note ON: Time 32520, Note Name: G2, Velocity: 34
Note OFF: Time 32640, Note Name: G2
Note ON: Time 32640, Note Name: C2, Velocity: 50
Note OFF: Time 32760, Note Name: C2
Note ON: Time 32760, Note Name: G2, Velocity: 30
Note OFF: Time 32880, Note Name: G2
Note ON: Time 32880, Note Name: C3, Velocity: 32
Note OFF: Time 33000, Note Name: C3
Note ON: Time 33000, Note Name: E3, Velocity: 34
Note OFF: Time 33120, Note Name: E3
Note ON: Time 33120, Note Name: G3, Velocity: 31
Note OFF: Time 33240, Note Name: G3
Note ON: Time 33240, Note Name: C3, Velocity: 31
Note OFF: Time 33360, Note Name: C3
Note ON: Time 33360, Note Name: E3, Velocity: 31
Note OFF: Time 33480, Note Name: E3
Note ON: Time 33480, Note Name: G3, Velocity: 35
Note OFF: Time 33600, Note Name: G3
Note ON: Time 33600, Note Name: C4, Velocity: 30
Note OFF: Time 33720, Note Name: C4
Note ON: Time 33720, Note Name: E3, Velocity: 31
Note OFF: Time 33840, Note Name: E3
Note ON: Time 33840, Note Name: G3, Velocity: 33
Note OFF: Time 33960, Note Name: G3
Note ON: Time 33960, Note Name: C4, Velocity: 36
Note OFF: Time 34080, Note Name: C4
Note ON: Time 34080, Note Name: E4, Velocity: 33
Note OFF: Time 34200, Note Name: E4
Note ON: Time 34200, Note Name: G3, Velocity: 33
Note OFF: Time 34320, Note Name: G3
Note ON: Time 34320, Note Name: C4, Velocity: 33
Note OFF: Time 34440, Note Name: C4
Note ON: Time 34440, Note Name: E4, Velocity: 33
Note OFF: Time 34560, Note Name: E4
Note ON: Time 34560, Note Name: F4, Velocity: 28
Note OFF: Time 34680, Note Name: F4
Note ON: Time 34680, Note Name: E4, Velocity: 31
Note OFF: Time 34800, Note Name: E4
Note ON: Time 34800, Note Name: D4, Velocity: 33
Note OFF: Time 34920, Note Name: D4
Note ON: Time 34920, Note Name: C4, Velocity: 36
Note OFF: Time 35040, Note Name: C4
Note ON: Time 35040, Note Name: B3, Velocity: 33
Note OFF: Time 35160, Note Name: B3
Note ON: Time 35160, Note Name: G3, Velocity: 33
Note OFF: Time 35280, Note Name: G3
Note ON: Time 35280, Note Name: A3, Velocity: 34
Note OFF: Time 35400, Note Name: A3
Note ON: Time 35400, Note Name: B3, Velocity: 34
Note OFF: Time 35520, Note Name: B3
Note ON: Time 35520, Note Name: C4, Velocity: 28
Note OFF: Time 35640, Note Name: C4
Note ON: Time 35640, Note Name: B3, Velocity: 30
Note OFF: Time 35760, Note Name: B3
Note ON: Time 35760, Note Name: A3, Velocity: 32
Note OFF: Time 35880, Note Name: A3
Note ON: Time 35880, Note Name: G3, Velocity: 34
Note OFF: Time 36000, Note Name: G3
Note ON: Time 36000, Note Name: F3, Velocity: 32
Note OFF: Time 36120, Note Name: F3
Note ON: Time 36120, Note Name: E3, Velocity: 32
Note OFF: Time 36240, Note Name: E3
Note ON: Time 36240, Note Name: D3, Velocity: 33
Note OFF: Time 36360, Note Name: D3
Note ON: Time 36360, Note Name: C3, Velocity: 35
Note OFF: Time 36480, Note Name: C3
Note ON: Time 36480, Note Name: G2, Velocity: 45
Note OFF: Time 36600, Note Name: G2
Note ON: Time 36600, Note Name: B2, Velocity: 30
Note OFF: Time 36720, Note Name: B2
Note ON: Time 36720, Note Name: D3, Velocity: 32
Note OFF: Time 36840, Note Name: D3
Note ON: Time 36840, Note Name: G3, Velocity: 34
Note OFF: Time 36960, Note Name: G3
Note ON: Time 36960, Note Name: B2, Velocity: 31
Note OFF: Time 37080, Note Name: B2
Note ON: Time 37080, Note Name: D3, Velocity: 31
Note OFF: Time 37200, Note Name: D3
Note ON: Time 37200, Note Name: G3, Velocity: 31
Note OFF: Time 37320, Note Name: G3
Note ON: Time 37320, Note Name: B3, Velocity: 35
Note OFF: Time 37440, Note Name: B3
Note ON: Time 37440, Note Name: D3, Velocity: 30
Note OFF: Time 37560, Note Name: D3
Note ON: Time 37560, Note Name: G3, Velocity: 31
Note OFF: Time 37680, Note Name: G3
Note ON: Time 37680, Note Name: B3, Velocity: 33
Note OFF: Time 37800, Note Name: B3
Note ON: Time 37800, Note Name: D4, Velocity: 36
Note OFF: Time 37920, Note Name: D4
Note ON: Time 37920, Note Name: G3, Velocity: 33
Note OFF: Time 38040, Note Name: G3
Note ON: Time 38040, Note Name: B3, Velocity: 33
Note OFF: Time 38160, Note Name: B3
Note ON: Time 38160, Note Name: D4, Velocity: 33
Note OFF: Time 38280, Note Name: D4
Note ON: Time 38280, Note Name: G4, Velocity: 36
Note OFF: Time 38400, Note Name: G4
Note ON: Time 38400, Note Name: G3, Velocity: 28
Note OFF: Time 38520, Note Name: G3
Note ON: Time 38520, Note Name: C4, Velocity: 31
Note OFF: Time 38640, Note Name: C4
Note ON: Time 38640, Note Name: G4, Velocity: 33
Note OFF: Time 38760, Note Name: G4
Note ON: Time 38760, Note Name: C4, Velocity: 36
Note OFF: Time 38880, Note Name: C4
Note ON: Time 38880, Note Name: G3, Velocity: 28
Note OFF: Time 39000, Note Name: G3
Note ON: Time 39000, Note Name: E4, Velocity: 31
Note OFF: Time 39120, Note Name: E4
Note ON: Time 39120, Note Name: G4, Velocity: 33
Note OFF: Time 39240, Note Name: G4
Note ON: Time 39240, Note Name: E4, Velocity: 36
Note OFF: Time 39360, Note Name: E4
Note ON: Time 39360, Note Name: G3, Velocity: 28
Note OFF: Time 39480, Note Name: G3
Note ON: Time 39480, Note Name: D4, Velocity: 30
Note OFF: Time 39600, Note Name: D4
Note ON: Time 39600, Note Name: G4, Velocity: 32
Note OFF: Time 39720, Note Name: G4
Note ON: Time 39720, Note Name: D4, Velocity: 36
Note OFF: Time 39840, Note Name: D4
Note ON: Time 39840, Note Name: G3, Velocity: 28
Note OFF: Time 39960, Note Name: G3
Note ON: Time 39960, Note Name: B3, Velocity: 30
Note OFF: Time 40080, Note Name: B3
Note ON: Time 40080, Note Name: G4, Velocity: 32
Note OFF: Time 40200, Note Name: G4
Note ON: Time 40200, Note Name: B3, Velocity: 35
Note OFF: Time 40320, Note Name: B3
Note ON: Time 40320, Note Name: G2, Velocity: 48
Note OFF: Time 40440, Note Name: G2
Note ON: Time 40440, Note Name: B2, Velocity: 30
Note OFF: Time 40560, Note Name: B2
Note ON: Time 40560, Note Name: D3, Velocity: 32
Note OFF: Time 40680, Note Name: D3
Note ON: Time 40680, Note Name: G3, Velocity: 34
Note OFF: Time 40800, Note Name: G3
Note ON: Time 40800, Note Name: B2, Velocity: 31
Note OFF: Time 40920, Note Name: B2
Note ON: Time 40920, Note Name: D3, Velocity: 31
Note OFF: Time 41040, Note Name: D3
Note ON: Time 41040, Note Name: G3, Velocity: 31
Note OFF: Time 41160, Note Name: G3
Note ON: Time 41160, Note Name: B3, Velocity: 35
Note OFF: Time 41280, Note Name: B3
Note ON: Time 41280, Note Name: D3, Velocity: 30
Note OFF: Time 41400, Note Name: D3
Note ON: Time 41400, Note Name: G3, Velocity: 31
Note OFF: Time 41520, Note Name: G3
Note ON: Time 41520, Note Name: B3, Velocity: 33
Note OFF: Time 41640, Note Name: B3
Note ON: Time 41640, Note Name: D4, Velocity: 36
Note OFF: Time 41760, Note Name: D4
Note ON: Time 41760, Note Name: G3, Velocity: 33
Note OFF: Time 41880, Note Name: G3
Note ON: Time 41880, Note Name: B3, Velocity: 33
Note OFF: Time 42000, Note Name: B3
Note ON: Time 42000, Note Name: D4, Velocity: 33
Note OFF: Time 42120, Note Name: D4
Note ON: Time 42120, Note Name: G4, Velocity: 36
Note OFF: Time 42240, Note Name: G4
Note ON: Time 42240, Note Name: G3, Velocity: 28
Note OFF: Time 42360, Note Name: G3
Note ON: Time 42360, Note Name: C4, Velocity: 31
Note OFF: Time 42480, Note Name: C4
Note ON: Time 42480, Note Name: G4, Velocity: 33
Note OFF: Time 42600, Note Name: G4
Note ON: Time 42600, Note Name: C4, Velocity: 35
Note OFF: Time 42720, Note Name: C4
Note ON: Time 42720, Note Name: G3, Velocity: 28
Note OFF: Time 42840, Note Name: G3
Note ON: Time 42840, Note Name: D#4, Velocity: 31
Note OFF: Time 42960, Note Name: D#4
Note ON: Time 42960, Note Name: G4, Velocity: 33
Note OFF: Time 43080, Note Name: G4
Note ON: Time 43080, Note Name: D#4, Velocity: 35
Note OFF: Time 43200, Note Name: D#4
Note ON: Time 43200, Note Name: G3, Velocity: 28
Note OFF: Time 43320, Note Name: G3
Note ON: Time 43320, Note Name: D4, Velocity: 30
Note OFF: Time 43440, Note Name: D4
Note ON: Time 43440, Note Name: G4, Velocity: 32
Note OFF: Time 43560, Note Name: G4
Note ON: Time 43560, Note Name: D4, Velocity: 35
Note OFF: Time 43680, Note Name: D4
Note ON: Time 43680, Note Name: G3, Velocity: 28
Note OFF: Time 43800, Note Name: G3
Note ON: Time 43800, Note Name: B3, Velocity: 30
Note OFF: Time 43920, Note Name: B3
Note ON: Time 43920, Note Name: G4, Velocity: 32
Note OFF: Time 44040, Note Name: G4
Note ON: Time 44040, Note Name: B3, Velocity: 35
Note OFF: Time 44160, Note Name: B3
Note ON: Time 44160, Note Name: G3, Velocity: 28
Note OFF: Time 44280, Note Name: G3
Note ON: Time 44280, Note Name: C4, Velocity: 31
Note OFF: Time 44400, Note Name: C4
Note ON: Time 44400, Note Name: G4, Velocity: 33
Note OFF: Time 44520, Note Name: G4
Note ON: Time 44520, Note Name: C4, Velocity: 35
Note OFF: Time 44640, Note Name: C4
Note ON: Time 44640, Note Name: G3, Velocity: 28
Note OFF: Time 44760, Note Name: G3
Note ON: Time 44760, Note Name: E4, Velocity: 32
Note OFF: Time 44880, Note Name: E4
Note ON: Time 44880, Note Name: G4, Velocity: 34
Note OFF: Time 45000, Note Name: G4
Note ON: Time 45000, Note Name: E4, Velocity: 37
Note OFF: Time 45120, Note Name: E4
Note ON: Time 45120, Note Name: G3, Velocity: 29
Note OFF: Time 45240, Note Name: G3
Note ON: Time 45240, Note Name: D4, Velocity: 32
Note OFF: Time 45360, Note Name: D4
Note ON: Time 45360, Note Name: G4, Velocity: 34
Note OFF: Time 45480, Note Name: G4
Note ON: Time 45480, Note Name: D4, Velocity: 38
Note OFF: Time 45600, Note Name: D4
Note ON: Time 45600, Note Name: G3, Velocity: 31
Note OFF: Time 45720, Note Name: G3
Note ON: Time 45720, Note Name: B3, Velocity: 33
Note OFF: Time 45840, Note Name: B3
Note ON: Time 45840, Note Name: G4, Velocity: 36
Note OFF: Time 45960, Note Name: G4
Note ON: Time 45960, Note Name: B3, Velocity: 39
Note OFF: Time 46080, Note Name: B3
Note ON: Time 46080, Note Name: G3, Velocity: 28
Note OFF: Time 46200, Note Name: G3
Note ON: Time 46200, Note Name: C4, Velocity: 31
Note OFF: Time 46320, Note Name: C4
Note ON: Time 46320, Note Name: G4, Velocity: 33
Note OFF: Time 46440, Note Name: G4
Note ON: Time 46440, Note Name: C4, Velocity: 35
Note OFF: Time 46560, Note Name: C4
Note ON: Time 46560, Note Name: G3, Velocity: 28
Note OFF: Time 46680, Note Name: G3
Note ON: Time 46680, Note Name: C4, Velocity: 31
Note OFF: Time 46800, Note Name: C4
Note ON: Time 46800, Note Name: D#4, Velocity: 33
Note OFF: Time 46920, Note Name: D#4
Note ON: Time 46920, Note Name: C4, Velocity: 35
Note OFF: Time 47040, Note Name: C4
Note ON: Time 47040, Note Name: G3, Velocity: 28
Note OFF: Time 47160, Note Name: G3
Note ON: Time 47160, Note Name: B3, Velocity: 30
Note OFF: Time 47280, Note Name: B3
Note ON: Time 47280, Note Name: D4, Velocity: 32
Note OFF: Time 47400, Note Name: D4
Note ON: Time 47400, Note Name: B3, Velocity: 35
Note OFF: Time 47520, Note Name: B3
Note ON: Time 47520, Note Name: G3, Velocity: 28
Note OFF: Time 47640, Note Name: G3
Note ON: Time 47640, Note Name: C4, Velocity: 30
Note OFF: Time 47760, Note Name: C4
Note ON: Time 47760, Note Name: D#4, Velocity: 32
Note OFF: Time 47880, Note Name: D#4
Note ON: Time 47880, Note Name: C4, Velocity: 35
Note OFF: Time 48000, Note Name: C4
Note ON: Time 48000, Note Name: G3, Velocity: 42
Note OFF: Time 48060, Note Name: G3
Note ON: Time 48120, Note Name: B3, Velocity: 27
Note OFF: Time 48240, Note Name: B3
Note ON: Time 48240, Note Name: D4, Velocity: 27
Note OFF: Time 48360, Note Name: D4
Note ON: Time 48360, Note Name: B3, Velocity: 28
Note OFF: Time 48480, Note Name: B3
Note ON: Time 48480, Note Name: G3, Velocity: 48
Note OFF: Time 48540, Note Name: G3
Note ON: Time 48600, Note Name: C4, Velocity: 29
Note OFF: Time 48720, Note Name: C4
Note ON: Time 48720, Note Name: E4, Velocity: 30
Note OFF: Time 48840, Note Name: E4
Note ON: Time 48840, Note Name: C4, Velocity: 31
Note OFF: Time 48960, Note Name: C4
Note ON: Time 48960, Note Name: G3, Velocity: 51
Note OFF: Time 49020, Note Name: G3
Note ON: Time 49080, Note Name: B3, Velocity: 32
Note OFF: Time 49200, Note Name: B3
Note ON: Time 49200, Note Name: D4, Velocity: 34
Note OFF: Time 49320, Note Name: D4
Note ON: Time 49320, Note Name: B3, Velocity: 34
Note OFF: Time 49440, Note Name: B3
Note ON: Time 49440, Note Name: G3, Velocity: 58
Note OFF: Time 49500, Note Name: G3
Note ON: Time 49560, Note Name: A3, Velocity: 35
Note OFF: Time 49680, Note Name: A3
Note ON: Time 49680, Note Name: C4, Velocity: 37
Note OFF: Time 49800, Note Name: C4
Note ON: Time 49800, Note Name: A3, Velocity: 39
Note OFF: Time 49920, Note Name: A3
Note ON: Time 49920, Note Name: G3, Velocity: 64
Note OFF: Time 49980, Note Name: G3
Note ON: Time 50040, Note Name: B3, Velocity: 42
Note OFF: Time 50160, Note Name: B3
Note ON: Time 50160, Note Name: A3, Velocity: 44
Note OFF: Time 50280, Note Name: A3
Note ON: Time 50280, Note Name: G3, Velocity: 45
Note OFF: Time 50400, Note Name: G3
Note ON: Time 50400, Note Name: F3, Velocity: 69
Note OFF: Time 50460, Note Name: F3
Note ON: Time 50520, Note Name: A3, Velocity: 50
Note OFF: Time 50640, Note Name: A3
Note ON: Time 50640, Note Name: G3, Velocity: 53
Note OFF: Time 50760, Note Name: G3
Note ON: Time 50760, Note Name: F3, Velocity: 56
Note OFF: Time 50880, Note Name: F3
Note ON: Time 50880, Note Name: E3, Velocity: 77
Note OFF: Time 50940, Note Name: E3
Note ON: Time 51000, Note Name: G3, Velocity: 60
Note OFF: Time 51120, Note Name: G3
Note ON: Time 51120, Note Name: F3, Velocity: 62
Note OFF: Time 51240, Note Name: F3
Note ON: Time 51240, Note Name: E3, Velocity: 64
Note OFF: Time 51360, Note Name: E3
Note ON: Time 51360, Note Name: D3, Velocity: 82
Note OFF: Time 51420, Note Name: D3
Note ON: Time 51480, Note Name: F3, Velocity: 64
Note OFF: Time 51600, Note Name: F3
Note ON: Time 51600, Note Name: E3, Velocity: 67
Note OFF: Time 51720, Note Name: E3
Note ON: Time 51720, Note Name: D3, Velocity: 71
Note OFF: Time 51840, Note Name: D3
Note ON: Time 51840, Note Name: C2, Velocity: 94
Note ON: Time 51840, Note Name: C3, Velocity: 94
Note ON: Time 51960, Note Name: D3, Velocity: 56
Note OFF: Time 52020, Note Name: D3
Note ON: Time 52020, Note Name: E3, Velocity: 57
Note OFF: Time 52080, Note Name: E3
Note OFF: Time 52080, Note Name: C3
Note OFF: Time 52080, Note Name: C2
Note ON: Time 52080, Note Name: F3, Velocity: 60
Note OFF: Time 52140, Note Name: F3
Note ON: Time 52140, Note Name: G3, Velocity: 60
Note OFF: Time 52200, Note Name: G3
Note ON: Time 52200, Note Name: A3, Velocity: 62
Note OFF: Time 52260, Note Name: A3
Note ON: Time 52260, Note Name: B3, Velocity: 63
Note OFF: Time 52320, Note Name: B3
Note ON: Time 52320, Note Name: C4, Velocity: 63
Note OFF: Time 52440, Note Name: C4
Note ON: Time 52440, Note Name: D4, Velocity: 65
Note OFF: Time 52500, Note Name: D4
Note ON: Time 52500, Note Name: E4, Velocity: 66
Note OFF: Time 52560, Note Name: E4
Note ON: Time 52560, Note Name: F4, Velocity: 67
Note OFF: Time 52620, Note Name: F4
Note ON: Time 52620, Note Name: G4, Velocity: 69
Note OFF: Time 52680, Note Name: G4
Note ON: Time 52680, Note Name: A4, Velocity: 70
Note OFF: Time 52740, Note Name: A4
Note ON: Time 52740, Note Name: B4, Velocity: 71
Note OFF: Time 52800, Note Name: B4
Note ON: Time 52800, Note Name: C5, Velocity: 74
Note OFF: Time 52860, Note Name: C5
Note ON: Time 52920, Note Name: B4, Velocity: 71
Note OFF: Time 52980, Note Name: B4
Note ON: Time 53040, Note Name: A4, Velocity: 71
Note OFF: Time 53100, Note Name: A4
Note ON: Time 53160, Note Name: G4, Velocity: 71
Note OFF: Time 53220, Note Name: G4
Note ON: Time 53280, Note Name: F4, Velocity: 72
Note OFF: Time 53340, Note Name: F4
Note ON: Time 53400, Note Name: E4, Velocity: 69
Note OFF: Time 53460, Note Name: E4
Note ON: Time 53520, Note Name: D4, Velocity: 69
Note OFF: Time 53580, Note Name: D4
Note ON: Time 53640, Note Name: C4, Velocity: 67
Note OFF: Time 53700, Note Name: C4
Note ON: Time 53760, Note Name: B3, Velocity: 73
Note OFF: Time 53820, Note Name: B3
Note ON: Time 53880, Note Name: C4, Velocity: 69
Note OFF: Time 53940, Note Name: C4
Note ON: Time 54000, Note Name: B3, Velocity: 69
Note OFF: Time 54060, Note Name: B3
Note ON: Time 54120, Note Name: A3, Velocity: 69
Note OFF: Time 54180, Note Name: A3
Note ON: Time 54240, Note Name: G3, Velocity: 75
Note OFF: Time 54300, Note Name: G3
Note ON: Time 54360, Note Name: F3, Velocity: 69
Note OFF: Time 54420, Note Name: F3
Note ON: Time 54480, Note Name: E3, Velocity: 69
Note OFF: Time 54540, Note Name: E3
Note ON: Time 54600, Note Name: D3, Velocity: 69
Note OFF: Time 54660, Note Name: D3
Note ON: Time 54720, Note Name: C3, Velocity: 75
Note OFF: Time 54780, Note Name: C3
Note ON: Time 54840, Note Name: C3, Velocity: 69
Note OFF: Time 54900, Note Name: C3
Note ON: Time 54960, Note Name: B2, Velocity: 69
Note OFF: Time 55020, Note Name: B2
Note ON: Time 55080, Note Name: A2, Velocity: 69
Note OFF: Time 55140, Note Name: A2
Note ON: Time 55200, Note Name: G2, Velocity: 72
Note OFF: Time 55260, Note Name: G2
Note ON: Time 55320, Note Name: F2, Velocity: 71
Note OFF: Time 55380, Note Name: F2
Note ON: Time 55440, Note Name: E2, Velocity: 75
Note OFF: Time 55500, Note Name: E2
Note ON: Time 55560, Note Name: D2, Velocity: 80
Note OFF: Time 55620, Note Name: D2
Note ON: Time 55680, Note Name: C2, Velocity: 95
Note ON: Time 55680, Note Name: C3, Velocity: 95
Note ON: Time 55800, Note Name: D3, Velocity: 56
Note OFF: Time 55860, Note Name: D3
Note ON: Time 55860, Note Name: E3, Velocity: 57
Note OFF: Time 55920, Note Name: E3
Note OFF: Time 55920, Note Name: C3
Note OFF: Time 55920, Note Name: C2
Note ON: Time 55920, Note Name: F3, Velocity: 60
Note OFF: Time 55980, Note Name: F3
Note ON: Time 55980, Note Name: G3, Velocity: 60
Note OFF: Time 56040, Note Name: G3
Note ON: Time 56040, Note Name: A3, Velocity: 62
Note OFF: Time 56100, Note Name: A3
Note ON: Time 56100, Note Name: B3, Velocity: 63
Note OFF: Time 56160, Note Name: B3
Note ON: Time 56160, Note Name: C4, Velocity: 63
Note OFF: Time 56280, Note Name: C4
Note ON: Time 56280, Note Name: D4, Velocity: 65
Note OFF: Time 56340, Note Name: D4
Note ON: Time 56340, Note Name: E4, Velocity: 66
Note OFF: Time 56400, Note Name: E4
Note ON: Time 56400, Note Name: F4, Velocity: 67
Note OFF: Time 56460, Note Name: F4
Note ON: Time 56460, Note Name: G4, Velocity: 69
Note OFF: Time 56520, Note Name: G4
Note ON: Time 56520, Note Name: A4, Velocity: 70
Note OFF: Time 56580, Note Name: A4
Note ON: Time 56580, Note Name: B4, Velocity: 71
Note OFF: Time 56640, Note Name: B4
Note ON: Time 56640, Note Name: C5, Velocity: 74
Note OFF: Time 56700, Note Name: C5
Note ON: Time 56760, Note Name: B4, Velocity: 71
Note OFF: Time 56820, Note Name: B4
Note ON: Time 56880, Note Name: A4, Velocity: 71
Note OFF: Time 56940, Note Name: A4
Note ON: Time 57000, Note Name: G4, Velocity: 71
Note OFF: Time 57060, Note Name: G4
Note ON: Time 57120, Note Name: F4, Velocity: 72
Note OFF: Time 57180, Note Name: F4
Note ON: Time 57240, Note Name: E4, Velocity: 69
Note OFF: Time 57300, Note Name: E4
Note ON: Time 57360, Note Name: D4, Velocity: 69
Note OFF: Time 57420, Note Name: D4
Note ON: Time 57480, Note Name: C4, Velocity: 67
Note OFF: Time 57540, Note Name: C4
Note ON: Time 57600, Note Name: B3, Velocity: 73
Note OFF: Time 57660, Note Name: B3
Note ON: Time 57720, Note Name: C4, Velocity: 69
Note OFF: Time 57780, Note Name: C4
Note ON: Time 57840, Note Name: B3, Velocity: 69
Note OFF: Time 57900, Note Name: B3
Note ON: Time 57960, Note Name: A3, Velocity: 69
Note OFF: Time 58020, Note Name: A3
Note ON: Time 58080, Note Name: G3, Velocity: 75
Note OFF: Time 58140, Note Name: G3
Note ON: Time 58200, Note Name: F3, Velocity: 69
Note OFF: Time 58260, Note Name: F3
Note ON: Time 58320, Note Name: E3, Velocity: 69
Note OFF: Time 58380, Note Name: E3
Note ON: Time 58440, Note Name: D3, Velocity: 69
Note OFF: Time 58500, Note Name: D3
Note ON: Time 58560, Note Name: C3, Velocity: 75
Note OFF: Time 58800, Note Name: C3
Note ON: Time 58800, Note Name: C2, Velocity: 75
Note OFF: Time 59040, Note Name: C2
Note ON: Time 59280, Note Name: C2, Velocity: 60
Note ON: Time 59280, Note Name: C3, Velocity: 71
Note OFF: Time 59520, Note Name: C3
Note OFF: Time 59520, Note Name: C2
Note ON: Time 59760, Note Name: C2, Velocity: 60
Note ON: Time 59760, Note Name: C3, Velocity: 71
Note OFF: Time 60000, Note Name: C3
Note OFF: Time 60000, Note Name: C2
Note ON: Time 60240, Note Name: C2, Velocity: 57
Note ON: Time 60240, Note Name: C3, Velocity: 68
Note OFF: Time 60480, Note Name: C3
Note OFF: Time 60480, Note Name: C2
Note ON: Time 60720, Note Name: C2, Velocity: 53
Note ON: Time 60720, Note Name: C3, Velocity: 63
Note OFF: Time 60960, Note Name: C3
Note OFF: Time 60960, Note Name: C2
Note ON: Time 61200, Note Name: C2, Velocity: 59
Note ON: Time 61200, Note Name: C3, Velocity: 70
Note OFF: Time 61440, Note Name: C3
Note OFF: Time 61440, Note Name: C2
Note ON: Time 61680, Note Name: C2, Velocity: 60
Note ON: Time 61680, Note Name: C3, Velocity: 71
Note OFF: Time 61920, Note Name: C3
Note OFF: Time 61920, Note Name: C2
Note ON: Time 62160, Note Name: C2, Velocity: 60
Note ON: Time 62160, Note Name: C3, Velocity: 71
Note OFF: Time 62400, Note Name: C3
Note OFF: Time 62400, Note Name: C2
Note ON: Time 62640, Note Name: C2, Velocity: 71
Note OFF: Time 62880, Note Name: C2
Note ON: Time 63120, Note Name: C3, Velocity: 60
Note ON: Time 63120, Note Name: E2, Velocity: 60
Note ON: Time 63120, Note Name: E3, Velocity: 71
Note OFF: Time 63360, Note Name: E3
Note OFF: Time 63360, Note Name: E2
Note OFF: Time 63360, Note Name: C3
Note ON: Time 63600, Note Name: C3, Velocity: 60
Note ON: Time 63600, Note Name: F2, Velocity: 60
Note ON: Time 63600, Note Name: F3, Velocity: 71
Note OFF: Time 63840, Note Name: F3
Note OFF: Time 63840, Note Name: F2
Note OFF: Time 63840, Note Name: C3
Note ON: Time 64080, Note Name: C3, Velocity: 57
Note ON: Time 64080, Note Name: E2, Velocity: 57
Note ON: Time 64080, Note Name: E3, Velocity: 68
Note OFF: Time 64320, Note Name: E3
Note OFF: Time 64320, Note Name: E2
Note OFF: Time 64320, Note Name: C3
Note ON: Time 64560, Note Name: C3, Velocity: 53
Note ON: Time 64560, Note Name: D2, Velocity: 53
Note ON: Time 64560, Note Name: D3, Velocity: 63
Note OFF: Time 64800, Note Name: D3
Note OFF: Time 64800, Note Name: D2
Note OFF: Time 64800, Note Name: C3
Note ON: Time 65040, Note Name: C3, Velocity: 59
Note ON: Time 65040, Note Name: D#2, Velocity: 59
Note ON: Time 65040, Note Name: D#3, Velocity: 70
Note OFF: Time 65280, Note Name: D#3
Note OFF: Time 65280, Note Name: D#2
Note OFF: Time 65280, Note Name: C3
Note ON: Time 65520, Note Name: C3, Velocity: 60
Note ON: Time 65520, Note Name: E2, Velocity: 60
Note ON: Time 65520, Note Name: E3, Velocity: 71
Note OFF: Time 65760, Note Name: E3
Note OFF: Time 65760, Note Name: E2
Note OFF: Time 65760, Note Name: C3
Note ON: Time 66000, Note Name: C3, Velocity: 60
Note ON: Time 66000, Note Name: D2, Velocity: 60
Note ON: Time 66000, Note Name: D3, Velocity: 71
Note OFF: Time 66240, Note Name: D3
Note OFF: Time 66240, Note Name: D2
Note OFF: Time 66240, Note Name: C3
Note ON: Time 66480, Note Name: C2, Velocity: 63
Note ON: Time 66480, Note Name: C3, Velocity: 63
Note OFF: Time 66720, Note Name: C3
Note OFF: Time 66720, Note Name: C2
Note ON: Time 66720, Note Name: E2, Velocity: 82
Note OFF: Time 66840, Note Name: E2
Note ON: Time 66960, Note Name: E2, Velocity: 82
Note OFF: Time 67080, Note Name: E2
Note ON: Time 67200, Note Name: A1, Velocity: 68
Note ON: Time 67200, Note Name: A2, Velocity: 80
Note OFF: Time 67320, Note Name: A2
Note OFF: Time 67320, Note Name: A1
Note ON: Time 67440, Note Name: B1, Velocity: 70
Note ON: Time 67440, Note Name: B2, Velocity: 83
Note OFF: Time 67560, Note Name: B2
Note OFF: Time 67560, Note Name: B1
Note ON: Time 67680, Note Name: C2, Velocity: 72
Note ON: Time 67680, Note Name: C3, Velocity: 85
Note OFF: Time 67800, Note Name: C3
Note OFF: Time 67800, Note Name: C2
Note ON: Time 67920, Note Name: D2, Velocity: 74
Note ON: Time 67920, Note Name: D3, Velocity: 89
Note OFF: Time 68040, Note Name: D3
Note OFF: Time 68040, Note Name: D2
Note ON: Time 68160, Note Name: E2, Velocity: 80
Note ON: Time 68160, Note Name: E3, Velocity: 95
Note OFF: Time 68640, Note Name: E3
Note OFF: Time 68640, Note Name: E2
Note ON: Time 68640, Note Name: E2, Velocity: 74
Note ON: Time 68640, Note Name: E3, Velocity: 88
Note OFF: Time 68760, Note Name: E3
Note OFF: Time 68760, Note Name: E2
Note ON: Time 68880, Note Name: D2, Velocity: 73
Note ON: Time 68880, Note Name: D3, Velocity: 86
Note OFF: Time 69000, Note Name: D3
Note OFF: Time 69000, Note Name: D2
Note ON: Time 69120, Note Name: C2, Velocity: 71
Note ON: Time 69120, Note Name: C3, Velocity: 84
Note OFF: Time 69240, Note Name: C3
Note OFF: Time 69240, Note Name: C2
Note ON: Time 69360, Note Name: B1, Velocity: 69
Note ON: Time 69360, Note Name: B2, Velocity: 82
Note OFF: Time 69480, Note Name: B2
Note OFF: Time 69480, Note Name: B1
Note ON: Time 69600, Note Name: C2, Velocity: 68
Note ON: Time 69600, Note Name: C3, Velocity: 80
Note OFF: Time 69720, Note Name: C3
Note OFF: Time 69720, Note Name: C2
Note ON: Time 69840, Note Name: A1, Velocity: 67
Note ON: Time 69840, Note Name: A2, Velocity: 79
Note OFF: Time 69960, Note Name: A2
Note OFF: Time 69960, Note Name: A1
Note ON: Time 70080, Note Name: E2, Velocity: 92
Note OFF: Time 70560, Note Name: E2
Note ON: Time 70560, Note Name: E2, Velocity: 69
Note ON: Time 70560, Note Name: E3, Velocity: 82
Note OFF: Time 70680, Note Name: E3
Note OFF: Time 70680, Note Name: E2
Note ON: Time 70800, Note Name: E2, Velocity: 69
Note ON: Time 70800, Note Name: E3, Velocity: 82
Note OFF: Time 70920, Note Name: E3
Note OFF: Time 70920, Note Name: E2
Note ON: Time 71040, Note Name: A2, Velocity: 68
Note ON: Time 71040, Note Name: A3, Velocity: 80
Note OFF: Time 71160, Note Name: A3
Note OFF: Time 71160, Note Name: A2
Note ON: Time 71280, Note Name: B2, Velocity: 70
Note ON: Time 71280, Note Name: B3, Velocity: 83
Note OFF: Time 71400, Note Name: B3
Note OFF: Time 71400, Note Name: B2
Note ON: Time 71520, Note Name: C3, Velocity: 72
Note ON: Time 71520, Note Name: C4, Velocity: 85
Note OFF: Time 71640, Note Name: C4
Note OFF: Time 71640, Note Name: C3
Note ON: Time 71760, Note Name: D3, Velocity: 74
Note ON: Time 71760, Note Name: D4, Velocity: 89
Note OFF: Time 71880, Note Name: D4
Note OFF: Time 71880, Note Name: D3
Note ON: Time 72000, Note Name: E3, Velocity: 80
Note ON: Time 72000, Note Name: E4, Velocity: 95
Note OFF: Time 72480, Note Name: E4
Note OFF: Time 72480, Note Name: E3
Note ON: Time 72480, Note Name: E3, Velocity: 74
Note ON: Time 72480, Note Name: E4, Velocity: 88
Note OFF: Time 72600, Note Name: E4
Note OFF: Time 72600, Note Name: E3
Note ON: Time 72720, Note Name: D3, Velocity: 73
Note ON: Time 72720, Note Name: D4, Velocity: 86
Note OFF: Time 72840, Note Name: D4
Note OFF: Time 72840, Note Name: D3
Note ON: Time 72960, Note Name: C3, Velocity: 71
Note ON: Time 72960, Note Name: C4, Velocity: 84
Note OFF: Time 73080, Note Name: C4
Note OFF: Time 73080, Note Name: C3
Note ON: Time 73200, Note Name: B2, Velocity: 69
Note ON: Time 73200, Note Name: B3, Velocity: 82
Note OFF: Time 73320, Note Name: B3
Note OFF: Time 73320, Note Name: B2
Note ON: Time 73440, Note Name: C3, Velocity: 68
Note ON: Time 73440, Note Name: C4, Velocity: 80
Note OFF: Time 73560, Note Name: C4
Note OFF: Time 73560, Note Name: C3
Note ON: Time 73680, Note Name: A2, Velocity: 67
Note ON: Time 73680, Note Name: A3, Velocity: 79
Note OFF: Time 73800, Note Name: A3
Note OFF: Time 73800, Note Name: A2
Note ON: Time 73920, Note Name: E2, Velocity: 70
Note ON: Time 73920, Note Name: E3, Velocity: 82
Note OFF: Time 74400, Note Name: E3
Note OFF: Time 74400, Note Name: E2
Note ON: Time 74400, Note Name: F2, Velocity: 56
Note ON: Time 74400, Note Name: A2, Velocity: 67
Note ON: Time 74400, Note Name: F3, Velocity: 79
Note OFF: Time 74520, Note Name: F3
Note OFF: Time 74520, Note Name: A2
Note OFF: Time 74520, Note Name: F2
Note ON: Time 74640, Note Name: F2, Velocity: 53
Note ON: Time 74640, Note Name: A2, Velocity: 63
Note ON: Time 74640, Note Name: F3, Velocity: 75
Note OFF: Time 74760, Note Name: F3
Note OFF: Time 74760, Note Name: A2
Note OFF: Time 74760, Note Name: F2
Note ON: Time 74880, Note Name: E2, Velocity: 56
Note ON: Time 74880, Note Name: A2, Velocity: 67
Note ON: Time 74880, Note Name: E3, Velocity: 79
Note OFF: Time 75000, Note Name: E3
Note OFF: Time 75000, Note Name: A2
Note OFF: Time 75000, Note Name: E2
Note ON: Time 75120, Note Name: E2, Velocity: 56
Note ON: Time 75120, Note Name: A2, Velocity: 67
Note ON: Time 75120, Note Name: E3, Velocity: 79
Note OFF: Time 75240, Note Name: E3
Note OFF: Time 75240, Note Name: A2
Note OFF: Time 75240, Note Name: E2
Note ON: Time 75360, Note Name: D2, Velocity: 56
Note ON: Time 75360, Note Name: A2, Velocity: 66
Note ON: Time 75360, Note Name: D3, Velocity: 78
Note OFF: Time 75480, Note Name: D3
Note OFF: Time 75480, Note Name: A2
Note OFF: Time 75480, Note Name: D2
Note ON: Time 75600, Note Name: D2, Velocity: 56
Note ON: Time 75600, Note Name: A2, Velocity: 66
Note ON: Time 75600, Note Name: D3, Velocity: 78
Note OFF: Time 75720, Note Name: D3
Note OFF: Time 75720, Note Name: A2
Note OFF: Time 75720, Note Name: D2
Note ON: Time 75840, Note Name: C2, Velocity: 56
Note ON: Time 75840, Note Name: A2, Velocity: 66
Note ON: Time 75840, Note Name: C3, Velocity: 78
Note OFF: Time 75960, Note Name: C3
Note OFF: Time 75960, Note Name: A2
Note OFF: Time 75960, Note Name: C2
Note ON: Time 76080, Note Name: C2, Velocity: 56
Note ON: Time 76080, Note Name: A2, Velocity: 67
Note ON: Time 76080, Note Name: C3, Velocity: 79
Note OFF: Time 76200, Note Name: C3
Note OFF: Time 76200, Note Name: A2
Note OFF: Time 76200, Note Name: C2
Note ON: Time 76320, Note Name: D2, Velocity: 53
Note ON: Time 76320, Note Name: A2, Velocity: 63
Note ON: Time 76320, Note Name: D3, Velocity: 75
Note OFF: Time 76440, Note Name: D3
Note OFF: Time 76440, Note Name: A2
Note OFF: Time 76440, Note Name: D2
Note ON: Time 76560, Note Name: D2, Velocity: 52
Note ON: Time 76560, Note Name: A2, Velocity: 62
Note ON: Time 76560, Note Name: D3, Velocity: 74
Note OFF: Time 76680, Note Name: D3
Note OFF: Time 76680, Note Name: A2
Note OFF: Time 76680, Note Name: D2
Note ON: Time 76800, Note Name: E2, Velocity: 56
Note ON: Time 76800, Note Name: A2, Velocity: 67
Note ON: Time 76800, Note Name: E3, Velocity: 79
Note OFF: Time 76920, Note Name: E3
Note OFF: Time 76920, Note Name: A2
Note OFF: Time 76920, Note Name: E2
Note ON: Time 77040, Note Name: E2, Velocity: 64
Note ON: Time 77040, Note Name: E3, Velocity: 77
Note OFF: Time 77160, Note Name: E3
Note OFF: Time 77160, Note Name: E2
Note ON: Time 77280, Note Name: E2, Velocity: 62
Note ON: Time 77280, Note Name: E3, Velocity: 74
Note OFF: Time 77400, Note Name: E3
Note OFF: Time 77400, Note Name: E2
Note ON: Time 77520, Note Name: E2, Velocity: 62
Note ON: Time 77520, Note Name: E3, Velocity: 74
Note OFF: Time 77640, Note Name: E3
Note OFF: Time 77640, Note Name: E2
Note ON: Time 77760, Note Name: C2, Velocity: 80
Note OFF: Time 77880, Note Name: C2
Note ON: Time 77880, Note Name: A2, Velocity: 66
Note OFF: Time 78000, Note Name: A2
Note ON: Time 78000, Note Name: G#2, Velocity: 66
Note OFF: Time 78120, Note Name: G#2
Note ON: Time 78120, Note Name: A2, Velocity: 66
Note OFF: Time 78240, Note Name: A2
Note ON: Time 78240, Note Name: F2, Velocity: 84
Note OFF: Time 78360, Note Name: F2
Note ON: Time 78360, Note Name: A2, Velocity: 64
Note OFF: Time 78480, Note Name: A2
Note ON: Time 78480, Note Name: G#2, Velocity: 64
Note OFF: Time 78600, Note Name: G#2
Note ON: Time 78600, Note Name: A2, Velocity: 64
Note OFF: Time 78720, Note Name: A2
Note ON: Time 78720, Note Name: E2, Velocity: 84
Note OFF: Time 78840, Note Name: E2
Note ON: Time 78840, Note Name: A2, Velocity: 67
Note OFF: Time 78960, Note Name: A2
Note ON: Time 78960, Note Name: G#2, Velocity: 67
Note OFF: Time 79080, Note Name: G#2
Note ON: Time 79080, Note Name: A2, Velocity: 67
Note OFF: Time 79200, Note Name: A2
Note ON: Time 79200, Note Name: D2, Velocity: 82
Note OFF: Time 79320, Note Name: D2
Note ON: Time 79320, Note Name: A2, Velocity: 66
Note OFF: Time 79440, Note Name: A2
Note ON: Time 79440, Note Name: G#2, Velocity: 66
Note OFF: Time 79560, Note Name: G#2
Note ON: Time 79560, Note Name: A2, Velocity: 66
Note OFF: Time 79680, Note Name: A2
Note ON: Time 79680, Note Name: C2, Velocity: 82
Note OFF: Time 79800, Note Name: C2
Note ON: Time 79800, Note Name: A2, Velocity: 63
Note OFF: Time 79920, Note Name: A2
Note ON: Time 79920, Note Name: G#2, Velocity: 66
Note OFF: Time 80040, Note Name: G#2
Note ON: Time 80040, Note Name: A2, Velocity: 67
Note OFF: Time 80160, Note Name: A2
Note ON: Time 80160, Note Name: D2, Velocity: 85
Note OFF: Time 80280, Note Name: D2
Note ON: Time 80280, Note Name: A2, Velocity: 66
Note OFF: Time 80400, Note Name: A2
Note ON: Time 80400, Note Name: D2, Velocity: 66
Note OFF: Time 80520, Note Name: D2
Note ON: Time 80520, Note Name: A2, Velocity: 66
Note OFF: Time 80640, Note Name: A2
Note ON: Time 80640, Note Name: E2, Velocity: 85
Note OFF: Time 80760, Note Name: E2
Note ON: Time 80760, Note Name: A2, Velocity: 67
Note OFF: Time 80880, Note Name: A2
Note ON: Time 80880, Note Name: E2, Velocity: 74
Note OFF: Time 81000, Note Name: E2
Note ON: Time 81000, Note Name: E3, Velocity: 67
Note OFF: Time 81120, Note Name: E3
Note ON: Time 81120, Note Name: E2, Velocity: 83
Note OFF: Time 81240, Note Name: E2
Note ON: Time 81240, Note Name: E3, Velocity: 66
Note OFF: Time 81360, Note Name: E3
Note ON: Time 81360, Note Name: E2, Velocity: 69
Note OFF: Time 81480, Note Name: E2
Note ON: Time 81480, Note Name: E3, Velocity: 63
Note OFF: Time 81600, Note Name: E3
Note ON: Time 81600, Note Name: A2, Velocity: 70
Note OFF: Time 81720, Note Name: A2
Note ON: Time 81720, Note Name: E3, Velocity: 67
Note OFF: Time 81840, Note Name: E3
Note ON: Time 81840, Note Name: C3, Velocity: 68
Note OFF: Time 81960, Note Name: C3
Note ON: Time 81960, Note Name: E3, Velocity: 68
Note OFF: Time 82080, Note Name: E3
Note ON: Time 82080, Note Name: A2, Velocity: 59
Note ON: Time 82080, Note Name: B2, Velocity: 70
Note OFF: Time 82200, Note Name: B2
Note ON: Time 82200, Note Name: E3, Velocity: 66
Note OFF: Time 82320, Note Name: E3
Note OFF: Time 82320, Note Name: A2
Note ON: Time 82320, Note Name: A2, Velocity: 55
Note ON: Time 82320, Note Name: D3, Velocity: 66
Note OFF: Time 82440, Note Name: D3
Note ON: Time 82440, Note Name: E3, Velocity: 66
Note OFF: Time 82560, Note Name: E3
Note OFF: Time 82560, Note Name: A2
Note ON: Time 82560, Note Name: A2, Velocity: 59
Note ON: Time 82560, Note Name: C3, Velocity: 70
Note OFF: Time 82680, Note Name: C3
Note ON: Time 82680, Note Name: E3, Velocity: 63
Note OFF: Time 82800, Note Name: E3
Note OFF: Time 82800, Note Name: A2
Note ON: Time 82800, Note Name: A2, Velocity: 53
Note ON: Time 82800, Note Name: C3, Velocity: 63
Note OFF: Time 82920, Note Name: C3
Note ON: Time 82920, Note Name: E3, Velocity: 63
Note OFF: Time 83040, Note Name: E3
Note OFF: Time 83040, Note Name: A2
Note ON: Time 83040, Note Name: A2, Velocity: 59
Note ON: Time 83040, Note Name: B2, Velocity: 70
Note OFF: Time 83160, Note Name: B2
Note ON: Time 83160, Note Name: E3, Velocity: 66
Note OFF: Time 83280, Note Name: E3
Note OFF: Time 83280, Note Name: A2
Note ON: Time 83280, Note Name: A2, Velocity: 55
Note ON: Time 83280, Note Name: D3, Velocity: 66
Note OFF: Time 83400, Note Name: D3
Note ON: Time 83400, Note Name: E3, Velocity: 66
Note OFF: Time 83520, Note Name: E3
Note OFF: Time 83520, Note Name: A2
Note ON: Time 83520, Note Name: A2, Velocity: 59
Note ON: Time 83520, Note Name: C3, Velocity: 70
Note OFF: Time 83640, Note Name: C3
Note ON: Time 83640, Note Name: A3, Velocity: 63
Note OFF: Time 83760, Note Name: A3
Note OFF: Time 83760, Note Name: A2
Note ON: Time 83760, Note Name: E3, Velocity: 63
Note OFF: Time 83880, Note Name: E3
Note ON: Time 83880, Note Name: A3, Velocity: 63
Note OFF: Time 84000, Note Name: A3
Note ON: Time 84000, Note Name: A2, Velocity: 36
Note ON: Time 84000, Note Name: D3, Velocity: 43
Note OFF: Time 84120, Note Name: D3
Note ON: Time 84120, Note Name: G#3, Velocity: 37
Note OFF: Time 84240, Note Name: G#3
Note OFF: Time 84240, Note Name: A2
Note ON: Time 84240, Note Name: E3, Velocity: 37
Note OFF: Time 84360, Note Name: E3
Note ON: Time 84360, Note Name: G#3, Velocity: 37
Note OFF: Time 84480, Note Name: G#3
Note ON: Time 84480, Note Name: A2, Velocity: 36
Note ON: Time 84480, Note Name: C3, Velocity: 44
Note OFF: Time 84600, Note Name: C3
Note ON: Time 84600, Note Name: A3, Velocity: 38
Note OFF: Time 84720, Note Name: A3
Note OFF: Time 84720, Note Name: A2
Note ON: Time 84720, Note Name: E3, Velocity: 38
Note OFF: Time 84840, Note Name: E3
Note ON: Time 84840, Note Name: A3, Velocity: 38
Note OFF: Time 84960, Note Name: A3
Note ON: Time 84960, Note Name: A2, Velocity: 36
Note ON: Time 84960, Note Name: D3, Velocity: 44
Note OFF: Time 85080, Note Name: D3
Note ON: Time 85080, Note Name: G#3, Velocity: 38
Note OFF: Time 85200, Note Name: G#3
Note OFF: Time 85200, Note Name: A2
Note ON: Time 85200, Note Name: E3, Velocity: 38
Note OFF: Time 85320, Note Name: E3
Note ON: Time 85320, Note Name: G#3, Velocity: 38
Note OFF: Time 85440, Note Name: G#3
Note ON: Time 85440, Note Name: A2, Velocity: 36
Note ON: Time 85440, Note Name: C3, Velocity: 44
Note OFF: Time 85560, Note Name: C3
Note ON: Time 85560, Note Name: A3, Velocity: 37
Note OFF: Time 85680, Note Name: A3
Note OFF: Time 85680, Note Name: A2
Note ON: Time 85680, Note Name: E3, Velocity: 37
Note OFF: Time 85800, Note Name: E3
Note ON: Time 85800, Note Name: A3, Velocity: 37
Note OFF: Time 85920, Note Name: A3
Note ON: Time 85920, Note Name: A2, Velocity: 59
Note ON: Time 85920, Note Name: B2, Velocity: 70
Note OFF: Time 86040, Note Name: B2
Note ON: Time 86040, Note Name: E3, Velocity: 66
Note OFF: Time 86160, Note Name: E3
Note OFF: Time 86160, Note Name: A2
Note ON: Time 86160, Note Name: A2, Velocity: 55
Note ON: Time 86160, Note Name: D3, Velocity: 66
Note OFF: Time 86280, Note Name: D3
Note ON: Time 86280, Note Name: E3, Velocity: 66
Note OFF: Time 86400, Note Name: E3
Note OFF: Time 86400, Note Name: A2
Note ON: Time 86400, Note Name: A2, Velocity: 59
Note ON: Time 86400, Note Name: C3, Velocity: 70
Note OFF: Time 86520, Note Name: C3
Note ON: Time 86520, Note Name: E3, Velocity: 63
Note OFF: Time 86640, Note Name: E3
Note OFF: Time 86640, Note Name: A2
Note ON: Time 86640, Note Name: A2, Velocity: 53
Note ON: Time 86640, Note Name: C3, Velocity: 63
Note OFF: Time 86760, Note Name: C3
Note ON: Time 86760, Note Name: E3, Velocity: 63
Note OFF: Time 86880, Note Name: E3
Note OFF: Time 86880, Note Name: A2
Note ON: Time 86880, Note Name: A2, Velocity: 59
Note ON: Time 86880, Note Name: B2, Velocity: 70
Note OFF: Time 87000, Note Name: B2
Note ON: Time 87000, Note Name: E3, Velocity: 66
Note OFF: Time 87120, Note Name: E3
Note OFF: Time 87120, Note Name: A2
Note ON: Time 87120, Note Name: A2, Velocity: 55
Note ON: Time 87120, Note Name: D3, Velocity: 66
Note OFF: Time 87240, Note Name: D3
Note ON: Time 87240, Note Name: E3, Velocity: 66
Note OFF: Time 87360, Note Name: E3
Note OFF: Time 87360, Note Name: A2
Note ON: Time 87360, Note Name: A2, Velocity: 59
Note ON: Time 87360, Note Name: C3, Velocity: 70
Note OFF: Time 87480, Note Name: C3
Note ON: Time 87480, Note Name: A3, Velocity: 63
Note OFF: Time 87600, Note Name: A3
Note OFF: Time 87600, Note Name: A2
Note ON: Time 87600, Note Name: E3, Velocity: 63
Note OFF: Time 87720, Note Name: E3
Note ON: Time 87720, Note Name: A3, Velocity: 63
Note OFF: Time 87840, Note Name: A3
Note ON: Time 87840, Note Name: D3, Velocity: 43
Note ON: Time 87840, Note Name: A2, Velocity: 36
Note OFF: Time 87960, Note Name: D3
Note ON: Time 87960, Note Name: G#3, Velocity: 37
Note OFF: Time 88080, Note Name: G#3
Note OFF: Time 88080, Note Name: A2
Note ON: Time 88080, Note Name: E3, Velocity: 37
Note OFF: Time 88200, Note Name: E3
Note ON: Time 88200, Note Name: G#3, Velocity: 37
Note OFF: Time 88320, Note Name: G#3
Note ON: Time 88320, Note Name: C3, Velocity: 43
Note ON: Time 88320, Note Name: A2, Velocity: 35
Note OFF: Time 88440, Note Name: C3
Note ON: Time 88440, Note Name: A3, Velocity: 37
Note OFF: Time 88560, Note Name: A3
Note OFF: Time 88560, Note Name: A2
Note ON: Time 88560, Note Name: E3, Velocity: 37
Note OFF: Time 88680, Note Name: E3
Note ON: Time 88680, Note Name: A3, Velocity: 37
Note OFF: Time 88800, Note Name: A3
Note ON: Time 88800, Note Name: D3, Velocity: 43
Note ON: Time 88800, Note Name: A2, Velocity: 35
Note OFF: Time 88920, Note Name: D3
Note ON: Time 88920, Note Name: G#3, Velocity: 37
Note OFF: Time 89040, Note Name: G#3
Note OFF: Time 89040, Note Name: A2
Note ON: Time 89040, Note Name: E3, Velocity: 37
Note OFF: Time 89160, Note Name: E3
Note ON: Time 89160, Note Name: G#3, Velocity: 37
Note OFF: Time 89280, Note Name: G#3
Note ON: Time 89280, Note Name: A2, Velocity: 34
Note ON: Time 89280, Note Name: C3, Velocity: 42
Note OFF: Time 89400, Note Name: C3
Note ON: Time 89400, Note Name: A3, Velocity: 36
Note OFF: Time 89520, Note Name: A3
Note OFF: Time 89520, Note Name: A2
Note ON: Time 89520, Note Name: E3, Velocity: 35
Note OFF: Time 89640, Note Name: E3
Note ON: Time 89640, Note Name: A3, Velocity: 35
Note OFF: Time 89760, Note Name: A3
Note ON: Time 89760, Note Name: D3, Velocity: 37
Note ON: Time 89760, Note Name: A2, Velocity: 32
Note OFF: Time 89880, Note Name: D3
Note ON: Time 89880, Note Name: G#3, Velocity: 33
Note OFF: Time 90000, Note Name: G#3
Note OFF: Time 90000, Note Name: A2
Note ON: Time 90000, Note Name: E3, Velocity: 33
Note OFF: Time 90120, Note Name: E3
Note ON: Time 90120, Note Name: G#3, Velocity: 32
Note OFF: Time 90240, Note Name: G#3
Note ON: Time 90240, Note Name: C3, Velocity: 38
Note ON: Time 90240, Note Name: A2, Velocity: 31
Note OFF: Time 90360, Note Name: C3
Note ON: Time 90360, Note Name: A3, Velocity: 33
Note OFF: Time 90480, Note Name: A3
Note OFF: Time 90480, Note Name: A2
Note ON: Time 90480, Note Name: E3, Velocity: 32
Note OFF: Time 90600, Note Name: E3
Note ON: Time 90600, Note Name: A3, Velocity: 32
Note OFF: Time 90720, Note Name: A3
Note ON: Time 90720, Note Name: D3, Velocity: 34
Note ON: Time 90720, Note Name: A2, Velocity: 29
Note OFF: Time 90840, Note Name: D3
Note ON: Time 90840, Note Name: G#3, Velocity: 31
Note OFF: Time 90960, Note Name: G#3
Note OFF: Time 90960, Note Name: A2
Note ON: Time 90960, Note Name: E3, Velocity: 29
Note OFF: Time 91080, Note Name: E3
Note ON: Time 91080, Note Name: G#3, Velocity: 29
Note OFF: Time 91200, Note Name: G#3
Note ON: Time 91200, Note Name: A2, Velocity: 26
Note ON: Time 91200, Note Name: C3, Velocity: 32
Note OFF: Time 91320, Note Name: C3
Note ON: Time 91320, Note Name: A3, Velocity: 28
Note OFF: Time 91440, Note Name: A3
Note OFF: Time 91440, Note Name: A2
Note ON: Time 91440, Note Name: E3, Velocity: 28
Note OFF: Time 91560, Note Name: E3
Note ON: Time 91560, Note Name: A3, Velocity: 28
Note OFF: Time 91680, Note Name: A3
Note ON: Time 91680, Note Name: D3, Velocity: 32
Note ON: Time 91680, Note Name: A2, Velocity: 26
Note OFF: Time 91800, Note Name: D3
Note ON: Time 91800, Note Name: G#3, Velocity: 28
Note OFF: Time 91920, Note Name: G#3
Note OFF: Time 91920, Note Name: A2
Note ON: Time 91920, Note Name: E3, Velocity: 28
Note OFF: Time 92040, Note Name: E3
Note ON: Time 92040, Note Name: G#3, Velocity: 28
Note OFF: Time 92160, Note Name: G#3
Note ON: Time 92160, Note Name: A2, Velocity: 26
Note ON: Time 92160, Note Name: C3, Velocity: 32
Note OFF: Time 92280, Note Name: C3
Note ON: Time 92280, Note Name: A3, Velocity: 28
Note OFF: Time 92400, Note Name: A3
Note OFF: Time 92400, Note Name: A2
Note ON: Time 92400, Note Name: E3, Velocity: 28
Note OFF: Time 92520, Note Name: E3
Note ON: Time 92520, Note Name: A3, Velocity: 28
Note OFF: Time 92640, Note Name: A3
Note ON: Time 92640, Note Name: D3, Velocity: 32
Note ON: Time 92640, Note Name: A2, Velocity: 26
Note OFF: Time 92760, Note Name: D3
Note ON: Time 92760, Note Name: G#3, Velocity: 28
Note OFF: Time 92880, Note Name: G#3
Note OFF: Time 92880, Note Name: A2
Note ON: Time 92880, Note Name: E3, Velocity: 28
Note OFF: Time 93000, Note Name: E3
Note ON: Time 93000, Note Name: G#3, Velocity: 28
Note OFF: Time 93120, Note Name: G#3
Note ON: Time 93120, Note Name: A2, Velocity: 62
Note ON: Time 93120, Note Name: A3, Velocity: 62
Note OFF: Time 93360, Note Name: A3
Note OFF: Time 93360, Note Name: A2
Note ON: Time 93600, Note Name: E4, Velocity: 63
Note OFF: Time 93840, Note Name: E4
Note ON: Time 94080, Note Name: E4, Velocity: 74
Note OFF: Time 94800, Note Name: E4
Note ON: Time 94800, Note Name: C4, Velocity: 47
Note OFF: Time 95040, Note Name: C4
Note ON: Time 95040, Note Name: B3, Velocity: 50
Note OFF: Time 95520, Note Name: B3
Note ON: Time 95520, Note Name: E3, Velocity: 47
Note OFF: Time 96000, Note Name: E3
Note ON: Time 96000, Note Name: A3, Velocity: 47
Note OFF: Time 96240, Note Name: A3
Note ON: Time 96960, Note Name: F1, Velocity: 74
Note ON: Time 96960, Note Name: F2, Velocity: 74
Note OFF: Time 97200, Note Name: F2
Note OFF: Time 97200, Note Name: F1
Note ON: Time 97440, Note Name: C4, Velocity: 74
Note OFF: Time 97680, Note Name: C4
Note ON: Time 97920, Note Name: C4, Velocity: 79
Note OFF: Time 98640, Note Name: C4
Note ON: Time 98640, Note Name: A3, Velocity: 48
Note OFF: Time 98880, Note Name: A3
Note ON: Time 98880, Note Name: G3, Velocity: 53
Note OFF: Time 99360, Note Name: G3
Note ON: Time 99360, Note Name: C3, Velocity: 49
Note OFF: Time 99840, Note Name: C3
Note ON: Time 99840, Note Name: F3, Velocity: 49
Note OFF: Time 100080, Note Name: F3
Note ON: Time 100800, Note Name: G1, Velocity: 90
Note ON: Time 100800, Note Name: G2, Velocity: 90
Note OFF: Time 101040, Note Name: G2
Note OFF: Time 101040, Note Name: G1
Note ON: Time 101280, Note Name: F4, Velocity: 80
Note OFF: Time 101520, Note Name: F4
Note ON: Time 101760, Note Name: F4, Velocity: 81
Note OFF: Time 102480, Note Name: F4
Note ON: Time 102480, Note Name: D4, Velocity: 53
Note OFF: Time 102720, Note Name: D4
Note ON: Time 102720, Note Name: B3, Velocity: 59
Note OFF: Time 103200, Note Name: B3
Note ON: Time 103200, Note Name: G3, Velocity: 55
Note OFF: Time 103680, Note Name: G3
Note ON: Time 103680, Note Name: F3, Velocity: 55
Note OFF: Time 104400, Note Name: F3
Note ON: Time 104400, Note Name: D3, Velocity: 44
Note OFF: Time 104640, Note Name: D3
Note ON: Time 104640, Note Name: B2, Velocity: 51
Note OFF: Time 105120, Note Name: B2
Note ON: Time 105120, Note Name: G2, Velocity: 36
Note OFF: Time 105600, Note Name: G2
Note ON: Time 105600, Note Name: F2, Velocity: 41
Note OFF: Time 106320, Note Name: F2
Note ON: Time 106320, Note Name: D2, Velocity: 33
Note OFF: Time 106560, Note Name: D2
Note ON: Time 106560, Note Name: B1, Velocity: 33
Note OFF: Time 107040, Note Name: B1
Note ON: Time 107520, Note Name: G1, Velocity: 28
Note ON: Time 107520, Note Name: G2, Velocity: 33
Note OFF: Time 108000, Note Name: G2
Note OFF: Time 108000, Note Name: G1
Note ON: Time 108480, Note Name: C2, Velocity: 50
Note OFF: Time 108720, Note Name: C2
Note ON: Time 108960, Note Name: G5, Velocity: 50
Note OFF: Time 109200, Note Name: G5
Note ON: Time 109440, Note Name: G5, Velocity: 54
Note OFF: Time 110160, Note Name: G5
Note ON: Time 110160, Note Name: E5, Velocity: 47
Note OFF: Time 110400, Note Name: E5
Note ON: Time 110400, Note Name: D5, Velocity: 50
Note OFF: Time 110880, Note Name: D5
Note ON: Time 110880, Note Name: G4, Velocity: 41
Note OFF: Time 111360, Note Name: G4
Note ON: Time 111360, Note Name: C5, Velocity: 50
Note OFF: Time 111840, Note Name: C5
Note ON: Time 111840, Note Name: E5, Velocity: 47
Note OFF: Time 112080, Note Name: E5
Note ON: Time 112200, Note Name: C3, Velocity: 31
Note OFF: Time 112320, Note Name: C3
Note ON: Time 112320, Note Name: C2, Velocity: 50
Note OFF: Time 112560, Note Name: C2
Note ON: Time 112800, Note Name: G5, Velocity: 50
Note OFF: Time 113040, Note Name: G5
Note ON: Time 113280, Note Name: G5, Velocity: 54
Note OFF: Time 114000, Note Name: G5
Note ON: Time 114000, Note Name: E5, Velocity: 47
Note OFF: Time 114240, Note Name: E5
Note ON: Time 114240, Note Name: D5, Velocity: 50
Note OFF: Time 114720, Note Name: D5
Note ON: Time 114720, Note Name: G4, Velocity: 41
Note OFF: Time 115200, Note Name: G4
Note ON: Time 115200, Note Name: C5, Velocity: 50
Note OFF: Time 115440, Note Name: C5
Note ON: Time 116040, Note Name: G2, Velocity: 30
Note OFF: Time 116160, Note Name: G2
Note ON: Time 116160, Note Name: G1, Velocity: 45
Note OFF: Time 116400, Note Name: G1
Note ON: Time 116640, Note Name: F5, Velocity: 50
Note OFF: Time 116880, Note Name: F5
Note ON: Time 117120, Note Name: F5, Velocity: 54
Note OFF: Time 117840, Note Name: F5
Note ON: Time 117840, Note Name: D5, Velocity: 47
Note OFF: Time 118080, Note Name: D5
Note ON: Time 118080, Note Name: E5, Velocity: 50
Note OFF: Time 118560, Note Name: E5
Note ON: Time 118560, Note Name: C5, Velocity: 41
Note OFF: Time 119040, Note Name: C5
Note ON: Time 119040, Note Name: B4, Velocity: 50
Note OFF: Time 119520, Note Name: B4
Note ON: Time 119520, Note Name: D5, Velocity: 47
Note OFF: Time 119760, Note Name: D5
Note ON: Time 119880, Note Name: G2, Velocity: 32
Note OFF: Time 120000, Note Name: G2
Note ON: Time 120000, Note Name: G1, Velocity: 48
Note OFF: Time 120240, Note Name: G1
Note ON: Time 120480, Note Name: F5, Velocity: 50
Note OFF: Time 120720, Note Name: F5
Note ON: Time 120960, Note Name: F5, Velocity: 54
Note OFF: Time 121680, Note Name: F5
Note ON: Time 121680, Note Name: D5, Velocity: 47
Note OFF: Time 121920, Note Name: D5
Note ON: Time 121920, Note Name: D#5, Velocity: 50
Note OFF: Time 122400, Note Name: D#5
Note ON: Time 122400, Note Name: C5, Velocity: 41
Note OFF: Time 122880, Note Name: C5
Note ON: Time 122880, Note Name: B4, Velocity: 50
Note OFF: Time 123360, Note Name: B4
Note ON: Time 123360, Note Name: D5, Velocity: 47
Note OFF: Time 123840, Note Name: D5
Note ON: Time 123840, Note Name: E5, Velocity: 50
Note OFF: Time 124320, Note Name: E5
Note ON: Time 124320, Note Name: C5, Velocity: 41
Note OFF: Time 124800, Note Name: C5
Note ON: Time 124800, Note Name: B4, Velocity: 50
Note OFF: Time 125280, Note Name: B4
Note ON: Time 125280, Note Name: D5, Velocity: 47
Note OFF: Time 125760, Note Name: D5
Note ON: Time 125760, Note Name: D#5, Velocity: 50
Note OFF: Time 126240, Note Name: D#5
Note ON: Time 126240, Note Name: C5, Velocity: 41
Note OFF: Time 126720, Note Name: C5
Note ON: Time 126720, Note Name: G5, Velocity: 50
Note OFF: Time 127195, Note Name: G5
Note ON: Time 127200, Note Name: G5, Velocity: 47
Note OFF: Time 127675, Note Name: G5
Note ON: Time 127680, Note Name: G5, Velocity: 50
Note OFF: Time 128155, Note Name: G5
Note ON: Time 128160, Note Name: G5, Velocity: 47
Note OFF: Time 128635, Note Name: G5
Note ON: Time 128640, Note Name: G5, Velocity: 50
Note OFF: Time 129115, Note Name: G5
Note ON: Time 129120, Note Name: G5, Velocity: 47
Note OFF: Time 129595, Note Name: G5
Note ON: Time 129600, Note Name: G5, Velocity: 47
Note OFF: Time 130080, Note Name: G5
Note ON: Time 137280, Note Name: C2, Velocity: 50
Note OFF: Time 137400, Note Name: C2
Note ON: Time 137400, Note Name: G2, Velocity: 30
Note OFF: Time 137520, Note Name: G2
Note ON: Time 137520, Note Name: C3, Velocity: 32
Note OFF: Time 137640, Note Name: C3
Note ON: Time 137640, Note Name: E3, Velocity: 34
Note OFF: Time 137760, Note Name: E3
Note ON: Time 137760, Note Name: G3, Velocity: 31
Note OFF: Time 137880, Note Name: G3
Note ON: Time 137880, Note Name: C3, Velocity: 31
Note OFF: Time 138000, Note Name: C3
Note ON: Time 138000, Note Name: E3, Velocity: 31
Note OFF: Time 138120, Note Name: E3
Note ON: Time 138120, Note Name: G3, Velocity: 35
Note OFF: Time 138240, Note Name: G3
Note ON: Time 138240, Note Name: C4, Velocity: 30
Note OFF: Time 138360, Note Name: C4
Note ON: Time 138360, Note Name: E3, Velocity: 31
Note OFF: Time 138480, Note Name: E3
Note ON: Time 138480, Note Name: G3, Velocity: 33
Note OFF: Time 138600, Note Name: G3
Note ON: Time 138600, Note Name: C4, Velocity: 36
Note OFF: Time 138720, Note Name: C4
Note ON: Time 138720, Note Name: E4, Velocity: 33
Note OFF: Time 138840, Note Name: E4
Note ON: Time 138840, Note Name: G3, Velocity: 33
Note OFF: Time 138960, Note Name: G3
Note ON: Time 138960, Note Name: C4, Velocity: 33
Note OFF: Time 139080, Note Name: C4
Note ON: Time 139080, Note Name: E4, Velocity: 36
Note OFF: Time 139200, Note Name: E4
Note ON: Time 139200, Note Name: F4, Velocity: 28
Note OFF: Time 139320, Note Name: F4
Note ON: Time 139320, Note Name: E4, Velocity: 31
Note OFF: Time 139440, Note Name: E4
Note ON: Time 139440, Note Name: D4, Velocity: 33
Note OFF: Time 139560, Note Name: D4
Note ON: Time 139560, Note Name: C4, Velocity: 36
Note OFF: Time 139680, Note Name: C4
Note ON: Time 139680, Note Name: B3, Velocity: 33
Note OFF: Time 139800, Note Name: B3
Note ON: Time 139800, Note Name: A3, Velocity: 33
Note OFF: Time 139920, Note Name: A3
Note ON: Time 139920, Note Name: G3, Velocity: 34
Note OFF: Time 140040, Note Name: G3
Note ON: Time 140040, Note Name: F3, Velocity: 34
Note OFF: Time 140160, Note Name: F3
Note ON: Time 140160, Note Name: E3, Velocity: 28
Note OFF: Time 140280, Note Name: E3
Note ON: Time 140280, Note Name: G3, Velocity: 30
Note OFF: Time 140400, Note Name: G3
Note ON: Time 140400, Note Name: C3, Velocity: 32
Note OFF: Time 140520, Note Name: C3
Note ON: Time 140520, Note Name: E3, Velocity: 34
Note OFF: Time 140640, Note Name: E3
Note ON: Time 140640, Note Name: G2, Velocity: 32
Note OFF: Time 140760, Note Name: G2
Note ON: Time 140760, Note Name: C3, Velocity: 32
Note OFF: Time 140880, Note Name: C3
Note ON: Time 140880, Note Name: E2, Velocity: 33
Note OFF: Time 141000, Note Name: E2
Note ON: Time 141000, Note Name: G2, Velocity: 34
Note OFF: Time 141120, Note Name: G2
Note ON: Time 141120, Note Name: C2, Velocity: 50
Note OFF: Time 141240, Note Name: C2
Note ON: Time 141240, Note Name: G2, Velocity: 30
Note OFF: Time 141360, Note Name: G2
Note ON: Time 141360, Note Name: C3, Velocity: 32
Note OFF: Time 141480, Note Name: C3
Note ON: Time 141480, Note Name: E3, Velocity: 34
Note OFF: Time 141600, Note Name: E3
Note ON: Time 141600, Note Name: G3, Velocity: 31
Note OFF: Time 141720, Note Name: G3
Note ON: Time 141720, Note Name: C3, Velocity: 31
Note OFF: Time 141840, Note Name: C3
Note ON: Time 141840, Note Name: E3, Velocity: 31
Note OFF: Time 141960, Note Name: E3
Note ON: Time 141960, Note Name: G3, Velocity: 35
Note OFF: Time 142080, Note Name: G3
Note ON: Time 142080, Note Name: C4, Velocity: 30
Note OFF: Time 142200, Note Name: C4
Note ON: Time 142200, Note Name: E3, Velocity: 31
Note OFF: Time 142320, Note Name: E3
Note ON: Time 142320, Note Name: G3, Velocity: 33
Note OFF: Time 142440, Note Name: G3
Note ON: Time 142440, Note Name: C4, Velocity: 36
Note OFF: Time 142560, Note Name: C4
Note ON: Time 142560, Note Name: E4, Velocity: 33
Note OFF: Time 142680, Note Name: E4
Note ON: Time 142680, Note Name: G3, Velocity: 33
Note OFF: Time 142800, Note Name: G3
Note ON: Time 142800, Note Name: C4, Velocity: 33
Note OFF: Time 142920, Note Name: C4
Note ON: Time 142920, Note Name: E4, Velocity: 33
Note OFF: Time 143040, Note Name: E4
Note ON: Time 143040, Note Name: F4, Velocity: 28
Note OFF: Time 143160, Note Name: F4
Note ON: Time 143160, Note Name: E4, Velocity: 31
Note OFF: Time 143280, Note Name: E4
Note ON: Time 143280, Note Name: D4, Velocity: 33
Note OFF: Time 143400, Note Name: D4
Note ON: Time 143400, Note Name: C4, Velocity: 36
Note OFF: Time 143520, Note Name: C4
Note ON: Time 143520, Note Name: B3, Velocity: 33
Note OFF: Time 143640, Note Name: B3
Note ON: Time 143640, Note Name: G3, Velocity: 33
Note OFF: Time 143760, Note Name: G3
Note ON: Time 143760, Note Name: A3, Velocity: 34
Note OFF: Time 143880, Note Name: A3
Note ON: Time 143880, Note Name: B3, Velocity: 34
Note OFF: Time 144000, Note Name: B3
Note ON: Time 144000, Note Name: C4, Velocity: 28
Note OFF: Time 144120, Note Name: C4
Note ON: Time 144120, Note Name: B3, Velocity: 30
Note OFF: Time 144240, Note Name: B3
Note ON: Time 144240, Note Name: A3, Velocity: 32
Note OFF: Time 144360, Note Name: A3
Note ON: Time 144360, Note Name: G3, Velocity: 34
Note OFF: Time 144480, Note Name: G3
Note ON: Time 144480, Note Name: F3, Velocity: 32
Note OFF: Time 144600, Note Name: F3
Note ON: Time 144600, Note Name: E3, Velocity: 32
Note OFF: Time 144720, Note Name: E3
Note ON: Time 144720, Note Name: D3, Velocity: 33
Note OFF: Time 144840, Note Name: D3
Note ON: Time 144840, Note Name: C3, Velocity: 35
Note OFF: Time 144960, Note Name: C3
Note ON: Time 144960, Note Name: G2, Velocity: 45
Note OFF: Time 145080, Note Name: G2
Note ON: Time 145080, Note Name: B2, Velocity: 30
Note OFF: Time 145200, Note Name: B2
Note ON: Time 145200, Note Name: D3, Velocity: 32
Note OFF: Time 145320, Note Name: D3
Note ON: Time 145320, Note Name: G3, Velocity: 34
Note OFF: Time 145440, Note Name: G3
Note ON: Time 145440, Note Name: B2, Velocity: 31
Note OFF: Time 145560, Note Name: B2
Note ON: Time 145560, Note Name: D3, Velocity: 31
Note OFF: Time 145680, Note Name: D3
Note ON: Time 145680, Note Name: G3, Velocity: 31
Note OFF: Time 145800, Note Name: G3
Note ON: Time 145800, Note Name: B3, Velocity: 35
Note OFF: Time 145920, Note Name: B3
Note ON: Time 145920, Note Name: D3, Velocity: 30
Note OFF: Time 146040, Note Name: D3
Note ON: Time 146040, Note Name: G3, Velocity: 31
Note OFF: Time 146160, Note Name: G3
Note ON: Time 146160, Note Name: B3, Velocity: 33
Note OFF: Time 146280, Note Name: B3
Note ON: Time 146280, Note Name: D4, Velocity: 36
Note OFF: Time 146400, Note Name: D4
Note ON: Time 146400, Note Name: G3, Velocity: 33
Note OFF: Time 146520, Note Name: G3
Note ON: Time 146520, Note Name: B3, Velocity: 33
Note OFF: Time 146640, Note Name: B3
Note ON: Time 146640, Note Name: D4, Velocity: 33
Note OFF: Time 146760, Note Name: D4
Note ON: Time 146760, Note Name: G4, Velocity: 36
Note OFF: Time 146880, Note Name: G4
Note ON: Time 146880, Note Name: G3, Velocity: 28
Note OFF: Time 147000, Note Name: G3
Note ON: Time 147000, Note Name: C4, Velocity: 31
Note OFF: Time 147120, Note Name: C4
Note ON: Time 147120, Note Name: G4, Velocity: 33
Note OFF: Time 147240, Note Name: G4
Note ON: Time 147240, Note Name: C4, Velocity: 36
Note OFF: Time 147360, Note Name: C4
Note ON: Time 147360, Note Name: G3, Velocity: 28
Note OFF: Time 147480, Note Name: G3
Note ON: Time 147480, Note Name: E4, Velocity: 31
Note OFF: Time 147600, Note Name: E4
Note ON: Time 147600, Note Name: G4, Velocity: 33
Note OFF: Time 147720, Note Name: G4
Note ON: Time 147720, Note Name: E4, Velocity: 36
Note OFF: Time 147840, Note Name: E4
Note ON: Time 147840, Note Name: G3, Velocity: 28
Note OFF: Time 147960, Note Name: G3
Note ON: Time 147960, Note Name: D4, Velocity: 30
Note OFF: Time 148080, Note Name: D4
Note ON: Time 148080, Note Name: G4, Velocity: 32
Note OFF: Time 148200, Note Name: G4
Note ON: Time 148200, Note Name: D4, Velocity: 36
Note OFF: Time 148320, Note Name: D4
Note ON: Time 148320, Note Name: G3, Velocity: 28
Note OFF: Time 148440, Note Name: G3
Note ON: Time 148440, Note Name: B3, Velocity: 30
Note OFF: Time 148560, Note Name: B3
Note ON: Time 148560, Note Name: G4, Velocity: 32
Note OFF: Time 148680, Note Name: G4
Note ON: Time 148680, Note Name: B3, Velocity: 35
Note OFF: Time 148800, Note Name: B3
Note ON: Time 148800, Note Name: G2, Velocity: 48
Note OFF: Time 148920, Note Name: G2
Note ON: Time 148920, Note Name: B2, Velocity: 30
Note OFF: Time 149040, Note Name: B2
Note ON: Time 149040, Note Name: D3, Velocity: 32
Note OFF: Time 149160, Note Name: D3
Note ON: Time 149160, Note Name: G3, Velocity: 34
Note OFF: Time 149280, Note Name: G3
Note ON: Time 149280, Note Name: B2, Velocity: 31
Note OFF: Time 149400, Note Name: B2
Note ON: Time 149400, Note Name: D3, Velocity: 31
Note OFF: Time 149520, Note Name: D3
Note ON: Time 149520, Note Name: G3, Velocity: 31
Note OFF: Time 149640, Note Name: G3
Note ON: Time 149640, Note Name: B3, Velocity: 35
Note OFF: Time 149760, Note Name: B3
Note ON: Time 149760, Note Name: D3, Velocity: 30
Note OFF: Time 149880, Note Name: D3
Note ON: Time 149880, Note Name: G3, Velocity: 31
Note OFF: Time 150000, Note Name: G3
Note ON: Time 150000, Note Name: B3, Velocity: 33
Note OFF: Time 150120, Note Name: B3
Note ON: Time 150120, Note Name: D4, Velocity: 36
Note OFF: Time 150240, Note Name: D4
Note ON: Time 150240, Note Name: G3, Velocity: 33
Note OFF: Time 150360, Note Name: G3
Note ON: Time 150360, Note Name: B3, Velocity: 33
Note OFF: Time 150480, Note Name: B3
Note ON: Time 150480, Note Name: D4, Velocity: 33
Note OFF: Time 150600, Note Name: D4
Note ON: Time 150600, Note Name: G4, Velocity: 36
Note OFF: Time 150720, Note Name: G4
Note ON: Time 150720, Note Name: G3, Velocity: 28
Note OFF: Time 150840, Note Name: G3
Note ON: Time 150840, Note Name: C4, Velocity: 31
Note OFF: Time 150960, Note Name: C4
Note ON: Time 150960, Note Name: G4, Velocity: 33
Note OFF: Time 151080, Note Name: G4
Note ON: Time 151080, Note Name: C4, Velocity: 35
Note OFF: Time 151200, Note Name: C4
Note ON: Time 151200, Note Name: G3, Velocity: 28
Note OFF: Time 151320, Note Name: G3
Note ON: Time 151320, Note Name: D#4, Velocity: 31
Note OFF: Time 151440, Note Name: D#4
Note ON: Time 151440, Note Name: G4, Velocity: 33
Note OFF: Time 151560, Note Name: G4
Note ON: Time 151560, Note Name: D#4, Velocity: 35
Note OFF: Time 151680, Note Name: D#4
Note ON: Time 151680, Note Name: G3, Velocity: 28
Note OFF: Time 151800, Note Name: G3
Note ON: Time 151800, Note Name: D4, Velocity: 30
Note OFF: Time 151920, Note Name: D4
Note ON: Time 151920, Note Name: G4, Velocity: 32
Note OFF: Time 152040, Note Name: G4
Note ON: Time 152040, Note Name: D4, Velocity: 35
Note OFF: Time 152160, Note Name: D4
Note ON: Time 152160, Note Name: G3, Velocity: 28
Note OFF: Time 152280, Note Name: G3
Note ON: Time 152280, Note Name: B3, Velocity: 30
Note OFF: Time 152400, Note Name: B3
Note ON: Time 152400, Note Name: G4, Velocity: 32
Note OFF: Time 152520, Note Name: G4
Note ON: Time 152520, Note Name: B3, Velocity: 35
Note OFF: Time 152640, Note Name: B3
Note ON: Time 152640, Note Name: G3, Velocity: 28
Note OFF: Time 152760, Note Name: G3
Note ON: Time 152760, Note Name: C4, Velocity: 31
Note OFF: Time 152880, Note Name: C4
Note ON: Time 152880, Note Name: G4, Velocity: 33
Note OFF: Time 153000, Note Name: G4
Note ON: Time 153000, Note Name: C4, Velocity: 35
Note OFF: Time 153120, Note Name: C4
Note ON: Time 153120, Note Name: G3, Velocity: 28
Note OFF: Time 153240, Note Name: G3
Note ON: Time 153240, Note Name: E4, Velocity: 32
Note OFF: Time 153360, Note Name: E4
Note ON: Time 153360, Note Name: G4, Velocity: 34
Note OFF: Time 153480, Note Name: G4
Note ON: Time 153480, Note Name: E4, Velocity: 37
Note OFF: Time 153600, Note Name: E4
Note ON: Time 153600, Note Name: G3, Velocity: 29
Note OFF: Time 153720, Note Name: G3
Note ON: Time 153720, Note Name: D4, Velocity: 32
Note OFF: Time 153840, Note Name: D4
Note ON: Time 153840, Note Name: G4, Velocity: 34
Note OFF: Time 153960, Note Name: G4
Note ON: Time 153960, Note Name: D4, Velocity: 38
Note OFF: Time 154080, Note Name: D4
Note ON: Time 154080, Note Name: G3, Velocity: 31
Note OFF: Time 154200, Note Name: G3
Note ON: Time 154200, Note Name: B3, Velocity: 33
Note OFF: Time 154320, Note Name: B3
Note ON: Time 154320, Note Name: G4, Velocity: 36
Note OFF: Time 154440, Note Name: G4
Note ON: Time 154440, Note Name: B3, Velocity: 39
Note OFF: Time 154560, Note Name: B3
Note ON: Time 154560, Note Name: G3, Velocity: 28
Note OFF: Time 154680, Note Name: G3
Note ON: Time 154680, Note Name: C4, Velocity: 31
Note OFF: Time 154800, Note Name: C4
Note ON: Time 154800, Note Name: G4, Velocity: 33
Note OFF: Time 154920, Note Name: G4
Note ON: Time 154920, Note Name: C4, Velocity: 35
Note OFF: Time 155040, Note Name: C4
Note ON: Time 155040, Note Name: G3, Velocity: 28
Note OFF: Time 155160, Note Name: G3
Note ON: Time 155160, Note Name: C4, Velocity: 31
Note OFF: Time 155280, Note Name: C4
Note ON: Time 155280, Note Name: D#4, Velocity: 33
Note OFF: Time 155400, Note Name: D#4
Note ON: Time 155400, Note Name: C4, Velocity: 35
Note OFF: Time 155520, Note Name: C4
Note ON: Time 155520, Note Name: G3, Velocity: 28
Note OFF: Time 155640, Note Name: G3
Note ON: Time 155640, Note Name: B3, Velocity: 30
Note OFF: Time 155760, Note Name: B3
Note ON: Time 155760, Note Name: D4, Velocity: 32
Note OFF: Time 155880, Note Name: D4
Note ON: Time 155880, Note Name: B3, Velocity: 35
Note OFF: Time 156000, Note Name: B3
Note ON: Time 156000, Note Name: G3, Velocity: 28
Note OFF: Time 156120, Note Name: G3
Note ON: Time 156120, Note Name: C4, Velocity: 30
Note OFF: Time 156240, Note Name: C4
Note ON: Time 156240, Note Name: D#4, Velocity: 32
Note OFF: Time 156360, Note Name: D#4
Note ON: Time 156360, Note Name: C4, Velocity: 35
Note OFF: Time 156480, Note Name: C4
Note ON: Time 156480, Note Name: G3, Velocity: 47
Note OFF: Time 156540, Note Name: G3
Note ON: Time 156600, Note Name: B3, Velocity: 30
Note OFF: Time 156720, Note Name: B3
Note ON: Time 156720, Note Name: D4, Velocity: 31
Note OFF: Time 156840, Note Name: D4
Note ON: Time 156840, Note Name: B3, Velocity: 32
Note OFF: Time 156960, Note Name: B3
Note ON: Time 156960, Note Name: G3, Velocity: 53
Note OFF: Time 157020, Note Name: G3
Note ON: Time 157080, Note Name: C4, Velocity: 32
Note OFF: Time 157200, Note Name: C4
Note ON: Time 157200, Note Name: E4, Velocity: 33
Note OFF: Time 157320, Note Name: E4
Note ON: Time 157320, Note Name: C4, Velocity: 34
Note OFF: Time 157440, Note Name: C4
Note ON: Time 157440, Note Name: G3, Velocity: 57
Note OFF: Time 157500, Note Name: G3
Note ON: Time 157560, Note Name: B3, Velocity: 35
Note OFF: Time 157680, Note Name: B3
Note ON: Time 157680, Note Name: D4, Velocity: 38
Note OFF: Time 157800, Note Name: D4
Note ON: Time 157800, Note Name: B3, Velocity: 38
Note OFF: Time 157920, Note Name: B3
Note ON: Time 157920, Note Name: G3, Velocity: 64
Note OFF: Time 157980, Note Name: G3
Note ON: Time 158040, Note Name: A3, Velocity: 39
Note OFF: Time 158160, Note Name: A3
Note ON: Time 158160, Note Name: C4, Velocity: 41
Note OFF: Time 158280, Note Name: C4
Note ON: Time 158280, Note Name: A3, Velocity: 43
Note OFF: Time 158400, Note Name: A3
Note ON: Time 158400, Note Name: G3, Velocity: 71
Note OFF: Time 158460, Note Name: G3
Note ON: Time 158520, Note Name: B3, Velocity: 47
Note OFF: Time 158640, Note Name: B3
Note ON: Time 158640, Note Name: A3, Velocity: 49
Note OFF: Time 158760, Note Name: A3
Note ON: Time 158760, Note Name: G3, Velocity: 50
Note OFF: Time 158880, Note Name: G3
Note ON: Time 158880, Note Name: F3, Velocity: 76
Note OFF: Time 158940, Note Name: F3
Note ON: Time 159000, Note Name: A3, Velocity: 55
Note OFF: Time 159120, Note Name: A3
Note ON: Time 159120, Note Name: G3, Velocity: 58
Note OFF: Time 159240, Note Name: G3
Note ON: Time 159240, Note Name: F3, Velocity: 62
Note OFF: Time 159360, Note Name: F3
Note ON: Time 159360, Note Name: E3, Velocity: 85
Note OFF: Time 159420, Note Name: E3
Note ON: Time 159480, Note Name: G3, Velocity: 63
Note OFF: Time 159600, Note Name: G3
Note ON: Time 159600, Note Name: F3, Velocity: 68
Note OFF: Time 159720, Note Name: F3
Note ON: Time 159720, Note Name: E3, Velocity: 70
Note OFF: Time 159840, Note Name: E3
Note ON: Time 159840, Note Name: D3, Velocity: 90
Note OFF: Time 159900, Note Name: D3
Note ON: Time 159960, Note Name: F3, Velocity: 72
Note OFF: Time 160080, Note Name: F3
Note ON: Time 160080, Note Name: E3, Velocity: 73
Note OFF: Time 160200, Note Name: E3
Note ON: Time 160200, Note Name: D3, Velocity: 79
Note OFF: Time 160320, Note Name: D3
Note ON: Time 160320, Note Name: C2, Velocity: 94
Note ON: Time 160320, Note Name: C3, Velocity: 94
Note ON: Time 160440, Note Name: D3, Velocity: 56
Note OFF: Time 160500, Note Name: D3
Note ON: Time 160500, Note Name: E3, Velocity: 57
Note OFF: Time 160560, Note Name: E3
Note OFF: Time 160560, Note Name: C3
Note OFF: Time 160560, Note Name: C2
Note ON: Time 160560, Note Name: F3, Velocity: 60
Note OFF: Time 160620, Note Name: F3
Note ON: Time 160620, Note Name: G3, Velocity: 60
Note OFF: Time 160680, Note Name: G3
Note ON: Time 160680, Note Name: A3, Velocity: 62
Note OFF: Time 160740, Note Name: A3
Note ON: Time 160740, Note Name: B3, Velocity: 63
Note OFF: Time 160800, Note Name: B3
Note ON: Time 160800, Note Name: C4, Velocity: 63
Note OFF: Time 160920, Note Name: C4
Note ON: Time 160920, Note Name: D4, Velocity: 65
Note OFF: Time 160980, Note Name: D4
Note ON: Time 160980, Note Name: E4, Velocity: 66
Note OFF: Time 161040, Note Name: E4
Note ON: Time 161040, Note Name: F4, Velocity: 67
Note OFF: Time 161100, Note Name: F4
Note ON: Time 161100, Note Name: G4, Velocity: 69
Note OFF: Time 161160, Note Name: G4
Note ON: Time 161160, Note Name: A4, Velocity: 70
Note OFF: Time 161220, Note Name: A4
Note ON: Time 161220, Note Name: B4, Velocity: 71
Note OFF: Time 161280, Note Name: B4
Note ON: Time 161280, Note Name: C5, Velocity: 74
Note OFF: Time 161340, Note Name: C5
Note ON: Time 161400, Note Name: B4, Velocity: 71
Note OFF: Time 161460, Note Name: B4
Note ON: Time 161520, Note Name: A4, Velocity: 71
Note OFF: Time 161580, Note Name: A4
Note ON: Time 161640, Note Name: G4, Velocity: 71
Note OFF: Time 161700, Note Name: G4
Note ON: Time 161760, Note Name: F4, Velocity: 72
Note OFF: Time 161820, Note Name: F4
Note ON: Time 161880, Note Name: E4, Velocity: 69
Note OFF: Time 161940, Note Name: E4
Note ON: Time 162000, Note Name: D4, Velocity: 69
Note OFF: Time 162060, Note Name: D4
Note ON: Time 162120, Note Name: C4, Velocity: 67
Note OFF: Time 162180, Note Name: C4
Note ON: Time 162240, Note Name: B3, Velocity: 73
Note OFF: Time 162300, Note Name: B3
Note ON: Time 162360, Note Name: C4, Velocity: 69
Note OFF: Time 162420, Note Name: C4
Note ON: Time 162480, Note Name: B3, Velocity: 69
Note OFF: Time 162540, Note Name: B3
Note ON: Time 162600, Note Name: A3, Velocity: 69
Note OFF: Time 162660, Note Name: A3
Note ON: Time 162720, Note Name: G3, Velocity: 75
Note OFF: Time 162780, Note Name: G3
Note ON: Time 162840, Note Name: F3, Velocity: 69
Note OFF: Time 162900, Note Name: F3
Note ON: Time 162960, Note Name: E3, Velocity: 69
Note OFF: Time 163020, Note Name: E3
Note ON: Time 163080, Note Name: D3, Velocity: 69
Note OFF: Time 163140, Note Name: D3
Note ON: Time 163200, Note Name: C3, Velocity: 75
Note OFF: Time 163260, Note Name: C3
Note ON: Time 163320, Note Name: C3, Velocity: 69
Note OFF: Time 163380, Note Name: C3
Note ON: Time 163440, Note Name: B2, Velocity: 69
Note OFF: Time 163500, Note Name: B2
Note ON: Time 163560, Note Name: A2, Velocity: 69
Note OFF: Time 163620, Note Name: A2
Note ON: Time 163680, Note Name: G2, Velocity: 72
Note OFF: Time 163740, Note Name: G2
Note ON: Time 163800, Note Name: F2, Velocity: 71
Note OFF: Time 163860, Note Name: F2
Note ON: Time 163920, Note Name: E2, Velocity: 75
Note OFF: Time 163980, Note Name: E2
Note ON: Time 164040, Note Name: D2, Velocity: 80
Note OFF: Time 164100, Note Name: D2
Note ON: Time 164160, Note Name: C2, Velocity: 95
Note ON: Time 164160, Note Name: C3, Velocity: 95
Note ON: Time 164280, Note Name: D3, Velocity: 56
Note OFF: Time 164340, Note Name: D3
Note ON: Time 164340, Note Name: E3, Velocity: 57
Note OFF: Time 164400, Note Name: E3
Note OFF: Time 164400, Note Name: C3
Note OFF: Time 164400, Note Name: C2
Note ON: Time 164400, Note Name: F3, Velocity: 60
Note OFF: Time 164460, Note Name: F3
Note ON: Time 164460, Note Name: G3, Velocity: 60
Note OFF: Time 164520, Note Name: G3
Note ON: Time 164520, Note Name: A3, Velocity: 62
Note OFF: Time 164580, Note Name: A3
Note ON: Time 164580, Note Name: B3, Velocity: 63
Note OFF: Time 164640, Note Name: B3
Note ON: Time 164640, Note Name: C4, Velocity: 63
Note OFF: Time 164760, Note Name: C4
Note ON: Time 164760, Note Name: D4, Velocity: 65
Note OFF: Time 164820, Note Name: D4
Note ON: Time 164820, Note Name: E4, Velocity: 66
Note OFF: Time 164880, Note Name: E4
Note ON: Time 164880, Note Name: F4, Velocity: 67
Note OFF: Time 164940, Note Name: F4
Note ON: Time 164940, Note Name: G4, Velocity: 69
Note OFF: Time 165000, Note Name: G4
Note ON: Time 165000, Note Name: A4, Velocity: 70
Note OFF: Time 165060, Note Name: A4
Note ON: Time 165060, Note Name: B4, Velocity: 71
Note OFF: Time 165120, Note Name: B4
Note ON: Time 165120, Note Name: C5, Velocity: 74
Note OFF: Time 165180, Note Name: C5
Note ON: Time 165240, Note Name: B4, Velocity: 71
Note OFF: Time 165300, Note Name: B4
Note ON: Time 165360, Note Name: A4, Velocity: 71
Note OFF: Time 165420, Note Name: A4
Note ON: Time 165480, Note Name: G4, Velocity: 71
Note OFF: Time 165540, Note Name: G4
Note ON: Time 165600, Note Name: F4, Velocity: 72
Note OFF: Time 165660, Note Name: F4
Note ON: Time 165720, Note Name: E4, Velocity: 69
Note OFF: Time 165780, Note Name: E4
Note ON: Time 165840, Note Name: D4, Velocity: 69
Note OFF: Time 165900, Note Name: D4
Note ON: Time 165960, Note Name: C4, Velocity: 67
Note OFF: Time 166020, Note Name: C4
Note ON: Time 166080, Note Name: B3, Velocity: 73
Note OFF: Time 166140, Note Name: B3
Note ON: Time 166200, Note Name: C4, Velocity: 69
Note OFF: Time 166260, Note Name: C4
Note ON: Time 166320, Note Name: B3, Velocity: 69
Note OFF: Time 166380, Note Name: B3
Note ON: Time 166440, Note Name: A3, Velocity: 69
Note OFF: Time 166500, Note Name: A3
Note ON: Time 166560, Note Name: G3, Velocity: 75
Note OFF: Time 166620, Note Name: G3
Note ON: Time 166680, Note Name: F3, Velocity: 69
Note OFF: Time 166740, Note Name: F3
Note ON: Time 166800, Note Name: E3, Velocity: 69
Note OFF: Time 166860, Note Name: E3
Note ON: Time 166920, Note Name: D3, Velocity: 69
Note OFF: Time 166980, Note Name: D3
Note ON: Time 167040, Note Name: C3, Velocity: 75
Note OFF: Time 167280, Note Name: C3
Note ON: Time 167280, Note Name: G1, Velocity: 77
Note ON: Time 167280, Note Name: G2, Velocity: 77
Note OFF: Time 167400, Note Name: G2
Note OFF: Time 167400, Note Name: G1
Note ON: Time 167520, Note Name: D#2, Velocity: 62
Note ON: Time 167520, Note Name: D#3, Velocity: 74
Note OFF: Time 167640, Note Name: D#3
Note OFF: Time 167640, Note Name: D#2
Note ON: Time 167760, Note Name: D2, Velocity: 62
Note ON: Time 167760, Note Name: D3, Velocity: 74
Note OFF: Time 167880, Note Name: D3
Note OFF: Time 167880, Note Name: D2
Note ON: Time 168000, Note Name: C2, Velocity: 65
Note ON: Time 168000, Note Name: C3, Velocity: 77
Note OFF: Time 168120, Note Name: C3
Note OFF: Time 168120, Note Name: C2
Note ON: Time 168240, Note Name: G1, Velocity: 61
Note ON: Time 168240, Note Name: G2, Velocity: 72
Note OFF: Time 168360, Note Name: G2
Note OFF: Time 168360, Note Name: G1
Note ON: Time 168480, Note Name: A1, Velocity: 62
Note ON: Time 168480, Note Name: A2, Velocity: 73
Note OFF: Time 168600, Note Name: A2
Note OFF: Time 168600, Note Name: A1
Note ON: Time 168720, Note Name: B1, Velocity: 62
Note ON: Time 168720, Note Name: B2, Velocity: 73
Note OFF: Time 168840, Note Name: B2
Note OFF: Time 168840, Note Name: B1
Note ON: Time 168960, Note Name: C2, Velocity: 65
Note ON: Time 168960, Note Name: C3, Velocity: 77
Note OFF: Time 169080, Note Name: C3
Note OFF: Time 169080, Note Name: C2
Note ON: Time 169200, Note Name: C2, Velocity: 61
Note ON: Time 169200, Note Name: C3, Velocity: 72
Note OFF: Time 169320, Note Name: C3
Note OFF: Time 169320, Note Name: C2
Note ON: Time 169440, Note Name: G#2, Velocity: 66
Note ON: Time 169440, Note Name: G#3, Velocity: 78
Note OFF: Time 169560, Note Name: G#3
Note OFF: Time 169560, Note Name: G#2
Note ON: Time 169680, Note Name: G2, Velocity: 62
Note ON: Time 169680, Note Name: G3, Velocity: 73
Note OFF: Time 169800, Note Name: G3
Note OFF: Time 169800, Note Name: G2
Note ON: Time 169920, Note Name: F2, Velocity: 68
Note ON: Time 169920, Note Name: F3, Velocity: 80
Note OFF: Time 170040, Note Name: F3
Note OFF: Time 170040, Note Name: F2
Note ON: Time 170160, Note Name: C2, Velocity: 63
Note ON: Time 170160, Note Name: C3, Velocity: 75
Note OFF: Time 170280, Note Name: C3
Note OFF: Time 170280, Note Name: C2
Note ON: Time 170400, Note Name: D2, Velocity: 63
Note ON: Time 170400, Note Name: D3, Velocity: 75
Note OFF: Time 170520, Note Name: D3
Note OFF: Time 170520, Note Name: D2
Note ON: Time 170640, Note Name: E2, Velocity: 63
Note ON: Time 170640, Note Name: E3, Velocity: 75
Note OFF: Time 170760, Note Name: E3
Note OFF: Time 170760, Note Name: E2
Note ON: Time 170880, Note Name: F2, Velocity: 66
Note ON: Time 170880, Note Name: F3, Velocity: 78
Note OFF: Time 171000, Note Name: F3
Note OFF: Time 171000, Note Name: F2
Note ON: Time 171120, Note Name: F2, Velocity: 62
Note ON: Time 171120, Note Name: F3, Velocity: 74
Note OFF: Time 171240, Note Name: F3
Note OFF: Time 171240, Note Name: F2
Note ON: Time 171360, Note Name: C#3, Velocity: 68
Note ON: Time 171360, Note Name: C#4, Velocity: 80
Note OFF: Time 171480, Note Name: C#4
Note OFF: Time 171480, Note Name: C#3
Note ON: Time 171600, Note Name: C3, Velocity: 64
Note ON: Time 171600, Note Name: C4, Velocity: 76
Note OFF: Time 171720, Note Name: C4
Note OFF: Time 171720, Note Name: C3
Note ON: Time 171840, Note Name: A#2, Velocity: 68
Note ON: Time 171840, Note Name: A#3, Velocity: 80
Note OFF: Time 171960, Note Name: A#3
Note OFF: Time 171960, Note Name: A#2
Note ON: Time 172080, Note Name: G#2, Velocity: 62
Note ON: Time 172080, Note Name: G#3, Velocity: 73
Note OFF: Time 172200, Note Name: G#3
Note OFF: Time 172200, Note Name: G#2
Note ON: Time 172320, Note Name: G2, Velocity: 62
Note ON: Time 172320, Note Name: G3, Velocity: 74
Note OFF: Time 172440, Note Name: G3
Note OFF: Time 172440, Note Name: G2
Note ON: Time 172560, Note Name: F2, Velocity: 62
Note ON: Time 172560, Note Name: F3, Velocity: 74
Note OFF: Time 172680, Note Name: F3
Note OFF: Time 172680, Note Name: F2
Note ON: Time 172800, Note Name: D#2, Velocity: 69
Note ON: Time 172800, Note Name: D#3, Velocity: 82
Note OFF: Time 172920, Note Name: D#3
Note OFF: Time 172920, Note Name: D#2
Note ON: Time 173040, Note Name: C#3, Velocity: 75
Note OFF: Time 173160, Note Name: C#3
Note ON: Time 173280, Note Name: C3, Velocity: 75
Note OFF: Time 173400, Note Name: C3
Note ON: Time 173520, Note Name: A#2, Velocity: 75
Note OFF: Time 173640, Note Name: A#2
Note ON: Time 173760, Note Name: G#2, Velocity: 84
Note OFF: Time 173880, Note Name: G#2
Note ON: Time 174000, Note Name: G2, Velocity: 76
Note OFF: Time 174120, Note Name: G2
Note ON: Time 174240, Note Name: F2, Velocity: 76
Note OFF: Time 174360, Note Name: F2
Note ON: Time 174480, Note Name: D#2, Velocity: 76
Note OFF: Time 174600, Note Name: D#2
Note ON: Time 174720, Note Name: G#2, Velocity: 84
Note OFF: Time 174960, Note Name: G#2
Note ON: Time 174960, Note Name: B1, Velocity: 63
Note OFF: Time 175040, Note Name: B1
Note ON: Time 175040, Note Name: A1, Velocity: 56
Note OFF: Time 175120, Note Name: A1
Note ON: Time 175120, Note Name: B1, Velocity: 57
Note OFF: Time 175200, Note Name: B1
Note ON: Time 175200, Note Name: C2, Velocity: 57
Note OFF: Time 175280, Note Name: C2
Note ON: Time 175280, Note Name: D#2, Velocity: 58
Note OFF: Time 175360, Note Name: D#2
Note ON: Time 175360, Note Name: F2, Velocity: 59
Note OFF: Time 175440, Note Name: F2
Note ON: Time 175440, Note Name: G2, Velocity: 60
Note OFF: Time 175520, Note Name: G2
Note ON: Time 175520, Note Name: A2, Velocity: 62
Note OFF: Time 175600, Note Name: A2
Note ON: Time 175600, Note Name: B2, Velocity: 63
Note OFF: Time 175680, Note Name: B2
Note ON: Time 175680, Note Name: C3, Velocity: 60
Note OFF: Time 175760, Note Name: C3
Note ON: Time 175760, Note Name: D3, Velocity: 62
Note OFF: Time 175840, Note Name: D3
Note ON: Time 175840, Note Name: D#3, Velocity: 63
Note OFF: Time 175920, Note Name: D#3
Note ON: Time 175920, Note Name: F3, Velocity: 65
Note OFF: Time 176000, Note Name: F3
Note ON: Time 176000, Note Name: D#3, Velocity: 63
Note OFF: Time 176080, Note Name: D#3
Note ON: Time 176080, Note Name: D3, Velocity: 62
Note OFF: Time 176160, Note Name: D3
Note ON: Time 176160, Note Name: C3, Velocity: 63
Note OFF: Time 176240, Note Name: C3
Note ON: Time 176240, Note Name: D3, Velocity: 62
Note OFF: Time 176320, Note Name: D3
Note ON: Time 176320, Note Name: D#3, Velocity: 63
Note OFF: Time 176400, Note Name: D#3
Note ON: Time 176400, Note Name: F3, Velocity: 65
Note OFF: Time 176480, Note Name: F3
Note ON: Time 176480, Note Name: D#3, Velocity: 64
Note OFF: Time 176560, Note Name: D#3
Note ON: Time 176560, Note Name: D3, Velocity: 63
Note OFF: Time 176640, Note Name: D3
Note ON: Time 176640, Note Name: C3, Velocity: 68
Note OFF: Time 176880, Note Name: C3
Note ON: Time 176880, Note Name: E2, Velocity: 63
Note OFF: Time 176960, Note Name: E2
Note ON: Time 176960, Note Name: D2, Velocity: 56
Note OFF: Time 177040, Note Name: D2
Note ON: Time 177040, Note Name: E2, Velocity: 56
Note OFF: Time 177120, Note Name: E2
Note ON: Time 177120, Note Name: F2, Velocity: 54
Note OFF: Time 177200, Note Name: F2
Note ON: Time 177200, Note Name: G#2, Velocity: 56
Note OFF: Time 177280, Note Name: G#2
Note ON: Time 177280, Note Name: A#2, Velocity: 58
Note OFF: Time 177360, Note Name: A#2
Note ON: Time 177360, Note Name: C3, Velocity: 60
Note OFF: Time 177440, Note Name: C3
Note ON: Time 177440, Note Name: D3, Velocity: 62
Note OFF: Time 177520, Note Name: D3
Note ON: Time 177520, Note Name: E3, Velocity: 63
Note OFF: Time 177600, Note Name: E3
Note ON: Time 177600, Note Name: F3, Velocity: 65
Note OFF: Time 177680, Note Name: F3
Note ON: Time 177680, Note Name: G3, Velocity: 65
Note OFF: Time 177760, Note Name: G3
Note ON: Time 177760, Note Name: G#3, Velocity: 66
Note OFF: Time 177840, Note Name: G#3
Note ON: Time 177840, Note Name: A#3, Velocity: 68
Note OFF: Time 177920, Note Name: A#3
Note ON: Time 177920, Note Name: G#3, Velocity: 65
Note OFF: Time 178000, Note Name: G#3
Note ON: Time 178000, Note Name: G3, Velocity: 63
Note OFF: Time 178080, Note Name: G3
Note ON: Time 178080, Note Name: F3, Velocity: 60
Note OFF: Time 178160, Note Name: F3
Note ON: Time 178160, Note Name: G3, Velocity: 62
Note OFF: Time 178240, Note Name: G3
Note ON: Time 178240, Note Name: G#3, Velocity: 64
Note OFF: Time 178320, Note Name: G#3
Note ON: Time 178320, Note Name: A#3, Velocity: 66
Note OFF: Time 178400, Note Name: A#3
Note ON: Time 178400, Note Name: G#3, Velocity: 64
Note OFF: Time 178480, Note Name: G#3
Note ON: Time 178480, Note Name: G3, Velocity: 63
Note OFF: Time 178560, Note Name: G3
Note ON: Time 178560, Note Name: F3, Velocity: 67
Note OFF: Time 178800, Note Name: F3
Note ON: Time 178800, Note Name: A2, Velocity: 63
Note OFF: Time 178880, Note Name: A2
Note ON: Time 178880, Note Name: G2, Velocity: 58
Note OFF: Time 178960, Note Name: G2
Note ON: Time 178960, Note Name: A2, Velocity: 58
Note OFF: Time 179040, Note Name: A2
Note ON: Time 179040, Note Name: A#2, Velocity: 63
Note OFF: Time 179120, Note Name: A#2
Note ON: Time 179120, Note Name: C3, Velocity: 58
Note OFF: Time 179200, Note Name: C3
Note ON: Time 179200, Note Name: A#2, Velocity: 58
Note OFF: Time 179280, Note Name: A#2
Note ON: Time 179280, Note Name: A2, Velocity: 63
Note OFF: Time 179360, Note Name: A2
Note ON: Time 179360, Note Name: G2, Velocity: 60
Note OFF: Time 179440, Note Name: G2
Note ON: Time 179440, Note Name: A2, Velocity: 60
Note OFF: Time 179520, Note Name: A2
Note ON: Time 179520, Note Name: A#2, Velocity: 59
Note OFF: Time 179600, Note Name: A#2
Note ON: Time 179600, Note Name: A2, Velocity: 59
Note OFF: Time 179680, Note Name: A2
Note ON: Time 179680, Note Name: A#2, Velocity: 60
Note OFF: Time 179760, Note Name: A#2
Note ON: Time 179760, Note Name: C3, Velocity: 61
Note OFF: Time 179840, Note Name: C3
Note ON: Time 179840, Note Name: B2, Velocity: 59
Note OFF: Time 179920, Note Name: B2
Note ON: Time 179920, Note Name: C3, Velocity: 59
Note OFF: Time 180000, Note Name: C3
Note ON: Time 180000, Note Name: C#3, Velocity: 63
Note OFF: Time 180080, Note Name: C#3
Note ON: Time 180080, Note Name: C3, Velocity: 61
Note OFF: Time 180160, Note Name: C3
Note ON: Time 180160, Note Name: C#3, Velocity: 61
Note OFF: Time 180240, Note Name: C#3
Note ON: Time 180240, Note Name: D3, Velocity: 64
Note OFF: Time 180320, Note Name: D3
Note ON: Time 180320, Note Name: C3, Velocity: 62
Note OFF: Time 180400, Note Name: C3
Note ON: Time 180400, Note Name: D3, Velocity: 62
Note OFF: Time 180480, Note Name: D3
Note ON: Time 180480, Note Name: D#3, Velocity: 67
Note OFF: Time 180560, Note Name: D#3
Note ON: Time 180560, Note Name: F3, Velocity: 63
Note OFF: Time 180640, Note Name: F3
Note ON: Time 180640, Note Name: D#3, Velocity: 63
Note OFF: Time 180720, Note Name: D#3
Note ON: Time 180720, Note Name: C#3, Velocity: 67
Note OFF: Time 180800, Note Name: C#3
Note ON: Time 180800, Note Name: D#3, Velocity: 63
Note OFF: Time 180880, Note Name: D#3
Note ON: Time 180880, Note Name: C#3, Velocity: 63
Note OFF: Time 180960, Note Name: C#3
Note ON: Time 180960, Note Name: C3, Velocity: 66
Note OFF: Time 181040, Note Name: C3
Note ON: Time 181040, Note Name: C#3, Velocity: 63
Note OFF: Time 181120, Note Name: C#3
Note ON: Time 181120, Note Name: C3, Velocity: 63
Note OFF: Time 181200, Note Name: C3
Note ON: Time 181200, Note Name: A#2, Velocity: 66
Note OFF: Time 181280, Note Name: A#2
Note ON: Time 181280, Note Name: C3, Velocity: 62
Note OFF: Time 181360, Note Name: C3
Note ON: Time 181360, Note Name: A#2, Velocity: 62
Note OFF: Time 181440, Note Name: A#2
Note ON: Time 181440, Note Name: G#2, Velocity: 64
Note OFF: Time 181520, Note Name: G#2
Note ON: Time 181520, Note Name: A#2, Velocity: 62
Note OFF: Time 181600, Note Name: A#2
Note ON: Time 181600, Note Name: G#2, Velocity: 62
Note OFF: Time 181680, Note Name: G#2
Note ON: Time 181680, Note Name: G2, Velocity: 64
Note OFF: Time 181760, Note Name: G2
Note ON: Time 181760, Note Name: G#2, Velocity: 61
Note OFF: Time 181840, Note Name: G#2
Note ON: Time 181840, Note Name: G2, Velocity: 61
Note OFF: Time 181920, Note Name: G2
Note ON: Time 181920, Note Name: F2, Velocity: 63
Note OFF: Time 182000, Note Name: F2
Note ON: Time 182000, Note Name: G2, Velocity: 62
Note OFF: Time 182080, Note Name: G2
Note ON: Time 182080, Note Name: F2, Velocity: 62
Note OFF: Time 182160, Note Name: F2
Note ON: Time 182160, Note Name: D#2, Velocity: 63
Note OFF: Time 182240, Note Name: D#2
Note ON: Time 182240, Note Name: F2, Velocity: 60
Note OFF: Time 182320, Note Name: F2
Note ON: Time 182320, Note Name: D#2, Velocity: 60
Note OFF: Time 182400, Note Name: D#2
Note ON: Time 182400, Note Name: G#2, Velocity: 77
Note OFF: Time 182520, Note Name: G#2
Note ON: Time 182640, Note Name: D#2, Velocity: 79
Note ON: Time 182640, Note Name: D#3, Velocity: 79
Note OFF: Time 182760, Note Name: D#3
Note OFF: Time 182760, Note Name: D#2
Note ON: Time 182880, Note Name: C3, Velocity: 62
Note ON: Time 182880, Note Name: C4, Velocity: 74
Note OFF: Time 183000, Note Name: C4
Note OFF: Time 183000, Note Name: C3
Note ON: Time 183120, Note Name: A#2, Velocity: 62
Note ON: Time 183120, Note Name: A#3, Velocity: 74
Note OFF: Time 183240, Note Name: A#3
Note OFF: Time 183240, Note Name: A#2
Note ON: Time 183360, Note Name: G#2, Velocity: 65
Note ON: Time 183360, Note Name: G#3, Velocity: 77
Note OFF: Time 183480, Note Name: G#3
Note OFF: Time 183480, Note Name: G#2
Note ON: Time 183600, Note Name: D#2, Velocity: 61
Note ON: Time 183600, Note Name: D#3, Velocity: 72
Note OFF: Time 183720, Note Name: D#3
Note OFF: Time 183720, Note Name: D#2
Note ON: Time 183840, Note Name: F2, Velocity: 62
Note ON: Time 183840, Note Name: F3, Velocity: 73
Note OFF: Time 183960, Note Name: F3
Note OFF: Time 183960, Note Name: F2
Note ON: Time 184080, Note Name: G2, Velocity: 62
Note ON: Time 184080, Note Name: G3, Velocity: 73
Note OFF: Time 184200, Note Name: G3
Note OFF: Time 184200, Note Name: G2
Note ON: Time 184320, Note Name: G#2, Velocity: 65
Note ON: Time 184320, Note Name: G#3, Velocity: 77
Note OFF: Time 184440, Note Name: G#3
Note OFF: Time 184440, Note Name: G#2
Note ON: Time 184560, Note Name: C2, Velocity: 61
Note ON: Time 184560, Note Name: C3, Velocity: 72
Note OFF: Time 184680, Note Name: C3
Note OFF: Time 184680, Note Name: C2
Note ON: Time 184800, Note Name: G#2, Velocity: 66
Note ON: Time 184800, Note Name: G#3, Velocity: 78
Note OFF: Time 184920, Note Name: G#3
Note OFF: Time 184920, Note Name: G#2
Note ON: Time 185040, Note Name: G2, Velocity: 62
Note ON: Time 185040, Note Name: G3, Velocity: 73
Note OFF: Time 185160, Note Name: G3
Note OFF: Time 185160, Note Name: G2
Note ON: Time 185280, Note Name: F2, Velocity: 68
Note ON: Time 185280, Note Name: F3, Velocity: 80
Note OFF: Time 185400, Note Name: F3
Note OFF: Time 185400, Note Name: F2
Note ON: Time 185520, Note Name: C2, Velocity: 63
Note ON: Time 185520, Note Name: C3, Velocity: 75
Note OFF: Time 185640, Note Name: C3
Note OFF: Time 185640, Note Name: C2
Note ON: Time 185760, Note Name: D2, Velocity: 63
Note ON: Time 185760, Note Name: D3, Velocity: 75
Note OFF: Time 185880, Note Name: D3
Note OFF: Time 185880, Note Name: D2
Note ON: Time 186000, Note Name: E2, Velocity: 63
Note ON: Time 186000, Note Name: E3, Velocity: 75
Note OFF: Time 186120, Note Name: E3
Note OFF: Time 186120, Note Name: E2
Note ON: Time 186240, Note Name: F2, Velocity: 66
Note ON: Time 186240, Note Name: F3, Velocity: 78
Note OFF: Time 186360, Note Name: F3
Note OFF: Time 186360, Note Name: F2
Note ON: Time 186480, Note Name: F3, Velocity: 62
Note ON: Time 186480, Note Name: F4, Velocity: 74
Note OFF: Time 186600, Note Name: F4
Note OFF: Time 186600, Note Name: F3
Note ON: Time 186720, Note Name: G#3, Velocity: 68
Note ON: Time 186720, Note Name: G#4, Velocity: 80
Note OFF: Time 186840, Note Name: G#4
Note OFF: Time 186840, Note Name: G#3
Note ON: Time 186960, Note Name: G3, Velocity: 64
Note ON: Time 186960, Note Name: G4, Velocity: 76
Note OFF: Time 187080, Note Name: G4
Note OFF: Time 187080, Note Name: G3
Note ON: Time 187200, Note Name: F3, Velocity: 68
Note ON: Time 187200, Note Name: F4, Velocity: 80
Note OFF: Time 187320, Note Name: F4
Note OFF: Time 187320, Note Name: F3
Note ON: Time 187440, Note Name: D#3, Velocity: 62
Note ON: Time 187440, Note Name: D#4, Velocity: 73
Note OFF: Time 187560, Note Name: D#4
Note OFF: Time 187560, Note Name: D#3
Note ON: Time 187680, Note Name: D3, Velocity: 62
Note ON: Time 187680, Note Name: D4, Velocity: 74
Note OFF: Time 187800, Note Name: D4
Note OFF: Time 187800, Note Name: D3
Note ON: Time 187920, Note Name: C3, Velocity: 62
Note ON: Time 187920, Note Name: C4, Velocity: 74
Note OFF: Time 188040, Note Name: C4
Note OFF: Time 188040, Note Name: C3
Note ON: Time 188160, Note Name: B2, Velocity: 69
Note ON: Time 188160, Note Name: B3, Velocity: 82
Note OFF: Time 188640, Note Name: B3
Note OFF: Time 188640, Note Name: B2
Note ON: Time 188640, Note Name: G2, Velocity: 64
Note ON: Time 188640, Note Name: G3, Velocity: 76
Note OFF: Time 188880, Note Name: G3
Note OFF: Time 188880, Note Name: G2
Note ON: Time 188880, Note Name: G2, Velocity: 61
Note ON: Time 188880, Note Name: G3, Velocity: 72
Note OFF: Time 189120, Note Name: G3
Note OFF: Time 189120, Note Name: G2
Note ON: Time 189120, Note Name: G2, Velocity: 64
Note ON: Time 189120, Note Name: G3, Velocity: 76
Note OFF: Time 189360, Note Name: G3
Note OFF: Time 189360, Note Name: G2
Note ON: Time 189360, Note Name: G2, Velocity: 60
Note ON: Time 189360, Note Name: G3, Velocity: 71
Note OFF: Time 189600, Note Name: G3
Note OFF: Time 189600, Note Name: G2
Note ON: Time 189600, Note Name: G2, Velocity: 64
Note ON: Time 189600, Note Name: G3, Velocity: 76
Note OFF: Time 189840, Note Name: G3
Note OFF: Time 189840, Note Name: G2
Note ON: Time 189840, Note Name: G2, Velocity: 61
Note ON: Time 189840, Note Name: G3, Velocity: 72
Note OFF: Time 190080, Note Name: G3
Note OFF: Time 190080, Note Name: G2
Note ON: Time 190080, Note Name: C3, Velocity: 71
Note ON: Time 190080, Note Name: C4, Velocity: 84
Note OFF: Time 190320, Note Name: C4
Note OFF: Time 190320, Note Name: C3
Note ON: Time 190320, Note Name: G2, Velocity: 63
Note OFF: Time 190400, Note Name: G2
Note ON: Time 190400, Note Name: F2, Velocity: 56
Note OFF: Time 190480, Note Name: F2
Note ON: Time 190480, Note Name: G2, Velocity: 57
Note OFF: Time 190560, Note Name: G2
Note ON: Time 190560, Note Name: G#2, Velocity: 57
Note OFF: Time 190640, Note Name: G#2
Note ON: Time 190640, Note Name: C3, Velocity: 58
Note OFF: Time 190720, Note Name: C3
Note ON: Time 190720, Note Name: C#3, Velocity: 59
Note OFF: Time 190800, Note Name: C#3
Note ON: Time 190800, Note Name: D#3, Velocity: 60
Note OFF: Time 190880, Note Name: D#3
Note ON: Time 190880, Note Name: F3, Velocity: 62
Note OFF: Time 190960, Note Name: F3
Note ON: Time 190960, Note Name: G3, Velocity: 63
Note OFF: Time 191040, Note Name: G3
Note ON: Time 191040, Note Name: G#3, Velocity: 60
Note OFF: Time 191120, Note Name: G#3
Note ON: Time 191120, Note Name: A#3, Velocity: 62
Note OFF: Time 191200, Note Name: A#3
Note ON: Time 191200, Note Name: C4, Velocity: 63
Note OFF: Time 191280, Note Name: C4
Note ON: Time 191280, Note Name: C#4, Velocity: 65
Note OFF: Time 191360, Note Name: C#4
Note ON: Time 191360, Note Name: C4, Velocity: 63
Note OFF: Time 191440, Note Name: C4
Note ON: Time 191440, Note Name: A#3, Velocity: 62
Note OFF: Time 191520, Note Name: A#3
Note ON: Time 191520, Note Name: G#3, Velocity: 63
Note OFF: Time 191600, Note Name: G#3
Note ON: Time 191600, Note Name: A#3, Velocity: 62
Note OFF: Time 191680, Note Name: A#3
Note ON: Time 191680, Note Name: C4, Velocity: 63
Note OFF: Time 191760, Note Name: C4
Note ON: Time 191760, Note Name: C#4, Velocity: 65
Note OFF: Time 191840, Note Name: C#4
Note ON: Time 191840, Note Name: C4, Velocity: 64
Note OFF: Time 191920, Note Name: C4
Note ON: Time 191920, Note Name: A#3, Velocity: 63
Note OFF: Time 192000, Note Name: A#3
Note ON: Time 192000, Note Name: G#3, Velocity: 68
Note OFF: Time 192240, Note Name: G#3
Note ON: Time 192240, Note Name: E2, Velocity: 63
Note OFF: Time 192320, Note Name: E2
Note ON: Time 192320, Note Name: D2, Velocity: 56
Note OFF: Time 192400, Note Name: D2
Note ON: Time 192400, Note Name: E2, Velocity: 56
Note OFF: Time 192480, Note Name: E2
Note ON: Time 192480, Note Name: F2, Velocity: 54
Note OFF: Time 192560, Note Name: F2
Note ON: Time 192560, Note Name: G#2, Velocity: 56
Note OFF: Time 192640, Note Name: G#2
Note ON: Time 192640, Note Name: A#2, Velocity: 58
Note OFF: Time 192720, Note Name: A#2
Note ON: Time 192720, Note Name: C3, Velocity: 60
Note OFF: Time 192800, Note Name: C3
Note ON: Time 192800, Note Name: D3, Velocity: 62
Note OFF: Time 192880, Note Name: D3
Note ON: Time 192880, Note Name: E3, Velocity: 63
Note OFF: Time 192960, Note Name: E3
Note ON: Time 192960, Note Name: F3, Velocity: 65
Note OFF: Time 193040, Note Name: F3
Note ON: Time 193040, Note Name: G3, Velocity: 65
Note OFF: Time 193120, Note Name: G3
Note ON: Time 193120, Note Name: G#3, Velocity: 66
Note OFF: Time 193200, Note Name: G#3
Note ON: Time 193200, Note Name: A#3, Velocity: 68
Note OFF: Time 193280, Note Name: A#3
Note ON: Time 193280, Note Name: G#3, Velocity: 65
Note OFF: Time 193360, Note Name: G#3
Note ON: Time 193360, Note Name: G3, Velocity: 63
Note OFF: Time 193440, Note Name: G3
Note ON: Time 193440, Note Name: F3, Velocity: 60
Note OFF: Time 193520, Note Name: F3
Note ON: Time 193520, Note Name: G3, Velocity: 62
Note OFF: Time 193600, Note Name: G3
Note ON: Time 193600, Note Name: G#3, Velocity: 64
Note OFF: Time 193680, Note Name: G#3
Note ON: Time 193680, Note Name: A#3, Velocity: 66
Note OFF: Time 193760, Note Name: A#3
Note ON: Time 193760, Note Name: G#3, Velocity: 64
Note OFF: Time 193840, Note Name: G#3
Note ON: Time 193840, Note Name: G3, Velocity: 63
Note OFF: Time 193920, Note Name: G3
Note ON: Time 193920, Note Name: F3, Velocity: 67
Note OFF: Time 194160, Note Name: F3
Note ON: Time 194160, Note Name: C2, Velocity: 63
Note OFF: Time 194240, Note Name: C2
Note ON: Time 194240, Note Name: D2, Velocity: 58
Note OFF: Time 194320, Note Name: D2
Note ON: Time 194320, Note Name: E2, Velocity: 58
Note OFF: Time 194400, Note Name: E2
Note ON: Time 194400, Note Name: F2, Velocity: 63
Note OFF: Time 194480, Note Name: F2
Note ON: Time 194480, Note Name: E2, Velocity: 58
Note OFF: Time 194560, Note Name: E2
Note ON: Time 194560, Note Name: F2, Velocity: 58
Note OFF: Time 194640, Note Name: F2
Note ON: Time 194640, Note Name: G2, Velocity: 63
Note OFF: Time 194720, Note Name: G2
Note ON: Time 194720, Note Name: F2, Velocity: 60
Note OFF: Time 194800, Note Name: F2
Note ON: Time 194800, Note Name: G2, Velocity: 60
Note OFF: Time 194880, Note Name: G2
Note ON: Time 194880, Note Name: G#2, Velocity: 59
Note OFF: Time 194960, Note Name: G#2
Note ON: Time 194960, Note Name: A#2, Velocity: 59
Note OFF: Time 195040, Note Name: A#2
Note ON: Time 195040, Note Name: G#2, Velocity: 60
Note OFF: Time 195120, Note Name: G#2
Note ON: Time 195120, Note Name: G2, Velocity: 61
Note OFF: Time 195200, Note Name: G2
Note ON: Time 195200, Note Name: G#2, Velocity: 59
Note OFF: Time 195280, Note Name: G#2
Note ON: Time 195280, Note Name: G2, Velocity: 59
Note OFF: Time 195360, Note Name: G2
Note ON: Time 195360, Note Name: F2, Velocity: 63
Note OFF: Time 195440, Note Name: F2
Note ON: Time 195440, Note Name: G2, Velocity: 61
Note OFF: Time 195520, Note Name: G2
Note ON: Time 195520, Note Name: F2, Velocity: 61
Note OFF: Time 195600, Note Name: F2
Note ON: Time 195600, Note Name: F#2, Velocity: 64
Note OFF: Time 195680, Note Name: F#2
Note ON: Time 195680, Note Name: G2, Velocity: 62
Note OFF: Time 195760, Note Name: G2
Note ON: Time 195760, Note Name: F#2, Velocity: 62
Note OFF: Time 195840, Note Name: F#2
Note ON: Time 195840, Note Name: G2, Velocity: 67
Note OFF: Time 195920, Note Name: G2
Note ON: Time 195920, Note Name: G#2, Velocity: 63
Note OFF: Time 196000, Note Name: G#2
Note ON: Time 196000, Note Name: G2, Velocity: 63
Note OFF: Time 196080, Note Name: G2
Note ON: Time 196080, Note Name: F#2, Velocity: 67
Note OFF: Time 196160, Note Name: F#2
Note ON: Time 196160, Note Name: G2, Velocity: 63
Note OFF: Time 196240, Note Name: G2
Note ON: Time 196240, Note Name: F#2, Velocity: 63
Note OFF: Time 196320, Note Name: F#2
Note ON: Time 196320, Note Name: G2, Velocity: 66
Note OFF: Time 196400, Note Name: G2
Note ON: Time 196400, Note Name: G#2, Velocity: 63
Note OFF: Time 196480, Note Name: G#2
Note ON: Time 196480, Note Name: G2, Velocity: 63
Note OFF: Time 196560, Note Name: G2
Note ON: Time 196560, Note Name: F#2, Velocity: 66
Note OFF: Time 196640, Note Name: F#2
Note ON: Time 196640, Note Name: G2, Velocity: 62
Note OFF: Time 196720, Note Name: G2
Note ON: Time 196720, Note Name: F#2, Velocity: 62
Note OFF: Time 196800, Note Name: F#2
Note ON: Time 196800, Note Name: G2, Velocity: 64
Note OFF: Time 196880, Note Name: G2
Note ON: Time 196880, Note Name: G#2, Velocity: 62
Note OFF: Time 196960, Note Name: G#2
Note ON: Time 196960, Note Name: G2, Velocity: 62
Note OFF: Time 197040, Note Name: G2
Note ON: Time 197040, Note Name: F2, Velocity: 64
Note OFF: Time 197120, Note Name: F2
Note ON: Time 197120, Note Name: G2, Velocity: 61
Note OFF: Time 197200, Note Name: G2
Note ON: Time 197200, Note Name: F2, Velocity: 61
Note OFF: Time 197280, Note Name: F2
Note ON: Time 197280, Note Name: D#2, Velocity: 63
Note OFF: Time 197360, Note Name: D#2
Note ON: Time 197360, Note Name: F2, Velocity: 62
Note OFF: Time 197440, Note Name: F2
Note ON: Time 197440, Note Name: D#2, Velocity: 62
Note OFF: Time 197520, Note Name: D#2
Note ON: Time 197520, Note Name: D2, Velocity: 63
Note OFF: Time 197600, Note Name: D2
Note ON: Time 197600, Note Name: D#2, Velocity: 60
Note OFF: Time 197680, Note Name: D#2
Note ON: Time 197680, Note Name: D2, Velocity: 60
Note OFF: Time 197760, Note Name: D2
Note ON: Time 197760, Note Name: C2, Velocity: 77
Note OFF: Time 197880, Note Name: C2
Note ON: Time 198000, Note Name: F2, Velocity: 79
Note ON: Time 198000, Note Name: F3, Velocity: 79
Note OFF: Time 198120, Note Name: F3
Note OFF: Time 198120, Note Name: F2
Note ON: Time 198240, Note Name: G#2, Velocity: 62
Note ON: Time 198240, Note Name: G#3, Velocity: 74
Note OFF: Time 198360, Note Name: G#3
Note OFF: Time 198360, Note Name: G#2
Note ON: Time 198480, Note Name: G2, Velocity: 62
Note ON: Time 198480, Note Name: G3, Velocity: 74
Note OFF: Time 198600, Note Name: G3
Note OFF: Time 198600, Note Name: G2
Note ON: Time 198720, Note Name: F2, Velocity: 68
Note ON: Time 198720, Note Name: F3, Velocity: 80
Note OFF: Time 198840, Note Name: F3
Note OFF: Time 198840, Note Name: F2
Note ON: Time 198960, Note Name: D#2, Velocity: 62
Note ON: Time 198960, Note Name: D#3, Velocity: 73
Note OFF: Time 199080, Note Name: D#3
Note OFF: Time 199080, Note Name: D#2
Note ON: Time 199200, Note Name: D2, Velocity: 62
Note ON: Time 199200, Note Name: D3, Velocity: 74
Note OFF: Time 199320, Note Name: D3
Note OFF: Time 199320, Note Name: D2
Note ON: Time 199440, Note Name: C2, Velocity: 62
Note ON: Time 199440, Note Name: C3, Velocity: 74
Note OFF: Time 199560, Note Name: C3
Note OFF: Time 199560, Note Name: C2
Note ON: Time 199680, Note Name: B1, Velocity: 69
Note ON: Time 199680, Note Name: B2, Velocity: 82
Note OFF: Time 200160, Note Name: B2
Note OFF: Time 200160, Note Name: B1
Note ON: Time 200160, Note Name: G1, Velocity: 64
Note ON: Time 200160, Note Name: G2, Velocity: 76
Note OFF: Time 200398, Note Name: G2
Note OFF: Time 200398, Note Name: G1
Note ON: Time 200400, Note Name: G1, Velocity: 61
Note ON: Time 200400, Note Name: G2, Velocity: 72
Note OFF: Time 200638, Note Name: G2
Note OFF: Time 200638, Note Name: G1
Note ON: Time 200640, Note Name: G1, Velocity: 64
Note ON: Time 200640, Note Name: G2, Velocity: 76
Note OFF: Time 200878, Note Name: G2
Note OFF: Time 200878, Note Name: G1
Note ON: Time 200880, Note Name: G1, Velocity: 60
Note ON: Time 200880, Note Name: G2, Velocity: 71
Note OFF: Time 201118, Note Name: G2
Note OFF: Time 201118, Note Name: G1
Note ON: Time 201120, Note Name: G1, Velocity: 64
Note ON: Time 201120, Note Name: G2, Velocity: 76
Note OFF: Time 201358, Note Name: G2
Note OFF: Time 201358, Note Name: G1
Note ON: Time 201360, Note Name: G1, Velocity: 61
Note ON: Time 201360, Note Name: G2, Velocity: 72
Note OFF: Time 201598, Note Name: G2
Note OFF: Time 201598, Note Name: G1
Note ON: Time 201600, Note Name: C2, Velocity: 69
Note ON: Time 201600, Note Name: C3, Velocity: 82
Note OFF: Time 201840, Note Name: C3
Note OFF: Time 201840, Note Name: C2
Note ON: Time 202080, Note Name: G2, Velocity: 67
Note ON: Time 202080, Note Name: G3, Velocity: 79
Note OFF: Time 202318, Note Name: G3
Note OFF: Time 202318, Note Name: G2
Note ON: Time 202320, Note Name: G2, Velocity: 64
Note ON: Time 202320, Note Name: G3, Velocity: 75
Note OFF: Time 202558, Note Name: G3
Note OFF: Time 202558, Note Name: G2
Note ON: Time 202560, Note Name: G2, Velocity: 67
Note ON: Time 202560, Note Name: G3, Velocity: 79
Note OFF: Time 202798, Note Name: G3
Note OFF: Time 202798, Note Name: G2
Note ON: Time 202800, Note Name: G2, Velocity: 63
Note ON: Time 202800, Note Name: G3, Velocity: 74
Note OFF: Time 203038, Note Name: G3
Note OFF: Time 203038, Note Name: G2
Note ON: Time 203040, Note Name: G2, Velocity: 67
Note ON: Time 203040, Note Name: G3, Velocity: 79
Note OFF: Time 203278, Note Name: G3
Note OFF: Time 203278, Note Name: G2
Note ON: Time 203280, Note Name: G2, Velocity: 64
Note ON: Time 203280, Note Name: G3, Velocity: 75
Note OFF: Time 203518, Note Name: G3
Note OFF: Time 203518, Note Name: G2
Note ON: Time 203520, Note Name: C3, Velocity: 72
Note ON: Time 203520, Note Name: C4, Velocity: 86
Note OFF: Time 203760, Note Name: C4
Note OFF: Time 203760, Note Name: C3
Note ON: Time 204000, Note Name: G1, Velocity: 80
Note ON: Time 204000, Note Name: G2, Velocity: 95
Note OFF: Time 204238, Note Name: G2
Note OFF: Time 204238, Note Name: G1
Note ON: Time 204240, Note Name: G1, Velocity: 77
Note ON: Time 204240, Note Name: G2, Velocity: 90
Note OFF: Time 204478, Note Name: G2
Note OFF: Time 204478, Note Name: G1
Note ON: Time 204480, Note Name: G1, Velocity: 80
Note ON: Time 204480, Note Name: G2, Velocity: 95
Note OFF: Time 204718, Note Name: G2
Note OFF: Time 204718, Note Name: G1
Note ON: Time 204720, Note Name: G1, Velocity: 75
Note ON: Time 204720, Note Name: G2, Velocity: 89
Note OFF: Time 204958, Note Name: G2
Note OFF: Time 204958, Note Name: G1
Note ON: Time 204960, Note Name: G1, Velocity: 80
Note ON: Time 204960, Note Name: G2, Velocity: 95
Note OFF: Time 205198, Note Name: G2
Note OFF: Time 205198, Note Name: G1
Note ON: Time 205200, Note Name: G1, Velocity: 77
Note ON: Time 205200, Note Name: G2, Velocity: 90
Note OFF: Time 205438, Note Name: G2
Note OFF: Time 205438, Note Name: G1
Note ON: Time 205440, Note Name: C2, Velocity: 85
Note ON: Time 205440, Note Name: C3, Velocity: 103
Note OFF: Time 205680, Note Name: C3
Note OFF: Time 205680, Note Name: C2
Note ON: Time 205920, Note Name: G1, Velocity: 80
Note ON: Time 205920, Note Name: G2, Velocity: 95
Note OFF: Time 206160, Note Name: G2
Note OFF: Time 206160, Note Name: G1
Note ON: Time 206400, Note Name: C2, Velocity: 85
Note ON: Time 206400, Note Name: C3, Velocity: 103
Note OFF: Time 206640, Note Name: C3
Note OFF: Time 206640, Note Name: C2
Note ON: Time 206880, Note Name: G1, Velocity: 80
Note ON: Time 206880, Note Name: G2, Velocity: 95
Note OFF: Time 207120, Note Name: G2
Note OFF: Time 207120, Note Name: G1
Note ON: Time 207360, Note Name: C2, Velocity: 73
Note ON: Time 207360, Note Name: C3, Velocity: 86
Note OFF: Time 207480, Note Name: C3
Note OFF: Time 207480, Note Name: C2
Note ON: Time 207840, Note Name: C2, Velocity: 73
Note ON: Time 207840, Note Name: C3, Velocity: 86
Note OFF: Time 207960, Note Name: C3
Note OFF: Time 207960, Note Name: C2
Note ON: Time 208320, Note Name: C2, Velocity: 73
Note ON: Time 208320, Note Name: C3, Velocity: 86
Note OFF: Time 208560, Note Name: C3
Note OFF: Time 208560, Note Name: C2
Note ON: Time 209280, Note Name: C2, Velocity: 48
Note ON: Time 209280, Note Name: C3, Velocity: 57
Note OFF: Time 209760, Note Name: C3
Note OFF: Time 209760, Note Name: C2
Note ON: Time 210240, Note Name: C2, Velocity: 39
Note ON: Time 210240, Note Name: C3, Velocity: 46
Note OFF: Time 210720, Note Name: C3
Note OFF: Time 210720, Note Name: C2
Note ON: Time 211200, Note Name: G#1, Velocity: 70
Note ON: Time 211200, Note Name: G#2, Velocity: 82
Note OFF: Time 211440, Note Name: G#2
Note OFF: Time 211440, Note Name: G#1
Note ON: Time 211680, Note Name: G#2, Velocity: 58
Note ON: Time 211680, Note Name: C3, Velocity: 58
Note ON: Time 211680, Note Name: D#3, Velocity: 58
Note ON: Time 211680, Note Name: G#3, Velocity: 69
Note OFF: Time 211920, Note Name: G#3
Note OFF: Time 211920, Note Name: G#2
Note OFF: Time 211920, Note Name: C3
Note OFF: Time 211920, Note Name: D#3
Note ON: Time 212160, Note Name: G#3, Velocity: 60
Note ON: Time 212160, Note Name: C4, Velocity: 60
Note ON: Time 212160, Note Name: D#4, Velocity: 60
Note ON: Time 212160, Note Name: G#4, Velocity: 71
Note OFF: Time 212880, Note Name: G#4
Note OFF: Time 212880, Note Name: G#3
Note OFF: Time 212880, Note Name: C4
Note OFF: Time 212880, Note Name: D#4
Note ON: Time 212880, Note Name: G#3, Velocity: 40
Note ON: Time 212880, Note Name: C4, Velocity: 40
Note ON: Time 212880, Note Name: D#4, Velocity: 40
Note ON: Time 212880, Note Name: G#4, Velocity: 48
Note OFF: Time 213120, Note Name: G#4
Note OFF: Time 213120, Note Name: G#3
Note OFF: Time 213120, Note Name: C4
Note OFF: Time 213120, Note Name: D#4
Note ON: Time 213120, Note Name: G#3, Velocity: 44
Note ON: Time 213120, Note Name: A#3, Velocity: 44
Note ON: Time 213120, Note Name: C#4, Velocity: 44
Note ON: Time 213120, Note Name: D#4, Velocity: 44
Note ON: Time 213120, Note Name: G4, Velocity: 52
Note OFF: Time 213600, Note Name: G4
Note OFF: Time 213600, Note Name: C#4
Note OFF: Time 213600, Note Name: G#3
Note OFF: Time 213600, Note Name: A#3
Note OFF: Time 213600, Note Name: D#4
Note ON: Time 213600, Note Name: G#3, Velocity: 33
Note ON: Time 213600, Note Name: A#3, Velocity: 33
Note ON: Time 213600, Note Name: C#4, Velocity: 33
Note ON: Time 213600, Note Name: D#4, Velocity: 33
Note ON: Time 213600, Note Name: G4, Velocity: 39
Note OFF: Time 214080, Note Name: G4
Note OFF: Time 214080, Note Name: C#4
Note OFF: Time 214080, Note Name: G#3
Note OFF: Time 214080, Note Name: A#3
Note OFF: Time 214080, Note Name: D#4
Note ON: Time 214080, Note Name: G#3, Velocity: 33
Note ON: Time 214080, Note Name: C4, Velocity: 33
Note ON: Time 214080, Note Name: D#4, Velocity: 33
Note ON: Time 214080, Note Name: G#4, Velocity: 39
Note OFF: Time 214560, Note Name: G#4
Note OFF: Time 214560, Note Name: G#3
Note OFF: Time 214560, Note Name: C4
Note OFF: Time 214560, Note Name: D#4
Note ON: Time 215040, Note Name: F1, Velocity: 70
Note ON: Time 215040, Note Name: F2, Velocity: 82
Note OFF: Time 215280, Note Name: F2
Note OFF: Time 215280, Note Name: F1
Note ON: Time 215520, Note Name: F2, Velocity: 58
Note ON: Time 215520, Note Name: G#2, Velocity: 58
Note ON: Time 215520, Note Name: C3, Velocity: 58
Note ON: Time 215520, Note Name: F3, Velocity: 69
Note OFF: Time 215760, Note Name: F3
Note OFF: Time 215760, Note Name: F2
Note OFF: Time 215760, Note Name: G#2
Note OFF: Time 215760, Note Name: C3
Note ON: Time 216000, Note Name: F3, Velocity: 59
Note ON: Time 216000, Note Name: G#3, Velocity: 59
Note ON: Time 216000, Note Name: C4, Velocity: 59
Note ON: Time 216000, Note Name: F4, Velocity: 70
Note OFF: Time 216720, Note Name: F4
Note OFF: Time 216720, Note Name: F3
Note OFF: Time 216720, Note Name: G#3
Note OFF: Time 216720, Note Name: C4
Note ON: Time 216720, Note Name: F3, Velocity: 40
Note ON: Time 216720, Note Name: G#3, Velocity: 40
Note ON: Time 216720, Note Name: C4, Velocity: 40
Note ON: Time 216720, Note Name: F4, Velocity: 48
Note OFF: Time 216960, Note Name: F4
Note OFF: Time 216960, Note Name: F3
Note OFF: Time 216960, Note Name: G#3
Note OFF: Time 216960, Note Name: C4
Note ON: Time 216960, Note Name: F3, Velocity: 44
Note ON: Time 216960, Note Name: G3, Velocity: 44
Note ON: Time 216960, Note Name: A#3, Velocity: 44
Note ON: Time 216960, Note Name: C4, Velocity: 44
Note ON: Time 216960, Note Name: E4, Velocity: 52
Note OFF: Time 217440, Note Name: E4
Note OFF: Time 217440, Note Name: A#3
Note OFF: Time 217440, Note Name: F3
Note OFF: Time 217440, Note Name: G3
Note OFF: Time 217440, Note Name: C4
Note ON: Time 217440, Note Name: F3, Velocity: 33
Note ON: Time 217440, Note Name: G3, Velocity: 33
Note ON: Time 217440, Note Name: A#3, Velocity: 33
Note ON: Time 217440, Note Name: C4, Velocity: 33
Note ON: Time 217440, Note Name: E4, Velocity: 39
Note OFF: Time 217920, Note Name: E4
Note OFF: Time 217920, Note Name: A#3
Note OFF: Time 217920, Note Name: F3
Note OFF: Time 217920, Note Name: G3
Note OFF: Time 217920, Note Name: C4
Note ON: Time 217920, Note Name: F3, Velocity: 33
Note ON: Time 217920, Note Name: G#3, Velocity: 33
Note ON: Time 217920, Note Name: C4, Velocity: 33
Note ON: Time 217920, Note Name: F4, Velocity: 39
Note OFF: Time 218400, Note Name: F4
Note OFF: Time 218400, Note Name: F3
Note OFF: Time 218400, Note Name: G#3
Note OFF: Time 218400, Note Name: C4
Note ON: Time 218880, Note Name: C#2, Velocity: 70
Note ON: Time 218880, Note Name: C#3, Velocity: 82
Note OFF: Time 219120, Note Name: C#3
Note OFF: Time 219120, Note Name: C#2
Note ON: Time 219360, Note Name: C#3, Velocity: 58
Note ON: Time 219360, Note Name: F3, Velocity: 58
Note ON: Time 219360, Note Name: G#3, Velocity: 58
Note ON: Time 219360, Note Name: C#4, Velocity: 69
Note OFF: Time 219600, Note Name: C#4
Note OFF: Time 219600, Note Name: C#3
Note OFF: Time 219600, Note Name: F3
Note OFF: Time 219600, Note Name: G#3
Note ON: Time 219840, Note Name: C#4, Velocity: 60
Note ON: Time 219840, Note Name: F4, Velocity: 60
Note ON: Time 219840, Note Name: G#4, Velocity: 60
Note ON: Time 219840, Note Name: C#5, Velocity: 71
Note OFF: Time 220560, Note Name: C#5
Note OFF: Time 220560, Note Name: C#4
Note OFF: Time 220560, Note Name: F4
Note OFF: Time 220560, Note Name: G#4
Note ON: Time 220560, Note Name: C#4, Velocity: 40
Note ON: Time 220560, Note Name: F4, Velocity: 40
Note ON: Time 220560, Note Name: G#4, Velocity: 40
Note ON: Time 220560, Note Name: C#5, Velocity: 48
Note OFF: Time 220800, Note Name: C#5
Note OFF: Time 220800, Note Name: C#4
Note OFF: Time 220800, Note Name: F4
Note OFF: Time 220800, Note Name: G#4
Note ON: Time 220800, Note Name: C#4, Velocity: 44
Note ON: Time 220800, Note Name: D#4, Velocity: 44
Note ON: Time 220800, Note Name: F#4, Velocity: 44
Note ON: Time 220800, Note Name: G#4, Velocity: 44
Note ON: Time 220800, Note Name: C5, Velocity: 52
Note OFF: Time 221280, Note Name: C5
Note OFF: Time 221280, Note Name: F#4
Note OFF: Time 221280, Note Name: C#4
Note OFF: Time 221280, Note Name: D#4
Note OFF: Time 221280, Note Name: G#4
Note ON: Time 221280, Note Name: C#4, Velocity: 33
Note ON: Time 221280, Note Name: D#4, Velocity: 33
Note ON: Time 221280, Note Name: F#4, Velocity: 33
Note ON: Time 221280, Note Name: G#4, Velocity: 33
Note ON: Time 221280, Note Name: C5, Velocity: 39
Note OFF: Time 221760, Note Name: C5
Note OFF: Time 221760, Note Name: F#4
Note OFF: Time 221760, Note Name: C#4
Note OFF: Time 221760, Note Name: D#4
Note OFF: Time 221760, Note Name: G#4
Note ON: Time 221760, Note Name: C#4, Velocity: 33
Note ON: Time 221760, Note Name: F4, Velocity: 33
Note ON: Time 221760, Note Name: G#4, Velocity: 33
Note ON: Time 221760, Note Name: C#5, Velocity: 39
Note OFF: Time 222480, Note Name: C#5
Note OFF: Time 222480, Note Name: C#4
Note OFF: Time 222480, Note Name: F4
Note OFF: Time 222480, Note Name: G#4
Note ON: Time 222480, Note Name: C#3, Velocity: 32
Note ON: Time 222480, Note Name: G#3, Velocity: 32
Note ON: Time 222480, Note Name: C#4, Velocity: 38
Note OFF: Time 222720, Note Name: C#4
Note OFF: Time 222720, Note Name: G#3
Note OFF: Time 222720, Note Name: C#3
Note ON: Time 222720, Note Name: C#3, Velocity: 35
Note ON: Time 222720, Note Name: G#3, Velocity: 35
Note ON: Time 222720, Note Name: C4, Velocity: 41
Note OFF: Time 223200, Note Name: C4
Note OFF: Time 223200, Note Name: G#3
Note OFF: Time 223200, Note Name: C#3
Note ON: Time 223200, Note Name: C#3, Velocity: 26
Note ON: Time 223200, Note Name: G#3, Velocity: 26
Note ON: Time 223200, Note Name: C4, Velocity: 31
Note OFF: Time 223680, Note Name: C4
Note OFF: Time 223680, Note Name: G#3
Note OFF: Time 223680, Note Name: C#3
Note ON: Time 223680, Note Name: C#3, Velocity: 26
Note ON: Time 223680, Note Name: G#3, Velocity: 26
Note ON: Time 223680, Note Name: C#4, Velocity: 31
Note OFF: Time 224400, Note Name: C#4
Note OFF: Time 224400, Note Name: G#3
Note OFF: Time 224400, Note Name: C#3
Note ON: Time 224400, Note Name: C#2, Velocity: 19
Note ON: Time 224400, Note Name: G#2, Velocity: 23
Note ON: Time 224400, Note Name: C#3, Velocity: 28
Note OFF: Time 224640, Note Name: C#3
Note OFF: Time 224640, Note Name: G#2
Note OFF: Time 224640, Note Name: C#2
Note ON: Time 224640, Note Name: C#2, Velocity: 22
Note ON: Time 224640, Note Name: G#2, Velocity: 26
Note ON: Time 224640, Note Name: C3, Velocity: 30
Note OFF: Time 225115, Note Name: C3
Note OFF: Time 225115, Note Name: G#2
Note OFF: Time 225115, Note Name: C#2
Note ON: Time 225120, Note Name: C#2, Velocity: 16
Note ON: Time 225120, Note Name: G#2, Velocity: 19
Note ON: Time 225120, Note Name: C3, Velocity: 23
Note OFF: Time 225595, Note Name: C3
Note OFF: Time 225595, Note Name: G#2
Note OFF: Time 225595, Note Name: C#2
Note ON: Time 225600, Note Name: C#2, Velocity: 16
Note ON: Time 225600, Note Name: G#2, Velocity: 19
Note ON: Time 225600, Note Name: C#3, Velocity: 23
Note OFF: Time 226075, Note Name: C#3
Note OFF: Time 226075, Note Name: G#2
Note OFF: Time 226075, Note Name: C#2
Note ON: Time 226080, Note Name: C#2, Velocity: 16
Note ON: Time 226080, Note Name: G#2, Velocity: 19
Note ON: Time 226080, Note Name: C#3, Velocity: 23
Note OFF: Time 226555, Note Name: C#3
Note OFF: Time 226555, Note Name: G#2
Note OFF: Time 226555, Note Name: C#2
Note ON: Time 226560, Note Name: C3, Velocity: 30
Note ON: Time 226560, Note Name: C#2, Velocity: 22
Note ON: Time 226560, Note Name: G#2, Velocity: 26
Note OFF: Time 227035, Note Name: G#2
Note OFF: Time 227035, Note Name: C#2
Note OFF: Time 227035, Note Name: C3
Note ON: Time 227040, Note Name: C3, Velocity: 23
Note ON: Time 227040, Note Name: C#2, Velocity: 16
Note ON: Time 227040, Note Name: G#2, Velocity: 19
Note OFF: Time 227515, Note Name: G#2
Note OFF: Time 227515, Note Name: C#2
Note OFF: Time 227515, Note Name: C3
Note ON: Time 227520, Note Name: C3, Velocity: 30
Note ON: Time 227520, Note Name: C#2, Velocity: 22
Note ON: Time 227520, Note Name: G#2, Velocity: 26
Note OFF: Time 227995, Note Name: G#2
Note OFF: Time 227995, Note Name: C#2
Note OFF: Time 227995, Note Name: C3
Note ON: Time 228000, Note Name: C3, Velocity: 23
Note ON: Time 228000, Note Name: C#2, Velocity: 16
Note ON: Time 228000, Note Name: G#2, Velocity: 19
Note OFF: Time 228475, Note Name: G#2
Note OFF: Time 228475, Note Name: C#2
Note OFF: Time 228475, Note Name: C3
Note ON: Time 228480, Note Name: C#2, Velocity: 16
Note ON: Time 228480, Note Name: G#2, Velocity: 19
Note ON: Time 228480, Note Name: C#3, Velocity: 23
Note OFF: Time 228720, Note Name: C#3
Note OFF: Time 228720, Note Name: G#2
Note OFF: Time 228720, Note Name: C#2
Note ON: Time 228960, Note Name: C#3, Velocity: 36
Note OFF: Time 229200, Note Name: C#3
Note ON: Time 229440, Note Name: C#3, Velocity: 38
Note OFF: Time 229680, Note Name: C#3
Note ON: Time 229920, Note Name: C#3, Velocity: 38
Note OFF: Time 230160, Note Name: C#3
Note ON: Time 230400, Note Name: G#2, Velocity: 45
Note OFF: Time 230640, Note Name: G#2
Note ON: Time 230880, Note Name: G#2, Velocity: 42
Note OFF: Time 231120, Note Name: G#2
Note ON: Time 231360, Note Name: G#2, Velocity: 38
Note OFF: Time 231600, Note Name: G#2
Note ON: Time 231840, Note Name: G#2, Velocity: 38
Note OFF: Time 232080, Note Name: G#2
Note ON: Time 232320, Note Name: D#2, Velocity: 25
Note OFF: Time 232560, Note Name: D#2
Note ON: Time 232800, Note Name: D#3, Velocity: 36
Note OFF: Time 233040, Note Name: D#3
Note ON: Time 233280, Note Name: D#3, Velocity: 38
Note OFF: Time 233520, Note Name: D#3
Note ON: Time 233760, Note Name: D#3, Velocity: 38
Note OFF: Time 234000, Note Name: D#3
Note ON: Time 234240, Note Name: A#2, Velocity: 45
Note OFF: Time 234480, Note Name: A#2
Note ON: Time 234720, Note Name: A#2, Velocity: 42
Note OFF: Time 234960, Note Name: A#2
Note ON: Time 235200, Note Name: A#2, Velocity: 38
Note OFF: Time 235440, Note Name: A#2
Note ON: Time 235680, Note Name: A#2, Velocity: 41
Note OFF: Time 235920, Note Name: A#2
Note ON: Time 236160, Note Name: F2, Velocity: 25
Note OFF: Time 236400, Note Name: F2
Note ON: Time 236640, Note Name: F3, Velocity: 36
Note OFF: Time 236880, Note Name: F3
Note ON: Time 237120, Note Name: F3, Velocity: 38
Note OFF: Time 237360, Note Name: F3
Note ON: Time 237600, Note Name: F3, Velocity: 38
Note OFF: Time 237840, Note Name: F3
Note ON: Time 238080, Note Name: C3, Velocity: 41
Note OFF: Time 238320, Note Name: C3
Note ON: Time 238560, Note Name: C3, Velocity: 42
Note OFF: Time 238800, Note Name: C3
Note ON: Time 239040, Note Name: F3, Velocity: 38
Note OFF: Time 239280, Note Name: F3
Note ON: Time 239520, Note Name: F3, Velocity: 38
Note OFF: Time 239760, Note Name: F3
Note ON: Time 240000, Note Name: C2, Velocity: 46
Note OFF: Time 240240, Note Name: C2
Note ON: Time 240480, Note Name: E3, Velocity: 39
Note ON: Time 240480, Note Name: G3, Velocity: 39
Note OFF: Time 240960, Note Name: G3
Note OFF: Time 240960, Note Name: E3
Note ON: Time 240960, Note Name: E3, Velocity: 39
Note ON: Time 240960, Note Name: G3, Velocity: 39
Note OFF: Time 241920, Note Name: G3
Note OFF: Time 241920, Note Name: E3
Note ON: Time 241920, Note Name: C2, Velocity: 46
Note OFF: Time 242160, Note Name: C2
Note ON: Time 242400, Note Name: F3, Velocity: 39
Note ON: Time 242400, Note Name: G#3, Velocity: 39
Note OFF: Time 242880, Note Name: G#3
Note OFF: Time 242880, Note Name: F3
Note ON: Time 242880, Note Name: F3, Velocity: 39
Note ON: Time 242880, Note Name: G#3, Velocity: 39
Note OFF: Time 243840, Note Name: G#3
Note OFF: Time 243840, Note Name: F3
Note ON: Time 243840, Note Name: C2, Velocity: 46
Note OFF: Time 244080, Note Name: C2
Note ON: Time 244320, Note Name: G3, Velocity: 39
Note ON: Time 244320, Note Name: A#3, Velocity: 39
Note OFF: Time 244800, Note Name: A#3
Note OFF: Time 244800, Note Name: G3
Note ON: Time 244800, Note Name: G3, Velocity: 39
Note ON: Time 244800, Note Name: A#3, Velocity: 39
Note OFF: Time 245760, Note Name: A#3
Note OFF: Time 245760, Note Name: G3
Note ON: Time 245760, Note Name: F2, Velocity: 46
Note OFF: Time 246000, Note Name: F2
Note ON: Time 246240, Note Name: A3, Velocity: 39
Note ON: Time 246240, Note Name: C4, Velocity: 39
Note OFF: Time 246720, Note Name: C4
Note OFF: Time 246720, Note Name: A3
Note ON: Time 246720, Note Name: A3, Velocity: 39
Note ON: Time 246720, Note Name: C4, Velocity: 39
Note OFF: Time 247680, Note Name: C4
Note OFF: Time 247680, Note Name: A3
Note ON: Time 247680, Note Name: F2, Velocity: 46
Note OFF: Time 247920, Note Name: F2
Note ON: Time 248160, Note Name: A#3, Velocity: 39
Note ON: Time 248160, Note Name: C#4, Velocity: 39
Note OFF: Time 248640, Note Name: C#4
Note OFF: Time 248640, Note Name: A#3
Note ON: Time 248640, Note Name: A#3, Velocity: 39
Note ON: Time 248640, Note Name: C#4, Velocity: 39
Note OFF: Time 249600, Note Name: C#4
Note OFF: Time 249600, Note Name: A#3
Note ON: Time 249600, Note Name: F2, Velocity: 46
Note OFF: Time 249840, Note Name: F2
Note ON: Time 250080, Note Name: C4, Velocity: 39
Note ON: Time 250080, Note Name: D#4, Velocity: 39
Note OFF: Time 250560, Note Name: D#4
Note OFF: Time 250560, Note Name: C4
Note ON: Time 250560, Note Name: C4, Velocity: 39
Note ON: Time 250560, Note Name: D#4, Velocity: 39
Note OFF: Time 251520, Note Name: D#4
Note OFF: Time 251520, Note Name: C4
Note ON: Time 251520, Note Name: A#2, Velocity: 46
Note OFF: Time 251760, Note Name: A#2
Note ON: Time 252000, Note Name: D4, Velocity: 39
Note ON: Time 252000, Note Name: F4, Velocity: 39
Note OFF: Time 252480, Note Name: F4
Note OFF: Time 252480, Note Name: D4
Note ON: Time 252480, Note Name: D4, Velocity: 39
Note ON: Time 252480, Note Name: F4, Velocity: 39
Note OFF: Time 253440, Note Name: F4
Note OFF: Time 253440, Note Name: D4
Note ON: Time 253440, Note Name: A#2, Velocity: 46
Note OFF: Time 253680, Note Name: A#2
Note ON: Time 253920, Note Name: D#4, Velocity: 39
Note ON: Time 253920, Note Name: F#4, Velocity: 39
Note OFF: Time 254400, Note Name: F#4
Note OFF: Time 254400, Note Name: D#4
Note ON: Time 254400, Note Name: D#4, Velocity: 39
Note ON: Time 254400, Note Name: F#4, Velocity: 39
Note OFF: Time 255360, Note Name: F#4
Note OFF: Time 255360, Note Name: D#4
Note ON: Time 255360, Note Name: A#2, Velocity: 46
Note OFF: Time 255600, Note Name: A#2
Note ON: Time 255840, Note Name: F4, Velocity: 39
Note ON: Time 255840, Note Name: G#4, Velocity: 39
Note OFF: Time 256320, Note Name: G#4
Note OFF: Time 256320, Note Name: F4
Note ON: Time 256320, Note Name: F4, Velocity: 39
Note ON: Time 256320, Note Name: G#4, Velocity: 39
Note OFF: Time 257280, Note Name: G#4
Note OFF: Time 257280, Note Name: F4
Note ON: Time 257280, Note Name: D#3, Velocity: 46
Note OFF: Time 257520, Note Name: D#3
Note ON: Time 257760, Note Name: A#3, Velocity: 39
Note ON: Time 257760, Note Name: D#4, Velocity: 39
Note ON: Time 257760, Note Name: F#4, Velocity: 39
Note OFF: Time 258240, Note Name: F#4
Note OFF: Time 258240, Note Name: D#4
Note OFF: Time 258240, Note Name: A#3
Note ON: Time 258240, Note Name: A#3, Velocity: 39
Note ON: Time 258240, Note Name: D#4, Velocity: 39
Note ON: Time 258240, Note Name: F#4, Velocity: 39
Note OFF: Time 259200, Note Name: F#4
Note OFF: Time 259200, Note Name: D#4
Note OFF: Time 259200, Note Name: A#3
Note ON: Time 259200, Note Name: C3, Velocity: 46
Note OFF: Time 259440, Note Name: C3
Note ON: Time 259680, Note Name: G#3, Velocity: 39
Note ON: Time 259680, Note Name: D#4, Velocity: 39
Note ON: Time 259680, Note Name: F#4, Velocity: 39
Note OFF: Time 260160, Note Name: F#4
Note OFF: Time 260160, Note Name: D#4
Note OFF: Time 260160, Note Name: G#3
Note ON: Time 260160, Note Name: G#3, Velocity: 39
Note ON: Time 260160, Note Name: D#4, Velocity: 39
Note ON: Time 260160, Note Name: F#4, Velocity: 39
Note OFF: Time 261120, Note Name: F#4
Note OFF: Time 261120, Note Name: D#4
Note OFF: Time 261120, Note Name: G#3
Note ON: Time 261120, Note Name: C#3, Velocity: 39
Note OFF: Time 261360, Note Name: C#3
Note ON: Time 261600, Note Name: G#3, Velocity: 33
Note ON: Time 261600, Note Name: C#4, Velocity: 33
Note ON: Time 261600, Note Name: F4, Velocity: 33
Note OFF: Time 262080, Note Name: F4
Note OFF: Time 262080, Note Name: C#4
Note OFF: Time 262080, Note Name: G#3
Note ON: Time 262080, Note Name: G#3, Velocity: 33
Note ON: Time 262080, Note Name: C#4, Velocity: 33
Note ON: Time 262080, Note Name: F4, Velocity: 33
Note OFF: Time 263040, Note Name: F4
Note OFF: Time 263040, Note Name: C#4
Note OFF: Time 263040, Note Name: G#3
Note ON: Time 263040, Note Name: B2, Velocity: 39
Note OFF: Time 263280, Note Name: B2
Note ON: Time 263520, Note Name: G3, Velocity: 33
Note ON: Time 263520, Note Name: D4, Velocity: 33
Note ON: Time 263520, Note Name: F4, Velocity: 33
Note OFF: Time 264000, Note Name: F4
Note OFF: Time 264000, Note Name: D4
Note OFF: Time 264000, Note Name: G3
Note ON: Time 264000, Note Name: G3, Velocity: 33
Note ON: Time 264000, Note Name: D4, Velocity: 33
Note ON: Time 264000, Note Name: F4, Velocity: 33
Note OFF: Time 264960, Note Name: F4
Note OFF: Time 264960, Note Name: D4
Note OFF: Time 264960, Note Name: G3
Note ON: Time 264960, Note Name: C3, Velocity: 39
Note OFF: Time 265200, Note Name: C3
Note ON: Time 265440, Note Name: G3, Velocity: 33
Note ON: Time 265440, Note Name: C4, Velocity: 33
Note ON: Time 265440, Note Name: D#4, Velocity: 33
Note OFF: Time 265920, Note Name: D#4
Note OFF: Time 265920, Note Name: C4
Note OFF: Time 265920, Note Name: G3
Note ON: Time 265920, Note Name: G3, Velocity: 33
Note ON: Time 265920, Note Name: C4, Velocity: 33
Note ON: Time 265920, Note Name: D#4, Velocity: 33
Note OFF: Time 266400, Note Name: D#4
Note OFF: Time 266400, Note Name: C4
Note OFF: Time 266400, Note Name: G3
Note ON: Time 266400, Note Name: C3, Velocity: 33
Note OFF: Time 266880, Note Name: C3
Note ON: Time 266880, Note Name: G2, Velocity: 33
Note OFF: Time 267360, Note Name: G2
Note ON: Time 267360, Note Name: G3, Velocity: 29
Note ON: Time 267360, Note Name: B3, Velocity: 29
Note ON: Time 267360, Note Name: D4, Velocity: 29
Note OFF: Time 267840, Note Name: D4
Note OFF: Time 267840, Note Name: B3
Note OFF: Time 267840, Note Name: G3
Note ON: Time 267840, Note Name: C3, Velocity: 35
Note OFF: Time 268320, Note Name: C3
Note ON: Time 268320, Note Name: G3, Velocity: 30
Note ON: Time 268320, Note Name: C4, Velocity: 30
Note ON: Time 268320, Note Name: D#4, Velocity: 30
Note OFF: Time 268800, Note Name: D#4
Note OFF: Time 268800, Note Name: C4
Note OFF: Time 268800, Note Name: G3
Note ON: Time 268800, Note Name: G2, Velocity: 37
Note OFF: Time 269280, Note Name: G2
Note ON: Time 269280, Note Name: D3, Velocity: 32
Note ON: Time 269280, Note Name: G3, Velocity: 32
Note ON: Time 269280, Note Name: B3, Velocity: 32
Note OFF: Time 269760, Note Name: B3
Note OFF: Time 269760, Note Name: G3
Note OFF: Time 269760, Note Name: D3
Note ON: Time 269760, Note Name: C2, Velocity: 46
Note OFF: Time 270240, Note Name: C2
Note ON: Time 270240, Note Name: C3, Velocity: 39
Note ON: Time 270240, Note Name: D#3, Velocity: 39
Note ON: Time 270240, Note Name: G3, Velocity: 39
Note OFF: Time 270720, Note Name: G3
Note OFF: Time 270720, Note Name: D#3
Note OFF: Time 270720, Note Name: C3
Note ON: Time 270720, Note Name: G1, Velocity: 46
Note OFF: Time 271200, Note Name: G1
Note ON: Time 271200, Note Name: B2, Velocity: 39
Note ON: Time 271200, Note Name: D3, Velocity: 39
Note ON: Time 271200, Note Name: G3, Velocity: 39
Note OFF: Time 271680, Note Name: G3
Note OFF: Time 271680, Note Name: D3
Note OFF: Time 271680, Note Name: B2
Note ON: Time 271680, Note Name: C2, Velocity: 46
Note OFF: Time 272160, Note Name: C2
Note ON: Time 272160, Note Name: G2, Velocity: 39
Note ON: Time 272160, Note Name: C3, Velocity: 39
Note ON: Time 272160, Note Name: D#3, Velocity: 39
Note OFF: Time 272640, Note Name: D#3
Note OFF: Time 272640, Note Name: C3
Note OFF: Time 272640, Note Name: G2
Note ON: Time 272640, Note Name: G2, Velocity: 69
Note ON: Time 272640, Note Name: G1, Velocity: 69
Note OFF: Time 272880, Note Name: G1
Note OFF: Time 272880, Note Name: G2
Note ON: Time 273120, Note Name: B2, Velocity: 69
Note OFF: Time 273240, Note Name: B2
Note ON: Time 273240, Note Name: D3, Velocity: 60
Note OFF: Time 273360, Note Name: D3
Note ON: Time 273360, Note Name: B2, Velocity: 60
Note OFF: Time 273480, Note Name: B2
Note ON: Time 273480, Note Name: G2, Velocity: 59
Note OFF: Time 273600, Note Name: G2
Note ON: Time 273600, Note Name: C3, Velocity: 63
Note OFF: Time 273720, Note Name: C3
Note ON: Time 273720, Note Name: G2, Velocity: 52
Note OFF: Time 273840, Note Name: G2
Note ON: Time 273840, Note Name: D#2, Velocity: 52
Note OFF: Time 273960, Note Name: D#2
Note ON: Time 273960, Note Name: G2, Velocity: 52
Note OFF: Time 274080, Note Name: G2
Note ON: Time 274080, Note Name: D#2, Velocity: 57
Note OFF: Time 274200, Note Name: D#2
Note ON: Time 274200, Note Name: G2, Velocity: 47
Note OFF: Time 274320, Note Name: G2
Note ON: Time 274320, Note Name: D#2, Velocity: 46
Note OFF: Time 274440, Note Name: D#2
Note ON: Time 274440, Note Name: C2, Velocity: 45
Note OFF: Time 274560, Note Name: C2
Note ON: Time 274560, Note Name: G1, Velocity: 57
Note OFF: Time 274800, Note Name: G1
Note ON: Time 275040, Note Name: G#3, Velocity: 40
Note OFF: Time 275520, Note Name: G#3
Note ON: Time 275520, Note Name: G#3, Velocity: 40
Note OFF: Time 276000, Note Name: G#3
Note ON: Time 276000, Note Name: G#3, Velocity: 39
Note OFF: Time 276480, Note Name: G#3
Note ON: Time 276480, Note Name: C2, Velocity: 50
Note OFF: Time 276720, Note Name: C2
Note ON: Time 276960, Note Name: F#3, Velocity: 40
Note OFF: Time 277440, Note Name: F#3
Note ON: Time 277440, Note Name: F#3, Velocity: 40
Note OFF: Time 277920, Note Name: F#3
Note ON: Time 277920, Note Name: F#3, Velocity: 40
Note OFF: Time 278400, Note Name: F#3
Note ON: Time 278400, Note Name: G1, Velocity: 50
Note OFF: Time 278640, Note Name: G1
Note ON: Time 278880, Note Name: G#3, Velocity: 39
Note OFF: Time 279360, Note Name: G#3
Note ON: Time 279360, Note Name: G#3, Velocity: 39
Note OFF: Time 279840, Note Name: G#3
Note ON: Time 279840, Note Name: G#3, Velocity: 39
Note OFF: Time 280320, Note Name: G#3
Note ON: Time 280320, Note Name: C2, Velocity: 50
Note OFF: Time 280560, Note Name: C2
Note ON: Time 280800, Note Name: F#3, Velocity: 39
Note OFF: Time 281280, Note Name: F#3
Note ON: Time 281280, Note Name: F#3, Velocity: 39
Note OFF: Time 281760, Note Name: F#3
Note ON: Time 281760, Note Name: F#3, Velocity: 39
Note OFF: Time 282240, Note Name: F#3
Note ON: Time 282240, Note Name: G1, Velocity: 85
Note OFF: Time 282480, Note Name: G1
Note ON: Time 282720, Note Name: B3, Velocity: 75
Note OFF: Time 283200, Note Name: B3
Note ON: Time 283200, Note Name: B3, Velocity: 75
Note OFF: Time 284160, Note Name: B3
Note ON: Time 284160, Note Name: G1, Velocity: 85
Note OFF: Time 284400, Note Name: G1
Note ON: Time 284640, Note Name: D4, Velocity: 75
Note OFF: Time 285120, Note Name: D4
Note ON: Time 285120, Note Name: D4, Velocity: 75
Note OFF: Time 286080, Note Name: D4
Note ON: Time 286080, Note Name: G1, Velocity: 85
Note OFF: Time 286320, Note Name: G1
Note ON: Time 286560, Note Name: F4, Velocity: 75
Note OFF: Time 287030, Note Name: F4
Note ON: Time 287040, Note Name: F4, Velocity: 75
Note OFF: Time 287997, Note Name: F4
Note ON: Time 288480, Note Name: B4, Velocity: 64
Note OFF: Time 288960, Note Name: B4
Note ON: Time 289440, Note Name: D5, Velocity: 57
Note OFF: Time 289920, Note Name: D5
Note ON: Time 290400, Note Name: F5, Velocity: 52
Note OFF: Time 290880, Note Name: F5
Note ON: Time 291360, Note Name: F5, Velocity: 52
Note OFF: Time 291840, Note Name: F5
Note ON: Time 291840, Note Name: F5, Velocity: 49
Note OFF: Time 292320, Note Name: F5
Note ON: Time 292320, Note Name: G#1, Velocity: 41
Note ON: Time 292320, Note Name: G#2, Velocity: 41
Note OFF: Time 292800, Note Name: G#2
Note OFF: Time 292800, Note Name: G#1
Note ON: Time 292800, Note Name: G1, Velocity: 38
Note ON: Time 292800, Note Name: G2, Velocity: 38
Note OFF: Time 293040, Note Name: G2
Note OFF: Time 293040, Note Name: G1
Note ON: Time 293280, Note Name: F5, Velocity: 50
Note OFF: Time 293750, Note Name: F5
Note ON: Time 293760, Note Name: F5, Velocity: 50
Note OFF: Time 294240, Note Name: F5
Note ON: Time 294240, Note Name: G#1, Velocity: 41
Note ON: Time 294240, Note Name: G#2, Velocity: 41
Note OFF: Time 294720, Note Name: G#2
Note OFF: Time 294720, Note Name: G#1
Note ON: Time 294720, Note Name: G1, Velocity: 39
Note ON: Time 294720, Note Name: G2, Velocity: 39
Note OFF: Time 294960, Note Name: G2
Note OFF: Time 294960, Note Name: G1
Note ON: Time 295200, Note Name: F5, Velocity: 45
Note OFF: Time 295680, Note Name: F5
Note ON: Time 296160, Note Name: F5, Velocity: 45
Note OFF: Time 296640, Note Name: F5
Note ON: Time 297120, Note Name: G#3, Velocity: 45
Note OFF: Time 297600, Note Name: G#3
Note ON: Time 298080, Note Name: G2, Velocity: 46
Note OFF: Time 298560, Note Name: G2
Note ON: Time 299040, Note Name: G1, Velocity: 65
Note ON: Time 299040, Note Name: G2, Velocity: 77
Note OFF: Time 299280, Note Name: G2
Note OFF: Time 299280, Note Name: G1
Note ON: Time 299280, Note Name: G1, Velocity: 65
Note ON: Time 299280, Note Name: G2, Velocity: 77
Note OFF: Time 299520, Note Name: G2
Note OFF: Time 299520, Note Name: G1
Note ON: Time 299520, Note Name: C3, Velocity: 79
Note ON: Time 299520, Note Name: C2, Velocity: 71
Note OFF: Time 299640, Note Name: C2
Note OFF: Time 299640, Note Name: C3
Note ON: Time 299640, Note Name: G2, Velocity: 66
Note OFF: Time 299760, Note Name: G2
Note ON: Time 299760, Note Name: C3, Velocity: 70
Note OFF: Time 299880, Note Name: C3
Note ON: Time 299880, Note Name: E3, Velocity: 76
Note OFF: Time 300000, Note Name: E3
Note ON: Time 300000, Note Name: G3, Velocity: 68
Note OFF: Time 300120, Note Name: G3
Note ON: Time 300120, Note Name: C3, Velocity: 68
Note OFF: Time 300240, Note Name: C3
Note ON: Time 300240, Note Name: E3, Velocity: 68
Note OFF: Time 300360, Note Name: E3
Note ON: Time 300360, Note Name: G3, Velocity: 76
Note OFF: Time 300480, Note Name: G3
Note ON: Time 300480, Note Name: C4, Velocity: 66
Note OFF: Time 300600, Note Name: C4
Note ON: Time 300600, Note Name: E3, Velocity: 68
Note OFF: Time 300720, Note Name: E3
Note ON: Time 300720, Note Name: G3, Velocity: 71
Note OFF: Time 300840, Note Name: G3
Note ON: Time 300840, Note Name: C4, Velocity: 78
Note OFF: Time 300960, Note Name: C4
Note ON: Time 300960, Note Name: E4, Velocity: 71
Note OFF: Time 301080, Note Name: E4
Note ON: Time 301080, Note Name: G3, Velocity: 71
Note OFF: Time 301200, Note Name: G3
Note ON: Time 301200, Note Name: C4, Velocity: 71
Note OFF: Time 301320, Note Name: C4
Note ON: Time 301320, Note Name: E4, Velocity: 78
Note OFF: Time 301440, Note Name: E4
Note ON: Time 301440, Note Name: F4, Velocity: 62
Note OFF: Time 301560, Note Name: F4
Note ON: Time 301560, Note Name: E4, Velocity: 68
Note OFF: Time 301680, Note Name: E4
Note ON: Time 301680, Note Name: D4, Velocity: 71
Note OFF: Time 301800, Note Name: D4
Note ON: Time 301800, Note Name: C4, Velocity: 78
Note OFF: Time 301920, Note Name: C4
Note ON: Time 301920, Note Name: B3, Velocity: 71
Note OFF: Time 302040, Note Name: B3
Note ON: Time 302040, Note Name: A3, Velocity: 71
Note OFF: Time 302160, Note Name: A3
Note ON: Time 302160, Note Name: G3, Velocity: 76
Note OFF: Time 302280, Note Name: G3
Note ON: Time 302280, Note Name: F3, Velocity: 76
Note OFF: Time 302400, Note Name: F3
Note ON: Time 302400, Note Name: E3, Velocity: 62
Note OFF: Time 302520, Note Name: E3
Note ON: Time 302520, Note Name: G3, Velocity: 66
Note OFF: Time 302640, Note Name: G3
Note ON: Time 302640, Note Name: C3, Velocity: 70
Note OFF: Time 302760, Note Name: C3
Note ON: Time 302760, Note Name: E3, Velocity: 76
Note OFF: Time 302880, Note Name: E3
Note ON: Time 302880, Note Name: G2, Velocity: 70
Note OFF: Time 303000, Note Name: G2
Note ON: Time 303000, Note Name: C3, Velocity: 70
Note OFF: Time 303120, Note Name: C3
Note ON: Time 303120, Note Name: E2, Velocity: 71
Note OFF: Time 303240, Note Name: E2
Note ON: Time 303240, Note Name: G2, Velocity: 76
Note OFF: Time 303360, Note Name: G2
Note ON: Time 303360, Note Name: C2, Velocity: 94
Note OFF: Time 303480, Note Name: C2
Note ON: Time 303480, Note Name: G2, Velocity: 66
Note OFF: Time 303600, Note Name: G2
Note ON: Time 303600, Note Name: C3, Velocity: 70
Note OFF: Time 303720, Note Name: C3
Note ON: Time 303720, Note Name: E3, Velocity: 76
Note OFF: Time 303840, Note Name: E3
Note ON: Time 303840, Note Name: G3, Velocity: 68
Note OFF: Time 303960, Note Name: G3
Note ON: Time 303960, Note Name: C3, Velocity: 68
Note OFF: Time 304080, Note Name: C3
Note ON: Time 304080, Note Name: E3, Velocity: 68
Note OFF: Time 304200, Note Name: E3
Note ON: Time 304200, Note Name: G3, Velocity: 76
Note OFF: Time 304320, Note Name: G3
Note ON: Time 304320, Note Name: C4, Velocity: 66
Note OFF: Time 304440, Note Name: C4
Note ON: Time 304440, Note Name: E3, Velocity: 68
Note OFF: Time 304560, Note Name: E3
Note ON: Time 304560, Note Name: G3, Velocity: 71
Note OFF: Time 304680, Note Name: G3
Note ON: Time 304680, Note Name: C4, Velocity: 78
Note OFF: Time 304800, Note Name: C4
Note ON: Time 304800, Note Name: E4, Velocity: 71
Note OFF: Time 304920, Note Name: E4
Note ON: Time 304920, Note Name: G3, Velocity: 71
Note OFF: Time 305040, Note Name: G3
Note ON: Time 305040, Note Name: C4, Velocity: 71
Note OFF: Time 305160, Note Name: C4
Note ON: Time 305160, Note Name: E4, Velocity: 71
Note OFF: Time 305280, Note Name: E4
Note ON: Time 305280, Note Name: F4, Velocity: 62
Note OFF: Time 305400, Note Name: F4
Note ON: Time 305400, Note Name: E4, Velocity: 68
Note OFF: Time 305520, Note Name: E4
Note ON: Time 305520, Note Name: D4, Velocity: 71
Note OFF: Time 305640, Note Name: D4
Note ON: Time 305640, Note Name: C4, Velocity: 78
Note OFF: Time 305760, Note Name: C4
Note ON: Time 305760, Note Name: B3, Velocity: 71
Note OFF: Time 305880, Note Name: B3
Note ON: Time 305880, Note Name: G3, Velocity: 71
Note OFF: Time 306000, Note Name: G3
Note ON: Time 306000, Note Name: A3, Velocity: 76
Note OFF: Time 306120, Note Name: A3
Note ON: Time 306120, Note Name: B3, Velocity: 76
Note OFF: Time 306240, Note Name: B3
Note ON: Time 306240, Note Name: C4, Velocity: 62
Note OFF: Time 306360, Note Name: C4
Note ON: Time 306360, Note Name: B3, Velocity: 64
Note OFF: Time 306480, Note Name: B3
Note ON: Time 306480, Note Name: A3, Velocity: 68
Note OFF: Time 306600, Note Name: A3
Note ON: Time 306600, Note Name: G3, Velocity: 73
Note OFF: Time 306720, Note Name: G3
Note ON: Time 306720, Note Name: F3, Velocity: 68
Note OFF: Time 306840, Note Name: F3
Note ON: Time 306840, Note Name: E3, Velocity: 68
Note OFF: Time 306960, Note Name: E3
Note ON: Time 306960, Note Name: D3, Velocity: 69
Note OFF: Time 307080, Note Name: D3
Note ON: Time 307080, Note Name: C3, Velocity: 74
Note OFF: Time 307200, Note Name: C3
Note ON: Time 307200, Note Name: G2, Velocity: 80
Note OFF: Time 307320, Note Name: G2
Note ON: Time 307320, Note Name: B2, Velocity: 58
Note OFF: Time 307440, Note Name: B2
Note ON: Time 307440, Note Name: D3, Velocity: 62
Note OFF: Time 307560, Note Name: D3
Note ON: Time 307560, Note Name: G3, Velocity: 67
Note OFF: Time 307680, Note Name: G3
Note ON: Time 307680, Note Name: B2, Velocity: 60
Note OFF: Time 307800, Note Name: B2
Note ON: Time 307800, Note Name: D3, Velocity: 60
Note OFF: Time 307920, Note Name: D3
Note ON: Time 307920, Note Name: G3, Velocity: 60
Note OFF: Time 308040, Note Name: G3
Note ON: Time 308040, Note Name: B3, Velocity: 68
Note OFF: Time 308160, Note Name: B3
Note ON: Time 308160, Note Name: D3, Velocity: 58
Note OFF: Time 308280, Note Name: D3
Note ON: Time 308280, Note Name: G3, Velocity: 60
Note OFF: Time 308400, Note Name: G3
Note ON: Time 308400, Note Name: B3, Velocity: 63
Note OFF: Time 308520, Note Name: B3
Note ON: Time 308520, Note Name: D4, Velocity: 70
Note OFF: Time 308640, Note Name: D4
Note ON: Time 308640, Note Name: G3, Velocity: 53
Note OFF: Time 308760, Note Name: G3
Note ON: Time 308760, Note Name: B3, Velocity: 53
Note OFF: Time 308880, Note Name: B3
Note ON: Time 308880, Note Name: D4, Velocity: 45
Note OFF: Time 309000, Note Name: D4
Note ON: Time 309000, Note Name: G4, Velocity: 50
Note OFF: Time 309120, Note Name: G4
Note ON: Time 309120, Note Name: G3, Velocity: 28
Note OFF: Time 309240, Note Name: G3
Note ON: Time 309240, Note Name: C4, Velocity: 32
Note OFF: Time 309360, Note Name: C4
Note ON: Time 309360, Note Name: G4, Velocity: 34
Note OFF: Time 309480, Note Name: G4
Note ON: Time 309480, Note Name: C4, Velocity: 37
Note OFF: Time 309600, Note Name: C4
Note ON: Time 309600, Note Name: G3, Velocity: 28
Note OFF: Time 309720, Note Name: G3
Note ON: Time 309720, Note Name: E4, Velocity: 32
Note OFF: Time 309840, Note Name: E4
Note ON: Time 309840, Note Name: G4, Velocity: 34
Note OFF: Time 309960, Note Name: G4
Note ON: Time 309960, Note Name: E4, Velocity: 37
Note OFF: Time 310080, Note Name: E4
Note ON: Time 310080, Note Name: G3, Velocity: 28
Note OFF: Time 310200, Note Name: G3
Note ON: Time 310200, Note Name: D4, Velocity: 31
Note OFF: Time 310320, Note Name: D4
Note ON: Time 310320, Note Name: G4, Velocity: 33
Note OFF: Time 310440, Note Name: G4
Note ON: Time 310440, Note Name: D4, Velocity: 37
Note OFF: Time 310560, Note Name: D4
Note ON: Time 310560, Note Name: G3, Velocity: 28
Note OFF: Time 310680, Note Name: G3
Note ON: Time 310680, Note Name: B3, Velocity: 31
Note OFF: Time 310800, Note Name: B3
Note ON: Time 310800, Note Name: G4, Velocity: 33
Note OFF: Time 310920, Note Name: G4
Note ON: Time 310920, Note Name: B3, Velocity: 36
Note OFF: Time 311040, Note Name: B3
Note ON: Time 311040, Note Name: G2, Velocity: 86
Note OFF: Time 311160, Note Name: G2
Note ON: Time 311160, Note Name: B2, Velocity: 58
Note OFF: Time 311280, Note Name: B2
Note ON: Time 311280, Note Name: D3, Velocity: 62
Note OFF: Time 311400, Note Name: D3
Note ON: Time 311400, Note Name: G3, Velocity: 67
Note OFF: Time 311520, Note Name: G3
Note ON: Time 311520, Note Name: B2, Velocity: 60
Note OFF: Time 311640, Note Name: B2
Note ON: Time 311640, Note Name: D3, Velocity: 60
Note OFF: Time 311760, Note Name: D3
Note ON: Time 311760, Note Name: G3, Velocity: 60
Note OFF: Time 311880, Note Name: G3
Note ON: Time 311880, Note Name: B3, Velocity: 68
Note OFF: Time 312000, Note Name: B3
Note ON: Time 312000, Note Name: D3, Velocity: 58
Note OFF: Time 312120, Note Name: D3
Note ON: Time 312120, Note Name: G3, Velocity: 60
Note OFF: Time 312240, Note Name: G3
Note ON: Time 312240, Note Name: B3, Velocity: 63
Note OFF: Time 312360, Note Name: B3
Note ON: Time 312360, Note Name: D4, Velocity: 70
Note OFF: Time 312480, Note Name: D4
Note ON: Time 312480, Note Name: G3, Velocity: 53
Note OFF: Time 312600, Note Name: G3
Note ON: Time 312600, Note Name: B3, Velocity: 53
Note OFF: Time 312720, Note Name: B3
Note ON: Time 312720, Note Name: D4, Velocity: 53
Note OFF: Time 312840, Note Name: D4
Note ON: Time 312840, Note Name: G4, Velocity: 59
Note OFF: Time 312960, Note Name: G4
Note ON: Time 312960, Note Name: G3, Velocity: 26
Note OFF: Time 313080, Note Name: G3
Note ON: Time 313080, Note Name: C4, Velocity: 30
Note OFF: Time 313200, Note Name: C4
Note ON: Time 313200, Note Name: G4, Velocity: 32
Note OFF: Time 313320, Note Name: G4
Note ON: Time 313320, Note Name: C4, Velocity: 33
Note OFF: Time 313440, Note Name: C4
Note ON: Time 313440, Note Name: G3, Velocity: 26
Note OFF: Time 313560, Note Name: G3
Note ON: Time 313560, Note Name: D#4, Velocity: 30
Note OFF: Time 313680, Note Name: D#4
Note ON: Time 313680, Note Name: G4, Velocity: 32
Note OFF: Time 313800, Note Name: G4
Note ON: Time 313800, Note Name: D#4, Velocity: 33
Note OFF: Time 313920, Note Name: D#4
Note ON: Time 313920, Note Name: G3, Velocity: 26
Note OFF: Time 314040, Note Name: G3
Note ON: Time 314040, Note Name: D4, Velocity: 30
Note OFF: Time 314160, Note Name: D4
Note ON: Time 314160, Note Name: G4, Velocity: 31
Note OFF: Time 314280, Note Name: G4
Note ON: Time 314280, Note Name: D4, Velocity: 33
Note OFF: Time 314400, Note Name: D4
Note ON: Time 314400, Note Name: G3, Velocity: 26
Note OFF: Time 314520, Note Name: G3
Note ON: Time 314520, Note Name: B3, Velocity: 30
Note OFF: Time 314640, Note Name: B3
Note ON: Time 314640, Note Name: G4, Velocity: 31
Note OFF: Time 314760, Note Name: G4
Note ON: Time 314760, Note Name: B3, Velocity: 33
Note OFF: Time 314880, Note Name: B3
Note ON: Time 314880, Note Name: G3, Velocity: 33
Note OFF: Time 315000, Note Name: G3
Note ON: Time 315000, Note Name: C4, Velocity: 37
Note OFF: Time 315120, Note Name: C4
Note ON: Time 315120, Note Name: G4, Velocity: 39
Note OFF: Time 315240, Note Name: G4
Note ON: Time 315240, Note Name: C4, Velocity: 42
Note OFF: Time 315360, Note Name: C4
Note ON: Time 315360, Note Name: G3, Velocity: 33
Note OFF: Time 315480, Note Name: G3
Note ON: Time 315480, Note Name: E4, Velocity: 38
Note OFF: Time 315600, Note Name: E4
Note ON: Time 315600, Note Name: G4, Velocity: 40
Note OFF: Time 315720, Note Name: G4
Note ON: Time 315720, Note Name: E4, Velocity: 44
Note OFF: Time 315840, Note Name: E4
Note ON: Time 315840, Note Name: G3, Velocity: 34
Note OFF: Time 315960, Note Name: G3
Note ON: Time 315960, Note Name: D4, Velocity: 38
Note OFF: Time 316080, Note Name: D4
Note ON: Time 316080, Note Name: G4, Velocity: 40
Note OFF: Time 316200, Note Name: G4
Note ON: Time 316200, Note Name: D4, Velocity: 45
Note OFF: Time 316320, Note Name: D4
Note ON: Time 316320, Note Name: G3, Velocity: 37
Note OFF: Time 316440, Note Name: G3
Note ON: Time 316440, Note Name: B3, Velocity: 39
Note OFF: Time 316560, Note Name: B3
Note ON: Time 316560, Note Name: G4, Velocity: 43
Note OFF: Time 316680, Note Name: G4
Note ON: Time 316680, Note Name: B3, Velocity: 46
Note OFF: Time 316800, Note Name: B3
Note ON: Time 316800, Note Name: G3, Velocity: 33
Note OFF: Time 316920, Note Name: G3
Note ON: Time 316920, Note Name: C4, Velocity: 37
Note OFF: Time 317040, Note Name: C4
Note ON: Time 317040, Note Name: G4, Velocity: 39
Note OFF: Time 317160, Note Name: G4
Note ON: Time 317160, Note Name: C4, Velocity: 42
Note OFF: Time 317280, Note Name: C4
Note ON: Time 317280, Note Name: G3, Velocity: 33
Note OFF: Time 317400, Note Name: G3
Note ON: Time 317400, Note Name: C4, Velocity: 37
Note OFF: Time 317520, Note Name: C4
Note ON: Time 317520, Note Name: D#4, Velocity: 39
Note OFF: Time 317640, Note Name: D#4
Note ON: Time 317640, Note Name: C4, Velocity: 42
Note OFF: Time 317760, Note Name: C4
Note ON: Time 317760, Note Name: G3, Velocity: 28
Note OFF: Time 317880, Note Name: G3
Note ON: Time 317880, Note Name: B3, Velocity: 30
Note OFF: Time 318000, Note Name: B3
Note ON: Time 318000, Note Name: D4, Velocity: 32
Note OFF: Time 318120, Note Name: D4
Note ON: Time 318120, Note Name: B3, Velocity: 35
Note OFF: Time 318240, Note Name: B3
Note ON: Time 318240, Note Name: G3, Velocity: 28
Note OFF: Time 318360, Note Name: G3
Note ON: Time 318360, Note Name: C4, Velocity: 30
Note OFF: Time 318480, Note Name: C4
Note ON: Time 318480, Note Name: D#4, Velocity: 32
Note OFF: Time 318600, Note Name: D#4
Note ON: Time 318600, Note Name: C4, Velocity: 35
Note OFF: Time 318720, Note Name: C4
Note ON: Time 318720, Note Name: G3, Velocity: 47
Note OFF: Time 318780, Note Name: G3
Note ON: Time 318840, Note Name: B3, Velocity: 30
Note OFF: Time 318960, Note Name: B3
Note ON: Time 318960, Note Name: D4, Velocity: 31
Note OFF: Time 319080, Note Name: D4
Note ON: Time 319080, Note Name: B3, Velocity: 32
Note OFF: Time 319200, Note Name: B3
Note ON: Time 319200, Note Name: G3, Velocity: 53
Note OFF: Time 319260, Note Name: G3
Note ON: Time 319320, Note Name: C4, Velocity: 32
Note OFF: Time 319440, Note Name: C4
Note ON: Time 319440, Note Name: E4, Velocity: 33
Note OFF: Time 319560, Note Name: E4
Note ON: Time 319560, Note Name: C4, Velocity: 34
Note OFF: Time 319680, Note Name: C4
Note ON: Time 319680, Note Name: G3, Velocity: 57
Note OFF: Time 319740, Note Name: G3
Note ON: Time 319800, Note Name: B3, Velocity: 35
Note OFF: Time 319920, Note Name: B3
Note ON: Time 319920, Note Name: D4, Velocity: 38
Note OFF: Time 320040, Note Name: D4
Note ON: Time 320040, Note Name: B3, Velocity: 38
Note OFF: Time 320160, Note Name: B3
Note ON: Time 320160, Note Name: G3, Velocity: 64
Note OFF: Time 320220, Note Name: G3
Note ON: Time 320280, Note Name: A3, Velocity: 39
Note OFF: Time 320400, Note Name: A3
Note ON: Time 320400, Note Name: C4, Velocity: 41
Note OFF: Time 320520, Note Name: C4
Note ON: Time 320520, Note Name: A3, Velocity: 43
Note OFF: Time 320640, Note Name: A3
Note ON: Time 320640, Note Name: G3, Velocity: 71
Note OFF: Time 320700, Note Name: G3
Note ON: Time 320760, Note Name: B3, Velocity: 47
Note OFF: Time 320880, Note Name: B3
Note ON: Time 320880, Note Name: A3, Velocity: 49
Note OFF: Time 321000, Note Name: A3
Note ON: Time 321000, Note Name: G3, Velocity: 50
Note OFF: Time 321120, Note Name: G3
Note ON: Time 321120, Note Name: F3, Velocity: 76
Note OFF: Time 321180, Note Name: F3
Note ON: Time 321240, Note Name: A3, Velocity: 50
Note OFF: Time 321360, Note Name: A3
Note ON: Time 321360, Note Name: G3, Velocity: 53
Note OFF: Time 321480, Note Name: G3
Note ON: Time 321480, Note Name: F3, Velocity: 55
Note OFF: Time 321600, Note Name: F3
Note ON: Time 321600, Note Name: E3, Velocity: 85
Note OFF: Time 321660, Note Name: E3
Note ON: Time 321720, Note Name: G3, Velocity: 58
Note OFF: Time 321840, Note Name: G3
Note ON: Time 321840, Note Name: F3, Velocity: 61
Note OFF: Time 321960, Note Name: F3
Note ON: Time 321960, Note Name: E3, Velocity: 64
Note OFF: Time 322080, Note Name: E3
Note ON: Time 322080, Note Name: D3, Velocity: 90
Note OFF: Time 322140, Note Name: D3
Note ON: Time 322200, Note Name: F3, Velocity: 68
Note OFF: Time 322320, Note Name: F3
Note ON: Time 322320, Note Name: E3, Velocity: 72
Note OFF: Time 322440, Note Name: E3
Note ON: Time 322440, Note Name: D3, Velocity: 76
Note OFF: Time 322560, Note Name: D3
Note ON: Time 322560, Note Name: C2, Velocity: 94
Note ON: Time 322560, Note Name: C3, Velocity: 94
Note ON: Time 322680, Note Name: D3, Velocity: 56
Note OFF: Time 322740, Note Name: D3
Note ON: Time 322740, Note Name: E3, Velocity: 57
Note OFF: Time 322800, Note Name: E3
Note OFF: Time 322800, Note Name: C3
Note OFF: Time 322800, Note Name: C2
Note ON: Time 322800, Note Name: F3, Velocity: 60
Note OFF: Time 322860, Note Name: F3
Note ON: Time 322860, Note Name: G3, Velocity: 60
Note OFF: Time 322920, Note Name: G3
Note ON: Time 322920, Note Name: A3, Velocity: 62
Note OFF: Time 322980, Note Name: A3
Note ON: Time 322980, Note Name: B3, Velocity: 63
Note OFF: Time 323040, Note Name: B3
Note ON: Time 323040, Note Name: C4, Velocity: 63
Note OFF: Time 323160, Note Name: C4
Note ON: Time 323160, Note Name: D4, Velocity: 65
Note OFF: Time 323220, Note Name: D4
Note ON: Time 323220, Note Name: E4, Velocity: 66
Note OFF: Time 323280, Note Name: E4
Note ON: Time 323280, Note Name: F4, Velocity: 67
Note OFF: Time 323340, Note Name: F4
Note ON: Time 323340, Note Name: G4, Velocity: 69
Note OFF: Time 323400, Note Name: G4
Note ON: Time 323400, Note Name: A4, Velocity: 70
Note OFF: Time 323460, Note Name: A4
Note ON: Time 323460, Note Name: B4, Velocity: 71
Note OFF: Time 323520, Note Name: B4
Note ON: Time 323520, Note Name: C5, Velocity: 74
Note OFF: Time 323580, Note Name: C5
Note ON: Time 323640, Note Name: B4, Velocity: 71
Note OFF: Time 323700, Note Name: B4
Note ON: Time 323760, Note Name: A4, Velocity: 71
Note OFF: Time 323820, Note Name: A4
Note ON: Time 323880, Note Name: G4, Velocity: 71
Note OFF: Time 323940, Note Name: G4
Note ON: Time 324000, Note Name: F4, Velocity: 72
Note OFF: Time 324060, Note Name: F4
Note ON: Time 324120, Note Name: E4, Velocity: 69
Note OFF: Time 324180, Note Name: E4
Note ON: Time 324240, Note Name: D4, Velocity: 69
Note OFF: Time 324300, Note Name: D4
Note ON: Time 324360, Note Name: C4, Velocity: 67
Note OFF: Time 324420, Note Name: C4
Note ON: Time 324480, Note Name: B3, Velocity: 73
Note OFF: Time 324540, Note Name: B3
Note ON: Time 324600, Note Name: C4, Velocity: 69
Note OFF: Time 324660, Note Name: C4
Note ON: Time 324720, Note Name: B3, Velocity: 69
Note OFF: Time 324780, Note Name: B3
Note ON: Time 324840, Note Name: A3, Velocity: 69
Note OFF: Time 324900, Note Name: A3
Note ON: Time 324960, Note Name: G3, Velocity: 75
Note OFF: Time 325020, Note Name: G3
Note ON: Time 325080, Note Name: F3, Velocity: 69
Note OFF: Time 325140, Note Name: F3
Note ON: Time 325200, Note Name: E3, Velocity: 69
Note OFF: Time 325260, Note Name: E3
Note ON: Time 325320, Note Name: D3, Velocity: 69
Note OFF: Time 325380, Note Name: D3
Note ON: Time 325440, Note Name: C3, Velocity: 75
Note OFF: Time 325500, Note Name: C3
Note ON: Time 325560, Note Name: C3, Velocity: 69
Note OFF: Time 325620, Note Name: C3
Note ON: Time 325680, Note Name: B2, Velocity: 69
Note OFF: Time 325740, Note Name: B2
Note ON: Time 325800, Note Name: A2, Velocity: 69
Note OFF: Time 325860, Note Name: A2
Note ON: Time 325920, Note Name: G2, Velocity: 72
Note OFF: Time 325980, Note Name: G2
Note ON: Time 326040, Note Name: F2, Velocity: 71
Note OFF: Time 326100, Note Name: F2
Note ON: Time 326160, Note Name: E2, Velocity: 75
Note OFF: Time 326220, Note Name: E2
Note ON: Time 326280, Note Name: D2, Velocity: 80
Note OFF: Time 326340, Note Name: D2
Note ON: Time 326400, Note Name: C2, Velocity: 95
Note ON: Time 326400, Note Name: C3, Velocity: 95
Note ON: Time 326520, Note Name: D3, Velocity: 56
Note OFF: Time 326580, Note Name: D3
Note ON: Time 326580, Note Name: E3, Velocity: 57
Note OFF: Time 326640, Note Name: E3
Note OFF: Time 326640, Note Name: C3
Note OFF: Time 326640, Note Name: C2
Note ON: Time 326640, Note Name: F3, Velocity: 60
Note OFF: Time 326700, Note Name: F3
Note ON: Time 326700, Note Name: G3, Velocity: 60
Note OFF: Time 326760, Note Name: G3
Note ON: Time 326760, Note Name: A3, Velocity: 62
Note OFF: Time 326820, Note Name: A3
Note ON: Time 326820, Note Name: B3, Velocity: 63
Note OFF: Time 326880, Note Name: B3
Note ON: Time 326880, Note Name: C4, Velocity: 63
Note OFF: Time 327000, Note Name: C4
Note ON: Time 327000, Note Name: D4, Velocity: 65
Note OFF: Time 327060, Note Name: D4
Note ON: Time 327060, Note Name: E4, Velocity: 66
Note OFF: Time 327120, Note Name: E4
Note ON: Time 327120, Note Name: F4, Velocity: 67
Note OFF: Time 327180, Note Name: F4
Note ON: Time 327180, Note Name: G4, Velocity: 69
Note OFF: Time 327240, Note Name: G4
Note ON: Time 327240, Note Name: A4, Velocity: 70
Note OFF: Time 327300, Note Name: A4
Note ON: Time 327300, Note Name: B4, Velocity: 71
Note OFF: Time 327360, Note Name: B4
Note ON: Time 327360, Note Name: C5, Velocity: 74
Note OFF: Time 327420, Note Name: C5
Note ON: Time 327480, Note Name: B4, Velocity: 71
Note OFF: Time 327540, Note Name: B4
Note ON: Time 327600, Note Name: A4, Velocity: 71
Note OFF: Time 327660, Note Name: A4
Note ON: Time 327720, Note Name: G4, Velocity: 71
Note OFF: Time 327780, Note Name: G4
Note ON: Time 327840, Note Name: F4, Velocity: 72
Note OFF: Time 327900, Note Name: F4
Note ON: Time 327960, Note Name: E4, Velocity: 69
Note OFF: Time 328020, Note Name: E4
Note ON: Time 328080, Note Name: D4, Velocity: 69
Note OFF: Time 328140, Note Name: D4
Note ON: Time 328200, Note Name: C4, Velocity: 67
Note OFF: Time 328260, Note Name: C4
Note ON: Time 328320, Note Name: B3, Velocity: 73
Note OFF: Time 328380, Note Name: B3
Note ON: Time 328440, Note Name: C4, Velocity: 69
Note OFF: Time 328500, Note Name: C4
Note ON: Time 328560, Note Name: B3, Velocity: 69
Note OFF: Time 328620, Note Name: B3
Note ON: Time 328680, Note Name: A3, Velocity: 69
Note OFF: Time 328740, Note Name: A3
Note ON: Time 328800, Note Name: G3, Velocity: 75
Note OFF: Time 328860, Note Name: G3
Note ON: Time 328920, Note Name: F3, Velocity: 69
Note OFF: Time 328980, Note Name: F3
Note ON: Time 329040, Note Name: E3, Velocity: 69
Note OFF: Time 329100, Note Name: E3
Note ON: Time 329160, Note Name: D3, Velocity: 69
Note OFF: Time 329220, Note Name: D3
Note ON: Time 329280, Note Name: C3, Velocity: 75
Note OFF: Time 329520, Note Name: C3
Note ON: Time 329520, Note Name: C2, Velocity: 75
Note OFF: Time 329760, Note Name: C2
Note ON: Time 330000, Note Name: C2, Velocity: 60
Note ON: Time 330000, Note Name: C3, Velocity: 71
Note OFF: Time 330240, Note Name: C3
Note OFF: Time 330240, Note Name: C2
Note ON: Time 330480, Note Name: C2, Velocity: 60
Note ON: Time 330480, Note Name: C3, Velocity: 71
Note OFF: Time 330720, Note Name: C3
Note OFF: Time 330720, Note Name: C2
Note ON: Time 330960, Note Name: C2, Velocity: 57
Note ON: Time 330960, Note Name: C3, Velocity: 68
Note OFF: Time 331200, Note Name: C3
Note OFF: Time 331200, Note Name: C2
Note ON: Time 331440, Note Name: C2, Velocity: 53
Note ON: Time 331440, Note Name: C3, Velocity: 63
Note OFF: Time 331680, Note Name: C3
Note OFF: Time 331680, Note Name: C2
Note ON: Time 331920, Note Name: C2, Velocity: 59
Note ON: Time 331920, Note Name: C3, Velocity: 70
Note OFF: Time 332160, Note Name: C3
Note OFF: Time 332160, Note Name: C2
Note ON: Time 332400, Note Name: C2, Velocity: 60
Note ON: Time 332400, Note Name: C3, Velocity: 71
Note OFF: Time 332640, Note Name: C3
Note OFF: Time 332640, Note Name: C2
Note ON: Time 332880, Note Name: C2, Velocity: 60
Note ON: Time 332880, Note Name: C3, Velocity: 71
Note OFF: Time 333120, Note Name: C3
Note OFF: Time 333120, Note Name: C2
Note ON: Time 333360, Note Name: C2, Velocity: 71
Note OFF: Time 333600, Note Name: C2
Note ON: Time 333840, Note Name: C3, Velocity: 60
Note ON: Time 333840, Note Name: E2, Velocity: 60
Note ON: Time 333840, Note Name: E3, Velocity: 71
Note OFF: Time 334080, Note Name: E3
Note OFF: Time 334080, Note Name: E2
Note OFF: Time 334080, Note Name: C3
Note ON: Time 334320, Note Name: C3, Velocity: 60
Note ON: Time 334320, Note Name: F2, Velocity: 60
Note ON: Time 334320, Note Name: F3, Velocity: 71
Note OFF: Time 334560, Note Name: F3
Note OFF: Time 334560, Note Name: F2
Note OFF: Time 334560, Note Name: C3
Note ON: Time 334800, Note Name: C3, Velocity: 57
Note ON: Time 334800, Note Name: E2, Velocity: 57
Note ON: Time 334800, Note Name: E3, Velocity: 68
Note OFF: Time 335040, Note Name: E3
Note OFF: Time 335040, Note Name: E2
Note OFF: Time 335040, Note Name: C3
Note ON: Time 335280, Note Name: C3, Velocity: 53
Note ON: Time 335280, Note Name: D2, Velocity: 53
Note ON: Time 335280, Note Name: D3, Velocity: 63
Note OFF: Time 335520, Note Name: D3
Note OFF: Time 335520, Note Name: D2
Note OFF: Time 335520, Note Name: C3
Note ON: Time 335760, Note Name: C3, Velocity: 59
Note ON: Time 335760, Note Name: D#2, Velocity: 59
Note ON: Time 335760, Note Name: D#3, Velocity: 70
Note OFF: Time 336000, Note Name: D#3
Note OFF: Time 336000, Note Name: D#2
Note OFF: Time 336000, Note Name: C3
Note ON: Time 336240, Note Name: C3, Velocity: 60
Note ON: Time 336240, Note Name: E2, Velocity: 60
Note ON: Time 336240, Note Name: E3, Velocity: 71
Note OFF: Time 336480, Note Name: E3
Note OFF: Time 336480, Note Name: E2
Note OFF: Time 336480, Note Name: C3
Note ON: Time 336720, Note Name: C3, Velocity: 60
Note ON: Time 336720, Note Name: D2, Velocity: 60
Note ON: Time 336720, Note Name: D3, Velocity: 71
Note OFF: Time 336960, Note Name: D3
Note OFF: Time 336960, Note Name: D2
Note OFF: Time 336960, Note Name: C3
Note ON: Time 337200, Note Name: C2, Velocity: 63
Note ON: Time 337200, Note Name: C3, Velocity: 63
Note OFF: Time 337440, Note Name: C3
Note OFF: Time 337440, Note Name: C2
Note ON: Time 337440, Note Name: C2, Velocity: 51
Note OFF: Time 337520, Note Name: C2
Note ON: Time 337520, Note Name: E2, Velocity: 45
Note OFF: Time 337600, Note Name: E2
Note ON: Time 337600, Note Name: G2, Velocity: 45
Note OFF: Time 337680, Note Name: G2
Note ON: Time 337680, Note Name: C3, Velocity: 51
Note OFF: Time 337760, Note Name: C3
Note ON: Time 337760, Note Name: G2, Velocity: 46
Note OFF: Time 337840, Note Name: G2
Note ON: Time 337840, Note Name: E2, Velocity: 46
Note OFF: Time 337920, Note Name: E2
Note ON: Time 337920, Note Name: C2, Velocity: 51
Note OFF: Time 338000, Note Name: C2
Note ON: Time 338000, Note Name: F2, Velocity: 46
Note OFF: Time 338080, Note Name: F2
Note ON: Time 338080, Note Name: A2, Velocity: 46
Note OFF: Time 338160, Note Name: A2
Note ON: Time 338160, Note Name: C3, Velocity: 51
Note OFF: Time 338240, Note Name: C3
Note ON: Time 338240, Note Name: A2, Velocity: 45
Note OFF: Time 338320, Note Name: A2
Note ON: Time 338320, Note Name: F2, Velocity: 45
Note OFF: Time 338400, Note Name: F2
Note ON: Time 338400, Note Name: C2, Velocity: 51
Note OFF: Time 338480, Note Name: C2
Note ON: Time 338480, Note Name: E2, Velocity: 46
Note OFF: Time 338560, Note Name: E2
Note ON: Time 338560, Note Name: G2, Velocity: 46
Note OFF: Time 338640, Note Name: G2
Note ON: Time 338640, Note Name: C3, Velocity: 51
Note OFF: Time 338720, Note Name: C3
Note ON: Time 338720, Note Name: G2, Velocity: 46
Note OFF: Time 338800, Note Name: G2
Note ON: Time 338800, Note Name: E2, Velocity: 46
Note OFF: Time 338880, Note Name: E2
Note ON: Time 338880, Note Name: C2, Velocity: 51
Note OFF: Time 338960, Note Name: C2
Note ON: Time 338960, Note Name: D2, Velocity: 46
Note OFF: Time 339040, Note Name: D2
Note ON: Time 339040, Note Name: F2, Velocity: 46
Note OFF: Time 339120, Note Name: F2
Note ON: Time 339120, Note Name: C3, Velocity: 51
Note OFF: Time 339200, Note Name: C3
Note ON: Time 339200, Note Name: F2, Velocity: 45
Note OFF: Time 339280, Note Name: F2
Note ON: Time 339280, Note Name: D2, Velocity: 45
Note OFF: Time 339360, Note Name: D2
Note ON: Time 339360, Note Name: C2, Velocity: 56
Note OFF: Time 339440, Note Name: C2
Note ON: Time 339440, Note Name: D#2, Velocity: 46
Note OFF: Time 339520, Note Name: D#2
Note ON: Time 339520, Note Name: F#2, Velocity: 46
Note OFF: Time 339600, Note Name: F#2
Note ON: Time 339600, Note Name: C3, Velocity: 51
Note OFF: Time 339680, Note Name: C3
Note ON: Time 339680, Note Name: F#2, Velocity: 46
Note OFF: Time 339760, Note Name: F#2
Note ON: Time 339760, Note Name: D#2, Velocity: 46
Note OFF: Time 339840, Note Name: D#2
Note ON: Time 339840, Note Name: C2, Velocity: 57
Note OFF: Time 339920, Note Name: C2
Note ON: Time 339920, Note Name: E2, Velocity: 46
Note OFF: Time 340000, Note Name: E2
Note ON: Time 340000, Note Name: G2, Velocity: 46
Note OFF: Time 340080, Note Name: G2
Note ON: Time 340080, Note Name: C3, Velocity: 51
Note OFF: Time 340160, Note Name: C3
Note ON: Time 340160, Note Name: G2, Velocity: 45
Note OFF: Time 340240, Note Name: G2
Note ON: Time 340240, Note Name: E2, Velocity: 45
Note OFF: Time 340320, Note Name: E2
Note ON: Time 340320, Note Name: C2, Velocity: 51
Note OFF: Time 340400, Note Name: C2
Note ON: Time 340400, Note Name: D2, Velocity: 45
Note OFF: Time 340480, Note Name: D2
Note ON: Time 340480, Note Name: F2, Velocity: 44
Note OFF: Time 340560, Note Name: F2
Note ON: Time 340560, Note Name: C3, Velocity: 51
Note OFF: Time 340640, Note Name: C3
Note ON: Time 340640, Note Name: F2, Velocity: 44
Note OFF: Time 340720, Note Name: F2
Note ON: Time 340720, Note Name: D2, Velocity: 44
Note OFF: Time 340800, Note Name: D2
Note ON: Time 340800, Note Name: C2, Velocity: 51
Note OFF: Time 340880, Note Name: C2
Note ON: Time 340880, Note Name: E2, Velocity: 44
Note OFF: Time 340960, Note Name: E2
Note ON: Time 340960, Note Name: G2, Velocity: 44
Note OFF: Time 341040, Note Name: G2
Note ON: Time 341040, Note Name: C3, Velocity: 51
Note OFF: Time 341120, Note Name: C3
Note ON: Time 341120, Note Name: G2, Velocity: 44
Note OFF: Time 341200, Note Name: G2
Note ON: Time 341200, Note Name: E2, Velocity: 46
Note OFF: Time 341280, Note Name: E2
Note ON: Time 341280, Note Name: C2, Velocity: 51
Note OFF: Time 341360, Note Name: C2
Note ON: Time 341360, Note Name: C3, Velocity: 45
Note OFF: Time 341440, Note Name: C3
Note ON: Time 341440, Note Name: E3, Velocity: 45
Note OFF: Time 341520, Note Name: E3
Note ON: Time 341520, Note Name: G3, Velocity: 51
Note OFF: Time 341600, Note Name: G3
Note ON: Time 341600, Note Name: E3, Velocity: 46
Note OFF: Time 341680, Note Name: E3
Note ON: Time 341680, Note Name: C3, Velocity: 46
Note OFF: Time 341760, Note Name: C3
Note ON: Time 341760, Note Name: C2, Velocity: 51
Note OFF: Time 341840, Note Name: C2
Note ON: Time 341840, Note Name: C3, Velocity: 46
Note OFF: Time 341920, Note Name: C3
Note ON: Time 341920, Note Name: F3, Velocity: 46
Note OFF: Time 342000, Note Name: F3
Note ON: Time 342000, Note Name: A3, Velocity: 51
Note OFF: Time 342080, Note Name: A3
Note ON: Time 342080, Note Name: F3, Velocity: 45
Note OFF: Time 342160, Note Name: F3
Note ON: Time 342160, Note Name: C3, Velocity: 45
Note OFF: Time 342240, Note Name: C3
Note ON: Time 342240, Note Name: C2, Velocity: 51
Note OFF: Time 342320, Note Name: C2
Note ON: Time 342320, Note Name: C3, Velocity: 46
Note OFF: Time 342400, Note Name: C3
Note ON: Time 342400, Note Name: E3, Velocity: 46
Note OFF: Time 342480, Note Name: E3
Note ON: Time 342480, Note Name: G3, Velocity: 51
Note OFF: Time 342560, Note Name: G3
Note ON: Time 342560, Note Name: E3, Velocity: 46
Note OFF: Time 342640, Note Name: E3
Note ON: Time 342640, Note Name: C3, Velocity: 46
Note OFF: Time 342720, Note Name: C3
Note ON: Time 342720, Note Name: C2, Velocity: 51
Note OFF: Time 342800, Note Name: C2
Note ON: Time 342800, Note Name: C3, Velocity: 46
Note OFF: Time 342880, Note Name: C3
Note ON: Time 342880, Note Name: D3, Velocity: 46
Note OFF: Time 342960, Note Name: D3
Note ON: Time 342960, Note Name: F3, Velocity: 51
Note OFF: Time 343040, Note Name: F3
Note ON: Time 343040, Note Name: D3, Velocity: 45
Note OFF: Time 343120, Note Name: D3
Note ON: Time 343120, Note Name: C3, Velocity: 45
Note OFF: Time 343200, Note Name: C3
Note ON: Time 343200, Note Name: C2, Velocity: 56
Note OFF: Time 343280, Note Name: C2
Note ON: Time 343280, Note Name: C3, Velocity: 46
Note OFF: Time 343360, Note Name: C3
Note ON: Time 343360, Note Name: D#3, Velocity: 46
Note OFF: Time 343440, Note Name: D#3
Note ON: Time 343440, Note Name: F#3, Velocity: 51
Note OFF: Time 343520, Note Name: F#3
Note ON: Time 343520, Note Name: D#3, Velocity: 46
Note OFF: Time 343600, Note Name: D#3
Note ON: Time 343600, Note Name: C3, Velocity: 46
Note OFF: Time 343680, Note Name: C3
Note ON: Time 343680, Note Name: C2, Velocity: 57
Note OFF: Time 343760, Note Name: C2
Note ON: Time 343760, Note Name: C3, Velocity: 46
Note OFF: Time 343840, Note Name: C3
Note ON: Time 343840, Note Name: E3, Velocity: 46
Note OFF: Time 343920, Note Name: E3
Note ON: Time 343920, Note Name: G3, Velocity: 51
Note OFF: Time 344000, Note Name: G3
Note ON: Time 344000, Note Name: E3, Velocity: 45
Note OFF: Time 344080, Note Name: E3
Note ON: Time 344080, Note Name: C3, Velocity: 45
Note OFF: Time 344160, Note Name: C3
Note ON: Time 344160, Note Name: C2, Velocity: 51
Note OFF: Time 344240, Note Name: C2
Note ON: Time 344240, Note Name: C3, Velocity: 45
Note OFF: Time 344320, Note Name: C3
Note ON: Time 344320, Note Name: D3, Velocity: 44
Note OFF: Time 344400, Note Name: D3
Note ON: Time 344400, Note Name: F3, Velocity: 51
Note OFF: Time 344480, Note Name: F3
Note ON: Time 344480, Note Name: D3, Velocity: 44
Note OFF: Time 344560, Note Name: D3
Note ON: Time 344560, Note Name: C3, Velocity: 44
Note OFF: Time 344640, Note Name: C3
Note ON: Time 344640, Note Name: C2, Velocity: 51
Note OFF: Time 344720, Note Name: C2
Note ON: Time 344720, Note Name: C3, Velocity: 44
Note OFF: Time 344800, Note Name: C3
Note ON: Time 344800, Note Name: E3, Velocity: 44
Note OFF: Time 344880, Note Name: E3
Note ON: Time 344880, Note Name: G3, Velocity: 51
Note OFF: Time 344960, Note Name: G3
Note ON: Time 344960, Note Name: E3, Velocity: 44
Note OFF: Time 345040, Note Name: E3
Note ON: Time 345040, Note Name: C3, Velocity: 46
Note OFF: Time 345120, Note Name: C3
Note ON: Time 345120, Note Name: C2, Velocity: 59
Note OFF: Time 345200, Note Name: C2
Note ON: Time 345200, Note Name: C3, Velocity: 45
Note OFF: Time 345280, Note Name: C3
Note ON: Time 345280, Note Name: E3, Velocity: 45
Note OFF: Time 345360, Note Name: E3
Note ON: Time 345360, Note Name: G3, Velocity: 51
Note OFF: Time 345440, Note Name: G3
Note ON: Time 345440, Note Name: E3, Velocity: 46
Note OFF: Time 345520, Note Name: E3
Note ON: Time 345520, Note Name: C3, Velocity: 46
Note OFF: Time 345600, Note Name: C3
Note ON: Time 345600, Note Name: G2, Velocity: 51
Note OFF: Time 345680, Note Name: G2
Note ON: Time 345680, Note Name: B2, Velocity: 46
Note OFF: Time 345760, Note Name: B2
Note ON: Time 345760, Note Name: D3, Velocity: 46
Note OFF: Time 345840, Note Name: D3
Note ON: Time 345840, Note Name: G3, Velocity: 51
Note OFF: Time 345920, Note Name: G3
Note ON: Time 345920, Note Name: D3, Velocity: 45
Note OFF: Time 346000, Note Name: D3
Note ON: Time 346000, Note Name: B2, Velocity: 45
Note OFF: Time 346080, Note Name: B2
Note ON: Time 346080, Note Name: D2, Velocity: 59
Note OFF: Time 346160, Note Name: D2
Note ON: Time 346160, Note Name: D3, Velocity: 45
Note OFF: Time 346240, Note Name: D3
Note ON: Time 346240, Note Name: F3, Velocity: 45
Note OFF: Time 346320, Note Name: F3
Note ON: Time 346320, Note Name: A3, Velocity: 51
Note OFF: Time 346400, Note Name: A3
Note ON: Time 346400, Note Name: F3, Velocity: 46
Note OFF: Time 346480, Note Name: F3
Note ON: Time 346480, Note Name: D3, Velocity: 46
Note OFF: Time 346560, Note Name: D3
Note ON: Time 346560, Note Name: A2, Velocity: 51
Note OFF: Time 346640, Note Name: A2
Note ON: Time 346640, Note Name: C3, Velocity: 46
Note OFF: Time 346720, Note Name: C3
Note ON: Time 346720, Note Name: E3, Velocity: 46
Note OFF: Time 346800, Note Name: E3
Note ON: Time 346800, Note Name: A3, Velocity: 51
Note OFF: Time 346880, Note Name: A3
Note ON: Time 346880, Note Name: E3, Velocity: 45
Note OFF: Time 346960, Note Name: E3
Note ON: Time 346960, Note Name: C3, Velocity: 45
Note OFF: Time 347040, Note Name: C3
Note ON: Time 347040, Note Name: F2, Velocity: 59
Note OFF: Time 347120, Note Name: F2
Note ON: Time 347120, Note Name: C3, Velocity: 45
Note OFF: Time 347200, Note Name: C3
Note ON: Time 347200, Note Name: D3, Velocity: 45
Note OFF: Time 347280, Note Name: D3
Note ON: Time 347280, Note Name: F3, Velocity: 51
Note OFF: Time 347360, Note Name: F3
Note ON: Time 347360, Note Name: D3, Velocity: 46
Note OFF: Time 347440, Note Name: D3
Note ON: Time 347440, Note Name: C3, Velocity: 46
Note OFF: Time 347520, Note Name: C3
Note ON: Time 347520, Note Name: G2, Velocity: 51
Note OFF: Time 347600, Note Name: G2
Note ON: Time 347600, Note Name: C3, Velocity: 46
Note OFF: Time 347680, Note Name: C3
Note ON: Time 347680, Note Name: D3, Velocity: 46
Note OFF: Time 347760, Note Name: D3
Note ON: Time 347760, Note Name: G3, Velocity: 51
Note OFF: Time 347840, Note Name: G3
Note ON: Time 347840, Note Name: D3, Velocity: 45
Note OFF: Time 347920, Note Name: D3
Note ON: Time 347920, Note Name: C3, Velocity: 45
Note OFF: Time 348000, Note Name: C3
Note ON: Time 348000, Note Name: G2, Velocity: 59
Note OFF: Time 348080, Note Name: G2
Note ON: Time 348080, Note Name: B2, Velocity: 45
Note OFF: Time 348160, Note Name: B2
Note ON: Time 348160, Note Name: D3, Velocity: 45
Note OFF: Time 348240, Note Name: D3
Note ON: Time 348240, Note Name: G3, Velocity: 51
Note OFF: Time 348320, Note Name: G3
Note ON: Time 348320, Note Name: D3, Velocity: 46
Note OFF: Time 348400, Note Name: D3
Note ON: Time 348400, Note Name: B2, Velocity: 46
Note OFF: Time 348480, Note Name: B2
Note ON: Time 348480, Note Name: C2, Velocity: 51
Note OFF: Time 348560, Note Name: C2
Note ON: Time 348560, Note Name: C3, Velocity: 44
Note OFF: Time 348640, Note Name: C3
Note ON: Time 348640, Note Name: E3, Velocity: 44
Note OFF: Time 348720, Note Name: E3
Note ON: Time 348720, Note Name: G3, Velocity: 50
Note OFF: Time 348800, Note Name: G3
Note ON: Time 348800, Note Name: E3, Velocity: 43
Note OFF: Time 348880, Note Name: E3
Note ON: Time 348880, Note Name: C3, Velocity: 43
Note OFF: Time 348960, Note Name: C3
Note ON: Time 348960, Note Name: C2, Velocity: 59
Note OFF: Time 349040, Note Name: C2
Note ON: Time 349040, Note Name: C3, Velocity: 45
Note OFF: Time 349120, Note Name: C3
Note ON: Time 349120, Note Name: E3, Velocity: 45
Note OFF: Time 349200, Note Name: E3
Note ON: Time 349200, Note Name: G3, Velocity: 51
Note OFF: Time 349280, Note Name: G3
Note ON: Time 349280, Note Name: E3, Velocity: 46
Note OFF: Time 349360, Note Name: E3
Note ON: Time 349360, Note Name: C3, Velocity: 46
Note OFF: Time 349440, Note Name: C3
Note ON: Time 349440, Note Name: G2, Velocity: 51
Note OFF: Time 349520, Note Name: G2
Note ON: Time 349520, Note Name: B2, Velocity: 46
Note OFF: Time 349600, Note Name: B2
Note ON: Time 349600, Note Name: D3, Velocity: 46
Note OFF: Time 349680, Note Name: D3
Note ON: Time 349680, Note Name: G3, Velocity: 51
Note OFF: Time 349760, Note Name: G3
Note ON: Time 349760, Note Name: D3, Velocity: 45
Note OFF: Time 349840, Note Name: D3
Note ON: Time 349840, Note Name: B2, Velocity: 45
Note OFF: Time 349920, Note Name: B2
Note ON: Time 349920, Note Name: D2, Velocity: 59
Note OFF: Time 350000, Note Name: D2
Note ON: Time 350000, Note Name: D3, Velocity: 45
Note OFF: Time 350080, Note Name: D3
Note ON: Time 350080, Note Name: F3, Velocity: 45
Note OFF: Time 350160, Note Name: F3
Note ON: Time 350160, Note Name: A3, Velocity: 51
Note OFF: Time 350240, Note Name: A3
Note ON: Time 350240, Note Name: F3, Velocity: 46
Note OFF: Time 350320, Note Name: F3
Note ON: Time 350320, Note Name: D3, Velocity: 46
Note OFF: Time 350400, Note Name: D3
Note ON: Time 350400, Note Name: A2, Velocity: 51
Note OFF: Time 350480, Note Name: A2
Note ON: Time 350480, Note Name: C3, Velocity: 46
Note OFF: Time 350560, Note Name: C3
Note ON: Time 350560, Note Name: E3, Velocity: 46
Note OFF: Time 350640, Note Name: E3
Note ON: Time 350640, Note Name: A3, Velocity: 51
Note OFF: Time 350720, Note Name: A3
Note ON: Time 350720, Note Name: E3, Velocity: 45
Note OFF: Time 350800, Note Name: E3
Note ON: Time 350800, Note Name: C3, Velocity: 45
Note OFF: Time 350880, Note Name: C3
Note ON: Time 350880, Note Name: A2, Velocity: 59
Note OFF: Time 350960, Note Name: A2
Note ON: Time 350960, Note Name: C3, Velocity: 45
Note OFF: Time 351040, Note Name: C3
Note ON: Time 351040, Note Name: E3, Velocity: 45
Note OFF: Time 351120, Note Name: E3
Note ON: Time 351120, Note Name: A3, Velocity: 51
Note OFF: Time 351200, Note Name: A3
Note ON: Time 351200, Note Name: E3, Velocity: 46
Note OFF: Time 351280, Note Name: E3
Note ON: Time 351280, Note Name: C3, Velocity: 46
Note OFF: Time 351360, Note Name: C3
Note ON: Time 351360, Note Name: D2, Velocity: 51
Note OFF: Time 351440, Note Name: D2
Note ON: Time 351440, Note Name: A2, Velocity: 46
Note OFF: Time 351520, Note Name: A2
Note ON: Time 351520, Note Name: C3, Velocity: 46
Note OFF: Time 351600, Note Name: C3
Note ON: Time 351600, Note Name: D3, Velocity: 51
Note OFF: Time 351680, Note Name: D3
Note ON: Time 351680, Note Name: C3, Velocity: 45
Note OFF: Time 351760, Note Name: C3
Note ON: Time 351760, Note Name: A2, Velocity: 45
Note OFF: Time 351840, Note Name: A2
Note ON: Time 351840, Note Name: D2, Velocity: 59
Note OFF: Time 351920, Note Name: D2
Note ON: Time 351920, Note Name: A2, Velocity: 45
Note OFF: Time 352000, Note Name: A2
Note ON: Time 352000, Note Name: C3, Velocity: 45
Note OFF: Time 352080, Note Name: C3
Note ON: Time 352080, Note Name: D3, Velocity: 51
Note OFF: Time 352160, Note Name: D3
Note ON: Time 352160, Note Name: C3, Velocity: 46
Note OFF: Time 352240, Note Name: C3
Note ON: Time 352240, Note Name: A2, Velocity: 46
Note OFF: Time 352320, Note Name: A2
Note ON: Time 352320, Note Name: G2, Velocity: 51
Note OFF: Time 352400, Note Name: G2
Note ON: Time 352400, Note Name: D3, Velocity: 44
Note OFF: Time 352480, Note Name: D3
Note ON: Time 352480, Note Name: G3, Velocity: 44
Note OFF: Time 352560, Note Name: G3
Note ON: Time 352560, Note Name: G2, Velocity: 50
Note OFF: Time 352640, Note Name: G2
Note ON: Time 352640, Note Name: B2, Velocity: 43
Note OFF: Time 352720, Note Name: B2
Note ON: Time 352720, Note Name: G3, Velocity: 43
Note OFF: Time 352800, Note Name: G3
Note ON: Time 352800, Note Name: G2, Velocity: 59
Note OFF: Time 352880, Note Name: G2
Note ON: Time 352880, Note Name: C3, Velocity: 45
Note OFF: Time 352960, Note Name: C3
Note ON: Time 352960, Note Name: D3, Velocity: 45
Note OFF: Time 353040, Note Name: D3
Note ON: Time 353040, Note Name: G2, Velocity: 51
Note OFF: Time 353120, Note Name: G2
Note ON: Time 353120, Note Name: C3, Velocity: 46
Note OFF: Time 353200, Note Name: C3
Note ON: Time 353200, Note Name: D3, Velocity: 46
Note OFF: Time 353280, Note Name: D3
Note ON: Time 353280, Note Name: G2, Velocity: 51
Note OFF: Time 353360, Note Name: G2
Note ON: Time 353360, Note Name: B2, Velocity: 46
Note OFF: Time 353440, Note Name: B2
Note ON: Time 353440, Note Name: D3, Velocity: 46
Note OFF: Time 353520, Note Name: D3
Note ON: Time 353520, Note Name: G2, Velocity: 51
Note OFF: Time 353600, Note Name: G2
Note ON: Time 353600, Note Name: B2, Velocity: 45
Note OFF: Time 353680, Note Name: B2
Note ON: Time 353680, Note Name: D3, Velocity: 45
Note OFF: Time 353760, Note Name: D3
Note ON: Time 353760, Note Name: G2, Velocity: 59
Note OFF: Time 353840, Note Name: G2
Note ON: Time 353840, Note Name: C3, Velocity: 45
Note OFF: Time 353920, Note Name: C3
Note ON: Time 353920, Note Name: D3, Velocity: 45
Note OFF: Time 354000, Note Name: D3
Note ON: Time 354000, Note Name: G2, Velocity: 51
Note OFF: Time 354080, Note Name: G2
Note ON: Time 354080, Note Name: C3, Velocity: 46
Note OFF: Time 354160, Note Name: C3
Note ON: Time 354160, Note Name: D3, Velocity: 46
Note OFF: Time 354240, Note Name: D3
Note ON: Time 354240, Note Name: G2, Velocity: 58
Note OFF: Time 354320, Note Name: G2
Note ON: Time 354320, Note Name: B2, Velocity: 44
Note OFF: Time 354400, Note Name: B2
Note ON: Time 354400, Note Name: D3, Velocity: 44
Note OFF: Time 354480, Note Name: D3
Note ON: Time 354480, Note Name: G2, Velocity: 50
Note OFF: Time 354560, Note Name: G2
Note ON: Time 354560, Note Name: B2, Velocity: 43
Note OFF: Time 354640, Note Name: B2
Note ON: Time 354640, Note Name: D3, Velocity: 43
Note OFF: Time 354720, Note Name: D3
Note ON: Time 354720, Note Name: G2, Velocity: 40
Note OFF: Time 354800, Note Name: G2
Note ON: Time 354800, Note Name: C3, Velocity: 30
Note OFF: Time 354880, Note Name: C3
Note ON: Time 354880, Note Name: D3, Velocity: 30
Note OFF: Time 354960, Note Name: D3
Note ON: Time 354960, Note Name: A3, Velocity: 34
Note OFF: Time 355040, Note Name: A3
Note ON: Time 355040, Note Name: D3, Velocity: 31
Note OFF: Time 355120, Note Name: D3
Note ON: Time 355120, Note Name: C3, Velocity: 31
Note OFF: Time 355200, Note Name: C3
Note ON: Time 355200, Note Name: G2, Velocity: 35
Note OFF: Time 355280, Note Name: G2
Note ON: Time 355280, Note Name: B2, Velocity: 31
Note OFF: Time 355360, Note Name: B2
Note ON: Time 355360, Note Name: D3, Velocity: 31
Note OFF: Time 355440, Note Name: D3
Note ON: Time 355440, Note Name: G3, Velocity: 34
Note OFF: Time 355520, Note Name: G3
Note ON: Time 355520, Note Name: D3, Velocity: 30
Note OFF: Time 355600, Note Name: D3
Note ON: Time 355600, Note Name: B2, Velocity: 30
Note OFF: Time 355680, Note Name: B2
Note ON: Time 355680, Note Name: G2, Velocity: 40
Note OFF: Time 355760, Note Name: G2
Note ON: Time 355760, Note Name: C3, Velocity: 30
Note OFF: Time 355840, Note Name: C3
Note ON: Time 355840, Note Name: D3, Velocity: 30
Note OFF: Time 355920, Note Name: D3
Note ON: Time 355920, Note Name: A3, Velocity: 34
Note OFF: Time 356000, Note Name: A3
Note ON: Time 356000, Note Name: D3, Velocity: 31
Note OFF: Time 356080, Note Name: D3
Note ON: Time 356080, Note Name: C3, Velocity: 31
Note OFF: Time 356160, Note Name: C3
Note ON: Time 356160, Note Name: G2, Velocity: 39
Note OFF: Time 356240, Note Name: G2
Note ON: Time 356240, Note Name: B2, Velocity: 30
Note OFF: Time 356320, Note Name: B2
Note ON: Time 356320, Note Name: D3, Velocity: 30
Note OFF: Time 356400, Note Name: D3
Note ON: Time 356400, Note Name: G3, Velocity: 34
Note OFF: Time 356480, Note Name: G3
Note ON: Time 356480, Note Name: D3, Velocity: 29
Note OFF: Time 356560, Note Name: D3
Note ON: Time 356560, Note Name: B2, Velocity: 29
Note OFF: Time 356640, Note Name: B2
Note ON: Time 356640, Note Name: G2, Velocity: 65
Note OFF: Time 356720, Note Name: G2
Note ON: Time 356720, Note Name: C3, Velocity: 49
Note OFF: Time 356800, Note Name: C3
Note ON: Time 356800, Note Name: D3, Velocity: 49
Note OFF: Time 356880, Note Name: D3
Note ON: Time 356880, Note Name: G2, Velocity: 56
Note OFF: Time 356960, Note Name: G2
Note ON: Time 356960, Note Name: C3, Velocity: 51
Note OFF: Time 357040, Note Name: C3
Note ON: Time 357040, Note Name: D3, Velocity: 51
Note OFF: Time 357120, Note Name: D3
Note ON: Time 357120, Note Name: G2, Velocity: 56
Note OFF: Time 357200, Note Name: G2
Note ON: Time 357200, Note Name: B2, Velocity: 51
Note OFF: Time 357280, Note Name: B2
Note ON: Time 357280, Note Name: D3, Velocity: 51
Note OFF: Time 357360, Note Name: D3
Note ON: Time 357360, Note Name: G2, Velocity: 56
Note OFF: Time 357440, Note Name: G2
Note ON: Time 357440, Note Name: B2, Velocity: 49
Note OFF: Time 357520, Note Name: B2
Note ON: Time 357520, Note Name: D3, Velocity: 49
Note OFF: Time 357600, Note Name: D3
Note ON: Time 357600, Note Name: G2, Velocity: 65
Note OFF: Time 357680, Note Name: G2
Note ON: Time 357680, Note Name: C3, Velocity: 49
Note OFF: Time 357760, Note Name: C3
Note ON: Time 357760, Note Name: D3, Velocity: 49
Note OFF: Time 357840, Note Name: D3
Note ON: Time 357840, Note Name: G2, Velocity: 56
Note OFF: Time 357920, Note Name: G2
Note ON: Time 357920, Note Name: C3, Velocity: 51
Note OFF: Time 358000, Note Name: C3
Note ON: Time 358000, Note Name: D3, Velocity: 51
Note OFF: Time 358080, Note Name: D3
Note ON: Time 358080, Note Name: G2, Velocity: 63
Note OFF: Time 358160, Note Name: G2
Note ON: Time 358160, Note Name: B2, Velocity: 48
Note OFF: Time 358240, Note Name: B2
Note ON: Time 358240, Note Name: D3, Velocity: 48
Note OFF: Time 358320, Note Name: D3
Note ON: Time 358320, Note Name: G2, Velocity: 54
Note OFF: Time 358400, Note Name: G2
Note ON: Time 358400, Note Name: B2, Velocity: 47
Note OFF: Time 358480, Note Name: B2
Note ON: Time 358480, Note Name: D3, Velocity: 47
Note OFF: Time 358560, Note Name: D3
Note ON: Time 358560, Note Name: G2, Velocity: 40
Note OFF: Time 358640, Note Name: G2
Note ON: Time 358640, Note Name: C3, Velocity: 30
Note OFF: Time 358720, Note Name: C3
Note ON: Time 358720, Note Name: D3, Velocity: 30
Note OFF: Time 358800, Note Name: D3
Note ON: Time 358800, Note Name: A3, Velocity: 34
Note OFF: Time 358880, Note Name: A3
Note ON: Time 358880, Note Name: D3, Velocity: 31
Note OFF: Time 358960, Note Name: D3
Note ON: Time 358960, Note Name: C3, Velocity: 31
Note OFF: Time 359040, Note Name: C3
Note ON: Time 359040, Note Name: G2, Velocity: 35
Note OFF: Time 359120, Note Name: G2
Note ON: Time 359120, Note Name: B2, Velocity: 31
Note OFF: Time 359200, Note Name: B2
Note ON: Time 359200, Note Name: D3, Velocity: 31
Note OFF: Time 359280, Note Name: D3
Note ON: Time 359280, Note Name: G3, Velocity: 34
Note OFF: Time 359360, Note Name: G3
Note ON: Time 359360, Note Name: D3, Velocity: 30
Note OFF: Time 359440, Note Name: D3
Note ON: Time 359440, Note Name: B2, Velocity: 30
Note OFF: Time 359520, Note Name: B2
Note ON: Time 359520, Note Name: G2, Velocity: 40
Note OFF: Time 359600, Note Name: G2
Note ON: Time 359600, Note Name: C3, Velocity: 30
Note OFF: Time 359680, Note Name: C3
Note ON: Time 359680, Note Name: D3, Velocity: 30
Note OFF: Time 359760, Note Name: D3
Note ON: Time 359760, Note Name: A3, Velocity: 34
Note OFF: Time 359840, Note Name: A3
Note ON: Time 359840, Note Name: D3, Velocity: 31
Note OFF: Time 359920, Note Name: D3
Note ON: Time 359920, Note Name: C3, Velocity: 31
Note OFF: Time 360000, Note Name: C3
Note ON: Time 360000, Note Name: G2, Velocity: 43
Note OFF: Time 360080, Note Name: G2
Note ON: Time 360080, Note Name: B2, Velocity: 33
Note OFF: Time 360160, Note Name: B2
Note ON: Time 360160, Note Name: D3, Velocity: 34
Note OFF: Time 360240, Note Name: D3
Note ON: Time 360240, Note Name: G3, Velocity: 39
Note OFF: Time 360320, Note Name: G3
Note ON: Time 360320, Note Name: D3, Velocity: 34
Note OFF: Time 360400, Note Name: D3
Note ON: Time 360400, Note Name: B2, Velocity: 35
Note OFF: Time 360480, Note Name: B2
Note ON: Time 360480, Note Name: G2, Velocity: 50
Note OFF: Time 360560, Note Name: G2
Note ON: Time 360560, Note Name: C3, Velocity: 38
Note OFF: Time 360640, Note Name: C3
Note ON: Time 360640, Note Name: D3, Velocity: 39
Note OFF: Time 360720, Note Name: D3
Note ON: Time 360720, Note Name: A3, Velocity: 45
Note OFF: Time 360800, Note Name: A3
Note ON: Time 360800, Note Name: D3, Velocity: 42
Note OFF: Time 360880, Note Name: D3
Note ON: Time 360880, Note Name: C3, Velocity: 43
Note OFF: Time 360960, Note Name: C3
Note ON: Time 360960, Note Name: G2, Velocity: 50
Note OFF: Time 361040, Note Name: G2
Note ON: Time 361040, Note Name: B2, Velocity: 44
Note OFF: Time 361120, Note Name: B2
Note ON: Time 361120, Note Name: D3, Velocity: 45
Note OFF: Time 361200, Note Name: D3
Note ON: Time 361200, Note Name: G3, Velocity: 51
Note OFF: Time 361280, Note Name: G3
Note ON: Time 361280, Note Name: D3, Velocity: 45
Note OFF: Time 361360, Note Name: D3
Note ON: Time 361360, Note Name: B2, Velocity: 47
Note OFF: Time 361440, Note Name: B2
Note ON: Time 361440, Note Name: G2, Velocity: 64
Note OFF: Time 361520, Note Name: G2
Note ON: Time 361520, Note Name: C3, Velocity: 49
Note OFF: Time 361600, Note Name: C3
Note ON: Time 361600, Note Name: D3, Velocity: 50
Note OFF: Time 361680, Note Name: D3
Note ON: Time 361680, Note Name: A3, Velocity: 57
Note OFF: Time 361760, Note Name: A3
Note ON: Time 361760, Note Name: D3, Velocity: 53
Note OFF: Time 361840, Note Name: D3
Note ON: Time 361840, Note Name: C3, Velocity: 54
Note OFF: Time 361920, Note Name: C3
Note ON: Time 361920, Note Name: G2, Velocity: 68
Note ON: Time 361920, Note Name: B2, Velocity: 68
Note ON: Time 361920, Note Name: D3, Velocity: 68
Note ON: Time 361920, Note Name: G3, Velocity: 80
Note OFF: Time 362160, Note Name: G3
Note OFF: Time 362160, Note Name: G2
Note OFF: Time 362160, Note Name: B2
Note OFF: Time 362160, Note Name: D3
Note ON: Time 363360, Note Name: G2, Velocity: 78
Note ON: Time 363360, Note Name: B2, Velocity: 78
Note ON: Time 363360, Note Name: D3, Velocity: 78
Note ON: Time 363360, Note Name: G3, Velocity: 92
Note OFF: Time 363600, Note Name: G3
Note OFF: Time 363600, Note Name: G2
Note OFF: Time 363600, Note Name: B2
Note OFF: Time 363600, Note Name: D3
Note ON: Time 363840, Note Name: G1, Velocity: 85
Note ON: Time 363840, Note Name: G2, Velocity: 101
Note OFF: Time 364080, Note Name: G2
Note OFF: Time 364080, Note Name: G1
Note ON: Time 365294, Note Name: G2, Velocity: 78
Note ON: Time 365294, Note Name: B2, Velocity: 78
Note ON: Time 365294, Note Name: D3, Velocity: 78
Note ON: Time 365294, Note Name: G3, Velocity: 92
Note OFF: Time 365534, Note Name: G3
Note OFF: Time 365534, Note Name: G2
Note OFF: Time 365534, Note Name: B2
Note OFF: Time 365534, Note Name: D3
Note ON: Time 365774, Note Name: G1, Velocity: 85
Note ON: Time 365774, Note Name: G2, Velocity: 101
Note OFF: Time 366014, Note Name: G2
Note OFF: Time 366014, Note Name: G1
Note ON: Time 367214, Note Name: G2, Velocity: 78
Note ON: Time 367214, Note Name: B2, Velocity: 78
Note ON: Time 367214, Note Name: D3, Velocity: 78
Note ON: Time 367214, Note Name: G3, Velocity: 92
Note OFF: Time 367454, Note Name: G3
Note OFF: Time 367454, Note Name: G2
Note OFF: Time 367454, Note Name: B2
Note OFF: Time 367454, Note Name: D3
Note ON: Time 367694, Note Name: G1, Velocity: 85
Note ON: Time 367694, Note Name: G2, Velocity: 101
Note OFF: Time 367934, Note Name: G2
Note OFF: Time 367934, Note Name: G1
Note ON: Time 369134, Note Name: G2, Velocity: 78
Note ON: Time 369134, Note Name: B2, Velocity: 78
Note ON: Time 369134, Note Name: D3, Velocity: 78
Note ON: Time 369134, Note Name: G3, Velocity: 92
Note OFF: Time 369374, Note Name: G3
Note OFF: Time 369374, Note Name: G2
Note OFF: Time 369374, Note Name: B2
Note OFF: Time 369374, Note Name: D3
Note ON: Time 369614, Note Name: G1, Velocity: 76
Note ON: Time 369614, Note Name: G2, Velocity: 90
Note OFF: Time 369854, Note Name: G2
Note OFF: Time 369854, Note Name: G1
Note ON: Time 370560, Note Name: F4, Velocity: 64
Note ON: Time 370560, Note Name: D4, Velocity: 54
Note ON: Time 370560, Note Name: B3, Velocity: 54
Note ON: Time 370560, Note Name: G3, Velocity: 54
Note OFF: Time 370800, Note Name: G3
Note OFF: Time 370800, Note Name: F4
Note OFF: Time 370800, Note Name: D4
Note OFF: Time 370800, Note Name: B3
Note ON: Time 371520, Note Name: F4, Velocity: 58
Note ON: Time 371520, Note Name: D4, Velocity: 49
Note ON: Time 371520, Note Name: B3, Velocity: 49
Note ON: Time 371520, Note Name: G3, Velocity: 49
Note OFF: Time 371760, Note Name: G3
Note OFF: Time 371760, Note Name: F4
Note OFF: Time 371760, Note Name: D4
Note OFF: Time 371760, Note Name: B3
Note ON: Time 372480, Note Name: F4, Velocity: 51
Note ON: Time 372480, Note Name: D4, Velocity: 43
Note ON: Time 372480, Note Name: B3, Velocity: 43
Note ON: Time 372480, Note Name: G3, Velocity: 43
Note OFF: Time 372720, Note Name: G3
Note OFF: Time 372720, Note Name: F4
Note OFF: Time 372720, Note Name: D4
Note OFF: Time 372720, Note Name: B3
Note ON: Time 373440, Note Name: G3, Velocity: 40
Note ON: Time 373440, Note Name: B3, Velocity: 40
Note ON: Time 373440, Note Name: D4, Velocity: 40
Note ON: Time 373440, Note Name: F4, Velocity: 48
Note OFF: Time 373680, Note Name: F4
Note OFF: Time 373680, Note Name: G3
Note OFF: Time 373680, Note Name: B3
Note OFF: Time 373680, Note Name: D4
Note ON: Time 374400, Note Name: G2, Velocity: 32
Note ON: Time 374400, Note Name: B2, Velocity: 32
Note ON: Time 374400, Note Name: D3, Velocity: 32
Note ON: Time 374400, Note Name: F3, Velocity: 38
Note OFF: Time 374640, Note Name: F3
Note OFF: Time 374640, Note Name: G2
Note OFF: Time 374640, Note Name: B2
Note OFF: Time 374640, Note Name: D3
Note ON: Time 375360, Note Name: G2, Velocity: 30
Note ON: Time 375360, Note Name: B2, Velocity: 30
Note ON: Time 375360, Note Name: D3, Velocity: 30
Note ON: Time 375360, Note Name: F3, Velocity: 36
Note OFF: Time 375600, Note Name: F3
Note OFF: Time 375600, Note Name: G2
Note OFF: Time 375600, Note Name: B2
Note OFF: Time 375600, Note Name: D3
Note ON: Time 376320, Note Name: G2, Velocity: 28
Note ON: Time 376320, Note Name: B2, Velocity: 28
Note ON: Time 376320, Note Name: D3, Velocity: 28
Note ON: Time 376320, Note Name: F3, Velocity: 34
Note OFF: Time 376560, Note Name: F3
Note OFF: Time 376560, Note Name: G2
Note OFF: Time 376560, Note Name: B2
Note OFF: Time 376560, Note Name: D3
Note ON: Time 377280, Note Name: G2, Velocity: 21
Note ON: Time 377280, Note Name: B2, Velocity: 21
Note ON: Time 377280, Note Name: D3, Velocity: 21
Note ON: Time 377280, Note Name: F3, Velocity: 25
Note OFF: Time 377520, Note Name: F3
Note OFF: Time 377520, Note Name: G2
Note OFF: Time 377520, Note Name: B2
Note OFF: Time 377520, Note Name: D3
Note ON: Time 379200, Note Name: G2, Velocity: 21
Note ON: Time 379200, Note Name: A#2, Velocity: 21
Note ON: Time 379200, Note Name: C#3, Velocity: 21
Note ON: Time 379200, Note Name: E3, Velocity: 25
Note OFF: Time 379680, Note Name: E3
Note OFF: Time 379680, Note Name: G2
Note OFF: Time 379680, Note Name: A#2
Note OFF: Time 379680, Note Name: C#3
Note ON: Time 381120, Note Name: G2, Velocity: 21
Note ON: Time 381120, Note Name: A2, Velocity: 21
Note ON: Time 381120, Note Name: C3, Velocity: 21
Note ON: Time 381120, Note Name: D#3, Velocity: 25
Note OFF: Time 381600, Note Name: D#3
Note OFF: Time 381600, Note Name: G2
Note OFF: Time 381600, Note Name: A2
Note OFF: Time 381600, Note Name: C3
Note ON: Time 383040, Note Name: G2, Velocity: 25
Note OFF: Time 383280, Note Name: G2
Note ON: Time 384000, Note Name: G5, Velocity: 30
Note OFF: Time 384240, Note Name: G5
Note ON: Time 384480, Note Name: G3, Velocity: 27
Note OFF: Time 384720, Note Name: G3
Note ON: Time 384960, Note Name: G2, Velocity: 25
Note OFF: Time 385200, Note Name: G2
Note ON: Time 385440, Note Name: G1, Velocity: 25
Note OFF: Time 385920, Note Name: G1
Note ON: Time 385920, Note Name: C2, Velocity: 72
Note ON: Time 385920, Note Name: C3, Velocity: 75
Note OFF: Time 386160, Note Name: C3
Note OFF: Time 386160, Note Name: C2
Note ON: Time 386160, Note Name: E4, Velocity: 41
Note OFF: Time 386280, Note Name: E4
Note ON: Time 386280, Note Name: G4, Velocity: 34
Note OFF: Time 386400, Note Name: G4
Note ON: Time 386400, Note Name: E4, Velocity: 41
Note OFF: Time 386520, Note Name: E4
Note ON: Time 386520, Note Name: G4, Velocity: 34
Note OFF: Time 386640, Note Name: G4
Note ON: Time 386640, Note Name: E4, Velocity: 41
Note OFF: Time 386760, Note Name: E4
Note ON: Time 386760, Note Name: G4, Velocity: 33
Note OFF: Time 386880, Note Name: G4
Note ON: Time 386880, Note Name: F4, Velocity: 41
Note OFF: Time 387000, Note Name: F4
Note ON: Time 387000, Note Name: G4, Velocity: 34
Note OFF: Time 387120, Note Name: G4
Note ON: Time 387120, Note Name: F4, Velocity: 41
Note OFF: Time 387240, Note Name: F4
Note ON: Time 387240, Note Name: G4, Velocity: 35
Note OFF: Time 387360, Note Name: G4
Note ON: Time 387360, Note Name: E4, Velocity: 41
Note OFF: Time 387480, Note Name: E4
Note ON: Time 387480, Note Name: G4, Velocity: 34
Note OFF: Time 387600, Note Name: G4
Note ON: Time 387600, Note Name: E4, Velocity: 41
Note OFF: Time 387720, Note Name: E4
Note ON: Time 387720, Note Name: G4, Velocity: 35
Note OFF: Time 387840, Note Name: G4
Note ON: Time 387840, Note Name: E4, Velocity: 41
Note OFF: Time 387960, Note Name: E4
Note ON: Time 387960, Note Name: G4, Velocity: 34
Note OFF: Time 388080, Note Name: G4
Note ON: Time 388080, Note Name: E4, Velocity: 41
Note OFF: Time 388200, Note Name: E4
Note ON: Time 388200, Note Name: G4, Velocity: 34
Note OFF: Time 388320, Note Name: G4
Note ON: Time 388320, Note Name: E4, Velocity: 41
Note OFF: Time 388440, Note Name: E4
Note ON: Time 388440, Note Name: G4, Velocity: 34
Note OFF: Time 388560, Note Name: G4
Note ON: Time 388560, Note Name: E4, Velocity: 41
Note OFF: Time 388680, Note Name: E4
Note ON: Time 388680, Note Name: G4, Velocity: 33
Note OFF: Time 388800, Note Name: G4
Note ON: Time 388800, Note Name: F4, Velocity: 41
Note OFF: Time 388920, Note Name: F4
Note ON: Time 388920, Note Name: G4, Velocity: 34
Note OFF: Time 389040, Note Name: G4
Note ON: Time 389040, Note Name: F4, Velocity: 41
Note OFF: Time 389160, Note Name: F4
Note ON: Time 389160, Note Name: G4, Velocity: 35
Note OFF: Time 389280, Note Name: G4
Note ON: Time 389280, Note Name: E4, Velocity: 41
Note OFF: Time 389400, Note Name: E4
Note ON: Time 389400, Note Name: G4, Velocity: 34
Note OFF: Time 389520, Note Name: G4
Note ON: Time 389520, Note Name: E4, Velocity: 41
Note OFF: Time 389640, Note Name: E4
Note ON: Time 389640, Note Name: G4, Velocity: 35
Note OFF: Time 389760, Note Name: G4
Note ON: Time 389760, Note Name: C4, Velocity: 41
Note ON: Time 389760, Note Name: E4, Velocity: 41
Note OFF: Time 389880, Note Name: E4
Note ON: Time 389880, Note Name: G4, Velocity: 34
Note OFF: Time 390000, Note Name: G4
Note OFF: Time 390000, Note Name: C4
Note ON: Time 390000, Note Name: C4, Velocity: 41
Note ON: Time 390000, Note Name: E4, Velocity: 41
Note OFF: Time 390120, Note Name: E4
Note ON: Time 390120, Note Name: G4, Velocity: 34
Note OFF: Time 390240, Note Name: G4
Note OFF: Time 390240, Note Name: C4
Note ON: Time 390240, Note Name: C4, Velocity: 41
Note ON: Time 390240, Note Name: E4, Velocity: 41
Note OFF: Time 390360, Note Name: E4
Note ON: Time 390360, Note Name: G4, Velocity: 34
Note OFF: Time 390480, Note Name: G4
Note OFF: Time 390480, Note Name: C4
Note ON: Time 390480, Note Name: C4, Velocity: 41
Note ON: Time 390480, Note Name: E4, Velocity: 41
Note OFF: Time 390600, Note Name: E4
Note ON: Time 390600, Note Name: G4, Velocity: 33
Note OFF: Time 390720, Note Name: G4
Note OFF: Time 390720, Note Name: C4
Note ON: Time 390720, Note Name: C4, Velocity: 38
Note ON: Time 390720, Note Name: F4, Velocity: 38
Note OFF: Time 390840, Note Name: F4
Note ON: Time 390840, Note Name: G4, Velocity: 32
Note OFF: Time 390960, Note Name: G4
Note OFF: Time 390960, Note Name: C4
Note ON: Time 390960, Note Name: C4, Velocity: 38
Note ON: Time 390960, Note Name: F4, Velocity: 38
Note OFF: Time 391080, Note Name: F4
Note ON: Time 391080, Note Name: G4, Velocity: 33
Note OFF: Time 391200, Note Name: G4
Note OFF: Time 391200, Note Name: C4
Note ON: Time 391200, Note Name: C4, Velocity: 38
Note ON: Time 391200, Note Name: E4, Velocity: 38
Note OFF: Time 391320, Note Name: E4
Note ON: Time 391320, Note Name: G4, Velocity: 32
Note OFF: Time 391440, Note Name: G4
Note OFF: Time 391440, Note Name: C4
Note ON: Time 391440, Note Name: C4, Velocity: 38
Note ON: Time 391440, Note Name: E4, Velocity: 38
Note OFF: Time 391560, Note Name: E4
Note ON: Time 391560, Note Name: G4, Velocity: 33
Note OFF: Time 391680, Note Name: G4
Note OFF: Time 391680, Note Name: C4
Note ON: Time 391680, Note Name: C4, Velocity: 41
Note ON: Time 391680, Note Name: E4, Velocity: 41
Note OFF: Time 391800, Note Name: E4
Note ON: Time 391800, Note Name: G4, Velocity: 34
Note OFF: Time 391920, Note Name: G4
Note OFF: Time 391920, Note Name: C4
Note ON: Time 391920, Note Name: C4, Velocity: 41
Note ON: Time 391920, Note Name: E4, Velocity: 41
Note OFF: Time 392040, Note Name: E4
Note ON: Time 392040, Note Name: G4, Velocity: 34
Note OFF: Time 392160, Note Name: G4
Note OFF: Time 392160, Note Name: C4
Note ON: Time 392160, Note Name: C4, Velocity: 41
Note ON: Time 392160, Note Name: E4, Velocity: 41
Note OFF: Time 392280, Note Name: E4
Note ON: Time 392280, Note Name: G4, Velocity: 34
Note OFF: Time 392400, Note Name: G4
Note OFF: Time 392400, Note Name: C4
Note ON: Time 392400, Note Name: C4, Velocity: 41
Note ON: Time 392400, Note Name: E4, Velocity: 41
Note OFF: Time 392520, Note Name: E4
Note ON: Time 392520, Note Name: G4, Velocity: 33
Note OFF: Time 392640, Note Name: G4
Note OFF: Time 392640, Note Name: C4
Note ON: Time 392640, Note Name: C4, Velocity: 38
Note ON: Time 392640, Note Name: F4, Velocity: 38
Note OFF: Time 392760, Note Name: F4
Note ON: Time 392760, Note Name: G4, Velocity: 32
Note OFF: Time 392880, Note Name: G4
Note OFF: Time 392880, Note Name: C4
Note ON: Time 392880, Note Name: C4, Velocity: 38
Note ON: Time 392880, Note Name: F4, Velocity: 38
Note OFF: Time 393000, Note Name: F4
Note ON: Time 393000, Note Name: G4, Velocity: 33
Note OFF: Time 393120, Note Name: G4
Note OFF: Time 393120, Note Name: C4
Note ON: Time 393120, Note Name: C4, Velocity: 38
Note ON: Time 393120, Note Name: E4, Velocity: 38
Note OFF: Time 393240, Note Name: E4
Note ON: Time 393240, Note Name: G4, Velocity: 32
Note OFF: Time 393360, Note Name: G4
Note OFF: Time 393360, Note Name: C4
Note ON: Time 393360, Note Name: C4, Velocity: 38
Note ON: Time 393360, Note Name: E4, Velocity: 38
Note OFF: Time 393480, Note Name: E4
Note ON: Time 393480, Note Name: G4, Velocity: 33
Note OFF: Time 393600, Note Name: G4
Note OFF: Time 393600, Note Name: C4
Note ON: Time 393600, Note Name: C4, Velocity: 48
Note ON: Time 393600, Note Name: F4, Velocity: 48
Note OFF: Time 393720, Note Name: F4
Note ON: Time 393720, Note Name: G4, Velocity: 43
Note OFF: Time 393840, Note Name: G4
Note OFF: Time 393840, Note Name: C4
Note ON: Time 393840, Note Name: C4, Velocity: 54
Note ON: Time 393840, Note Name: F4, Velocity: 54
Note OFF: Time 393960, Note Name: F4
Note ON: Time 393960, Note Name: G4, Velocity: 47
Note OFF: Time 394080, Note Name: G4
Note OFF: Time 394080, Note Name: C4
Note ON: Time 394080, Note Name: E4, Velocity: 60
Note ON: Time 394200, Note Name: D#4, Velocity: 53
Note OFF: Time 394210, Note Name: E4
Note ON: Time 394320, Note Name: E4, Velocity: 53
Note OFF: Time 394330, Note Name: D#4
Note ON: Time 394440, Note Name: C4, Velocity: 54
Note OFF: Time 394450, Note Name: E4
Note OFF: Time 394560, Note Name: C4
Note ON: Time 394560, Note Name: D4, Velocity: 61
Note ON: Time 394680, Note Name: C#4, Velocity: 54
Note OFF: Time 394690, Note Name: D4
Note ON: Time 394800, Note Name: D4, Velocity: 54
Note OFF: Time 394810, Note Name: C#4
Note ON: Time 394920, Note Name: B3, Velocity: 54
Note OFF: Time 394930, Note Name: D4
Note OFF: Time 395040, Note Name: B3
Note ON: Time 395040, Note Name: C4, Velocity: 61
Note ON: Time 395160, Note Name: B3, Velocity: 54
Note OFF: Time 395170, Note Name: C4
Note ON: Time 395280, Note Name: C4, Velocity: 54
Note OFF: Time 395290, Note Name: B3
Note ON: Time 395400, Note Name: A3, Velocity: 54
Note OFF: Time 395410, Note Name: C4
Note OFF: Time 395520, Note Name: A3
Note ON: Time 395520, Note Name: B3, Velocity: 60
Note ON: Time 395640, Note Name: A#3, Velocity: 54
Note OFF: Time 395650, Note Name: B3
Note ON: Time 395760, Note Name: B3, Velocity: 54
Note OFF: Time 395770, Note Name: A#3
Note ON: Time 395880, Note Name: G3, Velocity: 54
Note OFF: Time 395890, Note Name: B3
Note OFF: Time 396000, Note Name: G3
Note ON: Time 396000, Note Name: A3, Velocity: 60
Note ON: Time 396120, Note Name: G#3, Velocity: 54
Note OFF: Time 396130, Note Name: A3
Note ON: Time 396240, Note Name: A3, Velocity: 54
Note OFF: Time 396250, Note Name: G#3
Note ON: Time 396360, Note Name: F3, Velocity: 54
Note OFF: Time 396370, Note Name: A3
Note OFF: Time 396480, Note Name: F3
Note ON: Time 396480, Note Name: G3, Velocity: 60
Note ON: Time 396600, Note Name: F#3, Velocity: 54
Note OFF: Time 396610, Note Name: G3
Note ON: Time 396720, Note Name: G3, Velocity: 54
Note OFF: Time 396730, Note Name: F#3
Note ON: Time 396840, Note Name: E3, Velocity: 54
Note OFF: Time 396850, Note Name: G3
Note OFF: Time 396960, Note Name: E3
Note ON: Time 396960, Note Name: F3, Velocity: 61
Note ON: Time 397080, Note Name: E3, Velocity: 54
Note OFF: Time 397090, Note Name: F3
Note ON: Time 397200, Note Name: F3, Velocity: 54
Note OFF: Time 397210, Note Name: E3
Note ON: Time 397320, Note Name: D3, Velocity: 54
Note OFF: Time 397330, Note Name: F3
Note OFF: Time 397440, Note Name: D3
Note ON: Time 397440, Note Name: E3, Velocity: 62
Note ON: Time 397560, Note Name: D#3, Velocity: 54
Note OFF: Time 397570, Note Name: E3
Note ON: Time 397680, Note Name: E3, Velocity: 54
Note OFF: Time 397690, Note Name: D#3
Note ON: Time 397800, Note Name: C3, Velocity: 54
Note OFF: Time 397810, Note Name: E3
Note OFF: Time 397920, Note Name: C3
Note ON: Time 397920, Note Name: C4, Velocity: 61
Note ON: Time 398040, Note Name: B3, Velocity: 54
Note OFF: Time 398050, Note Name: C4
Note ON: Time 398160, Note Name: C4, Velocity: 54
Note OFF: Time 398170, Note Name: B3
Note ON: Time 398280, Note Name: E4, Velocity: 54
Note OFF: Time 398290, Note Name: C4
Note OFF: Time 398400, Note Name: E4
Note ON: Time 398400, Note Name: B3, Velocity: 61
Note ON: Time 398520, Note Name: A#3, Velocity: 54
Note OFF: Time 398530, Note Name: B3
Note ON: Time 398640, Note Name: B3, Velocity: 54
Note OFF: Time 398650, Note Name: A#3
Note ON: Time 398760, Note Name: D4, Velocity: 54
Note OFF: Time 398770, Note Name: B3
Note OFF: Time 398880, Note Name: D4
Note ON: Time 398880, Note Name: A3, Velocity: 61
Note ON: Time 399000, Note Name: G#3, Velocity: 54
Note OFF: Time 399010, Note Name: A3
Note ON: Time 399120, Note Name: A3, Velocity: 54
Note OFF: Time 399130, Note Name: G#3
Note ON: Time 399240, Note Name: C4, Velocity: 54
Note OFF: Time 399250, Note Name: A3
Note OFF: Time 399360, Note Name: C4
Note ON: Time 399360, Note Name: G3, Velocity: 60
Note ON: Time 399480, Note Name: F#3, Velocity: 54
Note OFF: Time 399490, Note Name: G3
Note ON: Time 399600, Note Name: G3, Velocity: 54
Note OFF: Time 399610, Note Name: F#3
Note ON: Time 399720, Note Name: B3, Velocity: 54
Note OFF: Time 399730, Note Name: G3
Note OFF: Time 399840, Note Name: B3
Note ON: Time 399840, Note Name: F3, Velocity: 61
Note ON: Time 399960, Note Name: E3, Velocity: 54
Note OFF: Time 399970, Note Name: F3
Note ON: Time 400080, Note Name: F3, Velocity: 54
Note OFF: Time 400090, Note Name: E3
Note ON: Time 400200, Note Name: A3, Velocity: 54
Note OFF: Time 400210, Note Name: F3
Note OFF: Time 400320, Note Name: A3
Note ON: Time 400320, Note Name: E3, Velocity: 62
Note ON: Time 400440, Note Name: D#3, Velocity: 54
Note OFF: Time 400450, Note Name: E3
Note ON: Time 400560, Note Name: E3, Velocity: 54
Note OFF: Time 400570, Note Name: D#3
Note ON: Time 400680, Note Name: G3, Velocity: 54
Note OFF: Time 400690, Note Name: E3
Note OFF: Time 400800, Note Name: G3
Note ON: Time 400800, Note Name: D3, Velocity: 60
Note ON: Time 400920, Note Name: C#3, Velocity: 54
Note OFF: Time 400930, Note Name: D3
Note ON: Time 401040, Note Name: D3, Velocity: 54
Note OFF: Time 401050, Note Name: C#3
Note ON: Time 401160, Note Name: F3, Velocity: 53
Note OFF: Time 401170, Note Name: D3
Note OFF: Time 401280, Note Name: F3
Note ON: Time 401280, Note Name: C3, Velocity: 84
Note OFF: Time 401520, Note Name: C3
Note ON: Time 401640, Note Name: C3, Velocity: 72
Note OFF: Time 401760, Note Name: C3
Note ON: Time 401760, Note Name: G2, Velocity: 84
Note OFF: Time 402000, Note Name: G2
Note ON: Time 402120, Note Name: G2, Velocity: 72
Note OFF: Time 402240, Note Name: G2
Note ON: Time 402240, Note Name: D3, Velocity: 84
Note OFF: Time 402480, Note Name: D3
Note ON: Time 402600, Note Name: D3, Velocity: 72
Note OFF: Time 402720, Note Name: D3
Note ON: Time 402720, Note Name: A2, Velocity: 84
Note OFF: Time 402960, Note Name: A2
Note ON: Time 403080, Note Name: A2, Velocity: 72
Note OFF: Time 403200, Note Name: A2
Note ON: Time 403200, Note Name: F3, Velocity: 84
Note OFF: Time 403440, Note Name: F3
Note ON: Time 403560, Note Name: F3, Velocity: 73
Note OFF: Time 403680, Note Name: F3
Note ON: Time 403680, Note Name: C3, Velocity: 84
Note OFF: Time 403920, Note Name: C3
Note ON: Time 404040, Note Name: C3, Velocity: 74
Note OFF: Time 404160, Note Name: C3
Note ON: Time 404160, Note Name: G3, Velocity: 84
Note OFF: Time 404400, Note Name: G3
Note ON: Time 404520, Note Name: G3, Velocity: 73
Note OFF: Time 404640, Note Name: G3
Note ON: Time 404640, Note Name: G2, Velocity: 84
Note OFF: Time 404880, Note Name: G2
Note ON: Time 405000, Note Name: G2, Velocity: 74
Note OFF: Time 405120, Note Name: G2
Note ON: Time 405120, Note Name: C3, Velocity: 84
Note OFF: Time 405360, Note Name: C3
Note ON: Time 405480, Note Name: C4, Velocity: 73
Note OFF: Time 405600, Note Name: C4
Note ON: Time 405600, Note Name: G3, Velocity: 84
Note OFF: Time 405840, Note Name: G3
Note ON: Time 405960, Note Name: G3, Velocity: 73
Note OFF: Time 406080, Note Name: G3
Note ON: Time 406080, Note Name: D3, Velocity: 84
Note OFF: Time 406320, Note Name: D3
Note ON: Time 406440, Note Name: D4, Velocity: 72
Note OFF: Time 406560, Note Name: D4
Note ON: Time 406560, Note Name: A3, Velocity: 84
Note OFF: Time 406800, Note Name: A3
Note ON: Time 406920, Note Name: A3, Velocity: 72
Note OFF: Time 407040, Note Name: A3
Note ON: Time 407040, Note Name: F3, Velocity: 84
Note OFF: Time 407280, Note Name: F3
Note ON: Time 407400, Note Name: F4, Velocity: 73
Note OFF: Time 407520, Note Name: F4
Note ON: Time 407520, Note Name: F3, Velocity: 84
Note OFF: Time 407760, Note Name: F3
Note ON: Time 407880, Note Name: F4, Velocity: 73
Note OFF: Time 408000, Note Name: F4
Note ON: Time 408000, Note Name: F3, Velocity: 83
Note OFF: Time 408240, Note Name: F3
Note ON: Time 408360, Note Name: F4, Velocity: 72
Note OFF: Time 408480, Note Name: F4
Note ON: Time 408480, Note Name: F3, Velocity: 82
Note OFF: Time 408720, Note Name: F3
Note ON: Time 408840, Note Name: F3, Velocity: 72
Note OFF: Time 408960, Note Name: F3
Note ON: Time 408960, Note Name: F2, Velocity: 82
Note OFF: Time 409200, Note Name: F2
Note ON: Time 409200, Note Name: A3, Velocity: 41
Note OFF: Time 409320, Note Name: A3
Note ON: Time 409320, Note Name: C4, Velocity: 34
Note OFF: Time 409440, Note Name: C4
Note ON: Time 409440, Note Name: A3, Velocity: 41
Note OFF: Time 409560, Note Name: A3
Note ON: Time 409560, Note Name: C4, Velocity: 34
Note OFF: Time 409680, Note Name: C4
Note ON: Time 409680, Note Name: A3, Velocity: 41
Note OFF: Time 409800, Note Name: A3
Note ON: Time 409800, Note Name: C4, Velocity: 33
Note OFF: Time 409920, Note Name: C4
Note ON: Time 409920, Note Name: A#3, Velocity: 41
Note OFF: Time 410040, Note Name: A#3
Note ON: Time 410040, Note Name: C4, Velocity: 34
Note OFF: Time 410160, Note Name: C4
Note ON: Time 410160, Note Name: A#3, Velocity: 41
Note OFF: Time 410280, Note Name: A#3
Note ON: Time 410280, Note Name: C4, Velocity: 35
Note OFF: Time 410400, Note Name: C4
Note ON: Time 410400, Note Name: A3, Velocity: 41
Note OFF: Time 410520, Note Name: A3
Note ON: Time 410520, Note Name: C4, Velocity: 34
Note OFF: Time 410640, Note Name: C4
Note ON: Time 410640, Note Name: A3, Velocity: 41
Note OFF: Time 410760, Note Name: A3
Note ON: Time 410760, Note Name: C4, Velocity: 35
Note OFF: Time 410880, Note Name: C4
Note ON: Time 410880, Note Name: A3, Velocity: 41
Note OFF: Time 411000, Note Name: A3
Note ON: Time 411000, Note Name: C4, Velocity: 34
Note OFF: Time 411120, Note Name: C4
Note ON: Time 411120, Note Name: A3, Velocity: 41
Note OFF: Time 411240, Note Name: A3
Note ON: Time 411240, Note Name: C4, Velocity: 34
Note OFF: Time 411360, Note Name: C4
Note ON: Time 411360, Note Name: A3, Velocity: 41
Note OFF: Time 411480, Note Name: A3
Note ON: Time 411480, Note Name: C4, Velocity: 34
Note OFF: Time 411600, Note Name: C4
Note ON: Time 411600, Note Name: A3, Velocity: 41
Note OFF: Time 411720, Note Name: A3
Note ON: Time 411720, Note Name: C4, Velocity: 33
Note OFF: Time 411840, Note Name: C4
Note ON: Time 411840, Note Name: A#3, Velocity: 38
Note OFF: Time 411960, Note Name: A#3
Note ON: Time 411960, Note Name: C4, Velocity: 32
Note OFF: Time 412080, Note Name: C4
Note ON: Time 412080, Note Name: A#3, Velocity: 38
Note OFF: Time 412200, Note Name: A#3
Note ON: Time 412200, Note Name: C4, Velocity: 33
Note OFF: Time 412320, Note Name: C4
Note ON: Time 412320, Note Name: A3, Velocity: 38
Note OFF: Time 412440, Note Name: A3
Note ON: Time 412440, Note Name: C4, Velocity: 32
Note OFF: Time 412560, Note Name: C4
Note ON: Time 412560, Note Name: A3, Velocity: 38
Note OFF: Time 412680, Note Name: A3
Note ON: Time 412680, Note Name: C4, Velocity: 33
Note OFF: Time 412800, Note Name: C4
Note ON: Time 412800, Note Name: G2, Velocity: 85
Note OFF: Time 413040, Note Name: G2
Note ON: Time 413040, Note Name: B3, Velocity: 42
Note OFF: Time 413280, Note Name: B3
Note ON: Time 413280, Note Name: D4, Velocity: 43
Note OFF: Time 413520, Note Name: D4
Note ON: Time 413520, Note Name: B3, Velocity: 39
Note OFF: Time 413760, Note Name: B3
Note ON: Time 413760, Note Name: C4, Velocity: 43
Note OFF: Time 414000, Note Name: C4
Note ON: Time 414000, Note Name: E4, Velocity: 42
Note OFF: Time 414240, Note Name: E4
Note ON: Time 414240, Note Name: D4, Velocity: 42
Note OFF: Time 414480, Note Name: D4
Note ON: Time 414480, Note Name: B3, Velocity: 39
Note OFF: Time 414720, Note Name: B3
Note ON: Time 414720, Note Name: G3, Velocity: 46
Note OFF: Time 414960, Note Name: G3
Note ON: Time 414960, Note Name: B3, Velocity: 42
Note OFF: Time 415200, Note Name: B3
Note ON: Time 415200, Note Name: D4, Velocity: 43
Note OFF: Time 415440, Note Name: D4
Note ON: Time 415440, Note Name: B3, Velocity: 39
Note OFF: Time 415680, Note Name: B3
Note ON: Time 415680, Note Name: C4, Velocity: 43
Note ON: Time 415920, Note Name: E4, Velocity: 42
Note OFF: Time 415930, Note Name: C4
Note ON: Time 416160, Note Name: D4, Velocity: 42
Note OFF: Time 416170, Note Name: E4
Note ON: Time 416400, Note Name: B3, Velocity: 39
Note OFF: Time 416410, Note Name: D4
Note OFF: Time 416640, Note Name: B3
Note ON: Time 416640, Note Name: A3, Velocity: 43
Note ON: Time 416880, Note Name: C4, Velocity: 42
Note OFF: Time 416890, Note Name: A3
Note ON: Time 417120, Note Name: B3, Velocity: 42
Note OFF: Time 417130, Note Name: C4
Note ON: Time 417360, Note Name: G3, Velocity: 39
Note OFF: Time 417370, Note Name: B3
Note OFF: Time 417600, Note Name: G3
Note ON: Time 417600, Note Name: F3, Velocity: 43
Note ON: Time 417840, Note Name: A3, Velocity: 42
Note OFF: Time 417850, Note Name: F3
Note ON: Time 418080, Note Name: G3, Velocity: 42
Note OFF: Time 418090, Note Name: A3
Note ON: Time 418320, Note Name: E3, Velocity: 39
Note OFF: Time 418330, Note Name: G3
Note OFF: Time 418560, Note Name: E3
Note ON: Time 418560, Note Name: D3, Velocity: 44
Note ON: Time 418800, Note Name: F3, Velocity: 43
Note OFF: Time 418810, Note Name: D3
Note ON: Time 419040, Note Name: C3, Velocity: 44
Note OFF: Time 419050, Note Name: F3
Note ON: Time 419280, Note Name: E3, Velocity: 41
Note OFF: Time 419290, Note Name: C3
Note OFF: Time 419520, Note Name: E3
Note ON: Time 419520, Note Name: B2, Velocity: 46
Note ON: Time 419760, Note Name: D3, Velocity: 44
Note OFF: Time 419770, Note Name: B2
Note ON: Time 420000, Note Name: A2, Velocity: 44
Note OFF: Time 420010, Note Name: D3
Note ON: Time 420240, Note Name: C3, Velocity: 42
Note OFF: Time 420250, Note Name: A2
Note OFF: Time 420480, Note Name: C3
Note ON: Time 420480, Note Name: G2, Velocity: 47
Note ON: Time 420720, Note Name: B2, Velocity: 46
Note OFF: Time 420730, Note Name: G2
Note ON: Time 420960, Note Name: F2, Velocity: 47
Note OFF: Time 420970, Note Name: B2
Note ON: Time 421200, Note Name: A2, Velocity: 42
Note OFF: Time 421210, Note Name: F2
Note OFF: Time 421440, Note Name: A2
Note ON: Time 421440, Note Name: E2, Velocity: 48
Note ON: Time 421680, Note Name: G2, Velocity: 47
Note OFF: Time 421690, Note Name: E2
Note ON: Time 421920, Note Name: G1, Velocity: 47
Note ON: Time 421920, Note Name: D2, Velocity: 47
Note OFF: Time 421930, Note Name: G2
Note ON: Time 422160, Note Name: G2, Velocity: 43
Note OFF: Time 422170, Note Name: D2
Note OFF: Time 422170, Note Name: G1
Note OFF: Time 422400, Note Name: G2
Note ON: Time 422400, Note Name: G#1, Velocity: 79
Note ON: Time 422400, Note Name: G#2, Velocity: 94
Note OFF: Time 422640, Note Name: G#2
Note OFF: Time 422640, Note Name: G#1
Note ON: Time 422880, Note Name: D#4, Velocity: 98
Note ON: Time 422880, Note Name: C4, Velocity: 89
Note ON: Time 422880, Note Name: G#3, Velocity: 82
Note OFF: Time 423000, Note Name: G#3
Note OFF: Time 423000, Note Name: C4
Note OFF: Time 423000, Note Name: D#4
Note ON: Time 423360, Note Name: D#4, Velocity: 98
Note ON: Time 423360, Note Name: C4, Velocity: 89
Note ON: Time 423360, Note Name: G#3, Velocity: 82
Note OFF: Time 424320, Note Name: G#3
Note OFF: Time 424320, Note Name: C4
Note OFF: Time 424320, Note Name: D#4
Note ON: Time 424320, Note Name: D#2, Velocity: 47
Note OFF: Time 424560, Note Name: D#2
Note ON: Time 424800, Note Name: C#4, Velocity: 40
Note ON: Time 424800, Note Name: A#3, Velocity: 34
Note ON: Time 424800, Note Name: G3, Velocity: 34
Note ON: Time 424800, Note Name: D#3, Velocity: 34
Note OFF: Time 425040, Note Name: D#3
Note OFF: Time 425040, Note Name: C#4
Note OFF: Time 425040, Note Name: A#3
Note OFF: Time 425040, Note Name: G3
Note ON: Time 425280, Note Name: E2, Velocity: 47
Note OFF: Time 425520, Note Name: E2
Note ON: Time 425760, Note Name: C#4, Velocity: 40
Note ON: Time 425760, Note Name: A#3, Velocity: 34
Note ON: Time 425760, Note Name: G3, Velocity: 34
Note ON: Time 425760, Note Name: E3, Velocity: 34
Note OFF: Time 426000, Note Name: E3
Note OFF: Time 426000, Note Name: C#4
Note OFF: Time 426000, Note Name: A#3
Note OFF: Time 426000, Note Name: G3
Note ON: Time 426240, Note Name: F2, Velocity: 94
Note OFF: Time 426480, Note Name: F2
Note ON: Time 426720, Note Name: C4, Velocity: 98
Note ON: Time 426720, Note Name: G#3, Velocity: 89
Note ON: Time 426720, Note Name: F3, Velocity: 82
Note OFF: Time 426840, Note Name: F3
Note OFF: Time 426840, Note Name: G#3
Note OFF: Time 426840, Note Name: C4
Note ON: Time 427200, Note Name: C4, Velocity: 98
Note ON: Time 427200, Note Name: G#3, Velocity: 89
Note ON: Time 427200, Note Name: F3, Velocity: 82
Note OFF: Time 428160, Note Name: F3
Note OFF: Time 428160, Note Name: G#3
Note OFF: Time 428160, Note Name: C4
Note ON: Time 428160, Note Name: C2, Velocity: 47
Note OFF: Time 428400, Note Name: C2
Note ON: Time 428640, Note Name: A#3, Velocity: 40
Note ON: Time 428640, Note Name: G3, Velocity: 34
Note ON: Time 428640, Note Name: E3, Velocity: 34
Note ON: Time 428640, Note Name: C3, Velocity: 34
Note OFF: Time 428880, Note Name: C3
Note OFF: Time 428880, Note Name: A#3
Note OFF: Time 428880, Note Name: G3
Note OFF: Time 428880, Note Name: E3
Note ON: Time 429120, Note Name: C2, Velocity: 47
Note OFF: Time 429360, Note Name: C2
Note ON: Time 429600, Note Name: A#3, Velocity: 40
Note ON: Time 429600, Note Name: G3, Velocity: 34
Note ON: Time 429600, Note Name: E3, Velocity: 34
Note ON: Time 429600, Note Name: C3, Velocity: 34
Note OFF: Time 429840, Note Name: C3
Note OFF: Time 429840, Note Name: A#3
Note OFF: Time 429840, Note Name: G3
Note OFF: Time 429840, Note Name: E3
Note ON: Time 430080, Note Name: C#2, Velocity: 94
Note OFF: Time 430320, Note Name: C#2
Note ON: Time 430560, Note Name: G#3, Velocity: 88
Note ON: Time 430560, Note Name: F3, Velocity: 80
Note ON: Time 430560, Note Name: C#3, Velocity: 73
Note OFF: Time 430680, Note Name: C#3
Note OFF: Time 430680, Note Name: F3
Note OFF: Time 430680, Note Name: G#3
Note ON: Time 431040, Note Name: G#3, Velocity: 88
Note ON: Time 431040, Note Name: F3, Velocity: 80
Note ON: Time 431040, Note Name: C#3, Velocity: 73
Note OFF: Time 432000, Note Name: C#3
Note OFF: Time 432000, Note Name: F3
Note OFF: Time 432000, Note Name: G#3
Note ON: Time 432000, Note Name: G#1, Velocity: 47
Note OFF: Time 432240, Note Name: G#1
Note ON: Time 432480, Note Name: F#3, Velocity: 40
Note ON: Time 432480, Note Name: D#3, Velocity: 34
Note ON: Time 432480, Note Name: C3, Velocity: 34
Note ON: Time 432480, Note Name: G#2, Velocity: 34
Note OFF: Time 432720, Note Name: G#2
Note OFF: Time 432720, Note Name: F#3
Note OFF: Time 432720, Note Name: D#3
Note OFF: Time 432720, Note Name: C3
Note ON: Time 432960, Note Name: A1, Velocity: 47
Note OFF: Time 433200, Note Name: A1
Note ON: Time 433440, Note Name: F#3, Velocity: 40
Note ON: Time 433440, Note Name: D#3, Velocity: 34
Note ON: Time 433440, Note Name: C3, Velocity: 34
Note ON: Time 433440, Note Name: A2, Velocity: 34
Note OFF: Time 433680, Note Name: A2
Note OFF: Time 433680, Note Name: F#3
Note OFF: Time 433680, Note Name: D#3
Note OFF: Time 433680, Note Name: C3
Note ON: Time 433920, Note Name: A#1, Velocity: 58
Note OFF: Time 434080, Note Name: A#1
Note ON: Time 434400, Note Name: F3, Velocity: 32
Note ON: Time 434400, Note Name: C#3, Velocity: 27
Note ON: Time 434400, Note Name: A#2, Velocity: 27
Note OFF: Time 434640, Note Name: A#2
Note OFF: Time 434640, Note Name: C#3
Note OFF: Time 434640, Note Name: F3
Note ON: Time 434880, Note Name: A#2, Velocity: 27
Note ON: Time 434880, Note Name: C#3, Velocity: 27
Note ON: Time 434880, Note Name: F3, Velocity: 32
Note OFF: Time 435840, Note Name: F3
Note OFF: Time 435840, Note Name: C#3
Note OFF: Time 435840, Note Name: A#2
Note ON: Time 435840, Note Name: G#1, Velocity: 58
Note OFF: Time 436000, Note Name: G#1
Note ON: Time 436320, Note Name: F3, Velocity: 32
Note ON: Time 436320, Note Name: C3, Velocity: 27
Note ON: Time 436320, Note Name: G#2, Velocity: 27
Note OFF: Time 436560, Note Name: G#2
Note OFF: Time 436560, Note Name: C3
Note OFF: Time 436560, Note Name: F3
Note ON: Time 436800, Note Name: G#2, Velocity: 27
Note ON: Time 436800, Note Name: C3, Velocity: 27
Note ON: Time 436800, Note Name: F3, Velocity: 32
Note OFF: Time 437760, Note Name: F3
Note OFF: Time 437760, Note Name: C3
Note OFF: Time 437760, Note Name: G#2
Note ON: Time 437760, Note Name: G1, Velocity: 58
Note OFF: Time 437920, Note Name: G1
Note ON: Time 438240, Note Name: G2, Velocity: 27
Note ON: Time 438240, Note Name: F3, Velocity: 32
Note ON: Time 438240, Note Name: D3, Velocity: 27
Note ON: Time 438240, Note Name: B2, Velocity: 27
Note OFF: Time 438480, Note Name: B2
Note OFF: Time 438480, Note Name: G2
Note OFF: Time 438480, Note Name: F3
Note OFF: Time 438480, Note Name: D3
Note ON: Time 438720, Note Name: G2, Velocity: 27
Note ON: Time 438720, Note Name: B2, Velocity: 27
Note ON: Time 438720, Note Name: D3, Velocity: 27
Note ON: Time 438720, Note Name: F3, Velocity: 32
Note OFF: Time 439680, Note Name: F3
Note OFF: Time 439680, Note Name: G2
Note OFF: Time 439680, Note Name: B2
Note OFF: Time 439680, Note Name: D3
Note ON: Time 439680, Note Name: G#1, Velocity: 58
Note OFF: Time 439840, Note Name: G#1
Note ON: Time 440160, Note Name: D#3, Velocity: 32
Note ON: Time 440160, Note Name: C3, Velocity: 27
Note ON: Time 440160, Note Name: G#2, Velocity: 27
Note OFF: Time 440400, Note Name: G#2
Note OFF: Time 440400, Note Name: C3
Note OFF: Time 440400, Note Name: D#3
Note ON: Time 440640, Note Name: G#2, Velocity: 27
Note ON: Time 440640, Note Name: C3, Velocity: 27
Note ON: Time 440640, Note Name: D#3, Velocity: 32
Note OFF: Time 441600, Note Name: D#3
Note OFF: Time 441600, Note Name: C3
Note OFF: Time 441600, Note Name: G#2
Note ON: Time 441600, Note Name: A1, Velocity: 41
Note OFF: Time 441760, Note Name: A1
Note ON: Time 441760, Note Name: C2, Velocity: 37
Note OFF: Time 441920, Note Name: C2
Note ON: Time 441920, Note Name: D#2, Velocity: 37
Note OFF: Time 442080, Note Name: D#2
Note ON: Time 442080, Note Name: F#2, Velocity: 41
Note OFF: Time 442240, Note Name: F#2
Note ON: Time 442240, Note Name: A2, Velocity: 37
Note OFF: Time 442400, Note Name: A2
Note ON: Time 442400, Note Name: C3, Velocity: 37
Note OFF: Time 442560, Note Name: C3
Note ON: Time 442560, Note Name: D#3, Velocity: 41
Note OFF: Time 442720, Note Name: D#3
Note ON: Time 442720, Note Name: F#3, Velocity: 38
Note OFF: Time 442880, Note Name: F#3
Note ON: Time 442880, Note Name: A3, Velocity: 39
Note OFF: Time 443040, Note Name: A3
Note ON: Time 445440, Note Name: G1, Velocity: 41
Note ON: Time 445440, Note Name: C2, Velocity: 41
Note ON: Time 445440, Note Name: E2, Velocity: 41
Note ON: Time 445440, Note Name: G2, Velocity: 41
Note OFF: Time 445680, Note Name: G2
Note OFF: Time 445680, Note Name: G1
Note OFF: Time 445680, Note Name: C2
Note OFF: Time 445680, Note Name: E2
Note ON: Time 447480, Note Name: G1, Velocity: 29
Note ON: Time 447480, Note Name: G2, Velocity: 35
Note ON: Time 447600, Note Name: A1, Velocity: 29
Note ON: Time 447600, Note Name: A2, Velocity: 35
Note OFF: Time 447610, Note Name: G2
Note OFF: Time 447610, Note Name: G1
Note ON: Time 447720, Note Name: B1, Velocity: 30
Note ON: Time 447720, Note Name: B2, Velocity: 36
Note OFF: Time 447730, Note Name: A1
Note OFF: Time 447730, Note Name: A2
Note ON: Time 447840, Note Name: C2, Velocity: 31
Note ON: Time 447840, Note Name: C3, Velocity: 37
Note OFF: Time 447850, Note Name: B1
Note OFF: Time 447850, Note Name: B2
Note ON: Time 447960, Note Name: D2, Velocity: 31
Note ON: Time 447960, Note Name: D3, Velocity: 37
Note OFF: Time 447970, Note Name: C2
Note OFF: Time 447970, Note Name: C3
Note ON: Time 448080, Note Name: E2, Velocity: 32
Note ON: Time 448080, Note Name: E3, Velocity: 38
Note OFF: Time 448090, Note Name: D2
Note OFF: Time 448090, Note Name: D3
Note ON: Time 448200, Note Name: F2, Velocity: 32
Note ON: Time 448200, Note Name: F3, Velocity: 38
Note OFF: Time 448210, Note Name: E2
Note OFF: Time 448210, Note Name: E3
Note ON: Time 448320, Note Name: G2, Velocity: 33
Note ON: Time 448320, Note Name: G3, Velocity: 39
Note OFF: Time 448330, Note Name: F2
Note OFF: Time 448330, Note Name: F3
Note OFF: Time 448560, Note Name: G2
Note OFF: Time 448560, Note Name: G3
Note ON: Time 448560, Note Name: A2, Velocity: 31
Note ON: Time 448560, Note Name: A3, Velocity: 37
Note ON: Time 448680, Note Name: B2, Velocity: 32
Note ON: Time 448680, Note Name: B3, Velocity: 38
Note OFF: Time 448690, Note Name: A3
Note OFF: Time 448690, Note Name: A2
Note ON: Time 448800, Note Name: C3, Velocity: 33
Note ON: Time 448800, Note Name: C4, Velocity: 39
Note OFF: Time 448810, Note Name: B2
Note OFF: Time 448810, Note Name: B3
Note ON: Time 448920, Note Name: D3, Velocity: 34
Note ON: Time 448920, Note Name: D4, Velocity: 40
Note OFF: Time 448930, Note Name: C3
Note OFF: Time 448930, Note Name: C4
Note ON: Time 449040, Note Name: E3, Velocity: 35
Note ON: Time 449040, Note Name: E4, Velocity: 42
Note OFF: Time 449050, Note Name: D3
Note OFF: Time 449050, Note Name: D4
Note ON: Time 449160, Note Name: F3, Velocity: 36
Note ON: Time 449160, Note Name: F4, Velocity: 43
Note OFF: Time 449170, Note Name: E3
Note OFF: Time 449170, Note Name: E4
Note ON: Time 449280, Note Name: G3, Velocity: 37
Note ON: Time 449280, Note Name: G4, Velocity: 44
Note OFF: Time 449290, Note Name: F3
Note OFF: Time 449290, Note Name: F4
Note OFF: Time 449520, Note Name: G3
Note OFF: Time 449520, Note Name: G4
Note ON: Time 451320, Note Name: G1, Velocity: 29
Note ON: Time 451320, Note Name: G2, Velocity: 35
Note ON: Time 451440, Note Name: A1, Velocity: 29
Note ON: Time 451440, Note Name: A2, Velocity: 35
Note OFF: Time 451450, Note Name: G2
Note OFF: Time 451450, Note Name: G1
Note ON: Time 451560, Note Name: B1, Velocity: 30
Note ON: Time 451560, Note Name: B2, Velocity: 36
Note OFF: Time 451570, Note Name: A1
Note OFF: Time 451570, Note Name: A2
Note ON: Time 451680, Note Name: C2, Velocity: 31
Note ON: Time 451680, Note Name: C3, Velocity: 37
Note OFF: Time 451690, Note Name: B1
Note OFF: Time 451690, Note Name: B2
Note ON: Time 451800, Note Name: D2, Velocity: 31
Note ON: Time 451800, Note Name: D3, Velocity: 37
Note OFF: Time 451810, Note Name: C2
Note OFF: Time 451810, Note Name: C3
Note ON: Time 451920, Note Name: E2, Velocity: 32
Note ON: Time 451920, Note Name: E3, Velocity: 38
Note OFF: Time 451930, Note Name: D2
Note OFF: Time 451930, Note Name: D3
Note ON: Time 452040, Note Name: F2, Velocity: 32
Note ON: Time 452040, Note Name: F3, Velocity: 38
Note OFF: Time 452050, Note Name: E2
Note OFF: Time 452050, Note Name: E3
Note ON: Time 452160, Note Name: G2, Velocity: 33
Note ON: Time 452160, Note Name: G3, Velocity: 39
Note OFF: Time 452170, Note Name: F2
Note OFF: Time 452170, Note Name: F3
Note OFF: Time 452400, Note Name: G2
Note OFF: Time 452400, Note Name: G3
Note ON: Time 452400, Note Name: A2, Velocity: 31
Note ON: Time 452400, Note Name: A3, Velocity: 37
Note ON: Time 452520, Note Name: B2, Velocity: 32
Note ON: Time 452520, Note Name: B3, Velocity: 38
Note OFF: Time 452530, Note Name: A3
Note OFF: Time 452530, Note Name: A2
Note ON: Time 452640, Note Name: C3, Velocity: 33
Note ON: Time 452640, Note Name: C4, Velocity: 39
Note OFF: Time 452650, Note Name: B2
Note OFF: Time 452650, Note Name: B3
Note ON: Time 452760, Note Name: D3, Velocity: 34
Note ON: Time 452760, Note Name: D4, Velocity: 40
Note OFF: Time 452770, Note Name: C3
Note OFF: Time 452770, Note Name: C4
Note ON: Time 452880, Note Name: E3, Velocity: 35
Note ON: Time 452880, Note Name: E4, Velocity: 42
Note OFF: Time 452890, Note Name: D3
Note OFF: Time 452890, Note Name: D4
Note ON: Time 453000, Note Name: F3, Velocity: 36
Note ON: Time 453000, Note Name: F4, Velocity: 43
Note OFF: Time 453010, Note Name: E3
Note OFF: Time 453010, Note Name: E4
Note ON: Time 453120, Note Name: G3, Velocity: 37
Note ON: Time 453120, Note Name: G4, Velocity: 44
Note OFF: Time 453130, Note Name: F3
Note OFF: Time 453130, Note Name: F4
Note OFF: Time 453360, Note Name: G3
Note OFF: Time 453360, Note Name: G4
Note ON: Time 455160, Note Name: G3, Velocity: 35
Note ON: Time 455280, Note Name: F3, Velocity: 37
Note OFF: Time 455290, Note Name: G3
Note ON: Time 455400, Note Name: E3, Velocity: 38
Note OFF: Time 455410, Note Name: F3
Note ON: Time 455520, Note Name: D3, Velocity: 40
Note OFF: Time 455530, Note Name: E3
Note ON: Time 455640, Note Name: C3, Velocity: 41
Note OFF: Time 455650, Note Name: D3
Note ON: Time 455760, Note Name: B2, Velocity: 43
Note OFF: Time 455770, Note Name: C3
Note ON: Time 455880, Note Name: A2, Velocity: 44
Note OFF: Time 455890, Note Name: B2
Note ON: Time 456000, Note Name: G2, Velocity: 46
Note OFF: Time 456010, Note Name: A2
Note OFF: Time 456240, Note Name: G2
Note ON: Time 456240, Note Name: F2, Velocity: 47
Note ON: Time 456360, Note Name: E2, Velocity: 48
Note OFF: Time 456370, Note Name: F2
Note ON: Time 456480, Note Name: D2, Velocity: 50
Note OFF: Time 456490, Note Name: E2
Note ON: Time 456600, Note Name: C2, Velocity: 51
Note OFF: Time 456610, Note Name: D2
Note ON: Time 456720, Note Name: B1, Velocity: 53
Note OFF: Time 456730, Note Name: C2
Note ON: Time 456840, Note Name: A1, Velocity: 54
Note OFF: Time 456850, Note Name: B1
Note ON: Time 456960, Note Name: G1, Velocity: 57
Note OFF: Time 456970, Note Name: A1
Note ON: Time 457080, Note Name: A1, Velocity: 57
Note OFF: Time 457090, Note Name: G1
Note ON: Time 457200, Note Name: B1, Velocity: 58
Note OFF: Time 457210, Note Name: A1
Note ON: Time 457320, Note Name: C2, Velocity: 58
Note OFF: Time 457330, Note Name: B1
Note ON: Time 457440, Note Name: D2, Velocity: 59
Note OFF: Time 457450, Note Name: C2
Note ON: Time 457560, Note Name: E2, Velocity: 59
Note OFF: Time 457570, Note Name: D2
Note ON: Time 457680, Note Name: F2, Velocity: 60
Note OFF: Time 457690, Note Name: E2
Note ON: Time 457800, Note Name: F#2, Velocity: 60
Note OFF: Time 457810, Note Name: F2
Note ON: Time 457920, Note Name: G2, Velocity: 61
Note OFF: Time 457930, Note Name: F#2
Note ON: Time 458040, Note Name: A2, Velocity: 61
Note OFF: Time 458050, Note Name: G2
Note ON: Time 458160, Note Name: B2, Velocity: 62
Note OFF: Time 458170, Note Name: A2
Note ON: Time 458280, Note Name: C3, Velocity: 62
Note OFF: Time 458290, Note Name: B2
Note ON: Time 458400, Note Name: D3, Velocity: 63
Note OFF: Time 458410, Note Name: C3
Note ON: Time 458520, Note Name: E3, Velocity: 63
Note OFF: Time 458530, Note Name: D3
Note ON: Time 458640, Note Name: F3, Velocity: 64
Note OFF: Time 458650, Note Name: E3
Note ON: Time 458760, Note Name: F#3, Velocity: 64
Note OFF: Time 458770, Note Name: F3
Note ON: Time 458880, Note Name: G3, Velocity: 64
Note OFF: Time 458890, Note Name: F#3
Note ON: Time 459000, Note Name: A3, Velocity: 64
Note OFF: Time 459010, Note Name: G3
Note ON: Time 459120, Note Name: B3, Velocity: 65
Note OFF: Time 459130, Note Name: A3
Note ON: Time 459240, Note Name: C4, Velocity: 65
Note OFF: Time 459250, Note Name: B3
Note ON: Time 459360, Note Name: D4, Velocity: 66
Note OFF: Time 459370, Note Name: C4
Note ON: Time 459480, Note Name: E4, Velocity: 66
Note OFF: Time 459490, Note Name: D4
Note ON: Time 459600, Note Name: F4, Velocity: 67
Note OFF: Time 459610, Note Name: E4
Note ON: Time 459720, Note Name: F#4, Velocity: 67
Note OFF: Time 459730, Note Name: F4
Note ON: Time 459840, Note Name: G4, Velocity: 68
Note OFF: Time 459850, Note Name: F#4
Note ON: Time 459960, Note Name: A4, Velocity: 66
Note OFF: Time 459970, Note Name: G4
Note ON: Time 460080, Note Name: B4, Velocity: 65
Note OFF: Time 460090, Note Name: A4
Note ON: Time 460200, Note Name: C5, Velocity: 63
Note OFF: Time 460210, Note Name: B4
Note ON: Time 460320, Note Name: D5, Velocity: 62
Note OFF: Time 460330, Note Name: C5
Note ON: Time 460440, Note Name: E5, Velocity: 57
Note OFF: Time 460450, Note Name: D5
Note ON: Time 460560, Note Name: F5, Velocity: 55
Note OFF: Time 460570, Note Name: E5
Note ON: Time 460680, Note Name: E5, Velocity: 53
Note OFF: Time 460690, Note Name: F5
Note ON: Time 460800, Note Name: F5, Velocity: 56
Note OFF: Time 460810, Note Name: E5
Note OFF: Time 461040, Note Name: F5
Note ON: Time 461400, Note Name: E5, Velocity: 43
Note OFF: Time 461520, Note Name: E5
Note ON: Time 461520, Note Name: F5, Velocity: 46
Note OFF: Time 461640, Note Name: F5
Note ON: Time 461640, Note Name: E5, Velocity: 43
Note OFF: Time 461760, Note Name: E5
Note ON: Time 461760, Note Name: F5, Velocity: 51
Note OFF: Time 462000, Note Name: F5
Note ON: Time 462360, Note Name: E5, Velocity: 42
Note OFF: Time 462480, Note Name: E5
Note ON: Time 462480, Note Name: F5, Velocity: 46
Note OFF: Time 462600, Note Name: F5
Note ON: Time 462600, Note Name: E5, Velocity: 42
Note OFF: Time 462720, Note Name: E5
Note ON: Time 462720, Note Name: F5, Velocity: 50
Note OFF: Time 462960, Note Name: F5
Note ON: Time 464640, Note Name: C3, Velocity: 51
Note OFF: Time 464800, Note Name: C3
Note ON: Time 464800, Note Name: G3, Velocity: 31
Note OFF: Time 464960, Note Name: G3
Note ON: Time 464960, Note Name: C4, Velocity: 31
Note OFF: Time 465120, Note Name: C4
Note ON: Time 465120, Note Name: E4, Velocity: 33
Note OFF: Time 465280, Note Name: E4
Note ON: Time 465280, Note Name: C4, Velocity: 31
Note OFF: Time 465440, Note Name: C4
Note ON: Time 465440, Note Name: E4, Velocity: 31
Note OFF: Time 465600, Note Name: E4
Note ON: Time 465600, Note Name: G4, Velocity: 35
Note OFF: Time 465760, Note Name: G4
Note ON: Time 465760, Note Name: E4, Velocity: 31
Note OFF: Time 465920, Note Name: E4
Note ON: Time 465920, Note Name: G4, Velocity: 31
Note OFF: Time 466080, Note Name: G4
Note ON: Time 466080, Note Name: E4, Velocity: 35
Note OFF: Time 466240, Note Name: E4
Note ON: Time 466240, Note Name: C4, Velocity: 31
Note OFF: Time 466400, Note Name: C4
Note ON: Time 466400, Note Name: E4, Velocity: 31
Note OFF: Time 466560, Note Name: E4
Note ON: Time 466560, Note Name: F4, Velocity: 35
Note OFF: Time 466720, Note Name: F4
Note ON: Time 466720, Note Name: D4, Velocity: 31
Note OFF: Time 466880, Note Name: D4
Note ON: Time 466880, Note Name: F4, Velocity: 31
Note OFF: Time 467040, Note Name: F4
Note ON: Time 467040, Note Name: D4, Velocity: 36
Note OFF: Time 467200, Note Name: D4
Note ON: Time 467200, Note Name: B3, Velocity: 31
Note OFF: Time 467360, Note Name: B3
Note ON: Time 467360, Note Name: D4, Velocity: 31
Note OFF: Time 467520, Note Name: D4
Note ON: Time 467520, Note Name: E4, Velocity: 35
Note OFF: Time 467680, Note Name: E4
Note ON: Time 467680, Note Name: C4, Velocity: 31
Note OFF: Time 467840, Note Name: C4
Note ON: Time 467840, Note Name: G3, Velocity: 31
Note OFF: Time 468000, Note Name: G3
Note ON: Time 468000, Note Name: C4, Velocity: 35
Note OFF: Time 468160, Note Name: C4
Note ON: Time 468160, Note Name: G3, Velocity: 31
Note OFF: Time 468320, Note Name: G3
Note ON: Time 468320, Note Name: E3, Velocity: 31
Note OFF: Time 468480, Note Name: E3
Note ON: Time 468480, Note Name: C3, Velocity: 49
Note OFF: Time 468640, Note Name: C3
Note ON: Time 468640, Note Name: G3, Velocity: 31
Note OFF: Time 468800, Note Name: G3
Note ON: Time 468800, Note Name: C4, Velocity: 31
Note OFF: Time 468960, Note Name: C4
Note ON: Time 468960, Note Name: E4, Velocity: 33
Note OFF: Time 469120, Note Name: E4
Note ON: Time 469120, Note Name: C4, Velocity: 31
Note OFF: Time 469280, Note Name: C4
Note ON: Time 469280, Note Name: E4, Velocity: 31
Note OFF: Time 469440, Note Name: E4
Note ON: Time 469440, Note Name: G4, Velocity: 35
Note OFF: Time 469600, Note Name: G4
Note ON: Time 469600, Note Name: E4, Velocity: 31
Note OFF: Time 469760, Note Name: E4
Note ON: Time 469760, Note Name: G4, Velocity: 31
Note OFF: Time 469920, Note Name: G4
Note ON: Time 469920, Note Name: E4, Velocity: 35
Note OFF: Time 470080, Note Name: E4
Note ON: Time 470080, Note Name: C4, Velocity: 31
Note OFF: Time 470240, Note Name: C4
Note ON: Time 470240, Note Name: E4, Velocity: 31
Note OFF: Time 470400, Note Name: E4
Note ON: Time 470400, Note Name: F4, Velocity: 35
Note OFF: Time 470560, Note Name: F4
Note ON: Time 470560, Note Name: D4, Velocity: 31
Note OFF: Time 470720, Note Name: D4
Note ON: Time 470720, Note Name: F4, Velocity: 31
Note OFF: Time 470880, Note Name: F4
Note ON: Time 470880, Note Name: B3, Velocity: 36
Note OFF: Time 471040, Note Name: B3
Note ON: Time 471040, Note Name: D4, Velocity: 31
Note OFF: Time 471200, Note Name: D4
Note ON: Time 471200, Note Name: B3, Velocity: 31
Note OFF: Time 471360, Note Name: B3
Note ON: Time 471360, Note Name: C4, Velocity: 35
Note OFF: Time 471520, Note Name: C4
Note ON: Time 471520, Note Name: A3, Velocity: 31
Note OFF: Time 471680, Note Name: A3
Note ON: Time 471680, Note Name: G3, Velocity: 31
Note OFF: Time 471840, Note Name: G3
Note ON: Time 471840, Note Name: F3, Velocity: 35
Note OFF: Time 472000, Note Name: F3
Note ON: Time 472000, Note Name: E3, Velocity: 31
Note OFF: Time 472160, Note Name: E3
Note ON: Time 472160, Note Name: D3, Velocity: 31
Note OFF: Time 472320, Note Name: D3
Note ON: Time 472320, Note Name: C3, Velocity: 63
Note OFF: Time 472480, Note Name: C3
Note ON: Time 472480, Note Name: G3, Velocity: 31
Note OFF: Time 472640, Note Name: G3
Note ON: Time 472640, Note Name: C4, Velocity: 31
Note OFF: Time 472800, Note Name: C4
Note ON: Time 472800, Note Name: D#4, Velocity: 33
Note OFF: Time 472960, Note Name: D#4
Note ON: Time 472960, Note Name: C4, Velocity: 31
Note OFF: Time 473120, Note Name: C4
Note ON: Time 473120, Note Name: D#4, Velocity: 31
Note OFF: Time 473280, Note Name: D#4
Note ON: Time 473280, Note Name: G4, Velocity: 35
Note OFF: Time 473440, Note Name: G4
Note ON: Time 473440, Note Name: D#4, Velocity: 31
Note OFF: Time 473600, Note Name: D#4
Note ON: Time 473600, Note Name: G4, Velocity: 31
Note OFF: Time 473760, Note Name: G4
Note ON: Time 473760, Note Name: D#4, Velocity: 35
Note OFF: Time 473920, Note Name: D#4
Note ON: Time 473920, Note Name: C4, Velocity: 31
Note OFF: Time 474080, Note Name: C4
Note ON: Time 474080, Note Name: D#4, Velocity: 31
Note OFF: Time 474240, Note Name: D#4
Note ON: Time 474240, Note Name: F4, Velocity: 35
Note OFF: Time 474400, Note Name: F4
Note ON: Time 474400, Note Name: D4, Velocity: 31
Note OFF: Time 474560, Note Name: D4
Note ON: Time 474560, Note Name: F4, Velocity: 31
Note OFF: Time 474720, Note Name: F4
Note ON: Time 474720, Note Name: D4, Velocity: 36
Note OFF: Time 474880, Note Name: D4
Note ON: Time 474880, Note Name: B3, Velocity: 31
Note OFF: Time 475040, Note Name: B3
Note ON: Time 475040, Note Name: D4, Velocity: 31
Note OFF: Time 475200, Note Name: D4
Note ON: Time 475200, Note Name: D#4, Velocity: 35
Note OFF: Time 475360, Note Name: D#4
Note ON: Time 475360, Note Name: C4, Velocity: 31
Note OFF: Time 475520, Note Name: C4
Note ON: Time 475520, Note Name: D#4, Velocity: 31
Note OFF: Time 475680, Note Name: D#4
Note ON: Time 475680, Note Name: D#3, Velocity: 35
Note ON: Time 475680, Note Name: A#3, Velocity: 35
Note OFF: Time 475840, Note Name: A#3
Note ON: Time 475840, Note Name: C#4, Velocity: 31
Note OFF: Time 475920, Note Name: D#3
Note OFF: Time 476000, Note Name: C#4
Note ON: Time 476000, Note Name: A#3, Velocity: 31
Note OFF: Time 476160, Note Name: A#3
Note ON: Time 476160, Note Name: G#2, Velocity: 45
Note OFF: Time 476320, Note Name: G#2
Note ON: Time 476320, Note Name: D#3, Velocity: 31
Note OFF: Time 476480, Note Name: D#3
Note ON: Time 476480, Note Name: G#3, Velocity: 31
Note OFF: Time 476640, Note Name: G#3
Note ON: Time 476640, Note Name: C4, Velocity: 33
Note OFF: Time 476800, Note Name: C4
Note ON: Time 476800, Note Name: G#3, Velocity: 31
Note OFF: Time 476960, Note Name: G#3
Note ON: Time 476960, Note Name: C4, Velocity: 31
Note OFF: Time 477120, Note Name: C4
Note ON: Time 477120, Note Name: D#4, Velocity: 35
Note OFF: Time 477280, Note Name: D#4
Note ON: Time 477280, Note Name: C4, Velocity: 31
Note OFF: Time 477440, Note Name: C4
Note ON: Time 477440, Note Name: D#4, Velocity: 31
Note OFF: Time 477600, Note Name: D#4
Note ON: Time 477600, Note Name: C4, Velocity: 35
Note OFF: Time 477760, Note Name: C4
Note ON: Time 477760, Note Name: G#3, Velocity: 31
Note OFF: Time 477920, Note Name: G#3
Note ON: Time 477920, Note Name: C4, Velocity: 31
Note OFF: Time 478080, Note Name: C4
Note ON: Time 478080, Note Name: C#4, Velocity: 35
Note OFF: Time 478240, Note Name: C#4
Note ON: Time 478240, Note Name: A#3, Velocity: 31
Note OFF: Time 478400, Note Name: A#3
Note ON: Time 478400, Note Name: C#4, Velocity: 31
Note OFF: Time 478560, Note Name: C#4
Note ON: Time 478560, Note Name: A#3, Velocity: 36
Note OFF: Time 478720, Note Name: A#3
Note ON: Time 478720, Note Name: G3, Velocity: 31
Note OFF: Time 478880, Note Name: G3
Note ON: Time 478880, Note Name: A#3, Velocity: 31
Note OFF: Time 479040, Note Name: A#3
Note ON: Time 479040, Note Name: C4, Velocity: 35
Note OFF: Time 479200, Note Name: C4
Note ON: Time 479200, Note Name: G#3, Velocity: 31
Note OFF: Time 479360, Note Name: G#3
Note ON: Time 479360, Note Name: C4, Velocity: 31
Note OFF: Time 479520, Note Name: C4
Note ON: Time 479520, Note Name: C3, Velocity: 35
Note ON: Time 479520, Note Name: G3, Velocity: 35
Note OFF: Time 479680, Note Name: G3
Note ON: Time 479680, Note Name: A#3, Velocity: 31
Note OFF: Time 479760, Note Name: C3
Note OFF: Time 479840, Note Name: A#3
Note ON: Time 479840, Note Name: G3, Velocity: 31
Note OFF: Time 480000, Note Name: G3
Note ON: Time 480000, Note Name: F2, Velocity: 45
Note OFF: Time 480160, Note Name: F2
Note ON: Time 480160, Note Name: C3, Velocity: 31
Note OFF: Time 480320, Note Name: C3
Note ON: Time 480320, Note Name: F3, Velocity: 31
Note OFF: Time 480480, Note Name: F3
Note ON: Time 480480, Note Name: G#3, Velocity: 33
Note OFF: Time 480640, Note Name: G#3
Note ON: Time 480640, Note Name: F3, Velocity: 31
Note OFF: Time 480800, Note Name: F3
Note ON: Time 480800, Note Name: G#3, Velocity: 31
Note OFF: Time 480960, Note Name: G#3
Note ON: Time 480960, Note Name: C4, Velocity: 35
Note OFF: Time 481120, Note Name: C4
Note ON: Time 481120, Note Name: G#3, Velocity: 31
Note OFF: Time 481280, Note Name: G#3
Note ON: Time 481280, Note Name: C4, Velocity: 31
Note OFF: Time 481440, Note Name: C4
Note ON: Time 481440, Note Name: G#3, Velocity: 35
Note OFF: Time 481600, Note Name: G#3
Note ON: Time 481600, Note Name: F3, Velocity: 31
Note OFF: Time 481760, Note Name: F3
Note ON: Time 481760, Note Name: G#3, Velocity: 31
Note OFF: Time 481920, Note Name: G#3
Note ON: Time 481920, Note Name: A#3, Velocity: 35
Note OFF: Time 482080, Note Name: A#3
Note ON: Time 482080, Note Name: G3, Velocity: 31
Note OFF: Time 482240, Note Name: G3
Note ON: Time 482240, Note Name: A#3, Velocity: 31
Note OFF: Time 482400, Note Name: A#3
Note ON: Time 482400, Note Name: G3, Velocity: 36
Note OFF: Time 482560, Note Name: G3
Note ON: Time 482560, Note Name: E3, Velocity: 31
Note OFF: Time 482720, Note Name: E3
Note ON: Time 482720, Note Name: G3, Velocity: 31
Note OFF: Time 482880, Note Name: G3
Note ON: Time 482880, Note Name: G#3, Velocity: 35
Note OFF: Time 483040, Note Name: G#3
Note ON: Time 483040, Note Name: F3, Velocity: 31
Note OFF: Time 483200, Note Name: F3
Note ON: Time 483200, Note Name: G#3, Velocity: 31
Note OFF: Time 483360, Note Name: G#3
Note ON: Time 483360, Note Name: F3, Velocity: 35
Note OFF: Time 483520, Note Name: F3
Note ON: Time 483520, Note Name: C3, Velocity: 31
Note OFF: Time 483680, Note Name: C3
Note ON: Time 483680, Note Name: F3, Velocity: 31
Note OFF: Time 483840, Note Name: F3
Note ON: Time 483840, Note Name: A#3, Velocity: 35
Note OFF: Time 484000, Note Name: A#3
Note ON: Time 484000, Note Name: G3, Velocity: 31
Note OFF: Time 484160, Note Name: G3
Note ON: Time 484160, Note Name: A#3, Velocity: 31
Note OFF: Time 484320, Note Name: A#3
Note ON: Time 484320, Note Name: E3, Velocity: 36
Note OFF: Time 484480, Note Name: E3
Note ON: Time 484480, Note Name: G3, Velocity: 31
Note OFF: Time 484640, Note Name: G3
Note ON: Time 484640, Note Name: E3, Velocity: 31
Note OFF: Time 484800, Note Name: E3
Note ON: Time 484800, Note Name: F3, Velocity: 35
Note OFF: Time 484960, Note Name: F3
Note ON: Time 484960, Note Name: G#3, Velocity: 31
Note OFF: Time 485120, Note Name: G#3
Note ON: Time 485120, Note Name: F3, Velocity: 31
Note OFF: Time 485280, Note Name: F3
Note ON: Time 485280, Note Name: G3, Velocity: 35
Note OFF: Time 485440, Note Name: G3
Note ON: Time 485440, Note Name: C4, Velocity: 31
Note OFF: Time 485600, Note Name: C4
Note ON: Time 485600, Note Name: G3, Velocity: 31
Note OFF: Time 485760, Note Name: G3
Note ON: Time 485760, Note Name: F4, Velocity: 40
Note ON: Time 485760, Note Name: G#3, Velocity: 40
Note OFF: Time 486000, Note Name: G#3
Note OFF: Time 486000, Note Name: F4
Note ON: Time 486480, Note Name: G#3, Velocity: 40
Note ON: Time 486480, Note Name: F4, Velocity: 40
Note OFF: Time 486720, Note Name: F4
Note OFF: Time 486720, Note Name: G#3
Note ON: Time 486720, Note Name: G#3, Velocity: 44
Note ON: Time 486720, Note Name: F4, Velocity: 44
Note OFF: Time 486960, Note Name: F4
Note OFF: Time 486960, Note Name: G#3
Note ON: Time 487440, Note Name: G#3, Velocity: 41
Note ON: Time 487440, Note Name: F4, Velocity: 41
Note OFF: Time 487680, Note Name: F4
Note OFF: Time 487680, Note Name: G#3
Note ON: Time 487680, Note Name: G#3, Velocity: 49
Note ON: Time 487680, Note Name: F#4, Velocity: 49
Note OFF: Time 487920, Note Name: F#4
Note OFF: Time 487920, Note Name: G#3
Note ON: Time 488400, Note Name: G#3, Velocity: 47
Note ON: Time 488400, Note Name: F#4, Velocity: 47
Note OFF: Time 488640, Note Name: F#4
Note OFF: Time 488640, Note Name: G#3
Note ON: Time 488640, Note Name: G#3, Velocity: 52
Note ON: Time 488640, Note Name: F#4, Velocity: 52
Note OFF: Time 488880, Note Name: F#4
Note OFF: Time 488880, Note Name: G#3
Note ON: Time 489360, Note Name: G#3, Velocity: 48
Note ON: Time 489360, Note Name: F#4, Velocity: 48
Note OFF: Time 489600, Note Name: F#4
Note OFF: Time 489600, Note Name: G#3
Note ON: Time 489600, Note Name: G3, Velocity: 56
Note ON: Time 489600, Note Name: G4, Velocity: 56
Note OFF: Time 489840, Note Name: G4
Note OFF: Time 489840, Note Name: G3
Note ON: Time 489840, Note Name: G4, Velocity: 57
Note ON: Time 489840, Note Name: C5, Velocity: 57
Note OFF: Time 490080, Note Name: C5
Note OFF: Time 490080, Note Name: G4
Note ON: Time 490080, Note Name: G4, Velocity: 59
Note ON: Time 490080, Note Name: C5, Velocity: 59
Note OFF: Time 490320, Note Name: C5
Note OFF: Time 490320, Note Name: G4
Note ON: Time 490320, Note Name: G4, Velocity: 60
Note ON: Time 490320, Note Name: C5, Velocity: 60
Note OFF: Time 490560, Note Name: C5
Note OFF: Time 490560, Note Name: G4
Note ON: Time 490560, Note Name: G4, Velocity: 62
Note ON: Time 490560, Note Name: C5, Velocity: 62
Note OFF: Time 490800, Note Name: C5
Note OFF: Time 490800, Note Name: G4
Note ON: Time 490800, Note Name: G4, Velocity: 63
Note ON: Time 490800, Note Name: C5, Velocity: 63
Note OFF: Time 491040, Note Name: C5
Note OFF: Time 491040, Note Name: G4
Note ON: Time 491040, Note Name: G4, Velocity: 64
Note ON: Time 491040, Note Name: C5, Velocity: 64
Note OFF: Time 491280, Note Name: C5
Note OFF: Time 491280, Note Name: G4
Note ON: Time 491280, Note Name: G4, Velocity: 66
Note ON: Time 491280, Note Name: C5, Velocity: 66
Note OFF: Time 491520, Note Name: C5
Note OFF: Time 491520, Note Name: G4
Note ON: Time 491520, Note Name: G4, Velocity: 68
Note ON: Time 491520, Note Name: C5, Velocity: 46
Note OFF: Time 491600, Note Name: C5
Note ON: Time 491600, Note Name: B4, Velocity: 40
Note OFF: Time 491680, Note Name: B4
Note ON: Time 491680, Note Name: C5, Velocity: 47
Note OFF: Time 491760, Note Name: C5
Note ON: Time 491760, Note Name: B4, Velocity: 41
Note OFF: Time 491840, Note Name: B4
Note ON: Time 491840, Note Name: C5, Velocity: 50
Note OFF: Time 491920, Note Name: C5
Note ON: Time 491920, Note Name: B4, Velocity: 45
Note OFF: Time 492000, Note Name: B4
Note ON: Time 492000, Note Name: C5, Velocity: 52
Note OFF: Time 492080, Note Name: C5
Note ON: Time 492080, Note Name: B4, Velocity: 44
Note OFF: Time 492160, Note Name: B4
Note ON: Time 492160, Note Name: C5, Velocity: 52
Note OFF: Time 492240, Note Name: C5
Note ON: Time 492240, Note Name: B4, Velocity: 43
Note OFF: Time 492320, Note Name: B4
Note ON: Time 492320, Note Name: C5, Velocity: 54
Note OFF: Time 492400, Note Name: C5
Note ON: Time 492400, Note Name: B4, Velocity: 45
Note OFF: Time 492480, Note Name: B4
Note ON: Time 492480, Note Name: C5, Velocity: 50
Note OFF: Time 492560, Note Name: C5
Note ON: Time 492560, Note Name: B4, Velocity: 44
Note OFF: Time 492640, Note Name: B4
Note ON: Time 492640, Note Name: C5, Velocity: 50
Note OFF: Time 492720, Note Name: C5
Note ON: Time 492720, Note Name: B4, Velocity: 44
Note OFF: Time 492800, Note Name: B4
Note ON: Time 492800, Note Name: C5, Velocity: 54
Note OFF: Time 492880, Note Name: C5
Note ON: Time 492880, Note Name: B4, Velocity: 48
Note OFF: Time 492960, Note Name: B4
Note ON: Time 492960, Note Name: C5, Velocity: 55
Note OFF: Time 493040, Note Name: C5
Note ON: Time 493040, Note Name: B4, Velocity: 44
Note OFF: Time 493120, Note Name: B4
Note ON: Time 493120, Note Name: C5, Velocity: 54
Note OFF: Time 493200, Note Name: C5
Note ON: Time 493200, Note Name: B4, Velocity: 48
Note OFF: Time 493280, Note Name: B4
Note ON: Time 493280, Note Name: C5, Velocity: 56
Note OFF: Time 493360, Note Name: C5
Note ON: Time 493360, Note Name: B4, Velocity: 50
Note OFF: Time 493440, Note Name: B4
Note OFF: Time 493440, Note Name: G4
Note ON: Time 493440, Note Name: C2, Velocity: 85
Note OFF: Time 493680, Note Name: C2
Note ON: Time 493680, Note Name: C3, Velocity: 66
Note ON: Time 493680, Note Name: E3, Velocity: 66
Note ON: Time 493680, Note Name: G3, Velocity: 66
Note ON: Time 493680, Note Name: C4, Velocity: 78
Note OFF: Time 493800, Note Name: C4
Note OFF: Time 493800, Note Name: C3
Note OFF: Time 493800, Note Name: E3
Note OFF: Time 493800, Note Name: G3
Note ON: Time 493920, Note Name: C3, Velocity: 66
Note ON: Time 493920, Note Name: E3, Velocity: 66
Note ON: Time 493920, Note Name: G3, Velocity: 66
Note ON: Time 493920, Note Name: C4, Velocity: 78
Note OFF: Time 494400, Note Name: C4
Note OFF: Time 494400, Note Name: G3
Note OFF: Time 494400, Note Name: E3
Note ON: Time 494400, Note Name: F3, Velocity: 69
Note ON: Time 494400, Note Name: G3, Velocity: 69
Note ON: Time 494400, Note Name: B3, Velocity: 82
Note OFF: Time 494880, Note Name: B3
Note OFF: Time 494880, Note Name: G3
Note OFF: Time 494880, Note Name: F3
Note ON: Time 494880, Note Name: E3, Velocity: 65
Note ON: Time 494880, Note Name: G3, Velocity: 65
Note ON: Time 494880, Note Name: C4, Velocity: 77
Note OFF: Time 495360, Note Name: C4
Note OFF: Time 495360, Note Name: C3
Note OFF: Time 495360, Note Name: E3
Note OFF: Time 495360, Note Name: G3
Note ON: Time 495360, Note Name: C2, Velocity: 48
Note OFF: Time 495600, Note Name: C2
Note ON: Time 495600, Note Name: C3, Velocity: 37
Note ON: Time 495600, Note Name: E3, Velocity: 37
Note ON: Time 495600, Note Name: G3, Velocity: 37
Note ON: Time 495600, Note Name: C4, Velocity: 43
Note OFF: Time 495720, Note Name: C4
Note OFF: Time 495720, Note Name: C3
Note OFF: Time 495720, Note Name: E3
Note OFF: Time 495720, Note Name: G3
Note ON: Time 495840, Note Name: C3, Velocity: 37
Note ON: Time 495840, Note Name: E3, Velocity: 37
Note ON: Time 495840, Note Name: G3, Velocity: 37
Note ON: Time 495840, Note Name: C4, Velocity: 43
Note OFF: Time 496320, Note Name: C4
Note OFF: Time 496320, Note Name: G3
Note OFF: Time 496320, Note Name: E3
Note ON: Time 496320, Note Name: F3, Velocity: 38
Note ON: Time 496320, Note Name: G3, Velocity: 38
Note ON: Time 496320, Note Name: B3, Velocity: 46
Note OFF: Time 496800, Note Name: B3
Note OFF: Time 496800, Note Name: G3
Note OFF: Time 496800, Note Name: F3
Note ON: Time 496800, Note Name: E3, Velocity: 37
Note ON: Time 496800, Note Name: G3, Velocity: 37
Note ON: Time 496800, Note Name: C4, Velocity: 43
Note OFF: Time 497280, Note Name: C4
Note OFF: Time 497280, Note Name: C3
Note OFF: Time 497280, Note Name: E3
Note OFF: Time 497280, Note Name: G3
Note ON: Time 497280, Note Name: C2, Velocity: 85
Note OFF: Time 497520, Note Name: C2
Note ON: Time 497520, Note Name: C3, Velocity: 66
Note ON: Time 497520, Note Name: E3, Velocity: 66
Note ON: Time 497520, Note Name: G3, Velocity: 66
Note ON: Time 497520, Note Name: C4, Velocity: 78
Note OFF: Time 497640, Note Name: C4
Note OFF: Time 497640, Note Name: C3
Note OFF: Time 497640, Note Name: E3
Note OFF: Time 497640, Note Name: G3
Note ON: Time 497760, Note Name: C3, Velocity: 66
Note ON: Time 497760, Note Name: E3, Velocity: 66
Note ON: Time 497760, Note Name: G3, Velocity: 66
Note ON: Time 497760, Note Name: C4, Velocity: 78
Note OFF: Time 498240, Note Name: C4
Note OFF: Time 498240, Note Name: G3
Note OFF: Time 498240, Note Name: E3
Note ON: Time 498240, Note Name: F3, Velocity: 69
Note ON: Time 498240, Note Name: G3, Velocity: 69
Note ON: Time 498240, Note Name: B3, Velocity: 82
Note OFF: Time 498720, Note Name: B3
Note OFF: Time 498720, Note Name: G3
Note OFF: Time 498720, Note Name: F3
Note ON: Time 498720, Note Name: E3, Velocity: 65
Note ON: Time 498720, Note Name: G3, Velocity: 65
Note ON: Time 498720, Note Name: C4, Velocity: 77
Note OFF: Time 499200, Note Name: C4
Note OFF: Time 499200, Note Name: C3
Note OFF: Time 499200, Note Name: E3
Note OFF: Time 499200, Note Name: G3
Note ON: Time 499200, Note Name: C2, Velocity: 48
Note OFF: Time 499440, Note Name: C2
Note ON: Time 499440, Note Name: C3, Velocity: 37
Note ON: Time 499440, Note Name: E3, Velocity: 37
Note ON: Time 499440, Note Name: G3, Velocity: 37
Note ON: Time 499440, Note Name: C4, Velocity: 43
Note OFF: Time 499560, Note Name: C4
Note OFF: Time 499560, Note Name: C3
Note OFF: Time 499560, Note Name: E3
Note OFF: Time 499560, Note Name: G3
Note ON: Time 499680, Note Name: C3, Velocity: 37
Note ON: Time 499680, Note Name: E3, Velocity: 37
Note ON: Time 499680, Note Name: G3, Velocity: 37
Note ON: Time 499680, Note Name: C4, Velocity: 43
Note OFF: Time 500160, Note Name: C4
Note OFF: Time 500160, Note Name: G3
Note OFF: Time 500160, Note Name: E3
Note ON: Time 500160, Note Name: F3, Velocity: 38
Note ON: Time 500160, Note Name: G3, Velocity: 38
Note ON: Time 500160, Note Name: B3, Velocity: 46
Note OFF: Time 500640, Note Name: B3
Note OFF: Time 500640, Note Name: G3
Note OFF: Time 500640, Note Name: F3
Note ON: Time 500640, Note Name: E3, Velocity: 37
Note ON: Time 500640, Note Name: G3, Velocity: 37
Note ON: Time 500640, Note Name: C4, Velocity: 43
Note OFF: Time 501120, Note Name: C4
Note OFF: Time 501120, Note Name: C3
Note OFF: Time 501120, Note Name: E3
Note OFF: Time 501120, Note Name: G3
Note ON: Time 501120, Note Name: C3, Velocity: 34
Note ON: Time 501120, Note Name: F3, Velocity: 41
Note OFF: Time 501358, Note Name: F3
Note OFF: Time 501358, Note Name: C3
Note ON: Time 501360, Note Name: C3, Velocity: 30
Note ON: Time 501360, Note Name: F3, Velocity: 36
Note OFF: Time 501598, Note Name: F3
Note OFF: Time 501598, Note Name: C3
Note ON: Time 501600, Note Name: C3, Velocity: 31
Note ON: Time 501600, Note Name: E3, Velocity: 37
Note OFF: Time 501838, Note Name: E3
Note OFF: Time 501838, Note Name: C3
Note ON: Time 501840, Note Name: C3, Velocity: 32
Note ON: Time 501840, Note Name: E3, Velocity: 38
Note OFF: Time 502078, Note Name: E3
Note OFF: Time 502078, Note Name: C3
Note ON: Time 502080, Note Name: C3, Velocity: 34
Note ON: Time 502080, Note Name: F3, Velocity: 41
Note OFF: Time 502318, Note Name: F3
Note OFF: Time 502318, Note Name: C3
Note ON: Time 502320, Note Name: C3, Velocity: 30
Note ON: Time 502320, Note Name: F3, Velocity: 36
Note OFF: Time 502558, Note Name: F3
Note OFF: Time 502558, Note Name: C3
Note ON: Time 502560, Note Name: C3, Velocity: 31
Note ON: Time 502560, Note Name: E3, Velocity: 37
Note OFF: Time 502798, Note Name: E3
Note OFF: Time 502798, Note Name: C3
Note ON: Time 502800, Note Name: C3, Velocity: 32
Note ON: Time 502800, Note Name: E3, Velocity: 38
Note OFF: Time 503038, Note Name: E3
Note OFF: Time 503038, Note Name: C3
Note ON: Time 503040, Note Name: C3, Velocity: 37
Note ON: Time 503040, Note Name: F3, Velocity: 45
Note OFF: Time 503278, Note Name: F3
Note OFF: Time 503278, Note Name: C3
Note ON: Time 503280, Note Name: F3, Velocity: 33
Note ON: Time 503280, Note Name: C3, Velocity: 33
Note ON: Time 503280, Note Name: G3, Velocity: 40
Note OFF: Time 503518, Note Name: G3
Note OFF: Time 503518, Note Name: C3
Note OFF: Time 503518, Note Name: F3
Note ON: Time 503520, Note Name: D3, Velocity: 36
Note ON: Time 503520, Note Name: F3, Velocity: 36
Note ON: Time 503520, Note Name: G3, Velocity: 36
Note ON: Time 503520, Note Name: C3, Velocity: 36
Note ON: Time 503520, Note Name: B3, Velocity: 43
Note OFF: Time 503758, Note Name: B3
Note OFF: Time 503758, Note Name: G3
Note OFF: Time 503758, Note Name: D3
Note OFF: Time 503758, Note Name: F3
Note OFF: Time 503758, Note Name: C3
Note ON: Time 503760, Note Name: D3, Velocity: 38
Note ON: Time 503760, Note Name: F3, Velocity: 38
Note ON: Time 503760, Note Name: G3, Velocity: 38
Note ON: Time 503760, Note Name: C3, Velocity: 38
Note ON: Time 503760, Note Name: B3, Velocity: 45
Note OFF: Time 503998, Note Name: B3
Note OFF: Time 503998, Note Name: G3
Note OFF: Time 503998, Note Name: D3
Note OFF: Time 503998, Note Name: F3
Note OFF: Time 503998, Note Name: C3
Note ON: Time 504000, Note Name: D3, Velocity: 42
Note ON: Time 504000, Note Name: F3, Velocity: 42
Note ON: Time 504000, Note Name: G3, Velocity: 42
Note ON: Time 504000, Note Name: C3, Velocity: 42
Note ON: Time 504000, Note Name: B3, Velocity: 51
Note OFF: Time 504238, Note Name: B3
Note OFF: Time 504238, Note Name: G3
Note OFF: Time 504238, Note Name: D3
Note OFF: Time 504238, Note Name: F3
Note OFF: Time 504238, Note Name: C3
Note ON: Time 504240, Note Name: D3, Velocity: 38
Note ON: Time 504240, Note Name: G3, Velocity: 38
Note ON: Time 504240, Note Name: F3, Velocity: 38
Note ON: Time 504240, Note Name: C3, Velocity: 38
Note ON: Time 504240, Note Name: B3, Velocity: 46
Note OFF: Time 504478, Note Name: B3
Note OFF: Time 504478, Note Name: F3
Note OFF: Time 504478, Note Name: D3
Note OFF: Time 504478, Note Name: G3
Note OFF: Time 504478, Note Name: C3
Note ON: Time 504480, Note Name: D3, Velocity: 40
Note ON: Time 504480, Note Name: F3, Velocity: 40
Note ON: Time 504480, Note Name: G3, Velocity: 40
Note ON: Time 504480, Note Name: C3, Velocity: 40
Note ON: Time 504480, Note Name: B3, Velocity: 48
Note OFF: Time 504718, Note Name: B3
Note OFF: Time 504718, Note Name: G3
Note OFF: Time 504718, Note Name: D3
Note OFF: Time 504718, Note Name: F3
Note OFF: Time 504718, Note Name: C3
Note ON: Time 504720, Note Name: D3, Velocity: 43
Note ON: Time 504720, Note Name: F3, Velocity: 43
Note ON: Time 504720, Note Name: G3, Velocity: 43
Note ON: Time 504720, Note Name: C3, Velocity: 43
Note ON: Time 504720, Note Name: B3, Velocity: 51
Note OFF: Time 504958, Note Name: B3
Note OFF: Time 504958, Note Name: G3
Note OFF: Time 504958, Note Name: D3
Note OFF: Time 504958, Note Name: F3
Note OFF: Time 504958, Note Name: C3
Note ON: Time 504960, Note Name: D3, Velocity: 47
Note ON: Time 504960, Note Name: F3, Velocity: 47
Note ON: Time 504960, Note Name: G3, Velocity: 47
Note ON: Time 504960, Note Name: C3, Velocity: 47
Note ON: Time 504960, Note Name: B3, Velocity: 57
Note OFF: Time 505198, Note Name: B3
Note OFF: Time 505198, Note Name: G3
Note OFF: Time 505198, Note Name: D3
Note OFF: Time 505198, Note Name: F3
Note OFF: Time 505198, Note Name: C3
Note ON: Time 505200, Note Name: D3, Velocity: 42
Note ON: Time 505200, Note Name: G3, Velocity: 42
Note ON: Time 505200, Note Name: F3, Velocity: 42
Note ON: Time 505200, Note Name: C3, Velocity: 42
Note ON: Time 505200, Note Name: B3, Velocity: 50
Note OFF: Time 505438, Note Name: B3
Note OFF: Time 505438, Note Name: F3
Note OFF: Time 505438, Note Name: D3
Note OFF: Time 505438, Note Name: G3
Note OFF: Time 505438, Note Name: C3
Note ON: Time 505440, Note Name: D3, Velocity: 44
Note ON: Time 505440, Note Name: F3, Velocity: 44
Note ON: Time 505440, Note Name: G3, Velocity: 44
Note ON: Time 505440, Note Name: C3, Velocity: 44
Note ON: Time 505440, Note Name: B3, Velocity: 52
Note OFF: Time 505678, Note Name: B3
Note OFF: Time 505678, Note Name: G3
Note OFF: Time 505678, Note Name: D3
Note OFF: Time 505678, Note Name: F3
Note OFF: Time 505678, Note Name: C3
Note ON: Time 505680, Note Name: D3, Velocity: 45
Note ON: Time 505680, Note Name: F3, Velocity: 45
Note ON: Time 505680, Note Name: G3, Velocity: 45
Note ON: Time 505680, Note Name: C3, Velocity: 45
Note ON: Time 505680, Note Name: B3, Velocity: 55
Note OFF: Time 505918, Note Name: B3
Note OFF: Time 505918, Note Name: G3
Note OFF: Time 505918, Note Name: D3
Note OFF: Time 505918, Note Name: F3
Note OFF: Time 505918, Note Name: C3
Note ON: Time 505920, Note Name: D3, Velocity: 49
Note ON: Time 505920, Note Name: F3, Velocity: 49
Note ON: Time 505920, Note Name: G3, Velocity: 49
Note ON: Time 505920, Note Name: C3, Velocity: 49
Note ON: Time 505920, Note Name: B3, Velocity: 60
Note OFF: Time 506158, Note Name: B3
Note OFF: Time 506158, Note Name: G3
Note OFF: Time 506158, Note Name: D3
Note OFF: Time 506158, Note Name: F3
Note OFF: Time 506158, Note Name: C3
Note ON: Time 506160, Note Name: D3, Velocity: 45
Note ON: Time 506160, Note Name: G3, Velocity: 45
Note ON: Time 506160, Note Name: F3, Velocity: 45
Note ON: Time 506160, Note Name: C3, Velocity: 45
Note ON: Time 506160, Note Name: B3, Velocity: 54
Note OFF: Time 506398, Note Name: B3
Note OFF: Time 506398, Note Name: F3
Note OFF: Time 506398, Note Name: D3
Note OFF: Time 506398, Note Name: G3
Note OFF: Time 506398, Note Name: C3
Note ON: Time 506400, Note Name: D3, Velocity: 46
Note ON: Time 506400, Note Name: F3, Velocity: 46
Note ON: Time 506400, Note Name: G3, Velocity: 46
Note ON: Time 506400, Note Name: C3, Velocity: 46
Note ON: Time 506400, Note Name: B3, Velocity: 55
Note OFF: Time 506638, Note Name: B3
Note OFF: Time 506638, Note Name: G3
Note OFF: Time 506638, Note Name: D3
Note OFF: Time 506638, Note Name: F3
Note OFF: Time 506638, Note Name: C3
Note ON: Time 506640, Note Name: D3, Velocity: 48
Note ON: Time 506640, Note Name: F3, Velocity: 48
Note ON: Time 506640, Note Name: G3, Velocity: 48
Note ON: Time 506640, Note Name: C3, Velocity: 48
Note ON: Time 506640, Note Name: B3, Velocity: 58
Note OFF: Time 506878, Note Name: B3
Note OFF: Time 506878, Note Name: G3
Note OFF: Time 506878, Note Name: D3
Note OFF: Time 506878, Note Name: F3
Note OFF: Time 506878, Note Name: C3
Note ON: Time 506880, Note Name: C2, Velocity: 71
Note ON: Time 506880, Note Name: C3, Velocity: 71
Note OFF: Time 507120, Note Name: C3
Note OFF: Time 507120, Note Name: C2
Note ON: Time 507120, Note Name: E3, Velocity: 56
Note ON: Time 507120, Note Name: G3, Velocity: 67
Note OFF: Time 507240, Note Name: G3
Note OFF: Time 507240, Note Name: E3
Note ON: Time 507360, Note Name: C3, Velocity: 59
Note ON: Time 507360, Note Name: E3, Velocity: 70
Note OFF: Time 507480, Note Name: E3
Note OFF: Time 507480, Note Name: C3
Note ON: Time 507600, Note Name: C4, Velocity: 67
Note ON: Time 507600, Note Name: G3, Velocity: 56
Note OFF: Time 507720, Note Name: G3
Note OFF: Time 507720, Note Name: C4
Note ON: Time 507840, Note Name: E3, Velocity: 59
Note ON: Time 507840, Note Name: G3, Velocity: 70
Note OFF: Time 507960, Note Name: G3
Note OFF: Time 507960, Note Name: E3
Note ON: Time 508080, Note Name: C4, Velocity: 56
Note ON: Time 508080, Note Name: E4, Velocity: 67
Note OFF: Time 508200, Note Name: E4
Note OFF: Time 508200, Note Name: C4
Note ON: Time 508320, Note Name: G3, Velocity: 60
Note ON: Time 508320, Note Name: C4, Velocity: 71
Note OFF: Time 508440, Note Name: C4
Note OFF: Time 508440, Note Name: G3
Note ON: Time 508560, Note Name: C4, Velocity: 56
Note ON: Time 508560, Note Name: E4, Velocity: 67
Note OFF: Time 508680, Note Name: E4
Note OFF: Time 508680, Note Name: C4
Note ON: Time 508800, Note Name: E4, Velocity: 59
Note ON: Time 508800, Note Name: G4, Velocity: 70
Note OFF: Time 508920, Note Name: G4
Note OFF: Time 508920, Note Name: E4
Note ON: Time 509040, Note Name: G4, Velocity: 57
Note ON: Time 509040, Note Name: C5, Velocity: 68
Note OFF: Time 509160, Note Name: C5
Note OFF: Time 509160, Note Name: G4
Note ON: Time 509280, Note Name: E4, Velocity: 59
Note ON: Time 509280, Note Name: G4, Velocity: 70
Note OFF: Time 509400, Note Name: G4
Note OFF: Time 509400, Note Name: E4
Note ON: Time 509520, Note Name: C5, Velocity: 57
Note ON: Time 509520, Note Name: E5, Velocity: 68
Note OFF: Time 509640, Note Name: E5
Note OFF: Time 509640, Note Name: C5
Note ON: Time 509760, Note Name: G4, Velocity: 60
Note ON: Time 509760, Note Name: C5, Velocity: 71
Note OFF: Time 509880, Note Name: C5
Note OFF: Time 509880, Note Name: G4
Note ON: Time 510000, Note Name: E5, Velocity: 58
Note ON: Time 510000, Note Name: G5, Velocity: 69
Note OFF: Time 510120, Note Name: G5
Note OFF: Time 510120, Note Name: E5
Note ON: Time 510240, Note Name: C5, Velocity: 61
Note ON: Time 510240, Note Name: E5, Velocity: 72
Note OFF: Time 510360, Note Name: E5
Note OFF: Time 510360, Note Name: C5
Note ON: Time 510480, Note Name: E5, Velocity: 58
Note ON: Time 510480, Note Name: G5, Velocity: 69
Note OFF: Time 510600, Note Name: G5
Note OFF: Time 510600, Note Name: E5
Note ON: Time 510720, Note Name: C5, Velocity: 61
Note ON: Time 510720, Note Name: E5, Velocity: 72
Note OFF: Time 510840, Note Name: E5
Note OFF: Time 510840, Note Name: C5
Note ON: Time 511680, Note Name: E4, Velocity: 44
Note ON: Time 511680, Note Name: G4, Velocity: 62
Note OFF: Time 511920, Note Name: G4
Note OFF: Time 511920, Note Name: E4
Note ON: Time 512640, Note Name: C4, Velocity: 39
Note ON: Time 512640, Note Name: E4, Velocity: 56
Note OFF: Time 512880, Note Name: E4
Note OFF: Time 512880, Note Name: C4
Note ON: Time 513600, Note Name: E3, Velocity: 37
Note ON: Time 513600, Note Name: G3, Velocity: 52
Note OFF: Time 513840, Note Name: G3
Note OFF: Time 513840, Note Name: E3
Note ON: Time 514560, Note Name: C3, Velocity: 32
Note ON: Time 514560, Note Name: E3, Velocity: 45
Note OFF: Time 514800, Note Name: E3
Note OFF: Time 514800, Note Name: C3
Note ON: Time 515520, Note Name: E4, Velocity: 28
Note ON: Time 515520, Note Name: G4, Velocity: 34
Note OFF: Time 515760, Note Name: G4
Note OFF: Time 515760, Note Name: E4
Note ON: Time 516000, Note Name: E4, Velocity: 28
Note ON: Time 516000, Note Name: G4, Velocity: 34
Note OFF: Time 516240, Note Name: G4
Note OFF: Time 516240, Note Name: E4
Note ON: Time 516480, Note Name: C4, Velocity: 28
Note ON: Time 516480, Note Name: E4, Velocity: 34
Note OFF: Time 516720, Note Name: E4
Note OFF: Time 516720, Note Name: C4
Note ON: Time 517440, Note Name: C2, Velocity: 69
Note ON: Time 517440, Note Name: E2, Velocity: 69
Note ON: Time 517440, Note Name: G2, Velocity: 69
Note ON: Time 517440, Note Name: C3, Velocity: 82
Note OFF: Time 517560, Note Name: C3
Note OFF: Time 517560, Note Name: C2
Note OFF: Time 517560, Note Name: E2
Note OFF: Time 517560, Note Name: G2
Note ON: Time 517920, Note Name: C2, Velocity: 69
Note ON: Time 517920, Note Name: E2, Velocity: 69
Note ON: Time 517920, Note Name: G2, Velocity: 69
Note ON: Time 517920, Note Name: C3, Velocity: 82
Note OFF: Time 518040, Note Name: C3
Note OFF: Time 518040, Note Name: C2
Note OFF: Time 518040, Note Name: E2
Note OFF: Time 518040, Note Name: G2
Note ON: Time 518400, Note Name: C2, Velocity: 69
Note ON: Time 518400, Note Name: E2, Velocity: 69
Note ON: Time 518400, Note Name: G2, Velocity: 69
Note ON: Time 518400, Note Name: C3, Velocity: 82
Note OFF: Time 518520, Note Name: C3
Note OFF: Time 518520, Note Name: C2
Note OFF: Time 518520, Note Name: E2
Note OFF: Time 518520, Note Name: G2
Note ON: Time 519360, Note Name: C2, Velocity: 69
Note ON: Time 519360, Note Name: E2, Velocity: 69
Note ON: Time 519360, Note Name: G2, Velocity: 69
Note ON: Time 519360, Note Name: C3, Velocity: 82
Note OFF: Time 519480, Note Name: C3
Note OFF: Time 519480, Note Name: C2
Note OFF: Time 519480, Note Name: E2
Note OFF: Time 519480, Note Name: G2
Note ON: Time 520320, Note Name: C2, Velocity: 69
Note ON: Time 520320, Note Name: E2, Velocity: 69
Note ON: Time 520320, Note Name: G2, Velocity: 69
Note ON: Time 520320, Note Name: C3, Velocity: 82
Note OFF: Time 520440, Note Name: C3
Note OFF: Time 520440, Note Name: C2
Note OFF: Time 520440, Note Name: E2
Note OFF: Time 520440, Note Name: G2
Track 4: Pedale
Track 5: Beethoven Sonata No. 21 C major, Waldsteinsonate 3. Movement
Track 6: Copyright  2003 by Bernd Krueger
Track 7: http://www.piano-midi.de
Track 8: Edition: 2012-07-11
